<svg width="22" height="22" version="1.1" xmlns="http://www.w3.org/2000/svg">
 <defs>
  <style type="text/css">.ColorScheme-Text {
        color:#2e3440;
      }</style>
 </defs>
 <g class="ColorScheme-Text" transform="translate(-1230,-58)" fill="currentColor">
  <path class="ColorScheme-Text" transform="translate(1233,61)" d="m8 5c-1.68 0-3 1.32-3 3s1.32 3 3 3 3-1.32 3-3-1.32-3-3-3zm0.00586 1.0059a2.002 2.002 0 0 1 1.9961 1.9961 2.002 2.002 0 0 1-1.9961 1.9961c-1.098 0-2.0137-0.89709-2.0137-1.9961 0-1.098 0.91567-1.9961 2.0137-1.9961z" fill="currentColor"/>
 </g>
 <path class="ColorScheme-Text" d="m10.99 2a9 9 0 0 0-8.9902 9 9 9 0 0 0 9 9 9 9 0 0 0 3-0.51562v-1.0703a8 8 0 0 1-3 0.58594 8 8 0 0 1-8-8 8 8 0 0 1 8-8 8 8 0 0 1 8 8 8 8 0 0 1-0.58398 3h1.0684a9 9 0 0 0 0.51562-3 9 9 0 0 0-9-9 9 9 0 0 0-0.009766 0z" fill="currentColor"/>
 <path d="m15 14.589v7h3l2-2v-5zm1 1h3v4h-1v1h-2z" fill="#2e3440"/>
</svg>
