<svg width="32" height="32" version="1.1" viewBox="0 0 32 32" xmlns="http://www.w3.org/2000/svg">
 <defs>
  <linearGradient id="linearGradient863" x1="399.57" x2="399.57" y1="545.8" y2="517.8" gradientTransform="translate(-384.57 -515.8)" gradientUnits="userSpaceOnUse">
   <stop stop-color="#d8dee9" offset="0"/>
   <stop stop-color="#eceff4" offset="1"/>
  </linearGradient>
  <filter id="filter973" x="-.026221" y="-.026221" width="1.0524" height="1.0524" color-interpolation-filters="sRGB">
   <feGaussianBlur stdDeviation="0.3168445"/>
  </filter>
 </defs>
 <rect x="1" y=".99997" width="30" height="30" rx="8" ry="8" fill="url(#linearGradient863)"/>
 <g transform="matrix(.70724 0 0 .70724 1.9895 3.3476)" fill="#2e3440" filter="url(#filter973)" opacity=".45706" stroke-width=".25">
  <path d="m19.492 3.6922c-3.324 0-6.0001 1.338-6.0001 3v4h6.0001v1h-11c-1.662 0-3 2.676-3 6.0001v1c0 3.324 1.338 6.0001 3 6.0001h4v-3s0-4 4-4h7.9999s2 0 2-2v-9c0-1.662-2.676-3-6.0001-3zm-3 2c0.55228 0 1 0.44773 1 1 0 0.55228-0.44773 1-1 1-0.55228 0-1-0.44773-1-1 0-0.55228 0.44773-1 1-1z"/>
  <path d="m20.492 32.692c3.324 0 6.0001-1.338 6.0001-3v-4h-6.0001v-1h11c1.662 0 3-2.676 3-6.0001v-1c0-3.324-1.338-6.0001-3-6.0001h-4v4c0 3-3 3-3 3h-7.9999c-3 0-3 3-3 3v7.9999c0 1.662 2.676 3 6.0001 3zm3-3c-0.55228 0-1-0.44773-1-1 0-0.55228 0.44773-1 1-1s1 0.44773 1 1c0 0.55228-0.44773 1-1 1z"/>
 </g>
 <g transform="matrix(.70724 0 0 .70724 1.8611 3.1337)" stroke-width=".25">
  <path d="m19.492 3.6922c-3.324 0-6.0001 1.338-6.0001 3v4h6.0001v1h-11c-1.662 0-3 2.676-3 6.0001v1c0 3.324 1.338 6.0001 3 6.0001h4v-3s0-4 4-4h7.9999s2 0 2-2v-9c0-1.662-2.676-3-6.0001-3zm-3 2c0.55228 0 1 0.44773 1 1 0 0.55228-0.44773 1-1 1-0.55228 0-1-0.44773-1-1 0-0.55228 0.44773-1 1-1z" fill="#5e81ac"/>
  <path d="m20.492 32.692c3.324 0 6.0001-1.338 6.0001-3v-4h-6.0001v-1h11c1.662 0 3-2.676 3-6.0001v-1c0-3.324-1.338-6.0001-3-6.0001h-4v4c0 3-3 3-3 3h-7.9999c-3 0-3 3-3 3v7.9999c0 1.662 2.676 3 6.0001 3zm3-3c-0.55228 0-1-0.44773-1-1 0-0.55228 0.44773-1 1-1s1 0.44773 1 1c0 0.55228-0.44773 1-1 1z" fill="#ebcb8b"/>
 </g>
</svg>
