<svg width="16" height="16" version="1.1" viewBox="0 0 16 16" xmlns="http://www.w3.org/2000/svg">
 <defs>
  <style type="text/css">.ColorScheme-Text { color:#2e3440; }</style>
 </defs>
 <g transform="matrix(2.3417 0 0 2.3417 -11.826 -13.065)">
  <g transform="matrix(.26458 0 0 .26458 -.00016583 .007953)">
   <g transform="translate(-1.3816 .7117)">
    <g fill="#2e3440">
     <path d="m42.894 40.418a11.92 11.92 0 0 0 0.9707-1.4863 11.92 11.92 0 0 0 0.22461-0.51367h-7.9082a4 4 0 0 1-4-4 4 4 0 0 1 4-4 4 4 0 0 1 3.459 2h2.1895a6 6 0 0 0-5.6484-4 6 6 0 0 0-6 6 6 6 0 0 0 6 6z"/>
     <path d="m39.565 43.418a11.92 11.92 0 0 0 0.33594-0.18164 11.92 11.92 0 0 0 1.5527-1.209 11.92 11.92 0 0 0 0.5625-0.60938h-5.8359c-3.866 0-7-3.134-7-7s3.134-7 7-7c1.0385 0.0032 2.0632 0.23733 3 0.68555v-2.1602c-0.96289-0.34429-1.9774-0.52196-3-0.52539-4.9706 0-9 4.0294-9 9s4.0294 9 9 9z"/>
     <path d="m29.886 44.619a11.92 11.92 0 0 0 0.57031 0.19531 11.92 11.92 0 0 0 1.9414 0.32226 11.92 11.92 0 0 0 1.9688 0 11.92 11.92 0 0 0 1.9414-0.32226 11.92 11.92 0 0 0 1.1523-0.39648h-1.2793a10 10 0 0 1-10-10 10 10 0 0 1 10-10v-2a12 12 0 0 0-12 12 12 12 0 0 0 5.7051 10.201z"/>
    </g>
    <path d="m45.302 33.258a11.92 11.92 0 0 1-23.84 0 11.92 11.92 0 0 1 23.84 0z" fill="none" stroke="#2e3440" stroke-width="1.25"/>
   </g>
  </g>
 </g>
</svg>
