<svg width="16" height="16" version="1.1" viewBox="0 0 16 16" xmlns="http://www.w3.org/2000/svg">
 <defs>
  <style type="text/css">.ColorScheme-Text { color:#2e3440; }</style>
 </defs>
 <path class="ColorScheme-Text" d="m12.779 1c-2.9602 0-3.5172 4-1.85 4 1.664 0 4.812-4 1.85-4zm-4.5492 1c-0.047 0-0.099 5e-3 -0.151 0.01-1.695 0.204-1.1 2.939-0.197 2.99 0.873 0.05 1.829-2.992 0.349-3zm-3.09 1c-0.121-5e-3 -0.256 0.011-0.405 0.049-1.586 0.401-0.241 2.057 0.647 1.945 0.806-0.101 0.923-1.947-0.242-1.994zm-2.211 2c-0.142-2e-3 -0.296 0.029-0.459 0.105-1.304 0.616 0.44 2.102 1.207 1.872 0.671-0.202 0.243-1.954-0.748-1.977zm6.082 1c-2.334-0.037-5.412 1.065-5.938 3.279-0.568 2.397 2.343 5.721 5.377 5.721 1.493 0 3.2152-0.671 3.5372-2.279 0.245-1.226-3.0912-0.698-2.9782 0.113 0.135 0.973-0.563 0.818-1.438 0.191-2.57-2.025 4.6102-2.991 4.1232-5.718-0.151-0.849-1.283-1.283-2.6832-1.305z" fill="currentColor"/>
</svg>
