<svg width="16" height="16" version="1.1" viewBox="0 0 16 16" xmlns="http://www.w3.org/2000/svg">
 <defs>
  <style type="text/css">.ColorScheme-Text { color:#2e3440; }</style>
 </defs>
 <path class="ColorScheme-Text" d="m7.092 2.0466c-3.5556 0-2.7284 3.2482-4.5488 4.2266-0.062744 0.0356-0.098024 0.06839-0.1543 0.10352 1.2005-0.71459 2.6803-1.3121 4.252-1.7168 1.3309-0.34238 2.6808-0.53446 3.9258-0.55859 0.03199-1.14e-4 0.0639-1.14e-4 0.0957 0-1.2006-0.34117-1.3319-2.0547-3.5703-2.0547zm3.875 2.9551c-1.2449 0.02414-2.5949 0.21621-3.9258 0.55859-4.3865 1.1288-7.5126 3.5833-6.9824 5.4824 0.30552 1.0852 1.7776 1.8013 3.9707 1.9316-1e-3 -0.0082-0.00301-0.01523-0.00391-0.02344-0.11839-1.0268 0.53308-1.9199 1.2969-2.5254 0.7638-0.60545 1.7463-1.0451 2.8496-1.2793 1.1033-0.23421 2.1364-0.22289 3 0.03711 0.81189 0.24444 1.5757 0.7778 1.7637 1.6934 2.1981-1.2323 3.3382-2.7182 3.0078-3.9199-0.34995-1.2582-2.2586-2.008-4.9766-1.9551zm-1.3047 4.998a1.8586 3.577 76.001 0 0-1.377 0.14258 1.8586 3.577 76.001 0 0-3.2793 2.5996 1.8586 3.577 76.001 0 0 3.709 1.1152 1.8586 3.577 76.001 0 0 3.2773-2.5996 1.8586 3.577 76.001 0 0-2.3301-1.2578z" fill="currentColor"/>
</svg>
