<svg width="16" height="16" version="1.1" xmlns="http://www.w3.org/2000/svg">
 <defs>
  <style type="text/css">.ColorScheme-Text { color:#2e3440; }</style>
 </defs>
 <g transform="matrix(1.7607 0 0 1.7607 -7.6968 -7.7439)" fill="#2e3440">
  <g transform="matrix(.5477 0 0 .5477 4.5469 4.4748)" fill="#2e3440" stroke-width=".038634">
   <path d="m7.142 6.151c0.41408-1.1029 0.76411-1.9852 0.77784-1.9607 0.027591 0.049259 1.2347 3.1906 1.4089 3.6665l0.1096 0.29941h3.2606l-0.13787-0.35736c-0.77016-1.9963-2.4182-5.8616-2.9288-6.8693l-0.097245-0.1919-3.1436 0.020185-0.29963 0.63746c-0.77401 1.6467-2.2045 5.0271-2.7671 6.5388l-0.082667 0.22214h3.147z"/>
   <path d="m11.697 8.7793c-0.91676-0.00108-2.15 0.0011-3.8242 0.00391l-6.1211 0.00977-0.22266 0.091797c-0.29351 0.11847-0.65727 0.45402-0.80273 0.74219-0.16603 0.32892-0.21121 0.6534-0.13672 0.97461 0.03305 0.14255 0.10233 0.34275 0.1543 0.44531 0.17843 0.35213 0.59921 0.68733 0.97852 0.77734 0.082244 0.01947 2.8205 0.03076 6.3262 0.02734l6.1816-0.0059 0.26172-0.12305c0.478-0.22643 0.7821-0.63313 0.88281-1.1797 0.10814-0.58693-0.20142-1.2319-0.74219-1.5488-0.2971-0.17411-0.18525-0.2116-2.9355-0.21484zm-5.8887 0.61328c4.2857 0 4.0631-0.014893 4.3672 0.28906 0.37484 0.37484 0.36293 0.94816-0.02734 1.3223-0.26907 0.25792-0.0094 0.24222-4.3477 0.24219-3.9129-3e-5 -3.9331 4.02e-4 -4.0957-0.08008-0.75482-0.37363-0.66827-1.479 0.13477-1.7207 0.14401-0.043333 0.86707-0.052734 3.9688-0.052734z"/>
   <path d="m15.371 15.539c0-0.01925-0.21023-0.63199-0.46718-1.3618-0.25695-0.72985-0.49664-1.411-0.53266-1.5136l-0.06549-0.18658-1.7353 0.0044c-0.95443 0.0025-1.7402 0.0093-1.7461 0.01523-0.0059 0.0059 0.20625 0.64174 0.47152 1.4129 0.26526 0.77118 0.4823 1.4165 0.4823 1.434 0 0.01756 0.01693 0.07645 0.03768 0.13095l0.03768 0.09911h1.7588c1.019 0 1.7588-0.0146 1.7588-0.03483z"/>
   <path d="m4.1625 15.043c0.091236-0.29217 0.3227-0.97981 0.51438-1.5281 0.19168-0.54828 0.34146-1.0039 0.33284-1.0125-0.00868-0.0087-0.76723-0.02074-1.6858-0.02691l-1.6701-0.01121-0.071855 0.19318c-0.13256 0.35637-1.0082 2.869-1.0082 2.8931 0 0.01312 0.77015 0.02376 1.7114 0.02376h1.7114z"/>
  </g>
 </g>
</svg>
