<svg width="16" height="16" version="1.1" xmlns="http://www.w3.org/2000/svg">
 <defs>
  <style type="text/css">.ColorScheme-Text { color:#2e3440; }</style>
 </defs>
 <g transform="matrix(2.1229 0 0 2.1229 -9.943 -11.119)" fill="#2e3440">
  <path class="cls-1" d="m7.714 9.1248-0.21552 0.21552v-0.42807zm3.2933-1.6832h0.01603a0.14903 0.14903 0 0 1 0.11459 0.05403c0.6727 0.69703 1.0289 2.2104 0.95174 3.2234a2.0288 2.0288 0 0 1-0.16802 0.71247c-0.10331 0.21255-0.25233 0.35207-0.45183 0.38889-0.25412 0.0469-0.57177-0.08728-0.95352-0.47498-0.04928-0.04987-0.10034-0.10034-0.15259-0.152a4.4239 4.4239 0 0 1-0.52427-0.58245h-2.7738a4.3378 4.3378 0 0 1-0.52545 0.58423c-0.051654 0.051062-0.10271 0.10093-0.1514 0.15021-0.38176 0.38889-0.69941 0.52308-0.95353 0.47498-0.19949-0.035029-0.34912-0.17693-0.45243-0.38711a2.0317 2.0317 0 0 1-0.16802-0.71247c-0.078371-1.0194 0.28083-2.5416 0.96361-3.2334a0.14724 0.14724 0 0 1 0.10568-0.044529h0.016625c0.42096-0.57948 1.3656-0.58542 1.7865 0h0.46963c-0.036218-0.88821 0.21018-1.1109 0.57412-1.1358a1.8465 1.8465 0 0 1 0.41561 0.038592c0.27607 0.045716 0.58185 0.096183 0.79855-0.11874a0.14724 0.14724 0 0 1 0.21018 0 0.14843 0.14843 0 0 1 0 0.21018c-0.32476 0.32417-0.71247 0.26063-1.0568 0.20306a1.6529 1.6529 0 0 0-0.34972-0.035029c-0.19652 0.013062-0.32714 0.17812-0.29686 0.83835h0.76649c0.41977-0.58126 1.3656-0.58304 1.7865 0zm-3.8759 0.9363v0.39541h0.39541c0.44767 0 0.44767 0.67684 0 0.67684h-0.39541v0.39541c0 0.44767-0.67684 0.44767-0.67684 0v-0.39482h-0.39541c-0.44767 0-0.44767-0.67684 0-0.67684h0.39541v-0.39601c0-0.44767 0.67684-0.44767 0.67684 0zm3.0921-0.34436a0.3123 0.3123 0 1 1-0.44172 0 0.3117 0.3117 0 0 1 0.44172 0zm0 1.362a0.3123 0.3123 0 1 1-0.44172 0 0.3117 0.3117 0 0 1 0.44172 0zm0.74929-0.71247a0.3123 0.3123 0 1 1-0.44172 0 0.31289 0.31289 0 0 1 0.44172 0zm-1.4992 0a0.3123 0.3123 0 1 1-0.44172 0 0.3117 0.3117 0 0 1 0.44172 0zm-2.6718-0.46787 0.21552 0.21552h-0.42867l0.21552-0.21552zm-0.90543 0.90959 0.21434 0.21552v-0.42807l-0.21552 0.21552zm0.90781 0.90721 0.21552-0.21552h-0.43104z" fill="#2e3440" fill-rule="evenodd" stroke-width=".059372"/>
 </g>
</svg>
