<svg version="1.1" viewBox="0 0 32 32" xmlns="http://www.w3.org/2000/svg">
 <style>.ColorScheme-Text { 
    color:#2e3440;
}</style>
 <g fill="currentColor" stroke="currentColor" stroke-linecap="round" stroke-linejoin="round" stroke-width=".642">
  <path class="ColorScheme-Text" d="m5.7249 3.4416c-1.265 0-2.2833 1.0184-2.2833 2.2833v6.85c0 1.265 1.0184 2.2833 2.2833 2.2833h6.85c1.265 0 2.2833-1.0184 2.2833-2.2833v-6.85c0-1.265-1.0184-2.2833-2.2833-2.2833zm0 1.1417h6.85c0.63249 0 1.1417 0.50919 1.1417 1.1417v6.85c0 0.63249-0.50919 1.1417-1.1417 1.1417h-6.85c-0.63249 0-1.1417-0.50919-1.1417-1.1417v-6.85c0-0.63249 0.50919-1.1417 1.1417-1.1417z" opacity=".9"/>
  <path class="ColorScheme-Text" d="m19.425 3.4416c-1.265 0-2.2833 1.0184-2.2833 2.2833v6.85c0 1.265 1.0184 2.2833 2.2833 2.2833h6.85c1.265 0 2.2833-1.0184 2.2833-2.2833v-6.85c0-1.265-1.0184-2.2833-2.2833-2.2833zm0 1.1417h6.85c0.63249 0 1.1417 0.50919 1.1417 1.1417v6.85c0 0.63249-0.50919 1.1417-1.1417 1.1417h-6.85c-0.63249 0-1.1417-0.50919-1.1417-1.1417v-6.85c0-0.63249 0.50919-1.1417 1.1417-1.1417z" opacity=".9"/>
  <path class="ColorScheme-Text" d="m5.7249 17.142c-1.265 0-2.2833 1.0184-2.2833 2.2833v6.85c0 1.265 1.0184 2.2833 2.2833 2.2833h6.85c1.265 0 2.2833-1.0184 2.2833-2.2833v-6.85c0-1.265-1.0184-2.2833-2.2833-2.2833zm0 1.1417h6.85c0.63249 0 1.1417 0.50919 1.1417 1.1417v6.85c0 0.63249-0.50919 1.1417-1.1417 1.1417h-6.85c-0.63249 0-1.1417-0.50919-1.1417-1.1417v-6.85c0-0.63249 0.50919-1.1417 1.1417-1.1417z" opacity=".9"/>
  <path class="ColorScheme-Text" d="m19.425 17.142c-1.265 0-2.2833 1.0184-2.2833 2.2833v6.85c0 1.265 1.0184 2.2833 2.2833 2.2833h6.85c1.265 0 2.2833-1.0184 2.2833-2.2833v-6.85c0-1.265-1.0184-2.2833-2.2833-2.2833zm0 1.1417h6.85c0.63249 0 1.1417 0.50919 1.1417 1.1417v6.85c0 0.63249-0.50919 1.1417-1.1417 1.1417h-6.85c-0.63249 0-1.1417-0.50919-1.1417-1.1417v-6.85c0-0.63249 0.50919-1.1417 1.1417-1.1417z" opacity=".9"/>
 </g>
</svg>
