<svg width="64" height="64" version="1.1" viewBox="0 0 16.933 16.933" xmlns="http://www.w3.org/2000/svg">
 <defs>
  <filter id="filter2347-3" x="-.024546" y="-.029999" width="1.0491" height="1.06" color-interpolation-filters="sRGB">
   <feGaussianBlur stdDeviation="0.14938518"/>
  </filter>
  <filter id="filter2161-7" x="-.024009" y="-.030842" width="1.048" height="1.0617" color-interpolation-filters="sRGB">
   <feGaussianBlur stdDeviation="0.146119"/>
  </filter>
  <linearGradient id="linearGradient2575" x1="26.221" x2="26.221" y1="14.474" y2="3.3043" gradientUnits="userSpaceOnUse">
   <stop stop-color="#2e3440" stop-opacity=".15" offset="0"/>
   <stop stop-color="#2e3440" stop-opacity="0" offset="1"/>
  </linearGradient>
 </defs>
 <g transform="translate(2.4e-5,1.327e-4)">
  <g transform="translate(-17.964 -.21096)" stroke-linecap="round" stroke-linejoin="round">
   <g stroke-width=".16404">
    <path transform="matrix(1.01 0 0 1.01 17.858 -.15638)" d="m2.0282 2.7764h4.6989c0.58902 0 0.64003 1.0583 1.3149 1.0583h6.9051c0.4674 0 0.84368 0.37628 0.84368 0.84368v9.2054c0 0.4674-0.37628 0.84368-0.84368 0.84368h-12.919c-0.4674 0-0.84368-0.37628-0.84368-0.84368v-10.264c0-0.4674 0.37628-0.84368 0.84368-0.84368z" fill="#2e3440" filter="url(#filter2347-3)" opacity=".15"/>
    <path d="m19.971 2.6366h4.6989c0.58902 0 0.64003 1.0583 1.3149 1.0583h6.9051c0.4674 0 0.84368 0.37628 0.84368 0.84368v9.2054c0 0.4674-0.37628 0.84368-0.84368 0.84368h-12.919c-0.4674 0-0.84368-0.37628-0.84368-0.84368v-10.264c0-0.4674 0.37628-0.84368 0.84368-0.84368z" fill="#8fbcbb"/>
    <path d="m19.971 2.6366h4.6989c0.58902 0 0.64003 1.0583 1.3149 1.0583h6.9051c0.4674 0 0.84368 0.37628 0.84368 0.84368v9.2054c0 0.4674-0.37628 0.84368-0.84368 0.84368h-12.919c-0.4674 0-0.84368-0.37628-0.84368-0.84368v-10.264c0-0.4674 0.37628-0.84368 0.84368-0.84368z" fill="#2e3440" opacity=".15"/>
   </g>
   <g stroke-width=".16365">
    <path d="m19.971 3.8487h4.6989c0.58902 0 0.64003-1.0533 1.3149-1.0533h6.9051c0.4674 0 0.84368 0.3745 0.84368 0.83969v9.691c0 0.46519-0.37628 0.83969-0.84368 0.83969h-12.919c-0.4674 0-0.84368-0.3745-0.84368-0.83969v-8.6377c0-0.46519 0.37628-0.83969 0.84368-0.83969z" fill="#2e3440" filter="url(#filter2161-7)" opacity=".15"/>
    <path d="m19.971 4.2271h4.6989c0.58902 0 0.64003-1.0533 1.3149-1.0533h6.9051c0.4674 0 0.84368 0.3745 0.84368 0.83969v9.691c0 0.46519-0.37628 0.83969-0.84368 0.83969h-12.919c-0.4674 0-0.84368-0.3745-0.84368-0.83969v-8.6377c0-0.46519 0.37628-0.83969 0.84368-0.83969z" fill="#8fbcbb"/>
    <path d="m19.971 4.2271h4.6989c0.58902 0 0.64003-1.0533 1.3149-1.0533h6.9051c0.4674 0 0.84368 0.3745 0.84368 0.83969v9.691c0 0.46519-0.37628 0.83969-0.84368 0.83969h-12.919c-0.4674 0-0.84368-0.3745-0.84368-0.83969v-8.6377c0-0.46519 0.37628-0.83969 0.84368-0.83969z" fill="url(#linearGradient2575)"/>
   </g>
  </g>
 </g>
 <path d="m8.9335 6.0622c-0.16079-0.020145-0.3245 0.055839-0.41089 0.20544l-2.9104 5.041c-0.11517 0.19947-0.04762 0.45243 0.15185 0.5676s0.45325 0.04762 0.56842-0.15185l2.9104-5.041c0.11517-0.19947 0.04681-0.45325-0.15266-0.56842-0.04987-0.028791-0.10312-0.046066-0.15672-0.052781zm-0.25904 5.4543c-0.11517 0-0.20788 0.09271-0.20788 0.20788 0 0.11516 0.09271 0.20788 0.20788 0.20788h2.4945c0.11516 0 0.20788-0.09271 0.20788-0.20788s-0.09271-0.20788-0.20788-0.20788z" opacity=".15" stroke-linecap="round" stroke-linejoin="round" stroke-width=".85879" style="paint-order:markers stroke fill"/>
</svg>
