<svg width="16" height="16.003" xmlns="http://www.w3.org/2000/svg">
 <g transform="translate(-1133 -41)">
  <path d="m1141 41.003c-3.315 0-6 2.685-6 6v3h1v-3c0-2.778 2.222-5 5-5 2.779 0 5 2.222 5 5v6c0 1.662-1.338 3-3 3v-1h-4v2h4c2.216 0 4-1.784 4-4v-6c0-3.315-2.684-6-6-6zm-4 7v4h1s1 0 1-1v-2c0-1-1-1-1-1zm7 0s-1 0-1 1v2c0 1 1 1 1 1h1v-4z" fill="#2e3440" font-family="sans-serif" font-weight="400" overflow="visible" style="font-feature-settings:normal;font-variant-alternates:normal;font-variant-caps:normal;font-variant-ligatures:normal;font-variant-numeric:normal;font-variant-position:normal;isolation:auto;mix-blend-mode:normal;shape-padding:0;text-decoration-color:#000;text-decoration-line:none;text-decoration-style:solid;text-indent:0;text-orientation:mixed;text-transform:none" white-space="normal"/>
 </g>
</svg>
