<svg width="16" height="16" version="1.1" xmlns="http://www.w3.org/2000/svg">
 <g transform="translate(-1293 -61)">
  <path d="M1296 63.003v11c0 .834.564 1.526 1.053 1.77.488.244.947.23.947.23h7s.459.014.947-.23c.489-.244 1.053-.936 1.053-1.77v-8.445l-.324-.324-1.906-1.906-.325-.325H1304zm1 1h1v2h1v-2h1v2h1v-2h1v2h1v-2h1.031l.031.032 1.906 1.906.031.031v8.031c0 1-1 1-1 1h-7s-1 0-1-1z" fill="#2e3440" font-family="sans-serif" font-weight="400" overflow="visible" style="font-feature-settings:normal;font-variant-alternates:normal;font-variant-caps:normal;font-variant-ligatures:normal;font-variant-numeric:normal;font-variant-position:normal;isolation:auto;mix-blend-mode:normal;shape-padding:0;text-decoration-color:#000;text-decoration-line:none;text-decoration-style:solid;text-indent:0;text-orientation:mixed;text-transform:none" white-space="normal"/>
 </g>
</svg>
