<svg viewBox="0 0 22 22" xmlns="http://www.w3.org/2000/svg">
 <defs>
  <style type="text/css">.ColorScheme-Text {
        color:#2e3440;
      }</style>
 </defs>
 <path class="ColorScheme-Text" d="m11 4a6 6 0 0 0-6 6 6 6 0 0 0 0.0039062 0.12891 4 4 0 0 0-3.0039 3.8711 4 4 0 0 0 4 4h9a5 5 0 0 0 5-5 5 5 0 0 0-3.2422-4.6758 6 6 0 0 0-5.7578-4.3242zm0 1a5 5 0 0 1 4.9199 4.1113 4 4 0 0 1 3.0801 3.8887 4 4 0 0 1-4 4h-9a3 3 0 0 1-3-3 3 3 0 0 1 3-3 3 3 0 0 1 0.10742 0.005859 5 5 0 0 1-0.10742-1.0059 5 5 0 0 1 5-5z" fill="currentColor"/>
</svg>
