<svg width="16" height="16" version="1.1" xmlns="http://www.w3.org/2000/svg">
 <title>Gnome Symbolic Icon Theme</title>
 <g fill="#2e3440">
  <path d="m1 6c-0.554 0-1 0.446-1 1v2c0 0.554 0.446 1 1 1h2c0.554 0 1-0.446 1-1v-2c0-0.554-0.446-1-1-1h-2zm0 1h2v2h-2v-2z" color="#000000" enable-background="new"/>
  <rect y="3" width="16" height="1" stroke-linecap="round" stroke-linejoin="round" stroke-width="2"/>
  <rect y="12" width="16" height="1" stroke-linecap="round" stroke-linejoin="round" stroke-width="2"/>
  <path d="m7 6c-0.554 0-1 0.446-1 1v2c0 0.554 0.446 1 1 1h2c0.554 0 1-0.446 1-1v-2c0-0.554-0.446-1-1-1zm0 1h2v2h-2z" color="#000000" enable-background="new"/>
  <path d="m13 6c-0.554 0-1 0.446-1 1v2c0 0.554 0.446 1 1 1h2c0.554 0 1-0.446 1-1v-2c0-0.554-0.446-1-1-1zm0 1h2v2h-2z" color="#000000" enable-background="new"/>
 </g>
</svg>
