<svg width="16" height="16" version="1.1" viewBox="0 0 16 16" xmlns="http://www.w3.org/2000/svg">
 <defs>
  <style type="text/css">.ColorScheme-Text { color:#6e6e6e; } .ColorScheme-Highlight { color:#5294e2; }</style>
 </defs>
 <g transform="matrix(.90463 0 0 .83333 .76299 1.3333)" fill="#2e3440">
  <path transform="matrix(1.1054 0 0 1.2 -.84343 -1.6)" d="m7.998 2.0391c-3.7699 0.004577-7.0701 2.3668-8.0078 5.7305a1.042 0.95988 0 0 0 0 0.47852c0.94569 3.3561 4.2458 5.7106 8.0098 5.7129a1.042 0.95988 0 0 0 0.00195 0c3.7699-0.0046 7.0701-2.3668 8.0078-5.7305a1.042 0.95988 0 0 0 0-0.48047c-0.94569-3.3561-4.2458-5.7086-8.0098-5.7109a1.042 0.95988 0 0 0-0.00195 0zm0.00195 0.96094c3.2948 0.00204 6.1722 2.0544 7 4.9922-0.82087 2.9444-3.7 5.0038-7 5.0078-3.2948-2e-3 -6.1722-2.0544-7-4.9922 0.82087-2.9444 3.7-5.0038 7-5.0078z" color="#000000" color-rendering="auto" dominant-baseline="auto" fill="#2e3440" image-rendering="auto" shape-rendering="auto" solid-color="#000000" style="font-feature-settings:normal;font-variant-alternates:normal;font-variant-caps:normal;font-variant-ligatures:normal;font-variant-numeric:normal;font-variant-position:normal;isolation:auto;mix-blend-mode:normal;shape-padding:0;text-decoration-color:#000000;text-decoration-line:none;text-decoration-style:solid;text-indent:0;text-orientation:mixed;text-transform:none;white-space:normal"/>
 </g>
 <path d="m8 5a3 3 0 0 0-3 3 3 3 0 0 0 3 3 3 3 0 0 0 3-3 3 3 0 0 0-3-3zm0 1a2 2 0 0 1 2 2 2 2 0 0 1-2 2 2 2 0 0 1-2-2 2 2 0 0 1 2-2z" fill="#2e3440"/>
</svg>
