<svg viewBox="0 0 16 16" xmlns="http://www.w3.org/2000/svg">
 <g transform="translate(0,-32)">
  <path d="m14.285 33.715c-0.421-0.421-1.556 0-2.676 1.121l-1.647 1.647-7.08-1.494c-0.51-0.096-0.656-0.099-0.913 0.153-0.603 0.603-0.603 0.603 0.388 1.177l5.146 2.622-2.834 2.834-2.238-0.429c-0.262-0.055-0.257-0.075-0.422 0.089l-0.162 0.162c-0.247 0.247 0.124 0.541 0.124 0.541l2.305 1.586 1.586 2.305s0.293 0.371 0.541 0.124l0.162-0.162c0.164-0.164 0.145-0.16 0.089-0.422l-0.429-2.238 2.834-2.834 2.622 5.146c0.575 0.991 0.575 0.991 1.177 0.388 0.252-0.257 0.249-0.403 0.153-0.913l-1.494-7.08 1.647-1.647c1.121-1.121 1.541-2.256 1.121-2.676z" fill="#5e81ac"/>
 </g>
</svg>
