<svg viewBox="0 0 16 16" xmlns="http://www.w3.org/2000/svg">
 <g transform="matrix(.8 0 0 .8 -1.6 -1.6)">
  <path d="m21.375 12a9.375 9.375 0 0 1-18.75 0 9.375 9.375 0 1 1 18.75 0z" fill="#2e3440" fill-rule="evenodd"/>
  <path d="m11.984 5.484c-0.551 8e-3 -0.992 0.465-0.984 1.016v5.5c0 0.234 0.082 0.461 0.234 0.641l2.5 3c0.223 0.301 0.59 0.449 0.957 0.395 0.367-0.059 0.672-0.313 0.793-0.664 0.121-0.352 0.035-0.742-0.219-1.012l-2.266-2.719v-5.141c4e-3 -0.27-0.102-0.531-0.293-0.723-0.191-0.191-0.453-0.297-0.723-0.293z" fill="#5e81ac"/>
  <path d="m12 2c-5.512 0-10 4.488-10 10s4.488 10 10 10 10-4.488 10-10-4.488-10-10-10zm0 2c4.43 0 8 3.57 8 8s-3.57 8-8 8-8-3.57-8-8 3.57-8 8-8z" fill="#7b88a1"/>
 </g>
 <path d="m8 12c0 2.209-1.791 4-4 4s-4-1.791-4-4 1.791-4 4-4 4 1.791 4 4" fill="#bf616a" fill-rule="evenodd"/>
 <path d="m3 9h2v3h-2v-3" fill="#2e3440" fill-opacity=".902"/>
 <path d="m3 14c0-0.551 0.449-1 1-1s1 0.449 1 1-0.449 1-1 1-1-0.449-1-1z" fill="#2e3440" fill-opacity=".902" fill-rule="evenodd"/>
</svg>
