<svg viewBox="0 0 16 16" xmlns="http://www.w3.org/2000/svg">
 <g transform="matrix(.8 0 0 .8 -1.6 -1.6)">
  <path d="m21.375 12a9.375 9.375 0 0 1-18.75 0 9.375 9.375 0 1 1 18.75 0z" fill="#2e3440" fill-rule="evenodd"/>
  <path d="m11.984 5.484c-0.551 8e-3 -0.992 0.465-0.984 1.016v5.5c0 0.234 0.082 0.461 0.234 0.641l2.5 3c0.223 0.301 0.59 0.449 0.957 0.395 0.367-0.059 0.672-0.313 0.793-0.664 0.121-0.352 0.035-0.742-0.219-1.012l-2.266-2.719v-5.141c4e-3 -0.27-0.102-0.531-0.293-0.723-0.191-0.191-0.453-0.297-0.723-0.293z" fill="#7b88a1"/>
  <path d="m12 2c-5.512 0-10 4.488-10 10s4.488 10 10 10 10-4.488 10-10-4.488-10-10-10zm0 2c4.43 0 8 3.57 8 8s-3.57 8-8 8-8-3.57-8-8 3.57-8 8-8z" fill="#7b88a1"/>
 </g>
 <path d="m8 12a4 4 0 0 1-8 0 4 4 0 1 1 8 0z" fill="#bf616a" fill-rule="evenodd"/>
 <path d="m2 10v0.667c-0.015 0.187 0.048 0.378 0.188 0.507l0.855 0.841-0.855 0.841c-0.125 0.125-0.188 0.302-0.188 0.478v0.667h0.666c0.176 0 0.353-0.063 0.478-0.188l0.855-0.855 0.855 0.855c0.125 0.125 0.302 0.188 0.478 0.188h0.666v-0.667c0-0.177-0.063-0.353-0.188-0.478l-0.84-0.841 0.855-0.841c0.143-0.133 0.174-0.317 0.174-0.507v-0.667h-0.666c-0.16 5e-3 -0.287 0.064-0.464 0.217l-0.869 0.841-0.855-0.841c-0.118-0.122-0.279-0.21-0.449-0.217h-0.695z" fill="#2e3440" fill-opacity=".9" fill-rule="evenodd"/>
</svg>
