<svg width="16px" height="16px" version="1.1" viewBox="0 0 16 16" xmlns="http://www.w3.org/2000/svg">
 <path d="m8.6406 2.1836c-0.20703-0.007813-0.41797 0.003906-0.63672 0.011718-1.293 0.054688-3.5859 0.011719-4.4766 0.99609-0.54688 0.60156-0.29297 2 0.54297 2.1445 1.043 0.17969 2.8047-0.26953 3.9336-0.15625 0.78906 0.074218 1.0195 0.66797 0.37891 1.0781-0.67969 0.43359-2.2227 0.30078-3 0.51953-2.6914 0.75391-3.6602 2.3555-3 4.5195 0.42969 1.4141 1.9492 2.4609 3.6094 2.5195 3.1914-0.003906 2.5977-1.5078 4.1445-0.72656 0.50781 0.54688 1.5312 0.72266 2.0625 0.33984 0.85547-0.61719 2.1445-0.94922 1.2344-2.2188-0.43359-0.60547 0.57812-1.3906 0.35156-4.4102-0.20312-2.6758-2.0391-4.5156-5.1445-4.6172zm-0.41406 6.4727c0.71875 0 1.2852 0.46875 1.2852 1.0547 0 0.58203-0.56641 1.0664-1.2852 1.0664s-1.3125-0.48438-1.3125-1.0664c0-0.58594 0.59375-1.0547 1.3125-1.0547z" fill="#2e3440"/>
</svg>
