<svg viewBox="0 0 16 16" xmlns="http://www.w3.org/2000/svg">
 <path d="m5.574 1.453c-1.336 0-2.422 1.102-2.422 2.457v4.098c0 1.355 1.086 2.453 2.422 2.453 1.34 0 2.426-1.098 2.426-2.453v-4.098c0-1.355-1.086-2.457-2.426-2.457z" fill="#2e3440"/>
 <path d="m0.727 8c0 2.434 1.746 4.445 4.04 4.832v0.895h-0.809v0.82h3.23v-0.82h-0.809v-0.895c2.297-0.387 4.04-2.398 4.04-4.832h-1.617c0 1.809-1.449 3.273-3.234 3.273s-3.23-1.465-3.23-3.273z" fill="#2e3440"/>
 <path d="m15.273 8c0 0.902-0.723 1.637-1.617 1.637-0.891 0-1.617-0.734-1.617-1.637 0-0.902 0.727-1.637 1.617-1.637 0.895 0 1.617 0.734 1.617 1.637z" fill="#bf616a"/>
</svg>
