<svg viewBox="0 0 16 16" xmlns="http://www.w3.org/2000/svg">
 <g transform="matrix(.34783 0 0 .34783 -.357 -.354)" fill="#2e3440" opacity=".4" stroke-width=".727">
  <path transform="matrix(2.875 0 0 2.875 1.025 1.019)" d="m8 0c-4.418 0-8 3.582-8 8s3.582 8 8 8 8-3.582 8-8-3.582-8-8-8zm-2e-3 2.5h2e-3c0.846 0 1.659 0.178 2.395 0.5h1.605v1.061c0.531 0.493 0.975 1.078 1.281 1.752l1.219-0.469-1 3.469-1.5-0.834v1.533l1.346 0.52c-0.309 0.74-0.776 1.382-1.346 1.912v1.057h-1.613c-0.734 0.32-1.54 0.5-2.385 0.5-0.831 0-1.634-0.18-2.365-0.5h-1.637v-1.082c-0.534-0.498-0.979-1.088-1.279-1.762l-1.219 0.438 1-3.375 1.498 0.807v-1.506l-1.346-0.52c0.3-0.746 0.769-1.396 1.346-1.934v-1.066h1.633c0.731-0.318 1.532-0.5 2.365-0.5z"/>
 </g>
 <g transform="matrix(.72725 0 0 .72725 .182 0)" fill="#2e3440">
  <rect x="12.13" y="5.5" width="2.75" height="11"/>
  <rect x="6.625" y="5.5" width="2.75" height="11"/>
  <rect x="12.13" y="5.5" width="2.75" height="11"/>
  <rect x="6.625" y="5.5" width="2.75" height="11"/>
 </g>
</svg>
