<svg enable-background="new 0 0 24 24" viewBox="0 0 16 16" xmlns="http://www.w3.org/2000/svg">
 <polygon transform="matrix(.7435 0 0 .74353 -.922 -.644)" points="22.172 0.866 22.76 1.286 18.162 10.28 16.033 8.347" fill="#2e3440" opacity=".4"/>
 <path d="m3 7-3 1v-1l3-2.603 0.999 0.602 3.46 8.512-2.459 1.489z" fill="#2e3440" stroke-width="1.158"/>
 <polyline transform="matrix(.7435 0 0 .74353 -.922 -.644)" points="22.76 22.08 18.725 12.97 17.379 11.625 10.359 17.238 11.273 19.037 22.354 22.385 22.723 22.385" fill="#2e3440" opacity=".4"/>
 <path d="m7.583 9.999-1.562-2.999 1.979-1c0.999 0 2.999 1 2.999 1l-3.416 2.999" fill="#2e3440" stroke-width="1.158"/>
</svg>
