<svg enable-background="new 0 0 24 24" viewBox="0 0 16 16" xmlns="http://www.w3.org/2000/svg">
 <path d="m15.563 0-4.564 5.563 1.584 1.438 3.418-6.688-0.438-0.313zm-12.563 4.396-3 2.604v1l3-1 2 8v-3h1.846l-0.406-1h-1.439v-3h0.221l-1.221-3-1-0.602zm7 2.16v1.318l0.998-0.875s-0.473-0.224-0.998-0.443zm2 1.443-2 1.6v2.4h2v2.883l3.697 1.117h0.275l0.027-0.227-3-6.773-1-1z" fill="#2e3440" stroke-width=".744"/>
 <path d="m6 14v-1h2v-3h-2v-1l3 4e-7v4h2v1z" fill="#2e3440" fill-rule="evenodd"/>
 <rect x="7" y="6" width="2" height="2" fill="#2e3440"/>
</svg>
