<svg viewBox="0 0 16 16" xmlns="http://www.w3.org/2000/svg">
 <g transform="matrix(1.25,0,0,-1.25,0,16)">
  <g transform="matrix(.72727 0 0 .72727 -.58179 -.58179)">
   <path d="m13 13.6c-1.508 0-2.875-0.943-3.48-2.4h-4.72c-1.602 0-2.4-0.799-2.4-1.6s0.798-1.6 2.4-1.6l0.8-1.6 0.8 2.4 1.6-2.4 0.8 1.6h0.72c0.601-1.457 1.969-2.396 3.48-2.4 2.098 0 3.8 1.793 3.8 4 0 2.211-1.702 4-3.8 4zm1.4-3.2c0.441 0 0.8-0.358 0.8-0.8 0-0.441-0.359-0.8-0.8-0.8-0.446 0-0.8 0.359-0.8 0.8 0 0.442 0.354 0.8 0.8 0.8z" fill="#4c566a"/>
  </g>
 </g>
</svg>
