<svg width="16" height="16" viewBox="0 0 4.5156 4.5156" xmlns="http://www.w3.org/2000/svg">
 <path transform="scale(.28222)" d="m7.252 5c-0.675 0-1.252 0.577-1.252 1.252v4.496c0 0.675 0.577 1.252 1.252 1.252h2.748v2h-3v2h8v-2h-3v-2h2.748c0.675 0 1.252-0.577 1.252-1.252v-4.496c0-0.675-0.577-1.252-1.252-1.252h-7.496zm1.748 2h4c0.554 0 1 0.446 1 1v1c0 0.554-0.446 1-1 1h-4c-0.554 0-1-0.446-1-1v-1c0-0.554 0.446-1 1-1z" fill="#2e3440" stroke-width="3.543"/>
 <path transform="scale(.28222)" d="m1.252 0c-0.6752 0-1.252 0.57675-1.252 1.252v4.4961c0 0.6752 0.57675 1.252 1.252 1.252h2.748v2h-3v2h4v-4.748c0-0.46363 0.14113-0.89399 0.38086-1.252h-2.3809c-0.554 0-1-0.446-1-1v-1c0-0.554 0.446-1 1-1h4c0.554 0 1 0.446 1 1v1h2v-2.748c0-0.6752-0.57675-1.252-1.252-1.252z" fill="#2e3440" stroke-width="3.543"/>
</svg>
