<svg viewBox="0 0 16 16" xmlns="http://www.w3.org/2000/svg">
 <path d="m3.999 0.668-3.999 3.107 3.999 2.669-3.999 3.556 8 5.331 8-5.331-3.999-3.556 3.999-2.669-3.999-3.107-3.999 3.107zm2.058 3.996 2.554 0.668-1.36 2.276-0.363-0.888c-0.949 0.425-1.556 1.35-1.556 2.386 0 1.079 0.678 2.058 1.695 2.444l-0.473 1.222c-1.527-0.578-2.554-2.053-2.554-3.666 0-1.575 0.954-2.983 2.416-3.608zm3.413 0.778c1.532 0.601 2.529 2.048 2.529 3.666 0 1.565-0.959 2.997-2.416 3.613l0.305 0.831-2.444-0.692 1.303-2.248 0.334 0.888c0.945-0.42 1.585-1.36 1.585-2.391 0-1.079-0.649-2.043-1.67-2.444z" fill="#2e3440"/>
</svg>
