<svg viewBox="0 0 16 16" xmlns="http://www.w3.org/2000/svg">
 <path d="m3.999 0.668-3.999 3.107 3.999 2.669-3.999 3.556 8 5.331 8-5.331-3.999-3.556 3.999-2.669-3.999-3.107-3.999 3.107zm3.999 4.444c1.565 0 2.997 0.954 3.608 2.416l0.836-0.305-0.697 2.444-2.248-1.307 0.888-0.334c-0.415-0.945-1.36-1.58-2.386-1.58-1.079 0-2.043 0.644-2.444 1.665l-1.222-0.473c0.601-1.527 2.048-2.525 3.666-2.525zm-3.776 3.385 2.276 1.36-0.888 0.363c0.425 0.954 1.35 1.556 2.386 1.556 1.074 0 2.058-0.673 2.444-1.695l1.222 0.473c-0.583 1.532-2.053 2.554-3.666 2.554-1.575 0-2.983-0.949-3.608-2.416l-0.836 0.363z" fill="#2e3440"/>
</svg>
