<svg width="16" height="16" viewBox="0 0 16 16" xmlns="http://www.w3.org/2000/svg">
 <path d="m7.070312 2.183594c-0.386718 0-0.699218 0.308594-0.699218 0.695312 0 0.386719 0.3125 0.699219 0.699218 0.699219 1.796876 0 3.257813 1.457031 3.257813 3.257813 0 0.386718 0.3125 0.699218 0.699219 0.699218 0.382812 0 0.695312-0.3125 0.695312-0.699218 0-2.570313-2.082031-4.652344-4.652344-4.652344zm-0.234374 2.09375c-2.570313 0-4.652344 2.082031-4.652344 4.652344 0 0.386718 0.308594 0.699218 0.695312 0.699218 0.386719 0 0.699219-0.3125 0.699219-0.699218 0-1.796876 1.457031-3.257813 3.257813-3.257813 0.386718 0 0.699218-0.3125 0.699218-0.699219 0-0.382812-0.3125-0.695312-0.699218-0.695312zm6.285156 2.09375c-0.386719 0-0.699219 0.3125-0.699219 0.699218 0 1.796876-1.457031 3.257813-3.257813 3.257813-0.386718 0-0.699218 0.3125-0.699218 0.699219 0 0.382812 0.3125 0.695312 0.699218 0.695312 2.570313 0 4.652344-2.082031 4.652344-4.652344 0-0.386718-0.308594-0.699218-0.695312-0.699218zm-8.148438 2.09375c-0.382812 0-0.695312 0.3125-0.695312 0.699218 0 2.570313 2.082031 4.652344 4.652344 4.652344 0.386718 0 0.699218-0.308594 0.699218-0.695312 0-0.386719-0.3125-0.699219-0.699218-0.699219-1.796876 0-3.257813-1.457031-3.257813-3.257813 0-0.386718-0.3125-0.699218-0.699219-0.699218z" fill="rgb(18.039216%, 20.392157%, 25.098041%)"/>
</svg>
