<svg viewBox="0 0 16 16" xmlns="http://www.w3.org/2000/svg">
 <g transform="matrix(1.2418 0 0 -1.2418 -2.928 18.928)" stroke-width=".732">
  <path d="m4.438 12.748h1.222c0.07 0 0.129 0.055 0.129 0.125 0 0-0.016 1.036-0.016 1.325v4e-3c0 0.234 0.051 0.441 0.137 0.617l0.043 0.074c-4e-3 0-0.012 0-0.015-4e-3l-2.376-2.332c-3e-3 -4e-3 -7e-3 -8e-3 -7e-3 -0.016 0.047 0.028 0.113 0.059 0.125 0.063 0.207 0.094 0.457 0.144 0.758 0.144zm9.515 0.254c-0.094 0.512-0.406 0.766-0.683 0.868-0.301 0.105-0.915 0.218-1.684 0.308-0.617 0.07-1.344 0.067-1.781 0.051-0.055 0.359-0.309 0.684-0.59 0.797-0.754 0.301-1.922 0.226-2.219 0.144-0.238-0.066-0.504-0.199-0.648-0.406-0.098-0.141-0.164-0.316-0.164-0.566 0-0.141 4e-3 -0.473 7e-3 -0.766 4e-3 -0.293 8e-3 -0.559 8e-3 -0.559 0-0.261-0.215-0.476-0.48-0.476h-1.223c-0.262 0-0.461-0.043-0.613-0.113-0.153-0.067-0.262-0.161-0.344-0.27-0.164-0.215-0.191-0.484-0.191-0.758 0 0 4e-3 -0.222 0.058-0.656 0.043-0.332 0.41-2.668 0.758-3.379 0.137-0.273 0.227-0.391 0.492-0.512 0.59-0.25 1.942-0.527 2.574-0.609 0.629-0.078 1.028-0.246 1.262 0.242 0 0 0.047 0.121 0.113 0.301 0.204 0.613 0.231 1.156 0.231 1.551 0 0.043 0.062 0.043 0.062 0 0-0.278-0.054-1.262 0.7-1.528 0.297-0.105 0.914-0.195 1.539-0.269 0.566-0.063 0.976-0.285 0.976-1.723 0-0.875-0.183-0.992-1.156-0.992-0.785 0-1.086-0.019-1.086 0.598 0 0.5 0.5 0.445 0.871 0.445 0.164 0 0.043 0.121 0.043 0.43 0 0.308 0.195 0.484 0.012 0.488-1.281 0.035-2.035 4e-3 -2.035-1.582 0-1.438 0.558-1.703 2.375-1.703 1.425 0 1.929 0.047 2.515 1.851 0.118 0.356 0.399 1.446 0.571 3.27 0.109 1.156-0.102 4.641-0.27 5.523zm-2.484-3.855c-0.176 8e-3 -0.344-4e-3 -0.504-0.027 0.047 0.351 0.195 0.789 0.719 0.769 0.582-0.019 0.664-0.562 0.664-0.93-0.246 0.11-0.547 0.176-0.879 0.188z" fill="#2e3440"/>
 </g>
</svg>
