<?xml version="1.0" encoding="UTF-8" standalone="no"?>
<svg
   viewBox="0 0 16 16"
   version="1.1"
   id="svg440"
   sodipodi:docname="airplane-mode.svg"
   xml:space="preserve"
   inkscape:version="1.2.2 (b0a8486541, 2022-12-01)"
   xmlns:inkscape="http://www.inkscape.org/namespaces/inkscape"
   xmlns:sodipodi="http://sodipodi.sourceforge.net/DTD/sodipodi-0.dtd"
   xmlns="http://www.w3.org/2000/svg"
   xmlns:svg="http://www.w3.org/2000/svg"><defs
     id="defs444" /><sodipodi:namedview
     id="namedview442"
     pagecolor="#ffffff"
     bordercolor="#000000"
     borderopacity="0.25"
     inkscape:showpageshadow="2"
     inkscape:pageopacity="0.0"
     inkscape:pagecheckerboard="0"
     inkscape:deskcolor="#d1d1d1"
     showgrid="false"
     inkscape:zoom="50.1875"
     inkscape:cx="7.9900374"
     inkscape:cy="8"
     inkscape:window-width="1920"
     inkscape:window-height="1012"
     inkscape:window-x="0"
     inkscape:window-y="0"
     inkscape:window-maximized="1"
     inkscape:current-layer="svg440" /><g
     transform="matrix(1.1119065,0,0,1.1119065,-22.98891,-1.3812353)"
     stroke-linecap="round"
     id="g95"><path
       d="m 21.715,3.1105 c -0.66272,0.40028 -0.60267,3.1105 -0.60267,3.1105 1.3803,2.6148 3.2466,5.1032 7.2709,6.6293 0,0 1.4719,-0.11502 1.9538,-0.72903 0.36982,-0.47116 0.0486,-2.2454 0.0486,-2.2454 -4.0145,-2.8675 -4.4052,-3.7383 -6.1044,-5.8711 0,0 -1.7908,-1.3626 -2.5662,-0.89428 z"
       fill="#2e3440"
       stroke-width="0.099998"
       id="path55" /><g
       fill="#d08770"
       stroke-width="0.099998"
       id="g81"><path
         d="M 29.618,9.3186 C 29.10434,8.94002 28.65841,8.59807 28.2677,8.2841 l -0.03927,2.5249 -2.7099,0.58135 c 0.59093,0.39726 1.2493,0.7652 1.9885,1.0976 l 2.2086,-0.92034 z"
         opacity="0.85"
         id="path57" /><path
         d="m 29.618,9.3186 0.09767,2.2489 -2.2086,0.92034 c 0.28046,0.12612 0.57248,0.2473 0.87693,0.36276 0,0 1.4719,-0.11514 1.9538,-0.72914 0.36982,-0.47116 0.04857,-2.2453 0.04857,-2.2453 C 30.11334,9.68114 29.85885,9.49612 29.61796,9.31858 Z"
         id="path59" /><path
         d="m 27.026,7.2154 -0.70278,2.2913 -2.5455,0.45784 c 0.50879,0.50523 1.0831,0.98351 1.7409,1.4257 l 2.7099,-0.58135 0.03927,-2.5249 c -0.48818,-0.39237 -0.893,-0.74238 -1.2418,-1.0686 z"
         opacity="0.7"
         id="path61" /><path
         d="m 25.789,5.9106 -1.1472,1.9533 -2.2107,0.5152 c 0.39594,0.54917 0.83854,1.0808 1.3467,1.5854 l 2.5455,-0.45784 0.70278,-2.2913 c -0.49556,-0.4636 -0.87985,-0.88001 -1.2371,-1.3048 z"
         opacity="0.6"
         id="path63" /><path
         d="m 24.925,4.827 -1.3239,1.7151 -2.0169,0.52967 c 0.25936,0.44375 0.53889,0.8808 0.84644,1.3074 l 2.2107,-0.5152 1.1472,-1.9533 C 25.49781,5.56498 25.22492,5.21373 24.92504,4.82707 Z"
         opacity="0.5"
         id="path65" /><path
         d="m 22.095,3.0127 c -0.1414,0.00232 -0.27026,0.031808 -0.3793,0.097666 -0.66272,0.40028 -0.60254,3.1109 -0.60254,3.1109 0.15068,0.28545 0.30684,0.56923 0.47128,0.85058 l 2.0169,-0.52967 1.3239,-1.7151 c -0.1985,-0.25597 -0.40767,-0.52632 -0.64336,-0.82216 0,0 -1.3228,-1.0064 -2.1869,-0.99217 z"
         opacity="0.4"
         id="path67" /><path
         d="M 29.618,9.3186 C 29.10434,8.94002 28.65841,8.59807 28.2677,8.2841 l -0.03927,2.5249 -2.7099,0.58135 c 0.59093,0.39726 1.2493,0.7652 1.9885,1.0976 l 2.2086,-0.92034 z"
         opacity="0.85"
         id="path69" /><path
         d="m 29.618,9.3186 0.09767,2.2489 -2.2086,0.92034 c 0.28046,0.12612 0.57248,0.2473 0.87693,0.36276 0,0 1.4719,-0.11514 1.9538,-0.72914 0.36982,-0.47116 0.04857,-2.2453 0.04857,-2.2453 C 30.11334,9.68114 29.85885,9.49612 29.61796,9.31858 Z"
         id="path71" /><path
         d="m 27.026,7.2154 -0.70278,2.2913 -2.5455,0.45784 c 0.50879,0.50523 1.0831,0.98351 1.7409,1.4257 l 2.7099,-0.58135 0.03927,-2.5249 c -0.48818,-0.39237 -0.893,-0.74238 -1.2418,-1.0686 z"
         opacity="0.7"
         id="path73" /><path
         d="m 25.789,5.9106 -1.1472,1.9533 -2.2107,0.5152 c 0.39594,0.54917 0.83854,1.0808 1.3467,1.5854 l 2.5455,-0.45784 0.70278,-2.2913 c -0.49556,-0.4636 -0.87985,-0.88001 -1.2371,-1.3048 z"
         opacity="0.6"
         id="path75" /><path
         d="m 24.925,4.827 -1.3239,1.7151 -2.0169,0.52967 c 0.25936,0.44375 0.53889,0.8808 0.84644,1.3074 l 2.2107,-0.5152 1.1472,-1.9533 C 25.49781,5.56498 25.22492,5.21373 24.92504,4.82707 Z"
         opacity="0.5"
         id="path77" /><path
         d="m 22.095,3.0127 c -0.1414,0.00232 -0.27026,0.031808 -0.3793,0.097666 -0.66272,0.40028 -0.60254,3.1109 -0.60254,3.1109 0.15068,0.28545 0.30684,0.56923 0.47128,0.85058 l 2.0169,-0.52967 1.3239,-1.7151 c -0.1985,-0.25597 -0.40767,-0.52632 -0.64336,-0.82216 0,0 -1.3228,-1.0064 -2.1869,-0.99217 z"
         opacity="0.4"
         id="path79" /></g><g
       fill="none"
       stroke="#2e3440"
       stroke-width="0.31167"
       id="g93"><path
         d="m 21.76,3.2686 c 1.9052,5.6184 8.5773,8.8528 8.5773,8.8528 l 4.4228,1.5844"
         id="path83" /><path
         d="m 31.1,12.395 c 0.3305,-0.59781 0.25804,-2.0086 0.25804,-2.0086"
         id="path85" /><path
         d="m 31.685,12.604 c 0.57837,-1.3025 0.19759,-2.8162 0.19759,-2.8162"
         id="path87" /><path
         d="m 30.66,12.237 c -0.43742,0.66099 -1.6492,1.2142 -1.6492,1.2142"
         id="path89" /><path
         d="m 31.33,12.477 c -0.72417,0.86026 -1.1281,1.0362 -1.1281,1.0362"
         id="path91" /></g></g></svg>
