
<svg xmlns="http://www.w3.org/2000/svg" xmlns:xlink="http://www.w3.org/1999/xlink" width="16" height="16" viewBox="0 0 16 16" version="1.1">
<g id="surface1">
<path style=" stroke:none;fill-rule:nonzero;fill:rgb(18.039216%,20.392157%,25.098041%);fill-opacity:1;" d="M 13.574219 4.425781 C 13.574219 5.328125 12.851562 6.0625 11.960938 6.0625 C 11.066406 6.0625 10.34375 5.328125 10.34375 4.425781 C 10.34375 3.523438 11.070312 2.789062 11.960938 2.789062 C 12.855469 2.789062 13.574219 3.523438 13.574219 4.425781 Z M 13.574219 4.425781 "/>
<path style=" stroke:none;fill-rule:nonzero;fill:rgb(18.039216%,20.392157%,25.098041%);fill-opacity:1;" d="M 0.839844 6.734375 C 1.296875 6.535156 4.148438 7.699219 4.597656 7.632812 C 5.089844 7.558594 7.539062 5.671875 7.988281 5.671875 C 8.609375 5.671875 10.867188 7.550781 11.464844 7.640625 C 11.839844 7.699219 14.351562 6.613281 15.144531 6.714844 C 15.417969 7.148438 12.34375 10.179688 11.589844 10.304688 C 10.792969 10.433594 8.40625 8.625 8 8.625 C 7.625 8.625 5.199219 10.4375 4.507812 10.324219 C 3.4375 10.148438 0.792969 7.191406 0.839844 6.734375 Z M 0.839844 6.734375 "/>
</g>
</svg>
