<svg version="1.1" viewBox="0 0 16 16" xmlns="http://www.w3.org/2000/svg">
 <g fill="none" stroke="#2e3440" stroke-linecap="round" stroke-linejoin="round" stroke-width="1.119">
  <path d="m2.8566 15.042c-0.64201-0.89188-1.359-2.1917-1.6453-2.9826-0.28631-0.79095-0.33748-1.1162-0.36201-1.6755-0.034344-0.77939 0.10548-1.2521 0.53828-1.8185 0.82214-1.0755 1.5423-2.4188 1.9429-3.6229 0.32521-0.97809 0.49132-2.0385 0.4307-2.7517-0.015069-0.17697-0.016471-0.32171 0-0.32171 0.039951 0 0.71421 1.0513 0.94199 1.4743 0.84282 1.5647 1.1947 2.7993 1.1463 4.0221-0.024882 0.62484-0.11985 1.0464-0.34028 1.5122-0.22043 0.46574-0.28982 0.53723-0.74925 1.0906-0.95531 1.1537-1.5654 2.3644-1.7466 3.4683-0.080252 0.48782-0.060276 1.3187 0.040301 1.68 0.035044 0.12441 0.057473 0.232 0.050464 0.239-0.00701 7e-3 -0.1181-0.13422-0.24741-0.31365z"/>
  <path d="m3.0801 15.056c-0.089363-0.28842-0.10373-1.1943-0.025933-1.6404 0.17732-1.0198 0.7086-2.1233 1.5066-3.1284 0.17803-0.22428 0.42299-0.53268 0.54424-0.68547 0.27089-0.34063 0.5558-0.91466 0.6732-1.3573 0.1174-0.44261 0.15244-1.236 0.085859-1.7351-0.026634-0.20045-0.058524-0.39004-0.070439-0.42123s0.10198-0.13177 0.34449-0.2779c2.0137-1.2157 3.2633-2.977 3.4147-4.8134l0.029087-0.3529 0.15244 0.47766c1.0359 3.2434 1.0163 6.0255-0.052917 7.5801-0.39004 0.56702-1.0005 1.038-1.7442 1.3457-1.3776 0.56982-2.3872 1.2143-3.2199 2.0547-0.83266 0.84036-1.3594 1.7929-1.5286 2.7881l-0.056772 0.33222z"/>
  <path d="m3.2025 15.049c0-0.22393 0.22569-0.93919 0.42929-1.3587 0.73138-1.5097 2.0879-2.6508 4.2519-3.5763 0.59786-0.25582 0.88417-0.42194 1.2171-0.7065 0.67531-0.57683 1.1361-1.4487 1.3236-2.5029l0.06834-0.38479 0.51866-0.18013c0.95566-0.33222 1.8906-0.7871 2.5046-1.2185 0.61398-0.4314 1.4018-1.2854 1.5679-1.7659 0.03014-0.085158 0.06028-0.14859 0.07009-0.14158 0.02102 0.02348-0.15349 1.2851-0.25933 1.8584-0.6343 3.427-1.9075 5.7673-3.6187 6.6511-0.46925 0.24216-0.84878 0.35044-1.5321 0.42684-2.9451 0.35044-5.1613 1.2669-6.2358 2.608-0.13142 0.16611-0.25407 0.3161-0.2723 0.33783-0.018223 0.02172-0.033292 0-0.033292-0.04661z"/>
 </g>
</svg>
