<svg viewBox="0 0 16 16" xmlns="http://www.w3.org/2000/svg">
 <rect x="5" y="3" width="6" height="10" fill="#2e3440" opacity=".4"/>
 <path d="m4.459 0c-0.798 0-1.459 0.562-1.459 1.258v13.469c0 0.693 0.661 1.273 1.459 1.273h7.082c0.798 0 1.459-0.58 1.459-1.273v-13.469c0-0.696-0.661-1.258-1.459-1.258h-7.082zm2.541 0.625h2c0.277 0 0.5 0.167 0.5 0.375s-0.223 0.375-0.5 0.375h-2c-0.277 0-0.5-0.167-0.5-0.375s0.223-0.375 0.5-0.375zm-3 1.375h8v12h-8v-12zm4 12.5c0.276 0 0.5 0.224 0.5 0.5s-0.224 0.5-0.5 0.5-0.5-0.224-0.5-0.5 0.224-0.5 0.5-0.5z" fill="#2e3440"/>
 <rect x="5" y="12" width="6" height="1" fill="#d08770"/>
</svg>
