<svg viewBox="0 0 16 16" xmlns="http://www.w3.org/2000/svg">
 <g transform="scale(.72727)">
  <path d="m10 3c-1.211 0-2.311 0.35-3.133 0.955s-1.369 1.49-1.369 2.492v9.06c0 1 0.545 1.896 1.365 2.512s1.923 0.98 3.137 0.98h1.996c1.214 0 2.316-0.364 3.137-0.98 0.82-0.616 1.365-1.509 1.365-2.512v-9.06c0-1-0.548-1.888-1.369-2.492-0.822-0.605-1.922-0.955-3.133-0.955zm0.738 1.762h0.52c0.376 0 0.656 0.259 0.656 0.607v3.322c0 0.349-0.302 0.65-0.656 0.65h-0.52c-0.354 0-0.656-0.301-0.656-0.65v-3.322c0-0.349 0.28-0.607 0.656-0.607z" color-rendering="auto" fill="#2e3440" image-rendering="auto" opacity=".4" shape-rendering="auto" solid-color="#000000" isolation="auto" mix-blend-mode="normal" white-space="normal"/>
 </g>
 <path d="m4 5.673v5.606c0 0.729 0.396 1.379 0.993 1.827s1.398 0.713 2.281 0.713h1.452c0.883 0 1.685-0.265 2.281-0.713 0.597-0.448 0.993-1.098 0.993-1.827v-5.606h-3.334v0.648c0 0.254-0.22 0.473-0.477 0.473h-0.378c-0.258 0-0.477-0.219-0.477-0.473v-0.648z" color-rendering="auto" fill="#2e3440" image-rendering="auto" shape-rendering="auto" solid-color="#000000" isolation="auto" mix-blend-mode="normal" white-space="normal"/>
</svg>
