<svg viewBox="0 0 16 16" xmlns="http://www.w3.org/2000/svg">
 <path d="m4.334 0c-0.739 0-1.334 0.566-1.334 1.271v13.457c0 0.705 0.595 1.271 1.334 1.271h7.332c0.739 0 1.334-0.566 1.334-1.271v-13.457c0-0.705-0.595-1.271-1.334-1.271h-7.332zm0.967 2h1.398c0.166 0 0.301 0.135 0.301 0.301v1.398c0 0.166-0.135 0.301-0.301 0.301h-1.398c-0.166 0-0.301-0.135-0.301-0.301v-1.398c0-0.166 0.135-0.301 0.301-0.301zm4 0h1.398c0.166 0 0.301 0.135 0.301 0.301v1.398c0 0.166-0.135 0.301-0.301 0.301h-1.398c-0.166 0-0.301-0.135-0.301-0.301v-1.398c0-0.166 0.135-0.301 0.301-0.301zm-4 3h1.398c0.166 0 0.301 0.135 0.301 0.301v1.398c0 0.166-0.135 0.301-0.301 0.301h-1.398c-0.166 0-0.301-0.135-0.301-0.301v-1.398c0-0.166 0.135-0.301 0.301-0.301zm4 0h1.398c0.166 0 0.301 0.135 0.301 0.301v5.398c0 0.166-0.135 0.301-0.301 0.301h-1.398c-0.166 0-0.301-0.135-0.301-0.301v-5.398c0-0.166 0.135-0.301 0.301-0.301zm-4 3h1.398c0.166 0 0.301 0.135 0.301 0.301v1.398c0 0.166-0.135 0.301-0.301 0.301h-1.398c-0.166 0-0.301-0.135-0.301-0.301v-1.398c0-0.166 0.135-0.301 0.301-0.301zm0 3h1.398c0.166 0 0.301 0.135 0.301 0.301v0.699h3.699c0.166 0 0.301 0.135 0.301 0.301v1.398c0 0.166-0.135 0.301-0.301 0.301h-5.398c-0.166 0-0.301-0.135-0.301-0.301v-2.398c0-0.166 0.135-0.301 0.301-0.301z" fill="#2e3440" opacity=".4"/>
 <path d="m3 11.199v3.529c0 0.705 0.595 1.271 1.334 1.271h7.332c0.739 0 1.334-0.566 1.334-1.271v-3.529h-6.04c0.014 0.035 0.041 0.062 0.041 0.102v0.699h3.699c0.166 0 0.301 0.135 0.301 0.301v1.398c0 0.166-0.135 0.301-0.301 0.301h-5.398c-0.166 0-0.301-0.135-0.301-0.301v-2.398c0-0.04 0.027-0.067 0.041-0.102h-2.041z" fill="#2e3440"/>
</svg>
