<svg viewBox="0 0 16 16" xmlns="http://www.w3.org/2000/svg">
 <path d="m7.274 2.182c-0.881 0-1.681 0.255-2.278 0.695s-0.996 1.084-0.996 1.812v6.589c0 0.729 0.396 1.379 0.993 1.827s1.398 0.713 2.281 0.713h1.452c0.883 0 1.685-0.265 2.281-0.713 0.597-0.448 0.993-1.098 0.993-1.827v-6.589c0-0.729-0.398-1.373-0.996-1.812-0.597-0.44-1.398-0.695-2.278-0.695m-0.915 1.281h0.378c0.274 0 0.477 0.188 0.477 0.442v2.416c0 0.254-0.22 0.473-0.477 0.473h-0.378c-0.258 0-0.477-0.219-0.477-0.473v-2.416c0-0.254 0.204-0.442 0.477-0.442z" color-rendering="auto" fill="#bf616a" image-rendering="auto" shape-rendering="auto" solid-color="#000000" isolation="auto" mix-blend-mode="normal" white-space="normal"/>
</svg>
