<svg viewBox="0 0 16 16" xmlns="http://www.w3.org/2000/svg">
 <g transform="matrix(.0323 0 0 .0323 .559 -.882)" opacity=".4" stroke-width=".857">
  <path transform="matrix(30.964 0 0 30.964 -17.303 27.321)" d="m8 0c-3.871 0-7 3.129-7 7s3.129 7 7 7v2c4.04-1.894 7-5 7-9 0-3.871-3.129-7-7-7zm-0.105 3.25h2e-3c0.415 0 0.757 0.058 1.027 0.176 0.27 0.111 0.486 0.253 0.645 0.426s0.27 0.363 0.332 0.57c0.062 0.208 0.094 0.411 0.094 0.605 0 0.236-0.047 0.445-0.137 0.633-0.083 0.187-0.188 0.361-0.32 0.52-0.131 0.159-0.274 0.312-0.426 0.457-0.152 0.139-0.295 0.283-0.426 0.436-0.131 0.146-0.244 0.3-0.334 0.467-0.083 0.167-0.123 0.355-0.123 0.563v0.123c0 0.041 2e-3 0.084 0.01 0.125h-1.078c-0.014-0.069-0.026-0.142-0.033-0.219-7e-3 -0.083-0.01-0.159-0.01-0.229 0-0.229 0.038-0.431 0.113-0.611 0.077-0.18 0.173-0.348 0.291-0.5s0.244-0.295 0.375-0.426c0.139-0.131 0.265-0.263 0.383-0.395 0.118-0.131 0.216-0.266 0.293-0.404 0.077-0.139 0.113-0.291 0.113-0.457 0-0.229-0.079-0.415-0.238-0.561-0.152-0.152-0.383-0.23-0.695-0.23-0.242 0-0.475 0.031-0.697 0.094-0.221 0.055-0.453 0.15-0.695 0.281l-0.355-0.967c0.257-0.146 0.548-0.259 0.873-0.342 0.332-0.09 0.672-0.135 1.018-0.135zm-0.166 5.848c0.236 0 0.433 0.081 0.592 0.24 0.159 0.152 0.238 0.35 0.238 0.592s-0.079 0.44-0.238 0.592-0.356 0.229-0.592 0.229c-0.229 0-0.425-0.076-0.592-0.229-0.159-0.152-0.238-0.35-0.238-0.592s0.079-0.44 0.238-0.592c0.167-0.159 0.363-0.24 0.592-0.24z" fill="#2e3440" stroke-width=".028"/>
 </g>
</svg>
