<svg width="16" height="16" viewBox="0 0 4.5156 4.5156" xmlns="http://www.w3.org/2000/svg">
 <path transform="scale(.28222)" d="m4.498 0.99609a1.0001 1.0001 0 0 0-0.86523 0.49805l-3.4938 5.9999a1.0001 1.0001 0 0 0-0.008141 0.99819l3.4201 5.9998a1.0001 1.0001 0 0 0 0.86502 0.50409l7.086-9.4e-5a1.0001 1.0001 0 0 0 0.86519-0.49014l3.4938-5.9999a1.0001 1.0001 0 0 0 3.28e-4 -1.0119l-3.4943-6.0001a1.0001 1.0001 0 0 0-0.86505-0.49791l-7.004-9.4e-5zm0.58195 1.9999h5.848l0.373 0.643-3.301 3.3-3.297-3.296 0.377-0.647zm7 1.983 1.762 3.021-1.762 3.02-3.02-3.02 3.02-3.021zm-8.16 1e-3 3.019 3.02-3.052 3.05-1.735-3.04 1.768-3.03zm4.08 4.08 3.299 3.299-0.371 0.637h-5.932l-0.338-0.594 3.342-3.342z" color-rendering="auto" fill="#88c0d0" fill-rule="evenodd" image-rendering="auto" shape-rendering="auto"/>
</svg>
