<svg viewBox="0 0 16 16" xmlns="http://www.w3.org/2000/svg">
 <path d="m1.6 0c-0.886 0-1.6 0.714-1.6 1.6v12.8c0 0.886 0.714 1.6 1.6 1.6h12.8c0.886 0 1.6-0.714 1.6-1.6v-12.8c0-0.886-0.714-1.6-1.6-1.6h-12.8zm3.331 4.6c0.42 0 0.81 0.033 1.17 0.1 0.36 0.06 0.67 0.163 0.93 0.309 0.267 0.147 0.474 0.341 0.62 0.581 0.147 0.24 0.22 0.536 0.22 0.889 0 0.327-0.081 0.607-0.241 0.841-0.153 0.233-0.37 0.419-0.65 0.559 0.42 0.14 0.73 0.347 0.93 0.62s0.3 0.621 0.3 1.041c0 0.713-0.26 1.249-0.78 1.609-0.52 0.353-1.317 0.53-2.391 0.53-0.367 0-0.736-0.012-1.109-0.039-0.373-0.02-0.7-0.067-0.98-0.141v-6.73c0.147-0.027 0.304-0.05 0.47-0.07 0.167-0.027 0.336-0.046 0.509-0.059s0.343-0.025 0.509-0.031c0.173-7e-3 0.337-9e-3 0.491-9e-3zm0.159 1.03c-0.193 0-0.365 4e-3 -0.519 0.011-0.147 7e-3 -0.275 0.016-0.381 0.03v1.82h0.891c0.48 0 0.856-0.067 1.13-0.2 0.273-0.14 0.411-0.387 0.411-0.741 0-0.333-0.145-0.569-0.431-0.709-0.28-0.14-0.647-0.211-1.1-0.211zm3.683 0.741h1.291c0.067 0.28 0.146 0.583 0.239 0.909 0.1 0.327 0.207 0.66 0.32 1 0.113 0.333 0.234 0.667 0.361 1s0.253 0.643 0.38 0.93c0.213-0.593 0.413-1.222 0.6-1.889 0.187-0.673 0.356-1.323 0.509-1.95h1.25c-0.54 1.987-1.166 3.787-1.88 5.4-0.133 0.3-0.269 0.557-0.409 0.77s-0.297 0.39-0.47 0.53-0.366 0.24-0.58 0.3c-0.213 0.067-0.461 0.1-0.741 0.1-0.187 0-0.373-0.021-0.559-0.061-0.18-0.04-0.318-0.083-0.411-0.13l0.22-0.97c0.24 0.093 0.476 0.141 0.709 0.141 0.313 0 0.558-0.076 0.731-0.23 0.18-0.147 0.335-0.377 0.469-0.691-0.38-0.733-0.747-1.533-1.1-2.4-0.347-0.867-0.656-1.786-0.93-2.759zm-4.583 2.109v2.111c0.14 0.013 0.29 0.023 0.45 0.03s0.307 9e-3 0.441 9e-3c0.26 0 0.5-0.017 0.72-0.05 0.227-0.033 0.42-0.09 0.58-0.17 0.167-0.087 0.297-0.199 0.391-0.339 0.1-0.14 0.15-0.321 0.15-0.541 0-0.393-0.145-0.667-0.431-0.82-0.287-0.153-0.682-0.23-1.189-0.23h-1.111z" fill="#2e3440"/>
</svg>
