<svg viewBox="0 0 16 16" xmlns="http://www.w3.org/2000/svg">
 <path d="m1.6 0c-0.886 0-1.6 0.714-1.6 1.6v12.8c0 0.886 0.714 1.6 1.6 1.6h12.8c0.886 0 1.6-0.714 1.6-1.6v-12.8c0-0.886-0.714-1.6-1.6-1.6h-12.8zm8.577 3.891c0.2 0 0.372 0.067 0.519 0.2s0.22 0.317 0.22 0.55c0 0.227-0.074 0.406-0.22 0.539-0.147 0.133-0.319 0.2-0.519 0.2-0.207 0-0.385-0.067-0.531-0.2-0.147-0.133-0.219-0.312-0.219-0.539 0-0.233 0.072-0.417 0.219-0.55s0.325-0.2 0.531-0.2zm-7.737 0.58h1.259v2.77h3.01v-2.77h1.261v6.93h-1.261v-3.07h-3.01v3.07h-1.259v-6.93zm7.137 1.7h1.209v5.23h-1.209v-5.23zm3.298 3.684c0.37 0 0.641 0.089 0.814 0.266 0.177 0.173 0.266 0.411 0.266 0.714 0 0.12-0.025 0.24-0.075 0.356-0.05 0.113-0.115 0.224-0.195 0.334-0.077 0.107-0.164 0.212-0.264 0.316-0.1 0.1-0.2 0.197-0.3 0.294-0.053 0.05-0.115 0.111-0.181 0.181-0.067 0.07-0.129 0.139-0.189 0.209s-0.111 0.138-0.155 0.205c-0.043 0.063-0.067 0.118-0.07 0.161h1.539v0.509h-2.205c-3e-3 -0.027-5e-3 -0.059-5e-3 -0.095v-0.089c0-0.16 0.025-0.307 0.075-0.441 0.053-0.137 0.121-0.263 0.205-0.38 0.083-0.117 0.176-0.226 0.28-0.33 0.103-0.103 0.208-0.206 0.311-0.306 0.08-0.077 0.156-0.152 0.23-0.225 0.073-0.073 0.137-0.144 0.191-0.214 0.057-0.073 0.101-0.147 0.134-0.22 0.033-0.077 0.05-0.154 0.05-0.234 0-0.173-0.05-0.297-0.15-0.37s-0.222-0.111-0.366-0.111c-0.093 0-0.179 0.014-0.259 0.041s-0.152 0.059-0.216 0.095c-0.06 0.037-0.113 0.074-0.159 0.114-0.047 0.037-0.081 0.067-0.105 0.091l-0.3-0.425c0.14-0.133 0.302-0.24 0.489-0.32 0.19-0.083 0.394-0.125 0.611-0.125z" fill="#2e3440"/>
</svg>
