<svg viewBox="0 0 16 16" xmlns="http://www.w3.org/2000/svg">
 <path d="m1.6 0c-0.886 0-1.6 0.714-1.6 1.6v12.8c0 0.886 0.714 1.6 1.6 1.6h12.8c0.886 0 1.6-0.714 1.6-1.6v-12.8c0-0.886-0.714-1.6-1.6-1.6h-12.8zm0.594 4.47h4.45v1.07h-3.189v1.709h2.839v1.05h-2.839v2.03h3.43v1.07h-4.691v-6.93zm7.48 1.57c0.307 0 0.6 0.029 0.88 0.089 0.28 0.053 0.491 0.108 0.631 0.161l-0.22 0.98c-0.133-0.06-0.304-0.114-0.511-0.161-0.207-0.053-0.445-0.08-0.719-0.08-0.247 0-0.447 0.043-0.6 0.13-0.153 0.08-0.231 0.208-0.231 0.381 0 0.087 0.014 0.163 0.041 0.23 0.033 0.067 0.086 0.129 0.159 0.189 0.073 0.053 0.171 0.11 0.291 0.17 0.12 0.053 0.267 0.11 0.441 0.17 0.287 0.107 0.53 0.214 0.73 0.32 0.2 0.1 0.362 0.217 0.489 0.35 0.133 0.127 0.231 0.272 0.291 0.439s0.091 0.367 0.091 0.6c0 0.5-0.188 0.881-0.561 1.141-0.367 0.253-0.893 0.38-1.58 0.38-0.46 0-0.829-0.04-1.109-0.12-0.28-0.073-0.477-0.133-0.591-0.18l0.209-1.01c0.18 0.073 0.394 0.143 0.641 0.209 0.253 0.067 0.539 0.1 0.859 0.1s0.553-0.036 0.7-0.109c0.147-0.08 0.22-0.213 0.22-0.4 0-0.173-0.079-0.316-0.239-0.43-0.153-0.113-0.41-0.237-0.77-0.37-0.22-0.08-0.424-0.163-0.611-0.25-0.18-0.093-0.335-0.2-0.469-0.32-0.133-0.12-0.24-0.263-0.32-0.43-0.073-0.173-0.111-0.383-0.111-0.63 0-0.48 0.178-0.858 0.531-1.131 0.353-0.28 0.832-0.419 1.439-0.419zm3.445 3.814c0.37 0 0.642 0.089 0.816 0.266 0.177 0.173 0.264 0.411 0.264 0.714 0 0.12-0.025 0.24-0.075 0.356-0.05 0.113-0.114 0.224-0.194 0.334-0.077 0.107-0.166 0.212-0.266 0.316-0.1 0.1-0.2 0.197-0.3 0.294-0.053 0.05-0.113 0.111-0.18 0.181s-0.131 0.139-0.191 0.209-0.111 0.138-0.155 0.205c-0.043 0.063-0.067 0.118-0.07 0.161h1.541v0.509h-2.205c-3e-3 -0.027-6e-3 -0.059-6e-3 -0.095v-0.089c0-0.16 0.025-0.307 0.075-0.441 0.053-0.137 0.123-0.263 0.206-0.38s0.176-0.226 0.28-0.33c0.103-0.103 0.206-0.206 0.309-0.306 0.08-0.077 0.156-0.152 0.23-0.225 0.073-0.073 0.137-0.144 0.191-0.214 0.057-0.073 0.101-0.147 0.134-0.22 0.033-0.077 0.05-0.154 0.05-0.234 0-0.173-0.05-0.297-0.15-0.37s-0.221-0.111-0.364-0.111c-0.093 0-0.181 0.014-0.261 0.041s-0.151 0.059-0.214 0.095c-0.06 0.037-0.114 0.074-0.161 0.114-0.047 0.037-0.081 0.067-0.105 0.091l-0.3-0.425c0.14-0.133 0.304-0.24 0.491-0.32 0.19-0.083 0.393-0.125 0.609-0.125z" fill="#2e3440"/>
</svg>
