<svg viewBox="0 0 16 16" xmlns="http://www.w3.org/2000/svg">
 <path d="m1.6 0c-0.886 0-1.6 0.714-1.6 1.6v12.8c0 0.886 0.714 1.6 1.6 1.6h12.8c0.886 0 1.6-0.714 1.6-1.6v-12.8c0-0.886-0.714-1.6-1.6-1.6h-12.8zm0.594 4.47h4.45v1.07h-3.189v1.709h2.839v1.05h-2.839v2.03h3.43v1.07h-4.691v-6.93zm7.48 1.57c0.307 0 0.6 0.029 0.88 0.089 0.28 0.053 0.491 0.108 0.631 0.161l-0.22 0.98c-0.133-0.06-0.304-0.114-0.511-0.161-0.207-0.053-0.445-0.08-0.719-0.08-0.247 0-0.447 0.043-0.6 0.13-0.153 0.08-0.231 0.208-0.231 0.381 0 0.087 0.014 0.163 0.041 0.23 0.033 0.067 0.086 0.129 0.159 0.189 0.073 0.053 0.171 0.11 0.291 0.17 0.12 0.053 0.267 0.11 0.441 0.17 0.287 0.107 0.53 0.214 0.73 0.32 0.2 0.1 0.362 0.217 0.489 0.35 0.133 0.127 0.231 0.272 0.291 0.439s0.091 0.367 0.091 0.6c0 0.5-0.188 0.881-0.561 1.141-0.367 0.253-0.893 0.38-1.58 0.38-0.46 0-0.829-0.04-1.109-0.12-0.28-0.073-0.477-0.133-0.591-0.18l0.209-1.01c0.18 0.073 0.394 0.143 0.641 0.209 0.253 0.067 0.539 0.1 0.859 0.1s0.553-0.036 0.7-0.109c0.147-0.08 0.22-0.213 0.22-0.4 0-0.173-0.079-0.316-0.239-0.43-0.153-0.113-0.41-0.237-0.77-0.37-0.22-0.08-0.424-0.163-0.611-0.25-0.18-0.093-0.335-0.2-0.469-0.32-0.133-0.12-0.24-0.263-0.32-0.43-0.073-0.173-0.111-0.383-0.111-0.63 0-0.48 0.178-0.858 0.531-1.131 0.353-0.28 0.832-0.419 1.439-0.419zm2.386 3.894h2.314v0.461c-0.11 0.123-0.229 0.291-0.359 0.505-0.13 0.213-0.254 0.455-0.37 0.725-0.117 0.267-0.218 0.553-0.305 0.859-0.083 0.307-0.135 0.612-0.155 0.916h-0.62c0.02-0.253 0.064-0.52 0.134-0.8s0.156-0.552 0.256-0.816c0.103-0.267 0.214-0.514 0.334-0.744 0.123-0.233 0.246-0.429 0.366-0.586h-1.595v-0.52z" fill="#2e3440"/>
</svg>
