<svg viewBox="0 0 16 16" xmlns="http://www.w3.org/2000/svg">
 <path d="m1.6 0c-0.886 0-1.6 0.714-1.6 1.6v12.8c0 0.886 0.714 1.6 1.6 1.6h12.8c0.886 0 1.6-0.714 1.6-1.6v-12.8c0-0.886-0.714-1.6-1.6-1.6h-12.8zm-0.705 4.47h1.259v2.77h3.01v-2.77h1.259v6.93h-1.259v-3.07h-3.01v3.07h-1.259v-6.93zm7.07 1.7h1.211v2.739c0 0.56 0.079 0.96 0.239 1.2 0.167 0.24 0.454 0.361 0.861 0.361 0.147 0 0.299-7e-3 0.459-0.02 0.167-0.013 0.29-0.03 0.37-0.05v-4.23h1.209v5.07c-0.233 0.06-0.536 0.12-0.909 0.18-0.373 0.067-0.783 0.1-1.23 0.1-0.42 0-0.774-0.06-1.061-0.18-0.28-0.12-0.506-0.287-0.68-0.5-0.167-0.213-0.286-0.468-0.359-0.761-0.073-0.3-0.111-0.626-0.111-0.98v-2.93zm6.83 3.764h0.575v2.141h0.391v0.495h-0.391v0.83h-0.589v-0.83h-1.52v-0.43c0.067-0.147 0.156-0.316 0.266-0.506 0.113-0.19 0.238-0.384 0.375-0.584s0.281-0.397 0.434-0.591c0.153-0.193 0.306-0.368 0.459-0.525zm-0.014 0.745c-0.08 0.097-0.163 0.201-0.25 0.311-0.083 0.11-0.165 0.224-0.245 0.344s-0.156 0.244-0.23 0.37c-0.073 0.123-0.14 0.247-0.2 0.37h0.925v-1.395z" fill="#2e3440"/>
</svg>
