<svg viewBox="0 0 16 16" xmlns="http://www.w3.org/2000/svg">
 <path d="m1.6 0c-0.886 0-1.6 0.714-1.6 1.6v12.8c0 0.886 0.714 1.6 1.6 1.6h12.8c0.886 0 1.6-0.714 1.6-1.6v-12.8c0-0.886-0.714-1.6-1.6-1.6h-12.8zm1.492 4.47h1.261v6.93h-1.261v-6.93zm5.01 1.57c0.72 0 1.28 0.222 1.68 0.669 0.407 0.447 0.609 1.113 0.609 2 0 0.067-3e-3 0.145-9e-3 0.231 0 0.08-4e-3 0.152-0.011 0.219h-3.45c0.033 0.42 0.181 0.748 0.441 0.981 0.267 0.227 0.65 0.339 1.15 0.339 0.293 0 0.56-0.026 0.8-0.08 0.247-0.053 0.44-0.11 0.58-0.17l0.161 0.991c-0.067 0.033-0.161 0.069-0.281 0.109-0.113 0.033-0.247 0.064-0.4 0.091-0.147 0.033-0.306 0.06-0.48 0.08-0.173 0.02-0.35 0.03-0.53 0.03-0.46 0-0.86-0.067-1.2-0.2-0.34-0.14-0.621-0.33-0.841-0.57-0.22-0.247-0.382-0.533-0.489-0.859-0.107-0.333-0.161-0.697-0.161-1.091 0-0.46 0.067-0.863 0.2-1.209 0.14-0.347 0.323-0.633 0.55-0.859 0.227-0.233 0.488-0.407 0.781-0.52 0.293-0.12 0.593-0.18 0.9-0.18zm9e-3 1.01c-0.187 0-0.351 0.036-0.491 0.109-0.14 0.067-0.259 0.157-0.359 0.27-0.093 0.113-0.167 0.244-0.22 0.391s-0.089 0.297-0.109 0.45h2.25c0-0.167-0.024-0.324-0.07-0.47-0.047-0.153-0.116-0.284-0.209-0.391-0.087-0.113-0.198-0.199-0.331-0.259-0.127-0.067-0.279-0.1-0.459-0.1zm3.419 2.884h1.769v0.511h-1.255c-3e-3 0.057-7e-3 0.122-0.014 0.195-3e-3 0.07-9e-3 0.141-0.016 0.214-3e-3 0.073-9e-3 0.144-0.016 0.211s-0.012 0.122-0.019 0.169c0.493 0.027 0.856 0.141 1.089 0.341 0.237 0.197 0.355 0.466 0.355 0.809 0 0.157-0.026 0.303-0.08 0.436-0.053 0.133-0.135 0.249-0.245 0.345-0.11 0.097-0.247 0.173-0.414 0.23-0.167 0.053-0.363 0.08-0.586 0.08-0.09 0-0.182-7e-3 -0.275-0.02s-0.182-0.03-0.269-0.05c-0.083-0.017-0.158-0.035-0.225-0.055s-0.117-0.038-0.15-0.055l0.114-0.511c0.07 0.033 0.17 0.071 0.3 0.111 0.133 0.037 0.296 0.055 0.486 0.055 0.13 0 0.241-0.014 0.334-0.041 0.093-0.03 0.168-0.069 0.225-0.119 0.06-0.05 0.103-0.107 0.13-0.17 0.027-0.067 0.041-0.138 0.041-0.211 0-0.11-0.022-0.207-0.066-0.294-0.043-0.087-0.12-0.16-0.23-0.22-0.107-0.06-0.251-0.106-0.434-0.136-0.18-0.03-0.409-0.044-0.686-0.044 0.037-0.32 0.066-0.624 0.086-0.911 0.02-0.29 0.037-0.58 0.05-0.87z" fill="#2e3440"/>
</svg>
