<svg viewBox="0 0 16 16" xmlns="http://www.w3.org/2000/svg">
 <path d="m1.6 0c-0.886 0-1.6 0.714-1.6 1.6v12.8c0 0.886 0.714 1.6 1.6 1.6h12.8c0.886 0 1.6-0.714 1.6-1.6v-12.8c0-0.886-0.714-1.6-1.6-1.6h-12.8zm1.477 4.67h1.189c0.233 0.493 0.46 0.993 0.68 1.5s0.441 1.04 0.661 1.6c0.227 0.56 0.456 1.153 0.689 1.78 0.24 0.627 0.49 1.31 0.75 2.05h-1.359c-0.093-0.273-0.191-0.543-0.291-0.809-0.1-0.267-0.196-0.54-0.289-0.82h-2.92c-0.093 0.28-0.191 0.556-0.291 0.83l-0.28 0.8h-1.309c0.26-0.74 0.506-1.423 0.739-2.05s0.461-1.22 0.681-1.78c0.227-0.56 0.449-1.093 0.669-1.6s0.448-1.01 0.681-1.5zm0.569 1.339c-0.153 0.353-0.33 0.784-0.53 1.291-0.193 0.507-0.396 1.057-0.609 1.65h2.28c-0.213-0.593-0.42-1.146-0.62-1.659s-0.374-0.941-0.52-1.281zm6.327 0.25c0.36 0 0.653 0.047 0.88 0.141 0.233 0.093 0.426 0.217 0.58 0.37 0.073-0.053 0.168-0.11 0.281-0.17s0.24-0.113 0.38-0.159c0.14-0.053 0.286-0.098 0.439-0.131 0.16-0.033 0.321-0.05 0.481-0.05 0.407 0 0.74 0.061 1 0.181 0.267 0.113 0.472 0.276 0.619 0.489 0.153 0.207 0.258 0.461 0.311 0.761 0.06 0.293 0.089 0.615 0.089 0.969v2.941h-1.209v-2.75c0-0.547-0.067-0.94-0.2-1.18-0.133-0.247-0.39-0.37-0.77-0.37-0.193 0-0.377 0.033-0.55 0.1-0.173 0.06-0.302 0.12-0.389 0.18 0.053 0.167 0.089 0.343 0.109 0.53s0.03 0.387 0.03 0.6v2.891h-1.209v-2.75c0-0.547-0.071-0.94-0.211-1.18-0.133-0.247-0.386-0.37-0.759-0.37-0.133 0-0.281 0.01-0.441 0.03s-0.279 0.037-0.359 0.05v4.22h-1.209v-5.059c0.233-0.067 0.536-0.131 0.909-0.191 0.38-0.06 0.78-0.091 1.2-0.091z" fill="#2e3440"/>
</svg>
