<svg viewBox="0 0 16 16" xmlns="http://www.w3.org/2000/svg">
 <g transform="translate(-.101 -1037)" fill="#2e3440">
  <path d="m5.681 1045.2h2.041v0.879h-3.371v-0.879l1.693-1.495q0.227-0.205 0.336-0.401t0.109-0.407q0-0.326-0.221-0.525-0.218-0.199-0.581-0.199-0.28 0-0.612 0.121-0.332 0.118-0.712 0.354v-1.019q0.404-0.134 0.799-0.202 0.395-0.071 0.774-0.071 0.833 0 1.293 0.367 0.463 0.367 0.463 1.022 0 0.379-0.196 0.708-0.196 0.326-0.823 0.876l-0.991 0.87z"/>
  <path d="m10.655 1043.8q0-0.87-0.165-1.224-0.162-0.357-0.547-0.357t-0.55 0.357q-0.165 0.354-0.165 1.224 0 0.879 0.165 1.24 0.165 0.36 0.55 0.36 0.382 0 0.547-0.36 0.165-0.361 0.165-1.24zm1.196 0.01q0 1.153-0.497 1.78-0.497 0.625-1.411 0.625-0.917 0-1.414-0.625-0.497-0.628-0.497-1.78 0-1.156 0.497-1.781 0.497-0.628 1.414-0.628 0.914 0 1.411 0.628 0.497 0.625 0.497 1.781z"/>
 </g>
 <path d="m1 1c-0.554 0-1 0.446-1 1v9c0 0.554 0.454 1.091 1 1h6v2l-2.998 2h8l-3-2v-2h6c0.554 0 1-0.446 1-1v-9c0-0.554-0.446-1-1-1zm0.5 1h13c0.277 0 0.5 0.223 0.5 0.5v8c0 0.277-0.223 0.5-0.5 0.5h-13c-0.277 0-0.5-0.223-0.5-0.5v-8c0-0.277 0.223-0.5 0.5-0.5z" fill="#2e3440"/>
</svg>
