<svg viewBox="0 0 16 16" xmlns="http://www.w3.org/2000/svg">
 <path d="m1.6 0c-0.886 0-1.6 0.714-1.6 1.6v12.8c0 0.886 0.714 1.6 1.6 1.6h12.8c0.886 0 1.6-0.714 1.6-1.6v-12.8c0-0.886-0.714-1.6-1.6-1.6h-12.8zm3.744 4.309c0.287 0 0.546 0.024 0.78 0.07 0.233 0.04 0.438 0.087 0.611 0.141 0.173 0.053 0.316 0.11 0.43 0.17 0.113 0.06 0.194 0.103 0.241 0.13l-0.37 1.03c-0.16-0.1-0.391-0.193-0.691-0.28-0.293-0.093-0.613-0.141-0.959-0.141-0.3 0-0.581 0.054-0.841 0.161-0.26 0.1-0.486 0.253-0.68 0.459-0.187 0.207-0.334 0.466-0.441 0.78-0.107 0.313-0.159 0.677-0.159 1.091 0 0.367 0.04 0.703 0.12 1.01 0.087 0.307 0.216 0.573 0.389 0.8 0.173 0.22 0.394 0.394 0.661 0.52 0.267 0.12 0.586 0.18 0.959 0.18 0.447 0 0.811-0.043 1.091-0.13 0.28-0.093 0.497-0.179 0.65-0.259l0.339 1.03c-0.08 0.053-0.19 0.106-0.33 0.159-0.133 0.053-0.293 0.108-0.48 0.161-0.187 0.047-0.396 0.083-0.63 0.109-0.233 0.033-0.483 0.05-0.75 0.05-0.52 0-0.987-0.081-1.4-0.241s-0.763-0.393-1.05-0.7c-0.287-0.313-0.508-0.692-0.661-1.139s-0.23-0.961-0.23-1.541 0.088-1.092 0.261-1.539c0.18-0.447 0.423-0.825 0.73-1.131 0.307-0.313 0.666-0.549 1.08-0.709 0.413-0.16 0.856-0.241 1.33-0.241zm5.227 1.75c0.08 0 0.173 7e-3 0.28 0.02 0.107 7e-3 0.214 0.021 0.32 0.041 0.107 0.013 0.211 0.033 0.311 0.059 0.1 0.02 0.179 0.041 0.239 0.061l-0.209 1.019c-0.1-0.033-0.24-0.067-0.42-0.1-0.173-0.04-0.376-0.059-0.609-0.059-0.133 0-0.278 0.014-0.431 0.041-0.147 0.027-0.249 0.049-0.309 0.069v4.191h-1.209v-4.98c0.233-0.087 0.522-0.167 0.869-0.241 0.353-0.08 0.744-0.12 1.17-0.12zm2.764 3.875h0.425v3.466h-0.605v-2.655c-0.09 0.07-0.204 0.138-0.341 0.205s-0.269 0.122-0.395 0.166l-0.184-0.461c0.193-0.077 0.386-0.175 0.58-0.295 0.197-0.12 0.37-0.262 0.52-0.425z" fill="#2e3440"/>
</svg>
