<svg viewBox="0 0 16 16" xmlns="http://www.w3.org/2000/svg">
 <path d="m1.6 0c-0.886 0-1.6 0.714-1.6 1.6v12.8c0 0.886 0.714 1.6 1.6 1.6h12.8c0.886 0 1.6-0.714 1.6-1.6v-12.8c0-0.886-0.714-1.6-1.6-1.6h-12.8zm10.577 3.841v5.989c0 0.147 0.01 0.27 0.03 0.37 0.027 0.1 0.071 0.186 0.131 0.259 0.06 0.067 0.139 0.121 0.239 0.161 0.107 0.033 0.24 0.06 0.4 0.08l-0.17 1c-0.36-7e-3 -0.66-0.047-0.9-0.12-0.233-0.073-0.419-0.176-0.559-0.309-0.14-0.14-0.24-0.311-0.3-0.511-0.053-0.207-0.08-0.44-0.08-0.7v-6.02l1.209-0.2zm-8.533 0.83h1.031c0.267 0.28 0.553 0.613 0.859 1 0.307 0.38 0.614 0.776 0.92 1.189 0.313 0.413 0.613 0.83 0.9 1.25 0.293 0.413 0.553 0.801 0.78 1.161v-4.6h1.25v6.93h-1.07c-0.227-0.38-0.479-0.787-0.759-1.22-0.28-0.44-0.57-0.88-0.87-1.32-0.3-0.447-0.607-0.876-0.92-1.289-0.307-0.42-0.6-0.796-0.88-1.13v4.959h-1.241v-6.93z" fill="#2e3440"/>
</svg>
