<svg viewBox="0 0 16 16" xmlns="http://www.w3.org/2000/svg">
 <path d="m1.6 0c-0.886 0-1.6 0.714-1.6 1.6v12.8c0 0.886 0.714 1.6 1.6 1.6h12.8c0.886 0 1.6-0.714 1.6-1.6v-12.8c0-0.886-0.714-1.6-1.6-1.6h-12.8zm2.725 4.6c0.58 0 1.111 0.069 1.591 0.209 0.48 0.133 0.89 0.347 1.23 0.641 0.347 0.287 0.613 0.653 0.8 1.1 0.187 0.44 0.28 0.966 0.28 1.58 0 0.6-0.093 1.124-0.28 1.57-0.187 0.44-0.453 0.809-0.8 1.109-0.34 0.293-0.752 0.514-1.239 0.661-0.48 0.14-1.013 0.209-1.6 0.209-0.28 0-0.597-0.012-0.95-0.039-0.353-0.02-0.691-0.067-1.01-0.141v-6.73c0.32-0.073 0.66-0.121 1.02-0.141s0.679-0.03 0.959-0.03zm0.081 1.091c-0.373 0-0.64 0.01-0.8 0.03v4.839c0.073 7e-3 0.169 0.014 0.289 0.02h0.491c0.847 0 1.476-0.212 1.889-0.639 0.42-0.433 0.631-1.038 0.631-1.811 0-0.787-0.204-1.389-0.611-1.809s-1.036-0.63-1.889-0.63zm7.284 0.55c0.72 0 1.281 0.222 1.681 0.669 0.407 0.447 0.609 1.113 0.609 2 0 0.067-3e-3 0.145-9e-3 0.231 0 0.08-4e-3 0.152-0.011 0.219h-3.45c0.033 0.42 0.181 0.748 0.441 0.981 0.267 0.227 0.65 0.339 1.15 0.339 0.293 0 0.56-0.026 0.8-0.08 0.247-0.053 0.44-0.11 0.58-0.17l0.159 0.991c-0.067 0.033-0.16 0.069-0.28 0.109-0.113 0.033-0.247 0.064-0.4 0.091-0.147 0.033-0.306 0.06-0.48 0.08-0.173 0.02-0.35 0.03-0.53 0.03-0.46 0-0.86-0.067-1.2-0.2-0.34-0.14-0.621-0.33-0.841-0.57-0.22-0.247-0.382-0.533-0.489-0.859-0.107-0.333-0.161-0.697-0.161-1.091 0-0.46 0.067-0.863 0.2-1.209 0.14-0.347 0.323-0.633 0.55-0.859 0.227-0.233 0.486-0.407 0.78-0.52 0.293-0.12 0.593-0.18 0.9-0.18zm0.011 1.01c-0.187 0-0.351 0.036-0.491 0.109-0.14 0.067-0.259 0.157-0.359 0.27-0.093 0.113-0.167 0.244-0.22 0.391s-0.089 0.297-0.109 0.45h2.25c0-0.167-0.024-0.324-0.07-0.47-0.047-0.153-0.118-0.284-0.211-0.391-0.087-0.113-0.196-0.199-0.33-0.259-0.127-0.067-0.279-0.1-0.459-0.1z" fill="#2e3440"/>
</svg>
