<svg viewBox="0 0 16 16" xmlns="http://www.w3.org/2000/svg">
 <path d="m1.6 0c-0.886 0-1.6 0.714-1.6 1.6v12.8c0 0.886 0.714 1.6 1.6 1.6h12.8c0.886 0 1.6-0.714 1.6-1.6v-12.8c0-0.886-0.714-1.6-1.6-1.6h-12.8zm-0.627 4.47h1.03c0.267 0.28 0.553 0.613 0.859 1 0.307 0.38 0.614 0.776 0.92 1.189 0.313 0.413 0.613 0.83 0.9 1.25 0.293 0.413 0.553 0.801 0.78 1.161v-4.6h1.25v6.93h-1.069c-0.227-0.38-0.481-0.787-0.761-1.22-0.28-0.44-0.57-0.88-0.87-1.32-0.3-0.447-0.605-0.876-0.919-1.289-0.307-0.42-0.601-0.796-0.881-1.13v4.959h-1.239v-6.93zm9 1.57c0.367 0 0.704 0.067 1.01 0.2 0.313 0.127 0.58 0.31 0.8 0.55s0.389 0.529 0.509 0.869c0.127 0.333 0.191 0.707 0.191 1.12s-0.061 0.79-0.181 1.13-0.289 0.63-0.509 0.87-0.487 0.428-0.8 0.561c-0.307 0.133-0.647 0.2-1.02 0.2s-0.714-0.067-1.02-0.2c-0.307-0.133-0.569-0.321-0.789-0.561s-0.394-0.53-0.52-0.87c-0.12-0.34-0.18-0.716-0.18-1.13 0-0.413 0.06-0.787 0.18-1.12 0.127-0.34 0.3-0.629 0.52-0.869 0.227-0.24 0.493-0.423 0.8-0.55 0.307-0.133 0.643-0.2 1.01-0.2zm0 1.05c-0.4 0-0.712 0.153-0.939 0.459-0.22 0.3-0.331 0.71-0.331 1.23 0 0.527 0.111 0.943 0.331 1.25 0.227 0.307 0.539 0.461 0.939 0.461s0.71-0.154 0.93-0.461c0.227-0.307 0.341-0.723 0.341-1.25 0-0.52-0.114-0.93-0.341-1.23-0.22-0.307-0.53-0.459-0.93-0.459zm4.788 2.825 0.034 0.5c-0.18 3e-3 -0.348 0.023-0.505 0.059-0.157 0.033-0.297 0.086-0.42 0.159s-0.23 0.169-0.32 0.286c-0.087 0.117-0.153 0.26-0.2 0.43 0.163-0.077 0.343-0.116 0.536-0.116 0.207 0 0.382 0.031 0.525 0.091 0.147 0.057 0.265 0.134 0.355 0.234s0.155 0.217 0.195 0.35c0.043 0.13 0.064 0.268 0.064 0.411 0 0.13-0.024 0.263-0.07 0.4-0.043 0.137-0.113 0.262-0.209 0.375-0.093 0.11-0.211 0.202-0.355 0.275-0.143 0.07-0.314 0.105-0.511 0.105-0.397 0-0.699-0.131-0.909-0.391-0.207-0.263-0.309-0.624-0.309-1.084 0-0.333 0.047-0.628 0.144-0.884 0.1-0.26 0.24-0.48 0.42-0.656 0.183-0.177 0.404-0.31 0.661-0.4 0.26-0.093 0.552-0.14 0.875-0.144zm-0.95 1.8c-0.097 0-0.191 8e-3 -0.281 0.025s-0.17 0.042-0.244 0.075c-3e-3 0.027-8e-3 0.056-0.011 0.089v0.091c0 0.133 8e-3 0.26 0.025 0.38 0.02 0.117 0.052 0.219 0.095 0.309 0.047 0.087 0.108 0.158 0.184 0.211 0.08 0.05 0.179 0.075 0.295 0.075 0.097 0 0.179-0.021 0.245-0.061 0.07-0.04 0.127-0.091 0.17-0.155 0.043-0.063 0.075-0.131 0.095-0.205 0.02-0.077 0.03-0.15 0.03-0.22 0-0.2-0.049-0.351-0.145-0.455-0.097-0.107-0.249-0.159-0.459-0.159z" fill="#2e3440"/>
</svg>
