<svg viewBox="0 0 16 16" xmlns="http://www.w3.org/2000/svg">
 <path d="m1.6 0c-0.886 0-1.6 0.714-1.6 1.6v12.8c0 0.886 0.714 1.6 1.6 1.6h12.8c0.886 0 1.6-0.714 1.6-1.6v-12.8c0-0.886-0.714-1.6-1.6-1.6h-12.8zm9.997 4.091c0.2 0 0.374 0.067 0.52 0.2 0.147 0.133 0.22 0.317 0.22 0.55 0 0.227-0.074 0.406-0.22 0.539-0.147 0.133-0.32 0.2-0.52 0.2-0.207 0-0.383-0.067-0.53-0.2s-0.22-0.312-0.22-0.539c0-0.233 0.074-0.417 0.22-0.55 0.147-0.133 0.323-0.2 0.53-0.2zm-7.738 0.58h1.259v2.77h3.01v-2.77h1.259v6.93h-1.259v-3.07h-3.01v3.07h-1.259v-6.93zm7.138 1.7h1.209v5.23h-1.209v-5.23z" fill="#2e3440"/>
</svg>
