<svg viewBox="0 0 16 16" xmlns="http://www.w3.org/2000/svg">
 <path d="m1.6 0c-0.886 0-1.6 0.714-1.6 1.6v12.8c0 0.886 0.714 1.6 1.6 1.6h12.8c0.886 0 1.6-0.714 1.6-1.6v-12.8c0-0.886-0.714-1.6-1.6-1.6h-12.8zm2.369 4.47h1.191c0.233 0.493 0.46 0.993 0.68 1.5s0.441 1.04 0.661 1.6c0.227 0.56 0.456 1.153 0.689 1.78 0.24 0.627 0.49 1.31 0.75 2.05h-1.359c-0.093-0.273-0.191-0.543-0.291-0.809-0.1-0.267-0.196-0.54-0.289-0.82h-2.92c-0.093 0.28-0.191 0.556-0.291 0.83l-0.28 0.8h-1.309c0.26-0.74 0.506-1.423 0.739-2.05s0.46-1.22 0.68-1.78c0.227-0.56 0.45-1.093 0.67-1.6s0.446-1.01 0.68-1.5zm0.57 1.339c-0.153 0.353-0.33 0.784-0.53 1.291-0.193 0.507-0.396 1.057-0.609 1.65h2.28c-0.213-0.593-0.42-1.146-0.62-1.659s-0.374-0.941-0.52-1.281zm6.256 0.25c0.08 0 0.173 7e-3 0.28 0.02 0.107 7e-3 0.214 0.021 0.32 0.041 0.107 0.013 0.209 0.033 0.309 0.059 0.1 0.02 0.181 0.041 0.241 0.061l-0.209 1.019c-0.1-0.033-0.24-0.067-0.42-0.1-0.173-0.04-0.378-0.059-0.611-0.059-0.133 0-0.276 0.014-0.43 0.041-0.147 0.027-0.249 0.049-0.309 0.069v4.191h-1.211v-4.98c0.233-0.087 0.524-0.167 0.87-0.241 0.353-0.08 0.744-0.12 1.17-0.12zm1.848 3.875h1.77v0.511h-1.255c-3e-3 0.057-9e-3 0.122-0.016 0.195-3e-3 0.07-9e-3 0.141-0.016 0.214-3e-3 0.073-7e-3 0.144-0.014 0.211s-0.014 0.122-0.02 0.169c0.493 0.027 0.857 0.141 1.091 0.341 0.237 0.197 0.355 0.466 0.355 0.809 0 0.157-0.026 0.303-0.08 0.436-0.053 0.133-0.135 0.249-0.245 0.345-0.11 0.097-0.249 0.173-0.416 0.23-0.167 0.053-0.361 0.08-0.584 0.08-0.09 0-0.182-7e-3 -0.275-0.02s-0.184-0.03-0.27-0.05c-0.083-0.017-0.158-0.035-0.225-0.055s-0.117-0.038-0.15-0.055l0.116-0.511c0.07 0.033 0.17 0.071 0.3 0.111 0.133 0.037 0.294 0.055 0.484 0.055 0.13 0 0.241-0.014 0.334-0.041 0.093-0.03 0.168-0.069 0.225-0.119 0.06-0.05 0.105-0.107 0.131-0.17 0.027-0.067 0.039-0.138 0.039-0.211 0-0.11-0.021-0.207-0.064-0.294s-0.121-0.16-0.231-0.22c-0.107-0.06-0.251-0.106-0.434-0.136-0.18-0.03-0.408-0.044-0.684-0.044 0.037-0.32 0.064-0.624 0.084-0.911 0.02-0.29 0.037-0.58 0.05-0.87z" fill="#2e3440"/>
</svg>
