<svg viewBox="0 0 16 16" xmlns="http://www.w3.org/2000/svg">
 <path d="m1.6 0c-0.886 0-1.6 0.714-1.6 1.6v12.8c0 0.886 0.714 1.6 1.6 1.6h12.8c0.886 0 1.6-0.714 1.6-1.6v-12.8c0-0.886-0.714-1.6-1.6-1.6h-12.8zm0.848 4.47h4.45v1.07h-3.191v1.709h2.841v1.05h-2.841v2.03h3.43v1.07h-4.689v-6.93zm6.831 0.12v1.58h1.861v1.01h-1.861v2.13c0 0.42 0.067 0.72 0.2 0.9s0.361 0.27 0.681 0.27c0.22 0 0.413-0.024 0.58-0.07 0.173-0.047 0.309-0.09 0.409-0.13l0.2 0.961c-0.14 0.06-0.323 0.12-0.55 0.18-0.227 0.067-0.493 0.1-0.8 0.1-0.373 0-0.686-0.05-0.939-0.15-0.247-0.1-0.444-0.243-0.591-0.43-0.147-0.193-0.249-0.424-0.309-0.691-0.06-0.273-0.091-0.583-0.091-0.93v-4.53l1.209-0.2zm3.811 5.344h0.425v3.466h-0.606v-2.655c-0.09 0.07-0.202 0.138-0.339 0.205s-0.269 0.122-0.395 0.166l-0.184-0.461c0.193-0.077 0.386-0.175 0.58-0.295 0.197-0.12 0.37-0.262 0.52-0.425z" fill="#2e3440"/>
</svg>
