<svg viewBox="0 0 16 16" xmlns="http://www.w3.org/2000/svg">
 <path d="m1.6 0c-0.886 0-1.6 0.714-1.6 1.6v12.8c0 0.886 0.714 1.6 1.6 1.6h12.8c0.886 0 1.6-0.714 1.6-1.6v-12.8c0-0.886-0.714-1.6-1.6-1.6h-12.8zm0.731 4.47h1.259v5.839h3.12v1.091h-4.38v-6.93zm4.202 1.7h1.291c0.073 0.293 0.157 0.61 0.25 0.95 0.1 0.333 0.203 0.669 0.309 1.01 0.113 0.333 0.227 0.66 0.341 0.98 0.12 0.313 0.23 0.597 0.33 0.85 0.1-0.253 0.207-0.537 0.32-0.85 0.113-0.32 0.223-0.646 0.33-0.98 0.113-0.34 0.22-0.676 0.32-1.01 0.1-0.34 0.186-0.657 0.259-0.95h1.25c-0.287 1.02-0.606 1.977-0.959 2.87-0.347 0.887-0.687 1.673-1.02 2.359h-1.039c-0.333-0.687-0.678-1.473-1.031-2.359-0.347-0.893-0.663-1.85-0.95-2.87zm5.759 3.764h1.77v0.511h-1.255c-3e-3 0.057-9e-3 0.122-0.016 0.195-3e-3 0.07-9e-3 0.141-0.016 0.214-3e-3 0.073-7e-3 0.144-0.014 0.211s-0.014 0.122-0.02 0.169c0.493 0.027 0.857 0.141 1.091 0.341 0.237 0.197 0.355 0.466 0.355 0.809 0 0.157-0.026 0.303-0.08 0.436-0.053 0.133-0.135 0.249-0.245 0.345-0.11 0.097-0.249 0.173-0.416 0.23-0.167 0.053-0.361 0.08-0.584 0.08-0.09 0-0.182-7e-3 -0.275-0.02s-0.184-0.03-0.27-0.05c-0.083-0.017-0.158-0.035-0.225-0.055s-0.117-0.038-0.15-0.055l0.116-0.511c0.07 0.033 0.17 0.071 0.3 0.111 0.133 0.037 0.294 0.055 0.484 0.055 0.13 0 0.241-0.014 0.334-0.041 0.093-0.03 0.168-0.069 0.225-0.119 0.06-0.05 0.105-0.107 0.131-0.17 0.027-0.067 0.039-0.138 0.039-0.211 0-0.11-0.021-0.207-0.064-0.294s-0.121-0.16-0.231-0.22c-0.107-0.06-0.251-0.106-0.434-0.136-0.18-0.03-0.408-0.044-0.684-0.044 0.037-0.32 0.064-0.624 0.084-0.911 0.02-0.29 0.037-0.58 0.05-0.87z" fill="#2e3440"/>
</svg>
