<svg viewBox="0 0 16 16" xmlns="http://www.w3.org/2000/svg">
 <path d="m1.6 0c-0.886 0-1.6 0.714-1.6 1.6v12.8c0 0.886 0.714 1.6 1.6 1.6h12.8c0.886 0 1.6-0.714 1.6-1.6v-12.8c0-0.886-0.714-1.6-1.6-1.6h-12.8zm7.091 3.841v4.569c0.153-0.16 0.317-0.329 0.491-0.509 0.173-0.187 0.343-0.37 0.509-0.55 0.167-0.187 0.324-0.363 0.47-0.53 0.153-0.173 0.284-0.323 0.391-0.45h1.43c-0.333 0.373-0.688 0.759-1.061 1.159-0.367 0.4-0.736 0.79-1.109 1.17 0.2 0.167 0.41 0.369 0.63 0.609 0.22 0.233 0.434 0.483 0.641 0.75s0.4 0.533 0.58 0.8 0.33 0.514 0.45 0.741h-1.4c-0.12-0.207-0.26-0.423-0.42-0.65-0.153-0.227-0.32-0.446-0.5-0.659s-0.363-0.413-0.55-0.6c-0.187-0.193-0.37-0.357-0.55-0.491v2.4h-1.209v-7.559l1.209-0.2zm-4.08 0.83h1.261v6.93h-1.261v-6.93z" fill="#2e3440"/>
</svg>
