<svg viewBox="0 0 16 16" xmlns="http://www.w3.org/2000/svg">
 <path d="m1.6 0c-0.886 0-1.6 0.714-1.6 1.6v12.8c0 0.886 0.714 1.6 1.6 1.6h12.8c0.886 0 1.6-0.714 1.6-1.6v-12.8c0-0.886-0.714-1.6-1.6-1.6h-12.8zm1.247 4.309c0.433 0 0.817 0.05 1.15 0.15 0.34 0.093 0.607 0.198 0.8 0.311l-0.389 1.02c-0.227-0.127-0.477-0.224-0.75-0.291-0.267-0.067-0.545-0.1-0.831-0.1-0.34 0-0.607 0.069-0.8 0.209-0.187 0.14-0.28 0.337-0.28 0.591 0 0.153 0.031 0.287 0.091 0.4 0.067 0.107 0.157 0.204 0.27 0.291 0.12 0.087 0.256 0.166 0.409 0.239 0.16 0.073 0.334 0.144 0.52 0.211 0.327 0.12 0.617 0.242 0.87 0.369 0.26 0.12 0.477 0.267 0.65 0.441 0.18 0.167 0.316 0.367 0.409 0.6 0.093 0.227 0.141 0.503 0.141 0.83 0 0.627-0.224 1.114-0.67 1.461-0.44 0.34-1.087 0.509-1.941 0.509-0.287 0-0.549-0.019-0.789-0.059-0.233-0.033-0.445-0.078-0.631-0.131-0.18-0.053-0.335-0.106-0.469-0.159-0.133-0.06-0.24-0.113-0.32-0.159l0.37-1.031c0.18 0.1 0.423 0.2 0.73 0.3s0.676 0.15 1.109 0.15c0.453 0 0.784-0.076 0.991-0.23 0.207-0.153 0.309-0.37 0.309-0.65 0-0.167-0.036-0.31-0.109-0.43-0.067-0.12-0.167-0.227-0.3-0.32-0.127-0.1-0.284-0.19-0.47-0.27-0.187-0.087-0.401-0.17-0.641-0.25-0.24-0.087-0.473-0.18-0.7-0.28-0.22-0.107-0.416-0.236-0.589-0.389-0.167-0.153-0.304-0.337-0.411-0.55-0.1-0.213-0.15-0.47-0.15-0.77 0-0.627 0.217-1.117 0.65-1.47 0.433-0.36 1.024-0.541 1.77-0.541zm2.681 1.861h1.28c0.06 0.28 0.129 0.583 0.209 0.909 0.08 0.32 0.163 0.651 0.25 0.991 0.087 0.333 0.177 0.66 0.27 0.98s0.186 0.613 0.28 0.88c0.1-0.307 0.197-0.623 0.291-0.95 0.1-0.327 0.193-0.653 0.28-0.98s0.167-0.643 0.241-0.95c0.08-0.313 0.149-0.606 0.209-0.88h0.93c0.06 0.273 0.127 0.566 0.2 0.88 0.073 0.307 0.151 0.623 0.231 0.95 0.087 0.327 0.175 0.653 0.269 0.98 0.1 0.327 0.2 0.643 0.3 0.95 0.087-0.267 0.177-0.56 0.27-0.88s0.184-0.646 0.27-0.98c0.093-0.34 0.179-0.671 0.259-0.991 0.08-0.327 0.151-0.629 0.211-0.909h1.25c-0.14 0.513-0.283 1.016-0.43 1.509s-0.294 0.964-0.441 1.411-0.294 0.866-0.441 1.259-0.29 0.743-0.43 1.05h-0.98c-0.173-0.493-0.354-1.017-0.541-1.57-0.18-0.56-0.347-1.134-0.5-1.72-0.153 0.587-0.32 1.16-0.5 1.72-0.173 0.553-0.345 1.077-0.519 1.57h-0.991c-0.133-0.307-0.274-0.657-0.42-1.05-0.147-0.393-0.292-0.813-0.439-1.259-0.147-0.447-0.294-0.918-0.441-1.411s-0.29-0.996-0.43-1.509zm8.967 3.684c0.37 0 0.642 0.089 0.816 0.266 0.177 0.173 0.266 0.411 0.266 0.714 0 0.12-0.025 0.24-0.075 0.356-0.05 0.113-0.115 0.224-0.195 0.334-0.077 0.107-0.166 0.212-0.266 0.316-0.1 0.1-0.2 0.197-0.3 0.294-0.053 0.05-0.113 0.111-0.18 0.181s-0.131 0.139-0.191 0.209-0.111 0.138-0.155 0.205c-0.043 0.063-0.067 0.118-0.07 0.161h1.541v0.509h-2.205c-3e-3 -0.027-5e-3 -0.059-5e-3 -0.095v-0.089c0-0.16 0.025-0.307 0.075-0.441 0.053-0.137 0.121-0.263 0.205-0.38 0.083-0.117 0.176-0.226 0.28-0.33 0.103-0.103 0.206-0.206 0.309-0.306 0.08-0.077 0.158-0.152 0.231-0.225s0.136-0.144 0.189-0.214c0.057-0.073 0.103-0.147 0.136-0.22 0.033-0.077 0.05-0.154 0.05-0.234 0-0.173-0.05-0.297-0.15-0.37s-0.222-0.111-0.366-0.111c-0.093 0-0.179 0.014-0.259 0.041s-0.152 0.059-0.216 0.095c-0.06 0.037-0.113 0.074-0.159 0.114-0.047 0.037-0.083 0.067-0.106 0.091l-0.3-0.425c0.14-0.133 0.304-0.24 0.491-0.32 0.19-0.083 0.393-0.125 0.609-0.125z" fill="#2e3440"/>
</svg>
