<svg viewBox="0 0 16 16" xmlns="http://www.w3.org/2000/svg">
 <path d="m1.6 0c-0.886 0-1.6 0.714-1.6 1.6v12.8c0 0.886 0.714 1.6 1.6 1.6h12.8c0.886 0 1.6-0.714 1.6-1.6v-12.8c0-0.886-0.714-1.6-1.6-1.6h-12.8zm9.156 4.091c0.2 0 0.374 0.067 0.52 0.2 0.147 0.133 0.22 0.317 0.22 0.55 0 0.227-0.074 0.406-0.22 0.539-0.147 0.133-0.32 0.2-0.52 0.2-0.207 0-0.383-0.067-0.53-0.2s-0.22-0.312-0.22-0.539c0-0.233 0.074-0.417 0.22-0.55 0.147-0.133 0.323-0.2 0.53-0.2zm-6.06 0.58h4.381v1.07h-3.12v1.769h2.77v1.07h-2.77v3.02h-1.261v-6.93zm5.458 1.7h1.211v5.23h-1.211v-5.23z" fill="#2e3440"/>
</svg>
