<svg viewBox="0 0 16 16" xmlns="http://www.w3.org/2000/svg">
 <path d="m1.6 0c-0.886 0-1.6 0.714-1.6 1.6v12.8c0 0.886 0.714 1.6 1.6 1.6h12.8c0.886 0 1.6-0.714 1.6-1.6v-12.8c0-0.886-0.714-1.6-1.6-1.6h-12.8zm2.669 4.509c0.433 0 0.817 0.05 1.15 0.15 0.34 0.093 0.607 0.198 0.8 0.311l-0.391 1.02c-0.227-0.127-0.477-0.224-0.75-0.291-0.267-0.067-0.543-0.1-0.83-0.1-0.34 0-0.607 0.069-0.8 0.209-0.187 0.14-0.28 0.337-0.28 0.591 0 0.153 0.029 0.287 0.089 0.4 0.067 0.107 0.157 0.204 0.27 0.291 0.12 0.087 0.256 0.166 0.409 0.239 0.16 0.073 0.334 0.144 0.52 0.211 0.327 0.12 0.617 0.242 0.87 0.369 0.26 0.12 0.477 0.267 0.65 0.441 0.18 0.167 0.316 0.367 0.409 0.6 0.093 0.227 0.141 0.503 0.141 0.83 0 0.627-0.224 1.114-0.67 1.461-0.44 0.34-1.086 0.509-1.939 0.509-0.287 0-0.551-0.019-0.791-0.059-0.233-0.033-0.443-0.078-0.63-0.131-0.18-0.053-0.337-0.106-0.47-0.159-0.133-0.06-0.24-0.113-0.32-0.159l0.37-1.031c0.18 0.1 0.423 0.2 0.73 0.3s0.678 0.15 1.111 0.15c0.453 0 0.782-0.076 0.989-0.23 0.207-0.153 0.311-0.37 0.311-0.65 0-0.167-0.038-0.31-0.111-0.43-0.067-0.12-0.167-0.227-0.3-0.32-0.127-0.1-0.284-0.19-0.47-0.27-0.187-0.087-0.399-0.17-0.639-0.25-0.24-0.087-0.473-0.18-0.7-0.28-0.22-0.107-0.417-0.236-0.591-0.389-0.167-0.153-0.303-0.337-0.409-0.55-0.1-0.213-0.15-0.47-0.15-0.77 0-0.627 0.217-1.117 0.65-1.47 0.433-0.36 1.024-0.541 1.77-0.541zm2.68 1.861h1.28c0.06 0.28 0.131 0.583 0.211 0.909 0.08 0.32 0.163 0.651 0.25 0.991 0.087 0.333 0.177 0.66 0.27 0.98s0.186 0.613 0.28 0.88c0.1-0.307 0.196-0.623 0.289-0.95 0.1-0.327 0.195-0.653 0.281-0.98 0.087-0.327 0.166-0.643 0.239-0.95 0.08-0.313 0.151-0.606 0.211-0.88h0.93c0.06 0.273 0.127 0.566 0.2 0.88 0.073 0.307 0.15 0.623 0.23 0.95 0.087 0.327 0.177 0.653 0.27 0.98 0.1 0.327 0.2 0.643 0.3 0.95 0.087-0.267 0.177-0.56 0.27-0.88s0.182-0.646 0.269-0.98c0.093-0.34 0.181-0.671 0.261-0.991 0.08-0.327 0.149-0.629 0.209-0.909h1.25c-0.14 0.513-0.283 1.016-0.43 1.509s-0.294 0.964-0.441 1.411-0.292 0.866-0.439 1.259-0.29 0.743-0.43 1.05h-0.981c-0.173-0.493-0.352-1.017-0.539-1.57-0.18-0.56-0.347-1.134-0.5-1.72-0.153 0.587-0.32 1.16-0.5 1.72-0.173 0.553-0.347 1.077-0.52 1.57h-0.991c-0.133-0.307-0.272-0.657-0.419-1.05s-0.294-0.813-0.441-1.259c-0.147-0.447-0.294-0.918-0.441-1.411s-0.29-0.996-0.43-1.509z" fill="#2e3440"/>
</svg>
