<svg viewBox="0 0 16 16" xmlns="http://www.w3.org/2000/svg">
 <path d="m1.6 0c-0.886 0-1.6 0.714-1.6 1.6v12.8c0 0.886 0.714 1.6 1.6 1.6h12.8c0.886 0 1.6-0.714 1.6-1.6v-12.8c0-0.886-0.714-1.6-1.6-1.6h-12.8zm1.414 4.47h1.261v6.93h-1.261v-6.93zm5.02 1.589c0.427 0 0.784 0.061 1.07 0.181 0.287 0.113 0.513 0.276 0.68 0.489 0.173 0.207 0.293 0.461 0.359 0.761 0.073 0.293 0.111 0.615 0.111 0.969v2.941h-1.211v-2.75c0-0.28-0.019-0.516-0.059-0.709-0.033-0.2-0.093-0.361-0.18-0.481-0.08-0.127-0.194-0.215-0.341-0.269-0.14-0.06-0.314-0.091-0.52-0.091-0.153 0-0.313 0.01-0.48 0.03s-0.29 0.037-0.37 0.05v4.22h-1.209v-5.059c0.233-0.067 0.536-0.131 0.909-0.191s0.787-0.091 1.241-0.091zm4.264 3.795c0.37 0 0.642 0.089 0.816 0.266 0.177 0.173 0.264 0.411 0.264 0.714 0 0.12-0.025 0.24-0.075 0.356-0.05 0.113-0.114 0.224-0.194 0.334-0.077 0.107-0.166 0.212-0.266 0.316-0.1 0.1-0.2 0.197-0.3 0.294-0.053 0.05-0.113 0.111-0.18 0.181s-0.131 0.139-0.191 0.209-0.111 0.138-0.155 0.205c-0.043 0.063-0.067 0.118-0.07 0.161h1.541v0.509h-2.205c-3e-3 -0.027-6e-3 -0.059-6e-3 -0.095v-0.089c0-0.16 0.025-0.307 0.075-0.441 0.053-0.137 0.123-0.263 0.206-0.38s0.176-0.226 0.28-0.33c0.103-0.103 0.206-0.206 0.309-0.306 0.08-0.077 0.156-0.152 0.23-0.225 0.073-0.073 0.137-0.144 0.191-0.214 0.057-0.073 0.101-0.147 0.134-0.22 0.033-0.077 0.05-0.154 0.05-0.234 0-0.173-0.05-0.297-0.15-0.37s-0.221-0.111-0.364-0.111c-0.093 0-0.181 0.014-0.261 0.041s-0.151 0.059-0.214 0.095c-0.06 0.037-0.114 0.074-0.161 0.114-0.047 0.037-0.081 0.067-0.105 0.091l-0.3-0.425c0.14-0.133 0.304-0.24 0.491-0.32 0.19-0.083 0.393-0.125 0.609-0.125z" fill="#2e3440"/>
</svg>
