<svg viewBox="0 0 16 16" xmlns="http://www.w3.org/2000/svg">
 <path d="m1.6 0c-0.886 0-1.6 0.714-1.6 1.6v12.8c0 0.886 0.714 1.6 1.6 1.6h12.8c0.886 0 1.6-0.714 1.6-1.6v-12.8c0-0.886-0.714-1.6-1.6-1.6h-12.8zm7.095 3.641v4.569c0.153-0.16 0.317-0.329 0.491-0.509 0.173-0.187 0.343-0.37 0.509-0.55 0.167-0.187 0.324-0.363 0.47-0.53 0.153-0.173 0.284-0.323 0.391-0.45h1.43c-0.333 0.373-0.686 0.759-1.059 1.159-0.367 0.4-0.738 0.79-1.111 1.17 0.2 0.167 0.41 0.369 0.63 0.609 0.22 0.233 0.434 0.483 0.641 0.75s0.4 0.533 0.58 0.8 0.33 0.514 0.45 0.741h-1.4c-0.12-0.207-0.26-0.423-0.42-0.65-0.153-0.227-0.32-0.446-0.5-0.659s-0.363-0.413-0.55-0.6c-0.187-0.193-0.37-0.357-0.55-0.491v2.4h-1.209v-7.559l1.209-0.2zm-7.631 0.83h5.531v1.089h-2.131v5.841h-1.269v-5.841h-2.131v-1.089zm12.484 5.384c0.37 0 0.642 0.089 0.816 0.266 0.177 0.173 0.264 0.411 0.264 0.714 0 0.12-0.025 0.24-0.075 0.356-0.05 0.113-0.114 0.224-0.194 0.334-0.077 0.107-0.166 0.212-0.266 0.316-0.1 0.1-0.2 0.197-0.3 0.294-0.053 0.05-0.113 0.111-0.18 0.181s-0.131 0.139-0.191 0.209-0.111 0.138-0.155 0.205c-0.043 0.063-0.067 0.118-0.07 0.161h1.541v0.509h-2.205c-3e-3 -0.027-6e-3 -0.059-6e-3 -0.095v-0.089c0-0.16 0.025-0.307 0.075-0.441 0.053-0.137 0.123-0.263 0.206-0.38s0.176-0.226 0.28-0.33c0.103-0.103 0.206-0.206 0.309-0.306 0.08-0.077 0.156-0.152 0.23-0.225 0.073-0.073 0.137-0.144 0.191-0.214 0.057-0.073 0.101-0.147 0.134-0.22 0.033-0.077 0.05-0.154 0.05-0.234 0-0.173-0.05-0.297-0.15-0.37s-0.221-0.111-0.364-0.111c-0.093 0-0.181 0.014-0.261 0.041s-0.151 0.059-0.214 0.095c-0.06 0.037-0.114 0.074-0.161 0.114-0.047 0.037-0.081 0.067-0.105 0.091l-0.3-0.425c0.14-0.133 0.304-0.24 0.491-0.32 0.19-0.083 0.393-0.125 0.609-0.125z" fill="#2e3440"/>
</svg>
