<svg viewBox="0 0 16 16" xmlns="http://www.w3.org/2000/svg">
 <path d="m1.6 0c-0.886 0-1.6 0.714-1.6 1.6v12.8c0 0.886 0.714 1.6 1.6 1.6h12.8c0.886 0 1.6-0.714 1.6-1.6v-12.8c0-0.886-0.714-1.6-1.6-1.6h-12.8zm-0.705 4.47h1.259v2.77h3.01v-2.77h1.259v6.93h-1.259v-3.07h-3.01v3.07h-1.259v-6.93zm7.07 1.7h1.211v2.739c0 0.56 0.079 0.96 0.239 1.2 0.167 0.24 0.454 0.361 0.861 0.361 0.147 0 0.299-7e-3 0.459-0.02 0.167-0.013 0.29-0.03 0.37-0.05v-4.23h1.209v5.07c-0.233 0.06-0.536 0.12-0.909 0.18-0.373 0.067-0.783 0.1-1.23 0.1-0.42 0-0.774-0.06-1.061-0.18-0.28-0.12-0.506-0.287-0.68-0.5-0.167-0.213-0.286-0.468-0.359-0.761-0.073-0.3-0.111-0.626-0.111-0.98v-2.93zm5.766 3.764h1.77v0.511h-1.256c-3e-3 0.057-7e-3 0.122-0.014 0.195-3e-3 0.07-9e-3 0.141-0.016 0.214-3e-3 0.073-7e-3 0.144-0.014 0.211s-0.014 0.122-0.02 0.169c0.493 0.027 0.856 0.141 1.089 0.341 0.237 0.197 0.356 0.466 0.356 0.809 0 0.157-0.028 0.303-0.081 0.436s-0.134 0.249-0.244 0.345c-0.11 0.097-0.249 0.173-0.416 0.23-0.167 0.053-0.361 0.08-0.584 0.08-0.09 0-0.182-7e-3 -0.275-0.02s-0.184-0.03-0.27-0.05c-0.083-0.017-0.158-0.035-0.225-0.055s-0.117-0.038-0.15-0.055l0.114-0.511c0.07 0.033 0.17 0.071 0.3 0.111 0.133 0.037 0.296 0.055 0.486 0.055 0.13 0 0.241-0.014 0.334-0.041 0.093-0.03 0.168-0.069 0.225-0.119 0.06-0.05 0.103-0.107 0.13-0.17 0.027-0.067 0.041-0.138 0.041-0.211 0-0.11-0.022-0.207-0.066-0.294-0.043-0.087-0.12-0.16-0.23-0.22-0.107-0.06-0.251-0.106-0.434-0.136-0.18-0.03-0.409-0.044-0.686-0.044 0.037-0.32 0.066-0.624 0.086-0.911 0.02-0.29 0.037-0.58 0.05-0.87z" fill="#2e3440"/>
</svg>
