<svg viewBox="0 0 16 16" xmlns="http://www.w3.org/2000/svg">
 <path d="m1.6 0c-0.886 0-1.6 0.714-1.6 1.6v12.8c0 0.886 0.714 1.6 1.6 1.6h12.8c0.886 0 1.6-0.714 1.6-1.6v-12.8c0-0.886-0.714-1.6-1.6-1.6h-12.8zm10.05 3.841c0.28 0 0.527 0.026 0.741 0.08 0.213 0.047 0.373 0.09 0.48 0.13l-0.23 1c-0.113-0.053-0.247-0.096-0.4-0.13-0.147-0.033-0.306-0.05-0.48-0.05-0.193 0-0.357 0.029-0.491 0.089-0.133 0.053-0.24 0.131-0.32 0.231s-0.137 0.222-0.17 0.369c-0.033 0.14-0.05 0.294-0.05 0.461v0.35h1.9v1.01h-1.9v4.22h-1.209v-5.6c0-0.673 0.176-1.2 0.53-1.58 0.353-0.387 0.887-0.58 1.6-0.58zm-7.578 0.83h4.381v1.07h-3.12v1.769h2.77v1.07h-2.77v3.02h-1.261v-6.93z" fill="#2e3440"/>
</svg>
