<svg viewBox="0 0 16 16" xmlns="http://www.w3.org/2000/svg">
 <path d="m1.6 0c-0.886 0-1.6 0.714-1.6 1.6v12.8c0 0.886 0.714 1.6 1.6 1.6h12.8c0.886 0 1.6-0.714 1.6-1.6v-12.8c0-0.886-0.714-1.6-1.6-1.6h-12.8zm10.827 4.091c0.2 0 0.374 0.067 0.52 0.2 0.147 0.133 0.22 0.317 0.22 0.55 0 0.227-0.074 0.406-0.22 0.539-0.147 0.133-0.32 0.2-0.52 0.2-0.207 0-0.383-0.067-0.53-0.2s-0.22-0.312-0.22-0.539c0-0.233 0.074-0.417 0.22-0.55 0.147-0.133 0.323-0.2 0.53-0.2zm-9.06 0.58h1.17c0.147 0.253 0.311 0.563 0.491 0.93s0.363 0.753 0.55 1.159c0.187 0.4 0.37 0.811 0.55 1.231 0.187 0.413 0.356 0.797 0.509 1.15 0.153-0.353 0.32-0.737 0.5-1.15 0.18-0.42 0.363-0.831 0.55-1.231 0.187-0.407 0.37-0.793 0.55-1.159 0.18-0.367 0.344-0.676 0.491-0.93h1.139c0.06 0.507 0.117 1.047 0.17 1.62 0.053 0.567 0.101 1.15 0.141 1.75 0.047 0.593 0.087 1.193 0.12 1.8 0.04 0.6 0.073 1.186 0.1 1.759h-1.241c-0.027-0.807-0.06-1.637-0.1-2.491-0.033-0.853-0.086-1.68-0.159-2.48-0.073 0.153-0.161 0.337-0.261 0.55s-0.207 0.447-0.32 0.7c-0.113 0.247-0.23 0.504-0.35 0.77-0.113 0.267-0.226 0.526-0.339 0.78-0.107 0.247-0.207 0.48-0.3 0.7-0.093 0.213-0.174 0.397-0.241 0.55h-0.939c-0.067-0.153-0.147-0.339-0.241-0.559-0.093-0.22-0.196-0.453-0.309-0.7-0.107-0.253-0.221-0.513-0.341-0.78-0.113-0.267-0.227-0.524-0.341-0.77-0.113-0.247-0.219-0.477-0.319-0.691-0.1-0.22-0.188-0.403-0.261-0.55-0.073 0.8-0.13 1.626-0.17 2.48-0.033 0.853-0.062 1.684-0.089 2.491h-1.241c0.027-0.573 0.057-1.166 0.091-1.78 0.04-0.613 0.08-1.22 0.12-1.82 0.047-0.607 0.097-1.193 0.15-1.759 0.053-0.567 0.109-1.09 0.169-1.57zm8.458 1.7h1.211v5.23h-1.211v-5.23z" fill="#2e3440"/>
</svg>
