<svg viewBox="0 0 16 16" xmlns="http://www.w3.org/2000/svg">
 <path d="m1.6 0c-0.886 0-1.6 0.714-1.6 1.6v12.8c0 0.886 0.714 1.6 1.6 1.6h12.8c0.886 0 1.6-0.714 1.6-1.6v-12.8c0-0.886-0.714-1.6-1.6-1.6h-12.8zm-0.05 4.47h4.45v1.07h-3.191v1.709h2.841v1.05h-2.841v2.03h3.43v1.07h-4.689v-6.93zm7.948 1.589c0.427 0 0.784 0.061 1.07 0.181 0.287 0.113 0.513 0.276 0.68 0.489 0.173 0.207 0.294 0.461 0.361 0.761 0.073 0.293 0.109 0.615 0.109 0.969v2.941h-1.209v-2.75c0-0.28-0.021-0.516-0.061-0.709-0.033-0.2-0.093-0.361-0.18-0.481-0.08-0.127-0.192-0.215-0.339-0.269-0.14-0.06-0.314-0.091-0.52-0.091-0.153 0-0.313 0.01-0.48 0.03s-0.29 0.037-0.37 0.05v4.22h-1.211v-5.059c0.233-0.067 0.538-0.131 0.911-0.191s0.786-0.091 1.239-0.091zm4.641 3.875h0.575v2.141h0.389v0.495h-0.389v0.83h-0.591v-0.83h-1.52v-0.43c0.067-0.147 0.156-0.316 0.266-0.506 0.113-0.19 0.238-0.384 0.375-0.584s0.281-0.397 0.434-0.591c0.153-0.193 0.308-0.368 0.461-0.525zm-0.016 0.745c-0.08 0.097-0.163 0.201-0.25 0.311-0.083 0.11-0.165 0.224-0.245 0.344s-0.156 0.244-0.23 0.37c-0.073 0.123-0.14 0.247-0.2 0.37h0.925v-1.395z" fill="#2e3440"/>
</svg>
