<svg viewBox="0 0 16 16" xmlns="http://www.w3.org/2000/svg">
 <path d="m1.6 0c-0.886 0-1.6 0.714-1.6 1.6v12.8c0 0.886 0.714 1.6 1.6 1.6h12.8c0.886 0 1.6-0.714 1.6-1.6v-12.8c0-0.886-0.714-1.6-1.6-1.6h-12.8zm6.989 3.641v2.589c0.133-0.047 0.286-0.087 0.459-0.12 0.18-0.033 0.356-0.05 0.53-0.05 0.42 0 0.767 0.061 1.041 0.181 0.28 0.113 0.504 0.276 0.67 0.489 0.167 0.207 0.283 0.457 0.35 0.75 0.073 0.293 0.109 0.62 0.109 0.98v2.941h-1.209v-2.75c0-0.28-0.021-0.516-0.061-0.709-0.033-0.2-0.093-0.361-0.18-0.481-0.08-0.127-0.19-0.215-0.33-0.269-0.14-0.06-0.314-0.091-0.52-0.091-0.16 0-0.324 0.017-0.491 0.05s-0.289 0.064-0.369 0.091v4.159h-1.211v-7.559l1.211-0.2zm-7.389 0.83h4.959v0.93c-0.22 0.24-0.487 0.554-0.8 0.941-0.313 0.38-0.637 0.797-0.97 1.25-0.333 0.447-0.662 0.909-0.989 1.389-0.32 0.473-0.603 0.923-0.85 1.35h3.719v1.07h-5.239v-0.791c0.133-0.247 0.286-0.513 0.459-0.8 0.18-0.293 0.37-0.593 0.57-0.9s0.407-0.616 0.62-0.93c0.22-0.313 0.437-0.613 0.65-0.9 0.213-0.293 0.42-0.57 0.62-0.83 0.207-0.267 0.4-0.503 0.58-0.709h-3.33v-1.07zm12.928 5.464h0.575v2.141h0.391v0.495h-0.391v0.83h-0.589v-0.83h-1.52v-0.43c0.067-0.147 0.156-0.316 0.266-0.506 0.113-0.19 0.238-0.384 0.375-0.584s0.281-0.397 0.434-0.591c0.153-0.193 0.306-0.368 0.459-0.525zm-0.014 0.745c-0.08 0.097-0.163 0.201-0.25 0.311-0.083 0.11-0.165 0.224-0.245 0.344s-0.156 0.244-0.23 0.37c-0.073 0.123-0.14 0.247-0.2 0.37h0.925v-1.395z" fill="#2e3440"/>
</svg>
