<svg viewBox="0 0 16 16" xmlns="http://www.w3.org/2000/svg">
 <path d="m1.6 0c-0.886 0-1.6 0.714-1.6 1.6v12.8c0 0.886 0.714 1.6 1.6 1.6h12.8c0.886 0 1.6-0.714 1.6-1.6v-12.8c0-0.886-0.714-1.6-1.6-1.6h-12.8zm6.989 3.641v2.589c0.133-0.047 0.286-0.087 0.459-0.12 0.18-0.033 0.356-0.05 0.53-0.05 0.42 0 0.767 0.061 1.041 0.181 0.28 0.113 0.504 0.276 0.67 0.489 0.167 0.207 0.283 0.457 0.35 0.75 0.073 0.293 0.109 0.62 0.109 0.98v2.941h-1.209v-2.75c0-0.28-0.021-0.516-0.061-0.709-0.033-0.2-0.093-0.361-0.18-0.481-0.08-0.127-0.19-0.215-0.33-0.269-0.14-0.06-0.314-0.091-0.52-0.091-0.16 0-0.324 0.017-0.491 0.05s-0.289 0.064-0.369 0.091v4.159h-1.211v-7.559l1.211-0.2zm-7.389 0.83h4.959v0.93c-0.22 0.24-0.487 0.554-0.8 0.941-0.313 0.38-0.637 0.797-0.97 1.25-0.333 0.447-0.662 0.909-0.989 1.389-0.32 0.473-0.603 0.923-0.85 1.35h3.719v1.07h-5.239v-0.791c0.133-0.247 0.286-0.513 0.459-0.8 0.18-0.293 0.37-0.593 0.57-0.9s0.407-0.616 0.62-0.93c0.22-0.313 0.437-0.613 0.65-0.9 0.213-0.293 0.42-0.57 0.62-0.83 0.207-0.267 0.4-0.503 0.58-0.709h-3.33v-1.07zm13.589 5.445 0.034 0.5c-0.18 3e-3 -0.348 0.023-0.505 0.059-0.157 0.033-0.297 0.086-0.42 0.159s-0.23 0.169-0.32 0.286c-0.087 0.117-0.153 0.26-0.2 0.43 0.163-0.077 0.343-0.116 0.536-0.116 0.207 0 0.382 0.031 0.525 0.091 0.147 0.057 0.265 0.134 0.355 0.234s0.155 0.217 0.195 0.35c0.043 0.13 0.064 0.268 0.064 0.411 0 0.13-0.022 0.263-0.069 0.4-0.043 0.137-0.114 0.262-0.211 0.375-0.093 0.11-0.211 0.202-0.355 0.275-0.143 0.07-0.313 0.105-0.509 0.105-0.397 0-0.701-0.131-0.911-0.391-0.207-0.263-0.309-0.624-0.309-1.084 0-0.333 0.049-0.628 0.145-0.884 0.1-0.26 0.239-0.48 0.419-0.656 0.183-0.177 0.404-0.31 0.661-0.4 0.26-0.093 0.552-0.14 0.875-0.144zm-0.95 1.8c-0.097 0-0.19 8e-3 -0.28 0.025s-0.172 0.042-0.245 0.075c-3e-3 0.027-8e-3 0.056-0.011 0.089v0.091c0 0.133 8e-3 0.26 0.025 0.38 0.02 0.117 0.052 0.219 0.095 0.309 0.047 0.087 0.109 0.158 0.186 0.211 0.08 0.05 0.177 0.075 0.294 0.075 0.097 0 0.179-0.021 0.245-0.061 0.07-0.04 0.127-0.091 0.17-0.155 0.043-0.063 0.075-0.131 0.095-0.205 0.02-0.077 0.03-0.15 0.03-0.22 0-0.2-0.049-0.351-0.145-0.455-0.097-0.107-0.249-0.159-0.459-0.159z" fill="#2e3440"/>
</svg>
