<svg viewBox="0 0 16 16" xmlns="http://www.w3.org/2000/svg">
 <path d="m1.6 0c-0.886 0-1.6 0.714-1.6 1.6v12.8c0 0.886 0.714 1.6 1.6 1.6h12.8c0.886 0 1.6-0.714 1.6-1.6v-12.8c0-0.886-0.714-1.6-1.6-1.6h-12.8zm-0.383 4.47h1.261v2.77h3.01v-2.77h1.261v6.93h-1.261v-3.07h-3.01v3.07h-1.261v-6.93zm6.448 1.7h1.289c0.067 0.28 0.147 0.583 0.241 0.909 0.1 0.327 0.207 0.66 0.32 1 0.113 0.333 0.233 0.667 0.359 1 0.127 0.333 0.253 0.643 0.38 0.93 0.213-0.593 0.413-1.222 0.6-1.889 0.187-0.673 0.358-1.323 0.511-1.95h1.25c-0.54 1.987-1.166 3.787-1.88 5.4-0.133 0.3-0.271 0.557-0.411 0.77s-0.297 0.39-0.47 0.53-0.366 0.24-0.58 0.3c-0.213 0.067-0.459 0.1-0.739 0.1-0.187 0-0.374-0.021-0.561-0.061-0.18-0.04-0.316-0.083-0.409-0.13l0.22-0.97c0.24 0.093 0.476 0.141 0.709 0.141 0.313 0 0.556-0.076 0.73-0.23 0.18-0.147 0.337-0.377 0.47-0.691-0.38-0.733-0.747-1.533-1.1-2.4-0.347-0.867-0.656-1.786-0.93-2.759zm6.655 3.764h0.425v3.466h-0.605v-2.655c-0.09 0.07-0.204 0.138-0.341 0.205s-0.267 0.122-0.394 0.166l-0.186-0.461c0.193-0.077 0.386-0.175 0.58-0.295 0.197-0.12 0.37-0.262 0.52-0.425z" fill="#2e3440"/>
</svg>
