<svg viewBox="0 0 16 16" xmlns="http://www.w3.org/2000/svg">
 <path d="m1.6 0c-0.886 0-1.6 0.714-1.6 1.6v12.8c0 0.886 0.714 1.6 1.6 1.6h12.8c0.886 0 1.6-0.714 1.6-1.6v-12.8c0-0.886-0.714-1.6-1.6-1.6h-12.8zm3.48 4.67h1.261v6.93h-1.261v-6.93zm4.55 1.57c0.307 0 0.6 0.029 0.88 0.089 0.28 0.053 0.49 0.108 0.63 0.161l-0.219 0.98c-0.133-0.06-0.304-0.114-0.511-0.161-0.207-0.053-0.447-0.08-0.72-0.08-0.247 0-0.447 0.043-0.6 0.13-0.153 0.08-0.23 0.208-0.23 0.381 0 0.087 0.014 0.163 0.041 0.23 0.033 0.067 0.086 0.129 0.159 0.189 0.073 0.053 0.171 0.11 0.291 0.17 0.12 0.053 0.266 0.11 0.439 0.17 0.287 0.107 0.531 0.214 0.731 0.32 0.2 0.1 0.362 0.217 0.489 0.35 0.133 0.127 0.231 0.272 0.291 0.439s0.089 0.367 0.089 0.6c0 0.5-0.186 0.881-0.559 1.141-0.367 0.253-0.893 0.38-1.58 0.38-0.46 0-0.831-0.04-1.111-0.12-0.28-0.073-0.476-0.133-0.589-0.18l0.209-1.01c0.18 0.073 0.394 0.143 0.641 0.209 0.253 0.067 0.539 0.1 0.859 0.1s0.553-0.036 0.7-0.109c0.147-0.08 0.22-0.213 0.22-0.4 0-0.173-0.081-0.316-0.241-0.43-0.153-0.113-0.409-0.237-0.769-0.37-0.22-0.08-0.424-0.163-0.611-0.25-0.18-0.093-0.337-0.2-0.47-0.32s-0.239-0.263-0.319-0.43c-0.073-0.173-0.111-0.383-0.111-0.63 0-0.48 0.176-0.858 0.53-1.131 0.353-0.28 0.834-0.419 1.441-0.419z" fill="#2e3440"/>
</svg>
