<svg viewBox="0 0 16 16" xmlns="http://www.w3.org/2000/svg">
 <path d="m1.6 0c-0.886 0-1.6 0.714-1.6 1.6v12.8c0 0.886 0.714 1.6 1.6 1.6h12.8c0.886 0 1.6-0.714 1.6-1.6v-12.8c0-0.886-0.714-1.6-1.6-1.6h-12.8zm0.594 4.47h4.45v1.07h-3.189v1.709h2.839v1.05h-2.839v2.03h3.43v1.07h-4.691v-6.93zm7.48 1.57c0.307 0 0.6 0.029 0.88 0.089 0.28 0.053 0.491 0.108 0.631 0.161l-0.22 0.98c-0.133-0.06-0.304-0.114-0.511-0.161-0.207-0.053-0.445-0.08-0.719-0.08-0.247 0-0.447 0.043-0.6 0.13-0.153 0.08-0.231 0.208-0.231 0.381 0 0.087 0.014 0.163 0.041 0.23 0.033 0.067 0.086 0.129 0.159 0.189 0.073 0.053 0.171 0.11 0.291 0.17 0.12 0.053 0.267 0.11 0.441 0.17 0.287 0.107 0.53 0.214 0.73 0.32 0.2 0.1 0.362 0.217 0.489 0.35 0.133 0.127 0.231 0.272 0.291 0.439s0.091 0.367 0.091 0.6c0 0.5-0.188 0.881-0.561 1.141-0.367 0.253-0.893 0.38-1.58 0.38-0.46 0-0.829-0.04-1.109-0.12-0.28-0.073-0.477-0.133-0.591-0.18l0.209-1.01c0.18 0.073 0.394 0.143 0.641 0.209 0.253 0.067 0.539 0.1 0.859 0.1s0.553-0.036 0.7-0.109c0.147-0.08 0.22-0.213 0.22-0.4 0-0.173-0.079-0.316-0.239-0.43-0.153-0.113-0.41-0.237-0.77-0.37-0.22-0.08-0.424-0.163-0.611-0.25-0.18-0.093-0.335-0.2-0.469-0.32-0.133-0.12-0.24-0.263-0.32-0.43-0.073-0.173-0.111-0.383-0.111-0.63 0-0.48 0.178-0.858 0.531-1.131 0.353-0.28 0.832-0.419 1.439-0.419zm3.47 3.814c0.407 0 0.714 0.132 0.92 0.395 0.21 0.26 0.316 0.628 0.316 1.105 0 0.673-0.174 1.183-0.52 1.53-0.347 0.347-0.879 0.522-1.595 0.525l-0.025-0.505c0.2 0 0.381-0.017 0.541-0.05 0.163-0.033 0.305-0.086 0.425-0.159 0.123-0.073 0.226-0.169 0.309-0.286 0.083-0.12 0.147-0.266 0.191-0.439-0.08 0.037-0.169 0.064-0.266 0.084s-0.19 0.03-0.28 0.03c-0.207 0-0.383-0.026-0.53-0.08-0.143-0.057-0.263-0.133-0.356-0.23-0.09-0.1-0.157-0.215-0.2-0.345s-0.064-0.27-0.064-0.42c0-0.13 0.021-0.26 0.064-0.394 0.043-0.137 0.113-0.262 0.206-0.375s0.211-0.205 0.355-0.275c0.143-0.073 0.313-0.111 0.509-0.111zm0.016 0.5c-0.097 0-0.18 0.021-0.25 0.061-0.067 0.04-0.122 0.091-0.166 0.155-0.043 0.063-0.075 0.131-0.095 0.205-0.02 0.073-0.03 0.146-0.03 0.216 0 0.203 0.049 0.356 0.145 0.459 0.1 0.103 0.256 0.155 0.466 0.155 0.097 0 0.191-8e-3 0.284-0.025 0.093-0.02 0.174-0.048 0.241-0.084 3e-3 -0.037 5e-3 -0.069 5e-3 -0.095v-0.07c0-0.133-0.01-0.258-0.03-0.375-0.017-0.12-0.049-0.223-0.095-0.309-0.043-0.09-0.106-0.161-0.186-0.211-0.077-0.053-0.172-0.08-0.289-0.08z" fill="#2e3440"/>
</svg>
