<svg viewBox="0 0 16 16" xmlns="http://www.w3.org/2000/svg">
 <path d="m1.6 0c-0.886 0-1.6 0.714-1.6 1.6v12.8c0 0.886 0.714 1.6 1.6 1.6h12.8c0.886 0 1.6-0.714 1.6-1.6v-12.8c0-0.886-0.714-1.6-1.6-1.6h-12.8zm-0.383 4.47h1.261v2.77h3.01v-2.77h1.261v6.93h-1.261v-3.07h-3.01v3.07h-1.261v-6.93zm6.448 1.7h1.289c0.067 0.28 0.147 0.583 0.241 0.909 0.1 0.327 0.207 0.66 0.32 1 0.113 0.333 0.233 0.667 0.359 1 0.127 0.333 0.253 0.643 0.38 0.93 0.213-0.593 0.413-1.222 0.6-1.889 0.187-0.673 0.358-1.323 0.511-1.95h1.25c-0.54 1.987-1.166 3.787-1.88 5.4-0.133 0.3-0.271 0.557-0.411 0.77s-0.297 0.39-0.47 0.53-0.366 0.24-0.58 0.3c-0.213 0.067-0.459 0.1-0.739 0.1-0.187 0-0.374-0.021-0.561-0.061-0.18-0.04-0.316-0.083-0.409-0.13l0.22-0.97c0.24 0.093 0.476 0.141 0.709 0.141 0.313 0 0.556-0.076 0.73-0.23 0.18-0.147 0.337-0.377 0.47-0.691-0.38-0.733-0.747-1.533-1.1-2.4-0.347-0.867-0.656-1.786-0.93-2.759zm6.43 3.684c0.37 0 0.642 0.089 0.816 0.266 0.177 0.173 0.264 0.411 0.264 0.714 0 0.12-0.025 0.24-0.075 0.356-0.05 0.113-0.114 0.224-0.194 0.334-0.077 0.107-0.166 0.212-0.266 0.316-0.1 0.1-0.2 0.197-0.3 0.294-0.053 0.05-0.113 0.111-0.18 0.181s-0.131 0.139-0.191 0.209-0.111 0.138-0.155 0.205c-0.043 0.063-0.067 0.118-0.07 0.161h1.541v0.509h-2.205c-3e-3 -0.027-6e-3 -0.059-6e-3 -0.095v-0.089c0-0.16 0.025-0.307 0.075-0.441 0.053-0.137 0.123-0.263 0.206-0.38s0.176-0.226 0.28-0.33c0.103-0.103 0.206-0.206 0.309-0.306 0.08-0.077 0.156-0.152 0.23-0.225 0.073-0.073 0.137-0.144 0.191-0.214 0.057-0.073 0.101-0.147 0.134-0.22 0.033-0.077 0.05-0.154 0.05-0.234 0-0.173-0.05-0.297-0.15-0.37s-0.221-0.111-0.364-0.111c-0.093 0-0.181 0.014-0.261 0.041s-0.151 0.059-0.214 0.095c-0.06 0.037-0.114 0.074-0.161 0.114-0.047 0.037-0.081 0.067-0.105 0.091l-0.3-0.425c0.14-0.133 0.304-0.24 0.491-0.32 0.19-0.083 0.393-0.125 0.609-0.125z" fill="#2e3440"/>
</svg>
