<svg viewBox="0 0 16 16" xmlns="http://www.w3.org/2000/svg">
 <path d="m1.6 0c-0.886 0-1.6 0.714-1.6 1.6v12.8c0 0.886 0.714 1.6 1.6 1.6h12.8c0.886 0 1.6-0.714 1.6-1.6v-12.8c0-0.886-0.714-1.6-1.6-1.6h-12.8zm9.156 3.641v5.989c0 0.147 0.01 0.27 0.03 0.37 0.027 0.1 0.07 0.186 0.13 0.259 0.06 0.067 0.141 0.121 0.241 0.161 0.107 0.033 0.24 0.06 0.4 0.08l-0.17 1c-0.36-7e-3 -0.66-0.047-0.9-0.12-0.233-0.073-0.419-0.176-0.559-0.309-0.14-0.14-0.24-0.311-0.3-0.511-0.053-0.207-0.081-0.44-0.081-0.7v-6.02l1.211-0.2zm-8.533 0.83h1.03c0.267 0.28 0.554 0.613 0.861 1 0.307 0.38 0.612 0.776 0.919 1.189 0.313 0.413 0.613 0.83 0.9 1.25 0.293 0.413 0.555 0.801 0.781 1.161v-4.6h1.25v6.93h-1.07c-0.227-0.38-0.481-0.787-0.761-1.22-0.28-0.44-0.569-0.88-0.869-1.32-0.3-0.447-0.607-0.876-0.92-1.289-0.307-0.42-0.6-0.796-0.88-1.13v4.959h-1.241v-6.93zm11.09 5.464h0.425v3.466h-0.605v-2.655c-0.09 0.07-0.202 0.138-0.339 0.205s-0.269 0.122-0.395 0.166l-0.186-0.461c0.193-0.077 0.388-0.175 0.581-0.295 0.197-0.12 0.369-0.262 0.519-0.425z" fill="#2e3440"/>
</svg>
