<svg viewBox="0 0 16 16" xmlns="http://www.w3.org/2000/svg">
 <path d="m1.6 0c-0.886 0-1.6 0.714-1.6 1.6v12.8c0 0.886 0.714 1.6 1.6 1.6h12.8c0.886 0 1.6-0.714 1.6-1.6v-12.8c0-0.886-0.714-1.6-1.6-1.6h-12.8zm0.594 4.47h4.45v1.07h-3.189v1.709h2.839v1.05h-2.839v2.03h3.43v1.07h-4.691v-6.93zm7.48 1.57c0.307 0 0.6 0.029 0.88 0.089 0.28 0.053 0.491 0.108 0.631 0.161l-0.22 0.98c-0.133-0.06-0.304-0.114-0.511-0.161-0.207-0.053-0.445-0.08-0.719-0.08-0.247 0-0.447 0.043-0.6 0.13-0.153 0.08-0.231 0.208-0.231 0.381 0 0.087 0.014 0.163 0.041 0.23 0.033 0.067 0.086 0.129 0.159 0.189 0.073 0.053 0.171 0.11 0.291 0.17 0.12 0.053 0.267 0.11 0.441 0.17 0.287 0.107 0.53 0.214 0.73 0.32 0.2 0.1 0.362 0.217 0.489 0.35 0.133 0.127 0.231 0.272 0.291 0.439s0.091 0.367 0.091 0.6c0 0.5-0.188 0.881-0.561 1.141-0.367 0.253-0.893 0.38-1.58 0.38-0.46 0-0.829-0.04-1.109-0.12-0.28-0.073-0.477-0.133-0.591-0.18l0.209-1.01c0.18 0.073 0.394 0.143 0.641 0.209 0.253 0.067 0.539 0.1 0.859 0.1s0.553-0.036 0.7-0.109c0.147-0.08 0.22-0.213 0.22-0.4 0-0.173-0.079-0.316-0.239-0.43-0.153-0.113-0.41-0.237-0.77-0.37-0.22-0.08-0.424-0.163-0.611-0.25-0.18-0.093-0.335-0.2-0.469-0.32-0.133-0.12-0.24-0.263-0.32-0.43-0.073-0.173-0.111-0.383-0.111-0.63 0-0.48 0.178-0.858 0.531-1.131 0.353-0.28 0.832-0.419 1.439-0.419zm2.756 3.894h1.769v0.511h-1.255c-3e-3 0.057-7e-3 0.122-0.014 0.195-3e-3 0.07-9e-3 0.141-0.016 0.214-3e-3 0.073-9e-3 0.144-0.016 0.211s-0.012 0.122-0.019 0.169c0.493 0.027 0.856 0.141 1.089 0.341 0.237 0.197 0.355 0.466 0.355 0.809 0 0.157-0.026 0.303-0.08 0.436-0.053 0.133-0.135 0.249-0.245 0.345-0.11 0.097-0.247 0.173-0.414 0.23-0.167 0.053-0.363 0.08-0.586 0.08-0.09 0-0.182-7e-3 -0.275-0.02s-0.182-0.03-0.269-0.05c-0.083-0.017-0.158-0.035-0.225-0.055s-0.117-0.038-0.15-0.055l0.114-0.511c0.07 0.033 0.17 0.071 0.3 0.111 0.133 0.037 0.296 0.055 0.486 0.055 0.13 0 0.241-0.014 0.334-0.041 0.093-0.03 0.168-0.069 0.225-0.119 0.06-0.05 0.103-0.107 0.13-0.17 0.027-0.067 0.041-0.138 0.041-0.211 0-0.11-0.022-0.207-0.066-0.294-0.043-0.087-0.12-0.16-0.23-0.22-0.107-0.06-0.251-0.106-0.434-0.136-0.18-0.03-0.409-0.044-0.686-0.044 0.037-0.32 0.066-0.624 0.086-0.911 0.02-0.29 0.037-0.58 0.05-0.87z" fill="#2e3440"/>
</svg>
