<svg viewBox="0 0 16 16" xmlns="http://www.w3.org/2000/svg">
 <path d="m1.6 0c-0.886 0-1.6 0.714-1.6 1.6v12.8c0 0.886 0.714 1.6 1.6 1.6h12.8c0.886 0 1.6-0.714 1.6-1.6v-12.8c0-0.886-0.714-1.6-1.6-1.6h-12.8zm2.155 4.309c0.287 0 0.546 0.024 0.78 0.07 0.233 0.04 0.436 0.087 0.609 0.141 0.173 0.053 0.316 0.11 0.43 0.17 0.113 0.06 0.194 0.103 0.241 0.13l-0.37 1.03c-0.16-0.1-0.389-0.193-0.689-0.28-0.293-0.093-0.614-0.141-0.961-0.141-0.3 0-0.579 0.054-0.839 0.161-0.26 0.1-0.488 0.253-0.681 0.459-0.187 0.207-0.332 0.466-0.439 0.78-0.107 0.313-0.161 0.677-0.161 1.091 0 0.367 0.04 0.703 0.12 1.01 0.087 0.307 0.217 0.573 0.391 0.8 0.173 0.22 0.393 0.394 0.659 0.52 0.267 0.12 0.588 0.18 0.961 0.18 0.447 0 0.809-0.043 1.089-0.13 0.28-0.093 0.497-0.179 0.65-0.259l0.341 1.03c-0.08 0.053-0.19 0.106-0.33 0.159-0.133 0.053-0.295 0.108-0.481 0.161-0.187 0.047-0.396 0.083-0.63 0.109-0.233 0.033-0.483 0.05-0.75 0.05-0.52 0-0.987-0.081-1.4-0.241s-0.763-0.393-1.05-0.7c-0.287-0.313-0.506-0.692-0.659-1.139s-0.23-0.961-0.23-1.541 0.086-1.092 0.259-1.539c0.18-0.447 0.423-0.825 0.73-1.131 0.307-0.313 0.666-0.549 1.08-0.709 0.413-0.16 0.858-0.241 1.331-0.241zm4.72 1.75c0.36 0 0.653 0.047 0.88 0.141 0.233 0.093 0.426 0.217 0.58 0.37 0.073-0.053 0.166-0.11 0.28-0.17 0.113-0.06 0.241-0.113 0.381-0.159 0.14-0.053 0.286-0.098 0.439-0.131 0.16-0.033 0.32-0.05 0.48-0.05 0.407 0 0.74 0.061 1 0.181 0.267 0.113 0.474 0.276 0.62 0.489 0.153 0.207 0.258 0.461 0.311 0.761 0.06 0.293 0.089 0.615 0.089 0.969v2.941h-1.209v-2.75c0-0.547-0.067-0.94-0.2-1.18-0.133-0.247-0.39-0.37-0.77-0.37-0.193 0-0.377 0.033-0.55 0.1-0.173 0.06-0.304 0.12-0.391 0.18 0.053 0.167 0.091 0.343 0.111 0.53s0.03 0.387 0.03 0.6v2.891h-1.209v-2.75c0-0.547-0.071-0.94-0.211-1.18-0.133-0.247-0.386-0.37-0.759-0.37-0.133 0-0.281 0.01-0.441 0.03s-0.279 0.037-0.359 0.05v4.22h-1.211v-5.059c0.233-0.067 0.538-0.131 0.911-0.191 0.38-0.06 0.78-0.091 1.2-0.091zm6.745 3.875h0.425v3.466h-0.605v-2.655c-0.09 0.07-0.202 0.138-0.339 0.205s-0.269 0.122-0.395 0.166l-0.186-0.461c0.193-0.077 0.388-0.175 0.581-0.295 0.197-0.12 0.369-0.262 0.519-0.425z" fill="#2e3440"/>
</svg>
