<svg viewBox="0 0 16 16" xmlns="http://www.w3.org/2000/svg">
 <path d="m1.6 0c-0.886 0-1.6 0.714-1.6 1.6v12.8c0 0.886 0.714 1.6 1.6 1.6h12.8c0.886 0 1.6-0.714 1.6-1.6v-12.8c0-0.886-0.714-1.6-1.6-1.6h-12.8zm6.939 3.641v2.589c0.133-0.047 0.288-0.087 0.461-0.12 0.18-0.033 0.356-0.05 0.53-0.05 0.42 0 0.767 0.061 1.041 0.181 0.28 0.113 0.502 0.276 0.669 0.489 0.167 0.207 0.283 0.457 0.35 0.75 0.073 0.293 0.111 0.62 0.111 0.98v2.941h-1.211v-2.75c0-0.28-0.019-0.516-0.059-0.709-0.033-0.2-0.093-0.361-0.18-0.481-0.08-0.127-0.19-0.215-0.33-0.269-0.14-0.06-0.314-0.091-0.52-0.091-0.16 0-0.324 0.017-0.491 0.05s-0.29 0.064-0.37 0.091v4.159h-1.209v-7.559l1.209-0.2zm-7.631 0.83h5.531v1.089h-2.131v5.841h-1.269v-5.841h-2.131v-1.089zm13.02 5.464h0.425v3.466h-0.605v-2.655c-0.09 0.07-0.204 0.138-0.341 0.205s-0.267 0.122-0.394 0.166l-0.186-0.461c0.193-0.077 0.386-0.175 0.58-0.295 0.197-0.12 0.37-0.262 0.52-0.425z" fill="#2e3440"/>
</svg>
