<svg viewBox="0 0 16 16" xmlns="http://www.w3.org/2000/svg">
 <path d="m5.5 0c-0.277 0-0.5 0.223-0.5 0.5v0.5h-2c-1.108 0-2 0.892-2 2v2h-0.5c-0.277 0-0.5 0.223-0.5 0.5s0.223 0.5 0.5 0.5h0.5v4h-0.5c-0.277 0-0.5 0.223-0.5 0.5s0.223 0.5 0.5 0.5h0.5v2c0 1.108 0.892 2 2 2h2v0.5c0 0.277 0.223 0.5 0.5 0.5s0.5-0.223 0.5-0.5v-0.5h4v0.5c0 0.277 0.223 0.5 0.5 0.5s0.5-0.223 0.5-0.5v-0.5h2c1.108 0 2-0.892 2-2v-2h0.5c0.277 0 0.5-0.223 0.5-0.5s-0.223-0.5-0.5-0.5h-0.5v-4h0.5c0.277 0 0.5-0.223 0.5-0.5s-0.223-0.5-0.5-0.5h-0.5v-2c0-1.108-0.892-2-2-2h-2v-0.5c0-0.277-0.223-0.5-0.5-0.5-0.277 1.4803e-16 -0.5 0.223-0.5 0.5v0.5h-4v-0.5c0-0.277-0.223-0.5-0.5-0.5zm-2.5 2h10c0.554 0 1 0.446 1 1v10c0 0.554-0.446 1-1 1h-10c-0.554 0-1-0.446-1-1v-10c0-0.554 0.446-1 1-1z" fill="#2e3440"/>
 <rect x="4" y="5" width="8" height="7" rx="1" fill="#2e3440"/>
</svg>
