<svg viewBox="0 0 16 16" xmlns="http://www.w3.org/2000/svg">
 <path d="m1.6 0c-0.886 0-1.6 0.714-1.6 1.6v12.8c0 0.886 0.714 1.6 1.6 1.6h12.8c0.886 0 1.6-0.714 1.6-1.6v-12.8c0-0.886-0.714-1.6-1.6-1.6h-12.8zm11.306 3.841v7.6c-0.24 0.073-0.543 0.14-0.909 0.2-0.36 0.06-0.741 0.089-1.141 0.089-0.413 0-0.783-0.062-1.109-0.189-0.327-0.127-0.607-0.307-0.841-0.541-0.227-0.24-0.403-0.526-0.53-0.859-0.12-0.34-0.18-0.721-0.18-1.141 0-0.413 0.05-0.787 0.15-1.12 0.107-0.34 0.259-0.63 0.459-0.87s0.445-0.423 0.731-0.55c0.287-0.133 0.616-0.2 0.989-0.2 0.253 0 0.477 0.031 0.67 0.091s0.36 0.127 0.5 0.2v-2.509l1.209-0.2zm-7.72 0.669c0.433 0 0.817 0.05 1.15 0.15 0.34 0.093 0.607 0.198 0.8 0.311l-0.389 1.02c-0.227-0.127-0.477-0.224-0.75-0.291-0.267-0.067-0.545-0.1-0.831-0.1-0.34 0-0.607 0.069-0.8 0.209-0.187 0.14-0.28 0.337-0.28 0.591 0 0.153 0.031 0.287 0.091 0.4 0.067 0.107 0.157 0.204 0.27 0.291 0.12 0.087 0.256 0.166 0.409 0.239 0.16 0.073 0.334 0.144 0.52 0.211 0.327 0.12 0.617 0.242 0.87 0.369 0.26 0.12 0.477 0.267 0.65 0.441 0.18 0.167 0.316 0.367 0.409 0.6 0.093 0.227 0.141 0.503 0.141 0.83 0 0.627-0.224 1.114-0.67 1.461-0.44 0.34-1.087 0.509-1.941 0.509-0.287 0-0.549-0.019-0.789-0.059-0.233-0.033-0.445-0.078-0.631-0.131-0.18-0.053-0.335-0.106-0.469-0.159-0.133-0.06-0.24-0.113-0.32-0.159l0.37-1.031c0.18 0.1 0.423 0.2 0.73 0.3s0.676 0.15 1.109 0.15c0.453 0 0.784-0.076 0.991-0.23 0.207-0.153 0.309-0.37 0.309-0.65 0-0.167-0.036-0.31-0.109-0.43-0.067-0.12-0.167-0.227-0.3-0.32-0.127-0.1-0.284-0.19-0.47-0.27-0.187-0.087-0.401-0.17-0.641-0.25-0.24-0.087-0.473-0.18-0.7-0.28-0.22-0.107-0.416-0.236-0.589-0.389-0.167-0.153-0.304-0.337-0.411-0.55-0.1-0.213-0.15-0.47-0.15-0.77 0-0.627 0.217-1.117 0.65-1.47 0.433-0.36 1.024-0.541 1.77-0.541zm5.52 2.791c-0.44 0-0.762 0.15-0.969 0.45-0.2 0.3-0.3 0.707-0.3 1.22 0 0.533 0.126 0.953 0.38 1.259 0.253 0.3 0.603 0.45 1.05 0.45 0.193 0 0.356-7e-3 0.489-0.02 0.14-0.02 0.254-0.039 0.341-0.059v-3c-0.107-0.073-0.25-0.14-0.43-0.2-0.173-0.067-0.361-0.1-0.561-0.1z" fill="#2e3440"/>
</svg>
