<svg version="1.1" viewBox="0 0 16 16" xmlns="http://www.w3.org/2000/svg">
 <path d="m8 0c-2.424-8e-3 -4.2924 1.4803-5.1504 3.3633-0.577 1.316-0.85161 1.7505-0.84961 4.3125v2.3242l-2 3h16l-2-3v-2.3242c0-2.561-0.42561-3.3666-0.84961-4.2266-0.977-1.925-2.7734-3.4572-5.1504-3.4492zm-0.0019531 2.3691c1.0686 0 1.9238 0.87727 1.9238 1.9512v0.93359c0.53233 0 0.96094 0.42993 0.96094 0.96094v2.8848c0 0.53233-0.42993 0.96094-0.96094 0.96094h-3.8438c-0.53233 0-0.96094-0.42993-0.96094-0.96094v-2.8848c0-0.53233 0.42993-0.96094 0.96094-0.96094v-0.93359c0-1.0739 0.85658-1.9512 1.9199-1.9512zm0 0.96484c-0.53233 0-0.96094 0.42464-0.96094 0.96094v0.95898h1.9238v-0.95898c0-0.53761-0.4266-0.96094-0.96289-0.96094z" fill="#88c0d0"/>
 <path d="m5.1738 14a3 3 0 0 0 2.8262 2 3 3 0 0 0 2.8242-2z" fill="#88c0d0"/>
</svg>
