<svg viewBox="0 0 16 16" xmlns="http://www.w3.org/2000/svg">
 <path d="m1.6 0c-0.886 0-1.6 0.714-1.6 1.6v12.8c0 0.886 0.714 1.6 1.6 1.6h12.8c0.886 0 1.6-0.714 1.6-1.6v-12.8c0-0.886-0.714-1.6-1.6-1.6h-12.8zm1.653 4.67h1.269v4.209c0 0.313 0.033 0.584 0.1 0.811 0.073 0.22 0.173 0.399 0.3 0.539 0.133 0.14 0.288 0.244 0.461 0.311 0.18 0.067 0.38 0.1 0.6 0.1s0.42-0.033 0.6-0.1 0.333-0.171 0.459-0.311c0.133-0.14 0.233-0.319 0.3-0.539 0.073-0.227 0.111-0.498 0.111-0.811v-4.209h1.269v4.33c0 0.4-0.055 0.767-0.169 1.1-0.107 0.333-0.273 0.624-0.5 0.87-0.22 0.247-0.503 0.44-0.85 0.58-0.347 0.133-0.758 0.2-1.231 0.2s-0.879-0.067-1.219-0.2c-0.34-0.14-0.623-0.333-0.85-0.58-0.22-0.247-0.384-0.537-0.491-0.87s-0.159-0.7-0.159-1.1v-4.33zm9.06 1.589c0.08 0 0.173 7e-3 0.28 0.02 0.107 7e-3 0.214 0.021 0.32 0.041 0.107 0.013 0.209 0.033 0.309 0.059 0.1 0.02 0.181 0.041 0.241 0.061l-0.211 1.019c-0.1-0.033-0.239-0.067-0.419-0.1-0.173-0.04-0.378-0.059-0.611-0.059-0.133 0-0.276 0.014-0.43 0.041-0.147 0.027-0.249 0.049-0.309 0.069v4.191h-1.211v-4.98c0.233-0.087 0.524-0.167 0.87-0.241 0.353-0.08 0.744-0.12 1.17-0.12z" fill="#2e3440"/>
</svg>
