<svg viewBox="0 0 16 16" xmlns="http://www.w3.org/2000/svg">
 <path d="m1.6 0c-0.886 0-1.6 0.714-1.6 1.6v12.8c0 0.886 0.714 1.6 1.6 1.6h12.8c0.886 0 1.6-0.714 1.6-1.6v-12.8c0-0.886-0.714-1.6-1.6-1.6h-12.8zm8.517 3.841v4.569c0.153-0.16 0.316-0.329 0.489-0.509 0.173-0.187 0.344-0.37 0.511-0.55 0.167-0.187 0.324-0.363 0.47-0.53 0.153-0.173 0.282-0.323 0.389-0.45h1.43c-0.333 0.373-0.686 0.759-1.059 1.159-0.367 0.4-0.736 0.79-1.109 1.17 0.2 0.167 0.41 0.369 0.63 0.609 0.22 0.233 0.432 0.483 0.639 0.75s0.401 0.533 0.581 0.8 0.33 0.514 0.45 0.741h-1.4c-0.12-0.207-0.26-0.423-0.42-0.65-0.153-0.227-0.32-0.446-0.5-0.659s-0.363-0.413-0.55-0.6c-0.187-0.193-0.37-0.357-0.55-0.491v2.4h-1.211v-7.559l1.211-0.2zm-7.631 0.83h5.53v1.089h-2.13v5.841h-1.27v-5.841h-2.13v-1.089z" fill="#2e3440"/>
</svg>
