<svg viewBox="0 0 16 16" xmlns="http://www.w3.org/2000/svg">
 <path d="m1.6 0c-0.886 0-1.6 0.714-1.6 1.6v12.8c0 0.886 0.714 1.6 1.6 1.6h12.8c0.886 0 1.6-0.714 1.6-1.6v-12.8c0-0.886-0.714-1.6-1.6-1.6h-12.8zm4.911 4.509c0.32 0 0.603 0.024 0.85 0.07 0.253 0.04 0.47 0.087 0.65 0.141 0.18 0.053 0.326 0.11 0.439 0.17 0.12 0.06 0.203 0.103 0.25 0.13l-0.38 1.03c-0.2-0.12-0.45-0.22-0.75-0.3-0.293-0.087-0.603-0.13-0.93-0.13-0.713 0-1.261 0.224-1.641 0.67-0.373 0.44-0.559 1.052-0.559 1.839 0 0.373 0.043 0.716 0.13 1.03 0.093 0.307 0.227 0.571 0.4 0.791 0.18 0.22 0.399 0.394 0.659 0.52 0.267 0.12 0.578 0.18 0.931 0.18 0.22 0 0.409-7e-3 0.569-0.02 0.16-0.02 0.288-0.044 0.381-0.07v-2.489h1.259v3.33c-0.173 0.067-0.466 0.14-0.88 0.22-0.413 0.08-0.89 0.12-1.43 0.12-0.5 0-0.957-0.081-1.37-0.241s-0.768-0.393-1.061-0.7c-0.287-0.307-0.509-0.683-0.669-1.13s-0.241-0.961-0.241-1.541 0.086-1.092 0.259-1.539c0.18-0.447 0.425-0.825 0.731-1.131 0.307-0.313 0.666-0.549 1.08-0.709 0.413-0.16 0.854-0.241 1.32-0.241zm5.705 1.75c0.08 0 0.175 7e-3 0.281 0.02 0.107 7e-3 0.212 0.021 0.319 0.041 0.107 0.013 0.211 0.033 0.311 0.059 0.1 0.02 0.179 0.041 0.239 0.061l-0.209 1.019c-0.1-0.033-0.24-0.067-0.42-0.1-0.173-0.04-0.376-0.059-0.609-0.059-0.133 0-0.276 0.014-0.43 0.041-0.147 0.027-0.251 0.049-0.311 0.069v4.191h-1.209v-4.98c0.233-0.087 0.524-0.167 0.87-0.241 0.353-0.08 0.742-0.12 1.169-0.12z" fill="#2e3440"/>
</svg>
