<svg viewBox="0 0 16 16" xmlns="http://www.w3.org/2000/svg">
 <g transform="matrix(.99996 0 0 1 -.141 -1037.1)" fill="#2e3440">
  <path d="m6.533 1045.3h1.056v-2.998l-1.084 0.224v-0.814l1.078-0.224h1.137v3.813h1.056v0.826h-3.244v-0.826z"/>
 </g>
 <path d="m1 1c-0.554 0-1 0.446-1 1v9c0 0.554 0.446 1 1 1h6v2l-2.998 2h8l-3-2v-2h6c0.554 0 1-0.446 1-1v-9c0-0.554-0.446-1-1-1zm0.5 1h13c0.277 0 0.5 0.223 0.5 0.5v8c0 0.277-0.223 0.5-0.5 0.5h-13c-0.277 0-0.5-0.223-0.5-0.5v-8c0-0.277 0.223-0.5 0.5-0.5z" fill="#2e3440"/>
</svg>
