<svg viewBox="0 0 16 16" xmlns="http://www.w3.org/2000/svg">
 <path d="m1.6 0c-0.886 0-1.6 0.714-1.6 1.6v12.8c0 0.886 0.714 1.6 1.6 1.6h12.8c0.886 0 1.6-0.714 1.6-1.6v-12.8c0-0.886-0.714-1.6-1.6-1.6h-12.8zm1.578 4.4c0.42 0 0.81 0.033 1.17 0.1 0.36 0.06 0.67 0.163 0.93 0.309 0.267 0.147 0.474 0.341 0.62 0.581 0.147 0.24 0.22 0.536 0.22 0.889 0 0.327-0.081 0.607-0.241 0.841-0.153 0.233-0.37 0.419-0.65 0.559 0.42 0.14 0.73 0.347 0.93 0.62s0.3 0.621 0.3 1.041c0 0.713-0.26 1.249-0.78 1.609-0.52 0.353-1.317 0.53-2.391 0.53-0.367 0-0.736-0.012-1.109-0.039-0.373-0.02-0.7-0.067-0.98-0.141v-6.73c0.147-0.027 0.304-0.05 0.47-0.07 0.167-0.027 0.336-0.046 0.509-0.059s0.343-0.025 0.509-0.031c0.173-7e-3 0.337-9e-3 0.491-9e-3zm0.159 1.03c-0.193 0-0.365 4e-3 -0.519 0.011-0.147 7e-3 -0.275 0.016-0.381 0.03v1.82h0.891c0.48 0 0.856-0.067 1.13-0.2 0.273-0.14 0.411-0.387 0.411-0.741 0-0.333-0.145-0.569-0.431-0.709-0.28-0.14-0.647-0.211-1.1-0.211zm6.663 0.63c0.393 0 0.767 0.031 1.12 0.091s0.653 0.124 0.9 0.191v4.53c0 0.833-0.212 1.443-0.639 1.83-0.42 0.387-1.067 0.58-1.941 0.58-0.32 0-0.634-0.026-0.941-0.08-0.3-0.053-0.572-0.123-0.819-0.209l0.219-1.031c0.207 0.087 0.44 0.158 0.7 0.211 0.267 0.053 0.554 0.08 0.861 0.08 0.487 0 0.832-0.1 1.039-0.3s0.311-0.497 0.311-0.891v-0.2c-0.12 0.06-0.28 0.121-0.48 0.181-0.193 0.06-0.417 0.089-0.67 0.089-0.333 0-0.64-0.053-0.92-0.159-0.273-0.107-0.509-0.264-0.709-0.47-0.193-0.207-0.348-0.464-0.461-0.77-0.107-0.313-0.159-0.673-0.159-1.08 0-0.38 0.057-0.73 0.17-1.05 0.12-0.32 0.289-0.594 0.509-0.82 0.227-0.227 0.5-0.403 0.82-0.53s0.682-0.191 1.089-0.191zm0.011 1.01c-0.44 0-0.778 0.146-1.01 0.439-0.233 0.287-0.35 0.667-0.35 1.141 0 0.513 0.111 0.89 0.331 1.13 0.227 0.233 0.515 0.35 0.869 0.35 0.193 0 0.374-0.026 0.541-0.08 0.173-0.053 0.314-0.117 0.42-0.191v-2.709c-0.087-0.02-0.194-0.037-0.32-0.05-0.127-0.02-0.286-0.03-0.48-0.03zm-7.573 1.209v2.111c0.14 0.013 0.29 0.023 0.45 0.03s0.307 9e-3 0.441 9e-3c0.26 0 0.5-0.017 0.72-0.05 0.227-0.033 0.42-0.09 0.58-0.17 0.167-0.087 0.297-0.199 0.391-0.339 0.1-0.14 0.15-0.321 0.15-0.541 0-0.393-0.145-0.667-0.431-0.82-0.287-0.153-0.682-0.23-1.189-0.23h-1.111zm11.903 1.655h0.425v3.466h-0.606v-2.655c-0.09 0.07-0.202 0.138-0.339 0.205s-0.269 0.122-0.395 0.166l-0.184-0.461c0.193-0.077 0.386-0.175 0.58-0.295 0.197-0.12 0.37-0.262 0.52-0.425z" fill="#2e3440"/>
</svg>
