<svg viewBox="0 0 16 16" xmlns="http://www.w3.org/2000/svg">
 <path d="m1.6 0c-0.886 0-1.6 0.714-1.6 1.6v12.8c0 0.886 0.714 1.6 1.6 1.6h12.8c0.886 0 1.6-0.714 1.6-1.6v-12.8c0-0.886-0.714-1.6-1.6-1.6h-12.8zm3.155 4.6c0.58 0 1.111 0.069 1.591 0.209 0.48 0.133 0.89 0.347 1.23 0.641 0.347 0.287 0.613 0.653 0.8 1.1 0.187 0.44 0.28 0.966 0.28 1.58 0 0.6-0.093 1.124-0.28 1.57-0.187 0.44-0.453 0.809-0.8 1.109-0.34 0.293-0.752 0.514-1.239 0.661-0.48 0.14-1.013 0.209-1.6 0.209-0.28 0-0.597-0.012-0.95-0.039-0.353-0.02-0.691-0.067-1.01-0.141v-6.73c0.32-0.073 0.66-0.121 1.02-0.141s0.679-0.03 0.959-0.03zm0.081 1.091c-0.373 0-0.64 0.01-0.8 0.03v4.839c0.073 7e-3 0.169 0.014 0.289 0.02h0.491c0.847 0 1.476-0.212 1.889-0.639 0.42-0.433 0.631-1.038 0.631-1.811 0-0.787-0.204-1.389-0.611-1.809s-1.036-0.63-1.889-0.63zm4.834 0.68h3.97v0.85c-0.133 0.14-0.31 0.336-0.53 0.589-0.213 0.253-0.444 0.537-0.691 0.85-0.247 0.307-0.497 0.63-0.75 0.97-0.247 0.333-0.469 0.654-0.669 0.961h2.7v1.01h-4.161v-0.75c0.147-0.267 0.33-0.557 0.55-0.87s0.446-0.626 0.68-0.939c0.233-0.32 0.464-0.624 0.691-0.911 0.233-0.287 0.44-0.537 0.62-0.75h-2.411v-1.01z" fill="#2e3440"/>
</svg>
