<svg viewBox="0 0 16 16" xmlns="http://www.w3.org/2000/svg">
 <path d="m1.6 0c-0.886 0-1.6 0.714-1.6 1.6v12.8c0 0.886 0.714 1.6 1.6 1.6h12.8c0.886 0 1.6-0.714 1.6-1.6v-12.8c0-0.886-0.714-1.6-1.6-1.6h-12.8zm8.409 3.841v2.589c0.133-0.047 0.286-0.087 0.459-0.12 0.18-0.033 0.358-0.05 0.531-0.05 0.42 0 0.766 0.061 1.039 0.181 0.28 0.113 0.504 0.276 0.67 0.489 0.167 0.207 0.283 0.457 0.35 0.75 0.073 0.293 0.109 0.62 0.109 0.98v2.941h-1.209v-2.75c0-0.28-0.019-0.516-0.059-0.709-0.033-0.2-0.095-0.361-0.181-0.481-0.08-0.127-0.19-0.215-0.33-0.269-0.14-0.06-0.314-0.091-0.52-0.091-0.16 0-0.322 0.017-0.489 0.05s-0.29 0.064-0.37 0.091v4.159h-1.209v-7.559l1.209-0.2zm-7.389 0.83h4.959v0.93c-0.22 0.24-0.487 0.554-0.8 0.941-0.313 0.38-0.635 0.797-0.969 1.25-0.333 0.447-0.664 0.909-0.991 1.389-0.32 0.473-0.603 0.923-0.85 1.35h3.72v1.07h-5.241v-0.791c0.133-0.247 0.288-0.513 0.461-0.8 0.18-0.293 0.369-0.593 0.569-0.9s0.407-0.616 0.62-0.93c0.22-0.313 0.437-0.613 0.65-0.9 0.213-0.293 0.42-0.57 0.62-0.83 0.207-0.267 0.4-0.503 0.58-0.709h-3.33v-1.07z" fill="#2e3440"/>
</svg>
