<svg viewBox="0 0 16 16" xmlns="http://www.w3.org/2000/svg">
 <path d="m1.6 0c-0.886 0-1.6 0.714-1.6 1.6v12.8c0 0.886 0.714 1.6 1.6 1.6h12.8c0.886 0 1.6-0.714 1.6-1.6v-12.8c0-0.886-0.714-1.6-1.6-1.6h-12.8zm9.82 4.091c0.2 0 0.374 0.067 0.52 0.2 0.147 0.133 0.22 0.317 0.22 0.55 0 0.227-0.074 0.406-0.22 0.539-0.147 0.133-0.32 0.2-0.52 0.2-0.207 0-0.383-0.067-0.53-0.2s-0.22-0.312-0.22-0.539c0-0.233 0.074-0.417 0.22-0.55 0.147-0.133 0.323-0.2 0.53-0.2zm-8.145 0.58h1.391c0.16 0.467 0.322 0.943 0.489 1.43s0.333 0.967 0.5 1.441c0.167 0.467 0.333 0.919 0.5 1.359s0.331 0.843 0.491 1.209c0.153-0.367 0.313-0.767 0.48-1.2 0.167-0.44 0.333-0.895 0.5-1.369 0.173-0.473 0.343-0.954 0.509-1.441 0.167-0.487 0.328-0.963 0.481-1.43h1.35c-0.407 1.18-0.84 2.359-1.3 3.539s-0.941 2.311-1.441 3.391h-1.209c-0.5-1.08-0.983-2.211-1.45-3.391-0.46-1.18-0.891-2.359-1.291-3.539zm7.545 1.7h1.211v5.23h-1.211v-5.23z" fill="#2e3440"/>
</svg>
