<svg viewBox="0 0 16 16" xmlns="http://www.w3.org/2000/svg">
 <path d="m1.6 0c-0.886 0-1.6 0.714-1.6 1.6v12.8c0 0.886 0.714 1.6 1.6 1.6h12.8c0.886 0 1.6-0.714 1.6-1.6v-12.8c0-0.886-0.714-1.6-1.6-1.6h-12.8zm-0.252 4.47h5.53v1.089h-2.13v5.841h-1.27v-5.841h-2.13v-1.089zm7.77 1.57c0.4 0 0.736 0.05 1.01 0.15 0.273 0.1 0.49 0.239 0.65 0.419 0.167 0.18 0.283 0.401 0.35 0.661 0.073 0.253 0.111 0.532 0.111 0.839v3.17c-0.187 0.04-0.47 0.087-0.85 0.141-0.373 0.06-0.797 0.089-1.27 0.089-0.313 0-0.601-0.029-0.861-0.089s-0.482-0.157-0.669-0.291c-0.18-0.133-0.325-0.307-0.431-0.52-0.1-0.213-0.15-0.476-0.15-0.789 0-0.3 0.057-0.554 0.17-0.761 0.12-0.207 0.28-0.373 0.48-0.5 0.2-0.133 0.431-0.226 0.691-0.28 0.267-0.06 0.543-0.089 0.83-0.089 0.133 0 0.274 0.01 0.42 0.03 0.147 0.013 0.304 0.04 0.47 0.08v-0.2c0-0.14-0.017-0.273-0.05-0.4s-0.093-0.236-0.18-0.33c-0.08-0.1-0.191-0.176-0.331-0.23-0.133-0.053-0.303-0.081-0.509-0.081-0.28 0-0.537 0.021-0.77 0.061s-0.424 0.086-0.57 0.139l-0.15-0.98c0.153-0.053 0.377-0.106 0.67-0.159s0.607-0.08 0.941-0.08zm0.239 3.02c-0.133 0-0.269 0.011-0.409 0.031-0.133 0.02-0.257 0.056-0.37 0.109-0.107 0.053-0.193 0.13-0.259 0.23-0.067 0.093-0.1 0.214-0.1 0.361 0 0.287 0.09 0.487 0.27 0.6 0.18 0.107 0.423 0.159 0.73 0.159 0.373 0 0.657-0.019 0.85-0.059v-1.341c-0.067-0.02-0.164-0.039-0.291-0.059s-0.267-0.031-0.42-0.031zm3.217 0.875h1.77v0.511h-1.255c-3e-3 0.057-9e-3 0.122-0.016 0.195-3e-3 0.07-7e-3 0.141-0.014 0.214-3e-3 0.073-9e-3 0.144-0.016 0.211s-0.014 0.122-0.02 0.169c0.493 0.027 0.857 0.141 1.091 0.341 0.237 0.197 0.355 0.466 0.355 0.809 0 0.157-0.026 0.303-0.08 0.436-0.053 0.133-0.135 0.249-0.245 0.345-0.11 0.097-0.249 0.173-0.416 0.23-0.167 0.053-0.361 0.08-0.584 0.08-0.09 0-0.182-7e-3 -0.275-0.02s-0.184-0.03-0.27-0.05c-0.083-0.017-0.158-0.035-0.225-0.055s-0.117-0.038-0.15-0.055l0.116-0.511c0.07 0.033 0.17 0.071 0.3 0.111 0.133 0.037 0.294 0.055 0.484 0.055 0.13 0 0.243-0.014 0.336-0.041 0.093-0.03 0.168-0.069 0.225-0.119 0.06-0.05 0.103-0.107 0.13-0.17 0.027-0.067 0.039-0.138 0.039-0.211 0-0.11-0.021-0.207-0.064-0.294s-0.12-0.16-0.23-0.22c-0.107-0.06-0.253-0.106-0.436-0.136-0.18-0.03-0.408-0.044-0.684-0.044 0.037-0.32 0.064-0.624 0.084-0.911 0.02-0.29 0.037-0.58 0.05-0.87z" fill="#2e3440"/>
</svg>
