<svg viewBox="0 0 16 16" xmlns="http://www.w3.org/2000/svg">
 <path d="m1.6 0c-0.886 0-1.6 0.714-1.6 1.6v12.8c0 0.886 0.714 1.6 1.6 1.6h12.8c0.886 0 1.6-0.714 1.6-1.6v-12.8c0-0.886-0.714-1.6-1.6-1.6h-12.8zm0.203 4.47h1.261v2.77h3.01v-2.77h1.261v6.93h-1.261v-3.07h-3.01v3.07h-1.261v-6.93zm9.169 1.589c0.08 0 0.173 7e-3 0.28 0.02 0.107 7e-3 0.214 0.021 0.32 0.041 0.107 0.013 0.209 0.033 0.309 0.059 0.1 0.02 0.181 0.041 0.241 0.061l-0.211 1.019c-0.1-0.033-0.24-0.067-0.42-0.1-0.173-0.04-0.376-0.059-0.609-0.059-0.133 0-0.276 0.014-0.43 0.041-0.147 0.027-0.251 0.049-0.311 0.069v4.191h-1.209v-4.98c0.233-0.087 0.524-0.167 0.87-0.241 0.353-0.08 0.744-0.12 1.17-0.12zm2.912 3.875h0.575v2.141h0.391v0.495h-0.391v0.83h-0.589v-0.83h-1.52v-0.43c0.067-0.147 0.154-0.316 0.264-0.506 0.113-0.19 0.238-0.384 0.375-0.584s0.283-0.397 0.436-0.591c0.153-0.193 0.306-0.368 0.459-0.525zm-0.014 0.745c-0.08 0.097-0.163 0.201-0.25 0.311-0.083 0.11-0.165 0.224-0.245 0.344s-0.156 0.244-0.23 0.37c-0.073 0.123-0.14 0.247-0.2 0.37h0.925v-1.395z" fill="#2e3440"/>
</svg>
