<svg viewBox="0 0 16 16" xmlns="http://www.w3.org/2000/svg">
 <g transform="translate(-.163 -1037)" fill="#2e3440">
  <path d="m4.594 1045.3h1.056v-2.998l-1.084 0.224v-0.814l1.078-0.224h1.137v3.813h1.056v0.826h-3.244v-0.826z"/>
  <path d="m9.943 1044q-0.336 0-0.516 0.183t-0.18 0.525 0.18 0.525q0.18 0.18 0.516 0.18 0.332 0 0.51-0.18 0.177-0.183 0.177-0.525 0-0.345-0.177-0.525-0.177-0.183-0.51-0.183zm-0.873-0.395q-0.423-0.127-0.637-0.391t-0.214-0.659q0-0.587 0.438-0.895t1.286-0.308q0.842 0 1.28 0.308 0.438 0.304 0.438 0.895 0 0.395-0.218 0.659-0.214 0.264-0.637 0.391 0.472 0.13 0.712 0.426 0.242 0.292 0.242 0.739 0 0.69-0.46 1.044-0.457 0.351-1.358 0.351-0.904 0-1.367-0.351-0.46-0.354-0.46-1.044 0-0.447 0.239-0.739 0.242-0.295 0.715-0.426zm0.28-0.929q0 0.276 0.152 0.426 0.155 0.149 0.441 0.149 0.28 0 0.432-0.149t0.152-0.426-0.152-0.423q-0.152-0.149-0.432-0.149-0.286 0-0.441 0.149-0.152 0.149-0.152 0.423z"/>
 </g>
 <path d="m1 1c-0.554 0-1 0.446-1 1v9c0 0.554 0.45354 1.0911 1 1h6v2l-2.998 2h8l-3.002-2v-2h6c0.554 0 1-0.446 1-1v-9c0-0.554-0.446-1-1-1zm0.5 1h13c0.277 0 0.5 0.223 0.5 0.5v8c0 0.277-0.223 0.5-0.5 0.5h-13c-0.277 0-0.5-0.223-0.5-0.5v-8c0-0.277 0.223-0.5 0.5-0.5z" fill="#2e3440"/>
</svg>
