<svg viewBox="0 0 16 16" xmlns="http://www.w3.org/2000/svg">
 <path d="m1.6 0c-0.886 0-1.6 0.714-1.6 1.6v12.8c0 0.886 0.714 1.6 1.6 1.6h12.8c0.886 0 1.6-0.714 1.6-1.6v-12.8c0-0.886-0.714-1.6-1.6-1.6h-12.8zm8.577 3.891c0.2 0 0.372 0.067 0.519 0.2s0.22 0.317 0.22 0.55c0 0.227-0.074 0.406-0.22 0.539-0.147 0.133-0.319 0.2-0.519 0.2-0.207 0-0.385-0.067-0.531-0.2-0.147-0.133-0.219-0.312-0.219-0.539 0-0.233 0.072-0.417 0.219-0.55s0.325-0.2 0.531-0.2zm-7.737 0.58h1.259v2.77h3.01v-2.77h1.261v6.93h-1.261v-3.07h-3.01v3.07h-1.259v-6.93zm7.137 1.7h1.209v5.23h-1.209v-5.23zm3.228 3.684c0.193 0 0.36 0.024 0.5 0.07 0.14 0.047 0.255 0.113 0.345 0.2 0.093 0.083 0.161 0.183 0.205 0.3 0.047 0.113 0.07 0.238 0.07 0.375 0 0.16-0.046 0.303-0.136 0.43-0.087 0.127-0.199 0.224-0.339 0.291 0.18 0.063 0.329 0.167 0.445 0.314 0.12 0.147 0.18 0.336 0.18 0.566 0 0.153-0.026 0.296-0.08 0.43-0.053 0.13-0.135 0.244-0.245 0.341-0.11 0.093-0.25 0.168-0.42 0.225-0.167 0.053-0.367 0.08-0.6 0.08-0.09 0-0.183-7e-3 -0.28-0.02-0.093-0.01-0.184-0.025-0.27-0.045-0.083-0.017-0.16-0.035-0.23-0.055-0.07-0.023-0.124-0.044-0.161-0.064l0.12-0.516c0.07 0.033 0.171 0.072 0.305 0.116 0.133 0.04 0.299 0.059 0.495 0.059 0.263 0 0.454-0.05 0.57-0.15 0.117-0.103 0.175-0.239 0.175-0.409 0-0.11-0.024-0.202-0.07-0.275-0.043-0.073-0.104-0.132-0.184-0.175-0.077-0.047-0.167-0.079-0.27-0.095-0.1-0.02-0.207-0.03-0.32-0.03h-0.205v-0.491h0.25c0.077 0 0.153-7e-3 0.23-0.02 0.08-0.017 0.152-0.043 0.216-0.08 0.063-0.04 0.115-0.091 0.155-0.155 0.04-0.063 0.059-0.145 0.059-0.245 0-0.08-0.014-0.148-0.044-0.205s-0.07-0.104-0.12-0.141c-0.047-0.037-0.102-0.063-0.166-0.08-0.063-0.017-0.13-0.025-0.2-0.025-0.15 0-0.283 0.024-0.4 0.07-0.117 0.043-0.219 0.093-0.309 0.15l-0.22-0.45c0.047-0.03 0.104-0.062 0.17-0.095 0.067-0.033 0.14-0.065 0.22-0.095 0.083-0.03 0.171-0.054 0.264-0.07 0.093-0.02 0.192-0.03 0.295-0.03z" fill="#2e3440"/>
</svg>
