<svg viewBox="0 0 16 16" xmlns="http://www.w3.org/2000/svg">
 <path d="m1.6 0c-0.886 0-1.6 0.714-1.6 1.6v12.8c0 0.886 0.714 1.6 1.6 1.6h12.8c0.886 0 1.6-0.714 1.6-1.6v-12.8c0-0.886-0.714-1.6-1.6-1.6h-12.8zm-0.348 4.67h1.261v2.859c0.22-0.22 0.449-0.453 0.689-0.7 0.24-0.253 0.478-0.506 0.711-0.759 0.24-0.26 0.466-0.51 0.68-0.75 0.213-0.24 0.406-0.457 0.58-0.65h1.509c-0.22 0.253-0.453 0.516-0.7 0.789s-0.499 0.551-0.759 0.831c-0.26 0.273-0.524 0.545-0.791 0.819-0.26 0.273-0.515 0.535-0.769 0.781 0.28 0.213 0.563 0.463 0.85 0.75 0.293 0.28 0.579 0.583 0.859 0.909 0.28 0.32 0.547 0.656 0.8 1.01 0.26 0.347 0.496 0.694 0.709 1.041h-1.489c-0.173-0.267-0.373-0.547-0.6-0.841-0.227-0.293-0.467-0.577-0.72-0.85-0.247-0.273-0.504-0.533-0.77-0.78-0.267-0.247-0.529-0.459-0.789-0.639v3.109h-1.261v-6.93zm8.555 1.589c0.36 0 0.653 0.047 0.88 0.141 0.233 0.093 0.426 0.217 0.58 0.37 0.073-0.053 0.166-0.11 0.28-0.17 0.113-0.06 0.24-0.113 0.38-0.159 0.14-0.053 0.287-0.098 0.441-0.131 0.16-0.033 0.32-0.05 0.48-0.05 0.407 0 0.74 0.061 1 0.181 0.267 0.113 0.474 0.276 0.62 0.489 0.153 0.207 0.256 0.461 0.309 0.761 0.06 0.293 0.091 0.615 0.091 0.969v2.941h-1.209v-2.75c0-0.547-0.067-0.94-0.2-1.18-0.133-0.247-0.39-0.37-0.77-0.37-0.193 0-0.377 0.033-0.55 0.1-0.173 0.06-0.304 0.12-0.391 0.18 0.053 0.167 0.091 0.343 0.111 0.53s0.03 0.387 0.03 0.6v2.891h-1.211v-2.75c0-0.547-0.069-0.94-0.209-1.18-0.133-0.247-0.386-0.37-0.759-0.37-0.133 0-0.281 0.01-0.441 0.03s-0.279 0.037-0.359 0.05v4.22h-1.211v-5.059c0.233-0.067 0.538-0.131 0.911-0.191 0.38-0.06 0.78-0.091 1.2-0.091z" fill="#2e3440"/>
</svg>
