<svg viewBox="0 0 16 16" xmlns="http://www.w3.org/2000/svg">
 <path d="m1.6 0c-0.886 0-1.6 0.714-1.6 1.6v12.8c0 0.886 0.714 1.6 1.6 1.6h12.8c0.886 0 1.6-0.714 1.6-1.6v-12.8c0-0.886-0.714-1.6-1.6-1.6h-12.8zm9.156 3.641v5.989c0 0.147 0.01 0.27 0.03 0.37 0.027 0.1 0.07 0.186 0.13 0.259 0.06 0.067 0.141 0.121 0.241 0.161 0.107 0.033 0.24 0.06 0.4 0.08l-0.17 1c-0.36-7e-3 -0.66-0.047-0.9-0.12-0.233-0.073-0.419-0.176-0.559-0.309-0.14-0.14-0.24-0.311-0.3-0.511-0.053-0.207-0.081-0.44-0.081-0.7v-6.02l1.211-0.2zm-8.533 0.83h1.03c0.267 0.28 0.554 0.613 0.861 1 0.307 0.38 0.612 0.776 0.919 1.189 0.313 0.413 0.613 0.83 0.9 1.25 0.293 0.413 0.555 0.801 0.781 1.161v-4.6h1.25v6.93h-1.07c-0.227-0.38-0.481-0.787-0.761-1.22-0.28-0.44-0.569-0.88-0.869-1.32-0.3-0.447-0.607-0.876-0.92-1.289-0.307-0.42-0.6-0.796-0.88-1.13v4.959h-1.241v-6.93zm10.866 5.384c0.37 0 0.642 0.089 0.816 0.266 0.177 0.173 0.266 0.411 0.266 0.714 0 0.12-0.025 0.24-0.075 0.356-0.05 0.113-0.115 0.224-0.195 0.334-0.077 0.107-0.166 0.212-0.266 0.316-0.1 0.1-0.2 0.197-0.3 0.294-0.053 0.05-0.113 0.111-0.18 0.181s-0.131 0.139-0.191 0.209-0.111 0.138-0.155 0.205c-0.043 0.063-0.067 0.118-0.07 0.161h1.541v0.509h-2.205c-3e-3 -0.027-5e-3 -0.059-5e-3 -0.095v-0.089c0-0.16 0.025-0.307 0.075-0.441 0.053-0.137 0.121-0.263 0.205-0.38 0.083-0.117 0.176-0.226 0.28-0.33 0.103-0.103 0.206-0.206 0.309-0.306 0.08-0.077 0.158-0.152 0.231-0.225s0.136-0.144 0.189-0.214c0.057-0.073 0.103-0.147 0.136-0.22 0.033-0.077 0.05-0.154 0.05-0.234 0-0.173-0.05-0.297-0.15-0.37s-0.222-0.111-0.366-0.111c-0.093 0-0.179 0.014-0.259 0.041s-0.152 0.059-0.216 0.095c-0.06 0.037-0.113 0.074-0.159 0.114-0.047 0.037-0.083 0.067-0.106 0.091l-0.3-0.425c0.14-0.133 0.304-0.24 0.491-0.32 0.19-0.083 0.393-0.125 0.609-0.125z" fill="#2e3440"/>
</svg>
