<svg viewBox="0 0 16 16" xmlns="http://www.w3.org/2000/svg">
 <path d="m1.6 0c-0.886 0-1.6 0.714-1.6 1.6v12.8c0 0.886 0.714 1.6 1.6 1.6h12.8c0.886 0 1.6-0.714 1.6-1.6v-12.8c0-0.886-0.714-1.6-1.6-1.6h-12.8zm-0.705 4.47h1.259v2.77h3.01v-2.77h1.259v6.93h-1.259v-3.07h-3.01v3.07h-1.259v-6.93zm7.07 1.7h1.211v2.739c0 0.56 0.079 0.96 0.239 1.2 0.167 0.24 0.454 0.361 0.861 0.361 0.147 0 0.299-7e-3 0.459-0.02 0.167-0.013 0.29-0.03 0.37-0.05v-4.23h1.209v5.07c-0.233 0.06-0.536 0.12-0.909 0.18-0.373 0.067-0.783 0.1-1.23 0.1-0.42 0-0.774-0.06-1.061-0.18-0.28-0.12-0.506-0.287-0.68-0.5-0.167-0.213-0.286-0.468-0.359-0.761-0.073-0.3-0.111-0.626-0.111-0.98v-2.93zm6.386 3.684c0.193 0 0.36 0.024 0.5 0.07 0.14 0.047 0.254 0.113 0.344 0.2 0.093 0.083 0.163 0.183 0.206 0.3 0.047 0.113 0.069 0.238 0.069 0.375 0 0.16-0.044 0.303-0.134 0.43-0.087 0.127-0.201 0.224-0.341 0.291 0.18 0.063 0.329 0.167 0.445 0.314 0.12 0.147 0.18 0.336 0.18 0.566 0 0.153-0.026 0.296-0.08 0.43-0.053 0.13-0.135 0.244-0.245 0.341-0.11 0.093-0.249 0.168-0.419 0.225-0.167 0.053-0.367 0.08-0.6 0.08-0.09 0-0.185-7e-3 -0.281-0.02-0.093-0.01-0.182-0.025-0.269-0.045-0.083-0.017-0.161-0.035-0.231-0.055-0.07-0.023-0.123-0.044-0.159-0.064l0.12-0.516c0.07 0.033 0.171 0.072 0.305 0.116 0.133 0.04 0.299 0.059 0.495 0.059 0.263 0 0.454-0.05 0.57-0.15 0.117-0.103 0.175-0.239 0.175-0.409 0-0.11-0.024-0.202-0.07-0.275-0.043-0.073-0.106-0.132-0.186-0.175-0.077-0.047-0.165-0.079-0.269-0.095-0.1-0.02-0.207-0.03-0.32-0.03h-0.205v-0.491h0.25c0.077 0 0.153-7e-3 0.23-0.02 0.08-0.017 0.151-0.043 0.214-0.08 0.063-0.04 0.116-0.091 0.156-0.155 0.04-0.063 0.059-0.145 0.059-0.245 0-0.08-0.015-0.148-0.045-0.205s-0.07-0.104-0.12-0.141c-0.047-0.037-0.101-0.063-0.164-0.08s-0.13-0.025-0.2-0.025c-0.15 0-0.283 0.024-0.4 0.07-0.117 0.043-0.221 0.093-0.311 0.15l-0.219-0.45c0.047-0.03 0.102-0.062 0.169-0.095s0.14-0.065 0.22-0.095c0.083-0.03 0.172-0.054 0.266-0.07 0.093-0.02 0.192-0.03 0.295-0.03z" fill="#2e3440"/>
</svg>
