<svg viewBox="0 0 16 16" xmlns="http://www.w3.org/2000/svg">
 <path d="m1.6 0c-0.886 0-1.6 0.714-1.6 1.6v12.8c0 0.886 0.714 1.6 1.6 1.6h12.8c0.886 0 1.6-0.714 1.6-1.6v-12.8c0-0.886-0.714-1.6-1.6-1.6h-12.8zm3.02 4.6c1 0 1.762 0.183 2.289 0.55 0.533 0.367 0.8 0.926 0.8 1.68 0 0.94-0.462 1.578-1.389 1.911 0.127 0.153 0.27 0.339 0.43 0.559s0.324 0.46 0.491 0.72c0.167 0.253 0.326 0.516 0.48 0.789 0.153 0.267 0.289 0.531 0.409 0.791h-1.409c-0.127-0.24-0.264-0.48-0.411-0.72-0.147-0.247-0.297-0.483-0.45-0.709-0.147-0.233-0.292-0.45-0.439-0.65-0.147-0.207-0.284-0.39-0.411-0.55-0.093 7e-3 -0.172 9e-3 -0.239 9e-3h-0.8v2.62h-1.261v-6.83c0.307-0.067 0.635-0.11 0.981-0.13 0.347-0.027 0.656-0.041 0.93-0.041zm0.089 1.091c-0.267 0-0.512 0.01-0.739 0.03v2.239h0.55c0.307 0 0.576-0.017 0.809-0.05s0.426-0.093 0.58-0.18c0.16-0.087 0.281-0.203 0.361-0.35s0.12-0.333 0.12-0.559c0-0.213-0.04-0.394-0.12-0.541s-0.197-0.263-0.35-0.35c-0.147-0.087-0.323-0.146-0.53-0.18-0.207-0.04-0.435-0.059-0.681-0.059zm4.288 0.68h1.209v2.739c0 0.56 0.081 0.96 0.241 1.2 0.167 0.24 0.453 0.361 0.859 0.361 0.147 0 0.299-7e-3 0.459-0.02 0.167-0.013 0.29-0.03 0.37-0.05v-4.23h1.211v5.07c-0.233 0.06-0.538 0.12-0.911 0.18-0.373 0.067-0.783 0.1-1.23 0.1-0.42 0-0.773-0.06-1.059-0.18-0.28-0.12-0.508-0.287-0.681-0.5-0.167-0.213-0.286-0.468-0.359-0.761-0.073-0.3-0.109-0.626-0.109-0.98v-2.93z" fill="#2e3440"/>
</svg>
