<svg viewBox="0 0 16 16" xmlns="http://www.w3.org/2000/svg">
 <path d="m1.6 0c-0.886 0-1.6 0.714-1.6 1.6v12.8c0 0.886 0.714 1.6 1.6 1.6h12.8c0.886 0 1.6-0.714 1.6-1.6v-12.8c0-0.886-0.714-1.6-1.6-1.6h-12.8zm0.677 4.67h1.031c0.267 0.28 0.553 0.613 0.859 1 0.307 0.38 0.614 0.776 0.92 1.189 0.313 0.413 0.613 0.83 0.9 1.25 0.293 0.413 0.553 0.801 0.78 1.161v-4.6h1.25v6.93h-1.07c-0.227-0.38-0.479-0.787-0.759-1.22-0.28-0.44-0.57-0.88-0.87-1.32-0.3-0.447-0.607-0.876-0.92-1.289-0.307-0.42-0.6-0.796-0.88-1.13v4.959h-1.241v-6.93zm9.483 1.57c0.72 0 1.28 0.222 1.68 0.669 0.407 0.447 0.611 1.113 0.611 2 0 0.067-4e-3 0.145-0.011 0.231 0 0.08-3e-3 0.152-9e-3 0.219h-3.45c0.033 0.42 0.181 0.748 0.441 0.981 0.267 0.227 0.65 0.339 1.15 0.339 0.293 0 0.56-0.026 0.8-0.08 0.247-0.053 0.44-0.11 0.58-0.17l0.159 0.991c-0.067 0.033-0.16 0.069-0.28 0.109-0.113 0.033-0.247 0.064-0.4 0.091-0.147 0.033-0.306 0.06-0.48 0.08-0.173 0.02-0.35 0.03-0.53 0.03-0.46 0-0.86-0.067-1.2-0.2-0.34-0.14-0.621-0.33-0.841-0.57-0.22-0.247-0.384-0.533-0.491-0.859-0.107-0.333-0.159-0.697-0.159-1.091 0-0.46 0.067-0.863 0.2-1.209 0.14-0.347 0.323-0.633 0.55-0.859 0.227-0.233 0.486-0.407 0.78-0.52 0.293-0.12 0.593-0.18 0.9-0.18zm0.011 1.01c-0.187 0-0.351 0.036-0.491 0.109-0.14 0.067-0.259 0.157-0.359 0.27-0.093 0.113-0.167 0.244-0.22 0.391s-0.091 0.297-0.111 0.45h2.25c0-0.167-0.022-0.324-0.069-0.47-0.047-0.153-0.118-0.284-0.211-0.391-0.087-0.113-0.196-0.199-0.33-0.259-0.127-0.067-0.279-0.1-0.459-0.1z" fill="#2e3440"/>
</svg>
