<svg viewBox="0 0 16 16" xmlns="http://www.w3.org/2000/svg">
 <path d="m4.089 7.917c-0.889 0.856-1.422 2-1.422 3.274 0 2.661 2.382 4.809 5.334 4.809 2.951 0 5.334-2.148 5.334-4.809 0-1.266-0.537-2.416-1.422-3.274l-1.067 0.962c0.619 0.608 0.965 1.419 0.965 2.312 0 1.9-1.701 3.435-3.81 3.435-2.108 0-3.81-1.534-3.81-3.435 0-0.888 0.373-1.684 0.99-2.289l-1.093-0.985z" fill="#2e3440"/>
 <path d="m7.854 2e-3c-0.038 4e-3 -0.07 0.025-0.107 0.033-0.1 0.019-0.199 0.016-0.291 0.064-0.184 0.095-0.313 0.259-0.398 0.424-0.033 0.063-0.092 0.125-0.109 0.193l-1.451 2.209c-0.322 0.499-0.147 1.135 0.363 1.398 0.365 0.189 0.802 0.139 1.141-0.084v1.76h-4v-2.055l0.045 0.066c0.268 0.399 0.813 0.549 1.238 0.338s0.571-0.718 0.303-1.117l-1.209-1.77c-0.01-0.036-0.045-0.069-0.061-0.104l-0.031-0.053c-0.071-0.132-0.179-0.262-0.332-0.338-0.076-0.038-0.16-0.035-0.242-0.051-0.073-0.013-0.137-0.031-0.211-0.027-0.042-2e-3 -0.079-4e-3 -0.121 0-0.032 3e-3 -0.058 0.022-0.09 0.027-0.083 0.015-0.166 0.013-0.242 0.051-0.154 0.076-0.261 0.206-0.332 0.338-0.028 0.051-0.078 0.1-0.092 0.156l-1.209 1.77c-0.268 0.399-0.122 0.906 0.303 1.117s0.97 0.061 1.238-0.338l0.045-0.066v2.555c0 0.277 0.223 0.5 0.5 0.5h4.5v2.801c-0.145-0.022-0.293-9e-3 -0.428 0.074-0.34 0.212-0.456 0.718-0.242 1.117l0.969 1.768c0.012 0.056 0.05 0.106 0.072 0.156 0.057 0.132 0.143 0.261 0.266 0.338 0.061 0.037 0.127 0.038 0.193 0.053 0.025 5e-3 0.047 0.022 0.072 0.025h2e-3c0.033 3e-3 0.063 2e-3 0.096 0 0.06 4e-3 0.111-0.014 0.17-0.027 0.067-0.015 0.132-0.013 0.193-0.051 0.123-0.076 0.209-0.206 0.266-0.338l0.023-0.051c0.012-0.035 0.042-0.069 0.049-0.105l0.969-1.768c0.214-0.399 0.098-0.907-0.242-1.117-0.134-0.083-0.283-0.096-0.428-0.074v-2.801h4.5c0.277 0 0.5-0.223 0.5-0.5s-0.223-0.5-0.5-0.5h-4.5v-1.76c0.339 0.222 0.775 0.273 1.141 0.084 0.51-0.264 0.685-0.899 0.363-1.398l-1.451-2.209c-0.012-0.046-0.054-0.085-0.072-0.129l-0.037-0.064c-0.085-0.164-0.214-0.329-0.398-0.424-0.092-0.048-0.191-0.046-0.291-0.064-0.088-0.017-0.164-0.038-0.254-0.033-0.051-3e-3 -0.097-4e-3 -0.146 0zm5.525 0.889c-0.032 3e-3 -0.058 0.022-0.09 0.027-0.083 0.015-0.166 0.013-0.242 0.051-0.154 0.076-0.261 0.206-0.332 0.338-0.028 0.051-0.078 0.1-0.092 0.156l-1.209 1.77c-0.268 0.399-0.122 0.906 0.303 1.117s0.97 0.061 1.238-0.338l0.545-0.807 0.545 0.807c0.268 0.399 0.813 0.549 1.238 0.338s0.571-0.718 0.303-1.117l-1.209-1.77c-0.01-0.036-0.045-0.069-0.061-0.104l-0.031-0.053c-0.071-0.132-0.179-0.262-0.332-0.338-0.076-0.038-0.16-0.035-0.242-0.051-0.073-0.013-0.137-0.031-0.211-0.027-0.042-2e-3 -0.079-4e-3 -0.121 0zm-5.389 10.11h0.02l-0.01 0.02-0.01-0.02z" fill="#2e3440"/>
 <rect x="13" y="3" width="1" height="4" rx=".5" fill="#2e3440"/>
</svg>
