<svg viewBox="0 0 16 16" xmlns="http://www.w3.org/2000/svg">
 <path d="m1.6 0c-0.886 0-1.6 0.714-1.6 1.6v12.8c0 0.886 0.714 1.6 1.6 1.6h12.8c0.886 0 1.6-0.714 1.6-1.6v-12.8c0-0.886-0.714-1.6-1.6-1.6h-12.8zm-0.1 4.47h1.27v4.209c0 0.313 0.033 0.584 0.1 0.811 0.073 0.22 0.173 0.399 0.3 0.539 0.133 0.14 0.286 0.244 0.459 0.311 0.18 0.067 0.38 0.1 0.6 0.1s0.42-0.033 0.6-0.1 0.333-0.171 0.459-0.311c0.133-0.14 0.233-0.319 0.3-0.539 0.073-0.227 0.111-0.498 0.111-0.811v-4.209h1.27v4.33c0 0.4-0.057 0.767-0.17 1.1-0.107 0.333-0.273 0.624-0.5 0.87-0.22 0.247-0.503 0.44-0.85 0.58-0.347 0.133-0.756 0.2-1.23 0.2-0.473 0-0.88-0.067-1.22-0.2-0.34-0.14-0.623-0.333-0.85-0.58-0.22-0.247-0.384-0.537-0.491-0.87s-0.159-0.7-0.159-1.1v-4.33zm6.555 1.7h3.97v0.85c-0.133 0.14-0.31 0.336-0.53 0.589-0.213 0.253-0.444 0.537-0.691 0.85-0.247 0.307-0.497 0.63-0.75 0.97-0.247 0.333-0.47 0.654-0.67 0.961h2.7v1.01h-4.159v-0.75c0.147-0.267 0.33-0.557 0.55-0.87s0.446-0.626 0.68-0.939c0.233-0.32 0.464-0.624 0.691-0.911 0.233-0.287 0.439-0.537 0.619-0.75h-2.409v-1.01zm6.084 3.764h0.575v2.141h0.389v0.495h-0.389v0.83h-0.591v-0.83h-1.52v-0.43c0.067-0.147 0.156-0.316 0.266-0.506 0.113-0.19 0.238-0.384 0.375-0.584s0.281-0.397 0.434-0.591c0.153-0.193 0.308-0.368 0.461-0.525zm-0.016 0.745c-0.08 0.097-0.163 0.201-0.25 0.311-0.083 0.11-0.165 0.224-0.245 0.344s-0.156 0.244-0.23 0.37c-0.073 0.123-0.14 0.247-0.2 0.37h0.925v-1.395z" fill="#2e3440"/>
</svg>
