<svg viewBox="0 0 16 16" xmlns="http://www.w3.org/2000/svg">
 <path d="m1.6 0c-0.886 0-1.6 0.714-1.6 1.6v12.8c0 0.886 0.714 1.6 1.6 1.6h12.8c0.886 0 1.6-0.714 1.6-1.6v-12.8c0-0.886-0.714-1.6-1.6-1.6h-12.8zm3.489 4.309c0.32 0 0.603 0.024 0.85 0.07 0.253 0.04 0.47 0.087 0.65 0.141 0.18 0.053 0.327 0.11 0.441 0.17 0.12 0.06 0.203 0.103 0.25 0.13l-0.38 1.03c-0.2-0.12-0.45-0.22-0.75-0.3-0.293-0.087-0.605-0.13-0.931-0.13-0.713 0-1.259 0.224-1.639 0.67-0.373 0.44-0.561 1.052-0.561 1.839 0 0.373 0.045 0.716 0.131 1.03 0.093 0.307 0.227 0.571 0.4 0.791 0.18 0.22 0.399 0.394 0.659 0.52 0.267 0.12 0.576 0.18 0.93 0.18 0.22 0 0.41-7e-3 0.57-0.02 0.16-0.02 0.286-0.044 0.38-0.07v-2.489h1.261v3.33c-0.173 0.067-0.468 0.14-0.881 0.22s-0.89 0.12-1.43 0.12c-0.5 0-0.957-0.081-1.37-0.241s-0.766-0.393-1.059-0.7c-0.287-0.307-0.51-0.683-0.67-1.13s-0.239-0.961-0.239-1.541 0.086-1.092 0.259-1.539c0.18-0.447 0.423-0.825 0.73-1.131 0.307-0.313 0.666-0.549 1.08-0.709 0.413-0.16 0.854-0.241 1.32-0.241zm5.706 1.75c0.08 0 0.173 7e-3 0.28 0.02 0.107 7e-3 0.214 0.021 0.32 0.041 0.107 0.013 0.209 0.033 0.309 0.059 0.1 0.02 0.181 0.041 0.241 0.061l-0.209 1.019c-0.1-0.033-0.24-0.067-0.42-0.1-0.173-0.04-0.378-0.059-0.611-0.059-0.133 0-0.276 0.014-0.43 0.041-0.147 0.027-0.249 0.049-0.309 0.069v4.191h-1.211v-4.98c0.233-0.087 0.524-0.167 0.87-0.241 0.353-0.08 0.744-0.12 1.17-0.12zm2.539 3.795c0.37 0 0.641 0.089 0.814 0.266 0.177 0.173 0.266 0.411 0.266 0.714 0 0.12-0.025 0.24-0.075 0.356-0.05 0.113-0.115 0.224-0.195 0.334-0.077 0.107-0.166 0.212-0.266 0.316-0.1 0.1-0.2 0.197-0.3 0.294-0.053 0.05-0.113 0.111-0.18 0.181s-0.129 0.139-0.189 0.209-0.113 0.138-0.156 0.205c-0.043 0.063-0.065 0.118-0.069 0.161h1.539v0.509h-2.205c-3e-3 -0.027-5e-3 -0.059-5e-3 -0.095v-0.089c0-0.16 0.025-0.307 0.075-0.441 0.053-0.137 0.121-0.263 0.205-0.38 0.083-0.117 0.176-0.226 0.28-0.33 0.103-0.103 0.208-0.206 0.311-0.306 0.08-0.077 0.156-0.152 0.23-0.225 0.073-0.073 0.136-0.144 0.189-0.214 0.057-0.073 0.103-0.147 0.136-0.22 0.033-0.077 0.05-0.154 0.05-0.234 0-0.173-0.05-0.297-0.15-0.37s-0.222-0.111-0.366-0.111c-0.093 0-0.179 0.014-0.259 0.041s-0.152 0.059-0.216 0.095c-0.06 0.037-0.113 0.074-0.159 0.114-0.047 0.037-0.081 0.067-0.105 0.091l-0.3-0.425c0.14-0.133 0.302-0.24 0.489-0.32 0.19-0.083 0.394-0.125 0.611-0.125z" fill="#2e3440"/>
</svg>
