<svg viewBox="0 0 16 16" xmlns="http://www.w3.org/2000/svg">
 <path d="m1.6 0c-0.886 0-1.6 0.714-1.6 1.6v12.8c0 0.886 0.714 1.6 1.6 1.6h12.8c0.886 0 1.6-0.714 1.6-1.6v-12.8c0-0.886-0.714-1.6-1.6-1.6h-12.8zm2.834 4.309c0.32 0 0.603 0.024 0.85 0.07 0.253 0.04 0.47 0.087 0.65 0.141 0.18 0.053 0.327 0.11 0.441 0.17 0.12 0.06 0.203 0.103 0.25 0.13l-0.38 1.03c-0.2-0.12-0.45-0.22-0.75-0.3-0.293-0.087-0.603-0.13-0.93-0.13-0.713 0-1.261 0.224-1.641 0.67-0.373 0.44-0.559 1.052-0.559 1.839 0 0.373 0.043 0.716 0.13 1.03 0.093 0.307 0.227 0.571 0.4 0.791 0.18 0.22 0.399 0.394 0.659 0.52 0.267 0.12 0.576 0.18 0.93 0.18 0.22 0 0.41-7e-3 0.57-0.02 0.16-0.02 0.286-0.044 0.38-0.07v-2.489h1.261v3.33c-0.173 0.067-0.466 0.14-0.88 0.22-0.413 0.08-0.891 0.12-1.431 0.12-0.5 0-0.955-0.081-1.369-0.241-0.413-0.16-0.768-0.393-1.061-0.7-0.287-0.307-0.51-0.683-0.67-1.13s-0.239-0.961-0.239-1.541 0.086-1.092 0.259-1.539c0.18-0.447 0.423-0.825 0.73-1.131 0.307-0.313 0.668-0.549 1.081-0.709s0.852-0.241 1.319-0.241zm5.406 1.731c0.4 0 0.738 0.05 1.01 0.15 0.273 0.1 0.49 0.239 0.65 0.419 0.167 0.18 0.283 0.401 0.35 0.661 0.073 0.253 0.109 0.532 0.109 0.839v3.17c-0.187 0.04-0.47 0.087-0.85 0.141-0.373 0.06-0.797 0.089-1.27 0.089-0.313 0-0.599-0.029-0.859-0.089s-0.484-0.157-0.67-0.291c-0.18-0.133-0.323-0.307-0.43-0.52-0.1-0.213-0.15-0.476-0.15-0.789 0-0.3 0.057-0.554 0.17-0.761 0.12-0.207 0.28-0.373 0.48-0.5 0.2-0.133 0.429-0.226 0.689-0.28 0.267-0.06 0.545-0.089 0.831-0.089 0.133 0 0.272 0.01 0.419 0.03 0.147 0.013 0.304 0.04 0.47 0.08v-0.2c0-0.14-0.017-0.273-0.05-0.4s-0.093-0.236-0.18-0.33c-0.08-0.1-0.19-0.176-0.33-0.23-0.133-0.053-0.304-0.081-0.511-0.081-0.28 0-0.535 0.021-0.769 0.061-0.233 0.04-0.424 0.086-0.57 0.139l-0.15-0.98c0.153-0.053 0.377-0.106 0.67-0.159s0.606-0.08 0.939-0.08zm0.241 3.02c-0.133 0-0.271 0.011-0.411 0.031-0.133 0.02-0.255 0.056-0.369 0.109-0.107 0.053-0.194 0.13-0.261 0.23-0.067 0.093-0.1 0.214-0.1 0.361 0 0.287 0.09 0.487 0.27 0.6 0.18 0.107 0.423 0.159 0.73 0.159 0.373 0 0.657-0.019 0.85-0.059v-1.341c-0.067-0.02-0.162-0.039-0.289-0.059s-0.267-0.031-0.42-0.031zm4.131 0.875h0.425v3.466h-0.605v-2.655c-0.09 0.07-0.202 0.138-0.339 0.205s-0.269 0.122-0.395 0.166l-0.186-0.461c0.193-0.077 0.388-0.175 0.581-0.295 0.197-0.12 0.369-0.262 0.519-0.425z" fill="#2e3440"/>
</svg>
