<svg viewBox="0 0 16 16" xmlns="http://www.w3.org/2000/svg">
 <path d="m1.6 0c-0.886 0-1.6 0.714-1.6 1.6v12.8c0 0.886 0.714 1.6 1.6 1.6h12.8c0.886 0 1.6-0.714 1.6-1.6v-12.8c0-0.886-0.714-1.6-1.6-1.6h-12.8zm2.369 4.47h1.191c0.233 0.493 0.46 0.993 0.68 1.5s0.441 1.04 0.661 1.6c0.227 0.56 0.456 1.153 0.689 1.78 0.24 0.627 0.49 1.31 0.75 2.05h-1.359c-0.093-0.273-0.191-0.543-0.291-0.809-0.1-0.267-0.196-0.54-0.289-0.82h-2.92c-0.093 0.28-0.191 0.556-0.291 0.83l-0.28 0.8h-1.309c0.26-0.74 0.506-1.423 0.739-2.05s0.46-1.22 0.68-1.78c0.227-0.56 0.45-1.093 0.67-1.6s0.446-1.01 0.68-1.5zm0.57 1.339c-0.153 0.353-0.33 0.784-0.53 1.291-0.193 0.507-0.396 1.057-0.609 1.65h2.28c-0.213-0.593-0.42-1.146-0.62-1.659s-0.374-0.941-0.52-1.281zm6.256 0.25c0.08 0 0.173 7e-3 0.28 0.02 0.107 7e-3 0.214 0.021 0.32 0.041 0.107 0.013 0.209 0.033 0.309 0.059 0.1 0.02 0.181 0.041 0.241 0.061l-0.209 1.019c-0.1-0.033-0.24-0.067-0.42-0.1-0.173-0.04-0.378-0.059-0.611-0.059-0.133 0-0.276 0.014-0.43 0.041-0.147 0.027-0.249 0.049-0.309 0.069v4.191h-1.211v-4.98c0.233-0.087 0.524-0.167 0.87-0.241 0.353-0.08 0.744-0.12 1.17-0.12zm3.573 3.856 0.034 0.5c-0.18 3e-3 -0.348 0.023-0.505 0.059-0.157 0.033-0.297 0.086-0.42 0.159s-0.229 0.169-0.319 0.286c-0.087 0.117-0.153 0.26-0.2 0.43 0.163-0.077 0.341-0.116 0.534-0.116 0.207 0 0.382 0.031 0.525 0.091 0.147 0.057 0.265 0.134 0.355 0.234s0.155 0.217 0.195 0.35c0.043 0.13 0.066 0.268 0.066 0.411 0 0.13-0.024 0.263-0.07 0.4-0.043 0.137-0.114 0.262-0.211 0.375-0.093 0.11-0.211 0.202-0.355 0.275-0.143 0.07-0.313 0.105-0.509 0.105-0.397 0-0.701-0.131-0.911-0.391-0.207-0.263-0.309-0.624-0.309-1.084 0-0.333 0.049-0.628 0.145-0.884 0.1-0.26 0.24-0.48 0.42-0.656 0.183-0.177 0.403-0.31 0.659-0.4 0.26-0.093 0.552-0.14 0.875-0.144zm-0.95 1.8c-0.097 0-0.19 8e-3 -0.28 0.025s-0.172 0.042-0.245 0.075c-3e-3 0.027-6e-3 0.056-9e-3 0.089v0.091c0 0.133 8e-3 0.26 0.025 0.38 0.02 0.117 0.05 0.219 0.094 0.309 0.047 0.087 0.109 0.158 0.186 0.211 0.08 0.05 0.179 0.075 0.295 0.075 0.097 0 0.177-0.021 0.244-0.061 0.07-0.04 0.127-0.091 0.17-0.155 0.043-0.063 0.075-0.131 0.095-0.205 0.02-0.077 0.03-0.15 0.03-0.22 0-0.2-0.049-0.351-0.145-0.455-0.097-0.107-0.249-0.159-0.459-0.159z" fill="#2e3440"/>
</svg>
