<svg viewBox="0 0 16 16" xmlns="http://www.w3.org/2000/svg">
 <path d="m1.6 0c-0.886 0-1.6 0.714-1.6 1.6v12.8c0 0.886 0.714 1.6 1.6 1.6h12.8c0.886 0 1.6-0.714 1.6-1.6v-12.8c0-0.886-0.714-1.6-1.6-1.6h-12.8zm3.312 4.67h1.189c0.233 0.493 0.46 0.993 0.68 1.5s0.441 1.04 0.661 1.6c0.227 0.56 0.456 1.153 0.689 1.78 0.24 0.627 0.49 1.31 0.75 2.05h-1.359c-0.093-0.273-0.191-0.543-0.291-0.809-0.1-0.267-0.196-0.54-0.289-0.82h-2.92c-0.093 0.28-0.191 0.556-0.291 0.83l-0.28 0.8h-1.309c0.26-0.74 0.506-1.423 0.739-2.05s0.461-1.22 0.681-1.78c0.227-0.56 0.449-1.093 0.669-1.6s0.448-1.01 0.681-1.5zm0.569 1.339c-0.153 0.353-0.33 0.784-0.53 1.291-0.193 0.507-0.396 1.057-0.609 1.65h2.28c-0.213-0.593-0.42-1.146-0.62-1.659s-0.374-0.941-0.52-1.281zm4.04 0.361h3.969v0.85c-0.133 0.14-0.31 0.336-0.53 0.589-0.213 0.253-0.442 0.537-0.689 0.85-0.247 0.307-0.497 0.63-0.75 0.97-0.247 0.333-0.47 0.654-0.67 0.961h2.7v1.01h-4.161v-0.75c0.147-0.267 0.33-0.557 0.55-0.87s0.448-0.626 0.681-0.939c0.233-0.32 0.462-0.624 0.689-0.911 0.233-0.287 0.44-0.537 0.62-0.75h-2.409v-1.01z" fill="#2e3440"/>
</svg>
