<svg viewBox="0 0 16 16" xmlns="http://www.w3.org/2000/svg">
 <path d="m1.6 0c-0.886 0-1.6 0.714-1.6 1.6v12.8c0 0.886 0.714 1.6 1.6 1.6h12.8c0.886 0 1.6-0.714 1.6-1.6v-12.8c0-0.886-0.714-1.6-1.6-1.6h-12.8zm-0.05 4.47h4.45v1.07h-3.191v1.709h2.841v1.05h-2.841v2.03h3.43v1.07h-4.689v-6.93zm7.948 1.589c0.427 0 0.784 0.061 1.07 0.181 0.287 0.113 0.513 0.276 0.68 0.489 0.173 0.207 0.294 0.461 0.361 0.761 0.073 0.293 0.109 0.615 0.109 0.969v2.941h-1.209v-2.75c0-0.28-0.021-0.516-0.061-0.709-0.033-0.2-0.093-0.361-0.18-0.481-0.08-0.127-0.192-0.215-0.339-0.269-0.14-0.06-0.314-0.091-0.52-0.091-0.153 0-0.313 0.01-0.48 0.03s-0.29 0.037-0.37 0.05v4.22h-1.211v-5.059c0.233-0.067 0.538-0.131 0.911-0.191s0.786-0.091 1.239-0.091zm3.575 3.875h1.77v0.511h-1.255c-3e-3 0.057-9e-3 0.122-0.016 0.195-3e-3 0.07-9e-3 0.141-0.016 0.214-3e-3 0.073-7e-3 0.144-0.014 0.211s-0.014 0.122-0.02 0.169c0.493 0.027 0.857 0.141 1.091 0.341 0.237 0.197 0.355 0.466 0.355 0.809 0 0.157-0.026 0.303-0.08 0.436-0.053 0.133-0.135 0.249-0.245 0.345-0.11 0.097-0.249 0.173-0.416 0.23-0.167 0.053-0.361 0.08-0.584 0.08-0.09 0-0.182-7e-3 -0.275-0.02s-0.184-0.03-0.27-0.05c-0.083-0.017-0.158-0.035-0.225-0.055s-0.117-0.038-0.15-0.055l0.116-0.511c0.07 0.033 0.17 0.071 0.3 0.111 0.133 0.037 0.294 0.055 0.484 0.055 0.13 0 0.241-0.014 0.334-0.041 0.093-0.03 0.168-0.069 0.225-0.119 0.06-0.05 0.105-0.107 0.131-0.17 0.027-0.067 0.039-0.138 0.039-0.211 0-0.11-0.021-0.207-0.064-0.294s-0.121-0.16-0.231-0.22c-0.107-0.06-0.251-0.106-0.434-0.136-0.18-0.03-0.408-0.044-0.684-0.044 0.037-0.32 0.064-0.624 0.084-0.911 0.02-0.29 0.037-0.58 0.05-0.87z" fill="#2e3440"/>
</svg>
