<svg viewBox="0 0 16 16" xmlns="http://www.w3.org/2000/svg">
 <path d="m1.6 0c-0.886 0-1.6 0.714-1.6 1.6v12.8c0 0.886 0.714 1.6 1.6 1.6h12.8c0.886 0 1.6-0.714 1.6-1.6v-12.8c0-0.886-0.714-1.6-1.6-1.6h-12.8zm1.414 4.47h1.261v6.93h-1.261v-6.93zm5.02 1.589c0.427 0 0.784 0.061 1.07 0.181 0.287 0.113 0.513 0.276 0.68 0.489 0.173 0.207 0.293 0.461 0.359 0.761 0.073 0.293 0.111 0.615 0.111 0.969v2.941h-1.211v-2.75c0-0.28-0.019-0.516-0.059-0.709-0.033-0.2-0.093-0.361-0.18-0.481-0.08-0.127-0.194-0.215-0.341-0.269-0.14-0.06-0.314-0.091-0.52-0.091-0.153 0-0.313 0.01-0.48 0.03s-0.29 0.037-0.37 0.05v4.22h-1.209v-5.059c0.233-0.067 0.536-0.131 0.909-0.191s0.787-0.091 1.241-0.091zm3.575 3.875h1.769v0.511h-1.255c-3e-3 0.057-7e-3 0.122-0.014 0.195-3e-3 0.07-9e-3 0.141-0.016 0.214-3e-3 0.073-9e-3 0.144-0.016 0.211s-0.012 0.122-0.019 0.169c0.493 0.027 0.856 0.141 1.089 0.341 0.237 0.197 0.355 0.466 0.355 0.809 0 0.157-0.026 0.303-0.08 0.436-0.053 0.133-0.135 0.249-0.245 0.345-0.11 0.097-0.247 0.173-0.414 0.23-0.167 0.053-0.363 0.08-0.586 0.08-0.09 0-0.182-7e-3 -0.275-0.02s-0.182-0.03-0.269-0.05c-0.083-0.017-0.158-0.035-0.225-0.055s-0.117-0.038-0.15-0.055l0.114-0.511c0.07 0.033 0.17 0.071 0.3 0.111 0.133 0.037 0.296 0.055 0.486 0.055 0.13 0 0.241-0.014 0.334-0.041 0.093-0.03 0.168-0.069 0.225-0.119 0.06-0.05 0.103-0.107 0.13-0.17 0.027-0.067 0.041-0.138 0.041-0.211 0-0.11-0.022-0.207-0.066-0.294-0.043-0.087-0.12-0.16-0.23-0.22-0.107-0.06-0.251-0.106-0.434-0.136-0.18-0.03-0.409-0.044-0.686-0.044 0.037-0.32 0.066-0.624 0.086-0.911 0.02-0.29 0.037-0.58 0.05-0.87z" fill="#2e3440"/>
</svg>
