<svg viewBox="0 0 16 16" xmlns="http://www.w3.org/2000/svg">
 <path d="m1.6 0c-0.886 0-1.6 0.714-1.6 1.6v12.8c0 0.886 0.714 1.6 1.6 1.6h12.8c0.886 0 1.6-0.714 1.6-1.6v-12.8c0-0.886-0.714-1.6-1.6-1.6h-12.8zm-0.372 4.47h1.259v2.859c0.22-0.22 0.451-0.453 0.691-0.7 0.24-0.253 0.476-0.506 0.709-0.759 0.24-0.26 0.466-0.51 0.68-0.75 0.213-0.24 0.406-0.457 0.58-0.65h1.511c-0.22 0.253-0.453 0.516-0.7 0.789s-0.501 0.551-0.761 0.831c-0.26 0.273-0.522 0.545-0.789 0.819-0.26 0.273-0.517 0.535-0.77 0.781 0.28 0.213 0.563 0.463 0.85 0.75 0.293 0.28 0.579 0.583 0.859 0.909 0.28 0.32 0.547 0.656 0.8 1.01 0.26 0.347 0.498 0.694 0.711 1.041h-1.491c-0.173-0.267-0.373-0.547-0.6-0.841-0.227-0.293-0.467-0.577-0.72-0.85-0.247-0.273-0.502-0.533-0.769-0.78s-0.531-0.459-0.791-0.639v3.109h-1.259v-6.93zm8.594 1.589c0.427 0 0.782 0.061 1.069 0.181 0.287 0.113 0.515 0.276 0.681 0.489 0.173 0.207 0.293 0.461 0.359 0.761 0.073 0.293 0.109 0.615 0.109 0.969v2.941h-1.209v-2.75c0-0.28-0.019-0.516-0.059-0.709-0.033-0.2-0.095-0.361-0.181-0.481-0.08-0.127-0.192-0.215-0.339-0.269-0.14-0.06-0.314-0.091-0.52-0.091-0.153 0-0.313 0.01-0.48 0.03s-0.29 0.037-0.37 0.05v4.22h-1.209v-5.059c0.233-0.067 0.536-0.131 0.909-0.191s0.787-0.091 1.241-0.091zm4.264 3.795c0.37 0 0.641 0.089 0.814 0.266 0.177 0.173 0.266 0.411 0.266 0.714 0 0.12-0.025 0.24-0.075 0.356-0.05 0.113-0.115 0.224-0.195 0.334-0.077 0.107-0.164 0.212-0.264 0.316-0.1 0.1-0.2 0.197-0.3 0.294-0.053 0.05-0.115 0.111-0.181 0.181-0.067 0.07-0.129 0.139-0.189 0.209s-0.111 0.138-0.155 0.205c-0.043 0.063-0.067 0.118-0.07 0.161h1.539v0.509h-2.205c-3e-3 -0.027-5e-3 -0.059-5e-3 -0.095v-0.089c0-0.16 0.025-0.307 0.075-0.441 0.053-0.137 0.121-0.263 0.205-0.38 0.083-0.117 0.176-0.226 0.28-0.33 0.103-0.103 0.208-0.206 0.311-0.306 0.08-0.077 0.156-0.152 0.23-0.225 0.073-0.073 0.137-0.144 0.191-0.214 0.057-0.073 0.101-0.147 0.134-0.22 0.033-0.077 0.05-0.154 0.05-0.234 0-0.173-0.05-0.297-0.15-0.37s-0.222-0.111-0.366-0.111c-0.093 0-0.179 0.014-0.259 0.041s-0.152 0.059-0.216 0.095c-0.06 0.037-0.113 0.074-0.159 0.114-0.047 0.037-0.081 0.067-0.105 0.091l-0.3-0.425c0.14-0.133 0.302-0.24 0.489-0.32 0.19-0.083 0.394-0.125 0.611-0.125z" fill="#2e3440"/>
</svg>
