<svg viewBox="0 0 16 16" xmlns="http://www.w3.org/2000/svg">
 <g transform="translate(-.025 -1037)" fill="#2e3440">
  <path d="m6.462 1041.4h2.974v0.879h-2.02v0.718q0.137-0.037 0.273-0.056 0.14-0.022 0.289-0.022 0.848 0 1.321 0.426 0.472 0.423 0.472 1.181 0 0.752-0.516 1.178-0.513 0.426-1.426 0.426-0.395 0-0.783-0.078-0.385-0.075-0.767-0.23v-0.941q0.379 0.217 0.718 0.326 0.342 0.109 0.643 0.109 0.435 0 0.684-0.211 0.252-0.214 0.252-0.578 0-0.367-0.252-0.578-0.249-0.211-0.684-0.211-0.258 0-0.55 0.068-0.292 0.065-0.628 0.205v-2.61z"/>
 </g>
 <path d="m1 1c-0.554 0-1 0.446-1 1v9c0 0.554 0.45354 1.0911 1 1h6v2l-2.998 2h8l-3.002-2v-2h6c0.554 0 1-0.446 1-1v-9c0-0.554-0.446-1-1-1zm0.5 1h13c0.277 0 0.5 0.223 0.5 0.5v8c0 0.277-0.223 0.5-0.5 0.5h-13c-0.277 0-0.5-0.223-0.5-0.5v-8c0-0.277 0.223-0.5 0.5-0.5z" fill="#2e3440"/>
</svg>
