<svg viewBox="0 0 16 16" xmlns="http://www.w3.org/2000/svg">
 <g transform="translate(.037 -1037)" fill="#2e3440">
  <path d="m6.425 1046v-0.858q0.286 0.134 0.547 0.202 0.261 0.065 0.516 0.065 0.534 0 0.833-0.295 0.298-0.298 0.351-0.882-0.211 0.155-0.451 0.233-0.239 0.078-0.519 0.078-0.712 0-1.15-0.413-0.435-0.416-0.435-1.094 0-0.749 0.485-1.199 0.488-0.45 1.305-0.45 0.907 0 1.404 0.612t0.497 1.731q0 1.15-0.581 1.808-0.581 0.656-1.594 0.656-0.326 0-0.625-0.05-0.298-0.047-0.584-0.143zm1.476-2.234q0.314 0 0.472-0.202 0.158-0.205 0.158-0.612 0-0.404-0.158-0.609t-0.472-0.205-0.472 0.205-0.158 0.609q0 0.407 0.158 0.612 0.158 0.202 0.472 0.202z"/>
 </g>
 <path d="m1 1c-0.554 0-1 0.446-1 1v9c0 0.554 0.454 1.091 1 1h6v2l-2.998 2h8l-3-2v-2h6c0.554 0 1-0.446 1-1v-9c0-0.554-0.446-1-1-1zm0.5 1h13c0.277 0 0.5 0.223 0.5 0.5v8c0 0.277-0.223 0.5-0.5 0.5h-13c-0.277 0-0.5-0.223-0.5-0.5v-8c0-0.277 0.223-0.5 0.5-0.5z" fill="#2e3440"/>
</svg>
