<svg viewBox="0 0 16 16" xmlns="http://www.w3.org/2000/svg">
 <path d="m1.6 0c-0.886 0-1.6 0.714-1.6 1.6v12.8c0 0.886 0.714 1.6 1.6 1.6h12.8c0.886 0 1.6-0.714 1.6-1.6v-12.8c0-0.886-0.714-1.6-1.6-1.6h-12.8zm3.984 4.6c1.01 0 1.778 0.183 2.311 0.55 0.54 0.367 0.809 0.94 0.809 1.72 0 0.407-0.074 0.757-0.22 1.05-0.14 0.287-0.345 0.523-0.619 0.709-0.273 0.18-0.607 0.313-1 0.4s-0.843 0.13-1.35 0.13h-0.631v2.441h-1.259v-6.83c0.293-0.067 0.617-0.11 0.97-0.13 0.36-0.027 0.689-0.041 0.989-0.041zm5.361 0.191v1.58h1.859v1.01h-1.859v2.13c0 0.42 0.067 0.72 0.2 0.9s0.36 0.27 0.68 0.27c0.22 0 0.413-0.024 0.58-0.07 0.173-0.047 0.311-0.09 0.411-0.13l0.2 0.961c-0.14 0.06-0.323 0.12-0.55 0.18-0.227 0.067-0.493 0.1-0.8 0.1-0.373 0-0.687-0.05-0.941-0.15-0.247-0.1-0.442-0.243-0.589-0.43-0.147-0.193-0.251-0.424-0.311-0.691-0.06-0.273-0.089-0.583-0.089-0.93v-4.53l1.209-0.2zm-5.27 0.9c-0.32 0-0.584 0.01-0.791 0.03v2.359h0.611c0.607 0 1.073-0.083 1.4-0.25 0.327-0.173 0.489-0.497 0.489-0.97 0-0.227-0.043-0.415-0.13-0.569-0.087-0.153-0.206-0.274-0.359-0.361s-0.337-0.146-0.55-0.18c-0.207-0.04-0.43-0.059-0.67-0.059z" fill="#2e3440"/>
</svg>
