<svg viewBox="0 0 16 16" xmlns="http://www.w3.org/2000/svg">
 <path d="m1.6 0c-0.886 0-1.6 0.714-1.6 1.6v12.8c0 0.886 0.714 1.6 1.6 1.6h12.8c0.886 0 1.6-0.714 1.6-1.6v-12.8c0-0.886-0.714-1.6-1.6-1.6h-12.8zm2.059 4.47h1.259v6.93h-1.259v-6.93zm4.55 1.57c0.307 0 0.6 0.029 0.88 0.089 0.28 0.053 0.49 0.108 0.63 0.161l-0.22 0.98c-0.133-0.06-0.303-0.114-0.509-0.161-0.207-0.053-0.447-0.08-0.72-0.08-0.247 0-0.447 0.043-0.6 0.13-0.153 0.08-0.23 0.208-0.23 0.381 0 0.087 0.012 0.163 0.039 0.23 0.033 0.067 0.088 0.129 0.161 0.189 0.073 0.053 0.169 0.11 0.289 0.17 0.12 0.053 0.267 0.11 0.441 0.17 0.287 0.107 0.53 0.214 0.73 0.32 0.2 0.1 0.364 0.217 0.491 0.35 0.133 0.127 0.229 0.272 0.289 0.439s0.091 0.367 0.091 0.6c0 0.5-0.186 0.881-0.559 1.141-0.367 0.253-0.895 0.38-1.581 0.38-0.46 0-0.829-0.04-1.109-0.12-0.28-0.073-0.477-0.133-0.591-0.18l0.211-1.01c0.18 0.073 0.392 0.143 0.639 0.209 0.253 0.067 0.541 0.1 0.861 0.1s0.553-0.036 0.7-0.109c0.147-0.08 0.22-0.213 0.22-0.4 0-0.173-0.081-0.316-0.241-0.43-0.153-0.113-0.41-0.237-0.77-0.37-0.22-0.08-0.423-0.163-0.609-0.25-0.18-0.093-0.337-0.2-0.47-0.32s-0.24-0.263-0.32-0.43c-0.073-0.173-0.109-0.383-0.109-0.63 0-0.48 0.176-0.858 0.53-1.131 0.353-0.28 0.834-0.419 1.441-0.419zm2.755 3.894h1.77v0.511h-1.255c-3e-3 0.057-9e-3 0.122-0.016 0.195-3e-3 0.07-9e-3 0.141-0.016 0.214-3e-3 0.073-7e-3 0.144-0.014 0.211s-0.014 0.122-0.02 0.169c0.493 0.027 0.857 0.141 1.091 0.341 0.237 0.197 0.355 0.466 0.355 0.809 0 0.157-0.026 0.303-0.08 0.436-0.053 0.133-0.135 0.249-0.245 0.345-0.11 0.097-0.249 0.173-0.416 0.23-0.167 0.053-0.361 0.08-0.584 0.08-0.09 0-0.182-7e-3 -0.275-0.02s-0.184-0.03-0.27-0.05c-0.083-0.017-0.158-0.035-0.225-0.055s-0.117-0.038-0.15-0.055l0.116-0.511c0.07 0.033 0.17 0.071 0.3 0.111 0.133 0.037 0.294 0.055 0.484 0.055 0.13 0 0.241-0.014 0.334-0.041 0.093-0.03 0.168-0.069 0.225-0.119 0.06-0.05 0.105-0.107 0.131-0.17 0.027-0.067 0.039-0.138 0.039-0.211 0-0.11-0.021-0.207-0.064-0.294s-0.121-0.16-0.231-0.22c-0.107-0.06-0.251-0.106-0.434-0.136-0.18-0.03-0.408-0.044-0.684-0.044 0.037-0.32 0.064-0.624 0.084-0.911 0.02-0.29 0.037-0.58 0.05-0.87z" fill="#2e3440"/>
</svg>
