<svg version="1.1" viewBox="0 0 16 16" xmlns="http://www.w3.org/2000/svg">
 <path d="m2.4707 0.4707a2 2 0 0 0-1.4141 0.58594 2 2 0 0 0 0 2.8281l4.1152 4.1152-4.1152 4.1152a2 2 0 0 0 0 2.8281 2 2 0 0 0 2.8281 0l4.1152-4.1152 4.1152 4.1152a2 2 0 0 0 2.8281 0 2 2 0 0 0 0-2.8281l-4.1152-4.1152 4.1172-4.1152a2 2 0 0 0 0-2.8281 2 2 0 0 0-1.416-0.58594 2 2 0 0 0-1.4141 0.58594l-4.1152 4.1152-4.1152-4.1152a2 2 0 0 0-1.4141-0.58594zm0 1.25a0.75 0.75 0 0 1 0.5293 0.21875l5 5 5-5a0.75 0.75 0 0 1 0.5293-0.21875 0.75 0.75 0 0 1 0.53125 0.21875 0.75 0.75 0 0 1 0 1.0605l-5 5 5 5a0.75 0.75 0 0 1 0 1.0605 0.75 0.75 0 0 1-1.0605 0l-5-5-5 5a0.75 0.75 0 0 1-1.0605 0 0.75 0.75 0 0 1 0-1.0605l5-5-5-5a0.75 0.75 0 0 1 0-1.0605 0.75 0.75 0 0 1 0.53125-0.21875z" color="#000000" fill="#2e3440" stroke-linecap="round" stroke-linejoin="round"/>
</svg>
