<svg viewBox="0 0 16 16" xmlns="http://www.w3.org/2000/svg">
 <path d="m1.6 0c-0.886 0-1.6 0.714-1.6 1.6v12.8c0 0.886 0.714 1.6 1.6 1.6h12.8c0.886 0 1.6-0.714 1.6-1.6v-12.8c0-0.886-0.714-1.6-1.6-1.6h-12.8zm3.47 4.309c0.287 0 0.546 0.024 0.78 0.07 0.233 0.04 0.438 0.087 0.611 0.141 0.173 0.053 0.316 0.11 0.43 0.17 0.113 0.06 0.194 0.103 0.241 0.13l-0.37 1.03c-0.16-0.1-0.391-0.193-0.691-0.28-0.293-0.093-0.613-0.141-0.959-0.141-0.3 0-0.581 0.054-0.841 0.161-0.26 0.1-0.486 0.253-0.68 0.459-0.187 0.207-0.334 0.466-0.441 0.78-0.107 0.313-0.159 0.677-0.159 1.091 0 0.367 0.04 0.703 0.12 1.01 0.087 0.307 0.216 0.573 0.389 0.8 0.173 0.22 0.394 0.394 0.661 0.52 0.267 0.12 0.586 0.18 0.959 0.18 0.447 0 0.811-0.043 1.091-0.13 0.28-0.093 0.497-0.179 0.65-0.259l0.339 1.03c-0.08 0.053-0.19 0.106-0.33 0.159-0.133 0.053-0.293 0.108-0.48 0.161-0.187 0.047-0.396 0.083-0.63 0.109-0.233 0.033-0.483 0.05-0.75 0.05-0.52 0-0.987-0.081-1.4-0.241s-0.763-0.393-1.05-0.7c-0.287-0.313-0.508-0.692-0.661-1.139s-0.23-0.961-0.23-1.541 0.088-1.092 0.261-1.539c0.18-0.447 0.423-0.825 0.73-1.131 0.307-0.313 0.666-0.549 1.08-0.709 0.413-0.16 0.856-0.241 1.33-0.241zm4.867 1.731c0.307 0 0.6 0.029 0.88 0.089 0.28 0.053 0.49 0.108 0.63 0.161l-0.22 0.98c-0.133-0.06-0.303-0.114-0.509-0.161-0.207-0.053-0.447-0.08-0.72-0.08-0.247 0-0.447 0.043-0.6 0.13-0.153 0.08-0.23 0.208-0.23 0.381 0 0.087 0.014 0.163 0.041 0.23 0.033 0.067 0.086 0.129 0.159 0.189 0.073 0.053 0.171 0.11 0.291 0.17 0.12 0.053 0.266 0.11 0.439 0.17 0.287 0.107 0.53 0.214 0.73 0.32 0.2 0.1 0.364 0.217 0.491 0.35 0.133 0.127 0.231 0.272 0.291 0.439s0.089 0.367 0.089 0.6c0 0.5-0.186 0.881-0.559 1.141-0.367 0.253-0.893 0.38-1.58 0.38-0.46 0-0.831-0.04-1.111-0.12-0.28-0.073-0.476-0.133-0.589-0.18l0.209-1.01c0.18 0.073 0.394 0.143 0.641 0.209 0.253 0.067 0.539 0.1 0.859 0.1s0.553-0.036 0.7-0.109c0.147-0.08 0.22-0.213 0.22-0.4 0-0.173-0.081-0.316-0.241-0.43-0.153-0.113-0.41-0.237-0.77-0.37-0.22-0.08-0.423-0.163-0.609-0.25-0.18-0.093-0.337-0.2-0.47-0.32s-0.24-0.263-0.32-0.43c-0.073-0.173-0.109-0.383-0.109-0.63 0-0.48 0.176-0.858 0.53-1.131 0.353-0.28 0.834-0.419 1.441-0.419zm3.445 3.814c0.37 0 0.641 0.089 0.814 0.266 0.177 0.173 0.266 0.411 0.266 0.714 0 0.12-0.025 0.24-0.075 0.356-0.05 0.113-0.115 0.224-0.195 0.334-0.077 0.107-0.164 0.212-0.264 0.316-0.1 0.1-0.2 0.197-0.3 0.294-0.053 0.05-0.115 0.111-0.181 0.181-0.067 0.07-0.129 0.139-0.189 0.209s-0.111 0.138-0.155 0.205c-0.043 0.063-0.067 0.118-0.07 0.161h1.539v0.509h-2.205c-3e-3 -0.027-5e-3 -0.059-5e-3 -0.095v-0.089c0-0.16 0.025-0.307 0.075-0.441 0.053-0.137 0.121-0.263 0.205-0.38 0.083-0.117 0.176-0.226 0.28-0.33 0.103-0.103 0.208-0.206 0.311-0.306 0.08-0.077 0.156-0.152 0.23-0.225 0.073-0.073 0.137-0.144 0.191-0.214 0.057-0.073 0.101-0.147 0.134-0.22 0.033-0.077 0.05-0.154 0.05-0.234 0-0.173-0.05-0.297-0.15-0.37s-0.222-0.111-0.366-0.111c-0.093 0-0.179 0.014-0.259 0.041s-0.152 0.059-0.216 0.095c-0.06 0.037-0.113 0.074-0.159 0.114-0.047 0.037-0.081 0.067-0.105 0.091l-0.3-0.425c0.14-0.133 0.302-0.24 0.489-0.32 0.19-0.083 0.394-0.125 0.611-0.125z" fill="#2e3440"/>
</svg>
