<svg viewBox="0 0 16 16" xmlns="http://www.w3.org/2000/svg">
 <path d="m1.6 0c-0.886 0-1.6 0.714-1.6 1.6v12.8c0 0.886 0.714 1.6 1.6 1.6h12.8c0.886 0 1.6-0.714 1.6-1.6v-12.8c0-0.886-0.714-1.6-1.6-1.6h-12.8zm-0.1 4.47h1.27v4.209c0 0.313 0.033 0.584 0.1 0.811 0.073 0.22 0.173 0.399 0.3 0.539 0.133 0.14 0.286 0.244 0.459 0.311 0.18 0.067 0.38 0.1 0.6 0.1s0.42-0.033 0.6-0.1 0.333-0.171 0.459-0.311c0.133-0.14 0.233-0.319 0.3-0.539 0.073-0.227 0.111-0.498 0.111-0.811v-4.209h1.27v4.33c0 0.4-0.057 0.767-0.17 1.1-0.107 0.333-0.273 0.624-0.5 0.87-0.22 0.247-0.503 0.44-0.85 0.58-0.347 0.133-0.756 0.2-1.23 0.2-0.473 0-0.88-0.067-1.22-0.2-0.34-0.14-0.623-0.333-0.85-0.58-0.22-0.247-0.384-0.537-0.491-0.87s-0.159-0.7-0.159-1.1v-4.33zm6.555 1.7h3.97v0.85c-0.133 0.14-0.31 0.336-0.53 0.589-0.213 0.253-0.444 0.537-0.691 0.85-0.247 0.307-0.497 0.63-0.75 0.97-0.247 0.333-0.47 0.654-0.67 0.961h2.7v1.01h-4.159v-0.75c0.147-0.267 0.33-0.557 0.55-0.87s0.446-0.626 0.68-0.939c0.233-0.32 0.464-0.624 0.691-0.911 0.233-0.287 0.439-0.537 0.619-0.75h-2.409v-1.01zm5.709 3.684c0.37 0 0.641 0.089 0.814 0.266 0.177 0.173 0.266 0.411 0.266 0.714 0 0.12-0.025 0.24-0.075 0.356-0.05 0.113-0.115 0.224-0.195 0.334-0.077 0.107-0.166 0.212-0.266 0.316-0.1 0.1-0.2 0.197-0.3 0.294-0.053 0.05-0.113 0.111-0.18 0.181s-0.129 0.139-0.189 0.209-0.113 0.138-0.156 0.205c-0.043 0.063-0.065 0.118-0.069 0.161h1.539v0.509h-2.205c-3e-3 -0.027-5e-3 -0.059-5e-3 -0.095v-0.089c0-0.16 0.025-0.307 0.075-0.441 0.053-0.137 0.121-0.263 0.205-0.38 0.083-0.117 0.176-0.226 0.28-0.33 0.103-0.103 0.208-0.206 0.311-0.306 0.08-0.077 0.156-0.152 0.23-0.225 0.073-0.073 0.136-0.144 0.189-0.214 0.057-0.073 0.103-0.147 0.136-0.22 0.033-0.077 0.05-0.154 0.05-0.234 0-0.173-0.05-0.297-0.15-0.37s-0.222-0.111-0.366-0.111c-0.093 0-0.179 0.014-0.259 0.041s-0.152 0.059-0.216 0.095c-0.06 0.037-0.113 0.074-0.159 0.114-0.047 0.037-0.081 0.067-0.105 0.091l-0.3-0.425c0.14-0.133 0.302-0.24 0.489-0.32 0.19-0.083 0.394-0.125 0.611-0.125z" fill="#2e3440"/>
</svg>
