<svg viewBox="0 0 16 16" xmlns="http://www.w3.org/2000/svg">
 <path d="m1.6 0c-0.886 0-1.6 0.714-1.6 1.6v12.8c0 0.886 0.714 1.6 1.6 1.6h12.8c0.886 0 1.6-0.714 1.6-1.6v-12.8c0-0.886-0.714-1.6-1.6-1.6h-12.8zm-0.605 4.47h1.03c0.267 0.28 0.554 0.613 0.861 1 0.307 0.38 0.614 0.776 0.92 1.189 0.313 0.413 0.613 0.83 0.9 1.25 0.293 0.413 0.553 0.801 0.78 1.161v-4.6h1.25v6.93h-1.07c-0.227-0.38-0.479-0.787-0.759-1.22-0.28-0.44-0.57-0.88-0.87-1.32-0.3-0.447-0.607-0.876-0.92-1.289-0.307-0.42-0.6-0.796-0.88-1.13v4.959h-1.241v-6.93zm9 1.57c0.367 0 0.703 0.067 1.01 0.2 0.313 0.127 0.58 0.31 0.8 0.55s0.389 0.529 0.509 0.869c0.127 0.333 0.191 0.707 0.191 1.12s-0.06 0.79-0.18 1.13-0.291 0.63-0.511 0.87-0.487 0.428-0.8 0.561c-0.307 0.133-0.645 0.2-1.019 0.2-0.373 0-0.714-0.067-1.02-0.2-0.307-0.133-0.571-0.321-0.791-0.561s-0.394-0.53-0.52-0.87c-0.12-0.34-0.18-0.716-0.18-1.13 0-0.413 0.06-0.787 0.18-1.12 0.127-0.34 0.3-0.629 0.52-0.869 0.227-0.24 0.493-0.423 0.8-0.55 0.307-0.133 0.644-0.2 1.01-0.2zm0 1.05c-0.4 0-0.714 0.153-0.941 0.459-0.22 0.3-0.33 0.71-0.33 1.23 0 0.527 0.11 0.943 0.33 1.25 0.227 0.307 0.541 0.461 0.941 0.461s0.71-0.154 0.93-0.461c0.227-0.307 0.339-0.723 0.339-1.25 0-0.52-0.112-0.93-0.339-1.23-0.22-0.307-0.53-0.459-0.93-0.459zm2.691 2.844h2.316v0.461c-0.11 0.123-0.231 0.291-0.361 0.505-0.13 0.213-0.252 0.455-0.369 0.725-0.117 0.267-0.22 0.553-0.306 0.859-0.083 0.307-0.135 0.612-0.155 0.916h-0.62c0.02-0.253 0.066-0.52 0.136-0.8s0.155-0.552 0.255-0.816c0.103-0.267 0.214-0.514 0.334-0.744 0.123-0.233 0.246-0.429 0.366-0.586h-1.595v-0.52z" fill="#2e3440"/>
</svg>
