<svg viewBox="0 0 16 16" xmlns="http://www.w3.org/2000/svg">
 <path d="m1.6 0c-0.886 0-1.6 0.714-1.6 1.6v12.8c0 0.886 0.714 1.6 1.6 1.6h12.8c0.886 0 1.6-0.714 1.6-1.6v-12.8c0-0.886-0.714-1.6-1.6-1.6h-12.8zm1.17 4.47h4.38v1.07h-3.12v1.769h2.77v1.07h-2.77v3.02h-1.259v-6.93zm7.234 1.589c0.08 0 0.173 7e-3 0.28 0.02 0.107 7e-3 0.214 0.021 0.32 0.041 0.107 0.013 0.209 0.033 0.309 0.059 0.1 0.02 0.181 0.041 0.241 0.061l-0.211 1.019c-0.1-0.033-0.239-0.067-0.419-0.1-0.173-0.04-0.378-0.059-0.611-0.059-0.133 0-0.276 0.014-0.43 0.041-0.147 0.027-0.249 0.049-0.309 0.069v4.191h-1.211v-4.98c0.233-0.087 0.524-0.167 0.87-0.241 0.353-0.08 0.744-0.12 1.17-0.12zm2.563 3.795c0.407 0 0.714 0.132 0.92 0.395 0.21 0.26 0.316 0.628 0.316 1.105 0 0.673-0.174 1.183-0.52 1.53-0.347 0.347-0.879 0.522-1.595 0.525l-0.025-0.505c0.2 0 0.381-0.017 0.541-0.05 0.163-0.033 0.305-0.086 0.425-0.159 0.123-0.073 0.226-0.169 0.309-0.286 0.083-0.12 0.147-0.266 0.191-0.439-0.08 0.037-0.169 0.064-0.266 0.084s-0.19 0.03-0.28 0.03c-0.207 0-0.383-0.026-0.53-0.08-0.143-0.057-0.261-0.133-0.355-0.23-0.09-0.1-0.157-0.215-0.2-0.345s-0.066-0.27-0.066-0.42c0-0.13 0.022-0.26 0.066-0.394 0.043-0.137 0.111-0.262 0.205-0.375 0.093-0.113 0.211-0.205 0.355-0.275 0.143-0.073 0.313-0.111 0.509-0.111zm0.016 0.5c-0.097 0-0.18 0.021-0.25 0.061-0.067 0.04-0.122 0.091-0.166 0.155-0.043 0.063-0.074 0.131-0.094 0.205-0.02 0.073-0.031 0.146-0.031 0.216 0 0.203 0.049 0.356 0.145 0.459 0.1 0.103 0.256 0.155 0.466 0.155 0.097 0 0.191-8e-3 0.284-0.025 0.093-0.02 0.174-0.048 0.241-0.084 3e-3 -0.037 5e-3 -0.069 5e-3 -0.095v-0.07c0-0.133-0.01-0.258-0.03-0.375-0.017-0.12-0.049-0.223-0.095-0.309-0.043-0.09-0.104-0.161-0.184-0.211-0.077-0.053-0.174-0.08-0.291-0.08z" fill="#2e3440"/>
</svg>
