<svg viewBox="0 0 16 16" xmlns="http://www.w3.org/2000/svg">
 <path d="m1.6 0c-0.886 0-1.6 0.714-1.6 1.6v12.8c0 0.886 0.714 1.6 1.6 1.6h12.8c0.886 0 1.6-0.714 1.6-1.6v-12.8c0-0.886-0.714-1.6-1.6-1.6h-12.8zm9.655 4.091c0.2 0 0.374 0.067 0.52 0.2 0.147 0.133 0.22 0.317 0.22 0.55 0 0.227-0.074 0.406-0.22 0.539-0.147 0.133-0.32 0.2-0.52 0.2-0.207 0-0.383-0.067-0.53-0.2s-0.22-0.312-0.22-0.539c0-0.233 0.074-0.417 0.22-0.55 0.147-0.133 0.323-0.2 0.53-0.2zm-7.05 0.58h1.259v2.859c0.22-0.22 0.451-0.453 0.691-0.7 0.24-0.253 0.476-0.506 0.709-0.759 0.24-0.26 0.466-0.51 0.68-0.75 0.213-0.24 0.408-0.457 0.581-0.65h1.509c-0.22 0.253-0.453 0.516-0.7 0.789s-0.499 0.551-0.759 0.831c-0.26 0.273-0.524 0.545-0.791 0.819-0.26 0.273-0.517 0.535-0.77 0.781 0.28 0.213 0.563 0.463 0.85 0.75 0.293 0.28 0.581 0.583 0.861 0.909 0.28 0.32 0.547 0.656 0.8 1.01 0.26 0.347 0.496 0.694 0.709 1.041h-1.491c-0.173-0.267-0.373-0.547-0.6-0.841-0.227-0.293-0.465-0.577-0.719-0.85-0.247-0.273-0.504-0.533-0.77-0.78-0.267-0.247-0.531-0.459-0.791-0.639v3.109h-1.259v-6.93zm6.453 1.7h1.211v5.23h-1.211v-5.23z" fill="#2e3440"/>
</svg>
