<svg viewBox="0 0 16 16" xmlns="http://www.w3.org/2000/svg">
 <path d="m1.6 0c-0.886 0-1.6 0.714-1.6 1.6v12.8c0 0.886 0.714 1.6 1.6 1.6h12.8c0.886 0 1.6-0.714 1.6-1.6v-12.8c0-0.886-0.714-1.6-1.6-1.6h-12.8zm8.472 3.641v4.569c0.153-0.16 0.317-0.329 0.491-0.509 0.173-0.187 0.343-0.37 0.509-0.55 0.167-0.187 0.324-0.363 0.47-0.53 0.153-0.173 0.284-0.323 0.391-0.45h1.43c-0.333 0.373-0.686 0.759-1.059 1.159-0.367 0.4-0.738 0.79-1.111 1.17 0.2 0.167 0.41 0.369 0.63 0.609 0.22 0.233 0.434 0.483 0.641 0.75s0.4 0.533 0.58 0.8 0.33 0.514 0.45 0.741h-1.4c-0.12-0.207-0.26-0.423-0.42-0.65-0.153-0.227-0.32-0.446-0.5-0.659s-0.363-0.413-0.55-0.6c-0.187-0.193-0.37-0.357-0.55-0.491v2.4h-1.209v-7.559l1.209-0.2zm-9.1 0.83h1.17c0.147 0.253 0.309 0.563 0.489 0.93s0.363 0.753 0.55 1.159c0.187 0.4 0.37 0.811 0.55 1.231 0.187 0.413 0.358 0.797 0.511 1.15 0.153-0.353 0.32-0.737 0.5-1.15 0.18-0.42 0.363-0.831 0.55-1.231 0.187-0.407 0.37-0.793 0.55-1.159 0.18-0.367 0.342-0.676 0.489-0.93h1.141c0.06 0.507 0.117 1.047 0.17 1.62 0.053 0.567 0.099 1.15 0.139 1.75 0.047 0.593 0.087 1.193 0.12 1.8 0.04 0.6 0.073 1.186 0.1 1.759h-1.241c-0.027-0.807-0.06-1.637-0.1-2.491-0.033-0.853-0.086-1.68-0.159-2.48-0.073 0.153-0.159 0.337-0.259 0.55s-0.207 0.447-0.32 0.7c-0.113 0.247-0.23 0.504-0.35 0.77-0.113 0.267-0.227 0.526-0.341 0.78-0.107 0.247-0.207 0.48-0.3 0.7-0.093 0.213-0.172 0.397-0.239 0.55h-0.941c-0.067-0.153-0.147-0.339-0.241-0.559-0.093-0.22-0.196-0.453-0.309-0.7-0.107-0.253-0.221-0.513-0.341-0.78-0.113-0.267-0.226-0.524-0.339-0.77-0.113-0.247-0.22-0.477-0.32-0.691-0.1-0.22-0.186-0.403-0.259-0.55-0.073 0.8-0.13 1.626-0.17 2.48-0.033 0.853-0.064 1.684-0.091 2.491h-1.239c0.027-0.573 0.056-1.166 0.089-1.78 0.04-0.613 0.08-1.22 0.12-1.82 0.047-0.607 0.097-1.193 0.15-1.759 0.053-0.567 0.11-1.09 0.17-1.57zm13.391 5.384c0.37 0 0.641 0.089 0.814 0.266 0.177 0.173 0.266 0.411 0.266 0.714 0 0.12-0.025 0.24-0.075 0.356-0.05 0.113-0.115 0.224-0.195 0.334-0.077 0.107-0.164 0.212-0.264 0.316-0.1 0.1-0.2 0.197-0.3 0.294-0.053 0.05-0.115 0.111-0.181 0.181-0.067 0.07-0.129 0.139-0.189 0.209s-0.111 0.138-0.155 0.205c-0.043 0.063-0.067 0.118-0.07 0.161h1.539v0.509h-2.205c-3e-3 -0.027-5e-3 -0.059-5e-3 -0.095v-0.089c0-0.16 0.025-0.307 0.075-0.441 0.053-0.137 0.121-0.263 0.205-0.38 0.083-0.117 0.176-0.226 0.28-0.33 0.103-0.103 0.208-0.206 0.311-0.306 0.08-0.077 0.156-0.152 0.23-0.225 0.073-0.073 0.137-0.144 0.191-0.214 0.057-0.073 0.101-0.147 0.134-0.22 0.033-0.077 0.05-0.154 0.05-0.234 0-0.173-0.05-0.297-0.15-0.37s-0.222-0.111-0.366-0.111c-0.093 0-0.179 0.014-0.259 0.041s-0.152 0.059-0.216 0.095c-0.06 0.037-0.113 0.074-0.159 0.114-0.047 0.037-0.081 0.067-0.105 0.091l-0.3-0.425c0.14-0.133 0.302-0.24 0.489-0.32 0.19-0.083 0.394-0.125 0.611-0.125z" fill="#2e3440"/>
</svg>
