<svg viewBox="0 0 16 16" xmlns="http://www.w3.org/2000/svg">
 <path d="m1.6 0c-0.886 0-1.6 0.714-1.6 1.6v12.8c0 0.886 0.714 1.6 1.6 1.6h12.8c0.886 0 1.6-0.714 1.6-1.6v-12.8c0-0.886-0.714-1.6-1.6-1.6h-12.8zm2.564 4.4c1.01 0 1.776 0.183 2.309 0.55 0.54 0.367 0.811 0.94 0.811 1.72 0 0.407-0.074 0.757-0.22 1.05-0.14 0.287-0.347 0.523-0.62 0.709-0.273 0.18-0.607 0.313-1 0.4s-0.843 0.13-1.35 0.13h-0.63v2.441h-1.259v-6.83c0.293-0.067 0.615-0.11 0.969-0.13 0.36-0.027 0.691-0.041 0.991-0.041zm5.361 0.191v1.58h1.859v1.01h-1.859v2.13c0 0.42 0.067 0.72 0.2 0.9s0.36 0.27 0.68 0.27c0.22 0 0.413-0.024 0.58-0.07 0.173-0.047 0.309-0.09 0.409-0.13l0.2 0.961c-0.14 0.06-0.323 0.12-0.55 0.18-0.227 0.067-0.493 0.1-0.8 0.1-0.373 0-0.686-0.05-0.939-0.15-0.247-0.1-0.444-0.243-0.591-0.43-0.147-0.193-0.249-0.424-0.309-0.691-0.06-0.273-0.091-0.583-0.091-0.93v-4.53l1.211-0.2zm-5.27 0.9c-0.32 0-0.584 0.01-0.791 0.03v2.359h0.609c0.607 0 1.073-0.083 1.4-0.25 0.327-0.173 0.491-0.497 0.491-0.97 0-0.227-0.043-0.415-0.13-0.569-0.087-0.153-0.208-0.274-0.361-0.361s-0.337-0.146-0.55-0.18c-0.207-0.04-0.429-0.059-0.669-0.059zm9.23 4.444h0.575v2.141h0.389v0.495h-0.389v0.83h-0.591v-0.83h-1.52v-0.43c0.067-0.147 0.156-0.316 0.266-0.506 0.113-0.19 0.238-0.384 0.375-0.584s0.281-0.397 0.434-0.591c0.153-0.193 0.308-0.368 0.461-0.525zm-0.016 0.745c-0.08 0.097-0.163 0.201-0.25 0.311-0.083 0.11-0.165 0.224-0.245 0.344s-0.156 0.244-0.23 0.37c-0.073 0.123-0.14 0.247-0.2 0.37h0.925v-1.395z" fill="#2e3440"/>
</svg>
