<svg viewBox="0 0 16 16" xmlns="http://www.w3.org/2000/svg">
 <path d="m1.6 0c-0.886 0-1.6 0.714-1.6 1.6v12.8c0 0.886 0.714 1.6 1.6 1.6h12.8c0.886 0 1.6-0.714 1.6-1.6v-12.8c0-0.886-0.714-1.6-1.6-1.6h-12.8zm8.361 3.841v2.589c0.133-0.047 0.286-0.087 0.459-0.12 0.18-0.033 0.356-0.05 0.53-0.05 0.42 0 0.767 0.061 1.041 0.181 0.28 0.113 0.504 0.276 0.67 0.489 0.167 0.207 0.283 0.457 0.35 0.75 0.073 0.293 0.109 0.62 0.109 0.98v2.941h-1.209v-2.75c0-0.28-0.021-0.516-0.061-0.709-0.033-0.2-0.093-0.361-0.18-0.481-0.08-0.127-0.19-0.215-0.33-0.269-0.14-0.06-0.314-0.091-0.52-0.091-0.16 0-0.322 0.017-0.489 0.05s-0.29 0.064-0.37 0.091v4.159h-1.211v-7.559l1.211-0.2zm-7.631 0.83h5.53v1.089h-2.13v5.841h-1.27v-5.841h-2.13v-1.089z" fill="#2e3440"/>
</svg>
