<svg viewBox="0 0 16 16" xmlns="http://www.w3.org/2000/svg">
 <path d="m1.6 0c-0.886 0-1.6 0.714-1.6 1.6v12.8c0 0.886 0.714 1.6 1.6 1.6h12.8c0.886 0 1.6-0.714 1.6-1.6v-12.8c0-0.886-0.714-1.6-1.6-1.6h-12.8zm1.169 4.67h5.53v1.089h-2.13v5.841h-1.27v-5.841h-2.13v-1.089zm7.77 1.57c0.4 0 0.738 0.05 1.01 0.15 0.273 0.1 0.49 0.239 0.65 0.419 0.167 0.18 0.283 0.401 0.35 0.661 0.073 0.253 0.109 0.532 0.109 0.839v3.17c-0.187 0.04-0.47 0.087-0.85 0.141-0.373 0.06-0.797 0.089-1.27 0.089-0.313 0-0.599-0.029-0.859-0.089s-0.484-0.157-0.67-0.291c-0.18-0.133-0.323-0.307-0.43-0.52-0.1-0.213-0.15-0.476-0.15-0.789 0-0.3 0.057-0.554 0.17-0.761 0.12-0.207 0.28-0.373 0.48-0.5 0.2-0.133 0.429-0.226 0.689-0.28 0.267-0.06 0.545-0.089 0.831-0.089 0.133 0 0.272 0.01 0.419 0.03 0.147 0.013 0.304 0.04 0.47 0.08v-0.2c0-0.14-0.017-0.273-0.05-0.4s-0.093-0.236-0.18-0.33c-0.08-0.1-0.19-0.176-0.33-0.23-0.133-0.053-0.304-0.081-0.511-0.081-0.28 0-0.535 0.021-0.769 0.061-0.233 0.04-0.424 0.086-0.57 0.139l-0.15-0.98c0.153-0.053 0.377-0.106 0.67-0.159s0.606-0.08 0.939-0.08zm0.241 3.02c-0.133 0-0.271 0.011-0.411 0.031-0.133 0.02-0.255 0.056-0.369 0.109-0.107 0.053-0.194 0.13-0.261 0.23-0.067 0.093-0.1 0.214-0.1 0.361 0 0.287 0.09 0.487 0.27 0.6 0.18 0.107 0.423 0.159 0.73 0.159 0.373 0 0.657-0.019 0.85-0.059v-1.341c-0.067-0.02-0.162-0.039-0.289-0.059s-0.267-0.031-0.42-0.031z" fill="#2e3440"/>
</svg>
