<svg viewBox="0 0 16 16" xmlns="http://www.w3.org/2000/svg">
 <path d="m1.6 0c-0.886 0-1.6 0.714-1.6 1.6v12.8c0 0.886 0.714 1.6 1.6 1.6h12.8c0.886 0 1.6-0.714 1.6-1.6v-12.8c0-0.886-0.714-1.6-1.6-1.6h-12.8zm-0.58 4.47h1.03c0.267 0.28 0.554 0.613 0.861 1 0.307 0.38 0.614 0.776 0.92 1.189 0.313 0.413 0.613 0.83 0.9 1.25 0.293 0.413 0.553 0.801 0.78 1.161v-4.6h1.25v6.93h-1.07c-0.227-0.38-0.479-0.787-0.759-1.22-0.28-0.44-0.57-0.88-0.87-1.32-0.3-0.447-0.607-0.876-0.92-1.289-0.307-0.42-0.6-0.796-0.88-1.13v4.959h-1.241v-6.93zm9 1.57c0.367 0 0.703 0.067 1.01 0.2 0.313 0.127 0.58 0.31 0.8 0.55s0.389 0.529 0.509 0.869c0.127 0.333 0.191 0.707 0.191 1.12s-0.06 0.79-0.18 1.13-0.291 0.63-0.511 0.87-0.487 0.428-0.8 0.561c-0.307 0.133-0.645 0.2-1.019 0.2-0.373 0-0.714-0.067-1.02-0.2-0.307-0.133-0.571-0.321-0.791-0.561s-0.394-0.53-0.52-0.87c-0.12-0.34-0.18-0.716-0.18-1.13 0-0.413 0.06-0.787 0.18-1.12 0.127-0.34 0.3-0.629 0.52-0.869 0.227-0.24 0.493-0.423 0.8-0.55 0.307-0.133 0.644-0.2 1.01-0.2zm0 1.05c-0.4 0-0.714 0.153-0.941 0.459-0.22 0.3-0.33 0.71-0.33 1.23 0 0.527 0.11 0.943 0.33 1.25 0.227 0.307 0.541 0.461 0.941 0.461s0.71-0.154 0.93-0.461c0.227-0.307 0.339-0.723 0.339-1.25 0-0.52-0.112-0.93-0.339-1.23-0.22-0.307-0.53-0.459-0.93-0.459zm3.061 2.844h1.77v0.511h-1.255c-3e-3 0.057-9e-3 0.122-0.016 0.195-3e-3 0.07-9e-3 0.141-0.016 0.214-3e-3 0.073-7e-3 0.144-0.014 0.211s-0.014 0.122-0.02 0.169c0.493 0.027 0.857 0.141 1.091 0.341 0.237 0.197 0.355 0.466 0.355 0.809 0 0.157-0.026 0.303-0.08 0.436-0.053 0.133-0.135 0.249-0.245 0.345-0.11 0.097-0.249 0.173-0.416 0.23-0.167 0.053-0.361 0.08-0.584 0.08-0.09 0-0.182-7e-3 -0.275-0.02s-0.184-0.03-0.27-0.05c-0.083-0.017-0.158-0.035-0.225-0.055s-0.117-0.038-0.15-0.055l0.116-0.511c0.07 0.033 0.17 0.071 0.3 0.111 0.133 0.037 0.294 0.055 0.484 0.055 0.13 0 0.241-0.014 0.334-0.041 0.093-0.03 0.168-0.069 0.225-0.119 0.06-0.05 0.105-0.107 0.131-0.17 0.027-0.067 0.039-0.138 0.039-0.211 0-0.11-0.021-0.207-0.064-0.294s-0.121-0.16-0.231-0.22c-0.107-0.06-0.251-0.106-0.434-0.136-0.18-0.03-0.408-0.044-0.684-0.044 0.037-0.32 0.064-0.624 0.084-0.911 0.02-0.29 0.037-0.58 0.05-0.87z" fill="#2e3440"/>
</svg>
