<svg viewBox="0 0 16 16" xmlns="http://www.w3.org/2000/svg">
 <path d="m1.6 0c-0.886 0-1.6 0.714-1.6 1.6v12.8c0 0.886 0.714 1.6 1.6 1.6h12.8c0.886 0 1.6-0.714 1.6-1.6v-12.8c0-0.886-0.714-1.6-1.6-1.6h-12.8zm8.577 3.891c0.2 0 0.372 0.067 0.519 0.2s0.22 0.317 0.22 0.55c0 0.227-0.074 0.406-0.22 0.539-0.147 0.133-0.319 0.2-0.519 0.2-0.207 0-0.385-0.067-0.531-0.2-0.147-0.133-0.219-0.312-0.219-0.539 0-0.233 0.072-0.417 0.219-0.55s0.325-0.2 0.531-0.2zm-7.737 0.58h1.259v2.77h3.01v-2.77h1.261v6.93h-1.261v-3.07h-3.01v3.07h-1.259v-6.93zm7.137 1.7h1.209v5.23h-1.209v-5.23zm3.523 3.764h0.425v3.466h-0.605v-2.655c-0.09 0.07-0.204 0.138-0.341 0.205s-0.269 0.122-0.395 0.166l-0.184-0.461c0.193-0.077 0.386-0.175 0.58-0.295 0.197-0.12 0.37-0.262 0.52-0.425z" fill="#2e3440"/>
</svg>
