<svg viewBox="0 0 16 16" xmlns="http://www.w3.org/2000/svg">
 <path d="m1.6 0c-0.886 0-1.6 0.714-1.6 1.6v12.8c0 0.886 0.714 1.6 1.6 1.6h12.8c0.886 0 1.6-0.714 1.6-1.6v-12.8c0-0.886-0.714-1.6-1.6-1.6h-12.8zm1.039 4.67h1.259v2.77h3.01v-2.77h1.259v6.93h-1.259v-3.07h-3.01v3.07h-1.259v-6.93zm6.447 1.7h1.291c0.067 0.28 0.146 0.583 0.239 0.909 0.1 0.327 0.207 0.66 0.32 1 0.113 0.333 0.234 0.667 0.361 1s0.253 0.643 0.38 0.93c0.213-0.593 0.413-1.222 0.6-1.889 0.187-0.673 0.356-1.323 0.509-1.95h1.25c-0.54 1.987-1.166 3.787-1.88 5.4-0.133 0.3-0.269 0.557-0.409 0.77s-0.297 0.39-0.47 0.53-0.366 0.24-0.58 0.3c-0.213 0.067-0.461 0.1-0.741 0.1-0.187 0-0.373-0.021-0.559-0.061-0.18-0.04-0.318-0.083-0.411-0.13l0.22-0.97c0.24 0.093 0.476 0.141 0.709 0.141 0.313 0 0.558-0.076 0.731-0.23 0.18-0.147 0.335-0.377 0.469-0.691-0.38-0.733-0.747-1.533-1.1-2.4-0.347-0.867-0.656-1.786-0.93-2.759z" fill="#2e3440"/>
</svg>
