<svg viewBox="0 0 16 16" xmlns="http://www.w3.org/2000/svg">
 <path d="m1.6 0c-0.886 0-1.6 0.714-1.6 1.6v12.8c0 0.886 0.714 1.6 1.6 1.6h12.8c0.886 0 1.6-0.714 1.6-1.6v-12.8c0-0.886-0.714-1.6-1.6-1.6h-12.8zm7.72 3.641v4.569c0.153-0.16 0.317-0.329 0.491-0.509 0.173-0.187 0.343-0.37 0.509-0.55 0.167-0.187 0.324-0.363 0.47-0.53 0.153-0.173 0.284-0.323 0.391-0.45h1.43c-0.333 0.373-0.686 0.759-1.059 1.159-0.367 0.4-0.738 0.79-1.111 1.17 0.2 0.167 0.41 0.369 0.63 0.609 0.22 0.233 0.434 0.483 0.641 0.75s0.4 0.533 0.58 0.8 0.33 0.514 0.45 0.741h-1.4c-0.12-0.207-0.26-0.423-0.42-0.65-0.153-0.227-0.32-0.446-0.5-0.659s-0.363-0.413-0.55-0.6c-0.187-0.193-0.37-0.357-0.55-0.491v2.4h-1.209v-7.559l1.209-0.2zm-8.231 0.83h1.27v4.209c0 0.313 0.033 0.584 0.1 0.811 0.073 0.22 0.173 0.399 0.3 0.539 0.133 0.14 0.288 0.244 0.461 0.311 0.18 0.067 0.38 0.1 0.6 0.1s0.42-0.033 0.6-0.1 0.333-0.171 0.459-0.311c0.133-0.14 0.233-0.319 0.3-0.539 0.073-0.227 0.109-0.498 0.109-0.811v-4.209h1.27v4.33c0 0.4-0.057 0.767-0.17 1.1-0.107 0.333-0.273 0.624-0.5 0.87-0.22 0.247-0.503 0.44-0.85 0.58-0.347 0.133-0.756 0.2-1.23 0.2-0.473 0-0.88-0.067-1.22-0.2-0.34-0.14-0.623-0.333-0.85-0.58-0.22-0.247-0.382-0.537-0.489-0.87s-0.161-0.7-0.161-1.1v-4.33zm14.12 5.445 0.034 0.5c-0.18 3e-3 -0.348 0.023-0.505 0.059-0.157 0.033-0.297 0.086-0.42 0.159s-0.23 0.169-0.32 0.286c-0.087 0.117-0.153 0.26-0.2 0.43 0.163-0.077 0.343-0.116 0.536-0.116 0.207 0 0.382 0.031 0.525 0.091 0.147 0.057 0.265 0.134 0.355 0.234s0.155 0.217 0.195 0.35c0.043 0.13 0.064 0.268 0.064 0.411 0 0.13-0.024 0.263-0.07 0.4-0.043 0.137-0.113 0.262-0.209 0.375-0.093 0.11-0.211 0.202-0.355 0.275-0.143 0.07-0.314 0.105-0.511 0.105-0.397 0-0.699-0.131-0.909-0.391-0.207-0.263-0.309-0.624-0.309-1.084 0-0.333 0.047-0.628 0.144-0.884 0.1-0.26 0.24-0.48 0.42-0.656 0.183-0.177 0.404-0.31 0.661-0.4 0.26-0.093 0.552-0.14 0.875-0.144zm-0.95 1.8c-0.097 0-0.191 8e-3 -0.281 0.025s-0.17 0.042-0.244 0.075c-3e-3 0.027-8e-3 0.056-0.011 0.089v0.091c0 0.133 8e-3 0.26 0.025 0.38 0.02 0.117 0.052 0.219 0.095 0.309 0.047 0.087 0.108 0.158 0.184 0.211 0.08 0.05 0.179 0.075 0.295 0.075 0.097 0 0.179-0.021 0.245-0.061 0.07-0.04 0.127-0.091 0.17-0.155 0.043-0.063 0.075-0.131 0.095-0.205 0.02-0.077 0.03-0.15 0.03-0.22 0-0.2-0.049-0.351-0.145-0.455-0.097-0.107-0.249-0.159-0.459-0.159z" fill="#2e3440"/>
</svg>
