<svg viewBox="0 0 16 16" xmlns="http://www.w3.org/2000/svg">
 <path d="m1.6 0c-0.886 0-1.6 0.714-1.6 1.6v12.8c0 0.886 0.714 1.6 1.6 1.6h12.8c0.886 0 1.6-0.714 1.6-1.6v-12.8c0-0.886-0.714-1.6-1.6-1.6h-12.8zm2.369 4.47h1.191c0.233 0.493 0.46 0.993 0.68 1.5s0.441 1.04 0.661 1.6c0.227 0.56 0.456 1.153 0.689 1.78 0.24 0.627 0.49 1.31 0.75 2.05h-1.359c-0.093-0.273-0.191-0.543-0.291-0.809-0.1-0.267-0.196-0.54-0.289-0.82h-2.92c-0.093 0.28-0.191 0.556-0.291 0.83l-0.28 0.8h-1.309c0.26-0.74 0.506-1.423 0.739-2.05s0.46-1.22 0.68-1.78c0.227-0.56 0.45-1.093 0.67-1.6s0.446-1.01 0.68-1.5zm0.57 1.339c-0.153 0.353-0.33 0.784-0.53 1.291-0.193 0.507-0.396 1.057-0.609 1.65h2.28c-0.213-0.593-0.42-1.146-0.62-1.659s-0.374-0.941-0.52-1.281zm6.256 0.25c0.08 0 0.173 7e-3 0.28 0.02 0.107 7e-3 0.214 0.021 0.32 0.041 0.107 0.013 0.209 0.033 0.309 0.059 0.1 0.02 0.181 0.041 0.241 0.061l-0.209 1.019c-0.1-0.033-0.24-0.067-0.42-0.1-0.173-0.04-0.378-0.059-0.611-0.059-0.133 0-0.276 0.014-0.43 0.041-0.147 0.027-0.249 0.049-0.309 0.069v4.191h-1.211v-4.98c0.233-0.087 0.524-0.167 0.87-0.241 0.353-0.08 0.744-0.12 1.17-0.12zm2.469 3.795c0.193 0 0.36 0.024 0.5 0.07 0.14 0.047 0.255 0.113 0.345 0.2 0.093 0.083 0.161 0.183 0.205 0.3 0.047 0.113 0.07 0.238 0.07 0.375 0 0.16-0.046 0.303-0.136 0.43-0.087 0.127-0.199 0.224-0.339 0.291 0.18 0.063 0.327 0.167 0.444 0.314 0.12 0.147 0.181 0.336 0.181 0.566 0 0.153-0.028 0.296-0.081 0.43-0.053 0.13-0.134 0.244-0.244 0.341-0.11 0.093-0.25 0.168-0.42 0.225-0.167 0.053-0.367 0.08-0.6 0.08-0.09 0-0.183-7e-3 -0.28-0.02-0.093-0.01-0.184-0.025-0.27-0.045-0.083-0.017-0.16-0.035-0.23-0.055-0.07-0.023-0.124-0.044-0.161-0.064l0.12-0.516c0.07 0.033 0.171 0.072 0.305 0.116 0.133 0.04 0.299 0.059 0.495 0.059 0.263 0 0.454-0.05 0.57-0.15 0.117-0.103 0.175-0.239 0.175-0.409 0-0.11-0.024-0.202-0.07-0.275-0.043-0.073-0.104-0.132-0.184-0.175-0.077-0.047-0.167-0.079-0.27-0.095-0.1-0.02-0.207-0.03-0.32-0.03h-0.205v-0.491h0.25c0.077 0 0.153-7e-3 0.23-0.02 0.08-0.017 0.152-0.043 0.216-0.08 0.063-0.04 0.115-0.091 0.155-0.155 0.04-0.063 0.059-0.145 0.059-0.245 0-0.08-0.015-0.148-0.045-0.205s-0.069-0.104-0.119-0.141c-0.047-0.037-0.102-0.063-0.166-0.08-0.063-0.017-0.13-0.025-0.2-0.025-0.15 0-0.283 0.024-0.4 0.07-0.117 0.043-0.219 0.093-0.309 0.15l-0.22-0.45c0.047-0.03 0.104-0.062 0.17-0.095 0.067-0.033 0.139-0.065 0.219-0.095 0.083-0.03 0.172-0.054 0.266-0.07 0.093-0.02 0.192-0.03 0.295-0.03z" fill="#2e3440"/>
</svg>
