<svg viewBox="0 0 16 16" xmlns="http://www.w3.org/2000/svg">
 <path d="m1.6 0c-0.886 0-1.6 0.714-1.6 1.6v12.8c0 0.886 0.714 1.6 1.6 1.6h12.8c0.886 0 1.6-0.714 1.6-1.6v-12.8c0-0.886-0.714-1.6-1.6-1.6h-12.8zm-0.705 4.47h1.259v2.77h3.01v-2.77h1.259v6.93h-1.259v-3.07h-3.01v3.07h-1.259v-6.93zm7.07 1.7h1.211v2.739c0 0.56 0.079 0.96 0.239 1.2 0.167 0.24 0.454 0.361 0.861 0.361 0.147 0 0.299-7e-3 0.459-0.02 0.167-0.013 0.29-0.03 0.37-0.05v-4.23h1.209v5.07c-0.233 0.06-0.536 0.12-0.909 0.18-0.373 0.067-0.783 0.1-1.23 0.1-0.42 0-0.774-0.06-1.061-0.18-0.28-0.12-0.506-0.287-0.68-0.5-0.167-0.213-0.286-0.468-0.359-0.761-0.073-0.3-0.111-0.626-0.111-0.98v-2.93zm5.395 3.764h2.316v0.461c-0.11 0.123-0.231 0.291-0.361 0.505-0.13 0.213-0.254 0.455-0.37 0.725-0.117 0.267-0.218 0.553-0.305 0.859-0.083 0.307-0.135 0.612-0.155 0.916h-0.62c0.02-0.253 0.066-0.52 0.136-0.8s0.155-0.552 0.255-0.816c0.103-0.267 0.214-0.514 0.334-0.744 0.123-0.233 0.246-0.429 0.366-0.586h-1.595v-0.52z" fill="#2e3440"/>
</svg>
