<svg viewBox="0 0 16 16" xmlns="http://www.w3.org/2000/svg">
 <path d="m1.6 0c-0.886 0-1.6 0.714-1.6 1.6v12.8c0 0.886 0.714 1.6 1.6 1.6h12.8c0.886 0 1.6-0.714 1.6-1.6v-12.8c0-0.886-0.714-1.6-1.6-1.6h-12.8zm1.305 4.4c0.58 0 1.111 0.069 1.591 0.209 0.48 0.133 0.89 0.347 1.23 0.641 0.347 0.287 0.613 0.653 0.8 1.1 0.187 0.44 0.28 0.966 0.28 1.58 0 0.6-0.093 1.124-0.28 1.57-0.187 0.44-0.453 0.809-0.8 1.109-0.34 0.293-0.754 0.514-1.241 0.661-0.48 0.14-1.013 0.209-1.6 0.209-0.28 0-0.597-0.012-0.95-0.039-0.353-0.02-0.689-0.067-1.01-0.141v-6.73c0.32-0.073 0.66-0.121 1.02-0.141s0.679-0.03 0.959-0.03zm0.08 1.091c-0.373 0-0.64 0.01-0.8 0.03v4.839c0.073 7e-3 0.171 0.014 0.291 0.02h0.489c0.847 0 1.477-0.212 1.891-0.639 0.42-0.433 0.63-1.038 0.63-1.811 0-0.787-0.203-1.389-0.609-1.809-0.407-0.42-1.037-0.63-1.891-0.63zm7.286 0.55c0.72 0 1.28 0.222 1.68 0.669 0.407 0.447 0.611 1.113 0.611 2 0 0.067-4e-3 0.145-0.011 0.231 0 0.08-3e-3 0.152-9e-3 0.219h-3.45c0.033 0.42 0.179 0.748 0.439 0.981 0.267 0.227 0.65 0.339 1.15 0.339 0.293 0 0.56-0.026 0.8-0.08 0.247-0.053 0.441-0.11 0.581-0.17l0.159 0.991c-0.067 0.033-0.16 0.069-0.28 0.109-0.113 0.033-0.247 0.064-0.4 0.091-0.147 0.033-0.306 0.06-0.48 0.08-0.173 0.02-0.351 0.03-0.531 0.03-0.46 0-0.86-0.067-1.2-0.2-0.34-0.14-0.619-0.33-0.839-0.57-0.22-0.247-0.384-0.533-0.491-0.859-0.107-0.333-0.159-0.697-0.159-1.091 0-0.46 0.067-0.863 0.2-1.209 0.14-0.347 0.323-0.633 0.55-0.859 0.227-0.233 0.486-0.407 0.78-0.52 0.293-0.12 0.593-0.18 0.9-0.18zm9e-3 1.01c-0.187 0-0.349 0.036-0.489 0.109-0.14 0.067-0.261 0.157-0.361 0.27-0.093 0.113-0.165 0.244-0.219 0.391-0.053 0.147-0.091 0.297-0.111 0.45h2.25c0-0.167-0.024-0.324-0.07-0.47-0.047-0.153-0.116-0.284-0.209-0.391-0.087-0.113-0.196-0.199-0.33-0.259-0.127-0.067-0.281-0.1-0.461-0.1zm3.419 2.884h1.77v0.511h-1.255c-3e-3 0.057-9e-3 0.122-0.016 0.195-3e-3 0.07-9e-3 0.141-0.016 0.214-3e-3 0.073-7e-3 0.144-0.014 0.211s-0.014 0.122-0.02 0.169c0.493 0.027 0.857 0.141 1.091 0.341 0.237 0.197 0.355 0.466 0.355 0.809 0 0.157-0.026 0.303-0.08 0.436-0.053 0.133-0.135 0.249-0.245 0.345-0.11 0.097-0.249 0.173-0.416 0.23-0.167 0.053-0.361 0.08-0.584 0.08-0.09 0-0.182-7e-3 -0.275-0.02s-0.184-0.03-0.27-0.05c-0.083-0.017-0.158-0.035-0.225-0.055s-0.117-0.038-0.15-0.055l0.116-0.511c0.07 0.033 0.17 0.071 0.3 0.111 0.133 0.037 0.294 0.055 0.484 0.055 0.13 0 0.241-0.014 0.334-0.041 0.093-0.03 0.168-0.069 0.225-0.119 0.06-0.05 0.105-0.107 0.131-0.17 0.027-0.067 0.039-0.138 0.039-0.211 0-0.11-0.021-0.207-0.064-0.294s-0.121-0.16-0.231-0.22c-0.107-0.06-0.251-0.106-0.434-0.136-0.18-0.03-0.408-0.044-0.684-0.044 0.037-0.32 0.064-0.624 0.084-0.911 0.02-0.29 0.037-0.58 0.05-0.87z" fill="#2e3440"/>
</svg>
