<svg viewBox="0 0 16 16" xmlns="http://www.w3.org/2000/svg">
 <g transform="translate(-.028 -1037)" fill="#2e3440">
  <path d="m8.09 1043.8q-0.314 0-0.472 0.205-0.155 0.202-0.155 0.609t0.155 0.612q0.158 0.202 0.472 0.202 0.317 0 0.472-0.202 0.158-0.205 0.158-0.612t-0.158-0.609q-0.155-0.205-0.472-0.205zm1.479-2.228v0.858q-0.295-0.14-0.556-0.205-0.261-0.068-0.51-0.068-0.534 0-0.833 0.298-0.298 0.295-0.348 0.879 0.205-0.152 0.444-0.227 0.239-0.078 0.522-0.078 0.712 0 1.147 0.416 0.438 0.416 0.438 1.091 0 0.746-0.488 1.196-0.488 0.447-1.308 0.447-0.904 0-1.401-0.609-0.494-0.612-0.494-1.734 0-1.15 0.578-1.805 0.581-0.659 1.591-0.659 0.32 0 0.621 0.05t0.597 0.149z"/>
 </g>
 <path d="m1 1c-0.554 0-1 0.446-1 1v9c0 0.554 0.454 1.091 1 1h6v2l-2.998 2h8l-3-2v-2h6c0.554 0 1-0.446 1-1v-9c0-0.554-0.446-1-1-1zm0.5 1h13c0.277 0 0.5 0.223 0.5 0.5v8c0 0.277-0.223 0.5-0.5 0.5h-13c-0.277 0-0.5-0.223-0.5-0.5v-8c0-0.277 0.223-0.5 0.5-0.5z" fill="#2e3440"/>
</svg>
