<svg viewBox="0 0 16 16" xmlns="http://www.w3.org/2000/svg">
 <path d="m1.6 0c-0.886 0-1.6 0.714-1.6 1.6v12.8c0 0.886 0.714 1.6 1.6 1.6h12.8c0.886 0 1.6-0.714 1.6-1.6v-12.8c0-0.886-0.714-1.6-1.6-1.6h-12.8zm3.47 4.309c0.287 0 0.546 0.024 0.78 0.07 0.233 0.04 0.438 0.087 0.611 0.141 0.173 0.053 0.316 0.11 0.43 0.17 0.113 0.06 0.194 0.103 0.241 0.13l-0.37 1.03c-0.16-0.1-0.391-0.193-0.691-0.28-0.293-0.093-0.613-0.141-0.959-0.141-0.3 0-0.581 0.054-0.841 0.161-0.26 0.1-0.486 0.253-0.68 0.459-0.187 0.207-0.334 0.466-0.441 0.78-0.107 0.313-0.159 0.677-0.159 1.091 0 0.367 0.04 0.703 0.12 1.01 0.087 0.307 0.216 0.573 0.389 0.8 0.173 0.22 0.394 0.394 0.661 0.52 0.267 0.12 0.586 0.18 0.959 0.18 0.447 0 0.811-0.043 1.091-0.13 0.28-0.093 0.497-0.179 0.65-0.259l0.339 1.03c-0.08 0.053-0.19 0.106-0.33 0.159-0.133 0.053-0.293 0.108-0.48 0.161-0.187 0.047-0.396 0.083-0.63 0.109-0.233 0.033-0.483 0.05-0.75 0.05-0.52 0-0.987-0.081-1.4-0.241s-0.763-0.393-1.05-0.7c-0.287-0.313-0.508-0.692-0.661-1.139s-0.23-0.961-0.23-1.541 0.088-1.092 0.261-1.539c0.18-0.447 0.423-0.825 0.73-1.131 0.307-0.313 0.666-0.549 1.08-0.709 0.413-0.16 0.856-0.241 1.33-0.241zm4.867 1.731c0.307 0 0.6 0.029 0.88 0.089 0.28 0.053 0.49 0.108 0.63 0.161l-0.22 0.98c-0.133-0.06-0.303-0.114-0.509-0.161-0.207-0.053-0.447-0.08-0.72-0.08-0.247 0-0.447 0.043-0.6 0.13-0.153 0.08-0.23 0.208-0.23 0.381 0 0.087 0.014 0.163 0.041 0.23 0.033 0.067 0.086 0.129 0.159 0.189 0.073 0.053 0.171 0.11 0.291 0.17 0.12 0.053 0.266 0.11 0.439 0.17 0.287 0.107 0.53 0.214 0.73 0.32 0.2 0.1 0.364 0.217 0.491 0.35 0.133 0.127 0.231 0.272 0.291 0.439s0.089 0.367 0.089 0.6c0 0.5-0.186 0.881-0.559 1.141-0.367 0.253-0.893 0.38-1.58 0.38-0.46 0-0.831-0.04-1.111-0.12-0.28-0.073-0.476-0.133-0.589-0.18l0.209-1.01c0.18 0.073 0.394 0.143 0.641 0.209 0.253 0.067 0.539 0.1 0.859 0.1s0.553-0.036 0.7-0.109c0.147-0.08 0.22-0.213 0.22-0.4 0-0.173-0.081-0.316-0.241-0.43-0.153-0.113-0.41-0.237-0.77-0.37-0.22-0.08-0.423-0.163-0.609-0.25-0.18-0.093-0.337-0.2-0.47-0.32s-0.24-0.263-0.32-0.43c-0.073-0.173-0.109-0.383-0.109-0.63 0-0.48 0.176-0.858 0.53-1.131 0.353-0.28 0.834-0.419 1.441-0.419zm3.82 3.894h0.575v2.141h0.389v0.495h-0.389v0.83h-0.591v-0.83h-1.52v-0.43c0.067-0.147 0.156-0.316 0.266-0.506 0.113-0.19 0.238-0.384 0.375-0.584s0.281-0.397 0.434-0.591c0.153-0.193 0.308-0.368 0.461-0.525zm-0.016 0.745c-0.08 0.097-0.163 0.201-0.25 0.311-0.083 0.11-0.165 0.224-0.245 0.344s-0.156 0.244-0.23 0.37c-0.073 0.123-0.14 0.247-0.2 0.37h0.925v-1.395z" fill="#2e3440"/>
</svg>
