<svg viewBox="0 0 16 16" xmlns="http://www.w3.org/2000/svg">
 <path d="m1.6 0c-0.886 0-1.6 0.714-1.6 1.6v12.8c0 0.886 0.714 1.6 1.6 1.6h12.8c0.886 0 1.6-0.714 1.6-1.6v-12.8c0-0.886-0.714-1.6-1.6-1.6h-12.8zm2.369 4.47h1.191c0.233 0.493 0.46 0.993 0.68 1.5s0.441 1.04 0.661 1.6c0.227 0.56 0.456 1.153 0.689 1.78 0.24 0.627 0.49 1.31 0.75 2.05h-1.359c-0.093-0.273-0.191-0.543-0.291-0.809-0.1-0.267-0.196-0.54-0.289-0.82h-2.92c-0.093 0.28-0.191 0.556-0.291 0.83l-0.28 0.8h-1.309c0.26-0.74 0.506-1.423 0.739-2.05s0.46-1.22 0.68-1.78c0.227-0.56 0.45-1.093 0.67-1.6s0.446-1.01 0.68-1.5zm0.57 1.339c-0.153 0.353-0.33 0.784-0.53 1.291-0.193 0.507-0.396 1.057-0.609 1.65h2.28c-0.213-0.593-0.42-1.146-0.62-1.659s-0.374-0.941-0.52-1.281zm6.256 0.25c0.08 0 0.173 7e-3 0.28 0.02 0.107 7e-3 0.214 0.021 0.32 0.041 0.107 0.013 0.209 0.033 0.309 0.059 0.1 0.02 0.181 0.041 0.241 0.061l-0.209 1.019c-0.1-0.033-0.24-0.067-0.42-0.1-0.173-0.04-0.378-0.059-0.611-0.059-0.133 0-0.276 0.014-0.43 0.041-0.147 0.027-0.249 0.049-0.309 0.069v4.191h-1.211v-4.98c0.233-0.087 0.524-0.167 0.87-0.241 0.353-0.08 0.744-0.12 1.17-0.12zm2.564 3.795c0.407 0 0.712 0.132 0.919 0.395 0.21 0.26 0.316 0.628 0.316 1.105 0 0.673-0.174 1.183-0.52 1.53-0.347 0.347-0.879 0.522-1.595 0.525l-0.025-0.505c0.2 0 0.381-0.017 0.541-0.05 0.163-0.033 0.305-0.086 0.425-0.159 0.123-0.073 0.226-0.169 0.309-0.286 0.083-0.12 0.147-0.266 0.191-0.439-0.08 0.037-0.169 0.064-0.266 0.084s-0.19 0.03-0.28 0.03c-0.207 0-0.383-0.026-0.53-0.08-0.143-0.057-0.261-0.133-0.355-0.23-0.09-0.1-0.157-0.215-0.2-0.345s-0.066-0.27-0.066-0.42c0-0.13 0.022-0.26 0.066-0.394 0.043-0.137 0.111-0.262 0.205-0.375 0.093-0.113 0.211-0.205 0.355-0.275 0.143-0.073 0.314-0.111 0.511-0.111zm0.014 0.5c-0.097 0-0.18 0.021-0.25 0.061-0.067 0.04-0.121 0.091-0.164 0.155-0.043 0.063-0.075 0.131-0.095 0.205-0.02 0.073-0.03 0.146-0.03 0.216 0 0.203 0.047 0.356 0.144 0.459 0.1 0.103 0.256 0.155 0.466 0.155 0.097 0 0.191-8e-3 0.284-0.025 0.093-0.02 0.174-0.048 0.241-0.084 3e-3 -0.037 5e-3 -0.069 5e-3 -0.095v-0.07c0-0.133-0.01-0.258-0.03-0.375-0.017-0.12-0.049-0.223-0.095-0.309-0.043-0.09-0.104-0.161-0.184-0.211-0.077-0.053-0.174-0.08-0.291-0.08z" fill="#2e3440"/>
</svg>
