<svg viewBox="0 0 16 16" xmlns="http://www.w3.org/2000/svg">
 <path d="m1.6 0c-0.886 0-1.6 0.714-1.6 1.6v12.8c0 0.886 0.714 1.6 1.6 1.6h12.8c0.886 0 1.6-0.714 1.6-1.6v-12.8c0-0.886-0.714-1.6-1.6-1.6h-12.8zm4.892 4.509c0.287 0 0.546 0.024 0.78 0.07 0.233 0.04 0.436 0.087 0.609 0.141 0.173 0.053 0.316 0.11 0.43 0.17 0.113 0.06 0.194 0.103 0.241 0.13l-0.37 1.03c-0.16-0.1-0.389-0.193-0.689-0.28-0.293-0.093-0.614-0.141-0.961-0.141-0.3 0-0.579 0.054-0.839 0.161-0.26 0.1-0.488 0.253-0.681 0.459-0.187 0.207-0.332 0.466-0.439 0.78-0.107 0.313-0.161 0.677-0.161 1.091 0 0.367 0.04 0.703 0.12 1.01 0.087 0.307 0.217 0.573 0.391 0.8 0.173 0.22 0.393 0.394 0.659 0.52 0.267 0.12 0.588 0.18 0.961 0.18 0.447 0 0.809-0.043 1.089-0.13 0.28-0.093 0.497-0.179 0.65-0.259l0.341 1.03c-0.08 0.053-0.19 0.106-0.33 0.159-0.133 0.053-0.295 0.108-0.481 0.161-0.187 0.047-0.396 0.083-0.63 0.109-0.233 0.033-0.483 0.05-0.75 0.05-0.52 0-0.987-0.081-1.4-0.241s-0.763-0.393-1.05-0.7c-0.287-0.313-0.506-0.692-0.659-1.139s-0.23-0.961-0.23-1.541 0.086-1.092 0.259-1.539c0.18-0.447 0.423-0.825 0.73-1.131 0.307-0.313 0.666-0.549 1.08-0.709 0.413-0.16 0.858-0.241 1.331-0.241zm4.866 1.731c0.307 0 0.6 0.029 0.88 0.089 0.28 0.053 0.491 0.108 0.631 0.161l-0.22 0.98c-0.133-0.06-0.304-0.114-0.511-0.161-0.207-0.053-0.445-0.08-0.719-0.08-0.247 0-0.447 0.043-0.6 0.13-0.153 0.08-0.231 0.208-0.231 0.381 0 0.087 0.014 0.163 0.041 0.23 0.033 0.067 0.086 0.129 0.159 0.189 0.073 0.053 0.171 0.11 0.291 0.17 0.12 0.053 0.267 0.11 0.441 0.17 0.287 0.107 0.53 0.214 0.73 0.32 0.2 0.1 0.362 0.217 0.489 0.35 0.133 0.127 0.231 0.272 0.291 0.439s0.091 0.367 0.091 0.6c0 0.5-0.188 0.881-0.561 1.141-0.367 0.253-0.893 0.38-1.58 0.38-0.46 0-0.829-0.04-1.109-0.12-0.28-0.073-0.477-0.133-0.591-0.18l0.209-1.01c0.18 0.073 0.394 0.143 0.641 0.209 0.253 0.067 0.539 0.1 0.859 0.1s0.553-0.036 0.7-0.109c0.147-0.08 0.22-0.213 0.22-0.4 0-0.173-0.079-0.316-0.239-0.43-0.153-0.113-0.41-0.237-0.77-0.37-0.22-0.08-0.424-0.163-0.611-0.25-0.18-0.093-0.335-0.2-0.469-0.32-0.133-0.12-0.24-0.263-0.32-0.43-0.073-0.173-0.111-0.383-0.111-0.63 0-0.48 0.178-0.858 0.531-1.131 0.353-0.28 0.832-0.419 1.439-0.419z" fill="#2e3440"/>
</svg>
