<svg viewBox="0 0 16 16" xmlns="http://www.w3.org/2000/svg">
 <path d="m1.6 0c-0.886 0-1.6 0.714-1.6 1.6v12.8c0 0.886 0.714 1.6 1.6 1.6h12.8c0.886 0 1.6-0.714 1.6-1.6v-12.8c0-0.886-0.714-1.6-1.6-1.6h-12.8zm1.053 4.47h1.259v5.839h3.12v1.091h-4.38v-6.93zm6.422 0.12v1.58h1.861v1.01h-1.861v2.13c0 0.42 0.067 0.72 0.2 0.9s0.36 0.27 0.68 0.27c0.22 0 0.415-0.024 0.581-0.07 0.173-0.047 0.309-0.09 0.409-0.13l0.2 0.961c-0.14 0.06-0.323 0.12-0.55 0.18-0.227 0.067-0.493 0.1-0.8 0.1-0.373 0-0.687-0.05-0.941-0.15-0.247-0.1-0.442-0.243-0.589-0.43-0.147-0.193-0.251-0.424-0.311-0.691-0.06-0.273-0.089-0.583-0.089-0.93v-4.53l1.209-0.2zm3.959 5.344h0.575v2.141h0.391v0.495h-0.391v0.83h-0.589v-0.83h-1.52v-0.43c0.067-0.147 0.156-0.316 0.266-0.506 0.113-0.19 0.238-0.384 0.375-0.584s0.281-0.397 0.434-0.591c0.153-0.193 0.306-0.368 0.459-0.525zm-0.014 0.745c-0.08 0.097-0.163 0.201-0.25 0.311-0.083 0.11-0.165 0.224-0.245 0.344s-0.156 0.244-0.23 0.37c-0.073 0.123-0.14 0.247-0.2 0.37h0.925v-1.395z" fill="#2e3440"/>
</svg>
