<svg viewBox="0 0 16 16" xmlns="http://www.w3.org/2000/svg">
 <path d="m1.6 0c-0.886 0-1.6 0.714-1.6 1.6v12.8c0 0.886 0.714 1.6 1.6 1.6h12.8c0.886 0 1.6-0.714 1.6-1.6v-12.8c0-0.886-0.714-1.6-1.6-1.6h-12.8zm2.152 4.67h1.261v5.839h3.119v1.091h-4.38v-6.93zm4.203 1.7h1.289c0.073 0.293 0.157 0.61 0.25 0.95 0.1 0.333 0.204 0.669 0.311 1.01 0.113 0.333 0.226 0.66 0.339 0.98 0.12 0.313 0.231 0.597 0.331 0.85 0.1-0.253 0.205-0.537 0.319-0.85 0.113-0.32 0.225-0.646 0.331-0.98 0.113-0.34 0.219-0.676 0.319-1.01 0.1-0.34 0.188-0.657 0.261-0.95h1.25c-0.287 1.02-0.608 1.977-0.961 2.87-0.347 0.887-0.685 1.673-1.019 2.359h-1.041c-0.333-0.687-0.676-1.473-1.03-2.359-0.347-0.893-0.663-1.85-0.95-2.87z" fill="#2e3440"/>
</svg>
