<svg viewBox="0 0 16 16" xmlns="http://www.w3.org/2000/svg">
 <path d="m1.6 0c-0.886 0-1.6 0.714-1.6 1.6v12.8c0 0.886 0.714 1.6 1.6 1.6h12.8c0.886 0 1.6-0.714 1.6-1.6v-12.8c0-0.886-0.714-1.6-1.6-1.6h-12.8zm-0.383 4.47h1.261v2.77h3.01v-2.77h1.261v6.93h-1.261v-3.07h-3.01v3.07h-1.261v-6.93zm6.448 1.7h1.289c0.067 0.28 0.147 0.583 0.241 0.909 0.1 0.327 0.207 0.66 0.32 1 0.113 0.333 0.233 0.667 0.359 1 0.127 0.333 0.253 0.643 0.38 0.93 0.213-0.593 0.413-1.222 0.6-1.889 0.187-0.673 0.358-1.323 0.511-1.95h1.25c-0.54 1.987-1.166 3.787-1.88 5.4-0.133 0.3-0.271 0.557-0.411 0.77s-0.297 0.39-0.47 0.53-0.366 0.24-0.58 0.3c-0.213 0.067-0.459 0.1-0.739 0.1-0.187 0-0.374-0.021-0.561-0.061-0.18-0.04-0.316-0.083-0.409-0.13l0.22-0.97c0.24 0.093 0.476 0.141 0.709 0.141 0.313 0 0.556-0.076 0.73-0.23 0.18-0.147 0.337-0.377 0.47-0.691-0.38-0.733-0.747-1.533-1.1-2.4-0.347-0.867-0.656-1.786-0.93-2.759zm6.805 3.764h0.575v2.141h0.391v0.495h-0.391v0.83h-0.589v-0.83h-1.52v-0.43c0.067-0.147 0.154-0.316 0.264-0.506 0.113-0.19 0.238-0.384 0.375-0.584s0.283-0.397 0.436-0.591c0.153-0.193 0.306-0.368 0.459-0.525zm-0.014 0.745c-0.08 0.097-0.163 0.201-0.25 0.311-0.083 0.11-0.165 0.224-0.245 0.344s-0.156 0.244-0.23 0.37c-0.073 0.123-0.14 0.247-0.2 0.37h0.925v-1.395z" fill="#2e3440"/>
</svg>
