<svg viewBox="0 0 16 16" xmlns="http://www.w3.org/2000/svg">
 <path d="m1.6 0c-0.886 0-1.6 0.714-1.6 1.6v12.8c0 0.886 0.714 1.6 1.6 1.6h12.8c0.886 0 1.6-0.714 1.6-1.6v-12.8c0-0.886-0.714-1.6-1.6-1.6h-12.8zm1.547 4.67h4.38v1.07h-3.12v1.769h2.77v1.07h-2.77v3.02h-1.259v-6.93zm7.55 1.57c0.367 0 0.703 0.067 1.01 0.2 0.313 0.127 0.58 0.31 0.8 0.55s0.391 0.529 0.511 0.869c0.127 0.333 0.189 0.707 0.189 1.12s-0.06 0.79-0.18 1.13-0.289 0.63-0.509 0.87-0.487 0.428-0.8 0.561c-0.307 0.133-0.647 0.2-1.02 0.2s-0.714-0.067-1.02-0.2c-0.307-0.133-0.569-0.321-0.789-0.561s-0.394-0.53-0.52-0.87c-0.12-0.34-0.18-0.716-0.18-1.13 0-0.413 0.06-0.787 0.18-1.12 0.127-0.34 0.3-0.629 0.52-0.869 0.227-0.24 0.493-0.423 0.8-0.55 0.307-0.133 0.643-0.2 1.01-0.2zm0 1.05c-0.4 0-0.714 0.153-0.941 0.459-0.22 0.3-0.33 0.71-0.33 1.23 0 0.527 0.11 0.943 0.33 1.25 0.227 0.307 0.541 0.461 0.941 0.461s0.71-0.154 0.93-0.461c0.227-0.307 0.341-0.723 0.341-1.25 0-0.52-0.114-0.93-0.341-1.23-0.22-0.307-0.53-0.459-0.93-0.459z" fill="#2e3440"/>
</svg>
