<svg viewBox="0 0 16 16" xmlns="http://www.w3.org/2000/svg">
 <path d="m1.6 0c-0.886 0-1.6 0.714-1.6 1.6v12.8c0 0.886 0.714 1.6 1.6 1.6h12.8c0.886 0 1.6-0.714 1.6-1.6v-12.8c0-0.886-0.714-1.6-1.6-1.6h-12.8zm9.04 3.841v4.569c0.153-0.16 0.317-0.329 0.491-0.509 0.173-0.187 0.343-0.37 0.509-0.55 0.167-0.187 0.324-0.363 0.47-0.53 0.153-0.173 0.284-0.323 0.391-0.45h1.43c-0.333 0.373-0.688 0.759-1.061 1.159-0.367 0.4-0.736 0.79-1.109 1.17 0.2 0.167 0.41 0.369 0.63 0.609 0.22 0.233 0.434 0.483 0.641 0.75s0.4 0.533 0.58 0.8 0.33 0.514 0.45 0.741h-1.4c-0.12-0.207-0.26-0.423-0.42-0.65-0.153-0.227-0.32-0.446-0.5-0.659s-0.363-0.413-0.55-0.6c-0.187-0.193-0.37-0.357-0.55-0.491v2.4h-1.209v-7.559l1.209-0.2zm-5.995 0.83h1.189c0.233 0.493 0.461 0.993 0.681 1.5s0.439 1.04 0.659 1.6c0.227 0.56 0.457 1.153 0.691 1.78 0.24 0.627 0.49 1.31 0.75 2.05h-1.361c-0.093-0.273-0.189-0.543-0.289-0.809-0.1-0.267-0.197-0.54-0.291-0.82h-2.92c-0.093 0.28-0.189 0.556-0.289 0.83l-0.281 0.8h-1.309c0.26-0.74 0.507-1.423 0.741-2.05 0.233-0.627 0.46-1.22 0.68-1.78 0.227-0.56 0.45-1.093 0.67-1.6s0.446-1.01 0.68-1.5zm0.57 1.339c-0.153 0.353-0.331 0.784-0.531 1.291-0.193 0.507-0.396 1.057-0.609 1.65h2.28c-0.213-0.593-0.42-1.146-0.62-1.659s-0.372-0.941-0.519-1.281z" fill="#2e3440"/>
</svg>
