<svg viewBox="0 0 16 16" xmlns="http://www.w3.org/2000/svg">
 <path d="m1.6 0c-0.886 0-1.6 0.714-1.6 1.6v12.8c0 0.886 0.714 1.6 1.6 1.6h12.8c0.886 0 1.6-0.714 1.6-1.6v-12.8c0-0.886-0.714-1.6-1.6-1.6h-12.8zm8.584 3.841v2.589c0.133-0.047 0.288-0.087 0.461-0.12 0.18-0.033 0.356-0.05 0.53-0.05 0.42 0 0.767 0.061 1.041 0.181 0.28 0.113 0.502 0.276 0.669 0.489 0.167 0.207 0.283 0.457 0.35 0.75 0.073 0.293 0.111 0.62 0.111 0.98v2.941h-1.211v-2.75c0-0.28-0.019-0.516-0.059-0.709-0.033-0.2-0.093-0.361-0.18-0.481-0.08-0.127-0.19-0.215-0.33-0.269-0.14-0.06-0.314-0.091-0.52-0.091-0.16 0-0.324 0.017-0.491 0.05s-0.29 0.064-0.37 0.091v4.159h-1.209v-7.559l1.209-0.2zm-5.42 0.759c1.01 0 1.778 0.183 2.311 0.55 0.54 0.367 0.809 0.94 0.809 1.72 0 0.407-0.074 0.757-0.22 1.05-0.14 0.287-0.345 0.523-0.619 0.709-0.273 0.18-0.607 0.313-1 0.4s-0.843 0.13-1.35 0.13h-0.631v2.441h-1.259v-6.83c0.293-0.067 0.617-0.11 0.97-0.13 0.36-0.027 0.689-0.041 0.989-0.041zm0.091 1.091c-0.32 0-0.584 0.01-0.791 0.03v2.359h0.611c0.607 0 1.073-0.083 1.4-0.25 0.327-0.173 0.489-0.497 0.489-0.97 0-0.227-0.043-0.415-0.13-0.569-0.087-0.153-0.206-0.274-0.359-0.361s-0.337-0.146-0.55-0.18c-0.207-0.04-0.43-0.059-0.67-0.059z" fill="#2e3440"/>
</svg>
