<svg viewBox="0 0 16 16" xmlns="http://www.w3.org/2000/svg">
 <path d="m1.6 0c-0.886 0-1.6 0.714-1.6 1.6v12.8c0 0.886 0.714 1.6 1.6 1.6h12.8c0.886 0 1.6-0.714 1.6-1.6v-12.8c0-0.886-0.714-1.6-1.6-1.6h-12.8zm8.57 3.641v5.989c0 0.147 0.01 0.27 0.03 0.37 0.027 0.1 0.07 0.186 0.13 0.259 0.06 0.067 0.141 0.121 0.241 0.161 0.107 0.033 0.24 0.06 0.4 0.08l-0.17 1c-0.36-7e-3 -0.66-0.047-0.9-0.12-0.233-0.073-0.419-0.176-0.559-0.309-0.14-0.14-0.24-0.311-0.3-0.511-0.053-0.207-0.081-0.44-0.081-0.7v-6.02l1.211-0.2zm-5.402 0.759c1.01 0 1.778 0.183 2.311 0.55 0.54 0.367 0.809 0.94 0.809 1.72 0 0.407-0.074 0.757-0.22 1.05-0.14 0.287-0.345 0.523-0.619 0.709-0.273 0.18-0.607 0.313-1 0.4s-0.843 0.13-1.35 0.13h-0.631v2.441h-1.259v-6.83c0.293-0.067 0.617-0.11 0.97-0.13 0.36-0.027 0.689-0.041 0.989-0.041zm0.091 1.091c-0.32 0-0.584 0.01-0.791 0.03v2.359h0.611c0.607 0 1.073-0.083 1.4-0.25 0.327-0.173 0.489-0.497 0.489-0.97 0-0.227-0.043-0.415-0.13-0.569-0.087-0.153-0.206-0.274-0.359-0.361s-0.337-0.146-0.55-0.18c-0.207-0.04-0.43-0.059-0.67-0.059zm8.68 4.425 0.034 0.5c-0.18 3e-3 -0.348 0.023-0.505 0.059-0.157 0.033-0.297 0.086-0.42 0.159s-0.23 0.169-0.32 0.286c-0.087 0.117-0.153 0.26-0.2 0.43 0.163-0.077 0.343-0.116 0.536-0.116 0.207 0 0.382 0.031 0.525 0.091 0.147 0.057 0.265 0.134 0.355 0.234s0.155 0.217 0.195 0.35c0.043 0.13 0.064 0.268 0.064 0.411 0 0.13-0.022 0.263-0.069 0.4-0.043 0.137-0.114 0.262-0.211 0.375-0.093 0.11-0.211 0.202-0.355 0.275-0.143 0.07-0.313 0.105-0.509 0.105-0.397 0-0.701-0.131-0.911-0.391-0.207-0.263-0.309-0.624-0.309-1.084 0-0.333 0.049-0.628 0.145-0.884 0.1-0.26 0.239-0.48 0.419-0.656 0.183-0.177 0.404-0.31 0.661-0.4 0.26-0.093 0.552-0.14 0.875-0.144zm-0.95 1.8c-0.097 0-0.19 8e-3 -0.28 0.025s-0.172 0.042-0.245 0.075c-3e-3 0.027-8e-3 0.056-0.011 0.089v0.091c0 0.133 8e-3 0.26 0.025 0.38 0.02 0.117 0.052 0.219 0.095 0.309 0.047 0.087 0.109 0.158 0.186 0.211 0.08 0.05 0.177 0.075 0.294 0.075 0.097 0 0.179-0.021 0.245-0.061 0.07-0.04 0.127-0.091 0.17-0.155 0.043-0.063 0.075-0.131 0.095-0.205 0.02-0.077 0.03-0.15 0.03-0.22 0-0.2-0.049-0.351-0.145-0.455-0.097-0.107-0.249-0.159-0.459-0.159z" fill="#2e3440"/>
</svg>
