<svg viewBox="0 0 16 16" xmlns="http://www.w3.org/2000/svg">
 <path d="m1.6 0c-0.886 0-1.6 0.714-1.6 1.6v12.8c0 0.886 0.714 1.6 1.6 1.6h12.8c0.886 0 1.6-0.714 1.6-1.6v-12.8c0-0.886-0.714-1.6-1.6-1.6h-12.8zm1.603 4.6c0.42 0 0.809 0.033 1.169 0.1 0.36 0.06 0.671 0.163 0.931 0.309 0.267 0.147 0.472 0.341 0.619 0.581s0.22 0.536 0.22 0.889c0 0.327-0.079 0.607-0.239 0.841-0.153 0.233-0.37 0.419-0.65 0.559 0.42 0.14 0.73 0.347 0.93 0.62s0.3 0.621 0.3 1.041c0 0.713-0.26 1.249-0.78 1.609-0.52 0.353-1.317 0.53-2.391 0.53-0.367 0-0.736-0.012-1.109-0.039-0.373-0.02-0.701-0.067-0.981-0.141v-6.73c0.147-0.027 0.304-0.05 0.47-0.07 0.167-0.027 0.338-0.046 0.511-0.059s0.343-0.025 0.509-0.031c0.173-7e-3 0.337-9e-3 0.491-9e-3zm0.159 1.03c-0.193 0-0.367 4e-3 -0.52 0.011-0.147 7e-3 -0.273 0.016-0.38 0.03v1.82h0.891c0.48 0 0.856-0.067 1.13-0.2 0.273-0.14 0.409-0.387 0.409-0.741 0-0.333-0.143-0.569-0.43-0.709-0.28-0.14-0.647-0.211-1.1-0.211zm6.472 0.63c0.36 0 0.655 0.047 0.881 0.141 0.233 0.093 0.426 0.217 0.58 0.37 0.073-0.053 0.166-0.11 0.28-0.17 0.113-0.06 0.24-0.113 0.38-0.159 0.14-0.053 0.287-0.098 0.441-0.131 0.16-0.033 0.32-0.05 0.48-0.05 0.407 0 0.74 0.061 1 0.181 0.267 0.113 0.474 0.276 0.62 0.489 0.153 0.207 0.256 0.461 0.309 0.761 0.06 0.293 0.091 0.615 0.091 0.969v2.941h-1.211v-2.75c0-0.547-0.067-0.94-0.2-1.18-0.133-0.247-0.389-0.37-0.769-0.37-0.193 0-0.377 0.033-0.55 0.1-0.173 0.06-0.304 0.12-0.391 0.18 0.053 0.167 0.089 0.343 0.109 0.53s0.031 0.387 0.031 0.6v2.891h-1.211v-2.75c0-0.547-0.069-0.94-0.209-1.18-0.133-0.247-0.388-0.37-0.761-0.37-0.133 0-0.279 0.01-0.439 0.03s-0.281 0.037-0.361 0.05v4.22h-1.209v-5.059c0.233-0.067 0.536-0.131 0.909-0.191 0.38-0.06 0.78-0.091 1.2-0.091zm-7.372 2.22v2.111c0.14 0.013 0.29 0.023 0.45 0.03s0.307 9e-3 0.441 9e-3c0.26 0 0.499-0.017 0.719-0.05 0.227-0.033 0.421-0.09 0.581-0.17 0.167-0.087 0.296-0.199 0.389-0.339 0.1-0.14 0.15-0.321 0.15-0.541 0-0.393-0.143-0.667-0.43-0.82s-0.684-0.23-1.191-0.23h-1.109z" fill="#2e3440"/>
</svg>
