<svg viewBox="0 0 16 16" xmlns="http://www.w3.org/2000/svg">
 <path d="m1.6 0c-0.886 0-1.6 0.714-1.6 1.6v12.8c0 0.886 0.714 1.6 1.6 1.6h12.8c0.886 0 1.6-0.714 1.6-1.6v-12.8c0-0.886-0.714-1.6-1.6-1.6h-12.8zm1.595 4.4c1 0 1.764 0.183 2.291 0.55 0.533 0.367 0.8 0.926 0.8 1.68 0 0.94-0.464 1.578-1.391 1.911 0.127 0.153 0.271 0.339 0.431 0.559s0.322 0.46 0.489 0.72c0.167 0.253 0.326 0.516 0.48 0.789 0.153 0.267 0.291 0.531 0.411 0.791h-1.411c-0.127-0.24-0.263-0.48-0.409-0.72-0.147-0.247-0.297-0.483-0.45-0.709-0.147-0.233-0.294-0.45-0.441-0.65-0.147-0.207-0.283-0.39-0.409-0.55-0.093 7e-3 -0.174 9e-3 -0.241 9e-3h-0.8v2.62h-1.259v-6.83c0.307-0.067 0.633-0.11 0.98-0.13 0.347-0.027 0.656-0.041 0.93-0.041zm0.091 1.091c-0.267 0-0.514 0.01-0.741 0.03v2.239h0.55c0.307 0 0.578-0.017 0.811-0.05s0.426-0.093 0.58-0.18c0.16-0.087 0.279-0.203 0.359-0.35s0.12-0.333 0.12-0.559c0-0.213-0.04-0.394-0.12-0.541s-0.197-0.263-0.35-0.35c-0.147-0.087-0.323-0.146-0.53-0.18-0.207-0.04-0.433-0.059-0.68-0.059zm4.286 0.68h1.211v2.739c0 0.56 0.079 0.96 0.239 1.2 0.167 0.24 0.454 0.361 0.861 0.361 0.147 0 0.299-7e-3 0.459-0.02 0.167-0.013 0.29-0.03 0.37-0.05v-4.23h1.209v5.07c-0.233 0.06-0.536 0.12-0.909 0.18-0.373 0.067-0.783 0.1-1.23 0.1-0.42 0-0.774-0.06-1.061-0.18-0.28-0.12-0.506-0.287-0.68-0.5-0.167-0.213-0.286-0.468-0.359-0.761-0.073-0.3-0.111-0.626-0.111-0.98v-2.93zm6.83 3.764h0.575v2.141h0.391v0.495h-0.391v0.83h-0.589v-0.83h-1.52v-0.43c0.067-0.147 0.156-0.316 0.266-0.506 0.113-0.19 0.238-0.384 0.375-0.584s0.281-0.397 0.434-0.591c0.153-0.193 0.306-0.368 0.459-0.525zm-0.014 0.745c-0.08 0.097-0.163 0.201-0.25 0.311-0.083 0.11-0.165 0.224-0.245 0.344s-0.156 0.244-0.23 0.37c-0.073 0.123-0.14 0.247-0.2 0.37h0.925v-1.395z" fill="#2e3440"/>
</svg>
