<svg viewBox="0 0 16 16" xmlns="http://www.w3.org/2000/svg">
 <path d="m1.6 0c-0.886 0-1.6 0.714-1.6 1.6v12.8c0 0.886 0.714 1.6 1.6 1.6h12.8c0.886 0 1.6-0.714 1.6-1.6v-12.8c0-0.886-0.714-1.6-1.6-1.6h-12.8zm0.731 4.47h1.259v5.839h3.12v1.091h-4.38v-6.93zm4.202 1.7h1.291c0.073 0.293 0.157 0.61 0.25 0.95 0.1 0.333 0.203 0.669 0.309 1.01 0.113 0.333 0.227 0.66 0.341 0.98 0.12 0.313 0.23 0.597 0.33 0.85 0.1-0.253 0.207-0.537 0.32-0.85 0.113-0.32 0.223-0.646 0.33-0.98 0.113-0.34 0.22-0.676 0.32-1.01 0.1-0.34 0.186-0.657 0.259-0.95h1.25c-0.287 1.02-0.606 1.977-0.959 2.87-0.347 0.887-0.687 1.673-1.02 2.359h-1.039c-0.333-0.687-0.678-1.473-1.031-2.359-0.347-0.893-0.663-1.85-0.95-2.87zm6.675 3.764h0.425v3.466h-0.606v-2.655c-0.09 0.07-0.202 0.138-0.339 0.205s-0.269 0.122-0.395 0.166l-0.184-0.461c0.193-0.077 0.386-0.175 0.58-0.295 0.197-0.12 0.37-0.262 0.52-0.425z" fill="#2e3440"/>
</svg>
