<svg viewBox="0 0 16 16" xmlns="http://www.w3.org/2000/svg">
 <path d="m1.6 0c-0.886 0-1.6 0.714-1.6 1.6v12.8c0 0.886 0.714 1.6 1.6 1.6h12.8c0.886 0 1.6-0.714 1.6-1.6v-12.8c0-0.886-0.714-1.6-1.6-1.6h-12.8zm-0.05 4.47h4.45v1.07h-3.191v1.709h2.841v1.05h-2.841v2.03h3.43v1.07h-4.689v-6.93zm7.948 1.589c0.427 0 0.784 0.061 1.07 0.181 0.287 0.113 0.513 0.276 0.68 0.489 0.173 0.207 0.294 0.461 0.361 0.761 0.073 0.293 0.109 0.615 0.109 0.969v2.941h-1.209v-2.75c0-0.28-0.021-0.516-0.061-0.709-0.033-0.2-0.093-0.361-0.18-0.481-0.08-0.127-0.192-0.215-0.339-0.269-0.14-0.06-0.314-0.091-0.52-0.091-0.153 0-0.313 0.01-0.48 0.03s-0.29 0.037-0.37 0.05v4.22h-1.211v-5.059c0.233-0.067 0.538-0.131 0.911-0.191s0.786-0.091 1.239-0.091zm4.291 3.795c0.407 0 0.712 0.132 0.919 0.395 0.21 0.26 0.316 0.628 0.316 1.105 0 0.673-0.174 1.183-0.52 1.53-0.347 0.347-0.879 0.522-1.595 0.525l-0.025-0.505c0.2 0 0.381-0.017 0.541-0.05 0.163-0.033 0.305-0.086 0.425-0.159 0.123-0.073 0.226-0.169 0.309-0.286 0.083-0.12 0.147-0.266 0.191-0.439-0.08 0.037-0.169 0.064-0.266 0.084s-0.19 0.03-0.28 0.03c-0.207 0-0.383-0.026-0.53-0.08-0.143-0.057-0.261-0.133-0.355-0.23-0.09-0.1-0.157-0.215-0.2-0.345s-0.066-0.27-0.066-0.42c0-0.13 0.022-0.26 0.066-0.394 0.043-0.137 0.111-0.262 0.205-0.375 0.093-0.113 0.211-0.205 0.355-0.275 0.143-0.073 0.314-0.111 0.511-0.111zm0.014 0.5c-0.097 0-0.18 0.021-0.25 0.061-0.067 0.04-0.121 0.091-0.164 0.155-0.043 0.063-0.075 0.131-0.095 0.205-0.02 0.073-0.03 0.146-0.03 0.216 0 0.203 0.047 0.356 0.144 0.459 0.1 0.103 0.256 0.155 0.466 0.155 0.097 0 0.191-8e-3 0.284-0.025 0.093-0.02 0.174-0.048 0.241-0.084 3e-3 -0.037 5e-3 -0.069 5e-3 -0.095v-0.07c0-0.133-0.01-0.258-0.03-0.375-0.017-0.12-0.049-0.223-0.095-0.309-0.043-0.09-0.104-0.161-0.184-0.211-0.077-0.053-0.174-0.08-0.291-0.08z" fill="#2e3440"/>
</svg>
