<svg viewBox="0 0 16 16" xmlns="http://www.w3.org/2000/svg">
 <path d="m1.6 0c-0.886 0-1.6 0.714-1.6 1.6v12.8c0 0.886 0.714 1.6 1.6 1.6h12.8c0.886 0 1.6-0.714 1.6-1.6v-12.8c0-0.886-0.714-1.6-1.6-1.6h-12.8zm1.548 4.4c0.58 0 1.111 0.069 1.591 0.209 0.48 0.133 0.89 0.347 1.23 0.641 0.347 0.287 0.613 0.653 0.8 1.1 0.187 0.44 0.28 0.966 0.28 1.58 0 0.6-0.093 1.124-0.28 1.57-0.187 0.44-0.453 0.809-0.8 1.109-0.34 0.293-0.754 0.514-1.241 0.661-0.48 0.14-1.013 0.209-1.6 0.209-0.28 0-0.597-0.012-0.95-0.039-0.353-0.02-0.689-0.067-1.01-0.141v-6.73c0.32-0.073 0.66-0.121 1.02-0.141s0.679-0.03 0.959-0.03zm0.08 1.091c-0.373 0-0.64 0.01-0.8 0.03v4.839c0.073 7e-3 0.171 0.014 0.291 0.02h0.491c0.847 0 1.476-0.212 1.889-0.639 0.42-0.433 0.63-1.038 0.63-1.811 0-0.787-0.203-1.389-0.609-1.809-0.407-0.42-1.037-0.63-1.891-0.63zm6.769 0.55c0.4 0 0.738 0.05 1.01 0.15 0.273 0.1 0.49 0.239 0.65 0.419 0.167 0.18 0.283 0.401 0.35 0.661 0.073 0.253 0.109 0.532 0.109 0.839v3.17c-0.187 0.04-0.47 0.087-0.85 0.141-0.373 0.06-0.797 0.089-1.27 0.089-0.313 0-0.599-0.029-0.859-0.089s-0.484-0.157-0.67-0.291c-0.18-0.133-0.323-0.307-0.43-0.52-0.1-0.213-0.15-0.476-0.15-0.789 0-0.3 0.057-0.554 0.17-0.761 0.12-0.207 0.28-0.373 0.48-0.5 0.2-0.133 0.429-0.226 0.689-0.28 0.267-0.06 0.545-0.089 0.831-0.089 0.133 0 0.272 0.01 0.419 0.03 0.147 0.013 0.304 0.04 0.47 0.08v-0.2c0-0.14-0.017-0.273-0.05-0.4s-0.093-0.236-0.18-0.33c-0.08-0.1-0.19-0.176-0.33-0.23-0.133-0.053-0.304-0.081-0.511-0.081-0.28 0-0.535 0.021-0.769 0.061-0.233 0.04-0.424 0.086-0.57 0.139l-0.15-0.98c0.153-0.053 0.377-0.106 0.67-0.159s0.606-0.08 0.939-0.08zm0.241 3.02c-0.133 0-0.271 0.011-0.411 0.031-0.133 0.02-0.255 0.056-0.369 0.109-0.107 0.053-0.194 0.13-0.261 0.23-0.067 0.093-0.1 0.214-0.1 0.361 0 0.287 0.09 0.487 0.27 0.6 0.18 0.107 0.423 0.159 0.73 0.159 0.373 0 0.657-0.019 0.85-0.059v-1.341c-0.067-0.02-0.162-0.039-0.289-0.059s-0.267-0.031-0.42-0.031zm3.217 0.875h1.77v0.511h-1.256c-3e-3 0.057-7e-3 0.122-0.014 0.195-3e-3 0.07-9e-3 0.141-0.016 0.214-3e-3 0.073-7e-3 0.144-0.014 0.211s-0.014 0.122-0.02 0.169c0.493 0.027 0.856 0.141 1.089 0.341 0.237 0.197 0.356 0.466 0.356 0.809 0 0.157-0.028 0.303-0.081 0.436s-0.134 0.249-0.244 0.345c-0.11 0.097-0.249 0.173-0.416 0.23-0.167 0.053-0.361 0.08-0.584 0.08-0.09 0-0.182-7e-3 -0.275-0.02s-0.184-0.03-0.27-0.05c-0.083-0.017-0.158-0.035-0.225-0.055s-0.117-0.038-0.15-0.055l0.114-0.511c0.07 0.033 0.17 0.071 0.3 0.111 0.133 0.037 0.296 0.055 0.486 0.055 0.13 0 0.241-0.014 0.334-0.041 0.093-0.03 0.168-0.069 0.225-0.119 0.06-0.05 0.103-0.107 0.13-0.17 0.027-0.067 0.041-0.138 0.041-0.211 0-0.11-0.022-0.207-0.066-0.294-0.043-0.087-0.12-0.16-0.23-0.22-0.107-0.06-0.251-0.106-0.434-0.136-0.18-0.03-0.409-0.044-0.686-0.044 0.037-0.32 0.066-0.624 0.086-0.911 0.02-0.29 0.037-0.58 0.05-0.87z" fill="#2e3440"/>
</svg>
