<svg viewBox="0 0 16 16" xmlns="http://www.w3.org/2000/svg">
 <path d="m1.6 0c-0.886 0-1.6 0.714-1.6 1.6v12.8c0 0.886 0.714 1.6 1.6 1.6h12.8c0.886 0 1.6-0.714 1.6-1.6v-12.8c0-0.886-0.714-1.6-1.6-1.6h-12.8zm7.72 3.641v4.569c0.153-0.16 0.317-0.329 0.491-0.509 0.173-0.187 0.343-0.37 0.509-0.55 0.167-0.187 0.324-0.363 0.47-0.53 0.153-0.173 0.284-0.323 0.391-0.45h1.43c-0.333 0.373-0.686 0.759-1.059 1.159-0.367 0.4-0.738 0.79-1.111 1.17 0.2 0.167 0.41 0.369 0.63 0.609 0.22 0.233 0.434 0.483 0.641 0.75s0.4 0.533 0.58 0.8 0.33 0.514 0.45 0.741h-1.4c-0.12-0.207-0.26-0.423-0.42-0.65-0.153-0.227-0.32-0.446-0.5-0.659s-0.363-0.413-0.55-0.6c-0.187-0.193-0.37-0.357-0.55-0.491v2.4h-1.209v-7.559l1.209-0.2zm-8.231 0.83h1.27v4.209c0 0.313 0.033 0.584 0.1 0.811 0.073 0.22 0.173 0.399 0.3 0.539 0.133 0.14 0.288 0.244 0.461 0.311 0.18 0.067 0.38 0.1 0.6 0.1s0.42-0.033 0.6-0.1 0.333-0.171 0.459-0.311c0.133-0.14 0.233-0.319 0.3-0.539 0.073-0.227 0.109-0.498 0.109-0.811v-4.209h1.27v4.33c0 0.4-0.057 0.767-0.17 1.1-0.107 0.333-0.273 0.624-0.5 0.87-0.22 0.247-0.503 0.44-0.85 0.58-0.347 0.133-0.756 0.2-1.23 0.2-0.473 0-0.88-0.067-1.22-0.2-0.34-0.14-0.623-0.333-0.85-0.58-0.22-0.247-0.382-0.537-0.489-0.87s-0.161-0.7-0.161-1.1v-4.33zm13.18 5.384c0.197 0 0.363 0.029 0.5 0.086 0.14 0.057 0.254 0.129 0.341 0.219 0.09 0.09 0.154 0.19 0.194 0.3s0.061 0.217 0.061 0.32c0 0.183-0.05 0.347-0.15 0.491-0.1 0.14-0.215 0.251-0.345 0.334 0.197 0.107 0.341 0.23 0.434 0.37 0.097 0.14 0.145 0.305 0.145 0.495 0 0.143-0.025 0.277-0.075 0.4s-0.125 0.23-0.225 0.32-0.225 0.159-0.375 0.209c-0.147 0.05-0.316 0.075-0.509 0.075-0.227 0-0.416-0.032-0.566-0.095s-0.269-0.142-0.359-0.239-0.155-0.201-0.195-0.311c-0.037-0.113-0.055-0.22-0.055-0.32s0.012-0.192 0.039-0.275c0.03-0.087 0.07-0.164 0.12-0.234 0.05-0.073 0.107-0.14 0.17-0.2s0.13-0.113 0.2-0.159c-0.153-0.107-0.269-0.222-0.345-0.345-0.073-0.127-0.109-0.281-0.109-0.461 0-0.13 0.025-0.252 0.075-0.369 0.053-0.12 0.128-0.226 0.225-0.316s0.213-0.162 0.35-0.216c0.137-0.053 0.288-0.08 0.455-0.08zm0 0.495c-0.09 0-0.168 0.015-0.234 0.045-0.063 0.027-0.116 0.063-0.156 0.109-0.04 0.043-0.069 0.092-0.089 0.145-0.02 0.05-0.03 0.1-0.03 0.15 0 0.127 0.046 0.246 0.139 0.359 0.097 0.113 0.256 0.204 0.48 0.27 0.123-0.077 0.221-0.163 0.291-0.259 0.07-0.1 0.105-0.226 0.105-0.38 0-0.043-0.01-0.091-0.03-0.141-0.017-0.053-0.047-0.102-0.091-0.145-0.04-0.043-0.091-0.079-0.155-0.109-0.063-0.03-0.14-0.045-0.23-0.045zm-0.184 1.484c-0.12 0.077-0.217 0.171-0.291 0.281-0.073 0.107-0.109 0.234-0.109 0.384 0 0.05 0.01 0.103 0.03 0.159 0.02 0.057 0.053 0.11 0.1 0.156 0.047 0.047 0.106 0.085 0.18 0.119 0.073 0.03 0.165 0.045 0.275 0.045 0.1 0 0.186-0.012 0.259-0.039s0.135-0.063 0.181-0.106c0.047-0.047 0.081-0.098 0.105-0.155 0.023-0.06 0.034-0.12 0.034-0.18 0-0.093-0.018-0.175-0.055-0.245s-0.089-0.13-0.159-0.18c-0.067-0.053-0.147-0.098-0.241-0.134-0.093-0.04-0.196-0.076-0.309-0.106z" fill="#2e3440"/>
</svg>
