<svg viewBox="0 0 16 16" xmlns="http://www.w3.org/2000/svg">
 <path d="m1.6 0c-0.886 0-1.6 0.714-1.6 1.6v12.8c0 0.886 0.714 1.6 1.6 1.6h12.8c0.886 0 1.6-0.714 1.6-1.6v-12.8c0-0.886-0.714-1.6-1.6-1.6h-12.8zm9.991 3.841v5.989c0 0.147 0.01 0.27 0.03 0.37 0.027 0.1 0.071 0.186 0.131 0.259 0.06 0.067 0.139 0.121 0.239 0.161 0.107 0.033 0.24 0.06 0.4 0.08l-0.17 1c-0.36-7e-3 -0.66-0.047-0.9-0.12-0.233-0.073-0.419-0.176-0.559-0.309-0.14-0.14-0.24-0.311-0.3-0.511-0.053-0.207-0.08-0.44-0.08-0.7v-6.02l1.209-0.2zm-5.4 0.759c1.01 0 1.776 0.183 2.309 0.55 0.54 0.367 0.811 0.94 0.811 1.72 0 0.407-0.074 0.757-0.22 1.05-0.14 0.287-0.347 0.523-0.62 0.709-0.273 0.18-0.607 0.313-1 0.4s-0.843 0.13-1.35 0.13h-0.63v2.441h-1.261v-6.83c0.293-0.067 0.617-0.11 0.97-0.13 0.36-0.027 0.691-0.041 0.991-0.041zm0.089 1.091c-0.32 0-0.582 0.01-0.789 0.03v2.359h0.609c0.607 0 1.073-0.083 1.4-0.25 0.327-0.173 0.491-0.497 0.491-0.97 0-0.227-0.043-0.415-0.13-0.569-0.087-0.153-0.208-0.274-0.361-0.361s-0.337-0.146-0.55-0.18c-0.207-0.04-0.43-0.059-0.67-0.059z" fill="#2e3440"/>
</svg>
