<svg viewBox="0 0 16 16" xmlns="http://www.w3.org/2000/svg">
 <path d="m1.6 0c-0.886 0-1.6 0.714-1.6 1.6v12.8c0 0.886 0.714 1.6 1.6 1.6h12.8c0.886 0 1.6-0.714 1.6-1.6v-12.8c0-0.886-0.714-1.6-1.6-1.6h-12.8zm0.231 4.47h1.27v4.209c0 0.313 0.033 0.584 0.1 0.811 0.073 0.22 0.173 0.399 0.3 0.539 0.133 0.14 0.288 0.244 0.461 0.311 0.18 0.067 0.38 0.1 0.6 0.1s0.42-0.033 0.6-0.1 0.333-0.171 0.459-0.311c0.133-0.14 0.233-0.319 0.3-0.539 0.073-0.227 0.109-0.498 0.109-0.811v-4.209h1.27v4.33c0 0.4-0.057 0.767-0.17 1.1-0.107 0.333-0.273 0.624-0.5 0.87-0.22 0.247-0.503 0.44-0.85 0.58-0.347 0.133-0.756 0.2-1.23 0.2-0.473 0-0.88-0.067-1.22-0.2-0.34-0.14-0.623-0.333-0.85-0.58-0.22-0.247-0.382-0.537-0.489-0.87s-0.161-0.7-0.161-1.1v-4.33zm9.06 1.589c0.08 0 0.173 7e-3 0.28 0.02 0.107 7e-3 0.214 0.021 0.32 0.041 0.107 0.013 0.209 0.033 0.309 0.059 0.1 0.02 0.181 0.041 0.241 0.061l-0.211 1.019c-0.1-0.033-0.24-0.067-0.42-0.1-0.173-0.04-0.376-0.059-0.609-0.059-0.133 0-0.276 0.014-0.43 0.041-0.147 0.027-0.251 0.049-0.311 0.069v4.191h-1.209v-4.98c0.233-0.087 0.524-0.167 0.87-0.241 0.353-0.08 0.744-0.12 1.17-0.12zm2.537 3.795c0.37 0 0.642 0.089 0.816 0.266 0.177 0.173 0.264 0.411 0.264 0.714 0 0.12-0.025 0.24-0.075 0.356-0.05 0.113-0.114 0.224-0.194 0.334-0.077 0.107-0.166 0.212-0.266 0.316-0.1 0.1-0.2 0.197-0.3 0.294-0.053 0.05-0.113 0.111-0.18 0.181s-0.131 0.139-0.191 0.209-0.111 0.138-0.155 0.205c-0.043 0.063-0.067 0.118-0.07 0.161h1.541v0.509h-2.205c-3e-3 -0.027-6e-3 -0.059-6e-3 -0.095v-0.089c0-0.16 0.025-0.307 0.075-0.441 0.053-0.137 0.123-0.263 0.206-0.38s0.176-0.226 0.28-0.33c0.103-0.103 0.206-0.206 0.309-0.306 0.08-0.077 0.156-0.152 0.23-0.225 0.073-0.073 0.137-0.144 0.191-0.214 0.057-0.073 0.101-0.147 0.134-0.22 0.033-0.077 0.05-0.154 0.05-0.234 0-0.173-0.05-0.297-0.15-0.37s-0.221-0.111-0.364-0.111c-0.093 0-0.181 0.014-0.261 0.041s-0.151 0.059-0.214 0.095c-0.06 0.037-0.114 0.074-0.161 0.114-0.047 0.037-0.081 0.067-0.105 0.091l-0.3-0.425c0.14-0.133 0.304-0.24 0.491-0.32 0.19-0.083 0.393-0.125 0.609-0.125z" fill="#2e3440"/>
</svg>
