<svg viewBox="0 0 16 16" xmlns="http://www.w3.org/2000/svg">
 <path d="m1.6 0c-0.886 0-1.6 0.714-1.6 1.6v12.8c0 0.886 0.714 1.6 1.6 1.6h12.8c0.886 0 1.6-0.714 1.6-1.6v-12.8c0-0.886-0.714-1.6-1.6-1.6h-12.8zm1.953 4.309c0.287 0 0.546 0.024 0.78 0.07 0.233 0.04 0.438 0.087 0.611 0.141 0.173 0.053 0.316 0.11 0.43 0.17 0.113 0.06 0.192 0.103 0.239 0.13l-0.369 1.03c-0.16-0.1-0.391-0.193-0.691-0.28-0.293-0.093-0.613-0.141-0.959-0.141-0.3 0-0.581 0.054-0.841 0.161-0.26 0.1-0.486 0.253-0.68 0.459-0.187 0.207-0.334 0.466-0.441 0.78-0.107 0.313-0.159 0.677-0.159 1.091 0 0.367 0.04 0.703 0.12 1.01 0.087 0.307 0.216 0.573 0.389 0.8 0.173 0.22 0.394 0.394 0.661 0.52 0.267 0.12 0.586 0.18 0.959 0.18 0.447 0 0.811-0.043 1.091-0.13 0.28-0.093 0.497-0.179 0.65-0.259l0.339 1.03c-0.08 0.053-0.19 0.106-0.33 0.159-0.133 0.053-0.293 0.108-0.48 0.161-0.187 0.047-0.396 0.083-0.63 0.109-0.233 0.033-0.483 0.05-0.75 0.05-0.52 0-0.987-0.081-1.4-0.241s-0.763-0.393-1.05-0.7c-0.287-0.313-0.508-0.692-0.661-1.139s-0.23-0.961-0.23-1.541 0.086-1.092 0.259-1.539c0.18-0.447 0.425-0.825 0.731-1.131 0.307-0.313 0.666-0.549 1.08-0.709 0.413-0.16 0.856-0.241 1.33-0.241zm4.577 1.75c0.36 0 0.653 0.047 0.88 0.141 0.233 0.093 0.426 0.217 0.58 0.37 0.073-0.053 0.168-0.11 0.281-0.17s0.24-0.113 0.38-0.159c0.14-0.053 0.286-0.098 0.439-0.131 0.16-0.033 0.321-0.05 0.481-0.05 0.407 0 0.74 0.061 1 0.181 0.267 0.113 0.472 0.276 0.619 0.489 0.153 0.207 0.258 0.461 0.311 0.761 0.06 0.293 0.089 0.615 0.089 0.969v2.941h-1.209v-2.75c0-0.547-0.067-0.94-0.2-1.18-0.133-0.247-0.39-0.37-0.77-0.37-0.193 0-0.377 0.033-0.55 0.1-0.173 0.06-0.302 0.12-0.389 0.18 0.053 0.167 0.089 0.343 0.109 0.53s0.03 0.387 0.03 0.6v2.891h-1.209v-2.75c0-0.547-0.071-0.94-0.211-1.18-0.133-0.247-0.386-0.37-0.759-0.37-0.133 0-0.281 0.01-0.441 0.03s-0.279 0.037-0.359 0.05v4.22h-1.209v-5.059c0.233-0.067 0.536-0.131 0.909-0.191 0.38-0.06 0.78-0.091 1.2-0.091zm6.753 3.875h0.575v2.141h0.389v0.495h-0.389v0.83h-0.591v-0.83h-1.52v-0.43c0.067-0.147 0.156-0.316 0.266-0.506 0.113-0.19 0.238-0.384 0.375-0.584s0.281-0.397 0.434-0.591c0.153-0.193 0.308-0.368 0.461-0.525zm-0.016 0.745c-0.08 0.097-0.163 0.201-0.25 0.311-0.083 0.11-0.165 0.224-0.245 0.344s-0.156 0.244-0.23 0.37c-0.073 0.123-0.14 0.247-0.2 0.37h0.925v-1.395z" fill="#2e3440"/>
</svg>
