<svg viewBox="0 0 16 16" xmlns="http://www.w3.org/2000/svg">
 <path d="m1.6 0c-0.886 0-1.6 0.714-1.6 1.6v12.8c0 0.886 0.714 1.6 1.6 1.6h12.8c0.886 0 1.6-0.714 1.6-1.6v-12.8c0-0.886-0.714-1.6-1.6-1.6h-12.8zm0.886 4.67h5.53v1.089h-2.13v5.841h-1.27v-5.841h-2.13v-1.089zm8.219 1.589c0.427 0 0.784 0.061 1.07 0.181 0.287 0.113 0.513 0.276 0.68 0.489 0.173 0.207 0.294 0.461 0.361 0.761 0.073 0.293 0.109 0.615 0.109 0.969v2.941h-1.209v-2.75c0-0.28-0.021-0.516-0.061-0.709-0.033-0.2-0.093-0.361-0.18-0.481-0.08-0.127-0.194-0.215-0.341-0.269-0.14-0.06-0.312-0.091-0.519-0.091-0.153 0-0.315 0.01-0.481 0.03-0.167 0.02-0.289 0.037-0.369 0.05v4.22h-1.211v-5.059c0.233-0.067 0.538-0.131 0.911-0.191s0.786-0.091 1.239-0.091z" fill="#2e3440"/>
</svg>
