<svg viewBox="0 0 16 16" xmlns="http://www.w3.org/2000/svg">
 <path d="m1.6 0c-0.886 0-1.6 0.714-1.6 1.6v12.8c0 0.886 0.714 1.6 1.6 1.6h12.8c0.886 0 1.6-0.714 1.6-1.6v-12.8c0-0.886-0.714-1.6-1.6-1.6h-12.8zm0.731 4.47h1.259v5.839h3.12v1.091h-4.38v-6.93zm4.202 1.7h1.291c0.073 0.293 0.157 0.61 0.25 0.95 0.1 0.333 0.203 0.669 0.309 1.01 0.113 0.333 0.227 0.66 0.341 0.98 0.12 0.313 0.23 0.597 0.33 0.85 0.1-0.253 0.207-0.537 0.32-0.85 0.113-0.32 0.223-0.646 0.33-0.98 0.113-0.34 0.22-0.676 0.32-1.01 0.1-0.34 0.186-0.657 0.259-0.95h1.25c-0.287 1.02-0.606 1.977-0.959 2.87-0.347 0.887-0.687 1.673-1.02 2.359h-1.039c-0.333-0.687-0.678-1.473-1.031-2.359-0.347-0.893-0.663-1.85-0.95-2.87zm5.389 3.764h2.316v0.461c-0.11 0.123-0.231 0.291-0.361 0.505-0.13 0.213-0.252 0.455-0.369 0.725-0.117 0.267-0.22 0.553-0.306 0.859-0.083 0.307-0.135 0.612-0.155 0.916h-0.62c0.02-0.253 0.066-0.52 0.136-0.8s0.155-0.552 0.255-0.816c0.103-0.267 0.214-0.514 0.334-0.744 0.123-0.233 0.246-0.429 0.366-0.586h-1.595v-0.52z" fill="#2e3440"/>
</svg>
