<svg viewBox="0 0 16 16" xmlns="http://www.w3.org/2000/svg">
 <path d="m1.6 0c-0.886 0-1.6 0.714-1.6 1.6v12.8c0 0.886 0.714 1.6 1.6 1.6h12.8c0.886 0 1.6-0.714 1.6-1.6v-12.8c0-0.886-0.714-1.6-1.6-1.6h-12.8zm4.402 4.509c0.453 0 0.884 0.078 1.291 0.231s0.759 0.382 1.059 0.689c0.307 0.307 0.55 0.687 0.73 1.141 0.18 0.447 0.27 0.966 0.27 1.559s-0.09 1.117-0.27 1.57c-0.173 0.453-0.412 0.834-0.719 1.141-0.3 0.3-0.654 0.526-1.061 0.68-0.407 0.153-0.84 0.23-1.3 0.23s-0.896-0.076-1.309-0.23c-0.407-0.153-0.764-0.38-1.07-0.68-0.3-0.307-0.54-0.687-0.72-1.141-0.18-0.453-0.27-0.977-0.27-1.57s0.09-1.113 0.27-1.559c0.18-0.453 0.423-0.834 0.73-1.141 0.313-0.307 0.675-0.536 1.081-0.689 0.407-0.153 0.836-0.231 1.289-0.231zm-9e-3 1.111c-0.32 0-0.608 0.06-0.861 0.18s-0.47 0.289-0.65 0.509c-0.173 0.22-0.307 0.484-0.4 0.791s-0.139 0.65-0.139 1.03 0.046 0.727 0.139 1.041c0.093 0.307 0.227 0.569 0.4 0.789 0.18 0.213 0.397 0.38 0.65 0.5s0.541 0.181 0.861 0.181c0.313 0 0.597-0.061 0.85-0.181s0.466-0.287 0.639-0.5c0.18-0.22 0.318-0.482 0.411-0.789 0.093-0.313 0.139-0.661 0.139-1.041s-0.046-0.723-0.139-1.03c-0.093-0.313-0.231-0.577-0.411-0.791-0.173-0.22-0.386-0.389-0.639-0.509s-0.537-0.18-0.85-0.18zm6.713 0.639c0.08 0 0.173 7e-3 0.28 0.02 0.107 7e-3 0.214 0.021 0.32 0.041 0.107 0.013 0.209 0.033 0.309 0.059 0.1 0.02 0.181 0.041 0.241 0.061l-0.211 1.019c-0.1-0.033-0.239-0.067-0.419-0.1-0.173-0.04-0.378-0.059-0.611-0.059-0.133 0-0.276 0.014-0.43 0.041-0.147 0.027-0.249 0.049-0.309 0.069v4.191h-1.211v-4.98c0.233-0.087 0.524-0.167 0.87-0.241 0.353-0.08 0.744-0.12 1.17-0.12z" fill="#2e3440"/>
</svg>
