<svg viewBox="0 0 16 16" xmlns="http://www.w3.org/2000/svg">
 <path d="m1.6 0c-0.886 0-1.6 0.714-1.6 1.6v12.8c0 0.886 0.714 1.6 1.6 1.6h12.8c0.886 0 1.6-0.714 1.6-1.6v-12.8c0-0.886-0.714-1.6-1.6-1.6h-12.8zm-0.364 4.47h1.169c0.147 0.253 0.311 0.563 0.491 0.93s0.363 0.753 0.55 1.159c0.187 0.4 0.37 0.811 0.55 1.231 0.187 0.413 0.356 0.797 0.509 1.15 0.153-0.353 0.32-0.737 0.5-1.15 0.18-0.42 0.363-0.831 0.55-1.231 0.187-0.407 0.37-0.793 0.55-1.159 0.18-0.367 0.344-0.676 0.491-0.93h1.141c0.06 0.507 0.115 1.047 0.169 1.62 0.053 0.567 0.101 1.15 0.141 1.75 0.047 0.593 0.087 1.193 0.12 1.8 0.04 0.6 0.073 1.186 0.1 1.759h-1.241c-0.027-0.807-0.06-1.637-0.1-2.491-0.033-0.853-0.086-1.68-0.159-2.48-0.073 0.153-0.161 0.337-0.261 0.55s-0.205 0.447-0.319 0.7c-0.113 0.247-0.23 0.504-0.35 0.77-0.113 0.267-0.227 0.526-0.341 0.78-0.107 0.247-0.207 0.48-0.3 0.7-0.093 0.213-0.174 0.397-0.241 0.55h-0.939c-0.067-0.153-0.147-0.339-0.241-0.559-0.093-0.22-0.196-0.453-0.309-0.7-0.107-0.253-0.221-0.513-0.341-0.78-0.113-0.267-0.226-0.524-0.339-0.77-0.113-0.247-0.22-0.477-0.32-0.691-0.1-0.22-0.188-0.403-0.261-0.55-0.073 0.8-0.129 1.626-0.169 2.48-0.033 0.853-0.064 1.684-0.091 2.491h-1.241c0.027-0.573 0.057-1.166 0.091-1.78 0.04-0.613 0.08-1.22 0.12-1.82 0.047-0.607 0.097-1.193 0.15-1.759 0.053-0.567 0.11-1.09 0.17-1.57zm9.597 0.12v1.58h1.861v1.01h-1.861v2.13c0 0.42 0.067 0.72 0.2 0.9s0.36 0.27 0.68 0.27c0.22 0 0.415-0.024 0.581-0.07 0.173-0.047 0.309-0.09 0.409-0.13l0.2 0.961c-0.14 0.06-0.323 0.12-0.55 0.18-0.227 0.067-0.493 0.1-0.8 0.1-0.373 0-0.687-0.05-0.941-0.15-0.247-0.1-0.442-0.243-0.589-0.43-0.147-0.193-0.251-0.424-0.311-0.691-0.06-0.273-0.089-0.583-0.089-0.93v-4.53l1.209-0.2zm3.584 5.264c0.37 0 0.642 0.089 0.816 0.266 0.177 0.173 0.266 0.411 0.266 0.714 0 0.12-0.025 0.24-0.075 0.356-0.05 0.113-0.115 0.224-0.195 0.334-0.077 0.107-0.166 0.212-0.266 0.316-0.1 0.1-0.2 0.197-0.3 0.294-0.053 0.05-0.113 0.111-0.18 0.181s-0.131 0.139-0.191 0.209-0.111 0.138-0.155 0.205c-0.043 0.063-0.067 0.118-0.07 0.161h1.541v0.509h-2.205c-3e-3 -0.027-5e-3 -0.059-5e-3 -0.095v-0.089c0-0.16 0.025-0.307 0.075-0.441 0.053-0.137 0.121-0.263 0.205-0.38 0.083-0.117 0.176-0.226 0.28-0.33 0.103-0.103 0.206-0.206 0.309-0.306 0.08-0.077 0.158-0.152 0.231-0.225s0.136-0.144 0.189-0.214c0.057-0.073 0.103-0.147 0.136-0.22 0.033-0.077 0.05-0.154 0.05-0.234 0-0.173-0.05-0.297-0.15-0.37s-0.222-0.111-0.366-0.111c-0.093 0-0.179 0.014-0.259 0.041s-0.152 0.059-0.216 0.095c-0.06 0.037-0.113 0.074-0.159 0.114-0.047 0.037-0.083 0.067-0.106 0.091l-0.3-0.425c0.14-0.133 0.304-0.24 0.491-0.32 0.19-0.083 0.393-0.125 0.609-0.125z" fill="#2e3440"/>
</svg>
