<svg viewBox="0 0 16 16" xmlns="http://www.w3.org/2000/svg">
 <path d="m1.6 0c-0.886 0-1.6 0.714-1.6 1.6v12.8c0 0.886 0.714 1.6 1.6 1.6h12.8c0.886 0 1.6-0.714 1.6-1.6v-12.8c0-0.886-0.714-1.6-1.6-1.6h-12.8zm7.736 3.891c0.2 0 0.374 0.067 0.52 0.2 0.147 0.133 0.22 0.317 0.22 0.55 0 0.227-0.074 0.406-0.22 0.539-0.147 0.133-0.32 0.2-0.52 0.2-0.207 0-0.383-0.067-0.53-0.2s-0.22-0.312-0.22-0.539c0-0.233 0.074-0.417 0.22-0.55 0.147-0.133 0.323-0.2 0.53-0.2zm-6.06 0.58h4.38v1.07h-3.12v1.769h2.77v1.07h-2.77v3.02h-1.259v-6.93zm5.458 1.7h1.209v5.23h-1.209v-5.23zm3.523 3.764h0.425v3.466h-0.605v-2.655c-0.09 0.07-0.202 0.138-0.339 0.205s-0.269 0.122-0.395 0.166l-0.186-0.461c0.193-0.077 0.388-0.175 0.581-0.295 0.197-0.12 0.369-0.262 0.519-0.425z" fill="#2e3440"/>
</svg>
