<svg viewBox="0 0 16 16" xmlns="http://www.w3.org/2000/svg">
 <g transform="matrix(.72729 0 0 .72729 -.00014281 4.3634)" fill="#2e3440">
  <path d="m1.813-0.935c-0.727 0-1.313 0.588-1.313 1.319v9.232c0 0.731 0.585 1.319 1.313 1.319h18.375c0.727 0 1.313-0.588 1.313-1.319v-9.232c0-0.731-0.585-1.319-1.313-1.319zm2.687 1.935h13c1.293 0 2 0.779 2 2v4c0 1.104-0.998 2-2 2h-13c-0.893 0-2-0.811-2-2v-4c0-0.837 0.676-2 2-2z"/>
  <path d="m4.438 3.02v1.319h1.313v-1.319z"/>
  <path d="m7.06 3.02v1.319h1.313v-1.319z"/>
  <path d="m9.688 3.02v1.319h1.313v-1.319z"/>
  <path d="m12.313 3.02v1.319h1.313v-1.319z"/>
  <path d="m4.438 5.66v1.319h2.672v-1.319z"/>
  <path d="m8.375 5.66v1.319h6.516v-1.319z"/>
  <path d="m14.938 3.02v1.319h1.313v2.638h1.313v-3.957z"/>
 </g>
</svg>
