<svg viewBox="0 0 16 16" xmlns="http://www.w3.org/2000/svg">
 <path d="m12.364 5.818v3.533c0 0.414 0.137 0.774 0.727 0.831v-4.364zm-9.455 0v0.727h0.727v-0.727zm4.364 0.727v2.75c0 0.44 0 0.886 0.909 0.886h0.545v-0.727h-0.455c-0.186 0-0.273-0.098-0.273-0.278v-1.176h0.727v-0.727h-0.727v-0.727zm-4.364 0.727v2.077c0 0.414 0.137 0.775 0.727 0.832v-2.909zm1.455 0v2.909h0.727v-2.182h0.403c0.229 0 0.292 0.117 0.324 0.298v1.884h0.727v-1.982c0-0.442-0.237-0.928-0.922-0.928zm6.244 0c-0.758 0-1.335 0.524-1.335 1.452 0 1.085 0.661 1.457 1.351 1.457 0.529 0 0.827-0.168 1.112-0.446l-0.443-0.422c-0.185 0.18-0.344 0.268-0.663 0.268-0.407 0-0.641-0.269-0.641-0.634h1.83v-0.256c0-0.806-0.441-1.42-1.21-1.42zm-0.031 0.589c0.37 0 0.51 0.295 0.526 0.602h-1.114c8e-3 -0.126 0.025-0.204 0.072-0.307 0.079-0.17 0.27-0.295 0.516-0.295z" fill="#2e3440"/>
 <path d="m10.715 2.91c-1.176 0.01-2.466 0.206-3.79 0.602-0.648 0.194-1.252 0.438-1.834 0.7v1.18c0.644-0.315 1.343-0.596 2.088-0.82 1.969-0.59 3.85-0.688 5.252-0.396 1.401 0.292 2.25 0.943 2.446 1.763 0.116 0.485 1e-3 1.046-0.332 1.638v1.753c1.072-1.135 1.678-2.45 1.377-3.705-0.327-1.365-1.609-2.196-3.229-2.534-0.608-0.127-1.273-0.188-1.979-0.182m-9.26 3.759c-1.073 1.135-1.679 2.449-1.378 3.705 0.327 1.365 1.61 2.198 3.23 2.536s3.651 0.213 5.769-0.422c0.648-0.194 1.252-0.438 1.834-0.7l-1e-3 -0.15h-2.88c-1.676 0.397-3.247 0.438-4.459 0.185-1.401-0.292-2.25-0.943-2.446-1.763-0.116-0.485-2e-3 -1.046 0.331-1.638" color-rendering="auto" fill="#2e3440" image-rendering="auto" shape-rendering="auto" solid-color="#000000" isolation="auto" mix-blend-mode="normal" white-space="normal"/>
</svg>
