<svg viewBox="0 0 16 16" xmlns="http://www.w3.org/2000/svg">
 <path d="m0.5 2c-0.277 0-0.5 0.223-0.5 0.5v11c0 0.277 0.223 0.5 0.5 0.5h10c0.277 0 0.5-0.223 0.5-0.5v-2.5l4.391 1.955c0.28 0.138 0.608-0.062 0.609-0.371v-9.168c0-0.309-0.329-0.509-0.609-0.371l-4.391 1.955v-2.5c0-0.277-0.223-0.5-0.5-0.5h-10zm5 2a0.5 0.5 0 0 1 0.5 0.5 0.5 0.5 0 0 1-0.5 0.5 0.5 0.5 0 0 1-0.5-0.5 0.5 0.5 0 0 1 0.5-0.5zm-2.4668 1.0254a0.5 0.5 0 0 1 0.3457 0.14648 0.5 0.5 0 0 1 0 0.70703 0.5 0.5 0 0 1-0.70703 0 0.5 0.5 0 0 1 0-0.70703 0.5 0.5 0 0 1 0.36133-0.14648zm4.9492 0a0.5 0.5 0 0 1 0.3457 0.14648 0.5 0.5 0 0 1 0 0.70703 0.5 0.5 0 0 1-0.70703 0 0.5 0.5 0 0 1 0-0.70703 0.5 0.5 0 0 1 0.36133-0.14648zm-6.4824 2.4746a0.5 0.5 0 0 1 0.5 0.5 0.5 0.5 0 0 1-0.5 0.5 0.5 0.5 0 0 1-0.5-0.5 0.5 0.5 0 0 1 0.5-0.5zm8 0a0.5 0.5 0 0 1 0.5 0.5 0.5 0.5 0 0 1-0.5 0.5 0.5 0.5 0 0 1-0.5-0.5 0.5 0.5 0 0 1 0.5-0.5zm-6.4668 2.4746a0.5 0.5 0 0 1 0.3457 0.14648 0.5 0.5 0 0 1 0 0.70703 0.5 0.5 0 0 1-0.70703 0 0.5 0.5 0 0 1 0-0.70703 0.5 0.5 0 0 1 0.36133-0.14648zm4.9492 0a0.5 0.5 0 0 1 0.3457 0.14648 0.5 0.5 0 0 1 0 0.70703 0.5 0.5 0 0 1-0.70703 0 0.5 0.5 0 0 1 0-0.70703 0.5 0.5 0 0 1 0.36133-0.14648zm-2.4824 1.0254a0.5 0.5 0 0 1 0.5 0.5 0.5 0.5 0 0 1-0.5 0.5 0.5 0.5 0 0 1-0.5-0.5 0.5 0.5 0 0 1 0.5-0.5z" fill="#2e3440"/>
</svg>
