<svg width="13.09" version="1.1" viewBox="0 0 16 16" xmlns="http://www.w3.org/2000/svg">
 <g transform="matrix(.78968 0 0 .78968 1.7558 1.6744)" fill="#2e3440">
  <g transform="matrix(.32649 0 0 .32649 9.173 3.6145)" stroke-width=".030212">
   <path d="m7.5339 18.471c1.265-0.39954 2.3312-0.73619 2.3691-0.74809 0.06392-0.02004-0.16347-0.34137-3.0601-4.3243-1.721-2.3665-3.1232-4.318-3.116-4.3369 0.0072-0.018828 1.4223-1.8474 3.1447-4.0635 2.169-2.7909 3.1195-4.0358 3.0923-4.0505-0.05194-0.027975-4.8294-1.1252-4.8393-1.1114-0.35765 0.5003-6.0499 8.0922-6.0673 8.0922-0.01427 0-0.01886-0.19373-0.01019-0.43051 0.0087-0.23678 0.02325-2.1033 0.03241-4.1478l0.01666-3.7173-2.2746 0.21875c-1.251 0.12031-2.2848 0.21944-2.2973 0.22029-0.01246 8.49e-4 -0.02266 4.2651-0.02266 9.4761v9.4746l0.06798-0.01518c0.03739-0.0083 1.057-0.16277 2.2658-0.34316l2.1978-0.32798 0.0011-4.0483c1e-3 -4.0005 0.0017-4.0475 0.05924-3.9785 0.032 0.03839 1.4131 2.0539 3.0692 4.4789 1.656 2.425 3.0245 4.4091 3.041 4.4091 0.01652 0 1.0651-0.3269 2.3301-0.72644z"/>
   <path d="m-2.043 27.256c0.05556-0.04063 0.11271-0.25814 0.71291-2.7133l0.30718-1.2566 0.2774-0.08218c0.53696-0.15907 1.3568-0.51013 1.7958-0.76898l0.15477-0.09126 1.6779 1.0995c0.92282 0.6047 1.7051 1.114 1.7383 1.1318 0.03326 0.0178 0.09256 0.02432 0.13176 0.01448 0.0392-0.0098 0.50172-0.4491 1.0278-0.97614 0.76522-0.7666 0.95654-0.974 0.95654-1.037 0-0.04735-0.15189-0.32974-0.38129-0.70888-0.20971-0.3466-0.48386-0.80012-0.60921-1.0078-0.12535-0.2077-0.23802-0.38931-0.25037-0.40357s-0.12539 0.0046-0.2512 0.04198c-0.18983 0.05635-0.23678 0.06123-0.27603 0.02866-0.02601-0.02159-0.44999-0.62854-0.94217-1.3488l-0.89488-1.3095-0.11838 0.21919c-0.92268 1.7084-2.6571 3.0451-4.5957 3.542-2.7399 0.70222-5.6643-0.25618-7.4655-2.4466-1.3975-1.6995-1.9586-3.9078-1.5397-6.0603 0.4274-2.1962 1.8566-4.0969 3.8455-5.1143l0.33697-0.17236v-1.8679l-0.19915 0.074961c-0.31702 0.11933-0.5516 0.22164-0.8389 0.36589-0.14721 0.073913-0.28693 0.12699-0.31048 0.11796-0.02355-0.00904-0.81398-0.52243-1.7565-1.1409-1.3788-0.9047-1.7332-1.1244-1.8133-1.1245-0.0905-6.05e-5 -0.1873 0.087586-1.0559 0.95618-0.87437 0.87437-0.95613 0.96479-0.95481 1.0559 0.0011 0.076345 0.24972 0.50768 1.0634 1.845 0.5841 0.95996 1.062 1.756 1.062 1.7691 0 0.013028-0.08006 0.17008-0.17791 0.34901-0.20763 0.37965-0.42015 0.86595-0.58133 1.3302-0.06294 0.18127-0.12518 0.33949-0.13832 0.3516s-0.89956 0.20326-1.9698 0.42478c-1.2904 0.26708-1.9672 0.41999-2.0091 0.45388-0.06211 0.05027-0.06327 0.07318-0.07158 1.4106l-0.0084 1.3595 0.06887 0.07745c0.06167 0.06937 0.26608 0.12532 1.9571 0.53577 1.0385 0.25207 1.8983 0.46709 1.9106 0.47782 0.01229 0.01073 0.06323 0.1651 0.11319 0.34304 0.13953 0.49691 0.34483 1.0284 0.59298 1.5351 0.12407 0.25336 0.21874 0.4785 0.21037 0.50031-0.0084 0.02182-0.49296 0.7678-1.0769 1.6578-0.58391 0.88995-1.0765 1.6575-1.0947 1.7057-0.0251 0.06651-0.02362 0.10526 0.0062 0.16092 0.02158 0.04032 0.45643 0.48971 0.96634 0.99864 0.83081 0.82922 0.93718 0.92533 1.0242 0.92533 0.0742 0 0.49614-0.24236 1.792-1.0293 0.9322-0.56612 1.7133-1.0364 1.7358-1.045 0.02247-0.0086 0.24202 0.08566 0.48788 0.2095 0.45821 0.2308 0.96368 0.43621 1.4432 0.58648l0.27112 0.08496 0.38362 1.8429c0.21099 1.0136 0.39224 1.8878 0.40277 1.9428 0.01053 0.05493 0.04559 0.12631 0.07789 0.15861 0.05645 0.05645 0.11211 0.05874 1.4276 0.05874 1.0658 0 1.3806-0.0086 1.4218-0.03874z"/>
  </g>
  <path d="m3.2915-1.2213c-0.63929 0-1.154 0.51466-1.154 1.154v16.155c0 0.63929 0.51466 1.154 1.154 1.154h9.2316c0.63929 0 1.154-0.51466 1.154-1.154v-16.155c0-0.63929-0.51466-1.154-1.154-1.154zm0.63557 1.154h1.0954l0.57698 0.80235c0.11391 0.15831 0.15656 0.3516 0.3516 0.3516h3.9126c0.19504 0 0.23768-0.19328 0.3516-0.3516l0.57698-0.80235h1.0954c0.35251 0 0.63557 0.28306 0.63557 0.63557v14.884c0 0.35251-0.28306 0.63557-0.63557 0.63557h-7.9604c-0.35251 0-0.63557-0.28306-0.63557-0.63557v-14.884c0-0.35251 0.28306-0.63557 0.63557-0.63557z" fill-rule="evenodd" stroke-width="1.154" style="paint-order:stroke fill markers"/>
  <rect x="5.5994" y="14.934" width="4.6158" height=".48235" ry=".24118" fill-rule="evenodd" stroke-width="1.154" style="paint-order:stroke fill markers"/>
 </g>
</svg>
