<svg width="16" height="16" version="1.1" viewBox="0 0 33.333 33.333" xmlns="http://www.w3.org/2000/svg">
 <path d="m30.527 31.272v-1.8087l-27.721-0.03678v1.7966c0 0.9881 0.022198 1.8188 0.04941 1.846 0.027027 0.02706 6.2643 0.04101 13.86 0.03088l13.811-0.0184zm-15.983-4.3556v-1.8456h-11.738v3.6912h11.738zm15.983 0v-1.8087l-11.48-0.03748v3.693l11.48-0.03748zm-16-4.3376 0.01964-1.8645-11.704 0.03776-0.019957 1.7703c-0.010876 0.97367-0.0037 1.8127 0.016238 1.8645 0.028941 0.0755 1.1908 0.09042 5.8519 0.07529l5.8157-0.01874zm16 0.01874v-1.8455l-11.48-0.03776v1.8337c0 1.0085 0.02221 1.8561 0.04966 1.8834 0.02731 0.02741 2.6102 0.04115 5.7398 0.03088l5.6901-0.01874zm0-4.3556v-1.8455h-27.684l-0.019958 1.7703c-0.010876 0.97366-0.0037 1.8126 0.016238 1.8642 0.029006 0.07567 2.726 0.0903 13.862 0.0753l13.826-0.01846zm-21.077-4.7278c0-2.4394 0.049834-2.9045 0.41893-3.9095 0.82312-2.2414 2.6872-3.9225 5.0809-4.5823 0.74245-0.20462 2.7272-0.20462 3.4697 0 2.0483 0.56452 3.7241 1.8792 4.6813 3.6725 0.69987 1.3112 0.81875 1.9625 0.87003 4.7671l0.04216 2.307h4.5712l-0.03227-2.6392c-0.028402-2.3597-0.04874-2.7165-0.19185-3.3696-0.5315-2.4252-1.563-4.3701-3.1951-6.0244-1.7236-1.747-3.678-2.8017-6.1887-3.3398-0.66461-0.14243-0.99915-0.16678-2.2916-0.16678-1.6236 0-2.3556 0.10334-3.6204 0.5111-3.632 1.1709-6.4739 3.9772-7.6833 7.587-0.4859 1.4503-0.52292 1.7621-0.56149 4.7287l-0.03526 2.713h4.6658z" fill="#2e3440" stroke-width=".073824"/>
</svg>
