<svg width="16" height="16" viewBox="0 0 33.333 33.333" xmlns="http://www.w3.org/2000/svg">
 <path transform="scale(2.0833)" d="m11 0a5 5 0 0 0-5 5 5 5 0 0 0 0.30273 1.6973l-0.30273 0.30273-3-3h-3v3l3 3-3 3v3h3l3-3 3 3h3v-3l-3-3 0.301-0.301a5 5 0 0 0 1.699 0.301 5 5 0 0 0 5-5 5 5 0 0 0-5-5zm1.5 2a1.5 1.5 0 0 1 1.5 1.5 1.5 1.5 0 0 1-1.5 1.5 1.5 1.5 0 0 1-1.5-1.5 1.5 1.5 0 0 1 1.5-1.5z" fill="#2e3440"/>
 <path d="m28.783 21.21c-1.677 0-3.03 1.383-3.03 3.083v1.465c-0.837 0-1.515 0.675-1.515 1.515v4.55c0 0.838 0.675 1.515 1.515 1.515h6.06c0.837 0 1.515-0.675 1.515-1.515v-4.55c0-0.837-0.675-1.515-1.515-1.515v-1.465c0-1.7-1.35-3.083-3.035-3.083m0 1.521c0.846 0 1.521 0.667 1.521 1.515v1.515h-3.035v-1.515c0-0.846 0.675-1.515 1.515-1.515z" fill="#2e3440"/>
</svg>
