<svg version="1.1" viewBox="0 0 16 16" xmlns="http://www.w3.org/2000/svg">
 <style/>
 <g transform="matrix(.02196 0 0 .02196 .97276 .97275)" fill="#2e3440">
  <path d="m85.206 469.3c-47.009 0-85.206 38.327-85.206 85.04 0 46.95 38.197 84.876 85.206 84.876 47.15 0 85.324-37.926 85.324-84.876 0-46.713-38.162-85.04-85.324-85.04zm-85.123-251.88v122.68c79.89 0 154.96 31.24 211.51 87.84 56.492 56.434 87.686 131.87 87.686 212.07h123.2c0-232.99-189.57-422.56-422.4-422.56v-0.036zm0.153-217.43v122.71c284.88 0 516.73 232.08 516.73 517.28l123.04 0.012c0-352.8-287.05-639.99-639.75-639.99z" fill="#2e3440"/>
 </g>
 <ellipse cx="11.81" cy="11.207" rx="3.2218" ry="3.8026" fill="#81a1c1" stroke-width="5.8434"/>
</svg>
