<svg width="16" height="16" viewBox="0 0 4.5156 4.5156" xmlns="http://www.w3.org/2000/svg">
 <path transform="scale(.28222)" d="m8 0c-2.182 1.97-5.746 3.262-7 3.557 0 5.333 2.556 11.554 7 12.443 4.444-0.889 7-7.112 7-12.445-1.254-0.295-4.818-1.585-7-3.555zm0.129 4.445h2e-3c1.164 0.043 2.221 0.654 2.846 1.615l1.234-0.412-1.396 2.797-2.795-1.398 1.135-0.379c-0.3-0.261-0.678-0.43-1.092-0.445-0.66-0.024-1.275 0.315-1.605 0.887l-1.541-0.889c0.658-1.14 1.898-1.824 3.213-1.775zm-2.945 3.109 2.797 1.398-1.135 0.379c0.3 0.261 0.676 0.43 1.09 0.445 0.66 0.024 1.275-0.315 1.605-0.887l1.541 0.889c-0.658 1.14-1.898 1.824-3.213 1.775-1.164-0.043-2.221-0.654-2.846-1.615l-1.234 0.412 1.395-2.797z" fill="#2e3440" fill-rule="evenodd"/>
</svg>
