<svg viewBox="0 0 16 16" xmlns="http://www.w3.org/2000/svg">
 <g transform="translate(14.02 .122)" aria-label="µ">
  <path d="m-9-0.122v6.309c0 1.437 0.439 2.378 0.814 3.02 0.341 0.581 1.424 0.914 2.714 0.862 0.227-9e-3 0.461-8e-3 0.704-0.023 0.242-0.015 0.469-0.03 0.681-0.045 0.212-0.03 0.401-0.053 0.567-0.068 0.182-0.03 0.421-0.061 0.496-0.091v-9.963h2v11.461c-0.484 0.121-1.112 0.25-1.884 0.386-0.757 0.136-1.589 0.188-2.496 0.204-1.336 0.024-1.943-0.083-2.442-0.25-0.484-0.182-0.852-0.439-1.155-0.772v4.97h-2v-16z" fill="#2e3440"/>
 </g>
</svg>
