<svg viewBox="0 0 16 16" xmlns="http://www.w3.org/2000/svg">
 <g transform="translate(-177 -533.36)">
  <path d="m190 548.36h-10l5-5z" fill="#2e3440"/>
  <path transform="scale(-1)" d="m-183.94-541.42a1.5 1.5 0 0 1 0.325 1.635 1.5 1.5 0 0 1-1.386 0.926 1.5 1.5 0 0 1-1.386-0.926 1.5 1.5 0 0 1 0.325-1.635l1.061 1.061z" fill="#2e3440"/>
  <path transform="scale(-1)" d="m-181.46-543.9a5 5 0 0 1 1.084 5.449 5 5 0 0 1-4.619 3.087 5 5 0 0 1-4.619-3.087 5 5 0 0 1 1.084-5.449" fill="none" stroke="#2e3440" stroke-width="1.5"/>
 </g>
</svg>
