<svg viewBox="0 0 14.545 16" xmlns="http://www.w3.org/2000/svg">
 <g transform="matrix(.72725 0 0 .72725 3.8147e-8 .00025)">
  <path d="m3 3c-0.554 0-1 0.489-1 1.094v9.813c0 0.605 0.446 1.094 1 1.094h14c0.554 0 1-0.489 1-1.094v-9.813c0-0.604-0.446-1.094-1-1.094h-14zm1 2h12v8h-12v-8zm3 11v1h-2v2h10v-2h-2v-1h-6z" fill="#2e3440"/>
  <path d="m7.503 10s0.497-1 2.497-1 2.497 1.042 2.497 1.042m-6.497-1.534s0.982-1.55 4-1.508c3.02 0.042 4 1.508 4 1.508m-4.565 3.057s-0.021-0.565 0.565-0.565c0.577 0 0.482 0.565 0.482 0.565" fill="none" stroke="#2e3440" stroke-linecap="round" stroke-width="1.375"/>
 </g>
</svg>
