<svg viewBox="0 0 16 16" xmlns="http://www.w3.org/2000/svg">
 <path d="m2 1c-1.203 0-2 0.797-2 2v10c0 1.202 0.795 2 2 2h8v-2h-5v-2h-1v-2h-2v-4c0-1.797 0-2 1-2h10c1 0 1 0.2 1 2v3c0.93 0.183 1.683 1.244 2 2.121v-7.121c0-1.203-0.797-2-2-2z" color="#bebebe" fill="#2e3440"/>
 <path d="m13.498 9.33c-0.922 0-1.665 0.761-1.665 1.697v0.973c-0.461 0-0.833 0.372-0.833 0.833v2.335c0 0.461 0.372 0.833 0.833 0.833h3.335c0.461 0 0.833-0.372 0.833-0.833v-2.335c0-0.461-0.372-0.833-0.833-0.833v-0.973c0-0.936-0.743-1.697-1.67-1.697zm0 0.837c0.466 0 0.837 0.367 0.837 0.833v1h-1.67v-1c0-0.466 0.372-0.833 0.833-0.833z" fill="#2e3440"/>
</svg>
