<svg viewBox="0 0 16 16" xmlns="http://www.w3.org/2000/svg">
 <path d="m8 1.882c-3.111 0-4.977 0.876-7 2.39l7 9.846 7-9.846c-2.023-1.514-3.889-2.39-7-2.39" fill="#2e3440"/>
 <path d="m13.816 9.453c-0.805 0-1.453 0.664-1.453 1.48v0.703c-0.402 0-0.727 0.324-0.727 0.727v2.184c0 0.402 0.324 0.727 0.727 0.727h2.91c0.402 0 0.727-0.324 0.727-0.727v-2.184c0-0.402-0.324-0.727-0.727-0.727v-0.703c0-0.816-0.648-1.48-1.457-1.48zm0 0.73c0.406 0 0.73 0.32 0.73 0.727v0.727h-1.457v-0.727c0-0.406 0.324-0.727 0.727-0.727z" fill="#2e3440"/>
</svg>
