<svg enable-background="new 0 0 22 22" viewBox="0 0 16 16" xmlns="http://www.w3.org/2000/svg">
 <g transform="matrix(1.2665 0 0 1.2665 -2.134 -9.73)" stroke-width=".79">
  <path d="m6.772 10.559c-2.741 0.242-5.087 2.543-5.087 2.543s1.335 3.94 5.131 4.298c0.151 0.013 0.325 0.044 0.482 0.044 2 0 5.498-1.051 7.02-2.324-0.223-0.225-1.271-0.753-1.535-0.965-1.594 1.377-3.249 2.587-5.525 2.587-0.144 1e-3 -0.303-0.029-0.439-0.044-2.786-0.349-3.727-3.421-3.727-3.421s1.222-1.851 3.684-2.061c0.06-4e-3 0.114 3e-3 0.175 0 2.255-0.07 3.771 1.93 3.771 1.93s-1.619 2.236-3.333 2.236c-0.223 0-0.43-0.075-0.614-0.132-1.189-0.4-1.579-1.798-1.579-1.798s0.549-0.613 1.272-0.702c0.104-0.011 0.196-0.013 0.307 0 0.822 0.118 1.021 0.547 1.535 1.403l1.184-1.01s-0.877-1.14-2.324-1.14c-0.135 1e-3 -0.266 0.031-0.395 0.044-1.68 0.18-2.675 1.316-2.675 1.316s0.57 2.167 2.675 2.543c0.178 0.029 0.368 0.044 0.57 0.044 2.446 0 4.78-2.85 4.78-2.85s-2.035-2.649-5.175-2.543c-0.06 1e-3 -0.115-4e-3 -0.175 0z" fill="#2e3440"/>
  <rect x="9.94" y="13.1" width=".048" height=".024" fill="#f00"/>
 </g>
</svg>
