<svg viewBox="0 0 16 16" xmlns="http://www.w3.org/2000/svg">
 <path d="m9 1 7 4.44v2.58l-7-4.44z" fill="#88c0d0" fill-rule="evenodd"/>
 <path d="m9 5.3 7 4.44v2.58l-7-4.44z" fill="#88c0d0" fill-rule="evenodd"/>
 <path d="m9 9.601 7 4.44v1.099c0 0.475-0.384 0.86-0.857 0.86-0.149 0-0.296-0.04-0.425-0.114-1.569-0.897-4.146-2.803-5.718-3.705z" fill="#88c0d0" fill-rule="evenodd"/>
 <g transform="matrix(.97959 0 0 .98296 -.98 -1.175)" fill="#88c0d0" fill-rule="evenodd">
  <path d="m1 4.938 7.146 4.517v2.625l-7.146-4.517z"/>
  <path d="m1 9.313 7.146 4.517v2.625l-7.146-4.517z"/>
  <path d="m8.146 7.705-7.146-4.517v-1.118c0-0.483 0.392-0.875 0.875-0.875 0.152 0 0.302 0.04 0.434 0.116 1.602 0.912 4.233 2.851 5.837 3.768z"/>
 </g>
</svg>
