<svg viewBox="0 0 16 16" xmlns="http://www.w3.org/2000/svg">
 <path d="m1 8.5c-0.554 0-1 0.446-1 1v4.5c0 0.554 0.446 1 1 1h4.5c0.554 0 1-0.446 1-1v-4.5c0-0.554-0.446-1-1-1zm1 1h2.5c0.554 0 1 0.446 1 1v2.5c0 0.554-0.446 1-1 1h-2.5c-0.554 0-1-0.446-1-1v-2.5c0-0.554 0.446-1 1-1z" fill="#2e3440"/>
 <path d="m8.5 8.5c-0.554 0-1 0.446-1 1v4.5c0 0.554 0.446 1 1 1h4.5c0.554 0 1-0.446 1-1v-4.5c0-0.554-0.446-1-1-1zm1 1h2.5c0.554 0 1 0.446 1 1v2.5c0 0.554-0.446 1-1 1h-2.5c-0.554 0-1-0.446-1-1v-2.5c0-0.554 0.446-1 1-1z" fill="#2e3440"/>
 <path d="m1 1c-0.554 0-1 0.446-1 1v4.5c0 0.554 0.446 1 1 1h4.5c0.554 0 1-0.446 1-1v-4.5c0-0.554-0.446-1-1-1zm1 1h2.5c0.554 0 1 0.446 1 1v2.5c0 0.554-0.446 1-1 1h-2.5c-0.554 0-1-0.446-1-1v-2.5c0-0.554 0.446-1 1-1z" fill="#2e3440"/>
 <path d="m8.5 1c-0.554 0-1 0.446-1 1v4.5c0 0.554 0.446 1 1 1h4.5c0.554 0 1-0.446 1-1v-4.5c0-0.554-0.446-1-1-1zm1 1h2.5c0.554 0 1 0.446 1 1v2.5c0 0.554-0.446 1-1 1h-2.5c-0.554 0-1-0.446-1-1v-2.5c0-0.554 0.446-1 1-1z" fill="#2e3440"/>
</svg>
