<svg width="16" height="16" version="1.1" xmlns="http://www.w3.org/2000/svg">
 <rect transform="matrix(0,-1,-1,0,0,0)" x="-16" y="-16" width="16" height="16" rx="3.002" ry="3" fill="#a3be8c"/>
 <rect transform="matrix(0,-1,-1,0,0,0)" x="-16" y="-16" width="16" height="16" rx="3.002" ry="3" fill="#2e3440" opacity=".2"/>
 <rect transform="matrix(0,-1,-1,0,0,0)" x="-15" y="-15" width="14" height="14" rx="2.6268" ry="2.625" fill="#a3be8c"/>
 <g transform="translate(0,-1036.4)" fill="#fff" paint-order="stroke fill markers">
  <path d="m4 1043.4c-0.554 0-1 0.446-1 1v5c0 0.554 0.446 1 1 1h8c0.554 0 1-0.446 1-1v-5c0-0.554-0.446-1-1-1zm4 1.5a1 1 0 0 1 1 1 1 1 0 0 1-0.5 0.864v1.636a0.5 0.5 0 1 1-1 0v-1.635a1 1 0 0 1-0.5-0.865 1 1 0 0 1 1-1z"/>
  <path d="m8 1038.4c-1.662 0-3 1.338-3 3v6c0 1.662 1.338 3 3 3-1.108 0-2-0.892-2-2v-7c0-1.108 0.892-2 2-2s2 0.892 2 2v7c0 1.108-0.892 2-2 2 1.662 0 3-1.338 3-3v-6c0-1.662-1.338-3-3-3z"/>
 </g>
</svg>
