<svg viewBox="0 0 16 16" xmlns="http://www.w3.org/2000/svg">
 <g transform="translate(-181 -257)">
  <path d="m189 257-2.281 3.438-3.438-1.156 1.156 3.438-3.438 2.281 3.438 2.281-1.156 3.438 3.438-1.156 2.281 3.438 2.281-3.438 3.438 1.156-1.156-3.438 3.438-2.281-3.438-2.281 1.156-3.438-3.438 1.156zm-1 4h2v5h-2zm1.031 5.75c0.708 0 1.281 0.574 1.281 1.281 0 0.708-0.574 1.281-1.281 1.281-0.708 0-1.281-0.574-1.281-1.281 0-0.708 0.574-1.281 1.281-1.281z" fill="#bf616a" fill-rule="evenodd"/>
 </g>
</svg>
