<svg viewBox="0 0 16 16" xmlns="http://www.w3.org/2000/svg">
 <path d="m5 2-2 3h4.5v-3h-2.5zm3.5 0v3h4.5l-2-3h-2.5zm-5.5 4v7h5.553c-0.148-1.185 0.215-2.425 1.119-3.328 0.777-0.777 1.806-1.172 2.828-1.172 0.167 0 0.333 0.028 0.5 0.049v-2.549h-10z" fill="#4c566a"/>
 <g transform="matrix(.15 0 0 .15 8.9 8.9)" fill="#bf616a">
  <path transform="matrix(4.4444 0 0 4.4444 -84.889 -89.333)" d="m24.5 21c-1.152 0-2.303 0.439-3.182 1.318-1.758 1.757-1.758 4.606 0 6.363 1.757 1.758 4.606 1.758 6.363 0 1.758-1.757 1.758-4.606 0-6.363-0.878-0.879-2.03-1.318-3.182-1.318m0 1.35c0.592 0 1.181 0.169 1.697 0.5l-4.348 4.348c-0.783-1.219-0.643-2.858 0.424-3.924 0.615-0.615 1.42-0.924 2.227-0.924m2.65 1.453c0.783 1.219 0.643 2.858-0.424 3.924-1.066 1.067-2.705 1.206-3.924 0.424l4.348-4.348z"/>
 </g>
</svg>
