<svg viewBox="0 0 16 16" xmlns="http://www.w3.org/2000/svg">
 <path d="m5 2-2 3h4.5v-3m1 0v3h4.5l-2-3m-8 4v7h5.139l0.281-0.951-0.186-0.072 0.377-0.939c0.053-0.132 0.147-0.234 0.213-0.357l0.021-0.068 0.016 8e-3c0.717-1.29 2.079-2.119 3.594-2.119 0.185 0 0.366 0.015 0.545 0.039v-2.539" fill="#4c566a"/>
 <g transform="matrix(.54545 0 0 .54545 6.4545 6.5)" fill="#a3be8c">
  <g transform="matrix(.34783 0 0 .34783 2.6436 2.6457)">
   <path transform="matrix(2.875 0 0 2.875 97.068 -33.481)" d="m-25.406 14.5c2.304 0 4.367 1.303 5.281 3.313l1.219-0.469-1 3.469-3.313-1.844 1.281-0.5c-0.621-1.31-1.954-2.125-3.469-2.125-1.573 0-2.996 0.94-3.563 2.344l-1.781-0.688c0.845-2.104 2.985-3.5 5.344-3.5zm-5.5 4.719 3.313 1.781-1.281 0.5c0.613 1.305 1.964 2.156 3.469 2.156 1.576 0 2.979-0.91 3.563-2.313l1.781 0.688c-0.877 2.103-2.979 3.469-5.344 3.469-2.292 0-4.387-1.339-5.281-3.344l-1.219 0.438z"/>
  </g>
 </g>
</svg>
