<svg viewBox="0 0 16 16" xmlns="http://www.w3.org/2000/svg">
 <path d="m8 0c-1.209 0-2.418 0.313-3.5 0.938-2.164 1.25-3.5 3.563-3.5 6.06v1.016c0.11 5e-3 0.241 0.06 0.414 0.232 0.94 0.94 5.644 4.701 6.586 4.701 0.94 0 5.644-3.762 6.586-4.701 0.174-0.174 0.306-0.228 0.414-0.232v-1.016c0-2.499-1.336-4.813-3.5-6.06-1.082-0.625-2.291-0.938-3.5-0.938zm0 2c0.863 0 1.726 0.223 2.5 0.67 1.548 0.894 2.5 2.542 2.5 4.33h-10c0-1.788 0.952-3.436 2.5-4.33 0.774-0.447 1.637-0.67 2.5-0.67zm-7 7.533v5.467c0 0.554 0.446 1 1 1h12c0.554 0 1-0.446 1-1v-5.467c-0.11 0.213-0.241 0.422-0.414 0.596-0.94 0.94-5.644 4.701-6.586 4.701-0.94 0-5.644-3.764-6.586-4.701-0.174-0.174-0.306-0.381-0.414-0.596z" fill="#88c0d0"/>
</svg>
