<svg viewBox="0 0 16 16" xmlns="http://www.w3.org/2000/svg">
 <path d="m5.447 2.0005c-0.248 0-0.447 0.327-0.447 0.734v10.531c0 0.407 0.199 0.734 0.447 0.734h4.553a6 6 0 0 0 6-6 6 6 0 0 0-6-6h-4.553m4.826 2.207c1.589 0 3.01 0.899 3.643 2.285l0.84-0.324-0.689 2.393-2.283-1.271 0.883-0.346c-0.428-0.904-1.348-1.465-2.393-1.465-1.085 0-2.066 0.649-2.457 1.617l-1.229-0.475c0.583-1.451 2.059-2.414 3.686-2.414m-3.793 3.254 2.285 1.229-0.885 0.346c0.423 0.9 1.355 1.486 2.393 1.486 1.087 0 2.054-0.629 2.457-1.596l1.229 0.475c-0.605 1.45-2.055 2.393-3.686 2.393-1.581 0-3.03-0.924-3.643-2.307l-0.84 0.303 0.689-2.328z" fill="#2e3340"/>
 <rect y="2" width="3" height="12" rx=".5" fill="#2e3340"/>
</svg>
