<svg viewBox="0 0 16 16" xmlns="http://www.w3.org/2000/svg">
 <rect y="2" width="3" height="12" rx=".5" fill="#2e3340"/>
 <path d="m5.447 2c-0.248 0-0.447 0.327-0.447 0.734v10.531c0 0.407 0.199 0.734 0.447 0.734h4.553a6 6 0 0 0 6-6 6 6 0 0 0-6-6h-4.553m3.037 1.518 2.328 0.689-1.229 2.285-0.344-0.885c-0.9 0.423-1.488 1.355-1.488 2.393 0 1.087 0.629 2.054 1.596 2.457l-0.475 1.229c-1.45-0.605-2.393-2.055-2.393-3.686 0-1.581 0.924-3.03 2.307-3.643l-0.303-0.84m3.168 0.797c1.451 0.583 2.414 2.059 2.414 3.686 0 1.589-0.897 3.01-2.283 3.643l0.322 0.84-2.393-0.689 1.271-2.285 0.346 0.885c0.904-0.428 1.465-1.348 1.465-2.393 0-1.085-0.647-2.066-1.615-2.457l0.473-1.229z" fill="#2e3340"/>
</svg>
