<svg width="16" height="16" enable-background="new 0 0 90 109" viewBox="-1 -1 16.356 16.294" xmlns="http://www.w3.org/2000/svg">
 <path transform="matrix(1.0222 0 0 1.0222 -1 -1.031)" d="m8 0c-2.209 0-4 1.791-4 4v2h-2.5c-0.277 0-0.5 0.223-0.5 0.5v9c0 0.277 0.223 0.5 0.5 0.5h13c0.277 0 0.5-0.223 0.5-0.5v-9c0-0.277-0.223-0.5-0.5-0.5h-2.5v-2c0-2.209-1.791-4-4-4zm0 2c1.105 0 2 0.895 2 2 0 0.471-0.101 0.842-0.234 1.107s-0.429 0.619-0.766 0.893c-0.329 0.267-1 0.607-1 0.607s0.306-0.371 0.43-0.656c-0.141 0.032-0.285 0.049-0.43 0.049-1.105 1e-3 -2-0.895-2-2s0.895-2 2-2zm0 5c2.209 0 4 1.791 4 4s-1.791 4-4 4-4-1.791-4-4 1.791-4 4-4z" fill="#88c0d0"/>
</svg>
