<svg viewBox="0 0 16 16" xmlns="http://www.w3.org/2000/svg">
 <g transform="translate(0 -6)">
  <path d="m0 0.5v-0.5h99l0.125 0.375q0.125 0.375 0.5 0.5t0.875 0.125 1 0 1 0 0.875-0.125 0.5-0.5l0.125-0.375h6v0.5q0 0.5-0.5 0.5h-4q-0.5 0-0.875 0.125t-0.5 0.5-0.625 0.375h-3q-0.5 0-0.875-0.125t-0.625-0.375-0.625-0.375-0.875-0.125-0.875 0.125-0.375 0.375 0.375 0.375 0.875 0.125 0.875 0.125 0.5 0.5-0.375 0.375h-2q-0.5 0-0.875 0.125t-0.5 0.5-0.625 0.375h-2q-0.5 0-0.625-0.375t-0.5-0.5-0.875-0.125-0.875 0.125-0.375 0.375 0.375 0.375 0.875 0.125 0.5 0.5-0.5 0.5h-1.5l-0.125-0.375q-0.125-0.375-0.5-0.5t-0.875-0.125-0.875 0.125-0.375 0.375 0.375 0.375 0.75 0.25 0.5 0.5-0.375 0.375h-1.5l-0.125-0.375q-0.125-0.375-0.5-0.5t-0.875-0.125-0.875 0.125-0.625 0.375-0.625 0.375-0.875 0.125-0.875 0.125-0.375 0.375 0.375 0.375 0.875 0.125 0.875-0.125 0.625-0.375 0.625-0.375 0.875-0.125h0.5v0.5q0 0.5-0.5 0.5h-0.5l-0.375 0.125q-0.375 0.125-0.625 0.375t-0.625 0.375l-0.375 0.125h-1l-0.375 0.125q-0.375 0.125-0.625 0.375t-0.625 0.375l-0.75 0.25q-0.375 0.125-0.625 0.375t-0.625 0.375l-0.375 0.125h-1l-0.125-0.375q-0.125-0.375-0.5-0.5t-0.875-0.125-0.875 0.125-0.5 0.5-0.625 0.375-0.875 0.125-0.5 0.5-0.625 0.375-0.875 0.125-0.5 0.5-0.625 0.375-0.875 0.125-0.5 0.5l-0.125 0.375-0.375 0.125q-0.375 0.125-0.375 0.375t0.375 0.375l0.375 0.125-0.125 0.375q-0.125 0.375-0.5 0.5l-0.375 0.125-0.125-0.375q-0.125-0.375-0.5-0.5t-0.75 0-0.625 0.375-0.625 0.375-0.75 0.25-0.5 0.5l-0.125 0.375h-0.5q-0.5 0-0.875 0.125t-0.5 0.5l-0.125 0.375-0.375 0.125q-0.375 0.125-0.625 0.375t-0.625 0.375-0.75 0.25-0.5 0.5l-0.125 0.375-0.375 0.125q-0.375 0.125-0.625 0.375t-0.625 0.375-0.75 0.25-0.48438 0.51562l-0.10938 0.39062 0.21875-0.03125-0.21875 0.03125q-0.21875 0.03125-0.40625 0.09375l-0.1875 0.0625 0.5625-0.1875-0.375 0.125q-0.375 0.125-0.375 0.375t0.375 0.375l0.375 0.125-0.5625-0.1875 0.1875 0.0625q0.1875 0.0625 0.40625 0.09375l0.21875 0.03125-0.21875-0.03125-0.14062 0.39062q-0.14062 0.39062-0.39062 0.64062t-0.5 0.5-0.5 0.5-0.5 0.5-0.625 0.375-0.375-0.375v-0.5l0.375-0.125q0.375-0.125 0.5-0.5l0.125-0.375 0.375-0.125q0.375-0.125 0.375-0.375t-0.375-0.375-0.75 0-0.5 0.5l-0.125 0.375-0.375 0.125q-0.375 0.125-0.625 0.375t-0.5 0.5-0.25 0.5 0.375 0.375l0.375 0.125-0.125 0.375q-0.125 0.375-0.375 0.625t-0.5 0.5-0.5 0.5-0.5 0.5-0.625 0.375l-0.375 0.125v-1l0.375-0.125q0.375-0.125 0.625-0.375t0.5-0.5 0.25-0.5-0.25-0.25-0.5 0.25-0.625 0.375-0.75 0.25-0.5 0.5l-0.125 0.375-0.375 0.125q-0.375 0.125-0.375 0.375t0.375 0.375l0.375 0.125v0.5q0 0.5-0.375 0.625t-0.625 0.375-0.5 0.5-0.5 0.5-0.5 0.5-0.5 0.5-0.5 0.5-0.5 0.5-0.5 0.5-0.5 0.5-0.5 0.5-0.5 0.5-0.5 0.5-0.5 0.5-0.5 0.5-0.5 0.5-0.5 0.5-0.5 0.5-0.5 0.5-0.5 0.5-0.5 0.5-0.5 0.5-0.5 0.5-0.5 0.5-0.5 0.5-0.5 0.5-0.5 0.5-0.5 0.5-0.5 0.5-0.5 0.5-0.5 0.5-0.5 0.5-0.5 0.5-0.5 0.5-0.5 0.5-0.375 0.625l-0.25 0.75q-0.125 0.375-0.375 0.625t-0.5 0.5-0.5 0.5-0.5 0.5-0.5 0.5-0.375 0.625l-0.25 0.75q-0.125 0.375-0.375 0.625t-0.5 0.5-0.5 0.5-0.5 0.5-0.5 0.5-0.375 0.625l-0.25 0.75q-0.125 0.375-0.375 0.625t-0.5 0.5-0.5 0.5-0.375 0.625l-0.25 0.75q-0.125 0.375-0.375 0.625t-0.5 0.5-0.5 0.5l-0.25 0.25 0.375-0.375-0.125 0.125q-0.125 0.125-0.21875 0.28125l-0.09375 0.15625 0.09374-0.15626-0.53124-0.59374-0.125 0.0625 0.125-0.0625q0.125-0.0625 0.25-0.1875l0.125-0.125-0.375 0.375 0.25-0.25q0.25-0.25 0.5-0.5t0.375-0.625 0-0.75-0.375-0.375-0.375 0.375-0.25 0.75-0.375 0.625-0.25 0.5v0.25-0.375 0.125q0 0.125 0.0625 0.1875l0.0625 0.0625-0.0625-0.0625-0.28125 0.28125q-0.28125 0.28125-0.03125 0.53125t0.625 0.375l0.375 0.125-0.125 0.375q-0.125 0.375-0.375 0.625t-0.375 0.625l-0.25 0.75q-0.125 0.375-0.375 0.625t-0.375 0.625l-0.25 0.75q-0.125 0.375-0.375 0.625t-0.375 0.625l-0.125 0.375-0.375 0.125q-0.375 0.125-0.5 0.5t-0.25 0.75-0.375 0.625-0.375 0.625l-0.25 0.75q-0.125 0.375-0.375 0.625t-0.375 0.625l-0.25 0.75q-0.125 0.375-0.375 0.625t-0.375 0.625l-0.125 0.375v1-0.75 0.25q0 0.25-0.03125 0.46875l-0.03125 0.21875 0.03126-0.21875-0.35938 0.14062q-0.35938 0.14062-0.48438 0.51562t-0.125 0.875v0.5l-0.125 0.375q-0.125 0.375-0.375 0.625t-0.375 0.625l-0.25 0.75q-0.125 0.375-0.375 0.625t-0.375 0.625l-0.125 0.375v1l-0.125 0.375q-0.125 0.375-0.375 0.625t-0.375 0.625l-0.125 0.375v1-0.75 0.25q0 0.25-0.03125 0.46875l-0.03125 0.21875 0.03125-0.21875-0.35938 0.14062q-0.35938 0.14062-0.48438 0.51562t-0.125 0.875v1.5-0.75 0.25q0 0.25-0.03125 0.46875l-0.03125 0.21875 0.03125-0.21875-0.35938-0.10938q-0.35938-0.10938-0.48438-0.48438t-0.25-0.75-0.375-0.375-0.375 0.375 0 0.75 0.375 0.625 0.375 0.625l0.125 0.375v2l-0.125 0.375q-0.125 0.375-0.375 0.625t-0.375 0.625l-0.125 0.375v2-0.75 0.25q0 0.25-0.03125 0.46875l-0.03125 0.21875 0.03125-0.21875-0.35938 0.14062q-0.35938 0.14062-0.48438 0.51562t-0.125 0.875v1.5l-0.125 0.375q-0.125 0.375-0.375 0.625t-0.375 0.625-0.125 0.875v2.5l-0.125 0.375q-0.125 0.375-0.375 0.625t-0.375 0.625l-0.125 0.375v5-0.75 0.25q0 0.25-0.03125 0.46875l-0.03125 0.21875 0.015625-0.10937 0.015625-0.10938-0.48438 0.01563-0.48438 0.01562v-6l0.375-0.125q0.375-0.125 0.5-0.5t0.125-0.875 0-1-0.125-0.875l-0.125-0.375 0.1875 0.5625-0.0625-0.1875q-0.0625-0.1875-0.1875-0.3125l-0.125-0.125 0.125 0.125 0.28125-0.28125q0.28125-0.28125 0.03125-0.53125t-0.625-0.375l-0.375-0.125v-98.5m1.125 97.875q0.125 0.375 0.375 0.375t0.375-0.375 0.125-0.875-0.125-0.875l-0.125-0.375 0.1875 0.5625-0.0625-0.1875q-0.0625-0.1875-0.15625-0.28125l-0.09375-0.09375 0.09375 0.09375 0.26562-0.29688q0.26562-0.29688 0.015625-0.54688t-0.625-0.375-0.5 0.25 0.14062 0.67188l0.26562 0.29688 0.09375-0.09375-0.09375 0.09375q-0.09375 0.09375-0.15625 0.28125l-0.0625 0.1875 0.1875-0.5625-0.125 0.375q-0.125 0.375-0.125 0.875t0.125 0.875m1-4q0.125 0.375 0.375 0.375t0.375-0.375 0-0.75l-0.125-0.375 0.1875 0.5625-0.0625-0.1875q-0.0625-0.1875-0.15625-0.28125l-0.09375-0.09375 0.09375 0.09375 0.26562-0.29688q0.26562-0.29688 0.14062-0.67188l-0.125-0.375h-0.5q-0.5 0-0.625 0.375t0.14062 0.67188l0.26562 0.29688 0.09375-0.09375-0.09375 0.09375q-0.09375 0.09375-0.15625 0.28125l-0.0625 0.1875 0.1875-0.5625-0.125 0.375q-0.125 0.375 0 0.75m0.75-2.75 0.125 0.375 0.375-0.125q0.375-0.125 0.625-0.375t-0.015625-0.54688l-0.26562-0.29688-0.09375 0.09375 0.09375-0.09375q0.09375-0.09375 0.15625-0.28125l0.0625-0.1875-0.1875 0.5625 0.125-0.375q0.125-0.375 0-0.75l-0.125-0.375 0.1875 0.5625-0.0625-0.1875q-0.0625-0.1875-0.15625-0.28125l-0.09375-0.09375 0.09375 0.09375 0.26562-0.29688q0.26562-0.29688 0.015625-0.54688t-0.625-0.375-0.5 0.25 0.14062 0.67188l0.26562 0.29688 0.09375-0.09375-0.09375 0.09375q-0.09375 0.09375-0.15625 0.28125l-0.0625 0.1875 0.1875-0.5625-0.125 0.375q-0.125 0.375 0 0.75l0.125 0.375-0.1875-0.5625 0.0625 0.1875q0.0625 0.1875 0.15625 0.28125l0.09375 0.09375-0.09375-0.09375-0.26562 0.29688q-0.26562 0.29688-0.14062 0.67188m2.25-7.25q0.125 0.375 0.375 0.375t0.375-0.375 0-0.75-0.375-0.375-0.375 0.375 0 0.75m0.875-1.875q0.25 0.25 0.5 0.25t0.5-0.25-0.03125-0.53125l-0.28125-0.28125-0.0625 0.0625 0.0625-0.0625q0.0625-0.0625 0.0625-0.1875v-0.125 0.375-0.5 0.375-0.125q0-0.125-0.0625-0.1875l-0.0625-0.0625 0.0625 0.0625 0.28125-0.28125q0.28125-0.28125 0.03125-0.53125t-0.625-0.375-0.5 0.25 0.15625 0.65625l0.28125 0.28125 0.0625-0.0625-0.0625 0.0625q-0.0625 0.0625-0.0625 0.1875v0.125-0.375 0.5-0.375 0.125q0 0.125 0.0625 0.1875l0.0625 0.0625-0.0625-0.0625-0.28125 0.28125q-0.28125 0.28125-0.03125 0.53125m1.125-3.125q0.125 0.375 0.375 0.375t0.375-0.375 0.25-0.75 0.375-0.625 0.375-0.625 0-0.75-0.375-0.375-0.375 0.375-0.25 0.75-0.375 0.625-0.375 0.625 0 0.75m2.125-4.875q0 0.25 0.25 0.25t0.25-0.25v-0.25 0.375-0.125q0-0.125-0.0625-0.1875l-0.0625-0.0625 0.0625 0.0625 0.28125-0.28125q0.28125-0.28125 0.03125-0.53125t-0.625-0.375-0.5 0.25 0.15625 0.65625l0.28125 0.28125 0.0625-0.0625-0.0625 0.0625q-0.0625 0.0625-0.0625 0.1875v0.125-0.375 0.25m1-2q0 0.25 0.25 0.25t0.25-0.25v-0.25 0.375-0.125q0-0.125-0.0625-0.1875l-0.0625-0.0625 0.0625 0.0625 0.28125-0.28125q0.28125-0.28125 0.03125-0.53125t-0.625-0.375-0.5 0.25 0.15625 0.65625l0.28125 0.28125 0.0625-0.0625-0.0625 0.0625q-0.0625 0.0625-0.0625 0.1875v0.125-0.375 0.25m1-2q0 0.25 0.25 0.25t0.25-0.25v-0.25 0.375-0.125q0-0.125-0.0625-0.1875l-0.0625-0.0625 0.0625 0.0625 0.28125-0.28125q0.28125-0.28125 0.03125-0.53125t-0.625-0.375-0.5 0.25 0.15625 0.65625l0.28125 0.28125 0.0625-0.0625-0.0625 0.0625q-0.0625 0.0625-0.0625 0.1875v0.125-0.375 0.25m1-2q0 0.25 0.25 0.25t0.25-0.25v-0.25 0.375-0.125q0-0.125-0.0625-0.1875l-0.0625-0.0625 0.0625 0.0625 0.28125-0.28125q0.28125-0.28125 0.03125-0.53125t-0.625-0.375-0.5 0.25 0.15625 0.65625l0.28125 0.28125 0.0625-0.0625-0.0625 0.0625q-0.0625 0.0625-0.0625 0.1875v0.125-0.375 0.25m1-2q0 0.25 0.25 0.25t0.25-0.25-0.25-0.25-0.25 0.25m0.875-1.125q0.125 0.375 0.375 0.375t0.375-0.375l0.125-0.375v0.75-0.25q0-0.25-0.125-0.375l-0.125-0.125 0.125 0.125-0.0625-0.4375q-0.0625-0.4375-0.3125-0.4375t-0.3125 0.4375l-0.0625 0.4375 0.125-0.125-0.125 0.125q-0.125 0.125-0.125 0.375v0.25-0.75l0.125 0.375m1.0625-2.0625q0.0625 0.4375 0.3125 0.4375t0.3125-0.4375l0.0625-0.4375-0.125 0.125 0.125-0.125q0.125-0.125 0.125-0.375v-0.25 0.75l-0.125-0.375q-0.125-0.375-0.375-0.375t-0.375 0.375l-0.125 0.375v-0.75 0.25q0 0.25 0.125 0.375l0.125 0.125-0.125-0.125 0.0625 0.4375m1.0625-1.8125q0 0.25 0.25 0.25t0.25-0.25-0.25-0.25-0.25 0.25m-1.2812 5.5938 0.21875-0.65625-0.0625 0.1875q-0.0625 0.1875-0.125 0.375l-0.0625 0.1875 0.03125-0.09375m4.2812-10.594q0 0.25 0.25 0.25t0.5-0.25 0.5-0.5 0.375-0.625 0-0.75-0.375-0.375-0.375 0.375-0.25 0.75-0.375 0.625-0.25 0.5m2-3q0 0.25 0.25 0.25t0.5-0.25 0.5-0.5 0.5-0.5 0.5-0.5 0.375-0.625 0-0.75-0.375-0.375-0.375 0.375-0.25 0.75-0.375 0.625-0.5 0.5-0.5 0.5-0.25 0.5m3-4q0 0.25 0.25 0.25t0.25-0.25-0.25-0.25-0.25 0.25m1-1q0 0.25 0.25 0.25t0.25-0.25-0.25-0.25-0.25 0.25m0.875-1.125q0.125 0.375 0.375 0.375t0.375-0.375 0-0.75-0.375-0.375-0.375 0.375 0 0.75m1.125-1.875q0 0.25 0.25 0.25t0.25-0.25-0.25-0.25-0.25 0.25m1-1q0 0.25 0.25 0.25t0.5-0.25 0.5-0.5 0.5-0.5 0.5-0.5 0.25-0.5-0.25-0.25-0.5 0.25-0.5 0.5-0.5 0.5-0.5 0.5-0.25 0.5m3-3q0 0.25 0.25 0.25t0.25-0.25-0.25-0.25-0.25 0.25m1-1q0 0.25 0.25 0.25t0.5-0.25 0.5-0.5 0.375-0.625l0.125-0.375 0.375-0.125q0.375-0.125 0.625-0.375t0.5-0.5 0.5-0.5 0.5-0.5 0.375-0.625l0.125-0.375 0.375-0.125q0.375-0.125 0.625-0.375t0.5-0.5 0.5-0.5 0.5-0.5 0.25-0.5-0.375-0.375-0.75 0-0.625 0.375-0.5 0.5-0.5 0.5-0.5 0.5-0.5 0.5-0.5 0.5-0.5 0.5-0.5 0.5-0.5 0.5-0.5 0.5-0.375 0.625-0.25 0.75-0.375 0.625-0.25 0.5m8-8q0 0.25 0.25 0.25t0.5-0.25 0.5-0.5 0.5-0.5 0.5-0.5 0.25-0.5-0.25-0.25-0.5 0.25-0.5 0.5-0.5 0.5-0.5 0.5-0.25 0.5m3-3q0 0.25 0.25 0.25t0.5-0.25 0.5-0.5 0.25-0.5-0.25-0.25-0.5 0.25-0.5 0.5-0.25 0.5m33.375-20.625q0.375 0.125 0.75 0t0.625-0.375 0.625-0.375 0.75-0.25 0.375-0.375-0.375-0.375-0.75 0-0.625 0.375-0.625 0.375-0.75 0.25-0.375 0.375 0.375 0.375m16.875-5.875q0.5 0 0.875-0.125t0.375-0.375-0.375-0.375-0.875-0.125-0.875 0.125-0.375 0.375 0.375 0.375 0.875 0.125" fill-opacity="0"/>
 </g>
 <path d="m8.963 4.795c1.93 0.027 2.183 1.472 2.747 1.507 0.699 0.043 1.097 0.887 0.814 1.458-0.282 0.57-0.715 0.28-0.731 0.958-9e-3 0.394 0.179 0.687 0.334 0.693 0.434-0.32 0.89-0.326 1.119-0.118s0.23 0.629 0.226 1.162c1.032 1.141 1.289 1.23 1.561 1.765 0.21 0.415 0.418 1.157-0.15 1.393-0.407 1.565-1.561 2.102-2.714 1.965-0.385-0.038-1.378 0.718-3.44 0.29-1.594-0.33-8.752-2.02-7.91-5.123 0.743-2.741 3.299-8.872 4.058-9.583 0 0-0.152 1.494 0.518 2.102 0.295-2.41 2.181-3.186 2.842-3.264-0.648 0.744-0.976 1.599-0.786 2.338 1.47-1.76 3.934-1.582 5.073-1-4.915 0.841-3.561 3.463-3.561 3.463z" fill="#2e3440" fill-rule="evenodd"/>
</svg>
