<svg viewBox="0 0 16 16" xmlns="http://www.w3.org/2000/svg">
 <path d="m2.224 0c-0.121-3e-3 -0.223 0.055-0.223 0.129v2.58c0 0.041 0.032 0.08 0.088 0.103l5.552 2.477-5.552 2.477c-0.199 0.089-0.031 0.276 0.202 0.225l11.57-2.58c0.16-0.035 0.19-0.164 0.053-0.225l-11.57-5.16c-0.035-0.015-0.076-0.025-0.119-0.026z" color-rendering="auto" fill="#2e3440" fill-rule="evenodd" image-rendering="auto" shape-rendering="auto"/>
 <path d="m13.776 16c0.121 3e-3 0.223-0.055 0.223-0.129v-2.58c0-0.041-0.032-0.08-0.088-0.103l-5.552-2.477 5.552-2.477c0.199-0.089 0.031-0.276-0.202-0.225l-11.57 2.58c-0.16 0.035-0.19 0.164-0.053 0.225l11.57 5.16c0.035 0.015 0.076 0.025 0.119 0.026z" color-rendering="auto" fill="#2e3440" fill-rule="evenodd" image-rendering="auto" shape-rendering="auto"/>
</svg>
