<svg width="16" height="16" viewBox="0 0 4.5156 4.5156" xmlns="http://www.w3.org/2000/svg">
 <path transform="scale(.28222)" d="m3.5 4a3.5 3.5 0 0 0-3.5 3.5 3.5 3.5 0 0 0 3.5 3.5 3.5 3.5 0 0 0 2.5-1.0508v3.5508c0 0.277 0.223 0.5 0.5 0.5s0.5-0.223 0.5-0.5v-8c0-0.277-0.223-0.5-0.5-0.5-0.156 0-0.289 0.076-0.381 0.188a3.5 3.5 0 0 0-1.119-0.8462v2.6582h1l-1.5 2-1.5-2h1v-2.96a3.5 3.5 0 0 0-0.5-0.04z" fill="#2e3440"/>
 <path d="m3.5278 3.3867a0.98778 0.98778 0 0 0 0.98778-0.98778 0.98778 0.98778 0 0 0-0.98778-0.98778 0.98778 0.98778 0 0 0-0.70556 0.29655l-2.22e-4 -1.0017c0-0.078-0.063-0.141-0.141-0.141s-0.141 0.063-0.141 0.141v2.257c0 0.078 0.063 0.141 0.141 0.141 0.044 0 0.082-0.021 0.107-0.053a0.98778 0.98778 0 0 0 0.31644 0.2392l-4.45e-4 -0.7502h-0.282l0.424-0.564 0.423 0.564h-0.282v0.835a0.98778 0.98778 0 0 0 0.14111 0.011575z" fill="#2e3440"/>
</svg>
