<svg viewBox="0 0 16 16" xmlns="http://www.w3.org/2000/svg">
 <g transform="matrix(1.3749 0 0 1.3749 -3 -3)" fill="#2e3440" stroke-width=".727">
  <path transform="matrix(.72731 0 0 .72731 2.182 2.184)" d="m7 0v2.0918a6 6 0 0 0-4.6504 3.9082h1.0703a5 5 0 0 1 4.5801-3 5 5 0 0 1 4.5762 3h1.0723a6 6 0 0 0-4.6484-3.9082v-2.0918h-2zm-4.6484 10a6 6 0 0 0 4.6484 3.9082v2.0918h2v-2.0918a6 6 0 0 0 4.6504-3.9082h-1.0703a5 5 0 0 1-4.5801 3 5 5 0 0 1-4.5762-3h-1.0723z" stroke-width="1"/>
 </g>
 <path d="m8 4a4 4 0 0 0-4 4 4 4 0 0 0 0.13281 1h6.1562a2.5 2.5 0 0 1-2.289 1.5 2.5 2.5 0 0 1-1.4941-0.5h-1.9649a4 4 0 0 0 3.459 2 4 4 0 0 0 4-4 4 4 0 0 0-0.13281-1h-6.1562a2.5 2.5 0 0 1 2.289-1.5 2.5 2.5 0 0 1 1.4941 0.5h1.9649a4 4 0 0 0-3.459-2z" fill="#2e3440"/>
</svg>
