<svg viewBox="0 0 16 16" xmlns="http://www.w3.org/2000/svg">
 <path d="m11.756 0.694c1.441 0.756 2.337 1.88 2.236 2.706l-5.882-3.084c-0.018-8e-3 -0.036-0.017-0.055-0.026 0.737-0.495 2.258-0.353 3.7 0.404z" fill="#2e3440" fill-rule="evenodd"/>
 <rect transform="matrix(-.88565 -.46436 -.53651 .8439 0 0)" x="-13.733" y="-3.169" width="2.079" height="10.143" rx=".756" ry=".83" fill="#2e3440" fill-rule="evenodd"/>
 <rect transform="matrix(-.88565 -.46436 -.53651 .8439 0 0)" x="-11.371" y="-3.169" width="2.079" height="10.143" rx=".756" ry=".83" fill="#2e3440" fill-rule="evenodd"/>
 <rect transform="matrix(-.88565 -.46436 -.53651 .8439 0 0)" x="-9" y="-3.169" width="2.079" height="10.143" rx=".756" ry=".83" fill="#2e3440" fill-rule="evenodd"/>
 <path d="m8.21 12.585c4e-3 -0.131-5.866-3.206-5.989-3.138-0.124 0.069-0.3 6.49-0.18 6.552 0.12 0.063 6.167-3.283 6.17-3.415z" fill="#2e3440" fill-rule="evenodd"/>
</svg>
