<svg width="16" height="16" viewBox="0 0 4.5156 4.5156" xmlns="http://www.w3.org/2000/svg">
 <path d="m2.057 0.026c-0.426 0.036-0.843 0.107-1.093 0.199-0.499 0.184-0.58 0.195-0.542 0.377 0.173 0.271 0.263 0.577 0.421 0.858 0.047 0.036 0.102 0.055 0.183 0.019 0.664-0.272 1.35-0.406 2.307-0.173 0.265-0.18 0.373-0.642 0.447-0.935 0.043-0.166-0.014-0.217-0.581-0.327-0.283-0.055-0.718-0.055-1.142-0.019m-0.999 0.583c0.052-4e-3 0.098 0.036 0.102 0.089 4e-3 0.054-0.034 0.1-0.087 0.104-0.052 4e-3 -0.098-0.036-0.102-0.089-4e-3 -0.054 0.034-0.1 0.087-0.104zm2.082-0.165c0.052-4e-3 0.098 0.036 0.102 0.089 4e-3 0.054-0.034 0.1-0.087 0.104-0.052 4e-3 -0.098-0.036-0.102-0.089-4e-3 -0.054 0.034-0.1 0.087-0.104z" fill="#2e3440"/>
 <path d="m2.258 0.565c-1.091 0-1.975 0.884-1.975 1.975s0.884 1.975 1.975 1.975 1.975-0.884 1.975-1.975-0.884-1.975-1.975-1.975zm0 1.358c0.34 0 0.617 0.278 0.617 0.617 0 0.34-0.278 0.617-0.617 0.617-0.34 0-0.617-0.278-0.617-0.617 0-0.34 0.278-0.617 0.617-0.617zm0 0.124c-0.274 0-0.493 0.22-0.493 0.493 0 0.274 0.22 0.493 0.493 0.493 0.274 0 0.493-0.22 0.493-0.493 0-0.274-0.22-0.493-0.493-0.493zm0 0.186c0.17 0 0.308 0.139 0.308 0.308 0 0.17-0.139 0.308-0.308 0.308-0.17 0-0.308-0.139-0.308-0.308 0-0.17 0.139-0.308 0.308-0.308z" fill="#2e3440"/>
</svg>
