<svg viewBox="0 0 16 16" xmlns="http://www.w3.org/2000/svg">
 <path d="m5.674 3.875c-2.367 0-4.287 1.92-4.287 4.287 0 0.095 5e-3 0.194 0.014 0.289-0.834 0.399-1.4 1.207-1.4 2.139 0 1.336 1.16 2.41 2.604 2.41h10.793c1.44 0 2.604-1.075 2.604-2.41 0-0.992-0.645-1.844-1.564-2.211 0.022-0.151 0.035-0.304 0.035-0.459 0-1.697-1.375-3.072-3.072-3.072-0.85 0-1.62 0.348-2.178 0.906-0.769-1.134-2.071-1.877-3.545-1.877l-2e-3 -2e-3zm-1.674 1.125c0.552 0 1 0.448 1 1s-0.448 1-1 1-1-0.448-1-1 0.448-1 1-1zm4 1 2 2h-1v3h-2v-3h-1l2-2z" fill="#2e3440"/>
 <path d="m13.11 4.79-0.322-0.305-0.43 0.095 0.189-0.399-0.223-0.383 0.438 0.056 0.297-0.331 0.081 0.438 0.404 0.176-0.387 0.214z" fill="#2e3440"/>
 <path d="m13.464 3.982 0.018-0.207-0.163-0.133 0.202-0.047 0.077-0.194 0.108 0.18 0.207 9e-3 -0.137 0.159 0.056 0.202-0.194-0.081z" fill="#2e3440"/>
 <path d="m13.657 5.185-0.043-0.313-0.279-0.146 0.288-0.133 0.052-0.313 0.214 0.232 0.313-0.047-0.155 0.275 0.142 0.284-0.309-0.06z" fill="#2e3440"/>
</svg>
