<svg viewBox="0 0 16 16" xmlns="http://www.w3.org/2000/svg">
 <path d="m1.9378 4.4999a7 7 0 0 0 2.5622 9.5622 7 7 0 0 0 0.07469 0.03861 1.5 1.5 0 0 0 1.0863 1.7278 1.5 1.5 0 0 0 1.7667-0.86087 7 7 0 0 0 6.6344-3.4677 7 7 0 0 0 0.92124-3.9042 1.5 1.5 0 0 0 0.61242-1.6311 1.5 1.5 0 0 0-1.3442-1.1054 7 7 0 0 0-2.7516-2.9215 7 7 0 0 0-2.3302-0.83114 1.5 1.5 0 0 0-1.0629-1.0692 1.5 1.5 0 0 0-1.7313 0.77987 1.5 1.5 0 0 0-0.10615 0.28152 1.5 1.5 0 0 0-0.026263 0.13143 7 7 0 0 0-4.3054 3.2697zm0.86603 0.5a6 6 0 0 1 3.6075-2.7796 1.5 1.5 0 0 0 0.91957 0.71585 1.5 1.5 0 0 0 0.27112 0.04603l0.73302 2.7348a1.5 1.5 0 0 0-0.60077 1.6221 1.5 1.5 0 0 0 0.43891 0.72025l-2.0361 4.8237a1.5 1.5 0 0 0-1.059 0.35363 6 6 0 0 1-0.078072-0.040572 6 6 0 0 1-2.1962-8.1962zm5.764-2.2765a1.5 1.5 0 0 0 0.51658-0.61739 6 6 0 0 1 1.9156 0.69775 6 6 0 0 1 2.2654 2.3341 1.5 1.5 0 0 0-0.58004 0.88747l-2.159 0.26a1.5 1.5 0 0 0-1.2257-0.82718zm0.5271 5.7238a1.5 1.5 0 0 0 0.47625-0.047542 1.5 1.5 0 0 0 1.0753-1.1203l2.1596-0.25935a1.5 1.5 0 0 0 1.1869 0.82248 6 6 0 0 1-0.79679 3.1574 6 6 0 0 1-5.7051 2.9713 1.5 1.5 0 0 0-0.43151-0.69793z" fill="#2e3440"/>
</svg>
