<svg viewBox="0 0 16 16" xmlns="http://www.w3.org/2000/svg">
 <path d="m11.5 14.062a7 7 0 0 0 2.5622-9.5622 7 7 0 0 0-0.04537-0.070781 1.5 1.5 0 0 0-0.076917-2.0395 1.5 1.5 0 0 0-1.9605-0.13784 7 7 0 0 0-7.4794-0.31409 7 7 0 0 0-2.7499 2.9205 1.5 1.5 0 0 0-1.3459 1.1063 1.5 1.5 0 0 0 0.61145 1.6294 7 7 0 0 0 0.92222 3.9059 7 7 0 0 0 1.6024 1.8849 1.5 1.5 0 0 0 0.38587 1.4574 1.5 1.5 0 0 0 1.8892 0.19024 1.5 1.5 0 0 0 0.23269-0.19073 1.5 1.5 0 0 0 0.088459-0.10069 7 7 0 0 0 5.3635-0.67894zm-0.5-0.86603a6 6 0 0 1-4.514 0.60345 1.5 1.5 0 0 0-0.43845-1.0797 1.5 1.5 0 0 0-0.21179-0.17542l0.73239-2.7345a1.5 1.5 0 0 0 1.3315-1.1048 1.5 1.5 0 0 0-0.019986-0.84321l4.1705-3.159a1.5 1.5 0 0 0 1.0941 0.22309 6 6 0 0 1 0.04733 0.074163 6 6 0 0 1-2.1962 8.1962zm-6.13-0.91048a1.5 1.5 0 0 0-0.75606 0.27639 6 6 0 0 1-1.3101-1.5621 6 6 0 0 1-0.79484-3.154 1.5 1.5 0 0 0 0.94607-0.47855l2 0.855a1.5 1.5 0 0 0 0.64767 1.3285zm2.4054-5.2205a1.5 1.5 0 0 0-0.43621-0.19695 1.5 1.5 0 0 0-1.4914 0.43253l-1.9996-0.85483a1.5 1.5 0 0 0-0.61695-1.3061 6 6 0 0 1 2.2688-2.336 6 6 0 0 1 6.4264 0.2793 1.5 1.5 0 0 0 0.02473 0.82018z" fill="#2e3440"/>
</svg>
