<svg viewBox="0 0 16 16" xmlns="http://www.w3.org/2000/svg">
 <path d="m14.062 4.5001a7 7 0 0 0-9.5622-2.5622 7 7 0 0 0-0.07078 0.045375 1.5 1.5 0 0 0-2.0395 0.076913 1.5 1.5 0 0 0-0.13784 1.9605 7 7 0 0 0-0.31409 7.4794 7 7 0 0 0 2.9205 2.7499 1.5 1.5 0 0 0 1.1063 1.3459 1.5 1.5 0 0 0 1.6294-0.61145 7 7 0 0 0 3.9059-0.92222 7 7 0 0 0 1.8849-1.6024 1.5 1.5 0 0 0 1.4574-0.38587 1.5 1.5 0 0 0 0.19024-1.8892 1.5 1.5 0 0 0-0.19072-0.23269 1.5 1.5 0 0 0-0.10069-0.08846 7 7 0 0 0-0.67895-5.3635zm-0.86602 0.5a6 6 0 0 1 0.60345 4.514 1.5 1.5 0 0 0-1.0797 0.43845 1.5 1.5 0 0 0-0.17542 0.21178l-2.7344-0.73229a1.5 1.5 0 0 0-1.1049-1.3316 1.5 1.5 0 0 0-0.84321 0.019986l-3.1589-4.1754a1.5 1.5 0 0 0 0.22309-1.0941 6 6 0 0 1 0.074162-0.047328 6 6 0 0 1 8.1962 2.1962zm-0.91048 6.13a1.5 1.5 0 0 0 0.27639 0.75607 6 6 0 0 1-1.5621 1.3101 6 6 0 0 1-3.154 0.79484 1.5 1.5 0 0 0-0.47855-0.94607l0.85465-1.995a1.5 1.5 0 0 0 1.3289-0.65265zm-5.2205-2.4054a1.5 1.5 0 0 0-0.19695 0.43621 1.5 1.5 0 0 0 0.43253 1.4914l-0.855 2a1.5 1.5 0 0 0-1.3059 0.61656 6 6 0 0 1-2.336-2.2688 6 6 0 0 1 0.2793-6.4264 1.5 1.5 0 0 0 0.82018-0.024729z" fill="#2e3440"/>
</svg>
