<svg viewBox="0 0 16 16" xmlns="http://www.w3.org/2000/svg">
 <path d="m7.9998 15a7 7 0 0 0 7-7 7 7 0 0 0-0.003906-0.083984 1.5 1.5 0 0 0 0.95312-1.8047 1.5 1.5 0 0 0-1.6289-1.0996 7 7 0 0 0-6.3203-4.0117 7 7 0 0 0-3.8418 1.1543 1.5 1.5 0 0 0-1.7188 0.28516 1.5 1.5 0 0 0-0.28515 1.7168 7 7 0 0 0-1.1543 3.8438 7 7 0 0 0 0.44531 2.4336 1.5 1.5 0 0 0-0.39453 1.4551 1.5 1.5 0 0 0 1.541 1.1094 1.5 1.5 0 0 0 0.29688-0.04883 1.5 1.5 0 0 0 0.12695-0.04297 7 7 0 0 0 4.9844 2.0938zm-1e-6 -1a6 6 0 0 1-4.2109-1.7344 1.5 1.5 0 0 0 0.16016-1.1543 1.5 1.5 0 0 0-0.095699-0.25782l2.0017-2.0015a1.5 1.5 0 0 0 1.7053-0.29145 1.5 1.5 0 0 0 0.4043-0.74024l5.1954-0.64831a1.5 1.5 0 0 0 0.83594 0.74023 6 6 0 0 1 0.0039 0.087892 6 6 0 0 1-6 6zm-4.8535-3.8535a1.5 1.5 0 0 0-0.79297-0.13868 6 6 0 0 1-0.35352-2.0078 6 6 0 0 1 0.88867-3.1289 1.5 1.5 0 0 0 1.0586 0.058594l1.3049 1.7403a1.5 1.5 0 0 0-0.10376 1.4745zm4.6934-3.3184a1.5 1.5 0 0 0-0.2793-0.38867 1.5 1.5 0 0 0-1.5078-0.37109l-1.3045-1.7404a1.5 1.5 0 0 0 0.11899-1.4393 6 6 0 0 1 3.1328-0.88867 6 6 0 0 1 5.4258 3.4551 1.5 1.5 0 0 0-0.38867 0.72266z" fill="#2e3440"/>
</svg>
