<svg viewBox="0 0 16 16" xmlns="http://www.w3.org/2000/svg">
 <path d="m1.9377 11.5a7 7 0 0 0 9.5622 2.5622 7 7 0 0 0 0.07078-0.04538 1.5 1.5 0 0 0 2.0395-0.07691 1.5 1.5 0 0 0 0.13784-1.9605 7 7 0 0 0 0.3141-7.4794 7 7 0 0 0-2.9206-2.7499 1.5 1.5 0 0 0-1.1063-1.3459 1.5 1.5 0 0 0-1.6294 0.61145 7 7 0 0 0-3.9059 0.92222 7 7 0 0 0-1.8849 1.6024 1.5 1.5 0 0 0-1.4574 0.38587 1.5 1.5 0 0 0-0.19024 1.8892 1.5 1.5 0 0 0 0.19072 0.23268 1.5 1.5 0 0 0 0.10069 0.088461 7 7 0 0 0 0.67894 5.3635zm0.86602-0.5a6 6 0 0 1-0.60345-4.514 1.5 1.5 0 0 0 1.0797-0.43845 1.5 1.5 0 0 0 0.17542-0.21179l2.7346 0.73229a1.5 1.5 0 0 0 1.1047 1.3316 1.5 1.5 0 0 0 0.84321-0.019986l3.159 4.175a1.5 1.5 0 0 0-0.22309 1.0941 6 6 0 0 1-0.07417 0.04733 6 6 0 0 1-8.1959-2.1961zm0.91048-6.13a1.5 1.5 0 0 0-0.27639-0.75607 6 6 0 0 1 1.5621-1.3101 6 6 0 0 1 3.154-0.79484 1.5 1.5 0 0 0 0.47855 0.94607l-0.85445 2a1.5 1.5 0 0 0-1.3291 0.64765zm5.2205 2.4054a1.5 1.5 0 0 0 0.19695-0.43621 1.5 1.5 0 0 0-0.43253-1.4914l0.855-2a1.5 1.5 0 0 0 1.3062-0.61655 6 6 0 0 1 2.336 2.2688 6 6 0 0 1-0.27929 6.4264 1.5 1.5 0 0 0-0.82018 0.02473z" fill="#2e3440"/>
</svg>
