<svg viewBox="0 0 16 16" xmlns="http://www.w3.org/2000/svg">
 <path d="m15 8.0001a7 7 0 0 0-7-7 7 7 0 0 0-0.083985 0.00391 1.5 1.5 0 0 0-1.8047-0.95313 1.5 1.5 0 0 0-1.0996 1.6289 7 7 0 0 0-4.0117 6.3203 7 7 0 0 0 1.1543 3.8418 1.5 1.5 0 0 0 0.28516 1.7188 1.5 1.5 0 0 0 1.7168 0.28515 7 7 0 0 0 3.8438 1.1543 7 7 0 0 0 2.4336-0.44531 1.5 1.5 0 0 0 1.4551 0.39453 1.5 1.5 0 0 0 1.1094-1.541 1.5 1.5 0 0 0-0.04883-0.29688 1.5 1.5 0 0 0-0.04297-0.12695 7 7 0 0 0 2.0938-4.9844zm-1 0a6 6 0 0 1-1.7344 4.2109 1.5 1.5 0 0 0-1.1543-0.16016 1.5 1.5 0 0 0-0.25781 0.0957l-2.0024-2.0016a1.5 1.5 0 0 0-0.29055-1.7054 1.5 1.5 0 0 0-0.74024-0.40429l-0.64821-5.1953a1.5 1.5 0 0 0 0.74001-0.83599 6 6 0 0 1 0.08789-0.00391 6 6 0 0 1 6 6zm-3.8535 4.8535a1.5 1.5 0 0 0-0.13867 0.79297 6 6 0 0 1-2.0078 0.35352 6 6 0 0 1-3.1289-0.88867 1.5 1.5 0 0 0 0.058594-1.0586l1.74-1.305a1.5 1.5 0 0 0 1.4746 0.10352zm-3.3184-4.6934a1.5 1.5 0 0 0-0.38867 0.2793 1.5 1.5 0 0 0-0.37109 1.5078l-1.7403 1.3046a1.5 1.5 0 0 0-1.4394-0.11909 6 6 0 0 1-0.88867-3.1328 6 6 0 0 1 3.4551-5.4258 1.5 1.5 0 0 0 0.72266 0.38867z" fill="#2e3440"/>
</svg>
