<svg viewBox="0 0 16 16" xmlns="http://www.w3.org/2000/svg">
 <path d="m4.4998 14.062a7 7 0 0 0 9.5622-2.5622 7 7 0 0 0 0.03861-0.07469 1.5 1.5 0 0 0 1.7278-1.0863 1.5 1.5 0 0 0-0.86087-1.7667 7 7 0 0 0-3.4677-6.6344 7 7 0 0 0-3.9042-0.92125 1.5 1.5 0 0 0-1.6311-0.61242 1.5 1.5 0 0 0-1.1054 1.3442 7 7 0 0 0-2.9215 2.7516 7 7 0 0 0-0.83114 2.3302 1.5 1.5 0 0 0-1.0692 1.0629 1.5 1.5 0 0 0 0.77987 1.7313 1.5 1.5 0 0 0 0.28152 0.10615 1.5 1.5 0 0 0 0.13143 0.026263 7 7 0 0 0 3.2697 4.3054zm0.5-0.86603a6 6 0 0 1-2.7796-3.6075 1.5 1.5 0 0 0 0.71585-0.91957 1.5 1.5 0 0 0 0.04603-0.27112l2.7349-0.73292a1.5 1.5 0 0 0 1.6221 0.60051 1.5 1.5 0 0 0 0.72025-0.43891l4.823 2.036a1.5 1.5 0 0 0 0.35383 1.059 6 6 0 0 1-0.04057 0.07807 6 6 0 0 1-8.1962 2.1962zm-2.2765-5.764a1.5 1.5 0 0 0-0.61739-0.51658 6 6 0 0 1 0.69775-1.9156 6 6 0 0 1 2.3341-2.2654 1.5 1.5 0 0 0 0.88747 0.58004l0.2598 2.1594a1.5 1.5 0 0 0-0.82698 1.2253zm5.7237-0.5271a1.5 1.5 0 0 0-0.047542-0.47625 1.5 1.5 0 0 0-1.1203-1.0753l-0.25925-2.1595a1.5 1.5 0 0 0 0.8229-1.187 6 6 0 0 1 3.1574 0.79679 6 6 0 0 1 2.9713 5.7051 1.5 1.5 0 0 0-0.69793 0.4315z" fill="#2e3440"/>
</svg>
