<svg viewBox="0 0 16 16" xmlns="http://www.w3.org/2000/svg">
 <path d="m13.332 3.973c0.535 0 0.992 0.176 1.371 0.523 0.379 0.352 0.57 0.773 0.57 1.266v6.266c0 0.496-0.191 0.918-0.57 1.266-0.379 0.352-0.836 0.523-1.371 0.523h-10.664c-0.535 0-0.992-0.172-1.371-0.523-0.379-0.348-0.57-0.77-0.57-1.266v-6.266c0-0.492 0.191-0.914 0.57-1.266 0.379-0.348 0.836-0.523 1.371-0.523h1.695l0.387-0.953c0.098-0.227 0.27-0.426 0.527-0.59 0.254-0.164 0.516-0.246 0.785-0.246h3.875c0.27 0 0.531 0.082 0.785 0.246s0.43 0.363 0.527 0.59l0.387 0.953zm-5.332 8.05c0.934 0 1.734-0.305 2.398-0.918s0.996-1.352 0.996-2.215-0.332-1.602-0.996-2.211c-0.664-0.613-1.465-0.922-2.398-0.922-0.934 0-1.734 0.309-2.398 0.922-0.664 0.609-0.996 1.348-0.996 2.211s0.332 1.602 0.996 2.215 1.465 0.918 2.398 0.918z" fill="#2e3440"/>
 <rect x="6" y="7" width="1.5" height="4" rx=".75" ry=".775" fill="#2e3440" fill-rule="evenodd"/>
 <rect x="8.5" y="7" width="1.5" height="4" rx=".75" ry=".769" fill="#2e3440" fill-rule="evenodd"/>
</svg>
