<svg viewBox="0 0 16 16" xmlns="http://www.w3.org/2000/svg">
 <path d="m8 0c-0.777 1e-3 -1.549 0.116-2.293 0.34-1.878-0.596-3.626-0.421-4.707 0.66s-1.257 2.832-0.66 4.711c-0.224 0.743-0.338 1.514-0.34 2.289 0 4.418 3.582 8 8 8 0.777-1e-3 1.549-0.116 2.293-0.34 1.878 0.596 3.626 0.421 4.707-0.66s1.257-2.832 0.66-4.711c0.224-0.743 0.338-1.514 0.34-2.289 0-4.418-3.582-8-8-8zm-0.293 4.295 1.414 1.414-1.293 1.291h4.172v2h-4.172l1.293 1.293-1.414 1.414-3.707-3.707 3.707-3.705z" fill="#88c0d0"/>
</svg>
