<svg viewBox="0 0 16 16" xmlns="http://www.w3.org/2000/svg">
 <path d="m8 0c-0.777 1e-3 -1.549 0.116-2.293 0.34-1.878-0.596-3.626-0.421-4.707 0.66s-1.257 2.832-0.66 4.711c-0.224 0.743-0.338 1.514-0.34 2.289 0 4.418 3.582 8 8 8 0.777-1e-3 1.549-0.116 2.293-0.34 1.878 0.596 3.626 0.421 4.707-0.66s1.257-2.832 0.66-4.711c0.224-0.743 0.338-1.514 0.34-2.289 0-4.418-3.582-8-8-8zm-2.645 3.262 3.146 1.572-1.574 3.145-0.426-1.277c-0.294 0.338-0.485 0.761-0.502 1.227-0.027 0.743 0.355 1.435 0.998 1.807l-1 1.732c-1.282-0.741-2.053-2.133-1.998-3.613 0.048-1.309 0.737-2.499 1.818-3.203l-0.463-1.389zm4.646 1.271c1.282 0.741 2.053 2.133 1.998 3.613-0.048 1.309-0.737 2.499-1.818 3.203l0.463 1.389-3.146-1.572 1.574-3.145 0.426 1.279c0.294-0.338 0.485-0.761 0.502-1.227 0.027-0.743-0.355-1.435-0.998-1.807l1-1.732v-2e-3z" fill="#2e3440"/>
</svg>
