<svg viewBox="0 0 16 16" xmlns="http://www.w3.org/2000/svg">
 <path d="m8 0a8 8 0 0 0-2.293 0.33984c-1.878-0.59584-3.626-0.42084-4.707 0.66016s-1.257 2.832-0.66 4.711a8 8 0 0 0-0.34 2.289 8 8 0 0 0 8 8 8 8 0 0 0 2.293-0.33984c1.878 0.59584 3.626 0.41984 4.707-0.66016 1.08-1.081 1.257-2.832 0.66-4.711a8 8 0 0 0 0.34-2.289 8 8 0 0 0-8-8zm0.176 3.707h4e-3c0.512 0 0.964 0.06 1.357 0.178 0.404 0.111 0.719 0.233 0.947 0.367l-0.464 1.209c-0.265-0.15-0.562-0.265-0.885-0.344-0.317-0.077-0.643-0.119-0.983-0.119-0.403 0-0.72 0.084-0.949 0.25-0.222 0.166-0.332 0.398-0.332 0.697 0 0.182 0.037 0.342 0.108 0.477 0.081 0.127 0.186 0.241 0.32 0.344 0.142 0.102 0.302 0.196 0.484 0.284 0.19 0.086 0.398 0.17 0.619 0.249 0.388 0.142 0.73 0.286 1.03 0.437 0.308 0.142 0.565 0.314 0.771 0.524 0.214 0.197 0.376 0.434 0.486 0.711 0.111 0.268 0.166 0.596 0.166 0.982 0 0.743-0.265 1.321-0.795 1.733-0.521 0.404-1.287 0.605-2.296 0.605-0.34 0-0.653-0.024-0.938-0.072-0.276-0.04-0.523-0.089-0.744-0.159-0.214-0.06-0.401-0.122-0.559-0.185-0.157-0.071-0.284-0.135-0.378-0.189l0.439-1.221c0.214 0.119 0.502 0.236 0.865 0.355 0.364 0.119 0.803 0.178 1.317 0.178 0.537 0 0.929-0.09 1.173-0.271 0.245-0.182 0.366-0.441 0.366-0.774 0-0.198-0.042-0.366-0.129-0.508-0.076-0.141-0.199-0.27-0.358-0.385-0.149-0.114-0.336-0.219-0.556-0.314-0.222-0.103-0.474-0.202-0.758-0.297-0.285-0.103-0.562-0.213-0.832-0.332-0.261-0.127-0.493-0.281-0.697-0.463-0.198-0.181-0.36-0.398-0.487-0.654-0.119-0.249-0.179-0.555-0.179-0.91 0-0.743 0.259-1.324 0.773-1.742 0.514-0.426 1.21-0.64 2.094-0.641z" fill="#2e3440"/>
</svg>
