<svg viewBox="0 0 16 16" xmlns="http://www.w3.org/2000/svg">
 <path d="m9.142 5e-3c-0.184-0.016-0.375 5e-3 -0.563 0.066-0.749 0.243-1.157 1.047-0.914 1.795l0.467 1.436-3 0.977c-0.103-0.318-0.467-1.437-0.467-1.437-0.243-0.749-1.047-1.159-1.795-0.916-0.749 0.243-1.159 1.048-0.916 1.797l0.467 1.437-1.483 0.481c-0.699 0.253-1.092 1.01-0.883 1.733 0.218 0.756 1.021 1.218 1.764 0.977 4e-3 -1e-3 1.144-0.371 1.483-0.481l0.975 3-1.483 0.481c-0.699 0.253-1.093 1.01-0.884 1.734 0.218 0.756 1.021 1.218 1.764 0.977 4e-3 -1e-3 1.145-0.372 1.484-0.483l0.481 1.483c0.253 0.699 1.01 1.092 1.733 0.883 0.756-0.218 1.218-1.021 0.977-1.764-1e-3 -4e-3 -0.371-1.143-0.481-1.481 1.398-0.454 1.611-0.524 3-0.975l0.481 1.481c0.253 0.699 1.01 1.093 1.734 0.884 0.756-0.218 1.218-1.021 0.977-1.764-1e-3 -4e-3 -0.371-1.144-0.481-1.483 0.316-0.103 1.434-0.466 1.434-0.466 0.749-0.243 1.159-1.048 0.916-1.797s-1.047-1.157-1.795-0.914l-1.436 0.467c-0.454-1.398-0.524-1.611-0.975-3 0.317-0.103 1.436-0.467 1.436-0.467 0.749-0.243 1.159-1.047 0.916-1.795-0.243-0.749-1.048-1.159-1.797-0.916l-1.436 0.467c-0.103-0.317-0.466-1.436-0.466-1.436-0.182-0.562-0.681-0.934-1.234-0.981zm-0.13 6.01 0.975 3-3 0.975c-0.454-1.398-0.524-1.611-0.975-3 1.398-0.454 1.611-0.524 3-0.975z" fill="#88c0d0"/>
</svg>
