<svg viewBox="0 0 16 16" xmlns="http://www.w3.org/2000/svg">
 <g transform="matrix(.075 0 0 .076923 -1.6 14.154)" fill="#4c566a">
  <path d="m161.33-158h22.22c33.33 0 33.33 33.428 33.33 33.428v33.08c0 11.143-22.22 33.776-22.22 33.776v11.143l33.33 22.285v22.286h-122.22v-22.286l44.44-22.285v-11.143s-22.296-22.633-22.22-33.776v-33.08s0-33.428 33.33-33.428zm-77.78 22.286h22.22v44.22c0 11.143 22.22 33.776 22.22 33.776l-44.44 22.286v22.285l-55.56-0.345v-11.143l44.44-21.938v-11.142s-22.295-22.634-22.22-33.776v-10.795c0-33.429 33.33-33.429 33.33-33.429z"/>
 </g>
</svg>
