<svg width="16" height="16" version="1.1" xmlns="http://www.w3.org/2000/svg">
 <defs>
  <style id="current-color-scheme" type="text/css">.ColorScheme-Text { 
    color:#2e3440;
} .ColorScheme-Highlight { color:#4285f4; } .ColorScheme-NeutralText { color:#ff9800; } .ColorScheme-PositiveText { color:#4caf50; } .ColorScheme-NegativeText { color:#f44336; }</style>
 </defs>
 <path class="ColorScheme-Text" d="m8 1a7 7 0 0 0-7 7 7 7 0 0 0 7 7 7 7 0 0 0 7-7 7 7 0 0 0-7-7zm0.1445 2.998v2e-3h2e-3c1.309 0.048 2.5005 0.7374 3.2035 1.8184l1.388-0.4629-1.57 3.1465-3.1465-1.5743 1.2773-0.4257c-0.338-0.294-0.7625-0.487-1.2285-0.504-0.742-0.027-1.4346 0.3551-1.8066 0.9981l-1.7325-1c0.7401-1.282 2.1338-2.0531 3.6133-1.9981zm-3.3125 3.5 3.1465 1.5743-1.2773 0.4257c0.3378 0.294 0.7625 0.485 1.2285 0.502 0.742 0.027 1.4346-0.355 1.8066-0.998l1.7327 1c-0.74 1.282-2.1345 2.053-3.6135 1.998-1.3085-0.048-2.5002-0.737-3.2032-1.818l-1.3886 0.463z" fill="currentColor"/>
</svg>
