<?xml version="1.0" encoding="UTF-8" standalone="no"?>
<svg
   version="1.1"
   viewBox="0 0 24 24"
   id="svg35"
   sodipodi:docname="state-download.svg"
   xmlns:inkscape="http://www.inkscape.org/namespaces/inkscape"
   xmlns:sodipodi="http://sodipodi.sourceforge.net/DTD/sodipodi-0.dtd"
   xmlns="http://www.w3.org/2000/svg"
   xmlns:svg="http://www.w3.org/2000/svg">
  <sodipodi:namedview
     id="namedview37"
     pagecolor="#ffffff"
     bordercolor="#666666"
     borderopacity="1.0"
     inkscape:pageshadow="2"
     inkscape:pageopacity="0.0"
     inkscape:pagecheckerboard="0" />
  <defs
     id="defs8">
    <style
       id="current-color-scheme"
       type="text/css">.ColorScheme-Text {
        color:#eceff4ff
      }</style>
    <linearGradient
       id="linearGradient4181"
       x1="399.99"
       x2="399.99"
       y1="545.14"
       y2="518.14"
       gradientTransform="matrix(.42857 0 0 .42857 -159.67 -213.41)"
       gradientUnits="userSpaceOnUse">
      <stop
         stop-color="#a3be8c"
         offset="0"
         id="stop3" />
      <stop
         stop-color="#8fbcbb"
         offset="1"
         id="stop5" />
    </linearGradient>
  </defs>
  <g
     transform="translate(5.0533,-5)"
     id="g33">
    <g
       transform="translate(-5.0535,2.5)"
       id="g12">
      <path
         class="ColorScheme-Text"
         d="m12.017 6.0001c-2.2914 0-4.2336 1.5534-4.8355 3.6582-0.52315-1.1164-1.6568-1.8985-2.9626-1.8985-1.7958 0-3.272 1.4762-3.272 3.272s1.4762 3.2727 3.272 3.2727c1.3058 0 2.4395-0.7826 2.9626-1.8992 0.60194 2.1049 2.5441 3.6588 4.8355 3.6588 2.2745 0 4.2067-1.5305 4.8241-3.6117 0.53282 1.0912 1.6525 1.852 2.9397 1.852 1.7958 0 3.2727-1.4769 3.2727-3.2727s-1.4769-3.272-3.2727-3.272c-1.2873 0-2.4069 0.76029-2.9397 1.8513-0.61734-2.081-2.5496-3.611-4.8241-3.611zm0 1.9207c1.7298 0 3.1116 1.3812 3.1116 3.1109s-1.3818 3.1116-3.1116 3.1116-3.1109-1.3818-3.1109-3.1116 1.3812-3.1109 3.1109-3.1109zm-7.7982 1.7597c0.75785 0 1.3519 0.5934 1.3519 1.3513 0 0.75784-0.59408 1.3519-1.3519 1.3519-0.75785 0-1.3513-0.59408-1.3513-1.3519 0-0.75785 0.59341-1.3513 1.3513-1.3513zm15.562 0c0.75785 0 1.3519 0.5934 1.3519 1.3513 0 0.75784-0.59408 1.3519-1.3519 1.3519-0.75784 0-1.3513-0.59408-1.3513-1.3519 0-0.75785 0.59341-1.3513 1.3513-1.3513z"
         color="#000000"
         color-rendering="auto"
         fill="currentColor"
         image-rendering="auto"
         shape-rendering="auto"
         stroke="#2e3440"
         stroke-width=".3"
         id="path10" />
    </g>
    <g
       transform="translate(0,5)"
       id="g31">
      <circle
         cx="12"
         cy="14.5"
         r="6"
         fill="url(#linearGradient4181)"
         id="circle14" />
      <g
         transform="matrix(.475 0 0 .475 -148.14 -244.29)"
         fill="#fff"
         fill-opacity=".85098"
         id="g29">
        <g
           transform="matrix(1.3843,0,0,1.3843,325.81,-900.23)"
           fill="#fff"
           fill-opacity=".85098"
           id="g27">
          <g
             transform="translate(-401.01,510.63)"
             fill="#fff"
             fill-opacity=".85098"
             id="g25">
            <g
               transform="translate(5.0558,-5.2511)"
               fill="#fff"
               fill-opacity=".85098"
               id="g23">
              <g
                 transform="translate(-11.317,5.8825)"
                 fill="#fff"
                 fill-opacity=".85098"
                 stroke="#000"
                 stroke-opacity=".8"
                 id="g21">
                <g
                   transform="translate(1.8733 -.28411)"
                   fill="#fff"
                   fill-opacity=".85098"
                   id="g19">
                  <g
                     transform="matrix(.78637 0 0 .78395 93.526 112.35)"
                     fill="#fff"
                     fill-opacity=".85098"
                     id="g17">
                    <path
                       id="Download"
                       d="m412.39 537.33c-0.40104-0.40373-1.0517-0.40373-1.4532 0l-4.0568 4.4969-4.0568-4.4969c-0.40151-0.40373-1.0517-0.40373-1.4532 0-0.40152 0.40373-0.40152 1.0577 0 1.4614l4.719 5.2315c0.21722 0.21815 0.5065 0.31434 0.79095 0.29636 0.28395 0.018 0.57373-0.0783 0.79093-0.29636l4.719-5.2315c0.40102-0.40373 0.40102-1.0577 0-1.4614zm-5.516-4.3514c0.93509 0 1.6931-0.76131 1.6931-1.7004 0-0.93912-0.75804-1.7004-1.6931-1.7004s-1.6931 0.76131-1.6931 1.7004c0 0.93911 0.75805 1.7004 1.6931 1.7004zm0 4.8584c0.93509 0 1.6931-0.76131 1.6931-1.7004s-0.75804-1.7004-1.6931-1.7004-1.6931 0.7613-1.6931 1.7004 0.75805 1.7004 1.6931 1.7004z"
                       fill="#fff"
                       fill-opacity=".85098"
                       stroke="none" />
                  </g>
                </g>
              </g>
            </g>
          </g>
        </g>
      </g>
    </g>
  </g>
</svg>
