<svg viewBox="0 0 16 16" xmlns="http://www.w3.org/2000/svg">
 <path d="m13 5v2h2v-2zm-1 3v2h1v2h-1v2h4v-2h-1v-4z" fill="#2e3440"/>
 <g transform="matrix(.0602 0 0 .0628 -12.88 .203)" fill="#2e3440">
  <path transform="matrix(16.612 0 0 15.923 213.95 -3.232)" d="m7.258 2.857c-0.884 0-1.634 0.538-2 1.314-0.21-0.178-0.479-0.287-0.771-0.287-0.676 0-1.229 0.582-1.229 1.287 0 0.273 0.089 0.534 0.229 0.742-0.474 0.314-0.826 0.802-1 1.371-0.084-0.01-0.171-0.027-0.258-0.027-1.238 0-2.229 1.049-2.229 2.342 0 1.292 0.99 2.344 2.229 2.344 0.527 0 1.017-0.197 1.4-0.516 0.234 0.317 0.586 0.543 1 0.543 0.57 0 1.032-0.406 1.199-0.941 0.557 0.567 1.333 0.914 2.172 0.914 0.825 0 1.56-0.337 2.115-0.887 0.235 0.302 0.54 0.544 0.885 0.709v-4.766h1v-0.057h-0.027c-0.042-1.252-1.047-2.258-2.258-2.258-0.088 0-0.172 0.019-0.256 0.029-0.209-1.066-1.118-1.857-2.201-1.857z"/>
 </g>
</svg>
