<svg viewBox="0 0 16 16" xmlns="http://www.w3.org/2000/svg">
 <path d="m12.5 1a3.5 3.5 0 0 0-3.5 3.5 3.5 3.5 0 0 0 1 2.4453v3.1047a2.5 2.5 0 0 0-0.5-0.05 2.5 2.5 0 0 0-1.4902 0.49609l-3.0278-1.7301a2.5 2.5 0 0 0 0.018-0.266 2.5 2.5 0 0 0-2.5-2.5 2.5 2.5 0 0 0-2.5 2.5 2.5 2.5 0 0 0 2.5 2.5 2.5 2.5 0 0 0 1.4902-0.49609l3.03 1.73a2.5 2.5 0 0 0-0.020234 0.26609 2.5 2.5 0 0 0 2.5 2.5 2.5 2.5 0 0 0 2.5-2.5 2.5 2.5 0 0 0-0.33203-1.2402l1.871-3.4178a3.5 3.5 0 0 0 2.461-3.342 3.5 3.5 0 0 0-3.5-3.5zm0 1a2.5 2.5 0 0 1 2.5 2.5 2.5 2.5 0 0 1-2.5 2.5 2.5 2.5 0 0 1-2.5-2.5 2.5 2.5 0 0 1 2.5-2.5zm0 1a1.5 1.5 0 0 0-1.5 1.5 1.5 1.5 0 0 0 1.5 1.5 1.5 1.5 0 0 0 1.5-1.5 1.5 1.5 0 0 0-1.5-1.5zm-10 4a1.5 1.5 0 0 1 1.4648 1.1836l-0.96884-0.55259a1.0001 1.0001 0 0 0-0.57412-0.13686 1.0001 1.0001 0 0 0-0.41797 1.875l0.96709 0.55286a1.5 1.5 0 0 1-0.471 0.078 1.5 1.5 0 0 1-1.5-1.5 1.5 1.5 0 0 1 1.5-1.5zm6.9707 4a1.5 1.5 0 0 1 0.029297 0 1.5 1.5 0 0 1 1.5 1.5 1.5 1.5 0 0 1-1.5 1.5 1.5 1.5 0 0 1-1.4648-1.1836l0.969 0.553a1.0008 1.0008 0 1 0 0.99193-1.7385l-0.96609-0.55086a1.5 1.5 0 0 1 0.4407-0.08z" fill="#2e3440"/>
</svg>
