<svg viewBox="0 0 16 16" xmlns="http://www.w3.org/2000/svg">
 <g transform="translate(0,-112)">
  <path transform="translate(0,112)" d="m8.609 3.271c-0.412 1e-3 -0.869 0.035-1.371 0.1-0.566 0.073-1.196 0.184-1.889 0.334-0.619 0.142-1.206 0.298-1.762 0.469-0.546 0.166-1.066 0.352-1.559 0.559-0.986 0.405-1.496 0.739-1.527 0.998-0.031 0.268 0.205 0.419 0.709 0.455 0.262 0.02 0.576 0.01 0.943-0.035 0.126-0.012 0.783-0.099 0.783-0.119 0-0.024 1e-3 1e-3 -0.475-0.18-0.169-0.064-0.203-0.062-0.299-0.105-0.051-0.023-0.116-0.034-0.145-0.082-0.014-0.023-0.033-0.05-2e-3 -0.082 0.24-0.248 1.741-0.744 2.072-0.84 0.556-0.162 0.575-0.161 1.236-0.311 1.311-0.284 2.02-0.462 2.742-0.445 0.766 0.024 0.979 0.021 0.979 0.357-0.023 0.166-0.101 0.244-0.18 0.35-0.451 0.551-1.609 1.203-4.158 2.824-0.021 0.02-0.042 0.039-0.063 0.055-0.011 0.012-0.016 0.025-0.016 0.037 0 0.045 1.323 0.309 1.459 0.309 0.147 0 0.277-0.033 0.393-0.098 0.157-0.101 0.377-0.227 0.66-0.377 0.294-0.15 0.453-0.244 0.883-0.455 0.514-0.251 1.029-0.486 1.543-0.705s1.037-0.428 1.572-0.627c1.322-0.474 1.465-0.506 2.053-0.631 0.293-0.062 0.319-0.066 0.477-0.066 0.241 0 0.326 3e-3 0.363 0.127 0.028 0.093-0.058 0.145-0.174 0.23 0 0-1.267 0.813-1.869 1.266-0.239 0.18-0.468 0.376-0.691 0.576-0.215 0.193-0.42 0.397-0.625 0.602l0.441 0.441c0.155-0.138 0.308-0.279 0.465-0.416 0.296-0.257 0.593-0.515 0.898-0.76 0.11-0.088 0.225-0.171 0.338-0.256l1.059-1.059 0.168 0.168c0.092-0.065 0.182-0.133 0.275-0.197 0.379-0.262 0.853-0.432 1.133-0.803 0.028-0.038 0.043-0.088 0.047-0.135 4e-3 -0.056-3e-3 -0.116-0.031-0.164-0.056-0.096-0.156-0.161-0.252-0.215-0.101-0.057-0.216-0.087-0.33-0.107-0.124-0.022-0.23-0.024-0.377-0.012-0.923 0.057-2.234 0.408-3.934 1.053-0.629 0.235-1.208 0.461-1.732 0.68-0.514 0.219-0.986 0.434-1.416 0.645-0.094 0.065-0.179 0.098-0.252 0.098-0.042 0-0.063-8e-3 -0.063-0.023 0-0.028 0.038-0.065 0.111-0.109 0.839-0.543 1.495-1 1.967-1.375 0.483-0.377 0.796-0.676 0.943-0.895 0.052-0.093 0.078-0.186 0.078-0.279 0-0.215-0.12-0.388-0.361-0.518-0.262-0.158-0.624-0.24-1.086-0.248-0.051-1e-3 -0.102-2e-3 -0.154-2e-3zm-0.268 7.23c-4e-3 0.012-0.027 0.041-0.029 0.051-0.56 0.276-1.675 0.745-2.859 2.176 1.999-0.919 2.061-1.066 3.146-1.564 0.172 0.156 0.171 0.156 0.172 0.156 0.151 0.114 0.334 0.124 0.512 0.125-0.31-0.311-0.621-0.623-0.941-0.943z" fill="#5e81ac" fill-rule="evenodd"/>
  <path d="m11.25 121.75 2.625-2.625 1.125 1.125-3.75 3.75c-0.769-0.769-1.481-1.485-2.25-2.254l1.125-1.12z" fill="#a3be8c"/>
 </g>
</svg>
