<svg width="16" height="16" version="1.1" viewBox="0 0 16 16" xmlns="http://www.w3.org/2000/svg">
 <g id="surface1">
  <path d="m11.40625 6.296875c-0.71875-0.128906-1.441406-0.453125-2.101562-0.863281-0.597657-0.375-1.160157-0.761719-1.609376-1.203125-0.777343-0.621094-1.523437-1.152344-2.597656-1.074219-0.992187 0.074219-1.683594 0.710938-2.152344 1.566406-0.6875 1.261719-0.898437 2.984375-0.871093 4.183594 0.019531 0.992188 0.183593 2.019531 0.472656 3.085938 0.273437 1.007812 0.660156 2.046874 1.148437 3.113281 1.136719-0.132813 2.152344-0.328125 3.054688-0.574219 0.957031-0.257812 1.789062-0.574219 2.523438-0.9375 0.890624-0.445312 2.191406-1.371094 3.117187-2.449219 0.652344-0.761719 1.113281-1.59375 1.074219-2.359375-0.007813-0.175781-0.039063-0.347656-0.089844-0.515625-0.054688-0.171875-0.128906-0.339843-0.226562-0.507812-0.488282-0.839844-1.078126-1.195313-1.742188-1.464844zm-4.78125 0.097656c-0.089844 0.152344-0.265625 0.28125-0.648438 0.433594-0.023437-0.457031-0.015624-0.617187 0.074219-0.773437 0.089844-0.152344 0.265625-0.257813 0.457031-0.148438 0.1875 0.109375 0.207032 0.332031 0.117188 0.488281zm-1.65625-0.957031c-0.089844 0.152344-0.265625 0.285156-0.648438 0.4375-0.023437-0.457031-0.015624-0.621094 0.074219-0.777344 0.089844-0.152344 0.265625-0.257812 0.457031-0.148437 0.191407 0.113281 0.207032 0.332031 0.117188 0.488281zm1.164062 7.976562c-0.089843 0.152344-0.265624 0.28125-0.648437 0.433594-0.023437-0.457031-0.015625-0.617187 0.074219-0.773437 0.089844-0.152344 0.265625-0.257813 0.457031-0.148438s0.207031 0.332031 0.117187 0.488281zm3.65625-2.839843c0.191407 0.109375 0.207032 0.332031 0.117188 0.488281-0.085938 0.152344-0.265625 0.28125-0.648438 0.433594-0.023437-0.457032-0.015624-0.617188 0.074219-0.773438 0.089844-0.15625 0.265625-0.257812 0.457031-0.148437zm-5.28125 1.769531c-0.089843 0.152344-0.265624 0.28125-0.648437 0.433594-0.023437-0.457032-0.015625-0.617188 0.074219-0.773438 0.089844-0.152344 0.265625-0.257812 0.457031-0.148437 0.1875 0.109375 0.207031 0.332031 0.117187 0.488281zm0.070313-2.101562c-0.089844 0.152343-0.269531 0.28125-0.652344 0.433593-0.023437-0.457031-0.011719-0.617187 0.074219-0.773437 0.089844-0.152344 0.269531-0.257813 0.457031-0.148438 0.191407 0.109375 0.207031 0.332032 0.121094 0.488282zm3.410156 1.96875c-0.089843 0.15625-0.265625 0.285156-0.648437 0.4375-0.023438-0.457032-0.015625-0.617188 0.074218-0.773438 0.089844-0.15625 0.265626-0.257812 0.457032-0.148438 0.191406 0.109376 0.207031 0.332032 0.117187 0.484376zm3.863281-2.800782c-0.089843 0.15625-0.265624 0.285156-0.648437 0.4375-0.023437-0.457031-0.015625-0.617187 0.074219-0.773437s0.265625-0.257813 0.457031-0.148438 0.207031 0.332031 0.117187 0.484375zm-5.5 1.640625c-0.089843 0.152344-0.265624 0.285157-0.648437 0.4375-0.023437-0.457031-0.015625-0.621093 0.074219-0.777343 0.089844-0.152344 0.265625-0.257813 0.457031-0.144532 0.191406 0.105469 0.207031 0.328125 0.117187 0.484375zm2.007813-1.050781c-0.085937 0.15625-0.265625 0.285156-0.648437 0.4375-0.023438-0.457031-0.015626-0.617188 0.074218-0.773438 0.089844-0.152343 0.269532-0.257812 0.457032-0.148437 0.191406 0.109375 0.207031 0.332031 0.117187 0.484375zm1.683594-2.050781c0.1875 0.109375 0.203125 0.332031 0.117187 0.484375-0.089844 0.152344-0.269531 0.285156-0.652344 0.4375-0.019531-0.457032-0.011718-0.621094 0.078126-0.773438 0.085937-0.15625 0.265624-0.261718 0.457031-0.148437zm-3.613281 0.9375c-0.089844 0.152343-0.265626 0.285156-0.648438 0.4375-0.023438-0.457031-0.015625-0.621094 0.074219-0.773438 0.089843-0.15625 0.265625-0.261719 0.457031-0.148437 0.191406 0.109375 0.207031 0.332031 0.117188 0.484375zm1.976562-1.882813c0.1875 0.109375 0.207031 0.332032 0.117188 0.484375-0.089844 0.15625-0.265626 0.285157-0.648438 0.4375-0.023438-0.457031-0.015625-0.617187 0.074219-0.773437 0.089843-0.15625 0.265625-0.257813 0.457031-0.148438zm-3.65625 0.914063c-0.089844 0.152343-0.269531 0.28125-0.652344 0.433593-0.023437-0.457031-0.015625-0.617187 0.074219-0.773437s0.265625-0.257813 0.460937-0.148437c0.1875 0.109374 0.203126 0.332031 0.117188 0.488281z" style="fill:rgb(81.960785%,21.568628%,17.647059%)"/>
  <path d="m6.953125 3.90625c0.269531 0.191406 0.53125 0.402344 0.792969 0.617188 0.46875 0.378906 0.953125 0.769531 1.511718 1.085937 0.535157 0.304687 1.023438 0.570313 1.515626 0.746094 0.359374 0.132812 0.734374 0.179687 1.0625 0.335937h0.183593c0.683594-0.03125 1.34375-0.304687 1.910157-0.933594-0.347657-0.257812-0.6875-0.4375-1.015626-0.550781-0.402343-0.132812-0.792968-0.164062-1.167968-0.105469-0.132813 0.019532-0.253906-0.070312-0.273438-0.199218-0.015625-0.089844 0.023438-0.175782 0.09375-0.230469 0.429688-0.320313 0.8125-0.683594 1.078125-1.078125h0.003907c0.191406-0.28125 0.324218-0.578125 0.375-0.878906-0.339844-0.109375-0.695313-0.097656-1.046876 0.007812-0.457031 0.140625-0.910156 0.445313-1.328124 0.859375-0.089844 0.097657-0.246094 0.097657-0.339844 0.003907-0.050782-0.054688-0.074219-0.125-0.070313-0.195313 0.0625-0.617187 0.054688-1.230469-0.082031-1.722656-0.089844-0.328125-0.242188-0.597657-0.464844-0.773438-0.316406 0.203125-0.539062 0.464844-0.671875 0.769531-0.167969 0.378907-0.210937 0.832032-0.152343 1.324219 0.015624 0.128907-0.078126 0.25-0.207032 0.265625-0.097656 0.011719-0.1875-0.035156-0.234375-0.113281-0.300781-0.464844-0.625-0.855469-0.976562-1.164063-0.277344-0.238281-0.570313-0.429687-0.882813-0.554687-0.253906 1.007813-0.078125 1.792969 0.363282 2.445313 0.007812 0.011718 0.015624 0.023437 0.023437 0.039062z" style="fill:rgb(29.411766%,62.7451%,25.882354%)"/>
 </g>
</svg>
