<svg width="16" height="16" version="1.1" viewBox="0 0 16 16" xmlns="http://www.w3.org/2000/svg">
 <g id="surface1">
  <path transform="matrix(.105593 .0609651 -.0609651 .105593 6.491636 -.958545)" d="m9.680602 34.378176c4.152-2.80413 8.204225-3.922938 12.264199-4.195369-3.625588-3.011838-6.355069-7.354911-7.793733-13.627045-0.016019-0.027745-0.032038-0.05549-0.020311-0.099254-0.19453-0.849518 0.3143-1.6982 1.191563-1.908749 3.171821-0.721478 6.474097-0.704418 9.858772-0.032053 1.873255 0.361204 3.759388 0.936935 5.697871 1.667409-0.762622-1.705318-1.298992-3.467278-1.461801-5.222957-0.347916-3.16554 0.321308-6.363433 2.214764-9.491285 0.288023-0.462242 0.771413-0.778326 1.359501-0.784923 3.14324-0.002099 5.931556 1.495495 8.386097 3.888675 1.907913 1.894924 3.635642 4.374796 5.133978 7.09809 1.100579-2.70707 2.536402-5.089787 4.288309-6.989114 2.428358-2.585833 5.429102-4.244357 9.03542-4.6617933 0.66703-0.1261617 1.375835 0.2044723 1.688778 0.8746433 1.3393 2.704135 1.782177 5.777855 1.530279 8.993755-0.161545 2.090922-0.604833 4.270523-1.278665 6.435258 1.35636-0.598141 2.82056-1.073577 4.380872-1.382543 3.033096-0.641384 6.462371-0.660654 10.303842-0.030065l0.071509-0.004293c0.854963 0.135269 1.462526 0.931286 1.343277 1.813994-0.859351 6.008194-3.394917 10.394621-6.981129 13.537971 3.279976 0.362878 6.718152 1.448275 10.642337 3.695818 1.485979 0.843758 2.837525 1.839119 4.022603 2.930592 1.244859 1.130945 2.295505 2.374021 3.151935 3.729229 3.67344 5.721734 3.935407 13.672072 2.413951 21.801237-2.010496 10.742111-7.138476 21.915373-11.334128 28.296088-3.449997 5.173338-7.714333 10.409914-12.97979 15.706589-5.237713 5.280656-11.476547 10.62141-18.8435 16.058592-0.756546 0.547781-1.734215 0.520352-2.467624 0.018955-7.669338-5.338324-14.477432-10.914941-20.368792-16.761889-5.907378-5.874694-10.870278-12.035737-14.789444-18.503443-4.795909-7.922167-10.060767-20.308756-10.333419-31.545351-0.22050793-8.455192 2.2957891-16.270893 9.6724791-21.306769zm5.40674 21.922996c1.98758-2.516312 2.695754-4.108978 2.685701-5.471935 0.001673-1.406721-0.974323-2.840871-2.683098-2.853118-1.736519 0.003772-2.529079 1.386205-2.530752 2.792925-0.001673 1.406721 0.567571 2.52081 2.528149 5.532128zm39.164314 49.636471c2.015326-2.532331 2.695755-4.108978 2.697428-5.515699 0.017691-1.378976-0.974323-2.840871-2.683098-2.853117-1.736519 0.003771-2.540806 1.429967-2.542478 2.836688 0.026072 1.390702 0.595316 2.504791 2.528148 5.532128zm-15.239407-0.893677c2.015326-2.532331 2.695755-4.108977 2.697428-5.515698s-0.974323-2.840871-2.683098-2.853118c-1.736519 0.003772-2.540806 1.429968-2.514734 2.82067-0.001672 1.406721 0.567572 2.52081 2.500404 5.548146zm-7.76201-14.533205c2.015325-2.532331 2.695754-4.108978 2.697427-5.515699 0.001673-1.40672-0.974323-2.84087-2.710842-2.837098-1.708775-0.012247-2.52908 1.386204-2.530753 2.792925 0.026072 1.390701 0.611335 2.532536 2.544168 5.559872zm30.915819-0.018687c1.987581-2.516312 2.695755-4.108978 2.697428-5.515698 0.001673-1.406721-0.974323-2.840871-2.710843-2.837099-1.736519 0.003772-2.513061 1.413949-2.514733 2.82067-0.001673 1.40672 0.567571 2.52081 2.528148 5.532127zm-15.675055-1.456008c1.971561-2.544057 2.695754-4.108977 2.697427-5.515698s-0.974323-2.840871-2.710842-2.837099-2.52908 1.386204-2.530753 2.792925 0.58359 2.548555 2.544168 5.559872zm24.170112-13.880885c2.015326-2.532331 2.723499-4.124997 2.713446-5.487954 0.001673-1.40672-0.974323-2.84087-2.683097-2.853117-1.736519 0.003772-2.52908 1.386204-2.530753 2.792925-0.001673 1.40672 0.567572 2.52081 2.500404 5.548146zm-14.636452-1.130818c1.98758-2.516312 2.695754-4.108978 2.697427-5.515698 0.001673-1.406721-0.974323-2.840871-2.710842-2.837099-1.692755 0.015498-2.513061 1.413949-2.514734 2.82067-0.017692 1.378975 0.567571 2.52081 2.528149 5.532127zm-17.496483 0.002541c2.015326-2.532331 2.695755-4.108977 2.697428-5.515698s-0.974323-2.840871-2.710843-2.837099c-1.708774-0.012247-2.513061 1.413949-2.514734 2.82067-0.017691 1.378976 0.567572 2.52081 2.528149 5.532127zm-15.243384-0.003534c2.015326-2.532331 2.695755-4.108978 2.713446-5.487954 0.001673-1.406721-0.974323-2.840871-2.683097-2.853118-1.736519 0.003772-2.556825 1.402223-2.530753 2.792925-0.001672 1.406721 0.567572 2.52081 2.500404 5.548147zm54.139039-17.718112c1.98758-2.516312 2.695754-4.108978 2.713446-5.487954-0.026072-1.390702-1.018087-2.852597-2.710842-2.837099-1.736519 0.003772-2.52908 1.386204-2.530753 2.792925s0.567571 2.52081 2.528149 5.532128zm-15.342638 0.016777c2.015326-2.532332 2.695755-4.108978 2.697428-5.515699 0.001672-1.406721-0.974324-2.840871-2.710843-2.837099-1.708774-0.012247-2.513061 1.413949-2.530752 2.792925 0.026072 1.390702 0.58359 2.548555 2.544167 5.559873zm-14.798313-0.001547c1.98758-2.516312 2.695754-4.108977 2.697427-5.515698-0.026072-1.390702-1.002068-2.824852-2.710842-2.837099-1.736519 0.003772-2.52908 1.386204-2.530753 2.792925s0.58359 2.548555 2.544168 5.559872zm-17.210448-0.014629c1.987581-2.516313 2.695754-4.108978 2.713446-5.487954 0.001673-1.406721-0.990342-2.868616-2.710842-2.837099-1.736519 0.003772-2.52908 1.386204-2.530753 2.792925s0.567571 2.52081 2.528149 5.532128zm-1.943549-25.920157c2.194468 0.212742 4.397521 0.568502 6.644339 0.935988 3.940724 0.610277 8.056504 1.267459 12.316137 1.212695 4.088872-0.030159 7.772143-0.12209 11.194821-0.729448 2.485631-0.43628 4.837668-1.424318 7.209179-1.609742 0.360684-0.208245 0.737387-0.388744 1.054307-0.608715 3.827646-2.468887 6.731645-6.217181 7.907079-11.741986-2.846631-0.317125-5.39749-0.250114-7.680322 0.217051-2.751355 0.552705-5.094806 1.68376-7.066683 3.266167-0.685038 0.543488-1.694744 0.460569-2.238232-0.224468-0.387593-0.479097-0.453972-1.106656-0.214005-1.652133 1.412055-3.256839 2.386472-6.630939 2.642663-9.775331l-0.016019-0.027745c0.15296-2.233939-0.04733-4.374906-0.779067-6.283024-2.310577 0.483185-4.315644 1.751812-5.960864 3.515555-2.171221 2.326391-3.797802 5.596109-4.790227 9.387535-0.222796 0.831511-1.110633 1.344113-1.969889 1.137336-0.453656-0.145006-0.860408-0.465066-1.0452-0.913278-1.71747-3.743575-3.779606-7.25116-6.190383-9.632614-1.616433-1.582296-3.37358-2.639428-5.270287-2.913105-1.158374 2.222528-1.52586 4.469346-1.293532 6.665802 0.26667 2.768526 1.55048 5.504698 3.50132 8.114709 0.531762 0.728801 0.389061 1.699036-0.295977 2.242524-0.550605 0.391885-1.210202 0.402775-1.743952 0.119045-3.257992-1.670345-6.414426-2.844422-9.465009-3.450723-2.410146-0.458154-4.72732-0.563057-6.963247-0.270946 1.893472 6.675429 5.515083 10.577409 10.21843 12.893004 0.131291 0.035178 0.218818 0.058631 0.29462 0.125847zm35.024277 4.342078c-4.986967 1.806465-10.678762 2.392154-16.33025 2.214701-5.134908-0.179758-10.068168-0.58692-14.500031-1.727492-7.141759-1.09272-13.752908-1.714928-20.234328 2.693073-5.986305 4.048153-7.991782 10.570102-7.852836 17.666629 0.280921 10.417963 5.212525 22.035127 9.720095 29.457886 3.742959 6.162511 8.474162 12.050399 14.165862 17.679681 5.372476 5.332673 11.594471 10.470816 18.550711 15.406996 6.677623-4.965203 12.32638-9.85429 17.117033-14.691863 5.06381-5.069271 9.181988-10.110481 12.430337-15.056414 3.986571-6.038039 8.823387-16.562278 10.725208-26.723735 1.334991-7.170655 1.208923-14.052657-1.784292-18.724376-0.696243-1.077759-1.515192-2.047679-2.456846-2.90976-0.957673-0.889825-2.038052-1.671812-3.273174-2.40145-6.123261-3.493444-11.094841-3.582534-16.277489-2.883876z" style="fill:rgb(18.039216%,20.392157%,25.098041%);stroke-width:2.7915;stroke:rgb(18.039216%,20.392157%,25.098041%)"/>
 </g>
</svg>
