<svg viewBox="0 0 16 16" xmlns="http://www.w3.org/2000/svg">
 <path d="m8 0c-4.401 0-8 3.599-8 8 0 4.273 3.396 7.78 7.621 7.98l-3.732-3.781 0.615-0.619c-0.928-0.906-1.504-2.169-1.504-3.58 0-2.779 2.221-5 5-5 2.405 0 4.386 1.665 4.877 3.914l1.248-1.262 1.852 1.871c-0.25-4.18-3.737-7.523-7.977-7.523z" color-rendering="auto" fill="#2e3440" image-rendering="auto" opacity=".4" shape-rendering="auto"/>
 <path d="m8 0-2 1.5 2 1.5c2.388 0 4.379 1.677 4.875 3.916l1.25-1.264 1.852 1.871c-0.248-4.195-3.719-7.523-7.977-7.523zm-8 8c0 4.29 3.38 7.781 7.621 7.98l-3.732-3.781 0.621-0.627c-0.929-0.908-1.51-2.171-1.51-3.572h-3z" color="#d3dae3" fill="#2e3440"/>
 <path d="m9.75 12.209 4.375-4.423 1.875 1.896-6.25 6.319-3.75-3.799 1.875-1.888z" fill="#2e3440"/>
</svg>
