<svg viewBox="0 0 16 16" xmlns="http://www.w3.org/2000/svg">
 <path d="m5 1.75c-2.073 1.086-3.5 3.247-3.5 5.75 0 3.59 2.91 6.5 6.5 6.5 0.343 0 0.672-0.043 1-0.094v-1.875c-0.324 0.072-0.655 0.125-1 0.125-2.564 0-4.656-2.092-4.656-4.656 0-1.411 0.663-2.648 1.656-3.5v-2.25zm6 0v2.25h2.469c-0.612-0.946-1.465-1.724-2.469-2.25z" fill="#bf616a" fill-rule="evenodd"/>
 <rect x="7" y="1" width="2" height="7" fill="#bf616a" fill-rule="evenodd"/>
 <path d="m11 11v2h3.469c0.297 0 0.531-0.234 0.531-0.531v-0.938c0-0.297-0.234-0.531-0.531-0.531h-3.469z" fill="#bf616a" fill-rule="evenodd"/>
 <path d="m11 8v2h3.469c0.297 0 0.531-0.234 0.531-0.531v-0.938c0-0.297-0.234-0.531-0.531-0.531h-3.469z" fill="#bf616a" fill-rule="evenodd"/>
 <path d="m11 5v2h3.469c0.297 0 0.531-0.234 0.531-0.531v-0.938c0-0.297-0.234-0.531-0.531-0.531h-3.469z" fill="#bf616a" fill-rule="evenodd"/>
</svg>
