<svg width="16" height="16" viewBox="0 0 4.5156 4.5156" xmlns="http://www.w3.org/2000/svg">
 <g fill="#2e3440">
  <path transform="scale(.28222)" d="m8 0c-4.406 0-8 3.594-8 8s3.594 8 8 8c0.714 0 1.405-0.102 2.064-0.279l-1.738-1.738c-0.109 6e-3 -0.216 0.018-0.326 0.018-3.326 0-6-2.674-6-6s2.674-6 6-6 6 2.674 6 6c0 0.621-0.092 1.219-0.266 1.781l0.852-0.852 1.135 1.135c0.177-0.66 0.279-1.35 0.279-2.064 0-4.406-3.594-8-8-8" color-rendering="auto" image-rendering="auto" shape-rendering="auto" solid-color="#000000" isolation="auto" mix-blend-mode="normal" white-space="normal"/>
  <path d="m0.847 2.258 0.847-0.564v0.282h1.129v-0.282l0.847 0.564-0.847 0.564v-0.282h-1.129v0.282z" fill-rule="evenodd"/>
 </g>
 <path transform="scale(.28222)" d="m14.586 10.344-2.828 2.828-1.414-1.414-1.414 1.414 2.828 2.828 4.242-4.242-1.414-1.414z" fill="#2e3440"/>
</svg>
