<svg width="16" height="16" viewBox="0 0 4.5156 4.5156" xmlns="http://www.w3.org/2000/svg">
 <g transform="matrix(.28222 0 0 .28222 -5.4539 -3.8149)">
  <path d="m31.531 23.31 1.414 1.414-0.792 0.793h3.172v2h-3.172l0.792 0.793-1.414 1.414-3.206-3.207z" fill="#2e3440"/>
 </g>
 <g fill="#2e3440">
  <path transform="scale(.28222)" d="m8 0c-4.406 0-8 3.594-8 8s3.594 8 8 8c0.783 0 1.54-0.119 2.256-0.33l-1.699-1.699c-0.184 0.017-0.369 0.029-0.557 0.029-3.326 0-6-2.674-6-6s2.674-6 6-6 6 2.674 6 6c0 0.655-0.107 1.284-0.299 1.873l1.127 1.127h0.582c0.378-0.928 0.59-1.94 0.59-3 0-4.406-3.594-8-8-8z" color-rendering="auto" image-rendering="auto" shape-rendering="auto" solid-color="#000000" isolation="auto" mix-blend-mode="normal" white-space="normal"/>
  <path d="m0.847 2.258 0.847-0.564v0.282h1.129v-0.282l0.847 0.564-0.847 0.564v-0.282h-1.129v0.282z" fill-rule="evenodd"/>
 </g>
</svg>
