<svg width="16px" height="16px" version="1.1" viewBox="0 0 16 16" xmlns="http://www.w3.org/2000/svg">
 <path d="m4.6914 13.473c-0.56641-1.1641-0.69922-1.8164-0.69922-1.8164s0.79687 0.83203 1.6133 0.87891l-0.91797-1.332s-2.1719-0.72656-2.7578-0.96875c0.26953 2.3164 2.7617 3.2383 2.7617 3.2383z" fill="#5e81ac"/>
 <path d="m1.8203 10.605 9.2227 3.0195 2.5742-7.1523-11.051-2.0312c-1.3398 0.98828-0.74609 6.1641-0.74609 6.1641z" fill="#88c0d0"/>
 <path transform="scale(1.2598)" d="m1.4449 8.4181 7.3205 2.3968 1.8573-5.4074-6.1547 2.1642-2.6169-3.7765c-1.0604 0.78445-0.40618 4.623-0.40618 4.623z" fill="none" stroke="#7a88a1" stroke-width=".1688"/>
 <path d="m7.0039 1.2031c-0.67969 0.035156-1.4336 0.43359-2.0273 1.0938-2.1992 0.98438-3.2227 2.5117-3.6406 3.9414-0.92578 3.1797 0.94531 6.4844 3.3555 7.2344-2.8203-1.3867-2.8906-4.0352-2.8438-5.418 0.28125 0.42187 0.83984 0.47266 0.83984 0.47266-0.0625-0.097656-0.11719-0.19141-0.16797-0.28516-0.1875-0.46484-0.32812-1.2891-0.097656-2.0352 0.14453-0.46875 0.61719-1.1289 1.2539-1.3359 0.046875 0.34766 0.16016 0.66406 0.082031 1.0312-0.42187 0.73438 0.019532 1.2266 0.019532 1.2266 0.58594-0.64453 0.73047-0.53516 1.2734-0.84766 0.62109-0.35547 1.1797-0.74219 1.3867-0.71484 0.83203-0.12109 1.2266 0.09375 2.1367 0.25781 0.58203 0.10547 1.207 0.18359 1.6953 0.24219 0.20703 0.46484 0.3125 0.94531 0.35156 1.3945 0 0 0.13672 1.4883-0.31641 2.3594 0.35937-0.20312 0.64453-0.43359 0.86719-0.66016 0.046875 1.2383-0.85547 2.25-0.85547 2.25 0.34375-0.10547 0.625-0.22266 0.86328-0.33984-0.14844 0.8125-0.73828 2.4961-3.0742 3.6094 1.9297-0.24609 2.7148-1.1797 2.7148-1.1797s-0.17578 0.64453-1.3438 1.2969c4.0977-0.74609 5.1914-4.5078 5.1914-4.5078 0-0.003906-0.003907-0.003906-0.003907-0.007812 0.57813-1.8125 0.027344-4.0391-0.69141-5.2773-0.42578-0.74219-1.0625-1.3711-1.457-1.7227-0.0625-0.058594-0.125-0.10938-0.1875-0.16406-0.10938-0.089844-0.17969-0.14453-0.17969-0.14453l-0.003907 0.007813c-0.058593-0.042969-0.11328-0.082031-0.17578-0.12109-0.65234-0.44922-1.3906-0.72656-1.7773-0.8125-1.4648-0.54297-2.4922-0.44141-3.1602-0.375 0 0 0.03125-0.066406 0.13672-0.15625 0.003906-0.003906 0.007812-0.007813 0.011719-0.011719 0.003906 0 0.003906-0.003906 0.003906-0.003906 0.011718-0.007812 0.023437-0.015625 0.035156-0.023438 0.011719-0.011718 0.015625-0.015624 0.015625-0.015624-0.28516-0.015626-0.74609 0.29687-0.86328 0.35937 0.003906-0.003906 0.003906-0.007812 0.003906-0.011718 0.003906 0 0.003906-0.003906 0.003906-0.003906 0.003906-0.011719 0.007813-0.023438 0.015625-0.035157 0.003907-0.007812 0.007813-0.015625 0.011719-0.027343 0.007812-0.007813 0.011719-0.015626 0.019531-0.023438 0-0.003906 0-0.003906 0.003907-0.003906 0.007812-0.011719 0.015624-0.027344 0.023437-0.035156 0-0.003907 0.003906-0.003907 0.003906-0.003907 0-0.003906 0-0.003906 0.003907-0.007812l0.003906-0.003907c0.14844-0.1875 0.42969-0.38672 0.51172-0.44531h0.003907c0.011719-0.011719 0.023437-0.015625 0.023437-0.015625z" fill="#5e81ac"/>
</svg>
