<svg viewBox="0 0 16 16" xmlns="http://www.w3.org/2000/svg">
 <path d="m2 1c-1.108 0-2 0.892-2 2v9.999c0 1.108 0.892 2 2 2h11.999c1.108 0 2-0.892 2-2v-9.999c0-1.108-0.892-2-2-2zm9.03 2c0.055 6e-3 0.136 0.036 0.187 0.062l1.562 0.781c0.208 0.106 0.269 0.367 0.157 0.562l-4.874 8.374c-0.087 0.148-0.268 0.239-0.437 0.219-0.052-5e-3 -0.107-7e-3 -0.157-0.032-5e-3 -3e-3 -4.25-3.312-4.25-3.312-0.208-0.106-0.269-0.367-0.157-0.562l1.031-1.25c0.113-0.195 0.386-0.263 0.594-0.157l2.313 1.75 3.624-6.218c0.085-0.146 0.241-0.235 0.406-0.219" fill="#2e3440"/>
</svg>
