<svg width="16" height="16" viewBox="0 0 4.5156 4.5156" xmlns="http://www.w3.org/2000/svg">
 <path d="m4.285 0c-0.057 2e-3 -0.112 0.027-0.152 0.07l-2.036 2.035-0.202 0.518 0.518-0.202 2.035-2.036c0.145-0.142 0.041-0.389-0.163-0.383" color-rendering="auto" fill="#2e3440" fill-rule="evenodd" image-rendering="auto" shape-rendering="auto" isolation="auto" mix-blend-mode="normal"/>
 <path transform="scale(.28222)" d="m2 1c-0.554 0-1 0.446-1 1v9c0 0.554 0.446 1 1 1h12c0.554 0 1-0.446 1-1v-7.465l-5.893 5.898-4.152 1.619 1.619-4.152 5.906-5.9z" fill="#2e3440"/>
 <path transform="scale(.28222)" d="m2 11v1h12v-1h-6.156l-2.525 0.984-0.984-0.984zm-1 1.716v1.284c0 0.554 0.446 1 1 1h12c0.554 0 1-0.446 1-1v-1.284c-0.297 0.175-0.636 0.283-1 0.283h-12c-0.364 0-0.703-0.108-1-0.283z" fill="#2e3440"/>
</svg>
