<svg viewBox="0 0 16 16" xmlns="http://www.w3.org/2000/svg">
 <path d="m4 2.182c-1 0-1.818 0.817-1.818 1.818v8c0 1 0.817 1.818 1.818 1.818h8c1 0 1.818-0.817 1.818-1.818v-8c0-1-0.817-1.818-1.818-1.818h-8zm0 0.727h8c0.611 0 1.091 0.48 1.091 1.091v8c0 0.611-0.48 1.091-1.091 1.091h-8c-0.611 0-1.091-0.48-1.091-1.091v-8c0-0.611 0.48-1.091 1.091-1.091z" fill="#2e3340"/>
 <rect x="2.182" y="10.182" width="11.636" height=".727" fill="#2e3340"/>
 <rect transform="rotate(90)" x="10.182" y="-8.727" width="3.636" height="1.455" fill="#2e3340"/>
</svg>
