<svg viewBox="0 0 16 16" xmlns="http://www.w3.org/2000/svg">
 <path d="m8 3c-2.759 0-4.998 2.24-4.998 5v0.063c-0.163-0.034-0.328-0.063-0.5-0.063-1.38 0-2.502 1.117-2.502 2.502 0 1.38 1.122 2.498 2.502 2.498h10c1.928 0 3.498-1.566 3.498-3.5 0-1.91-1.537-3.467-3.438-3.5-0.777-1.757-2.519-2.998-4.563-2.998v-2e-3zm-0.019531 2a0.99529 0.99604 0 0 1 0.83984 0.41797l1.873 1.875a0.99529 0.99604 0 1 1-1.4062 1.4082l-0.291-0.291v1.58a0.99529 0.99604 0 1 1-1.9922 0v-1.58l-0.291 0.291a0.99529 0.99604 0 1 1-1.4062-1.4082l1.969-1.969a0.99529 0.99604 0 0 1 0.021484-0.021484 0.99529 0.99604 0 0 1 0.68359-0.30273z" fill="#2e3440"/>
</svg>
