<svg viewBox="0 0 16 16" xmlns="http://www.w3.org/2000/svg">
 <path d="m8 3c-2.759 0-4.998 2.24-4.998 5v0.063c-0.163-0.034-0.328-0.063-0.5-0.063-1.38 0-2.502 1.117-2.502 2.502 0 1.38 1.122 2.498 2.502 2.498h10c1.928 0 3.498-1.566 3.498-3.5 0-1.91-1.537-3.467-3.438-3.5-0.777-1.757-2.519-2.998-4.563-2.998v-2e-3zm-1.414 3.17c0.256 0 0.511 0.097 0.707 0.293l0.707 0.707 0.707-0.707c0.196-0.196 0.451-0.293 0.707-0.293s0.511 0.097 0.707 0.293c0.392 0.392 0.392 1.022 0 1.414l-0.707 0.707 0.707 0.707c0.392 0.392 0.392 1.024 0 1.416s-1.022 0.392-1.414 0l-0.707-0.707-0.707 0.707c-0.392 0.392-1.022 0.392-1.414 0s-0.392-1.024 0-1.416l0.707-0.707-0.707-0.707c-0.392-0.392-0.392-1.022 0-1.414 0.196-0.196 0.451-0.293 0.707-0.293z" fill="#bf616a"/>
</svg>
