<svg viewBox="0 0 16 16" xmlns="http://www.w3.org/2000/svg">
 <path d="m7.5 2c-3.59 0-6.5 2.91-6.5 6.5s2.91 6.5 6.5 6.5c1.767-3e-3 3.456-0.725 4.68-2h3.82l-2.369-2.369c0.241-0.685 0.366-1.405 0.369-2.131 0-3.59-2.91-6.5-6.5-6.5zm0 2a4.5 4.5 0 0 1 4.5 4.5 4.5 4.5 0 0 1-4.5 4.5 4.5 4.5 0 0 1-4.5-4.5 4.5 4.5 0 0 1 4.5-4.5z" fill="#2e3440" fill-rule="evenodd"/>
 <path d="m7.5 5c-0.277 0-0.5 0.223-0.5 0.5v3c0 0.277 0.223 0.5 0.5 0.5h2c0.277 0 0.5-0.223 0.5-0.5s-0.223-0.5-0.5-0.5h-1.5v-2.5c0-0.277-0.223-0.5-0.5-0.5z" fill="#2e3440"/>
</svg>
