<svg width="16" height="16" viewBox="0 0 23.75 23.75" xmlns="http://www.w3.org/2000/svg">
 <path d="m3.81 0.024c-0.373 0.078-0.84 0.355-1.852 1.103-0.608 0.452-1.444 1.262-1.64 1.589-0.455 0.776-0.428 1.434 0.125 2.95 0.95 2.599 2.339 5.105 4.166 7.521 3.492 4.626 7.892 7.992 13.401 10.248 0.703 0.288 0.929 0.336 1.479 0.308 0.667-0.031 1.173-0.238 1.888-0.776 0.789-0.597 1.919-1.991 2.209-2.736 0.275-0.706 0.203-1.345-0.203-1.844-0.231-0.277-1.943-1.664-2.743-2.221-0.608-0.421-1.549-1-1.981-1.223-0.569-0.288-1.134-0.34-1.687-0.152-0.436 0.148-0.58 0.277-1.217 1.072-0.33 0.405-0.632 0.772-0.671 0.807-0.043 0.035-0.18 0.113-0.309 0.172-0.514 0.238-1.217 0.094-2.366-0.475-0.895-0.44-1.687-0.998-2.586-1.816-0.766-0.693-1.538-1.598-1.97-2.302-0.557-0.909-0.982-2.089-0.984-2.74 0-0.281 0.114-0.678 0.256-0.881 0.055-0.082 0.404-0.39 0.777-0.689 0.929-0.744 1.138-0.979 1.263-1.422 0.121-0.412-8e-3 -0.97-0.396-1.722-0.679-1.317-2.75-3.955-3.5-4.447-0.121-0.078-0.334-0.187-0.47-0.233-0.282-0.101-0.726-0.144-0.982-0.089" fill="#88c0d0"/>
 <path d="m11.875 0.75391a0.74226 0.74226 0 0 0 0.75195 0.73047c5.332 0 9.639 4.307 9.639 9.639a0.74226 0.74226 0 1 0 1.4844 0c-3.28e-4 -6.1344-4.9893-11.123-11.123-11.123a0.74226 0.74226 0 0 0-0.752 0.75391z" color-rendering="auto" fill="#88c0d0" image-rendering="auto" shape-rendering="auto"/>
 <path d="m11.875 3.7227a0.74226 0.74226 0 0 0 0.75195 0.73047c3.692 0 6.67 2.978 6.67 6.67a0.74226 0.74226 0 1 0 1.4844 0c0-4.494-3.66-8.154-8.154-8.154a0.74226 0.74226 0 0 0-0.75233 0.75353z" color-rendering="auto" fill="#88c0d0" image-rendering="auto" shape-rendering="auto"/>
 <path d="m11.875 6.6914a0.74226 0.74226 0 0 0 0.75195 0.73047c2.052 0 3.701 1.649 3.701 3.701a0.74226 0.74226 0 1 0 1.4844 0c6.72e-4 -2.8549-2.3303-5.1849-5.1853-5.1849a0.74226 0.74226 0 0 0-0.752 0.75341z" color-rendering="auto" fill="#88c0d0" image-rendering="auto" shape-rendering="auto"/>
</svg>
