<svg width="16" height="16" enable-background="new" viewBox="0 0 22 22" xmlns="http://www.w3.org/2000/svg">
 <path d="m10 8.25 0.25 6h1.5l0.25-6h-2zm0 7v2h2v-2h-2z" color="#bebebe" fill="#bf616a"/>
 <path d="m8.098 4.75c-0.155-2e-3 -0.3 7e-3 -0.469 0.031-2.692 0.39-2.625 3-2.625 3-1.103 0.211-2 1.274-2 2.406s1.16 2.146 2.125 2.438c0.574 0.173 1.313 0 1.313 0 0.341 0.676 1.466 1.125 2.25 1.125 0.354 0 0.694-0.058 1.031-0.125l-0.219-5.344-0.031-0.531h3.062l-0.031 0.531-0.188 4.406c1.436 0.109 4.792 0.312 5.656-0.063 1.599-0.694 1.095-2.861 0.031-3.594s-2.438-0.219-2.438-0.219 5e-3 -1.506-1.5-2.219-2.781 0.875-2.781 0.875-0.86-2.703-3.188-2.719z" fill="#2e3440"/>
</svg>
