<svg enable-background="new" viewBox="0 0 16 16" xmlns="http://www.w3.org/2000/svg">
 <path d="m5.905 2.546c-0.112-1e-3 -0.226 5e-3 -0.348 0.022-1.942 0.26-1.882 1.996-1.882 1.996-0.795 0.141-1.446 0.864-1.446 1.62s0.831 1.425 1.528 1.62c0.414 0.116 0.955 0 0.955 0 0.246 0.452 1.058 0.752 1.623 0.752 0.922 0 1.865-0.318 2.083-0.752 0 0 3.821 0.318 4.613 0 1.154-0.463 0.795-1.912 0.027-2.401s-1.773-0.145-1.773-0.145-6e-3 -0.996-1.091-1.472-2 0.575-2 0.575-0.609-1.804-2.288-1.815z" fill="#2e3440"/>
 <circle cx="11.478" cy="9.04" r=".727" fill="#2e3440"/>
 <circle cx="8.187" cy="12.727" r=".727" fill="#2e3440"/>
 <circle cx="12.03" cy="12.08" r=".727" fill="#2e3440"/>
 <circle cx="7.274" cy="10.01" r=".727" fill="#2e3440"/>
 <circle cx="4.193" cy="9.122" r=".727" fill="#2e3440"/>
 <circle cx="5.08" cy="11.464" r=".727" fill="#2e3440"/>
 <circle cx="9.863" cy="10.773" r=".727" fill="#2e3440"/>
</svg>
