<svg enable-background="new" viewBox="0 0 16 16" xmlns="http://www.w3.org/2000/svg">
 <path d="m8.369 2.909c-0.492-7e-3 -0.492 0.734 0 0.727 0.363 0 0.7 0.2 0.888 0.54 0.188 0.339 0.188 0.763 0 1.102s-0.525 0.54-0.888 0.54c-0.103-2e-3 -0.369 0-0.369 0h-5.449c-0.492-7e-3 -0.492 0.734 0 0.727h5.449s0.169 3e-3 0.369 0c0.633 0 1.214-0.354 1.524-0.914s0.31-1.246 0-1.806-0.891-0.914-1.524-0.914" color-rendering="auto" fill="#2e3440" fill-rule="evenodd" image-rendering="auto" shape-rendering="auto" solid-color="#000000" isolation="auto" mix-blend-mode="normal" white-space="normal"/>
 <path d="m2.551 9.455c-0.492-7e-3 -0.492 0.734 0 0.727h3.994s0.246 2e-3 0.369 0c0.363 0 0.702 0.2 0.889 0.54 0.188 0.339 0.188 0.763 0 1.102s-0.527 0.54-0.889 0.54c-0.205-2e-3 -0.371 0.165-0.368 0.369 3e-3 0.2 0.168 0.36 0.368 0.358 0.633 0 1.216-0.354 1.526-0.915s0.31-1.246 0-1.806c-0.31-0.561-0.893-0.915-1.526-0.915-0.123-2e-3 -0.369 0-0.369 0h-3.994z" color-rendering="auto" fill="#2e3440" fill-rule="evenodd" image-rendering="auto" shape-rendering="auto" solid-color="#000000" isolation="auto" mix-blend-mode="normal" white-space="normal"/>
 <path d="m12.01 5.455c-0.492-7e-3 -0.492 0.734 0 0.727 0.2 0 0.398 0.118 0.516 0.348s0.118 0.529 0 0.759-0.316 0.348-0.516 0.348h-9.459c-0.492-7e-3 -0.492 0.734 0 0.727h9.459c0.492 0 0.934-0.298 1.162-0.743s0.228-0.978 0-1.423-0.67-0.743-1.162-0.743" color-rendering="auto" fill="#2e3440" fill-rule="evenodd" image-rendering="auto" shape-rendering="auto" solid-color="#000000" isolation="auto" mix-blend-mode="normal" white-space="normal"/>
</svg>
