<svg enable-background="new" viewBox="0 0 16 16" xmlns="http://www.w3.org/2000/svg">
 <path d="m5.889 3.454c-0.113-1e-3 -0.228 6e-3 -0.351 0.024-1.957 0.284-1.896 2.173-1.896 2.173-0.802 0.153-1.457 0.941-1.457 1.764s0.838 1.552 1.54 1.764c0.417 0.126 0.962 0 0.962 0 0.248 0.492 1.067 0.82 1.636 0.82 0.272 0 0.54-0.037 0.797-0.091 0.014-0.183 0.045-0.361 0.114-0.524 0.078-0.185 0.179-0.358 0.301-0.516 0.112-0.145 0.23-0.28 0.357-0.406l7e-3 -7e-3c0.114-0.109 0.22-0.217 0.315-0.324 0.086-0.097 0.154-0.191 0.206-0.286 0.037-0.067 0.054-0.135 0.054-0.224 0-0.115-0.021-0.157-0.089-0.22l-0.012-0.012c-0.045-0.045-0.138-0.094-0.351-0.094-0.18 0-0.348 0.023-0.509 0.068l-0.012 2e-3c-0.158 0.039-0.332 0.109-0.521 0.212l-0.371 0.202-0.558-1.528 0.267-0.152c0.255-0.145 0.541-0.256 0.852-0.335 0.319-0.086 0.646-0.129 0.977-0.129 0.395 0 0.741 0.056 1.038 0.185 0.272 0.112 0.508 0.262 0.689 0.459 0.172 0.187 0.3 0.404 0.371 0.641 0.063 0.211 0.098 0.421 0.098 0.629 0 0.25-0.05 0.491-0.153 0.707-0.086 0.191-0.196 0.369-0.33 0.531-0.124 0.15-0.257 0.294-0.401 0.43l-3e-3 3e-3 -4e-3 3e-3c-0.01 9e-3 -0.017 0.019-0.027 0.028 1.195 0.079 3.1 0.163 3.644-0.072 1.162-0.505 0.802-2.082 0.028-2.615-0.773-0.533-1.787-0.158-1.787-0.158s-6e-3 -1.084-1.099-1.602c-1.094-0.518-2.02 0.626-2.02 0.626s-0.613-1.966-2.305-1.977z" fill="#2e3440" opacity=".4"/>
 <g fill="#2e3440">
  <path d="m8.02 6.932q-0.317 0-0.608 0.082-0.29 0.073-0.608 0.245l-0.308-0.844q0.336-0.19 0.762-0.299 0.435-0.118 0.889-0.118 0.544 0 0.898 0.154 0.354 0.145 0.562 0.372 0.209 0.227 0.29 0.499 0.082 0.272 0.082 0.526 0 0.308-0.118 0.553-0.109 0.245-0.281 0.454t-0.372 0.399q-0.2 0.181-0.372 0.381-0.172 0.19-0.29 0.408-0.109 0.218-0.109 0.49 0 0.045 0 0.109 0 0.054 9e-3 0.109h-0.943q-0.018-0.091-0.027-0.19-9e-3 -0.109-9e-3 -0.2 0-0.299 0.1-0.535t0.254-0.435q0.154-0.2 0.327-0.372 0.181-0.172 0.336-0.345 0.154-0.172 0.254-0.354 0.1-0.181 0.1-0.399 0-0.299-0.209-0.49-0.2-0.2-0.608-0.2zm0.707 4.898q0 0.317-0.209 0.517t-0.517 0.2q-0.299 0-0.517-0.2-0.209-0.2-0.209-0.517t0.209-0.517q0.218-0.209 0.517-0.209 0.308 0 0.517 0.209 0.209 0.2 0.209 0.517z"/>
 </g>
</svg>
