<!-- Created with Inkscape (http://www.inkscape.org/) -->
<svg id="svg292" width="16" height="16" version="1.1" xmlns="http://www.w3.org/2000/svg">
 <g id="g298" transform="translate(.242 .00635)" style="fill:#2e3440">
  <path id="path5" class="ColorScheme-Text" d="m3.4062 0.9874c-0.2556 0-0.5229 0.0854-0.7187 0.2812l-1.4063 1.4063c-0.3917 0.3917-0.3917 1.0457 0 1.4375l0.875 0.875h5.6878l-3.719-3.7188c-0.1959-0.1959-0.4631-0.2813-0.7188-0.2813zm9.1878 0c-0.262 0-0.523 0.0854-0.719 0.2812l-3.719 3.7188h5.688l0.875-0.875c0.391-0.3917 0.391-1.0458 0-1.4375l-1.407-1.4062c-0.195-0.1958-0.457-0.2812-0.718-0.2812zm-8.1158 4.5079c-0.2647 0.0114-0.4745 0.2272-0.4785 0.4921v3.4996c-0.0096 0.676 1.0096 0.676 1 0v-1.5h1v1.5c-0.0096 0.676 1.0096 0.676 1 0v-2c-5e-4 -0.2758-0.2242-0.4992-0.5-0.4992h-1.5v-1c-0.0042-0.2816-0.2401-0.5042-0.5215-0.4921zm8.9998 0c-0.264 0.0116-0.474 0.2274-0.478 0.4921v1h-0.5c-0.646 0.0204-0.646 0.9792 0 0.9996h0.5v1.5c0 0.2761 0.224 0.5 0.5 0.5h1.5c0.676 0.0096 0.676-1.0096 0-1h-1v-1h1c0.688 0.0218 0.688-1.0214 0-0.9996h-1v-1c-4e-3 -0.2813-0.24-0.5035-0.521-0.4917zm-12.978 1.4921c-0.27597 0-0.49975165 0.2236-0.5 0.4996v2c2.7609e-5 0.2761 0.22387 0.5 0.5 0.5h2c0.6762 0.0096 0.6762-1.0096 0-1h-1.5v-1h1.5c0.6762 0.0096 0.6762-1.0096 0-1h-2zm8 0c-0.276 0-0.4998 0.2236-0.5 0.4996v2c0 0.2761 0.2239 0.5 0.5 0.5h0.75c0.6762 0.0096 0.6762-1.0096 0-1h-0.25v-1h1v1.5c-0.0096 0.676 1.01 0.676 1 0v-2c0-0.276-0.224-0.4996-0.5-0.4996zm-6.3436 3.9996-0.875 0.875c-0.3917 0.392-0.3917 1.046 0 1.438l1.4062 1.406c0.3917 0.392 1.0458 0.392 1.4375 0l3.7189-3.719zm5.9996 0 3.719 3.719c0.392 0.392 1.046 0.392 1.438 0l1.406-1.406c0.392-0.392 0.392-1.046 0-1.438l-0.875-0.875z" style="color:#444444;fill-rule:evenodd;fill:#2e3440"/>
 </g>
</svg>
