<svg viewBox="0 0 10.182 16" xmlns="http://www.w3.org/2000/svg">
 <path d="m5.091 1.091c-1.209 0-2.182 0.973-2.182 2.182v5.818c0 1.209 0.973 2.182 2.182 2.182s2.182-0.973 2.182-2.182v-5.818c0-1.209-0.973-2.182-2.182-2.182zm-4.364 5.091v0.727h0.727v2.182c0 1.763 1.249 3.23 2.909 3.568v1.523h-0.727v0.727h2.909v-0.727h-0.727v-1.523c1.66-0.337 2.909-1.805 2.909-3.568v-2.182h0.727v-0.727h-1.454v2.909c0 1.612-1.297 2.909-2.909 2.909s-2.909-1.297-2.909-2.909v-2.909h-1.454z" fill="#2e3440" opacity=".4"/>
</svg>
