<svg viewBox="0 0 16 16" xmlns="http://www.w3.org/2000/svg">
 <path d="m2.184 2.91c-0.406 0-0.73 0.324-0.73 0.727v9.453c0 0.402 0.324 0.727 0.73 0.727h4.363c0.402 0 0.727-0.324 0.727-0.727v-9.453c0-0.402-0.324-0.727-0.727-0.727zm0.363 0.727h3.637c0.199 0 0.363 0.16 0.363 0.363v5.09c0 0.203-0.164 0.363-0.363 0.363h-3.637c-0.203 0-0.363-0.16-0.363-0.363v-5.09c0-0.203 0.16-0.363 0.363-0.363zm0 7.273c0.199 0 0.363 0.16 0.363 0.363 0 0.199-0.164 0.363-0.363 0.363-0.203 0-0.363-0.164-0.363-0.363 0-0.203 0.16-0.363 0.363-0.363zm1.453 0c0.203 0 0.363 0.16 0.363 0.363 0-0.203 0.164-0.363 0.363-0.363 0.203 0 0.363 0.16 0.363 0.363 0 0.199-0.16 0.363-0.363 0.363-0.199 0-0.363-0.164-0.363-0.363 0 0.199-0.16 0.363-0.363 0.363s-0.363-0.164-0.363-0.363c0-0.203 0.16-0.363 0.363-0.363zm2.184 0c0.199 0 0.363 0.16 0.363 0.363 0 0.199-0.164 0.363-0.363 0.363-0.203 0-0.367-0.164-0.367-0.363 0-0.203 0.164-0.363 0.367-0.363zm-3.637 1.453c0.199 0 0.363 0.164 0.363 0.363 0 0.203-0.164 0.363-0.363 0.363-0.203 0-0.363-0.16-0.363-0.363 0-0.199 0.16-0.363 0.363-0.363zm1.453 0c0.203 0 0.363 0.164 0.363 0.363 0-0.199 0.164-0.363 0.363-0.363 0.203 0 0.363 0.164 0.363 0.363 0 0.203-0.16 0.363-0.363 0.363-0.199 0-0.363-0.16-0.363-0.363 0 0.203-0.16 0.363-0.363 0.363s-0.363-0.16-0.363-0.363c0-0.199 0.16-0.363 0.363-0.363zm2.184 0c0.199 0 0.363 0.164 0.363 0.363 0 0.203-0.164 0.363-0.363 0.363-0.203 0-0.367-0.16-0.367-0.363 0-0.199 0.164-0.363 0.367-0.363z" fill="#2e3440" fill-rule="evenodd"/>
 <path d="m11.438 1.469c-0.592-0.068-1.209 0.307-1.25 0.969v0.031c-2e-3 0.147 0 0.292 0 0.438h-0.375c-0.598 0-1.094 0.496-1.094 1.094v8.719c0 0.598 0.496 1.094 1.094 1.094h3.625c0.6 0 1.125-0.496 1.125-1.094v-8.719c0-0.598-0.525-1.094-1.125-1.094h-0.344c3e-3 -0.099 4e-3 -0.192 0-0.313-7e-3 -0.228-0.058-0.508-0.25-0.75-0.21-0.27-0.529-0.351-0.781-0.375-0.24-0.023-0.44 3e-3 -0.594 0h-0.031zm-0.063 0.719h0.031c0.235 9e-3 0.447-0.014 0.594 0s0.214 0.039 0.281 0.125c0.062 0.078 0.089 0.156 0.094 0.313 2e-3 0.074 3e-3 0.188 0 0.281h-1.469c0-0.134-2e-3 -0.274 0-0.406 0.013-0.202 0.258-0.343 0.469-0.313zm-1.563 1.438h3.625c0.213 0 0.375 0.168 0.375 0.375v8.719c0 0.207-0.162 0.375-0.375 0.375h-3.625c-0.207 0-0.344-0.168-0.344-0.375v-8.719c0-0.207 0.137-0.375 0.344-0.375z" fill="#2e3440"/>
 <path d="m10.547 10.184h2.18c0.203 0 0.363 0.16 0.363 0.363v1.453c0 0.199-0.16 0.363-0.363 0.363h-2.18c-0.203 0-0.363-0.164-0.363-0.363v-1.453c0-0.203 0.16-0.363 0.363-0.363z" fill="#2e3440" fill-rule="evenodd"/>
</svg>
