<svg width="16" height="16" viewBox="0 0 4.5156 4.5156" xmlns="http://www.w3.org/2000/svg">
 <path d="m0.997 0c-0.554 0-0.997 0.443-0.997 0.997v2.522c0 0.554 0.443 0.997 0.997 0.997h2.522c0.554 0 0.997-0.443 0.997-0.997v-2.522c0-0.554-0.443-0.997-0.997-0.997zm-0.432 0.564h1.411v0.133c-0.037 3e-3 -0.059 0-0.106 0-0.153 0.01-0.264 0.029-0.264 0.114 0 0.076 0.023 0.146 0.08 0.22l0.705 1.093 0.749-1.103c0.05-0.078 0.07-0.15 0.07-0.194 0-0.065-0.052-0.109-0.106-0.132h-0.283v-0.131h1.129v0.131c-0.127 0.01-0.233 0.019-0.325 0.098-0.089 0.076-0.212 0.224-0.362 0.45l-0.724 1.147v1.279c0.059 0.055 0.342 0.147 0.564 0.15v0.133h-1.693v-0.133c0.226-0.01 0.511-0.095 0.564-0.15v-1.287l-0.598-0.917c-0.259-0.369-0.429-0.589-0.512-0.67-0.083-0.083-0.171-0.098-0.302-0.098z" fill="#2e3440"/>
</svg>
