<svg viewBox="0 0 16 16" xmlns="http://www.w3.org/2000/svg">
 <path d="m7.882 4.169c-0.497 5e-3 -0.991 0.102-1.456 0.289l0.175 0.27c1.149-0.455 2.47-0.321 3.51 0.434 0.112 0.081 0.214 0.171 0.314 0.263 0.121-0.017 0.236-0.028 0.355-0.042-0.156-0.159-0.324-0.31-0.508-0.444-0.061-0.044-0.125-0.078-0.188-0.119-0.125-0.066-0.263-0.149-0.384-0.222-0.578-0.29-1.199-0.436-1.817-0.43m0.156 1.474c-0.475-0.025-0.949 0.087-1.361 0.339l-0.5 0.305-0.047-0.073 0.077 0.166c0.315-0.097 0.633-0.193 0.961-0.281 0.494-0.134 0.978-0.245 1.455-0.347-0.193-0.058-0.388-0.097-0.584-0.108m-3.405 0.197-0.395 0.308c-0.052 0.094-0.115 0.208-0.177 0.305l0.231 0.061-0.114 0.553c-2e-3 0.01-1e-3 0.02-3e-3 0.03 0.118-0.048 0.244-0.094 0.366-0.141l0.061-0.323 0.453 0.119-0.422-0.911m8.03 0.03c-0.029 1e-3 -0.063 4e-3 -0.092 5e-3 0.422 0.859 0.611 1.823 0.523 2.785l1.263 0.367c1.143-0.757 1.783-1.513 1.624-2.116-0.184-0.698-1.398-1.079-3.317-1.041m-1.409 0.097c-0.1 0.011-0.205 0.028-0.306 0.041 0.576 0.8 0.822 1.802 0.634 2.781l-0.12 0.63-0.428-0.113 0.422 0.877 0.709-0.544-0.392-0.116 0.116-0.544c0.217-1.027-0.031-2.122-0.634-3.01zm-1.741 0.261c-0.7 0.13-1.413 0.283-2.134 0.478-0.308 0.083-0.595 0.179-0.891 0.27l0.734 1.581-1.583-0.414c0.066 0.676 0.425 1.309 1.036 1.753 0.825 0.599 1.928 0.641 2.738 0.134l0.489-0.306-1.078-2.238 1.606 0.42c-0.06-0.639-0.386-1.246-0.917-1.68m-5.072 1.459c-0.112 0.045-0.215 0.092-0.323 0.138 0 1.249 0.603 2.474 1.691 3.264 0.456 0.331 0.961 0.549 1.481 0.664 0.272-0.059 0.549-0.129 0.827-0.198-0.752 3e-3 -1.504-0.221-2.145-0.688-1.036-0.753-1.608-1.95-1.53-3.18m-1.45 0.648c-1.985 0.993-3.176 2.081-2.961 2.891 0.25 0.946 2.352 1.245 5.163 0.889-0.029-0.02-0.061-0.034-0.089-0.055-1.246-0.905-1.976-2.274-2.113-3.725" fill="#2e3440" fill-opacity=".941"/>
 <g transform="matrix(-.64725 -.47025 .47025 -.64725 9.9701 20.296)">
  <g transform="matrix(.34783 0 0 .34783 2.6436 2.6457)" fill="#2e3440">
   <path transform="matrix(2.875 0 0 2.875 97.068 -33.481)" d="m-25.406 14.5c2.304 0 4.367 1.303 5.281 3.313l1.219-0.469-1 3.469-3.313-1.844 1.281-0.5c-0.621-1.31-1.954-2.125-3.469-2.125-1.573 0-2.996 0.94-3.563 2.344l-1.781-0.688c0.845-2.104 2.985-3.5 5.344-3.5zm-5.5 4.719 3.313 1.781-1.281 0.5c0.613 1.305 1.964 2.156 3.469 2.156 1.576 0 2.979-0.91 3.563-2.313l1.781 0.688c-0.877 2.103-2.979 3.469-5.344 3.469-2.292 0-4.387-1.339-5.281-3.344l-1.219 0.438z"/>
  </g>
 </g>
</svg>
