<svg viewBox="0 0 16 16" xmlns="http://www.w3.org/2000/svg">
 <path d="m8 4.2c-1.429 0-2.701 0.761-3.402 1.895l0.302 0.116c0.656-1.052 1.811-1.736 3.1-1.736 0.949 0 1.833 0.352 2.499 0.955 0.132-0.018 0.261-0.032 0.391-0.047-0.137-0.137-0.284-0.263-0.441-0.378-0.102-0.047-0.208-0.085-0.308-0.136-0.241-0.123-0.421-0.244-0.703-0.406-0.45-0.165-0.932-0.263-1.438-0.263m0 1.475c-0.67 0-1.294 0.268-1.745 0.702 0.299-0.092 0.601-0.182 0.911-0.266 0.501-0.136 0.992-0.248 1.475-0.352-0.205-0.051-0.417-0.084-0.641-0.084zm5.81 0.245-0.947 3.289 0.203 0.078-0.238 0.567c-9e-3 0.021-0.022 0.04-0.031 0.061 2.11-1.02 3.399-2.154 3.177-2.992-0.143-0.544-0.921-0.893-2.164-1zm-2.433 0.044c-0.117 0.012-0.242 0.031-0.361 0.045 0.112 0.16 0.214 0.327 0.3 0.508l0.277 0.583-0.438 0.17 0.877 0.489 0.258-0.892-0.377 0.145-0.234-0.514c-0.085-0.188-0.188-0.365-0.302-0.534zm-1.794 0.263c-0.724 0.132-1.464 0.29-2.211 0.492-0.588 0.159-1.15 0.335-1.692 0.52l-0.191 0.47 2.188 1.177-1.547 0.605c0.454 0.515 1.129 0.834 1.87 0.834 1.029 0 1.924-0.589 2.295-1.481l0.225-0.539 0.081 0.031-2.258-1.256 1.524-0.595c-0.085-0.096-0.185-0.177-0.284-0.258zm-5.619 2.027-0.253 0.856 0.384-0.138 0.227 0.508c0.531 1.191 1.698 2.055 3.039 2.267 0.34-0.075 0.683-0.157 1.033-0.248-0.13 0.014-0.26 0.027-0.394 0.027-1.43 0-2.727-0.811-3.319-2.07l-0.273-0.581 0.413-0.161-0.856-0.459m-1.338 0.292c-1.756 0.939-2.804 1.937-2.603 2.694 0.249 0.943 2.337 1.242 5.131 0.892-0.654-0.432-1.215-1-1.62-1.683l-1.647 0.591 0.739-2.494m8.468 1.267c-0.37 0.582-0.895 1.041-1.506 1.339 0.361-0.112 0.711-0.226 1.052-0.347 0.29-0.255 0.547-0.546 0.755-0.877l-0.3-0.116z" fill="#2e3440" fill-opacity=".941"/>
 <g transform="matrix(.80004 0 0 .80004 -.80054 -.8004)">
  <g transform="matrix(.34783 0 0 .34783 2.6436 2.6457)" fill="#2e3440">
   <path transform="matrix(2.875 0 0 2.875 97.068 -33.481)" d="m-25.406 14.5c2.304 0 4.367 1.303 5.281 3.313l1.219-0.469-1 3.469-3.313-1.844 1.281-0.5c-0.621-1.31-1.954-2.125-3.469-2.125-1.573 0-2.996 0.94-3.563 2.344l-1.781-0.688c0.845-2.104 2.985-3.5 5.344-3.5zm-5.5 4.719 3.313 1.781-1.281 0.5c0.613 1.305 1.964 2.156 3.469 2.156 1.576 0 2.979-0.91 3.563-2.313l1.781 0.688c-0.877 2.103-2.979 3.469-5.344 3.469-2.292 0-4.387-1.339-5.281-3.344l-1.219 0.438z"/>
  </g>
 </g>
</svg>
