<svg viewBox="0 0 16 16" xmlns="http://www.w3.org/2000/svg">
 <path d="m8.761 4.174-0.017 0.322c0.638 0.158 1.218 0.487 1.684 0.939 0.121-0.017 0.236-0.029 0.355-0.044-0.152-0.169-0.32-0.323-0.497-0.463-0.047-0.023-0.097-0.04-0.144-0.064-0.263-0.133-0.434-0.256-0.766-0.442-0.07-0.04-0.157-0.087-0.238-0.131-0.124-0.044-0.25-0.086-0.378-0.117m-2.248 0.064-0.791 0.02c-0.022 0.018-0.044 0.032-0.066 0.05l0.214 0.277-0.414 0.372c-0.608 0.548-1.01 1.296-1.177 2.108 0.105-0.042 0.216-0.082 0.323-0.123 0.173-0.623 0.505-1.197 0.988-1.65l0.469-0.441 0.28 0.344 0.173-0.956m0.988 1.281-0.095 0.528c0.467-0.122 0.926-0.228 1.377-0.322-0.224-0.092-0.461-0.149-0.705-0.166l-0.577-0.041zm5.158 0.359c-0.042 1e-3 -0.09 7e-3 -0.133 8e-3 0.084 0.184 0.168 0.37 0.231 0.566 0.388 1.195 0.314 2.437-0.127 3.536 2.206-1.04 3.573-2.21 3.345-3.069-0.184-0.697-1.398-1.079-3.317-1.041m-1.438 0.102c-0.098 0.011-0.202 0.027-0.302 0.039 0.181 0.27 0.33 0.566 0.434 0.888 0.441 1.357 0.096 2.828-0.919 3.786l-0.309 0.294c0.254-0.085 0.488-0.176 0.731-0.266 0.898-1.031 1.211-2.505 0.758-3.899-0.098-0.302-0.234-0.581-0.394-0.842m-1.675 0.25c-0.712 0.131-1.438 0.286-2.172 0.484-0.033 9e-3 -0.063 0.019-0.095 0.028l-0.22 1.222-0.758-0.925c-0.171 0.054-0.352 0.102-0.519 0.158-0.149 0.478-0.158 1.01 8e-3 1.517 0.318 0.979 1.154 1.649 2.117 1.727l0.583 0.047-5e-3 0.088 0.498-2.536 1.036 1.266c0.344-0.585 0.425-1.309 0.192-2.027-0.133-0.411-0.37-0.766-0.666-1.048m-5.066 1.45c-0.095 0.038-0.19 0.075-0.283 0.114-0.012 0.459 0.042 0.924 0.189 1.377 0.435 1.338 1.489 2.279 2.752 2.625 0.027-6e-3 0.055-0.013 0.081-0.019l0.014-0.278c-1.197-0.307-2.187-1.19-2.584-2.413-0.15-0.463-0.2-0.94-0.169-1.406m-1.466 0.648c-2 0.997-3.205 2.092-2.989 2.906 0.246 0.935 2.303 1.235 5.061 0.9-0.84-0.639-1.496-1.532-1.841-2.594-0.13-0.4-0.201-0.807-0.231-1.213m6.655 2.444-0.073 0.373c0.101-0.031 0.205-0.06 0.305-0.092l-0.231-0.281z" fill="#2e3440" fill-opacity=".941"/>
 <g transform="matrix(.24722 .76086 -.76086 .24722 13.65 -3.0928)">
  <g transform="matrix(.34783 0 0 .34783 2.6436 2.6457)" fill="#2e3440">
   <path transform="matrix(2.875 0 0 2.875 97.068 -33.481)" d="m-25.406 14.5c2.304 0 4.367 1.303 5.281 3.313l1.219-0.469-1 3.469-3.313-1.844 1.281-0.5c-0.621-1.31-1.954-2.125-3.469-2.125-1.573 0-2.996 0.94-3.563 2.344l-1.781-0.688c0.845-2.104 2.985-3.5 5.344-3.5zm-5.5 4.719 3.313 1.781-1.281 0.5c0.613 1.305 1.964 2.156 3.469 2.156 1.576 0 2.979-0.91 3.563-2.313l1.781 0.688c-0.877 2.103-2.979 3.469-5.344 3.469-2.292 0-4.387-1.339-5.281-3.344l-1.219 0.438z"/>
  </g>
 </g>
</svg>
