<svg viewBox="0 0 16 16" xmlns="http://www.w3.org/2000/svg">
 <g transform="translate(0,-48)" fill="#2e3440">
  <rect x="11" y="58" width="4" height="2" rx=".619"/>
  <rect x="5" y="49" width="4" height="2" rx=".7"/>
  <path d="m6.459 50.05 1.366 5.069 0.718-0.192-1.366-5.069-0.718 0.192"/>
  <rect x="1" y="52" width="4" height="2" rx=".709"/>
  <rect x="8" y="61" width="4" height="2" rx=".696"/>
  <g transform="matrix(.47283 .47285 -.47283 .47285 27.179 23.425)">
   <path d="m15.453 60.715c0.165 0.083 0.246 0.182 0.243 0.297 0 0.117 0.047 0.285 0.142 0.502 0.094 0.217 0.208 0.42 0.341 0.609l0.13 0.191c0.133 0.189 0.216 0.43 0.251 0.722 0.034 0.292 0.01 0.544-0.075 0.756l-1.723 4.503c-0.125 0.304-0.224 0.304-0.224 0.304l-0.749 2e-3s-0.09 4e-3 -0.222-0.306l-1.727-4.507c-0.082-0.214-0.105-0.466-0.069-0.754s0.121-0.528 0.257-0.72l0.126-0.188c0.133-0.189 0.246-0.392 0.341-0.609 0.094-0.217 0.142-0.384 0.142-0.502 0-0.117 0.081-0.216 0.243-0.297 0.162-0.08 0.361-0.121 0.595-0.121l1.379-8e-3c0.235 0 0.435 0.041 0.599 0.124z"/>
   <g transform="matrix(-.06678 0 0 -.041734 16.195 59.996)">
    <path transform="matrix(23.961 0 0 23.961 197.77 -17.818)" d="m-5.727 2.498c-0.013-0.18-0.045-0.358-0.096-0.537-0.059-0.195-0.13-0.454-0.254-0.586-0.134-0.143-0.313-0.135-0.473-0.165-0.144-0.027-0.289-0.014-0.434-0.014-0.147 0-0.294-0.013-0.439 0.014-0.16 0.03-0.339 0.021-0.473 0.165-0.123 0.132-0.196 0.391-0.254 0.586-0.052 0.18-0.083 0.357-0.096 0.537l-0.01 0.217c-1e-3 0.138 3e-3 0.277 2e-3 0.416 5e-3 0.781 5e-3 1.562 0.02 2.342 0.016 1.561 0.061 3.12 0.117 4.68 0.06 1.56 0.143 3.122 0.252 4.682 0.112 1.56 0.24 3.122 0.441 4.682 0.025 0.194 0.179 0.355 0.381 0.381 0.242 0.031 0.46-0.14 0.492-0.381 0.2-1.56 0.331-3.121 0.441-4.682 0.109-1.561 0.193-3.122 0.252-4.682 0.056-1.561 0.101-3.12 0.117-4.68 0.015-0.78 0.015-1.562 0.02-2.342-1e-3 -0.138 3e-3 -0.278 2e-3 -0.416z"/>
   </g>
  </g>
  <path d="m1.984 53.2 3.717 3.707 0.525-0.525-3.717-3.707-0.525 0.525"/>
  <path d="m9.5 54.702 7e-3 7.173h0.743l-7e-3 -7.173h-0.743z"/>
  <path d="m11.25 53.34 1.366 5.069 0.718-0.192-1.366-5.069-0.718 0.192z"/>
 </g>
</svg>
