<svg viewBox="0 0 32 32" xmlns="http://www.w3.org/2000/svg">
 <g transform="translate(0,-16)">
  <path d="m28.569 19.431c-0.841-0.841-3.111 0-5.353 2.241l-3.294 3.294-14.161-2.988c-1.019-0.192-1.312-0.198-1.826 0.307-1.205 1.205-1.206 1.206 0.777 2.355l10.292 5.244-5.667 5.667-4.477-0.859c-0.524-0.11-0.515-0.149-0.843 0.179l-0.325 0.325c-0.495 0.495 0.248 1.081 0.248 1.081l4.61 3.172 3.172 4.61s0.586 0.743 1.081 0.248l0.325-0.325c0.328-0.328 0.289-0.319 0.179-0.843l-0.859-4.477 5.667-5.667 5.244 10.292c1.149 1.983 1.149 1.982 2.355 0.777 0.505-0.514 0.499-0.807 0.307-1.826l-2.988-14.161 3.294-3.294c2.241-2.241 3.083-4.511 2.241-5.353z" fill="#5e81ac"/>
 </g>
</svg>
