<svg viewBox="0 0 32 32" xmlns="http://www.w3.org/2000/svg">
 <path d="m30 16c0 7.731-6.269 14-14 14s-14-6.269-14-14 6.269-14 14-14 14 6.269 14 14" fill="#eceff4" fill-rule="evenodd"/>
 <path d="m15.977 5.574c-0.883 0.012-1.59 0.746-1.578 1.625v8.801c0 0.375 0.133 0.738 0.375 1.023l4 4.801c0.359 0.48 0.945 0.719 1.531 0.633 0.59-0.094 1.078-0.5 1.27-1.063 0.195-0.563 0.059-1.188-0.348-1.621l-3.625-4.348v-8.227c4e-3 -0.43-0.164-0.848-0.469-1.156-0.309-0.305-0.727-0.473-1.156-0.469z" fill="#5e81ac"/>
 <path d="m16 0c-8.82 0-16 7.18-16 16s7.18 16 16 16 16-7.18 16-16-7.18-16-16-16m0 3.199c7.086 0 12.801 5.715 12.801 12.801s-5.715 12.801-12.801 12.801-12.801-5.715-12.801-12.801 5.715-12.801 12.801-12.801z" fill="#7b88a1"/>
 <path d="m14 25a7 7 0 0 1-14 0 7 7 0 1 1 14 0" fill="#bf616a" fill-rule="evenodd"/>
 <g transform="matrix(-1 0 0 -1 32 32.5)">
  <g transform="matrix(.5 0 0 1 19 -6)">
   <path d="m14 17.5h-4v-5h4v5" fill="#eceff4" fill-opacity=".9"/>
  </g>
  <g transform="matrix(.5 0 0 .5 19 2.4969e-5)" fill-rule="evenodd">
   <path d="m14 9c0 1.105-0.895 2-2 2s-2-0.895-2-2 0.895-2 2-2 2 0.895 2 2z" fill="#eceff4" fill-opacity=".9"/>
  </g>
 </g>
</svg>
