
<svg xmlns="http://www.w3.org/2000/svg" xmlns:xlink="http://www.w3.org/1999/xlink" width="32" height="32" viewBox="0 0 32 32" version="1.1">
<defs>
<filter id="alpha" filterUnits="objectBoundingBox" x="0%" y="0%" width="100%" height="100%">
  <feColorMatrix type="matrix" in="SourceGraphic" values="0 0 0 0 1 0 0 0 0 1 0 0 0 0 1 0 0 0 1 0"/>
</filter>
<mask id="mask0">
  <g filter="url(#alpha)">
<rect x="0" y="0" width="32" height="32" style="fill:rgb(0%,0%,0%);fill-opacity:0.4;stroke:none;"/>
  </g>
</mask>
<clipPath id="clip1">
  <rect x="0" y="0" width="32" height="32"/>
</clipPath>
<g id="surface5" clip-path="url(#clip1)">
<path style=" stroke:none;fill-rule:nonzero;fill:rgb(18.039216%,20.392157%,25.098041%);fill-opacity:1;" d="M 30.546875 6.179688 C 30.546875 7.992188 29.101562 9.453125 27.3125 9.453125 C 25.53125 9.453125 24.078125 7.992188 24.078125 6.179688 C 24.078125 4.375 25.53125 2.90625 27.3125 2.90625 C 29.101562 2.90625 30.546875 4.375 30.546875 6.179688 Z M 30.546875 6.179688 "/>
</g>
</defs>
<g id="surface1">
<path style=" stroke:none;fill-rule:nonzero;fill:rgb(18.039216%,20.392157%,25.098041%);fill-opacity:1;" d="M 11.148438 2.90625 C 8.476562 2.90625 6.304688 5.109375 6.304688 7.820312 L 6.304688 16.015625 C 6.304688 18.726562 8.476562 20.921875 11.148438 20.921875 C 13.828125 20.921875 16 18.726562 16 16.015625 L 16 7.820312 C 16 5.109375 13.828125 2.90625 11.148438 2.90625 Z M 11.148438 2.90625 "/>
<path style=" stroke:none;fill-rule:nonzero;fill:rgb(18.039216%,20.392157%,25.098041%);fill-opacity:1;" d="M 1.453125 16 C 1.453125 20.867188 4.945312 24.890625 9.535156 25.664062 L 9.535156 27.453125 L 7.914062 27.453125 L 7.914062 29.09375 L 14.375 29.09375 L 14.375 27.453125 L 12.757812 27.453125 L 12.757812 25.664062 C 17.351562 24.890625 20.839844 20.867188 20.839844 16 L 17.605469 16 C 17.605469 19.617188 14.707031 22.546875 11.136719 22.546875 C 7.566406 22.546875 4.675781 19.617188 4.675781 16 Z M 1.453125 16 "/>
<use xlink:href="#surface5" mask="url(#mask0)"/>
<path style=" stroke:none;fill-rule:nonzero;fill:rgb(18.039216%,20.392157%,25.098041%);fill-opacity:1;" d="M 30.546875 16 C 30.546875 17.804688 29.101562 19.273438 27.3125 19.273438 C 25.53125 19.273438 24.078125 17.804688 24.078125 16 C 24.078125 14.195312 25.53125 12.726562 27.3125 12.726562 C 29.101562 12.726562 30.546875 14.195312 30.546875 16 Z M 30.546875 16 "/>
<path style=" stroke:none;fill-rule:nonzero;fill:rgb(18.039216%,20.392157%,25.098041%);fill-opacity:1;" d="M 30.546875 25.820312 C 30.546875 27.625 29.101562 29.09375 27.3125 29.09375 C 25.53125 29.09375 24.078125 27.625 24.078125 25.820312 C 24.078125 24.007812 25.53125 22.546875 27.3125 22.546875 C 29.101562 22.546875 30.546875 24.007812 30.546875 25.820312 Z M 30.546875 25.820312 "/>
</g>
</svg>
