<svg width="32" height="32" version="1.1" viewBox="0 0 32 32" xmlns="http://www.w3.org/2000/svg">
 <filter id="alpha" x="0" y="0" width="1" height="1">
  <feColorMatrix in="SourceGraphic" values="0 0 0 0 1 0 0 0 0 1 0 0 0 0 1 0 0 0 1 0"/>
 </filter>
 <mask>
  <g filter="url(#alpha)">
   <rect width="32" height="32" fill-opacity=".4"/>
  </g>
 </mask>
 <clipPath id="clip1">
  <rect width="32" height="32"/>
 </clipPath>
 <g clip-path="url(#clip1)" fill="#eceff4">
  <path d="m20.801 16.73c0.035157-0.23438 0.050781-0.47266 0.050781-0.71484v-8.1953c0-2.7109-2.1719-4.9141-4.8516-4.9141-2.4453 0-4.4727 1.8477-4.7969 4.2383"/>
  <path d="m19.172 19.73c0.066406-0.058594 0.13281-0.12109 0.19922-0.18359"/>
  <path d="m11.156 15.953v0.0625c0 2.7109 2.1719 4.9062 4.8477 4.9062h0.11328"/>
  <path d="m17.551 22.355c-0.5 0.125-1.0234 0.19141-1.5625 0.19141-3.5664 0-6.457-2.9297-6.457-6.5469h-3.2227c0 4.8672 3.4922 8.8906 8.0781 9.6641v1.7891h-1.6172v1.6406h6.4609v-1.6406h-1.6172v-1.7891c0.87109-0.14844 1.7031-0.41016 2.4805-0.77734"/>
  <path d="m20.508 20.684c-0.0625 0.0625-0.12891 0.125-0.19531 0.1875"/>
  <path d="m24.602 20.531c0.69531-1.3516 1.0898-2.8945 1.0898-4.5312h-3.2344c0 0.72266-0.11328 1.4141-0.32812 2.0625"/>
  <path d="m22.805 22.984c0.003906 0 0.003906 0 0.003906-0.003906"/>
  <path d="m22.613 23.172c0.066407-0.0625 0.12891-0.125 0.19531-0.1875"/>
  <path d="m4.0547 6.7344 2.3086-2.3125 21.711 21.711-2.3125 2.3125z"/>
 </g>
</svg>
