<svg version="1.1" viewBox="0 0 32 32" xmlns="http://www.w3.org/2000/svg">
 <g transform="matrix(1.25,0,0,-1.25,0,32)" fill="#eceff4">
  <g transform="matrix(1.4546 0 0 1.4546 -4e-5 -4e-5)" fill="#eceff4">
   <path d="m12.1 12.787c-1.508 0-2.777-0.88-3.382-2.337h-4.718c-1.602 0-2.35-0.849-2.35-1.65s0.735-1.65 2.337-1.65l0.825-1.65 0.687 2.475 1.65-2.475 0.825 1.65h0.742c0.601-1.457 1.871-2.333 3.382-2.337 2.098 0 3.85 1.78 3.85 3.987 0 2.211-1.752 3.987-3.85 3.987zm1.499-3.162c0.441 0 0.839-0.383 0.839-0.825 0-0.441-0.398-0.825-0.839-0.825-0.446 0-0.797 0.384-0.797 0.825 0 0.442 0.351 0.825 0.797 0.825z" fill="#eceff4"/>
  </g>
 </g>
</svg>
