<svg width="32" height="32" viewBox="0 0 32 32" xmlns="http://www.w3.org/2000/svg">
 <path d="m14.136719 4.363281c-0.769531 0-1.394531 0.625-1.394531 1.394531 0 0.773438 0.625 1.398438 1.394531 1.398438 3.601562 0 6.519531 2.917969 6.519531 6.515625 0 0.773437 0.625 1.394531 1.394531 1.394531 0.773438 0 1.394531-0.621094 1.394531-1.394531 0-5.140625-4.164062-9.308594-9.308593-9.308594zm-0.464844 4.191407c-5.140625 0-9.308594 4.164062-9.308594 9.308593 0 0.769531 0.625 1.394531 1.394531 1.394531 0.773438 0 1.398438-0.625 1.398438-1.394531 0-3.601562 2.917969-6.519531 6.515625-6.519531 0.773437 0 1.394531-0.625 1.394531-1.394531 0-0.773438-0.621094-1.394531-1.394531-1.394531zm12.570313 4.1875c-0.773438 0-1.398438 0.625-1.398438 1.394531 0 3.601562-2.917969 6.519531-6.515625 6.519531-0.773437 0-1.394531 0.625-1.394531 1.394531 0 0.773438 0.621094 1.394531 1.394531 1.394531 5.140625 0 9.308594-4.164062 9.308594-9.308593 0-0.769531-0.625-1.394531-1.394531-1.394531zm-16.292969 4.191406c-0.773438 0-1.394531 0.621094-1.394531 1.394531 0 5.140625 4.164062 9.308594 9.308593 9.308594 0.769531 0 1.394531-0.625 1.394531-1.394531 0-0.773438-0.625-1.398438-1.394531-1.398438-3.601562 0-6.519531-2.917969-6.519531-6.515625 0-0.773437-0.625-1.394531-1.394531-1.394531z" fill="rgb(18.039216%, 20.392157%, 25.098041%)"/>
</svg>
