
<svg xmlns="http://www.w3.org/2000/svg" xmlns:xlink="http://www.w3.org/1999/xlink" width="32" height="32" viewBox="0 0 32 32">
<path fill="none" stroke-width="1.119" stroke-linecap="round" stroke-linejoin="round" stroke="rgb(18.039216%, 20.392157%, 25.098041%)" stroke-opacity="1" stroke-miterlimit="4" d="M 2.857422 15.042969 C 2.214844 14.150391 1.498047 12.849609 1.210938 12.058594 C 0.925781 11.267578 0.873047 10.943359 0.849609 10.384766 C 0.814453 9.605469 0.955078 9.130859 1.386719 8.564453 C 2.208984 7.490234 2.929688 6.146484 3.330078 4.943359 C 3.65625 3.964844 3.822266 2.904297 3.761719 2.191406 C 3.746094 2.013672 3.744141 1.869141 3.761719 1.869141 C 3.800781 1.869141 4.474609 2.919922 4.703125 3.34375 C 5.546875 4.908203 5.898438 6.142578 5.849609 7.365234 C 5.824219 7.990234 5.730469 8.412109 5.509766 8.876953 C 5.289062 9.34375 5.21875 9.414062 4.759766 9.96875 C 3.804688 11.121094 3.195312 12.332031 3.013672 13.4375 C 2.933594 13.923828 2.953125 14.755859 3.052734 15.117188 C 3.087891 15.240234 3.111328 15.347656 3.103516 15.355469 C 3.097656 15.363281 2.986328 15.220703 2.857422 15.041016 Z M 2.857422 15.042969 " transform="matrix(2, 0, 0, 2, 0, 0)"/>
<path fill="none" stroke-width="1.119" stroke-linecap="round" stroke-linejoin="round" stroke="rgb(18.039216%, 20.392157%, 25.098041%)" stroke-opacity="1" stroke-miterlimit="4" d="M 3.080078 15.056641 C 2.990234 14.767578 2.976562 13.861328 3.054688 13.416016 C 3.232422 12.396484 3.763672 11.292969 4.560547 10.287109 C 4.738281 10.0625 4.984375 9.753906 5.105469 9.601562 C 5.375 9.261719 5.660156 8.6875 5.777344 8.244141 C 5.896484 7.802734 5.929688 7.007812 5.863281 6.509766 C 5.837891 6.308594 5.804688 6.119141 5.792969 6.087891 C 5.78125 6.056641 5.896484 5.957031 6.138672 5.810547 C 8.152344 4.59375 9.402344 2.833984 9.552734 0.996094 L 9.582031 0.644531 L 9.734375 1.121094 C 10.769531 4.365234 10.75 7.146484 9.681641 8.701172 C 9.291016 9.269531 8.681641 9.740234 7.9375 10.046875 C 6.560547 10.617188 5.550781 11.261719 4.716797 12.101562 C 3.884766 12.943359 3.357422 13.894531 3.189453 14.890625 L 3.132812 15.222656 Z M 3.080078 15.056641 " transform="matrix(2, 0, 0, 2, 0, 0)"/>
<path fill="none" stroke-width="1.119" stroke-linecap="round" stroke-linejoin="round" stroke="rgb(18.039216%, 20.392157%, 25.098041%)" stroke-opacity="1" stroke-miterlimit="4" d="M 3.203125 15.048828 C 3.203125 14.824219 3.427734 14.109375 3.630859 13.689453 C 4.363281 12.179688 5.71875 11.039062 7.882812 10.113281 C 8.482422 9.857422 8.767578 9.691406 9.101562 9.408203 C 9.775391 8.830078 10.236328 7.958984 10.423828 6.904297 L 10.492188 6.519531 L 11.011719 6.339844 C 11.966797 6.007812 12.902344 5.552734 13.515625 5.121094 C 14.130859 4.689453 14.917969 3.835938 15.083984 3.355469 C 15.113281 3.269531 15.144531 3.207031 15.154297 3.212891 C 15.175781 3.236328 15 4.498047 14.894531 5.072266 C 14.259766 8.5 12.986328 10.839844 11.275391 11.722656 C 10.806641 11.964844 10.427734 12.074219 9.744141 12.150391 C 6.798828 12.5 4.582031 13.416016 3.507812 14.757812 C 3.376953 14.923828 3.253906 15.074219 3.236328 15.095703 C 3.216797 15.117188 3.203125 15.095703 3.203125 15.048828 Z M 3.203125 15.048828 " transform="matrix(2, 0, 0, 2, 0, 0)"/>
</svg>
