<svg width="32" height="32" viewBox="0 0 32 32" xmlns="http://www.w3.org/2000/svg">
 <path transform="scale(2)" d="m2.857422 15.042969c-0.642578-0.892578-1.359375-2.19336-1.646484-2.984375-0.285157-0.791016-0.337891-1.115235-0.361329-1.673828-0.035156-0.779297 0.105469-1.253907 0.53711-1.820313 0.822265-1.074219 1.542969-2.417969 1.943359-3.621094 0.326172-0.978515 0.492188-2.039062 0.431641-2.751953-0.015625-0.177734-0.017578-0.322265 0-0.322265 0.039062 0 0.71289 1.050781 0.941406 1.474609 0.84375 1.564453 1.195313 2.798828 1.146484 4.021484-0.02539 0.625-0.11914 1.046875-0.339843 1.511719-0.220704 0.466797-0.291016 0.537109-0.75 1.091797-0.955078 1.152344-1.564454 2.363281-1.746094 3.46875-0.080078 0.486328-0.060547 1.318359 0.039062 1.679688 0.035157 0.123046 0.058594 0.230468 0.050782 0.238281-0.00586 0.007812-0.117188-0.134766-0.246094-0.314453zm0 0" fill="none" stroke="rgb(18.039216%, 20.392157%, 25.098041%)" stroke-linecap="round" stroke-linejoin="round" stroke-width="1.119"/>
 <path transform="scale(2)" d="m3.080078 15.056641c-0.089844-0.289063-0.103516-1.195313-0.02539-1.640625 0.177734-1.019532 0.708984-2.123047 1.505859-3.128907 0.177734-0.224609 0.423828-0.533203 0.544922-0.685547 0.269531-0.339843 0.554687-0.914062 0.671875-1.357421 0.11914-0.441407 0.152344-1.236329 0.085937-1.734375-0.02539-0.201172-0.058593-0.390625-0.070312-0.421875s0.103515-0.13086 0.345703-0.277344c2.013672-1.216797 3.263672-2.976563 3.414062-4.814453l0.029297-0.351563 0.152344 0.476563c1.035156 3.24414 1.015625 6.02539-0.052734 7.580078-0.390625 0.568359-1 1.039062-1.744141 1.345703-1.376953 0.570313-2.386719 1.214844-3.220703 2.054687-0.832031 0.841797-1.359375 1.792969-1.527344 2.789063l-0.056641 0.332031zm0 0" fill="none" stroke="rgb(18.039216%, 20.392157%, 25.098041%)" stroke-linecap="round" stroke-linejoin="round" stroke-width="1.119"/>
 <path transform="scale(2)" d="m3.203125 15.048828c0-0.224609 0.224609-0.939453 0.427734-1.359375 0.732422-1.509765 2.087891-2.650391 4.251953-3.576172 0.59961-0.255859 0.884766-0.421875 1.21875-0.705078 0.673829-0.578125 1.134766-1.449219 1.322266-2.503906l0.06836-0.384766 0.519531-0.179687c0.955078-0.332032 1.890625-0.78711 2.503906-1.21875 0.615234-0.431641 1.402344-1.285156 1.568359-1.765625 0.029297-0.085938 0.060547-0.148438 0.070313-0.142578 0.021484 0.023437-0.154297 1.285156-0.259766 1.859375-0.634765 3.427734-1.908203 5.767578-3.61914 6.65039-0.46875 0.242188-0.847657 0.351563-1.53125 0.427735-2.945313 0.349609-5.16211 1.265625-6.236329 2.607421-0.130859 0.166016-0.253906 0.316407-0.271484 0.337891-0.019531 0.021485-0.033203 0-0.033203-0.046875zm0 0" fill="none" stroke="rgb(18.039216%, 20.392157%, 25.098041%)" stroke-linecap="round" stroke-linejoin="round" stroke-width="1.119"/>
</svg>
