<svg width="32px" height="32px" version="1.1" viewBox="0 0 32 32" xmlns="http://www.w3.org/2000/svg">
 <path d="m5.6875 22.559c-2.0625 0-3.7422 1.6836-3.7422 3.7344 0 2.0625 1.6797 3.7266 3.7422 3.7266 2.0703 0 3.7461-1.6641 3.7461-3.7266 0-2.0508-1.6758-3.7344-3.7461-3.7344zm-3.7383-11.062v5.3867c3.5078 0 6.8047 1.3711 9.2891 3.8594 2.4805 2.4766 3.8516 5.7891 3.8516 9.3125h5.4102c0-10.234-8.3242-18.559-18.551-18.559zm0.007812-9.5508v5.3906c12.512 0 22.695 10.191 22.695 22.719h5.4023c0-15.496-12.605-28.109-28.098-28.109z" fill="#eceff4"/>
 <path d="m30.062 22.414c0 4.1992-2.8828 7.6055-6.4414 7.6055s-6.4453-3.4062-6.4453-7.6055c0-4.1992 2.8867-7.6055 6.4453-7.6055s6.4414 3.4062 6.4414 7.6055z" fill="#81a1c1"/>
</svg>
