<?xml version="1.0" encoding="UTF-8" standalone="no"?>
<svg
   width="32px"
   height="32px"
   viewBox="0 0 32 32"
   version="1.1"
   id="svg5"
   sodipodi:docname="liferea-available.svg"
   inkscape:version="1.1 (c68e22c387, 2021-05-23)"
   xmlns:inkscape="http://www.inkscape.org/namespaces/inkscape"
   xmlns:sodipodi="http://sodipodi.sourceforge.net/DTD/sodipodi-0.dtd"
   xmlns="http://www.w3.org/2000/svg"
   xmlns:svg="http://www.w3.org/2000/svg">
  <defs
     id="defs9" />
  <sodipodi:namedview
     id="namedview7"
     pagecolor="#ffffff"
     bordercolor="#666666"
     borderopacity="1.0"
     inkscape:pageshadow="2"
     inkscape:pageopacity="0.0"
     inkscape:pagecheckerboard="0"
     showgrid="false"
     inkscape:zoom="21.5625"
     inkscape:cx="15.976812"
     inkscape:cy="16"
     inkscape:window-width="1920"
     inkscape:window-height="1018"
     inkscape:window-x="0"
     inkscape:window-y="32"
     inkscape:window-maximized="1"
     inkscape:current-layer="svg5" />
  <g
     id="surface1"
     style="fill:#eceff4">
    <path
       style="stroke:none;fill-rule:nonzero;fill:#eceff4;fill-opacity:1"
       d="M 5.6875 22.558594 C 3.625 22.558594 1.945312 24.242188 1.945312 26.292969 C 1.945312 28.355469 3.625 30.019531 5.6875 30.019531 C 7.757812 30.019531 9.433594 28.355469 9.433594 26.292969 C 9.433594 24.242188 7.757812 22.558594 5.6875 22.558594 Z M 1.949219 11.496094 L 1.949219 16.882812 C 5.457031 16.882812 8.753906 18.253906 11.238281 20.742188 C 13.71875 23.21875 15.089844 26.53125 15.089844 30.054688 L 20.5 30.054688 C 20.5 19.820312 12.175781 11.496094 1.949219 11.496094 Z M 1.957031 1.945312 L 1.957031 7.335938 C 14.46875 7.335938 24.652344 17.527344 24.652344 30.054688 L 30.054688 30.054688 C 30.054688 14.558594 17.449219 1.945312 1.957031 1.945312 Z M 1.957031 1.945312 "
       id="path2" />
  </g>
</svg>
