<svg viewBox="0 0 32 32" xmlns="http://www.w3.org/2000/svg">
 <path d="m10 5-5 6h10v-6h-5zm7 0v6h10l-5-6h-5zm-12 8v14h12.67l0.607-2.053-0.338-0.129 0.756-1.883c0.088-0.218 0.246-0.385 0.354-0.59l0.143-0.482 0.107 0.059c1.298-2.091 3.58-3.422 6.109-3.422 0.543 0 1.076 0.062 1.592 0.176v-5.676h-22z" fill="#4c566a"/>
 <g transform="matrix(.90909 0 0 .90909 15.409 15.5)" fill="#5e81ac">
  <g transform="matrix(.34783 0 0 .34783 2.6436 2.6457)">
   <path transform="matrix(2.875 0 0 2.875 97.068 -33.481)" d="m-25.406 14.5c2.304 0 4.367 1.303 5.281 3.313l1.219-0.469-1 3.469-3.313-1.844 1.281-0.5c-0.621-1.31-1.954-2.125-3.469-2.125-1.573 0-2.996 0.94-3.563 2.344l-1.781-0.688c0.845-2.104 2.985-3.5 5.344-3.5zm-5.5 4.719 3.313 1.781-1.281 0.5c0.613 1.305 1.964 2.156 3.469 2.156 1.576 0 2.979-0.91 3.563-2.313l1.781 0.688c-0.877 2.103-2.979 3.469-5.344 3.469-2.292 0-4.387-1.339-5.281-3.344l-1.219 0.438z"/>
  </g>
 </g>
</svg>
