<svg viewBox="0 0 32 32" xmlns="http://www.w3.org/2000/svg">
 <path d="m10 5-5 6h10v-6zm7 0v6h10l-5-6zm-12 8v14h13.867c-0.108-0.47-0.309-0.904-0.309-1.404 0-3.826 3.145-6.971 6.971-6.971 0.504 0 0.996 0.058 1.471 0.162v-5.787" fill="#4c566a"/>
 <path d="m30.5 25.596c0-2.746-2.222-4.97-4.97-4.97-2.746 0-4.97 2.224-4.97 4.97 0 0.758 0.167 1.471 0.466 2.116l-1.864 1.864c-0.882 0.876-0.882 0.885 0 1.767 0.876 0.876 0.885 0.876 1.767 0l1.709-1.709c0.82 0.584 1.812 0.932 2.893 0.932 2.748 0 4.97-2.224 4.97-4.97zm-2.485-0.078c0.021 0.672-0.232 1.325-0.7 1.808s-1.113 0.755-1.785 0.755c-1.372 0-2.484-1.113-2.484-2.485s1.112-2.485 2.484-2.485c1.342-1e-3 2.443 1.065 2.485 2.407z" fill="#88c0d0" fill-rule="evenodd"/>
</svg>
