<svg viewBox="0 0 32 32" xmlns="http://www.w3.org/2000/svg">
 <path d="m10 5-5 6h10v-6zm7 0v6h10l-5-6zm-12 8v14h13.193c-0.497-2.123 0.069-4.454 1.711-6.096 1.261-1.261 2.928-1.891 4.596-1.891 0.852 0 1.703 0.167 2.5 0.496v-6.51" fill="#4c566a"/>
 <g transform="matrix(.225 0 0 .225 19.1 20.1)" fill="#bf616a">
  <path transform="matrix(4.4444 0 0 4.4444 -84.889 -89.333)" d="m24.5 21c-1.152 0-2.303 0.439-3.182 1.318-1.758 1.757-1.758 4.606 0 6.363 1.757 1.758 4.606 1.758 6.363 0 1.758-1.757 1.758-4.606 0-6.363-0.878-0.879-2.03-1.318-3.182-1.318zm0 1.35c0.592 0 1.181 0.169 1.697 0.5l-4.348 4.348c-0.783-1.219-0.643-2.858 0.424-3.924 0.615-0.615 1.42-0.924 2.227-0.924zm2.65 1.453c0.783 1.219 0.643 2.858-0.424 3.924-1.066 1.067-2.705 1.206-3.924 0.424l4.348-4.348z"/>
 </g>
</svg>
