<svg viewBox="0 0 32 32" xmlns="http://www.w3.org/2000/svg">
 <g fill-rule="evenodd">
  <path d="m9.332 8e-3h13.336c3.332 0 3.332-0.332 3.332 3.332v13.328c0 3.332 0 3.332-3.332 3.332h-13.336c-3.332 0-3.332 0-3.332-3.332v-13.328c0-3.332 0-3.332 3.332-3.332z" fill="#7b88a1" fill-opacity=".941"/>
  <path d="m3.1992 8h25.602c3.1992 0 3.1992 0 3.1992 3.1992v9.6016c0 3.1992 0 3.1992-3.1992 3.1992h-25.602c-3.1992 0-3.1992 0-3.1992-3.1992v-9.6016c0-3.1992 0-3.1992 3.1992-3.1992z" fill="#a6aebf"/>
 </g>
 <path d="m6 16h20v16h-20z" fill="#bf616a"/>
 <rect x="14" y="18" width="4" height="8" fill="#eceff4"/>
 <path d="m10 24h12l-6 6z" fill="#eceff4"/>
</svg>
