<?xml version="1.0" encoding="UTF-8" standalone="no"?>
<svg
   version="1.1"
   viewBox="0 0 24 24"
   id="svg20"
   sodipodi:docname="state-sync.svg"
   xmlns:inkscape="http://www.inkscape.org/namespaces/inkscape"
   xmlns:sodipodi="http://sodipodi.sourceforge.net/DTD/sodipodi-0.dtd"
   xmlns="http://www.w3.org/2000/svg"
   xmlns:svg="http://www.w3.org/2000/svg">
  <sodipodi:namedview
     id="namedview22"
     pagecolor="#ffffff"
     bordercolor="#666666"
     borderopacity="1.0"
     inkscape:pageshadow="2"
     inkscape:pageopacity="0.0"
     inkscape:pagecheckerboard="0" />
  <defs
     id="defs8">
    <style
       id="current-color-scheme"
       type="text/css">.ColorScheme-Text { 
    color:#eceff4ff;
}</style>
    <linearGradient
       id="linearGradient4160-4"
       x1="2"
       x2="46.54"
       y1="1028.4"
       y2="1031.1"
       gradientTransform="matrix(.27273 0 0 .27273 -21.787 -269.42)"
       gradientUnits="userSpaceOnUse">
      <stop
         stop-color="#5e81ac"
         offset="0"
         id="stop3" />
      <stop
         stop-color="#88c0d0"
         offset="1"
         id="stop5" />
    </linearGradient>
  </defs>
  <g
     transform="translate(0,-2.5)"
     id="g18">
    <path
       class="ColorScheme-Text"
       d="m12.017 6.0001c-2.2914 0-4.2336 1.5534-4.8355 3.6582-0.52315-1.1164-1.6568-1.8985-2.9626-1.8985-1.7958 0-3.272 1.4762-3.272 3.272 0 1.7958 1.4762 3.2727 3.272 3.2727 1.3058 0 2.4395-0.7826 2.9626-1.8992 0.60194 2.1049 2.5441 3.6588 4.8355 3.6588 2.2745 0 4.2067-1.5305 4.8241-3.6117 0.53282 1.0912 1.6525 1.852 2.9397 1.852 1.7958 0 3.2727-1.4769 3.2727-3.2727 0-1.7958-1.4769-3.272-3.2727-3.272-1.2873 0-2.4069 0.76029-2.9397 1.8513-0.61734-2.081-2.5496-3.611-4.8241-3.611zm0 1.9207c1.7298 0 3.1116 1.3812 3.1116 3.1109 0 1.7297-1.3818 3.1116-3.1116 3.1116s-3.1109-1.3818-3.1109-3.1116c0-1.7298 1.3812-3.1109 3.1109-3.1109zm-7.7982 1.7597c0.75785 0 1.3519 0.5934 1.3519 1.3513 0 0.75784-0.59408 1.3519-1.3519 1.3519-0.75785 0-1.3513-0.59408-1.3513-1.3519 0-0.75785 0.59341-1.3513 1.3513-1.3513zm15.562 0c0.75785 0 1.3519 0.5934 1.3519 1.3513 0 0.75784-0.59408 1.3519-1.3519 1.3519-0.75784 0-1.3513-0.59408-1.3513-1.3519 0-0.75785 0.59341-1.3513 1.3513-1.3513z"
       color-rendering="auto"
       fill="currentColor"
       image-rendering="auto"
       shape-rendering="auto"
       stroke="#2e3440"
       stroke-width=".3"
       id="path10" />
    <g
       transform="translate(5.0536 2.4999)"
       id="g16">
      <circle
         transform="matrix(-.064329 -.99793 .99793 -.064329 0 0)"
         cx="-15.242"
         cy="11.042"
         r="6"
         fill="url(#linearGradient4160-4)"
         id="circle12" />
      <path
         d="m12.008 10.326c0.87828 0.0019 1.7689 0.27565 2.4645 0.81745 0.48904 0.56338-0.4428 1.1667-0.86248 0.6174-1.2634-0.76447-3.0452-0.4953-3.9958 0.64761-0.50574 0.56717-0.79067 1.324-0.78733 2.0838h0.83492l-1.3359 2.0038-1.3359-2.0038h0.83492c-0.026653-1.814 1.2781-3.5398 3.0298-4.0096 0.37572-0.10308 0.76299-0.16088 1.1532-0.15671zm3.6653 2.1708 1.3359 2.0038h-0.83492c0.02367 1.8358-1.3144 3.5809-3.0967 4.0259-1.2027 0.33586-2.5626 0.09078-3.551-0.6776-0.50433-0.57279 0.44045-1.1703 0.86405-0.61595 1.2241 0.74266 2.9383 0.50712 3.9046-0.55362 0.5594-0.57642 0.88117-1.3754 0.87699-2.1788h-0.83492l1.3359-2.0038z"
         enable-background="new"
         fill="#fff"
         fill-opacity=".85887"
         stroke-width="1.3174"
         id="path14" />
    </g>
  </g>
</svg>
