<?xml version="1.0" encoding="UTF-8" standalone="no"?>
<svg
   version="1.1"
   viewBox="0 0 24 24"
   id="svg18"
   sodipodi:docname="state-offline.svg"
   xmlns:inkscape="http://www.inkscape.org/namespaces/inkscape"
   xmlns:sodipodi="http://sodipodi.sourceforge.net/DTD/sodipodi-0.dtd"
   xmlns="http://www.w3.org/2000/svg"
   xmlns:svg="http://www.w3.org/2000/svg">
  <sodipodi:namedview
     id="namedview20"
     pagecolor="#ffffff"
     bordercolor="#666666"
     borderopacity="1.0"
     inkscape:pageshadow="2"
     inkscape:pageopacity="0.0"
     inkscape:pagecheckerboard="0" />
  <g
     transform="translate(-2e-4,-2.5)"
     id="g4">
    <path
       class="ColorScheme-Text"
       d="m12.017 6.0001c-2.2914 0-4.2336 1.5534-4.8355 3.6582-0.52315-1.1164-1.6568-1.8985-2.9626-1.8985-1.7958 0-3.272 1.4762-3.272 3.272s1.4762 3.2727 3.272 3.2727c1.3058 0 2.4395-0.7826 2.9626-1.8992 0.60194 2.1049 2.5441 3.6588 4.8355 3.6588 2.2745 0 4.2067-1.5305 4.8241-3.6117 0.53282 1.0912 1.6525 1.852 2.9397 1.852 1.7958 0 3.2727-1.4769 3.2727-3.2727s-1.4769-3.272-3.2727-3.272c-1.2873 0-2.4069 0.76029-2.9397 1.8513-0.61734-2.081-2.5496-3.611-4.8241-3.611zm0 1.9207c1.7298 0 3.1116 1.3812 3.1116 3.1109s-1.3818 3.1116-3.1116 3.1116-3.1109-1.3818-3.1109-3.1116 1.3812-3.1109 3.1109-3.1109zm-7.7982 1.7597c0.75785 0 1.3519 0.5934 1.3519 1.3513 0 0.75784-0.59408 1.3519-1.3519 1.3519-0.75785 0-1.3513-0.59408-1.3513-1.3519 0-0.75785 0.59341-1.3513 1.3513-1.3513zm15.562 0c0.75785 0 1.3519 0.5934 1.3519 1.3513 0 0.75784-0.59408 1.3519-1.3519 1.3519-0.75784 0-1.3513-0.59408-1.3513-1.3519 0-0.75785 0.59341-1.3513 1.3513-1.3513z"
       color="#000000"
       color-rendering="auto"
       fill="currentColor"
       image-rendering="auto"
       shape-rendering="auto"
       stroke="#2e3440"
       stroke-width=".3"
       id="path2" />
  </g>
  <circle
     transform="rotate(-93.69)"
     cx="-15.568"
     cy="16.085"
     r="6"
     fill="url(#linearGradient4160-4)"
     id="circle6" />
  <path
     d="m17.053 9.5003c2.757 0 5 2.243 5 5s-2.2429 5-5 5c-2.757 0-4.9999-2.243-4.9999-5s2.2429-5 4.9999-5zm0 1.6901c-0.6065 0-1.1753 0.1642-1.6647 0.4501l4.5245 4.5245c0.28597-0.4894 0.4501-1.0582 0.4501-1.6647 0-1.8251-1.4848-3.3099-3.3099-3.3099zm0 6.6198c0.60652 0 1.1753-0.1642 1.6647-0.4501l-4.5245-4.5245c-0.28594 0.4894-0.45007 1.0582-0.45007 1.6647 0 1.8251 1.4848 3.3099 3.3099 3.3099z"
     fill="#eceff4"
     fill-opacity=".85882"
     id="path8" />
  <defs
     id="defs16">
    <style
       id="current-color-scheme"
       type="text/css">.ColorScheme-Text {
        color:#eceff4ff
      }</style>
    <linearGradient
       id="linearGradient4160-4"
       x1="2"
       x2="46.54"
       y1="1028.4"
       y2="1031.1"
       gradientTransform="matrix(.27273 0 0 .27273 -22.113 -264.38)"
       gradientUnits="userSpaceOnUse">
      <stop
         stop-color="#a0a0a0"
         offset="0"
         id="stop11" />
      <stop
         stop-color="#aaa"
         offset="1"
         id="stop13" />
    </linearGradient>
  </defs>
</svg>
