<svg viewBox="0 0 32 32" xmlns="http://www.w3.org/2000/svg">
 <g transform="translate(0,-96)">
  <path transform="translate(0,96)" d="m17.217 6.5c-0.823 2e-3 -1.738 0.067-2.742 0.197-1.133 0.147-2.391 0.371-3.775 0.672-1.238 0.285-2.413 0.599-3.525 0.941-1.091 0.334-2.129 0.71-3.115 1.125-1.972 0.815-2.99 1.483-3.053 2-0.063 0.538 0.409 0.843 1.416 0.916 0.525 0.041 1.154 0.017 1.889-0.074 0.252-0.024 1.566-0.196 1.566-0.236 0-0.049-1e-3 -1e-3 -0.951-0.363-0.339-0.129-0.404-0.121-0.596-0.209-0.102-0.046-0.233-0.069-0.291-0.166-0.028-0.047-0.069-0.101-6e-3 -0.166 0.48-0.497 3.482-1.495 4.145-1.688 1.112-0.326 1.155-0.324 2.477-0.625 2.623-0.57 4.03-0.923 5.482-0.891 1.532 0.049 1.959 0.041 1.959 0.717-0.047 0.335-0.203 0.489-0.361 0.701-0.902 1.108-3.218 2.418-8.316 5.676-0.042 0.041-0.085 0.077-0.127 0.109-0.021 0.024-0.031 0.05-0.031 0.074 0 0.09 2.645 0.621 2.918 0.621 0.294 0 0.556-0.065 0.787-0.195 0.315-0.204 0.756-0.456 1.322-0.758 0.587-0.301 0.903-0.491 1.764-0.914 1.028-0.505 2.058-0.978 3.086-1.418s2.076-0.859 3.146-1.258c2.644-0.953 2.93-1.019 4.105-1.27 0.586-0.125 0.638-0.135 0.953-0.135 0.483 0 0.649 8e-3 0.723 0.258 0.043 0.146-0.07 0.247-0.225 0.365l0.816 0.816c0.754-0.519 1.693-0.86 2.248-1.6 0.057-0.076 0.087-0.175 0.094-0.27 8e-3 -0.112-7e-3 -0.234-0.063-0.33-0.111-0.192-0.312-0.322-0.504-0.43-0.203-0.114-0.434-0.177-0.662-0.217-0.248-0.044-0.46-0.05-0.754-0.025-1.846 0.114-4.47 0.818-7.869 2.113-1.259 0.472-2.412 0.929-3.461 1.369-1.028 0.44-1.972 0.871-2.832 1.295-0.189 0.13-0.357 0.195-0.504 0.195-0.084 0-0.127-0.018-0.127-0.049 0-0.057 0.074-0.131 0.221-0.221 1.678-1.091 2.989-2.01 3.934-2.76 0.965-0.758 1.595-1.357 1.889-1.797 0.105-0.187 0.158-0.375 0.158-0.563 0-0.432-0.242-0.776-0.725-1.037-0.525-0.318-1.249-0.486-2.172-0.502-0.102-2e-3 -0.205-2e-3 -0.311-2e-3zm10.05 4.408c-0.6 0.389-2.275 1.48-3.285 2.244-0.478 0.362-0.933 0.754-1.379 1.156-0.256 0.23-0.497 0.479-0.744 0.719l0.645 0.645 4.764-4.764zm-10.215 9.461c-5e-3 7e-3 -0.014 0.018-0.02 0.025-0.238 0.354-0.372 0.598-0.404 0.734-1.121 0.555-3.351 1.497-5.721 4.371 3.998-1.847 4.122-2.141 6.293-3.143 0.345 0.314 0.344 0.312 0.346 0.313 0.34 0.258 0.761 0.262 1.156 0.26 0.295-2e-3 0.554-0.042 0.811-0.096-0.813-0.815-1.633-1.636-2.461-2.465z" fill="#5e81ac" fill-rule="evenodd"/>
  <path d="m22.5 114.5 5.25-5.25 2.25 2.25-7.5 7.5c-1.538-1.538-2.962-2.971-4.5-4.509l2.25-2.241" fill="#a3be8c"/>
 </g>
</svg>
