<svg width="32" height="32" version="1.1" viewBox="0 0 32 32" xmlns="http://www.w3.org/2000/svg">
 <g id="surface1">
  <path d="m22.8125 12.59375c-1.441406-0.257812-2.878906-0.90625-4.199219-1.726562-1.203125-0.75-2.320312-1.527344-3.226562-2.40625-1.546875-1.246094-3.039063-2.304688-5.191407-2.144532-1.988281 0.144532-3.371093 1.417969-4.304687 3.132813-1.375 2.519531-1.796875 5.96875-1.742187 8.367187 0.042968 1.980469 0.363281 4.039063 0.941406 6.167969 0.550781 2.015625 1.324218 4.09375 2.304687 6.230469 2.273438-0.273438 4.300781-0.65625 6.109375-1.148438 1.90625-0.519531 3.574219-1.148437 5.039063-1.878906 1.785156-0.890625 4.390625-2.742188 6.242187-4.902344 1.304688-1.523437 2.21875-3.183594 2.148438-4.710937-0.015625-0.355469-0.082032-0.695313-0.183594-1.03125-0.105469-0.347657-0.253906-0.683594-0.453125-1.023438-0.976563-1.679687-2.152344-2.382812-3.484375-2.925781zm-9.5625 0.191406c-0.179688 0.308594-0.535156 0.570313-1.300781 0.871094-0.042969-0.914062-0.027344-1.234375 0.152343-1.546875 0.175782-0.308594 0.53125-0.515625 0.914063-0.296875 0.378906 0.21875 0.414063 0.664062 0.234375 0.972656zm-3.3125-1.910156c-0.175781 0.308594-0.53125 0.566406-1.300781 0.871094-0.042969-0.914063-0.023438-1.234375 0.152343-1.546875 0.175782-0.308594 0.53125-0.519531 0.914063-0.296875 0.378906 0.21875 0.414063 0.660156 0.234375 0.972656zm2.328125 15.949219c-0.175781 0.308593-0.535156 0.570312-1.300781 0.875-0.042969-0.917969-0.027344-1.238281 0.152344-1.550781 0.175781-0.308594 0.53125-0.515626 0.914062-0.296876 0.378906 0.222657 0.414062 0.664063 0.234375 0.972657zm7.316406-5.671875c0.378907 0.21875 0.410157 0.660156 0.234375 0.96875-0.179687 0.308594-0.535156 0.570312-1.300781 0.875-0.046875-0.914063-0.027344-1.238282 0.148437-1.550782 0.179688-0.308593 0.535157-0.515624 0.917969-0.292968zm-10.566406 3.53125c-0.179687 0.308594-0.535156 0.570312-1.300781 0.875-0.042969-0.914063-0.027344-1.238282 0.152344-1.550782 0.175781-0.308593 0.53125-0.515624 0.914062-0.296874 0.378906 0.222656 0.414062 0.664062 0.234375 0.972656zm0.136719-4.203125c-0.179688 0.308593-0.535156 0.570312-1.300782 0.875-0.042968-0.914063-0.027343-1.238281 0.152344-1.546875 0.175782-0.308594 0.53125-0.519532 0.914063-0.296875 0.378906 0.21875 0.414062 0.664062 0.234375 0.96875zm6.824218 3.941406c-0.175781 0.308594-0.53125 0.570313-1.296874 0.875-0.046876-0.914063-0.027344-1.238281 0.148437-1.550781 0.179687-0.304688 0.535156-0.515625 0.914063-0.292969 0.382812 0.21875 0.414062 0.660156 0.234374 0.96875zm7.726563-5.597656c-0.175781 0.304687-0.53125 0.566406-1.296875 0.871093-0.046875-0.914062-0.027344-1.238281 0.148438-1.546874 0.179687-0.308594 0.535156-0.519532 0.914062-0.296876 0.382812 0.21875 0.414062 0.660157 0.234375 0.972657zm-11 3.277343c-0.179687 0.308594-0.535156 0.566407-1.300781 0.871094-0.046875-0.910156-0.027344-1.234375 0.152344-1.546875 0.175781-0.308593 0.53125-0.515625 0.914062-0.296875 0.378906 0.21875 0.414062 0.660156 0.234375 0.972656zm4.019531-2.097656c-0.179687 0.308594-0.535156 0.566406-1.300781 0.871094-0.042969-0.914062-0.027344-1.234375 0.152344-1.546875 0.175781-0.308594 0.535156-0.515625 0.914062-0.296875 0.378907 0.21875 0.410157 0.664062 0.234375 0.972656zm3.359375-4.109375c0.382813 0.21875 0.414063 0.664063 0.234375 0.972657-0.175781 0.308593-0.53125 0.566406-1.296875 0.871093-0.046875-0.914062-0.027343-1.234375 0.148438-1.546875 0.179687-0.3125 0.535156-0.515625 0.914062-0.296875zm-7.222656 1.878907c-0.175781 0.308593-0.535156 0.570312-1.300781 0.875-0.042969-0.917969-0.027344-1.238282 0.152344-1.550782 0.175781-0.308594 0.53125-0.515625 0.914062-0.296875 0.378906 0.222657 0.414062 0.664063 0.234375 0.972657zm3.953125-3.765626c0.378906 0.21875 0.410156 0.660157 0.234375 0.96875-0.179687 0.308594-0.535156 0.570313-1.300781 0.875-0.042969-0.914062-0.027344-1.238281 0.152344-1.550781 0.175781-0.308593 0.535156-0.515625 0.914062-0.292969zm-7.316406 1.824219c-0.175782 0.308594-0.53125 0.570313-1.300782 0.871094-0.042968-0.914063-0.027343-1.238281 0.148438-1.546875 0.179688-0.308594 0.535156-0.515625 0.917969-0.296875 0.378906 0.21875 0.414062 0.664063 0.234375 0.972656z" style="fill:rgb(81.960785%,21.568628%,17.647059%)"/>
  <path d="m13.910156 7.808594c0.535156 0.382812 1.054688 0.804687 1.585938 1.238281 0.933594 0.753906 1.90625 1.542969 3.019531 2.175781 1.070313 0.601563 2.046875 1.132813 3.03125 1.492188 0.71875 0.257812 1.472656 0.355468 2.125 0.667968 0.121094 0 0.242187 0.003907 0.363281-0.003906 1.371094-0.0625 2.6875-0.605468 3.820313-1.867187-0.691407-0.515625-1.371094-0.875-2.027344-1.09375-0.808594-0.273438-1.589844-0.332031-2.335937-0.214844-0.265626 0.039063-0.507813-0.136719-0.550782-0.398437-0.023437-0.183594 0.050782-0.355469 0.191406-0.457032 0.859376-0.640625 1.621094-1.371094 2.160157-2.160156l0.003906-0.003906c0.378906-0.558594 0.644531-1.148438 0.746094-1.75-0.679688-0.222656-1.386719-0.203125-2.085938 0.011718-0.917969 0.28125-1.828125 0.886719-2.660156 1.722657-0.183594 0.1875-0.488281 0.1875-0.675781 0-0.105469-0.105469-0.15625-0.246094-0.140625-0.386719 0.121093-1.238281 0.105469-2.464844-0.167969-3.445312-0.179688-0.65625-0.480469-1.199219-0.925781-1.550782-0.640625 0.410156-1.078125 0.933594-1.347657 1.542969-0.339843 0.757813-0.421874 1.664063-0.304687 2.644531 0.035156 0.261719-0.15625 0.5-0.417969 0.535156-0.191406 0.023438-0.371094-0.074218-0.464844-0.230468-0.601562-0.925782-1.25-1.707032-1.949218-2.320313-0.554688-0.484375-1.144532-0.863281-1.769532-1.113281-0.511718 2.015625-0.15625 3.582031 0.726563 4.890625 0.019531 0.023437 0.035156 0.046875 0.050781 0.074219z" style="fill:rgb(29.411766%,62.7451%,25.882354%)"/>
 </g>
</svg>
