<svg width="32" height="32" version="1.1" viewBox="0 0 32 32" xmlns="http://www.w3.org/2000/svg">
 <g fill="#7b88a1" stroke="#7b88a1">
  <path transform="matrix(.21118 .12193 -.12193 .21118 12.983 -1.9171)" d="m9.6886 34.392c4.144-2.818 8.1743-3.9427 12.25-4.1874-3.6336-3.0257-6.3412-7.3629-7.7879-13.649-0.016019-0.027745-0.018165-0.063499-0.012302-0.085381-0.20254-0.86339 0.32817-1.7062 1.1777-1.9007 3.1558-0.74922 6.4581-0.73216 9.8785-0.061945 1.8594 0.36921 3.7375 0.93107 5.684 1.6754-0.7845-1.7112-1.2771-3.4614-1.4698-5.2368-0.3319-3.1378 0.31544-6.3416 2.2228-9.4774 0.28802-0.46224 0.78528-0.78634 1.3675-0.77105 3.1352-0.015972 5.9235 1.4816 8.3642 3.8828 1.9437 1.8928 3.6415 4.3529 5.1478 7.0901 1.0787-2.7129 2.5364-5.0898 4.2883-6.9891 2.4145-2.5778 5.435-4.2662 9.0215-4.6538 0.6809-0.13417 1.3758 0.20447 1.6946 0.85276 1.3612 2.71 1.7902 5.7917 1.5522 8.9996-0.16741 2.1128-0.6107 4.2924-1.2707 6.4491 1.3484-0.61201 2.7987-1.0794 4.351-1.4023 3.0272-0.6195 6.4624-0.66065 10.326-0.024202l0.057636 0.003716c0.86884 0.12726 1.4705 0.94516 1.3433 1.814-0.87322 6.0162-3.4088 10.403-6.9673 13.53 3.2661 0.37089 6.7101 1.4344 10.62 3.69 1.494 0.85763 2.8455 1.853 4.0525 2.9503 1.223 1.1251 2.2736 2.3682 3.1439 3.7154 3.6596 5.7297 3.9135 13.666 2.4001 21.809-2.0105 10.742-7.1305 21.929-11.348 28.304-3.4142 5.1712-7.6866 10.394-12.958 15.712-5.2516 5.2887-11.477 10.621-18.86 16.031-0.74854 0.56165-1.7401 0.54223-2.4735 0.040836-7.6475-5.3325-14.464-10.923-20.355-16.77-5.9074-5.8747-10.87-12.036-14.789-18.503-4.8098-7.9142-10.047-20.317-10.328-31.567-0.2125-8.4413 2.3038-16.257 9.6746-21.271zm5.3929 21.931c1.9934-2.5382 2.6958-4.109 2.6974-5.5157s-0.97432-2.8409-2.697-2.8451c-1.7365 0.003772-2.5349 1.4081-2.5366 2.8148 0.0122 1.3987 0.58945 2.5267 2.5362 5.546zm39.17 49.615c2.0015-2.5243 2.7096-4.117 2.7054-5.5018 0.001673-1.4067-0.97432-2.8409-2.697-2.8451-1.7365 0.003772-2.5211 1.4001-2.5308 2.7929-0.001673 1.4067 0.57558 2.5347 2.5223 5.554zm-15.226-0.90169c2.0015-2.5243 2.6958-4.109 2.6974-5.5157-0.00419-1.3848-0.9882-2.8329-2.7028-2.8232-1.7226-0.004237-2.5291 1.3862-2.5308 2.7929 0.012199 1.3987 0.57558 2.5347 2.5362 5.546zm-7.7839-14.539c2.0015-2.5243 2.7096-4.117 2.7054-5.5018 0.001673-1.4067-0.97432-2.8409-2.697-2.8451-1.7365 0.003772-2.5349 1.4081-2.5308 2.7929 0.0122 1.3987 0.57558 2.5347 2.5223 5.554zm30.91 0.003195c2.0153-2.5323 2.7096-4.117 2.7054-5.5018 0.001673-1.4067-0.98233-2.8547-2.697-2.8451-1.7226-0.004237-2.5211 1.4001-2.5308 2.7929 0.0122 1.3987 0.57558 2.5347 2.5223 5.554zm-15.669-1.4779c2.0015-2.5243 2.6958-4.109 2.7054-5.5018-0.0122-1.3987-0.9882-2.8329-2.7108-2.8371-1.7226-0.004238-2.5211 1.4001-2.5308 2.7929 0.0122 1.3987 0.58359 2.5486 2.5362 5.546zm24.2-13.861c1.9934-2.5382 2.6958-4.109 2.6974-5.5157 0.009683-1.3928-0.9882-2.8329-2.697-2.8451-1.7365 0.003772-2.5349 1.4081-2.5366 2.8148 0.012199 1.3987 0.58945 2.5267 2.5362 5.546zm-14.658-1.1367c2.0015-2.5243 2.6958-4.109 2.7054-5.5018-0.0122-1.3987-0.9962-2.8467-2.7108-2.8371-1.7226-0.004237-2.5291 1.3862-2.5308 2.7929-0.001673 1.4067 0.57558 2.5347 2.5362 5.546zm-17.496 0.002541c2.0015-2.5243 2.6958-4.109 2.7054-5.5018 0.001673-1.4067-0.98233-2.8547-2.697-2.8451-1.7365 0.003772-2.5349 1.4081-2.5446 2.8009 0.0122 1.3987 0.58945 2.5267 2.5362 5.546zm-15.222 0.002329c1.9934-2.5382 2.6958-4.109 2.6974-5.5157-0.004191-1.3848-0.9882-2.8329-2.7108-2.8371-1.7226-0.004237-2.5211 1.4001-2.5227 2.8068-0.009682 1.3928 0.57558 2.5347 2.5362 5.546zm54.111-17.702c1.9934-2.5382 2.7096-4.117 2.6974-5.5157 0.001673-1.4067-0.97432-2.8409-2.697-2.8451-1.7365 0.003772-2.5349 1.4081-2.5227 2.8068s0.57558 2.5347 2.5223 5.554zm-15.337-0.005105c2.0015-2.5243 2.6958-4.109 2.6974-5.5157 0.009682-1.3928-0.97432-2.8409-2.697-2.8451-1.7365 0.003772-2.5349 1.4081-2.5366 2.8148 0.0122 1.3987 0.58945 2.5267 2.5362 5.546zm-14.812 0.006463c1.9934-2.5382 2.7096-4.117 2.6974-5.5157 0.001673-1.4067-0.97432-2.8409-2.697-2.8451s-2.5349 1.4081-2.5227 2.8068c0.012199 1.3987 0.56757 2.5208 2.5223 5.554zm-17.202-7.57e-4c2.0073-2.5462 2.7096-4.117 2.6974-5.5157 0.001673-1.4067-0.97432-2.8409-2.697-2.8451-1.7226-0.004238-2.5211 1.4001-2.5227 2.8068-0.009682 1.3928 0.57558 2.5347 2.5223 5.554zm-1.9238-25.95c2.1806 0.22075 4.3836 0.57651 6.6225 0.93012 3.9487 0.62415 8.0565 1.2675 12.31 1.2346 4.0809-0.044032 7.786-0.1301 11.209-0.73746 2.4995-0.44429 4.8238-1.4163 7.2311-1.6039 0.34681-0.20024 0.69362-0.40047 1.0324-0.61458 3.8495-2.463 6.7316-6.2172 7.9071-11.742-2.8546-0.331-5.4034-0.22823-7.6584 0.22292-2.7791 0.56872-5.1306 1.6859-7.0806 3.2742-0.69891 0.5515-1.6889 0.43869-2.2462-0.23834-0.37372-0.48711-0.45397-1.1067-0.21987-1.6303 1.404-3.2707 2.4003-6.6389 2.6266-9.8031l0.013873-0.008009c0.15882-2.2558-0.05534-4.3888-0.7652-6.291-2.3244 0.49119-4.3317 1.7241-5.9966 3.5177-2.1712 2.3264-3.7701 5.5801-4.7844 9.3657-0.22866 0.85339-1.1026 1.358-1.956 1.1293-0.4814-0.12899-0.8524-0.45119-1.0431-0.87752-1.7116-3.7655-3.7876-7.265-6.2123-9.6385-1.6106-1.6042-3.3677-2.6613-5.2425-2.9291-1.1642 2.2444-1.5536 4.4854-1.3213 6.6818 0.29442 2.7525 1.5563 5.4828 3.5232 8.1206 0.52962 0.69305 0.37519 1.707-0.32587 2.2228-0.51485 0.38974-1.1883 0.40864-1.7221 0.12491-3.258-1.6703-6.4363-2.8503-9.4789-3.4427-2.3963-0.46616-4.7215-0.58494-6.9275-0.27309 1.8636 6.6557 5.5012 10.585 10.21 12.879 0.11742 0.043187 0.19908 0.088522 0.29462 0.12585zm35.018 4.364c-4.987 1.8065-10.701 2.3863-16.346 2.187-5.1269-0.16588-10.06-0.57305-14.506-1.7056-7.1279-1.1007-13.747-1.7368-20.22 2.6851-5.9783 4.062-8.0057 10.578-7.839 17.659 0.26705 10.426 5.1906 22.029 9.7142 29.48 3.7269 6.1348 8.48 12.029 14.158 17.666 5.3805 5.3465 11.581 10.479 18.559 15.421 6.6477-4.9849 12.318-9.8682 17.109-14.706 5.0697-5.0912 9.1681-10.102 12.444-15.064 3.9946-6.0242 8.8154-16.576 10.711-26.716 1.335-7.1707 1.2089-14.053-1.7843-18.724-0.69624-1.0778-1.5152-2.0477-2.4568-2.9098-0.95767-0.88982-2.0461-1.6857-3.2732-2.4014-6.1233-3.4934-11.095-3.5825-16.269-2.87z" fill="#7b88a1" stroke="#7b88a1" stroke-width="2.7915"/>
 </g>
</svg>
