
<svg xmlns="http://www.w3.org/2000/svg" xmlns:xlink="http://www.w3.org/1999/xlink" width="32" height="32" viewBox="0 0 32 32" version="1.1">
<g id="surface1">
<path style=" stroke:none;fill-rule:nonzero;fill:rgb(81.960785%,21.568628%,17.647059%);fill-opacity:1;" d="M 22.8125 12.59375 C 21.371094 12.335938 19.933594 11.6875 18.613281 10.867188 C 17.410156 10.117188 16.292969 9.339844 15.386719 8.460938 C 13.839844 7.214844 12.347656 6.15625 10.195312 6.316406 C 8.207031 6.460938 6.824219 7.734375 5.890625 9.449219 C 4.515625 11.96875 4.09375 15.417969 4.148438 17.816406 C 4.191406 19.796875 4.511719 21.855469 5.089844 23.984375 C 5.640625 26 6.414062 28.078125 7.394531 30.214844 C 9.667969 29.941406 11.695312 29.558594 13.503906 29.066406 C 15.410156 28.546875 17.078125 27.917969 18.542969 27.1875 C 20.328125 26.296875 22.933594 24.445312 24.785156 22.285156 C 26.089844 20.761719 27.003906 19.101562 26.933594 17.574219 C 26.917969 17.21875 26.851562 16.878906 26.75 16.542969 C 26.644531 16.195312 26.496094 15.859375 26.296875 15.519531 C 25.320312 13.839844 24.144531 13.136719 22.8125 12.59375 Z M 13.25 12.785156 C 13.070312 13.09375 12.714844 13.355469 11.949219 13.65625 C 11.90625 12.742188 11.921875 12.421875 12.101562 12.109375 C 12.277344 11.800781 12.632812 11.59375 13.015625 11.8125 C 13.394531 12.03125 13.429688 12.476562 13.25 12.785156 Z M 9.9375 10.875 C 9.761719 11.183594 9.40625 11.441406 8.636719 11.746094 C 8.59375 10.832031 8.613281 10.511719 8.789062 10.199219 C 8.964844 9.890625 9.320312 9.679688 9.703125 9.902344 C 10.082031 10.121094 10.117188 10.5625 9.9375 10.875 Z M 12.265625 26.824219 C 12.089844 27.132812 11.730469 27.394531 10.964844 27.699219 C 10.921875 26.78125 10.9375 26.460938 11.117188 26.148438 C 11.292969 25.839844 11.648438 25.632812 12.03125 25.851562 C 12.410156 26.074219 12.445312 26.515625 12.265625 26.824219 Z M 19.582031 21.152344 C 19.960938 21.371094 19.992188 21.8125 19.816406 22.121094 C 19.636719 22.429688 19.28125 22.691406 18.515625 22.996094 C 18.46875 22.082031 18.488281 21.757812 18.664062 21.445312 C 18.84375 21.136719 19.199219 20.929688 19.582031 21.152344 Z M 9.015625 24.683594 C 8.835938 24.992188 8.480469 25.253906 7.714844 25.558594 C 7.671875 24.644531 7.6875 24.320312 7.867188 24.007812 C 8.042969 23.699219 8.398438 23.492188 8.78125 23.710938 C 9.160156 23.933594 9.195312 24.375 9.015625 24.683594 Z M 9.152344 20.480469 C 8.972656 20.789062 8.617188 21.050781 7.851562 21.355469 C 7.808594 20.441406 7.824219 20.117188 8.003906 19.808594 C 8.179688 19.5 8.535156 19.289062 8.917969 19.511719 C 9.296875 19.730469 9.332031 20.175781 9.152344 20.480469 Z M 15.976562 24.421875 C 15.800781 24.730469 15.445312 24.992188 14.679688 25.296875 C 14.632812 24.382812 14.652344 24.058594 14.828125 23.746094 C 15.007812 23.441406 15.363281 23.230469 15.742188 23.453125 C 16.125 23.671875 16.15625 24.113281 15.976562 24.421875 Z M 23.703125 18.824219 C 23.527344 19.128906 23.171875 19.390625 22.40625 19.695312 C 22.359375 18.78125 22.378906 18.457031 22.554688 18.148438 C 22.734375 17.839844 23.089844 17.628906 23.46875 17.851562 C 23.851562 18.070312 23.882812 18.511719 23.703125 18.824219 Z M 12.703125 22.101562 C 12.523438 22.410156 12.167969 22.667969 11.402344 22.972656 C 11.355469 22.0625 11.375 21.738281 11.554688 21.425781 C 11.730469 21.117188 12.085938 20.910156 12.46875 21.128906 C 12.847656 21.347656 12.882812 21.789062 12.703125 22.101562 Z M 16.722656 20.003906 C 16.542969 20.3125 16.1875 20.570312 15.421875 20.875 C 15.378906 19.960938 15.394531 19.640625 15.574219 19.328125 C 15.75 19.019531 16.109375 18.8125 16.488281 19.03125 C 16.867188 19.25 16.898438 19.695312 16.722656 20.003906 Z M 20.082031 15.894531 C 20.464844 16.113281 20.496094 16.558594 20.316406 16.867188 C 20.140625 17.175781 19.785156 17.433594 19.019531 17.738281 C 18.972656 16.824219 18.992188 16.503906 19.167969 16.191406 C 19.347656 15.878906 19.703125 15.675781 20.082031 15.894531 Z M 12.859375 17.773438 C 12.683594 18.082031 12.324219 18.34375 11.558594 18.648438 C 11.515625 17.730469 11.53125 17.410156 11.710938 17.097656 C 11.886719 16.789062 12.242188 16.582031 12.625 16.800781 C 13.003906 17.023438 13.039062 17.464844 12.859375 17.773438 Z M 16.8125 14.007812 C 17.191406 14.226562 17.222656 14.667969 17.046875 14.976562 C 16.867188 15.285156 16.511719 15.546875 15.746094 15.851562 C 15.703125 14.9375 15.71875 14.613281 15.898438 14.300781 C 16.074219 13.992188 16.433594 13.785156 16.8125 14.007812 Z M 9.496094 15.832031 C 9.320312 16.140625 8.964844 16.402344 8.195312 16.703125 C 8.152344 15.789062 8.167969 15.464844 8.34375 15.15625 C 8.523438 14.847656 8.878906 14.640625 9.261719 14.859375 C 9.640625 15.078125 9.675781 15.523438 9.496094 15.832031 Z M 9.496094 15.832031 "/>
<path style=" stroke:none;fill-rule:nonzero;fill:rgb(29.411766%,62.7451%,25.882354%);fill-opacity:1;" d="M 13.910156 7.808594 C 14.445312 8.191406 14.964844 8.613281 15.496094 9.046875 C 16.429688 9.800781 17.402344 10.589844 18.515625 11.222656 C 19.585938 11.824219 20.5625 12.355469 21.546875 12.714844 C 22.265625 12.972656 23.019531 13.070312 23.671875 13.382812 C 23.792969 13.382812 23.914062 13.386719 24.035156 13.378906 C 25.40625 13.316406 26.722656 12.773438 27.855469 11.511719 C 27.164062 10.996094 26.484375 10.636719 25.828125 10.417969 C 25.019531 10.144531 24.238281 10.085938 23.492188 10.203125 C 23.226562 10.242188 22.984375 10.066406 22.941406 9.804688 C 22.917969 9.621094 22.992188 9.449219 23.132812 9.347656 C 23.992188 8.707031 24.753906 7.976562 25.292969 7.1875 L 25.296875 7.183594 C 25.675781 6.625 25.941406 6.035156 26.042969 5.433594 C 25.363281 5.210938 24.65625 5.230469 23.957031 5.445312 C 23.039062 5.726562 22.128906 6.332031 21.296875 7.167969 C 21.113281 7.355469 20.808594 7.355469 20.621094 7.167969 C 20.515625 7.0625 20.464844 6.921875 20.480469 6.78125 C 20.601562 5.542969 20.585938 4.316406 20.3125 3.335938 C 20.132812 2.679688 19.832031 2.136719 19.386719 1.785156 C 18.746094 2.195312 18.308594 2.71875 18.039062 3.328125 C 17.699219 4.085938 17.617188 4.992188 17.734375 5.972656 C 17.769531 6.234375 17.578125 6.472656 17.316406 6.507812 C 17.125 6.53125 16.945312 6.433594 16.851562 6.277344 C 16.25 5.351562 15.601562 4.570312 14.902344 3.957031 C 14.347656 3.472656 13.757812 3.09375 13.132812 2.84375 C 12.621094 4.859375 12.976562 6.425781 13.859375 7.734375 C 13.878906 7.757812 13.894531 7.78125 13.910156 7.808594 Z M 13.910156 7.808594 "/>
</g>
</svg>
