
<svg xmlns="http://www.w3.org/2000/svg" xmlns:xlink="http://www.w3.org/1999/xlink" width="32" height="32" viewBox="0 0 32 32" version="1.1">
<g id="surface1">
<path style=" stroke:none;fill-rule:nonzero;fill:rgb(36.862746%,50.588238%,67.450982%);fill-opacity:1;" d="M 9.382812 26.945312 C 8.25 24.617188 7.984375 23.3125 7.984375 23.3125 C 7.984375 23.3125 9.578125 24.976562 11.210938 25.070312 L 9.375 22.40625 C 9.375 22.40625 5.03125 20.953125 3.859375 20.46875 C 4.398438 25.101562 9.382812 26.945312 9.382812 26.945312 Z M 9.382812 26.945312 "/>
<path style=" stroke:none;fill-rule:nonzero;fill:rgb(53.333336%,75.294119%,81.568629%);fill-opacity:1;" d="M 3.640625 21.210938 L 22.085938 27.25 L 27.234375 12.945312 L 5.132812 8.882812 C 2.453125 10.859375 3.640625 21.210938 3.640625 21.210938 Z M 3.640625 21.210938 "/>
<path style="fill:none;stroke-width:0.1688;stroke-linecap:butt;stroke-linejoin:miter;stroke:rgb(47.843137%,53.333336%,63.137257%);stroke-opacity:1;stroke-miterlimit:4;" d="M 1.444922 8.418375 L 8.765653 10.815209 L 10.622966 5.407605 L 4.468095 7.571887 L 1.851112 3.795245 C 0.790676 4.57972 1.444922 8.418375 1.444922 8.418375 Z M 1.444922 8.418375 " transform="matrix(2.5196,0,0,2.5196,0,0)"/>
<path style=" stroke:none;fill-rule:nonzero;fill:rgb(36.862746%,50.588238%,67.450982%);fill-opacity:1;" d="M 14.007812 2.40625 C 12.648438 2.476562 11.140625 3.273438 9.953125 4.59375 C 5.554688 6.5625 3.507812 9.617188 2.671875 12.476562 C 0.820312 18.835938 4.5625 25.445312 9.382812 26.945312 C 3.742188 24.171875 3.601562 18.875 3.695312 16.109375 C 4.257812 16.953125 5.375 17.054688 5.375 17.054688 C 5.25 16.859375 5.140625 16.671875 5.039062 16.484375 C 4.664062 15.554688 4.382812 13.90625 4.84375 12.414062 C 5.132812 11.476562 6.078125 10.15625 7.351562 9.742188 C 7.445312 10.4375 7.671875 11.070312 7.515625 11.804688 C 6.671875 13.273438 7.554688 14.257812 7.554688 14.257812 C 8.726562 12.96875 9.015625 13.1875 10.101562 12.5625 C 11.34375 11.851562 12.460938 11.078125 12.875 11.132812 C 14.539062 10.890625 15.328125 11.320312 17.148438 11.648438 C 18.3125 11.859375 19.5625 12.015625 20.539062 12.132812 C 20.953125 13.0625 21.164062 14.023438 21.242188 14.921875 C 21.242188 14.921875 21.515625 17.898438 20.609375 19.640625 C 21.328125 19.234375 21.898438 18.773438 22.34375 18.320312 C 22.4375 20.796875 20.632812 22.820312 20.632812 22.820312 C 21.320312 22.609375 21.882812 22.375 22.359375 22.140625 C 22.0625 23.765625 20.882812 27.132812 16.210938 29.359375 C 20.070312 28.867188 21.640625 27 21.640625 27 C 21.640625 27 21.289062 28.289062 18.953125 29.59375 C 27.148438 28.101562 29.335938 20.578125 29.335938 20.578125 C 29.335938 20.570312 29.328125 20.570312 29.328125 20.5625 C 30.484375 16.9375 29.382812 12.484375 27.945312 10.007812 C 27.09375 8.523438 25.820312 7.265625 25.03125 6.5625 C 24.90625 6.445312 24.78125 6.34375 24.65625 6.234375 C 24.4375 6.054688 24.296875 5.945312 24.296875 5.945312 L 24.289062 5.960938 C 24.171875 5.875 24.0625 5.796875 23.9375 5.71875 C 22.632812 4.820312 21.15625 4.265625 20.382812 4.09375 C 17.453125 3.007812 15.398438 3.210938 14.0625 3.34375 C 14.0625 3.34375 14.125 3.210938 14.335938 3.03125 C 14.34375 3.023438 14.351562 3.015625 14.359375 3.007812 C 14.367188 3.007812 14.367188 3 14.367188 3 C 14.390625 2.984375 14.414062 2.96875 14.4375 2.953125 C 14.460938 2.929688 14.46875 2.921875 14.46875 2.921875 C 13.898438 2.890625 12.976562 3.515625 12.742188 3.640625 C 12.75 3.632812 12.75 3.625 12.75 3.617188 C 12.757812 3.617188 12.757812 3.609375 12.757812 3.609375 C 12.765625 3.585938 12.773438 3.5625 12.789062 3.539062 C 12.796875 3.523438 12.804688 3.507812 12.8125 3.484375 C 12.828125 3.46875 12.835938 3.453125 12.851562 3.4375 C 12.851562 3.429688 12.851562 3.429688 12.859375 3.429688 C 12.875 3.40625 12.890625 3.375 12.90625 3.359375 C 12.90625 3.351562 12.914062 3.351562 12.914062 3.351562 C 12.914062 3.34375 12.914062 3.34375 12.921875 3.335938 L 12.929688 3.328125 C 13.226562 2.953125 13.789062 2.554688 13.953125 2.4375 L 13.960938 2.4375 C 13.984375 2.414062 14.007812 2.40625 14.007812 2.40625 Z M 14.007812 2.40625 "/>
</g>
</svg>
