<svg width="32px" height="32px" version="1.1" viewBox="0 0 32 32" xmlns="http://www.w3.org/2000/svg">
 <path d="m9.3867 26.945c-1.1406-2.3281-1.4023-3.6328-1.4023-3.6328s1.5977 1.6641 3.2305 1.7578l-1.8398-2.6602s-4.3438-1.457-5.5195-1.9414c0.54297 4.6328 5.5312 6.4766 5.5312 6.4766z" fill="#5e81ac"/>
 <path d="m3.6367 21.215 18.453 6.0391 5.1445-14.309-22.102-4.0586c-2.6758 1.9727-1.4961 12.328-1.4961 12.328z" fill="#eceff4"/>
 <path transform="scale(2.5197)" d="m1.4433 8.4196 7.3236 2.3968 1.8557-5.409-6.1547 2.1642-2.6169-3.775c-1.0604 0.78445-0.40773 4.623-0.40773 4.623z" fill="none" stroke="#7a88a1" stroke-width=".1688"/>
 <path d="m14.004 2.4062c-1.3516 0.074219-2.8633 0.86719-4.0469 2.1875-4.4062 1.9727-6.4492 5.0234-7.2852 7.8828-1.8555 6.3555 1.8906 12.973 6.7148 14.469-5.6445-2.7773-5.7812-8.0664-5.6875-10.84 0.55469 0.84766 1.6758 0.94922 1.6758 0.94922-0.125-0.19141-0.23828-0.38281-0.33984-0.57031-0.375-0.92969-0.65234-2.5742-0.1875-4.0703 0.28906-0.93359 1.2344-2.2617 2.5078-2.6719 0.085937 0.69531 0.31641 1.3242 0.16016 2.0664-0.84766 1.4648 0.039063 2.4453 0.039063 2.4453 1.168-1.2852 1.4609-1.0664 2.5469-1.6914 1.2461-0.71484 2.3555-1.4883 2.7734-1.4297 1.668-0.24219 2.4531 0.1875 4.2773 0.51953 1.1562 0.20703 2.4141 0.35938 3.3906 0.48047 0.41016 0.92969 0.62109 1.8945 0.69922 2.7852 0 0 0.27344 2.9766-0.63281 4.7227 0.71484-0.40625 1.2852-0.86328 1.7383-1.3164 0.085938 2.4727-1.7109 4.4922-1.7109 4.4922 0.67969-0.20703 1.25-0.4375 1.7227-0.67188-0.29688 1.625-1.4727 4.9883-6.1445 7.2188 3.8555-0.49219 5.4258-2.3594 5.4258-2.3594s-0.34766 1.2891-2.6875 2.5898c8.1953-1.4961 10.383-9.0156 10.383-9.0156-0.003907-0.007813-0.003907-0.011719-0.007813-0.015625 1.1562-3.6211 0.054687-8.0781-1.3789-10.551-0.85156-1.4883-2.125-2.7461-2.9219-3.4531-0.11719-0.10938-0.24219-0.21875-0.37109-0.32031-0.22266-0.1875-0.35938-0.28906-0.35938-0.28906l-0.007813 0.011719c-0.11328-0.082032-0.23047-0.16406-0.34766-0.24609-1.3086-0.89453-2.7891-1.4531-3.5547-1.6211-2.9336-1.0859-4.9922-0.88672-6.3281-0.74609 0 0 0.066406-0.13672 0.28125-0.32031 0.007812-0.003906 0.015625-0.011719 0.023437-0.019532 0 0 0.003907-0.003906 0.007813-0.007812 0.019531-0.015625 0.042968-0.035156 0.066406-0.050781 0.019531-0.015625 0.03125-0.027344 0.03125-0.027344-0.57031-0.027344-1.4961 0.59766-1.7227 0.71875 0.003906-0.007813 0.003906-0.015625 0.007812-0.023437 0-0.003907 0-0.003907 0.003906-0.007813 0.007813-0.023437 0.019532-0.046875 0.03125-0.070313 0.007813-0.015624 0.015626-0.035156 0.027344-0.050781 0.011719-0.019531 0.023438-0.035156 0.035156-0.054687 0 0 0.003907-0.003906 0.003907-0.007813 0.015625-0.023437 0.03125-0.046875 0.050781-0.070312 0-0.003907 0.003906-0.003907 0.007812-0.007813 0-0.003906 0.003907-0.007812 0.003907-0.007812 0.003906-0.003906 0.007812-0.007813 0.007812-0.011719 0.30469-0.375 0.86328-0.77344 1.0312-0.89062 0.03125-0.019531 0.046875-0.03125 0.046875-0.03125z" fill="#5e81ac"/>
</svg>
