
<svg xmlns="http://www.w3.org/2000/svg" xmlns:xlink="http://www.w3.org/1999/xlink" width="32px" height="32px" viewBox="0 0 32 32" version="1.1">
<g id="surface1">
<path style=" stroke:none;fill-rule:nonzero;fill:rgb(36.862746%,50.588238%,67.450982%);fill-opacity:1;" d="M 9.386719 26.945312 C 8.246094 24.617188 7.984375 23.3125 7.984375 23.3125 C 7.984375 23.3125 9.582031 24.976562 11.214844 25.070312 L 9.375 22.410156 C 9.375 22.410156 5.03125 20.953125 3.855469 20.46875 C 4.398438 25.101562 9.386719 26.945312 9.386719 26.945312 Z M 9.386719 26.945312 "/>
<path style=" stroke:none;fill-rule:nonzero;fill:rgb(92.54902%,93.725491%,95.686275%);fill-opacity:1;" d="M 3.636719 21.214844 L 22.089844 27.253906 L 27.234375 12.945312 L 5.132812 8.886719 C 2.457031 10.859375 3.636719 21.214844 3.636719 21.214844 Z M 3.636719 21.214844 "/>
<path style="fill:none;stroke-width:0.1688;stroke-linecap:butt;stroke-linejoin:miter;stroke:rgb(48.235294%,53.333336%,63.137257%);stroke-opacity:1;stroke-miterlimit:4;" d="M 1.443323 8.419641 L 8.766907 10.816394 L 10.622607 5.407422 L 4.467944 7.571631 L 1.85105 3.796667 C 0.790649 4.581116 1.443323 8.419641 1.443323 8.419641 Z M 1.443323 8.419641 " transform="matrix(2.519685,0,0,2.519685,0,0)"/>
<path style=" stroke:none;fill-rule:nonzero;fill:rgb(36.862746%,50.588238%,67.450982%);fill-opacity:1;" d="M 14.003906 2.40625 C 12.652344 2.480469 11.140625 3.273438 9.957031 4.59375 C 5.550781 6.566406 3.507812 9.617188 2.671875 12.476562 C 0.816406 18.832031 4.5625 25.449219 9.386719 26.945312 C 3.742188 24.167969 3.605469 18.878906 3.699219 16.105469 C 4.253906 16.953125 5.375 17.054688 5.375 17.054688 C 5.25 16.863281 5.136719 16.671875 5.035156 16.484375 C 4.660156 15.554688 4.382812 13.910156 4.847656 12.414062 C 5.136719 11.480469 6.082031 10.152344 7.355469 9.742188 C 7.441406 10.4375 7.671875 11.066406 7.515625 11.808594 C 6.667969 13.273438 7.554688 14.253906 7.554688 14.253906 C 8.722656 12.96875 9.015625 13.1875 10.101562 12.5625 C 11.347656 11.847656 12.457031 11.074219 12.875 11.132812 C 14.542969 10.890625 15.328125 11.320312 17.152344 11.652344 C 18.308594 11.859375 19.566406 12.011719 20.542969 12.132812 C 20.953125 13.0625 21.164062 14.027344 21.242188 14.917969 C 21.242188 14.917969 21.515625 17.894531 20.609375 19.640625 C 21.324219 19.234375 21.894531 18.777344 22.347656 18.324219 C 22.433594 20.796875 20.636719 22.816406 20.636719 22.816406 C 21.316406 22.609375 21.886719 22.378906 22.359375 22.144531 C 22.0625 23.769531 20.886719 27.132812 16.214844 29.363281 C 20.070312 28.871094 21.640625 27.003906 21.640625 27.003906 C 21.640625 27.003906 21.292969 28.292969 18.953125 29.59375 C 27.148438 28.097656 29.335938 20.578125 29.335938 20.578125 C 29.332031 20.570312 29.332031 20.566406 29.328125 20.5625 C 30.484375 16.941406 29.382812 12.484375 27.949219 10.011719 C 27.097656 8.523438 25.824219 7.265625 25.027344 6.558594 C 24.910156 6.449219 24.785156 6.339844 24.65625 6.238281 C 24.433594 6.050781 24.296875 5.949219 24.296875 5.949219 L 24.289062 5.960938 C 24.175781 5.878906 24.058594 5.796875 23.941406 5.714844 C 22.632812 4.820312 21.152344 4.261719 20.386719 4.09375 C 17.453125 3.007812 15.394531 3.207031 14.058594 3.347656 C 14.058594 3.347656 14.125 3.210938 14.339844 3.027344 C 14.347656 3.023438 14.355469 3.015625 14.363281 3.007812 C 14.363281 3.007812 14.367188 3.003906 14.371094 3 C 14.390625 2.984375 14.414062 2.964844 14.4375 2.949219 C 14.457031 2.933594 14.46875 2.921875 14.46875 2.921875 C 13.898438 2.894531 12.972656 3.519531 12.746094 3.640625 C 12.75 3.632812 12.75 3.625 12.753906 3.617188 C 12.753906 3.613281 12.753906 3.613281 12.757812 3.609375 C 12.765625 3.585938 12.777344 3.5625 12.789062 3.539062 C 12.796875 3.523438 12.804688 3.503906 12.816406 3.488281 C 12.828125 3.46875 12.839844 3.453125 12.851562 3.433594 C 12.851562 3.433594 12.855469 3.429688 12.855469 3.425781 C 12.871094 3.402344 12.886719 3.378906 12.90625 3.355469 C 12.90625 3.351562 12.910156 3.351562 12.914062 3.347656 C 12.914062 3.34375 12.917969 3.339844 12.917969 3.339844 C 12.921875 3.335938 12.925781 3.332031 12.925781 3.328125 C 13.230469 2.953125 13.789062 2.554688 13.957031 2.4375 C 13.988281 2.417969 14.003906 2.40625 14.003906 2.40625 Z M 14.003906 2.40625 "/>
</g>
</svg>
