<svg width="32" height="32" version="1.1" viewBox="0 0 32 32" xmlns="http://www.w3.org/2000/svg">
 <g id="surface1">
  <path d="m9.382812 26.945312c-1.132812-2.328124-1.398437-3.632812-1.398437-3.632812s1.59375 1.664062 3.226563 1.757812l-1.835938-2.664062s-4.34375-1.453125-5.515625-1.9375c0.539063 4.632812 5.523437 6.476562 5.523437 6.476562z" style="fill:rgb(36.862746%,50.588238%,67.450982%)"/>
  <path d="m3.640625 21.210938 18.445313 6.039062 5.148437-14.304688-22.101563-4.0625c-2.679687 1.976563-1.492187 12.328126-1.492187 12.328126z" style="fill:rgb(53.333336%,75.294119%,81.568629%)"/>
  <path transform="scale(2.5196)" d="m1.444922 8.418375 7.320731 2.396834 1.857313-5.407604-6.154871 2.164282-2.616983-3.776642c-1.060436 0.784475-0.40619 4.62313-0.40619 4.62313z" style="fill:none;stroke-width:.1688;stroke:rgb(47.843137%,53.333336%,63.137257%)"/>
  <path d="m14.007812 2.40625c-1.359374 0.070312-2.867187 0.867188-4.054687 2.1875-4.398437 1.96875-6.445313 5.023438-7.28125 7.882812-1.851563 6.359376 1.890625 12.96875 6.710937 14.46875-5.640624-2.773437-5.78125-8.070312-5.6875-10.835937 0.5625 0.84375 1.679688 0.945313 1.679688 0.945313-0.125-0.195313-0.234375-0.382813-0.335938-0.570313-0.375-0.929687-0.65625-2.578125-0.195312-4.070313 0.289062-0.9375 1.234375-2.257812 2.507812-2.671874 0.09375 0.695312 0.320313 1.328124 0.164063 2.0625-0.84375 1.46875 0.039063 2.453124 0.039063 2.453124 1.171874-1.289062 1.460937-1.070312 2.546874-1.695312 1.242188-0.710938 2.359376-1.484375 2.773438-1.429688 1.664062-0.242187 2.453125 0.1875 4.273438 0.515626 1.164062 0.210937 2.414062 0.367187 3.390624 0.484374 0.414063 0.929688 0.625 1.890626 0.703126 2.789063 0 0 0.273437 2.976563-0.632813 4.71875 0.71875-0.40625 1.289063-0.867187 1.734375-1.320313 0.09375 2.476563-1.710938 4.5-1.710938 4.5 0.6875-0.210937 1.25-0.445312 1.726563-0.679687-0.296875 1.625-1.476563 4.992187-6.148437 7.21875 3.859374-0.492187 5.429687-2.359375 5.429687-2.359375s-0.351563 1.289062-2.6875 2.59375c8.195313-1.492188 10.382813-9.015625 10.382813-9.015625 0-0.007813-0.007813-0.007813-0.007813-0.015625 1.15625-3.625 0.054687-8.078125-1.382813-10.554688-0.851562-1.484374-2.125-2.742187-2.914062-3.445312-0.125-0.117188-0.25-0.21875-0.375-0.328125-0.21875-0.179687-0.359375-0.289063-0.359375-0.289063l-0.007813 0.015626c-0.117187-0.085938-0.226562-0.164063-0.351562-0.242188-1.304688-0.898438-2.78125-1.453125-3.554688-1.625-2.929687-1.085938-4.984374-0.882812-6.320312-0.75 0 0 0.0625-0.132812 0.273438-0.3125 0.007812-0.007812 0.015624-0.015625 0.023437-0.023438 0.007813 0 0.007813-0.007812 0.007813-0.007812 0.023437-0.015625 0.046874-0.03125 0.070312-0.046875 0.023438-0.023437 0.03125-0.03125 0.03125-0.03125-0.570312-0.03125-1.492188 0.59375-1.726562 0.71875 0.007812-0.007813 0.007812-0.015625 0.007812-0.023437 0.007812 0 0.007812-0.007813 0.007812-0.007813 0.007813-0.023437 0.015626-0.046875 0.03125-0.070313 0.007813-0.015624 0.015626-0.03125 0.023438-0.054687 0.015625-0.015625 0.023438-0.03125 0.039062-0.046875 0-0.007812 0-0.007812 0.007813-0.007812 0.015625-0.023438 0.03125-0.054688 0.046875-0.070313 0-0.007813 0.007812-0.007813 0.007812-0.007813 0-0.007812 0-0.007812 0.007813-0.015624l0.007813-0.007813c0.296874-0.375 0.859374-0.773437 1.023437-0.890625h0.007813c0.023437-0.023438 0.046874-0.03125 0.046874-0.03125z" style="fill:rgb(36.862746%,50.588238%,67.450982%)"/>
 </g>
</svg>
