<svg width="32" height="32" viewBox="0 0 24 24" xmlns="http://www.w3.org/2000/svg">
 <path d="m5.102 20.938c-0.973-0.281 0.02-2.164 0.617-2.781 0.289 0.813 0.352 3.059-0.617 2.781" fill="#eceff4"/>
 <path d="m6.922 18.17c-0.969-0.277 0.023-2.164 0.621-2.781 0.285 0.816 0.352 3.059-0.621 2.781" fill="#eceff4"/>
 <path d="m4.313 16.832c-0.973-0.277 0.023-2.164 0.617-2.781 0.289 0.816 0.352 3.059-0.617 2.781" fill="#eceff4"/>
 <path d="m13.609 21.766c-0.969-0.277 0.023-2.164 0.621-2.781 0.285 0.816 0.352 3.063-0.621 2.781" fill="#eceff4"/>
 <path d="m8.953 15.15c1.711 0.086 2.496-0.184 3.703-0.813l-2.039 2.844 2.383 0.316-3.746 4.379 1.488-3.523-1.914 0.406" fill="#ebcb8b"/>
 <path d="m15.703 14.461c1.711 0.086 2.496-0.18 3.703-0.813l-2.039 2.844 2.383 0.316-3.746 4.379 1.488-3.52-1.914 0.406" fill="#ebcb8b"/>
 <path d="m13.707 16.953c-0.973-0.281 0.023-2.164 0.621-2.781 0.285 0.813 0.352 3.059-0.621 2.781" fill="#eceff4"/>
 <path d="m8.738 5c-0.176 0-0.363 8e-3 -0.551 0.031-3.03 0.391-2.938 2.988-2.938 2.988-1.242 0.211-2.25 1.293-2.25 2.426s1.293 2.137 2.379 2.426c0.645 0.176 1.492 0 1.492 0 0.383 0.676 1.648 1.129 2.527 1.129 1.438 0 2.918-0.477 3.258-1.129 0 0 5.953 0.477 7.191 0 1.797-0.691 1.238-2.859 0.039-3.594-1.195-0.73-2.762-0.219-2.762-0.219s-8e-3 -1.492-1.699-2.207c-1.691-0.711-3.121 0.867-3.121 0.867s-0.949-2.703-3.566-2.719" fill="#eceff4"/>
</svg>
