<svg width="32" height="32" viewBox="0 0 24 24" xmlns="http://www.w3.org/2000/svg">
 <path d="m19.5 12c0 4.141-3.359 7.5-7.5 7.5s-7.5-3.359-7.5-7.5 3.359-7.5 7.5-7.5 7.5 3.359 7.5 7.5z" fill="#ebcb8b"/>
 <g fill="#ebcb8b">
  <path d="m12 1.5 0.75 2.25h-1.5z"/>
  <path d="m12 22.5-0.75-2.25h1.5z"/>
 </g>
 <g transform="matrix(0 1 -1 0 24 -5e-7)" fill="#ebcb8b">
  <path d="m12 1.5 0.75 2.25h-1.5z"/>
  <path d="m12 22.5-0.75-2.25h1.5z"/>
 </g>
 <g transform="matrix(-.70711 .70711 -.70711 -.70711 28.971 12)" fill="#ebcb8b">
  <path d="m12 1.5 0.75 2.25h-1.5z"/>
  <path d="m12 22.5-0.75-2.25h1.5z"/>
 </g>
 <g transform="matrix(.70711 .70711 -.70711 .70711 12 -4.9706)" fill="#ebcb8b">
  <path d="m12 1.5 0.75 2.25h-1.5z"/>
  <path d="m12 22.5-0.75-2.25h1.5z"/>
 </g>
 <path d="m11.602 12.5c-0.156 0-0.32 8e-3 -0.492 0.027-2.691 0.348-2.609 2.66-2.609 2.66-1.102 0.188-2 1.148-2 2.156 0 1 1.148 1.895 2.113 2.156 0.574 0.152 1.328 0 1.328 0 0.34 0.598 1.465 1 2.25 1 1.277 0 2.59-0.426 2.895-1 0 0 5.293 0.422 6.391 0 1.598-0.617 1.098-2.543 0.035-3.195s-2.453-0.195-2.453-0.195-8e-3 -1.328-1.512-1.961c-1.508-0.633-2.773 0.77-2.773 0.77s-0.844-2.402-3.172-2.418z" fill="#eceff4"/>
</svg>
