<svg width="32" height="32" viewBox="0 0 24 24" xmlns="http://www.w3.org/2000/svg">
 <g fill="#eceff4">
  <path d="m8.738 5c-0.176 0-0.363 8e-3 -0.551 0.031-3.03 0.391-2.938 2.992-2.938 2.992-1.242 0.211-2.25 1.289-2.25 2.422s1.293 2.137 2.379 2.43c0.645 0.172 1.492 0 1.492 0 0.383 0.672 1.648 1.125 2.527 1.125 1.438 0 2.918-0.477 3.258-1.125 0 0 5.953 0.477 7.191 0 1.801-0.695 1.238-2.863 0.043-3.594-1.199-0.734-2.766-0.223-2.766-0.223s-8e-3 -1.492-1.699-2.207c-1.691-0.711-3.121 0.867-3.121 0.867s-0.945-2.703-3.566-2.719"/>
  <path d="m6.148 13.645c-0.891 0.441-3.043 2.055-2.586 2.66 0.457 0.609 2.156-1.727 2.586-2.66m13.602 0.289c-0.891 0.441-3.051 2.051-2.594 2.656s2.16-1.723 2.594-2.656m-3.434 0.137c-0.895 0.441-3.051 2.059-2.594 2.664s2.16-1.727 2.594-2.664m-3.09 0.445c-0.898 0.441-3.055 2.059-2.594 2.664 0.453 0.609 2.156-1.727 2.594-2.664m-3.652 0.41c-0.895 0.438-3.051 2.055-2.594 2.66 0.457 0.609 2.16-1.727 2.594-2.66m-3.316 2.02c-0.895 0.438-3.055 2.055-2.594 2.66 0.453 0.609 2.156-1.727 2.594-2.66m9.898 0.27c-0.898 0.441-3.055 2.059-2.594 2.664 0.453 0.605 2.156-1.727 2.594-2.664m-3.547 0.75c-0.891 0.438-3.051 2.055-2.594 2.66s2.16-1.73 2.594-2.66m5.328 0.539c-0.891 0.438-3.047 2.055-2.594 2.664 0.457 0.602 2.16-1.73 2.594-2.664m-8.777 0.238c-0.895 0.441-3.051 2.059-2.594 2.66 0.457 0.609 2.16-1.727 2.594-2.66"/>
 </g>
</svg>
