<svg width="32" height="32" viewBox="0 0 24 24" xmlns="http://www.w3.org/2000/svg">
 <path d="m7.102 6c-0.156 0-0.32 8e-3 -0.492 0.031-2.691 0.344-2.609 2.656-2.609 2.656-1.102 0.188-2 1.148-2 2.156 0 1 1.148 1.895 2.113 2.156 0.574 0.152 1.328 0 1.328 0 0.34 0.602 1.465 1 2.246 1 1.281 0 2.594-0.422 2.898-1 0 0 5.289 0.422 6.391 0 1.602-0.617 1.102-2.547 0.035-3.195-1.066-0.652-2.457-0.195-2.457-0.195s-4e-3 -1.328-1.508-1.961c-1.508-0.633-2.773 0.77-2.773 0.77s-0.844-2.402-3.172-2.418" fill="#d7d7d7"/>
 <path d="m12.461 11c-0.133 0-0.281 8e-3 -0.426 0.023-2.355 0.305-2.285 2.328-2.285 2.328-0.965 0.164-1.75 1-1.75 1.883s1.01 1.664 1.852 1.891c0.5 0.133 1.156 0 1.156 0 0.301 0.523 1.285 0.875 1.969 0.875 1.121 0 2.27-0.371 2.535-0.875 0 0 4.629 0.367 5.59 0 1.402-0.539 0.965-2.227 0.031-2.797-0.93-0.57-2.148-0.172-2.148-0.172s0-1.16-1.32-1.715c-1.316-0.555-2.426 0.676-2.426 0.676s-0.738-2.105-2.777-2.117" fill="#eceff4"/>
</svg>
