<svg width="32" height="32" viewBox="0 0 24 24" xmlns="http://www.w3.org/2000/svg">
 <g fill="#eceff4">
  <path d="m8.738 5c-0.176 0-0.363 8e-3 -0.551 0.031-3.03 0.391-2.938 2.992-2.938 2.992-1.242 0.211-2.25 1.289-2.25 2.422s1.293 2.137 2.379 2.43c0.645 0.172 1.492 0 1.492 0 0.383 0.672 1.648 1.125 2.527 1.125 1.438 0 2.918-0.477 3.258-1.125 0 0 5.953 0.477 7.191 0 1.801-0.695 1.238-2.863 0.043-3.594-1.199-0.734-2.766-0.223-2.766-0.223s-8e-3 -1.492-1.699-2.207c-1.691-0.711-3.121 0.867-3.121 0.867s-0.945-2.703-3.566-2.719"/>
  <path d="m5.391 13.813c-0.047 0.012-0.078 0.059-0.078 0.109v0.336l-0.281-0.188c-0.117-0.078-0.227 0.105-0.109 0.184l0.391 0.262v0.609l-0.5-0.305-0.02-0.488c0-0.07-0.063-0.121-0.129-0.105-0.047 0.012-0.082 0.059-0.078 0.109l0.016 0.359-0.277-0.168c-0.121-0.105-0.254 0.117-0.105 0.184l0.281 0.168-0.305 0.168c-0.152 0.055-0.031 0.289 0.098 0.188l0.418-0.223 0.5 0.301-0.504 0.301-0.414-0.223c-0.129-0.102-0.25 0.133-0.098 0.188l0.301 0.164-0.277 0.168c-0.121 0.074-0.016 0.262 0.105 0.191l0.277-0.172-0.016 0.359c-4e-3 0.145 0.203 0.148 0.207 8e-3l0.02-0.492 0.5-0.305v0.609l-0.391 0.266c-0.117 0.078-8e-3 0.262 0.109 0.18l0.281-0.188v0.336c0 0.141 0.211 0.141 0.211 0v-0.336l0.285 0.188c0.117 0.082 0.23-0.102 0.113-0.18l-0.398-0.266v-0.613l0.5 0.309 0.016 0.492c8e-3 0.141 0.211 0.137 0.211-8e-3l-0.016-0.359 0.273 0.172c0.125 0.07 0.227-0.117 0.109-0.191l-0.277-0.168 0.297-0.164c0.152-0.055 0.035-0.289-0.098-0.188l-0.414 0.223-0.504-0.301 0.5-0.301 0.418 0.223c0.133 0.102 0.25-0.133 0.098-0.188l-0.301-0.168 0.281-0.168c0.145-0.066 0.016-0.289-0.109-0.184l-0.273 0.168 0.016-0.359c4e-3 -0.074-0.063-0.133-0.133-0.109-0.047 0.016-0.078 0.055-0.078 0.105l-0.016 0.488-0.5 0.305v-0.609l0.398-0.262c0.117-0.078 4e-3 -0.262-0.113-0.184l-0.285 0.188v-0.336c0-0.063-0.047-0.109-0.109-0.109h-0.023m13.172 0.273c-0.047 8e-3 -0.086 0.055-0.086 0.109v0.336l-0.281-0.188c-0.117-0.078-0.227 0.105-0.109 0.184l0.391 0.262v0.609l-0.5-0.305-0.016-0.488c0-0.07-0.063-0.121-0.133-0.105-0.047 0.012-0.078 0.059-0.078 0.109l0.016 0.359-0.273-0.168c-0.129-0.121-0.266 0.129-0.102 0.184l0.273 0.164-0.301 0.172c-0.152 0.055-0.035 0.289 0.098 0.188l0.418-0.223 0.5 0.301-0.5 0.301-0.418-0.223c-0.133-0.102-0.25 0.133-0.098 0.188l0.297 0.164-0.27 0.168c-0.133 0.066-0.023 0.27 0.102 0.191l0.273-0.172-0.016 0.359c-4e-3 0.145 0.203 0.148 0.211 8e-3l0.016-0.492 0.5-0.305v0.609l-0.391 0.266c-0.117 0.078-8e-3 0.258 0.109 0.18l0.281-0.188v0.336c0 0.141 0.211 0.141 0.211 0v-0.336l0.285 0.188c0.117 0.078 0.23-0.102 0.113-0.18l-0.398-0.266v-0.613l0.5 0.309 0.02 0.492c4e-3 0.141 0.211 0.137 0.207-8e-3l-0.016-0.359 0.277 0.172c0.121 0.07 0.227-0.117 0.105-0.191l-0.273-0.168 0.297-0.164c0.152-0.055 0.031-0.289-0.098-0.188l-0.414 0.223-0.5-0.301 0.5-0.301 0.414 0.223c0.129 0.102 0.25-0.133 0.098-0.188l-0.301-0.172 0.277-0.164c0.148-0.066 0.016-0.289-0.105-0.184l-0.277 0.168 0.016-0.359c4e-3 -0.07-0.063-0.125-0.125-0.109-0.047 8e-3 -0.082 0.055-0.082 0.105l-0.02 0.488-0.5 0.305v-0.609l0.398-0.262c0.117-0.078 4e-3 -0.262-0.113-0.184l-0.285 0.188v-0.336c0-0.059-0.047-0.109-0.102-0.109h-0.024m-4.895 0.379c-0.066 0.02-0.109 0.082-0.105 0.152v0.445l-0.383-0.258c-0.156-0.102-0.305 0.141-0.148 0.246l0.531 0.352v0.82l-0.672-0.41-0.023-0.664c-4e-3 -0.086-0.078-0.148-0.16-0.137-0.074 0.012-0.121 0.082-0.117 0.156l0.016 0.469-0.367-0.223c-0.16-0.098-0.301 0.16-0.137 0.258l0.367 0.219-0.398 0.219c-0.191 0.078-0.047 0.375 0.125 0.258l0.559-0.301 0.668 0.402-0.668 0.406-0.559-0.301c-0.172-0.121-0.316 0.176-0.125 0.254l0.398 0.219-0.367 0.223c-0.18 0.09-0.027 0.371 0.137 0.254l0.367-0.227-0.016 0.477c-0.02 0.203 0.281 0.219 0.277 8e-3l0.023-0.656 0.672-0.406v0.813l-0.531 0.352c-0.156 0.105-8e-3 0.352 0.148 0.246l0.383-0.254v0.449c-0.016 0.207 0.289 0.207 0.277 0v-0.449l0.383 0.254c0.152 0.105 0.301-0.141 0.148-0.246l-0.531-0.352v-0.813l0.676 0.406 0.02 0.656c-4e-3 0.211 0.297 0.195 0.277-8e-3l-0.016-0.477 0.367 0.227c0.164 0.117 0.32-0.164 0.137-0.254l-0.367-0.223 0.398-0.219c0.191-0.078 0.043-0.375-0.129-0.254l-0.551 0.301-0.676-0.402 0.676-0.406 0.551 0.301c0.172 0.117 0.32-0.18 0.129-0.258l-0.398-0.219 0.367-0.219c0.16-0.102 0.027-0.355-0.137-0.258l-0.367 0.223 0.016-0.469c8e-3 -0.094-0.07-0.168-0.16-0.156-0.066 0.012-0.113 0.07-0.117 0.137l-0.02 0.66-0.676 0.41v-0.816l0.531-0.352c0.152-0.105 4e-3 -0.348-0.152-0.246l-0.379 0.258v-0.445c4e-3 -0.09-0.07-0.164-0.152-0.152h-0.02m-4.793 2.902c-8e-3 0-0.012 0-0.016 4e-3 -0.063 0.016-0.109 0.074-0.109 0.145v0.453l-0.383-0.258c-0.152-0.102-0.305 0.141-0.148 0.246l0.531 0.348v0.816l-0.672-0.406-0.023-0.66c0-0.094-0.086-0.164-0.172-0.137-0.066 0.02-0.109 0.082-0.102 0.152l0.016 0.469-0.367-0.219c-0.164-0.121-0.32 0.156-0.141 0.25l0.367 0.223-0.398 0.215c-0.188 0.082-0.039 0.375 0.129 0.258l0.551-0.301 0.672 0.402-0.672 0.406-0.551-0.301c-0.168-0.117-0.316 0.176-0.129 0.254l0.398 0.219-0.367 0.227c-0.164 0.094-0.023 0.352 0.141 0.254l0.367-0.223-0.016 0.469c-0.023 0.203 0.273 0.219 0.273 0.016l0.023-0.656 0.672-0.406v0.813l-0.531 0.352c-0.156 0.102-4e-3 0.352 0.148 0.246l0.383-0.258v0.449c-0.012 0.203 0.293 0.203 0.281 0v-0.449l0.383 0.258c0.156 0.105 0.305-0.145 0.148-0.246l-0.531-0.352v-0.813l0.672 0.406 0.023 0.656c0 0.203 0.297 0.188 0.273-0.016l-0.016-0.469 0.367 0.223c0.164 0.098 0.305-0.16 0.141-0.254l-0.367-0.227 0.398-0.219c0.188-0.078 0.043-0.371-0.129-0.254l-0.551 0.301-0.676-0.406 0.676-0.402 0.551 0.301c0.172 0.117 0.316-0.176 0.129-0.258l-0.398-0.215 0.367-0.223c0.18-0.094 0.023-0.371-0.141-0.25l-0.367 0.219 0.016-0.469c8e-3 -0.086-0.055-0.156-0.133-0.156-0.078-8e-3 -0.141 0.063-0.141 0.141l-0.023 0.66-0.672 0.406v-0.816l0.531-0.348c0.156-0.105 8e-3 -0.355-0.148-0.246l-0.383 0.258v-0.453c0-0.09-0.07-0.16-0.156-0.148m8.242 1.133c-0.047 0.016-0.082 0.063-0.078 0.113v0.336l-0.289-0.191c-0.117-0.078-0.227 0.109-0.109 0.188l0.398 0.258v0.609l-0.5-0.301-0.023-0.496c0-0.07-0.066-0.121-0.133-0.102-0.047 0.016-0.078 0.063-0.07 0.113l0.016 0.355-0.277-0.164c-0.121-0.109-0.254 0.117-0.105 0.18l0.273 0.172-0.297 0.164c-0.156 0.055-0.031 0.293 0.094 0.188l0.418-0.227 0.504 0.305-0.504 0.305-0.418-0.227c-0.125-0.102-0.25 0.141-0.094 0.191l0.297 0.16-0.273 0.172c-0.121 0.07-0.016 0.262 0.105 0.188l0.277-0.168-0.016 0.355c-8e-3 0.148 0.203 0.152 0.203 8e-3l0.023-0.492 0.5-0.301v0.609l-0.398 0.262c-0.117 0.078-8e-3 0.262 0.109 0.184l0.289-0.191v0.336c0 0.148 0.207 0.148 0.207 0v-0.336l0.281 0.191c0.117 0.078 0.23-0.105 0.113-0.184l-0.395-0.262v-0.613l0.5 0.305 0.02 0.492c8e-3 0.145 0.211 0.141 0.211-8e-3l-0.016-0.355 0.273 0.168c0.125 0.078 0.23-0.121 0.102-0.188l-0.273-0.172 0.297-0.16c0.156-0.051 0.039-0.293-0.094-0.191l-0.422 0.227-0.496-0.305 0.496-0.297 0.422 0.219c0.133 0.105 0.25-0.133 0.094-0.188l-0.301-0.164 0.277-0.172c0.164-0.055 0.023-0.305-0.102-0.18l-0.273 0.164 0.016-0.355c0-0.074-0.066-0.133-0.133-0.113-0.047 0.016-0.078 0.055-0.078 0.102l-0.02 0.496-0.5 0.301v-0.609l0.395-0.258c0.117-0.078 4e-3 -0.266-0.113-0.188l-0.281 0.191v-0.336c4e-3 -0.059-0.047-0.113-0.105-0.113h-0.023"/>
 </g>
</svg>
