<svg width="32" height="32" viewBox="0 0 24 24" xmlns="http://www.w3.org/2000/svg">
 <path d="m8.738 6c-0.176 0-0.363 8e-3 -0.551 0.031-3.03 0.391-2.938 2.992-2.938 2.992-1.242 0.211-2.25 1.289-2.25 2.422s1.293 2.137 2.379 2.43c0.645 0.172 1.492 0 1.492 0 0.383 0.672 1.648 1.125 2.527 1.125 1.438 0 2.918-0.477 3.258-1.125 0 0 5.953 0.477 7.191 0 1.801-0.695 1.238-2.863 0.039-3.594-1.195-0.734-2.762-0.223-2.762-0.223s-8e-3 -1.492-1.699-2.207c-1.691-0.711-3.121 0.867-3.121 0.867s-0.949-2.703-3.566-2.719z" fill="#eceff4"/>
 <path d="m10.5 6 0.375 9h2.25l0.375-9zm0 10.5v3h3v-3z" fill="#bf616a"/>
</svg>
