<?xml version="1.0" encoding="UTF-8"?>
<svg xmlns="http://www.w3.org/2000/svg" xmlns:xlink="http://www.w3.org/1999/xlink" width="32" height="32" viewBox="0 0 32 32">
<path fill-rule="evenodd" fill="rgb(18.039216%, 20.392157%, 25.098041%)" fill-opacity="1" d="M 7.296875 1.988281 C 6.785156 1.988281 6.25 2.160156 5.859375 2.550781 L 3.046875 5.363281 C 2.261719 6.144531 2.261719 7.453125 3.046875 8.238281 L 4.796875 9.988281 L 16.171875 9.988281 L 8.734375 2.550781 C 8.34375 2.15625 7.808594 1.988281 7.296875 1.988281 Z M 25.671875 1.988281 C 25.148438 1.988281 24.625 2.160156 24.234375 2.550781 L 16.796875 9.988281 L 28.171875 9.988281 L 29.921875 8.238281 C 30.703125 7.453125 30.703125 6.144531 29.921875 5.363281 L 27.109375 2.550781 C 26.71875 2.160156 26.195312 1.988281 25.671875 1.988281 Z M 9.441406 11.003906 C 8.910156 11.027344 8.492188 11.457031 8.484375 11.988281 L 8.484375 18.988281 C 8.464844 20.339844 10.503906 20.339844 10.484375 18.988281 L 10.484375 15.988281 L 12.484375 15.988281 L 12.484375 18.988281 C 12.464844 20.339844 14.503906 20.339844 14.484375 18.988281 L 14.484375 14.988281 C 14.480469 14.433594 14.035156 13.988281 13.484375 13.988281 L 10.484375 13.988281 L 10.484375 11.988281 C 10.476562 11.425781 10.003906 10.980469 9.441406 11.003906 Z M 27.441406 11.003906 C 26.910156 11.027344 26.492188 11.457031 26.484375 11.988281 L 26.484375 13.988281 L 25.484375 13.988281 C 24.191406 14.027344 24.191406 15.945312 25.484375 15.988281 L 26.484375 15.988281 L 26.484375 18.988281 C 26.484375 19.539062 26.933594 19.988281 27.484375 19.988281 L 30.484375 19.988281 C 31.835938 20.007812 31.835938 17.96875 30.484375 17.988281 L 28.484375 17.988281 L 28.484375 15.988281 L 30.484375 15.988281 C 31.859375 16.03125 31.859375 13.945312 30.484375 13.988281 L 28.484375 13.988281 L 28.484375 11.988281 C 28.476562 11.425781 28.003906 10.980469 27.441406 11.003906 Z M 1.484375 13.988281 C 0.933594 13.988281 0.484375 14.433594 0.484375 14.988281 L 0.484375 18.988281 C 0.484375 19.539062 0.933594 19.988281 1.484375 19.988281 L 5.484375 19.988281 C 6.835938 20.007812 6.835938 17.96875 5.484375 17.988281 L 2.484375 17.988281 L 2.484375 15.988281 L 5.484375 15.988281 C 6.835938 16.007812 6.835938 13.96875 5.484375 13.988281 Z M 17.484375 13.988281 C 16.933594 13.988281 16.484375 14.433594 16.484375 14.988281 L 16.484375 18.988281 C 16.484375 19.539062 16.933594 19.988281 17.484375 19.988281 L 18.984375 19.988281 C 20.335938 20.007812 20.335938 17.96875 18.984375 17.988281 L 18.484375 17.988281 L 18.484375 15.988281 L 20.484375 15.988281 L 20.484375 18.988281 C 20.464844 20.339844 22.503906 20.339844 22.484375 18.988281 L 22.484375 14.988281 C 22.484375 14.433594 22.035156 13.988281 21.484375 13.988281 Z M 4.796875 21.988281 L 3.046875 23.738281 C 2.261719 24.519531 2.261719 25.828125 3.046875 26.613281 L 5.859375 29.425781 C 6.644531 30.207031 7.949219 30.207031 8.734375 29.425781 L 16.171875 21.988281 Z M 16.796875 21.988281 L 24.234375 29.425781 C 25.019531 30.207031 26.324219 30.207031 27.109375 29.425781 L 29.921875 26.613281 C 30.707031 25.828125 30.707031 24.519531 29.921875 23.738281 L 28.171875 21.988281 Z M 16.796875 21.988281 "/>
</svg>
