<svg width="32" height="32" viewBox="0 0 32 32" xmlns="http://www.w3.org/2000/svg">
 <path d="m7.296875 1.988281c-0.511719 0-1.046875 0.171875-1.4375 0.5625l-2.8125 2.8125c-0.785156 0.78125-0.785156 2.089844 0 2.875l1.75 1.75h11.375l-7.4375-7.4375c-0.390625-0.394531-0.925781-0.5625-1.4375-0.5625zm18.375 0c-0.523437 0-1.046875 0.171875-1.4375 0.5625l-7.4375 7.4375h11.375l1.75-1.75c0.78125-0.785156 0.78125-2.09375 0-2.875l-2.8125-2.8125c-0.390625-0.390625-0.914063-0.5625-1.4375-0.5625zm-16.230469 9.015625c-0.53125 0.023438-0.949218 0.453125-0.957031 0.984375v7c-0.019531 1.351563 2.019531 1.351563 2 0v-3h2v3c-0.019531 1.351563 2.019531 1.351563 2 0v-4c-0.003906-0.554687-0.449219-1-1-1h-3v-2c-0.007813-0.5625-0.480469-1.007812-1.042969-0.984375zm18 0c-0.53125 0.023438-0.949218 0.453125-0.957031 0.984375v2h-1c-1.292969 0.039063-1.292969 1.957031 0 2h1v3c0 0.550781 0.449219 1 1 1h3c1.351563 0.019531 1.351563-2.019531 0-2h-2v-2h2c1.375 0.042969 1.375-2.042969 0-2h-2v-2c-0.007813-0.5625-0.480469-1.007812-1.042969-0.984375zm-25.957031 2.984375c-0.550781 0-1 0.445313-1 1v4c0 0.550781 0.449219 1 1 1h4c1.351563 0.019531 1.351563-2.019531 0-2h-3v-2h3c1.351563 0.019531 1.351563-2.019531 0-2zm16 0c-0.550781 0-1 0.445313-1 1v4c0 0.550781 0.449219 1 1 1h1.5c1.351563 0.019531 1.351563-2.019531 0-2h-0.5v-2h2v3c-0.019531 1.351563 2.019531 1.351563 2 0v-4c0-0.554687-0.449219-1-1-1zm-12.6875 8-1.75 1.75c-0.785156 0.78125-0.785156 2.089844 0 2.875l2.8125 2.8125c0.785156 0.78125 2.089844 0.78125 2.875 0l7.4375-7.4375zm12 0 7.4375 7.4375c0.785156 0.78125 2.089844 0.78125 2.875 0l2.8125-2.8125c0.785156-0.785156 0.785156-2.09375 0-2.875l-1.75-1.75z" fill="rgb(18.039216%, 20.392157%, 25.098041%)" fill-rule="evenodd"/>
</svg>
