<svg width="16" height="16" version="1.1" viewBox="0 0 16 16" xmlns="http://www.w3.org/2000/svg">
 <g transform="translate(0,-32)">
  <path d="m8 32.25c-4.2802 1e-6 -7.75 3.4698-7.75 7.75 1e-6 4.2802 3.4698 7.75 7.75 7.75s7.75-3.4698 7.75-7.75-3.4698-7.75-7.75-7.75z" enable-background="new" fill="#b48ead" fill-rule="evenodd"/>
  <path d="m8.1333 36c-0.64815 0-1.2533 0.22738-1.6797 0.65364-0.42635 0.4264-0.65365 1.0316-0.65365 1.6797h1.3333c0-0.35187 0.10604-0.58004 0.26302-0.73698 0.15698-0.15693 0.38513-0.26302 0.73698-0.26302s0.58 0.10663 0.73698 0.26302c0.15698 0.15693 0.26302 0.38511 0.26302 0.73698 0 0.3056-0.06023 0.43688-0.14062 0.55208-0.08039 0.11467-0.21274 0.22204-0.40885 0.35938-0.19612 0.1372-0.45467 0.29485-0.69531 0.57552-0.24064 0.2808-0.42187 0.70756-0.42187 1.1797v0.33333h1.3333v-0.33333c0-0.1944 0.02708-0.22863 0.09896-0.3125 0.07185-0.084 0.22997-0.19456 0.45052-0.34896s0.50487-0.35991 0.73698-0.69271c0.23211-0.33267 0.38021-0.78477 0.38021-1.3125 0-0.64813-0.22729-1.2533-0.65365-1.6797-0.42635-0.42627-1.0315-0.65364-1.6797-0.65364zm-0.66667 6.6667v1.3333h1.3333v-1.3333h-1.3333z" fill="#fff"/>
 </g>
</svg>
