<svg width="16" height="16" enable-background="new" version="1.1" xmlns="http://www.w3.org/2000/svg">
 <title>Paper Symbolic Icon Theme</title>
 <g transform="translate(-305 -181)">
  <g transform="matrix(.11429 0 0 .11429 301.35 164.18)">
   <path d="m101.91 149.31a67.812 67.812 0 0 0-67.812 67.812 67.812 67.812 0 0 0 67.812 67.812 67.812 67.812 0 0 0 67.812-67.812 67.812 67.812 0 0 0-67.812-67.812zm-23.09 33.906c7.8709 7.4344 15.398 15.229 23.09 22.847 7.692-7.6179 15.219-15.412 23.09-22.847l10.816 10.816c-7.4347 7.8712-15.229 15.398-22.847 23.09 7.6179 7.692 15.412 15.219 22.847 23.09l-10.816 10.816c-7.8713-7.4347-15.398-15.229-23.09-22.847-7.692 7.6179-15.219 15.412-23.09 22.847l-10.816-10.816c7.4347-7.8713 15.229-15.398 22.847-23.09-7.6179-7.692-15.412-15.219-22.847-23.09l10.816-10.816z" fill="#bf616a" fill-rule="evenodd"/>
   <g fill="#fff">
    <path d="m78.823 183.21c7.8709 7.4344 15.398 15.229 23.09 22.847 7.692-7.6179 15.219-15.412 23.09-22.847l10.816 10.816c-7.4347 7.8712-15.229 15.398-22.847 23.09 7.6179 7.692 15.412 15.219 22.847 23.09l-10.816 10.816c-7.8713-7.4347-15.398-15.229-23.09-22.847-7.692 7.6179-15.219 15.412-23.09 22.847l-10.816-10.816c7.4347-7.8713 15.229-15.398 22.847-23.09-7.6179-7.692-15.412-15.219-22.847-23.09z" fill-rule="evenodd"/>
   </g>
  </g>
 </g>
</svg>
