<!-- Created with Inkscape (http://www.inkscape.org/) -->
<svg id="svg5" width="1920mm" height="1080mm" version="1.1" viewBox="0 0 1920 1080" xmlns="http://www.w3.org/2000/svg">
 <defs id="defs2">
  <meshgradient id="meshgradient2522" x="0" y="0" gradientUnits="userSpaceOnUse">
   <meshrow id="meshrow12195">
    <meshpatch id="meshpatch12197">
     <stop id="stop12199" style="stop-color:#88c0d0" path="c 535.839,-139.091  694.333,-55.4502  960,0"/>
     <stop id="stop12201" style="stop-color:#88c0d0" path="c 116.246,176.46  234.772,460.093  239.26,647.951"/>
     <stop id="stop12203" style="stop-color:#d8dee9" path="c -494.031,-64.6701  -721.62,-285.739  -1386.35,-37.8126"/>
     <stop id="stop12205" style="stop-color:#88c0d0" path="c 0.0392289,-180  90.7493,-172.197  187.091,-610.138"/>
    </meshpatch>
    <meshpatch id="meshpatch12207">
     <stop id="stop12209" path="c 320,0  284.354,-114.156  960,0"/>
     <stop id="stop12211" style="stop-color:#3b4252" path="c 81.5327,319.159  100.806,356.055  0,540"/>
     <stop id="stop12213" style="stop-color:#88c0d0" path="c -620.146,-53.9212  -353.767,217.735  -720.74,107.951"/>
    </meshpatch>
   </meshrow>
   <meshrow id="meshrow12215">
    <meshpatch id="meshpatch12217">
     <stop id="stop12219" path="c 0.00885357,180  -459.851,187.161  -239.26,432.049"/>
     <stop id="stop12221" style="stop-color:#88c0d0" path="c -320,0  -640,0  -960,0"/>
     <stop id="stop12223" style="stop-color:#3b4252" path="c -167.375,-322.055  -349.541,-376.752  -187.091,-469.862"/>
    </meshpatch>
    <meshpatch id="meshpatch12225">
     <stop id="stop12227" path="c 158.932,53.8364  0,360  0,540"/>
     <stop id="stop12229" style="stop-color:#88c0d0" path="c -320,0  -640,0  -960,0"/>
    </meshpatch>
   </meshrow>
  </meshgradient>
 </defs>
 <g id="layer1">
  <rect id="rect2392" width="1920" height="1080" style="fill:url(#meshgradient2522)"/>
  <path id="path9084" d="m120 0-120 120h120z" style="fill:#89c0d0;stroke-width:.17813"/>
  <path id="path9086" d="m0 0v120l120-120z" style="fill:#88c0d0;stroke-width:.17813"/>
  <path id="path12491" d="m240 0-120 120h120z" style="fill:#8ac1d1;stroke-width:.17813"/>
  <path id="path12493" d="m120 0v120l120-120z" style="fill:#88c0d0;stroke-width:.17813"/>
  <path id="path12497" d="m360 0-120 120h120z" style="fill:#8cc2d1;stroke-width:.17813"/>
  <path id="path12499" d="m240 0v120l120-120z" style="fill:#8ac1d1;stroke-width:.17813"/>
  <path id="path12503" d="m480 0-120 120h120z" style="fill:#8ec2d2;stroke-width:.17813"/>
  <path id="path12505" d="m360 0v120l120-120z" style="fill:#8bc1d1;stroke-width:.17813"/>
  <path id="path12509" d="m600 0-120 120h120z" style="fill:#8fc3d2;stroke-width:.17813"/>
  <path id="path12511" d="m480 0v120l120-120z" style="fill:#8dc2d2;stroke-width:.17813"/>
  <path id="path12515" d="m720 0-120 120h120z" style="fill:#92c4d3;stroke-width:.17813"/>
  <path id="path12517" d="m600 0v120l120-120z" style="fill:#8ec2d2;stroke-width:.17813"/>
  <path id="path12521" d="m840 0-120 120h120z" style="fill:#93c4d4;stroke-width:.17813"/>
  <path id="path12523" d="m720 0v120l120-120z" style="fill:#8fc3d2;stroke-width:.17813"/>
  <path id="path12527" d="m960 0-120 120h120z" style="fill:#93c4d4;stroke-width:.17813"/>
  <path id="path12529" d="m840 0v120l120-120z" style="fill:#8dc2d2;stroke-width:.17813"/>
  <path id="path12533" d="m1080 0-120 120h120z" style="fill:#90c0d0;stroke-width:.17813"/>
  <path id="path12535" d="m960 0v120l120-120z" style="fill:#8cc1d0;stroke-width:.17813"/>
  <path id="path12539" d="m1200 0-120 120h120z" style="fill:#84aebe;stroke-width:.17813"/>
  <path id="path12541" d="m1080 0v120l120-120z" style="fill:#81afbe;stroke-width:.17813"/>
  <path id="path12545" d="m1320 0-120 120h120z" style="fill:#7699a9;stroke-width:.17813"/>
  <path id="path12547" d="m1200 0v120l120-120z" style="fill:#7298a8;stroke-width:.17813"/>
  <path id="path12551" d="m1440 0-120 120h120z" style="fill:#698696;stroke-width:.17813"/>
  <path id="path12553" d="m1320 0v120l120-120z" style="fill:#688796;stroke-width:.17813"/>
  <path id="path12557" d="m1560 0-120 120h120z" style="fill:#5f7888;stroke-width:.17813"/>
  <path id="path12559" d="m1440 0v120l120-120z" style="fill:#5b7484;stroke-width:.17813"/>
  <path id="path12563" d="m1680 0-120 120h120z" style="fill:#556a7a;stroke-width:.17813"/>
  <path id="path12565" d="m1560 0v120l120-120z" style="fill:#536777;stroke-width:.17813"/>
  <path id="path12569" d="m1800 0-120 120h120z" style="fill:#4d5f6f;stroke-width:.17813"/>
  <path id="path12571" d="m1680 0v120l120-120z" style="fill:#4b5b6b;stroke-width:.17813"/>
  <path id="path12575" d="m1920 0-120 120h120z" style="fill:#455363;stroke-width:.17813"/>
  <path id="path12577" d="m1800 0v120l120-120z" style="fill:#434f5f;stroke-width:.17813"/>
  <path id="path12631" d="m1800 120 120 120h-120z" style="fill:#597181;stroke-width:.17813"/>
  <path id="path12633" d="m1920 120v120l-120-120z" style="fill:#4e6171;stroke-width:.17813"/>
  <path id="path12637" d="m1680 120 120 120h-120z" style="fill:#627d8c;stroke-width:.17813"/>
  <path id="path12639" d="m1800 120v120l-120-120z" style="fill:#566c7c;stroke-width:.17813"/>
  <path id="path12643" d="m1560 120 120 120h-120z" style="fill:#6a8696;stroke-width:.17813"/>
  <path id="path12645" d="m1680 120v120l-120-120z" style="fill:#5f7888;stroke-width:.17813"/>
  <path id="path12649" d="m1440 120 120 120h-120z" style="fill:#7493a2;stroke-width:.17813"/>
  <path id="path12651" d="m1560 120v120l-120-120z" style="fill:#698594;stroke-width:.17813"/>
  <path id="path12655" d="m1320 120 120 120h-120z" style="fill:#81a2b1;stroke-width:.17813"/>
  <path id="path12657" d="m1440 120v120l-120-120z" style="fill:#7494a3;stroke-width:.17813"/>
  <path id="path12661" d="m1200 120 120 120h-120z" style="fill:#90b5c4;stroke-width:.17813"/>
  <path id="path12663" d="m1320 120v120l-120-120z" style="fill:#82a6b5;stroke-width:.17813"/>
  <path id="path12667" d="m1080 120 120 120h-120z" style="fill:#9fc6d5;stroke-width:.17813"/>
  <path id="path12669" d="m1200 120v120l-120-120z" style="fill:#8fb9c8;stroke-width:.17813"/>
  <path id="path12673" d="m960 120 120 120h-120z" style="fill:#a1c9d8;stroke-width:.17813"/>
  <path id="path12675" d="m1080 120v120l-120-120z" style="fill:#9cc7d6;stroke-width:.17813"/>
  <path id="path12679" d="m840 120 120 120h-120z" style="fill:#9ec8d7;stroke-width:.17813"/>
  <path id="path12681" d="m960 120v120l-120-120z" style="fill:#9ac7d6;stroke-width:.17813"/>
  <path id="path12685" d="m720 120 120 120h-120z" style="fill:#9bc7d6;stroke-width:.17813"/>
  <path id="path12687" d="m840 120v120l-120-120z" style="fill:#99c6d6;stroke-width:.17813"/>
  <path id="path12691" d="m600 120 120 120h-120z" style="fill:#98c6d5;stroke-width:.17813"/>
  <path id="path12693" d="m720 120v120l-120-120z" style="fill:#96c5d4;stroke-width:.17813"/>
  <path id="path12697" d="m480 120 120 120h-120z" style="fill:#95c5d4;stroke-width:.17813"/>
  <path id="path12699" d="m600 120v120l-120-120z" style="fill:#94c4d4;stroke-width:.17813"/>
  <path id="path12703" d="m360 120 120 120h-120z" style="fill:#91c4d3;stroke-width:.17813"/>
  <path id="path12705" d="m480 120v120l-120-120z" style="fill:#90c3d3;stroke-width:.17813"/>
  <path id="path12709" d="m240 120 120 120h-120z" style="fill:#8ec2d2;stroke-width:.17813"/>
  <path id="path12711" d="m360 120v120l-120-120z" style="fill:#8dc2d2;stroke-width:.17813"/>
  <path id="path12715" d="m120 120 120 120h-120z" style="fill:#8bc1d1;stroke-width:.17813"/>
  <path id="path12717" d="m240 120v120l-120-120z" style="fill:#8ac1d1;stroke-width:.17813"/>
  <path id="path12721" d="m0 120 120 120h-120z" style="fill:#89c1d1;stroke-width:.17813"/>
  <path id="path12723" d="m120 120v120l-120-120z" style="fill:#89c1d1;stroke-width:.17813"/>
  <path id="path12729" d="m120 240-120 120h120z" style="fill:#8cc2d1;stroke-width:.17813"/>
  <path id="path12731" d="m0 240v120l120-120z" style="fill:#8ac1d1;stroke-width:.17813"/>
  <path id="path12735" d="m240 240-120 120h120z" style="fill:#90c3d3;stroke-width:.17813"/>
  <path id="path12737" d="m120 240v120l120-120z" style="fill:#8dc2d2;stroke-width:.17813"/>
  <path id="path12741" d="m360 240-120 120h120z" style="fill:#96c5d4;stroke-width:.17813"/>
  <path id="path12743" d="m240 240v120l120-120z" style="fill:#91c3d3;stroke-width:.17813"/>
  <path id="path12747" d="m480 240-120 120h120z" style="fill:#9ac7d6;stroke-width:.17813"/>
  <path id="path12749" d="m360 240v120l120-120z" style="fill:#95c5d5;stroke-width:.17813"/>
  <path id="path12753" d="m600 240-120 120h120z" style="fill:#9fc8d7;stroke-width:.17813"/>
  <path id="path12755" d="m480 240v120l120-120z" style="fill:#99c7d6;stroke-width:.17813"/>
  <path id="path12759" d="m720 240-120 120h120z" style="fill:#a4cbd8;stroke-width:.17813"/>
  <path id="path12761" d="m600 240v120l120-120z" style="fill:#9dc8d7;stroke-width:.17813"/>
  <path id="path12765" d="m840 240-120 120h120z" style="fill:#a8ccda;stroke-width:.17813"/>
  <path id="path12767" d="m720 240v120l120-120z" style="fill:#a2cad9;stroke-width:.17813"/>
  <path id="path12771" d="m960 240-120 120h120z" style="fill:#accddb;stroke-width:.17813"/>
  <path id="path12773" d="m840 240v120l120-120z" style="fill:#a5cbd9;stroke-width:.17813"/>
  <path id="path12777" d="m1080 240-120 120h120z" style="fill:#afcfdc;stroke-width:.17813"/>
  <path id="path12779" d="m960 240v120l120-120z" style="fill:#a9ccdb;stroke-width:.17813"/>
  <path id="path12783" d="m1200 240-120 120h120z" style="fill:#acccd9;stroke-width:.17813"/>
  <path id="path12785" d="m1080 240v120l120-120z" style="fill:#aaccda;stroke-width:.17813"/>
  <path id="path12789" d="m1320 240-120 120h120z" style="fill:#9fbfcd;stroke-width:.17813"/>
  <path id="path12791" d="m1200 240v120l120-120z" style="fill:#9bbecc;stroke-width:.17813"/>
  <path id="path12795" d="m1440 240-120 120h120z" style="fill:#8fafbd;stroke-width:.17813"/>
  <path id="path12797" d="m1320 240v120l120-120z" style="fill:#8daebc;stroke-width:.17813"/>
  <path id="path12801" d="m1560 240-120 120h120z" style="fill:#84a4b3;stroke-width:.17813"/>
  <path id="path12803" d="m1440 240v120l120-120z" style="fill:#7f9fae;stroke-width:.17813"/>
  <path id="path12807" d="m1680 240-120 120h120z" style="fill:#799aa9;stroke-width:.17813"/>
  <path id="path12809" d="m1560 240v120l120-120z" style="fill:#7594a3;stroke-width:.17813"/>
  <path id="path12813" d="m1800 240-120 120h120z" style="fill:#7193a2;stroke-width:.17813"/>
  <path id="path12815" d="m1680 240v120l120-120z" style="fill:#6b8998;stroke-width:.17813"/>
  <path id="path12819" d="m1920 240-120 120h120z" style="fill:#688a9a;stroke-width:.17813"/>
  <path id="path12821" d="m1800 240v120l120-120z" style="fill:#638090;stroke-width:.17813"/>
  <path id="path12827" d="m1800 360 120 120h-120z" style="fill:#80acbc;stroke-width:.17813"/>
  <path id="path12829" d="m1920 360v120l-120-120z" style="fill:#769faf;stroke-width:.17813"/>
  <path id="path12833" d="m1680 360 120 120h-120z" style="fill:#88b2c1;stroke-width:.17813"/>
  <path id="path12835" d="m1800 360v120l-120-120z" style="fill:#7ca4b3;stroke-width:.17813"/>
  <path id="path12839" d="m1560 360 120 120h-120z" style="fill:#8eb4c3;stroke-width:.17813"/>
  <path id="path12841" d="m1680 360v120l-120-120z" style="fill:#85aab9;stroke-width:.17813"/>
  <path id="path12845" d="m1440 360 120 120h-120z" style="fill:#98b7c6;stroke-width:.17813"/>
  <path id="path12847" d="m1560 360v120l-120-120z" style="fill:#8eafbe;stroke-width:.17813"/>
  <path id="path12851" d="m1320 360 120 120h-120z" style="fill:#a8c4d1;stroke-width:.17813"/>
  <path id="path12853" d="m1440 360v120l-120-120z" style="fill:#99b8c6;stroke-width:.17813"/>
  <path id="path12857" d="m1200 360 120 120h-120z" style="fill:#b6cfdc;stroke-width:.17813"/>
  <path id="path12859" d="m1320 360v120l-120-120z" style="fill:#a9c6d4;stroke-width:.17813"/>
  <path id="path12863" d="m1080 360 120 120h-120z" style="fill:#bbd3e0;stroke-width:.17813"/>
  <path id="path12865" d="m1200 360v120l-120-120z" style="fill:#b7d1de;stroke-width:.17813"/>
  <path id="path12869" d="m960 360 120 120h-120z" style="fill:#b9d2df;stroke-width:.17813"/>
  <path id="path12871" d="m1080 360v120l-120-120z" style="fill:#b6d1df;stroke-width:.17813"/>
  <path id="path12875" d="m840 360 120 120h-120z" style="fill:#b6d1df;stroke-width:.17813"/>
  <path id="path12877" d="m960 360v120l-120-120z" style="fill:#b2d0dd;stroke-width:.17813"/>
  <path id="path12881" d="m720 360 120 120h-120z" style="fill:#b2d0dd;stroke-width:.17813"/>
  <path id="path12883" d="m840 360v120l-120-120z" style="fill:#afcedc;stroke-width:.17813"/>
  <path id="path12887" d="m600 360 120 120h-120z" style="fill:#accedb;stroke-width:.17813"/>
  <path id="path12889" d="m720 360v120l-120-120z" style="fill:#aacdda;stroke-width:.17813"/>
  <path id="path12893" d="m480 360 120 120h-120z" style="fill:#a7ccda;stroke-width:.17813"/>
  <path id="path12895" d="m600 360v120l-120-120z" style="fill:#a6cbda;stroke-width:.17813"/>
  <path id="path12899" d="m360 360 120 120h-120z" style="fill:#a2cad8;stroke-width:.17813"/>
  <path id="path12901" d="m480 360v120l-120-120z" style="fill:#a1c9d8;stroke-width:.17813"/>
  <path id="path12905" d="m240 360 120 120h-120z" style="fill:#9bc7d6;stroke-width:.17813"/>
  <path id="path12907" d="m360 360v120l-120-120z" style="fill:#9ac7d6;stroke-width:.17813"/>
  <path id="path12911" d="m120 360 120 120h-120z" style="fill:#94c5d4;stroke-width:.17813"/>
  <path id="path12913" d="m240 360v120l-120-120z" style="fill:#95c5d4;stroke-width:.17813"/>
  <path id="path12917" d="m0 360 120 120h-120z" style="fill:#8fc3d2;stroke-width:.17813"/>
  <path id="path12919" d="m120 360v120l-120-120z" style="fill:#8fc3d2;stroke-width:.17813"/>
  <path id="path12925" d="m120 480-120 120h120z" style="fill:#8ebbca;stroke-width:.17813"/>
  <path id="path12927" d="m0 480v120l120-120z" style="fill:#91c3d3;stroke-width:.17813"/>
  <path id="path12931" d="m240 480-120 120h120z" style="fill:#92bbca;stroke-width:.17813"/>
  <path id="path12933" d="m120 480v120l120-120z" style="fill:#97c6d5;stroke-width:.17813"/>
  <path id="path12937" d="m360 480-120 120h120z" style="fill:#99bdcc;stroke-width:.17813"/>
  <path id="path12939" d="m240 480v120l120-120z" style="fill:#9dc7d5;stroke-width:.17813"/>
  <path id="path12943" d="m480 480-120 120h120z" style="fill:#a1c3d1;stroke-width:.17813"/>
  <path id="path12945" d="m360 480v120l120-120z" style="fill:#a4c9d7;stroke-width:.17813"/>
  <path id="path12949" d="m600 480-120 120h120z" style="fill:#aac9d6;stroke-width:.17813"/>
  <path id="path12951" d="m480 480v120l120-120z" style="fill:#abcddb;stroke-width:.17813"/>
  <path id="path12955" d="m720 480-120 120h120z" style="fill:#b5d0dd;stroke-width:.17813"/>
  <path id="path12957" d="m600 480v120l120-120z" style="fill:#b3d1dd;stroke-width:.17813"/>
  <path id="path12961" d="m840 480-120 120h120z" style="fill:#bed4e1;stroke-width:.17813"/>
  <path id="path12963" d="m720 480v120l120-120z" style="fill:#b9d2e0;stroke-width:.17813"/>
  <path id="path12967" d="m960 480-120 120h120z" style="fill:#c3d6e3;stroke-width:.17813"/>
  <path id="path12969" d="m840 480v120l120-120z" style="fill:#bdd4e1;stroke-width:.17813"/>
  <path id="path12973" d="m1080 480-120 120h120z" style="fill:#c8d8e4;stroke-width:.17813"/>
  <path id="path12975" d="m960 480v120l120-120z" style="fill:#c1d6e2;stroke-width:.17813"/>
  <path id="path12979" d="m1200 480-120 120h120z" style="fill:#cad9e5;stroke-width:.17813"/>
  <path id="path12981" d="m1080 480v120l120-120z" style="fill:#c5d7e3;stroke-width:.17813"/>
  <path id="path12985" d="m1320 480-120 120h120z" style="fill:#c4d5e1;stroke-width:.17813"/>
  <path id="path12987" d="m1200 480v120l120-120z" style="fill:#c1d4e1;stroke-width:.17813"/>
  <path id="path12991" d="m1440 480-120 120h120z" style="fill:#b2cbd8;stroke-width:.17813"/>
  <path id="path12993" d="m1320 480v120l120-120z" style="fill:#b4ccd9;stroke-width:.17813"/>
  <path id="path12997" d="m1560 480-120 120h120z" style="fill:#a4c9d7;stroke-width:.17813"/>
  <path id="path12999" d="m1440 480v120l120-120z" style="fill:#a4c3d1;stroke-width:.17813"/>
  <path id="path13003" d="m1680 480-120 120h120z" style="fill:#99c7d6;stroke-width:.17813"/>
  <path id="path13005" d="m1560 480v120l120-120z" style="fill:#98c1d0;stroke-width:.17813"/>
  <path id="path13009" d="m1800 480-120 120h120z" style="fill:#92c4d4;stroke-width:.17813"/>
  <path id="path13011" d="m1680 480v120l120-120z" style="fill:#90c0cf;stroke-width:.17813"/>
  <path id="path13015" d="m1920 480-120 120h120z" style="fill:#8bc1d1;stroke-width:.17813"/>
  <path id="path13017" d="m1800 480v120l120-120z" style="fill:#8abdcd;stroke-width:.17813"/>
  <path id="path13023" d="m1800 600 120 120h-120z" style="fill:#8dc2d2;stroke-width:.17813"/>
  <path id="path13025" d="m1920 600v120l-120-120z" style="fill:#8cc2d2;stroke-width:.17813"/>
  <path id="path13029" d="m1680 600 120 120h-120z" style="fill:#93c5d4;stroke-width:.17813"/>
  <path id="path13031" d="m1800 600v120l-120-120z" style="fill:#92c4d3;stroke-width:.17813"/>
  <path id="path13035" d="m1560 600 120 120h-120z" style="fill:#9bc8d6;stroke-width:.17813"/>
  <path id="path13037" d="m1680 600v120l-120-120z" style="fill:#99c7d6;stroke-width:.17813"/>
  <path id="path13041" d="m1440 600 120 120h-120z" style="fill:#accedc;stroke-width:.17813"/>
  <path id="path13043" d="m1560 600v120l-120-120z" style="fill:#a6ccda;stroke-width:.17813"/>
  <path id="path13047" d="m1320 600 120 120h-120z" style="fill:#c7d8e4;stroke-width:.17813"/>
  <path id="path13049" d="m1440 600v120l-120-120z" style="fill:#bcd3e0;stroke-width:.17813"/>
  <path id="path13053" d="m1200 600 120 120h-120z" style="fill:#d2dce7;stroke-width:.17813"/>
  <path id="path13055" d="m1320 600v120l-120-120z" style="fill:#cdd9e5;stroke-width:.17813"/>
  <path id="path13059" d="m1080 600 120 120h-120z" style="fill:#cedae6;stroke-width:.17813"/>
  <path id="path13061" d="m1200 600v120l-120-120z" style="fill:#d4dde8;stroke-width:.17813"/>
  <path id="path13065" d="m960 600 120 120h-120z" style="fill:#c3d5e1;stroke-width:.17813"/>
  <path id="path13067" d="m1080 600v120l-120-120z" style="fill:#cedae6;stroke-width:.17813"/>
  <path id="path13071" d="m840 600 120 120h-120z" style="fill:#b9cfdc;stroke-width:.17813"/>
  <path id="path13073" d="m960 600v120l-120-120z" style="fill:#c2d4e1;stroke-width:.17813"/>
  <path id="path13077" d="m720 600 120 120h-120z" style="fill:#aec7d5;stroke-width:.17813"/>
  <path id="path13079" d="m840 600v120l-120-120z" style="fill:#b7cedb;stroke-width:.17813"/>
  <path id="path13083" d="m600 600 120 120h-120z" style="fill:#a3bfcd;stroke-width:.17813"/>
  <path id="path13085" d="m720 600v120l-120-120z" style="fill:#adc8d5;stroke-width:.17813"/>
  <path id="path13089" d="m480 600 120 120h-120z" style="fill:#99b7c6;stroke-width:.17813"/>
  <path id="path13091" d="m600 600v120l-120-120z" style="fill:#a3c1cf;stroke-width:.17813"/>
  <path id="path13095" d="m360 600 120 120h-120z" style="fill:#8fafbd;stroke-width:.17813"/>
  <path id="path13097" d="m480 600v120l-120-120z" style="fill:#98b7c6;stroke-width:.17813"/>
  <path id="path13101" d="m240 600 120 120h-120z" style="fill:#86a7b5;stroke-width:.17813"/>
  <path id="path13103" d="m360 600v120l-120-120z" style="fill:#8fb0bf;stroke-width:.17813"/>
  <path id="path13107" d="m120 600 120 120h-120z" style="fill:#7d9fae;stroke-width:.17813"/>
  <path id="path13109" d="m240 600v120l-120-120z" style="fill:#88abba;stroke-width:.17813"/>
  <path id="path13113" d="m0 600 120 120h-120z" style="fill:#779aa9;stroke-width:.17813"/>
  <path id="path13115" d="m120 600v120l-120-120z" style="fill:#81a6b6;stroke-width:.17813"/>
  <path id="path13121" d="m120 720-120 120h120z" style="fill:#668191;stroke-width:.17813"/>
  <path id="path13123" d="m0 720v120l120-120z" style="fill:#6a8897;stroke-width:.17813"/>
  <path id="path13127" d="m240 720-120 120h120z" style="fill:#6f8c9b;stroke-width:.17813"/>
  <path id="path13129" d="m120 720v120l120-120z" style="fill:#72909f;stroke-width:.17813"/>
  <path id="path13133" d="m360 720-120 120h120z" style="fill:#7896a5;stroke-width:.17813"/>
  <path id="path13135" d="m240 720v120l120-120z" style="fill:#7a98a8;stroke-width:.17813"/>
  <path id="path13139" d="m480 720-120 120h120z" style="fill:#83a3b2;stroke-width:.17813"/>
  <path id="path13141" d="m360 720v120l120-120z" style="fill:#85a5b4;stroke-width:.17813"/>
  <path id="path13145" d="m600 720-120 120h120z" style="fill:#8eaebd;stroke-width:.17813"/>
  <path id="path13147" d="m480 720v120l120-120z" style="fill:#90b0be;stroke-width:.17813"/>
  <path id="path13151" d="m720 720-120 120h120z" style="fill:#99b9c8;stroke-width:.17813"/>
  <path id="path13153" d="m600 720v120l120-120z" style="fill:#9ab9c7;stroke-width:.17813"/>
  <path id="path13157" d="m840 720-120 120h120z" style="fill:#a4c3d1;stroke-width:.17813"/>
  <path id="path13159" d="m720 720v120l120-120z" style="fill:#a5c2cf;stroke-width:.17813"/>
  <path id="path13163" d="m960 720-120 120h120z" style="fill:#aecbd8;stroke-width:.17813"/>
  <path id="path13165" d="m840 720v120l120-120z" style="fill:#b1cad7;stroke-width:.17813"/>
  <path id="path13169" d="m1080 720-120 120h120z" style="fill:#b8d2df;stroke-width:.17813"/>
  <path id="path13171" d="m960 720v120l120-120z" style="fill:#bad1de;stroke-width:.17813"/>
  <path id="path13175" d="m1200 720-120 120h120z" style="fill:#b7d2e0;stroke-width:.17813"/>
  <path id="path13177" d="m1080 720v120l120-120z" style="fill:#c3d6e3;stroke-width:.17813"/>
  <path id="path13181" d="m1320 720-120 120h120z" style="fill:#aecfdc;stroke-width:.17813"/>
  <path id="path13183" d="m1200 720v120l120-120z" style="fill:#c1d6e2;stroke-width:.17813"/>
  <path id="path13187" d="m1440 720-120 120h120z" style="fill:#a2cad8;stroke-width:.17813"/>
  <path id="path13189" d="m1320 720v120l120-120z" style="fill:#b2d0de;stroke-width:.17813"/>
  <path id="path13193" d="m1560 720-120 120h120z" style="fill:#98c6d5;stroke-width:.17813"/>
  <path id="path13195" d="m1440 720v120l120-120z" style="fill:#a1cad8;stroke-width:.17813"/>
  <path id="path13199" d="m1680 720-120 120h120z" style="fill:#92c4d4;stroke-width:.17813"/>
  <path id="path13201" d="m1560 720v120l120-120z" style="fill:#97c6d5;stroke-width:.17813"/>
  <path id="path13205" d="m1800 720-120 120h120z" style="fill:#8ec3d2;stroke-width:.17813"/>
  <path id="path13207" d="m1680 720v120l120-120z" style="fill:#91c4d3;stroke-width:.17813"/>
  <path id="path13211" d="m1920 720-120 120h120z" style="fill:#8bc1d1;stroke-width:.17813"/>
  <path id="path13213" d="m1800 720v120l120-120z" style="fill:#8cc2d2;stroke-width:.17813"/>
  <path id="path13219" d="m1800 840 120 120h-120z" style="fill:#8ac1d1;stroke-width:.17813"/>
  <path id="path13221" d="m1920 840v120l-120-120z" style="fill:#8ac1d1;stroke-width:.17813"/>
  <path id="path13225" d="m1680 840 120 120h-120z" style="fill:#8cc2d2;stroke-width:.17813"/>
  <path id="path13227" d="m1800 840v120l-120-120z" style="fill:#8cc2d2;stroke-width:.17813"/>
  <path id="path13231" d="m1560 840 120 120h-120z" style="fill:#8ec3d2;stroke-width:.17813"/>
  <path id="path13233" d="m1680 840v120l-120-120z" style="fill:#8fc3d3;stroke-width:.17813"/>
  <path id="path13237" d="m1440 840 120 120h-120z" style="fill:#91c4d3;stroke-width:.17813"/>
  <path id="path13239" d="m1560 840v120l-120-120z" style="fill:#92c4d4;stroke-width:.17813"/>
  <path id="path13243" d="m1320 840 120 120h-120z" style="fill:#95c5d5;stroke-width:.17813"/>
  <path id="path13245" d="m1440 840v120l-120-120z" style="fill:#97c6d5;stroke-width:.17813"/>
  <path id="path13249" d="m1200 840 120 120h-120z" style="fill:#9ac7d6;stroke-width:.17813"/>
  <path id="path13251" d="m1320 840v120l-120-120z" style="fill:#9dc8d7;stroke-width:.17813"/>
  <path id="path13255" d="m1080 840 120 120h-120z" style="fill:#9cc8d7;stroke-width:.17813"/>
  <path id="path13257" d="m1200 840v120l-120-120z" style="fill:#a3cbd9;stroke-width:.17813"/>
  <path id="path13261" d="m960 840 120 120h-120z" style="fill:#9ec9d8;stroke-width:.17813"/>
  <path id="path13263" d="m1080 840v120l-120-120z" style="fill:#a7ccdb;stroke-width:.17813"/>
  <path id="path13267" d="m840 840 120 120h-120z" style="fill:#9cc6d5;stroke-width:.17813"/>
  <path id="path13269" d="m960 840v120l-120-120z" style="fill:#a5cad8;stroke-width:.17813"/>
  <path id="path13273" d="m720 840 120 120h-120z" style="fill:#90b8c7;stroke-width:.17813"/>
  <path id="path13275" d="m840 840v120l-120-120z" style="fill:#9abfce;stroke-width:.17813"/>
  <path id="path13279" d="m600 840 120 120h-120z" style="fill:#87acbb;stroke-width:.17813"/>
  <path id="path13281" d="m720 840v120l-120-120z" style="fill:#90b4c3;stroke-width:.17813"/>
  <path id="path13285" d="m480 840 120 120h-120z" style="fill:#799cab;stroke-width:.17813"/>
  <path id="path13287" d="m600 840v120l-120-120z" style="fill:#84a7b6;stroke-width:.17813"/>
  <path id="path13291" d="m360 840 120 120h-120z" style="fill:#6f8d9d;stroke-width:.17813"/>
  <path id="path13293" d="m480 840v120l-120-120z" style="fill:#7999a8;stroke-width:.17813"/>
  <path id="path13297" d="m240 840 120 120h-120z" style="fill:#647f8f;stroke-width:.17813"/>
  <path id="path13299" d="m360 840v120l-120-120z" style="fill:#6e8b9a;stroke-width:.17813"/>
  <path id="path13303" d="m120 840 120 120h-120z" style="fill:#5a7181;stroke-width:.17813"/>
  <path id="path13305" d="m240 840v120l-120-120z" style="fill:#647e8d;stroke-width:.17813"/>
  <path id="path13309" d="m0 840 120 120h-120z" style="fill:#526676;stroke-width:.17813"/>
  <path id="path13311" d="m120 840v120l-120-120z" style="fill:#5b7282;stroke-width:.17813"/>
  <path id="path13317" d="m120 960-120 120h120z" style="fill:#455262;stroke-width:.17813"/>
  <path id="path13319" d="m0 960v120l120-120z" style="fill:#485767;stroke-width:.17813"/>
  <path id="path13323" d="m240 960-120 120h120z" style="fill:#4f6272;stroke-width:.17813"/>
  <path id="path13325" d="m120 960v120l120-120z" style="fill:#526575;stroke-width:.17813"/>
  <path id="path13329" d="m360 960-120 120h120z" style="fill:#597282;stroke-width:.17813"/>
  <path id="path13331" d="m240 960v120l120-120z" style="fill:#5c7484;stroke-width:.17813"/>
  <path id="path13335" d="m480 960-120 120h120z" style="fill:#628191;stroke-width:.17813"/>
  <path id="path13337" d="m360 960v120l120-120z" style="fill:#668393;stroke-width:.17813"/>
  <path id="path13341" d="m600 960-120 120h120z" style="fill:#6e93a3;stroke-width:.17813"/>
  <path id="path13343" d="m480 960v120l120-120z" style="fill:#7093a2;stroke-width:.17813"/>
  <path id="path13347" d="m720 960-120 120h120z" style="fill:#77a1b1;stroke-width:.17813"/>
  <path id="path13349" d="m600 960v120l120-120z" style="fill:#7aa1b1;stroke-width:.17813"/>
  <path id="path13353" d="m840 960-120 120h120z" style="fill:#82b2c1;stroke-width:.17813"/>
  <path id="path13355" d="m720 960v120l120-120z" style="fill:#85b1c1;stroke-width:.17813"/>
  <path id="path13359" d="m960 960-120 120h120z" style="fill:#8dc2d1;stroke-width:.17813"/>
  <path id="path13361" d="m840 960v120l120-120z" style="fill:#91c1d1;stroke-width:.17813"/>
  <path id="path13365" d="m1080 960-120 120h120z" style="fill:#8dc2d2;stroke-width:.17813"/>
  <path id="path13367" d="m960 960v120l120-120z" style="fill:#93c5d4;stroke-width:.17813"/>
  <path id="path13371" d="m1200 960-120 120h120z" style="fill:#8cc2d2;stroke-width:.17813"/>
  <path id="path13373" d="m1080 960v120l120-120z" style="fill:#92c4d4;stroke-width:.17813"/>
  <path id="path13377" d="m1320 960-120 120h120z" style="fill:#8cc2d2;stroke-width:.17813"/>
  <path id="path13379" d="m1200 960v120l120-120z" style="fill:#91c4d3;stroke-width:.17813"/>
  <path id="path13383" d="m1440 960-120 120h120z" style="fill:#8bc1d1;stroke-width:.17813"/>
  <path id="path13385" d="m1320 960v120l120-120z" style="fill:#8fc3d3;stroke-width:.17813"/>
  <path id="path13389" d="m1560 960-120 120h120z" style="fill:#8bc1d1;stroke-width:.17813"/>
  <path id="path13391" d="m1440 960v120l120-120z" style="fill:#8dc3d2;stroke-width:.17813"/>
  <path id="path13395" d="m1680 960-120 120h120z" style="fill:#8ac1d1;stroke-width:.17813"/>
  <path id="path13397" d="m1560 960v120l120-120z" style="fill:#8bc2d2;stroke-width:.17813"/>
  <path id="path13401" d="m1800 960-120 120h120z" style="fill:#89c1d1;stroke-width:.17813"/>
  <path id="path13403" d="m1680 960v120l120-120z" style="fill:#8bc2d2;stroke-width:.17813"/>
  <path id="path13407" d="m1920 960-120 120h120z" style="fill:#88c0d0;stroke-width:.17813"/>
  <path id="path13409" d="m1800 960v120l120-120z" style="fill:#8ac1d1;stroke-width:.17813"/>
 </g>
 <script id="mesh_polyfill" type="text/javascript">!function(){const t="http://www.w3.org/2000/svg",e="http://www.w3.org/1999/xlink",s="http://www.w3.org/1999/xhtml",r=2;if(document.createElementNS(t,"meshgradient").x)return;const n=(t,e,s,r)=&gt;{let n=new x(.5*(e.x+s.x),.5*(e.y+s.y)),o=new x(.5*(t.x+e.x),.5*(t.y+e.y)),i=new x(.5*(s.x+r.x),.5*(s.y+r.y)),a=new x(.5*(n.x+o.x),.5*(n.y+o.y)),h=new x(.5*(n.x+i.x),.5*(n.y+i.y)),l=new x(.5*(a.x+h.x),.5*(a.y+h.y));return[[t,o,a,l],[l,h,i,r]]},o=t=&gt;{let e=t[0].distSquared(t[1]),s=t[2].distSquared(t[3]),r=.25*t[0].distSquared(t[2]),n=.25*t[1].distSquared(t[3]),o=e&gt;s?e:s,i=r&gt;n?r:n;return 18*(o&gt;i?o:i)},i=(t,e)=&gt;Math.sqrt(t.distSquared(e)),a=(t,e)=&gt;t.scale(2/3).add(e.scale(1/3)),h=t=&gt;{let e,s,r,n,o,i,a,h=new g;return t.match(/(\w+\(\s*[^)]+\))+/g).forEach(t=&gt;{let l=t.match(/[\w.-]+/g),d=l.shift();switch(d){case"translate":2===l.length?e=new g(1,0,0,1,l[0],l[1]):(console.error("mesh.js: translate does not have 2 arguments!"),e=new g(1,0,0,1,0,0)),h=h.append(e);break;case"scale":1===l.length?s=new g(l[0],0,0,l[0],0,0):2===l.length?s=new g(l[0],0,0,l[1],0,0):(console.error("mesh.js: scale does not have 1 or 2 arguments!"),s=new g(1,0,0,1,0,0)),h=h.append(s);break;case"rotate":if(3===l.length&amp;&amp;(e=new g(1,0,0,1,l[1],l[2]),h=h.append(e)),l[0]){r=l[0]*Math.PI/180;let t=Math.cos(r),e=Math.sin(r);Math.abs(t)&lt;1e-16&amp;&amp;(t=0),Math.abs(e)&lt;1e-16&amp;&amp;(e=0),a=new g(t,e,-e,t,0,0),h=h.append(a)}else console.error("math.js: No argument to rotate transform!");3===l.length&amp;&amp;(e=new g(1,0,0,1,-l[1],-l[2]),h=h.append(e));break;case"skewX":l[0]?(r=l[0]*Math.PI/180,n=Math.tan(r),o=new g(1,0,n,1,0,0),h=h.append(o)):console.error("math.js: No argument to skewX transform!");break;case"skewY":l[0]?(r=l[0]*Math.PI/180,n=Math.tan(r),i=new g(1,n,0,1,0,0),h=h.append(i)):console.error("math.js: No argument to skewY transform!");break;case"matrix":6===l.length?h=h.append(new g(...l)):console.error("math.js: Incorrect number of arguments for matrix!");break;default:console.error("mesh.js: Unhandled transform type: "+d)}}),h},l=t=&gt;{let e=[],s=t.split(/[ ,]+/);for(let t=0,r=s.length-1;t&lt;r;t+=2)e.push(new x(parseFloat(s[t]),parseFloat(s[t+1])));return e},d=(t,e)=&gt;{for(let s in e)t.setAttribute(s,e[s])},c=(t,e,s,r,n)=&gt;{let o,i,a=[0,0,0,0];for(let h=0;h&lt;3;++h)e[h]&lt;t[h]&amp;&amp;e[h]&lt;s[h]||t[h]&lt;e[h]&amp;&amp;s[h]&lt;e[h]?a[h]=0:(a[h]=.5*((e[h]-t[h])/r+(s[h]-e[h])/n),o=Math.abs(3*(e[h]-t[h])/r),i=Math.abs(3*(s[h]-e[h])/n),a[h]&gt;o?a[h]=o:a[h]&gt;i&amp;&amp;(a[h]=i));return a},u=[[1,0,0,0,0,0,0,0,0,0,0,0,0,0,0,0],[0,0,0,0,1,0,0,0,0,0,0,0,0,0,0,0],[-3,3,0,0,-2,-1,0,0,0,0,0,0,0,0,0,0],[2,-2,0,0,1,1,0,0,0,0,0,0,0,0,0,0],[0,0,0,0,0,0,0,0,1,0,0,0,0,0,0,0],[0,0,0,0,0,0,0,0,0,0,0,0,1,0,0,0],[0,0,0,0,0,0,0,0,-3,3,0,0,-2,-1,0,0],[0,0,0,0,0,0,0,0,2,-2,0,0,1,1,0,0],[-3,0,3,0,0,0,0,0,-2,0,-1,0,0,0,0,0],[0,0,0,0,-3,0,3,0,0,0,0,0,-2,0,-1,0],[9,-9,-9,9,6,3,-6,-3,6,-6,3,-3,4,2,2,1],[-6,6,6,-6,-3,-3,3,3,-4,4,-2,2,-2,-2,-1,-1],[2,0,-2,0,0,0,0,0,1,0,1,0,0,0,0,0],[0,0,0,0,2,0,-2,0,0,0,0,0,1,0,1,0],[-6,6,6,-6,-4,-2,4,2,-3,3,-3,3,-2,-1,-2,-1],[4,-4,-4,4,2,2,-2,-2,2,-2,2,-2,1,1,1,1]],f=t=&gt;{let e=[];for(let s=0;s&lt;16;++s){e[s]=0;for(let r=0;r&lt;16;++r)e[s]+=u[s][r]*t[r]}return e},p=(t,e,s)=&gt;{const r=e*e,n=s*s,o=e*e*e,i=s*s*s;return t[0]+t[1]*e+t[2]*r+t[3]*o+t[4]*s+t[5]*s*e+t[6]*s*r+t[7]*s*o+t[8]*n+t[9]*n*e+t[10]*n*r+t[11]*n*o+t[12]*i+t[13]*i*e+t[14]*i*r+t[15]*i*o},y=t=&gt;{let e=[],s=[],r=[];for(let s=0;s&lt;4;++s)e[s]=[],e[s][0]=n(t[0][s],t[1][s],t[2][s],t[3][s]),e[s][1]=[],e[s][1].push(...n(...e[s][0][0])),e[s][1].push(...n(...e[s][0][1])),e[s][2]=[],e[s][2].push(...n(...e[s][1][0])),e[s][2].push(...n(...e[s][1][1])),e[s][2].push(...n(...e[s][1][2])),e[s][2].push(...n(...e[s][1][3]));for(let t=0;t&lt;8;++t){s[t]=[];for(let r=0;r&lt;4;++r)s[t][r]=[],s[t][r][0]=n(e[0][2][t][r],e[1][2][t][r],e[2][2][t][r],e[3][2][t][r]),s[t][r][1]=[],s[t][r][1].push(...n(...s[t][r][0][0])),s[t][r][1].push(...n(...s[t][r][0][1])),s[t][r][2]=[],s[t][r][2].push(...n(...s[t][r][1][0])),s[t][r][2].push(...n(...s[t][r][1][1])),s[t][r][2].push(...n(...s[t][r][1][2])),s[t][r][2].push(...n(...s[t][r][1][3]))}for(let t=0;t&lt;8;++t){r[t]=[];for(let e=0;e&lt;8;++e)r[t][e]=[],r[t][e][0]=s[t][0][2][e],r[t][e][1]=s[t][1][2][e],r[t][e][2]=s[t][2][2][e],r[t][e][3]=s[t][3][2][e]}return r};class x{constructor(t,e){this.x=t||0,this.y=e||0}toString(){return`(x=${this.x}, y=${this.y})`}clone(){return new x(this.x,this.y)}add(t){return new x(this.x+t.x,this.y+t.y)}scale(t){return void 0===t.x?new x(this.x*t,this.y*t):new x(this.x*t.x,this.y*t.y)}distSquared(t){let e=this.x-t.x,s=this.y-t.y;return e*e+s*s}transform(t){let e=this.x*t.a+this.y*t.c+t.e,s=this.x*t.b+this.y*t.d+t.f;return new x(e,s)}}class g{constructor(t,e,s,r,n,o){void 0===t?(this.a=1,this.b=0,this.c=0,this.d=1,this.e=0,this.f=0):(this.a=t,this.b=e,this.c=s,this.d=r,this.e=n,this.f=o)}toString(){return`affine: ${this.a} ${this.c} ${this.e} \n       ${this.b} ${this.d} ${this.f}`}append(t){t instanceof g||console.error("mesh.js: argument to Affine.append is not affine!");let e=this.a*t.a+this.c*t.b,s=this.b*t.a+this.d*t.b,r=this.a*t.c+this.c*t.d,n=this.b*t.c+this.d*t.d,o=this.a*t.e+this.c*t.f+this.e,i=this.b*t.e+this.d*t.f+this.f;return new g(e,s,r,n,o,i)}}class w{constructor(t,e){this.nodes=t,this.colors=e}paintCurve(t,e){if(o(this.nodes)&gt;r){const s=n(...this.nodes);let r=[[],[]],o=[[],[]];for(let t=0;t&lt;4;++t)r[0][t]=this.colors[0][t],r[1][t]=(this.colors[0][t]+this.colors[1][t])/2,o[0][t]=r[1][t],o[1][t]=this.colors[1][t];let i=new w(s[0],r),a=new w(s[1],o);i.paintCurve(t,e),a.paintCurve(t,e)}else{let s=Math.round(this.nodes[0].x);if(s&gt;=0&amp;&amp;s&lt;e){let r=4*(~~this.nodes[0].y*e+s);t[r]=Math.round(this.colors[0][0]),t[r+1]=Math.round(this.colors[0][1]),t[r+2]=Math.round(this.colors[0][2]),t[r+3]=Math.round(this.colors[0][3])}}}}class m{constructor(t,e){this.nodes=t,this.colors=e}split(){let t=[[],[],[],[]],e=[[],[],[],[]],s=[[[],[]],[[],[]]],r=[[[],[]],[[],[]]];for(let s=0;s&lt;4;++s){const r=n(this.nodes[0][s],this.nodes[1][s],this.nodes[2][s],this.nodes[3][s]);t[0][s]=r[0][0],t[1][s]=r[0][1],t[2][s]=r[0][2],t[3][s]=r[0][3],e[0][s]=r[1][0],e[1][s]=r[1][1],e[2][s]=r[1][2],e[3][s]=r[1][3]}for(let t=0;t&lt;4;++t)s[0][0][t]=this.colors[0][0][t],s[0][1][t]=this.colors[0][1][t],s[1][0][t]=(this.colors[0][0][t]+this.colors[1][0][t])/2,s[1][1][t]=(this.colors[0][1][t]+this.colors[1][1][t])/2,r[0][0][t]=s[1][0][t],r[0][1][t]=s[1][1][t],r[1][0][t]=this.colors[1][0][t],r[1][1][t]=this.colors[1][1][t];return[new m(t,s),new m(e,r)]}paint(t,e){let s,n=!1;for(let t=0;t&lt;4;++t)if((s=o([this.nodes[0][t],this.nodes[1][t],this.nodes[2][t],this.nodes[3][t]]))&gt;r){n=!0;break}if(n){let s=this.split();s[0].paint(t,e),s[1].paint(t,e)}else{new w([...this.nodes[0]],[...this.colors[0]]).paintCurve(t,e)}}}class b{constructor(t){this.readMesh(t),this.type=t.getAttribute("type")||"bilinear"}readMesh(t){let e=[[]],s=[[]],r=Number(t.getAttribute("x")),n=Number(t.getAttribute("y"));e[0][0]=new x(r,n);let o=t.children;for(let t=0,r=o.length;t&lt;r;++t){e[3*t+1]=[],e[3*t+2]=[],e[3*t+3]=[],s[t+1]=[];let r=o[t].children;for(let n=0,o=r.length;n&lt;o;++n){let o=r[n].children;for(let r=0,i=o.length;r&lt;i;++r){let i=r;0!==t&amp;&amp;++i;let h,d=o[r].getAttribute("path"),c="l";null!=d&amp;&amp;(c=(h=d.match(/\s*([lLcC])\s*(.*)/))[1]);let u=l(h[2]);switch(c){case"l":0===i?(e[3*t][3*n+3]=u[0].add(e[3*t][3*n]),e[3*t][3*n+1]=a(e[3*t][3*n],e[3*t][3*n+3]),e[3*t][3*n+2]=a(e[3*t][3*n+3],e[3*t][3*n])):1===i?(e[3*t+3][3*n+3]=u[0].add(e[3*t][3*n+3]),e[3*t+1][3*n+3]=a(e[3*t][3*n+3],e[3*t+3][3*n+3]),e[3*t+2][3*n+3]=a(e[3*t+3][3*n+3],e[3*t][3*n+3])):2===i?(0===n&amp;&amp;(e[3*t+3][3*n+0]=u[0].add(e[3*t+3][3*n+3])),e[3*t+3][3*n+1]=a(e[3*t+3][3*n],e[3*t+3][3*n+3]),e[3*t+3][3*n+2]=a(e[3*t+3][3*n+3],e[3*t+3][3*n])):(e[3*t+1][3*n]=a(e[3*t][3*n],e[3*t+3][3*n]),e[3*t+2][3*n]=a(e[3*t+3][3*n],e[3*t][3*n]));break;case"L":0===i?(e[3*t][3*n+3]=u[0],e[3*t][3*n+1]=a(e[3*t][3*n],e[3*t][3*n+3]),e[3*t][3*n+2]=a(e[3*t][3*n+3],e[3*t][3*n])):1===i?(e[3*t+3][3*n+3]=u[0],e[3*t+1][3*n+3]=a(e[3*t][3*n+3],e[3*t+3][3*n+3]),e[3*t+2][3*n+3]=a(e[3*t+3][3*n+3],e[3*t][3*n+3])):2===i?(0===n&amp;&amp;(e[3*t+3][3*n+0]=u[0]),e[3*t+3][3*n+1]=a(e[3*t+3][3*n],e[3*t+3][3*n+3]),e[3*t+3][3*n+2]=a(e[3*t+3][3*n+3],e[3*t+3][3*n])):(e[3*t+1][3*n]=a(e[3*t][3*n],e[3*t+3][3*n]),e[3*t+2][3*n]=a(e[3*t+3][3*n],e[3*t][3*n]));break;case"c":0===i?(e[3*t][3*n+1]=u[0].add(e[3*t][3*n]),e[3*t][3*n+2]=u[1].add(e[3*t][3*n]),e[3*t][3*n+3]=u[2].add(e[3*t][3*n])):1===i?(e[3*t+1][3*n+3]=u[0].add(e[3*t][3*n+3]),e[3*t+2][3*n+3]=u[1].add(e[3*t][3*n+3]),e[3*t+3][3*n+3]=u[2].add(e[3*t][3*n+3])):2===i?(e[3*t+3][3*n+2]=u[0].add(e[3*t+3][3*n+3]),e[3*t+3][3*n+1]=u[1].add(e[3*t+3][3*n+3]),0===n&amp;&amp;(e[3*t+3][3*n+0]=u[2].add(e[3*t+3][3*n+3]))):(e[3*t+2][3*n]=u[0].add(e[3*t+3][3*n]),e[3*t+1][3*n]=u[1].add(e[3*t+3][3*n]));break;case"C":0===i?(e[3*t][3*n+1]=u[0],e[3*t][3*n+2]=u[1],e[3*t][3*n+3]=u[2]):1===i?(e[3*t+1][3*n+3]=u[0],e[3*t+2][3*n+3]=u[1],e[3*t+3][3*n+3]=u[2]):2===i?(e[3*t+3][3*n+2]=u[0],e[3*t+3][3*n+1]=u[1],0===n&amp;&amp;(e[3*t+3][3*n+0]=u[2])):(e[3*t+2][3*n]=u[0],e[3*t+1][3*n]=u[1]);break;default:console.error("mesh.js: "+c+" invalid path type.")}if(0===t&amp;&amp;0===n||r&gt;0){let e=window.getComputedStyle(o[r]).stopColor.match(/^rgb\s*\(\s*(\d+)\s*,\s*(\d+)\s*,\s*(\d+)\s*\)$/i),a=window.getComputedStyle(o[r]).stopOpacity,h=255;a&amp;&amp;(h=Math.floor(255*a)),e&amp;&amp;(0===i?(s[t][n]=[],s[t][n][0]=Math.floor(e[1]),s[t][n][1]=Math.floor(e[2]),s[t][n][2]=Math.floor(e[3]),s[t][n][3]=h):1===i?(s[t][n+1]=[],s[t][n+1][0]=Math.floor(e[1]),s[t][n+1][1]=Math.floor(e[2]),s[t][n+1][2]=Math.floor(e[3]),s[t][n+1][3]=h):2===i?(s[t+1][n+1]=[],s[t+1][n+1][0]=Math.floor(e[1]),s[t+1][n+1][1]=Math.floor(e[2]),s[t+1][n+1][2]=Math.floor(e[3]),s[t+1][n+1][3]=h):3===i&amp;&amp;(s[t+1][n]=[],s[t+1][n][0]=Math.floor(e[1]),s[t+1][n][1]=Math.floor(e[2]),s[t+1][n][2]=Math.floor(e[3]),s[t+1][n][3]=h))}}e[3*t+1][3*n+1]=new x,e[3*t+1][3*n+2]=new x,e[3*t+2][3*n+1]=new x,e[3*t+2][3*n+2]=new x,e[3*t+1][3*n+1].x=(-4*e[3*t][3*n].x+6*(e[3*t][3*n+1].x+e[3*t+1][3*n].x)+-2*(e[3*t][3*n+3].x+e[3*t+3][3*n].x)+3*(e[3*t+3][3*n+1].x+e[3*t+1][3*n+3].x)+-1*e[3*t+3][3*n+3].x)/9,e[3*t+1][3*n+2].x=(-4*e[3*t][3*n+3].x+6*(e[3*t][3*n+2].x+e[3*t+1][3*n+3].x)+-2*(e[3*t][3*n].x+e[3*t+3][3*n+3].x)+3*(e[3*t+3][3*n+2].x+e[3*t+1][3*n].x)+-1*e[3*t+3][3*n].x)/9,e[3*t+2][3*n+1].x=(-4*e[3*t+3][3*n].x+6*(e[3*t+3][3*n+1].x+e[3*t+2][3*n].x)+-2*(e[3*t+3][3*n+3].x+e[3*t][3*n].x)+3*(e[3*t][3*n+1].x+e[3*t+2][3*n+3].x)+-1*e[3*t][3*n+3].x)/9,e[3*t+2][3*n+2].x=(-4*e[3*t+3][3*n+3].x+6*(e[3*t+3][3*n+2].x+e[3*t+2][3*n+3].x)+-2*(e[3*t+3][3*n].x+e[3*t][3*n+3].x)+3*(e[3*t][3*n+2].x+e[3*t+2][3*n].x)+-1*e[3*t][3*n].x)/9,e[3*t+1][3*n+1].y=(-4*e[3*t][3*n].y+6*(e[3*t][3*n+1].y+e[3*t+1][3*n].y)+-2*(e[3*t][3*n+3].y+e[3*t+3][3*n].y)+3*(e[3*t+3][3*n+1].y+e[3*t+1][3*n+3].y)+-1*e[3*t+3][3*n+3].y)/9,e[3*t+1][3*n+2].y=(-4*e[3*t][3*n+3].y+6*(e[3*t][3*n+2].y+e[3*t+1][3*n+3].y)+-2*(e[3*t][3*n].y+e[3*t+3][3*n+3].y)+3*(e[3*t+3][3*n+2].y+e[3*t+1][3*n].y)+-1*e[3*t+3][3*n].y)/9,e[3*t+2][3*n+1].y=(-4*e[3*t+3][3*n].y+6*(e[3*t+3][3*n+1].y+e[3*t+2][3*n].y)+-2*(e[3*t+3][3*n+3].y+e[3*t][3*n].y)+3*(e[3*t][3*n+1].y+e[3*t+2][3*n+3].y)+-1*e[3*t][3*n+3].y)/9,e[3*t+2][3*n+2].y=(-4*e[3*t+3][3*n+3].y+6*(e[3*t+3][3*n+2].y+e[3*t+2][3*n+3].y)+-2*(e[3*t+3][3*n].y+e[3*t][3*n+3].y)+3*(e[3*t][3*n+2].y+e[3*t+2][3*n].y)+-1*e[3*t][3*n].y)/9}}this.nodes=e,this.colors=s}paintMesh(t,e){let s=(this.nodes.length-1)/3,r=(this.nodes[0].length-1)/3;if("bilinear"===this.type||s&lt;2||r&lt;2){let n;for(let o=0;o&lt;s;++o)for(let s=0;s&lt;r;++s){let r=[];for(let t=3*o,e=3*o+4;t&lt;e;++t)r.push(this.nodes[t].slice(3*s,3*s+4));let i=[];i.push(this.colors[o].slice(s,s+2)),i.push(this.colors[o+1].slice(s,s+2)),(n=new m(r,i)).paint(t,e)}}else{let n,o,a,h,l,d,u;const x=s,g=r;s++,r++;let w=new Array(s);for(let t=0;t&lt;s;++t){w[t]=new Array(r);for(let e=0;e&lt;r;++e)w[t][e]=[],w[t][e][0]=this.nodes[3*t][3*e],w[t][e][1]=this.colors[t][e]}for(let t=0;t&lt;s;++t)for(let e=0;e&lt;r;++e)0!==t&amp;&amp;t!==x&amp;&amp;(n=i(w[t-1][e][0],w[t][e][0]),o=i(w[t+1][e][0],w[t][e][0]),w[t][e][2]=c(w[t-1][e][1],w[t][e][1],w[t+1][e][1],n,o)),0!==e&amp;&amp;e!==g&amp;&amp;(n=i(w[t][e-1][0],w[t][e][0]),o=i(w[t][e+1][0],w[t][e][0]),w[t][e][3]=c(w[t][e-1][1],w[t][e][1],w[t][e+1][1],n,o));for(let t=0;t&lt;r;++t){w[0][t][2]=[],w[x][t][2]=[];for(let e=0;e&lt;4;++e)n=i(w[1][t][0],w[0][t][0]),o=i(w[x][t][0],w[x-1][t][0]),w[0][t][2][e]=n&gt;0?2*(w[1][t][1][e]-w[0][t][1][e])/n-w[1][t][2][e]:0,w[x][t][2][e]=o&gt;0?2*(w[x][t][1][e]-w[x-1][t][1][e])/o-w[x-1][t][2][e]:0}for(let t=0;t&lt;s;++t){w[t][0][3]=[],w[t][g][3]=[];for(let e=0;e&lt;4;++e)n=i(w[t][1][0],w[t][0][0]),o=i(w[t][g][0],w[t][g-1][0]),w[t][0][3][e]=n&gt;0?2*(w[t][1][1][e]-w[t][0][1][e])/n-w[t][1][3][e]:0,w[t][g][3][e]=o&gt;0?2*(w[t][g][1][e]-w[t][g-1][1][e])/o-w[t][g-1][3][e]:0}for(let s=0;s&lt;x;++s)for(let r=0;r&lt;g;++r){let n=i(w[s][r][0],w[s+1][r][0]),o=i(w[s][r+1][0],w[s+1][r+1][0]),c=i(w[s][r][0],w[s][r+1][0]),x=i(w[s+1][r][0],w[s+1][r+1][0]),g=[[],[],[],[]];for(let t=0;t&lt;4;++t){(d=[])[0]=w[s][r][1][t],d[1]=w[s+1][r][1][t],d[2]=w[s][r+1][1][t],d[3]=w[s+1][r+1][1][t],d[4]=w[s][r][2][t]*n,d[5]=w[s+1][r][2][t]*n,d[6]=w[s][r+1][2][t]*o,d[7]=w[s+1][r+1][2][t]*o,d[8]=w[s][r][3][t]*c,d[9]=w[s+1][r][3][t]*x,d[10]=w[s][r+1][3][t]*c,d[11]=w[s+1][r+1][3][t]*x,d[12]=0,d[13]=0,d[14]=0,d[15]=0,u=f(d);for(let e=0;e&lt;9;++e){g[t][e]=[];for(let s=0;s&lt;9;++s)g[t][e][s]=p(u,e/8,s/8),g[t][e][s]&gt;255?g[t][e][s]=255:g[t][e][s]&lt;0&amp;&amp;(g[t][e][s]=0)}}h=[];for(let t=3*s,e=3*s+4;t&lt;e;++t)h.push(this.nodes[t].slice(3*r,3*r+4));l=y(h);for(let s=0;s&lt;8;++s)for(let r=0;r&lt;8;++r)(a=new m(l[s][r],[[[g[0][s][r],g[1][s][r],g[2][s][r],g[3][s][r]],[g[0][s][r+1],g[1][s][r+1],g[2][s][r+1],g[3][s][r+1]]],[[g[0][s+1][r],g[1][s+1][r],g[2][s+1][r],g[3][s+1][r]],[g[0][s+1][r+1],g[1][s+1][r+1],g[2][s+1][r+1],g[3][s+1][r+1]]]])).paint(t,e)}}}transform(t){if(t instanceof x)for(let e=0,s=this.nodes.length;e&lt;s;++e)for(let s=0,r=this.nodes[0].length;s&lt;r;++s)this.nodes[e][s]=this.nodes[e][s].add(t);else if(t instanceof g)for(let e=0,s=this.nodes.length;e&lt;s;++e)for(let s=0,r=this.nodes[0].length;s&lt;r;++s)this.nodes[e][s]=this.nodes[e][s].transform(t)}scale(t){for(let e=0,s=this.nodes.length;e&lt;s;++e)for(let s=0,r=this.nodes[0].length;s&lt;r;++s)this.nodes[e][s]=this.nodes[e][s].scale(t)}}document.querySelectorAll("rect,circle,ellipse,path,text").forEach((r,n)=&gt;{let o=r.getAttribute("id");o||(o="patchjs_shape"+n,r.setAttribute("id",o));const i=r.style.fill.match(/^url\(\s*"?\s*#([^\s"]+)"?\s*\)/),a=r.style.stroke.match(/^url\(\s*"?\s*#([^\s"]+)"?\s*\)/);if(i&amp;&amp;i[1]){const a=document.getElementById(i[1]);if(a&amp;&amp;"meshgradient"===a.nodeName){const i=r.getBBox();let l=document.createElementNS(s,"canvas");d(l,{width:i.width,height:i.height});const c=l.getContext("2d");let u=c.createImageData(i.width,i.height);const f=new b(a);"objectBoundingBox"===a.getAttribute("gradientUnits")&amp;&amp;f.scale(new x(i.width,i.height));const p=a.getAttribute("gradientTransform");null!=p&amp;&amp;f.transform(h(p)),"userSpaceOnUse"===a.getAttribute("gradientUnits")&amp;&amp;f.transform(new x(-i.x,-i.y)),f.paintMesh(u.data,l.width),c.putImageData(u,0,0);const y=document.createElementNS(t,"image");d(y,{width:i.width,height:i.height,x:i.x,y:i.y});let g=l.toDataURL();y.setAttributeNS(e,"xlink:href",g),r.parentNode.insertBefore(y,r),r.style.fill="none";const w=document.createElementNS(t,"use");w.setAttributeNS(e,"xlink:href","#"+o);const m="patchjs_clip"+n,M=document.createElementNS(t,"clipPath");M.setAttribute("id",m),M.appendChild(w),r.parentElement.insertBefore(M,r),y.setAttribute("clip-path","url(#"+m+")"),u=null,l=null,g=null}}if(a&amp;&amp;a[1]){const o=document.getElementById(a[1]);if(o&amp;&amp;"meshgradient"===o.nodeName){const i=parseFloat(r.style.strokeWidth.slice(0,-2))*(parseFloat(r.style.strokeMiterlimit)||parseFloat(r.getAttribute("stroke-miterlimit"))||1),a=r.getBBox(),l=Math.trunc(a.width+i),c=Math.trunc(a.height+i),u=Math.trunc(a.x-i/2),f=Math.trunc(a.y-i/2);let p=document.createElementNS(s,"canvas");d(p,{width:l,height:c});const y=p.getContext("2d");let g=y.createImageData(l,c);const w=new b(o);"objectBoundingBox"===o.getAttribute("gradientUnits")&amp;&amp;w.scale(new x(l,c));const m=o.getAttribute("gradientTransform");null!=m&amp;&amp;w.transform(h(m)),"userSpaceOnUse"===o.getAttribute("gradientUnits")&amp;&amp;w.transform(new x(-u,-f)),w.paintMesh(g.data,p.width),y.putImageData(g,0,0);const M=document.createElementNS(t,"image");d(M,{width:l,height:c,x:0,y:0});let S=p.toDataURL();M.setAttributeNS(e,"xlink:href",S);const k="pattern_clip"+n,A=document.createElementNS(t,"pattern");d(A,{id:k,patternUnits:"userSpaceOnUse",width:l,height:c,x:u,y:f}),A.appendChild(M),o.parentNode.appendChild(A),r.style.stroke="url(#"+k+")",g=null,p=null,S=null}}})}();</script>
</svg>
