<!-- Created with Inkscape (http://www.inkscape.org/) -->
<svg id="svg5" width="1920" height="1080" version="1.1" viewBox="0 0 507.99999 285.75" xmlns="http://www.w3.org/2000/svg" xmlns:xlink="http://www.w3.org/1999/xlink">
 <defs id="defs2">
  <filter id="filter1223" x="-.0170172" y="-.042721745" width="1.0340344" height="1.0854435" style="color-interpolation-filters:sRGB">
   <feGaussianBlur id="feGaussianBlur1225" stdDeviation="0.79063366"/>
  </filter>
  <filter id="filter1238" x="-.016753407" y="-.01470722" width="1.0335068" height="1.0294144" style="color-interpolation-filters:sRGB">
   <feGaussianBlur id="feGaussianBlur1240" stdDeviation="0.13153365"/>
  </filter>
  <linearGradient id="linearGradient1288" x1="-448.61905" x2="-490.20139" y1="227.69194" y2="249.49982" gradientTransform="translate(103.87224,-102.8593)" gradientUnits="userSpaceOnUse">
   <stop id="stop1247" style="stop-color:#2e3440" offset="0"/>
   <stop id="stop1249" style="stop-color:#2e3440;stop-opacity:.15" offset="1"/>
  </linearGradient>
  <linearGradient id="linearGradient1290" x1="-498.34351" x2="-506.85114" y1="218.45447" y2="245.89732" gradientTransform="translate(103.87224,-102.8593)" gradientUnits="userSpaceOnUse">
   <stop id="stop492" style="stop-color:#434c5e" offset="0"/>
   <stop id="stop494" style="stop-color:#3b4252" offset="1"/>
  </linearGradient>
  <linearGradient id="linearGradient1292" x1="-486.74216" x2="-490.91388" y1="205.38184" y2="230.65576" gradientTransform="matrix(3.9947945,0,0,3.2080624,2250.2268,-591.24699)" gradientUnits="userSpaceOnUse">
   <stop id="stop420" style="stop-color:#434c5e" offset="0"/>
   <stop id="stop422" style="stop-color:#3b4252" offset="1"/>
  </linearGradient>
  <linearGradient id="linearGradient1294" x1="-488.1965" x2="-488.1965" y1="184.65875" y2="211.53372" gradientTransform="matrix(3.9947945,0,0,3.2080624,2250.2268,-591.24699)" gradientUnits="userSpaceOnUse">
   <stop id="stop1192" style="stop-color:#5e81ac" offset="0"/>
   <stop id="stop1194" style="stop-color:#7b88a1" offset="1"/>
  </linearGradient>
  <filter id="filter2108" x="-.095722792" y="-.17041926" width="1.1914456" height="1.3408385" style="color-interpolation-filters:sRGB">
   <feGaussianBlur id="feGaussianBlur2110" stdDeviation="2.6916731"/>
  </filter>
  <filter id="filter1178" x="-.04799993" y="-.04799993" width="1.0959999" height="1.0959999" color-interpolation-filters="sRGB">
   <feGaussianBlur id="feGaussianBlur2" stdDeviation="0.30691955"/>
  </filter>
  <linearGradient id="linearGradient1340" x1="8.4769001" x2="8.4890003" y1="15.678" y2="1.1562001" gradientUnits="userSpaceOnUse">
   <stop id="stop5" stop-color="#2e3440" offset="0"/>
   <stop id="stop7" stop-color="#4c566a" offset="1"/>
  </linearGradient>
  <filter id="filter1649" x="-.45609538" y="-.081641591" width="1.9121908" height="1.1632832" color-interpolation-filters="sRGB">
   <feGaussianBlur id="feGaussianBlur13" stdDeviation="0.41250027"/>
  </filter>
  <filter id="filter978" x="-.31953473" y="-.064978365" width="1.6390695" height="1.1299567" color-interpolation-filters="sRGB">
   <feGaussianBlur id="feGaussianBlur10" stdDeviation="0.28826028"/>
  </filter>
 </defs>
 <g id="layer1">
  <g id="g1013">
   <path id="path1272" d="m3.7744195e-5 -1.759104e-6h508v285.74998h-508z" style="fill:url(#linearGradient1294)"/>
   <path id="path1276" d="m3.7744195e-5 73.836538c74.76186-35.505359 80.395439-33.474367 80.395439-33.474367 60.819463 13.94349 205.63736 15.640588 205.63736 15.640588-26.5264 38.286973 85.75337 42.681922 85.75337 42.681922s105.18011 11.163869 101.03878 74.235909c-6.42295 97.82092-160.33982 44.79784-160.33982 44.79784-204.89589-46.59599-260.42601-74.84343-312.48513-86.20616z" style="fill:url(#linearGradient1292)"/>
   <path id="path1278" transform="matrix(3.9947945,0,0,3.2080624,1835.2785,-261.26794)" d="m-446.26886 109.36289c-0.4413 0.0253-2.74738 0.56218-13.14855 6.45283v6.61976c13.03173 3.54192 26.93247 12.3471 78.22313 26.87174 0 0 21.77627 9.33966 33.26929 1.01906 0.69351-19.33818-25.30388-22.77794-25.30388-22.77794s-28.10662-1.37001-21.46639-13.30461c0 0-36.25178-0.52877-51.47645-4.87516 0 0-0.022-0.01-0.0971-6e-3z" style="fill:url(#linearGradient1290);filter:url(#filter1223)"/>
   <path id="path1280" transform="matrix(3.9947945,0,0,3.2080624,1835.2785,-261.26794)" d="m-440.57463 94.3514c-1.9522 0.72146-6.81602 2.99296-18.84278 10.10533v11.35899c0.65007-0.36816 1.26839-0.7153 1.85674-1.04283 0.58835-0.32752 1.14671-0.63525 1.67638-0.92449s1.03078-0.56006 1.50482-0.81338c0.47403-0.25333 0.92111-0.48923 1.34255-0.70901 0.42144-0.21977 0.81719-0.42326 1.18908-0.61184 0.37188-0.18859 0.72004-0.36217 1.04541-0.52194 0.32537-0.15976 0.62812-0.30594 0.91002-0.43925 0.28191-0.1333 0.54297-0.25407 0.78445-0.36328 0.24148-0.10922 0.46305-0.20707 0.66714-0.29456 0.2041-0.0875 0.39042-0.16442 0.56018-0.23254 0.16975-0.0681 0.32301-0.12717 0.46147-0.17828 0.13845-0.0511 0.26239-0.0943 0.37258-0.13075 0.1102-0.0365 0.207-0.0662 0.29197-0.0904 0.085-0.0242 0.15786-0.0431 0.22066-0.0574s0.1155-0.0242 0.15917-0.031c0.0437-7e-3 0.0784-0.0103 0.10593-0.0119 5e-3 -3e-4 8e-3 -3.5e-4 0.0129-5.2e-4 1.23654-4.37402 2.68788-9.76719 5.68131-15.01097z" style="fill:#434c5e;filter:url(#filter1238)"/>
   <path id="path1282" transform="matrix(3.9947945,0,0,3.2080624,1835.2785,-261.26794)" d="m-354.38661 115.87257-54.12745 25.15919c7.73047 2.51798 16.71569 5.27256 27.31978 8.27546 0 0 38.52926 16.52766 40.13709-13.96452 0.54704-10.3745-6.52599-16.24042-13.32942-19.47013z" style="fill:url(#linearGradient1288);filter:url(#filter2108);mix-blend-mode:normal"/>
   <path id="path1274" d="m0 131.51239s286.03284-75.509631 286.03267-75.509607zm286.03267-75.509607c-26.52637 38.286935 85.75342 42.682149 85.75342 42.682149s105.18012 11.163798 101.0388 74.235778c-6.42295 97.82082-160.33957 44.79778-160.33957 44.79778-204.89569-46.59594-260.42625-74.84339-312.48532-86.2061v154.23761h508v-170.03407c-35.7616-16.241956-193.3612-46.315297-221.96733-59.713147z" style="fill:#4c566a"/>
   <path id="path2122" d="m0 131.51239s286.03284-75.509631 286.03267-75.509607zm286.03267-75.509607c-26.52637 38.286935 85.75342 42.682149 85.75342 42.682149s105.18012 11.163798 101.0388 74.235778c-6.42295 97.82082-160.33957 44.79778-160.33957 44.79778-204.89569-46.59594-260.42625-74.84339-312.48532-86.2061v154.23761h508v-170.03407c-35.7616-16.241956-193.3612-46.315297-221.96733-59.713147z" style="fill:#4c566a"/>
   <path id="path2124" d="m0 131.51239s286.03284-75.509631 286.03267-75.509607zm286.03267-75.509607c-26.52637 38.286935 85.75342 42.682149 85.75342 42.682149s105.18012 11.163798 101.0388 74.235778c-6.42295 97.82082-160.33957 44.79778-160.33957 44.79778-204.89569-46.59594-260.42625-74.84339-312.48532-86.2061v154.23761h508v-170.03407c-35.7616-16.241956-193.3612-46.315297-221.96733-59.713147z" style="fill:#4c566a"/>
   <path id="path2126" d="m0 131.51239s286.03284-75.509631 286.03267-75.509607zm286.03267-75.509607c-26.52637 38.286935 85.75342 42.682149 85.75342 42.682149s105.18012 11.163798 101.0388 74.235778c-6.42295 97.82082-160.33957 44.79778-160.33957 44.79778-204.89569-46.59594-260.42625-74.84339-312.48532-86.2061v154.23761h508v-170.03407c-35.7616-16.241956-193.3612-46.315297-221.96733-59.713147z" style="fill:#4c566a"/>
   <path id="path2128" d="m0 131.51239s286.03284-75.509631 286.03267-75.509607zm286.03267-75.509607c-26.52637 38.286935 85.75342 42.682149 85.75342 42.682149s105.18012 11.163798 101.0388 74.235778c-6.42295 97.82082-160.33957 44.79778-160.33957 44.79778-204.89569-46.59594-260.42625-74.84339-312.48532-86.2061v154.23761h508v-170.03407c-35.7616-16.241956-193.3612-46.315297-221.96733-59.713147z" style="fill:#4c566a"/>
  </g>
  <g id="g864" transform="matrix(8.8221686,0,0,8.8221686,179.23964,68.155488)">
   <rect id="rect18" transform="matrix(.99138 0 0 1 .072989 .1117)" x=".79374999" y=".79374999" width="15.346" height="15.346" rx="3.0525999" ry="3.0525999" fill="#2e3440" filter="url(#filter1178)" opacity=".2" stroke-linecap="round" stroke-linejoin="round" stroke-width="1.2489"/>
   <rect id="rect20" x=".92603999" y=".92603999" width="15.081" height="15.081" rx="3" ry="3" fill="url(#linearGradient1340)" stroke-linecap="round" stroke-linejoin="round" stroke-width="1.2274" style="fill:url(#linearGradient1340)"/>
   <rect id="rect22" x=".01215" y=".0060174" width="16.924" height="16.927" fill="none" opacity=".15" stroke-linecap="round" stroke-linejoin="round" stroke-width="1.052"/>
   <g id="g34" transform="matrix(1.028 0 0 1.028 -15.317 .082262)">
    <rect id="rect24" x="24.958" y="2.8325" width="2.1651001" height="10.647" fill="#8fbcbb" stroke-linecap="round" stroke-linejoin="round" stroke-width="2.8413"/>
    <path id="path26" transform="rotate(-30)" d="m14.875 13.109h2.1651l0.0055 11.591-0.29555 0.53518-1.875-1.0825z" fill="#2e3440" filter="url(#filter1649)"/>
    <path id="path28" transform="rotate(-30)" d="m14.875 13.109h2.1651l0.0055 11.591-0.29555 0.53518-1.875-1.0825z" fill="#8fbcbb"/>
    <rect id="rect30" x="19.146999" y="2.8325" width="2.1651001" height="10.647" fill="#2e3440" filter="url(#filter978)" stroke-linecap="round" stroke-linejoin="round" stroke-width="2.8413"/>
    <rect id="rect32" x="19.146999" y="2.8325" width="2.1651001" height="10.647" fill="#8fbcbb" stroke-linecap="round" stroke-linejoin="round" stroke-width="2.8413"/>
   </g>
  </g>
 </g>
</svg>
