<svg width="64" height="64" version="1.1" viewBox="0 0 16.933 16.933" xmlns="http://www.w3.org/2000/svg">
 <defs>
  <filter id="filter2347-3" x="-.024546" y="-.029999" width="1.0491" height="1.06" color-interpolation-filters="sRGB">
   <feGaussianBlur stdDeviation="0.14938518"/>
  </filter>
  <filter id="filter2161-7" x="-.024009" y="-.030842" width="1.048" height="1.0617" color-interpolation-filters="sRGB">
   <feGaussianBlur stdDeviation="0.146119"/>
  </filter>
  <linearGradient id="linearGradient2575" x1="26.221" x2="26.221" y1="14.474" y2="3.3043" gradientUnits="userSpaceOnUse">
   <stop stop-color="#2e3440" stop-opacity=".15" offset="0"/>
   <stop stop-color="#2e3440" stop-opacity="0" offset="1"/>
  </linearGradient>
 </defs>
 <g transform="translate(2.4e-5,1.327e-4)">
  <g transform="translate(-17.964 -.21096)" stroke-linecap="round" stroke-linejoin="round">
   <g stroke-width=".16404">
    <path transform="matrix(1.01 0 0 1.01 17.858 -.15638)" d="m2.0282 2.7764h4.6989c0.58902 0 0.64003 1.0583 1.3149 1.0583h6.9051c0.4674 0 0.84368 0.37628 0.84368 0.84368v9.2054c0 0.4674-0.37628 0.84368-0.84368 0.84368h-12.919c-0.4674 0-0.84368-0.37628-0.84368-0.84368v-10.264c0-0.4674 0.37628-0.84368 0.84368-0.84368z" fill="#2e3440" filter="url(#filter2347-3)" opacity=".15"/>
    <path d="m19.971 2.6366h4.6989c0.58902 0 0.64003 1.0583 1.3149 1.0583h6.9051c0.4674 0 0.84368 0.37628 0.84368 0.84368v9.2054c0 0.4674-0.37628 0.84368-0.84368 0.84368h-12.919c-0.4674 0-0.84368-0.37628-0.84368-0.84368v-10.264c0-0.4674 0.37628-0.84368 0.84368-0.84368z" fill="#ebcb8b"/>
    <path d="m19.971 2.6366h4.6989c0.58902 0 0.64003 1.0583 1.3149 1.0583h6.9051c0.4674 0 0.84368 0.37628 0.84368 0.84368v9.2054c0 0.4674-0.37628 0.84368-0.84368 0.84368h-12.919c-0.4674 0-0.84368-0.37628-0.84368-0.84368v-10.264c0-0.4674 0.37628-0.84368 0.84368-0.84368z" fill="#2e3440" opacity=".15"/>
   </g>
   <g stroke-width=".16365">
    <path d="m19.971 3.8487h4.6989c0.58902 0 0.64003-1.0533 1.3149-1.0533h6.9051c0.4674 0 0.84368 0.3745 0.84368 0.83969v9.691c0 0.46519-0.37628 0.83969-0.84368 0.83969h-12.919c-0.4674 0-0.84368-0.3745-0.84368-0.83969v-8.6377c0-0.46519 0.37628-0.83969 0.84368-0.83969z" fill="#2e3440" filter="url(#filter2161-7)" opacity=".15"/>
    <path d="m19.971 4.2271h4.6989c0.58902 0 0.64003-1.0533 1.3149-1.0533h6.9051c0.4674 0 0.84368 0.3745 0.84368 0.83969v9.691c0 0.46519-0.37628 0.83969-0.84368 0.83969h-12.919c-0.4674 0-0.84368-0.3745-0.84368-0.83969v-8.6377c0-0.46519 0.37628-0.83969 0.84368-0.83969z" fill="#ebcb8b"/>
    <path d="m19.971 4.2271h4.6989c0.58902 0 0.64003-1.0533 1.3149-1.0533h6.9051c0.4674 0 0.84368 0.3745 0.84368 0.83969v9.691c0 0.46519-0.37628 0.83969-0.84368 0.83969h-12.919c-0.4674 0-0.84368-0.3745-0.84368-0.83969v-8.6377c0-0.46519 0.37628-0.83969 0.84368-0.83969z" fill="url(#linearGradient2575)"/>
   </g>
  </g>
 </g>
 <path d="m8.4461 6.3499c-0.36113 0.010643-0.64592 0.30708-0.64592 0.67098 3.33e-4 0.24496 0.13406 0.47028 0.34894 0.5879l-0.85817 0.76446-0.06637 0.056774-0.06658-0.056774v2.14e-4l-0.85817-0.76446c0.21488-0.11762 0.34863-0.34294 0.34894-0.5879 0-0.36496-0.28643-0.66189-0.64905-0.67098h-0.03757c-0.36113 0.010647-0.64592 0.30708-0.64592 0.67097 3.31e-4 0.24496 0.13406 0.47028 0.34894 0.5879l-0.85817 0.76446-0.04007 0.54804 0.68119-0.50671-0.07179 0.82394-0.7029 2.4021h0.52091l0.78617-2.0206 0.0038-2.139e-4 0.78638 2.0208h0.52091v-2.14e-4h0.38672l0.78617-2.0204h0.0038l0.78638 2.0208h0.90763l0.78617-2.0204h0.0037l0.78638 2.0208h0.52095l-0.70285-2.4021-0.07179-0.82396 0.68119 0.50673-0.04007-0.54804-0.85817-0.76446c0.21488-0.11762 0.34863-0.34296 0.34894-0.58792 0-0.36496-0.28643-0.66187-0.64905-0.67095h-0.03756c-0.36113 0.010647-0.64592 0.30705-0.64592 0.67095 3.34e-4 0.24496 0.13406 0.4703 0.34894 0.58792l-0.85818 0.76446v-2.141e-4l-0.06637 0.056705-0.06658-0.056514-0.85817-0.76444c0.21488-0.11762 0.34863-0.34296 0.34894-0.58792 0-0.36496-0.28643-0.66187-0.64905-0.67095zm-0.51402 2.0647-0.07179 0.82393-0.6359 2.173-0.63569-2.1727-0.07179-0.82394 0.68119 0.50671 0.02651 0.016555 0.02629-0.0168zm1.0687 0 0.68119 0.50671 0.02651 0.0168 0.02629-0.017027v2.137e-4l0.68119-0.50672-0.07179 0.82394-0.6359 2.1728-0.6357-2.1728z" opacity=".15" stroke-width=".23656"/>
</svg>
