<svg viewBox="0 0 16 16" xmlns="http://www.w3.org/2000/svg">
 <defs>
  <style id="current-color-scheme" type="text/css">
   .ColorScheme-Text { color:#2e3440; } .ColorScheme-Highlight { color:#88c0d0; } .ColorScheme-NeutralText { color:#d08770; } .ColorScheme-PositiveText { color:#a3be8c; } .ColorScheme-NegativeText { color:#bf616a; }
  </style>
 </defs>
 <path class="ColorScheme-Text" d="m3.4941 3c0.21739 1.4549 0.80082 3.1066 2.0781 4.502-0.34615 0.53288-0.60497 0.99577-1.0117 1.498h-2.5605v1h1.5781c-0.38712 0.32941-0.86995 0.6938-1.4961 1.1133l0.82812 0.98828c0.95444-0.70757 1.7195-1.4068 2.3711-2.1016h8.7188v-1h-7.8672c1.5511-2.0032 2.1888-3.979 2.8672-6h-1.2188c-0.4129 1.23-0.72519 2.2563-1.4375 3.3828-1.02-1.1588-1.3347-2.1455-1.5195-3.3828h-1.3301zm8.3867 0c-0.86759 0.0182-1.5333 0.15511-2.0176 0.35547l0.27344 0.90039c0.23203-0.0729 1.1085-0.32617 1.623-0.32617h0.072265c0.71627 0.0273 0.76562 0.26281 0.76562 0.81836v0.21875l-0.37305 0.054688c-1.7352 0.22769-2.6641 0.4189-2.6641 1.6211 0 0.83789 0.67573 1.3574 1.6543 1.3574 0.67591 0 1.1203-0.25548 1.5742-0.60156l0.14063 0.50977h1.0703v-3.3691c0-1.0291-0.78745-1.5391-1.998-1.5391h-0.12109zm0.7168 2.6777v1.1211c-0.37326 0.22769-0.65639 0.39062-1.1406 0.39062-0.43379 0-0.64453-0.24572-0.64453-0.5918 0-0.65574 0.63531-0.76505 1.4121-0.86523l0.37305-0.054688z" fill="currentColor"/>
</svg>
