<svg viewBox="0 0 16 16" xmlns="http://www.w3.org/2000/svg">
 <defs>
  <style id="current-color-scheme" type="text/css">
   .ColorScheme-Text { color:#2e3440; } .ColorScheme-Highlight { color:#88c0d0; } .ColorScheme-NeutralText { color:#d08770; } .ColorScheme-PositiveText { color:#a3be8c; } .ColorScheme-NegativeText { color:#bf616a; }
  </style>
 </defs>
 <path class="ColorScheme-Text" d="m5 2v10.938c-0.10672 0.019729-0.18855 0.043239-0.30078 0.0625l0.20898 1c0.031725-0.005445 0.060318-0.013884 0.091797-0.019531v0.019531h1v-0.24609c3.7507-1.0146 5.4492-3.5747 5.4492-5.7539h-1.1074c0 0.69264-0.34986 2.03-0.94922 2.5449-0.61184-0.57981-1.3495-1.4771-1.5273-2.5293l-0.89258-0.015625c0 1.4239 1.0073 2.6026 1.7637 3.3262-0.684 0.69482-1.4969 1.099-2.7363 1.4062v-10.732h-1zm4.332 0c-0.86759 0.0182-1.5333 0.15511-2.0176 0.35547l0.27148 0.90039c0.23203-0.0729 1.1105-0.32617 1.625-0.32617h0.070312c0.71627 0.0273 0.76562 0.26281 0.76562 0.81836v0.21875l-0.37305 0.054688c-1.7352 0.22769-2.6621 0.4189-2.6621 1.6211 0 0.83789 0.67573 1.3574 1.6543 1.3574 0.67591 0 1.1203-0.25548 1.5742-0.60156l0.14062 0.50977h1.0684v-3.3691c0-1.0291-0.7855-1.5391-1.9961-1.5391h-0.12109zm0.71484 2.6777v1.1191c-0.37326 0.22769-0.65443 0.39258-1.1387 0.39258-0.43379 0-0.64648-0.24572-0.64648-0.5918 0-0.65574 0.63531-0.76505 1.4121-0.86523l0.37305-0.054688z" fill="currentColor"/>
</svg>
