<svg viewBox="0 0 16 16" xmlns="http://www.w3.org/2000/svg">
 <defs>
  <style id="current-color-scheme" type="text/css">
   .ColorScheme-Text { color:#2e3440; } .ColorScheme-Highlight { color:#88c0d0; } .ColorScheme-NeutralText { color:#d08770; } .ColorScheme-PositiveText { color:#a3be8c; } .ColorScheme-NegativeText { color:#bf616a; }
  </style>
 </defs>
 <path class="ColorScheme-Text" d="m8 2c-1.6569 0-3 1.3431-3 3h-3v9h7v-1h-6v-7h2v1.0879c-0.59859 0.21163-0.99911 0.77721-1 1.4121 0 0.82843 0.67157 1.5 1.5 1.5s1.5-0.67157 1.5-1.5c-8.908e-4 -0.6349-0.40141-1.2005-1-1.4121v-1.0879h4v2h1v-2h2v3h1v-4h-3c0-1.6569-1.3431-3-3-3zm0 1c1.1046 0 2 0.89543 2 2h-4c0-1.1046 0.89543-2 2-2zm-2.5 5c0.27614 0 0.5 0.22386 0.5 0.5s-0.22386 0.5-0.5 0.5-0.5-0.22386-0.5-0.5 0.22386-0.5 0.5-0.5zm5.5 1v2h-2v1h2v2h1v-2h2v-1h-2v-2h-1z" fill="currentColor"/>
</svg>
