<svg viewBox="0 0 16 16" xmlns="http://www.w3.org/2000/svg">
 <defs>
  <style id="current-color-scheme" type="text/css">
   .ColorScheme-Text { color:#2e3440; } .ColorScheme-Highlight { color:#88c0d0; } .ColorScheme-NeutralText { color:#d08770; } .ColorScheme-PositiveText { color:#a3be8c; } .ColorScheme-NegativeText { color:#bf616a; }
  </style>
 </defs>
 <path class="ColorScheme-Text" d="m8 2c-1.657 0-3 1.343-3 3h-3v9h6v-1h-5v-7h2v1.0879c-0.599 0.212-0.999 0.77711-1 1.4121 0 0.828 0.672 1.5 1.5 1.5s1.5-0.672 1.5-1.5c-1e-3 -0.635-0.401-1.2001-1-1.4121v-1.0879h4v2h1v-2h2v2h1v-3h-3c0-1.657-1.343-3-3-3zm0 1c1.105 0 2 0.895 2 2h-4c0-1.105 0.895-2 2-2zm-2.5 5c0.276 0 0.5 0.224 0.5 0.5s-0.224 0.5-0.5 0.5-0.5-0.224-0.5-0.5 0.224-0.5 0.5-0.5z" fill="currentColor"/>
 <path class="ColorScheme-NegativeText" d="m9 9.83 1.667 1.667-1.667 1.667 0.833 0.833 1.667-1.667 1.667 1.667 0.833-0.833-1.667-1.667 1.667-1.667-0.833-0.833-1.667 1.667-1.667-1.667z" fill="currentColor"/>
</svg>
