<svg viewBox="0 0 16 16" xmlns="http://www.w3.org/2000/svg">
 <defs>
  <style id="current-color-scheme" type="text/css">
   .ColorScheme-Text { color:#2e3440; } .ColorScheme-Highlight { color:#88c0d0; } .ColorScheme-NeutralText { color:#d08770; } .ColorScheme-PositiveText { color:#a3be8c; } .ColorScheme-NegativeText { color:#bf616a; }
  </style>
 </defs>
 <path class="ColorScheme-Text" d="m8 2c-0.20249 0-0.40227 0.011655-0.59961 0.03125-0.81912 0.081338-1.5887 0.32782-2.2773 0.70508-0.17212 0.094296-0.34061 0.19648-0.50195 0.30664a6 6 0 0 0-0.12891 0.097656c-0.11285 0.081589-0.22527 0.1629-0.33203 0.25195a6 6 0 0 0-0.17188 0.15625c-0.092197 0.083144-0.18461 0.16526-0.27148 0.25391-0.0025787 0.0026312-0.0052386 0.0051765-0.0078125 0.0078125a6 6 0 0 0-0.013672 0.011719 6 6 0 0 0 0 0.0019532 6 6 0 0 0-0.13281 0.14844c-0.079838 0.087922-0.1598 0.17502-0.23438 0.26758-0.0020432 0.0025361-0.0038202 0.005273-0.0058594 0.0078125a6 6 0 0 0-0.021484 0.023438 6 6 0 0 0-0.066406 0.09375 6 6 0 0 0-0.017578 0.021484c-0.082533 0.1091-0.16322 0.21924-0.23828 0.33398a6 6 0 0 0-0.10742 0.17773c-0.06593 0.10879-0.13039 0.21886-0.18945 0.33203a6 6 0 0 0-0.089844 0.18555c-0.058714 0.12262-0.11556 0.24599-0.16602 0.37305-0.0020439 0.0051472-0.0038292 0.010471-0.0058593 0.015625a6 6 0 0 0-0.011719 0.023438 6 6 0 0 0-0.021484 0.066406 6 6 0 0 0-0.0078126 0.021484c-0.050466 0.13598-0.097988 0.27363-0.13867 0.41406a6 6 0 0 0-0.021484 0.070312 6 6 0 0 0-0.021484 0.095703 6 6 0 0 0-0.0058594 0.021484c-0.034658 0.13604-0.066616 0.27254-0.091797 0.41211a6 6 0 0 0-0.0019532 0.0058594 6 6 0 0 0-0.0097656 0.046875 6 6 0 0 0 0 0.0019531 6 6 0 0 0-0.0039062 0.033203 6 6 0 0 0-0.013672 0.10352c-0.018371 0.12479-0.034359 0.24979-0.044922 0.37695a6 6 0 0 0-0.0097656 0.080078 6 6 0 0 0 0 0.0019531 6 6 0 0 0-0.0019531 0.041016 6 6 0 0 0-0.013672 0.36328c-1.35e-5 0.0052594 0 0.010362 0 0.015625v0.0019531a6 6 0 0 0 0 0.0039063 6 6 0 0 0 0.029297 0.5957 6 6 0 0 0 0.0019531 0.011719 6 6 0 0 0 0.087891 0.58008 6 6 0 0 0 0 0.0039062 6 6 0 0 0 0 0.0019532c0.028303 0.13948 0.067671 0.27438 0.10547 0.41016a6 6 0 0 0 0.042969 0.16602 6 6 0 0 0 0.0019531 0.0058594v0.0019531c0.029162 0.09375 0.067988 0.18367 0.10156 0.27539a6 6 0 0 0 0.017578 0.048828c0.028406 0.075557 0.050699 0.15444 0.082031 0.22852a6 6 0 0 0 0.0019531 0.001953 6 6 0 0 0 0 0.003906c0.075286 0.17747 0.16055 0.34934 0.25195 0.51758a6 6 0 0 0 0.0097656 0.019531 6 6 0 0 0 0 0.001953 6 6 0 0 0 1.0156 1.3535c0.0025993 0.002609 0.0071615 0.007162 0.0097656 0.009766a6 6 0 0 0 0.060547 0.0625 6 6 0 0 0 0.79297 0.64453c0.013888 0.009515 0.027044 0.019895 0.041016 0.029297a6 6 0 0 0 0.42969 0.26172c0.026719 0.014897 0.05311 0.030423 0.080078 0.044921a6 6 0 0 0 0.38281 0.18555c0.056106 0.025195 0.11096 0.052667 0.16797 0.076172a6 6 0 0 0 0.41602 0.15039c0.040494 0.013283 0.080225 0.028576 0.12109 0.041015a6 6 0 0 0 0.44727 0.11524c0.045615 0.010098 0.09072 0.020244 0.13672 0.029297a6 6 0 0 0 0.5 0.076172c0.02422 0.00267 0.04796 0.007383 0.072266 0.009765a6 6 0 0 0 0.5918 0.035156 6 6 0 0 0 4.6289-2.1895c0.002985-0.003616 0.004837-0.008095 0.007813-0.011718a6 6 0 0 0 0.0625-0.072266 6 6 0 0 0 0.18555-0.25586c0.037683-0.052862 0.077289-0.10408 0.11328-0.1582a6 6 0 0 0 0.050781-0.072265 6 6 0 0 0 0-0.001953 6 6 0 0 0 0.14648-0.25195c0.034092-0.059057 0.069448-0.11743 0.10156-0.17774a6 6 0 0 0 0.14062-0.29102c0.042393-0.091165 0.085169-0.18181 0.12305-0.27539a6 6 0 0 0 0.03125-0.072266 6 6 0 0 0 0.058594-0.17383c0.036653-0.10337 0.07441-0.20661 0.10547-0.3125a6 6 0 0 0 0.025391-0.080078 6 6 0 0 0 0-0.0019531 6 6 0 0 0 0.019531-0.085938 6 6 0 0 0 0.017578-0.082031c7.97e-4 -0.0032254 0.001162-0.0065381 0.001953-0.0097656 0.026676-0.10883 0.053573-0.21706 0.074219-0.32812a6 6 0 0 0 0.017578-0.080078 6 6 0 0 0 0.023438-0.18359c0.014624-0.10435 0.027926-0.20846 0.037109-0.31445 1.12e-4 -0.0012873-1.1e-4 -0.0026188 0-0.0039063a6 6 0 0 0 0.00586-0.037109 6 6 0 0 0 0.005859-0.052734 6 6 0 0 0 0-0.0039063 6 6 0 0 0 0.015625-0.41992c1e-6 -0.0013154 0-0.0025907 0-0.0039063a6 6 0 0 0 0-0.0019531c0-0.0039456 8e-6 -0.007775 0-0.011719a6 6 0 0 0-0.029297-0.58203 6 6 0 0 0 0-0.0039062 6 6 0 0 0-0.001953-0.0058594 6 6 0 0 0 0-0.0078125 6 6 0 0 0 0-0.0019531c-0.019819-0.19513-0.049824-0.38702-0.087891-0.57617-0.039842-0.19797-0.089625-0.39163-0.14844-0.58203-0.11916-0.38579-0.27624-0.75531-0.4668-1.1035-0.096225-0.17583-0.20169-0.34714-0.31445-0.51172-0.10748-0.15687-0.22224-0.30747-0.34375-0.45312a6 6 0 0 0-0.14844-0.16406c-0.083592-0.093037-0.16667-0.18579-0.25586-0.27344a6 6 0 0 0-0.15234-0.13867c-0.093972-0.086241-0.18777-0.17177-0.28711-0.25195a6 6 0 0 0-0.14844-0.11133c-0.11053-0.083724-0.22157-0.16613-0.33789-0.24219a6 6 0 0 0-0.15039-0.091797c-0.11936-0.073149-0.24056-0.14414-0.36523-0.20898a6 6 0 0 0-0.13672-0.066406c-0.14013-0.06841-0.28175-0.13385-0.42773-0.19141a6 6 0 0 0-0.085938-0.03125c-0.14968-0.056377-0.30194-0.10787-0.45703-0.15234a6 6 0 0 0-0.15234-0.039062c-0.14806-0.038262-0.29696-0.072602-0.44922-0.099609a6 6 0 0 0-0.099609-0.015625c-0.15467-0.024757-0.31038-0.043946-0.46875-0.056641a6 6 0 0 0-0.33594-0.017578c-0.049835-0.0012226-0.098309-0.0078125-0.14844-0.0078125zm0 1.0059a5 5 0 0 1 0.37891 0.017578c0.040023 0.0036664 0.080401 0.0036342 0.12109 0.0078125 0.0031641 5.859e-4 0.0065594-3.327e-4 0.0097656 0a5 5 0 0 1 0.4082 0.0625c0.089002 0.020055 0.17696 0.039605 0.26953 0.0625 0.2565 0.063 0.51075 0.14875 0.75 0.25 0.132 0.0555 0.249 0.12075 0.375 0.1875 0 9e-3 7.5e-4 0.02 0 0.03125 0.02925 0.01275 0.045 0.06675 0.09375 0.09375 0.018 0.00975 0.014 0.02225 0.03125 0.03125 0.02925 0.01575 0.0685 0.034 0.0625 0.0625-0.00825 0.03975-0.066 0.03175-0.09375 0.0625 0.00375 0.05775-0.0475 0.05475-0.0625 0.09375 9e-3 0.02475 0.05875 0.0325 0.0625 0.0625-0.00525 0.03225-0.0745 0.0295-0.0625 0.0625 0.054 0.042 0.10525 0.00975 0.15625 0 0.11175-0.01425 0.21225-0.00775 0.28125-0.0625-9e-3 -0.05325 0.09975-0.04575 0.09375-0.09375 0.0285 0.021 0.06525 0.0415 0.09375 0.0625-0.0105 0.0105-0.01925 0.02525-0.03125 0.03125-0.021 0.00975-0.04375 0.01925-0.0625 0.03125-0.02775 0.018-0.0615 0.0415-0.09375 0.0625-0.02325 0.01575-0.06975 0.09375-0.09375 0.09375-0.02925 0-0.07275-0.03725-0.09375-0.03125-0.03 0.00975-0.02875 0.0505-0.0625 0.0625-0.066 0.024-0.1955-0.038453-0.21875 0.060547 0.02775 0.057 0.13725 0.031 0.1875 0.0625 0.03075 0.02025 0.0855 0.0905 0.09375 0.125 0.0082 0.02775 0.012 0.1575 0 0.1875-0.03075 0.08025-0.1265 0.064-0.21875 0.0625h-0.0625c-0.15525-0.00975-0.30525-0.07975-0.375 0.03125 0.00525 0.08475 0.01875 0.14645 0 0.2207-0.01425 0.054-0.09675 0.1078-0.09375 0.1543 0.0015 0.024 0.0565 0.06 0.0625 0.09375 0.00375 0.018-0.00825 0.046 0 0.0625 0.02625 0.04875 0.0785-0.00975 0.125 0 0.04425 0.00975 0.09375 0.0755 0.09375 0.125 0 0.03525-0.00875 0.092453-0.03125 0.12695-0.04425 0.066-0.1245 0.05775-0.1875 0.09375-0.05175 0.03-0.063 0.10255-0.09375 0.1543-0.033 0.05625-0.076 0.07675-0.0625 0.15625-0.045 0.08925-0.0945 0.14475-0.1875 0.1875-0.027 0.012-0.069 0.01325-0.09375 0.03125-0.02025 0.01425-0.03475 0.0615-0.0625 0.09375-0.03525 0.039-0.075 0.06375-0.09375 0.09375-0.01425 0.02325-0.01625 0.0615-0.03125 0.09375-0.02175 0.042-0.066 0.05175-0.09375 0.09375-0.01275 0.02025-0.017 0.0675-0.03125 0.09375-0.03225 0.05775-0.0685 0.10525-0.0625 0.15625 0.00525 0.048 0.0595 0.0495 0.0625 0.09375 3e-3 0.024-0.032 0.0355-0.03125 0.0625 0.0015 0.03825 0.02825 0.06375 0.03125 0.09375 0.00675 0.07425-0.049 0.106-0.0625 0.15625-0.00675 0.024 6e-3 0.043 0 0.0625-0.012 0.03675-0.06175 0.08075-0.0625 0.125-0.0015 0.03075 0.0595 0.0495 0.0625 0.09375 0.00225 0.02925-0.03725 0.066-0.03125 0.09375 0.01125 0.054 0.11425 0.11425 0.15625 0.15625 0.057 0.057 0.1315 0.09625 0.15625 0.15625 0.021 0.051 0.0235 0.14925 0.0625 0.1875 0.02925 0.02775 0.0875 0.0325 0.125 0.0625 0.03525 0.027 0.057 0.0325 0.09375 0.0625 0.06075 0.048 0.15325 0.1618 0.25 0.1543 0.051-0.0097501 0.09925-0.050797 0.15625-0.060547 0.05925-0.00975 0.1275-0.037703 0.1875-0.033203 0.04575 0.00975 0.1063 0.036203 0.1543 0.033203 0.05025-0.00975 0.09925-0.0092032 0.15625-0.033203 0.099-0.04275 0.26225-0.11475 0.40625-0.09375 0.11025 0.01575 0.11025 0.13875 0.1875 0.1875 0.08775 0.00975 0.1502-0.01725 0.2207 0 0.05325 0.01275 0.11975 0.084953 0.125 0.12695 0.0053 0.04275-0.0565 0.09725-0.0625 0.125-0.01425 0.05775 0.0097 0.1195 0 0.15625-0.0083 0.02925-0.032 0.0645-0.03125 0.09375 0 0.02625 0.0355 0.0905 0.0625 0.125 0.033 0.042 0.0845 0.07925 0.125 0.125 0.07275 0.084 0.10525 0.17025 0.15625 0.28125 0.01275 0.02775-0.012 0.05775 0 0.09375-0.02175 0.168-0.07725 0.28275-0.1875 0.46875-0.05175 0.06-0.1277 0.1125-0.12695 0.1875-0.0038 0.18 0.102 0.29475 0.09375 0.46875-0.018 0.234 0.018 0.24975 0 0.375 0.07875 0.03975 0.02325 0.1675 0 0.25-0.03375 0.099-0.075 0.1215-0.09375 0.1875 0.05325 0.02325 0.12825 0.0135 0.1875 0-0.03 0.0315-0.063 0.063-0.09375 0.09375-0.22296 0.22296-0.47647 0.43757-0.73828 0.61523-0.004156 0.00282-0.007559 0.006965-0.011719 0.009766a5 5 0 0 1-0.007813 0.003906c-0.21571 0.14532-0.44595 0.26619-0.68164 0.37891a5 5 0 0 1-0.23633 0.10742c-0.1882 0.07807-0.38592 0.13776-0.58594 0.19141a5 5 0 0 1-0.85742 0.14648c-0.13587 0.007513-0.2727 0.015625-0.41211 0.015625-0.1905 0-0.378-0.011403-0.5625-0.033203-0.049185-0.005521-0.097356-0.013533-0.14648-0.019532a5 5 0 0 1-0.38086-0.068359c-0.24926-0.062714-0.48811-0.16169-0.72266-0.25391-9e-3 -0.01725-0.0335-0.04225-0.03125-0.0625 0.05175-0.02175 0.14925 0.07425 0.1875 0 0.01875-0.03525-0.02475-0.12175 0-0.15625 0.018-0.024 0.1195-0.02375 0.15625-0.03125 0.05325-0.0098 0.12625-0.017 0.15625-0.03125 0.033-0.021 0.0685-0.09475 0.0625-0.15625-3e-3 -0.02925-0.04-0.037-0.0625-0.0625-0.01875-0.02175 0.01275-0.0415 0-0.0625-0.024-0.03525-0.084-0.04275-0.09375-0.09375 0.072-0.01425 0.177 0.05975 0.28125 0.03125 0.04875-0.01425 0.13375-0.1105 0.15625-0.15625 0.00675-0.01425-0.00825-0.0445 0-0.0625 9e-3 -0.018 0.02825-0.05275 0.03125-0.0625 0.00675-0.027-6e-3 -0.01325 0-0.03125 0.018-0.051 0.06375-0.08825 0.09375-0.125 0.02325-0.02775 0.07275-0.0645 0.09375-0.09375 0.024-0.03075 0.01475-0.03475 0.03125-0.0625 0.015-0.09075-0.053-0.1705-0.03125-0.25 0.024-0.09 0.163-0.14625 0.25-0.1875 0.03-0.01425 0.069-0.02225 0.09375-0.03125 0.06-0.021 0.13125-0.043 0.1875-0.0625 0.09375-0.03375 0.1105-0.10125 0.15625-0.1875 0.02175-0.03975 0.05875-0.09575 0.0625-0.125 0.00375-0.02625-0.00525-0.03175 0-0.0625 0.00525-0.02925-0.00825-0.06 0-0.09375 0.01125-0.04275 0.03125-0.1395 0.03125-0.1875 0-0.03975-0.02975-0.05775-0.03125-0.09375-0.00675-0.12975 0.04575-0.11625 0.09375-0.1875 0.024-0.03525 0.046-0.0995 0.0625-0.125 0.081-0.12 0.2285-0.16225 0.21875-0.34375-0.00375-0.06-0.0495-0.19925-0.09375-0.21875-0.02475-0.01125-0.057-0.01775-0.09375-0.03125-0.11775-0.04425-0.22075-0.17775-0.34375-0.1875h-0.0625c-0.048 0-0.10225-0.02375-0.15625-0.03125-0.03375-0.00975-0.10475 0.00975-0.125 0-0.03075-0.015-0.03775-0.0765-0.0625-0.09375-0.02025-0.01425-0.063-0.02-0.09375-0.03125-0.04875-0.018-0.068-0.05875-0.125-0.0625-0.018 0-0.043 0.00975-0.0625 0-0.03075-0.00975-0.0645-0.01325-0.09375-0.03125-0.036-0.02175-0.07875-0.03175-0.09375-0.0625 0.033-0.108-0.072-0.1245-0.09375-0.1875-0.00975-0.02925 0.00975-0.09875 0-0.125-0.01275-0.03675-0.0525-0.063-0.09375-0.09375-0.072-0.05625-0.11525-0.081-0.21875-0.09375-0.04575-0.00975-0.1015 0.00975-0.15625 0-0.05775-0.00975-0.14325-0.0435-0.1875-0.09375-0.042-0.04875-0.057-0.10175-0.09375-0.125-0.03525-0.02175-0.06975-0.04-0.09375-0.0625-0.01125-0.00975-0.02075-8e-3 -0.03125-0.03125-0.018-0.03675-0.053-0.04875-0.03125-0.09375-0.03975-0.02025-0.01975 0.038-0.0625 0.03125-0.039-0.05475-0.0685-0.1095-0.15625-0.09375-0.03975 0.00975-0.07775 0.093-0.125 0.09375-0.039 0-0.074-0.0855-0.125-0.09375-0.039-0.00975-0.098 0.03575-0.125 0.03125-0.04275-0.00975-0.05475-0.037-0.09375-0.0625-0.02925-0.01875-0.078-0.064-0.09375-0.0625-0.05025 0-0.08725 0.09925-0.15625 0.0625-0.03375-0.04275 0.071-0.054 0.03125-0.09375-0.03-0.02925-0.0385 0.017-0.0625 0.03125-0.02775 0.018-0.063 0.02-0.09375 0.03125-0.069 0.02625-0.1335 0.034-0.1875 0.0625-0.05025 0.02625-0.0645 0.04275-0.09375 0.09375-0.02325 0.042-0.0585 0.12275-0.09375 0.125-0.042 0-0.0555-0.044047-0.09375-0.060547-0.11475-0.05025-0.186 0.029-0.28125 0.03125-0.08775 0-0.2225-0.1355-0.21875-0.21875 3e-3 -0.051 0.02525-0.1245 0.03125-0.1875 0.00525-0.05025 0.06175-0.11125 0.0625-0.15625 7.5e-4 -0.06225-0.1165-0.087-0.15625-0.09375-0.09375-0.01725-0.20525 0.042-0.3125 0-0.02025-0.03375 0.01925-0.06 0.03125-0.09375 0.00675-0.018-0.00675-0.0415 0-0.0625 0.012-0.03225 0.07875-0.06 0.09375-0.09375 0.01125-0.02625-0.01125-0.06075 0-0.09375 0.01275-0.036 0.0595-0.0675 0.0625-0.09375 0.00375-0.03375-0.0355-0.072-0.0625-0.09375-0.08325 0.00975-0.1395 0.00725-0.1875 0.03125-0.108 0.04875-0.07875 0.18425-0.1875 0.21875-0.03675 0.012-0.083 0.02375-0.125 0.03125-0.016875 0.0091406-0.039206 0.0010355-0.058594 0a5 5 0 0 1 0.0019531-0.0078125 5 5 0 0 1 0.0019532-0.011719 5 5 0 0 1 0-0.0039063 5 5 0 0 1 0.013672-0.050781c0.0038334-0.0063262 0.0081251-0.0125 0.0097657-0.019531 0.07125-0.32475 0.18125-0.63975 0.3125-0.9375h0.03125c0.03825 0.00975 0.06075 0.0595 0.09375 0.0625 0.09225 0.00975 0.11175-0.0845 0.1875-0.125 0.078 0.01125 0.11625-0.00975 0.1875 0 0.048 0.00975 0.11875 0.05875 0.15625 0.0625 0.03225 0 0.0325-0.035 0.0625-0.03125 0.03 0.00975 0.0885 0.05775 0.09375 0.09375 0.00525 0.045-0.044 0.10675-0.03125 0.15625 0.04725 0.048 0.15125 0.066 0.21875 0.09375 0.04425-0.03675 0.00675-0.1045 0-0.15625-7.5e-4 -0.02325 3e-3 -0.07275 0-0.09375-0.00525-0.036-0.03125-0.063-0.03125-0.09375 0-0.14325 0.12275-0.1945 0.21875-0.25 0.04125-0.024 0.089-0.07575 0.125-0.09375 0.051-0.02475 0.083-0.00725 0.125-0.03125 0.07575-0.04275 0.12825-0.1075 0.1875-0.15625 0.027-0.06525-3e-3 -0.15425 0-0.21875 0.027-0.01725 0.0645 0 0.09375 0 0.04575-0.00975 0.0675-0.0675 0.09375-0.09375 0.015-0.015 0.0445-0.01625 0.0625-0.03125 0.04575-0.036 0.054-0.078 0.09375-0.09375 0.01425-0.00975 0.04075-0.025703 0.0625-0.033203 0.03-0.00975 0.077-0.01325 0.125-0.03125 0.03075-0.01125 0.113-0.01775 0.125-0.03125 0.015-0.015-0.00375-0.0705 0-0.09375 0.024-0.11325 0.18-0.11875 0.28125-0.15625 0.06975-0.02625 0.1427-0.108 0.2207-0.09375-0.015 0.054-0.076 0.05975-0.0625 0.125 0.01725 0.09075 0.12475-0.01775 0.15625-0.03125 0.06075-0.02625 0.16855-0.06375 0.24805-0.09375 0.06975-0.02475 0.19295-0.044 0.12695-0.125-0.05475-0.00975-0.078953 0.043-0.12695 0.0625-0.033 0.00975-0.032797-0.02825-0.060547-0.03125-0.027 0-0.0355 0.03575-0.0625 0.03125-0.027-0.00975-0.05875-0.06075-0.0625-0.09375-0.01125-0.084 0.06-0.09475 0.09375-0.15625-0.02325-0.07575-0.12375-0.0325-0.1875-0.0625 0.00675-0.045 0.0405-0.084 0.09375-0.09375 0.04275-0.00975 0.16125 8e-3 0.1875 0.03125 0.015 0.01275-0.02325 0.0415 0 0.0625 0.02625 0.02325 0.06 0.00975 0.09375 0 0.012-0.057-0.073-0.02575-0.0625-0.0625 0.06825-0.04425 0.198-0.02 0.28125-0.03125 0.048-0.00975 0.1135-0.04 0.15625-0.0625 0.03975-0.02325 0.05175-0.06875 0.09375-0.03125 0.012 0.04125-8e-3 0.072-0.03125 0.09375-0.07725 0.06825-0.15875 0.14-0.21875 0.21875 0.03675 0.036 0.092797 0.025703 0.1543 0.033203 0.024 0.00975 0.069-0.0075 0.09375 0 0.03 0.00975 0.06975-0.00975 0.09375 0 0.042 0.00975 0.05175 0.09375 0.09375 0.09375 0.06825 0 0.039-0.081203 0-0.12695 0.012-0.04725 0.049703-0.09125 0.033203-0.125-0.03075-0.06225-0.15025 0.0185-0.15625-0.0625-0.00375-0.05025 0.0445-0.0555 0.0625-0.09375-0.00825-0.096 0.071047-0.1005 0.060547-0.1875-0.00525-0.036-0.035797-0.026797-0.060547-0.060547-0.01275-0.018-0.018203-0.0795-0.033203-0.09375-0.05175-0.04425-0.1483-0.00975-0.1543-0.09375-3e-3 -0.05025 0.00675-0.103 0-0.15625-0.00675-0.051-0.0495-0.20825-0.09375-0.21875-0.05625-0.012-0.0895 0.0935-0.15625 0.125-0.036 0.01725-0.1195 0.03725-0.15625 0.03125-0.024-0.00975-0.0595-0.016-0.0625-0.0625-0.00375-0.04275 0.04675-0.0615 0.0625-0.09375 0.0035156-0.0077344-0.0012085-0.018679 0-0.029297a5 5 0 0 1 0.42383-0.095703c0.0045113-2.763e-4 0.0092969 0.0010937 0.013672 0 0.0899-0.016667 0.18173-0.02996 0.27344-0.042969a5 5 0 0 1 0.20312-0.023437c0.076395-0.0074625 0.15378-0.011214 0.23047-0.015625a5 5 0 0 1 0.19922-0.0058594zm-2.0293 0.46094v0.0019531c-0.0315 0.18225-0.2042 0.25525-0.4082 0.25-0.04575 0.04425-0.00575 0.12675-0.03125 0.1875-0.021 0.051-0.10525 0.0975-0.15625 0.09375-0.03675 0-0.09375-0.0585-0.09375-0.09375 0-0.04275 0.069953-0.04425 0.033203-0.09375 0.0015-0.00975 0.02075-0.02075 0.03125-0.03125 0.02025-0.01275 0.04225-0.020453 0.0625-0.033203 0.1815-0.11175 0.36675-0.1935 0.5625-0.28125zm4.1855 0.1875v0.0019531c-0.01875 0.00975-0.01475 0.02075-0.03125 0.03125-0.03825 0.02325-0.0645 0.052-0.09375 0.0625-0.04125 0.015-0.08775 0.02575-0.09375 0.0625-0.00525 0.03075 0.032 0.034 0.03125 0.0625-0.015 0.03675-0.023 0.04875-0.03125 0.09375 0.051 0.08325 0.15575-0.019703 0.21875-0.033203 0.02775-0.00975 0.0475-0.00725 0.0625-0.03125 0.01725-0.027 0.01775-0.0555 0.03125-0.09375 0.01425-0.042 0.06775-0.057 0.0625-0.09375-0.00375-0.03675-0.09475-0.06775-0.15625-0.0625zm-5.4688 0.62695c0.04725 0.03825 0.11375 0.121 0.03125 0.15625-0.00975 0.00975-0.1303 0.035-0.1543 0.03125-0.00975 0-0.024203-0.02375-0.033203-0.03125 0.05175-0.05025 0.103-0.10825 0.15625-0.15625zm0.1875 0.1875c0.024 0 0.03475 0.061 0.0625 0.0625 0.027 0 0.04675-0.036953 0.0625-0.033203 0.042 0.01125 0.071 0.095453 0.03125 0.12695-0.033 0.00975-0.0385-0.036953-0.0625-0.033203-0.06825 0.012-0.10525 0.16075-0.15625 0.15625-0.048-0.00975-0.08-0.12175-0.03125-0.15625 7.5e-4 -0.03-0.00225-0.029797 0-0.060547 0.015-0.018 0.054-0.0655 0.09375-0.0625zm-0.25 0.03125c0.01425 0 0.027953-0.00975 0.033203 0-0.00675 0.05325-0.022 0.069-0.0625 0.09375-0.07125 0.04275-0.13375 0.096-0.15625 0.1875-0.00675 0.027-0.0905 0.1005-0.125 0.09375-0.07875-0.01725 0.0445-0.16425 0.0625-0.1875 0.02025-0.02475 0.038047-0.034 0.060547-0.0625 0.02325-0.02775 0.04075-0.078 0.0625-0.09375 0.024-0.01725 0.083-0.03275 0.125-0.03125zm6.7793 0.15625h0.001953c0.07875-0.00975 0.12025 0.077 0.15625 0.125 0.03 0.039 0.10555 0.09725 0.1543 0.125 0.02775 0.015 0.063 0.049 0.09375 0.0625 0.06525 0.02925 0.1845 0.12375 0.1875 0.1875 0.0015 0.03225-0.03575 0.06375-0.03125 0.09375h0.001953c0.048132 0.0076546 0.091055-0.076027 0.091797-0.125 0.09225 0.12975 0.1705 0.2675 0.25 0.40625 0.0375 0.06525 0.0905 0.12 0.125 0.1875-0.04425 0.01275-0.05575 0.01975-0.0625 0.0625-0.00975 0.05625 0.023453 0.1465-0.060547 0.15625-0.05325 0.00975-0.11475-0.046-0.1875-0.0625-0.03-0.00975-0.06975 0.00975-0.09375 0-0.05475-0.018-0.0465-0.09125-0.09375-0.125-0.027-0.01875-0.1135-0.058-0.15625-0.0625-0.027 0-0.03475 0.00975-0.0625 0-0.03375-0.00975-0.0965 0.01425-0.125 0-0.027-0.01725-0.087-0.0705-0.09375-0.09375-0.01125-0.03675 0.0915-0.06225 0.09375-0.09375 0.00225-0.024-0.026-0.057-0.03125-0.09375-0.00375-0.02175 0.00525-0.0475 0-0.0625-0.00675-0.02625-0.0525-0.02975-0.09375-0.03125h-0.09375c-0.04425 0-0.13275-0.0075-0.1875 0h-0.09375c-0.087 0.00975-0.15245-0.00975-0.2207 0-0.04875 0-0.14175 0.0415-0.1875 0.0625-0.02325 0.01125-0.030547 0.01625-0.060547 0.03125-0.01425 0.00975-0.0445 0.023-0.0625 0.03125-0.02775 0.01275-0.06675 0.055-0.09375 0.0625-0.039 0.00975-0.08575-0.00975-0.15625 0-0.051 0-0.1235-0.033-0.125-0.09375-0.0015-0.093 0.16225-0.046 0.25-0.0625 0.033-0.00975 0.054-0.0385 0.09375-0.0625 0.01875-0.01125 0.01325-0.01925 0.03125-0.03125 0.03-0.021 0.0885-0.06975 0.09375-0.09375 0.0038-0.02175-3e-3 -0.046 0-0.0625 0.00375-0.021 0.0355-0.03475 0.0625-0.0625 0.042-0.042 0.0725-0.09725 0.125-0.125 0.03525-0.018 0.078-0.034 0.09375-0.0625 0.0038-0.03225-0.0015-0.0325 0-0.0625 0.02175-0.02025 0.0445-0.02675 0.0625-0.03125 0.054-0.012 0.091297 0 0.1543 0 0.027 0 0.0645 0.01275 0.09375 0 0.024-0.01575 0.0385-0.0505 0.0625-0.0625 0.02625-0.01425 0.0615-0.029 0.09375-0.03125zm0.5625 0.59375h-0.12305c-0.04425 0-0.1007-0.02325-0.12695 0 0.03675 0.06 0.10425 0.07875 0.1875 0.09375 0.03-0.02175 0.049-0.0555 0.0625-0.09375zm-6.8438-0.5625h0.09375c0.02475 0 0.05275-0.00975 0.0625 0-0.01575 0.066-0.16625 0.05525-0.21875 0.03125 3e-3 -0.02475 0.031-0.02675 0.0625-0.03125zm-0.21875 0.125c-0.0435 0.0315-0.08725 0.072-0.15625 0.09375-0.03825 0.012-0.087 0.01075-0.09375-0.03125-0.00825-0.05175 0.06-0.026 0.09375-0.03125 0.04425-0.00975 0.10525-0.029 0.15625-0.03125zm6.5 0c-0.033 0.01125-0.04875 0.084 0 0.09375 0.02325-0.01425 0.03725-0.051 0.03125-0.09375-0.01275-0.01425-0.02075-0.00975-0.03125 0zm-0.0625 0.1543v0.0019531c0.0015 0.05625 0.01125 0.10825 0 0.15625 0.03225 0.06225 0.1085 0.01075 0.125-0.03125 0.01875-0.10425-0.0145-0.1397-0.0625-0.12695-0.01575 0.00975-0.046-0.01275-0.0625 0zm-8.2793 2.3438c0.05625 0.051 0.08875 0.12325 0.15625 0.15625 0.02475 0.01275 0.0615 0.023 0.09375 0.03125 0.02625 0.00975 0.03775-0.00825 0.0625 0 0.05325 0.018 0.11425 0.04375 0.15625 0.0625 0.06375 0.02775 0.13275 0.12475 0.1875 0.15625 3e-3 0.03225-0.00975 0.06975 0 0.09375 0.02625 0.03525 0.05175 0.06975 0.09375 0.09375 0.051 0.02775 0.077 0.07125 0.125 0.09375 0.01725 0.00975 0.037-0.00975 0.0625 0 0.066 0.02025 0.09925 0.11025 0.15625 0.09375 0.03675-0.01125 0.02525-0.05775 0.03125-0.09375 0.02475-0.027 0.05475-0.0625 0.09375-0.0625 0.06225 0 0.0705 0.09625 0.09375 0.15625 0.01275 0.03375 0.0535 0.05775 0.0625 0.09375 0.015 0.06225 0.01275 0.2445 0 0.28125-0.01575 0.04575-0.088703 0.0435-0.12695 0.09375-0.018 0.024-0.017 0.0765-0.03125 0.09375-0.024 0.02925-0.0445 0.03475-0.0625 0.0625-0.00975 0.015-0.02225 0.0415-0.03125 0.0625-0.03 0.06375-0.088 0.11025-0.0625 0.1875 0.00975 0.03075 0.0625 0.057 0.0625 0.09375 0 0.04425-0.087 0.07625-0.09375 0.125-0.00525 0.03525 0.02 0.07775 0.03125 0.125 0.00825 0.03525 0.07275 0.0705 0.09375 0.09375 0.03525 0.039 0.0615 0.10675 0.09375 0.15625 0.063 0.09675 0.09475 0.21725 0.15625 0.3125 0.033 0.04875 0.1025 0.07325 0.125 0.125 0.01125 0.02625-0.00975 0.06975 0 0.09375 0.036 0.081 0.20025 0.17825 0.28125 0.21875 0.03825 0.01875 0.091703 0.012953 0.12695 0.033203 0.05325 0.03 0.1605 0.1078 0.1875 0.1543 0.024 0.042 0.01925 0.15395 0.03125 0.2207 0.015 0.08775-0.00375 0.15355 0 0.24805 3e-3 0.05175 0.03125 0.075203 0.03125 0.12695 0 0.018 7.5e-4 0.075 0 0.09375-7.5e-4 0.06225 0.00525 0.1245 0 0.1875-3e-3 0.03375-0.00225 0.0645 0 0.09375 3e-3 0.03075 0.029 0.032797 0.03125 0.060547 0.00225 0.02925-0.03425 0.0705-0.03125 0.09375 0.00675 0.063 0.0505 0.0985 0.0625 0.15625 0.00975 0.04575 0.03725 0.16325 0.03125 0.21875-0.00375 0.02925-0.02675 0.06075-0.03125 0.09375-3e-3 0.02625 0.00375 0.0385 0 0.0625-0.0027187 0.02107 0.0031037 0.039381 0 0.056641a5 5 0 0 1-0.09375-0.056641c-0.26625-0.18-0.5235-0.39925-0.75-0.625-0.03075-0.03075-0.06375-0.06225-0.09375-0.09375-0.18075-0.1905-0.35075-0.4063-0.5-0.62305-0.0135-0.0195-0.019703-0.043-0.033203-0.0625-0.17325-0.2595-0.3133-0.52225-0.43555-0.8125-9e-3 -0.021-0.024203-0.0415-0.033203-0.0625-0.10575-0.25875-0.1873-0.53425-0.24805-0.8125-0.01125-0.0525-0.023453-0.10375-0.033203-0.15625-0.02475-0.1335-0.047047-0.269-0.060547-0.40625-0.01543-0.15027-0.026719-0.29517-0.029297-0.44727a5 5 0 0 1-0.0019531-0.046875 5 5 0 0 1 0-0.0039063 5 5 0 0 1 0.0039062-0.058594c0.0044669-0.21579 0.027739-0.42098 0.056641-0.63086l0.0019531-0.0019531zm1.9355 0.5332c0.048-0.02175 0.039 0.05575 0 0.0625-0.03675 0.00975-0.036-0.0445 0-0.0625z" fill="currentColor"/>
</svg>
