<svg viewBox="0 0 16 16" xmlns="http://www.w3.org/2000/svg">
 <defs>
  <style id="current-color-scheme" type="text/css">
   .ColorScheme-Text { color:#2e3440; } .ColorScheme-Highlight { color:#88c0d0; } .ColorScheme-NeutralText { color:#d08770; } .ColorScheme-PositiveText { color:#a3be8c; } .ColorScheme-NegativeText { color:#bf616a; }
  </style>
 </defs>
 <path class="ColorScheme-Text" d="m9.004 2c-3.3137 0-6 2.6863-6 6l-0.00195 3-1.3438-1.4551-0.65625 0.69531 2.3125 2.5312 0.18945 0.2207 0.1875-0.2207 2.3125-2.5312-0.65625-0.69531-1.3438 1.4551v-3c0-2.7614 2.2386-5 5-5s5 2.2386 5 5-2.2386 5-5 5c-0.71415 0-1.3855-0.15992-2-0.42969v1.0273c0.63157 0.22593 1.2908 0.40234 2 0.40234 3.3137 0 6-2.6863 6-6s-2.6863-6-6-6zm-1 2v5h5v-1h-4v-4z" fill="currentColor"/>
</svg>
