<svg viewBox="0 0 16 16" xmlns="http://www.w3.org/2000/svg">
 <defs>
  <style id="current-color-scheme" type="text/css">
   .ColorScheme-Text { color:#2e3440; } .ColorScheme-Highlight { color:#88c0d0; } .ColorScheme-NeutralText { color:#d08770; } .ColorScheme-PositiveText { color:#a3be8c; } .ColorScheme-NegativeText { color:#bf616a; }
  </style>
 </defs>
 <path class="ColorScheme-Text" d="m8 2a5 6 0 0 0-5 6 5 6 0 0 0 5 6 5 6 0 0 0 4.1016-2.582l-0.77539-0.64648a4 5 0 0 1-3.3262 2.2285 4 5 0 0 1-4-5 4 5 0 0 1 4-5 4 5 0 0 1 3.3262 2.2285l0.7793-0.65039a5 6 0 0 0-4.1055-2.5781z" fill="currentColor"/>
</svg>
