<svg viewBox="0 0 16 16" xmlns="http://www.w3.org/2000/svg">
 <defs>
  <style id="current-color-scheme" type="text/css">
   .ColorScheme-Text { color:#2e3440; } .ColorScheme-Highlight { color:#88c0d0; } .ColorScheme-NeutralText { color:#d08770; } .ColorScheme-PositiveText { color:#a3be8c; } .ColorScheme-NegativeText { color:#bf616a; }
  </style>
 </defs>
 <path class="ColorScheme-Text" d="m8 2c-0.24 0.786-0.236 1.283-0.625 2h0.625zm0 2v3h2c-0.564-0.91-0.786-1.916-1.375-3zm0 3h-2c-0.134 0.216-0.914 0.795-1.031 1l-0.969 2h4zm0 3v3h2c0.305-0.214 0.959-0.214 1.188-0.5l0.813-2.5zm0 3h-1.531v0.438h1.531z" fill="currentColor"/>
 <path d="m8 2c-0.77833 2.5538-2.3868 4.6917-3.5029 6.5377-0.29392 0.5226-0.32032 1.0782-0.32032 1.7123 0 2.0775 1.5851 3.5401 3.8011 3.5401s3.8785-1.4626 3.8785-3.5401c0-0.63405-0.29157-1.0571-0.58549-1.5797-0.90617-1.7355-2.4926-4.1166-3.2709-6.6703z" fill="url(#linearGradient5517)"/>
 <path class="ColorScheme-Text" d="m8 2c-0.778 2.554-2.354 4.813-3.359 6.516-0.294 0.523-0.641 1.1-0.641 1.734 0 2.077 1.784 3.75 4 3.75s4-1.673 4-3.75c0-0.634-0.347-1.123-0.641-1.646-1.116-1.724-2.581-4.05-3.359-6.604" fill="currentColor" fill-opacity=".25"/>
 <path class="ColorScheme-Text" d="m8 2c-1.072 3.818-4 6.079-4 8.188s1.791 3.813 4 3.813 4-1.704 4-3.813-2.928-4.369-4-8.188m-0.031 1.438c0.862 3.137 3.219 4.986 3.219 6.719s-1.441 3.125-3.219 3.125-3.188-1.392-3.188-3.125 2.325-3.582 3.188-6.719" fill="currentColor"/>
</svg>
