<!DOCTYPE svg>
<svg version="1.1" viewBox="0 0 16 16" xmlns="http://www.w3.org/2000/svg">
 <defs>
  <style id="current-color-scheme" type="text/css">
   .ColorScheme-Text { color:#2e3440; } .ColorScheme-Highlight { color:#88c0d0; } .ColorScheme-NeutralText { color:#d08770; } .ColorScheme-PositiveText { color:#a3be8c; } .ColorScheme-NegativeText { color:#bf616a; }
  </style>
 </defs>
 <path class="ColorScheme-Text" d="m6 2c-0.56243 1.9627-1.7028 3.6747-2.819 5.3578-0.64227 1.0072-1.3722 2.1535-1.1348 3.4054 0.25904 1.7615 1.8918 3.1314 3.6462 3.2257 1.7979 0.167 3.6551-1.0044 4.156-2.7622 0.264-0.8208 0.1661-1.6839-0.21643-2.4512-0.76767-1.547-1.8905-2.8856-2.6692-4.428-0.39056-0.75087-0.71931-1.5368-0.96267-2.3476zm2.7676 6.2246c0.39592 0.66587 0.74178 1.4131 0.65017 2.2088-0.10144 1.582-1.51 2.8867-3.0671 3.0048-0.83275 0.0856-1.6917-0.141-2.3741-0.6257 1.8249 0.4459 3.8997-0.5563 4.6029-2.3153 0.30267-0.71534 0.34416-1.5166 0.18813-2.2726z" fill="currentColor"/>
 <path class="ColorScheme-Text" d="m10 1c-0.166 0.569-0.38886 1.1249-0.63086 1.6699-0.50617 1.1093-1.119 2.0511-1.6914 2.9219 0.0975 0.15746 0.18779 0.2919 0.28516 0.44336 0.01328-0.02067 0.02784-0.0439 0.04102-0.06446 0.658-0.996 1.4161-2.1399 1.9961-3.5059 0.58 1.366 1.3381 2.5099 1.9961 3.5059 0.446 0.694 0.9501 1.4538 1.2871 2.2988 0.09 0.295 0.1435 0.60111 0.1445 0.91211 0 1.807-1.5337 3.2735-3.4277 3.2735-0.25267 0-0.49731-0.0306-0.73437-0.0801-0.11855 0.1605-0.2482 0.3122-0.39063 0.4531 0.35902 0.101 0.73174 0.1719 1.125 0.1719 2.209 0 4-1.7104 4-3.8184 0-0.058-0.0116-0.11678-0.0156-0.17578l0.0156-0.00586c-4e-3 -0.025-0.0165-0.05312-0.0215-0.07812-0.186-1.704-2.1146-3.552-3.3476-6.252-0.242-0.545-0.4649-1.1009-0.6309-1.6699z" fill="currentColor"/>
</svg>
