<svg version="1.1" viewBox="0 0 16 16" xmlns="http://www.w3.org/2000/svg">
 <defs>
  <style id="current-color-scheme" type="text/css">
   .ColorScheme-Text { color:#2e3440; } .ColorScheme-Highlight { color:#88c0d0; } .ColorScheme-NeutralText { color:#d08770; } .ColorScheme-PositiveText { color:#a3be8c; } .ColorScheme-NegativeText { color:#bf616a; }
  </style>
 </defs>
 <path class="ColorScheme-Text" d="m8 2c-0.166 0.569-0.389 1.125-0.631 1.67-1.232 2.7-3.162 4.548-3.348 6.252-5e-3 0.025-0.017 0.053-0.021 0.078l0.016 6e-3c-4e-3 0.059-0.016 0.117-0.016 0.176 0 2.109 1.791 3.818 4 3.818s4-1.71 4-3.818c0-0.058-0.012-0.117-0.016-0.176l0.016-6e-3c-4e-3 -0.025-0.016-0.053-0.021-0.078-0.186-1.704-2.115-3.552-3.348-6.252-0.242-0.545-0.465-1.101-0.631-1.67m0 1.465c0.58 1.366 1.338 2.51 1.996 3.506 0.446 0.694 0.95 1.454 1.287 2.299 0.09 0.295 0.144 0.601 0.145 0.912 0 1.807-1.534 3.273-3.428 3.273s-3.428-1.466-3.428-3.273c0-0.311 0.054-0.617 0.145-0.912 0.337-0.844 0.842-1.605 1.287-2.299 0.658-0.996 1.416-2.14 1.996-3.506" fill="currentColor"/>
 <path d="m8 3.47c-0.58 1.366-1.338 2.51-1.996 3.506-0.446 0.694-0.95 1.454-1.287 2.299-0.09 0.295-0.144 0.601-0.145 0.912 0 1.081 0.556 2.033 1.402 2.629 0.28955 0.06377 0.58565 0.09654 0.88281 0.0977 2.2084 0 3.999-1.7084 4-3.8164-0.0016-0.28942-0.03761-0.57773-0.10742-0.85938 0.0345 0.046689 0.06771 0.094232 0.0996 0.14258-0.272-0.496-0.572-0.966-0.854-1.404-0.658-0.996-1.416-2.14-1.996-3.506" fill="currentColor" fill-rule="evenodd"/>
</svg>
