<svg version="1.1" viewBox="0 0 16 16" xmlns="http://www.w3.org/2000/svg">
 <defs>
  <style id="current-color-scheme" type="text/css">
   .ColorScheme-Text { color:#2e3440; } .ColorScheme-Highlight { color:#88c0d0; } .ColorScheme-NeutralText { color:#d08770; } .ColorScheme-PositiveText { color:#a3be8c; } .ColorScheme-NegativeText { color:#bf616a; }
  </style>
 </defs>
 <path class="ColorScheme-Text" d="m8 2c-0.166 0.569-0.389 1.125-0.631 1.67-1.232 2.7-3.162 4.548-3.348 6.252-5e-3 0.025-0.017 0.053-0.021 0.078l0.016 6e-3c-4e-3 0.059-0.016 0.117-0.016 0.176 0 2.109 1.791 3.818 4 3.818s4-1.71 4-3.818c0-0.058-0.012-0.117-0.016-0.176l0.016-6e-3c-4e-3 -0.025-0.016-0.053-0.021-0.078-0.186-1.704-2.115-3.552-3.348-6.252-0.242-0.545-0.465-1.101-0.631-1.67m0 1.465c0.58 1.366 1.338 2.51 1.996 3.506 0.249 0.387 0.513 0.799 0.759 1.232 5e-3 9e-3 -3e-3 0.02-5e-3 0.03 0.07 0.282 0.106 0.57 0.107 0.859-1e-3 2.108-1.792 3.816-4 3.816-0.297-1e-3 -0.593-0.034-0.883-0.098-0.846-0.596-1.403-1.548-1.402-2.629 0-0.311 0.054-0.617 0.145-0.912 0.337-0.844 0.842-1.605 1.287-2.299 0.658-0.996 1.416-2.14 1.996-3.506m-1.996 9.367c0.085 0.059 0.175 0.109 0.266 0.16-0.091-0.051-0.18-0.102-0.266-0.16m0.533 0.299c0.09 0.041 0.182 0.076 0.275 0.109-0.094-0.033-0.185-0.069-0.275-0.109m0.586 0.203c0.088 0.023 0.176 0.047 0.266 0.063-0.091-0.016-0.177-0.04-0.266-0.063" fill="currentColor"/>
 <path d="m8 3.47c-0.58 1.366-1.338 2.51-1.996 3.506-0.446 0.694-0.95 1.454-1.287 2.299-0.09 0.295-0.144 0.601-0.145 0.912 0 1.081 0.556 2.033 1.402 2.629 0.29 0.064 0.586 0.096 0.883 0.098 2.208 0 3.999-1.708 4-3.816-2e-3 -0.289-0.049-0.632-0.119-0.914 0 0 8e-3 9e-3 6e-3 7e-3 -0.244-0.429-0.501-0.83-0.748-1.214-0.658-0.996-1.416-2.14-1.996-3.506" fill="#eceff4" fill-rule="evenodd"/>
</svg>
