<svg version="1.1" viewBox="0 0 16 16" xmlns="http://www.w3.org/2000/svg">
 <defs>
  <style id="current-color-scheme" type="text/css">
   .ColorScheme-Text { color:#2e3440; } .ColorScheme-Highlight { color:#88c0d0; } .ColorScheme-NeutralText { color:#d08770; } .ColorScheme-PositiveText { color:#a3be8c; } .ColorScheme-NegativeText { color:#bf616a; }
  </style>
 </defs>
 <g stroke-width=".37465">
  <path d="m9.5515 2.208c-3.2079-0.85952-6.4824 1.0309-7.3419 4.2386l5.7904 1.5515 1.5516-5.79" fill="url(#linearGradient3406)"/>
  <path d="m6.4484 13.788c-3.2079-0.85952-5.0984-4.1338-4.2388-7.3415l5.7904 1.5515-1.5516 5.79" fill="url(#linearGradient3402)"/>
  <path d="m9.5515 2.208c3.2079 0.85952 5.0984 4.1338 4.2388 7.3415l-5.7904-1.5515 1.5516-5.79" clip-path="url(#7)" fill="url(#linearGradient385)"/>
  <path d="m6.4484 13.788c3.2079 0.85952 6.4824-1.0309 7.3419-4.2386l-5.7904-1.5515-1.5516 5.79" fill="url(#linearGradient3398)"/>
  <path d="m7.9979 2.0039c-3.321 0-5.9946 2.6735-5.9946 5.9943h5.9946v-5.9943" fill="url(#linearGradient3394)" opacity=".7"/>
  <path d="m7.9979 13.992c-3.321 0-5.9946-2.6735-5.9946-5.9943h5.9946v5.9943" fill="url(#linearGradient3390)" opacity=".7"/>
  <path d="m7.9979 13.992c3.321 0 5.9946-2.6735 5.9946-5.9943h-5.9946v5.9943" fill="url(#linearGradient3386)" opacity=".7"/>
  <path d="m7.9979 2.0039c3.321 0 5.9946 2.6735 5.9946 5.9943h-5.9946v-5.9943" clip-path="url(#C)" fill="url(#linearGradient387)" filter="url(#4)" opacity=".7"/>
  <path d="m12.239 3.7749c-2.3483-2.3482-6.1293-2.3482-8.4776 0l4.2388 4.2386 4.2388-4.2386" fill="url(#linearGradient3382)" opacity=".35"/>
  <path d="m3.7604 12.238c-2.3483-2.3482-2.3483-6.129 0-8.4771l4.2388 4.2386-4.2388 4.2386" clip-path="url(#A)" fill="url(#linearGradient3484)" opacity=".35"/>
  <path d="m3.7604 12.238c2.3483 2.3482 6.1293 2.3482 8.4776 0l-4.2388-4.2386-4.2388 4.2386" fill="url(#linearGradient3378)" opacity=".35"/>
  <path d="m12.238 3.7611c2.3483 2.3482 2.3483 6.129 0 8.4771l-4.2388-4.2386 4.2388-4.2386" clip-path="url(#C)" fill="url(#linearGradient389)" opacity=".35"/>
  <path d="m13.789 6.445c-0.85956-3.2077-4.1341-5.0981-7.3419-4.2386l1.5516 5.79 5.7904-1.5515" fill="url(#linearGradient3374)" opacity=".3"/>
  <path d="m2.2081 9.548c-0.85956-3.2077 1.0309-6.482 4.2388-7.3415l1.5516 5.79-5.7904 1.5515" fill="url(#linearGradient3370)" opacity=".3"/>
  <path d="m2.2081 9.548c0.85956 3.2077 4.1341 5.0981 7.3419 4.2386l-1.5516-5.79-5.7904 1.5515" fill="url(#linearGradient3366)" opacity=".3"/>
  <path d="m13.789 6.445c0.85956 3.2077-1.0309 6.482-4.2388 7.3415l-1.5516-5.79 5.7904-1.5515" clip-path="url(#G)" fill="url(#linearGradient391)" opacity=".3"/>
 </g>
</svg>
