<svg viewBox="0 0 16 16" xmlns="http://www.w3.org/2000/svg">
 <defs>
  <style id="current-color-scheme" type="text/css">
   .ColorScheme-Text { color:#2e3440; } .ColorScheme-Highlight { color:#88c0d0; } .ColorScheme-NeutralText { color:#d08770; } .ColorScheme-PositiveText { color:#a3be8c; } .ColorScheme-NegativeText { color:#bf616a; }
  </style>
 </defs>
 <path class="ColorScheme-Text" d="m2 2v12h12v-12h-3v3h2v8h-10v-8h2v-3h-3zm4.4297 4c-1.066 0-1.5137 0.35191-1.5137 1.2539 0 0-0.02425 0.58709-0.03125 0.74609-0.046 0.369-0.17512 0.67773-0.57812 0.67773h-0.30469v0.64453h0.30469c0.589 0 0.60938 0.64417 0.60938 1.2012-5e-3 0.174 0.013578 0.36952 0.017578 0.47852 0.083 0.712 0.53809 1 1.4961 1v-0.59375c-0.45 0-0.60592-0.11625-0.66992-0.40625-0.034-0.116-0.036781-0.51408-0.050781-0.70508 0-0.415-0.12366-1.035-0.72266-1.291 0.473-0.203 0.64427-0.628 0.69727-1 0.024-0.104 0.017437-0.22369 0.023437-0.30469 0-0.866 0.011656-1.1035 0.72266-1.1035v-0.59766zm1.0703 0v1h1v-1h-1zm2.0801 0v0.59766c0.711 0 0.72266 0.23752 0.72266 1.1035 6e-3 0.081-5.62e-4 0.20069 0.023438 0.30469 0.053 0.372 0.22426 0.797 0.69727 1-0.599 0.256-0.72266 0.87602-0.72266 1.291-0.014 0.191-0.016781 0.58908-0.050781 0.70508-0.064 0.29-0.21992 0.40625-0.66992 0.40625v0.59375c0.958 0 1.4131-0.288 1.4961-1 4e-3 -0.109 0.022578-0.30452 0.017578-0.47852 0-0.557 0.020375-1.2012 0.60938-1.2012h0.30469v-0.64453h-0.30469c-0.403 0-0.53212-0.30873-0.57812-0.67773-7e-3 -0.159-0.03125-0.74609-0.03125-0.74609 0-0.902-0.44767-1.2539-1.5137-1.2539zm-2.0801 2v4h1v-4h-1z" fill="currentColor"/>
 <path class="ColorScheme-NeutralText" d="m10 2-2 3-2-3z" fill="currentColor"/>
</svg>
