<svg viewBox="0 0 16 16" xmlns="http://www.w3.org/2000/svg">
 <defs>
  <style id="current-color-scheme" type="text/css">
   .ColorScheme-Text { color:#2e3440; } .ColorScheme-Highlight { color:#88c0d0; } .ColorScheme-NeutralText { color:#d08770; } .ColorScheme-PositiveText { color:#a3be8c; } .ColorScheme-NegativeText { color:#bf616a; }
  </style>
 </defs>
 <path class="ColorScheme-Text" d="m8 2c-3.314 0-6 2.686-6 6s2.686 6 6 6c1.775 0 3.364-0.775 4.463-2h-1.5c-0.831 0.618-1.847 1-2.963 1-2.761 0-5-2.239-5-5s2.239-5 5-5 5 2.239 5 5c0 0.342-0.034 0.677-0.1 1h1.01c0.055-0.326 0.09-0.658 0.09-1 0-3.314-2.686-6-6-6m-1 2v5h5v-1h-4v-4z" fill="currentColor"/>
 <path class="ColorScheme-Highlight" d="m10 10v1h2a1 1 0 0 1 1 1 1 1 0 0 1-1 1v1a2 2 0 0 0 2-2 2 2 0 0 0-2-2z" fill="currentColor"/>
</svg>
