<svg viewBox="0 0 16 16" xmlns="http://www.w3.org/2000/svg">
 <defs>
  <style id="current-color-scheme" type="text/css">
   .ColorScheme-Text { color:#2e3440; } .ColorScheme-Highlight { color:#88c0d0; } .ColorScheme-NeutralText { color:#d08770; } .ColorScheme-PositiveText { color:#a3be8c; } .ColorScheme-NegativeText { color:#bf616a; }
  </style>
 </defs>
 <path class="ColorScheme-Text" d="m2 2v12h5v-8h2v1h1v-1h3v1h1v-5h-12zm1 1h3v2h-3v-2zm4 0h2v2h-2v-2zm3 0h3v2h-3v-2zm-7 3h3v3h-3v-3zm0 4h3v3h-3v-3z" fill="currentColor"/>
 <path class="ColorScheme-NegativeText" d="M 8.99,8 8,8.99 10.01,11 8,13.01 8.99,14 11,11.99 13.01,14 14,13.01 11.99,11 14,8.99 13.01,8 11,10.01 Z" fill="currentColor"/>
</svg>
