<svg viewBox="0 0 16 16" xmlns="http://www.w3.org/2000/svg">
 <defs>
  <style id="current-color-scheme" type="text/css">
   .ColorScheme-Text { color:#2e3440; } .ColorScheme-Highlight { color:#88c0d0; } .ColorScheme-NeutralText { color:#d08770; } .ColorScheme-PositiveText { color:#a3be8c; } .ColorScheme-NegativeText { color:#bf616a; }
  </style>
 </defs>
 <path class="ColorScheme-Text" d="m8 2c-3.3137 0-6 2.6863-6 6s2.6863 6 6 6 6-2.6863 6-6-2.6863-6-6-6zm0 1c2.7614 0 5 2.2386 5 5 0 1.1996-0.45196 2.2634-1.1562 3.125l-6.9688-6.9688c0.86162-0.70429 1.9254-1.1562 3.125-1.1562zm-3.8438 1.875 6.9688 6.9688c-0.86162 0.70429-1.9254 1.1562-3.125 1.1562-2.7614 0-5-2.2386-5-5 0-1.1996 0.45196-2.2634 1.1562-3.125z" fill="currentColor"/>
</svg>
