<svg version="1.1" viewBox="0 0 16 16" xmlns="http://www.w3.org/2000/svg" xmlns:cc="http://creativecommons.org/ns#" xmlns:dc="http://purl.org/dc/elements/1.1/" xmlns:rdf="http://www.w3.org/1999/02/22-rdf-syntax-ns#">
 <metadata>
  <rdf:RDF>
   <cc:Work rdf:about="">
    <dc:format>image/svg+xml</dc:format>
    <dc:type rdf:resource="http://purl.org/dc/dcmitype/StillImage"/>
   </cc:Work>
  </rdf:RDF>
 </metadata>
 <defs>
  <style type="text/css">.ColorScheme-Text {
        color:#2e3440;
      }</style>
 </defs>
 <path class="ColorScheme-Text" d="m14 7-2-3-2 3h4zm0 2h-4l2 3 2-3zm-4-5h-1v-2h-5-1v2h-1v1h1v1 1h6v-1-1h1v-1zm0 7h-1v-2h-5-1v2h-1v1h1v1 1h6v-1-1h1v-1zm-2-8v3h-4v-3h4zm0 7v3h-4v-3h4z" color="#2e3440" fill="currentColor"/>
</svg>
