<svg viewBox="0 0 16 16" xmlns="http://www.w3.org/2000/svg">
 <defs>
  <style id="current-color-scheme" type="text/css">
   .ColorScheme-Text { color:#2e3440; } .ColorScheme-Highlight { color:#88c0d0; } .ColorScheme-NeutralText { color:#d08770; } .ColorScheme-PositiveText { color:#a3be8c; } .ColorScheme-NegativeText { color:#bf616a; }
  </style>
 </defs>
 <path class="ColorScheme-Text" d="m3 2v2h2v-2h-2zm2 2v2h2v-2h-2zm2 0h2v-2h-2v2zm2 0v2h2v-2h-2zm2 0h2v-2h-2v2zm-2 2c-1.662 0-3 1.338-3 3s1.338 3 3 3c0.64939 0 1.26-0.2145 1.75-0.5625l2.5312 2.5625 0.71875-0.71875-2.5625-2.5312c0.34805-0.4899 0.5625-1.1006 0.5625-1.75 0-1.662-1.338-3-3-3zm-6 0v8h6v-1h-5v-7h-1zm6 1c1.108 0 2 0.892 2 2s-0.892 2-2 2-2-0.892-2-2 0.892-2 2-2z" fill="currentColor"/>
</svg>
