<!DOCTYPE svg>
<svg version="1.1" viewBox="0 0 16 16" xmlns="http://www.w3.org/2000/svg">
 <defs>
  <style id="current-color-scheme" type="text/css">
   .ColorScheme-Text { color:#2e3440; } .ColorScheme-Highlight { color:#88c0d0; } .ColorScheme-NeutralText { color:#d08770; } .ColorScheme-PositiveText { color:#a3be8c; } .ColorScheme-NegativeText { color:#bf616a; }
  </style>
 </defs>
 <path class="ColorScheme-NegativeText" d="m9 5h2v2h2v1h1v-2l-2-2h-4l1 1zm-3 9h3v-1h-2v-1h-1v2zm4.707-4.97-0.707 0.707 1.793 1.793-1.793 1.793 0.707 0.707 1.793-1.793 1.793 1.793 0.707-0.707-1.793-1.793 1.793-1.793-0.707-0.707-1.793 1.793-1.793-1.793z" fill="currentColor"/>
 <path class="ColorScheme-Text" d="m9 5-3-3h-5v10h8v-7zm-1 6h-6v-8h3v3h3v5z" fill="currentColor"/>
</svg>
