<svg version="1.1" viewBox="0 0 16 16" xmlns="http://www.w3.org/2000/svg">
 <defs>
  <style id="current-color-scheme" type="text/css">
   .ColorScheme-Text { color:#2e3440; } .ColorScheme-Highlight { color:#88c0d0; } .ColorScheme-NeutralText { color:#d08770; } .ColorScheme-PositiveText { color:#a3be8c; } .ColorScheme-NegativeText { color:#bf616a; }
  </style>
 </defs>
 <path class="ColorScheme-Text" d="m12 1c1.108 0 2 0.892 2 2v7l-5 5h-1.7617a4.5 4.5 0 0 0 0.49805-1h0.26367v-5h5v-6c0-0.554-0.446-1-1-1h-8c-0.554 0-1 0.446-1 1v5.0312a4.5 4.5 0 0 0-1 0.23242v-5.2637c0-1.108 0.892-2 2-2zm0.58594 9h-3.5859v3.5859z" fill="currentColor"/>
 <path class="ColorScheme-Text" d="m3.5 9a3.5 3.5 0 0 1 3.5 3.5 3.5 3.5 0 0 1-3.5 3.5 3.5 3.5 0 0 1-3.5-3.5 3.5 3.5 0 0 1 3.5-3.5zm0.5 1.5-2 2 2 2z" fill="currentColor"/>
</svg>
