<svg viewBox="0 0 16 16" xmlns="http://www.w3.org/2000/svg">
 <defs>
  <style id="current-color-scheme" type="text/css">
   .ColorScheme-Text { color:#2e3440; } .ColorScheme-Highlight { color:#88c0d0; } .ColorScheme-NeutralText { color:#d08770; } .ColorScheme-PositiveText { color:#a3be8c; } .ColorScheme-NegativeText { color:#bf616a; }
  </style>
 </defs>
 <path class="ColorScheme-Text" d="m5.098 2.764-0.027 0.016c-1.891 1.058-3.065 3.054-3.07 5.221 0 3.314 2.686 6 6 6s6-2.686 6-6c-2e-3 -0.335-0.032-0.67-0.09-1h-5.428l-2.754-3.447s-0.632-0.787-0.631-0.789m-0.219 1.338 3.121 3.898h5c0 2.761-2.239 5-5 5s-5-2.239-5-5c2e-3 -1.517 0.694-2.951 1.879-3.898" fill="currentColor"/>
 <path class="ColorScheme-Text" d="m7.607 12.976c-1.748-.153-3.252-1.16-4.054-2.716-.531-1.03-.678-2.292-.401-3.423.231-.942.728-1.799 1.42-2.452.263-.248.302-.275.335-.229.014.019.716.896 1.56 1.949l1.535 1.915h4.991l-.015.26c-.13 2.269-1.775 4.165-4 4.612-.423.085-.975.119-1.37.085" fill="currentColor" fill-opacity=".5"/>
</svg>
