<svg viewBox="0 0 16 16" xmlns="http://www.w3.org/2000/svg">
 <defs>
  <style id="current-color-scheme" type="text/css">
   .ColorScheme-Text { color:#2e3440; } .ColorScheme-Highlight { color:#88c0d0; } .ColorScheme-NeutralText { color:#d08770; } .ColorScheme-PositiveText { color:#a3be8c; } .ColorScheme-NegativeText { color:#bf616a; }
  </style>
 </defs>
 <path class="ColorScheme-Text" d="m8.1309 2.0039c-2.8997 0.11843-5.3005 2.6573-5.1719 5.6523 0.0242 0.56261 0.15841 1.0948 0.34961 1.6016l1.4629-0.48633c-0.1454-0.35168-0.24922-0.72242-0.27734-1.1152-0.15442-2.1572 1.5604-4.0034 3.6367-4.1367 2.3258-0.14928 4.3076 1.7902 4.4336 4.1367 0.13912 2.5915-1.9303 4.795-4.4336 4.9199-2.1782 0.10874-4.0733-1.3332-4.8223-3.3184l-1.3086 0.43359c0.92184 2.5482 3.3517 4.4007 6.1309 4.3047 3.273-0.11311 5.9861-2.9644 5.8652-6.3398-0.11306-3.1593-2.7485-5.7796-5.8652-5.6523zm-3.3594 6.7676c0.55402 1.34 1.8687 2.298 3.3594 2.1641 1.605-0.14423 2.9283-1.6006 2.748-3.2793-0.14767-1.3753-1.365-2.5138-2.748-2.3066-1.0587 0.15856-1.9464 1.1826-1.7051 2.3066 0.0374 0.17414 0.11188 0.34339 0.20898 0.49805l1.4961-0.49805c0.72804 0 0.45424 0.87406 0 1.0781-0.58461 0.26266-1.1778-0.073218-1.4961-0.58008l-1.8633 0.61719z" fill="currentColor"/>
</svg>
