<svg viewBox="0 0 16 16" xmlns="http://www.w3.org/2000/svg">
 <defs>
  <style id="current-color-scheme" type="text/css">
   .ColorScheme-Text { color:#2e3440; } .ColorScheme-Highlight { color:#88c0d0; } .ColorScheme-NeutralText { color:#d08770; } .ColorScheme-PositiveText { color:#a3be8c; } .ColorScheme-NegativeText { color:#bf616a; }
  </style>
 </defs>
 <path class="ColorScheme-Text" d="m12.5 2a1.5 1.5 0 0 0-1.4121 1h-9.0879v1c1.8552 0.95878 3.1651 2.4795 3.3574 3.3027 0.2615 1.1191-0.1419 2.4311-1.1855 3.8574a1.5 1.5 0 0 0-0.67188-0.16016 1.5 1.5 0 0 0-1.5 1.5 1.5 1.5 0 0 0 1.5 1.5 1.5 1.5 0 0 0 1.4121-1h4.0879v1h3v-3h-3v1h-4.0879a1.5 1.5 0 0 0-0.037109-0.095703c1.3039-1.6796 1.8985-3.25 1.5508-4.7637-0.29376-1.2786-1.1844-2.2761-2.457-3.1406h7.1191a1.5 1.5 0 0 0 1.4121 1 1.5 1.5 0 0 0 1.5-1.5 1.5 1.5 0 0 0-1.5-1.5zm0 1a0.5 0.5 0 0 1 0.5 0.5 0.5 0.5 0 0 1-0.5 0.5 0.5 0.5 0 0 1-0.5-0.5 0.5 0.5 0 0 1 0.5-0.5zm-9 9a0.5 0.5 0 0 1 0.49414 0.43555 0.5 0.5 0 0 1 0.0039063 0.029297 0.5 0.5 0 0 1 0.0019531 0.019531 0.5 0.5 0 0 1 0 0.015625 0.5 0.5 0 0 1-0.5 0.5 0.5 0.5 0 0 1-0.49219-0.41406 0.5 0.5 0 0 1 0-0.001954 0.5 0.5 0 0 1-0.0078125-0.083984 0.5 0.5 0 0 1 0.0019531-0.050781 0.5 0.5 0 0 1 0.49805-0.44922zm6.5 0h1v1h-1v-1z" fill="currentColor"/>
</svg>
