<svg viewBox="0 0 16 16" xmlns="http://www.w3.org/2000/svg">
 <defs>
  <style id="current-color-scheme" type="text/css">
   .ColorScheme-Text { color:#2e3440; } .ColorScheme-Highlight { color:#88c0d0; } .ColorScheme-NeutralText { color:#d08770; } .ColorScheme-PositiveText { color:#a3be8c; } .ColorScheme-NegativeText { color:#bf616a; }
  </style>
 </defs>
 <path class="ColorScheme-Text" d="m14 2c-0.989 0.203-1.9062 0.78219-2.4492 1.6172-0.188-0.084-0.33178-0.11719-0.55078-0.11719-0.156 0-0.30431 0.030219-0.44531 0.074219-0.853-0.52-1.8527-0.82422-2.9297-0.82422-3.116 0-5.625 2.509-5.625 5.625s2.509 5.625 5.625 5.625 5.625-2.509 5.625-5.625c0-1.076-0.30322-2.0767-0.82422-2.9297 0.044-0.142 0.074219-0.28931 0.074219-0.44531 0-0.336-0.009312-0.4717-0.19531-0.7207 0.402-0.654 0.93731-1.0823 1.6953-1.2793v-1z" fill="currentColor"/>
</svg>
