<svg viewBox="0 0 16 16" xmlns="http://www.w3.org/2000/svg">
 <defs>
  <style id="current-color-scheme" type="text/css">
   .ColorScheme-Text { color:#2e3440; } .ColorScheme-Highlight { color:#88c0d0; } .ColorScheme-NeutralText { color:#d08770; } .ColorScheme-PositiveText { color:#a3be8c; } .ColorScheme-NegativeText { color:#bf616a; }
  </style>
 </defs>
 <path class="ColorScheme-Text" d="m2.5 2c-0.27614 0-0.5 0.22386-0.5 0.5s0.22386 0.5 0.5 0.5 0.5-0.22386 0.5-0.5-0.22386-0.5-0.5-0.5zm3 0c-0.27614 0-0.5 0.22386-0.5 0.5s0.22386 0.5 0.5 0.5 0.5-0.22386 0.5-0.5-0.22386-0.5-0.5-0.5zm7.6602 0-3.4219 4.3105c-0.67552-0.25683-1.5272-0.3281-2.7383-0.31055-1.3558 1.2931-2.2492 1.7092-5 2v1c2.1137 3.3717 3.4746 5 7 5h1c1.074-1.3838 1.6271-2.3898 2-4v-1c-0.44149-0.99061-0.842-1.6654-1.3262-2.1211l3.3262-4.2188-0.83984-0.66016zm-9.1602 2c-0.55228 0-1 0.44772-1 1s0.44772 1 1 1 1-0.44772 1-1-0.44772-1-1-1zm3.5293 3.1016c2.103 0.16401 2.6393 0.9147 3.3281 2.5977-0.57283 1.5466-0.47202 1.9036-1.584 3.2695-3.1378-0.27384-4.2207-1.4282-5.9473-4.1387 1.7962-0.07333 2.7823-0.72545 4.2031-1.7285z" fill="currentColor"/>
</svg>
