<svg version="1.1" viewBox="0 0 16 16" xmlns="http://www.w3.org/2000/svg">
 <style type="text/css">.ColorScheme-NegativeText{color:#bf616a;}</style>
 <path class="ColorScheme-NegativeText" d="m3 2v5h1v-4h5v3h3v1h1v-2l-3-3z" fill="currentColor"/>
 <path class="ColorScheme-NegativeText" d="m2 8h12v1h-12z" fill="currentColor"/>
 <g fill="#bf616a">
  <path d="m3 10 0.99999 1.2e-5 -1.17e-5 4-0.99999-1.2e-5z"/>
  <path d="m5 10 0.99999 1.2e-5 -1.17e-5 4-0.99999-1.2e-5z"/>
  <path d="m7 10 0.99999 1.2e-5 -1.17e-5 4-0.99999-1.2e-5z"/>
  <path d="m9 10 0.99999 1.2e-5 -1.17e-5 4-0.99999-1.2e-5z"/>
  <path d="m11 10 0.99999 1.2e-5 -1.2e-5 4-0.99999-1.2e-5z"/>
 </g>
</svg>
