<svg viewBox="0 0 16 16" xmlns="http://www.w3.org/2000/svg">
 <defs>
  <style type="text/css">.ColorScheme-Text {
        color:#2e3440;
      }
      .ColorScheme-Highlight {
        color:#88c0d0;
      }
      .ColorScheme-NegativeText {
        color:#bf616a;
      }</style>
 </defs>
 <g transform="translate(-421.71 -531.79)" fill="currentColor">
  <path class="ColorScheme-Text" transform="translate(421.71 531.79)" d="m2 2v12h1 6 1 3 1v-12h-12zm1 1h3v2h1v-2h2v2h1v-2h1 1 1v2h-1-1-1v1h1 1 1v3h-1-1-1v1h1 1 1v3h-1-1-1v-3h-1v3h-2v-3h-1v3h-3v-3h3v-1h-3v-3h3v-1h-3v-2z"/>
  <path class="ColorScheme-NegativeText" d="m426.71 535.79v7h6v-7zm1 1h4v1l-1 1.5 1 1.5v1h-4v-1l1-1.5-1-1.5z"/>
 </g>
</svg>
