<svg viewBox="0 0 16 16" xmlns="http://www.w3.org/2000/svg">
 <defs>
  <style id="current-color-scheme" type="text/css">
   .ColorScheme-Text { color:#2e3440; } .ColorScheme-Highlight { color:#88c0d0; } .ColorScheme-NeutralText { color:#d08770; } .ColorScheme-PositiveText { color:#a3be8c; } .ColorScheme-NegativeText { color:#bf616a; }
  </style>
 </defs>
 <path class="ColorScheme-Text" d="m12 2-2 4h4l-2-4zm-10 5v7h12v-7h-1v2h-3v-2h-1v2h-2v-2h-1v2h-3v-2h-1zm1 3h3v3h-3v-3zm4 0h2v3h-2v-3zm3 0h3v3h-3v-3z" fill="currentColor"/>
 <path class="ColorScheme-Highlight" d="m2 7v-1h1.281l-1.281-1.281v-1.438l2.719 2.719h2.563l-3-3h-2.281v-1h7v1.719l-0.719-0.719h-2.563l3 3h0.281v1h-6z" fill="currentColor"/>
</svg>
