<svg version="1.1" viewBox="0 0 16 16" xmlns="http://www.w3.org/2000/svg">
 <defs>
  <style id="current-color-scheme" type="text/css">
   .ColorScheme-Text { color:#2e3440; } .ColorScheme-Highlight { color:#88c0d0; } .ColorScheme-NeutralText { color:#d08770; } .ColorScheme-PositiveText { color:#a3be8c; } .ColorScheme-NegativeText { color:#bf616a; }
  </style>
 </defs>
 <path class="ColorScheme-Text" d="m6.25 2a1.0001 1.0001 0 0 0-0.68945 0.27539l-4.6309 4.4121-0.61914 0.58789a1.0001 1.0001 0 0 0 0 1.4492l0.61914 0.58789 4.6309 4.4121a1.0001 1.0001 0 0 0 0.68945 0.27539h8.75a1.0001 1.0001 0 0 0 1-1v-10a1.0001 1.0001 0 0 0-1-1h-8.75zm0 1h8.75v10h-8.75l-4.6309-4.4102-0.61914-0.58984 0.61914-0.58984 4.6309-4.4102z" fill="currentColor"/>
 <path class="ColorScheme-Text" d="m8.002 5 2.0098 2.0098 2.0098-2.0098 0.99024 0.99023-2.0098 2.0098 2.0098 2.0098-0.99024 0.99023-2.0098-2.0098-2.0098 2.0098-0.99023-0.99023 2.0098-2.0098-2.0098-2.0098z" fill="currentColor"/>
</svg>
