<svg viewBox="0 0 16 16" xmlns="http://www.w3.org/2000/svg">
 <defs>
  <style id="current-color-scheme" type="text/css">
   .ColorScheme-Text { color:#2e3440; } .ColorScheme-Highlight { color:#88c0d0; } .ColorScheme-NeutralText { color:#d08770; } .ColorScheme-PositiveText { color:#a3be8c; } .ColorScheme-NegativeText { color:#bf616a; }
  </style>
 </defs>
 <path class="ColorScheme-Text" d="m3.5 2c-0.828 0-1.5 0.672-1.5 1.5 0 0.656 0.414 1.2022 1 1.4062v6.0938h-1v3h3v-3h-1v-6.0938c0.432-0.15 0.75625-0.47425 0.90625-0.90625h6.0938v1h3v-3h-3v1h-6.0938c-0.204-0.586-0.75025-1-1.4062-1zm0 1c0.276 0 0.5 0.224 0.5 0.5s-0.224 0.5-0.5 0.5-0.5-0.224-0.5-0.5 0.224-0.5 0.5-0.5zm8.5 0h1v1h-1v-1zm-6 2v6.125l1.2695-0.625 1.5312 1.5-0.16016-2.0996 1.3594-0.52539-4-4.375zm-3 7h1v1h-1v-1z" fill="currentColor"/>
</svg>
