<svg viewBox="0 0 16 16" xmlns="http://www.w3.org/2000/svg">
 <defs>
  <style id="current-color-scheme" type="text/css">
   .ColorScheme-Text { color:#2e3440; } .ColorScheme-Highlight { color:#88c0d0; } .ColorScheme-NeutralText { color:#d08770; } .ColorScheme-PositiveText { color:#a3be8c; } .ColorScheme-NegativeText { color:#bf616a; }
  </style>
 </defs>
 <path class="ColorScheme-Text" d="m8 2c-2.2091 8.2e-6 -4 1.7909-4 4 0.00157 0.47637 0.088214 0.94863 0.25586 1.3945 0.12134 0.33534 0.36602 0.70664 0.51953 0.96289l3.2246 5.6426 3.2246-5.6406c0.25321-0.31541 0.36294-0.64922 0.52148-0.96484 0.16698-0.44602 0.25296-0.91828 0.25391-1.3945-8e-6 -2.2091-1.7909-4-4-4zm0 1c0.9153 1.55e-5 1.7805 0.41788 2.3496 1.1348 0.12462 0.15673 0.23323 0.32554 0.32422 0.50391 0.18185 0.35767 0.29011 0.74819 0.31836 1.1484 0.0051 0.070849 0.007712 0.14186 0.007812 0.21289-2.35e-4 0.30066-0.04566 0.59957-0.13477 0.88672-0.0494 0.15584-0.11146 0.30739-0.18555 0.45312-0.008301 0.018314-0.016741 0.036544-0.025391 0.054687-0.51795 0.98656-1.54 1.6048-2.6543 1.6055-1.1143-6.989e-4 -2.1363-0.61891-2.6543-1.6055-0.04448-0.08461-0.084891-0.1713-0.12109-0.25977l-0.0058594-0.013672c-0.033019-0.082639-0.062345-0.16671-0.087891-0.25195-0.0039786-0.011694-0.0078849-0.023414-0.011719-0.035156-0.02222-0.079912-0.041116-0.16071-0.056641-0.24219-0.0040532-0.016893-0.0079596-0.033821-0.011719-0.050781-0.015331-0.084096-0.02706-0.16881-0.035156-0.25391-0.001405-0.014313-0.0027071-0.028637-0.0039062-0.042969-0.0072213-0.081187-0.011131-0.16264-0.011719-0.24414 2.342e-4 -0.099807 0.005449-0.19954 0.015625-0.29883 0.080609-0.80673 0.48431-1.5465 1.1191-2.0508 0.15673-0.12462 0.32554-0.23323 0.50391-0.32422 0.42171-0.21455 0.88818-0.32632 1.3613-0.32617z" fill="currentColor"/>
</svg>
