<svg version="1.1" viewBox="0 0 16 16" xmlns="http://www.w3.org/2000/svg">
 <defs>
  <style id="current-color-scheme" type="text/css">
   .ColorScheme-Text { color:#2e3440; } .ColorScheme-Highlight { color:#88c0d0; } .ColorScheme-NeutralText { color:#d08770; } .ColorScheme-PositiveText { color:#a3be8c; } .ColorScheme-NegativeText { color:#bf616a; }
  </style>
 </defs>
 <g transform="translate(-421.71 -531.79)" fill="currentColor">
  <path class="ColorScheme-Text" transform="translate(421.71 531.79)" d="m2 2v12h12v-12h-12zm1 1h3v2h1v-2h2v2h1v-2h3v2h-3v1h3v3h-3v1h3v3h-3v-3h-1v3h-2v-3h-1v3h-3v-3h3v-1h-3v-3h3v-1h-3v-2z"/>
  <path class="ColorScheme-NegativeText" d="m426.71 535.79v7h6v-7zm1 1h4v1l-1 1.5 1 1.5v1h-4v-1l1-1.5-1-1.5z"/>
 </g>
</svg>
