<svg viewBox="0 0 16 16" xmlns="http://www.w3.org/2000/svg">
 <defs>
  <style id="current-color-scheme" type="text/css">
   .ColorScheme-Text { color:#2e3440; } .ColorScheme-Highlight { color:#88c0d0; } .ColorScheme-NeutralText { color:#d08770; } .ColorScheme-PositiveText { color:#a3be8c; } .ColorScheme-NegativeText { color:#bf616a; }
  </style>
 </defs>
 <path class="ColorScheme-NegativeText" d="m9.002 2.0039h-2.0039v5h2.0039v-5zm0 7h-2.0039v5h2.0039v-5z" fill="currentColor"/>
 <path class="ColorScheme-Text" d="m2 2v12h12v-12zm0.99975 0.99975h9.9998v9.9998h-9.9998z" fill="currentColor"/>
 <path class="ColorScheme-Highlight" d="m8 6.005c-1.1048 0-2.0002 0.8955-2.0002 2.0002s0.8955 2.0002 2.0002 2.0002 2.0002-0.8955 2.0002-2.0002-0.8955-2.0002-2.0002-2.0002m0 0.99975c0.552 0 0.99975 0.44775 0.99975 0.99975s-0.44775 0.99975-0.99975 0.99975-0.99975-0.44775-0.99975-0.99975 0.44775-0.99975 0.99975-0.99975" fill="currentColor"/>
</svg>
