<svg viewBox="0 0 16 16" xmlns="http://www.w3.org/2000/svg">
 <defs>
  <style id="current-color-scheme" type="text/css">
   .ColorScheme-Text { color:#2e3440; } .ColorScheme-Highlight { color:#88c0d0; } .ColorScheme-NeutralText { color:#d08770; } .ColorScheme-PositiveText { color:#a3be8c; } .ColorScheme-NegativeText { color:#bf616a; }
  </style>
 </defs>
 <path class="ColorScheme-Text" d="m7.252 2c-0.94118 0-1.7111 0.23367-2.3105 0.69922-0.59383 0.4602-0.89062 1.0633-0.89062 1.8125 0 0.88295 0.41085 1.7581 1.2344 2.625l0.22656 0.24219c-0.29132 0.15518-0.5474 0.3072-0.77148 0.45703-0.22409 0.14448-0.45195 0.32306-0.68164 0.53711-0.22409 0.20869-0.41123 0.43056-0.5625 0.66602-0.14565 0.23009-0.26609 0.50705-0.36133 0.82812-0.08964 0.31572-0.13477 0.6537-0.13477 1.0176 0 0.39063 0.10105 0.76893 0.30273 1.1328 0.20728 0.36388 0.48469 0.68216 0.83203 0.95508 0.34733 0.27291 0.76455 0.49232 1.252 0.6582 0.49299 0.16053 1.0091 0.24024 1.5469 0.24024 1.2381 0 2.4189-0.41225 3.5449-1.2363l1.2871 1.3652 0.97461-0.77148-1.3359-1.3887c0.56583-0.56187 1.0971-1.2565 1.5957-2.0859l-0.95703-0.60156c-0.42577 0.72776-0.8967 1.3594-1.4121 1.8945l-3.3711-3.4922c0.24089-0.12309 0.42362-0.21705 0.54688-0.28125 0.12325-0.064213 0.29102-0.15817 0.50391-0.28125 0.21849-0.12307 0.38626-0.22934 0.50391-0.32031 0.11765-0.090967 0.25746-0.20411 0.41992-0.33789 0.16807-0.13913 0.29708-0.27196 0.38672-0.40039 0.089633-0.13378 0.1799-0.28087 0.26953-0.44141 0.095253-0.16589 0.16197-0.34396 0.20117-0.53125s0.058594-0.38506 0.058594-0.59375c0-0.76523-0.26245-1.3511-0.78906-1.7578-0.52661-0.40669-1.2298-0.60938-2.1094-0.60938zm0.017578 0.95508c0.53782 0 0.94424 0.12545 1.2188 0.37695 0.27451 0.24615 0.41016 0.60527 0.41016 1.0762 0 0.23545-0.043179 0.45978-0.13281 0.67383-0.084033 0.2087-0.19146 0.38728-0.32031 0.53711-0.12325 0.14983-0.2996 0.30626-0.5293 0.4668-0.22409 0.15519-0.4284 0.28556-0.61328 0.39258-0.18487 0.10167-0.42574 0.22466-0.72266 0.36914l-0.18555-0.19141c-0.73949-0.76521-1.1094-1.51-1.1094-2.2324 0-0.44415 0.19352-0.79885 0.58008-1.0664 0.38655-0.26756 0.85528-0.40234 1.4043-0.40234zm-1.0586 5.1621 3.5117 3.7227c-0.90197 0.6475-1.8159 0.97266-2.7402 0.97266-0.75069 0-1.3767-0.19776-1.8809-0.59375-0.50421-0.40134-0.75781-0.88837-0.75781-1.4609 0-0.59934 0.16335-1.1031 0.48828-1.5098 0.32493-0.41205 0.78507-0.78839 1.3789-1.1309z" fill="currentColor"/>
</svg>
