<svg viewBox="0 0 16 16" xmlns="http://www.w3.org/2000/svg">
 <defs>
  <style id="current-color-scheme" type="text/css">
   .ColorScheme-Text { color:#2e3440; } .ColorScheme-Highlight { color:#88c0d0; } .ColorScheme-NeutralText { color:#d08770; } .ColorScheme-PositiveText { color:#a3be8c; } .ColorScheme-NegativeText { color:#bf616a; }
  </style>
 </defs>
 <path class="ColorScheme-Text" d="m9 3v10h1v-0.76758a3 3 0 0 0 2 0.76758 3 3 0 0 0 3-3 3 3 0 0 0-3-3 3 3 0 0 0-2 0.76758v-4.7676h-1zm-5.1035 0.0058594-2.8887 10h1.168l0.83203-3h3l0.83398 3h1.166l-2.6445-10h-1.4668zm0.73242 1.5508 1.0938 4.1641h-2.3027l1.209-4.1641zm7.3711 3.4434a2 2 0 0 1 2 2 2 2 0 0 1-2 2 2 2 0 0 1-2-2 2 2 0 0 1 2-2z" fill="currentColor"/>
</svg>
