<svg viewBox="0 0 16 16" xmlns="http://www.w3.org/2000/svg">
 <defs>
  <style id="current-color-scheme" type="text/css">
   .ColorScheme-Text { color:#2e3440; } .ColorScheme-Highlight { color:#88c0d0; } .ColorScheme-NeutralText { color:#d08770; } .ColorScheme-PositiveText { color:#a3be8c; } .ColorScheme-NegativeText { color:#bf616a; }
  </style>
 </defs>
 <path class="ColorScheme-Text" d="m8 2c-3.314 0-6 2.686-6 6s2.686 6 6 6 6-2.686 6-6-2.686-6-6-6m0 1c1.2 0 2.263 0.452 3.125 1.156l-3.125 3.125-3.125-3.125c0.862-0.704 1.925-1.156 3.125-1.156m-3.844 1.875 3.125 3.125-3.125 3.125c-0.704-0.862-1.156-1.925-1.156-3.125s0.452-2.263 1.156-3.125m7.688 0c0.704 0.862 1.156 1.925 1.156 3.125s-0.452 2.263-1.156 3.125l-3.125-3.125zm-3.844 3.844 3.125 3.125c-0.862 0.704-1.925 1.156-3.125 1.156s-2.263-0.452-3.125-1.156z" fill="currentColor"/>
</svg>
