<svg version="1.1" viewBox="0 0 16 16" xmlns="http://www.w3.org/2000/svg">
 <defs>
  <style type="text/css">.ColorScheme-Text {
        color:#2e3440;
      }
      .ColorScheme-ViewBackground {
        color:#fcfcfc;
      }</style>
 </defs>
 <g transform="translate(-421.71 -531.79)" fill="#2e3440">
  <path class="ColorScheme-ViewBackground" d="m423.71 545.79h6v-1h-5v-5h5v-1h-5v-5h5v-1h-6v13zm7 0h5v-1h-5v1zm0-6h5v-1h-5v1zm0-6h5v-1h-5v1z"/>
  <path class="ColorScheme-Text" d="m435.71 545.79v-13h1v13z"/>
  <path class="ColorScheme-Text" d="m424.71 533.79h5v5h-5v-5zm0 6h5v5h-5v-5zm6-6h5v5h-5v-5zm0 6h5v5h-5v-5z" fill-opacity=".5"/>
 </g>
</svg>
