<svg version="1.1" viewBox="0 0 16 16" xmlns="http://www.w3.org/2000/svg">
 <defs>
  <style id="current-color-scheme" type="text/css">
   .ColorScheme-Text { color:#2e3440; } .ColorScheme-Highlight { color:#88c0d0; } .ColorScheme-NeutralText { color:#d08770; } .ColorScheme-PositiveText { color:#a3be8c; } .ColorScheme-NegativeText { color:#bf616a; }
  </style>
 </defs>
 <g transform="translate(-421.71 -531.79)" fill="currentColor">
  <path class="ColorScheme-ViewBackground" d="m2 1v6h1v-5h5v5h1v-5h5v5h1v-6h-13zm0 7v5h1v-5h-1zm6 0v5h1v-5h-1zm6 0v5h1v-5h-1z"/>
  <path class="ColorScheme-Text" d="m423.71 544.79h13v1h-13z"/>
  <path class="ColorScheme-Text" d="m435.71 533.79v5h-5v-5h5zm-6 0v5h-5v-5h5zm6 6v5h-5v-5h5zm-6 0v5h-5v-5h5z" fill="currentColor" fill-opacity=".5"/>
 </g>
</svg>
