<svg viewBox="0 0 16 16" xmlns="http://www.w3.org/2000/svg">
 <defs>
  <style id="current-color-scheme" type="text/css">
   .ColorScheme-Text { color:#2e3440; } .ColorScheme-Highlight { color:#88c0d0; } .ColorScheme-NeutralText { color:#d08770; } .ColorScheme-PositiveText { color:#a3be8c; } .ColorScheme-NegativeText { color:#bf616a; }
  </style>
 </defs>
 <path class="ColorScheme-Text" d="m2.375 2c-0.12853 0-0.25151 0.01355-0.375 0.03125v0.96875c0.55228 0 1 0.44772 1 1v8c0 0.55228-0.44772 1-1 1v0.96875c0.12349 0.018 0.24647 0.03125 0.375 0.03125h7.875c2.0775 0 3.75-1.6725 3.75-3.75 0-1.6537-1.0823-3.0301-2.5625-3.5312 0.63309-0.4784 1.0625-1.2356 1.0625-2.0938 0-1.4542-1.1708-2.625-2.625-2.625h-7.5zm3.625 1h3c0.55228 0 1 0.89543 1 2s-0.44772 2-1 2h-3v-4zm0 5h3c0.053473 0 0.10384 0.026101 0.15625 0.03125 1.0303 0.10121 1.8438 1.1549 1.8438 2.4688 0 1.3807-0.89543 2.5-2 2.5h-3v-5z" fill="currentColor"/>
</svg>
