<svg viewBox="0 0 16 16" xmlns="http://www.w3.org/2000/svg">
 <defs>
  <style id="current-color-scheme" type="text/css">
   .ColorScheme-Text { color:#2e3440; } .ColorScheme-Highlight { color:#88c0d0; } .ColorScheme-NeutralText { color:#d08770; } .ColorScheme-PositiveText { color:#a3be8c; } .ColorScheme-NegativeText { color:#bf616a; }
  </style>
 </defs>
 <path class="ColorScheme-Text" d="m3 2v1h1v2h-1v1h3v-1h-1v-2h1v-1h-3zm5 0v1h6v-1h-6zm0 2v1h4v-1h-4zm-6 4v1h1v2h-1v1h5v-1h-1v-2h1v-1h-5zm6 0v1h6v-1h-6zm-4 1h1v2h-1v-2zm4 1v1h2v-1h-2zm3 0v1h3v-1h-3zm1 3v1h2v-1h-2z" fill="currentColor"/>
</svg>
