<svg viewBox="0 0 16 16" xmlns="http://www.w3.org/2000/svg">
 <defs>
  <style id="current-color-scheme" type="text/css">
   .ColorScheme-Text { color:#2e3440; } .ColorScheme-Highlight { color:#88c0d0; } .ColorScheme-NeutralText { color:#d08770; } .ColorScheme-PositiveText { color:#a3be8c; } .ColorScheme-NegativeText { color:#bf616a; }
  </style>
 </defs>
 <path class="ColorScheme-Text" d="m5.5 2c-1.381 0-2.5 1.119-2.5 2.5v3c0 1.381 1.119 2.5 2.5 2.5s2.5-1.119 2.5-2.5v-3c0-1.381-1.119-2.5-2.5-2.5zm6 0c-1.381 0-2.5 1.119-2.5 2.5v3c0 1.381 1.119 2.5 2.5 2.5s2.5-1.119 2.5-2.5v-3c0-1.381-1.119-2.5-2.5-2.5zm-6 1c0.828 0 1.5 0.672 1.5 1.5v3c0 0.828-0.672 1.5-1.5 1.5s-1.5-0.672-1.5-1.5v-3c0-0.828 0.672-1.5 1.5-1.5zm6 0c0.828 0 1.5 0.672 1.5 1.5v3c0 0.828-0.672 1.5-1.5 1.5s-1.5-0.672-1.5-1.5v-3c0-0.828 0.672-1.5 1.5-1.5zm-9.5 6v1h1v-1h-1z" fill="currentColor"/>
 <path class="ColorScheme-Highlight" d="m11 9v2h-2v1h2v2h1v-2h2v-1h-2v-2z" fill="currentColor"/>
</svg>
