<svg viewBox="0 0 16 16" xmlns="http://www.w3.org/2000/svg">
 <defs>
  <style id="current-color-scheme" type="text/css">
   .ColorScheme-Text { color:#2e3440; } .ColorScheme-Highlight { color:#88c0d0; } .ColorScheme-NeutralText { color:#d08770; } .ColorScheme-PositiveText { color:#a3be8c; } .ColorScheme-NegativeText { color:#bf616a; }
  </style>
 </defs>
 <path class="ColorScheme-Text" d="m8 2c-3.314 0-6 2.686-6 6s2.686 6 6 6 6-2.686 6-6-2.686-6-6-6m0 1c1.713 0 3.222 0.865 4.123 2.178l-4.662 4.49-2.77-2.668-0.691 0.666 3.461 3.334 0.693-0.666 4.449-4.287c0.255 0.6 0.396 1.26 0.396 1.953 0 2.761-2.239 5-5 5s-5-2.239-5-5 2.239-5 5-5" fill="currentColor"/>
</svg>
