<svg viewBox="0 0 16 16" xmlns="http://www.w3.org/2000/svg">
 <defs>
  <style type="text/css">.ColorScheme-Text {
        color:#2e3440;
      }</style>
 </defs>
 <path class="ColorScheme-Text" d="m7 2c-1.1046 0-2 0.89543-2 2v1 1 1h-2v1h2v1 2 3h1v-5-1h2v-1h-2v-2-1c0-0.55228 0.44772-1 1-1h1 1v-1h-1-1zm2.4648 7.7578-0.70703 0.70703 1.4141 1.4141-1.4141 1.4141 0.70703 0.70703 1.4141-1.4141 1.4141 1.4141 0.70703-0.70703-1.4141-1.4141 1.4141-1.4141-0.70703-0.70703-1.4141 1.4141-1.4141-1.4141z" fill="currentColor"/>
</svg>
