<svg viewBox="0 0 16 16" xmlns="http://www.w3.org/2000/svg">
 <defs>
  <style id="current-color-scheme" type="text/css">
   .ColorScheme-Text { color:#2e3440; } .ColorScheme-Highlight { color:#88c0d0; } .ColorScheme-NeutralText { color:#d08770; } .ColorScheme-PositiveText { color:#a3be8c; } .ColorScheme-NegativeText { color:#bf616a; }
  </style>
 </defs>
 <path class="ColorScheme-Text" d="m2 2v3h3v-3h-3zm4.5 0v3h3v-3h-3zm4.5 0v3h3v-3h-3zm-8 1h1v1h-1v-1zm9 0h1v1h-1v-1zm-10 3.5v3h3v-3h-3zm1 1h1v1h-1v-1zm-1 3.5v3h3v-3h-3z" fill="currentColor"/>
 <path d="m12 6v4.5c0 1.385-1.115 2.5-2.5 2.5-0.8187 0-1.5449-0.3955-2-1h1.5v-1h-3v3h1v-1.0625c0.6319 0.658 1.5097 1.0625 2.5 1.0625 1.939 0 3.5-1.561 3.5-3.5v-4.5h-1z" fill="#5e81ac"/>
</svg>
