<svg viewBox="0 0 16 16" xmlns="http://www.w3.org/2000/svg">
 <defs>
  <style id="current-color-scheme" type="text/css">
   .ColorScheme-Text { color:#2e3440; } .ColorScheme-Highlight { color:#88c0d0; } .ColorScheme-NeutralText { color:#d08770; } .ColorScheme-PositiveText { color:#a3be8c; } .ColorScheme-NegativeText { color:#bf616a; }
  </style>
 </defs>
 <path class="ColorScheme-Text" d="m6 2-6 6 6 6h10v-12h-10zm3 2h1v1h-1c-0.55222 0-1 0.44771-1 1v1c0 0.38251-0.13928 0.73504-0.375 1 0.23572 0.26497 0.375 0.6175 0.375 1v1c0 0.55222 0.44771 1 1 1h1v1h-1c-1.1045 0-2-0.89548-2-2v-1c0-0.27615-0.22386-0.5-0.5-0.5h-0.5v-1h0.5c0.27614 0 0.5-0.22384 0.5-0.5v-1c0-1.1045 0.89548-2 2-2zm2 0h1c1.1045 0 2 0.89549 2 2v1c0 0.27616 0.22386 0.5 0.5 0.5h0.5v1h-0.5c-0.27614 0-0.5 0.22385-0.5 0.5v1c0 1.1045-0.89549 2-2 2h-1v-1h1c0.55229 0 1-0.44778 1-1v-1c0-0.3825 0.13928-0.73503 0.375-1-0.23572-0.26496-0.375-0.61749-0.375-1v-1c0-0.55229-0.44778-1-1-1h-1v-1z" fill="currentColor"/>
</svg>
