<svg viewBox="0 0 16 16" xmlns="http://www.w3.org/2000/svg">
 <defs>
  <style id="current-color-scheme" type="text/css">
   .ColorScheme-Text { color:#2e3440; } .ColorScheme-Highlight { color:#88c0d0; } .ColorScheme-NeutralText { color:#d08770; } .ColorScheme-PositiveText { color:#a3be8c; } .ColorScheme-NegativeText { color:#bf616a; }
  </style>
 </defs>
 <path class="ColorScheme-Text" d="m3 2v1h-1v1h1v2h-1v1h1v2h-1v1h1v2h-1v1h1v1h1v-1h2v1h1v-1h2v1h1v-1h2v1h1v-1h1v-1h-1v-2h1v-1h-1v-2h1v-1h-1v-2h1v-1h-1v-1h-1v1h-2v-1h-1v1h-2v-1h-1v1h-2v-1h-1zm1 2h2v2h-2v-2zm3 0h2v2h-2v-2zm3 0h2v2h-2v-2zm-6 3h2v2h-2v-2zm3 0h2v2h-2v-2zm3 0h2v2h-2v-2zm-6 3h2v2h-2v-2zm3 0h2v2h-2v-2zm3 0h2v2h-2v-2z" fill="currentColor"/>
</svg>
