<svg viewBox="0 0 16 16" xmlns="http://www.w3.org/2000/svg">
 <defs>
  <style type="text/css">.ColorScheme-Text {
        color:#2e3440;
      }</style>
 </defs>
 <path class="ColorScheme-Text" d="m6.39 3-4.383 11h1.357l1.189-3h4.928l1.152 3h1.373l-4.252-11zm0.68 1.328c0.113 0.376 0.711 2.082 1.797 5.115l0.225 0.557h-4.143z" fill="currentColor"/>
 <path class="ColorScheme-Text" d="m13 2a1 1 0 0 0-1 1 1 1 0 0 0 1 1 1 1 0 0 0 1-1 1 1 0 0 0-1-1zm0 3a1 1 0 0 0-1 1 1 1 0 0 0 1 1 1 1 0 0 0 1-1 1 1 0 0 0-1-1zm0 3a1 1 0 0 0-1 1 1 1 0 0 0 1 1 1 1 0 0 0 1-1 1 1 0 0 0-1-1z" fill="currentColor" fill-rule="evenodd"/>
</svg>
