<svg viewBox="0 0 16 16" xmlns="http://www.w3.org/2000/svg">
 <defs>
  <style id="current-color-scheme" type="text/css">
   .ColorScheme-Text { color:#2e3440; } .ColorScheme-Highlight { color:#88c0d0; } .ColorScheme-NeutralText { color:#d08770; } .ColorScheme-PositiveText { color:#a3be8c; } .ColorScheme-NegativeText { color:#bf616a; }
  </style>
 </defs>
 <path class="ColorScheme-Text" d="m3.7832 4-2.7832 7h1.2637l0.73633-2h2.4316l0.77148 2h1.2969l-2.75-7h-0.9668zm10.217 0v7h1v-7h-1zm-9.7793 1.4922c0.0909 0.33678 0.19222 0.65285 0.30078 0.95117l0.68945 1.8867h-1.9844l0.68555-1.8535c0.11442-0.30788 0.21763-0.63474 0.30859-0.98438zm6.2793 0.50781a2.5 2.5 0 0 0-2.5 2.5 2.5 2.5 0 0 0 2.5 2.5 2.5 2.5 0 0 0 2.5-2.5 2.5 2.5 0 0 0-2.5-2.5zm0 1a1.5 1.5 0 0 1 1.5 1.5 1.5 1.5 0 0 1-1.5 1.5 1.5 1.5 0 0 1-1.5-1.5 1.5 1.5 0 0 1 1.5-1.5z" fill="currentColor"/>
</svg>
