<svg viewBox="0 0 16 16" xmlns="http://www.w3.org/2000/svg">
 <defs>
  <style id="current-color-scheme" type="text/css">
   .ColorScheme-Text { color:#2e3440; } .ColorScheme-Highlight { color:#88c0d0; } .ColorScheme-NeutralText { color:#d08770; } .ColorScheme-PositiveText { color:#a3be8c; } .ColorScheme-NegativeText { color:#bf616a; }
  </style>
 </defs>
 <path class="ColorScheme-Text" d="m7 2a5 5 0 0 0-5 5 5 5 0 0 0 0.81641 2.7305l-0.81641 3.2695 2.5098-1.6719a5 5 0 0 0 2.4902 0.67188 5 5 0 0 0 1.7578-0.32422 3.5 3.5 0 0 1-0.50781-0.88086 4 4 0 0 1-1.25 0.20508 4 4 0 0 1-4-4 4 4 0 0 1 4-4 4 4 0 0 1 3.8828 3.0566 3.5 3.5 0 0 1 0.61719-0.056641 3.5 3.5 0 0 1 0.4043 0.025391 5 5 0 0 0-4.9043-4.0254zm4.5 5a2.5 2.5 0 0 0-2.5 2.5 2.5 2.5 0 0 0 1.3613 2.2227l1.1387 2.2773 1.1387-2.2773a2.5 2.5 0 0 0 1.3613-2.2227 2.5 2.5 0 0 0-2.5-2.5zm0 1a1.5 1.5 0 0 1 1.5 1.5 1.5 1.5 0 0 1-1.5 1.5 1.5 1.5 0 0 1-1.5-1.5 1.5 1.5 0 0 1 1.5-1.5z" fill="currentColor"/>
</svg>
