<svg viewBox="0 0 16 16" xmlns="http://www.w3.org/2000/svg">
 <defs>
  <style id="current-color-scheme" type="text/css">
   .ColorScheme-Text { color:#2e3440; } .ColorScheme-Highlight { color:#88c0d0; } .ColorScheme-NeutralText { color:#d08770; } .ColorScheme-PositiveText { color:#a3be8c; } .ColorScheme-NegativeText { color:#bf616a; }
  </style>
 </defs>
 <path class="ColorScheme-Text" d="m8 2a1.5 2.25 0 0 0-1.5 2.25 1.5 2.25 0 0 0 0.0039062 0.13867 2.25 1.5 45 0 0-0.095703-0.099609 2.25 1.5 45 0 0-2.6504-0.53125 2.25 1.5 45 0 0 0.5293 2.6523 2.25 1.5 45 0 0 0.099609 0.09375 2.25 1.5 0 0 0-0.13672-0.0039062 2.25 1.5 0 0 0-2.25 1.5 2.25 1.5 0 0 0 2.25 1.5 2.25 1.5 0 0 0 0.13867-0.0039062 1.5 2.25 45 0 0-0.10156 0.095703 1.5 2.25 45 0 0-0.5293 2.6504 1.5 2.25 45 0 0 2.6504-0.5293 1.5 2.25 45 0 0 0.095703-0.09961 1.5 2.25 0 0 0-0.0039062 0.13672 1.5 2.25 0 0 0 1.5 2.25 1.5 2.25 0 0 0 1.5-2.25 1.5 2.25 0 0 0-0.0039062-0.13867 2.25 1.5 45 0 0 0.095703 0.10156 2.25 1.5 45 0 0 2.6504 0.5293 2.25 1.5 45 0 0-0.5293-2.6504 2.25 1.5 45 0 0-0.09961-0.095703 2.25 1.5 0 0 0 0.13672 0.0039062 2.25 1.5 0 0 0 2.25-1.5 2.25 1.5 0 0 0-2.25-1.5 2.25 1.5 0 0 0-0.13867 0.0039062 1.5 2.25 45 0 0 0.10156-0.09375 1.5 2.25 45 0 0 0.5293-2.6523 1.5 2.25 45 0 0-2.6504 0.53125 1.5 2.25 45 0 0-0.095703 0.099609 1.5 2.25 0 0 0 0.0039062-0.13867 1.5 2.25 0 0 0-1.5-2.25zm0.74609 4.1973a1.5 2.25 45 0 0 0.31445 0.74219 1.5 2.25 45 0 0 0.74023 0.31445 2.25 1.5 0 0 0-0.30078 0.74609 2.25 1.5 0 0 0 0.30273 0.74609 2.25 1.5 45 0 0-0.74219 0.31445 2.25 1.5 45 0 0-0.31445 0.74023 1.5 2.25 0 0 0-0.74609-0.30078 1.5 2.25 0 0 0-0.74609 0.30078 1.5 2.25 45 0 0-0.31445-0.74023 1.5 2.25 45 0 0-0.74023-0.31445 2.25 1.5 0 0 0 0.30078-0.74609 2.25 1.5 0 0 0-0.30078-0.74609 2.25 1.5 45 0 0 0.74023-0.31445 2.25 1.5 45 0 0 0.31445-0.74023 1.5 2.25 0 0 0 0.74609 0.30078 1.5 2.25 0 0 0 0.74609-0.30273zm-0.74609 1.0527c-0.4155 0-0.75 0.3345-0.75 0.75s0.3345 0.75 0.75 0.75 0.75-0.3345 0.75-0.75-0.3345-0.75-0.75-0.75z" fill="currentColor"/>
</svg>
