<svg viewBox="0 0 16 16" xmlns="http://www.w3.org/2000/svg">
 <defs>
  <style id="current-color-scheme" type="text/css">
   .ColorScheme-Text { color:#2e3440; } .ColorScheme-Highlight { color:#88c0d0; } .ColorScheme-NeutralText { color:#d08770; } .ColorScheme-PositiveText { color:#a3be8c; } .ColorScheme-NegativeText { color:#bf616a; }
  </style>
 </defs>
 <path class="ColorScheme-Text" d="m8 2a3 3 0 0 0-3 3 3 3 0 0 0 3 3 3 3 0 0 0 3-3 3 3 0 0 0-3-3zm1.293 1 0.70703 0.70703-3.293 3.293-0.70703-0.70703 3.293-3.293zm-1.293 6a5 4.5 0 0 0-5 4.5 5 4.5 0 0 0 0.033203 0.5h9.9297a5 4.5 0 0 0 0.037109-0.5 5 4.5 0 0 0-5-4.5zm0 1a4 3.5 0 0 1 3.9551 3h-7.9102a4 3.5 0 0 1 3.9551-3z" fill="currentColor"/>
 <path d="M 9.3,3 10.007,3.707 6.714,7 6.007,6.293 Z" fill="#fff"/>
</svg>
