<svg viewBox="0 0 16 16" xmlns="http://www.w3.org/2000/svg">
 <defs>
  <style id="current-color-scheme" type="text/css">
   .ColorScheme-Text { color:#2e3440; } .ColorScheme-Highlight { color:#88c0d0; } .ColorScheme-NeutralText { color:#d08770; } .ColorScheme-PositiveText { color:#a3be8c; } .ColorScheme-NegativeText { color:#bf616a; }
  </style>
 </defs>
 <path class="ColorScheme-Text" d="m8 2a6 6 0 0 0-6 6 6 6 0 0 0 6 6 6 6 0 0 0 3.875-1.418l1.418 1.418c-0.017974 0.002873 0.70703-0.70703 0.70703-0.70703l-1.4238-1.4238a6 6 0 0 0 1.4238-3.8691 6 6 0 0 0-6-6zm0 1a5 5 0 0 1 5 5 5 5 0 0 1-1.1309 3.1621l-1.1621-1.1621s-0.71036 0.69967-0.70703 0.70703l1.1621 1.1621a5 5 0 0 1-3.1621 1.1309 5 5 0 0 1-5-5 5 5 0 0 1 5-5z" fill="currentColor"/>
</svg>
