<svg viewBox="0 0 16 16" xmlns="http://www.w3.org/2000/svg">
 <defs>
  <style id="current-color-scheme" type="text/css">
   .ColorScheme-Text { color:#2e3440; } .ColorScheme-Highlight { color:#88c0d0; } .ColorScheme-NeutralText { color:#d08770; } .ColorScheme-PositiveText { color:#a3be8c; } .ColorScheme-NegativeText { color:#bf616a; }
  </style>
 </defs>
 <path class="ColorScheme-Text" d="m10.309 3c-1.3596 0-2.4629 1.1312-2.4629 2.5254 0 0.19783 0.022529 0.38947 0.064453 0.57422-2.046-0.10525-3.86-1.1094-5.0742-2.6367-0.21196 0.37282-0.33398 0.80494-0.33398 1.2676 0 0.8759 0.4351 1.6489 1.0957 2.1016-0.40357-0.012846-0.78333-0.1254-1.1152-0.31445-2.25e-4 0.010769 0 0.020481 0 0.03125 0 1.2232 0.84844 2.2426 1.9746 2.4746-0.20653 0.057769-0.42389 0.089844-0.64844 0.089844-0.15862 0-0.31255-0.017644-0.46289-0.046875 0.3133 1.0029 1.2215 1.7336 2.2988 1.7539-0.84256 0.67718-1.9032 1.0801-3.0566 1.0801-0.19873 0-0.39533-0.011849-0.58789-0.035157 1.0895 0.7163 2.3832 1.1348 3.7734 1.1348 4.5282 0 7.0039-3.8474 7.0039-7.1836 0-0.10942-0.00211-0.21789-0.00586-0.32617 0.48105-0.35595 0.89848-0.80034 1.2285-1.3066-0.44144 0.20077-0.91614 0.33739-1.4141 0.39844 0.5082-0.31244 0.89821-0.80695 1.082-1.3965-0.4757 0.28934-1.0017 0.49817-1.5625 0.61133-0.44901-0.49062-1.0888-0.79688-1.7969-0.79688z" fill="currentColor"/>
</svg>
