<svg viewBox="0 0 16 16" xmlns="http://www.w3.org/2000/svg">
 <defs>
  <style id="current-color-scheme" type="text/css">
   .ColorScheme-Text { color:#2e3440; } .ColorScheme-Highlight { color:#88c0d0; } .ColorScheme-NeutralText { color:#d08770; } .ColorScheme-PositiveText { color:#a3be8c; } .ColorScheme-NegativeText { color:#bf616a; }
  </style>
 </defs>
 <path class="ColorScheme-Text" transform="translate(-421.71-531.79)" d="m429.71 533.79c-1.657 0-3 1.343-3 3s1.343 3 3 3 3-1.343 3-3-1.343-3-3-3m-2 2.5h4v1h-4zm2 4.5c-2.761 0-5 2.01-5 4.5 1e-3 0.167 0.012 0.334 0.033 0.5h9.93c0.023-0.166 0.035-0.333 0.037-0.5 0-2.485-2.239-4.5-5-4.5m0 1c1.987 2e-3 3.671 1.279 3.955 3h-7.91c0.284-1.721 1.968-2.998 3.955-3" fill="currentColor"/>
 <path transform="translate(-421.71-531.79)" d="m427.71 536.29h4v1h-4z" fill="#fff"/>
</svg>
