<svg viewBox="0 0 16 16" xmlns="http://www.w3.org/2000/svg">
 <style type="text/css">.ColorScheme-Text {
            color:#2e3440;
        }
        .ColorScheme-Highlight {
            color:#88c0d0;
        }</style>
 <path class="ColorScheme-Text" d="M8 2a4 4 0 0 0-4 4v4a4 4 0 0 0 4 4h1a4 4 0 0 0 4-4V6a4 4 0 0 0-4-4zm0 1h1a3 3 0 0 1 3 3v4a3 3 0 0 1-3 3H8a3 3 0 0 1-3-3V6a3 3 0 0 1 3-3z" fill="currentColor"/>
 <path class="ColorScheme-Highlight" d="M8 3a3 3 0 0 0-1 .176V8h3V3.174A3 3 0 0 0 9 3zm0 1h1v3H8z" fill="currentColor"/>
</svg>
