<svg viewBox="0 0 16 16" xmlns="http://www.w3.org/2000/svg">
 <defs>
  <style id="current-color-scheme" type="text/css">
   .ColorScheme-Text { color:#2e3440; } .ColorScheme-Highlight { color:#88c0d0; } .ColorScheme-NeutralText { color:#d08770; } .ColorScheme-PositiveText { color:#a3be8c; } .ColorScheme-NegativeText { color:#bf616a; }
  </style>
 </defs>
 <path class="ColorScheme-Text" d="m2 2v12h7v-1h-2v-3h2v-1h-2v-3h2v3h1v-3h3v3h1v-7h-12zm1 1h3v2h-3v-2zm4 0h2v2h-2v-2zm3 0h3v2h-3v-2zm-7 3h3v3h-3v-3zm8 3v2h-2v1h2v2h1v-2h2v-1h-2v-2h-1zm-8 1h3v3h-3v-3z" fill="currentColor"/>
 <path d="m3 3h3v2h-3z" color="#000000" fill="#5e81ac"/>a
</svg>
