<svg viewBox="0 0 16 16" xmlns="http://www.w3.org/2000/svg">
 <defs>
  <style type="text/css">.ColorScheme-Text {
        color:#2e3440;
      }
      .ColorScheme-Highlight {
        color:#88c0d0;
      }</style>
 </defs>
 <path class="ColorScheme-Text" d="m3 4c-.554 0-1 .446-1 1v5c0 .554.446 1 1 1h9c.554 0 1-.446 1-1v-5c0-.554-.446-1-1-1zm7 1.5h1v3h-5v1l-2-1.5 2-1.5v1h4z" fill="currentColor"/>
 <path class="ColorScheme-Text" d="m13 5v5c0 .554-.446 1-1 1h-9c0 .554.446 1 1 1h9c.554 0 1-.446 1-1v-5c0-.554-.446-1-1-1" fill="currentColor" fill-opacity=".5"/>
</svg>
