<svg viewBox="0 0 16 16" xmlns="http://www.w3.org/2000/svg">
 <defs>
  <style id="current-color-scheme" type="text/css">
   .ColorScheme-Text { color:#2e3440; } .ColorScheme-Highlight { color:#88c0d0; } .ColorScheme-NeutralText { color:#d08770; } .ColorScheme-PositiveText { color:#a3be8c; } .ColorScheme-NegativeText { color:#bf616a; }
  </style>
 </defs>
 <path class="ColorScheme-Text" d="m2 2v12h7v-1h-2v-2h-1v2h-3v-3h2v-1h-2v-2h2v-1h-2v-3h3v2h1v-2h2v2h1v-2h3v3h-2.00005v1h2.00005v1h1v-6h-12zm5 4-2 2 2 2v-4zm2 0v3h1l1-1-2-2zm2 3v1h-1v4h4v-4h-1v-1h-2zm0 2h2v2h-2v-2z" fill="currentColor"/>
</svg>
