<svg viewBox="0 0 16 16" xmlns="http://www.w3.org/2000/svg">
 <defs>
  <style id="current-color-scheme" type="text/css">
   .ColorScheme-Text { color:#2e3440; } .ColorScheme-Highlight { color:#88c0d0; } .ColorScheme-NeutralText { color:#d08770; } .ColorScheme-PositiveText { color:#a3be8c; } .ColorScheme-NegativeText { color:#bf616a; }
  </style>
 </defs>
 <path class="ColorScheme-Text" d="m8 2a6 6 0 0 0-6 6 6 6 0 0 0 6 6 6 6 0 0 0 6-6 6 6 0 0 0-6-6zm0 1a5 5 0 0 1 5 5 5 5 0 0 1-5 5 5 5 0 0 1-5-5 5 5 0 0 1 5-5zm2 1c-0.74828 0-1.3913 0.41214-1.7344 1.0176a3 3 0 0 0-0.26562-0.017578 3 3 0 0 0-3 3 3 3 0 0 0 3 3 3 3 0 0 0 3-3 3 3 0 0 0-0.013672-0.26758c0.60335-0.34359 1.0137-0.98571 1.0137-1.7324 0-1.108-0.892-2-2-2zm0 1c0.554 0 1 0.446 1 1 0 0.277-0.11417 0.52823-0.29492 0.70898-0.08664 0.086171-0.18913 0.15524-0.30273 0.20508a1 1 0 0 1-0.021485 0.0097656c-0.11731 0.048102-0.24582 0.076172-0.38086 0.076172-0.55267 0-0.99786-0.44395-1-0.99609a1 1 0 0 1 0-0.0039062c0-0.13717 0.028572-0.26988 0.078125-0.38867a1 1 0 0 1 0-0.0019531c0.050111-0.11887 0.12535-0.22643 0.21484-0.31641 0.18075-0.18075 0.43003-0.29297 0.70703-0.29297zm-2 1c0 1.108 0.892 2 2 2a2 2 0 0 1-2 2 2 2 0 0 1-2-2 2 2 0 0 1 2-2z" fill="currentColor"/>
</svg>
