<svg viewBox="0 0 16 16" xmlns="http://www.w3.org/2000/svg">
 <defs>
  <style id="current-color-scheme" type="text/css">
   .ColorScheme-Text { color:#2e3440; } .ColorScheme-Highlight { color:#88c0d0; } .ColorScheme-NeutralText { color:#d08770; } .ColorScheme-PositiveText { color:#a3be8c; } .ColorScheme-NegativeText { color:#bf616a; }
  </style>
 </defs>
 <path class="ColorScheme-Text" d="m2 2v12h7v-1h-6v-6h10v2h1v-5h-4.992l-2-2-.008.008v-.008h-4zm1 1h3.592l1 1h-.594v.008l-.008-.008-2 2h-1.992z" fill="currentColor"/>
 <path class="ColorScheme-NegativeText" d="M11.5 9A2.5 2.5 0 0 0 9 11.5 2.5 2.5 0 0 0 9.416016 12.876953L10.148 12.145A1.5 1.5 0 0 1 10 11.5 1.5 1.5 0 0 1 11.5 10 1.5 1.5 0 0 1 12.144531 10.148438L12.877 9.416A2.5 2.5 0 0 0 11.5 9M13.584 10.123L12.852 10.855A1.5 1.5 0 0 1 13 11.5 1.5 1.5 0 0 1 11.5 13 1.5 1.5 0 0 1 10.855469 12.851562L10.123 13.584A2.5 2.5 0 0 0 11.5 14 2.5 2.5 0 0 0 14 11.5 2.5 2.5 0 0 0 13.583984 10.123047" fill="currentColor"/>
</svg>
