<svg viewBox="0 0 16 16" xmlns="http://www.w3.org/2000/svg">
 <defs>
  <style id="current-color-scheme" type="text/css">
   .ColorScheme-Text { color:#2e3440; } .ColorScheme-Highlight { color:#88c0d0; } .ColorScheme-NeutralText { color:#d08770; } .ColorScheme-PositiveText { color:#a3be8c; } .ColorScheme-NegativeText { color:#bf616a; }
  </style>
 </defs>
 <path class="ColorScheme-Text" d="m8 2c-3.314 0-6 2.686-6 6s2.686 6 6 6 6-2.686 6-6-2.686-6-6-6m0 1c2.761 0 5 2.239 5 5s-2.239 5-5 5-5-2.239-5-5 2.239-5 5-5m0 2c-1.657 0-3 1.343-3 3s1.343 3 3 3c0.943-1e-3 1.831-0.446 2.396-1.201l-0.799-0.6c-0.377 0.503-0.969 0.8-1.598 0.801-1.105 0-2-0.895-2-2s0.895-2 2-2c0.63 0 1.222 0.297 1.6 0.801l0.797-0.6c-0.566-0.755-1.453-1.2-2.396-1.201" fill="currentColor"/>
</svg>
