<svg viewBox="0 0 16 16" xmlns="http://www.w3.org/2000/svg">
 <defs>
  <style id="current-color-scheme" type="text/css">
   .ColorScheme-Text { color:#2e3440; } .ColorScheme-Highlight { color:#88c0d0; } .ColorScheme-NeutralText { color:#d08770; } .ColorScheme-PositiveText { color:#a3be8c; } .ColorScheme-NegativeText { color:#bf616a; }
  </style>
 </defs>
 <path class="ColorScheme-Text" d="m4 2c-1.657 0-3 1.343-3 3 0 4 5 7 7 9 2-2 7-5 7-9 0-1.657-1.343-3-3-3-3 0-4 2-4 2s-1-2-4-2zm0 1c1.7192-0.013235 2.6355 0.85774 3.3359 2h1.291c0.81741-1.2516 2.0014-1.9838 3.373-2 1.1167 0 2 0.88333 2 2 0 1.5833-1.0356 3.1215-2.457 4.543-1.1851 1.1851-2.4669 2.1665-3.543 3.127-1.076-0.96045-2.3579-1.9419-3.543-3.127-1.4214-1.4214-2.457-2.9596-2.457-4.543 0-1.1167 0.88333-2 2-2z" fill="currentColor"/>
</svg>
