<svg viewBox="0 0 16 16" xmlns="http://www.w3.org/2000/svg">
 <defs>
  <style id="current-color-scheme" type="text/css">
   .ColorScheme-Text { color:#2e3440; } .ColorScheme-Highlight { color:#88c0d0; } .ColorScheme-NeutralText { color:#d08770; } .ColorScheme-PositiveText { color:#a3be8c; } .ColorScheme-NegativeText { color:#bf616a; }
  </style>
 </defs>
 <path class="ColorScheme-Text" d="m8.5 2c-1.3807 0-2.5 1.1193-2.5 2.5v6.0352h0.0019531c0.019084 0.81391 0.68392 1.464 1.498 1.4648 0.82843 0 1.5-0.67157 1.5-1.5v-5.5h-1v5.5c0 0.27614-0.22386 0.5-0.5 0.5s-0.5-0.22386-0.5-0.5v-6c0-0.82843 0.67157-1.5 1.5-1.5s1.5 0.67157 1.5 1.5v6c0 1.3807-1.1193 2.5-2.5 2.5s-2.5-1.1193-2.5-2.5v-6.5h-1v6.5c0 1.933 1.567 3.5 3.5 3.5 1.933 8e-6 3.5-1.567 3.5-3.5v-6.0352h-0.001953c-0.019175-1.3662-1.1317-2.4639-2.498-2.4648z" fill="currentColor"/>
</svg>
