<svg viewBox="0 0 16 16" xmlns="http://www.w3.org/2000/svg">
 <defs>
  <style id="current-color-scheme" type="text/css">
   .ColorScheme-Text { color:#2e3440; } .ColorScheme-Highlight { color:#88c0d0; } .ColorScheme-NeutralText { color:#d08770; } .ColorScheme-PositiveText { color:#a3be8c; } .ColorScheme-NegativeText { color:#bf616a; }
  </style>
 </defs>
 <path class="ColorScheme-Text" d="m3 2a1 1 0 0 0-1 1 1 1 0 0 0 1 1 1 1 0 0 0 1-1 1 1 0 0 0-1-1zm2 0v1h8v-1h-8zm0 2v1h6v-1h-6zm7 3v1h-2c-1.108 0-2 0.89201-2 2v1c0 0.554-0.446 1-1 1h-2v1h2c1.108 0 2-0.89201 2-2v-1c0-0.554 0.446-1 1-1h2v1l2-1.5-2-1.5zm-9 1a1 1 0 0 0-1 1 1 1 0 0 0 1 1 1 1 0 0 0 1-1 1 1 0 0 0-1-1zm2 0v1h2v-1h-2zm7 3v1h-2v1h2v1l2-1.5-2-1.5z" fill="currentColor"/>
</svg>
