<svg viewBox="0 0 16 16" xmlns="http://www.w3.org/2000/svg">
 <defs>
  <style id="current-color-scheme" type="text/css">
   .ColorScheme-Text { color:#2e3440; } .ColorScheme-Highlight { color:#88c0d0; } .ColorScheme-NeutralText { color:#d08770; } .ColorScheme-PositiveText { color:#a3be8c; } .ColorScheme-NegativeText { color:#bf616a; }
  </style>
 </defs>
 <path class="ColorScheme-Text" d="m8 2a6 6 0 0 0-5.9141 5h1.0156a5 5 0 0 1 4.8984-4 5 5 0 0 1 4.8945 4h1.0156a6 6 0 0 0-5.9102-5zm0 2c-1.8617 0-3.4114 1.2777-3.8574 3h2.1348c0.34637-0.59563 0.984-1 1.7227-1v-2zm4 3v1h-5c-1.108 0-2 0.89202-2 2h1c0-0.55399 0.446-1 1-1h5v1l2-1.5-2-1.5zm-9 1v1h-1v1h1v2h-1v1h1v1h1v-6h-1zm4 3-2 1.5 2 1.5v-1h5c1.108 0 2-0.89201 2-2h-1c0 0.554-0.446 1-1 1h-5v-1z" fill="currentColor"/>
</svg>
