<svg viewBox="0 0 16 16" xmlns="http://www.w3.org/2000/svg">
 <defs>
  <style type="text/css">.ColorScheme-Text {
        color:#2e3440;
      }</style>
 </defs>
 <path class="ColorScheme-Text" d="m3 2a1 1 0 0 0-1 1 1 1 0 0 0 1 1 1 1 0 0 0 1-1 1 1 0 0 0-1-1zm2 0v1h8v-1h-8zm0 2v1h6v-1h-6zm7 3v1h-5c-1.108 0-2 0.89201-2 2h1c0-0.554 0.446-1 1-1h5v1l2-1.5-2-1.5zm-9 1a1 1 0 0 0-1 1 1 1 0 0 0 1 1 1 1 0 0 0 1-1 1 1 0 0 0-1-1zm4 3-2 1.5 2 1.5v-1h5c1.108 0 2-0.89201 2-2h-1c0 0.554-0.446 1-1 1h-5v-1z" fill="currentColor"/>
</svg>
