<svg viewBox="0 0 16 16" xmlns="http://www.w3.org/2000/svg">
 <defs>
  <style type="text/css">.ColorScheme-Text {
        color:#2e3440;
      }
      .ColorScheme-Highlight {
        color:#88c0d0;
      }</style>
 </defs>
 <path class="ColorScheme-Text" d="m4 2a1 1 0 0 0-1 1 1 1 0 0 0 1 1 1 1 0 0 0 1-1 1 1 0 0 0-1-1zm2 0v1h8v-1h-6-2zm0 2v1h6v-1h-4-2zm-2 4a1 1 0 0 0-1 1 1 1 0 0 0 1 1 1 1 0 0 0 1-1 1 1 0 0 0-1-1zm2 0v1h4v-1h-2-2zm0 2v1h3v-1h-1-2zm6 3v1h2v-1h-2z" fill="currentColor"/>
 <path class="ColorScheme-Highlight" d="m14 12v-5l-3 2.5z" fill="currentColor"/>
</svg>
