<svg viewBox="0 0 16 16" xmlns="http://www.w3.org/2000/svg">
 <defs>
  <style id="current-color-scheme" type="text/css">
   .ColorScheme-Text { color:#2e3440; } .ColorScheme-Highlight { color:#88c0d0; } .ColorScheme-NeutralText { color:#d08770; } .ColorScheme-PositiveText { color:#a3be8c; } .ColorScheme-NegativeText { color:#bf616a; }
  </style>
 </defs>
 <path class="ColorScheme-Text" d="m2 2v1h5v-1h-5zm7 0v1h5v-1h-5zm-7 3v1h5v-1h-5zm7 0v1h5v-1h-5zm-2 2-2 1.5 2 1.5v-1h5c0.554 0 1 0.446 1 1h1c0-1.108-0.892-2-2-2h-5v-1z" fill="currentColor"/>
 <path class="ColorScheme-Highlight" d="m12 11 2 1.5-2 1.5v-1h-5c-1.108 0-2-0.892-2-2h1c0 0.554 0.446 1 1 1h5z" fill="currentColor"/>
</svg>
