<svg viewBox="0 0 16 16" xmlns="http://www.w3.org/2000/svg">
 <defs>
  <style type="text/css">.ColorScheme-Text {
        color:#2e3440;
      }
      .ColorScheme-NegativeText {
        color:#bf616a;
      }</style>
 </defs>
 <path class="ColorScheme-Text" d="m13.301 2-2.6504 2.6504-1.0645-1.0645-3 3 2.8281 2.8281 3-3-1.0645-1.0645 2.6504-2.6504-0.69922-0.69922zm-7.7148 5.5859-2 2 1.0645 1.0645-2.6504 2.6504 0.69922 0.69922 2.6504-2.6504 1.0645 1.0645 2-2-2.8281-2.8281z" fill="currentColor"/>
 <path class="ColorScheme-NegativeText" d="m9 9.83 1.667 1.667-1.667 1.667 0.833 0.833 1.667-1.667 1.667 1.667 0.833-0.833-1.667-1.667 1.667-1.667-0.833-0.833-1.667 1.667-1.667-1.667z" fill="currentColor"/>
</svg>
