<svg viewBox="0 0 16 16" xmlns="http://www.w3.org/2000/svg">
 <defs>
  <style id="current-color-scheme" type="text/css">
   .ColorScheme-Text { color:#2e3440; } .ColorScheme-Highlight { color:#88c0d0; } .ColorScheme-NeutralText { color:#d08770; } .ColorScheme-PositiveText { color:#a3be8c; } .ColorScheme-NegativeText { color:#bf616a; }
  </style>
 </defs>
 <path class="ColorScheme-Text" d="m2 2v3h3v-3h-3zm9 0v3h3v-3h-3zm-8 1h1v1h-1v-1zm9 0h1v1h-1v-1zm-6 1v1h1v-1h-1zm3 0v1h1v-1h-1zm-5 2v1h1v-1h-1zm7 0v1h1v-1h-1zm-7 3v1h1v-1h-1zm-2 2v3h3v-3h-3zm4 0v1h1v-1h-1zm-3 1h1v1h-1v-1z" fill="currentColor"/>
 <path class="ColorScheme-Highlight" d="m8 8v2h1v-1h1v-1h-2zm4 0v1h1v1h1v-2h-2zm-4 4v2h2v-1h-1v-1h-1zm5 0v1h-1v1h2v-2h-1z" fill="currentColor"/>
</svg>
