<svg viewBox="0 0 16 16" xmlns="http://www.w3.org/2000/svg">
 <defs>
  <style id="current-color-scheme" type="text/css">
   .ColorScheme-Text { color:#2e3440; } .ColorScheme-Highlight { color:#88c0d0; } .ColorScheme-NeutralText { color:#d08770; } .ColorScheme-PositiveText { color:#a3be8c; } .ColorScheme-NegativeText { color:#bf616a; }
  </style>
 </defs>
 <path class="ColorScheme-Text" d="m5.3047 2c0.0099702-0.0022948-3.3047 3.3125-3.3047 3.3125v8.6875h8.6875s3.3234-3.2827 3.3125-3.2812v-8.71875h-8.69531zm0.69531 1h6.2812c-0.83334 0.84433-1.6272 1.6612-1.9688 2h-4.3125v-2zm-1 0.71875v1.2812h-1.3125l1.3125-1.2812zm8 0v6.2812h-2v-4.3125l2-1.9688zm-10 2.2812h2v4.2812l-0.34375 0.375-1.6562 1.6562v-6.3125zm3 0h4v4h-4v-4zm-0.28125 5h4.2812v2h-6.3125l1.6562-1.6562 0.375-0.34375zm5.2812 0h1.2812c-0.54463 0.55182-0.73557 0.762-1.2812 1.3125v-1.3125z" fill="currentColor"/>
</svg>
