<svg version="1.1" viewBox="0 0 16 16" xmlns="http://www.w3.org/2000/svg">
 <style type="text/css">.ColorScheme-Text {
            color:#2e3440;
        }</style>
 <circle cx="9.148" cy="2.5" r="0"/>
 <path class="ColorScheme-Text" d="m8 2a1 1 0 0 0-1 1 1 1 0 0 0 0.013672 0.16992 3 3 0 0 0-2.0137 2.8301c0 1.8678-0.66449 2.6645-2 4v1h10v-1c-1.3355-1.3355-2-2.1322-2-4a3 3 0 0 0-2.0156-2.8301 1 1 0 0 0 0.015625-0.16992 1 1 0 0 0-1-1zm0 2a2 2 0 0 1 2 2c0 1.7603 0.64782 2.8886 1.6387 4h-7.2773c0.99085-1.1114 1.6387-2.2397 1.6387-4a2 2 0 0 1 2-2zm-1.4121 8a1.5 1.5 0 0 0-0.087891 0.5 1.5 1.5 0 0 0 1.5 1.5 1.5 1.5 0 0 0 1.5-1.5 1.5 1.5 0 0 0-0.087891-0.5h-2.8242z" fill="currentColor"/>
</svg>
