<svg viewBox="0 0 16 16" xmlns="http://www.w3.org/2000/svg">
 <defs>
  <style id="current-color-scheme" type="text/css">
   .ColorScheme-Text { color:#2e3440; } .ColorScheme-Highlight { color:#88c0d0; } .ColorScheme-NeutralText { color:#d08770; } .ColorScheme-PositiveText { color:#a3be8c; } .ColorScheme-NegativeText { color:#bf616a; }
  </style>
 </defs>
 <path class="ColorScheme-Text" d="m11 3.5a7.5 7.5 0 0 0-7.5 7.5h1a6.5 6.5 0 0 1 6.5-6.5v-1zm1.0039 6.5a2 2 0 0 0-2 2 2 2 0 0 0 0.2793 1.0137l0.75586-0.75586a1 1 0 0 1-0.035156-0.25781 1 1 0 0 1 1-1 1 1 0 0 1 0.25781 0.035156l0.75586-0.75586a2 2 0 0 0-1.0137-0.2793zm1.7207 0.98633-0.75586 0.75586a1 1 0 0 1 0.035156 0.25781 1 1 0 0 1-1 1 1 1 0 0 1-0.25781-0.035156l-0.75586 0.75586a2 2 0 0 0 1.0137 0.2793 2 2 0 0 0 2-2 2 2 0 0 0-0.2793-1.0137z" fill="currentColor"/>
 <path class="ColorScheme-Highlight" d="m11 2v4h4v-4h-4zm1 1h2v2h-2v-2zm-10 7v4h4v-4h-4zm1 1h2v2h-2v-2z" fill="currentColor"/>
</svg>
