<svg viewBox="0 0 16 16" xmlns="http://www.w3.org/2000/svg">
 <defs>
  <style id="current-color-scheme" type="text/css">
   .ColorScheme-Text { color:#2e3440; } .ColorScheme-Highlight { color:#88c0d0; } .ColorScheme-NeutralText { color:#d08770; } .ColorScheme-PositiveText { color:#a3be8c; } .ColorScheme-NegativeText { color:#bf616a; }
  </style>
 </defs>
 <path class="ColorScheme-Text" d="m4 2v5h2v2h-2v5h8v-5h-2v-2h2v-5h-8zm1 1h6v3h-6v-3zm-3 1v1h1v-1h-1zm11 0v1h1v-1h-1zm-6 3h2v2h-2v-2zm-2 3h6v3h-6v-3zm-3 1v1h1v-1h-1zm4 0v1h4v-1h-4zm7 0v1h1v-1h-1z" fill="currentColor"/>
</svg>
