<svg viewBox="0 0 16 16" xmlns="http://www.w3.org/2000/svg">
 <defs>
  <style id="current-color-scheme" type="text/css">
   .ColorScheme-Text { color:#2e3440; } .ColorScheme-Highlight { color:#88c0d0; } .ColorScheme-NeutralText { color:#d08770; } .ColorScheme-PositiveText { color:#a3be8c; } .ColorScheme-NegativeText { color:#bf616a; }
  </style>
 </defs>
 <path class="ColorScheme-Text" d="m2 2v3h1v-2h2v-1h-3zm9 0v1h2v2h1v-3h-3zm-5 2c-1.105 0-2 0.895-2 2s0.895 2 2 2 2-0.895 2-2-0.895-2-2-2zm3 0v4h3v-4h-3zm-4 5v3h2v-3h-2zm5.5 0-1.5 3h3l-1.5-3zm-8.5 2v3h3v-1h-2v-2h-1zm11 0v2h-2v1h3v-3h-1z" fill="currentColor"/>
</svg>
