<svg viewBox="0 0 16 16" xmlns="http://www.w3.org/2000/svg">
 <defs>
  <style id="current-color-scheme" type="text/css">
   .ColorScheme-Text { color:#2e3440; } .ColorScheme-Highlight { color:#88c0d0; } .ColorScheme-NeutralText { color:#d08770; } .ColorScheme-PositiveText { color:#a3be8c; } .ColorScheme-NegativeText { color:#bf616a; }
  </style>
 </defs>
 <path class="ColorScheme-Text" d="m4 2v1h1v-1h-1zm7 0v1h1v-1h-1zm-9 2v8h5v-2h2v2h5v-8h-5v2h-2v-2h-5zm1 1h3v6h-3v-6zm7 0h3v6h-3v-6zm1 1v4h1v-4h-1zm-4 1h2v2h-2v-2zm-3 6v1h1v-1h-1zm7 0v1h1v-1h-1z" fill="currentColor"/>
</svg>
