<svg viewBox="0 0 16 16" xmlns="http://www.w3.org/2000/svg">
 <defs>
  <style id="current-color-scheme" type="text/css">
   .ColorScheme-Text { color:#2e3440; } .ColorScheme-Highlight { color:#88c0d0; } .ColorScheme-NeutralText { color:#d08770; } .ColorScheme-PositiveText { color:#a3be8c; } .ColorScheme-NegativeText { color:#bf616a; }
  </style>
 </defs>
 <path class="ColorScheme-Text" d="m2 2v1.5273h-0.99609v0.0078124h0.99609v7.4648h-1v0.007812h1v2.9922h12v-2.132803l-0.041016-0.039063-2.8281-2.8281-0.003906 0.0039062-0.005859-0.0039062-2.123 2.123-3.123-3.123h-2.875v-4.4648h4.4648l-2.4668 2.4668h-1.9961v1h2.4102l3.5898-3.5898 2.123 2.123 0.005859-0.0039062 0.003907 0.0039062 2.8281-2.8281c3e-3 5e-3 -0.70703-0.70703-0.70703-0.70703l-2.125 2.125-2.127-2.125-0.0019531 0.0019531-0.0019531-0.0019531-1.5273 1.5273h-4.4727v-1.5273h-1zm1 7h2.4609l2 2h-4.4609v-2zm8.127 1.4102 2.125 2.125 0.48242 0.46484h-10.734v-1.9922h4.4688l1.5273 1.5273 0.0019531-0.001953 0.0019531 0.001953 2.127-2.125z" fill="currentColor"/>
 <path class="ColorScheme-Text" d="m13.46 2.22-2.451 2.779-2-3-4 4h-2v7h11v-10.258z" fill="currentColor" fill-opacity=".5"/>
</svg>
