<svg viewBox="0 0 16 16" xmlns="http://www.w3.org/2000/svg">
 <defs>
  <style id="current-color-scheme" type="text/css">
   .ColorScheme-Text { color:#2e3440; } .ColorScheme-Highlight { color:#88c0d0; } .ColorScheme-NeutralText { color:#d08770; } .ColorScheme-PositiveText { color:#a3be8c; } .ColorScheme-NegativeText { color:#bf616a; }
  </style>
 </defs>
 <path class="ColorScheme-Text" d="m8 2a6 6 0 0 0-0.86719 0.070312 6 6 0 0 0-0.55859 0.10938 6 6 0 0 0-0.099609 0.021484c-0.025649 0.0067069-0.050857 0.014056-0.076172 0.021484a6 6 0 0 0-0.39648 0.12695 6 6 0 0 0-0.14453 0.048828c-0.033653 0.012854-0.066658 0.026827-0.099609 0.041016a6 6 0 0 0-0.28125 0.125 6 6 0 0 0-0.18164 0.082031c-0.024001 0.012137-0.047051 0.025769-0.070312 0.039062a6 6 0 0 0-0.28906 0.16406 6 6 0 0 0-0.17773 0.10156 6 6 0 0 0-0.076172 0.054688 6 6 0 0 0-0.24219 0.17188 6 6 0 0 0-0.16992 0.12305 6 6 0 0 0-0.0625 0.054688 6 6 0 0 0-0.26172 0.23242c-0.051232 0.045036-0.10366 0.088753-0.15234 0.13672a6 6 0 0 0-0.033203 0.035156 6 6 0 0 0-0.2832 0.31055c-0.035818 0.039722-0.073434 0.077831-0.10742 0.11914a6 6 0 0 0-0.011719 0.015625 6 6 0 0 0-1.3574 3.7949 6 6 0 0 0 6 6 6 6 0 0 0 6-6 6 6 0 0 0-0.44141-2.2422 6 6 0 0 0-5.5586-3.7578zm0 1a5 5 0 0 1 2.6465 0.76562l-1.5879 2.541c0.51946 0.32486 0.87029 0.88127 0.92383 1.5273l2.998-0.25a5 5 0 0 1 0.019531 0.41602 5 5 0 0 1-5 5v-3c-0.554 0-1.0545-0.22248-1.416-0.58398l-2.1172 2.1172a5 5 0 0 1-1.4668-3.5332 5 5 0 0 1 1.0996-3.1211l2.3438 1.875c0.36593-0.45681 0.92316-0.75391 1.5566-0.75391v-3zm-3.4355 8.625c0.18125 0.17175 0.37257 0.3334 0.57812 0.47656a5 5 0 0 1-0.57812-0.47656zm0.73438 0.57617c0.21371 0.13731 0.43731 0.26126 0.67188 0.36523a5 5 0 0 1-0.67188-0.36523zm0.83008 0.43164c0.26482 0.10654 0.53891 0.1935 0.82422 0.25391a5 5 0 0 1-0.82422-0.25391z" fill="currentColor"/>
</svg>
