<svg viewBox="0 0 16 16" xmlns="http://www.w3.org/2000/svg">
 <defs>
  <style id="current-color-scheme" type="text/css">
   .ColorScheme-Text { color:#2e3440; } .ColorScheme-Highlight { color:#88c0d0; } .ColorScheme-NeutralText { color:#d08770; } .ColorScheme-PositiveText { color:#a3be8c; } .ColorScheme-NegativeText { color:#bf616a; }
  </style>
 </defs>
 <path class="ColorScheme-Text" d="m2 2v2.9961h-0.99219v0.0097656h0.99219v8.9941h12v-1h-11v-7.9941h4.4688l-3 3h-1.4609v1h1.875l4.123-4.123 2.123 2.123 0.00586-0.0039063 0.003906 0.0039063 2.8281-2.8281c3e-3 5e-3 -0.70703-0.70703-0.70703-0.70703l-2.125 2.125-2.127-2.125-0.0019531 0.0019531-0.0019532-0.0019531-1.5273 1.5254h-4.4766v-2.9961h-1zm5.5996 7-2 2h-2.5938v1h3v-0.007812l0.0078125 0.007812 2-2h1.5918l2 2h2.4004v-1h-1.9863l-2-2h-2.42z" fill="currentColor"/>
</svg>
