<svg viewBox="0 0 16 16" xmlns="http://www.w3.org/2000/svg">
 <defs>
  <style id="current-color-scheme" type="text/css">
   .ColorScheme-Text { color:#2e3440; } .ColorScheme-Highlight { color:#88c0d0; } .ColorScheme-NeutralText { color:#d08770; } .ColorScheme-PositiveText { color:#a3be8c; } .ColorScheme-NegativeText { color:#bf616a; }
  </style>
 </defs>
 <path class="ColorScheme-Text" d="m2 2v12h12v-12h-12z" fill="currentColor"/>
 <path d="m4 2-2 2 2 2 2-2-2-2zm2 2 2 2 2-2-2-2-2 2zm4 0 2 2 2-2-2-2-2 2zm2 2-2 2 2 2 2-2-2-2zm0 4-2 2 2 2 2-2-2-2zm-2 2-2-2-2 2 2 2 2-2zm-4 0-2-2-2 2 2 2 2-2zm-2-2 2-2-2-2-2 2 2 2zm2-2 2 2 2-2-2-2-2 2z" fill="#fff"/>
</svg>
