<svg viewBox="0 0 16 16" xmlns="http://www.w3.org/2000/svg">
 <defs>
  <style type="text/css">.ColorScheme-Text {
        color:#2e3440;
      }
      .ColorScheme-Highlight {
        color:#88c0d0;
      }</style>
 </defs>
 <path class="ColorScheme-Text" d="m5 2-2 1.5 2 1.5v-1h4v-1h-4v-1zm8 0c0 2.419-1.718 4.8209-4 5.3789v1.0156c2.837-0.56 5-3.4215 5-6.3945h-1zm-6 5.6055c-2.837 0.56-5 3.4215-5 6.3945h1c0-2.419 1.718-4.8209 4-5.3789v-1.0156zm4 3.3945v1h-4v1h4v1l2-1.5-2-1.5z" fill="currentColor"/>
 <path class="ColorScheme-Highlight" d="m6 6v4h4v-4zm1 1h2v2h-2z" fill="currentColor"/>
</svg>
