<svg viewBox="0 0 16 16" xmlns="http://www.w3.org/2000/svg">
 <defs>
  <style id="current-color-scheme" type="text/css">
   .ColorScheme-Text { color:#2e3440; } .ColorScheme-Highlight { color:#88c0d0; } .ColorScheme-NeutralText { color:#d08770; } .ColorScheme-PositiveText { color:#a3be8c; } .ColorScheme-NegativeText { color:#bf616a; }
  </style>
 </defs>
 <path class="ColorScheme-Text" d="m9.5 3a3.5 3.5 0 0 0-3.459 3h3.959v3.9609a3.5 3.5 0 0 0 3-3.4609 3.5 3.5 0 0 0-3.5-3.5zm-3.459 3a3.5 3.5 0 0 0-0.029297 0.28125 3.5 3.5 0 0 1 0.029297-0.28125zm-0.041016 0.5a3.5 3.5 0 0 0 0.015625 0.31055 3.5 3.5 0 0 1-0.015625-0.31055zm0.033203 0.44922a3.5 3.5 0 0 0 0.0058594 0.050781h-3.0391v6h6v-3.0391a3.5 3.5 0 0 1-2.9668-3.0117zm3.0312 3.0195a3.5 3.5 0 0 0 0.12305 0.015625 3.5 3.5 0 0 1-0.12305-0.015625zm0.77344 0.011719a3.5 3.5 0 0 1-0.33789 0.019531 3.5 3.5 0 0 0 0.33789-0.019531z" fill="currentColor" fill-opacity=".5"/>
 <path class="ColorScheme-Highlight" d="m9.5039 2a4.5 4.5 0 0 0-4.4668 4h-3.0371v8h8v-3.0293a4.5 4.5 0 0 0 4.0039-4.4707 4.5 4.5 0 0 0-4.5-4.5zm0 1a3.5 3.5 0 0 1 3.5 3.5 3.5 3.5 0 0 1-3.0039 3.4609v-3.9609h-3.9551a3.5 3.5 0 0 1 3.459-3zm-6.5039 4h2.0352a4.5 4.5 0 0 0 3.9648 3.9668v2.0332h-6v-6zm3.043 0h2.957v2.959a3.5 3.5 0 0 1-2.957-2.959z" fill="currentColor"/>
</svg>
