<svg viewBox="0 0 16 16" xmlns="http://www.w3.org/2000/svg">
 <defs>
  <style id="current-color-scheme" type="text/css">
   .ColorScheme-Text { color:#2e3440; } .ColorScheme-Highlight { color:#88c0d0; } .ColorScheme-NeutralText { color:#d08770; } .ColorScheme-PositiveText { color:#a3be8c; } .ColorScheme-NegativeText { color:#bf616a; }
  </style>
 </defs>
 <path class="ColorScheme-Text" d="m9.5039 2a4.5 4.5 0 0 0-4.4668 4h-3.0371v8h8v-3.0293a4.5 4.5 0 0 0 4.0039-4.4707 4.5 4.5 0 0 0-4.5-4.5zm0 1a3.5 3.5 0 0 1 3.5 3.5 3.5 3.5 0 0 1-3.0039 3.4609v-3.9609h-3.9551a3.5 3.5 0 0 1 3.459-3zm-6.5039 4h2.0352a4.5 4.5 0 0 0 3.9648 3.9668v2.0332h-6v-6zm3.043 0h2.957v2.959a3.5 3.5 0 0 1-2.957-2.959z" fill="currentColor"/>
 <path class="ColorScheme-Text" d="m9.5 3a3.5 3.5 0 0 0-3.5 3.5 3.5 3.5 0 0 0 0.039062 0.5h2.9609v2.959a3.5 3.5 0 0 0 0.5 0.041016 3.5 3.5 0 0 0 3.5-3.5 3.5 3.5 0 0 0-3.5-3.5zm-0.5 6.959a3.5 3.5 0 0 1-2.9609-2.959h-3.0391v6h6v-3.041z" fill="currentColor" fill-opacity=".5"/>
</svg>
