<svg viewBox="0 0 16 16" xmlns="http://www.w3.org/2000/svg">
 <defs>
  <style id="current-color-scheme" type="text/css">
   .ColorScheme-Text { color:#2e3440; } .ColorScheme-Highlight { color:#88c0d0; } .ColorScheme-NeutralText { color:#d08770; } .ColorScheme-PositiveText { color:#a3be8c; } .ColorScheme-NegativeText { color:#bf616a; }
  </style>
 </defs>
 <path class="ColorScheme-Text" d="m14.004 2a12 12 0 0 0-7.9219 3h0.92188v0.52539a11 11 0 0 1 7-2.5254v-1zm-9 4.0859a12 12 0 0 0-3 7.9141h1a11 11 0 0 1 2.5215-7h-0.52148v-0.91406zm9 1.9141a6 6 0 0 0-6 6h1a5 5 0 0 1 5-5v-1z" fill="currentColor"/>
 <path class="ColorScheme-Highlight" d="m4 4v4h4v-4zm1 1h2v2h-2z" fill="currentColor"/>
</svg>
