<svg viewBox="0 0 16 16" xmlns="http://www.w3.org/2000/svg">
 <defs>
  <style id="current-color-scheme" type="text/css">
   .ColorScheme-Text { color:#2e3440; } .ColorScheme-Highlight { color:#88c0d0; } .ColorScheme-NeutralText { color:#d08770; } .ColorScheme-PositiveText { color:#a3be8c; } .ColorScheme-NegativeText { color:#bf616a; }
  </style>
 </defs>
 <path class="ColorScheme-Text" d="m9 2.0312a4.5 4.5 0 0 0-1.3008 0.34766l0.50391 0.87305a3.5 3.5 0 0 1 0.79688-0.21289v-1.0078zm1 0.0019531v1.0078a3.5 3.5 0 0 1 0.79688 0.21094l0.50195-0.86914a4.5 4.5 0 0 0-1.2988-0.34961zm-3.166 0.84766a4.5 4.5 0 0 0-0.95312 0.95312l0.87305 0.50195a3.5 3.5 0 0 1 0.58008-0.58594l-0.5-0.86914zm5.332 0-0.50195 0.87305a3.5 3.5 0 0 1 0.58594 0.58008l0.86914-0.5a4.5 4.5 0 0 0-0.95312-0.95312zm1.4551 1.8184-0.87305 0.50391a3.5 3.5 0 0 1 0.21289 0.79688h1.0078a4.5 4.5 0 0 0-0.34766-1.3008zm-8.2383 0.0019531a4.5 4.5 0 0 0-0.34961 1.2988h-3.0332v8h8v-3.0312a4.5 4.5 0 0 0 1.3008-0.34766l-0.50391-0.87305a3.5 3.5 0 0 1-0.79688 0.21094v-3.959h-3.9609a3.5 3.5 0 0 1 0.21289-0.79688l-0.86914-0.50195zm-2.3828 2.2988h2.0293a4.5 4.5 0 0 0 3.9707 3.9668v2.0332h-6v-6zm3.0391 0h2.9609v2.959a3.5 3.5 0 0 1-2.9609-2.959zm6.9199 0a3.5 3.5 0 0 1-0.21094 0.79688l0.86914 0.50195a4.5 4.5 0 0 0 0.34961-1.2988h-1.0078zm-0.71289 1.6641a3.5 3.5 0 0 1-0.58008 0.58594l0.5 0.86914a4.5 4.5 0 0 0 0.95312-0.95313l-0.87305-0.50195z" fill="currentColor"/>
 <path class="ColorScheme-Text" d="m3 7v6h6v-6h-6z" fill="currentColor" fill-opacity=".5"/>
</svg>
