<svg viewBox="0 0 16 16" xmlns="http://www.w3.org/2000/svg">
 <defs>
  <style id="current-color-scheme" type="text/css">
   .ColorScheme-Text { color:#2e3440; } .ColorScheme-Highlight { color:#88c0d0; } .ColorScheme-NeutralText { color:#d08770; } .ColorScheme-PositiveText { color:#a3be8c; } .ColorScheme-NegativeText { color:#bf616a; }
  </style>
 </defs>
 <path class="ColorScheme-Text" d="m9 2.0312a4.5 4.5 0 0 0-1.3008 0.34766l0.50378 0.87309a3.5 3.5 0 0 1 0.797-0.21294zm1 0.00175v1.008a3.5 3.5 0 0 1 0.79688 0.21095l0.50212-0.86895a4.5 4.5 0 0 0-1.299-0.3498m-3.166 0.84766a4.5 4.5 0 0 0-0.95312 0.95312l0.87314 0.50202a3.5 3.5 0 0 1 0.57998-0.586zm5.332 1.41e-4 -0.502 0.873a3.5 3.5 0 0 1 0.586 0.57998l0.87-0.49998a4.5 4.5 0 0 0-0.95398-0.95314m1.455 1.8181-0.873 0.504a3.5 3.5 0 0 1 0.21294 0.797h1.0081a4.5 4.5 0 0 0-0.34791-1.3008m-8.2383 0.001953a4.5 4.5 0 0 0-0.34961 1.2988h-3.0332v8h8v-3.031a4.5 4.5 0 0 0 1.3008-0.34791l-0.50378-0.87309a3.5 3.5 0 0 1-0.84388 0.21684 3.5 3.5 0 0 1-0.25781 0.027344 3.5 3.5 0 0 1-0.19531 0.007812 3.5 3.5 0 0 1-0.5-0.041016 3.5 3.5 0 0 1-2.9609-2.959 3.5 3.5 0 0 1-0.03906-0.5 3.5 3.5 0 0 1 0.04102-0.5 3.5 3.5 0 0 1 0.21093-0.79688zm-2.3828 2.2988h2.03a4.5 4.5 0 0 0 3.97 3.9668v2.0332h-6zm9.959 0a3.5 3.5 0 0 1-0.21094 0.79688l0.86895 0.50212a4.5 4.5 0 0 0 0.3498-1.299zm-0.71289 1.6641a3.5 3.5 0 0 1-0.58008 0.58594l0.49998 0.869a4.5 4.5 0 0 0 0.95314-0.95298z" fill="currentColor"/>
 <path class="ColorScheme-Text" d="m3 7v6h6v-3.041a3.5 3.5 0 0 1-2.9609-2.959z" fill="currentColor" fill-opacity=".5"/>
</svg>
