<svg viewBox="0 0 16 16" xmlns="http://www.w3.org/2000/svg">
 <defs>
  <style id="current-color-scheme" type="text/css">
   .ColorScheme-Text { color:#2e3440; } .ColorScheme-Highlight { color:#88c0d0; } .ColorScheme-NeutralText { color:#d08770; } .ColorScheme-PositiveText { color:#a3be8c; } .ColorScheme-NegativeText { color:#bf616a; }
  </style>
 </defs>
 <path class="ColorScheme-Text" d="m5.2598 2.5996c-1.3713 0.60109-2.5122 1.6197-3.2539 2.9062l0.86523 0.5c0.635-1.101 1.6102-1.9713 2.7832-2.4863l-0.39453-0.91992zm5.4902 0-0.39453 0.91992c1.173 0.515 2.1482 1.3853 2.7832 2.4863l0.86719-0.5c-0.74171-1.2865-1.8846-2.3052-3.2559-2.9062zm-2.7461 1.4004a5 5 0 0 0-5 5 5 5 0 0 0 5 5 5 5 0 0 0 5-5 5 5 0 0 0-5-5zm0 1a4 4 0 0 1 4 4 4 4 0 0 1-4 4 4 4 0 0 1-4-4 4 4 0 0 1 4-4zm-1.5039 1.5v5l3.5-2.5-3.5-2.5z" fill="currentColor"/>
</svg>
