<svg viewBox="0 0 16 16" xmlns="http://www.w3.org/2000/svg">
 <defs>
  <style id="current-color-scheme" type="text/css">
   .ColorScheme-Text { color:#2e3440; } .ColorScheme-Highlight { color:#88c0d0; } .ColorScheme-NeutralText { color:#d08770; } .ColorScheme-PositiveText { color:#a3be8c; } .ColorScheme-NegativeText { color:#bf616a; }
  </style>
 </defs>
 <path class="ColorScheme-Text" d="m7 2v1.1016c-0.626 0.129-1.2209 0.37747-1.7539 0.73047l-0.78125-0.78125-1.4141 1.4141 0.78125 0.78125c-0.352 0.533-0.59856 1.1279-0.72656 1.7539h-1.1055v2h1.1016c0.129 0.626 0.37747 1.2209 0.73047 1.7539l-0.78125 0.78125 1.4141 1.4141 0.78125-0.78125c0.533 0.352 1.1279 0.59856 1.7539 0.72656v-1.0273c-0.71-0.182-1.3571-0.55608-1.8691-1.0801-0.725-0.747-1.1309-1.7442-1.1309-2.7852 0-1.081 0.43789-2.1161 1.2129-2.8691 0.747-0.725 1.7461-1.1309 2.7871-1.1309 1.081 0 2.1161 0.43789 2.8691 1.2129 0.725 0.747 1.1309 1.7461 1.1309 2.7871-2e-3 0.338-0.046812 0.674-0.13281 1h2.1328v-2h-1.1016c-0.129-0.626-0.37747-1.2229-0.73047-1.7559l0.78125-0.7793-1.4141-1.4141-0.78125 0.7793c-0.533-0.352-1.1279-0.59856-1.7539-0.72656v-1.1035l-2-0.0019531zm0 4v4l3-2-3-2zm3 4-2 2 2 2h4v-4h-4zm0.59961 1h2.4004v2h-2.4004l-1-1 1-1z" fill="currentColor"/>
</svg>
