<svg viewBox="0 0 16 16" xmlns="http://www.w3.org/2000/svg">
 <defs>
  <style id="current-color-scheme" type="text/css">
   .ColorScheme-Text { color:#2e3440; } .ColorScheme-Highlight { color:#88c0d0; } .ColorScheme-NeutralText { color:#d08770; } .ColorScheme-PositiveText { color:#a3be8c; } .ColorScheme-NegativeText { color:#bf616a; }
  </style>
 </defs>
 <path class="ColorScheme-Text" d="m7 2v1.1016c-0.626 0.129-1.2209 0.37747-1.7539 0.73047l-0.78125-0.78125-1.4141 1.4141 0.78125 0.78125c-0.352 0.533-0.59856 1.1279-0.72656 1.7539h-1.1055v2h1.1016c0.129 0.626 0.37747 1.2209 0.73047 1.7539l-0.78125 0.78125 1.4141 1.4141 0.78125-0.78125c0.533 0.352 1.1279 0.59856 1.7539 0.72656v1.1055h1v-2c-1.081 0-2.1161-0.43789-2.8691-1.2129-0.725-0.747-1.1309-1.7461-1.1309-2.7871 0-1.081 0.43789-2.1161 1.2129-2.8691 0.747-0.725 1.7461-1.1309 2.7871-1.1309 1.081 0 2.1161 0.43789 2.8691 1.2129 0.725 0.747 1.1309 1.7461 1.1309 2.7871h2v-1h-1.1016c-0.129-0.626-0.37747-1.2209-0.73047-1.7539l0.78125-0.78125-1.4141-1.4141-0.78125 0.78125c-0.533-0.352-1.1279-0.59856-1.7539-0.72656v-1.1055h-2zm0 4v4l3-2-3-2zm4 3v4.0859l-1.6211-1.6211-0.70703 0.70703 2.8281 2.8281 2.8281-2.8281-0.70703-0.70703-1.6211 1.6211v-4.0859h-1z" fill="currentColor"/>
</svg>
