<svg viewBox="0 0 16 16" xmlns="http://www.w3.org/2000/svg">
 <defs>
  <style id="current-color-scheme" type="text/css">
   .ColorScheme-Text { color:#2e3440; } .ColorScheme-Highlight { color:#88c0d0; } .ColorScheme-NeutralText { color:#d08770; } .ColorScheme-PositiveText { color:#a3be8c; } .ColorScheme-NegativeText { color:#bf616a; }
  </style>
 </defs>
 <path class="ColorScheme-Text" d="m7 2v1.1016a5 5 0 0 0-1.7539 0.73047l-0.78125-0.78125-1.4141 1.4141 0.78125 0.78125a5 5 0 0 0-0.72656 1.7539h-1.1055v2h1.1016a5 5 0 0 0 0.73047 1.7539l-0.78125 0.78125 1.4141 1.4141 0.78125-0.78125a5 5 0 0 0 1.7539 0.72656v1.1055h2v-2.1309a4 4 0 0 1-1 0.13086 4 4 0 0 1-2.8691-1.2129 4 4 0 0 1-1.1309-2.7871 4 4 0 0 1 1.2129-2.8691 4 4 0 0 1 2.7871-1.1309 4 4 0 0 1 2.8691 1.2129 4 4 0 0 1 1.1309 2.7871h2v-1h-1.1016a5 5 0 0 0-0.73047-1.7539l0.78125-0.78125-1.4141-1.4141-0.78125 0.78125a5 5 0 0 0-1.7539-0.72656v-1.1055h-2zm0 4v4l3-2-3-2zm3 3v5h2l2-2v-3h-4zm1 1h2v2h-1v1h-1v-3z" fill="currentColor"/>
</svg>
