<svg viewBox="0 0 16 16" xmlns="http://www.w3.org/2000/svg">
 <style type="text/css">.ColorScheme-Text {
            color:#2e3440;
        }</style>
 <path class="ColorScheme-Text" d="m9.5 1.793-0.354 0.353-1.5 1.5-0.939 0.94-3.06 3.06-1.855 1.854 4.708 4.707 1.854-1.853 0.939-0.94 4.914-4.914zm0 1.414 3.293 3.293-1.147 1.146-0.939 0.94-3.061 3.061-1.146 1.145-3.293-3.292 1.147-1.146 3.06-3.061 0.94-0.94zm-1.627-1.201a6 6 0 0 0-5.87 5.869l1.175-1.174a5 5 0 0 1 3.529-3.53zm6.123 6.119-1.174 1.174a5 5 0 0 1-3.529 3.53l-1.166 1.165a6 6 0 0 0 5.87-5.869z" fill="currentColor"/>
</svg>
