<svg viewBox="0 0 16 16" xmlns="http://www.w3.org/2000/svg">
 <defs>
  <style type="text/css">.ColorScheme-Text {
        color:#2e3440;
      }
      .ColorScheme-Highlight {
        color:#88c0d0;
      }</style>
 </defs>
 <path class="ColorScheme-Text" d="m5 3v1h6v-1h-6zm-2 2v6h1v-6h-1zm9 0v6h1v-6h-1zm-7 7v1h6v-1h-6z" fill="currentColor"/>
 <path class="ColorScheme-Highlight" d="m2 2v3h3v-3h-3zm9 0v3h3v-3h-3zm-8 1h1v1h-1v-1zm9 0h1v1h-1v-1zm-10 8v3h3v-3h-3zm9 0v3h3v-3h-3zm-8 1h1v1h-1v-1zm9 0h1v1h-1v-1z" fill="currentColor"/>
</svg>
