<svg viewBox="0 0 16 16" xmlns="http://www.w3.org/2000/svg">
 <defs>
  <style id="current-color-scheme" type="text/css">
   .ColorScheme-Text { color:#2e3440; } .ColorScheme-Highlight { color:#88c0d0; } .ColorScheme-NeutralText { color:#d08770; } .ColorScheme-PositiveText { color:#a3be8c; } .ColorScheme-NegativeText { color:#bf616a; }
  </style>
 </defs>
 <path class="ColorScheme-Text" d="m4 2v4l2-2-2-2zm3 0v7h1v-7h-1zm4 0-2 2 2 2v-4zm2.4492 3.5-5.0859 3.502h0.64258v0.77539l5-3.4375-0.55664-0.83984zm-7.4434 5.125-3.7031 2.5547 0.0039062 0.001953 0.55469 0.82031 4.0723-2.8008h-0.42773v-0.19922h-0.5v-0.37695zm0.99414 1.375v2h1v-2h-1z" fill="currentColor"/>
 <path class="ColorScheme-Highlight" d="m5 8v4h5v-4zm1 1h3v2h-3z" fill="currentColor"/>
</svg>
