<svg viewBox="0 0 16 16" xmlns="http://www.w3.org/2000/svg">
 <defs>
  <style id="current-color-scheme" type="text/css">
   .ColorScheme-Text { color:#2e3440; } .ColorScheme-Highlight { color:#88c0d0; } .ColorScheme-NeutralText { color:#d08770; } .ColorScheme-PositiveText { color:#a3be8c; } .ColorScheme-NegativeText { color:#bf616a; }
  </style>
 </defs>
 <path class="ColorScheme-Text" d="m8 2.0254a5.5 5.5 0 0 0-4.9727 4.9746h1.00391a4.5 4.5 0 0 1 3.9688-3.9668v-1.007813zm1 0.0019532v1.00391a4.5 4.5 0 0 1 3.9668 3.9688h1.007813a5.5 5.5 0 0 0-4.9746-4.9727zm-5.9707 5.9727a5.5 5.5 0 0 0 4.9707 4.9727v-1.00391a4.5 4.5 0 0 1-3.9668-3.9688h-1.003903zm9.9395 0a4.5 4.5 0 0 1-3.9688 3.9668v1.007813a5.5 5.5 0 0 0 4.9727-4.9746h-1.00391z" fill="currentColor"/>
 <path class="ColorScheme-Highlight" d="m7 1v3h3v-3h-3zm1 1h1v1h-1v-1zm-6 4v3h3v-3h-3zm10 0v3h3v-3h-3zm-9 1h1v1h-1v-1zm10 0h1v1h-1v-1zm-6 4v3h3v-3h-3zm1 1h1v1h-1v-1z" fill="currentColor"/>
</svg>
