<!DOCTYPE svg>
<svg version="1.1" viewBox="0 0 16 16" xmlns="http://www.w3.org/2000/svg">
 <defs>
  <style id="current-color-scheme" type="text/css">
   .ColorScheme-Text { color:#2e3440; } .ColorScheme-Highlight { color:#88c0d0; } .ColorScheme-NeutralText { color:#d08770; } .ColorScheme-PositiveText { color:#a3be8c; } .ColorScheme-NegativeText { color:#bf616a; }
  </style>
 </defs>
 <path class="ColorScheme-Highlight" d="m11.779 4.2227-0.707 0.70703c1.8755 1.8755 2.9277 4.418 2.9277 7.0703h1c0-2.9172-1.1579-5.7146-3.2207-7.7773z" fill="currentColor"/>
 <path class="ColorScheme-Text" d="m1 12v1h1v-1h-1zm5 0v1h1v-1h-1zm2 0v1h2v-1h-2zm3 0v1h2v-1h-2zm3 0v1h2v-1h-2z" fill="currentColor"/>
 <path class="ColorScheme-Text" d="m13 2.293-7.707 7.707 0.70703 0.707 7.707-7.707-0.707-0.70703z" fill="currentColor"/>
 <path class="ColorScheme-Highlight" d="m2 10v4h4v-4h-4zm1 1h2v2h-2v-2z" fill="currentColor"/>
</svg>
