<svg viewBox="0 0 16 16" xmlns="http://www.w3.org/2000/svg">
 <defs>
  <style id="current-color-scheme" type="text/css">
   .ColorScheme-Text { color:#2e3440; } .ColorScheme-Highlight { color:#88c0d0; } .ColorScheme-NeutralText { color:#d08770; } .ColorScheme-PositiveText { color:#a3be8c; } .ColorScheme-NegativeText { color:#bf616a; }
  </style>
 </defs>
 <path class="ColorScheme-Text" d="m7.6562 3-0.125 0.34375-2.625 7.4688-1.4688-2.5625-0.15625-0.25h-1.28125v1h0.71875l1.8438 3.25 0.53125 0.9375 0.375-1.0312 2.875-8.1562h5.6562v-1h-6.34375zm3.3438 3c-1.662 0-3 1.338-3 3s1.338 3 3 3c0.7733 0 1.4691-0.30407 2-0.78125v0.78125h1v-6h-1v0.78125c-0.53088-0.47718-1.2267-0.78125-2-0.78125zm0 1c1.108 0 2 0.892 2 2s-0.892 2-2 2-2-0.892-2-2 0.892-2 2-2z" fill="currentColor"/>
</svg>
