<svg viewBox="0 0 16 16" xmlns="http://www.w3.org/2000/svg">
 <defs>
  <style id="current-color-scheme" type="text/css">
   .ColorScheme-Text { color:#2e3440; } .ColorScheme-Highlight { color:#88c0d0; } .ColorScheme-NeutralText { color:#d08770; } .ColorScheme-PositiveText { color:#a3be8c; } .ColorScheme-NegativeText { color:#bf616a; }
  </style>
 </defs>
 <path class="ColorScheme-Text" d="m3 2v12h4v-1h-3v-8h8v2h1v-5h-1v2h-1v-2h-6v2h-1v-2h-1zm2 4v1h6v-1h-6zm0 2v1h3v-1h-3zm7 0-4 4v2h2l4-4-2-2zm-0.31055 1.6895 0.5918 0.5918-1.6875 1.6875v0.015625l-1.2812 1.2969-0.59375-0.59375 2.9707-2.998zm-6.6895 0.31055v1h2v-1h-2z" fill="currentColor"/>
</svg>
