<svg viewBox="0 0 16 16" xmlns="http://www.w3.org/2000/svg">
 <defs>
  <style id="current-color-scheme" type="text/css">
   .ColorScheme-Text { color:#2e3440; } .ColorScheme-Highlight { color:#88c0d0; } .ColorScheme-NeutralText { color:#d08770; } .ColorScheme-PositiveText { color:#a3be8c; } .ColorScheme-NegativeText { color:#bf616a; }
  </style>
 </defs>
 <path class="ColorScheme-Text" d="m3.5 1.998v0.0019531c-0.828 0-1.5 0.672-1.5 1.5 0 0.656 0.414 1.2022 1 1.4062v6.1875c-0.586 0.204-1 0.75025-1 1.4062 0 0.828 0.672 1.5 1.5 1.5s1.5-0.672 1.5-1.5c0-0.656-0.414-1.2022-1-1.4062v-6.1875c0.077-0.027 0.14775-0.05475 0.21875-0.09375l2.875 2.1562c-0.06 0.162-0.09375 0.3463-0.09375 0.5293 0 0.828 0.672 1.5 1.5 1.5s1.5-0.672 1.5-1.5-0.672-1.5-1.5-1.5c-0.285 0-0.55425 0.082703-0.78125 0.2207l-2.8438-2.125c0.076-0.179 0.125-0.3887 0.125-0.5957 0-0.828-0.672-1.5-1.5-1.5zm0 1c0.276 0 0.5 0.224 0.5 0.5s-0.224 0.5-0.5 0.5-0.5-0.224-0.5-0.5 0.224-0.5 0.5-0.5zm5 4c0.276 0 0.5 0.224 0.5 0.5s-0.224 0.5-0.5 0.5-0.5-0.224-0.5-0.5 0.224-0.5 0.5-0.5zm2.5 1.002v4.0938l-2.2812-2.2812-0.71875 0.68945 3.2812 3.3125 0.21875 0.1875 0.21875-0.1875 3.2812-3.3125-0.71875-0.68945-2.2812 2.2812v-4.0938h-1zm-7.5 3.998c0.276 0 0.5 0.224 0.5 0.5s-0.224 0.5-0.5 0.5-0.5-0.224-0.5-0.5 0.224-0.5 0.5-0.5z" fill="currentColor"/>
</svg>
