<svg viewBox="0 0 16 16" xmlns="http://www.w3.org/2000/svg">
 <defs>
  <style type="text/css">.ColorScheme-Text {
        color:#2e3440;
      }</style>
 </defs>
 <path class="ColorScheme-Text" d="m2 2v12h2v-1h-1v-8h3v4h1v-7h-5zm6 0v7h1v-4h4v2h1v-5h-6zm4.1719 5.6719-0.70703 0.70703 1.6211 1.6211h-2.0859-2v1h1 1 2.0859l-1.6211 1.6211 0.70703 0.70703 2.8281-2.8281-2.8281-2.8281zm-4.3438 2-2.8281 2.8281 2.8281 2.8281 0.70703-0.70703-1.6211-1.6211h2.0859 1 1v-1h-2-2.0859l1.6211-1.6211-0.70703-0.70703z" fill="currentColor"/>
</svg>
