<svg width="16px" height="16px" version="1.1" viewBox="0 0 16 16" xmlns="http://www.w3.org/2000/svg">
 <path d="m8.2773 1.7383c-1.4453 0-2.3398 0.91797-2.4688 2.0352v0.73828l-1.5664-1.1055-0.61719 0.48438 1.8516 1.4453 0.61719 0.48047 0.61719-0.48047 1.8516-1.4453-0.61719-0.48438-1.4102 1.1055v-0.73828c0-0.75391 0.77344-1.3086 1.7422-1.3086s1.9062 0.55469 1.8945 1.3086v0.58984h0.72656v-0.58984c0-1.125-1.1719-2.0352-2.6211-2.0352zm1.8945 3.3516c-0.80469 0-1.457 0.65234-1.457 1.457 0 0.80078 0.65234 1.4531 1.457 1.4531 0.80078 0 1.4531-0.65234 1.4531-1.4531 0-0.80469-0.65234-1.457-1.4531-1.457zm-4.3633 1.457c-0.80469 0-1.457 0.64844-1.457 1.4531s0.65234 1.4531 1.457 1.4531c0.80078 0 1.4531-0.64844 1.4531-1.4531s-0.65234-1.4531-1.4531-1.4531zm4.375 2.1797c-1.1055 0-2.0117 0.84766-2.168 1.9453 0.42578 0.48047 0.69922 0.96484 0.69922 1.6914h3.2227c0.28516-0.39453 0.44141-0.87109 0.44141-1.3633 0-1.2539-0.98438-2.2734-2.1953-2.2734zm-0.039063 0.72656c0.80469 0 1.4531 0.61328 1.4531 1.3633 0 0.29688-0.10156 0.58594-0.28906 0.82031h-2.0547c-0.058594-0.39062-0.25781-0.74219-0.53906-1.0156 0.10547-0.66016 0.70312-1.168 1.4297-1.168zm-4.3359 0.73047c-1.207 0-2.1836 1.0156-2.1836 2.2695 0 0.49219 0.15625 0.97266 0.44141 1.3633h3.4844c0.28516-0.39062 0.4375-0.87109 0.4375-1.3633 0-1.2539-0.97656-2.2695-2.1797-2.2695zm0 0.72656c0.80078 0 1.4531 0.73047 1.4531 1.6367 0 0.18359-0.03125 0.36719-0.085938 0.54297h-2.7383c-0.054688-0.17578-0.085938-0.35938-0.085938-0.54297 0-0.90625 0.65234-1.6367 1.457-1.6367z" fill="currentColor"/>
</svg>
