<svg width="16px" height="16px" version="1.1" viewBox="0 0 16 16" xmlns="http://www.w3.org/2000/svg">
 <path d="m4.9375 2.4805-0.62891 0.36328 1.1953 2.0742-1.6328-0.4375-0.19141 0.70312 2.3398 0.625 1.1406 1.9766h-2.2812l-1.7109-1.7109-0.51562 0.51562 1.1953 1.1953h-2.3945v0.72656h2.3945l-1.1953 1.1992 0.51562 0.51172 1.7109-1.7109h2.2773l-1.1406 1.9727-2.3359 0.62891 0.1875 0.70312 1.6367-0.44141-1.1992 2.0742 0.62891 0.36328 1.1992-2.0742 0.4375 1.6367 0.70313-0.1875-0.62891-2.3398 1.3516-2.3359h0.003906l1.3516 2.3438-0.62891 2.3359 0.70312 0.1875 0.4375-1.6328 1.1992 2.0703 0.62891-0.36328-1.1953-2.0742 1.6328 0.4375 0.19141-0.69922-2.3398-0.62891-1.1406-1.9766h2.2812l1.7109 1.7109 0.51562-0.51172-1.1953-1.1992h2.3945v-0.72656h-2.3945l1.1953-1.1953-0.035156-0.042969h-0.94922l-1.2422 1.2383h-2.2812l0.71875-1.2383h-0.83203l-0.72656 1.2383-0.003906-0.003906-1.3477-2.3359 0.62891-2.3359-0.70312-0.19141-0.4375 1.6367zm7.793 1.3359h1.0938l-0.023438 0.54688h-2.1641l1.0938-1.6367h-1.0938v-0.54297h2.1875zm-2.9141 1.457h1.0938l-0.023437 0.54297h-2.1602l1.0898-1.6328h-1.0898v-0.54688h2.1836z" fill="currentColor"/>
</svg>
