
<svg xmlns="http://www.w3.org/2000/svg" xmlns:xlink="http://www.w3.org/1999/xlink" width="16px" height="16px" viewBox="0 0 16 16" version="1.1">
<g id="surface1">
<path style=" stroke:none;fill-rule:nonzero;fill:rgb(18.039216%,20.392157%,25.098041%);fill-opacity:1;" d="M 4.9375 2.480469 L 4.308594 2.84375 L 5.503906 4.917969 L 3.871094 4.480469 L 3.679688 5.183594 L 6.019531 5.808594 L 7.160156 7.785156 L 4.878906 7.785156 L 3.167969 6.074219 L 2.652344 6.589844 L 3.847656 7.785156 L 1.453125 7.785156 L 1.453125 8.511719 L 3.847656 8.511719 L 2.652344 9.710938 L 3.167969 10.222656 L 4.878906 8.511719 L 7.15625 8.511719 L 6.015625 10.484375 L 3.679688 11.113281 L 3.867188 11.816406 L 5.503906 11.375 L 4.304688 13.449219 L 4.933594 13.8125 L 6.132812 11.738281 L 6.570312 13.375 L 7.273438 13.1875 L 6.644531 10.847656 L 7.996094 8.511719 L 8 8.511719 L 9.351562 10.855469 L 8.722656 13.191406 L 9.425781 13.378906 L 9.863281 11.746094 L 11.0625 13.816406 L 11.691406 13.453125 L 10.496094 11.378906 L 12.128906 11.816406 L 12.320312 11.117188 L 9.980469 10.488281 L 8.839844 8.511719 L 11.121094 8.511719 L 12.832031 10.222656 L 13.347656 9.710938 L 12.152344 8.511719 L 14.546875 8.511719 L 14.546875 7.785156 L 12.152344 7.785156 L 13.347656 6.589844 L 13.3125 6.546875 L 12.363281 6.546875 L 11.121094 7.785156 L 8.839844 7.785156 L 9.558594 6.546875 L 8.726562 6.546875 L 8 7.785156 L 7.996094 7.78125 L 6.648438 5.445312 L 7.277344 3.109375 L 6.574219 2.917969 L 6.136719 4.554688 Z M 12.730469 3.816406 L 13.824219 3.816406 L 13.800781 4.363281 L 11.636719 4.363281 L 12.730469 2.726562 L 11.636719 2.726562 L 11.636719 2.183594 L 13.824219 2.183594 Z M 9.816406 5.273438 L 10.910156 5.273438 L 10.886719 5.816406 L 8.726562 5.816406 L 9.816406 4.183594 L 8.726562 4.183594 L 8.726562 3.636719 L 10.910156 3.636719 Z M 9.816406 5.273438 "/>
</g>
</svg>
