
<svg xmlns="http://www.w3.org/2000/svg" xmlns:xlink="http://www.w3.org/1999/xlink" width="16px" height="16px" viewBox="0 0 16 16" version="1.1">
<g id="surface1">
<path style=" stroke:none;fill-rule:nonzero;fill:rgb(18.039216%,20.392157%,25.098041%);fill-opacity:1;" d="M 8 2.183594 C 4.777344 2.183594 2.183594 4.777344 2.183594 8 C 2.183594 11.222656 4.777344 13.816406 8 13.816406 C 11.222656 13.816406 13.816406 11.222656 13.816406 8 C 13.816406 4.777344 11.222656 2.183594 8 2.183594 Z M 8 2.910156 C 10.820312 2.910156 13.089844 5.179688 13.089844 8 C 13.089844 10.820312 10.820312 13.089844 8 13.089844 C 5.179688 13.089844 2.910156 10.820312 2.910156 8 C 2.910156 5.179688 5.179688 2.910156 8 2.910156 Z M 8 4.363281 C 7.195312 4.363281 6.546875 5.015625 6.546875 5.816406 L 6.546875 7.273438 L 5.089844 7.273438 L 5.089844 10.910156 L 10.910156 10.910156 L 10.910156 7.273438 L 9.453125 7.273438 L 9.453125 5.816406 C 9.453125 5.015625 8.804688 4.363281 8 4.363281 Z M 8 5.089844 C 8.402344 5.089844 8.726562 5.417969 8.726562 5.816406 L 8.726562 7.273438 L 7.273438 7.273438 L 7.273438 5.816406 C 7.273438 5.417969 7.597656 5.089844 8 5.089844 Z M 5.816406 8 L 10.183594 8 L 10.183594 10.183594 L 5.816406 10.183594 Z M 5.816406 8 "/>
</g>
</svg>
