
<svg xmlns="http://www.w3.org/2000/svg" xmlns:xlink="http://www.w3.org/1999/xlink" width="16px" height="16px" viewBox="0 0 16 16" version="1.1">
<g id="surface1">
<path style=" stroke:none;fill-rule:nonzero;fill:rgb(18.039216%,20.392157%,25.098041%);fill-opacity:1;" d="M 8.277344 1.738281 C 6.832031 1.738281 5.9375 2.65625 5.808594 3.773438 L 5.808594 4.511719 L 4.242188 3.40625 L 3.625 3.890625 L 5.476562 5.335938 L 6.09375 5.816406 L 6.710938 5.335938 L 8.5625 3.890625 L 7.945312 3.40625 L 6.535156 4.511719 L 6.535156 3.773438 C 6.535156 3.019531 7.308594 2.464844 8.277344 2.464844 C 9.246094 2.464844 10.183594 3.019531 10.171875 3.773438 L 10.171875 4.363281 L 10.898438 4.363281 L 10.898438 3.773438 C 10.898438 2.648438 9.726562 1.738281 8.277344 1.738281 Z M 10.171875 5.089844 C 9.367188 5.089844 8.714844 5.742188 8.714844 6.546875 C 8.714844 7.347656 9.367188 8 10.171875 8 C 10.972656 8 11.625 7.347656 11.625 6.546875 C 11.625 5.742188 10.972656 5.089844 10.171875 5.089844 Z M 5.808594 6.546875 C 5.003906 6.546875 4.351562 7.195312 4.351562 8 C 4.351562 8.804688 5.003906 9.453125 5.808594 9.453125 C 6.609375 9.453125 7.261719 8.804688 7.261719 8 C 7.261719 7.195312 6.609375 6.546875 5.808594 6.546875 Z M 10.183594 8.726562 C 9.078125 8.726562 8.171875 9.574219 8.015625 10.671875 C 8.441406 11.152344 8.714844 11.636719 8.714844 12.363281 L 11.9375 12.363281 C 12.222656 11.96875 12.378906 11.492188 12.378906 11 C 12.378906 9.746094 11.394531 8.726562 10.183594 8.726562 Z M 10.144531 9.453125 C 10.949219 9.453125 11.597656 10.066406 11.597656 10.816406 C 11.597656 11.113281 11.496094 11.402344 11.308594 11.636719 L 9.253906 11.636719 C 9.195312 11.246094 8.996094 10.894531 8.714844 10.621094 C 8.820312 9.960938 9.417969 9.453125 10.144531 9.453125 Z M 5.808594 10.183594 C 4.601562 10.183594 3.625 11.199219 3.625 12.453125 C 3.625 12.945312 3.78125 13.425781 4.066406 13.816406 L 7.550781 13.816406 C 7.835938 13.425781 7.988281 12.945312 7.988281 12.453125 C 7.988281 11.199219 7.011719 10.183594 5.808594 10.183594 Z M 5.808594 10.910156 C 6.609375 10.910156 7.261719 11.640625 7.261719 12.546875 C 7.261719 12.730469 7.230469 12.914062 7.175781 13.089844 L 4.4375 13.089844 C 4.382812 12.914062 4.351562 12.730469 4.351562 12.546875 C 4.351562 11.640625 5.003906 10.910156 5.808594 10.910156 Z M 5.808594 10.910156 "/>
</g>
</svg>
