<svg width="16px" height="16px" version="1.1" viewBox="0 0 16 16" xmlns="http://www.w3.org/2000/svg">
 <path d="m8 2.1836c-3.2227 0-5.8164 2.5938-5.8164 5.8164s2.5938 5.8164 5.8164 5.8164 5.8164-2.5938 5.8164-5.8164-2.5938-5.8164-5.8164-5.8164zm0 0.72656c2.8203 0 5.0898 2.2695 5.0898 5.0898s-2.2695 5.0898-5.0898 5.0898-5.0898-2.2695-5.0898-5.0898 2.2695-5.0898 5.0898-5.0898zm0 1.4531c-0.80469 0-1.4531 0.65234-1.4531 1.4531v1.457h-1.457v3.6367h5.8203v-3.6367h-1.457v-1.457c0-0.80078-0.64844-1.4531-1.4531-1.4531zm0 0.72656c0.40234 0 0.72656 0.32812 0.72656 0.72656v1.457h-1.4531v-1.457c0-0.39844 0.32422-0.72656 0.72656-0.72656zm-2.1836 2.9102h4.3672v2.1836h-4.3672z" fill="currentColor"/>
</svg>
