<svg width="16px" height="16px" version="1.1" viewBox="0 0 16 16" xmlns="http://www.w3.org/2000/svg">
 <path d="m5.125 2.9453c-1.8164 1.0312-2.9414 2.9609-2.9414 5.0547 0 3.2148 2.6016 5.8164 5.8125 5.8164 2.0859 0 4.0117-1.125 5.0469-2.9375 0-0.003906 0.003906-0.003906 0.003906-0.003906l-0.53516-0.53906c0 0.003906 0 0.003906-0.003907 0.003906-0.71875 0.375-1.5195 0.57031-2.332 0.57031-2.8086 0-5.0859-2.2812-5.0859-5.0938 0-0.8125 0.19531-1.6133 0.57031-2.3359zm-0.54297 1.2891c-0.14453 0.51562-0.21875 1.0469-0.21875 1.582 0 3.2148 2.6016 5.8203 5.8125 5.8203 0.53906-0.003907 1.0742-0.078125 1.5898-0.22656-0.96094 1.0664-2.332 1.6797-3.7695 1.6797-2.8086 0-5.0859-2.2773-5.0859-5.0898 0-1.4375 0.60938-2.8047 1.6719-3.7656zm3.9336 2.3828h1.2461l-0.019531 0.65625h-2.4727l1.2461-1.9648h-1.2461v-0.65234h2.4922zm3.3281-1.7461h1.2461l-0.023438 0.65625h-2.4727l1.25-1.9648h-1.25v-0.65234h2.4961z" fill="currentColor"/>
</svg>
