
<svg xmlns="http://www.w3.org/2000/svg" xmlns:xlink="http://www.w3.org/1999/xlink" width="16px" height="16px" viewBox="0 0 16 16" version="1.1">
<g id="surface1">
<path style=" stroke:none;fill-rule:nonzero;fill:rgb(18.039216%,20.392157%,25.098041%);fill-opacity:1;" d="M 7.273438 2.183594 L 7.273438 7.273438 L 8.726562 7.273438 L 8.726562 2.183594 Z M 6.546875 2.375 C 4.03125 3.019531 2.183594 5.28125 2.183594 8 C 2.183594 11.222656 4.777344 13.816406 8 13.816406 C 11.222656 13.816406 13.816406 11.222656 13.816406 8 C 13.816406 5.28125 11.96875 3.019531 9.453125 2.375 L 9.453125 3.128906 C 11.558594 3.753906 13.089844 5.6875 13.089844 8 C 13.089844 10.820312 10.820312 13.089844 8 13.089844 C 5.179688 13.089844 2.910156 10.820312 2.910156 8 C 2.910156 5.6875 4.441406 3.753906 6.546875 3.128906 Z M 6.546875 2.375 "/>
</g>
</svg>
