
<svg xmlns="http://www.w3.org/2000/svg" xmlns:xlink="http://www.w3.org/1999/xlink" width="16px" height="16px" viewBox="0 0 16 16" version="1.1">
<g id="surface1">
<path style=" stroke:none;fill-rule:nonzero;fill:rgb(18.039216%,20.392157%,25.098041%);fill-opacity:1;" d="M 5.125 2.945312 C 3.308594 3.976562 2.183594 5.90625 2.183594 8 C 2.183594 11.214844 4.785156 13.816406 7.996094 13.816406 C 10.082031 13.816406 12.007812 12.691406 13.042969 10.878906 C 13.042969 10.875 13.046875 10.875 13.046875 10.875 L 12.511719 10.335938 C 12.511719 10.339844 12.511719 10.339844 12.507812 10.339844 C 11.789062 10.714844 10.988281 10.910156 10.175781 10.910156 C 7.367188 10.910156 5.089844 8.628906 5.089844 5.816406 C 5.089844 5.003906 5.285156 4.203125 5.660156 3.480469 Z M 4.582031 4.234375 C 4.4375 4.75 4.363281 5.28125 4.363281 5.816406 C 4.363281 9.03125 6.964844 11.636719 10.175781 11.636719 C 10.714844 11.632812 11.25 11.558594 11.765625 11.410156 C 10.804688 12.476562 9.433594 13.089844 7.996094 13.089844 C 5.1875 13.089844 2.910156 10.8125 2.910156 8 C 2.910156 6.5625 3.519531 5.195312 4.582031 4.234375 Z M 8.515625 6.617188 L 9.761719 6.617188 L 9.742188 7.273438 L 7.269531 7.273438 L 8.515625 5.308594 L 7.269531 5.308594 L 7.269531 4.65625 L 9.761719 4.65625 Z M 11.84375 4.871094 L 13.089844 4.871094 L 13.066406 5.527344 L 10.59375 5.527344 L 11.84375 3.5625 L 10.59375 3.5625 L 10.59375 2.910156 L 13.089844 2.910156 Z M 11.84375 4.871094 "/>
</g>
</svg>
