<svg viewBox="0 0 16 16" xmlns="http://www.w3.org/2000/svg">
 <defs>
  <style id="current-color-scheme" type="text/css">
   .ColorScheme-Text { color:#2e3440; } .ColorScheme-Highlight { color:#88c0d0; } .ColorScheme-NeutralText { color:#d08770; } .ColorScheme-PositiveText { color:#a3be8c; } .ColorScheme-NegativeText { color:#bf616a; }
  </style>
 </defs>
 <path class="ColorScheme-Text" d="m7.5 2v1.125c-0.8429 0.078167-1.5071 0.29086-2 0.6875-0.54239 0.4322-0.8125 1.0715-0.8125 1.9062 0 1.1653 0.69704 1.9211 2.125 2.2812l0.6875 0.1875v3.6875c-0.88717-0.079294-1.7187-0.27337-2.5-0.65625l-0.34375 0.90625c0.31778 0.19491 0.7516 0.3787 1.2812 0.53125 0.46482 0.12911 0.98848 0.18598 1.5625 0.21875v1.125h1v-1.125c0.84981-0.068429 1.5334-0.32718 2.0312-0.78125 0.5339-0.48304 0.81249-1.1827 0.8125-2.0938-1e-5 -0.73729-0.1997-1.2892-0.59375-1.6875-0.39408-0.40255-0.9873-0.69279-1.75-0.875l-0.5-0.125v-3.25c0.38555 0.028944 0.78709 0.083097 1.1562 0.1875 0.42373 0.11442 0.74151 0.26219 1 0.40625l0.3125-0.90625c-0.64027-0.39865-1.4611-0.63708-2.4688-0.6875v-1.0625h-1zm-0.21875 2.0938c0.065458-0.010982 0.14895 0.0079386 0.21875 0v2.9688l-0.28125-0.0625c-0.47034-0.1144-0.82522-0.28389-1.0625-0.5-0.23305-0.22033-0.34376-0.51482-0.34375-0.875-8.8e-6 -0.85645 0.48252-1.3658 1.4688-1.5312zm1.2188 4.3125 0.1875 0.0625c0.57626 0.14407 0.97139 0.33952 1.1875 0.59375 0.22034 0.25001 0.31249 0.59323 0.3125 1-1e-5 1.1331-0.56294 1.7348-1.6875 1.8438v-3.5z" fill="currentColor"/>
</svg>
