<svg viewBox="0 0 16 16" xmlns="http://www.w3.org/2000/svg">
 <defs>
  <style id="current-color-scheme" type="text/css">
   .ColorScheme-Text { color:#2e3440; } .ColorScheme-Highlight { color:#88c0d0; } .ColorScheme-NeutralText { color:#d08770; } .ColorScheme-PositiveText { color:#a3be8c; } .ColorScheme-NegativeText { color:#bf616a; }
  </style>
 </defs>
 <path class="ColorScheme-Text" d="m2 2v5h2.5c0.82843 0 1.5-0.67157 1.5-1.5 0-0.5333-0.2682-1.0153-0.6875-1.2812 0.11546-0.21254 0.1875-0.45987 0.1875-0.71875 0-0.82843-0.67157-1.5-1.5-1.5h-2zm8 0v5h2.5c0.82843 0 1.5-0.67157 1.5-1.5v-2c0-0.82843-0.67157-1.5-1.5-1.5h-2.5zm-7 1h1c0.27614 0 0.5 0.22386 0.5 0.5s-0.22386 0.5-0.5 0.5h-1v-1zm8 0h1.5c0.27614 0 0.5 0.22386 0.5 0.5v2c0 0.27614-0.22386 0.5-0.5 0.5h-1.5v-3zm-4 1v1h2v-1h-2zm-4 1h1.5c0.27614 0 0.5 0.22386 0.5 0.5s-0.22386 0.5-0.5 0.5h-1.5v-1zm-1 4v1h3v-1h-3zm5 0v1h2v-1h-2zm4 0v1h3v-1h-3zm-5 2-4 1.5 4 1.5v-3zm4 0v3l4-1.5-4-1.5zm-2 1c-0.27614 0-0.5 0.22386-0.5 0.5s0.22386 0.5 0.5 0.5 0.5-0.22386 0.5-0.5-0.22386-0.5-0.5-0.5z" fill="currentColor"/>
</svg>
