<svg viewBox="0 0 16 16" xmlns="http://www.w3.org/2000/svg">
 <defs>
  <style id="current-color-scheme" type="text/css">
   .ColorScheme-Text { color:#2e3440; } .ColorScheme-Highlight { color:#88c0d0; } .ColorScheme-NeutralText { color:#d08770; } .ColorScheme-PositiveText { color:#a3be8c; } .ColorScheme-NegativeText { color:#bf616a; }
  </style>
 </defs>
 <path class="ColorScheme-Text" d="m12.338 1.9648a2 2 0 0 0-0.16992 0.013672v0.0019532a2 2 0 0 0-1.7266 2.2383 2 2 0 0 0 2.2383 1.7285 2 2 0 0 0 1.3281-0.76367l-0.79297-0.60938a1 1 0 0 1-0.66211 0.38086 1 1 0 0 1-1.1211-0.86328 1 1 0 0 1 0.86328-1.1211 1 1 0 0 1 0.74023 0.20117l0.60938-0.79297a2 2 0 0 0-1.3066-0.41406zm-9.3047 1.7559-0.66406 0.75 5.2383 4.6426 0.66406-0.74805-0.20312-0.17969c0.333-0.111 0.63223-0.30731 0.86523-0.57031 0.733-0.827 0.65708-2.0903-0.16992-2.8223-0.827-0.733-2.0903-0.65708-2.8223 0.16992-0.232 0.264-0.39194 0.58373-0.46094 0.92773l-2.4473-2.1699zm4.3457 1.5723c0.2555-0.015375 0.51566 0.067 0.72266 0.25 0.413 0.366 0.45194 0.99616 0.085938 1.4102-0.366 0.413-0.99811 0.45194-1.4121 0.085938-0.413-0.366-0.45194-0.99811-0.085938-1.4121 0.183-0.2065 0.43395-0.31861 0.68945-0.33398zm-4.4883 4.1074-0.37109 0.92773 0.25195 0.10156a2 2 0 0 0-0.62109 0.82812 2 2 0 0 0 1.1152 2.5996 2 2 0 0 0 2.5996-1.1172 2 2 0 0 0 0.11914-1.0293l0.25 0.099609 0.37109-0.92774-1.8594-0.74219-1.8555-0.74023zm1.125 1.5977a1 1 0 0 1 0.36133 0.072265 1 1 0 0 1 0.55859 1.2988 1 1 0 0 1-1.2988 0.55859 1 1 0 0 1-0.55859-1.2988 1 1 0 0 1 0.9375-0.63086z" fill="currentColor"/>
 <path class="ColorScheme-Highlight" d="m14 7a7 7 0 0 0-7 7h1a6 6 0 0 1 6-6v-1z" fill="currentColor"/>
</svg>
