<svg viewBox="0 0 16 16" xmlns="http://www.w3.org/2000/svg">
 <defs>
  <style id="current-color-scheme" type="text/css">
   .ColorScheme-Text { color:#2e3440; } .ColorScheme-Highlight { color:#88c0d0; } .ColorScheme-NeutralText { color:#d08770; } .ColorScheme-PositiveText { color:#a3be8c; } .ColorScheme-NegativeText { color:#bf616a; }
  </style>
 </defs>
 <path class="ColorScheme-Text" d="m10.561 4.6602-1.5527 5.7949 0.96484 0.25977 0.19922-0.74219a3 3 0 0 0 1.7324 1.2598 3 3 0 0 0 3.6738-2.1211 3 3 0 0 0-2.1211-3.6738 3 3 0 0 0-2.1309 0.22461l0.19922-0.74219-0.96484-0.25977zm-6.5566 0.33984a3 3 0 0 0-3 3 3 3 0 0 0 3 3 3 3 0 0 0 2-0.76758v0.76953h1v-6h-1v0.76953a3 3 0 0 0-2-0.76953v-0.0019531zm0 1.002a2 2 0 0 1 2 2 2 2 0 0 1-2 2 2 2 0 0 1-2-2 2 2 0 0 1 2-2zm8.6602 0.33203a2 2 0 0 1 0.53516 0.068359 2 2 0 0 1 1.4141 2.4492 2 2 0 0 1-2.4492 1.4141 2 2 0 0 1-1.4141-2.4492 2 2 0 0 1 1.9141-1.4824z" fill="currentColor"/>
 <path d="m7.5 2v12h1v-1.6113l6.002 1.6094 0.25977-0.9668-6.2617-1.6758v-9.3555h-1z" fill="#5e81ac"/>
</svg>
