<svg viewBox="0 0 16 16" xmlns="http://www.w3.org/2000/svg">
 <defs>
  <style id="current-color-scheme" type="text/css">
   .ColorScheme-Text { color:#2e3440; } .ColorScheme-Highlight { color:#88c0d0; } .ColorScheme-NeutralText { color:#d08770; } .ColorScheme-PositiveText { color:#a3be8c; } .ColorScheme-NegativeText { color:#bf616a; }
  </style>
 </defs>
 <path class="ColorScheme-Text" d="m1 8v6h1v-6h-1zm2 0v6h1v-5h1c0.552 0 1 0.448 1 1v4h1v-4c0-1.105-0.895-2-2-2h-2zm7 0v6h1v-6h-1zm2 0v6h1v-3a2 2 0 0 1 2-2v-1a3 3 0 0 0-2 0.76758v-0.76758h-1z" fill="currentColor"/>
 <path d="m7 2-3 2.5 3 2.5v-5zm3 0v5l3-2.5-3-2.5z" fill="#5e81ac"/>
</svg>
