<svg viewBox="0 0 16 16" xmlns="http://www.w3.org/2000/svg">
 <defs>
  <style id="current-color-scheme" type="text/css">
   .ColorScheme-Text { color:#2e3440; } .ColorScheme-Highlight { color:#88c0d0; } .ColorScheme-NeutralText { color:#d08770; } .ColorScheme-PositiveText { color:#a3be8c; } .ColorScheme-NegativeText { color:#bf616a; }
  </style>
 </defs>
 <path class="ColorScheme-Text" d="m2 2v1h12v-1zm0 2v1h7v-1zm0 3v1h6v-1zm0 2v1h4v-1zm0 3v1h8v-1z" fill="currentColor"/>
 <path d="m9 7v1h1.5c1.385 0 2.5 1.115 2.5 2.5 0 0.819-0.396 1.545-1 2v-1.5h-1v3h3v-1h-1.0625c0.658-0.632 1.0625-1.51 1.0625-2.5 0-1.939-1.561-3.5-3.5-3.5h-1.5z" fill="#5e81ac"/>
</svg>
