<svg viewBox="0 0 16 16" xmlns="http://www.w3.org/2000/svg">
 <defs>
  <style id="current-color-scheme" type="text/css">
   .ColorScheme-Text { color:#2e3440; } .ColorScheme-Highlight { color:#88c0d0; } .ColorScheme-NeutralText { color:#d08770; } .ColorScheme-PositiveText { color:#a3be8c; } .ColorScheme-NegativeText { color:#bf616a; }
  </style>
 </defs>
 <path class="ColorScheme-Text" d="m8 2a6 6 0 0 0-6 6 6 6 0 0 0 5 5.9141v-1.0161a5 5 0 0 1-4-4.898 5 5 0 0 1 5-5 5 5 0 0 1 5 5h1a6 6 0 0 0-6-6m0.5 6c-0.831 0-1.5 0.669-1.5 1.5 0 0.654 0.418 1.202 1 1.408v3.092h4v-3c0.554 0 1-0.446 1-1s-0.446-1-1-1-1 0.446-1 1h-1.092c0.056-0.157 0.092-0.323 0.092-0.5 0-0.831-0.669-1.5-1.5-1.5m3.5 4 2 2v-4zm-3-1h2v2h-2z" fill="currentColor"/>
</svg>
