<svg viewBox="0 0 16 16" xmlns="http://www.w3.org/2000/svg">
 <defs>
  <style id="current-color-scheme" type="text/css">
   .ColorScheme-Text { color:#2e3440; } .ColorScheme-Highlight { color:#88c0d0; } .ColorScheme-NeutralText { color:#d08770; } .ColorScheme-PositiveText { color:#a3be8c; } .ColorScheme-NegativeText { color:#bf616a; }
  </style>
 </defs>
 <path class="ColorScheme-Text" d="m8 2a6 6 0 0 0-6 6 6 6 0 0 0 6 6v-1a5 5 0 0 1-5-5 5 5 0 0 1 5-5 5 5 0 0 1 4.5723 3h1.0723a6 6 0 0 0-5.6445-4zm0 2c-2.2091 0-4 1.7909-4 4h2c0-1.1046 0.89543-2 2-2v-2zm0 3a1 1 0 0 0-1 1 1 1 0 0 0 1 1 1 1 0 0 0 1-1 1 1 0 0 0-1-1zm4 0v3.2695a2 2 0 0 0-1-0.26953 2 2 0 0 0-2 2 2 2 0 0 0 2 2 2 2 0 0 0 2-2v-4h1l-1-1h-1z" fill="currentColor"/>
</svg>
