<svg viewBox="0 0 16 16" xmlns="http://www.w3.org/2000/svg">
 <defs>
  <style id="current-color-scheme" type="text/css">
   .ColorScheme-Text { color:#2e3440; } .ColorScheme-Highlight { color:#88c0d0; } .ColorScheme-NeutralText { color:#d08770; } .ColorScheme-PositiveText { color:#a3be8c; } .ColorScheme-NegativeText { color:#bf616a; }
  </style>
 </defs>
 <path class="ColorScheme-Text" d="m9.0078 2.002c-1.6668-0.0403-2.8183 0.76183-3.4707 1.8965-0.65244 1.1347-0.89382 2.5645-1.0586 3.9648-0.16477 1.4003-0.24693 2.783-0.47461 3.7559-0.11384 0.48642-0.26707 0.86182-0.43359 1.0781-0.16653 0.2163-0.30276 0.29732-0.58008 0.30273h-0.99024v1h1.0097656c0.55578-0.0109 1.0424-0.29183 1.3516-0.69336 0.30914-0.40154 0.48435-0.89976 0.61523-1.459 0.26175-1.1184 0.33416-2.5095 0.49414-3.8691 0.15997-1.3596 0.4139-2.6763 0.93359-3.5801 0.5197-0.90379 1.2152-1.4314 2.5801-1.3984h0.0117188c2.3183-4.2e-4 3.2013 1.0697 3.6523 2.1875 0.32969 0.81707 0.26211 1.2669 0.25781 1.6562-1.4864-0.45524-2.7282-0.51978-3.5977-0.083984-1.029 0.51578-1.5218 1.5657-1.5527 2.6328s0.3547 2.1919 1.082 3.0781 1.827 1.5298 3.1621 1.5293c1.0306 0.0099 1.4535 0.0033 2 0v-1c-0.54361 0.0033-0.96894 0.0099-1.9961 0h-0.003906c-1.0195 4.1e-4 -1.8188-0.46962-2.3887-1.1641-0.56992-0.69444-0.88053-1.6182-0.85742-2.416 0.39193-2.7087 3.6175-1.8661 5.2461-1.4199l-0.001953-0.45312s0.13576-1.3524-0.42188-2.7344c-0.55672-1.3797-1.9237-2.8062-4.5684-2.8105z" fill="currentColor"/>
</svg>
