<svg viewBox="0 0 16 16" xmlns="http://www.w3.org/2000/svg">
 <defs>
  <style id="current-color-scheme" type="text/css">
   .ColorScheme-Text { color:#2e3440; } .ColorScheme-Highlight { color:#88c0d0; } .ColorScheme-NeutralText { color:#d08770; } .ColorScheme-PositiveText { color:#a3be8c; } .ColorScheme-NegativeText { color:#bf616a; }
  </style>
 </defs>
 <path class="ColorScheme-Text" d="m8 2a6 6 0 0 0-6 6 6 6 0 0 0 5 5.9141v-1.0156a5 5 0 0 1-4-4.8984 5 5 0 0 1 5-5 5 5 0 0 1 5 5h1a6 6 0 0 0-6-6zm0 2c-2.2091 0-4 1.7909-4 4h2c0-1.1046 0.89543-2 2-2v-2zm0.5 4c-0.831 0-1.5 0.669-1.5 1.5 0 0.6542 0.41808 1.2022 1 1.4082v3.0918h4v-3c0.554 0 1-0.446 1-1s-0.446-1-1-1-1 0.446-1 1h-1.0918c0.05566-0.1572 0.091797-0.3232 0.091797-0.5 0-0.831-0.669-1.5-1.5-1.5zm3.5 4 2 2v-4l-2 2zm-3-1h2v2h-2v-2z" fill="currentColor"/>
</svg>
