<svg viewBox="0 0 16 16" xmlns="http://www.w3.org/2000/svg">
 <defs>
  <style id="current-color-scheme" type="text/css">
   .ColorScheme-Text { color:#2e3440; } .ColorScheme-Highlight { color:#88c0d0; } .ColorScheme-NeutralText { color:#d08770; } .ColorScheme-PositiveText { color:#a3be8c; } .ColorScheme-NegativeText { color:#bf616a; }
  </style>
 </defs>
 <path class="ColorScheme-Text" d="m2 2v3h3v-3h-3zm9 0v3h3v-3h-3zm-8 1h1v1h-1v-1zm9 0h1v1h-1v-1zm-6 1v1h1v-1h-1zm3 0v1h1v-1h-1zm-5 2v1h1v-1h-1zm7 0v1h1v-1h-1zm-3 2v4h4v-4h-4zm-4 1v1h1v-1h-1zm5 0h2v2h-2v-2zm4 1v3h-3v1h4v-4h-1zm-11 1v3h3v-3h-3zm4 0v1h1v-1h-1zm-3 1h1v1h-1v-1z" fill="currentColor"/>
</svg>
