<svg version="1.1" viewBox="0 0 16 16" xmlns="http://www.w3.org/2000/svg">
 <style type="text/css">.ColorScheme-Text {
            color:#2e3440;
        }</style>
 <path class="ColorScheme-Text" d="m11.5 2c-1.3807 0-2.5 1.1193-2.5 2.5s1.1193 2.5 2.5 2.5 2.5-1.1193 2.5-2.5-1.1193-2.5-2.5-2.5zm-6 2c-1.3807 0-2.5 1.1193-2.5 2.5s1.1193 2.5 2.5 2.5 2.5-1.1193 2.5-2.5-1.1193-2.5-2.5-2.5zm5.5 4.0723c-1.0948 0.23575-2.0261 1.0531-2.5078 2.2012 0.22092 0.21965 0.42177 0.46302 0.59961 0.72656h0.20117c0.27521-0.92919 0.91339-1.6367 1.707-1.8926v-1.0352zm1 0.92773v1h1v-1h-1zm-6.5 1c-1.933-1.3e-6 -3.5 1.7909-3.5 4h7c0-2.2091-1.567-4-3.5-4zm0 1c1.0582 0.0018 2.0008 0.80282 2.3535 2h-4.707c0.35272-1.1972 1.2953-1.9982 2.3535-2zm6.5 0v1h1v-1h-1zm0 2v1h1v-1h-1z" fill="currentColor"/>
</svg>
