<svg viewBox="0 0 22 22" xmlns="http://www.w3.org/2000/svg">
 <defs>
  <style id="current-color-scheme" type="text/css">
   .ColorScheme-Text { color:#2e3440; } .ColorScheme-Highlight { color:#88c0d0; } .ColorScheme-NeutralText { color:#d08770; } .ColorScheme-PositiveText { color:#a3be8c; } .ColorScheme-NegativeText { color:#bf616a; }
  </style>
 </defs>
 <path class="ColorScheme-Text" d="m11 3c-4.4183 0-8 1.3431-8 3v10c0 1.6569 3.5817 3 8 3 1.8947 0 3.7281-0.25168 5.1738-0.71094l-0.73438-0.74414c-0.01428 0.0033-0.028599 0.006466-0.042969 0.009766-0.45243 0.18965-0.87526 0.44531-1.3965 0.44531-0.29407 0-0.57897-0.03657-0.85547-0.097656-0.69271 0.064227-1.4163 0.097176-2.1445 0.097656-3.866 0-7-0.89543-7-2v-3.5488c1.2386 0.83727 3.4685 1.4025 6.002 1.5215 0.0024-0.34298 0.061808-0.67035 0.14648-0.98828-3.5094-0.12289-6.1471-0.97419-6.1484-1.9844v-3.5488c1.4081 0.95541 4.089 1.5486 7 1.5488 2.9143-0.00142 5.596-0.59702 7-1.5547v8.4434l0.78906 0.7793c0.13686-0.21899 0.20762-0.44305 0.21094-0.66797v-10c-1e-6 -1.6569-3.5817-3-8-3zm0 1c3.866 0 7 0.89543 7 2s-3.134 2-7 2-7-0.89543-7-2 3.134-2 7-2zm3 7c-1.662 0-3 1.338-3 3s1.338 3 3 3c0.64939 0 1.26-0.2145 1.75-0.5625l2.5312 2.5625 0.71875-0.71875-2.5625-2.5312c0.34806-0.4899 0.5625-1.1006 0.5625-1.75 0-1.662-1.338-3-3-3zm0 1c1.1 0 2 0.892 2 2s-0.9 2-2 2-2-0.892-2-2 0.892-2 2-2z" fill="currentColor"/>
</svg>
