<svg viewBox="0 0 22 22" xmlns="http://www.w3.org/2000/svg">
 <defs>
  <style id="current-color-scheme" type="text/css">
   .ColorScheme-Text { color:#2e3440; } .ColorScheme-Highlight { color:#88c0d0; } .ColorScheme-NeutralText { color:#d08770; } .ColorScheme-PositiveText { color:#a3be8c; } .ColorScheme-NegativeText { color:#bf616a; }
  </style>
 </defs>
 <path class="ColorScheme-NegativeText" d="m14.834 14-0.83398 0.83398 1.666 1.666-1.666 1.666 0.83398 0.83398 1.666-1.666 1.666 1.666 0.83398-0.83398-1.666-1.666 1.666-1.666-0.83398-0.83398-1.666 1.666z" fill="currentColor"/>
 <path class="ColorScheme-Text" d="m11 3c-4.4183 0-8 1.3431-8 3v10c7e-7 1.6569 3.5817 3 8 3 0.6752-0.0014 1.3472-0.03489 2-0.09961v-0.98437c-0.64893 0.055495-1.3226 0.083785-2 0.083984-3.866 0-7-0.89543-7-2v-3.5488c1.4081 0.95541 4.089 1.5486 7 1.5488 2.9143-0.0014 5.596-0.59702 7-1.5547v0.55469h1v-7c0-1.6569-3.5817-3-8-3zm0 1c3.866 0 7 0.89543 7 2s-3.134 2-7 2-7-0.89543-7-2 3.134-2 7-2zm7 3.4453v3.5547c0 1.1046-3.134 2-7 2s-7-0.89543-7-2v-3.5488c1.4081 0.95541 4.089 1.5486 7 1.5488 2.9143-0.00142 5.596-0.59702 7-1.5547z" fill="currentColor"/>
</svg>
