<svg version="1.1" viewBox="0 0 16 16" xmlns="http://www.w3.org/2000/svg">
 <style type="text/css">.ColorScheme-Text { color: #2e3440; }.ColorScheme-NegativeText { color: #bf616a; }</style>
 <path class="ColorScheme-Text" d="m11.5 2c-1.3807 0-2.5 1.1193-2.5 2.5s1.1193 2.5 2.5 2.5 2.5-1.1193 2.5-2.5-1.1193-2.5-2.5-2.5zm-10.5 4v1h3.8789l-1-1h-2.8789zm1 2c-0.36591 0-0.70494 0.10576-1 0.27734v1.7227c0-0.55228 0.44772-1 1-1s1 0.44772 1 1-0.44772 1-1 1-1-0.44772-1-1v1.7227c0.29506 0.17158 0.63409 0.27734 1 0.27734 1.1046 0 2-0.89543 2-2 0-1.1046-0.89543-2-2-2zm9.6465 0c-0.43495 4.07e-4 -0.85062 0.11083-1.2422 0.2832l0.77539 0.77539c0.15239-0.035093 0.30756-0.058326 0.4668-0.058594 1.0582 0.0017815 2.0008 0.80282 2.3535 2h-0.87891l1 1h1.0254c0-2.2091-1.567-4-3.5-4zm-4.6465 1.1211v2.8789h-1v1h-5v1h7v-3.8789l-1-1zm2 2v0.87891h0.87891l-0.87891-0.87891z" fill="currentColor"/>
 <path class="ColorScheme-NegativeText" d="m2.707 1.988-0.70703 0.70703 11.293 11.293 0.70703-0.73242z" fill="currentColor"/>
</svg>
