<svg version="1.1" viewBox="0 0 16 16" xmlns="http://www.w3.org/2000/svg">
 <defs>
  <style id="current-color-scheme" type="text/css">
   .ColorScheme-Text { color:#2e3440; } .ColorScheme-Highlight { color:#88c0d0; } .ColorScheme-NeutralText { color:#d08770; } .ColorScheme-PositiveText { color:#a3be8c; } .ColorScheme-NegativeText { color:#bf616a; }
  </style>
 </defs>
 <g transform="translate(0 -1036.4)" fill="currentColor">
  <path class="ColorScheme-Text" transform="translate(0 1036.4)" d="m5 3c-2 0-3.0208 1.5-4 1.5s-1-0.5-1-0.5v8s-0.0417 0.5 1 0.5 2-1.5 4-1.5 3 1 3 1v-1.1875c-0.5605-0.5605-1.8333-0.8125-3-0.8125-2.051 0-3.357 1.5-4 1.5v-6c1.5315 0 2-1.5 4-1.5 0.83333 0 1.9477 0.38525 2.2812 0.71875 0.36647 0.2812 1.071 0.2812 1.4375 0 0.27043-0.2704 1.4479-0.71875 2.2812-0.71875 2 0 2.3125 1.5 4 1.5v2.2559c0.38362 0.25605 0.71235 0.58058 1 0.93945v-4.6328c-0.0371 0.1406-0.21875 0.4375-1 0.4375-1.0417 0-2-1.5-4-1.5s-3 1-3 1-1-1-3-1z"/>
  <path class="ColorScheme-PositiveText" d="m12.5 1044.4c1.939 0 3.5 1.561 3.5 3.5s-1.561 3.5-3.5 3.5-3.5-1.561-3.5-3.5 1.561-3.5 3.5-3.5z"/>
 </g>
</svg>
