<svg version="1.1" viewBox="0 0 16 16" xmlns="http://www.w3.org/2000/svg">
 <style id="current-color-scheme" type="text/css">.ColorScheme-Text { color: #2e3440; }</style>
 <style type="text/css">.ColorScheme-PositiveText { color: #a3be8c; }</style>
 <path class="ColorScheme-PositiveText" d="m9.002 1.998-4.002 4.002h-1.9961v1h2.4102l3.5898-3.5898 2.123 2.123 0.0059-0.00391 0.0039 0.00391 2.8281-2.8281c0.0029 5e-3 -0.70707-0.70703-0.70707-0.70703l-2.125 2.125-2.127-2.125-0.0019 0.00195z" fill="currentColor"/>
 <path class="ColorScheme-Text" d="m2 2v12h12v-2.1328c-0.9582-0.95384-1.9131-1.9111-2.8691-2.8672l-0.0039 0.00391-0.005865-0.00391-2.123 2.123-3.123-3.123h-2.875v-6zm1 7h2.4609l3.5352 3.5352 0.00195-2e-3 0.00195 2e-3 2.127-2.125c0.86638 0.86616 1.727 1.738 2.6074 2.5898h-10.734v-4z" fill="currentColor"/>
</svg>
