<svg version="1.1" viewBox="0 0 16 16" xmlns="http://www.w3.org/2000/svg">
 <style type="text/css">.ColorScheme-Text { color: #2e3440; }.ColorScheme-NegativeText { color: #bf616a; }</style>
 <path class="ColorScheme-Text" d="m4.1211 2 1 1h6.8789v1h1v1h1v-3h-9.8789zm3.8789 2c-0.53144 0-0.95384 0.24174-1.2812 0.59766l0.40234 0.40234h2.4648c-0.35385-0.56299-0.87189-1-1.5859-1zm-6 0.12109v0.87891h0.87891l-0.87891-0.87891zm0 1.8789v3h1v-1h1v-1h0.87891l-1-1h-1.8789zm6.1211 0 1 1h2.8789v1h1v1h1v-3h-5.8789zm-1.5078 2.7344c-0.06892 0.086049-0.13973 0.17098-0.19922 0.26562h0.46484l-0.26562-0.26562zm-4.6133 1.2656v4h1v-2h1v-1h4.8789l-1-1h-5.8789zm10.121 0 1.8789 1.8789v-1.8789h-1.8789zm-4.1211 2c-1.1046 0-2 0.89543-2 2h1a1 1 0 0 1 1-1 1 1 0 0 1 1 1h1c0-1.1046-0.89543-2-2-2z" fill="currentColor"/>
 <path class="ColorScheme-NegativeText" d="m2.707 2-0.70703 0.70703 11.293 11.293 0.70703-0.73242z" fill="currentColor"/>
</svg>
