<svg viewBox="0 0 16 16" xmlns="http://www.w3.org/2000/svg">
 <defs>
  <style id="current-color-scheme" type="text/css">
   .ColorScheme-Text { color:#2e3440; } .ColorScheme-Highlight { color:#88c0d0; } .ColorScheme-NeutralText { color:#d08770; } .ColorScheme-PositiveText { color:#a3be8c; } .ColorScheme-NegativeText { color:#bf616a; }
  </style>
 </defs>
 <path class="ColorScheme-Text" d="m5 3c-2 0-3.0208 1.5-4 1.5s-1-0.5-1-0.5v8s-0.0417 0.5 1 0.5 2-1.5 4-1.5 3 1 3 1 1-1 3-1 2.8958 1.5 4 1.5 1-0.5 1-0.5v-7.9375c-0.0371 0.1406-0.21875 0.4375-1 0.4375-1.0417 0-2-1.5-4-1.5s-3 1-3 1-1-1-3-1zm0 1c0.83333 0 1.9477 0.38525 2.2812 0.71875 0.36647 0.2812 1.071 0.2812 1.4375 0 0.27043-0.2704 1.4479-0.71875 2.2812-0.71875 2 0 2.3125 1.5 4 1.5v6c-0.86165 0-1.8551-1.5-4-1.5-1.1667 0-2.4102 0.2227-3 0.8125-0.5605-0.5605-1.8333-0.8125-3-0.8125-2.051 0-3.357 1.5-4 1.5v-6c1.5315 0 2-1.5 4-1.5z" fill="currentColor"/>
</svg>
