<svg version="1.1" viewBox="0 0 16 16" xmlns="http://www.w3.org/2000/svg">
 <style type="text/css">.ColorScheme-PositiveText { color: #a3be8c; }.ColorScheme-Text { color:#2e3440; }</style>
 <path class="ColorScheme-PositiveText" d="m2 10v4h1v-2h1v-1h8v1h1v2h1v-4h-12zm6 2c-1.1046 0-2 0.89543-2 2h1a1 1 0 0 1 1-1 1 1 0 0 1 1 1h1c0-1.1046-0.89543-2-2-2z" fill="currentColor"/>
 <path class="ColorScheme-Text" d="m2 2v3h1v-1h1v-1h8v1h1v1h1v-3h-12zm6 2c-0.71405 0-1.2321 0.43701-1.5859 1h3.1719c-0.35385-0.56299-0.87189-1-1.5859-1zm-6 2v3h1v-1h1v-1h8v1h1v1h1v-3h-12zm6 2c-0.71405 0-1.2321 0.43701-1.5859 1h3.1719c-0.35385-0.56299-0.87189-1-1.5859-1z" fill="currentColor"/>
</svg>
