<svg version="1.1" viewBox="0 0 16 16" xmlns="http://www.w3.org/2000/svg">
 <style type="text/css">.ColorScheme-Text {
            color:#2e3440;
        }</style>
 <path class="ColorScheme-Text" d="m9.3848 3.8984-0.76953 0.64062 2.3848 2.8613v1.5996h-2v1h2v2h1v-2h2v-1h-2v-1.5996l2.3848-2.8613-0.76953-0.64062-2.1152 2.5391-2.1152-2.5391zm-3.8848 0.10156c-1.385 0-2.5 1.115-2.5 2.5v0.5h-1v1h1v1h-1v1h1.0508c0.2302 1.1441 1.2354 2 2.4492 2h1.5v-1h-1.5c-0.4155 0-0.79138-0.16638-1.0625-0.4375-0.15618-0.15618-0.27277-0.34926-0.34766-0.5625h2.9102v-1h-3v-1h3v-1h-3v-0.5c0-0.4155 0.16638-0.79138 0.4375-1.0625s0.647-0.4375 1.0625-0.4375h1.5v-1h-1.5z" fill="currentColor"/>
</svg>
