<svg viewBox="0 0 16 16" xmlns="http://www.w3.org/2000/svg">
 <style type="text/css">.ColorScheme-Text {
      color:#2e3440;
    }
    .ColorScheme-NegativeText {
      color:#bf616a;
    }</style>
 <path class="ColorScheme-Text" d="m3 2v6h-2v1h8v-1h-5v-5h10v5h1v-6zm2 2v1h4v-1zm0 2v1h3v-1zm-4 4v4h8v-4zm5 1h2v2h-2zm-4 1h1v1h-1zm2 0h1v1h-1z" fill="currentColor"/>
 <path class="ColorScheme-NegativeText" d="m10 4v1h3v-1h-3zm0.70703 5-0.70703 0.70703 1.793 1.793-1.793 1.793 0.70703 0.70703 1.793-1.793 1.793 1.793 0.70703-0.70703-1.793-1.793 1.793-1.793-0.70703-0.70703-1.793 1.793-1.793-1.793z" fill="currentColor"/>
</svg>
