<svg version="1.1" viewBox="0 0 16 16" xmlns="http://www.w3.org/2000/svg">
 <style type="text/css">.ColorScheme-NegativeText { color: #bf616a; }.ColorScheme-Text { color: #2e3440; }</style>
 <path class="ColorScheme-Text" d="m4.1211 2 1 1h8.8789v8.8789l1 1v-10.879h-10.879zm2 2 1 1h1.8789v-1h-2.8789zm3.8789 0v1h3v-1h-3zm-7 1.1211v2.8789h-2v6h10.879l-1-1h-8.8789v-4h4.8789l-1-1h-1.8789v-1.8789l-1-1zm7.1211 2.8789 1 1h0.87891v0.87891l1 1v-2.8789h-2.8789zm-7.1211 3v1h6v-0.87891l-0.12109-0.12109h-5.8789z" fill="currentColor"/>
 <path class="ColorScheme-NegativeText" d="M 2.7070312,2 2,2.7070312 13.292969,14 14,13.267578 Z" fill="currentColor"/>
</svg>
