<svg viewBox="0 0 16 16" xmlns="http://www.w3.org/2000/svg">
 <style type="text/css">.ColorScheme-Text {
      color:#2e3440;
    }
    .ColorScheme-NegativeText {
      color:#bf616a;
    }</style>
 <path class="ColorScheme-Text" d="m3 2v6h-2v1h7v-1h-4v-5h10v4h1v-5h-12zm2 2v1h4v-1h-4zm0 2v1h3v-1h-3zm8 2-4 4v2h2l4-4-2-2zm-0.31055 1.6895 0.5918 0.5918-2.9688 3-0.59375-0.59375 2.9707-2.998zm-11.689 0.31055v4h7v-4h-7zm5 1h1v2h-1v-2zm-4 1h1v1h-1v-1zm2 0h1v1h-1v-1z" fill="currentColor"/>
 <path class="ColorScheme-NegativeText" d="m10 4v1h3v-1z" fill="currentColor"/>
</svg>
