<svg version="1.1" viewBox="0 0 16 16" xmlns="http://www.w3.org/2000/svg">
 <style type="text/css">.ColorScheme-Text { color: #2e3440; }</style>
 <path class="ColorScheme-Text" d="m11.5 2c-1.3807 0-2.5 1.1193-2.5 2.5s1.1193 2.5 2.5 2.5 2.5-1.1193 2.5-2.5-1.1193-2.5-2.5-2.5zm-10.5 4v1h5v1h1v4h-1v1h-5v1h7v-8h-7zm1 2c-0.36591 0-0.70494 0.10576-1 0.27734v1.7227c0-0.55228 0.44772-1 1-1s1 0.44772 1 1-0.44772 1-1 1-1-0.44772-1-1v1.7227c0.29506 0.17158 0.63409 0.27734 1 0.27734 1.1046 0 2-0.89543 2-2 0-1.1046-0.89543-2-2-2zm9.6465 0c-1.0328 9.664e-4 -1.9919 0.52379-2.6465 1.3926v2.6074h6.1465c0-2.2091-1.567-4-3.5-4zm0 1c1.0582 0.0017815 2.0008 0.80282 2.3535 2h-4.707c0.35272-1.1972 1.2953-1.9982 2.3535-2z" fill="currentColor"/>
</svg>
