<svg width="16" height="16" viewBox="0 0 16 16" xmlns="http://www.w3.org/2000/svg">
 <defs>
  <style id="current-color-scheme" type="text/css">
   .ColorScheme-Text { color:#2e3440; } .ColorScheme-Highlight { color:#88c0d0; } .ColorScheme-NeutralText { color:#d08770; } .ColorScheme-PositiveText { color:#a3be8c; } .ColorScheme-NegativeText { color:#bf616a; }
  </style>
 </defs>
 <path class="ColorScheme-Text" d="m5 2-1 4h8l-1-4-3 1zm-2 5-1 1h12l-1-1z" fill="currentColor"/>
 <g transform="matrix(.66667 0 0 .66667 1 -1)">
  <g transform="translate(-3.5,2.5)">
   <path class="ColorScheme-Text" d="m11 15.5h6v1.5h-6z" fill="currentColor"/>
  </g>
  <path class="ColorScheme-Text" transform="scale(1.5)" d="m3.5 10a2.5 2.5 0 0 0-2.5 2.5 2.5 2.5 0 0 0 2.5 2.5 2.5 2.5 0 0 0 2.5-2.5 2.5 2.5 0 0 0-2.5-2.5zm0 1a1.5 1.5 0 0 1 1.5 1.5 1.5 1.5 0 0 1-1.5 1.5 1.5 1.5 0 0 1-1.5-1.5 1.5 1.5 0 0 1 1.5-1.5z" fill="currentColor"/>
  <path class="ColorScheme-Text" d="m15.75 15a3.75 3.75 0 0 0-3.75 3.75 3.75 3.75 0 0 0 3.75 3.75 3.75 3.75 0 0 0 3.75-3.75 3.75 3.75 0 0 0-3.75-3.75zm0 1.5a2.25 2.25 0 0 1 2.25 2.25 2.25 2.25 0 0 1-2.25 2.25 2.25 2.25 0 0 1-2.25-2.25 2.25 2.25 0 0 1 2.25-2.25z" fill="currentColor"/>
 </g>
</svg>
