<svg version="1.1" viewBox="0 0 16 16" xmlns="http://www.w3.org/2000/svg">
 <style type="text/css">.ColorScheme-Text { color: #2e3440; }.ColorScheme-NegativeText { color: #bf616a; }</style>
 <path class="ColorScheme-Text" d="m9 2-2.4395 2.4395 0.70703 0.70703 1.7344-1.7344 2.123 2.123 0.0059-0.00391 0.0039 0.00391 2.8281-2.8281c0.002932 0.0050004-0.70707-0.70703-0.70707-0.70703l-2.125 2.125-2.127-2.125-0.00195 0.00195zm-7 2.1211v9.8789h9.8789l-1-1h-7.8789v-4h2.4609l3.5352 3.5352 0.00195-2e-3 0.0019562 2e-3 0.70703-0.70703c-1.2776-1.2735-2.554-2.5501-3.832-3.8281h-2.875v-2.8789zm1 1.8789v1l1.8809 0.00195-1-1z" fill="currentColor"/>
 <path class="ColorScheme-NegativeText" d="m2.6641 2-0.70703 0.70703 11.293 11.293 0.70703-0.73242z" fill="currentColor"/>
</svg>
