<svg version="1.1" viewBox="0 0 16 16" xmlns="http://www.w3.org/2000/svg">
 <defs>
  <style id="current-color-scheme" type="text/css">
   .ColorScheme-Text { color:#2e3440; } .ColorScheme-Highlight { color:#88c0d0; } .ColorScheme-NeutralText { color:#d08770; } .ColorScheme-PositiveText { color:#a3be8c; } .ColorScheme-NegativeText { color:#bf616a; }
  </style>
 </defs>
 <g transform="translate(0 -1036.4)" fill="currentColor">
  <path class="ColorScheme-Text" transform="translate(0 1036.4)" d="m9.0898 2-3.1465 11.74 0.9668 0.25977 3.1465-11.74-0.9668-0.25977zm-3.8047 2-2.9609 3.1445-0.32422 0.34766 0.32422 0.3457 2.9434 3.1621 0.71484-0.69531-2.6211-2.8125 2.6387-2.7969-0.71484-0.69531zm5.4297 0-0.71484 0.69531 2.6387 2.7969-0.47266 0.50781h1.3594l0.15039-0.16211 0.32422-0.3457-0.32422-0.34766-2.9609-3.1445z"/>
  <path class="ColorScheme-NegativeText" d="m9 1046.2 1.6667 1.6667-1.6667 1.6667 0.83333 0.8333 1.6667-1.6666 1.6667 1.6666 0.83333-0.8333-1.6667-1.6667 1.6667-1.6667-0.83333-0.8333-1.6667 1.6667-1.6667-1.6667-0.83333 0.8333z"/>
 </g>
</svg>
