<svg width="64" height="64" version="1.1" viewBox="0 0 16.933 16.933" xmlns="http://www.w3.org/2000/svg">
 <defs>
  <filter id="filter1178" x="-.048" y="-.048" width="1.096" height="1.096" color-interpolation-filters="sRGB">
   <feGaussianBlur stdDeviation="0.30691955"/>
  </filter>
  <linearGradient id="linearGradient1340" x1="8.4769" x2="8.489" y1="15.678" y2="1.1562" gradientUnits="userSpaceOnUse">
   <stop stop-color="#2e3440" offset="0"/>
   <stop stop-color="#4c566a" offset="1"/>
  </linearGradient>
  <filter id="filter978" x="-.31954" y="-.064981" width="1.6391" height="1.13" color-interpolation-filters="sRGB">
   <feGaussianBlur stdDeviation="0.28826028"/>
  </filter>
  <filter id="filter1649" x="-.4561" y="-.081642" width="1.9122" height="1.1633" color-interpolation-filters="sRGB">
   <feGaussianBlur stdDeviation="0.41250027"/>
  </filter>
 </defs>
 <rect transform="matrix(.99138 0 0 1 .072989 .1117)" x=".79375" y=".79375" width="15.346" height="15.346" rx="3.0526" ry="3.0526" fill="#2e3440" filter="url(#filter1178)" opacity=".2" stroke-linecap="round" stroke-linejoin="round" stroke-width="1.2489"/>
 <rect x=".92604" y=".92604" width="15.081" height="15.081" rx="3" ry="3" fill="url(#linearGradient1340)" stroke-linecap="round" stroke-linejoin="round" stroke-width="1.2274"/>
 <rect x=".01215" y=".0060174" width="16.924" height="16.927" fill="none" opacity=".15" stroke-linecap="round" stroke-linejoin="round" stroke-width="1.052"/>
 <g transform="matrix(1.028 0 0 1.028 -15.317 .082262)">
  <rect x="24.958" y="2.8325" width="2.1651" height="10.647" fill="#8fbcbb" stroke-linecap="round" stroke-linejoin="round" stroke-width="2.8413"/>
  <path transform="rotate(-30)" d="m14.875 13.109h2.1651l0.0055 11.591-0.29555 0.53518-1.875-1.0825z" fill="#2e3440" filter="url(#filter1649)"/>
  <path transform="rotate(-30)" d="m14.875 13.109h2.1651l0.0055 11.591-0.29555 0.53518-1.875-1.0825z" fill="#8fbcbb"/>
  <rect x="19.147" y="2.8325" width="2.1651" height="10.647" fill="#2e3440" filter="url(#filter978)" stroke-linecap="round" stroke-linejoin="round" stroke-width="2.8413"/>
  <rect x="19.147" y="2.8325" width="2.1651" height="10.647" fill="#8fbcbb" stroke-linecap="round" stroke-linejoin="round" stroke-width="2.8413"/>
 </g>
</svg>
