<svg version="1.1" viewBox="0 0 16 16" xmlns="http://www.w3.org/2000/svg">
 <g fill="#5e81ac">
  <path d="m7.9941 2c-0.64-2e-3 -1.2906 0.10059-1.9316 0.30859-1.925 0.621-3.3352 2.1392-3.8652 4.1602-0.196 0.748-0.19931 0.81833-0.19531 2.9863 3e-3 1.816 0.0055469 1.9714 0.060547 2.2344 0.194 0.937 0.82189 1.6722 1.7129 2.0332 0.096 0.04 0.19683 0.079375 0.29883 0.10938 0.039 0.012 0.083047 0.017203 0.12305 0.033203 0.086 0.034 0.16031 0.083282 0.19531 0.11328 0.023 0.019 0.049219 0.027109 0.074219 0.037109a0.117 0.117 0 0 0 0.029297 0.056641c0.062 0.058 0.12492 0.060265 0.16992 0.072265 0.1 0.043 0.21717 0.027297 0.32617 0.029297l0.046875 0.001953c0.146 2e-3 0.27772-0.011015 0.38672-0.041015s0.20186-0.068157 0.25586-0.16016c0.027-0.045 0.017531-0.050359 0.019531-0.068359l0.0078125-0.068359c4e-3 -0.054 0.0067656-0.12489 0.0097656-0.21289 0.0032138-0.093734 0.0041005-0.24176 0.0058594-0.36719 0.30224 0.90911 0.37789 1.1121 0.38086 0.99609 2e-3 -0.078 0.39002-3.0009 0.41602-3.1309 0.033-0.167 0.12545-0.14127 0.18945 0.052734a87.52 87.52 0 0 1 0.5 2.0254c0.281 1.169 0.45756 1.8369 0.47656 1.7969 0.015-0.035 0.15555-1.0451 0.31055-2.2441 0.353-2.735 0.32336-2.5762 0.44336-2.5352 0.07 0.023 0.07 0.017031 0.5 2.082 0.195 0.93 0.36114 1.7066 0.36914 1.7266 0.021 0.055 0.054172-0.13912 0.20117-1.2031 0.235-1.691 0.33995-2.3537 0.37695-2.3887 0.063-0.059 0.12038 0.036672 0.23438 0.38867l0.097656 0.30469c0.011855 0.70988 0.0253 1.5051 0.027344 1.8613l0.005859 1.0059 0.125 0.091797c0.068 0.05 0.1467 0.083562 0.2207 0.10156h0.001953l0.003907 0.001953h0.007812a1.97 1.97 0 0 0 0.33594 0.017578c0.14-6e-3 0.26333-0.027359 0.36133-0.068359a0.449 0.449 0 0 0 0.13867-0.089844c0.04-0.024 0.081-0.050937 0.125-0.085937 0.022-0.02 0.14475-0.069563 0.21875-0.10156 0.068-0.03 0.15142-0.042359 0.23242-0.068359 0.449-0.15 0.74652-0.33455 1.1035-0.68555 0.355-0.348 0.54512-0.64008 0.70312-1.0801 0.232-0.781 0.1532-1.646 0.1582-2.457 0.01-2.366-0.03389-2.4148-0.21289-3.1328a5.68 5.68 0 0 0-1.5977-2.7617 5.865 5.865 0 0 0-2.2637-1.3574 6.218 6.218 0 0 0-1.9199-0.32031h-0.0019532zm0.11719 0.98438c0.31225 0 0.61895 0.015328 0.81445 0.048828 1.496 0.258 2.8077 1.2362 3.5117 2.6172 0.305 0.598 0.38289 1.1046 0.46289 1.8066 0.27 1.499 0.4007 1.4783-0.9043 1.0273a4.723 4.723 0 0 1-0.44727-0.16016l-0.10938-0.085938c-0.167-0.128-0.4183-0.15281-0.6543-0.13281-0.118 0.0099999-0.23208 0.033266-0.33008 0.072266a0.435 0.435 0 0 0-0.23633 0.18359c-0.02 0.038-0.017484 0.049219-0.021484 0.074219a1.191 1.191 0 0 0-0.00586 0.089844c-3e-3 0.075-0.003906 0.18017-0.003906 0.32617 0 0.12244 0.005392 0.41031 0.007812 0.59375l-0.18164-0.55078c-0.152-0.458-0.23491-0.65823-0.25391-0.61523-0.016 0.034-0.083391 0.50106-0.15039 1.0391-0.132 1.067-0.22872 1.7438-0.26172 1.8398-0.011 0.033-0.043266 0.060547-0.072266 0.060547-0.101 0-0.13833-0.12795-0.61133-2.127-0.17-0.72-0.33042-1.395-0.35742-1.5l-0.050781-0.19141-0.052734 0.41797c-0.16 1.267-0.56661 4.0932-0.59961 4.1602-0.046 0.094-0.1043 0.098625-0.1543 0.015625-0.052-0.087-0.46886-1.6644-0.75586-2.8594-0.136-0.56-0.25844-1.0195-0.27344-1.0195-0.014 0-0.038734 0.14427-0.052734 0.32227-0.045 0.559-0.30156 2.9254-0.35156 3.2324-0.048 0.297-0.10564 0.37895-0.18164 0.25195-0.0087102-0.014012-0.06178-0.18231-0.089844-0.26172 0.0060554-0.5023 0.0081714-0.89608 0.017578-1.4004 0.019-0.992 0.033859-1.4493 0.0058593-1.6973-0.014-0.124-0.042469-0.20953-0.10547-0.26953-0.063-0.06-0.12745-0.072656-0.18945-0.097656-0.179-0.072-0.41591-0.075828-0.62891-0.048828a1.185 1.185 0 0 0-0.28906 0.070312 0.345 0.345 0 0 0-0.16406 0.11133c-0.106 0.046-0.23989 0.099953-0.33789 0.12695-1.332 0.698-1.2779 0.33566-0.96289-1.0273 0.36-2.482 1.798-4.0355 4.168-4.3945 0.2225-0.0335 0.54127-0.048828 0.85352-0.048828z"/>
 </g>
</svg>
