<svg width="16" height="16" version="1.1" viewBox="0 0 16 16" xmlns="http://www.w3.org/2000/svg">
 <rect x="2.4724" y="2.4724" width="11.055" height="11.055" rx=".63275" ry=".63275" fill="none" stroke="#81a1c1" stroke-linecap="round" stroke-linejoin="round" stroke-width=".94488"/>
 <path d="m7.1 3.2097v1.8h-0.95625l1.8562 2.1 1.8562-2.1h-0.95625v-1.8z" fill="#81a1c1"/>
 <path d="m7.6719 7.4097c-0.05187 0-0.08437 0.08847-0.08437 0.19688v0.68438c-0.20882 0.04755-0.40546 0.13271-0.58125 0.24375l-0.4875-0.4875c-0.07666-0.07666-0.1602-0.11168-0.19688-0.07501l-0.45937 0.45938c-0.03668 0.03667-0.0017 0.12023 0.075 0.19688l0.4875 0.4875c-0.11104 0.17579-0.1962 0.37244-0.24375 0.58125h-0.68437c-0.1084 0-0.19687 0.03252-0.19687 0.08438v0.65625c0 0.05187 0.08848 0.08438 0.19687 0.08438h0.68437c0.04755 0.20882 0.13271 0.40547 0.24375 0.58125l-0.4875 0.4875c-0.07664 0.07666-0.11168 0.1602-0.075 0.19688l0.45937 0.45938c0.03667 0.03668 0.12022 0.0017 0.19688-0.075l0.4875-0.4875c0.17578 0.11104 0.37243 0.1962 0.58125 0.24375v0.68438c0 0.1084 0.03252 0.19688 0.08438 0.19688h0.65625c0.05186 0 0.08438-0.08847 0.08438-0.19688v-0.68438c0.20882-0.04755 0.40546-0.13271 0.58125-0.24375l0.4875 0.4875c0.07665 0.07666 0.1602 0.11168 0.19687 0.075l0.45937-0.45938c0.03667-0.03667 0.0017-0.12023-0.075-0.19688l-0.48752-0.4875c0.11104-0.17579 0.1962-0.37244 0.24375-0.58125h0.68437c0.1084 0 0.19687-0.03252 0.19687-0.08438v-0.65625c0-0.05186-0.08847-0.08438-0.19687-0.08438h-0.68437c-0.04755-0.20881-0.13271-0.40546-0.24375-0.58125l0.4875-0.4875c0.07665-0.07666 0.11168-0.1602 0.07501-0.19688l-0.45937-0.45938c-0.03667-0.03667-0.12022-0.0017-0.19687 0.07501l-0.4875 0.4875c-0.17579-0.11104-0.37244-0.1962-0.58126-0.24375v-0.68438c0-0.1084-0.03252-0.19688-0.08438-0.19688zm0.32812 1.8656c0.45858 0 0.83437 0.37579 0.83437 0.83438s-0.37579 0.83438-0.83437 0.83438-0.83437-0.37579-0.83437-0.83438 0.37579-0.83438 0.83437-0.83438z" fill="#81a1c1"/>
</svg>
