<svg width="16" height="16" version="1.1" xmlns="http://www.w3.org/2000/svg">
 <defs>
  <style id="current-color-scheme" type="text/css">
   .ColorScheme-Text { color:#2e3440; } .ColorScheme-Highlight { color:#88c0d0; } .ColorScheme-NeutralText { color:#d08770; } .ColorScheme-PositiveText { color:#a3be8c; } .ColorScheme-NegativeText { color:#bf616a; }
  </style>
 </defs>
 <path d="M7 2v3h1V2zM5 3v2h1V3zm4 0v2h1V3zM3 4v1h1V4zM2 6v4c0 1.813 1.01 3 3 3H3v1h8v-1H9c1.572 0 2.507-.727 3-2h1c1 0 1-.003 1-1.094V8.812c0-1.818 0-1.813-1-1.813h-1v-1zm1 1h8v3c0 1.511-1.338 2-3 2H6c-1.662 0-3-.489-3-2zm9 1h1v2h-1z" fill="#d08770"/>
</svg>
