<svg width="16" height="16" version="1.1" xmlns="http://www.w3.org/2000/svg">
 <defs>
  <style id="current-color-scheme" type="text/css">
   .ColorScheme-Text { color:#2e3440; } .ColorScheme-Highlight { color:#88c0d0; } .ColorScheme-NeutralText { color:#d08770; } .ColorScheme-PositiveText { color:#a3be8c; } .ColorScheme-NegativeText { color:#bf616a; }
  </style>
 </defs>
 <path d="M8 2a6 6 0 0 0-6 6 6 6 0 0 0 6 6 6 6 0 0 0 6-6 6 6 0 0 0-6-6m0 1a5 5 0 0 1 5 5 5 5 0 0 1-5 5 5 5 0 0 1-5-5 5 5 0 0 1 5-5m0 1a4 4 0 0 0-2.559.928l.641.769A3 3 0 0 1 8 5a3 3 0 0 1 3 3h1a4 4 0 0 0-4-4m1 2L7.398 9.203A1 1 0 0 0 7 10a1 1 0 0 0 1 1 1 1 0 0 0 1-1 1 1 0 0 0-.252-.66zm-4.469.018A4 4 0 0 0 4 8h1a3 3 0 0 1 .398-1.486z" fill="#bf616a"/>
</svg>
