<svg width="16" height="16" xmlns="http://www.w3.org/2000/svg">
 <g fill="#bf616a">
  <path d="M2 7l6 7 6-7H2zm2.156 1h7.688L8 12.469z" font-family="Sans" font-weight="400" overflow="visible" stroke-width="2" style="block-progression:tb;text-indent:0;text-transform:none"/>
  <path d="M4 5L2 7l.719.719L4.438 6h7.125l1.718 1.719L14 7l-2-2H4z" font-family="Sans" font-weight="400" overflow="visible" stroke-width="2" style="block-progression:tb;text-indent:0;text-transform:none"/>
  <path d="m7.5 6h1v7h-1z"/>
  <path d="M13.078 1.995L11.984 3.9l.875.5 1.094-1.938-.875-.468zM2.914 2.062l-.844.5 1.125 1.906.844-.5-1.125-1.906z" font-family="Sans" font-weight="400" overflow="visible" style="block-progression:tb;text-indent:0;text-transform:none"/>
  <path d="m5.5 2h1v2h-1zm4 0h1v2h-1z"/>
 </g>
</svg>
