<svg width="16" height="16" version="1.1" xmlns="http://www.w3.org/2000/svg">
 <defs>
  <style id="current-color-scheme" type="text/css">
   .ColorScheme-Text { color:#2e3440; } .ColorScheme-Highlight { color:#88c0d0; } .ColorScheme-NeutralText { color:#d08770; } .ColorScheme-PositiveText { color:#a3be8c; } .ColorScheme-NegativeText { color:#bf616a; }
  </style>
 </defs>
 <path d="M5.5 2A1.5 1.5 0 0 0 4 3.5a1.5 1.5 0 0 0 1 1.412v6.178a1.5 1.5 0 0 0-1 1.41A1.5 1.5 0 0 0 5.5 14 1.5 1.5 0 0 0 7 12.5a1.5 1.5 0 0 0-1-1.412V4.912A1.5 1.5 0 0 0 7 3.5 1.5 1.5 0 0 0 5.5 2M9 2L7 3.4 9 5V4h1c.554 0 1 .446 1 1v6.09a1.5 1.5 0 0 0-1 1.41 1.5 1.5 0 0 0 1.5 1.5 1.5 1.5 0 0 0 1.5-1.5 1.5 1.5 0 0 0-1-1.412V5c0-1.108-.89-1.945-2-2H9zM5.5 3a.5.5 0 0 1 .5.5.5.5 0 0 1-.5.5.5.5 0 0 1-.5-.5.5.5 0 0 1 .5-.5m0 9a.5.5 0 0 1 .5.5.5.5 0 0 1-.5.5.5.5 0 0 1-.5-.5.5.5 0 0 1 .5-.5m6 0a.5.5 0 0 1 .5.5.5.5 0 0 1-.5.5.5.5 0 0 1-.5-.5.5.5 0 0 1 .5-.5" class="ColorScheme-Text" fill="currentColor"/>
</svg>
