<svg width="16" height="16" version="1.1" xmlns="http://www.w3.org/2000/svg">
 <defs>
  <style id="current-color-scheme" type="text/css">
   .ColorScheme-Text { color:#2e3440; } .ColorScheme-Highlight { color:#88c0d0; } .ColorScheme-NeutralText { color:#d08770; } .ColorScheme-PositiveText { color:#a3be8c; } .ColorScheme-NegativeText { color:#bf616a; }
  </style>
 </defs>
 <path d="M2 2v1h12V2zm.5 2a.499.499 0 1 0 0 1 .499.499 0 1 0 0-1M4 4v1h9V4zm0 2v1h4V6zM2.5 9a.499.499 0 1 0 0 1 .499.499 0 1 0 0-1M4 9v1h9V9zm0 2v1h8v-1zm-2 2v1h12v-1z" class="ColorScheme-Text" fill="currentColor"/>
</svg>
