<svg width="16" height="16" xmlns="http://www.w3.org/2000/svg">
 <path d="M5 3v2h2V3zm3 0v2h2V3zM3 6v2h2V6zm3 0v2h2V6zm3 0v2h2V6z" fill="#88c0d0" overflow="visible" stroke-width=".016" style="isolation:auto;mix-blend-mode:normal"/>
 <path d="M12.429 6.233c-.531.364-.658 1.024-.493 1.646.168.622.591 1.071 1.234 1.121a1.522 1.522 0 0 0 1.432 1.015c.644-.001 1.218-.408 1.432-1.015a1.52 1.52 0 0 0-1.432-1.013 1.52 1.52 0 0 0-.86.27 1.521 1.521 0 0 0-1.313-2.023zM13.169 9H1c0 3.36 2.724 5.072 6.085 5.072 3.36 0 6.085-1.711 6.085-5.072zm-9.648.675a.835.835 0 1 1 0 1.67.835.835 0 0 1 0-1.67z" fill="#88c0d0" overflow="visible" stroke-width=".014" style="isolation:auto;mix-blend-mode:normal"/>
</svg>
