<svg width="16" height="16" version="1.1" xmlns="http://www.w3.org/2000/svg">
 <defs>
  <style id="current-color-scheme" type="text/css">
   .ColorScheme-Text { color:#2e3440; } .ColorScheme-Highlight { color:#88c0d0; } .ColorScheme-NeutralText { color:#d08770; } .ColorScheme-PositiveText { color:#a3be8c; } .ColorScheme-NegativeText { color:#bf616a; }
  </style>
 </defs>
 <path d="M2.117.53v.264h-.265v.264h.265v.265h.264v-.265h.265V.794H2.38V.529zm1.058 0v.264H2.91v.264h.265v.265h.265v-.265h.264V.794H3.44V.529zM.794 1.851a.264.264 0 0 0-.265.265V3.44c0 .146.118.264.265.264h1.323a.264.264 0 0 0 .264-.264v-.177l-.264-.088a.264.264 0 0 1-.265.265h-.794a.264.264 0 0 1-.264-.265v-.794c0-.146.118-.264.264-.264h.794c.147 0 .265.118.265.264l.264-.088v-.176a.264.264 0 0 0-.264-.265z" fill="#a3be8c" stroke-width=".265"/>
</svg>
