<svg width="16" height="16" version="1.1" xmlns="http://www.w3.org/2000/svg">
 <defs>
  <style id="current-color-scheme" type="text/css">
   .ColorScheme-Text { color:#2e3440; } .ColorScheme-Highlight { color:#88c0d0; } .ColorScheme-NeutralText { color:#d08770; } .ColorScheme-PositiveText { color:#a3be8c; } .ColorScheme-NegativeText { color:#bf616a; }
  </style>
 </defs>
 <path d="M4 2c-1.108 0-2 .892-2 2a1.996 1.996 0 0 0 3.307 1.506A4.9 4.9 0 0 1 6 8a4.9 4.9 0 0 1-.693 2.494A1.996 1.996 0 0 0 2 12a1.996 1.996 0 0 0 3.725 1H11v1h3v-3h-3v1H6c0-.197-.037-.383-.09-.563A5.95 5.95 0 0 0 7 8c0-1.28-.417-2.447-1.096-3.418C5.961 4.397 6 4.204 6 4h4v2h4V2h-4v1H5.725A1.99 1.99 0 0 0 4 2zm0 1c.554 0 1 .446 1 1s-.446 1-1 1-1-.446-1-1 .446-1 1-1zm7 0h2v2h-2V3zm-7 8c.554 0 1 .446 1 1s-.446 1-1 1-1-.446-1-1 .446-1 1-1zm8 1h1v1h-1v-1z" fill="#a3be8c" overflow="visible" style="isolation:auto;mix-blend-mode:normal"/>
</svg>
