<svg width="24px" height="24px" version="1.1" viewBox="0 0 24 24" xmlns="http://www.w3.org/2000/svg">
 <path d="m12.961 3.2773c-0.30859-0.011719-0.625 0.003906-0.95313 0.015625-1.9414 0.082031-5.3789 0.015625-6.7188 1.4922-0.82031 0.90234-0.4375 3 0.81641 3.2188 1.5625 0.26953 4.207-0.40234 5.9023-0.23828 1.1836 0.11719 1.5273 1.0039 0.56641 1.6172-1.0195 0.65234-3.332 0.45703-4.5 0.78516-4.0391 1.1289-5.4922 3.5273-4.5 6.7773 0.64453 2.1211 2.9258 3.6914 5.4141 3.7812 4.7891-0.007812 3.8945-2.2617 6.2148-1.0898 0.76172 0.82031 2.3008 1.0859 3.0977 0.50781 1.2812-0.92969 3.2109-1.4258 1.8516-3.3242-0.65625-0.91016 0.86719-2.0898 0.52344-6.6172-0.30078-4.0156-3.0586-6.7734-7.7148-6.9258zm-0.62109 9.707c1.0781 0 1.9297 0.70312 1.9297 1.5781 0 0.87891-0.85156 1.6016-1.9297 1.6016s-1.9688-0.72266-1.9688-1.6016c0-0.875 0.89062-1.5781 1.9688-1.5781z" fill="#2e3440"/>
</svg>
