<svg width="24" height="24" version="1.1" viewBox="0 0 24 24" xmlns="http://www.w3.org/2000/svg" xmlns:xlink="http://www.w3.org/1999/xlink">
 <defs>
  <filter id="alpha" x="0%" y="0%" width="100%" height="100%">
   <feColorMatrix in="SourceGraphic" values="0 0 0 0 1 0 0 0 0 1 0 0 0 0 1 0 0 0 1 0"/>
  </filter>
  <mask id="mask0">
   <g filter="url(#alpha)">
    <rect width="24" height="24" style="fill-opacity:.4;fill:rgb(0%,0%,0%)"/>
   </g>
  </mask>
  <clipPath id="clip1">
   <rect width="24" height="24"/>
  </clipPath>
  <g id="surface5" clip-path="url(#clip1)">
   <path d="m22.910156 4.636719c0 1.355469-1.085937 2.453125-2.425781 2.453125-1.335937 0-2.425781-1.09375-2.425781-2.453125 0-1.355469 1.089844-2.457031 2.425781-2.457031 1.34375 0 2.425781 1.101562 2.425781 2.457031z" style="fill:rgb(18.039216%,20.392157%,25.098041%)"/>
  </g>
  <mask id="mask1">
   <g filter="url(#alpha)">
    <rect width="24" height="24" style="fill-opacity:.4;fill:rgb(0%,0%,0%)"/>
   </g>
  </mask>
  <clipPath id="clip2">
   <rect width="24" height="24"/>
  </clipPath>
  <g id="surface8" clip-path="url(#clip2)">
   <path d="m22.910156 12c0 1.351562-1.085937 2.457031-2.425781 2.457031-1.335937 0-2.425781-1.101562-2.425781-2.457031 0-1.351562 1.089844-2.457031 2.425781-2.457031 1.34375 0 2.425781 1.101562 2.425781 2.457031z" style="fill:rgb(18.039216%,20.392157%,25.098041%)"/>
  </g>
 </defs>
 <g id="surface1">
  <path d="m8.359375 2.179688c-2.003906 0-3.632813 1.652343-3.632813 3.683593v6.148438c0 2.03125 1.628907 3.679687 3.632813 3.679687 2.011719 0 3.640625-1.648437 3.640625-3.679687v-6.148438c0-2.03125-1.628906-3.683593-3.640625-3.683593z" style="fill:rgb(18.039216%,20.392157%,25.098041%)"/>
  <path d="m1.089844 12c0 3.652344 2.621094 6.667969 6.0625 7.246094v1.34375h-1.214844v1.230468h4.84375v-1.230468h-1.210938v-1.34375c3.445313-0.578125 6.058594-3.59375 6.058594-7.246094h-2.425781c0 2.714844-2.171875 4.910156-4.851563 4.910156-2.675781 0-4.84375-2.199218-4.84375-4.910156z" style="fill:rgb(18.039216%,20.392157%,25.098041%)"/>
  <use mask="url(#mask0)" xlink:href="#surface5"/>
  <use mask="url(#mask1)" xlink:href="#surface8"/>
  <path d="m22.910156 19.363281c0 1.355469-1.085937 2.457031-2.425781 2.457031-1.335937 0-2.425781-1.101562-2.425781-2.457031s1.089844-2.453125 2.425781-2.453125c1.34375 0 2.425781 1.09375 2.425781 2.453125z" style="fill:rgb(18.039216%,20.392157%,25.098041%)"/>
 </g>
</svg>
