<svg viewBox="0 0 24 24" xmlns="http://www.w3.org/2000/svg">
 <path d="m12.992 8.5-0.999 1c1.233 1.276 1.233 3.224 0 4.5l0.999 1c1.952-2.02 1.952-4.479 0-6.5z" fill="#2e3440" opacity=".4"/>
 <path d="m14.491 8c2.025 2.027 2.025 5.973 0 8l1.499 1.5c2.902-2.905 2.902-8.095 0-11z" fill="#2e3440" opacity=".4"/>
 <path d="m16.988 6c3.561 3.372 3.508 8.628 0 12l1.499 1.5c4.658-4.5 4.71-10.5 0-15z" fill="#2e3440" opacity=".4"/>
 <path d="m9 6-3 3v6l3 3v-4l2-2-2-2z" fill="#2e3440"/>
 <path d="m3 9c-0.523 0-0.999 0.498-0.999 1v4c0 0.58 0.433 1 0.999 1h3.996v-6z" fill="#2e3440"/>
</svg>
