<svg viewBox="0 0 24 24" xmlns="http://www.w3.org/2000/svg">
 <path d="m8.667 3c-1.84 0-3.333 1.511-3.333 3.374v5.637c0 1.862 1.493 3.374 3.333 3.374s3.333-1.511 3.333-3.374v-5.637c0-1.862-1.493-3.374-3.333-3.374" fill="#2e3440"/>
 <path d="m2 12c0 3.349 2.399 6.113 5.557 6.647v1.228h-1.113v1.125h4.447v-1.125h-1.113v-1.228c3.158-0.534 5.557-3.298 5.557-6.647h-2.223c0 2.485-1.987 4.502-4.443 4.502-2.453 0-4.443-2.02-4.443-4.502z" fill="#2e3440"/>
 <g transform="matrix(.91658 0 0 .91683 1.0011 .99801)" fill="#2e3440" opacity=".4">
  <path d="m22.91 4.637c0 1.355-1.086 2.453-2.426 2.453s-2.422-1.098-2.422-2.453 1.082-2.453 2.422-2.453 2.426 1.098 2.426 2.453z"/>
  <path d="m22.91 12c0 1.355-1.086 2.453-2.426 2.453s-2.422-1.098-2.422-2.453 1.082-2.453 2.422-2.453 2.426 1.098 2.426 2.453z"/>
  <path d="m22.91 19.363c0 1.355-1.086 2.453-2.426 2.453s-2.422-1.098-2.422-2.453 1.082-2.453 2.422-2.453 2.426 1.098 2.426 2.453z"/>
 </g>
</svg>
