<svg enable-background="new 0 0 24 24" viewBox="0 0 24 24" xmlns="http://www.w3.org/2000/svg">
 <g transform="matrix(.8829 0 0 .88294 1.4052 1.7354)" fill="#2e3440">
  <path transform="matrix(1.1326 0 0 1.1326 -.45895 -.83287)" d="m19.98 1.5-5.42 6.605 1.879 1.707 4.061-7.941-0.52-0.371m-14.918 5.221-3.563 3.092v1.188l3.563-1.188 1.938 7.75v-2.063h2v-1h-2v-5h0.088l-0.838-2.064-1.188-0.715m8.938 2.842v0.742l0.561-0.492s-0.384-0.167-0.561-0.25zm1.75 1.438-1.75 1.398v3.102h2v3.748l4.141 1.252h0.326l0.033-0.27-3.563-8.04-1.188-1.188"/>
 </g>
 <g transform="translate(1 13)" fill="#2e3440">
  <path d="m10.5-4v2h2v-2z"/>
  <path d="m8.5 7v-2h2v-4h-2v-2h4v6h2v2z"/>
 </g>
</svg>
