<svg width="24" height="24" viewBox="0 0 6.7733 6.7733" xmlns="http://www.w3.org/2000/svg">
 <path d="m3.104 2.54c-0.152 0-0.282 0.144-0.282 0.282v1.41c0 0.145 0.088 0.282 0.282 0.282h0.847v0.673h0.564v-0.673h0.847c0.181 0 0.282-0.123 0.282-0.282v-1.41c0-0.139-0.111-0.282-0.282-0.282zm0.564 0.564h1.129c0.155 0 0.282 0.109 0.282 0.282v0.282c0 0.143-0.109 0.282-0.282 0.282h-1.129c-0.175 0-0.282-0.117-0.282-0.282v-0.282c0-0.157 0.118-0.282 0.282-0.282zm-0.564 1.977v0.564h2.258v-0.564z" fill="#2e3440"/>
 <path d="m1.411 1.125c-0.282 0-0.282 0.282-0.282 0.282v1.693s0 0.282 0.282 0.282h0.847v0.558h-0.847v0.564h1.129v-1.687h-0.564c-0.155 0-0.282-0.13-0.282-0.282v-0.564c0-0.16 0.126-0.282 0.282-0.282h1.129c0.169 0 0.282 0.12 0.282 0.282v0.282h0.564v-0.847c0-0.282-0.282-0.282-0.282-0.282z" fill="#2e3440"/>
</svg>
