<svg viewBox="0 0 24 24" xmlns="http://www.w3.org/2000/svg">
 <path d="m7.498 4.5-4.498 3.502 4.498 3-4.498 4 9 5.998 9-5.998-4.498-4 4.498-3-4.498-3.502-4.502 3.502m0 1.5c1.762 0 3.374 1.078 4.065 2.718l0.935-0.344-0.781 2.75-2.532-1.468 1-0.376c-0.473-1.067-1.533-1.78-2.69-1.78-1.214 0-2.299 0.727-2.75 1.873l-1.375-0.53c0.673-1.722 2.303-2.843 4.126-2.843m-4.251 3.813 2.564 1.529-1 0.408c0.48 1.071 1.522 1.747 2.69 1.747 1.211 0 2.314-0.756 2.75-1.905l1.375 0.53c-0.652 1.722-2.31 2.875-4.126 2.875-1.773 0-3.359-1.071-4.065-2.718l-0.935 0.405" fill="#2e3440"/>
</svg>
