<svg width="24" height="24" viewBox="0 0 24 24" xmlns="http://www.w3.org/2000/svg">
 <path d="m10.605469 3.273438c-0.582031 0-1.046875 0.46875-1.046875 1.046874 0 0.578126 0.464844 1.046876 1.046875 1.046876 2.699219 0 4.886719 2.1875 4.886719 4.886718 0 0.578125 0.46875 1.046875 1.046874 1.046875 0.578126 0 1.046876-0.46875 1.046876-1.046875 0-3.855468-3.125-6.980468-6.980469-6.980468zm-0.351563 3.140624c-3.855468 0-6.980468 3.125-6.980468 6.980469 0 0.582031 0.46875 1.046875 1.046874 1.046875 0.578126 0 1.046876-0.464844 1.046876-1.046875 0-2.699219 2.1875-4.886719 4.886718-4.886719 0.578125 0 1.046875-0.46875 1.046875-1.046874 0-0.578126-0.46875-1.046876-1.046875-1.046876zm9.425782 3.144532c-0.578126 0-1.046876 0.464844-1.046876 1.046875 0 2.699219-2.1875 4.886719-4.886718 4.886719-0.578125 0-1.046875 0.46875-1.046875 1.046874 0 0.578126 0.46875 1.046876 1.046875 1.046876 3.855468 0 6.980468-3.125 6.980468-6.980469 0-0.582031-0.46875-1.046875-1.046874-1.046875zm-12.21875 3.140625c-0.578126 0-1.046876 0.46875-1.046876 1.046875 0 3.855468 3.125 6.980468 6.980469 6.980468 0.582031 0 1.046875-0.46875 1.046875-1.046874 0-0.578126-0.464844-1.046876-1.046875-1.046876-2.699219 0-4.886719-2.1875-4.886719-4.886718 0-0.578125-0.46875-1.046875-1.046874-1.046875z" fill="rgb(18.039216%, 20.392157%, 25.098041%)"/>
</svg>
