
<svg xmlns="http://www.w3.org/2000/svg" xmlns:xlink="http://www.w3.org/1999/xlink" width="24" height="24" viewBox="0 0 24 24" version="1.1">
<g id="surface1">
<path style=" stroke:none;fill-rule:nonzero;fill:rgb(53.333336%,75.294119%,81.568629%);fill-opacity:1;" d="M 20.363281 6.636719 C 20.363281 7.992188 19.28125 9.09375 17.9375 9.09375 C 16.601562 9.09375 15.511719 7.992188 15.511719 6.636719 C 15.511719 5.285156 16.601562 4.183594 17.9375 4.183594 C 19.28125 4.183594 20.363281 5.285156 20.363281 6.636719 Z M 20.363281 6.636719 "/>
<path style=" stroke:none;fill-rule:nonzero;fill:rgb(18.039216%,20.392157%,25.098041%);fill-opacity:1;" d="M 1.261719 10.101562 C 1.945312 9.804688 6.222656 11.550781 6.898438 11.449219 C 7.632812 11.339844 11.308594 8.507812 11.984375 8.507812 C 12.917969 8.507812 16.300781 11.328125 17.195312 11.460938 C 17.761719 11.546875 21.527344 9.917969 22.714844 10.070312 C 23.125 10.726562 18.515625 15.269531 17.382812 15.457031 C 16.1875 15.652344 12.609375 12.9375 11.996094 12.9375 C 11.441406 12.9375 7.796875 15.65625 6.761719 15.484375 C 5.160156 15.222656 1.191406 10.785156 1.261719 10.101562 Z M 1.261719 10.101562 "/>
</g>
</svg>
