<svg width="24" height="24" viewBox="0 0 24 24" xmlns="http://www.w3.org/2000/svg">
 <path transform="scale(1.5)" d="m2.856771 15.041667c-0.643229-0.890625-1.359375-2.190105-1.645833-2.981771-0.286459-0.791667-0.335938-1.117188-0.36198-1.677084-0.033854-0.778645 0.106771-1.25 0.539063-1.817708 0.822917-1.075521 1.541667-2.419271 1.942708-3.622396 0.325521-0.979166 0.492188-2.039062 0.429688-2.752604-0.013021-0.177083-0.015625-0.320312 0-0.320312 0.041666 0 0.716145 1.049479 0.942708 1.473958 0.84375 1.565104 1.195313 2.799479 1.145833 4.020833-0.023437 0.625-0.119791 1.046875-0.338541 1.513021-0.221355 0.466146-0.291667 0.536458-0.75 1.091146-0.955729 1.153646-1.565105 2.364583-1.747396 3.46875-0.080729 0.486979-0.059896 1.317708 0.041667 1.679688 0.033854 0.125 0.057291 0.23177 0.049479 0.239583-0.007813 0.005208-0.117188-0.135417-0.247396-0.315104zm0 0" fill="none" stroke="rgb(18.039216%, 20.392157%, 25.098041%)" stroke-linecap="round" stroke-linejoin="round" stroke-width="1.119"/>
 <path transform="scale(1.5)" d="m3.080729 15.057292c-0.091146-0.289063-0.104167-1.195313-0.026041-1.640625 0.177083-1.020834 0.708333-2.125 1.505208-3.130209 0.179687-0.223958 0.424479-0.53125 0.544271-0.684896 0.270833-0.341145 0.557291-0.914062 0.674479-1.35677 0.117187-0.442709 0.151042-1.23698 0.085937-1.734375-0.026041-0.200521-0.059895-0.390625-0.070312-0.421875-0.013021-0.03125 0.101562-0.132813 0.34375-0.278646 2.013021-1.216146 3.263021-2.976563 3.414062-4.8125l0.028646-0.354167 0.153646 0.479167c1.036458 3.242187 1.015625 6.023437-0.052083 7.578125-0.390625 0.567708-1.002604 1.039062-1.744792 1.346354-1.377604 0.570313-2.388021 1.213542-3.221354 2.054687-0.830729 0.841146-1.359375 1.794271-1.528646 2.789063l-0.054688 0.330729zm0 0" fill="none" stroke="rgb(18.039216%, 20.392157%, 25.098041%)" stroke-linecap="round" stroke-linejoin="round" stroke-width="1.119"/>
 <path transform="scale(1.5)" d="m3.203125 15.049479c0-0.223958 0.223958-0.940104 0.429687-1.359375 0.729167-1.510416 2.085938-2.651042 4.25-3.575521 0.598959-0.255208 0.885417-0.421875 1.21875-0.708333 0.67448-0.575521 1.135417-1.447917 1.322917-2.502604l0.067709-0.382813 0.518229-0.182291c0.955729-0.33073 1.890625-0.786459 2.505208-1.216146 0.614583-0.432292 1.401042-1.286458 1.567708-1.768229 0.03125-0.083334 0.059896-0.148438 0.070313-0.140625 0.020833 0.023437-0.153646 1.286458-0.257813 1.859375-0.635416 3.427083-1.908854 5.765625-3.619791 6.651041-0.46875 0.242188-0.848959 0.348959-1.53125 0.427084-2.945313 0.348958-5.161459 1.265625-6.23698 2.60677-0.130208 0.166667-0.252604 0.315105-0.270833 0.338542-0.018229 0.020834-0.033854 0-0.033854-0.046875zm0 0" fill="none" stroke="rgb(18.039216%, 20.392157%, 25.098041%)" stroke-linecap="round" stroke-linejoin="round" stroke-width="1.119"/>
</svg>
