
<svg xmlns="http://www.w3.org/2000/svg" xmlns:xlink="http://www.w3.org/1999/xlink" width="24" height="24" viewBox="0 0 24 24">
<path fill="none" stroke-width="1.119" stroke-linecap="round" stroke-linejoin="round" stroke="rgb(18.039216%, 20.392157%, 25.098041%)" stroke-opacity="1" stroke-miterlimit="4" d="M 2.856771 15.041667 C 2.213542 14.151042 1.497396 12.851562 1.210938 12.059896 C 0.924479 11.268229 0.875 10.942708 0.848958 10.382812 C 0.815104 9.604167 0.955729 9.132812 1.388021 8.565104 C 2.210938 7.489583 2.929688 6.145833 3.330729 4.942708 C 3.65625 3.963542 3.822917 2.903646 3.760417 2.190104 C 3.747396 2.013021 3.744792 1.869792 3.760417 1.869792 C 3.802083 1.869792 4.476562 2.919271 4.703125 3.34375 C 5.546875 4.908854 5.898438 6.143229 5.848958 7.364583 C 5.825521 7.989583 5.729167 8.411458 5.510417 8.877604 C 5.289062 9.34375 5.21875 9.414062 4.760417 9.96875 C 3.804688 11.122396 3.195312 12.333333 3.013021 13.4375 C 2.932292 13.924479 2.953125 14.755208 3.054688 15.117188 C 3.088542 15.242188 3.111979 15.348958 3.104167 15.356771 C 3.096354 15.361979 2.986979 15.221354 2.856771 15.041667 Z M 2.856771 15.041667 " transform="matrix(1.5, 0, 0, 1.5, 0, 0)"/>
<path fill="none" stroke-width="1.119" stroke-linecap="round" stroke-linejoin="round" stroke="rgb(18.039216%, 20.392157%, 25.098041%)" stroke-opacity="1" stroke-miterlimit="4" d="M 3.080729 15.057292 C 2.989583 14.768229 2.976562 13.861979 3.054688 13.416667 C 3.231771 12.395833 3.763021 11.291667 4.559896 10.286458 C 4.739583 10.0625 4.984375 9.755208 5.104167 9.601562 C 5.375 9.260417 5.661458 8.6875 5.778646 8.244792 C 5.895833 7.802083 5.929688 7.007812 5.864583 6.510417 C 5.838542 6.309896 5.804688 6.119792 5.794271 6.088542 C 5.78125 6.057292 5.895833 5.955729 6.138021 5.809896 C 8.151042 4.59375 9.401042 2.833333 9.552083 0.997396 L 9.580729 0.643229 L 9.734375 1.122396 C 10.770833 4.364583 10.75 7.145833 9.682292 8.700521 C 9.291667 9.268229 8.679688 9.739583 7.9375 10.046875 C 6.559896 10.617188 5.549479 11.260417 4.716146 12.101562 C 3.885417 12.942708 3.356771 13.895833 3.1875 14.890625 L 3.132812 15.221354 Z M 3.080729 15.057292 " transform="matrix(1.5, 0, 0, 1.5, 0, 0)"/>
<path fill="none" stroke-width="1.119" stroke-linecap="round" stroke-linejoin="round" stroke="rgb(18.039216%, 20.392157%, 25.098041%)" stroke-opacity="1" stroke-miterlimit="4" d="M 3.203125 15.049479 C 3.203125 14.825521 3.427083 14.109375 3.632812 13.690104 C 4.361979 12.179688 5.71875 11.039062 7.882812 10.114583 C 8.481771 9.859375 8.768229 9.692708 9.101562 9.40625 C 9.776042 8.830729 10.236979 7.958333 10.424479 6.903646 L 10.492188 6.520833 L 11.010417 6.338542 C 11.966146 6.007812 12.901042 5.552083 13.515625 5.122396 C 14.130208 4.690104 14.916667 3.835938 15.083333 3.354167 C 15.114583 3.270833 15.143229 3.205729 15.153646 3.213542 C 15.174479 3.236979 15 4.5 14.895833 5.072917 C 14.260417 8.5 12.986979 10.838542 11.276042 11.723958 C 10.807292 11.966146 10.427083 12.072917 9.744792 12.151042 C 6.799479 12.5 4.583333 13.416667 3.507812 14.757812 C 3.377604 14.924479 3.255208 15.072917 3.236979 15.096354 C 3.21875 15.117188 3.203125 15.096354 3.203125 15.049479 Z M 3.203125 15.049479 " transform="matrix(1.5, 0, 0, 1.5, 0, 0)"/>
</svg>
