<svg viewBox="0 0 24 24" xmlns="http://www.w3.org/2000/svg">
 <g transform="translate(0,-40)">
  <rect y=".007" width="64.17" height="63.993" rx="0" fill-opacity="0"/>
  <path d="m12 43a9 9 0 0 0-9 9 9 9 0 0 0 0.012 0.326c0.304-0.454 0.717-0.999 1.187-1.434 0.975-0.902 2.303-1.676 3.949-1.941 0.409-0.066 0.83-0.1 1.264-0.1 3.03 5e-3 6.643 1.755 10.764 6.889a9 9 0 0 0 0.824-3.74 9 9 0 0 0-9-9m-2.578 8.02c-0.333-8e-3 -0.646 0.014-0.938 0.061-1.164 0.189-2.101 0.735-2.818 1.399-0.701 0.65-1.905 2.225-2.086 2.69a9 9 0 0 0 8.42 5.83 9 9 0 0 0 7.02-3.39c-2.55-2.65-5.96-6.41-9.598-6.59" fill="#2e3440"/>
 </g>
</svg>
