<svg viewBox="0 0 24 24" xmlns="http://www.w3.org/2000/svg">
 <path d="m20.418 12.703h-8e-3c-0.772 0-1.914-0.459-2.494-1-0.018-0.017-0.036-0.034-0.054-0.052-0.126-0.124-0.264-0.28-0.409-0.455-0.178-0.214-0.369-0.458-0.565-0.708-0.799-1.021-1.553-1.985-2.206-1.985-0.464 0-0.999 0.261-1.516 0.513-0.431 0.21-0.876 0.427-1.166 0.427s-0.735-0.217-1.166-0.427c-0.517-0.252-1.052-0.513-1.516-0.513-0.653 0-1.408 0.964-2.206 1.985-0.149 0.19-0.294 0.376-0.434 0.548-0.45 0.618-1.056 1.061-1.642 1.319-0.491 0.213-1.024 0.351-1.447 0.351-0.286 0-0.399-0.068-0.427-0.088-0.195-0.145-0.384-0.219-0.562-0.219-0.252 0-0.464 0.159-0.555 0.414-0.111 0.315-0.019 0.702 0.248 1.035 0.767 0.959 2.433 1.545 4.624 1.641 0.211 9e-3 0.426 0.014 0.646 0.014h0.054c1.626-0.022 3.09-1.051 3.923-2.02 0.171-0.198 0.394-0.208 0.437-0.208h2e-3l8e-3 4e-3 0.03-3e-3h6e-3c0.043 0 0.266 0.01 0.437 0.208 0.821 0.95 2.255 1.963 3.853 2.01 0.041 1e-3 0.082 2e-3 0.124 2e-3 0.403 0 0.79-0.016 1.16-0.046 1.937-0.159 3.404-0.726 4.11-1.609 0.266-0.333 0.359-0.72 0.248-1.035-0.09-0.255-0.303-0.414-0.555-0.414-0.178 0-0.367 0.074-0.562 0.219-0.028 0.02-0.139 0.087-0.419 0.088z" fill="#88c0d0" fill-rule="evenodd"/>
</svg>
