<svg viewBox="0 0 24 24" xmlns="http://www.w3.org/2000/svg">
 <g transform="matrix(.5335 0 0 .5358 -.80247 -.85804)" fill="#2e3440">
  <path d="m23.672 10c-7.582 0-13.84 6.141-14.613 14.07-4e-3 0.02 0 0.047 0 0.07v0.023c-4e-3 0.027 0 0.047 0 0.07-0.086 1.141-0.066 2.082 0 3.145 2.961 12.898 11.824 11.895 11.824 8.141l-4.01-6.922c-0.863-0.59-1.762 0.418-2.594 0.961 0 0-0.338 0.745-0.955-0.865-0.719-1.898-0.816-4.913 0.27-7.441 2.246-5.25 5.358-7.437 10.05-7.523h0.699c4.672 0.102 7.81 2.292 10.05 7.524 1.082 2.527 0.989 5.537 0.27 7.44-0.609 1.609-0.958 0.865-0.958 0.865-0.824-0.547-1.723-1.551-2.594-0.961l-4.01 6.922c0 3.75 8.867 4.758 11.828-8.141 0.063-1.063 0.086-2 0-3.145-4e-3 -0.023 4e-3 -0.043 0-0.07v-0.023c-4e-3 -0.023 4e-3 -0.047 0-0.07-0.777-7.938-6.992-14.07-14.574-14.07h-0.699"/>
 </g>
</svg>
