<svg width="24" height="24" version="1.1" xmlns="http://www.w3.org/2000/svg">
 <path d="m11.75 6v2h0.5v-2zm-3.8965 1.5-0.35352 0.35352 1.7676 1.7676 0.35352-0.35352zm8.1465 0-1.7676 1.7676 0.35352 0.35352 1.7676-1.7676zm-5.5 1.9062a3 3 0 0 0-1.5 2.5938 3 3 0 0 0 1.5 2.5938v-0.59375a1.0001 1.0001 0 0 1 0.13477-0.5 1.0001 1.0001 0 0 1-0.0019-0.0019 2.0292 2.0292 0 0 1-0.65039-1.4863 2.0292 2.0292 0 0 1 0.51758-1.3496v-1.256zm3 0v1.2285a2.0292 2.0292 0 0 1 0.54102 1.377 2.0292 2.0292 0 0 1-0.66797 1.502 1.0001 1.0001 0 0 1 0.12695 0.48633v0.59375a3 3 0 0 0 1.5-2.5938 3 3 0 0 0-1.5-2.5938zm-7.5 2.3438v0.5h2.5v-0.5zm9.5 0v0.5h2.5v-0.5zm-6.2324 2.6289-1.7676 1.7676 0.35352 0.35352 1.7676-1.7676zm5.4648 0-0.35352 0.35352 1.7676 1.7676 0.35352-0.35352zm-2.9824 1.6211v2h0.5v-2z" fill="#fff" style="paint-order:fill markers stroke"/>
 <path d="m11.5 9v4h1v-4zm0 5v1h1v-1z" color="#5294e2" fill="#bf616a"/>
</svg>
