<svg viewBox="0 0 24 24" xmlns="http://www.w3.org/2000/svg">
 <rect x="9" y="5" width="6" height="13" fill="#2e3440" opacity=".4"/>
 <path d="m7.75 1c-0.957 0-1.75 0.773-1.75 1.73v18.52c0 0.953 0.793 1.75 1.75 1.75h8.5c0.957 0 1.75-0.797 1.75-1.75v-18.52c0-0.957-0.793-1.73-1.75-1.73h-8.5zm3.25 0.668h2c0.184 0 0.332 0.148 0.332 0.332s-0.148 0.332-0.332 0.332h-2c-0.184 0-0.332-0.148-0.332-0.332s0.148-0.332 0.332-0.332m-4 1.332h10v17h-10v-17m5 17.775a0.75 0.75 0 0 1 0.75 0.75 0.75 0.75 0 0 1-0.75 0.75 0.75 0.75 0 0 1-0.75-0.75 0.75 0.75 0 0 1 0.75-0.75z" fill="#2e3440"/>
 <rect x="9" y="8.9" width="6" height="9.1" fill="#2e3440"/>
</svg>
