<svg viewBox="0 0 24 24" xmlns="http://www.w3.org/2000/svg">
 <path d="m11 4c-1.211 0-2.311 0.35-3.133 0.955s-1.369 1.49-1.369 2.492v9.06c0 1 0.545 1.896 1.365 2.512s1.923 0.98 3.137 0.98h1.996c1.214 0 2.316-0.364 3.137-0.98 0.82-0.616 1.365-1.509 1.365-2.512v-9.06c0-1-0.548-1.888-1.369-2.492-0.822-0.605-1.922-0.955-3.133-0.955m-1.258 1.762h0.52c0.376 0 0.656 0.259 0.656 0.607v3.322c0 0.349-0.302 0.65-0.656 0.65h-0.52c-0.354 0-0.656-0.301-0.656-0.65v-3.322c0-0.349 0.28-0.607 0.656-0.607z" color-rendering="auto" fill="#bf616a" image-rendering="auto" shape-rendering="auto" solid-color="#000000" isolation="auto" mix-blend-mode="normal" white-space="normal"/>
</svg>
