<svg width="24" height="24" viewBox="0 0 6.7733 6.7733" xmlns="http://www.w3.org/2000/svg">
 <path d="m2.409 1.411a0.282 0.282 0 0 0-0.244 0.141l-0.979 1.693a0.282 0.282 0 0 0 0 0.283l0.978 1.693a0.282 0.282 0 0 0 0.244 0.141h1.955a0.282 0.282 0 0 0 0.244-0.141l0.98-1.693a0.282 0.282 0 0 0 0-0.283l-0.979-1.693a0.282 0.282 0 0 0-0.244-0.141h-1.955zm0.162 0.564h1.63l0.109 0.189-0.924 0.923-0.923-0.923 0.108-0.188m-0.328 0.567 0.844 0.844-0.843 0.843-0.488-0.844 0.487-0.843m2.286 1e-3 0.481 0.844-0.481 0.842-0.843-0.843 0.843-0.843m-1.142 1.142 0.924 0.924-0.109 0.188h-1.63l-0.109-0.188 0.924-0.924z" color-rendering="auto" fill="#88c0d0" image-rendering="auto" shape-rendering="auto" solid-color="#000000" isolation="auto" mix-blend-mode="normal" white-space="normal"/>
</svg>
