<svg viewBox="0 0 24 24" xmlns="http://www.w3.org/2000/svg">
 <g transform="translate(0 -1028.9)" fill="#2e3440">
  <path d="m10 1045.9-2 2c-1 1-1 1 0 1h8c1 0 1 0 0-1l-2-2v-1h-4z"/>
  <path d="m6 1032.9c-1.108 0-2 0.892-2 2v9c0 1.108 0.892 2 2 2h12c1.108 0 2-0.892 2-2v-9c0-1.108-0.892-2-2-2h-12zm0 2h12v9h-12v-9z"/>
  <g transform="translate(-.28626)">
   <path d="m7.316 1041.4h1.453v-4.123l-1.491 0.308v-1.119l1.483-0.308h1.564v5.242h1.453v1.136h-4.46v-1.136z"/>
   <path d="m15.65 1039.4q0-1.196-0.226-1.683-0.222-0.491-0.752-0.491t-0.756 0.491q-0.226 0.487-0.226 1.683 0 1.209 0.226 1.705t0.756 0.496q0.526 0 0.752-0.496t0.226-1.705zm1.645 0.013q0 1.585-0.684 2.448-0.684 0.859-1.94 0.859-1.26 0-1.944-0.859-0.684-0.863-0.684-2.448 0-1.589 0.684-2.448 0.684-0.863 1.944-0.863 1.256 0 1.94 0.863 0.684 0.859 0.684 2.448z"/>
  </g>
 </g>
</svg>
