<svg viewBox="0 0 24 24" xmlns="http://www.w3.org/2000/svg">
 <path d="m4 2c-1.108 0-2 0.892-2 2v16c0 1.108 0.892 2 2 2h16c1.108 0 2-0.892 2-2v-16c0-1.108-0.892-2-2-2h-16zm10.713 4.551v7.486c0 0.183 0.012 0.338 0.037 0.463 0.033 0.125 0.087 0.233 0.162 0.324 0.075 0.083 0.176 0.151 0.301 0.201 0.133 0.042 0.3 0.075 0.5 0.1l-0.213 1.25c-0.45-8e-3 -0.825-0.059-1.125-0.15-0.292-0.092-0.524-0.22-0.699-0.387-0.175-0.175-0.3-0.389-0.375-0.639-0.067-0.258-0.102-0.55-0.102-0.875v-7.523l1.514-0.25zm-6.752 0.949c1.258 0 2.222 0.229 2.889 0.688 0.675 0.458 1.012 1.175 1.012 2.15 0 0.508-0.092 0.946-0.275 1.313-0.175 0.358-0.432 0.653-0.773 0.887-0.342 0.225-0.758 0.392-1.25 0.5s-1.054 0.162-1.688 0.162h-0.789v3.051h-1.574v-8.537c0.367-0.083 0.771-0.137 1.213-0.162 0.45-0.033 0.861-0.051 1.236-0.051zm0.113 1.363c-0.4 0-0.73 0.012-0.988 0.037v2.949h0.764c0.758 0 1.342-0.104 1.75-0.313 0.408-0.217 0.611-0.621 0.611-1.213 0-0.283-0.054-0.519-0.162-0.711s-0.258-0.343-0.449-0.451c-0.192-0.108-0.421-0.183-0.688-0.225-0.258-0.05-0.538-0.074-0.838-0.074zm8.23 5.555h2.895v0.576c-0.137 0.154-0.289 0.364-0.451 0.631-0.163 0.267-0.317 0.569-0.463 0.906-0.146 0.333-0.273 0.691-0.381 1.074-0.104 0.383-0.168 0.765-0.193 1.145h-0.775c0.025-0.317 0.082-0.65 0.17-1 0.087-0.35 0.193-0.69 0.318-1.02 0.129-0.333 0.268-0.642 0.418-0.93 0.154-0.292 0.307-0.537 0.457-0.732h-1.994v-0.65z" fill="#2e3440"/>
</svg>
