<svg viewBox="0 0 24 24" xmlns="http://www.w3.org/2000/svg">
 <path d="m4 2c-1.108 0-2 0.892-2 2v16c0 1.108 0.892 2 2 2h16c1.108 0 2-0.892 2-2v-16c0-1.108-0.892-2-2-2h-16zm9.65 4.551v5.711c0.192-0.2 0.397-0.412 0.613-0.637 0.217-0.233 0.428-0.463 0.637-0.688 0.208-0.233 0.405-0.454 0.588-0.662 0.192-0.217 0.355-0.404 0.488-0.563h1.787c-0.417 0.467-0.858 0.949-1.324 1.449-0.458 0.5-0.922 0.988-1.389 1.463 0.25 0.208 0.512 0.462 0.787 0.762 0.275 0.292 0.542 0.604 0.801 0.938 0.258 0.333 0.5 0.667 0.725 1s0.413 0.642 0.563 0.926h-1.75c-0.15-0.258-0.325-0.529-0.525-0.813-0.192-0.283-0.4-0.558-0.625-0.824-0.225-0.267-0.454-0.517-0.688-0.75-0.233-0.242-0.463-0.447-0.688-0.613v3h-1.512v-9.449l1.512-0.25zm-10.289 1.037h1.588v5.262c0 0.392 0.042 0.73 0.125 1.014 0.092 0.275 0.217 0.499 0.375 0.674 0.167 0.175 0.36 0.305 0.576 0.389 0.225 0.083 0.475 0.125 0.75 0.125s0.525-0.042 0.75-0.125 0.416-0.214 0.574-0.389c0.167-0.175 0.292-0.399 0.375-0.674 0.092-0.283 0.137-0.622 0.137-1.014v-5.262h1.588v5.412c0 0.5-0.071 0.958-0.213 1.375-0.133 0.417-0.342 0.78-0.625 1.088-0.275 0.308-0.629 0.55-1.063 0.725-0.433 0.167-0.945 0.25-1.537 0.25s-1.1-0.083-1.525-0.25c-0.425-0.175-0.779-0.416-1.063-0.725-0.275-0.308-0.478-0.671-0.611-1.088s-0.201-0.875-0.201-1.375v-5.412zm15.494 6.83h2.211v0.639h-1.568c-4e-3 0.071-9e-3 0.152-0.018 0.244-4e-3 0.088-0.011 0.176-0.02 0.268-4e-3 0.092-0.011 0.18-0.02 0.264-8e-3 0.083-0.015 0.153-0.023 0.211 0.617 0.033 1.07 0.176 1.361 0.426 0.296 0.246 0.443 0.583 0.443 1.012 0 0.196-0.033 0.378-0.1 0.545s-0.169 0.311-0.307 0.432c-0.137 0.121-0.309 0.216-0.518 0.287-0.208 0.067-0.453 0.1-0.732 0.1-0.113 0-0.227-9e-3 -0.344-0.025-0.117-0.017-0.228-0.038-0.336-0.063-0.104-0.021-0.198-0.043-0.281-0.068s-0.146-0.048-0.188-0.068l0.143-0.639c0.087 0.042 0.212 0.089 0.375 0.139 0.167 0.046 0.37 0.068 0.607 0.068 0.163 0 0.301-0.017 0.418-0.051 0.117-0.038 0.21-0.086 0.281-0.148 0.075-0.063 0.129-0.134 0.162-0.213 0.033-0.083 0.051-0.172 0.051-0.264 0-0.137-0.028-0.259-0.082-0.367s-0.15-0.2-0.287-0.275c-0.133-0.075-0.314-0.132-0.543-0.17-0.225-0.038-0.512-0.055-0.857-0.055 0.046-0.4 0.082-0.78 0.107-1.139 0.025-0.363 0.046-0.725 0.063-1.088z" fill="#2e3440"/>
</svg>
