<svg viewBox="0 0 24 24" xmlns="http://www.w3.org/2000/svg">
 <path d="m4 2c-1.108 0-2 0.892-2 2v16c0 1.108 0.892 2 2 2h16c1.108 0 2-0.892 2-2v-16c0-1.108-0.892-2-2-2h-16zm-0.393 5.588h1.574v3.574c0.275-0.275 0.563-0.567 0.863-0.875 0.3-0.317 0.595-0.633 0.887-0.949 0.3-0.325 0.585-0.637 0.852-0.938 0.267-0.3 0.508-0.571 0.725-0.813h1.887c-0.275 0.317-0.567 0.645-0.875 0.986-0.308 0.342-0.624 0.689-0.949 1.039-0.325 0.342-0.655 0.682-0.988 1.023-0.325 0.342-0.646 0.668-0.963 0.977 0.35 0.267 0.704 0.579 1.063 0.938 0.367 0.35 0.726 0.728 1.076 1.137 0.35 0.4 0.683 0.82 1 1.262 0.325 0.433 0.62 0.867 0.887 1.301h-1.861c-0.217-0.333-0.467-0.684-0.75-1.051s-0.584-0.721-0.9-1.063c-0.308-0.342-0.63-0.666-0.963-0.975-0.333-0.308-0.663-0.574-0.988-0.799v3.887h-1.574v-8.662zm10.537 1.963c0.458 0 0.878 0.083 1.262 0.25 0.392 0.158 0.725 0.387 1 0.687s0.489 0.661 0.639 1.086c0.158 0.417 0.236 0.884 0.236 1.4 0 0.517-0.075 0.987-0.225 1.412s-0.362 0.788-0.637 1.088-0.608 0.535-1 0.701c-0.383 0.167-0.809 0.25-1.275 0.25-0.467 0-0.892-0.083-1.275-0.25s-0.711-0.401-0.986-0.701-0.492-0.663-0.65-1.088c-0.15-0.425-0.225-0.895-0.225-1.412s0.075-0.984 0.225-1.4c0.158-0.425 0.375-0.786 0.65-1.086 0.283-0.3 0.617-0.529 1-0.687 0.383-0.167 0.803-0.25 1.262-0.25zm0 1.312c-0.5 0-0.892 0.191-1.176 0.574-0.275 0.375-0.412 0.887-0.412 1.537 0 0.658 0.137 1.179 0.412 1.563 0.283 0.383 0.676 0.576 1.176 0.576s0.887-0.193 1.162-0.576c0.283-0.383 0.426-0.904 0.426-1.563 0-0.65-0.142-1.162-0.426-1.537-0.275-0.383-0.662-0.574-1.162-0.574zm5.67 3.555h0.531v4.332h-0.756v-3.318c-0.113 0.088-0.253 0.173-0.424 0.256s-0.336 0.153-0.494 0.207l-0.232-0.576c0.242-0.096 0.485-0.219 0.727-0.369 0.246-0.15 0.461-0.327 0.648-0.531z" fill="#2e3440"/>
</svg>
