<svg viewBox="0 0 24 24" xmlns="http://www.w3.org/2000/svg">
 <path d="m4 2c-1.108 0-2 0.892-2 2v16c0 1.108 0.892 2 2 2h16c1.108 0 2-0.892 2-2v-16c0-1.108-0.892-2-2-2h-16zm11.428 4.801v5.711c0.192-0.2 0.395-0.412 0.611-0.637 0.217-0.233 0.43-0.463 0.639-0.688 0.208-0.233 0.405-0.454 0.588-0.662 0.192-0.217 0.353-0.404 0.486-0.563h1.787c-0.417 0.467-0.858 0.949-1.324 1.449-0.458 0.5-0.92 0.988-1.387 1.463 0.25 0.208 0.512 0.462 0.787 0.762 0.275 0.292 0.54 0.604 0.799 0.938 0.258 0.333 0.502 0.667 0.727 1s0.413 0.642 0.563 0.926h-1.75c-0.15-0.258-0.325-0.529-0.525-0.813-0.192-0.283-0.4-0.558-0.625-0.824-0.225-0.267-0.454-0.517-0.688-0.75-0.233-0.242-0.463-0.447-0.688-0.613v3h-1.514v-9.449l1.514-0.25zm-10.289 1.037h1.588v5.262c0 0.392 0.042 0.73 0.125 1.014 0.092 0.275 0.217 0.499 0.375 0.674 0.167 0.175 0.358 0.305 0.574 0.389 0.225 0.083 0.475 0.125 0.75 0.125s0.525-0.042 0.75-0.125 0.416-0.214 0.574-0.389c0.167-0.175 0.292-0.399 0.375-0.674 0.092-0.283 0.139-0.622 0.139-1.014v-5.262h1.588v5.412c0 0.5-0.071 0.958-0.213 1.375-0.133 0.417-0.342 0.78-0.625 1.088-0.275 0.308-0.629 0.55-1.063 0.725-0.433 0.167-0.945 0.25-1.537 0.25s-1.1-0.083-1.525-0.25c-0.425-0.175-0.779-0.416-1.063-0.725-0.275-0.308-0.48-0.671-0.613-1.088s-0.199-0.875-0.199-1.375v-5.412z" fill="#2e3440"/>
</svg>
