<svg viewBox="0 0 24 24" xmlns="http://www.w3.org/2000/svg">
 <path d="m4 2c-1.108 0-2 0.892-2 2v16c0 1.108 0.892 2 2 2h16c1.108 0 2-0.892 2-2v-16c0-1.108-0.892-2-2-2h-16zm-0.344 5.588h1.574v3.574c0.275-0.275 0.563-0.567 0.863-0.875 0.3-0.317 0.595-0.633 0.887-0.949 0.3-0.325 0.585-0.637 0.852-0.938 0.267-0.3 0.508-0.571 0.725-0.813h1.887c-0.275 0.317-0.567 0.645-0.875 0.986-0.308 0.342-0.624 0.689-0.949 1.039-0.325 0.342-0.655 0.682-0.988 1.023-0.325 0.342-0.646 0.668-0.963 0.977 0.35 0.267 0.704 0.579 1.063 0.938 0.367 0.35 0.726 0.728 1.076 1.137 0.35 0.4 0.683 0.82 1 1.262 0.325 0.433 0.62 0.867 0.887 1.301h-1.861c-0.217-0.333-0.467-0.684-0.75-1.051s-0.584-0.721-0.9-1.063c-0.308-0.342-0.63-0.666-0.963-0.975-0.333-0.308-0.663-0.574-0.988-0.799v3.887h-1.574v-8.662zm7.76 2.125h1.514v3.424c0 0.7 0.099 1.2 0.299 1.5 0.208 0.3 0.568 0.451 1.076 0.451 0.183 0 0.374-9e-3 0.574-0.025 0.208-0.017 0.363-0.038 0.463-0.063v-5.287h1.512v6.338c-0.292 0.075-0.67 0.15-1.137 0.225-0.467 0.083-0.979 0.125-1.537 0.125-0.525 0-0.968-0.075-1.326-0.225-0.35-0.15-0.633-0.358-0.85-0.625-0.208-0.267-0.358-0.585-0.449-0.951-0.092-0.375-0.139-0.783-0.139-1.225v-3.662zm8.1 4.605c0.508 0 0.892 0.165 1.15 0.494 0.262 0.325 0.395 0.785 0.395 1.381 0 0.842-0.217 1.479-0.65 1.912s-1.098 0.652-1.994 0.656l-0.031-0.631c0.25 0 0.476-0.021 0.676-0.063 0.204-0.042 0.381-0.108 0.531-0.199 0.154-0.092 0.283-0.212 0.387-0.357 0.104-0.15 0.184-0.332 0.238-0.549-0.1 0.046-0.211 0.08-0.332 0.105s-0.237 0.037-0.35 0.037c-0.258 0-0.479-0.033-0.662-0.1-0.179-0.071-0.327-0.166-0.443-0.287-0.113-0.125-0.196-0.269-0.25-0.432s-0.082-0.338-0.082-0.525c0-0.162 0.028-0.326 0.082-0.492 0.054-0.171 0.139-0.327 0.256-0.469s0.264-0.256 0.443-0.344c0.179-0.092 0.391-0.139 0.637-0.139zm0.02 0.625c-0.121 0-0.225 0.026-0.313 0.076-0.083 0.05-0.153 0.114-0.207 0.193s-0.092 0.164-0.117 0.256-0.039 0.182-0.039 0.27c0 0.254 0.061 0.445 0.182 0.574 0.125 0.129 0.32 0.193 0.582 0.193 0.121 0 0.239-0.01 0.355-0.031 0.117-0.025 0.217-0.06 0.301-0.105 4e-3 -0.046 6e-3 -0.086 6e-3 -0.119v-0.088c0-0.167-0.012-0.323-0.037-0.469-0.021-0.15-0.061-0.278-0.119-0.387-0.054-0.113-0.13-0.201-0.23-0.264-0.096-0.067-0.217-0.1-0.363-0.1z" fill="#2e3440"/>
</svg>
