<svg viewBox="0 0 24 24" xmlns="http://www.w3.org/2000/svg">
 <path d="m4 2c-1.108 0-2 0.892-2 2v16c0 1.108 0.892 2 2 2h16c1.108 0 2-0.892 2-2v-16c0-1.108-0.892-2-2-2h-16zm3.748 5.75c0.525 0 1.013 0.042 1.463 0.125 0.45 0.075 0.837 0.203 1.162 0.387 0.333 0.183 0.592 0.427 0.775 0.727s0.275 0.67 0.275 1.111c0 0.408-0.101 0.759-0.301 1.051-0.192 0.292-0.463 0.524-0.813 0.699 0.525 0.175 0.914 0.434 1.164 0.775 0.25 0.342 0.375 0.776 0.375 1.301 0 0.892-0.327 1.562-0.977 2.01-0.65 0.442-1.645 0.662-2.986 0.662-0.458 0-0.922-0.015-1.389-0.049-0.467-0.025-0.875-0.084-1.225-0.176v-8.412c0.183-0.033 0.38-0.063 0.588-0.088 0.208-0.033 0.42-0.058 0.637-0.074 0.217-0.017 0.43-0.031 0.639-0.039 0.217-8e-3 0.42-0.012 0.611-0.012zm0.201 1.287c-0.242 0-0.459 5e-3 -0.65 0.014-0.183 8e-3 -0.341 0.02-0.475 0.037v2.275h1.111c0.6 0 1.072-0.083 1.414-0.25 0.342-0.175 0.512-0.484 0.512-0.926 0-0.417-0.179-0.712-0.537-0.887-0.35-0.175-0.808-0.264-1.375-0.264zm8.328 0.787c0.492 0 0.959 0.038 1.4 0.113 0.442 0.075 0.817 0.155 1.125 0.238v5.662c0 1.042-0.267 1.804-0.801 2.287-0.525 0.483-1.334 0.725-2.426 0.725-0.4 0-0.79-0.033-1.174-0.1-0.375-0.067-0.717-0.153-1.025-0.262l0.275-1.289c0.258 0.108 0.55 0.197 0.875 0.264 0.333 0.067 0.691 0.1 1.074 0.1 0.608 0 1.042-0.125 1.301-0.375 0.258-0.25 0.387-0.622 0.387-1.113v-0.25c-0.15 0.075-0.35 0.152-0.6 0.227-0.242 0.075-0.521 0.111-0.838 0.111-0.417 0-0.8-0.066-1.15-0.199-0.342-0.133-0.637-0.33-0.887-0.588-0.242-0.258-0.433-0.58-0.574-0.963-0.133-0.392-0.201-0.841-0.201-1.35 0-0.475 0.071-0.912 0.213-1.313 0.15-0.4 0.362-0.742 0.637-1.025 0.283-0.283 0.625-0.504 1.025-0.662s0.855-0.238 1.363-0.238zm0.012 1.264c-0.55 0-0.97 0.182-1.262 0.549-0.292 0.358-0.438 0.834-0.438 1.426 0 0.642 0.137 1.112 0.412 1.412 0.283 0.292 0.646 0.438 1.088 0.438 0.242 0 0.465-0.033 0.674-0.1 0.217-0.067 0.392-0.147 0.525-0.238v-3.387c-0.108-0.025-0.242-0.046-0.4-0.063-0.158-0.025-0.358-0.037-0.6-0.037zm-9.465 1.512v2.639c0.175 0.017 0.362 0.029 0.563 0.037 0.2 8e-3 0.382 0.012 0.549 0.012 0.325 0 0.625-0.021 0.9-0.063 0.283-0.042 0.525-0.113 0.725-0.213 0.208-0.108 0.372-0.249 0.488-0.424 0.125-0.175 0.188-0.401 0.188-0.676 0-0.492-0.179-0.834-0.537-1.025-0.358-0.192-0.855-0.287-1.488-0.287h-1.387z" fill="#2e3440"/>
</svg>
