<svg viewBox="0 0 24 24" xmlns="http://www.w3.org/2000/svg">
 <path d="m4 2c-1.108 0-2 0.892-2 2v16c0 1.108 0.892 2 2 2h16c1.108 0 2-0.892 2-2v-16c0-1.108-0.892-2-2-2h-16zm12.564 4.801c0.35 0 0.659 0.033 0.926 0.1 0.267 0.058 0.466 0.112 0.6 0.162l-0.287 1.25c-0.142-0.067-0.308-0.12-0.5-0.162-0.183-0.042-0.383-0.063-0.6-0.063-0.242 0-0.447 0.036-0.613 0.111-0.167 0.067-0.3 0.164-0.4 0.289s-0.171 0.278-0.213 0.461c-0.042 0.175-0.063 0.368-0.063 0.576v0.438h2.375v1.262h-2.375v5.275h-1.512v-7c0-0.842 0.22-1.5 0.662-1.975 0.442-0.483 1.108-0.725 2-0.725zm-9.473 1.037h5.477v1.338h-3.9v2.211h3.463v1.338h-3.463v3.775h-1.576v-8.662z" fill="#2e3440"/>
</svg>
