<svg width="24" height="24" viewBox="0 0 24 24" xmlns="http://www.w3.org/2000/svg">
 <path d="m3.707031 0.707031c-0.796875 0-1.558593 0.316407-2.121093 0.878907-1.171876 1.171874-1.171876 3.070312 0 4.242187l6.171874 6.171875-6.171874 6.171875c-1.171876 1.171875-1.171876 3.070313 0 4.242187 1.171874 1.171876 3.070312 1.171876 4.242187 0l6.171875-6.171874 6.171875 6.171874c1.171875 1.171876 3.070313 1.171876 4.242187 0 1.171876-1.171874 1.171876-3.070312 0-4.242187l-6.171874-6.171875 6.175781-6.171875c1.171875-1.171875 1.171875-3.070313 0-4.242187-0.5625-0.5625-1.328125-0.878907-2.125-0.878907-0.792969 0-1.558594 0.316407-2.121094 0.878907l-6.171875 6.171874-6.171875-6.171874c-0.5625-0.5625-1.328125-0.878907-2.121094-0.878907zm0 1.875c0.296875 0 0.582031 0.117188 0.792969 0.328125l7.5 7.5 7.5-7.5c0.210938-0.210937 0.496094-0.328125 0.792969-0.328125 0.300781 0 0.585937 0.117188 0.796875 0.328125 0.441406 0.4375 0.441406 1.152344 0 1.589844l-7.5 7.5 7.5 7.5c0.441406 0.4375 0.441406 1.152344 0 1.589844-0.4375 0.441406-1.152344 0.441406-1.589844 0l-7.5-7.5-7.5 7.5c-0.4375 0.441406-1.152344 0.441406-1.589844 0-0.441406-0.4375-0.441406-1.152344 0-1.589844l7.5-7.5-7.5-7.5c-0.441406-0.4375-0.441406-1.152344 0-1.589844 0.210938-0.210937 0.496094-0.328125 0.796875-0.328125z" fill="rgb(18.039216%, 20.392157%, 25.098041%)"/>
</svg>
