<svg viewBox="0 0 24 24" xmlns="http://www.w3.org/2000/svg">
 <path d="m4 2c-1.108 0-2 0.892-2 2v16c0 1.108 0.892 2 2 2h16c1.108 0 2-0.892 2-2v-16c0-1.108-0.892-2-2-2h-16zm2.689 5.838h1.576v7.299h3.898v1.363h-5.475v-8.662zm5.254 2.125h1.611c0.092 0.367 0.196 0.763 0.313 1.188 0.125 0.417 0.255 0.837 0.389 1.262 0.142 0.417 0.282 0.825 0.424 1.225 0.15 0.392 0.289 0.746 0.414 1.063 0.125-0.317 0.257-0.671 0.398-1.063 0.142-0.4 0.281-0.808 0.414-1.225 0.142-0.425 0.273-0.845 0.398-1.262 0.125-0.425 0.235-0.821 0.326-1.188h1.563c-0.358 1.275-0.76 2.471-1.201 3.588-0.433 1.108-0.857 2.091-1.273 2.949h-1.301c-0.417-0.858-0.845-1.841-1.287-2.949-0.433-1.117-0.829-2.313-1.188-3.588z" fill="#2e3440"/>
</svg>
