<svg viewBox="0 0 24 24" xmlns="http://www.w3.org/2000/svg">
 <path d="m4 2c-1.108 0-2 0.892-2 2v16c0 1.108 0.892 2 2 2h16c1.108 0 2-0.892 2-2v-16c0-1.108-0.892-2-2-2h-16zm4.594 5.838h1.576v8.662h-1.576v-8.662zm5.03 0.15v1.975h2.324v1.262h-2.324v2.662c0 0.525 0.083 0.9 0.25 1.125s0.45 0.338 0.85 0.338c0.275 0 0.516-0.03 0.725-0.088 0.217-0.058 0.389-0.112 0.514-0.162l0.25 1.201c-0.175 0.075-0.404 0.15-0.688 0.225-0.283 0.083-0.617 0.125-1 0.125-0.467 0-0.859-0.063-1.176-0.188-0.308-0.125-0.555-0.304-0.738-0.537-0.183-0.242-0.312-0.53-0.387-0.863-0.075-0.342-0.113-0.729-0.113-1.162v-5.662l1.514-0.25z" fill="#2e3440"/>
</svg>
