<svg viewBox="0 0 24 24" xmlns="http://www.w3.org/2000/svg">
 <path d="m4 2c-1.108 0-2 0.892-2 2v16c0 1.108 0.892 2 2 2h16c1.108 0 2-0.892 2-2v-16c0-1.108-0.892-2-2-2h-16zm1.994 5.5c1.25 0 2.205 0.229 2.863 0.688 0.667 0.458 1 1.158 1 2.1 0 1.175-0.58 1.972-1.738 2.389 0.158 0.192 0.339 0.424 0.539 0.699s0.403 0.575 0.611 0.9c0.208 0.317 0.408 0.645 0.6 0.986 0.192 0.333 0.364 0.663 0.514 0.988h-1.764c-0.158-0.3-0.328-0.6-0.512-0.9-0.183-0.308-0.371-0.603-0.563-0.887-0.183-0.292-0.367-0.563-0.551-0.813-0.183-0.258-0.353-0.488-0.512-0.688-0.117 8e-3 -0.217 0.012-0.301 0.012h-1v3.275h-1.574v-8.537c0.383-0.083 0.791-0.137 1.225-0.162 0.433-0.033 0.82-0.051 1.162-0.051zm0.113 1.363c-0.333 0-0.642 0.012-0.926 0.037v2.799h0.688c0.383 0 0.722-0.021 1.014-0.063s0.533-0.116 0.725-0.225c0.2-0.108 0.349-0.254 0.449-0.438 0.1-0.183 0.15-0.416 0.15-0.699 0-0.267-0.05-0.492-0.15-0.676-0.1-0.183-0.246-0.329-0.438-0.438-0.183-0.108-0.404-0.183-0.662-0.225-0.258-0.05-0.541-0.074-0.85-0.074zm5.357 0.85h1.514v3.424c0 0.7 0.099 1.2 0.299 1.5 0.208 0.3 0.568 0.451 1.076 0.451 0.183 0 0.374-9e-3 0.574-0.025 0.208-0.017 0.363-0.037 0.463-0.063v-5.287h1.512v6.338c-0.292 0.075-0.67 0.15-1.137 0.225-0.467 0.083-0.979 0.125-1.537 0.125-0.525 0-0.968-0.075-1.326-0.225-0.35-0.15-0.633-0.358-0.85-0.625-0.208-0.267-0.358-0.585-0.449-0.951-0.092-0.375-0.139-0.783-0.139-1.225v-3.662zm8.537 4.705h0.719v2.676h0.488v0.619h-0.488v1.037h-0.736v-1.037h-1.9v-0.537c0.083-0.183 0.195-0.395 0.332-0.633 0.142-0.238 0.298-0.48 0.469-0.73s0.351-0.497 0.543-0.738c0.192-0.242 0.383-0.46 0.574-0.656zm-0.018 0.932c-0.1 0.121-0.204 0.251-0.313 0.389-0.104 0.137-0.207 0.28-0.307 0.43s-0.195 0.305-0.287 0.463c-0.092 0.154-0.175 0.309-0.25 0.463h1.156v-1.744z" fill="#2e3440"/>
</svg>
