<svg viewBox="0 0 24 24" xmlns="http://www.w3.org/2000/svg">
 <path d="m4 2c-1.108 0-2 0.892-2 2v16c0 1.108 0.892 2 2 2h16c1.108 0 2-0.892 2-2v-16c0-1.108-0.892-2-2-2h-16zm0.768 5.588h5.475v1.338h-3.9v2.211h3.463v1.338h-3.463v3.775h-1.574v-8.662zm8.424 1.963c0.5 0 0.92 0.063 1.262 0.188s0.613 0.298 0.813 0.523c0.208 0.225 0.354 0.501 0.438 0.826 0.092 0.317 0.137 0.665 0.137 1.049v3.963c-0.233 0.05-0.588 0.109-1.063 0.176-0.467 0.075-0.994 0.111-1.586 0.111-0.392 0-0.751-0.036-1.076-0.111s-0.605-0.197-0.838-0.363c-0.225-0.167-0.404-0.384-0.537-0.65-0.125-0.267-0.188-0.595-0.188-0.986 0-0.375 0.071-0.693 0.213-0.951 0.15-0.258 0.35-0.467 0.6-0.625 0.25-0.167 0.538-0.283 0.863-0.35 0.333-0.075 0.679-0.111 1.037-0.111 0.167 0 0.342 0.012 0.525 0.037 0.183 0.017 0.38 0.05 0.588 0.1v-0.25c0-0.175-0.021-0.342-0.063-0.5s-0.118-0.295-0.227-0.412c-0.1-0.125-0.237-0.22-0.412-0.287-0.167-0.067-0.378-0.102-0.637-0.102-0.35 0-0.671 0.026-0.963 0.076s-0.53 0.107-0.713 0.174l-0.188-1.225c0.192-0.067 0.471-0.133 0.838-0.199 0.367-0.067 0.759-0.1 1.176-0.1zm0.299 3.773c-0.167 0-0.337 0.014-0.512 0.039-0.167 0.025-0.321 0.07-0.463 0.137-0.133 0.067-0.241 0.162-0.324 0.287-0.083 0.117-0.125 0.268-0.125 0.451 0 0.358 0.111 0.608 0.336 0.75 0.225 0.133 0.531 0.199 0.914 0.199 0.467 0 0.821-0.024 1.063-0.074v-1.676c-0.083-0.025-0.205-0.049-0.363-0.074s-0.334-0.039-0.525-0.039zm4.797 0.994c0.242 0 0.45 0.03 0.625 0.088s0.319 0.142 0.432 0.25c0.117 0.104 0.202 0.229 0.256 0.375 0.058 0.142 0.088 0.298 0.088 0.469 0 0.2-0.057 0.379-0.17 0.537-0.108 0.158-0.249 0.28-0.424 0.363 0.225 0.079 0.409 0.209 0.555 0.393 0.15 0.183 0.227 0.42 0.227 0.707 0 0.192-0.035 0.37-0.102 0.537-0.067 0.163-0.167 0.305-0.305 0.426-0.137 0.117-0.313 0.21-0.525 0.281-0.208 0.067-0.458 0.1-0.75 0.1-0.113 0-0.229-9e-3 -0.35-0.025-0.117-0.012-0.23-0.032-0.338-0.057-0.104-0.021-0.2-0.043-0.287-0.068-0.087-0.029-0.155-0.055-0.201-0.08l0.15-0.645c0.087 0.042 0.214 0.09 0.381 0.145 0.167 0.05 0.373 0.074 0.619 0.074 0.329 0 0.567-0.063 0.713-0.188 0.146-0.129 0.219-0.299 0.219-0.512 0-0.137-0.03-0.252-0.088-0.344-0.054-0.092-0.13-0.165-0.23-0.219-0.096-0.058-0.209-0.098-0.338-0.119-0.125-0.025-0.259-0.037-0.4-0.037h-0.256v-0.613h0.313c0.096 0 0.191-9e-3 0.287-0.025 0.1-0.021 0.19-0.054 0.27-0.1 0.079-0.05 0.143-0.114 0.193-0.193s0.074-0.182 0.074-0.307c0-0.1-0.019-0.185-0.057-0.256s-0.086-0.13-0.148-0.176c-0.058-0.046-0.128-0.079-0.207-0.1s-0.163-0.031-0.25-0.031c-0.188 0-0.354 0.03-0.5 0.088-0.146 0.054-0.274 0.117-0.387 0.188l-0.275-0.563c0.058-0.037 0.13-0.077 0.213-0.119s0.173-0.082 0.273-0.119c0.104-0.037 0.215-0.067 0.332-0.088 0.117-0.025 0.24-0.037 0.369-0.037z" fill="#2e3440"/>
</svg>
