<svg viewBox="0 0 24 24" xmlns="http://www.w3.org/2000/svg">
 <path d="m4 2c-1.108 0-2 0.892-2 2v16c0 1.108 0.892 2 2 2h16c1.108 0 2-0.892 2-2v-16c0-1.108-0.892-2-2-2h-16zm1.418 5.838h1.463c0.183 0.317 0.386 0.704 0.611 1.162s0.454 0.941 0.688 1.449c0.233 0.5 0.463 1.014 0.688 1.539 0.233 0.517 0.447 0.996 0.639 1.438 0.192-0.442 0.4-0.921 0.625-1.438 0.225-0.525 0.454-1.039 0.688-1.539 0.233-0.508 0.463-0.991 0.688-1.449s0.428-0.845 0.611-1.162h1.426c0.075 0.633 0.146 1.309 0.213 2.025 0.067 0.708 0.124 1.437 0.174 2.187 0.058 0.742 0.109 1.492 0.15 2.25 0.05 0.75 0.092 1.483 0.125 2.199h-1.549c-0.033-1.01-0.075-2.047-0.125-3.113-0.042-1.067-0.11-2.1-0.201-3.1-0.092 0.192-0.199 0.421-0.324 0.688s-0.259 0.558-0.4 0.875c-0.142 0.308-0.287 0.63-0.438 0.963-0.142 0.333-0.284 0.658-0.426 0.975-0.133 0.308-0.258 0.6-0.375 0.875-0.117 0.267-0.215 0.496-0.299 0.688h-1.176c-0.083-0.192-0.182-0.424-0.299-0.699s-0.247-0.567-0.389-0.875c-0.133-0.317-0.274-0.641-0.424-0.975-0.142-0.333-0.284-0.655-0.426-0.963s-0.275-0.597-0.4-0.863c-0.125-0.275-0.233-0.504-0.324-0.688-0.092 1-0.163 2.033-0.213 3.1-0.042 1.067-0.08 2.105-0.113 3.113h-1.549c0.033-0.717 0.07-1.458 0.111-2.225 0.05-0.767 0.1-1.525 0.15-2.275 0.058-0.758 0.121-1.491 0.188-2.199s0.138-1.363 0.213-1.963zm13.11 1.986c0.1 0 0.216 9e-3 0.35 0.025 0.133 8e-3 0.267 0.026 0.4 0.051 0.133 0.017 0.264 0.041 0.389 0.074 0.125 0.025 0.224 0.051 0.299 0.076l-0.262 1.273c-0.125-0.042-0.3-0.083-0.525-0.125-0.217-0.05-0.47-0.074-0.762-0.074-0.167 0-0.347 0.017-0.539 0.051-0.183 0.033-0.312 0.061-0.387 0.086v5.238h-1.512v-6.225c0.292-0.108 0.653-0.209 1.086-0.301 0.442-0.1 0.93-0.15 1.463-0.15z" fill="#2e3440"/>
</svg>
