<svg viewBox="0 0 24 24" xmlns="http://www.w3.org/2000/svg">
 <path d="m4 2c-1.108 0-2 0.892-2 2v16c0 1.108 0.892 2 2 2h16c1.108 0 2-0.892 2-2v-16c0-1.108-0.892-2-2-2h-16zm8.736 4.551v3.236c0.167-0.058 0.358-0.109 0.574-0.15 0.225-0.042 0.445-0.063 0.662-0.063 0.525 0 0.959 0.077 1.301 0.227 0.35 0.142 0.63 0.345 0.838 0.611 0.208 0.258 0.354 0.571 0.438 0.938 0.092 0.367 0.137 0.775 0.137 1.225v3.676h-1.512v-3.438c0-0.35-0.026-0.645-0.076-0.887-0.042-0.25-0.116-0.452-0.225-0.602-0.1-0.158-0.237-0.269-0.412-0.336-0.175-0.075-0.392-0.113-0.65-0.113-0.2 0-0.405 0.021-0.613 0.063s-0.361 0.08-0.461 0.113v5.199h-1.514v-9.449l1.514-0.25zm-9.236 1.037h6.199v1.162c-0.275 0.3-0.608 0.692-1 1.176-0.392 0.475-0.796 0.996-1.213 1.562-0.417 0.558-0.828 1.136-1.236 1.736-0.4 0.592-0.754 1.154-1.063 1.688h4.648v1.338h-6.549v-0.988c0.167-0.308 0.358-0.642 0.574-1 0.225-0.367 0.463-0.742 0.713-1.125s0.509-0.77 0.775-1.162c0.275-0.392 0.546-0.767 0.813-1.125 0.267-0.367 0.525-0.712 0.775-1.037 0.258-0.333 0.5-0.628 0.725-0.887h-4.162v-1.338zm16.16 6.83h0.719v2.676h0.488v0.619h-0.488v1.037h-0.736v-1.037h-1.9v-0.537c0.083-0.183 0.195-0.395 0.332-0.633 0.142-0.238 0.298-0.48 0.469-0.73s0.351-0.497 0.543-0.738c0.192-0.242 0.383-0.46 0.574-0.656zm-0.018 0.932c-0.1 0.121-0.204 0.251-0.313 0.389-0.104 0.137-0.207 0.28-0.307 0.43s-0.195 0.305-0.287 0.463c-0.092 0.154-0.175 0.309-0.25 0.463h1.156v-1.744z" fill="#2e3440"/>
</svg>
