<svg viewBox="0 0 24 24" xmlns="http://www.w3.org/2000/svg">
 <path d="m4 2c-1.108 0-2 0.892-2 2v16c0 1.108 0.892 2 2 2h16c1.108 0 2-0.892 2-2v-16c0-1.108-0.892-2-2-2h-16zm0.289 5.588h1.588v5.262c0 0.392 0.042 0.73 0.125 1.014 0.092 0.275 0.217 0.499 0.375 0.674 0.167 0.175 0.36 0.305 0.576 0.389 0.225 0.083 0.475 0.125 0.75 0.125s0.525-0.042 0.75-0.125 0.416-0.214 0.574-0.389c0.167-0.175 0.292-0.399 0.375-0.674 0.092-0.283 0.137-0.622 0.137-1.014v-5.262h1.588v5.412c0 0.5-0.071 0.958-0.213 1.375-0.133 0.417-0.342 0.78-0.625 1.088-0.275 0.308-0.629 0.55-1.063 0.725-0.433 0.167-0.945 0.25-1.537 0.25s-1.1-0.083-1.525-0.25c-0.425-0.175-0.779-0.416-1.063-0.725-0.275-0.308-0.478-0.671-0.611-1.088s-0.201-0.875-0.201-1.375v-5.412zm11.328 1.986c0.1 0 0.216 9e-3 0.35 0.025 0.133 8e-3 0.267 0.026 0.4 0.051 0.133 0.017 0.262 0.041 0.387 0.074 0.125 0.025 0.226 0.051 0.301 0.076l-0.264 1.273c-0.125-0.042-0.3-0.083-0.525-0.125-0.217-0.05-0.47-0.074-0.762-0.074-0.167 0-0.345 0.017-0.537 0.051-0.183 0.033-0.314 0.061-0.389 0.086v5.238h-1.512v-6.225c0.292-0.108 0.655-0.209 1.088-0.301 0.442-0.1 0.93-0.15 1.463-0.15zm3.453 4.844h0.531v4.332h-0.756v-3.318c-0.113 0.088-0.255 0.173-0.426 0.256s-0.334 0.153-0.492 0.207l-0.232-0.576c0.242-0.096 0.483-0.219 0.725-0.369 0.246-0.15 0.463-0.327 0.65-0.531z" fill="#2e3440"/>
</svg>
