<svg viewBox="0 0 24 24" xmlns="http://www.w3.org/2000/svg">
 <path d="m4 2c-1.108 0-2 0.892-2 2v16c0 1.108 0.892 2 2 2h16c1.108 0 2-0.892 2-2v-16c0-1.108-0.892-2-2-2h-16zm11.445 4.551v7.486c0 0.183 0.012 0.338 0.037 0.463 0.033 0.125 0.087 0.233 0.162 0.324 0.075 0.083 0.176 0.151 0.301 0.201 0.133 0.042 0.3 0.075 0.5 0.1l-0.213 1.25c-0.45-8e-3 -0.825-0.059-1.125-0.15-0.292-0.092-0.524-0.22-0.699-0.387-0.175-0.175-0.3-0.389-0.375-0.639-0.067-0.258-0.102-0.55-0.102-0.875v-7.523l1.514-0.25zm-10.666 1.037h1.287c0.333 0.35 0.693 0.767 1.076 1.25 0.383 0.475 0.765 0.97 1.148 1.486 0.392 0.517 0.767 1.037 1.125 1.563 0.367 0.517 0.693 1 0.977 1.451v-5.75h1.563v8.662h-1.338c-0.283-0.475-0.601-0.984-0.951-1.525-0.35-0.55-0.711-1.1-1.086-1.65-0.375-0.558-0.759-1.095-1.15-1.611-0.383-0.525-0.75-0.995-1.1-1.412v6.199h-1.551v-8.662zm13.582 6.73c0.462 0 0.803 0.111 1.02 0.332 0.221 0.217 0.332 0.513 0.332 0.893 0 0.15-0.031 0.299-0.094 0.445-0.063 0.142-0.144 0.28-0.244 0.418-0.096 0.133-0.207 0.265-0.332 0.395-0.125 0.125-0.25 0.246-0.375 0.367-0.067 0.063-0.141 0.139-0.225 0.227-0.083 0.087-0.163 0.174-0.238 0.262-0.075 0.087-0.139 0.173-0.193 0.256-0.054 0.079-0.084 0.147-0.088 0.201h1.926v0.637h-2.756c-4e-3 -0.033-6e-3 -0.073-6e-3 -0.119v-0.111c0-0.2 0.031-0.384 0.094-0.551 0.067-0.171 0.152-0.329 0.256-0.475s0.22-0.283 0.35-0.412c0.129-0.129 0.258-0.258 0.387-0.383 0.1-0.096 0.197-0.19 0.289-0.281 0.092-0.092 0.17-0.18 0.236-0.268 0.071-0.092 0.128-0.184 0.17-0.275 0.042-0.096 0.063-0.193 0.063-0.293 0-0.217-0.063-0.371-0.188-0.463s-0.278-0.139-0.457-0.139c-0.117 0-0.224 0.017-0.324 0.051-0.1 0.033-0.19 0.073-0.27 0.119-0.075 0.046-0.141 0.093-0.199 0.143-0.058 0.046-0.104 0.084-0.133 0.113l-0.375-0.531c0.175-0.167 0.38-0.3 0.613-0.4 0.238-0.104 0.491-0.156 0.762-0.156z" fill="#2e3440"/>
</svg>
