<svg viewBox="0 0 24 24" xmlns="http://www.w3.org/2000/svg">
 <path d="m8 3c-0.554 0-1 0.446-1 1v1h-0.25c-0.9695 0-1.75 0.7805-1.75 1.75v0.25h-1c-0.554 0-1 0.446-1 1s0.446 1 1 1h1v2h-1c-0.554 0-1 0.446-1 1s0.446 1 1 1h1v2h-1c-0.554 0-1 0.446-1 1s0.446 1 1 1h1v0.25c0 0.9695 0.7805 1.75 1.75 1.75h0.25v1c0 0.554 0.446 1 1 1s1-0.446 1-1v-1h2v1c0 0.554 0.446 1 1 1s1-0.446 1-1v-1h2v1c0 0.554 0.446 1 1 1s1-0.446 1-1v-1h0.25c0.9695 0 1.75-0.7805 1.75-1.75v-0.25h1c0.554 0 1-0.446 1-1s-0.446-1-1-1h-1v-2h1c0.554 0 1-0.446 1-1s-0.446-1-1-1h-1v-2h1c0.554 0 1-0.446 1-1s-0.446-1-1-1h-1v-0.25c0-0.9695-0.7805-1.75-1.75-1.75h-0.25v-1c0-0.554-0.446-1-1-1s-1 0.446-1 1v1h-2v-1c0-0.554-0.446-1-1-1s-1 0.446-1 1v1h-2v-1c0-0.554-0.446-1-1-1zm-0.15625 4h8.3125c0.46167 0 0.84375 0.38208 0.84375 0.84375v8.3125c0 0.46167-0.38208 0.84375-0.84375 0.84375h-8.3125c-0.46167 0-0.84375-0.38208-0.84375-0.84375v-8.3125c0-0.46167 0.38208-0.84375 0.84375-0.84375z" fill="#2e3440" fill-rule="evenodd"/>
 <path d="m8.6 12h6.8c0.3324 0 0.6 0.2676 0.6 0.6v2.8c0 0.3324-0.2676 0.6-0.6 0.6h-6.8c-0.3324 0-0.6-0.2676-0.6-0.6v-2.8c0-0.3324 0.2676-0.6 0.6-0.6z" fill="#2e3440" fill-rule="evenodd"/>
</svg>
