<svg viewBox="0 0 24 24" xmlns="http://www.w3.org/2000/svg">
 <path d="m4 2c-1.108 0-2 0.892-2 2v16c0 1.108 0.892 2 2 2h16c1.108 0 2-0.892 2-2v-16c0-1.108-0.892-2-2-2h-16zm2.574 5.588h1.574v8.662h-1.574v-8.662zm5.688 1.963c0.383 0 0.75 0.036 1.1 0.111 0.35 0.067 0.612 0.135 0.787 0.201l-0.275 1.225c-0.167-0.075-0.378-0.143-0.637-0.201-0.258-0.067-0.559-0.1-0.9-0.1-0.308 0-0.558 0.054-0.75 0.162-0.192 0.1-0.287 0.26-0.287 0.477 0 0.108 0.015 0.204 0.049 0.287 0.042 0.083 0.11 0.161 0.201 0.236 0.092 0.067 0.211 0.138 0.361 0.213 0.15 0.067 0.334 0.138 0.551 0.213 0.358 0.133 0.662 0.267 0.912 0.4 0.25 0.125 0.455 0.271 0.613 0.438 0.167 0.158 0.286 0.34 0.361 0.549 0.075 0.208 0.113 0.458 0.113 0.75 0 0.625-0.233 1.101-0.699 1.426-0.458 0.317-1.118 0.475-1.977 0.475-0.575 0-1.037-0.05-1.387-0.15-0.35-0.092-0.597-0.166-0.738-0.225l0.264-1.262c0.225 0.092 0.49 0.178 0.799 0.262 0.317 0.083 0.676 0.125 1.076 0.125s0.692-0.045 0.875-0.137c0.183-0.1 0.275-0.267 0.275-0.5 0-0.217-0.101-0.395-0.301-0.537-0.192-0.142-0.513-0.296-0.963-0.463-0.275-0.1-0.528-0.204-0.762-0.313-0.225-0.117-0.421-0.25-0.588-0.4s-0.3-0.329-0.4-0.537c-0.092-0.217-0.137-0.479-0.137-0.787 0-0.6 0.22-1.072 0.662-1.414 0.442-0.35 1.042-0.523 1.801-0.523zm4.219 4.768c0.242 0 0.45 0.03 0.625 0.088s0.319 0.142 0.432 0.25c0.117 0.104 0.202 0.229 0.256 0.375 0.058 0.142 0.088 0.298 0.088 0.469 0 0.2-0.057 0.379-0.17 0.537-0.108 0.158-0.249 0.28-0.424 0.363 0.225 0.079 0.409 0.209 0.555 0.393 0.15 0.183 0.227 0.42 0.227 0.707 0 0.192-0.035 0.37-0.102 0.537-0.067 0.163-0.167 0.305-0.305 0.426-0.137 0.117-0.313 0.21-0.525 0.281-0.208 0.067-0.458 0.1-0.75 0.1-0.113 0-0.229-9e-3 -0.35-0.025-0.117-0.012-0.23-0.032-0.338-0.057-0.104-0.021-0.2-0.043-0.287-0.068-0.088-0.029-0.155-0.055-0.201-0.08l0.15-0.645c0.088 0.042 0.214 0.09 0.381 0.145 0.167 0.05 0.373 0.074 0.619 0.074 0.329 0 0.567-0.063 0.713-0.188 0.146-0.129 0.219-0.299 0.219-0.512 0-0.137-0.03-0.252-0.088-0.344-0.054-0.092-0.13-0.165-0.23-0.219-0.096-0.058-0.209-0.098-0.338-0.119-0.125-0.025-0.259-0.037-0.4-0.037h-0.256v-0.613h0.312c0.096 0 0.191-9e-3 0.287-0.025 0.1-0.021 0.19-0.054 0.27-0.1 0.079-0.05 0.143-0.114 0.193-0.193s0.074-0.182 0.074-0.307c0-0.1-0.019-0.185-0.057-0.256s-0.086-0.13-0.148-0.176c-0.058-0.046-0.128-0.079-0.207-0.1s-0.163-0.031-0.25-0.031c-0.188 0-0.354 0.03-0.5 0.088-0.146 0.054-0.274 0.117-0.387 0.188l-0.275-0.563c0.058-0.037 0.13-0.077 0.213-0.119s0.173-0.082 0.273-0.119c0.104-0.037 0.215-0.067 0.332-0.088 0.117-0.025 0.24-0.037 0.369-0.037z" fill="#2e3440"/>
</svg>
