<svg viewBox="0 0 24 24" xmlns="http://www.w3.org/2000/svg">
 <path d="m4 2c-1.108 0-2 0.892-2 2v16c0 1.108 0.892 2 2 2h16c1.108 0 2-0.892 2-2v-16c0-1.108-0.892-2-2-2h-16zm1.768 5.588h1.576v8.662h-1.576v-8.662zm6.275 1.986c0.533 0 0.98 0.077 1.338 0.227 0.358 0.142 0.641 0.345 0.85 0.611 0.217 0.258 0.366 0.576 0.449 0.951 0.092 0.367 0.139 0.769 0.139 1.211v3.676h-1.514v-3.438c0-0.35-0.024-0.645-0.074-0.887-0.042-0.25-0.116-0.452-0.225-0.602-0.1-0.158-0.242-0.269-0.426-0.336-0.175-0.075-0.392-0.113-0.65-0.113-0.192 0-0.391 0.012-0.6 0.037-0.208 0.025-0.363 0.046-0.463 0.063v5.275h-1.512v-6.324c0.292-0.083 0.67-0.163 1.137-0.238s0.984-0.113 1.551-0.113zm5.799 4.844h0.719v2.676h0.488v0.619h-0.488v1.037h-0.736v-1.037h-1.9v-0.537c0.083-0.183 0.193-0.395 0.33-0.633 0.142-0.238 0.298-0.48 0.469-0.73s0.353-0.497 0.545-0.738c0.192-0.242 0.383-0.46 0.574-0.656zm-0.018 0.932c-0.1 0.121-0.204 0.251-0.313 0.389-0.104 0.137-0.207 0.28-0.307 0.43s-0.195 0.305-0.287 0.463c-0.092 0.154-0.175 0.309-0.25 0.463h1.156v-1.744z" fill="#2e3440"/>
</svg>
