<svg viewBox="0 0 24 24" xmlns="http://www.w3.org/2000/svg">
 <path d="m4 2c-1.108 0-2 0.892-2 2v16c0 1.108 0.892 2 2 2h16c1.108 0 2-0.892 2-2v-16c0-1.108-0.892-2-2-2h-16zm8.736 4.551v3.236c0.167-0.058 0.358-0.109 0.574-0.15 0.225-0.042 0.445-0.063 0.662-0.063 0.525 0 0.959 0.077 1.301 0.227 0.35 0.142 0.63 0.345 0.838 0.611 0.208 0.258 0.354 0.571 0.438 0.938 0.092 0.367 0.137 0.775 0.137 1.225v3.676h-1.512v-3.438c0-0.35-0.026-0.645-0.076-0.887-0.042-0.25-0.116-0.452-0.225-0.602-0.1-0.158-0.237-0.269-0.412-0.336-0.175-0.075-0.392-0.113-0.65-0.113-0.2 0-0.405 0.021-0.613 0.063s-0.361 0.08-0.461 0.113v5.199h-1.514v-9.449l1.514-0.25zm-9.236 1.037h6.199v1.162c-0.275 0.3-0.608 0.692-1 1.176-0.392 0.475-0.796 0.996-1.213 1.562-0.417 0.558-0.828 1.136-1.236 1.736-0.4 0.592-0.754 1.154-1.063 1.688h4.648v1.338h-6.549v-0.988c0.167-0.308 0.358-0.642 0.574-1 0.225-0.367 0.463-0.742 0.713-1.125s0.509-0.77 0.775-1.162c0.275-0.392 0.546-0.767 0.813-1.125 0.267-0.367 0.525-0.712 0.775-1.037 0.258-0.333 0.5-0.628 0.725-0.887h-4.162v-1.338zm15.605 6.73c0.242 0 0.45 0.03 0.625 0.088s0.317 0.142 0.43 0.25c0.117 0.104 0.204 0.229 0.258 0.375 0.058 0.142 0.086 0.298 0.086 0.469 0 0.2-0.055 0.379-0.168 0.537-0.108 0.158-0.251 0.28-0.426 0.363 0.225 0.079 0.411 0.209 0.557 0.393 0.15 0.183 0.225 0.42 0.225 0.707 0 0.192-0.033 0.37-0.1 0.537-0.067 0.163-0.169 0.305-0.307 0.426-0.137 0.117-0.311 0.21-0.523 0.281-0.208 0.067-0.458 0.1-0.75 0.1-0.113 0-0.231-9e-3 -0.352-0.025-0.117-0.012-0.228-0.032-0.336-0.057-0.104-0.021-0.202-0.043-0.289-0.068-0.087-0.029-0.153-0.055-0.199-0.08l0.15-0.645c0.087 0.042 0.214 0.09 0.381 0.145 0.167 0.05 0.373 0.074 0.619 0.074 0.329 0 0.567-0.063 0.713-0.188 0.146-0.129 0.219-0.299 0.219-0.512 0-0.137-0.03-0.252-0.088-0.344-0.054-0.092-0.132-0.165-0.232-0.219-0.096-0.058-0.207-0.098-0.336-0.119-0.125-0.025-0.259-0.037-0.4-0.037h-0.256v-0.613h0.313c0.096 0 0.191-9e-3 0.287-0.025 0.1-0.021 0.188-0.054 0.268-0.1 0.079-0.05 0.145-0.114 0.195-0.193s0.074-0.182 0.074-0.307c0-0.1-0.019-0.185-0.057-0.256s-0.088-0.13-0.15-0.176c-0.058-0.046-0.126-0.079-0.205-0.1s-0.163-0.031-0.25-0.031c-0.188 0-0.354 0.03-0.5 0.088-0.146 0.054-0.276 0.117-0.389 0.188l-0.273-0.563c0.058-0.037 0.128-0.077 0.211-0.119s0.175-0.082 0.275-0.119c0.104-0.037 0.215-0.067 0.332-0.088 0.117-0.025 0.24-0.037 0.369-0.037z" fill="#2e3440"/>
</svg>
