<svg viewBox="0 0 24 24" xmlns="http://www.w3.org/2000/svg">
 <path d="m4 2c-1.108 0-2 0.892-2 2v16c0 1.108 0.892 2 2 2h16c1.108 0 2-0.892 2-2v-16c0-1.108-0.892-2-2-2h-16zm2.07 5.5c0.525 0 1.013 0.042 1.463 0.125 0.45 0.075 0.837 0.203 1.162 0.387 0.333 0.183 0.592 0.427 0.775 0.727s0.275 0.67 0.275 1.111c0 0.408-0.101 0.759-0.301 1.051-0.192 0.292-0.463 0.524-0.813 0.699 0.525 0.175 0.912 0.434 1.162 0.775 0.25 0.342 0.375 0.776 0.375 1.301 0 0.892-0.325 1.562-0.975 2.01-0.65 0.442-1.647 0.662-2.988 0.662-0.458 0-0.92-0.015-1.387-0.049-0.467-0.025-0.875-0.084-1.225-0.176v-8.412c0.183-0.033 0.38-0.063 0.588-0.088 0.208-0.033 0.42-0.058 0.637-0.074 0.217-0.017 0.428-0.031 0.637-0.039 0.217-8e-3 0.422-0.012 0.613-0.012zm0.199 1.287c-0.242 0-0.457 5e-3 -0.648 0.014-0.183 8e-3 -0.343 0.02-0.477 0.037v2.275h1.113c0.6 0 1.07-0.083 1.412-0.25 0.342-0.175 0.514-0.484 0.514-0.926 0-0.417-0.181-0.712-0.539-0.887-0.35-0.175-0.808-0.264-1.375-0.264zm8.129 0.764c0.9 0 1.6 0.278 2.1 0.836 0.508 0.558 0.764 1.392 0.764 2.5 0 0.083-5e-3 0.181-0.014 0.289 0 0.1-3e-3 0.19-0.012 0.273h-4.313c0.042 0.525 0.224 0.935 0.549 1.227 0.333 0.283 0.813 0.424 1.438 0.424 0.367 0 0.7-0.033 1-0.1 0.308-0.067 0.552-0.138 0.727-0.213l0.199 1.238c-0.083 0.042-0.2 0.087-0.35 0.137-0.142 0.042-0.308 0.08-0.5 0.113-0.183 0.042-0.383 0.075-0.6 0.1s-0.439 0.037-0.664 0.037c-0.575 0-1.075-0.083-1.5-0.25-0.425-0.175-0.774-0.413-1.049-0.713-0.275-0.308-0.48-0.666-0.613-1.074-0.133-0.417-0.199-0.872-0.199-1.363 0-0.575 0.083-1.078 0.25-1.512 0.175-0.433 0.404-0.791 0.688-1.074 0.283-0.292 0.608-0.509 0.975-0.65 0.367-0.15 0.742-0.225 1.125-0.225zm0.012 1.262c-0.233 0-0.436 0.045-0.611 0.137-0.175 0.083-0.326 0.196-0.451 0.338-0.117 0.142-0.207 0.305-0.273 0.488-0.067 0.183-0.114 0.371-0.139 0.563h2.813c0-0.208-0.03-0.405-0.088-0.588-0.058-0.192-0.145-0.355-0.262-0.488-0.108-0.142-0.245-0.249-0.412-0.324-0.158-0.083-0.351-0.125-0.576-0.125zm-9.266 1.537v2.639c0.175 0.017 0.362 0.029 0.563 0.037 0.2 8e-3 0.384 0.012 0.551 0.012 0.325 0 0.625-0.021 0.9-0.063 0.283-0.042 0.525-0.113 0.725-0.213 0.208-0.108 0.372-0.249 0.488-0.424 0.125-0.175 0.188-0.401 0.188-0.676 0-0.492-0.181-0.834-0.539-1.025-0.358-0.192-0.853-0.287-1.486-0.287h-1.389zm13.08 2.068h2.895v0.576c-0.137 0.154-0.289 0.364-0.451 0.631s-0.315 0.569-0.461 0.906c-0.146 0.333-0.274 0.691-0.383 1.074-0.104 0.383-0.168 0.765-0.193 1.145h-0.775c0.025-0.317 0.082-0.65 0.17-1 0.087-0.35 0.193-0.69 0.318-1.02 0.129-0.333 0.268-0.642 0.418-0.93 0.154-0.292 0.307-0.537 0.457-0.732h-1.994v-0.65z" fill="#2e3440"/>
</svg>
