<svg viewBox="0 0 24 24" xmlns="http://www.w3.org/2000/svg">
 <path d="m4 2c-1.108 0-2 0.892-2 2v16c0 1.108 0.892 2 2 2h16c1.108 0 2-0.892 2-2v-16c0-1.108-0.892-2-2-2h-16zm-0.455 5.588h1.461c0.183 0.317 0.388 0.704 0.613 1.162s0.454 0.941 0.688 1.449c0.233 0.5 0.463 1.014 0.688 1.539 0.233 0.517 0.445 0.996 0.637 1.438 0.192-0.442 0.4-0.921 0.625-1.438 0.225-0.525 0.454-1.039 0.688-1.539 0.233-0.508 0.463-0.991 0.688-1.449s0.43-0.845 0.613-1.162h1.426c0.075 0.633 0.144 1.309 0.211 2.025 0.067 0.708 0.126 1.437 0.176 2.187 0.058 0.742 0.109 1.492 0.15 2.25 0.05 0.75 0.092 1.483 0.125 2.199h-1.551c-0.033-1.01-0.075-2.047-0.125-3.113-0.042-1.067-0.108-2.1-0.199-3.1-0.092 0.192-0.201 0.421-0.326 0.688s-0.257 0.558-0.398 0.875c-0.142 0.308-0.287 0.63-0.438 0.963-0.142 0.333-0.284 0.658-0.426 0.975-0.133 0.308-0.258 0.6-0.375 0.875-0.117 0.267-0.217 0.496-0.301 0.688h-1.174c-0.083-0.192-0.184-0.424-0.301-0.699s-0.245-0.567-0.387-0.875c-0.133-0.317-0.276-0.641-0.426-0.975-0.142-0.333-0.282-0.655-0.424-0.963s-0.275-0.597-0.4-0.863c-0.125-0.275-0.235-0.504-0.326-0.688-0.092 1-0.161 2.033-0.211 3.1-0.042 1.067-0.08 2.105-0.113 3.113h-1.551c0.033-0.717 0.072-1.458 0.113-2.225 0.05-0.767 0.1-1.525 0.15-2.275 0.058-0.758 0.121-1.491 0.188-2.199s0.138-1.363 0.213-1.963zm11.996 0.15v1.975h2.326v1.262h-2.326v2.662c0 0.525 0.083 0.9 0.25 1.125s0.45 0.338 0.85 0.338c0.275 0 0.518-0.03 0.727-0.088 0.217-0.058 0.387-0.112 0.512-0.162l0.25 1.201c-0.175 0.075-0.404 0.15-0.688 0.225-0.283 0.083-0.617 0.125-1 0.125-0.467 0-0.859-0.063-1.176-0.188-0.308-0.125-0.553-0.304-0.736-0.537-0.183-0.242-0.314-0.53-0.389-0.863-0.075-0.342-0.111-0.729-0.111-1.162v-5.662l1.512-0.25zm4.762 6.68h0.531v4.332h-0.756v-3.318c-0.113 0.088-0.253 0.173-0.424 0.256s-0.336 0.153-0.494 0.207l-0.232-0.576c0.242-0.096 0.485-0.219 0.727-0.369 0.246-0.15 0.461-0.327 0.648-0.531z" fill="#2e3440"/>
</svg>
