<svg viewBox="0 0 24 24" xmlns="http://www.w3.org/2000/svg">
 <path d="m4 2c-1.108 0-2 0.892-2 2v16c0 1.108 0.892 2 2 2h16c1.108 0 2-0.892 2-2v-16c0-1.108-0.892-2-2-2h-16zm1.846 5.838h1.486c0.292 0.617 0.575 1.242 0.85 1.875s0.551 1.3 0.826 2c0.283 0.7 0.57 1.441 0.861 2.225 0.3 0.783 0.613 1.637 0.938 2.563h-1.699c-0.117-0.342-0.238-0.678-0.363-1.012-0.125-0.333-0.245-0.675-0.361-1.025h-3.65c-0.117 0.35-0.238 0.695-0.363 1.037l-0.35 1h-1.637c0.325-0.925 0.632-1.779 0.924-2.563 0.292-0.783 0.577-1.525 0.852-2.225 0.283-0.7 0.561-1.367 0.836-2s0.56-1.258 0.852-1.875zm0.711 1.674c-0.192 0.442-0.412 0.98-0.662 1.613-0.242 0.633-0.495 1.321-0.762 2.063h2.85c-0.267-0.742-0.525-1.433-0.775-2.074-0.25-0.642-0.467-1.177-0.65-1.602zm7.908 0.313c0.45 0 0.816 0.059 1.1 0.176 0.292 0.117 0.533 0.271 0.725 0.463 0.092-0.067 0.21-0.138 0.352-0.213s0.3-0.141 0.475-0.199c0.175-0.067 0.357-0.122 0.549-0.164 0.2-0.042 0.402-0.063 0.602-0.063 0.508 0 0.925 0.077 1.25 0.227 0.333 0.142 0.59 0.345 0.773 0.611 0.192 0.258 0.322 0.576 0.389 0.951 0.075 0.367 0.111 0.769 0.111 1.211v3.676h-1.512v-3.438c0-0.683-0.083-1.175-0.25-1.475-0.167-0.308-0.488-0.463-0.963-0.463-0.242 0-0.471 0.042-0.688 0.125-0.217 0.075-0.378 0.15-0.486 0.225 0.067 0.208 0.112 0.429 0.137 0.662s0.037 0.483 0.037 0.75v3.613h-1.512v-3.438c0-0.683-0.089-1.175-0.264-1.475-0.167-0.308-0.483-0.463-0.949-0.463-0.167 0-0.351 0.012-0.551 0.037s-0.349 0.046-0.449 0.063v5.275h-1.512v-6.324c0.292-0.083 0.67-0.163 1.137-0.238 0.475-0.075 0.975-0.113 1.5-0.113z" fill="#2e3440"/>
</svg>
