<svg viewBox="0 0 24 24" xmlns="http://www.w3.org/2000/svg">
 <path d="m4 2c-1.108 0-2 0.892-2 2v16c0 1.108 0.892 2 2 2h16c1.108 0 2-0.892 2-2v-16c0-1.108-0.892-2-2-2h-16zm1.865 5.588h1.576v8.662h-1.576v-8.662zm6.264 1.963c0.9 0 1.6 0.278 2.1 0.836 0.508 0.558 0.762 1.392 0.762 2.5 0 0.083-3e-3 0.181-0.012 0.289 0 0.1-5e-3 0.19-0.014 0.273h-4.313c0.042 0.525 0.226 0.935 0.551 1.227 0.333 0.283 0.813 0.424 1.438 0.424 0.367 0 0.7-0.033 1-0.1 0.308-0.067 0.55-0.138 0.725-0.213l0.201 1.238c-0.083 0.042-0.202 0.087-0.352 0.137-0.142 0.042-0.308 0.08-0.5 0.113-0.183 0.042-0.383 0.075-0.6 0.1s-0.437 0.037-0.662 0.037c-0.575 0-1.075-0.083-1.5-0.25-0.425-0.175-0.776-0.413-1.051-0.713-0.275-0.308-0.478-0.666-0.611-1.074-0.133-0.417-0.201-0.872-0.201-1.363 0-0.575 0.083-1.078 0.25-1.512 0.175-0.433 0.404-0.791 0.688-1.074 0.283-0.292 0.61-0.509 0.977-0.65 0.367-0.15 0.742-0.225 1.125-0.225zm0.012 1.262c-0.233 0-0.438 0.045-0.613 0.137-0.175 0.083-0.324 0.196-0.449 0.338-0.117 0.142-0.209 0.305-0.275 0.488-0.067 0.183-0.112 0.371-0.137 0.563h2.813c0-0.208-0.03-0.405-0.088-0.588-0.058-0.192-0.145-0.355-0.262-0.488-0.108-0.142-0.247-0.249-0.414-0.324-0.158-0.083-0.349-0.125-0.574-0.125zm5.604 3.605h0.719v2.676h0.488v0.619h-0.488v1.037h-0.736v-1.037h-1.9v-0.537c0.083-0.183 0.193-0.395 0.33-0.633 0.142-0.238 0.298-0.48 0.469-0.73s0.353-0.497 0.545-0.738c0.192-0.242 0.383-0.46 0.574-0.656zm-0.018 0.932c-0.1 0.121-0.204 0.251-0.313 0.389-0.104 0.137-0.207 0.28-0.307 0.43s-0.195 0.305-0.287 0.463c-0.092 0.154-0.175 0.309-0.25 0.463h1.156v-1.744z" fill="#2e3440"/>
</svg>
