
<svg xmlns="http://www.w3.org/2000/svg" xmlns:xlink="http://www.w3.org/1999/xlink" width="24" height="24" viewBox="0 0 24 24">
<path fill-rule="nonzero" fill="rgb(53.333336%, 75.294119%, 81.568629%)" fill-opacity="1" d="M 12 0 C 8.363281 -0.0117188 5.5625 2.21875 4.273438 5.046875 C 3.410156 7.019531 2.996094 7.671875 3 11.515625 L 3 15 L 0 19.5 L 24 19.5 L 21 15 L 21 11.515625 C 21 7.671875 20.363281 6.464844 19.726562 5.171875 C 18.261719 2.285156 15.566406 -0.0117188 12 0 Z M 11.996094 3.554688 C 13.601562 3.554688 14.882812 4.871094 14.882812 6.480469 L 14.882812 7.878906 C 15.679688 7.878906 16.324219 8.527344 16.324219 9.320312 L 16.324219 13.648438 C 16.324219 14.449219 15.679688 15.089844 14.882812 15.089844 L 9.117188 15.089844 C 8.320312 15.089844 7.675781 14.445312 7.675781 13.648438 L 7.675781 9.320312 C 7.675781 8.523438 8.320312 7.878906 9.117188 7.878906 L 9.117188 6.480469 C 9.117188 4.871094 10.402344 3.554688 11.996094 3.554688 Z M 11.996094 5 C 11.199219 5 10.554688 5.636719 10.554688 6.441406 L 10.554688 7.878906 L 13.441406 7.878906 L 13.441406 6.441406 C 13.441406 5.636719 12.800781 5 11.996094 5 Z M 11.996094 5 "/>
<path fill-rule="nonzero" fill="rgb(53.333336%, 75.294119%, 81.568629%)" fill-opacity="1" d="M 7.761719 21 C 8.394531 22.796875 10.09375 24 12 24 C 13.90625 23.996094 15.601562 22.796875 16.234375 21 Z M 7.761719 21 "/>
</svg>
