<svg viewBox="0 0 24 24" xmlns="http://www.w3.org/2000/svg">
 <path d="m4 2c-1.108 0-2 0.892-2 2v16c0 1.108 0.892 2 2 2h16c1.108 0 2-0.892 2-2v-16c0-1.108-0.892-2-2-2h-16zm2.961 5.588h1.488c0.292 0.617 0.575 1.242 0.85 1.875s0.551 1.3 0.826 2c0.283 0.7 0.57 1.441 0.861 2.225 0.3 0.783 0.613 1.637 0.938 2.563h-1.699c-0.117-0.342-0.238-0.678-0.363-1.012-0.125-0.333-0.245-0.675-0.361-1.025h-3.65c-0.117 0.35-0.238 0.695-0.363 1.037l-0.35 1h-1.637c0.325-0.925 0.632-1.779 0.924-2.563 0.292-0.783 0.575-1.525 0.85-2.225 0.283-0.7 0.563-1.367 0.838-2s0.558-1.258 0.85-1.875zm0.713 1.674c-0.192 0.442-0.412 0.98-0.662 1.613-0.242 0.633-0.495 1.321-0.762 2.063h2.85c-0.267-0.742-0.525-1.433-0.775-2.074-0.25-0.642-0.467-1.177-0.65-1.602zm7.82 0.313c0.1 0 0.216 9e-3 0.35 0.025 0.133 8e-3 0.267 0.026 0.4 0.051 0.133 0.017 0.262 0.041 0.387 0.074 0.125 0.025 0.226 0.051 0.301 0.076l-0.262 1.273c-0.125-0.042-0.3-0.083-0.525-0.125-0.217-0.05-0.472-0.074-0.764-0.074-0.167 0-0.345 0.017-0.537 0.051-0.183 0.033-0.312 0.061-0.387 0.086v5.238h-1.514v-6.225c0.292-0.108 0.655-0.209 1.088-0.301 0.442-0.1 0.93-0.15 1.463-0.15zm3.291 4.744c0.246 0 0.454 0.037 0.625 0.107 0.175 0.071 0.317 0.161 0.426 0.273 0.112 0.113 0.194 0.238 0.244 0.375s0.074 0.271 0.074 0.4c0 0.229-0.063 0.434-0.188 0.613-0.125 0.175-0.269 0.314-0.432 0.418 0.246 0.133 0.428 0.288 0.545 0.463 0.121 0.175 0.182 0.382 0.182 0.619 0 0.179-0.031 0.346-0.094 0.5s-0.156 0.288-0.281 0.4c-0.125 0.113-0.281 0.199-0.469 0.262-0.183 0.063-0.397 0.094-0.639 0.094-0.283 0-0.518-0.04-0.705-0.119-0.188-0.079-0.339-0.178-0.451-0.299-0.113-0.121-0.194-0.251-0.244-0.389-0.046-0.142-0.068-0.275-0.068-0.4s0.017-0.24 0.051-0.344c0.038-0.108 0.088-0.205 0.15-0.293 0.063-0.092 0.132-0.175 0.211-0.25s0.163-0.141 0.25-0.199c-0.192-0.133-0.334-0.277-0.43-0.432-0.092-0.158-0.139-0.351-0.139-0.576 0-0.162 0.031-0.315 0.094-0.461 0.067-0.15 0.16-0.282 0.281-0.395s0.267-0.203 0.438-0.27 0.36-0.1 0.568-0.1zm0 0.619c-0.113 0-0.21 0.019-0.293 0.057-0.079 0.033-0.143 0.078-0.193 0.137-0.05 0.054-0.088 0.115-0.113 0.182-0.025 0.063-0.037 0.125-0.037 0.188 0 0.158 0.059 0.308 0.176 0.449 0.121 0.142 0.32 0.255 0.6 0.338 0.154-0.096 0.274-0.203 0.361-0.324 0.087-0.125 0.133-0.283 0.133-0.475 0-0.054-0.014-0.113-0.039-0.176-0.021-0.067-0.057-0.127-0.111-0.182-0.05-0.054-0.114-0.099-0.193-0.137-0.079-0.037-0.177-0.057-0.289-0.057zm-0.23 1.855c-0.15 0.096-0.272 0.214-0.363 0.352-0.092 0.133-0.137 0.293-0.137 0.48 0 0.063 0.012 0.128 0.037 0.199s0.067 0.137 0.125 0.195 0.133 0.107 0.225 0.148c0.092 0.038 0.206 0.057 0.344 0.057 0.125 0 0.235-0.015 0.326-0.049 0.092-0.033 0.166-0.079 0.225-0.133 0.058-0.058 0.102-0.123 0.131-0.193 0.029-0.075 0.045-0.15 0.045-0.225 0-0.117-0.024-0.219-0.07-0.307-0.046-0.087-0.112-0.162-0.199-0.225-0.083-0.067-0.184-0.122-0.301-0.168-0.117-0.05-0.245-0.095-0.387-0.133z" fill="#2e3440"/>
</svg>
