<svg viewBox="0 0 24 24" xmlns="http://www.w3.org/2000/svg">
 <path d="m4 2c-1.108 0-2 0.892-2 2v16c0 1.108 0.892 2 2 2h16c1.108 0 2-0.892 2-2v-16c0-1.108-0.892-2-2-2h-16zm1.463 5.588h5.475v1.338h-3.9v2.211h3.463v1.338h-3.463v3.775h-1.574v-8.662zm9.04 1.986c0.1 0 0.216 9e-3 0.35 0.025 0.133 8e-3 0.267 0.026 0.4 0.051 0.133 0.017 0.262 0.041 0.387 0.074 0.125 0.025 0.226 0.051 0.301 0.076l-0.264 1.273c-0.125-0.042-0.298-0.083-0.523-0.125-0.217-0.05-0.472-0.074-0.764-0.074-0.167 0-0.345 0.017-0.537 0.051-0.183 0.033-0.312 0.061-0.387 0.086v5.238h-1.514v-6.225c0.292-0.108 0.655-0.209 1.088-0.301 0.442-0.1 0.93-0.15 1.463-0.15zm1.848 4.844h2.895v0.576c-0.137 0.154-0.289 0.364-0.451 0.631-0.163 0.267-0.317 0.569-0.463 0.906-0.146 0.333-0.273 0.691-0.381 1.074-0.104 0.383-0.168 0.765-0.193 1.145h-0.775c0.025-0.317 0.082-0.65 0.17-1 0.087-0.35 0.193-0.69 0.318-1.02 0.129-0.333 0.268-0.642 0.418-0.93 0.154-0.292 0.307-0.537 0.457-0.732h-1.994v-0.65z" fill="#2e3440"/>
</svg>
