<svg viewBox="0 0 24 24" xmlns="http://www.w3.org/2000/svg">
 <path d="m4 2c-1.108 0-2 0.892-2 2v16c0 1.108 0.892 2 2 2h16c1.108 0 2-0.892 2-2v-16c0-1.108-0.892-2-2-2h-16zm10.721 4.863c0.25 0 0.465 0.083 0.648 0.25s0.275 0.396 0.275 0.688c0 0.283-0.092 0.507-0.275 0.674s-0.398 0.25-0.648 0.25c-0.258 0-0.481-0.083-0.664-0.25s-0.273-0.39-0.273-0.674c0-0.292 0.09-0.521 0.273-0.688s0.406-0.25 0.664-0.25zm-9.672 0.725h1.574v3.463h3.762v-3.463h1.576v8.662h-1.576v-3.838h-3.762v3.838h-1.574v-8.662zm8.922 2.125h1.512v6.537h-1.512v-6.537zm4.123 4.605c0.462 0 0.801 0.111 1.018 0.332 0.221 0.217 0.332 0.513 0.332 0.893 0 0.15-0.031 0.299-0.094 0.445-0.063 0.142-0.144 0.28-0.244 0.418-0.096 0.133-0.205 0.265-0.33 0.395-0.125 0.125-0.25 0.246-0.375 0.367-0.067 0.063-0.143 0.139-0.227 0.227-0.083 0.087-0.161 0.174-0.236 0.262-0.075 0.087-0.139 0.173-0.193 0.256-0.054 0.079-0.084 0.147-0.088 0.201h1.924v0.637h-2.756c-4e-3 -0.033-6e-3 -0.073-6e-3 -0.119v-0.111c0-0.2 0.031-0.384 0.094-0.551 0.067-0.171 0.152-0.329 0.256-0.475s0.22-0.283 0.35-0.412c0.129-0.129 0.26-0.258 0.389-0.383 0.1-0.096 0.195-0.19 0.287-0.281 0.092-0.092 0.172-0.18 0.238-0.268 0.071-0.092 0.126-0.184 0.168-0.275 0.042-0.096 0.063-0.193 0.063-0.293 0-0.217-0.063-0.371-0.188-0.463s-0.278-0.139-0.457-0.139c-0.117 0-0.224 0.017-0.324 0.051-0.1 0.033-0.19 0.073-0.27 0.119-0.075 0.046-0.141 0.093-0.199 0.143-0.058 0.046-0.102 0.084-0.131 0.113l-0.375-0.531c0.175-0.167 0.378-0.3 0.611-0.4 0.238-0.104 0.493-0.156 0.764-0.156z" fill="#2e3440"/>
</svg>
