<svg viewBox="0 0 24 24" xmlns="http://www.w3.org/2000/svg">
 <path d="m4 2c-1.108 0-2 0.892-2 2v16c0 1.108 0.892 2 2 2h16c1.108 0 2-0.892 2-2v-16c0-1.108-0.892-2-2-2h-16zm4.361 5.387c0.4 0 0.754 0.03 1.063 0.088 0.317 0.05 0.587 0.109 0.812 0.176s0.409 0.138 0.551 0.213c0.15 0.075 0.254 0.129 0.313 0.162l-0.475 1.287c-0.25-0.15-0.563-0.275-0.938-0.375-0.367-0.108-0.756-0.162-1.164-0.162-0.892 0-1.574 0.28-2.049 0.838-0.467 0.55-0.701 1.315-0.701 2.299 0 0.467 0.056 0.895 0.164 1.287 0.117 0.383 0.283 0.713 0.5 0.988 0.225 0.275 0.499 0.492 0.824 0.65 0.333 0.15 0.72 0.225 1.162 0.225 0.275 0 0.513-9e-3 0.713-0.025 0.2-0.025 0.358-0.055 0.475-0.088v-3.111h1.576v4.162c-0.217 0.083-0.585 0.175-1.102 0.275s-1.112 0.15-1.787 0.15c-0.625 0-1.196-0.101-1.713-0.301s-0.958-0.492-1.324-0.875c-0.358-0.383-0.638-0.854-0.838-1.412s-0.299-1.201-0.299-1.926 0.108-1.365 0.324-1.924c0.225-0.558 0.529-1.031 0.912-1.414 0.383-0.392 0.833-0.687 1.35-0.887s1.067-0.301 1.65-0.301zm7.133 2.188c0.1 0 0.216 9e-3 0.35 0.025 0.133 8e-3 0.267 0.026 0.4 0.051 0.133 0.017 0.262 0.041 0.387 0.074 0.125 0.025 0.226 0.051 0.301 0.076l-0.262 1.273c-0.125-0.042-0.3-0.083-0.525-0.125-0.217-0.05-0.472-0.074-0.764-0.074-0.167 0-0.345 0.017-0.537 0.051-0.183 0.033-0.312 0.061-0.387 0.086v5.238h-1.514v-6.225c0.292-0.108 0.655-0.209 1.088-0.301 0.442-0.1 0.93-0.15 1.463-0.15zm2.311 4.844h2.213v0.639h-1.568c-4e-3 0.071-0.011 0.152-0.02 0.244-4e-3 0.088-0.011 0.176-0.02 0.268-4e-3 0.092-9e-3 0.18-0.018 0.264-8e-3 0.083-0.017 0.153-0.025 0.211 0.617 0.033 1.072 0.176 1.363 0.426 0.296 0.246 0.443 0.583 0.443 1.012 0 0.196-0.033 0.378-0.1 0.545s-0.169 0.311-0.307 0.432c-0.137 0.121-0.311 0.216-0.52 0.287-0.208 0.067-0.451 0.1-0.73 0.1-0.113 0-0.227-9e-3 -0.344-0.025-0.117-0.017-0.23-0.038-0.338-0.063-0.104-0.021-0.198-0.043-0.281-0.068s-0.146-0.048-0.188-0.068l0.145-0.639c0.087 0.042 0.212 0.089 0.375 0.139 0.167 0.046 0.368 0.068 0.605 0.068 0.163 0 0.301-0.017 0.418-0.051 0.117-0.038 0.21-0.086 0.281-0.148 0.075-0.063 0.131-0.134 0.164-0.213 0.033-0.083 0.049-0.172 0.049-0.264 0-0.137-0.026-0.259-0.08-0.367s-0.152-0.2-0.289-0.275c-0.133-0.075-0.314-0.132-0.543-0.17-0.225-0.038-0.51-0.055-0.855-0.055 0.046-0.4 0.08-0.78 0.105-1.139 0.025-0.363 0.046-0.725 0.063-1.088z" fill="#2e3440"/>
</svg>
