<svg viewBox="0 0 24 24" xmlns="http://www.w3.org/2000/svg">
 <path d="m4 2c-1.108 0-2 0.892-2 2v16c0 1.108 0.892 2 2 2h16c1.108 0 2-0.892 2-2v-16c0-1.108-0.892-2-2-2h-16zm-0.479 5.588h1.576v3.463h3.762v-3.463h1.576v8.662h-1.576v-3.838h-3.762v3.838h-1.576v-8.662zm8.06 2.125h1.611c0.083 0.35 0.184 0.728 0.301 1.137 0.125 0.408 0.259 0.825 0.4 1.25 0.142 0.417 0.291 0.833 0.449 1.25s0.316 0.804 0.475 1.162c0.267-0.742 0.517-1.528 0.75-2.361 0.233-0.842 0.447-1.654 0.639-2.438h1.563c-0.675 2.483-1.458 4.733-2.35 6.75-0.167 0.375-0.339 0.696-0.514 0.963s-0.371 0.487-0.588 0.662-0.458 0.3-0.725 0.375c-0.267 0.083-0.574 0.125-0.924 0.125-0.233 0-0.468-0.026-0.701-0.076-0.225-0.05-0.395-0.104-0.512-0.162l0.275-1.213c0.3 0.117 0.595 0.176 0.887 0.176 0.392 0 0.695-0.095 0.912-0.287 0.225-0.183 0.421-0.472 0.588-0.863-0.475-0.917-0.933-1.917-1.375-3-0.433-1.083-0.82-2.233-1.162-3.449zm7.176 4.705h2.211v0.639h-1.568c-4e-3 0.071-9e-3 0.152-0.018 0.244-4e-3 0.088-0.011 0.176-0.02 0.268-4e-3 0.092-0.011 0.18-0.02 0.264-8e-3 0.083-0.015 0.153-0.023 0.211 0.617 0.033 1.07 0.176 1.361 0.426 0.296 0.246 0.443 0.583 0.443 1.012 0 0.196-0.033 0.378-0.1 0.545s-0.169 0.311-0.307 0.432c-0.137 0.121-0.309 0.216-0.518 0.287-0.208 0.067-0.453 0.1-0.732 0.1-0.113 0-0.227-9e-3 -0.344-0.025-0.117-0.017-0.228-0.038-0.336-0.063-0.104-0.021-0.198-0.043-0.281-0.068s-0.146-0.048-0.188-0.068l0.143-0.639c0.087 0.042 0.212 0.089 0.375 0.139 0.167 0.046 0.37 0.068 0.607 0.068 0.163 0 0.301-0.017 0.418-0.051 0.117-0.038 0.21-0.086 0.281-0.148 0.075-0.063 0.129-0.134 0.162-0.213 0.033-0.083 0.051-0.172 0.051-0.264 0-0.137-0.028-0.259-0.082-0.367s-0.15-0.2-0.287-0.275c-0.133-0.075-0.314-0.132-0.543-0.17-0.225-0.038-0.512-0.055-0.857-0.055 0.046-0.4 0.082-0.78 0.107-1.139 0.025-0.363 0.046-0.725 0.063-1.088z" fill="#2e3440"/>
</svg>
