<svg viewBox="0 0 24 24" xmlns="http://www.w3.org/2000/svg">
 <path d="m4 2c-1.108 0-2 0.892-2 2v16c0 1.108 0.892 2 2 2h16c1.108 0 2-0.892 2-2v-16c0-1.108-0.892-2-2-2h-16zm3.205 5.5c1.258 0 2.22 0.229 2.887 0.688 0.675 0.458 1.014 1.175 1.014 2.15 0 0.508-0.092 0.946-0.275 1.313-0.175 0.358-0.434 0.653-0.775 0.887-0.342 0.225-0.758 0.392-1.25 0.5s-1.054 0.162-1.688 0.162h-0.787v3.051h-1.574v-8.537c0.367-0.083 0.769-0.137 1.211-0.162 0.45-0.033 0.863-0.051 1.238-0.051zm6.701 0.238v1.975h2.324v1.262h-2.324v2.662c0 0.525 0.083 0.9 0.25 1.125s0.45 0.338 0.85 0.338c0.275 0 0.516-0.03 0.725-0.088 0.217-0.058 0.387-0.112 0.512-0.162l0.25 1.201c-0.175 0.075-0.404 0.15-0.688 0.225-0.283 0.083-0.617 0.125-1 0.125-0.467 0-0.857-0.063-1.174-0.188-0.308-0.125-0.555-0.304-0.738-0.537-0.183-0.242-0.312-0.53-0.387-0.863-0.075-0.342-0.113-0.729-0.113-1.162v-5.662l1.514-0.25zm-6.588 1.125c-0.4 0-0.73 0.012-0.988 0.037v2.949h0.762c0.758 0 1.342-0.104 1.75-0.313 0.408-0.217 0.613-0.621 0.613-1.213 0-0.283-0.054-0.519-0.162-0.711s-0.26-0.343-0.451-0.451c-0.192-0.108-0.421-0.183-0.688-0.225-0.258-0.05-0.536-0.074-0.836-0.074zm11.537 5.555h0.719v2.676h0.486v0.619h-0.486v1.037h-0.738v-1.037h-1.9v-0.537c0.083-0.183 0.195-0.395 0.332-0.633 0.142-0.238 0.298-0.48 0.469-0.73s0.351-0.497 0.543-0.738c0.192-0.242 0.385-0.46 0.576-0.656zm-0.02 0.932c-0.1 0.121-0.204 0.251-0.313 0.389-0.104 0.137-0.207 0.28-0.307 0.43s-0.195 0.305-0.287 0.463c-0.092 0.154-0.175 0.309-0.25 0.463h1.156v-1.744z" fill="#2e3440"/>
</svg>
