<svg viewBox="0 0 24 24" xmlns="http://www.w3.org/2000/svg">
 <path d="m4 2c-1.108 0-2 0.892-2 2v16c0 1.108 0.892 2 2 2h16c1.108 0 2-0.892 2-2v-16c0-1.108-0.892-2-2-2h-16zm12.275 5.113c0.25 0 0.467 0.083 0.65 0.25s0.275 0.396 0.275 0.687c0 0.283-0.092 0.507-0.275 0.674s-0.4 0.25-0.65 0.25c-0.258 0-0.479-0.083-0.662-0.25s-0.275-0.39-0.275-0.674c0-0.292 0.092-0.521 0.275-0.688s0.404-0.25 0.662-0.25zm-10.182 0.725h1.738c0.2 0.583 0.403 1.179 0.611 1.787s0.417 1.209 0.625 1.801c0.208 0.583 0.417 1.149 0.625 1.699s0.413 1.053 0.613 1.512c0.192-0.458 0.391-0.958 0.6-1.5 0.208-0.55 0.417-1.119 0.625-1.711 0.217-0.592 0.428-1.192 0.637-1.801 0.208-0.608 0.41-1.204 0.602-1.787h1.688c-0.508 1.475-1.05 2.949-1.625 4.424s-1.176 2.888-1.801 4.238h-1.512c-0.625-1.35-1.229-2.763-1.813-4.238-0.575-1.475-1.113-2.949-1.613-4.424zm9.432 2.125h1.514v6.537h-1.514v-6.537z" fill="#2e3440"/>
</svg>
