<svg viewBox="0 0 24 24" xmlns="http://www.w3.org/2000/svg">
 <path d="m4 2c-1.108 0-2 0.892-2 2v16c0 1.108 0.892 2 2 2h16c1.108 0 2-0.892 2-2v-16c0-1.108-0.892-2-2-2h-16zm1.934 5.838h5.475v1.338h-3.9v2.211h3.463v1.338h-3.463v3.775h-1.574v-8.662zm9.438 1.963c0.458 0 0.878 0.083 1.262 0.25 0.392 0.158 0.725 0.387 1 0.688 0.275 0.3 0.489 0.661 0.639 1.086 0.158 0.417 0.236 0.884 0.236 1.4 0 0.517-0.075 0.987-0.225 1.412s-0.362 0.788-0.637 1.088-0.608 0.535-1 0.701c-0.383 0.167-0.809 0.25-1.275 0.25-0.467 0-0.892-0.083-1.275-0.25s-0.711-0.401-0.986-0.701-0.492-0.663-0.65-1.088c-0.15-0.425-0.225-0.895-0.225-1.412s0.075-0.984 0.225-1.4c0.158-0.425 0.375-0.786 0.65-1.086 0.283-0.3 0.617-0.529 1-0.688 0.383-0.167 0.803-0.25 1.262-0.25zm0 1.312c-0.5 0-0.892 0.191-1.176 0.574-0.275 0.375-0.412 0.887-0.412 1.537 0 0.658 0.137 1.179 0.412 1.563 0.283 0.383 0.676 0.576 1.176 0.576s0.887-0.193 1.162-0.576c0.283-0.383 0.426-0.904 0.426-1.563 0-0.65-0.142-1.162-0.426-1.537-0.275-0.383-0.662-0.574-1.162-0.574z" fill="#2e3440"/>
</svg>
