<svg viewBox="0 0 24 24" xmlns="http://www.w3.org/2000/svg">
 <path d="m4 2c-1.108 0-2 0.892-2 2v16c0 1.108 0.892 2 2 2h16c1.108 0 2-0.892 2-2v-16c0-1.108-0.892-2-2-2h-16zm2.818 5.588h1.574v8.662h-1.574v-8.662zm5.02 0.15v1.975h2.326v1.262h-2.326v2.662c0 0.525 0.083 0.9 0.25 1.125s0.452 0.338 0.852 0.338c0.275 0 0.516-0.03 0.725-0.088 0.217-0.058 0.387-0.112 0.512-0.162l0.25 1.201c-0.175 0.075-0.404 0.15-0.688 0.225-0.283 0.083-0.617 0.125-1 0.125-0.467 0-0.857-0.063-1.174-0.188-0.308-0.125-0.555-0.304-0.738-0.537-0.183-0.242-0.312-0.53-0.387-0.863-0.075-0.342-0.113-0.729-0.113-1.162v-5.662l1.512-0.25zm5.775 6.656 0.043 0.625c-0.225 4e-3 -0.435 0.028-0.631 0.074-0.196 0.042-0.371 0.108-0.525 0.199-0.154 0.092-0.286 0.212-0.398 0.357-0.108 0.146-0.192 0.325-0.25 0.537 0.204-0.096 0.426-0.145 0.668-0.145 0.258 0 0.477 0.038 0.656 0.113 0.183 0.071 0.331 0.168 0.443 0.293 0.113 0.125 0.194 0.271 0.244 0.438 0.054 0.163 0.082 0.335 0.082 0.514 0 0.163-0.03 0.329-0.088 0.5-0.054 0.171-0.143 0.327-0.264 0.469-0.117 0.137-0.264 0.252-0.443 0.344-0.179 0.087-0.391 0.131-0.637 0.131-0.496 0-0.876-0.163-1.139-0.488-0.258-0.329-0.387-0.78-0.387-1.355 0-0.417 0.061-0.785 0.182-1.105 0.125-0.325 0.3-0.599 0.525-0.82 0.229-0.221 0.503-0.387 0.824-0.5 0.325-0.117 0.69-0.176 1.094-0.18zm-1.188 2.25c-0.121 0-0.237 0.01-0.35 0.031s-0.215 0.052-0.307 0.094c-4e-3 0.033-8e-3 0.07-0.012 0.111v0.113c0 0.167 0.01 0.325 0.031 0.475 0.025 0.146 0.063 0.274 0.117 0.387 0.058 0.108 0.137 0.197 0.232 0.264 0.1 0.063 0.223 0.094 0.369 0.094 0.121 0 0.221-0.026 0.305-0.076 0.087-0.05 0.159-0.114 0.213-0.193s0.094-0.164 0.119-0.256c0.025-0.096 0.037-0.188 0.037-0.275 0-0.25-0.061-0.439-0.182-0.568-0.121-0.133-0.312-0.199-0.574-0.199z" fill="#2e3440"/>
</svg>
