<svg viewBox="0 0 22 22" xmlns="http://www.w3.org/2000/svg">
 <path d="m3 1c-1.108 0-2 0.892-2 2v16c0 1.108 0.892 2 2 2h16c1.108 0 2-0.892 2-2v-16c0-1.108-0.892-2-2-2h-16zm-0.4 5.588h1.287c0.333 0.35 0.693 0.767 1.076 1.25 0.383 0.475 0.765 0.97 1.148 1.486 0.392 0.517 0.767 1.038 1.125 1.563 0.367 0.517 0.693 1 0.977 1.451v-5.75h1.563v8.662h-1.338c-0.283-0.475-0.601-0.984-0.951-1.525-0.35-0.55-0.711-1.1-1.086-1.65-0.375-0.558-0.759-1.095-1.15-1.611-0.383-0.525-0.75-0.995-1.1-1.412v6.199h-1.551v-8.662zm11.252 1.963c0.458 0 0.88 0.083 1.264 0.25 0.392 0.158 0.725 0.388 1 0.688s0.487 0.661 0.637 1.086c0.158 0.417 0.238 0.884 0.238 1.4 0 0.517-0.075 0.987-0.225 1.412s-0.364 0.788-0.639 1.088-0.608 0.535-1 0.701c-0.383 0.167-0.809 0.25-1.275 0.25-0.467 0-0.89-0.083-1.273-0.25s-0.713-0.401-0.988-0.701-0.492-0.663-0.65-1.088c-0.15-0.425-0.225-0.895-0.225-1.412s0.075-0.984 0.225-1.4c0.158-0.425 0.375-0.786 0.65-1.086 0.283-0.3 0.617-0.529 1-0.688 0.383-0.167 0.803-0.25 1.262-0.25zm0 1.313c-0.5 0-0.89 0.191-1.174 0.574-0.275 0.375-0.412 0.887-0.412 1.537 0 0.658 0.137 1.179 0.412 1.563 0.283 0.383 0.674 0.576 1.174 0.576s0.889-0.193 1.164-0.576c0.283-0.383 0.424-0.904 0.424-1.563 0-0.65-0.14-1.162-0.424-1.537-0.275-0.383-0.664-0.574-1.164-0.574zm4.809 3.455c0.246 0 0.454 0.037 0.625 0.107 0.175 0.071 0.317 0.161 0.426 0.273 0.112 0.113 0.194 0.238 0.244 0.375 0.05 0.138 0.074 0.271 0.074 0.4 0 0.229-0.063 0.434-0.188 0.613-0.125 0.175-0.269 0.314-0.432 0.418 0.246 0.133 0.428 0.288 0.545 0.463 0.121 0.175 0.18 0.382 0.18 0.619 0 0.179-0.031 0.346-0.094 0.5s-0.156 0.288-0.281 0.4c-0.125 0.113-0.281 0.199-0.469 0.262-0.183 0.063-0.395 0.094-0.637 0.094-0.283 0-0.52-0.04-0.707-0.119-0.188-0.079-0.337-0.178-0.449-0.299-0.113-0.121-0.194-0.251-0.244-0.389-0.046-0.142-0.068-0.275-0.068-0.4s0.017-0.24 0.051-0.344c0.038-0.108 0.086-0.205 0.148-0.293 0.063-0.092 0.134-0.175 0.213-0.25s0.162-0.141 0.25-0.199c-0.192-0.133-0.336-0.277-0.432-0.432-0.092-0.158-0.137-0.351-0.137-0.576 0-0.162 0.031-0.315 0.094-0.461 0.067-0.15 0.16-0.282 0.281-0.395s0.267-0.203 0.438-0.27 0.36-0.1 0.568-0.1zm0 0.619c-0.113 0-0.21 0.019-0.293 0.057-0.079 0.033-0.143 0.078-0.193 0.137-0.05 0.054-0.088 0.115-0.113 0.182-0.025 0.063-0.037 0.125-0.037 0.188 0 0.158 0.057 0.308 0.174 0.449 0.121 0.142 0.322 0.255 0.602 0.338 0.154-0.096 0.274-0.203 0.361-0.324 0.087-0.125 0.131-0.283 0.131-0.475 0-0.054-0.012-0.113-0.037-0.176-0.021-0.067-0.057-0.127-0.111-0.182-0.05-0.054-0.116-0.099-0.195-0.137s-0.175-0.057-0.287-0.057zm-0.23 1.855c-0.15 0.096-0.272 0.214-0.363 0.352-0.092 0.133-0.137 0.293-0.137 0.48 0 0.063 0.012 0.128 0.037 0.199s0.067 0.137 0.125 0.195 0.133 0.107 0.225 0.148c0.092 0.038 0.206 0.057 0.344 0.057 0.125 0 0.235-0.015 0.326-0.049 0.092-0.033 0.166-0.079 0.225-0.133 0.058-0.058 0.102-0.123 0.131-0.193 0.029-0.075 0.043-0.15 0.043-0.225 0-0.117-0.023-0.219-0.068-0.307-0.046-0.088-0.112-0.162-0.199-0.225-0.083-0.067-0.184-0.122-0.301-0.168-0.117-0.05-0.245-0.095-0.387-0.133z" fill="#2e3440"/>
</svg>
