<svg viewBox="0 0 24 24" xmlns="http://www.w3.org/2000/svg">
 <path d="m4 2c-1.108 0-2 0.892-2 2v16c0 1.108 0.892 2 2 2h16c1.108 0 2-0.892 2-2v-16c0-1.108-0.892-2-2-2h-16zm10.713 4.551v7.486c0 0.183 0.012 0.338 0.037 0.463 0.033 0.125 0.087 0.233 0.162 0.324 0.075 0.083 0.176 0.151 0.301 0.201 0.133 0.042 0.3 0.075 0.5 0.1l-0.213 1.25c-0.45-8e-3 -0.825-0.059-1.125-0.15-0.292-0.092-0.524-0.22-0.699-0.387-0.175-0.175-0.3-0.389-0.375-0.639-0.067-0.258-0.102-0.55-0.102-0.875v-7.523l1.514-0.25zm-6.752 0.949c1.258 0 2.222 0.229 2.889 0.688 0.675 0.458 1.012 1.175 1.012 2.15 0 0.508-0.092 0.946-0.275 1.313-0.175 0.358-0.432 0.653-0.773 0.887-0.342 0.225-0.758 0.392-1.25 0.5s-1.054 0.162-1.688 0.162h-0.789v3.051h-1.574v-8.537c0.367-0.083 0.771-0.137 1.213-0.162 0.45-0.033 0.861-0.051 1.236-0.051zm0.113 1.363c-0.4 0-0.73 0.012-0.988 0.037v2.949h0.764c0.758 0 1.342-0.104 1.75-0.313 0.408-0.217 0.611-0.621 0.611-1.213 0-0.283-0.054-0.519-0.162-0.711s-0.258-0.343-0.449-0.451c-0.192-0.108-0.421-0.183-0.688-0.225-0.258-0.05-0.538-0.074-0.838-0.074zm9.586 5.455c0.508 0 0.892 0.165 1.15 0.494 0.262 0.325 0.395 0.785 0.395 1.381 0 0.842-0.217 1.479-0.65 1.912s-1.098 0.652-1.994 0.656l-0.031-0.631c0.25 0 0.476-0.021 0.676-0.063 0.204-0.042 0.381-0.108 0.531-0.199 0.154-0.092 0.283-0.212 0.387-0.357 0.104-0.15 0.184-0.332 0.238-0.549-0.1 0.046-0.211 0.08-0.332 0.105s-0.237 0.037-0.35 0.037c-0.258 0-0.479-0.033-0.662-0.1-0.179-0.071-0.327-0.166-0.443-0.287-0.113-0.125-0.196-0.269-0.25-0.432s-0.082-0.338-0.082-0.525c0-0.162 0.028-0.326 0.082-0.492 0.054-0.171 0.139-0.327 0.256-0.469s0.264-0.256 0.443-0.344c0.179-0.092 0.391-0.139 0.637-0.139zm0.02 0.625c-0.121 0-0.225 0.026-0.313 0.076-0.083 0.05-0.153 0.114-0.207 0.193s-0.092 0.164-0.117 0.256-0.039 0.182-0.039 0.27c0 0.254 0.061 0.445 0.182 0.574 0.125 0.129 0.32 0.193 0.582 0.193 0.121 0 0.239-0.01 0.355-0.031 0.117-0.025 0.217-0.06 0.301-0.105 4e-3 -0.046 6e-3 -0.086 6e-3 -0.119v-0.088c0-0.167-0.012-0.323-0.037-0.469-0.021-0.15-0.061-0.278-0.119-0.387-0.054-0.113-0.13-0.201-0.23-0.264-0.096-0.067-0.217-0.1-0.363-0.1z" fill="#2e3440"/>
</svg>
