<svg viewBox="0 0 24 24" xmlns="http://www.w3.org/2000/svg">
 <path d="m4 2c-1.108 0-2 0.892-2 2v16c0 1.108 0.892 2 2 2h16c1.108 0 2-0.892 2-2v-16c0-1.108-0.892-2-2-2h-16zm14.13 4.801v7.486c0 0.183 0.012 0.338 0.037 0.463 0.033 0.125 0.087 0.233 0.162 0.324 0.075 0.083 0.176 0.151 0.301 0.201 0.133 0.042 0.3 0.075 0.5 0.1l-0.213 1.25c-0.45-8e-3 -0.825-0.059-1.125-0.15-0.292-0.092-0.526-0.22-0.701-0.387-0.175-0.175-0.3-0.389-0.375-0.639-0.067-0.258-0.1-0.55-0.1-0.875v-7.523l1.514-0.25zm-12.05 1.037h1.461c0.183 0.317 0.388 0.704 0.613 1.162s0.454 0.941 0.688 1.449c0.233 0.5 0.462 1.014 0.688 1.539 0.233 0.517 0.445 0.996 0.637 1.438 0.192-0.442 0.4-0.921 0.625-1.438 0.225-0.525 0.454-1.039 0.687-1.539 0.233-0.508 0.463-0.991 0.687-1.449 0.225-0.458 0.43-0.845 0.613-1.162h1.426c0.075 0.633 0.144 1.309 0.211 2.025 0.067 0.708 0.126 1.437 0.176 2.187 0.058 0.742 0.109 1.492 0.15 2.25 0.05 0.75 0.092 1.483 0.125 2.199h-1.551c-0.033-1.01-0.075-2.047-0.125-3.113-0.042-1.067-0.108-2.1-0.199-3.1-0.092 0.192-0.201 0.421-0.326 0.688s-0.257 0.558-0.398 0.875c-0.142 0.308-0.287 0.63-0.438 0.963-0.142 0.333-0.284 0.658-0.426 0.975-0.133 0.308-0.258 0.6-0.375 0.875-0.117 0.267-0.217 0.496-0.301 0.688h-1.174c-0.083-0.192-0.184-0.424-0.301-0.699s-0.245-0.567-0.387-0.875c-0.133-0.317-0.276-0.641-0.426-0.975-0.142-0.333-0.282-0.655-0.424-0.963s-0.275-0.597-0.4-0.863c-0.125-0.275-0.235-0.504-0.326-0.688-0.092 1-0.161 2.033-0.211 3.1-0.042 1.067-0.08 2.105-0.113 3.113h-1.551c0.033-0.717 0.072-1.458 0.113-2.225 0.05-0.767 0.1-1.525 0.15-2.275 0.058-0.758 0.121-1.491 0.188-2.199s0.138-1.363 0.213-1.963z" fill="#2e3440"/>
</svg>
