<svg width="24" height="24" viewBox="0 0 24 24" xmlns="http://www.w3.org/2000/svg">
 <path d="m12 0c-3.636719-0.0117188-6.4375 2.21875-7.726562 5.046875-0.863282 1.972656-1.277344 2.625-1.273438 6.46875v3.484375l-3 4.5h24l-3-4.5v-3.484375c0-3.84375-0.636719-5.050781-1.273438-6.34375-1.464843-2.886719-4.160156-5.1835938-7.726562-5.171875zm-0.003906 3.554688c1.605468 0 2.886718 1.316406 2.886718 2.925781v1.398437c0.796876 0 1.441407 0.648438 1.441407 1.441406v4.328126c0 0.800781-0.644531 1.441406-1.441407 1.441406h-5.765624c-0.796876 0-1.441407-0.644532-1.441407-1.441406v-4.328126c0-0.796874 0.644531-1.441406 1.441407-1.441406v-1.398437c0-1.609375 1.285156-2.925781 2.878906-2.925781zm0 1.445312c-0.796875 0-1.441406 0.636719-1.441406 1.441406v1.4375h2.886718v-1.4375c0-0.804687-0.640625-1.441406-1.445312-1.441406z" fill="rgb(53.333336%, 75.294119%, 81.568629%)"/>
 <path d="m7.761719 21c0.632812 1.796875 2.332031 3 4.238281 3 1.90625-0.003906 3.601562-1.203125 4.234375-3z" fill="rgb(53.333336%, 75.294119%, 81.568629%)"/>
</svg>
