<svg viewBox="0 0 24 24" xmlns="http://www.w3.org/2000/svg">
 <path d="m4 2c-1.108 0-2 0.892-2 2v16c0 1.108 0.892 2 2 2h16c1.108 0 2-0.892 2-2v-16c0-1.108-0.892-2-2-2h-16zm2.594 5.5c1.258 0 2.222 0.229 2.889 0.688 0.675 0.458 1.012 1.175 1.012 2.15 0 0.508-0.092 0.946-0.275 1.313-0.175 0.358-0.432 0.653-0.773 0.887-0.342 0.225-0.758 0.392-1.25 0.5s-1.054 0.162-1.688 0.162h-0.789v3.051h-1.574v-8.537c0.367-0.083 0.771-0.137 1.213-0.162 0.45-0.033 0.861-0.051 1.236-0.051zm0.113 1.363c-0.4 0-0.73 0.012-0.988 0.037v2.949h0.764c0.758 0 1.342-0.104 1.75-0.313 0.408-0.217 0.611-0.621 0.611-1.213 0-0.283-0.054-0.519-0.162-0.711s-0.258-0.343-0.449-0.451c-0.192-0.108-0.421-0.183-0.688-0.225-0.258-0.05-0.538-0.074-0.838-0.074zm7.105 0.688c0.5 0 0.922 0.063 1.264 0.188s0.613 0.298 0.813 0.523c0.208 0.225 0.354 0.501 0.438 0.826 0.092 0.317 0.137 0.665 0.137 1.049v3.963c-0.233 0.05-0.588 0.109-1.063 0.176-0.467 0.075-0.996 0.111-1.588 0.111-0.392 0-0.749-0.036-1.074-0.111s-0.605-0.197-0.838-0.363c-0.225-0.167-0.404-0.384-0.537-0.65-0.125-0.267-0.188-0.595-0.188-0.986 0-0.375 0.071-0.693 0.213-0.951 0.15-0.258 0.35-0.467 0.6-0.625 0.25-0.167 0.536-0.283 0.861-0.35 0.333-0.075 0.681-0.111 1.039-0.111 0.167 0 0.34 0.012 0.523 0.037 0.183 0.017 0.38 0.05 0.588 0.1v-0.25c0-0.175-0.021-0.342-0.063-0.5s-0.116-0.295-0.225-0.412c-0.1-0.125-0.237-0.22-0.412-0.287-0.167-0.067-0.38-0.102-0.639-0.102-0.35 0-0.669 0.026-0.961 0.076s-0.53 0.107-0.713 0.174l-0.188-1.225c0.192-0.067 0.471-0.133 0.838-0.199 0.367-0.067 0.757-0.1 1.174-0.1zm0.301 3.773c-0.167 0-0.339 0.014-0.514 0.039-0.167 0.025-0.319 0.07-0.461 0.137-0.133 0.067-0.243 0.162-0.326 0.287-0.083 0.117-0.125 0.268-0.125 0.451 0 0.358 0.113 0.608 0.338 0.75 0.225 0.133 0.529 0.199 0.912 0.199 0.467 0 0.821-0.024 1.063-0.074v-1.676c-0.083-0.025-0.203-0.049-0.361-0.074s-0.334-0.039-0.525-0.039zm5.164 1.094h0.531v4.332h-0.756v-3.318c-0.113 0.088-0.253 0.173-0.424 0.256s-0.336 0.153-0.494 0.207l-0.232-0.576c0.242-0.096 0.485-0.219 0.727-0.369 0.246-0.15 0.461-0.327 0.648-0.531z" fill="#2e3440"/>
</svg>
