<svg viewBox="0 0 24 24" xmlns="http://www.w3.org/2000/svg">
 <path d="m4 2c-1.108 0-2 0.892-2 2v16c0 1.108 0.892 2 2 2h16c1.108 0 2-0.892 2-2v-16c0-1.108-0.892-2-2-2h-16zm2.43 5.387c0.358 0 0.683 0.03 0.975 0.088 0.292 0.05 0.545 0.109 0.762 0.176s0.395 0.138 0.537 0.213 0.242 0.129 0.301 0.162l-0.463 1.287c-0.2-0.125-0.486-0.241-0.861-0.35-0.367-0.117-0.768-0.176-1.201-0.176-0.375 0-0.724 0.068-1.049 0.201-0.325 0.125-0.61 0.316-0.852 0.574-0.233 0.258-0.415 0.583-0.549 0.975-0.133 0.392-0.201 0.847-0.201 1.363 0 0.458 0.05 0.878 0.15 1.262 0.108 0.383 0.272 0.717 0.488 1 0.217 0.275 0.491 0.492 0.824 0.65 0.333 0.15 0.735 0.225 1.201 0.225 0.558 0 1.011-0.054 1.361-0.162 0.35-0.117 0.621-0.224 0.813-0.324l0.426 1.287c-0.1 0.067-0.237 0.133-0.412 0.199-0.167 0.067-0.368 0.135-0.602 0.201-0.233 0.058-0.495 0.103-0.787 0.137-0.292 0.042-0.604 0.063-0.938 0.063-0.65 0-1.233-0.101-1.75-0.301s-0.954-0.492-1.313-0.875c-0.358-0.392-0.633-0.865-0.824-1.424-0.192-0.558-0.287-1.201-0.287-1.926s0.108-1.365 0.324-1.924c0.225-0.558 0.529-1.031 0.912-1.414 0.383-0.392 0.833-0.687 1.35-0.887s1.072-0.301 1.664-0.301zm5.82 2.188c0.45 0 0.816 0.059 1.1 0.176 0.292 0.117 0.533 0.271 0.725 0.463 0.092-0.067 0.208-0.138 0.35-0.213s0.302-0.141 0.477-0.199c0.175-0.067 0.357-0.122 0.549-0.164 0.2-0.042 0.4-0.063 0.6-0.063 0.508 0 0.925 0.077 1.25 0.227 0.333 0.142 0.592 0.345 0.775 0.611 0.192 0.258 0.322 0.576 0.389 0.951 0.075 0.367 0.111 0.769 0.111 1.211v3.676h-1.512v-3.438c0-0.683-0.083-1.175-0.25-1.475-0.167-0.308-0.488-0.463-0.963-0.463-0.242 0-0.471 0.042-0.688 0.125-0.217 0.075-0.38 0.15-0.488 0.225 0.067 0.208 0.114 0.429 0.139 0.662s0.037 0.483 0.037 0.75v3.613h-1.512v-3.438c0-0.683-0.089-1.175-0.264-1.475-0.167-0.308-0.483-0.463-0.949-0.463-0.167 0-0.351 0.012-0.551 0.037s-0.349 0.046-0.449 0.063v5.275h-1.514v-6.324c0.292-0.083 0.672-0.163 1.139-0.238 0.475-0.075 0.975-0.113 1.5-0.113zm7.984 4.744c0.242 0 0.45 0.03 0.625 0.088s0.317 0.142 0.43 0.25c0.117 0.104 0.204 0.229 0.258 0.375 0.058 0.142 0.086 0.298 0.086 0.469 0 0.2-0.055 0.379-0.168 0.537-0.108 0.158-0.251 0.28-0.426 0.363 0.225 0.079 0.411 0.209 0.557 0.393 0.15 0.183 0.225 0.42 0.225 0.707 0 0.192-0.033 0.37-0.1 0.537-0.067 0.163-0.169 0.305-0.307 0.426-0.137 0.117-0.311 0.21-0.523 0.281-0.208 0.067-0.458 0.1-0.75 0.1-0.113 0-0.231-9e-3 -0.352-0.025-0.117-0.012-0.228-0.032-0.336-0.057-0.104-0.021-0.202-0.043-0.289-0.068-0.087-0.029-0.153-0.055-0.199-0.08l0.15-0.645c0.087 0.042 0.214 0.09 0.381 0.145 0.167 0.05 0.373 0.074 0.619 0.074 0.329 0 0.567-0.063 0.713-0.188 0.146-0.129 0.219-0.299 0.219-0.512 0-0.137-0.03-0.252-0.088-0.344-0.054-0.092-0.132-0.165-0.232-0.219-0.096-0.058-0.207-0.098-0.336-0.119-0.125-0.025-0.259-0.037-0.4-0.037h-0.256v-0.613h0.313c0.096 0 0.191-9e-3 0.287-0.025 0.1-0.021 0.188-0.054 0.268-0.1 0.079-0.05 0.145-0.114 0.195-0.193s0.074-0.182 0.074-0.307c0-0.1-0.019-0.185-0.057-0.256s-0.088-0.13-0.15-0.176c-0.058-0.046-0.126-0.079-0.205-0.1s-0.163-0.031-0.25-0.031c-0.188 0-0.354 0.03-0.5 0.088-0.146 0.054-0.276 0.117-0.389 0.188l-0.273-0.563c0.058-0.037 0.128-0.077 0.211-0.119s0.175-0.082 0.275-0.119c0.104-0.037 0.215-0.067 0.332-0.088 0.117-0.025 0.24-0.037 0.369-0.037z" fill="#2e3440"/>
</svg>
