<svg viewBox="0 0 24 24" xmlns="http://www.w3.org/2000/svg">
 <path d="m4 2c-1.108 0-2 0.892-2 2v16c0 1.108 0.892 2 2 2h16c1.108 0 2-0.892 2-2v-16c0-1.108-0.892-2-2-2h-16zm1.432 5.838h1.576v3.574c0.275-0.275 0.561-0.567 0.861-0.875 0.3-0.317 0.597-0.633 0.889-0.949 0.3-0.325 0.583-0.637 0.85-0.938 0.267-0.3 0.508-0.571 0.725-0.813h1.889c-0.275 0.317-0.567 0.645-0.875 0.986-0.308 0.342-0.626 0.689-0.951 1.039-0.325 0.342-0.653 0.682-0.986 1.023-0.325 0.342-0.646 0.668-0.963 0.977 0.35 0.267 0.704 0.579 1.063 0.938 0.367 0.35 0.724 0.728 1.074 1.137 0.35 0.4 0.683 0.82 1 1.262 0.325 0.433 0.622 0.867 0.889 1.301h-1.863c-0.217-0.333-0.467-0.684-0.75-1.051s-0.584-0.721-0.9-1.063c-0.308-0.342-0.63-0.666-0.963-0.975-0.333-0.308-0.661-0.574-0.986-0.799v3.887h-1.576v-8.662zm7.762 2.125h1.512v3.424c0 0.7 0.101 1.2 0.301 1.5 0.208 0.3 0.566 0.451 1.074 0.451 0.183 0 0.374-9e-3 0.574-0.025 0.208-0.017 0.363-0.037 0.463-0.063v-5.287h1.514v6.338c-0.292 0.075-0.672 0.15-1.139 0.225-0.467 0.083-0.979 0.125-1.537 0.125-0.525 0-0.966-0.075-1.324-0.225-0.35-0.15-0.635-0.358-0.852-0.625-0.208-0.267-0.358-0.585-0.449-0.951-0.092-0.375-0.137-0.783-0.137-1.225v-3.662z" fill="#2e3440"/>
</svg>
