<svg viewBox="0 0 24 24" xmlns="http://www.w3.org/2000/svg">
 <path d="m4 2c-1.108 0-2 0.892-2 2v16c0 1.108 0.892 2 2 2h16c1.108 0 2-0.892 2-2v-16c0-1.108-0.892-2-2-2h-16zm3.943 5.75c0.725 0 1.388 0.087 1.988 0.262 0.6 0.167 1.112 0.434 1.537 0.801 0.433 0.358 0.767 0.817 1 1.375 0.233 0.55 0.35 1.208 0.35 1.975 0 0.75-0.116 1.405-0.35 1.963-0.233 0.55-0.567 1.012-1 1.387-0.425 0.367-0.94 0.643-1.549 0.826-0.6 0.175-1.267 0.262-2 0.262-0.35 0-0.746-0.015-1.188-0.049-0.442-0.025-0.864-0.084-1.264-0.176v-8.412c0.4-0.092 0.825-0.151 1.275-0.176s0.849-0.037 1.199-0.037zm0.102 1.363c-0.467 0-0.8 0.012-1 0.037v6.05c0.092 8e-3 0.211 0.017 0.361 0.025h0.613c1.058 0 1.845-0.265 2.361-0.799 0.525-0.542 0.789-1.297 0.789-2.264 0-0.983-0.255-1.737-0.764-2.262-0.508-0.525-1.295-0.787-2.361-0.787zm6.04 0.85h4.963v1.063c-0.167 0.175-0.387 0.42-0.662 0.736-0.267 0.317-0.555 0.671-0.863 1.063-0.308 0.383-0.621 0.788-0.938 1.213-0.308 0.417-0.586 0.818-0.836 1.201h3.375v1.262h-5.201v-0.938c0.183-0.333 0.412-0.696 0.688-1.088 0.275-0.392 0.558-0.782 0.85-1.174 0.292-0.4 0.58-0.78 0.863-1.139 0.292-0.358 0.55-0.671 0.775-0.938h-3.01v-1.262z" fill="#2e3440"/>
</svg>
