
<svg xmlns="http://www.w3.org/2000/svg" xmlns:xlink="http://www.w3.org/1999/xlink" width="24" height="24" viewBox="0 0 24 24">
<path fill-rule="nonzero" fill="rgb(18.039216%, 20.392157%, 25.098041%)" fill-opacity="1" d="M 3.707031 0.707031 C 2.910156 0.707031 2.148438 1.023438 1.585938 1.585938 C 0.414062 2.757812 0.414062 4.65625 1.585938 5.828125 L 7.757812 12 L 1.585938 18.171875 C 0.414062 19.34375 0.414062 21.242188 1.585938 22.414062 C 2.757812 23.585938 4.65625 23.585938 5.828125 22.414062 L 12 16.242188 L 18.171875 22.414062 C 19.34375 23.585938 21.242188 23.585938 22.414062 22.414062 C 23.585938 21.242188 23.585938 19.34375 22.414062 18.171875 L 16.242188 12 L 22.417969 5.828125 C 23.589844 4.65625 23.589844 2.757812 22.417969 1.585938 C 21.855469 1.023438 21.089844 0.707031 20.292969 0.707031 C 19.5 0.707031 18.734375 1.023438 18.171875 1.585938 L 12 7.757812 L 5.828125 1.585938 C 5.265625 1.023438 4.5 0.707031 3.707031 0.707031 Z M 3.707031 2.582031 C 4.003906 2.582031 4.289062 2.699219 4.5 2.910156 L 12 10.410156 L 19.5 2.910156 C 19.710938 2.699219 19.996094 2.582031 20.292969 2.582031 C 20.59375 2.582031 20.878906 2.699219 21.089844 2.910156 C 21.53125 3.347656 21.53125 4.0625 21.089844 4.5 L 13.589844 12 L 21.089844 19.5 C 21.53125 19.9375 21.53125 20.652344 21.089844 21.089844 C 20.652344 21.53125 19.9375 21.53125 19.5 21.089844 L 12 13.589844 L 4.5 21.089844 C 4.0625 21.53125 3.347656 21.53125 2.910156 21.089844 C 2.46875 20.652344 2.46875 19.9375 2.910156 19.5 L 10.410156 12 L 2.910156 4.5 C 2.46875 4.0625 2.46875 3.347656 2.910156 2.910156 C 3.121094 2.699219 3.40625 2.582031 3.707031 2.582031 Z M 3.707031 2.582031 "/>
</svg>
