<svg viewBox="0 0 24 24" xmlns="http://www.w3.org/2000/svg">
 <path d="m4 2c-1.108 0-2 0.892-2 2v16c0 1.108 0.892 2 2 2h16c1.108 0 2-0.892 2-2v-16c0-1.108-0.892-2-2-2h-16zm2.389 5.5c0.525 0 1.01 0.042 1.461 0.125 0.45 0.075 0.839 0.203 1.164 0.387 0.333 0.183 0.59 0.427 0.773 0.727s0.275 0.67 0.275 1.111c0 0.408-0.099 0.759-0.299 1.051-0.192 0.292-0.463 0.524-0.813 0.699 0.525 0.175 0.912 0.434 1.162 0.775 0.25 0.342 0.375 0.776 0.375 1.301 0 0.892-0.325 1.562-0.975 2.01-0.65 0.442-1.647 0.662-2.988 0.662-0.458 0-0.92-0.015-1.387-0.049-0.467-0.025-0.877-0.084-1.227-0.176v-8.412c0.183-0.033 0.38-0.063 0.588-0.088 0.208-0.033 0.422-0.058 0.639-0.074 0.217-0.017 0.428-0.031 0.637-0.039 0.217-8e-3 0.422-0.012 0.613-0.012zm0.199 1.287c-0.242 0-0.459 5e-3 -0.65 0.014-0.183 8e-3 -0.341 0.02-0.475 0.037v2.275h1.113c0.6 0 1.07-0.083 1.412-0.25 0.342-0.175 0.512-0.484 0.512-0.926 0-0.417-0.179-0.712-0.537-0.887-0.35-0.175-0.808-0.264-1.375-0.264zm4.604 0.926h1.611c0.083 0.35 0.184 0.728 0.301 1.137 0.125 0.408 0.259 0.825 0.4 1.25 0.142 0.417 0.291 0.833 0.449 1.25s0.316 0.804 0.475 1.162c0.267-0.742 0.517-1.528 0.75-2.361 0.233-0.842 0.447-1.654 0.639-2.438h1.563c-0.675 2.483-1.458 4.733-2.35 6.75-0.167 0.375-0.339 0.696-0.514 0.963s-0.371 0.487-0.588 0.662-0.458 0.3-0.725 0.375c-0.267 0.083-0.574 0.125-0.924 0.125-0.233 0-0.468-0.026-0.701-0.076-0.225-0.05-0.395-0.104-0.512-0.162l0.275-1.213c0.3 0.117 0.595 0.176 0.887 0.176 0.392 0 0.695-0.095 0.912-0.287 0.225-0.183 0.421-0.472 0.588-0.863-0.475-0.917-0.933-1.917-1.375-3-0.433-1.083-0.82-2.233-1.162-3.449zm-5.729 2.637v2.639c0.175 0.017 0.362 0.029 0.563 0.037 0.2 8e-3 0.384 0.012 0.551 0.012 0.325 0 0.623-0.021 0.898-0.063 0.283-0.042 0.527-0.113 0.727-0.213 0.208-0.108 0.37-0.249 0.486-0.424 0.125-0.175 0.188-0.401 0.188-0.676 0-0.492-0.179-0.834-0.537-1.025-0.358-0.192-0.855-0.287-1.488-0.287h-1.387zm14.05 2.068h0.531v4.332h-0.756v-3.318c-0.113 0.088-0.255 0.173-0.426 0.256s-0.334 0.153-0.492 0.207l-0.232-0.576c0.242-0.096 0.483-0.219 0.725-0.369 0.246-0.15 0.463-0.327 0.65-0.531z" fill="#2e3440"/>
</svg>
