<svg viewBox="0 0 24 24" xmlns="http://www.w3.org/2000/svg">
 <path d="m4 2c-1.108 0-2 0.892-2 2v16c0 1.108 0.892 2 2 2h16c1.108 0 2-0.892 2-2v-16c0-1.108-0.892-2-2-2h-16zm8.674 4.551v3.236c0.167-0.058 0.36-0.109 0.576-0.15 0.225-0.042 0.445-0.063 0.662-0.063 0.525 0 0.959 0.077 1.301 0.227 0.35 0.142 0.628 0.345 0.836 0.611 0.208 0.258 0.354 0.571 0.438 0.938 0.092 0.367 0.139 0.775 0.139 1.225v3.676h-1.514v-3.438c0-0.35-0.024-0.645-0.074-0.887-0.042-0.25-0.116-0.452-0.225-0.602-0.1-0.158-0.237-0.269-0.412-0.336-0.175-0.075-0.392-0.113-0.65-0.113-0.2 0-0.405 0.021-0.613 0.063s-0.363 0.08-0.463 0.113v5.199h-1.512v-9.449l1.512-0.25zm-9.539 1.037h6.914v1.361h-2.664v7.301h-1.586v-7.301h-2.664v-1.361zm16.277 6.83h0.531v4.332h-0.756v-3.318c-0.113 0.088-0.255 0.173-0.426 0.256s-0.334 0.153-0.492 0.207l-0.232-0.576c0.242-0.096 0.483-0.219 0.725-0.369 0.246-0.15 0.463-0.327 0.65-0.531z" fill="#2e3440"/>
</svg>
