<svg viewBox="0 0 24 24" xmlns="http://www.w3.org/2000/svg">
 <path d="m4 2c-1.108 0-2 0.892-2 2v16c0 1.108 0.892 2 2 2h16c1.108 0 2-0.892 2-2v-16c0-1.108-0.892-2-2-2h-16zm0.768 5.588h5.475v1.338h-3.9v2.211h3.463v1.338h-3.463v3.775h-1.574v-8.662zm8.424 1.963c0.5 0 0.92 0.063 1.262 0.188s0.613 0.298 0.813 0.523c0.208 0.225 0.354 0.501 0.438 0.826 0.092 0.317 0.137 0.665 0.137 1.049v3.963c-0.233 0.05-0.588 0.109-1.063 0.176-0.467 0.075-0.994 0.111-1.586 0.111-0.392 0-0.751-0.036-1.076-0.111s-0.605-0.197-0.838-0.363c-0.225-0.167-0.404-0.384-0.537-0.65-0.125-0.267-0.188-0.595-0.188-0.986 0-0.375 0.071-0.693 0.213-0.951 0.15-0.258 0.35-0.467 0.6-0.625 0.25-0.167 0.538-0.283 0.863-0.35 0.333-0.075 0.679-0.111 1.037-0.111 0.167 0 0.342 0.012 0.525 0.037 0.183 0.017 0.38 0.05 0.588 0.1v-0.25c0-0.175-0.021-0.342-0.063-0.5s-0.118-0.295-0.227-0.412c-0.1-0.125-0.237-0.22-0.412-0.287-0.167-0.067-0.378-0.102-0.637-0.102-0.35 0-0.671 0.026-0.963 0.076s-0.53 0.107-0.713 0.174l-0.188-1.225c0.192-0.067 0.471-0.133 0.838-0.199 0.367-0.067 0.759-0.1 1.176-0.1zm0.299 3.773c-0.167 0-0.337 0.014-0.512 0.039-0.167 0.025-0.321 0.07-0.463 0.137-0.133 0.067-0.241 0.162-0.324 0.287-0.083 0.117-0.125 0.268-0.125 0.451 0 0.358 0.111 0.608 0.336 0.75 0.225 0.133 0.531 0.199 0.914 0.199 0.467 0 0.821-0.024 1.063-0.074v-1.676c-0.083-0.025-0.205-0.049-0.363-0.074s-0.334-0.039-0.525-0.039zm5.354 1.094h0.719v2.676h0.486v0.619h-0.486v1.037h-0.738v-1.037h-1.9v-0.537c0.083-0.183 0.195-0.395 0.332-0.633 0.142-0.238 0.298-0.48 0.469-0.73s0.351-0.497 0.543-0.738c0.192-0.242 0.385-0.46 0.576-0.656zm-0.02 0.932c-0.1 0.121-0.204 0.251-0.313 0.389-0.104 0.137-0.207 0.28-0.307 0.43s-0.195 0.305-0.287 0.463c-0.092 0.154-0.175 0.309-0.25 0.463h1.156v-1.744z" fill="#2e3440"/>
</svg>
