<svg viewBox="0 0 24 24" xmlns="http://www.w3.org/2000/svg">
 <path d="m4 2c-1.108 0-2 0.892-2 2v16c0 1.108 0.892 2 2 2h16c1.108 0 2-0.892 2-2v-16c0-1.108-0.892-2-2-2h-16zm1.463 5.588h5.475v1.338h-3.9v2.211h3.463v1.338h-3.463v3.775h-1.574v-8.662zm9.04 1.986c0.1 0 0.216 9e-3 0.35 0.025 0.133 8e-3 0.267 0.026 0.4 0.051 0.133 0.017 0.262 0.041 0.387 0.074 0.125 0.025 0.226 0.051 0.301 0.076l-0.264 1.273c-0.125-0.042-0.298-0.083-0.523-0.125-0.217-0.05-0.472-0.074-0.764-0.074-0.167 0-0.345 0.017-0.537 0.051-0.183 0.033-0.312 0.061-0.387 0.086v5.238h-1.514v-6.225c0.292-0.108 0.655-0.209 1.088-0.301 0.442-0.1 0.93-0.15 1.463-0.15zm3.203 4.744c0.508 0 0.892 0.165 1.15 0.494 0.262 0.325 0.395 0.785 0.395 1.381 0 0.842-0.217 1.479-0.65 1.912s-1.098 0.652-1.994 0.656l-0.031-0.631c0.25 0 0.476-0.021 0.676-0.063 0.204-0.042 0.381-0.108 0.531-0.199 0.154-0.092 0.283-0.212 0.387-0.357 0.104-0.15 0.184-0.332 0.238-0.549-0.1 0.046-0.211 0.08-0.332 0.105s-0.237 0.037-0.35 0.037c-0.258 0-0.479-0.033-0.662-0.1-0.179-0.071-0.327-0.166-0.443-0.287-0.113-0.125-0.196-0.269-0.25-0.432s-0.082-0.338-0.082-0.525c0-0.162 0.028-0.326 0.082-0.492 0.054-0.171 0.139-0.327 0.256-0.469s0.264-0.256 0.443-0.344c0.179-0.092 0.391-0.139 0.637-0.139zm0.02 0.625c-0.121 0-0.225 0.026-0.313 0.076-0.083 0.05-0.153 0.114-0.207 0.193s-0.092 0.164-0.117 0.256-0.039 0.182-0.039 0.27c0 0.254 0.061 0.445 0.182 0.574 0.125 0.129 0.32 0.193 0.582 0.193 0.121 0 0.239-0.01 0.355-0.031 0.117-0.025 0.217-0.06 0.301-0.105 4e-3 -0.046 6e-3 -0.086 6e-3 -0.119v-0.088c0-0.167-0.012-0.323-0.037-0.469-0.021-0.15-0.061-0.278-0.119-0.387-0.054-0.113-0.13-0.201-0.23-0.264-0.096-0.067-0.217-0.1-0.363-0.1z" fill="#2e3440"/>
</svg>
