<svg viewBox="0 0 24 24" xmlns="http://www.w3.org/2000/svg">
 <path d="m4 2c-1.108 0-2 0.892-2 2v16c0 1.108 0.892 2 2 2h16c1.108 0 2-0.892 2-2v-16c0-1.108-0.892-2-2-2h-16zm0.254 5.588h1.576v3.463h3.762v-3.463h1.576v8.662h-1.576v-3.838h-3.762v3.838h-1.576v-8.662zm11.461 1.986c0.1 0 0.216 9e-3 0.35 0.025 0.133 8e-3 0.267 0.026 0.4 0.051 0.133 0.017 0.262 0.041 0.387 0.074 0.125 0.025 0.226 0.051 0.301 0.076l-0.264 1.273c-0.125-0.042-0.3-0.083-0.525-0.125-0.217-0.05-0.47-0.074-0.762-0.074-0.167 0-0.345 0.017-0.537 0.051-0.183 0.033-0.314 0.061-0.389 0.086v5.238h-1.512v-6.225c0.292-0.108 0.655-0.209 1.088-0.301 0.442-0.1 0.93-0.15 1.463-0.15zm3.084 4.744c0.242 0 0.45 0.03 0.625 0.088s0.319 0.142 0.432 0.25c0.117 0.104 0.202 0.229 0.256 0.375 0.058 0.142 0.088 0.298 0.088 0.469 0 0.2-0.055 0.379-0.168 0.537-0.108 0.158-0.251 0.28-0.426 0.363 0.225 0.079 0.411 0.209 0.557 0.393 0.15 0.183 0.225 0.42 0.225 0.707 0 0.192-0.033 0.37-0.1 0.537-0.067 0.163-0.169 0.305-0.307 0.426-0.137 0.117-0.313 0.21-0.525 0.281-0.208 0.067-0.458 0.1-0.75 0.1-0.113 0-0.229-9e-3 -0.35-0.025-0.117-0.012-0.23-0.032-0.338-0.057-0.104-0.021-0.2-0.043-0.287-0.068-0.087-0.029-0.153-0.055-0.199-0.08l0.15-0.645c0.087 0.042 0.214 0.09 0.381 0.145 0.167 0.05 0.373 0.074 0.619 0.074 0.329 0 0.565-0.063 0.711-0.188 0.146-0.129 0.219-0.299 0.219-0.512 0-0.137-0.028-0.252-0.086-0.344-0.054-0.092-0.132-0.165-0.232-0.219-0.096-0.058-0.209-0.098-0.338-0.119-0.125-0.025-0.257-0.037-0.398-0.037h-0.258v-0.613h0.313c0.096 0 0.193-9e-3 0.289-0.025 0.1-0.021 0.188-0.054 0.268-0.1 0.079-0.05 0.143-0.114 0.193-0.193s0.076-0.182 0.076-0.307c0-0.1-0.019-0.185-0.057-0.256s-0.088-0.13-0.15-0.176c-0.058-0.046-0.126-0.079-0.205-0.1s-0.163-0.031-0.25-0.031c-0.188 0-0.354 0.03-0.5 0.088-0.146 0.054-0.276 0.117-0.389 0.188l-0.275-0.563c0.058-0.037 0.13-0.077 0.213-0.119s0.175-0.082 0.275-0.119c0.104-0.037 0.215-0.067 0.332-0.088 0.117-0.025 0.238-0.037 0.367-0.037z" fill="#2e3440"/>
</svg>
