<svg viewBox="0 0 24 24" xmlns="http://www.w3.org/2000/svg">
 <path d="m4 2c-1.108 0-2 0.892-2 2v16c0 1.108 0.892 2 2 2h16c1.108 0 2-0.892 2-2v-16c0-1.108-0.892-2-2-2h-16zm8.955 4.551v3.236c0.167-0.058 0.358-0.109 0.574-0.15 0.225-0.042 0.447-0.063 0.664-0.063 0.525 0 0.957 0.077 1.299 0.227 0.35 0.142 0.63 0.345 0.838 0.611 0.208 0.258 0.354 0.571 0.438 0.938 0.092 0.367 0.137 0.775 0.137 1.225v3.676h-1.512v-3.438c0-0.35-0.024-0.645-0.074-0.887-0.042-0.25-0.118-0.452-0.227-0.602-0.1-0.158-0.237-0.269-0.412-0.336-0.175-0.075-0.392-0.113-0.65-0.113-0.2 0-0.403 0.021-0.611 0.063s-0.363 0.08-0.463 0.113v5.199h-1.512v-9.449l1.512-0.25zm-6.775 0.949c1.258 0 2.22 0.229 2.887 0.688 0.675 0.458 1.014 1.175 1.014 2.15 0 0.508-0.092 0.946-0.275 1.313-0.175 0.358-0.434 0.653-0.775 0.887-0.342 0.225-0.758 0.392-1.25 0.5s-1.054 0.162-1.688 0.162h-0.787v3.051h-1.574v-8.537c0.367-0.083 0.769-0.137 1.211-0.162 0.45-0.033 0.863-0.051 1.238-0.051zm0.113 1.363c-0.4 0-0.73 0.012-0.988 0.037v2.949h0.762c0.758 0 1.342-0.104 1.75-0.313 0.408-0.217 0.613-0.621 0.613-1.213 0-0.283-0.054-0.519-0.162-0.711s-0.26-0.343-0.451-0.451c-0.192-0.108-0.421-0.183-0.688-0.225-0.258-0.05-0.536-0.074-0.836-0.074zm13.15 5.455c0.508 0 0.892 0.165 1.15 0.494 0.262 0.325 0.393 0.785 0.393 1.381 0 0.842-0.217 1.479-0.65 1.912s-1.096 0.652-1.992 0.656l-0.031-0.631c0.25 0 0.474-0.021 0.674-0.063 0.204-0.042 0.381-0.108 0.531-0.199 0.154-0.092 0.285-0.212 0.389-0.357 0.104-0.15 0.182-0.332 0.236-0.549-0.1 0.046-0.209 0.08-0.33 0.105s-0.239 0.037-0.352 0.037c-0.258 0-0.479-0.033-0.662-0.1-0.179-0.071-0.327-0.166-0.443-0.287-0.113-0.125-0.196-0.269-0.25-0.432s-0.082-0.338-0.082-0.525c0-0.162 0.028-0.326 0.082-0.492 0.054-0.171 0.139-0.327 0.256-0.469s0.264-0.256 0.443-0.344c0.179-0.092 0.393-0.139 0.639-0.139zm0.018 0.625c-0.121 0-0.225 0.026-0.313 0.076-0.083 0.05-0.151 0.114-0.205 0.193s-0.094 0.164-0.119 0.256-0.037 0.182-0.037 0.27c0 0.254 0.061 0.445 0.182 0.574 0.125 0.129 0.318 0.193 0.58 0.193 0.121 0 0.241-0.01 0.357-0.031 0.117-0.025 0.215-0.06 0.299-0.105 4e-3 -0.046 6e-3 -0.086 6e-3 -0.119v-0.088c0-0.167-0.012-0.323-0.037-0.469-0.021-0.15-0.061-0.278-0.119-0.387-0.054-0.113-0.13-0.201-0.23-0.264-0.096-0.067-0.217-0.1-0.363-0.1z" fill="#2e3440"/>
</svg>
