<svg viewBox="0 0 24 24" xmlns="http://www.w3.org/2000/svg">
 <path d="m4 2c-1.108 0-2 0.892-2 2v16c0 1.108 0.892 2 2 2h16c1.108 0 2-0.892 2-2v-16c0-1.108-0.892-2-2-2h-16zm8.955 4.551v3.236c0.167-0.058 0.358-0.109 0.574-0.15 0.225-0.042 0.447-0.063 0.664-0.063 0.525 0 0.957 0.077 1.299 0.227 0.35 0.142 0.63 0.345 0.838 0.611 0.208 0.258 0.354 0.571 0.438 0.938 0.092 0.367 0.137 0.775 0.137 1.225v3.676h-1.512v-3.438c0-0.35-0.024-0.645-0.074-0.887-0.042-0.25-0.118-0.452-0.227-0.602-0.1-0.158-0.237-0.269-0.412-0.336-0.175-0.075-0.392-0.113-0.65-0.113-0.2 0-0.403 0.021-0.611 0.063s-0.363 0.08-0.463 0.113v5.199h-1.512v-9.449l1.512-0.25zm-6.775 0.949c1.258 0 2.22 0.229 2.887 0.688 0.675 0.458 1.014 1.175 1.014 2.15 0 0.508-0.092 0.946-0.275 1.313-0.175 0.358-0.434 0.653-0.775 0.887-0.342 0.225-0.758 0.392-1.25 0.5s-1.054 0.162-1.688 0.162h-0.787v3.051h-1.574v-8.537c0.367-0.083 0.769-0.137 1.211-0.162 0.45-0.033 0.863-0.051 1.238-0.051zm0.113 1.363c-0.4 0-0.73 0.012-0.988 0.037v2.949h0.762c0.758 0 1.342-0.104 1.75-0.313 0.408-0.217 0.613-0.621 0.613-1.213 0-0.283-0.054-0.519-0.162-0.711s-0.26-0.343-0.451-0.451c-0.192-0.108-0.421-0.183-0.688-0.225-0.258-0.05-0.536-0.074-0.836-0.074zm11.793 5.555h2.895v0.576c-0.137 0.154-0.287 0.364-0.449 0.631-0.163 0.267-0.317 0.569-0.463 0.906-0.146 0.333-0.273 0.691-0.381 1.074-0.104 0.383-0.17 0.765-0.195 1.145h-0.773c0.025-0.317 0.08-0.65 0.168-1 0.087-0.35 0.193-0.69 0.318-1.02 0.129-0.333 0.27-0.642 0.42-0.93 0.154-0.292 0.305-0.537 0.455-0.732h-1.994v-0.65z" fill="#2e3440"/>
</svg>
