<svg viewBox="0 0 24 24" xmlns="http://www.w3.org/2000/svg">
 <path d="m4 2c-1.108 0-2 0.892-2 2v16c0 1.108 0.892 2 2 2h16c1.108 0 2-0.892 2-2v-16c0-1.108-0.892-2-2-2h-16zm1.463 5.588h5.475v1.338h-3.9v2.211h3.463v1.338h-3.463v3.775h-1.574v-8.662zm9.04 1.986c0.1 0 0.216 9e-3 0.35 0.025 0.133 8e-3 0.267 0.026 0.4 0.051 0.133 0.017 0.262 0.041 0.387 0.074 0.125 0.025 0.226 0.051 0.301 0.076l-0.264 1.273c-0.125-0.042-0.298-0.083-0.523-0.125-0.217-0.05-0.472-0.074-0.764-0.074-0.167 0-0.345 0.017-0.537 0.051-0.183 0.033-0.312 0.061-0.387 0.086v5.238h-1.514v-6.225c0.292-0.108 0.655-0.209 1.088-0.301 0.442-0.1 0.93-0.15 1.463-0.15zm3.453 4.844h0.531v4.332h-0.756v-3.318c-0.113 0.088-0.253 0.173-0.424 0.256s-0.336 0.153-0.494 0.207l-0.232-0.576c0.242-0.096 0.485-0.219 0.727-0.369 0.246-0.15 0.461-0.327 0.648-0.531z" fill="#2e3440"/>
</svg>
