<svg viewBox="0 0 24 24" xmlns="http://www.w3.org/2000/svg">
 <g transform="translate(0 -1028.9)" fill="#2e3440">
  <path d="m10 1045.9-2 2c-1 1-1 1 0 1h8c1 0 1 0 0-1l-2-2v-1h-4z"/>
  <path d="m6 1032.9c-1.108 0-2 0.892-2 2v9c0 1.108 0.892 2 2 2h12c1.108 0 2-0.892 2-2v-9c0-1.108-0.892-2-2-2h-12zm0 2h12v9h-12v-9z"/>
  <g transform="translate(-.11322)">
   <path d="m8.812 1041.3h2.807v1.209h-4.636v-1.209l2.328-2.055q0.312-0.282 0.461-0.551 0.15-0.269 0.15-0.56 0-0.449-0.303-0.722-0.299-0.273-0.799-0.273-0.385 0-0.842 0.167-0.457 0.162-0.978 0.487v-1.401q0.555-0.184 1.098-0.278 0.543-0.098 1.064-0.098 1.145 0 1.777 0.504 0.637 0.504 0.637 1.406 0 0.521-0.269 0.974-0.269 0.449-1.132 1.205l-1.363 1.196z"/>
   <path d="m14.791 1039.4q-0.432 0-0.649 0.282-0.214 0.278-0.214 0.837 0 0.56 0.214 0.842 0.218 0.278 0.649 0.278 0.436 0 0.649-0.278 0.218-0.282 0.218-0.842t-0.218-0.837q-0.214-0.282-0.649-0.282zm2.034-3.063v1.179q-0.406-0.192-0.765-0.282-0.359-0.094-0.701-0.094-0.735 0-1.145 0.41-0.41 0.406-0.479 1.209 0.282-0.209 0.611-0.312 0.329-0.107 0.718-0.107 0.978 0 1.577 0.572 0.602 0.572 0.602 1.5 0 1.025-0.671 1.645-0.671 0.615-1.799 0.615-1.243 0-1.927-0.837-0.679-0.842-0.679-2.384 0-1.581 0.795-2.482 0.799-0.906 2.188-0.906 0.44 0 0.854 0.068t0.82 0.205z"/>
  </g>
 </g>
</svg>
