<svg viewBox="0 0 24 24" xmlns="http://www.w3.org/2000/svg">
 <path d="m4 2c-1.108 0-2 0.892-2 2v16c0 1.108 0.892 2 2 2h16c1.108 0 2-0.892 2-2v-16c0-1.108-0.892-2-2-2h-16zm2.961 5.588h1.488c0.292 0.617 0.575 1.242 0.85 1.875s0.551 1.3 0.826 2c0.283 0.7 0.57 1.441 0.861 2.225 0.3 0.783 0.613 1.637 0.938 2.563h-1.699c-0.117-0.342-0.238-0.678-0.363-1.012-0.125-0.333-0.245-0.675-0.361-1.025h-3.65c-0.117 0.35-0.238 0.695-0.363 1.037l-0.35 1h-1.637c0.325-0.925 0.632-1.779 0.924-2.563 0.292-0.783 0.575-1.525 0.85-2.225 0.283-0.7 0.563-1.367 0.838-2s0.558-1.258 0.85-1.875zm0.713 1.674c-0.192 0.442-0.412 0.98-0.662 1.613-0.242 0.633-0.495 1.321-0.762 2.063h2.85c-0.267-0.742-0.525-1.433-0.775-2.074-0.25-0.642-0.467-1.177-0.65-1.602zm7.82 0.313c0.1 0 0.216 9e-3 0.35 0.025 0.133 8e-3 0.267 0.026 0.4 0.051 0.133 0.017 0.262 0.041 0.387 0.074 0.125 0.025 0.226 0.051 0.301 0.076l-0.262 1.273c-0.125-0.042-0.3-0.083-0.525-0.125-0.217-0.05-0.472-0.074-0.764-0.074-0.167 0-0.345 0.017-0.537 0.051-0.183 0.033-0.312 0.061-0.387 0.086v5.238h-1.514v-6.225c0.292-0.108 0.655-0.209 1.088-0.301 0.442-0.1 0.93-0.15 1.463-0.15zm1.848 4.844h2.895v0.576c-0.137 0.154-0.289 0.364-0.451 0.631-0.163 0.267-0.315 0.569-0.461 0.906-0.146 0.333-0.274 0.691-0.383 1.074-0.104 0.383-0.168 0.765-0.193 1.145h-0.775c0.025-0.317 0.082-0.65 0.17-1 0.087-0.35 0.193-0.69 0.318-1.02 0.129-0.333 0.268-0.642 0.418-0.93 0.154-0.292 0.307-0.537 0.457-0.732h-1.994v-0.65z" fill="#2e3440"/>
</svg>
