<svg viewBox="0 0 24 24" xmlns="http://www.w3.org/2000/svg">
 <path d="m4 2c-1.108 0-2 0.892-2 2v16c0 1.108 0.892 2 2 2h16c1.108 0 2-0.892 2-2v-16c0-1.108-0.892-2-2-2h-16zm8.869 4.551v5.711c0.192-0.2 0.397-0.412 0.613-0.637 0.217-0.233 0.428-0.463 0.637-0.688 0.208-0.233 0.405-0.454 0.588-0.662 0.192-0.217 0.355-0.404 0.488-0.563h1.787c-0.417 0.467-0.858 0.949-1.324 1.449-0.458 0.5-0.922 0.988-1.389 1.463 0.25 0.208 0.512 0.462 0.787 0.762 0.275 0.292 0.542 0.604 0.801 0.938 0.258 0.333 0.5 0.667 0.725 1s0.413 0.642 0.563 0.926h-1.75c-0.15-0.258-0.325-0.529-0.525-0.813-0.192-0.283-0.4-0.558-0.625-0.824-0.225-0.267-0.454-0.517-0.688-0.75-0.233-0.242-0.463-0.447-0.688-0.613v3h-1.512v-9.449l1.512-0.25zm-9.539 1.037h6.914v1.361h-2.664v7.301h-1.586v-7.301h-2.664v-1.361zm15.887 6.83h0.531v4.332h-0.756v-3.318c-0.113 0.088-0.255 0.173-0.426 0.256s-0.334 0.153-0.492 0.207l-0.232-0.576c0.242-0.096 0.483-0.219 0.725-0.369 0.246-0.15 0.463-0.327 0.65-0.531z" fill="#2e3440"/>
</svg>
