<svg viewBox="0 0 24 24" xmlns="http://www.w3.org/2000/svg">
 <path d="m18 9v4.857c0 0.57 0.188 1.064 1 1.143v-6zm-13 0v1h1v-1zm6 1v3.781c0 0.605 0 1.219 1.25 1.219h0.75v-1h-0.625c-0.256 0-0.375-0.135-0.375-0.383v-1.617h1v-1h-1v-1zm-6 1v2.856c0 0.57 0.188 1.066 1 1.145v-4zm2 0v4h1v-3h0.555c0.315 0 0.402 0.16 0.445 0.41v2.59h1v-2.725c0-0.607-0.325-1.275-1.268-1.275zm8.586 0c-1.043 0-1.836 0.72-1.836 1.996 0 1.492 0.909 2 1.857 2 0.727 0 1.137-0.232 1.529-0.613l-0.609-0.58c-0.254 0.248-0.472 0.369-0.912 0.369-0.56 0-0.881-0.37-0.881-0.871h2.516v-0.352c0-1.108-0.607-1.953-1.664-1.953zm-0.043 0.811c0.509 0 0.701 0.405 0.723 0.828h-1.531c0.011-0.173 0.034-0.281 0.1-0.422 0.109-0.234 0.371-0.406 0.709-0.406z" fill="#2e3440"/>
 <path d="m15.734 5c-1.618 0.013-3.391 0.283-5.211 0.828-0.891 0.267-1.721 0.602-2.522 0.963v1.623c0.885-0.434 1.846-0.82 2.871-1.127 2.707-0.811 5.294-0.946 7.221-0.545 1.927 0.402 3.093 1.296 3.363 2.424 0.16 0.667 2e-3 1.438-0.456 2.252v2.41c1.474-1.561 2.307-3.368 1.894-5.094-0.45-1.877-2.212-3.02-4.44-3.484-0.835-0.174-1.75-0.258-2.721-0.25zm-12.733 5.168c-1.475 1.561-2.308 3.368-1.895 5.094 0.45 1.877 2.214 3.02 4.442 3.486 2.228 0.464 5.02 0.292 7.932-0.58 0.891-0.267 1.721-0.602 2.522-0.963l-1e-3 -0.206h-3.96c-2.304 0.546-4.465 0.602-6.131 0.255-1.927-0.402-3.093-1.296-3.363-2.424-0.16-0.667-3e-3 -1.439 0.455-2.252" color-rendering="auto" fill="#2e3440" image-rendering="auto" shape-rendering="auto" solid-color="#000000" isolation="auto" mix-blend-mode="normal" white-space="normal"/>
</svg>
