<svg viewBox="0 0 24 24" xmlns="http://www.w3.org/2000/svg">
 <path d="m3 5c-0.276 0-0.5 0.224-0.5 0.5v13c0 0.276 0.224 0.5 0.5 0.5h12c0.276 0 0.5-0.224 0.5-0.5v-3.191l5.277 2.639c0.332 0.165 0.722-0.076 0.723-0.447v-11c0-0.371-0.39-0.612-0.723-0.447l-5.277 2.639v-3.191c0-0.276-0.224-0.5-0.5-0.5" color-rendering="auto" fill="#2e3440" fill-rule="evenodd" image-rendering="auto" shape-rendering="auto" solid-color="#000000" isolation="auto" mix-blend-mode="normal" white-space="normal"/>
 <path d="m9 8.25c-2.058 0-3.75 1.692-3.75 3.75s1.692 3.75 3.75 3.75 3.75-1.692 3.75-3.75-1.692-3.75-3.75-3.75" color-rendering="auto" fill="#bf616a" image-rendering="auto" shape-rendering="auto" solid-color="#000000" isolation="auto" mix-blend-mode="normal" white-space="normal"/>
</svg>
