<svg viewBox="0 0 24 24" xmlns="http://www.w3.org/2000/svg">
 <path d="m3 5c-0.276 0-0.5 0.224-0.5 0.5v13c0 0.276 0.224 0.5 0.5 0.5h12c0.276 0 0.5-0.224 0.5-0.5v-3.191l5.277 2.639c0.332 0.165 0.722-0.076 0.723-0.447v-11c0-0.371-0.39-0.612-0.723-0.447l-5.277 2.639v-3.191c0-0.276-0.224-0.5-0.5-0.5h-12m6 2c0.411 0 0.75 0.339 0.75 0.75s-0.339 0.75-0.75 0.75-0.75-0.339-0.75-0.75 0.339-0.75 0.75-0.75m-3.01 1.246c0.193 0 0.386 0.074 0.531 0.219 0.29 0.29 0.29 0.77 0 1.061-0.29 0.29-0.77 0.29-1.061 0-0.29-0.29-0.29-0.77 0-1.061 0.145-0.145 0.337-0.219 0.529-0.219zm6.01 0c0.193 0 0.384 0.074 0.529 0.219 0.29 0.29 0.29 0.77 0 1.061-0.29 0.29-0.77 0.29-1.061 0-0.29-0.29-0.29-0.77 0-1.061 0.145-0.145 0.339-0.219 0.531-0.219zm-7.256 3c0.411 0 0.75 0.339 0.75 0.75s-0.339 0.75-0.75 0.75-0.75-0.339-0.75-0.75 0.339-0.75 0.75-0.75zm8.5 0c0.411 0 0.75 0.339 0.75 0.75s-0.339 0.75-0.75 0.75-0.75-0.339-0.75-0.75 0.339-0.75 0.75-0.75zm-7.256 3.01c0.193 0 0.386 0.072 0.531 0.217 0.29 0.29 0.29 0.77 0 1.061-0.29 0.29-0.77 0.29-1.061 0-0.29-0.29-0.29-0.77 0-1.061 0.145-0.145 0.337-0.217 0.529-0.217zm6.01 0c0.193 0 0.384 0.072 0.529 0.217 0.29 0.29 0.29 0.77 0 1.061-0.29 0.29-0.77 0.29-1.061 0-0.29-0.29-0.29-0.77 0-1.061 0.145-0.145 0.339-0.217 0.531-0.217zm-3.01 1.242c0.411 0 0.75 0.339 0.75 0.75s-0.339 0.75-0.75 0.75-0.75-0.339-0.75-0.75 0.339-0.75 0.75-0.75" color-rendering="auto" fill="#2e3440" fill-rule="evenodd" image-rendering="auto" shape-rendering="auto" solid-color="#000000" isolation="auto" mix-blend-mode="normal" white-space="normal"/>
</svg>
