<svg width="24" height="24" viewBox="0 0 24 24" xmlns="http://www.w3.org/2000/svg">
 <path d="m16.414062 13.9375c0.488282-0.15625 0.902344-0.285156 0.914063-0.289062 0.027344-0.007813-0.0625-0.132813-1.183594-1.671876-0.664062-0.917968-1.207031-1.671874-1.203125-1.679687s0.550782-0.714844 1.214844-1.570313c0.839844-1.078124 1.207031-1.5625 1.195312-1.566406-0.019531-0.011718-1.867187-0.4375-1.871093-0.429687-0.136719 0.191406-2.339844 3.128906-2.347657 3.128906-0.003906 0-0.003906-0.074219-0.003906-0.167969 0.003906-0.089844 0.011719-0.8125 0.015625-1.601562l0.003907-1.4375-0.878907 0.082031c-0.484375 0.046875-0.882812 0.085937-0.886719 0.085937-0.007812 0-0.011718 1.648438-0.011718 3.664063v3.664063l0.027344-0.003907c0.015624-0.003906 0.410156-0.0625 0.878906-0.132812l0.847656-0.128907v-1.5625c0-1.546874 0-1.566406 0.023438-1.539062 0.011718 0.015625 0.546874 0.792969 1.1875 1.730469 0.640624 0.9375 1.167968 1.707031 1.175781 1.707031 0.007812 0 0.410156-0.128906 0.902343-0.28125z" fill="rgb(18.039216%, 20.392157%, 25.098041%)"/>
 <path d="m12.710938 17.332031c0.019531-0.015625 0.042968-0.097656 0.273437-1.046875l0.121094-0.488281 0.105469-0.03125c0.207031-0.058594 0.523437-0.195313 0.695312-0.296875l0.058594-0.035156 0.648437 0.425781c0.359375 0.234375 0.660157 0.429687 0.671875 0.4375 0.015625 0.007813 0.039063 0.007813 0.050782 0.003906 0.015624 0 0.195312-0.171875 0.398437-0.375 0.296875-0.296875 0.371094-0.378906 0.371094-0.402343 0-0.019532-0.058594-0.125-0.148438-0.273438-0.082031-0.132812-0.1875-0.308594-0.234375-0.390625-0.050781-0.078125-0.09375-0.148437-0.097656-0.15625-0.003906-0.003906-0.046875 0.003906-0.097656 0.015625-0.074219 0.023438-0.089844 0.023438-0.105469 0.011719-0.011719-0.007813-0.175781-0.242188-0.363281-0.519531l-0.347656-0.507813-0.046876 0.085937c-0.355468 0.660157-1.027343 1.175782-1.777343 1.367188-1.058594 0.273438-2.191407-0.097656-2.886719-0.945312-0.539062-0.65625-0.757812-1.511719-0.59375-2.34375 0.164062-0.847657 0.714844-1.582032 1.484375-1.976563l0.132813-0.066406v-0.722657l-0.078126 0.027344c-0.121093 0.046875-0.214843 0.085938-0.324218 0.144532-0.058594 0.027343-0.109375 0.046874-0.121094 0.042968-0.007812-0.003906-0.3125-0.203125-0.679688-0.441406-0.53125-0.347656-0.667968-0.433594-0.699218-0.433594-0.035156 0-0.074219 0.035156-0.410156 0.371094-0.335938 0.335938-0.367188 0.371094-0.367188 0.40625 0 0.03125 0.09375 0.195312 0.410156 0.714844 0.226563 0.371094 0.410156 0.679687 0.410156 0.683594 0 0.003906-0.03125 0.066406-0.066406 0.132812-0.082031 0.148438-0.164062 0.335938-0.226562 0.515625-0.023438 0.070313-0.046875 0.132813-0.054688 0.136719-0.003906 0.003906-0.347656 0.078125-0.761718 0.164062-0.496094 0.101563-0.757813 0.164063-0.777344 0.175782-0.023438 0.019531-0.023438 0.027343-0.027344 0.546874l-0.003906 0.523438 0.027344 0.03125c0.023437 0.027344 0.105468 0.046875 0.757812 0.207031 0.402344 0.097657 0.734375 0.179688 0.738281 0.183594 0.003907 0.003906 0.023438 0.066406 0.042969 0.132813 0.054688 0.191406 0.136719 0.398437 0.230469 0.59375 0.046875 0.097656 0.085937 0.1875 0.082031 0.195312s-0.191406 0.296875-0.417969 0.640625c-0.222656 0.34375-0.414062 0.640625-0.421875 0.660156-0.011718 0.023438-0.007812 0.039063 0.003906 0.0625 0.007813 0.015625 0.175782 0.1875 0.371094 0.386719 0.320313 0.320312 0.363282 0.355469 0.398438 0.355469 0.027344 0 0.191406-0.09375 0.691406-0.398438 0.359375-0.21875 0.664062-0.398437 0.671875-0.402343 0.007813-0.003907 0.09375 0.03125 0.1875 0.082031 0.179687 0.085937 0.375 0.167969 0.558594 0.226562l0.105469 0.03125 0.148437 0.710938c0.082031 0.394531 0.152344 0.730469 0.15625 0.753906 0.003906 0.019531 0.015625 0.046875 0.027344 0.0625 0.023437 0.019531 0.046875 0.019531 0.554687 0.019531 0.410156 0 0.535156-0.003906 0.550782-0.015625z" fill="rgb(18.039216%, 20.392157%, 25.098041%)"/>
 <path d="m6.53125 1.066406c-0.757812 0-1.367188 0.609375-1.367188 1.367188v19.132812c0 0.757813 0.609376 1.367188 1.367188 1.367188h10.9375c0.757812 0 1.367188-0.609375 1.367188-1.367188v-19.132812c0-0.757813-0.609376-1.367188-1.367188-1.367188zm0.753906 1.367188h1.296875l0.683594 0.949218c0.136719 0.1875 0.1875 0.414063 0.417969 0.414063h4.632812c0.230469 0 0.28125-0.226563 0.417969-0.414063l0.683594-0.949218h1.296875c0.417968 0 0.753906 0.332031 0.753906 0.75v17.632812c0 0.417969-0.335938 0.75-0.753906 0.75h-9.429688c-0.417968 0-0.753906-0.332031-0.753906-0.75v-17.632812c0-0.417969 0.335938-0.75 0.753906-0.75z" fill="rgb(18.039216%, 20.392157%, 25.098041%)" fill-rule="evenodd"/>
 <path d="m9.550781 20.203125h4.898438c0.15625 0 0.285156 0.125 0.285156 0.285156 0 0.15625-0.128906 0.285157-0.285156 0.285157h-4.898438c-0.15625 0-0.285156-0.128907-0.285156-0.285157 0-0.160156 0.128906-0.285156 0.285156-0.285156z" fill="rgb(18.039216%, 20.392157%, 25.098041%)" fill-rule="evenodd"/>
</svg>
