
<svg xmlns="http://www.w3.org/2000/svg" xmlns:xlink="http://www.w3.org/1999/xlink" width="24" height="24" viewBox="0 0 24 24">
<path fill-rule="nonzero" fill="rgb(18.039216%, 20.392157%, 25.098041%)" fill-opacity="1" d="M 21.980469 22.515625 L 21.980469 21.214844 L 2.019531 21.1875 L 2.019531 22.480469 C 2.019531 23.191406 2.035156 23.789062 2.054688 23.808594 C 2.074219 23.828125 6.566406 23.839844 12.035156 23.832031 L 21.980469 23.820312 Z M 10.472656 19.378906 L 10.472656 18.050781 L 2.019531 18.050781 L 2.019531 20.707031 L 10.472656 20.707031 Z M 21.980469 19.378906 L 21.980469 18.078125 L 13.714844 18.050781 L 13.714844 20.710938 L 21.980469 20.683594 Z M 10.460938 16.257812 L 10.472656 14.914062 L 2.046875 14.941406 L 2.03125 16.214844 C 2.023438 16.917969 2.03125 17.519531 2.042969 17.558594 C 2.066406 17.613281 2.902344 17.625 6.257812 17.613281 L 10.445312 17.597656 Z M 21.980469 16.269531 L 21.980469 14.941406 L 13.714844 14.914062 L 13.714844 16.234375 C 13.714844 16.960938 13.730469 17.570312 13.75 17.589844 C 13.769531 17.609375 15.628906 17.621094 17.882812 17.613281 L 21.980469 17.597656 Z M 21.980469 13.132812 L 21.980469 11.804688 L 2.046875 11.804688 L 2.03125 13.082031 C 2.023438 13.78125 2.03125 14.386719 2.042969 14.421875 C 2.066406 14.476562 4.007812 14.488281 12.023438 14.476562 L 21.980469 14.464844 Z M 6.804688 9.730469 C 6.804688 7.972656 6.839844 7.640625 7.105469 6.914062 C 7.699219 5.300781 9.039062 4.089844 10.765625 3.617188 C 11.296875 3.46875 12.726562 3.46875 13.261719 3.617188 C 14.738281 4.023438 15.945312 4.96875 16.632812 6.261719 C 17.136719 7.203125 17.222656 7.671875 17.257812 9.691406 L 17.289062 11.355469 L 20.582031 11.355469 L 20.558594 9.453125 C 20.539062 7.753906 20.523438 7.496094 20.417969 7.027344 C 20.035156 5.28125 19.292969 3.882812 18.117188 2.691406 C 16.878906 1.433594 15.472656 0.671875 13.664062 0.285156 C 13.183594 0.183594 12.945312 0.164062 12.011719 0.164062 C 10.84375 0.164062 10.316406 0.238281 9.40625 0.53125 C 6.792969 1.375 4.746094 3.398438 3.875 5.996094 C 3.523438 7.039062 3.496094 7.265625 3.46875 9.398438 L 3.445312 11.355469 L 6.804688 11.355469 Z M 6.804688 9.730469 "/>
</svg>
