<svg width="24" height="24" viewBox="0 0 50 50" xmlns="http://www.w3.org/2000/svg">
 <path d="m31.25 6.25c-6.904 0-12.5 5.596-12.5 12.5 4e-3 1.771 0.383 3.521 1.115 5.135l-1.115 1.115-6.25-6.25h-6.25v6.25l6.25 6.25-6.25 6.25v6.25h6.25l6.25-6.25 6.25 6.25h6.25v-6.25l-6.25-6.25 1.119-1.119c1.612 0.731 3.36 1.112 5.131 1.119 6.904 0 12.5-5.596 12.5-12.5s-5.596-12.5-12.5-12.5zm3.125 6.25c1.725 0 3.125 1.4 3.125 3.125s-1.4 3.125-3.125 3.125-3.125-1.4-3.125-3.125 1.4-3.125 3.125-3.125z" fill="#2e3440"/>
 <path d="m39.583 29.17c-2.308 0-4.167 1.898-4.167 4.231v2.02c-1.154 0-2.083 0.929-2.083 2.083v6.25c0 1.154 0.929 2.083 2.083 2.083h8.333c1.154 0 2.083-0.929 2.083-2.083v-6.25c0-1.154-0.929-2.083-2.083-2.083v-2.02c0-2.333-1.858-4.231-4.167-4.231zm0 2.083c1.154 0 2.083 0.921 2.083 2.083v2.083h-4.167v-2.083c0-1.163 0.929-2.083 2.083-2.083z" fill="#2e3440"/>
</svg>
