<svg viewBox="0 0 15.273 24" xmlns="http://www.w3.org/2000/svg">
 <path d="m7.658 3c-2.323-0.02-4.508 1.735-4.937 3.937s0.734 4.267 2.906 5.062v6c0 2 1.13 3.02 2 3 0.87-0.017 2-1 2-3l2-1-3-1 3-2-2-1v-1c2.186-0.758 3.326-2.759 2.938-4.969-0.389-2.209-2.584-4.01-4.907-4.03zm0 2.969c0.585 0 1.031 0.447 1.031 1.031 0 0.585-0.447 1.031-1.031 1.031s-1.031-0.447-1.031-1.031c0-0.585 0.447-1.031 1.031-1.031zm0 1c0.022 0-0.031 0.053-0.031 0.031s0.053 0.031 0.031 0.031 0.031-0.053 0.031-0.031-0.053-0.031-0.031-0.031z" fill="#bf616a"/>
</svg>
