<?xml version="1.0" encoding="UTF-8"?>
<svg xmlns="http://www.w3.org/2000/svg" xmlns:xlink="http://www.w3.org/1999/xlink" width="24px" height="24px" viewBox="0 0 24 24" version="1.1">
<g id="surface1">
<path style=" stroke:none;fill-rule:nonzero;fill:rgb(18.039216%,20.392157%,25.098041%);fill-opacity:1;" d="M 4.265625 16.917969 C 2.71875 16.917969 1.460938 18.179688 1.460938 19.71875 C 1.460938 21.265625 2.71875 22.515625 4.265625 22.515625 C 5.820312 22.515625 7.078125 21.265625 7.078125 19.71875 C 7.078125 18.179688 5.820312 16.917969 4.265625 16.917969 Z M 1.460938 8.621094 L 1.460938 12.660156 C 4.09375 12.660156 6.566406 13.691406 8.429688 15.554688 C 10.289062 17.414062 11.316406 19.898438 11.316406 22.542969 L 15.375 22.542969 C 15.375 14.867188 9.132812 8.621094 1.460938 8.621094 Z M 1.46875 1.457031 L 1.46875 5.5 C 10.851562 5.5 18.488281 13.144531 18.488281 22.539062 L 22.539062 22.539062 C 22.539062 10.917969 13.085938 1.460938 1.46875 1.460938 Z M 1.46875 1.457031 "/>
<path style=" stroke:none;fill-rule:nonzero;fill:rgb(50.588238%,63.137257%,75.686276%);fill-opacity:1;" d="M 22.546875 16.808594 C 22.546875 19.960938 20.382812 22.515625 17.714844 22.515625 C 15.046875 22.515625 12.882812 19.960938 12.882812 16.808594 C 12.882812 13.660156 15.046875 11.105469 17.714844 11.105469 C 20.382812 11.105469 22.546875 13.660156 22.546875 16.808594 Z M 22.546875 16.808594 "/>
</g>
</svg>
