<svg width="24px" height="24px" version="1.1" viewBox="0 0 24 24" xmlns="http://www.w3.org/2000/svg">
 <path d="m4.2656 16.918c-1.5469 0-2.8047 1.2617-2.8047 2.8008 0 1.5469 1.2578 2.7969 2.8047 2.7969 1.5547 0 2.8125-1.25 2.8125-2.7969 0-1.5391-1.2578-2.8008-2.8125-2.8008zm-2.8047-8.2969v4.0391c2.6328 0 5.1055 1.0312 6.9688 2.8945 1.8594 1.8594 2.8867 4.3438 2.8867 6.9883h4.0586c0-7.6758-6.2422-13.922-13.914-13.922zm0.007812-7.1641v4.043c9.3828 0 17.02 7.6445 17.02 17.039h4.0508c0-11.621-9.4531-21.078-21.07-21.078z" fill="#2e3440"/>
 <path d="m22.547 16.809c0 3.1523-2.1641 5.707-4.832 5.707-2.668 0-4.832-2.5547-4.832-5.707 0-3.1484 2.1641-5.7031 4.832-5.7031 2.668 0 4.832 2.5547 4.832 5.7031z" fill="#81a1c1"/>
</svg>
