<svg width="24" height="24" viewBox="0 0 6.7733 6.7733" xmlns="http://www.w3.org/2000/svg">
 <path d="m3.387 1.129c-1.247 0-2.258 1.01-2.258 2.258 0 0.453 0.135 0.874 0.365 1.228l0.747-1.497 0.017-0.035v-0.023l-0.235-0.136 0.141-0.244c0.029-0.049 0.061-0.096 0.095-0.141 0.275-0.367 0.716-0.582 1.181-0.564 0.361 0.013 0.637 0.252 0.885 0.5l0.956-0.317c-0.403-0.619-1.099-1.029-1.892-1.029m1.893 1.03-0.764 1.532v0.023l0.235 0.136-0.141 0.244c-0.029 0.049-0.061 0.096-0.095 0.141-0.275 0.367-0.716 0.582-1.181 0.564-0.361-0.013-0.637-0.252-0.885-0.5l-0.955 0.318c0.403 0.619 1.099 1.029 1.892 1.029 1.247 0 2.258-1.01 2.258-2.258 0-0.453-0.135-0.874-0.365-1.228z" fill="#2e3440"/>
 <g transform="matrix(.28222 0 0 .28222 -4.6776 .52917)">
  <path d="m28.721 6.125c1.309 0.048 2.5 0.737 3.203 1.818l1.389-0.463-1.572 3.146-3.145-1.574 1.277-0.426c-0.338-0.294-0.761-0.485-1.227-0.502-0.742-0.027-1.435 0.355-1.807 0.998l-1.732-1c0.74-1.282 2.134-2.053 3.613-1.998zm-3.313 3.498 3.145 1.574-1.277 0.426c0.338 0.294 0.761 0.485 1.227 0.502 0.742 0.027 1.435-0.355 1.807-0.998l1.732 1c-0.74 1.282-2.134 2.053-3.613 1.998-1.309-0.048-2.5-0.737-3.203-1.818l-1.389 0.463z" fill="#2e3440"/>
 </g>
</svg>
