<svg viewBox="0 0 24 24" xmlns="http://www.w3.org/2000/svg">
 <g transform="translate(-81 -525.36)">
  <path d="m102 532.48c-2.601-1.979-5.69-3.121-9-3.121s-6.399 1.142-9 3.121l9 12.879z" fill="#2e3440" opacity=".4"/>
 </g>
 <path d="m20 14c-1.108 0-2 0.911-2 2.031v0.969c-0.554 0-1 0.446-1 1v3c0 0.554 0.446 1 1 1h4c0.554 0 1-0.446 1-1v-3c0-0.554-0.446-1-1-1v-0.969c0-1.12-0.892-2.031-2-2.031m0 1c0.554 0 1 0.442 1 1v1h-2v-1c0-0.558 0.446-1 1-1z" fill="#2e3440"/>
 <path d="m18.75 10.341c-1.951-1.485-4.267-2.341-6.75-2.341s-4.799 0.856-6.75 2.341l6.75 9.659" fill="#2e3440"/>
</svg>
