<svg viewBox="0 0 24 24" xmlns="http://www.w3.org/2000/svg">
 <text x="877.23" y="-12.687" fill="#2e3440" font-family="Bitstream Vera Sans" font-size="12.666" opacity=".4"><tspan x="877.23" y="-12.687"/></text>
 <text x="901.19" y="-53.43" fill="#2e3440" font-family="Bitstream Vera Sans" font-size="12.666" opacity=".4"><tspan x="901.19" y="-53.43"/></text>
 <text x="-569.37" y="-83.51" fill="#2e3440" font-family="Bitstream Vera Sans" font-size="12.666" opacity=".4"><tspan x="-569.37" y="-83.51"/></text>
 <text x="-2393.06" y="662.05" fill="#2e3440" font-family="Bitstream Vera Sans" font-size="12.666" opacity=".4"><tspan x="-2393.06" y="662.05"/></text>
 <text x="-454.88" y="-468.83" fill="#2e3440" font-family="Bitstream Vera Sans" font-size="12.666" opacity=".4"><tspan x="-454.88" y="-468.83"/></text>
 <text x="352.72" y="-882.3" fill="#2e3440" font-family="Bitstream Vera Sans" font-size="12.666" opacity=".4"><tspan x="352.72" y="-882.3"/></text>
 <text x="376.68" y="-923.04" fill="#2e3440" font-family="Bitstream Vera Sans" font-size="12.666" opacity=".4"><tspan x="376.68" y="-923.04"/></text>
 <text x="-1114.78" y="-930.25" fill="#2e3440" font-family="Bitstream Vera Sans" font-size="12.666" opacity=".4"><tspan x="-1114.78" y="-930.25"/></text>
 <text x="345.76" y="-1203.48" fill="#2e3440" font-family="Bitstream Vera Sans" font-size="12.666" opacity=".4"><tspan x="345.76" y="-1203.48"/></text>
 <text x="1831.89" y="-576.79" fill="#2e3440" font-family="Bitstream Vera Sans" font-size="12.666" opacity=".4"><tspan x="1831.89" y="-576.79"/></text>
 <text x="1855.85" y="-617.53" fill="#2e3440" font-family="Bitstream Vera Sans" font-size="12.666" opacity=".4"><tspan x="1855.85" y="-617.53"/></text>
 <text x="364.38" y="-624.74" fill="#2e3440" font-family="Bitstream Vera Sans" font-size="12.666" opacity=".4"><tspan x="364.38" y="-624.74"/></text>
 <text x="1824.93" y="-897.98" fill="#2e3440" font-family="Bitstream Vera Sans" font-size="12.666" opacity=".4"><tspan x="1824.93" y="-897.98"/></text>
 <text x="-573.43" y="-672.84" fill="#2e3440" font-family="Bitstream Vera Sans" font-size="12.666" opacity=".4"><tspan x="-573.43" y="-672.84"/></text>
 <text x="-2397.12" y="72.72" fill="#2e3440" font-family="Bitstream Vera Sans" font-size="12.666" opacity=".4"><tspan x="-2397.12" y="72.72"/></text>
 <text x="-682.36" y="165.59" fill="#2e3440" font-family="Bitstream Vera Sans" font-size="12.666" opacity=".4"><tspan x="-682.36" y="165.59"/></text>
 <text x="426.66" y="-13.592" fill="#2e3440" font-family="Bitstream Vera Sans" font-size="12.666" opacity=".4"><tspan x="426.66" y="-13.592"/></text>
 <text x="450.62" y="-54.33" fill="#2e3440" font-family="Bitstream Vera Sans" font-size="12.666" opacity=".4"><tspan x="450.62" y="-54.33"/></text>
 <text x="-1040.84" y="-61.54" fill="#2e3440" font-family="Bitstream Vera Sans" font-size="12.666" opacity=".4"><tspan x="-1040.84" y="-61.54"/></text>
 <text x="419.7" y="-334.78" fill="#2e3440" font-family="Bitstream Vera Sans" font-size="12.666" opacity=".4"><tspan x="419.7" y="-334.78"/></text>
 <text x="-608.03" y="-64.26" fill="#2e3440" font-family="Bitstream Vera Sans" font-size="12.666" opacity=".4"><tspan x="-608.03" y="-64.26"/></text>
 <text x="-2431.72" y="681.3" fill="#2e3440" font-family="Bitstream Vera Sans" font-size="12.666" opacity=".4"><tspan x="-2431.72" y="681.3"/></text>
 <text x="-456.94" y="-925.79" fill="#2e3440" font-family="Bitstream Vera Sans" font-size="12.666" opacity=".4"><tspan x="-456.94" y="-925.79"/></text>
 <text x="350.66" y="-1339.26" fill="#2e3440" font-family="Bitstream Vera Sans" font-size="12.666" opacity=".4"><tspan x="350.66" y="-1339.26"/></text>
 <text x="374.62" y="-1380" fill="#2e3440" font-family="Bitstream Vera Sans" font-size="12.666" opacity=".4"><tspan x="374.62" y="-1380"/></text>
 <text x="-1116.84" y="-1387.21" fill="#2e3440" font-family="Bitstream Vera Sans" font-size="12.666" opacity=".4"><tspan x="-1116.84" y="-1387.21"/></text>
 <text x="343.7" y="-1660.44" fill="#2e3440" font-family="Bitstream Vera Sans" font-size="12.666" opacity=".4"><tspan x="343.7" y="-1660.44"/></text>
 <text x="1829.83" y="-1033.75" fill="#2e3440" font-family="Bitstream Vera Sans" font-size="12.666" opacity=".4"><tspan x="1829.83" y="-1033.75"/></text>
 <text x="1853.79" y="-1074.49" fill="#2e3440" font-family="Bitstream Vera Sans" font-size="12.666" opacity=".4"><tspan x="1853.79" y="-1074.49"/></text>
 <text x="362.32" y="-1081.7" fill="#2e3440" font-family="Bitstream Vera Sans" font-size="12.666" opacity=".4"><tspan x="362.32" y="-1081.7"/></text>
 <text x="1822.87" y="-1354.94" fill="#2e3440" font-family="Bitstream Vera Sans" font-size="12.666" opacity=".4"><tspan x="1822.87" y="-1354.94"/></text>
 <text x="-575.49" y="-1129.8" fill="#2e3440" font-family="Bitstream Vera Sans" font-size="12.666" opacity=".4"><tspan x="-575.49" y="-1129.8"/></text>
 <text x="-2399.18" y="-384.24" fill="#2e3440" font-family="Bitstream Vera Sans" font-size="12.666" opacity=".4"><tspan x="-2399.18" y="-384.24"/></text>
 <text x="-684.42" y="-291.37" fill="#2e3440" font-family="Bitstream Vera Sans" font-size="12.666" opacity=".4"><tspan x="-684.42" y="-291.37"/></text>
 <text x="155.59" y="-50.46" fill="#2e3440" font-family="Bitstream Vera Sans" font-size="12.666" opacity=".4"><tspan x="155.59" y="-50.46"/></text>
 <text x="179.55" y="-91.2" fill="#2e3440" font-family="Bitstream Vera Sans" font-size="12.666" opacity=".4"><tspan x="179.55" y="-91.2"/></text>
 <text x="-1090.26" y="-285.23" fill="#2e3440" font-family="Bitstream Vera Sans" font-size="12.666" opacity=".4"><tspan x="-1090.26" y="-285.23"/></text>
 <text x="-282.66" y="-698.7" fill="#2e3440" font-family="Bitstream Vera Sans" font-size="12.666" opacity=".4"><tspan x="-282.66" y="-698.7"/></text>
 <text x="-258.7" y="-739.44" fill="#2e3440" font-family="Bitstream Vera Sans" font-size="12.666" opacity=".4"><tspan x="-258.7" y="-739.44"/></text>
 <text x="-1750.16" y="-746.65" fill="#2e3440" font-family="Bitstream Vera Sans" font-size="12.666" opacity=".4"><tspan x="-1750.16" y="-746.65"/></text>
 <text x="-289.62" y="-1019.88" fill="#2e3440" font-family="Bitstream Vera Sans" font-size="12.666" opacity=".4"><tspan x="-289.62" y="-1019.88"/></text>
 <text x="1196.5" y="-393.19" fill="#2e3440" font-family="Bitstream Vera Sans" font-size="12.666" opacity=".4"><tspan x="1196.5" y="-393.19"/></text>
 <text x="1220.46" y="-433.93" fill="#2e3440" font-family="Bitstream Vera Sans" font-size="12.666" opacity=".4"><tspan x="1220.46" y="-433.93"/></text>
 <text x="-271" y="-441.14" fill="#2e3440" font-family="Bitstream Vera Sans" font-size="12.666" opacity=".4"><tspan x="-271" y="-441.14"/></text>
 <text x="1189.54" y="-714.38" fill="#2e3440" font-family="Bitstream Vera Sans" font-size="12.666" opacity=".4"><tspan x="1189.54" y="-714.38"/></text>
 <text x="-1208.82" y="-489.23" fill="#2e3440" font-family="Bitstream Vera Sans" font-size="12.666" opacity=".4"><tspan x="-1208.82" y="-489.23"/></text>
 <text x="-3032.5" y="256.32" fill="#2e3440" font-family="Bitstream Vera Sans" font-size="12.666" opacity=".4"><tspan x="-3032.5" y="256.32"/></text>
 <g transform="matrix(.90475 0 0 .90475 -716.75 -699.79)" fill="#2e3440" opacity=".4">
  <text x="-664.27" y="1159.42" font-family="Bitstream Vera Sans" font-size="14" opacity=".8"><tspan x="-664.27" y="1159.42"/></text>
 </g>
 <text x="877.23" y="-5.449" fill="#2e3440" font-family="Bitstream Vera Sans" font-size="12.666" opacity=".4"><tspan x="877.23" y="-5.449"/></text>
 <text x="901.19" y="-46.19" fill="#2e3440" font-family="Bitstream Vera Sans" font-size="12.666" opacity=".4"><tspan x="901.19" y="-46.19"/></text>
 <text x="-569.37" y="-76.27" fill="#2e3440" font-family="Bitstream Vera Sans" font-size="12.666" opacity=".4"><tspan x="-569.37" y="-76.27"/></text>
 <text x="-2393.06" y="669.28" fill="#2e3440" font-family="Bitstream Vera Sans" font-size="12.666" opacity=".4"><tspan x="-2393.06" y="669.28"/></text>
 <text x="-454.88" y="-461.59" fill="#2e3440" font-family="Bitstream Vera Sans" font-size="12.666" opacity=".4"><tspan x="-454.88" y="-461.59"/></text>
 <text x="352.72" y="-875.06" fill="#2e3440" font-family="Bitstream Vera Sans" font-size="12.666" opacity=".4"><tspan x="352.72" y="-875.06"/></text>
 <text x="376.68" y="-915.8" fill="#2e3440" font-family="Bitstream Vera Sans" font-size="12.666" opacity=".4"><tspan x="376.68" y="-915.8"/></text>
 <text x="-1114.78" y="-923.01" fill="#2e3440" font-family="Bitstream Vera Sans" font-size="12.666" opacity=".4"><tspan x="-1114.78" y="-923.01"/></text>
 <text x="345.76" y="-1196.25" fill="#2e3440" font-family="Bitstream Vera Sans" font-size="12.666" opacity=".4"><tspan x="345.76" y="-1196.25"/></text>
 <text x="1831.89" y="-569.55" fill="#2e3440" font-family="Bitstream Vera Sans" font-size="12.666" opacity=".4"><tspan x="1831.89" y="-569.55"/></text>
 <text x="1855.85" y="-610.3" fill="#2e3440" font-family="Bitstream Vera Sans" font-size="12.666" opacity=".4"><tspan x="1855.85" y="-610.3"/></text>
 <text x="364.38" y="-617.51" fill="#2e3440" font-family="Bitstream Vera Sans" font-size="12.666" opacity=".4"><tspan x="364.38" y="-617.51"/></text>
 <text x="1824.93" y="-890.74" fill="#2e3440" font-family="Bitstream Vera Sans" font-size="12.666" opacity=".4"><tspan x="1824.93" y="-890.74"/></text>
 <text x="-573.43" y="-665.6" fill="#2e3440" font-family="Bitstream Vera Sans" font-size="12.666" opacity=".4"><tspan x="-573.43" y="-665.6"/></text>
 <text x="-2397.12" y="79.956" fill="#2e3440" font-family="Bitstream Vera Sans" font-size="12.666" opacity=".4"><tspan x="-2397.12" y="79.956"/></text>
 <text x="-682.36" y="172.83" fill="#2e3440" font-family="Bitstream Vera Sans" font-size="12.666" opacity=".4"><tspan x="-682.36" y="172.83"/></text>
 <text x="426.66" y="-6.354" fill="#2e3440" font-family="Bitstream Vera Sans" font-size="12.666" opacity=".4"><tspan x="426.66" y="-6.354"/></text>
 <text x="450.62" y="-47.1" fill="#2e3440" font-family="Bitstream Vera Sans" font-size="12.666" opacity=".4"><tspan x="450.62" y="-47.1"/></text>
 <text x="-1040.84" y="-54.31" fill="#2e3440" font-family="Bitstream Vera Sans" font-size="12.666" opacity=".4"><tspan x="-1040.84" y="-54.31"/></text>
 <text x="419.7" y="-327.54" fill="#2e3440" font-family="Bitstream Vera Sans" font-size="12.666" opacity=".4"><tspan x="419.7" y="-327.54"/></text>
 <text x="-608.03" y="-57.02" fill="#2e3440" font-family="Bitstream Vera Sans" font-size="12.666" opacity=".4"><tspan x="-608.03" y="-57.02"/></text>
 <text x="-2431.72" y="688.53" fill="#2e3440" font-family="Bitstream Vera Sans" font-size="12.666" opacity=".4"><tspan x="-2431.72" y="688.53"/></text>
 <text x="-456.94" y="-918.55" fill="#2e3440" font-family="Bitstream Vera Sans" font-size="12.666" opacity=".4"><tspan x="-456.94" y="-918.55"/></text>
 <text x="350.66" y="-1332.02" fill="#2e3440" font-family="Bitstream Vera Sans" font-size="12.666" opacity=".4"><tspan x="350.66" y="-1332.02"/></text>
 <text x="374.62" y="-1372.76" fill="#2e3440" font-family="Bitstream Vera Sans" font-size="12.666" opacity=".4"><tspan x="374.62" y="-1372.76"/></text>
 <text x="-1116.84" y="-1379.97" fill="#2e3440" font-family="Bitstream Vera Sans" font-size="12.666" opacity=".4"><tspan x="-1116.84" y="-1379.97"/></text>
 <text x="343.7" y="-1653.21" fill="#2e3440" font-family="Bitstream Vera Sans" font-size="12.666" opacity=".4"><tspan x="343.7" y="-1653.21"/></text>
 <text x="1829.83" y="-1026.52" fill="#2e3440" font-family="Bitstream Vera Sans" font-size="12.666" opacity=".4"><tspan x="1829.83" y="-1026.52"/></text>
 <text x="1853.79" y="-1067.26" fill="#2e3440" font-family="Bitstream Vera Sans" font-size="12.666" opacity=".4"><tspan x="1853.79" y="-1067.26"/></text>
 <text x="362.32" y="-1074.47" fill="#2e3440" font-family="Bitstream Vera Sans" font-size="12.666" opacity=".4"><tspan x="362.32" y="-1074.47"/></text>
 <text x="1822.87" y="-1347.7" fill="#2e3440" font-family="Bitstream Vera Sans" font-size="12.666" opacity=".4"><tspan x="1822.87" y="-1347.7"/></text>
 <text x="-575.49" y="-1122.56" fill="#2e3440" font-family="Bitstream Vera Sans" font-size="12.666" opacity=".4"><tspan x="-575.49" y="-1122.56"/></text>
 <text x="-2399.18" y="-377" fill="#2e3440" font-family="Bitstream Vera Sans" font-size="12.666" opacity=".4"><tspan x="-2399.18" y="-377"/></text>
 <text x="-684.42" y="-284.13" fill="#2e3440" font-family="Bitstream Vera Sans" font-size="12.666" opacity=".4"><tspan x="-684.42" y="-284.13"/></text>
 <text x="155.59" y="-43.22" fill="#2e3440" font-family="Bitstream Vera Sans" font-size="12.666" opacity=".4"><tspan x="155.59" y="-43.22"/></text>
 <text x="179.55" y="-83.96" fill="#2e3440" font-family="Bitstream Vera Sans" font-size="12.666" opacity=".4"><tspan x="179.55" y="-83.96"/></text>
 <text x="-1090.26" y="-277.99" fill="#2e3440" font-family="Bitstream Vera Sans" font-size="12.666" opacity=".4"><tspan x="-1090.26" y="-277.99"/></text>
 <text x="-282.66" y="-691.46" fill="#2e3440" font-family="Bitstream Vera Sans" font-size="12.666" opacity=".4"><tspan x="-282.66" y="-691.46"/></text>
 <text x="-258.7" y="-732.2" fill="#2e3440" font-family="Bitstream Vera Sans" font-size="12.666" opacity=".4"><tspan x="-258.7" y="-732.2"/></text>
 <text x="-1750.16" y="-739.41" fill="#2e3440" font-family="Bitstream Vera Sans" font-size="12.666" opacity=".4"><tspan x="-1750.16" y="-739.41"/></text>
 <text x="-289.62" y="-1012.64" fill="#2e3440" font-family="Bitstream Vera Sans" font-size="12.666" opacity=".4"><tspan x="-289.62" y="-1012.64"/></text>
 <text x="1196.5" y="-385.95" fill="#2e3440" font-family="Bitstream Vera Sans" font-size="12.666" opacity=".4"><tspan x="1196.5" y="-385.95"/></text>
 <text x="1220.46" y="-426.69" fill="#2e3440" font-family="Bitstream Vera Sans" font-size="12.666" opacity=".4"><tspan x="1220.46" y="-426.69"/></text>
 <text x="-271" y="-433.9" fill="#2e3440" font-family="Bitstream Vera Sans" font-size="12.666" opacity=".4"><tspan x="-271" y="-433.9"/></text>
 <text x="1189.54" y="-707.14" fill="#2e3440" font-family="Bitstream Vera Sans" font-size="12.666" opacity=".4"><tspan x="1189.54" y="-707.14"/></text>
 <text x="-1208.82" y="-482" fill="#2e3440" font-family="Bitstream Vera Sans" font-size="12.666" opacity=".4"><tspan x="-1208.82" y="-482"/></text>
 <text x="-3032.5" y="263.56" fill="#2e3440" font-family="Bitstream Vera Sans" font-size="12.666" opacity=".4"><tspan x="-3032.5" y="263.56"/></text>
 <g transform="matrix(.90475 0 0 .90475 -716.75 -692.55)" fill="#2e3440" opacity=".4">
  <text x="-664.27" y="1159.42" font-family="Bitstream Vera Sans" font-size="14" opacity=".8"><tspan x="-664.27" y="1159.42"/></text>
 </g>
 <text x="435.9" y="-384.73" fill="#2e3440" font-family="Droid Sans" font-size="12.666" opacity=".4"><tspan x="435.9" y="-384.73"/><tspan x="435.9" y="-368.89"/></text>
 <text x="901.09" y="-866.77" fill="#2e3440" font-family="Bitstream Vera Sans" font-size="12.666" opacity=".4"><tspan x="901.09" y="-866.77"/></text>
 <text x="-922.6" y="-121.22" fill="#2e3440" font-family="Bitstream Vera Sans" font-size="12.666" opacity=".4"><tspan x="-922.6" y="-121.22"/></text>
 <text x="1628.17" y="-1151.77" fill="#2e3440" font-family="Bitstream Vera Sans" font-size="12.666" opacity=".4"><tspan x="1628.17" y="-1151.77"/></text>
 <text x="1652.13" y="-1192.51" fill="#2e3440" font-family="Bitstream Vera Sans" font-size="12.666" opacity=".4"><tspan x="1652.13" y="-1192.51"/></text>
 <text x="160.67" y="-1199.72" fill="#2e3440" font-family="Bitstream Vera Sans" font-size="12.666" opacity=".4"><tspan x="160.67" y="-1199.72"/></text>
 <text x="1621.21" y="-1472.95" fill="#2e3440" font-family="Bitstream Vera Sans" font-size="12.666" opacity=".4"><tspan x="1621.21" y="-1472.95"/></text>
 <path d="m3 5h3v10h-3zm5 0h13v14h-3v-7h-2v7h-3v-7h-2v7h-3zm-5 11h3v3h-3z" fill="#2e3440" opacity=".4"/>
</svg>
