<svg enable-background="new 0 0 22 22" viewBox="0 0 24 24" xmlns="http://www.w3.org/2000/svg">
 <g transform="translate(0,2)">
  <path d="m10.312 5.269c-3.769 0.332-6.995 3.497-6.995 3.497s1.835 5.417 7.05 5.909c0.208 0.018 0.447 0.06 0.663 0.06 2.753 0 7.56-1.446 9.648-3.196-0.307-0.309-1.748-1.035-2.11-1.327-2.192 1.893-4.468 3.558-7.598 3.558-0.198 2e-3 -0.417-0.04-0.603-0.06-3.83-0.48-5.125-4.703-5.125-4.703s1.68-2.545 5.065-2.834c0.083-6e-3 0.156 4e-3 0.241 0 3.101-0.096 5.186 2.653 5.186 2.653s-2.227 3.075-4.583 3.075c-0.307 0-0.591-0.104-0.844-0.181-1.634-0.55-2.171-2.472-2.171-2.472s0.755-0.843 1.749-0.965c0.143-0.015 0.27-0.017 0.422 0 1.131 0.162 1.404 0.753 2.11 1.93l1.628-1.387s-1.206-1.568-3.196-1.568c-0.185 2e-3 -0.365 0.043-0.543 0.06-2.31 0.247-3.678 1.809-3.678 1.809s0.784 2.98 3.678 3.497c0.245 0.041 0.506 0.06 0.784 0.06 3.363 0 6.572-3.919 6.572-3.919s-2.799-3.642-7.115-3.497c-0.083 2e-3 -0.158-6e-3 -0.241 0z" fill="#2e3440"/>
  <rect x="13.667" y="9.769" width=".066" height=".033" fill="#f00"/>
 </g>
</svg>
