<svg viewBox="0 0 24 24" xmlns="http://www.w3.org/2000/svg">
 <path d="m8 4-4 4h7v-4h-3zm5 0v4h7l-4-4h-3zm-9 6v10h8.832l0.305-1.025-0.285-0.111 0.756-1.881c0.06-0.149 0.168-0.263 0.24-0.404l0.297-1 0.227 0.123c1.059-1.369 2.71-2.199 4.492-2.199 0.387 0 0.768 0.04 1.137 0.117v-3.617h-16" fill="#4c566a"/>
 <g transform="matrix(.63636 0 0 .63636 11.864 12)" fill="#a3be8c">
  <g transform="matrix(.34783 0 0 .34783 2.6436 2.6457)">
   <path transform="matrix(2.875 0 0 2.875 97.068 -33.481)" d="m-25.406 14.5c2.304 0 4.367 1.303 5.281 3.313l1.219-0.469-1 3.469-3.313-1.844 1.281-0.5c-0.621-1.31-1.954-2.125-3.469-2.125-1.573 0-2.996 0.94-3.563 2.344l-1.781-0.688c0.845-2.104 2.985-3.5 5.344-3.5zm-5.5 4.719 3.313 1.781-1.281 0.5c0.613 1.305 1.964 2.156 3.469 2.156 1.576 0 2.979-0.91 3.563-2.313l1.781 0.688c-0.877 2.103-2.979 3.469-5.344 3.469-2.292 0-4.387-1.339-5.281-3.344l-1.219 0.438z"/>
  </g>
 </g>
</svg>
