<svg viewBox="0 0 24 24" xmlns="http://www.w3.org/2000/svg">
 <path d="m8 4-4 4h7v-4h-3zm5 0v4h7l-4-4h-3zm-9 6v10h9.604c-0.313-1.723 0.189-3.57 1.508-4.889 1.065-1.066 2.484-1.611 3.889-1.611 0.334 0 0.669 0.032 1 0.094v-3.594h-16" fill="#4c566a"/>
 <g transform="matrix(.175 0 0 .175 14.8 14.8)" fill="#bf616a">
  <path transform="matrix(4.4444 0 0 4.4444 -84.889 -89.333)" d="m24.5 21c-1.152 0-2.303 0.439-3.182 1.318-1.758 1.757-1.758 4.606 0 6.363 1.757 1.758 4.606 1.758 6.363 0 1.758-1.757 1.758-4.606 0-6.363-0.878-0.879-2.03-1.318-3.182-1.318m0 1.35c0.592 0 1.181 0.169 1.697 0.5l-4.348 4.348c-0.783-1.219-0.643-2.858 0.424-3.924 0.615-0.615 1.42-0.924 2.227-0.924m2.65 1.453c0.783 1.219 0.643 2.858-0.424 3.924-1.066 1.067-2.705 1.206-3.924 0.424l4.348-4.348z"/>
 </g>
</svg>
