<svg viewBox="0 0 24 24" xmlns="http://www.w3.org/2000/svg">
 <path d="m8 4-4 4h7v-4zm5 0v4h7l-4-4zm-9 6v10h9.602c-0.059-0.179-0.102-0.372-0.102-0.609v-0.779c0-0.718 0.335-1.146 0.68-1.455-0.085-0.512-0.071-1.248 0.578-1.842l-0.025 0.021 0.561-0.529 2e-3 -2e-3c0.651-0.612 1.292-0.584 1.74-0.494 0.295-0.382 0.763-0.811 1.57-0.811h0.789c0.231 0 0.426 0.041 0.605 0.1v-3.6z" fill="#4c566a"/>
 <g transform="matrix(.4375 0 0 .4375 29.633 .60108)" fill="#b48ead">
  <path transform="translate(-62.305 4.0547)" d="m37.1 30c-0.103 0-0.186 0.152-0.186 0.34v0.998c-1.133 0.185-2.169 0.657-3.039 1.334-0.021-0.029-0.029-0.058-0.059-0.086l-0.77-0.73c-0.141-0.133-0.311-0.185-0.383-0.117l-1.277 1.209c-0.074 0.067-0.018 0.229 0.123 0.361l0.77 0.73c0.06 0.057 0.126 0.091 0.188 0.115-0.568 0.814-0.959 1.758-1.123 2.775h-0.986c-0.198 0-0.357 0.08-0.357 0.184v1.777c0 0.101 0.16 0.184 0.357 0.184h0.988c0.164 1.016 0.552 1.959 1.119 2.771-0.061 0.024-0.126 0.058-0.186 0.115l-0.77 0.73c-0.141 0.133-0.197 0.294-0.123 0.361l1.277 1.209c0.072 0.067 0.242 0.015 0.383-0.117l0.77-0.73c0.029-0.028 0.037-0.057 0.059-0.086 0.87 0.677 1.908 1.141 3.039 1.326v1.01c0 0.187 0.082 0.34 0.186 0.34h1.801c0.103 0 0.186-0.152 0.186-0.34v-1.01c1.131-0.185 2.169-0.65 3.039-1.326 0.021 0.029 0.029 0.058 0.059 0.086l0.77 0.73c0.141 0.133 0.311 0.185 0.383 0.117l1.277-1.209c0.074-0.067 0.018-0.229-0.123-0.361l-0.77-0.73c-0.059-0.057-0.124-0.091-0.186-0.115 0.567-0.813 0.955-1.755 1.119-2.771h0.988c0.198 0 0.357-0.083 0.357-0.184v-1.777c0-0.103-0.16-0.184-0.357-0.184h-0.988c-0.165-1.017-0.565-1.953-1.133-2.766 0.065-0.023 0.135-0.064 0.199-0.125l0.77-0.73c0.141-0.133 0.197-0.294 0.123-0.361l-1.277-1.209c-0.072-0.067-0.242-0.015-0.383 0.117l-0.77 0.73c-0.035 0.033-0.045 0.067-0.068 0.102-0.869-0.675-1.899-1.151-3.03-1.336v-1.012c0-0.187-0.082-0.34-0.186-0.34h-1.801zm0.689 3.918h0.01c-0.012 1e-3 0.057 2e-3 0.201 2e-3 2.271 0 4.084 1.811 4.084 4.082s-1.813 4.082-4.084 4.082-4.084-1.811-4.084-4.082c0-2.199 1.709-3.974 3.873-4.084zm0.211 2.678c-0.819 0-1.484 0.629-1.484 1.406 0 0.775 0.665 1.404 1.484 1.404s1.484-0.63 1.484-1.404c0-0.777-0.665-1.406-1.484-1.406z" color-rendering="auto" image-rendering="auto" shape-rendering="auto" solid-color="#000000" isolation="auto" mix-blend-mode="normal" white-space="normal"/>
 </g>
</svg>
