<svg viewBox="0 0 24 24" xmlns="http://www.w3.org/2000/svg">
 <path d="m15.365 4.295c-1.558-0.025-3.391 0.387-5.242 1.289-2.564 1.253-4.48 3.205-5.353 5.328-0.24-0.107-0.505-0.254-0.773-0.43-1.264-0.831-1.948-2.063-1.948-2.063s-0.326 2.456 0.716 3.953c0.537 0.77 1.099 1.26 1.518 1.547 0.057 0.677 0.226 1.354 0.544 2.01 1.801 3.692 6.957 4.884 11.512 2.661 3.133-1.525 3.871-3.917 3.781-6.929 0.204-0.14 0.372-0.276 0.516-0.43 0.082 0.025 0.175 0.05 0.229 0.086 0.544 0.347 0.688 1.031 0.688 1.031s0.802-1.683 0.258-3.122c-0.387-1.013-1.361-1.461-2.12-1.576-0.025-0.154-0.032-0.301-0.057-0.458-0.297-1.851-1.991-2.854-4.268-2.893m-8.304 0.888s-0.938 0.691-1.318 1.719c-4e-3 0 0.458 0.859 0.458 0.859s0.111-0.165 0.745-0.544c-0.118-1.053 0.115-2.034 0.115-2.034m8.347 0.193c0.766 0 1.171 0.534 1.171 1.221 0 0.688-0.451 1.132-1.171 1.132-0.723 0-1.235-0.312-1.235-1.178 0-0.863 0.469-1.175 1.235-1.175zm-10.982 0.58s-0.97 1.4-1 2.979c0 0.011 1.06 0.945 1.06 0.945s0.086-0.329 0.802-1.175c-0.688-1.346-0.859-2.75-0.859-2.75m13.575 1.432h0.057c-0.218 0.064-0.677 0.315-0.974 1.174-0.261 0.756-0.172 1.318-0.172 1.318s-1.046 0.645-1.089 1.919c-0.029 0.616 0.201 1.289 1.633 1.203 0.487 0.043 2.177-0.802 2.177-0.802s-2.134 1.891-3.767 1.475c-1.246-0.315-1.25-1.26-1.289-1.69-0.086-1 1.117-2.091 1.117-2.091s-0.097-1.171 0.362-1.715c0.892-1.11 1.626-0.745 1.944-0.791z" fill="#88c0d0"/>
</svg>
