<svg width="24" height="24" version="1.1" viewBox="0 0 24 24" xmlns="http://www.w3.org/2000/svg" xmlns:xlink="http://www.w3.org/1999/xlink">
 <defs>
  <filter id="alpha" x="0%" y="0%" width="100%" height="100%">
   <feColorMatrix in="SourceGraphic" values="0 0 0 0 1 0 0 0 0 1 0 0 0 0 1 0 0 0 1 0"/>
  </filter>
  <mask id="mask0">
   <g filter="url(#alpha)">
    <rect width="24" height="24" style="fill-opacity:.6;fill:rgb(0%,0%,0%)"/>
   </g>
  </mask>
  <clipPath id="clip1">
   <rect width="24" height="24"/>
  </clipPath>
  <g id="surface5" clip-path="url(#clip1)">
   <path d="m7 0.0078125h10c2.5 0 2.5-0.2500005 2.5 2.4960935v9.996094c0 2.5 0 2.5-2.5 2.5h-10c-2.5 0-2.5 0-2.5-2.5v-9.996094c0-2.4960935 0-2.4960935 2.5-2.4960935z" style="fill-opacity:.941176;fill-rule:evenodd;fill:rgb(18.039216%,20.392157%,25.098041%)"/>
  </g>
 </defs>
 <g id="surface1">
  <use mask="url(#mask0)" xlink:href="#surface5"/>
  <path d="M 2.398438 6 L 21.601562 6 C 24 6 24 6 24 8.398438 L 24 15.601562 C 24 18 24 18 21.601562 18 L 2.398438 18 C 0 18 0 18 0 15.601562 L 0 8.398438 C 0 6 0 6 2.398438 6 Z M 2.398438 6 " style="fill-rule:evenodd;fill:rgb(18.039216%,20.392157%,25.098041%)"/>
  <path d="m4.5 12h15v12h-15z" style="fill:rgb(53.333336%,75.294119%,81.568629%)"/>
  <path d="m10.5 13.5v4.5h-3l4.5 4.5 4.5-4.5h-3v-4.5z" style="fill:rgb(18.039216%,20.392157%,25.098041%)"/>
 </g>
</svg>
