<svg viewBox="0 0 24 24" xmlns="http://www.w3.org/2000/svg">
 <g transform="translate(0 1)" fill-rule="evenodd">
  <path d="m8 1h8c2 0 2-0.2 2 2v8c0 2 0 2-2 2h-8c-2 0-2 0-2-2v-8c0-2 0-2 2-2z" fill="#7b88a1" fill-opacity=".94"/>
  <path d="m4 7h16c2 0 2 0 2 2v6c0 2 0 2-2 2h-16c-2 0-2 0-2-2v-6c0-2 0-2 2-2z" fill="#a6aebf"/>
 </g>
 <g transform="translate(0 1)">
  <path d="m6 11h12v10h-12z" fill="#bf616a"/>
 </g>
 <rect x="11" y="13" width="2" height="5" fill="#2e3440"/>
 <path d="m9 17h6l-3 4z" fill="#2e3440"/>
</svg>
