<svg viewBox="0 0 24 24" xmlns="http://www.w3.org/2000/svg">
 <path d="m6.5 4c-0.276 0-0.5 0.224-0.5 0.5v6.5h-1.5c-0.277 0-0.5 0.223-0.5 0.5v6c0 0.277 0.223 0.5 0.5 0.5h1.5v1.5c0 0.277 0.223 0.5 0.5 0.5h11c0.277 0 0.5-0.223 0.5-0.5v-1.5h1.5c0.277 0 0.5-0.223 0.5-0.5v-6c0-0.277-0.223-0.5-0.5-0.5h-1.5v-5l-2-2h-9.5zm0.5 1h8v2h2v4h-10v-6zm-2 7h14v3h-14v-3zm2 4h10v3h-10v-3zm11.5 0a0.5 0.5 0 0 1 0.5 0.5 0.5 0.5 0 0 1-0.5 0.5 0.5 0.5 0 0 1-0.5-0.5 0.5 0.5 0 0 1 0.5-0.5z" color-rendering="auto" fill="#2e3440" image-rendering="auto" shape-rendering="auto"/>
</svg>
