<svg width="24" height="24" enable-background="new 0 0 90 109" version="1.1" viewBox="-1 -1 24.533 24.44" xmlns="http://www.w3.org/2000/svg">
 <path transform="matrix(1.0222 0 0 1.0222 -1 -1.0465)" d="m12 4c-2.2091 0-4 1.7909-4 4v2h-1a2 2 0 0 0-2 2v6a2 2 0 0 0 2 2h10a2 2 0 0 0 2-2v-6a2 2 0 0 0-2-2h-1v-2c0-2.2091-1.7909-4-4-4zm0 2c1.1046 0 2 0.89543 2 2 0 0.47124-0.10121 0.84198-0.23438 1.1074s-0.4286 0.61945-0.76562 0.89258c-0.32948 0.26701-1 0.60742-1 0.60742s0.30561-0.37117 0.42969-0.65625c-0.14104 0.03176-0.28511 0.048748-0.42969 0.048828-1.1046 6.17e-4 -2-0.89543-2-2 0-1.1046 0.89543-2 2-2zm0 6a3 3 0 0 1 3 3 3 3 0 0 1-3 3 3 3 0 0 1-3-3 3 3 0 0 1 3-3z" fill="#88c0d0" stroke-linecap="round" stroke-linejoin="round" stroke-width=".70866"/>
</svg>
