<svg viewBox="0 0 24 24" xmlns="http://www.w3.org/2000/svg">
 <g transform="translate(0 2)">
  <path d="m0 0.5v-0.5h99l0.125 0.375q0.125 0.375 0.5 0.5t0.875 0.125 1 0 1 0 0.875-0.125 0.5-0.5l0.125-0.375h6v0.5q0 0.5-0.5 0.5h-4q-0.5 0-0.875 0.125t-0.5 0.5-0.625 0.375h-3q-0.5 0-0.875-0.125t-0.625-0.375-0.625-0.375-0.875-0.125-0.875 0.125-0.375 0.375 0.375 0.375 0.875 0.125 0.875 0.125 0.5 0.5-0.375 0.375h-2q-0.5 0-0.875 0.125t-0.5 0.5-0.625 0.375h-2q-0.5 0-0.625-0.375t-0.5-0.5-0.875-0.125-0.875 0.125-0.375 0.375 0.375 0.375 0.875 0.125 0.5 0.5-0.5 0.5h-1.5l-0.125-0.375q-0.125-0.375-0.5-0.5t-0.875-0.125-0.875 0.125-0.375 0.375 0.375 0.375 0.75 0.25 0.5 0.5-0.375 0.375h-1.5l-0.125-0.375q-0.125-0.375-0.5-0.5t-0.875-0.125-0.875 0.125-0.625 0.375-0.625 0.375-0.875 0.125-0.875 0.125-0.375 0.375 0.375 0.375 0.875 0.125 0.875-0.125 0.625-0.375 0.625-0.375 0.875-0.125h0.5v0.5q0 0.5-0.5 0.5h-0.5l-0.375 0.125q-0.375 0.125-0.625 0.375t-0.625 0.375l-0.375 0.125h-1l-0.375 0.125q-0.375 0.125-0.625 0.375t-0.625 0.375l-0.75 0.25q-0.375 0.125-0.625 0.375t-0.625 0.375l-0.375 0.125h-1l-0.125-0.375q-0.125-0.375-0.5-0.5t-0.875-0.125-0.875 0.125-0.5 0.5-0.625 0.375-0.875 0.125-0.5 0.5-0.625 0.375-0.875 0.125-0.5 0.5-0.625 0.375-0.875 0.125-0.5 0.5l-0.125 0.375-0.375 0.125q-0.375 0.125-0.375 0.375t0.375 0.375l0.375 0.125-0.125 0.375q-0.125 0.375-0.5 0.5l-0.375 0.125-0.125-0.375q-0.125-0.375-0.5-0.5t-0.75 0-0.625 0.375-0.625 0.375-0.75 0.25-0.5 0.5l-0.125 0.375h-0.5q-0.5 0-0.875 0.125t-0.5 0.5l-0.125 0.375-0.375 0.125q-0.375 0.125-0.625 0.375t-0.625 0.375-0.75 0.25-0.5 0.5l-0.125 0.375-0.375 0.125q-0.375 0.125-0.625 0.375t-0.625 0.375-0.75 0.25-0.48438 0.51562l-0.10938 0.39062 0.21875-0.03125-0.21875 0.03125q-0.21875 0.03125-0.40625 0.09375l-0.1875 0.0625 0.5625-0.1875-0.375 0.125q-0.375 0.125-0.375 0.375t0.375 0.375l0.375 0.125-0.5625-0.1875 0.1875 0.0625q0.1875 0.0625 0.40625 0.09375l0.21875 0.03125-0.21875-0.03125-0.14062 0.39062q-0.14062 0.39062-0.39062 0.64062t-0.5 0.5-0.5 0.5-0.5 0.5-0.625 0.375-0.375-0.375v-0.5l0.375-0.125q0.375-0.125 0.5-0.5l0.125-0.375 0.375-0.125q0.375-0.125 0.375-0.375t-0.375-0.375-0.75 0-0.5 0.5l-0.125 0.375-0.375 0.125q-0.375 0.125-0.625 0.375t-0.5 0.5-0.25 0.5 0.375 0.375l0.375 0.125-0.125 0.375q-0.125 0.375-0.375 0.625t-0.5 0.5-0.5 0.5-0.5 0.5-0.625 0.375l-0.375 0.125v-1l0.375-0.125q0.375-0.125 0.625-0.375t0.5-0.5 0.25-0.5-0.25-0.25-0.5 0.25-0.625 0.375-0.75 0.25-0.5 0.5l-0.125 0.375-0.375 0.125q-0.375 0.125-0.375 0.375t0.375 0.375l0.375 0.125v0.5q0 0.5-0.375 0.625t-0.625 0.375-0.5 0.5-0.5 0.5-0.5 0.5-0.5 0.5-0.5 0.5-0.5 0.5-0.5 0.5-0.5 0.5-0.5 0.5-0.5 0.5-0.5 0.5-0.5 0.5-0.5 0.5-0.5 0.5-0.5 0.5-0.5 0.5-0.5 0.5-0.5 0.5-0.5 0.5-0.5 0.5-0.5 0.5-0.5 0.5-0.5 0.5-0.5 0.5-0.5 0.5-0.5 0.5-0.5 0.5-0.5 0.5-0.5 0.5-0.5 0.5-0.5 0.5-0.5 0.5-0.5 0.5-0.375 0.625l-0.25 0.75q-0.125 0.375-0.375 0.625t-0.5 0.5-0.5 0.5-0.5 0.5-0.5 0.5-0.375 0.625l-0.25 0.75q-0.125 0.375-0.375 0.625t-0.5 0.5-0.5 0.5-0.5 0.5-0.5 0.5-0.375 0.625l-0.25 0.75q-0.125 0.375-0.375 0.625t-0.5 0.5-0.5 0.5-0.375 0.625l-0.25 0.75q-0.125 0.375-0.375 0.625t-0.5 0.5-0.5 0.5l-0.25 0.25 0.375-0.375-0.125 0.125q-0.125 0.125-0.21875 0.28125l-0.09375 0.15625 0.09374-0.15626-0.53124-0.59374-0.125 0.0625 0.125-0.0625q0.125-0.0625 0.25-0.1875l0.125-0.125-0.375 0.375 0.25-0.25q0.25-0.25 0.5-0.5t0.375-0.625 0-0.75-0.375-0.375-0.375 0.375-0.25 0.75-0.375 0.625-0.25 0.5v0.25-0.375 0.125q0 0.125 0.0625 0.1875l0.0625 0.0625-0.0625-0.0625-0.28125 0.28125q-0.28125 0.28125-0.03125 0.53125t0.625 0.375l0.375 0.125-0.125 0.375q-0.125 0.375-0.375 0.625t-0.375 0.625l-0.25 0.75q-0.125 0.375-0.375 0.625t-0.375 0.625l-0.25 0.75q-0.125 0.375-0.375 0.625t-0.375 0.625l-0.125 0.375-0.375 0.125q-0.375 0.125-0.5 0.5t-0.25 0.75-0.375 0.625-0.375 0.625l-0.25 0.75q-0.125 0.375-0.375 0.625t-0.375 0.625l-0.25 0.75q-0.125 0.375-0.375 0.625t-0.375 0.625l-0.125 0.375v1-0.75 0.25q0 0.25-0.03125 0.46875l-0.03125 0.21875 0.03126-0.21875-0.35938 0.14062q-0.35938 0.14062-0.48438 0.51562t-0.125 0.875v0.5l-0.125 0.375q-0.125 0.375-0.375 0.625t-0.375 0.625l-0.25 0.75q-0.125 0.375-0.375 0.625t-0.375 0.625l-0.125 0.375v1l-0.125 0.375q-0.125 0.375-0.375 0.625t-0.375 0.625l-0.125 0.375v1-0.75 0.25q0 0.25-0.03125 0.46875l-0.03125 0.21875 0.03125-0.21875-0.35938 0.14062q-0.35938 0.14062-0.48438 0.51562t-0.125 0.875v1.5-0.75 0.25q0 0.25-0.03125 0.46875l-0.03125 0.21875 0.03125-0.21875-0.35938-0.10938q-0.35938-0.10938-0.48438-0.48438t-0.25-0.75-0.375-0.375-0.375 0.375 0 0.75 0.375 0.625 0.375 0.625l0.125 0.375v2l-0.125 0.375q-0.125 0.375-0.375 0.625t-0.375 0.625l-0.125 0.375v2-0.75 0.25q0 0.25-0.03125 0.46875l-0.03125 0.21875 0.03125-0.21875-0.35938 0.14062q-0.35938 0.14062-0.48438 0.51562t-0.125 0.875v1.5l-0.125 0.375q-0.125 0.375-0.375 0.625t-0.375 0.625-0.125 0.875v2.5l-0.125 0.375q-0.125 0.375-0.375 0.625t-0.375 0.625l-0.125 0.375v5-0.75 0.25q0 0.25-0.03125 0.46875l-0.03125 0.21875 0.015625-0.10937 0.015625-0.10938-0.48438 0.01563-0.48438 0.01562v-6l0.375-0.125q0.375-0.125 0.5-0.5t0.125-0.875 0-1-0.125-0.875l-0.125-0.375 0.1875 0.5625-0.0625-0.1875q-0.0625-0.1875-0.1875-0.3125l-0.125-0.125 0.125 0.125 0.28125-0.28125q0.28125-0.28125 0.03125-0.53125t-0.625-0.375l-0.375-0.125v-98.5m1.125 97.875q0.125 0.375 0.375 0.375t0.375-0.375 0.125-0.875-0.125-0.875l-0.125-0.375 0.1875 0.5625-0.0625-0.1875q-0.0625-0.1875-0.15625-0.28125l-0.09375-0.09375 0.09375 0.09375 0.26562-0.29688q0.26562-0.29688 0.015625-0.54688t-0.625-0.375-0.5 0.25 0.14062 0.67188l0.26562 0.29688 0.09375-0.09375-0.09375 0.09375q-0.09375 0.09375-0.15625 0.28125l-0.0625 0.1875 0.1875-0.5625-0.125 0.375q-0.125 0.375-0.125 0.875t0.125 0.875m1-4q0.125 0.375 0.375 0.375t0.375-0.375 0-0.75l-0.125-0.375 0.1875 0.5625-0.0625-0.1875q-0.0625-0.1875-0.15625-0.28125l-0.09375-0.09375 0.09375 0.09375 0.26562-0.29688q0.26562-0.29688 0.14062-0.67188l-0.125-0.375h-0.5q-0.5 0-0.625 0.375t0.14062 0.67188l0.26562 0.29688 0.09375-0.09375-0.09375 0.09375q-0.09375 0.09375-0.15625 0.28125l-0.0625 0.1875 0.1875-0.5625-0.125 0.375q-0.125 0.375 0 0.75m0.75-2.75 0.125 0.375 0.375-0.125q0.375-0.125 0.625-0.375t-0.015625-0.54688l-0.26562-0.29688-0.09375 0.09375 0.09375-0.09375q0.09375-0.09375 0.15625-0.28125l0.0625-0.1875-0.1875 0.5625 0.125-0.375q0.125-0.375 0-0.75l-0.125-0.375 0.1875 0.5625-0.0625-0.1875q-0.0625-0.1875-0.15625-0.28125l-0.09375-0.09375 0.09375 0.09375 0.26562-0.29688q0.26562-0.29688 0.015625-0.54688t-0.625-0.375-0.5 0.25 0.14062 0.67188l0.26562 0.29688 0.09375-0.09375-0.09375 0.09375q-0.09375 0.09375-0.15625 0.28125l-0.0625 0.1875 0.1875-0.5625-0.125 0.375q-0.125 0.375 0 0.75l0.125 0.375-0.1875-0.5625 0.0625 0.1875q0.0625 0.1875 0.15625 0.28125l0.09375 0.09375-0.09375-0.09375-0.26562 0.29688q-0.26562 0.29688-0.14062 0.67188m2.25-7.25q0.125 0.375 0.375 0.375t0.375-0.375 0-0.75-0.375-0.375-0.375 0.375 0 0.75m0.875-1.875q0.25 0.25 0.5 0.25t0.5-0.25-0.03125-0.53125l-0.28125-0.28125-0.0625 0.0625 0.0625-0.0625q0.0625-0.0625 0.0625-0.1875v-0.125 0.375-0.5 0.375-0.125q0-0.125-0.0625-0.1875l-0.0625-0.0625 0.0625 0.0625 0.28125-0.28125q0.28125-0.28125 0.03125-0.53125t-0.625-0.375-0.5 0.25 0.15625 0.65625l0.28125 0.28125 0.0625-0.0625-0.0625 0.0625q-0.0625 0.0625-0.0625 0.1875v0.125-0.375 0.5-0.375 0.125q0 0.125 0.0625 0.1875l0.0625 0.0625-0.0625-0.0625-0.28125 0.28125q-0.28125 0.28125-0.03125 0.53125m1.125-3.125q0.125 0.375 0.375 0.375t0.375-0.375 0.25-0.75 0.375-0.625 0.375-0.625 0-0.75-0.375-0.375-0.375 0.375-0.25 0.75-0.375 0.625-0.375 0.625 0 0.75m2.125-4.875q0 0.25 0.25 0.25t0.25-0.25v-0.25 0.375-0.125q0-0.125-0.0625-0.1875l-0.0625-0.0625 0.0625 0.0625 0.28125-0.28125q0.28125-0.28125 0.03125-0.53125t-0.625-0.375-0.5 0.25 0.15625 0.65625l0.28125 0.28125 0.0625-0.0625-0.0625 0.0625q-0.0625 0.0625-0.0625 0.1875v0.125-0.375 0.25m1-2q0 0.25 0.25 0.25t0.25-0.25v-0.25 0.375-0.125q0-0.125-0.0625-0.1875l-0.0625-0.0625 0.0625 0.0625 0.28125-0.28125q0.28125-0.28125 0.03125-0.53125t-0.625-0.375-0.5 0.25 0.15625 0.65625l0.28125 0.28125 0.0625-0.0625-0.0625 0.0625q-0.0625 0.0625-0.0625 0.1875v0.125-0.375 0.25m1-2q0 0.25 0.25 0.25t0.25-0.25v-0.25 0.375-0.125q0-0.125-0.0625-0.1875l-0.0625-0.0625 0.0625 0.0625 0.28125-0.28125q0.28125-0.28125 0.03125-0.53125t-0.625-0.375-0.5 0.25 0.15625 0.65625l0.28125 0.28125 0.0625-0.0625-0.0625 0.0625q-0.0625 0.0625-0.0625 0.1875v0.125-0.375 0.25m1-2q0 0.25 0.25 0.25t0.25-0.25v-0.25 0.375-0.125q0-0.125-0.0625-0.1875l-0.0625-0.0625 0.0625 0.0625 0.28125-0.28125q0.28125-0.28125 0.03125-0.53125t-0.625-0.375-0.5 0.25 0.15625 0.65625l0.28125 0.28125 0.0625-0.0625-0.0625 0.0625q-0.0625 0.0625-0.0625 0.1875v0.125-0.375 0.25m1-2q0 0.25 0.25 0.25t0.25-0.25-0.25-0.25-0.25 0.25m0.875-1.125q0.125 0.375 0.375 0.375t0.375-0.375l0.125-0.375v0.75-0.25q0-0.25-0.125-0.375l-0.125-0.125 0.125 0.125-0.0625-0.4375q-0.0625-0.4375-0.3125-0.4375t-0.3125 0.4375l-0.0625 0.4375 0.125-0.125-0.125 0.125q-0.125 0.125-0.125 0.375v0.25-0.75l0.125 0.375m1.0625-2.0625q0.0625 0.4375 0.3125 0.4375t0.3125-0.4375l0.0625-0.4375-0.125 0.125 0.125-0.125q0.125-0.125 0.125-0.375v-0.25 0.75l-0.125-0.375q-0.125-0.375-0.375-0.375t-0.375 0.375l-0.125 0.375v-0.75 0.25q0 0.25 0.125 0.375l0.125 0.125-0.125-0.125 0.0625 0.4375m1.0625-1.8125q0 0.25 0.25 0.25t0.25-0.25-0.25-0.25-0.25 0.25m-1.2812 5.5938 0.21875-0.65625-0.0625 0.1875q-0.0625 0.1875-0.125 0.375l-0.0625 0.1875 0.03125-0.09375m4.2812-10.594q0 0.25 0.25 0.25t0.5-0.25 0.5-0.5 0.375-0.625 0-0.75-0.375-0.375-0.375 0.375-0.25 0.75-0.375 0.625-0.25 0.5m2-3q0 0.25 0.25 0.25t0.5-0.25 0.5-0.5 0.5-0.5 0.5-0.5 0.375-0.625 0-0.75-0.375-0.375-0.375 0.375-0.25 0.75-0.375 0.625-0.5 0.5-0.5 0.5-0.25 0.5m3-4q0 0.25 0.25 0.25t0.25-0.25-0.25-0.25-0.25 0.25m1-1q0 0.25 0.25 0.25t0.25-0.25-0.25-0.25-0.25 0.25m0.875-1.125q0.125 0.375 0.375 0.375t0.375-0.375 0-0.75-0.375-0.375-0.375 0.375 0 0.75m1.125-1.875q0 0.25 0.25 0.25t0.25-0.25-0.25-0.25-0.25 0.25m1-1q0 0.25 0.25 0.25t0.5-0.25 0.5-0.5 0.5-0.5 0.5-0.5 0.25-0.5-0.25-0.25-0.5 0.25-0.5 0.5-0.5 0.5-0.5 0.5-0.25 0.5m3-3q0 0.25 0.25 0.25t0.25-0.25-0.25-0.25-0.25 0.25m1-1q0 0.25 0.25 0.25t0.5-0.25 0.5-0.5 0.375-0.625l0.125-0.375 0.375-0.125q0.375-0.125 0.625-0.375t0.5-0.5 0.5-0.5 0.5-0.5 0.375-0.625l0.125-0.375 0.375-0.125q0.375-0.125 0.625-0.375t0.5-0.5 0.5-0.5 0.5-0.5 0.25-0.5-0.375-0.375-0.75 0-0.625 0.375-0.5 0.5-0.5 0.5-0.5 0.5-0.5 0.5-0.5 0.5-0.5 0.5-0.5 0.5-0.5 0.5-0.5 0.5-0.375 0.625-0.25 0.75-0.375 0.625-0.25 0.5m8-8q0 0.25 0.25 0.25t0.5-0.25 0.5-0.5 0.5-0.5 0.5-0.5 0.25-0.5-0.25-0.25-0.5 0.25-0.5 0.5-0.5 0.5-0.5 0.5-0.25 0.5m3-3q0 0.25 0.25 0.25t0.5-0.25 0.5-0.5 0.25-0.5-0.25-0.25-0.5 0.25-0.5 0.5-0.25 0.5m33.375-20.625q0.375 0.125 0.75 0t0.625-0.375 0.625-0.375 0.75-0.25 0.375-0.375-0.375-0.375-0.75 0-0.625 0.375-0.625 0.375-0.75 0.25-0.375 0.375 0.375 0.375m16.875-5.875q0.5 0 0.875-0.125t0.375-0.375-0.375-0.375-0.875-0.125-0.875 0.125-0.375 0.375 0.375 0.375 0.875 0.125" fill-opacity="0"/>
 </g>
 <path d="m12.996 8.684c1.997 0.028 2.258 1.523 2.842 1.56 0.724 0.045 1.134 0.918 0.842 1.508s-0.741 0.29-0.756 0.991c-9e-3 0.408 0.186 0.711 0.345 0.716 0.449-0.331 0.921-0.337 1.158-0.122 0.236 0.215 0.237 0.651 0.234 1.203 1.067 1.18 1.333 1.272 1.615 1.826 0.218 0.429 0.432 1.196-0.155 1.442-0.421 1.618-1.616 2.174-2.807 2.033-0.398-0.04-1.426 0.742-3.559 0.301-1.649-0.341-9.05-2.087-8.182-5.301 0.769-2.835 3.413-9.178 4.198-9.914 0 0-0.158 1.545 0.535 2.175 0.306-2.494 2.256-3.296 2.941-3.377-0.671 0.77-1.01 1.654-0.814 2.419 1.521-1.821 4.069-1.636 5.248-1.037-5.085 0.87-3.683 3.578-3.683 3.578z" fill="#88c0d0" fill-rule="evenodd"/>
</svg>
