<svg viewBox="0 0 24 24" xmlns="http://www.w3.org/2000/svg">
 <path d="m6.224 3.241c-0.122-3e-3 -0.223 0.063-0.223 0.145v2.903c0 0.046 0.032 0.089 0.087 0.117l5.552 2.786-5.552 2.786c-0.199 0.1-0.031 0.311 0.202 0.253l11.57-2.903c0.16-0.04 0.19-0.184 0.053-0.253l-11.57-5.806c-0.035-0.017-0.076-0.027-0.119-0.028z" color-rendering="auto" fill="#2e3440" fill-rule="evenodd" image-rendering="auto" shape-rendering="auto"/>
 <path d="m17.776 20.759c0.122 3e-3 0.223-0.063 0.223-0.145v-2.903c0-0.046-0.032-0.089-0.087-0.117l-5.553-2.786 5.553-2.786c0.199-0.1 0.031-0.311-0.202-0.253l-11.57 2.903c-0.16 0.04-0.19 0.184-0.053 0.253l11.57 5.806c0.035 0.017 0.076 0.027 0.119 0.028z" color-rendering="auto" fill="#2e3440" fill-rule="evenodd" image-rendering="auto" shape-rendering="auto"/>
</svg>
