<svg width="24" height="24" viewBox="0 0 6.7733 6.7733" xmlns="http://www.w3.org/2000/svg">
 <path d="m3.387 1.129c-1.247 0-2.258 1.01-2.258 2.258 0 0.893 0.518 1.662 1.27 2.028 0.036 0.017 0.069 0.037 0.106 0.053 0.061 0.027 0.126 0.049 0.194 0.071 5e-3 2e-3 0.012-2e-3 0.018 0 0.049 0.015 0.097 0.032 0.15 0.044 0.021 5e-3 0.04 0.013 0.062 0.018 0.039 7e-3 0.074 0.012 0.115 0.018 0.063 0.01 0.129 0.013 0.194 0.018 0.067 5e-3 0.141 9e-3 0.212 9e-3h0.079c0.03 0 0.059-7e-3 0.088-9e-3 0.078-5e-3 0.153-0.019 0.229-0.035 0.122-0.025 0.24-0.065 0.353-0.115 0.022-9e-3 0.049-8e-3 0.071-0.018 9e-3 -4e-3 0.017-0.013 0.026-0.018 0.795-0.35 1.349-1.14 1.349-2.064 0-1.247-1.01-2.258-2.258-2.258zm0 0.282c1.091 0 1.976 0.885 1.976 1.976 0 0.596-0.27 1.128-0.688 1.49-0.028 6e-3 -0.057 0.018-0.088 0.018 0.521-0.43 0.632-1.075 0.168-1.693 0.034 0.403-0.189 0.612-0.379 0.75 0.298-0.568 0.302-1.212-0.282-1.782 0.047 0.14 0.085 0.252 0.053 0.379 0.031-0.151-0.402-0.83-1.032-1.12 0.089-0.012 0.181-0.018 0.273-0.018m-0.317 0.026c0.422 0.721 0.017 0.861-0.071 1.446 0.044-0.034 0.081-0.066 0.132-0.088 0.077-0.033 0.167-0.053 0.256-0.053s0.179 0.02 0.256 0.053 0.144 0.074 0.203 0.132c0.058 0.058 0.1 0.126 0.132 0.203 0.033 0.077 0.053 0.167 0.053 0.256s-0.02 0.179-0.053 0.256-0.074 0.144-0.132 0.203c-0.058 0.058-0.126 0.1-0.203 0.132-0.077 0.033-0.167 0.053-0.256 0.053s-0.179-0.02-0.256-0.053-0.144-0.074-0.203-0.132c-0.058-0.058-0.1-0.126-0.132-0.203-0.033-0.077-0.053-0.167-0.053-0.256s0.02-0.179 0.053-0.256c0.013-0.032 0.035-0.05 0.053-0.079-0.061-0.09-0.145-0.163-0.326-0.203 0.43 0.753-0.513 0.668-0.423 1.323-0.116-0.032-0.22-0.245-0.132-0.512-0.303 0.374-0.189 0.692 0.026 1.014-0.215-0.215-0.219-0.103-0.326-0.406 2e-3 0.043 0.012 0.082 0.018 0.123-0.174-0.294-0.273-0.638-0.273-1.01 0-0.983 0.718-1.797 1.658-1.949zm0.317 1.623c-0.089 0-0.171 0.039-0.229 0.097s-0.097 0.14-0.097 0.229 0.039 0.171 0.097 0.229 0.14 0.097 0.229 0.097 0.171-0.039 0.229-0.097 0.097-0.14 0.097-0.229-0.039-0.171-0.097-0.229-0.14-0.097-0.229-0.097z" fill="#2e3440"/>
</svg>
