<svg width="24" height="24" viewBox="0 0 6.7733 6.7733" xmlns="http://www.w3.org/2000/svg">
 <g transform="matrix(.64628 0 0 .6226 -.98742 -176.95)" fill="#2e3440">
  <g transform="matrix(.66942 0 0 .66942 -7.8335 95.42)">
   <path d="m18 293.03-0.094 0.188s-0.415 0.786-1.031 1.844l-0.281 0.5h10.439l-0.281-0.5-0.938-1.844-0.094-0.188h-7.532zm6.27 1.988 0.751-0.559 0.886 0.415-0.609-1.166c0.305-0.541-1.077 1.403-1.028 1.31z"/>
   <path d="m21.792 284.73c-0.172 1e-3 -0.336 0.114-0.679 0.337l-0.72 2.789 2.845-2e-3 -0.72-2.787c-0.376-0.226-0.555-0.338-0.726-0.337zm-1.724 4.381-0.268 1.036h4.03l-0.266-1.033zm3.763 1.036 0.33 1.277-0.33-1.277zm0.33 1.277-4.689-3e-3 -0.418 1.621c1.996 1.141 3.332 1.211 5.527 7e-3z"/>
  </g>
 </g>
</svg>
