<svg viewBox="0 0 24 24" xmlns="http://www.w3.org/2000/svg">
 <g transform="matrix(.91674125 0 0 .91674127 1.0008954 .99552351)" style="fill:#2e3440">
  <path d="m11.156 3.277v1.961c-2.77 0.352-5.02 2.387-5.703 5.063h1.754c0.719-1.93 2.621-3.438 4.699-3.422h0.152c0.754 4e-3 1.496 0.191 2.172 0.531 1.211 0.551 2.109 1.637 2.551 2.891h1.762c-0.68-2.676-2.93-4.711-5.699-5.063v-1.961zm-5.703 10.43c0.684 2.672 2.934 4.711 5.703 5.059v1.965h1.688v-1.965c2.77-0.348 5.02-2.387 5.699-5.059h-1.738c-0.684 2.031-2.793 3.492-4.93 3.418-2.078 0.012-3.961-1.484-4.664-3.418"/>
  <path d="m12 8.293c-2.055 0-3.719 1.672-3.719 3.754 0 0-0.023 0.352 0.082 0.75h5.715c-0.156 0.434-0.434 0.824-0.809 1.086-0.863 0.688-2.172 0.438-2.91-0.336h-1.766c0.574 1.324 1.883 2.254 3.406 2.254 2.055 0 3.723-1.684 3.723-3.754 0 0 0-0.387-0.074-0.75h-5.715c0.32-0.82 1.09-1.484 1.98-1.492 0.047-4e-3 0.09-4e-3 0.133-4e-3 0.602 0.012 1.18 0.301 1.586 0.742h1.777c-0.574-1.324-1.883-2.25-3.41-2.25"/>
 </g>
</svg>
