<svg viewBox="0 0 24 24" xmlns="http://www.w3.org/2000/svg">
 <path d="m9.09 8.594c-2.957 0-5.342 2.385-5.342 5.343 0 0.122-7e-3 0.254 0 0.376-1.042 0.501-1.751 1.522-1.751 2.686 0 1.672 1.446 3 3.251 3h13.498c1.805 0 3.251-1.329 3.251-3 0-1.239-0.788-2.317-1.937-2.779 0.029-0.19 0.029-0.369 0.029-0.562 0-2.124-1.722-3.846-3.842-3.846-1.067 0-2.023 0.426-2.718 1.124-0.967-1.418-2.596-2.342-4.44-2.342m-2.216 1.626c0.576 0 1.06 0.448 1.06 0.999s-0.483 0.999-1.06 0.999c-0.58 0-1.031-0.448-1.031-0.999s0.451-0.999 1.031-0.999zm5.091 0.781 3.03 4.405h-1.844v3.595h-2.438v-3.595h-1.719z" fill="#2e3440"/>
 <path d="m18.387 9.733-0.401-0.38-0.541 0.115 0.236-0.498-0.279-0.48 0.551 0.072 0.369-0.412 0.1 0.544 0.505 0.222-0.483 0.265z" fill="#2e3440"/>
 <path d="m18.831 8.723 0.021-0.258-0.201-0.165 0.251-0.061 0.093-0.24 0.136 0.222 0.258 0.014-0.168 0.197 0.064 0.251-0.236-0.1z" fill="#2e3440"/>
 <path d="m19.07 10.224-0.05-0.39-0.351-0.183 0.362-0.168 0.064-0.39 0.269 0.29 0.39-0.061-0.19 0.347 0.175 0.355-0.387-0.075z" fill="#2e3440"/>
</svg>
