<svg viewBox="0 0 24 24" xmlns="http://www.w3.org/2000/svg">
 <path d="m12 1.01c1.548 0.055 2.425 5.523 3.688 6.43 1.269 0.912 6.79-0.019 7.279 1.463 0.489 1.483-4.505 4.02-4.982 5.508-0.477 1.486 2.091 6.439 0.83 7.361-1.262 0.922-5.227-3.03-6.791-3.02-7e-3 0-0.016 4e-3 -0.023 4e-3 -1.137-6.104-0.417-11.899 0-17.744z" fill="#ebcb8b"/>
 <path d="m11.975 1c9e-3 0 0.017 6e-3 0.025 6e-3v17.744c-1.578 0.043-5.456 4.02-6.719 3.115-1.269-0.913 1.273-5.928 0.783-7.41-0.489-1.482-5.511-3.973-5.03-5.459 0.478-1.486 6.02-0.589 7.279-1.512 1.261-0.922 2.101-6.478 3.664-6.484" fill="#7b88a1"/>
</svg>
