<svg viewBox="0 0 24 24" xmlns="http://www.w3.org/2000/svg">
 <path d="m15.08 13.235c4e-3 1.608-1.375 2.911-3.076 2.911s-3.076-1.303-3.076-2.911 1.375-2.911 3.076-2.911 3.079 1.303 3.076 2.911z" fill="#bf616a"/>
 <path d="m19.333 6.46c0.738 0 1.364 0.24 1.887 0.723 0.519 0.48 0.781 1.06 0.781 1.74v8.616c0 0.677-0.261 1.257-0.781 1.74-0.523 0.48-1.149 0.72-1.887 0.72h-14.665c-0.738 0-1.364-0.24-1.887-0.72-0.519-0.483-0.781-1.064-0.781-1.74v-8.616c0-0.68 0.261-1.261 0.781-1.74 0.523-0.483 1.149-0.723 1.887-0.723h2.334l0.53-1.307c0.132-0.315 0.372-0.584 0.723-0.813 0.351-0.226 0.709-0.34 1.078-0.34h5.335c0.369 0 0.727 0.115 1.078 0.34 0.351 0.229 0.591 0.498 0.723 0.813l0.53 1.307m-4.998 11.08c1.285 0 2.385-0.423 3.298-1.264 0.913-0.845 1.368-1.859 1.368-3.044s-0.455-2.202-1.368-3.044c-0.913-0.845-2.01-1.264-3.298-1.264-1.285 0-2.385 0.419-3.298 1.264-0.913 0.842-1.368 1.859-1.368 3.044s0.455 2.199 1.368 3.044c0.913 0.842 2.01 1.264 3.298 1.264" fill="#2e3440"/>
</svg>
