<svg viewBox="0 0 24 24" xmlns="http://www.w3.org/2000/svg">
 <path d="m8.426 3.875c-2.444 0-4.426 1.984-4.426 4.432 0 0.818 0.221 1.584 0.607 2.242-0.101 0.496-0.154 1.01-0.154 1.537 0 4.221 3.418 7.641 7.633 7.641 0.477 0 0.943-0.043 1.396-0.127 0.623 0.335 1.335 0.525 2.092 0.525 2.444 0 4.426-1.984 4.426-4.432 0-0.707-0.167-1.376-0.461-1.969 0.115-0.528 0.178-1.076 0.178-1.639 0-4.22-3.416-7.643-7.631-7.643-0.445 0-0.883 0.038-1.307 0.111-0.682-0.43-1.488-0.68-2.354-0.68m3.719 4.123c1.309 0.048 2.5 0.737 3.203 1.818l1.389-0.463-1.572 3.146-3.145-1.574 1.277-0.426c-0.338-0.294-0.761-0.485-1.227-0.502-0.742-0.027-1.435 0.355-1.807 0.998l-1.732-1c0.74-1.282 2.134-2.053 3.613-1.998m-3.312 3.498 3.145 1.574-1.277 0.426c0.338 0.294 0.761 0.485 1.227 0.502 0.742 0.027 1.435-0.355 1.807-0.998l1.732 1c-0.74 1.282-2.134 2.053-3.613 1.998-1.309-0.048-2.5-0.737-3.203-1.818l-1.389 0.463 1.572-3.146z" fill="#2e3440"/>
</svg>
