<svg width="24" height="24" version="1.1" xmlns="http://www.w3.org/2000/svg">
 <defs>
  <style id="current-color-scheme" type="text/css">.ColorScheme-Text { 
    color:#2e3440;
} .ColorScheme-Highlight { color:#4285f4; } .ColorScheme-NeutralText { color:#ff9800; } .ColorScheme-PositiveText { color:#4caf50; } .ColorScheme-NegativeText { color:#f44336; }</style>
 </defs>
 <path class="ColorScheme-Text" d="m12 1.5a10.5 10.5 0 0 0-10.5 10.5 10.5 10.5 0 0 0 10.5 10.5 10.5 10.5 0 0 0 10.5-10.5 10.5 10.5 0 0 0-10.5-10.5zm0.21675 4.497v3e-3h3e-3c1.9635 0.072 3.7508 1.1061 4.8052 2.7276l2.082-0.69435-2.355 4.7198-4.7198-2.3614 1.916-0.63855c-0.507-0.441-1.1438-0.7305-1.8428-0.756-1.113-0.0405-2.1519 0.53265-2.7099 1.4972l-2.5988-1.5c1.1102-1.923 3.2007-3.0796 5.42-2.9972zm-4.9688 5.25 4.7198 2.3614-1.916 0.63855c0.5067 0.441 1.1438 0.7275 1.8428 0.753 1.113 0.0405 2.1519-0.5325 2.7099-1.497l2.599 1.5c-1.11 1.923-3.2018 3.0795-5.4202 2.997-1.9628-0.072-3.7503-1.1055-4.8048-2.727l-2.0829 0.6945z" fill="currentColor" stroke-width="1.5"/>
</svg>
