<svg width="24" height="24" viewBox="0 0 6.7733 6.7733" xmlns="http://www.w3.org/2000/svg">
 <path d="m3.157 1.693c-0.191 0-0.369 0.081-0.494 0.212-0.031 0.033-0.054 0.067-0.079 0.106-0.018 0.027-0.03 0.058-0.044 0.088-0.065-0.055-0.148-0.088-0.238-0.088-0.209 0-0.379 0.179-0.379 0.397 0 0.084 0.027 0.165 0.071 0.229-0.127 0.085-0.232 0.206-0.291 0.353-9e-3 0.022-0.011 0.048-0.018 0.071-0.026-3e-3 -0.053-9e-3 -0.079-9e-3 -0.382 0-0.688 0.324-0.688 0.723s0.306 0.723 0.688 0.723c0.048 0 0.096-8e-3 0.141-0.018 0.109-0.023 0.207-0.072 0.291-0.141 0.01 0.014 0.014 0.031 0.026 0.044 0.018 0.019 0.041 0.038 0.062 0.053s0.038 0.025 0.062 0.035 0.054 0.021 0.079 0.026c0.026 5e-3 0.052 9e-3 0.079 9e-3 0.176 0 0.319-0.126 0.37-0.291 0.128 0.13 0.294 0.226 0.476 0.265 0.062 0.013 0.128 0.018 0.194 0.018s0.132-4e-3 0.194-0.018c0.178-0.038 0.332-0.13 0.459-0.256 0.077 0.099 0.177 0.179 0.291 0.229 0.045 0.02 0.092 0.034 0.141 0.044s0.098 0.018 0.15 0.018 0.101-7e-3 0.15-0.018c0.142-0.03 0.27-0.101 0.37-0.203 0.042 0.061 0.1 0.111 0.168 0.141 0.024 0.01 0.045 0.012 0.071 0.018 0.026 5e-3 0.052 9e-3 0.079 9e-3 0.219 0 0.397-0.178 0.397-0.406s-0.178-0.415-0.397-0.415c-0.034 0-0.066 1e-3 -0.097 9e-3 -0.04-0.391-0.355-0.697-0.741-0.697h-9e-3c-0.013-0.387-0.323-0.697-0.697-0.697-0.027 0-0.053 6e-3 -0.079 9e-3 -0.065-0.329-0.345-0.573-0.679-0.573" fill="#2e3440" opacity=".4"/>
 <path d="m1.411 4.798v0.847h0.847v-0.282h0.564v-0.282h-0.564v-0.282z" fill="#2e3440" opacity=".4"/>
 <path d="m5.362 5.644v-0.847h-0.847v0.282h-0.564v0.282h0.564v0.282z" fill="#2e3440" opacity=".4"/>
</svg>
