<svg width="24" height="24" version="1.1" viewBox="0 0 24 24" xmlns="http://www.w3.org/2000/svg">
 <g id="surface1">
  <path d="m17.109375 9.445312c-1.082031-0.191406-2.160156-0.679687-3.148437-1.296874-0.902344-0.5625-1.742188-1.144532-2.421876-1.804688-1.160156-0.933594-2.277343-1.726562-3.894531-1.609375-1.488281 0.109375-2.527343 1.066406-3.226562 2.351563-1.03125 1.890624-1.347657 4.476562-1.308594 6.277343 0.035156 1.484375 0.273437 3.027344 0.707031 4.625 0.414063 1.511719 0.992188 3.070313 1.726563 4.671875 1.707031-0.203125 3.226562-0.492187 4.585937-0.859375 1.429688-0.390625 2.679688-0.863281 3.777344-1.410156 1.339844-0.667969 3.292969-2.054687 4.679688-3.675781 0.980468-1.144532 1.667968-2.390625 1.613281-3.535156-0.011719-0.265626-0.058594-0.519532-0.136719-0.773438-0.078125-0.257812-0.191406-0.511719-0.339844-0.765625-0.734375-1.261719-1.613281-1.789063-2.613281-2.195313zm-7.171875 0.144532c-0.132812 0.230468-0.402344 0.425781-0.976562 0.652344-0.03125-0.683594-0.019532-0.925782 0.113281-1.160157 0.132812-0.230469 0.398437-0.386719 0.6875-0.222656 0.285156 0.164063 0.308593 0.496094 0.175781 0.730469zm-2.484375-1.433594c-0.132813 0.230469-0.398437 0.425781-0.972656 0.652344-0.035157-0.683594-0.023438-0.925782 0.109375-1.160156 0.136718-0.230469 0.402344-0.386719 0.6875-0.222657 0.285156 0.164063 0.308594 0.496094 0.175781 0.730469zm1.746094 11.960938c-0.132813 0.230468-0.398438 0.425781-0.972657 0.65625-0.035156-0.6875-0.023437-0.929688 0.109376-1.160157 0.136718-0.230469 0.402343-0.390625 0.6875-0.222656 0.285156 0.164063 0.308593 0.496094 0.175781 0.726563zm5.484375-4.253907c0.285156 0.164063 0.3125 0.496094 0.179687 0.726563-0.136719 0.234375-0.402343 0.429687-0.976562 0.65625-0.035157-0.683594-0.023438-0.929688 0.113281-1.160156 0.132812-0.234376 0.398438-0.386719 0.683594-0.222657zm-7.921875 2.648438c-0.132813 0.234375-0.402344 0.429687-0.976563 0.65625-0.03125-0.6875-0.019531-0.925781 0.113282-1.160157 0.132812-0.230468 0.398437-0.390624 0.6875-0.222656 0.285156 0.164063 0.308593 0.496094 0.175781 0.726563zm0.101562-3.148438c-0.132812 0.230469-0.398437 0.425781-0.972656 0.652344-0.035156-0.683594-0.019531-0.925781 0.113281-1.160156 0.132813-0.230469 0.398438-0.386719 0.683594-0.222657 0.285156 0.164063 0.308594 0.496094 0.175781 0.730469zm5.121094 2.953125c-0.132813 0.230469-0.402344 0.425782-0.976563 0.65625-0.03125-0.6875-0.019531-0.929687 0.113282-1.160156 0.132812-0.234375 0.398437-0.390625 0.6875-0.222656 0.285156 0.164062 0.308594 0.496094 0.175781 0.726562zm5.792969-4.199218c-0.132813 0.230468-0.398438 0.425781-0.972656 0.652343-0.035157-0.683593-0.019532-0.925781 0.113281-1.160156 0.132812-0.230469 0.398437-0.386719 0.683593-0.222656 0.285157 0.164062 0.3125 0.496093 0.175782 0.730469zm-8.25 2.457031c-0.132813 0.230469-0.402344 0.425781-0.976563 0.65625-0.035156-0.683594-0.019531-0.929688 0.113281-1.160157 0.132813-0.230468 0.398438-0.390624 0.6875-0.222656 0.285157 0.160156 0.308594 0.496094 0.175782 0.726563zm3.015625-1.570313c-0.136719 0.230469-0.402344 0.425782-0.976563 0.652344-0.035156-0.683594-0.019531-0.925781 0.113282-1.160156 0.132812-0.230469 0.402343-0.386719 0.6875-0.222656 0.28125 0.164062 0.308593 0.5 0.175781 0.730468zm2.519531-3.082031c0.285156 0.164063 0.308594 0.496094 0.175781 0.726563-0.132812 0.234374-0.398437 0.429687-0.972656 0.65625-0.035156-0.6875-0.023437-0.925782 0.109375-1.160157s0.402344-0.386719 0.6875-0.222656zm-5.417969 1.410156c-0.132812 0.230469-0.398437 0.425781-0.972656 0.652344-0.035156-0.683594-0.023437-0.925781 0.109375-1.160156 0.136719-0.230469 0.402344-0.386719 0.6875-0.222657 0.285156 0.164063 0.308594 0.496094 0.175781 0.730469zm2.964844-2.828125c0.285156 0.164063 0.308594 0.5 0.175781 0.730469-0.132812 0.230469-0.402344 0.425781-0.976562 0.652344-0.03125-0.683594-0.019532-0.925781 0.113281-1.160157 0.136719-0.230468 0.402344-0.386718 0.6875-0.222656zm-5.488281 1.371094c-0.132813 0.230469-0.398438 0.425781-0.972656 0.652344-0.035157-0.683594-0.023438-0.929688 0.109374-1.160156 0.132813-0.230469 0.402344-0.386719 0.6875-0.222657 0.285157 0.164063 0.3125 0.5 0.175782 0.730469z" style="fill:rgb(81.960785%,21.568628%,17.647059%)"/>
  <path d="m10.433594 5.855469c0.398437 0.289062 0.789062 0.605469 1.1875 0.929687 0.699218 0.566406 1.429687 1.15625 2.265625 1.632813 0.804687 0.449219 1.535156 0.851562 2.273437 1.117187 0.539063 0.195313 1.105469 0.269532 1.59375 0.503906 0.089844 0 0.179688 0 0.273438-0.003906 1.027344-0.046875 2.015625-0.453125 2.863281-1.402344-0.519531-0.382812-1.027344-0.652343-1.519531-0.820312-0.605469-0.203125-1.191406-0.246094-1.753906-0.160156-0.195313 0.03125-0.378907-0.101563-0.410157-0.300782-0.019531-0.136718 0.035157-0.261718 0.140625-0.339843 0.644532-0.480469 1.21875-1.027344 1.621094-1.621094l0.003906-0.003906c0.285156-0.417969 0.484375-0.863281 0.558594-1.3125-0.507812-0.167969-1.039062-0.148438-1.5625 0.007812-0.691406 0.210938-1.371094 0.667969-1.996094 1.292969-0.136718 0.140625-0.367187 0.140625-0.507812 0.003906-0.078125-0.082031-0.117188-0.1875-0.105469-0.292968 0.089844-0.925782 0.078125-1.847657-0.125-2.585938-0.136719-0.492188-0.363281-0.898438-0.695313-1.160156-0.476562 0.304687-0.808593 0.699218-1.011718 1.15625-0.25 0.570312-0.316406 1.246094-0.226563 1.984375 0.027344 0.195312-0.117187 0.375-0.3125 0.398437-0.144531 0.019532-0.28125-0.054687-0.347656-0.167968-0.453125-0.695313-0.9375-1.285157-1.464844-1.746094-0.414062-0.359375-0.855469-0.644532-1.324219-0.832032-0.382812 1.511719-0.117187 2.6875 0.542969 3.667969 0.011719 0.019531 0.023438 0.035157 0.039063 0.054688z" style="fill:rgb(29.411766%,62.7451%,25.882354%)"/>
 </g>
</svg>
