
<svg xmlns="http://www.w3.org/2000/svg" xmlns:xlink="http://www.w3.org/1999/xlink" width="24" height="24" viewBox="0 0 24 24" version="1.1">
<g id="surface1">
<path style=" stroke:none;fill-rule:nonzero;fill:rgb(81.960785%,21.568628%,17.647059%);fill-opacity:1;" d="M 17.109375 9.445312 C 16.027344 9.253906 14.949219 8.765625 13.960938 8.148438 C 13.058594 7.585938 12.21875 7.003906 11.539062 6.34375 C 10.378906 5.410156 9.261719 4.617188 7.644531 4.734375 C 6.15625 4.84375 5.117188 5.800781 4.417969 7.085938 C 3.386719 8.976562 3.070312 11.5625 3.109375 13.363281 C 3.144531 14.847656 3.382812 16.390625 3.816406 17.988281 C 4.230469 19.5 4.808594 21.058594 5.542969 22.660156 C 7.25 22.457031 8.769531 22.167969 10.128906 21.800781 C 11.558594 21.410156 12.808594 20.9375 13.90625 20.390625 C 15.246094 19.722656 17.199219 18.335938 18.585938 16.714844 C 19.566406 15.570312 20.253906 14.324219 20.199219 13.179688 C 20.1875 12.914062 20.140625 12.660156 20.0625 12.40625 C 19.984375 12.148438 19.871094 11.894531 19.722656 11.640625 C 18.988281 10.378906 18.109375 9.851562 17.109375 9.445312 Z M 9.9375 9.589844 C 9.804688 9.820312 9.535156 10.015625 8.960938 10.242188 C 8.929688 9.558594 8.941406 9.316406 9.074219 9.082031 C 9.207031 8.851562 9.472656 8.695312 9.761719 8.859375 C 10.046875 9.023438 10.070312 9.355469 9.9375 9.589844 Z M 7.453125 8.15625 C 7.320312 8.386719 7.054688 8.582031 6.480469 8.808594 C 6.445312 8.125 6.457031 7.882812 6.589844 7.648438 C 6.726562 7.417969 6.992188 7.261719 7.277344 7.425781 C 7.5625 7.589844 7.585938 7.921875 7.453125 8.15625 Z M 9.199219 20.117188 C 9.066406 20.347656 8.800781 20.542969 8.226562 20.773438 C 8.191406 20.085938 8.203125 19.84375 8.335938 19.613281 C 8.472656 19.382812 8.738281 19.222656 9.023438 19.390625 C 9.308594 19.554688 9.332031 19.886719 9.199219 20.117188 Z M 14.683594 15.863281 C 14.96875 16.027344 14.996094 16.359375 14.863281 16.589844 C 14.726562 16.824219 14.460938 17.019531 13.886719 17.246094 C 13.851562 16.5625 13.863281 16.316406 14 16.085938 C 14.132812 15.851562 14.398438 15.699219 14.683594 15.863281 Z M 6.761719 18.511719 C 6.628906 18.746094 6.359375 18.941406 5.785156 19.167969 C 5.753906 18.480469 5.765625 18.242188 5.898438 18.007812 C 6.03125 17.777344 6.296875 17.617188 6.585938 17.785156 C 6.871094 17.949219 6.894531 18.28125 6.761719 18.511719 Z M 6.863281 15.363281 C 6.730469 15.59375 6.464844 15.789062 5.890625 16.015625 C 5.855469 15.332031 5.871094 15.089844 6.003906 14.855469 C 6.136719 14.625 6.402344 14.46875 6.6875 14.632812 C 6.972656 14.796875 6.996094 15.128906 6.863281 15.363281 Z M 11.984375 18.316406 C 11.851562 18.546875 11.582031 18.742188 11.007812 18.972656 C 10.976562 18.285156 10.988281 18.042969 11.121094 17.8125 C 11.253906 17.578125 11.519531 17.421875 11.808594 17.589844 C 12.09375 17.753906 12.117188 18.085938 11.984375 18.316406 Z M 17.777344 14.117188 C 17.644531 14.347656 17.378906 14.542969 16.804688 14.769531 C 16.769531 14.085938 16.785156 13.84375 16.917969 13.609375 C 17.050781 13.378906 17.316406 13.222656 17.601562 13.386719 C 17.886719 13.550781 17.914062 13.882812 17.777344 14.117188 Z M 9.527344 16.574219 C 9.394531 16.804688 9.125 17 8.550781 17.230469 C 8.515625 16.546875 8.53125 16.300781 8.664062 16.070312 C 8.796875 15.839844 9.0625 15.679688 9.351562 15.847656 C 9.636719 16.007812 9.660156 16.34375 9.527344 16.574219 Z M 12.542969 15.003906 C 12.40625 15.234375 12.140625 15.429688 11.566406 15.65625 C 11.53125 14.972656 11.546875 14.730469 11.679688 14.496094 C 11.8125 14.265625 12.082031 14.109375 12.367188 14.273438 C 12.648438 14.4375 12.675781 14.773438 12.542969 15.003906 Z M 15.0625 11.921875 C 15.347656 12.085938 15.371094 12.417969 15.238281 12.648438 C 15.105469 12.882812 14.839844 13.078125 14.265625 13.304688 C 14.230469 12.617188 14.242188 12.378906 14.375 12.144531 C 14.507812 11.910156 14.777344 11.757812 15.0625 11.921875 Z M 9.644531 13.332031 C 9.511719 13.5625 9.246094 13.757812 8.671875 13.984375 C 8.636719 13.300781 8.648438 13.058594 8.78125 12.824219 C 8.917969 12.59375 9.183594 12.4375 9.46875 12.601562 C 9.753906 12.765625 9.777344 13.097656 9.644531 13.332031 Z M 12.609375 10.503906 C 12.894531 10.667969 12.917969 11.003906 12.785156 11.234375 C 12.652344 11.464844 12.382812 11.660156 11.808594 11.886719 C 11.777344 11.203125 11.789062 10.960938 11.921875 10.726562 C 12.058594 10.496094 12.324219 10.339844 12.609375 10.503906 Z M 7.121094 11.875 C 6.988281 12.105469 6.722656 12.300781 6.148438 12.527344 C 6.113281 11.84375 6.125 11.597656 6.257812 11.367188 C 6.390625 11.136719 6.660156 10.980469 6.945312 11.144531 C 7.230469 11.308594 7.257812 11.644531 7.121094 11.875 Z M 7.121094 11.875 "/>
<path style=" stroke:none;fill-rule:nonzero;fill:rgb(29.411766%,62.7451%,25.882354%);fill-opacity:1;" d="M 10.433594 5.855469 C 10.832031 6.144531 11.222656 6.460938 11.621094 6.785156 C 12.320312 7.351562 13.050781 7.941406 13.886719 8.417969 C 14.691406 8.867188 15.421875 9.269531 16.160156 9.535156 C 16.699219 9.730469 17.265625 9.804688 17.753906 10.039062 C 17.84375 10.039062 17.933594 10.039062 18.027344 10.035156 C 19.054688 9.988281 20.042969 9.582031 20.890625 8.632812 C 20.371094 8.25 19.863281 7.980469 19.371094 7.8125 C 18.765625 7.609375 18.179688 7.566406 17.617188 7.652344 C 17.421875 7.683594 17.238281 7.550781 17.207031 7.351562 C 17.1875 7.214844 17.242188 7.089844 17.347656 7.011719 C 17.992188 6.53125 18.566406 5.984375 18.96875 5.390625 L 18.972656 5.386719 C 19.257812 4.96875 19.457031 4.523438 19.53125 4.074219 C 19.023438 3.90625 18.492188 3.925781 17.96875 4.082031 C 17.277344 4.292969 16.597656 4.75 15.972656 5.375 C 15.835938 5.515625 15.605469 5.515625 15.464844 5.378906 C 15.386719 5.296875 15.347656 5.191406 15.359375 5.085938 C 15.449219 4.160156 15.4375 3.238281 15.234375 2.5 C 15.097656 2.007812 14.871094 1.601562 14.539062 1.339844 C 14.0625 1.644531 13.730469 2.039062 13.527344 2.496094 C 13.277344 3.066406 13.210938 3.742188 13.300781 4.480469 C 13.328125 4.675781 13.183594 4.855469 12.988281 4.878906 C 12.84375 4.898438 12.707031 4.824219 12.640625 4.710938 C 12.1875 4.015625 11.703125 3.425781 11.175781 2.964844 C 10.761719 2.605469 10.320312 2.320312 9.851562 2.132812 C 9.46875 3.644531 9.734375 4.820312 10.394531 5.800781 C 10.40625 5.820312 10.417969 5.835938 10.433594 5.855469 Z M 10.433594 5.855469 "/>
</g>
</svg>
