<svg width="24" height="24" version="1.1" viewBox="0 0 24 24" xmlns="http://www.w3.org/2000/svg">
 <g id="surface1">
  <path transform="matrix(.158389 .0914476 -.0914476 .158389 9.737454 -1.437818)" d="m9.69519 34.382085c4.128163-2.802699 8.184297-3.936096 12.236454-4.17935-3.61634-3.017178-6.327324-7.370931-7.775236-13.637725-0.021359-0.036993-0.032038-0.05549-0.024221-0.084665-0.205209-0.868015 0.336706-1.723468 1.186224-1.917998 3.170391-0.745314 6.463419-0.722914 9.862681-0.046641 1.869346 0.375792 3.757957 0.913099 5.697871 1.667409-0.773302-1.723815-1.279065-3.454121-1.47248-5.241453-0.331897-3.137795 0.31883-6.325009 2.225443-9.472789 0.297271-0.467582 0.786001-0.774417 1.368749-0.790262 3.128652-0.006008 5.916969 1.491586 8.367601 3.899354 1.931749 1.893493 3.648798 4.354868 5.133977 7.09809 1.10058-2.707071 2.536403-5.089788 4.297558-6.994454 2.428358-2.585833 5.427671-4.268193 9.020832-4.665702 0.672369-0.116914 1.381175 0.213721 1.707275 0.863964 1.3393 2.704135 1.76368 5.788534 1.52637 9.008343-0.141618 2.104079-0.584905 4.28368-1.258737 6.448415 1.340341-0.625886 2.795292-1.095982 4.346356-1.399608 3.043776-0.622888 6.46628-0.675243 10.331587-0.046084l0.058352 0.015634c0.869551 0.139177 1.463957 0.955122 1.343277 1.813994-0.873939 6.004285-3.413414 10.4053-6.986468 13.528723 3.276067 0.377465 6.7274 1.442935 10.642337 3.695818 1.505906 0.856915 2.848204 1.857615 4.042529 2.943749 1.226364 1.141624 2.275578 2.360864 3.142688 3.734568 3.66276 5.703237 3.920819 13.668163 2.399362 21.797329-1.986659 10.74068-7.123887 21.919281-11.334128 28.296088-3.42082 5.181155-7.681248 10.403143-12.950614 15.714406-5.261549 5.282086-11.495043 10.632089-18.872675 16.050775-0.752637 0.533193-1.748803 0.516443-2.458376 0.013615-7.658659-5.319827-14.481341-10.900353-20.364883-16.776477-5.920536-5.854766-10.883435-12.01581-14.793353-18.488855-4.809066-7.902239-10.051519-20.314095-10.33485-31.569187-0.20982802-8.436695 2.306468-16.252397 9.688498-21.279024zm5.393583 21.942923c1.991489-2.5309 2.681166-4.112886 2.682839-5.519607 0.012352-1.388224-0.974323-2.840871-2.696254-2.83319-1.721932 0.00768-2.518401 1.404701-2.530753 2.792925 0.016824 1.396041 0.572911 2.530058 2.544168 5.559872zm39.177471 49.616543c1.99149-2.5309 2.681167-4.112886 2.693519-5.50111 0.001673-1.406721-0.985002-2.859368-2.706934-2.851687-1.721931 0.007681-2.5184 1.404701-2.520073 2.811422-0.012352 1.388224 0.572911 2.530058 2.533488 5.541375zm-15.239407-0.893676c1.99149-2.5309 2.699664-4.123565 2.68284-5.519607 0.012352-1.388224-0.974323-2.840871-2.696255-2.83319-1.73261-0.010816-2.529079 1.386204-2.530752 2.792925 0.016823 1.396041 0.591407 2.519379 2.544167 5.559872zm-7.781938-14.546362c2.009986-2.54158 2.710342-4.105069 2.712015-5.51179-0.016824-1.396042-0.99282-2.830192-2.706933-2.851687-1.721932 0.007681-2.536898 1.41538-2.520074 2.811422-0.001673 1.40672 0.572911 2.530058 2.514992 5.552055zm30.926499-1.91e-4c1.991489-2.5309 2.681167-4.112886 2.682839-5.519607 0.012353-1.388224-0.974323-2.840871-2.696254-2.83319s-2.518401 1.404701-2.530753 2.792925c0.016824 1.396042 0.583591 2.548555 2.544168 5.559872zm-15.694983-1.469164c2.009986-2.54158 2.710342-4.105069 2.712015-5.51179-0.016824-1.396042-0.99282-2.830192-2.706934-2.851687-1.721931 0.007681-2.536897 1.41538-2.520073 2.811422-0.001673 1.40672 0.572911 2.530058 2.514992 5.552055zm24.199288-13.873068c1.991489-2.530901 2.710342-4.105069 2.712015-5.51179-0.016823-1.396042-0.99282-2.830192-2.696254-2.83319-1.751107-1.37e-4 -2.547577 1.396883-2.549249 2.803604 0.016823 1.396041 0.591407 2.519379 2.533488 5.541376zm-14.660288-1.129387c2.009985-2.54158 2.710342-4.105069 2.712015-5.51179-0.016824-1.396042-0.99282-2.830192-2.696255-2.83319-1.73261-0.010816-2.547576 1.396883-2.530752 2.792925-0.001673 1.40672 0.572911 2.530058 2.514992 5.552055zm-17.481895 0.00645c1.991489-2.5309 2.699663-4.123566 2.682839-5.519607 0.012352-1.388225-0.974323-2.840871-2.696254-2.833191-1.721931 0.007681-2.518401 1.404701-2.530753 2.792925 0.016824 1.396042 0.602087 2.537876 2.544168 5.559873zm-15.243384-0.003535c2.009986-2.541579 2.710342-4.105069 2.712015-5.51179s-0.974323-2.840871-2.696254-2.83319c-1.732611-0.010816-2.52908 1.386204-2.530753 2.792925s0.572911 2.530058 2.514992 5.552055zm54.120542-17.707433c2.009986-2.541579 2.710342-4.105069 2.712015-5.511789 0.001673-1.406721-0.974323-2.840871-2.706934-2.851687-1.721931 0.00768-2.5184 1.4047-2.520073 2.811421s0.572911 2.530059 2.514992 5.552055zm-15.338729 0.002189c2.009986-2.541579 2.699663-4.123565 2.712015-5.51179 0.001673-1.40672-0.974323-2.84087-2.706933-2.851686-1.721932 0.00768-2.518401 1.4047-2.520074 2.811421s0.572911 2.530059 2.514992 5.552055zm-14.803653-0.010794c1.991489-2.530901 2.710342-4.105069 2.693519-5.501111 0.001673-1.406721-0.974324-2.840871-2.696255-2.83319-1.714114-0.021495-2.52908 1.386204-2.530752 2.792925 0.016823 1.396041 0.591407 2.519379 2.533488 5.541376zm-17.185181 0.007775c1.991489-2.5309 2.681167-4.112886 2.68284-5.519607 0.012352-1.388224-0.974324-2.840871-2.696255-2.83319-1.73261-0.010816-2.52908 1.386204-2.530753 2.792925-0.001672 1.406721 0.572911 2.530058 2.544168 5.559872zm-1.930392-25.940084c2.165292 0.204925 4.368346 0.560685 6.619072 0.913583 3.942155 0.634113 8.038007 1.278138 12.31366 1.251119 4.063604-0.052565 7.761463-0.140587 11.18948-0.738697 2.498789-0.456207 4.841577-1.438905 7.233016-1.611172 0.351436-0.202905 0.702871-0.40581 1.043628-0.627212 3.832985-2.459639 6.727736-6.202593 7.90851-11.71815-2.851971-0.326373-5.421327-0.248683-7.671074 0.211712-2.760603 0.558044-5.113303 1.694439-7.08518 3.276846-0.694286 0.548828-1.696175 0.436733-2.234323-0.239056-0.373005-0.475189-0.439384-1.102748-0.221823-1.622957 1.410624-3.280675 2.40497-6.641619 2.626645-9.803077l0.007817-0.029175c0.162208-2.239279-0.061918-4.378815-0.75914-6.269867-2.315916 0.473936-4.337002 1.714819-5.990039 3.507738-2.185809 2.322482-3.779305 5.585429-4.795567 9.378286-0.226704 0.846099-1.096045 1.348022-1.942144 1.121318-0.485309-0.114399-0.860408-0.465067-1.058357-0.893351-1.698974-3.754254-3.794194-7.255068-6.204971-9.636523-1.607185-1.587636-3.37358-2.639428-5.237202-2.919876-1.166192 2.251705-1.558945 4.476117-1.321277 6.681822 0.279827 2.748598 1.545141 5.49545 3.511999 8.133205 0.538149 0.675789 0.378381 1.68054-0.315904 2.229367-0.522861 0.375867-1.200954 0.397436-1.716208 0.103026-3.276488-1.659666-6.44751-2.837651-9.488845-3.449291-2.391649-0.468833-4.723411-0.577646-6.934071-0.26313 1.873544 6.662273 5.515083 10.577409 10.227678 12.887665 0.098207 0.041949 0.185734 0.065401 0.29462 0.125847zm34.996532 4.358097c-4.972379 1.810374-10.689441 2.373658-16.327771 2.176277-5.148066-0.159831-10.072078-0.572332-14.522438-1.702225-7.117922-1.094151-13.719823-1.721699-20.201243 2.686302-5.984873 4.07199-8.024866 10.576873-7.847496 17.675878 0.260994 10.404805 5.187257 22.012722 9.710847 29.463225 3.728371 6.158603 8.472731 12.026563 14.151274 17.675772 5.383155 5.35117 11.59447 10.470817 18.559959 15.401657 6.648447-4.973021 12.335628-9.859629 17.117033-14.691863 5.071627-5.098447 9.163492-10.099802 12.444925-15.052506 3.991911-6.02879 8.821956-16.586114 10.71062-26.727643 1.34033-7.161407 1.214263-14.043408-1.784292-18.724376-0.696243-1.077759-1.5191-2.033091-2.442258-2.905851-0.963012-0.899074-2.063319-1.694218-3.282422-2.39611-6.124693-3.517281-11.094841-3.582534-16.286738-2.878537z" style="fill:rgb(18.039216%,20.392157%,25.098041%);stroke-width:2.7915;stroke:rgb(18.039216%,20.392157%,25.098041%)"/>
 </g>
</svg>
