<svg width="24" height="24" viewBox="0 0 6.7733 6.7733" xmlns="http://www.w3.org/2000/svg">
 <path d="m1.693 3.387 0.847-0.847v0.564h1.693v-0.564l0.847 0.847-0.847 0.847v-0.564h-1.693v0.564z" fill="#2e3440" fill-rule="evenodd"/>
 <g transform="matrix(.28222 0 0 .28222 -3.4879 -2.1013)">
  <path d="m30.565 21.238 1.414 1.414-1.793 1.793h5.172v2h-5.172l1.793 1.793-1.414 1.414-4.207-4.207z" fill="#2e3440"/>
 </g>
 <path d="m3.386 0.847c-1.399 0-2.539 1.139-2.539 2.539 0 1.399 1.139 2.541 2.539 2.541 0.246 0 0.484-0.037 0.71-0.103l-0.476-0.476c-0.077 9e-3 -0.155 0.015-0.234 0.015-1.094 0-1.974-0.882-1.974-1.977 0-1.094 0.88-1.974 1.974-1.974s1.977 0.88 1.977 1.974c0 0.043-3e-3 0.084-6e-3 0.126l0.491 0.491c0.05-0.198 0.079-0.404 0.079-0.617 0-1.399-1.142-2.539-2.541-2.539z" color-rendering="auto" fill="#2e3440" image-rendering="auto" shape-rendering="auto" solid-color="#000000" isolation="auto" mix-blend-mode="normal" white-space="normal"/>
</svg>
