<svg width="24" height="24" viewBox="0 0 6.7733 6.7733" xmlns="http://www.w3.org/2000/svg">
 <path d="m1.693 3.387 0.847-0.847v0.564h1.693v-0.564l0.847 0.847-0.847 0.847v-0.564h-1.693v0.564z" fill="#2e3440" fill-rule="evenodd"/>
 <path d="m5.881 3.881 0.399 0.399-1.796 1.796-1.098-1.098 0.399-0.399 0.698 0.698" fill="#2e3440"/>
 <path d="m3.386 0.847c-1.399 0-2.539 1.139-2.539 2.539 0 1.399 1.139 2.541 2.539 2.541 0.111 0 0.219-0.01 0.326-0.024l-0.555-0.555c-0.985-0.113-1.746-0.946-1.746-1.963 0-1.094 0.88-1.974 1.974-1.974s1.977 0.88 1.977 1.974c0 0.165-0.022 0.324-0.06 0.477l0.279-0.279 0.301-0.3 0.041 0.041c-0.033-1.371-1.159-2.477-2.538-2.477" color-rendering="auto" fill="#2e3440" image-rendering="auto" shape-rendering="auto" solid-color="#000000" isolation="auto" mix-blend-mode="normal" white-space="normal"/>
</svg>
