<svg width="24" height="24" viewBox="0 0 6.7733 6.7733" xmlns="http://www.w3.org/2000/svg">
 <path d="m5.472 1.483c-0.041-5e-3 -0.087 3e-3 -0.132 0.024l-4 1.552c-0.273 0.11-0.271 0.264-0.05 0.332l1.026 0.322 2.376-1.508c0.112-0.068 0.215-0.032 0.131 0.044l-1.925 1.747-0.055 0.455-0.279-0.894-0.247 0.157c0.121 0.384 0.239 0.769 0.361 1.152 0.039 0.103 0.137 0.131 0.224 0.133 0.131 4e-3 0.351-0.179 0.351-0.179l0.353-0.298 0.966 0.718c0.191 0.106 0.329 0.051 0.376-0.179l0.681-3.229c0.052-0.211-0.034-0.336-0.157-0.349m-2.313 2.707 0.214 0.159-0.26 0.219 0.046-0.378" fill="#88c0d0" opacity=".4"/>
</svg>
