<svg width="24px" height="24px" version="1.1" viewBox="0 0 24 24" xmlns="http://www.w3.org/2000/svg">
 <path d="m7.0391 20.211c-0.85547-1.7461-1.0508-2.7266-1.0508-2.7266s1.1953 1.2461 2.4219 1.3164l-1.3789-1.9922s-3.2578-1.0938-4.1367-1.457c0.40234 3.4766 4.1445 4.8555 4.1445 4.8555z" fill="#5e81ac"/>
 <path d="m2.7266 15.91 13.84 4.5312 3.8594-10.734-16.578-3.043c-2.0039 1.4805-1.1172 9.2461-1.1172 9.2461z" fill="#2e3440"/>
 <path transform="scale(1.8898)" d="m1.4428 8.4191 7.3236 2.3978 1.8562-5.4095-6.1557 2.1642-2.6148-3.7744c-1.0625 0.78342-0.40928 4.6219-0.40928 4.6219z" fill="none" stroke="#7a88a1" stroke-width=".1688"/>
 <path d="m10.504 1.8047c-1.0156 0.054687-2.1484 0.64844-3.0352 1.6406-3.3047 1.4805-4.8398 3.7695-5.4648 5.9141-1.3906 4.7656 1.418 9.7266 5.0352 10.848-4.2305-2.0781-4.3359-6.0469-4.2656-8.1289 0.41797 0.63672 1.2578 0.71484 1.2578 0.71484-0.09375-0.14453-0.17969-0.28906-0.25391-0.42969-0.28125-0.69531-0.48828-1.9297-0.14453-3.0508 0.21875-0.70312 0.92969-1.6992 1.8828-2.0039 0.066406 0.51953 0.23828 0.99219 0.12109 1.5469-0.63672 1.0977 0.027343 1.8359 0.027343 1.8359h0.003907c0.875-0.96484 1.0938-0.80078 1.9102-1.2695 0.92969-0.53516 1.7656-1.1172 2.0781-1.0742 1.25-0.17969 1.8398 0.14453 3.207 0.39062 0.87109 0.15625 1.8086 0.27344 2.543 0.36328 0.30859 0.69531 0.46875 1.418 0.52344 2.0898 0 0 0.20703 2.2305-0.47266 3.5391 0.53516-0.30469 0.96484-0.64844 1.3008-0.98828 0.066407 1.8555-1.2812 3.3711-1.2812 3.3711 0.51172-0.15625 0.9375-0.33203 1.293-0.50391-0.22266 1.2148-1.1055 3.7422-4.6094 5.4102 2.8906-0.36719 4.0703-1.7695 4.0703-1.7695s-0.26172 0.96875-2.0156 1.9453c6.1445-1.1211 7.7852-6.7617 7.7852-6.7617 0-0.003906 0-0.007813-0.003906-0.011719 0.86719-2.7188 0.039062-6.0586-1.0352-7.9141-0.64063-1.1172-1.5938-2.0586-2.1914-2.5898-0.085937-0.082031-0.17969-0.16406-0.27734-0.23828-0.16797-0.14063-0.26953-0.21875-0.26953-0.21875l-0.003906 0.007812c-0.085938-0.0625-0.17578-0.12109-0.26172-0.18359-0.98438-0.66797-2.0898-1.0898-2.668-1.2148-2.1992-0.8125-3.7422-0.66406-4.7461-0.55859 0 0 0.050781-0.10547 0.21094-0.23828 0.003906-0.007813 0.011719-0.011719 0.015625-0.015626 0.003907-0.003906 0.007813-0.003906 0.007813-0.007812 0.015625-0.011719 0.035156-0.023438 0.050781-0.039062 0.015625-0.011719 0.023437-0.019532 0.023437-0.019532-0.42578-0.023437-1.1211 0.44531-1.293 0.53906 0.003906-0.007813 0.003906-0.011719 0.007812-0.019531v-0.003907c0.007813-0.015625 0.015625-0.035156 0.023438-0.050781 0.007812-0.015625 0.015625-0.027344 0.023437-0.039062 0.007813-0.015626 0.015625-0.027344 0.023438-0.039063 0.003906-0.003906 0.003906-0.007813 0.003906-0.007813 0.015625-0.019531 0.027344-0.035156 0.039063-0.054687l0.003906-0.003906c0.003906-0.003907 0.003906-0.003907 0.003906-0.007813 0.003906-0.003906 0.007812-0.003906 0.007812-0.007812 0.22656-0.28125 0.64844-0.58203 0.77344-0.66797 0.023438-0.015625 0.035156-0.023437 0.035156-0.023437z" fill="#5e81ac"/>
</svg>
