<svg viewBox="0 0 24 24" xmlns="http://www.w3.org/2000/svg">
 <path d="m6 5c-1.108 0-2 0.892-2 2v10c0 1.108 0.892 2 2 2h12c1.108 0 2-0.892 2-2v-10c0-1.108-0.892-2-2-2h-12m9.03 2c0.055 5e-3 0.136 0.036 0.188 0.063l1.563 0.781c0.207 0.106 0.27 0.368 0.156 0.563l-4.875 8.375c-0.087 0.149-0.269 0.239-0.438 0.219-0.052-6e-3 -0.108-6e-3 -0.156-0.031-5e-3 -2e-3 -4.25-3.313-4.25-3.313-0.207-0.106-0.27-0.368-0.156-0.563l1.031-1.25c0.113-0.195 0.386-0.263 0.594-0.156l2.313 1.75 3.625-6.219c0.085-0.146 0.241-0.235 0.406-0.219" fill="#2e3440"/>
</svg>
