<svg width="24" height="24" viewBox="0 0 6.7733 6.7733" xmlns="http://www.w3.org/2000/svg">
 <g transform="translate(.28222 .28222)" fill="#2e3440">
  <g transform="matrix(1.0002 0 0 1 .069821 .0011024)" shape-rendering="auto">
   <path transform="matrix(.28217 0 0 .28222 -.069807 -.0011024)" d="m4.498 3c-0.553 1e-3 -1 0.451-0.998 1v10.996c-2e-3 0.553 0.445 1 0.998 1h13.504c0.552-2e-3 0.998-0.452 0.996-1v-9.441l-5.629 5.733-3.919 1.258 0.857-3.519 6.04-6.03" color-rendering="auto" image-rendering="auto" solid-color="#000000" isolation="auto" mix-blend-mode="normal" white-space="normal"/>
   <path d="m0.918 4.516v0.564c1e-3 0.155 0.126 0.281 0.282 0.281h3.811c0.155-1e-3 0.281-0.126 0.281-0.281v-0.564c-1e-3 0.155-0.126 0.281-0.281 0.281h-3.81c-0.155 0-0.281-0.126-0.282-0.281" color-rendering="auto" image-rendering="auto" solid-color="#000000" isolation="auto" mix-blend-mode="normal" white-space="normal"/>
  </g>
 </g>
 <path d="m5.921 0.596c-0.064 3e-3 -0.124 0.03-0.168 0.077l-2.255 2.253-0.224 0.574 0.574-0.224 2.253-2.255c0.161-0.157 0.045-0.431-0.18-0.424" color-rendering="auto" fill="#2e3440" fill-rule="evenodd" image-rendering="auto" shape-rendering="auto" solid-color="#000000" isolation="auto" mix-blend-mode="normal" white-space="normal"/>
</svg>
