<svg viewBox="0 0 24 24" xmlns="http://www.w3.org/2000/svg">
 <path d="m6.5 4c-1.376 0-2.5 1.124-2.5 2.5v11c0 1.376 1.124 2.5 2.5 2.5h11c1.376 0 2.5-1.124 2.5-2.5v-11c0-1.376-1.124-2.5-2.5-2.5h-11zm0 1h11c0.84 0 1.5 0.66 1.5 1.5v11c0 0.84-0.66 1.5-1.5 1.5h-11c-0.84 0-1.5-0.66-1.5-1.5v-11c0-0.84 0.66-1.5 1.5-1.5" fill="#2e3340"/>
 <rect x="4" y="15" width="16" height="1" fill="#2e3340"/>
 <rect transform="rotate(90)" x="15" y="-13" width="5" height="2" fill="#2e3340"/>
 <path d="m8 6h1.031c0.255 0.011 0.51 0.129 0.687 0.312l2.28 2.279 2.311-2.279c0.266-0.23 0.447-0.3 0.688-0.31h1v1c0 0.286-0.034 0.55-0.25 0.75l-2.28 2.28 2.249 2.249c0.188 0.19 0.281 0.45 0.281 0.72v1h-1c-0.265 0-0.53-0.093-0.719-0.281l-2.28-2.279-2.28 2.279c-0.188 0.19-0.454 0.28-0.719 0.28h-1v-1c0-0.265 0.093-0.53 0.281-0.718l2.28-2.249-2.28-2.279c-0.21-0.19-0.303-0.47-0.281-0.75v-1z" color="#bebebe" fill="#bf616a"/>
</svg>
