<svg viewBox="0 0 24 24" xmlns="http://www.w3.org/2000/svg">
 <path d="m12 5.863c-3.391 0-6.137 2.746-6.137 6.137v0.078c-0.199-0.043-0.402-0.078-0.613-0.078-1.695 0-3.066 1.375-3.066 3.066 0 1.695 1.371 3.07 3.066 3.07h12.273c2.371 0 4.293-1.922 4.293-4.297 0-2.344-1.879-4.254-4.219-4.293-0.949-2.16-3.086-3.684-5.598-3.684m-2.418 3.336c0.414-0.07 0.832 0.074 1.113 0.383l1.305 1.305 1.305-1.305c0.402-0.418 1.039-0.496 1.535-0.191 0.039 0.023 0.078 0.051 0.113 0.078 0.273 0.223 0.441 0.551 0.453 0.902 0.016 0.352-0.121 0.695-0.375 0.938l-1.305 1.305 1.305 1.305c0.363 0.293 0.531 0.773 0.426 1.23s-0.465 0.816-0.922 0.922c-0.457 0.105-0.938-0.063-1.23-0.426l-1.305-1.305-1.305 1.305c-0.293 0.363-0.773 0.531-1.23 0.426s-0.816-0.465-0.922-0.922c-0.105-0.457 0.063-0.938 0.426-1.23l1.266-1.305-1.266-1.305c-0.418-0.402-0.496-1.039-0.191-1.531 0.176-0.297 0.469-0.508 0.805-0.578z" fill="#bf616a"/>
</svg>
