<svg viewBox="0 0 24 24" xmlns="http://www.w3.org/2000/svg">
 <g transform="translate(4,4)" fill="#ebcb8b">
  <path d="m8 0c-4.418 0-8 3.134-8 7s3.582 7 8 7 8-3.134 8-7-3.582-7-8-7zm0.031 3c0.265 0 0.547 0.11 0.75 0.313l2.906 2.906c0.016 0.016 0.016 0.045 0.031 0.063 0.099 0.113 0.17 0.237 0.219 0.375 0.035 0.1 0.063 0.211 0.063 0.313v0.062c0 0.01 1e-3 0.021 0 0.031 0 0.01 1e-3 0.021 0 0.031-0.014 0.244-0.125 0.5-0.313 0.688l-2.906 2.906c-0.406 0.406-1.063 0.406-1.469 0s-0.406-1.063 0-1.469l1.219-1.219h-3.531c-0.554 0-1-0.446-1-1s0.446-1 1-1h3.531l-1.219-1.219c-0.406-0.406-0.406-1.063 0-1.469 0.203-0.203 0.454-0.313 0.719-0.313z"/>
  <path d="m8.336 12 5.664 4-1-6z"/>
 </g>
</svg>
