<svg viewBox="0 0 24 24" xmlns="http://www.w3.org/2000/svg">
 <g transform="translate(4,4)" fill="#dedede">
  <path d="m8 0c-4.418 0-8 3.134-8 7s3.582 7 8 7 8-3.134 8-7-3.582-7-8-7zm-2.063 4c0.218-0.024 0.445 0.039 0.594 0.188l1.469 1.469 1.469-1.469c0.297-0.297 0.848-0.246 1.219 0.125s0.422 0.922 0.125 1.219l-1.469 1.469 1.469 1.469c0.297 0.297 0.246 0.848-0.125 1.219s-0.922 0.422-1.219 0.125l-1.469-1.469-1.469 1.469c-0.297 0.297-0.848 0.246-1.219-0.125s-0.422-0.922-0.125-1.219l1.469-1.469-1.469-1.469c-0.297-0.297-0.246-0.848 0.125-1.219 0.185-0.185 0.407-0.288 0.625-0.313z"/>
  <path d="m8.336 12 5.664 4-1-6z"/>
 </g>
</svg>
