<svg enable-background="new" viewBox="0 0 24 24" xmlns="http://www.w3.org/2000/svg">
 <path d="m9.185 4.5c-0.154-1e-3 -0.311 7e-3 -0.478 0.03-2.67 0.358-2.588 2.745-2.588 2.745-1.094 0.194-1.988 1.188-1.988 2.228 0 1.039 1.143 1.96 2.1 2.228 0.57 0.159 1.313 0 1.313 0 0.338 0.621 1.454 1.034 2.232 1.034 1.268 0 2.564-0.438 2.865-1.034 0 0 5.254 0.438 6.343 0 1.586-0.637 1.093-2.629 0.038-3.302s-2.438-0.199-2.438-0.199-8e-3 -1.369-1.5-2.024-2.752 0.791-2.752 0.791-0.837-2.481-3.146-2.496z" fill="#2e3440"/>
 <circle cx="16.847" cy="13.424" r="1" fill="#2e3440"/>
 <circle cx="12.322" cy="18.5" r="1" fill="#2e3440"/>
 <circle cx="17.61" cy="17.61" r="1" fill="#2e3440"/>
 <circle cx="11.07" cy="14.763" r="1" fill="#2e3440"/>
 <circle cx="6.831" cy="13.542" r="1" fill="#2e3440"/>
 <circle cx="8.05" cy="16.763" r="1" fill="#2e3440"/>
 <circle cx="14.627" cy="15.814" r="1" fill="#2e3440"/>
</svg>
