<svg width="24" height="24" viewBox="0 0 24 24" xmlns="http://www.w3.org/2000/svg">
 <path d="m5.472656 1.492188c-0.382812 0-0.785156 0.125-1.078125 0.421874l-2.109375 2.109376c-0.589844 0.585937-0.589844 1.566406 0 2.15625l1.3125 1.3125h8.53125l-5.578125-5.578126c-0.292969-0.296874-0.695312-0.421874-1.078125-0.421874zm13.78125 0c-0.394531 0-0.785156 0.125-1.078125 0.421874l-5.578125 5.578126h8.53125l1.3125-1.3125c0.585938-0.589844 0.585938-1.570313 0-2.15625l-2.109375-2.109376c-0.292969-0.296874-0.6875-0.421874-1.078125-0.421874zm-12.171875 6.761718c-0.398437 0.015625-0.714843 0.339844-0.71875 0.738282v5.246093c-0.015625 1.015625 1.511719 1.015625 1.5 0v-2.25h1.5v2.25c-0.015625 1.015625 1.511719 1.015625 1.5 0v-3c0-0.410156-0.335937-0.746093-0.75-0.746093h-2.25v-1.5c-0.007812-0.421876-0.359375-0.757813-0.78125-0.738282zm13.496094 0c-0.394531 0.015625-0.710937 0.339844-0.714844 0.738282v1.5h-0.75c-0.96875 0.027343-0.96875 1.46875 0 1.496093h0.75v2.25c0 0.414063 0.335938 0.75 0.75 0.75h2.25c1.015625 0.015625 1.015625-1.511719 0-1.5h-1.5v-1.5h1.5c1.03125 0.035157 1.03125-1.53125 0-1.496093h-1.5v-1.5c-0.007812-0.421876-0.359375-0.757813-0.78125-0.738282zm-19.464844 2.238282c-0.414062 0-0.75 0.332031-0.75 0.746093v3c0 0.414063 0.335938 0.75 0.75 0.75h3c1.015625 0.015625 1.015625-1.511719 0-1.5h-2.25v-1.5h2.25c1.015625 0.015625 1.015625-1.511719 0-1.5h-3zm12 0c-0.414062 0-0.75 0.332031-0.75 0.746093v3c0 0.414063 0.335938 0.75 0.75 0.75h1.125c1.015625 0.015625 1.015625-1.511719 0-1.5h-0.375v-1.5h1.5v2.25c-0.015625 1.015625 1.515625 1.015625 1.5 0v-3c0-0.414062-0.335937-0.746093-0.75-0.746093zm-9.515625 5.996093-1.3125 1.3125c-0.585937 0.589844-0.585937 1.570313 0 2.160157l2.109375 2.109374c0.585938 0.585938 1.570313 0.585938 2.15625 0l5.578125-5.582031zm9 0 5.578125 5.582031c0.585938 0.585938 1.570313 0.585938 2.15625 0l2.109375-2.109374c0.589844-0.589844 0.589844-1.570313 0-2.160157l-1.3125-1.3125z" fill="rgb(18.039216%, 20.392157%, 25.098041%)" fill-rule="evenodd"/>
</svg>
