<svg viewBox="0 0 24 24" xmlns="http://www.w3.org/2000/svg">
 <path d="m3.273 4.363c-0.605 0-1.09 0.488-1.09 1.09v14.184c0 0.605 0.484 1.09 1.09 1.09h6.543c0.605 0 1.094-0.484 1.094-1.09v-14.184c0-0.602-0.488-1.09-1.094-1.09zm0.543 1.09h5.457c0.301 0 0.543 0.246 0.543 0.547v7.637c0 0.301-0.242 0.547-0.543 0.547h-5.457c-0.301 0-0.543-0.246-0.543-0.547v-7.637c0-0.301 0.242-0.547 0.543-0.547zm0 10.91c0.305 0 0.547 0.242 0.547 0.547 0 0.301-0.242 0.543-0.547 0.543-0.301 0-0.543-0.242-0.543-0.543 0-0.305 0.242-0.547 0.543-0.547zm2.184 0c0.301 0 0.547 0.242 0.547 0.547 0-0.305 0.242-0.547 0.543-0.547 0.305 0 0.547 0.242 0.547 0.547 0 0.301-0.242 0.543-0.547 0.543-0.301 0-0.543-0.242-0.543-0.543 0 0.301-0.246 0.543-0.547 0.543s-0.547-0.242-0.547-0.543c0-0.305 0.246-0.547 0.547-0.547zm3.273 0c0.301 0 0.543 0.242 0.543 0.547 0 0.301-0.242 0.543-0.543 0.543-0.305 0-0.547-0.242-0.547-0.543 0-0.305 0.242-0.547 0.547-0.547zm-5.457 2.184c0.305 0 0.547 0.242 0.547 0.543 0 0.305-0.242 0.547-0.547 0.547-0.301 0-0.543-0.242-0.543-0.547 0-0.301 0.242-0.543 0.543-0.543zm2.184 0c0.301 0 0.547 0.242 0.547 0.543 0-0.301 0.242-0.543 0.543-0.543 0.305 0 0.547 0.242 0.547 0.543 0 0.305-0.242 0.547-0.547 0.547-0.301 0-0.543-0.242-0.543-0.547 0 0.305-0.246 0.547-0.547 0.547s-0.547-0.242-0.547-0.547c0-0.301 0.246-0.543 0.547-0.543zm3.273 0c0.301 0 0.543 0.242 0.543 0.543 0 0.305-0.242 0.547-0.543 0.547-0.305 0-0.547-0.242-0.547-0.547 0-0.301 0.242-0.543 0.547-0.543z" fill="#2e3440" fill-rule="evenodd"/>
 <path d="m17.188 2.188c-0.898-0.108-1.841 0.475-1.906 1.469v0.062c0 0.22 1e-3 0.435 0 0.656h-0.563c-0.896 0-1.625 0.729-1.625 1.625v13.09c0 0.896 0.726 1.625 1.625 1.625h5.469c0.897 0 1.625-0.726 1.625-1.625v-13.09c0-0.899-0.731-1.625-1.625-1.625h-0.563c5e-3 -0.155 0.037-0.278 0.031-0.469-0.01-0.343-0.084-0.762-0.375-1.125-0.315-0.405-0.779-0.556-1.156-0.594-0.365-0.036-0.679 8e-3 -0.906 0h-0.031zm-0.125 1.094h0.062c0.35 0.017 0.653-0.022 0.875 0s0.308 0.061 0.406 0.188c0.092 0.114 0.149 0.234 0.156 0.469 3e-3 0.113 5e-3 0.294 0 0.438h-2.188c1e-3 -0.21 0-0.412 0-0.625 0.02-0.3 0.36-0.514 0.688-0.469zm-2.344 2.188h5.469c0.309 0 0.531 0.219 0.531 0.531v13.09c0 0.312-0.225 0.531-0.531 0.531h-5.469c-0.312 0-0.531-0.217-0.531-0.531v-13.09c0-0.315 0.217-0.531 0.531-0.531z" fill="#2e3440"/>
 <path d="m15.816 15.273h3.273c0.301 0 0.547 0.242 0.547 0.543v2.184c0 0.301-0.246 0.547-0.547 0.547h-3.273c-0.301 0-0.543-0.246-0.543-0.547v-2.184c0-0.301 0.242-0.543 0.543-0.543z" fill="#2e3440" fill-rule="evenodd"/>
</svg>
