<svg width="24" height="24" viewBox="0 0 6.7733 6.7733" xmlns="http://www.w3.org/2000/svg">
 <path d="m2.125 1.129c-0.554 0-0.997 0.443-0.997 0.997v2.522c0 0.554 0.443 0.997 0.997 0.997h2.522c0.554 0 0.997-0.443 0.997-0.997v-2.522c0-0.554-0.443-0.997-0.997-0.997h-2.522zm-0.432 0.564h1.411v0.132c-0.036 3e-3 -0.059 0-0.106 0-0.153 0.01-0.265 0.029-0.265 0.115 0 0.075 0.023 0.145 0.079 0.22l0.706 1.094 0.75-1.102c0.05-0.078 0.071-0.15 0.071-0.194 0-0.065-0.053-0.108-0.106-0.132h-0.282v-0.132h1.129v0.132c-0.126 0.01-0.233 0.019-0.326 0.097-0.09 0.075-0.212 0.225-0.362 0.45l-0.723 1.147v1.279c0.06 0.055 0.342 0.147 0.564 0.15v0.132h-1.693v-0.132c0.225-0.01 0.511-0.095 0.564-0.15v-1.288l-0.6-0.917c-0.259-0.368-0.429-0.588-0.512-0.67s-0.17-0.097-0.3-0.097v-0.132z" fill="#2e3440"/>
</svg>
