<svg viewBox="0 0 24 24" xmlns="http://www.w3.org/2000/svg">
 <path d="m11.925 7.192c-0.949 0.06-1.898 0.383-2.707 0.971-0.947 0.688-1.573 1.636-1.869 2.674 0.143-0.057 0.293-0.112 0.439-0.168 0.294-0.871 0.845-1.655 1.633-2.227 1.446-1.051 3.351-1.185 4.875-0.346l0.703 0.387-0.227 0.354c0.376-0.056 0.742-0.1 1.102-0.139l-0.045-0.129c-0.079-0.025-0.171-0.052-0.236-0.076-0.314-0.114-0.618-0.255-0.916-0.406-0.328-0.167-0.542-0.32-0.957-0.553-0.13-0.073-0.284-0.157-0.438-0.24-0.443-0.094-0.9-0.13-1.357-0.102m0.242 1.861c-0.646-5e-3 -1.303 0.193-1.865 0.602-0.115 0.084-0.221 0.174-0.322 0.27 0.323-0.097 0.645-0.195 0.979-0.285 0.609-0.165 1.205-0.303 1.793-0.43l0.055-0.084c-0.209-0.047-0.423-0.071-0.639-0.072zm5.654 0.301c-0.039 1e-3 -0.084 7e-3 -0.123 8e-3l0.096 0.268 0.258-0.066 0.186 0.736c0.357 1.42 0.165 2.89-0.443 4.188 2.753-1.299 4.458-2.759 4.174-3.832-0.23-0.872-1.747-1.349-4.146-1.301m-5.691 0.822c-0.305 0.074-0.608 0.14-0.914 0.223-0.685 0.185-1.347 0.388-1.982 0.602-0.244 0.579-0.312 1.218-0.164 1.838l0.168 0.711-0.105 0.029 3.207-0.389-1.105 1.721c0.829 0.183 1.721 2e-3 2.484-0.553 1.031-0.749 1.508-2.045 1.219-3.203l-0.176-0.699-3.076 0.416 0.445-0.695zm4.719 1.258-0.391 0.104c0.11 1.546-0.554 3.086-1.857 4.03-0.184 0.134-0.376 0.253-0.572 0.357 0.379-0.118 0.752-0.237 1.113-0.363 1.213-1.058 1.821-2.608 1.707-4.131zm-9.27 0.178c-0.138 0.055-0.27 0.112-0.404 0.168-0.022 0.256-0.031 0.511-0.014 0.77l0.389-0.104c-0.018-0.28-3e-3 -0.558 0.029-0.834zm-1.965 0.889c-2.405 1.224-3.848 2.554-3.584 3.549 0.275 1.042 2.346 1.459 5.236 1.24l-1.063-2.934-0.262 0.07-0.18-0.748c-0.093-0.391-0.132-0.785-0.148-1.178m3.74 2.563-1.246 0.15 0.396 1.09 0.273-0.424 0.615 0.348c0.468 0.266 0.975 0.436 1.496 0.531 0.402-0.085 0.816-0.192 1.229-0.295-0.813 0.048-1.634-0.118-2.373-0.521l-0.707-0.385 0.316-0.494" fill="#2e3440" fill-opacity=".941"/>
 <g transform="matrix(-.80902 .58779 -.58779 -.80902 27.372 14.434)">
  <g transform="matrix(.34783 0 0 .34783 2.6436 2.6457)" fill="#2e3440">
   <path transform="matrix(2.875 0 0 2.875 97.068 -33.481)" d="m-25.406 14.5c2.304 0 4.367 1.303 5.281 3.313l1.219-0.469-1 3.469-3.313-1.844 1.281-0.5c-0.621-1.31-1.954-2.125-3.469-2.125-1.573 0-2.996 0.94-3.563 2.344l-1.781-0.688c0.845-2.104 2.985-3.5 5.344-3.5zm-5.5 4.719 3.313 1.781-1.281 0.5c0.613 1.305 1.964 2.156 3.469 2.156 1.576 0 2.979-0.91 3.563-2.313l1.781 0.688c-0.877 2.103-2.979 3.469-5.344 3.469-2.292 0-4.387-1.339-5.281-3.344l-1.219 0.438z"/>
  </g>
 </g>
</svg>
