<svg viewBox="0 0 24 24" xmlns="http://www.w3.org/2000/svg">
 <path d="m11.851 7.228c-0.621 6e-3 -1.238 0.128-1.82 0.361l0.219 0.338c1.436-0.569 3.087-0.401 4.387 0.543 0.14 0.101 0.267 0.214 0.393 0.328 0.151-0.021 0.295-0.035 0.443-0.053-0.195-0.199-0.405-0.388-0.635-0.555-0.076-0.055-0.156-0.098-0.234-0.148-0.157-0.083-0.329-0.186-0.48-0.277-0.723-0.362-1.499-0.544-2.271-0.537m0.195 1.842c-0.593-0.031-1.186 0.109-1.701 0.424l-0.625 0.381-0.059-0.092 0.096 0.207c0.393-0.121 0.792-0.241 1.201-0.352 0.618-0.167 1.222-0.306 1.818-0.434-0.241-0.072-0.485-0.122-0.73-0.135zm-4.256 0.246-0.494 0.385c-0.065 0.117-0.144 0.261-0.221 0.381l0.289 0.076-0.143 0.691c-3e-3 0.012-2e-3 0.025-4e-3 0.037 0.148-0.06 0.305-0.117 0.457-0.176l0.076-0.404 0.566 0.148-0.527-1.139zm10.03 0.037c-0.037 1e-3 -0.078 5e-3 -0.115 6e-3 0.527 1.074 0.764 2.279 0.654 3.48l1.578 0.459c1.428-0.946 2.229-1.891 2.029-2.645-0.23-0.872-1.747-1.349-4.146-1.301m-1.762 0.121c-0.125 0.013-0.256 0.035-0.383 0.051 0.72 1 1.027 2.253 0.793 3.477l-0.15 0.787-0.535-0.141 0.527 1.096 0.887-0.68-0.49-0.145 0.145-0.68c0.272-1.284-0.039-2.653-0.793-3.766zm-2.176 0.326c-0.875 0.162-1.767 0.354-2.668 0.598-0.385 0.104-0.743 0.224-1.113 0.338l0.918 1.977-1.979-0.518c0.082 0.845 0.532 1.637 1.295 2.191 1.031 0.749 2.41 0.801 3.422 0.168l0.611-0.383-1.348-2.797 2.01 0.525c-0.075-0.799-0.482-1.558-1.146-2.1m-6.34 1.824c-0.139 0.056-0.269 0.115-0.404 0.172 0 1.561 0.753 3.092 2.113 4.08 0.569 0.414 1.202 0.686 1.852 0.83 0.34-0.074 0.686-0.161 1.033-0.248-0.939 4e-3 -1.88-0.277-2.682-0.859-1.295-0.941-2.01-2.438-1.912-3.975m-1.813 0.811c-2.481 1.242-3.97 2.601-3.701 3.613 0.312 1.183 2.94 1.556 6.453 1.111-0.036-0.025-0.076-0.042-0.111-0.068-1.557-1.132-2.47-2.842-2.641-4.656z" fill="#2e3440" fill-opacity=".941"/>
 <g transform="matrix(-.80902 -.58779 .58779 -.80902 14.462 27.386)">
  <g transform="matrix(.34783 0 0 .34783 2.6436 2.6457)" fill="#2e3440">
   <path transform="matrix(2.875 0 0 2.875 97.068 -33.481)" d="m-25.406 14.5c2.304 0 4.367 1.303 5.281 3.313l1.219-0.469-1 3.469-3.313-1.844 1.281-0.5c-0.621-1.31-1.954-2.125-3.469-2.125-1.573 0-2.996 0.94-3.563 2.344l-1.781-0.688c0.845-2.104 2.985-3.5 5.344-3.5zm-5.5 4.719 3.313 1.781-1.281 0.5c0.613 1.305 1.964 2.156 3.469 2.156 1.576 0 2.979-0.91 3.563-2.313l1.781 0.688c-0.877 2.103-2.979 3.469-5.344 3.469-2.292 0-4.387-1.339-5.281-3.344l-1.219 0.438z"/>
  </g>
 </g>
</svg>
