<svg viewBox="0 0 24 24" xmlns="http://www.w3.org/2000/svg">
 <g transform="translate(0,-40)" fill="#2e3440">
  <rect x="17" y="55" width="5" height="3" rx=".929"/>
  <rect x="8" y="42" width="5" height="3" rx="1.05"/>
  <path d="m9.945 44.07 1.821 6.759 0.957-0.256-1.821-6.759-0.957 0.256z"/>
  <rect x="2" y="46" width="5" height="3" rx="1.063"/>
  <rect x="12" y="59" width="5" height="3" rx="1.045"/>
  <g transform="matrix(.63044 .63047 -.63044 .63047 37.571 8.567)">
   <path d="m15.453 60.715c0.165 0.083 0.246 0.182 0.243 0.297 0 0.117 0.047 0.285 0.142 0.502 0.094 0.217 0.208 0.42 0.341 0.609l0.13 0.191c0.133 0.189 0.216 0.43 0.251 0.722 0.034 0.292 0.01 0.544-0.075 0.756l-1.723 4.503c-0.125 0.304-0.224 0.304-0.224 0.304l-0.749 2e-3s-0.09 4e-3 -0.222-0.306l-1.727-4.507c-0.082-0.214-0.105-0.466-0.069-0.754s0.121-0.528 0.257-0.72l0.126-0.188c0.133-0.189 0.246-0.392 0.341-0.609 0.094-0.217 0.142-0.384 0.142-0.502 0-0.117 0.081-0.216 0.243-0.297 0.162-0.08 0.361-0.121 0.595-0.121l1.379-8e-3c0.235 0 0.435 0.041 0.599 0.124z"/>
   <g transform="matrix(-.06678 0 0 -.041734 16.195 59.996)">
    <path transform="matrix(23.961 0 0 23.961 197.77 -17.818)" d="m-5.727 2.498c-0.013-0.18-0.045-0.358-0.096-0.537-0.059-0.195-0.13-0.454-0.254-0.586-0.134-0.143-0.313-0.135-0.473-0.165-0.144-0.027-0.289-0.014-0.434-0.014-0.147 0-0.294-0.013-0.439 0.014-0.16 0.03-0.339 0.021-0.473 0.165-0.123 0.132-0.196 0.391-0.254 0.586-0.052 0.18-0.083 0.357-0.096 0.537l-0.01 0.217c-1e-3 0.138 3e-3 0.277 2e-3 0.416 5e-3 0.781 5e-3 1.562 0.02 2.342 0.016 1.561 0.061 3.12 0.117 4.68 0.06 1.56 0.143 3.122 0.252 4.682 0.112 1.56 0.24 3.122 0.441 4.682 0.025 0.194 0.179 0.355 0.381 0.381 0.242 0.031 0.46-0.14 0.492-0.381 0.2-1.56 0.331-3.121 0.441-4.682 0.109-1.561 0.193-3.122 0.252-4.682 0.056-1.561 0.101-3.12 0.117-4.68 0.015-0.78 0.015-1.562 0.02-2.342-1e-3 -0.138 3e-3 -0.278 2e-3 -0.416z"/>
   </g>
  </g>
  <path d="m3.979 48.26 4.956 4.943 0.701-0.701-4.956-4.943-0.701 0.701"/>
  <path d="m14 50.27 9e-3 9.564h0.991l-9e-3 -9.564h-0.991z"/>
  <path d="m15.881 49.4 3.508 6.06 0.858-0.495-3.508-6.06-0.858 0.495z"/>
 </g>
</svg>
