<svg width="16" height="16" version="1.1" xmlns="http://www.w3.org/2000/svg">
 <title>Gnome Symbolic Icon Theme</title>
 <g transform="translate(-323 125)" fill="#2e3440">
  <path d="m331-124.98c-0.26956 0-0.53953 0.1015-0.74609 0.30469l-6.9453 6.832c-0.20661 0.20325-0.30895 0.46921-0.30859 0.73437v0.25782c-4e-4 0.26517 0.10198 0.53111 0.30859 0.73437l6.9453 6.832c0.41311 0.4064 1.079 0.4064 1.4922 0l6.9453-6.832c0.20663-0.20326 0.30894-0.4692 0.30859-0.73437v-0.25782c4e-4 -0.26516-0.10196-0.53112-0.30859-0.73437l-6.9453-6.832c-0.20657-0.20319-0.47652-0.30469-0.74609-0.30469zm0 2 6 6h-0.0156l-5.9551 5.9551v-5.9551h-6.0293z" enable-background="new" style="paint-order:normal"/>
  <path d="m331-116.98v6l6-6z" enable-background="new" opacity=".3" style="paint-order:normal"/>
 </g>
</svg>
