<svg width="16" height="16" xmlns="http://www.w3.org/2000/svg">
 <path d="M4.5 4c-.277 0-.5.223-.5.5v7c0 .277.223.5.5.5h7c.277 0 .5-.223.5-.5v-7c0-.277-.223-.5-.5-.5zM5 5h6v6H5z" fill="#2e3440"/>
 <rect x="4" width="2" height="3" rx=".5" ry=".5" fill="#2e3440"/>
 <rect x="7" width="2" height="3" rx=".5" ry=".5" fill="#2e3440"/>
 <rect x="10" width="2" height="3" rx=".5" ry=".5" fill="#2e3440"/>
 <rect x="4" y="13" width="2" height="3" rx=".5" ry=".5" fill="#2e3440"/>
 <rect x="7" y="13" width="2" height="3" rx=".5" ry=".5" fill="#2e3440"/>
 <rect x="10" y="13" width="2" height="3" rx=".5" ry=".5" fill="#2e3440"/>
 <rect transform="rotate(-90)" x="-6" y="13" width="2" height="3" rx=".5" ry=".5" fill="#2e3440"/>
 <rect transform="rotate(-90)" x="-9" y="13" width="2" height="3" rx=".5" ry=".5" fill="#2e3440"/>
 <rect transform="rotate(-90)" x="-12" y="13" width="2" height="3" rx=".5" ry=".5" fill="#2e3440"/>
 <rect transform="rotate(-90)" x="-6" width="2" height="3" rx=".5" ry=".5" fill="#2e3440"/>
 <rect transform="rotate(-90)" x="-9" width="2" height="3" rx=".5" ry=".5" fill="#2e3440"/>
 <rect transform="rotate(-90)" x="-12" width="2" height="3" rx=".5" ry=".5" fill="#2e3440"/>
 <path d="M4 2c-1.108 0-2 .892-2 2v8c0 1.108.892 2 2 2h8c1.108 0 2-.892 2-2V4c0-1.108-.892-2-2-2zm.5 1h7c.831 0 1.5.669 1.5 1.5v7c0 .831-.669 1.5-1.5 1.5h-7c-.831 0-1.5-.669-1.5-1.5v-7C3 3.669 3.669 3 4.5 3z" fill="#2e3440"/>
</svg>
