<svg width="16" height="16" xmlns="http://www.w3.org/2000/svg">
 <defs>
  <filter id="a" color-interpolation-filters="sRGB">
   <feBlend in2="BackgroundImage" mode="darken"/>
  </filter>
 </defs>
 <path d="M3 2v4H2C1 6 1 7 1 7v5h2v2h3v-1H4v-1h2V6H4V3h7v2h1V2zm0 6h1v1H3z" fill="#2e3440" filter="url(#a)" overflow="visible"/>
 <path d="M8.002 6A.999.999 0 0 0 7 7v4c0 .554.447 1 1.002 1H14a.999.999 0 0 0 1.002-1V7c0-.554-.447-1-1.002-1zM8 7h6.002v4H8z" fill="#2e3440" paint-order="markers stroke fill"/>
 <rect x="9" y="13" width="4" height="1" rx="0" ry="0" fill="#2e3440" paint-order="markers stroke fill"/>
</svg>
