<svg width="16" height="16" version="1.1" xmlns="http://www.w3.org/2000/svg">
 <defs>
  <style>.cls-1{fill-rule:evenodd;}</style>
 </defs>
 <path class="cls-1" d="m8.3613 4.9672-0.53477 2.7212-0.54319-0.81794c-1.1696 0.4695-1.8264 1.2433-1.9233 2.4349-0.9611-1.6843-0.37791-3.1844 0.84216-4.0665l-0.55688-0.83478zm-0.36318-3.437a6.4698 6.4698 0 1 1-4.5729 1.8949 6.4436 6.4436 0 0 1 4.5729-1.8949zm3.8024 2.6654a5.3772 5.3772 0 1 0 1.5791 3.8024 5.3688 5.3688 0 0 0-1.5791-3.8024zm-4.3076 6.9983 0.53476-2.716 0.54319 0.81794c1.1706-0.47477 1.8264-1.2484 1.9233-2.4402 0.9611 1.6843 0.37791 3.1844-0.84216 4.0665l0.55371 0.83478z" fill="#2e3440" stroke-width=".10527"/>
</svg>
