<svg width="16" height="16" version="1.1" xmlns="http://www.w3.org/2000/svg">
 <g transform="matrix(1.15 0 0 1.15 -11.449 -28.205)" fill="#2e3440">
  <path d="m16.215 36.882c-0.01822-0.12458-0.05725-0.38663-0.08672-0.58233l-0.05359-0.35582-0.38304-0.10754c-0.21068-0.05914-0.60404-0.21794-0.87415-0.35288l-0.49111-0.24534-0.41862 0.29939c-0.23024 0.16466-0.44138 0.31646-0.46921 0.33731-0.03055 0.0229-0.23374-0.14552-0.51297-0.42521l-0.46238-0.46313 0.33342-0.43944c0.18338-0.24169 0.33342-0.4609 0.33342-0.48713s-0.0639-0.14804-0.142-0.27069c-0.17664-0.2774-0.40116-0.81691-0.48411-1.1632-0.03455-0.14425-0.06773-0.26955-0.07374-0.27844-6e-3 -0.0089-0.26577-0.05229-0.57724-0.09644l-0.56631-0.08027v-1.3288l0.16758-0.03296c0.09217-0.01813 0.35074-0.0581 0.5746-0.08883l0.40702-0.05587 0.08467-0.34249c0.04657-0.18837 0.20461-0.58424 0.35121-0.87971l0.26655-0.53722-0.28158-0.39268c-0.15487-0.21597-0.29946-0.42178-0.32131-0.45734-0.05055-0.08228 0.82586-0.97393 0.9214-0.93742 0.03521 0.01346 0.24646 0.15648 0.46945 0.31784l0.40543 0.29338 0.41664-0.21668c0.42834-0.22276 1.0778-0.4654 1.2457-0.4654 0.08278 0 0.10204-0.05268 0.15253-0.41726 0.03178-0.22949 0.07265-0.49236 0.09082-0.58416l0.03303-0.1669 0.65262-0.01324c0.74874-0.01519 0.67053-0.07093 0.75476 0.5378 0.08191 0.59191 0.09673 0.64373 0.18427 0.6442 0.16284 8.6e-4 1.0182 0.32495 1.3019 0.49326 0.16124 0.09566 0.31334 0.17393 0.338 0.17393s0.2384-0.13948 0.47498-0.30996 0.44691-0.30996 0.46739-0.30996 0.23939 0.20218 0.48647 0.44928l0.44923 0.44928-0.32648 0.44469c-0.17956 0.24458-0.32574 0.46622-0.32484 0.49254 9.21e-4 0.02632 0.07544 0.1766 0.16564 0.33397 0.1941 0.33866 0.34246 0.70077 0.45207 1.1034l0.07969 0.29277 1.1124 0.17746v1.3331l-0.56631 0.08027c-0.31147 0.04415-0.57123 0.08755-0.57724 0.09644-6e-3 0.0089-0.03985 0.13419-0.0752 0.27844-0.08118 0.33131-0.346 0.96151-0.5039 1.1991-0.06641 0.09995-0.12075 0.19993-0.12075 0.22217s0.15136 0.24173 0.33637 0.48776l0.33637 0.44731-0.92832 0.92804-0.29116-0.21076c-0.16014-0.11591-0.37146-0.26736-0.46959-0.33653l-0.17843-0.12578-0.49189 0.24574c-0.27054 0.13516-0.66408 0.29408-0.87452 0.35317l-0.38263 0.10744-0.03584 0.26055c-0.01971 0.1433-0.05955 0.40539-0.08853 0.58243l-0.05269 0.32189h-1.3261zm1.5313-1.8995c0.18206-0.03611 0.53721-0.16557 0.78923-0.28768 0.39501-0.19138 0.52164-0.28526 0.91796-0.68048 0.37734-0.3763 0.49557-0.53112 0.65963-0.8638 0.31304-0.63479 0.40761-1.0884 0.37742-1.8103-0.02736-0.65431-0.12604-1.0228-0.42187-1.5756-0.42754-0.79891-1.3164-1.4838-2.2327-1.7204-0.47332-0.12222-1.2426-0.133-1.7083-0.02392-0.43351 0.10154-1.0324 0.38668-1.4087 0.67071-0.59761 0.45105-1.1136 1.2621-1.2817 2.0146-0.11132 0.49836-0.07351 1.435 0.07557 1.8717 0.33598 0.9842 0.97569 1.7113 1.8878 2.1456 0.73693 0.3509 1.4743 0.43252 2.3457 0.25965z" stroke-width=".047784"/>
  <g transform="matrix(.85615 0 0 .85615 -5.8305 23.316)" stroke-width=".091538">
   <path d="m26.187 12.247 0.46501-2.3617 0.47234 0.71125c1.0179-0.41284 1.5882-1.0856 1.6724-2.1219 0.83574 1.4646 0.32862 2.769-0.73231 3.5361l0.48149 0.7259z"/>
   <path d="m26.942 6.832-0.46502 2.3663-0.47234-0.71125c-1.017 0.40826-1.5882 1.0811-1.6724 2.1173-0.83574-1.4646-0.32862-2.769 0.73231-3.5361l-0.48424-0.7259z"/>
  </g>
 </g>
</svg>
