<svg width="16" height="16" viewBox="0 0 4.233 4.233" xmlns="http://www.w3.org/2000/svg">
 <path d="M2.91 0v.265h1.191c.073 0 .132.059.132.132v1.058a.132.132 0 0 1-.132.132h-1.19v2.646h-.53v-.529H.132A.132.132 0 0 1 0 3.572V2.514c0-.074.059-.133.132-.133h2.25v-.264H.925a.132.132 0 0 1-.132-.133V.926c0-.073.059-.132.132-.132h1.455V0zM3.97.53H2.91v.793H3.97zm-1.588.528H1.058v.794h1.323zm0 1.588H.265v.794H2.38z" fill="currentColor"/>
 <rect transform="scale(-1 1)" x="-3.969" y=".529" width="1.323" height=".794" rx="0" ry="0" fill="currentColor" fill-opacity=".931" opacity=".3"/>
 <path d="M2.646 1.058v.794H1.058v-.794zm0 1.588v.794H.265v-.794z" fill="currentColor" fill-opacity=".931" opacity=".1"/>
</svg>
