<svg width="16" height="16" viewBox="0 0 4.233 4.233" xmlns="http://www.w3.org/2000/svg">
 <path d="M4.233 2.91H3.97v1.191a.132.132 0 0 1-.133.132H2.778a.132.132 0 0 1-.132-.132v-1.19H0v-.53h.53V.132C.53.06.587 0 .66 0H1.72c.073 0 .132.059.132.132v2.25h.265V.925c0-.073.059-.132.132-.132h1.058c.074 0 .133.059.133.132v1.455h.793zM3.704 3.97V2.91H2.91V3.97zM3.175 2.38V1.058h-.794v1.323zm-1.587 0V.265H.794V2.38z" fill="currentColor"/>
 <rect transform="matrix(0 -1 -1 0 0 0)" x="-3.969" y="-3.704" width="1.323" height=".794" rx="0" ry="0" fill="currentColor" fill-opacity=".931" opacity=".3"/>
 <path d="M3.175 2.646h-.794V1.058h.794zm-1.587 0H.794V.265h.794z" fill="currentColor" fill-opacity=".931" opacity=".1"/>
</svg>
