<svg width="16" height="16" xmlns="http://www.w3.org/2000/svg">
 <g fill="currentColor" font-family="sans-serif" font-weight="400" white-space="normal">
  <path d="M0 1v13h6c.975 0 1.602.8 1.602.8l.39.518.4-.51s.65-.79 1.608-.808v-1h-.008c-1.025.015-1.624.478-1.988.824A2.791 2.791 0 0 0 6 13H1V2h5c.983 0 1.6.799 1.6.799l.4.535.4-.535S9.017 2 10 2v7l3-1V1h-3c-1.036 0-1.635.465-2 .82C7.635 1.465 7.036 1 6 1zm14 0v1h1v8h1V1zM3 4v1h3V4zm0 2v1h3V6zm0 2v1h3V8zm0 2v1h3v-1z" overflow="visible" style="font-feature-settings:normal;font-variant-alternates:normal;font-variant-caps:normal;font-variant-ligatures:none;font-variant-numeric:normal;font-variant-position:normal;isolation:auto;mix-blend-mode:normal;shape-padding:0;text-decoration-color:#000;text-decoration-line:none;text-decoration-style:solid;text-indent:0;text-transform:none"/>
  <path d="m13 11v2h-2v1h2v2h1v-2h2v-1h-2v-2z" overflow="visible" style="isolation:auto;mix-blend-mode:normal;text-decoration-color:#000;text-decoration-line:none;text-decoration-style:solid;text-indent:0;text-transform:none"/>
 </g>
</svg>
