<svg version="1.1" viewBox="0 0 16 16" xmlns="http://www.w3.org/2000/svg">
 <defs>
  <style id="current-color-scheme" type="text/css">
   .ColorScheme-Text { color:#2e3440; } .ColorScheme-Highlight { color:#88c0d0; } .ColorScheme-NeutralText { color:#d08770; } .ColorScheme-PositiveText { color:#a3be8c; } .ColorScheme-NegativeText { color:#bf616a; }
  </style>
 </defs>
 <path d="m4 1c-1.108 0-2 0.892-2 2v10c0 1.108 0.892 2 2 2h4.7617a4.5 4.5 0 0 1-0.49805-1h-4.2637c-0.554 0-1-0.446-1-1v-10c0-0.554 0.446-1 1-1h4v5h5v1.0312a4.5 4.5 0 0 1 1 0.23242v-2.2637l-5-5h-5zm5 1.4141 3.5859 3.5859h-3.5859v-3.5859z" color="#2e3440" fill="currentColor"/>
 <path d="m9.0001 12.5a3.5 3.5 0 0 1 3.5-3.5 3.5 3.5 0 0 1 3.5 3.5 3.5 3.5 0 0 1-3.5 3.5 3.5 3.5 0 0 1-3.5-3.5zm1.0859 0 2.5 2.5 0.70703-0.70703-1.293-1.293h3v-1h-3l1.293-1.293-0.70703-0.70703-2.5 2.5z" fill="currentColor"/>
</svg>
