<svg width="16" height="16" version="1.1" xmlns="http://www.w3.org/2000/svg">
 <rect x="1" y="6.0007" width="9" height="9" rx=".5" ry=".5" color="#000000" fill="currentColor" opacity=".25" style="paint-order:normal"/>
 <path d="m1 5c-0.554 0-1 0.446-1 1v9c0 0.554 0.446 1 1 1h9c0.554 0 1-0.446 1-1v-9c0-0.554-0.446-1-1-1zm0.5 1h8c0.277 0 0.5 0.223 0.5 0.5v8c0 0.277-0.223 0.5-0.5 0.5h-8c-0.277 0-0.5-0.223-0.5-0.5v-8c0-0.277 0.223-0.5 0.5-0.5zm8.6738-5.998a6 6 0 0 0-6.1738 5.998 6 6 0 1 0 12 0 6 6 0 0 0-5.8262-5.998zm-0.0273 1a5 5 0 0 1 4.8535 4.998 5 5 0 1 1-10 0 5 5 0 0 1 5.1465-4.998z" color="#000000" fill="currentColor" style="paint-order:normal"/>
</svg>
