<svg width="16" height="16" version="1.1" xmlns="http://www.w3.org/2000/svg">
 <path d="m10.174 0.001953a6 6 0 0 0-6.084 4.998h-3.0898c-0.554 0-1 0.446-1 1v9c0 0.554 0.446 1 1 1h9c0.554 0 1-0.446 1-1v-3.0879a6 6 0 0 0 5-5.9121 6 6 0 0 0-5.8262-5.998zm-0.0293 1a5 5 0 0 1 2e-3 0 5 5 0 0 1 0.99023 0.12891 5 5 0 0 1 2.1953 1.1406 5 5 0 0 1 0.67383 0.73633 5 5 0 0 1 0.2793 0.41406 5 5 0 0 1 0 2e-3 5 5 0 0 1 0.42578 0.90234 5 5 0 0 1 0.28902 1.6738 5 5 0 0 1-0.39453 1.9473 5 5 0 0 1-0.2168 0.44922 5 5 0 0 1 0 0.0019 5 5 0 0 1-0.0996 0.16016 5 5 0 0 1-0.46289 0.66211 5 5 0 0 1-1.5586 1.2363 5 5 0 0 1-3.8848 0.27539 5 5 0 0 1-0.46094-0.18359 5 5 0 0 1-2e-3 -2e-3 5 5 0 0 1-1.6055-1.166 5 5 0 0 1-0.0684-0.08203 5 5 0 0 1-0.25196-0.30664 5 5 0 0 1-0.27734-0.41016 5 5 0 0 1-2e-3 -0.0039 5 5 0 0 1-0.42578-0.90234 5 5 0 0 1-0.14258-0.47461 5 5 0 0 1-0.0586-0.30273 5 5 0 0 1-0.0371-0.19141 5 5 0 0 1-0.0469-0.49414 5 5 0 0 1 0-0.0039 5 5 0 0 1-4e-3 -0.20893 5 5 0 0 1 0.0254-0.49805 5 5 0 0 1 0-2e-3 5 5 0 0 1 0.0742-0.49219 5 5 0 0 1 0-2e-3 5 5 0 0 1 0.12305-0.48242 5 5 0 0 1 0-0.0019 5 5 0 0 1 0.17187-0.46875 5 5 0 0 1 0.47852-0.87695 5 5 0 0 1 0.30273-0.39648 5 5 0 0 1 1.123-0.98633 5 5 0 0 1 0.88867-0.45312 5 5 0 0 1 1.957-0.33789zm-8.6445 4.998h2.5a6 6 0 0 0 6 5.9961v2.5039c0 0.277-0.223 0.5-0.5 0.5h-8c-0.277 0-0.5-0.223-0.5-0.5v-8c0-0.277 0.223-0.5 0.5-0.5z" fill="currentColor" style="paint-order:normal"/>
</svg>
