<svg width="16" height="16" version="1.1" xmlns="http://www.w3.org/2000/svg">
 <path d="m10.174 0.001953a6 6 0 0 0-6.084 4.998h-3.0898c-0.554 0-1 0.446-1 1v9c0 0.554 0.446 1 1 1h9c0.554 0 1-0.446 1-1v-3.084a6 6 0 0 0 5-5.916 6 6 0 0 0-5.8262-5.998zm-0.02734 1a5 5 0 0 1 4.8535 4.998 5 5 0 0 1-5 4.9961v3.5039c0 0.277-0.223 0.5-0.5 0.5h-8c-0.277 0-0.5-0.223-0.5-0.5v-8c0-0.277 0.223-0.5 0.5-0.5h3.5a5 5 0 0 1 5.1465-4.998z" fill="currentColor" style="paint-order:normal"/>
 <path d="m10.146 1.002a5 5 0 0 0-5.1465 4.998h-3.5c-0.277 0-0.5 0.223-0.5 0.5v8c0 0.277 0.223 0.5 0.5 0.5h8c0.277 0 0.5-0.223 0.5-0.5v-3.5039a5 5 0 0 0 5-4.9961 5 5 0 0 0-4.8535-4.998z" color="#000000" fill="currentColor" opacity=".25" style="paint-order:normal"/>
</svg>
