<svg width="16" height="16" version="1.1" xmlns="http://www.w3.org/2000/svg">
 <path d="m8 1c-3.86 0-7 3.14-7 7s3.14 7 7 7 7-3.14 7-7-3.14-7-7-7zm-2.5059 3.9941a0.5 0.5 0 0 1 0.35938 0.15234l2.1465 2.1465 2.1465-2.1465a0.5 0.5 0 0 1 0.34375-0.15039 0.5 0.5 0 0 1 0.36328 0.85742l-2.1465 2.1465 2.1465 2.1465a0.50028 0.50028 0 1 1-0.70703 0.70703l-2.1465-2.1465-2.1465 2.1465a0.50028 0.50028 0 0 1-0.70703-0.70703l2.1465-2.1465-2.1465-2.1465a0.5 0.5 0 0 1 0.34766-0.85938z" fill="currentColor" style="font-feature-settings:normal;font-variant-alternates:normal;font-variant-caps:normal;font-variant-ligatures:normal;font-variant-numeric:normal;font-variant-position:normal;font-variation-settings:normal;isolation:auto;mix-blend-mode:normal;shape-padding:0;text-decoration-color:#000000;text-decoration-line:none;text-decoration-style:solid;text-indent:0;text-orientation:mixed;text-transform:none"/>
</svg>
