<svg width="16" height="16" xmlns="http://www.w3.org/2000/svg">
 <g transform="translate(-833 191)">
  <path d="M841.488-189.982A7.006 7.006 0 0 0 834-183a7.006 7.006 0 0 0 5.192 6.762c3.059.819 6.293-.52 7.877-3.262a.5.5 0 1 0-.868-.5 5.999 5.999 0 0 1-6.752 2.795A5.996 5.996 0 0 1 835-183a5.996 5.996 0 0 1 10.71-3.709L844-185h4v-4l-1.58 1.58a7.012 7.012 0 0 0-4.932-2.562z" fill="currentColor" font-family="sans-serif" font-weight="400" overflow="visible" style="font-feature-settings:normal;font-variant-alternates:normal;font-variant-caps:normal;font-variant-ligatures:normal;font-variant-numeric:normal;font-variant-position:normal;isolation:auto;mix-blend-mode:normal;shape-padding:0;text-decoration-color:#000;text-decoration-line:none;text-decoration-style:solid;text-indent:0;text-orientation:mixed;text-transform:none" white-space="normal"/>
 </g>
</svg>
