<svg width="16" height="16" xmlns="http://www.w3.org/2000/svg">
 <path d="M0 1v13h6c.975 0 1.602.8 1.602.8l.39.518.4-.51s.652-.793 1.612-.808H16V1h-6c-1.036 0-1.635.465-2 .82C7.635 1.465 7.036 1 6 1zm1 1h5c.983 0 1.6.799 1.6.799l.4.535.4-.535S9.017 2 10 2h5v11H9.992c-1.025.015-1.624.478-1.988.824A2.791 2.791 0 0 0 6 13H1zm1 2v1h4V4zm7 0v1h4V4zM2 6v1h4V6zm7 0v1h4V6zM2 8v1h4V8zm7 0v1h4V8zm-7 2v1h4v-1zm7 0v1h4v-1z" fill="currentColor" font-family="sans-serif" font-weight="400" overflow="visible" style="font-feature-settings:normal;font-variant-alternates:normal;font-variant-caps:normal;font-variant-ligatures:none;font-variant-numeric:normal;font-variant-position:normal;isolation:auto;mix-blend-mode:normal;shape-padding:0;text-decoration-color:#000;text-decoration-line:none;text-decoration-style:solid;text-indent:0;text-transform:none" white-space="normal"/>
</svg>
