<svg viewBox="0 0 16 16" xmlns="http://www.w3.org/2000/svg">
 <defs>
  <style id="current-color-scheme" type="text/css">
   .ColorScheme-Text { color:#2e3440; } .ColorScheme-Highlight { color:#88c0d0; } .ColorScheme-NeutralText { color:#d08770; } .ColorScheme-PositiveText { color:#a3be8c; } .ColorScheme-NegativeText { color:#bf616a; }
  </style>
 </defs>
 <path class="ColorScheme-Text" d="m9 2v12h1v-12h-1zm-8 1v2h2v-2h-2zm4 0v2h2v-2h-2zm7 0v1h2v-1h-2zm0 3v1h2v-1h-2zm-11 1v2h2v-2h-2zm4 0v2h2v-2h-2zm7 2v1h2v-1h-2zm-11 2v2h2v-2h-2zm4 0v2h2v-2h-2zm7 1v1h2v-1h-2z" fill="currentColor"/>
</svg>
