<svg width="16" height="16" version="1.1" xmlns="http://www.w3.org/2000/svg">
 <defs>
  <style id="current-color-scheme" type="text/css">
   .ColorScheme-Text { color:#2e3440; } .ColorScheme-Highlight { color:#88c0d0; } .ColorScheme-NeutralText { color:#d08770; } .ColorScheme-PositiveText { color:#a3be8c; } .ColorScheme-NegativeText { color:#bf616a; }
  </style>
 </defs>
 <g class="ColorScheme-Text" fill="currentColor">
  <path d="M3 0c-.554 0-1 .446-1 1v14c0 .554.446 1 1 1h10c.554 0 1-.446 1-1V5c0-.554-4.446-5-5-5zm.5 1H9v4h4v9.5c0 .277-.223.5-.5.5h-9a.499.499 0 0 1-.5-.5v-13c0-.277.223-.5.5-.5z"  overflow="visible"/>
  <path d="M5 7v.5c0 .275.227.5.5.5a4.5 4.5 0 0 1 4.5 4.5c0 .275.227.5.5.5h.5v-.5A5.5 5.5 0 0 0 5.5 7zm0 2v.5c0 .275.227.5.5.5A2.5 2.5 0 0 1 8 12.5c0 .275.227.5.5.5H9v-.5A3.5 3.5 0 0 0 5.5 9zm1 2a1 1 0 1 0 0 2 1 1 0 0 0 0-2z" overflow="visible"/>
 </g>
</svg>
