<svg width="16" height="16" xmlns="http://www.w3.org/2000/svg">
 <path d="M2.5 2.035c-.822 0-1.5.678-1.5 1.5v9c0 .823.678 1.5 1.5 1.5h11c.822 0 1.5-.677 1.5-1.5v-9c0-.822-.678-1.5-1.5-1.5zm0 1H6V8l1-1 1 1 1-.75L10 8V3.035h3.5c.286 0 .5.215.5.5v9c0 .286-.214.5-.5.5h-11a.488.488 0 0 1-.5-.5v-9c0-.285.214-.5.5-.5zm4.5 0h2V6l-.906.68L7 5.586z" fill="#2e3440" font-family="sans-serif" font-weight="400" overflow="visible" style="font-feature-settings:normal;font-variant-alternates:normal;font-variant-caps:normal;font-variant-ligatures:normal;font-variant-numeric:normal;font-variant-position:normal;isolation:auto;mix-blend-mode:normal;shape-padding:0;text-decoration-color:#000;text-decoration-line:none;text-decoration-style:solid;text-indent:0;text-orientation:mixed;text-transform:none"/>
</svg>
