<svg width="16" height="16" version="1.1" xmlns="http://www.w3.org/2000/svg">
 <defs>
  <style id="current-color-scheme" type="text/css">
   .ColorScheme-Text { color:#2e3440; } .ColorScheme-Highlight { color:#88c0d0; } .ColorScheme-NeutralText { color:#d08770; } .ColorScheme-PositiveText { color:#a3be8c; } .ColorScheme-NegativeText { color:#bf616a; }
  </style>
 </defs>
 <path d="M2.5 3C1.67 3 1 3.669 1 4.5v8c0 .831.67 1.5 1.5 1.5h11c.831 0 1.5-.669 1.5-1.5v-8c0-.831-.669-1.5-1.5-1.5zm0 1h11c.277 0 .5.223.5.5V6H2V4.5c0-.277.223-.5.5-.5zM2 8h12v4.5c0 .277-.223.5-.5.5h-11a.499.499 0 0 1-.5-.5zm8.5 3a.5.5 0 0 0-.5.5.5.5 0 0 0 .5.5.5.5 0 0 0 .5-.5.5.5 0 0 0-.5-.5zm2 0a.5.5 0 0 0-.5.5.5.5 0 0 0 .5.5.5.5 0 0 0 .5-.5.5.5 0 0 0-.5-.5z" class="ColorScheme-Text" fill="currentColor" overflow="visible" style="isolation:auto;mix-blend-mode:normal"/>
</svg>
