<?xml version="1.0" encoding="UTF-8" standalone="no"?>
<svg
   width="16"
   height="16"
   version="1.1"
   id="svg1"
   sodipodi:docname="text-calendar-symbolic.svg"
   inkscape:version="1.3.2 (091e20ef0f, 2023-11-25, custom)"
   xmlns:inkscape="http://www.inkscape.org/namespaces/inkscape"
   xmlns:sodipodi="http://sodipodi.sourceforge.net/DTD/sodipodi-0.dtd"
   xmlns="http://www.w3.org/2000/svg"
   xmlns:svg="http://www.w3.org/2000/svg">
  <sodipodi:namedview
     id="namedview1"
     pagecolor="#ffffff"
     bordercolor="#000000"
     borderopacity="0.25"
     inkscape:showpageshadow="2"
     inkscape:pageopacity="0.0"
     inkscape:pagecheckerboard="0"
     inkscape:deskcolor="#d1d1d1"
     inkscape:zoom="54.75"
     inkscape:cx="7.9908676"
     inkscape:cy="8"
     inkscape:window-width="2752"
     inkscape:window-height="1080"
     inkscape:window-x="0"
     inkscape:window-y="0"
     inkscape:window-maximized="1"
     inkscape:current-layer="svg1" />
  <defs
     id="defs1">
    <style
       id="current-color-scheme"
       type="text/css">
   .ColorScheme-Text { color:#2e3440; } .ColorScheme-Highlight { color:#88c0d0; } .ColorScheme-NeutralText { color:#d08770; } .ColorScheme-PositiveText { color:#a3be8c; } .ColorScheme-NegativeText { color:#bf616a; }
  </style>
  </defs>
  <path
     class="ColorScheme-Text"
     fill="currentColor"
     d="M5.5 1c-.277 0-.5.227-.5.5V2h1v-.5c0-.277-.223-.5-.5-.5zM6 2v.5a.5.5 0 1 1-1 0V2H3.5C2.669 2 2 2.669 2 3.5v9c0 .831.669 1.5 1.5 1.5h9c.831 0 1.5-.669 1.5-1.5v-9c0-.831-.669-1.5-1.5-1.5H11v.5a.5.5 0 1 1-1 0V2zm4 0h1v-.5a.5.5 0 1 0-1 0zM3.5 6h9c.277 0 .5.223.5.5v6c0 .277-.223.5-.5.5h-9a.499.499 0 0 1-.5-.5v-6c0-.277.223-.5.5-.5z"
     overflow="visible"
     style=""
     id="path1" />
</svg>
