<svg width="16" height="16.04" xmlns="http://www.w3.org/2000/svg">
 <path d="M0 2v1h1v8.035c0 .546.455 1 1 1h5v1.215l-2.72 1.844c-.26.125-.352.513-.188.75.164.236.541.26.75.062L7.5 14.094l2.658 1.812c.209.198.587.174.75-.062.164-.237.071-.625-.187-.75L8 13.25v-1.215h5c.545 0 1-.454 1-1V3h1V2zm2 1h11v7.5c0 .5-.5.5-.5.5h-10c-.5 0-.5-.5-.5-.5zm3 2a2 2 0 1 0 2 2H5zm3 0v1h4V5zm0 2v1h3V7z" fill="#2e3440" font-family="sans-serif" font-weight="400" overflow="visible" style="font-feature-settings:normal;font-variant-alternates:normal;font-variant-caps:normal;font-variant-ligatures:normal;font-variant-numeric:normal;font-variant-position:normal;isolation:auto;mix-blend-mode:normal;shape-padding:0;text-decoration-color:#000;text-decoration-line:none;text-decoration-style:solid;text-indent:0;text-orientation:mixed;text-transform:none"/>
</svg>
