<svg width="16" height="16" version="1.1" xmlns="http://www.w3.org/2000/svg">
 <defs>
  <style id="current-color-scheme" type="text/css">
   .ColorScheme-Text { color:#2e3440; } .ColorScheme-Highlight { color:#88c0d0; } .ColorScheme-NeutralText { color:#d08770; } .ColorScheme-PositiveText { color:#a3be8c; } .ColorScheme-NegativeText { color:#bf616a; }
  </style>
 </defs>
 <g class="ColorScheme-Text" fill="currentColor">
  <path d="M3 0c-.554 0-1 .446-1 1v14c0 .554.446 1 1 1h10c.554 0 1-.446 1-1V5c0-.554-4.446-5-5-5zm.5 1H9v4h4v9.5c0 .277-.223.5-.5.5h-9a.499.499 0 0 1-.5-.5v-13c0-.277.223-.5.5-.5z"  overflow="visible"/>
  <path d="M5 8v5h6V8zm1 1h1v.996H6zm2 0h2v.996H8zm-2 1.996h1V12H6zm2 0h2V12H8z"/>
 </g>
</svg>
