<svg id="svg836" width="285.59mm" height="93.039mm" version="1.1" viewBox="0 0 285.59 93.039" xmlns="http://www.w3.org/2000/svg">
 <rect id="rect824" x="-1.6784668e-6" y="-6.1035155e-7" width="285.59" height="93.039001" rx="5.9063001" ry="6.6012998" fill="#333333" style="fill:#0b57a4"/>
 <g id="g20776">
  <g id="g9218" transform="matrix(1.8209256,0,0,1.8209256,36.611526,82.06236)">
   <path id="path18389" d="m12.008859-40.482391c-10.721894 0-19.402972 8.521756-19.421939 19.042607h-0.00358v14.740952h0.00358c0.00502 2.386017 1.978228 4.318724 4.411665 4.318724h15.012172c10.723794-0.00679 19.402975-8.527449 19.402975-19.042605 1.5e-5 -10.520851-8.69056-19.042608-19.421942-19.042608z" style="fill:#51a2da"/>
   <path id="path18393" d="m15.955699-32.647046c-3.028987 0-5.704663 2.236586-6.0750817 5.170741-0.0249 0.245618-0.03219 0.422251-0.03359 0.644922l0.0036 11.996684c0 2.301235-1.756209 3.867465-3.950663 3.867465-2.197484 0-3.967716-1.722149-3.967716-3.871082 0.03604-2.359086 1.961319-3.855522 4.206978-3.920691h0.01188l2.279965-0.02066v-3.16725l-2.279965 0.01654c-4.087331-0.03604-7.331689 3.103025-7.45019 7.093624 0 3.880591 3.251028 7.044531 7.198008 7.044531 3.723171 0 6.8214047-2.852806 7.1597697-6.422347 0.04877-1.215007 0.02532-2.818432 0.02532-2.818432 0.0068-0.66023-0.0105-0.42328-0.0036-1.734261l2.827734-0.02016c2.188181 0.01519 2.163443-3.217921-0.02532-3.17345l-2.80293 0.02066c0-1.627346 0.02609-3.244826 0-4.874638 0.0019-1.409608 1.362887-2.655134 2.873208-2.655134 1.510702 0 3.108854 0.739495 3.108854 2.655134 0 0.27369-0.0057 0.43294-0.02119 0.534336-0.168616 0.888402 0.450459 1.737858 1.362189 1.866035 0.911733 0.126699 1.748824-0.519356 1.839166-1.418 0.05223-0.355248 0.05013-0.66852 0.05013-0.981853 0-3.377975-3.07825-5.826519-6.338631-5.826519z" fill="#ffffff"/>
  </g>
  <g id="g20761" transform="translate(8.9958338)">
   <path id="path4528" d="m110.29402 9.133759c-3.76102 0-6.17508 2.803377-6.19768 5.426006v15.205677c-5e-3 1.875297 2.90766 1.875297 2.90244 0v-10.148126h2.98414c0.69796 0 1.29393-0.496023 1.29393-1.291673 0-0.795653-0.63837-1.276555-1.29393-1.276555h-2.98414v-2.337597c0-1.496756 1.19418-2.744287 3.59764-2.714741 0.83598 0.01084 1.13074 0.209081 1.43594 0.391569 1.6669 1.082768 3.27089-1.424283 1.52421-2.382785-1.07077-0.642534-2.06994-0.8698635-3.26395-0.8698635zm31.80522 0.271179c-0.90533-0.047526-1.57133 0.831801-1.43211 1.668123v6.477489c-2.87116-2.36019-7.54462-2.195081-10.19331 0.417987-2.67999 2.342812-3.18922 6.586985-1.24024 9.51202 1.43176 2.208988 4.05127 3.785345 6.75037 3.66021 1.69731-0.01544 3.37864-0.734654 4.68387-1.795347-0.13391 0.838057 0.52643 1.72583 1.43976 1.671946 0.89663 0.03922 1.59287-0.828671 1.45521-1.668123-0.0157-6.228952 0.0157-12.456173-0.0157-18.683394-0.0465-0.6998883-0.72752-1.2772484-1.43974-1.2577828h-4e-3zm11.21526 6.341927c-4.37823-2e-6 -7.92774 3.452257-7.92872 7.711462-9.1e-4 4.260564 3.54911 7.714944 7.92872 7.714943 4.37959-4e-6 7.92969-3.454382 7.9287-7.714943-9.2e-4 -4.259202-3.5505-7.711458-7.9287-7.711462zm25.89606 0.06777c-1.97959 0-3.40647 0.576491-4.44578 1.306621-1.57741 1.107622 0.11976 3.423842 1.69713 2.315004 0.71796-0.503842 1.25118-0.772015 2.74952-0.772015 1.86485 0.03673 3.36301 0.722308 3.36301 2.089064-0.99971 0.620292-5.34608 1.134731-7.67846 2.436664-2.33411 1.301577-2.21071 2.944154-2.21071 4.009544 0 2.337594 2.51487 3.915693 4.69257 3.915693 2.17597 0 3.10057-0.447881 5.22962-1.878772v0.406693c-0.0689 1.963927 2.97542 1.963927 2.9059 0v-8.392756c0.01-3.481195-2.53746-5.384296-6.30019-5.438172zm-14.43749 0.03012c-1.25953 0-1.46948 1.019679-1.46286 1.430886v12.381439c-0.0346 0.800347 0.64043 1.46478 1.48598 1.46478 0.84552 0 1.52039-0.664433 1.48598-1.46478 0 0 0.0223-4.605675 0-7.553303-0.0224-2.947631 2.42448-3.585474 3.27437-3.585474 0.63192 0 1.13873 0.346033 1.63944 0.32761 0.74334-0.02748 1.35145-0.517226 1.35145-1.3744-0.0223-1.384833-1.75187-1.580878-3.02931-1.555155-1.27724 0.02561-2.35671 0.409469-3.29 0.956415 0 0-0.19553-1.028021-1.45523-1.028021zm-44.59684 0.03011c-0.96424-0.07272-2.02996 0.07886-3.20138 0.523484-2.83813 1.075815-4.76383 3.7193-4.77253 6.981506-8e-3 3.416892 2.42972 7.826173 7.48727 7.859195 3.40124 0.02194 5.10274-1.224067 6.0204-2.071689 0.60916-0.529391 0.65419-1.44931 0.0961-2.029971-0.55929-0.581533-1.49764-0.595782-2.07344-0.03009-0.68546 0.631411-1.69506 1.569405-4.557 1.257783-1.22824-0.13334-2.54616-1.111968-2.98762-1.859648l9.37647-3.912218c0.71709-0.312488 1.04835-1.128307 0.7449-1.837057-1.2557-2.422759-3.23962-4.661289-6.13163-4.880276zm33.1435 2.759929c2.73874 1e-5 4.9592 2.15902 4.9602 4.822921 2e-3 2.66594-2.21936 4.828134-4.9602 4.828142-2.74088 5e-6 -4.96223-2.162193-4.96024-4.828142 9.2e-4 -2.663909 2.22146-4.822924 4.96024-4.822921zm-17.50159 0.07532c2.59134-0.06636 4.90635 2.222892 4.85769 4.741239 0.0543 2.520087-2.26807 4.805544-4.8577 4.741235-2.46272 0.06404-4.72038-1.981309-4.84551-4.379736-0.26226-2.471419 1.80751-4.883753 4.34323-5.080145 0.16721-0.01605 0.33493-0.02267 0.50298-0.02267zm-16.36491 0.07532c1.41002 0.0013 2.74081 0.714487 3.41689 1.863127l-7.80533 3.269158c-0.5572-2.040402 1.72965-4.437088 2.97545-4.883751 0.467-0.167386 0.94286-0.248881 1.41299-0.248534zm63.22808 4.774261c-6.6e-4 0.923045 0.0143 1.18983-0.0107 2.11166-6e-3 1.108139-0.71571 1.620675-1.45905 2.043875-0.74316 0.424069-2.25418 0.795304-3.12838 0.835972-1.0089 0.03271-2.34455-0.189617-2.41581-1.363102 6.5e-4 -0.708411 0.3509-1.148815 0.92531-1.638058 1.3605-1.000913 3.20139-1.335991 6.08991-1.99174z" style="fill:#ffffff;stroke-width:.916336"/>
   <g id="g3048" transform="matrix(1.1917232,0,0,1.1917232,-62.21819,-8.1103101)">
    <path id="path18442" d="m159.31593 44.293078c-4.40612-4.328817-19.94348-4.11865-19.94348 9.778488s16.00116 14.261906 19.94348 9.778488" style="fill:none;stroke-linecap:round;stroke-width:5.165;stroke:#ffffff"/>
    <path id="path19039" d="m196.9958 79.913392v-28.365831c0-5.332889 5.93327-10.507447 12.03219-10.305473 5.32895 0.176475 11.24637 4.099603 12.51893 10.305473 1.80181 8.786895-5.56295 15.092379-10.56383 15.356673 0 0-7.72725 1.369382-13.79167-7.140364" style="fill:none;stroke-linecap:round;stroke-width:5;stroke:#ffffff"/>
    <path id="path19674" d="m230.05667 41.708528v24.764353" style="fill:none;stroke-linecap:round;stroke-width:5;stroke:#ffffff"/>
    <path id="path19676" d="m247.3696 42.548746s-11.24851-4.30378-16.82387 8.118497" style="fill:none;stroke-linecap:round;stroke-width:5;stroke:#ffffff"/>
    <g id="g3039" transform="translate(0,-8.4666671)">
     <circle id="path20166" cx="177.97113" cy="62.606289" r="14.818701" style="fill:#d38d5f;stroke-linecap:round;stroke-width:12.8389"/>
     <path id="path20589" d="m177.48803 50.881802a11.193678 11.193678 0 0 0-11.19369 11.19369 11.193678 11.193678 0 0 0 3.62897 8.246187c0.0191-0.167674 0.0387-0.334459 0.0589-0.499335 0.0216-0.175502 0.0436-0.349234 0.0662-0.521602 0.0228-0.172368 0.0462-0.343424 0.0703-0.512697 0.0241-0.169271 0.0489-0.337082 0.0742-0.503294 0.0254-0.166211 0.0514-0.330702 0.0781-0.49389 0.0268-0.163186 0.0544-0.324778 0.0826-0.484981 0.0283-0.160201 0.0573-0.319316 0.0871-0.476569 0.0296-0.157256 0.0603-0.312825 0.0916-0.467168 0.0313-0.15434 0.0631-0.307285 0.096-0.458751 0.0329-0.151471 0.0664-0.301218 0.10095-0.44985 0.0345-0.148629 0.0702-0.296095 0.1064-0.441926 0.0362-0.14583 0.0733-0.290446 0.11135-0.433514 0.0379-0.143068 0.0766-0.284762 0.11629-0.425104 0.0397-0.14034 0.0807-0.279036 0.12224-0.416688 0.0417-0.137653 0.0842-0.274265 0.12768-0.409264 0.0435-0.135003 0.0876-0.268466 0.13312-0.400853 0.0454-0.13239 0.0922-0.26362 0.13955-0.393431 0.0475-0.129811 0.096-0.258241 0.1455-0.385511 0.0496-0.127272 0.0998-0.25332 0.15143-0.378089 0.0516-0.124769 0.1046-0.248361 0.15837-0.370665 0.0537-0.122304 0.10833-0.243366 0.1643-0.363243 0.0559-0.119874 0.11299-0.238336 0.17122-0.355817 0.0582-0.117484 0.11763-0.233763 0.17816-0.348893 0.0606-0.115128 0.1222-0.229147 0.18509-0.341962 0.0629-0.112812 0.12722-0.224501 0.19251-0.335031 0.0654-0.110534 0.13168-0.219817 0.19944-0.328105 0.0677-0.108293 0.1366-0.215588 0.20685-0.321673 0.0703-0.106084 0.14197-0.211323 0.21478-0.315238 0.0728-0.103918 0.14678-0.206526 0.2222-0.308311 0.0755-0.101784 0.15205-0.20268 0.23012-0.302373 0.078-0.09969 0.15774-0.198303 0.23853-0.295937 0.0808-0.09764 0.1629-0.194385 0.24645-0.29 0.0836-0.09561 0.1685-0.189935 0.25486-0.283566 0.0864-0.09362 0.17405-0.186436 0.26327-0.278124 0.0893-0.09168 0.18005-0.182404 0.2722-0.272184 0.0921-0.08978 0.18598-0.178335 0.28109-0.266245 0.0951-0.0879 0.19138-0.175222 0.2895-0.261296 0.0981-0.08607 0.19822-0.171079 0.2994-0.255358 0.1012-0.08428 0.20351-0.167891 0.30781-0.250409 0.10433-0.08253 0.21024-0.164169 0.31772-0.244966 0.10748-0.0808 0.21691-0.160412 0.32761-0.239522s0.22305-0.157606 0.33702-0.235069c0.11397-0.07746 0.22912-0.153771 0.34641-0.229622 0.11729-0.07585 0.23666-0.150895 0.35731-0.225173 0.12065-0.07427 0.24263-0.147972 0.3667-0.220715 0.12408-0.07274 0.25004-0.145021 0.37759-0.216263 0.12756-0.07124 0.25692-0.141533 0.38799-0.211313 0.13107-0.06979 0.26373-0.139001 0.39838-0.207356 0.13465-0.06835 0.27099-0.135932 0.40926-0.2029 0.13827-0.06697 0.2787-0.133325 0.42065-0.198943 0.14195-0.06562 0.28586-0.130183 0.43153-0.194488 0.14568-0.06431 0.29298-0.127997 0.44243-0.191022 0.14946-0.06303 0.30103-0.125772 0.4543-0.187561 0.15327-0.06179 0.30803-0.122518 0.46519-0.183105 0.15715-0.06058 0.31647-0.120716 0.47755-0.180137 0.0149-0.0056 0.0305-0.01082 0.0456-0.01633a11.193678 11.193678 0 0 0-5.33433-1.358446zm8.01312 3.484944c-0.0285 0.238185-0.0564 0.477684-0.0872 0.710154-0.0456 0.344736-0.0936 0.683071-0.14451 1.015494-0.0508 0.332422-0.10436 0.658963-0.16085 0.979369-0.0565 0.320403-0.11559 0.634556-0.17814 0.943239-0.0625 0.308685-0.12843 0.611833-0.19746 0.909094-0.0691 0.297262-0.14133 0.588814-0.21725 0.874949-0.076 0.286135-0.15532 0.566483-0.23854 0.84179-0.0832 0.275309-0.17038 0.545344-0.26129 0.810119-0.0909 0.264776-0.18554 0.524401-0.28455 0.778943-0.099 0.254541-0.20227 0.504146-0.30981 0.748752-0.10753 0.244605-0.21958 0.484094-0.33601 0.719062-0.11646 0.234966-0.23748 0.465228-0.36325 0.690852-0.12577 0.225623-0.25645 0.447053-0.39194 0.663633-0.1355 0.216581-0.27552 0.428583-0.42115 0.636416-0.14563 0.207831-0.29664 0.4113-0.45282 0.610683-0.15616 0.199381-0.31785 0.394709-0.48498 0.585938-0.16711 0.191228-0.33967 0.378315-0.51814 0.561688-0.17847 0.183374-0.36256 0.363108-0.55278 0.538924s-0.38652 0.347604-0.58891 0.51616c-0.20238 0.168554-0.41106 0.333785-0.62602 0.495374-0.21495 0.161592-0.4362 0.319665-0.66413 0.474591s-0.4624 0.306733-0.70371 0.455288c-0.24132 0.148559-0.4897 0.294-0.7448 0.436486-0.2551 0.142485-0.51708 0.28196-0.78636 0.418667-0.2693 0.136711-0.54554 0.270611-0.82942 0.401844-0.28389 0.131232-0.57556 0.259953-0.87446 0.386007-0.29889 0.126052-0.60517 0.249494-0.91948 0.370664-0.31431 0.121171-0.63638 0.239729-0.96651 0.356314-0.0113 4e-3 -0.0234 0.0079-0.0346 0.01188a11.193678 11.193678 0 0 0 6.3394 1.973584 11.193678 11.193678 0 0 0 11.1937-11.193693 11.193678 11.193678 0 0 0-4.1941-8.722261zm-0.50677-0.506758a11.193678 11.193678 0 0 0-1.66527-1.112982c-0.015 0.0056-0.0305 0.01079-0.0455 0.01632-0.16107 0.05942-0.32039 0.119552-0.47755 0.180137-0.15716 0.06058-0.31191 0.121318-0.46518 0.183104-0.15328 0.06179-0.30485 0.124534-0.4543 0.187561-0.14946 0.06303-0.29676 0.12672-0.44243 0.191022-0.14566 0.06431-0.28959 0.128874-0.43154 0.194488-0.14194 0.06562-0.28237 0.131975-0.42064 0.198944-0.13827 0.06697-0.27462 0.134546-0.40927 0.202901-0.13465 0.06835-0.2673 0.137573-0.39838 0.207354-0.13106 0.06979-0.26043 0.14007-0.38799 0.211312-0.12754 0.07124-0.25351 0.143522-0.37759 0.216264-0.12407 0.07274-0.24605 0.146438-0.3667 0.220715-0.12065 0.07427-0.24001 0.149319-0.35731 0.225173-0.11728 0.07584-0.23244 0.152164-0.34641 0.229622-0.11397 0.07746-0.22632 0.15596-0.33702 0.23507-0.11069 0.07911-0.22013 0.158726-0.32761 0.239521-0.10748 0.0808-0.21339 0.162448-0.31771 0.244966-0.10431 0.08253-0.20662 0.16613-0.30782 0.250409-0.10118 0.08427-0.20127 0.169285-0.2994 0.255358-0.0981 0.08607-0.19439 0.173389-0.28949 0.261297-0.0951 0.08791-0.18896 0.176468-0.2811 0.266245-0.0922 0.08978-0.18296 0.180496-0.27218 0.272183-0.0893 0.09168-0.17691 0.184491-0.26329 0.278124-0.0864 0.09363-0.1713 0.187952-0.25485 0.283567-0.0835 0.09561-0.16566 0.192364-0.24645 0.289998-0.0809 0.09764-0.16045 0.196247-0.23853 0.295939-0.078 0.09969-0.1547 0.200588-0.23013 0.302373-0.0755 0.101784-0.14938 0.204392-0.22219 0.308311-0.0728 0.103915-0.14452 0.209154-0.21479 0.315238-0.0703 0.106084-0.1391 0.21338-0.20685 0.321671-0.0678 0.10829-0.13415 0.217572-0.19944 0.328105-0.0654 0.110531-0.12963 0.222223-0.19251 0.335032-0.0629 0.112815-0.12456 0.226835-0.18508 0.341963-0.0606 0.11513-0.11994 0.231409-0.17817 0.348892-0.0582 0.117482-0.11524 0.235945-0.17122 0.355818-0.0559 0.119875-0.11054 0.240939-0.1643 0.363243-0.0538 0.122303-0.10675 0.245896-0.15837 0.370665-0.0516 0.124768-0.10192 0.250816-0.15143 0.378089-0.0495 0.127269-0.098 0.255699-0.14549 0.38551-0.0474 0.129811-0.0941 0.261041-0.13956 0.393432-0.0454 0.132384-0.0896 0.265849-0.13311 0.400852-0.0435 0.135-0.0861 0.271611-0.12769 0.409265-0.0416 0.137652-0.0824 0.276346-0.12224 0.416688-0.0397 0.140341-0.0783 0.282035-0.11629 0.425104-0.0379 0.143067-0.0752 0.287682-0.11135 0.433512-0.0362 0.145832-0.0719 0.293299-0.1064 0.441928-0.0344 0.148631-0.0681 0.298378-0.10095 0.449849-0.0329 0.151464-0.0648 0.30441-0.096 0.458751-0.0313 0.154343-0.0617 0.309913-0.0916 0.467167-0.0297 0.157255-0.0589 0.316369-0.0871 0.47657-0.0283 0.160204-0.0558 0.321796-0.0826 0.484982-0.0268 0.163189-0.0528 0.327679-0.0781 0.49389-0.0254 0.166211-0.0502 0.334022-0.0742 0.503294s-0.0475 0.340327-0.0703 0.512696c-0.0228 0.172368-0.0448 0.3461-0.0662 0.521603-0.0202 0.164876-0.0397 0.331659-0.0589 0.499335a11.193678 11.193678 0 0 0 1.22532 0.973921c0.0113-4e-3 0.0233-0.0079 0.0346-0.01188 0.33012-0.116585 0.65219-0.235143 0.9665-0.356313 0.31431-0.121171 0.62059-0.244613 0.91949-0.370665 0.29889-0.126054 0.59055-0.254774 0.87445-0.386007 0.28389-0.131233 0.56012-0.265133 0.82942-0.401843 0.26929-0.136708 0.53127-0.276183 0.78637-0.418668s0.50347-0.287927 0.74479-0.436485c0.24131-0.148556 0.47578-0.300363 0.70371-0.455289s0.44918-0.312999 0.66413-0.47459c0.21496-0.16159 0.42364-0.326821 0.62603-0.495375 0.20238-0.168556 0.39868-0.340344 0.58891-0.516161 0.19022-0.175815 0.37431-0.355548 0.55277-0.538923 0.17847-0.183373 0.35103-0.37046 0.51815-0.561688 0.16711-0.191229 0.32881-0.386557 0.48498-0.585937 0.15617-0.199383 0.30719-0.402852 0.45281-0.610684 0.14563-0.207833 0.28564-0.419835 0.42115-0.636415 0.1355-0.216581 0.26617-0.438011 0.39195-0.663634 0.12576-0.225624 0.24679-0.455886 0.36323-0.690852 0.11646-0.234968 0.22849-0.474457 0.33604-0.719061 0.10752-0.244606 0.21076-0.494212 0.30978-0.748754 0.099-0.254541 0.19364-0.514166 0.28456-0.778941 0.0909-0.264775 0.17809-0.534811 0.26129-0.81012 0.0832-0.275306 0.16262-0.555654 0.23854-0.841789 0.076-0.286136 0.14821-0.577688 0.21725-0.87495 0.069-0.297261 0.1349-0.600408 0.19746-0.909093 0.0625-0.308684 0.12167-0.622836 0.17816-0.943241 0.0565-0.320405 0.11002-0.646946 0.16082-0.979369 0.0508-0.332422 0.099-0.670757 0.14452-1.015492 0.0307-0.23247 0.0586-0.471969 0.0871-0.710155z" style="fill:#784421;stroke-linecap:round;stroke-width:9.69813"/>
    </g>
   </g>
  </g>
 </g>
</svg>
