<?xml version="1.0" encoding="UTF-8" standalone="no"?>
<svg
   id="svg836"
   width="285.59mm"
   height="93.039mm"
   version="1.1"
   viewBox="0 0 285.59 93.039"
   sodipodi:docname="nix_banner.svg"
   xml:space="preserve"
   inkscape:export-filename="nix_banner.png"
   inkscape:export-xdpi="96"
   inkscape:export-ydpi="96"
   inkscape:version="1.2.2 (b0a8486541, 2022-12-01)"
   xmlns:inkscape="http://www.inkscape.org/namespaces/inkscape"
   xmlns:sodipodi="http://sodipodi.sourceforge.net/DTD/sodipodi-0.dtd"
   xmlns="http://www.w3.org/2000/svg"
   xmlns:svg="http://www.w3.org/2000/svg"><defs
     id="defs20" /><sodipodi:namedview
     id="namedview18"
     pagecolor="#ffffff"
     bordercolor="#000000"
     borderopacity="0.25"
     inkscape:showpageshadow="2"
     inkscape:pageopacity="0.0"
     inkscape:pagecheckerboard="0"
     inkscape:deskcolor="#d1d1d1"
     inkscape:document-units="mm"
     showgrid="false"
     inkscape:zoom="0.62951916"
     inkscape:cx="254.16224"
     inkscape:cy="389.18593"
     inkscape:window-width="1920"
     inkscape:window-height="1011"
     inkscape:window-x="0"
     inkscape:window-y="0"
     inkscape:window-maximized="1"
     inkscape:current-layer="svg836" /><rect
     id="rect824"
     x="-1.6784668e-6"
     y="-6.1035155e-7"
     width="285.59"
     height="93.039001"
     rx="5.9063001"
     ry="6.6012998"
     fill="#333333"
     style="fill:#f6f5f4;fill-opacity:1" /><g
     id="g5135"
     transform="translate(22.263956)"><g
       id="g5121"
       transform="translate(-11.87223,-100.05285)"><path
         style="fill:#000000;stroke-width:0.205202"
         d="m 186.65926,133.75556 c -0.77807,-0.24478 -1.54894,-0.97222 -1.89775,-1.79084 -0.87277,-2.0483 0.64208,-4.36714 2.85295,-4.36714 1.68625,0 3.22697,1.50369 3.22697,3.14941 0,2.01913 -2.22941,3.62292 -4.18217,3.00857 z"
         id="path5113" /><path
         style="fill:#000000;stroke-width:0.205202"
         d="m 195.09909,166.53473 c 0.34735,-0.43704 10.22402,-13.99232 10.3591,-14.21739 0.0701,-0.11677 -2.17196,-3.34871 -4.98232,-7.18208 -2.81036,-3.83337 -5.11205,-7.03901 -5.11487,-7.12366 -0.003,-0.0847 1.36569,-0.1539 3.04111,-0.1539 2.64796,0 3.08619,0.0469 3.35181,0.3591 0.16807,0.19751 1.6282,2.43678 3.24474,4.97616 1.61653,2.53938 3.05564,4.7885 3.19801,4.99804 0.23151,0.34073 0.63151,-0.18505 3.78576,-4.97616 l 3.52689,-5.35714 h 2.87298 c 2.51754,0 2.85781,0.0396 2.75026,0.31984 -0.0675,0.17592 -2.29358,3.30412 -4.94681,6.95156 -2.65325,3.64744 -4.82408,6.69875 -4.82408,6.78068 0,0.0819 2.40087,3.40989 5.33526,7.39547 2.93439,3.98558 5.33526,7.30039 5.33526,7.36625 0,0.0659 -1.4082,0.1188 -3.12933,0.11764 l -3.12934,-0.002 -3.72674,-5.67807 -3.72676,-5.67807 -3.73522,5.68016 -3.73521,5.68017 h -2.97718 c -2.35367,0 -2.93449,-0.0537 -2.77332,-0.25651 z"
         id="path5105" /><path
         style="fill:#000000;stroke-width:0.205202"
         d="M 185.09576,152.32447 V 137.8577 h 2.56503 2.56503 v 14.46677 14.46677 h -2.56503 -2.56503 z"
         id="path5103" /><path
         style="fill:#000000;stroke-width:0.205202"
         d="m 144.05528,146.5788 v -20.21244 l 3.23194,8.2e-4 3.23194,8.3e-4 8.07794,12.52258 c 6.8171,10.56801 10.27802,16.10728 12.89932,20.64563 l 0.45701,0.79125 -0.1351,-2.05202 c -0.0743,-1.12873 -0.14145,-8.74687 -0.14921,-16.92931 l -0.0141,-14.87717 2.41113,-0.0578 2.41113,-0.0578 v 20.21895 20.21895 l -3.02674,-0.007 -3.02673,-0.006 -7.07949,-11.0119 c -9.73679,-15.14527 -10.35641,-16.12806 -12.51995,-19.85805 -1.04741,-1.80579 -1.96011,-3.34792 -2.0282,-3.42697 -0.0681,-0.0791 -0.093,7.60834 -0.0554,17.0831 l 0.0684,17.22683 h -2.37692 -2.37693 z"
         id="path5101" /></g><g
       id="g5093"
       transform="translate(4.5821124,-118.33511)"><path
         style="fill:#5073bd;fill-opacity:1;stroke-width:0.0264583"
         d="m 71.999204,177.06055 h 8.554895 l 4.96647,-8.60219 h 13.92806 l 2.179701,-3.77534 -2.051011,-3.55244 h -9.84144 l 4.97008,-8.60843 -4.21842,-7.30653 z"
         id="path645" /><path
         style="fill:#7eb9e3;fill-opacity:1;stroke-width:0.0264583"
         d="m 78.651362,164.15536 4.277457,-7.40875 -4.966487,-8.60218 6.964037,-12.06206 -2.1797,-3.77534 -4.102007,1e-5 -4.92072,8.52293 -4.97008,-8.60843 h -8.43685 z"
         id="path1889" /><path
         style="fill:#5073bd;fill-opacity:1;stroke-width:0.0264583"
         d="m 70.566728,151.70024 -4.27744,-7.40875 -9.932946,1e-5 -6.964035,-12.06206 h -4.35939 l -2.050992,3.55245 4.920714,8.52293 H 37.96248 l -4.218425,7.30653 z"
         id="path1891" /><path
         style="fill:#7eb8e2;fill-opacity:1;stroke-width:0.0264583"
         d="m 55.949121,152.56728 h -8.554885 l -4.966465,8.60219 H 28.499704 l -2.179695,3.77534 2.051015,3.55244 h 9.841431 l -4.970079,8.60843 4.218428,7.30653 z"
         id="path1893" /><path
         style="fill:#5073bd;fill-opacity:1;stroke-width:0.0264583"
         d="m 49.351482,165.55386 -4.277443,7.40875 4.966483,8.60218 -6.964034,12.06206 2.179693,3.77534 4.102011,-1e-5 4.920716,-8.52293 4.970079,8.60843 h 8.436855 z"
         id="path1895" /><path
         style="fill:#7eb8e3;fill-opacity:1;stroke-width:0.0264583"
         d="m 57.275844,177.98425 4.277442,7.40875 9.932947,-1e-5 6.96403,12.06206 4.359396,1e-5 2.051,-3.55246 -4.920722,-8.52292 h 9.940162 l 4.21843,-7.30654 z"
         id="path1897" /></g></g></svg>
