<svg viewBox="0 0 22 22" xmlns="http://www.w3.org/2000/svg">
 <defs>
  <style type="text/css">.ColorScheme-Text {
        color:#2e3440;
      }</style>
 </defs>
 <path class="ColorScheme-Text" d="m4 3v6 1 3.4609 1.4141 0.125 1 1h-1v1h1v1h1v-1h13.293 0.70703v-0.70703-0.29297h-0.29297-1.4141-12.293v-1.5684-0.007813-0.42383-1.125l3.998-3.998 2.123 2.123 0.005859-0.003906 0.003906 0.003906 7.8691-7.875v-1.125h-0.28906c0.0072-0.012362-7.584 7.5898-7.584 7.5898l-2.127-2.125-0.0019531 0.0019531-0.0019531-0.0019531-3.9961 3.9961v-0.03711-1-0.42383-1-1-3-0.0078125-0.99219-2h-1z" fill="currentColor"/>
 <path class="ColorScheme-Text" d="m19 4.125-7.8691 7.875-0.003906-0.003906-0.005859 0.003906-2.123-2.123-3.998 3.998v3.125h14v-12.875z" fill="currentColor" fill-opacity=".5"/>
</svg>
