<svg version="1.1" viewBox="0 0 22 22" xmlns="http://www.w3.org/2000/svg">
 <defs>
  <style id="current-color-scheme" type="text/css">
   .ColorScheme-Text { color:#2e3440; } .ColorScheme-Highlight { color:#88c0d0; } .ColorScheme-NeutralText { color:#d08770; } .ColorScheme-PositiveText { color:#a3be8c; } .ColorScheme-NegativeText { color:#bf616a; }
  </style>
 </defs>
 <path class="ColorScheme-Text" d="m9 2v4h4v-4zm1 1h2v2h-2zm-7 7v1h1v-1zm3 0v1h1v-1zm3 0v1h1v-1zm3 0v1h1v-1zm3 0v1h1v-1zm3 0v1h1v-1zm-15 5v4h4v-4zm12 0v4h4v-4zm-11 1h2v2h-2zm12 0h2v2h-2z" fill="currentColor"/>
 <path class="ColorScheme-Highlight" d="m9 7 2 3 2-3zm-4 4-2 3h4zm12 0-2 3h4z" fill="currentColor"/>
</svg>
