<svg width="22" height="22" version="1.1" viewBox="0 0 22 22" xmlns="http://www.w3.org/2000/svg">
 <g fill="currentColor">
  <path d="m3.9883 4.082h14.023c0.68359 0 1.2383 0.55078 1.2383 1.2344s-0.55469 1.2383-1.2383 1.2383h-14.023c-0.68359 0-1.2383-0.55469-1.2383-1.2383s0.55469-1.2344 1.2383-1.2344z"/>
  <path d="m3.9883 9.7617h14.023c0.68359 0 1.2383 0.55469 1.2383 1.2383s-0.55469 1.2383-1.2383 1.2383h-14.023c-0.68359 0-1.2383-0.55469-1.2383-1.2383s0.55469-1.2383 1.2383-1.2383z"/>
  <path d="m3.9883 15.445h14.023c0.68359 0 1.2383 0.55469 1.2383 1.2383s-0.55469 1.2383-1.2383 1.2383h-14.023c-0.68359 0-1.2383-0.55469-1.2383-1.2383s0.55469-1.2383 1.2383-1.2383z"/>
 </g>
</svg>
