
<svg xmlns="http://www.w3.org/2000/svg" xmlns:xlink="http://www.w3.org/1999/xlink" width="22" height="22" viewBox="0 0 22 22" version="1.1">
<g id="surface1">
<path style=" stroke:none;fill-rule:nonzero;fill:rgb(18.039216%,20.392157%,25.098041%);fill-opacity:1;" d="M 9.625 5.5 L 9.625 12.375 L 16.5 12.375 L 16.5 11 L 11 11 L 11 5.5 Z M 9.625 5.5 "/>
<path style=" stroke:none;fill-rule:nonzero;fill:rgb(18.039216%,20.392157%,25.098041%);fill-opacity:1;" d="M 11 0 C 4.925781 0 0 4.925781 0 11 C 0 17.074219 4.925781 22 11 22 C 12.265625 21.992188 13.519531 21.765625 14.707031 21.328125 C 14.242188 21.046875 13.824219 20.691406 13.480469 20.273438 C 12.671875 20.496094 11.839844 20.617188 11 20.625 C 5.683594 20.625 1.375 16.316406 1.375 11 C 1.375 5.683594 5.683594 1.375 11 1.375 C 16.316406 1.375 20.625 5.683594 20.625 11 C 20.617188 11.839844 20.496094 12.671875 20.273438 13.480469 C 20.691406 13.824219 21.046875 14.242188 21.328125 14.707031 C 21.765625 13.519531 21.992188 12.265625 22 11 C 22 4.925781 17.074219 0 11 0 Z M 11 0 "/>
<path style=" stroke:none;fill-rule:nonzero;fill:rgb(18.039216%,20.392157%,25.098041%);fill-opacity:1;" d="M 17.191406 13.449219 C 15.125 13.449219 13.449219 15.125 13.449219 17.191406 C 13.449219 19.261719 15.125 20.9375 17.191406 20.9375 C 19.257812 20.9375 20.9375 19.261719 20.9375 17.191406 C 20.9375 15.125 19.257812 13.449219 17.191406 13.449219 Z M 16.65625 14.519531 L 17.726562 14.519531 L 17.726562 16.65625 L 19.867188 16.65625 L 19.867188 17.726562 L 17.726562 17.726562 L 17.726562 19.867188 L 16.65625 19.867188 L 16.65625 17.726562 L 14.519531 17.726562 L 14.519531 16.65625 L 16.65625 16.65625 Z M 16.65625 14.519531 "/>
</g>
</svg>
