<svg viewBox="0 0 22 22" xmlns="http://www.w3.org/2000/svg">
 <defs>
  <style id="current-color-scheme" type="text/css">
   .ColorScheme-Text { color:#2e3440; } .ColorScheme-Highlight { color:#88c0d0; } .ColorScheme-NeutralText { color:#d08770; } .ColorScheme-PositiveText { color:#a3be8c; } .ColorScheme-NegativeText { color:#bf616a; }
  </style>
 </defs>
 <path class="ColorScheme-Text" d="M 4.5,3 3.96875,3.96875 3,4.5 3.96875,5.03125 4.5,6 5.03125,5.03125 6,4.5 5.03125,3.96875 4.5,3 Z M 9.5,3 8.96875,3.96875 8,4.5 8.96875,5.03125 9.5,6 10.03125,5.03125 11,4.5 10.03125,3.96875 9.5,3 Z M 16.171875,3 3,16.171875 5.828125,19 19,5.828125 16.171875,3 Z m -0.06836,1.4824219 1.414062,1.4140625 -3.097656,3.0996094 -1.416016,-1.4160157 3.09961,-3.0976562 z M 6.5,7 5.96875,7.96875 5,8.5 5.96875,9.03125 6.5,10 7.03125,9.03125 8,8.5 7.03125,7.96875 6.5,7 Z" fill="currentColor"/>
</svg>
