<svg version="1.1" viewBox="0 0 22 22" xmlns="http://www.w3.org/2000/svg">
 <defs>
  <style id="current-color-scheme" type="text/css">
   .ColorScheme-Text { color:#2e3440; } .ColorScheme-Highlight { color:#88c0d0; } .ColorScheme-NeutralText { color:#d08770; } .ColorScheme-PositiveText { color:#a3be8c; } .ColorScheme-NegativeText { color:#bf616a; }
  </style>
 </defs>
 <path class="ColorScheme-Text" d="m18 12-4 4v2h2l4-4zm-0.3125 1.6875 0.59375 0.59375-2.9688 3-0.59375-0.59375z" fill="currentColor"/>
 <path class="ColorScheme-Text" d="m5 4c-1.662 0-3 1.338-3 3v8c0 1.662 1.338 3 3 3h8v-2c5.1e-5 -0.2652 0.10543-0.51952 0.29297-0.70703l2.209-2.209-2.502-2.084-4 4-3-2-2.8203 2.8203c-0.11293-0.25091-0.17969-0.52638-0.17969-0.82031v-8c0-1.108 0.892-2 2-2h12c1.108 0 2 0.892 2 2v4.5859l1 1v-5.5859c0-1.662-1.338-3-3-3zm2.5 3c-0.82843 0-1.5 0.67157-1.5 1.5s0.67157 1.5 1.5 1.5 1.5-0.67157 1.5-1.5-0.67157-1.5-1.5-1.5z" fill="currentColor"/>
 <path class="ColorScheme-Text" d="m18 12-4 4v2h2l4-4zm-0.3125 1.6875 0.59375 0.59375-2.9688 3-0.59375-0.59375z" fill="currentColor"/>
</svg>
