<svg viewBox="0 0 22 22" xmlns="http://www.w3.org/2000/svg">
 <defs>
  <style id="current-color-scheme" type="text/css">
   .ColorScheme-Text { color:#2e3440; } .ColorScheme-Highlight { color:#88c0d0; } .ColorScheme-NeutralText { color:#d08770; } .ColorScheme-PositiveText { color:#a3be8c; } .ColorScheme-NegativeText { color:#bf616a; }
  </style>
 </defs>
 <path class="ColorScheme-Text" d="m10 3v2.0898a6 6 0 0 0-4.9141 4.9102h-2.0859v2h2.0898a6 6 0 0 0 5.9102 5 6 6 0 0 0 5.9141-5h2.0859v-2h-2.0898a6 6 0 0 0-4.9102-4.9141v-2.0859h-2zm1 3a5 5 0 0 1 5 5 5 5 0 0 1-5 5 5 5 0 0 1-5-5 5 5 0 0 1 5-5z" fill="currentColor"/>
</svg>
