<svg viewBox="0 0 22 22" xmlns="http://www.w3.org/2000/svg">
 <defs>
  <style id="current-color-scheme" type="text/css">
   .ColorScheme-Text { color:#2e3440; } .ColorScheme-Highlight { color:#88c0d0; } .ColorScheme-NeutralText { color:#d08770; } .ColorScheme-PositiveText { color:#a3be8c; } .ColorScheme-NegativeText { color:#bf616a; }
  </style>
 </defs>
 <path class="ColorScheme-Text" d="m10.045 3c-1.7768 0-2.5215 0.70645-2.5215 2.5098v2.4414c0 1.1138-0.034195 2.4043-1.0156 2.4043h-0.50781v1.2891h0.50781c0.98148 0 1.0156 1.2905 1.0156 2.4043v2.4414c0 1.8033 0.74465 2.5098 2.5215 2.5098v-1.1836c-1.1846 0-1.2012-0.47833-1.2012-2.2109v-2.0156c0-0.83093-0.2047-2.0674-1.2031-2.5801 0.99842-0.51271 1.2031-1.7511 1.2031-2.582v-2.0332c0-1.7326 0.016592-2.2109 1.2012-2.2109v-1.1836m1.8945 0v1.1836c1.1846 0 1.2168 0.47834 1.2168 2.2109v2.0332c0 0.83094 0.2047 2.0693 1.2031 2.582-0.99842 0.5127-1.2031 1.7491-1.2031 2.5801v2.0156c0 1.7326-0.032187 2.2109-1.2168 2.2109v1.1836c1.7768 0 2.5371-0.70645 2.5371-2.5098v-2.4414c0-1.1138 0.068644-2.4043 1.0332-2.4043h0.49023v-1.2891h-0.49023c-0.96457 0-1.0332-1.2905-1.0332-2.4043v-2.4414c0-1.8033-0.76027-2.5098-2.5371-2.5098" fill="currentColor"/>
</svg>
