<svg version="1.1" viewBox="0 0 22 22" xmlns="http://www.w3.org/2000/svg">
 <defs>
  <style id="current-color-scheme" type="text/css">
   .ColorScheme-Text { color:#2e3440; } .ColorScheme-Highlight { color:#88c0d0; } .ColorScheme-NeutralText { color:#d08770; } .ColorScheme-PositiveText { color:#a3be8c; } .ColorScheme-NegativeText { color:#bf616a; }
  </style>
 </defs>
 <g transform="translate(-378.86 -540.08)">
  <g class="ColorScheme-Text" fill="currentColor">
   <path d="m386.86 543.08c-0.97291 3.405-3.3544 6.3323-4.4043 8.6758-0.3674 0.69677-0.5957 1.4788-0.5957 2.3242 0 2.77 2.23 5 5 5s5-2.23 5-5c0-0.84542-0.2283-1.6274-0.5957-2.3242-1.0498-2.3435-3.4314-5.2708-4.4043-8.6758m2.2832 7.7168c1.0377 0.7212 1.7168 1.9183 1.7168 3.2832 0 2.216-1.784 4-4 4-1.365 0-2.562-0.67905-3.2832-1.7168 0.64705 0.44971 1.4321 0.7168 2.2832 0.7168 2.216 0 4-1.784 4-4 0-0.85108-0.26709-1.6362-0.7168-2.2832"/>
   <rect x="390.86" y="543.08" width="7" height="7" rx="3.5"/>
  </g>
  <rect x="391.86" y="544.08" width="5" height="5" rx="2.5" fill="#eceff4"/>
 </g>
</svg>
