<svg width="22" height="22" version="1.1" xmlns="http://www.w3.org/2000/svg">
 <defs>
  <style id="current-color-scheme" type="text/css">
   .ColorScheme-Text { color:#2e3440; } .ColorScheme-Highlight { color:#88c0d0; } .ColorScheme-NeutralText { color:#d08770; } .ColorScheme-PositiveText { color:#a3be8c; } .ColorScheme-NegativeText { color:#bf616a; }
  </style>
 </defs>
 <g transform="translate(-544.57 -742.93)">
  <g transform="translate(544.57 -287.43)">
   <g transform="translate(1)">
    <path transform="translate(-1 1029.4)" d="m11 4c-0.97291 3.405-3.3564 6.344-4.4062 8.6875-0.3674 0.6968-0.59375 1.4671-0.59375 2.3125 0 2.77 2.23 5 5 5s5-2.23 5-5c0-0.8454-0.22635-1.6157-0.59375-2.3125-1.0498-2.3435-3.4334-5.2825-4.4062-8.6875z" fill="#b3b3b3"/>
    <path transform="translate(-1 1029.4)" d="m11 4c-0.29946 1.0481-0.73203 2.044-1.2188 3h1.2188v-3zm0 3v4h3.5c-0.70456-1.2136-1.5451-2.5541-2.2812-4h-1.2188zm0 4h-3.5c-0.16698 0.28761-0.35403 0.57009-0.5 0.84375v3.1562h4v-4zm0 4v4h3c0.38128-0.2855 0.7145-0.61872 1-1v-3h-4z" fill="#777"/>
    <path transform="translate(-1 1029.4)" d="m11 4c-0.97291 3.405-3.3564 6.344-4.4062 8.6875-0.3674 0.6968-0.59375 1.4671-0.59375 2.3125 0 2.77 2.23 5 5 5s5-2.23 5-5c0-0.8454-0.22635-1.6157-0.59375-2.3125-1.0498-2.3435-3.4334-5.2825-4.4062-8.6875z" fill="url(#linearGradient4010)"/>
    <g transform="translate(-379.86 490.29)">
     <path class="ColorScheme-Text" transform="translate(378.86 539.08)" d="m11 4c-0.97291 3.405-3.3564 6.344-4.4062 8.6875-0.3674 0.69677-0.59375 1.4671-0.59375 2.3125 0 2.77 2.23 5 5 5s5-2.23 5-5c0-0.84542-0.22635-1.6157-0.59375-2.3125-1.0498-2.3435-3.4334-5.2825-4.4062-8.6875zm0 2c0.77832 2.7666 2.6914 5.1584 3.5312 7.0625 0.15583 0.30015 0.26111 0.60105 0.34375 0.9375 0.03426 0.13949 0.07466 0.29242 0.09375 0.4375 0.0028 0.0198-0.0025 0.0426 0 0.0625 0.01675 0.14522 0.03125 0.28716 0.03125 0.4375 3.28e-4 0.02116 0 0.04126 0 0.0625-0.0039 0.259-0.04467 0.50518-0.09375 0.75-0.0037 0.01991 4e-3 0.0427 0 0.0625-0.05262 0.24396-0.1253 0.49361-0.21875 0.71875-0.0038 0.0092 0.0039 0.02206 0 0.03125-0.09893 0.23383-0.23654 0.44776-0.375 0.65625-5e-3 0.0075 5e-3 0.0238 0 0.03125-0.14008 0.20812-0.29386 0.38488-0.46875 0.5625-0.18545 0.18777-0.37412 0.35186-0.59375 0.5-0.6382 0.43718-1.419 0.6875-2.25 0.6875-0.2775 0-0.55147-0.040309-0.8125-0.09375-0.18632-0.038145-0.35558-0.093228-0.53125-0.15625-0.031122-0.01124-0.062993-0.019257-0.09375-0.03125-0.039943-0.015508-0.085701-0.014507-0.125-0.03125-0.064053-0.027424-0.12522-0.063093-0.1875-0.09375-0.10935-0.053613-0.2091-0.12446-0.3125-0.1875-0.071461-0.043673-0.15032-0.077007-0.21875-0.125-0.018971-0.013267-0.043773-0.017663-0.0625-0.03125-0.1786-0.12958-0.34542-0.28071-0.5-0.4375-0.15042-0.15258-0.28165-0.32486-0.40625-0.5-0.011906-0.008089-0.019436-0.023039-0.03125-0.03125-0.45452-0.65932-0.71875-1.4743-0.71875-2.3438 0-0.6869 0.17483-1.3089 0.46875-1.875 0.83988-1.9041 2.7529-4.2959 3.5312-7.0625z" fill="currentColor"/>
    </g>
   </g>
  </g>
 </g>
</svg>
