<svg viewBox="0 0 22 22" xmlns="http://www.w3.org/2000/svg">
 <defs>
  <style id="current-color-scheme" type="text/css">
   .ColorScheme-Text { color:#2e3440; } .ColorScheme-Highlight { color:#88c0d0; } .ColorScheme-NeutralText { color:#d08770; } .ColorScheme-PositiveText { color:#a3be8c; } .ColorScheme-NegativeText { color:#bf616a; }
  </style>
 </defs>
 <path class="ColorScheme-Text" d="m2 2.998v16.001953h10v-1h-6v-6h9v-1h-10v7h-2v-14h3v5h8v-5h0.29297l2.707 2.707v5.29297h1v-5.69922h-0.007812l0.007812-0.0097656-3.293-3.293-0.007812 0.0097656v-0.0097656h-12.69922zm5 1.002h3.9004v4h-3.9004v-4zm9 9-0.57422 1.6133-1.5469-0.73438 0.73438 1.5469-1.6133 0.57422 1.6133 0.57422-0.73438 1.5469 1.5469-0.73438 0.57422 1.6133 0.57422-1.6133 1.5469 0.73438-0.73438-1.5469 1.6133-0.57422-1.6133-0.57422 0.73438-1.5469-1.5469 0.73438-0.57422-1.6133z" fill="currentColor"/>
</svg>
