<!DOCTYPE svg>
<svg version="1.1" viewBox="0 0 22 22" xmlns="http://www.w3.org/2000/svg">
 <defs>
  <style id="current-color-scheme" type="text/css">
   .ColorScheme-Text { color:#2e3440; } .ColorScheme-Highlight { color:#88c0d0; } .ColorScheme-NeutralText { color:#d08770; } .ColorScheme-PositiveText { color:#a3be8c; } .ColorScheme-NegativeText { color:#bf616a; }
  </style>
 </defs>
 <path class="ColorScheme-NegativeText" d="m13 6h2v4h4v3h1v-4l-4-4h-4l1 1zm-5 13h5v-1h-4v-1h-1v2zm7.707-5-0.707 0.707 1.793 1.793-1.793 1.793 0.707 0.707 1.793-1.793 1.793 1.793 0.707-0.707-1.793-1.793 1.793-1.793-0.707-0.707-1.793 1.793-1.793-1.793z" fill="currentColor"/>
 <path class="ColorScheme-Text" d="m13 16h-10v-12h6v4h4v8zm1-5v-4l-4-4h-8v14h12v-6z" fill="currentColor"/>
</svg>
