<svg viewBox="0 0 22 22" xmlns="http://www.w3.org/2000/svg">
 <defs>
  <style id="current-color-scheme" type="text/css">
   .ColorScheme-Text { color:#2e3440; } .ColorScheme-Highlight { color:#88c0d0; } .ColorScheme-NeutralText { color:#d08770; } .ColorScheme-PositiveText { color:#a3be8c; } .ColorScheme-NegativeText { color:#bf616a; }
  </style>
 </defs>
 <g transform="translate(-421.71 -525.79)">
  <path class="ColorScheme-Text" d="m432.68304 528.79074c-1.75093 0-3.40688.4216-4.96875 1.26367l.77734 1.78711c.78092-.38352 1.48271-.65748 2.10743-.82422.63297-.16673 1.27792-.25 1.93554-.25.98644 0 1.74342.22025 2.26953.66211.5261.44187.78907 1.075.78907 1.90039 0 .44187-.0568.83057-.17188 1.16407-.11508.33348-.31231.66651-.5918 1-.27948.33349-.86767.88335-1.76367 1.65039-1.10008 1.00333-2.2511 2.78548-2.35156 4.64648h2l-.006-.0312c0-.75868.13147-1.36761.39453-1.82617.27128-.46689.81313-1.055 1.62695-1.76367.99467-.84207 1.65753-1.47518 1.98633-1.90039.33704-.4252.58756-.87438.75196-1.34961.1645-.47523.24609-1.02172.24609-1.63868 0-1.41734-.44773-2.51904-1.34375-3.30273-.89601-.79204-2.12564-1.1875-3.6875-1.1875zm-1.96875 14v2h2v-2h-2" fill="currentColor"/>
  <path d="m436.7 538.79-0.99023 0.9902 2.0098 2.0098-2.0098 2.0098 0.99023 0.9902 2.0098-2.0098 2.0098 2.0098 0.99024-0.9902-2.0098-2.0098 2.0098-2.0098-0.99024-0.9902-2.0098 2.0098-2.0098-2.0098" fill="#bf616a"/>
 </g>
</svg>
