<svg viewBox="0 0 22 22" xmlns="http://www.w3.org/2000/svg">
 <defs>
  <style id="current-color-scheme" type="text/css">
   .ColorScheme-Text { color:#2e3440; } .ColorScheme-Highlight { color:#88c0d0; } .ColorScheme-NeutralText { color:#d08770; } .ColorScheme-PositiveText { color:#a3be8c; } .ColorScheme-NegativeText { color:#bf616a; }
  </style>
 </defs>
 <path class="ColorScheme-Text" d="m11 3c-4.432 0-8 3.568-8 8 0 4.0925 3.0443 7.4416 7 7.9316v-1.0098c-3.3994-0.48382-6-3.3847-6-6.9219 0-0.24238 0.011343-0.48091 0.035156-0.7168 0.3572-3.5384 3.3292-6.2832 6.9648-6.2832 3.878 0 7 3.122 7 7 0 0.34078-0.031513 0.6725-0.078125 1h1.0098c0.040649-0.32811 0.068359-0.66054 0.068359-1 0-4.432-3.568-8-8-8zm-1 2v7h6v-1h-5v-6h-1zm6 8v4.293l-2.293-2.293-0.70703 0.70703 3.5 3.5 3.5-3.5-0.70703-0.70703-2.293 2.293v-4.293h-1z" fill="currentColor"/>
</svg>
