<svg viewBox="0 0 22 22" xmlns="http://www.w3.org/2000/svg">
 <defs>
  <style id="current-color-scheme" type="text/css">
   .ColorScheme-Text { color:#2e3440; } .ColorScheme-Highlight { color:#88c0d0; } .ColorScheme-NeutralText { color:#d08770; } .ColorScheme-PositiveText { color:#a3be8c; } .ColorScheme-NegativeText { color:#bf616a; }
  </style>
 </defs>
 <path class="ColorScheme-Text" d="m11.037 3.002c-4.0984 0.095213-7.5049 3.5815-7.4043 7.7227 0.019268 0.79337 0.17328 1.5576 0.43164 2.2754l1.123-0.36719c-0.22152-0.60159-0.35616-1.2423-0.37695-1.9082-0.10939-3.5031 2.765-6.4587 6.2266-6.5605 3.6496-0.10739 6.7247 2.9177 6.8242 6.5605 0.10459 3.8281-3.0382 7.0521-6.8242 7.1504-3.1727 0.082379-5.9406-2.0079-6.9727-4.875l-1.0645 0.34766c1.1715 3.3888 4.4592 5.7256 8.0371 5.6504 4.4004-0.092496 8.0581-3.8295 7.9609-8.2734-0.09336-4.2711-3.6877-7.8219-7.9609-7.7227zm-5.8496 9.6309c0.87951 2.3885 3.1981 4.1252 5.8496 4.0352 3.1228-0.10602 5.711-2.7796 5.5957-5.9434-0.10788-2.9613-2.6221-5.4162-5.5957-5.2969-2.7666 0.11101-5.0583 2.4896-4.9355 5.2969 0.023055 0.52734 0.15157 1.0269 0.33398 1.502l1.3965-0.45508c-0.13873-0.32964-0.2388-0.67868-0.26562-1.0469-0.14733-2.022 1.4898-3.752 3.4707-3.877 2.2191-0.13992 4.1103 1.6775 4.2305 3.877 0.13274 2.4291-1.8421 4.4942-4.2305 4.6113-2.0782 0.10192-3.887-1.2487-4.6016-3.1094l-1.248 0.40625zm2.6445-0.86133c0.52858 1.256 1.7829 2.1529 3.2051 2.0273 1.5313-0.13518 2.7931-1.5008 2.6211-3.0742-0.14089-1.2891-1.3015-2.3562-2.6211-2.1621-1.0101 0.14862-1.8572 1.1086-1.627 2.1621 0.035679 0.16322 0.10657 0.32184 0.19922 0.4668l1.4277-0.4668c0.69461 0 0.43338 0.82043 0 1.0117-0.55777 0.24619-1.1241-0.069821-1.4277-0.54492l-1.7773 0.58008z" fill="currentColor"/>
</svg>
