<svg viewBox="0 0 22 22" xmlns="http://www.w3.org/2000/svg">
 <defs>
  <style id="current-color-scheme" type="text/css">
   .ColorScheme-Text { color:#2e3440; } .ColorScheme-Highlight { color:#88c0d0; } .ColorScheme-NeutralText { color:#d08770; } .ColorScheme-PositiveText { color:#a3be8c; } .ColorScheme-NegativeText { color:#bf616a; }
  </style>
 </defs>
 <path class="ColorScheme-Text" transform="translate(-.99999-.99999)" d="m8 4v2.5c0 0.831-0.669 1.5-1.5 1.5h-2.5v8h2.5c0.831 0 1.5 0.669 1.5 1.5v2.5h8v-2.5c0-0.831 0.669-1.5 1.5-1.5h2.5v-8h-2.5c-0.831 0-1.5-0.669-1.5-1.5v-2.5h-8m1 1h6v1.5c0 1.385 1.115 2.5 2.5 2.5h1.5v6h-1.5c-1.385 0-2.5 1.115-2.5 2.5v1.5h-6v-1.5c0-1.385-1.115-2.5-2.5-2.5h-1.5v-6h1.5c1.385 0 2.5-1.115 2.5-2.5v-1.5" fill="currentColor"/>
</svg>
