<svg viewBox="0 0 22 22" xmlns="http://www.w3.org/2000/svg">
 <defs>
  <style id="current-color-scheme" type="text/css">
   .ColorScheme-Text { color:#2e3440; } .ColorScheme-Highlight { color:#88c0d0; } .ColorScheme-NeutralText { color:#d08770; } .ColorScheme-PositiveText { color:#a3be8c; } .ColorScheme-NegativeText { color:#bf616a; }
  </style>
 </defs>
 <path class="ColorScheme-Text" d="m11 0.41211c-0.7415 0.4706-7e-3 -1.875e-5 -0.78125 0.48828l-8.2188 5.4687v9.21885c1.1488 0.7517 0.22209 0.1443 0.75 0.5l7.3438 4.9062c0.89535 0.5962 8e-3 -5e-5 0.90625 0.59375 8.0233-5.3242 6.0538-4.0138 8.375-5.5625 0.63161-0.4616 0.11719-0.09495 0.625-0.46875v-9.1876c-2.3238-1.5467-0.33991-0.2266-0.5625-0.375l-7.6562-5.0937-0.40625-0.25c-0.28276-0.182 1.2234 0.79082-0.375-0.23828zm-0.5 1.5195v7.75l-0.0625 0.09375-0.21875 0.125-7.2188 4.8125v-7.7813l7.5-5zm1 0 7.5 5v7.625l-7.5-5v-7.625zm-0.375 8.5938 7.3125 4.875-7.4375 4.9688-7.3438-4.875 7.125-4.75 0.34375-0.21875z" fill="currentColor"/>
 <path class="ColorScheme-Text" d="m10.582 1.875c-0.01267 0-1.7494 1.1472-3.8594 2.5488l-3.8359 2.5488v3.957c0 2.1774 0.011291 3.959 0.025391 3.959 0.01408 0 1.7508-1.1485 3.8594-2.5527l3.834-2.5527v-3.9551c0-2.1748-0.010738-3.9531-0.023438-3.9531z" fill="currentColor" fill-opacity=".2"/>
 <path class="ColorScheme-Text" d="m11.09 10.395c-0.11473 0.0047-7.683 5.1113-7.6387 5.1543 0.02192 0.0211 1.7215 1.1646 3.7773 2.5391s3.7495 2.4924 3.7637 2.4824c0.64001-0.4148 7.6024-5.1254 7.6094-5.1484 0.015031-0.0498-7.4274-5.0273-7.5117-5.0273z" fill="currentColor" fill-opacity=".4"/>
 <path class="ColorScheme-Text" d="m11.428 1.8125c-0.0126 0-0.024157 1.7511-0.023437 3.8906l0.001953 3.8887 3.832 2.5645c2.1071 1.41 3.8358 2.5664 3.8418 2.5664 0.0064 0.0017 0.011719-1.7527 0.011719-3.8984v-3.9004l-3.8203-2.5566c-2.1015-1.4055-3.8312-2.5547-3.8438-2.5547z" fill="currentColor" fill-opacity=".6"/>
</svg>
