<svg viewBox="0 0 22 22" xmlns="http://www.w3.org/2000/svg">
 <defs>
  <style id="current-color-scheme" type="text/css">
   .ColorScheme-Text { color:#2e3440; } .ColorScheme-Highlight { color:#88c0d0; } .ColorScheme-NeutralText { color:#d08770; } .ColorScheme-PositiveText { color:#a3be8c; } .ColorScheme-NegativeText { color:#bf616a; }
  </style>
 </defs>
 <path class="ColorScheme-Text" transform="translate(-.99999-.99999)" d="m19.514 4.0078a2 9 45 0 0-7.4453 5.0977 2 9 45 0 0-3.543 4.1133c1.0761 0.34264 1.9152 1.1817 2.2578 2.2578a2 9 45 0 0 4.1133-3.543 2 9 45 0 0 4.9492-7.7773 2 9 45 0 0-0.33203-0.14844m-11.514 10.656c-4 1.0718-1 3.6039-4 5.3359 4.0034 0 6-2.0008 6-3.3359 0-0.66488 0.0676-1.8894-2-2z" fill="currentColor"/>
</svg>
