<svg viewBox="0 0 22 22" xmlns="http://www.w3.org/2000/svg">
 <defs>
  <style id="current-color-scheme" type="text/css">
   .ColorScheme-Text { color:#2e3440; } .ColorScheme-Highlight { color:#88c0d0; } .ColorScheme-NeutralText { color:#d08770; } .ColorScheme-PositiveText { color:#a3be8c; } .ColorScheme-NegativeText { color:#bf616a; }
  </style>
 </defs>
 <path class="ColorScheme-Text" d="m3 3v3h1v10h-1v3h3v-1h10v1h3v-3h-1v-10h1v-3h-3v1h-10v-1h-3m1 1h1v1h-1v-1m13 0h1v1h-1v-1m-11 1h10v1h1v10h-1v1h-10v-1h-1v-10h1v-1m0 2v2h4v7h2v-7h4v-2h-10m-2 10h1v1h-1v-1m13 0h1v1h-1v-1" fill="currentColor"/>
</svg>
