<svg viewBox="0 0 22 22" xmlns="http://www.w3.org/2000/svg">
 <defs>
  <style id="current-color-scheme" type="text/css">
   .ColorScheme-Text { color:#2e3440; } .ColorScheme-Highlight { color:#88c0d0; } .ColorScheme-NeutralText { color:#d08770; } .ColorScheme-PositiveText { color:#a3be8c; } .ColorScheme-NegativeText { color:#bf616a; }
  </style>
 </defs>
 <path class="ColorScheme-Text" d="m12.002 3-7.3437 7.3125-1.4062 1.4375-0.25 0.25v4h4l0.25-0.25 0.375-0.34375 0.6875-0.71875 0.375-0.34375 6.3105-6.3438 1-1-3.998-4zm-0.59375 2 2.5918 2.5938-4.2793 4.25-2.5625-2.5938 4.25-4.25zm-4.9687 4.9688 2.5938 2.5938-0.71875 0.71875-2.5938-2.5938 0.71875-0.71875zm-1.4062 1.4062 2.5938 2.5938-0.71875 0.71875-2.5938-2.5938 0.71875-0.71875zm11.465 2.625c-0.26166 1e-4 -0.95448 0.046-2.0625 0.5625-0.34638 0.1616-0.63371 0.3445-1.0293 0.5625-0.21118 0.1164-0.96823 0.4943-1.25 0.625-0.82567 0.3832-1.1 0.4799-1.8125 0.75-0.68951 0.2615-1.4332 0.4987-1.9375 0.6875-2.1229 0.7948-5.4062 0.8125-5.4062 0.8125v1s3.3274 0.032 5.75-0.875c0.32135-0.1203 0.88148-0.3176 1.4062-0.5 0.80702-0.29436 1.6792-0.65674 2.4062-0.96875 0.30465-0.1414 1.0109-0.49105 1.3105-0.65625 0.44021-0.2426 0.73381-0.42175 0.96875-0.53125 0.51337-0.3024 1.0834-0.48235 1.6562-0.46875-0.0448 2e-4 0.17379 0.00105 0.375 0.09375 0.20121 0.084 0.42478 0.2336 0.59375 0.375 0.32732 0.3319 0.46462 0.58515 0.53125 1.0312-0.0257 0.682-0.26064 0.89575-0.75 1.2812-0.32384 0.21454-0.77978 0.2536-1.248 0.22266v0.96875c0.78372 2e-3 1.411-0.15435 1.7793-0.34766 0.83671-0.4772 1.248-1.3364 1.2188-2.1562-5e-3 -0.2879-0.07722-0.52505-0.21875-0.84375-0.14158-0.3186-0.34403-0.6761-0.65625-0.9375-0.48186-0.4232-0.72366-0.6094-1.625-0.6875z" fill="currentColor"/>
</svg>
