<svg viewBox="0 0 22 22" xmlns="http://www.w3.org/2000/svg">
 <defs>
  <style type="text/css">.ColorScheme-Text {
        color:#2e3440;
      }
      .ColorScheme-Highlight {
        color:#88c0d0;
      }</style>
 </defs>
 <path class="ColorScheme-Text" d="m3 3v6 10h1 15v-1-9h-1v4h-2v-4h-1v4h-2v-4-6h-1v6 4h-2v-4h-1v4h-2v-4h-1v4h-1-1v-4-6h-1zm13.5 0-2.5 5h5l-2.5-5zm-12.5 11h1 1v1 3h-2v-4zm3 0h2v4h-2v-3-1zm3 0h2v4h-2v-4zm3 0h2v1 3h-2v-4zm3 0h1.0996 0.90039v4h-2v-3-1z" fill="currentColor"/>
 <path class="ColorScheme-Highlight" d="m3 3v6h1 5.293 2.707 1v-6h-1-8-1zm1 1h0.29297l4 4h-4.293v-4zm1.707 0h2.5859l3.707 3.707v0.29297h-2.293l-4-4zm4 0h2.293v2.293l-2.293-2.293z" fill="currentColor"/>
</svg>
