<svg viewBox="0 0 22 22" xmlns="http://www.w3.org/2000/svg">
 <defs>
  <style id="current-color-scheme" type="text/css">
   .ColorScheme-Text { color:#2e3440; } .ColorScheme-Highlight { color:#88c0d0; } .ColorScheme-NeutralText { color:#d08770; } .ColorScheme-PositiveText { color:#a3be8c; } .ColorScheme-NegativeText { color:#bf616a; }
  </style>
 </defs>
 <path class="ColorScheme-Text" d="m19 3c-1.3192 0.2713-2.4585 1.0643-3.1816 2.1777-0.25028-0.11224-0.52537-0.17773-0.81836-0.17773-0.20851 0-0.40504 0.040936-0.59375 0.099609-1.1374-0.69371-2.4711-1.0996-3.9062-1.0996-4.155 0-7.5 3.345-7.5 7.5s3.345 7.5 7.5 7.5 7.5-3.345 7.5-7.5c0-1.4352-0.4059-2.7688-1.0996-3.9062 0.058673-0.18871 0.099609-0.38524 0.099609-0.59375 0-0.44803-0.14948-0.85675-0.39648-1.1895 0.53554-0.87174 1.3857-1.5187 2.3965-1.7812v-1.0293m-12.682 3.5176c-0.94762 1.1289-1.5176 2.5857-1.5176 4.1816 0 3.601 2.899 6.5 6.5 6.5 1.5954 0 3.0509-0.57052 4.1797-1.5176-1.1905 1.4177-2.9759 2.3184-4.9805 2.3184-3.601 0-6.5-2.899-6.5-6.5 0-2.005 0.90008-3.7919 2.3184-4.9824" fill="currentColor"/>
</svg>
