<svg viewBox="0 0 22 22" xmlns="http://www.w3.org/2000/svg">
 <defs>
  <style id="current-color-scheme" type="text/css">
   .ColorScheme-Text { color:#2e3440; } .ColorScheme-Highlight { color:#88c0d0; } .ColorScheme-NeutralText { color:#d08770; } .ColorScheme-PositiveText { color:#a3be8c; } .ColorScheme-NegativeText { color:#bf616a; }
  </style>
 </defs>
 <path class="ColorScheme-Text" d="m17.564 2.7559-3.2656 5.8184-2.416-1.4355-1.0215 1.7188 5.6504 3.3594 1.0215-1.7207-2.375-1.4121 3.2773-5.8398-0.87109-0.48828zm-10.564 3.2441a1 1 0 0 0-1 1 1 1 0 0 0 1 1 1 1 0 0 0 1-1 1 1 0 0 0-1-1zm-3.5 1a0.5 0.5 0 0 0-0.5 0.5 0.5 0.5 0 0 0 0.5 0.5 0.5 0.5 0 0 0 0.5-0.5 0.5 0.5 0 0 0-0.5-0.5zm1.5 2a1 1 0 0 0-1 1 1 1 0 0 0 1 1 1 1 0 0 0 1-1 1 1 0 0 0-1-1zm5 1c-1.1185 1.5643-3.1645 2.8109-7 3v1c2.1137 3.3717 5 5 9 5h1c1.3112-1.5872 2.3575-3.0324 3-5v-1l-5-3h-1zm0.5293 1.1016 4.3281 2.5977c-0.57283 1.5466-1.472 2.9036-2.584 4.2695-3.2734 0.03125-6.2207-1.4282-7.9473-4.1387 3.1182-0.31062 5.0195-1.2848 6.2031-2.7285z" fill="currentColor"/>
</svg>
