<svg viewBox="0 0 22 22" xmlns="http://www.w3.org/2000/svg">
 <style type="text/css">.ColorScheme-NegativeText{color:#bf616a;}</style>
 <g class="ColorScheme-NegativeText" fill="currentColor">
  <path d="m4 3v7h1v-6h8v4h4v2h1v-3.0078l-3.9922-3.9922-0.007812 0.009766v-0.009766z"/>
  <path d="m3 11 16 1.2e-5 -1.2e-5 0.99999-16-1.2e-5z"/>
  <path d="m4 13 0.99999 7.2e-5 -1.17e-5 5.9999-0.99999-7.2e-5z"/>
  <path d="m6 13 0.99999 7.2e-5 -1.17e-5 5.9999-0.99999-7.2e-5z"/>
  <path d="m8 13 0.99999 7.2e-5 -1.17e-5 5.9999-0.99999-7.2e-5z"/>
  <path d="m10 13 0.99999 7.2e-5 -1.2e-5 5.9999-0.99999-7.2e-5z"/>
  <path d="m12 13 0.99999 7.2e-5 -1.2e-5 5.9999-0.99999-7.2e-5z"/>
  <path d="m14 13 0.99999 7.2e-5 -1.2e-5 5.9999-0.99999-7.2e-5z"/>
  <path d="m16 13 0.99999 7.2e-5 -1.2e-5 5.9999-0.99999-7.2e-5z"/>
 </g>
</svg>
