<svg viewBox="0 0 22 22" xmlns="http://www.w3.org/2000/svg">
 <defs>
  <style id="current-color-scheme" type="text/css">
   .ColorScheme-Text { color:#2e3440; } .ColorScheme-Highlight { color:#88c0d0; } .ColorScheme-NeutralText { color:#d08770; } .ColorScheme-PositiveText { color:#a3be8c; } .ColorScheme-NegativeText { color:#bf616a; }
  </style>
 </defs>
 <path class="ColorScheme-Text" d="m3 3v16h16v-16h-16m1 1h14v14h-14v-14m1 1v3h1v-2h2v-1h-3m9 0v1h2v2h1v-3h-3m-3.0898 1.7812c-0.6075 0-1.3155 0.13555-1.8105 0.5293l0.24609 0.74219c0.25875-0.16875 0.75422-0.43945 1.418-0.43945 0.73125 0 1.227 0.30344 1.2383 1.0234 0 1.08-1.5645 2.8464-1.5645 4.1289h0.47266c0.82125-1.845 1.9902-2.7108 1.9902-4.207 0-1.1475-0.83148-1.7773-1.9902-1.7773m-0.1582 6.9863c-0.48375 0-0.73047 0.3607-0.73047 0.7207s0.24672 0.73047 0.73047 0.73047 0.73242-0.37047 0.73242-0.73047-0.24867-0.7207-0.73242-0.7207m-5.752 0.23242v3h3v-1h-2v-2h-1m11 0v2h-2v1h3v-3h-1" fill="currentColor"/>
</svg>
