<svg viewBox="0 0 22 22" xmlns="http://www.w3.org/2000/svg">
 <defs>
  <style id="current-color-scheme" type="text/css">
   .ColorScheme-Text { color:#2e3440; } .ColorScheme-Highlight { color:#88c0d0; } .ColorScheme-NeutralText { color:#d08770; } .ColorScheme-PositiveText { color:#a3be8c; } .ColorScheme-NegativeText { color:#bf616a; }
  </style>
 </defs>
 <path class="ColorScheme-Text" d="m3 3v16h16v-16h-16zm1 1h4v2h-4v-2zm5 0h4v2h-4v-2zm5 0h4v2h-4v-1.99999zm-10 3h4v1h1v-1h4v1h1v-1h4v8h-4v-1h-1v1h-4v-1h-1v1h-4v-8zm0 9h4v2h-4v-2zm5 0h4v2h-4v-2zm5 0h4v2h-4v-2z" fill="currentColor"/>
 <path d="m4 14h14.00003v-1h-0.29297l-4-4h4.293v-1h-14v1h0.29297l4 4h-4.293v1m1.707-5h2.5859l4 4h-2.5859l-4-4m4 0h2.5859l4 4h-2.5859l-4-4" fill="#bf616a"/>
</svg>
