<svg viewBox="0 0 22 22" xmlns="http://www.w3.org/2000/svg">
 <defs>
  <style id="current-color-scheme" type="text/css">
   .ColorScheme-Text { color:#2e3440; } .ColorScheme-Highlight { color:#88c0d0; } .ColorScheme-NeutralText { color:#d08770; } .ColorScheme-PositiveText { color:#a3be8c; } .ColorScheme-NegativeText { color:#bf616a; }
  </style>
 </defs>
 <path class="ColorScheme-Text" d="m3 3v5h1v-4h2v4h1v-4h2v4h1v-4h2v4h1v-4h2v4h1v-4h2v4h1v-5h-16zm11 6 2.5 5 2.5-5h-5zm-11 5v5h16v-5h-1v4h-2v-4h-1v4h-2v-4h-1v4h-2v-4h-1v4h-2v-4h-1v4h-2v-4h-1z" fill="currentColor"/>
 <path class="ColorScheme-Highlight" d="m3 8v1h4.2812l-3.2812 3.2812v0.011719l-0.70703 0.70703h-0.29297v1h10v-1h-0.28125l0.28125-0.28125v-1.4375l-1.7188 1.7188h-2.56245l4-4h0.28125v-1h-10m5.7188 1h2.56245l-4 4h-2.5625l4-4" fill="currentColor"/>
</svg>
