<svg viewBox="0 0 22 22" xmlns="http://www.w3.org/2000/svg">
 <defs>
  <style id="current-color-scheme" type="text/css">
   .ColorScheme-Text { color:#2e3440; } .ColorScheme-Highlight { color:#88c0d0; } .ColorScheme-NeutralText { color:#d08770; } .ColorScheme-PositiveText { color:#a3be8c; } .ColorScheme-NegativeText { color:#bf616a; }
  </style>
 </defs>
 <path class="ColorScheme-Text" d="m3 3v16h10v-1h-4v-2h4v-1h-4v-2h10v-1h-10v-2h4v-1h-4v-2h4v-1h-4v-2h10v-1h-16zm1 1h4v2h-4v-2zm0 3h4v2h-4v-2zm0 3h4v2h-4v-2zm0 3h4v2h-4v-2zm10 1v5l5-2.5-5-2.5zm-10 2h4v1.99999h-4v-2z" fill="currentColor"/>
 <path class="ColorScheme-Highlight" d="m13 3v10h6v-10h-6zm1 1h4v0.29297l-4 4v-4.293zm4 1.707v2.5859l-3.707 3.707h-0.29297v-2.293l4-4zm0 4v2.293h-2.293l2.293-2.293z" fill="currentColor"/>
</svg>
