<svg viewBox="0 0 22 22" xmlns="http://www.w3.org/2000/svg">
 <defs>
  <style type="text/css">.ColorScheme-Text {
        color:#2e3440;
      }
      .ColorScheme-Highlight {
        color:#88c0d0;
      }</style>
 </defs>
 <path class="ColorScheme-Text" d="m3 3v10 6h1v-6-4h1 1v4h1v-4h2v4h1v-4h2v4 6h1v-6-4h2v4h1v-4h2v4h1v-9-1h-15-1zm1 1h2v3 1h-1-1v-4zm3 0h2v4h-2v-1-3zm3 0h2v4h-2v-4zm3 0h2v3 1h-2v-4zm3 0h2v4h-0.90039-1.0996v-1-3zm-2 10 2.5 5 2.5-5h-5z" fill="currentColor"/>
 <path class="ColorScheme-Highlight" d="m4 13h5.293 2.707v1h-2.293l-4 4h2.5859l3.707-3.707v1.4141l-2.293 2.293h2.293v1h-8v-1h0.29297l4-4h-4.293v-1" fill="currentColor"/>
</svg>
