<svg viewBox="0 0 22 22" xmlns="http://www.w3.org/2000/svg">
 <defs>
  <style type="text/css">.ColorScheme-Text {
        color:#2e3440;
      }</style>
 </defs>
 <path class="ColorScheme-Text" d="m3 3v1 14 1h15 1v-16h-1-15zm1 1h2v3 1h-1.0996-0.90039v-4zm3 0h1 1 1 2 1 1 1v3 1h-1v1h1v4h-1v1h1v4h-1-1-1-2-1-1-1v-4h1v-1h-1v-4h1v-1h-1v-1-3zm9 0h2v4h-1-1v-1-3zm-12 5h2v4h-2v-4zm12 0h1 1v4h-1-1v-4zm-12 5h2v4h-2v-4zm12 0h1 1v4h-2v-3-1z" fill="currentColor"/>
 <path d="m14 18v-5.293-4-4-0.70703h-0.70703-0.29297v0.29297l-4 4v-4.293h-1v14h1v-0.29297l4-4v4.293h1m-5-1.707v-2.5859l4-4v2.5859l-4 4m0-4v-2.5859l4-4v2.5859l-4 4" fill="#bf616a"/>
</svg>
