<svg viewBox="0 0 22 22" xmlns="http://www.w3.org/2000/svg">
 <defs>
  <style id="current-color-scheme" type="text/css">
   .ColorScheme-Text { color:#2e3440; } .ColorScheme-Highlight { color:#88c0d0; } .ColorScheme-NeutralText { color:#d08770; } .ColorScheme-PositiveText { color:#a3be8c; } .ColorScheme-NegativeText { color:#bf616a; }
  </style>
 </defs>
 <path class="ColorScheme-Text" d="m11 3 3 6h5l-4 4 1 6-5-3-5 3 1-6-4-4h5l3-6zm-2 0v1h-6v-1h6zm-1 2v1h-5v-1h5zm-1 2v1h-4v-1h4zm-2 5v1h-2v-1h2zm1 2v1h-3v-1h3zm-1 2v1h-2v-1h2zm0 2v1h-2v-1h2z" fill="currentColor"/>
</svg>
