<svg viewBox="0 0 22 22" xmlns="http://www.w3.org/2000/svg">
 <defs>
  <style id="current-color-scheme" type="text/css">
   .ColorScheme-Text { color:#2e3440; } .ColorScheme-Highlight { color:#88c0d0; } .ColorScheme-NeutralText { color:#d08770; } .ColorScheme-PositiveText { color:#a3be8c; } .ColorScheme-NegativeText { color:#bf616a; }
  </style>
 </defs>
 <path class="ColorScheme-Text" transform="translate(0 -1030.4)" d="m10.5 1033.4c-1.385 0-2.5 1.115-2.5 2.5v2.5l-5 5 6 6 7-7-3-3v-3.5c0-1.385-1.115-2.5-2.5-2.5m0 1c0.831 0 1.5 0.669 1.5 1.5v2.5l-2-2-1 1v-1.5c0-0.831 0.669-1.5 1.5-1.5m-0.5 3.4141 4.5352 4.5371c-3.5354 4.0497-5.5359-1.9511-10.121 1.0488l5.5859-5.5859m7.5 3.5859s-1.5 2.6716-1.5 3.5 0.67157 1.5 1.5 1.5 1.5-0.6716 1.5-1.5-1.5-3.5-1.5-3.5z" fill="currentColor"/>
</svg>
