<svg width="22" height="22" version="1.1" viewBox="0 0 5.8208 5.8208" xmlns="http://www.w3.org/2000/svg">
 <defs>
  <style id="current-color-scheme" type="text/css">
   .ColorScheme-Text { color:#2e3440; } .ColorScheme-Highlight { color:#88c0d0; } .ColorScheme-NeutralText { color:#d08770; } .ColorScheme-PositiveText { color:#a3be8c; } .ColorScheme-NegativeText { color:#bf616a; }
  </style>
 </defs>
 <g class="ColorScheme-Text" fill="currentColor">
  <path d="m2.9013 0.79296c-0.41923-0.0019144-0.77868 0.075893-1.1056 0.23956-0.10882 0.054482-0.12576 0.073592-0.11871 0.13241 0.014386 0.12005 0.07637 0.1317 0.25995 0.049311 0.34129-0.15316 0.50734-0.18582 0.93783-0.18629 0.49406-4.051e-4 0.67601 0.041914 1.0812 0.25173 0.069616 0.035999 0.29001 0.20613 0.37227 0.11476 0.08147-0.081465 0.038424-0.14889-0.17137-0.26817-0.41375-0.23523-0.77525-0.33103-1.2556-0.33331zm-0.012784 0.4852c-0.55314-4.208e-4 -1.1059 0.21812-1.5113 0.65596-0.15681 0.16938-0.3397 0.447-0.3397 0.51564 0 0.080034 0.033001 0.12419 0.092839 0.12419 0.046904 0 0.094631-0.050603 0.2082-0.22129 0.25401-0.38174 0.5833-0.635 1.0075-0.77498 0.32901-0.10739 0.71429-0.094954 1.0845 0 0.47806 0.15714 0.88819 0.5072 1.1129 0.95001 0.048889 0.09635 0.078132 0.12571 0.12602 0.12571 0.08247 0 0.13089-0.061372 0.10836-0.13758-0.036325-0.12293-0.23011-0.42078-0.37684-0.57926-0.40593-0.43846-0.95938-0.65798-1.5125-0.6584zm0.026178 0.48185c-0.1179-0.00205-0.23752 0.00911-0.35705 0.034092-0.56801 0.11873-1.0428 0.57874-1.1947 1.1576-0.08065 0.30718-0.043576 0.80894 0.089491 1.2103 0.039768 0.11993 0.058967 0.14495 0.11597 0.15159 0.13106 0.015232 0.14387-0.047147 0.065444-0.31839-0.22441-0.77615-0.03121-1.4365 0.52538-1.7965 0.55029-0.35597 1.3071-0.25062 1.7378 0.24169 0.26987 0.30851 0.4179 0.83034 0.30013 1.0581-0.077795 0.15044-0.26721 0.24086-0.4228 0.20181-0.1137-0.028536-0.24848-0.16827-0.26573-0.27547-0.060885-0.37832-0.14682-0.52637-0.36436-0.62766-0.18556-0.086401-0.34023-0.084016-0.52234 0.0082179-0.16968 0.085944-0.29968 0.25941-0.326 0.43498-0.0095 0.063267-0.00532 0.20018 0.00944 0.30409 0.091798 0.64725 0.55488 1.1593 1.1908 1.3168 0.079972 0.019801 0.21072 0.033791 0.29069 0.031048l0.1455-0.00487c0.082186-0.041719 0.086684-0.13774 0-0.18507l-0.20577-0.031353c-0.25899-0.039466-0.36623-0.073591-0.54425-0.17381-0.38712-0.21793-0.66449-0.69037-0.66449-1.1317 0-0.1945 0.073643-0.30812 0.24534-0.37927 0.12406-0.051418 0.12584-0.051418 0.24991 0 0.15701 0.06507 0.23259 0.17397 0.25204 0.36253 0.035717 0.34606 0.27586 0.57378 0.60513 0.57378 0.26425 0 0.48668-0.17148 0.56556-0.43589 0.0772-0.25876-0.026438-0.69339-0.24412-1.024-0.28849-0.43812-0.76604-0.69366-1.2769-0.70254zm-0.017046 0.50133c-0.16454 0.0020794-0.33374 0.032443-0.47242 0.086447-0.21382 0.10472-0.41756 0.31385-0.52294 0.53634-0.080192 0.16929-0.084975 0.19566-0.084925 0.48307 5.93e-5 0.3536 0.042851 0.54145 0.19512 0.85899 0.1312 0.27362 0.31298 0.51226 0.51503 0.67575 0.17513 0.14171 0.19374 0.14859 0.26665 0.095275 0.074639-0.054574 0.033009-0.14829-0.1178-0.26391-0.16351-0.12536-0.34012-0.35211-0.45933-0.58991-0.1958-0.39059-0.24513-0.87332-0.1175-1.1497 0.092631-0.20057 0.23388-0.35019 0.41397-0.43863 0.21637-0.10626 0.53243-0.10626 0.7488 0 0.25826 0.12682 0.42339 0.35775 0.48185 0.67453 0.034898 0.18909 0.087725 0.25194 0.16833 0.19999 0.037349-0.024076 0.045481-0.064194 0.042006-0.2082-0.008444-0.35007-0.25372-0.70156-0.61213-0.87756-0.12031-0.058543-0.28018-0.084571-0.44472-0.08249z"/>
  <path d="m3.6282 4.3884c-0.45175-0.098543-0.79994-0.49656-0.83903-0.95908-0.01236-0.14618-0.00807-0.1655 0.042539-0.19259 0.096421-0.051602 0.15215 0.00258 0.17143 0.16665 0.048494 0.41259 0.3517 0.72377 0.7596 0.77956 0.19957 0.027293 0.26375 0.10391 0.16759 0.20007-0.048143 0.048143-0.10177 0.049101-0.30213 0.00541z"/>
 </g>
</svg>
