<svg viewBox="0 0 22 22" xmlns="http://www.w3.org/2000/svg">
 <defs>
  <style id="current-color-scheme" type="text/css">
   .ColorScheme-Text { color:#2e3440; } .ColorScheme-Highlight { color:#88c0d0; } .ColorScheme-NeutralText { color:#d08770; } .ColorScheme-PositiveText { color:#a3be8c; } .ColorScheme-NegativeText { color:#bf616a; }
  </style>
 </defs>
 <path class="ColorScheme-Text" d="m6.75 3c-2.4198 0-3.9738 3.0594-4.2031 7h0.99219c0.18843-3.3878 1.3235-6 3.2109-6s3.4333 2.6122 3.6953 6h0.99609c-0.2953-3.9406-2.2716-7-4.6914-7zm3.791 9c0.29904 3.9976 2.3166 6.9968 4.709 7 2.3916 0 3.951-3.0036 4.25-7h-1c-0.26606 3.4408-1.3876 5.9958-3.25 6-1.8624 0-3.441-2.5592-3.707-6h-1.002z" fill="currentColor"/>
 <path class="ColorScheme-Highlight" d="m1 9v4h4v-4h-4zm8 0v4h4v-4h-4zm8 0v4h4v-4h-4zm-15 1h2v2h-2v-2zm8 0h2v2h-2v-2zm8 0h2v2h-2v-2z" fill="currentColor"/>
</svg>
