<svg viewBox="0 0 22 22" xmlns="http://www.w3.org/2000/svg">
 <defs>
  <style id="current-color-scheme" type="text/css">
   .ColorScheme-Text { color:#2e3440; } .ColorScheme-Highlight { color:#88c0d0; } .ColorScheme-NeutralText { color:#d08770; } .ColorScheme-PositiveText { color:#a3be8c; } .ColorScheme-NegativeText { color:#bf616a; }
  </style>
 </defs>
 <path class="ColorScheme-Text" d="m16 3v1a12 12 0 0 0-8.9258 4h0.92578v0.4707a11 11 0 0 1 8-3.4707v1h3v-3h-3zm1 1h1v1h-1v-1zm-10 4.0859a12 12 0 0 0-3 7.9141h-1v3h3v-3h-1a11 11 0 0 1 2.5215-7h-0.52148v-0.91406zm-3 8.9141h1v1h-1v-1z" fill="currentColor"/>
 <path class="ColorScheme-Highlight" d="m6 7v3h3v-3h-3zm1 1h1v1h-1v-1z" fill="currentColor"/>
</svg>
