<svg viewBox="0 0 22 22" xmlns="http://www.w3.org/2000/svg">
 <defs>
  <style id="current-color-scheme" type="text/css">
   .ColorScheme-Text { color:#2e3440; } .ColorScheme-Highlight { color:#88c0d0; } .ColorScheme-NeutralText { color:#d08770; } .ColorScheme-PositiveText { color:#a3be8c; } .ColorScheme-NegativeText { color:#bf616a; }
  </style>
 </defs>
 <path class="ColorScheme-Text" d="m6.9434 3-3.9434 6.8281v0.17188h1.0566l1.1543-2h4.5781l1.1543 2h1.0566v-0.17188l-3.9434-6.8281h-1.113241zm4.0566 0v1h5v-1h-5zm6 0v4l2-2-2-2zm-9.5 1.0371 1.7109 2.9629h-3.4219l1.7109-2.9629zm4.5 1.9629v1h4v-1h-4zm1 3v1h3v-1h-3zm4 0v4l2-2-2-2zm-14 3v1h13v-1h-13zm0 3v1h13v-1h-13zm14 0v4l2-2-2-2zm-14 3v1h13v-1h-13z" fill="currentColor"/>
</svg>
