<svg viewBox="0 0 22 22" xmlns="http://www.w3.org/2000/svg">
 <defs>
  <style id="current-color-scheme" type="text/css">
   .ColorScheme-Text { color:#2e3440; } .ColorScheme-Highlight { color:#88c0d0; } .ColorScheme-NeutralText { color:#d08770; } .ColorScheme-PositiveText { color:#a3be8c; } .ColorScheme-NegativeText { color:#bf616a; }
  </style>
 </defs>
 <path class="ColorScheme-Text" d="m16 3v1h-10.088c0.057493 0.16046 0.087215 0.32955 0.087891 0.5-6.756e-4 0.17045-0.030398 0.33954-0.087891 0.5h10.088v1h3v-3h-3zm1 1h1v1h-1v-1zm-13 1.9121v10.088h-1v3h3v-3h-1v-10.088c-0.16046 0.057493-0.32955 0.087215-0.5 0.087891-0.17045-6.756e-4 -0.33954-0.030398-0.5-0.087891zm0 11.088h1v1h-1v-1z" fill="currentColor"/>
 <path class="ColorScheme-Highlight" d="m4.5 3a1.5 1.5 0 0 0-1.5 1.5 1.5 1.5 0 0 0 1.5 1.5 1.5 1.5 0 0 0 1.5-1.5 1.5 1.5 0 0 0-1.5-1.5zm0 1a0.5 0.5 0 0 1 0.5 0.5 0.5 0.5 0 0 1-0.5 0.5 0.5 0.5 0 0 1-0.5-0.5 0.5 0.5 0 0 1 0.5-0.5z" fill="currentColor"/>
</svg>
