<svg viewBox="0 0 22 22" xmlns="http://www.w3.org/2000/svg">
 <defs>
  <style id="current-color-scheme" type="text/css">
   .ColorScheme-Text { color:#2e3440; } .ColorScheme-Highlight { color:#88c0d0; } .ColorScheme-NeutralText { color:#d08770; } .ColorScheme-PositiveText { color:#a3be8c; } .ColorScheme-NegativeText { color:#bf616a; }
  </style>
 </defs>
 <path class="ColorScheme-Text" d="m15.979 3c-1.5135 0.43772-3.2301 0.66938-4.9785 0.67188-1.7484-0.0011317-3.4656-0.23145-4.9805-0.66797 0.022103 0.68945 0.07712 1.3455 0.13672 1.9961h-0.15625c0-1-1-1-1-1h-2v2h0.0078125c-5.556e-4 0.033753-0.0078125 0.065715-0.0078125 0.099609 0 3.7124 2.5061 6.8099 5.9238 7.7207 0.34096 0.40475 0.70019 0.71827 1.0762 0.91602v2.2637h-1v1h-1v1h6v-1h-1v-1h-1v-2.2637c0.37547-0.19787 0.73371-0.5117 1.0742-0.91602 3.4187-0.91015 5.9258-4.0076 5.9258-7.7207 0-0.033895-0.007257-0.065856-0.007812-0.099609h0.007812v-2h-2.015625s-0.70623 0.0051-0.98438 0.95703v0.042969h-0.158205c0.05971-0.65182 0.11465-1.3093 0.13672-2zm-11.885 2h0.90625c0.26795 1 1 1 1 1h0.26367c0.32517 2.6161 0.93749 4.8496 1.75 6.4277-2.3741-1.1176-4.0137-3.5211-4.0137-6.3281 0-0.37542 0.037378-0.7405 0.09375-1.0996zm6.9062 0 0.61914 1.3164 1.3809 0.21094-1 1.0254 0.23633 1.4473-1.2363-0.68359-1.2363 0.68359 0.23633-1.4473-1-1.0254 1.3809-0.21094 0.61914-1.3164zm6 0h0.90625c0.056371 0.35911 0.09375 0.72419 0.09375 1.0996 0 2.8092-1.6424 5.2137-4.0195 6.3301 0.81347-1.5784 1.4285-3.8117 1.7539-6.4297h0.26562s1 0 1-1z" fill="currentColor"/>
</svg>
