<svg version="1.1" viewBox="0 0 22 22" xmlns="http://www.w3.org/2000/svg">
 <defs>
  <style id="current-color-scheme" type="text/css">
   .ColorScheme-Text { color:#2e3440; } .ColorScheme-Highlight { color:#88c0d0; } .ColorScheme-NeutralText { color:#d08770; } .ColorScheme-PositiveText { color:#a3be8c; } .ColorScheme-NegativeText { color:#bf616a; }
  </style>
 </defs>
 <path class="ColorScheme-Text" d="m3 4v14h7v-1h-6v-12h10v4h4v2h1v-3l-4-4h-11zm12 7c-2.2091 0-4 1.7909-4 4s1.7909 4 4 4 4-1.7909 4-4-1.7909-4-4-4zm0 0.66602c0.11506 0 0.22192 0.01015 0.33398 0.02148h0.08203c0.03507 0.0067 0.07074 0.0142 0.10547 0.01953 0.09577 0.01533 0.17672 0.04112 0.26953 0.06445 0.17107 0.042 0.34048 0.09848 0.5 0.16602 0.08795 0.03733 0.1661 0.0806 0.25 0.125-4.7e-5 0.0067 5.33e-4 0.0122 0 0.01953 0.01933 0.0087 0.0299 0.04645 0.0625 0.06445 0.012 0.0067 0.01022 0.01353 0.02148 0.01953 0.01933 0.01067 0.04502 0.02235 0.04102 0.04101-0.0053 0.02667-0.04383 0.02102-0.0625 0.04102 0.0027 0.03867-0.03102 0.03845-0.04102 0.06445 6e-3 0.01667 0.03835 0.02168 0.04102 0.04102-0.0033 0.02133-0.04902 0.01968-0.04102 0.04101 0.036 0.028 0.06952 0.0067 0.10352 0 0.07466-0.0093 0.1415-0.0063 0.1875-0.04101-6e-3 -0.03533 0.0665-0.0305 0.0625-0.0625 0.01913 0.014 0.04357 0.02701 0.0625 0.04101-0.0072 0.0067-0.01153 0.0162-0.01953 0.01953-0.014 0.0067-0.0303 0.01349-0.04297 0.02149-0.01867 0.012-0.04117 0.02768-0.0625 0.04101-0.01533 0.01067-0.0465 0.0625-0.0625 0.0625-0.01933 0-0.0485-0.02353-0.0625-0.01953-0.02 0.0067-0.01842 0.03368-0.04102 0.04102-0.044 0.016-0.13116-0.02432-0.14648 0.04101 0.01867 0.038 0.09167 0.02035 0.125 0.04102 0.02067 0.01333 0.05723 0.06132 0.0625 0.08398 0.0053 0.01867 8e-3 0.105 0 0.125-0.02067 0.05334-0.0832 0.04168-0.14453 0.04102h-0.04297c-0.10332-0.0067-0.20333-0.05252-0.25 0.02148 0.0033 0.05667 0.01267 0.0952 0 0.14453-0.0093 0.036-0.0645 0.0744-0.0625 0.10547 6.66e-4 0.016 0.03897 0.03983 0.04297 0.0625 0.0027 0.012-0.0053 0.02968 0 0.04102 0.01733 0.03267 0.05137-0.0067 0.08203 0 0.02933 0.0067 0.0625 0.04936 0.0625 0.08203 0 0.02333-0.0047 0.06132-0.01953 0.08399-0.02933 0.044-0.083 0.0385-0.125 0.0625-0.03467 0.02-0.04183 0.07107-0.0625 0.10547-0.022 0.03734-0.05164 0.04998-0.04297 0.10352-0.03 0.05933-0.063 0.09633-0.125 0.125-0.018 8e-3 -0.0459 0.0075-0.0625 0.01953-0.01333 0.0093-0.02235 0.04312-0.04102 0.06445-0.02333 0.026-0.04983 0.0425-0.0625 0.0625-0.0093 0.01534-0.01155 0.04117-0.02148 0.0625-0.01467 0.028-0.0439 0.0345-0.0625 0.0625-0.0087 0.01333-0.01027 0.04517-0.01953 0.0625-0.02133 0.03867-0.04697 0.06952-0.04297 0.10352 0.0033 0.032 0.04097 0.03317 0.04297 0.0625 2e-3 0.016-0.02215 0.02368-0.02148 0.04102 6.67e-4 0.02533 0.01955 0.04445 0.02148 0.06445 0.0047 0.04933-0.03364 0.06978-0.04297 0.10352-0.0047 0.016 4e-3 0.02835 0 0.04102-8e-3 0.02467-0.04035 0.05465-0.04102 0.08398-6.67e-4 0.02067 0.03902 0.03317 0.04102 0.0625 0.0013 0.01933-0.02353 0.04383-0.01953 0.0625 0.0073 0.036 0.07552 0.07552 0.10352 0.10352 0.038 0.038 0.08686 0.06527 0.10352 0.10547 0.014 0.034 0.01697 0.0996 0.04297 0.125 0.01933 0.01867 0.05737 0.02168 0.08203 0.04101 0.02333 0.018 0.0379 0.02168 0.0625 0.04102 0.04067 0.032 0.1033 0.10818 0.16797 0.10352 0.034-0.0067 0.06548-0.03502 0.10352-0.04102 0.03933-0.0067 0.08501-0.02482 0.125-0.02148 0.03067 0.0067 0.07152 0.02348 0.10352 0.02148 0.03333-0.0067 0.0675-0.0075 0.10547-0.02148 0.066-0.02867 0.17354-0.07617 0.26953-0.0625 0.07333 0.01067 0.07367 0.09233 0.125 0.125 0.05867 0.0067 0.09982-0.01133 0.14648 0 0.03533 0.0087 0.08065 0.05598 0.08398 0.08398 0.0033 0.02867-0.03897 0.06598-0.04297 0.08398-0.0093 0.03867 0.0067 0.07885 0 0.10352-0.0053 0.01933-0.0202 0.04317-0.01953 0.0625 0 0.01733 0.02302 0.06132 0.04102 0.08398 0.022 0.028 0.05732 0.05203 0.08398 0.08203 0.04867 0.056 0.06952 0.1135 0.10352 0.1875 0.0087 0.01867-8e-3 0.04045 0 0.06445-0.01467 0.11193-0.05167 0.18857-0.125 0.3125-0.03467 0.04-0.08465 0.07507-0.08398 0.125-0.0027 0.12 0.06787 0.1965 0.0625 0.3125-0.012 0.15593 0.012 0.16673 0 0.25 0.05267 0.02667 0.01533 0.11062 0 0.16602-0.02267 0.066-0.04983 0.081-0.0625 0.125 0.0354 0.01534 0.08568 0.0093 0.125 0-0.01987 0.02067-0.04217 0.04183-0.0625 0.0625-0.15081 0.1508-0.32267 0.29615-0.5 0.41602-0.34403 0.2324-0.72537 0.40893-1.1445 0.5-0.22903 0.05-0.46506 0.0625-0.70898 0.0625-0.12689 0-0.25209-0.0055-0.375-0.01953-0.09791-0.01133-0.19588-0.02168-0.29102-0.04102-0.18878-0.03867-0.36728-0.11843-0.54297-0.1875-6e-3 -0.01133-0.021-0.02963-0.01953-0.04297 0.03467-0.01467 0.09967 0.04933 0.125 0 0.01267-0.02333-0.01667-0.08018 0-0.10352 0.012-0.016 0.07886-0.01487 0.10352-0.01953 0.03533-0.0067 0.08547-0.01215 0.10547-0.02148 0.022-0.014 0.04502-0.06265 0.04101-0.10352-2e-3 -0.01933-0.02575-0.02564-0.04101-0.04297-0.01267-0.01467 0.0087-0.02768 0-0.04102-0.016-0.02333-0.0559-0.0285-0.0625-0.0625 0.048-0.0093 0.11817 0.04082 0.1875 0.02148 0.03267-0.0093 0.08818-0.07278 0.10352-0.10352 0.0047-0.0093-0.0053-0.03097 0-0.04297 6e-3 -0.012 0.01949-0.03502 0.02149-0.04102 0.0047-0.018-4e-3 -0.0075 0-0.01953 0.012-0.034 0.04055-0.05998 0.06055-0.08398 0.01533-0.01867 0.0485-0.04317 0.0625-0.0625 0.016-0.02067 0.01088-0.02235 0.02148-0.04102 0.01-0.06067-0.03615-0.1147-0.02148-0.16797 0.016-0.06 0.10998-0.09767 0.16797-0.125 0.02-0.0093 0.0459-0.01353 0.0625-0.01953 0.04-0.014 0.08767-0.02835 0.125-0.04102 0.06267-0.02267 0.07285-0.06773 0.10352-0.125 0.01467-0.02667 0.03835-0.06465 0.04102-0.08398 0.0027-0.01733-0.0033-0.02102 0-0.04102 0.0033-0.01933-0.0053-0.03983 0-0.0625 0.0073-0.02867 0.02148-0.09307 0.02148-0.125 0-0.02667-0.02088-0.0385-0.02148-0.0625-0.0047-0.08667 0.03057-0.07767 0.0625-0.125 0.016-0.02333 0.0317-0.06732 0.04297-0.08398 0.054-0.08 0.1512-0.10718 0.14453-0.22852-0.0027-0.04-0.03323-0.13382-0.0625-0.14648-0.01667-0.0073-0.0379-0.01282-0.0625-0.02148-0.07866-0.02933-0.14652-0.11833-0.22852-0.125h-0.04102c-0.032 0-0.06947-0.01487-0.10547-0.01953-0.02267-0.0067-0.0687 0.0067-0.08203 0-0.02067-0.01-0.0263-0.05117-0.04297-0.0625-0.01333-0.0093-0.0419-0.01415-0.0625-0.02149-0.03267-0.012-0.04403-0.03901-0.08203-0.04101-0.012 0-0.02963 0.0067-0.04297 0-0.02067-0.0067-0.04128-0.0095-0.06055-0.02149-0.024-0.01467-0.05257-0.02035-0.0625-0.04101 0.022-0.07193-0.0479-0.083-0.0625-0.125-0.0067-0.01933 0.0067-0.0647 0-0.08203-0.0087-0.02467-0.03523-0.04379-0.0625-0.06445-0.048-0.03733-0.07782-0.05383-0.14648-0.0625-0.03067-0.0067-0.06685 0.0067-0.10352 0-0.03867-0.0067-0.09567-0.02917-0.125-0.0625-0.028-0.03267-0.0379-0.06663-0.0625-0.08203-0.02333-0.01467-0.0465-0.0283-0.0625-0.04297-0.0073-0.0067-0.01482-0.0055-0.02149-0.01953-0.012-0.02467-0.03615-0.0325-0.02148-0.0625-0.02667-0.01333-0.01235 0.0242-0.04102 0.01953-0.026-0.03667-0.04488-0.07303-0.10352-0.0625-0.02667 0.0067-0.05265 0.06183-0.08399 0.0625-0.026 0-0.04998-0.05717-0.08398-0.0625-0.026-0.0067-0.06403 0.02482-0.08203 0.02149-0.02867-0.0067-0.03657-0.02368-0.0625-0.04102-0.01933-0.01267-0.05183-0.04168-0.0625-0.04101-0.03333 0-0.0595 0.06568-0.10547 0.04101-0.02267-0.02867 0.04822-0.03583 0.02148-0.0625-0.02-0.01933-0.02501 0.0102-0.04101 0.01953-0.01867 0.012-0.0419 0.01415-0.0625 0.02149-0.046 0.01733-0.08901 0.02235-0.125 0.04101-0.03333 0.01733-0.04323 0.0285-0.0625 0.0625-0.01533 0.028-0.03923 0.08265-0.0625 0.08399-0.028 0-0.03717-0.02968-0.0625-0.04102-0.07666-0.03333-0.12417 0.0182-0.1875 0.01953-0.05867 0-0.14915-0.09115-0.14648-0.14648 2e-3 -0.034 0.01755-0.083 0.02149-0.125 0.0033-0.03333 0.04042-0.07312 0.04101-0.10352 6.67e-4 -0.04133-0.07685-0.05783-0.10352-0.0625-0.06267-0.01133-0.13766 0.028-0.20898 0-0.01333-0.02267 0.01355-0.03983 0.02149-0.0625 0.0047-0.012-0.0047-0.02768 0-0.04101 8e-3 -0.02133 0.05257-0.03983 0.0625-0.0625 0.0073-0.01733-0.0073-0.0405 0-0.0625 0.0087-0.024 0.03902-0.04517 0.04101-0.0625 0.0027-0.02267-0.02308-0.04979-0.04101-0.06445-0.05533 0.0067-0.093 0.0075-0.125 0.02148-0.07199 0.03267-0.05233 0.12382-0.125 0.14648-0.02467 8e-3 -0.05598 0.01487-0.08399 0.01953-0.0122 0.0067-0.02735 0-0.04101 0 0.0013-0.0067-0.0013-0.01287 0-0.01953 0.0033-0.01533 0.01626-0.02635 0.01953-0.04101 0.04753-0.21667 0.12158-0.4264 0.20898-0.625h0.02149c0.02533 0.0067 0.0405 0.03968 0.0625 0.04101 0.06133 0.0067 0.07433-0.05732 0.125-0.08398 0.052 0.0073 0.07767-0.0067 0.125 0 0.032 0.0067 0.07819 0.03835 0.10352 0.04102 0.02133 0 0.02102-0.0222 0.04102-0.01953 0.02 0.0067 0.05923 0.0385 0.0625 0.0625 0.0033 0.03-0.02826 0.07045-0.01953 0.10352 0.03133 0.032 0.09986 0.04383 0.14453 0.0625 0.02933-0.02467 0.0047-0.06885 0-0.10352-6.67e-4 -0.01533 2e-3 -0.0485 0-0.0625-0.0033-0.024-0.01953-0.04183-0.01953-0.0625 0-0.09533 0.08054-0.1307 0.14453-0.16797 0.02733-0.016 0.05998-0.0505 0.08398-0.0625 0.034-0.01667 0.05599-0.0055 0.08399-0.01953 0.05067-0.02867 0.08567-0.073 0.125-0.10547 0.018-0.04333-2e-3 -0.10186 0-0.14453 0.018-0.01133 0.04323 0 0.0625 0 0.03067-0.0067 0.04517-0.04517 0.0625-0.0625 0.01-0.01 0.02902-0.01148 0.04101-0.02148 0.03067-0.024 0.03583-0.05183 0.0625-0.0625 0.0093-0.0067 0.02635-0.01682 0.04102-0.02148 0.02-0.0067 0.05198-0.0075 0.08398-0.01953 0.02067-0.0073 0.07599-0.01282 0.08399-0.02148 0.01-0.01-0.0027-0.04717 0-0.0625 0.016-0.07527 0.12017-0.07812 0.1875-0.10352 0.04667-0.01733 0.09253-0.0717 0.14453-0.0625-0.01 0.036-0.04968 0.0387-0.04102 0.08203 0.01133 0.06067 0.08218-0.01087 0.10352-0.01953 0.04067-0.01733 0.11464-0.0425 0.16797-0.0625 0.04667-0.01667 0.12602-0.02998 0.08203-0.08398-0.03667-0.0067-0.05003 0.02835-0.08203 0.04102-0.022 0.0067-0.0243-0.01753-0.04297-0.01953-0.018 0-0.02302 0.02287-0.04102 0.01953-0.018-0.0067-0.03835-0.0405-0.04101-0.0625-0.0073-0.056 0.0399-0.06198 0.0625-0.10352-0.01533-0.05067-0.08234-0.02168-0.125-0.04102 0.0047-0.03 0.02723-0.05779 0.0625-0.06445 0.02867-0.0067 0.10767 0.0075 0.125 0.02149 0.01 0.0087-0.01527 0.02768 0 0.04101 0.01733 0.01533 0.0399 0.0067 0.0625 0 8e-3 -0.038-0.04964-0.01635-0.04297-0.04101 0.04533-0.02933 0.13217-0.01415 0.1875-0.02149 0.032-0.0067 0.0768-0.02568 0.10547-0.04101 0.02667-0.01533 0.0345-0.04487 0.0625-0.01953 8e-3 0.02733-6e-3 0.04783-0.02149 0.0625-0.05133 0.04533-0.10649 0.09193-0.14648 0.14453 0.02467 0.024 0.0641 0.01682 0.10547 0.02148 0.016 0.0067 0.0459 0 0.0625 0 0.02 0.0067 0.04455-0.0067 0.06055 0 0.028 0.0067 0.03457 0.0625 0.0625 0.0625 0.04533 0 0.026-0.05398 0-0.08398 8e-3 -0.03133 0.03288-0.06003 0.02148-0.08203-0.02067-0.04133-0.09952 0.01232-0.10352-0.04101-0.0027-0.03333 0.02902-0.03717 0.04102-0.0625-0.0053-0.064 0.04768-0.067 0.04102-0.125-0.0033-0.024-0.02435-0.0203-0.04102-0.04297-0.0087-0.012-0.01155-0.05317-0.02148-0.0625-0.03467-0.02933-0.09952-0.0065-0.10352-0.0625-2e-3 -0.03333 0.0047-0.06778 0-0.10352-0.0047-0.034-0.03323-0.13982-0.0625-0.14648-0.03733-8e-3 -0.05882 0.06332-0.10352 0.08398-0.024 0.01133-0.08081 0.02353-0.10547 0.01953-0.016-0.0067-0.03902-0.0097-0.04102-0.04102-0.0027-0.028 0.03062-0.0405 0.04102-0.0625 0.0027-0.0067-0.0013-0.0122 0-0.01953 0.0484-0.01333 0.0973-0.03164 0.14648-0.04297 0.02793-0.0067 0.05578-0.0142 0.08398-0.01953 0.01993-0.0067 0.0425 0.0067 0.0625 0 0.08903-0.01667 0.17816-0.03235 0.26953-0.04102 0.11083-0.01133 0.21992-0.02148 0.33398-0.02148zm-1.3535 0.3125c-0.0212 0.12167-0.13582 0.17144-0.27148 0.16797-0.03067 0.02933-0.0047 0.08433-0.02148 0.125-0.014 0.034-0.06952 0.06517-0.10352 0.0625-0.02467 0-0.0625-0.03917-0.0625-0.0625 0-0.02867 0.04622-0.02983 0.02148-0.0625 0.0013-0.0067 0.0126-0.01482 0.01953-0.02148 0.01347-0.0087 0.02937-0.01348 0.04297-0.02148 0.1208-0.07433 0.24464-0.12883 0.375-0.1875zm2.791 0.125c-0.01227 0.0067-0.01068 0.01482-0.02148 0.02148-0.02533 0.01533-0.04317 0.03435-0.0625 0.04102-0.02733 0.01-0.05857 0.01635-0.0625 0.04101-0.0033 0.02067 0.02222 0.02235 0.02148 0.04102-0.01 0.02467-0.01615 0.03445-0.02148 0.06445 0.034 0.05533 0.10449-0.01282 0.14648-0.02148 0.01867-0.0067 0.03102-0.0075 0.04102-0.02149 0.01133-0.018 0.01288-0.03717 0.02148-0.0625 0.0093-0.028 0.04435-0.03783 0.04102-0.0625-0.0027-0.02467-0.06222-0.04435-0.10352-0.04101zm-3.6465 0.41797c0.0316 0.02533 0.07672 0.07978 0.02148 0.10352-0.0067 0.0067-0.08752 0.02415-0.10352 0.02148-0.0067 0-0.01588-0.01682-0.02148-0.02148 0.03447-0.03333 0.06766-0.07152 0.10352-0.10352zm0.125 0.125c0.016 0 0.0243 0.04035 0.04297 0.04102 0.018 0 0.03035-0.02415 0.04102-0.02148 0.028 0.0073 0.04822 0.06332 0.02148 0.08398-0.022 0.0067-0.02697-0.02415-0.04297-0.02148-0.04533 8e-3 -0.06952 0.10814-0.10352 0.10547-0.032-0.0067-0.05422-0.08213-0.02148-0.10547 6.66e-4 -0.02-0.0013-0.02035 0-0.04102 0.01-0.012 0.03583-0.04302 0.0625-0.04102zm-0.16602 0.019532c0.0093 0 0.01822-0.0067 0.02148 0-0.0047 0.03533-0.01563 0.04583-0.04297 0.0625-0.04733 0.02867-0.08818 0.064-0.10352 0.125-0.0047 0.018-0.06132 0.06677-0.08398 0.0625-0.05267-0.01133 0.03097-0.10973 0.04297-0.125 0.01333-0.01667 0.02568-0.02235 0.04102-0.04102 0.01533-0.01867 0.02635-0.05183 0.04102-0.0625 0.016-0.01133 0.05598-0.02087 0.08398-0.01953zm4.5215 0.10547c0.05267-0.0067 0.07952 0.05003 0.10352 0.08203 0.02 0.026 0.07085 0.06598 0.10352 0.08398 0.01867 0.01 0.04183 0.03235 0.0625 0.04102 0.04333 0.01933 0.123 0.08233 0.125 0.125 6.66e-4 0.02133-0.02293 0.0425-0.01953 0.0625 0.03267 0.0067 0.06183-0.04937 0.0625-0.08203 0.06127 0.08667 0.11308 0.17713 0.16602 0.26953 0.025 0.04333 0.06092 0.08 0.08398 0.125-0.0294 0.0087-0.03824 0.01301-0.04297 0.04101-0.0067 0.03733 0.01498 0.09887-0.04102 0.10547-0.03533 0.0067-0.07634-0.02968-0.125-0.04102-0.02-0.0067-0.0465 0.0067-0.0625 0-0.03667-0.012-0.03123-0.06198-0.0625-0.08398-0.018-0.01267-0.07485-0.03835-0.10352-0.04102-0.018 0-0.0243 0.0067-0.04297 0-0.02267-0.0067-0.06336 0.0093-0.08203 0-0.018-0.01133-0.05783-0.04717-0.0625-0.0625-0.0073-0.02467 0.06117-0.04117 0.0625-0.0625 0.0013-0.016-0.01822-0.03979-0.02148-0.06445-0.0027-0.01467 0.0033-0.03102 0-0.04101-0.0047-0.01733-0.03523-0.01887-0.0625-0.01953h-0.25c-0.058 0.0067-0.10115-0.0067-0.14648 0-0.03267 0-0.09433 0.02768-0.125 0.04102-0.01533 0.0073-0.02102 0.0095-0.04102 0.01953-0.0093 0.0067-0.02902 0.01615-0.04102 0.02149-0.01867 0.0087-0.04457 0.03568-0.0625 0.04101-0.026 0.0067-0.05817-0.0067-0.10547 0-0.034 0-0.08136-0.02183-0.08203-0.0625-6.66e-4 -0.062 0.10736-0.02968 0.16602-0.04101 0.022-0.0067 0.03583-0.02502 0.0625-0.04102 0.01267-0.0073 0.0096-0.01348 0.02148-0.02148 0.02-0.014 0.05923-0.0465 0.0625-0.0625 0.0027-0.01467-2e-3 -0.02968 0-0.04102 0.0027-0.014 0.02302-0.02235 0.04102-0.04102 0.028-0.028 0.04932-0.06598 0.08398-0.08398 0.02333-0.012 0.05183-0.02235 0.0625-0.04102 0.0027-0.02133-6.66e-4 -0.02101 0-0.04101 0.01467-0.01333 0.02902-0.01882 0.04102-0.02149 0.036-8e-3 0.06155 0 0.10352 0 0.018 0 0.04323 0.0087 0.0625 0 0.016-0.01067 0.02697-0.03368 0.04297-0.04101 0.01733-0.0093 0.04117-0.02015 0.0625-0.02149zm0.375 0.39453h-0.083984c-0.02933 0-0.06665-0.01533-0.08398 0 0.02467 0.04 0.06967 0.0525 0.125 0.0625 0.02-0.01467 0.03364-0.0365 0.04297-0.0625zm-4.5625-0.375h0.0625c0.01667 0 0.03435-0.0067 0.04102 0-0.01067 0.044-0.11182 0.03748-0.14648 0.02148 2e-3 -0.01667 0.02163-0.01882 0.04297-0.02148zm-0.14648 0.083984c-0.02913 0.02133-0.05728 0.04783-0.10352 0.0625-0.02533 8e-3 -0.05783 0.0065-0.0625-0.02148-0.0053-0.03467 0.03983-0.0162 0.0625-0.01953 0.02933-0.0067 0.06952-0.02015 0.10352-0.02148zm4.334 0c-0.022 0.0073-0.03267 0.05583 0 0.0625 0.01533-0.0093 0.0236-0.03383 0.01953-0.0625-0.0087-0.0093-0.01293-0.0067-0.01953 0zm-0.04297 0.10352c6.66e-4 0.03733 0.0073 0.07307 0 0.10547 0.02133 0.04133 0.07332 0.0065 0.08398-0.02148 0.01267-0.06933-9e-3 -0.09265-0.04102-0.08398-0.01067 0.0067-0.0317-0.0087-0.04297 0zm-5.5195 1.5625c0.0376 0.034 0.05855 0.0832 0.10352 0.10547 0.01667 0.0087 0.04123 0.0142 0.0625 0.01953 0.01733 0.0067 0.02435-0.0067 0.04102 0 0.03533 0.012 0.07747 0.02835 0.10547 0.04101 0.04267 0.01867 0.08833 0.08414 0.125 0.10547 2e-3 0.02133-0.0067 0.0465 0 0.0625 0.01733 0.02333 0.0345 0.0465 0.0625 0.0625 0.034 0.01867 0.05003 0.04783 0.08203 0.0625 0.01133 0.0067 0.02563-0.0067 0.04297 0 0.044 0.01333 0.06548 0.07357 0.10352 0.0625 0.02467-0.0073 0.01755-0.0385 0.02148-0.0625 0.01667-0.018 0.0365-0.04102 0.0625-0.04102 0.04133 0 0.04717 0.06332 0.0625 0.10352 0.0087 0.02267 0.03502 0.0385 0.04102 0.0625 0.01 0.04133 0.0087 0.16283 0 0.1875-0.01067 0.03067-0.05865 0.0285-0.08398 0.0625-0.012 0.016-0.01027 0.05117-0.01953 0.0625-0.016 0.01933-0.03097 0.02497-0.04297 0.04297-0.0067 0.01-0.0136 0.02768-0.01953 0.04101-0.02 0.04267-0.05963 0.07367-0.04297 0.125 0.0067 0.02067 0.04297 0.03783 0.04297 0.0625 0 0.02933-0.05783 0.05199-0.0625 0.08399-0.0033 0.02333 0.01227 0.0507 0.01953 0.08203 0.0053 0.02333 0.0485 0.04717 0.0625 0.0625 0.02333 0.026 0.04123 0.07247 0.0625 0.10547 0.042 0.06467 0.06417 0.1437 0.10547 0.20703 0.022 0.03267 0.06737 0.04932 0.08203 0.08398 0.0073 0.01733-0.0067 0.0465 0 0.0625 0.024 0.054 0.13351 0.11988 0.1875 0.14648 0.02533 0.01267 0.06065 0.0062 0.08398 0.01953 0.03533 0.02 0.10701 0.0744 0.125 0.10547 0.016 0.028 0.01355 0.09993 0.02148 0.14453 0.01 0.05867-0.0027 0.10457 0 0.16797 2e-3 0.03467 0.01953 0.04736 0.01953 0.08203 0 0.012 6.66e-4 0.04983 0 0.0625-6.67e-4 0.04133 0.0033 0.083 0 0.125-2e-3 0.02267-0.0013 0.04317 0 0.0625 2e-3 0.02067 0.02022 0.02497 0.02148 0.04297 0.0013 0.01933-0.02355 0.04717-0.02148 0.0625 0.0047 0.042 0.03497 0.06465 0.04297 0.10352 0.0067 0.03067 0.02353 0.10982 0.01953 0.14648-0.0027 0.01933-0.01687 0.0405-0.01953 0.0625-2e-3 0.01733 0.0027 0.02568 0 0.04102-2e-3 0.01533 4e-3 0.02835 0 0.04102-0.02127-0.01333-0.04163-0.02702-0.0625-0.04102-0.17733-0.11987-0.34919-0.26522-0.5-0.41602-0.0204-0.02067-0.04263-0.04312-0.0625-0.06445-0.12038-0.12673-0.23455-0.27154-0.33398-0.41601-9e-3 -0.01333-0.01268-0.02835-0.02148-0.04102-0.11537-0.17287-0.20914-0.34742-0.29102-0.54102-6e-3 -0.014-0.01582-0.02897-0.02148-0.04297-0.07025-0.17267-0.1253-0.35535-0.16602-0.54102-0.0077-0.03533-0.01495-0.06811-0.02148-0.10352-0.01653-0.08907-0.03175-0.18008-0.04102-0.27148-0.0114-0.113-0.02148-0.21892-0.02148-0.33398 0-0.1584 0.02157-0.30645 0.04297-0.45898z" fill="currentColor"/>
</svg>
