<svg viewBox="0 0 22 22" xmlns="http://www.w3.org/2000/svg">
 <defs>
  <style id="current-color-scheme" type="text/css">
   .ColorScheme-Text { color:#2e3440; } .ColorScheme-Highlight { color:#88c0d0; } .ColorScheme-NeutralText { color:#d08770; } .ColorScheme-PositiveText { color:#a3be8c; } .ColorScheme-NegativeText { color:#bf616a; }
  </style>
 </defs>
 <path class="ColorScheme-Text" d="m9.9102 4-3.3145 9.5938-0.12305 0.40625-1.4727 4h1.6582l1.625-4.4375h5.4336l1.625 4.4375h1.6582l-1.4727-4-0.12305-0.40625-3.3145-9.5938h-2.17968zm1.1055 1.9375 2.1797 6.3438h-4.3906l2.2109-6.3438z" fill="currentColor"/>
 <path class="ColorScheme-Text" d="m18 3c-0.55229 0-1 0.4477-1 1s0.44771 1 1 1c0.55228 0 1-0.4477 1-1s-0.44772-1-1-1zm0 4c-0.55229 0-1 0.4477-1 1s0.44771 1 1 1c0.55228 0 1-0.4477 1-1s-0.44772-1-1-1zm0 4c-0.55229 0-1 0.4477-1 1s0.44771 1 1 1c0.55228 0 1-0.4477 1-1s-0.44772-1-1-1z" fill="currentColor"/>
</svg>
