<svg viewBox="0 0 22 22" xmlns="http://www.w3.org/2000/svg">
 <defs>
  <style id="current-color-scheme" type="text/css">
   .ColorScheme-Text { color:#2e3440; } .ColorScheme-Highlight { color:#88c0d0; } .ColorScheme-NeutralText { color:#d08770; } .ColorScheme-PositiveText { color:#a3be8c; } .ColorScheme-NegativeText { color:#bf616a; }
  </style>
 </defs>
 <path class="ColorScheme-Text" d="m11 3a8 8 0 0 0-7.7402 6h1.0352a7 7 0 0 1 6.7051-5 7 7 0 0 1 6.3086 4h-3.6094v1h5.00005v-5h-1v2.6562a8 8 0 0 0-6.6992-3.6562zm-7.6992 10v5h1v-2.6562a8 8 0 0 0 6.6992 3.6562 8 8 0 0 0 7.7402-6h-1.0352a7 7 0 0 1-6.7051 5 7 7 0 0 1-6.3086-4h3.6094v-1h-5.0000031z" fill="currentColor"/>
</svg>
