<svg viewBox="0 0 22 22" xmlns="http://www.w3.org/2000/svg">
 <defs>
  <style type="text/css">.ColorScheme-Text {
        color:#2e3440;
      }</style>
 </defs>
 <path class="ColorScheme-Text" d="m11 3.1211-3.0508 3.0508 0.70703 0.70703 2.3438-2.3438 2.3438 2.3438 0.70703-0.70703-3.0508-3.0508zm-4.8281 4.8281-3.0508 3.0508 3.0508 3.0508 0.70703-0.70703-2.3438-2.3438 2.3438-2.3438-0.70703-0.70703zm9.6562 0-0.70703 0.70703 2.3438 2.3438-2.3438 2.3438 0.70703 0.70703 3.0508-3.0508-3.0508-3.0508zm-4.8281 0.22266-2.8281 2.8281 2.8281 2.8281 2.8281-2.8281-2.8281-2.8281zm0 1.4141 1.4141 1.4141-1.4141 1.4141-1.4141-1.4141 1.4141-1.4141zm-2.3438 5.5352-0.70703 0.70703 3.0508 3.0508 3.0508-3.0508-0.70703-0.70703-2.3438 2.3438-2.3438-2.3438z" fill="currentColor"/>
</svg>
