<svg viewBox="0 0 22 22" xmlns="http://www.w3.org/2000/svg">
 <defs>
  <style id="current-color-scheme" type="text/css">
   .ColorScheme-Text { color:#2e3440; } .ColorScheme-Highlight { color:#88c0d0; } .ColorScheme-NeutralText { color:#d08770; } .ColorScheme-PositiveText { color:#a3be8c; } .ColorScheme-NegativeText { color:#bf616a; }
  </style>
 </defs>
 <path class="ColorScheme-Text" d="m15.316 7.6094v6.6562h1.0605v-6.6562h-1.0605zm-9.6016 0.4082-2.7148 6.248h1.2324l0.56641-1.4258h2.6973l0.58008 1.4258h1.2656l-2.6836-6.248h-0.94336zm0.42773 1.332c0.088746 0.3006 0.18705 0.58334 0.29297 0.84961l0.67383 1.6836h-1.9375l0.66992-1.6543c0.11165-0.2748 0.21204-0.56684 0.30078-0.87891zm5.8965 0.55273c-0.64698 0-1.194 0.2059-1.6406 0.61523-0.44659 0.40653-0.66992 0.94745-0.66992 1.623 0 0.66993 0.20795 1.2119 0.62305 1.627 0.4151 0.41513 0.96215 0.62305 1.6406 0.62305 0.42369 0 0.78326-0.065532 1.0781-0.19727 0.29773-0.13453 0.54361-0.31384 0.73828-0.53711 0.19753-0.22333 0.33377-0.46714 0.4082-0.73047 0.077295-0.26627 0.11523-0.48341 0.11523-0.65234 0-0.34067-0.029724-0.61217-0.089843-0.8125-0.094472-0.3178-0.24714-0.59846-0.45898-0.8418-0.21184-0.24333-0.46894-0.42362-0.76953-0.54102-0.29773-0.11733-0.62249-0.17578-0.97461-0.17578zm0 0.9375c0.40365 0 0.7069 0.12905 0.91016 0.38672 0.20612 0.2576 0.30859 0.57942 0.30859 0.96875 2e-6 0.22334-0.047197 0.43528-0.14453 0.63281s-0.24583 0.35337-0.44336 0.4707c-0.19467 0.1174-0.41696 0.17774-0.66602 0.17773-0.34639 0-0.63231-0.11982-0.86133-0.35742-0.22616-0.24047-0.33984-0.5591-0.33984-0.95703s0.11682-0.71656 0.35156-0.95703c0.23475-0.24333 0.52978-0.36523 0.88476-0.36523zm6.2617 2.0781c-0.19753 0-0.36649 0.067678-0.50391 0.20508-0.13455 0.1374-0.20117 0.30338-0.20117 0.49805s0.069619 0.36065 0.20703 0.49805c0.13741 0.1346 0.30338 0.20312 0.49805 0.20312 0.19181 0 0.35478-0.069565 0.49219-0.20703 0.13741-0.1374 0.20703-0.30234 0.20703-0.49414 0-0.19467-0.069619-0.36065-0.20703-0.49805-0.13455-0.1374-0.29752-0.20508-0.49219-0.20508z" fill="currentColor"/>
</svg>
