<svg viewBox="0 0 22 22" xmlns="http://www.w3.org/2000/svg">
 <defs>
  <style id="current-color-scheme" type="text/css">
   .ColorScheme-Text { color:#2e3440; } .ColorScheme-Highlight { color:#88c0d0; } .ColorScheme-NeutralText { color:#d08770; } .ColorScheme-PositiveText { color:#a3be8c; } .ColorScheme-NegativeText { color:#bf616a; }
  </style>
 </defs>
 <path class="ColorScheme-Text" d="m11.611 3c-0.18141-1e-4 -0.59797 0.017781-1.1055 0.11328-1.1995 0.2262-2.8608 1.0383-3.3301 2.7578-0.72572 2.659 1.1348 3.7324 1.1348 3.7324s0.66525 0.3921 0.93555 0.4707c0.81233 0.2364 1.6797 0.12891 1.6797 0.12891s-0.34904 1.1872 0.3418 2.0273c0.16493 0.2005 0.046875 0.21094 0.046875 0.21094s-3.0217-0.072034-4.4512 1.5098c-1.4294 1.5817-0.65234 3.0332-0.65234 3.0332s0.75175 1.9155 3.9844 2.0117c3.247 0.097 5.2406-1.9088 5.416-3.4219 0.08816-0.7606-0.007607-1.4862-0.37305-2.1094-0.35551-0.606-0.9759-1.1301-1.5723-1.6387-0.37056-0.316-0.6288-0.48422-0.79492-0.66602-0.15694-0.1716-0.1911-0.38488-0.18555-0.55078 0.0078-0.2317 0.13955-0.51963 0.5293-0.99023 0.71102-0.8584 0.89267-0.73631 1.3223-1.3789 0.12879-0.1926 0.22524-0.4894 0.35742-0.9082 0.07963-0.2522 0.06249-0.50289 0.0625-0.74609 1.5e-5 -0.5255-0.12474-1.0387-0.32617-1.4609-0.37434-0.7846-1.015-1.2916-1.0273-1.3301h1.1211l1.2754-0.7793-4.2949-0.015625c-1.4e-5 -2e-4 -0.03328 0-0.09375 0zm-0.91797 0.73047c0.65652 0.0099999 1.6336 0.35678 2.2246 2.2051 1.0142 3.1714-1.1055 3.668-1.1055 3.668s-2.4315 0.38711-2.8789-2.4336c-0.45575-2.8731 0.65556-3.0268 1.0898-3.3105 0 0 0.27601-0.13171 0.66992-0.12891zm1.3223 9.3613s1.9506 1.233 2.1328 2.1406c0.20418 1.0167 0.2178 1.7536-1.2617 2.5645-0.43676 0.2395-1.1969 0.27339-1.6797 0.27539-1.1865 0.01-2.0942-0.45857-2.5371-0.69727-0.23015-0.1239-1.4914-1.6302-0.54492-2.9688 0.23807-0.3367 0.50097-0.49442 0.74609-0.66602 0.52167-0.365 1.0268-0.52939 1.9922-0.61719 0.32109-0.029 0.73219 7.5e-4 1.1523-0.03125z" fill="currentColor"/>
</svg>
