<svg viewBox="0 0 22 22" xmlns="http://www.w3.org/2000/svg">
 <defs>
  <style id="current-color-scheme" type="text/css">
   .ColorScheme-Text { color:#2e3440; } .ColorScheme-Highlight { color:#88c0d0; } .ColorScheme-NeutralText { color:#d08770; } .ColorScheme-PositiveText { color:#a3be8c; } .ColorScheme-NegativeText { color:#bf616a; }
  </style>
 </defs>
 <path class="ColorScheme-Text" d="m11 3a2 3 0 0 0-2 3 2 3 0 0 0 0.0058594 0.18555 3 2 45 0 0-0.12695-0.13477 3 2 45 0 0-3.5352-0.70703 3 2 45 0 0 0.70703 3.5352 3 2 45 0 0 0.13281 0.12695 3 2 0 0 0-0.18359-0.0058594 3 2 0 0 0-3 2 3 2 0 0 0 3 2 3 2 0 0 0 0.18555-0.005859 2 3 45 0 0-0.13477 0.12695 2 3 45 0 0-0.70703 3.5352 2 3 45 0 0 3.5352-0.70703 2 3 45 0 0 0.12695-0.13281 2 3 0 0 0-0.0058594 0.18359 2 3 0 0 0 2 3 2 3 0 0 0 2-3 2 3 0 0 0-0.005859-0.18555 3 2 45 0 0 0.12695 0.13477 3 2 45 0 0 3.5352 0.70703 3 2 45 0 0-0.70703-3.5352 3 2 45 0 0-0.13281-0.12695 3 2 0 0 0 0.18359 0.005859 3 2 0 0 0 3-2 3 2 0 0 0-3-2 3 2 0 0 0-0.18555 0.0058594 2 3 45 0 0 0.13477-0.12695 2 3 45 0 0 0.70703-3.5352 2 3 45 0 0-3.5352 0.70703 2 3 45 0 0-0.12695 0.13281 2 3 0 0 0 0.005859-0.18359 2 3 0 0 0-2-3zm0.99414 5.5977a2 3 45 0 0 0.41992 0.98828 2 3 45 0 0 0.98633 0.41992 3 2 0 0 0-0.40039 0.99414 3 2 0 0 0 0.40234 0.99414 3 2 45 0 0-0.98828 0.41992 3 2 45 0 0-0.41992 0.98633 2 3 0 0 0-0.99414-0.40039 2 3 0 0 0-0.99414 0.40039 2 3 45 0 0-0.41992-0.98633 2 3 45 0 0-0.98633-0.41992 3 2 0 0 0 0.40039-0.99414 3 2 0 0 0-0.40039-0.99414 3 2 45 0 0 0.98633-0.41992 3 2 45 0 0 0.41992-0.98633 2 3 0 0 0 0.99414 0.40039 2 3 0 0 0 0.99414-0.40234zm-0.99414 1.4023c-0.554 0-1 0.446-1 1s0.446 1 1 1 1-0.446 1-1-0.446-1-1-1z" fill="currentColor"/>
</svg>
