<svg viewBox="0 0 22 22" xmlns="http://www.w3.org/2000/svg">
 <defs>
  <style type="text/css">.ColorScheme-NegativeText {
                color:#bf616a;
            }</style>
 </defs>
 <g class="ColorScheme-NegativeText" transform="translate(-421.71 -525.79)" fill="currentColor">
  <path d="m432.71 528.79a4 4 0 0 0-4 4 4 4 0 0 0 4 4 4 4 0 0 0 4-4 4 4 0 0 0-4-4m0 1a3 3 0 0 1 3 3 3 3 0 0 1-3 3 3 3 0 0 1-3-3 3 3 0 0 1 3-3m0 8a8 8 0 0 0-7.927 7h1.007a7 7 0 0 1 6.92-6 7 7 0 0 1 1 0.08v-1.009a8 8 0 0 0-1-0.07"/>
  <circle cx="437.21" cy="541.29" r="3.5"/>
 </g>
 <path d="m13 15h5v1h-5z" fill="#fff"/>
</svg>
