<svg viewBox="0 0 22 22" xmlns="http://www.w3.org/2000/svg">
 <defs>
  <style id="current-color-scheme" type="text/css">
   .ColorScheme-Text { color:#2e3440; } .ColorScheme-Highlight { color:#88c0d0; } .ColorScheme-NeutralText { color:#d08770; } .ColorScheme-PositiveText { color:#a3be8c; } .ColorScheme-NegativeText { color:#bf616a; }
  </style>
 </defs>
 <path class="ColorScheme-Text" d="m11 3c-4.432 0-8 3.568-8 8s3.568 8 8 8c2.0353 0 3.882-0.75889 5.291-2.002l2.002 2.002 0.70703-0.70703-2.002-2.002c1.2431-1.409 2.002-3.2557 2.002-5.291 0-4.432-3.568-8-8-8zm0 1c3.878 0 7 3.122 7 7 0 1.7585-0.64573 3.357-1.709 4.584l-1.584-1.584-0.70703 0.70703 1.584 1.584c-1.227 1.0633-2.8255 1.709-4.584 1.709-3.878 0-7-3.122-7-7s3.122-7 7-7z" fill="currentColor"/>
</svg>
