<svg viewBox="0 0 22 22" xmlns="http://www.w3.org/2000/svg">
 <defs>
  <style id="current-color-scheme" type="text/css">
   .ColorScheme-Text { color:#2e3440; } .ColorScheme-Highlight { color:#88c0d0; } .ColorScheme-NeutralText { color:#d08770; } .ColorScheme-PositiveText { color:#a3be8c; } .ColorScheme-NegativeText { color:#bf616a; }
  </style>
 </defs>
 <path class="ColorScheme-Text" d="m7.4258 3c-2.444 0-4.4258 1.9535-4.4258 4.3633 0 0.80553 0.22314 1.5594 0.60938 2.207-0.10142 0.48865-0.15625 0.99531-0.15625 1.5137 0 4.156 3.416 7.5254 7.6309 7.5254 0.47783 0 0.94522-0.043993 1.3984-0.12695 0.62283 0.33048 1.3351 0.51758 2.0918 0.51758 2.4444 0 4.4258-1.9532 4.4258-4.3633 0-0.69611-0.16666-1.3535-0.46094-1.9375 0.11523-0.52033 0.17774-1.0609 0.17774-1.6152 0-4.1559-3.416-7.5254-7.6309-7.5254-0.44486 0-0.88234 0.040108-1.3066 0.11133-0.68224-0.42346-1.4879-0.66992-2.3535-0.66992zm3.6094 2.7891c0.68175 0 1.2809 0.078832 1.7812 0.23242 0.50272 0.1544 0.92663 0.3625 1.2598 0.61914 0.3356 0.25867 0.58535 0.53514 0.74219 0.82227 0.15848 0.29063 0.23828 0.57779 0.23828 0.85742 0 0.26877-0.10449 0.51405-0.3125 0.72656-0.20933 0.2144-0.47417 0.32422-0.78516 0.32422-0.28249 0-0.50293-0.069025-0.65625-0.20312-0.14306-0.12427-0.29065-0.3188-0.45508-0.59766-0.19041-0.35675-0.4213-0.63786-0.68555-0.83594-0.25639-0.19254-0.68434-0.28906-1.2734-0.28906-0.54712 0-0.99182 0.107-1.3223 0.32031-0.3185 0.20587-0.47461 0.44338-0.47461 0.72266 0 0.17148 0.049584 0.31409 0.15234 0.4375 0.10846 0.13041 0.26179 0.24447 0.45508 0.33984 0.2004 0.0997 0.40844 0.17812 0.61523 0.23438 0.2123 0.0581 0.56702 0.1444 1.0547 0.25586 0.61766 0.13067 1.1855 0.27735 1.6875 0.43555 0.50788 0.16053 0.94884 0.35813 1.3066 0.58789 0.36565 0.23466 0.65418 0.53638 0.85938 0.89648 0.20609 0.36089 0.31055 0.80624 0.31055 1.3242-1.1e-4 0.61966-0.18065 1.1855-0.53516 1.6797-0.35262 0.49305-0.87298 0.88317-1.5488 1.1602-0.66916 0.27429-1.4716 0.41406-2.3848 0.41406-1.0962 0-2.0154-0.19144-2.7324-0.56641-0.51266-0.27341-0.93689-0.64102-1.2578-1.0977-0.32405-0.46129-0.48828-0.91992-0.48828-1.3613 0-0.2758 0.10722-0.5136 0.31836-0.70898 0.20905-0.19412 0.47756-0.29297 0.79688-0.29297 0.26233 0 0.48802 0.077369 0.67188 0.23047 0.17553 0.14694 0.32643 0.36407 0.44727 0.64453 0.13549 0.30547 0.28377 0.56256 0.43945 0.76563 0.14983 0.19547 0.36373 0.35983 0.63867 0.48828 0.27694 0.12934 0.65058 0.19531 1.1094 0.19531 0.63109 0 1.1481-0.13244 1.5371-0.39453 0.3799-0.25546 0.56445-0.56324 0.56445-0.93945 0-0.29721-0.096712-0.52977-0.29492-0.71289-0.20798-0.19147-0.48126-0.34107-0.81445-0.44336-0.34663-0.10614-0.81646-0.22164-1.3984-0.3418-0.79193-0.1672-1.4648-0.36517-2-0.58984-0.54712-0.22933-0.98999-0.54884-1.3125-0.94726-0.32763-0.40385-0.49219-0.91135-0.49219-1.5078 0-0.56843 0.17356-1.0796 0.51758-1.5215 0.34109-0.43906 0.8387-0.78163 1.4805-1.0156 0.63345-0.23094 1.3881-0.34766 2.2402-0.34766z" fill="currentColor"/>
</svg>
