<svg viewBox="0 0 22 22" xmlns="http://www.w3.org/2000/svg">
 <g transform="translate(-421.71 -525.79)" fill="#bf616a">
  <path d="m432.71 528.79a4 4 0 0 0-4 4 4 4 0 0 0 4 4 4 4 0 0 0 4-4 4 4 0 0 0-4-4m0 1a3 3 0 0 1 3 3 3 3 0 0 1-3 3 3 3 0 0 1-3-3 3 3 0 0 1 3-3"/>
  <path transform="translate(420.71 524.79)" d="m12 13a8 8 0 0 0-7.9277 7h1.0078a7 7 0 0 1 6.9199-6 7 7 0 0 1 1 0.08008v-1.0098a8 8 0 0 0-1-0.07031"/>
  <path transform="translate(421.71 525.79)" d="m15.5 12a3.5 3.5 0 0 0-3.5 3.5 3.5 3.5 0 0 0 3.5 3.5 3.5 3.5 0 0 0 3.5-3.5 3.5 3.5 0 0 0-3.5-3.5m-0.5 1h1v2h1v1h-2v-3"/>
 </g>
</svg>
