<svg viewBox="0 0 22 22" xmlns="http://www.w3.org/2000/svg">
 <defs>
  <style id="current-color-scheme" type="text/css">
   .ColorScheme-Text { color:#2e3440; } .ColorScheme-Highlight { color:#88c0d0; } .ColorScheme-NeutralText { color:#d08770; } .ColorScheme-PositiveText { color:#a3be8c; } .ColorScheme-NegativeText { color:#bf616a; }
  </style>
 </defs>
 <path class="ColorScheme-Text" d="m3 3v1h10v-1h-10zm0 2v1h6v-1h-6zm0 4v1h8v-1h-8zm0 2v1h4v-1h-4zm0 4v1h7v-1h-7zm0 2v1h2v-1h-2z" fill="currentColor"/>
 <path class="ColorScheme-Highlight" d="m16 3v1h1v2h-1v1h3v-1h-1v-2h1v-1h-3zm-6 2v1h1v-1h-1zm2 0v1h1v-1h-1zm2 0v1h1v-1h-1zm0 4v1h1v2h-1v1h5v-1h-1v-2h1v-1h-5zm2 1h1v2h-1v-2zm-8 1v1h1v-1h-1zm2 0v1h1v-1h-1zm2 0v1h1v-1h-1zm0 4v1h1v2h-1v1h7v-1h-1v-2h1v-1h-7zm2 1h1v2h-1v-2zm2 0h1v2h-1v-2zm-10 1v1h1v-1h-1zm2 0v1h1v-1h-1zm2 0v1h1v-1h-1z" fill="currentColor"/>
</svg>
