<svg viewBox="0 0 22 22" xmlns="http://www.w3.org/2000/svg">
 <defs>
  <style id="current-color-scheme" type="text/css">
   .ColorScheme-Text { color:#2e3440; } .ColorScheme-Highlight { color:#88c0d0; } .ColorScheme-NeutralText { color:#d08770; } .ColorScheme-PositiveText { color:#a3be8c; } .ColorScheme-NegativeText { color:#bf616a; }
  </style>
 </defs>
 <path class="ColorScheme-Text" d="m3 3v16h7v-2l5.5-5.5-1.5-1.5-4 4-1-1-5 5v-14h14v7h1v-8h-16zm4 2c-1.108 0-2 0.892-2 2s0.892 2 2 2 2-0.892 2-2-0.892-2-2-2zm10 6-6 6v2h2v-0.03125l1-0.96875 5-5-2-2zm-0.28125 1.6875 0.5625 0.59375-4.9688 5-0.59375-0.59375 5-5z" fill="currentColor"/>
</svg>
