<svg viewBox="0 0 22 22" xmlns="http://www.w3.org/2000/svg">
 <defs>
  <style id="current-color-scheme" type="text/css">
   .ColorScheme-Text { color:#2e3440; } .ColorScheme-Highlight { color:#88c0d0; } .ColorScheme-NeutralText { color:#d08770; } .ColorScheme-PositiveText { color:#a3be8c; } .ColorScheme-NegativeText { color:#bf616a; }
  </style>
 </defs>
 <path class="ColorScheme-Text" d="m3 3v14l2-2h-1v-1h1v1l1-1v-2h2l2.0996-2.0996h-4.0996v-5.9004h10l1-1h-14zm15.293 0-15.293 15.293 0.70703 0.70703 15.293-15.293-0.70703-0.70703zm-14.293 2h1v1h-1v-1zm15 0-2 2h1v1h-1v-1l-1 1v1.9004h-1.9004l-2.0996 2.0996h4v6h-10l-1 1h14v-14zm-15 2h1v1h-1v-1zm0 2h1v1h-1v-1zm13 0.099609h1v1h-1v-1zm-13 2.9004h1v1h-1v-1zm13 0h1v1h-1v-1zm0 2h1v1h-1v-1zm0 2h1v1h-1v-1z" fill="currentColor"/>
</svg>
