<svg version="1.1" viewBox="0 0 22 22" xmlns="http://www.w3.org/2000/svg">
 <defs>
  <style id="current-color-scheme" type="text/css">
   .ColorScheme-Text { color:#2e3440; } .ColorScheme-Highlight { color:#88c0d0; } .ColorScheme-NeutralText { color:#d08770; } .ColorScheme-PositiveText { color:#a3be8c; } .ColorScheme-NegativeText { color:#bf616a; }
  </style>
 </defs>
 <path class="ColorScheme-Text" d="m3 3v16h16v-16h-16zm1 1h14v12h-7v1h-3v-1l-1 1v1h-3v-1h1l-1-1v-12zm2 2v8h2l1-1h-2v-6h2v4h4v-4h2v6h-6l1 1h6v-8h-10zm6 11h6v1h-6v-1z" fill="currentColor"/>
 <path d="m7 11c-2.216 0-4 1.784-4 4s1.784 4 4 4 4-1.784 4-4-1.784-4-4-4zm2 2 1 1-4 4-2-2 1-1 1 1 3-3z" fill="#a3be8c"/>
</svg>
