<svg viewBox="0 0 22 22" xmlns="http://www.w3.org/2000/svg">
 <defs>
  <style id="current-color-scheme" type="text/css">
   .ColorScheme-Text { color:#2e3440; } .ColorScheme-Highlight { color:#88c0d0; } .ColorScheme-NeutralText { color:#d08770; } .ColorScheme-PositiveText { color:#a3be8c; } .ColorScheme-NegativeText { color:#bf616a; }
  </style>
 </defs>
 <path class="ColorScheme-Text" d="m6.168 2.0156c-0.25696-0.09856-0.53512 0.2948-0.62305 0.88086-0.079243 0.5282 0.0023109 3.3175 0.10742 3.6777 0.052028 0.17832-0.034497 0.26239-0.48633 0.47266-0.66405 0.30902-1.6184 1.2127-1.9355 1.834-0.13791 0.2702-0.23047 0.65736-0.23047 0.95898 0 0.44015 0.053471 0.55949 0.41016 0.91602 0.43237 0.43217 0.88734 0.60784 1.8711 0.7207 0.32861 0.0377 0.66314 0.11912 0.74219 0.18164 0.2815 0.22262 0.56169 0.94427 0.67188 1.7246 0.069579 0.49276 0.26171 1.11 0.50586 1.6309 0.39113 0.8345 0.39214 0.83926 0.32031 1.8984-0.039645 0.58456-0.12667 1.4195-0.19336 1.8535-0.10906 0.70972-0.10312 0.8102 0.072266 1.0039 0.29879 0.33002 1.0789 0.29967 1.3086-0.05078 0.17171-0.26194 0.39477-1.0278 0.53125-1.8242l0.070312-0.40625 0.51172 0.26172c0.28988 0.1489 0.59037 0.40824 0.69531 0.59766l0.18555 0.33398h-0.29688c-0.44046 0-0.7793 0.28318-0.7793 0.65039 0 0.651 0.37305 0.66797 0.37305 0.66797h6c1 0 1.0587-0.21137 1.1465-1.1465 0.02519-0.26842 0.10263-0.34278 0.5-0.47461 0.95581-0.31709 1.5791-1.3054 1.2773-2.0273-0.16135-0.386-0.66711-0.65704-1.0801-0.57812-0.24465 0.04675-0.2641 0.0081-0.36914-0.7207-0.22374-1.5524-0.84791-2.6172-1.9707-3.3652-0.83179-0.55418-1.7682-0.80953-3.3809-0.92383-1.5275-0.10826-2.0353-0.28357-2.5332-0.875-0.15451-0.18354-0.30908-0.51609-0.34375-0.73828-0.14472-0.92747-0.3009-1.2793-0.76758-1.7285l-0.47266-0.45703 0.21094-0.61328c0.62837-1.8256 0.72903-4.2832 0.17578-4.2832-0.31281 0-0.80244 0.756-1.1484 1.7734l-0.18359 0.53711-0.14062-0.63867c-0.18758-0.85239-0.53108-1.6399-0.75195-1.7246zm-0.66797 5.9844c0.27614 0 0.5 0.22386 0.5 0.5s-0.22386 0.5-0.5 0.5-0.5-0.22386-0.5-0.5 0.22386-0.5 0.5-0.5z" fill="currentColor"/>
</svg>
