<svg viewBox="0 0 22 22" xmlns="http://www.w3.org/2000/svg">
 <defs>
  <style id="current-color-scheme" type="text/css">
   .ColorScheme-Text { color:#2e3440; } .ColorScheme-Highlight { color:#88c0d0; } .ColorScheme-NeutralText { color:#d08770; } .ColorScheme-PositiveText { color:#a3be8c; } .ColorScheme-NegativeText { color:#bf616a; }
  </style>
 </defs>
 <path class="ColorScheme-Text" d="m7.0293 3-0.70312 1.8086c-1.1428-0.34393-2.259-0.80374-3.3262-1.3848v1.3887c0.93272 0.465 1.8919 0.85759 2.875 1.1582l-1.4941 3.8457c-0.46928-0.21404-0.92778-0.45895-1.3809-0.7168v1.4082c0.30873 0.15908 0.61679 0.32102 0.93164 0.46289l-0.93164 2.3984v3.418l0.054688-0.14062c2.3068 1.1254 4.7957 1.7446 7.3066 1.8672l0.001953 0.48633h1.2363v-0.46484c2.5298-0.042325 5.0515-0.58689 7.4004-1.6445v-3.7031l-0.69141-1.7812c0.23436-0.088768 0.45988-0.20468 0.69141-0.30273v-1.3457c-0.37742 0.17296-0.75446 0.34594-1.1406 0.49219l-1.5957-4.1074c0.9306-0.24958 1.8456-0.57223 2.7363-0.96484v-1.373c-1.0302 0.4952-2.095 0.8937-3.1855 1.1777l-0.77148-1.9824h-1.3379l0.87891 2.2559c-0.9939 0.18369-2.0003 0.28018-3.0078 0.29102l-0.00586-2.5469h-1.248l0.007812 2.5176c-0.93691-0.056361-1.8712-0.18243-2.791-0.38867l0.82812-2.1289h-1.3379zm0.054688 3.2949c1.0695 0.25028 2.1564 0.40027 3.248 0.46094l0.011719 4.5859c-1.6361-0.12183-3.2582-0.47123-4.8145-1.0508l1.5547-3.9961zm7.957 0.13477 1.6426 4.2188c-1.6607 0.49689-3.3784 0.74864-5.0977 0.74219l-0.007813-4.6055c1.161-0.012105 2.3199-0.12949 3.4629-0.35547zm-9.9609 5.0156c1.7021 0.63417 3.477 1.0115 5.2676 1.1348l0.011719 4.6953c-2.3567-0.12453-4.6888-0.72471-6.8496-1.7969l1.5703-4.0332zm12.055 0.35938 1.5117 3.8789c-2.2333 1.0345-4.637 1.5731-7.0508 1.6152l-0.007812-4.6719c1.8714 0.005629 3.7416-0.27223 5.5469-0.82226z" fill="currentColor"/>
</svg>
