<svg viewBox="0 0 22 22" xmlns="http://www.w3.org/2000/svg">
 <defs>
  <style id="current-color-scheme" type="text/css">
   .ColorScheme-Text { color:#2e3440; } .ColorScheme-Highlight { color:#88c0d0; } .ColorScheme-NeutralText { color:#d08770; } .ColorScheme-PositiveText { color:#a3be8c; } .ColorScheme-NegativeText { color:#bf616a; }
  </style>
 </defs>
 <path class="ColorScheme-Text" d="m14 3-5.2637 7.1777a4.5 4.5 0 0 1 0.44922 0.15625c-0.52131-0.21113-1.0885-0.33398-1.6855-0.33398-1.193 0.0012-2.3367 0.47612-3.1797 1.3203a4.5 4.5 0 0 0-0.62695 0.78711l2.0938 2.0938-1.3965 1.9043a3.5 3.5 0 0 0 1.5059 1.502l1.9023-1.3945 2.0957 2.0957a4.5 4.5 0 0 0 0.78516-0.62891c0.84419-0.84298 1.3191-1.9867 1.3203-3.1797 1e-6 -0.58121-0.11969-1.1326-0.32031-1.6426a4.5 4.5 0 0 1 0.14453 0.4043l7.1758-5.2617-5-5zm-8.0859 0.085938-2.8281 2.8301 3.6719 3.6699 2.8281-2.8281-3.6719-3.6719zm8.2031 1.4453 3.3516 3.3516-6.041 4.4316a4.5 4.5 0 0 1 0.17188 0.34766c-0.44826-0.99786-1.2469-1.799-2.2422-2.252a4.5 4.5 0 0 1 0.33203 0.16016l4.4277-6.0391zm-6.6172 6.4688c1.933 0 3.5 1.567 3.5 3.5-0.0012 0.92781-0.3707 1.8172-1.0273 2.4727l-4.9453-4.9453c0.65547-0.65665 1.5448-1.0262 2.4727-1.0273zm7.7422 1.4141-2.8281 2.8301 3.6719 3.6719 2.8281-2.8301-3.6719-3.6719zm-11.494 4.5664-0.74805 1.0195 1 1 1.0195-0.74805a4.5 4.5 0 0 1-1.2715-1.2715z" fill="currentColor"/>
</svg>
