<svg viewBox="0 0 22 22" xmlns="http://www.w3.org/2000/svg">
 <defs>
  <style id="current-color-scheme" type="text/css">
   .ColorScheme-Text { color:#2e3440; } .ColorScheme-Highlight { color:#88c0d0; } .ColorScheme-NeutralText { color:#d08770; } .ColorScheme-PositiveText { color:#a3be8c; } .ColorScheme-NegativeText { color:#bf616a; }
  </style>
 </defs>
 <path class="ColorScheme-Text" d="m11 3a8 8 0 0 0-8 8 8 8 0 0 0 8 8 8 8 0 0 0 8-8 8 8 0 0 0-8-8zm0 1a7 7 0 0 1 7 7 7 7 0 0 1-7 7 7 7 0 0 1-7-7 7 7 0 0 1 7-7z" fill="currentColor"/>
 <path class="ColorScheme-Text" d="m3.0352 10.264c-0.023027 0.24477-0.034758 0.49048-0.035156 0.73633 0 4.4183 3.5817 8 8 8s8-3.5817 8-8c-0.0018-0.23806-0.014139-0.47593-0.037109-0.71289-0.39444 1.5385-3.8413 2.7128-7.9629 2.7129-4.1442-8.15e-4 -7.6006-1.1883-7.9648-2.7363z" fill="currentColor" fill-opacity=".5"/>
</svg>
