<svg viewBox="0 0 22 22" xmlns="http://www.w3.org/2000/svg">
 <defs>
  <style id="current-color-scheme" type="text/css">
   .ColorScheme-Text { color:#2e3440; } .ColorScheme-Highlight { color:#88c0d0; } .ColorScheme-NeutralText { color:#d08770; } .ColorScheme-PositiveText { color:#a3be8c; } .ColorScheme-NegativeText { color:#bf616a; }
  </style>
 </defs>
 <path class="ColorScheme-Text" d="m6 3a5 5 0 0 0-5 5v6a5 5 0 0 0 5 5 5 5 0 0 0 5-5v-6a5 5 0 0 0-5-5zm0 1a4 4 0 0 1 4 4v6a4 4 0 0 1-4 4 4 4 0 0 1-4-4v-6a4 4 0 0 1 4-4zm13 3v1h1v-1h-1zm-7 3v9h1v-6a2 2 0 0 1 2-2 2 2 0 0 1 2 2h1a3 3 0 0 0-3-3 3 3 0 0 0-2 0.76758v-0.76758h-1zm7 0v9h1v-9h-1z" fill="currentColor"/>
</svg>
