<svg viewBox="0 0 22 22" xmlns="http://www.w3.org/2000/svg">
 <defs>
  <style id="current-color-scheme" type="text/css">
   .ColorScheme-Text { color:#2e3440; } .ColorScheme-Highlight { color:#88c0d0; } .ColorScheme-NeutralText { color:#d08770; } .ColorScheme-PositiveText { color:#a3be8c; } .ColorScheme-NegativeText { color:#bf616a; }
  </style>
 </defs>
 <path class="ColorScheme-Text" d="m9 4.998c-3.866 0-7 2.6779-7 5.9824 0 3.3046 2.134 5.7656 6 5.7656-3.2217 0-4.834-3.0117-4.834-5.7656-2.56e-5 -2.7539 2.6123-4.9863 5.834-4.9863 1.4561 0 2.7709 0.47246 3.793 1.2266a5 3.9165 0 0 0-1.793-0.26562 5 3.9165 0 0 0-5 3.918v0.009765a5 3.9165 0 0 0 0.019531 0.31641c0.19295 3.2303 3.239 5.8008 6.9805 5.8008 3.866 0 7-2.7418 7-6.123 0-3.3813-2.134-5.877-6-5.877 3.2217 0 4.834 3.0573 4.834 5.875 2.6e-5 2.8177-2.6123 5.1016-5.834 5.1016-1.6725 0-3.1766-0.61917-4.2402-1.6055a5 3.9165 0 0 0 2.2402 0.41797 5 3.9165 0 0 0 4.9922-3.8086h0.007812c0-0.019-0.003706-0.037641-0.003906-0.056641a5 3.9165 0 0 0 0.003906-0.050781 5 3.9165 0 0 0-0.03125-0.40039c-0.30259-3.066-3.3036-5.4746-6.9688-5.4746z" fill="currentColor"/>
</svg>
