<svg viewBox="0 0 22 22" xmlns="http://www.w3.org/2000/svg">
 <defs>
  <style id="current-color-scheme" type="text/css">
   .ColorScheme-Text { color:#2e3440; } .ColorScheme-Highlight { color:#88c0d0; } .ColorScheme-NeutralText { color:#d08770; } .ColorScheme-PositiveText { color:#a3be8c; } .ColorScheme-NegativeText { color:#bf616a; }
  </style>
 </defs>
 <path class="ColorScheme-Text" d="m11 3a7 6 0 0 0-0.91992 0.058594 7 6 0 0 0-0.16211 0.017578c-0.0014173 0.001164-0.0024902 0.0027407-0.0039063 0.0039062a7 6 0 0 0-5.9141 5.9199 7 3 0 0 0 0.011719 0.09375 7 2 0 0 1-0.011719-0.09375v8a7 2 0 0 0 7 2 7 2 0 0 0 7-2v-8a7 6 0 0 0-4.3164-5.5352c7.87e-4 -0.0011291 0.001166-0.0027777 0.001953-0.0039063a7 6 0 0 0-0.054688-0.017578 7 6 0 0 0-0.39062-0.11914 7 6 0 0 0-0.28125-0.080078 7 6 0 0 0-0.38086-0.082031 7 6 0 0 0-0.30273-0.058594 7 6 0 0 0-0.37109-0.044922 7 6 0 0 0-0.32812-0.035156 7 6 0 0 0-0.57617-0.023438zm2.1152 1.3262a6 5 0 0 1 3.8848 4.6738 6 2 0 0 1-6 2 6 2 0 0 1-6-2 6 5 0 0 1 3.752-4.6328c-1.0237 1.4859-1.5613 3.4269-1.7109 5.1328a6 2 0 0 0 3.959 0.5c0.29858-2.4953 1.1928-4.2446 2.1152-5.6738zm-8.1152 6.2109a7 3 0 0 0 6 1.4629 7 3 0 0 0 6-1.4609v6.4609a6 1 0 0 1-6 1 6 1 0 0 1-6-1v-6.4629z" fill="currentColor"/>
</svg>
