<svg viewBox="0 0 22 22" xmlns="http://www.w3.org/2000/svg">
 <defs>
  <style id="current-color-scheme" type="text/css">
   .ColorScheme-Text { color:#2e3440; } .ColorScheme-Highlight { color:#88c0d0; } .ColorScheme-NeutralText { color:#d08770; } .ColorScheme-PositiveText { color:#a3be8c; } .ColorScheme-NegativeText { color:#bf616a; }
  </style>
 </defs>
 <path class="ColorScheme-Text" d="m3 3v2a14 14 0 0 1 12.633 8h2.1875a16 16 0 0 0-14.82-10zm0 4v2a10 10 0 0 1 8 4.0293v-0.029297h2.3809a12 12 0 0 0-10.381-6zm0 4v2a6 6 0 0 1 6 6h2a8 8 0 0 0-8-8zm13 3v2h-2v1h2v2h1v-2h2v-1h-2v-2h-1zm-11.5 2a1.5 1.5 0 0 0-1.5 1.5 1.5 1.5 0 0 0 1.5 1.5 1.5 1.5 0 0 0 1.5-1.5 1.5 1.5 0 0 0-1.5-1.5z" fill="currentColor"/>
</svg>
