<svg viewBox="0 0 22 22" xmlns="http://www.w3.org/2000/svg">
 <defs>
  <style id="current-color-scheme" type="text/css">
   .ColorScheme-Text { color:#2e3440; } .ColorScheme-Highlight { color:#88c0d0; } .ColorScheme-NeutralText { color:#d08770; } .ColorScheme-PositiveText { color:#a3be8c; } .ColorScheme-NegativeText { color:#bf616a; }
  </style>
 </defs>
 <path class="ColorScheme-Text" d="m3 3v4h1v-3h3v-1h-4zm7 0v3h-4v7h-3v1h7v5h1v-5h8v-1h-3v-7h-5v-3h-1zm5 0v1h3v3h1v-4h-4zm-8 4h3v6h-3v-6zm4 0h4v6h-4v-6zm-8 8v4h4v-1h-3v-3h-1zm15 0v3h-3v1h4v-4h-1z" fill="currentColor"/>
 <path class="ColorScheme-Highlight" d="m11 5c-0.90442 0-1.6369 0.60348-2.2305 1.3652-0.59353 0.76175-1.0839 1.7305-1.4883 2.6914-0.80875 1.9218-1.2676 3.8262-1.2676 3.8262l0.97266 0.23438s0.4474-1.8456 1.2168-3.6738c0.3847-0.91412 0.85135-1.8203 1.3535-2.4648 0.50014-0.6419 0.99949-0.97192 1.4375-0.97461 0.4208 0.01378 0.78298 0.18499 1.1562 0.54297 0.37582 0.36043 0.73988 0.90814 1.0762 1.5879 0.64362 1.3009 1.1844 3.0722 1.7227 4.8652h1.0469c-0.0052-0.0174-0.01041-0.03338-0.01563-0.05078-0.56214-1.8747-1.1232-3.7737-1.8574-5.2578-0.36712-0.74205-0.77746-1.384-1.2812-1.8672-0.50378-0.48315-1.1264-0.80494-1.8281-0.82422h-0.0059z" fill="currentColor"/>
</svg>
