<svg viewBox="0 0 22 22" xmlns="http://www.w3.org/2000/svg">
 <defs>
  <style id="current-color-scheme" type="text/css">
   .ColorScheme-Text { color:#2e3440; } .ColorScheme-Highlight { color:#88c0d0; } .ColorScheme-NeutralText { color:#d08770; } .ColorScheme-PositiveText { color:#a3be8c; } .ColorScheme-NegativeText { color:#bf616a; }
  </style>
 </defs>
 <path class="ColorScheme-Text" d="m3 3v16h17v-16h-17zm1 1h13.719l-2.5938 2.5938-2.125-2.125-2 2-0.84375 0.8125-1.6875 1.7188h-4.4688v-5zm15 0.125v13.719l-1.0312-1.0312-0.84375-0.8125-1.2812-1.3125-0.71875-0.6875-2.125 2.0938-1.3125-1.2812-2.8125-2.8125h-4.875v-2h4.875l2-2 0.8125-0.84375 1.3125-1.2812 2.125 2.125 3.875-3.875zm-15 8.875h4.4688l4.5312 4.5312 2.125-2.125 1.3125 1.2812 0.5 0.53125 0.78125 0.78125h-13.719v-5z" fill="currentColor"/>
</svg>
