<svg viewBox="0 0 22 22" xmlns="http://www.w3.org/2000/svg">
 <defs>
  <style id="current-color-scheme" type="text/css">
   .ColorScheme-Text { color:#2e3440; } .ColorScheme-Highlight { color:#88c0d0; } .ColorScheme-NeutralText { color:#d08770; } .ColorScheme-PositiveText { color:#a3be8c; } .ColorScheme-NegativeText { color:#bf616a; }
  </style>
 </defs>
 <path class="ColorScheme-Text" d="m3 3v2h1v-1h1v-1h-2zm4 0v1h1v1h1v-2h-2zm5 0v1h6v6h1v-7h-7zm-9 4v2h2v-1h-1v-1h-1zm5 0v1h-1v1h2v-2h-1zm-5 5v7h7v-1h-6v-6h-1zm11.998 0.42969v4.6562l-1.6211-1.6211-0.70703 0.70703 2.8281 2.8281 2.8301-2.8281-0.70703-0.70703-1.623 1.6211v-4.6562h-1z" fill="currentColor"/>
</svg>
