<svg viewBox="0 0 22 22" xmlns="http://www.w3.org/2000/svg">
 <defs>
  <style id="current-color-scheme" type="text/css">
   .ColorScheme-Text { color:#2e3440; } .ColorScheme-Highlight { color:#88c0d0; } .ColorScheme-NeutralText { color:#d08770; } .ColorScheme-PositiveText { color:#a3be8c; } .ColorScheme-NegativeText { color:#bf616a; }
  </style>
 </defs>
 <path class="ColorScheme-Text" d="m3 3v16h3v-1h-2v-14h2v-1h-2zm13 0v1h2v8h1v-9h-1zm0 11v2h-2v1h2v2h1v-2h2v-1h-2v-2z" fill="currentColor"/>
 <path class="ColorScheme-Highlight" d="m5 5v5h5v-5zm7 0v5h5v-5zm-6 1h3v3h-3zm7 0h3v3h-3zm-8 6v5h5v-5zm7 0v3h1v-2h2v-1zm-6 1h3v3h-3z" fill="currentColor"/>
</svg>
