<svg viewBox="0 0 22 22" xmlns="http://www.w3.org/2000/svg">
 <defs>
  <style id="current-color-scheme" type="text/css">
   .ColorScheme-Text { color:#2e3440; } .ColorScheme-Highlight { color:#88c0d0; } .ColorScheme-NeutralText { color:#d08770; } .ColorScheme-PositiveText { color:#a3be8c; } .ColorScheme-NegativeText { color:#bf616a; }
  </style>
 </defs>
 <path class="ColorScheme-Text" d="m3 2v17.99996h1v-7.709c0.11298 0.084944 0.22783 0.15702 0.33984 0.25586 0.74338 0.65593 1.4476 1.5664 2.1309 2.498 0.68323 0.93168 1.3438 1.8829 2.0566 2.6289 0.71289 0.74605 1.5143 1.3262 2.4727 1.3262 0.95833 0 1.7578-0.58012 2.4707-1.3262s1.3734-1.6972 2.0566-2.6289c0.68323-0.93167 1.3875-1.8421 2.1309-2.498 0.74338-0.65592 1.498-1.0469 2.3418-1.0469v-1c-0.84375 0-1.5984-0.39096-2.3418-1.0469-0.74339-0.65593-1.4476-1.5664-2.1309-2.498-0.68323-0.93168-1.3438-1.8829-2.0566-2.6289s-1.5124-1.3262-2.4707-1.3262c-0.95834 0-1.7598 0.58012-2.4727 1.3262-0.71289 0.74605-1.3734 1.6972-2.0566 2.6289-0.68323 0.93167-1.3875 1.8421-2.1309 2.498-0.11253 0.099288-0.22645 0.17257-0.33984 0.25781v-7.7109h-1zm8 2c0.54166 0 1.1152 0.35738 1.7461 1.0176s1.2828 1.584 1.9746 2.5273c0.20098 0.27406 0.41712 0.54258 0.62695 0.81445-0.16067 0.095303-0.29955 0.22514-0.41016 0.36719-0.2287 0.29372-0.40284 0.65775-0.56641 1.0801-0.080218 0.20712-0.14747 0.46151-0.2207 0.69336h-2.584c-0.29838-1.589-0.58902-3.1806-0.84961-4.3828-0.13378-0.61718-0.25987-1.1324-0.38086-1.5156-0.044076-0.13959-0.090232-0.24696-0.13867-0.35742 0.27684-0.15746 0.54372-0.24414 0.80273-0.24414zm-1.5723 1.0859c0.0935 0.32036 0.19643 0.71766 0.31055 1.2441 0.24384 1.1249 0.52502 2.6481 0.81055 4.1699h-2.332c0.108-0.50529 0.21002-1.0249 0.30664-1.5469 0.2179-1.177 0.42292-2.3401 0.65039-3.1719 0.0845-0.30907 0.16983-0.504 0.25391-0.69531zm-1.4688 1.5352c-0.14271 0.68109-0.27956 1.4027-0.41797 2.1504-0.10941 0.59104-0.22385 1.1791-0.3457 1.7285h-1.5918c-0.008318-0.020297-0.0149-0.044576-0.023438-0.064453-0.0792-0.18443-0.16406-0.35108-0.29688-0.50586 0.73067-0.70537 1.3812-1.5489 1.9941-2.3848 0.23326-0.31809 0.45671-0.61954 0.68164-0.92383zm7.8984 2.5918c0.0485 0.0375 0.10999 0.088702 0.19531 0.16992 0.20261 0.19295 0.47294 0.47831 0.7793 0.77734 0.11526 0.1125 0.2422 0.22656 0.36719 0.33984h-2.002c0.035738-0.10375 0.068905-0.23762 0.10547-0.33203 0.14399-0.37178 0.29773-0.66617 0.42383-0.82813 0.10467-0.13444 0.12475-0.12483 0.13086-0.12695zm-11.238 2.2871h0.25c0.026502 0.094647 0.05393 0.15873 0.080078 0.25586-0.10619-0.092044-0.21893-0.17254-0.33008-0.25586zm1.3008 0h1.0117c-0.041532 0.14646-0.077344 0.32677-0.12109 0.45898-0.14055 0.42475-0.29624 0.76821-0.43945 0.97656-0.0248 0.036-0.027028 0.016269-0.048828 0.042969-0.0115-0.0344-0.01965-0.047938-0.03125-0.085938-0.0984-0.3207-0.20402-0.76118-0.31836-1.2031-0.016569-0.064045-0.035834-0.12559-0.052734-0.18945zm2.0449 0h2.7773c0.26407 1.3911 0.53017 2.7552 0.78711 3.8203 0.15027 0.62292 0.29603 1.1456 0.44531 1.541 0.0746 0.19773 0.14701 0.36319 0.24609 0.51367 0.011479 0.01743 0.033867 0.037743 0.046875 0.056641-0.44678 0.37032-0.86618 0.56836-1.2676 0.56836-0.54167 0-1.1172-0.35738-1.748-1.0176s-1.2828-1.584-1.9746-2.5273c-0.13971-0.19052-0.29183-0.37609-0.43555-0.56641 0.13438-0.11236 0.25446-0.24261 0.35352-0.38672 0.23292-0.33887 0.40727-0.75546 0.56445-1.2305 0.077036-0.2328 0.13698-0.51346 0.20508-0.77148zm3.7949 0h2.0957c-0.10968 0.42816-0.21625 0.86431-0.31445 1.3086-0.2383 1.0781-0.44886 2.1543-0.64062 2.9453-0.0375 0.15448-0.067596 0.22944-0.10352 0.35938-0.0946-0.29874-0.18981-0.5916-0.29492-1.0273-0.23733-0.98386-0.49052-2.267-0.74219-3.5859zm3.125 0h2.4883c-0.12829 0.094591-0.25611 0.19025-0.37695 0.29688-0.85037 0.75033-1.5836 1.7149-2.2754 2.6582-0.24962 0.3404-0.48838 0.66443-0.72852 0.98828 0.16695-0.74286 0.33393-1.5518 0.52539-2.418 0.11554-0.52269 0.23841-1.0429 0.36719-1.5254z" fill="currentColor"/>
</svg>
