<svg viewBox="0 0 22 22" xmlns="http://www.w3.org/2000/svg">
 <defs>
  <style id="current-color-scheme" type="text/css">
   .ColorScheme-Text { color:#2e3440; } .ColorScheme-Highlight { color:#88c0d0; } .ColorScheme-NeutralText { color:#d08770; } .ColorScheme-PositiveText { color:#a3be8c; } .ColorScheme-NegativeText { color:#bf616a; }
  </style>
 </defs>
 <path class="ColorScheme-Text" d="m11.096 7c-2.2091 1e-7 -4 1.7909-4 4s1.7909 4 4 4 4-1.7909 4-4c-0.0014-2.0748-1.5891-3.8041-3.6562-3.9824-0.43945-0.017578-0.34375-0.017578-0.34375-0.017578zm0 1c1.6569 0 3 1.3431 3 3s-1.3431 3-3 3-3-1.3431-3-3 1.3431-3 3-3zm0 1c-1.108 0-2 0.892-2 2s0.892 2 2 2 2-0.892 2-2c0-0.20481-0.039023-0.3982-0.095703-0.58398-0.15789 0.34372-0.49998 0.58398-0.9043 0.58398-0.554 0-1-0.446-1-1 0-0.40432 0.24027-0.74642 0.58398-0.9043-0.18578-0.056686-0.37918-0.095703-0.58398-0.095703z" fill="currentColor"/>
 <path class="ColorScheme-Highlight" d="m11 4a7 7 0 0 0-7 7 7 7 0 0 0 7 7 7 7 0 0 0 7-7 7 7 0 0 0-7-7zm0 1a6 6 0 0 1 6 6 6 6 0 0 1-6 6 6 6 0 0 1-6-6 6 6 0 0 1 6-6z" fill="currentColor"/>
</svg>
