<svg viewBox="0 0 22 22" xmlns="http://www.w3.org/2000/svg">
 <defs>
  <style id="current-color-scheme" type="text/css">
   .ColorScheme-Text { color:#2e3440; } .ColorScheme-Highlight { color:#88c0d0; } .ColorScheme-NeutralText { color:#d08770; } .ColorScheme-PositiveText { color:#a3be8c; } .ColorScheme-NegativeText { color:#bf616a; }
  </style>
 </defs>
 <path class="ColorScheme-Text" d="m11 3c-4.4183 0-8 3.5817-8 8 0 2.0276 0.75669 3.8713 2 5.2812 0.20803 0.26724 0.49881 0.5051 0.71875 0.71875 1.4099 1.2433 3.2536 2 5.2812 2 4.4183 0 8-3.5817 8-8 0-2.0276-0.75669-3.8713-2-5.2812-0.11136-0.12621-0.22478-0.25603-0.34375-0.375l-0.375-0.34375c-1.4099-1.2433-3.2536-2-5.2812-2zm4.9492 3.0508c0.69736 0.70031 1.2385 1.5403 1.5879 2.4648 9.7e-4 2e-3 0.002907 0.0028594 0.003907 0.0058594 0.0066 0.019502 0.013111 0.039034 0.019531 0.058594 0.28387 0.68484 0.35774 1.3831 0.42383 2.0957 5e-3 0.10821 0.013672 0.21462 0.013672 0.32422v0.042969c-0.06847 3.5453-2.5928 6.1807-5.9531 6.8711-0.12834 0.019201-0.25621 0.040535-0.38672 0.052735-0.13585 0.01048-0.27197 0.017001-0.4082 0.019531-0.083694 3e-3 -0.16557 0.013672-0.25 0.013672-0.0149 0-0.030022-0.003906-0.044922-0.003906-0.82235 0.01319-1.5968-0.19272-2.3574-0.43164-0.0456-0.017-0.091599-0.032781-0.13672-0.050781-0.1708-0.06694-0.33889-0.14056-0.50391-0.2207-0.70609-0.33817-1.3504-0.79239-1.9062-1.3438l9.8984-9.8984z" fill="currentColor"/>
</svg>
