<svg viewBox="0 0 22 22" xmlns="http://www.w3.org/2000/svg">
 <defs>
  <style id="current-color-scheme" type="text/css">
   .ColorScheme-Text { color:#2e3440; } .ColorScheme-Highlight { color:#88c0d0; } .ColorScheme-NeutralText { color:#d08770; } .ColorScheme-PositiveText { color:#a3be8c; } .ColorScheme-NegativeText { color:#bf616a; }
  </style>
 </defs>
 <path class="ColorScheme-Text" d="m3 3v4h4v-4h-4zm5 0v1h12v-1h-12zm0 3v1h7v-1h-7zm-5 3v4h4v-4h-4zm5 0v1h12v-1h-12zm0 3v1h4v-1h-4zm11.293 0.61328-4.5918 4.5918-1.1465-1.1465-0.70703 0.70703 1.8457 1.8477 0.00586-0.007812 0.007812 0.007812 5.293-5.293-0.70703-0.70703zm-16.293 2.3867v4h4v-4h-4z" fill="currentColor"/>
</svg>
