<svg viewBox="0 0 22 22" xmlns="http://www.w3.org/2000/svg">
 <defs>
  <style type="text/css">.ColorScheme-Text {
        color:#2e3440;
      }</style>
 </defs>
 <path class="ColorScheme-Text" d="m1 3v1 8 6 0.41406 0.58594h1 6 6v-1h-6-6v-0.58594l6.7305-6.7305 1.4531 1.4512 0.81445 0.81445h0.001953l0.81641-0.81445 1.4531-1.4512 1.3164 1.3164h1.4141l-2.0234-2.0234 5.752-5.7539 0.22266-0.22266h0.048828v0.22266 7.7773h1v-9h-0.048828-0.95117-0.46289-17.074-0.46289-1zm1 1h0.048828l0.22266 0.22266 5.752 5.7539-6.0234 6.0234v-4-7.7773-0.22266zm1.4629 0h15.074l-7.5371 7.5371-7.5371-7.5371zm11.537 9v6h1v-2l2-1v2l4-2-4-1v-1l-2-1h-1z" fill="currentColor"/>
</svg>
