<svg viewBox="0 0 22 22" xmlns="http://www.w3.org/2000/svg">
 <defs>
  <style type="text/css">.ColorScheme-Text {
        color:#2e3440;
      }</style>
 </defs>
 <path class="ColorScheme-Text" d="m3 3v1 1 1l-2 3v1 1.4004 0.59961 1h1v-1-1-0.59961-0.40039h0.40039 0.59961 1.0781l6.9219 3.9961 6.9219-3.9961h0.078125 1 1v0.40039 0.59961 1h1v-0.59961-1.4141-0.98633l-2-3v-3h-15-1zm1 1h14v1 3.7988l-7 4.041-7-4.041v-3.7988-1zm1 1v0.98633l-0.013672 0.013672h0.013672 12 0.013672l-0.013672-0.013672v-0.98633h-12zm0 2v1h7v-1h-7zm12.707 5-0.70703 0.70703 2.293 2.293h-4.293v1h4.293l-2.293 2.293 0.70703 0.70703 3.5-3.5-3.5-3.5zm-13.707 1-3 3 3 3v-2h1 1v-2h-1-1v-2zm3 5v1h1 6v-1h-7z" fill="currentColor"/>
</svg>
