<svg viewBox="0 0 22 22" xmlns="http://www.w3.org/2000/svg">
 <defs>
  <style id="current-color-scheme" type="text/css">
   .ColorScheme-Text { color:#2e3440; } .ColorScheme-Highlight { color:#88c0d0; } .ColorScheme-NeutralText { color:#d08770; } .ColorScheme-PositiveText { color:#a3be8c; } .ColorScheme-NegativeText { color:#bf616a; }
  </style>
 </defs>
 <path class="ColorScheme-Text" d="m3 3v16h16v-16h-16zm1 1h4v4h-4v-4zm5 0h4v4h-4v-4zm5 0h4v4h-4v-4zm-10 5h4v4h-4v-4zm5 0h4v4h-4v-4zm5 0h4v4h-4v-4zm-10 5h4v4h-4v-4zm5 0h4v4h-4v-4zm5 0h4v4h-4v-4z" fill="currentColor"/>
</svg>
