<svg viewBox="0 0 22 22" xmlns="http://www.w3.org/2000/svg">
 <defs>
  <style id="current-color-scheme" type="text/css">
   .ColorScheme-Text { color:#2e3440; } .ColorScheme-Highlight { color:#88c0d0; } .ColorScheme-NeutralText { color:#d08770; } .ColorScheme-PositiveText { color:#a3be8c; } .ColorScheme-NegativeText { color:#bf616a; }
  </style>
 </defs>
 <path class="ColorScheme-Text" d="m2 3v16h5v-2c-0.55228 0-1 0.44772-1 1h-1v-14h1c0 0.55228 0.44772 1 1 1s1-0.44772 1-1h8c0 0.55228 0.44772 1 1 1s1-0.44772 1-1h1v7h1v-8h-18zm17 8c0-3.866-3.134-7-7-7s-7 3.134-7 7c0.0020604 1.8549 0.7493 3.584 2 4.8672v-1.5801c-0.63385-0.96212-0.99867-2.0956-1-3.2871 0-3.3137 2.6863-6 6-6s6 2.6863 6 6h1zm-16-7h1v14h-1v-14zm14 7v1h-1.023438c-1.649 0-2.9766 1.3276-2.9766 2.9766v0.023438c0 1.108-0.892 2-2 2h-3v1h3.023438c1.649 0 2.9766-1.3276 2.9766-2.9766v-0.023438c0-1.108 0.892-2 2-2h1v1l2-1.5-2-1.5zm-9 1v1h3c0.3989 0 0.76676 0.11868 1.0781 0.31836 0.07572-0.33686 0.20988-0.64922 0.38867-0.93164-0.42888-0.23891-0.91569-0.38672-1.4434-0.38672h-3.023438zm9 4v1h-1c-0.3989 0-0.76676-0.11868-1.0781-0.31836-0.075723 0.33686-0.20988 0.64922-0.38867 0.93164 0.42887 0.23891 0.91569 0.38672 1.4434 0.38672h1.023438v1l2-1.5-2-1.5z" fill="currentColor"/>
</svg>
