<svg viewBox="0 0 22 22" xmlns="http://www.w3.org/2000/svg">
 <defs>
  <style id="current-color-scheme" type="text/css">
   .ColorScheme-Text { color:#2e3440; } .ColorScheme-Highlight { color:#88c0d0; } .ColorScheme-NeutralText { color:#d08770; } .ColorScheme-PositiveText { color:#a3be8c; } .ColorScheme-NegativeText { color:#bf616a; }
  </style>
 </defs>
 <path class="ColorScheme-Text" d="m3 3v1h7v-1h-7zm9 0v1h7v-1h-7zm-9 3v1h7v-1h-7zm9 0v1h7v-1h-7zm-9 3v1h7v-1h-7zm9 0v1h7v-1h-7zm-9 4v1h7v-1h-7zm8 0v1h2.0098c0.26651 4.6e-4 0.52808 0.071901 0.75781 0.20703 0.12643-0.31354 0.30265-0.59764 0.50977-0.85938-0.38395-0.22687-0.82161-0.34691-1.2676-0.34766h-2.0098zm7.0098 3v1h-1c-0.26651-4.6e-4 -0.52808-0.071901-0.75781-0.20703-0.12643 0.31354-0.30265 0.59764-0.50976 0.85938 0.38395 0.22687 0.82161 0.34691 1.2676 0.34766h1v1l2-1.5-2-1.5zm-15.01 1v1h7v-1h-7z" fill="currentColor"/>
 <path class="ColorScheme-Highlight" d="m18.01 12v1h-1c-1.3807-1e-5 -2.5 1.1193-2.5 2.5 0 0.82843-0.67157 1.5-1.5 1.5h-2.0312v1h2.0312c1.3807 1e-5 2.5-1.1193 2.5-2.5 0-0.82843 0.67157-1.5 1.5-1.5h1v1l2-1.5-2-1.5z" fill="currentColor"/>
</svg>
