<svg viewBox="0 0 22 22" xmlns="http://www.w3.org/2000/svg">
 <defs>
  <style id="current-color-scheme" type="text/css">
   .ColorScheme-Text { color:#2e3440; } .ColorScheme-Highlight { color:#88c0d0; } .ColorScheme-NeutralText { color:#d08770; } .ColorScheme-PositiveText { color:#a3be8c; } .ColorScheme-NegativeText { color:#bf616a; }
  </style>
 </defs>
 <path class="ColorScheme-Text" d="m4 3v14h-1v1h1v1h1v-1h7v-1h-7v-14h-1zm6.5 0c-0.97222 0-1.88 0.34094-2.5195 0.98047-0.63953 0.63953-0.98047 1.5473-0.98047 2.5195h2c0-0.52778 0.15907-0.87 0.39453-1.1055 0.23547-0.23547 0.57769-0.39453 1.1055-0.39453s0.87 0.15906 1.1055 0.39453 0.39453 0.57769 0.39453 1.1055c0 0.45834-0.090397 0.65332-0.21094 0.82617-0.52127 0.52591-1.1517 0.97555-1.6582 1.4062-0.57167 0.42923-1.1309 0.99196-1.1309 1.7676v0.5h2v-0.5c0.71082-0.72766 1.7703-1.3622 2.4297-2.0293 0.34816-0.49903 0.57031-1.179 0.57031-1.9707 0-0.97222-0.34093-1.88-0.98047-2.5195-0.63953-0.63953-1.5473-0.98047-2.5195-0.98047zm6.5 0v9h1v-9h-1zm-1.293 9-0.70703 0.70703 2.293 2.293h-4.293v1h4.293l-2.293 2.293 0.70703 0.70703 3.5-3.5-3.5-3.5zm-6.707 1v2h2v-2h-2z" fill="currentColor"/>
</svg>
