<svg viewBox="0 0 22 22" xmlns="http://www.w3.org/2000/svg">
 <defs>
  <style type="text/css">.ColorScheme-Text {
        color:#2e3440;
      }
      .ColorScheme-Highlight {
        color:#88c0d0;
      }</style>
 </defs>
 <path class="ColorScheme-Text" d="m3 3v1 1 1h3v-3h-1-2zm13 0v3h1 2v-2-1h-2-1zm-12 1h1v1h-1v-1zm13 0h1v1h-1v-1zm-10 1v1h2v-1h-2zm3 0v1h2v-1h-2zm3 0v1h2v-1h-2zm-8 2v2h1v-2h-1zm11 0v2h1v-2h-1zm-11 3v2h1v-2h-1zm11 0v2h1v-2h-1zm-11 3v2h1v-2h-1zm-2 3v1 1 1h1 1 1v-2-1h-1-1-1zm4 0v1h2v-1h-2zm3 0v1h2v-1h-2zm-6 1h1v1h-1v-1z" fill="currentColor"/>
 <path class="ColorScheme-Highlight" d="m13 13v1 1h1v-1h1v-1h-2zm4 0v1h1v1h1v-2h-1-1zm-4 4v2h1 1v-1h-1v-1h-1zm5 0v1h-1v1h2v-1-1h-1z" fill="currentColor"/>
</svg>
