<svg viewBox="0 0 22 22" xmlns="http://www.w3.org/2000/svg">
 <defs>
  <style id="current-color-scheme" type="text/css">
   .ColorScheme-Text { color:#2e3440; } .ColorScheme-Highlight { color:#88c0d0; } .ColorScheme-NeutralText { color:#d08770; } .ColorScheme-PositiveText { color:#a3be8c; } .ColorScheme-NegativeText { color:#bf616a; }
  </style>
 </defs>
 <path class="ColorScheme-Text" d="m1 2a10 15 0 0 0 9 14.91v-1.00391a9 14 0 0 1-8-13.906h-1zm19 0a9 14 0 0 1-8 13.896v1.0293a10 15 0 0 0 9-14.926h-1zm-19 13v3h3v-1h1v-1h-1v-1h-3zm17 0v1h-1v1h1v1h3v-3h-3zm-16 1h1v1h-1v-1zm4 0v1h1v-1h-1zm9 0v1h1v-1h-1zm4 0h1v1h-1v-1z" fill="currentColor"/>
 <path class="ColorScheme-Highlight" d="m11 13-3 5h6l-3-5zm0 2 1 2h-2l1-2z" fill="currentColor"/>
</svg>
