<svg viewBox="0 0 22 22" xmlns="http://www.w3.org/2000/svg">
 <defs>
  <style id="current-color-scheme" type="text/css">
   .ColorScheme-Text { color:#2e3440; } .ColorScheme-Highlight { color:#88c0d0; } .ColorScheme-NeutralText { color:#d08770; } .ColorScheme-PositiveText { color:#a3be8c; } .ColorScheme-NegativeText { color:#bf616a; }
  </style>
 </defs>
 <path class="ColorScheme-Text" d="m1 2a10 15 0 0 0 8 14.68v-1.043a9 14 0 0 1-7-13.637h-1zm19 0a9 14 0 0 1-7 13.633v1.0625a10 15 0 0 0 8-14.695h-1zm-17 13v3h3v-1h1v-1h-1v-1h-3zm15 0v1h-1v1h1v1h3v-3h-3zm-14 1h1v1h-1v-1zm11 0v1h1v-1h-1zm4 0h1v1h-1v-1z" fill="currentColor"/>
 <path class="ColorScheme-Highlight" d="m8.5 14v5h5v-5h-5zm1 1h3v3h-3v-3z" fill="currentColor"/>
</svg>
