<svg width="22" height="22" xmlns="http://www.w3.org/2000/svg">
 <style type="text/css">.ColorScheme-Text {
            color:#2e3440;
        }</style>
 <path class="ColorScheme-Text" d="m10.27 17a2 2 0 0 0-0.26953 1 2 2 0 0 0 2 2 2 2 0 0 0 2-2 2 2 0 0 0-0.27148-1zm1.7305-13a1 1 0 0 0-1 1 1 1 0 0 0 0.0098 0.12891 4 4 0 0 0-3.0098 3.8711c0 3-1 4-3 6v1h14v-1c-2-2-3-3-3-6a4 4 0 0 0-3.0098-3.8711 1 1 0 0 0 0.009766-0.12891 1 1 0 0 0-1-1zm0 2a3 3 0 0 1 3 3c0 3 0.58594 4 2.5859 6h-11.172c2-2 2.5859-3 2.5859-6a3 3 0 0 1 3-3z" fill="currentColor" fill-rule="evenodd"/>
</svg>
