<svg width="22" height="22" xmlns="http://www.w3.org/2000/svg">
 <style type="text/css">.ColorScheme-Text {
            color:#2e3440;
        }
        .ColorScheme-NegativeText {
            color:#bf616a;
        }</style>
 <path d="m4 4.707 15.293 15.293 0.70703-0.70703-15.293-15.293z" fill="#bf616a"/>
 <path class="ColorScheme-Text" d="m12 4a1 1 0 0 0-1 1 1 1 0 0 0 0.009766 0.12891 4 4 0 0 0-2.2402 1.5195l0.7168 0.7168a3 3 0 0 1 2.5137-1.3652 3 3 0 0 1 3 3c0 3 0.58594 4 2.5859 6h-0.46484l1 1h0.87891v-1c-2-2-3-3-3-6a4 4 0 0 0-3.0098-3.8711 1 1 0 0 0 0.009766-0.12891 1 1 0 0 0-1-1zm-4.0527 6.0684c-0.22536 2.2047-1.2061 3.1905-2.9473 4.9316v1h8.8789l-1-1h-6.4648c1.4796-1.4796 2.1822-2.4159 2.4492-4.0156zm2.3223 6.9316a2 2 0 0 0-0.26953 1 2 2 0 0 0 2 2 2 2 0 0 0 2-2 2 2 0 0 0-0.27148-1z" fill="currentColor" fill-rule="evenodd"/>
</svg>
