<svg viewBox="0 0 22 22" xmlns="http://www.w3.org/2000/svg">
 <defs>
  <style id="current-color-scheme" type="text/css">
   .ColorScheme-Text { color:#2e3440; } .ColorScheme-Highlight { color:#88c0d0; } .ColorScheme-NeutralText { color:#d08770; } .ColorScheme-PositiveText { color:#a3be8c; } .ColorScheme-NegativeText { color:#bf616a; }
  </style>
 </defs>
 <path class="ColorScheme-Text" d="m3 3v4h1v-3h3v-1h-4zm12 0v1h3v3h1v-4h-4zm-7.5 2a2.5 2.5 0 0 0-2.5 2.5 2.5 2.5 0 0 0 2.5 2.5 2.5 2.5 0 0 0 2.5-2.5 2.5 2.5 0 0 0-2.5-2.5zm4.5 0v5h5v-5h-5zm-6 7v5h3v-5h-3zm8.5 0-2.5 5h5l-2.5-5zm-11.5 3v4h4v-1h-3v-3h-1zm15 0v3h-3v1h4v-4h-1z" fill="currentColor"/>
</svg>
