<svg viewBox="0 0 22 22" xmlns="http://www.w3.org/2000/svg">
 <defs>
  <style id="current-color-scheme" type="text/css">
   .ColorScheme-Text { color:#2e3440; } .ColorScheme-Highlight { color:#88c0d0; } .ColorScheme-NeutralText { color:#d08770; } .ColorScheme-PositiveText { color:#a3be8c; } .ColorScheme-NegativeText { color:#bf616a; }
  </style>
 </defs>
 <path class="ColorScheme-Text" d="m10 3.0684c-3.9557 0.49006-7 3.8391-7 7.9316s3.0443 7.4416 7 7.9316v-1.0098c-3.3994-0.48382-6-3.3847-6-6.9219s2.6006-6.4381 6-6.9219v-1.0098zm2 0v1.0098c3.3994 0.48382 6 3.3847 6 6.9219s-2.6006 6.4381-6 6.9219v1.0098c3.9557-0.49006 7-3.8391 7-7.9316s-3.0443-7.4416-7-7.9316zm-1 1.9316c-3.324 0-6 2.676-6 6s2.676 6 6 6 6-2.676 6-6c0-0.88178-0.19248-1.716-0.53125-2.4688l-0.78125 0.78125c0.18973 0.52927 0.3125 1.0914 0.3125 1.6875 0 2.77-2.23 5-5 5s-5-2.23-5-5 2.23-5 5-5c1.6416 0 3.0797 0.79514 3.9902 2.0098l0.72266-0.72266c-1.0969-1.3924-2.7948-2.2871-4.7129-2.2871zm0 2c-1.108 0-2.1071 0.44692-2.8301 1.1699l0.70703 0.70703c0.54225-0.54225 1.292-0.87695 2.123-0.87695 1.662 0 3 1.338 3 3s-1.338 3-3 3-3-1.338-3-3c0-0.30185 0.056477-0.58693 0.13867-0.86133l-0.78125-0.78125c-0.22559 0.50157-0.35742 1.0551-0.35742 1.6426 0 2.216 1.784 4 4 4s4-1.784 4-4-1.784-4-4-4z" fill="currentColor"/>
</svg>
