<svg viewBox="0 0 22 22" xmlns="http://www.w3.org/2000/svg">
 <defs>
  <style type="text/css">.ColorScheme-Text {
        color:#2e3440;
      }</style>
 </defs>
 <path class="ColorScheme-Text" d="m4 3v6 1 5 1 1h-1v1h1v1h1v-1h14v-1h-14v-1h0.0078125 0.99219 2v-0.007812l0.0078125 0.007812 2-2h1.5918l2 2h3.5 1.9004v-1h-1.9004-3.0859l-2-2h-0.013672-0.99219-0.4082-1.0059l-2 2h-1.5938-0.99219-0.0078125v-3-1-1h1 1 1.873 0.0019531l4.123-4.123 2.123 2.123 0.005859-0.0039062 0.003906 0.0039062 3.8691-3.8691-0.70703-0.70703-3.166 3.166-2.127-2.125-0.001953 0.0019531-0.001953-0.0019531-1.5273 1.5273h-6.4688v-0.99219-2h-1zm1 3h6.4609l-3 3h-1.4609-1-1v-3z" fill="currentColor"/>
 <path class="ColorScheme-Text" d="m18.934 4.0645 0.066406 0.066406v-0.0039063l-0.066406-0.0625zm0.066406 0.066406-3.8691 3.8691-0.003906-0.0039062-0.005859 0.0039062-2.123-2.123-4.123 4.123h-0.0019531-1.873-1-1v1 1 3h0.0078125 2.5859l2-2h0.40625l2-0.007812 0.007812 0.007812h0.00586l1.9922 1.9922 4.9941 0.007812v-10.869zm-9 9.8691-2 2h-3v1h14v-1h-5.4004l-2-2h-1.5996z" fill="currentColor" fill-opacity=".5"/>
</svg>
