<svg viewBox="0 0 22 22" xmlns="http://www.w3.org/2000/svg">
 <defs>
  <style id="current-color-scheme" type="text/css">
   .ColorScheme-Text { color:#2e3440; } .ColorScheme-Highlight { color:#88c0d0; } .ColorScheme-NeutralText { color:#d08770; } .ColorScheme-PositiveText { color:#a3be8c; } .ColorScheme-NegativeText { color:#bf616a; }
  </style>
 </defs>
 <path class="ColorScheme-Text" d="m4 3v14h-1v1h1v1h1v-1h14.00003v-1h-14.00007v-14.000076h-1zm13 0v1h1v-1h-1zm1 1v1h1v-1h-1zm0 1h-1v1h1v-1zm-1 0v-1h-1v1h1zm-11-1v1h1v-1h-1zm2 0v1h1v-1h-1zm-2 2v1h1v-1h-1zm2 0v1h1v-1h-1zm3 1v1h1v-1h-1zm2 0v1h1v-1h-1zm-2 2v1h1v-1h-1zm2 0v1h1v-1h-1zm-6 4v1h1v-1h-1zm1 1v1h1v-1h-1zm0 1h-1v1h1v-1zm-1 0v-1h-1v1h1z" fill="currentColor"/>
</svg>
