<svg viewBox="0 0 22 22" xmlns="http://www.w3.org/2000/svg">
 <defs>
  <style id="current-color-scheme" type="text/css">
   .ColorScheme-Text { color:#2e3440; } .ColorScheme-Highlight { color:#88c0d0; } .ColorScheme-NeutralText { color:#d08770; } .ColorScheme-PositiveText { color:#a3be8c; } .ColorScheme-NegativeText { color:#bf616a; }
  </style>
 </defs>
 <path class="ColorScheme-Text" d="m8 3c-1.6569 0-3 1.3431-3 3v3h-2v6h10v-6h-2v-3c0-1.6569-1.3431-3-3-3zm0 1c1.1046 0 2 0.89543 2 2v3h-4v-3c0-1.1046 0.89543-2 2-2zm4 2v1h7v7h-4v4h-4v-2h-1v3h6l4-4v-9h-8zm-8 4h8v4h-8v-4z" fill="currentColor"/>
</svg>
