<svg viewBox="0 0 22 22" xmlns="http://www.w3.org/2000/svg">a
 <defs>
  <style id="current-color-scheme" type="text/css">
   .ColorScheme-Text { color:#2e3440; } .ColorScheme-Highlight { color:#88c0d0; } .ColorScheme-NeutralText { color:#d08770; } .ColorScheme-PositiveText { color:#a3be8c; } .ColorScheme-NegativeText { color:#bf616a; }
  </style>
 </defs>
 <g transform="translate(-553.72 -583.12)">
  <path class="ColorScheme-Text" transform="translate(553.72 583.12)" d="m3 4v14h16v-14h-16zm7.9414 1a6 6 0 0 1 6.0586 5.9219v0.078125a6 6 0 0 1-5.9805 6 6 6 0 0 1-6.0195-5.9609 6 6 0 0 1 5.9414-6.0391z" fill="currentColor"/>
  <path d="m570.72 594.12a6 6 0 0 1-5.9804 6 6 6 0 0 1-6.0195-5.9607 6 6 0 0 1 5.941-6.039 6 6 0 0 1 6.0584 5.9212" fill="url(#linearGradient4154)"/>
 </g>
</svg>
