<svg viewBox="0 0 22 22" xmlns="http://www.w3.org/2000/svg">
 <defs>
  <style id="current-color-scheme" type="text/css">
   .ColorScheme-Text { color:#2e3440; } .ColorScheme-Highlight { color:#88c0d0; } .ColorScheme-NeutralText { color:#d08770; } .ColorScheme-PositiveText { color:#a3be8c; } .ColorScheme-NegativeText { color:#bf616a; }
  </style>
 </defs>
 <path class="ColorScheme-Text" d="m8.9688 3c-1.7509 0-3.4069 0.4216-4.9688 1.2637l0.77734 1.7871c0.78092-0.38352 1.4827-0.65748 2.1074-0.82422 0.63297-0.16673 1.2779-0.25 1.9355-0.25 0.98644 0 1.7434 0.22025 2.2695 0.66211 0.5261 0.44187 0.78906 1.075 0.78906 1.9004 0 0.44187-0.056795 0.83056-0.17188 1.1641-0.11508 0.33348-0.31231 0.66651-0.5918 1-0.27948 0.33349-0.86767 0.88335-1.7637 1.6504-1.1001 1.0033-2.2511 2.7855-2.3516 4.6465h2l-0.0058594-0.03125c0-0.75868 0.13147-1.3676 0.39453-1.8262 0.27128-0.46689 0.81313-1.055 1.627-1.7637 0.99467-0.84207 1.6575-1.4752 1.9863-1.9004 0.33704-0.4252 0.58755-0.87438 0.75195-1.3496 0.1645-0.47523 0.24609-1.0217 0.24609-1.6387 0-1.4173-0.44773-2.519-1.3438-3.3027-0.89601-0.79204-2.1256-1.1875-3.6875-1.1875zm7.3242 9-3.5 3.5 3.5 3.5 0.70703-0.70703-2.293-2.293h4.293v-1h-4.293l2.293-2.293-0.70703-0.70703zm-9.293 5v2h2v-2h-2z" fill="currentColor"/>
</svg>
