<svg viewBox="0 0 22 22" xmlns="http://www.w3.org/2000/svg">
 <defs>
  <style id="current-color-scheme" type="text/css">
   .ColorScheme-Text { color:#2e3440; } .ColorScheme-Highlight { color:#88c0d0; } .ColorScheme-NeutralText { color:#d08770; } .ColorScheme-PositiveText { color:#a3be8c; } .ColorScheme-NegativeText { color:#bf616a; }
  </style>
 </defs>
 <path class="ColorScheme-Text" d="m7 11-3 3 3 3v-6zm8 0v6l3-3-3-3zm-8.9766-6.0059v4h-1v-2h-1v2h-1v1h16v-1h-0.023438v-1.9941h-1v1.9941h-0.97656v-4h-1v4h-1v-2h-1v2h-1v-2h-1v2h-1v-2h-1v2h-1v-2h-1v2h-1v-4h-1z" fill="currentColor"/>
 <path class="ColorScheme-Text" d="m3 11h1v6h-1zm15 0h1v6h-1z" fill="currentColor"/>
 <path d="M 9.207,11.5 8.5,12.207 10.293,14 8.5,15.793 9.207,16.5 11,14.707 12.793,16.5 13.5,15.793 11.707,14 13.5,12.207 12.793,11.5 11,13.293 9.207,11.5 Z" fill="#d24d57"/>
</svg>
