<svg version="1.1" viewBox="0 0 22 22" xmlns="http://www.w3.org/2000/svg">
 <defs>
  <style id="current-color-scheme" type="text/css">
   .ColorScheme-Text { color:#2e3440; } .ColorScheme-Highlight { color:#88c0d0; } .ColorScheme-NeutralText { color:#d08770; } .ColorScheme-PositiveText { color:#a3be8c; } .ColorScheme-NegativeText { color:#bf616a; }
  </style>
 </defs>
 <path class="ColorScheme-Text" d="m14 13h1v2h2v1h-2v2h-1v-2h-2v-1h2z" fill="currentColor"/>
 <path class="ColorScheme-Text" d="m5 3c-1.662 0-3 1.338-3 3v10c0 1.662 1.338 3 3 3h3v-1h-3c-1.108 0-2-0.892-2-2v-8c0-1.108 0.892-2 2-2h11c1.108 0 2 0.892 2 2h1v-2c0-1.662-1.338-3-3-3z" fill="currentColor"/>
 <path class="ColorScheme-Text" d="m12 9c-1.662 0-3 1.338-3 3v5c0 1.662 1.338 3 3 3h5c1.662 0 3-1.338 3-3v-5c0-1.662-1.338-3-3-3zm0 3h5c1.108 0 2 0.892 2 2v3c0 1.108-0.892 2-2 2h-5c-1.108 0-2-0.892-2-2v-3c0-1.108 0.892-2 2-2z" fill="currentColor"/>
</svg>
