<svg viewBox="0 0 22 22" xmlns="http://www.w3.org/2000/svg">
 <defs>
  <style id="current-color-scheme" type="text/css">
   .ColorScheme-Text { color:#2e3440; } .ColorScheme-Highlight { color:#88c0d0; } .ColorScheme-NeutralText { color:#d08770; } .ColorScheme-PositiveText { color:#a3be8c; } .ColorScheme-NegativeText { color:#bf616a; }
  </style>
 </defs>
 <path class="ColorScheme-Text" d="m11 3c-0.6752 0.003785-1.3472 0.093036-2 0.26562v1.044919a7 7 0 0 0-1.3164 0.54492l-0.74023-0.74023c-1.167 0.68805-2.1401 1.6612-2.8281 2.8281l0.74023 0.74023a7 7 0 0 0-0.54688 1.3164h-1.048872c-0.17061 0.65304-0.25789 1.325-0.25977 2 0.00378 0.6752 0.093036 1.3472 0.26562 2h1.044919a7 7 0 0 0 0.54492 1.3164l-0.74023 0.74024c0.68805 1.167 1.6612 2.1401 2.8281 2.8281l0.74023-0.74024a7 7 0 0 0 1.3164 0.54688v1.04882c0.65304 0.17061 1.325 0.25789 2 0.25977 0.335-0.001885 0.66853-0.02662 1-0.070312v-1.0059c-0.33044 0.04881-0.66509 0.075044-1 0.076172-0.33545-5.02e-4 -0.66894-0.025871-1-0.074219v-1.01563a6 6 0 0 1-2.4727-1.0234l-0.71289 0.71289-0.0039062 0.003907c-0.53631-0.40206-1.0114-0.87868-1.4121-1.416l0.0019531-0.001953 0.71484-0.71484a6 6 0 0 1-1.0293-2.4707h-1.0097642c-0.04881-0.33044-0.075044-0.66509-0.076172-1 5.022e-4 -0.33545 0.025871-0.66894 0.074219-1h1.0156302a6 6 0 0 1 1.0234-2.4727l-0.7168-0.7168c0.40206-0.53631 0.87868-1.0114 1.416-1.4121l0.7168 0.7168a6 6 0 0 1 2.4707-1.0293v-1.0097642c0.33044-0.04881 0.66509-0.075044 1-0.076172 0.33545 5.001e-4 0.66894 0.02587 1 0.074219v1.0156302a6 6 0 0 1 2.4727 1.0234l0.71289-0.71289 0.003906-0.0039062c0.53631 0.40206 1.0114 0.87868 1.4121 1.416l-0.001953 0.0019531-0.71484 0.71484a6 6 0 0 1 1.0293 2.4707h1.009764c0.04881 0.33044 0.075045 0.66509 0.076172 1-4.95e-4 0.33545-0.025869 0.66894-0.074219 1h-1.01563a6 6 0 0 1-0.73047 2h1.1348a7 7 0 0 0 0.37695-1h1.04882c0.17061-0.65304 0.25789-1.325 0.25977-2-0.003785-0.6752-0.093036-1.3472-0.26562-2h-1.04493a7 7 0 0 0-0.54492-1.3164l0.007813-0.0078126 0.73242-0.73242c-0.68805-1.167-1.6612-2.1401-2.8281-2.8281l-0.740239 0.740239a7 7 0 0 0-1.3164-0.54688v-1.048872c-0.65304-0.17061-1.325-0.25789-2-0.25977zm-2 5v6l5-3-5-3zm6 7-2 2 2 2h4v-4h-4zm0.59961 1h2.4004v2h-2.4004l-1-1 1-1z" fill="currentColor"/>
</svg>
