<svg viewBox="0 0 22 22" xmlns="http://www.w3.org/2000/svg">
 <defs>
  <style id="current-color-scheme" type="text/css">
   .ColorScheme-Text { color:#2e3440; } .ColorScheme-Highlight { color:#88c0d0; } .ColorScheme-NeutralText { color:#d08770; } .ColorScheme-PositiveText { color:#a3be8c; } .ColorScheme-NegativeText { color:#bf616a; }
  </style>
 </defs>
 <path class="ColorScheme-Text" d="m2 3v2h1v12h-1v2h2v-1h14v1h2v-2h-1v-12h1v-2h-2v1h-14v-1h-2zm2 2h14v12h-14v-12zm1 1v10h3v-1h-2v-8h11v-1h-12zm10 2-0.99609 0.99414-0.003906-0.0039062-5 4.998 0.0078125 0.007813-0.0039063 1.0039h-0.0039062v0.999996h2l0.009766-0.009766c4e-3 -2e-5 0.005765 0.001949 0.009765 0.001954l-0.005859-0.00586 0.98633-0.98633 4-3.9961-0.70508-0.70898-4.9902 4.9863-0.59375-0.5918 4.9922-4.9883 0.5918 0.59375 0.70508 0.70312 1-1-2-1.998z" fill="currentColor"/>
</svg>
