<svg version="1.1" viewBox="0 0 22 22" xmlns="http://www.w3.org/2000/svg">
 <defs>
  <style id="current-color-scheme" type="text/css">
   .ColorScheme-Text { color:#2e3440; } .ColorScheme-Highlight { color:#88c0d0; } .ColorScheme-NeutralText { color:#d08770; } .ColorScheme-PositiveText { color:#a3be8c; } .ColorScheme-NegativeText { color:#bf616a; }
  </style>
 </defs>
 <path class="ColorScheme-Text" d="m11 3c-4.4183 0-8 3.5817-8 8s3.5817 8 8 8 8-3.5817 8-8-3.5817-8-8-8zm0 1a7 7 0 0 1 7 7 7 7 0 0 1-7 7 7 7 0 0 1-7-7 7 7 0 0 1 7-7zm-3 3.0371c-0.24063 0-0.28572 0.00835-0.42383 0.076172-0.19674 0.096612-0.37214 0.27201-0.46875 0.46875-0.06701 0.13646-0.07617 0.18428-0.07617 0.41016 0 0.21995 0.0093 0.27613 0.07031 0.40625 0.12824 0.2735 0.36081 0.4753 0.64062 0.55469 0.07193 0.020407 0.20442 0.030031 0.31836 0.023437 0.36172-0.02093 0.65779-0.22066 0.82031-0.55078 0.08009-0.16269 0.08789-0.19896 0.08789-0.43359 0-0.2265-0.0091-0.27362-0.07617-0.41016-0.09661-0.19674-0.27201-0.37214-0.46875-0.46875-0.13811-0.067819-0.1832-0.076172-0.42383-0.076172zm6 0c-0.24063 0-0.28572 0.00835-0.42383 0.076172-0.19674 0.096612-0.37214 0.27201-0.46875 0.46875-0.06703 0.13646-0.07617 0.18428-0.07617 0.41016 0 0.21995 0.0093 0.27613 0.07031 0.40625 0.12824 0.2735 0.36081 0.4753 0.64063 0.55469 0.07193 0.020406 0.20442 0.030027 0.31836 0.023437 0.36172-0.02093 0.65779-0.22066 0.82031-0.55078 0.08014-0.16269 0.08789-0.19896 0.08789-0.43359 0-0.2265-0.0091-0.27362-0.07617-0.41016-0.09661-0.19674-0.27201-0.37214-0.46875-0.46875-0.13811-0.067819-0.1832-0.076172-0.42383-0.076172zm-6.8223 5.9863 0.01758 0.07422c0.0098 0.04069 0.05244 0.16616 0.09375 0.2793 0.49396 1.3531 1.6968 2.345 3.1055 2.5625 1.0312 0.15921 2.1418-0.11495 2.959-0.73242 0.35196-0.26593 0.74278-0.68907 0.98828-1.0703 0.16293-0.25302 0.40294-0.79086 0.46289-1.0391l0.01758-0.07422h-3.8223z" fill="currentColor"/>
</svg>
