<svg viewBox="0 0 22 22" xmlns="http://www.w3.org/2000/svg">
 <defs>
  <style id="current-color-scheme" type="text/css">
   .ColorScheme-Text { color:#2e3440; } .ColorScheme-Highlight { color:#88c0d0; } .ColorScheme-NeutralText { color:#d08770; } .ColorScheme-PositiveText { color:#a3be8c; } .ColorScheme-NegativeText { color:#bf616a; }
  </style>
 </defs>
 <path class="ColorScheme-Text" d="m3 3v3h1v1h1v-1h1v-1h1v-1h-1v-1h-3zm13 0v1h-1v1h1v1h1v1h1v-1h1v-3h-3zm-12 1h1v1h-1v-1zm5 0v1h1v-1h-1zm3 0v1h1v-1h-1zm5 0h1v1h-1v-1zm-13 5v1h1v-1h-1zm13 0v1h1v-1h-1zm-13 3v1h1v-1h-1zm13 0v1h1v-1h-1zm-13 3v1h-1v3h3v-1h1v-1h-1v-1h-1v-1h-1zm13 0v1h-1v1h-1v1h1v1h3v-3h-1v-1h-1zm-13 2h1v1h-1v-1zm5 0v1h1v-1h-1zm3 0v1h1v-1h-1zm5 0h1v1h-1v-1z" fill="currentColor"/>
 <path class="ColorScheme-Highlight" d="m11 9a2 2 0 0 0-2 2 2 2 0 0 0 2 2 2 2 0 0 0 2-2 2 2 0 0 0-2-2zm0 1a1 1 0 0 1 1 1 1 1 0 0 1-1 1 1 1 0 0 1-1-1 1 1 0 0 1 1-1z" fill="currentColor"/>
</svg>
