<svg version="1.1" viewBox="0 0 22 22" xmlns="http://www.w3.org/2000/svg">
 <defs>
  <style id="current-color-scheme" type="text/css">
   .ColorScheme-Text { color:#2e3440; } .ColorScheme-Highlight { color:#88c0d0; } .ColorScheme-NeutralText { color:#d08770; } .ColorScheme-PositiveText { color:#a3be8c; } .ColorScheme-NegativeText { color:#bf616a; }
  </style>
 </defs>
 <path class="ColorScheme-Text" d="m9 4.2949a7 7 0 0 0-4.7012 4.7051h1.0527a6 6 0 0 1 3.6484-3.6504zm4 0.00391v1.0527a6 6 0 0 1 3.6504 3.6484h1.0547a7 7 0 0 0-4.7051-4.7012zm-8.7051 8.7012a7 7 0 0 0 4.7051 4.7012v-1.0527a6 6 0 0 1-3.6504-3.6484zm12.354 0a6 6 0 0 1-3.6484 3.6504v1.0547a7 7 0 0 0 4.7012-4.7051z" fill="currentColor"/>
 <path class="ColorScheme-Highlight" d="m9 2v4h4v-4zm1 1h2v2h-2zm-8 6v4h4v-4zm14 0v4h4v-4zm-13 1h2v2h-2zm14 0h2v2h-2zm-8 6v4h4v-4zm1 1h2v2h-2z" fill="currentColor"/>
</svg>
