<svg viewBox="0 0 22 22" xmlns="http://www.w3.org/2000/svg">
 <defs>
  <style id="current-color-scheme" type="text/css">
   .ColorScheme-Text { color:#2e3440; } .ColorScheme-Highlight { color:#88c0d0; } .ColorScheme-NeutralText { color:#d08770; } .ColorScheme-PositiveText { color:#a3be8c; } .ColorScheme-NegativeText { color:#bf616a; }
  </style>
 </defs>
 <path class="ColorScheme-Text" d="m10.5 3v9h1v-9h-1zm-3 1v4l2-2-2-2zm7 0-2 2 2 2v-4zm3.9668 3.252-0.005859 0.0019531v0.0019532l0.005859-0.0039063zm-0.005859 0.0039063-6.8926 4.7441h0.43164v0.91992l7-4.8125-0.53906-0.85156zm-8.4609 5.8242-6.6992 4.6113 0.58203 0.80859 6.5449-4.5h-0.42773v-0.91992zm-6.6992 4.6113-0.0019531-0.003906v0.005859l0.0019531-0.001953zm7.1992-3.6914v5h1v-5h-1z" fill="currentColor"/>
 <path class="ColorScheme-Highlight" d="m9 11v4h4v-4h-4zm1 1h2v2h-2v-2z" fill="currentColor"/>
</svg>
