<!DOCTYPE svg>
<svg version="1.1" viewBox="0 0 22 22" xmlns="http://www.w3.org/2000/svg">
 <defs>
  <style id="current-color-scheme" type="text/css">
   .ColorScheme-Text { color:#2e3440; } .ColorScheme-Highlight { color:#88c0d0; } .ColorScheme-NeutralText { color:#d08770; } .ColorScheme-PositiveText { color:#a3be8c; } .ColorScheme-NegativeText { color:#bf616a; }
  </style>
 </defs>
 <path class="ColorScheme-Highlight" d="m15.045 6.4531-0.707 0.70703c2.3443 2.3444 3.6621 5.5243 3.6621 8.8398h1c0-3.5804-1.4235-7.0152-3.9551-9.5469z" fill="currentColor"/>
 <path class="ColorScheme-Text" d="m1 16v1h1v-1h-1zm6 0v1h1v-1h-1zm2 0v1h2v-1h-2zm3 0v1h2v-1h-2zm3 0v1h2v-1h-2zm3 0v1h2v-1h-2z" fill="currentColor"/>
 <path class="ColorScheme-Text" d="M 17 3.29297 L 6.29297 14 L 7 14.707 L 17.707 4 L 17 3.29297 Z" fill="currentColor"/>
 <path class="ColorScheme-Highlight" d="m2 14v5h5v-5h-5zm1 1h3v3h-3v-3z" fill="currentColor"/>
</svg>
