<svg viewBox="0 0 22 22" xmlns="http://www.w3.org/2000/svg">
 <defs>
  <style type="text/css">.ColorScheme-Text {
        color:#2e3440;
      }
      .ColorScheme-Highlight {
        color:#88c0d0;
      }</style>
 </defs>
 <path class="ColorScheme-Text" d="m11 4a8 7 0 0 0-8 7 8 7 0 0 0 8 7 8 7 0 0 0 8-7 8 7 0 0 0-8-7zm0 1a7 6 0 0 1 7 6 7 6 0 0 1-7 6 7 6 0 0 1-7-6 7 6 0 0 1 7-6z" fill="currentColor"/>
 <path class="ColorScheme-Highlight" d="m11 9a2 2 0 0 0-2 2 2 2 0 0 0 2 2 2 2 0 0 0 2-2 2 2 0 0 0-2-2zm0 1a1 1 0 0 1 1 1 1 1 0 0 1-1 1 1 1 0 0 1-1-1 1 1 0 0 1 1-1z" fill="currentColor"/>
</svg>
