<svg version="1.1" viewBox="0 0 22 22" xmlns="http://www.w3.org/2000/svg">
 <defs>
  <style id="current-color-scheme" type="text/css">
   .ColorScheme-Text { color:#2e3440; } .ColorScheme-Highlight { color:#88c0d0; } .ColorScheme-NeutralText { color:#d08770; } .ColorScheme-PositiveText { color:#a3be8c; } .ColorScheme-NegativeText { color:#bf616a; }
  </style>
 </defs>
 <path class="ColorScheme-Text" d="m7 3v1h12v-1h-12zm0 2v1h5v-1h-5zm0 4v1h12v-1h-12zm0 2v1h6v-1h-6zm0 4v1h12v-1h-12zm0 2v1h9v-1h-9z" fill="currentColor"/>
 <path d="m4.5 3c-0.82842 0-1.5 0.67157-1.5 1.5 1e-5 0.82843 0.67158 1.5 1.5 1.5s1.5-0.67157 1.5-1.5c-1e-5 -0.82843-0.67158-1.5-1.5-1.5zm0 6c-0.82843 0-1.5 0.67157-1.5 1.5s0.67157 1.5 1.5 1.5 1.5-0.67157 1.5-1.5-0.67157-1.5-1.5-1.5z" fill="#a3be8c"/>
 <path d="m4.5 15c-0.82843 0-1.5 0.67157-1.5 1.5s0.67157 1.5 1.5 1.5 1.5-0.67157 1.5-1.5-0.67157-1.5-1.5-1.5zm12.5 3v1h2v-1h-2z" fill="#bf616a"/>
</svg>
