<svg viewBox="0 0 22 22" xmlns="http://www.w3.org/2000/svg">
 <defs>
  <style id="current-color-scheme" type="text/css">
   .ColorScheme-Text { color:#2e3440; } .ColorScheme-Highlight { color:#88c0d0; } .ColorScheme-NeutralText { color:#d08770; } .ColorScheme-PositiveText { color:#a3be8c; } .ColorScheme-NegativeText { color:#bf616a; }
  </style>
 </defs>
 <path class="ColorScheme-Text" d="m11 3c-1.9163 0-3.6683 0.66964-5.043 1.7852-0.10027-0.4467-0.47921-0.78516-0.95703-0.78516-0.554 0-1 0.446-1 1 0 0.47782 0.33846 0.85676 0.78516 0.95703-1.1155 1.3747-1.7852 3.1267-1.7852 5.043s0.66964 3.6683 1.7852 5.043c-0.4467 0.10027-0.78516 0.47921-0.78516 0.95703 0 0.554 0.446 1 1 1 0.47782 0 0.85676-0.33846 0.95703-0.78516 1.3747 1.1155 3.1267 1.7852 5.043 1.7852s3.6683-0.66964 5.043-1.7852c0.10027 0.4467 0.47921 0.78516 0.95703 0.78516 0.554 0 1-0.446 1-1 0-0.47782-0.33846-0.85676-0.78516-0.95703 1.1155-1.3747 1.7852-3.1267 1.7852-5.043s-0.66964-3.6683-1.7852-5.043c0.4467-0.10027 0.78516-0.47921 0.78516-0.95703 0-0.554-0.446-1-1-1-0.47782 0-0.85676 0.33846-0.95703 0.78516-1.3747-1.1155-3.1267-1.7852-5.043-1.7852zm-1 1 0.046875 0.072266c0.31258-0.042349 0.62856-0.072266 0.95312-0.072266 3.878 0 7 3.122 7 7s-3.122 7-7 7-7-3.122-7-7c0-3.4836 2.5222-6.35 5.8457-6.8984l0.1543-0.10156zm1 5c-1.108 0-2 0.892-2 2s0.892 2 2 2 2-0.892 2-2-0.892-2-2-2z" fill="currentColor"/>
</svg>
