<svg viewBox="0 0 22 22" xmlns="http://www.w3.org/2000/svg">
 <defs>
  <style id="current-color-scheme" type="text/css">
   .ColorScheme-Text { color:#2e3440; } .ColorScheme-Highlight { color:#88c0d0; } .ColorScheme-NeutralText { color:#d08770; } .ColorScheme-PositiveText { color:#a3be8c; } .ColorScheme-NegativeText { color:#bf616a; }
  </style>
 </defs>
 <path class="ColorScheme-Text" d="m11 3c-0.67521 4e-3 -1.3472 0.092995-2 0.26562v1.044919a7 7 0 0 0-1.3164 0.54492l-0.74023-0.74023c-1.167 0.68805-2.1401 1.6612-2.8281 2.8281l0.74023 0.74023a7 7 0 0 0-0.54688 1.3164h-1.048872c-0.17062 0.65304-0.2579 1.325-0.25977 2 4e-3 0.67521 0.093005 1.3472 0.26562 2h1.044919a7 7 0 0 0 0.54492 1.3164l-0.74023 0.74024c0.68805 1.167 1.6612 2.1401 2.8281 2.8281l0.74023-0.74024a7 7 0 0 0 1.3164 0.54688v1.04882c0.32904 0.085969 0.66338 0.14997 1 0.19336v-2.02343a6 6 0 0 1-2.4727-1.0234l-0.71289 0.71289-0.0039062 0.003907c-0.5363-0.40206-1.0114-0.87868-1.4121-1.416l0.0019531-0.001953 0.71484-0.71484a6 6 0 0 1-1.0293-2.4707h-1.0097642c-0.0488-0.33045-0.074972-0.66509-0.076172-1 5e-4 -0.33545 0.025919-0.66894 0.074219-1h1.0156302a6 6 0 0 1 1.0234-2.4727l-0.7168-0.7168c0.40207-0.5363 0.87868-1.0114 1.416-1.4121l0.7168 0.7168a6 6 0 0 1 2.4707-1.0293v-1.0097642c0.33044-0.0488 0.66509-0.074972 1-0.076172 0.33491 0.0012 0.66956 0.027372 1 0.076172v1.0097642a6 6 0 0 1 2.4707 1.0293l0.71484-0.71484 0.001953-0.0019531c0.53734 0.40067 1.0139 0.87581 1.416 1.4121l-0.003907 0.0039062-0.71289 0.71289a6 6 0 0 1 1.0234 2.4727h1.01563c0.0483 0.33106 0.073719 0.66455 0.074219 1-0.0012 0.33491-0.027372 0.66955-0.076172 1h1.0059c0.043662-0.33147 0.068327-0.665 0.070312-1-0.00187-0.67495-0.089146-1.347-0.25977-2h-1.048872a7 7 0 0 0-0.54688-1.3164l0.74024-0.74023c-0.68805-1.167-1.6612-2.1401-2.8281-2.8281l-0.73242 0.73242-0.007813 0.0078126a7 7 0 0 0-1.3164-0.54492v-1.044919c-0.65279-0.17263-1.3248-0.26162-2-0.26562zm0 7a1 1 0 0 0-1 1 1 1 0 0 0 1 1 1 1 0 0 0 1-1 1 1 0 0 0-1-1zm2 2-2 1.5 2 1.5v-1h5c0.554 0 1 0.446 1 1h1c0-1.108-0.89199-2-2-2h-5v-1zm-2 4c0 1.108 0.89199 2 2 2h5v1l2-1.5-2-1.5v1h-5c-0.554 0-1-0.446-1-1h-1z" fill="currentColor"/>
</svg>
