<svg viewBox="0 0 22 22" xmlns="http://www.w3.org/2000/svg">
 <defs>
  <style id="current-color-scheme" type="text/css">
   .ColorScheme-Text { color:#2e3440; } .ColorScheme-Highlight { color:#88c0d0; } .ColorScheme-NeutralText { color:#d08770; } .ColorScheme-PositiveText { color:#a3be8c; } .ColorScheme-NegativeText { color:#bf616a; }
  </style>
 </defs>
 <path class="ColorScheme-Text" d="m12.088 1 0.36719 0.37891 1.6211 1.6211h-10.0762v1h12.4998l-0.50977-0.5-2.5-2.5h-1.4023zm-8.0879 4v14h1v-7h6v-1h-6v-5h8v-1h-9z" fill="currentColor"/>
 <path class="ColorScheme-Highlight" d="m15.5 12c-1.933 0-3.5 1.567-3.5 3.5s1.567 3.5 3.5 3.5c1.7386-2e-3 3.2516-1.2792 3.5-3v-1h-3v1h1.9453c-0.23728 1.1624-1.2589 1.998-2.4453 2-1.3807 0-2.5-1.1193-2.5-2.5s1.1193-2.5 2.5-2.5c0.663 1e-4 1.2988 0.26356 1.7676 0.73242l0.70508-0.70508c-0.65548-0.65664-1.5448-1.0262-2.4727-1.0273z" fill="currentColor"/>
</svg>
