<svg viewBox="0 0 22 22" xmlns="http://www.w3.org/2000/svg">
 <defs>
  <style id="current-color-scheme" type="text/css">
   .ColorScheme-Text { color:#2e3440; } .ColorScheme-Highlight { color:#88c0d0; } .ColorScheme-NeutralText { color:#d08770; } .ColorScheme-PositiveText { color:#a3be8c; } .ColorScheme-NegativeText { color:#bf616a; }
  </style>
 </defs>
 <path class="ColorScheme-Text" d="m6.7891 3.4121-0.86719 0.5 1.6465 2.8496-2.248-0.60156-0.25977 0.9668 3.2148 0.86133 1.5703 2.7168h-3.1387l-2.3535-2.3535-0.70703 0.70703 1.6465 1.6465h-3.293v1h3.293l-1.6465 1.6465 0.70703 0.70703 2.3535-2.3535h3.1328l-1.5664 2.7129-3.2148 0.86133 0.25781 0.9668 2.25-0.60352-1.6465 2.8516 0.86523 0.5 1.6465-2.8516 0.60352 2.25 0.96484-0.25977-0.86133-3.2168 1.8555-3.2109h0.005859l1.8574 3.2188-0.86133 3.2148 0.9668 0.25781 0.60156-2.248 1.6465 2.8516 0.86719-0.5-1.6465-2.8516 2.248 0.60156 0.25976-0.96484-3.2148-0.86133-1.5703-2.7188h3.1387l2.3535 2.3535 0.70703-0.70703-1.6465-1.6465h3.293v-1h-3.293l1.6465-1.6465-0.050782-0.058594h-1.3027l-1.707 1.7051h-3.1367l0.98438-1.7051h-1.1406l-0.99805 1.7031h-0.001953l-0.0039-2e-3 -1.8535-3.2129 0.86133-3.2148-0.9668-0.25977-0.60156 2.25zm10.714 1.8379h1.5031l-0.028216 0.75h-2.9781l1.5031-2.25h-1.5031v-0.75h3.0063zm-4.0047 2h1.5016l-0.02817 0.75h-2.975l1.5016-2.25h-1.5016v-0.75h3.0031z" fill="currentColor"/>
</svg>
