<svg viewBox="0 0 22 22" xmlns="http://www.w3.org/2000/svg">
 <defs>
  <style id="current-color-scheme" type="text/css">
   .ColorScheme-Text { color:#2e3440; } .ColorScheme-Highlight { color:#88c0d0; } .ColorScheme-NeutralText { color:#d08770; } .ColorScheme-PositiveText { color:#a3be8c; } .ColorScheme-NegativeText { color:#bf616a; }
  </style>
 </defs>
 <path class="ColorScheme-Text" d="m11.382 2.388c-1.9895 0-3.2206 1.2635-3.3977 2.799v1.018l-2.151-1.5202-0.84897 0.66304 3.3959 2.6521 3.3959-2.6521-0.84897-0.66304-1.9428 1.5202v-1.018c0-1.0356 1.0646-1.7986 2.3975-1.799 1.3329 3.63e-4 2.621 0.76358 2.6025 1.799v0.813h1v-0.81333c0-1.5457-1.6128-2.7987-3.6023-2.7987zm2.6023 4.612c-1.1046 0-2 0.89543-2 2 0 1.1046 0.89543 2 2 2 1.1046 0 2-0.89543 2-2 0-1.1046-0.89543-2-2-2zm-6 2a2 2 0 0 0-2 2 2 2 0 0 0 2 2 2 2 0 0 0 2-2 2 2 0 0 0-2-2zm6.0156 3c-1.5188 0-2.7642 1.1631-2.9785 2.6719 0.58287 0.66214 0.96289 1.3281 0.96289 2.3281h4.4297c0.39322-0.54062 0.60674-1.1986 0.60742-1.875 1e-6 -1.7259-1.3522-3.125-3.0215-3.125zm-0.04883 1c1.1026 0 1.9961 0.83947 1.9961 1.875-4.5e-4 0.40586-0.14066 0.80063-0.40039 1.125h-2.8203c-0.085645-0.53851-0.35719-1.0199-0.74219-1.3984 0.14153-0.90529 0.9636-1.6016 1.9668-1.6016zm-5.9668 1a3 3.125 0 0 0-3 3.125 3 3.125 0 0 0 0.60547 1.875h4.793a3 3.125 0 0 0 0.60156-1.875 3 3.125 0 0 0-3-3.125zm0 1a2 2.25 0 0 1 2 2.25 2 2.25 0 0 1-0.11719 0.75h-3.7656a2 2.25 0 0 1-0.11719-0.75 2 2.25 0 0 1 2-2.25z" fill="currentColor"/>
</svg>
