<svg viewBox="0 0 22 22" xmlns="http://www.w3.org/2000/svg">
 <defs>
  <style type="text/css">.ColorScheme-Text {
        color:#2e3440;
      }
      .ColorScheme-Highlight {
        color:#88c0d0;
      }</style>
 </defs>
 <path class="ColorScheme-Text" d="m4 6v0.5 0.5h-1v0.9082 1.0918 5 0.091797 0.9082h0.5 0.5v1h0.9082 1.0918 10 0.091797 1 0.9082v-1h0.5 0.5v-0.9082-1.0918-4-1.0918-0.9082h-1v-0.5-0.5h-0.9082-1-11.184-0.9082zm0.9082 1h11.184 1c0.15034 0.4247 0.4835 0.75786 0.9082 0.9082v1.0918 4 1.0918c-0.4247 0.15034-0.75786 0.4835-0.9082 0.9082h-1-0.091797-10-1.0918c-0.15034-0.4247-0.4835-0.75786-0.9082-0.9082v-1.0918-4-1.0918c0.4247-0.15035 0.75786-0.4835 0.9082-0.9082zm6.0918 1c-1.662 0-3 1.338-3 3s1.338 3 3 3 3-1.338 3-3-1.338-3-3-3zm0 1c1.108 0 2 0.892 2 2s-0.892 2-2 2-2-0.892-2-2 0.892-2 2-2z" fill="currentColor"/>
</svg>
