<svg viewBox="0 0 22 22" xmlns="http://www.w3.org/2000/svg">
 <defs>
  <style type="text/css">.ColorScheme-Text {
        color:#2e3440;
      }
      .ColorScheme-Highlight {
        color:#88c0d0;
      }</style>
 </defs>
 <path class="ColorScheme-Text" d="m3 3v16h9v-1h-8v-14h14v8h1v-9h-16zm2 2v1h12v-1h-12zm0 2v1h9v-1h-9zm0 3v1h12v-1h-12zm0 2v1h4v-1h-4zm0 3v1h7v-1h-7z" fill="currentColor"/>
 <path d="m13.98 13-0.99024 0.99023 2.0098 2.0098-2.0098 2.0098 0.99024 0.99023 2.0098-2.0098 2.0098 2.0098 0.99023-0.99023-2.0098-2.0098 2.0098-2.0098-0.99023-0.99023-2.0098 2.0098-2.0098-2.0098z" fill="#bf616a"/>
</svg>
