<svg viewBox="0 0 22 22" xmlns="http://www.w3.org/2000/svg">
 <defs>
  <style id="current-color-scheme" type="text/css">
   .ColorScheme-Text { color:#2e3440; } .ColorScheme-Highlight { color:#88c0d0; } .ColorScheme-NeutralText { color:#d08770; } .ColorScheme-PositiveText { color:#a3be8c; } .ColorScheme-NegativeText { color:#bf616a; }
  </style>
 </defs>
 <path class="ColorScheme-Text" d="m14 3v6h3c1.108 0 2-0.892 2-2 0-0.81094-0.48127-1.5019-1.1719-1.8164 0.10594-0.20585 0.17188-0.43528 0.17188-0.68359 0-0.831-0.669-1.5-1.5-1.5h-2.5zm1 1h1.5c0.277 0 0.5 0.223 0.5 0.5s-0.223 0.5-0.5 0.5h-1.5v-1zm-6.7832 1-5.2168 14h1.6875l1.668-4.4297h5.5625l1.5332 4.4297h1.6895l-4.9297-14h-1.9941zm6.7832 1h2c0.554 0 1 0.446 1 1s-0.446 1-1 1h-2v-2zm-5.7676 0.61133 2.1289 6.6738h-4.4883l2.3594-6.6738z" fill="currentColor"/>
</svg>
