<svg viewBox="0 0 22 22" xmlns="http://www.w3.org/2000/svg">
 <defs>
  <style id="current-color-scheme" type="text/css">
   .ColorScheme-Text { color:#2e3440; } .ColorScheme-Highlight { color:#88c0d0; } .ColorScheme-NeutralText { color:#d08770; } .ColorScheme-PositiveText { color:#a3be8c; } .ColorScheme-NegativeText { color:#bf616a; }
  </style>
 </defs>
 <path class="ColorScheme-Text" d="m3 3v1h16v-1h-16zm0 2v1h9v-1h-9zm0 4v1h10v-1h-10zm0 2v1h4v-1h-4zm0 4v1h10v-1h-10zm0 2v1h7v-1h-7zm8 1v1h2v-1h-2z" fill="currentColor"/>
 <path class="ColorScheme-Highlight" d="m11 12v1h4.5c1.385 0 2.5 1.115 2.5 2.5 0 0.8187-0.39551 1.5351-1 1.9902v-1.4902h-1v2.999979h3v-1h-1.0762c0.65797-0.6319 1.0762-1.5097 1.0762-2.5 0-1.939-1.561-3.5-3.5-3.5h-4.5z" fill="currentColor"/>
</svg>
