<svg viewBox="0 0 22 22" xmlns="http://www.w3.org/2000/svg">
 <defs>
  <style id="current-color-scheme" type="text/css">
   .ColorScheme-Text { color:#2e3440; } .ColorScheme-Highlight { color:#88c0d0; } .ColorScheme-NeutralText { color:#d08770; } .ColorScheme-PositiveText { color:#a3be8c; } .ColorScheme-NegativeText { color:#bf616a; }
  </style>
 </defs>
 <path class="ColorScheme-Text" d="m14.666 6.8945-1.332 3.7715-1.334 3.7715 0.94336 0.33398 0.45312-1.2832a4 4 0 0 0 2.375 2.2832 4 4 0 0 0 5.1035-2.4375 4 4 0 0 0-2.4375-5.1055 4 4 0 0 0-3.2812 0.2832l0.45312-1.2832-0.94336-0.33398zm-9.666 0.55273a4 4 0 0 0-4 4 4 4 0 0 0 4 4 4 4 0 0 0 3-1.3613v1.3613h1v-8h-1v1.3613a4 4 0 0 0-3-1.3613zm0 1a3 3 0 0 1 3 3 3 3 0 0 1-3 3 3 3 0 0 1-3-3 3 3 0 0 1 3-3zm12.012 0.55469a3 3 0 0 1 1.0938 0.16992 3 3 0 0 1 1.8281 3.8281 3 3 0 0 1-3.8281 1.8281 3 3 0 0 1-1.8301-3.8281 3 3 0 0 1 2.7363-1.998z" fill="currentColor"/>
 <path class="ColorScheme-Highlight" d="m10 3v16h1v-2.4199l9.3594 2.1055 0.23242-1.0273-9.5918-2.1582v-12.5h-1z" fill="currentColor"/>
</svg>
