<svg viewBox="0 0 22 22" xmlns="http://www.w3.org/2000/svg">
 <defs>
  <style id="current-color-scheme" type="text/css">
   .ColorScheme-Text { color:#2e3440; } .ColorScheme-Highlight { color:#88c0d0; } .ColorScheme-NeutralText { color:#d08770; } .ColorScheme-PositiveText { color:#a3be8c; } .ColorScheme-NegativeText { color:#bf616a; }
  </style>
 </defs>
 <path class="ColorScheme-Text" d="M 4.5 3 L 3.96875 3.96875 L 3 4.5 L 3.96875 5.03125 L 4.5 6 L 5.03125 5.03125 L 6 4.5 L 5.03125 3.96875 L 4.5 3 z M 9.5 3 L 8.96875 3.96875 L 8 4.5 L 8.96875 5.03125 L 9.5 6 L 10.03125 5.03125 L 11 4.5 L 10.03125 3.96875 L 9.5 3 z M 16.171875 3 L 3 16.171875 L 5.828125 19 L 19 5.828125 L 16.171875 3 z M 16.103516 4.4824219 L 17.517578 5.8964844 L 14.419922 8.9960938 L 13.003906 7.5800781 L 16.103516 4.4824219 z M 6.5 7 L 5.96875 7.96875 L 5 8.5 L 5.96875 9.03125 L 6.5 10 L 7.03125 9.03125 L 8 8.5 L 7.03125 7.96875 L 6.5 7 z " fill="currentColor"/>
</svg>
