<svg viewBox="0 0 22 22" xmlns="http://www.w3.org/2000/svg">
 <defs>
  <style id="current-color-scheme" type="text/css">
   .ColorScheme-Text { color:#2e3440; } .ColorScheme-Highlight { color:#88c0d0; } .ColorScheme-NeutralText { color:#d08770; } .ColorScheme-PositiveText { color:#a3be8c; } .ColorScheme-NegativeText { color:#bf616a; }
  </style>
 </defs>
 <path class="ColorScheme-Text" d="m11 3c-4.432 0-8 3.568-8 8s3.568 8 8 8c0.69208 0 1.3603-0.096052 2-0.25977v-1.0332c-0.63375 0.18753-1.3038 0.29297-2 0.29297-3.878 0-7-3.122-7-7s3.122-7 7-7 7 3.122 7 7c0 0.69617-0.10544 1.3662-0.29297 2h1.0332c0.16371-0.63965 0.25977-1.3079 0.25977-2 0-4.432-3.568-8-8-8zm0 2c-3.324 0-6 2.676-6 6h3c0-1.662 1.338-3 3-3v-3zm0 4c-1.108 0-2 0.892-2 2s0.892 2 2 2 2-0.892 2-2-0.892-2-2-2zm0 1c0.554 0 1 0.446 1 1s-0.446 1-1 1-1-0.446-1-1 0.446-1 1-1zm3 1c0 0.7733-0.29821 1.4691-0.77539 2h3.4277c0.22041-0.62611 0.34766-1.2967 0.34766-2h-3zm-1 2.2246c-0.53088 0.47718-1.2267 0.77539-2 0.77539v3c0.70334 0 1.3739-0.12724 2-0.34766v-3.4277zm3.5 0.77539c-1.385 0-2.5 1.115-2.5 2.5s1.115 2.5 2.5 2.5 2.5-1.115 2.5-2.5-1.115-2.5-2.5-2.5zm0 1c0.831 0 1.5 0.669 1.5 1.5s-0.669 1.5-1.5 1.5-1.5-0.669-1.5-1.5 0.669-1.5 1.5-1.5zm0 1c-0.277 0-0.5 0.223-0.5 0.5s0.223 0.5 0.5 0.5 0.5-0.223 0.5-0.5-0.223-0.5-0.5-0.5z" fill="currentColor"/>
</svg>
