<svg viewBox="0 0 22 22" xmlns="http://www.w3.org/2000/svg">
 <defs>
  <style id="current-color-scheme" type="text/css">
   .ColorScheme-Text { color:#2e3440; } .ColorScheme-Highlight { color:#88c0d0; } .ColorScheme-NeutralText { color:#d08770; } .ColorScheme-PositiveText { color:#a3be8c; } .ColorScheme-NegativeText { color:#bf616a; }
  </style>
 </defs>
 <path class="ColorScheme-Text" d="m11 3c-4.4124 0-8 3.5876-8 8s3.5876 8 8 8 8-3.5876 8-8-3.5876-8-8-8zm0 1c3.8719 0 7 3.1281 7 7s-3.1281 7-7 7-7-3.1281-7-7 3.1281-7 7-7zm-1.5156 2a0.50005 0.50005 0 0 0-0.40039 0.22266l-2 3a0.50005 0.50005 0 1 0 0.83203 0.55469l1.084-1.625v5.8477a0.50005 0.50005 0 1 0 1 0v-7.5a0.50005 0.50005 0 0 0-0.51562-0.5zm3.0078 1.4922a0.50005 0.50005 0 0 0-0.49219 0.50781v7.5a0.50005 0.50005 0 0 0 0.91602 0.27734l2-3a0.50005 0.50005 0 1 0-0.83203-0.55469l-1.084 1.625v-5.8477a0.50005 0.50005 0 0 0-0.50781-0.50781z" fill="currentColor"/>
</svg>
