<svg viewBox="0 0 22 22" xmlns="http://www.w3.org/2000/svg">
 <defs>
  <style type="text/css">.ColorScheme-Text {
        color:#2e3440;
      }</style>
 </defs>
 <path class="ColorScheme-Text" d="m8 3a3 3 0 0 0-3 3 3 3 0 0 0 3 3 3 3 0 0 0 3-3 3 3 0 0 0-3-3zm0 1a2 2 0 0 1 2 2 2 2 0 0 1-2 2 2 2 0 0 1-2-2 2 2 0 0 1 2-2zm4 2v1h7v7h-3-1v1 3h-4v-2h-1v1 1 1h6l4-4v-1-7-1h-8zm-4 4a5 4.5 0 0 0-5 4.5 5 4.5 0 0 0 0.033203 0.5h0.9668 0.044922 7.9102 0.044922 0.96289a5 4.5 0 0 0 0.037109-0.5 5 4.5 0 0 0-5-4.5zm0 1a4 3.5 0 0 1 3.9551 3h-7.9102a4 3.5 0 0 1 3.9551-3z" fill="currentColor"/>
</svg>
