<svg viewBox="0 0 22 22" xmlns="http://www.w3.org/2000/svg">
 <defs>
  <style id="current-color-scheme" type="text/css">
   .ColorScheme-Text { color:#2e3440; } .ColorScheme-Highlight { color:#88c0d0; } .ColorScheme-NeutralText { color:#d08770; } .ColorScheme-PositiveText { color:#a3be8c; } .ColorScheme-NegativeText { color:#bf616a; }
  </style>
 </defs>
 <path class="ColorScheme-Text" d="m8 3a3 3 0 0 0-3 3 3 3 0 0 0 3 3 3 3 0 0 0 3-3 3 3 0 0 0-3-3zm0 1a2 2 0 0 1 2 2 2 2 0 0 1-2 2 2 2 0 0 1-2-2 2 2 0 0 1 2-2zm4 2v1h7v7h-4v4h-4v-2h-1v3h6l4-4v-9h-8zm-4 4a5 4.5 0 0 0-5 4.5 5 4.5 0 0 0 0.033203 0.5h9.929734a5 4.5 0 0 0 0.037109-0.5 5 4.5 0 0 0-5-4.5zm0 1a4 3.5 0 0 1 3.9551 3h-7.9102a4 3.5 0 0 1 3.9551-3z" fill="currentColor"/>
</svg>
