<svg viewBox="0 0 22 22" xmlns="http://www.w3.org/2000/svg">
 <defs>
  <style id="current-color-scheme" type="text/css">
   .ColorScheme-Text { color:#2e3440; } .ColorScheme-Highlight { color:#88c0d0; } .ColorScheme-NeutralText { color:#d08770; } .ColorScheme-PositiveText { color:#a3be8c; } .ColorScheme-NegativeText { color:#bf616a; }
  </style>
 </defs>
 <path class="ColorScheme-Text" d="m5.1113 3v0.81445h2.0723l-2.1836 3.2539v0.73242h3.8281v-0.85156h-2.2461l2.1738-3.293v-0.65625h-3.6445zm7.8887 5.9922v8.293l-2.293-2.293-0.70703 0.70703 3.5 3.5 3.5-3.5-0.70703-0.70703-2.293 2.293v-8.293h-1zm-5.9043 0.0078125c-0.78324 0.0182-1.3851 0.15511-1.8223 0.35547l0.24609 0.90039c0.20947-0.0729 1.0023-0.32617 1.4668-0.32617h0.0625c0.64663 0.0273 0.69336 0.26281 0.69336 0.81836v0.21875l-0.33789 0.054687c-1.5665 0.22769-2.4043 0.4189-2.4043 1.6211 0 0.83789 0.61071 1.3574 1.4941 1.3574 0.6102 0 1.0101-0.25548 1.4199-0.60156l0.12695 0.50976h0.9668v-3.3691c0-1.0291-0.71179-1.5391-1.8047-1.5391h-0.10742zm0.64648 2.6777v1.1191c-0.33697 0.22769-0.59214 0.39258-1.0293 0.39258-0.39162 0-0.58398-0.24572-0.58398-0.5918 0-0.65574 0.57411-0.76505 1.2754-0.86523l0.33789-0.054688z" fill="currentColor"/>
</svg>
