<svg viewBox="0 0 22 22" xmlns="http://www.w3.org/2000/svg">
 <defs>
  <style id="current-color-scheme" type="text/css">
   .ColorScheme-Text { color:#2e3440; } .ColorScheme-Highlight { color:#88c0d0; } .ColorScheme-NeutralText { color:#d08770; } .ColorScheme-PositiveText { color:#a3be8c; } .ColorScheme-NegativeText { color:#bf616a; }
  </style>
 </defs>
 <path class="ColorScheme-Text" d="m11 3c-0.64076 0-1.261 0.083623-1.8574 0.22461-0.278 0.06571-0.54868 0.1465-0.81445 0.24023-0.10736 0.037865-0.21513 0.072986-0.32031 0.11523-0.001907 7.66e-4 -0.0039534 0.0011862-0.0058594 0.0019531-0.61178 0.24629-1.1819 0.56912-1.707 0.95117-0.032855 0.023897-0.065186 0.047881-0.097656 0.072266-0.24039 0.18054-0.4713 0.37213-0.68945 0.57812-0.01141 0.010781-0.02381 0.020402-0.035156 0.03125-0.47059 0.44962-0.88292 0.95678-1.2324 1.5098-0.015468 0.024507-0.029714 0.04953-0.044922 0.074219-0.1643 0.26634-0.31455 0.54206-0.44727 0.82812-0.003924 0.008472-0.0078238 0.016902-0.011719 0.025391-0.28143 0.61224-0.48746 1.2643-0.60742 1.9492-0.079602 0.45447-0.12891 0.92047-0.12891 1.3984 0 3.4035 2.1081 6.2893 5.0918 7.4492 0.002361 0.001041 0.0035244 0.002865 0.0058593 0.003906 0.0063011 0.002443 0.013223 0.003432 0.019531 0.005859 0.33145 0.12755 0.6721 0.23327 1.0234 0.31641 0.004009 9.48e-4 0.0077078 0.002963 0.011719 0.003906 0.59337 0.13943 1.2105 0.2207 1.8477 0.2207 0.6929 0 1.3604-0.096869 2-0.26172v-1.0371c-0.63415 0.18841-1.303 0.29883-2 0.29883-0.84766 0-1.6555-0.15802-2.4062-0.43164 0.013605-0.012717 0.03498-0.018874 0.039062-0.039062 9e-3 -0.0397-0.0096188-0.057614-0.011719-0.12109 0.015-0.0652 0.086009-0.072282 0.099609-0.13867-0.0278-0.0476-0.092866-0.016515-0.13477-0.041015-0.0407-0.0237-0.058534-0.076544-0.052734-0.12695 0.0696-0.029399 0.20402 0.070157 0.25391-0.027343 0.0249-0.0461-0.027841-0.15857 0.0058594-0.20508 0.0234-0.0314 0.15178-0.032816 0.20117-0.041016 0.0709-0.0123 0.15339-0.026634 0.19336-0.052734 0.0436-0.0286 0.10723-0.1111 0.099609-0.19336-4e-3 -0.0394-0.030647-0.05319-0.060547-0.08789-0.0251-0.0292-0.034634-0.06605-0.052734-0.09375-0.0313-0.0468-0.07995-0.038519-0.09375-0.10547 0.0958-0.0188 0.24228 0.078062 0.38086 0.039062 0.0657-0.0185 0.15701-0.15902 0.1875-0.2207 1e-3 -0.0194 0.0092312-0.048465 0.019531-0.072265 0.0123-0.0259 0.037116-0.047147 0.041016-0.060547 1e-3 -0.0364 0.0035187-0.064991 0.011719-0.087891 0.0243-0.0678 0.086833-0.088582 0.12695-0.13867 0.0304-0.0378 0.045419-0.083314 0.074219-0.12109 0.0314-0.0411 0.059378-0.077001 0.080078-0.11328 0.0197-0.12187-0.048131-0.20772-0.019531-0.31445 0.032-0.1199 0.19636-0.192 0.3125-0.24609 0.04-0.0186 0.080721-0.049051 0.11328-0.060546 0.0804-0.028203 0.1804-0.012063 0.25391-0.039063 0.1251-0.0457 0.13949-0.18096 0.20117-0.29492 0.0294-0.0539 0.066466-0.10806 0.072266-0.14648 5e-3 -0.0346-0.01236-0.066582-0.005859-0.10742 0.005995-0.0401 0.043687-0.074861 0.054687-0.11914 0.0145-0.0577 0.019531-0.14262 0.019531-0.20703 0-0.0528-0.024943-0.098714-0.027344-0.14648-9e-3 -0.17315 0.062944-0.19285 0.12695-0.28711 0.0319-0.0468 0.045859-0.10118 0.068359-0.13476 0.10752-0.16049 0.29282-0.23789 0.2793-0.48047-5e-3 -0.0803-0.054101-0.26148-0.11328-0.28711-0.0337-0.014702-0.11127-1.32e-4 -0.16016-0.019532-0.1578-0.0589-0.25055-0.25507-0.41406-0.26758-0.0348-2e-3 -0.068182 0.014472-0.10742 0.013672-0.0647-1e-4 -0.16078-0.044534-0.23242-0.052734-0.0455-5e-3 -0.10744 0.0134-0.13477 0-0.041798-0.0202-0.046278-0.098214-0.080078-0.12109-0.0271-0.0184-0.07834-0.023363-0.11914-0.039063-0.0657-0.0255-0.11942-0.055344-0.19531-0.060547-0.0234-9.99e-4 -0.051025 0.00986-0.078125 0.00586-0.042-6e-3 -0.076354-0.056478-0.11523-0.080078-0.0484-0.0294-0.093221-0.043738-0.11328-0.085938 0.0439-0.14379-0.076009-0.18449-0.10547-0.26758-0.0139-0.0389-0.0068313-0.084472-0.019531-0.11914-0.0173-0.049802-0.067124-0.079614-0.12109-0.12109-0.0966-0.0743-0.18223-0.14312-0.32031-0.16016-0.0607-7e-3 -0.12004 0.018371-0.19336 0.013671-0.0777-5e-3 -0.17624-0.074235-0.23438-0.14062-0.0565-0.0649-0.083502-0.12133-0.13281-0.15234-0.0467-0.0297-0.1088-0.030247-0.14062-0.060547-0.0141-0.0135-0.012844-0.035306-0.027344-0.066406-0.0234-0.048501-0.062503-0.074623-0.033203-0.13281-0.0533-0.0272-0.055021 0.049259-0.11328 0.039063-0.052-0.073701-0.095071-0.10948-0.21289-0.087891-0.0538 1e-3 -0.083514 0.078278-0.14648 0.080078-0.0516 1e-4 -0.092016-0.056606-0.16016-0.066406-0.0515-7e-3 -0.11187 0.015312-0.14844 0.007812-0.0569-0.011-0.074833-0.05945-0.12695-0.09375-0.038-0.0251-0.11137-0.068959-0.13281-0.068359-0.0671 1e-4 -0.11452 0.14278-0.20703 0.09375-0.0451-0.0569 0.072831-0.085402 0.019531-0.13867-0.0404-0.0405-0.073119 0.016762-0.10547 0.039062-0.0369 0.025504-0.072311 0.051307-0.11328 0.066407-0.0917 0.0342-0.14904 0.017687-0.2207 0.054687-0.0665 0.0345-0.069762 0.09192-0.10742 0.16016-0.0309 0.056004-0.10036 0.13725-0.14648 0.14063-0.0559 0.003999-0.10945-0.079633-0.16016-0.10156-0.1529-0.0662-0.22655 0.058747-0.35352 0.060547-0.11782 1e-4 -0.28717-0.19-0.28125-0.30078 0.0039999-0.0675 0.038775-0.17029 0.046875-0.25391 6e-3 -0.0665 0.052134-0.10528 0.052734-0.16602 1e-4 -0.081-0.10564-0.1447-0.1582-0.1543-0.12474-0.0229-0.29845 0.050443-0.44141-0.00586-0.0272-0.045098 0.031575-0.07526 0.046875-0.11914 9e-3 -0.025 0.0044718-0.06039 0.013672-0.087891 0.0158-0.0423 0.060178-0.075994 0.080078-0.12109 0.015-0.0343 0.018003-0.084243 0.033203-0.12695 0.0173-0.0485 0.048934-0.077268 0.052734-0.11133 5e-3 -0.0451-0.011175-0.097243-0.046875-0.12695-0.11096 6e-3 -0.18303 0.0099625-0.24609 0.039062-0.14447 0.0657-0.11742 0.26044-0.26172 0.30664-0.0499 0.0161-0.1189 0.017444-0.17383 0.027344-0.0473 9e-3 -0.10342 0.034103-0.15234 0.033203-0.0577-1e-4 -0.15898-0.05675-0.19336-0.09375-0.012703-0.013738-0.027029-0.053997-0.046875-0.09375 0.078563-0.37965 0.19306-0.74552 0.33008-1.0996 0.093223-0.051019 0.17347-0.12743 0.2832-0.13477 0.0566-4e-3 0.14088 0.016044 0.19531 0.027344 0.0503 1e-3 0.089313 0.043575 0.13281 0.046875 0.12339 1e-3 0.15325-0.086835 0.25391-0.14062 0.10397 0.0146 0.1717-0.018912 0.26562-0.0078125 0.064 7e-3 0.11019 0.078231 0.16016 0.082031 0.0421 2e-3 0.080514-0.041556 0.12109-0.035156 0.0395 6e-3 0.10691 0.092435 0.11328 0.14062 7e-3 0.0599-0.044444 0.11572-0.027344 0.18164 0.0629 0.064 0.17773 0.076411 0.26758 0.11328 0.0585-0.0483 9e-3 -0.13723 0-0.20703-2e-3 -0.0309 4e-3 -0.059591 0-0.087891-6e-3 -0.0481-0.027144-0.091602-0.027344-0.13281-6.1e-4 -0.18999 0.15381-0.2785 0.28125-0.35352 0.0552-0.0326 0.098615-0.089401 0.14648-0.11328 0.0675-0.0338 0.11792-0.042619 0.17383-0.074219 0.10115-0.0568 0.1885-0.10357 0.26758-0.16797 0.0367-0.0861 0.0018594-0.20003 0.0058594-0.28516 0.0367-0.0224 0.066729 0.0098594 0.10547 0.0058594 0.0611-0.013 0.067022-0.10037 0.10156-0.13477 0.02-0.0197 0.074709-0.033134 0.099609-0.052734 0.0609-0.0477 0.079702-0.12008 0.13281-0.14062 0.019-7e-3 0.06375-0.0049719 0.09375-0.013672 0.0397-0.011 0.095716-0.058078 0.16016-0.080078 0.0418-0.0143 0.13827-0.017003 0.1543-0.033203 0.0197-0.02 6.94e-5 -0.075319 0.0058594-0.10547 0.0324-0.15072 0.26032-0.18365 0.39453-0.23438 0.094-0.0357 0.18962-0.10017 0.29297-0.080078-0.0202 0.0716-0.11606 0.045912-0.099609 0.13281 0.0228 0.12076 0.18392-0.034834 0.22656-0.052734 0.0814-0.0342 0.21931-0.05495 0.32617-0.09375 0.0938-0.034 0.26217-0.086179 0.17383-0.19336-0.0737-5e-3 -0.10959 0.085811-0.17383 0.11328-0.0444 6e-3 -0.034466-0.037416-0.072266-0.041016-0.0358-2e-3 -0.05685 0.033744-0.09375 0.027344-0.0367-0.0060001-0.08805-0.064462-0.09375-0.10742-0.0147-0.11144 0.094435-0.15516 0.14062-0.23828-0.0305-0.10078-0.16962-0.021147-0.25391-0.060547 9e-3 -0.0601 0.070545-0.10175 0.14062-0.11328 0.0574-1e-3 0.18648-0.0026094 0.2207 0.025391 0.02 0.0168 0.0016031 0.059991 0.033203 0.087891 0.0341 0.0308 0.074851 0.026831 0.11914 0.019531 0.0161-0.076-0.098436-0.057082-0.085938-0.10742 0.0901-0.059 0.23726-0.0094906 0.34766-0.025391 0.0635-1e-3 0.12924-0.056091 0.18555-0.087891 0.0536-0.0303 0.12481-0.083103 0.18164-0.033203 0.0156 0.0544-0.049778 0.072479-0.080078 0.099609-0.10213 0.0909-0.2077 0.19526-0.28711 0.30078 0.0488 0.0476 0.13632 0.023503 0.21875 0.033203 0.0322 4e-3 0.073362 0.015484 0.10742 0.021484 0.0398 7e-3 0.082121 0.0046187 0.11328 0.011719 0.0562 0.0138 0.071541 0.074219 0.12695 0.074219 0.091298-1.7e-4 0.092715-0.098416 0.041015-0.16016 0.0163-0.063 0.041731-0.096435 0.019531-0.14062-0.0411-0.0823-0.19341-0.0022619-0.20117-0.10742-5e-3 -0.0666 0.055878-0.063421 0.080078-0.11328-0.011-0.12864 0.10616-0.1386 0.09375-0.25391-6e-3 -0.0483-0.046175-0.046597-0.080079-0.091797-0.017498-0.0233-0.025774-0.069991-0.046874-0.087891-0.0698-0.059-0.21016-0.047516-0.21875-0.16016-4e-3 -0.0664 0.015659-0.12126 0.0058594-0.19336-9e-3 -0.0673-0.054421-0.25473-0.11328-0.26758-0.0745-0.0162-0.15285 0.11201-0.24219 0.1543-0.0486 0.0231-0.11731 0.048262-0.16602 0.039062-0.0316-6e-3 -0.094809-0.052111-0.099609-0.11328-6e-3 -0.0701 0.047747-0.071714 0.060547-0.14648-0.011-0.0441-0.058332-0.033306-0.10156-0.066406-0.049-0.0373-0.087084-0.11787-0.15234-0.12695-0.0325-5e-3 -0.075062 0.025144-0.10742 0.027344-0.059672 0.003606-0.10588-0.011467-0.15625-0.027344 0.16088-0.056524 0.32414-0.10744 0.49023-0.15234 0.0311 0.0334 0.042178 0.097151 0.080078 0.11914 0.0253 0.0145 0.069009 0.010131 0.099609 0.019531 0.098 0.0297 0.1799 0.083147 0.28711 0.060547 0.0368-0.0646-0.075703-0.082112-0.033203-0.13281 0.0718 6e-3 0.11853 0.036194 0.17383 0.058594 0.0772-0.0565 0.12776-0.061584 0.125-0.15234-7.22e-4 -0.054777-0.04373-0.080664-0.072266-0.11914 0.0595-0.010042 0.11968-0.018803 0.17969-0.027344 0.01323 0.014508 0.024247 0.036592 0.041016 0.039062 0.038 6e-3 0.15105-0.049547 0.17383-0.060547 0.004228-0.002074 0.011462-0.010333 0.017578-0.013672 0.25252-0.027359 0.50755-0.042969 0.76758-0.042969 1.1956 0 2.3182 0.29807 3.3008 0.82227-0.033141 0.010152-0.065666 0.017198-0.10547 0.03125-0.0471 0.0166-0.13435 0.098133-0.14648 0.12695-0.0201 0.0476 5e-3 0.098685 0 0.17188 0.0381 0.0166 0.061843 0.091233 0.12695 0.12695 0.0246 0.0135 0.056225 0.0068312 0.078125 0.019531 0.0381 0.0215 0.068347 0.069262 0.060547 0.10742-0.011 0.0548-0.081969 0.039478-0.11914 0.080078 0.006003 0.0777-0.054718 0.088735-0.074218 0.14062 0.0123 0.0329 0.061106 0.026906 0.066406 0.066406-7e-3 0.0426-0.082906 0.04885-0.066406 0.09375 0.0715 0.0558 0.14724-0.010831 0.21484-0.019531 0.14935-0.0186 0.30086 0.019266 0.39258-0.052734-0.0125-0.0714 0.076059-0.096416 0.068359-0.16016-6e-3 -0.0481-0.086014-0.054691-0.12109-0.087891-0.0188-0.0178-0.023975-0.05925-0.046875-0.09375-0.0264-0.0396-0.07613-0.066819-0.10547-0.10547-0.039204-0.0521-0.12133-0.12833-0.12109-0.16797 6.1e-4 -0.0455 0.056206-0.056861 0.066406-0.11914-0.0123-0.0572-0.1187-0.019378-0.12695-0.080078 0.002053-0.019406 0.011552-0.032593 0.021484-0.044922 0.30654 0.16756 0.59482 0.36232 0.87109 0.57227-0.003102 4.26e-4 -0.008839-5.24e-4 -0.011719 0-0.0669 0.0123-0.091414 0.096069-0.14648 0.16211-0.0382 0.0461-0.11117 0.094641-0.16797 0.11914-0.0277 0.0123-0.060537 0.011144-0.085937 0.027344-0.0375 0.0249-0.05115 0.084501-0.09375 0.11328-0.0307 0.0208-0.14731 0.079478-0.17969 0.080078-0.038 6.1e-4 -0.072409-0.036144-0.099609-0.027344-0.0401 0.0126-0.036736 0.091362-0.082031 0.10742-0.0885 0.0314-0.23478-0.079166-0.26563 0.052734 0.037901 0.0764 0.13299 0.057409 0.19922 0.099609 0.0417 0.0262 0.12966 0.14282 0.14062 0.1875 1e-3 0.0378-0.004131 0.18645-0.019531 0.22656-0.0413 0.10655-0.13917 0.071059-0.26172 0.068359-0.0335-6.099e-4 -0.068609 0.0088594-0.099609 0.0058594-0.20669-0.014-0.41441-0.088706-0.50781 0.058594 7e-3 0.11329 0.032913 0.1906 0.007813 0.28906-0.0183 0.0723-0.083278 0.13651-0.080078 0.19922 2e-3 0.0322 0.039075 0.063782 0.046875 0.10742 5e-3 0.0233-0.011 0.07265 0 0.09375 0.034 0.0657 0.12518 0.0098312 0.18555 0.019531 0.059 1e-3 0.12757 0.094116 0.12695 0.16016-6.1e-4 0.0461-0.042966 0.12167-0.072266 0.16602-0.0584 0.0885-0.13725 0.093345-0.2207 0.14062-0.0696 0.0395-0.099835 0.10517-0.14062 0.17383-0.0443 0.0742-0.070934 0.1192-0.052734 0.22656-0.0597 0.11831-0.14985 0.19175-0.27344 0.24805-0.0367 0.0166-0.087624 0.022575-0.12109 0.046875-0.0266 0.0192-0.042178 0.070621-0.080078 0.11328-0.0467 0.0522-0.09446 0.073401-0.11914 0.11328-0.019 0.031-0.026075 0.091512-0.046875 0.13281-0.0286 0.056-0.089545 0.083835-0.12695 0.14062-0.017204 0.0262-0.027872 0.078801-0.046876 0.11328-0.042296 0.0769-0.11515 0.13356-0.10742 0.20117 7e-3 0.0655 0.08289 0.075822 0.08789 0.13281 4e-3 0.0322-0.022884 0.050838-0.021484 0.085937 1e-4 0.0512 0.037018 0.087533 0.041015 0.12695 1e-3 0.0992-0.036087 0.13927-0.054687 0.20703-9e-3 0.0324-0.003519 0.06855-0.011719 0.09375-0.0163 0.0495-0.08669 0.095538-0.08789 0.1543-1e-4 0.041803 0.043275 0.074323 0.046875 0.13281 2e-3 0.0402-0.020872 0.083994-0.013672 0.12109 0.0142 0.0727 0.14471 0.15643 0.20117 0.21289 0.0755 0.0755 0.17448 0.13331 0.20703 0.21289 0.0275 0.0675 0.027578 0.15803 0.080078 0.20898 0.0389 0.0374 0.10244 0.06051 0.15234 0.09961 0.0466 0.0362 0.098757 0.06673 0.14844 0.10547 0.0813 0.063604 0.20254 0.19141 0.33203 0.18164 0.067504-5e-3 0.13815-0.060619 0.21484-0.074219 0.079-0.0139 0.18018-0.021771 0.25977-0.013672 0.0611 0.006003 0.12412 0.042163 0.1875 0.039063 0.067-4e-3 0.14467-0.052737 0.2207-0.085937 0.13166-0.057302 0.3272-0.13364 0.51953-0.10547 0.1465 0.0213 0.14071 0.1877 0.24219 0.25195 0.11783 1e-3 0.21147-0.042531 0.30469-0.019531 0.0705 0.0174 0.15536 0.12387 0.16211 0.17969 7e-3 0.0579-0.032516 0.14591-0.041016 0.18164-0.0184 0.0779-0.019203 0.16937-0.033203 0.21875-0.011 0.0382-0.041616 0.061409-0.041016 0.099609 6.1e-4 0.0351 0.044278 0.12208 0.080078 0.16797 0.0439 0.0563 0.11472 0.099116 0.16797 0.16016 0.0977 0.11169 0.13942 0.24718 0.20703 0.39453 0.017163 0.037326 0.03513 0.087643 0.050782 0.13477h2.6855c0.05362-0.21768 0.11473-0.43248 0.15234-0.65625 0.01344-0.079223 0.026-0.15827 0.03711-0.23828 0.049736-0.36201 0.083984-0.72936 0.083984-1.1055 0-0.30216-0.020423-0.59931-0.052734-0.89258-0.032367-0.29377-0.083417-0.5821-0.14648-0.86523-0.048358-0.2171-0.1005-0.43263-0.16602-0.64258-0.01187-0.038036-0.028059-0.073908-0.041016-0.11133-0.039121-0.11905-0.082488-0.23509-0.12695-0.35156-0.056026-0.14675-0.11544-0.29119-0.17969-0.43359-0.002284-0.005063-0.003719-0.010495-0.005859-0.015625-0.001805-0.003978-0.004048-0.0077447-0.005859-0.011719-0.024634-0.054057-0.052333-0.10676-0.078125-0.16016-0.096632-0.20006-0.20014-0.39568-0.3125-0.58594-0.001479-0.002504-0.002425-0.0053105-0.003907-0.0078125-0.058024-0.098004-0.1157-0.19579-0.17773-0.29102-0.15601-0.2395-0.32186-0.47073-0.50195-0.69141-0.17969-0.22018-0.37041-0.43123-0.57227-0.63086-0.092662-0.091644-0.19201-0.17664-0.28906-0.26367-0.001362-0.001221-0.002544-0.0026863-0.003906-0.0039063-0.28275-0.25321-0.57942-0.48994-0.89648-0.70117-1.269-0.8454-2.7938-1.3398-4.4395-1.3398zm-2.5156 1.4707c-0.022823 0.043406-0.045344 0.0873-0.091797 0.10156 0.0123 0.0652-0.076136 0.10662-0.085938 0.1582-6e-3 0.0347 0.0095188 0.075872 0.011719 0.10742 0.02 0.3193-0.24366 0.46955-0.55469 0.46094-0.0611 0.0584-0.045025 0.16799-0.078125 0.24805-0.028 0.0673-0.12805 0.13855-0.19531 0.13281-0.0497-4e-3 -0.10535-0.074724-0.10547-0.12109-1.6e-4 -0.0571 0.082603-0.087084 0.033203-0.15234 0.0069999-0.0444 0.10591-0.069935 0.09375-0.14062-0.0125-0.0736-0.11537-0.035475-0.20703-0.046875-0.051604-0.006963-0.11186-0.036582-0.16602-0.0625 0.41839-0.2763 0.87035-0.50325 1.3457-0.68555zm5.4062 0.75195c-0.0272 4e-3 -0.053972 0.0095366-0.076172 0.023438-0.0508 0.031-0.068162 0.07865-0.10742 0.09375-0.0542 0.0205-0.091609 0.0029343-0.099609 0.052734-6e-3 0.0411 0.034503 0.061109 0.033203 0.099609-0.0197 0.049-0.076138 0.061904-0.085937 0.12109 0.067496 0.11034 0.2305 0.011828 0.31445-0.013672 0.0378-0.011 0.090868-0.0089615 0.11133-0.039062 0.0233-0.0353 0.003084-0.097368 0.021484-0.14844 0.0194-0.0562 0.073006-0.063101 0.066406-0.11328-6e-3 -0.0498-0.095924-0.084272-0.17773-0.076172zm-7.3398 0.77734c0.0606 0.0158 0.22092 0.19139 0.087891 0.24805-0.0126 6e-3 -0.19503 0.024931-0.22656 0.019531-0.0461-7e-3 -0.074424-0.071878-0.12109-0.080078-0.0922-0.0162-0.21609 0.11055-0.2793 0.0058594 0.0161-0.0593 0.081894-0.060978 0.15234-0.080078 0.1251-0.0341 0.27848-0.14156 0.38672-0.11328zm0.25391 0.32227c0.0313 2e-3 0.069682 0.036262 0.10742 0.039062 0.0357 2e-3 0.064036-0.019272 0.085938-0.013672 0.0558 0.0147 0.079944 0.099345 0.027344 0.14062-0.0436 5e-3 -0.06075-0.019472-0.09375-0.013672-0.0907 0.0156-0.1256 0.19338-0.19336 0.1875-0.0639-6e-3 -0.098103-0.16066-0.033203-0.20703 2e-3 -0.0405-0.029444-0.047991-0.027344-0.087891 0.0196-0.025 0.073743-0.049422 0.12695-0.044922zm-0.30078 0.019531c0.0185 6.1e-4 0.034116 0.0060718 0.041016 0.013672-9e-3 0.0711-0.066224 0.066379-0.12109 0.099609-0.0949 0.0573-0.1495 0.1452-0.17969 0.26758-9e-3 0.0359-0.10132 0.12853-0.14648 0.11914-0.10593-0.0222 0.028634-0.21642 0.052734-0.24609 0.0266-0.0329 0.06225-0.06171 0.09375-0.099609 0.0305-0.0368 0.050678-0.087062 0.080078-0.10742 0.0323-0.0222 0.12391-0.048975 0.17969-0.046875zm9.5059 0.041016h0.001953c0.047576 0.012868 0.043924 0.054889 0.080078 0.080078 0.0266 0.0185 0.061897 0.014503 0.091797 0.033203 0.0351 0.0221 0.05415 0.079911 0.09375 0.11328 0.056 0.0471 0.1555 0.081541 0.23438 0.11914 0.015682 0.007459 0.034424 0.01872 0.052734 0.027344 0.050546 0.066268 0.10219 0.13111 0.15039 0.19922-0.001065 0.008907-0.003227 0.01941-0.001953 0.027344 6e-3 0.0396 0.033734 0.081062 0.052734 0.10742 0.0516 0.0711 0.12482 0.1344 0.18164 0.2207-7.04e-4 0.082534 0.033933 0.12937 0.091796 0.15234 0.10756 0.1838 0.2061 0.3723 0.29688 0.56641-0.029694-0.001964-0.060384-0.0040328-0.089844-0.011719-0.0657-0.11587-0.39731-0.12356-0.42578 0.046875-0.012699 0.0752 0.037582 0.18039-0.074218 0.19336-0.071 9e-3 -0.14296-0.07265-0.24024-0.09375-0.0399-9e-3 -0.095933-0.0024719-0.12695-0.013672-0.0728-0.0251-0.064343-0.094482-0.12695-0.13867-0.0364-0.0255-0.13-0.062059-0.1875-0.068359-0.0358-4e-3 -0.069662 0.010859-0.10742 0.0058594-0.0449-5e-3 -0.10856-0.035494-0.14648-0.058594-0.0362-0.0221-0.10994-0.056291-0.11914-0.087891-0.0142-0.0492 0.09025-0.10463 0.09375-0.14648 2e-3 -0.0315-0.039075-0.051109-0.046875-0.099609-5e-3 -0.0293 0.01216-0.060578 0.00586-0.080078-1e-3 -0.0345-0.067304-0.073219-0.12109-0.074219-0.0476-6.1e-4 -0.092103 0.039816-0.13281 0.041016-0.0587 1e-4 -0.1539-0.033044-0.22656-0.027344-0.0445 4e-3 -0.085543 0.030003-0.12695 0.033203-0.11635 1e-3 -0.21077-0.0060001-0.30078 0-0.065605 0.0039999-0.17922 0.024934-0.24024 0.052734-0.031 0.0141-0.05385 0.048159-0.09375 0.068359-0.018 9e-3 -0.042506 0.0086313-0.066406 0.019531-0.0379 0.0172-0.077211 0.057306-0.11328 0.066406-0.0522 0.0134-0.13216-0.0098594-0.22656-0.0058594-0.0678 4e-3 -0.18072 0.0021219-0.18164-0.080078-9.99e-4 -0.12356 0.21144-0.077909 0.32813-0.099609 0.043998-9e-3 0.06667-0.048878 0.11914-0.080078 0.0251-0.015 0.056478-0.017003 0.080078-0.033203 0.0405-0.0278 0.10153-0.094823 0.10742-0.12695 6e-3 -0.0297-0.017172-0.07175-0.013672-0.09375 5e-3 -0.0281 0.037919-0.05795 0.074219-0.09375 0.0563-0.0555 0.11646-0.12959 0.18555-0.16602 0.0472-0.0249 0.11309-0.022947 0.13477-0.060547 0.004996-0.0428-0.00686-0.068562-0.00586-0.10742 0.0291-0.0265 0.047966-0.047534 0.072266-0.052734 0.072-0.0156 0.14277 0.050475 0.22656 0.046875 0.0362-2e-3 0.068562-0.026934 0.10742-0.052734 0.0327-0.0217 0.067609-0.038386 0.09961-0.054688 0.035299-0.0183 0.072454-0.057847 0.11523-0.060547 0.10507-6e-3 0.14563 0.11056 0.19336 0.17383 0.04 0.0526 0.15319 0.14276 0.21875 0.17969 0.0369 0.0207 0.086333 0.022616 0.12695 0.041016 0.0867 0.0389 0.25896 0.16894 0.26172 0.25391 2e-3 0.0424-0.039803 0.074211-0.033203 0.11328 0.0656 0.011 0.13714-0.061243 0.13867-0.12695 6.1e-4 -0.0411-0.041103-0.064172-0.033203-0.10742 0.0307-0.0661 0.1206 0.0016194 0.16016-0.025391-7e-3 -0.0747-0.11007-0.082314-0.17383-0.12109-0.0344-0.021-0.056097-0.065478-0.091797-0.080078-0.0517-0.0212-0.10818-0.015775-0.14844-0.046875-0.037797-0.0292-0.054596-0.094292-0.091796-0.13867-0.0542-0.0645-0.17316-0.075093-0.14062-0.2207 0.015905-0.0216 0.05293-0.054479 0.078125-0.046875zm-8.7148 0.20117c0.0338 6.2e-4 0.064125 0.0044781 0.078125 0.017578-0.0217 0.0882-0.21178 0.066856-0.28125 0.035156 4e-3 -0.0331 0.056009-0.042475 0.099609-0.046875 0.0309-2e-3 0.069526-0.0058594 0.10352-0.0058594zm8.2676 0.16016c-0.0433 0.0142-0.0659 0.1075 0 0.11914 0.0307-0.0184 0.054475-0.043209 0.046875-0.099609-0.0169-0.0183-0.032575-0.024331-0.046875-0.019531zm-8.7012 0.0019532c0.0228-6.1e-4 0.046612 7.656e-4 0.070312 0.0097656-0.0616 0.0515-0.12884 0.079901-0.23438 0.11328-0.0508 0.0161-0.1379 0.037169-0.14648-0.019531-0.011-0.0694 0.074714-0.054447 0.12109-0.060547 0.0584-7e-3 0.12106-0.040769 0.18945-0.042969zm8.6836 0.18555c-0.0215 6e-3 -0.045459 0.020922-0.06836 0.044922 0.001002 0.0746 0.009141 0.12275-0.005859 0.1875 0.043 0.0823 0.13822 0.009325 0.16016-0.046875 0.0258-0.13896-0.021837-0.20305-0.085937-0.18555zm0.56836 0.36914c-0.058666-0.0018479-0.11411 6.599e-4 -0.14844 0.029297 0.0489 0.0801 0.15036 0.10719 0.25976 0.12695 0.0395-0.0296 0.042547-0.095414 0.060547-0.14648-0.047357 6.03e-4 -0.1111-0.0066977-0.16992-0.0097657h-0.001953zm-11.846 2.7109c0.1637-5e-3 0.235 0.20786 0.36719 0.27344 0.0331 0.0167 0.076361 0.017644 0.11914 0.027344 0.0347 7e-3 0.06055 0.021903 0.09375 0.033203 0.0706 0.0239 0.15837 0.021775 0.21484 0.046875 0.0851 0.0378 0.14556 0.19743 0.21875 0.24023 4e-3 0.043201-0.0071406 0.10058 0.0058594 0.13281 0.0346 0.0468 0.083655 0.037759 0.14062 0.068359 0.0681 0.0368 0.089737 0.13116 0.1543 0.16016 0.022 1e-3 0.078111 0.009131 0.11328 0.019531 0.0885 0.0267 0.11746 0.12983 0.19336 0.10742 0.0498-0.0145 0.044835-0.065712 0.052734-0.11328 0.0329-0.035795 0.069814-0.092749 0.12109-0.09375 0.083-9.99e-4 0.090804 0.085396 0.12109 0.16602 0.0169 0.0455 0.060566 0.084803 0.072266 0.13281 0.0205 0.083 0.011141 0.33126-0.0058594 0.38086-0.021 0.0609-0.10355 0.086847-0.1543 0.1543-0.0238 0.0315-0.034534 0.077409-0.052734 0.099609-0.0325 0.0398-0.083072 0.051091-0.10742 0.087891-0.0139 0.0206-0.025862 0.06585-0.039062 0.09375-0.0402 0.085-0.094247 0.14411-0.060547 0.24609 0.0138 0.0419 0.079878 0.06976 0.080078 0.11914 1.3e-4 0.0582-0.12321 0.11007-0.13281 0.17383-7e-3 0.0472 0.037834 0.1336 0.052734 0.19531 0.011 0.0467 0.099433 0.074429 0.12695 0.10547 0.0468 0.0526 0.084133 0.12728 0.12695 0.19336 0.0846 0.12999 0.15196 0.28814 0.23438 0.41406 0.0433 0.066001 0.10377 0.12492 0.13281 0.19336 0.0147 0.0346 0.013444 0.076372 0.027344 0.10742 0.0477 0.10777 0.25844 0.21999 0.36719 0.27344 0.0509 0.025 0.10563 0.034347 0.15234 0.060547 0.0707 0.0395 0.21232 0.14498 0.24805 0.20703 0.032 0.0558 0.050806 0.19063 0.066406 0.2793 0.0206 0.11721 8.594e-4 0.20708 0.0058594 0.33398 0.0039999 0.0687 0.026444 0.13823 0.027344 0.20703 3.1e-4 0.024-0.012772 0.043659-0.013672 0.068359-2e-3 0.0832 0.020872 0.17598 0.013672 0.25977-4e-3 0.0456-0.017072 0.083004-0.013672 0.12109 4e-3 0.0414 0.024144 0.075058 0.027344 0.11133 2e-3 0.0391-0.011812 0.090696-0.0078125 0.12109 9e-3 0.084301 0.071291 0.1495 0.087891 0.22656 0.0132 0.0614 0.021572 0.18821 0.013672 0.26172-5e-3 0.0386-0.027303 0.07687-0.033203 0.11914-0.0039999 0.0334 5e-3 0.06841 0 0.09961-6e-3 0.0467-0.036003 0.083423-0.033203 0.12695 6e-3 0.09 0.10504 0.16387 0.11914 0.25391 0.0049999 0.0302-0.0068594 0.06465-0.0058594 0.09375 9.88e-4 0.02742 0.011616 0.051276 0.019531 0.076172-2.1077-1.2036-3.5254-3.4676-3.5254-6.0781 0-0.31298 0.026979-0.61803 0.066406-0.91992 0.0633 3.1e-4 0.13139-0.066459 0.20117-0.068359zm2.7168 0.75586c0.0641-0.0294 0.080044 0.092933 0.027344 0.10156-0.0499 7e-3 -0.075744-0.079233-0.027344-0.10156zm7.0156 3.2324v4h2v1h3v-2h-4v-1h4v-2h-3v1h-1v-1h-1z" fill="currentColor"/>
</svg>
