<svg viewBox="0 0 22 22" xmlns="http://www.w3.org/2000/svg">
 <defs>
  <style id="current-color-scheme" type="text/css">
   .ColorScheme-Text { color:#2e3440; } .ColorScheme-Highlight { color:#88c0d0; } .ColorScheme-NeutralText { color:#d08770; } .ColorScheme-PositiveText { color:#a3be8c; } .ColorScheme-NegativeText { color:#bf616a; }
  </style>
 </defs>
 <path class="ColorScheme-Text" d="m5 3v5h1v-4h12v10h-4v1h4v3h-4v1h5v-16zm2 3v1h8v-1zm-4 3v10h10v-10zm1 1h8v1l-3.6367 3.5606-1.9102-1.8809-0.72656 0.7207 2.6367 2.5996 3.6367-3.5664v5.5664h-8zm10 0v1h1v-1z" fill="currentColor"/>
 <path class="ColorScheme-NegativeText" d="m16 6v1h1v-1zm-2 2v1h1v-1zm2 0v1h1v-1zm0 2v1h1v-1z" fill="currentColor"/>
</svg>
