<svg viewBox="0 0 22 22" xmlns="http://www.w3.org/2000/svg">
 <defs>
  <style id="current-color-scheme" type="text/css">
   .ColorScheme-Text { color:#2e3440; } .ColorScheme-Highlight { color:#88c0d0; } .ColorScheme-NeutralText { color:#d08770; } .ColorScheme-PositiveText { color:#a3be8c; } .ColorScheme-NegativeText { color:#bf616a; }
  </style>
 </defs>
 <path class="ColorScheme-Text" d="m3 3v3h1v-2h14v5h1v-6h-16zm0 4v12h6v-1h-5v-10h8v1h1v-2h-10zm2 3v1h4v-1h-4zm5 0v9h9v-9h-9zm1 1h7v7h-7v-7zm1 1v2h5v-2h-5zm-7 1v1h2v-1h-2zm0 2v1h4v-1h-4zm9 0v1h1v-1h-1zm2 0v1h1v-1h-1z" fill="currentColor"/>
</svg>
