<svg version="1.1" viewBox="0 0 22 22" xmlns="http://www.w3.org/2000/svg">
 <defs>
  <style id="current-color-scheme" type="text/css">
   .ColorScheme-Text { color:#2e3440; } .ColorScheme-Highlight { color:#88c0d0; } .ColorScheme-NeutralText { color:#d08770; } .ColorScheme-PositiveText { color:#a3be8c; } .ColorScheme-NegativeText { color:#bf616a; }
  </style>
 </defs>
 <g class="ColorScheme-Text" fill="currentColor">
  <rect x="8" y="8" width="2" height="2" ry=".5"/>
  <rect x="11" y="8" width="2" height="2" ry=".5"/>
  <rect x="14" y="8" width="2" height="2" ry=".5"/>
  <rect x="8" y="11" width="2" height="2" ry=".5"/>
  <rect x="11" y="11" width="2" height="2" ry=".5"/>
  <rect x="14" y="11" width="2" height="2" ry=".5"/>
  <rect x="5" y="11" width="2" height="2" ry=".5"/>
 </g>
 <g fill="#a3be8c">
  <rect x="5" y="14" width="2" height="2" ry=".5"/>
  <rect x="8" y="14" width="2" height="2" ry=".5"/>
  <rect x="11" y="14" width="2" height="2" ry=".5"/>
 </g>
 <path class="ColorScheme-Text" d="m5 3c-1.662 0-3 1.338-3 3v10c0 1.662 1.338 3 3 3h11c1.662 0 3-1.338 3-3v-10c0-1.662-1.338-3-3-3zm0 3h11c1.108 0 2 0.892 2 2v8c0 1.108-0.892 2-2 2h-11c-1.108 0-2-0.892-2-2v-8c0-1.108 0.892-2 2-2z" fill="currentColor"/>
</svg>
