<svg version="1.1" viewBox="0 0 22 22" xmlns="http://www.w3.org/2000/svg">
 <defs>
  <style id="current-color-scheme" type="text/css">
   .ColorScheme-Text { color:#2e3440; } .ColorScheme-Highlight { color:#88c0d0; } .ColorScheme-NeutralText { color:#d08770; } .ColorScheme-PositiveText { color:#a3be8c; } .ColorScheme-NegativeText { color:#bf616a; }
  </style>
 </defs>
 <path class="ColorScheme-Text" d="m3 5v12h8v-1h-7v-10h14v4h1v-5h-16zm4.5 2c-0.831 0-1.5 0.669-1.5 1.5v1.5h-1v3h5v-3h-1v-1.5c0-0.831-0.669-1.5-1.5-1.5zm0 1c0.277 0 0.5 0.223 0.5 0.5v1.5h-1v-1.5c0-0.277 0.223-0.5 0.5-0.5zm3.5 0v1h6v-1h-6zm0 2v1h5v-1h-5zm0 2v1h4v-1h-4z" fill="currentColor"/>
 <path d="m18 11-0.99609 0.99414-0.003906-0.003907-5 4.998 0.005859 0.00586-0.005859 0.005859 0.007812 0.007812-0.003906 0.99219h-0.003906v1h2l0.009766-0.009766c4e-3 -2e-5 0.005765 0.001954 0.009765 0.001954l-0.005859-0.00586 0.98633-0.98633 4-3.9961c-4e-3 2e-3 -0.004766 0.00286-0.009766 0.00586l0.009766-0.011719 1-1-2-1.998z" fill="#a3be8c"/>
</svg>
