<svg viewBox="0 0 22 22" xmlns="http://www.w3.org/2000/svg">
 <defs>
  <style id="current-color-scheme" type="text/css">
   .ColorScheme-Text { color:#2e3440; } .ColorScheme-Highlight { color:#88c0d0; } .ColorScheme-NeutralText { color:#d08770; } .ColorScheme-PositiveText { color:#a3be8c; } .ColorScheme-NegativeText { color:#bf616a; }
  </style>
 </defs>
 <path class="ColorScheme-Text" d="m3 3v16h6v-1h-5v-14h10v4h1v-5h-12zm2 2v4h4v-4h-4zm5 0v1h3v-1h-3zm0 2v1h3v-1h-3zm0 2v10h9v-10h-9zm1 1h7v4l-1-1-2 2-1-1-3 3v-7zm-6 1v1h4v-1h-4zm8 0c-0.554 0-1 0.446-1 1s0.446 1 1 1 1-0.446 1-1-0.446-1-1-1zm-8 2v1h4v-1h-4zm0 2v1h4v-1h-4z" fill="currentColor"/>
</svg>
