<svg version="1.1" viewBox="0 0 22 22" xmlns="http://www.w3.org/2000/svg">
 <style type="text/css">.ColorScheme-Text { color: #2e3440; }</style>
 <path class="ColorScheme-Text" d="m3 6v10h16v-10zm3 1h10v1h1v1h1v4h-1v1h-1v1h-10v-1h-1v-1h-1v-4h1v-1h1zm5 1c-1.6569 0-3 1.3431-3 3s1.3431 3 3 3 3-1.3431 3-3-1.3431-3-3-3zm-0.05078 1h2e-3c0.01628-1.99e-4 0.03255-1.99e-4 0.04883 0 1.1046 0 2 0.89543 2 2s-0.89543 2-2 2c-1.1046 0-2-0.89543-2-2-3.498e-4 -1.085 0.86453-1.9724 1.9492-2z" fill="currentColor"/>
</svg>
