<svg viewBox="0 0 22 22" xmlns="http://www.w3.org/2000/svg">
 <defs>
  <style id="current-color-scheme" type="text/css">
   .ColorScheme-Text { color:#2e3440; } .ColorScheme-Highlight { color:#88c0d0; } .ColorScheme-NeutralText { color:#d08770; } .ColorScheme-PositiveText { color:#a3be8c; } .ColorScheme-NegativeText { color:#bf616a; }
  </style>
 </defs>
 <path class="ColorScheme-Text" d="m3 3v16h11v-1h-10v-11h14v7h1v-11h-2v3h-2v-3h-8v3h-2v-3h-2zm2 5v3h1v-1h4v1h1v-3h-1v1h-4v-1h-1zm4 4v3h1v-1h4v1h1v-3h-1v1h-4v-1h-1zm7 2v2h-2v1h2v2h1v-2h2v-1h-2v-2h-1z" fill="currentColor"/>
 <path class="ColorScheme-Highlight" transform="translate(-421.71 -525.79)" d="m433.71 532.79h0.99995c1e-5 0 2e-5 1e-5 2e-5 3e-5v11c0 2e-5 -1e-5 3e-5 -2e-5 3e-5h-0.99995c-1e-5 0-3e-5 -1e-5 -3e-5 -3e-5v-11c0-2e-5 2e-5 -3e-5 3e-5 -3e-5z" fill="currentColor"/>
</svg>
