<svg version="1.1" viewBox="0 0 22 22" xmlns="http://www.w3.org/2000/svg">
 <style type="text/css">.ColorScheme-Text { color: #2e3440; }.ColorScheme-NegativeText { color: #bf616a; }</style>
 <path class="ColorScheme-Text" d="m5.1211 3 1 1h11.879v11.879l1 1v-13.879h-13.879zm2 2 1 1h4.8789v-1h-5.8789zm6.8789 0v1h3v-1h-3zm-4.8789 2 1 1h0.87891v-1h-1.8789zm-4.1211 0.12109v3.8789h-2v8h13.879l-1-1h-11.879v-6h5.8789l-1-1h-2.8789v-2.8789l-1-1zm8.1211 3.8789 1 1h1.8789v1.8789l1 1v-3.8789h-3.8789zm-6.1602 1.5391c-0.35618-0.005387-0.72096 0.1709-0.99609 0.45898-0.25847 0.27064-0.40712 0.56463-0.54102 0.79883-0.1395 0.244-0.21928 0.46998-0.30078 0.64648l-0.021484 0.048829-0.089844 0.39844c-0.060631 0.26971 0.042698 0.54916 0.3125 0.60938 0.26971 0.06063 0.60384-0.12082 0.66406-0.39062 0.02833-0.29704 0.20139-0.56242 0.30469-0.81641 0.14521-0.25399 0.26462-0.46748 0.39453-0.60352 0.18542-0.19415 0.24057-0.1584 0.25586-0.15234 0.015292 0.0061 0.1158 0.074544 0.15039 0.33984 0.00405 0.0311-0.0060198 0.18626-0.029297 0.30859-0.036624 0.11469-0.047591 0.24884-0.068359 0.35742 0.0041098 0.43961 0.11452 1.0681 1.0039 0.95703s1.037-0.67986 1.1523-0.8457c0.072757 0.08508 0.14273 0.16996 0.24414 0.27539 0.14374 0.14944 0.30945 0.31111 0.56641 0.41211 0.25695 0.101 0.64875 0.070044 0.91016-0.13477 0.04952-0.0388 0.057559-0.070515 0.099609-0.10938 0.04353 0.07058 0.051892 0.09048 0.10742 0.17578 0.15064 0.23246 0.46156 0.29815 0.69336 0.14648 0.23246-0.15064 0.29815-0.46156 0.14648-0.69336-0.18284-0.28087-0.28142-0.45772-0.34961-0.57812-0.034099-0.06021-0.052714-0.10085-0.10937-0.17578-0.028331-0.03747-0.061191-0.092253-0.18164-0.1582-0.12046-0.06595-0.3863-0.069097-0.51562 0.007813-0.11286 0.09243-0.19032 0.2399-0.27734 0.34961-0.03156 0.05098-0.06577 0.093329-0.16016 0.17578-0.09968 0.02886-0.12522-0.024256-0.20898-0.11133-0.1006-0.10458-0.20902-0.23936-0.32422-0.36719-0.057602-0.06391-0.11488-0.12683-0.19531-0.19141-0.08043-0.06457-0.18615-0.15682-0.40625-0.16602-0.26742-0.01118-0.45252 0.12318-0.57227 0.23242s-0.20303 0.22157-0.2793 0.33008c-0.15253 0.21702-0.31117 0.43768-0.30664 0.43359 4e-3 -0.003599-0.011783-0.002353-0.017578-0.001953 0.012862-0.05233 0.017073-0.058302 0.03125-0.13281 0.032491-0.17077 0.06959-0.37784 0.037109-0.62695-0.066097-0.50694-0.32058-0.95927-0.77344-1.1387-0.11321-0.044842-0.23088-0.066561-0.34961-0.06836zm-1.9609 3.4609v1h7v-1h-7zm8 0v1h1.8789l-1-1h-0.87891z" fill="currentColor"/>
 <path class="ColorScheme-NegativeText" d="m3.707 3-0.70703 0.70703 15.293 15.293 0.70703-0.70703z" fill="currentColor"/>
</svg>
