<svg version="1.1" viewBox="0 0 22 22" xmlns="http://www.w3.org/2000/svg">
 <style type="text/css">.ColorScheme-NegativeText { color: #bf616a; }.ColorScheme-Text { color: #2e3440; }</style>
 <path class="ColorScheme-Text" d="m5.1211 3 1 1h9.8789v1h1v1h1v2h1v-5h-13.879zm5.8789 2a3 3 0 0 0-2.4727 1.4062l0.70703 0.70703a2 2 0 0 1 1.7148-1.1133 2 2 0 0 1 0.001953 0 2 2 0 0 1 0.048828 0 2 2 0 0 1 2 2h1a3 3 0 0 0-3-3zm-8 0.12109v2.8789h1v-1.8789l-1-1zm0 3.8789v5h1v-2h1v-1h1v-1h1.8789l-1-1h-3.8789zm8.1211 0 1 1h3.8789v1h1v1h1v2h1v-5h-7.8789zm-1.7148 2.5273a3 3 0 0 0-1.4062 2.4727h1a2 2 0 0 1 1.1211-1.7578l-0.71484-0.71484zm-6.4062 3.4727v4h1v-1h1v-1h1v-1h7.8789l-1-1h-9.8789zm14.121 0 1.8789 1.8789v-1.8789h-1.8789zm-6.1211 2a3 3 0 0 0-2.8008 2h1.0742a2 2 0 0 1 1.6758-1 2 2 0 0 1 0.001953 0 2 2 0 0 1 0.048828 0 2 2 0 0 1 1.7227 1h1.1016a3 3 0 0 0-2.8242-2z" fill="currentColor"/>
 <path class="ColorScheme-NegativeText" d="m3.707 3-0.70703 0.70703 15.293 15.293 0.70703-0.70703z" fill="currentColor"/>
</svg>
