<svg viewBox="0 0 22 22" xmlns="http://www.w3.org/2000/svg">
 <style type="text/css">.ColorScheme-Text {
            color:#2e3440;
        }
        .ColorScheme-NegativeText {
            color:#bf616a;
        }</style>
 <path class="ColorScheme-Text" d="m5 3v8h-2v1h10v-1h-7v-7h12v8h1v-9zm2 2v1h6v-1zm0 2v1h4v-1zm-4 6v6h10v-6zm13 1v2h-2v1h2v2h1v-2h2v-1h-2v-2zm-6 1h2v2h-2zm-6 2h1v1h-1zm2 0h1v1h-1zm2 0h1v1h-1z" fill="currentColor"/>
 <path class="ColorScheme-NegativeText" d="m14 5v1h3v-1z" fill="currentColor"/>
</svg>
