<svg viewBox="0 0 22 22" xmlns="http://www.w3.org/2000/svg">
 <defs>
  <style id="current-color-scheme" type="text/css">
   .ColorScheme-Text { color:#2e3440; } .ColorScheme-Highlight { color:#88c0d0; } .ColorScheme-NeutralText { color:#d08770; } .ColorScheme-PositiveText { color:#a3be8c; } .ColorScheme-NegativeText { color:#bf616a; }
  </style>
 </defs>
 <path class="ColorScheme-Text" d="m5.707 3-0.70703 0.70703 7.293 7.293-7.293 7.293 0.70703 0.70703 8-8-8-8" fill="currentColor"/>
 <path d="m16.766 12.014a2 2 0 0 0-1.7676 1.8965 2 2 0 0 0 0 0.08984h1a1 1 0 0 1 0.88281-0.99414h0.11524v-0.99219h-0.23047zm0.23242 2e-3v1a1 1 0 0 1 0.99414 0.88281v0.11523h0.0059a1 1 0 0 1-0.88281 0.99414l-0.11528-4.7e-5v-0.0078a2 2 0 0 0-0.19922 2e-3 2 2 0 0 0-0.80078 0.2187v-0.20703h-2e-3v2h1v-1.0137h0.23247a2 2 0 0 0 1.7676-1.8965 2 2 0 0 0 0-0.08984h-0.01367v-0.23047a2 2 0 0 0-1.8965-1.7676 2 2 0 0 0-0.08984 0zm-0.99805 5.9843v1h1v-1h-1z" fill="#ebcb8b"/>
</svg>
