<svg viewBox="0 0 22 22" xmlns="http://www.w3.org/2000/svg">
 <defs>
  <style type="text/css">.ColorScheme-NegativeText {
                color:#bf616a;
            }</style>
 </defs>
 <g class="ColorScheme-NegativeText" transform="translate(-421.71 -525.79)">
  <circle cx="432.71" cy="536.79" r="6" fill="#fff"/>
  <path d="M432.714 528.79a8 8 0 0 0-8 8 8 8 0 0 0 8 8 8 8 0 0 0 8-8 8 8 0 0 0-8-8m-3.293 4l3.293 3.294 3.293-3.293.707.707-3.293 3.293 3.293 3.293-.707.707-3.293-3.293-3.293 3.293-.707-.707 3.293-3.293-3.293-3.293.707-.707" fill="#bf616a"/>
 </g>
</svg>
