<svg version="1.1" viewBox="0 0 22 22" xmlns="http://www.w3.org/2000/svg">
 <defs>
  <style id="current-color-scheme" type="text/css">
   .ColorScheme-Text { color:#2e3440; } .ColorScheme-Highlight { color:#88c0d0; } .ColorScheme-NeutralText { color:#d08770; } .ColorScheme-PositiveText { color:#a3be8c; } .ColorScheme-NegativeText { color:#bf616a; }
  </style>
 </defs>
 <path class="ColorScheme-Text" d="m3 3v2h1v-1h1v-1zm5 0v1h2v-1zm7.5 0-0.70898 0.70703-2.1211 2.1211 0.70703 0.70703 1.623-1.6211v4.6562h0.99805v-4.6562l1.623 1.6211 0.70703-0.70703zm-12.5 5v2h1v-2zm15 4v2h1v-2zm-15 1v6h6v-6zm1 1h4v4h-4zm14 3v1h-1v1h2v-2zm-6 1v1h2v-1z" fill="currentColor"/>
</svg>
