<svg width="64" height="64" version="1.1" viewBox="0 0 16.933 16.933" xmlns="http://www.w3.org/2000/svg">
 <defs>
  <filter id="filter2347-3" x="-.024546" y="-.029999" width="1.0491" height="1.06" color-interpolation-filters="sRGB">
   <feGaussianBlur stdDeviation="0.14938518"/>
  </filter>
  <filter id="filter2161-7" x="-.024009" y="-.030842" width="1.048" height="1.0617" color-interpolation-filters="sRGB">
   <feGaussianBlur stdDeviation="0.146119"/>
  </filter>
  <linearGradient id="linearGradient2575" x1="26.221" x2="26.221" y1="14.474" y2="3.3043" gradientUnits="userSpaceOnUse">
   <stop stop-color="#2e3440" stop-opacity=".15" offset="0"/>
   <stop stop-color="#2e3440" stop-opacity="0" offset="1"/>
  </linearGradient>
 </defs>
 <g transform="translate(2.4e-5,1.327e-4)">
  <g transform="translate(-17.964 -.21096)" stroke-linecap="round" stroke-linejoin="round">
   <g stroke-width=".16404">
    <path transform="matrix(1.01 0 0 1.01 17.858 -.15638)" d="m2.0282 2.7764h4.6989c0.58902 0 0.64003 1.0583 1.3149 1.0583h6.9051c0.4674 0 0.84368 0.37628 0.84368 0.84368v9.2054c0 0.4674-0.37628 0.84368-0.84368 0.84368h-12.919c-0.4674 0-0.84368-0.37628-0.84368-0.84368v-10.264c0-0.4674 0.37628-0.84368 0.84368-0.84368z" fill="#2e3440" filter="url(#filter2347-3)" opacity=".15"/>
    <path d="m19.971 2.6366h4.6989c0.58902 0 0.64003 1.0583 1.3149 1.0583h6.9051c0.4674 0 0.84368 0.37628 0.84368 0.84368v9.2054c0 0.4674-0.37628 0.84368-0.84368 0.84368h-12.919c-0.4674 0-0.84368-0.37628-0.84368-0.84368v-10.264c0-0.4674 0.37628-0.84368 0.84368-0.84368z" fill="#81a1c1"/>
    <path d="m19.971 2.6366h4.6989c0.58902 0 0.64003 1.0583 1.3149 1.0583h6.9051c0.4674 0 0.84368 0.37628 0.84368 0.84368v9.2054c0 0.4674-0.37628 0.84368-0.84368 0.84368h-12.919c-0.4674 0-0.84368-0.37628-0.84368-0.84368v-10.264c0-0.4674 0.37628-0.84368 0.84368-0.84368z" fill="#2e3440" opacity=".15"/>
   </g>
   <g stroke-width=".16365">
    <path d="m19.971 3.8487h4.6989c0.58902 0 0.64003-1.0533 1.3149-1.0533h6.9051c0.4674 0 0.84368 0.3745 0.84368 0.83969v9.691c0 0.46519-0.37628 0.83969-0.84368 0.83969h-12.919c-0.4674 0-0.84368-0.3745-0.84368-0.83969v-8.6377c0-0.46519 0.37628-0.83969 0.84368-0.83969z" fill="#2e3440" filter="url(#filter2161-7)" opacity=".15"/>
    <path d="m19.971 4.2271h4.6989c0.58902 0 0.64003-1.0533 1.3149-1.0533h6.9051c0.4674 0 0.84368 0.3745 0.84368 0.83969v9.691c0 0.46519-0.37628 0.83969-0.84368 0.83969h-12.919c-0.4674 0-0.84368-0.3745-0.84368-0.83969v-8.6377c0-0.46519 0.37628-0.83969 0.84368-0.83969z" fill="#81a1c1"/>
    <path d="m19.971 4.2271h4.6989c0.58902 0 0.64003-1.0533 1.3149-1.0533h6.9051c0.4674 0 0.84368 0.3745 0.84368 0.83969v9.691c0 0.46519-0.37628 0.83969-0.84368 0.83969h-12.919c-0.4674 0-0.84368-0.3745-0.84368-0.83969v-8.6377c0-0.46519 0.37628-0.83969 0.84368-0.83969z" fill="url(#linearGradient2575)"/>
   </g>
  </g>
 </g>
 <g transform="matrix(.26458 0 0 .26458 -.26016 -.28462)">
  <path class="st0" d="m42.062 37.869 0.71726 0.71726c0.18875 0.18875 0.18875 0.49076 0 0.67951l-0.58513 0.58513c0.151 0.302 0.28313 0.62288 0.35863 0.96264h0.75501c0.26425 0 0.49076 0.2265 0.49076 0.49076v1.0193c0 0.26425-0.2265 0.49076-0.49076 0.49076h-0.81163c-0.09438 0.32088-0.24538 0.64176-0.41526 0.92488l0.52851 0.52851c0.18875 0.18875 0.18875 0.49076 0 0.67951l-0.71726 0.71726c-0.18875 0.18875-0.49076 0.18875-0.67951 0l-0.58513-0.58513c-0.302 0.151-0.62288 0.28313-0.96264 0.35863v0.75501c0 0.26425-0.2265 0.49076-0.49076 0.49076h-1.0193c-0.26425 0-0.49076-0.2265-0.49076-0.49076v-0.83051c-0.32088-0.09438-0.64176-0.24538-0.92489-0.41525l-0.52851 0.52851c-0.18875 0.18875-0.49076 0.18875-0.67951 0l-0.71726-0.71726c-0.18875-0.18875-0.18875-0.49076 0-0.67951l0.58513-0.58513c-0.151-0.302-0.28313-0.62288-0.35863-0.96264h-0.75501c-0.26425 0-0.49076-0.2265-0.49076-0.49076v-1.0193c0-0.26425 0.2265-0.49076 0.49076-0.49076h0.81164c0.09438-0.32088 0.24538-0.64176 0.41525-0.92489l-0.50963-0.50963c-0.18875-0.18875-0.18875-0.49076 0-0.67951l0.71726-0.71726c0.18875-0.18875 0.49076-0.18875 0.67951 0l0.58513 0.58513c0.302-0.151 0.62288-0.28313 0.96264-0.35863v-0.75501c0-0.26425 0.2265-0.49076 0.49076-0.49076h1.0193c0.26425 0 0.49076 0.2265 0.49076 0.49076v0.81163c0.32088 0.09438 0.64176 0.24538 0.92489 0.41526l0.5285-0.52851c0.151-0.18875 0.47188-0.18875 0.66063 0zm-12.08 1.1136c-0.26425 0-0.47188-0.26425-0.47188-0.56626 0-0.32088 0.20763-0.56626 0.47188-0.56626h2.3405c0.26425 0 0.47188 0.26425 0.47188 0.56626 0 0.32088-0.20763 0.56626-0.47188 0.56626zm0.69838 5.6814c0.32088 0 0.56626 0.26425 0.56626 0.56626 0 0.32088-0.26425 0.56626-0.56626 0.56626h-7.1726c-0.35863 0-0.69838-0.151-0.94376-0.39638s-0.39638-0.56626-0.39638-0.94376v-19.649c0-0.3775 0.151-0.69838 0.39638-0.94376s0.56626-0.39638 0.94376-0.39638h16.365c0.35863 0 0.69838 0.151 0.94376 0.39638s0.39638 0.56626 0.39638 0.94376v9.1167c0 0.32088-0.26425 0.56626-0.56626 0.56626-0.32088 0-0.56626-0.26425-0.56626-0.56626v-9.1167c0-0.05663-0.01887-0.09438-0.05663-0.13213-0.03774-0.03775-0.0755-0.05663-0.13213-0.05663h-16.384c-0.05663 0-0.09438 0.01887-0.13212 0.05663-0.03775 0.01887-0.05663 0.0755-0.05663 0.13213v19.687c0 0.05662 0.01887 0.09438 0.05663 0.13213 0.03775 0.03774 0.0755 0.05662 0.13212 0.05662h7.1726zm-4.9642-7.2103h2.0196c0.11325 0 0.18875 0.0755 0.18875 0.18875v1.7365c0 0.11325-0.0755 0.18875-0.18875 0.18875h-2.0196c-0.11325 0-0.18875-0.0755-0.18875-0.18875v-1.7365c0-0.11325 0.0755-0.18875 0.18875-0.18875zm0-9.985h2.0196c0.11325 0 0.18875 0.0755 0.18875 0.18875v1.7365c0 0.11325-0.0755 0.18875-0.18875 0.18875h-2.0196c-0.11325 0-0.18875-0.0755-0.18875-0.18875v-1.7365c0-0.11325 0.0755-0.18875 0.18875-0.18875zm4.2658 1.5289c-0.26425 0-0.47188-0.26425-0.47188-0.56626 0-0.32088 0.20763-0.56626 0.47188-0.56626h6.5497c0.26425 0 0.47188 0.26425 0.47188 0.56626 0 0.32088-0.20763 0.56626-0.47188 0.56626zm-3.6807 5.3039c-0.13213 0.09438-0.302 0.0755-0.43413-0.05663-0.01887-0.01887-0.01887-0.01887-0.03775-0.03774l-0.60401-0.62288c-0.13213-0.13213-0.09438-0.33975 0.05663-0.49076 0.16988-0.13213 0.39638-0.151 0.52851-0.01887l0.32088 0.33975 1.057-0.84938c0.13212-0.11325 0.35863-0.05663 0.47188 0.11325 0.13213 0.16988 0.11325 0.41526-0.03774 0.52851zm3.3598-0.49076c-0.26425 0-0.47188-0.26425-0.47188-0.56626 0-0.32088 0.20763-0.56626 0.47188-0.56626h6.5497c0.26425 0 0.47188 0.26425 0.47188 0.56626 0 0.32088-0.20763 0.56626-0.47188 0.56626zm9.1356 5.8702c1.0948 0 2.0008 0.88713 2.0008 2.0008 0 1.0948-0.88714 2.0008-2.0008 2.0008-1.0948 0-2.0008-0.88714-2.0008-2.0008s0.90601-2.0008 2.0008-2.0008z" clip-rule="evenodd" fill-rule="evenodd" opacity=".15" stroke-width=".18875"/>
 </g>
</svg>
