<svg id="svg8882" width="64" height="64" version="1.1" viewBox="0 0 16.933 16.933" xmlns="http://www.w3.org/2000/svg">
 <defs id="defs8854">
  <filter id="filter2347-3" x="-.024545776" y="-.029998631" width="1.0490916" height="1.0599973" color-interpolation-filters="sRGB">
   <feGaussianBlur id="feGaussianBlur8843" stdDeviation="0.14938518"/>
  </filter>
  <filter id="filter2161-7" x="-.024009103" y="-.03084203" width="1.0480182" height="1.0616841" color-interpolation-filters="sRGB">
   <feGaussianBlur id="feGaussianBlur8846" stdDeviation="0.146119"/>
  </filter>
  <linearGradient id="linearGradient2575" x1="26.221" x2="26.221" y1="14.474" y2="3.3043" gradientUnits="userSpaceOnUse">
   <stop id="stop8849" stop-color="#2e3440" stop-opacity=".15" offset="0"/>
   <stop id="stop8851" stop-color="#2e3440" stop-opacity="0" offset="1"/>
  </linearGradient>
 </defs>
 <g id="g8874" transform="translate(2.4e-5,1.327e-4)">
  <g id="g8872" transform="translate(-17.964 -.21096)" stroke-linecap="round" stroke-linejoin="round">
   <g id="g8862" stroke-width=".16404">
    <path id="path8856" transform="matrix(1.01 0 0 1.01 17.858 -.15638)" d="m2.0282 2.7764h4.6989c0.58902 0 0.64003 1.0583 1.3149 1.0583h6.9051c0.4674 0 0.84368 0.37628 0.84368 0.84368v9.2054c0 0.4674-0.37628 0.84368-0.84368 0.84368h-12.919c-0.4674 0-0.84368-0.37628-0.84368-0.84368v-10.264c0-0.4674 0.37628-0.84368 0.84368-0.84368z" fill="#2e3440" filter="url(#filter2347-3)" opacity=".15"/>
    <path id="path8858" d="m19.971 2.6366h4.6989c0.58902 0 0.64003 1.0583 1.3149 1.0583h6.9051c0.4674 0 0.84368 0.37628 0.84368 0.84368v9.2054c0 0.4674-0.37628 0.84368-0.84368 0.84368h-12.919c-0.4674 0-0.84368-0.37628-0.84368-0.84368v-10.264c0-0.4674 0.37628-0.84368 0.84368-0.84368z" fill="#a3be8c"/>
    <path id="path8860" d="m19.971 2.6366h4.6989c0.58902 0 0.64003 1.0583 1.3149 1.0583h6.9051c0.4674 0 0.84368 0.37628 0.84368 0.84368v9.2054c0 0.4674-0.37628 0.84368-0.84368 0.84368h-12.919c-0.4674 0-0.84368-0.37628-0.84368-0.84368v-10.264c0-0.4674 0.37628-0.84368 0.84368-0.84368z" fill="#2e3440" opacity=".15"/>
   </g>
   <g id="g8870" stroke-width=".16365">
    <path id="path8864" d="m19.971 3.8487h4.6989c0.58902 0 0.64003-1.0533 1.3149-1.0533h6.9051c0.4674 0 0.84368 0.3745 0.84368 0.83969v9.691c0 0.46519-0.37628 0.83969-0.84368 0.83969h-12.919c-0.4674 0-0.84368-0.3745-0.84368-0.83969v-8.6377c0-0.46519 0.37628-0.83969 0.84368-0.83969z" fill="#2e3440" filter="url(#filter2161-7)" opacity=".15"/>
    <path id="path8866" d="m19.971 4.2271h4.6989c0.58902 0 0.64003-1.0533 1.3149-1.0533h6.9051c0.4674 0 0.84368 0.3745 0.84368 0.83969v9.691c0 0.46519-0.37628 0.83969-0.84368 0.83969h-12.919c-0.4674 0-0.84368-0.3745-0.84368-0.83969v-8.6377c0-0.46519 0.37628-0.83969 0.84368-0.83969z" fill="#a3be8c"/>
    <path id="path8868" d="m19.971 4.2271h4.6989c0.58902 0 0.64003-1.0533 1.3149-1.0533h6.9051c0.4674 0 0.84368 0.3745 0.84368 0.83969v9.691c0 0.46519-0.37628 0.83969-0.84368 0.83969h-12.919c-0.4674 0-0.84368-0.3745-0.84368-0.83969v-8.6377c0-0.46519 0.37628-0.83969 0.84368-0.83969z" fill="url(#linearGradient2575)"/>
   </g>
  </g>
 </g>
 <path id="path1683" d="m8.4233547 12.548218c-0.071845-0.0086-0.1458953-0.0382-0.2051552-0.08183-0.0223-0.01643-2.9322811-2.9230594-2.95876-2.9553844-0.04523-0.05522-0.074404-0.116774-0.090029-0.190011-0.00893-0.04179-0.00893-0.120691 0-0.162474 0.015077-0.07064 0.044455-0.133781 0.086509-0.185881 0.0061-0.0075 0.4604273-0.4632966 1.0095939-1.0127104l0.9984828-0.9989437 0.374868 0.3748631 0.3748728 0.3748633-0.00664 0.016869c-0.03505 0.088806-0.041062 0.2076185-0.015561 0.3060148 0.016822 0.064789 0.044843 0.1222618 0.087266 0.1789961 0.020846 0.027873 0.068044 0.07492 0.09669 0.096399 0.027488 0.020605 0.072398 0.047511 0.096205 0.057633l0.018082 0.00771v1.8133922l-0.026808 0.01295c-0.1391229 0.06726-0.2370247 0.18816-0.2744403 0.338897-0.012701 0.05111-0.01658 0.136412-0.00862 0.189138 0.00538 0.03563 0.016337 0.07802 0.027923 0.108015 0.076339 0.197665 0.2641435 0.326859 0.47467 0.326529 0.240908-3.78e-4 0.4481332-0.171245 0.4958892-0.408886 0.00765-0.0382 0.010472-0.120403 0.00542-0.160466-0.015852-0.126629-0.082626-0.247797-0.1798447-0.326458-0.027681-0.0224-0.064699-0.04722-0.085273-0.05721l-0.013089-0.0063v-1.7985385l0.3412531 0.3414719 0.3412581 0.3414712-0.010665 0.03166c-0.055547 0.165258-0.022882 0.345554 0.087188 0.481079 0.103443 0.127381 0.2638527 0.196624 0.4287566 0.185071 0.159566-0.01115 0.303973-0.0974 0.391573-0.233801 0.0317-0.04937 0.05926-0.120013 0.07038-0.180373 0.0072-0.03864 0.0097-0.104166 0.0057-0.141489-0.01382-0.125801-0.06849-0.235066-0.160562-0.320902-0.03655-0.034082-0.06917-0.056508-0.116532-0.080134-0.04634-0.023124-0.07724-0.033933-0.1278856-0.044696-0.031804-0.00678-0.039705-0.00734-0.097926-0.00734-0.05849 0-0.065969 4.852e-4 -0.097756 0.00743-0.018956 0.0039-0.041885 0.0098-0.050946 0.012649l-0.016531 0.0052-0.3665299-0.3661473-0.3664958-0.3661471 0.00751-0.025253c0.014204-0.047847 0.017646-0.074967 0.017694-0.1395211 1.018e-4 -0.062382-0.00194-0.079437-0.014349-0.1280549-0.047352-0.1843878-0.1992201-0.3293961-0.384955-0.3675582-0.045521-0.00936-0.099569-0.012749-0.142972-0.00907-0.036165 0.00291-0.088832 0.013187-0.1124793 0.021524l-0.011494 0.0038798-0.3801181-0.3801375-0.3801134-0.3801376 0.3139356-0.3133733c0.3412145-0.3406131 0.3341754-0.3341266 0.3965427-0.3651964 0.035437-0.017646 0.068567-0.029136 0.1087755-0.037668 0.038346-0.00814 0.1175841-0.00893 0.155591-0.00145 0.073885 0.014397 0.1384686 0.044115 0.1941458 0.089341 0.033207 0.027003 2.9434855 2.9400136 2.9595405 2.9623426 0.06309 0.08775 0.09142 0.19111 0.08078 0.294684-8e-3 0.07792-0.03418 0.145775-0.08256 0.214051-0.01648 0.02327-2.9307691 2.9376854-2.9560699 2.9562034-0.056336 0.04125-0.1165321 0.06734-0.1827195 0.0792-0.030105 0.0054-0.094106 0.0074-0.1232657 0.0039z" style="opacity:.15;stroke-width:.0027538"/>
</svg>
