<svg id="svg4732" width="64" height="64" version="1.1" viewBox="0 0 16.933 16.933" xmlns="http://www.w3.org/2000/svg">
 <defs id="defs4712">
  <filter id="filter2347-3" x="-.024545776" y="-.029998631" width="1.0490916" height="1.0599973" color-interpolation-filters="sRGB">
   <feGaussianBlur id="feGaussianBlur4701" stdDeviation="0.14938518"/>
  </filter>
  <filter id="filter2161-7" x="-.024009103" y="-.03084203" width="1.0480182" height="1.0616841" color-interpolation-filters="sRGB">
   <feGaussianBlur id="feGaussianBlur4704" stdDeviation="0.146119"/>
  </filter>
  <linearGradient id="linearGradient2575" x1="26.221" x2="26.221" y1="14.474" y2="3.3043" gradientUnits="userSpaceOnUse">
   <stop id="stop4707" stop-color="#2e3440" stop-opacity=".15" offset="0"/>
   <stop id="stop4709" stop-color="#2e3440" stop-opacity="0" offset="1"/>
  </linearGradient>
 </defs>
 <g id="g4730" transform="translate(-17.964 -.21096)" stroke-linecap="round" stroke-linejoin="round">
  <g id="g4720" stroke-width=".16404">
   <path id="path4714" transform="matrix(1.01 0 0 1.01 17.858 -.15638)" d="m2.0282 2.7764h4.6989c0.58902 0 0.64003 1.0583 1.3149 1.0583h6.9051c0.4674 0 0.84368 0.37628 0.84368 0.84368v9.2054c0 0.4674-0.37628 0.84368-0.84368 0.84368h-12.919c-0.4674 0-0.84368-0.37628-0.84368-0.84368v-10.264c0-0.4674 0.37628-0.84368 0.84368-0.84368z" fill="#2e3440" filter="url(#filter2347-3)" opacity=".15"/>
   <path id="path4716" d="m19.971 2.6366h4.6989c0.58902 0 0.64003 1.0583 1.3149 1.0583h6.9051c0.4674 0 0.84368 0.37628 0.84368 0.84368v9.2054c0 0.4674-0.37628 0.84368-0.84368 0.84368h-12.919c-0.4674 0-0.84368-0.37628-0.84368-0.84368v-10.264c0-0.4674 0.37628-0.84368 0.84368-0.84368z" fill="#bf616a"/>
   <path id="path4718" d="m19.971 2.6366h4.6989c0.58902 0 0.64003 1.0583 1.3149 1.0583h6.9051c0.4674 0 0.84368 0.37628 0.84368 0.84368v9.2054c0 0.4674-0.37628 0.84368-0.84368 0.84368h-12.919c-0.4674 0-0.84368-0.37628-0.84368-0.84368v-10.264c0-0.4674 0.37628-0.84368 0.84368-0.84368z" fill="#2e3440" opacity=".15"/>
  </g>
  <g id="g4728" stroke-width=".16365">
   <path id="path4722" d="m19.971 3.8487h4.6989c0.58902 0 0.64003-1.0533 1.3149-1.0533h6.9051c0.4674 0 0.84368 0.3745 0.84368 0.83969v9.691c0 0.46519-0.37628 0.83969-0.84368 0.83969h-12.919c-0.4674 0-0.84368-0.3745-0.84368-0.83969v-8.6377c0-0.46519 0.37628-0.83969 0.84368-0.83969z" fill="#2e3440" filter="url(#filter2161-7)" opacity=".15"/>
   <path id="path4724" d="m19.971 4.2271h4.6989c0.58902 0 0.64003-1.0533 1.3149-1.0533h6.9051c0.4674 0 0.84368 0.3745 0.84368 0.83969v9.691c0 0.46519-0.37628 0.83969-0.84368 0.83969h-12.919c-0.4674 0-0.84368-0.3745-0.84368-0.83969v-8.6377c0-0.46519 0.37628-0.83969 0.84368-0.83969z" fill="#bf616a"/>
   <path id="path4726" d="m19.971 4.2271h4.6989c0.58902 0 0.64003-1.0533 1.3149-1.0533h6.9051c0.4674 0 0.84368 0.3745 0.84368 0.83969v9.691c0 0.46519-0.37628 0.83969-0.84368 0.83969h-12.919c-0.4674 0-0.84368-0.3745-0.84368-0.83969v-8.6377c0-0.46519 0.37628-0.83969 0.84368-0.83969z" fill="url(#linearGradient2575)"/>
  </g>
 </g>
 <path id="path1308" d="m8.4535682 11.806024c-0.0021-5.25e-4 -0.02836-0.0063-0.0582-0.01288-0.05401-0.01184-0.12186-0.02748-0.191367-0.0441-0.02007-0.0048-0.05558-0.01326-0.07892-0.01879-0.06879-0.01632-0.135874-0.03247-0.22096-0.05321-0.04395-0.01071-0.113638-0.02765-0.154872-0.03764-0.07463-0.01807-0.328172-0.08048-0.617507-0.151977-0.153463-0.03792-0.80006-0.198774-1.359958-0.338308-0.167461-0.04174-0.307732-0.07756-0.311712-0.0796-0.0093-0.0048-0.01709-0.01305-0.02095-0.02227-0.0027-0.0066-0.0031-0.04581-0.0031-0.362022 8e-6 -0.235284 6.6e-4 -0.357128 2e-3 -0.361939 0.0027-0.0096 0.01413-0.02087 0.02295-0.02253 0.0038-7.2e-4 0.01154-8.4e-4 0.01713-2.11e-4 0.0056 6e-4 0.500224 0.123548 1.099185 0.27321 1.422512 0.355443 1.882993 0.470018 1.889019 0.470018 6e-3 0 0.466509-0.114575 1.8890198-0.470018 0.598962-0.149662 1.093595-0.272607 1.099186-0.27321 0.0056-6e-4 0.0133-5.25e-4 0.01713 2.11e-4 0.0088 0.0017 0.02028 0.01289 0.02295 0.02253 0.0013 0.0048 2e-3 0.126655 2e-3 0.361939 2e-5 0.316214-3.22e-4 0.355482-0.0031 0.362022-0.0038 0.0092-0.0116 0.01747-0.02095 0.02227-4e-3 0.0021-0.144251 0.03787-0.311712 0.0796-0.559899 0.139534-1.2064967 0.300384-1.3599587 0.338308-0.2893341 0.0715-0.5428771 0.133902-0.6175061 0.151981-0.04123 0.01-0.110925 0.02693-0.154871 0.03764-0.08509 0.02075-0.152174 0.0369-0.220961 0.05321-0.02334 0.0055-0.05884 0.01399-0.07892 0.01879-0.195061 0.04667-0.261486 0.06042-0.275214 0.05699zm-0.02367-1.684923c-0.01009-0.0015-0.111863-0.02406-0.164734-0.03646-0.02767-0.0065-0.06363-0.01489-0.0799-0.01867-0.01628-0.0038-0.04957-0.01168-0.07398-0.01754-0.02441-0.0059-0.0617-0.01473-0.08286-0.01973s-0.06733-0.01609-0.102589-0.02466c-0.03527-0.0086-0.09342-0.02268-0.129223-0.03136-0.304693-0.07384-0.671754-0.164416-1.37706-0.3398-0.88712-0.220597-0.950756-0.236629-0.960769-0.242072-0.0056-0.0031-0.01226-0.0089-0.01573-0.01384l-6e-3 -0.0086-5.74e-4 -0.2794839c-5.99e-4 -0.2840336 7.21e-4 -0.3648855 0.0065-0.4002313 0.0053-0.03231 0.01457-0.049619 0.03117-0.058086 0.01429-0.00729 0.0256-0.00517 0.174032 0.032645 0.155497 0.039612 1.908517 0.4780183 2.454739 0.6138963l0.363504 0.09043 0.363501-0.09042c0.546222-0.135878 2.2992418-0.5742842 2.4547388-0.6138964 0.148432-0.037812 0.159743-0.039934 0.174032-0.032645 0.0166 0.00847 0.02589 0.025776 0.03117 0.058086 0.0057 0.035346 0.0071 0.1161977 0.0065 0.4002314l-5.72e-4 0.2794839-6e-3 0.0086c-0.0035 5e-3 -0.01009 0.01078-0.01573 0.01384-0.01001 0.0054-0.07365 0.02147-0.96077 0.242071-0.7053057 0.175384-1.0723678 0.265959-1.3770588 0.339797-0.03581 0.0087-0.09396 0.02279-0.129223 0.03136-0.03527 0.0086-0.08143 0.01966-0.10259 0.02466s-0.05844 0.01388-0.08286 0.01973c-0.02441 0.0059-0.05771 0.01374-0.07398 0.01754-0.01628 0.0038-0.05223 0.0122-0.0799 0.01867-0.140422 0.03291-0.169473 0.03824-0.195313 0.03592-0.0049-4.39e-4 -0.0151-2.95e-4 -0.02269 3.2e-4 -0.0076 6.01e-4 -0.01648 7.21e-4 -0.01973 2.13e-4zm-0.0069-1.6760482c-0.09906-0.022921-2.908813-0.7221277-2.948912-0.7338361-0.01668-0.00487-0.02881-0.014135-0.03428-0.026188-0.0035-0.00768-0.0036-0.02256-0.0037-0.3686063-4.8e-5 -0.3954665-8.39e-4 -0.3679452 0.01141-0.3808805 0.01074-0.011319-0.01862-0.0036 0.516292-0.1356869 0.351567-0.086811 0.48614-0.1200371 0.635263-0.1568452 0.209511-0.051714 0.405197-0.1000846 0.777309-0.1921416 0.474709-0.1174384 0.911953-0.2254168 1.010108-0.2494485 0.04414-0.010807 0.07297-0.016906 0.0799-0.016906 0.0069 0 0.03577 0.0061 0.0799 0.016906 0.09816 0.024032 0.535399 0.1320101 1.010108 0.2494486 0.3721121 0.092057 0.5677968 0.140428 0.7773088 0.1921416 0.149123 0.036808 0.283695 0.070034 0.635263 0.1568452 0.403788 0.099706 0.497633 0.1232676 0.504066 0.1265539 9e-3 0.0046 0.0168 0.012939 0.02061 0.022074 0.0027 0.00654 0.0031 0.046327 3e-3 0.3679394-4.2e-5 0.3460465-1.9e-4 0.3609276-0.0037 0.3686063-0.0055 0.012054-0.0176 0.021318-0.03428 0.026188-0.01505 0.0044-0.999186 0.250141-1.5994707 0.3994004-0.6852641 0.1703896-1.2609801 0.3132028-1.3385901 0.332053-0.02947 0.00716-0.07249 0.00821-0.09766 0.00238z" style="fill:#000000;opacity:.15;stroke-width:.00197286"/>
</svg>
