<svg width="64" height="64" version="1.1" viewBox="0 0 16.933 16.933" xmlns="http://www.w3.org/2000/svg">
 <defs>
  <filter id="filter2347-3" x="-.024546" y="-.029999" width="1.0491" height="1.06" color-interpolation-filters="sRGB">
   <feGaussianBlur stdDeviation="0.14938518"/>
  </filter>
  <filter id="filter2161-7" x="-.024009" y="-.030842" width="1.048" height="1.0617" color-interpolation-filters="sRGB">
   <feGaussianBlur stdDeviation="0.146119"/>
  </filter>
  <linearGradient id="linearGradient2575" x1="26.221" x2="26.221" y1="14.474" y2="3.3043" gradientUnits="userSpaceOnUse">
   <stop stop-color="#2e3440" stop-opacity=".15" offset="0"/>
   <stop stop-color="#2e3440" stop-opacity="0" offset="1"/>
  </linearGradient>
 </defs>
 <g transform="translate(-17.964 -.21096)" stroke-linecap="round" stroke-linejoin="round">
  <g stroke-width=".16404">
   <path transform="matrix(1.01 0 0 1.01 17.858 -.15638)" d="m2.0282 2.7764h4.6989c0.58902 0 0.64003 1.0583 1.3149 1.0583h6.9051c0.4674 0 0.84368 0.37628 0.84368 0.84368v9.2054c0 0.4674-0.37628 0.84368-0.84368 0.84368h-12.919c-0.4674 0-0.84368-0.37628-0.84368-0.84368v-10.264c0-0.4674 0.37628-0.84368 0.84368-0.84368z" fill="#2e3440" filter="url(#filter2347-3)" opacity=".15"/>
   <path d="m19.971 2.6366h4.6989c0.58902 0 0.64003 1.0583 1.3149 1.0583h6.9051c0.4674 0 0.84368 0.37628 0.84368 0.84368v9.2054c0 0.4674-0.37628 0.84368-0.84368 0.84368h-12.919c-0.4674 0-0.84368-0.37628-0.84368-0.84368v-10.264c0-0.4674 0.37628-0.84368 0.84368-0.84368z" fill="#bf616a"/>
   <path d="m19.971 2.6366h4.6989c0.58902 0 0.64003 1.0583 1.3149 1.0583h6.9051c0.4674 0 0.84368 0.37628 0.84368 0.84368v9.2054c0 0.4674-0.37628 0.84368-0.84368 0.84368h-12.919c-0.4674 0-0.84368-0.37628-0.84368-0.84368v-10.264c0-0.4674 0.37628-0.84368 0.84368-0.84368z" fill="#2e3440" opacity=".15"/>
  </g>
  <g stroke-width=".16365">
   <path d="m19.971 3.8487h4.6989c0.58902 0 0.64003-1.0533 1.3149-1.0533h6.9051c0.4674 0 0.84368 0.3745 0.84368 0.83969v9.691c0 0.46519-0.37628 0.83969-0.84368 0.83969h-12.919c-0.4674 0-0.84368-0.3745-0.84368-0.83969v-8.6377c0-0.46519 0.37628-0.83969 0.84368-0.83969z" fill="#2e3440" filter="url(#filter2161-7)" opacity=".15"/>
   <path d="m19.971 4.2271h4.6989c0.58902 0 0.64003-1.0533 1.3149-1.0533h6.9051c0.4674 0 0.84368 0.3745 0.84368 0.83969v9.691c0 0.46519-0.37628 0.83969-0.84368 0.83969h-12.919c-0.4674 0-0.84368-0.3745-0.84368-0.83969v-8.6377c0-0.46519 0.37628-0.83969 0.84368-0.83969z" fill="#bf616a"/>
   <path d="m19.971 4.2271h4.6989c0.58902 0 0.64003-1.0533 1.3149-1.0533h6.9051c0.4674 0 0.84368 0.3745 0.84368 0.83969v9.691c0 0.46519-0.37628 0.83969-0.84368 0.83969h-12.919c-0.4674 0-0.84368-0.3745-0.84368-0.83969v-8.6377c0-0.46519 0.37628-0.83969 0.84368-0.83969z" fill="url(#linearGradient2575)"/>
  </g>
 </g>
 <path d="m8.4665 5.4552c-0.20087 0-0.40174 0.075885-0.55351 0.23658l-2.7631 2.8479c-0.15177 0.15623-0.23212 0.36157-0.23658 0.5669v0.013396c0 0.61154 1.6293 0.017855 1.7766 0.76331 0.080348 0.40621-0.8883 0.21873-0.8883 0.62493 0 0.47763 1.3704 0.15178 1.7632 0.54012 0.1607 0.39282-0.52673 0.33032-0.40174 0.69635 0.22765 0.23658 0.74546 0.10266 0.84366 0.48656 0.11606 0.43746 0.85705 0.36157 1.29 0.04017 0.23212-0.23658-0.35264-0.34371-0.12499-0.58476 0.23212-0.23658 1.3659-0.18748 1.3749-0.70528-0.10714-0.32586-0.53566-0.37942-0.54012-0.76331-0.022318-0.32586 0.34818-0.23212 1.5266-0.55351 0.4687-0.22319 0.48656-0.33925 0.48656-0.54458v-0.013395c-0.0045-0.20533-0.09821-0.41067-0.24997-0.5669l-2.7497-2.8479c-0.15623-0.1607-0.35264-0.23658-0.55351-0.23658zm0.053565 0.59815c0.2098 0 0.78117 0.70528 1.29 1.2365 0.14731 0.19194-0.053569 0.38835-0.053569 0.38835l-1.0668-0.58476-0.47316 0.63833-0.41513-0.62493-0.24997 0.97311-0.73653-0.44192 0.19641-0.24997 1.1517-1.1829c0.084813-0.089277 0.15623-0.15177 0.3571-0.15177zm3.1648 4.2763c-0.05802-0.0044-0.1116 0-0.15178 0.01333-0.07589 0.02232-0.43299 0.03572-0.40174 0.30354 0.3214 0.13838 0.81241 0.24551 0.87044-0.02677 0.04465-0.20088-0.1473-0.28569-0.31693-0.29015zm-5.5083 0.90169c-0.031248 0.0045-0.053565 0.01333-0.080348 0.0268-0.24551 0.09374-0.41067 0.29015-0.18302 0.37496 0.22765 0.08482 0.38389-0.0045 0.58476-0.1116 0.20087-0.10714 0.19194-0.12499 0.17855-0.16516-0.026783 0.0045-0.2098-0.10714-0.40174-0.12498a0.36157 0.36157 0 0 0-0.098204-3e-6z" fill="#2e3440" opacity=".25" stroke-width=".44638"/>
</svg>
