<svg id="svg2589" width="64" height="64" version="1.1" viewBox="0 0 16.933 16.933" xmlns="http://www.w3.org/2000/svg">
 <defs id="defs2569">
  <filter id="filter2347-3" x="-.024545776" y="-.029998631" width="1.0490916" height="1.0599973" color-interpolation-filters="sRGB">
   <feGaussianBlur id="feGaussianBlur2558" stdDeviation="0.14938518"/>
  </filter>
  <filter id="filter2161-7" x="-.024009103" y="-.03084203" width="1.0480182" height="1.0616841" color-interpolation-filters="sRGB">
   <feGaussianBlur id="feGaussianBlur2561" stdDeviation="0.146119"/>
  </filter>
  <linearGradient id="linearGradient2575" x1="26.221" x2="26.221" y1="14.474" y2="3.3043" gradientUnits="userSpaceOnUse">
   <stop id="stop2564" stop-color="#2e3440" stop-opacity=".15" offset="0"/>
   <stop id="stop2566" stop-color="#2e3440" stop-opacity="0" offset="1"/>
  </linearGradient>
 </defs>
 <g id="g2587" transform="translate(-17.964 -.21096)" stroke-linecap="round" stroke-linejoin="round">
  <g id="g2577" stroke-width=".16404">
   <path id="path2571" transform="matrix(1.01 0 0 1.01 17.858 -.15638)" d="m2.0282 2.7764h4.6989c0.58902 0 0.64003 1.0583 1.3149 1.0583h6.9051c0.4674 0 0.84368 0.37628 0.84368 0.84368v9.2054c0 0.4674-0.37628 0.84368-0.84368 0.84368h-12.919c-0.4674 0-0.84368-0.37628-0.84368-0.84368v-10.264c0-0.4674 0.37628-0.84368 0.84368-0.84368z" fill="#2e3440" filter="url(#filter2347-3)" opacity=".15"/>
   <path id="path2573" d="m19.971 2.6366h4.6989c0.58902 0 0.64003 1.0583 1.3149 1.0583h6.9051c0.4674 0 0.84368 0.37628 0.84368 0.84368v9.2054c0 0.4674-0.37628 0.84368-0.84368 0.84368h-12.919c-0.4674 0-0.84368-0.37628-0.84368-0.84368v-10.264c0-0.4674 0.37628-0.84368 0.84368-0.84368z" fill="#8fbcbb"/>
   <path id="path2575" d="m19.971 2.6366h4.6989c0.58902 0 0.64003 1.0583 1.3149 1.0583h6.9051c0.4674 0 0.84368 0.37628 0.84368 0.84368v9.2054c0 0.4674-0.37628 0.84368-0.84368 0.84368h-12.919c-0.4674 0-0.84368-0.37628-0.84368-0.84368v-10.264c0-0.4674 0.37628-0.84368 0.84368-0.84368z" fill="#2e3440" opacity=".15"/>
  </g>
  <g id="g2585" stroke-width=".16365">
   <path id="path2579" d="m19.971 3.8487h4.6989c0.58902 0 0.64003-1.0533 1.3149-1.0533h6.9051c0.4674 0 0.84368 0.3745 0.84368 0.83969v9.691c0 0.46519-0.37628 0.83969-0.84368 0.83969h-12.919c-0.4674 0-0.84368-0.3745-0.84368-0.83969v-8.6377c0-0.46519 0.37628-0.83969 0.84368-0.83969z" fill="#2e3440" filter="url(#filter2161-7)" opacity=".15"/>
   <path id="path2581" d="m19.971 4.2271h4.6989c0.58902 0 0.64003-1.0533 1.3149-1.0533h6.9051c0.4674 0 0.84368 0.3745 0.84368 0.83969v9.691c0 0.46519-0.37628 0.83969-0.84368 0.83969h-12.919c-0.4674 0-0.84368-0.3745-0.84368-0.83969v-8.6377c0-0.46519 0.37628-0.83969 0.84368-0.83969z" fill="#8fbcbb"/>
   <path id="path2583" d="m19.971 4.2271h4.6989c0.58902 0 0.64003-1.0533 1.3149-1.0533h6.9051c0.4674 0 0.84368 0.3745 0.84368 0.83969v9.691c0 0.46519-0.37628 0.83969-0.84368 0.83969h-12.919c-0.4674 0-0.84368-0.3745-0.84368-0.83969v-8.6377c0-0.46519 0.37628-0.83969 0.84368-0.83969z" fill="url(#linearGradient2575)"/>
  </g>
 </g>
 <g id="g1076" transform="translate(-.00014058125 .52353397)" fill="#2e3440" stroke-linecap="round" stroke-linejoin="round">
  <path id="path304" d="m8.4664763 5.599333a2.8726252 2.8726252 0 0 0-2.872625 2.8726253 2.8726252 2.8726252 0 0 0 2.872625 2.8726247 2.8726252 2.8726252 0 0 0 2.8726247-2.8726247 2.8726252 2.8726252 0 0 0-2.8726247-2.8726253zm-0.03366 0.359078a2.513547 2.513547 0 0 1 0.03366 0 2.513547 2.513547 0 0 1 2.5135467 2.5135473 2.513547 2.513547 0 0 1-2.5135467 2.5135467 2.513547 2.513547 0 0 1-2.513547-2.5135467 2.513547 2.513547 0 0 1 2.479865-2.5135473z" stroke-width=".411001" style="fill:#010202;opacity:.15"/>
  <path id="path306" d="m8.1073982 6.676567c-0.198929 0-0.359078 0.160149-0.359078 0.3590775v0.35908l0.718156 0.359078-0.718156 0.359078v1.7953898c0 0.1989297 0.160149 0.3590787 0.359078 0.3590787h0.718156c0.19893 0 0.359078-0.160149 0.359078-0.3590787v-0.359078l-0.718156-0.359078 0.718156-0.359078v-1.7953918c0-0.1989285-0.160148-0.3590775-0.359078-0.3590775z" stroke-width=".359652" style="fill:#000000;opacity:.15"/>
 </g>
</svg>
