<svg version="1.1" viewBox="0 0 24 24" xmlns="http://www.w3.org/2000/svg">
 <path d="m12.393 1.0078a11 11 0 0 0-1.0996 0.015625 11 11 0 0 0-10.27 11.684 11 11 0 0 0 11.684 10.27 11 11 0 0 0 10.27-11.684 11 11 0 0 0-10.584-10.285z" fill="#5e81ac"/>
 <path d="m12 6c-0.554 0-1 0.446-1 1s0.446 1 1 1 1-0.446 1-1-0.446-1-1-1zm-0.0039 4c-0.55227 0-0.9961 0.44371-0.9961 0.99609v7.0078c0 0.5522 0.44383 0.99609 0.99609 0.99609h0.0078c0.55228 0 0.99611-0.44389 0.99611-0.99609v-7.0078c0-0.55238-0.44383-0.99609-0.99609-0.99609h-0.0078z" fill="#fff"/>
</svg>
