<svg version="1.1" viewBox="0 0 24 24" xmlns="http://www.w3.org/2000/svg">
 <path d="m12 1c-6.0751 1e-6 -11 4.9249-11 11 1.4e-6 6.0751 4.9249 11 11 11s11-4.9249 11-11-4.9249-11-11-11z" fill="#434c5e"/>
 <path d="m16.258 9.5161a1.4194 1.4194 0 0 1 1.4194 1.4194v7.0968a1.4194 1.4194 0 0 1-1.4194 1.4194h-8.5161c-0.78774 0-1.4194-0.63871-1.4194-1.4194v-7.0968a1.4194 1.4194 0 0 1 1.4194-1.4194h6.3871v-1.4194a2.129 2.129 0 0 0-2.129-2.129 2.129 2.129 0 0 0-2.129 2.129h-1.4194a3.5484 3.5484 0 0 1 3.5484-3.5484 3.5484 3.5484 0 0 1 3.5484 3.5484v1.4194h0.70968m-4.2581 6.3871a1.4194 1.4194 0 0 0 1.4194-1.4194 1.4194 1.4194 0 0 0-1.4194-1.4194 1.4194 1.4194 0 0 0-1.4194 1.4194 1.4194 1.4194 0 0 0 1.4194 1.4194z" fill="#fff"/>
</svg>
