<svg version="1.1" viewBox="0 0 24 24" xmlns="http://www.w3.org/2000/svg">
 <path d="m12 1a11 11 0 0 0-11 11 11 11 0 0 0 11 11 11 11 0 0 0 11-11 11 11 0 0 0-11-11zm-3.7454 5.5c1.2768 1.2059 2.4977 2.4704 3.7454 3.7061 1.2477-1.2357 2.4687-2.5 3.7454-3.7061l1.7546 1.7546c-1.206 1.2768-2.4704 2.4977-3.7061 3.7454 1.2357 1.2477 2.5 2.4687 3.7061 3.7454l-1.7546 1.7546c-1.2768-1.206-2.4977-2.4704-3.7454-3.7061-1.2477 1.2357-2.4687 2.5-3.7454 3.7061l-1.7546-1.7546c1.206-1.2768 2.4704-2.4977 3.7061-3.7454-1.2357-1.2477-2.5-2.4687-3.7061-3.7454l1.7546-1.7546z" fill="#434c5e"/>
 <path d="m8.2546 6.5c1.2768 1.2059 2.4977 2.4704 3.7454 3.7061 1.2477-1.2357 2.4687-2.5 3.7454-3.7061l1.7546 1.7546c-1.206 1.2768-2.4704 2.4977-3.7061 3.7454 1.2357 1.2477 2.5 2.4687 3.7061 3.7454l-1.7546 1.7546c-1.2768-1.206-2.4977-2.4704-3.7454-3.7061-1.2477 1.2357-2.4687 2.5-3.7454 3.7061l-1.7546-1.7546c1.206-1.2768 2.4704-2.4977 3.7061-3.7454-1.2357-1.2477-2.5-2.4687-3.7061-3.7454z" fill="#fff"/>
</svg>
