<svg width="64" height="64" version="1.1" viewBox="0 0 16.933 16.933" xmlns="http://www.w3.org/2000/svg">
 <defs>
  <filter id="filter2347-3" x="-.024546" y="-.029999" width="1.0491" height="1.06" color-interpolation-filters="sRGB">
   <feGaussianBlur stdDeviation="0.14938518"/>
  </filter>
  <filter id="filter2161-7" x="-.024009" y="-.030842" width="1.048" height="1.0617" color-interpolation-filters="sRGB">
   <feGaussianBlur stdDeviation="0.146119"/>
  </filter>
  <linearGradient id="linearGradient2575" x1="26.221" x2="26.221" y1="14.474" y2="3.3043" gradientUnits="userSpaceOnUse">
   <stop stop-color="#2e3440" stop-opacity=".15" offset="0"/>
   <stop stop-color="#2e3440" stop-opacity="0" offset="1"/>
  </linearGradient>
 </defs>
 <g transform="translate(2.4e-5,1.327e-4)">
  <g transform="translate(-17.964 -.21096)" stroke-linecap="round" stroke-linejoin="round">
   <g stroke-width=".16404">
    <path transform="matrix(1.01 0 0 1.01 17.858 -.15638)" d="m2.0282 2.7764h4.6989c0.58902 0 0.64003 1.0583 1.3149 1.0583h6.9051c0.4674 0 0.84368 0.37628 0.84368 0.84368v9.2054c0 0.4674-0.37628 0.84368-0.84368 0.84368h-12.919c-0.4674 0-0.84368-0.37628-0.84368-0.84368v-10.264c0-0.4674 0.37628-0.84368 0.84368-0.84368z" fill="#2e3440" filter="url(#filter2347-3)" opacity=".15"/>
    <path d="m19.971 2.6366h4.6989c0.58902 0 0.64003 1.0583 1.3149 1.0583h6.9051c0.4674 0 0.84368 0.37628 0.84368 0.84368v9.2054c0 0.4674-0.37628 0.84368-0.84368 0.84368h-12.919c-0.4674 0-0.84368-0.37628-0.84368-0.84368v-10.264c0-0.4674 0.37628-0.84368 0.84368-0.84368z" fill="#bf616a"/>
    <path d="m19.971 2.6366h4.6989c0.58902 0 0.64003 1.0583 1.3149 1.0583h6.9051c0.4674 0 0.84368 0.37628 0.84368 0.84368v9.2054c0 0.4674-0.37628 0.84368-0.84368 0.84368h-12.919c-0.4674 0-0.84368-0.37628-0.84368-0.84368v-10.264c0-0.4674 0.37628-0.84368 0.84368-0.84368z" fill="#2e3440" opacity=".15"/>
   </g>
   <g stroke-width=".16365">
    <path d="m19.971 3.8487h4.6989c0.58902 0 0.64003-1.0533 1.3149-1.0533h6.9051c0.4674 0 0.84368 0.3745 0.84368 0.83969v9.691c0 0.46519-0.37628 0.83969-0.84368 0.83969h-12.919c-0.4674 0-0.84368-0.3745-0.84368-0.83969v-8.6377c0-0.46519 0.37628-0.83969 0.84368-0.83969z" fill="#2e3440" filter="url(#filter2161-7)" opacity=".15"/>
    <path d="m19.971 4.2271h4.6989c0.58902 0 0.64003-1.0533 1.3149-1.0533h6.9051c0.4674 0 0.84368 0.3745 0.84368 0.83969v9.691c0 0.46519-0.37628 0.83969-0.84368 0.83969h-12.919c-0.4674 0-0.84368-0.3745-0.84368-0.83969v-8.6377c0-0.46519 0.37628-0.83969 0.84368-0.83969z" fill="#bf616a"/>
    <path d="m19.971 4.2271h4.6989c0.58902 0 0.64003-1.0533 1.3149-1.0533h6.9051c0.4674 0 0.84368 0.3745 0.84368 0.83969v9.691c0 0.46519-0.37628 0.83969-0.84368 0.83969h-12.919c-0.4674 0-0.84368-0.3745-0.84368-0.83969v-8.6377c0-0.46519 0.37628-0.83969 0.84368-0.83969z" fill="url(#linearGradient2575)"/>
   </g>
  </g>
 </g>
 <path class="ColorScheme-Text" d="m8.4664 5.8207a3.1749 3.1749 0 0 0-0.06046 0.00233l-7.4e-4 8.202e-4a3.1749 3.1749 0 0 0-0.01395 7.673e-4 3.2421 3.2421 0 0 0-0.01163-7.673e-4 3.1749 3.1749 0 0 0-0.03876 0.00309 3.1749 3.1749 0 0 0-0.26741 0.020925 3.1749 3.1749 0 0 0-0.04031 0.0062 3.1749 3.1749 0 0 0-0.26354 0.047283 3.1749 3.1749 0 0 0-0.06278 0.015502 3.1749 3.1749 0 0 0-0.25192 0.072859 3.1749 3.1749 0 0 0-0.03023 0.01085 3.1749 3.1749 0 0 0-0.27207 0.10774 3.1749 3.1749 0 0 0-0.0062 0.0031 3.1749 3.1749 0 0 0-0.27363 0.14107 3.1749 3.1749 0 0 0-0.01318 0.00852 3.1749 3.1749 0 0 0-0.25502 0.16665 3.1749 3.1749 0 0 0-0.0054 0.00389 3.1749 3.1749 0 0 0-0.23486 0.18913 3.1749 3.1749 0 0 0-0.02868 0.026355 3.1749 3.1749 0 0 0-0.19843 0.19533 3.1749 3.1749 0 0 0-0.0248 0.027905 3.1749 3.1749 0 0 0-0.18215 0.22013 3.1749 3.1749 0 0 0-0.01008 0.014729 3.1749 3.1749 0 0 0-0.16355 0.24184 3.1749 3.1749 0 0 0-0.02403 0.041084 3.1749 3.1749 0 0 0-0.12479 0.23254 3.1749 3.1749 0 0 0-0.0248 0.055032 3.1749 3.1749 0 0 0-0.10154 0.24726 3.1749 3.1749 0 0 0-0.0093 0.02713 3.1749 3.1749 0 0 0-0.08061 0.26587 3.1749 3.1749 0 0 0-0.02558 0.10619c5.29e-4 2.233e-4 1e-3 5.556e-4 0.0016 7.408e-4a3.1749 3.1749 0 0 0-7e-3 0.033329 3.1749 3.1749 0 0 0-0.03721 0.21936 3.1749 3.1749 0 0 0-0.01318 0.10774 3.1749 3.1749 0 0 0-0.01628 0.24494 3.1749 3.1749 0 0 0-0.0023 0.067436 3.1749 3.1749 0 0 0 1.82 2.8672 3.1749 3.1749 0 0 0 0.0047 0.0023 3.1749 3.1749 0 0 0 0.15425 0.06899v8.2e-4a3.1749 3.1749 0 0 0 0.0039 0.0016 3.1749 3.1749 0 0 0 0.24494 0.08604 3.1749 3.1749 0 0 0 0.06124 0.02015 3.1749 3.1749 0 0 0 0.21393 0.05193 3.1749 3.1749 0 0 0 0.10232 0.02248 3.1749 3.1749 0 0 0 0.20386 0.02868 3.1749 3.1749 0 0 0 0.11007 0.01318 3.1749 3.1749 0 0 0 0.25579 0.01163 3.1749 3.1749 0 0 0 0.26277-0.0124v-7.67e-4a3.1749 3.1749 0 0 0 0.0054 0 3.1749 3.1749 0 0 0 0.29223-0.03953 3.1749 3.1749 0 0 0 0.02248-0.0031 3.1749 3.1749 0 0 0 0.0046-7.68e-4 3.1749 3.1749 0 0 0 0.30384-0.07364 3.1749 3.1749 0 0 0 1.4503-0.90613 3.1749 3.1749 0 0 0 0.0077-0.0085 3.1749 3.1749 0 0 0 0.07906-0.08449 3.1749 3.1749 0 0 0 7.67e-4 -0.0016c-0.0021 7.41e-4 -0.0041 0.0016-0.0062 0.0023a3.1749 3.1749 0 0 0 0.75191-2.0463 3.1749 3.1749 0 0 0-0.10387-0.78985c5.3e-4 -1.59e-5 1e-3 1.59e-5 0.0016 0a3.1749 3.1749 0 0 0-0.0085-0.025579 3.1749 3.1749 0 0 0-0.0016-0.00543 3.1749 3.1749 0 0 0-0.07674-0.24649 3.1749 3.1749 0 0 0-0.01705-0.047283 3.1749 3.1749 0 0 0-0.43719-0.79606 3.1749 3.1749 0 0 0-0.01163-0.014729 3.1749 3.1749 0 0 0-0.0093-0.011628 3.1749 3.1749 0 0 0-0.41084-0.43949 3.1749 3.1749 0 0 0-0.0186-0.015502 3.1749 3.1749 0 0 0-0.0039-0.00389 3.1749 3.1749 0 0 0-0.22401-0.17751 3.1749 3.1749 0 0 0-0.02791-0.020153 3.1749 3.1749 0 0 0-0.22866-0.14572 3.1749 3.1749 0 0 0-0.03566-0.020925 3.1749 3.1749 0 0 0-1.5611-0.41467zm0 0.39687a2.7781 2.7781 0 0 1 0.0093 7.408e-4c-0.0019 0.048629-0.0093 0.095812-0.0093 0.14495 0 0.39107 0.04994 0.77011 0.13487 1.1355-0.44015 0.37205-0.98955 0.61866-1.5944 0.68444 0.17041-0.72288 0.51214-1.3769 0.97743-1.9231a2.7781 2.7781 0 0 1 0.19611-0.024804 2.7781 2.7781 0 0 1 0.08449-0.010075 2.7781 2.7781 0 0 1 0.20153-0.00775zm0.40385 0.032554a2.7781 2.7781 0 0 1 0.0062 0.00156 2.7781 2.7781 0 0 1 0.26508 0.052707 2.7781 2.7781 0 0 1 7.68e-4 0 2.7781 2.7781 0 0 1 7.67e-4 0 2.7781 2.7781 0 0 1 0.26508 0.08139 2.7781 2.7781 0 0 1 0.0093 0.00309c-0.12091 0.28347-0.28188 0.54564-0.47981 0.7759-0.04566-0.26082-0.07441-0.52746-0.07441-0.80146 0-0.038314 0.0059-0.075119 7e-3 -0.11317zm-1.5324 0.21083c-0.35051 0.51831-0.60824 1.1036-0.74333 1.7363-0.25923-0.0074-0.50833-0.050722-0.74645-0.12014a2.7781 2.7781 0 0 1 0.10232-0.25114 2.7781 2.7781 0 0 1 0.0077-0.016279 2.7781 2.7781 0 0 1 0.12325-0.23254 2.7781 2.7781 0 0 1 0.0039-0.0062 2.7781 2.7781 0 0 1 0.15192-0.22711 2.7781 2.7781 0 0 1 0.17518-0.21316 2.7781 2.7781 0 0 1 0.0031-0.00389 2.7781 2.7781 0 0 1 0.19145-0.19068 2.7781 2.7781 0 0 1 0.0093-0.00775 2.7781 2.7781 0 0 1 0.20463-0.16665 2.7781 2.7781 0 0 1 0.0124-0.00852 2.7781 2.7781 0 0 1 0.22168-0.1465 2.7781 2.7781 0 0 1 0.0062-0.0031 2.7781 2.7781 0 0 1 0.24261-0.12712 2.7781 2.7781 0 0 1 0.03411-0.015502zm2.4401 0.086813a2.7781 2.7781 0 0 1 0.0023 0.00156 2.7781 2.7781 0 0 1 0.23564 0.14185 2.7781 2.7781 0 0 1 0.19843 0.14805 2.7781 2.7781 0 0 1 0.02403 0.017825 2.7781 2.7781 0 0 1 0.0023 0.00233 2.7781 2.7781 0 0 1 0.17905 0.16355 2.7781 2.7781 0 0 1 0.02325 0.021706 2.7781 2.7781 0 0 1 0.0016 0.00233 2.7781 2.7781 0 0 1 0.13332 0.14805 2.7781 2.7781 0 0 1 0.05503 0.063562 2.7781 2.7781 0 0 1 0.10309 0.1403 2.7781 2.7781 0 0 1 0.05968 0.084488 2.7781 2.7781 0 0 1 0.11627 0.19921 2.7781 2.7781 0 0 1 0.01938 0.033329 2.7781 2.7781 0 0 1 7.67e-4 0.00233 2.7781 2.7781 0 0 1 0.09456 0.20541 2.7781 2.7781 0 0 1 0.02015 0.044957 2.7781 2.7781 0 0 1 0.0016 0.00465 2.7781 2.7781 0 0 1 0.06201 0.18138 2.7781 2.7781 0 0 1 0.03023 0.089914c-0.56669 0.085284-1.088 0.30932-1.5263 0.64025-0.25016-0.38292-0.44314-0.80508-0.57128-1.2557 0.31157-0.30625 0.56064-0.67399 0.73484-1.0813zm-1.0642 1.3634c0.14315 0.44013 0.34379 0.85424 0.59609 1.2317-0.48783 0.46777-0.83691 1.0788-0.9751 1.7665-0.45338-0.07714-0.88337-0.2197-1.2813-0.41856-0.1106-0.39631-0.1744-0.81223-0.1744-1.2441 0-0.22522 0.02163-0.4446 0.05271-0.66118 0.66668-0.049489 1.2788-0.2926 1.782-0.67436zm-2.9717 0.5426c0.25213 0.074968 0.51466 0.12504 0.78828 0.13719-0.02823 0.2151-0.04806 0.43301-0.04806 0.65573 0 0.33316 0.03473 0.65848 0.09689 0.97354-0.31177-0.20526-0.5923-0.45174-0.84413-0.72476a2.7781 2.7781 0 0 1 0-7.673e-4 2.7781 2.7781 0 0 1-0.02713-0.19921 2.7781 2.7781 0 0 1-0.01085-0.088364 2.7781 2.7781 0 0 1-0.0085-0.21161 2.7781 2.7781 0 0 1 0.01395-0.27749 2.7781 2.7781 0 0 1 0.03953-0.26432zm5.4754 0.17905a2.7781 2.7781 0 0 1 0.02325 0.26354 2.7781 2.7781 0 0 1 0.0039 0.099217 2.7781 2.7781 0 0 1-0.28058 1.2077 2.7781 2.7781 0 0 1-0.0093 0.02093c-0.42315-0.27805-0.79869-0.6215-1.11-1.0193 0.39274-0.29792 0.8617-0.49878 1.3727-0.57204zm-1.6719 0.82937c0.34038 0.43139 0.75249 0.80072 1.2146 1.1007a2.7781 2.7781 0 0 1-7.68e-4 0.0016 2.7781 2.7781 0 0 1-0.11239 0.14727c-0.48005 0.16947-0.99399 0.2682-1.5324 0.2682-0.13016 0-0.25782-0.0088-0.38523-0.01938 0.1214-0.58012 0.41126-1.0967 0.8162-1.4983zm-3.5313 0.83406c0.22034 0.17631 0.45555 0.33501 0.70534 0.47127 0.05921 0.18577 0.1307 0.36578 0.21083 0.54104a2.7781 2.7781 0 0 1-0.0023-0.0016 2.7781 2.7781 0 0 1-0.21006-0.15576 2.7781 2.7781 0 0 1-0.0124-0.0093 2.7781 2.7781 0 0 1-0.20386-0.18526 2.7781 2.7781 0 0 1-0.18603-0.20618 2.7781 2.7781 0 0 1-0.16432-0.22324 2.7781 2.7781 0 0 1-0.13719-0.23099zm1.213 0.70923c0.33506 0.1366 0.68841 0.23458 1.055 0.29609-0.0073 0.09059-0.01395 0.18116-0.01395 0.27363 0 0.06387 0.0048 0.12624 0.0085 0.18913a2.7781 2.7781 0 0 1-0.0039-7.67e-4 2.7781 2.7781 0 0 1-0.73484-0.15347 2.7781 2.7781 0 0 1-0.0031-7.67e-4c-0.11717-0.19208-0.22096-0.39314-0.30773-0.60382zm2.8021 0.28368a2.7781 2.7781 0 0 1-0.0016 0.0016 2.7781 2.7781 0 0 1-0.23099 0.1403 2.7781 2.7781 0 0 1-0.0047 0.0031 2.7781 2.7781 0 0 1-0.0023 7.67e-4 2.7781 2.7781 0 0 1-0.21161 0.10309 2.7781 2.7781 0 0 1-0.05193 0.02248 2.7781 2.7781 0 0 1-0.20386 0.07441 2.7781 2.7781 0 0 1-0.05736 0.0186 2.7781 2.7781 0 0 1-0.19145 0.04961 2.7781 2.7781 0 0 1-0.08604 0.01938 2.7781 2.7781 0 0 1-0.17828 0.02636 2.7781 2.7781 0 0 1-0.13255 0.01628c-5e-3 -0.06307-0.01163-0.12545-0.01163-0.18991 0-0.07435 0.0055-0.14717 0.01085-0.22013 0.14482 0.01261 0.29067 0.02171 0.43872 0.02171 0.31308 0 0.61856-0.03055 0.91465-0.08759z" color="#363636" opacity=".15" stroke-width=".39687"/>
</svg>
