<svg viewBox="0 0 22 22" xmlns="http://www.w3.org/2000/svg">
 <g transform="translate(-1 -1)">
  <path d="m21 12a9 9 0 0 1-18 0 9 9 0 1 1 18 0z" fill="#2e3440" fill-rule="evenodd"/>
  <path d="m11.984 5.484c-0.551 8e-3 -0.992 0.465-0.984 1.016v5.5c0 0.234 0.082 0.461 0.234 0.641l2.5 3c0.223 0.301 0.59 0.449 0.957 0.395 0.367-0.059 0.672-0.313 0.793-0.664 0.121-0.352 0.035-0.742-0.219-1.012l-2.266-2.719v-5.141c4e-3 -0.27-0.102-0.531-0.293-0.723-0.191-0.191-0.453-0.297-0.723-0.293z" fill="#7b88a1"/>
  <path d="m12 2c-5.512 0-10 4.488-10 10s4.488 10 10 10 10-4.488 10-10-4.488-10-10-10zm0 2c4.43 0 8 3.57 8 8s-3.57 8-8 8-8-3.57-8-8 3.57-8 8-8z" fill="#7b88a1"/>
 </g>
 <path d="m10 17a5 5 0 0 1-10 0 5 5 0 1 1 10 0" fill="#bf616a" fill-rule="evenodd"/>
 <g transform="matrix(1.2 0 0 1.2 -15.403 -3.4009)" fill-rule="evenodd">
  <path d="m14.503 14.5v0.833c-0.018 0.234 0.06 0.472 0.235 0.634l1.068 1.051-1.068 1.051c-0.156 0.157-0.235 0.377-0.235 0.598v0.833h0.833c0.221 0 0.441-0.079 0.598-0.235l1.068-1.069 1.068 1.069c0.156 0.157 0.377 0.235 0.598 0.235h0.833v-0.833c0-0.221-0.079-0.441-0.235-0.598l-1.05-1.051 1.068-1.051c0.179-0.166 0.217-0.396 0.217-0.634v-0.833h-0.833c-0.2 6e-3 -0.359 0.08-0.579 0.272l-1.086 1.051-1.068-1.051c-0.148-0.153-0.349-0.262-0.561-0.272h-0.869z" fill="#2e3440"/>
  <path d="m14.503 14.5v0.833c-0.018 0.234 0.06 0.472 0.235 0.634l1.068 1.051-1.068 1.051c-0.156 0.157-0.235 0.377-0.235 0.598v0.833h0.833c0.221 0 0.441-0.079 0.598-0.235l1.068-1.069 1.068 1.069c0.156 0.157 0.377 0.235 0.598 0.235h0.833v-0.833c0-0.221-0.079-0.441-0.235-0.598l-1.05-1.051 1.068-1.051c0.179-0.166 0.217-0.396 0.217-0.634v-0.833h-0.833c-0.2 6e-3 -0.359 0.08-0.579 0.272l-1.086 1.051-1.068-1.051c-0.148-0.153-0.349-0.262-0.561-0.272h-0.869z" fill="#bf616a" fill-opacity=".1"/>
 </g>
</svg>
