<svg version="1.1" viewBox="0 0 22 22" xmlns="http://www.w3.org/2000/svg">
 <path d="m11.882 3.003c-0.28452-0.00947-0.57485 0.00505-0.87474 0.017199-1.7807 0.072099-4.9312 0.012787-6.1598 1.366-0.75089 0.82688-0.40114 2.7506 0.74952 2.9502 1.4334 0.24886 3.8569-0.36814 5.4104-0.2165 1.0832 0.10574 1.3996 0.91849 0.51748 1.4828-0.93401 0.59753-3.0546 0.41637-4.125 0.71651-3.7012 1.0376-5.0314 3.2359-4.125 6.215 0.59092 1.9425 2.683 3.3839 4.9646 3.4657 4.3894-9e-3 3.5706-2.0754 5.696-1 0.69944 0.75322 2.1092 0.99493 2.8397 0.46564 1.1744-0.85095 2.9454-1.3066 1.6961-3.0483-0.59822-0.83399 0.79632-1.9152 0.48247-6.0655-0.27842-3.6816-2.8034-6.2077-7.0716-6.3488zm-0.57088 8.8987c0.98858-1e-6 1.7679 0.64482 1.7679 1.4484 0 0.80366-0.77928 1.4674-1.7679 1.4674s-1.8046-0.66371-1.8046-1.4674c0-0.80366 0.81611-1.4484 1.8046-1.4484z" fill="#2e3440" stroke-width="1.2344"/>
</svg>
