
<svg xmlns="http://www.w3.org/2000/svg" xmlns:xlink="http://www.w3.org/1999/xlink" width="22" height="22" viewBox="0 0 22 22" version="1.1">
<defs>
<filter id="alpha" filterUnits="objectBoundingBox" x="0%" y="0%" width="100%" height="100%">
  <feColorMatrix type="matrix" in="SourceGraphic" values="0 0 0 0 1 0 0 0 0 1 0 0 0 0 1 0 0 0 1 0"/>
</filter>
<mask id="mask0">
  <g filter="url(#alpha)">
<rect x="0" y="0" width="22" height="22" style="fill:rgb(0%,0%,0%);fill-opacity:0.4;stroke:none;"/>
  </g>
</mask>
<clipPath id="clip1">
  <rect x="0" y="0" width="22" height="22"/>
</clipPath>
<g id="surface5" clip-path="url(#clip1)">
<path style=" stroke:none;fill-rule:nonzero;fill:rgb(18.039216%,20.392157%,25.098041%);fill-opacity:1;" d="M 14.300781 11.503906 C 14.324219 11.34375 14.335938 11.179688 14.335938 11.011719 L 14.335938 5.375 C 14.335938 3.511719 12.84375 1.996094 11 1.996094 C 9.320312 1.996094 7.925781 3.265625 7.703125 4.910156 "/>
<path style=" stroke:none;fill-rule:nonzero;fill:rgb(18.039216%,20.392157%,25.098041%);fill-opacity:1;" d="M 13.179688 13.566406 C 13.226562 13.523438 13.273438 13.484375 13.316406 13.4375 "/>
<path style=" stroke:none;fill-rule:nonzero;fill:rgb(18.039216%,20.392157%,25.098041%);fill-opacity:1;" d="M 7.671875 10.96875 L 7.671875 11.011719 C 7.671875 12.875 9.164062 14.382812 11 14.382812 C 11.027344 14.382812 11.054688 14.382812 11.078125 14.382812 "/>
<path style=" stroke:none;fill-rule:nonzero;fill:rgb(18.039216%,20.392157%,25.098041%);fill-opacity:1;" d="M 12.066406 15.367188 C 11.722656 15.453125 11.363281 15.5 10.992188 15.5 C 8.539062 15.5 6.550781 13.484375 6.550781 11 L 4.335938 11 C 4.335938 14.347656 6.738281 17.113281 9.890625 17.644531 L 9.890625 18.875 L 8.78125 18.875 L 8.78125 20 L 13.21875 20 L 13.21875 18.875 L 12.109375 18.875 L 12.109375 17.644531 C 12.707031 17.542969 13.28125 17.359375 13.8125 17.109375 "/>
<path style=" stroke:none;fill-rule:nonzero;fill:rgb(18.039216%,20.392157%,25.098041%);fill-opacity:1;" d="M 14.097656 14.21875 C 14.054688 14.265625 14.011719 14.304688 13.964844 14.347656 "/>
<path style=" stroke:none;fill-rule:nonzero;fill:rgb(18.039216%,20.392157%,25.098041%);fill-opacity:1;" d="M 16.914062 14.117188 C 17.390625 13.183594 17.664062 12.125 17.664062 11 L 15.441406 11 C 15.441406 11.496094 15.359375 11.972656 15.214844 12.417969 "/>
<path style=" stroke:none;fill-rule:nonzero;fill:rgb(18.039216%,20.392157%,25.098041%);fill-opacity:1;" d="M 15.546875 15.929688 C 15.59375 15.886719 15.636719 15.847656 15.679688 15.800781 "/>
<path style=" stroke:none;fill-rule:nonzero;fill:rgb(18.039216%,20.392157%,25.098041%);fill-opacity:1;" d="M 2.785156 4.628906 L 4.375 3.039062 L 19.300781 17.964844 L 17.710938 19.554688 Z M 2.785156 4.628906 "/>
</g>
</defs>
<g id="surface1">
<use xlink:href="#surface5" mask="url(#mask0)"/>
</g>
</svg>
