
<svg xmlns="http://www.w3.org/2000/svg" xmlns:xlink="http://www.w3.org/1999/xlink" width="22" height="22" viewBox="0 0 22 22" version="1.1">
<defs>
<filter id="alpha" filterUnits="objectBoundingBox" x="0%" y="0%" width="100%" height="100%">
  <feColorMatrix type="matrix" in="SourceGraphic" values="0 0 0 0 1 0 0 0 0 1 0 0 0 0 1 0 0 0 1 0"/>
</filter>
<mask id="mask0">
  <g filter="url(#alpha)">
<rect x="0" y="0" width="22" height="22" style="fill:rgb(0%,0%,0%);fill-opacity:0.4;stroke:none;"/>
  </g>
</mask>
<clipPath id="clip1">
  <rect x="0" y="0" width="22" height="22"/>
</clipPath>
<g id="surface5" clip-path="url(#clip1)">
<path style=" stroke:none;fill-rule:nonzero;fill:rgb(18.039216%,20.392157%,25.098041%);fill-opacity:1;" d="M 21 4.25 C 21 5.496094 20.007812 6.5 18.777344 6.5 C 17.550781 6.5 16.554688 5.496094 16.554688 4.25 C 16.554688 3.007812 17.554688 1.996094 18.777344 1.996094 C 20.007812 1.996094 21 3.007812 21 4.25 Z M 21 4.25 "/>
</g>
<mask id="mask1">
  <g filter="url(#alpha)">
<rect x="0" y="0" width="22" height="22" style="fill:rgb(0%,0%,0%);fill-opacity:0.4;stroke:none;"/>
  </g>
</mask>
<clipPath id="clip2">
  <rect x="0" y="0" width="22" height="22"/>
</clipPath>
<g id="surface8" clip-path="url(#clip2)">
<path style=" stroke:none;fill-rule:nonzero;fill:rgb(18.039216%,20.392157%,25.098041%);fill-opacity:1;" d="M 21 11 C 21 12.242188 20.007812 13.25 18.777344 13.25 C 17.550781 13.25 16.554688 12.242188 16.554688 11 C 16.554688 9.757812 17.554688 8.75 18.777344 8.75 C 20.007812 8.75 21 9.757812 21 11 Z M 21 11 "/>
</g>
</defs>
<g id="surface1">
<path style=" stroke:none;fill-rule:nonzero;fill:rgb(18.039216%,20.392157%,25.098041%);fill-opacity:1;" d="M 7.664062 1.996094 C 5.828125 1.996094 4.335938 3.511719 4.335938 5.375 L 4.335938 11.011719 C 4.335938 12.875 5.828125 14.382812 7.664062 14.382812 C 9.507812 14.382812 11 12.875 11 11.011719 L 11 5.375 C 11 3.511719 9.507812 1.996094 7.664062 1.996094 Z M 7.664062 1.996094 "/>
<path style=" stroke:none;fill-rule:nonzero;fill:rgb(18.039216%,20.392157%,25.098041%);fill-opacity:1;" d="M 1 11 C 1 14.347656 3.398438 17.113281 6.554688 17.644531 L 6.554688 18.875 L 5.441406 18.875 L 5.441406 20.003906 L 9.882812 20.003906 L 9.882812 18.875 L 8.769531 18.875 L 8.769531 17.644531 C 11.929688 17.113281 14.324219 14.347656 14.324219 11 L 12.101562 11 C 12.101562 13.488281 10.109375 15.5 7.65625 15.5 C 5.203125 15.5 3.214844 13.484375 3.214844 11 Z M 1 11 "/>
<use xlink:href="#surface5" mask="url(#mask0)"/>
<use xlink:href="#surface8" mask="url(#mask1)"/>
<path style=" stroke:none;fill-rule:nonzero;fill:rgb(18.039216%,20.392157%,25.098041%);fill-opacity:1;" d="M 21 17.75 C 21 18.992188 20.007812 20.003906 18.777344 20.003906 C 17.550781 20.003906 16.554688 18.992188 16.554688 17.75 C 16.554688 16.503906 17.554688 15.5 18.777344 15.5 C 20.007812 15.5 21 16.503906 21 17.75 Z M 21 17.75 "/>
</g>
</svg>
