<svg width="22" height="22" version="1.1" viewBox="0 0 22 22" xmlns="http://www.w3.org/2000/svg" xmlns:xlink="http://www.w3.org/1999/xlink">
 <defs>
  <filter id="alpha" x="0%" y="0%" width="100%" height="100%">
   <feColorMatrix in="SourceGraphic" values="0 0 0 0 1 0 0 0 0 1 0 0 0 0 1 0 0 0 1 0"/>
  </filter>
  <mask id="mask0">
   <g filter="url(#alpha)">
    <rect width="22" height="22" style="fill-opacity:.4;fill:rgb(0%,0%,0%)"/>
   </g>
  </mask>
  <clipPath id="clip1">
   <rect width="22" height="22"/>
  </clipPath>
  <g id="surface5" clip-path="url(#clip1)">
   <path d="m14.300781 11.503906c0.023438-0.160156 0.035157-0.324218 0.035157-0.492187v-5.636719c0-1.863281-1.492188-3.378906-3.335938-3.378906-1.679688 0-3.074219 1.269531-3.296875 2.914062" style="fill:rgb(18.039216%,20.392157%,25.098041%)"/>
   <path d="m13.179688 13.566406c0.046874-0.042968 0.09375-0.082031 0.136718-0.128906" style="fill:rgb(18.039216%,20.392157%,25.098041%)"/>
   <path d="m7.671875 10.96875v0.042969c0 1.863281 1.492187 3.371093 3.328125 3.371093h0.078125" style="fill:rgb(18.039216%,20.392157%,25.098041%)"/>
   <path d="m12.066406 15.367188c-0.34375 0.085937-0.703125 0.132812-1.074218 0.132812-2.453126 0-4.441407-2.015625-4.441407-4.5h-2.214843c0 3.347656 2.402343 6.113281 5.554687 6.644531v1.230469h-1.109375v1.125h4.4375v-1.125h-1.109375v-1.230469c0.597656-0.101562 1.171875-0.285156 1.703125-0.535156" style="fill:rgb(18.039216%,20.392157%,25.098041%)"/>
   <path d="m14.097656 14.21875c-0.042968 0.046875-0.085937 0.085938-0.132812 0.128906" style="fill:rgb(18.039216%,20.392157%,25.098041%)"/>
   <path d="m16.914062 14.117188c0.476563-0.933594 0.75-1.992188 0.75-3.117188h-2.222656c0 0.496094-0.082031 0.972656-0.226562 1.417969" style="fill:rgb(18.039216%,20.392157%,25.098041%)"/>
   <path d="m15.546875 15.929688c0.046875-0.042969 0.089844-0.082032 0.132813-0.128907" style="fill:rgb(18.039216%,20.392157%,25.098041%)"/>
   <path d="m2.785156 4.628906 1.589844-1.589844 14.925781 14.925782-1.589843 1.589844z" style="fill:rgb(18.039216%,20.392157%,25.098041%)"/>
  </g>
 </defs>
 <g id="surface1">
  <use mask="url(#mask0)" xlink:href="#surface5"/>
 </g>
</svg>
