<svg viewBox="0 0 22 22" xmlns="http://www.w3.org/2000/svg">
 <path d="m5.786 3.908c-0.034 2e-3 -0.07 6e-3 -0.103 0.011-0.031 5e-3 -0.061 0.015-0.092 0.023-4e-3 1e-3 -8e-3 -1e-3 -0.011 0-0.034 9e-3 -0.07 0.022-0.103 0.034-0.66 0.22-1.622 1.064-1.942 1.791-0.137 0.298-0.255 0.63-0.356 1.033-0.188 0.746-0.24 1.743-0.092 2.916 0.121 0.99 0.399 2.146 0.942 3.387 0.337 0.897 1.01 2 2.263 3.1 0.147 0.109 0.29 0.213 0.437 0.31 1.178 0.781 2.233 1.128 3.056 1.263 1.35 0.301 2.562 0.361 3.596 0.298 1.229-0.07 2.252-0.307 2.987-0.643 0.31-0.168 0.719-0.419 0.942-0.62 0.657-0.593 1.176-1.11 1.459-1.561 0.011-0.016 0.024-0.03 0.034-0.046 0.032-0.053 0.056-0.098 0.08-0.149 0.012-0.024 0.024-0.045 0.034-0.069 0.018-0.043 0.034-0.085 0.046-0.126 3e-3 -0.025 9e-3 -0.026 0.011-0.046 4e-3 -0.015 9e-3 -0.032 0.011-0.046 5e-3 -0.032 9e-3 -0.089 0.011-0.103 6e-3 -0.027 0-0.023 0-0.023s2e-3 -7e-3 0-0.034c-2e-3 -0.028 0-0.078 0-0.184-9e-3 -0.071-0.025-0.148-0.046-0.218-0.042-0.139-0.106-0.276-0.195-0.413-0.173-0.268-0.428-0.532-0.758-0.792-0.612-0.482-1.469-0.949-2.47-1.401-0.852-0.385-1.79-0.737-2.7-1.125-0.636-0.31-1.138-0.472-1.321-0.62-0.023-0.018-0.033-0.039-0.046-0.057-0.166-0.033-0.432-0.482-0.896-1.045-0.536-0.725-1.047-1.491-1.562-2.193-0.602-0.822-1.183-1.515-1.735-1.986-0.298-0.254-0.585-0.44-0.862-0.551-0.142-0.057-0.278-0.101-0.414-0.115-0.069-7e-3 -0.14-4e-3 -0.207 0z" fill="#2e3440" opacity=".4"/>
 <path d="m17.297 12.521-3.207 5.486c0.913-0.107 1.69-0.308 2.277-0.576 0.31-0.168 0.719-0.418 0.941-0.619 0.657-0.593 1.176-1.111 1.459-1.563 0.011-0.016 0.025-0.029 0.035-0.045 0.032-0.053 0.056-0.099 0.08-0.15 0.012-0.024 0.025-0.044 0.035-0.068 0.018-0.043 0.033-0.085 0.045-0.127 3e-3 -0.025 9e-3 -0.025 0.012-0.045 4e-3 -0.015 9e-3 -0.032 0.012-0.047 5e-3 -0.032 9e-3 -0.089 0.012-0.104 6e-3 -0.027 0-0.021 0-0.021s2e-3 -7e-3 0-0.035 0-0.078 0-0.184c-9e-3 -0.071-0.026-0.148-0.047-0.219-0.042-0.139-0.106-0.274-0.195-0.412-0.173-0.268-0.428-0.533-0.758-0.793-0.204-0.161-0.446-0.321-0.701-0.479z" fill="#2e3440"/>
</svg>
