<svg enable-background="new 0 0 24 24" viewBox="0 0 22 22" xmlns="http://www.w3.org/2000/svg">
 <polygon transform="matrix(.8829 0 0 .88294 .4052 .73537)" points="18.162 10.28 16.033 8.347 22.172 0.866 22.76 1.286" fill="#2e3440" opacity=".4"/>
 <path transform="matrix(.8829 0 0 .88294 .4052 .73537)" d="m5.275 10.28-4.04 1.345v-1.345l4.04-3.501 1.344 0.81 1.164 2.862-1.835 2.519z" fill="#2e3440"/>
 <path d="m5.063 6.721-3.563 3.092v1.188l3.563-1.188 2.376 9.5 2.92-1.768v-2e-3l9.783 2.957h0.326l0.033-0.27-3.563-8.04-1.188-1.188-6.078 4.857-1.369-3.367-2.053-5.05-1.188-0.715z" fill="#2e3440" opacity=".4"/>
 <path d="m10.505 13.374-1.855-3.562 2.35-1.188c1.187 0 3.561 1.188 3.561 1.188l-4.056 3.562z" fill="#2e3440" opacity=".4"/>
</svg>
