<svg enable-background="new 0 0 24 24" viewBox="0 0 22 22" xmlns="http://www.w3.org/2000/svg">
 <polygon transform="matrix(.8829 0 0 .88294 .4052 .73537)" points="18.162 10.28 16.033 8.347 22.172 0.866 22.76 1.286" fill="#2e3440" opacity=".4"/>
 <path transform="matrix(.8829 0 0 .88294 .4052 .73537)" d="m5.275 10.28-4.04 1.345v-1.345l4.04-3.501 1.344 0.81 4.654 11.448-3.308 2z" fill="#2e3440"/>
 <path transform="matrix(.8829 0 0 .88294 .4052 .73537)" d="m19.734 15.248-1.01-2.278-1.346-1.345-7.02 5.614 0.914 1.799 8.31 2.511" fill="#2e3440"/>
 <path d="m10.505 13.374-1.855-3.562 2.35-1.188c1.187 0 3.561 1.188 3.561 1.188l-4.056 3.562z" fill="#2e3440"/>
 <path d="m20.5 20.231-3.563-8.04-1.188-1.188-6.198 4.956 0.807 1.588 9.784 2.956h0.326" fill="#2e3440" opacity=".4"/>
</svg>
