<svg enable-background="new 0 0 24 24" viewBox="0 0 22 22" xmlns="http://www.w3.org/2000/svg">
 <polygon transform="matrix(.8829 0 0 .88294 .4052 .73537)" points="18.162 10.28 16.033 8.347 22.172 0.866 22.76 1.286" fill="#2e3440" opacity=".4"/>
 <path d="m5.063 9.812-3.563 1.188v-1.188l3.563-3.091 1.187 0.715 2.054 5.05-2.053 2.072" fill="#2e3440"/>
 <path d="m5.063 6.721-3.563 3.092v1.188l3.563-1.188 2.376 9.5 2.92-1.768v-2e-3l9.783 2.957h0.326l0.033-0.269-3.563-8.04-1.188-1.188-6.078 4.857-1.369-3.367-2.053-5.05" fill="#2e3440" opacity=".4"/>
 <path d="m10.505 13.374-1.855-3.562 2.35-1.188c1.187 0 3.561 1.188 3.561 1.188l-4.056 3.562z" fill="#2e3440" opacity=".4"/>
</svg>
