<svg enable-background="new 0 0 24 24" viewBox="0 0 22 22" xmlns="http://www.w3.org/2000/svg">
 <polygon transform="matrix(.8829 0 0 .88294 .4052 .73537)" points="18.162 10.28 16.033 8.347 22.172 0.866 22.76 1.286" fill="#2e3440" opacity=".4"/>
 <path transform="matrix(.8829 0 0 .88294 .4052 .73537)" d="m5.275 10.28-4.04 1.345v-1.345l4.04-3.501 1.344 0.81 4.654 11.448-3.308 2z" fill="#2e3440"/>
 <polyline transform="matrix(.8829 0 0 .88294 .4052 .73537)" points="22.76 22.08 18.725 12.97 17.379 11.625 10.359 17.238 11.273 19.037 22.354 22.385 22.723 22.385" fill="#2e3440" opacity=".4"/>
 <path d="m10.505 13.374-1.855-3.562 2.35-1.188c1.187 0 3.561 1.188 3.561 1.188l-4.056 3.562z" fill="#2e3440"/>
</svg>
