<svg id="svg7" width="22" height="22" version="1.1" xmlns="http://www.w3.org/2000/svg">
 <defs id="defs3">
  <style id="current-color-scheme" type="text/css">.ColorScheme-Text { color:#444444; } .ColorScheme-Highlight { color:#4285f4; } .ColorScheme-NeutralText { color:#ff9800; } .ColorScheme-PositiveText { color:#4caf50; } .ColorScheme-NegativeText { color:#f44336; }</style>
 </defs>
 <path id="path5" class="ColorScheme-Text" d="m9.720052 3c-0.530187 0-0.959635 0.429442-0.959635 0.959635s0.429448 0.960938 0.959635 0.960938c2.474266 0 4.480469 2.004933 4.480469 4.479166 0 0.5302 0.429435 0.959636 0.959635 0.959636s0.959636-0.429436 0.959636-0.959636c0-3.53462-2.86514-6.399739-6.39974-6.399739zm-0.320312 2.880208c-3.534621 6e-6 -6.399741 2.865106-6.39974 6.39974 0 0.5302 0.429442 0.959635 0.959635 0.959635 0.530194 0 0.960938-0.429435 0.960938-0.959635 0-2.474266 2.004933-4.480469 4.479167-4.480469 0.5302 0 0.959635-0.429442 0.959635-0.959636 0-0.530193-0.429435-0.959635-0.959635-0.959635zm8.640625 2.880208c-0.5302 0-0.960938 0.42945-0.960938 0.959636 0 2.474267-2.004899 4.480469-4.479166 4.480469-0.5302 0-0.959636 0.429435-0.959636 0.959635s0.429436 0.959636 0.959636 0.959636c3.5346 0 6.399739-2.86514 6.399739-6.39974 0-0.530186-0.429435-0.959636-0.959635-0.959636zm-11.200522 2.88021c-0.530193 0-0.959635 0.429434-0.959635 0.959634 0 3.534601 2.865106 6.39974 6.39974 6.39974 0.5302 0 0.959636-0.429435 0.959636-0.959635s-0.429436-0.960938-0.959636-0.960938c-2.474267 0-4.480469-2.0049-4.480469-4.479167 0-0.5302-0.429442-0.959634-0.959636-0.959634z" style="fill:#2e3440"/>
</svg>
