
<svg xmlns="http://www.w3.org/2000/svg" xmlns:xlink="http://www.w3.org/1999/xlink" width="22" height="22" viewBox="0 0 22 22" version="1.1">
<g id="surface1">
<path style=" stroke:none;fill-rule:nonzero;fill:rgb(18.039216%,20.392157%,25.098041%);fill-opacity:1;" d="M 18.667969 6.085938 C 18.667969 7.324219 17.671875 8.335938 16.445312 8.335938 C 15.21875 8.335938 14.21875 7.328125 14.21875 6.085938 C 14.21875 4.84375 15.21875 3.835938 16.445312 3.835938 C 17.675781 3.835938 18.667969 4.84375 18.667969 6.085938 Z M 18.667969 6.085938 "/>
<path style=" stroke:none;fill-rule:nonzero;fill:rgb(18.039216%,20.392157%,25.098041%);fill-opacity:1;" d="M 1.15625 9.261719 C 1.785156 8.988281 5.703125 10.589844 6.324219 10.496094 C 6.996094 10.394531 10.367188 7.796875 10.988281 7.796875 C 11.839844 7.796875 14.941406 10.382812 15.761719 10.507812 C 16.28125 10.582031 19.734375 9.089844 20.820312 9.230469 C 21.199219 9.832031 16.972656 13.996094 15.933594 14.167969 C 14.839844 14.347656 11.558594 11.859375 10.996094 11.859375 C 10.488281 11.859375 7.148438 14.351562 6.199219 14.195312 C 4.730469 13.953125 1.09375 9.886719 1.15625 9.261719 Z M 1.15625 9.261719 "/>
</g>
</svg>
