<svg width="22" height="22" viewBox="0 0 22 22" xmlns="http://www.w3.org/2000/svg">
 <path transform="scale(1.375)" d="m2.857955 15.042614c-0.642046-0.892046-1.360796-2.193182-1.647728-2.982955-0.284091-0.792614-0.335227-1.116477-0.360795-1.676136-0.034091-0.778409 0.105113-1.252841 0.536932-1.818182 0.823863-1.076705 1.542613-2.417614 1.943181-3.622159 0.326705-0.980114 0.491478-2.039773 0.431819-2.752841-0.014205-0.176136-0.017046-0.321023 0-0.321023 0.039772 0 0.713068 1.051137 0.943181 1.474432 0.84091 1.565341 1.193182 2.798295 1.144887 4.022727-0.025568 0.625-0.119318 1.045455-0.340909 1.511364-0.21875 0.465909-0.289773 0.536932-0.75 1.090909-0.954546 1.153409-1.565341 2.363636-1.744318 3.46875-0.082387 0.485795-0.0625 1.318182 0.039772 1.678977 0.034091 0.125 0.056818 0.232955 0.051137 0.238637-0.008523 0.008522-0.119319-0.133523-0.247159-0.3125zm0 0" fill="none" stroke="rgb(18.039216%, 20.392157%, 25.098041%)" stroke-linecap="round" stroke-linejoin="round" stroke-width="1.119"/>
 <path transform="scale(1.375)" d="m3.079545 15.056818c-0.088068-0.289773-0.102272-1.196023-0.025568-1.642045 0.176137-1.019887 0.707387-2.122159 1.505682-3.127841 0.178977-0.224432 0.423296-0.53125 0.545455-0.684659 0.269886-0.340909 0.556818-0.914773 0.673295-1.357955s0.153409-1.235795 0.085227-1.735795c-0.025568-0.198864-0.056818-0.389205-0.071022-0.420455-0.011364-0.03125 0.102272-0.130682 0.346591-0.278409 2.011363-1.215909 3.261363-2.977273 3.414772-4.8125l0.028409-0.352273 0.150569 0.477273c1.036931 3.241477 1.017045 6.025568-0.051137 7.579546-0.389204 0.568181-1 1.036931-1.744318 1.34659-1.377841 0.568182-2.386364 1.213069-3.221591 2.053978-0.832386 0.840909-1.357954 1.792613-1.528409 2.786932l-0.056818 0.332386zm0 0" fill="none" stroke="rgb(18.039216%, 20.392157%, 25.098041%)" stroke-linecap="round" stroke-linejoin="round" stroke-width="1.119"/>
 <path transform="scale(1.375)" d="m3.201705 15.048295c0-0.224431 0.227272-0.9375 0.428977-1.357954 0.732954-1.508523 2.088068-2.650568 4.252841-3.576705 0.599432-0.255681 0.883522-0.420454 1.215909-0.707386 0.676136-0.576705 1.136363-1.448864 1.323863-2.502841l0.068182-0.383523 0.519887-0.178977c0.954545-0.332386 1.892045-0.786932 2.505681-1.21875 0.613637-0.431818 1.400569-1.286932 1.568182-1.767045 0.028409-0.085228 0.059659-0.147728 0.068182-0.142046 0.022727 0.022727-0.153409 1.286932-0.258523 1.857955-0.633522 3.428977-1.909091 5.767045-3.619318 6.653409-0.46875 0.241477-0.849432 0.349432-1.53125 0.426136-2.946023 0.349432-5.161932 1.267046-6.235795 2.607955-0.130682 0.164772-0.255682 0.315341-0.272728 0.338068-0.017045 0.019886-0.03409 0-0.03409-0.048296zm0 0" fill="none" stroke="rgb(18.039216%, 20.392157%, 25.098041%)" stroke-linecap="round" stroke-linejoin="round" stroke-width="1.119"/>
</svg>
