<svg viewBox="0 0 22 22" xmlns="http://www.w3.org/2000/svg">
 <g transform="translate(0,-42)">
  <rect y=".007" width="64.17" height="63.993" rx="0" fill-opacity="0"/>
  <path transform="translate(0,42)" d="m11 2a9 9 0 0 0-9 9 9 9 0 0 0 0.01 0.326c0.306-0.453 0.719-0.998 1.189-1.433 0.975-0.902 2.303-1.676 3.949-1.942 0.409-0.066 0.831-0.1 1.264-0.099 3.028 4e-3 6.648 1.755 10.768 6.888a9 9 0 0 0 0.82-3.74 9 9 0 0 0-9-9zm-2.578 8.02c-0.333-0.01-0.647 0.01-0.938 0.06-1.164 0.186-2.101 0.736-2.818 1.399-0.701 0.651-1.905 2.226-2.086 2.689a9 9 0 0 0 8.42 5.832 9 9 0 0 0 7.02-3.387c-2.55-2.653-5.96-6.412-9.598-6.593z" fill="#2e3440"/>
 </g>
</svg>
