<svg width="22" height="22" viewBox="0 0 6.2089 6.2089" xmlns="http://www.w3.org/2000/svg">
 <g transform="matrix(.38108 0 0 .38183 -9.3706 1.7088)" fill="#88c0d0">
  <path d="m37.87 6.632c0.797-1.381 0.969-2.946 0.615-4.381l-4.37 2e-3c0.023 0.023 0.048 0.047 0.071 0.071 2e-3 2e-3 6e-3 2e-3 8e-3 4e-3 8e-3 9e-3 0.018 0.016 0.026 0.025 0.033 0.038 0.061 0.084 0.091 0.124 0.01 0.013 0.02 0.025 0.029 0.037 8e-3 0.011 0.014 0.022 0.022 0.033 2e-3 2e-3 6e-3 2e-3 8e-3 4e-3 0.011 0.016 0.022 0.033 0.033 0.049 0.013 0.02 0.024 0.041 0.036 0.061 3e-3 6e-3 8e-3 0.011 0.011 0.016 7e-3 0.012 0.015 0.021 0.022 0.033 0.01 0.018 0.019 0.038 0.028 0.057 5e-3 0.01 9e-3 0.019 0.014 0.029 9e-3 0.019 0.019 0.038 0.028 0.057 4e-3 9e-3 0.01 0.019 0.014 0.029 1e-3 2e-3 -5e-3 6e-3 -4e-3 8e-3 0.012 0.027 0.024 0.053 0.035 0.081 1e-3 2e-3 -5e-3 6e-3 -4e-3 8e-3 3e-3 0.01 0.011 0.019 0.014 0.029 5e-3 0.014 0.013 0.026 0.017 0.041 3e-3 8e-3 4e-3 0.016 7e-3 0.024 9e-3 0.027 0.015 0.056 0.023 0.084 7e-3 0.026 0.021 0.05 0.027 0.077 2e-3 0.01 0 0.021 2e-3 0.032 6e-3 0.027 0.01 0.052 0.015 0.08 5e-3 0.027 0.012 0.053 0.015 0.08 1e-3 0.011 1e-3 0.021 2e-3 0.032 1e-3 0.013-3e-3 0.027-2e-3 0.039 1e-3 0.011 0 0.021 2e-3 0.032 4e-3 0.023 0.011 0.044 0.012 0.068 0 6e-3 -1e-3 0.013-1e-3 0.02 0 4e-3 3e-3 8e-3 3e-3 0.012 0 3e-3 -4e-3 5e-3 -4e-3 8e-3 0 0.01 2e-3 0.021 2e-3 0.032 0 7e-3 -1e-3 0.013-1e-3 0.02 0 0.039-4e-3 0.079-7e-3 0.118-1e-3 0.019-2e-3 0.04-4e-3 0.059-2e-3 0.016-5e-3 0.031-7e-3 0.047-4e-3 0.029-4e-3 0.057-9e-3 0.086-6e-3 0.033-0.011 0.069-0.018 0.102-6e-3 0.026-0.017 0.052-0.024 0.078-0.01 0.038-0.022 0.076-0.034 0.113-5e-3 0.015-9e-3 0.028-0.014 0.043-9e-3 0.026-0.014 0.052-0.024 0.078-3e-3 8e-3 -0.01 0.015-0.013 0.023-0.014 0.033-0.03 0.064-0.045 0.096-6e-3 0.013-8e-3 0.029-0.014 0.043-0.015 0.028-0.033 0.057-0.048 0.084-9e-3 0.015-0.017 0.031-0.026 0.046l-2.752 4.766c2.396 0.443 4.912-0.606 6.2-2.836z"/>
  <path d="m32.738-2.258c-1.594 0-3.036 0.634-4.101 1.658l2.187 3.784c8e-3 -0.031 0.017-0.065 0.026-0.097 1e-3 -3e-3 -1e-3 -6e-3 0-9e-3 4e-3 -0.012 5e-3 -0.024 9e-3 -0.035 0.016-0.048 0.042-0.094 0.062-0.141 6e-3 -0.014 0.011-0.03 0.018-0.044 6e-3 -0.012 0.012-0.023 0.018-0.035 1e-3 -2e-3 -1e-3 -6e-3 0-9e-3 9e-3 -0.018 0.017-0.035 0.026-0.053 0.011-0.021 0.024-0.041 0.035-0.062l9e-3 -0.018c7e-3 -0.012 0.011-0.024 0.018-0.035 0.011-0.018 0.024-0.035 0.035-0.053 6e-3 -9e-3 0.012-0.018 0.018-0.026 0.012-0.018 0.023-0.036 0.035-0.053 6e-3 -8e-3 0.012-0.018 0.018-0.026 1e-3 -1e-3 8e-3 1e-3 9e-3 0 0.018-0.024 0.034-0.048 0.053-0.071 1e-3 -2e-3 7e-3 1e-3 9e-3 0 7e-3 -7e-3 0.011-0.019 0.018-0.026 0.01-0.011 0.017-0.024 0.026-0.035 6e-3 -6e-3 0.012-0.011 0.018-0.018 0.019-0.021 0.041-0.041 0.062-0.062 0.019-0.019 0.033-0.043 0.053-0.062 8e-3 -7e-3 0.019-0.011 0.026-0.018 0.021-0.019 0.04-0.035 0.062-0.053 0.021-0.017 0.04-0.036 0.062-0.053 9e-3 -6e-3 0.018-0.011 0.026-0.018 0.01-7e-3 0.025-0.01 0.035-0.018 9e-3 -6e-3 0.018-0.011 0.026-0.018 0.018-0.015 0.033-0.032 0.053-0.044 5e-3 -3e-3 0.012-5e-3 0.018-9e-3 3e-3 -2e-3 5e-3 -7e-3 9e-3 -9e-3 2e-3 -1e-3 7e-3 1e-3 9e-3 0 9e-3 -5e-3 0.017-0.012 0.026-0.018l0.018-9e-3c0.034-0.019 0.071-0.036 0.106-0.053 0.017-8e-3 0.035-0.018 0.053-0.026 0.014-6e-3 0.03-0.012 0.044-0.018 0.027-0.011 0.052-0.025 0.079-0.035 0.032-0.012 0.065-0.025 0.097-0.035 0.025-8e-3 0.054-0.011 0.079-0.018 0.038-0.01 0.076-0.019 0.115-0.026 0.015-3e-3 0.029-6e-3 0.044-9e-3 0.027-5e-3 0.052-0.014 0.079-0.018 9e-3 -1e-3 0.018 1e-3 0.026 0 0.035-5e-3 0.07-6e-3 0.106-9e-3 0.015-1e-3 0.029-8e-3 0.044-9e-3 0.032-2e-3 0.065 0 0.097 0h5.556c-0.814-2.296-2.981-3.951-5.556-3.951z"/>
  <path d="m28.24-0.176c-0.888 1.036-1.429 2.373-1.429 3.845 0 2.701 1.806 4.983 4.277 5.697l2.187-3.792c-0.046 0.013-0.095 0.017-0.141 0.026-0.017 4e-3 -0.035 6e-3 -0.053 9e-3 -0.061 0.011-0.122 0.021-0.185 0.026h-0.018c-0.029 2e-3 -0.059 8e-3 -0.088 9e-3h-0.088c-0.029-1e-3 -0.059-7e-3 -0.088-9e-3h-0.018c-0.03-2e-3 -0.059-5e-3 -0.088-9e-3 -0.032-4e-3 -0.065-4e-3 -0.097-9e-3 -0.015-2e-3 -0.029-6e-3 -0.044-9e-3 -9e-3 -2e-3 -0.017-7e-3 -0.026-9e-3 -0.035-7e-3 -0.071-0.017-0.106-0.026-3e-3 -1e-3 -6e-3 1e-3 -9e-3 0-0.024-6e-3 -0.047-0.011-0.071-0.018-3e-3 -1e-3 -6e-3 1e-3 -9e-3 0-9e-3 -3e-3 -0.017-6e-3 -0.026-9e-3 -0.021-7e-3 -0.04-0.019-0.062-0.026-2e-3 -1e-3 -6e-3 1e-3 -9e-3 0-0.028-0.01-0.052-0.024-0.079-0.035-0.032-0.014-0.065-0.028-0.097-0.044-0.026-0.013-0.054-0.021-0.079-0.035-0.015-8e-3 -0.029-0.018-0.044-0.026-0.012-7e-3 -0.024-0.011-0.035-0.018-0.018-0.011-0.035-0.024-0.053-0.035-9e-3 -6e-3 -0.018-0.012-0.026-0.018-0.018-0.012-0.036-0.023-0.053-0.035-6e-3 -5e-3 -0.011-0.013-0.018-0.018-0.027-0.02-0.053-0.04-0.079-0.062-0.02-0.017-0.042-0.035-0.062-0.053-8e-3 -7e-3 -0.019-0.01-0.026-0.018-0.02-0.018-0.034-0.042-0.053-0.062-0.027-0.027-0.054-0.051-0.079-0.079-0.017-0.019-0.036-0.042-0.053-0.062-0.017-0.021-0.036-0.04-0.053-0.062-4e-3 -5e-3 -5e-3 -0.012-9e-3 -0.018-0.017-0.024-0.036-0.046-0.053-0.071-6e-3 -9e-3 -0.012-0.017-0.018-0.026-0.012-0.018-0.024-0.035-0.035-0.053-7e-3 -0.012-0.011-0.024-0.018-0.035-9e-3 -0.015-0.019-0.029-0.026-0.044-1e-3 -2e-3 1e-3 -6e-3 0-9e-3l-0.018-0.035-2.743-4.745z"/>
  <circle transform="matrix(.034417 0 0 .034417 32.721 3.6517)" cx=".5" cy=".5" r="41"/>
 </g>
</svg>
