<svg viewBox="0 0 22 22" xmlns="http://www.w3.org/2000/svg">
 <g transform="matrix(.036909 0 0 .036909 1.3529 2.7059)" fill="#2e3440" opacity=".4">
  <path transform="matrix(27.094 0 0 27.094 -36.656 -73.313)" d="m11 3c-4.424 0-8 3.576-8 8s3.576 8 8 8v3c4.612-2.165 8-6.765 8-11 0-4.424-3.576-8-8-8zm-0.139 3c0.554 0 1.01 0.079 1.371 0.236 0.36 0.148 0.647 0.336 0.859 0.566 0.212 0.231 0.36 0.485 0.443 0.762s0.125 0.546 0.125 0.805c0 0.314-0.062 0.594-0.182 0.844-0.111 0.249-0.252 0.481-0.428 0.693-0.175 0.212-0.365 0.415-0.568 0.609-0.203 0.185-0.393 0.379-0.568 0.582-0.175 0.194-0.323 0.401-0.443 0.623-0.111 0.222-0.166 0.471-0.166 0.748v0.166c0 0.055 4e-3 0.111 0.014 0.166h-1.439c-0.018-0.092-0.034-0.189-0.043-0.291-9e-3 -0.111-0.014-0.212-0.014-0.305 0-0.305 0.051-0.576 0.152-0.816 0.102-0.24 0.232-0.463 0.389-0.666s0.323-0.393 0.498-0.568c0.185-0.175 0.355-0.35 0.512-0.525s0.287-0.356 0.389-0.541 0.152-0.388 0.152-0.609c0-0.305-0.106-0.554-0.318-0.748-0.203-0.203-0.512-0.305-0.928-0.305-0.323 0-0.632 0.042-0.928 0.125-0.295 0.074-0.605 0.2-0.928 0.375l-0.473-1.289c0.342-0.194 0.73-0.346 1.164-0.457 0.443-0.12 0.896-0.18 1.357-0.18zm-0.221 7.797c0.314 0 0.577 0.108 0.789 0.32 0.212 0.203 0.318 0.466 0.318 0.789s-0.106 0.586-0.318 0.789-0.475 0.305-0.789 0.305c-0.305 0-0.569-0.102-0.791-0.305-0.212-0.203-0.318-0.466-0.318-0.789s0.106-0.586 0.318-0.789c0.222-0.212 0.486-0.32 0.791-0.32z"/>
 </g>
</svg>
