<svg width="22" height="22" viewBox="0 0 6.2089 6.2089" xmlns="http://www.w3.org/2000/svg">
 <path transform="scale(.28222)" d="m7.537 4a1 1 0 0 0-0.865 0.498l-3.467 6a1 1 0 0 0 0 1.004l3.467 6a1 1 0 0 0 0.865 0.498h6.928a1 1 0 0 0 0.863-0.498l3.469-6a1 1 0 0 0 0-1.004l-3.469-6a1 1 0 0 0-0.863-0.498h-6.928zm0.574 2h5.778l0.382 0.668-3.271 3.271-3.273-3.273 0.384-0.666zm-1.162 2.01 2.99 2.99-2.988 2.988-1.726-2.992 1.724-2.986zm8.101 0 1.718 2.99-1.718 2.988-2.99-2.988 2.99-2.99zm-4.05 4.05 3.273 3.274-0.384 0.666h-5.778l-0.384-0.666 3.273-3.274z" color-rendering="auto" fill="#88c0d0" image-rendering="auto" shape-rendering="auto" solid-color="#000000" isolation="auto" mix-blend-mode="normal" white-space="normal"/>
</svg>
