<svg viewBox="0 0 22 22" xmlns="http://www.w3.org/2000/svg">
 <path d="m3 1c-1.108 0-2 0.892-2 2v16c0 1.108 0.892 2 2 2h16c1.108 0 2-0.892 2-2v-16c0-1.108-0.892-2-2-2h-16zm2.574 5.588h1.574v8.662h-1.574v-8.662zm5.688 1.963c0.383 0 0.75 0.036 1.1 0.111 0.35 0.067 0.612 0.135 0.787 0.201l-0.275 1.225c-0.167-0.075-0.378-0.143-0.637-0.201-0.258-0.067-0.559-0.1-0.9-0.1-0.308 0-0.558 0.054-0.75 0.162-0.192 0.1-0.287 0.26-0.287 0.477 0 0.108 0.015 0.204 0.049 0.287 0.042 0.083 0.11 0.161 0.201 0.236 0.092 0.067 0.211 0.138 0.361 0.213 0.15 0.067 0.334 0.138 0.551 0.213 0.358 0.133 0.662 0.267 0.912 0.4 0.25 0.125 0.455 0.271 0.613 0.438 0.167 0.158 0.286 0.34 0.361 0.549 0.075 0.208 0.113 0.458 0.113 0.75 0 0.625-0.233 1.101-0.699 1.426-0.458 0.317-1.118 0.475-1.977 0.475-0.575 0-1.037-0.05-1.387-0.15-0.35-0.092-0.597-0.166-0.738-0.225l0.264-1.262c0.225 0.092 0.49 0.178 0.799 0.262 0.317 0.083 0.676 0.125 1.076 0.125s0.692-0.045 0.875-0.137c0.183-0.1 0.275-0.267 0.275-0.5 0-0.217-0.101-0.395-0.301-0.537-0.192-0.142-0.513-0.296-0.963-0.463-0.275-0.1-0.528-0.204-0.762-0.313-0.225-0.117-0.421-0.25-0.588-0.4s-0.3-0.329-0.4-0.537c-0.092-0.217-0.137-0.479-0.137-0.787 0-0.6 0.22-1.072 0.662-1.414 0.442-0.35 1.042-0.523 1.801-0.523zm4.307 4.768c0.463 0 0.801 0.111 1.018 0.332 0.221 0.217 0.332 0.513 0.332 0.893 0 0.15-0.031 0.299-0.094 0.445-0.063 0.142-0.144 0.28-0.244 0.418-0.096 0.133-0.207 0.265-0.332 0.395-0.125 0.125-0.25 0.246-0.375 0.367-0.067 0.063-0.141 0.139-0.225 0.227-0.083 0.087-0.161 0.174-0.236 0.262-0.075 0.087-0.141 0.173-0.195 0.256-0.054 0.079-0.082 0.147-0.086 0.201h1.924v0.637h-2.756c-4e-3 -0.033-6e-3 -0.073-6e-3 -0.119v-0.111c0-0.2 0.031-0.384 0.094-0.551 0.067-0.171 0.152-0.329 0.256-0.475s0.22-0.283 0.35-0.412c0.129-0.129 0.26-0.258 0.389-0.383 0.1-0.096 0.195-0.19 0.287-0.281 0.092-0.092 0.17-0.18 0.236-0.268 0.071-0.092 0.128-0.184 0.17-0.275 0.042-0.096 0.063-0.193 0.063-0.293 0-0.217-0.063-0.371-0.188-0.463s-0.278-0.139-0.457-0.139c-0.117 0-0.224 0.017-0.324 0.051-0.1 0.033-0.19 0.073-0.27 0.119-0.075 0.046-0.141 0.093-0.199 0.143-0.058 0.046-0.102 0.084-0.131 0.113l-0.375-0.531c0.175-0.167 0.378-0.3 0.611-0.4 0.237-0.104 0.493-0.156 0.764-0.156z" fill="#2e3440"/>
</svg>
