<svg viewBox="0 0 22 22" xmlns="http://www.w3.org/2000/svg">
 <path d="m3 1c-1.108 0-2 0.892-2 2v16c0 1.108 0.892 2 2 2h16c1.108 0 2-0.892 2-2v-16c0-1.108-0.892-2-2-2h-16zm0.914 5.588h1.574v7.299h3.9v1.363h-5.475v-8.662zm5.252 2.125h1.613c0.092 0.367 0.196 0.763 0.313 1.188 0.125 0.417 0.253 0.837 0.387 1.262 0.142 0.417 0.284 0.825 0.426 1.225 0.15 0.392 0.287 0.746 0.412 1.063 0.125-0.317 0.259-0.671 0.4-1.063 0.142-0.4 0.279-0.808 0.412-1.225 0.142-0.425 0.275-0.845 0.4-1.262 0.125-0.425 0.233-0.821 0.324-1.188h1.563c-0.358 1.275-0.758 2.471-1.199 3.588-0.433 1.108-0.859 2.091-1.275 2.949h-1.299c-0.417-0.858-0.847-1.841-1.289-2.949-0.433-1.117-0.829-2.313-1.188-3.588zm8.531 4.705h0.719v2.676h0.486v0.619h-0.486v1.037h-0.738v-1.037h-1.9v-0.537c0.083-0.183 0.195-0.395 0.332-0.633 0.142-0.237 0.298-0.48 0.469-0.73s0.351-0.497 0.543-0.738c0.192-0.242 0.385-0.46 0.576-0.656zm-0.02 0.932c-0.1 0.121-0.204 0.251-0.313 0.389-0.104 0.137-0.207 0.28-0.307 0.43s-0.195 0.305-0.287 0.463c-0.092 0.154-0.175 0.309-0.25 0.463h1.156v-1.744z" fill="#2e3440"/>
</svg>
