<svg viewBox="0 0 22 22" xmlns="http://www.w3.org/2000/svg">
 <path d="m3 1c-1.108 0-2 0.892-2 2v16c0 1.108 0.892 2 2 2h16c1.108 0 2-0.892 2-2v-16c0-1.108-0.892-2-2-2h-16zm-0.314 5.588h6.912v1.361h-2.662v7.301h-1.588v-7.301h-2.662v-1.361zm9.713 1.963c0.5 0 0.92 0.063 1.262 0.188s0.612 0.298 0.813 0.523c0.208 0.225 0.354 0.501 0.438 0.826 0.092 0.317 0.139 0.665 0.139 1.049v3.963c-0.233 0.05-0.588 0.109-1.063 0.176-0.467 0.075-0.996 0.111-1.588 0.111-0.392 0-0.751-0.036-1.076-0.111s-0.603-0.197-0.836-0.363c-0.225-0.167-0.406-0.384-0.539-0.65-0.125-0.267-0.188-0.595-0.188-0.986 0-0.375 0.071-0.693 0.213-0.951 0.15-0.258 0.35-0.467 0.6-0.625 0.25-0.167 0.538-0.283 0.863-0.35 0.333-0.075 0.679-0.111 1.037-0.111 0.167 0 0.342 0.012 0.525 0.037 0.183 0.017 0.38 0.05 0.588 0.1v-0.25c0-0.175-0.021-0.342-0.063-0.5s-0.116-0.295-0.225-0.412c-0.1-0.125-0.239-0.22-0.414-0.287-0.167-0.067-0.378-0.102-0.637-0.102-0.35 0-0.671 0.026-0.963 0.076s-0.53 0.107-0.713 0.174l-0.188-1.225c0.192-0.067 0.471-0.133 0.838-0.199 0.367-0.067 0.759-0.1 1.176-0.1zm0.299 3.773c-0.167 0-0.337 0.014-0.512 0.039-0.167 0.025-0.321 0.07-0.463 0.137-0.133 0.067-0.241 0.162-0.324 0.287-0.083 0.117-0.125 0.268-0.125 0.451 0 0.358 0.113 0.608 0.338 0.75 0.225 0.133 0.529 0.199 0.912 0.199 0.467 0 0.821-0.024 1.063-0.074v-1.676c-0.083-0.025-0.205-0.049-0.363-0.074s-0.334-0.039-0.525-0.039zm4.02 1.094h2.213v0.639h-1.568c-4e-3 0.071-0.011 0.152-0.02 0.244-4e-3 0.087-9e-3 0.176-0.018 0.268-4e-3 0.092-0.011 0.18-0.02 0.264-8e-3 0.083-0.017 0.153-0.025 0.211 0.617 0.033 1.072 0.176 1.363 0.426 0.296 0.246 0.443 0.583 0.443 1.012 0 0.196-0.033 0.378-0.1 0.545s-0.169 0.311-0.307 0.432c-0.137 0.121-0.311 0.216-0.52 0.287-0.208 0.067-0.451 0.1-0.73 0.1-0.113 0-0.227-9e-3 -0.344-0.025-0.117-0.017-0.23-0.038-0.338-0.063-0.104-0.021-0.198-0.043-0.281-0.068s-0.146-0.048-0.188-0.068l0.145-0.639c0.087 0.042 0.212 0.089 0.375 0.139 0.167 0.046 0.368 0.068 0.605 0.068 0.163 0 0.303-0.017 0.42-0.051 0.117-0.037 0.21-0.086 0.281-0.148 0.075-0.063 0.129-0.134 0.162-0.213 0.033-0.083 0.049-0.172 0.049-0.264 0-0.137-0.026-0.259-0.08-0.367s-0.15-0.2-0.287-0.275c-0.133-0.075-0.316-0.132-0.545-0.17-0.225-0.037-0.51-0.055-0.855-0.055 0.046-0.4 0.08-0.78 0.105-1.139 0.025-0.362 0.046-0.725 0.063-1.088z" fill="#2e3440"/>
</svg>
