<svg viewBox="0 0 22 22" xmlns="http://www.w3.org/2000/svg">
 <path d="m3 1c-1.108 0-2 0.892-2 2v16c0 1.108 0.892 2 2 2h16c1.108 0 2-0.892 2-2v-16c0-1.108-0.892-2-2-2h-16zm9.67 4.863c0.25 0 0.467 0.083 0.65 0.25s0.275 0.396 0.275 0.688c0 0.283-0.092 0.507-0.275 0.674s-0.4 0.25-0.65 0.25c-0.258 0-0.479-0.083-0.662-0.25s-0.275-0.39-0.275-0.674c0-0.292 0.092-0.521 0.275-0.688s0.404-0.25 0.662-0.25zm-7.572 0.725h5.475v1.338h-3.9v2.211h3.463v1.338h-3.463v3.775h-1.574v-8.662zm6.822 2.125h1.512v6.537h-1.512v-6.537zm3.262 4.705h2.213v0.639h-1.57c-4e-3 0.071-9e-3 0.152-0.018 0.244-4e-3 0.087-0.011 0.176-0.02 0.268-4e-3 0.092-9e-3 0.18-0.018 0.264-8e-3 0.083-0.017 0.153-0.025 0.211 0.617 0.033 1.07 0.176 1.361 0.426 0.296 0.246 0.445 0.583 0.445 1.012 0 0.196-0.035 0.378-0.102 0.545s-0.167 0.311-0.305 0.432c-0.137 0.121-0.311 0.216-0.52 0.287-0.208 0.067-0.451 0.1-0.73 0.1-0.113 0-0.227-9e-3 -0.344-0.025-0.117-0.017-0.23-0.038-0.338-0.063-0.104-0.021-0.198-0.043-0.281-0.068s-0.146-0.048-0.188-0.068l0.143-0.639c0.088 0.042 0.213 0.089 0.375 0.139 0.167 0.046 0.37 0.068 0.607 0.068 0.162 0 0.301-0.017 0.418-0.051 0.117-0.037 0.21-0.086 0.281-0.148 0.075-0.063 0.129-0.134 0.162-0.213 0.033-0.083 0.051-0.172 0.051-0.264 0-0.137-0.028-0.259-0.082-0.367s-0.15-0.2-0.287-0.275c-0.133-0.075-0.314-0.132-0.543-0.17-0.225-0.037-0.512-0.055-0.857-0.055 0.046-0.4 0.082-0.78 0.107-1.139 0.025-0.362 0.046-0.725 0.063-1.088z" fill="#2e3440"/>
</svg>
