<svg viewBox="0 0 22 22" xmlns="http://www.w3.org/2000/svg">
 <path d="m3 1c-1.108 0-2 0.892-2 2v16c0 1.108 0.892 2 2 2h16c1.108 0 2-0.892 2-2v-16c0-1.108-0.892-2-2-2h-16zm-0.344 5.588h1.574v3.574c0.275-0.275 0.563-0.567 0.863-0.875 0.3-0.317 0.595-0.633 0.887-0.949 0.3-0.325 0.585-0.637 0.852-0.938 0.267-0.3 0.508-0.571 0.725-0.813h1.887c-0.275 0.317-0.567 0.645-0.875 0.986-0.308 0.342-0.624 0.689-0.949 1.039-0.325 0.342-0.655 0.682-0.988 1.023-0.325 0.342-0.646 0.668-0.963 0.977 0.35 0.267 0.704 0.579 1.063 0.938 0.367 0.35 0.726 0.728 1.076 1.137 0.35 0.4 0.683 0.82 1 1.262 0.325 0.433 0.62 0.867 0.887 1.301h-1.861c-0.217-0.333-0.467-0.684-0.75-1.051s-0.584-0.721-0.9-1.063c-0.308-0.342-0.63-0.666-0.963-0.975-0.333-0.308-0.663-0.574-0.988-0.799v3.887h-1.574v-8.662zm7.76 2.125h1.514v3.424c0 0.7 0.099 1.2 0.299 1.5 0.208 0.3 0.568 0.451 1.076 0.451 0.183 0 0.374-9e-3 0.574-0.025 0.208-0.017 0.363-0.037 0.463-0.063v-5.287h1.512v6.338c-0.292 0.075-0.67 0.15-1.137 0.225-0.467 0.083-0.979 0.125-1.537 0.125-0.525 0-0.968-0.075-1.326-0.225-0.35-0.15-0.633-0.358-0.85-0.625-0.208-0.267-0.358-0.585-0.449-0.951-0.092-0.375-0.139-0.783-0.139-1.225v-3.662zm7.207 4.705h2.213v0.639h-1.57c-4e-3 0.071-9e-3 0.152-0.018 0.244-4e-3 0.087-0.011 0.176-0.02 0.268-4e-3 0.092-9e-3 0.18-0.018 0.264-8e-3 0.083-0.017 0.153-0.025 0.211 0.617 0.033 1.07 0.176 1.361 0.426 0.296 0.246 0.445 0.583 0.445 1.012 0 0.196-0.035 0.378-0.102 0.545s-0.167 0.311-0.305 0.432-0.311 0.216-0.52 0.287c-0.208 0.067-0.451 0.1-0.73 0.1-0.112 0-0.227-9e-3 -0.344-0.025-0.117-0.017-0.23-0.038-0.338-0.063-0.104-0.021-0.198-0.043-0.281-0.068s-0.146-0.048-0.188-0.068l0.143-0.639c0.087 0.042 0.212 0.089 0.375 0.139 0.167 0.046 0.37 0.068 0.607 0.068 0.163 0 0.301-0.017 0.418-0.051 0.117-0.037 0.21-0.086 0.281-0.148 0.075-0.063 0.129-0.134 0.162-0.213 0.033-0.083 0.051-0.172 0.051-0.264 0-0.137-0.028-0.259-0.082-0.367s-0.15-0.2-0.287-0.275c-0.133-0.075-0.314-0.132-0.543-0.17-0.225-0.037-0.512-0.055-0.857-0.055 0.046-0.4 0.082-0.78 0.107-1.139 0.025-0.362 0.046-0.725 0.063-1.088z" fill="#2e3440"/>
</svg>
