<svg viewBox="0 0 22 22" xmlns="http://www.w3.org/2000/svg">
 <path d="m3 1c-1.108 0-2 0.892-2 2v16c0 1.108 0.892 2 2 2h16c1.108 0 2-0.892 2-2v-16c0-1.108-0.892-2-2-2h-16zm8.625 4.551v5.711c0.192-0.2 0.397-0.412 0.613-0.637 0.217-0.233 0.428-0.463 0.637-0.688 0.208-0.233 0.405-0.454 0.588-0.662 0.192-0.217 0.355-0.404 0.488-0.563h1.787c-0.417 0.467-0.858 0.949-1.324 1.449-0.458 0.5-0.922 0.988-1.389 1.463 0.25 0.208 0.512 0.462 0.787 0.762 0.275 0.292 0.542 0.604 0.801 0.938 0.258 0.333 0.5 0.667 0.725 1s0.412 0.642 0.563 0.926h-1.75c-0.15-0.258-0.325-0.529-0.525-0.813-0.192-0.283-0.4-0.558-0.625-0.824-0.225-0.267-0.454-0.517-0.688-0.75-0.233-0.242-0.463-0.447-0.688-0.613v3h-1.512v-9.449l1.512-0.25zm-5.637 0.836c0.542 0 1.021 0.063 1.438 0.188 0.425 0.117 0.758 0.247 1 0.389l-0.488 1.275c-0.283-0.158-0.596-0.28-0.938-0.363-0.333-0.083-0.679-0.125-1.037-0.125-0.425 0-0.758 0.087-1 0.262-0.233 0.175-0.35 0.422-0.35 0.738 0 0.192 0.036 0.358 0.111 0.5 0.083 0.133 0.196 0.255 0.338 0.363 0.15 0.108 0.32 0.207 0.512 0.299 0.2 0.092 0.417 0.18 0.65 0.264 0.408 0.15 0.771 0.303 1.088 0.461 0.325 0.15 0.596 0.334 0.813 0.551 0.225 0.208 0.395 0.458 0.512 0.75 0.117 0.283 0.176 0.629 0.176 1.037 0 0.783-0.28 1.393-0.838 1.826-0.55 0.425-1.357 0.637-2.424 0.637-0.358 0-0.688-0.024-0.988-0.074-0.292-0.042-0.554-0.097-0.787-0.164-0.225-0.067-0.421-0.133-0.588-0.199-0.167-0.075-0.3-0.141-0.4-0.199l0.463-1.289c0.225 0.125 0.529 0.25 0.912 0.375s0.847 0.188 1.389 0.188c0.567 0 0.978-0.095 1.236-0.287s0.389-0.462 0.389-0.813c0-0.208-0.047-0.387-0.139-0.537-0.083-0.15-0.208-0.284-0.375-0.4-0.158-0.125-0.355-0.238-0.588-0.338-0.233-0.108-0.499-0.212-0.799-0.313-0.3-0.108-0.592-0.225-0.875-0.35-0.275-0.133-0.522-0.295-0.738-0.486-0.208-0.192-0.378-0.421-0.512-0.687-0.125-0.267-0.188-0.588-0.188-0.963 0-0.783 0.271-1.396 0.813-1.838 0.542-0.45 1.28-0.676 2.213-0.676zm11.703 6.932c0.462 0 0.803 0.111 1.02 0.332 0.221 0.217 0.33 0.513 0.33 0.893 0 0.15-0.031 0.299-0.094 0.445-0.063 0.142-0.142 0.28-0.242 0.418-0.096 0.133-0.207 0.265-0.332 0.395-0.125 0.125-0.25 0.246-0.375 0.367-0.067 0.063-0.141 0.139-0.225 0.227-0.083 0.087-0.163 0.174-0.238 0.262-0.075 0.087-0.139 0.173-0.193 0.256-0.054 0.079-0.084 0.147-0.088 0.201h1.926v0.637h-2.756c-4e-3 -0.033-8e-3 -0.073-8e-3 -0.119v-0.111c0-0.2 0.031-0.384 0.094-0.551 0.067-0.171 0.154-0.329 0.258-0.475s0.22-0.283 0.35-0.412c0.129-0.129 0.258-0.258 0.387-0.383 0.1-0.096 0.195-0.19 0.287-0.281 0.092-0.092 0.172-0.18 0.238-0.268 0.071-0.092 0.126-0.184 0.168-0.275 0.042-0.096 0.063-0.193 0.063-0.293 0-0.217-0.063-0.371-0.188-0.463s-0.276-0.139-0.455-0.139c-0.117 0-0.226 0.017-0.326 0.051-0.1 0.033-0.188 0.073-0.268 0.119-0.075 0.046-0.143 0.093-0.201 0.143-0.058 0.046-0.102 0.084-0.131 0.113l-0.375-0.531c0.175-0.167 0.38-0.3 0.613-0.4 0.237-0.104 0.491-0.156 0.762-0.156z" fill="#2e3440"/>
</svg>
