<svg viewBox="0 0 22 22" xmlns="http://www.w3.org/2000/svg">
 <path d="m3 1c-1.108 0-2 0.892-2 2v16c0 1.108 0.892 2 2 2h16c1.108 0 2-0.892 2-2v-16c0-1.108-0.892-2-2-2h-16zm0.914 5.588h1.574v7.299h3.9v1.363h-5.475v-8.662zm5.252 2.125h1.613c0.092 0.367 0.196 0.763 0.313 1.188 0.125 0.417 0.253 0.837 0.387 1.262 0.142 0.417 0.284 0.825 0.426 1.225 0.15 0.392 0.287 0.746 0.412 1.063 0.125-0.317 0.259-0.671 0.4-1.063 0.142-0.4 0.279-0.808 0.412-1.225 0.142-0.425 0.275-0.845 0.4-1.262 0.125-0.425 0.233-0.821 0.324-1.188h1.563c-0.358 1.275-0.758 2.471-1.199 3.588-0.433 1.108-0.859 2.091-1.275 2.949h-1.299c-0.417-0.858-0.847-1.841-1.289-2.949-0.433-1.117-0.829-2.313-1.188-3.588zm8.344 4.705h0.531v4.332h-0.758v-3.318c-0.113 0.087-0.253 0.173-0.424 0.256s-0.336 0.153-0.494 0.207l-0.23-0.576c0.242-0.096 0.483-0.219 0.725-0.369 0.246-0.15 0.463-0.327 0.65-0.531z" fill="#2e3440"/>
</svg>
