<svg viewBox="0 0 22 22" xmlns="http://www.w3.org/2000/svg">
 <path d="m3 1c-1.108 0-2 0.892-2 2v16c0 1.108 0.892 2 2 2h16c1.108 0 2-0.892 2-2v-16c0-1.108-0.892-2-2-2h-16zm1.631 5.5c0.725 0 1.388 0.087 1.988 0.262 0.6 0.167 1.112 0.434 1.537 0.801 0.433 0.358 0.767 0.817 1 1.375 0.233 0.55 0.35 1.208 0.35 1.975 0 0.75-0.116 1.405-0.35 1.963-0.233 0.55-0.567 1.012-1 1.387-0.425 0.367-0.942 0.643-1.551 0.826-0.6 0.175-1.267 0.262-2 0.262-0.35 0-0.746-0.015-1.187-0.049-0.442-0.025-0.862-0.084-1.262-0.176v-8.412c0.4-0.092 0.825-0.151 1.275-0.176s0.849-0.037 1.199-0.037zm0.1 1.363c-0.467 0-0.8 0.012-1 0.037v6.05c0.092 8e-3 0.213 0.017 0.363 0.025h0.611c1.058 0 1.847-0.265 2.363-0.799 0.525-0.542 0.787-1.297 0.787-2.264 0-0.983-0.253-1.737-0.762-2.262-0.508-0.525-1.297-0.787-2.363-0.787zm9.107 0.687c0.9 0 1.6 0.278 2.1 0.836 0.508 0.558 0.764 1.392 0.764 2.5 0 0.083-5e-3 0.181-0.014 0.289 0 0.1-3e-3 0.19-0.012 0.273h-4.313c0.042 0.525 0.224 0.935 0.549 1.227 0.333 0.283 0.813 0.424 1.438 0.424 0.367 0 0.7-0.033 1-0.1 0.308-0.067 0.552-0.138 0.727-0.213l0.199 1.238c-0.083 0.042-0.2 0.087-0.35 0.137-0.142 0.042-0.308 0.08-0.5 0.113-0.183 0.042-0.383 0.075-0.6 0.1s-0.439 0.037-0.664 0.037c-0.575 0-1.075-0.083-1.5-0.25-0.425-0.175-0.774-0.413-1.049-0.713-0.275-0.308-0.48-0.666-0.613-1.074-0.133-0.417-0.199-0.872-0.199-1.363 0-0.575 0.083-1.078 0.25-1.512 0.175-0.433 0.404-0.791 0.688-1.074 0.283-0.292 0.608-0.509 0.975-0.65 0.367-0.15 0.742-0.225 1.125-0.225zm0.012 1.262c-0.233 0-0.436 0.045-0.611 0.137-0.175 0.083-0.326 0.196-0.451 0.338-0.117 0.142-0.207 0.305-0.273 0.488-0.067 0.183-0.114 0.371-0.139 0.563h2.813c0-0.208-0.03-0.405-0.088-0.588-0.058-0.192-0.145-0.355-0.262-0.488-0.108-0.142-0.245-0.249-0.412-0.324-0.158-0.083-0.351-0.125-0.576-0.125zm3.811 3.605h2.895v0.576c-0.138 0.154-0.289 0.364-0.451 0.631s-0.315 0.569-0.461 0.906c-0.146 0.333-0.274 0.691-0.383 1.074-0.104 0.383-0.168 0.765-0.193 1.145h-0.775c0.025-0.317 0.082-0.65 0.17-1s0.193-0.69 0.318-1.02c0.129-0.333 0.268-0.642 0.418-0.93 0.154-0.292 0.307-0.537 0.457-0.732h-1.994v-0.65z" fill="#2e3440"/>
</svg>
