<svg viewBox="0 0 22 22" xmlns="http://www.w3.org/2000/svg">
 <path d="m3 1c-1.108 0-2 0.892-2 2v16c0 1.108 0.892 2 2 2h16c1.108 0 2-0.892 2-2v-16c0-1.108-0.892-2-2-2h-16zm-0.063 5.588h5.563v1.338h-3.988v2.137h3.551v1.313h-3.551v2.537h4.287v1.338h-5.861v-8.662zm9.936 1.986c0.533 0 0.98 0.077 1.338 0.227 0.358 0.142 0.641 0.345 0.85 0.611 0.217 0.258 0.368 0.576 0.451 0.951 0.092 0.367 0.137 0.769 0.137 1.211v3.676h-1.512v-3.438c0-0.35-0.026-0.645-0.076-0.887-0.042-0.25-0.116-0.452-0.225-0.602-0.1-0.158-0.24-0.269-0.424-0.336-0.175-0.075-0.392-0.113-0.65-0.113-0.192 0-0.391 0.012-0.6 0.037-0.208 0.025-0.363 0.046-0.463 0.063v5.275h-1.514v-6.324c0.292-0.083 0.672-0.163 1.139-0.238s0.982-0.113 1.549-0.113zm6.625 4.82 0.043 0.625c-0.225 4e-3 -0.435 0.028-0.631 0.074-0.196 0.042-0.371 0.108-0.525 0.199-0.154 0.092-0.286 0.212-0.398 0.357-0.108 0.146-0.192 0.325-0.25 0.537 0.204-0.096 0.426-0.145 0.668-0.145 0.258 0 0.477 0.038 0.656 0.113 0.183 0.071 0.331 0.168 0.443 0.293 0.113 0.125 0.194 0.271 0.244 0.438 0.054 0.163 0.082 0.335 0.082 0.514 0 0.163-0.03 0.329-0.088 0.5-0.054 0.171-0.143 0.327-0.264 0.469-0.117 0.137-0.264 0.252-0.443 0.344-0.179 0.088-0.391 0.131-0.637 0.131-0.496 0-0.876-0.163-1.139-0.488-0.258-0.329-0.387-0.78-0.387-1.355 0-0.417 0.061-0.785 0.182-1.105 0.125-0.325 0.3-0.599 0.525-0.82 0.229-0.221 0.503-0.387 0.824-0.5 0.325-0.117 0.69-0.176 1.094-0.18zm-1.188 2.25c-0.121 0-0.237 0.01-0.35 0.031s-0.215 0.052-0.307 0.094c-4e-3 0.033-8e-3 0.07-0.012 0.111v0.113c0 0.167 0.01 0.325 0.031 0.475 0.025 0.146 0.063 0.274 0.117 0.387 0.058 0.108 0.137 0.197 0.232 0.264 0.1 0.063 0.223 0.094 0.369 0.094 0.121 0 0.221-0.026 0.305-0.076 0.088-0.05 0.159-0.114 0.213-0.193s0.094-0.164 0.119-0.256c0.025-0.096 0.037-0.188 0.037-0.275 0-0.25-0.061-0.439-0.182-0.568-0.121-0.133-0.312-0.199-0.574-0.199z" fill="#2e3440"/>
</svg>
