<svg viewBox="0 0 22 22" xmlns="http://www.w3.org/2000/svg">
 <path d="m3 1c-1.108 0-2 0.892-2 2v16c0 1.108 0.892 2 2 2h16c1.108 0 2-0.892 2-2v-16c0-1.108-0.892-2-2-2h-16zm-0.063 5.588h5.563v1.338h-3.988v2.137h3.551v1.313h-3.551v2.537h4.287v1.338h-5.861v-8.662zm9.936 1.986c0.533 0 0.98 0.077 1.338 0.227 0.358 0.142 0.641 0.345 0.85 0.611 0.217 0.258 0.368 0.576 0.451 0.951 0.092 0.367 0.137 0.769 0.137 1.211v3.676h-1.512v-3.438c0-0.35-0.026-0.645-0.076-0.887-0.042-0.25-0.116-0.452-0.225-0.602-0.1-0.158-0.24-0.269-0.424-0.336-0.175-0.075-0.392-0.113-0.65-0.113-0.192 0-0.391 0.012-0.6 0.037-0.208 0.025-0.363 0.046-0.463 0.063v5.275h-1.514v-6.324c0.292-0.083 0.672-0.163 1.139-0.238s0.982-0.113 1.549-0.113zm5.449 4.744c0.246 0 0.454 0.037 0.625 0.107 0.175 0.071 0.317 0.161 0.426 0.273 0.113 0.113 0.194 0.238 0.244 0.375 0.05 0.138 0.074 0.271 0.074 0.4 0 0.229-0.063 0.434-0.188 0.613-0.125 0.175-0.269 0.314-0.432 0.418 0.246 0.133 0.428 0.288 0.545 0.463 0.121 0.175 0.182 0.382 0.182 0.619 0 0.179-0.031 0.346-0.094 0.5s-0.156 0.288-0.281 0.4c-0.125 0.113-0.281 0.199-0.469 0.262-0.183 0.063-0.397 0.094-0.639 0.094-0.283 0-0.518-0.04-0.705-0.119-0.188-0.079-0.339-0.178-0.451-0.299-0.113-0.121-0.194-0.251-0.244-0.389-0.046-0.142-0.068-0.275-0.068-0.4s0.017-0.24 0.051-0.344c0.038-0.108 0.088-0.205 0.15-0.293 0.063-0.092 0.132-0.175 0.211-0.25s0.163-0.141 0.25-0.199c-0.192-0.133-0.334-0.277-0.43-0.432-0.092-0.158-0.139-0.351-0.139-0.576 0-0.162 0.031-0.315 0.094-0.461 0.067-0.15 0.16-0.282 0.281-0.395s0.267-0.203 0.438-0.27 0.36-0.1 0.568-0.1zm0 0.619c-0.113 0-0.21 0.019-0.293 0.057-0.079 0.033-0.143 0.078-0.193 0.137-0.05 0.054-0.088 0.115-0.113 0.182-0.025 0.063-0.037 0.125-0.037 0.188 0 0.158 0.059 0.308 0.176 0.449 0.121 0.142 0.32 0.255 0.6 0.338 0.154-0.096 0.274-0.203 0.361-0.324 0.088-0.125 0.133-0.283 0.133-0.475 0-0.054-0.014-0.113-0.039-0.176-0.021-0.067-0.057-0.127-0.111-0.182-0.05-0.054-0.114-0.099-0.193-0.137s-0.177-0.057-0.289-0.057zm-0.23 1.855c-0.15 0.096-0.272 0.214-0.363 0.352-0.092 0.133-0.137 0.293-0.137 0.48 0 0.063 0.012 0.128 0.037 0.199s0.067 0.137 0.125 0.195 0.133 0.107 0.225 0.148c0.092 0.038 0.206 0.057 0.344 0.057 0.125 0 0.235-0.015 0.326-0.049 0.092-0.033 0.166-0.079 0.225-0.133 0.058-0.058 0.102-0.123 0.131-0.193 0.029-0.075 0.045-0.15 0.045-0.225 0-0.117-0.024-0.219-0.07-0.307s-0.112-0.162-0.199-0.225c-0.083-0.067-0.184-0.122-0.301-0.168-0.117-0.05-0.245-0.095-0.387-0.133z" fill="#2e3440"/>
</svg>
