<svg viewBox="0 0 22 22" xmlns="http://www.w3.org/2000/svg">
 <path d="m3 1c-1.108 0-2 0.892-2 2v16c0 1.108 0.892 2 2 2h16c1.108 0 2-0.892 2-2v-16c0-1.108-0.892-2-2-2h-16zm0.895 5.838h1.576v3.463h3.762v-3.463h1.576v8.662h-1.576v-3.838h-3.762v3.838h-1.576v-8.662zm8.836 2.125h1.512v3.424c0 0.7 0.101 1.2 0.301 1.5 0.208 0.3 0.566 0.451 1.074 0.451 0.183 0 0.374-9e-3 0.574-0.025 0.208-0.017 0.363-0.037 0.463-0.063v-5.287h1.514v6.338c-0.292 0.075-0.672 0.15-1.139 0.225-0.467 0.083-0.979 0.125-1.537 0.125-0.525 0-0.966-0.075-1.324-0.225-0.35-0.15-0.635-0.358-0.852-0.625-0.208-0.267-0.358-0.585-0.449-0.951-0.092-0.375-0.137-0.783-0.137-1.225v-3.662z" fill="#2e3440"/>
</svg>
