<svg viewBox="0 0 22 22" xmlns="http://www.w3.org/2000/svg">
 <g transform="translate(0 -1030.9)" fill="#2e3440">
  <path d="m9 1046.9-2 2c-1 1-1 1 0 1h8c1 0 1 0 0-1l-2-2v-1h-4z"/>
  <path d="m5 1033.9c-1.108 0-2 0.892-2 2v9c0 1.108 0.892 2 2 2h12c1.108 0 2-0.892 2-2v-9c0-1.108-0.892-2-2-2h-12zm0 2h12v9h-12v-9z"/>
  <path d="m7.769 1042.3h2.807v1.209h-4.636v-1.209l2.328-2.055q0.312-0.282 0.461-0.551 0.15-0.269 0.15-0.56 0-0.449-0.303-0.722-0.299-0.273-0.799-0.273-0.385 0-0.842 0.167-0.457 0.162-0.978 0.487v-1.401q0.555-0.184 1.098-0.278 0.543-0.098 1.064-0.098 1.145 0 1.777 0.504 0.637 0.504 0.637 1.406 0 0.521-0.269 0.974-0.269 0.449-1.132 1.205l-1.363 1.196z"/>
  <path d="m11.509 1037.2h4.089v1.209h-2.777v0.987q0.188-0.051 0.376-0.077 0.192-0.03 0.397-0.03 1.166 0 1.816 0.585 0.649 0.581 0.649 1.624 0 1.034-0.709 1.619-0.705 0.585-1.961 0.585-0.543 0-1.077-0.107-0.53-0.103-1.055-0.316v-1.295q0.521 0.299 0.987 0.449 0.47 0.15 0.884 0.15 0.598 0 0.94-0.291 0.346-0.295 0.346-0.795 0-0.504-0.346-0.795-0.342-0.291-0.94-0.291-0.355 0-0.756 0.094-0.402 0.09-0.863 0.282v-3.589z"/>
 </g>
</svg>
