<svg viewBox="0 0 22 22" xmlns="http://www.w3.org/2000/svg">
 <path d="m3 1c-1.108 0-2 0.892-2 2v16c0 1.108 0.892 2 2 2h16c1.108 0 2-0.892 2-2v-16c0-1.108-0.892-2-2-2h-16zm0.289 5.588h1.588v5.262c0 0.392 0.042 0.73 0.125 1.014 0.092 0.275 0.217 0.499 0.375 0.674 0.167 0.175 0.36 0.305 0.576 0.389 0.225 0.083 0.475 0.125 0.75 0.125s0.525-0.042 0.75-0.125 0.416-0.214 0.574-0.389c0.167-0.175 0.292-0.399 0.375-0.674 0.092-0.283 0.137-0.622 0.137-1.014v-5.262h1.588v5.412c0 0.5-0.071 0.958-0.213 1.375-0.133 0.417-0.342 0.78-0.625 1.088-0.275 0.308-0.629 0.55-1.063 0.725-0.433 0.167-0.945 0.25-1.537 0.25s-1.1-0.083-1.525-0.25c-0.425-0.175-0.779-0.416-1.063-0.725-0.275-0.308-0.478-0.671-0.611-1.088s-0.201-0.875-0.201-1.375v-5.412zm11.328 1.986c0.1 0 0.216 9e-3 0.35 0.025 0.133 8e-3 0.267 0.026 0.4 0.051 0.133 0.017 0.262 0.041 0.387 0.074 0.125 0.025 0.226 0.051 0.301 0.076l-0.264 1.273c-0.125-0.042-0.3-0.083-0.525-0.125-0.217-0.05-0.47-0.074-0.762-0.074-0.167 0-0.345 0.017-0.537 0.051-0.183 0.033-0.314 0.061-0.389 0.086v5.238h-1.512v-6.225c0.292-0.108 0.655-0.209 1.088-0.301 0.442-0.1 0.93-0.15 1.463-0.15zm4.467 4.82 0.043 0.625c-0.225 4e-3 -0.435 0.028-0.631 0.074-0.196 0.042-0.371 0.108-0.525 0.199-0.154 0.092-0.288 0.212-0.4 0.357-0.108 0.146-0.192 0.325-0.25 0.537 0.204-0.096 0.428-0.145 0.67-0.145 0.258 0 0.477 0.038 0.656 0.113 0.183 0.071 0.331 0.168 0.443 0.293 0.113 0.125 0.194 0.271 0.244 0.438 0.054 0.163 0.08 0.335 0.08 0.514 0 0.163-0.03 0.329-0.088 0.5-0.054 0.171-0.141 0.327-0.262 0.469-0.117 0.137-0.264 0.252-0.443 0.344-0.179 0.088-0.393 0.131-0.639 0.131-0.496 0-0.874-0.163-1.137-0.488-0.258-0.329-0.387-0.78-0.387-1.355 0-0.417 0.059-0.785 0.18-1.105 0.125-0.325 0.3-0.599 0.525-0.82 0.229-0.221 0.505-0.387 0.826-0.5 0.325-0.117 0.69-0.176 1.094-0.18zm-1.188 2.25c-0.121 0-0.239 0.01-0.352 0.031s-0.213 0.052-0.305 0.094c-4e-3 0.033-0.01 0.07-0.014 0.111v0.113c0 0.167 0.01 0.325 0.031 0.475 0.025 0.146 0.065 0.274 0.119 0.387 0.058 0.108 0.135 0.197 0.23 0.264 0.1 0.063 0.223 0.094 0.369 0.094 0.121 0 0.223-0.026 0.307-0.076 0.087-0.05 0.159-0.114 0.213-0.193s0.094-0.164 0.119-0.256c0.025-0.096 0.037-0.188 0.037-0.275 0-0.25-0.061-0.439-0.182-0.568-0.121-0.133-0.312-0.199-0.574-0.199z" fill="#2e3440"/>
</svg>
