<svg viewBox="0 0 22 22" xmlns="http://www.w3.org/2000/svg">
 <path d="m3 1c-1.108 0-2 0.892-2 2v16c0 1.108 0.892 2 2 2h16c1.108 0 2-0.892 2-2v-16c0-1.108-0.892-2-2-2h-16zm-0.725 5.588h1.287c0.333 0.35 0.693 0.767 1.076 1.25 0.383 0.475 0.767 0.97 1.15 1.486 0.392 0.517 0.767 1.038 1.125 1.563 0.367 0.517 0.691 1 0.975 1.451v-5.75h1.563v8.662h-1.338c-0.283-0.475-0.599-0.984-0.949-1.525-0.35-0.55-0.713-1.1-1.088-1.65-0.375-0.558-0.759-1.095-1.15-1.611-0.383-0.525-0.75-0.995-1.1-1.412v6.199h-1.551v-8.662zm11.254 1.963c0.458 0 0.878 0.083 1.262 0.25 0.392 0.158 0.725 0.388 1 0.688s0.487 0.661 0.637 1.086c0.158 0.417 0.238 0.884 0.238 1.4 0 0.517-0.075 0.987-0.225 1.412s-0.364 0.788-0.639 1.088-0.608 0.535-1 0.701c-0.383 0.167-0.807 0.25-1.273 0.25-0.467 0-0.892-0.083-1.275-0.25s-0.713-0.401-0.988-0.701-0.492-0.663-0.65-1.088c-0.15-0.425-0.225-0.895-0.225-1.412s0.075-0.984 0.225-1.4c0.158-0.425 0.375-0.786 0.65-1.086 0.283-0.3 0.617-0.529 1-0.688 0.383-0.167 0.805-0.25 1.264-0.25zm0 1.313c-0.5 0-0.892 0.191-1.176 0.574-0.275 0.375-0.412 0.887-0.412 1.537 0 0.658 0.137 1.179 0.412 1.563 0.283 0.383 0.676 0.576 1.176 0.576s0.887-0.193 1.162-0.576c0.283-0.383 0.424-0.904 0.424-1.563 0-0.65-0.14-1.162-0.424-1.537-0.275-0.383-0.662-0.574-1.162-0.574zm3.826 3.555h2.213v0.639h-1.568c-4e-3 0.071-0.011 0.152-0.02 0.244-4e-3 0.087-0.011 0.176-0.02 0.268-4e-3 0.092-9e-3 0.18-0.018 0.264-8e-3 0.083-0.017 0.153-0.025 0.211 0.617 0.033 1.072 0.176 1.363 0.426 0.296 0.246 0.443 0.583 0.443 1.012 0 0.196-0.033 0.378-0.1 0.545s-0.169 0.311-0.307 0.432c-0.137 0.121-0.311 0.216-0.52 0.287-0.208 0.067-0.451 0.1-0.73 0.1-0.113 0-0.227-9e-3 -0.344-0.025-0.117-0.017-0.23-0.038-0.338-0.063-0.104-0.021-0.198-0.043-0.281-0.068s-0.146-0.048-0.188-0.068l0.145-0.639c0.087 0.042 0.212 0.089 0.375 0.139 0.167 0.046 0.368 0.068 0.605 0.068 0.163 0 0.301-0.017 0.418-0.051 0.117-0.037 0.21-0.086 0.281-0.148 0.075-0.063 0.131-0.134 0.164-0.213 0.033-0.083 0.049-0.172 0.049-0.264 0-0.137-0.026-0.259-0.08-0.367s-0.152-0.2-0.289-0.275c-0.133-0.075-0.314-0.132-0.543-0.17-0.225-0.037-0.51-0.055-0.855-0.055 0.046-0.4 0.08-0.78 0.105-1.139 0.025-0.362 0.046-0.725 0.063-1.088z" fill="#2e3440"/>
</svg>
