<svg viewBox="0 0 22 22" xmlns="http://www.w3.org/2000/svg">
 <path d="m3 1c-1.108 0-2 0.892-2 2v16c0 1.108 0.892 2 2 2h16c1.108 0 2-0.892 2-2v-16c0-1.108-0.892-2-2-2h-16zm10.646 4.801v5.711c0.192-0.2 0.395-0.412 0.611-0.637 0.217-0.233 0.43-0.463 0.639-0.688 0.208-0.233 0.405-0.454 0.588-0.662 0.192-0.217 0.353-0.404 0.486-0.563h1.787c-0.417 0.467-0.858 0.949-1.324 1.449-0.458 0.5-0.92 0.988-1.387 1.463 0.25 0.208 0.512 0.462 0.787 0.762 0.275 0.292 0.54 0.604 0.799 0.938 0.258 0.333 0.502 0.667 0.727 1s0.413 0.642 0.563 0.926h-1.75c-0.15-0.258-0.325-0.529-0.525-0.813-0.192-0.283-0.4-0.558-0.625-0.824-0.225-0.267-0.454-0.517-0.688-0.75-0.233-0.242-0.462-0.447-0.688-0.613v3h-1.514v-9.449l1.514-0.25zm-9.539 1.037h6.912v1.361h-2.662v7.301h-1.588v-7.301h-2.662v-1.361z" fill="#2e3440"/>
</svg>
