<svg viewBox="0 0 22 22" xmlns="http://www.w3.org/2000/svg">
 <path d="m3 1c-1.108 0-2 0.892-2 2v16c0 1.108 0.892 2 2 2h16c1.108 0 2-0.892 2-2v-16c0-1.108-0.892-2-2-2h-16zm0.713 5.838h1.85c0.292 0.65 0.613 1.296 0.963 1.938s0.716 1.275 1.1 1.9c0.375-0.625 0.743-1.259 1.102-1.9 0.358-0.642 0.683-1.287 0.975-1.938h1.75c-0.467 0.883-0.955 1.762-1.463 2.637-0.5 0.867-1.038 1.742-1.613 2.625v3.4h-1.574v-3.375c-0.575-0.892-1.117-1.775-1.625-2.65s-0.996-1.753-1.463-2.637zm10.879 1.963c0.458 0 0.878 0.083 1.262 0.25 0.392 0.158 0.725 0.388 1 0.688s0.487 0.661 0.637 1.086c0.158 0.417 0.238 0.884 0.238 1.4 0 0.517-0.075 0.987-0.225 1.412s-0.364 0.788-0.639 1.088-0.608 0.535-1 0.701c-0.383 0.167-0.807 0.25-1.273 0.25-0.467 0-0.892-0.083-1.275-0.25s-0.713-0.401-0.988-0.701-0.492-0.663-0.65-1.088c-0.15-0.425-0.225-0.895-0.225-1.412s0.075-0.984 0.225-1.4c0.158-0.425 0.375-0.786 0.65-1.086 0.283-0.3 0.617-0.529 1-0.688 0.383-0.167 0.805-0.25 1.264-0.25zm0 1.312c-0.5 0-0.892 0.191-1.176 0.574-0.275 0.375-0.412 0.887-0.412 1.537 0 0.658 0.137 1.179 0.412 1.563 0.283 0.383 0.676 0.576 1.176 0.576s0.887-0.193 1.162-0.576c0.283-0.383 0.424-0.904 0.424-1.563 0-0.65-0.14-1.162-0.424-1.537-0.275-0.383-0.662-0.574-1.162-0.574z" fill="#2e3440"/>
</svg>
