<svg viewBox="0 0 22 22" xmlns="http://www.w3.org/2000/svg">
 <g transform="translate(0 -1030.9)" fill="#2e3440">
  <path d="m9 1046.9-2 2c-1 1-1 1 0 1h8c1 0 1 0 0-1l-2-2v-1h-4z"/>
  <path d="m5 1033.9c-1.108 0-2 0.892-2 2v9c0 1.108 0.892 2 2 2h12c1.108 0 2-0.892 2-2v-9c0-1.108-0.892-2-2-2h-12zm0 2h12v9h-12v-9z"/>
  <g transform="translate(-.059814)">
   <path d="m9.367 1040.1q0.645 0.167 0.978 0.581 0.338 0.41 0.338 1.047 0 0.948-0.726 1.444-0.726 0.491-2.119 0.491-0.491 0-0.987-0.081-0.491-0.077-0.974-0.235v-1.269q0.461 0.231 0.914 0.35 0.457 0.115 0.897 0.115 0.654 0 1-0.226 0.35-0.226 0.35-0.649 0-0.436-0.359-0.658-0.355-0.226-1.051-0.226h-0.658v-1.06h0.692q0.62 0 0.923-0.192 0.303-0.197 0.303-0.594 0-0.367-0.295-0.568t-0.833-0.201q-0.397 0-0.803 0.09t-0.807 0.265v-1.205q0.487-0.137 0.966-0.205t0.94-0.068q1.243 0 1.859 0.41 0.62 0.406 0.62 1.226 0 0.56-0.295 0.919-0.295 0.355-0.872 0.5z"/>
   <path d="m13.791 1040.4q-0.432 0-0.649 0.282-0.214 0.278-0.214 0.837 0 0.56 0.214 0.842 0.218 0.278 0.649 0.278 0.436 0 0.649-0.278 0.218-0.282 0.218-0.842t-0.218-0.837q-0.214-0.282-0.649-0.282zm2.034-3.063v1.179q-0.406-0.192-0.765-0.282-0.359-0.094-0.701-0.094-0.735 0-1.145 0.41-0.41 0.406-0.479 1.209 0.282-0.209 0.611-0.312 0.329-0.107 0.718-0.107 0.978 0 1.577 0.572 0.602 0.572 0.602 1.5 0 1.025-0.671 1.645-0.671 0.615-1.799 0.615-1.243 0-1.927-0.837-0.679-0.842-0.679-2.384 0-1.581 0.795-2.482 0.799-0.906 2.188-0.906 0.44 0 0.854 0.068t0.82 0.205z"/>
  </g>
 </g>
</svg>
