<svg viewBox="0 0 22 22" xmlns="http://www.w3.org/2000/svg">
 <path d="m3 1c-1.108 0-2 0.892-2 2v16c0 1.108 0.892 2 2 2h16c1.108 0 2-0.892 2-2v-16c0-1.108-0.892-2-2-2h-16zm-0.125 5.588h1.588v5.262c0 0.392 0.042 0.73 0.125 1.014 0.092 0.275 0.217 0.499 0.375 0.674 0.167 0.175 0.358 0.305 0.574 0.389 0.225 0.083 0.475 0.125 0.75 0.125s0.525-0.042 0.75-0.125 0.416-0.214 0.574-0.389c0.167-0.175 0.292-0.399 0.375-0.674 0.092-0.283 0.139-0.622 0.139-1.014v-5.262h1.588v5.412c0 0.5-0.071 0.958-0.213 1.375-0.133 0.417-0.342 0.78-0.625 1.088-0.275 0.308-0.629 0.55-1.063 0.725-0.433 0.167-0.945 0.25-1.537 0.25s-1.1-0.083-1.525-0.25c-0.425-0.175-0.779-0.416-1.063-0.725-0.275-0.308-0.48-0.671-0.613-1.088s-0.199-0.875-0.199-1.375v-5.412zm8.193 2.125h4.963v1.063c-0.167 0.175-0.387 0.42-0.662 0.736-0.267 0.317-0.555 0.671-0.863 1.063-0.308 0.383-0.621 0.788-0.938 1.213-0.308 0.417-0.588 0.818-0.838 1.201h3.375v1.262h-5.199v-0.938c0.183-0.333 0.412-0.696 0.688-1.088 0.275-0.392 0.558-0.782 0.85-1.174 0.292-0.4 0.58-0.78 0.863-1.139 0.292-0.358 0.548-0.671 0.773-0.937h-3.01v-1.262zm7.418 4.705h0.531v4.332h-0.758v-3.318c-0.113 0.087-0.253 0.173-0.424 0.256s-0.336 0.153-0.494 0.207l-0.23-0.576c0.242-0.096 0.483-0.219 0.725-0.369 0.246-0.15 0.463-0.327 0.65-0.531z" fill="#2e3440"/>
</svg>
