<svg viewBox="0 0 22 22" xmlns="http://www.w3.org/2000/svg">
 <path d="m3 1c-1.108 0-2 0.892-2 2v16c0 1.108 0.892 2 2 2h16c1.108 0 2-0.892 2-2v-16c0-1.108-0.892-2-2-2h-16zm2.254 5.838h6.912v1.361h-2.662v7.301h-1.588v-7.301h-2.662v-1.361zm10.137 1.986c0.1 0 0.218 9e-3 0.352 0.025 0.133 8e-3 0.265 0.026 0.398 0.051 0.133 0.017 0.264 0.041 0.389 0.074 0.125 0.025 0.224 0.051 0.299 0.076l-0.262 1.273c-0.125-0.042-0.3-0.083-0.525-0.125-0.217-0.05-0.47-0.074-0.762-0.074-0.167 0-0.345 0.017-0.537 0.051-0.183 0.033-0.314 0.061-0.389 0.086v5.238h-1.512v-6.225c0.292-0.108 0.655-0.209 1.088-0.301 0.442-0.1 0.928-0.15 1.461-0.15z" fill="#2e3440"/>
</svg>
