<svg viewBox="0 0 22 22" xmlns="http://www.w3.org/2000/svg">
 <path d="m3 1c-1.108 0-2 0.892-2 2v16c0 1.108 0.892 2 2 2h16c1.108 0 2-0.892 2-2v-16c0-1.108-0.892-2-2-2h-16zm2 5.75c0.525 0 1.01 0.042 1.461 0.125 0.45 0.075 0.839 0.203 1.164 0.387 0.333 0.183 0.59 0.427 0.773 0.727s0.275 0.67 0.275 1.111c0 0.408-0.099 0.759-0.299 1.051-0.192 0.292-0.462 0.524-0.812 0.699 0.525 0.175 0.912 0.434 1.162 0.775 0.25 0.342 0.375 0.776 0.375 1.301 0 0.892-0.325 1.562-0.975 2.01-0.65 0.442-1.647 0.662-2.988 0.662-0.458 0-0.92-0.015-1.387-0.049-0.467-0.025-0.877-0.084-1.227-0.176v-8.412c0.183-0.033 0.38-0.063 0.588-0.088 0.208-0.033 0.422-0.058 0.639-0.074 0.217-0.017 0.428-0.031 0.637-0.039 0.217-8e-3 0.422-0.012 0.613-0.012zm0.199 1.287c-0.242 0-0.459 5e-3 -0.65 0.014-0.183 8e-3 -0.341 0.02-0.475 0.037v2.275h1.113c0.6 0 1.07-0.083 1.412-0.25 0.342-0.175 0.512-0.484 0.512-0.926 0-0.417-0.179-0.712-0.537-0.887-0.35-0.175-0.808-0.264-1.375-0.264zm8.09 0.787c0.45 0 0.818 0.059 1.102 0.176 0.292 0.117 0.533 0.271 0.725 0.463 0.092-0.067 0.208-0.138 0.35-0.213s0.3-0.141 0.475-0.199c0.175-0.067 0.359-0.122 0.551-0.164 0.2-0.042 0.4-0.063 0.6-0.063 0.508 0 0.925 0.077 1.25 0.227 0.333 0.142 0.592 0.345 0.775 0.611 0.192 0.258 0.32 0.576 0.387 0.951 0.075 0.367 0.113 0.769 0.113 1.211v3.676h-1.514v-3.438c0-0.683-0.083-1.175-0.25-1.475-0.167-0.308-0.486-0.463-0.961-0.463-0.242 0-0.471 0.042-0.688 0.125-0.217 0.075-0.38 0.15-0.488 0.225 0.067 0.208 0.112 0.429 0.137 0.662s0.039 0.483 0.039 0.75v3.613h-1.514v-3.438c0-0.683-0.087-1.175-0.262-1.475-0.167-0.308-0.485-0.463-0.951-0.463-0.167 0-0.349 0.012-0.549 0.037s-0.351 0.046-0.451 0.063v5.275h-1.512v-6.324c0.292-0.083 0.67-0.163 1.137-0.238 0.475-0.075 0.975-0.113 1.5-0.113zm-9.215 2.775v2.639c0.175 0.017 0.362 0.029 0.563 0.037 0.2 8e-3 0.384 0.012 0.551 0.012 0.325 0 0.623-0.021 0.898-0.063 0.283-0.042 0.527-0.113 0.727-0.213 0.208-0.108 0.37-0.249 0.486-0.424 0.125-0.175 0.188-0.401 0.188-0.676 0-0.492-0.179-0.834-0.537-1.025-0.358-0.192-0.855-0.287-1.488-0.287h-1.387z" fill="#2e3440"/>
</svg>
