<svg viewBox="0 0 22 22" xmlns="http://www.w3.org/2000/svg">
 <path d="m3 1c-1.108 0-2 0.892-2 2v16c0 1.108 0.892 2 2 2h16c1.108 0 2-0.892 2-2v-16c0-1.108-0.892-2-2-2h-16zm1.299 5.838h1.574v3.463h3.764v-3.463h1.574v8.662h-1.574v-3.838h-3.764v3.838h-1.574v-8.662zm8.06 2.125h1.613c0.083 0.35 0.182 0.728 0.299 1.137 0.125 0.408 0.259 0.825 0.4 1.25 0.142 0.417 0.293 0.833 0.451 1.25s0.316 0.804 0.475 1.162c0.267-0.742 0.517-1.528 0.75-2.361 0.233-0.842 0.445-1.654 0.637-2.438h1.563c-0.675 2.483-1.458 4.733-2.35 6.75-0.167 0.375-0.337 0.696-0.512 0.963s-0.371 0.487-0.588 0.662-0.458 0.3-0.725 0.375c-0.267 0.083-0.576 0.125-0.926 0.125-0.233 0-0.466-0.026-0.699-0.076-0.225-0.05-0.397-0.104-0.514-0.162l0.275-1.213c0.3 0.117 0.595 0.176 0.887 0.176 0.392 0 0.697-0.095 0.914-0.287 0.225-0.183 0.419-0.472 0.586-0.863-0.475-0.917-0.933-1.917-1.375-3-0.433-1.083-0.82-2.233-1.162-3.449z" fill="#2e3440"/>
</svg>
