<svg viewBox="0 0 22 22" xmlns="http://www.w3.org/2000/svg">
 <path d="m3 1c-1.108 0-2 0.892-2 2v16c0 1.108 0.892 2 2 2h16c1.108 0 2-0.892 2-2v-16c0-1.108-0.892-2-2-2h-16zm10.512 4.801v3.236c0.167-0.058 0.358-0.109 0.574-0.15 0.225-0.042 0.447-0.063 0.664-0.063 0.525 0 0.957 0.077 1.299 0.227 0.35 0.142 0.63 0.345 0.838 0.611 0.208 0.258 0.354 0.571 0.438 0.937 0.092 0.367 0.137 0.775 0.137 1.225v3.676h-1.512v-3.438c0-0.35-0.024-0.645-0.074-0.887-0.042-0.25-0.118-0.452-0.227-0.602-0.1-0.158-0.237-0.269-0.412-0.336-0.175-0.075-0.392-0.113-0.65-0.113-0.2 0-0.403 0.021-0.611 0.063s-0.363 0.08-0.463 0.113v5.199h-1.512v-9.449l1.512-0.25zm-9.236 1.037h6.199v1.162c-0.275 0.3-0.608 0.692-1 1.176-0.392 0.475-0.794 0.996-1.211 1.562-0.417 0.558-0.83 1.136-1.238 1.736-0.4 0.592-0.754 1.154-1.063 1.688h4.65v1.338h-6.551v-0.988c0.167-0.308 0.36-0.642 0.576-1 0.225-0.367 0.461-0.742 0.711-1.125s0.509-0.77 0.775-1.162c0.275-0.392 0.546-0.767 0.813-1.125 0.267-0.367 0.525-0.712 0.775-1.037 0.258-0.333 0.5-0.628 0.725-0.887h-4.162v-1.338z" fill="#2e3440"/>
</svg>
