<svg viewBox="0 0 22 22" xmlns="http://www.w3.org/2000/svg">
 <path d="m3 1c-1.108 0-2 0.892-2 2v16c0 1.108 0.892 2 2 2h16c1.108 0 2-0.892 2-2v-16c0-1.108-0.892-2-2-2h-16zm2.525 5.387c0.358 0 0.683 0.03 0.975 0.088 0.292 0.05 0.547 0.109 0.764 0.176s0.395 0.138 0.537 0.213 0.24 0.129 0.299 0.162l-0.461 1.287c-0.2-0.125-0.488-0.241-0.863-0.35-0.367-0.117-0.766-0.176-1.199-0.176-0.375 0-0.726 0.068-1.051 0.201-0.325 0.125-0.608 0.316-0.85 0.574-0.233 0.258-0.417 0.583-0.551 0.975-0.133 0.392-0.199 0.847-0.199 1.363 0 0.458 0.05 0.878 0.15 1.262 0.108 0.383 0.27 0.717 0.486 1 0.217 0.275 0.493 0.492 0.826 0.65 0.333 0.15 0.733 0.225 1.199 0.225 0.558 0 1.013-0.054 1.363-0.162 0.35-0.117 0.621-0.224 0.813-0.324l0.424 1.287c-0.1 0.067-0.237 0.133-0.412 0.199-0.167 0.067-0.366 0.135-0.6 0.201-0.233 0.058-0.495 0.103-0.787 0.137-0.292 0.042-0.604 0.063-0.938 0.063-0.65 0-1.233-0.101-1.75-0.301s-0.954-0.492-1.313-0.875c-0.358-0.392-0.635-0.865-0.826-1.424-0.192-0.558-0.287-1.201-0.287-1.926s0.108-1.365 0.324-1.924c0.225-0.558 0.531-1.031 0.914-1.414 0.383-0.392 0.833-0.687 1.35-0.887s1.07-0.301 1.662-0.301zm5.721 2.188c0.45 0 0.816 0.059 1.1 0.176 0.292 0.117 0.535 0.271 0.727 0.463 0.092-0.067 0.208-0.138 0.35-0.213s0.3-0.141 0.475-0.199c0.175-0.067 0.359-0.122 0.551-0.164 0.2-0.042 0.4-0.063 0.6-0.063 0.508 0 0.925 0.077 1.25 0.227 0.333 0.142 0.592 0.345 0.775 0.611 0.192 0.258 0.32 0.576 0.387 0.951 0.075 0.367 0.113 0.769 0.113 1.211v3.676h-1.514v-3.438c0-0.683-0.083-1.175-0.25-1.475-0.167-0.308-0.488-0.463-0.963-0.463-0.242 0-0.471 0.042-0.688 0.125-0.217 0.075-0.378 0.15-0.486 0.225 0.067 0.208 0.112 0.429 0.137 0.662s0.037 0.483 0.037 0.75v3.613h-1.512v-3.438c0-0.683-0.087-1.175-0.262-1.475-0.167-0.308-0.485-0.463-0.951-0.463-0.167 0-0.349 0.012-0.549 0.037s-0.351 0.046-0.451 0.063v5.275h-1.512v-6.324c0.292-0.083 0.67-0.163 1.137-0.238 0.475-0.075 0.975-0.113 1.5-0.113zm7.109 4.844h2.213v0.639h-1.568c-4e-3 0.071-0.011 0.152-0.02 0.244-4e-3 0.087-9e-3 0.176-0.018 0.268-4e-3 0.092-0.011 0.18-0.02 0.264-8e-3 0.083-0.017 0.153-0.025 0.211 0.617 0.033 1.072 0.176 1.363 0.426 0.296 0.246 0.443 0.583 0.443 1.012 0 0.196-0.033 0.378-0.1 0.545s-0.169 0.311-0.307 0.432c-0.137 0.121-0.311 0.216-0.52 0.287-0.208 0.067-0.451 0.1-0.73 0.1-0.113 0-0.227-9e-3 -0.344-0.025-0.117-0.017-0.23-0.038-0.338-0.063-0.104-0.021-0.198-0.043-0.281-0.068s-0.146-0.048-0.188-0.068l0.145-0.639c0.087 0.042 0.212 0.089 0.375 0.139 0.167 0.046 0.368 0.068 0.605 0.068 0.163 0 0.303-0.017 0.42-0.051 0.117-0.037 0.21-0.086 0.281-0.148 0.075-0.063 0.129-0.134 0.162-0.213 0.033-0.083 0.049-0.172 0.049-0.264 0-0.137-0.026-0.259-0.08-0.367s-0.15-0.2-0.287-0.275c-0.133-0.075-0.316-0.132-0.545-0.17-0.225-0.037-0.51-0.055-0.855-0.055 0.046-0.4 0.08-0.78 0.105-1.139 0.025-0.362 0.046-0.725 0.063-1.088z" fill="#2e3440"/>
</svg>
