<svg viewBox="0 0 22 22" xmlns="http://www.w3.org/2000/svg">
 <path d="m3 1c-1.108 0-2 0.892-2 2v16c0 1.108 0.892 2 2 2h16c1.108 0 2-0.892 2-2v-16c0-1.108-0.892-2-2-2h-16zm-0.479 5.588h1.576v3.463h3.762v-3.463h1.576v8.662h-1.576v-3.838h-3.762v3.838h-1.576v-8.662zm8.06 2.125h1.611c0.083 0.35 0.184 0.728 0.301 1.137 0.125 0.408 0.259 0.825 0.4 1.25 0.142 0.417 0.291 0.833 0.449 1.25s0.316 0.804 0.475 1.162c0.267-0.742 0.517-1.528 0.75-2.361 0.233-0.842 0.447-1.654 0.639-2.438h1.563c-0.675 2.483-1.458 4.733-2.35 6.75-0.167 0.375-0.339 0.696-0.514 0.963s-0.371 0.487-0.588 0.662-0.458 0.3-0.725 0.375c-0.267 0.083-0.574 0.125-0.924 0.125-0.233 0-0.468-0.026-0.701-0.076-0.225-0.05-0.395-0.104-0.512-0.162l0.275-1.213c0.3 0.117 0.595 0.176 0.887 0.176 0.392 0 0.695-0.095 0.912-0.287 0.225-0.183 0.421-0.472 0.588-0.863-0.475-0.917-0.933-1.917-1.375-3-0.433-1.083-0.82-2.233-1.162-3.449zm8.04 4.605c0.463 0 0.803 0.111 1.02 0.332 0.221 0.217 0.33 0.513 0.33 0.893 0 0.15-0.031 0.299-0.094 0.445-0.063 0.142-0.142 0.28-0.242 0.418-0.096 0.133-0.207 0.265-0.332 0.395-0.125 0.125-0.25 0.246-0.375 0.367-0.067 0.063-0.141 0.139-0.225 0.227-0.083 0.087-0.163 0.174-0.238 0.262-0.075 0.087-0.139 0.173-0.193 0.256-0.054 0.079-0.084 0.147-0.088 0.201h1.926v0.637h-2.756c-4e-3 -0.033-8e-3 -0.073-8e-3 -0.119v-0.111c0-0.2 0.031-0.384 0.094-0.551 0.067-0.171 0.154-0.329 0.258-0.475s0.22-0.283 0.35-0.412c0.129-0.129 0.258-0.258 0.387-0.383 0.1-0.096 0.195-0.19 0.287-0.281 0.092-0.092 0.172-0.18 0.238-0.268 0.071-0.092 0.126-0.184 0.168-0.275 0.042-0.096 0.063-0.193 0.063-0.293 0-0.217-0.063-0.371-0.188-0.463s-0.276-0.139-0.455-0.139c-0.117 0-0.226 0.017-0.326 0.051-0.1 0.033-0.188 0.073-0.268 0.119-0.075 0.046-0.143 0.093-0.201 0.143-0.058 0.046-0.102 0.084-0.131 0.113l-0.375-0.531c0.175-0.167 0.38-0.3 0.613-0.4 0.238-0.104 0.491-0.156 0.762-0.156z" fill="#2e3440"/>
</svg>
