<svg width="22" height="22" viewBox="0 0 22 22" xmlns="http://www.w3.org/2000/svg">
 <path d="m11 0c-3.332031-0.0117188-5.902344 2.035156-7.082031 4.625-0.792969 1.808594-1.171875 2.40625-1.167969 5.929688v3.195312l-2.75 4.125h22l-2.75-4.125v-3.195312c0-3.523438-0.585938-4.628907-1.167969-5.8125-1.34375-2.644532-3.8125-4.7539068-7.082031-4.742188zm-0.003906 3.257812c1.46875 0 2.644531 1.207032 2.644531 2.683594v1.28125c0.734375 0 1.324219 0.59375 1.324219 1.324219v3.964844c0 0.730469-0.59375 1.320312-1.324219 1.320312h-5.285156c-0.730469 0-1.320313-0.589843-1.320313-1.320312v-3.964844c0-0.734375 0.59375-1.324219 1.320313-1.324219v-1.28125c0-1.476562 1.179687-2.683594 2.640625-2.683594zm0 1.328126c-0.730469 0-1.320313 0.582031-1.320313 1.320312v1.316406h2.644531v-1.316406c0-0.738281-0.585937-1.320312-1.324218-1.320312z" fill="rgb(53.333336%, 75.294119%, 81.568629%)"/>
 <path d="m7.113281 19.25c0.582031 1.648438 2.140625 2.75 3.886719 2.75 1.746094-0.003906 3.300781-1.105469 3.882812-2.75z" fill="rgb(53.333336%, 75.294119%, 81.568629%)"/>
</svg>
