<svg viewBox="0 0 22 22" xmlns="http://www.w3.org/2000/svg">
 <path d="m3 1c-1.108 0-2 0.892-2 2v16c0 1.108 0.892 2 2 2h16c1.108 0 2-0.892 2-2v-16c0-1.108-0.892-2-2-2h-16zm4.338 5.387c0.358 0 0.683 0.03 0.975 0.088 0.292 0.05 0.547 0.109 0.764 0.176s0.395 0.138 0.537 0.213 0.242 0.129 0.301 0.162l-0.463 1.287c-0.2-0.125-0.488-0.241-0.863-0.35-0.367-0.117-0.766-0.176-1.199-0.176-0.375 0-0.726 0.068-1.051 0.201-0.325 0.125-0.608 0.316-0.85 0.574-0.233 0.258-0.417 0.583-0.551 0.975-0.133 0.392-0.199 0.847-0.199 1.363 0 0.458 0.05 0.878 0.15 1.262 0.108 0.383 0.27 0.717 0.486 1 0.217 0.275 0.493 0.492 0.826 0.65 0.333 0.15 0.733 0.225 1.199 0.225 0.558 0 1.013-0.054 1.363-0.162 0.35-0.117 0.621-0.224 0.813-0.324l0.424 1.287c-0.1 0.067-0.237 0.133-0.412 0.199-0.167 0.067-0.366 0.135-0.6 0.201-0.233 0.058-0.495 0.103-0.787 0.137-0.292 0.042-0.604 0.063-0.938 0.063-0.65 0-1.233-0.101-1.75-0.301s-0.954-0.492-1.313-0.875c-0.358-0.392-0.635-0.865-0.826-1.424-0.192-0.558-0.287-1.201-0.287-1.926s0.11-1.365 0.326-1.924c0.225-0.558 0.529-1.031 0.912-1.414 0.383-0.392 0.833-0.687 1.35-0.887s1.07-0.301 1.662-0.301zm6.084 2.164c0.383 0 0.75 0.036 1.1 0.111 0.35 0.067 0.612 0.135 0.787 0.201l-0.275 1.225c-0.167-0.075-0.378-0.143-0.637-0.201-0.258-0.067-0.559-0.1-0.9-0.1-0.308 0-0.558 0.054-0.75 0.162-0.192 0.1-0.287 0.26-0.287 0.477 0 0.108 0.017 0.204 0.051 0.287 0.042 0.083 0.108 0.161 0.199 0.236 0.092 0.067 0.213 0.138 0.363 0.213 0.15 0.067 0.332 0.138 0.549 0.213 0.358 0.133 0.662 0.267 0.912 0.4 0.25 0.125 0.455 0.271 0.613 0.438 0.167 0.158 0.288 0.34 0.363 0.549 0.075 0.208 0.111 0.458 0.111 0.75 0 0.625-0.233 1.101-0.699 1.426-0.458 0.317-1.116 0.475-1.975 0.475-0.575 0-1.039-0.05-1.389-0.15-0.35-0.092-0.595-0.166-0.736-0.225l0.262-1.262c0.225 0.092 0.492 0.178 0.801 0.262 0.317 0.083 0.674 0.125 1.074 0.125s0.692-0.045 0.875-0.137c0.183-0.1 0.275-0.267 0.275-0.5 0-0.217-0.101-0.395-0.301-0.537-0.192-0.142-0.513-0.296-0.963-0.463-0.275-0.1-0.528-0.204-0.762-0.313-0.225-0.117-0.421-0.25-0.588-0.4s-0.3-0.329-0.4-0.537c-0.092-0.217-0.137-0.479-0.137-0.787 0-0.6 0.22-1.072 0.662-1.414 0.442-0.35 1.042-0.523 1.801-0.523zm3.443 4.867h2.213v0.639h-1.568c-4e-3 0.071-0.011 0.152-0.02 0.244-4e-3 0.087-9e-3 0.176-0.018 0.268-4e-3 0.092-0.011 0.18-0.02 0.264-8e-3 0.083-0.017 0.153-0.025 0.211 0.617 0.033 1.072 0.176 1.363 0.426 0.296 0.246 0.443 0.583 0.443 1.012 0 0.196-0.033 0.378-0.1 0.545s-0.169 0.311-0.307 0.432c-0.137 0.121-0.311 0.216-0.52 0.287-0.208 0.067-0.451 0.1-0.73 0.1-0.113 0-0.227-9e-3 -0.344-0.025-0.117-0.017-0.23-0.038-0.338-0.063-0.104-0.021-0.198-0.043-0.281-0.068s-0.146-0.048-0.188-0.068l0.145-0.639c0.088 0.042 0.213 0.089 0.375 0.139 0.167 0.046 0.368 0.068 0.605 0.068 0.162 0 0.303-0.017 0.42-0.051 0.117-0.037 0.21-0.086 0.281-0.148 0.075-0.063 0.129-0.134 0.162-0.213 0.033-0.083 0.049-0.172 0.049-0.264 0-0.137-0.026-0.259-0.08-0.367s-0.15-0.2-0.287-0.275c-0.133-0.075-0.316-0.132-0.545-0.17-0.225-0.037-0.51-0.055-0.855-0.055 0.046-0.4 0.08-0.78 0.105-1.139 0.025-0.362 0.046-0.725 0.063-1.088z" fill="#2e3440"/>
</svg>
