<svg viewBox="0 0 22 22" xmlns="http://www.w3.org/2000/svg">
 <path d="m3 1c-1.108 0-2 0.892-2 2v16c0 1.108 0.892 2 2 2h16c1.108 0 2-0.892 2-2v-16c0-1.108-0.892-2-2-2h-16zm11.305 4.801v5.711c0.192-0.2 0.397-0.412 0.613-0.637 0.217-0.233 0.428-0.463 0.637-0.688 0.208-0.233 0.405-0.454 0.588-0.662 0.192-0.217 0.355-0.404 0.488-0.563h1.787c-0.417 0.467-0.86 0.949-1.326 1.449-0.458 0.5-0.92 0.988-1.387 1.463 0.25 0.208 0.512 0.462 0.787 0.762 0.275 0.292 0.542 0.604 0.801 0.938 0.258 0.333 0.5 0.667 0.725 1s0.413 0.642 0.563 0.926h-1.75c-0.15-0.258-0.325-0.529-0.525-0.813-0.192-0.283-0.4-0.558-0.625-0.824-0.225-0.267-0.454-0.517-0.688-0.75-0.233-0.242-0.463-0.447-0.688-0.613v3h-1.512v-9.449l1.512-0.25zm-7.494 1.037h1.486c0.292 0.617 0.577 1.242 0.852 1.875s0.549 1.3 0.824 2c0.283 0.7 0.572 1.441 0.863 2.225 0.3 0.783 0.612 1.637 0.938 2.563h-1.701c-0.117-0.342-0.236-0.678-0.361-1.012-0.125-0.333-0.247-0.675-0.363-1.025h-3.65c-0.117 0.35-0.236 0.695-0.361 1.037l-0.352 1h-1.637c0.325-0.925 0.634-1.779 0.926-2.563 0.292-0.783 0.575-1.525 0.85-2.225 0.283-0.7 0.563-1.367 0.838-2s0.558-1.258 0.85-1.875zm0.713 1.674c-0.192 0.442-0.414 0.98-0.664 1.613-0.242 0.633-0.495 1.321-0.762 2.063h2.85c-0.267-0.742-0.525-1.433-0.775-2.074-0.25-0.642-0.465-1.177-0.648-1.602z" fill="#2e3440"/>
</svg>
