<svg viewBox="0 0 22 22" xmlns="http://www.w3.org/2000/svg">
 <path d="m3 1c-1.108 0-2 0.892-2 2v16c0 1.108 0.892 2 2 2h16c1.108 0 2-0.892 2-2v-16c0-1.108-0.892-2-2-2h-16zm1.936 5.5c0.725 0 1.388 0.087 1.988 0.262 0.6 0.167 1.112 0.434 1.537 0.801 0.433 0.358 0.767 0.817 1 1.375 0.233 0.55 0.35 1.208 0.35 1.975 0 0.75-0.116 1.405-0.35 1.963-0.233 0.55-0.567 1.012-1 1.387-0.425 0.367-0.942 0.643-1.551 0.826-0.6 0.175-1.267 0.262-2 0.262-0.35 0-0.746-0.015-1.188-0.049-0.442-0.025-0.862-0.084-1.262-0.176v-8.412c0.4-0.092 0.825-0.151 1.275-0.176s0.849-0.037 1.199-0.037zm0.1 1.363c-0.467 0-0.8 0.012-1 0.037v6.05c0.092 8e-3 0.213 0.017 0.363 0.025h0.613c1.058 0 1.845-0.265 2.361-0.799 0.525-0.542 0.787-1.297 0.787-2.264 0-0.983-0.253-1.737-0.762-2.262-0.508-0.525-1.297-0.787-2.363-0.787zm8.461 0.687c0.5 0 0.922 0.063 1.264 0.188s0.612 0.298 0.813 0.523c0.208 0.225 0.354 0.501 0.437 0.826 0.092 0.317 0.137 0.665 0.137 1.049v3.963c-0.233 0.05-0.588 0.109-1.063 0.176-0.467 0.075-0.996 0.111-1.588 0.111-0.392 0-0.749-0.036-1.074-0.111s-0.605-0.197-0.838-0.363c-0.225-0.167-0.404-0.384-0.537-0.65-0.125-0.267-0.188-0.595-0.188-0.986 0-0.375 0.071-0.693 0.213-0.951 0.15-0.258 0.35-0.467 0.6-0.625 0.25-0.167 0.536-0.283 0.861-0.35 0.333-0.075 0.681-0.111 1.039-0.111 0.167 0 0.34 0.012 0.523 0.037 0.183 0.017 0.38 0.05 0.588 0.1v-0.25c0-0.175-0.021-0.342-0.063-0.5s-0.116-0.295-0.225-0.412c-0.1-0.125-0.237-0.22-0.412-0.287-0.167-0.067-0.38-0.102-0.639-0.102-0.35 0-0.669 0.026-0.961 0.076s-0.53 0.107-0.713 0.174l-0.188-1.225c0.192-0.067 0.471-0.133 0.838-0.199 0.367-0.067 0.757-0.1 1.174-0.1zm0.301 3.773c-0.167 0-0.339 0.014-0.514 0.039-0.167 0.025-0.319 0.07-0.461 0.137-0.133 0.067-0.243 0.162-0.326 0.287-0.083 0.117-0.125 0.268-0.125 0.451 0 0.358 0.113 0.608 0.338 0.75 0.225 0.133 0.529 0.199 0.912 0.199 0.467 0 0.821-0.024 1.063-0.074v-1.676c-0.083-0.025-0.203-0.049-0.361-0.074s-0.334-0.039-0.525-0.039zm5.352 1.094h0.719v2.676h0.488v0.619h-0.488v1.037h-0.736v-1.037h-1.9v-0.537c0.083-0.183 0.195-0.395 0.332-0.633 0.142-0.237 0.298-0.48 0.469-0.73s0.351-0.497 0.543-0.738c0.192-0.242 0.383-0.46 0.574-0.656zm-0.018 0.932c-0.1 0.121-0.204 0.251-0.313 0.389-0.104 0.137-0.207 0.28-0.307 0.43s-0.195 0.305-0.287 0.463c-0.092 0.154-0.175 0.309-0.25 0.463h1.156v-1.744z" fill="#2e3440"/>
</svg>
