<svg viewBox="0 0 22 22" xmlns="http://www.w3.org/2000/svg">
 <path d="m3 1c-1.108 0-2 0.892-2 2v16c0 1.108 0.892 2 2 2h16c1.108 0 2-0.892 2-2v-16c0-1.108-0.892-2-2-2h-16zm4.738 5.838h1.486c0.292 0.617 0.577 1.242 0.852 1.875s0.549 1.3 0.824 2c0.283 0.7 0.572 1.441 0.863 2.225 0.3 0.783 0.613 1.637 0.938 2.563h-1.701c-0.117-0.342-0.236-0.678-0.361-1.012-0.125-0.333-0.247-0.675-0.363-1.025h-3.65c-0.117 0.35-0.236 0.695-0.361 1.037l-0.352 1h-1.637c0.325-0.925 0.634-1.779 0.926-2.563 0.292-0.783 0.575-1.525 0.85-2.225 0.283-0.7 0.563-1.367 0.838-2s0.558-1.258 0.85-1.875zm0.713 1.674c-0.192 0.442-0.414 0.98-0.664 1.613-0.242 0.633-0.495 1.321-0.762 2.063h2.85c-0.267-0.742-0.525-1.433-0.775-2.074-0.25-0.642-0.465-1.177-0.648-1.602zm7.818 0.313c0.1 0 0.218 9e-3 0.352 0.025 0.133 8e-3 0.265 0.026 0.398 0.051 0.133 0.017 0.264 0.041 0.389 0.074 0.125 0.025 0.224 0.051 0.299 0.076l-0.262 1.273c-0.125-0.042-0.3-0.083-0.525-0.125-0.217-0.05-0.47-0.074-0.762-0.074-0.167 0-0.345 0.017-0.537 0.051-0.183 0.033-0.314 0.061-0.389 0.086v5.238h-1.512v-6.225c0.292-0.108 0.655-0.209 1.088-0.301 0.442-0.1 0.928-0.15 1.461-0.15z" fill="#2e3440"/>
</svg>
