<svg viewBox="0 0 22 22" xmlns="http://www.w3.org/2000/svg">
 <path d="m3 1c-1.108 0-2 0.892-2 2v16c0 1.108 0.892 2 2 2h16c1.108 0 2-0.892 2-2v-16c0-1.108-0.892-2-2-2h-16zm-0.344 5.588h1.574v3.574c0.275-0.275 0.563-0.567 0.863-0.875 0.3-0.317 0.595-0.633 0.887-0.949 0.3-0.325 0.585-0.637 0.852-0.938 0.267-0.3 0.508-0.571 0.725-0.813h1.887c-0.275 0.317-0.567 0.645-0.875 0.986-0.308 0.342-0.624 0.689-0.949 1.039-0.325 0.342-0.655 0.682-0.988 1.023-0.325 0.342-0.646 0.668-0.963 0.977 0.35 0.267 0.704 0.579 1.063 0.938 0.367 0.35 0.726 0.728 1.076 1.137 0.35 0.4 0.683 0.82 1 1.262 0.325 0.433 0.62 0.867 0.887 1.301h-1.861c-0.217-0.333-0.467-0.684-0.75-1.051s-0.584-0.721-0.9-1.063c-0.308-0.342-0.63-0.666-0.963-0.975-0.333-0.308-0.663-0.574-0.988-0.799v3.887h-1.574v-8.662zm7.76 2.125h1.514v3.424c0 0.7 0.099 1.2 0.299 1.5 0.208 0.3 0.568 0.451 1.076 0.451 0.183 0 0.374-9e-3 0.574-0.025 0.208-0.017 0.363-0.037 0.463-0.063v-5.287h1.512v6.338c-0.292 0.075-0.67 0.15-1.137 0.225-0.467 0.083-0.979 0.125-1.537 0.125-0.525 0-0.968-0.075-1.326-0.225-0.35-0.15-0.633-0.358-0.85-0.625-0.208-0.267-0.358-0.585-0.449-0.951-0.092-0.375-0.139-0.783-0.139-1.225v-3.662zm8.35 4.705h0.531v4.332h-0.756v-3.318c-0.113 0.087-0.253 0.173-0.424 0.256s-0.336 0.153-0.494 0.207l-0.232-0.576c0.242-0.096 0.485-0.219 0.727-0.369 0.246-0.15 0.461-0.327 0.648-0.531z" fill="#2e3440"/>
</svg>
