<svg viewBox="0 0 22 22" xmlns="http://www.w3.org/2000/svg">
 <path d="m3 1c-1.108 0-2 0.892-2 2v16c0 1.108 0.892 2 2 2h16c1.108 0 2-0.892 2-2v-16c0-1.108-0.892-2-2-2h-16zm4.361 5.387c0.4 0 0.754 0.03 1.063 0.088 0.317 0.05 0.588 0.109 0.813 0.176s0.409 0.138 0.551 0.213c0.15 0.075 0.254 0.129 0.312 0.162l-0.475 1.287c-0.25-0.15-0.563-0.275-0.938-0.375-0.367-0.108-0.756-0.162-1.164-0.162-0.892 0-1.574 0.28-2.049 0.838-0.467 0.55-0.701 1.315-0.701 2.299 0 0.467 0.056 0.895 0.164 1.287 0.117 0.383 0.283 0.713 0.5 0.988 0.225 0.275 0.499 0.492 0.824 0.65 0.333 0.15 0.72 0.225 1.162 0.225 0.275 0 0.513-9e-3 0.713-0.025 0.2-0.025 0.358-0.055 0.475-0.088v-3.111h1.576v4.162c-0.217 0.083-0.585 0.175-1.102 0.275s-1.112 0.15-1.787 0.15c-0.625 0-1.196-0.101-1.713-0.301s-0.958-0.492-1.324-0.875c-0.358-0.383-0.638-0.854-0.838-1.412s-0.299-1.201-0.299-1.926 0.108-1.365 0.324-1.924c0.225-0.558 0.529-1.031 0.912-1.414 0.383-0.392 0.833-0.687 1.35-0.887s1.067-0.301 1.65-0.301zm7.133 2.188c0.1 0 0.216 9e-3 0.35 0.025 0.133 8e-3 0.267 0.026 0.4 0.051 0.133 0.017 0.262 0.041 0.387 0.074 0.125 0.025 0.226 0.051 0.301 0.076l-0.262 1.273c-0.125-0.042-0.3-0.083-0.525-0.125-0.217-0.05-0.472-0.074-0.764-0.074-0.167 0-0.345 0.017-0.537 0.051-0.183 0.033-0.312 0.061-0.387 0.086v5.238h-1.514v-6.225c0.292-0.108 0.655-0.209 1.088-0.301 0.442-0.1 0.93-0.15 1.463-0.15zm3.455 4.844h0.531v4.332h-0.758v-3.318c-0.113 0.087-0.253 0.173-0.424 0.256s-0.336 0.153-0.494 0.207l-0.23-0.576c0.242-0.096 0.483-0.219 0.725-0.369 0.246-0.15 0.463-0.327 0.65-0.531z" fill="#2e3440"/>
</svg>
