<svg viewBox="0 0 22 22" xmlns="http://www.w3.org/2000/svg">
 <g transform="translate(0 -1030.9)" fill="#2e3440">
  <path d="m9 1046.9-2 2c-1 1-1 1 0 1h8c1 0 1 0 0-1l-2-2v-1h-4z"/>
  <path d="m5 1033.9c-1.108 0-2 0.892-2 2v9c0 1.108 0.892 2 2 2h12c1.108 0 2-0.892 2-2v-9c0-1.108-0.892-2-2-2h-12zm0 2h12v9h-12v-9z"/>
  <g transform="translate(.05127)">
   <path d="m8.834 1043.4v-1.179q0.393 0.184 0.752 0.278 0.359 0.09 0.709 0.09 0.735 0 1.145-0.406 0.41-0.41 0.483-1.213-0.291 0.214-0.62 0.32-0.329 0.107-0.714 0.107-0.978 0-1.581-0.568-0.598-0.572-0.598-1.504 0-1.03 0.667-1.649 0.671-0.62 1.794-0.62 1.248 0 1.931 0.842 0.684 0.842 0.684 2.38 0 1.581-0.799 2.486-0.799 0.901-2.192 0.901-0.449 0-0.859-0.068-0.41-0.064-0.803-0.197zm2.029-3.072q0.432 0 0.649-0.278 0.218-0.282 0.218-0.842 0-0.555-0.218-0.837t-0.649-0.282q-0.432 0-0.649 0.282-0.218 0.282-0.218 0.837 0 0.56 0.218 0.842 0.218 0.278 0.649 0.278z"/>
  </g>
 </g>
</svg>
