<svg viewBox="0 0 22 22" xmlns="http://www.w3.org/2000/svg">
 <path d="m3 1c-1.108 0-2 0.892-2 2v16c0 1.108 0.892 2 2 2h16c1.108 0 2-0.892 2-2v-16c0-1.108-0.892-2-2-2h-16zm1.973 5.5c0.525 0 1.013 0.042 1.463 0.125 0.45 0.075 0.837 0.203 1.162 0.387 0.333 0.183 0.592 0.427 0.775 0.727s0.275 0.67 0.275 1.111c0 0.408-0.101 0.759-0.301 1.051-0.192 0.292-0.462 0.524-0.812 0.699 0.525 0.175 0.912 0.434 1.162 0.775 0.25 0.342 0.375 0.776 0.375 1.301 0 0.892-0.325 1.562-0.975 2.01-0.65 0.442-1.647 0.662-2.988 0.662-0.458 0-0.92-0.015-1.387-0.049-0.467-0.025-0.875-0.084-1.225-0.176v-8.412c0.183-0.033 0.38-0.063 0.588-0.088 0.208-0.033 0.42-0.058 0.637-0.074 0.217-0.017 0.428-0.031 0.637-0.039 0.217-8e-3 0.422-0.012 0.613-0.012zm0.199 1.287c-0.242 0-0.457 5e-3 -0.648 0.014-0.183 8e-3 -0.343 0.02-0.477 0.037v2.275h1.113c0.6 0 1.07-0.083 1.412-0.25 0.342-0.175 0.514-0.484 0.514-0.926 0-0.417-0.181-0.712-0.539-0.887-0.35-0.175-0.808-0.264-1.375-0.264zm8.141 0.787c0.533 0 0.98 0.077 1.338 0.227 0.358 0.142 0.641 0.345 0.85 0.611 0.217 0.258 0.368 0.576 0.451 0.951 0.092 0.367 0.137 0.769 0.137 1.211v3.676h-1.512v-3.438c0-0.35-0.026-0.645-0.076-0.887-0.042-0.25-0.116-0.452-0.225-0.602-0.1-0.158-0.24-0.269-0.424-0.336-0.175-0.075-0.392-0.113-0.65-0.113-0.192 0-0.391 0.012-0.6 0.037-0.208 0.025-0.363 0.046-0.463 0.063v5.275h-1.514v-6.324c0.292-0.083 0.672-0.163 1.139-0.238s0.982-0.113 1.549-0.113zm-9.266 2.775v2.639c0.175 0.017 0.362 0.029 0.563 0.037 0.2 8e-3 0.384 0.012 0.551 0.012 0.325 0 0.625-0.021 0.9-0.063 0.283-0.042 0.525-0.113 0.725-0.213 0.208-0.108 0.372-0.249 0.488-0.424 0.125-0.175 0.188-0.401 0.188-0.676 0-0.492-0.181-0.834-0.539-1.025-0.358-0.192-0.853-0.287-1.486-0.287h-1.389zm14.51 1.969c0.242 0 0.45 0.03 0.625 0.088s0.319 0.142 0.432 0.25c0.117 0.104 0.202 0.229 0.256 0.375 0.058 0.142 0.088 0.298 0.088 0.469 0 0.2-0.057 0.379-0.17 0.537-0.108 0.158-0.249 0.28-0.424 0.363 0.225 0.079 0.409 0.209 0.555 0.393 0.15 0.183 0.227 0.42 0.227 0.707 0 0.192-0.035 0.37-0.102 0.537-0.067 0.162-0.167 0.305-0.305 0.426-0.137 0.117-0.313 0.21-0.525 0.281-0.208 0.067-0.458 0.1-0.75 0.1-0.113 0-0.229-9e-3 -0.35-0.025-0.117-0.012-0.23-0.032-0.338-0.057-0.104-0.021-0.2-0.043-0.287-0.068-0.088-0.029-0.155-0.055-0.201-0.08l0.15-0.645c0.087 0.042 0.214 0.09 0.381 0.145 0.167 0.05 0.373 0.074 0.619 0.074 0.329 0 0.567-0.063 0.713-0.188 0.146-0.129 0.219-0.299 0.219-0.512 0-0.137-0.03-0.252-0.088-0.344-0.054-0.092-0.13-0.165-0.23-0.219-0.096-0.058-0.209-0.098-0.338-0.119-0.125-0.025-0.259-0.037-0.4-0.037h-0.256v-0.613h0.313c0.096 0 0.191-9e-3 0.287-0.025 0.1-0.021 0.19-0.054 0.27-0.1 0.079-0.05 0.143-0.114 0.193-0.193s0.074-0.182 0.074-0.307c0-0.1-0.019-0.185-0.057-0.256-0.037-0.071-0.086-0.13-0.148-0.176-0.058-0.046-0.128-0.079-0.207-0.1s-0.163-0.031-0.25-0.031c-0.188 0-0.354 0.03-0.5 0.088-0.146 0.054-0.274 0.117-0.387 0.188l-0.275-0.563c0.058-0.038 0.13-0.077 0.213-0.119s0.173-0.082 0.273-0.119c0.104-0.037 0.215-0.067 0.332-0.088 0.117-0.025 0.24-0.037 0.369-0.037z" fill="#2e3440"/>
</svg>
