<svg viewBox="0 0 22 22" xmlns="http://www.w3.org/2000/svg">
 <path d="m3 1c-1.108 0-2 0.892-2 2v16c0 1.108 0.892 2 2 2h16c1.108 0 2-0.892 2-2v-16c0-1.108-0.892-2-2-2h-16zm1.994 5.5c1.25 0 2.205 0.229 2.863 0.688 0.667 0.458 1 1.158 1 2.1 0 1.175-0.58 1.972-1.738 2.389 0.158 0.192 0.339 0.424 0.539 0.699s0.403 0.575 0.611 0.9c0.208 0.317 0.408 0.645 0.6 0.986 0.192 0.333 0.364 0.663 0.514 0.988h-1.764c-0.158-0.3-0.328-0.6-0.512-0.9-0.183-0.308-0.371-0.603-0.563-0.887-0.183-0.292-0.367-0.563-0.551-0.813-0.183-0.258-0.353-0.488-0.512-0.688-0.117 8e-3 -0.217 0.012-0.301 0.012h-1v3.275h-1.574v-8.537c0.383-0.083 0.791-0.137 1.225-0.162 0.433-0.033 0.82-0.051 1.162-0.051zm0.113 1.363c-0.333 0-0.642 0.012-0.926 0.037v2.799h0.688c0.383 0 0.722-0.021 1.014-0.063s0.533-0.116 0.725-0.225c0.2-0.108 0.349-0.254 0.449-0.437s0.15-0.416 0.15-0.699c0-0.267-0.05-0.492-0.15-0.676-0.1-0.183-0.246-0.329-0.438-0.438-0.183-0.108-0.404-0.183-0.662-0.225-0.258-0.05-0.541-0.074-0.85-0.074zm5.357 0.85h1.514v3.424c0 0.7 0.099 1.2 0.299 1.5 0.208 0.3 0.568 0.451 1.076 0.451 0.183 0 0.374-9e-3 0.574-0.025 0.208-0.017 0.363-0.037 0.463-0.063v-5.287h1.512v6.338c-0.292 0.075-0.67 0.15-1.137 0.225-0.467 0.083-0.979 0.125-1.537 0.125-0.525 0-0.968-0.075-1.326-0.225-0.35-0.15-0.633-0.358-0.85-0.625-0.208-0.267-0.358-0.585-0.449-0.951-0.092-0.375-0.139-0.783-0.139-1.225v-3.662zm8.188 4.605c0.246 0 0.454 0.037 0.625 0.107 0.175 0.071 0.317 0.161 0.426 0.273 0.113 0.113 0.194 0.238 0.244 0.375 0.05 0.138 0.074 0.271 0.074 0.4 0 0.229-0.063 0.434-0.188 0.613-0.125 0.175-0.269 0.314-0.432 0.418 0.246 0.133 0.428 0.288 0.545 0.463 0.121 0.175 0.18 0.382 0.18 0.619 0 0.179-0.031 0.346-0.094 0.5s-0.156 0.288-0.281 0.4c-0.125 0.113-0.281 0.199-0.469 0.262-0.183 0.063-0.395 0.094-0.637 0.094-0.283 0-0.52-0.04-0.707-0.119-0.188-0.079-0.337-0.178-0.449-0.299-0.113-0.121-0.194-0.251-0.244-0.389-0.046-0.142-0.068-0.275-0.068-0.4s0.017-0.24 0.051-0.344c0.038-0.108 0.086-0.205 0.148-0.293 0.063-0.092 0.134-0.175 0.213-0.25s0.163-0.141 0.25-0.199c-0.192-0.133-0.336-0.277-0.432-0.432-0.092-0.158-0.137-0.351-0.137-0.576 0-0.162 0.031-0.315 0.094-0.461 0.067-0.15 0.16-0.282 0.281-0.395s0.267-0.203 0.438-0.27 0.36-0.1 0.568-0.1zm0 0.619c-0.113 0-0.21 0.019-0.293 0.057-0.079 0.033-0.143 0.078-0.193 0.137-0.05 0.054-0.088 0.115-0.113 0.182-0.025 0.063-0.037 0.125-0.037 0.188 0 0.158 0.057 0.308 0.174 0.449 0.121 0.142 0.322 0.255 0.602 0.338 0.154-0.096 0.274-0.203 0.361-0.324 0.088-0.125 0.131-0.283 0.131-0.475 0-0.054-0.012-0.113-0.037-0.176-0.021-0.067-0.057-0.127-0.111-0.182-0.05-0.054-0.116-0.099-0.195-0.137s-0.175-0.057-0.287-0.057zm-0.23 1.855c-0.15 0.096-0.272 0.214-0.363 0.352-0.092 0.133-0.137 0.293-0.137 0.48 0 0.063 0.012 0.128 0.037 0.199s0.067 0.137 0.125 0.195 0.133 0.107 0.225 0.148c0.092 0.038 0.206 0.057 0.344 0.057 0.125 0 0.235-0.015 0.326-0.049 0.092-0.033 0.166-0.079 0.225-0.133 0.058-0.058 0.102-0.123 0.131-0.193 0.029-0.075 0.043-0.15 0.043-0.225 0-0.117-0.023-0.219-0.068-0.307-0.046-0.088-0.112-0.162-0.199-0.225-0.083-0.067-0.184-0.122-0.301-0.168-0.117-0.05-0.245-0.095-0.387-0.133z" fill="#2e3440"/>
</svg>
