<svg viewBox="0 0 22 22" xmlns="http://www.w3.org/2000/svg">
 <path d="m3 1c-1.108 0-2 0.892-2 2v16c0 1.108 0.892 2 2 2h16c1.108 0 2-0.892 2-2v-16c0-1.108-0.892-2-2-2h-16zm-0.063 5.588h5.563v1.338h-3.988v2.137h3.551v1.313h-3.551v2.537h4.287v1.338h-5.861v-8.662zm9.936 1.986c0.533 0 0.98 0.077 1.338 0.227 0.358 0.142 0.641 0.345 0.85 0.611 0.217 0.258 0.368 0.576 0.451 0.951 0.092 0.367 0.137 0.769 0.137 1.211v3.676h-1.512v-3.438c0-0.35-0.026-0.645-0.076-0.887-0.042-0.25-0.116-0.452-0.225-0.602-0.1-0.158-0.24-0.269-0.424-0.336-0.175-0.075-0.392-0.113-0.65-0.113-0.192 0-0.391 0.012-0.6 0.037-0.208 0.025-0.363 0.046-0.463 0.063v5.275h-1.514v-6.324c0.292-0.083 0.672-0.163 1.139-0.238s0.982-0.113 1.549-0.113zm4.469 4.844h2.213v0.639h-1.568c-4e-3 0.071-0.011 0.152-0.02 0.244-4e-3 0.087-0.011 0.176-0.02 0.268-4e-3 0.092-9e-3 0.18-0.018 0.264-8e-3 0.083-0.017 0.153-0.025 0.211 0.617 0.033 1.072 0.176 1.363 0.426 0.296 0.246 0.443 0.583 0.443 1.012 0 0.196-0.033 0.378-0.1 0.545s-0.169 0.311-0.307 0.432-0.311 0.216-0.52 0.287c-0.208 0.067-0.451 0.1-0.73 0.1-0.112 0-0.227-9e-3 -0.344-0.025-0.117-0.017-0.23-0.038-0.338-0.063-0.104-0.021-0.198-0.043-0.281-0.068s-0.146-0.048-0.188-0.068l0.145-0.639c0.087 0.042 0.212 0.089 0.375 0.139 0.167 0.046 0.368 0.068 0.605 0.068 0.163 0 0.301-0.017 0.418-0.051 0.117-0.037 0.21-0.086 0.281-0.148 0.075-0.063 0.131-0.134 0.164-0.213 0.033-0.083 0.049-0.172 0.049-0.264 0-0.137-0.026-0.259-0.08-0.367s-0.152-0.2-0.289-0.275c-0.133-0.075-0.314-0.132-0.543-0.17-0.225-0.037-0.51-0.055-0.855-0.055 0.046-0.4 0.08-0.78 0.105-1.139 0.025-0.362 0.046-0.725 0.063-1.088z" fill="#2e3440"/>
</svg>
