<svg viewBox="0 0 22 22" xmlns="http://www.w3.org/2000/svg">
 <g transform="translate(0 -1030.9)" fill="#2e3440">
  <path d="m9 1046.9-2 2c-1 1-1 1 0 1h8c1 0 1 0 0-1l-2-2v-1h-4z"/>
  <path d="m5 1033.9c-1.108 0-2 0.892-2 2v9c0 1.108 0.892 2 2 2h12c1.108 0 2-0.892 2-2v-9c0-1.108-0.892-2-2-2h-12zm0 2h12v9h-12v-9z"/>
  <g transform="translate(-.2948)">
   <path d="m6.316 1042.4h1.453v-4.123l-1.491 0.308v-1.119l1.483-0.308h1.564v5.242h1.453v1.136h-4.46v-1.136z"/>
   <path d="m13.846 1038.5-1.803 2.67h1.803v-2.67zm-0.273-1.354h1.829v4.02h0.91v1.192h-0.91v1.162h-1.555v-1.162h-2.828v-1.41l2.555-3.807z"/>
  </g>
 </g>
</svg>
