<svg viewBox="0 0 22 22" xmlns="http://www.w3.org/2000/svg">
 <path d="m3 1c-1.108 0-2 0.892-2 2v16c0 1.108 0.892 2 2 2h16c1.108 0 2-0.892 2-2v-16c0-1.108-0.892-2-2-2h-16zm4.141 5.838h1.486c0.292 0.617 0.575 1.242 0.85 1.875s0.551 1.3 0.826 2c0.283 0.7 0.57 1.441 0.861 2.225 0.3 0.783 0.613 1.637 0.938 2.563h-1.699c-0.117-0.342-0.238-0.678-0.363-1.012-0.125-0.333-0.245-0.675-0.361-1.025h-3.65c-0.117 0.35-0.238 0.695-0.363 1.037l-0.35 1h-1.637c0.325-0.925 0.632-1.779 0.924-2.563 0.292-0.783 0.577-1.525 0.852-2.225 0.283-0.7 0.561-1.367 0.836-2s0.56-1.258 0.852-1.875zm0.711 1.674c-0.192 0.442-0.412 0.98-0.662 1.613-0.242 0.633-0.495 1.321-0.762 2.063h2.85c-0.267-0.742-0.525-1.433-0.775-2.074-0.25-0.642-0.467-1.177-0.65-1.602zm5.05 0.451h4.961v1.063c-0.167 0.175-0.387 0.42-0.662 0.736-0.267 0.317-0.553 0.671-0.861 1.063-0.308 0.383-0.621 0.788-0.938 1.213-0.308 0.417-0.588 0.818-0.838 1.201h3.375v1.262h-5.201v-0.938c0.183-0.333 0.412-0.696 0.688-1.088 0.275-0.392 0.56-0.782 0.852-1.174 0.292-0.4 0.578-0.78 0.861-1.139 0.292-0.358 0.55-0.671 0.775-0.938h-3.01v-1.262z" fill="#2e3440"/>
</svg>
