<svg viewBox="0 0 22 22" xmlns="http://www.w3.org/2000/svg">
 <path d="m3 1c-1.108 0-2 0.892-2 2v16c0 1.108 0.892 2 2 2h16c1.108 0 2-0.892 2-2v-16c0-1.108-0.892-2-2-2h-16zm-0.465 5.588h1.574v3.574c0.275-0.275 0.563-0.567 0.863-0.875 0.3-0.317 0.595-0.633 0.887-0.949 0.3-0.325 0.583-0.637 0.85-0.938 0.267-0.3 0.508-0.571 0.725-0.813h1.889c-0.275 0.317-0.567 0.645-0.875 0.986-0.308 0.342-0.626 0.689-0.951 1.039-0.325 0.342-0.653 0.682-0.986 1.023-0.325 0.342-0.646 0.668-0.963 0.977 0.35 0.267 0.704 0.579 1.063 0.938 0.367 0.35 0.724 0.728 1.074 1.137 0.35 0.4 0.683 0.82 1 1.262 0.325 0.433 0.622 0.867 0.889 1.301h-1.863c-0.217-0.333-0.467-0.684-0.75-1.051s-0.584-0.721-0.9-1.063c-0.308-0.342-0.628-0.666-0.961-0.975-0.333-0.308-0.663-0.574-0.988-0.799v3.887h-1.574v-8.662zm10.742 1.986c0.533 0 0.978 0.077 1.336 0.227 0.358 0.142 0.643 0.345 0.852 0.611 0.217 0.258 0.366 0.576 0.449 0.951 0.092 0.367 0.137 0.769 0.137 1.211v3.676h-1.512v-3.438c0-0.35-0.024-0.645-0.074-0.887-0.042-0.25-0.118-0.452-0.227-0.602-0.1-0.158-0.24-0.269-0.424-0.336-0.175-0.075-0.392-0.113-0.65-0.113-0.192 0-0.391 0.012-0.6 0.037-0.208 0.025-0.363 0.046-0.463 0.063v5.275h-1.512v-6.324c0.292-0.083 0.67-0.163 1.137-0.238s0.984-0.113 1.551-0.113zm5.611 4.844h0.531v4.332h-0.756v-3.318c-0.113 0.087-0.255 0.173-0.426 0.256s-0.336 0.153-0.494 0.207l-0.23-0.576c0.242-0.096 0.483-0.219 0.725-0.369 0.246-0.15 0.463-0.327 0.65-0.531z" fill="#2e3440"/>
</svg>
