<svg viewBox="0 0 22 22" xmlns="http://www.w3.org/2000/svg">
 <path d="m3 1c-1.108 0-2 0.892-2 2v16c0 1.108 0.892 2 2 2h16c1.108 0 2-0.892 2-2v-16c0-1.108-0.892-2-2-2h-16zm9.322 4.551v5.711c0.192-0.2 0.395-0.412 0.611-0.637 0.217-0.233 0.43-0.463 0.639-0.688 0.208-0.233 0.403-0.454 0.586-0.662 0.192-0.217 0.355-0.404 0.488-0.563h1.787c-0.417 0.467-0.858 0.949-1.324 1.449-0.458 0.5-0.922 0.988-1.389 1.463 0.25 0.208 0.514 0.462 0.789 0.762 0.275 0.292 0.54 0.604 0.799 0.938 0.258 0.333 0.5 0.667 0.725 1s0.413 0.642 0.563 0.926h-1.75c-0.15-0.258-0.323-0.529-0.523-0.813-0.192-0.283-0.4-0.558-0.625-0.824-0.225-0.267-0.454-0.517-0.688-0.75-0.233-0.242-0.463-0.447-0.688-0.613v3h-1.514v-9.449l1.514-0.25zm-9.568 1.037h1.574v3.574c0.275-0.275 0.563-0.567 0.863-0.875 0.3-0.317 0.595-0.633 0.887-0.949 0.3-0.325 0.585-0.637 0.852-0.938 0.267-0.3 0.508-0.571 0.725-0.813h1.887c-0.275 0.317-0.567 0.645-0.875 0.986-0.308 0.342-0.624 0.689-0.949 1.039-0.325 0.342-0.655 0.682-0.988 1.023-0.325 0.342-0.646 0.668-0.963 0.977 0.35 0.267 0.704 0.579 1.063 0.938 0.367 0.35 0.726 0.728 1.076 1.137 0.35 0.4 0.683 0.82 1 1.262 0.325 0.433 0.62 0.867 0.887 1.301h-1.861c-0.217-0.333-0.467-0.684-0.75-1.051s-0.584-0.721-0.9-1.063c-0.308-0.342-0.63-0.666-0.963-0.975-0.333-0.308-0.663-0.574-0.988-0.799v3.887h-1.574v-8.662zm15.914 6.83h0.531v4.332h-0.756v-3.318c-0.113 0.087-0.253 0.173-0.424 0.256s-0.336 0.153-0.494 0.207l-0.232-0.576c0.242-0.096 0.485-0.219 0.727-0.369 0.246-0.15 0.461-0.327 0.648-0.531z" fill="#2e3440"/>
</svg>
