<svg viewBox="0 0 22 22" xmlns="http://www.w3.org/2000/svg">
 <path d="m3 1c-1.108 0-2 0.892-2 2v16c0 1.108 0.892 2 2 2h16c1.108 0 2-0.892 2-2v-16c0-1.108-0.892-2-2-2h-16zm0.289 5.588h1.588v5.262c0 0.392 0.042 0.73 0.125 1.014 0.092 0.275 0.217 0.499 0.375 0.674 0.167 0.175 0.36 0.305 0.576 0.389 0.225 0.083 0.475 0.125 0.75 0.125s0.525-0.042 0.75-0.125 0.416-0.214 0.574-0.389c0.167-0.175 0.292-0.399 0.375-0.674 0.092-0.283 0.137-0.622 0.137-1.014v-5.262h1.588v5.412c0 0.5-0.071 0.958-0.213 1.375-0.133 0.417-0.342 0.78-0.625 1.088-0.275 0.308-0.629 0.55-1.063 0.725-0.433 0.167-0.945 0.25-1.537 0.25s-1.1-0.083-1.525-0.25c-0.425-0.175-0.779-0.416-1.063-0.725-0.275-0.308-0.478-0.671-0.611-1.088s-0.201-0.875-0.201-1.375v-5.412zm11.328 1.986c0.1 0 0.216 9e-3 0.35 0.025 0.133 8e-3 0.267 0.026 0.4 0.051 0.133 0.017 0.262 0.041 0.387 0.074 0.125 0.025 0.226 0.051 0.301 0.076l-0.264 1.273c-0.125-0.042-0.3-0.083-0.525-0.125-0.217-0.05-0.47-0.074-0.762-0.074-0.167 0-0.345 0.017-0.537 0.051-0.183 0.033-0.314 0.061-0.389 0.086v5.238h-1.512v-6.225c0.292-0.108 0.655-0.209 1.088-0.301 0.442-0.1 0.93-0.15 1.463-0.15zm2.311 4.844h2.211v0.639h-1.568c-4e-3 0.071-9e-3 0.152-0.018 0.244-4e-3 0.087-0.011 0.176-0.02 0.268-4e-3 0.092-0.011 0.18-0.02 0.264-8e-3 0.083-0.015 0.153-0.023 0.211 0.617 0.033 1.07 0.176 1.361 0.426 0.296 0.246 0.443 0.583 0.443 1.012 0 0.196-0.033 0.378-0.1 0.545s-0.169 0.311-0.307 0.432c-0.137 0.121-0.309 0.216-0.518 0.287-0.208 0.067-0.453 0.1-0.732 0.1-0.113 0-0.227-9e-3 -0.344-0.025-0.117-0.017-0.228-0.038-0.336-0.063-0.104-0.021-0.198-0.043-0.281-0.068s-0.146-0.048-0.188-0.068l0.143-0.639c0.088 0.042 0.213 0.089 0.375 0.139 0.167 0.046 0.37 0.068 0.607 0.068 0.162 0 0.301-0.017 0.418-0.051 0.117-0.037 0.21-0.086 0.281-0.148 0.075-0.063 0.129-0.134 0.162-0.213 0.033-0.083 0.051-0.172 0.051-0.264 0-0.137-0.028-0.259-0.082-0.367s-0.15-0.2-0.287-0.275c-0.133-0.075-0.314-0.132-0.543-0.17-0.225-0.037-0.512-0.055-0.857-0.055 0.046-0.4 0.082-0.78 0.107-1.139 0.025-0.362 0.046-0.725 0.063-1.088z" fill="#2e3440"/>
</svg>
