<svg viewBox="0 0 22 22" xmlns="http://www.w3.org/2000/svg">
 <path d="m3 1c-1.108 0-2 0.892-2 2v16c0 1.108 0.892 2 2 2h16c1.108 0 2-0.892 2-2v-16c0-1.108-0.892-2-2-2h-16zm10.73 4.801v3.236c0.167-0.058 0.36-0.109 0.576-0.15 0.225-0.042 0.445-0.063 0.662-0.063 0.525 0 0.959 0.077 1.301 0.227 0.35 0.142 0.628 0.345 0.836 0.611 0.208 0.258 0.354 0.571 0.438 0.937 0.092 0.367 0.139 0.775 0.139 1.225v3.676h-1.514v-3.438c0-0.35-0.024-0.645-0.074-0.887-0.042-0.25-0.116-0.452-0.225-0.602-0.1-0.158-0.237-0.269-0.412-0.336-0.175-0.075-0.392-0.113-0.65-0.113-0.2 0-0.405 0.021-0.613 0.063s-0.363 0.08-0.463 0.113v5.199h-1.512v-9.449l1.512-0.25zm-6.775 0.949c1.258 0 2.222 0.229 2.889 0.688 0.675 0.458 1.012 1.175 1.012 2.15 0 0.508-0.092 0.946-0.275 1.313-0.175 0.358-0.432 0.653-0.773 0.887-0.342 0.225-0.758 0.392-1.25 0.5s-1.054 0.162-1.688 0.162h-0.789v3.051h-1.574v-8.537c0.367-0.083 0.771-0.137 1.213-0.162 0.45-0.033 0.861-0.051 1.236-0.051zm0.113 1.363c-0.4 0-0.73 0.012-0.988 0.037v2.949h0.764c0.758 0 1.342-0.104 1.75-0.313 0.408-0.217 0.611-0.621 0.611-1.213 0-0.283-0.054-0.519-0.162-0.711s-0.258-0.343-0.449-0.451c-0.192-0.108-0.421-0.183-0.688-0.225-0.258-0.05-0.538-0.074-0.838-0.074z" fill="#2e3440"/>
</svg>
