<svg viewBox="0 0 22 22" xmlns="http://www.w3.org/2000/svg">
 <path d="m3 1c-1.108 0-2 0.892-2 2v16c0 1.108 0.892 2 2 2h16c1.108 0 2-0.892 2-2v-16c0-1.108-0.892-2-2-2h-16zm1.865 5.588h1.576v8.662h-1.576v-8.662zm6.264 1.963c0.9 0 1.6 0.278 2.1 0.836 0.508 0.558 0.762 1.392 0.762 2.5 0 0.083-3e-3 0.181-0.012 0.289 0 0.1-5e-3 0.19-0.014 0.273h-4.313c0.042 0.525 0.226 0.935 0.551 1.227 0.333 0.283 0.813 0.424 1.438 0.424 0.367 0 0.7-0.033 1-0.1 0.308-0.067 0.55-0.138 0.725-0.213l0.201 1.238c-0.083 0.042-0.202 0.087-0.352 0.137-0.142 0.042-0.308 0.08-0.5 0.113-0.183 0.042-0.383 0.075-0.6 0.1s-0.437 0.037-0.662 0.037c-0.575 0-1.075-0.083-1.5-0.25-0.425-0.175-0.776-0.413-1.051-0.713-0.275-0.308-0.478-0.666-0.611-1.074-0.133-0.417-0.201-0.872-0.201-1.363 0-0.575 0.083-1.078 0.25-1.512 0.175-0.433 0.404-0.791 0.688-1.074 0.283-0.292 0.61-0.509 0.977-0.65 0.367-0.15 0.742-0.225 1.125-0.225zm0.012 1.262c-0.233 0-0.438 0.045-0.613 0.137-0.175 0.083-0.324 0.196-0.449 0.338-0.117 0.142-0.209 0.305-0.275 0.488-0.067 0.183-0.112 0.371-0.137 0.563h2.813c0-0.208-0.03-0.405-0.088-0.588-0.058-0.192-0.145-0.355-0.262-0.488-0.108-0.142-0.247-0.249-0.414-0.324-0.158-0.083-0.349-0.125-0.574-0.125zm4.273 3.605h2.211v0.639h-1.568c-4e-3 0.071-9e-3 0.152-0.018 0.244-4e-3 0.087-0.011 0.176-0.02 0.268-4e-3 0.092-0.011 0.18-0.02 0.264-8e-3 0.083-0.015 0.153-0.023 0.211 0.617 0.033 1.07 0.176 1.361 0.426 0.296 0.246 0.443 0.583 0.443 1.012 0 0.196-0.033 0.378-0.1 0.545s-0.169 0.311-0.307 0.432c-0.137 0.121-0.309 0.216-0.518 0.287-0.208 0.067-0.453 0.1-0.732 0.1-0.113 0-0.227-9e-3 -0.344-0.025-0.117-0.017-0.228-0.038-0.336-0.063-0.104-0.021-0.198-0.043-0.281-0.068s-0.146-0.048-0.188-0.068l0.143-0.639c0.087 0.042 0.212 0.089 0.375 0.139 0.167 0.046 0.37 0.068 0.607 0.068 0.163 0 0.301-0.017 0.418-0.051 0.117-0.037 0.21-0.086 0.281-0.148 0.075-0.063 0.129-0.134 0.162-0.213 0.033-0.083 0.051-0.172 0.051-0.264 0-0.137-0.028-0.259-0.082-0.367s-0.15-0.2-0.287-0.275c-0.133-0.075-0.314-0.132-0.543-0.17-0.225-0.037-0.512-0.055-0.857-0.055 0.046-0.4 0.082-0.78 0.107-1.139 0.025-0.362 0.046-0.725 0.063-1.088z" fill="#2e3440"/>
</svg>
