<svg viewBox="0 0 22 22" xmlns="http://www.w3.org/2000/svg">
 <path d="m3 1c-1.108 0-2 0.892-2 2v16c0 1.108 0.892 2 2 2h16c1.108 0 2-0.892 2-2v-16c0-1.108-0.892-2-2-2h-16zm10.293 4.863c0.25 0 0.467 0.083 0.65 0.25s0.273 0.396 0.273 0.688c0 0.283-0.09 0.507-0.273 0.674s-0.4 0.25-0.65 0.25c-0.258 0-0.479-0.083-0.662-0.25s-0.275-0.39-0.275-0.674c0-0.292 0.092-0.521 0.275-0.688s0.404-0.25 0.662-0.25zm-8.818 0.725h1.576v3.574c0.275-0.275 0.561-0.567 0.861-0.875 0.3-0.317 0.597-0.633 0.889-0.949 0.3-0.325 0.583-0.637 0.85-0.938 0.267-0.3 0.508-0.571 0.725-0.813h1.889c-0.275 0.317-0.567 0.645-0.875 0.986-0.308 0.342-0.626 0.689-0.951 1.039-0.325 0.342-0.653 0.682-0.986 1.023-0.325 0.342-0.646 0.668-0.963 0.977 0.35 0.267 0.704 0.579 1.062 0.938 0.367 0.35 0.724 0.728 1.074 1.137 0.35 0.4 0.683 0.82 1 1.262 0.325 0.433 0.622 0.867 0.889 1.301h-1.863c-0.217-0.333-0.467-0.684-0.75-1.051s-0.584-0.721-0.9-1.063c-0.308-0.342-0.63-0.666-0.963-0.975-0.333-0.308-0.661-0.574-0.986-0.799v3.887h-1.576v-8.662zm8.07 2.125h1.512v6.537h-1.512v-6.537zm4.404 4.705h0.531v4.332h-0.756v-3.318c-0.113 0.087-0.255 0.173-0.426 0.256s-0.334 0.153-0.492 0.207l-0.232-0.576c0.242-0.096 0.483-0.219 0.725-0.369 0.246-0.15 0.463-0.327 0.65-0.531z" fill="#2e3440"/>
</svg>
