<svg viewBox="0 0 22 22" xmlns="http://www.w3.org/2000/svg">
 <path d="m3 1c-1.108 0-2 0.892-2 2v16c0 1.108 0.892 2 2 2h16c1.108 0 2-0.892 2-2v-16c0-1.108-0.892-2-2-2h-16zm9.65 4.551v5.711c0.192-0.2 0.397-0.412 0.613-0.637 0.217-0.233 0.428-0.463 0.637-0.688 0.208-0.233 0.405-0.454 0.588-0.662 0.192-0.217 0.355-0.404 0.488-0.563h1.787c-0.417 0.467-0.858 0.949-1.324 1.449-0.458 0.5-0.922 0.988-1.389 1.463 0.25 0.208 0.512 0.462 0.787 0.762 0.275 0.292 0.542 0.604 0.801 0.938 0.258 0.333 0.5 0.667 0.725 1s0.412 0.642 0.563 0.926h-1.75c-0.15-0.258-0.325-0.529-0.525-0.813-0.192-0.283-0.4-0.558-0.625-0.824-0.225-0.267-0.454-0.517-0.688-0.75-0.233-0.242-0.463-0.447-0.688-0.613v3h-1.512v-9.449l1.512-0.25zm-10.289 1.037h1.588v5.262c0 0.392 0.042 0.73 0.125 1.014 0.092 0.275 0.217 0.499 0.375 0.674 0.167 0.175 0.36 0.305 0.576 0.389 0.225 0.083 0.475 0.125 0.75 0.125s0.525-0.042 0.75-0.125 0.416-0.214 0.574-0.389c0.167-0.175 0.292-0.399 0.375-0.674 0.092-0.283 0.137-0.622 0.137-1.014v-5.262h1.588v5.412c0 0.5-0.071 0.958-0.213 1.375-0.133 0.417-0.342 0.78-0.625 1.088-0.275 0.308-0.629 0.55-1.063 0.725-0.433 0.167-0.945 0.25-1.537 0.25s-1.1-0.083-1.525-0.25c-0.425-0.175-0.779-0.416-1.062-0.725-0.275-0.308-0.478-0.671-0.611-1.088s-0.201-0.875-0.201-1.375v-5.412zm16.268 6.73c0.242 0 0.45 0.03 0.625 0.088s0.319 0.142 0.432 0.25c0.117 0.104 0.202 0.229 0.256 0.375 0.058 0.142 0.088 0.298 0.088 0.469 0 0.2-0.055 0.379-0.168 0.537-0.108 0.158-0.251 0.28-0.426 0.363 0.225 0.079 0.411 0.209 0.557 0.393 0.15 0.183 0.225 0.42 0.225 0.707 0 0.192-0.033 0.37-0.1 0.537-0.067 0.162-0.169 0.305-0.307 0.426-0.137 0.117-0.313 0.21-0.525 0.281-0.208 0.067-0.458 0.1-0.75 0.1-0.113 0-0.229-9e-3 -0.35-0.025-0.117-0.012-0.23-0.032-0.338-0.057-0.104-0.021-0.2-0.043-0.287-0.068-0.087-0.029-0.153-0.055-0.199-0.08l0.15-0.645c0.088 0.042 0.214 0.09 0.381 0.145 0.167 0.05 0.373 0.074 0.619 0.074 0.329 0 0.565-0.063 0.711-0.188 0.146-0.129 0.219-0.299 0.219-0.512 0-0.137-0.028-0.252-0.086-0.344-0.054-0.092-0.132-0.165-0.232-0.219-0.096-0.058-0.209-0.098-0.338-0.119-0.125-0.025-0.257-0.037-0.398-0.037h-0.258v-0.613h0.313c0.096 0 0.193-9e-3 0.289-0.025 0.1-0.021 0.188-0.054 0.268-0.1 0.079-0.05 0.143-0.114 0.193-0.193s0.076-0.182 0.076-0.307c0-0.1-0.019-0.185-0.057-0.256s-0.088-0.13-0.15-0.176c-0.058-0.046-0.126-0.079-0.205-0.1s-0.162-0.031-0.25-0.031c-0.188 0-0.354 0.03-0.5 0.088-0.146 0.054-0.276 0.117-0.389 0.188l-0.275-0.563c0.058-0.038 0.13-0.077 0.213-0.119s0.175-0.082 0.275-0.119c0.104-0.037 0.215-0.067 0.332-0.088 0.117-0.025 0.238-0.037 0.367-0.037z" fill="#2e3440"/>
</svg>
