<svg width="22" height="22" viewBox="0 0 22 22" xmlns="http://www.w3.org/2000/svg">
 <path d="m3.398438 0.648438c-0.730469 0-1.429688 0.289062-1.945313 0.804687-1.074219 1.074219-1.074219 2.816406 0 3.886719l5.65625 5.660156-5.65625 5.660156c-1.074219 1.070313-1.074219 2.8125 0 3.886719s2.8125 1.074219 3.886719 0l5.660156-5.660156 5.660156 5.660156c1.070313 1.074219 2.8125 1.074219 3.886719 0s1.074219-2.816406 0-3.886719l-5.660156-5.660156 5.664062-5.660156c1.074219-1.070313 1.074219-2.8125 0-3.886719-0.515625-0.515625-1.21875-0.804687-1.949219-0.804687-0.726562 0-1.425781 0.289062-1.941406 0.804687l-5.660156 5.65625-5.660156-5.65625c-0.515625-0.515625-1.214844-0.804687-1.941406-0.804687zm0 1.71875c0.273437 0 0.535156 0.105468 0.726562 0.300781l6.875 6.875 6.875-6.875c0.191406-0.195313 0.453125-0.300781 0.726562-0.300781 0.273438 0 0.539063 0.105468 0.730469 0.300781 0.402344 0.402343 0.402344 1.054687 0 1.457031l-6.875 6.875 6.875 6.875c0.402344 0.402344 0.402344 1.054688 0 1.457031-0.402343 0.402344-1.054687 0.402344-1.457031 0l-6.875-6.875-6.875 6.875c-0.402344 0.402344-1.054688 0.402344-1.457031 0-0.402344-0.402343-0.402344-1.054687 0-1.457031l6.875-6.875-6.875-6.875c-0.402344-0.402344-0.402344-1.054688 0-1.457031 0.191406-0.195313 0.457031-0.300781 0.730469-0.300781z" fill="rgb(18.039216%, 20.392157%, 25.098041%)"/>
</svg>
