<svg viewBox="0 0 22 22" xmlns="http://www.w3.org/2000/svg">
 <path d="m3 1c-1.108 0-2 0.892-2 2v16c0 1.108 0.892 2 2 2h16c1.108 0 2-0.892 2-2v-16c0-1.108-0.892-2-2-2h-16zm10.451 4.801v3.236c0.167-0.058 0.358-0.109 0.574-0.15 0.225-0.042 0.445-0.063 0.662-0.063 0.525 0 0.959 0.077 1.301 0.227 0.35 0.142 0.63 0.345 0.838 0.611 0.208 0.258 0.354 0.571 0.438 0.937 0.092 0.367 0.137 0.775 0.137 1.225v3.676h-1.512v-3.438c0-0.35-0.026-0.645-0.076-0.887-0.042-0.25-0.116-0.452-0.225-0.602-0.1-0.158-0.237-0.269-0.412-0.336-0.175-0.075-0.392-0.113-0.65-0.113-0.2 0-0.403 0.021-0.611 0.063s-0.363 0.08-0.463 0.113v5.199h-1.514v-9.449l1.514-0.25zm-9.539 1.037h6.912v1.361h-2.662v7.301h-1.588v-7.301h-2.662v-1.361z" fill="#2e3440"/>
</svg>
