<svg viewBox="0 0 22 22" xmlns="http://www.w3.org/2000/svg">
 <path d="m3 1c-1.108 0-2 0.892-2 2v16c0 1.108 0.892 2 2 2h16c1.108 0 2-0.892 2-2v-16c0-1.108-0.892-2-2-2h-16zm-0.795 5.588h1.574v3.463h3.764v-3.463h1.574v8.662h-1.574v-3.838h-3.764v3.838h-1.574v-8.662zm11.584 1.963c0.9 0 1.6 0.278 2.1 0.836 0.508 0.558 0.764 1.392 0.764 2.5 0 0.083-5e-3 0.181-0.014 0.289 0 0.1-3e-3 0.19-0.012 0.273h-4.313c0.042 0.525 0.224 0.935 0.549 1.227 0.333 0.283 0.813 0.424 1.438 0.424 0.367 0 0.7-0.033 1-0.1 0.308-0.067 0.552-0.138 0.727-0.213l0.199 1.238c-0.083 0.042-0.2 0.087-0.35 0.137-0.142 0.042-0.308 0.08-0.5 0.113-0.183 0.042-0.383 0.075-0.6 0.1s-0.439 0.037-0.664 0.037c-0.575 0-1.075-0.083-1.5-0.25-0.425-0.175-0.774-0.413-1.049-0.713-0.275-0.308-0.48-0.666-0.613-1.074-0.133-0.417-0.199-0.872-0.199-1.363 0-0.575 0.083-1.078 0.25-1.512 0.175-0.433 0.404-0.791 0.688-1.074 0.283-0.292 0.608-0.509 0.975-0.65 0.367-0.15 0.742-0.225 1.125-0.225zm0.012 1.262c-0.233 0-0.436 0.045-0.611 0.137-0.175 0.083-0.326 0.196-0.451 0.338-0.117 0.142-0.207 0.305-0.273 0.488-0.067 0.183-0.114 0.371-0.139 0.563h2.813c0-0.208-0.03-0.405-0.088-0.588-0.058-0.192-0.145-0.355-0.262-0.488-0.108-0.142-0.245-0.249-0.412-0.324-0.158-0.083-0.351-0.125-0.576-0.125zm5.137 3.506c0.462 0 0.801 0.111 1.018 0.332 0.221 0.217 0.332 0.513 0.332 0.893 0 0.15-0.031 0.299-0.094 0.445-0.063 0.142-0.144 0.28-0.244 0.418-0.096 0.133-0.207 0.265-0.332 0.395-0.125 0.125-0.25 0.246-0.375 0.367-0.067 0.063-0.141 0.139-0.225 0.227-0.083 0.087-0.161 0.174-0.236 0.262-0.075 0.087-0.141 0.173-0.195 0.256-0.054 0.079-0.082 0.147-0.086 0.201h1.924v0.637h-2.756c-4e-3 -0.033-6e-3 -0.073-6e-3 -0.119v-0.111c0-0.2 0.031-0.384 0.094-0.551 0.067-0.171 0.152-0.329 0.256-0.475s0.22-0.283 0.35-0.412c0.129-0.129 0.26-0.258 0.389-0.383 0.1-0.096 0.195-0.19 0.287-0.281 0.092-0.092 0.17-0.18 0.236-0.268 0.071-0.092 0.128-0.184 0.17-0.275 0.042-0.096 0.063-0.193 0.063-0.293 0-0.217-0.063-0.371-0.188-0.463s-0.278-0.139-0.457-0.139c-0.117 0-0.224 0.017-0.324 0.051-0.1 0.033-0.19 0.073-0.27 0.119-0.075 0.046-0.141 0.093-0.199 0.143-0.058 0.046-0.102 0.084-0.131 0.113l-0.375-0.531c0.175-0.167 0.378-0.3 0.611-0.4 0.238-0.104 0.493-0.156 0.764-0.156z" fill="#2e3440"/>
</svg>
