<svg viewBox="0 0 22 22" xmlns="http://www.w3.org/2000/svg">
 <g transform="translate(0 -1030.9)" fill="#2e3440">
  <path d="m9 1046.9-2 2c-1 1-1 1 0 1h8c1 0 1 0 0-1l-2-2v-1h-4z"/>
  <path d="m5 1033.9c-1.108 0-2 0.892-2 2v9c0 1.108 0.892 2 2 2h12c1.108 0 2-0.892 2-2v-9c0-1.108-0.892-2-2-2h-12zm0 2h12v9h-12v-9z"/>
  <g transform="translate(-.11536)">
   <path d="m6.316 1042.4h1.453v-4.123l-1.491 0.308v-1.119l1.483-0.308h1.564v5.242h1.453v1.136h-4.46v-1.136z"/>
   <path d="m13.146 1042.3h2.807v1.209h-4.636v-1.209l2.328-2.055q0.312-0.282 0.461-0.551 0.15-0.269 0.15-0.56 0-0.449-0.303-0.722-0.299-0.273-0.799-0.273-0.385 0-0.842 0.167-0.457 0.162-0.978 0.487v-1.401q0.555-0.184 1.098-0.278 0.543-0.098 1.064-0.098 1.145 0 1.777 0.504 0.637 0.504 0.637 1.406 0 0.521-0.269 0.974-0.269 0.449-1.132 1.205l-1.363 1.196z"/>
  </g>
 </g>
</svg>
