<svg viewBox="0 0 22 22" xmlns="http://www.w3.org/2000/svg">
 <path d="m3 1c-1.108 0-2 0.892-2 2v16c0 1.108 0.892 2 2 2h16c1.108 0 2-0.892 2-2v-16c0-1.108-0.892-2-2-2h-16zm0.289 5.588h1.588v5.262c0 0.392 0.042 0.73 0.125 1.014 0.092 0.275 0.217 0.499 0.375 0.674 0.167 0.175 0.36 0.305 0.576 0.389 0.225 0.083 0.475 0.125 0.75 0.125s0.525-0.042 0.75-0.125 0.416-0.214 0.574-0.389c0.167-0.175 0.292-0.399 0.375-0.674 0.092-0.283 0.137-0.622 0.137-1.014v-5.262h1.588v5.412c0 0.5-0.071 0.958-0.213 1.375-0.133 0.417-0.342 0.78-0.625 1.088-0.275 0.308-0.629 0.55-1.063 0.725-0.433 0.167-0.945 0.25-1.537 0.25s-1.1-0.083-1.525-0.25c-0.425-0.175-0.779-0.416-1.063-0.725-0.275-0.308-0.478-0.671-0.611-1.088s-0.201-0.875-0.201-1.375v-5.412zm11.328 1.986c0.1 0 0.216 9e-3 0.35 0.025 0.133 8e-3 0.267 0.026 0.4 0.051 0.133 0.017 0.262 0.041 0.387 0.074 0.125 0.025 0.226 0.051 0.301 0.076l-0.264 1.273c-0.125-0.042-0.3-0.083-0.525-0.125-0.217-0.05-0.47-0.074-0.762-0.074-0.167 0-0.345 0.017-0.537 0.051-0.183 0.033-0.314 0.061-0.389 0.086v5.238h-1.512v-6.225c0.292-0.108 0.655-0.209 1.088-0.301 0.442-0.1 0.93-0.15 1.463-0.15zm3.172 4.744c0.462 0 0.803 0.111 1.02 0.332 0.221 0.217 0.33 0.513 0.33 0.893 0 0.15-0.031 0.299-0.094 0.445-0.063 0.142-0.142 0.28-0.242 0.418-0.096 0.133-0.207 0.265-0.332 0.395-0.125 0.125-0.25 0.246-0.375 0.367-0.067 0.063-0.141 0.139-0.225 0.227-0.083 0.087-0.163 0.174-0.238 0.262-0.075 0.087-0.139 0.173-0.193 0.256-0.054 0.079-0.084 0.147-0.088 0.201h1.926v0.637h-2.756c-4e-3 -0.033-8e-3 -0.073-8e-3 -0.119v-0.111c0-0.2 0.031-0.384 0.094-0.551 0.067-0.171 0.154-0.329 0.258-0.475s0.22-0.283 0.35-0.412c0.129-0.129 0.258-0.258 0.387-0.383 0.1-0.096 0.195-0.19 0.287-0.281 0.092-0.092 0.172-0.18 0.238-0.268 0.071-0.092 0.126-0.184 0.168-0.275 0.042-0.096 0.063-0.193 0.063-0.293 0-0.217-0.063-0.371-0.188-0.463s-0.276-0.139-0.455-0.139c-0.117 0-0.226 0.017-0.326 0.051-0.1 0.033-0.188 0.073-0.268 0.119-0.075 0.046-0.143 0.093-0.201 0.143-0.058 0.046-0.102 0.084-0.131 0.113l-0.375-0.531c0.175-0.167 0.38-0.3 0.613-0.4 0.238-0.104 0.491-0.156 0.762-0.156z" fill="#2e3440"/>
</svg>
