<svg viewBox="0 0 22 22" xmlns="http://www.w3.org/2000/svg">
 <path d="m3 1c-1.108 0-2 0.892-2 2v16c0 1.108 0.892 2 2 2h16c1.108 0 2-0.892 2-2v-16c0-1.108-0.892-2-2-2h-16zm9.65 4.551v5.711c0.192-0.2 0.397-0.412 0.613-0.637 0.217-0.233 0.428-0.463 0.637-0.688 0.208-0.233 0.405-0.454 0.588-0.662 0.192-0.217 0.355-0.404 0.488-0.563h1.787c-0.417 0.467-0.858 0.949-1.324 1.449-0.458 0.5-0.922 0.988-1.389 1.463 0.25 0.208 0.512 0.462 0.787 0.762 0.275 0.292 0.542 0.604 0.801 0.938 0.258 0.333 0.5 0.667 0.725 1s0.412 0.642 0.563 0.926h-1.75c-0.15-0.258-0.325-0.529-0.525-0.813-0.192-0.283-0.4-0.558-0.625-0.824-0.225-0.267-0.454-0.517-0.688-0.75-0.233-0.242-0.463-0.447-0.688-0.613v3h-1.512v-9.449l1.512-0.25zm-10.289 1.037h1.588v5.262c0 0.392 0.042 0.73 0.125 1.014 0.092 0.275 0.217 0.499 0.375 0.674 0.167 0.175 0.36 0.305 0.576 0.389 0.225 0.083 0.475 0.125 0.75 0.125s0.525-0.042 0.75-0.125 0.416-0.214 0.574-0.389c0.167-0.175 0.292-0.399 0.375-0.674 0.092-0.283 0.137-0.622 0.137-1.014v-5.262h1.588v5.412c0 0.5-0.071 0.958-0.213 1.375-0.133 0.417-0.342 0.78-0.625 1.088-0.275 0.308-0.629 0.55-1.063 0.725-0.433 0.167-0.945 0.25-1.537 0.25s-1.1-0.083-1.525-0.25c-0.425-0.175-0.779-0.416-1.062-0.725-0.275-0.308-0.478-0.671-0.611-1.088s-0.201-0.875-0.201-1.375v-5.412zm16.475 6.73c0.246 0 0.454 0.037 0.625 0.107 0.175 0.071 0.317 0.161 0.426 0.273 0.113 0.113 0.192 0.238 0.242 0.375 0.05 0.138 0.076 0.271 0.076 0.4 0 0.229-0.063 0.434-0.188 0.613-0.125 0.175-0.269 0.314-0.432 0.418 0.246 0.133 0.426 0.288 0.543 0.463 0.121 0.175 0.182 0.382 0.182 0.619 0 0.179-0.031 0.346-0.094 0.5s-0.156 0.288-0.281 0.4c-0.125 0.113-0.281 0.199-0.469 0.262-0.183 0.063-0.395 0.094-0.637 0.094-0.283 0-0.52-0.04-0.707-0.119-0.188-0.079-0.337-0.178-0.449-0.299-0.113-0.121-0.194-0.251-0.244-0.389-0.046-0.142-0.068-0.275-0.068-0.4s0.015-0.24 0.049-0.344c0.037-0.108 0.088-0.205 0.15-0.293 0.063-0.092 0.134-0.175 0.213-0.25s0.163-0.141 0.25-0.199c-0.192-0.133-0.336-0.277-0.432-0.432-0.092-0.158-0.137-0.351-0.137-0.576 0-0.162 0.031-0.315 0.094-0.461 0.067-0.15 0.16-0.282 0.281-0.395s0.267-0.203 0.438-0.27 0.36-0.1 0.568-0.1zm0 0.619c-0.113 0-0.21 0.019-0.293 0.057-0.079 0.033-0.145 0.078-0.195 0.137-0.05 0.054-0.086 0.115-0.111 0.182-0.025 0.063-0.037 0.125-0.037 0.188 0 0.158 0.057 0.308 0.174 0.449 0.121 0.142 0.32 0.255 0.6 0.338 0.154-0.096 0.276-0.203 0.363-0.324 0.088-0.125 0.131-0.283 0.131-0.475 0-0.054-0.012-0.113-0.037-0.176-0.021-0.067-0.059-0.127-0.113-0.182-0.05-0.054-0.114-0.099-0.193-0.137s-0.175-0.057-0.287-0.057zm-0.23 1.855c-0.15 0.096-0.272 0.214-0.363 0.352-0.092 0.133-0.137 0.293-0.137 0.48 0 0.063 0.012 0.128 0.037 0.199s0.067 0.137 0.125 0.195 0.133 0.107 0.225 0.148c0.092 0.038 0.206 0.057 0.344 0.057 0.125 0 0.233-0.015 0.324-0.049 0.092-0.033 0.168-0.079 0.227-0.133 0.058-0.058 0.102-0.123 0.131-0.193 0.029-0.075 0.043-0.15 0.043-0.225 0-0.117-0.023-0.219-0.068-0.307-0.046-0.088-0.112-0.162-0.199-0.225-0.083-0.067-0.184-0.122-0.301-0.168-0.117-0.05-0.245-0.095-0.387-0.133z" fill="#2e3440"/>
</svg>
