<svg viewBox="0 0 22 22" xmlns="http://www.w3.org/2000/svg">
 <path d="m3 1c-1.108 0-2 0.892-2 2v16c0 1.108 0.892 2 2 2h16c1.108 0 2-0.892 2-2v-16c0-1.108-0.892-2-2-2h-16zm2.961 5.588h1.488c0.292 0.617 0.575 1.242 0.85 1.875s0.551 1.3 0.826 2c0.283 0.7 0.57 1.441 0.861 2.225 0.3 0.783 0.612 1.637 0.937 2.563h-1.699c-0.117-0.342-0.238-0.678-0.363-1.012-0.125-0.333-0.245-0.675-0.361-1.025h-3.65c-0.117 0.35-0.238 0.695-0.363 1.037l-0.35 1h-1.637c0.325-0.925 0.632-1.779 0.924-2.563 0.292-0.783 0.575-1.525 0.85-2.225 0.283-0.7 0.563-1.367 0.838-2s0.558-1.258 0.85-1.875zm0.713 1.674c-0.192 0.442-0.412 0.98-0.662 1.613-0.242 0.633-0.495 1.321-0.762 2.063h2.85c-0.267-0.742-0.525-1.433-0.775-2.074-0.25-0.642-0.467-1.177-0.65-1.602zm7.82 0.313c0.1 0 0.216 9e-3 0.35 0.025 0.133 8e-3 0.267 0.026 0.4 0.051 0.133 0.017 0.262 0.041 0.387 0.074 0.125 0.025 0.226 0.051 0.301 0.076l-0.262 1.273c-0.125-0.042-0.3-0.083-0.525-0.125-0.217-0.05-0.472-0.074-0.764-0.074-0.167 0-0.345 0.017-0.537 0.051-0.183 0.033-0.312 0.061-0.387 0.086v5.238h-1.514v-6.225c0.292-0.108 0.655-0.209 1.088-0.301 0.442-0.1 0.93-0.15 1.463-0.15zm3.174 4.744c0.463 0 0.801 0.111 1.018 0.332 0.221 0.217 0.332 0.513 0.332 0.893 0 0.15-0.031 0.299-0.094 0.445-0.063 0.142-0.144 0.28-0.244 0.418-0.096 0.133-0.207 0.265-0.332 0.395-0.125 0.125-0.25 0.246-0.375 0.367-0.067 0.063-0.141 0.139-0.225 0.227-0.083 0.087-0.161 0.174-0.236 0.262-0.075 0.087-0.141 0.173-0.195 0.256-0.054 0.079-0.082 0.147-0.086 0.201h1.924v0.637h-2.756c-4e-3 -0.033-6e-3 -0.073-6e-3 -0.119v-0.111c0-0.2 0.031-0.384 0.094-0.551 0.067-0.171 0.152-0.329 0.256-0.475s0.22-0.283 0.35-0.412c0.129-0.129 0.26-0.258 0.389-0.383 0.1-0.096 0.195-0.19 0.287-0.281 0.092-0.092 0.17-0.18 0.236-0.268 0.071-0.092 0.128-0.184 0.17-0.275 0.042-0.096 0.063-0.193 0.063-0.293 0-0.217-0.063-0.371-0.188-0.463s-0.278-0.139-0.457-0.139c-0.117 0-0.224 0.017-0.324 0.051-0.1 0.033-0.19 0.073-0.27 0.119-0.075 0.046-0.141 0.093-0.199 0.143-0.058 0.046-0.102 0.084-0.131 0.113l-0.375-0.531c0.175-0.167 0.378-0.3 0.611-0.4 0.238-0.104 0.493-0.156 0.764-0.156z" fill="#2e3440"/>
</svg>
