<svg viewBox="0 0 22 22" xmlns="http://www.w3.org/2000/svg">
 <path d="m3 1c-1.108 0-2 0.892-2 2v16c0 1.108 0.892 2 2 2h16c1.108 0 2-0.892 2-2v-16c0-1.108-0.892-2-2-2h-16zm8.736 4.551v3.236c0.167-0.058 0.358-0.109 0.574-0.15 0.225-0.042 0.445-0.063 0.662-0.063 0.525 0 0.959 0.077 1.301 0.227 0.35 0.142 0.63 0.345 0.838 0.611 0.208 0.258 0.354 0.571 0.438 0.937 0.092 0.367 0.137 0.775 0.137 1.225v3.676h-1.512v-3.438c0-0.35-0.026-0.645-0.076-0.887-0.042-0.25-0.116-0.452-0.225-0.602-0.1-0.158-0.237-0.269-0.412-0.336-0.175-0.075-0.392-0.113-0.65-0.113-0.2 0-0.405 0.021-0.613 0.063s-0.361 0.08-0.461 0.113v5.199h-1.514v-9.449l1.514-0.25zm-9.236 1.037h6.199v1.162c-0.275 0.3-0.608 0.692-1 1.176-0.392 0.475-0.796 0.996-1.213 1.562-0.417 0.558-0.828 1.136-1.236 1.736-0.4 0.592-0.754 1.154-1.063 1.688h4.648v1.338h-6.549v-0.988c0.167-0.308 0.358-0.642 0.574-1 0.225-0.367 0.463-0.742 0.713-1.125s0.509-0.77 0.775-1.162c0.275-0.392 0.546-0.767 0.813-1.125 0.267-0.367 0.525-0.712 0.775-1.037 0.258-0.333 0.5-0.628 0.725-0.887h-4.162v-1.338zm14.83 6.83h2.213v0.639h-1.57c-4e-3 0.071-9e-3 0.152-0.018 0.244-4e-3 0.087-0.011 0.176-0.02 0.268-4e-3 0.092-9e-3 0.18-0.018 0.264-8e-3 0.083-0.017 0.153-0.025 0.211 0.617 0.033 1.07 0.176 1.361 0.426 0.296 0.246 0.445 0.583 0.445 1.012 0 0.196-0.035 0.378-0.102 0.545s-0.167 0.311-0.305 0.432c-0.137 0.121-0.311 0.216-0.52 0.287-0.208 0.067-0.451 0.1-0.73 0.1-0.113 0-0.227-9e-3 -0.344-0.025-0.117-0.017-0.23-0.038-0.338-0.063-0.104-0.021-0.198-0.043-0.281-0.068s-0.146-0.048-0.188-0.068l0.143-0.639c0.087 0.042 0.212 0.089 0.375 0.139 0.167 0.046 0.37 0.068 0.607 0.068 0.163 0 0.301-0.017 0.418-0.051 0.117-0.037 0.21-0.086 0.281-0.148 0.075-0.063 0.129-0.134 0.162-0.213 0.033-0.083 0.051-0.172 0.051-0.264 0-0.137-0.028-0.259-0.082-0.367s-0.15-0.2-0.287-0.275c-0.133-0.075-0.314-0.132-0.543-0.17-0.225-0.037-0.512-0.055-0.857-0.055 0.046-0.4 0.082-0.78 0.107-1.139 0.025-0.362 0.046-0.725 0.063-1.088z" fill="#2e3440"/>
</svg>
