<svg viewBox="0 0 22 22" xmlns="http://www.w3.org/2000/svg">
 <path d="m3 1c-1.108 0-2 0.892-2 2v16c0 1.108 0.892 2 2 2h16c1.108 0 2-0.892 2-2v-16c0-1.108-0.892-2-2-2h-16zm2.961 5.588h1.488c0.292 0.617 0.575 1.242 0.85 1.875s0.551 1.3 0.826 2c0.283 0.7 0.57 1.441 0.861 2.225 0.3 0.783 0.612 1.637 0.937 2.563h-1.699c-0.117-0.342-0.238-0.678-0.363-1.012-0.125-0.333-0.245-0.675-0.361-1.025h-3.65c-0.117 0.35-0.238 0.695-0.363 1.037l-0.35 1h-1.637c0.325-0.925 0.632-1.779 0.924-2.563 0.292-0.783 0.575-1.525 0.85-2.225 0.283-0.7 0.563-1.367 0.838-2s0.558-1.258 0.85-1.875zm0.713 1.674c-0.192 0.442-0.412 0.98-0.662 1.613-0.242 0.633-0.495 1.321-0.762 2.063h2.85c-0.267-0.742-0.525-1.433-0.775-2.074-0.25-0.642-0.467-1.177-0.65-1.602zm7.82 0.313c0.1 0 0.216 9e-3 0.35 0.025 0.133 8e-3 0.267 0.026 0.4 0.051 0.133 0.017 0.262 0.041 0.387 0.074 0.125 0.025 0.226 0.051 0.301 0.076l-0.262 1.273c-0.125-0.042-0.3-0.083-0.525-0.125-0.217-0.05-0.472-0.074-0.764-0.074-0.167 0-0.345 0.017-0.537 0.051-0.183 0.033-0.312 0.061-0.387 0.086v5.238h-1.514v-6.225c0.292-0.108 0.655-0.209 1.088-0.301 0.442-0.1 0.93-0.15 1.463-0.15zm3.455 4.844h0.531v4.332h-0.758v-3.318c-0.113 0.087-0.253 0.173-0.424 0.256s-0.336 0.153-0.494 0.207l-0.23-0.576c0.242-0.096 0.483-0.219 0.725-0.369 0.246-0.15 0.463-0.327 0.65-0.531z" fill="#2e3440"/>
</svg>
