<svg viewBox="0 0 22 22" xmlns="http://www.w3.org/2000/svg">
 <path d="m3 1c-1.108 0-2 0.892-2 2v16c0 1.108 0.892 2 2 2h16c1.108 0 2-0.892 2-2v-16c0-1.108-0.892-2-2-2h-16zm6.457 5.637c0.358 0 0.683 0.03 0.975 0.088 0.292 0.05 0.545 0.109 0.762 0.176s0.395 0.138 0.537 0.213 0.242 0.129 0.301 0.162l-0.463 1.287c-0.2-0.125-0.486-0.241-0.861-0.35-0.367-0.117-0.768-0.176-1.201-0.176-0.375 0-0.724 0.068-1.049 0.201-0.325 0.125-0.61 0.316-0.852 0.574-0.233 0.258-0.415 0.583-0.549 0.975-0.133 0.392-0.201 0.847-0.201 1.363 0 0.458 0.05 0.878 0.15 1.262 0.108 0.383 0.272 0.717 0.488 1 0.217 0.275 0.491 0.492 0.824 0.65 0.333 0.15 0.735 0.225 1.201 0.225 0.558 0 1.01-0.054 1.361-0.162 0.35-0.117 0.621-0.224 0.813-0.324l0.426 1.287c-0.1 0.067-0.237 0.133-0.412 0.199-0.167 0.067-0.368 0.135-0.602 0.201-0.233 0.058-0.495 0.103-0.787 0.137-0.292 0.042-0.604 0.063-0.937 0.063-0.65 0-1.233-0.101-1.75-0.301s-0.954-0.492-1.313-0.875c-0.358-0.392-0.633-0.865-0.824-1.424-0.192-0.558-0.287-1.201-0.287-1.926s0.108-1.365 0.324-1.924c0.225-0.558 0.529-1.031 0.912-1.414 0.383-0.392 0.833-0.687 1.35-0.887s1.072-0.301 1.664-0.301zm6.533 2.188c0.1 0 0.216 9e-3 0.35 0.025 0.133 8e-3 0.267 0.026 0.4 0.051 0.133 0.017 0.262 0.041 0.387 0.074 0.125 0.025 0.226 0.051 0.301 0.076l-0.264 1.273c-0.125-0.042-0.3-0.083-0.525-0.125-0.217-0.05-0.47-0.074-0.762-0.074-0.167 0-0.345 0.017-0.537 0.051-0.183 0.033-0.314 0.061-0.389 0.086v5.238h-1.512v-6.225c0.292-0.108 0.655-0.209 1.088-0.301 0.442-0.1 0.93-0.15 1.463-0.15z" fill="#2e3440"/>
</svg>
