<svg viewBox="0 0 22 22" xmlns="http://www.w3.org/2000/svg">
 <path d="m3 1c-1.108 0-2 0.892-2 2v16c0 1.108 0.892 2 2 2h16c1.108 0 2-0.892 2-2v-16c0-1.108-0.892-2-2-2h-16zm11.445 4.551v7.486c0 0.183 0.012 0.338 0.037 0.463 0.033 0.125 0.087 0.233 0.162 0.324 0.075 0.083 0.176 0.151 0.301 0.201 0.133 0.042 0.3 0.075 0.5 0.1l-0.213 1.25c-0.45-8e-3 -0.825-0.059-1.125-0.15-0.292-0.092-0.524-0.22-0.699-0.387-0.175-0.175-0.3-0.389-0.375-0.639-0.067-0.258-0.102-0.55-0.102-0.875v-7.523l1.514-0.25zm-10.666 1.037h1.287c0.333 0.35 0.693 0.767 1.076 1.25 0.383 0.475 0.765 0.97 1.148 1.486 0.392 0.517 0.767 1.038 1.125 1.563 0.367 0.517 0.693 1 0.977 1.451v-5.75h1.562v8.662h-1.338c-0.283-0.475-0.601-0.984-0.951-1.525-0.35-0.55-0.711-1.1-1.086-1.65-0.375-0.558-0.759-1.095-1.15-1.611-0.383-0.525-0.75-0.995-1.1-1.412v6.199h-1.551v-8.662zm13.863 6.83h0.531v4.332h-0.756v-3.318c-0.113 0.087-0.253 0.173-0.424 0.256s-0.336 0.153-0.494 0.207l-0.232-0.576c0.242-0.096 0.485-0.219 0.727-0.369 0.246-0.15 0.461-0.327 0.648-0.531z" fill="#2e3440"/>
</svg>
