<svg viewBox="0 0 22 22" xmlns="http://www.w3.org/2000/svg">
 <path d="m3 1c-1.108 0-2 0.892-2 2v16c0 1.108 0.892 2 2 2h16c1.108 0 2-0.892 2-2v-16c0-1.108-0.892-2-2-2h-16zm3.545 5.838h1.574v8.662h-1.574v-8.662zm6.273 1.986c0.533 0 0.98 0.077 1.338 0.227 0.358 0.142 0.641 0.345 0.85 0.611 0.217 0.258 0.368 0.576 0.451 0.951 0.092 0.367 0.137 0.769 0.137 1.211v3.676h-1.512v-3.438c0-0.35-0.026-0.645-0.076-0.887-0.042-0.25-0.116-0.452-0.225-0.602-0.1-0.158-0.242-0.269-0.426-0.336-0.175-0.075-0.39-0.113-0.648-0.113-0.192 0-0.393 0.012-0.602 0.037-0.208 0.025-0.361 0.046-0.461 0.063v5.275h-1.514v-6.324c0.292-0.083 0.672-0.163 1.139-0.238s0.982-0.113 1.549-0.113z" fill="#2e3440"/>
</svg>
