<svg viewBox="0 0 22 22" xmlns="http://www.w3.org/2000/svg">
 <path d="m3 1c-1.108 0-2 0.892-2 2v16c0 1.108 0.892 2 2 2h16c1.108 0 2-0.892 2-2v-16c0-1.108-0.892-2-2-2h-16zm0.914 5.588h1.574v7.299h3.9v1.363h-5.475v-8.662zm5.252 2.125h1.613c0.092 0.367 0.196 0.763 0.313 1.188 0.125 0.417 0.253 0.837 0.387 1.262 0.142 0.417 0.284 0.825 0.426 1.225 0.15 0.392 0.287 0.746 0.412 1.063 0.125-0.317 0.259-0.671 0.4-1.063 0.142-0.4 0.279-0.808 0.412-1.225 0.142-0.425 0.275-0.845 0.4-1.262 0.125-0.425 0.233-0.821 0.324-1.188h1.563c-0.358 1.275-0.758 2.471-1.199 3.588-0.433 1.108-0.859 2.091-1.275 2.949h-1.299c-0.417-0.858-0.847-1.841-1.289-2.949-0.433-1.117-0.829-2.313-1.188-3.588zm6.736 4.705h2.895v0.576c-0.137 0.154-0.289 0.364-0.451 0.631-0.163 0.267-0.315 0.569-0.461 0.906-0.146 0.333-0.274 0.691-0.383 1.074-0.104 0.383-0.168 0.765-0.193 1.145h-0.775c0.025-0.317 0.082-0.65 0.17-1 0.087-0.35 0.193-0.69 0.318-1.02 0.129-0.333 0.268-0.642 0.418-0.93 0.154-0.292 0.307-0.537 0.457-0.732h-1.994v-0.65z" fill="#2e3440"/>
</svg>
