<svg viewBox="0 0 22 22" xmlns="http://www.w3.org/2000/svg">
 <path d="m3 1c-1.108 0-2 0.892-2 2v16c0 1.108 0.892 2 2 2h16c1.108 0 2-0.892 2-2v-16c0-1.108-0.892-2-2-2h-16zm11.445 5.113c0.25 0 0.467 0.083 0.65 0.25s0.275 0.396 0.275 0.688c0 0.283-0.092 0.507-0.275 0.674s-0.4 0.25-0.65 0.25c-0.258 0-0.479-0.083-0.662-0.25s-0.275-0.39-0.275-0.674c0-0.292 0.092-0.521 0.275-0.688s0.404-0.25 0.662-0.25zm-7.572 0.725h5.477v1.338h-3.9v2.211h3.463v1.338h-3.463v3.775h-1.576v-8.662zm6.822 2.125h1.514v6.537h-1.514v-6.537z" fill="#2e3440"/>
</svg>
