<svg viewBox="0 0 22 22" xmlns="http://www.w3.org/2000/svg">
 <path d="m7 2c-0.554 0-1 0.446-1 1v1h-0.25c-0.97 0-1.75 0.781-1.75 1.75v0.25h-1c-0.554 0-1 0.446-1 1s0.446 1 1 1h1v2h-1c-0.554 0-1 0.446-1 1s0.446 1 1 1h1v2h-1c-0.554 0-1 0.446-1 1s0.446 1 1 1h1v0.25c0 0.97 0.781 1.75 1.75 1.75h0.25v1c0 0.554 0.446 1 1 1s1-0.446 1-1v-1h2v1c0 0.554 0.446 1 1 1s1-0.446 1-1v-1h2v1c0 0.554 0.446 1 1 1s1-0.446 1-1v-1h0.25c0.97 0 1.75-0.781 1.75-1.75v-0.25h1c0.554 0 1-0.446 1-1s-0.446-1-1-1h-1v-2h1c0.554 0 1-0.446 1-1s-0.446-1-1-1h-1v-2h1c0.554 0 1-0.446 1-1s-0.446-1-1-1h-1v-0.25c0-0.97-0.781-1.75-1.75-1.75h-0.25v-1c0-0.554-0.446-1-1-1s-1 0.446-1 1v1h-2v-1c0-0.554-0.446-1-1-1s-1 0.446-1 1v1h-2v-1c0-0.554-0.446-1-1-1zm-0.156 4h8.313c0.462 0 0.844 0.382 0.844 0.844v8.313c0 0.462-0.382 0.844-0.844 0.844h-8.313c-0.462 0-0.844-0.382-0.844-0.844v-8.313c0-0.462 0.382-0.844 0.844-0.844z" fill="#2e3440" fill-rule="evenodd"/>
 <rect x="7" y="7" width="8" height="8" rx=".6" fill="#2e3440" fill-rule="evenodd"/>
</svg>
