<svg viewBox="0 0 22 22" xmlns="http://www.w3.org/2000/svg">
 <path d="m3 1c-1.108 0-2 0.892-2 2v16c0 1.108 0.892 2 2 2h16c1.108 0 2-0.892 2-2v-16c0-1.108-0.892-2-2-2h-16zm9.598 4.863c0.25 0 0.465 0.083 0.648 0.25s0.275 0.396 0.275 0.688c0 0.283-0.092 0.507-0.275 0.674s-0.398 0.25-0.648 0.25c-0.258 0-0.481-0.083-0.664-0.25s-0.273-0.39-0.273-0.674c0-0.292 0.09-0.521 0.273-0.688s0.406-0.25 0.664-0.25zm-4.889 0.523c0.542 0 1.021 0.063 1.438 0.188 0.425 0.117 0.758 0.247 1 0.389l-0.488 1.275c-0.283-0.158-0.596-0.28-0.938-0.363-0.333-0.083-0.679-0.125-1.037-0.125-0.425 0-0.758 0.087-1 0.262-0.233 0.175-0.35 0.422-0.35 0.738 0 0.192 0.036 0.358 0.111 0.5 0.083 0.133 0.196 0.255 0.338 0.363 0.15 0.108 0.322 0.207 0.514 0.299 0.2 0.092 0.415 0.18 0.648 0.264 0.408 0.15 0.771 0.303 1.088 0.461 0.325 0.15 0.596 0.334 0.813 0.551 0.225 0.208 0.397 0.458 0.514 0.75 0.117 0.283 0.174 0.629 0.174 1.037 0 0.783-0.28 1.393-0.838 1.826-0.55 0.425-1.357 0.637-2.424 0.637-0.358 0-0.688-0.024-0.988-0.074-0.292-0.042-0.554-0.097-0.787-0.164-0.225-0.067-0.421-0.133-0.588-0.199-0.167-0.075-0.3-0.141-0.4-0.199l0.463-1.289c0.225 0.125 0.529 0.25 0.912 0.375s0.847 0.188 1.389 0.188c0.567 0 0.978-0.095 1.236-0.287s0.389-0.462 0.389-0.813c0-0.208-0.047-0.387-0.139-0.537-0.083-0.15-0.208-0.284-0.375-0.4-0.158-0.125-0.353-0.238-0.586-0.338-0.233-0.108-0.501-0.212-0.801-0.313-0.3-0.108-0.592-0.225-0.875-0.35-0.275-0.133-0.522-0.295-0.738-0.486-0.208-0.192-0.378-0.421-0.512-0.687-0.125-0.267-0.188-0.588-0.188-0.963 0-0.783 0.271-1.396 0.813-1.838 0.542-0.45 1.28-0.676 2.213-0.676zm4.139 2.326h1.512v6.537h-1.512v-6.537zm4.404 4.705h0.531v4.332h-0.756v-3.318c-0.112 0.087-0.255 0.173-0.426 0.256s-0.336 0.153-0.494 0.207l-0.23-0.576c0.242-0.096 0.483-0.219 0.725-0.369 0.246-0.15 0.463-0.327 0.65-0.531z" fill="#2e3440"/>
</svg>
