<svg viewBox="0 0 22 22" xmlns="http://www.w3.org/2000/svg">
 <path d="m3 1c-1.108 0-2 0.892-2 2v16c0 1.108 0.892 2 2 2h16c1.108 0 2-0.892 2-2v-16c0-1.108-0.892-2-2-2h-16zm-0.479 5.588h1.576v3.463h3.762v-3.463h1.576v8.662h-1.576v-3.838h-3.762v3.838h-1.576v-8.662zm8.06 2.125h1.611c0.083 0.35 0.184 0.728 0.301 1.137 0.125 0.408 0.259 0.825 0.4 1.25 0.142 0.417 0.291 0.833 0.449 1.25s0.316 0.804 0.475 1.162c0.267-0.742 0.517-1.528 0.75-2.361 0.233-0.842 0.447-1.654 0.639-2.438h1.563c-0.675 2.483-1.458 4.733-2.35 6.75-0.167 0.375-0.339 0.696-0.514 0.963s-0.371 0.487-0.588 0.662-0.458 0.3-0.725 0.375c-0.267 0.083-0.574 0.125-0.924 0.125-0.233 0-0.468-0.026-0.701-0.076-0.225-0.05-0.395-0.104-0.512-0.162l0.275-1.213c0.3 0.117 0.595 0.176 0.887 0.176 0.392 0 0.695-0.095 0.912-0.287 0.225-0.183 0.421-0.472 0.588-0.863-0.475-0.917-0.933-1.917-1.375-3-0.433-1.083-0.82-2.233-1.162-3.449zm9.332 4.682 0.043 0.625c-0.225 4e-3 -0.435 0.028-0.631 0.074-0.196 0.042-0.371 0.108-0.525 0.199-0.154 0.092-0.288 0.212-0.4 0.357-0.108 0.146-0.192 0.325-0.25 0.537 0.204-0.096 0.428-0.145 0.67-0.145 0.258 0 0.477 0.038 0.656 0.113 0.183 0.071 0.331 0.168 0.443 0.293 0.113 0.125 0.194 0.271 0.244 0.438 0.054 0.163 0.08 0.335 0.08 0.514 0 0.163-0.03 0.329-0.088 0.5-0.054 0.171-0.141 0.327-0.262 0.469-0.117 0.137-0.264 0.252-0.443 0.344-0.179 0.088-0.393 0.131-0.639 0.131-0.496 0-0.874-0.163-1.137-0.488-0.258-0.329-0.387-0.78-0.387-1.355 0-0.417 0.059-0.785 0.18-1.105 0.125-0.325 0.3-0.599 0.525-0.82 0.229-0.221 0.505-0.387 0.826-0.5 0.325-0.117 0.69-0.176 1.094-0.18zm-1.188 2.25c-0.121 0-0.239 0.01-0.352 0.031s-0.213 0.052-0.305 0.094c-4e-3 0.033-0.01 0.07-0.014 0.111v0.113c0 0.167 0.01 0.325 0.031 0.475 0.025 0.146 0.065 0.274 0.119 0.387 0.058 0.108 0.135 0.197 0.23 0.264 0.1 0.063 0.223 0.094 0.369 0.094 0.121 0 0.223-0.026 0.307-0.076 0.087-0.05 0.159-0.114 0.213-0.193s0.094-0.164 0.119-0.256c0.025-0.096 0.037-0.188 0.037-0.275 0-0.25-0.061-0.439-0.182-0.568-0.121-0.133-0.312-0.199-0.574-0.199z" fill="#2e3440"/>
</svg>
