<svg viewBox="0 0 22 22" xmlns="http://www.w3.org/2000/svg">
 <path d="m1.813 5.065c-0.727 0-1.313 0.588-1.313 1.319v9.232c0 0.731 0.585 1.319 1.313 1.319h18.375c0.727 0 1.313-0.588 1.313-1.319v-9.232c0-0.731-0.585-1.319-1.313-1.319zm2.687 1.935h13c1.293 0 2 0.779 2 2v4c0 1.104-0.998 2-2 2h-13c-0.893 0-2-0.811-2-2v-4c0-0.837 0.676-2 2-2z" fill="#2e3440"/>
 <path d="m4.438 9.02v1.319h1.313v-1.319z" fill="#2e3440"/>
 <path d="m7.06 9.02v1.319h1.313v-1.319z" fill="#2e3440"/>
 <path d="m9.688 9.02v1.319h1.313v-1.319z" fill="#2e3440"/>
 <path d="m12.313 9.02v1.319h1.313v-1.319z" fill="#2e3440"/>
 <path d="m4.438 11.66v1.319h2.672v-1.319z" fill="#2e3440"/>
 <path d="m8.375 11.66v1.319h6.516v-1.319z" fill="#2e3440"/>
 <path d="m14.938 9.02v1.319h1.313v2.638h1.313v-3.957z" fill="#2e3440"/>
</svg>
