<svg viewBox="0 0 22 22" xmlns="http://www.w3.org/2000/svg">
 <path d="m2 4c-0.276 0-0.5 0.224-0.5 0.5v13c0 0.276 0.224 0.5 0.5 0.5h12c0.276 0 0.5-0.224 0.5-0.5v-3.191l5.277 2.639c0.332 0.165 0.722-0.076 0.723-0.447v-11c0-0.371-0.39-0.612-0.723-0.447l-5.277 2.639v-3.191c0-0.276-0.224-0.5-0.5-0.5h-12zm3.373 4h1.254c0.206 0 0.373 0.113 0.373 0.252v5.498c-1e-3 0.139-0.168 0.25-0.373 0.25h-1.254c-0.205 0-0.372-0.111-0.373-0.25v-5.498c0-0.139 0.167-0.252 0.373-0.252zm4 0h1.254c0.206 0 0.373 0.113 0.373 0.252v5.498c-1e-3 0.139-0.168 0.25-0.373 0.25h-1.254c-0.205 0-0.372-0.111-0.373-0.25v-5.498c0-0.139 0.167-0.252 0.373-0.252z" color-rendering="auto" fill="#2e3440" fill-rule="evenodd" image-rendering="auto" shape-rendering="auto" solid-color="#000000" isolation="auto" mix-blend-mode="normal" white-space="normal"/>
</svg>
