<svg width="22" height="22" viewBox="0 0 22 22" xmlns="http://www.w3.org/2000/svg">
 <path d="m15.046875 12.773438c0.445313-0.140626 0.824219-0.257813 0.839844-0.261719 0.019531-0.007813-0.058594-0.121094-1.085938-1.535157-0.609375-0.839843-1.109375-1.53125-1.105469-1.539062 0.003907-0.003906 0.503907-0.652344 1.113282-1.4375 0.769531-0.992188 1.109375-1.433594 1.097656-1.4375-0.019531-0.007812-1.710938-0.398438-1.714844-0.394531-0.128906 0.179687-2.144531 2.871093-2.152344 2.871093-0.003906 0-0.003906-0.070312-0.003906-0.152343 0.003906-0.085938 0.007813-0.746094 0.011719-1.472657l0.007813-1.316406-0.808594 0.078125c-0.441406 0.042969-0.808594 0.078125-0.8125 0.078125s-0.007813 1.511719-0.007813 3.359375v3.355469l0.023438-0.003906c0.011719-0.003906 0.375-0.058594 0.804687-0.121094l0.777344-0.117188v-1.433593c0-1.417969 0-1.4375 0.023438-1.410157 0.007812 0.011719 0.5 0.726563 1.085937 1.585938s1.074219 1.5625 1.078125 1.5625c0.007812 0 0.378906-0.113281 0.828125-0.257812z" fill="rgb(18.039216%, 20.392157%, 25.098041%)"/>
 <path d="m11.648438 15.890625c0.019531-0.015625 0.042968-0.09375 0.253906-0.964844l0.109375-0.445312 0.097656-0.027344c0.191406-0.054687 0.480469-0.179687 0.636719-0.273437l0.054687-0.03125 0.59375 0.390624c0.328125 0.214844 0.605469 0.394532 0.617188 0.398438 0.011719 0.007812 0.035156 0.011719 0.046875 0.007812 0.015625-0.003906 0.179687-0.160156 0.363281-0.347656 0.273437-0.269531 0.339844-0.34375 0.339844-0.367187 0-0.015625-0.054688-0.117188-0.132813-0.25-0.074218-0.125-0.171875-0.285157-0.21875-0.359375-0.042968-0.074219-0.082031-0.136719-0.085937-0.140625-0.003907-0.007813-0.046875 0-0.089844 0.011719-0.066406 0.019531-0.085937 0.023437-0.097656 0.011718-0.011719-0.007812-0.160157-0.222656-0.335938-0.476562l-0.316406-0.464844-0.042969 0.078125c-0.324218 0.605469-0.941406 1.078125-1.628906 1.253906-0.96875 0.25-2.007812-0.089843-2.644531-0.867187-0.496094-0.601563-0.695313-1.386719-0.546875-2.148438 0.152344-0.777344 0.660156-1.453125 1.363281-1.8125l0.121094-0.0625v-0.660156l-0.070313 0.027344c-0.113281 0.039062-0.199218 0.078125-0.300781 0.128906-0.050781 0.023438-0.101563 0.042969-0.109375 0.039062-0.007812 0-0.289062-0.183593-0.621094-0.402343-0.488281-0.320313-0.613281-0.398438-0.644531-0.398438s-0.066406 0.03125-0.375 0.339844-0.335937 0.339844-0.335937 0.371094c0 0.027343 0.085937 0.183593 0.375 0.65625 0.207031 0.339843 0.378906 0.621093 0.378906 0.625 0 0.007812-0.03125 0.0625-0.0625 0.125-0.074219 0.136719-0.152344 0.308593-0.207032 0.472656-0.023437 0.0625-0.046874 0.121094-0.050781 0.125-0.003906 0.003906-0.316406 0.070313-0.699219 0.148437-0.457031 0.097657-0.695312 0.148438-0.710937 0.160157-0.023437 0.019531-0.023437 0.027343-0.023437 0.503906l-0.003907 0.480469 0.023438 0.027344c0.023437 0.023437 0.09375 0.042968 0.695312 0.191406 0.367188 0.085937 0.671875 0.164062 0.675781 0.167968 0.003907 0.003907 0.023438 0.058594 0.039063 0.121094 0.050781 0.175782 0.125 0.363282 0.210937 0.542969 0.042969 0.089844 0.078126 0.171875 0.074219 0.179687 0 0.007813-0.171875 0.269532-0.378906 0.585938s-0.382813 0.589844-0.390625 0.605469c-0.007812 0.023437-0.007812 0.039062 0.003906 0.058593 0.007813 0.011719 0.160156 0.171876 0.339844 0.351563 0.296875 0.292969 0.335938 0.328125 0.363281 0.328125 0.027344 0 0.175781-0.085938 0.636719-0.363281 0.332031-0.203125 0.609375-0.367188 0.617188-0.371094 0.007812-0.003906 0.085937 0.03125 0.171874 0.074219 0.160157 0.082031 0.339844 0.15625 0.511719 0.207031l0.09375 0.03125 0.136719 0.652344c0.074219 0.359375 0.140625 0.667969 0.144531 0.6875 0.003907 0.019531 0.015625 0.046875 0.027344 0.058593 0.019531 0.019532 0.039063 0.019532 0.503906 0.019532 0.378907 0 0.492188-0.003906 0.503907-0.011719z" fill="rgb(18.039216%, 20.392157%, 25.098041%)"/>
 <path d="m5.988281 0.976562c-0.695312 0-1.253906 0.558594-1.253906 1.253907v17.539062c0 0.695313 0.558594 1.253907 1.253906 1.253907h10.023438c0.695312 0 1.253906-0.558594 1.253906-1.253907v-17.539062c0-0.695313-0.558594-1.253907-1.253906-1.253907zm0.691407 1.253907h1.1875l0.628906 0.871093c0.121094 0.171876 0.167968 0.378907 0.378906 0.378907h4.25c0.210938 0 0.257812-0.207031 0.382812-0.378907l0.625-0.871093h1.1875c0.382813 0 0.691407 0.304687 0.691407 0.6875v16.164062c0 0.382813-0.308594 0.6875-0.691407 0.6875h-8.640624c-0.382813 0-0.691407-0.304687-0.691407-0.6875v-16.164062c0-0.382813 0.308594-0.6875 0.691407-0.6875z" fill="rgb(18.039216%, 20.392157%, 25.098041%)" fill-rule="evenodd"/>
 <path d="m8.757812 18.519531h4.484376c0.148437 0 0.265624 0.117188 0.265624 0.261719s-0.117187 0.261719-0.265624 0.261719h-4.484376c-0.144531 0-0.265624-0.117188-0.265624-0.261719s0.121093-0.261719 0.265624-0.261719z" fill="rgb(18.039216%, 20.392157%, 25.098041%)" fill-rule="evenodd"/>
</svg>
