
<svg xmlns="http://www.w3.org/2000/svg" xmlns:xlink="http://www.w3.org/1999/xlink" width="22" height="22" viewBox="0 0 22 22">
<path fill-rule="nonzero" fill="rgb(18.039216%, 20.392157%, 25.098041%)" fill-opacity="1" d="M 15.046875 12.773438 C 15.492188 12.632812 15.871094 12.515625 15.886719 12.511719 C 15.90625 12.503906 15.828125 12.390625 14.800781 10.976562 C 14.191406 10.136719 13.691406 9.445312 13.695312 9.4375 C 13.699219 9.433594 14.199219 8.785156 14.808594 8 C 15.578125 7.007812 15.917969 6.566406 15.90625 6.5625 C 15.886719 6.554688 14.195312 6.164062 14.191406 6.167969 C 14.0625 6.347656 12.046875 9.039062 12.039062 9.039062 C 12.035156 9.039062 12.035156 8.96875 12.035156 8.886719 C 12.039062 8.800781 12.042969 8.140625 12.046875 7.414062 L 12.054688 6.097656 L 11.246094 6.175781 C 10.804688 6.21875 10.4375 6.253906 10.433594 6.253906 C 10.429688 6.253906 10.425781 7.765625 10.425781 9.613281 L 10.425781 12.96875 L 10.449219 12.964844 C 10.460938 12.960938 10.824219 12.90625 11.253906 12.84375 L 12.03125 12.726562 L 12.03125 11.292969 C 12.03125 9.875 12.03125 9.855469 12.054688 9.882812 C 12.0625 9.894531 12.554688 10.609375 13.140625 11.46875 C 13.726562 12.328125 14.214844 13.03125 14.21875 13.03125 C 14.226562 13.03125 14.597656 12.917969 15.046875 12.773438 Z M 15.046875 12.773438 "/>
<path fill-rule="nonzero" fill="rgb(18.039216%, 20.392157%, 25.098041%)" fill-opacity="1" d="M 11.648438 15.890625 C 11.667969 15.875 11.691406 15.796875 11.902344 14.925781 L 12.011719 14.480469 L 12.109375 14.453125 C 12.300781 14.398438 12.589844 14.273438 12.746094 14.179688 L 12.800781 14.148438 L 13.394531 14.539062 C 13.722656 14.753906 14 14.933594 14.011719 14.9375 C 14.023438 14.945312 14.046875 14.949219 14.058594 14.945312 C 14.074219 14.941406 14.238281 14.785156 14.421875 14.597656 C 14.695312 14.328125 14.761719 14.253906 14.761719 14.230469 C 14.761719 14.214844 14.707031 14.113281 14.628906 13.980469 C 14.554688 13.855469 14.457031 13.695312 14.410156 13.621094 C 14.367188 13.546875 14.328125 13.484375 14.324219 13.480469 C 14.320312 13.472656 14.277344 13.480469 14.234375 13.492188 C 14.167969 13.511719 14.148438 13.515625 14.136719 13.503906 C 14.125 13.496094 13.976562 13.28125 13.800781 13.027344 L 13.484375 12.5625 L 13.441406 12.640625 C 13.117188 13.246094 12.5 13.71875 11.8125 13.894531 C 10.84375 14.144531 9.804688 13.804688 9.167969 13.027344 C 8.671875 12.425781 8.472656 11.640625 8.621094 10.878906 C 8.773438 10.101562 9.28125 9.425781 9.984375 9.066406 L 10.105469 9.003906 L 10.105469 8.34375 L 10.035156 8.371094 C 9.921875 8.410156 9.835938 8.449219 9.734375 8.5 C 9.683594 8.523438 9.632812 8.542969 9.625 8.539062 C 9.617188 8.539062 9.335938 8.355469 9.003906 8.136719 C 8.515625 7.816406 8.390625 7.738281 8.359375 7.738281 C 8.328125 7.738281 8.292969 7.769531 7.984375 8.078125 C 7.675781 8.386719 7.648438 8.417969 7.648438 8.449219 C 7.648438 8.476562 7.734375 8.632812 8.023438 9.105469 C 8.230469 9.445312 8.402344 9.726562 8.402344 9.730469 C 8.402344 9.738281 8.371094 9.792969 8.339844 9.855469 C 8.265625 9.992188 8.1875 10.164062 8.132812 10.328125 C 8.109375 10.390625 8.085938 10.449219 8.082031 10.453125 C 8.078125 10.457031 7.765625 10.523438 7.382812 10.601562 C 6.925781 10.699219 6.6875 10.75 6.671875 10.761719 C 6.648438 10.78125 6.648438 10.789062 6.648438 11.265625 L 6.644531 11.746094 L 6.667969 11.773438 C 6.691406 11.796875 6.761719 11.816406 7.363281 11.964844 C 7.730469 12.050781 8.035156 12.128906 8.039062 12.132812 C 8.042969 12.136719 8.0625 12.191406 8.078125 12.253906 C 8.128906 12.429688 8.203125 12.617188 8.289062 12.796875 C 8.332031 12.886719 8.367188 12.96875 8.363281 12.976562 C 8.363281 12.984375 8.191406 13.246094 7.984375 13.5625 C 7.777344 13.878906 7.601562 14.152344 7.59375 14.167969 C 7.585938 14.191406 7.585938 14.207031 7.597656 14.226562 C 7.605469 14.238281 7.757812 14.398438 7.9375 14.578125 C 8.234375 14.871094 8.273438 14.90625 8.300781 14.90625 C 8.328125 14.90625 8.476562 14.820312 8.9375 14.542969 C 9.269531 14.339844 9.546875 14.175781 9.554688 14.171875 C 9.5625 14.167969 9.640625 14.203125 9.726562 14.246094 C 9.886719 14.328125 10.066406 14.402344 10.238281 14.453125 L 10.332031 14.484375 L 10.46875 15.136719 C 10.542969 15.496094 10.609375 15.804688 10.613281 15.824219 C 10.617188 15.84375 10.628906 15.871094 10.640625 15.882812 C 10.660156 15.902344 10.679688 15.902344 11.144531 15.902344 C 11.523438 15.902344 11.636719 15.898438 11.648438 15.890625 Z M 11.648438 15.890625 "/>
<path fill-rule="evenodd" fill="rgb(18.039216%, 20.392157%, 25.098041%)" fill-opacity="1" d="M 5.988281 0.976562 C 5.292969 0.976562 4.734375 1.535156 4.734375 2.230469 L 4.734375 19.769531 C 4.734375 20.464844 5.292969 21.023438 5.988281 21.023438 L 16.011719 21.023438 C 16.707031 21.023438 17.265625 20.464844 17.265625 19.769531 L 17.265625 2.230469 C 17.265625 1.535156 16.707031 0.976562 16.011719 0.976562 Z M 6.679688 2.230469 L 7.867188 2.230469 L 8.496094 3.101562 C 8.617188 3.273438 8.664062 3.480469 8.875 3.480469 L 13.125 3.480469 C 13.335938 3.480469 13.382812 3.273438 13.507812 3.101562 L 14.132812 2.230469 L 15.320312 2.230469 C 15.703125 2.230469 16.011719 2.535156 16.011719 2.917969 L 16.011719 19.082031 C 16.011719 19.464844 15.703125 19.769531 15.320312 19.769531 L 6.679688 19.769531 C 6.296875 19.769531 5.988281 19.464844 5.988281 19.082031 L 5.988281 2.917969 C 5.988281 2.535156 6.296875 2.230469 6.679688 2.230469 Z M 6.679688 2.230469 "/>
<path fill-rule="evenodd" fill="rgb(18.039216%, 20.392157%, 25.098041%)" fill-opacity="1" d="M 8.757812 18.519531 L 13.242188 18.519531 C 13.390625 18.519531 13.507812 18.636719 13.507812 18.78125 C 13.507812 18.925781 13.390625 19.042969 13.242188 19.042969 L 8.757812 19.042969 C 8.613281 19.042969 8.492188 18.925781 8.492188 18.78125 C 8.492188 18.636719 8.613281 18.519531 8.757812 18.519531 Z M 8.757812 18.519531 "/>
</svg>
