<svg width="22" height="22" viewBox="0 0 22 22" xmlns="http://www.w3.org/2000/svg">
 <path d="m20.148438 20.640625v-1.195313l-18.296876-0.023437v1.1875c0 0.648437 0.015626 1.199219 0.03125 1.214844 0.019532 0.019531 4.136719 0.027343 9.148438 0.023437l9.117188-0.011718zm-10.550782-2.875v-1.21875h-7.746094v2.4375h7.746094zm10.550782 0v-1.195313l-7.578126-0.023437v2.4375l7.578126-0.023437zm-10.558594-2.863281 0.011718-1.230469-7.726562 0.023437-0.011719 1.167969c-0.007812 0.644531-0.003906 1.199219 0.011719 1.230469 0.019531 0.050781 0.785156 0.0625 3.859375 0.050781l3.839844-0.011719zm10.558594 0.011718v-1.21875l-7.578126-0.023437v1.210937c0 0.664063 0.015626 1.222657 0.035157 1.242188 0.015625 0.019531 1.722656 0.027344 3.785156 0.019531l3.757813-0.011719zm0-2.875v-1.21875h-18.273438l-0.011719 1.167969c-0.007812 0.644531-0.003906 1.199219 0.011719 1.230469 0.019531 0.050781 1.796875 0.0625 9.148438 0.050781l9.125-0.011719zm-13.910157-3.121093c0-1.609375 0.03125-1.914063 0.273438-2.578125 0.546875-1.480469 1.777343-2.589844 3.355469-3.023438 0.488281-0.136718 1.800781-0.136718 2.289062 0 1.351562 0.371094 2.457031 1.238282 3.089844 2.421875 0.460937 0.867188 0.539062 1.296875 0.574218 3.148438l0.027344 1.519531h3.019532l-0.023438-1.742188c-0.019531-1.554687-0.03125-1.792968-0.125-2.222656-0.351562-1.601562-1.03125-2.882812-2.109375-3.976562-1.136719-1.152344-2.429687-1.847656-4.085937-2.203125-0.4375-0.09375-0.660157-0.109375-1.511719-0.109375-1.070313 0-1.554688 0.066406-2.390625 0.335937-2.394532 0.773438-4.269532 2.625-5.070313 5.007813-0.320312 0.957031-0.34375 1.164062-0.371093 3.121094l-0.023438 1.789062h3.082031z" fill="rgb(18.039216%, 20.392157%, 25.098041%)"/>
</svg>
