<svg width="22" height="22" viewBox="0 0 45.833 45.833" xmlns="http://www.w3.org/2000/svg">
 <path transform="scale(2.0833)" d="m14 2c-3.314 0-6 2.686-6 6 2e-3 0.85 0.184 1.69 0.535 2.465l-0.535 0.535-3-3h-3v3l3 3-3 3v3h3l3-3 3 3h3v-3l-3-3 0.537-0.537c0.774 0.351 1.613 0.534 2.463 0.537 3.314 0 6-2.686 6-6s-2.686-6-6-6zm1.5 3c0.828 0 1.5 0.672 1.5 1.5s-0.672 1.5-1.5 1.5-1.5-0.672-1.5-1.5 0.672-1.5 1.5-1.5z" fill="#2e3440"/>
 <path d="m37.5 27.08c-2.308 0-4.167 1.898-4.167 4.231v2.02c-1.154 0-2.083 0.929-2.083 2.083v6.25c0 1.154 0.929 2.083 2.083 2.083h8.333c1.154 0 2.083-0.929 2.083-2.083v-6.25c0-1.154-0.929-2.083-2.083-2.083v-2.02c0-2.333-1.858-4.231-4.167-4.231zm0 2.083c1.154 0 2.083 0.921 2.083 2.083v2.083h-4.167v-2.083c0-1.163 0.929-2.083 2.083-2.083z" fill="#2e3440"/>
</svg>
