
<svg xmlns="http://www.w3.org/2000/svg" xmlns:xlink="http://www.w3.org/1999/xlink" width="22" height="22" viewBox="0 0 22 22">
<path fill-rule="nonzero" fill="rgb(18.039216%, 20.392157%, 25.098041%)" fill-opacity="1" d="M 20.148438 20.640625 L 20.148438 19.445312 L 1.851562 19.421875 L 1.851562 20.609375 C 1.851562 21.257812 1.867188 21.808594 1.882812 21.824219 C 1.902344 21.84375 6.019531 21.851562 11.03125 21.847656 L 20.148438 21.835938 Z M 9.597656 17.765625 L 9.597656 16.546875 L 1.851562 16.546875 L 1.851562 18.984375 L 9.597656 18.984375 Z M 20.148438 17.765625 L 20.148438 16.570312 L 12.570312 16.546875 L 12.570312 18.984375 L 20.148438 18.960938 Z M 9.589844 14.902344 L 9.601562 13.671875 L 1.875 13.695312 L 1.863281 14.863281 C 1.855469 15.507812 1.859375 16.0625 1.875 16.09375 C 1.894531 16.144531 2.660156 16.15625 5.734375 16.144531 L 9.574219 16.132812 Z M 20.148438 14.914062 L 20.148438 13.695312 L 12.570312 13.671875 L 12.570312 14.882812 C 12.570312 15.546875 12.585938 16.105469 12.605469 16.125 C 12.621094 16.144531 14.328125 16.152344 16.390625 16.144531 L 20.148438 16.132812 Z M 20.148438 12.039062 L 20.148438 10.820312 L 1.875 10.820312 L 1.863281 11.988281 C 1.855469 12.632812 1.859375 13.1875 1.875 13.21875 C 1.894531 13.269531 3.671875 13.28125 11.023438 13.269531 L 20.148438 13.257812 Z M 6.238281 8.917969 C 6.238281 7.308594 6.269531 7.003906 6.511719 6.339844 C 7.058594 4.859375 8.289062 3.75 9.867188 3.316406 C 10.355469 3.179688 11.667969 3.179688 12.15625 3.316406 C 13.507812 3.6875 14.613281 4.554688 15.246094 5.738281 C 15.707031 6.605469 15.785156 7.035156 15.820312 8.886719 L 15.847656 10.40625 L 18.867188 10.40625 L 18.84375 8.664062 C 18.824219 7.109375 18.8125 6.871094 18.71875 6.441406 C 18.367188 4.839844 17.6875 3.558594 16.609375 2.464844 C 15.472656 1.3125 14.179688 0.617188 12.523438 0.261719 C 12.085938 0.167969 11.863281 0.152344 11.011719 0.152344 C 9.941406 0.152344 9.457031 0.21875 8.621094 0.488281 C 6.226562 1.261719 4.351562 3.113281 3.550781 5.496094 C 3.230469 6.453125 3.207031 6.660156 3.179688 8.617188 L 3.15625 10.40625 L 6.238281 10.40625 Z M 6.238281 8.917969 "/>
</svg>
