<svg viewBox="0 0 14 22" xmlns="http://www.w3.org/2000/svg">
 <path d="m7.03 2c-2.323-0.02-4.509 1.735-4.938 3.938s0.734 4.268 2.906 5.063v6c0 2 1.13 3.02 2 3 0.87-0.017 2-1 2-3l2-1-3-1 3-2-2-1v-1c2.187-0.758 3.327-2.759 2.938-4.969-0.389-2.209-2.583-4.01-4.906-4.03zm0 2.969c0.585 0 1.031 0.447 1.031 1.031 0 0.585-0.447 1.031-1.031 1.031-0.585 0-1.031-0.447-1.031-1.031 0-0.585 0.447-1.031 1.031-1.031zm0 1c0.022 0-0.031 0.053-0.031 0.031s0.053 0.031 0.031 0.031 0.031-0.053 0.031-0.031-0.053-0.031-0.031-0.031z" fill="#bf616a"/>
</svg>
