<svg width="22px" height="22px" version="1.1" viewBox="0 0 22 22" xmlns="http://www.w3.org/2000/svg">
 <path d="m3.9102 15.508c-1.418 0-2.5742 1.1562-2.5742 2.5664 0 1.418 1.1562 2.5625 2.5742 2.5625 1.4258 0 2.5781-1.1445 2.5781-2.5625 0-1.4102-1.1523-2.5664-2.5781-2.5664zm-2.5703-7.6055v3.7031c2.4141 0 4.6797 0.94531 6.3867 2.6523 1.707 1.707 2.6484 3.9844 2.6484 6.4062h3.7188c0-7.0352-5.7227-12.762-12.754-12.762zm0.003906-6.5664v3.707c8.6016 0 15.605 7.0078 15.605 15.617h3.7148c0-10.652-8.668-19.324-19.32-19.324z" fill="#2e3440"/>
 <path d="m20.668 15.41c0 2.8867-1.9844 5.2266-4.4297 5.2266s-4.4297-2.3398-4.4297-5.2266c0-2.8867 1.9844-5.2305 4.4297-5.2305s4.4297 2.3438 4.4297 5.2305z" fill="#81a1c1"/>
</svg>
