<svg width="22" height="22" viewBox="0 0 6.2089 6.2089" xmlns="http://www.w3.org/2000/svg">
 <path transform="scale(.28222)" d="m11 3c-4.418 0-8 3.582-8 8 0 1.606 0.478 3.098 1.293 4.352l2.648-5.303 0.059-0.123v-0.082l-0.834-0.48 0.498-0.865c0.101-0.175 0.216-0.339 0.336-0.498 0.976-1.299 2.536-2.061 4.184-2 1.28 0.047 2.257 0.894 3.135 1.771l3.387-1.125c-1.427-2.193-3.894-3.646-6.705-3.646zm6.707 3.648-2.707 5.428v0.08l0.834 0.48-0.498 0.865c-0.101 0.175-0.216 0.339-0.336 0.498-0.976 1.299-2.536 2.061-4.184 2-1.28-0.047-2.257-0.894-3.135-1.771l-3.385 1.127c1.427 2.192 3.893 3.645 6.703 3.645 4.418 0 8-3.582 8-8 0-1.606-0.478-3.098-1.293-4.352z" fill="#2e3440"/>
 <g transform="matrix(.28222 0 0 .28222 -4.9598 .24694)">
  <path d="m28.721 6.125c1.309 0.048 2.5 0.737 3.203 1.818l1.389-0.463-1.572 3.146-3.145-1.574 1.277-0.426c-0.338-0.294-0.761-0.485-1.227-0.502-0.742-0.027-1.435 0.355-1.807 0.998l-1.732-1c0.74-1.282 2.134-2.053 3.613-1.998zm-3.313 3.498 3.145 1.574-1.277 0.426c0.338 0.294 0.761 0.485 1.227 0.502 0.742 0.027 1.435-0.355 1.807-0.998l1.732 1c-0.74 1.282-2.134 2.053-3.613 1.998-1.309-0.048-2.5-0.737-3.203-1.818l-1.389 0.463z" fill="#2e3440"/>
 </g>
</svg>
