<svg viewBox="0 0 22 22" xmlns="http://www.w3.org/2000/svg">
 <g transform="translate(-177 -527.36)" fill="#2e3440">
  <path d="m194 546.36h-12l6-6z"/>
  <path transform="scale(-1)" d="m-186.59-539.36a2 2 0 0 1 0.434 2.18 2 2 0 0 1-1.848 1.235 2 2 0 0 1-1.848-1.235 2 2 0 0 1 0.434-2.18l1.414 1.414z"/>
  <path d="m192.24 542.1c1.714-1.714 2.228-4.3 1.301-6.539-0.928-2.239-3.119-3.703-5.543-3.703s-4.615 1.464-5.543 3.703-0.413 4.825 1.301 6.539l1.414-1.414c-1.146-1.146-1.487-2.862-0.867-4.359s2.075-2.469 3.695-2.469c1.621 0 3.075 0.971 3.695 2.469 0.62 1.497 0.279 3.213-0.867 4.359l1.414 1.414z" color-rendering="auto" image-rendering="auto" shape-rendering="auto" solid-color="#000000" isolation="auto" mix-blend-mode="normal" white-space="normal"/>
 </g>
</svg>
