<svg viewBox="0 0 22 22" xmlns="http://www.w3.org/2000/svg">
 <text x="877.23" y="-14.687" fill="#2e3440" font-family="Bitstream Vera Sans" font-size="12.666" opacity=".4"><tspan x="877.23" y="-14.687"/></text>
 <text x="901.19" y="-55.43" fill="#2e3440" font-family="Bitstream Vera Sans" font-size="12.666" opacity=".4"><tspan x="901.19" y="-55.43"/></text>
 <text x="-569.37" y="-85.51" fill="#2e3440" font-family="Bitstream Vera Sans" font-size="12.666" opacity=".4"><tspan x="-569.37" y="-85.51"/></text>
 <text x="-2393.06" y="660.05" fill="#2e3440" font-family="Bitstream Vera Sans" font-size="12.666" opacity=".4"><tspan x="-2393.06" y="660.05"/></text>
 <text x="-454.88" y="-470.83" fill="#2e3440" font-family="Bitstream Vera Sans" font-size="12.666" opacity=".4"><tspan x="-454.88" y="-470.83"/></text>
 <text x="352.72" y="-884.3" fill="#2e3440" font-family="Bitstream Vera Sans" font-size="12.666" opacity=".4"><tspan x="352.72" y="-884.3"/></text>
 <text x="376.68" y="-925.04" fill="#2e3440" font-family="Bitstream Vera Sans" font-size="12.666" opacity=".4"><tspan x="376.68" y="-925.04"/></text>
 <text x="-1114.78" y="-932.25" fill="#2e3440" font-family="Bitstream Vera Sans" font-size="12.666" opacity=".4"><tspan x="-1114.78" y="-932.25"/></text>
 <text x="345.76" y="-1205.48" fill="#2e3440" font-family="Bitstream Vera Sans" font-size="12.666" opacity=".4"><tspan x="345.76" y="-1205.48"/></text>
 <text x="1831.89" y="-578.79" fill="#2e3440" font-family="Bitstream Vera Sans" font-size="12.666" opacity=".4"><tspan x="1831.89" y="-578.79"/></text>
 <text x="1855.85" y="-619.53" fill="#2e3440" font-family="Bitstream Vera Sans" font-size="12.666" opacity=".4"><tspan x="1855.85" y="-619.53"/></text>
 <text x="364.38" y="-626.74" fill="#2e3440" font-family="Bitstream Vera Sans" font-size="12.666" opacity=".4"><tspan x="364.38" y="-626.74"/></text>
 <text x="1824.93" y="-899.98" fill="#2e3440" font-family="Bitstream Vera Sans" font-size="12.666" opacity=".4"><tspan x="1824.93" y="-899.98"/></text>
 <text x="-573.43" y="-674.84" fill="#2e3440" font-family="Bitstream Vera Sans" font-size="12.666" opacity=".4"><tspan x="-573.43" y="-674.84"/></text>
 <text x="-2397.12" y="70.72" fill="#2e3440" font-family="Bitstream Vera Sans" font-size="12.666" opacity=".4"><tspan x="-2397.12" y="70.72"/></text>
 <text x="-682.36" y="163.59" fill="#2e3440" font-family="Bitstream Vera Sans" font-size="12.666" opacity=".4"><tspan x="-682.36" y="163.59"/></text>
 <text x="426.66" y="-15.592" fill="#2e3440" font-family="Bitstream Vera Sans" font-size="12.666" opacity=".4"><tspan x="426.66" y="-15.592"/></text>
 <text x="450.62" y="-56.33" fill="#2e3440" font-family="Bitstream Vera Sans" font-size="12.666" opacity=".4"><tspan x="450.62" y="-56.33"/></text>
 <text x="-1040.84" y="-63.54" fill="#2e3440" font-family="Bitstream Vera Sans" font-size="12.666" opacity=".4"><tspan x="-1040.84" y="-63.54"/></text>
 <text x="419.7" y="-336.78" fill="#2e3440" font-family="Bitstream Vera Sans" font-size="12.666" opacity=".4"><tspan x="419.7" y="-336.78"/></text>
 <text x="-608.03" y="-66.26" fill="#2e3440" font-family="Bitstream Vera Sans" font-size="12.666" opacity=".4"><tspan x="-608.03" y="-66.26"/></text>
 <text x="-2431.72" y="679.3" fill="#2e3440" font-family="Bitstream Vera Sans" font-size="12.666" opacity=".4"><tspan x="-2431.72" y="679.3"/></text>
 <text x="-456.94" y="-927.79" fill="#2e3440" font-family="Bitstream Vera Sans" font-size="12.666" opacity=".4"><tspan x="-456.94" y="-927.79"/></text>
 <text x="350.66" y="-1341.26" fill="#2e3440" font-family="Bitstream Vera Sans" font-size="12.666" opacity=".4"><tspan x="350.66" y="-1341.26"/></text>
 <text x="374.62" y="-1382" fill="#2e3440" font-family="Bitstream Vera Sans" font-size="12.666" opacity=".4"><tspan x="374.62" y="-1382"/></text>
 <text x="-1116.84" y="-1389.21" fill="#2e3440" font-family="Bitstream Vera Sans" font-size="12.666" opacity=".4"><tspan x="-1116.84" y="-1389.21"/></text>
 <text x="343.7" y="-1662.44" fill="#2e3440" font-family="Bitstream Vera Sans" font-size="12.666" opacity=".4"><tspan x="343.7" y="-1662.44"/></text>
 <text x="1829.83" y="-1035.75" fill="#2e3440" font-family="Bitstream Vera Sans" font-size="12.666" opacity=".4"><tspan x="1829.83" y="-1035.75"/></text>
 <text x="1853.79" y="-1076.49" fill="#2e3440" font-family="Bitstream Vera Sans" font-size="12.666" opacity=".4"><tspan x="1853.79" y="-1076.49"/></text>
 <text x="362.32" y="-1083.7" fill="#2e3440" font-family="Bitstream Vera Sans" font-size="12.666" opacity=".4"><tspan x="362.32" y="-1083.7"/></text>
 <text x="1822.87" y="-1356.94" fill="#2e3440" font-family="Bitstream Vera Sans" font-size="12.666" opacity=".4"><tspan x="1822.87" y="-1356.94"/></text>
 <text x="-575.49" y="-1131.8" fill="#2e3440" font-family="Bitstream Vera Sans" font-size="12.666" opacity=".4"><tspan x="-575.49" y="-1131.8"/></text>
 <text x="-2399.18" y="-386.24" fill="#2e3440" font-family="Bitstream Vera Sans" font-size="12.666" opacity=".4"><tspan x="-2399.18" y="-386.24"/></text>
 <text x="-684.42" y="-293.37" fill="#2e3440" font-family="Bitstream Vera Sans" font-size="12.666" opacity=".4"><tspan x="-684.42" y="-293.37"/></text>
 <text x="155.59" y="-52.46" fill="#2e3440" font-family="Bitstream Vera Sans" font-size="12.666" opacity=".4"><tspan x="155.59" y="-52.46"/></text>
 <text x="179.55" y="-93.2" fill="#2e3440" font-family="Bitstream Vera Sans" font-size="12.666" opacity=".4"><tspan x="179.55" y="-93.2"/></text>
 <text x="-1090.26" y="-287.23" fill="#2e3440" font-family="Bitstream Vera Sans" font-size="12.666" opacity=".4"><tspan x="-1090.26" y="-287.23"/></text>
 <text x="-282.66" y="-700.7" fill="#2e3440" font-family="Bitstream Vera Sans" font-size="12.666" opacity=".4"><tspan x="-282.66" y="-700.7"/></text>
 <text x="-258.7" y="-741.44" fill="#2e3440" font-family="Bitstream Vera Sans" font-size="12.666" opacity=".4"><tspan x="-258.7" y="-741.44"/></text>
 <text x="-1750.16" y="-748.65" fill="#2e3440" font-family="Bitstream Vera Sans" font-size="12.666" opacity=".4"><tspan x="-1750.16" y="-748.65"/></text>
 <text x="-289.62" y="-1021.88" fill="#2e3440" font-family="Bitstream Vera Sans" font-size="12.666" opacity=".4"><tspan x="-289.62" y="-1021.88"/></text>
 <text x="1196.5" y="-395.19" fill="#2e3440" font-family="Bitstream Vera Sans" font-size="12.666" opacity=".4"><tspan x="1196.5" y="-395.19"/></text>
 <text x="1220.46" y="-435.93" fill="#2e3440" font-family="Bitstream Vera Sans" font-size="12.666" opacity=".4"><tspan x="1220.46" y="-435.93"/></text>
 <text x="-271" y="-443.14" fill="#2e3440" font-family="Bitstream Vera Sans" font-size="12.666" opacity=".4"><tspan x="-271" y="-443.14"/></text>
 <text x="1189.54" y="-716.38" fill="#2e3440" font-family="Bitstream Vera Sans" font-size="12.666" opacity=".4"><tspan x="1189.54" y="-716.38"/></text>
 <text x="-1208.82" y="-491.23" fill="#2e3440" font-family="Bitstream Vera Sans" font-size="12.666" opacity=".4"><tspan x="-1208.82" y="-491.23"/></text>
 <text x="-3032.5" y="254.32" fill="#2e3440" font-family="Bitstream Vera Sans" font-size="12.666" opacity=".4"><tspan x="-3032.5" y="254.32"/></text>
 <g transform="matrix(.90475 0 0 .90475 -716.75 -701.79)" fill="#2e3440" opacity=".4">
  <text x="-664.27" y="1159.42" font-family="Bitstream Vera Sans" font-size="14" opacity=".8"><tspan x="-664.27" y="1159.42"/></text>
 </g>
 <text x="877.23" y="-7.449" fill="#2e3440" font-family="Bitstream Vera Sans" font-size="12.666" opacity=".4"><tspan x="877.23" y="-7.449"/></text>
 <text x="901.19" y="-48.19" fill="#2e3440" font-family="Bitstream Vera Sans" font-size="12.666" opacity=".4"><tspan x="901.19" y="-48.19"/></text>
 <text x="-569.37" y="-78.27" fill="#2e3440" font-family="Bitstream Vera Sans" font-size="12.666" opacity=".4"><tspan x="-569.37" y="-78.27"/></text>
 <text x="-2393.06" y="667.28" fill="#2e3440" font-family="Bitstream Vera Sans" font-size="12.666" opacity=".4"><tspan x="-2393.06" y="667.28"/></text>
 <text x="-454.88" y="-463.59" fill="#2e3440" font-family="Bitstream Vera Sans" font-size="12.666" opacity=".4"><tspan x="-454.88" y="-463.59"/></text>
 <text x="352.72" y="-877.06" fill="#2e3440" font-family="Bitstream Vera Sans" font-size="12.666" opacity=".4"><tspan x="352.72" y="-877.06"/></text>
 <text x="376.68" y="-917.8" fill="#2e3440" font-family="Bitstream Vera Sans" font-size="12.666" opacity=".4"><tspan x="376.68" y="-917.8"/></text>
 <text x="-1114.78" y="-925.01" fill="#2e3440" font-family="Bitstream Vera Sans" font-size="12.666" opacity=".4"><tspan x="-1114.78" y="-925.01"/></text>
 <text x="345.76" y="-1198.25" fill="#2e3440" font-family="Bitstream Vera Sans" font-size="12.666" opacity=".4"><tspan x="345.76" y="-1198.25"/></text>
 <text x="1831.89" y="-571.55" fill="#2e3440" font-family="Bitstream Vera Sans" font-size="12.666" opacity=".4"><tspan x="1831.89" y="-571.55"/></text>
 <text x="1855.85" y="-612.3" fill="#2e3440" font-family="Bitstream Vera Sans" font-size="12.666" opacity=".4"><tspan x="1855.85" y="-612.3"/></text>
 <text x="364.38" y="-619.51" fill="#2e3440" font-family="Bitstream Vera Sans" font-size="12.666" opacity=".4"><tspan x="364.38" y="-619.51"/></text>
 <text x="1824.93" y="-892.74" fill="#2e3440" font-family="Bitstream Vera Sans" font-size="12.666" opacity=".4"><tspan x="1824.93" y="-892.74"/></text>
 <text x="-573.43" y="-667.6" fill="#2e3440" font-family="Bitstream Vera Sans" font-size="12.666" opacity=".4"><tspan x="-573.43" y="-667.6"/></text>
 <text x="-2397.12" y="77.956" fill="#2e3440" font-family="Bitstream Vera Sans" font-size="12.666" opacity=".4"><tspan x="-2397.12" y="77.956"/></text>
 <text x="-682.36" y="170.83" fill="#2e3440" font-family="Bitstream Vera Sans" font-size="12.666" opacity=".4"><tspan x="-682.36" y="170.83"/></text>
 <text x="426.66" y="-8.354" fill="#2e3440" font-family="Bitstream Vera Sans" font-size="12.666" opacity=".4"><tspan x="426.66" y="-8.354"/></text>
 <text x="450.62" y="-49.1" fill="#2e3440" font-family="Bitstream Vera Sans" font-size="12.666" opacity=".4"><tspan x="450.62" y="-49.1"/></text>
 <text x="-1040.84" y="-56.31" fill="#2e3440" font-family="Bitstream Vera Sans" font-size="12.666" opacity=".4"><tspan x="-1040.84" y="-56.31"/></text>
 <text x="419.7" y="-329.54" fill="#2e3440" font-family="Bitstream Vera Sans" font-size="12.666" opacity=".4"><tspan x="419.7" y="-329.54"/></text>
 <text x="-608.03" y="-59.02" fill="#2e3440" font-family="Bitstream Vera Sans" font-size="12.666" opacity=".4"><tspan x="-608.03" y="-59.02"/></text>
 <text x="-2431.72" y="686.53" fill="#2e3440" font-family="Bitstream Vera Sans" font-size="12.666" opacity=".4"><tspan x="-2431.72" y="686.53"/></text>
 <text x="-456.94" y="-920.55" fill="#2e3440" font-family="Bitstream Vera Sans" font-size="12.666" opacity=".4"><tspan x="-456.94" y="-920.55"/></text>
 <text x="350.66" y="-1334.02" fill="#2e3440" font-family="Bitstream Vera Sans" font-size="12.666" opacity=".4"><tspan x="350.66" y="-1334.02"/></text>
 <text x="374.62" y="-1374.76" fill="#2e3440" font-family="Bitstream Vera Sans" font-size="12.666" opacity=".4"><tspan x="374.62" y="-1374.76"/></text>
 <text x="-1116.84" y="-1381.97" fill="#2e3440" font-family="Bitstream Vera Sans" font-size="12.666" opacity=".4"><tspan x="-1116.84" y="-1381.97"/></text>
 <text x="343.7" y="-1655.21" fill="#2e3440" font-family="Bitstream Vera Sans" font-size="12.666" opacity=".4"><tspan x="343.7" y="-1655.21"/></text>
 <text x="1829.83" y="-1028.52" fill="#2e3440" font-family="Bitstream Vera Sans" font-size="12.666" opacity=".4"><tspan x="1829.83" y="-1028.52"/></text>
 <text x="1853.79" y="-1069.26" fill="#2e3440" font-family="Bitstream Vera Sans" font-size="12.666" opacity=".4"><tspan x="1853.79" y="-1069.26"/></text>
 <text x="362.32" y="-1076.47" fill="#2e3440" font-family="Bitstream Vera Sans" font-size="12.666" opacity=".4"><tspan x="362.32" y="-1076.47"/></text>
 <text x="1822.87" y="-1349.7" fill="#2e3440" font-family="Bitstream Vera Sans" font-size="12.666" opacity=".4"><tspan x="1822.87" y="-1349.7"/></text>
 <text x="-575.49" y="-1124.56" fill="#2e3440" font-family="Bitstream Vera Sans" font-size="12.666" opacity=".4"><tspan x="-575.49" y="-1124.56"/></text>
 <text x="-2399.18" y="-379" fill="#2e3440" font-family="Bitstream Vera Sans" font-size="12.666" opacity=".4"><tspan x="-2399.18" y="-379"/></text>
 <text x="-684.42" y="-286.13" fill="#2e3440" font-family="Bitstream Vera Sans" font-size="12.666" opacity=".4"><tspan x="-684.42" y="-286.13"/></text>
 <text x="155.59" y="-45.22" fill="#2e3440" font-family="Bitstream Vera Sans" font-size="12.666" opacity=".4"><tspan x="155.59" y="-45.22"/></text>
 <text x="179.55" y="-85.96" fill="#2e3440" font-family="Bitstream Vera Sans" font-size="12.666" opacity=".4"><tspan x="179.55" y="-85.96"/></text>
 <text x="-1090.26" y="-279.99" fill="#2e3440" font-family="Bitstream Vera Sans" font-size="12.666" opacity=".4"><tspan x="-1090.26" y="-279.99"/></text>
 <text x="-282.66" y="-693.46" fill="#2e3440" font-family="Bitstream Vera Sans" font-size="12.666" opacity=".4"><tspan x="-282.66" y="-693.46"/></text>
 <text x="-258.7" y="-734.2" fill="#2e3440" font-family="Bitstream Vera Sans" font-size="12.666" opacity=".4"><tspan x="-258.7" y="-734.2"/></text>
 <text x="-1750.16" y="-741.41" fill="#2e3440" font-family="Bitstream Vera Sans" font-size="12.666" opacity=".4"><tspan x="-1750.16" y="-741.41"/></text>
 <text x="-289.62" y="-1014.64" fill="#2e3440" font-family="Bitstream Vera Sans" font-size="12.666" opacity=".4"><tspan x="-289.62" y="-1014.64"/></text>
 <text x="1196.5" y="-387.95" fill="#2e3440" font-family="Bitstream Vera Sans" font-size="12.666" opacity=".4"><tspan x="1196.5" y="-387.95"/></text>
 <text x="1220.46" y="-428.69" fill="#2e3440" font-family="Bitstream Vera Sans" font-size="12.666" opacity=".4"><tspan x="1220.46" y="-428.69"/></text>
 <text x="-271" y="-435.9" fill="#2e3440" font-family="Bitstream Vera Sans" font-size="12.666" opacity=".4"><tspan x="-271" y="-435.9"/></text>
 <text x="1189.54" y="-709.14" fill="#2e3440" font-family="Bitstream Vera Sans" font-size="12.666" opacity=".4"><tspan x="1189.54" y="-709.14"/></text>
 <text x="-1208.82" y="-484" fill="#2e3440" font-family="Bitstream Vera Sans" font-size="12.666" opacity=".4"><tspan x="-1208.82" y="-484"/></text>
 <text x="-3032.5" y="261.56" fill="#2e3440" font-family="Bitstream Vera Sans" font-size="12.666" opacity=".4"><tspan x="-3032.5" y="261.56"/></text>
 <g transform="matrix(.90475 0 0 .90475 -716.75 -694.55)" fill="#2e3440" opacity=".4">
  <text x="-664.27" y="1159.42" font-family="Bitstream Vera Sans" font-size="14" opacity=".8"><tspan x="-664.27" y="1159.42"/></text>
 </g>
 <text x="435.9" y="-386.73" fill="#2e3440" font-family="Droid Sans" font-size="12.666" opacity=".4"><tspan x="435.9" y="-386.73"/><tspan x="435.9" y="-370.89"/></text>
 <text x="901.09" y="-868.77" fill="#2e3440" font-family="Bitstream Vera Sans" font-size="12.666" opacity=".4"><tspan x="901.09" y="-868.77"/></text>
 <text x="-922.6" y="-123.22" fill="#2e3440" font-family="Bitstream Vera Sans" font-size="12.666" opacity=".4"><tspan x="-922.6" y="-123.22"/></text>
 <text x="1628.17" y="-1153.77" fill="#2e3440" font-family="Bitstream Vera Sans" font-size="12.666" opacity=".4"><tspan x="1628.17" y="-1153.77"/></text>
 <text x="1652.13" y="-1194.51" fill="#2e3440" font-family="Bitstream Vera Sans" font-size="12.666" opacity=".4"><tspan x="1652.13" y="-1194.51"/></text>
 <text x="160.67" y="-1201.72" fill="#2e3440" font-family="Bitstream Vera Sans" font-size="12.666" opacity=".4"><tspan x="160.67" y="-1201.72"/></text>
 <text x="1621.21" y="-1474.95" fill="#2e3440" font-family="Bitstream Vera Sans" font-size="12.666" opacity=".4"><tspan x="1621.21" y="-1474.95"/></text>
 <path d="m2 4h3v10h-3zm5 0h13v14h-3v-7h-2v7h-3v-7h-2v7h-3zm-5 11h3v3h-3z" fill="#2e3440" opacity=".4"/>
</svg>
