<svg viewBox="0 0 22 22" xmlns="http://www.w3.org/2000/svg">
 <path d="m12 2.5 7 4v3l-7-4z" fill="#88c0d0" fill-rule="evenodd"/>
 <path d="m12 7.5 7 4v3l-7-4z" fill="#88c0d0" fill-rule="evenodd"/>
 <path d="m3 7.5 7 4v3l-7-4z" fill="#88c0d0" fill-rule="evenodd"/>
 <path d="m3 12.5 7 4v3l-7-4z" fill="#88c0d0" fill-rule="evenodd"/>
 <path d="m12 12.5 7 4v1.277c0 0.552-0.448 1-1 1-0.174 0-0.345-0.046-0.496-0.133-1.83-1.043-3.671-2.097-5.504-3.145z" fill="#88c0d0" fill-rule="evenodd"/>
 <path d="m10 9.5-7-4v-1.277c0-0.552 0.448-1 1-1 0.174 0 0.345 0.046 0.496 0.133 1.83 1.043 3.671 2.097 5.504 3.145z" fill="#88c0d0" fill-rule="evenodd"/>
</svg>
