<svg viewBox="0 0 22 22" xmlns="http://www.w3.org/2000/svg">
 <path d="m3 2c-0.554 0-1 0.446-1 1v6c0 0.554 0.446 1 1 1h6c0.554 0 1-0.446 1-1v-6c0-0.554-0.446-1-1-1h-6zm1 1h4c0.554 0 1 0.446 1 1v4c0 0.554-0.446 1-1 1h-4c-0.554 0-1-0.446-1-1v-4c0-0.554 0.446-1 1-1z" fill="#2e3440"/>
 <path d="m13 2c-0.554 0-1 0.446-1 1v6c0 0.554 0.446 1 1 1h6c0.554 0 1-0.446 1-1v-6c0-0.554-0.446-1-1-1h-6zm1 1h4c0.554 0 1 0.446 1 1v4c0 0.554-0.446 1-1 1h-4c-0.554 0-1-0.446-1-1v-4c0-0.554 0.446-1 1-1z" fill="#2e3440"/>
 <path d="m3 12c-0.554 0-1 0.446-1 1v6c0 0.554 0.446 1 1 1h6c0.554 0 1-0.446 1-1v-6c0-0.554-0.446-1-1-1h-6zm1 1h4c0.554 0 1 0.446 1 1v4c0 0.554-0.446 1-1 1h-4c-0.554 0-1-0.446-1-1v-4c0-0.554 0.446-1 1-1z" fill="#2e3440"/>
 <path d="m13 12c-0.554 0-1 0.446-1 1v6c0 0.554 0.446 1 1 1h6c0.554 0 1-0.446 1-1v-6c0-0.554-0.446-1-1-1h-6zm1 1h4c0.554 0 1 0.446 1 1v4c0 0.554-0.446 1-1 1h-4c-0.554 0-1-0.446-1-1v-4c0-0.554 0.446-1 1-1z" fill="#2e3440"/>
</svg>
