<svg viewBox="0 0 22 22" xmlns="http://www.w3.org/2000/svg">
 <g transform="translate(-181 -251)">
  <path d="m192 251-3.118 4.72-4.764-1.602 1.602 4.764-4.72 3.118 4.72 3.118-1.602 4.764 4.764-1.602 3.118 4.72 3.118-4.72 4.764 1.602-1.602-4.764 4.72-3.118-4.72-3.118 1.602-4.764-4.764 1.602zm0 6.28 0.996 0.953 2.772 2.772c0.31 0.313 0.459 0.778 0.39 1.213v1.169h-1.213c-0.422 0.055-0.865-0.092-1.169-0.39l-0.39-0.39v3.551h-2.772v-3.551l-0.39 0.39c-0.264 0.253-0.63 0.396-0.996 0.39h-1.386v-1.083c-1e-3 -0.043-1e-3 -0.087 0-0.13-0.055-0.422 0.092-0.865 0.39-1.169l2.772-2.772z" fill="#2e3440" fill-rule="evenodd"/>
 </g>
</svg>
