<svg viewBox="0 0 22 22" xmlns="http://www.w3.org/2000/svg">
 <path d="m7 3-4 4h7v-4zm5 0v4h7l-4-4zm-9 6v10h7.25c8e-3 -8e-3 0.019-0.021 0.027-0.029l0.508-0.508c-0.037-0.252-0.162-0.472-0.162-0.732 0-2.911 2.402-5.313 5.313-5.313 1.14 0 2.194 0.377 3.064 1v-4.418" fill="#4c566a"/>
 <path d="m19.25 17.731c0-1.831-1.481-3.313-3.313-3.313-1.831 0-3.313 1.483-3.313 3.313 0 0.506 0.112 0.98 0.311 1.411l-1.243 1.243c-0.588 0.584-0.588 0.59 0 1.178 0.584 0.584 0.59 0.584 1.178 0l1.139-1.139c0.547 0.389 1.208 0.621 1.929 0.621 1.832 0 3.313-1.483 3.313-3.313zm-1.657-0.052c0.014 0.448-0.155 0.883-0.467 1.205s-0.742 0.503-1.19 0.503c-0.915 0-1.656-0.742-1.656-1.657s0.741-1.657 1.656-1.657c0.895-1e-3 1.628 0.71 1.657 1.605z" fill="#88c0d0" fill-rule="evenodd"/>
</svg>
