
<svg xmlns="http://www.w3.org/2000/svg" xmlns:xlink="http://www.w3.org/1999/xlink" width="22" height="22" viewBox="0 0 22 22" version="1.1">
<defs>
<filter id="alpha" filterUnits="objectBoundingBox" x="0%" y="0%" width="100%" height="100%">
  <feColorMatrix type="matrix" in="SourceGraphic" values="0 0 0 0 1 0 0 0 0 1 0 0 0 0 1 0 0 0 1 0"/>
</filter>
<mask id="mask0">
  <g filter="url(#alpha)">
<rect x="0" y="0" width="22" height="22" style="fill:rgb(0%,0%,0%);fill-opacity:0.6;stroke:none;"/>
  </g>
</mask>
<clipPath id="clip1">
  <rect x="0" y="0" width="22" height="22"/>
</clipPath>
<g id="surface5" clip-path="url(#clip1)">
<path style=" stroke:none;fill-rule:evenodd;fill:rgb(18.039216%,20.392157%,25.098041%);fill-opacity:0.941176;" d="M 6.414062 0.00390625 L 15.585938 0.00390625 C 17.875 0.00390625 17.875 -0.222656 17.875 2.296875 L 17.875 11.460938 C 17.875 13.75 17.875 13.75 15.585938 13.75 L 6.414062 13.75 C 4.125 13.75 4.125 13.75 4.125 11.460938 L 4.125 2.296875 C 4.125 0.00390625 4.125 0.00390625 6.414062 0.00390625 Z M 6.414062 0.00390625 "/>
</g>
</defs>
<g id="surface1">
<use xlink:href="#surface5" mask="url(#mask0)"/>
<path style=" stroke:none;fill-rule:evenodd;fill:rgb(18.039216%,20.392157%,25.098041%);fill-opacity:1;" d="M 2.199219 5.5 L 19.800781 5.5 C 22 5.5 22 5.5 22 7.699219 L 22 14.300781 C 22 16.5 22 16.5 19.800781 16.5 L 2.199219 16.5 C 0 16.5 0 16.5 0 14.300781 L 0 7.699219 C 0 5.5 0 5.5 2.199219 5.5 Z M 2.199219 5.5 "/>
<path style=" stroke:none;fill-rule:nonzero;fill:rgb(74.901962%,38.039216%,41.568628%);fill-opacity:1;" d="M 4.125 11 L 17.875 11 L 17.875 22 L 4.125 22 Z M 4.125 11 "/>
<path style=" stroke:none;fill-rule:nonzero;fill:rgb(18.039216%,20.392157%,25.098041%);fill-opacity:1;" d="M 9.625 19.328125 L 12.375 19.328125 L 12.375 21.285156 L 9.625 21.285156 Z M 9.625 12.375 L 12.375 12.375 L 12.375 18.640625 L 9.625 18.640625 Z M 9.625 12.375 "/>
</g>
</svg>
