<svg width="22" height="22" version="1.1" viewBox="0 0 22 22" xmlns="http://www.w3.org/2000/svg" xmlns:xlink="http://www.w3.org/1999/xlink">
 <defs>
  <filter id="alpha" x="0%" y="0%" width="100%" height="100%">
   <feColorMatrix in="SourceGraphic" values="0 0 0 0 1 0 0 0 0 1 0 0 0 0 1 0 0 0 1 0"/>
  </filter>
  <mask id="mask0">
   <g filter="url(#alpha)">
    <rect width="22" height="22" style="fill-opacity:.6;fill:rgb(0%,0%,0%)"/>
   </g>
  </mask>
  <clipPath id="clip1">
   <rect width="22" height="22"/>
  </clipPath>
  <g id="surface5" clip-path="url(#clip1)">
   <path d="m6.414062 0.00390625h9.171876c2.289062 0 2.289062-0.22656225 2.289062 2.2929688v9.164063c0 2.289062 0 2.289062-2.289062 2.289062h-9.171876c-2.289062 0-2.289062 0-2.289062-2.289062v-9.164063c0-2.2929688 0-2.2929688 2.289062-2.2929688z" style="fill-opacity:.941176;fill-rule:evenodd;fill:rgb(18.039216%,20.392157%,25.098041%)"/>
  </g>
 </defs>
 <g id="surface1">
  <use mask="url(#mask0)" xlink:href="#surface5"/>
  <path d="M 2.199219 5.5 L 19.800781 5.5 C 22 5.5 22 5.5 22 7.699219 L 22 14.300781 C 22 16.5 22 16.5 19.800781 16.5 L 2.199219 16.5 C 0 16.5 0 16.5 0 14.300781 L 0 7.699219 C 0 5.5 0 5.5 2.199219 5.5 Z M 2.199219 5.5 " style="fill-rule:evenodd;fill:rgb(18.039216%,20.392157%,25.098041%)"/>
  <path d="m4.125 11h13.75v11h-13.75z" style="fill:rgb(74.901962%,38.039216%,41.568628%)"/>
  <path d="m9.625 19.328125h2.75v1.957031h-2.75zm0-6.953125h2.75v6.265625h-2.75z" style="fill:rgb(18.039216%,20.392157%,25.098041%)"/>
 </g>
</svg>
