<svg width="22" height="22" viewBox="0 0 6.2089 6.2089" xmlns="http://www.w3.org/2000/svg">
 <path d="m2.822 0.847c-0.192 0-0.282 0.046-0.282 0.226v3.16c0 0.18 0.294 0.376 0.485 0.376h0.159c0.192 0 0.485-0.138 0.485-0.318v-0.905h-0.564v-0.282h0.564v-0.282h-0.564l2e-3 -0.282h0.564l-2e-3 -0.282h-0.564v-0.282h0.564l2e-3 -0.282h-0.566v-0.282h0.564v-0.262c0-0.18-0.091-0.302-0.282-0.302z" fill="#bf616a"/>
 <path transform="matrix(.25314 0 0 .3673 -2.9595 -5.9267)" d="m27.299 28.429a3.345 2.305 0 1 1-6.689 0 3.345 2.305 0 1 1 6.689 0z" fill="#bf616a"/>
</svg>
