<svg width="22" height="22" enable-background="new 0 0 90 109" version="1.1" viewBox="-1 -1 22.489 22.404" xmlns="http://www.w3.org/2000/svg">
 <path d="m10.244 2.0241c-2.2582 0-4.0889 1.8307-4.0889 4.0889v2.0444h-1.0222a2.0444 2.0444 0 0 0-2.0444 2.0444v6.1333a2.0444 2.0444 0 0 0 2.0444 2.0444h10.222a2.0444 2.0444 0 0 0 2.0444-2.0444v-6.1333a2.0444 2.0444 0 0 0-2.0444-2.0444h-1.0222v-2.0444c0-2.2582-1.8307-4.0889-4.0889-4.0889zm0 2.0444c1.1291 0 2.0444 0.91533 2.0444 2.0444 0 0.48172-0.10346 0.86069-0.23958 1.132-0.13612 0.27135-0.43812 0.63321-0.78264 0.91241-0.3368 0.27295-1.0222 0.62092-1.0222 0.62092s0.3124-0.37941 0.43924-0.67083c-0.14418 0.032466-0.29145 0.049831-0.43924 0.049913-1.1291 6.31e-4 -2.0444-0.91533-2.0444-2.0444 0-1.1291 0.91533-2.0444 2.0444-2.0444zm0 6.1333a3.0667 3.0667 0 0 1 3.0667 3.0667 3.0667 3.0667 0 0 1-3.0667 3.0667 3.0667 3.0667 0 0 1-3.0667-3.0667 3.0667 3.0667 0 0 1 3.0667-3.0667z" fill="#88c0d0" stroke-linecap="round" stroke-linejoin="round" stroke-width=".70866"/>
</svg>
