<svg width="22" height="22" viewBox="0 0 6.2089 6.2089" xmlns="http://www.w3.org/2000/svg">
 <path d="m2.207 1.556c-0.495 0.465-0.497 1.224-2e-3 1.689l0.235-0.223c-0.367-0.344-0.366-0.898 2e-3 -1.245m1.325-3e-3c0.368 0.346 0.37 0.904 2e-3 1.25l0.235 0.222c0.495-0.465 0.493-1.227-1e-3 -1.693" fill="#2e3440" opacity=".4"/>
 <path d="m1.509 0.85c-0.881 0.854-0.883 2.244-4e-3 3.097l0.419-0.406c-0.653-0.634-0.65-1.65 3e-3 -2.285m2.355-3e-3c0.653 0.633 0.658 1.657 4e-3 2.292l0.419 0.406c0.88-0.854 0.875-2.251-4e-3 -3.104l-0.419 0.407" fill="#2e3440" opacity=".4"/>
 <path d="m3.104 2.258c0.156 0 0.282 0.126 0.282 0.282v2.54c0 0.156-0.126 0.282-0.282 0.282s-0.282-0.126-0.282-0.282v-2.54c0-0.156 0.126-0.282 0.282-0.282z" fill="#2e3440"/>
</svg>
