<svg viewBox="0 0 22 22" xmlns="http://www.w3.org/2000/svg">
 <path d="m14.756 3.693c1.442 0.756 2.337 1.88 2.236 2.706l-5.882-3.084c-0.018-9e-3 -0.036-0.017-0.054-0.026 0.736-0.495 2.258-0.353 3.701 0.404z" fill="#2e3440" fill-rule="evenodd"/>
 <rect transform="matrix(-.88565 -.46436 -.53651 .8439 0 0)" x="-17.895" y="-1.902" width="2.079" height="10.144" rx=".83" fill="#2e3440" fill-rule="evenodd"/>
 <rect transform="matrix(-.88565 -.46436 -.53651 .8439 0 0)" x="-15.526" y="-1.902" width="2.079" height="10.144" rx=".83" fill="#2e3440" fill-rule="evenodd"/>
 <rect transform="matrix(-.88565 -.46436 -.53651 .8439 0 0)" x="-13.158" y="-1.902" width="2.079" height="10.144" rx=".83" fill="#2e3440" fill-rule="evenodd"/>
 <path d="m11.21 15.584c4e-3 -0.131-5.866-3.206-5.99-3.138-0.123 0.068-0.3 6.49-0.18 6.553s6.166-3.284 6.17-3.415z" fill="#2e3440" fill-rule="evenodd"/>
</svg>
