<svg width="22" height="22" viewBox="0 0 6.2089 6.2089" xmlns="http://www.w3.org/2000/svg">
 <path d="m0.485 0.848a0.564 0.562 0 0 0 0.115 1.118h0.318c0.135 0 0.182 0.032 0.282 0.123 0.1 0.092 0.232 0.264 0.371 0.475 0.11 0.168 0.23 0.361 0.397 0.546-0.164 0.184-0.288 0.379-0.397 0.546-0.139 0.211-0.27 0.375-0.371 0.466-0.1 0.092-0.147 0.123-0.282 0.123h-0.318a0.563 0.561 0 0 0 0 1.118h0.318c0.42 0 0.812-0.206 1.059-0.431 0.246-0.225 0.4-0.475 0.538-0.686 0.139-0.211 0.244-0.375 0.344-0.466 0.075-0.069 0.119-0.11 0.194-0.123 0.027 2e-3 0.052 0 0.079 0 0.135 0 0.182 0.032 0.282 0.123 0.1 0.092 0.241 0.255 0.379 0.466 0.139 0.211 0.283 0.461 0.529 0.686s0.612 0.431 1.032 0.431h0.344a0.563 0.561 0 0 0 0-1.118h-0.344c-0.135 0-0.182-0.032-0.282-0.123-0.1-0.092-0.205-0.255-0.344-0.466-0.113-0.172-0.232-0.374-0.406-0.563 0.058-0.062 0.113-0.132 0.159-0.194 0.261-0.351 0.441-0.673 0.591-0.81 0.1-0.091 0.148-0.123 0.282-0.123h0.344a0.563 0.561 0 0 0 0-1.118h-0.344c-0.419 0-0.786 0.207-1.032 0.431-0.37 0.338-0.534 0.724-0.715 0.968s-0.274 0.317-0.476 0.317c-0.135 0-0.173-0.04-0.273-0.132s-0.205-0.256-0.344-0.467-0.292-0.461-0.538-0.686c-0.247-0.225-0.639-0.431-1.059-0.431h-0.318a0.56 0.558 0 0 0-0.062 0 0.564 0.562 0 0 0-0.053 0z" fill="#2e3440"/>
</svg>
