<svg width="22" height="22" viewBox="0 0 6.2089 6.2089" xmlns="http://www.w3.org/2000/svg">
 <g transform="matrix(.18963 0 0 .19127 -1.6013 -193.15)" fill="#2e3440">
  <path transform="matrix(.07203 0 0 .07203 6.3752 1007.6)" d="m240 92.12v36.879c-52.46 6.538-95.05 44.81-107.97 95h33.19c13.611-36.23 49.647-64.48 89.03-64.22 0.955-0.025 1.922-0.037 2.875-0.031 14.299 0.085 28.354 3.635 41.09 10 22.947 10.33 39.986 30.744 48.31 54.25h33.438c-12.918-50.19-55.51-88.46-107.97-95v-36.879zm-107.97 195.88c12.918 50.19 55.51 88.46 107.97 95v36.879h32v-36.879c52.46-6.538 95.05-44.81 107.97-95h-32.969c-12.936 38.16-52.919 65.61-93.34 64.19-39.36 0.199-75.06-27.918-88.37-64.19z"/>
  <path transform="matrix(.06345 0 0 .06345 8.5746 1009.9)" d="m256 176c-44.18 0-80 35.64-80 80 0 0-0.53 7.515 1.768 16h122.86c-3.317 9.265-9.266 17.577-17.344 23.13-18.585 14.673-46.731 9.337-62.56-7.125h-38.03c12.35 28.24 40.517 48 73.31 48 44.18 0 80-35.817 80-80 0 0 0-8.222-1.591-16h-122.91c6.916-17.482 23.431-31.648 42.625-31.813 0.96-0.046 1.917-0.051 2.875-0.031 12.866 0.261 25.351 6.362 34.03 15.844h38.28c-12.35-28.24-40.517-48-73.31-48z"/>
 </g>
</svg>
