<svg width="22" height="22" viewBox="0 0 6.2089 6.2089" xmlns="http://www.w3.org/2000/svg">
 <path d="m2.904 0.871c-0.426 0.036-0.843 0.108-1.093 0.2-0.5 0.184-0.58 0.196-0.541 0.377 0.173 0.271 0.262 0.578 0.421 0.858 0.047 0.036 0.102 0.055 0.183 0.02 0.664-0.272 1.35-0.405 2.308-0.173 0.266-0.18 0.372-0.642 0.447-0.935 0.042-0.166-0.014-0.218-0.581-0.327-0.284-0.055-0.718-0.055-1.143-0.02zm-1 0.583c0.052-4e-3 0.098 0.036 0.102 0.089s-0.035 0.1-0.087 0.105c-0.052 4e-3 -0.098-0.036-0.102-0.089s0.035-0.1 0.087-0.105zm2.083-0.165c0.052-4e-3 0.097 0.036 0.102 0.089 4e-3 0.053-0.035 0.1-0.087 0.105-0.052 4e-3 -0.098-0.036-0.102-0.089s0.035-0.1 0.087-0.105z" fill="#2e3440"/>
 <path d="m3.104 1.411c-1.091 0-1.976 0.884-1.976 1.976 0 1.091 0.884 1.976 1.976 1.976 1.091 0 1.976-0.884 1.976-1.976 0-1.091-0.884-1.976-1.976-1.976zm0 1.358c0.34 0 0.617 0.277 0.617 0.617s-0.277 0.617-0.617 0.617-0.617-0.277-0.617-0.617 0.277-0.617 0.617-0.617zm0 0.123c-0.273 0-0.494 0.22-0.494 0.494s0.22 0.494 0.494 0.494c0.273 0 0.494-0.22 0.494-0.494s-0.22-0.494-0.494-0.494zm0 0.185c0.17 0 0.309 0.138 0.309 0.309 0 0.17-0.138 0.309-0.309 0.309-0.17 0-0.309-0.138-0.309-0.309 0-0.17 0.138-0.309 0.309-0.309z" fill="#2e3440"/>
</svg>
