<svg width="22" height="22" viewBox="0 0 6.2089 6.2089" xmlns="http://www.w3.org/2000/svg">
 <path d="m1.466 1.95c-0.654 0-1.184 0.524-1.184 1.172s0.529 1.172 1.184 1.172c0.347 0 0.669-0.052 0.886-0.287v1.084c0 0.163 0.118 0.271 0.282 0.271s0.282-0.108 0.282-0.271v-2.89c0-0.163-0.116-0.252-0.28-0.252s-0.274 0.089-0.284 0.252l-8e-3 0.128 8e-3 0.413h0.376c-0.204 0.279-0.348 0.453-0.564 0.722-0.224-0.272-0.341-0.45-0.564-0.722h0.376v-0.722c-0.119-0.039-0.378-0.071-0.51-0.071z" color="#bebebe" fill="#2e3440"/>
 <path d="m3.566 0.847c-0.164 0-0.274 0.108-0.274 0.271v2.89c0 0.163 0.109 0.287 0.274 0.287 0.164 0 0.277-0.125 0.291-0.287l8e-3 -0.093-8e-3 -0.449h-0.376c0.212-0.261 0.352-0.462 0.564-0.722 0.223 0.273 0.341 0.45 0.564 0.722h-0.376v0.722c0.119 0.039 0.378 0.106 0.51 0.106 0.654 0 1.184-0.524 1.184-1.172s-0.529-1.172-1.184-1.172c-0.347 0-0.669 0.197-0.886 0.432v-1.264c0-0.163-0.127-0.271-0.291-0.271z" color="#bebebe" fill="#2e3440"/>
</svg>
