<svg viewBox="0 0 22 22" xmlns="http://www.w3.org/2000/svg">
 <g fill="#2e3440">
  <path d="m8.094 7.594c-2.959 0-5.344 2.384-5.344 5.344 0 0.122-8e-3 0.255 0 0.375-1.04 0.502-1.75 1.521-1.75 2.688 0 1.671 1.447 3 3.25 3h13.5c1.803 0 3.25-1.329 3.25-3 0-1.241-0.786-2.318-1.938-2.781 0.028-0.188 0.031-0.367 0.031-0.563 0-2.121-1.723-3.844-3.844-3.844-1.065 0-2.023 0.425-2.719 1.125-0.964-1.418-2.594-2.344-4.438-2.344zm-2.219 1.625c0.579 0 1.063 0.448 1.063 1s-0.484 1-1.063 1-1.031-0.448-1.031-1 0.453-1 1.031-1zm5.094 0.781 3.03 4.406h-1.844v3.594h-2.438v-3.594h-1.719l2.969-4.406z"/>
  <path d="m17.387 8.733-0.402-0.38-0.541 0.116 0.237-0.5-0.277-0.479 0.548 0.071 0.37-0.411 0.102 0.544 0.505 0.224-0.486 0.265z"/>
  <path d="m17.831 7.723 0.021-0.258-0.201-0.164 0.252-0.059 0.094-0.241 0.134 0.221 0.259 0.015-0.169 0.196 0.066 0.251-0.239-0.1z"/>
  <path d="m18.07 9.226-0.049-0.392-0.351-0.182 0.358-0.168 0.065-0.39 0.27 0.289 0.391-0.059-0.191 0.346 0.177 0.354-0.388-0.075z"/>
 </g>
</svg>
