<svg viewBox="0 0 22 22" xmlns="http://www.w3.org/2000/svg">
 <path d="m11 1.506c-1.407 0.051-2.204 4.996-3.352 5.816-1.153 0.825-6.173-0.017-6.617 1.324-0.445 1.341 4.095 3.638 4.529 4.982s-1.903 5.828-0.756 6.662 4.752-2.742 6.174-2.736c7e-3 0 0.015 4e-3 0.021 4e-3 0.974-5.142 0.76-10.539 0-16.05z" fill="#ebcb8b"/>
 <path d="m11.02 1.5c-8e-3 0-0.015 6e-3 -0.023 6e-3v16.05c1.434 0.039 4.96 3.642 6.107 2.82 1.154-0.826-1.156-5.364-0.711-6.705s5.01-3.595 4.574-4.939c-0.434-1.345-5.47-0.532-6.617-1.367-1.146-0.834-1.909-5.862-3.33-5.867z" fill="#7b88a1"/>
</svg>
