<svg viewBox="0 0 22 22" xmlns="http://www.w3.org/2000/svg">
 <g transform="matrix(1.25 0 0 1.25 -3.6875 -4)" fill="#d08770">
  <path d="m11.75 6c1.716 2e-3 3.349 0.739 4.486 2.023 0.087-0.016 0.175-0.023 0.264-0.023 0.828 0 1.5 0.672 1.5 1.5-1e-3 0.394-0.157 0.773-0.434 1.053 0.12 0.473 0.182 0.959 0.184 1.447-3e-3 1.279-0.414 2.524-1.174 3.553 0.114 0.215 0.173 0.454 0.174 0.697 0 0.828-0.672 1.5-1.5 1.5-0.342 0-0.673-0.118-0.939-0.332-0.8 0.381-1.675 0.58-2.561 0.582-2.142-2e-3 -4.121-1.146-5.191-3-0.02 1e-3 -0.039 2e-3 -0.059 2e-3 -0.828 0-1.5-0.672-1.5-1.5 1e-3 -0.539 0.291-1.035 0.76-1.301-4e-3 -0.066-8e-3 -0.133-0.01-0.199 0-3.314 2.686-6 6-6zm0 1c-2.761 0-5 2.239-5 5v0.021c0.453 0.078 0.845 0.358 1.064 0.762l3.461-0.553c0.13-0.712 0.75-1.23 1.475-1.23 0.28 0 0.554 0.079 0.791 0.227l1.543-1.234c-0.055-0.158-0.084-0.325-0.084-0.492 0-0.353 0.125-0.695 0.352-0.965-0.942-0.98-2.243-1.534-3.602-1.535zm3.959 3.773-1.543 1.234c0.055 0.158 0.084 0.325 0.084 0.492-1e-3 0.324-0.106 0.639-0.301 0.898l0.934 1.398c0.12-0.03 0.243-0.046 0.367-0.046 0.203 0 0.404 0.041 0.59 0.121 0.591-0.841 0.909-1.843 0.91-2.871-2e-3 -0.339-0.038-0.676-0.107-1.01-0.047 5e-3 -0.095 8e-3 -0.143 8e-3 -0.28 0-0.554-0.079-0.791-0.227zm-4.273 2.443-3.461 0.555c-0.061 0.328-0.229 0.626-0.479 0.848 0.909 1.478 2.519 2.379 4.254 2.381 0.701-2e-3 1.394-0.152 2.033-0.439-0.022-0.102-0.033-0.206-0.033-0.311 1e-3 -0.324 0.106-0.639 0.301-0.898l-0.934-1.398c-0.12 0.031-0.243 0.046-0.367 0.047-0.548-1e-3 -1.052-0.301-1.315-0.783z"/>
 </g>
</svg>
