<svg viewBox="0 0 22 22" xmlns="http://www.w3.org/2000/svg">
 <g transform="matrix(.76923 0 0 .72727 -21.198 2.7772)" fill="#2e3440">
  <path d="m51.39 3.691c0.957 0 1.774 0.331 2.451 0.992s1.016 1.459 1.016 2.393v11.846c0 0.934-0.339 1.732-1.016 2.393s-1.494 0.992-2.451 0.992h-19.07c-0.957 0-1.774-0.331-2.451-0.992s-1.016-1.459-1.016-2.393v-11.846c0-0.934 0.339-1.732 1.016-2.393s1.494-0.992 2.451-0.992h3.033l0.691-1.798c0.172-0.432 0.485-0.804 0.941-1.117s0.923-0.469 1.402-0.469h6.933c0.478 0 0.946 0.156 1.402 0.469s0.77 0.685 0.941 1.117l0.691 1.798zm-9.533 15.231c1.67 0 3.099-0.58 4.286-1.739s1.781-2.554 1.781-4.184c0-1.631-0.594-3.03-1.781-4.184-1.187-1.159-2.616-1.739-4.286-1.739s-3.099 0.58-4.286 1.739-1.781 2.554-1.781 4.184c0 1.631 0.594 3.03 1.781 4.184 1.187 1.159 2.616 1.739 4.286 1.739z"/>
  <path d="m45.857 13.01a4 4 0 1 1-8 0 4 4 0 1 1 8 0z"/>
 </g>
</svg>
