<svg viewBox="0 0 22 22" xmlns="http://www.w3.org/2000/svg">
 <path d="m18.333 5.462c0.736 0 1.365 0.24 1.885 0.721 0.521 0.481 0.781 1.061 0.781 1.74v8.615c0 0.679-0.26 1.26-0.781 1.74-0.521 0.481-1.149 0.721-1.885 0.721h-14.667c-0.736 0-1.365-0.24-1.885-0.721-0.521-0.481-0.781-1.061-0.781-1.74v-8.615c0-0.679 0.26-1.26 0.781-1.74 0.521-0.481 1.149-0.721 1.885-0.721h2.333l0.531-1.308c0.132-0.314 0.373-0.585 0.724-0.812 0.351-0.228 0.71-0.341 1.078-0.341h5.333c0.368 0 0.727 0.114 1.078 0.341 0.351 0.228 0.592 0.498 0.724 0.812l0.531 1.308zm-7.333 11.08c1.285 0 2.384-0.421 3.297-1.264s1.37-1.857 1.37-3.043-0.457-2.2-1.37-3.043-2.01-1.264-3.297-1.264c-1.285 0-2.384 0.421-3.297 1.264s-1.37 1.857-1.37 3.043 0.457 2.2 1.37 3.043 2.01 1.264 3.297 1.264z" fill="#2e3440"/>
 <path d="m14.08 12.236a3.077 2.909 0 1 1-6.154 0 3.077 2.909 0 1 1 6.154 0z" fill="#bf616a"/>
</svg>
