<svg viewBox="0 0 22 22" xmlns="http://www.w3.org/2000/svg">
 <path d="m12.428 1.01c-0.231-0.02-0.469 6e-3 -0.703 0.082-0.936 0.304-1.447 1.308-1.143 2.244l0.584 1.795-3.75 1.221c-0.129-0.397-0.584-1.797-0.584-1.797-0.304-0.936-1.308-1.449-2.244-1.145s-1.449 1.31-1.145 2.246l0.584 1.797-1.854 0.602c-0.874 0.316-1.365 1.26-1.104 2.166 0.272 0.946 1.276 1.522 2.205 1.221 5e-3 -2e-3 1.43-0.464 1.854-0.602l1.219 3.75-1.854 0.602c-0.874 0.316-1.366 1.261-1.105 2.168 0.272 0.946 1.276 1.522 2.205 1.221 5e-3 -2e-3 1.431-0.466 1.855-0.604l0.602 1.854c0.316 0.874 1.26 1.365 2.166 1.104 0.946-0.272 1.522-1.276 1.221-2.205-2e-3 -5e-3 -0.464-1.429-0.602-1.852 1.747-0.568 2.01-0.655 3.75-1.219l0.602 1.852c0.316 0.874 1.261 1.366 2.168 1.105 0.946-0.272 1.522-1.276 1.221-2.205-2e-3 -5e-3 -0.464-1.43-0.602-1.854 0.395-0.128 1.793-0.582 1.793-0.582 0.936-0.304 1.449-1.31 1.145-2.246s-1.308-1.447-2.244-1.143l-1.795 0.584c-0.568-1.747-0.654-2.01-1.219-3.75 0.396-0.129 1.795-0.584 1.795-0.584 0.936-0.304 1.449-1.308 1.145-2.244s-1.31-1.449-2.246-1.145l-1.795 0.584c-0.129-0.396-0.582-1.795-0.582-1.795-0.228-0.702-0.851-1.167-1.543-1.227zm-0.162 7.51 1.219 3.75-3.75 1.219c-0.568-1.747-0.654-2.01-1.219-3.75 1.747-0.568 2.01-0.654 3.75-1.219z" fill="#88c0d0"/>
</svg>
