<svg width="22" height="22" version="1.1" xmlns="http://www.w3.org/2000/svg">
 <defs>
  <style id="current-color-scheme" type="text/css">.ColorScheme-Text { 
    color:#2e3440;
} .ColorScheme-Highlight { color:#4285f4; } .ColorScheme-NeutralText { color:#ff9800; } .ColorScheme-PositiveText { color:#4caf50; } .ColorScheme-NegativeText { color:#f44336; }</style>
 </defs>
 <path class="ColorScheme-Text" d="m11 1.375a9.625 9.625 0 0 0-9.625 9.625 9.625 9.625 0 0 0 9.625 9.625 9.625 9.625 0 0 0 9.625-9.625 9.625 9.625 0 0 0-9.625-9.625zm0.19869 4.1222v0.00275h0.0027c1.7999 0.066 3.4382 1.0139 4.4048 2.5003l1.9086-0.63649-2.1588 4.3264-4.3264-2.1647 1.7563-0.58534c-0.46475-0.40425-1.0484-0.66962-1.6892-0.693-1.0202-0.037125-1.9726 0.48826-2.4841 1.3724l-2.3822-1.375c1.0176-1.7628 2.934-2.823 4.9683-2.7474zm-4.5547 4.8125 4.3264 2.1647-1.7563 0.58534c0.46448 0.40425 1.0484 0.66688 1.6892 0.69025 1.0203 0.03712 1.9726-0.48812 2.4841-1.3722l2.3825 1.375c-1.0175 1.7628-2.9349 2.8229-4.9686 2.7472-1.7992-0.066-3.4378-1.0134-4.4044-2.4998l-1.9093 0.63662z" fill="currentColor" stroke-width="1.375"/>
</svg>
