<svg width="22" height="22" version="1.1" xmlns="http://www.w3.org/2000/svg">
 <defs>
  <style id="current-color-scheme" type="text/css">.ColorScheme-Text { 
    color:#2e3440;
} .ColorScheme-Highlight { color:#4285f4; } .ColorScheme-NeutralText { color:#ff9800; } .ColorScheme-PositiveText { color:#4caf50; } .ColorScheme-NegativeText { color:#f44336; }</style>
 </defs>
 <path class="ColorScheme-Text" d="M 11,1.375 A 9.625,9.625 0 0 0 1.375,11 9.625,9.625 0 0 0 11,20.625 9.625,9.625 0 0 0 20.625,11 9.625,9.625 0 0 0 11,1.375 Z M 6.875,9.625 A 1.375,1.375 0 0 1 8.25,11 1.375,1.375 0 0 1 6.875,12.375 1.375,1.375 0 0 1 5.5,11 1.375,1.375 0 0 1 6.875,9.625 Z m 4.125,0 A 1.375,1.375 0 0 1 12.375,11 1.375,1.375 0 0 1 11,12.375 1.375,1.375 0 0 1 9.625,11 1.375,1.375 0 0 1 11,9.625 Z m 4.125,0 A 1.375,1.375 0 0 1 16.5,11 1.375,1.375 0 0 1 15.125,12.375 1.375,1.375 0 0 1 13.75,11 1.375,1.375 0 0 1 15.125,9.625 Z" fill="currentColor" stroke-width="1.375"/>
</svg>
