<svg viewBox="0 0 22 22" xmlns="http://www.w3.org/2000/svg">
 <g fill="#2e3440">
  <g transform="matrix(.3189 0 0 .32212 -5.4748 6.7288)">
   <path d="m67.53-11.576c-6.787 0-12.35 5.595-12.35 12.421s5.563 12.421 12.35 12.421 12.35-5.595 12.35-12.421-5.563-12.421-12.35-12.421zm0 4.169c4.565 0 8.205 3.66 8.205 8.252s-3.639 8.252-8.205 8.252c-4.565 0-8.205-3.66-8.205-8.252 0-4.591 3.639-8.252 8.205-8.252z"/>
   <path d="m72.823 0.831a5.293 5.323 0 0 1-10.586 0 5.293 5.323 0 1 1 10.586 0z"/>
   <path d="m56.945 6.155v15.97l8.822 1.774 7.538-13.248h-7.872z"/>
  </g>
  <g transform="matrix(.09 0 0 .09091 -.5201 18.273)">
   <path d="m152.97-54.875c-17.18 0-31.26 14.161-31.26 31.437 0 17.277 14.08 31.437 31.26 31.437s31.26-14.161 31.26-31.437-14.08-31.437-31.26-31.437zm0 10.552c11.554 0 20.766 9.265 20.766 20.885 0 11.621-9.211 20.885-20.766 20.885-11.554 0-20.766-9.263-20.766-20.885 0-11.621 9.211-20.885 20.766-20.885z"/>
   <path d="m59.26-98.89c-17.18 0-31.26 14.161-31.26 31.437 0 17.277 14.08 31.437 31.26 31.437s31.26-14.161 31.26-31.437-14.08-31.437-31.26-31.437zm-0.056 12.575c12.503 0 18.755 6.287 18.755 18.862s-6.252 18.862-18.755 18.862-18.755-6.287-18.755-18.862 6.252-18.862 18.755-18.862z"/>
   <path d="m66.11-78.69c-7.091-3.02-15.278 0.302-18.286 7.437-3.01 7.132 0.303 15.366 7.394 18.391l92.88 41.993c7.091 3.02 15.278-0.302 18.286-7.437 3.01-7.132-0.303-15.367-7.394-18.391z"/>
  </g>
 </g>
</svg>
