<svg width="22" height="22" version="1.1" viewBox="0 0 22 22" xmlns="http://www.w3.org/2000/svg">
 <g id="surface1">
  <path d="m15.683594 8.65625c-0.992188-0.175781-1.980469-0.621094-2.886719-1.1875-0.828125-0.511719-1.597656-1.046875-2.21875-1.652344-1.0625-0.855468-2.089844-1.585937-3.570313-1.476562-1.367187 0.101562-2.316406 0.976562-2.957031 2.15625-0.945312 1.734375-1.234375 4.105468-1.199219 5.753906 0.03125 1.359375 0.25 2.773438 0.648438 4.238281 0.378906 1.386719 0.910156 2.816407 1.582031 4.285157 1.566407-0.1875 2.957031-0.453126 4.203125-0.789063 1.308594-0.359375 2.457032-0.792969 3.464844-1.292969 1.222656-0.613281 3.015625-1.886718 4.289062-3.371094 0.898438-1.046874 1.527344-2.1875 1.476563-3.238281-0.011719-0.242187-0.054687-0.476562-0.125-0.710937-0.074219-0.234375-0.175781-0.46875-0.3125-0.703125-0.671875-1.152344-1.480469-1.636719-2.394531-2.011719zm-6.574219 0.132812c-0.121094 0.210938-0.367187 0.390626-0.894531 0.601563-0.03125-0.628906-0.019532-0.851563 0.105468-1.066406 0.121094-0.210938 0.363282-0.355469 0.628907-0.203125 0.257812 0.152344 0.28125 0.457031 0.160156 0.667968zm-2.277344-1.3125c-0.121093 0.210938-0.367187 0.390626-0.894531 0.597657-0.03125-0.628907-0.015625-0.847657 0.105469-1.0625 0.121093-0.210938 0.367187-0.355469 0.628906-0.203125 0.261719 0.148437 0.285156 0.453125 0.160156 0.667968zm1.601563 10.964844c-0.125 0.210938-0.367188 0.390625-0.894532 0.601563-0.03125-0.628907-0.019531-0.851563 0.105469-1.066407 0.121094-0.210937 0.363281-0.355468 0.625-0.203124 0.261719 0.152343 0.285157 0.457031 0.164063 0.667968zm5.027344-3.898437c0.261718 0.148437 0.285156 0.453125 0.160156 0.667969-0.121094 0.210937-0.363282 0.390624-0.890625 0.597656-0.03125-0.628906-0.019531-0.851563 0.101562-1.0625 0.121094-0.214844 0.367188-0.355469 0.628907-0.203125zm-7.261719 2.425781c-0.125 0.214844-0.367188 0.390625-0.894531 0.601562-0.03125-0.628906-0.019532-0.851562 0.101562-1.0625 0.125-0.214843 0.367188-0.355468 0.628906-0.207031 0.261719 0.152344 0.285156 0.457031 0.164063 0.667969zm0.09375-2.886719c-0.121094 0.210938-0.367188 0.390625-0.894531 0.597657-0.03125-0.625-0.019532-0.847657 0.105468-1.0625 0.121094-0.210938 0.363282-0.355469 0.628906-0.203126 0.257813 0.148438 0.28125 0.457032 0.160157 0.667969zm4.691406 2.707031c-0.121094 0.214844-0.367187 0.394532-0.894531 0.601563-0.027344-0.628906-0.015625-0.851563 0.105468-1.0625 0.121094-0.214844 0.367188-0.355469 0.628907-0.207031 0.261719 0.152344 0.285156 0.457031 0.160156 0.667968zm5.3125-3.847656c-0.121094 0.210938-0.367187 0.390625-0.894531 0.597656-0.03125-0.628906-0.015625-0.847656 0.105468-1.0625 0.121094-0.210937 0.367188-0.355468 0.628907-0.203124 0.261719 0.148437 0.285156 0.453124 0.160156 0.667968zm-7.5625 2.253906c-0.125 0.210938-0.367187 0.390626-0.894531 0.597657-0.03125-0.625-0.019532-0.847657 0.101562-1.0625 0.125-0.210938 0.367188-0.355469 0.628906-0.203125 0.261719 0.148437 0.285157 0.453125 0.164063 0.667968zm2.761719-1.441406c-0.121094 0.210938-0.367188 0.390625-0.894532 0.597656-0.03125-0.628906-0.019531-0.851562 0.105469-1.0625 0.121094-0.210937 0.367188-0.355468 0.628907-0.203124 0.261718 0.148437 0.28125 0.453124 0.160156 0.667968zm2.3125-2.824218c0.261718 0.148437 0.28125 0.453124 0.160156 0.667968-0.121094 0.210938-0.367188 0.390625-0.894531 0.597656-0.03125-0.628906-0.015625-0.847656 0.105469-1.0625 0.121093-0.214843 0.363281-0.355468 0.628906-0.203124zm-4.96875 1.289062c-0.121094 0.210938-0.367188 0.390625-0.890625 0.601562-0.03125-0.628906-0.019531-0.851562 0.101562-1.066406 0.121094-0.210937 0.367188-0.355468 0.628907-0.203125 0.261718 0.152344 0.285156 0.457031 0.160156 0.667969zm2.71875-2.589844c0.261718 0.152344 0.28125 0.457032 0.160156 0.667969s-0.367188 0.390625-0.894531 0.601563c-0.03125-0.628907-0.015625-0.851563 0.105469-1.066407 0.121093-0.210937 0.367187-0.355469 0.628906-0.203125zm-5.03125 1.253906c-0.121094 0.214844-0.367188 0.390626-0.890625 0.601563-0.03125-0.628906-0.023438-0.851563 0.101562-1.066406 0.121094-0.210938 0.367188-0.355469 0.628907-0.203125 0.261718 0.152344 0.285156 0.457031 0.160156 0.667968z" style="fill:rgb(81.960785%,21.568628%,17.647059%)"/>
  <path d="m9.5625 5.367188c0.367188 0.265624 0.726562 0.554687 1.089844 0.855468 0.644531 0.515625 1.3125 1.058594 2.078125 1.492188 0.734375 0.414062 1.40625 0.78125 2.082031 1.027344 0.496094 0.175781 1.011719 0.246093 1.460938 0.460937 0.082031 0 0.167968 0 0.25-0.003906 0.941406-0.042969 1.847656-0.417969 2.628906-1.285157-0.476563-0.351562-0.941406-0.601562-1.394532-0.753906-0.554687-0.1875-1.09375-0.226562-1.609374-0.144531-0.179688 0.027344-0.347657-0.097656-0.375-0.273437-0.019532-0.128907 0.03125-0.246094 0.128906-0.316407 0.589844-0.441406 1.117187-0.941406 1.484375-1.484375l0.003906-0.003906c0.261719-0.382812 0.445313-0.789062 0.515625-1.203125-0.46875-0.152344-0.957031-0.136719-1.4375 0.007813-0.628906 0.195312-1.253906 0.609374-1.828125 1.1875-0.125 0.128906-0.335937 0.128906-0.464844 0-0.074219-0.074219-0.105469-0.171876-0.09375-0.269532 0.082031-0.847656 0.070313-1.691406-0.117187-2.367187-0.125-0.453125-0.332032-0.824219-0.636719-1.066407-0.4375 0.28125-0.742187 0.644532-0.925781 1.0625-0.234375 0.519532-0.289063 1.140626-0.210938 1.816407 0.023438 0.179687-0.105468 0.34375-0.285156 0.367187-0.132812 0.015625-0.257812-0.050781-0.320312-0.15625-0.414063-0.636718-0.859376-1.175781-1.339844-1.597656-0.382813-0.332031-0.785156-0.59375-1.214844-0.765625-0.351562 1.390625-0.109375 2.464844 0.496094 3.367187 0.011718 0.011719 0.023437 0.03125 0.035156 0.046876z" style="fill:rgb(29.411766%,62.7451%,25.882354%)"/>
 </g>
</svg>
