<svg width="22" height="22" version="1.1" viewBox="0 0 22 22" xmlns="http://www.w3.org/2000/svg">
 <g id="surface1">
  <path transform="matrix(.14519 .083827 -.083827 .14519 8.926 -1.318)" d="m9.688274 34.397288c4.151895-2.827611 8.18714-3.946705 12.24363-4.190219-3.625978-3.018339-6.330236-7.375975-7.771423-13.646653-0.0233-0.040356-0.03495-0.060534-0.026422-0.092362-0.197442-0.854563 0.336325-1.700828 1.190888-1.89827 3.149692-0.742332 6.458754-0.742642 9.860409-0.069993 1.859968 0.378966 3.752602 0.954306 5.67478 1.674015-0.770579-1.70745-1.260949-3.44216-1.450931-5.21578-0.314631-3.154489 0.3185-6.344997 2.217676-9.486241 0.29559-0.46661 0.788393-0.77804 1.372113-0.792203 3.121215 5.27e-4 5.925445 1.502385 8.3667 3.913326 1.938855 1.86697 3.643493 4.353447 5.132416 7.072087 1.100579-2.707071 2.555229-5.080479 4.309658-6.981262 2.413225-2.577095 5.422887-4.260947 9.010483-4.6642108 0.681488-0.1244202 1.379423 0.1990378 1.711869 0.8680378 1.341431 2.696178 1.777132 5.780767 1.531345 8.989777-0.15533 2.107511-0.587748 4.294289-1.271669 6.464849 1.3613-0.624535 2.80415-1.107823 4.351851-1.409507 3.031745-0.620426 6.473526-0.670458 10.331587-0.046084l0.063656 0.017056c0.864767 0.146423 1.46661 0.955832 1.340365 1.808949-0.880595 6.023823-3.404226 10.413447-6.985497 13.530405 3.29056 0.387034 6.725718 1.443906 10.640204 3.703775 1.492194 0.860347 2.846263 1.854252 4.038907 2.941356 1.215944 1.127461 2.282113 2.368301 3.146501 3.725641 3.672659 5.708732 3.930648 13.658004 2.415016 21.797258-2.006907 10.736677-7.138761 21.932353-11.338392 28.312002-3.447864 5.165381-7.696001 10.389241-12.972613 15.695719-5.256435 5.294829-11.48081 10.637324-18.869503 16.060154-0.740346 0.535065-1.743238 0.522198-2.462189 0.022543-7.647599-5.32397-14.475586-10.905918-20.359769-16.763736-5.916011-5.866346-10.879691-12.040391-14.795555-18.496551-4.786495-7.917513-10.040979-20.326907-10.319456-31.573592-0.2139022-8.4321 2.3117028-16.266628 9.6733648-21.270286zm5.398106 21.931343c1.997175-2.552119 2.70691-4.118781 2.706451-5.517545-4.59e-4 -1.398763-0.995282-2.842222-2.717734-2.843209-1.722451-9.87e-4 -2.525386 1.40425-2.524927 2.803014s0.569027 2.523332 2.53621 5.55774zm39.170035 49.623079c2.008825-2.531941 2.70691-4.118781 2.706451-5.517545-4.59e-4 -1.398763-0.975104-2.853872-2.697555-2.854859-1.74263 0.010663-2.545565 1.4159-2.545106 2.814664s0.600856 2.53186 2.53621 5.55774zm-15.2431-0.911722c2.008825-2.531941 2.70691-4.118781 2.706451-5.517545s-0.983632-2.822044-2.706083-2.823031c-1.722452-9.87e-4 -2.525387 1.40425-2.524928 2.803014 0.020637 1.387113 0.589206 2.511682 2.52456 5.537562zm-7.77249-14.533881c2.008825-2.531941 2.70691-4.118782 2.706451-5.517545-4.6e-4 -1.398764-0.963454-2.833695-2.685906-2.834682-1.754279-0.009515-2.537037 1.384072-2.536577 2.782836 0.012109 1.418942 0.580677 2.543511 2.516032 5.569391zm30.908644-0.007818c2.008824-2.53194 2.706909-4.118781 2.70645-5.517545-4.59e-4 -1.398763-0.983632-2.822044-2.685905-2.834681-1.74263 0.010663-2.545565 1.4159-2.545106 2.814664 0.020637 1.387114 0.589206 2.511682 2.524561 5.537562zm-15.673314-1.470465c2.008824-2.531941 2.706909-4.118782 2.70645-5.517545-4.59e-4 -1.398764-0.983632-2.822045-2.706083-2.823032-1.722452-9.87e-4 -2.525387 1.404251-2.524928 2.803014 4.59e-4 1.398764 0.569028 2.523333 2.524561 5.537563zm24.199808-13.864401c2.008825-2.53194 2.70691-4.118781 2.706451-5.517544-4.6e-4 -1.398764-0.983632-2.822045-2.706084-2.823032-1.734101-0.021165-2.537037 1.384072-2.536577 2.782836 4.59e-4 1.398764 0.600855 2.531861 2.53621 5.55774zm-14.65169-1.145561c1.988646-2.520291 2.698381-4.086953 2.697922-5.485717-0.012109-1.418941-0.975104-2.853872-2.697555-2.854859-1.722452-9.87e-4 -2.525387 1.40425-2.524928 2.803014s0.569028 2.523332 2.524561 5.537562zm-17.484547 0.00574c1.988646-2.520291 2.686731-4.107132 2.686272-5.505895-4.59e-4 -1.398764-0.963454-2.833695-2.685905-2.834682-1.74263 0.010663-2.537037 1.384073-2.536578 2.782836 4.59e-4 1.398764 0.580678 2.543511 2.536211 5.557741zm-15.250561 0.007334c2.008825-2.53194 2.70691-4.118781 2.70645-5.517545-4.59e-4 -1.398763-0.963453-2.833694-2.685905-2.834681-1.742629 0.010663-2.525387 1.40425-2.545106 2.814664 4.6e-4 1.398764 0.589206 2.511682 2.524561 5.537562zm54.126037-17.717331c2.008825-2.531941 2.71856-4.098603 2.70645-5.517545-4.59e-4 -1.398764-0.983631-2.822044-2.706083-2.823031-1.722451-9.87e-4 -2.525387 1.40425-2.524928 2.803014 4.6e-4 1.398764 0.569028 2.523332 2.524561 5.537562zm-15.334395 0.001929c2.008825-2.531941 2.686731-4.107131 2.686272-5.505895 0.019719-1.410414-0.963453-2.833694-2.685905-2.834682-1.722451-9.87e-4 -2.525387 1.404251-2.524928 2.803015 4.6e-4 1.398763 0.569028 2.523332 2.524561 5.537562zm-14.82286 0.002537c2.008824-2.531941 2.718559-4.098603 2.70645-5.517545-4.59e-4 -1.398764-0.963453-2.833694-2.685905-2.834682-1.722452-9.87e-4 -2.525387 1.404251-2.545106 2.814665 0.020637 1.387113 0.589206 2.511682 2.524561 5.537562zm-17.192688-0.001343c2.008825-2.531941 2.70691-4.118781 2.706451-5.517545-4.59e-4 -1.398763-0.983632-2.822044-2.706083-2.823031-1.722452-9.87e-4 -2.525387 1.40425-2.524928 2.803014s0.569027 2.523332 2.52456 5.537562zm-1.921914-25.929285c2.174289 0.224393 4.386652 0.561326 6.630842 0.906787 3.941895 0.62978 8.031282 1.282022 12.308285 1.234045 4.068979-0.03549 7.79097-0.112782 11.198409-0.734884 2.50087-0.421536 4.831557-1.417426 7.232375-1.592866 0.343028-0.198051 0.686056-0.396102 1.037612-0.625981 3.829883-2.453363 6.726315-6.197288 7.898161-11.716658-2.859738-0.339826-5.39099-0.250505-7.648885 0.219079-2.774835 0.552809-5.139635 1.676012-7.100643 3.265595-0.67669 0.552121-1.685826 0.435242-2.237946-0.241448-0.363436-0.489681-0.441256-1.090457-0.212444-1.626129 1.421753-3.269166 2.409563-6.637546 2.626644-9.803077 0.177792-2.255003-0.045693-4.412845-0.753454-6.291086-2.330079 0.484356-4.333119 1.721545-6.00143 3.491894-2.145503 2.34181-3.766754 5.591635-4.781594 9.379187-0.230258 0.859361-1.097917 1.360313-1.957277 1.130055-0.477423-0.127921-0.851671-0.449933-1.044316-0.876795-1.719031-3.769578-3.786496-7.257271-6.2161-9.648033-1.587908-1.585314-3.364271-2.658255-5.238174-2.921558-1.148855 2.250664-1.546323 4.497976-1.311187 6.675996 0.301306 2.758618 1.562025 5.501396 3.515883 8.139932 0.531942 0.68834 0.383235 1.688947-0.305105 2.22089-0.530038 0.386736-1.197591 0.395493-1.736386 0.114675-3.273125-1.661607-6.434318-2.849751-9.465684-3.440242-2.397925-0.471937-4.72199-0.582951-6.937245-0.272508 1.870563 6.641574 5.48908 10.57897 10.210083 12.884371 0.095485 0.025585 0.202619 0.071347 0.289576 0.128759zm35.011665 4.34936c-4.985901 1.802487-10.702633 2.385758-16.330354 2.19122-5.156542-0.17063-10.077191-0.585073-14.518363-1.706818-7.123037-1.106893-13.726619-1.73347-20.215216 2.6854-5.987266 4.075613-8.018851 10.575642-7.834114 17.652457 0.260353 10.423112 5.184675 22.027666 9.70322 29.481082 3.741113 6.153488 8.478035 12.027984 14.161884 17.678614 5.373256 5.345675 11.589425 10.47373 18.556145 15.410585 6.653752-4.971599 12.331034-9.863703 17.12421-14.702733 5.049247-5.094493 9.153853-10.100962 12.426358-15.05748 4.00181-6.023295 8.827261-16.584693 10.724142-26.719756 1.343624-7.179003 1.191553-14.059443-1.803119-18.733685-0.701287-1.074846-1.500343-2.039436-2.428996-2.902297-0.97213-0.891568-2.05368-1.693057-3.296654-2.401345-6.107738-3.495682-11.08184-3.583315-16.269143-2.875244z" style="fill:rgb(18.039216%,20.392157%,25.098041%);stroke-width:2.7915;stroke:rgb(18.039216%,20.392157%,25.098041%)"/>
 </g>
</svg>
