
<svg xmlns="http://www.w3.org/2000/svg" xmlns:xlink="http://www.w3.org/1999/xlink" width="22" height="22" viewBox="0 0 22 22" version="1.1">
<g id="surface1">
<path style=" stroke:none;fill-rule:nonzero;fill:rgb(81.960785%,21.568628%,17.647059%);fill-opacity:1;" d="M 15.683594 8.65625 C 14.691406 8.480469 13.703125 8.035156 12.796875 7.46875 C 11.96875 6.957031 11.199219 6.421875 10.578125 5.816406 C 9.515625 4.960938 8.488281 4.230469 7.007812 4.339844 C 5.640625 4.441406 4.691406 5.316406 4.050781 6.496094 C 3.105469 8.230469 2.816406 10.601562 2.851562 12.25 C 2.882812 13.609375 3.101562 15.023438 3.5 16.488281 C 3.878906 17.875 4.410156 19.304688 5.082031 20.773438 C 6.648438 20.585938 8.039062 20.320312 9.285156 19.984375 C 10.59375 19.625 11.742188 19.191406 12.75 18.691406 C 13.972656 18.078125 15.765625 16.804688 17.039062 15.320312 C 17.9375 14.273438 18.566406 13.132812 18.515625 12.082031 C 18.503906 11.839844 18.460938 11.605469 18.390625 11.371094 C 18.316406 11.136719 18.214844 10.902344 18.078125 10.667969 C 17.40625 9.515625 16.597656 9.03125 15.683594 8.65625 Z M 9.109375 8.789062 C 8.988281 9 8.742188 9.179688 8.214844 9.390625 C 8.183594 8.761719 8.195312 8.539062 8.320312 8.324219 C 8.441406 8.113281 8.683594 7.96875 8.949219 8.121094 C 9.207031 8.273438 9.230469 8.578125 9.109375 8.789062 Z M 6.832031 7.476562 C 6.710938 7.6875 6.464844 7.867188 5.9375 8.074219 C 5.90625 7.445312 5.921875 7.226562 6.042969 7.011719 C 6.164062 6.800781 6.410156 6.65625 6.671875 6.808594 C 6.933594 6.957031 6.957031 7.261719 6.832031 7.476562 Z M 8.433594 18.441406 C 8.308594 18.652344 8.066406 18.832031 7.539062 19.042969 C 7.507812 18.414062 7.519531 18.191406 7.644531 17.976562 C 7.765625 17.765625 8.007812 17.621094 8.269531 17.773438 C 8.53125 17.925781 8.554688 18.230469 8.433594 18.441406 Z M 13.460938 14.542969 C 13.722656 14.691406 13.746094 14.996094 13.621094 15.210938 C 13.5 15.421875 13.257812 15.601562 12.730469 15.808594 C 12.699219 15.179688 12.710938 14.957031 12.832031 14.746094 C 12.953125 14.53125 13.199219 14.390625 13.460938 14.542969 Z M 6.199219 16.96875 C 6.074219 17.183594 5.832031 17.359375 5.304688 17.570312 C 5.273438 16.941406 5.285156 16.71875 5.40625 16.507812 C 5.53125 16.292969 5.773438 16.152344 6.035156 16.300781 C 6.296875 16.453125 6.320312 16.757812 6.199219 16.96875 Z M 6.292969 14.082031 C 6.171875 14.292969 5.925781 14.472656 5.398438 14.679688 C 5.367188 14.054688 5.378906 13.832031 5.503906 13.617188 C 5.625 13.40625 5.867188 13.261719 6.132812 13.414062 C 6.390625 13.5625 6.414062 13.871094 6.292969 14.082031 Z M 10.984375 16.789062 C 10.863281 17.003906 10.617188 17.183594 10.089844 17.390625 C 10.0625 16.761719 10.074219 16.539062 10.195312 16.328125 C 10.316406 16.113281 10.5625 15.972656 10.824219 16.121094 C 11.085938 16.273438 11.109375 16.578125 10.984375 16.789062 Z M 16.296875 12.941406 C 16.175781 13.152344 15.929688 13.332031 15.402344 13.539062 C 15.371094 12.910156 15.386719 12.691406 15.507812 12.476562 C 15.628906 12.265625 15.875 12.121094 16.136719 12.273438 C 16.398438 12.421875 16.421875 12.726562 16.296875 12.941406 Z M 8.734375 15.195312 C 8.609375 15.40625 8.367188 15.585938 7.839844 15.792969 C 7.808594 15.167969 7.820312 14.945312 7.941406 14.730469 C 8.066406 14.519531 8.308594 14.375 8.570312 14.527344 C 8.832031 14.675781 8.855469 14.980469 8.734375 15.195312 Z M 11.496094 13.753906 C 11.375 13.964844 11.128906 14.144531 10.601562 14.351562 C 10.570312 13.722656 10.582031 13.5 10.707031 13.289062 C 10.828125 13.078125 11.074219 12.933594 11.335938 13.085938 C 11.597656 13.234375 11.617188 13.539062 11.496094 13.753906 Z M 13.808594 10.929688 C 14.070312 11.078125 14.089844 11.382812 13.96875 11.597656 C 13.847656 11.808594 13.601562 11.988281 13.074219 12.195312 C 13.042969 11.566406 13.058594 11.347656 13.179688 11.132812 C 13.300781 10.917969 13.542969 10.777344 13.808594 10.929688 Z M 8.839844 12.21875 C 8.71875 12.429688 8.472656 12.609375 7.949219 12.820312 C 7.917969 12.191406 7.929688 11.96875 8.050781 11.753906 C 8.171875 11.542969 8.417969 11.398438 8.679688 11.550781 C 8.941406 11.703125 8.964844 12.007812 8.839844 12.21875 Z M 11.558594 9.628906 C 11.820312 9.78125 11.839844 10.085938 11.71875 10.296875 C 11.597656 10.507812 11.351562 10.6875 10.824219 10.898438 C 10.792969 10.269531 10.808594 10.046875 10.929688 9.832031 C 11.050781 9.621094 11.296875 9.476562 11.558594 9.628906 Z M 6.527344 10.882812 C 6.40625 11.097656 6.160156 11.273438 5.636719 11.484375 C 5.605469 10.855469 5.613281 10.632812 5.738281 10.417969 C 5.859375 10.207031 6.105469 10.0625 6.367188 10.214844 C 6.628906 10.367188 6.652344 10.671875 6.527344 10.882812 Z M 6.527344 10.882812 "/>
<path style=" stroke:none;fill-rule:nonzero;fill:rgb(29.411766%,62.7451%,25.882354%);fill-opacity:1;" d="M 9.5625 5.367188 C 9.929688 5.632812 10.289062 5.921875 10.652344 6.222656 C 11.296875 6.738281 11.964844 7.28125 12.730469 7.714844 C 13.464844 8.128906 14.136719 8.496094 14.8125 8.742188 C 15.308594 8.917969 15.824219 8.988281 16.273438 9.203125 C 16.355469 9.203125 16.441406 9.203125 16.523438 9.199219 C 17.464844 9.15625 18.371094 8.78125 19.152344 7.914062 C 18.675781 7.5625 18.210938 7.3125 17.757812 7.160156 C 17.203125 6.972656 16.664062 6.933594 16.148438 7.015625 C 15.96875 7.042969 15.800781 6.917969 15.773438 6.742188 C 15.753906 6.613281 15.804688 6.496094 15.902344 6.425781 C 16.492188 5.984375 17.019531 5.484375 17.386719 4.941406 L 17.390625 4.9375 C 17.652344 4.554688 17.835938 4.148438 17.90625 3.734375 C 17.4375 3.582031 16.949219 3.597656 16.46875 3.742188 C 15.839844 3.9375 15.214844 4.351562 14.640625 4.929688 C 14.515625 5.058594 14.304688 5.058594 14.175781 4.929688 C 14.101562 4.855469 14.070312 4.757812 14.082031 4.660156 C 14.164062 3.8125 14.152344 2.96875 13.964844 2.292969 C 13.839844 1.839844 13.632812 1.46875 13.328125 1.226562 C 12.890625 1.507812 12.585938 1.871094 12.402344 2.289062 C 12.167969 2.808594 12.113281 3.429688 12.191406 4.105469 C 12.214844 4.285156 12.085938 4.449219 11.90625 4.472656 C 11.773438 4.488281 11.648438 4.421875 11.585938 4.316406 C 11.171875 3.679688 10.726562 3.140625 10.246094 2.71875 C 9.863281 2.386719 9.460938 2.125 9.03125 1.953125 C 8.679688 3.34375 8.921875 4.417969 9.527344 5.320312 C 9.539062 5.332031 9.550781 5.351562 9.5625 5.367188 Z M 9.5625 5.367188 "/>
</g>
</svg>
