<svg width="22" height="22" viewBox="0 0 6.2089 6.2089" xmlns="http://www.w3.org/2000/svg">
 <path d="m1.411 3.104 0.847-0.847v0.564h1.693v-0.564l0.847 0.847-0.847 0.847v-0.564h-1.693v0.564z" fill="#2e3440" fill-rule="evenodd"/>
 <rect transform="matrix(.70711 .70711 -.70711 .70711 0 0)" x="5.842" y="-.282" width="2.258" height=".564" fill="#2e3440"/>
 <rect transform="matrix(-.70711 .70711 -.70711 -.70711 0 0)" x="-1.129" y="-7.253" width="2.258" height=".564" fill="#2e3440"/>
 <path transform="scale(.28222)" d="m10.996 2c-4.959 0-8.996 4.04-8.996 8.996 0 4.959 4.04 9 8.996 9 0.389 0 0.772-0.028 1.148-0.076l-0.336-0.334 2.125-2.125-0.078-0.076c-0.873 0.39-1.839 0.611-2.859 0.611-3.878 0-6.996-3.126-6.996-7 0-3.878 3.118-6.996 6.996-6.996s7 3.118 7 6.996c0 1.02-0.222 1.986-0.611 2.859l0.076 0.078 2.125-2.125 0.334 0.334c0.048-0.376 0.076-0.758 0.076-1.146 0-4.959-4.045-8.996-9-8.996z" color-rendering="auto" fill="#2e3440" image-rendering="auto" shape-rendering="auto" solid-color="#000000" isolation="auto" mix-blend-mode="normal" white-space="normal"/>
</svg>
