<svg width="22" height="22" viewBox="0 0 6.2089 6.2089" xmlns="http://www.w3.org/2000/svg">
 <path d="m1.411 3.104 0.847-0.847v0.564h1.693v-0.564l0.847 0.847-0.847 0.847v-0.564h-1.693v0.564z" fill="#2e3440" fill-rule="evenodd"/>
 <g transform="matrix(.28222 0 0 .28222 -3.7701 -2.3835)">
  <path d="m30.565 21.238 1.414 1.414-1.793 1.793h5.172v2h-5.172l1.793 1.793-1.414 1.414-4.207-4.207z" fill="#2e3440"/>
 </g>
 <path transform="scale(.28222)" d="m10.996 2c-4.959 0-8.996 4.04-8.996 8.996 0 4.959 4.04 9 8.996 9 0.873 0 1.716-0.132 2.516-0.365l-1.686-1.688c-0.272 0.032-0.549 0.053-0.83 0.053-3.878 0-6.996-3.126-6.996-7 0-3.878 3.118-6.996 6.996-6.996s7 3.118 7 6.996c0 0.151-0.012 0.299-0.021 0.447l1.74 1.74c0.177-0.702 0.281-1.432 0.281-2.188 0-4.959-4.045-8.996-9-8.996z" color-rendering="auto" fill="#2e3440" image-rendering="auto" shape-rendering="auto" solid-color="#000000" isolation="auto" mix-blend-mode="normal" white-space="normal"/>
</svg>
