<svg width="22" height="22" viewBox="0 0 6.2089 6.2089" xmlns="http://www.w3.org/2000/svg">
 <path d="m1.411 3.104 0.847-0.847v0.564h1.693v-0.564l0.847 0.847-0.847 0.847v-0.564h-1.693v0.564z" fill="#2e3440" fill-rule="evenodd"/>
 <path d="m5.599 3.599 0.399 0.399-1.796 1.796-1.098-1.098 0.399-0.399 0.698 0.698" fill="#2e3440"/>
 <path transform="scale(.28222)" d="m10.996 2c-4.959 0-8.996 4.04-8.996 8.996 0 4.959 4.04 9 8.996 9 0.393 0 0.777-0.035 1.156-0.084l-1.967-1.965c-3.492-0.401-6.186-3.352-6.186-6.955 0-3.878 3.118-6.996 6.996-6.996s7 3.118 7 6.996c0 0.584-0.079 1.148-0.213 1.689l0.988-0.99 1.066-1.064 0.146 0.146c-0.118-4.857-4.107-8.777-8.992-8.777z" color-rendering="auto" fill="#2e3440" image-rendering="auto" shape-rendering="auto" solid-color="#000000" isolation="auto" mix-blend-mode="normal" white-space="normal"/>
</svg>
