<svg width="22px" height="22px" version="1.1" viewBox="0 0 22 22" xmlns="http://www.w3.org/2000/svg">
 <path d="m6.4531 18.523c-0.78516-1.5977-0.96484-2.4961-0.96484-2.4961s1.0977 1.1445 2.2227 1.207l-1.2656-1.8281s-2.9844-1-3.793-1.332c0.37109 3.1836 3.8008 4.4492 3.8008 4.4492z" fill="#5e81ac"/>
 <path d="m2.5 14.586 12.688 4.1523 3.5352-9.8398-15.195-2.7891c-1.8398 1.3594-1.0273 8.4766-1.0273 8.4766z" fill="#2e3440"/>
 <path transform="scale(1.7323)" d="m1.4432 8.4201 7.3241 2.397 1.8558-5.4097-6.1561 2.1648-2.6158-3.7748c-1.0621 0.78248-0.40815 4.6227-0.40815 4.6227z" fill="none" stroke="#7a88a1" stroke-width=".1688"/>
 <path d="m9.6289 1.6562c-0.92969 0.046875-1.9688 0.59375-2.7852 1.5039-3.0273 1.3516-4.4336 3.4531-5.0078 5.418-1.2734 4.3711 1.3008 8.918 4.6172 9.9453-3.8789-1.9062-3.9766-5.5469-3.9102-7.4492 0.38281 0.58203 1.1523 0.65234 1.1523 0.65234-0.085937-0.13281-0.16406-0.26562-0.23437-0.39453-0.25781-0.63672-0.44922-1.7695-0.12891-2.7969 0.19922-0.64453 0.84766-1.5547 1.7266-1.8359 0.058594 0.47656 0.21484 0.91016 0.10938 1.418h-0.003907c-0.57812 1.0078 0.03125 1.6836 0.03125 1.6836 0.80078-0.88672 1.0039-0.73438 1.75-1.1641 0.85547-0.49219 1.6211-1.0234 1.9062-0.98438 1.1445-0.16406 1.6875 0.12891 2.9414 0.35938 0.79688 0.14453 1.6562 0.24609 2.332 0.33203 0.28125 0.63672 0.42578 1.3008 0.48047 1.9141 0 0 0.1875 2.043-0.4375 3.2461 0.49219-0.28125 0.88672-0.59766 1.1953-0.90625 0.058594 1.6992-1.1758 3.0898-1.1758 3.0898 0.46875-0.14453 0.85938-0.30469 1.1836-0.46484-0.20312 1.1172-1.0117 3.4336-4.2227 4.9648 2.6484-0.33984 3.7305-1.625 3.7305-1.625s-0.24219 0.88672-1.8516 1.7812c5.6367-1.0273 7.1406-6.1953 7.1406-6.1953 0-0.003907-0.003907-0.007813-0.003907-0.011719 0.79297-2.4922 0.035157-5.5547-0.94922-7.2539-0.58594-1.0234-1.4609-1.8867-2.0078-2.375-0.082031-0.074218-0.16797-0.14844-0.25781-0.21875-0.15234-0.12891-0.24609-0.19922-0.24609-0.19922l-0.003906 0.007812c-0.078125-0.058594-0.16016-0.11328-0.23828-0.16797-0.90234-0.61719-1.918-1-2.4453-1.1172-2.0156-0.74219-3.4297-0.60547-4.3477-0.51172 0 0 0.042969-0.09375 0.19141-0.21875 0.003906-0.003906 0.007813-0.007812 0.015625-0.011719 0-0.003906 0.003906-0.003906 0.003906-0.007812 0.015625-0.011719 0.03125-0.023438 0.046875-0.035156 0.015625-0.011719 0.023438-0.019532 0.023438-0.019532-0.39453-0.019531-1.0273 0.41016-1.1875 0.49609 0.003906-0.007812 0.003906-0.011718 0.007812-0.019531v-0.003906c0.007813-0.015625 0.011719-0.03125 0.023438-0.046875 0.003906-0.011719 0.011719-0.023438 0.019531-0.035156 0.003906-0.011719 0.015625-0.023438 0.023438-0.035157 0-0.003906 0-0.003906 0.003906-0.007812 0.011718-0.015625 0.019531-0.03125 0.03125-0.046875 0.003906-0.003906 0.003906-0.003906 0.007812-0.007813 0 0 0-0.003906 0.003906-0.003906 0-0.003906 0.003907-0.003906 0.003907-0.007813 0.20703-0.25781 0.59375-0.53125 0.70703-0.61328h0.003906c0.019532-0.015625 0.03125-0.019531 0.03125-0.019531z" fill="#5e81ac"/>
</svg>
