<svg width="22" height="22" version="1.1" viewBox="0 0 22 22" xmlns="http://www.w3.org/2000/svg">
 <g id="surface1">
  <path d="m6.449219 18.523438c-0.777344-1.597657-0.960938-2.496094-0.960938-2.496094s1.097657 1.144531 2.21875 1.207031l-1.261719-1.828125s-2.988281-1-3.792968-1.332031c0.371094 3.183593 3.796875 4.453125 3.796875 4.453125z" style="fill:rgb(36.862746%,50.588238%,67.450982%)"/>
  <path d="m2.503906 14.582031 12.679688 4.152344 3.539062-9.835937-15.195312-2.792969c-1.839844 1.359375-1.023438 8.476562-1.023438 8.476562z" style="fill:rgb(53.333336%,75.294119%,81.568629%)"/>
  <path transform="scale(1.732225)" d="m1.445486 8.418093 7.319885 2.397116 1.858159-5.407604-6.15628 2.164845-2.615856-3.777205c-1.059872 0.784757-0.405908 4.622848-0.405908 4.622848z" style="fill:none;stroke-width:.1688;stroke:rgb(47.843137%,53.333336%,63.137257%)"/>
  <path d="m9.628906 1.652344c-0.933594 0.050781-1.96875 0.597656-2.785156 1.507812-3.023438 1.351563-4.433594 3.453125-5.007812 5.417969-1.273438 4.371094 1.300781 8.914063 4.613281 9.945313-3.875-1.90625-3.972657-5.546876-3.910157-7.449219 0.386719 0.582031 1.15625 0.652343 1.15625 0.652343-0.085937-0.136718-0.160156-0.265624-0.230468-0.394531-0.257813-0.636719-0.453125-1.773437-0.132813-2.796875 0.195313-0.644531 0.847657-1.554687 1.722657-1.835937 0.0625 0.476562 0.21875 0.910156 0.113281 1.417969-0.582031 1.007812 0.027343 1.683593 0.027343 1.683593 0.804688-0.886719 1.003907-0.734375 1.75-1.164062 0.851563-0.488281 1.621094-1.019531 1.90625-0.984375 1.144532-0.164063 1.6875 0.128906 2.9375 0.355468 0.800782 0.144532 1.660157 0.253907 2.332032 0.332032 0.285156 0.640625 0.429687 1.300781 0.484375 1.917968 0 0 0.1875 2.046876-0.4375 3.246094 0.496093-0.28125 0.886719-0.597656 1.191406-0.910156 0.066406 1.703125-1.175781 3.09375-1.175781 3.09375 0.472656-0.144531 0.859375-0.304688 1.1875-0.464844-0.203125 1.117188-1.015625 3.429688-4.226563 4.960938 2.652344-0.335938 3.734375-1.621094 3.734375-1.621094s-0.242187 0.886719-1.847656 1.785156c5.632812-1.027344 7.136719-6.199218 7.136719-6.199218 0-0.007813-0.003907-0.007813-0.003907-0.011719 0.792969-2.492188 0.035157-5.554688-0.953124-7.257813-0.585938-1.019531-1.460938-1.882812-2.003907-2.367187-0.085937-0.082031-0.171875-0.148438-0.257812-0.226563-0.148438-0.121094-0.246094-0.199218-0.246094-0.199218l-0.003906 0.011718c-0.082031-0.058594-0.15625-0.113281-0.242188-0.164062-0.898437-0.621094-1.914062-1-2.445312-1.117188-2.011719-0.75-3.425781-0.609375-4.34375-0.515625 0 0 0.042969-0.09375 0.1875-0.214843 0.003906-0.007813 0.011719-0.011719 0.015625-0.019532 0.007812 0 0.007812-0.003906 0.007812-0.003906 0.015625-0.011719 0.03125-0.019531 0.046875-0.03125 0.015625-0.015625 0.019531-0.023438 0.019531-0.023438-0.390624-0.019531-1.023437 0.410157-1.183593 0.496094 0.003906-0.007812 0.003906-0.011718 0.003906-0.015625 0.003906 0 0.003906-0.007812 0.003906-0.007812 0.007813-0.015625 0.011719-0.03125 0.023438-0.046875 0.003906-0.011719 0.011719-0.023438 0.015625-0.039063 0.011718-0.007812 0.015625-0.019531 0.027344-0.03125 0-0.003906 0-0.003906 0.003906-0.003906 0.011718-0.015625 0.023437-0.039063 0.03125-0.050781 0-0.003906 0.007812-0.003906 0.007812-0.003906 0-0.003907 0-0.003907 0.003906-0.011719l0.007813-0.003907c0.203125-0.257812 0.589844-0.53125 0.703125-0.613281h0.003906c0.015625-0.015625 0.03125-0.019531 0.03125-0.019531z" style="fill:rgb(36.862746%,50.588238%,67.450982%)"/>
 </g>
</svg>
