<svg viewBox="0 0 22 22" xmlns="http://www.w3.org/2000/svg">
 <rect x="3.5" y="3.5" width="15" height="15" rx="2" fill="none" stroke="#2e3340"/>
 <rect x="3" y="14" width="16" height="1" fill="#2e3340"/>
 <rect transform="rotate(90)" x="14" y="-12" width="5" height="2" fill="#2e3340"/>
 <g transform="matrix(.99967 0 0 .99951 -37.982 -758.62)" fill="#bf616a">
  <path d="m45 764h1.031c0.255 0.011 0.51 0.129 0.688 0.313l2.281 2.28 2.312-2.28c0.266-0.23 0.447-0.3 0.688-0.31h1v1c0 0.286-0.034 0.551-0.25 0.75l-2.281 2.281 2.25 2.25c0.188 0.19 0.281 0.45 0.281 0.72v1h-1c-0.265 0-0.531-0.093-0.719-0.281l-2.281-2.28-2.281 2.28c-0.188 0.19-0.454 0.28-0.719 0.28h-1v-1c0-0.265 0.093-0.531 0.281-0.719l2.281-2.25-2.281-2.28c-0.21-0.19-0.303-0.47-0.281-0.75v-1z" color="#bebebe"/>
 </g>
</svg>
