<svg viewBox="0 0 22 22" xmlns="http://www.w3.org/2000/svg">
 <path d="m9.03 5c-0.392 0.011-0.792 0.084-1.188 0.219-1.691 0.575-2.966 2.242-3.344 4.313-1.11 0.268-2.047 1.248-2.375 2.656-0.465 2 0.503 4.063 2.156 4.625 0.027 8e-3 0.035 0.024 0.063 0.031 0.228 0.099 0.493 0.156 0.75 0.156h11.969c0.429 0 0.821-0.147 1.156-0.406 1.34-0.774 2.072-2.619 1.656-4.406-0.307-1.321-1.167-2.29-2.188-2.625-9e-3 -0.044 0.01-0.081 0-0.125-0.465-2-2.191-3.156-3.844-2.594-0.317 0.108-0.609 0.255-0.875 0.469-0.911-1.481-2.392-2.354-3.938-2.313zm-1.031 4h0.781c0.191 8e-3 0.367 0.112 0.5 0.25l1.719 1.688 1.75-1.688c0.199-0.172 0.319-0.243 0.5-0.25h0.75v0.75c0 0.215-0.026 0.413-0.188 0.563l-1.719 1.719 1.688 1.688c0.141 0.142 0.219 0.329 0.219 0.531v0.75h-0.75c-0.199 0-0.39-0.078-0.531-0.219l-1.719-1.688-1.719 1.688c-0.141 0.142-0.333 0.219-0.531 0.219h-0.75v-0.75c0-0.199 0.078-0.39 0.219-0.531l1.719-1.688-1.719-1.719c-0.157-0.142-0.235-0.353-0.219-0.563v-0.75z" fill="#bf616a"/>
</svg>
