<svg viewBox="0 0 22 22" xmlns="http://www.w3.org/2000/svg">
 <g transform="translate(3,3)" fill="#a3be8c">
  <path d="m8 0c-4.418 0-8 3.134-8 7s3.582 7 8 7 8-3.134 8-7-3.582-7-8-7zm2.875 3c0.402-0.011 0.809 0.206 1 0.531s0.169 0.728-0.063 1.031l-3.625 5.03c-0.178 0.244-0.468 0.384-0.781 0.406-0.313 0.023-0.649-0.072-0.875-0.281l-2.188-2c-0.442-0.36-0.451-1.054-0.031-1.438 0.419-0.384 1.173-0.379 1.563 0.031l1.25 1.125 2.875-3.969c0.191-0.271 0.523-0.458 0.875-0.469z"/>
  <path d="m8.336 12 5.664 4-1-6z"/>
 </g>
</svg>
