<svg viewBox="0 0 22 22" xmlns="http://www.w3.org/2000/svg">
 <path d="m3 4c-0.554 0-1 0.446-1 1v13c0 0.554 0.446 1 1 1h6c0.554 0 1-0.446 1-1v-13c0-0.554-0.446-1-1-1h-6zm0.5 1h5c0.277 0 0.5 0.223 0.5 0.5v7c0 0.277-0.223 0.5-0.5 0.5h-5c-0.277 0-0.5-0.223-0.5-0.5v-7c0-0.277 0.223-0.5 0.5-0.5zm0 10c0.277 0 0.5 0.223 0.5 0.5s-0.223 0.5-0.5 0.5-0.5-0.223-0.5-0.5 0.223-0.5 0.5-0.5zm2 0c0.277 0 0.5 0.223 0.5 0.5 0-0.277 0.223-0.5 0.5-0.5s0.5 0.223 0.5 0.5-0.223 0.5-0.5 0.5-0.5-0.223-0.5-0.5c0 0.277-0.223 0.5-0.5 0.5s-0.5-0.223-0.5-0.5 0.223-0.5 0.5-0.5zm3 0c0.277 0 0.5 0.223 0.5 0.5s-0.223 0.5-0.5 0.5-0.5-0.223-0.5-0.5 0.223-0.5 0.5-0.5zm-5 2c0.277 0 0.5 0.223 0.5 0.5s-0.223 0.5-0.5 0.5-0.5-0.223-0.5-0.5 0.223-0.5 0.5-0.5zm2 0c0.277 0 0.5 0.223 0.5 0.5 0-0.277 0.223-0.5 0.5-0.5s0.5 0.223 0.5 0.5-0.223 0.5-0.5 0.5-0.5-0.223-0.5-0.5c0 0.277-0.223 0.5-0.5 0.5s-0.5-0.223-0.5-0.5 0.223-0.5 0.5-0.5zm3 0c0.277 0 0.5 0.223 0.5 0.5s-0.223 0.5-0.5 0.5-0.5-0.223-0.5-0.5 0.223-0.5 0.5-0.5z" fill="#2e3440" fill-rule="evenodd"/>
 <path d="m15.75 2c-0.821-0.099-1.688 0.466-1.75 1.375v0.031c-1e-3 0.201 0 0.393 0 0.594h-0.5c-0.822 0-1.5 0.678-1.5 1.5v12c0 0.822 0.678 1.5 1.5 1.5h5c0.822 0 1.5-0.678 1.5-1.5v-12c0-0.822-0.678-1.5-1.5-1.5h-0.5c4e-3 -0.135 5e-3 -0.243 0-0.406-0.01-0.315-0.078-0.699-0.344-1.031-0.288-0.372-0.716-0.529-1.063-0.563-0.334-0.033-0.602 6e-3 -0.813 0h-0.031zm-0.094 1h0.031c0.321 0.014 0.609-0.02 0.813 0 0.203 0.02 0.285 0.041 0.375 0.156v0.031c0.085 0.106 0.118 0.222 0.125 0.438 3e-3 0.099 4e-3 0.25 0 0.375h-2c0-0.19-1e-3 -0.372 0-0.563 0.019-0.275 0.361-0.479 0.656-0.438zm-2.156 2h5c0.286 0 0.5 0.214 0.5 0.5v12c0 0.286-0.214 0.5-0.5 0.5h-5c-0.286 0-0.5-0.214-0.5-0.5v-12c0-0.286 0.214-0.5 0.5-0.5z" fill="#2e3440"/>
 <rect x="14" y="14" width="4" height="3" rx=".5" fill="#2e3440" fill-rule="evenodd"/>
</svg>
