<svg viewBox="0 0 22 22" xmlns="http://www.w3.org/2000/svg">
 <path d="m11.951 6.223-0.021 0.402c0.798 0.198 1.523 0.608 2.105 1.174 0.151-0.021 0.295-0.037 0.443-0.055-0.191-0.212-0.4-0.403-0.621-0.578-0.059-0.029-0.121-0.05-0.18-0.08-0.328-0.167-0.542-0.32-0.957-0.553-0.088-0.049-0.196-0.108-0.297-0.164-0.156-0.055-0.312-0.107-0.473-0.146zm-2.811 0.08-0.988 0.025c-0.028 0.022-0.055 0.04-0.082 0.063l0.268 0.346-0.518 0.465c-0.759 0.685-1.261 1.62-1.471 2.635 0.132-0.052 0.27-0.103 0.404-0.154 0.216-0.779 0.631-1.496 1.234-2.063l0.586-0.551 0.35 0.43 0.217-1.195zm1.234 1.602-0.119 0.66c0.584-0.153 1.157-0.285 1.721-0.402-0.281-0.115-0.577-0.186-0.881-0.207l-0.721-0.051zm6.447 0.449c-0.053 1e-3 -0.113 8e-3 -0.166 0.01 0.105 0.231 0.21 0.462 0.289 0.707 0.485 1.494 0.392 3.046-0.158 4.42 2.758-1.3 4.466-2.762 4.182-3.836-0.23-0.872-1.747-1.349-4.146-1.301zm-1.797 0.127c-0.123 0.013-0.252 0.034-0.377 0.049 0.226 0.338 0.412 0.707 0.543 1.109 0.551 1.696 0.12 3.534-1.148 4.732l-0.387 0.367c0.318-0.106 0.61-0.221 0.914-0.332 1.122-1.288 1.513-3.131 0.947-4.873-0.123-0.378-0.293-0.726-0.492-1.053zm-2.094 0.313c-0.89 0.163-1.797 0.357-2.715 0.605-0.041 0.011-0.078 0.024-0.119 0.035l-0.275 1.527-0.947-1.156c-0.214 0.067-0.441 0.127-0.648 0.197-0.186 0.597-0.198 1.257 0.01 1.896 0.398 1.224 1.443 2.061 2.646 2.158l0.729 0.059-6e-3 0.109 0.623-3.17 1.295 1.582c0.43-0.732 0.532-1.636 0.24-2.533-0.167-0.513-0.462-0.957-0.832-1.311zm-6.332 1.813c-0.119 0.048-0.237 0.094-0.354 0.143-0.015 0.574 0.053 1.155 0.236 1.721 0.543 1.672 1.862 2.849 3.439 3.281 0.033-7e-3 0.068-0.016 0.102-0.023l0.018-0.348c-1.496-0.384-2.734-1.488-3.23-3.02-0.188-0.579-0.25-1.176-0.211-1.758zm-1.832 0.811c-2.504 1.247-4.01 2.615-3.736 3.633 0.308 1.168 2.879 1.544 6.326 1.125-1.05-0.799-1.87-1.915-2.301-3.242-0.163-0.5-0.252-1.01-0.289-1.516zm8.318 3.055-0.092 0.467c0.126-0.039 0.257-0.075 0.381-0.115l-0.289-0.352z" fill="#2e3440" fill-opacity=".941"/>
 <g transform="matrix(.30902 .95106 -.95106 .30902 18.062 -2.8608)">
  <g transform="matrix(.34783 0 0 .34783 2.6436 2.6457)" fill="#2e3440">
   <path transform="matrix(2.875 0 0 2.875 97.068 -33.481)" d="m-25.406 14.5c2.304 0 4.367 1.303 5.281 3.313l1.219-0.469-1 3.469-3.313-1.844 1.281-0.5c-0.621-1.31-1.954-2.125-3.469-2.125-1.573 0-2.996 0.94-3.563 2.344l-1.781-0.688c0.845-2.104 2.985-3.5 5.344-3.5zm-5.5 4.719 3.313 1.781-1.281 0.5c0.613 1.305 1.964 2.156 3.469 2.156 1.576 0 2.979-0.91 3.563-2.313l1.781 0.688c-0.877 2.103-2.979 3.469-5.344 3.469-2.292 0-4.387-1.339-5.281-3.344l-1.219 0.438z"/>
  </g>
 </g>
</svg>
