<svg width="32" height="32" version="1.1" viewBox="0 0 32 32" xmlns="http://www.w3.org/2000/svg">
 <g fill="#2e333f">
  <path d="m4.9297 6.5522h22.078c0.54688 0 0.99219 0.64626 0.99219 1.4469 0 0.8064-0.44531 1.4527-0.99219 1.4527h-22.078c-0.54688 0-0.99219-0.64626-0.99219-1.4527 0-0.80068 0.44531-1.4469 0.99219-1.4469z"/>
  <path d="m4.9609 22.547h22.078c0.54688 0 0.99219 0.65198 0.99219 1.4527 0 0.80068-0.44531 1.4527-0.99219 1.4527h-22.078c-0.54688 0-0.99219-0.65198-0.99219-1.4527 0-0.80068 0.44531-1.4527 0.99219-1.4527z"/>
  <path d="m4.9609 14.547h22.078c0.54688 0 0.99219 0.65198 0.99219 1.4527s-0.44531 1.4527-0.99219 1.4527h-22.078c-0.54688 0-0.99219-0.65198-0.99219-1.4527s0.44531-1.4527 0.99219-1.4527z"/>
 </g>
</svg>
