<svg width="32" height="32" version="1.1" viewBox="0 0 32 32" xmlns="http://www.w3.org/2000/svg">
 <g fill="currentColor">
  <path d="m14 8v10h10v-2h-8v-8z"/>
  <path d="m16 0c-8.8359 0-16 7.1641-16 16s7.1641 16 16 16c1.8398-0.011719 3.6641-0.34375 5.3906-0.97656-0.67578-0.41016-1.2812-0.92969-1.7852-1.5352-1.1758 0.32812-2.3867 0.5-3.6055 0.51172-7.7305 0-14-6.2695-14-14s6.2695-14 14-14 14 6.2695 14 14c-0.011719 1.2188-0.18359 2.4297-0.51172 3.6055 0.60547 0.50391 1.125 1.1094 1.5352 1.7852 0.63281-1.7266 0.96484-3.5508 0.97656-5.3906 0-8.8359-7.1641-16-16-16z"/>
  <path d="m25.008 19.562c-3.0078 0-5.4453 2.4375-5.4453 5.4453s2.4375 5.4453 5.4453 5.4453 5.4453-2.4375 5.4453-5.4453-2.4375-5.4453-5.4453-5.4453zm-0.78125 1.5547h1.5586v3.1133h3.1094v1.5547h-3.1094v3.1133h-1.5586v-3.1133h-3.1094v-1.5547h3.1094z"/>
 </g>
</svg>
