
<svg xmlns="http://www.w3.org/2000/svg" xmlns:xlink="http://www.w3.org/1999/xlink" width="32" height="32" viewBox="0 0 32 32" version="1.1">
<g id="surface1">
<path style=" stroke:none;fill-rule:nonzero;fill:rgb(18.039216%,20.392157%,25.098041%);fill-opacity:1;" d="M 14 8 L 14 18 L 24 18 L 24 16 L 16 16 L 16 8 Z M 14 8 "/>
<path style=" stroke:none;fill-rule:nonzero;fill:rgb(18.039216%,20.392157%,25.098041%);fill-opacity:1;" d="M 16 0 C 7.164062 0 0 7.164062 0 16 C 0 24.835938 7.164062 32 16 32 C 17.839844 31.988281 19.664062 31.65625 21.390625 31.023438 C 20.714844 30.613281 20.109375 30.09375 19.605469 29.488281 C 18.429688 29.816406 17.21875 29.988281 16 30 C 8.269531 30 2 23.730469 2 16 C 2 8.269531 8.269531 2 16 2 C 23.730469 2 30 8.269531 30 16 C 29.988281 17.21875 29.816406 18.429688 29.488281 19.605469 C 30.09375 20.109375 30.613281 20.714844 31.023438 21.390625 C 31.65625 19.664062 31.988281 17.839844 32 16 C 32 7.164062 24.835938 0 16 0 Z M 16 0 "/>
<path style=" stroke:none;fill-rule:nonzero;fill:rgb(18.039216%,20.392157%,25.098041%);fill-opacity:1;" d="M 25.007812 19.5625 C 22 19.5625 19.5625 22 19.5625 25.007812 C 19.5625 28.015625 22 30.453125 25.007812 30.453125 C 28.015625 30.453125 30.453125 28.015625 30.453125 25.007812 C 30.453125 22 28.015625 19.5625 25.007812 19.5625 Z M 24.226562 21.117188 L 25.785156 21.117188 L 25.785156 24.230469 L 28.894531 24.230469 L 28.894531 25.785156 L 25.785156 25.785156 L 25.785156 28.898438 L 24.226562 28.898438 L 24.226562 25.785156 L 21.117188 25.785156 L 21.117188 24.230469 L 24.226562 24.230469 Z M 24.226562 21.117188 "/>
</g>
</svg>
