<svg viewBox="0 0 32 32" xmlns="http://www.w3.org/2000/svg">
 <defs>
  <style id="current-color-scheme" type="text/css">
   .ColorScheme-Text { color:#2e3440; } .ColorScheme-Highlight { color:#88c0d0; } .ColorScheme-NeutralText { color:#d08770; } .ColorScheme-PositiveText { color:#a3be8c; } .ColorScheme-NegativeText { color:#bf616a; }
  </style>
 </defs>
 <path class="ColorScheme-Text" d="m23.779 3.9805-19.799 19.799 4.2422 4.2441 19.799-19.799-4.2422-4.2441zm-17.529 0.019531-0.79688 1.4531-1.4531 0.79688 1.4531 0.79688 0.79688 1.4531 0.79688-1.4531 1.4531-0.79688-1.4531-0.79688-0.79688-1.4531zm7.5 0-0.79688 1.4531-1.4531 0.79688 1.4531 0.79688 0.79688 1.4531 0.79688-1.4531 1.4531-0.79688-1.4531-0.79688-0.79688-1.4531zm10.027 1.3945 2.8281 2.8281-5.6582 5.6582-2.8281-2.8281 5.6582-5.6582zm-14.527 4.6055-0.79688 1.4531-1.4531 0.79688 1.4531 0.79688 0.79688 1.4531 0.79688-1.4531 1.4531-0.79688-1.4531-0.79688-0.79688-1.4531z" fill="currentColor"/>
</svg>
