<?xml version="1.0" encoding="UTF-8"?>
<svg width="32" height="32" version="1.1" viewBox="0 0 32 32" xmlns="http://www.w3.org/2000/svg">
 <defs>
  <style id="current-color-scheme" type="text/css">.ColorScheme-Text { color:#2e3440; } .ColorScheme-Highlight { color:#88c0d0; } .ColorScheme-NeutralText { color:#d08770; } .ColorScheme-PositiveText { color:#a3be8c; } .ColorScheme-NegativeText { color:#bf616a; }</style>
 </defs>
 <path class="ColorScheme-Text" d="m14.739 5.4401c-2.3454 0-3.3284 0.93251-3.3284 3.3129v3.2226c0 1.4702-0.04514 3.1737-1.3406 3.1737h-0.67031v1.7016h0.67031c1.2956 0 1.3406 1.7035 1.3406 3.1737v3.2226c0 2.3804 0.98294 3.3129 3.3284 3.3129v-1.5624c-1.5637 0-1.5856-0.6314-1.5856-2.9184v-2.6606c0-1.0968-0.2702-2.729-1.5881-3.4057 1.3179-0.67678 1.5881-2.3115 1.5881-3.4082v-2.6838c0-2.287 0.0219-2.9184 1.5856-2.9184v-1.5624zm2.5007 0v1.5624c1.5637 0 1.6062 0.63141 1.6062 2.9184v2.6838c0 1.0968 0.2702 2.7315 1.5881 3.4082-1.3179 0.67676-1.5881 2.3088-1.5881 3.4057v2.6606c0 2.287-0.04249 2.9184-1.6062 2.9184v1.5624c2.3454 0 3.349-0.93251 3.349-3.3129v-3.2226c0-1.4702 0.09061-3.1737 1.3638-3.1737h0.6471v-1.7016h-0.6471c-1.2732 0-1.3638-1.7035-1.3638-3.1737v-3.2226c0-2.3804-1.0036-3.3129-3.349-3.3129z" fill="currentColor" stroke-width="1.32"/>
</svg>
