<svg version="1.1" viewBox="0 0 32 32" xmlns="http://www.w3.org/2000/svg" xmlns:xlink="http://www.w3.org/1999/xlink">
 <defs>
  <style id="current-color-scheme" type="text/css">
   .ColorScheme-Text { color:#2e3440; } .ColorScheme-Highlight { color:#88c0d0; } .ColorScheme-NeutralText { color:#d08770; } .ColorScheme-PositiveText { color:#a3be8c; } .ColorScheme-NegativeText { color:#bf616a; }
  </style>
 </defs>
 <use transform="matrix(1.5 0 0 1.5-.5-2)" fill="#b3b3b3" xlink:href="#b"/>
 <path d="m16 4c-0.4485 1.572-1.098 3.066-1.8285 4.5h1.8285zm0 4.5v6h5.25c-1.0575-1.821-2.3175-3.831-3.4215-6zm0 6h-5.25c-0.2505 0.432-0.531 0.855-0.75 1.266v4.734h6zm0 6v6h4.5c0.5715-0.429 1.071-0.9285 1.5-1.5v-4.5z" fill="#777"/>
 <use transform="matrix(1.5 0 0 1.5 -.5 -2)" width="100%" height="100%" fill="url(#a)" xlink:href="#b"/>
 <path class="ColorScheme-Text" d="m16 4c-1.4595 5.1075-5.034 9.516-6.609 13.032-0.5505 1.0455-0.891 2.2005-0.891 3.4695 0 4.155 3.345 7.5 7.5 7.5s7.5-3.345 7.5-7.5c0-1.2675-0.339-2.424-0.891-3.4695-1.575-3.516-5.1495-7.923-6.609-13.032m0 3c1.167 4.1505 4.0365 7.737 5.2965 10.59 0.234 0.45 0.3915 0.9015 0.516 1.407 0.051 0.2085 0.1125 0.438 0.141 0.657 0.0045 0.03-3e-3 0.0645 0 0.0945 0.0255 0.2175 0.0465 0.4305 0.0465 0.657v0.0945c-6e-3 0.3885-0.0675 0.7575-0.141 1.125-6e-3 0.03 6e-3 0.0645 0 0.0945-0.0795 0.366-0.1875 0.741-0.3285 1.0785-6e-3 0.0135 6e-3 0.033 0 0.0465-0.1485 0.351-0.3555 0.672-0.5625 0.984-0.0075 0.012 0.0075 0.036 0 0.0465-0.21 0.312-0.441 0.5775-0.7035 0.8445-0.2775 0.282-0.561 0.528-0.891 0.75-0.957 0.6555-2.1285 1.032-3.375 1.032-0.4155 0-0.8265-0.06-1.2195-0.141-0.279-0.057-0.534-0.1395-0.7965-0.234-0.0465-0.0165-0.0945-0.0285-0.141-0.0465-0.06-0.024-0.129-0.0225-0.1875-0.0465-0.096-0.0405-0.1875-0.0945-0.282-0.141-0.1635-0.081-0.3135-0.186-0.4695-0.282-0.1065-0.066-0.225-0.1155-0.3285-0.1875-0.0285-0.0195-0.066-0.027-0.0945-0.0465-0.2685-0.195-0.5175-0.4215-0.75-0.657-0.225-0.2295-0.423-0.4875-0.609-0.75-0.018-0.012-0.0285-0.0345-0.0465-0.0465-0.6825-0.9885-1.0785-2.211-1.0785-3.516 0-1.0305 0.2625-1.9635 0.7035-2.8125 1.26-2.856 4.1295-6.444 5.2965-10.59" fill="currentColor"/>
</svg>
