<svg viewBox="0 0 32 32" xmlns="http://www.w3.org/2000/svg">
 <style type="text/css">.ColorScheme-Text {
            color:#2e3440;
        }</style>
 <path class="ColorScheme-Text" d="m26 4c-0.5304 8.03e-5 -1.0391 0.21085-1.4141 0.58594l-2.793 2.793-1.5859-1.5859-1.4141 1.4141 1.1484 1.1484-13.176 13.174c-0.50975 0.50975-0.76563 1.1817-0.76562 1.8535v1.2031l-2 2 1.4141 1.4141 2-2h1.2051c0.67182 0 1.3438-0.25392 1.8535-0.76367l13.176-13.174 1.1445 1.1445 1.4141-1.4141-1.5859-1.5859 2.793-2.793c0.3751-0.37501 0.58586-0.88366 0.58594-1.4141v-0.5a1.5 1.5 0 0 0-1.5-1.5zm-5.3516 5.0625 2.293 2.293-8.6465 8.6445h-4.5859z" fill="currentColor"/>
</svg>
