<svg version="1.1" viewBox="0 0 32 32" xmlns="http://www.w3.org/2000/svg">
 <defs>
  <style id="current-color-scheme" type="text/css">
   .ColorScheme-Text { color:#2e3440; } .ColorScheme-Highlight { color:#88c0d0; } .ColorScheme-NeutralText { color:#d08770; } .ColorScheme-PositiveText { color:#a3be8c; } .ColorScheme-NegativeText { color:#bf616a; }
  </style>
 </defs>
 <path class="ColorScheme-Text" d="m13.494 3.9941c-1.4595 5.1075-5.0305 9.4996-6.6055 13.016-0.5505 1.0455-0.89453 2.2169-0.89453 3.4844 0 4.155 3.345 7.5 7.5 7.5s7.5-3.345 7.5-7.5c0-1.2675-0.34058-2.4389-0.89258-3.4844-1.575-3.5145-5.1479-7.9081-6.6074-13.016zm10.006 0.0058594c-2.493 0-4.5 2.007-4.5 4.5s2.007 4.5 4.5 4.5 4.5-2.007 4.5-4.5-2.007-4.5-4.5-4.5zm-6.5801 11.57c1.557 1.0815 2.5742 2.8763 2.5742 4.9238 0 3.324-2.676 6-6 6-2.0475 0-3.8423-1.0172-4.9238-2.5742 0.9705 0.675 2.1473 1.0742 3.4238 1.0742 3.324 0 6-2.676 6-6 0-1.2765-0.39922-2.4533-1.0742-3.4238z" fill="currentColor"/>
 <rect x="20" y="5" width="7" height="7" rx="3.5" fill="currentColor"/>
</svg>
