<!DOCTYPE svg>
<svg version="1.1" viewBox="0 0 32 32" xmlns="http://www.w3.org/2000/svg">
 <defs>
  <style type="text/css">.ColorScheme-Text {
                color:#2e3440;
            }</style>
 </defs>
 <path class="ColorScheme-Text" d="m6 28v-2h2v2h-2zm6 0v-2h2v2h-2zm6 0v-2h2v2h-2zm6 0v-2h2v2h-2zm-15-3v-2h2v2h-2zm6 0v-2h2v2h-2zm6 0v-2h2v2h-2zm-15-3v-2h2v2h-2zm6 0v-2h2v2h-2zm6 0v-2h2v2h-2zm6 0v-2h2v2h-2zm-15-3v-2h2v2h-2zm6 0v-2h2v2h-2zm6 0v-2h2v2h-2zm-15-2v-13h13l7 7v6h-1v-5h-7v-7h-11v12h-1z" fill="currentColor"/>
</svg>
