<!DOCTYPE svg>
<svg version="1.1" viewBox="0 0 32 32" xmlns="http://www.w3.org/2000/svg">
 <defs>
  <style id="current-color-scheme" type="text/css">
   .ColorScheme-Text { color:#2e3440; } .ColorScheme-Highlight { color:#88c0d0; } .ColorScheme-NeutralText { color:#d08770; } .ColorScheme-PositiveText { color:#a3be8c; } .ColorScheme-NegativeText { color:#bf616a; }
  </style>
 </defs>
 <path class="ColorScheme-Text" d="m6 28v-12h1v11h18v-11h1v12h-20zm3-13v-2h2v2h-2zm6 0v-2h2v2h-2zm6 0v-2h2v2h-2zm-15-3v-2h2v2h-2zm6 0v-2h2v2h-2zm6 0v-2h2v2h-2zm6 0v-2h2v2h-2zm-15-3v-2h2v2h-2zm6 0v-2h2v2h-2zm6 0v-2h2v2h-2zm-15-3v-2h2v2h-2zm6 0v-2h2v2h-2zm6 0v-2h2v2h-2zm6 0v-2h2v2h-2z" fill="currentColor"/>
</svg>
