<svg viewBox="0 0 32 32" xmlns="http://www.w3.org/2000/svg">
 <defs>
  <style id="current-color-scheme" type="text/css">
   .ColorScheme-Text { color:#2e3440; } .ColorScheme-Highlight { color:#88c0d0; } .ColorScheme-NeutralText { color:#d08770; } .ColorScheme-PositiveText { color:#a3be8c; } .ColorScheme-NegativeText { color:#bf616a; }
  </style>
 </defs>
 <path class="ColorScheme-Text" d="m11 4v6h1v-5h3v5h8v-5h1.293l2.707 2.707v12.293h-2v-6h-3v1h2v5h-2v1h6v-13.699h-0.007812l0.007812-0.0078124-3.293-3.293-0.007812 0.0078125v-0.0078125h-13.69922zm5 1h4v4h-4v-4zm-12 6v17h17v-13.699h-0.007812l0.007812-0.007812-3.293-3.293-0.007812 0.007812v-0.007812h-13.69922zm1 1h3v5h8v-5h1.293l2.707 2.707v12.293h-2v-6h-11v6h-2v-15zm4 0h4v4h-4v-4zm-1 10h9v5h-9v-5z" fill="currentColor"/>
</svg>
