<svg viewBox="0 0 32 32" xmlns="http://www.w3.org/2000/svg">
 <defs>
  <style id="current-color-scheme" type="text/css">
   .ColorScheme-Text { color:#2e3440; } .ColorScheme-Highlight { color:#88c0d0; } .ColorScheme-NeutralText { color:#d08770; } .ColorScheme-PositiveText { color:#a3be8c; } .ColorScheme-NegativeText { color:#bf616a; }
  </style>
 </defs>
 <path class="ColorScheme-Text" d="m6 4v2h2v-2h-2zm6 0v2h2v-2h-2zm6 0v2h2v-2h-2zm6 0v2h2v-2h-2zm-15 3v2h2v-2h-2zm6 0v2h2v-2h-2zm6 0v2h2v-2h-2zm-15 3v2h2v-2h-2zm6 0v2h2v-2h-2zm6 0v2h2v-2h-2zm6 0v2h2v-2h-2zm-15 3v2h2v-2h-2zm6 0v2h2v-2h-2zm6 0v2h2v-2h-2zm-15 3v12h8v-1h-7v-11h-1zm12.5 0c-2.493 0-4.5 2.01-4.5 4.5 0 2.493 2.01 4.5 4.5 4.5 1.0636 0 2.0263-0.3812 2.7949-0.99414l3.9961 3.9961 0.70703-0.70703-3.9961-3.9961c0.61565-0.76978 0.99805-1.7335 0.99805-2.7988 0-2.493-2.01-4.5-4.5-4.5zm0 1c1.939 0 3.5 1.561 3.5 3.5s-1.561 3.5-3.5 3.5-3.5-1.561-3.5-3.5 1.561-3.5 3.5-3.5z" fill="currentColor"/>
</svg>
