<!DOCTYPE svg>
<svg version="1.1" viewBox="0 0 32 32" xmlns="http://www.w3.org/2000/svg">
 <defs>
  <style id="current-color-scheme" type="text/css">
   .ColorScheme-Text { color:#2e3440; } .ColorScheme-Highlight { color:#88c0d0; } .ColorScheme-NeutralText { color:#d08770; } .ColorScheme-PositiveText { color:#a3be8c; } .ColorScheme-NegativeText { color:#bf616a; }
  </style>
 </defs>
 <path class="ColorScheme-Text" d="m6 4v12h1v-11h11v7h7v4h1v-5l-7-7h-13zm15 12c-1.657 0-3 1.343-3 3v3h-2v6h10v-6h-2v-3c0-1.657-1.343-3-3-3zm-12 1v2h2v-2h-2zm12 0c1.105 0 2 0.895 2 2v3h-4v-3c0-1.105 0.895-2 2-2zm-15 3v2h2v-2h-2zm6 0v2h2v-2h-2zm-3 3v2h2v-2h-2zm-3 3v2h2v-2h-2zm6 0v2h2v-2h-2z" fill="currentColor"/>
</svg>
