<svg viewBox="0 0 32 32" xmlns="http://www.w3.org/2000/svg">
 <defs>
  <style id="current-color-scheme" type="text/css">
   .ColorScheme-Text { color:#2e3440; } .ColorScheme-Highlight { color:#88c0d0; } .ColorScheme-NeutralText { color:#d08770; } .ColorScheme-PositiveText { color:#a3be8c; } .ColorScheme-NegativeText { color:#bf616a; }
  </style>
 </defs>
 <path class="ColorScheme-Text" d="m4 4v24h11v-1h-5v-7h8v-1h-9v8h-4v-22h5v8h11v-8h0.58594l5.4141 5.4141v5.5859h1v-6l-6-6h-18zm7 1h6v7h-6v-7zm13.398 11-8.3984 8.3984v3.6016h3.6016l8.3984-8.3984-3.6016-3.6016zm-2.0488 3.4902 2.1602 2.1602-3.1738 3.1738v-0.67383l-1.0137 0.023437h-1.0352v-1.62108l3.0625-3.0625zm-4.0762 4.0742v1.6211h2.0273l0.021485 0.6543-1.082 1.0801h-1.4395l-0.7207-0.7207v-1.4414l1.1934-1.1934z" fill="currentColor"/>
</svg>
