<svg viewBox="0 0 32 32" xmlns="http://www.w3.org/2000/svg">
 <style type="text/css">.ColorScheme-NegativeText{color:#bf616a;}</style>
 <g class="ColorScheme-NegativeText" fill="currentColor">
  <path d="m5 2v13h1v-12h14v7h7v5h1v-6l-7-7z"/>
  <path d="m5 18 2 1.44e-4 -2.33e-5 12-2-1.44e-4z"/>
  <path d="m2 16h28v1h-28z"/>
  <path d="m8 18 2 1.44e-4 -2.3e-5 12-2-1.44e-4z"/>
  <path d="m11 18 2 1.44e-4 -2.3e-5 12-2-1.44e-4z"/>
  <path d="m14 18 2 1.44e-4 -2.3e-5 12-2-1.44e-4z"/>
  <path d="m17 18 2 1.44e-4 -2.3e-5 12-2-1.44e-4z"/>
  <path d="m20 18 2 1.44e-4 -2.3e-5 12-2-1.44e-4z"/>
  <path d="m23 18 2 1.44e-4 -2.3e-5 12-2-1.44e-4z"/>
  <path d="m26 18 2 1.44e-4 -2.3e-5 12-2-1.44e-4z"/>
 </g>
</svg>
