<svg viewBox="0 0 32 32" xmlns="http://www.w3.org/2000/svg">
 <defs>
  <style id="current-color-scheme" type="text/css">
   .ColorScheme-Text { color:#2e3440; } .ColorScheme-Highlight { color:#88c0d0; } .ColorScheme-NeutralText { color:#d08770; } .ColorScheme-PositiveText { color:#a3be8c; } .ColorScheme-NegativeText { color:#bf616a; }
  </style>
 </defs>
 <path class="ColorScheme-Text" d="m4 4v24h12v-1h-11v-13h5l3-3h14v5h1v-9h-10l-3-3h-11zm18 12a6 6 0 0 0-6 6 6 6 0 0 0 0.83594 3.043l0.73242-0.73242a5 5 0 0 1-0.56836-2.3105 5 5 0 0 1 5-5 5 5 0 0 1 2.3086 0.57031l0.73047-0.73437a6 6 0 0 0-3.0391-0.83594zm5.1602 2.957-0.72852 0.73242a5 5 0 0 1 0.56836 2.3105 5 5 0 0 1-5 5 5 5 0 0 1-2.3086-0.57031l-0.73438 0.73047a6 6 0 0 0 3.043 0.83984 6 6 0 0 0 6-6 6 6 0 0 0-0.83594-3.043h-0.003906z" fill="currentColor"/>
</svg>
