<svg viewBox="0 0 32 32" xmlns="http://www.w3.org/2000/svg">
 <defs>
  <style id="current-color-scheme" type="text/css">
   .ColorScheme-Text { color:#2e3440; } .ColorScheme-Highlight { color:#88c0d0; } .ColorScheme-NeutralText { color:#d08770; } .ColorScheme-PositiveText { color:#a3be8c; } .ColorScheme-NegativeText { color:#bf616a; }
  </style>
 </defs>
 <path class="ColorScheme-Text" d="m16 4a12 12 0 0 0-12 12 12 12 0 0 0 12 12 12 12 0 0 0 2-0.18164v-1.0078a11 11 0 0 1-2 0.18945 11 11 0 0 1-11-11 11 11 0 0 1 11-11 11 11 0 0 1 11 11 11 11 0 0 1-0.77344 4h1.082a12 12 0 0 0 0.69141-4 12 12 0 0 0-12-12zm-1 5v2h2v-2h-2zm0 4v10h2v-10h-2zm4 3 0.007812 12 3.5918-4.9238h5.4004l-9-7.0762z" fill="currentColor"/>
</svg>
