<svg viewBox="0 0 32 32" xmlns="http://www.w3.org/2000/svg">
 <defs>
  <style id="current-color-scheme" type="text/css">
   .ColorScheme-Text { color:#2e3440; } .ColorScheme-Highlight { color:#88c0d0; } .ColorScheme-NeutralText { color:#d08770; } .ColorScheme-PositiveText { color:#a3be8c; } .ColorScheme-NegativeText { color:#bf616a; }
  </style>
 </defs>
 <path class="ColorScheme-Text" d="m4 4v5h1v-4h4v-1h-5zm7 0v1h4v-1h-4zm12 0-5 5 0.70703 0.70703 3.793-3.793v11.086h1v-11.086l3.793 3.793 0.70703-0.70703-5-5zm-19 7v4h1v-4h-1zm0 6v3h1v-3h-1zm23 0v3h1v-3h-1zm-23 4v7h7v-7h-7zm1 1h5v5h-5v-5zm22 1v4h-4v1h5v-5h-1zm-15 4v1h3v-1h-3zm5 0v1h4v-1h-4z" fill="currentColor"/>
</svg>
