<svg viewBox="0 0 32 32" xmlns="http://www.w3.org/2000/svg">
 <defs>
  <style id="current-color-scheme" type="text/css">
   .ColorScheme-Text { color:#2e3440; } .ColorScheme-Highlight { color:#88c0d0; } .ColorScheme-NeutralText { color:#d08770; } .ColorScheme-PositiveText { color:#a3be8c; } .ColorScheme-NegativeText { color:#bf616a; }
  </style>
 </defs>
 <path class="ColorScheme-Text" d="m5 5v4l-3 4v14h17v-1h-16v-12h2.78711l10.213 5.5703 10.213-5.5703h2.78711v2h1v-3l-3-4v-4h-22zm1 1h20v6.9746l-10 5.4551-10-5.4551v-6.9746zm2 2v1h16v-1h-16zm0 3v1h9v-1h-9zm17.484 5-0.72852 0.72656 4.2402 4.2285-8.9961 0.044922v1l9.0605-0.017578-4.3047 4.291 0.72852 0.72656 5.5156-5.5-5.5156-5.5z" fill="currentColor"/>
</svg>
