<svg viewBox="0 0 32 32" xmlns="http://www.w3.org/2000/svg">
 <defs>
  <style id="current-color-scheme" type="text/css">
   .ColorScheme-Text { color:#2e3440; } .ColorScheme-Highlight { color:#88c0d0; } .ColorScheme-NeutralText { color:#d08770; } .ColorScheme-PositiveText { color:#a3be8c; } .ColorScheme-NegativeText { color:#bf616a; }
  </style>
 </defs>
 <path class="ColorScheme-Text" d="m2 5v22.0004h17v-1h-16v-0.88867l0.42969-0.42773 9.3555-9.1426 3.2148 3.1426 12.977-12.684h0.023438v10h1v-11h-28zm1 1h0.023438l9.0469 8.8418-9.0703 8.8652v-17.707zm1.4531 0h23.094l-11.547 11.285-11.547-11.285zm19.547 12a9 9 0 0 0-7.877 4.668c0.12895 0.36375 0.35744 0.6766 0.65625 0.9082a8 8 0 0 1 7.2207-4.5762 4 4 0 0 0-4 4 4 4 0 0 0 4 4 4 4 0 0 0 4-4 4 4 0 0 0-3.6504-3.9824 8 8 0 0 1 6.8711 4.5586c0.30152-0.2337 0.53191-0.5501 0.66016-0.91797a9 9 0 0 0-7.8809-4.6582zm0 2a3 3 0 0 1 3 3 3 3 0 0 1-3 3 3 3 0 0 1-3-3 3 3 0 0 1 3-3zm0 1a2 2 0 0 0-2 2 2 2 0 0 0 2 2 2 2 0 0 0 2-2 2 2 0 0 0-0.089844-0.58789 1 1 0 0 1-0.91016 0.58789 1 1 0 0 1-1-1 1 1 0 0 1 0.58984-0.91016 2 2 0 0 0-0.58984-0.089844z" fill="currentColor"/>
</svg>
