<svg viewBox="0 0 32 32" xmlns="http://www.w3.org/2000/svg">
 <defs>
  <style id="current-color-scheme" type="text/css">
   .ColorScheme-Text { color:#2e3440; } .ColorScheme-Highlight { color:#88c0d0; } .ColorScheme-NeutralText { color:#d08770; } .ColorScheme-PositiveText { color:#a3be8c; } .ColorScheme-NegativeText { color:#bf616a; }
  </style>
 </defs>
 <path class="ColorScheme-Text" d="m2 5v22h17v-1h-16v-0.88867l0.42969-0.42773 9.3555-9.1426 3.2148 3.1426s13-12.684 12.977-12.684h0.023438v8h1v-9zm1 1h0.023438l9.0469 8.8418-9.0703 8.8652zm1.4531 0h23.094l-11.547 11.285z" fill="currentColor"/>
 <path class="ColorScheme-NegativeText" d="m30 21.5a5.5 5.5 0 0 0-5.5-5.5 5.5 5.5 0 0 0-5.5 5.5 5.5 5.5 0 0 0 5.5 5.5 5.5 5.5 0 0 0 5.5-5.5zm-1 0a4.5 4.5 0 0 1-0.98828 2.8047l-6.3262-6.3145a4.5 4.5 0 0 1 2.8145-0.99023 4.5 4.5 0 0 1 4.5 4.5zm-1.6895 3.5117a4.5 4.5 0 0 1-2.8105 0.98828 4.5 4.5 0 0 1-4.5-4.5 4.5 4.5 0 0 1 0.98438-2.8008z" fill="currentColor"/>
</svg>
