<svg viewBox="0 0 32 32" xmlns="http://www.w3.org/2000/svg">
 <defs>
  <style id="current-color-scheme" type="text/css">
   .ColorScheme-Text { color:#2e3440; } .ColorScheme-Highlight { color:#88c0d0; } .ColorScheme-NeutralText { color:#d08770; } .ColorScheme-PositiveText { color:#a3be8c; } .ColorScheme-NegativeText { color:#bf616a; }
  </style>
 </defs>
 <path class="ColorScheme-Text" d="m5 5v4l-3 4v3h1v-2h2.78711l10.213 5.5703 10.213-5.5703h2.78711v12h-15v1h16v-14l-3-4v-4h-22zm1 1h20v6.9746l-10 5.4551-10-5.4551v-6.9746zm2 2v1h16v-1h-16zm0 3v1h9v-1h-9zm-1 7.0645-5 3.9492 5 3.9473v-7.896391zm1 2.9609v1.9746h2v-1.9746h-2zm3 0v1.9746h2v-1.9746h-2z" fill="currentColor"/>
</svg>
