<svg viewBox="0 0 32 32" xmlns="http://www.w3.org/2000/svg">
 <defs>
  <style id="current-color-scheme" type="text/css">
   .ColorScheme-Text { color:#2e3440; } .ColorScheme-Highlight { color:#88c0d0; } .ColorScheme-NeutralText { color:#d08770; } .ColorScheme-PositiveText { color:#a3be8c; } .ColorScheme-NegativeText { color:#bf616a; }
  </style>
 </defs>
 <path class="ColorScheme-Text" d="m2 5v22.0004h17v-1h-16v-0.88867l0.42969-0.42773 9.3555-9.1426 3.2148 3.1426 3.2148-3.1426 1.7852 1.7441v-1.3965l-1.0703-1.0469 9.0469-8.8418h0.023438v8h1v-9h-28zm1 1h0.023438l9.0469 8.8418-9.0703 8.8652v-17.707zm1.4531 0h23.094l-11.547 11.285-11.547-11.285zm20.547 9c-1.657 0-3 1.343-3 3v3h-2v6h10v-6h-2v-3c0-1.657-1.343-3-3-3zm0 1c1.105 0 2 0.895 2 2v3h-4v-3c0-1.105 0.895-2 2-2z" fill="currentColor"/>
</svg>
