<svg viewBox="0 0 32 32" xmlns="http://www.w3.org/2000/svg">
 <defs>
  <style id="current-color-scheme" type="text/css">
   .ColorScheme-Text { color:#2e3440; } .ColorScheme-Highlight { color:#88c0d0; } .ColorScheme-NeutralText { color:#d08770; } .ColorScheme-PositiveText { color:#a3be8c; } .ColorScheme-NegativeText { color:#bf616a; }
  </style>
 </defs>
 <path class="ColorScheme-Text" d="m23.5 7v3h-15c-2.493 0-4.5 2.007-4.5 4.5v1.5h1v-1.5c0-1.7818 1.6942-3.5 3.5-3.5h15l-1e-6 3 4.5-3.5zm-5.5 13.952-9.5 0.047939v-3l-4.5 3.5 4.5 3.5v-3h9.5z" fill="currentColor"/>
 <path class="ColorScheme-NegativeText" d="m19.65 16.5-1.65 1.65 3.35 3.35-3.35 3.35 1.65 1.65 3.35-3.35 3.35 3.35 1.65-1.65-3.35-3.35 3.35-3.35-1.65-1.65-3.35 3.35z" fill="currentColor"/>
</svg>
