<svg viewBox="0 0 32 32" xmlns="http://www.w3.org/2000/svg">
 <defs>
  <style id="current-color-scheme" type="text/css">
   .ColorScheme-Text { color:#2e3440; } .ColorScheme-Highlight { color:#88c0d0; } .ColorScheme-NeutralText { color:#d08770; } .ColorScheme-PositiveText { color:#a3be8c; } .ColorScheme-NegativeText { color:#bf616a; }
  </style>
 </defs>
 <path class="ColorScheme-Text" d="m4 6v20h11v-1h-10v-18h22v11h1v-12h-24zm6.002 2.998a3 3 0 0 0-3 3 3 3 0 0 0 3 3 3 3 0 0 0 3-3 3 3 0 0 0-3-3zm0 1a2 2 0 0 1 2 2 2 2 0 0 1-2 2 2 2 0 0 1-2-2 2 2 0 0 1 2-2zm-3.002 7.002v6h6v-6h-6zm1 1h4v4h-4v-4zm19.273 1-7.6367 7.5605-2.9082-2.8809-0.72852 0.7207 3.6367 3.5996 8.3633-8.2793-0.72656-0.7207z" fill="currentColor"/>
</svg>
