<svg viewBox="0 0 32 32" xmlns="http://www.w3.org/2000/svg">
 <defs>
  <style id="current-color-scheme" type="text/css">
   .ColorScheme-Text { color:#2e3440; } .ColorScheme-Highlight { color:#88c0d0; } .ColorScheme-NeutralText { color:#d08770; } .ColorScheme-PositiveText { color:#a3be8c; } .ColorScheme-NegativeText { color:#bf616a; }
  </style>
 </defs>
 <path class="ColorScheme-Text" d="m16 4v1h12v-1h-12zm-12 3v1h23v-1h-23zm0 3v1h24v-1h-24zm5.5391 2-5 5 0.70703 0.70703 3.793-3.793v14.09h1v-14.09l3.793 3.793 0.70703-0.70703-5-5zm6.4609 1v1h5v-1h-5zm0 3v1h11v-1h-11zm0 3v1h12v-1h-12zm0 3v1h6v-1h-6zm0 3v1h9v-1h-9z" fill="currentColor"/>
</svg>
