<svg version="1.1" viewBox="0 0 32 32" xmlns="http://www.w3.org/2000/svg">
 <defs>
  <style id="current-color-scheme" type="text/css">
   .ColorScheme-Text { color:#2e3440; } .ColorScheme-Highlight { color:#88c0d0; } .ColorScheme-NeutralText { color:#d08770; } .ColorScheme-PositiveText { color:#a3be8c; } .ColorScheme-NegativeText { color:#bf616a; }
  </style>
 </defs>
 <path class="ColorScheme-Text" d="m4 16a12 12 0 0 0 12 12 12 12 0 0 0 12-12 12 12 0 0 0-12-12 12 12 0 0 0-12 12zm1 0a11 11 0 0 1 11-11 11 11 0 0 1 11 11 11 11 0 0 1-11 11 11 11 0 0 1-11-11zm3-3.2695 8 8.2695 8-8.2695-0.70703-0.73047-7.293 7.5391-7.293-7.5391z" fill="currentColor"/>
</svg>
