<svg viewBox="0 0 32 32" xmlns="http://www.w3.org/2000/svg">
 <defs>
  <style id="current-color-scheme" type="text/css">
   .ColorScheme-Text { color:#2e3440; } .ColorScheme-Highlight { color:#88c0d0; } .ColorScheme-NeutralText { color:#d08770; } .ColorScheme-PositiveText { color:#a3be8c; } .ColorScheme-NegativeText { color:#bf616a; }
  </style>
 </defs>
 <path class="ColorScheme-Text" d="m18 8c-1.2858 0-2.4167 0.61776-3.1484 1.5605 0.32928 0.11214 0.64595 0.25081 0.94531 0.41797 0.54838-0.5974 1.3283-0.97852 2.2031-0.97852 1.6569 0 3 1.3431 3 3 0 1.3987-0.96074 2.5643-2.2559 2.8965 6.21e-4 0.03481 0.0059 0.06856 0.0059 0.10352 0 0.3181-0.03235 0.62759-0.08203 0.93164 1.8896-0.3192 3.332-1.9512 3.332-3.9316 0-2.2091-1.7909-4-4-4zm-5 12c-3.8811 0-7 2.6896-7 6.4355 0.0033 0.52741 0.06906 1.0519 0.19803 1.5645h13.658c0.129-0.51252 0.14059-1.0366 0.14348-1.564 0-3.7459-3.1189-6.436-7-6.436zm0.027 0.992c3.8139 0 5.973 2.2744 5.973 5.444-0.0011 0.17426-0.01135 0.34761-0.029 0.521h-11.942c-0.01765-0.17339-0.02741-0.3472-0.029-0.52145 0-3.1696 2.1797-5.4435 5.9727-5.4435zm6.2242-3.992c-0.25686 0-0.50904 0.01606-0.75843 0.04297-0.12585 0.3837-0.29143 0.75106-0.49278 1.0977 0.41041-0.09117 0.83003-0.13834 1.2512-0.14063 3.1538 1e-6 5.7105 2.4624 5.7105 5.5-9e-4 0.16697-9e-3 0.33381-0.0264 0.5h-4.5303c0.10874 0.32119 0.2026 0.6488 0.26971 0.98633l5.1346 0.01367c0.12388-0.49116 0.18785-0.99457 0.19062-1.5 0-3.5899-3.0216-6.5-6.7488-6.5zm-6.2512-6c-2.2091 0-4 1.7909-4 4s1.7909 4 4 4c2.2091 1e-6 4-1.7909 4-4s-1.7909-4-4-4zm0 1c1.6569 0 3 1.3431 3 3s-1.3431 3-3 3c-1.6569 1e-6 -3-1.3431-3-3s1.3431-3 3-3zm3.027-8.2c-2.0347 0-3.6842 1.6455-3.6842 3.6753v0.61528l-1.6068-1.7026-0.613 0.74295 2.233 2.227 0.644 0.642 0.582-0.74267 2.064-2.2273-0.644-0.64171-1.707 1.7027v-0.616c0-1.4499 1.2786-2.6249 2.732-2.6249s1.973 0.51904 1.973 1.9689h1c0-2.1002-1.1169-2.9799-2.973-3.019z" fill="currentColor"/>
</svg>
