<svg version="1.1" viewBox="0 0 32 32" xmlns="http://www.w3.org/2000/svg">
 <defs>
  <style id="current-color-scheme" type="text/css">
   .ColorScheme-Text { color:#2e3440; } .ColorScheme-Highlight { color:#88c0d0; } .ColorScheme-NeutralText { color:#d08770; } .ColorScheme-PositiveText { color:#a3be8c; } .ColorScheme-NegativeText { color:#bf616a; }
  </style>
 </defs>
 <path class="ColorScheme-Text" d="m4 16a12 12 0 0 1 1.6719-6.084l5.3789 5.377-0.71094 0.70703-4.4043-4.4043a11 11 0 0 0-0.93555 4.4043 11 11 0 0 0 11 11 11 11 0 0 0 5.3516-1.4043l0.72852 0.73242a12 12 0 0 1-6.0801 1.6719 12 12 0 0 1-12-12zm5.916-10.328a12 12 0 0 1 6.084-1.6719 12 12 0 0 1 12 12 12 12 0 0 1-1.6719 6.084l-5.3789-5.377 0.70703-0.70703 4.4043 4.4062a11 11 0 0 0 0.93945-4.4062 11 11 0 0 0-11-11 11 11 0 0 0-5.3516 1.4043z" fill="currentColor"/>
</svg>
