<svg version="1.1" viewBox="0 0 32 32" xmlns="http://www.w3.org/2000/svg">
 <linearGradient id="a" x1="12.707" x2="16" y1="5" y2="29.707" gradientUnits="userSpaceOnUse">
  <stop stop-color="#8fbcbb" offset="0"/>
  <stop stop-color="#a3be8c" offset="1"/>
 </linearGradient>
 <linearGradient id="d" x1="12.195" x2="22.877" y1="1.7285" y2="24.25" gradientTransform="translate(-.044693 .13408)" gradientUnits="userSpaceOnUse">
  <stop stop-color="#8fbcbb" offset="0"/>
  <stop stop-color="#a3be8c" offset="1"/>
 </linearGradient>
 <path d="m2.5 5.5v10l13.5 13.5 10-10-13.5-13.5zm5 2.5c1.3807 3e-7 2.5 1.1193 2.5 2.5s-1.1193 2.5-2.5 2.5-2.5-1.1193-2.5-2.5 1.1193-2.5 2.5-2.5z" fill="url(#a)"/>
 <path d="m14.5 11.793-5.707 5.707 0.70703 0.70703 5.707-5.707zm3 3-5.707 5.707 0.70703 0.70703 5.707-5.707zm3 3-5.707 5.707 0.70703 0.70703 5.707-5.707z" fill="#4c566a" opacity=".8" stroke-linecap="square" stroke-miterlimit="0"/>
 <path d="m12.105 2.4036-9.5215 3.0547 3.0547 9.5215 16.979 8.7305 6.4668-12.576zm-3.2324 3.7871a2.5 2.5 0 0 1 2.5 2.5 2.5 2.5 0 0 1-2.5 2.5 2.5 2.5 0 0 1-2.5-2.5 2.5 2.5 0 0 1 2.5-2.5z" fill="url(#d)"/>
 <path d="m8.918 6.146c-0.69036 0-1.3171 0.28001-1.7695 0.73242-0.22621 0.22621-0.40865 0.49583-0.53516 0.79492-0.063253 0.14955-0.11123 0.30601-0.14453 0.46875-0.00833 0.040686-0.017115 0.081667-0.023438 0.12305-0.00553 0.036207-0.00971 0.072674-0.013672 0.10938a2.5 2.5 0 0 1 1.0684-0.28516 2.5 2.5 0 0 1 2.5 2.5 2.5 2.5 0 0 1-0.095703 0.35547c0.032744-0.01408 0.065652-0.0295 0.097656-0.04492 0.03643-0.01755 0.072-0.03544 0.10742-0.05469 0.07085-0.03849 0.13858-0.08007 0.20508-0.125 0.133-0.08985 0.25799-0.19354 0.37109-0.30664 0.45241-0.45241 0.73242-1.0772 0.73242-1.7676 0-0.69036-0.28001-1.3152-0.73242-1.7676-0.45241-0.45241-1.0772-0.73242-1.7676-0.73242z" fill="#4c566a" fill-rule="evenodd" opacity=".8"/>
 <path d="m15.978 7.6497-3.6908 7.1776 0.88922 0.45725 3.6908-7.1776zm3.773 1.9401-3.6908 7.1776 0.88922 0.45725 3.6908-7.1776zm3.773 1.9401-3.6908 7.1776 0.88922 0.45725 3.6908-7.1776z" fill="#4c566a" opacity=".8" stroke-linecap="square" stroke-miterlimit="0"/>
</svg>
