<svg width="32" height="32" viewBox="0 0 8.4667 8.4667" xmlns="http://www.w3.org/2000/svg">
 <style type="text/css">.ColorScheme-Text{color:#2e3440;}</style>
 <g class="ColorScheme-Text" transform="scale(.26458)" fill="currentColor">
  <path d="m6 3v1h20v-1zm0 2v1h20v-1zm0 2v1h20v-1zm0 2v1h20v-1zm2 2v1h18v-1zm-2 12v1h18v-1zm-1e-7 2v1h20v-1zm0 2v1h20v-1zm0 2v1h20v-1z" opacity=".5"/>
  <path d="m8 15v1h16v-1zm0 2v1h16v-1zm0 2v1h16v-1z"/>
  <path d="m6 11v2h-2v1h2v8h19v2h1v-2h2v-1h-2v-8h-19v-2zm1 3h18v7h-18z"/>
 </g>
</svg>
