<svg width="32" height="32" viewBox="0 0 8.4667 8.4667" xmlns="http://www.w3.org/2000/svg">
 <style type="text/css">.ColorScheme-Text{color:#2e3440;}</style>
 <g class="ColorScheme-Text" transform="translate(0 -288.53)" fill="currentColor">
  <path d="m1.0583 289.86v0.26458h1.3229v-0.26458z"/>
  <path d="m1.0583 293.03v0.26458h3.4396v-0.26458z"/>
  <path d="m1.0583 293.82v0.26458h3.9688v-0.26458z"/>
  <path d="m1.0583 295.68v-0.26458h5.0271v0.26458z"/>
  <path d="m1.0583 294.88v-0.26458h4.4979v0.26458z"/>
  <path d="m6.35 292.23749v-2.1394l-.6066814.60668-.1870686-.18707.9260417-.92604.9260416.92604-.1870686.18707-.6066814-.60668v2.1394z"/>
  <path d="m1.0583 292.24v0.26458h2.9104v-0.26458z"/>
  <path d="m1.0583 291.44v0.26458h2.3812v-0.26458z"/>
  <path d="m1.0583 290.65v0.26458h1.8521v-0.26458z"/>
 </g>
</svg>
