<svg viewBox="0 0 32 32" xmlns="http://www.w3.org/2000/svg">
 <defs>
  <style id="current-color-scheme" type="text/css">
   .ColorScheme-Text { color:#2e3440; } .ColorScheme-Highlight { color:#88c0d0; } .ColorScheme-NeutralText { color:#d08770; } .ColorScheme-PositiveText { color:#a3be8c; } .ColorScheme-NegativeText { color:#bf616a; }
  </style>
 </defs>
 <path class="ColorScheme-Text" d="m11.08 3.998c-1.0331 0-1.963 0.19115-2.791 0.57422l0.32812 0.88672c0.35552-0.16959 0.75981-0.30014 1.2129-0.39258 0.45308-0.097097 0.87654-0.14648 1.2715-0.14648 0.58473 0 1.0113 0.13936 1.2793 0.41602 0.27265 0.27599 0.4082 0.69518 0.4082 1.2578v0.75586l-1.2344 0.0019531c-1.2423 0-2.1487 0.19485-2.7188 0.58789-0.56535 0.38772-0.84766 1-0.84766 1.834 1e-7 0.69763 0.21355 1.2417 0.64258 1.6348 0.4337 0.39304 1.0058 0.58984 1.7168 0.58984 1.0625 0 1.9256-0.40353 2.5879-1.2129l0.13086 1.0605h0.92188v-5.0762c0-0.97961-0.25322-1.6856-0.75976-2.1172-0.50187-0.43627-1.2182-0.6543-2.1484-0.6543zm0.7832 4.1504h0.92774v1.6953c-0.57939 0.8486-1.3681 1.2734-2.3672 1.2734h-0.001953c-0.36487-1e-6 -0.66819-0.11684-0.91211-0.34961-0.24392-0.2321-0.36719-0.56132-0.36719-0.98828 0-0.23742 0.022301-0.43738 0.066406-0.59766 0.044106-0.16493 0.12524-0.3155 0.24219-0.45117 0.11695-0.14032 0.27793-0.24836 0.48242-0.32617 0.20449-0.082466 0.46449-0.14556 0.78125-0.18945 0.31676-0.043893 0.70003-0.066406 1.1484-0.066406zm-3.6875 5.8516 0.048828 0.90039h4.2578l-4.4824 6.291v0.80859h6l-0.033203-0.9375h-4.4414l4.4004-6.2012v-0.86133h-5.75zm12.824 0-5 5 0.70703 0.70703 3.793-3.793v12.09h1v-12.09l3.793 3.793 0.70703-0.70703-5-5z" fill="currentColor"/>
</svg>
