<svg width="32" height="32" viewBox="0 0 8.4667 8.4667" xmlns="http://www.w3.org/2000/svg">
 <style type="text/css">.ColorScheme-Text{color:#2e3440;}</style>
 <g class="ColorScheme-Text" transform="translate(0 -288.53)" fill="currentColor">
  <path d="m1.0583 289.86v0.26458h3.7042v-0.26458z"/>
  <path d="m1.0583 293.03v0.26458h3.7042v-0.26458z"/>
  <path d="m1.0583 293.82v0.26458h3.7042v-0.26458z"/>
  <path d="m1.0583 295.68v-0.26458h3.7042v0.26458z"/>
  <path d="m1.0583 294.88v-0.26458h3.7042v0.26458z"/>
  <path transform="matrix(.26458 0 0 .26458 0 288.53)" d="m24 18v8.0859l-2.293-2.293-0.70703 0.70703 3.5 3.5 3.5-3.5-0.70703-0.70703-2.293 2.293v-8.0859z"/>
  <path d="m1.0583 292.24v0.26458h3.175v-0.26458z"/>
  <path d="m1.0583 291.44v0.26458h3.7042v-0.26458z"/>
  <path d="m1.0583 290.65v0.26458h3.7042v-0.26458z"/>
  <path d="m5.5563 294.09v-2.1394l-0.60668 0.60668-0.18707-0.18707 0.92604-0.92604 0.92604 0.92604-0.18707 0.18707-0.60668-0.60668v2.1394z"/>
 </g>
</svg>
