<svg viewBox="0 0 32 32" xmlns="http://www.w3.org/2000/svg">
 <defs>
  <style id="current-color-scheme" type="text/css">
   .ColorScheme-Text { color:#2e3440; } .ColorScheme-Highlight { color:#88c0d0; } .ColorScheme-NeutralText { color:#d08770; } .ColorScheme-PositiveText { color:#a3be8c; } .ColorScheme-NegativeText { color:#bf616a; }
  </style>
 </defs>
 <path class="ColorScheme-Text" d="m4 4v24h24v-24h-24zm1 5h22v18h-22v-18zm3 2v6h7v-6h-7zm9 0v6h7v-6h-7zm-8 1h5v4h-5v-4zm9 0h5v4h-5v-4zm-10 7v6h7v-6h-7zm9 0v6h7v-6h-7zm-8 1h5v4h-5v-4zm9 0h5v4h-5v-4z" fill="currentColor"/>
</svg>
