<svg width="22" height="22" version="1.1" xmlns="http://www.w3.org/2000/svg">
 <defs>
  <style type="text/css"/>
 </defs>
 <g transform="translate(0 -1030.4)" fill="#2e3440">
  <g transform="translate(-421.71 503.57)" fill="#2e3440">
   <path transform="translate(421.71 525.79)" d="M4 6v1H3v8h1v1h14v-1h1V7h-1V6H4zm.908 1h12.184c.15.425.483.758.908.908V14.092a1.49 1.49 0 0 0-.908.908H4.908A1.49 1.49 0 0 0 4 14.092V7.908A1.49 1.49 0 0 0 4.908 7zM11 8c-1.662 0-3 1.338-3 3s1.338 3 3 3 3-1.338 3-3-1.338-3-3-3zm0 1c1.108 0 2 .892 2 2s-.892 2-2 2-2-.892-2-2 .892-2 2-2z" color="#4d4d4d" fill="#2e3440" stroke-opacity=".55" stroke-width="2.8"/>
  </g>
 </g>
</svg>
