<svg version="1.1" viewBox="0 0 22 22" xmlns="http://www.w3.org/2000/svg">
 <g fill="#5e81ac">
  <path d="m10.992 2.5a8.242 8.242 0 0 0-2.5762 0.41406c-2.567 0.837-4.4463 2.8796-5.1523 5.6016-0.263 1.007-0.26767 1.1015-0.26367 4.0195 4e-3 2.445 0.0090313 2.6548 0.082031 3.0098 0.26 1.26 1.0972 2.2493 2.2852 2.7363 0.128 0.052 0.25948 0.10548 0.39648 0.14648 0.052 0.015 0.11402 0.023922 0.16602 0.044922 0.115 0.046 0.21277 0.10939 0.25977 0.15039 0.03 0.026 0.064656 0.038734 0.097656 0.052734 8e-3 0.03 0.019062 0.058172 0.039062 0.076172 0.084 0.078 0.16752 0.079703 0.22852 0.095703 0.133 0.057 0.28759 0.038016 0.43359 0.041016l0.0625 0.001953c0.194 2e-3 0.36867-0.016641 0.51367-0.056641 0.145-0.039 0.27075-0.090843 0.34375-0.21484 0.035-0.061 0.024344-0.065797 0.027344-0.091797a1.45 1.45 0 0 0 0.0097656-0.091797c5e-3 -0.072 0.0077188-0.16911 0.011719-0.28711 0.0037374-0.126 0.0054063-0.32408 0.0078126-0.49219 0.40379 1.2243 0.5058 1.4945 0.50977 1.3379 3e-3 -0.106 0.51873-4.0379 0.55273-4.2129 0.044-0.225 0.16695-0.19069 0.25195 0.070312 0.04 0.123 0.34192 1.3505 0.66992 2.7285h-0.0019532c0.375 1.574 0.61077 2.472 0.63477 2.418 0.021-0.048 0.20806-1.4075 0.41406-3.0215 0.47-3.68 0.43375-3.4681 0.59375-3.4141 0.094 0.033 0.091015 0.022734 0.66602 2.8027 0.26 1.253 0.48024 2.2982 0.49024 2.3242 0.029 0.074 0.072531-0.18614 0.26953-1.6191 0.313-2.275 0.45195-3.1678 0.50195-3.2148 0.085-0.079 0.1615 0.049437 0.3125 0.52344l0.12891 0.39844c0.015702 0.96063 0.034372 2.0377 0.03711 2.5195l0.007812 1.3535 0.16602 0.12109a0.86 0.86 0 0 0 0.29492 0.13672h0.003906l0.003906 0.001953 0.009766 0.001953a0.644 0.644 0 0 0 0.078125 0.011719c0.104 0.012 0.24605 0.017719 0.37305 0.011719 0.187-7e-3 0.34652-0.035797 0.47852-0.091797 0.07-0.03 0.13455-0.071094 0.18555-0.12109 0.054-0.033 0.10702-0.070187 0.16602-0.11719 0.029-0.026 0.19497-0.090766 0.29297-0.13477 0.09-0.04 0.20159-0.05775 0.30859-0.09375 0.6-0.2 0.99666-0.44988 1.4727-0.92188 0.473-0.468 0.7265-0.86017 0.9375-1.4512 0.31-1.053 0.20494-2.2185 0.21094-3.3105 0.013-3.185-0.046156-3.2498-0.28516-4.2168a7.663 7.663 0 0 0-2.1309-3.7188 7.805 7.805 0 0 0-3.0156-1.8281 8.219 8.219 0 0 0-2.5605-0.42969h-0.001953zm0.15625 1.3242c0.41638 0 0.82348 0.023359 1.084 0.068359 1.995 0.347 3.7465 1.6625 4.6855 3.5215 0.407 0.805 0.50923 1.4866 0.61523 2.4316 0.36 2.017 0.53292 1.9908-1.2051 1.3848a6.259 6.259 0 0 1-0.59766-0.21875l-0.14844-0.11524c-0.222-0.172-0.55319-0.20473-0.86719-0.17773-0.158 0.013-0.31136 0.044656-0.44336 0.097656-0.132 0.052-0.24945 0.12409-0.31445 0.24609-0.028 0.05-0.02239 0.067609-0.02539 0.099609a1.618 1.618 0 0 0-0.009766 0.12305c-5e-3 0.1-0.007812 0.2425-0.007813 0.4375 0 0.16381 0.008544 0.54947 0.011719 0.79492l-0.24219-0.73633c-0.202-0.616-0.31289-0.88808-0.33789-0.83008-0.021 0.047-0.11022 0.67739-0.19922 1.4004-0.177 1.436-0.30466 2.3486-0.34766 2.4766-0.016 0.046-0.060656 0.082031-0.097656 0.082031-0.135 0-0.18445-0.17228-0.81445-2.8633-0.228-0.968-0.44347-1.8775-0.48047-2.0195l-0.066406-0.25781-0.070313 0.5625c-0.212 1.705-0.75483 5.5096-0.79883 5.5996-0.061 0.126-0.13712 0.13544-0.20312 0.023437-0.07-0.117-0.62677-2.2416-1.0098-3.8496-0.18-0.755-0.34328-1.373-0.36328-1.373-0.019 0-0.052312 0.19555-0.070312 0.43555-0.06 0.753-0.40275 3.9366-0.46875 4.3496-0.063 0.401-0.14214 0.50789-0.24414 0.33789-0.011411-0.019398-0.081487-0.24564-0.11914-0.35352 0.0080722-0.67557 0.010911-1.2048 0.023438-1.8828 0.025-1.335 0.042859-1.9502 0.0058594-2.2852-0.019-0.167-0.054672-0.28328-0.13867-0.36328s-0.17191-0.096859-0.25391-0.13086c-0.239-0.097-0.55584-0.10341-0.83984-0.066406a1.567 1.567 0 0 0-0.38281 0.09375 0.46 0.46 0 0 0-0.2207 0.15039 3.964 3.964 0 0 1-0.44922 0.17188c-1.776 0.94-1.7042 0.45219-1.2852-1.3828 0.48-3.341 2.3996-5.4311 5.5586-5.9141 0.297-0.045 0.7223-0.068359 1.1387-0.068359z"/>
 </g>
</svg>
