<svg width="22" height="22" xmlns="http://www.w3.org/2000/svg">
 <path d="M12.5 3l-4 15.754 1 .246 4-15.754-1-.246zM7.254 6l-3.975 4.645L3 11l.28.355L7.253 16 8 15.291 4.336 11 8 6.709 7.254 6zM16.5 6A2.5 2.5 0 0 0 14 8.5V10h1V8.5A1.5 1.5 0 0 1 16.5 7 1.5 1.5 0 0 1 18 8.5V11h-.5a2.5 2.5 0 0 0-2.5 2.5v.5h1v-.5a1.5 1.5 0 0 1 1.5-1.5H19V8.5A2.5 2.5 0 0 0 16.5 6zm-1 9a.5.5 0 0 0-.5.5.5.5 0 0 0 .5.5.5.5 0 0 0 .5-.5.5.5 0 0 0-.5-.5z" fill="#8373d7" font-family="Sans" font-weight="400" overflow="visible" style="block-progression:tb;text-decoration-line:none;text-indent:0;text-transform:none"/>
</svg>
