<svg width="22" height="22" version="1.1" xmlns="http://www.w3.org/2000/svg">
 <defs>
  <style id="current-color-scheme" type="text/css">
   .ColorScheme-Text { color:#2e3440; } .ColorScheme-Highlight { color:#88c0d0; } .ColorScheme-NeutralText { color:#d08770; } .ColorScheme-PositiveText { color:#a3be8c; } .ColorScheme-NegativeText { color:#bf616a; }
  </style>
 </defs>
 <path d="M9.266 17.082c-1.36 0-2.286-.659-2.039-2.337.31-2.097 1.606-2.786 5.714-3.356.03 0 1.297-.21 1.297-.21l-.525 3.716c-1.112 1.348-3.12 2.187-4.447 2.187zm4.23-.18l.063 1.738h1.76l1.606-11.236C17.42 3.99 15.412 3 12.601 3c-2.007 0-3.984.57-5.157 1.229l.34 1.857c1.266-.599 2.995-1.018 4.57-1.018 1.946 0 2.656.928 2.41 2.726l-.279 1.708-1.451.18c-3.737.569-7.382 1.138-7.968 5.153C4.633 17.712 6.394 19 8.74 19a6.49 6.49 0 0 0 4.756-2.097z" class="ColorScheme-Text" fill="currentColor" font-family="Oxygen" font-style="italic" font-weight="400" letter-spacing="0" word-spacing="0"/>
</svg>
