<svg width="22" height="22" version="1.1" viewBox="0 0 22 22" xmlns="http://www.w3.org/2000/svg">
 <rect x="3.4819" y="3.4819" width="15.036" height="15.036" rx=".86061" ry=".86061" fill="none" stroke="#88c0d0" stroke-linecap="round" stroke-linejoin="round" stroke-width=".96385"/>
 <path d="m9.8044 4.6166v2.4h-1.275l2.475 2.8 2.475-2.8h-1.275v-2.4z" fill="#88c0d0"/>
 <path d="m10.567 10.217c-0.06916 0-0.1125 0.118-0.1125 0.2625v0.9126c-0.27843 0.063-0.54062 0.1769-0.77501 0.325l-0.65-0.65c-0.10221-0.1023-0.2136-0.149-0.2625-0.1001l-0.6125 0.6125c-0.048907 0.049-0.00227 0.1603 0.1 0.2625l0.65 0.65c-0.14805 0.2344-0.2616 0.4966-0.325 0.775h-0.91251c-0.14453 0-0.2625 0.043-0.2625 0.1125v0.875c0 0.069 0.11797 0.1126 0.2625 0.1126h0.91251c0.063401 0.2784 0.17695 0.5406 0.325 0.775l-0.65 0.65c-0.10219 0.1022-0.1489 0.2136-0.1 0.2625l0.6125 0.6125c0.048894 0.049 0.1603 0 0.2625-0.1l0.65-0.65c0.23438 0.148 0.49658 0.2616 0.77501 0.325v0.9125c0 0.1445 0.04336 0.2625 0.11251 0.2625h0.875c0.06915 0 0.11251-0.118 0.11251-0.2625v-0.9125c0.27842-0.063 0.54062-0.177 0.77501-0.325l0.65 0.65c0.1022 0.1022 0.2136 0.1489 0.2625 0.1l0.6125-0.6125c0.04889-0.049 0.0023-0.1603-0.1-0.2625l-0.65003-0.65c0.14805-0.2344 0.2616-0.4966 0.325-0.775h0.91251c0.14453 0 0.2625-0.043 0.2625-0.1126v-0.875c0-0.069-0.11796-0.1125-0.2625-0.1125h-0.91251c-0.0634-0.2784-0.17695-0.5406-0.325-0.775l0.65-0.65c0.1022-0.1022 0.1489-0.2136 0.10002-0.2625l-0.6125-0.6125c-0.04889-0.049-0.1603 0-0.2625 0.1001l-0.65 0.65c-0.23439-0.1481-0.49659-0.2617-0.77502-0.3251v-0.9125c0-0.1445-0.04336-0.2625-0.11251-0.2625zm0.4375 2.4876c0.61145 0 1.1125 0.501 1.1125 1.1125 0 0.6114-0.50106 1.1125-1.1125 1.1125-0.61145 0-1.1125-0.5011-1.1125-1.1125 0-0.6115 0.50106-1.1125 1.1125-1.1125z" fill="#88c0d0"/>
</svg>
