<svg width="22" height="22" version="1.1" xmlns="http://www.w3.org/2000/svg">
 <g transform="translate(-326 -534.36)">
  <path transform="translate(326 534.36)" d="m6 3v3h1v3.0566c-1.1617 0.23713-1.9971 1.2577-2 2.4434 2e-3 1.1864 0.83756 2.208 2 2.4453v3.0547h-1v3h3v-3h-1v-1.8203a10 8.5 0 0 0 9 4.8203 10 8.5 0 0 0 1-0.042969v-1.0137a9 7.5 0 0 1-1 0.056641 9 7.5 0 0 1-8.5527-5.1953c0.9343-0.38352 1.5512-1.2899 1.5527-2.3047-4.3e-4 -1.0174-0.61875-1.9277-1.5566-2.3105a9 7.5 0 0 1 8.5566-5.1895 9 7.5 0 0 1 1 0.050781v-1a10 8.5 0 0 0-1-0.050781 10 8.5 0 0 0-9 4.8105v-1.8105h1v-3h-3zm1 1h1v1h-1v-1zm0.5 6a1.5 1.5 0 0 1 1.2637 0.69531 1.5 1.5 0 0 1 0.17188 0.375c4.271e-4 0.001412 0.0015301 0.002493 0.0019531 0.003907a1.5 1.5 0 0 1 0 0.003906 1.5 1.5 0 0 1 0.0625 0.42188 1.5 1.5 0 0 1-0.0625 0.42773 1.5 1.5 0 0 1-0.17188 0.375c-7.804e-4 0.001219-0.0011693 0.002691-0.0019531 0.003907a1.5 1.5 0 0 1-0.0019531 0.001953 1.5 1.5 0 0 1-0.26758 0.31055 1.5 1.5 0 0 1-0.99414 0.38086 1.5 1.5 0 0 1-1.1699-0.5625 1.5 1.5 0 0 1-0.23828-0.42578c-0.0019305-0.005287-0.0039872-0.010311-0.0058594-0.015625a1.5 1.5 0 0 1-0.085938-0.49609 1.5 1.5 0 0 1 0.083984-0.49023c0.0030394-0.008709 0.0065699-0.016757 0.0097656-0.025391a1.5 1.5 0 0 1 0.23242-0.41406c3.535e-4 -4.42e-4 -3.541e-4 -0.001511 0-0.001953a1.5 1.5 0 0 1 1.1738-0.56836zm-0.5 8h1v1h-1v-1z" color="#000000" color-rendering="auto" fill="#ebcb8b" image-rendering="auto" shape-rendering="auto" solid-color="#000000" style="isolation:auto;mix-blend-mode:normal"/>
  <rect x="273.38" y="518.48" width="0" height="14.668" fill="#04896a"/>
  <rect x="280.34" y="541.05" width="0" height="14.668" fill="#16907d"/>
  <rect x="282.16" y="539.99" width="0" height="14.668" fill="#4c566a"/>
 </g>
</svg>
