<svg width="22" height="22" version="1.1" xmlns="http://www.w3.org/2000/svg">
 <defs>
  <style id="current-color-scheme" type="text/css">
   .ColorScheme-Text { color:#2e3440; } .ColorScheme-Highlight { color:#88c0d0; } .ColorScheme-NeutralText { color:#d08770; } .ColorScheme-PositiveText { color:#a3be8c; } .ColorScheme-NegativeText { color:#bf616a; }
  </style>
 </defs>
 <g transform="translate(-326 -534.36)" class="ColorScheme-Text" fill="currentColor" stroke-width="2">
  <path d="m331 537.36v16h15v-16h-15zm1 1h13v14h-13v-14z"/>
  <rect x="333" y="543.36" width="5" height="5" rx="0"/>
  <rect x="333" y="550.36" width="11" height="1" rx="0"/>
  <rect x="339" y="547.36" width="5" height="1" rx="0"/>
  <rect x="339" y="543.36" width="5" height="1" rx="0"/>
  <rect x="333" y="540.36" width="11" height="1" rx="0"/>
  <rect x="328" y="541.36" width="1" height="9" rx="0"/>
  <rect x="329" y="541.36" width="2" height="1" rx="0"/>
  <path d="m328 550.36a3 3 0 0 0 3 3v-1a2 2 0 0 1-2-2h-1z"/>
 </g>
</svg>
