<svg width="22" height="22" xmlns="http://www.w3.org/2000/svg">
 <g transform="translate(-326 -534.36)" fill="#4c566a" stroke-width="2">
  <path d="m331 537.36v16h15v-16h-15zm1 1h13v14h-13v-14z"/>
  <rect x="333" y="543.36" width="5" height="5" rx="0"/>
  <rect x="333" y="550.36" width="11" height="1" rx="0"/>
  <rect x="339" y="547.36" width="5" height="1" rx="0"/>
  <rect x="339" y="543.36" width="5" height="1" rx="0"/>
  <rect x="333" y="540.36" width="11" height="1" rx="0"/>
  <rect x="328" y="541.36" width="1" height="9" rx="0"/>
  <rect x="329" y="541.36" width="2" height="1" rx="0"/>
  <path d="m328 550.36a3 3 0 0 0 3 3v-1a2 2 0 0 1-2-2h-1z"/>
 </g>
</svg>
