<svg width="22" height="22" version="1.1" xmlns="http://www.w3.org/2000/svg">
 <defs>
  <style id="current-color-scheme" type="text/css">
   .ColorScheme-Text { color:#2e3440; } .ColorScheme-Highlight { color:#88c0d0; } .ColorScheme-NeutralText { color:#d08770; } .ColorScheme-PositiveText { color:#a3be8c; } .ColorScheme-NegativeText { color:#bf616a; }
  </style>
 </defs>
 <g fill="#5e81ac" stroke-width="2">
  <path d="M16 3v2h-2v1h2v2h1V6h2V5h-2V3h-1zM10 3v2H8v1h2v2h1V6h2V5h-2V3h-1zM4 10c-.554 0-1 .446-1 1v7c0 .554.446 1 1 1h7c.554 0 1-.446 1-1v-1l-1-.555V17c0 .554-.446 1-1 1H5c-.554 0-1-.446-1-1v-5c0-.554.446-1 1-1h5c.554 0 1 .446 1 1v.555L12 12v-1c0-.554-.446-1-1-1H4z" fill="#5e81ac"/>
 </g>
</svg>
