<svg width="22" height="22" version="1.1" xmlns="http://www.w3.org/2000/svg">
 <defs>
  <style id="current-color-scheme" type="text/css">
   .ColorScheme-Text { color:#2e3440; } .ColorScheme-Highlight { color:#88c0d0; } .ColorScheme-NeutralText { color:#d08770; } .ColorScheme-PositiveText { color:#a3be8c; } .ColorScheme-NegativeText { color:#bf616a; }
  </style>
 </defs>
 <path d="M3 3v1h16V3H3zm6 2.666v1.025l4.287 5.643L9 17.463V19h10v-4h-.564c0 .74.001 1.496-.649 1.94-.712.486-1.651.578-2.476.578h-3.93l3.808-5.184-3.808-5.928h2.238c1.588 0 3.848-.143 4.477 1.713.107.317.178 1.548.205 1.881H19V5.666H9zM3 7v1h5V7H3zm0 3v1h7v-1H3zm0 3v1h7v-1H3zm0 3v1h5v-1H3z" fill="#b48ead"/>
</svg>
