<svg width="22" height="22" version="1.1" xmlns="http://www.w3.org/2000/svg">
 <defs>
  <style id="current-color-scheme" type="text/css">
   .ColorScheme-Text { color:#2e3440; } .ColorScheme-Highlight { color:#88c0d0; } .ColorScheme-NeutralText { color:#d08770; } .ColorScheme-PositiveText { color:#a3be8c; } .ColorScheme-NegativeText { color:#bf616a; }
  </style>
 </defs>
 <path d="M3 3v16h1v-5a3 3 0 0 1 3-3 3 3 0 0 1 3 3v5h1v-5a4 4 0 0 0-4-4 4 4 0 0 0-3 1.361V3H3zm7 0v2H8v1h2v2h1V6h2V5h-2V3h-1zm6 0v2h-2v1h2v2h1V6h2V5h-2V3h-1z" fill="#913d88"/>
</svg>
