<svg width="22" height="22" version="1.1" xmlns="http://www.w3.org/2000/svg">
 <defs>
  <style id="current-color-scheme" type="text/css">
   .ColorScheme-Text { color:#2e3440; } .ColorScheme-Highlight { color:#88c0d0; } .ColorScheme-NeutralText { color:#d08770; } .ColorScheme-PositiveText { color:#a3be8c; } .ColorScheme-NegativeText { color:#bf616a; }
  </style>
 </defs>
 <path d="M3 3.5v15h16v-15H3zm1 1h1v1H4v-1zm2 0h10V10H6V4.5zm11 0h1v1h-1v-1zm-13 3h1v1H4v-1zm13 0h1v1h-1v-1zm-13 3h1v1H4v-1zm13 0h1v1h-1v-1zM6 12h10v5.5H6V12zm-2 1.5h1v1H4v-1zm13 0h1v1h-1v-1zm-13 3h1v1H4v-1zm13 0h1v1h-1v-1z" fill="#88c0d0" overflow="visible" style="filter-blend-mode:normal;filter-gaussianBlur-deviation:0;isolation:auto;mix-blend-mode:normal"/>
</svg>
