<svg width="16" height="16" version="1.1" viewBox="0 0 16 16" xmlns="http://www.w3.org/2000/svg">
 <defs>
  <style type="text/css">.ColorScheme-Text { color:#2e3440; }</style>
 </defs>
 <path class="ColorScheme-Text" d="m8 0a8 8 0 0 0-8 8 8 8 0 0 0 8 8 8 8 0 0 0 5.2773-2h-5.2773a6 6 0 0 1-6-6 6 6 0 0 1 6-6v1a5 5 0 0 0-5 5 5 5 0 0 0 5 5h6.2363a8 8 0 0 0 0.68359-1h-6.9199c-2.2091 0-4-1.7909-4-4s1.7909-4 4-4c0.33752 0.00126 0.67352 0.045229 1 0.13086v1.0449c-0.32092-0.11498-0.6591-0.17438-1-0.17578-1.6569 0-3 1.3431-3 3s1.3431 3 3 3h7.4102a8 8 0 0 0 0.32422-1h-7.7344a2 2 0 0 1-2-2 2 2 0 0 1 2-2 2 2 0 0 1 1.7305 1h-1.7305a1 1 0 0 0-1 1 1 1 0 0 0 1 1h7.9297a8 8 0 0 0 0.07031-1 8 8 0 0 0-8-8z" fill="currentColor"/>
</svg>
