<svg width="24" height="24" version="1.1" xmlns="http://www.w3.org/2000/svg">
 <path d="m12.5 10c-1.2139 0-2.219 0.85593-2.4492 2h-6.0508v1h6.0508c0.2302 1.1441 1.2354 2 2.4492 2s2.219-0.85593 2.4492-2h5.0508v-1h-5.0508c-0.2302-1.1441-1.2354-2-2.4492-2zm-0.005859 1.0137a1.5284 1.5284 0 0 1 1.5293 1.5293 1.5284 1.5284 0 0 1-1.5293 1.5273 1.5284 1.5284 0 0 1-1.5273-1.5273 1.5284 1.5284 0 0 1 1.5273-1.5293z" fill="#a3be8c"/>
 <path d="m6.5 15c-1.385 0-2.5 1.115-2.5 2.5s1.115 2.5 2.5 2.5c1.2139 0 2.219-0.85593 2.4492-2h11.051v-1h-11.051c-0.2302-1.1441-1.2354-2-2.4492-2m0 1c0.831 0 1.5 0.669 1.5 1.5s-0.669 1.5-1.5 1.5-1.5-0.669-1.5-1.5 0.669-1.5 1.5-1.5" fill="#5e81ac"/>
 <path d="m15.5 4c-1.2139 0-2.219 0.85593-2.4492 2h-9.0508v1h9.0508c0.2302 1.1441 1.2354 2 2.4492 2s2.219-0.85593 2.4492-2h2.0508v-1h-2.0508c-0.2302-1.1441-1.2354-2-2.4492-2m0 1c0.831 0 1.5 0.669 1.5 1.5s-0.669 1.5-1.5 1.5-1.5-0.669-1.5-1.5 0.669-1.5 1.5-1.5" fill="#bf616a"/>
</svg>
