<svg viewBox="0 0 24 24" xmlns="http://www.w3.org/2000/svg">
 <defs>
  <style id="current-color-scheme" type="text/css">
   .ColorScheme-Text { color:#2e3440; } .ColorScheme-Highlight { color:#88c0d0; } .ColorScheme-NeutralText { color:#d08770; } .ColorScheme-PositiveText { color:#a3be8c; } .ColorScheme-NegativeText { color:#bf616a; }
  </style>
 </defs>
 <path class="ColorScheme-Text" d="m7.0957 7c0.26954 1.7782 0.96706 3.6481 2.5508 5.3535-0.72023 0.90643-1.6293 1.787-2.8047 2.6465h-2.8418v1h1.3262c-0.49845 0.29904-1.0262 0.59646-1.6074 0.89062l0.5957 1.1094c1.2443-0.62974 2.3106-1.3017 3.2402-2h12.445v-1h-11.229c2.8188-2.54 4.051-5.368 4.9473-8h-1.3574c-0.51195 1.5034-1.1031 2.9318-1.9863 4.3086-1.2647-1.4163-1.8567-2.7964-2.0859-4.3086h-1.1934zm10.041 0c-1.1727 0.025-2.072 0.21755-2.7266 0.49805l0.36719 1.2617c0.31364-0.1021 1.4999-0.45898 2.1953-0.45898h0.095703c0.96819 0.038 1.0371 0.36868 1.0371 1.1465v0.30664l-0.50586 0.078125c-2.3455 0.3188-3.5996 0.58643-3.5996 2.2695 0 1.173 0.91358 1.8984 2.2363 1.8984 0.91364 0 1.5133-0.3572 2.127-0.8418l0.19141 0.71484h1.4453v-4.7188c0-1.4408-1.0628-2.1543-2.6992-2.1543h-0.16406zm0.96875 3.75v1.5684c-0.50453 0.3188-0.88647 0.54688-1.541 0.54688-0.58637 0-0.87305-0.34362-0.87305-0.82812 0-0.918 0.85817-1.0726 1.9082-1.2129l0.50586-0.074219z" fill="currentColor"/>
</svg>
