<svg viewBox="0 0 24 24" xmlns="http://www.w3.org/2000/svg">
 <defs>
  <style id="current-color-scheme" type="text/css">
   .ColorScheme-Text { color:#2e3440; } .ColorScheme-Highlight { color:#88c0d0; } .ColorScheme-NeutralText { color:#d08770; } .ColorScheme-PositiveText { color:#a3be8c; } .ColorScheme-NegativeText { color:#bf616a; }
  </style>
 </defs>
 <path class="ColorScheme-Text" d="m4 4v4h4v-4h-4zm8 0v1h1v-1h-1zm-7 1h2v2h-2v-2zm7 2v1h1v-1h-1zm0 3v1h1v-1h-1zm5 0v4h4v-4h-4zm1 1h2v2h-2v-2zm-6 2v1h1v-1h-1zm-8 3v4h4v-4h-4zm8 0v1h1v-1h-1zm-7 1h2v2h-2v-2zm7 2v1h1v-1h-1z" fill="currentColor"/>
 <path class="ColorScheme-Highlight" d="m9 4v4l3-2-3-2zm7 6-3 2 3 2v-4zm-7 6v4l3-2-3-2z" fill="currentColor"/>
</svg>
