<svg width="24" height="24" version="1.1" viewBox="0 0 24 24" xmlns="http://www.w3.org/2000/svg">
 <g fill="currentColor">
  <path d="m10.5 6v7.5h7.5v-1.5h-6v-6z"/>
  <path d="m12 0c-6.6289 0-12 5.3711-12 12s5.3711 12 12 12c1.3789-0.011719 2.7461-0.25781 4.043-0.73047-0.50781-0.30859-0.96094-0.69922-1.3398-1.1523-0.87891 0.24219-1.7891 0.375-2.7031 0.38281-5.8008 0-10.5-4.6992-10.5-10.5s4.6992-10.5 10.5-10.5 10.5 4.6992 10.5 10.5c-0.007812 0.91406-0.13672 1.8242-0.38281 2.7031 0.45312 0.37891 0.84375 0.83203 1.1523 1.3398 0.47266-1.2969 0.71875-2.6641 0.73047-4.043 0-6.6289-5.3711-12-12-12z"/>
  <path d="m18.754 14.672c-2.2539 0-4.082 1.8281-4.082 4.082 0 2.2578 1.8281 4.0859 4.082 4.0859 2.2578 0 4.0859-1.8281 4.0859-4.0859 0-2.2539-1.8281-4.082-4.0859-4.082zm-0.58203 1.168h1.168v2.332h2.332v1.168h-2.332v2.332h-1.168v-2.332h-2.3359v-1.168h2.3359z"/>
 </g>
</svg>
