<svg viewBox="0 0 24 24" xmlns="http://www.w3.org/2000/svg">
 <defs>
  <style id="current-color-scheme" type="text/css">
   .ColorScheme-Text { color:#2e3440; } .ColorScheme-Highlight { color:#88c0d0; } .ColorScheme-NeutralText { color:#d08770; } .ColorScheme-PositiveText { color:#a3be8c; } .ColorScheme-NegativeText { color:#bf616a; }
  </style>
 </defs>
 <path class="ColorScheme-Text" d="m11.988 4-4.9883 4.9902v6.0195316l4.9883 4.9902h1.0117v-15.99968h-1.0117zm-7.9883 5v6h2v-6h-2z" fill="currentColor"/>
 <path class="ColorScheme-Text" d="m14.865 4.5371-0.24414 0.97656a7 7 0 0 1 4.3789 6.4863 7 7 0 0 1-4.3809 6.4785l0.24414 0.97461a8 8 0 0 0 5.1367-7.4531 8 8 0 0 0-5.1348-7.4629zm0.45898 3.7441-0.53906 0.86133a4 4 0 0 1 1.2148 2.8574 4 4 0 0 1-1.2109 2.8613l0.53906 0.86328a5 5 0 0 0 1.6719-3.7246 5 5 0 0 0-1.6758-3.7188z" fill="currentColor" fill-opacity=".5"/>
</svg>
