<svg viewBox="0 0 24 24" xmlns="http://www.w3.org/2000/svg">
 <defs>
  <style id="current-color-scheme" type="text/css">
   .ColorScheme-Text { color:#2e3440; } .ColorScheme-Highlight { color:#88c0d0; } .ColorScheme-NeutralText { color:#d08770; } .ColorScheme-PositiveText { color:#a3be8c; } .ColorScheme-NegativeText { color:#bf616a; }
  </style>
 </defs>
 <g transform="translate(1,1)">
  <path class="ColorScheme-Text" d="m5 5v1h1v-1h-1zm2 0v1h1v-1h-1zm2 0v1h1v-1h-1zm3 0v1h1v-1h-1zm2 0v1h1v-1h-1zm2 0v1h1v-1h-1zm-11 2v1h1v-1h-1zm11 0v1h1v-1h-1zm-15 2v4l3-2-3-2zm4 0v1h1v-1h-1zm11 0v1h1v-1h-1zm5 0-3 2 3 2v-4zm-16 2v7h12v-7h-12zm1 1h10v5h-10v-5z" fill="currentColor"/>
 </g>
</svg>
