<svg width="24" height="24" viewBox="0 0 24 24" xmlns="http://www.w3.org/2000/svg">
 <defs>
  <style id="current-color-scheme" type="text/css">
   .ColorScheme-Text { color:#2e3440; } .ColorScheme-Highlight { color:#88c0d0; } .ColorScheme-NeutralText { color:#d08770; } .ColorScheme-PositiveText { color:#a3be8c; } .ColorScheme-NegativeText { color:#bf616a; }
  </style>
 </defs>
 <g transform="translate(1,1)">
  <path class="ColorScheme-Text" d="m12 3c-4.432 0-8 3.568-8 8v5.0078l-1.3438-1.4551-0.65625 0.69531 2.3125 2.5312 0.18945 0.2207 0.1875-0.2207 2.3125-2.5312-0.65625-0.69531-1.3438 1.4551-0.0019531-5.0078c0-3.878 3.122-7 7-7s7 3.122 7 7-3.122 7-7 7c-1.087 0-2.0839-0.29197-3-0.73047v1.127c0.9282 0.37501 1.9343 0.60352 3 0.60352 4.432 0 8-3.568 8-8s-3.568-8-8-8zm-1 2v7h6v-1h-5v-6h-1z" fill="currentColor"/>
 </g>
</svg>
