<svg version="1.1" viewBox="0 0 24 24" xmlns="http://www.w3.org/2000/svg">
 <defs>
  <style type="text/css">.ColorScheme-Text {
        color:#2e3440;
      }
      .ColorScheme-Highlight {
        color:#88c0d0;
      }</style>
 </defs>
 <g transform="translate(1,1)" fill="#2e3440">
  <path class="ColorScheme-Text" d="m3 3v16h9v-1h-8v-11h14v5h1v-9h-2v3h-2v-3h-8v3h-2v-3h-2zm10 10v6h6v-6h-1v1h-1v-1h-2v1h-1v-1h-1zm1 2h4v3h-4v-3z"/>
  <path class="ColorScheme-Highlight" d="m6 9v6h6v-6h-1v1h-1v-1h-2v1h-1v-1h-1zm1 2h4v3h-4v-3z"/>
 </g>
</svg>
