<svg viewBox="0 0 24 24" xmlns="http://www.w3.org/2000/svg">
 <defs>
  <style id="current-color-scheme" type="text/css">
   .ColorScheme-Text { color:#2e3440; } .ColorScheme-Highlight { color:#88c0d0; } .ColorScheme-NeutralText { color:#d08770; } .ColorScheme-PositiveText { color:#a3be8c; } .ColorScheme-NegativeText { color:#bf616a; }
  </style>
 </defs>
 <path class="ColorScheme-Text" d="m12 4c-1.108 0-2 0.892-2 2 0 0.097284 0.011721 0.19204 0.025391 0.28516-2.9096 0.849-5.0254 3.5237-5.0254 6.7148 0 3.878 3.122 7 7 7s7-3.122 7-7c0-1.5863-0.52733-3.0415-1.4102-4.2129 0.24303-0.1821 0.41016-0.45871 0.41016-0.78711 0-0.554-0.446-1-1-1-0.3284 0-0.60501 0.16712-0.78711 0.41016-0.66415-0.50055-1.4182-0.88571-2.2383-1.125 0.01367-0.09312 0.025391-0.18787 0.025391-0.28516 0-1.108-0.892-2-2-2zm0 1c0.554 0 1 0.446 1 1 0 0.027034-0.013535 0.049691-0.015625 0.076172-0.32253-0.045169-0.649-0.076172-0.98438-0.076172s-0.66184 0.031003-0.98438 0.076172c-0.002085-0.026481-0.015625-0.049138-0.015625-0.076172 0-0.554 0.446-1 1-1zm0 2c0.25958 0 0.5137 0.01932 0.76367 0.052734 0.03476 0.00439 0.06895 0.010651 0.10352 0.015625 0.24209 0.036669 0.48055 0.08548 0.71289 0.14844 2.5509 0.69123 4.4199 3.0076 4.4199 5.7832 0 3.324-2.676 6-6 6s-6-2.676-6-6c0-2.7756 1.869-5.092 4.4199-5.7832 0.23234-0.062957 0.4708-0.11177 0.71289-0.14844 0.034571-0.00497 0.06876-0.011239 0.10352-0.015625 0.24997-0.033414 0.50409-0.052734 0.76367-0.052734zm0 1v4c0.554 0 1 0.446 1 1h4c0-2.77-2.23-5-5-5z" fill="currentColor"/>
</svg>
