<svg width="24" height="24" version="1.1" viewBox="0 0 24 24" xmlns="http://www.w3.org/2000/svg">
 <defs>
  <style id="current-color-scheme" type="text/css">
   .ColorScheme-Text { color:#2e3440; } .ColorScheme-Highlight { color:#88c0d0; } .ColorScheme-NeutralText { color:#d08770; } .ColorScheme-PositiveText { color:#a3be8c; } .ColorScheme-NegativeText { color:#bf616a; }
  </style>
 </defs>
 <g transform="translate(1,1)" fill="currentColor">
  <path class="ColorScheme-Text" d="m7 3c-0.97291 3.405-3.3544 6.3323-4.4043 8.6758-0.3674 0.6968-0.5957 1.4788-0.5957 2.3242 0 2.77 2.23 5 5 5s5-2.23 5-5c0-0.8454-0.2283-1.6274-0.5957-2.3242-1.0499-2.3435-3.4314-5.2708-4.4043-8.6758zm2.2832 7.7168c1.0377 0.7212 1.7168 1.9183 1.7168 3.2832 0 2.216-1.784 4-4 4-1.365 0-2.562-0.679-3.2832-1.7168 0.64705 0.4497 1.4321 0.7168 2.2832 0.7168 2.216 0 4-1.784 4-4 0-0.8511-0.26709-1.6362-0.7168-2.2832z"/>
  <path class="ColorScheme-Text" d="m14 2c-0.8143 2.85-2.606 5.3601-3.7871 7.4785 0.207 0.34766 0.4051 0.69468 0.5879 1.0235 0.8077-1.6156 2.1317-3.7241 3.1992-6.1094 1.1941 2.668 2.7467 5.0273 3.4922 6.6914l0.0117 0.0293 0.0156 0.0293c0.3032 0.5749 0.4805 1.192 0.4805 1.8574 0 2.2333-1.7667 4-4 4-0.9515 0-1.8067-0.3342-2.4883-0.875-0.143 0.3043-0.3148 0.5888-0.5137 0.8555 0.8371 0.6314 1.8681 1.0195 3.002 1.0195 2.77 0 5-2.23 5-5 0-0.8454-0.2283-1.6274-0.5957-2.3242-1.0499-2.3435-3.4314-5.2708-4.4043-8.6758z"/>
 </g>
</svg>
