<!DOCTYPE svg>
<svg width="24" height="24" version="1.1" viewBox="0 0 24 24" xmlns="http://www.w3.org/2000/svg">
 <defs>
  <style id="current-color-scheme" type="text/css">
   .ColorScheme-Text { color:#2e3440; } .ColorScheme-Highlight { color:#88c0d0; } .ColorScheme-NeutralText { color:#d08770; } .ColorScheme-PositiveText { color:#a3be8c; } .ColorScheme-NegativeText { color:#bf616a; }
  </style>
 </defs>
 <g transform="translate(1,1)">
  <path class="ColorScheme-Text" d="m11 3v1h1.1797c1.1157 3.2394 2.2437 6.4748 3.3516 9.7168 0.4871 1.4386 1.0441 2.8538 1.5585 4.2832h-1.748c-0.5417-1.4792-1.0833-2.9583-1.625-4.4375h-2.7168v5.4375h8v-16h-8zm0 10.562v-1.2812h-2.1055c0.70183-2.0137 1.4037-4.0274 2.1055-6.0411v-2.2402h-1.0898c-1.1236 3.2696-2.2689 6.5326-3.3789 9.8066-0.48811 1.4055-1.0244 2.7943-1.5312 4.1934h1.748c0.54167-1.4792 1.0833-2.9583 1.625-4.4375h2.627zm0-7.3223v6.0411h2.1953c-0.7168-2.0567-1.4336-4.1133-2.1504-6.17-0.015 0.04297-0.0299 0.08594-0.0449 0.1289z" fill="currentColor"/>
 </g>
</svg>
