<!DOCTYPE svg>
<svg width="24" height="24" version="1.1" viewBox="0 0 24 24" xmlns="http://www.w3.org/2000/svg">
 <defs>
  <style id="current-color-scheme" type="text/css">
   .ColorScheme-Text { color:#2e3440; } .ColorScheme-Highlight { color:#88c0d0; } .ColorScheme-NeutralText { color:#d08770; } .ColorScheme-PositiveText { color:#a3be8c; } .ColorScheme-NegativeText { color:#bf616a; }
  </style>
 </defs>
 <g transform="translate(1,1)">
  <path class="ColorScheme-Text" d="m11 4v8.9922l2.9941-2.9922 0.0059 0.0078 0.0078-0.0078 2.9922 2.9922-0.707 0.707-2.293-2.2929-3 3v3.5937h7v-14h-7zm-1.707 8-4.293 4.293 0.70703 0.707 3.5918-3.5918 1.3496 1.3496 0.3516-0.3515v-1.4141l-0.3516 0.3516-1.3418-1.3438-6e-3 0.0078-0.00767-0.0078zm-1.793-6c0.831 0 1.5 0.669 1.5 1.5s-0.669 1.5-1.5 1.5-1.5-0.669-1.5-1.5 0.669-1.5 1.5-1.5zm0-1c-1.385 0-2.5 1.115-2.5 2.5s1.115 2.5 2.5 2.5 2.5-1.115 2.5-2.5-1.115-2.5-2.5-2.5zm-3.5-1h14v14h-14v-14zm-1-1v16h16v-16h-16z" fill="currentColor"/>
 </g>
</svg>
