<svg viewBox="0 0 24 24" xmlns="http://www.w3.org/2000/svg">
 <defs>
  <style id="current-color-scheme" type="text/css">
   .ColorScheme-Text { color:#2e3440; } .ColorScheme-Highlight { color:#88c0d0; } .ColorScheme-NeutralText { color:#d08770; } .ColorScheme-PositiveText { color:#a3be8c; } .ColorScheme-NegativeText { color:#bf616a; }
  </style>
 </defs>
 <path class="ColorScheme-Text" d="m11.5 4v1.8125h1v-1.8125h-1zm-4.8125 1.9688-0.71875 0.71875 1.2812 1.3125 0.71875-0.75-1.2812-1.2812zm10.625 0-1.2812 1.2812 0.71875 0.75 1.2812-1.3125-0.71875-0.71875zm-5.3125 1.0312c-2.7614 0-5 2.2386-5 5s2.2386 5 5 5 5-2.2386 5-5-2.2386-5-5-5zm0 1v8c-2.2091 0-4-1.7909-4-4s1.7909-4 4-4zm-8 3.5v1h1.8125v-1h-1.8125zm14.188 0v1h1.8125v-1h-1.8125zm-10.938 4.5312-1.2812 1.2812 0.71875 0.71875 1.2812-1.2812-0.71875-0.71875zm9.5 0-0.71875 0.71875 1.2812 1.2812 0.71875-0.71875-1.2812-1.2812zm-5.25 2.1562v1.8125h1v-1.8125h-1z" fill="currentColor"/>
</svg>
