<svg viewBox="0 0 24 24" xmlns="http://www.w3.org/2000/svg">
 <defs>
  <style id="current-color-scheme" type="text/css">
   .ColorScheme-Text { color:#2e3440; } .ColorScheme-Highlight { color:#88c0d0; } .ColorScheme-NeutralText { color:#d08770; } .ColorScheme-PositiveText { color:#a3be8c; } .ColorScheme-NegativeText { color:#bf616a; }
  </style>
 </defs>
 <g transform="translate(1,1)">
  <path class="ColorScheme-Text" d="m10.5 2v2.0254a7 7 0 0 0-6.4824 6.4746h-2.0176v1h2.0254a7 7 0 0 0 6.4746 6.4824v2.0176h1v-2.0254a7 7 0 0 0 6.4824-6.4746h2.0176v-1h-2.0254a7 7 0 0 0-6.4746-6.4824v-2.0176h-1zm0 3.0254v2.0098a4 4 0 0 0-3.4629 3.4648h-2.0117a6 6 0 0 1 5.4746-5.4746zm1 0a6 6 0 0 1 5.4746 5.4746h-2.0098a4 4 0 0 0-3.4648-3.4629v-2.0117zm-1 3.0156v2.459h-2.4531a3 3 0 0 1 2.4531-2.459zm1 0.0058594a3 3 0 0 1 2.459 2.4531h-2.459v-2.4531zm-6.4746 3.4531h2.0098a4 4 0 0 0 3.4648 3.4629v2.0117a6 6 0 0 1-5.4746-5.4746zm3.0156 0h2.459v2.4531a3 3 0 0 1-2.459-2.4531zm3.459 0h2.4531a3 3 0 0 1-2.4531 2.459v-2.459zm3.4629 0h2.0117a6 6 0 0 1-5.4746 5.4746v-2.0098a4 4 0 0 0 3.4629-3.4648z" fill="currentColor"/>
 </g>
</svg>
