<svg viewBox="0 0 24 24" xmlns="http://www.w3.org/2000/svg">
 <defs>
  <style type="text/css">.ColorScheme-Text {
        color:#2e3440;
      }
      .ColorScheme-Highlight {
        color:#88c0d0;
      }</style>
 </defs>
 <path class="ColorScheme-Text" d="m4 8v9h5v-4h7v2h1v-2h1v2h1v-2h1v-1h-11v-4h-5zm1 1h3v7h-3v-7z" fill="currentColor"/>
 <path class="ColorScheme-Highlight" d="m17.5 3a3.5 3.5 0 0 0-3.5 3.5 3.5 3.5 0 0 0 0.69922 2.0938l0.7168-0.7168a2.5 2.5 0 0 1-0.41602-1.377 2.5 2.5 0 0 1 2.5-2.5 2.5 2.5 0 0 1 1.377 0.41602l0.7168-0.7168a3.5 3.5 0 0 0-2.0938-0.69922zm2.8008 1.4062-0.7168 0.7168a2.5 2.5 0 0 1 0.41602 1.377 2.5 2.5 0 0 1-2.5 2.5 2.5 2.5 0 0 1-1.377-0.41602l-0.7168 0.7168a3.5 3.5 0 0 0 2.0938 0.69922 3.5 3.5 0 0 0 3.5-3.5 3.5 3.5 0 0 0-0.69922-2.0938z" fill="currentColor"/>
</svg>
