<svg viewBox="0 0 24 24" xmlns="http://www.w3.org/2000/svg">
 <defs>
  <style type="text/css">.ColorScheme-Text {
        color:#2e3440;
      }
      .ColorScheme-Highlight {
        color:#88c0d0;
      }</style>
 </defs>
 <path class="ColorScheme-Text" d="m10 10v4h4v-4h-4zm1 1h2v2h-2v-2zm-7 5v4h4v-4h-4zm12 0v4h4v-4h-4zm-11 1h2v2h-2v-2zm12 0h2v2h-2v-2z" fill="currentColor"/>
 <path class="ColorScheme-Highlight" d="m6 4v4h1v-1h2v1h1v-4h-1v1h-2v-1h-1zm8 0v4h1v-1h2v1h1v-4h-1v1h-2v-1h-1z" fill="currentColor"/>
</svg>
