<svg viewBox="0 0 24 24" xmlns="http://www.w3.org/2000/svg">
 <defs>
  <style id="current-color-scheme" type="text/css">
   .ColorScheme-Text { color:#2e3440; } .ColorScheme-Highlight { color:#88c0d0; } .ColorScheme-NeutralText { color:#d08770; } .ColorScheme-PositiveText { color:#a3be8c; } .ColorScheme-NegativeText { color:#bf616a; }
  </style>
 </defs>
 <path class="ColorScheme-Text" transform="translate(1,1)" d="m4 2.998v0.0019531h6v1h7v2h1v-3.002h-14zm4.293 0.0019531-3.5 3.5 3.5 3.5 0.70703-0.70703-2.293-2.293h5.293v-1h-5.293l2.293-2.293-0.70703-0.70703zm5.4141 3-0.70703 0.70703 2.293 2.293h-5.293v1h5.293l-2.293 2.293 0.70703 0.70703 3.5-3.5-3.5-3.5zm-9.707 4v9h10v-0.009766l0.007812 0.009766 3.9922-3.9922v-2.007765h-1v1h-4v4h-8v-8h-1z" fill="currentColor"/>
</svg>
