<svg viewBox="0 0 24 24" xmlns="http://www.w3.org/2000/svg">
 <defs>
  <style id="current-color-scheme" type="text/css">
   .ColorScheme-Text { color:#2e3440; } .ColorScheme-Highlight { color:#88c0d0; } .ColorScheme-NeutralText { color:#d08770; } .ColorScheme-PositiveText { color:#a3be8c; } .ColorScheme-NegativeText { color:#bf616a; }
  </style>
 </defs>
 <path class="ColorScheme-Text" transform="translate(1,1)" d="m2 2.998v16.001953h9v-1h-5v-6h5v-1h-6v7h-2v-14h3v5h8v-5h0.29297l2.707 2.707v3.29297h1v-3.69922h-0.007812l0.007812-0.0097656-3.293-3.293-0.007812 0.0097656v-0.0097656h-12.69922zm5 1.002h3.9004v4h-3.9004v-4zm11 7-0.99609 0.99414h-0.003906l-5 4.998 0.007812 0.009765-0.003906 1.0039h-0.003906v1.000005h2l0.005859-0.009765h0.013672l-0.005859-0.009766 0.98633-0.98633 4-3.9961-0.70508-0.70898-4.9902 4.9863-0.59375-0.5918 4.9922-4.9883 0.5918 0.59375 0.70508 0.70312 1-1-2-1.998z" fill="currentColor"/>
</svg>
