<svg viewBox="0 0 24 24" xmlns="http://www.w3.org/2000/svg">
 <defs>
  <style id="current-color-scheme" type="text/css">
   .ColorScheme-Text { color:#2e3440; } .ColorScheme-Highlight { color:#88c0d0; } .ColorScheme-NeutralText { color:#d08770; } .ColorScheme-PositiveText { color:#a3be8c; } .ColorScheme-NegativeText { color:#bf616a; }
  </style>
 </defs>
 <path class="ColorScheme-Text" d="m5 4v16h8v-1h-7v-14h12v9h1v-10h-14zm9 8c-1.662 0-3 1.338-3 3s1.338 3 3 3c0.64939 0 1.2464-0.20859 1.7363-0.55664l2.5566 2.5566 0.70703-0.70703-2.5566-2.5566c0.34806-0.48997 0.55664-1.0869 0.55664-1.7363 0-1.662-1.338-3-3-3zm0 1c1.108 0 2 0.892 2 2s-0.892 2-2 2-2-0.892-2-2 0.892-2 2-2z" fill="currentColor"/>
</svg>
