<svg viewBox="0 0 24 24" xmlns="http://www.w3.org/2000/svg">
 <defs>
  <style type="text/css">.ColorScheme-Text {
        color:#2e3440;
      }</style>
 </defs>
 <path class="ColorScheme-Text" transform="translate(1,1)" d="m4 3v16h1 8v-1h-8v-14h8v3 1h4v5h1v-4.5938-1.4062-0.0078125l-3.9922-3.9922-0.007812 0.0097656v-0.0097656h-1-8-1zm12 10-0.57422 1.6133-1.5469-0.73438 0.73438 1.5469-1.6133 0.57422 1.6133 0.57422-0.73438 1.5469 1.5469-0.73438 0.57422 1.6133 0.57422-1.6133 1.5469 0.73438-0.73438-1.5469 1.6133-0.57422-1.6133-0.57422 0.73438-1.5469-1.5469 0.73438-0.57422-1.6133z" fill="currentColor"/>
</svg>
