<svg viewBox="0 0 24 24" xmlns="http://www.w3.org/2000/svg">
 <defs>
  <style type="text/css">.ColorScheme-Text {
        color:#2e3440;
      }</style>
 </defs>
 <path class="ColorScheme-Text" transform="translate(1,1)" d="m7 3.0039v0.99609 3h1v-3h2v3h1v-3h2v3h3v-3h0.58203l1.418 1.418v8.582h-2v1h2 1v-1-8.2422-0.75391h-0.003906l-1.9961-2h-10zm-4 4.9961v1 10 1h1 2 1 4 1 2 1v-1-8.2422-0.75391-0.003906h-0.003906l-1.9961-1.9961v-0.0039062h-10zm1 1h2v3 1h6v-1-3h0.58203l1.418 1.418v8.582h-2v-4h-6v1 3h-2v-10zm3 0h2v3h-2v-3zm0 7h4v3h-4v-3z" fill="currentColor"/>
</svg>
