<svg viewBox="0 0 24 24" xmlns="http://www.w3.org/2000/svg">
 <defs>
  <style id="current-color-scheme" type="text/css">
   .ColorScheme-Text { color:#2e3440; } .ColorScheme-Highlight { color:#88c0d0; } .ColorScheme-NeutralText { color:#d08770; } .ColorScheme-PositiveText { color:#a3be8c; } .ColorScheme-NegativeText { color:#bf616a; }
  </style>
 </defs>
 <path class="ColorScheme-Text" transform="translate(1,1)" d="m4 2.998v2.002h2v-2h2v2h2v-2h2v2h2v-2h2v2h2v-2.002h-14m2 3.002v2h2v-2h-2m4 0v2h2v-2h-2m4 0v2h2v-2h-2m-10 3v10h10v-0.009766l0.007812 0.009766 3.9922-3.9922v-6.0078h-2v2h1v3h-4v4h-8v-7h1v-2h-2m4 0v2h2v-2h-2m4 0v2h2v-2h-2" fill="currentColor"/>
</svg>
