<svg viewBox="0 0 24 24" xmlns="http://www.w3.org/2000/svg">
 <defs>
  <style id="current-color-scheme" type="text/css">
   .ColorScheme-Text { color:#2e3440; } .ColorScheme-Highlight { color:#88c0d0; } .ColorScheme-NeutralText { color:#d08770; } .ColorScheme-PositiveText { color:#a3be8c; } .ColorScheme-NegativeText { color:#bf616a; }
  </style>
 </defs>
 <path class="ColorScheme-Text" d="m12 6a8 6 0 0 0-8 6 8 6 0 0 0 8 6 8 6 0 0 0 8-6 8 6 0 0 0-8-6zm0 1a7 5 0 0 1 7 5 7 5 0 0 1-7 5 7 5 0 0 1-7-5 7 5 0 0 1 7-5z" fill="currentColor"/>
</svg>
