<svg viewBox="0 0 24 24" xmlns="http://www.w3.org/2000/svg">
 <defs>
  <style id="current-color-scheme" type="text/css">
   .ColorScheme-Text { color:#2e3440; } .ColorScheme-Highlight { color:#88c0d0; } .ColorScheme-NeutralText { color:#d08770; } .ColorScheme-PositiveText { color:#a3be8c; } .ColorScheme-NegativeText { color:#bf616a; }
  </style>
 </defs>
 <path class="ColorScheme-Text" d="m10 4-7 7.1562 3.875 6.8438h3.125l-0.3125 2 4.3125-2.4062 4.3125 2.4062-0.8125-5.0625 3.5-3.5938-4.8438-0.75-2.1562-4.5938-0.65625 1.4062-3.3438-3.4062zm0 1.25 2.9375 3-1.0938 2.3438-4.8438 0.75 3.5 3.5938-0.34375 2.1875h-2.7812l-3.3125-5.8125 5.9375-6.0625zm4 2.5 1.625 3.4688 3.625 0.53125-2.625 2.6875 0.625 3.8125-3.25-1.7812-3.25 1.7812 0.625-3.8125-2.625-2.6875 3.625-0.53125 1.625-3.4688z" fill="currentColor"/>
</svg>
