<svg viewBox="0 0 24 24" xmlns="http://www.w3.org/2000/svg">
 <defs>
  <style id="current-color-scheme" type="text/css">
   .ColorScheme-Text { color:#2e3440; } .ColorScheme-Highlight { color:#88c0d0; } .ColorScheme-NeutralText { color:#d08770; } .ColorScheme-PositiveText { color:#a3be8c; } .ColorScheme-NegativeText { color:#bf616a; }
  </style>
 </defs>
 <path class="ColorScheme-Text" d="m4 4v3h1v7.9961l-0.99609 0.99609h-0.0039062v4.0078h4.0078v-0.003906l1-1h7.9922v1.0039h3v-3h-3v1h-6.9961l9.9961-9.9961-0.001953-0.0019531 0.001953-0.0019531-4-4-0.001953 0.0019531-0.001953-0.0019531-9.9961 9.9961v-6.9961h1v-3h-3zm1 1h1v1h-1v-1zm10.998 0.41211 2.5898 2.5898-8.793 8.793-2.5898-2.5898 8.793-8.793zm2.002 12.588h1v1h-1v-1z" fill="currentColor"/>
</svg>
