<svg viewBox="0 0 24 24" xmlns="http://www.w3.org/2000/svg">
 <defs>
  <style id="current-color-scheme" type="text/css">
   .ColorScheme-Text { color:#2e3440; } .ColorScheme-Highlight { color:#88c0d0; } .ColorScheme-NeutralText { color:#d08770; } .ColorScheme-PositiveText { color:#a3be8c; } .ColorScheme-NegativeText { color:#bf616a; }
  </style>
 </defs>
 <path class="ColorScheme-Text" d="m11.912 4a8 6 0 0 0-2.418 0.30273l0.83789 0.8418a7 5 0 0 1 1.668-0.14844 7 5 0 0 1 0.52734 0.019531l-0.61524-1.0156zm1.207 0.0625 0.66992 1.1055a7 5 0 0 1 2.7422 1.0176l0.8125-0.64453a8 6 0 0 0-4.2246-1.4785zm-4.7012 0.57617a8 6 0 0 0-1.8594 0.96875l0.97266 0.54688a7 5 0 0 1 1.6641-0.73242l-0.77734-0.7832zm9.7402 1.5312-0.78906 0.62695a7 5 0 0 1 0.79492 0.83789l1-0.29297a8 6 0 0 0-1.0059-1.1719zm-12.439 0.11133a8 6 0 0 0-1.0332 1.3047l0.93164 0.36719a7 5 0 0 1 1.0117-1.1602l-0.91016-0.51172zm13.93 1.9609-0.9668 0.2832a7 5 0 0 1 0.29688 1.0898l1.0059 0.13672a8 6 0 0 0-0.33594-1.5098zm-15.387 0.25a8 6 0 0 0-0.25781 1.4258l1.0039-0.044922a7 5 0 0 1 0.18164-1.0137l-0.92773-0.36719zm14.678 2.127a7 5 0 0 1-0.58789 1.4668l0.99024 0.27539a8 6 0 0 0 0.58398-1.6074l-0.98633-0.13476zm-13.83 0.25-1.0059 0.044921a8 6 0 0 0 0.5625 1.4727l0.91016-0.41797a7 5 0 0 1-0.4668-1.0996zm1.0879 1.916-0.93945 0.42969a8 6 0 0 0 1.7715 1.4668c0.63603 2.3756-1.8405 4.5013-1.0293 5.3125 1.1347 0.10812 1.8092-1.5668 2.082-3.1895 0.10207-0.13893 0.471-0.66693 0.76758-1.2969a8 6 0 0 0 3.1406 0.48828l-1.0664-1.0664a7 5 0 0 1-1.7871-0.38477c0.0079229-0.44405-0.26577-0.7236-1.1348-0.54492-0.00104-0.001377-8.931e-4 -0.004509-0.0019531-0.005859-0.079193 0-0.15763-0.015794-0.23633-0.027344a7 5 0 0 1-1.5664-1.1816zm11.461 0.14648a7 5 0 0 1-1.6738 1.168l0.97656 0.5957a8 6 0 0 0 1.7773-1.4629l-1.0801-0.30078zm-2.834 1.6328a7 5 0 0 1-2.4297 0.42188l0.92188 0.92188a8 6 0 0 0 2.5938-0.68164l-1.0859-0.66211z" fill="currentColor"/>
</svg>
