<svg viewBox="0 0 24 24" xmlns="http://www.w3.org/2000/svg">
 <defs>
  <style id="current-color-scheme" type="text/css">
   .ColorScheme-Text { color:#2e3440; } .ColorScheme-Highlight { color:#88c0d0; } .ColorScheme-NeutralText { color:#d08770; } .ColorScheme-PositiveText { color:#a3be8c; } .ColorScheme-NegativeText { color:#bf616a; }
  </style>
 </defs>
 <path class="ColorScheme-Text" d="m4 4v16h16v-16h-16zm1 1h4v2h-4v-2zm5 0h4v2h-4v-2zm5 0h4v2h-4v-2zm-10 3h14v2h-3v1h3v2h-3v1h3v2h-14v-2h3v-1h-3v-2h3v-1h-3v-2zm0 9h4v1.99999h-4v-2zm5 0h4v2h-4v-2zm5 0h4v2h-4v-2z" fill="currentColor"/>
 <path class="ColorScheme-NegativeText" d="m8 8v8h8v-8h-8zm1 1h6v1l-2 2 2 2v1h-6v-6z" fill="currentColor"/>
</svg>
