<svg viewBox="0 0 24 24" xmlns="http://www.w3.org/2000/svg">
 <defs>
  <style type="text/css">.ColorScheme-Text {
        color:#2e3440;
      }
      .ColorScheme-Highlight {
        color:#88c0d0;
      }</style>
 </defs>
 <path class="ColorScheme-Text" d="m4 4v1 15h1 9v-1h-4v-2h4v-1h-4v-2h4 6v-1h-6-4v-2h4v-1h-4v-2h4v-1h-4v-1-1h4 6v-1h-6-10zm1 1h4v1 1h-1-3v-2zm0 3h3 1v2h-4v-2zm0 3h4v2h-4v-2zm0 3h4v2h-1-3v-2zm10 1v5l5-2.5-5-2.5zm-10 2h3 1v1.0996 0.90039h-4v-2z" fill="currentColor"/>
 <path class="ColorScheme-Highlight" d="m14 4v1 5.293 2.707 1h6v-1-8-1h-6zm1 1h4v0.29297l-4 4v-4.293zm4 1.707v2.5859l-3.707 3.707h-0.29297v-2.293l4-4zm0 4v2.293h-2.293l2.293-2.293z" fill="currentColor"/>
</svg>
