<svg viewBox="0 0 24 24" xmlns="http://www.w3.org/2000/svg">
 <defs>
  <style type="text/css">.ColorScheme-Text {
        color:#2e3440;
      }
      .ColorScheme-Highlight {
        color:#88c0d0;
      }</style>
 </defs>
 <path class="ColorScheme-Text" d="m4 4v10 6h1v-6-4h1 1v4h1v-4h2v4h1v-4h2v4 6h1v-6-4h2v4h1v-4h2v4h1v-9-1h-15-1zm1 1h2v3 1h-1-1v-4zm3 0h2v4h-2v-1-3zm3 0h2v4h-2v-4zm3 0h2v3 1h-2v-4zm3 0h2v4h-0.90039-1.0996v-1-3zm-2 10 2.5 5 2.5-5h-5z" fill="currentColor"/>
 <path class="ColorScheme-Highlight" d="m5 14v1h4.293l-4 4h-0.29297v1h8v-1h-2.293l2.293-2.293v-1.4141l-3.707 3.707h-2.5859l4-4h2.293v-1h-2.707-5.293z" fill="currentColor"/>
</svg>
