<svg viewBox="0 0 24 24" xmlns="http://www.w3.org/2000/svg">
 <defs>
  <style id="current-color-scheme" type="text/css">
   .ColorScheme-Text { color:#2e3440; } .ColorScheme-Highlight { color:#88c0d0; } .ColorScheme-NeutralText { color:#d08770; } .ColorScheme-PositiveText { color:#a3be8c; } .ColorScheme-NegativeText { color:#bf616a; }
  </style>
 </defs>
 <path class="ColorScheme-Text" transform="translate(1,1)" d="m3 3v16h10v-1h-9v-14h14v9h1v-10h-16m8 2c-1.385 0-2.5 1.115-2.5 2.5s1.115 2.5 2.5 2.5 2.5-1.115 2.5-2.5-1.115-2.5-2.5-2.5m0 1c0.831 0 1.5 0.669 1.5 1.5s-0.669 1.5-1.5 1.5-1.5-0.669-1.5-1.5 0.669-1.5 1.5-1.5m0 5c-2.493 0-4.5 2.007-4.5 4.5v1.5h6.5v-1h-5.5v-0.5c0-1.939 1.561-3.5 3.5-3.5 0.95595 0 1.8168 0.38291 2.4473 1h1.2969c-0.80548-1.2068-2.1782-2-3.7441-2m5 3v2h-2v1h2v2h1v-2h2v-1h-2v-2h-1" fill="currentColor"/>
</svg>
