<svg viewBox="0 0 24 24" xmlns="http://www.w3.org/2000/svg">
 <defs>
  <style id="current-color-scheme" type="text/css">
   .ColorScheme-Text { color:#2e3440; } .ColorScheme-Highlight { color:#88c0d0; } .ColorScheme-NeutralText { color:#d08770; } .ColorScheme-PositiveText { color:#a3be8c; } .ColorScheme-NegativeText { color:#bf616a; }
  </style>
 </defs>
 <path class="ColorScheme-Text" transform="translate(1,1)" d="m3 3v16h16v-16h-16m1 1h14v14h-14v-14m1 1v2h1v-1h1v-1h-2m6 0c-1.385 0-2.5 1.115-2.5 2.5s1.115 2.5 2.5 2.5 2.5-1.115 2.5-2.5-1.115-2.5-2.5-2.5m4 0v1h1v1h1v-2h-2m-4 1c0.831 0 1.5 0.669 1.5 1.5s-0.669 1.5-1.5 1.5-1.5-0.669-1.5-1.5 0.669-1.5 1.5-1.5m-6 3v2h2v-1h-1v-1h-1m11 0v1h-1v1h2v-2h-1m-5 2c-2.493 0-4.5 2.007-4.5 4.5v1.5h9v-1.5c0-2.493-2.007-4.5-4.5-4.5m0 1c1.939 0 3.5 1.561 3.5 3.5v0.5h-7v-0.5c0-1.939 1.561-3.5 3.5-3.5" fill="currentColor"/>
</svg>
