<svg viewBox="0 0 24 24" xmlns="http://www.w3.org/2000/svg">
 <defs>
  <style id="current-color-scheme" type="text/css">
   .ColorScheme-Text { color:#2e3440; } .ColorScheme-Highlight { color:#88c0d0; } .ColorScheme-NeutralText { color:#d08770; } .ColorScheme-PositiveText { color:#a3be8c; } .ColorScheme-NegativeText { color:#bf616a; }
  </style>
 </defs>
 <path class="ColorScheme-Text" d="m4 4v16h1v-10h2v4h1v-4h2v4h1v-4h2v10h1v-10h2v4h1v-4h2v4h1v-10h-16zm1 1h2v4h-2v-4zm3 0h2v4h-2v-4zm3 0h2v4h-2v-4zm3 0h2v4h-2v-4zm3 0h2v4h-1.99999v-4zm-2 10 2.5 5 2.5-5h-5z" fill="currentColor"/>
 <path class="ColorScheme-Highlight" d="m5 14v1h4.293l-4 4h-0.29297v1h8v-1h-2.293l2.293-2.293v-1.4141l-3.707 3.707h-2.5859l4-4h2.293v-1h-8z" fill="currentColor"/>
</svg>
