<svg width="24" height="24" viewBox="0 0 24 24" xmlns="http://www.w3.org/2000/svg">
 <style type="text/css">.ColorScheme-NegativeText{color:#bf616a;}</style>
 <g class="ColorScheme-NegativeText" fill="currentColor">
  <path d="m5 4v7h1v-6h8v4h4v2h1v-3.0078l-3.9922-3.9922-0.0078 0.00977v-0.00977z"/>
  <path d="m4 12 16 1.2e-5 -1.2e-5 0.99999-16-1.2e-5z"/>
  <path d="m5 14 0.99999 7.2e-5 -1.17e-5 5.9999-0.99999-7.2e-5z"/>
  <path d="m7 14 0.99999 7.2e-5 -1.17e-5 5.9999-0.99999-7.2e-5z"/>
  <path d="m9 14 0.99999 7.2e-5 -1.1e-5 5.9999-0.99999-7.2e-5z"/>
  <path d="m11 14 0.99999 7.2e-5 -1.2e-5 5.9999-0.99999-7.2e-5z"/>
  <path d="m13 14 0.99999 7.2e-5 -1.2e-5 5.9999-0.99999-7.2e-5z"/>
  <path d="m15 14 0.99999 7.2e-5 -1.2e-5 5.9999-0.99999-7.2e-5z"/>
  <path d="m17 14 0.99999 7.2e-5 -1.2e-5 5.9999-0.99999-7.2e-5z"/>
 </g>
</svg>
