<svg viewBox="0 0 24 24" xmlns="http://www.w3.org/2000/svg">
 <defs>
  <style id="current-color-scheme" type="text/css">
   .ColorScheme-Text { color:#2e3440; } .ColorScheme-Highlight { color:#88c0d0; } .ColorScheme-NeutralText { color:#d08770; } .ColorScheme-PositiveText { color:#a3be8c; } .ColorScheme-NegativeText { color:#bf616a; }
  </style>
 </defs>
 <path class="ColorScheme-Text" transform="translate(1,1)" d="m7.0117 3c-0.57735 1-0.87813 1-0.30078 2l3.541 6.1406-2.0586 3.5273c-0.44526-0.41145-1.0365-0.66797-1.6934-0.66797-1.385 0-2.5 1.115-2.5 2.5s1.115 2.5 2.5 2.5 2.5-1.115 2.5-2.5c0-0.1671-0.01785-0.33052-0.048828-0.48828l1.1621-2.0137c0.78042-1e-3 0.8788-0.7746 1.334-0.78516l1.6035 2.7812c-0.033193 0.16304-0.050781 0.33273-0.050781 0.50586 0 1.385 1.115 2.5 2.5 2.5s2.5-1.115 2.5-2.5-1.115-2.5-2.5-2.5c-0.65333 0-1.2411 0.25459-1.6855 0.66211l-2.0547-3.5215 3.541-6.1406c0.57735-1 0.27657-1-0.30078-2l-3.9941 6.8477-3.9941-6.8477m3.9883 8c0.277 0 0.5 0.223 0.5 0.5s-0.223 0.5-0.5 0.5-0.5-0.223-0.5-0.5 0.223-0.5 0.5-0.5zm-4.5 4c0.831 0 1.5 0.669 1.5 1.5s-0.669 1.5-1.5 1.5-1.5-0.669-1.5-1.5 0.669-1.5 1.5-1.5m9 0c0.831 0 1.5 0.669 1.5 1.5s-0.669 1.5-1.5 1.5-1.5-0.669-1.5-1.5 0.669-1.5 1.5-1.5" fill="currentColor"/>
</svg>
