<svg viewBox="0 0 24 24" xmlns="http://www.w3.org/2000/svg">
 <defs>
  <style type="text/css">.ColorScheme-Text {
        color:#2e3440;
      }</style>
 </defs>
 <path class="ColorScheme-Text" d="m4 4v1 15h1 14 1v-15-1h-16zm1 1h4v1 1h-1-3v-2zm5 0h4v1 1h-4v-1-1zm5 0h4v2h-3-1v-1-1zm-10 3h3 1v1h1v-1h4v1h1v-1h4v2h-3v1h3v2h-3v1h3v2h-4v-1h-1v1h-4v-1h-1v1h-1-3v-2h3v-1h-3v-2h3v-1h-3v-2zm6 2-2 2 2 2v-4zm2 0v4l2-2-2-2zm-8 7h3 1v1.0996 0.90039h-4v-2zm5 0h4v2h-4v-2zm5 0h4v2h-4v-2z" fill="currentColor"/>
</svg>
