<svg viewBox="0 0 24 24" xmlns="http://www.w3.org/2000/svg">
 <defs>
  <style id="current-color-scheme" type="text/css">
   .ColorScheme-Text { color:#2e3440; } .ColorScheme-Highlight { color:#88c0d0; } .ColorScheme-NeutralText { color:#d08770; } .ColorScheme-PositiveText { color:#a3be8c; } .ColorScheme-NegativeText { color:#bf616a; }
  </style>
 </defs>
 <g transform="translate(1,1)">
  <path class="ColorScheme-Text" d="m3 3v16h16v-16h-16zm1 1h14v14h-14v-14z" fill="currentColor"/>
  <path d="m10 4v5h2v-5h-2zm-6 6v2h5v-2h-5zm9 0v2h5v-2h-5zm-3 3v5h2v-5h-2z" fill="#bf616a"/>
  <path class="ColorScheme-Highlight" d="m11 8c-1.6569 0-3 1.3431-3 3s1.3431 3 3 3 3-1.3431 3-3-1.3431-3-3-3zm0 2c0.55228 0 1 0.4477 1 1s-0.44772 1-1 1-1-0.4477-1-1 0.44772-1 1-1z" fill="currentColor"/>
 </g>
</svg>
