<svg viewBox="0 0 24 24" xmlns="http://www.w3.org/2000/svg">
 <defs>
  <style id="current-color-scheme" type="text/css">
   .ColorScheme-Text { color:#2e3440; } .ColorScheme-Highlight { color:#88c0d0; } .ColorScheme-NeutralText { color:#d08770; } .ColorScheme-PositiveText { color:#a3be8c; } .ColorScheme-NegativeText { color:#bf616a; }
  </style>
 </defs>
 <path class="ColorScheme-Text" d="m4 4v7h8v-7h-8zm1 1h6v5h-6v-5zm8 0.078125v3.9219h1v-2.6445a6 6 0 0 1 4 5.6445h1a7 7 0 0 0-6-6.9219zm-8 6.9219a7 7 0 0 0 6 6.9219v-3.9219h-1v2.6445a6 6 0 0 1-4-5.6445h-1zm7 1v7h8v-7h-8zm1 1h6v5h-6v-5z" fill="currentColor"/>
</svg>
