<svg version="1.1" viewBox="0 0 24 24" xmlns="http://www.w3.org/2000/svg">
 <defs>
  <style id="current-color-scheme" type="text/css">
   .ColorScheme-Text { color:#2e3440; } .ColorScheme-Highlight { color:#88c0d0; } .ColorScheme-NeutralText { color:#d08770; } .ColorScheme-PositiveText { color:#a3be8c; } .ColorScheme-NegativeText { color:#bf616a; }
  </style>
 </defs>
 <g transform="translate(1,1)" fill="currentColor">
  <g transform="translate(-326 -534.36)" fill="currentColor">
   <path class="ColorScheme-Text" d="m339 539.36v12h1v-1.3613a4 4 0 0 0 3 1.3613 4 4 0 0 0 4-4 4 4 0 0 0-4-4 4 4 0 0 0-3 1.3613v-5.3613h-1zm4 5a3 3 0 0 1 3 3 3 3 0 0 1-3 3 3 3 0 0 1-3-3 3 3 0 0 1 3-3z"/>
   <path class="ColorScheme-Highlight" d="m331.67 537.36-4.8412 14h1.169l1.7353-4.6667h6.0396l1.7285 4.6667h1.3275l-4.9069-14h-2.2518zm1.0897 1.2008 2.5803 6.9658h-5.172l2.5916-6.9658z"/>
  </g>
 </g>
</svg>
