<svg viewBox="0 0 24 24" xmlns="http://www.w3.org/2000/svg">
 <defs>
  <style id="current-color-scheme" type="text/css">
   .ColorScheme-Text { color:#2e3440; } .ColorScheme-Highlight { color:#88c0d0; } .ColorScheme-NeutralText { color:#d08770; } .ColorScheme-PositiveText { color:#a3be8c; } .ColorScheme-NegativeText { color:#bf616a; }
  </style>
 </defs>
 <g transform="translate(1,1)">
  <path class="ColorScheme-Text" d="m11 3a8 8 0 0 0-0.80664 0.041016c-2.2153 0.21989-4.1543 1.3395-5.4609 2.9863-0.16422 0.20699-0.31757 0.42151-0.46094 0.64453a8 8 0 0 0-0.013672 0.023438c-0.13912 0.21804-0.26885 0.44194-0.38672 0.67383a8 8 0 0 0-0.0019532 0.0058594c-0.11259 0.22194-0.21472 0.45019-0.30664 0.68359a8 8 0 0 0-0.056641 0.1543c-0.069659 0.1882-0.13381 0.3776-0.18945 0.57227a8 8 0 0 0-0.0625 0.23633c-0.044807 0.17713-0.086307 0.35542-0.11914 0.53711a8 8 0 0 0-0.042969 0.28125c-0.022595 0.15647-0.043172 0.31333-0.056641 0.47266a8 8 0 0 0-0.035156 0.6875 8 8 0 0 0 0.041016 0.80664c0.21989 2.2153 1.3395 4.1543 2.9863 5.4609 0.20699 0.16422 0.42151 0.31757 0.64453 0.46094a8 8 0 0 0 0.023438 0.013672c0.21804 0.13912 0.44194 0.26885 0.67383 0.38672h0.0019532a8 8 0 0 0 0.0039062 0.001953c0.22194 0.1126 0.45019 0.21472 0.68359 0.30664a8 8 0 0 0 0.1543 0.056641c0.1882 0.069658 0.3776 0.13381 0.57227 0.18945a8 8 0 0 0 0.23633 0.0625c0.17713 0.044807 0.35542 0.086307 0.53711 0.11914a8 8 0 0 0 0.28125 0.042969c0.15647 0.022595 0.31333 0.043172 0.47266 0.056641a8 8 0 0 0 0.6875 0.035156 8 8 0 0 0 1-0.070312v-1.0078a7 7 0 0 1-1 0.078125c-0.23644 0-0.46893-0.012481-0.69922-0.035156a7 7 0 0 1-0.62305-0.09375 7 7 0 0 1-0.068359-0.009766h-0.0019531a7 7 0 0 1-4.8418-3.6797 7 7 0 0 1-0.011719-0.021485 7 7 0 0 1-0.26758-0.59961c-0.011075-0.0283-0.020533-0.057458-0.03125-0.085938a7 7 0 0 1-0.18164-0.54688c-0.017947-0.063129-0.032614-0.12755-0.048828-0.19141a7 7 0 0 1-0.10352-0.45703c-0.017241-0.09394-0.029494-0.18992-0.042969-0.28516a7 7 0 0 1-0.048828-0.4043c-0.016195-0.19513-0.029297-0.39039-0.029297-0.58984 0-0.23644 0.012481-0.46893 0.035156-0.69922a7 7 0 0 1 0.09375-0.62305 7 7 0 0 1 0.0097657-0.070312 7 7 0 0 1 3.6797-4.8418 7 7 0 0 1 0.021484-0.011719 7 7 0 0 1 0.59961-0.26758c0.0283-0.011075 0.057458-0.020533 0.085938-0.03125a7 7 0 0 1 0.54688-0.18164c0.063129-0.017947 0.12755-0.032614 0.19141-0.048828a7 7 0 0 1 0.45703-0.10352c0.09394-0.017241 0.18992-0.029494 0.28516-0.042969a7 7 0 0 1 0.4043-0.048828c0.19513-0.016195 0.39039-0.029297 0.58984-0.029297a7 7 0 0 1 0.69922 0.035156 7 7 0 0 1 0.62305 0.09375 7 7 0 0 1 0.068359 0.0097657h0.001953a7 7 0 0 1 4.8418 3.6797 7 7 0 0 1 0.003906 0.0058594c0.002639 0.0051927 0.005187 0.010425 0.007813 0.015625a7 7 0 0 1 0.26758 0.59961c0.011075 0.0283 0.020533 0.057458 0.03125 0.085938a7 7 0 0 1 0.18164 0.54688c0.017948 0.063129 0.032614 0.12755 0.048829 0.19141a7 7 0 0 1 0.10352 0.45703c0.017241 0.09394 0.029494 0.18992 0.042969 0.28516a7 7 0 0 1 0.048828 0.4043c0.016195 0.19513 0.029297 0.39039 0.029297 0.58984a7 7 0 0 1-0.080078 1h1.0078a8 8 0 0 0 0.072266-1c0-0.26973-0.013241-0.53611-0.039062-0.79883a8 8 0 0 0-0.001954-0.007813c-0.21989-2.2153-1.3395-4.1543-2.9863-5.4609-0.20699-0.16422-0.42151-0.31757-0.64453-0.46094-0.001973-0.0012684-0.003885-0.0026395-0.005859-0.0039063a8 8 0 0 0-0.017578-0.0097656c-0.21805-0.13912-0.44194-0.26885-0.67383-0.38672h-0.001953a8 8 0 0 0-0.003906-0.0019532c-0.22194-0.11259-0.45019-0.21472-0.68359-0.30664a8 8 0 0 0-0.1543-0.056641c-0.1882-0.069659-0.3776-0.13381-0.57226-0.18945a8 8 0 0 0-0.23633-0.0625c-0.17713-0.044807-0.35542-0.086307-0.53711-0.11914a8 8 0 0 0-0.28125-0.042969c-0.15647-0.022595-0.31333-0.043172-0.47266-0.056641a8 8 0 0 0-0.6875-0.035156zm0 2c-3.324 0-6 2.676-6 6h3c0-1.662 1.338-3 3-3v-3zm0 4c-1.108 0-2 0.892-2 2s0.892 2 2 2v-1c-0.554 0-1-0.446-1-1s0.446-1 1-1 1 0.446 1 1h1c0-1.108-0.892-2-2-2zm3 4v1h-1v1h1v2h-1v1h1v1h1v-1h2v1h1v-1h1v-1h-1v-2h1v-1h-1v-1h-1v1h-2v-1h-1zm1 2h2v2h-2v-2z" fill="currentColor"/>
 </g>
</svg>
