<svg viewBox="0 0 24 24" xmlns="http://www.w3.org/2000/svg">
 <defs>
  <style id="current-color-scheme" type="text/css">
   .ColorScheme-Text { color:#2e3440; } .ColorScheme-Highlight { color:#88c0d0; } .ColorScheme-NeutralText { color:#d08770; } .ColorScheme-PositiveText { color:#a3be8c; } .ColorScheme-NegativeText { color:#bf616a; }
  </style>
 </defs>
 <g transform="translate(1,1)">
  <path class="ColorScheme-Text" transform="translate(-544.57 -742.93)" d="m547.57 746.43v15h16v-15h-16m1 1h1v1h-1v-1m2 0h10v5.5h-10v-5.5m11 0h1v1h-1v-1m-13 3h1v1h-1v-1m13 0h1v1h-1v-1m-13 3h1v1h-1v-1m13 0h1v1h-1v-1m-11 1.5h10v5.5h-10v-5.5m-2 1.5h1v1h-1v-1m13 0h1v1h-1v-1m-13 3h1v1h-1v-1m13 0h1v1h-1v-1" fill="currentColor"/>
 </g>
</svg>
