<svg version="1.1" viewBox="0 0 24 24" xmlns="http://www.w3.org/2000/svg">
 <defs>
  <style id="current-color-scheme" type="text/css">
   .ColorScheme-Text { color:#2e3440; } .ColorScheme-Highlight { color:#88c0d0; } .ColorScheme-NeutralText { color:#d08770; } .ColorScheme-PositiveText { color:#a3be8c; } .ColorScheme-NegativeText { color:#bf616a; }
  </style>
 </defs>
 <g transform="translate(1,1)" fill="currentColor">
  <path class="ColorScheme-Text" d="m11 3c-1.1049 0-2.3438 2.3438-2.3438 2.3438s-2.5317-0.78076-3.3125 0 0 3.3125 0 3.3125-2.3438 1.2389-2.3438 2.3438 2.3438 2.3438 2.3438 2.3438-0.78076 2.5317 0 3.3125 3.3125 0 3.3125 0 1.2389 2.3438 2.3438 2.3438 2.3438-2.3438 2.3438-2.3438 2.5317 0.78076 3.3125 0 0-3.3125 0-3.3125 2.3438-1.2389 2.3438-2.3438-2.3438-2.3438-2.3438-2.3438 0.78076-2.5317 0-3.3125-3.3125 0-3.3125 0-1.2389-2.3438-2.3438-2.3438zm0 4c2.2091 0 4 1.7909 4 4s-1.7909 4-4 4-4-1.7909-4-4 1.7909-4 4-4z"/>
  <path class="ColorScheme-Text" d="m9.5274 15.295c-1.1592-0.42913-2.0785-1.2941-2.6327-2.477-0.30952-0.66063-0.33519-0.8023-0.33519-1.8496 0-1.0493 0.025297-1.1882 0.338-1.8557 0.57454-1.2264 1.5608-2.1145 2.7972-2.5188 0.42831-0.14005 0.81971-0.17601 1.5596-0.14328 0.85071 0.037627 1.0868 0.092971 1.7011 0.39879 3.416 1.7007 3.4132 6.5386-0.0047 8.2403-0.64923 0.32322-0.82077 0.36002-1.7922 0.38443-0.84084 0.02113-1.1953-0.01779-1.6311-0.17913z" fill-opacity=".5"/>
 </g>
</svg>
