<svg viewBox="0 0 24 24" xmlns="http://www.w3.org/2000/svg">
 <defs>
  <style id="current-color-scheme" type="text/css">
   .ColorScheme-Text { color:#2e3440; } .ColorScheme-Highlight { color:#88c0d0; } .ColorScheme-NeutralText { color:#d08770; } .ColorScheme-PositiveText { color:#a3be8c; } .ColorScheme-NegativeText { color:#bf616a; }
  </style>
 </defs>
 <g transform="translate(1,1)">
  <path class="ColorScheme-Text" d="m3 3v16h7v-1h-6v-8h3v-0.0078125l0.0078125 0.0078125 2-2h8.9922v2h1v-5h-6.9922l-2-2-0.007812 0.0078125v-0.0078125h-7zm1 1h5.5859l1.0039 1.0039-4.0195 3.9961h-2.5703531v-5zm9 7v1h-2v7h8v-7h-2v-1h-4zm-1 2h6v5h-6v-5zm1 1v1h4v-1h-4zm0 2v1h2v-1h-2z" fill="currentColor"/>
 </g>
</svg>
