<svg viewBox="0 0 24 24" xmlns="http://www.w3.org/2000/svg">
 <defs>
  <style id="current-color-scheme" type="text/css">
   .ColorScheme-Text { color:#2e3440; } .ColorScheme-Highlight { color:#88c0d0; } .ColorScheme-NeutralText { color:#d08770; } .ColorScheme-PositiveText { color:#a3be8c; } .ColorScheme-NegativeText { color:#bf616a; }
  </style>
 </defs>
 <path class="ColorScheme-Text" d="m4 4v16h10v-1h-9v-8h3v-0.009766l0.0078125 0.009766 2-2h8.9922v5h1v-8h-6.9922l-2-2-0.007812 0.0097656v-0.0097656h-7zm13.5 11c-1.385 0-2.5 1.115-2.5 2.5 0 0.43343 0.11805 0.83481 0.31055 1.1895l0.75976-0.75976c-0.041029-0.1371-0.070312-0.2789-0.070312-0.42969 0-0.831 0.669-1.5 1.5-1.5 0.15079 0 0.29259 0.029293 0.42969 0.070312l0.75976-0.75976c-0.35466-0.19249-0.75603-0.31055-1.1895-0.31055zm2.1895 1.3105-0.75976 0.75976c0.041029 0.1371 0.070312 0.2789 0.070312 0.42969 0 0.831-0.669 1.5-1.5 1.5-0.15079 0-0.29259-0.029293-0.42969-0.070312l-0.75976 0.75976c0.35465 0.19249 0.75603 0.31055 1.1895 0.31055 1.385 0 2.5-1.115 2.5-2.5 0-0.43343-0.11805-0.83481-0.31055-1.1895z" fill="currentColor"/>
</svg>
