<svg viewBox="0 0 24 24" xmlns="http://www.w3.org/2000/svg">
 <defs>
  <style id="current-color-scheme" type="text/css">
   .ColorScheme-Text { color:#2e3440; } .ColorScheme-Highlight { color:#88c0d0; } .ColorScheme-NeutralText { color:#d08770; } .ColorScheme-PositiveText { color:#a3be8c; } .ColorScheme-NegativeText { color:#bf616a; }
  </style>
 </defs>
 <g transform="translate(1,1)">
  <path class="ColorScheme-Text" d="m11.5 2c-1.7797 1e-7 -3.2004 1.361-3.416 3.084-1.723 0.21566-3.084 1.6364-3.084 3.416 0 1.593 1.0817 2.9291 2.543 3.3496l2.9902 7.9648a0.50005 0.50005 0 0 0 0.9375 0l2.9844-7.9648c1.4622-0.41991 2.5449-1.7559 2.5449-3.3496-0.001666-1.3376-0.83322-2.4645-2.0098-3.0488-0.027884-1.9034-1.5805-3.4512-3.4902-3.4512zm0 1c1.386 0 2.499 1.1123 2.5 2.498-0.001438 0.043884-0.004071 0.087111-0.007812 0.13086a0.50005 0.50005 0 0 0 0.33398 0.51562c1.0037 0.35096 1.6725 1.2922 1.6738 2.3555 0 1.3866-1.1134 2.5-2.5 2.5-0.83916-7.43e-4 -1.6193-0.42104-2.082-1.1211a0.50005 0.50005 0 0 0-0.83594 0c-0.46274 0.70005-1.2429 1.1203-2.082 1.1211-1.3866 0-2.5-1.1134-2.5-2.5s1.1134-2.5 2.5-2.5a0.50005 0.50005 0 0 0 0.5-0.5c0-1.3866 1.1134-2.5 2.5-2.5zm-0.5 7.8105c0.61818 0.66479 1.427 1.118 2.3379 1.1699l-2.3398 6.2402-2.3379-6.2402c0.91171-0.051342 1.7212-0.50466 2.3398-1.1699z" fill="currentColor"/>
 </g>
</svg>
