<svg viewBox="0 0 24 24" xmlns="http://www.w3.org/2000/svg">
 <defs>
  <style id="current-color-scheme" type="text/css">
   .ColorScheme-Text { color:#2e3440; } .ColorScheme-Highlight { color:#88c0d0; } .ColorScheme-NeutralText { color:#d08770; } .ColorScheme-PositiveText { color:#a3be8c; } .ColorScheme-NegativeText { color:#bf616a; }
  </style>
 </defs>
 <path class="ColorScheme-Text" d="m4 3v17h17v-17h-17zm1 1h7v7h-7v-7zm8 0h7v7h-7v-7zm-8 8h7v7h-7v-7zm8 0h7v7h-7v-7z" fill="currentColor" fill-opacity=".1"/>
 <path class="ColorScheme-Text" d="m5 4v7h7v-7h-7zm8 0v6.293l6.293-6.293h-6.293zm7 0.70703-6.293 6.293h6.293v-6.293zm-15 7.293v6.293l6.293-6.293h-6.293zm8 0v7h7v-7h-7zm-1 0.70703-6.293 6.293h6.293v-6.293z" fill="currentColor" fill-opacity=".5"/>
 <path class="ColorScheme-Text" d="m20.293 3-16.293 16.293v0.70703h0.70703l16.293-16.293v-0.70703h-0.70703z" fill="currentColor"/>
</svg>
