<svg viewBox="0 0 24 24" xmlns="http://www.w3.org/2000/svg">
 <defs>
  <style id="current-color-scheme" type="text/css">
   .ColorScheme-Text { color:#2e3440; } .ColorScheme-Highlight { color:#88c0d0; } .ColorScheme-NeutralText { color:#d08770; } .ColorScheme-PositiveText { color:#a3be8c; } .ColorScheme-NegativeText { color:#bf616a; }
  </style>
 </defs>
 <path class="ColorScheme-Text" d="m5.5 4c-0.831 0-1.5 0.669-1.5 1.5 0 0.6542 0.41808 1.2022 1 1.4082v10.092h-1v3h3v-1h7v-1h-7v-1h-1v-10.092c0.42446-0.1503 0.75675-0.4855 0.9082-0.9082h10.092v1h1v7h1v-7h1v-3h-3v1h-10.092c-0.20601-0.5819-0.75396-1-1.4082-1zm0 1c0.277 0 0.5 0.223 0.5 0.5s-0.223 0.5-0.5 0.5-0.5-0.223-0.5-0.5 0.223-0.5 0.5-0.5zm12.5 0h1v1h-1v-1zm-1 10v2h-2v1h2v2h1v-2h2v-1h-2v-2h-1zm-12 3h1v1h-1v-1z" fill="currentColor"/>
</svg>
