<svg viewBox="0 0 24 24" xmlns="http://www.w3.org/2000/svg">
 <defs>
  <style id="current-color-scheme" type="text/css">
   .ColorScheme-Text { color:#2e3440; } .ColorScheme-Highlight { color:#88c0d0; } .ColorScheme-NeutralText { color:#d08770; } .ColorScheme-PositiveText { color:#a3be8c; } .ColorScheme-NegativeText { color:#bf616a; }
  </style>
 </defs>
 <path class="ColorScheme-Text" d="m6.0352 8-4.0352 12h0.97461l1.4453-4h5.0332l1.4414 4h1.1055l-4.0898-12h-1.875zm6.9648 0v12h1v-1.3613a4 4 0 0 0 3 1.3613 4 4 0 0 0 4-4 4 4 0 0 0-4-4 4 4 0 0 0-3 1.3613v-5.3613h-1zm-6.0566 1.0293 2.1484 5.9707h-4.3086l2.1602-5.9707zm10.057 3.9707a3 3 0 0 1 3 3 3 3 0 0 1-3 3 3 3 0 0 1-3-3 3 3 0 0 1 3-3z" fill="currentColor"/>
 <path class="ColorScheme-Highlight" d="m7 3-3 4h6l-3-4z" fill="currentColor"/>
</svg>
