<svg viewBox="0 0 24 24" xmlns="http://www.w3.org/2000/svg">
 <defs>
  <style id="current-color-scheme" type="text/css">
   .ColorScheme-Text { color:#2e3440; } .ColorScheme-Highlight { color:#88c0d0; } .ColorScheme-NeutralText { color:#d08770; } .ColorScheme-PositiveText { color:#a3be8c; } .ColorScheme-NegativeText { color:#bf616a; }
  </style>
 </defs>
 <path class="ColorScheme-Text" d="m10 3v2.1309c-0.97717 0.14188-1.8093 0.39908-2.4629 0.80078-1.0106 0.6149-1.5156 1.5581-1.5156 2.8301-0.0045585 2.1953 1.5575 2.9187 3.9785 3.584v4.9902c-1.1727-0.099011-2.2449-0.31943-3.377-0.80274l-0.62305 1.3555c0.56451 0.3013 1.3273 0.56216 2.2891 0.78516 0.54428 0.12232 1.1112 0.20058 1.7109 0.25391v2.0723h1v-2.0234c0.1701 0.004537 0.31439 0.023438 0.49414 0.023438 0.16351-0.001299 0.33609-0.015301 0.50586-0.023438v2.0234h1v-2.1191c1.9968-0.28485 3.98-1.2023 3.959-3.6875-0.069983-1.8291-1.2031-2.5075-3.959-3.4766v-4.9531c0.90326 0.12074 2.0021 0.37228 3.2246 0.98242l0.77539-1.543c-0.55058-0.2955-1.8311-0.76641-2.6465-0.94141-0.43351-0.092613-0.88652-0.1556-1.3535-0.19922v-2.0625h-1v2.0137c-0.092209-0.0017585-0.17809-0.013672-0.27148-0.013672-0.25674 0-0.4878 0.020344-0.72852 0.033203v-2.0332h-1zm1.4375 3.6484c0.15102 8.281e-4 0.36234 0.0094501 0.5625 0.017578v4.7012c-0.15745-0.052712-0.25536-0.093163-0.42188-0.14844-0.1787-0.043982-0.38492-0.10813-0.57812-0.16016v-4.3965c0.14588-0.00637 0.29158-0.013656 0.4375-0.013672zm-1.4375 0.11133v3.9961c-1.227-0.43437-2.357-1.0912-2.3242-2.1895-0.059548-1.0413 1.0044-1.5908 2.3242-1.8066zm1 5.8535c0.18387 0.04679 0.32982 0.09211 0.52148 0.14062 0.16101 0.04582 0.3174 0.09735 0.47852 0.14453v4.4922c-0.14946 0.0031-0.31139 0.018788-0.45117 0.017578-0.19148-0.001782-0.36467-0.01399-0.54883-0.019531v-4.7754zm2 0.59766c1.2815 0.44854 2.3197 1.0353 2.2969 2.0645-0.03888 1.3957-1.1316 1.8829-2.2969 2.0488v-4.1133z" fill="currentColor"/>
</svg>
