<svg width="24" height="24" version="1.1" xmlns="http://www.w3.org/2000/svg">
 <defs>
  <style id="current-color-scheme" type="text/css">
   .ColorScheme-Text { color:#2e3440; } .ColorScheme-Highlight { color:#88c0d0; } .ColorScheme-NeutralText { color:#d08770; } .ColorScheme-PositiveText { color:#a3be8c; } .ColorScheme-NegativeText { color:#bf616a; }
  </style>
 </defs>
 <g fill="currentColor">
  <path class="ColorScheme-Text" d="m20 1c1.662 0 3 1.338 3 3v16c0 1.662-1.338 3-3 3h-16c-1.662 0-3-1.338-3-3v-16c0-1.662 1.338-3 3-3zm0 1h-16c-1.108 0-2 0.892-2 2v16c0 1.108 0.892 2 2 2h16c1.108 0 2-0.892 2-2v-16c0-1.108-0.892-2-2-2z"/>
  <path class="ColorScheme-Text" d="m4 6.5 3-2.5v2h5v1h-5v2z"/>
  <path class="ColorScheme-Text" d="m4 12.5 3-2.5v2h13v1h-13v2z"/>
  <path class="ColorScheme-Text" d="m4 18.5 3-2.5v2h13v1h-13v2z"/>
  <path class="ColorScheme-Text" d="m17 4c-0.725 0-1.4567 0.21223-2.0312 0.67188s-0.96875 1.1892-0.96875 2.0781v4a0.5 0.5 0 0 0 0.5 0.5 0.5 0.5 0 0 0 0.5-0.5v-2.25h4v2.25a0.5 0.5 0 0 0 0.5 0.5 0.5 0.5 0 0 0 0.5-0.5v-4c0-0.88889-0.39419-1.6185-0.96875-2.0781s-1.3062-0.67188-2.0312-0.67188zm0 1c0.525 0 1.0433 0.16277 1.4062 0.45312s0.59375 0.68576 0.59375 1.2969v0.75h-4v-0.75c0-0.61111 0.23081-1.0065 0.59375-1.2969s0.88125-0.45312 1.4062-0.45312z" color="#2e3440"/>
 </g>
</svg>
