<svg viewBox="0 0 24 24" xmlns="http://www.w3.org/2000/svg">
 <defs>
  <style id="current-color-scheme" type="text/css">
   .ColorScheme-Text { color:#2e3440; } .ColorScheme-Highlight { color:#88c0d0; } .ColorScheme-NeutralText { color:#d08770; } .ColorScheme-PositiveText { color:#a3be8c; } .ColorScheme-NegativeText { color:#bf616a; }
  </style>
 </defs>
 <path class="ColorScheme-Text" d="m4 3v15h1v-6h7v6h1v-6h7v6h1v-15h-17zm1 1h7v7h-7v-7zm8 0h7v7h-7v-7z" fill="currentColor" fill-opacity=".1"/>
 <path class="ColorScheme-Text" d="m5 4v7h7v-7h-7zm8 0v7h7v-7h-7zm-8 8v6h7v-6h-7zm8 0v6h7v-6h-7z" fill="currentColor" fill-opacity=".5"/>
 <path class="ColorScheme-Text" d="m4 17v1h17v-1h-17zm0 2v1h17v-1h-17z" fill="currentColor"/>
</svg>
