<svg version="1.1" viewBox="0 0 24 24" xmlns="http://www.w3.org/2000/svg">
 <defs>
  <style id="current-color-scheme" type="text/css">
   .ColorScheme-Text { color:#2e3440; } .ColorScheme-Highlight { color:#88c0d0; } .ColorScheme-NeutralText { color:#d08770; } .ColorScheme-PositiveText { color:#a3be8c; } .ColorScheme-NegativeText { color:#bf616a; }
  </style>
 </defs>
 <g transform="translate(1,1)" fill="currentColor">
  <path class="ColorScheme-Text" d="m11 3h3l4 4v4h-1v-3h-4v-4h-2v-1zm-6 8v7h6v1h-7v-8h1z"/>
  <path class="ColorScheme-Text" d="m13 12v1h-1v1h1v3h-1v1h1v1h1v-1h3v1h1v-1h1v-1h-1v-3h1v-1h-1v-1h-1v1h-3v-1h-1zm1 2h3v3h-3v-3z"/>
  <path class="ColorScheme-Text" d="m4 3v1h-1v1h1v3h-1v1h1v1h1v-1h3v1h1v-1h1v-1h-1v-3h1v-1h-1v-1h-1v1h-3v-1h-1zm1 2h3v3h-3v-3z"/>
 </g>
</svg>
