<svg viewBox="0 0 24 24" xmlns="http://www.w3.org/2000/svg">
 <defs>
  <style id="current-color-scheme" type="text/css">
   .ColorScheme-Text { color:#2e3440; } .ColorScheme-Highlight { color:#88c0d0; } .ColorScheme-NeutralText { color:#d08770; } .ColorScheme-PositiveText { color:#a3be8c; } .ColorScheme-NegativeText { color:#bf616a; }
  </style>
 </defs>
 <path class="ColorScheme-Text" d="m4 5v14h7v-1h-6v-12h10v4h4v2h1v-3l-4-4h-12zm12 7c-2.2091 0-4 1.7909-4 4s1.7909 4 4 4 4-1.7909 4-4-1.7909-4-4-4zm0 0.66602c0.11506 0 0.22192 0.010151 0.33398 0.021484h0.082032c0.035066 0.006667 0.070735 0.014198 0.10547 0.019531 0.095767 0.015334 0.17672 0.04112 0.26953 0.064453 0.17107 0.042 0.34048 0.098483 0.5 0.16602 0.087953 0.037333 0.1661 0.0806 0.25 0.125-4.7e-5 0.006667 5.33e-4 0.012198 0 0.019531 0.019333 0.008667 0.0299 0.046453 0.0625 0.064453 0.012 0.006667 0.010217 0.013532 0.021484 0.019532 0.019333 0.010666 0.045016 0.022349 0.041016 0.041015-0.005334 0.026667-0.043834 0.021016-0.0625 0.041016 0.002666 0.038667-0.031016 0.038453-0.041016 0.064453 6e-3 0.016667 0.038349 0.021682 0.041016 0.041016-0.003334 0.021333-0.049016 0.019682-0.041016 0.041015 0.036 0.028 0.069516 0.006667 0.10352 0 0.07466-0.009333 0.1415-0.006349 0.1875-0.041015-6e-3 -0.035334 0.0665-0.0305 0.0625-0.0625 0.019133 0.014 0.043566 0.027015 0.0625 0.041015-0.0072 0.006667-0.011532 0.016198-0.019532 0.019531-0.014 0.006668-0.030302 0.013485-0.042968 0.021485-0.018667 0.012-0.041167 0.027682-0.0625 0.041015-0.015334 0.010668-0.0465 0.0625-0.0625 0.0625-0.019334 0-0.0485-0.023531-0.0625-0.019531-0.02 0.006667-0.018416 0.033683-0.041016 0.041016-0.044 0.016-0.13116-0.024318-0.14648 0.041015 0.018666 0.038002 0.091666 0.020349 0.125 0.041016 0.020666 0.013333 0.057233 0.061318 0.0625 0.083984 0.005333 0.018668 8e-3 0.105 0 0.125-0.020667 0.053335-0.083205 0.041683-0.14453 0.041016h-0.042968c-0.10332-0.006667-0.20333-0.052516-0.25 0.021484 0.003333 0.056668 0.012666 0.095198 0 0.14453-0.009334 0.036-0.0645 0.074402-0.0625 0.10547 6.66e-4 0.016002 0.038968 0.039834 0.042968 0.0625 0.002667 0.012002-0.005333 0.029683 0 0.041016 0.017334 0.032667 0.051365-0.006667 0.082032 0 0.029333 0.006667 0.0625 0.049365 0.0625 0.082031 0 0.023334-0.004732 0.061318-0.019532 0.083985-0.029333 0.044-0.083 0.0385-0.125 0.0625-0.034666 0.02-0.041833 0.071068-0.0625 0.10547-0.022 0.037335-0.051635 0.049983-0.042968 0.10352-0.03 0.059333-0.063 0.096333-0.125 0.125-0.018 8e-3 -0.0459 0.007531-0.0625 0.019531-0.013334 0.009334-0.022349 0.04312-0.041016 0.064453-0.023333 0.026002-0.049833 0.0425-0.0625 0.0625-0.009333 0.015335-0.011551 0.041167-0.021484 0.0625-0.014667 0.028002-0.0439 0.0345-0.0625 0.0625-0.008667 0.013335-0.010265 0.045167-0.019532 0.0625-0.021333 0.038668-0.046968 0.069516-0.042968 0.10352 0.003333 0.032 0.040968 0.033167 0.042968 0.0625 2e-3 0.016-0.022151 0.023682-0.021484 0.041016 6.67e-4 0.025333 0.019551 0.044453 0.021484 0.064453 0.004667 0.049333-0.033635 0.069782-0.042968 0.10352-0.004667 0.016002 4e-3 0.028349 0 0.041016-8e-3 0.024667-0.040349 0.054651-0.041016 0.083984-6.67e-4 0.020668 0.039016 0.033167 0.041016 0.0625 0.001333 0.019335-0.023532 0.043834-0.019532 0.0625 0.007334 0.036002 0.075523 0.075516 0.10352 0.10352 0.038 0.038 0.086856 0.065269 0.10352 0.10547 0.014 0.034 0.016968 0.0996 0.042968 0.125 0.019334 0.018667 0.057365 0.021682 0.082032 0.041015 0.023333 0.018002 0.0379 0.021683 0.0625 0.041016 0.040666 0.032 0.1033 0.10818 0.16797 0.10352 0.034-0.006667 0.065483-0.035016 0.10352-0.041016 0.039333-0.006667 0.085007-0.024818 0.125-0.021484 0.030667 0.006666 0.071516 0.023484 0.10352 0.021484 0.033333-0.006667 0.067502-0.007484 0.10547-0.021484 0.066-0.028667 0.17354-0.076167 0.26953-0.0625 0.073326 0.010666 0.073666 0.092333 0.125 0.125 0.058666 0.006666 0.099824-0.011334 0.14648 0 0.035333 0.008666 0.080651 0.055984 0.083984 0.083984 0.003334 0.028667-0.038968 0.065984-0.042968 0.083984-0.009334 0.038668 0.006666 0.078849 0 0.10352-0.005334 0.019333-0.020198 0.043167-0.019532 0.0625 0 0.017333 0.023016 0.061318 0.041016 0.083984 0.022 0.028002 0.057318 0.052032 0.083984 0.082032 0.048667 0.056 0.069516 0.1135 0.10352 0.1875 0.008667 0.018666-8e-3 0.040453 0 0.064453-0.014667 0.11193-0.051667 0.18857-0.125 0.3125-0.034667 0.04-0.084651 0.075067-0.083984 0.125-0.002667 0.12 0.067866 0.1965 0.0625 0.3125-0.012 0.15593 0.012 0.16673 0 0.25 0.052666 0.026667 0.015333 0.11062 0 0.16602-0.022667 0.066002-0.049834 0.081-0.0625 0.125 0.0354 0.015335 0.08568 0.009335 0.125 0-0.019867 0.020668-0.042167 0.041834-0.0625 0.0625-0.15081 0.1508-0.32267 0.29615-0.5 0.41602-0.34403 0.2324-0.72537 0.40893-1.1445 0.5-0.22903 0.05-0.46506 0.0625-0.70898 0.0625-0.12689 0-0.25209-0.005531-0.375-0.019531-0.097907-0.011333-0.19588-0.021682-0.29102-0.041016-0.18878-0.038666-0.36728-0.11843-0.54297-0.1875-6e-3 -0.011333-0.020998-0.029634-0.019532-0.042969 0.034667-0.014666 0.099674 0.049335 0.125 0 0.012667-0.023333-0.016666-0.080182 0-0.10352 0.012-0.016 0.078856-0.014865 0.10352-0.019531 0.035333-0.006667 0.085469-0.012151 0.10547-0.021485 0.022-0.014 0.045015-0.062649 0.041015-0.10352-2e-3 -0.019334-0.025749-0.025636-0.041015-0.042969-0.012667-0.014667 0.008666-0.027682 0-0.041016-0.016-0.023333-0.0559-0.0285-0.0625-0.0625 0.048-0.009333 0.11817 0.040818 0.1875 0.021485 0.032666-0.009334 0.088182-0.072783 0.10352-0.10352 0.004667-0.009333-0.005333-0.030969 0-0.042969 6e-3 -0.012 0.019485-0.035015 0.021485-0.041015 0.004666-0.018-4e-3 -0.007532 0-0.019532 0.012-0.034 0.040547-0.059984 0.060547-0.083984 0.015333-0.018667 0.0485-0.043167 0.0625-0.0625 0.016-0.020667 0.010884-0.022349 0.021484-0.041016 0.01-0.060666-0.036151-0.1147-0.021484-0.16797 0.016-0.06 0.10998-0.097667 0.16797-0.125 0.02-0.009334 0.0459-0.013532 0.0625-0.019532 0.04-0.014 0.087667-0.028349 0.125-0.041015 0.062667-0.022667 0.072849-0.067734 0.10352-0.125 0.014667-0.026667 0.038349-0.064651 0.041016-0.083985 0.002666-0.017333-0.003334-0.021015 0-0.041015 0.003333-0.019334-0.005334-0.039834 0-0.0625 0.007333-0.028667 0.021484-0.093067 0.021484-0.125 0-0.026667-0.020884-0.0385-0.021484-0.0625-0.004667-0.086667 0.030566-0.077667 0.0625-0.125 0.016-0.023334 0.031702-0.067318 0.042968-0.083985 0.054-0.08 0.1512-0.10718 0.14453-0.22852-0.002667-0.04-0.033234-0.13382-0.0625-0.14648-0.016667-0.007333-0.0379-0.012817-0.0625-0.021484-0.07866-0.029333-0.14652-0.11833-0.22852-0.125h-0.041016c-0.032 0-0.069475-0.014865-0.10547-0.019531-0.022667-0.006667-0.068698 0.006666-0.082032 0-0.020666-0.01-0.026302-0.051167-0.042968-0.0625-0.013334-0.009334-0.0419-0.014151-0.0625-0.021485-0.032667-0.012-0.044032-0.039015-0.082032-0.041015-0.012 0-0.029635 0.006666-0.042968 0-0.020667-0.006667-0.041281-0.009485-0.060547-0.021485-0.024-0.014666-0.052567-0.020349-0.0625-0.041015 0.022-0.071934-0.0479-0.083-0.0625-0.125-0.006667-0.019334 0.006666-0.064698 0-0.082031-0.008667-0.024668-0.035234-0.043787-0.0625-0.064454-0.048-0.037333-0.077825-0.053833-0.14648-0.0625-0.030666-0.006666-0.066855 0.006667-0.10352 0-0.038667-0.006666-0.095674-0.029166-0.125-0.0625-0.028-0.032666-0.0379-0.066631-0.0625-0.082031-0.023334-0.014667-0.0465-0.028302-0.0625-0.042969-0.007334-0.006666-0.014818-0.005531-0.021485-0.019531-0.012-0.024667-0.036151-0.0325-0.021484-0.0625-0.026667-0.013333-0.012349 0.024198-0.041016 0.019531-0.026-0.036666-0.044882-0.073033-0.10352-0.0625-0.026667 0.006667-0.052651 0.061834-0.083985 0.0625-0.026 0-0.049984-0.057166-0.083984-0.0625-0.026-0.006666-0.064031 0.024818-0.082031 0.021485-0.028667-0.006667-0.036567-0.023683-0.0625-0.041016-0.019334-0.012667-0.051834-0.041683-0.0625-0.041015-0.033334 0-0.059502 0.065682-0.10547 0.041015-0.022667-0.028667 0.048218-0.035833 0.021484-0.0625-0.02-0.019333-0.025015 0.010198-0.041015 0.019531-0.018667 0.012-0.0419 0.014151-0.0625 0.021485-0.046 0.017333-0.089007 0.022349-0.125 0.041015-0.033334 0.017334-0.043234 0.0285-0.0625 0.0625-0.015334 0.028-0.039234 0.082651-0.0625 0.083985-0.028 0-0.037167-0.029683-0.0625-0.041016-0.07666-0.033333-0.12417 0.018198-0.1875 0.019531-0.058667 0-0.14915-0.091151-0.14648-0.14648 2e-3 -0.034 0.017551-0.083 0.021485-0.125 0.003333-0.033333 0.040415-0.073116 0.041015-0.10352 6.67e-4 -0.041333-0.076849-0.057833-0.10352-0.0625-0.062667-0.011333-0.13766 0.028-0.20898 0-0.013333-0.022666 0.013551-0.039833 0.021485-0.0625 0.004666-0.012-0.004667-0.027682 0-0.041015 8e-3 -0.021334 0.052566-0.039834 0.0625-0.0625 0.007333-0.017334-0.007334-0.0405 0-0.0625 0.008666-0.024 0.039015-0.045167 0.041015-0.0625 0.002667-0.022667-0.023082-0.049787-0.041015-0.064453-0.055334 0.006666-0.093 0.007484-0.125 0.021484-0.071994 0.032667-0.052334 0.12382-0.125 0.14648-0.024667 8e-3 -0.055985 0.014865-0.083985 0.019532-0.0122 0.006666-0.027349 0-0.041015 0 0.001333-0.006667-0.001334-0.012865 0-0.019532 0.003333-0.015333 0.016264-0.026349 0.019531-0.041015 0.047533-0.21667 0.12158-0.4264 0.20898-0.625h0.021485c0.025333 0.006666 0.0405 0.039682 0.0625 0.041015 0.061333 0.006667 0.074333-0.057317 0.125-0.083984 0.052 0.007333 0.077673-0.006667 0.125 0 0.032 0.006667 0.078189 0.038349 0.10352 0.041016 0.021334 0 0.021016-0.022198 0.041016-0.019532 0.02 0.006667 0.059233 0.0385 0.0625 0.0625 0.003333 0.03-0.028265 0.070449-0.019531 0.10352 0.031333 0.032 0.099864 0.043833 0.14453 0.0625 0.029333-0.024667 0.004667-0.068849 0-0.10352-6.67e-4 -0.015333 2e-3 -0.0485 0-0.0625-0.003333-0.024-0.019531-0.041833-0.019531-0.0625 0-0.095333 0.080538-0.1307 0.14453-0.16797 0.027333-0.016 0.059984-0.0505 0.083984-0.0625 0.034-0.016667 0.055985-0.005532 0.083985-0.019532 0.050666-0.028666 0.085666-0.073002 0.125-0.10547 0.018-0.043334-2e-3 -0.10186 0-0.14453 0.018-0.011333 0.043233 0 0.0625 0 0.030666-0.006666 0.045166-0.045166 0.0625-0.0625 0.01-0.01 0.029015-0.011484 0.041015-0.021484 0.030667-0.024 0.035834-0.051833 0.0625-0.0625 0.009334-0.006667 0.026349-0.016818 0.041016-0.021484 0.02-0.006667 0.051984-0.007532 0.083984-0.019532 0.020667-0.007333 0.075985-0.012817 0.083985-0.021484 0.01-0.01-0.002667-0.047167 0-0.0625 0.016-0.075267 0.12017-0.078116 0.1875-0.10352 0.046666-0.017333 0.092531-0.0717 0.14453-0.0625-0.01 0.036-0.049682 0.038698-0.041016 0.082032 0.011334 0.060666 0.082183-0.010865 0.10352-0.019532 0.040667-0.017333 0.11464-0.0425 0.16797-0.0625 0.046666-0.016666 0.12602-0.029984 0.082031-0.083984-0.036667-0.006667-0.050031 0.028349-0.082031 0.041016-0.022 0.006666-0.024302-0.017532-0.042969-0.019532-0.018 0-0.023016 0.022865-0.041016 0.019532-0.018-0.006667-0.038349-0.0405-0.041015-0.0625-0.007334-0.056 0.0399-0.061983 0.0625-0.10352-0.015334-0.050667-0.08234-0.021682-0.125-0.041016 0.004666-0.03 0.027233-0.057786 0.0625-0.064453 0.028666-0.006666 0.10767 0.007485 0.125 0.021485 0.01 0.008666-0.015267 0.027682 0 0.041015 0.017333 0.015334 0.0399 0.006667 0.0625 0 8e-3 -0.038-0.049636-0.016349-0.042969-0.041015 0.045333-0.029334 0.13217-0.014151 0.1875-0.021485 0.032-0.006666 0.076802-0.025682 0.10547-0.041015 0.026666-0.015334 0.0345-0.044865 0.0625-0.019532 8e-3 0.027334-0.006018 0.047834-0.021485 0.0625-0.051333 0.045334-0.10649 0.091932-0.14648 0.14453 0.024667 0.024 0.064102 0.016817 0.10547 0.021484 0.016 0.006667 0.0459 0 0.0625 0 0.02 0.006667 0.044547-0.006667 0.060547 0 0.028 0.006667 0.034566 0.0625 0.0625 0.0625 0.045333 0 0.026-0.053984 0-0.083984 8e-3 -0.031334 0.032884-0.060032 0.021484-0.082032-0.020667-0.041333-0.099516 0.012318-0.10352-0.041015-0.002666-0.033334 0.029016-0.037167 0.041016-0.0625-0.005333-0.064 0.047682-0.067 0.041016-0.125-0.003334-0.024-0.024349-0.020302-0.041016-0.042969-0.008667-0.012-0.011551-0.053167-0.021484-0.0625-0.034667-0.029333-0.099516-0.0065-0.10352-0.0625-2e-3 -0.033333 0.004667-0.067782 0-0.10352-0.004667-0.034-0.033233-0.13982-0.0625-0.14648-0.037333-8e-3 -0.058816 0.063318-0.10352 0.083984-0.024 0.011334-0.080808 0.023532-0.10547 0.019532-0.016-0.006667-0.039016-0.009683-0.041016-0.041016-0.002667-0.028 0.030616-0.0405 0.041016-0.0625 0.002666-0.006667-0.001334-0.012198 0-0.019531 0.0484-0.013334 0.097297-0.031636 0.14648-0.042969 0.027933-0.006667 0.055784-0.014198 0.083984-0.019531 0.019934-0.006667 0.0425 0.006666 0.0625 0 0.089034-0.016667 0.17816-0.032349 0.26953-0.041016 0.11083-0.011333 0.21992-0.021484 0.33398-0.021484v-0.001953zm-1.3535 0.3125c-0.0212 0.12167-0.13582 0.17144-0.27148 0.16797-0.030667 0.029334-0.004684 0.084334-0.021484 0.125-0.014 0.034-0.069523 0.065167-0.10352 0.0625-0.024667 0-0.0625-0.039166-0.0625-0.0625 0-0.028666 0.046218-0.029833 0.021484-0.0625 0.001334-0.006666 0.012598-0.014817 0.019532-0.021484 0.013466-0.008667 0.029368-0.013484 0.042968-0.021484 0.1208-0.074334 0.24464-0.12883 0.375-0.1875zm2.791 0.125c-0.012267 0.006666-0.010684 0.014817-0.021484 0.021484-0.025334 0.015333-0.043167 0.034349-0.0625 0.041016-0.027334 0.01-0.058567 0.016349-0.0625 0.041015-0.003334 0.020667 0.022217 0.022349 0.021484 0.041016-0.01 0.024667-0.016151 0.034453-0.021484 0.064453 0.034 0.055333 0.10449-0.012818 0.14648-0.021484 0.018667-0.006667 0.031016-0.007485 0.041016-0.021485 0.011333-0.018 0.012884-0.037166 0.021484-0.0625 0.009333-0.028 0.044349-0.037833 0.041016-0.0625-0.002667-0.024666-0.062216-0.044349-0.10352-0.041015zm-3.6465 0.41797c0.0316 0.025334 0.076724 0.079783 0.021484 0.10352-0.006667 0.006667-0.087516 0.024151-0.10352 0.021484-0.006666 0-0.015884-0.016817-0.021484-0.021484 0.034467-0.033333 0.067656-0.071516 0.10352-0.10352zm0.125 0.125c0.016 0 0.024302 0.040349 0.042968 0.041016 0.018 0 0.030349-0.024151 0.041016-0.021484 0.028 0.007333 0.048218 0.063317 0.021484 0.083984-0.022 0.006667-0.026968-0.024151-0.042968-0.021484-0.045334 8e-3 -0.069516 0.10814-0.10352 0.10547-0.032-0.006666-0.054218-0.082135-0.021484-0.10547 6.66e-4 -0.02-0.001334-0.020349 0-0.041016 0.01-0.012 0.035833-0.043016 0.0625-0.041016zm-0.16602 0.019532c0.009333 0 0.018218-0.006667 0.021484 0-0.004666 0.035333-0.015635 0.045833-0.042968 0.0625-0.047334 0.028666-0.088183 0.064-0.10352 0.125-0.004667 0.018-0.061318 0.066766-0.083984 0.0625-0.052667-0.011334 0.030968-0.10973 0.042968-0.125 0.013334-0.016667 0.025683-0.022349 0.041016-0.041016s0.026349-0.051833 0.041016-0.0625c0.016-0.011333 0.055984-0.020865 0.083984-0.019531v-0.001953zm4.5215 0.10547c0.052667-0.006666 0.079516 0.050032 0.10352 0.082032 0.02 0.026 0.070849 0.065984 0.10352 0.083984 0.018666 0.01 0.041833 0.032349 0.0625 0.041016 0.043333 0.019333 0.123 0.082333 0.125 0.125 6.66e-4 0.021333-0.022932 0.0425-0.019532 0.0625 0.032667 0.006666 0.061834-0.049365 0.0625-0.082032 0.061267 0.086667 0.11308 0.17713 0.16602 0.26953 0.025 0.043333 0.060918 0.08 0.083984 0.125-0.0294 0.008666-0.038235 0.013015-0.042968 0.041015-0.006667 0.037334 0.014984 0.098869-0.041016 0.10547-0.035333 0.006667-0.07634-0.029682-0.125-0.041016-0.02-0.006666-0.0465 0.006667-0.0625 0-0.036667-0.012-0.031233-0.061984-0.0625-0.083984-0.018-0.012667-0.074849-0.038349-0.10352-0.041016-0.018 0-0.024302 0.006667-0.042968 0-0.022667-0.006666-0.063365 0.009334-0.082032 0-0.018-0.011333-0.057833-0.047166-0.0625-0.0625-0.007333-0.024666 0.061167-0.041166 0.0625-0.0625 0.001334-0.016-0.018217-0.039786-0.021484-0.064453-0.002667-0.014666 0.003333-0.031015 0-0.041015-0.004667-0.017334-0.035233-0.018865-0.0625-0.019532h-0.25c-0.058 0.006667-0.10115-0.006666-0.14648 0-0.032667 0-0.094334 0.027683-0.125 0.041016-0.015334 0.007333-0.021016 0.009531-0.041016 0.019531-0.009333 0.006667-0.029016 0.016151-0.041016 0.021485-0.018666 0.008666-0.044566 0.035682-0.0625 0.041015-0.026 0.006667-0.058168-0.006666-0.10547 0-0.034 0-0.081365-0.021833-0.082032-0.0625-6.66e-4 -0.062 0.10736-0.029682 0.16602-0.041015 0.022-0.006667 0.035833-0.025016 0.0625-0.041016 0.012667-0.007333 0.009551-0.013484 0.021484-0.021484 0.02-0.014 0.059234-0.0465 0.0625-0.0625 0.002667-0.014667-2e-3 -0.029683 0-0.041016 0.002667-0.014 0.023016-0.022349 0.041016-0.041016 0.028-0.028 0.049318-0.065984 0.083984-0.083984 0.023334-0.012 0.051834-0.022349 0.0625-0.041016 0.002667-0.021333-6.66e-4 -0.021015 0-0.041015 0.014667-0.013334 0.029016-0.018818 0.041016-0.021485 0.036-8e-3 0.061549 0 0.10352 0 0.018 0 0.043233 0.008667 0.0625 0 0.016-0.010666 0.026968-0.033682 0.042968-0.041015 0.017334-0.009334 0.041167-0.020151 0.0625-0.021485zm0.375 0.39453h-0.083984c-0.029333 0-0.066651-0.015334-0.083984 0 0.024666 0.04 0.069673 0.0525 0.125 0.0625 0.02-0.014667 0.033635-0.0365 0.042968-0.0625zm-4.5625-0.375h0.0625c0.016667 0 0.034349-0.006667 0.041016 0-0.010667 0.044-0.11182 0.037484-0.14648 0.021484 2e-3 -0.016667 0.021635-0.018818 0.042968-0.021484zm-0.14648 0.083984c-0.029133 0.021333-0.057282 0.047833-0.10352 0.0625-0.025333 8e-3 -0.057833 0.006516-0.0625-0.021484-0.005333-0.034667 0.039834-0.016198 0.0625-0.019532 0.029334-0.006666 0.069516-0.020151 0.10352-0.021484zm4.334 0c-0.022 0.007333-0.032666 0.055833 0 0.0625 0.015334-0.009333 0.023598-0.033833 0.019532-0.0625-0.008667-0.009333-0.012932-0.006667-0.019532 0zm-0.042968 0.10352c6.66e-4 0.037333 0.007333 0.073068 0 0.10547 0.021333 0.041334 0.073324 0.006516 0.083984-0.021484 0.012667-0.069333-0.009016-0.092651-0.041016-0.083984-0.010666 0.006666-0.031702-0.008667-0.042968 0zm-5.5195 1.5625c0.0376 0.034 0.058549 0.083202 0.10352 0.10547 0.016667 0.008667 0.041233 0.014198 0.0625 0.019532 0.017333 0.006666 0.024349-0.006667 0.041016 0 0.035333 0.012 0.077475 0.028349 0.10547 0.041015 0.042667 0.018667 0.088334 0.084136 0.125 0.10547 2e-3 0.021333-0.006666 0.0465 0 0.0625 0.017334 0.023333 0.0345 0.0465 0.0625 0.0625 0.034 0.018667 0.050032 0.047833 0.082032 0.0625 0.011333 0.006667 0.025635-0.006667 0.042968 0 0.044 0.013333 0.065483 0.073567 0.10352 0.0625 0.024667-0.007333 0.017551-0.0385 0.021484-0.0625 0.016667-0.018 0.0365-0.041016 0.0625-0.041016 0.041334 0 0.047167 0.063316 0.0625 0.10352 0.008667 0.022667 0.035016 0.0385 0.041016 0.0625 0.01 0.041333 0.008667 0.16283 0 0.1875-0.010667 0.030667-0.058651 0.0285-0.083984 0.0625-0.012 0.016-0.010265 0.051167-0.019532 0.0625-0.016 0.019333-0.030968 0.024969-0.042968 0.042969-0.006667 0.01-0.013598 0.027682-0.019532 0.041015-0.02 0.042667-0.059635 0.073667-0.042968 0.125 0.006666 0.020667 0.042968 0.037834 0.042968 0.0625 0 0.029334-0.057833 0.051985-0.0625 0.083985-0.003333 0.023333 0.012265 0.050698 0.019532 0.082031 0.005333 0.023333 0.0485 0.047167 0.0625 0.0625 0.023333 0.026 0.041233 0.072469 0.0625 0.10547 0.042 0.064666 0.064168 0.1437 0.10547 0.20703 0.022 0.032667 0.067365 0.049318 0.082032 0.083984 0.007333 0.017334-0.006667 0.0465 0 0.0625 0.024 0.054 0.13351 0.11988 0.1875 0.14648 0.025333 0.012666 0.060651 0.006198 0.083984 0.019531 0.035333 0.02 0.10701 0.074402 0.125 0.10547 0.016 0.028 0.013551 0.099931 0.021484 0.14453 0.01 0.058667-0.002666 0.10457 0 0.16797 2e-3 0.034666 0.019532 0.047364 0.019532 0.082031 0 0.012 6.66e-4 0.049833 0 0.0625-6.67e-4 0.041333 0.003333 0.083 0 0.125-2e-3 0.022667-0.001334 0.043167 0 0.0625 2e-3 0.020667 0.020217 0.024969 0.021484 0.042969 0.001333 0.019333-0.023551 0.047166-0.021484 0.0625 0.004666 0.042 0.034968 0.064649 0.042968 0.10352 0.006667 0.030667 0.023532 0.10982 0.019532 0.14648-0.002667 0.019333-0.016865 0.0405-0.019532 0.0625-2e-3 0.017333 0.002667 0.025682 0 0.041015-2e-3 0.015334 4e-3 0.028349 0 0.041016-0.021266-0.013333-0.041633-0.027016-0.0625-0.041016-0.17733-0.11987-0.34919-0.26522-0.5-0.41602-0.0204-0.020667-0.042633-0.04312-0.0625-0.064453-0.12039-0.12673-0.23456-0.27155-0.33398-0.41602-9e-3 -0.013333-0.012684-0.028349-0.021484-0.041016-0.11537-0.17287-0.20914-0.34742-0.29102-0.54102-6e-3 -0.014-0.015818-0.028969-0.021484-0.042969-0.070254-0.17267-0.1253-0.35535-0.16602-0.54102-0.007667-0.035333-0.014951-0.068115-0.021484-0.10352-0.016534-0.089067-0.031749-0.18008-0.041016-0.27148-0.0114-0.113-0.021484-0.21892-0.021484-0.33398 0-0.1584 0.021568-0.30645 0.042968-0.45898z" fill="currentColor"/>
</svg>
