<svg viewBox="0 0 24 24" xmlns="http://www.w3.org/2000/svg">
 <defs>
  <style id="current-color-scheme" type="text/css">
   .ColorScheme-Text { color:#2e3440; } .ColorScheme-Highlight { color:#88c0d0; } .ColorScheme-NeutralText { color:#d08770; } .ColorScheme-PositiveText { color:#a3be8c; } .ColorScheme-NegativeText { color:#bf616a; }
  </style>
 </defs>
 <path class="ColorScheme-Text" d="m4 4v16h16v-16h-16zm1 1h8v14h-8v-14zm11.5 0 0.375 0.375 2.125 1.9375-0.71875 0.6875-1.7812-1.625-1.7812 1.625-0.71875-0.6875 2.125-1.9375 0.375-0.375zm-10.5 2v1h5v-1h-5zm0 3v1h5v-1h-5zm0 3v1h5v-1h-5zm0 3v1h5v-1h-5zm8.7188 0 1.7812 1.625 1.7812-1.625 0.71875 0.6875-2.125 1.9375-0.375 0.375-0.375-0.375-2.125-1.9375 0.71875-0.6875z" fill="currentColor"/>
</svg>
