<svg viewBox="0 0 24 24" xmlns="http://www.w3.org/2000/svg">
 <defs>
  <style type="text/css">.ColorScheme-Text {
        color:#2e3440;
      }</style>
 </defs>
 <path class="ColorScheme-Text" d="m4 4v1 15h1 14 1v-15-1h-16zm1 1h4v1 1h-1-3v-2zm5 0h4v1 1h-4v-1-1zm5 0h4v2h-3-1v-1-1zm-10 3h3 1v2h-4v-2zm5 0h4 1 2 2v8.0996h-2-2-1-4v-2.0996-1-5zm-5 3h4v2h-4v-2zm0 3h4v2.0996h-1-3v-2.0996zm0 3.0996h3 1v1 0.90039h-4v-1.9004zm5 0h4v1 0.90039h-4v-0.90039-1zm5 0h1 3v1.9004h-4v-0.90039-1z" fill="currentColor"/>
</svg>
