<svg viewBox="0 0 24 24" xmlns="http://www.w3.org/2000/svg">
 <defs>
  <style type="text/css">.ColorScheme-Text {
        color:#2e3440;
      }</style>
 </defs>
 <path class="ColorScheme-Text" d="m6 4-1 1v1 0.30469l5 7.0625v3.6328 0.039062l3 2.2266v-1.2461l-2-1.4844v-2.5352-0.95117-0.048828h-0.035156l-4.9648-7.0117v-0.98828h12v0.98828l-4.9648 7.0117h1.2246l4.7402-6.6953v-1.3047l-1-1h-12zm1 2 2 3v-2l2-1h-4z" fill="currentColor"/>
 <path d="m14.99 14-0.99023 0.99023 2.0098 2.0098-2.0098 2.0098 0.99023 0.99023 2.0098-2.0098 2.0098 2.0098 0.99023-0.99023-2.0098-2.0098 2.0098-2.0098-0.99023-0.99023-2.0098 2.0098-2.0098-2.0098z" fill="#bf616a"/>
</svg>
