<svg viewBox="0 0 24 24" xmlns="http://www.w3.org/2000/svg">
 <defs>
  <style type="text/css">.ColorScheme-Text {
        color:#2e3440;
      }</style>
 </defs>
 <path class="ColorScheme-Text" d="m12 4a8 8 0 0 0-7.7402 6h1.0352a7 7 0 0 1 6.7051-5 7 7 0 0 1 6.3086 4h-3.6094v1h4.002 0.99805v-0.11328-0.88672-4h-1v2.6562a8 8 0 0 0-6.6992-3.6562zm-7.6992 10v0.11328 0.88672 4h1v-2.6562a8 8 0 0 0 6.6992 3.6562 8 8 0 0 0 7.7402-6h-1.0352a7 7 0 0 1-6.7051 5 7 7 0 0 1-6.3086-4h3.6094v-1h-4-0.0019531-0.99805z" fill="currentColor"/>
</svg>
