<svg viewBox="0 0 24 24" xmlns="http://www.w3.org/2000/svg">
 <defs>
  <style id="current-color-scheme" type="text/css">
   .ColorScheme-Text { color:#2e3440; } .ColorScheme-Highlight { color:#88c0d0; } .ColorScheme-NeutralText { color:#d08770; } .ColorScheme-PositiveText { color:#a3be8c; } .ColorScheme-NegativeText { color:#bf616a; }
  </style>
 </defs>
 <g transform="translate(1,1)">
  <path class="ColorScheme-Text" d="m11 3.1211-3.0508 3.0508 0.70703 0.70703 2.3438-2.3438 2.3438 2.3438 0.70703-0.70703-3.0508-3.0508zm-4.8281 4.8281-3.0508 3.0508 3.0508 3.0508 0.70703-0.70703-2.3438-2.3438 2.3438-2.3438-0.70703-0.70703zm9.6562 0-0.70703 0.70703 2.3438 2.3438-2.3438 2.3438 0.70703 0.70703 3.0508-3.0508-3.0508-3.0508zm-4.8281 0.22266-2.8281 2.8281 2.8281 2.8281 2.8281-2.8281-2.8281-2.8281zm0 1.4141 1.4141 1.4141-1.4141 1.4141-1.4141-1.4141 1.4141-1.4141zm-2.3438 5.5352-0.70703 0.70703 3.0508 3.0508 3.0508-3.0508-0.70703-0.70703-2.3438 2.3438-2.3438-2.3438z" fill="currentColor"/>
 </g>
</svg>
