<svg viewBox="0 0 24 24" xmlns="http://www.w3.org/2000/svg">
 <defs>
  <style type="text/css">.ColorScheme-NegativeText {
        color:#bf616a;
      }</style>
 </defs>
 <path class="ColorScheme-NegativeText" d="m12 4a8 8 0 0 0-8 8 8 8 0 0 0 8 8 8 8 0 0 0 8-8 8 8 0 0 0-8-8zm0 1a7 7 0 0 1 7 7 7 7 0 0 1-7 7 7 7 0 0 1-7-7 7 7 0 0 1 7-7zm-3.1621 3.1309a5 5 0 0 0-0.70703 0.70703l3.1621 3.1621-3.1621 3.1621a5 5 0 0 0 0.70703 0.70703l3.1621-3.1621 3.1621 3.1621a5 5 0 0 0 0.70703-0.70703l-3.1621-3.1621 3.1621-3.1621a5 5 0 0 0-0.70703-0.70703l-3.1621 3.1621-3.1621-3.1621z" fill="currentColor"/>
</svg>
