<svg viewBox="0 0 24 24" xmlns="http://www.w3.org/2000/svg">
 <defs>
  <style id="current-color-scheme" type="text/css">
   .ColorScheme-Text { color:#2e3440; } .ColorScheme-Highlight { color:#88c0d0; } .ColorScheme-NeutralText { color:#d08770; } .ColorScheme-PositiveText { color:#a3be8c; } .ColorScheme-NegativeText { color:#bf616a; }
  </style>
 </defs>
 <path class="ColorScheme-Text" d="m12 4c-4.4182 0-8 2.6864-8 6 0 3.2629 3.4761 5.9117 7.8008 5.9922v4.0078c8.2164-4.7437 8.1992-7.7342 8.1992-10 0-3.3136-3.5818-6-8-6zm-3.7402 3.0645h3.082v3.084h-0.009766c0.0065 0.073 0.009766 0.1464 0.009766 0.2207 0 1.2634-0.96672 2.2989-2.2012 2.4102v-0.89258c0.746-0.1077 1.3203-0.74178 1.3203-1.5176 0-0.075-0.009102-0.1485-0.019532-0.2207h-2.1816v-3.084zm4.3984 0h3.082v3.084h-0.009765c0.0065 0.073 0.009765 0.1464 0.009765 0.2207 0 1.2634-0.96671 2.2989-2.2012 2.4102v-0.89258c0.746-0.1077 1.3203-0.74178 1.3203-1.5176 0-0.075-0.007098-0.1485-0.017578-0.2207h-2.1836v-3.084z" fill="currentColor"/>
</svg>
