<svg viewBox="0 0 24 24" xmlns="http://www.w3.org/2000/svg">
 <defs>
  <style id="current-color-scheme" type="text/css">
   .ColorScheme-Text { color:#2e3440; } .ColorScheme-Highlight { color:#88c0d0; } .ColorScheme-NeutralText { color:#d08770; } .ColorScheme-PositiveText { color:#a3be8c; } .ColorScheme-NegativeText { color:#bf616a; }
  </style>
 </defs>
 <path class="ColorScheme-Text" d="m15.078 5.5c-1.8128 0-3.2832 1.4687-3.2832 3.2812 0 0.25718 0.028084 0.50788 0.083984 0.74805-2.728-0.13683-5.1467-1.4422-6.7656-3.4277-0.28261 0.48466-0.44336 1.047-0.44336 1.6484 0 1.1387 0.57816 2.1439 1.459 2.7324-0.5381-0.0167-1.0438-0.16439-1.4863-0.41016-3e-4 0.014 0 0.027015 0 0.041015 0 1.5901 1.1312 2.9152 2.6328 3.2168-0.27538 0.0751-0.56583 0.11524-0.86523 0.11523-0.21149 0-0.41674-0.020593-0.61719-0.058593 0.41774 1.3038 1.63 2.2529 3.0664 2.2793-1.1234 0.88034-2.5382 1.4043-4.0762 1.4043-0.26497-6e-6 -0.52645-0.014621-0.7832-0.044921 1.4526 0.93119 3.1775 1.4746 5.0312 1.4746 6.0377 0 9.3398-5.0008 9.3398-9.3379 0-0.14225-0.004766-0.28307-0.009766-0.42383 0.64144-0.46274 1.1986-1.041 1.6387-1.6992-0.58859 0.261-1.2209 0.43626-1.8848 0.51562 0.67761-0.40617 1.1963-1.0481 1.4414-1.8145-0.63428 0.37614-1.3363 0.64976-2.084 0.79688-0.59869-0.63781-1.4504-1.0371-2.3945-1.0371z" fill="currentColor"/>
</svg>
