<svg viewBox="0 0 24 24" xmlns="http://www.w3.org/2000/svg">
 <defs>
  <style id="current-color-scheme" type="text/css">
   .ColorScheme-Text { color:#2e3440; } .ColorScheme-Highlight { color:#88c0d0; } .ColorScheme-NeutralText { color:#d08770; } .ColorScheme-PositiveText { color:#a3be8c; } .ColorScheme-NegativeText { color:#bf616a; }
  </style>
 </defs>
 <path class="ColorScheme-Text" d="m4 7.0332 0.013672 0.7207 2.1074 0.27539c0.57782 0.5024 3.7913 4.2209 4.2813 5.1758l0.048828 2.6641c-0.31404 0.41389-2.2344 0.32812-2.2344 0.32812l-0.16406 0.76953s7.1969-0.14419 7.2344-0.060547c-0.018-0.0959 0.013672-0.7207 0.013672-0.7207l-2.3359-0.0625s-0.15217-1.8985-0.039063-3.0039c1.5325-1.6962 4.2676-3.6113 4.2676-3.6113l1.8574-0.31641 0.42774-0.74414-6.3242-0.039062 0.16406 0.77148s1.7295 0.13821 1.918 0.28906c-0.0251 0.37692-2.9922 2.7539-2.9922 2.7539l-3.2441-4.3691 2.2734-0.17578 0.099609-0.54297-7.373-0.10156zm14.33 4.4766 0.015625 4.0664 0.69336 0.091797 0.96094-3.9316-1.6699-0.22656zm-0.13281 4.5156-0.11328 0.80273 0.84766 0.13867 0.12695-0.8457-0.86133-0.095703z" fill="currentColor"/>
</svg>
