<svg version="1.1" viewBox="0 0 24 24" xmlns="http://www.w3.org/2000/svg">
 <defs>
  <style id="current-color-scheme" type="text/css">
   .ColorScheme-Text { color:#2e3440; } .ColorScheme-Highlight { color:#88c0d0; } .ColorScheme-NeutralText { color:#d08770; } .ColorScheme-PositiveText { color:#a3be8c; } .ColorScheme-NegativeText { color:#bf616a; }
  </style>
 </defs>
 <g transform="translate(1,1)" fill="currentColor">
  <path class="ColorScheme-Text" d="m17.969 6.5312c0.0128 0.0721 0.03125 0.14284 0.03125 0.21875v7.5c0 0.69252-0.55748 1.25-1.25 1.25h-12.5c-0.0759 0-0.14664-0.01845-0.21875-0.03125 0.10431 0.58574 0.60214 1.0312 1.2188 1.0312h12.5c0.69252 0 1.25-0.55748 1.25-1.25v-7.5c0-0.61661-0.44551-1.1144-1.0312-1.2188z" fill-opacity=".5"/>
  <path class="ColorScheme-Text" d="m4.25 5.5c-0.69252 0-1.25 0.55748-1.25 1.25v7.5c0 0.69252 0.55748 1.25 1.25 1.25h12.5c0.69252 0 1.25-0.55748 1.25-1.25v-7.5c0-0.69252-0.55748-1.25-1.25-1.25h-12.5zm9.75 2h1v4h-6v2l-3-2.5 3-2.5v2h5v-3z"/>
 </g>
</svg>
