<svg viewBox="0 0 24 24" xmlns="http://www.w3.org/2000/svg">
 <defs>
  <style type="text/css">.ColorScheme-Text {
        color:#2e3440;
      }</style>
 </defs>
 <g transform="translate(1,1)">
  <path class="ColorScheme-Text" d="m3 2v9h16v-9h-16zm1 1h1v1h-1v-1zm2 0h10v7h-10v-7zm11 0h1v1h-1v-1zm-13 3h1v1h-1v-1zm13 0h1v1h-1v-1zm-13 3h1v1h-1v-1zm13 0h1v1h-1v-1zm-12 3v2h-1v1h-1v1h1v1h1v2h1v-1h1v-1h1v-1h1v1h1v2h1v-1h1v-2h1v1h1v1h1v1h1v-1h1v-1h1v-1h1v-1h-1v-1h-1v-1h-1v-1h-1v1h-1v1h-1v1h-1v-2h-1v-1h-1v2h-1v1h-1v-1h-1v-1h-1v-1h-1z" fill="currentColor"/>
 </g>
</svg>
