<svg viewBox="0 0 24 24" xmlns="http://www.w3.org/2000/svg">
 <defs>
  <style id="current-color-scheme" type="text/css">
   .ColorScheme-Text { color:#2e3440; } .ColorScheme-Highlight { color:#88c0d0; } .ColorScheme-NeutralText { color:#d08770; } .ColorScheme-PositiveText { color:#a3be8c; } .ColorScheme-NegativeText { color:#bf616a; }
  </style>
 </defs>
 <g transform="translate(1,1)">
  <path class="ColorScheme-Text" d="m11 3-3 6h-5l4 4-1 6 5-3 5 3-1-6 4-4h-5l-3-6zm2 0v1h6v-1h-6zm1 2v1h5v-1h-5zm1 2v1h4v-1h-4zm2 5v1h2v-1h-2zm-1 2v1h3v-1h-3zm1 2v1h2v-1h-2zm0 2v1h2v-1h-2z" fill="currentColor"/>
 </g>
</svg>
