<svg viewBox="0 0 24 24" xmlns="http://www.w3.org/2000/svg">
 <defs>
  <style id="current-color-scheme" type="text/css">
   .ColorScheme-Text { color:#2e3440; } .ColorScheme-Highlight { color:#88c0d0; } .ColorScheme-NeutralText { color:#d08770; } .ColorScheme-PositiveText { color:#a3be8c; } .ColorScheme-NegativeText { color:#bf616a; }
  </style>
 </defs>
 <g transform="translate(1,1)">
  <path class="ColorScheme-Text" d="m11 3c-4.432 0-8 3.568-8 8s3.568 8 8 8 8-3.568 8-8-3.568-8-8-8zm0 1c3.878 0 7 3.122 7 7s-3.122 7-7 7-7-3.122-7-7 3.122-7 7-7zm0 3c-2.216 0-4 1.784-4 4s1.784 4 4 4 4-1.784 4-4c0-0.40658-0.077694-0.79101-0.18945-1.1602 0.11867-0.25606 0.18945-0.53808 0.18945-0.83984 0-1.108-0.892-2-2-2-0.30176 0-0.58378 0.070785-0.83984 0.18945-0.36914-0.11176-0.75358-0.18945-1.1602-0.18945zm0 1c0.089707 0 0.17241 0.023128 0.25977 0.03125-0.1604 0.28809-0.25977 0.61434-0.25977 0.96875 0 1.108 0.892 2 2 2 0.35441 0 0.68066-0.099363 0.96875-0.25977 0.008121 0.087354 0.03125 0.17006 0.03125 0.25977 0 1.662-1.338 3-3 3s-3-1.338-3-3 1.338-3 3-3zm2 0c0.554 0 1 0.446 1 1 0 0.13978-0.028333 0.27243-0.080078 0.39258s-0.1269 0.22779-0.21875 0.31836c-0.18035 0.17782-0.42672 0.28906-0.70117 0.28906-0.554 0-1-0.446-1-1 0-0.27445 0.11124-0.52083 0.28906-0.70117 0.090565-0.09185 0.19821-0.167 0.31836-0.21875s0.2528-0.080078 0.39258-0.080078z" fill="currentColor"/>
 </g>
</svg>
