<svg viewBox="0 0 24 24" xmlns="http://www.w3.org/2000/svg">
 <defs>
  <style id="current-color-scheme" type="text/css">
   .ColorScheme-Text { color:#2e3440; } .ColorScheme-Highlight { color:#88c0d0; } .ColorScheme-NeutralText { color:#d08770; } .ColorScheme-PositiveText { color:#a3be8c; } .ColorScheme-NegativeText { color:#bf616a; }
  </style>
 </defs>
 <g transform="translate(1,1)">
  <path class="ColorScheme-Text" d="m5 3 2.8125 15h5.4375l3.75-15h-12zm1.5 1a0.5 0.5 0 0 1 0.5 0.5 0.5 0.5 0 0 1-0.5 0.5 0.5 0.5 0 0 1-0.5-0.5 0.5 0.5 0 0 1 0.5-0.5zm7 0a0.5 0.5 0 0 1 0.5 0.5 0.5 0.5 0 0 1-0.5 0.5 0.5 0.5 0 0 1-0.5-0.5 0.5 0.5 0 0 1 0.5-0.5zm-2.5957 2.002a3 3 0 0 1 3.0703 2.6035 3 3 0 0 1-2.5801 3.3691 3 3 0 0 1-3.3691-2.5801 3 3 0 0 1 2.5801-3.3691 3 3 0 0 1 0.29883-0.023438zm1.5957 6.998a0.5 0.5 0 0 1 0.5 0.5 0.5 0.5 0 0 1-0.5 0.5 0.5 0.5 0 0 1-0.5-0.5 0.5 0.5 0 0 1 0.5-0.5zm-3 2a0.5 0.5 0 0 1 0.5 0.5 0.5 0.5 0 0 1-0.5 0.5 0.5 0.5 0 0 1-0.5-0.5 0.5 0.5 0 0 1 0.5-0.5z" fill="currentColor"/>
  <path class="ColorScheme-Text" d="m19.418 4c-1.1369-0.012366-3.7482 1.079-6.4785 2.7148a3 3 0 0 1 0.69531 0.85742c1.9412-1.2927 3.3865-1.95 3.8125-1.5039 0.3997 0.4186-0.26949 1.4761-1.709 3.0137 0.071 0.1191 0.11338 0.26557 0.17188 0.38867 2.1824-2.177 4.5479-4.7571 4.0137-5.3164-0.09699-0.1016-0.26943-0.1517-0.50586-0.1543zm-11.201 6.1133c-3.7893 3.2481-6.8243 7.107-6.1133 7.8516 0.1455 0.1523 1.5518-0.23322 2.002-0.44922 0.68683-0.2492 1.8084-0.71097 3.1562-1.4512l-0.083984-0.45117c-1.2961 0.6445-2.211 0.86054-2.5293 0.52734-0.5744-0.60147 1.3761-2.5809 4.2734-4.9805a3 3 0 0 1-0.70508-1.0469zm-6.2168 8.8867v1h18v-1h-18z" fill="currentColor" fill-opacity=".5"/>
  <path d="m6.5 4a0.5 0.5 0 0 0-0.5 0.5 0.5 0.5 0 0 0 0.5 0.5 0.5 0.5 0 0 0 0.5-0.5 0.5 0.5 0 0 0-0.5-0.5zm7 0a0.5 0.5 0 0 0-0.5 0.5 0.5 0.5 0 0 0 0.5 0.5 0.5 0.5 0 0 0 0.5-0.5 0.5 0.5 0 0 0-0.5-0.5zm-2.5957 2.002a3 3 0 0 0-0.29883 0.023438 3 3 0 0 0-2.5801 3.3691 3 3 0 0 0 3.3691 2.5801 3 3 0 0 0 2.5801-3.3691 3 3 0 0 0-3.0703-2.6035zm1.5957 6.998a0.5 0.5 0 0 0-0.5 0.5 0.5 0.5 0 0 0 0.5 0.5 0.5 0.5 0 0 0 0.5-0.5 0.5 0.5 0 0 0-0.5-0.5zm-3 2a0.5 0.5 0 0 0-0.5 0.5 0.5 0.5 0 0 0 0.5 0.5 0.5 0.5 0 0 0 0.5-0.5 0.5 0.5 0 0 0-0.5-0.5z" fill="#ebcb8b"/>
 </g>
</svg>
