<svg viewBox="0 0 24 24" xmlns="http://www.w3.org/2000/svg">
 <defs>
  <style id="current-color-scheme" type="text/css">
   .ColorScheme-Text { color:#2e3440; } .ColorScheme-Highlight { color:#88c0d0; } .ColorScheme-NeutralText { color:#d08770; } .ColorScheme-PositiveText { color:#a3be8c; } .ColorScheme-NegativeText { color:#bf616a; }
  </style>
 </defs>
 <g transform="translate(1,1)">
  <path class="ColorScheme-Text" d="m6.5254 3 2.9023 1.2793c-0.48215 0.92914-1.0939 1.7763-1.8008 2.5352l-3.8086-3.7949h-0.80664v0.94922l3.7227 3.7051c-0.72083 0.62387-1.5138 1.1628-2.375 1.5938l-0.79102-1.7852v-0.0039063l-0.53906-1.2559-0.013672 3.0234 0.22461 0.50586c-0.081462 0.030409-0.15791 0.071003-0.24023 0.099609v1.3086c0.25343-0.078839 0.49383-0.18532 0.74023-0.2793l1.9355 4.3652c-0.86159 0.339-1.7535 0.61875-2.6758 0.81836v1.2695c1.0992-0.2218 2.1576-0.55138 3.1777-0.95703l1.1348 2.5625h1.332l-1.3496-3.0469c1.6841-0.80126 3.2271-1.8474 4.5879-3.0918l3.4238 3.4082c-1.1183 1.041-2.332 1.9809-3.6367 2.791h2.2207c0.80623-0.59004 1.5648-1.2387 2.293-1.9199l1.8672 1.8594 0.88867 0.009766 0.005859-0.85547-1.8848-1.877c0.68574-0.70797 1.341-1.4456 1.9395-2.2305v-2.1484c-0.82306 1.2604-1.7697 2.4306-2.8125 3.5078l-3.4199-3.4082c1.333-1.3905 2.4536-2.9837 3.3086-4.7324l2.8594 1.2598 0.003906-1.3457-2.3672-1.0254c0.40526-0.98803 0.7385-2.0121 0.9707-3.0762h-1.2695c-0.20864 0.89161-0.49034 1.7529-0.83008 2.5859l-4.4043-1.9062c0.090744-0.22696 0.1956-0.44654 0.27344-0.67969h-1.3164c-0.024514 0.065647-0.058312 0.12634-0.083984 0.19141l-0.48047-0.20898h-2.9062zm4.0293 1.7754 4.3926 1.9336c-0.79178 1.6094-1.8278 3.075-3.0547 4.3574l-3.3926-3.3809c0.81296-0.86704 1.5076-1.8428 2.0547-2.9102zm-2.9453 3.7695 3.3984 3.3828c-1.2533 1.1377-2.6693 2.0967-4.2148 2.834l-1.9336-4.3672c0.99973-0.49622 1.9198-1.12 2.75-1.8496z" fill="currentColor"/>
 </g>
</svg>
