<svg viewBox="0 0 24 24" xmlns="http://www.w3.org/2000/svg">
 <defs>
  <style id="current-color-scheme" type="text/css">
   .ColorScheme-Text { color:#2e3440; } .ColorScheme-Highlight { color:#88c0d0; } .ColorScheme-NeutralText { color:#d08770; } .ColorScheme-PositiveText { color:#a3be8c; } .ColorScheme-NegativeText { color:#bf616a; }
  </style>
 </defs>
 <g transform="translate(1,1)">
  <path class="ColorScheme-Text" d="m8 3a5 5 0 0 1-0.083984 0.88477 5 5 0 0 1-0.11133 0.48438 5 5 0 0 1 0 0.0019532 5 5 0 0 1-0.16211 0.47461 5 5 0 0 1 0 0.0019531 5 5 0 0 1-2.5977 2.707 5 5 0 0 1-0.45508 0.17969 5 5 0 0 1-0.0097657 0.0039062 5 5 0 0 1-0.011719 0.0039063 5 5 0 0 1-0.45508 0.12695 5 5 0 0 1-0.015625 0.0039063 5 5 0 0 1-1.0977 0.12695v1a6 6 0 0 0 1.4141-0.17578l0.95117 2.8516c-0.76572 0.21154-1.5612 0.32243-2.3652 0.32422v0.66211c1.6837 1.36e-4 3.3325-0.41428 4.8008-1.1875l0.66992 1.0527 0.53711 0.8418v0.001953a12 12 0 0 0 0.84375-0.53516l-0.0039063-0.00586c2.0739-1.4466 3.6932-3.5392 4.5273-6.0586l2.1543 0.61523 0.74023 0.24805c0.47482-1.4752 0.72796-3.0806 0.73047-4.6348h-1c-0.003712 1.1164-0.15455 2.2623-0.42578 3.3594l-7.6934-2.1992a6 6 0 0 0 0.11914-1.1602h-1zm0.60938 2.123 4.8086 1.375c-0.76453 2.2794-2.2306 4.1753-4.1055 5.4922l-0.64844-1.0195-0.42383-0.66797a9 9 0 0 1-0.69922 0.45117c-0.39465 0.23212-0.80764 0.42458-1.2305 0.59375l-0.94531-2.8359a6 6 0 0 0 3.2441-3.3887zm3.5137 5.666a12 12 0 0 1-0.68164 0.73242l1.4512 1.3477c-2.614 2.623-6.1623 4.1278-9.8926 4.1309v1c4.0072-0.006459 7.8162-1.6316 10.617-4.459l2.209 2.0527a18 18 0 0 1-4.6367 3.4062h2.0195a19 19 0 0 0 3.3457-2.7285l0.009765 0.007813a19 19 0 0 0 0.68164-0.73242l-0.00586-0.003906a19 19 0 0 0 1.7598-2.2969v-2.0391a18 18 0 0 1-2.5078 3.6406l-2.1797-2.0254-0.72656-0.67383-1.4629-1.3594z" fill="currentColor"/>
 </g>
</svg>
