<svg version="1.1" viewBox="0 0 24 24" xmlns="http://www.w3.org/2000/svg">
 <defs>
  <style id="current-color-scheme" type="text/css">
   .ColorScheme-Text { color:#2e3440; } .ColorScheme-Highlight { color:#88c0d0; } .ColorScheme-NeutralText { color:#d08770; } .ColorScheme-PositiveText { color:#a3be8c; } .ColorScheme-NegativeText { color:#bf616a; }
  </style>
 </defs>
 <g transform="translate(1,1)" fill="currentColor">
  <path class="ColorScheme-Text" d="m2 3v16h1v-7h8v6h9v-7h-8v-7h-9v-1h-1zm1 2h8v6h-8v-6zm9 7h7v5h-7v-5z"/>
  <path class="ColorScheme-Highlight" d="m7 3c-0.90442 0-1.6369 0.60348-2.2305 1.3652-0.59353 0.76175-1.0839 1.7305-1.4883 2.6914-0.80875 1.9218-1.2676 3.8262-1.2676 3.8262l0.97266 0.23438s0.4474-1.8456 1.2168-3.6738c0.3847-0.91412 0.85135-1.8203 1.3535-2.4648 0.50014-0.6419 0.99949-0.97192 1.4375-0.97461 0.4208 0.013779 0.78298 0.18499 1.1562 0.54297 0.37582 0.36043 0.73988 0.90814 1.0762 1.5879 0.67259 1.3595 1.2345 3.2262 1.7969 5.1016 0.56235 1.8754 1.1238 3.7591 1.8594 5.2148 0.36778 0.72787 0.77828 1.3548 1.2871 1.8164 0.50725 0.46015 1.1393 0.74793 1.8379 0.73047 0.87662-0.0041 1.5426-0.63392 2.0312-1.4023 0.49023-0.77092 0.85635-1.7408 1.1426-2.7031 0.57245-1.9247 0.81445-3.8281 0.81445-3.8281l-0.99219-0.12891s-0.23835 1.8466-0.78125 3.6719c-0.27145 0.91266-0.62333 1.8178-1.0273 2.4531-0.40401 0.63533-0.80686 0.93945-1.1953 0.93945h-0.0137c-0.42361 0.01175-0.77479-0.13922-1.1445-0.47461-0.36972-0.33538-0.73147-0.86253-1.0664-1.5254-0.66986-1.3257-1.2328-3.1761-1.7949-5.0508-0.56215-1.8747-1.1232-3.7737-1.8574-5.2578-0.36712-0.74205-0.77747-1.384-1.2813-1.8672-0.50378-0.48315-1.1264-0.80494-1.8281-0.82422h-0.013672z"/>
 </g>
</svg>
