<svg viewBox="0 0 24 24" xmlns="http://www.w3.org/2000/svg">
 <defs>
  <style id="current-color-scheme" type="text/css">
   .ColorScheme-Text { color:#2e3440; } .ColorScheme-Highlight { color:#88c0d0; } .ColorScheme-NeutralText { color:#d08770; } .ColorScheme-PositiveText { color:#a3be8c; } .ColorScheme-NegativeText { color:#bf616a; }
  </style>
 </defs>
 <g transform="translate(1,1)">
  <path class="ColorScheme-Text" d="m4 3v2h-1v3h1v6h-1v3h1v2h2v-1h-1v-14h13v2h1v-3h-15zm9 4a6 2 0 0 0-6 2v8a6 2 0 0 0 6 2 6 2 0 0 0 1-0.029297v-0.99219a5 1 0 0 1-1 0.021484 5 1 0 0 1-5-1v-2.8984a6 2 0 0 0 5 0.89844 6 2 0 0 0 1-0.03125v-0.99023a5 1 0 0 1-1 0.021484 5 1 0 0 1-5-1v-2.8984a6 2 0 0 0 5 0.89844 6 2 0 0 0 5-0.89648v2.8965h1v-4a6 2 0 0 0-6-2zm0 1a5 1 0 0 1 5 1 5 1 0 0 1-5 1 5 1 0 0 1-5-1 5 1 0 0 1 5-1zm4 6v2h-2v1h2v2h1v-2h2v-1h-2v-2h-1z" fill="currentColor"/>
 </g>
</svg>
