<svg version="1.1" viewBox="0 0 24 24" xmlns="http://www.w3.org/2000/svg">
 <defs>
  <style id="current-color-scheme" type="text/css">
   .ColorScheme-Text { color:#2e3440; } .ColorScheme-Highlight { color:#88c0d0; } .ColorScheme-NeutralText { color:#d08770; } .ColorScheme-PositiveText { color:#a3be8c; } .ColorScheme-NegativeText { color:#bf616a; }
  </style>
 </defs>
 <g transform="translate(1,1)" fill="currentColor">
  <path class="ColorScheme-Text" d="m4 3v14h-1v1h1v1h1v-1h14v-1h-11v-3h4v-5h3v-4h4v-1h-5v4h-3v5h-4v4h-2v-14z"/>
  <path class="ColorScheme-Highlight" d="m18.996 4c-1.6778 0.014722-3.1132 0.92866-4.3652 2.1973-1.252 1.2686-2.3566 2.9128-3.4219 4.5352-1.0652 1.6223-2.0918 3.2243-3.1289 4.3906s-2.0454 1.8543-3.0801 1.8555v1c1.4653-0.001613 2.7081-0.92994 3.8281-2.1895 1.12-1.2595 2.1563-2.8927 3.2168-4.5078s2.1432-3.2119 3.2969-4.3809 2.3428-1.8888 3.6621-1.9004l-0.007812-1z"/>
 </g>
</svg>
