<svg viewBox="0 0 24 24" xmlns="http://www.w3.org/2000/svg">
 <defs>
  <style id="current-color-scheme" type="text/css">
   .ColorScheme-Text { color:#2e3440; } .ColorScheme-Highlight { color:#88c0d0; } .ColorScheme-NeutralText { color:#d08770; } .ColorScheme-PositiveText { color:#a3be8c; } .ColorScheme-NegativeText { color:#bf616a; }
  </style>
 </defs>
 <g transform="translate(1,1)">
  <path class="ColorScheme-Text" d="m3 7c-0.55401 0-1 0.44599-1 1v6c0 0.55401 0.44599 1 1 1h6c0.55401 0 1-0.44599 1-1v-1h2v1c0 0.554 0.44599 1 1 1h6c0.55401 0 1-0.446 1-1v-6c0-0.554-0.44599-1-1-1h-6c-0.55401 0-1 0.446-1 1v1h-2v-1c0-0.55401-0.44599-1-1-1h-6zm0 1h6v1c-0.55401 0-1 0.44599-1 1v2c0 0.55401 0.44599 1 1 1v1h-6v-6zm10 0h6v6h-6v-1c0.55401 0 1-0.44599 1-1v-2c0-0.55401-0.44599-1-1-1v-1zm-4 2h4v2h-4v-2z" fill="currentColor"/>
 </g>
</svg>
