<svg viewBox="0 0 24 24" xmlns="http://www.w3.org/2000/svg">
 <defs>
  <style id="current-color-scheme" type="text/css">
   .ColorScheme-Text { color:#2e3440; } .ColorScheme-Highlight { color:#88c0d0; } .ColorScheme-NeutralText { color:#d08770; } .ColorScheme-PositiveText { color:#a3be8c; } .ColorScheme-NegativeText { color:#bf616a; }
  </style>
 </defs>
 <path class="ColorScheme-Text" d="m2 4v16h13v-1h-12v-0.58594l6.7305-6.7305 1.4531 1.4512 0.81445 0.81445h0.001953l0.81641-0.81445 1.4531-1.4512 1.3164 1.3164h1.4141l-2.0234-2.0234 5.752-5.7539 0.22266-0.22266h0.048828v7.99996h1v-9h-19.999778zm1 1h0.048828l0.22266 0.22266 5.752 5.7539-6.0234 6.0234v-11.99996zm1.4629 0h15.074l-7.5371 7.5371-7.5371-7.5371zm17.83 9-4.5918 4.5918-1.1465-1.1465-0.70703 0.70703 1.8457 1.8477 0.00586-0.007812 0.007812 0.007812 5.293-5.293-0.70703-0.70703z" fill="currentColor"/>
</svg>
