<svg viewBox="0 0 24 24" xmlns="http://www.w3.org/2000/svg">
 <defs>
  <style id="current-color-scheme" type="text/css">
   .ColorScheme-Text { color:#2e3440; } .ColorScheme-Highlight { color:#88c0d0; } .ColorScheme-NeutralText { color:#d08770; } .ColorScheme-PositiveText { color:#a3be8c; } .ColorScheme-NegativeText { color:#bf616a; }
  </style>
 </defs>
 <path class="ColorScheme-Text" d="m2 4v16h10v-1h-9v-0.58594l6.7305-6.7305 1.4531 1.4512 0.81445 0.81445h0.001953l0.81641-0.81445 1.4531-1.4512 1.3164 1.3164h1.4141l-2.0234-2.0234 5.752-5.7539 0.22266-0.22266h0.048828v5.99996h1v-7h-19.999778zm1 1h0.048828l0.22266 0.22266 5.752 5.7539-6.0234 6.0234v-11.99996zm1.4629 0h15.074l-7.5371 7.5371-7.5371-7.5371z" fill="currentColor"/>
 <path class="ColorScheme-NeutralText" d="m20 12-0.99609 0.99414-0.003906-0.003907-5 4.998 0.007812 0.007813-0.003906 1.0039h-0.003906v0.999996h2l0.009766-0.009766c4e-3 -2e-5 0.005765 0.001953 0.009765 0.001954l-0.005859-0.00586 0.98633-0.98633 4-3.9961-0.70508-0.70898-4.9902 4.9863-0.59375-0.5918 4.9922-4.9883 0.5918 0.59375 0.70508 0.70312 1-1-2-1.998z" fill="currentColor"/>
</svg>
