<svg viewBox="0 0 24 24" xmlns="http://www.w3.org/2000/svg">
 <defs>
  <style id="current-color-scheme" type="text/css">
   .ColorScheme-Text { color:#2e3440; } .ColorScheme-Highlight { color:#88c0d0; } .ColorScheme-NeutralText { color:#d08770; } .ColorScheme-PositiveText { color:#a3be8c; } .ColorScheme-NegativeText { color:#bf616a; }
  </style>
 </defs>
 <path class="ColorScheme-Text" d="m2 4v9h1v-7.99996h0.048828l0.22266 0.22266 5.752 5.7539-2.0234 2.0234h1.4141l1.3164-1.3164 1.4531 1.4512 0.81641 0.81445h0.001953l0.81445-0.81445 1.4531-1.4512 6.7305 6.7305v0.58594h-12v1h13v-16h-19.999778zm2.4629 1h15.074l-7.5371 7.5371-7.5371-7.5371zm16.488 0h0.048828v11.99996l-6.0234-6.0234 5.752-5.7539 0.22266-0.22266zm-15.951 9-3 3 3 3v-6zm1 2v2h1v-2h-1zm2 0v2h1v-2h-1z" fill="currentColor"/>
</svg>
