<svg viewBox="0 0 24 24" xmlns="http://www.w3.org/2000/svg">
 <defs>
  <style id="current-color-scheme" type="text/css">
   .ColorScheme-Text { color:#2e3440; } .ColorScheme-Highlight { color:#88c0d0; } .ColorScheme-NeutralText { color:#d08770; } .ColorScheme-PositiveText { color:#a3be8c; } .ColorScheme-NegativeText { color:#bf616a; }
  </style>
 </defs>
 <path class="ColorScheme-Text" d="m4 4v3l-2 3v4.00001h1v-3h2.0781l6.9219 3.9961 6.9219-3.9961h2.078125v2h1v-3.00004l-2-3v-3h-16zm1 1h14v4.7988l-7 4.041-7-4.041v-4.7988zm1 1v0.98633l-0.013672 0.013672h12.027344l-0.013672-0.013672v-0.98633h-12zm0 2v1h7v-1h-7zm12.707 5-0.70703 0.70703 2.293 2.293h-4.293v1h4.293l-2.293 2.293 0.70703 0.70703 3.5-3.5-3.5-3.5zm-13.707 1-3 3 3 3v-2h2v-2h-2v-2zm3 5v1h7v-1h-7z" fill="currentColor"/>
</svg>
