<svg viewBox="0 0 24 24" xmlns="http://www.w3.org/2000/svg">
 <defs>
  <style id="current-color-scheme" type="text/css">
   .ColorScheme-Text { color:#2e3440; } .ColorScheme-Highlight { color:#88c0d0; } .ColorScheme-NeutralText { color:#d08770; } .ColorScheme-PositiveText { color:#a3be8c; } .ColorScheme-NegativeText { color:#bf616a; }
  </style>
 </defs>
 <path class="ColorScheme-Text" d="m4 4v3l-2 3v10.00001h13v-1h-12v-8.00004h2.0781l6.9219 3.9961 6.9219-3.9961h2.078125v2h1v-3.00004l-2-3v-3h-16zm1 1h14v4.7988l-7 4.041-7-4.041v-4.7988zm1 1v0.98633l-0.013672 0.013672h12.027344l-0.013672-0.013672v-0.98633h-12zm0 2v1h7v-1h-7zm13.5 5c-0.831 0-1.5 0.669-1.5 1.5s0.669 1.5 1.5 1.5 1.5-0.669 1.5-1.5-0.669-1.5-1.5-1.5zm-0.5 4c-1.108 0-2 0.892-2 2v1h5v-1c0-1.108-0.892-2-2-2h-1z" fill="currentColor"/>
</svg>
