<svg viewBox="0 0 24 24" xmlns="http://www.w3.org/2000/svg">
 <defs>
  <style id="current-color-scheme" type="text/css">
   .ColorScheme-Text { color:#2e3440; } .ColorScheme-Highlight { color:#88c0d0; } .ColorScheme-NeutralText { color:#d08770; } .ColorScheme-PositiveText { color:#a3be8c; } .ColorScheme-NegativeText { color:#bf616a; }
  </style>
 </defs>
 <g transform="translate(1,1)">
  <path class="ColorScheme-Text" d="m3 3v16h16v-16h-16zm1 1h4v4.707a7 3 0 0 1-4-2.707v-2zm5 0h4v4.873a7 3 0 0 1-2 0.12695 7 3 0 0 1-2-0.12695v-4.873zm5 0h4v2a7 3 0 0 1-4 2.707v-4.707zm-10 3.9277a8 4 0 0 0 4 1.7773v2.5898a8 4 0 0 0-4 1.7773v-6.1445zm14 0.0078125v6.1289a8 4 0 0 0-4-1.7695v-2.5898a8 4 0 0 0 4-1.7695zm-9 1.9316a8 4 0 0 0 2 0.13281 8 4 0 0 0 2-0.13086v2.2617a8 4 0 0 0-2-0.13086 8 4 0 0 0-2 0.13281v-2.2656zm2 3.1328a7 3 0 0 1 2 0.12695v4.873h-4v-4.873a7 3 0 0 1 2-0.12695zm-3 0.29297v4.707h-4v-2a7 3 0 0 1 4-2.707zm6 0a7 3 0 0 1 4 2.707v2h-4v-4.707z" fill="currentColor"/>
 </g>
</svg>
