<svg viewBox="0 0 24 24" xmlns="http://www.w3.org/2000/svg">
 <defs>
  <style id="current-color-scheme" type="text/css">
   .ColorScheme-Text { color:#2e3440; } .ColorScheme-Highlight { color:#88c0d0; } .ColorScheme-NeutralText { color:#d08770; } .ColorScheme-PositiveText { color:#a3be8c; } .ColorScheme-NegativeText { color:#bf616a; }
  </style>
 </defs>
 <g transform="translate(1,1)">
  <path class="ColorScheme-Text" d="m3 4v15h16v-15h-16zm1 1h4v3h-4v-3zm5 0h4v3h-4v-3zm5 0h4v3h-4v-3zm-10 4h4v2h-4v-2zm5 0h4v2h-4v-2zm5 0h4v2h-4v-2zm-10 3h4v2h-4v-2zm5 0h4v2h-4v-2zm5 0h4v2h-4v-2zm-10 3h4v3h-4v-3zm5 0h4v3h-4v-3zm5 0h4v3h-4v-3z" fill="currentColor"/>
 </g>
</svg>
