<svg id="svg199" version="1.1" viewBox="0 0 24 24" xmlns="http://www.w3.org/2000/svg">
 <defs id="defs191">
  <style id="style189" type="text/css">.ColorScheme-Text {
        color:#2e3440;
      }
      .ColorScheme-Highlight {
        color:#88c0d0;
      }</style>
 </defs>
 <g id="g197" transform="translate(1,1)" fill="currentColor" style="fill:#2e3440">
  <path id="path193" class="ColorScheme-Text" d="m4.5 3c-0.82842 0-1.5 0.67157-1.5 1.5 8.3e-6 0.82843 0.67158 1.5 1.5 1.5s1.5-0.67157 1.5-1.5c-8.3e-6 -0.82843-0.67158-1.5-1.5-1.5zm2.5 1v1h1v-1h-1zm2 0v1h10v-1h-10zm0 2v1h3v-1h-3zm-4.5 3c-0.82843-1.2e-6 -1.5 0.67157-1.5 1.5s0.67157 1.5 1.5 1.5c0.82843 1e-6 1.5-0.67157 1.5-1.5s-0.67157-1.5-1.5-1.5zm2.5 1v1h1v-1h-1zm2 0v1h5v-1h-5zm0 2v1h4v-1h-4zm-4.5 3c-0.82843-1e-6 -1.5 0.67157-1.5 1.5s0.67157 1.5 1.5 1.5c0.82843 1e-6 1.5-0.67157 1.5-1.5s-0.67157-1.5-1.5-1.5zm2.5 1v1h1v-1h-1zm2 0v1h10v-1h-10zm0 2v1h7v-1h-7z" style="fill:#2e3440"/>
  <path id="path195" class="ColorScheme-Highlight" d="m19 8-4 3 4 3v-6z" style="fill:#2e3440"/>
 </g>
</svg>
