<svg viewBox="0 0 24 24" xmlns="http://www.w3.org/2000/svg">
 <defs>
  <style id="current-color-scheme" type="text/css">
   .ColorScheme-Text { color:#2e3440; } .ColorScheme-Highlight { color:#88c0d0; } .ColorScheme-NeutralText { color:#d08770; } .ColorScheme-PositiveText { color:#a3be8c; } .ColorScheme-NegativeText { color:#bf616a; }
  </style>
 </defs>
 <path class="ColorScheme-Text" d="m5.5 4c-0.82842 0-1.5 0.67157-1.5 1.5 8.3e-6 0.82843 0.67158 1.5 1.5 1.5s1.5-0.67157 1.5-1.5c-8.3e-6 -0.82843-0.67158-1.5-1.5-1.5zm2.5 1v1h1v-1h-1zm2 0v1h10v-1h-10zm0 2v1h3v-1h-3zm-4.5 3c-0.82843-1.2e-6 -1.5 0.67157-1.5 1.5s0.67157 1.5 1.5 1.5c0.82843 1e-6 1.5-0.67157 1.5-1.5s-0.67157-1.5-1.5-1.5zm2.5 1v1h1v-1h-1zm10 1v1h-1.023438c-1.649 0-2.9766 1.3276-2.9766 2.9766v0.023438c0 1.108-0.892 2-2 2h-3v1h3.023438c1.649 0 2.9766-1.3276 2.9766-2.9766v-0.023438c0-1.108 0.892-2 2-2h1v1l2-1.5-2-1.5zm-9 1v1h3c0.3989 0 0.76676 0.11868 1.0781 0.31836 0.0757-0.33686 0.20987-0.64922 0.38867-0.93164-0.42888-0.23891-0.91569-0.38672-1.4434-0.38672h-3.023438zm-3.5 3c-0.82843-1e-6 -1.5 0.67157-1.5 1.5s0.67157 1.5 1.5 1.5c0.82843 1e-6 1.5-0.67157 1.5-1.5s-0.67157-1.5-1.5-1.5zm12.5 1v1h-1c-0.3989 0-0.76676-0.11868-1.0781-0.31836-0.0757 0.33686-0.20987 0.64922-0.38867 0.93164 0.42888 0.23891 0.91569 0.38672 1.4434 0.38672h1.023438v1l2-1.5-2-1.5z" fill="currentColor"/>
</svg>
