<svg viewBox="0 0 24 24" xmlns="http://www.w3.org/2000/svg">
 <defs>
  <style id="current-color-scheme" type="text/css">
   .ColorScheme-Text { color:#2e3440; } .ColorScheme-Highlight { color:#88c0d0; } .ColorScheme-NeutralText { color:#d08770; } .ColorScheme-PositiveText { color:#a3be8c; } .ColorScheme-NegativeText { color:#bf616a; }
  </style>
 </defs>
 <g transform="translate(1,1)">
  <path class="ColorScheme-Text" d="m11 3c-4.432 0-8 3.568-8 8s3.568 8 8 8c0.69208 0 1.3603-0.096052 2-0.25977v-1.0332c-0.63375 0.18753-1.3038 0.29297-2 0.29297-3.878 0-7-3.122-7-7s3.122-7 7-7 7 3.122 7 7c0 0.69617-0.10544 1.3662-0.29297 2h1.0332c0.16371-0.63965 0.25977-1.3079 0.25977-2 0-4.432-3.568-8-8-8zm-1 2v7h6v-1h-5v-6h-1zm4 8v6l6-3-6-3z" fill="currentColor"/>
 </g>
</svg>
