<svg version="1.1" viewBox="0 0 24 24" xmlns="http://www.w3.org/2000/svg">
 <defs>
  <style id="current-color-scheme" type="text/css">
   .ColorScheme-Text { color:#2e3440; } .ColorScheme-Highlight { color:#88c0d0; } .ColorScheme-NeutralText { color:#d08770; } .ColorScheme-PositiveText { color:#a3be8c; } .ColorScheme-NegativeText { color:#bf616a; }
  </style>
 </defs>
 <g transform="translate(1,1)" fill="currentColor">
  <path class="ColorScheme-Text" d="m3 3v1h7v-1h-7zm9 0v1h7v-1h-7zm-9 3v1h7v-1h-7zm9 0v1h7v-1h-7zm-9 3v1h7v-1h-7zm9 0v1h7v-1h-7zm-9 4v1h7v-1h-7zm0 4v1h7v-1h-7z"/>
  <path class="ColorScheme-Highlight" d="m12.5 12-2 1.5 2 1.5v-1h1c0.82843 0 1.5 0.67157 1.5 1.5 0 1.3807 1.1193 2.5 2.5 2.5h2.0312v-1h-2.0312c-0.82843 0-1.5-0.67157-1.5-1.5 0-1.3807-1.1193-2.5-2.5-2.5h-1v-1zm6.0312 0v1h-1c-0.4941-4e-6 -0.95202 0.14912-1.3398 0.39648a2 2 0 0 1 0.63086 0.7832 2 2 0 0 1 0.005859 0.001953c0.21058-0.11281 0.44752-0.18164 0.70312-0.18164h1v1l2-1.5-2-1.5zm-4.3418 4.8418c-0.19956 0.098232-0.42074 0.1582-0.6582 0.1582h-2.0312v1h2.0312c0.4814 3e-6 0.9292-0.13666 1.3086-0.37305a2 2 0 0 1-0.65039-0.78516z"/>
 </g>
</svg>
