<svg viewBox="0 0 24 24" xmlns="http://www.w3.org/2000/svg">
 <defs>
  <style id="current-color-scheme" type="text/css">
   .ColorScheme-Text { color:#2e3440; } .ColorScheme-Highlight { color:#88c0d0; } .ColorScheme-NeutralText { color:#d08770; } .ColorScheme-PositiveText { color:#a3be8c; } .ColorScheme-NegativeText { color:#bf616a; }
  </style>
 </defs>
 <g transform="translate(1,1)">
  <path class="ColorScheme-Text" d="m3 3v1h6v-1h-6zm13 0v3h1v10.092c-0.42446 0.15026-0.75675 0.48554-0.9082 0.9082h-10.092v-1h-3v3h3v-1h10.092c0.20601 0.58192 0.75396 1 1.4082 1 0.831 0 1.5-0.669 1.5-1.5 0-0.65424-0.41808-1.2022-1-1.4082v-10.092h1v-3h-3zm-6 1-1.8535 3.9512-4.1465 0.63281 3 3.0742-0.70703 4.3418 3.707-2.0488 3.707 2.0488-0.70703-4.3418 3-3.0742-4.1465-0.63281-1.8535-3.9512zm7 0h1v1h-1v-1zm-14 1v1h5v-1h-5zm0 2v1h3.2461v-1h-3.2461zm0 4v1h2v-1h-2zm0 2v1h3v-1h-3zm1 4h1v1h-1v-1zm13.5 0c0.277 0 0.5 0.223 0.5 0.5s-0.223 0.5-0.5 0.5-0.5-0.223-0.5-0.5 0.223-0.5 0.5-0.5z" fill="currentColor"/>
 </g>
</svg>
