<svg viewBox="0 0 24 24" xmlns="http://www.w3.org/2000/svg">
 <defs>
  <style id="current-color-scheme" type="text/css">
   .ColorScheme-Text { color:#2e3440; } .ColorScheme-Highlight { color:#88c0d0; } .ColorScheme-NeutralText { color:#d08770; } .ColorScheme-PositiveText { color:#a3be8c; } .ColorScheme-NegativeText { color:#bf616a; }
  </style>
 </defs>
 <path class="ColorScheme-Text" d="m7 4v1h1v-1h-1zm9 0v1h1v-1h-1zm-9 2v1h-3v10h3v1h1v-1h3v-3h2v3h3v1h1v-1h3v-10h-3v-1h-1v1h-3v3h-2v-3h-3v-1h-1zm-2 2h5v8h-5v-8zm9 0h5v8h-5v-8zm1 1v6h3v-6h-3zm-4 2h2v2h-2v-2zm-4 8v1h1v-1h-1zm9 0v1h1v-1h-1z" fill="currentColor"/>
</svg>
