<svg viewBox="0 0 24 24" xmlns="http://www.w3.org/2000/svg">
 <defs>
  <style id="current-color-scheme" type="text/css">
   .ColorScheme-Text { color:#2e3440; } .ColorScheme-Highlight { color:#88c0d0; } .ColorScheme-NeutralText { color:#d08770; } .ColorScheme-PositiveText { color:#a3be8c; } .ColorScheme-NegativeText { color:#bf616a; }
  </style>
 </defs>
 <path class="ColorScheme-Text" d="m7 4v3h-1v1h1v3h3v2h-3v3h-1v1h1v3h10v-3h1v-1h-1v-3h-3v-2h3v-3h1v-1h-1v-3h-10zm1 1h8v5h-8v-5zm-4 2v1h1v-1h-1zm15 0v1h1v-1h-1zm-8 4h2v2h-2v-2zm-3 3h8v5h-8v-5zm1 1v3h6v-3h-6zm-5 1v1h1v-1h-1zm15 0v1h1v-1h-1z" fill="currentColor"/>
</svg>
