<svg viewBox="0 0 24 24" xmlns="http://www.w3.org/2000/svg">
 <defs>
  <style type="text/css">.ColorScheme-Text {
        color:#2e3440;
      }</style>
 </defs>
 <path class="ColorScheme-Text" d="m5 4v3.9922 1.0078 7 1 1h-1v1h1v1h1v-1h14v-1h-14v-1h0.0078125 0.99219 2v-0.007812l0.0078125 0.007812 2-2h1.5918l2 2h3.5 1.9004v-1h-1.9004-3.0859l-2-2h-0.013672-0.99219-0.4082-1.0059l-2 2h-1.5938-0.99219-0.0078125v-3-1-1-2h0.0078125 0.99219 1.5879l4.5352 4.5352 0.001953-0.001953 0.001953 0.001953 2.127-2.125 3.166 3.166 0.70703-0.70703-3.8691-3.8691-0.003906 0.003906-0.005859-0.003906-2.123 2.123-4.123-4.123h-0.0019531-2v-0.0078125h-1v-0.99219h7v-1h-7v-2h-1zm8 0v1h1v3h1v-4h-1-1zm4.5 0c-0.831 0-1.5 0.669-1.5 1.5v1c0 0.831 0.669 1.5 1.5 1.5s1.5-0.669 1.5-1.5v-1c0-0.831-0.669-1.5-1.5-1.5zm4 0c-0.831 0-1.5 0.669-1.5 1.5v1c0 0.831 0.669 1.5 1.5 1.5s1.5-0.669 1.5-1.5v-1c0-0.831-0.669-1.5-1.5-1.5zm-4 1c0.277 0 0.5 0.223 0.5 0.5v1c0 0.277-0.223 0.5-0.5 0.5s-0.5-0.223-0.5-0.5v-1c0-0.277 0.223-0.5 0.5-0.5zm4 0c0.277 0 0.5 0.223 0.5 0.5v1c0 0.277-0.223 0.5-0.5 0.5s-0.5-0.223-0.5-0.5v-1c0-0.277 0.223-0.5 0.5-0.5z" fill="currentColor"/>
 <path class="ColorScheme-Text" d="m6.0078 7v1h2.9922l4 4v-4-1h-6.9922zm-0.0078125 2v2 1 1 3h0.0078125 2.5859l2-2h0.40625l2-0.007812 0.007812 0.007812h0.00586l1.9922 1.9922 1.9961 0.005859 2.0195-2.0195-0.001953-0.001954-0.59961 0.59961-3.166-3.166-2.127 2.125-0.001953-0.001953-0.001953 0.001953-4.5352-4.5352h-2.5801-0.0078125zm5 6-2 2h-3v1h14v-1h-5.4004l-2-2h-1.5996z" fill="currentColor" fill-opacity=".5"/>
</svg>
