<svg viewBox="0 0 24 24" xmlns="http://www.w3.org/2000/svg">
 <defs>
  <style type="text/css">.ColorScheme-Text {
        color:#2e3440;
      }</style>
 </defs>
 <path class="ColorScheme-Text" d="m5 4v6 1 5 1 1h-1v1h1v1h1v-1h13.293 0.70703v-0.70703-0.29297h-0.29297l-3.5762-3.5762-0.003906 0.003906-0.005859-0.003906-2.123 2.123-4.123-4.123h-0.0019531-1.873-1-1v-0.42383-1h1 1 1.873 0.0019531l4.123-4.123 2.123 2.123 0.005859-0.0039062 0.003906 0.0039062 3.8691-3.8691-0.70703-0.70703-3.166 3.166-2.127-2.125-0.001953 0.0019531-0.001953-0.0019531-1.5273 1.5273h-6.4688v-0.99219-2h-1zm1 3h6.4609l-3 3h-1.4609-1-1v-3zm0 6.4238h1 1 1.4609l3 3h-6.4609v-0.42383-2.5762zm10.127 2.4102 2.166 2.166h-12.293v-1-0.56836h6.4688l1.5273 1.5273 0.001953-0.001953 0.001953 0.001953 2.127-2.125z" fill="currentColor"/>
</svg>
