<svg viewBox="0 0 24 24" xmlns="http://www.w3.org/2000/svg">
 <defs>
  <style id="current-color-scheme" type="text/css">
   .ColorScheme-Text { color:#2e3440; } .ColorScheme-Highlight { color:#88c0d0; } .ColorScheme-NeutralText { color:#d08770; } .ColorScheme-PositiveText { color:#a3be8c; } .ColorScheme-NegativeText { color:#bf616a; }
  </style>
 </defs>
 <g transform="translate(1,1)">
  <path class="ColorScheme-Text" transform="translate(-553.72 -583.12)" d="m572.24 586.13a2.0002 9.0008 44.989 0 0-7.4447 5.0989 2.0002 9.0008 44.989 0 0-3.5427 4.1143c1.076 0.3428 1.9146 1.1816 2.2573 2.258a2.0002 9.0008 44.989 0 0 4.113-3.5439 2.0002 9.0008 44.989 0 0 4.9488-7.7793 2.0002 9.0008 44.989 0 0-0.33203-0.14853m-11.513 10.659c-3.9999 1.0723-0.99997 3.6048-3.9999 5.3345 3.9999 0 5.9998-2.0019 5.9998-3.3368 0-0.66546 0.068-1.8897-1.9999-2.0004" fill="currentColor"/>
 </g>
</svg>
