<svg version="1.1" viewBox="0 0 24 24" xmlns="http://www.w3.org/2000/svg">
 <defs>
  <style type="text/css">.ColorScheme-Text {
                color:#2e3440;
            }</style>
 </defs>
 <g transform="translate(1,1)" fill="#2e3440">
  <path class="ColorScheme-Text" d="m11 18h8v-7h-4v-4h-3v-1h4l4 4v9h-10v-3h1v2z"/>
  <path class="ColorScheme-Text" d="m4 10h8v4h-8v-4zm4-6c1.1046 0 2 0.89543 2 2v3h-4v-3c0-1.1046 0.89543-2 2-2zm0-1c-1.6569 0-3 1.3431-3 3v3h-2v6h10v-6h-2v-3c0-1.6569-1.3431-3-3-3z"/>
 </g>
</svg>
