<svg viewBox="0 0 24 24" xmlns="http://www.w3.org/2000/svg">
 <defs>
  <style id="current-color-scheme" type="text/css">
   .ColorScheme-Text { color:#2e3440; } .ColorScheme-Highlight { color:#88c0d0; } .ColorScheme-NeutralText { color:#d08770; } .ColorScheme-PositiveText { color:#a3be8c; } .ColorScheme-NegativeText { color:#bf616a; }
  </style>
 </defs>
 <path class="ColorScheme-Text" d="m19 4c0 3.5253-2.6094 6.8482-6 7.4082v1.0137c3.9453-0.55851 7-4.343 7-8.4219h-1zm-11 1-2 1.5 2 1.5v-1h5v-1h-5v-1zm3 6.5781c-3.9453 0.55851-7 4.343-7 8.4219h1c0-3.5253 2.6094-6.8482 6-7.4082v-1.0137zm5 4.4219v1h-5v1h5v1l2-1.5-2-1.5z" fill="currentColor"/>
 <path class="ColorScheme-Highlight" d="m10 10v4h4v-4h-4zm1 1h2v2h-2v-2z" fill="currentColor"/>
</svg>
