<svg viewBox="0 0 24 24" xmlns="http://www.w3.org/2000/svg">
 <defs>
  <style id="current-color-scheme" type="text/css">
   .ColorScheme-Text { color:#2e3440; } .ColorScheme-Highlight { color:#88c0d0; } .ColorScheme-NeutralText { color:#d08770; } .ColorScheme-PositiveText { color:#a3be8c; } .ColorScheme-NegativeText { color:#bf616a; }
  </style>
 </defs>
 <g transform="translate(1,1)">
  <path class="ColorScheme-Text" d="m11 5a9 6 0 0 0-9 6 9 6 0 0 0 9 6 9 6 0 0 0 9-6 9 6 0 0 0-9-6zm0 1a8 5 0 0 1 8 5 8 5 0 0 1-8 5 8 5 0 0 1-8-5 8 5 0 0 1 8-5z" fill="currentColor"/>
 </g>
</svg>
