<svg version="1.1" viewBox="0 0 24 24" xmlns="http://www.w3.org/2000/svg">
 <defs>
  <style id="current-color-scheme" type="text/css">
   .ColorScheme-Text { color:#2e3440; } .ColorScheme-Highlight { color:#88c0d0; } .ColorScheme-NeutralText { color:#d08770; } .ColorScheme-PositiveText { color:#a3be8c; } .ColorScheme-NegativeText { color:#bf616a; }
  </style>
 </defs>
 <path class="ColorScheme-Text" d="m12 4a8 8 0 0 0-8 8 8 8 0 0 0 1.3945 4.5l0.72266-0.72266a7 7 0 0 1-1.1172-3.7773 7 7 0 0 1 7-7 7 7 0 0 1 3.7734 1.1211l0.7207-0.7207a8 8 0 0 0-4.4941-1.4004zm7.293 0-15.293 15.293 0.70703 0.70703 15.293-15.293zm-0.68164 3.4961-0.7207 0.7207a7 7 0 0 1 0 0.00195 7 7 0 0 1 1.1094 3.7813 7 7 0 0 1-7 7 7 7 0 0 1-3.7773-1.1152l-0.7207 0.7207a8 8 0 0 0 4.498 1.3945 8 8 0 0 0 8-8 8 8 0 0 0-1.3887-4.5039zm-6.6113 1.5039v0.89453l0.51172-0.51172zm2.918 2.1895-2.918 2.918v0.89258l4-3z" fill="currentColor"/>
 <path class="ColorScheme-Text" d="m11 9c-1.6569 0-3 1.3431-3 3 5.6e-4 0.52448 0.13861 1.0397 0.40039 1.4941l2.5996-2.5996z" fill="#bf616a"/>
</svg>
