<svg viewBox="0 0 24 24" xmlns="http://www.w3.org/2000/svg">
 <defs>
  <style type="text/css">.ColorScheme-NegativeText {
        color:#bf616a;
      }</style>
 </defs>
 <path class="ColorScheme-NegativeText" d="m12 4c-0.67521 4e-3 -1.3472 0.092995-2 0.26562v1.0332 0.011719a7 7 0 0 0-1.3164 0.54492l-0.74023-0.74023c-1.167 0.68805-2.1401 1.6612-2.8281 2.8281l0.74023 0.74023a7 7 0 0 0-0.54688 1.3164h-0.013672-1.0352c-0.17062 0.65304-0.2579 1.325-0.25977 2 4e-3 0.67521 0.093005 1.3472 0.26562 2h1.0332 0.011719a7 7 0 0 0 0.54492 1.3164l-0.74023 0.74024c0.68805 1.167 1.6612 2.1401 2.8281 2.8281l0.74023-0.74024a7 7 0 0 0 1.3164 0.54688v0.30859 0.74023c0.65304 0.17062 1.325 0.2579 2 0.25977 0.335-2e-3 0.66853-0.026613 1-0.070312v-1.0059c-0.33045 0.0488-0.66509 0.074972-1 0.076172-0.33545-5e-4 -0.66894-0.025919-1-0.074219v-0.003906-0.92188-0.089844a6 6 0 0 1-2.4727-1.0234l-0.71289 0.71289-0.0039062 0.003907c-0.5363-0.40205-1.0114-0.87868-1.4121-1.416l0.0019531-0.001953 0.71484-0.71484a6 6 0 0 1-1.0293-2.4707h-0.085938-0.91992-0.0039062c-0.0488-0.33045-0.074972-0.66509-0.076172-1 5e-4 -0.33545 0.025919-0.66894 0.074219-1h0.0039062 0.92188 0.089844a6 6 0 0 1 1.0234-2.4727l-0.7168-0.7168c0.40207-0.5363 0.87868-1.0114 1.416-1.4121l0.7168 0.7168a6 6 0 0 1 2.4707-1.0293v-0.085938-0.91992-0.0039062c0.33044-0.0488 0.66509-0.074972 1-0.076172 0.33545 5e-4 0.66894 0.025919 1 0.074219v0.0039062 0.92188 0.089844a6 6 0 0 1 2.4727 1.0234l0.71289-0.71289 0.003906-0.0039062c0.53631 0.40206 1.0114 0.87868 1.4121 1.416l-0.001953 0.0019531-0.71484 0.71484a6 6 0 0 1 1.0293 2.4707h0.085938 0.91992 0.003906c0.0488 0.33045 0.074972 0.66509 0.076172 1-4.9e-4 0.33545-0.025919 0.66894-0.074219 1h1.0078c0.042732-0.33146 0.065478-0.66512 0.066406-1-4e-3 -0.6752-0.092995-1.3472-0.26562-2h-0.73438-0.31055a7 7 0 0 0-0.54492-1.3164l0.007813-0.0078126 0.73242-0.73242c-0.68803-1.167-1.6612-2.1401-2.8281-2.8281l-0.72852 0.72852-0.011719 0.011719a7 7 0 0 0-1.3164-0.54688v-0.013672-1.0352c-0.65304-0.17062-1.325-0.2579-2-0.25977zm-2 5v6l5-3-5-3zm7 5v4.293l-2.293-2.293-0.70703 0.70703 3.5 3.5 3.5-3.5-0.70703-0.70703-2.293 2.293v-4.293h-1z" fill="currentColor"/>
</svg>
