<svg viewBox="0 0 24 24" xmlns="http://www.w3.org/2000/svg">
 <defs>
  <style id="current-color-scheme" type="text/css">
   .ColorScheme-Text { color:#2e3440; } .ColorScheme-Highlight { color:#88c0d0; } .ColorScheme-NeutralText { color:#d08770; } .ColorScheme-PositiveText { color:#a3be8c; } .ColorScheme-NegativeText { color:#bf616a; }
  </style>
 </defs>
 <path class="ColorScheme-Text" d="m17 5v0.99805a11.56 11 0 0 0-0.11328 0v0.0019531a11.56 11 0 0 0-11.387 10h1.0469a10.509 10 0 0 1 10.35-9 10.509 10 0 0 1 0.10352 0v1h3v-3h-3zm1 1h1v1h-1v-1z" fill="currentColor"/>
 <path class="ColorScheme-Highlight" d="m5.9805 4a2 2 0 0 0-1.9805 2.0137 2 2 0 0 0 1.5 1.9219v2.0645h1v-2.0664a2 2 0 0 0 1.5-1.9336v-0.025391a2 2 0 0 0-2.0195-1.9746zm0.0097656 1a1 1 0 0 1 1.0098 0.98633v0.013672a1 1 0 0 1-0.99609 1 1 1 0 0 1-1.0039-0.99414 1 1 0 0 1 0.99023-1.0059zm-0.49023 6v1h1v-1h-1zm-1.5 5v4h4v-4h-4zm1 1h2v2h-2v-2z" fill="currentColor"/>
</svg>
