<svg viewBox="0 0 24 24" xmlns="http://www.w3.org/2000/svg">
 <defs>
  <style type="text/css">.ColorScheme-Text {
        color:#2e3440;
      }
      .ColorScheme-Highlight {
        color:#88c0d0;
      }</style>
 </defs>
 <g transform="translate(1,1)">
  <path class="ColorScheme-Text" d="m4 3v6 1 5 1 1h-1v1h1v1h1v-1h13.293 0.70703v-0.70703-0.29297h-0.29297-1.4141-12.293v-1.5684-0.007813-0.42383-2.5762-1-0.42383-1-1-3-0.0078125-0.99219-2h-1zm11.049 1.2305a2.2186 2.2186 0 0 0-2.2188 2.2188 2.2186 2.2186 0 0 0 2.2188 2.2188 2.2186 2.2186 0 0 0 2.2188-2.2188 2.2186 2.2186 0 0 0-2.2188-2.2188zm-7.0547 3.5332a0.80636 0.80636 0 0 0-0.80664 0.80664 0.80636 0.80636 0 0 0 0.80664 0.80664 0.80636 0.80636 0 0 0 0.80469-0.80664 0.80636 0.80636 0 0 0-0.80469-0.80664zm3.9102 3.4063a1.4709 1.4709 0 0 0-1.4707 1.4707 1.4709 1.4709 0 0 0 1.4707 1.4707 1.4709 1.4709 0 0 0 1.4707-1.4707 1.4709 1.4709 0 0 0-1.4707-1.4707z" fill="currentColor"/>
 </g>
</svg>
