<svg version="1.1" viewBox="0 0 24 24" xmlns="http://www.w3.org/2000/svg">
 <defs>
  <style id="current-color-scheme" type="text/css">
   .ColorScheme-Text { color:#2e3440; } .ColorScheme-Highlight { color:#88c0d0; } .ColorScheme-NeutralText { color:#d08770; } .ColorScheme-PositiveText { color:#a3be8c; } .ColorScheme-NegativeText { color:#bf616a; }
  </style>
 </defs>
 <g transform="translate(1,1)" fill="currentColor">
  <path class="ColorScheme-Text" d="m10.579 18.141c-3.0576-0.1348-5.7661-2.2568-6.6092-5.1782-0.21638-0.74973-0.28347-1.3007-0.2626-2.1567 0.027544-1.1295 0.25301-2.0201 0.7625-3.0116 1.2102-2.3553 3.5579-3.8374 6.2497-3.9454 1.4124-0.056679 2.8385 0.3126 4.0855 1.0579 0.85747 0.51247 1.7874 1.4113 2.329 2.2512 0.53955 0.83663 0.90191 1.7893 1.0599 2.7865 0.08218 0.51879 0.08919 1.5469 0.01382 2.026-0.25609 1.6282-0.93921 2.9708-2.0828 4.0935-1.081 1.0612-2.427 1.7408-3.9593 1.999-0.418 0.07042-1.0514 0.10155-1.5865 0.07796z" fill-opacity=".5"/>
  <path class="ColorScheme-Text" d="m11 3c-4.4183 0-8 3.5817-8 8s3.5817 8 8 8 8-3.5817 8-8-3.5817-8-8-8zm0 1a7 7 0 0 1 7 7 7 7 0 0 1-7 7 7 7 0 0 1-7-7 7 7 0 0 1 7-7zm-3 3.0371c-0.24063 0-0.28572 0.00835-0.42383 0.076172-0.19674 0.096612-0.37214 0.27201-0.46875 0.46875-0.06701 0.13646-0.07617 0.18428-0.07617 0.41016 0 0.21995 0.0093 0.27613 0.07031 0.40625 0.12824 0.2735 0.36081 0.4753 0.64062 0.55469 0.07193 0.020407 0.20442 0.030031 0.31836 0.023437 0.36172-0.02093 0.65779-0.22066 0.82031-0.55078 0.08009-0.16269 0.08789-0.19896 0.08789-0.43359 0-0.2265-0.0091-0.27362-0.07617-0.41016-0.09661-0.19674-0.27201-0.37214-0.46875-0.46875-0.13811-0.067819-0.1832-0.076172-0.42383-0.076172zm6 0c-0.24063 0-0.28572 0.00835-0.42383 0.076172-0.19674 0.096612-0.37214 0.27201-0.46875 0.46875-0.06703 0.13646-0.07617 0.18428-0.07617 0.41016 0 0.21995 0.0093 0.27613 0.07031 0.40625 0.12824 0.2735 0.36081 0.4753 0.64063 0.55469 0.07193 0.020406 0.20442 0.030027 0.31836 0.023437 0.36172-0.02093 0.65779-0.22066 0.82031-0.55078 0.08014-0.16269 0.08789-0.19896 0.08789-0.43359 0-0.2265-0.0091-0.27362-0.07617-0.41016-0.09661-0.19674-0.27201-0.37214-0.46875-0.46875-0.13811-0.067819-0.1832-0.076172-0.42383-0.076172zm-6.8223 5.9863 0.01758 0.07422c0.0098 0.04069 0.05244 0.16616 0.09375 0.2793 0.49396 1.3531 1.6968 2.345 3.1055 2.5625 1.0312 0.15921 2.1418-0.11495 2.959-0.73242 0.35196-0.26593 0.74278-0.68907 0.98828-1.0703 0.16293-0.25302 0.40294-0.79086 0.46289-1.0391l0.01758-0.07422h-3.8223z"/>
 </g>
</svg>
