<svg viewBox="0 0 24 24" xmlns="http://www.w3.org/2000/svg">
 <defs>
  <style type="text/css">.ColorScheme-Text {
        color:#2e3440;
      }
      .ColorScheme-Highlight {
        color:#88c0d0;
      }</style>
 </defs>
 <path class="ColorScheme-Text" d="m4 4v3h1v1h1v-1h1v-1h1v-1h-1v-1h-3zm13 0v1h-1v1h1v1h1v1h1v-1h1v-3h-3zm-12 1h1v1h-1v-1zm5 0v1h1v-1h-1zm3 0v1h1v-1h-1zm5 0h1v1h-1v-1zm-13 5v1h1v-1h-1zm0 3v1h1v-1h-1zm0 3v1h-1v3h3v-1h1v-1h-1v-1h-1v-1h-1zm13 0v1h-1v1h-1v1h1v1h3v-3h-1v-1h-1zm-13 2h1v1h-1v-1zm5 0v1h1v-1h-1zm3 0v1h1v-1h-1zm5 0h1v1h-1v-1z" fill="currentColor"/>
 <path class="ColorScheme-Highlight" d="m16 10v4h4v-4h-4zm1 1h2v2h-2v-2z" fill="currentColor"/>
</svg>
