<svg viewBox="0 0 24 24" xmlns="http://www.w3.org/2000/svg">
 <defs>
  <style id="current-color-scheme" type="text/css">
   .ColorScheme-Text { color:#2e3440; } .ColorScheme-Highlight { color:#88c0d0; } .ColorScheme-NeutralText { color:#d08770; } .ColorScheme-PositiveText { color:#a3be8c; } .ColorScheme-NegativeText { color:#bf616a; }
  </style>
 </defs>
 <g transform="translate(1,1)">
  <path class="ColorScheme-Text" d="m11.516 6-5.1953 9.002-2.3164-4.0059h-0.00391s-2.9909 0.066-3 0v1h2.416l2.9062 5s5.7825-9.9915 5.7715-10h7.9063v1h1v-2h-9.4844zm3.4844 3c-2.2091 0-4 1.7909-4 4s1.7909 4 4 4c1.1491 0 2.242-0.4977 3-1.3613v1.3613h1v-8h-1v1.3613c-0.75804-0.8636-1.8509-1.3595-3-1.3613zm0 1c1.6569 0 3 1.3431 3 3s-1.3431 3-3 3-3-1.3431-3-3 1.3431-3 3-3z" fill="currentColor"/>
 </g>
</svg>
