<svg viewBox="0 0 24 24" xmlns="http://www.w3.org/2000/svg">
 <defs>
  <style id="current-color-scheme" type="text/css">
   .ColorScheme-Text { color:#2e3440; } .ColorScheme-Highlight { color:#88c0d0; } .ColorScheme-NeutralText { color:#d08770; } .ColorScheme-PositiveText { color:#a3be8c; } .ColorScheme-NegativeText { color:#bf616a; }
  </style>
 </defs>
 <g transform="translate(1,1)">
  <path class="ColorScheme-Text" d="m10.957 2.9785c-2.6661 0.025302-5.3181 0.7241-7.957 2.0215 3.1065 5.0028 2.0484 8.2283 0 12 5.6105 2.9796 10.967 2.3449 16 0-2.5076-3.8798-2.7218-7.2028 0-12-2.6968-1.3986-5.3769-2.0468-8.043-2.0215zm-0.24219 1.0137c0.87872-0.025056 1.7727 0.049122 2.6816 0.21094-0.2896 1.1649-0.51522 2.3265-0.66406 3.4844-0.43748-0.039667-0.87787-0.071319-1.3281-0.082031-0.70804-0.016846-1.4385 0.021039-2.1816 0.085937-0.14701-1.1449-0.36981-2.2936-0.6543-3.4453 0.70974-0.13222 1.4231-0.23327 2.1465-0.25391zm3.6582 0.42773c1.0703 0.26317 2.1598 0.63442 3.2754 1.1348-0.49032 0.94395-0.85748 1.8909-1.1055 2.834-0.91613-0.24144-1.8514-0.44523-2.8184-0.58008 0.14528-1.1231 0.36491-2.2532 0.64844-3.3887zm-6.7852 0.025391c0.27878 1.1203 0.49646 2.2354 0.64062 3.3438-0.88871 0.12304-1.8124 0.32707-2.7578 0.58789-0.26108-0.89486-0.63755-1.8319-1.1426-2.8125 1.0807-0.46173 2.1649-0.84412 3.2598-1.1191zm3.4219 4.1582c0.55032-4.859e-4 1.0893 0.02399 1.6191 0.072266-0.14766 1.5908-0.15745 3.1743-0.021484 4.748-1.0458 0.094124-2.1306 0.095681-3.2578-0.001953 0.13558-1.5717 0.12381-3.1534-0.023438-4.7422 0.57164-0.050238 1.1333-0.075686 1.6836-0.076172zm-2.6777 0.17773c0.14153 1.5243 0.15243 3.0378 0.023438 4.541-0.85181-0.11986-1.7386-0.3185-2.6504-0.57227 0.055724-0.27553 0.11633-0.54769 0.14844-0.83789 0.088469-0.79953 0.035329-1.6572-0.14453-2.5625 0.90204-0.25075 1.7797-0.44864 2.623-0.56836zm5.2891 0.017578c0.92955 0.13289 1.8328 0.33243 2.7227 0.57031-0.19614 1.136-0.21411 2.263-0.042969 3.373-0.88357 0.23414-1.7804 0.42972-2.7031 0.56055-0.12689-1.4913-0.11594-2.9918 0.023438-4.5039zm-8.1582 4.918c0.95543 0.26466 1.8877 0.47395 2.7852 0.59766-0.13648 1.0683-0.35555 2.1311-0.64062 3.1895-1.1145-0.25163-2.1929-0.60771-3.25-1.0547 0.41722-0.86093 0.81221-1.7617 1.1055-2.7324zm11.027 0.005859c0.23613 0.92058 0.59991 1.826 1.1035 2.7109-1.1397 0.47214-2.2188 0.8098-3.252 1.0449-0.28297-1.057-0.49937-2.1187-0.63477-3.1855 0.95482-0.13267 1.8781-0.33367 2.7832-0.57031zm-7.25 0.6875c1.2025 0.10433 2.3605 0.10222 3.4746 0.001953 0.13752 1.0882 0.35772 2.1703 0.64258 3.248-1.7004 0.28065-3.2773 0.27231-4.7695 0.035156 0.28976-1.0898 0.51338-2.1849 0.65234-3.2852z" fill="currentColor"/>
 </g>
</svg>
