<svg viewBox="0 0 24 24" xmlns="http://www.w3.org/2000/svg">
 <defs>
  <style id="current-color-scheme" type="text/css">
   .ColorScheme-Text { color:#2e3440; } .ColorScheme-Highlight { color:#88c0d0; } .ColorScheme-NeutralText { color:#d08770; } .ColorScheme-PositiveText { color:#a3be8c; } .ColorScheme-NegativeText { color:#bf616a; }
  </style>
 </defs>
 <path class="ColorScheme-Text" d="m12 4c-2.77 0-5 2.23-5 5v11h4v-10.999989c0-0.554 0.446-1 1-1s1 0.446 1 1v10.999999h4v-11c0-2.77-2.23-5-5-5zm0 1c2.216 0 4 1.784 4 4v10h-2.00002v-9.99999c0-1.108-0.892-2-2-2s-2 0.892-2 2v10h-2v-10c0-2.216 1.784-4 4-4z" fill="currentColor"/>
</svg>
