<svg viewBox="0 0 24 24" xmlns="http://www.w3.org/2000/svg">
 <defs>
  <style type="text/css">.ColorScheme-Text {
        color:#2e3440;
      }</style>
 </defs>
 <path class="ColorScheme-Text" d="m12 4c-2.77 0-5 2.23-5 5v6 5h1 3v-0.099609-0.17578-1.7246-8-1c0-0.554 0.446-1 1-1s1 0.446 1 1v9 1 0.72461 0.17578 0.099609h1 2 1v-1-9-1c0-2.77-2.23-5-5-5zm0 1c2.216 0 4 1.784 4 4v6 2.9824 1.0176h-1.0215-0.97852v-0.55859-8.4414-1c0-1.108-0.892-2-2-2s-2 0.892-2 2v9 1h-2v-1.0176-2.9824-5-1c0-2.216 1.784-4 4-4z" fill="currentColor"/>
</svg>
