<svg viewBox="0 0 24 24" xmlns="http://www.w3.org/2000/svg">
 <defs>
  <style type="text/css">.ColorScheme-Text {
        color:#2e3440;
      }</style>
 </defs>
 <path class="ColorScheme-Text" d="m10.242 4-4.2422 4.2422 0.0078125 0.0078125h-0.0078125v2.75 9h1 3v-1-8.3438l2.6562-2.6562h4.3438 1v-1-2-1h-1-5.0098-1.7461-0.001953zm0.41406 1h1.334 5.0098v2h-4-0.75391-0.003906l-3.2422 3.2422v0.001953 8.7559h-2v-10.344l3.6562-3.6562zm1.3438 5v1 9h1 3v-1-5h1 1v-1-2-1h-1-1-3-1zm1 1h3 1v2h-1-1v1 5h-2v-8z" fill="currentColor"/>
</svg>
