<svg viewBox="0 0 24 24" xmlns="http://www.w3.org/2000/svg">
 <defs>
  <style id="current-color-scheme" type="text/css">
   .ColorScheme-Text { color:#2e3440; } .ColorScheme-Highlight { color:#88c0d0; } .ColorScheme-NeutralText { color:#d08770; } .ColorScheme-PositiveText { color:#a3be8c; } .ColorScheme-NegativeText { color:#bf616a; }
  </style>
 </defs>
 <g transform="translate(1,1)">
  <path class="ColorScheme-Text" d="m10.294 20.038c-0.68669-1.0691-0.93295-1.241-1.244-0.8684-0.11604 0.13901-0.2737 0.25275-0.35035 0.25275-0.076652 0-0.51088-0.51762-0.96494-1.1503-0.90074-1.255-1.3391-1.4045-1.5081-0.51441-0.094019 0.49508-0.14102 0.44332-0.84549-0.93103-0.41026-0.80039-0.86746-1.5016-1.016-1.5583-0.14854-0.05667-0.4738-0.01078-0.7228 0.10204-0.249 0.1128-0.49262 0.16542-0.54138 0.11695-0.048759-0.04848 0.083437-0.77031 0.29376-1.6041 0.45533-1.805 0.35836-2.0639-0.70951-1.8941-0.52571 0.08358-0.68528 0.05096-0.68528-0.14014 0-0.137 0.50907-1.1081 1.1313-2.158 1.0637-1.7949 1.1156-1.9327 0.86953-2.3061-0.64217-0.97443 0.3132-2.1744 1.7312-2.1744 0.37388 0 0.67979-0.047822 0.67979-0.10627 0-0.058444-0.19853-0.34084-0.44118-0.62755s-0.44118-0.58457-0.44118-0.66191c0-0.077344 0.52193-0.043111 1.1599 0.076078l1.1599 0.2167-0.10955-0.434c-0.060258-0.2387-0.15502-0.65999-0.21058-0.93621l-0.10103-0.50222 2.225 0.8989 0.31229-0.40926c0.17176-0.2251 0.4472-0.70534 0.61208-1.0672 0.16489-0.36188 0.35508-0.65795 0.42266-0.65795s0.25778 0.29608 0.42266 0.65795c0.16489 0.36187 0.44032 0.84212 0.61208 1.0672l0.31229 0.40926 2.225-0.8989-0.10103 0.50222c-0.05556 0.27622-0.15145 0.70196-0.21307 0.94609-0.12164 0.48187-0.17734 0.48092 1.8156 0.030945 0.54346-0.12271 0.49804 0.14138-0.15063 0.87593l-0.54769 0.6202h0.7863c1.5253 0 2.506 1.1604 1.8377 2.1744-0.24609 0.37342-0.19412 0.51124 0.86953 2.3061 0.6222 1.0499 1.1313 2.021 1.1313 2.158 0 0.19109-0.15956 0.22372-0.68528 0.14014-1.0679-0.16978-1.1648 0.08911-0.70951 1.8941 0.21032 0.83376 0.34251 1.5556 0.29375 1.6041-0.04876 0.04848-0.29238-0.0041-0.54138-0.11695-0.249-0.1128-0.57426-0.15872-0.7228-0.10204-0.14854 0.05667-0.60574 0.7579-1.016 1.5583-0.70446 1.3744-0.75146 1.4261-0.84549 0.93103-0.16904-0.89011-0.60739-0.74059-1.5081 0.51441-0.45406 0.63264-0.88828 1.1503-0.96494 1.1503-0.07665 0-0.23432-0.11374-0.35035-0.25275-0.31106-0.37264-0.55731-0.20074-1.244 0.8684-0.3397 0.5289-0.65735 0.96164-0.70588 0.96164-0.04854 0-0.36618-0.43274-0.70588-0.96164zm2.1959-3.462c0.4374-0.62089 0.35392-1.0137-0.21544-1.0137-0.26958 0-0.66664-0.12291-0.88235-0.27313-0.35498-0.24721-0.42944-0.24721-0.78441 0-0.21571 0.15022-0.61277 0.27313-0.88235 0.27313-0.56936 0-0.65284 0.3928-0.21544 1.0137 0.23866 0.33877 0.43421 0.38995 1.49 0.38995 1.0558 0 1.2513-0.05118 1.49-0.38995zm-2.3648-1.5441c0.18551-0.09871 0.41882-0.33094 0.51847-0.51606 0.15147-0.28139 0.09302-0.38836-0.35651-0.65237-0.40713-0.23911-0.52513-0.42268-0.48596-0.75599 0.0493-0.41954 0.10558-0.4402 1.1988-0.4402 1.0988 0 1.1493 0.01886 1.1996 0.44838 0.0388 0.33122-0.06494 0.51088-0.39706 0.6876-0.55394 0.29476-0.57809 0.77236-0.05737 1.135 0.60264 0.41967 0.92224 0.33173 1.3871-0.38166 0.23464-0.36014 0.76468-0.84008 1.1779-1.0665 0.41318-0.22646 0.83723-0.57152 0.94234-0.76678 0.32077-0.59591 0.53779-2.5758 0.32556-2.9701-0.10352-0.19232-1.0333-1.0168-2.0662-1.8321-2.4935-1.9683-2.5089-1.9683-5.0152 5.089e-4 -1.0372 0.81475-1.9707 1.6388-2.0743 1.8313-0.21442 0.39834 0.0057 2.3764 0.33187 2.9824 0.10866 0.20187 0.4533 0.49551 0.76586 0.65255 0.69629 0.34983 1.3624 0.93897 1.3624 1.205 0 0.52931 0.64504 0.75722 1.2429 0.43912zm-1.2429-4.1923c0-0.10454-0.15342-0.19008-0.34092-0.19008-0.34649 0-1.1941-0.98863-1.0071-1.1746 0.056246-0.055922 0.48182 0.0532 0.94572 0.24249 0.66837 0.27271 0.84347 0.42947 0.84347 0.7551 0 0.22602-0.09926 0.44384-0.22059 0.48405-0.12132 0.04021-0.22059-0.01243-0.22059-0.11697zm3.7697-0.10234c-0.05586-0.14475-0.06115-0.36794-0.01174-0.49597 0.09947-0.25774 1.6773-0.9135 1.8308-0.7609 0.18302 0.18196-0.67196 1.1691-1.0126 1.1691-0.18751 0-0.34092 0.07896-0.34092 0.17546 0 0.27276-0.35207 0.20642-0.4656-0.08773zm-6.2403-2.7222c0.18761-0.12245 0.20641-0.21109 0.064527-0.30436-0.1101-0.072378-0.22992-0.28752-0.26627-0.47809-0.082452-0.43227-0.76514-0.78797-1.5189-0.79137-0.74866-0.0033333-0.74266 0.32049 0.020842 1.1254 0.60193 0.63456 1.1807 0.78724 1.6998 0.44844zm10.876-0.44844c0.7635-0.80488 0.76949-1.1288 0.02084-1.1254-0.75372 0.00344-1.4364 0.3591-1.5188 0.79137-0.03635 0.19058-0.15618 0.40572-0.26627 0.47809-0.14188 0.093267-0.12308 0.18191 0.06453 0.30436 0.5191 0.3388 1.0978 0.18612 1.6998-0.44844zm-10.105-1.1028c0.26097-0.28671 0.26508-0.35169 0.034275-0.54214-0.3951-0.32601-1.5318-0.41804-2.129-0.17237l-0.52941 0.21776 0.64929 0.11843c0.35711 0.065133 0.83358 0.24606 1.0588 0.40205 0.52707 0.36501 0.56305 0.36408 0.91605-0.023733zm8.5149 0.0325c0.24759-0.16129 0.74112-0.34635 1.0967-0.41125l0.64657-0.11799-0.52941-0.21776c-0.59726-0.24567-1.7339-0.15364-2.129 0.17237-0.23081 0.19045-0.2267 0.25543 0.03428 0.54214 0.35944 0.39489 0.32643 0.39367 0.88085 0.0325z" fill="currentColor"/>
 </g>
</svg>
