<svg version="1.1" viewBox="0 0 24 24" xmlns="http://www.w3.org/2000/svg">
 <defs>
  <style id="current-color-scheme" type="text/css">
   .ColorScheme-Text { color:#2e3440; } .ColorScheme-Highlight { color:#88c0d0; } .ColorScheme-NeutralText { color:#d08770; } .ColorScheme-PositiveText { color:#a3be8c; } .ColorScheme-NegativeText { color:#bf616a; }
  </style>
 </defs>
 <g transform="translate(1,1)" fill="currentColor">
  <path class="ColorScheme-Text" d="m6.0234 4.9941v4h-1v-2h-1v2h-1v1h6.8613l1.1387-1.1387v-1.8613h-1v2h-1v-2h-1v2h-1v-4h-1zm6 2v0.86133l0.86133-0.86133h-0.86133zm5.9766 0.0058594v1.9941h-0.97656v-1.8965l-1 1v0.89648h-0.89648l-1 1h4.8965v-1h-0.02344l2e-6 -1.9941h-1zm-11 4-3 3 0.93945 0.93945 2.0605-2.0605v-1.8789zm8 0v6l3-3-3-3z"/>
  <path class="ColorScheme-Text" d="m18.271 2.9992-15.293 15.293 0.70703 0.707 15.293-15.293-0.70703-0.707z"/>
  <path class="ColorScheme-Text" d="m18 11h1v6h-1zm-15 0v5.8574l1-1v-4.8574h-1z"/>
 </g>
</svg>
