<svg viewBox="0 0 24 24" xmlns="http://www.w3.org/2000/svg">
 <defs>
  <style id="current-color-scheme" type="text/css">
   .ColorScheme-Text { color:#2e3440; } .ColorScheme-Highlight { color:#88c0d0; } .ColorScheme-NeutralText { color:#d08770; } .ColorScheme-PositiveText { color:#a3be8c; } .ColorScheme-NegativeText { color:#bf616a; }
  </style>
 </defs>
 <path class="ColorScheme-Text" d="m4 4v16h16v-16h-16zm1 1h14v14h-14v-14zm1 1v1h1v-1h-1zm1 1v2h2v-2h-2zm2 0h1v-1h-1v1zm0 2v1h1v-1h-1zm-2 0h-1v1h1v-1zm7-3v1h1v-1h-1zm1 1v2h2v-2h-2zm2 0h1v-1h-1v1zm0 2v1h1v-1h-1zm-2 0h-1v1h1v-1zm-5 3v2h4v-2h-4zm4 2v2h2v-2h-2zm2 2v2h2v-2h-2zm-6-2h-2v2h2v-2zm-2 2h-2v2h2v-2z" fill="currentColor"/>
</svg>
