<svg viewBox="0 0 24 24" xmlns="http://www.w3.org/2000/svg">
 <defs>
  <style id="current-color-scheme" type="text/css">
   .ColorScheme-Text { color:#2e3440; } .ColorScheme-Highlight { color:#88c0d0; } .ColorScheme-NeutralText { color:#d08770; } .ColorScheme-PositiveText { color:#a3be8c; } .ColorScheme-NegativeText { color:#bf616a; }
  </style>
 </defs>
 <g transform="translate(1,1)">
  <path class="ColorScheme-Text" d="m14.127 3.0039c-0.62141 0.037677-1.0466 0.42782-1.3457 0.91065-0.32635-1.1865-2.639-1.2608-3.1016 0.42105-0.36347-0.39134-0.82748-0.66232-1.4121-0.62081h-0.023437c-1.0691 0.093624-1.8257 1.0338-1.6426 2.0641l0.91211 5.3111c-0.34525-0.23694-0.76439-0.64312-1.0723-0.77748-0.71349-0.31144-1.3665-0.35054-1.8926-0.19976-1.0521 0.30142-1.3672 1.2867-1.3672 1.2867l-0.18164 0.51114 0.45508 0.31138c1.0045 0.6607 2.0236 2.2623 2.9863 3.7542 0.48139 0.74593 0.96089 1.4511 1.5059 2.0211 0.54498 0.56999 1.1629 1.0079 1.9941 1.0027h0.013672c2.3334-0.0012 4.6666 2.29e-4 7 0h0.18164l0.02344-0.66781s0.06423-1.2406 0.18164-2.7104c0.11744-1.4698 0.29942-3.1842 0.50196-3.9775l1.0957-4.2869c0.31565-1.1778-0.64646-2.3109-1.8926-2.2208-0.38244 0.021326-0.72026 0.18532-1.0039 0.39951l0.02148-0.64431c0.07137-1.0761-0.83294-1.9574-1.9375-1.8879zm-2.8731 0.70894v0.00196c0.58056-0.035544 1.139 0.45403 1.1621 1.0203l0.27539 4.9097c0.01547 0.27767 0.19231 0.2743 0.20508 0.0235l0.25-4.9332c0.02138-0.52179 0.49036-0.99 1.0254-1.0223 0.61896-0.039099 1.2041 0.53086 1.1641 1.1339l-0.27344 5.3973c-0.0082 0.16215 0.03913 0.24196 0.08984 0.04504l0.93555-3.6211c0.10664-0.44445 0.53617-0.79643 1.0039-0.82252 0.69148-0.049763 1.3158 0.68007 1.1406 1.3337l-1.0957 4.2869c-0.43984 1.7229-0.66173 6.018-0.6875 6.5312l-6.4493 0.00274c-2.1165-0.02144-3.664-4.7521-6.1348-6.3773 0 0 0.89053-2.5557 4.5391 0.99878 0 0 0.025599-0.11876 0.068359-0.28788-0.026707-0.08651-0.043226-0.17809-0.046875-0.2683l-1.0938-6.398c-0.10285-0.57887 0.37992-1.191 0.98047-1.2436 0.54582-0.038388 1.0837 0.38303 1.1621 0.91065l0.79883 4.6649c0.03291 0.19251 0.26481 0.1422 0.25-0.10967l-0.29492-5.0428c-0.03692-0.55854 0.45192-1.1 1.0254-1.1339z" fill="currentColor"/>
 </g>
</svg>
