<svg viewBox="0 0 24 24" xmlns="http://www.w3.org/2000/svg">
 <defs>
  <style id="current-color-scheme" type="text/css">
   .ColorScheme-Text { color:#2e3440; } .ColorScheme-Highlight { color:#88c0d0; } .ColorScheme-NeutralText { color:#d08770; } .ColorScheme-PositiveText { color:#a3be8c; } .ColorScheme-NegativeText { color:#bf616a; }
  </style>
 </defs>
 <g transform="translate(1,1)">
  <path class="ColorScheme-Text" d="m11 3c-4.4183 0-8 1.3431-8 3v10c0 1.6569 3.5817 3 8 3 1.5512-5.46e-4 3.0685-0.17019 4.3672-0.48828l0.51172-0.51172h-5l-0.001953-0.001953c-3.8152-0.019117-6.877-0.90782-6.877-1.998v-3.5488c0.59334 0.39954 1.4224 0.74292 2.4238 1.0039l0.77734-0.77734c-1.9936-0.36802-3.1986-0.9996-3.2012-1.6777v-3.5488c1.4081 0.95541 4.089 1.5486 7 1.5488 2.9143-0.0014182 5.596-0.59702 7-1.5547v3.5547c0 0.34283-0.31169 0.67978-0.90039 0.97852l0.63477 0.63476c0.093379-0.054894 0.18197-0.11091 0.26562-0.16797v0.43359l1 1v-7.8789c-1e-6 -1.6569-3.5817-3-8-3zm0 1c3.866 0 7 0.89543 7 2s-3.134 2-7 2-7-0.89543-7-2 3.134-2 7-2zm0.29297 6-3.5 3.5 3.5 3.5 0.70703-0.70703-2.293-2.293h5.293v-1h-5.293l2.293-2.293-0.70703-0.70703zm5.4141 3-0.70703 0.70703 2.293 2.293h-5.293v1h5.293l-2.293 2.293 0.70703 0.70703 3.5-3.5-3.5-3.5z" fill="currentColor"/>
 </g>
</svg>
