<svg viewBox="0 0 24 24" xmlns="http://www.w3.org/2000/svg">
 <defs>
  <style id="current-color-scheme" type="text/css">
   .ColorScheme-Text { color:#2e3440; } .ColorScheme-Highlight { color:#88c0d0; } .ColorScheme-NeutralText { color:#d08770; } .ColorScheme-PositiveText { color:#a3be8c; } .ColorScheme-NegativeText { color:#bf616a; }
  </style>
 </defs>
 <path class="ColorScheme-Text" d="m7 4s-1-3e-5 -1 1h-2v15h16v-15h-2c0-1-1-1-1-1h-3s-1-3e-5 -1 1h-2c0-1-1-1-1-1h-3zm0 1h3v1h-3v-1zm7 0h3v1h-3v-1zm-9 3h14v11h-14v-11zm5.5 2c-1.939 0-3.5 1.561-3.5 3.5s1.561 3.5 3.5 3.5c0.53961 0 1.0444-0.12941 1.5-0.3457 0.45556 0.21629 0.96039 0.3457 1.5 0.3457 1.939 0 3.5-1.561 3.5-3.5s-1.561-3.5-3.5-3.5c-0.53961 0-1.0444 0.12941-1.5 0.3457-0.45556-0.21629-0.96039-0.3457-1.5-0.3457zm0 1c0.1718 0 0.34007 0.018081 0.50195 0.050781-0.61822 0.63061-1.002 1.4923-1.002 2.4492s0.38373 1.8186 1.002 2.4492c-0.16188 0.0327-0.33015 0.050781-0.50195 0.050781-1.385 0-2.5-1.115-2.5-2.5s1.115-2.5 2.5-2.5zm3 0c1.385 0 2.5 1.115 2.5 2.5s-1.115 2.5-2.5 2.5c-0.1718 0-0.34007-0.018081-0.50195-0.050781 0.61822-0.63061 1.002-1.4923 1.002-2.4492s-0.38373-1.8186-1.002-2.4492c0.16188-0.0327 0.33015-0.050781 0.50195-0.050781zm-1.5 0.50781c0.60499 0.45546 1 1.1732 1 1.9922s-0.39501 1.5367-1 1.9922c-0.60499-0.45546-1-1.1732-1-1.9922s0.39501-1.5367 1-1.9922z" fill="currentColor"/>
</svg>
