<svg viewBox="0 0 24 24" xmlns="http://www.w3.org/2000/svg">
 <defs>
  <style id="current-color-scheme" type="text/css">
   .ColorScheme-Text { color:#2e3440; } .ColorScheme-Highlight { color:#88c0d0; } .ColorScheme-NeutralText { color:#d08770; } .ColorScheme-PositiveText { color:#a3be8c; } .ColorScheme-NegativeText { color:#bf616a; }
  </style>
 </defs>
 <path class="ColorScheme-Text" d="m4 4v16h11v-1h-10v-11h14v5h1v-9h-16zm11.625 1 1.375 0.8125 1.375-0.8125 0.625 0.8125-1.6875 1-0.3125 0.1875-0.3125-0.1875-1.6875-1 0.625-0.8125zm-7.625 4c-1.1046 0-2 0.8954-2 2s0.89543 2 2 2 2-0.8954 2-2-0.89543-2-2-2zm0 1c0.55228 0 1 0.4477 1 1s-0.44772 1-1 1-1-0.4477-1-1 0.44772-1 1-1zm4 1v1h6v-1h-6zm6 2-3 4.084 2-0.083984v3l3-4h-2v-3zm-12 1v4h4v-4h-4zm1 1h2v2h-2v-2zm5 1v1h2v-1h-2z" fill="currentColor"/>
</svg>
