<svg width="24" height="24" version="1.1" viewBox="0 0 24 24" xmlns="http://www.w3.org/2000/svg">
 <style type="text/css">.ColorScheme-Text {
            color:#2e3440;
        }
        .ColorScheme-NegativeText {
            color:#bf616a;
        }</style>
 <g transform="translate(1,1)" fill="currentColor">
  <path class="ColorScheme-Text" d="m5 3v8h-2v1h9v-1h-6v-7h12v8h1v-9h-14zm2 2v1h6v-1h-6zm0 2v1h4v-1h-4zm-4 6v6h9v-6h-9zm14 0-4 4v2h2l4-4-2-2zm-0.31055 1.6895 0.5918 0.5918-2.9688 2.9844v0.015625l-0.59375-0.59375 2.9707-2.998zm-7.6895 0.31055h2v2h-2v-2zm-5 2h1v1h-1v-1zm2 0h1v1h-1v-1z"/>
  <path class="ColorScheme-NegativeText" d="m14 5v1h3v-1z"/>
 </g>
</svg>
