<svg width="24" height="24" viewBox="0 0 24 24" xmlns="http://www.w3.org/2000/svg">
 <defs>
  <style id="current-color-scheme" type="text/css">
   .ColorScheme-Text { color:#2e3440; } .ColorScheme-Highlight { color:#88c0d0; } .ColorScheme-NeutralText { color:#d08770; } .ColorScheme-PositiveText { color:#a3be8c; } .ColorScheme-NegativeText { color:#bf616a; }
  </style>
 </defs>
 <g transform="translate(1,1)">
  <path class="ColorScheme-Text" d="m3 3v3h1v-2h14v5h1v-6h-16zm0 4v12h6v-1h-5v-10h8v1h1v-2h-10zm2 3v1h4v-1h-4zm0 3v1h2v-1h-2zm0 2v1h4v-1h-4z" fill="currentColor"/>
  <path d="m10 10v9h9v-9h-9zm1 1h7v7h-7v-7zm1 1v2h5v-2h-5zm2 3v1h1v-1h-1zm2 0v1h1v-1h-1z" fill="#bf616a"/>
 </g>
</svg>
