<svg viewBox="0 0 24 24" xmlns="http://www.w3.org/2000/svg">
 <defs>
  <style id="current-color-scheme" type="text/css">
   .ColorScheme-Text { color:#2e3440; } .ColorScheme-Highlight { color:#88c0d0; } .ColorScheme-NeutralText { color:#d08770; } .ColorScheme-PositiveText { color:#a3be8c; } .ColorScheme-NegativeText { color:#bf616a; }
  </style>
 </defs>
 <path class="ColorScheme-Text" d="m5 4v2h-1v1h1v1h-1v1h1v6h-1v1h1v1h-1v1h1v2h15v-16h-15zm3 1h11v14h-11v-14zm1 2v2h2v-2h-2zm3 0v1h6v-1h-6zm-3 4v2h2v-2h-2zm3 0v1h6v-1h-6zm-3 4v2h2v-2h-2zm3 0v1h6v-1h-6z" fill="currentColor"/>
</svg>
