<svg width="24" height="24" version="1.1" viewBox="0 0 24 24" xmlns="http://www.w3.org/2000/svg">
 <style type="text/css">.ColorScheme-Text { color: #2e3440; }</style>
 <g transform="translate(1,1)">
  <path class="ColorScheme-Text" d="m15 3c-1.662 0-3 1.338-3 3s1.338 3 3 3 3-1.338 3-3-1.338-3-3-3zm-13 6v1h6v1h1v1h1v4h-1v1h-1v1h-6v1h9v-10h-9zm13 1c-0.64635 0-1.4376 0.20056-2 0.42773l0.45508 0.91406c0.42782-0.16051 1.0594-0.3418 1.5449-0.3418 2.216 0 4 1.784 4 4h-6v1h7v-1c0-2.77-2.23-5-5-5zm-12 1c-0.35234 0-0.68593 0.07201-1 0.18359v1.0938c0.28125-0.1637 0.60155-0.26851 0.94922-0.27734h0.0019531c0.01628-1.99e-4 0.032548-1.99e-4 0.048828 0 1.1046 0 2 0.89543 2 2s-0.89543 2-2 2c-0.36591 0-0.70494-0.10576-1-0.27734v1.0938c0.31407 0.11158 0.64766 0.18359 1 0.18359 1.6569 0 3-1.3431 3-3s-1.3431-3-3-3z" fill="currentColor"/>
 </g>
</svg>
