<svg viewBox="0 0 24 24" xmlns="http://www.w3.org/2000/svg">
 <defs>
  <style type="text/css">.ColorScheme-Text {
        color:#2e3440;
      }
      .ColorScheme-Highlight {
        color:#88c0d0;
      }</style>
 </defs>
 <path class="ColorScheme-Text" d="m4 4v16h11v-1h-10v-11h14v7h1v-11h-2v3h-2v-3h-8v3h-2v-3h-2zm2 5v3h1v-1h4v1h1v-3h-1v1h-4v-1h-1zm4 4v3h1v-1h4v1h1v-3h-1v1h-4v-1h-1zm7 2v2h-2v1h2v2h1v-2h2v-1h-2v-2h-1z" fill="currentColor"/>
 <path class="ColorScheme-Highlight" d="m13 8v11h1v-11h-1z" fill="currentColor"/>
</svg>
