<svg viewBox="0 0 24 24" xmlns="http://www.w3.org/2000/svg">
 <defs>
  <style id="current-color-scheme" type="text/css">
   .ColorScheme-Text { color:#2e3440; } .ColorScheme-Highlight { color:#88c0d0; } .ColorScheme-NeutralText { color:#d08770; } .ColorScheme-PositiveText { color:#a3be8c; } .ColorScheme-NegativeText { color:#bf616a; }
  </style>
 </defs>
 <path class="ColorScheme-Text" d="m4 4v16h9v-1h-8v-11h14v6h1v-10h-2v3h-2v-3h-8v3h-2v-3h-2zm2 5v3h1v-1h4v1h1v-3h-1v1h-4v-1h-1zm2 4v3h1v-1h4v1h1v-3h-1v1h-4v-1h-1zm10 1-4 4v2h2l4-4-2-2zm-0.31055 1.6895 0.5918 0.5918-1.6875 1.6875v0.015625l-1.2812 1.2969-0.59375-0.59375 2.9707-2.998z" fill="currentColor"/>
</svg>
