<svg width="24" height="24" version="1.1" viewBox="0 0 24 24" xmlns="http://www.w3.org/2000/svg">
 <style type="text/css">.ColorScheme-Text { color: #2e3440; }.ColorScheme-NegativeText { color: #bf616a; }</style>
 <g transform="translate(1,1)" fill="currentColor">
  <path class="ColorScheme-Text" d="m15 3c-1.662 0-3 1.338-3 3s1.338 3 3 3 3-1.338 3-3-1.338-3-3-3zm-13 6v1h5.8789l-1-1zm13 1c-0.64635 0-1.4376 0.20056-2 0.42773l0.44727 0.89844 0.01367 0.01367c0.42773-0.16003 1.0555-0.33984 1.5391-0.33984 2.216 0 4 1.784 4 4h-1.8789l1 1h1.8789v-1c0-2.77-2.23-5-5-5zm-12 1c-0.35234 0-0.68593 0.07201-1 0.18359v1.0938c0.28125-0.1637 0.60155-0.26851 0.94922-0.27734h0.00195c0.016283-1.99e-4 0.032551-1.99e-4 0.048831 0 1.1046 0 2 0.89543 2 2s-0.89543 2-2 2c-0.36591 0-0.70494-0.10576-1-0.27734v1.0938c0.31407 0.11158 0.64766 0.18359 1 0.18359 1.6569 0 3-1.3431 3-3s-1.3431-3-3-3zm7 1.1211v3.8789h-1v1h-1v1h-6v1h9v-5.8789zm3 3v0.87891h0.87891z"/>
  <path class="ColorScheme-NegativeText" d="m3.707 3-0.70703 0.70703 15.293 15.293 0.70703-0.70703z"/>
 </g>
</svg>
