<svg width="24" height="24" version="1.1" viewBox="0 0 24 24" xmlns="http://www.w3.org/2000/svg">
 <style type="text/css">.ColorScheme-Text { color: #2e3440; }.ColorScheme-PositiveText { color: #a3be8c; }</style>
 <g transform="translate(1,1)" fill="currentColor">
  <path class="ColorScheme-PositiveText" d="m18.293 3.4238-3.166 3.166-2.127-2.125-2e-3 0.00195-2e-3 -0.00195-4.5351 4.5352-3.4609-4e-7v1h3.875l4.123-4.123 2.123 2.123 0.0059-0.00391 0.0039 0.00391 3.8691-3.8691z"/>
  <path class="ColorScheme-Text" d="m4 3v14h-1v1h1v1h1v-1h14v-1h-0.29297l-3.5762-3.5762-0.0039 0.0039-0.0059-0.0039-2.123 2.123-4.123-4.123h-3.875v-8.4238zm1 9.4238h3.4609l4.5352 4.5352 2e-3 -2e-3 2e-3 2e-3 2.127-2.125 2.125 2.125 0.040922 0.041016h-12.293z"/>
 </g>
</svg>
