<svg width="24" height="24" version="1.1" viewBox="0 0 24 24" xmlns="http://www.w3.org/2000/svg">
 <style type="text/css">.ColorScheme-Text {
            color:#2e3440;
        }
        .ColorScheme-NegativeText {
            color:#bf616a;
        }</style>
 <g transform="translate(1,1)" fill="currentColor">
  <path class="ColorScheme-Text" d="m4 3v16h7v-1h-6v-14h12v8h1v-9zm2 3v1h7v-1zm0 2v1h7v-1zm0 2v1h7v-1zm8.9492 3a3 3 0 0 0-2.9492 3 3 3 0 0 0 3 3 3 3 0 0 0 3-3 3 3 0 0 0-3-3 3 3 0 0 0-0.050781 0zm0 1a2 2 0 0 1 0.001953 0 2 2 0 0 1 0.048828 0 2 2 0 0 1 2 2h-2v2a2 2 0 0 1-2-2 2 2 0 0 1 1.9492-2z"/>
  <path class="ColorScheme-NegativeText" d="m14 6v1h2v-1zm0 2v1h2v-1zm0 2v1h2v-1z"/>
 </g>
</svg>
