<svg viewBox="0 0 24 24" xmlns="http://www.w3.org/2000/svg">
 <defs>
  <style id="current-color-scheme" type="text/css">
   .ColorScheme-Text { color:#2e3440; } .ColorScheme-Highlight { color:#88c0d0; } .ColorScheme-NeutralText { color:#d08770; } .ColorScheme-PositiveText { color:#a3be8c; } .ColorScheme-NegativeText { color:#bf616a; }
  </style>
 </defs>
 <path class="ColorScheme-Text" d="m4.707 4c0.45337 0.0923 0.79297 0.49123 0.79297 0.97266 0 0.2888-0.12485 0.54547-0.32031 0.72656-0.10939-0.12959-0.17578-0.29485-0.17578-0.47852 0-0.04036 0.0017198-0.078186 0.011719-0.11719-0.30271 0.16985-0.50781 0.48822-0.50781 0.86133 0 0.55029 0.4419 0.99414 0.99219 0.99414 0.55008 0 0.99414-0.44385 0.99414-0.99414-2e-7 -1.0315-0.78312-1.8635-1.7871-1.9648zm4 0c0.45337 0.0923 0.79297 0.49123 0.79297 0.97266 0 0.2888-0.12485 0.54547-0.32031 0.72656-0.10939-0.12959-0.17578-0.29485-0.17578-0.47852 0-0.04036 0.0017198-0.078186 0.011719-0.11719-0.30271 0.16985-0.50781 0.48822-0.50781 0.86133 0 0.55029 0.4419 0.99414 0.99219 0.99414 0.55008 0 0.99414-0.44385 0.99414-0.99414 0-1.0315-0.78312-1.8635-1.7871-1.9648zm5 0c0.45337 0.0923 0.79297 0.49123 0.79297 0.97266 0 0.2888-0.12485 0.54547-0.32031 0.72656-0.10939-0.12959-0.17578-0.29485-0.17578-0.47852 0-0.04036 0.001699-0.078186 0.011719-0.11719-0.30271 0.16985-0.50781 0.48822-0.50781 0.86133 0 0.55029 0.4419 0.99414 0.99219 0.99414 0.55008 0 0.99414-0.44385 0.99414-0.99414 0-1.0315-0.78312-1.8635-1.7871-1.9648zm4 0c0.45337 0.0923 0.79297 0.49123 0.79297 0.97266 0 0.2888-0.12485 0.54547-0.32031 0.72656-0.10939-0.12959-0.17578-0.29485-0.17578-0.47852 0-0.04036 0.001699-0.078186 0.011719-0.11719-0.30271 0.16985-0.50781 0.48822-0.50781 0.86133 0 0.55029 0.4419 0.99414 0.99219 0.99414 0.55008 0 0.99414-0.44385 0.99414-0.99414 0-1.0315-0.78312-1.8635-1.7871-1.9648zm-12.707 4v2h-1v10h16v-10h-1v-2h-1v2h-3v-2h-1v2h-4v-2h-1v2h-3v-2h-1zm0 3h14v4h-0.54492c-1.3598 0-2.4551-1.0952-2.4551-2.4551v-0.54492h-1v0.54492c0 1.3598-1.0952 2.4551-2.4551 2.4551h-1.0898c-1.3598 0-2.4551-1.0952-2.4551-2.4551v-0.54492h-1v0.54492c0 1.3598-1.0952 2.4551-2.4551 2.4551h-0.54492v-4zm3.5 3.6582c0.53622 0.80914 1.4525 1.3418 2.5 1.3418h2c1.0475 0 1.9638-0.53265 2.5-1.3418 0.53622 0.80915 1.4525 1.3418 2.5 1.3418h1v1h-14v-1h1c1.0475 0 1.9638-0.53265 2.5-1.3418zm-3.5 3.3418h14v1h-14v-1z" fill="currentColor"/>
</svg>
