<svg width="24" height="24" version="1.1" viewBox="0 0 24 24" xmlns="http://www.w3.org/2000/svg">
 <style type="text/css">.ColorScheme-Text {
            color:#2e3440;
        }
        .ColorScheme-NegativeText {
            color:#bf616a;
        }</style>
 <g transform="translate(1,1)" fill="currentColor">
  <path class="ColorScheme-Text" d="m19 2.9941-8.5566 7.0059h-7.4434v9h16v-5h-1v3h-5.4902l6.4902-5.3125zm-13.281 0.0058594-2.7188 2.5 2.7188 2.5 0.6875-0.65625-1.4375-1.3418h4.0312v-1.002h-4.0312l1.4375-1.3438zm12.281 2.1055v6.1074l-7 5.7324v-6.1094zm-14 5.8945h6v6h-6zm1 1v1h2v-1zm0 2v1h2v-1z"/>
  <path class="ColorScheme-NegativeText" d="m8 12v1h1v-1h-1zm0 2v1h1v-1h-1z"/>
 </g>
</svg>
