<svg viewBox="0 0 24 24" xmlns="http://www.w3.org/2000/svg">
 <defs>
  <style type="text/css">.ColorScheme-Text {
        color:#2e3440;
      }</style>
 </defs>
 <g transform="translate(1,1)">
  <path class="ColorScheme-Text" d="m15 3v11.051a2.5 2.5 0 0 1 2 2.4492 2.5 2.5 0 0 1-2.5 2.5 2.5 2.5 0 0 1-2.5-2.5 2.5 2.5 0 0 1 2-2.4453v-11.055h1zm-7.293 3 3.5 3.5-3.5 3.5-0.70703-0.70703 2.293-2.293h-6.293v-1h6.293l-2.293-2.293 0.70703-0.70703zm6.793 9a1.5 1.5 0 0 0-1.5 1.5 1.5 1.5 0 0 0 1.5 1.5 1.5 1.5 0 0 0 1.5-1.5 1.5 1.5 0 0 0-1.5-1.5z" fill="currentColor"/>
 </g>
</svg>
