<svg width="22" height="22" version="1.1" viewBox="0 0 5.821 5.821" xmlns="http://www.w3.org/2000/svg">
 <rect transform="matrix(0,-1,-1,0,0,0)" x="-5.026" y="-5.027" width="4.233" height="4.233" rx="2.117" ry="2.117" fill="#88c0d0"/>
 <path d="m2.91 1.587c-0.73 0-1.323 0.592-1.323 1.323h-0.264l0.397 0.661 0.397-0.661h-0.265a1.057 1.057 0 0 1 1.463-0.978 0.13223 0.13223 0 0 0 0.102-0.244 1.322 1.322 0 0 0-0.506-0.1zm1.191 0.661-0.397 0.662h0.265a1.06 1.06 0 0 1-1.463 0.978 0.13223 0.13223 0 0 0-0.102 0.244l0.014 5e-3a1.323 1.323 0 0 0 1.815-1.227h0.265z" fill="#fff"/>
</svg>
