<svg width="22" height="22" version="1.1" viewBox="0 0 5.821 5.821" xmlns="http://www.w3.org/2000/svg">
 <rect transform="matrix(0,-1,-1,0,0,0)" x="-5.026" y="-5.027" width="4.233" height="4.233" rx="2.117" ry="2.117" fill="#5e81ac"/>
 <path d="m3.241 1.587 0.03 0.348a1.04 1.04 0 0 1 0.303 0.176l0.317-0.15 0.33 0.574-0.287 0.2a1.04 1.04 0 0 1 0.016 0.175 1.04 1.04 0 0 1-0.015 0.176l0.287 0.199-0.331 0.572-0.316-0.148a1.04 1.04 0 0 1-0.305 0.174l-0.029 0.35h-0.661l-0.03-0.349a1.04 1.04 0 0 1-0.303-0.176l-0.317 0.15-0.33-0.573 0.287-0.2a1.04 1.04 0 0 1-0.016-0.175 1.04 1.04 0 0 1 0.015-0.176l-0.287-0.2 0.331-0.572 0.316 0.148a1.04 1.04 0 0 1 0.305-0.174l0.029-0.35h0.661zm-0.33 0.882a0.441 0.441 0 0 0-0.442 0.44 0.441 0.441 0 0 0 0.441 0.442 0.441 0.441 0 0 0 0.441-0.441 0.441 0.441 0 0 0-0.44-0.441z" fill="#fff"/>
</svg>
