<svg width="22" height="22" version="1.1" xmlns="http://www.w3.org/2000/svg">
 <circle cx="11" cy="11" r="8" fill="#5e81ac" stroke-width=".8"/>
 <path d="m11.016 5.4a5.588 5.588 0 0 0-5.1968 3.536 5.508 5.508 0 0 0-0.1184 0.3216c-0.0072 0.0224-0.016 0.044-0.0224 0.0664a5.4984 5.4984 0 0 0-0.2784 1.716c0 3.0664 2.504 5.56 5.584 5.56a5.592 5.592 0 0 0 5.176-3.4776c0.06-0.14 0.1104-0.2848 0.1592-0.4304a5.5104 5.5104 0 0 0 0.2808-1.732c0-3.0664-2.504-5.56-5.584-5.56zm-0.4024 0.868v1.872a10.158 10.158 0 0 1-1.5144-0.164c0.0704-0.1656 0.144-0.3248 0.2256-0.4696 0.3728-0.6688 0.824-1.0856 1.288-1.2384zm0.7976 0.0312c0.0416 0.0064 0.0848 0.0112 0.1264 0.0192 0.42 0.1832 0.824 0.58 1.1624 1.188 0.08 0.1424 0.152 0.2984 0.2224 0.46-0.4688 0.0912-0.9784 0.1504-1.512 0.1712v-1.8384zm-2.5 0.3832a4.5336 4.5336 0 0 0-0.2832 0.4384 6.032 6.032 0 0 0-0.3152 0.6672 6.3792 6.3792 0 0 1-0.6512-0.2288 4.7808 4.7808 0 0 1 1.2496-0.8768zm4.2896 0.1192c0.2176 0.0872 0.384 0.168 0.552 0.2496 0.2128 0.148 0.4128 0.312 0.5984 0.4912-0.2 0.084-0.4136 0.1624-0.6456 0.232a6.0288 6.0288 0 0 0-0.308-0.6536 4.9088 4.9088 0 0 0-0.1976-0.32zm1.672 1.34a4.7216 4.7216 0 0 1 0.9096 2.424h-1.5024a8.808 8.808 0 0 0-0.3152-2.0376c0.3184-0.0976 0.6176-0.2088 0.8912-0.336 0.0072-0.0176 0.0112-0.0336 0.016-0.0504zm-7.7536 0.0528c0.2864 0.1328 0.6024 0.248 0.9376 0.3472a8.816 8.816 0 0 0-0.312 2.024h-1.496a4.7216 4.7216 0 0 1 0.8704-2.3712zm6.0712 0.5296c0.1584 0.556 0.2616 1.1792 0.2912 1.8416h-2.0704v-1.6336a10.766 10.766 0 0 0 1.7792-0.208zm-4.3592 0.012c0.5552 0.112 1.1552 0.1776 1.7816 0.1976v1.632h-2.0688c0.0296-0.6584 0.1312-1.2768 0.288-1.8296zm-2.5832 2.624h1.496c0.0304 0.74 0.144 1.44 0.3264 2.0752-0.328 0.0968-0.6352 0.2088-0.9168 0.3368a4.7224 4.7224 0 0 1-0.9056-2.412zm2.2952 0h2.0696v1.6872c-0.6216 0.0192-1.216 0.0848-1.768 0.1944a8.0496 8.0496 0 0 1-0.3016-1.8824zm2.8672 0h2.0712a8.0464 8.0464 0 0 1-0.3056 1.8936 10.774 10.774 0 0 0-1.7656-0.2048v-1.6896zm2.8696 0h1.5016a4.7224 4.7224 0 0 1-0.9232 2.436l-0.0032-8e-3a6.9216 6.9216 0 0 0-0.9048-0.3392c0.1848-0.6376 0.2992-1.344 0.3296-2.0896zm-3.6672 2.4816v1.8144c-0.464-0.1528-0.9152-0.568-1.288-1.2368a4.9872 4.9872 0 0 1-0.2048-0.4184c0.4656-0.0864 0.968-0.1408 1.4928-0.16zm0.7976 0.0016c0.5256 0.0208 1.0272 0.0776 1.4904 0.1664-0.064 0.144-0.1296 0.2816-0.2008 0.4096-0.3728 0.6688-0.824 1.084-1.2896 1.2368zm-3.0768 0.344c0.0896 0.216 0.1864 0.424 0.2936 0.6176 0.0848 0.152 0.1776 0.2928 0.2744 0.4288a4.7784 4.7784 0 0 1-1.1928-0.8288c0.1952-0.0792 0.4008-0.1536 0.624-0.2184zm5.352 0.0136c0.2216 0.0656 0.4248 0.1408 0.6176 0.22-0.348 0.328-0.7456 0.6032-1.1816 0.816a4.7224 4.7224 0 0 0 0.564-1.0368z" fill="#fff" fill-rule="evenodd" stroke-width=".8"/>
</svg>
