<svg width="22" height="22" version="1.1" viewBox="0 0 5.821 5.821" xmlns="http://www.w3.org/2000/svg">
 <rect transform="matrix(0,-1,-1,0,0,0)" x="-5.027" y="-5.028" width="4.233" height="4.233" rx="2.117" ry="2.117" fill="#b48ead"/>
 <path d="m3.308 1.852a0.397 0.397 0 0 0-0.397 0.397c0 0.03 6e-3 0.058 0.013 0.086l-0.426 0.265a0.397 0.397 0 1 0 0 0.62l0.426 0.265a0.38 0.38 0 0 0-0.013 0.086 0.397 0.397 0 1 0 0.15-0.31l-0.427-0.264a0.38 0.38 0 0 0 0.013-0.087 0.38 0.38 0 0 0-0.013-0.087l0.426-0.264a0.397 0.397 0 1 0 0.248-0.707z" fill="#fff"/>
</svg>
