<svg width="22" height="22" version="1.1" viewBox="0 0 5.821 5.821" xmlns="http://www.w3.org/2000/svg">
 <path d="m2.91 0.794-2.02 1.304-0.012 9e-3 -3e-3 2e-3a0.211 0.211 0 0 0-0.081 0.166v2.01c0 0.118 0.094 0.213 0.211 0.213h3.81a0.211 0.211 0 0 0 0.212-0.212v-2.011a0.21 0.21 0 0 0-0.085-0.169h1e-3l-2.033-1.311z" fill="#3b4252" opacity=".8"/>
 <rect x="1.323" y="1.324" width="3.175" height="2.646" rx="0" ry="0" fill="#eceff4"/>
 <path d="m0.794 2.275 4.021 2.752h-3.795c-0.015 0-0.226 0-0.226-0.227z" fill="#d8dee9"/>
 <path d="m0.794 2.275 4.021 2.752h-3.795c-0.015 0-0.226 0-0.226-0.227z" fill="#4c566a" opacity=".5"/>
 <path d="m4.8 5.027c0.227 0 0.227-0.227 0.227-0.227v-2.525l-4.022 2.752z" fill="#d8dee9"/>
</svg>
