<?xml version="1.0" encoding="UTF-8" standalone="no"?>
<svg
   width="64"
   height="64"
   version="1.1"
   viewBox="0 0 64 64"
   id="svg125"
   sodipodi:docname="application-vnd.ms-publisher.svg"
   inkscape:version="1.1 (c68e22c387, 2021-05-23)"
   xmlns:inkscape="http://www.inkscape.org/namespaces/inkscape"
   xmlns:sodipodi="http://sodipodi.sourceforge.net/DTD/sodipodi-0.dtd"
   xmlns:xlink="http://www.w3.org/1999/xlink"
   xmlns="http://www.w3.org/2000/svg"
   xmlns:svg="http://www.w3.org/2000/svg">
  <sodipodi:namedview
     id="namedview127"
     pagecolor="#ffffff"
     bordercolor="#666666"
     borderopacity="1.0"
     inkscape:pageshadow="2"
     inkscape:pageopacity="0.0"
     inkscape:pagecheckerboard="0"
     showgrid="false"
     inkscape:zoom="5.59375"
     inkscape:cx="32"
     inkscape:cy="32"
     inkscape:window-width="1920"
     inkscape:window-height="1012"
     inkscape:window-x="0"
     inkscape:window-y="32"
     inkscape:window-maximized="1"
     inkscape:current-layer="svg125" />
  <defs
     id="defs47">
    <linearGradient
       id="linearGradient6721-3"
       x1="7.9373"
       x2="7.9373"
       y1="15.346"
       y2="16.933"
       gradientUnits="userSpaceOnUse"
       xlink:href="#linearGradient6261" />
    <linearGradient
       id="linearGradient6261">
      <stop
         offset="0"
         id="stop3" />
      <stop
         stop-opacity="0"
         offset="1"
         id="stop5" />
    </linearGradient>
    <radialGradient
       id="radialGradient6723-5"
       cx="35"
       cy="4"
       r="3.7275"
       gradientTransform="matrix(1.696,0,0,1.0731,-24.361,-0.29238)"
       gradientUnits="userSpaceOnUse"
       xlink:href="#linearGradient6261" />
    <linearGradient
       id="linearGradient6725-3"
       x1="43"
       x2="46.748"
       y1="12"
       y2="8.2517"
       gradientUnits="userSpaceOnUse"
       xlink:href="#linearGradient6261" />
    <radialGradient
       id="radialGradient6727-5"
       cx="52"
       cy="22"
       r="5.2061"
       gradientTransform="matrix(0.96042,0,0,1.3331,2.0581,-7.3283)"
       gradientUnits="userSpaceOnUse"
       xlink:href="#linearGradient6261" />
    <linearGradient
       id="linearGradient6729-6"
       x1="5.8207"
       x2="5.8207"
       y1="1.0583"
       gradientUnits="userSpaceOnUse"
       xlink:href="#linearGradient6261" />
    <radialGradient
       id="radialGradient6731-2"
       cx="3.1749"
       cy="1.3229"
       r=".79373"
       gradientTransform="matrix(-2.1078e-8,-1.3333,1.6667,-2.6348e-8,0.97012,5.2916)"
       gradientUnits="userSpaceOnUse"
       xlink:href="#linearGradient6261" />
    <linearGradient
       id="linearGradient6733-9"
       x1="13.758"
       x2="15.081"
       y1="10.583"
       y2="10.583"
       gradientUnits="userSpaceOnUse"
       xlink:href="#linearGradient6261" />
    <linearGradient
       id="linearGradient6735-1"
       x1="3.1749"
       x2="1.852"
       y1="8.4665"
       y2="8.4665"
       gradientUnits="userSpaceOnUse"
       xlink:href="#linearGradient6261" />
    <radialGradient
       id="radialGradient6737-2"
       cx="13.758"
       cy="15.346"
       r=".79373"
       gradientTransform="matrix(5.1718e-7,2,-1.6667,4.3098e-7,39.334,-12.171)"
       gradientUnits="userSpaceOnUse"
       xlink:href="#linearGradient6261" />
    <radialGradient
       id="radialGradient6739-7"
       cx="3.1749"
       cy="15.346"
       r=".79373"
       gradientTransform="matrix(-1.6667,-1.37e-6,1.644e-6,-2,8.4665,46.037)"
       gradientUnits="userSpaceOnUse"
       xlink:href="#linearGradient6261" />
    <linearGradient
       id="linearGradient6741-0"
       x1="7.9373"
       x2="7.9373"
       y1="15.346"
       y2="16.668"
       gradientUnits="userSpaceOnUse"
       xlink:href="#linearGradient6261" />
    <radialGradient
       id="radialGradient6743-9"
       cx="35"
       cy="4"
       r="3.7275"
       gradientTransform="matrix(1.6115,-1.9122e-7,9.5496e-8,0.80482,-21.403,0.78072)"
       gradientUnits="userSpaceOnUse"
       xlink:href="#linearGradient6261" />
    <linearGradient
       id="linearGradient6745-3"
       x1="43"
       x2="46.004"
       y1="12"
       y2="8.9965"
       gradientUnits="userSpaceOnUse"
       xlink:href="#linearGradient6261" />
    <radialGradient
       id="radialGradient6747-6"
       cx="52"
       cy="22"
       r="5.2061"
       gradientTransform="matrix(0.76834,-9.6042e-8,1.534e-7,1.2272,12.047,-4.9986)"
       gradientUnits="userSpaceOnUse"
       xlink:href="#linearGradient6261" />
    <linearGradient
       id="linearGradient6749-0"
       x1="5.8207"
       x2="5.8207"
       y1="1.0583"
       y2=".26458"
       gradientUnits="userSpaceOnUse"
       xlink:href="#linearGradient6261" />
    <radialGradient
       id="radialGradient6751-6"
       cx="3.1749"
       cy="1.3229"
       r=".79373"
       gradientTransform="matrix(-7.442e-8,-1,1.3333,-9.9226e-8,1.4111,4.2333)"
       gradientUnits="userSpaceOnUse"
       xlink:href="#linearGradient6261" />
    <linearGradient
       id="linearGradient6753-2"
       x1="13.758"
       x2="14.816"
       y1="10.583"
       y2="10.583"
       gradientUnits="userSpaceOnUse"
       xlink:href="#linearGradient6261" />
    <linearGradient
       id="linearGradient6755-6"
       x1="3.1749"
       x2="2.1166"
       y1="8.4665"
       y2="8.4665"
       gradientUnits="userSpaceOnUse"
       xlink:href="#linearGradient6261" />
    <radialGradient
       id="radialGradient6757-1"
       cx="13.758"
       cy="15.346"
       r=".79373"
       gradientTransform="matrix(0,1.6667,-1.3333,0,34.219,-7.5846)"
       gradientUnits="userSpaceOnUse"
       xlink:href="#linearGradient6261" />
    <radialGradient
       id="radialGradient6759-8"
       cx="3.1749"
       cy="15.346"
       r=".79373"
       gradientTransform="matrix(-1.3333,0,0,-1.6667,7.4082,40.921)"
       gradientUnits="userSpaceOnUse"
       xlink:href="#linearGradient6261" />
    <linearGradient
       id="linearGradient6761-7"
       x1="21.039"
       x2="21.039"
       y1="2"
       y2="62"
       gradientTransform="matrix(1.0000066,0,0,1.0000066,-0.0227084,0.02442704)"
       gradientUnits="userSpaceOnUse">
      <stop
         stop-color="#73e94f"
         offset="0"
         id="stop27"
         style="stop-color:#a3be8c;stop-opacity:0.6" />
      <stop
         stop-color="#19c262"
         offset="1"
         id="stop29"
         style="stop-color:#a3be8c;stop-opacity:1" />
    </linearGradient>
    <radialGradient
       id="radialGradient6763-2"
       cx="40"
       cy="12"
       r="8"
       gradientTransform="matrix(1.5000099,0,0,-2.0000131,-14.022347,41.025944)"
       gradientUnits="userSpaceOnUse"
       xlink:href="#linearGradient6261" />
    <radialGradient
       id="radialGradient6765-3"
       cx="10.583"
       cy="4.2333"
       r="2.1166"
       gradientTransform="matrix(-7.5592,1.1805959e-6,-1.1805959e-6,-7.5592,119.97959,49.023577)"
       gradientUnits="userSpaceOnUse"
       xlink:href="#linearGradient6261" />
    <radialGradient
       id="radialGradient6767-7"
       cx="40"
       cy="12"
       r="8"
       gradientTransform="matrix(0,-1.5000099,2.0000131,0,15.980118,71.024629)"
       gradientUnits="userSpaceOnUse"
       xlink:href="#linearGradient6261" />
    <linearGradient
       id="linearGradient7282"
       x1="10.583"
       x2="6.3499"
       y1="3.1749"
       y2="3.1749"
       gradientTransform="matrix(3.7796,0,0,2.5197459,-0.0227084,6.3579406)"
       gradientUnits="userSpaceOnUse"
       xlink:href="#linearGradient6261" />
    <linearGradient
       id="linearGradient7284"
       x1="10.583"
       x2="8.7311"
       y1="3.0426"
       y2="3.0426"
       gradientTransform="matrix(3.7796,0,0,2.5197459,-0.0227084,6.3579406)"
       gradientUnits="userSpaceOnUse"
       xlink:href="#linearGradient6261" />
    <radialGradient
       id="radialGradient6773-5"
       cx="10.583"
       cy="4.2333"
       r="2.1166"
       gradientTransform="matrix(-3.30715,-6.2605294e-7,6.2858528e-7,-3.3203408,74.979674,31.080304)"
       gradientUnits="userSpaceOnUse"
       xlink:href="#linearGradient6261" />
    <radialGradient
       id="radialGradient6775-9"
       cx="40"
       cy="12"
       r="8"
       gradientTransform="matrix(0,-1.3077794,0.87981529,0,29.420376,63.336922)"
       gradientUnits="userSpaceOnUse"
       xlink:href="#linearGradient6261" />
    <linearGradient
       id="linearGradient7286"
       x1="10.583"
       x2="6.3499"
       y1="3.1749"
       y2="3.1749"
       gradientTransform="matrix(3.7796,0,0,2.5197459,-57.02499,35.312772)"
       gradientUnits="userSpaceOnUse"
       xlink:href="#linearGradient6261" />
    <linearGradient
       id="linearGradient7288"
       x1="10.583"
       x2="8.7237"
       y1="3.0426"
       y2="3.0426"
       gradientTransform="matrix(3.7796,0,0,2.5197459,-57.02499,35.312772)"
       gradientUnits="userSpaceOnUse"
       xlink:href="#linearGradient6261" />
    <radialGradient
       id="radialGradient6781-2"
       cx="40"
       cy="12"
       r="8"
       gradientTransform="matrix(1.4336023,0,0,-0.87849243,-11.365288,27.56641)"
       gradientUnits="userSpaceOnUse"
       xlink:href="#linearGradient6261" />
    <linearGradient
       id="linearGradient7290"
       x1="40"
       x2="48.031647"
       y1="17"
       y2="8.5356007"
       gradientTransform="matrix(1.0000066,0,0,1.0000066,-0.0227084,0.02442704)"
       gradientUnits="userSpaceOnUse">
      <stop
         stop-color="#fefefe"
         offset="0"
         id="stop42"
         style="stop-color:#eceff4;stop-opacity:1" />
      <stop
         stop-color="#e9e9e9"
         offset="1"
         id="stop44"
         style="stop-color:#d8dee9;stop-opacity:1" />
    </linearGradient>
  </defs>
  <g
     transform="matrix(3.7796,0,0,3.7796,-0.0227084,1.0244336)"
     opacity="0.15"
     id="g69">
    <rect
       x="3.1749001"
       y="15.346"
       width="10.583"
       height="1.5875"
       fill="url(#linearGradient6721-3)"
       opacity="1"
       id="rect49"
       style="fill:url(#linearGradient6721-3)" />
    <path
       transform="scale(0.26458)"
       d="m 35,0 10e-7,7 7,-7 z"
       fill="url(#radialGradient6723-5)"
       opacity="1"
       id="path51"
       style="fill:url(#radialGradient6723-5)" />
    <path
       transform="scale(0.26458)"
       d="m 42,0 -7,7 14,15 9,-9 2e-6,-9.4551 L 54.455102,0 Z"
       fill="url(#linearGradient6725-3)"
       opacity="1"
       id="path53"
       style="fill:url(#linearGradient6725-3)" />
    <path
       transform="scale(0.26458)"
       d="m 58,13 -9,9 h 9 z"
       fill="url(#radialGradient6727-5)"
       opacity="1"
       id="path55"
       style="fill:url(#radialGradient6727-5)" />
    <rect
       x="3.1749001"
       width="6.0853"
       height="1.0583"
       fill="url(#linearGradient6729-6)"
       opacity="1"
       id="rect57"
       style="fill:url(#linearGradient6729-6)"
       y="0" />
    <rect
       x="1.5875"
       width="1.5875"
       height="1.0583"
       fill="url(#radialGradient6731-2)"
       opacity="1"
       id="rect59"
       style="fill:url(#radialGradient6731-2)"
       y="0" />
    <rect
       x="13.758"
       y="5.8207002"
       width="1.5875"
       height="9.5248003"
       fill="url(#linearGradient6733-9)"
       opacity="1"
       id="rect61"
       style="fill:url(#linearGradient6733-9)" />
    <rect
       x="1.5875"
       y="1.0583"
       width="1.5875"
       height="14.287"
       fill="url(#linearGradient6735-1)"
       opacity="1"
       id="rect63"
       style="fill:url(#linearGradient6735-1)" />
    <rect
       x="13.758"
       y="15.346"
       width="1.5875"
       height="1.5875"
       fill="url(#radialGradient6737-2)"
       opacity="1"
       id="rect65"
       style="fill:url(#radialGradient6737-2)" />
    <rect
       x="1.5875"
       y="15.346"
       width="1.5875"
       height="1.5875"
       fill="url(#radialGradient6739-7)"
       opacity="1"
       id="rect67"
       style="fill:url(#radialGradient6739-7)" />
  </g>
  <g
     transform="matrix(3.7796,0,0,3.7796,-0.0227084,1.0244336)"
     opacity="0.25"
     id="g91">
    <rect
       x="3.1749001"
       y="15.346"
       width="10.583"
       height="1.5875"
       fill="url(#linearGradient6741-0)"
       opacity="1"
       id="rect71"
       style="fill:url(#linearGradient6741-0)" />
    <path
       transform="scale(0.26458)"
       d="m 35,0 10e-7,7 7,-7 z"
       fill="url(#radialGradient6743-9)"
       opacity="1"
       id="path73"
       style="fill:url(#radialGradient6743-9)" />
    <path
       transform="scale(0.26458)"
       d="m 42,0 -7,7 14,15 9,-9 2e-6,-9.4551 L 54.455102,0 Z"
       fill="url(#linearGradient6745-3)"
       opacity="1"
       id="path75"
       style="fill:url(#linearGradient6745-3)" />
    <path
       transform="scale(0.26458)"
       d="m 58,13 -9,9 h 9 z"
       fill="url(#radialGradient6747-6)"
       opacity="1"
       id="path77"
       style="fill:url(#radialGradient6747-6)" />
    <rect
       x="3.1749001"
       width="6.0853"
       height="1.0583"
       fill="url(#linearGradient6749-0)"
       opacity="1"
       id="rect79"
       style="fill:url(#linearGradient6749-0)"
       y="0" />
    <rect
       x="1.5875"
       width="1.5875"
       height="1.0583"
       ry="0"
       fill="url(#radialGradient6751-6)"
       opacity="1"
       id="rect81"
       style="fill:url(#radialGradient6751-6)"
       y="0" />
    <rect
       x="13.758"
       y="5.8207002"
       width="1.5875"
       height="9.5248003"
       fill="url(#linearGradient6753-2)"
       opacity="1"
       id="rect83"
       style="fill:url(#linearGradient6753-2)" />
    <rect
       x="1.5875"
       y="1.0583"
       width="1.5875"
       height="14.287"
       fill="url(#linearGradient6755-6)"
       opacity="1"
       id="rect85"
       style="fill:url(#linearGradient6755-6)" />
    <rect
       x="13.758"
       y="15.346"
       width="1.5875"
       height="1.5875"
       fill="url(#radialGradient6757-1)"
       opacity="1"
       id="rect87"
       style="fill:url(#radialGradient6757-1)" />
    <rect
       x="1.5875"
       y="15.346"
       width="1.5875"
       height="1.5875"
       fill="url(#radialGradient6759-8)"
       opacity="1"
       id="rect89"
       style="fill:url(#radialGradient6759-8)" />
  </g>
  <path
     d="m 10.978573,2.0276193 c -1.108027,0 -2.000013,0.892023 -2.000013,2.000013 V 60.026185 c 0,1.108028 0.892023,2.000013 2.000013,2.000013 h 41.998915 c 1.108028,0 2.000014,-0.892023 2.000014,-2.000013 V 21.024493 c 0,-1.000007 -0.609007,-2.60902 -2.000014,-3.999951 L 39.977554,4.0246083 c -1.338092,-1.693223 -3.00002,-2.000013 -3.99995,-2.000013 z"
     fill="url(#linearGradient6761-7)"
     stroke-width="1.00001"
     id="path93-7"
     style="fill:#eceff4" />
  <path
     d="m 10.979707,2.0244515 c -1.1080273,0 -2.0000129,0.8920234 -2.0000129,2.0000132 V 60.023018 c 0,1.108028 0.8920234,2.000013 2.0000129,2.000013 h 41.998915 c 1.108028,0 2.000014,-0.892023 2.000014,-2.000013 V 21.021326 c 0,-1.000007 -0.609007,-2.60902 -2.000014,-3.999951 L 39.978688,4.021441 C 38.640596,2.328218 36.978668,2.0214278 35.978738,2.0214278 Z"
     fill="url(#linearGradient6761-7)"
     stroke-width="1.00001"
     id="path93"
     style="fill:url(#linearGradient6761-7)" />
  <path
     d="m 45.978803,17.02435 v 15.999802 h 8.999984 V 21.0243 c 0,-0.131817 -0.02608,-0.300565 -0.03908,-0.453136 -0.148728,-0.992976 -0.763442,-2.349399 -1.960932,-3.54689 z"
     fill="url(#radialGradient6763-2)"
     opacity="0.05"
     id="path95"
     style="fill:url(#radialGradient6763-2);stroke-width:3.7796" />
  <rect
     x="32.93919"
     y="-1.0244875"
     width="25.080669"
     height="25.076889"
     fill="none"
     id="rect97"
     style="stroke-width:3.7796" />
  <rect
     x="23.977749"
     y="17.024349"
     width="16.000181"
     height="16.000181"
     ry="0"
     fill="url(#radialGradient6765-3)"
     opacity="0.05"
     id="rect99"
     style="fill:url(#radialGradient6765-3);stroke-width:3.7796" />
  <path
     d="m 23.977752,2.024444 v 8.999983 H 39.977554 V 4.0246083 C 38.639463,2.3313853 36.977572,2.0245951 35.977604,2.0245951 Z"
     fill="url(#radialGradient6767-7)"
     opacity="0.05"
     id="path101"
     style="fill:url(#radialGradient6767-7);stroke-width:3.7796" />
  <rect
     x="23.977749"
     y="11.024612"
     width="16.000181"
     height="6.0001149"
     ry="0"
     fill="url(#linearGradient7282)"
     opacity="0.05"
     id="rect103"
     style="fill:url(#linearGradient7282);stroke-width:3.7796" />
  <rect
     x="28.978167"
     y="11.024612"
     width="11.000148"
     height="6.0001149"
     ry="0"
     fill="url(#linearGradient7284)"
     opacity="0.2"
     id="rect105"
     style="fill:url(#linearGradient7284);stroke-width:3.7796" />
  <rect
     x="28.978167"
     y="17.024349"
     width="11.000148"
     height="11.000148"
     ry="0"
     fill="url(#radialGradient6773-5)"
     opacity="0.2"
     id="rect107"
     style="fill:url(#radialGradient6773-5);stroke-width:3.7796" />
  <path
     d="m 28.978162,2.024444 v 8.999983 H 39.97831 V 4.0246083 C 39.448562,3.3542584 38.868695,2.9074341 38.298618,2.6046882 L 35.978322,2.0245951 Z"
     fill="url(#radialGradient6775-9)"
     opacity="0.2"
     id="path109"
     style="fill:url(#radialGradient6775-9);stroke-width:3.7796" />
  <rect
     transform="rotate(-90)"
     x="-33.024529"
     y="39.976803"
     width="16.000181"
     height="6.0001149"
     ry="0"
     fill="url(#linearGradient7286)"
     opacity="0.05"
     id="rect111"
     style="fill:url(#linearGradient7286);stroke-width:3.7796" />
  <rect
     transform="rotate(-90)"
     x="-28.024498"
     y="39.976803"
     width="11.000148"
     height="6.0001149"
     ry="0"
     fill="url(#linearGradient7288)"
     opacity="0.2"
     id="rect113"
     style="fill:url(#linearGradient7288);stroke-width:3.7796" />
  <path
     d="m 45.978803,17.02435 v 11.000148 h 8.999984 v -6.99982 l -0.439454,-1.759781 c -0.324468,-0.728178 -0.833402,-1.513088 -1.560559,-2.240245 z"
     fill="url(#radialGradient6781-2)"
     opacity="0.2"
     id="path115"
     style="fill:url(#radialGradient6781-2);stroke-width:3.7796" />
  <path
     d="m 37.97739,2.443371 v 14.574516 c 0,1.107989 0.892023,2.000051 2.000051,2.000051 H 54.442726 C 54.11666,18.359153 53.645117,17.665634 52.997407,17.017887 L 39.997095,4.0175744 C 39.367527,3.2209104 38.667318,2.7386712 37.997044,2.443371 Z"
     fill="url(#linearGradient7290)"
     id="path117"
     style="fill:url(#linearGradient7290);stroke-width:3.7796" />
  <path
     d="m34.633 23c-4.8764 0.8684-9.7543 2.0206-14.631 2.873 0 7.4178-0.0032 14.839 0 22.26 4.8511 0.84931 9.7035 1.9829 14.545 2.8672h1.4531v-3-3-1-2-1-2-1-2-4-5-1-3h-1.3672zm-7.3379 8.8164c0.9621-0.02041 1.8867 0.1185 2.6367 0.79688 1.4367 1.7433 1.0558 4.9506-1.0742 5.9941-0.75668 0.38665-1.624 0.33332-2.4473 0.30664-0.0033 1.3033-0.005353 2.6069-0.001953 3.9102-0.66-0.05666-1.3244-0.11464-1.9844-0.16797-0.02986-3.56-0.036024-6.9572 0.003906-10.518 0.93863-0.11694 1.9051-0.30186 2.8672-0.32227zm-0.10938 1.9316c-0.26253-0.0068-0.5311 0.017957-0.77734 0.029297-0.0098 1.12-0.017225 2.2368 0.052735 3.3535 0.66332-0.08001 1.5243-0.014681 1.9043-0.70117 0.31666-0.67334 0.33508-1.5322-0.044922-2.1855-0.27708-0.38541-0.69716-0.48438-1.1348-0.49609z"
     fill="#fff"
     style="isolation:auto;mix-blend-mode:normal;fill:#eceff4"
     id="path121" />
  <path
     d="m37 26v1h7v15h-2v-12c0-0.554-0.446-1-1-1-1.556-0.611-4.061-0.985-4-2v5h3v4h-3v2h3v1h-3v2h3v1h-3v2h3v1h-3v3h4c0.554 0 1-0.446 1-1v-4h2c0.554 0 1-0.446 1-1v-15c0-0.554-0.446-1-1-1z"
     fill="#fff"
     id="path123"
     style="fill:#eceff4" />
</svg>
