<svg width="64" height="64" version="1.1" viewBox="0 0 16.933 16.933" xmlns="http://www.w3.org/2000/svg">
 <path d="m3.4395 1.0583c-0.73289 0-1.3229 0.59001-1.3229 1.3229v12.171c0 0.73289 0.59001 1.3229 1.3229 1.3229h10.054c0.73289 0 1.3229-0.59001 1.3229-1.3229v-10.319l-3.175-3.175z" fill="#eceff4" fill-rule="evenodd" stroke-width=".26458" style="paint-order:stroke fill markers"/>
 <path d="m3.4395 1.0583c-0.73289 0-1.3229 0.59-1.3229 1.3229v12.171c0 0.73289 0.59 1.3229 1.3229 1.3229h10.054c0.73289 0 1.3229-0.59 1.3229-1.3229v-10.319l-3.1749-3.1749zm0 0.52916h7.9828l2.8649 2.8649v10.099c0 0.44889-0.34485 0.79373-0.79373 0.79373h-10.054c-0.44889 0-0.79373-0.34485-0.79373-0.79373v-12.171c0-0.44889 0.34485-0.79373 0.79373-0.79373z" color="#000000" color-rendering="auto" dominant-baseline="auto" fill="#b48ead" image-rendering="auto" shape-rendering="auto" solid-color="#000000" style="font-feature-settings:normal;font-variant-alternates:normal;font-variant-caps:normal;font-variant-ligatures:normal;font-variant-numeric:normal;font-variant-position:normal;isolation:auto;mix-blend-mode:normal;paint-order:fill markers stroke;shape-padding:0;text-decoration-color:#000000;text-decoration-line:none;text-decoration-style:solid;text-indent:0;text-orientation:mixed;text-transform:none;white-space:normal"/>
 <path d="m12.171 1.0583 2.6458 2.6458-3.75e-4 -1.3229c-2.08e-4 -0.73288-0.59001-1.3229-1.3229-1.3229z" fill="#b48ead" fill-rule="evenodd" style="paint-order:stroke fill markers"/>
 <g transform="matrix(.057876 0 0 .057876 -70.882 97.98)" fill="#dbc7c5" stroke-width=".57143">
  <path d="m1307-1602.6v6h28v-6zm32 0v6h30v-6zm34 0v6h30v-6zm34 0v6h28v-6zm-100 10v8h28v-8zm32 0v8h30v-8zm34 0v8h30v-8zm34 0v8h28v-8zm-100 12v8h28v-8zm32 0v8h30v-8zm34 0v8h30v-8zm34 0v8h28v-8zm-100 12v8h28v-8zm32 0v8h30v-8zm34 0v8h30v-8zm34 0v8h28v-8zm-100 12v8h28v-8zm32 0v8h30v-8zm34 0v8h30v-8zm34 0v8h28v-8zm-100 12v8h28v-8zm32 0v8h30v-8zm34 0v8h30v-8zm34 0v8h28v-8zm-100 12v8h28v-8zm32 0v8h30v-8zm34 0v8h30v-8zm34 0v8h28v-8zm-100 12v8h28v-8zm32 0v8h30v-8zm34 0v8h30v-8zm34 0v8h28v-8zm-100 12v8h28v-8zm32 0v8h30v-8zm34 0v8h30v-8zm34 0v8h28v-8zm-100 12v6h28v-6zm32 0v6h30v-6zm34 0v6h30v-6zm34 0v6h28v-6z" color="#000000" fill="#dbc7c5"/>
 </g>
 <path d="m5.6879 7.08v3.0096c0 0.41553 1.2438 0.75239 2.778 0.75239 1.5343 0 2.778-0.33686 2.778-0.75239v-3.0096z" color="#000000" fill="#fff" stroke-width=".033072"/>
 <path d="m6.4924 6.3681c-0.25596 0.063965-0.46303 0.15283-0.61134 0.24778-0.1483 0.094951-0.24362 0.20787-0.24416 0.34364-0.00451 1.1373-0.00359 2.2216-0.00359 3.1253 0 0.13276 0.09553 0.24664 0.24417 0.34183 0.14864 0.09518 0.35817 0.17693 0.61314 0.24597 0.5099 0.1381 1.2073 0.22246 1.9787 0.22246s1.4687-0.08437 1.9787-0.22246c0.25495-0.06905 0.46448-0.15079 0.61314-0.24597 0.14864-0.09518 0.24284-0.2097 0.24284-0.34246v-3.1253c0-0.13577-0.09813-0.24806-0.24642-0.34301-0.14829-0.094957-0.35666-0.17881-0.61134-0.24778-0.5093-0.13794-1.2053-0.21884-1.9768-0.21884-0.7767 0-1.4295 0.082062-1.9769 0.21884zm1.9768-0.10309c0.76327-0.00139 1.4536 0.084464 1.9497 0.21884 0.24807 0.067188 0.44771 0.15005 0.58055 0.23512 0.13286 0.085078 0.20034 0.16888 0.19352 0.24055-0.012148 0.12762-0.14924 0.21618-0.24596 0.27131-0.1569 0.089401-0.34447 0.15681-0.51365 0.20073-0.57764 0.14994-1.1545 0.2046-1.7091 0.21882-0.76749 0.01231-1.5285-0.042325-2.23-0.22238-0.16278-0.04244-0.30379-0.094766-0.44311-0.16458-0.12506-0.062674-0.29303-0.1668-0.30561-0.30382-0.0067715-0.073722 0.060654-0.15548 0.19352-0.24055 0.13286-0.085078 0.32974-0.17908 0.58055-0.23512 0.69023-0.15421 1.369-0.21783 1.9496-0.21891zm-2.7202 0.93325c0.036636 0.036751 0.080592 0.073688 0.13203 0.1049 0.19041 0.11554 0.42298 0.20185 0.61134 0.24778 0.75846 0.17594 1.5116 0.23646 2.2355 0.21525 0.58524-0.01848 1.1761-0.061893 1.7182-0.21525 0.26824-0.075893 0.55358-0.16763 0.74336-0.35268v0.74515c0 0.033678 0 0.070655-0.0072 0.099471-0.01581 0.06397-0.07922 0.14104-0.19353 0.20799-0.18894 0.11064-0.39584 0.17843-0.57878 0.22788-0.65006 0.15856-1.3263 0.21617-1.9406 0.21704-0.66303-0.0050931-1.3622-0.065122-1.9497-0.21885-0.25213-0.079562-0.50493-0.14825-0.68722-0.31649-0.041978-0.039182-0.065626-0.081362-0.075962-0.11756-0.0093585-0.032775-0.0071766-0.064937-0.0071766-0.099471v-0.74515zm0 1.0436c0.022462 0.022224 0.048321 0.044246 0.075962 0.065111 0.22183 0.15328 0.49768 0.24236 0.73792 0.30206 0.66453 0.15083 1.2531 0.20124 1.9063 0.20252 0.65707-0.013474 1.3007-0.047071 1.9063-0.20254 0.21441-0.055931 0.44456-0.13804 0.61858-0.22608 0.06621-0.033499 0.17-0.11772 0.19533-0.14109v0.74336c0 0.033678 0 0.070655-0.0072 0.099471-0.01581 0.06397-0.08115 0.13785-0.19352 0.20799-0.24824 0.14561-0.54251 0.22591-0.80127 0.28214-0.60127 0.11669-1.1523 0.16196-1.7182 0.16278-0.28625 0-0.56206-0.00995-0.82114-0.034367-0.58165-0.071106-1.0986-0.12454-1.5916-0.35087-0.084024-0.038922-0.16178-0.092816-0.22424-0.1501-0.042319-0.038812-0.064648-0.081652-0.075962-0.11756-0.00434-0.013751-0.00708-0.029083-0.00718-0.041595-0.00203-0.26707 0-0.53415 0-0.80124zm0 1.0418c0.090611 0.089187 0.21053 0.15656 0.32011 0.20258 0.50211 0.2082 1.0963 0.29294 1.5699 0.33277 0.28562 0.023469 0.56548 0.034413 0.83017 0.034338 0.65799-0.010638 1.2993-0.051272 1.9063-0.20254 0.24416-0.066303 0.47285-0.13949 0.67466-0.25865 0.05406-0.032104 0.09671-0.06904 0.13926-0.10852v0.80124c0 0.07501-0.0592 0.15932-0.19172 0.24416-0.13251 0.08486-0.33099 0.1644-0.57876 0.2315-0.49556 0.13421-1.1868 0.21885-1.9497 0.21885-0.76292 0-1.4541-0.08463-1.9497-0.21885-0.24778-0.0671-0.44625-0.14665-0.57876-0.2315-0.13251-0.084846-0.19171-0.16915-0.19171-0.24416v-0.80124z" color="#000000" fill="#b48ead" stroke-width=".033072" style="text-decoration-line:none;text-indent:0pt;text-transform:none"/>
 <path d="m11.186 6.9631a2.7202 0.69452 0 1 1-5.4403 0 2.7202 0.69452 0 1 1 5.4403 0z" color="#000000" fill="#fff" stroke-width=".069527"/>
</svg>
