<svg viewBox="0 0 48 48" xmlns="http://www.w3.org/2000/svg">
 <path d="m41.14 6.861c-1.147-1.147-4.243 0-7.299 3.056l-4.492 4.492-19.309-4.075c-1.39-0.262-1.789-0.27-2.49 0.418-1.644 1.644-1.645 1.644 1.059 3.211l14.03 7.151-7.728 7.728-6.104-1.171c-0.714-0.151-0.702-0.204-1.15 0.244l-0.443 0.443c-0.675 0.675 0.338 1.474 0.338 1.474l6.286 4.326 4.326 6.286s0.799 1.013 1.474 0.338l0.443-0.443c0.447-0.448 0.394-0.435 0.244-1.15l-1.171-6.104 7.728-7.728 7.151 14.03c1.567 2.704 1.567 2.703 3.211 1.059 0.688-0.7 0.68-1.1 0.418-2.49l-4.075-19.309 4.492-4.492c3.056-3.056 4.204-6.152 3.056-7.299z" fill="#5e81ac"/>
</svg>
