<svg viewBox="0 0 48 48" xmlns="http://www.w3.org/2000/svg">
 <path d="m42 24c0 9.942-8.06 18-18 18-9.942 0-18-8.06-18-18 0-9.942 8.06-18 18-18 9.942 0 18 8.06 18 18z" fill="#eceff4" fill-rule="evenodd"/>
 <path d="m23.969 10.969c-1.102 0.016-1.984 0.93-1.969 2.031v11c0 0.469 0.164 0.922 0.469 1.281l5 6c0.445 0.602 1.18 0.898 1.914 0.789 0.734-0.117 1.344-0.625 1.586-1.328s0.07-1.484-0.438-2.023l-4.531-5.438v-10.281c8e-3 -0.539-0.203-1.063-0.586-1.445-0.383-0.383-0.906-0.594-1.445-0.586z" fill="#5e81ac"/>
 <path d="m24 4c-11.02 0-20 8.977-20 20 0 11.02 8.977 20 20 20 11.02 0 20-8.977 20-20 0-11.02-8.977-20-20-20m0 4c8.859 0 16 7.141 16 16s-7.141 16-16 16-16-7.141-16-16 7.141-16 16-16z" fill="#7b88a1"/>
 <path d="m22 36c0 5.521-4.479 10-10 10s-10-4.479-10-10 4.479-10 10-10 10 4.479 10 10z" fill="#bf616a" fill-rule="evenodd"/>
 <g transform="matrix(-.5 0 0 -.5 24 49)" fill="#eceff4" fill-opacity=".902">
  <path d="m28 40h-8v-16h8v16"/>
  <path d="m28 16c0 2.203-1.797 4-4 4s-4-1.797-4-4 1.797-4 4-4 4 1.797 4 4z" fill-rule="evenodd"/>
 </g>
</svg>
