<svg viewBox="0 0 48 48" xmlns="http://www.w3.org/2000/svg">
 <path d="m42 24c0 9.942-8.06 18-18 18-9.942 0-18-8.06-18-18 0-9.942 8.06-18 18-18 9.942 0 18 8.06 18 18z" fill="#eceff4" fill-rule="evenodd"/>
 <path d="m23.969 10.969c-1.102 0.016-1.984 0.93-1.969 2.031v11c0 0.469 0.164 0.922 0.469 1.281l5 6c0.445 0.602 1.18 0.898 1.914 0.789 0.734-0.117 1.344-0.625 1.586-1.328s0.07-1.484-0.438-2.023l-4.531-5.438v-10.281c8e-3 -0.539-0.203-1.063-0.586-1.445-0.383-0.383-0.906-0.594-1.445-0.586z" fill="#7b88a1"/>
 <path d="m24 4c-11.02 0-20 8.977-20 20 0 11.02 8.977 20 20 20 11.02 0 20-8.977 20-20 0-11.02-8.977-20-20-20m0 4c8.859 0 16 7.141 16 16s-7.141 16-16 16-16-7.141-16-16 7.141-16 16-16z" fill="#7b88a1"/>
 <g transform="matrix(.5 0 0 .5 8e-8 24)" fill-rule="evenodd">
  <path d="m44 24c0 11.05-8.953 20-20 20-11.05 0-20-8.953-20-20 0-11.05 8.953-20 20-20 11.05 0 20 8.953 20 20" fill="#bf616a"/>
  <path d="m14.01 14v3.332c-0.074 0.938 0.238 1.891 0.941 2.539l4.273 4.203-4.273 4.203c-0.629 0.625-0.941 1.508-0.941 2.391v3.332h3.332c0.879 0 1.762-0.316 2.387-0.941l4.273-4.277 4.273 4.277c0.625 0.625 1.508 0.941 2.391 0.941h3.332v-3.332c0-0.883-0.316-1.766-0.941-2.391l-4.199-4.203 4.273-4.203c0.715-0.664 0.867-1.582 0.867-2.539v-3.332h-3.332c-0.801 0.023-1.434 0.32-2.316 1.086l-4.348 4.203-4.273-4.203c-0.59-0.609-1.395-1.047-2.242-1.086h-0.145" fill="#eceff4"/>
  <path d="m14.01 14v3.332c-0.074 0.938 0.238 1.891 0.941 2.539l4.273 4.203-4.273 4.203c-0.629 0.625-0.941 1.508-0.941 2.391v3.332h3.332c0.879 0 1.762-0.316 2.387-0.941l4.273-4.277 4.273 4.277c0.625 0.625 1.508 0.941 2.391 0.941h3.332v-3.332c0-0.883-0.316-1.766-0.941-2.391l-4.199-4.203 4.273-4.203c0.715-0.664 0.867-1.582 0.867-2.539v-3.332h-3.332c-0.801 0.023-1.434 0.32-2.316 1.086l-4.348 4.203-4.273-4.203c-0.59-0.609-1.395-1.047-2.242-1.086h-0.145" fill="#bf616a" fill-opacity=".102"/>
 </g>
</svg>
