<svg width="64" height="64" viewBox="0 0 64 64" xmlns="http://www.w3.org/2000/svg">
 <path d="m28.277344 8.726562c-1.542969 0-2.792969 1.25-2.792969 2.792969s1.25 2.792969 2.792969 2.792969c7.195312 0 13.035156 5.835938 13.035156 13.03125 0 1.542969 1.246094 2.792969 2.789062 2.792969 1.542969 0 2.792969-1.25 2.792969-2.792969 0-10.28125-8.335937-18.617188-18.617187-18.617188zm-0.933594 8.378907c-10.28125 0-18.617188 8.335937-18.617188 18.617187 0 1.542969 1.25 2.792969 2.792969 2.792969s2.792969-1.25 2.792969-2.792969c0-7.195312 5.835938-13.035156 13.03125-13.035156 1.542969 0 2.792969-1.246094 2.792969-2.789062 0-1.542969-1.25-2.792969-2.792969-2.792969zm25.136719 8.378906c-1.542969 0-2.792969 1.25-2.792969 2.792969 0 7.195312-5.835938 13.035156-13.03125 13.035156-1.542969 0-2.792969 1.246094-2.792969 2.789062 0 1.542969 1.25 2.792969 2.792969 2.792969 10.28125 0 18.617188-8.335937 18.617188-18.617187 0-1.542969-1.25-2.792969-2.792969-2.792969zm-32.582031 8.378906c-1.542969 0-2.792969 1.25-2.792969 2.792969 0 10.28125 8.335937 18.617188 18.617187 18.617188 1.542969 0 2.792969-1.25 2.792969-2.792969s-1.25-2.792969-2.792969-2.792969c-7.195312 0-13.035156-5.835938-13.035156-13.03125 0-1.542969-1.246094-2.792969-2.789062-2.792969z" fill="rgb(18.039216%, 20.392157%, 25.098041%)"/>
</svg>
