
<svg xmlns="http://www.w3.org/2000/svg" xmlns:xlink="http://www.w3.org/1999/xlink" width="64" height="64" viewBox="0 0 64 64">
<path fill-rule="nonzero" fill="rgb(18.039216%, 20.392157%, 25.098041%)" fill-opacity="1" d="M 28.277344 8.726562 C 26.734375 8.726562 25.484375 9.976562 25.484375 11.519531 C 25.484375 13.0625 26.734375 14.3125 28.277344 14.3125 C 35.472656 14.3125 41.3125 20.148438 41.3125 27.34375 C 41.3125 28.886719 42.558594 30.136719 44.101562 30.136719 C 45.644531 30.136719 46.894531 28.886719 46.894531 27.34375 C 46.894531 17.0625 38.558594 8.726562 28.277344 8.726562 Z M 27.34375 17.105469 C 17.0625 17.105469 8.726562 25.441406 8.726562 35.722656 C 8.726562 37.265625 9.976562 38.515625 11.519531 38.515625 C 13.0625 38.515625 14.3125 37.265625 14.3125 35.722656 C 14.3125 28.527344 20.148438 22.6875 27.34375 22.6875 C 28.886719 22.6875 30.136719 21.441406 30.136719 19.898438 C 30.136719 18.355469 28.886719 17.105469 27.34375 17.105469 Z M 52.480469 25.484375 C 50.9375 25.484375 49.6875 26.734375 49.6875 28.277344 C 49.6875 35.472656 43.851562 41.3125 36.65625 41.3125 C 35.113281 41.3125 33.863281 42.558594 33.863281 44.101562 C 33.863281 45.644531 35.113281 46.894531 36.65625 46.894531 C 46.9375 46.894531 55.273438 38.558594 55.273438 28.277344 C 55.273438 26.734375 54.023438 25.484375 52.480469 25.484375 Z M 19.898438 33.863281 C 18.355469 33.863281 17.105469 35.113281 17.105469 36.65625 C 17.105469 46.9375 25.441406 55.273438 35.722656 55.273438 C 37.265625 55.273438 38.515625 54.023438 38.515625 52.480469 C 38.515625 50.9375 37.265625 49.6875 35.722656 49.6875 C 28.527344 49.6875 22.6875 43.851562 22.6875 36.65625 C 22.6875 35.113281 21.441406 33.863281 19.898438 33.863281 Z M 19.898438 33.863281 "/>
</svg>
