
<svg xmlns="http://www.w3.org/2000/svg" xmlns:xlink="http://www.w3.org/1999/xlink" width="64" height="64" viewBox="0 0 64 64" version="1.1">
<g id="surface1">
<path style=" stroke:none;fill-rule:nonzero;fill:rgb(53.333336%,75.294119%,81.568629%);fill-opacity:1;" d="M 54.304688 17.703125 C 54.304688 21.308594 51.410156 24.25 47.835938 24.25 C 44.273438 24.25 41.367188 21.3125 41.367188 17.703125 C 41.367188 14.09375 44.277344 11.152344 47.835938 11.152344 C 51.414062 11.152344 54.304688 14.089844 54.304688 17.703125 Z M 54.304688 17.703125 "/>
<path style=" stroke:none;fill-rule:nonzero;fill:rgb(18.039216%,20.392157%,25.098041%);fill-opacity:1;" d="M 3.363281 26.941406 C 5.1875 26.144531 16.589844 30.804688 18.394531 30.535156 C 20.351562 30.242188 30.15625 22.6875 31.960938 22.6875 C 34.445312 22.6875 43.464844 30.207031 45.855469 30.5625 C 47.367188 30.789062 57.40625 26.449219 60.570312 26.855469 C 61.671875 28.601562 49.371094 40.722656 46.355469 41.214844 C 43.167969 41.738281 33.625 34.503906 31.992188 34.503906 C 30.507812 34.503906 20.796875 41.75 18.03125 41.292969 C 13.757812 40.589844 3.175781 28.765625 3.363281 26.941406 Z M 3.363281 26.941406 "/>
</g>
</svg>
