
<svg xmlns="http://www.w3.org/2000/svg" xmlns:xlink="http://www.w3.org/1999/xlink" width="64" height="64" viewBox="0 0 64 64">
<path fill="none" stroke-width="1.119" stroke-linecap="round" stroke-linejoin="round" stroke="rgb(18.039216%, 20.392157%, 25.098041%)" stroke-opacity="1" stroke-miterlimit="4" d="M 2.856445 15.041992 C 2.214844 14.150391 1.498047 12.850586 1.210938 12.05957 C 0.924805 11.268555 0.874023 10.943359 0.849609 10.383789 C 0.81543 9.604492 0.955078 9.131836 1.387695 8.56543 C 2.209961 7.490234 2.929688 6.146484 3.330078 4.942383 C 3.655273 3.964844 3.822266 2.904297 3.760742 2.19043 C 3.746094 2.013672 3.745117 1.869141 3.760742 1.869141 C 3.800781 1.869141 4.475586 2.919922 4.703125 3.34375 C 5.545898 4.908203 5.897461 6.142578 5.849609 7.365234 C 5.824219 7.990234 5.729492 8.412109 5.508789 8.87793 C 5.289062 9.34375 5.219727 9.415039 4.759766 9.96875 C 3.804688 11.12207 3.194336 12.333008 3.013672 13.436523 C 2.932617 13.924805 2.953125 14.754883 3.053711 15.116211 C 3.088867 15.241211 3.111328 15.348633 3.104492 15.355469 C 3.09668 15.362305 2.986328 15.22168 2.856445 15.041992 Z M 2.856445 15.041992 " transform="matrix(4, 0, 0, 4, 0, 0)"/>
<path fill="none" stroke-width="1.119" stroke-linecap="round" stroke-linejoin="round" stroke="rgb(18.039216%, 20.392157%, 25.098041%)" stroke-opacity="1" stroke-miterlimit="4" d="M 3.080078 15.055664 C 2.991211 14.767578 2.976562 13.861328 3.053711 13.416016 C 3.231445 12.395508 3.762695 11.291992 4.560547 10.287109 C 4.739258 10.0625 4.983398 9.754883 5.105469 9.601562 C 5.375977 9.260742 5.661133 8.6875 5.77832 8.244141 C 5.895508 7.801758 5.930664 7.008789 5.864258 6.509766 C 5.837891 6.308594 5.805664 6.119141 5.793945 6.087891 C 5.78125 6.056641 5.895508 5.956055 6.137695 5.810547 C 8.151367 4.594727 9.401367 2.833008 9.552734 0.99707 L 9.582031 0.643555 L 9.734375 1.121094 C 10.770508 4.365234 10.750977 7.147461 9.681641 8.701172 C 9.291016 9.268555 8.680664 9.739258 7.9375 10.046875 C 6.55957 10.617188 5.549805 11.261719 4.717773 12.102539 C 3.884766 12.942383 3.358398 13.894531 3.188477 14.890625 L 3.131836 15.222656 Z M 3.080078 15.055664 " transform="matrix(4, 0, 0, 4, 0, 0)"/>
<path fill="none" stroke-width="1.119" stroke-linecap="round" stroke-linejoin="round" stroke="rgb(18.039216%, 20.392157%, 25.098041%)" stroke-opacity="1" stroke-miterlimit="4" d="M 3.202148 15.048828 C 3.202148 14.825195 3.427734 14.109375 3.631836 13.69043 C 4.363281 12.180664 5.719727 11.039062 7.883789 10.114258 C 8.481445 9.858398 8.767578 9.692383 9.100586 9.407227 C 9.776367 8.831055 10.237305 7.958984 10.424805 6.904297 L 10.493164 6.519531 L 11.011719 6.339844 C 11.966797 6.007812 12.902344 5.552734 13.515625 5.121094 C 14.129883 4.689453 14.917969 3.835938 15.083984 3.355469 C 15.114258 3.270508 15.144531 3.207031 15.154297 3.213867 C 15.174805 3.237305 15.000977 4.499023 14.894531 5.072266 C 14.260742 8.499023 12.987305 10.839844 11.276367 11.723633 C 10.806641 11.96582 10.426758 12.073242 9.744141 12.150391 C 6.798828 12.5 4.583008 13.416992 3.507812 14.757812 C 3.376953 14.923828 3.253906 15.074219 3.235352 15.095703 C 3.217773 15.117188 3.202148 15.095703 3.202148 15.048828 Z M 3.202148 15.048828 " transform="matrix(4, 0, 0, 4, 0, 0)"/>
</svg>
