<svg width="64" height="64" viewBox="0 0 64 64" xmlns="http://www.w3.org/2000/svg">
 <path transform="scale(4)" d="m2.856445 15.041992c-0.641601-0.891601-1.358398-2.191406-1.645507-2.982422-0.286133-0.791015-0.336915-1.116211-0.361329-1.675781-0.034179-0.779297 0.105469-1.251953 0.538086-1.818359 0.822266-1.075196 1.541993-2.418946 1.942383-3.623047 0.325195-0.977539 0.492188-2.038086 0.430664-2.751953-0.014648-0.176758-0.015625-0.321289 0-0.321289 0.040039 0 0.714844 1.050781 0.942383 1.474609 0.842773 1.564453 1.194336 2.798828 1.146484 4.021484-0.02539 0.625-0.120117 1.046875-0.34082 1.512696-0.219727 0.46582-0.289062 0.537109-0.749023 1.09082-0.955078 1.15332-1.56543 2.364258-1.746094 3.467773-0.081055 0.488282-0.060547 1.31836 0.040039 1.679688 0.035156 0.125 0.057617 0.232422 0.050781 0.239258-0.007812 0.006836-0.118164-0.133789-0.248047-0.313477zm0 0" fill="none" stroke="rgb(18.039216%, 20.392157%, 25.098041%)" stroke-linecap="round" stroke-linejoin="round" stroke-width="1.119"/>
 <path transform="scale(4)" d="m3.080078 15.055664c-0.088867-0.288086-0.103516-1.194336-0.026367-1.639648 0.177734-1.020508 0.708984-2.124024 1.506836-3.128907 0.178711-0.224609 0.422851-0.532226 0.544922-0.685547 0.270508-0.34082 0.555664-0.914062 0.672851-1.357421 0.117188-0.442383 0.152344-1.235352 0.085938-1.734375-0.026367-0.201172-0.058594-0.390625-0.070313-0.421875-0.012695-0.03125 0.101563-0.131836 0.34375-0.277344 2.013672-1.21582 3.263672-2.977539 3.415039-4.813477l0.029297-0.353515 0.152344 0.477539c1.036133 3.24414 1.016602 6.026367-0.052734 7.580078-0.390625 0.567383-1.000977 1.038086-1.744141 1.345703-1.37793 0.570313-2.387695 1.214844-3.219727 2.055664-0.833007 0.839844-1.359375 1.791992-1.529296 2.788086l-0.056641 0.332031zm0 0" fill="none" stroke="rgb(18.039216%, 20.392157%, 25.098041%)" stroke-linecap="round" stroke-linejoin="round" stroke-width="1.119"/>
 <path transform="scale(4)" d="m3.202148 15.048828c0-0.223633 0.225586-0.939453 0.429688-1.358398 0.731445-1.509766 2.087891-2.651368 4.251953-3.576172 0.597656-0.25586 0.883789-0.421875 1.216797-0.707031 0.675781-0.576172 1.136719-1.448243 1.324219-2.50293l0.068359-0.384766 0.518555-0.179687c0.955078-0.332032 1.890625-0.78711 2.503906-1.21875 0.614258-0.431641 1.402344-1.285156 1.568359-1.765625 0.030274-0.084961 0.060547-0.148438 0.070313-0.141602 0.020508 0.023438-0.15332 1.285156-0.259766 1.858399-0.633789 3.426757-1.907226 5.767578-3.618164 6.651367-0.469726 0.242187-0.849609 0.349609-1.532226 0.426758-2.945313 0.349609-5.161133 1.266601-6.236329 2.607421-0.130859 0.166016-0.253906 0.316407-0.27246 0.337891-0.017579 0.021485-0.033204 0-0.033204-0.046875zm0 0" fill="none" stroke="rgb(18.039216%, 20.392157%, 25.098041%)" stroke-linecap="round" stroke-linejoin="round" stroke-width="1.119"/>
</svg>
