<svg width="64" height="64" viewBox="0 0 64 64" xmlns="http://www.w3.org/2000/svg">
 <path d="m32 0c-9.695312-0.03125-17.167969 5.921875-20.601562 13.453125-2.308594 5.265625-3.40625 7.003906-3.398438 17.25v9.296875l-8 12h64l-8-12v-9.296875c0-10.242187-1.703125-13.464844-3.398438-16.90625-3.90625-7.699219-11.09375-13.828125-20.601562-13.796875zm-0.007812 9.476562c4.273437 0 7.695312 3.507813 7.695312 7.804688v3.734375c2.128906 0 3.84375 1.71875 3.84375 3.84375v11.539063c0 2.128906-1.71875 3.84375-3.84375 3.84375h-15.375c-2.128906 0-3.84375-1.71875-3.84375-3.84375v-11.539063c0-2.128906 1.71875-3.84375 3.84375-3.84375v-3.734375c0-4.296875 3.425781-7.804688 7.679688-7.804688zm0 3.859376c-2.128907 0-3.84375 1.699218-3.84375 3.84375v3.835937h7.695312v-3.835937c0-2.152344-1.707031-3.84375-3.851562-3.84375z" fill="rgb(53.333336%, 75.294119%, 81.568629%)"/>
 <path d="m20.695312 56c1.695313 4.792969 6.222657 7.996094 11.304688 8 5.078125-0.007812 9.605469-3.210938 11.296875-8z" fill="rgb(53.333336%, 75.294119%, 81.568629%)"/>
</svg>
