
<svg xmlns="http://www.w3.org/2000/svg" xmlns:xlink="http://www.w3.org/1999/xlink" width="32" height="32" viewBox="0 0 32 32">
<path fill-rule="nonzero" fill="rgb(18.039216%, 20.392157%, 25.098041%)" fill-opacity="1" d="M 21.882812 18.582031 C 22.535156 18.375 23.085938 18.203125 23.105469 18.195312 C 23.136719 18.1875 23.019531 18.019531 21.527344 15.964844 C 20.640625 14.746094 19.917969 13.738281 19.921875 13.730469 C 19.925781 13.71875 20.652344 12.777344 21.542969 11.632812 C 22.660156 10.195312 23.152344 9.554688 23.136719 9.546875 C 23.109375 9.53125 20.648438 8.964844 20.640625 8.972656 C 20.457031 9.230469 17.523438 13.144531 17.511719 13.144531 C 17.503906 13.144531 17.503906 13.046875 17.507812 12.921875 C 17.511719 12.800781 17.519531 11.839844 17.523438 10.785156 L 17.53125 8.867188 L 16.359375 8.980469 C 15.714844 9.042969 15.183594 9.09375 15.175781 9.09375 C 15.167969 9.09375 15.164062 11.292969 15.164062 13.980469 L 15.164062 18.867188 L 15.199219 18.859375 C 15.21875 18.855469 15.742188 18.773438 16.367188 18.679688 L 17.5 18.511719 L 17.5 16.425781 C 17.5 14.363281 17.503906 14.335938 17.53125 14.375 C 17.546875 14.394531 18.261719 15.433594 19.113281 16.683594 C 19.96875 17.933594 20.675781 18.957031 20.683594 18.957031 C 20.691406 18.957031 21.230469 18.789062 21.882812 18.582031 Z M 21.882812 18.582031 "/>
<path fill-rule="nonzero" fill="rgb(18.039216%, 20.392157%, 25.098041%)" fill-opacity="1" d="M 16.945312 23.113281 C 16.972656 23.089844 17.003906 22.980469 17.3125 21.710938 L 17.472656 21.066406 L 17.613281 21.023438 C 17.890625 20.941406 18.3125 20.757812 18.539062 20.625 L 18.621094 20.578125 L 19.484375 21.144531 C 19.960938 21.457031 20.363281 21.71875 20.382812 21.730469 C 20.398438 21.738281 20.429688 21.742188 20.449219 21.738281 C 20.46875 21.730469 20.707031 21.503906 20.980469 21.234375 C 21.375 20.839844 21.472656 20.730469 21.472656 20.699219 C 21.472656 20.675781 21.394531 20.527344 21.277344 20.332031 C 21.167969 20.15625 21.027344 19.921875 20.960938 19.8125 C 20.898438 19.707031 20.839844 19.613281 20.832031 19.605469 C 20.828125 19.597656 20.769531 19.609375 20.703125 19.628906 C 20.605469 19.65625 20.582031 19.660156 20.5625 19.640625 C 20.546875 19.628906 20.328125 19.316406 20.074219 18.945312 L 19.613281 18.269531 L 19.554688 18.382812 C 19.078125 19.265625 18.183594 19.953125 17.183594 20.210938 C 15.769531 20.574219 14.261719 20.078125 13.332031 18.949219 C 12.613281 18.074219 12.324219 16.933594 12.539062 15.824219 C 12.761719 14.691406 13.496094 13.710938 14.523438 13.1875 L 14.695312 13.097656 L 14.695312 12.136719 L 14.59375 12.171875 C 14.429688 12.234375 14.308594 12.289062 14.160156 12.363281 C 14.085938 12.398438 14.011719 12.425781 14 12.421875 C 13.988281 12.417969 13.582031 12.152344 13.09375 11.835938 C 12.382812 11.367188 12.203125 11.253906 12.160156 11.253906 C 12.113281 11.253906 12.0625 11.300781 11.617188 11.746094 C 11.164062 12.199219 11.121094 12.246094 11.125 12.292969 C 11.125 12.332031 11.253906 12.554688 11.671875 13.242188 C 11.972656 13.738281 12.21875 14.148438 12.21875 14.15625 C 12.21875 14.164062 12.179688 14.242188 12.128906 14.335938 C 12.019531 14.53125 11.910156 14.78125 11.828125 15.023438 C 11.796875 15.117188 11.761719 15.195312 11.757812 15.203125 C 11.75 15.210938 11.292969 15.308594 10.742188 15.421875 C 10.074219 15.558594 9.726562 15.640625 9.703125 15.65625 C 9.671875 15.683594 9.671875 15.695312 9.667969 16.382812 L 9.664062 17.085938 L 9.699219 17.125 C 9.730469 17.160156 9.835938 17.1875 10.707031 17.402344 C 11.242188 17.53125 11.6875 17.640625 11.695312 17.648438 C 11.699219 17.652344 11.726562 17.730469 11.753906 17.824219 C 11.824219 18.082031 11.929688 18.355469 12.058594 18.617188 C 12.121094 18.746094 12.171875 18.863281 12.167969 18.875 C 12.160156 18.886719 11.914062 19.269531 11.609375 19.726562 C 11.308594 20.1875 11.054688 20.582031 11.046875 20.609375 C 11.035156 20.640625 11.035156 20.664062 11.050781 20.691406 C 11.0625 20.710938 11.285156 20.945312 11.546875 21.207031 C 11.976562 21.632812 12.03125 21.683594 12.074219 21.683594 C 12.113281 21.683594 12.332031 21.558594 13 21.152344 C 13.480469 20.859375 13.882812 20.617188 13.894531 20.613281 C 13.90625 20.609375 14.019531 20.65625 14.148438 20.722656 C 14.382812 20.839844 14.644531 20.945312 14.890625 21.023438 L 15.03125 21.066406 L 15.230469 22.019531 C 15.335938 22.539062 15.429688 22.992188 15.4375 23.019531 C 15.441406 23.046875 15.460938 23.085938 15.476562 23.101562 C 15.503906 23.128906 15.535156 23.132812 16.210938 23.132812 C 16.761719 23.132812 16.925781 23.128906 16.945312 23.113281 Z M 16.945312 23.113281 "/>
<path fill-rule="evenodd" fill="rgb(18.039216%, 20.392157%, 25.098041%)" fill-opacity="1" d="M 8.710938 1.421875 C 7.699219 1.421875 6.886719 2.234375 6.886719 3.242188 L 6.886719 28.757812 C 6.886719 29.765625 7.699219 30.578125 8.710938 30.578125 L 23.289062 30.578125 C 24.300781 30.578125 25.113281 29.765625 25.113281 28.757812 L 25.113281 3.242188 C 25.113281 2.234375 24.300781 1.421875 23.289062 1.421875 Z M 9.714844 3.242188 L 11.445312 3.242188 L 12.355469 4.507812 C 12.535156 4.757812 12.601562 5.066406 12.910156 5.066406 L 19.089844 5.066406 C 19.398438 5.066406 19.464844 4.757812 19.644531 4.507812 L 20.554688 3.242188 L 22.285156 3.242188 C 22.84375 3.242188 23.289062 3.691406 23.289062 4.246094 L 23.289062 27.753906 C 23.289062 28.308594 22.84375 28.757812 22.285156 28.757812 L 9.714844 28.757812 C 9.15625 28.757812 8.710938 28.308594 8.710938 27.753906 L 8.710938 4.246094 C 8.710938 3.691406 9.15625 3.242188 9.714844 3.242188 Z M 9.714844 3.242188 "/>
<path fill-rule="evenodd" fill="rgb(18.039216%, 20.392157%, 25.098041%)" fill-opacity="1" d="M 12.734375 26.933594 L 19.265625 26.933594 C 19.472656 26.933594 19.644531 27.105469 19.644531 27.316406 C 19.644531 27.527344 19.472656 27.695312 19.265625 27.695312 L 12.734375 27.695312 C 12.527344 27.695312 12.355469 27.527344 12.355469 27.316406 C 12.355469 27.105469 12.527344 26.933594 12.734375 26.933594 Z M 12.734375 26.933594 "/>
</svg>
