<svg width="32" height="32" viewBox="0 0 32 32" xmlns="http://www.w3.org/2000/svg">
 <path d="m21.882812 18.582031c0.652344-0.207031 1.203126-0.378906 1.222657-0.386719 0.03125-0.007812-0.085938-0.175781-1.578125-2.230468-0.886719-1.21875-1.609375-2.226563-1.605469-2.234375 0.003906-0.011719 0.730469-0.953125 1.621094-2.097657 1.117187-1.4375 1.609375-2.078124 1.59375-2.085937-0.027344-0.015625-2.488281-0.582031-2.496094-0.574219-0.183594 0.257813-3.117187 4.171875-3.128906 4.171875-0.007813 0-0.007813-0.097656-0.003907-0.222656 0.003907-0.121094 0.011719-1.082031 0.015626-2.136719l0.007812-1.917968-1.171875 0.113281c-0.644531 0.0625-1.175781 0.113281-1.183594 0.113281-0.007812 0-0.011719 2.199219-0.011719 4.886719v4.886719l0.035157-0.007813c0.019531-0.003906 0.542969-0.085937 1.167969-0.179687l1.132812-0.167969v-2.085938c0-2.0625 0.003906-2.089843 0.03125-2.050781 0.015625 0.019531 0.730469 1.058594 1.582031 2.308594 0.855469 1.25 1.5625 2.273437 1.570313 2.273437 0.007812 0 0.546875-0.167969 1.199218-0.375z" fill="rgb(18.039216%, 20.392157%, 25.098041%)"/>
 <path d="m16.945312 23.113281c0.027344-0.023437 0.058594-0.132812 0.367188-1.402343l0.160156-0.644532 0.140625-0.042968c0.277344-0.082032 0.699219-0.265626 0.925781-0.398438l0.082032-0.046875 0.863281 0.566406c0.476563 0.3125 0.878906 0.574219 0.898437 0.585938 0.015626 0.007812 0.046876 0.011719 0.066407 0.007812 0.019531-0.007812 0.257812-0.234375 0.53125-0.503906 0.394531-0.394531 0.492187-0.503906 0.492187-0.535156 0-0.023438-0.078125-0.171875-0.195312-0.367188-0.109375-0.175781-0.25-0.410156-0.316406-0.519531-0.0625-0.105469-0.121094-0.199219-0.128907-0.207031-0.003906-0.007813-0.0625 0.003906-0.128906 0.023437-0.097656 0.027344-0.121094 0.03125-0.140625 0.011719-0.015625-0.011719-0.234375-0.324219-0.488281-0.695313l-0.460938-0.675781-0.058593 0.113281c-0.476563 0.882813-1.371094 1.570313-2.371094 1.828126-1.414063 0.363281-2.921875-0.132813-3.851563-1.261719-0.71875-0.875-1.007812-2.015625-0.792969-3.125 0.222657-1.132813 0.957032-2.113281 1.984376-2.636719l0.171874-0.089844v-0.960937l-0.101562 0.035156c-0.164062 0.0625-0.285156 0.117187-0.433594 0.191406-0.074218 0.035157-0.148437 0.0625-0.160156 0.058594s-0.417969-0.269531-0.90625-0.585937c-0.710938-0.46875-0.890625-0.582032-0.933594-0.582032-0.046875 0-0.097656 0.046875-0.542968 0.492188-0.453126 0.453125-0.496094 0.5-0.492188 0.546875 0 0.039062 0.128906 0.261719 0.546875 0.949219 0.300781 0.496093 0.546875 0.90625 0.546875 0.914062s-0.039062 0.085938-0.089844 0.179688c-0.109375 0.195312-0.21875 0.445312-0.300781 0.6875-0.03125 0.09375-0.066406 0.171874-0.070313 0.179687-0.007812 0.007813-0.464843 0.105469-1.015624 0.21875-0.667969 0.136719-1.015626 0.21875-1.039063 0.234375-0.03125 0.027344-0.03125 0.039062-0.035156 0.726562l-0.003907 0.703126 0.035157 0.039062c0.03125 0.035156 0.136719 0.0625 1.007812 0.277344 0.535157 0.128906 0.980469 0.238281 0.988281 0.246094 0.003907 0.003906 0.03125 0.082031 0.058594 0.175781 0.070313 0.257812 0.175782 0.53125 0.304688 0.792969 0.0625 0.128906 0.113281 0.246093 0.109375 0.257812-0.007813 0.011719-0.253907 0.394531-0.558594 0.851562-0.300781 0.460938-0.554687 0.855469-0.5625 0.882813-0.011719 0.03125-0.011719 0.054687 0.003906 0.082031 0.011719 0.019532 0.234375 0.253906 0.496094 0.515625 0.429687 0.425781 0.484375 0.476563 0.527344 0.476563 0.039062 0 0.257812-0.125 0.925781-0.53125 0.480469-0.292969 0.882812-0.535156 0.894531-0.539063 0.011719-0.003906 0.125 0.042969 0.253907 0.109375 0.234374 0.117188 0.496093 0.222656 0.742187 0.300782l0.140625 0.042968 0.199219 0.953125c0.105469 0.519531 0.199219 0.972657 0.207031 1 0.003906 0.027344 0.023438 0.066407 0.039062 0.082031 0.027344 0.027344 0.058594 0.03125 0.734376 0.03125 0.550781 0 0.714843-0.003906 0.734374-0.019531z" fill="rgb(18.039216%, 20.392157%, 25.098041%)"/>
 <path d="m8.710938 1.421875c-1.011719 0-1.824219 0.8125-1.824219 1.820313v25.515624c0 1.007813 0.8125 1.820313 1.824219 1.820313h14.578124c1.011719 0 1.824219-0.8125 1.824219-1.820313v-25.515624c0-1.007813-0.8125-1.820313-1.824219-1.820313zm1.003906 1.820313h1.730468l0.910157 1.265624c0.179687 0.25 0.246093 0.558594 0.554687 0.558594h6.179688c0.308594 0 0.375-0.308594 0.554687-0.558594l0.910157-1.265624h1.730468c0.558594 0 1.003906 0.449218 1.003906 1.003906v23.507812c0 0.554688-0.445312 1.003906-1.003906 1.003906h-12.570312c-0.558594 0-1.003906-0.449218-1.003906-1.003906v-23.507812c0-0.554688 0.445312-1.003906 1.003906-1.003906z" fill="rgb(18.039216%, 20.392157%, 25.098041%)" fill-rule="evenodd"/>
 <path d="m12.734375 26.933594h6.53125c0.207031 0 0.378906 0.171875 0.378906 0.382812 0 0.210938-0.171875 0.378906-0.378906 0.378906h-6.53125c-0.207031 0-0.378906-0.167968-0.378906-0.378906 0-0.210937 0.171875-0.382812 0.378906-0.382812z" fill="rgb(18.039216%, 20.392157%, 25.098041%)" fill-rule="evenodd"/>
</svg>
