<?xml version="1.0" encoding="UTF-8"?>
<svg xmlns="http://www.w3.org/2000/svg" xmlns:xlink="http://www.w3.org/1999/xlink" width="48px" height="48px" viewBox="0 0 48 48" version="1.1">
<g id="surface1">
<path style=" stroke:none;fill-rule:nonzero;fill:rgb(18.039216%,20.392157%,25.098041%);fill-opacity:1;" d="M 8.53125 33.835938 C 5.433594 33.835938 2.917969 36.359375 2.917969 39.4375 C 2.917969 42.53125 5.433594 45.03125 8.53125 45.03125 C 11.636719 45.03125 14.152344 42.53125 14.152344 39.4375 C 14.152344 36.359375 11.640625 33.835938 8.53125 33.835938 Z M 2.921875 17.242188 L 2.921875 25.324219 C 8.1875 25.324219 13.132812 27.382812 16.859375 31.109375 C 20.578125 34.828125 22.636719 39.796875 22.636719 45.082031 L 30.75 45.082031 C 30.75 29.734375 18.261719 17.242188 2.921875 17.242188 Z M 2.933594 2.917969 L 2.933594 11 C 21.703125 11 36.976562 26.292969 36.976562 45.082031 L 45.082031 45.082031 C 45.082031 21.839844 26.171875 2.917969 2.933594 2.917969 Z M 2.933594 2.917969 "/>
<path style=" stroke:none;fill-rule:nonzero;fill:rgb(50.588238%,63.137257%,75.686276%);fill-opacity:1;" d="M 45.09375 33.621094 C 45.09375 39.921875 40.769531 45.027344 35.429688 45.027344 C 30.09375 45.027344 25.765625 39.921875 25.765625 33.621094 C 25.765625 27.320312 30.09375 22.214844 35.429688 22.214844 C 40.769531 22.214844 45.09375 27.320312 45.09375 33.621094 Z M 45.09375 33.621094 "/>
</g>
</svg>
