<svg width="48px" height="48px" version="1.1" viewBox="0 0 48 48" xmlns="http://www.w3.org/2000/svg">
 <path d="m8.5312 33.836c-3.0977 0-5.6133 2.5234-5.6133 5.6016 0 3.0938 2.5156 5.5938 5.6133 5.5938 3.1055 0 5.6211-2.5 5.6211-5.5938 0-3.0781-2.5117-5.6016-5.6211-5.6016zm-5.6094-16.594v8.082c5.2656 0 10.211 2.0586 13.938 5.7852 3.7188 3.7188 5.7773 8.6875 5.7773 13.973h8.1133c0-15.348-12.488-27.84-27.828-27.84zm0.011719-14.324v8.082c18.77 0 34.043 15.293 34.043 34.082h8.1055c0-23.242-18.91-42.164-42.148-42.164z" fill="#eceff4"/>
 <path d="m45.094 33.621c0 6.3008-4.3242 11.406-9.6641 11.406-5.3359 0-9.6641-5.1055-9.6641-11.406 0-6.3008 4.3281-11.406 9.6641-11.406 5.3398 0 9.6641 5.1055 9.6641 11.406z" fill="#81a1c1"/>
</svg>
