<svg width="64" height="64" version="1.1" viewBox="0 0 64 64" xmlns="http://www.w3.org/2000/svg" xmlns:xlink="http://www.w3.org/1999/xlink">
 <filter id="alpha" x="0" y="0" width="1" height="1">
  <feColorMatrix in="SourceGraphic" values="0 0 0 0 1 0 0 0 0 1 0 0 0 0 1 0 0 0 1 0"/>
 </filter>
 <mask id="mask0">
  <g filter="url(#alpha)">
   <rect width="64" height="64" fill-opacity=".4"/>
  </g>
 </mask>
 <clipPath id="clip1">
  <rect width="64" height="64"/>
 </clipPath>
 <g id="surface5" clip-path="url(#clip1)" fill="#eceff4" opacity=".5">
  <path d="m41.605 33.465c0.066406-0.46875 0.10156-0.94531 0.10156-1.4336v-16.391c0-5.4219-4.3438-9.8281-9.7031-9.8281-4.8945 0-8.9453 3.6914-9.5977 8.4727"/>
  <path d="m38.34 39.465c0.13672-0.12109 0.26953-0.24219 0.39844-0.37109"/>
  <path d="m22.316 31.906v0.125c0 5.4219 4.3438 9.8125 9.6875 9.8125 0.078125 0 0.15234 0 0.23047-0.003906"/>
  <path d="m35.098 44.707c-1 0.25-2.043 0.38281-3.1172 0.38281-7.1406 0-12.922-5.8594-12.922-13.09h-6.4414c0 9.7344 6.9844 17.777 16.16 19.328v3.5781h-3.2383v3.2812h12.922v-3.2812h-3.2383v-3.5781c1.7461-0.29688 3.4102-0.82422 4.9609-1.5508"/>
  <path d="m41.016 41.367c-0.12891 0.12891-0.25781 0.25-0.39062 0.375"/>
  <path d="m49.199 41.062c1.3945-2.707 2.1836-5.7891 2.1836-9.0625h-6.4688c0 1.4414-0.23047 2.8281-0.65234 4.125"/>
  <path d="m45.613 45.969c0-0.003906 0-0.003906 0.003907-0.003906"/>
  <path d="m45.227 46.344c0.13281-0.12109 0.26172-0.24609 0.38672-0.375"/>
  <path d="m8.1055 13.469 4.625-4.625 43.422 43.422-4.625 4.625z"/>
 </g>
 <use width="100%" height="100%" fill="#eceff4" mask="url(#mask0)" xlink:href="#surface5"/>
</svg>
