<svg viewBox="0 0 48 48" xmlns="http://www.w3.org/2000/svg">
 <g transform="matrix(2.6667 0 0 2.625 -5.3333 -4.875)" color="#eceff4" fill="#eceff4" opacity=".5">
  <path d="m11 3c-3.31 0-6.399 1.142-9 3.121l9 12.879 9-12.879c-2.601-1.979-5.69-3.121-9-3.121"/>
 </g>
 <path d="m24.01 45.991c3.084-0.098 3.158 6e-3 4.709-1.571 1.11-1.111 5.129-5.179 6.239-6.289 2.22 2.221 4.099 4.068 6.318 6.289 1.588 1.577 1.542 1.611 4.709 1.571-0.028-3.102 0.018-3.135-1.57-4.712-2.22-2.221-4.099-4.068-6.318-6.289 1.754-1.804 4.099-4.056 6.318-6.277 1.588-1.565 1.622-1.497 1.57-4.712-3.087 0.074-3.121 6e-3 -4.709 1.571-2.22 2.221-4.881 4.838-6.318 6.277-2.22-2.221-4.02-4.056-6.239-6.277-1.551-1.565-1.591-1.473-4.709-1.571-0.021 3.24 0.018 3.148 1.57 4.712 1.11 1.111 5.129 5.166 6.239 6.277-2.22 2.221-4.02 4.068-6.239 6.289-1.551 1.577-1.625 1.473-1.57 4.712z" fill="#bf616a" fill-rule="evenodd"/>
</svg>
