<svg viewBox="0 0 48 48" xmlns="http://www.w3.org/2000/svg">
 <path d="m9.5 6c-1.913 0-3.5 1.587-3.5 3.5v29c0 1.913 1.587 3.5 3.5 3.5h29c1.913 0 3.5-1.587 3.5-3.5v-29c0-1.913-1.587-3.5-3.5-3.5m-29 3h29c0.303 0 0.5 0.197 0.5 0.5v20.5h-30v-20.5c0-0.303 0.197-0.5 0.5-0.5m-0.5 24h14v6h-13.5c-0.303 0-0.5-0.197-0.5-0.5m16-5.5h14v5.5c0 0.303-0.197 0.5-0.5 0.5h-13.5" color="#eceff4" color-rendering="auto" fill="#eceff4" image-rendering="auto" shape-rendering="auto" solid-color="#eceff4000" isolation="auto" mix-blend-mode="normal" white-space="normal"/>
</svg>
