<svg viewBox="0 0 48 48" xmlns="http://www.w3.org/2000/svg">
 <g transform="matrix(2.1875 0 0 2.1875 -2.5234 -56.938)" fill="#eceff4">
  <g transform="translate(1.1241 26)">
   <path d="m8 5-3 3v6l3 3v-4l2-2-2-2"/>
   <path d="m2 8c-0.523 0-0.999 0.498-0.999 1v4c0 0.58 0.433 1 0.999 1h3.996v-6z"/>
  </g>
  <path d="m13.616 32-1.492 1.492 3.508 3.508-3.508 3.508 1.492 1.492 3.508-3.508 3.508 3.508 1.492-1.492-3.508-3.508 3.508-3.508-1.492-1.492-3.508 3.508" color="#eceff4" opacity=".5"/>
 </g>
</svg>
