<svg viewBox="0 0 48 48" xmlns="http://www.w3.org/2000/svg">
 <path d="m26.17 16.344-2.186 2.188c2.696 2.792 2.696 7.05 0 9.844l2.186 2.188c4.27-4.42 4.27-9.799 0-14.219z" color="#eceff4" fill="#eceff4"/>
 <path d="m29.448 15.25c4.431 4.435 4.431 13.07 0 17.5l3.278 3.281c6.349-6.354 6.349-17.708 0-24.06z" color="#eceff4" fill="#eceff4" opacity=".3"/>
 <path d="m34.912 10.875c7.789 7.377 7.675 18.873 0 26.25l3.278 3.281c10.189-9.844 10.304-22.969 0-32.813z" color="#eceff4" fill="#eceff4" opacity=".3"/>
 <g transform="matrix(2.1876 0 0 2.1875 -.064544 -.0625)" fill="#eceff4">
  <path d="m8 5-3 3v6l3 3v-4l2-2-2-2"/>
  <path d="m2 8c-0.523 0-0.999 0.498-0.999 1v4c0 0.58 0.433 1 0.999 1h3.996v-6z"/>
 </g>
</svg>
