<svg viewBox="0 0 48 48" xmlns="http://www.w3.org/2000/svg">
 <path d="m17.333 6c-3.682 0-6.667 3.02-6.667 6.75v11.273c0 3.728 2.984 6.75 6.667 6.75 3.682 0 6.667-3.02 6.667-6.75v-11.273c0-3.728-2.984-6.75-6.667-6.75" fill="#eceff4"/>
 <path d="m4 24c0 6.696 4.798 12.224 11.11 13.289v2.462h-2.222v2.25h8.889v-2.25h-2.222v-2.462c6.313-1.064 11.11-6.595 11.11-13.289h-4.444c0 4.97-3.98 9-8.889 9s-8.889-4.03-8.889-9h-4.444z" fill="#eceff4"/>
 <path d="m44 10.5a4.4444 4.5 0 0 1-8.8889 0 4.4444 4.5 0 1 1 8.8889 0z" fill="#eceff4" opacity=".3"/>
 <path d="m44 24a4.4444 4.5 0 0 1-8.8889 0 4.4444 4.5 0 1 1 8.8889 0z" fill="#eceff4" opacity=".3"/>
 <path d="m44 37.5a4.4444 4.5 0 0 1-8.8889 0 4.4444 4.5 0 1 1 8.8889 0z" fill="#eceff4" opacity=".3"/>
 <path d="m24.01 45.991c3.084-0.098 3.158 6e-3 4.709-1.571 1.11-1.111 5.129-5.179 6.239-6.289 2.22 2.221 4.099 4.068 6.318 6.289 1.588 1.577 1.542 1.611 4.709 1.571-0.028-3.102 0.018-3.135-1.57-4.712-2.22-2.221-4.099-4.068-6.318-6.289 1.754-1.804 4.099-4.056 6.318-6.277 1.588-1.565 1.622-1.497 1.57-4.712-3.087 0.074-3.121 6e-3 -4.709 1.571-2.22 2.221-4.881 4.838-6.318 6.277-2.22-2.221-4.02-4.056-6.239-6.277-1.551-1.565-1.591-1.473-4.709-1.571-0.021 3.24 0.018 3.148 1.57 4.712 1.11 1.111 5.129 5.166 6.239 6.277-2.22 2.221-4.02 4.068-6.239 6.289-1.551 1.577-1.625 1.473-1.57 4.712z" fill="#bf616a" fill-rule="evenodd"/>
</svg>
