<svg viewBox="0 0 48 48" xmlns="http://www.w3.org/2000/svg">
 <g transform="translate(3.0681 25.521)" fill="#eceff4">
  <g transform="matrix(2.1806 0 0 2.1806 -3.0542 -25.507)">
   <path d="m10.438 2c-0.311 0-0.563 0.251-0.563 0.563v2.662c0.363-0.069 0.743-0.125 1.125-0.125 0.393 0 0.752 0.052 1.125 0.125v-2.662c0-0.311-0.251-0.563-0.563-0.563m-6.125 2.063c-0.144 0-0.296 0.077-0.406 0.188l-0.781 0.781c-0.22 0.22-0.22 0.592 0 0.813l1.881 1.881c0.427-0.623 0.968-1.169 1.594-1.594l-1.881-1.881c-0.11-0.11-0.263-0.188-0.406-0.188m11.125 0.031c-0.148 0-0.296 0.046-0.406 0.156l-1.881 1.881c0.625 0.427 1.167 0.971 1.594 1.594l1.881-1.881c0.11-0.11 0.188-0.263 0.188-0.406 0-0.144-0.077-0.296-0.188-0.406l-0.781-0.781c-0.11-0.11-0.258-0.156-0.406-0.156m-14 5.781c-0.311 0-0.563 0.251-0.563 0.563v1.125c0 0.311 0.251 0.563 0.563 0.563h2.662c-0.068-0.36-0.125-0.746-0.125-1.125 0-0.39 0.053-0.755 0.125-1.125zm14.213 0c0.073 0.37 0.125 0.735 0.125 1.125 0 0.379-0.056 0.765-0.125 1.125h2.662c0.311 0 0.563-0.251 0.563-0.563v-1.125c0-0.311-0.251-0.563-0.563-0.563m-13.307 4.4-1.881 1.881c-0.22 0.22-0.22 0.592 0 0.813l0.781 0.781c0.22 0.22 0.561 0.22 0.781 0 0.605-0.594 1.312-1.285 1.912-1.881-0.626-0.423-1.166-0.973-1.594-1.594m9.707 0c-0.425 0.614-0.943 1.173-1.563 1.594l1.881 1.881c0.22 0.22 0.592 0.22 0.813 0l0.781-0.781c0.22-0.22 0.22-0.561 0-0.781-0.6-0.61-1.31-1.307-1.912-1.912zm-5.963 2.501v2.662c0 0.311 0.251 0.563 0.563 0.563h1.125c0.311 0 0.563-0.251 0.563-0.563v-2.662c-0.373 0.072-0.732 0.125-1.125 0.125-0.382 0-0.762-0.057-1.125-0.125z" color="#eceff4"/>
   <path d="m10.988 5.01c-3.315 0-6 2.714-6 6s2.685 5.977 6 5.977 6.02-2.69 6.02-5.977c0-3.286-2.709-6-6.02-6zm0 2.224c2.07 0 3.741 1.678 3.741 3.776s-1.671 3.753-3.741 3.753-3.741-1.654-3.741-3.753c0-2.098 1.671-3.776 3.741-3.776z" color="#eceff4" stroke-width="3.01"/>
  </g>
  <ellipse cx="20.625" cy="-1.853" rx="9.288" ry="9.535"/>
 </g>
</svg>
