<svg viewBox="0 0 48 48" xmlns="http://www.w3.org/2000/svg">
 <path d="m17.333 6c-3.682 0-6.667 3.02-6.667 6.75v11.273c0 3.728 2.984 6.75 6.667 6.75 3.682 0 6.667-3.02 6.667-6.75v-11.273c0-3.728-2.984-6.75-6.667-6.75" fill="#eceff4"/>
 <path d="m4 24c0 6.696 4.798 12.224 11.11 13.289v2.462h-2.222v2.25h8.889v-2.25h-2.222v-2.462c6.313-1.064 11.11-6.595 11.11-13.289h-4.444c0 4.97-3.98 9-8.889 9s-8.889-4.03-8.889-9h-4.444z" fill="#eceff4"/>
 <path d="m44 10.5a4.4444 4.5 0 0 1-8.8889 0 4.4444 4.5 0 1 1 8.8889 0z" fill="#eceff4" opacity=".3"/>
 <path d="m44 24a4.4444 4.5 0 0 1-8.8889 0 4.4444 4.5 0 1 1 8.8889 0z" fill="#eceff4"/>
 <path d="m44 37.5a4.4444 4.5 0 0 1-8.8889 0 4.4444 4.5 0 1 1 8.8889 0z" fill="#eceff4"/>
</svg>
