<svg viewBox="0 0 48 48" xmlns="http://www.w3.org/2000/svg">
 <path d="m15 7-8 9h15v-9h-7zm11 0v9h15l-8-9h-7zm-19 12v22h19.678l0.986-3.328-0.506-0.195 1.135-2.822c0.132-0.327 0.37-0.579 0.531-0.887l0.213-0.723 0.162 0.088c1.946-3.137 5.37-5.131 9.164-5.131 0.903 0 1.786 0.118 2.637 0.328v-9.33h-34z" fill="#4c566a"/>
 <g transform="matrix(1.3636 0 0 1.3636 23.364 23.5)" fill="#a3be8c">
  <g transform="matrix(.34783 0 0 .34783 2.6436 2.6457)">
   <path transform="matrix(2.875 0 0 2.875 97.068 -33.481)" d="m-25.406 14.5c2.304 0 4.367 1.303 5.281 3.313l1.219-0.469-1 3.469-3.313-1.844 1.281-0.5c-0.621-1.31-1.954-2.125-3.469-2.125-1.573 0-2.996 0.94-3.563 2.344l-1.781-0.688c0.845-2.104 2.985-3.5 5.344-3.5zm-5.5 4.719 3.313 1.781-1.281 0.5c0.613 1.305 1.964 2.156 3.469 2.156 1.576 0 2.979-0.91 3.563-2.313l1.781 0.688c-0.877 2.103-2.979 3.469-5.344 3.469-2.292 0-4.387-1.339-5.281-3.344l-1.219 0.438z"/>
  </g>
 </g>
</svg>
