<svg viewBox="0 0 48 48" xmlns="http://www.w3.org/2000/svg">
 <path d="m15 7-8 9h15v-9zm11 0v9h15l-8-9zm-19 12v22h21.12l0.225-0.225c-0.173-0.756-0.27-1.543-0.27-2.348 0-5.724 4.704-10.428 10.428-10.428 0.86 0 1.693 0.119 2.494 0.318v-9.318" fill="#4c566a"/>
 <path d="m45.935 38.429c0-4.104-3.321-7.429-7.429-7.429-4.104 0-7.429 3.324-7.429 7.429 0 1.134 0.25 2.198 0.696 3.163l-2.786 2.786c-1.319 1.309-1.319 1.322 0 2.641 1.309 1.309 1.322 1.309 2.641 0l2.554-2.554c1.226 0.872 2.708 1.393 4.324 1.393 4.108 0 7.429-3.324 7.429-7.429zm-3.714-0.116c0.031 1-0.346 1.98-1.046 2.702s-1.663 1.128-2.668 1.128c-2.051 0-3.712-1.663-3.712-3.714s1.661-3.714 3.712-3.714c2.01-2e-3 3.651 1.592 3.714 3.598z" fill="#88c0d0" fill-rule="evenodd"/>
</svg>
