<svg version="1.1" viewBox="0 0 32 32" xmlns="http://www.w3.org/2000/svg">
 <path d="M 9.332,0.008 H 22.668 C 26,0.008 26,-0.324 26,3.34 V 16.668 C 26,20 26,20 22.668,20 H 9.332 C 6,20 6,20 6,16.668 V 3.34 C 6,0.008 6,0.008 9.332,0.008 Z" fill="#2e3440" fill-opacity=".941" fill-rule="evenodd" opacity=".6"/>
 <path d="m 3.1992,8 h 25.602 c 3.1992,0 3.1992,0 3.1992,3.1992 v 9.6016 C 32.0004,24 32.0004,24 28.8012,24 H 3.1992 C 0,24 0,24 0,20.8008 V 11.1992 C 0,8 0,8 3.1992,8 Z" fill="#2e3440" fill-rule="evenodd"/>
 <path d="m6 16h20v16h-20z" fill="#bf616a"/>
 <path d="m14 28.114h4v2.8489h-4zm0-10.114h4v9.111h-4z" fill="#2e3440" stroke-linecap="round" stroke-width=".34454"/>
</svg>
