<svg viewBox="0 0 48 48" xmlns="http://www.w3.org/2000/svg">
 <path d="m24 2.01c-3.096 0.108-4.851 11.05-7.375 12.865-2.537 1.824-13.581-0.04-14.559 2.924-0.978 2.965 9.01 8.04 9.967 11.02 0.954 2.972-4.183 12.879-1.66 14.723 2.524 1.845 10.452-6.06 13.58-6.04 0.014 0 0.032 7e-3 0.047 8e-3 1.624-11.831 1.438-23.661 0-35.492z" color="#eceff4" fill="#ebcb8b"/>
 <path d="m24.05 2c-0.017 0-0.034 5e-3 -0.051 6e-3v35.492c3.155 0.086 10.91 8.05 13.436 6.232 2.538-1.825-2.541-11.855-1.563-14.82 0.979-2.964 11.02-7.948 10.06-10.92-0.955-2.973-12.03-1.176-14.557-3.02-2.522-1.845-4.201-12.957-7.328-12.969z" fill="#7b88a1"/>
</svg>
