<svg width="64" height="64" version="1.1" viewBox="0 0 64 64" xmlns="http://www.w3.org/2000/svg">
 <g fill="#eceff4" stroke="#eceff4">
  <path transform="matrix(.42237 .24386 -.24386 .42237 25.967 -3.8342)" d="m9.6886 34.392c4.14-2.8249 8.1853-3.9397 12.25-4.1874-3.6336-3.0257-6.3412-7.3629-7.7879-13.649-0.012014-0.020809-0.021097-0.052558-0.023243-0.088313-0.19854-0.85645 0.33511-1.7102 1.1916-1.9087 3.1598-0.74229 6.4592-0.71429 9.8686-0.046999 1.8594 0.36921 3.7554 0.93 5.68 1.6685-0.76663-1.7123-1.2662-3.4585-1.4589-5.2339-0.32897-3.1487 0.31945-6.3346 2.2228-9.4774 0.28402-0.46918 0.78929-0.7794 1.3704-0.78199 3.1323-0.005031 5.9206 1.4926 8.3682 3.8897 1.9258 1.8939 3.6386 4.3639 5.1409 7.0941 1.0896-2.71 2.5255-5.0927 4.2854-6.9782 2.4244-2.5928 5.431-4.2732 9.0205-4.6717 0.68198-0.11629 1.3798 0.21141 1.6986 0.8597 1.3502 2.7071 1.7792 5.7888 1.5412 8.9967-0.15647 2.1157-0.59976 4.2953-1.2667 6.4561 1.3484-0.61201 2.7987-1.0794 4.3579-1.4063 3.0312-0.61257 6.4624-0.66065 10.322-0.031139l0.061641 0.010653c0.87284 0.1342 1.4705 0.94516 1.3502 1.81-0.88416 6.0133-3.4088 10.403-6.9851 13.531 3.2741 0.38476 6.7251 1.4443 10.631 3.6929 1.5049 0.86056 2.8525 1.849 4.0525 2.9503 1.216 1.1291 2.2667 2.3722 3.137 3.7194 3.6734 5.7217 3.9245 13.669 2.403 21.798-2.0025 10.756-7.1195 21.932-11.344 28.311-3.4142 5.1712-7.6826 10.401-12.958 15.712-5.2487 5.2777-11.481 10.614-18.856 16.038-0.75655 0.54778-1.7481 0.52836-2.4706 0.029895-7.6544-5.3285-14.473-10.908-20.362-16.766-5.9074-5.8747-10.87-12.036-14.789-18.503-4.7988-7.9112-10.054-20.313-10.33-31.556-0.2125-8.4413 2.3107-16.261 9.6776-21.282zm5.3929 21.931c1.9974-2.5313 2.7027-4.113 2.6974-5.5157-0.001259-1.3958-0.98126-2.8369-2.6999-2.8342-1.7296-2.33e-4 -2.532 1.3971-2.5267 2.7999 0.012199 1.3987 0.57851 2.5237 2.5292 5.55zm39.181 49.618c1.9974-2.5313 2.6958-4.109 2.7014-5.5088-0.005263-1.4027-0.98526-2.8438-2.7039-2.8411-1.7296-2.32e-4 -2.532 1.3971-2.5267 2.7999-0.005677 1.3998 0.57158 2.5277 2.5292 5.55zm-15.243-0.90061c1.9974-2.5313 2.7027-4.113 2.7014-5.5088-0.005264-1.4027-0.98126-2.8369-2.7039-2.8411-1.7296-2.33e-4 -2.528 1.4041-2.5267 2.7999 0.012199 1.3987 0.58252 2.5307 2.5292 5.55zm-7.766-14.54c1.9974-2.5313 2.6958-4.109 2.7014-5.5088-0.005263-1.4027-0.98526-2.8438-2.7039-2.8411-1.7296-2.33e-4 -2.532 1.3971-2.5267 2.7999s0.57558 2.5347 2.5292 5.55zm30.906-0.003741c2.0015-2.5243 2.6998-4.102 2.7014-5.5088-0.001258-1.3958-0.98126-2.8369-2.6999-2.8342-1.7296-2.33e-4 -2.532 1.3971-2.5308 2.7929 0.005264 1.4027 0.58252 2.5307 2.5292 5.55zm-15.679-1.4629c1.9974-2.5313 2.7027-4.113 2.6974-5.5157 0.005678-1.3998-0.98126-2.8369-2.6999-2.8342-1.7296-2.33e-4 -2.5251 1.3931-2.5267 2.7999 0.012199 1.3987 0.57558 2.5347 2.5292 5.55zm24.203-13.872c1.9974-2.5313 2.6958-4.109 2.6974-5.5157-0.001258-1.3958-0.98126-2.8369-2.6999-2.8342-1.7296-2.33e-4 -2.532 1.3971-2.5267 2.7999-0.005678 1.3998 0.57158 2.5277 2.5292 5.55zm-14.665-1.1327c2.0015-2.5243 2.7027-4.113 2.7014-5.5088-0.001259-1.3958-0.98126-2.8369-2.7039-2.8411-1.7186 0.002699-2.528 1.4041-2.5267 2.7999 0.005263 1.4027 0.58252 2.5307 2.5292 5.55zm-17.49-0.001464c2.0015-2.5243 2.7067-4.106 2.7014-5.5088-0.001258-1.3958-0.98126-2.8369-2.6999-2.8342-1.7296-2.33e-4 -2.532 1.3971-2.5308 2.7929 0.005264 1.4027 0.58252 2.5307 2.5292 5.55zm-15.228 0.006333c1.9974-2.5313 2.7027-4.113 2.6974-5.5157 0.005678-1.3998-0.98126-2.8369-2.693-2.8382-1.7365 0.003772-2.532 1.3971-2.5337 2.8039 0.001259 1.3958 0.57851 2.5237 2.5292 5.55zm54.121-17.717c2.0015-2.5243 2.6998-4.102 2.7014-5.5088-0.001258-1.3958-0.98126-2.8369-2.7039-2.8411-1.7296-2.33e-4 -2.528 1.4041-2.5267 2.7999 0.005264 1.4027 0.57558 2.5347 2.5292 5.55zm-15.34 0.005836c1.9974-2.5313 2.7027-4.113 2.6974-5.5157-0.001259-1.3958-0.98126-2.8369-2.6999-2.8342-1.7296-2.33e-4 -2.532 1.3971-2.5267 2.7999 0.0122 1.3987 0.57851 2.5237 2.5292 5.55zm-14.809-0.004478c1.9974-2.5313 2.6958-4.109 2.7014-5.5088-0.001259-1.3958-0.98126-2.8369-2.7039-2.8411-1.7186 0.002699-2.528 1.4041-2.5267 2.7999 0.005263 1.4027 0.57558 2.5347 2.5292 5.55zm-17.202-7.57e-4c2.0015-2.5243 2.6998-4.102 2.7014-5.5088-0.001259-1.3958-0.98126-2.8369-2.6999-2.8342-1.7296-2.33e-4 -2.532 1.3971-2.5308 2.7929-0.001672 1.4067 0.58252 2.5307 2.5292 5.55zm-1.9267-25.939c2.1806 0.22075 4.3796 0.56958 6.6265 0.93706 3.9447 0.61721 8.0525 1.2605 12.313 1.2236 4.0739-0.040027 7.7791-0.1261 11.198-0.74039 2.5035-0.43735 4.8307-1.4203 7.2281-1.5929 0.35375-0.20424 0.70056-0.40448 1.0423-0.62952 3.8357-2.455 6.7287-6.2062 7.8972-11.727-2.8437-0.32807-5.4004-0.23917-7.6584 0.22291-2.7652 0.56071-5.1196 1.6888-7.0846 3.2672-0.68103 0.55042-1.6849 0.44562-2.2353-0.23541-0.38066-0.4831-0.44997-1.0997-0.21987-1.6303 1.411-3.2747 2.4003-6.6389 2.6266-9.8031l0.002932-0.01094c0.16976-2.2529-0.048404-4.3928-0.75425-6.2881-2.3244 0.49119-4.3386 1.7281-5.9937 3.5068-2.1672 2.3333-3.7799 5.595-4.7942 9.3806-0.21772 0.85632-1.0986 1.3649-1.9451 1.1323-0.4814-0.12899-0.86041-0.46507-1.0511-0.8914-1.7076-3.7585-3.7946-7.261-6.2123-9.6385-1.6095-1.5863-3.3706-2.6504-5.2385-2.9222-1.1573 2.2404-1.5467 4.4814-1.3213 6.6818 0.29041 2.7456 1.5494 5.4868 3.5232 8.1206 0.52668 0.70399 0.37812 1.6961-0.32186 2.2297-0.52179 0.39374-1.1883 0.40864-1.7151 0.1209-3.2759-1.6693-6.4472-2.8532-9.4829-3.4496-2.4003-0.4731-4.7215-0.58494-6.9454-0.27202 1.8855 6.6616 5.5151 10.577 10.225 12.889 0.10941 0.029315 0.19801 0.070645 0.29062 0.11891zm35.018 4.364c-4.9939 1.8105-10.705 2.3794-16.346 2.187-5.1378-0.16882-10.064-0.57998-14.506-1.7056-7.1279-1.1007-13.736-1.7339-20.218 2.6741-5.9812 4.073-8.0126 10.582-7.8419 17.67 0.25611 10.423 5.1906 22.029 9.7102 29.473 3.728 6.1526 8.48 12.029 14.159 17.684 5.3834 5.3356 11.59 10.464 18.551 15.407 6.6587-4.982 12.329-9.8652 17.131-14.7 5.0587-5.0941 9.1641-10.109 12.43-15.056 3.9906-6.0311 8.8183-16.587 10.721-26.731 1.339-7.1637 1.1951-14.045-1.8022-18.723-0.68931-1.0818-1.5112-2.0407-2.439-2.9108-0.95767-0.88983-2.053-1.6817-3.283-2.3865-6.1174-3.5153-11.092-3.5935-16.267-2.8809z" fill="#eceff4" stroke="#eceff4" stroke-width="2.7915"/>
 </g>
</svg>
