<svg width="48" height="48" version="1.1" viewBox="0 0 12.7 12.7" xmlns="http://www.w3.org/2000/svg">
 <defs>
  <linearGradient id="linearGradient3005" x1="36.089" x2="31.853" y1="14.529" y2="10.976" gradientTransform="matrix(.60759 0 0 .60759 -17.823 1.4548)" gradientUnits="userSpaceOnUse">
   <stop stop-color="#5e81ac" offset="0"/>
   <stop stop-color="#5e81ac" offset="1"/>
  </linearGradient>
 </defs>
 <path d="m3.7251 10.694c-0.45206-0.92354-0.55621-1.4422-0.55621-1.4422s0.63329 0.66009 1.2816 0.69745l-0.72972-1.0555s-1.7239-0.57828-2.19-0.76964c0.21418 1.8381 2.1944 2.5698 2.1944 2.5698z" fill="url(#linearGradient3005)" stroke-width=".60759"/>
 <path d="m1.4436 8.4196 7.3227 2.3965 2.0416-5.6787-8.7712-1.6112c-1.0617 0.78428-0.59272 4.8934-0.59272 4.8934z" fill="#eceff4" stroke-width=".60759"/>
 <path d="m1.4436 8.4196 7.3227 2.3965 1.8569-5.4087-6.1555 2.1648-2.6159-3.7759c-1.0617 0.78428-0.40801 4.6233-0.40801 4.6233z" fill="none" stroke="#7b88a1" stroke-width=".1688"/>
 <path d="m5.5582 0.95523c-0.53738 0.028459-1.1373 0.34346-1.6066 0.86815-1.7479 0.78218-2.56 1.9938-2.8912 3.1284-0.73622 2.5224 0.75005 5.1477 2.6644 5.7417-2.2392-1.1012-2.2941-3.2014-2.2567-4.3015 0.22038 0.33606 0.66506 0.37723 0.66506 0.37723-0.049649-0.077005-0.094094-0.1523-0.13436-0.22685-0.14864-0.36851-0.2591-1.0221-0.075446-1.6149 0.11506-0.37134 0.49028-0.89805 0.99579-1.0609 0.034867 0.27554 0.12544 0.52547 0.063561 0.81957h-5.291e-4c-0.33542 0.58117 0.01602 0.9715 0.01602 0.9715l5.291e-4 -5.291e-4c0.4636-0.51083 0.57883-0.42298 1.0108-0.67126 0.49352-0.28369 0.93487-0.59038 1.0997-0.56791 0.66191-0.095653 0.97417 0.075073 1.6981 0.20618 0.45945 0.08322 0.95733 0.14381 1.3456 0.19172 0.16321 0.36774 0.24685 0.75057 0.2775 1.1053 0 0 0.1087 1.1809-0.25114 1.8732 0.28392-0.16048 0.51034-0.34278 0.68935-0.52244 0.034765 0.98114-0.6785 1.7838-0.6785 1.7838 0.26995-0.083303 0.49558-0.17465 0.68367-0.26716-0.11743 0.64431-0.5844 1.9803-2.4386 2.8644 1.5297-0.19507 2.1538-0.93636 2.1538-0.93636s-0.13869 0.51204-1.0676 1.0278c3.253-0.59277 4.1211-3.5775 4.1211-3.5775-8.21e-4 -0.00228-0.0017-0.00448-0.0026-0.00672 0.45855-1.4372 0.02078-3.2054-0.54827-4.1873-0.33802-0.59053-0.84269-1.0897-1.1586-1.3699-0.046897-0.044181-0.096462-0.086567-0.14779-0.12764-0.08815-0.073604-0.14262-0.11472-0.14262-0.11472l-0.00259 0.00465c-0.045327-0.03272-0.091566-0.0651-0.13848-0.097137-0.51949-0.35478-1.1062-0.57641-1.4107-0.64388-1.1635-0.43002-1.9806-0.35088-2.5109-0.2961 0 0 0.026532-0.053881 0.11059-0.12609 0.00315-0.00266 0.00631-0.00528 0.0093-0.00775 0.00114-9.392e-4 0.00246-0.00215 0.00362-0.0031 0.00809-0.00666 0.017272-0.013764 0.026355-0.02067 0.00817-0.0063 0.012919-0.010335 0.012919-0.010335-0.22616-0.01211-0.59346 0.23604-0.68418 0.28473 9.525e-4 -0.00321 0.00196-0.00656 0.0031-0.00982 2.646e-4 -7.223e-4 7.408e-4 -0.00134 0.00103-0.00207 0.00361-0.00932 0.00755-0.018904 0.012401-0.028422 0.00349-0.00684 0.0073-0.013755 0.011369-0.02067 0.00407-0.00692 0.00883-0.013699 0.013435-0.02067 8.202e-4 -0.00126 0.00175-0.00236 0.00259-0.00362 0.00626-0.00913 0.012467-0.018648 0.019637-0.027905 8.202e-4 -0.00107 0.00177-0.00203 0.00259-0.0031 8.996e-4 -0.00116 0.00167-0.00246 0.00259-0.00362 9.789e-4 -0.00126 0.00212-0.00235 0.0031-0.00362 0.11984-0.14893 0.34241-0.30765 0.40875-0.35346l5.292e-4 -5.1592e-4c0.011898-0.008023 0.018603-0.012402 0.018603-0.012402z" fill="#5e81ac" stroke-width=".60759"/>
</svg>
