<svg enable-background="new" viewBox="0 0 48 48" xmlns="http://www.w3.org/2000/svg">
 <path d="m17.477 10c-0.349 0-0.722 0.017-1.101 0.065-6.06 0.78-5.874 5.978-5.874 5.978-2.481 0.422-4.501 2.587-4.501 4.851s2.584 4.269 4.757 4.851c1.292 0.347 2.985 0 2.985 0 0.767 1.353 3.296 2.254 5.06 2.254 2.876 0 5.832-0.954 6.513-2.254 0 0 11.91 0.953 14.382 0 3.599-1.388 2.474-5.721 0.08-7.187s-5.523-0.441-5.523-0.441-0.014-2.984-3.4-4.41-6.241 1.731-6.241 1.731-1.897-5.407-7.135-5.439z" fill="#eceff4"/>
 <g transform="matrix(2.2512 0 0 2.2569 -.1421 1.8753)" fill="#eceff4">
  <path d="m4.574 14.993c-1.224-0.343 0.029-2.66 0.781-3.417 0.362 1 0.443 3.76-0.781 3.417z"/>
  <path d="m7.435 17.419c-1.393-0.39 0.033-3.03 0.888-3.888 0.412 1.139 0.505 4.278-0.888 3.888"/>
  <path d="m11.194 15.467c-1.248-0.35 0.03-2.712 0.796-3.485 0.369 1.021 0.452 3.834-0.796 3.485z"/>
  <path d="m13.478 17.965c-1.465-0.41 0.035-3.183 0.934-4.09 0.433 1.198 0.531 4.5-0.934 4.09z"/>
  <path d="m16.292 15.269c-1.32-0.37 0.031-2.869 0.842-3.686 0.39 1.08 0.478 4.056-0.842 3.686z"/>
 </g>
</svg>
