<svg enable-background="new" viewBox="0 0 48 48" xmlns="http://www.w3.org/2000/svg">
 <path d="m17.477 10c-0.349 0-0.722 0.017-1.101 0.065-6.06 0.78-5.874 5.978-5.874 5.978-2.481 0.422-4.501 2.587-4.501 4.851s2.584 4.269 4.757 4.851c1.292 0.347 2.985 0 2.985 0 0.767 1.353 3.296 2.254 5.06 2.254 2.876 0 5.832-0.954 6.513-2.254 0 0 11.91 0.953 14.382 0 3.599-1.388 2.474-5.721 0.08-7.187s-5.523-0.441-5.523-0.441-0.014-2.984-3.4-4.41-6.241 1.731-6.241 1.731-1.897-5.407-7.135-5.439z" fill="#eceff4"/>
 <g transform="matrix(2.2398 0 0 2.2398 .28046 1.5628)">
  <path d="m5.367 11.485c-0.797 0.392-2.719 1.835-2.311 2.377 0.408 0.541 1.924-1.543 2.311-2.377zm12.142 0.259c-0.797 0.392-2.724 1.83-2.316 2.372 0.408 0.541 1.928-1.538 2.316-2.372zm-3.066 0.124c-0.797 0.392-2.724 1.835-2.316 2.377 0.408 0.541 1.928-1.543 2.316-2.377zm-2.761 0.398c-0.797 0.392-2.724 1.835-2.316 2.377 0.408 0.541 1.928-1.543 2.316-2.377zm-3.258 0.363c-0.797 0.392-2.724 1.835-2.316 2.377 0.408 0.541 1.928-1.543 2.316-2.377zm-2.963 1.8c-0.797 0.392-2.724 1.835-2.316 2.377 0.408 0.541 1.928-1.543 2.316-2.377zm8.837 0.244c-0.797 0.392-2.724 1.835-2.316 2.377 0.408 0.541 1.928-1.543 2.316-2.377zm-3.165 0.666c-0.797 0.392-2.724 1.835-2.316 2.377 0.408 0.541 1.928-1.543 2.316-2.377zm4.759 0.482c-0.797 0.392-2.724 1.835-2.316 2.377 0.408 0.541 1.928-1.543 2.316-2.377zm-7.839 0.214c-0.797 0.392-2.724 1.835-2.316 2.377 0.408 0.541 1.928-1.543 2.316-2.377" fill="#eceff4"/>
 </g>
</svg>
