<svg enable-background="new" viewBox="0 0 48 48" xmlns="http://www.w3.org/2000/svg">
 <path d="m17.477 12c-0.349 0-0.722 0.017-1.101 0.065-6.06 0.78-5.874 5.978-5.874 5.978-2.481 0.422-4.501 2.587-4.501 4.851s2.584 4.269 4.757 4.851c1.292 0.347 2.985 0 2.985 0 0.767 1.353 3.296 2.254 5.06 2.254 2.876 0 5.832-0.954 6.513-2.254 0 0 11.91 0.953 14.382 0 3.599-1.388 2.474-5.721 0.08-7.187s-5.523-0.441-5.523-0.441-0.014-2.984-3.4-4.41-6.241 1.731-6.241 1.731-1.897-5.407-7.135-5.439z" fill="#eceff4"/>
 <path d="m22 20 0.5 12h3l0.5-12h-4zm0 14v4h4v-4h-4z" color="#eceff4" fill="#bf616a"/>
</svg>
