<svg enable-background="new" viewBox="0 0 48 48" xmlns="http://www.w3.org/2000/svg">
 <path d="m17.477 10c-0.349 0-0.722 0.017-1.101 0.065-6.06 0.78-5.874 5.978-5.874 5.978-2.481 0.422-4.501 2.587-4.501 4.851s2.584 4.269 4.757 4.851c1.292 0.347 2.985 0 2.985 0 0.767 1.353 3.296 2.254 5.06 2.254 2.876 0 5.832-0.954 6.513-2.254 0 0 11.91 0.953 14.382 0 3.599-1.388 2.474-5.721 0.08-7.187s-5.523-0.441-5.523-0.441-0.014-2.984-3.4-4.41-6.241 1.731-6.241 1.731-1.897-5.407-7.135-5.439z" fill="#eceff4"/>
 <g transform="matrix(2.2488 0 0 2.2488 .043537 1.3971)">
  <path d="m4.777 11.663c-0.043 0.011-0.073 0.052-0.071 0.099v0.298l-0.251-0.169c-0.104-0.069-0.203 0.094-0.099 0.164l0.35 0.233v0.541l-0.444-0.268-0.019-0.436c0-0.063-0.055-0.109-0.113-0.094-0.043 0.011-0.073 0.052-0.071 0.099l0.014 0.317-0.246-0.149c-0.11-0.094-0.225 0.105-0.095 0.164l0.251 0.149-0.269 0.149c-0.137 0.048-0.03 0.26 0.085 0.169l0.373-0.198 0.444 0.268-0.449 0.268-0.369-0.198c-0.115-0.092-0.222 0.12-0.085 0.169l0.265 0.144-0.246 0.149c-0.107 0.066-0.013 0.235 0.095 0.169l0.246-0.149-0.014 0.317c-4e-3 0.13 0.182 0.134 0.184 5e-3l0.019-0.436 0.444-0.268v0.541l-0.35 0.233c-0.105 0.069-5e-3 0.234 0.099 0.164l0.251-0.169v0.298c0 0.129 0.184 0.129 0.184 0v-0.298l0.255 0.169c0.104 0.071 0.204-0.095 0.099-0.164l-0.355-0.233v-0.546l0.444 0.273 0.019 0.436c4e-3 0.128 0.187 0.124 0.184-5e-3l-0.014-0.317 0.246 0.149c0.107 0.066 0.202-0.102 0.095-0.169l-0.246-0.149 0.265-0.144c0.137-0.048 0.03-0.26-0.085-0.169l-0.369 0.198-0.449-0.268 0.444-0.268 0.373 0.198c0.115 0.092 0.222-0.12 0.085-0.169l-0.269-0.149 0.251-0.149c0.131-0.058 0.015-0.258-0.095-0.164l-0.246 0.149 0.014-0.317c4e-3 -0.067-0.057-0.118-0.118-0.099-0.04 0.012-0.067 0.051-0.066 0.094l-0.019 0.436-0.444 0.268v-0.541l0.355-0.233c0.104-0.069 5e-3 -0.233-0.099-0.164l-0.255 0.169v-0.298c1e-3 -0.055-0.042-0.101-0.095-0.099-6e-3 -1e-3 -0.013-1e-3 -0.019 0zm11.713 0.243c-0.045 9e-3 -0.078 0.051-0.076 0.099v0.298l-0.251-0.169c-0.104-0.068-0.202 0.094-0.099 0.164l0.35 0.233v0.541l-0.444-0.268-0.019-0.436c0-0.063-0.055-0.109-0.113-0.094-0.043 0.011-0.073 0.052-0.071 0.099l0.014 0.317-0.246-0.149c-0.113-0.108-0.235 0.115-0.09 0.164l0.246 0.149-0.269 0.149c-0.137 0.048-0.03 0.26 0.085 0.169l0.373-0.198 0.444 0.268-0.444 0.268-0.373-0.198c-0.115-0.092-0.222 0.12-0.085 0.169l0.265 0.144-0.241 0.149c-0.115 0.06-0.019 0.239 0.09 0.169l0.246-0.149-0.014 0.317c-4e-3 0.13 0.182 0.134 0.184 5e-3l0.019-0.436 0.444-0.268v0.541l-0.35 0.233c-0.104 0.069-5e-3 0.233 0.099 0.164l0.251-0.169v0.298c0 0.129 0.184 0.129 0.184 0v-0.298l0.255 0.169c0.104 0.069 0.203-0.094 0.099-0.164l-0.355-0.233v-0.546l0.444 0.273 0.019 0.436c4e-3 0.128 0.187 0.123 0.184-5e-3l-0.014-0.317 0.246 0.149c0.107 0.066 0.202-0.103 0.095-0.169l-0.241-0.149 0.26-0.144c0.137-0.048 0.03-0.26-0.085-0.169l-0.369 0.198-0.444-0.268 0.444-0.268 0.369 0.198c0.115 0.092 0.222-0.12 0.085-0.169l-0.265-0.149 0.246-0.149c0.131-0.058 0.015-0.258-0.095-0.164l-0.246 0.149 0.014-0.317c3e-3 -0.065-0.054-0.114-0.113-0.099-0.042 0.01-0.071 0.049-0.071 0.094l-0.019 0.436-0.444 0.268v-0.541l0.355-0.233c0.103-0.07 4e-3 -0.232-0.099-0.164l-0.255 0.169v-0.298c1e-3 -0.053-0.039-0.098-0.09-0.099h-0.018zm-4.354 0.337c-0.058 0.015-0.098 0.071-0.095 0.134v0.397l-0.34-0.228c-0.139-0.093-0.271 0.126-0.132 0.218l0.473 0.312v0.729l-0.596-0.362-0.024-0.59c-2e-3 -0.078-0.069-0.136-0.142-0.124-0.064 0.01-0.11 0.071-0.104 0.139l0.014 0.417-0.326-0.198c-0.145-0.086-0.268 0.142-0.123 0.228l0.326 0.198-0.355 0.193c-0.168 0.071-0.038 0.332 0.113 0.228l0.496-0.268 0.596 0.357-0.596 0.362-0.496-0.268c-0.152-0.104-0.282 0.157-0.113 0.228l0.355 0.193-0.326 0.198c-0.161 0.08-0.024 0.329 0.123 0.223l0.326-0.198-0.014 0.422c-0.018 0.183 0.25 0.193 0.246 0.01l0.024-0.585 0.596-0.362v0.724l-0.473 0.312c-0.138 0.093-6e-3 0.31 0.132 0.218l0.34-0.228v0.402c-0.013 0.185 0.259 0.185 0.246 0v-0.402l0.34 0.228c0.138 0.092 0.27-0.125 0.132-0.218l-0.473-0.312v-0.724l0.6 0.362 0.019 0.585c-4e-3 0.184 0.263 0.173 0.246-0.01l-0.014-0.422 0.326 0.198c0.147 0.106 0.284-0.143 0.123-0.223l-0.326-0.198 0.355-0.193c0.168-0.071 0.038-0.332-0.113-0.228l-0.492 0.268-0.6-0.357 0.6-0.362 0.492 0.268c0.152 0.104 0.282-0.157 0.113-0.228l-0.355-0.193 0.326-0.198c0.145-0.086 0.022-0.314-0.123-0.228l-0.326 0.198 0.014-0.417c7e-3 -0.084-0.063-0.152-0.142-0.139-0.059 0.01-0.102 0.062-0.104 0.124l-0.019 0.585-0.6 0.362v-0.724l0.473-0.312c0.138-0.093 6e-3 -0.311-0.132-0.218l-0.34 0.228v-0.397c3e-3 -0.079-0.062-0.143-0.137-0.134h-0.014zm-4.264 2.579c-5e-3 1e-3 -0.01 3e-3 -0.014 5e-3 -0.057 0.014-0.096 0.068-0.095 0.129v0.402l-0.34-0.228c-0.139-0.093-0.271 0.126-0.132 0.218l0.473 0.312v0.724l-0.6-0.362-0.019-0.585c0-0.085-0.078-0.147-0.156-0.124-0.056 0.017-0.094 0.073-0.09 0.134l0.014 0.422-0.326-0.198c-0.147-0.106-0.284 0.143-0.123 0.223l0.326 0.198-0.355 0.193c-0.168 0.071-0.038 0.332 0.113 0.228l0.492-0.268 0.596 0.357-0.596 0.362-0.492-0.268c-0.152-0.104-0.282 0.157-0.113 0.228l0.355 0.193-0.326 0.198c-0.145 0.086-0.022 0.314 0.123 0.228l0.326-0.198-0.014 0.417c-0.018 0.18 0.244 0.195 0.246 0.015l0.019-0.585 0.6-0.362v0.724l-0.473 0.312c-0.139 0.093-6e-3 0.311 0.132 0.218l0.34-0.228v0.397c-0.013 0.185 0.259 0.185 0.246 0v-0.397l0.34 0.228c0.139 0.093 0.272-0.126 0.132-0.218l-0.473-0.312v-0.724l0.6 0.362 0.019 0.585c2e-3 0.18 0.264 0.165 0.246-0.015l-0.014-0.417 0.326 0.198c0.145 0.086 0.268-0.142 0.123-0.228l-0.326-0.198 0.355-0.193c0.168-0.071 0.038-0.332-0.113-0.228l-0.492 0.268-0.6-0.362 0.6-0.357 0.492 0.268c0.152 0.104 0.282-0.157 0.113-0.228l-0.355-0.193 0.326-0.198c0.161-0.08 0.024-0.329-0.123-0.223l-0.326 0.198 0.014-0.422c5e-3 -0.073-0.048-0.136-0.118-0.139s-0.127 0.056-0.128 0.129l-0.019 0.585-0.6 0.362v-0.724l0.473-0.312c0.143-0.092 7e-3 -0.315-0.132-0.218l-0.34 0.228v-0.402c3e-3 -0.079-0.062-0.143-0.137-0.134zm7.332 1.012c-0.043 0.011-0.073 0.052-0.071 0.099v0.298l-0.255-0.169c-0.104-0.071-0.205 0.095-0.099 0.164l0.355 0.233v0.541l-0.444-0.268-0.019-0.441c-2e-3 -0.063-0.06-0.107-0.118-0.089-0.042 0.013-0.069 0.054-0.066 0.099l0.014 0.317-0.246-0.149c-0.11-0.094-0.225 0.105-0.095 0.164l0.246 0.149-0.265 0.149c-0.137 0.048-0.03 0.26 0.085 0.169l0.369-0.203 0.449 0.273-0.449 0.268-0.369-0.198c-0.115-0.092-0.222 0.12-0.085 0.169l0.265 0.144-0.246 0.149c-0.107 0.066-0.013 0.235 0.095 0.169l0.246-0.149-0.014 0.317c-3e-3 0.129 0.181 0.133 0.184 5e-3l0.019-0.436 0.444-0.268v0.541l-0.355 0.233c-0.104 0.069-5e-3 0.233 0.099 0.164l0.255-0.169v0.298c0 0.129 0.184 0.129 0.184 0v-0.298l0.251 0.169c0.104 0.069 0.203-0.094 0.099-0.164l-0.35-0.233v-0.546l0.444 0.273 0.019 0.436c4e-3 0.128 0.187 0.124 0.184-5e-3l-0.014-0.317 0.246 0.149c0.109 0.071 0.204-0.108 0.09-0.169l-0.241-0.149 0.265-0.144c0.137-0.048 0.03-0.26-0.085-0.169l-0.373 0.198-0.444-0.268 0.444-0.268 0.373 0.198c0.115 0.092 0.222-0.12 0.085-0.169l-0.269-0.149 0.246-0.149c0.146-0.048 0.023-0.272-0.09-0.164l-0.246 0.149 0.014-0.317c4e-3 -0.067-0.057-0.118-0.118-0.099-0.038 0.012-0.065 0.048-0.066 0.089l-0.019 0.441-0.444 0.268v-0.541l0.35-0.233c0.105-0.069 5e-3 -0.235-0.099-0.164l-0.251 0.169v-0.298c1e-3 -0.055-0.042-0.101-0.095-0.099-6e-3 -1e-3 -0.013-1e-3 -0.019 0z" fill="#eceff4"/>
 </g>
</svg>
