<svg enable-background="new" viewBox="0 0 48 48" xmlns="http://www.w3.org/2000/svg">
 <g transform="matrix(1.003 0 0 .97867 .88 .31279)" fill="#eceff4">
  <path d="m27.18 9.898c-6.03 0-10.919 1.01-10.919 2.265s4.889 2.265 10.919 2.265 10.919-1.01 10.919-2.265-4.889-2.265-10.919-2.265zm-8.474 6.442c-6.964 0-12.607 0.955-12.607 2.161s5.643 2.203 12.607 2.203 12.616-0.997 12.616-2.203-5.653-2.161-12.616-2.161z"/>
  <path d="m29.08 22.508c-6.03 0-10.919 1.01-10.919 2.265s4.889 2.265 10.919 2.265 10.919-1.01 10.919-2.265-4.889-2.265-10.919-2.265zm-8.474 6.442c-6.964 0-12.607 0.955-12.607 2.161s5.643 2.203 12.607 2.203 12.616-0.997 12.616-2.203-5.653-2.161-12.616-2.161zm7.346 6.213c-4.649 0-8.417 0.738-8.417 1.662 0 0.925 3.768 1.683 8.417 1.683s8.417-0.758 8.417-1.683-3.768-1.662-8.417-1.662z"/>
 </g>
</svg>
