<svg enable-background="new" viewBox="0 0 48 48" xmlns="http://www.w3.org/2000/svg">
 <circle cx="24" cy="24" r="15" fill="#ebcb8b"/>
 <g fill="#ebcb8b">
  <path d="m24 3 1.5 4h-3z"/>
  <path d="m24 45-1.5-4h3z"/>
  <path d="m45 24-4 1.5v-3z"/>
  <path d="m3 24 4-1.5v3z"/>
 </g>
 <g transform="matrix(.70711 .70711 -.70711 .70711 24 -9.9411)" fill="#ebcb8b">
  <path d="m24 3 1.5 4h-3z"/>
  <path d="m24 45-1.5-4h3z"/>
  <path d="m45 24-4 1.5v-3z"/>
  <path d="m3 24 4-1.5v3z"/>
 </g>
 <path d="m23.2 25c-0.31 0-0.642 0.015-0.979 0.058-5.385 0.693-5.221 5.314-5.221 5.314-2.206 0.375-4 2.299-4 4.312 0 2.01 2.297 3.794 4.228 4.312 1.149 0.308 2.653 0 2.653 0 0.682 1.202 2.93 2 4.498 2 2.556 0 5.184-0.848 5.789-2 0 0 10.587 0.847 12.784 0 3.199-1.233 2.199-5.085 0.071-6.388s-4.909-0.392-4.909-0.392-0.012-2.653-3.02-3.92c-3.01-1.268-5.548 1.539-5.548 1.539s-1.686-4.806-6.342-4.835z" fill="#eceff4"/>
</svg>
