<svg enable-background="new" viewBox="0 0 48 48" xmlns="http://www.w3.org/2000/svg">
 <path d="m10.2 41.871c-1.942-0.558 0.046-4.328 1.238-5.561 0.574 1.629 0.703 6.119-1.238 5.561z" fill="#eceff4"/>
 <path d="m13.849 36.34c-1.942-0.558 0.046-4.328 1.238-5.561 0.574 1.629 0.703 6.119-1.238 5.561z" fill="#eceff4"/>
 <path d="m8.622 33.663c-1.942-0.558 0.046-4.328 1.238-5.561 0.574 1.629 0.703 6.119-1.238 5.561z" fill="#eceff4"/>
 <path d="m27.22 43.533c-1.942-0.558 0.046-4.328 1.238-5.561 0.574 1.629 0.703 6.119-1.238 5.561z" fill="#eceff4"/>
 <path d="m17.912 30.3c3.421 0.17 4.986-0.367 7.402-1.625l-4.084 5.688 4.765 0.632-7.488 8.758 2.978-7.04-3.829 0.813 0.255-7.223z" fill="#ebcb8b"/>
 <path d="m31.412 28.924c3.421 0.17 4.986-0.367 7.402-1.625l-4.084 5.688 4.765 0.632-7.488 8.758 2.978-7.04-3.829 0.813 0.255-7.223z" fill="#ebcb8b"/>
 <path d="m27.415 33.903c-1.942-0.558 0.046-4.328 1.238-5.561 0.574 1.629 0.703 6.119-1.238 5.561z" fill="#eceff4"/>
 <path d="m17.477 10c-0.349 0-0.722 0.017-1.101 0.065-6.06 0.78-5.874 5.978-5.874 5.978-2.481 0.422-4.501 2.587-4.501 4.851s2.584 4.269 4.757 4.851c1.292 0.347 2.985 0 2.985 0 0.767 1.353 3.296 2.254 5.06 2.254 2.876 0 5.832-0.954 6.513-2.254 0 0 11.91 0.953 14.382 0 3.599-1.388 2.474-5.721 0.08-7.187s-5.523-0.441-5.523-0.441-0.014-2.984-3.4-4.41-6.241 1.731-6.241 1.731-1.897-5.407-7.135-5.439z" fill="#eceff4"/>
</svg>
