<svg width="64" height="64" viewBox="0 0 64 64" xmlns="http://www.w3.org/2000/svg">
 <path d="m14.59375 3.976562c-1.023438 0-2.09375 0.339844-2.875 1.125l-5.625 5.625c-1.566406 1.566407-1.566406 4.179688 0 5.75l3.5 3.5h22.75l-14.875-14.875c-0.785156-0.785156-1.851562-1.128906-2.875-1.128906zm36.75 0c-1.046875 0-2.089844 0.339844-2.875 1.125l-14.875 14.875h22.75l3.5-3.5c1.5625-1.570312 1.5625-4.183593 0-5.75l-5.628906-5.625c-0.777344-0.785156-1.828125-1.125-2.871094-1.125zm-32.464844 18.03125c-1.058594 0.042969-1.894531 0.90625-1.910156 1.96875v13.996094c-0.039062 2.703125 4.035156 2.703125 4 0v-6h4v6c-0.039062 2.703125 4.035156 2.703125 4 0v-8c-0.003906-1.101562-0.898438-1.996094-2-1.996094h-6v-4c-0.019531-1.125-0.960938-2.015624-2.089844-1.96875zm36 0c-1.054687 0.046876-1.894531 0.910157-1.910156 1.96875v4h-2c-2.585938 0.078126-2.585938 3.914063 0 3.996094h2v6c0 1.105469 0.894531 2 2 2h6c2.703125 0.039063 2.703125-4.039062 0-4h-4v-4h4c2.75 0.089844 2.75-4.085937 0-3.996094h-4v-4c-0.015625-1.125-0.960938-2.015624-2.085938-1.96875zm-51.910156 5.96875c-1.105469 0-2 0.894532-2 1.996094v8c0 1.105469 0.894531 2 2 2h8c2.703125 0.039063 2.703125-4.039062 0-4h-6v-4h6c2.703125 0.039063 2.703125-4.039062 0-4h-8zm32 0c-1.105469 0-2 0.894532-2 1.996094v8c0 1.105469 0.894531 2 2 2h3c2.703125 0.039063 2.703125-4.039062 0-4h-1v-4h4v6c-0.039062 2.703125 4.039062 2.703125 4 0v-8c0-1.101562-0.898438-1.996094-2-1.996094zm-25.375 15.996094-3.5 3.5c-1.566406 1.570313-1.566406 4.183594 0 5.753906l5.625 5.621094c1.566406 1.570313 4.183594 1.570313 5.75 0l14.875-14.875zm24 0 14.875 14.875c1.566406 1.570313 4.183594 1.570313 5.75 0l5.625-5.621094c1.566406-1.570312 1.566406-4.183593 0-5.753906l-3.5-3.5z" fill="rgb(18.039216%, 20.392157%, 25.098041%)" fill-rule="evenodd"/>
</svg>
