<svg width="16" height="16" version="1.1" xmlns="http://www.w3.org/2000/svg">
 <defs>
  <style id="current-color-scheme" type="text/css">.ColorScheme-Text{color:#2e3440}</style>
 </defs>
 <g transform="matrix(1.0965 0 0 1.0965 -.77216 -1.5101)" stroke="#000" stroke-linecap="round" stroke-linejoin="round">
  <g transform="matrix(.7449 0 0 .7449 2.2706 2.3935)" stroke-width=".26849" aria-label="VPN">
   <path d="m2.8026 11.027-1.9827-5.1932h0.73394l1.6453 4.3723 1.6488-4.3723h0.73046l-1.9792 5.1932z"/>
   <path d="m7.0393 6.4108v1.9514h0.88351q0.49045 0 0.75829-0.25392 0.26784-0.25392 0.26784-0.72351 0-0.46611-0.26784-0.72003-0.26784-0.25392-0.75829-0.25392zm-0.70264-0.57741h1.5861q0.87308 0 1.3183 0.39654 0.44871 0.39306 0.44871 1.1548 0 0.76873-0.44871 1.1618-0.44524 0.39306-1.3183 0.39306h-0.88351v2.087h-0.70264z"/>
   <path d="m10.632 5.8334h0.94612l2.3027 4.3445v-4.3445h0.68177v5.1932h-0.94612l-2.3027-4.3445v4.3445h-0.68177z"/>
  </g>
  <rect x="1.3618" y="5.4922" width="13.276" height="6.3617" fill="none" stroke-width=".8"/>
 </g>
</svg>
