<svg width="16" height="16" version="1.1" xmlns="http://www.w3.org/2000/svg">
 <g transform="matrix(.88332 0 0 1.8069 -.61086 5.1886)" fill="#2e3440" aria-label="VPN">
  <path d="m0.75997-1.3601h1.5117l1.5469 4.3047 1.543-4.3047h1.5117l-2.1602 5.832h-1.793z"/>
  <path d="m7.6467-1.3601h2.4961q1.1133 0 1.707 0.49609 0.59766 0.49219 0.59766 1.4062 0 0.91797-0.59766 1.4141-0.59375 0.49219-1.707 0.49219h-0.99219v2.0234h-1.5039zm1.5039 1.0898v1.6289h0.83203q0.4375 0 0.67578-0.21094 0.23828-0.21484 0.23828-0.60547t-0.23828-0.60156q-0.23828-0.21094-0.67578-0.21094z"/>
  <path d="m13.51-1.3601h1.6797l2.1211 4v-4h1.4258v5.832h-1.6797l-2.1211-4v4h-1.4258z"/>
 </g>
</svg>
