<svg width="16" height="16" version="1.1" xmlns="http://www.w3.org/2000/svg">
 <path d="m2.3496 5.3789 0.69531 1.8203a1.4045 1.4032 0 0 1 0.34375-0.65039l-0.44141-1.1699h-0.59766zm3.2891 0-0.37695 1a1.4045 1.4032 0 0 1 0.39453 0.46875l0.58008-1.4688h-0.59766zm1.2168 0v1.5098a1.4045 1.4032 0 0 1 0.57227-0.57031v-0.4668h0.72266c0.26706 0 0.4733 0.068767 0.61914 0.20703 0.10938 0.1037 0.17774 0.23957 0.20508 0.4082a1.4045 1.4032 0 0 1 0 0.0019531 1.4045 1.4032 0 0 1 0.48633 0.81836c0.087403-0.17715 0.13281-0.39055 0.13281-0.64062 0-0.41478-0.12286-0.72933-0.36719-0.94336-0.24243-0.21592-0.60073-0.32422-1.0762-0.32422h-1.2949zm3.5078 0v1.2656a1.4045 1.4032 0 0 1 0.5293-0.45703c0.011478-0.049569 0.025033-0.1138 0.027344-0.11523l0.054687 0.085938a1.4045 1.4032 0 0 1 0.51562-0.11133l-0.35352-0.66797h-0.77344zm2.6543 0v3.5488l-0.36328-0.68555a1.4045 1.4032 0 0 1-0.38672 0.375l0.5332 1.0039h0.77344v-4.2422h-0.55664zm-6.1621 2.8379v1.4043h0.57227v-0.83594a1.4045 1.4032 0 0 1-0.57227-0.56836zm3.5078 0.076172v1.3281h0.55664v-0.69922c0.002556 0.11215 0.00737-0.038353 0-0.20117a1.4045 1.4032 0 0 1-0.06836-0.035156c-0.058858-0.020326-0.11768-0.061604-0.17578-0.10938a1.4045 1.4032 0 0 1-0.1875-0.17188c-0.002186-0.0021021-0.003683-0.0037747-0.005859-0.0058594-0.041848-0.040097-0.082199-0.077828-0.11914-0.10547zm-6.7754 0.32812 0.38086 1h0.65039l0.31641-0.83008a1.4045 1.4032 0 0 1-0.51953 0.10742 1.4045 1.4032 0 0 1-0.099609-0.011719l-0.023437 0.064453-0.025391-0.070312a1.4045 1.4032 0 0 1-0.67969-0.25977z" fill="#2e3440" stroke="#2e3440" stroke-linecap="round" stroke-linejoin="round" stroke-width=".2"/>
 <rect x=".68252" y="4.0126" width="14.557" height="6.9756" fill="none" stroke="#2e3440" stroke-linecap="round" stroke-linejoin="round" stroke-width=".8772"/>
 <g fill="#2e3440">
  <ellipse cx="8.0882" cy="7.5667" rx="1.0032" ry="1.0023"/>
  <ellipse cx="11.44" cy="7.4704" rx="1.0032" ry="1.0023"/>
  <ellipse cx="4.3902" cy="7.5529" rx="1.0032" ry="1.0023"/>
 </g>
</svg>
