<svg width="16" height="16" version="1.1" xmlns="http://www.w3.org/2000/svg">
 <g transform="translate(0,-2.28)" enable-background="new">
  <path d="m8 3.28c-1.8363 0-3.3668 1.2019-3.9375 2.8437-1.7232 0.21835-3.0625 1.6743-3.0625 3.4567 0 1.6336 1.123 2.9955 2.6364 3.3815a4.375 4.375 0 0 1 4.081-4.0947 4.375 4.375 0 0 1 4.6484 4.0833 4.375 4.375 0 0 1 0.0023 0.11394c1.4665-0.08869 2.6319-1.2957 2.6319-2.7845 0-1.5464-1.254-2.7981-2.8005-2.7981 0-2.3196-1.88-4.2018-4.1995-4.2018z" fill="#2e3440"/>
 </g>
 <circle class="error" transform="rotate(-93.69)" cx="-11.557" cy="7.2665" r="3.5" fill="#bf616a" stroke-width=".58333"/>
 <path d="m7.9943 9.0003c-0.17572 0-0.31673 0.14105-0.31673 0.31675v2.2297c0 0.17576 0.14101 0.31669 0.31673 0.31669h0.00233c0.17572 0 0.31673-0.14093 0.31673-0.31669v-2.2297c0-0.1757-0.14101-0.31675-0.31673-0.31675zm0.00117 3.5c-0.17628 0-0.31787 0.14163-0.31787 0.31792 0 0.17622 0.14159 0.31786 0.31787 0.31786 0.17627 0 0.31787-0.14163 0.31787-0.31786 0-0.17628-0.1416-0.31792-0.31787-0.31792z" fill="#fff" stroke-width=".58333"/>
</svg>
