<svg width="64" height="64" enable-background="new" version="1.1" viewBox="0 0 16.933 16.933" xmlns="http://www.w3.org/2000/svg">
 <defs>
  <radialGradient id="e" cx="399.85" cy="191.95" r="49.762" gradientTransform="matrix(.12302 .02742 -.02781 .13209 -36.145 -27.128)" gradientUnits="userSpaceOnUse">
   <stop stop-color="#4c566a" offset="0"/>
   <stop stop-color="#2e3440" offset="1"/>
  </radialGradient>
  <radialGradient id="d" cx="451.89" cy="300.02" r="20.151" gradientTransform="matrix(.15428 .025277 -.027443 .17733 -54.386 -55.088)" gradientUnits="userSpaceOnUse">
   <stop stop-color="#a6aebf" offset="0"/>
   <stop stop-color="#2e3440" offset="1"/>
  </radialGradient>
  <radialGradient id="c" cx="403.36" cy="328" r="33.477" gradientTransform="matrix(.081059 .017925 -.023319 .11164 -22.376 -31.371)" gradientUnits="userSpaceOnUse">
   <stop stop-color="#a6aebf" offset="0"/>
   <stop stop-color="#7b88a1" offset="1"/>
  </radialGradient>
  <radialGradient id="b" cx="426.87" cy="312.58" r="50.458" gradientTransform="matrix(.073318 .011798 -.020031 .13179 -20.237 -34.739)" gradientUnits="userSpaceOnUse">
   <stop stop-color="#a6aebf" offset="0"/>
   <stop stop-color="#7b88a1" offset="1"/>
  </radialGradient>
  <filter id="g" x="-.062327" y="-.057841" width="1.1247" height="1.1157" color-interpolation-filters="sRGB">
   <feGaussianBlur stdDeviation="0.76791763"/>
  </filter>
  <radialGradient id="a" cx="249.8" cy="130.23" r="17.762" gradientTransform="matrix(.48073 .055759 -.04164 .34933 -103 -62.792)" gradientUnits="userSpaceOnUse">
   <stop stop-color="#eceff4" offset="0"/>
   <stop stop-color="#2e3440" offset="1"/>
  </radialGradient>
 </defs>
 <path transform="matrix(.46436 0 0 .47779 .60377 -125.5)" d="m13.458 264.45a17.762 8.8808 59.304 0 0-2.6619 0.65732 17.762 8.8808 59.304 0 0-2.481 3.7388c-0.53939 1.3484-1.5371 4.6023-1.6826 9.4976-0.0037 0.1241-0.0033 0.24839-0.0057 0.37259l-2.5254 1.7058s-3.826 2.6666-0.7705 8.6775c3.3596 6.6092 8.1633 4.9382 8.1633 4.9382l3.0861-1.5906c0.08207 0.0417 0.16072 0.0843 0.24443 0.12558 4.6574 2.2963 8.0867 3.183 9.9312 3.5254a17.762 8.8808 59.304 0 0 1.2857 0.19121c0.07858 8e-3 0.10708 0.0111 0.14728 0.014a17.762 8.8808 59.304 0 0 0.0894 7e-3c0.0015 7e-5 0.02119 2e-3 0.02119 2e-3l-0.0021-3e-3a17.762 8.8808 59.304 0 0 2.6324-0.65614 17.762 8.8808 59.304 0 0-1.4304-19.807 17.762 8.8808 59.304 0 0-14.042-11.397z" filter="url(#g)" opacity=".25" stroke-width="2.123"/>
 <g stroke-width=".99999">
  <path d="m4.0195 7.1823-1.511 1.0501s-1.7767 1.274-0.35787 4.1459c1.5601 3.1578 3.7908 2.3594 3.7908 2.3594l1.7231-0.91373z" fill="url(#c)"/>
  <path d="m4.0674 7.1297s-0.32474 0.10229-0.5368 0.45687c-0.21207 0.35459-0.69473 1.3109-0.098273 3.1929 0.57144 1.6235 2.4835 3.9763 4.2934 3.2101 0.18556-0.17729-3.6583-6.8601-3.6583-6.8601z" fill="#2e3440"/>
  <path d="m4.6249 2.3614c-0.02248-0.04625-0.84913 1.6913-0.94107 4.8754-0.07231 2.504 0.3801 5.0617 3.8041 6.7985 3.3374 1.6931 5.3285 1.7866 5.3285 1.7866z" fill="url(#b)"/>
 </g>
 <g fill-rule="evenodd">
  <ellipse transform="matrix(.49976 .86617 -.85339 .52128 0 0)" cx="12.133" cy="-4.4101" rx="8.425" ry="4.1553" fill="#eceff4" stroke-width="1.0002"/>
  <ellipse transform="matrix(.49976 .86617 -.85339 .52128 0 0)" cx="12.133" cy="-4.4101" rx="8.425" ry="4.1553" fill="url(#a)" opacity=".1" stroke-width="1.0002"/>
  <path d="m8.5002 12.089a2.8513 1.6268 60.752 0 0 0.037673-0.0014 2.8513 1.6268 60.752 0 0 0.16515-0.03215 2.8513 1.6268 60.752 0 0 0.10984-0.03832 2.8513 1.6268 60.752 0 0 0.14396-0.07574 2.8513 1.6268 60.752 0 0 0.12954-0.1003 2.8513 1.6268 60.752 0 0 0.11381-0.12385 2.8513 1.6268 60.752 0 0 0.097019-0.14619 2.8513 1.6268 60.752 0 0 0.079183-0.16704 2.8513 1.6268 60.752 0 0 0.060604-0.18626 2.8513 1.6268 60.752 0 0 0.04137-0.20354 2.8513 1.6268 60.752 0 0 0.02176-0.2189 2.8513 1.6268 60.752 0 0 0.0019-0.23195 2.8513 1.6268 60.752 0 0-0.017921-0.24283 2.8513 1.6268 60.752 0 0-0.037627-0.25116 2.8513 1.6268 60.752 0 0-0.056907-0.25699 2.8513 1.6268 60.752 0 0-0.075677-0.26031 2.8513 1.6268 60.752 0 0-0.093596-0.26099 2.8513 1.6268 60.752 0 0-0.11068-0.25906 2.8513 1.6268 60.752 0 0-0.088029-0.18081 2.8513 1.6268 60.752 0 0-0.13712-0.24987 2.8513 1.6268 60.752 0 0-0.15084-0.24101 2.8513 1.6268 60.752 0 0-0.16295-0.22978 2.8513 1.6268 60.752 0 0-0.17353-0.21631 2.8513 1.6268 60.752 0 0-0.18238-0.2006 2.8513 1.6268 60.752 0 0-0.18935-0.18298 2.8513 1.6268 60.752 0 0-0.19445-0.16343 2.8513 1.6268 60.752 0 0-0.19759-0.14224 2.8513 1.6268 60.752 0 0-0.1988-0.11976 2.8513 1.6268 60.752 0 0-0.19801-0.095969 2.8513 1.6268 60.752 0 0-0.1952-0.071267 2.8513 1.6268 60.752 0 0-0.19048-0.045772 2.8513 1.6268 60.752 0 0-0.18387-0.019972 2.8513 1.6268 60.752 0 0-0.17536 0.0061635 2.8513 1.6268 60.752 0 0-0.16515 0.032155 2.8513 1.6268 60.752 0 0-0.10989 0.038366 2.8513 1.6268 60.752 0 0-0.14391 0.075696 2.8513 1.6268 60.752 0 0-0.12954 0.1003 2.8513 1.6268 60.752 0 0-0.089389 0.097273 7.2826 3.2656 61.483 0 0 1.0561 2.4628 7.2826 3.2656 61.483 0 0 1.5903 2.4039z" fill="url(#d)" stroke="#333" stroke-width=".06844"/>
  <path d="m7.0324 1.6304a7.2826 3.2656 61.483 0 0-0.64718 0.16594 7.2826 3.2656 61.483 0 0-0.53174 5.4267 2.8513 1.6268 60.752 0 1 0.089389-0.097273 2.8513 1.6268 60.752 0 1 0.12954-0.1003 2.8513 1.6268 60.752 0 1 0.14391-0.075696 2.8513 1.6268 60.752 0 1 0.10989-0.038366 2.8513 1.6268 60.752 0 1 0.16515-0.032155 2.8513 1.6268 60.752 0 1 0.17536-0.00616 2.8513 1.6268 60.752 0 1 0.18387 0.019972 2.8513 1.6268 60.752 0 1 0.19048 0.045772 2.8513 1.6268 60.752 0 1 0.1952 0.071267 2.8513 1.6268 60.752 0 1 0.19801 0.095969 2.8513 1.6268 60.752 0 1 0.1988 0.11976 2.8513 1.6268 60.752 0 1 0.19759 0.14224 2.8513 1.6268 60.752 0 1 0.19445 0.16343 2.8513 1.6268 60.752 0 1 0.18935 0.18298 2.8513 1.6268 60.752 0 1 0.18238 0.2006 2.8513 1.6268 60.752 0 1 0.17353 0.21631 2.8513 1.6268 60.752 0 1 0.16295 0.22978 2.8513 1.6268 60.752 0 1 0.15084 0.24101 2.8513 1.6268 60.752 0 1 0.13712 0.24987 2.8513 1.6268 60.752 0 1 0.088029 0.18081 2.8513 1.6268 60.752 0 1 0.11068 0.25906 2.8513 1.6268 60.752 0 1 0.093596 0.26099 2.8513 1.6268 60.752 0 1 0.075677 0.26031 2.8513 1.6268 60.752 0 1 0.056907 0.25699 2.8513 1.6268 60.752 0 1 0.037627 0.25116 2.8513 1.6268 60.752 0 1 0.017924 0.24279 2.8513 1.6268 60.752 0 1-0.0019 0.23195 2.8513 1.6268 60.752 0 1-0.02176 0.2189 2.8513 1.6268 60.752 0 1-0.04137 0.20354 2.8513 1.6268 60.752 0 1-0.060604 0.18626 2.8513 1.6268 60.752 0 1-0.079183 0.16704 2.8513 1.6268 60.752 0 1-0.097019 0.14619 2.8513 1.6268 60.752 0 1-0.11381 0.12385 2.8513 1.6268 60.752 0 1-0.12954 0.1003 2.8513 1.6268 60.752 0 1-0.14396 0.07574 2.8513 1.6268 60.752 0 1-0.10984 0.03832 2.8513 1.6268 60.752 0 1-0.16515 0.03215 2.8513 1.6268 60.752 0 1-0.037673 0.0014 7.2826 3.2656 61.483 0 0 4.7602 2.5453 7.2826 3.2656 61.483 0 0-0.51005-7.8788l-0.01554-0.029002a7.2826 3.2656 61.483 0 0-5.7023-5.0975z" fill="url(#e)" stroke-width=".99999"/>
 </g>
</svg>
