<svg width="64" height="64" version="1.1" xmlns="http://www.w3.org/2000/svg" xmlns:xlink="http://www.w3.org/1999/xlink">
 <defs>
  <linearGradient id="linearGradient4770-8">
   <stop offset="0"/>
   <stop stop-opacity="0" offset="1"/>
  </linearGradient>
  <linearGradient id="linearGradient4327" x1="402.41" x2="415.57" y1="514.63" y2="527.8" gradientTransform="matrix(1.2 0 0 1.2 -81.715 -104.96)" gradientUnits="userSpaceOnUse">
   <stop stop-color="#5e81ac" offset="0"/>
   <stop stop-color="#88c0d0" offset="1"/>
  </linearGradient>
  <linearGradient id="linearGradient4356" x1="397.48" x2="415.57" y1="509.7" y2="527.8" gradientTransform="translate(-.000424 -1.0006)" gradientUnits="userSpaceOnUse">
   <stop stop-color="#5e81ac" offset="0"/>
   <stop stop-color="#88c0d0" offset="1"/>
  </linearGradient>
  <linearGradient id="linearGradient4356-7" x1="386.06" x2="415.57" y1="498.29" y2="527.8" gradientTransform="matrix(.7 0 0 .7 122.57 154.94)" gradientUnits="userSpaceOnUse">
   <stop stop-color="#5e81ac" offset="0"/>
   <stop stop-color="#88c0d0" offset="1"/>
  </linearGradient>
  <linearGradient id="linearGradient4510" x1="398.57" x2="418.57" y1="508.8" y2="528.8" gradientTransform="matrix(-1.2143 0 0 -1.2143 904.69 1150)" gradientUnits="userSpaceOnUse">
   <stop stop-color="#2e3440" offset="0"/>
   <stop stop-color="#4c566a" offset="1"/>
  </linearGradient>
  <linearGradient id="linearGradient4545" x2="0" y1="28" y2="12" gradientTransform="matrix(1.25 0 0 1.1875 382.57 495.55)" gradientUnits="userSpaceOnUse">
   <stop stop-color="#2e3440" offset="0"/>
   <stop stop-color="#4c566a" offset="1"/>
  </linearGradient>
  <linearGradient id="linearGradient4545-5" x2="0" y1="28" y2="12" gradientTransform="matrix(-1.25 0 0 1.1875 434.57 495.55)" gradientUnits="userSpaceOnUse">
   <stop stop-color="#2e3440" offset="0"/>
   <stop stop-color="#4c566a" offset="1"/>
  </linearGradient>
  <linearGradient id="linearGradient4577" x1="405.57" x2="411.57" y1="534.8" y2="538.8" gradientTransform="matrix(1.25 0 0 .7091 -102.14 157.57)" gradientUnits="userSpaceOnUse">
   <stop stop-color="#2e3440" offset="0"/>
   <stop stop-color="#4c566a" offset="1"/>
  </linearGradient>
  <linearGradient id="linearGradient4510-8" x1="398.3" x2="419.77" y1="509.53" y2="531" gradientTransform="matrix(.92857 0 0 .92857 29.183 36.128)" gradientUnits="userSpaceOnUse">
   <stop stop-color="#18222a" offset="0"/>
   <stop stop-color="#566069" offset="1"/>
  </linearGradient>
  <linearGradient id="linearGradient4609" x1="421.57" x2="398.57" y1="530.8" y2="507.8" gradientTransform="matrix(1.1875 0 0 1.1875 -76.607 -98.462)" gradientUnits="userSpaceOnUse">
   <stop stop-color="#a6aebf" offset="0"/>
   <stop stop-color="#eceff4" offset="1"/>
  </linearGradient>
  <linearGradient id="linearGradient4617" x1="387" x2="432.13" y1="508.38" y2="531.81" gradientTransform="matrix(1.0833 0 0 1.2045 -34.047 -106.78)" gradientUnits="userSpaceOnUse">
   <stop stop-color="#d8dee9" offset="0"/>
   <stop stop-color="#eceff4" offset="1"/>
  </linearGradient>
  <linearGradient id="linearGradient4735" x2="0" y1="519.8" y2="541.01" gradientTransform="matrix(.83567 -.83567 .83567 .83567 -367.24 426.12)" gradientUnits="userSpaceOnUse" xlink:href="#linearGradient4770-8"/>
  <linearGradient id="linearGradient4776-4" x1="410.57" x2="413.57" y1="538.8" y2="541.8" gradientTransform="matrix(1.2727 0 0 1.4242 -111.34 -225.85)" gradientUnits="userSpaceOnUse" xlink:href="#linearGradient4770-8"/>
  <linearGradient id="linearGradient4784-5" x1="392.57" x2="424.57" y1="541.8" y2="543.8" gradientTransform="matrix(1.1875 0 0 1 -76.607 3.9897)" gradientUnits="userSpaceOnUse">
   <stop stop-color="#2e3440" offset="0"/>
   <stop stop-color="#4c566a" offset="1"/>
  </linearGradient>
  <linearGradient id="linearGradient4828" x1="392.57" x2="424.57" y1="537.8" y2="541.8" gradientTransform="matrix(1.1875 0 0 1.3636 -76.607 -193.01)" gradientUnits="userSpaceOnUse">
   <stop stop-color="#d8dee9" offset="0"/>
   <stop stop-color="#eceff4" offset="1"/>
  </linearGradient>
 </defs>
 <g transform="translate(-376.57 -491.8)">
  <g stroke-linecap="round" stroke-linejoin="round" stroke-width="2">
   <rect x="389.57" y="540.34" width="38" height="5.4545" fill="url(#linearGradient4828)"/>
   <rect x="382.57" y="504.89" width="52" height="28.909" rx="0" fill="url(#linearGradient4617)"/>
   <path d="m421.94 505.7-26.743 26.743 0.81019 0.81019h38.561v-12.561z" fill="url(#linearGradient4735)" opacity=".2"/>
  </g>
  <path d="m403.57 541.53 3.8182 4.2727h10.182l-3.8182-4.2727z" fill="url(#linearGradient4776-4)" fill-rule="evenodd" opacity=".2"/>
  <g stroke-linecap="round" stroke-linejoin="round" stroke-width="2">
   <path d="m403.57 536.8h10v4.7273s-1.25 1.1818-5 1.1818-5-1.1818-5-1.1818z" fill="url(#linearGradient4577)"/>
   <rect x="389.57" y="545.8" width="38" height="2" fill="url(#linearGradient4784-5)"/>
   <circle cx="408.57" cy="518.8" r="19" fill="url(#linearGradient4609)"/>
   <path d="m391.57 518.8a17 17 0 0 1 17-17 17 17 0 0 1 17 17 17 17 0 0 1-17 17 17 17 0 0 1-17-17z" fill="url(#linearGradient4510)"/>
   <circle cx="408.57" cy="518.8" r="13" fill="url(#linearGradient4510-8)"/>
   <circle cx="408.57" cy="518.8" r="12" fill="url(#linearGradient4327)"/>
   <circle cx="408.57" cy="518.8" r="10" fill="url(#linearGradient4356)"/>
   <circle cx="408.57" cy="518.8" r="7" fill="url(#linearGradient4356-7)"/>
   <circle cx="408.57" cy="518.8" r="5" fill="#2e3440"/>
   <path d="m382.57 509.8v19h2.5c1.385 0 2.5-1.0592 2.5-2.375v-14.25c0-1.3158-1.115-2.375-2.5-2.375z" fill="url(#linearGradient4545)"/>
   <path d="m434.57 509.8v19h-2.5c-1.385 0-2.5-1.0592-2.5-2.375v-14.25c0-1.3158 1.115-2.375 2.5-2.375z" fill="url(#linearGradient4545-5)"/>
   <circle cx="432.07" cy="514.3" r="1.5" fill="#a3be8c"/>
   <circle cx="405.57" cy="515.8" r="1" fill="#88c0d0"/>
   <circle cx="402.57" cy="512.8" r="2" fill="#88c0d0"/>
  </g>
 </g>
</svg>
