<svg width="64" height="64" version="1.1" viewBox="0 0 16.933 16.933" xmlns="http://www.w3.org/2000/svg">
 <defs>
  <radialGradient id="a" cx="502.62" cy="372.05" r="74.884" gradientTransform="matrix(.077688 0 0 .021512 -30.169 6.0946)" gradientUnits="userSpaceOnUse">
   <stop stop-color="#eceff4" offset="0"/>
   <stop stop-color="#d8dee9" offset="1"/>
  </radialGradient>
  <linearGradient id="b" x1="500.55" x2="504.38" y1="216.14" y2="349.1" gradientTransform="matrix(.082432 0 0 .091576 -32.553 -19.024)" gradientUnits="userSpaceOnUse">
   <stop stop-color="#d8dee9" offset="0"/>
   <stop stop-color="#a6aebf" offset="1"/>
  </linearGradient>
  <linearGradient id="f" x1="63.721" x2="64.939" y1="168.65" y2="249.61" gradientTransform="matrix(.10989 0 0 .12208 1.4509 -19.72)" gradientUnits="userSpaceOnUse">
   <stop stop-color="#eceff4" offset="0"/>
   <stop stop-color="#d8dee9" offset="1"/>
  </linearGradient>
  <linearGradient id="e" x1="-17.94" x2="-17.94" y1="351.1" y2="361.98" gradientTransform="matrix(.073538 0 0 .038209 9.766 .78358)" gradientUnits="userSpaceOnUse">
   <stop stop-color="#4c566a" offset="0"/>
   <stop stop-color="#a6aebf" offset="1"/>
  </linearGradient>
  <linearGradient id="c" x1="-82.241" x2="-50.209" y1="32.694" y2="-.51548" gradientTransform="matrix(.11349 0 0 .12607 14.742 6.9936)" gradientUnits="userSpaceOnUse">
   <stop stop-color="#d8dee9" offset="0"/>
   <stop stop-color="#d8dee9" offset=".48509"/>
   <stop stop-color="#eceff4" offset="1"/>
  </linearGradient>
  <linearGradient id="d" x1="-53.607" x2="-12.256" y1="-8.0133" y2="24.827" gradientTransform="matrix(-.11633 0 0 -.12923 3.1683 15.318)" gradientUnits="userSpaceOnUse">
   <stop stop-color="#fff" stop-opacity="0" offset="0"/>
   <stop stop-color="#eceff4" stop-opacity=".7" offset=".53114"/>
   <stop stop-color="#eceff4" offset="1"/>
  </linearGradient>
  <filter id="h" x="-.022228" y="-.094621" width="1.0445" height="1.1892" color-interpolation-filters="sRGB">
   <feGaussianBlur stdDeviation="0.28293785"/>
  </filter>
  <filter id="g" x="-.03638" y="-.1453" width="1.0728" height="1.2906" color-interpolation-filters="sRGB">
   <feGaussianBlur stdDeviation="1.0061407"/>
  </filter>
 </defs>
 <path transform="matrix(.40412 0 0 .44895 2.0356 -117.75)" d="m2.1494 289.98c-0.53375 0.0924-0.52136 0.9588-0.4635 1.8243 0.020882 1.1229 0.080718 2.426 0.18058 3.5949 0.054723 0.97142 0.65112 1.7573 1.4599 1.7573h27.214c0.80879 0 1.4052-0.78588 1.4599-1.7573 0.09986-1.1689 0.15969-2.472 0.18058-3.5949 0.05787-0.86551 0.07025-1.7318-0.4635-1.8243h-27.426z" fill="#2e3440" filter="url(#h)" opacity=".5" stroke-width="2.3477"/>
 <g stroke-width=".99999">
  <path d="m2.9042 12.196c-0.2157 0.04148-0.21069 0.43045-0.18731 0.81902 0.00844 0.50412 0.03262 1.0891 0.072976 1.6139 0.022115 0.43612 0.26313 0.78894 0.58997 0.78894h10.998c0.32685 0 0.56787-0.35282 0.58997-0.78894 0.04035-0.52478 0.06453-1.1098 0.07298-1.6139 0.02339-0.38857 0.02839-0.77749-0.18731-0.81902h-11.083z" fill="url(#a)"/>
  <path d="m4.2412 0.69379c-0.12432-2.3795e-4 -0.23185 0.022627-0.31922 0.070844-0.14215 0.058552-0.20236 0.1683-0.24336 0.34706l-0.98084 11.545c-0.00481 0.05669-0.00167 0.1117 0.00831 0.16421 0.00399 0.02101 0.00906 0.04162 0.015164 0.06175 0.00305 0.0101 0.00637 0.02002 0.00993 0.02985 0.010663 0.0295 0.02356 0.05791 0.038422 0.08503 0.024771 0.04523 0.055017 0.08687 0.089666 0.12408 0.00693 0.0074 0.014028 0.01473 0.0213 0.02177 0.036362 0.03542 0.0769 0.06622 0.12046 0.09157 0.00871 0.0051 0.017507 0.0099 0.026454 0.01455 0.080517 0.04162 0.17017 0.06493 0.26244 0.06493h11.178c0.21527 0 0.41628-0.12704 0.52034-0.31693 0.01486-0.02712 0.02776-0.05553 0.03842-0.08503 0.0035-0.0098 0.0069-0.0198 0.0099-0.02985 0.0061-0.02011 0.01118-0.04077 0.01516-0.06175 0.01-0.05251 0.01313-0.10752 0.0083-0.16421l-0.9808-11.545c-0.041002-0.17876-0.10121-0.28851-0.24336-0.34707-0.087371-0.048204-0.19494-0.071082-0.31926-0.070839l-4.6373 0.008485z" fill="#d8dee9" opacity=".5"/>
  <path d="m4.2412 0.54563c-0.12432-2.4244e-4 -0.23185 0.022627-0.31922 0.070844-0.14215 0.058547-0.20236 0.1683-0.24336 0.34706l-0.98084 11.545c-0.00481 0.05668-0.00167 0.11169 0.00831 0.16421 0.00399 0.02101 0.00906 0.04157 0.015164 0.06176 0.00305 0.0101 0.00637 0.02002 0.00993 0.02985 0.010663 0.0295 0.02356 0.05791 0.038422 0.08504 0.024771 0.04523 0.055017 0.08686 0.089666 0.12408 0.00693 0.0074 0.014028 0.01468 0.0213 0.02173 0.036362 0.03542 0.0769 0.06622 0.12046 0.09157 0.00871 5e-3 0.017507 0.0099 0.026454 0.01455 0.080517 0.04162 0.17017 0.06493 0.26244 0.06493h11.178c0.21527 0 0.41628-0.12704 0.52034-0.31692 0.01486-0.02712 0.02776-0.05554 0.03842-0.08504 0.0035-0.0098 0.0069-0.0198 0.0099-0.02985 0.0061-0.02016 0.01118-0.04076 0.01516-0.06176 0.01-0.05251 0.01313-0.10752 0.0083-0.16421l-0.9808-11.545c-0.041-0.17876-0.10121-0.28851-0.24336-0.34706-0.08737-0.048208-0.19494-0.071086-0.31926-0.070844l-4.6373 0.00844z" fill="url(#b)"/>
  <path d="m4.4768 0.78358c-0.24277 0.0017958-0.52782 0.041213-0.58913 0.3242l-0.74168 8.9978c-0.00446 0.04413-0.00156 0.08703 0.00769 0.12794 0.0037 0.01639 0.00841 0.03237 0.014067 0.04811 0.00282 0.0079 0.00592 0.01558 0.00922 0.0233 0.00989 0.02299 0.021826 0.04509 0.035611 0.06624 0.0059 0.0091 0.012183 0.01796 0.018741 0.02667 0.00199 0.0027 0.00416 0.0051 0.00621 0.0077 0.00467 0.0059 0.00935 0.01181 0.01432 0.01755 0.00266 0.0031 0.00549 6e-3 0.00824 9e-3 0.00475 0.0053 0.00947 0.01042 0.01445 0.01544 0.00259 0.0027 0.00533 0.0051 0.00799 0.0077 0.00438 4e-3 0.00867 0.0085 0.013216 0.01266 0.00116 8.98e-4 0.0024 0.0018 0.00357 0.0031 0.00155 0.0013 0.00314 0.0027 0.00473 4e-3 0.00381 0.0031 0.00756 0.0066 0.011475 0.0098 0.00199 0.0018 0.00413 0.0031 0.00616 0.0047 0.00411 0.0031 0.00827 0.0064 0.012494 0.0096 0.0047 0.0036 0.00945 7e-3 0.01428 0.01037 0.00448 0.0031 0.00904 0.0062 0.01364 0.0092 0.00485 0.0031 0.00974 0.0063 0.014705 0.0094 0.00473 0.0027 0.00949 0.0057 0.014322 0.0085 0.00501 0.0027 0.010099 0.0057 0.015213 0.0084 0.0049 0.0027 0.0098 0.0053 0.014788 0.0078 0.00207 8.98e-4 0.00404 0.0022 0.00612 0.0031 0.0057 0.0027 0.011499 0.0054 0.017297 8e-3 0.00116 4.49e-4 0.00231 8.98e-4 0.0035 0.0013 0.00126 4.49e-4 0.00247 0.0013 0.00373 0.0018 0.00933 4e-3 0.0188 0.0079 0.028388 0.01149h4.06e-5c0.010406 0.0036 0.021022 0.0075 0.031704 0.01087 0.00346 8.98e-4 0.00697 0.0018 0.010452 0.0031 0.00752 0.0022 0.015061 4e-3 0.022694 0.0062 0.00388 8.98e-4 0.00778 0.0018 0.011687 0.0027 0.00733 0.0018 0.01471 0.0031 0.022142 0.0047 0.00379 8.98e-4 0.00758 0.0013 0.011387 0.0022 8e-3 0.0013 0.016054 0.0027 0.024139 0.0036 0.0035 4.49e-4 0.00698 8.98e-4 0.010497 0.0013 0.00871 8.98e-4 0.01747 0.0018 0.026265 0.0022 0.00288 2.42e-4 0.00574 4.49e-4 0.00863 4.49e-4 0.011753 8.97e-4 0.023541 8.97e-4 0.035401 8.97e-4h10.367c0.01186 0 0.02365-4.49e-4 0.0354-8.97e-4 0.0029-2.43e-4 0.0057-4.49e-4 0.0086-4.49e-4 0.0088-4.49e-4 0.01755-0.0013 0.02626-0.0022 0.0035-3.64e-4 7e-3 -8.98e-4 0.0105-0.0013 0.0081-8.98e-4 0.01614-0.0022 0.02414-0.0036 0.0038-4.49e-4 0.0076-0.0013 0.01139-0.0022 0.0074-0.0013 0.0148-0.0027 0.02214-0.0047 0.0039-8.98e-4 0.0078-0.0018 0.01169-0.0027 0.0078-0.0018 0.01552-4e-3 0.0232-0.0064 0.0032-8.98e-4 0.0065-0.0018 0.0097-0.0027 0.01077-0.0031 0.02142-7e-3 0.03191-0.01095h4.2e-5c0.0096-0.0036 0.01905-0.0074 0.02839-0.01149 0.0012-4.49e-4 0.0023-8.98e-4 0.0034-0.0013 0.0017-8.98e-4 0.0032-0.0013 0.0048-0.0022 0.0054-0.0022 0.01089-0.0049 0.01623-0.0075 0.0021-8.98e-4 4e-3 -0.0022 0.0061-0.0031 0.0051-0.0022 0.01006-0.0053 0.01505-0.0079 0.0049-0.0027 0.0099-0.0054 0.01471-0.0082 0.0049-0.0027 0.0098-0.0058 0.01466-0.0088 0.0051-0.0031 0.01008-0.0063 0.01504-0.0096 0.0044-0.0027 0.0088-0.0059 0.01309-0.0089 0.0049-0.0031 0.0097-0.0069 0.01445-0.01046 0.0042-0.0031 0.0084-0.0063 0.01249-0.0096 2e-3 -0.0013 0.0042-0.0031 0.0062-0.0047 0.0039-0.0031 0.0077-0.0066 0.01147-0.0098 0.0015-0.0013 0.0032-0.0027 0.0047-4e-3 0.0012-8.98e-4 0.0024-0.0018 0.0036-0.0031 0.0046-4e-3 0.0088-0.0084 0.01322-0.01266 0.0027-0.0027 0.0054-0.0051 8e-3 -0.0077 5e-3 -5e-3 0.0097-0.01024 0.01445-0.01544 0.0027-0.0027 0.0056-6e-3 0.0082-9e-3 0.0063-0.0073 0.01239-0.01473 0.01823-0.02236 5.65e-4 -8.98e-4 0.0013-0.0013 0.0019-0.0022 3.4e-5 -4.9e-5 5.3e-5 -9.4e-5 8.4e-5 -2.46e-4 0.0067-0.0088 0.01304-0.01782 0.01904-0.02703 0.01378-0.02115 0.02577-0.04328 0.03565-0.06624 0.0033-0.0076 0.0063-0.01544 0.0092-0.0233 0.0057-0.01567 0.01038-0.03174 0.01407-0.04811 0.0069-0.03066 0.01032-0.06248 0.0097-0.09508-2.17e-4 -0.01086-8.89e-4 -0.02182-2e-3 -0.03286l-0.74158-8.9981c-0.070055-0.32343-0.43237-0.3283-0.68979-0.3234l-4.301 0.006555-4.301-0.006555c-0.032183-4.4894e-4 -0.065993-8.9789e-4 -0.10067-8.9789e-4z" fill="url(#f)"/>
  <rect x="4.1575" y="14.14" width="9.4423" height=".44904" ry=".22451" fill="url(#e)"/>
 </g>
 <path transform="matrix(.10828 0 0 .12029 1.9485 .48854)" d="m32.182 114.43c7.5581 10.09 19.61 16.619 33.188 16.619 13.577 0 25.629-6.5288 33.188-16.619z" filter="url(#g)" opacity=".35" stroke-width="9.2161"/>
 <g stroke-width="1.0518">
  <path d="m5.6045 14.144c0.80316 1.1144 2.0373 1.829 3.4223 1.829s2.6191-0.71461 3.4223-1.829z" fill="#e5e9f0"/>
  <path d="m5.7424 14.144c0.78415 1.0445 1.9641 1.7094 3.2844 1.7094s2.5002-0.66494 3.2844-1.7094z" fill="url(#c)"/>
  <path d="m5.6032 14.144c0.81273 1.1293 2.0594 1.829 3.4236 1.829v-1.829z" fill="url(#d)" opacity=".7"/>
 </g>
</svg>
