<svg width="64" height="64" version="1.1" viewBox="0 0 64 64" xmlns="http://www.w3.org/2000/svg" xmlns:xlink="http://www.w3.org/1999/xlink">
 <defs>
  <filter id="filter1710-3" x="-.025239" y="-.029025" width="1.0505" height="1.058" color-interpolation-filters="sRGB">
   <feGaussianBlur stdDeviation="0.60858515"/>
  </filter>
  <linearGradient id="linearGradient1453-6" x1="50.27" x2="50.27" y1="15.081" y2="14.023" gradientTransform="matrix(7.3154 0 0 7.3154 -239.37 -57.219)" gradientUnits="userSpaceOnUse">
   <stop stop-color="#4c566a" offset="0"/>
   <stop stop-color="#2e3440" offset="1"/>
  </linearGradient>
  <linearGradient id="linearGradient4336-7" x1="242.09" x2="173.32" y1="131.04" y2="131.04" gradientTransform="matrix(.3932 0 0 .3932 37.386 -6.1679)" gradientUnits="userSpaceOnUse">
   <stop stop-color="#7b88a1" offset="0"/>
   <stop stop-color="#4c566a" offset="1"/>
  </linearGradient>
  <linearGradient id="linearGradient1475-5" x1="120.59" x2="118.64" y1="137.54" y2="139.07" gradientTransform="matrix(.3932 0 0 .3932 78.62 -5.873)" gradientUnits="userSpaceOnUse" xlink:href="#linearGradient5710"/>
  <linearGradient id="linearGradient5710">
   <stop stop-color="#2e3440" offset="0"/>
   <stop stop-color="#4c566a" offset="1"/>
  </linearGradient>
  <linearGradient id="linearGradient1477-6" x1="120.59" x2="118.64" y1="137.54" y2="139.07" gradientTransform="matrix(.3932 0 0 .3932 81.087 -5.873)" gradientUnits="userSpaceOnUse" xlink:href="#linearGradient5710"/>
  <linearGradient id="linearGradient1479-2" x1="120.59" x2="118.64" y1="137.54" y2="139.07" gradientTransform="matrix(.3932 0 0 .3932 83.553 -5.873)" gradientUnits="userSpaceOnUse" xlink:href="#linearGradient5710"/>
  <linearGradient id="linearGradient1481-9" x1="120.59" x2="118.64" y1="137.54" y2="139.07" gradientTransform="matrix(.3932 0 0 .3932 86.019 -5.873)" gradientUnits="userSpaceOnUse" xlink:href="#linearGradient5710"/>
  <linearGradient id="linearGradient1483-1" x1="120.59" x2="118.64" y1="137.54" y2="139.07" gradientTransform="matrix(.3932 0 0 .3932 88.485 -5.873)" gradientUnits="userSpaceOnUse" xlink:href="#linearGradient5710"/>
  <linearGradient id="linearGradient1485-2" x1="120.59" x2="118.64" y1="137.54" y2="139.07" gradientTransform="matrix(.3932 0 0 .3932 90.951 -5.873)" gradientUnits="userSpaceOnUse" xlink:href="#linearGradient5710"/>
  <linearGradient id="linearGradient1487-7" x1="120.59" x2="118.64" y1="137.54" y2="139.07" gradientTransform="matrix(.3932 0 0 .3932 93.417 -5.873)" gradientUnits="userSpaceOnUse" xlink:href="#linearGradient5710"/>
  <linearGradient id="linearGradient1517-6" x1="38.364" x2="39.951" y1="15.17" y2="15.17" gradientTransform="matrix(7.3154 0 0 7.3154 -180.55 -64.961)" gradientUnits="userSpaceOnUse">
   <stop stop-color="#2e3440" offset="0"/>
   <stop stop-color="#7b88a1" offset=".33438"/>
   <stop stop-color="#a6aebf" offset=".50217"/>
   <stop stop-color="#7b88a1" offset=".68594"/>
   <stop stop-color="#2e3440" offset="1"/>
  </linearGradient>
  <linearGradient id="linearGradient1521-0" x1="38.364" x2="39.951" y1="15.17" y2="15.17" gradientTransform="matrix(7.3154 0 0 7.3154 -136.03 -64.961)" gradientUnits="userSpaceOnUse">
   <stop stop-color="#2e3440" offset="0"/>
   <stop stop-color="#4c566a" offset=".33438"/>
   <stop stop-color="#7b88a1" offset=".50217"/>
   <stop stop-color="#4c566a" offset=".68594"/>
   <stop stop-color="#2e3440" offset="1"/>
  </linearGradient>
  <linearGradient id="linearGradient1491-6" x1="50.27" x2="50.27" y1="14.816" y2="8.7311" gradientTransform="matrix(7.3154 0 0 7.3154 -239.37 -66.896)" gradientUnits="userSpaceOnUse">
   <stop stop-color="#d8dee9" offset="0"/>
   <stop stop-color="#a6aebf" offset="1"/>
  </linearGradient>
  <linearGradient id="linearGradient4265-2" x1="285.3" x2="177.35" y1="58.879" y2="58.879" gradientTransform="matrix(.3932 0 0 .3932 37.386 -6.1679)" gradientUnits="userSpaceOnUse">
   <stop stop-color="#2e3440" offset="0"/>
   <stop stop-color="#eceff4" offset=".14845"/>
   <stop stop-color="#7b88a1" offset=".55"/>
   <stop stop-color="#434c5e" offset="1"/>
  </linearGradient>
  <linearGradient id="linearGradient4247-8" x1="237.32" x2="239.69" y1="18.634" y2="111.87" gradientTransform="matrix(.3932 0 0 .3932 37.386 -6.1679)" gradientUnits="userSpaceOnUse">
   <stop stop-color="#a6aebf" offset="0"/>
   <stop stop-color="#d8dee9" offset="1"/>
  </linearGradient>
  <linearGradient id="linearGradient1439-7" x1="144.66" x2="174.56" y1="55.562" y2="55.562" gradientTransform="matrix(1.9355 0 0 1.9355 -180.55 -64.961)" gradientUnits="userSpaceOnUse">
   <stop stop-color="#a6aebf" offset="0"/>
   <stop stop-color="#7b88a1" offset=".056041"/>
   <stop stop-color="#4c566a" offset=".11456"/>
   <stop stop-color="#7b88a1" offset=".50498"/>
   <stop stop-color="#4c566a" offset=".91543"/>
   <stop stop-color="#7b88a1" offset=".96193"/>
   <stop stop-color="#a6aebf" offset="1"/>
  </linearGradient>
  <linearGradient id="linearGradient1457-9" x1="144.66" x2="174.56" y1="55.562" y2="55.562" gradientTransform="matrix(1.9355 0 0 1.9355 -180.55 -55.283)" gradientUnits="userSpaceOnUse">
   <stop stop-color="#7b88a1" offset="0"/>
   <stop stop-color="#a6aebf" offset=".056041"/>
   <stop stop-color="#4c566a" offset=".11456"/>
   <stop stop-color="#7b88a1" offset=".50498"/>
   <stop stop-color="#4c566a" offset=".91543"/>
   <stop stop-color="#a6aebf" offset=".96193"/>
   <stop stop-color="#7b88a1" offset="1"/>
  </linearGradient>
 </defs>
 <g transform="translate(-96.372 6.481)">
  <path d="m109.7 5.6762c-3.8006 0-5.7562 1.757-6.1353 5.4133l-4.1016 39.53c-0.30746 2.9646 2.3988 5.3793 5.3793 5.3793h47.064c2.9805 0 5.6867-2.4146 5.3793-5.3793l-4.1016-39.53c-0.37914-3.6563-2.3347-5.4133-6.1353-5.4133h-19.43z" filter="url(#filter1710-3)" opacity=".35" stroke-width="7.3153"/>
  <g stroke-width="7.3154">
   <path d="m109.7 4.7162c-3.8006 0-5.7562 1.757-6.1353 5.4133l-4.1016 39.53c-0.30746 2.9646 2.3988 5.3793 5.3793 5.3793h47.064c2.9805 0 5.6867-2.4147 5.3793-5.3793l-4.1016-39.53c-0.37914-3.6563-2.3347-5.4133-6.1353-5.4133h-19.43z" fill="url(#linearGradient1453-6)"/>
   <path d="m105.91 46.613h4.7125c6.422 4.372 13.079 4.3669 19.792 4.3669h11.626l8.8348-3.6858s0.84039-3.2259 0.46336-3.1316c-0.37703 0.09429-46.088 0-46.088 0z" fill-opacity=".08365"/>
   <path d="m105.91 46.284h4.7125c6.422 4.372 13.079 4.3669 19.792 4.3669h11.363l9.262-3.3526s0.67638-3.5591 0.29934-3.4648c-0.37703 0.09429-46.088 0-46.088 0z" fill="url(#linearGradient4336-7)"/>
   <path d="m100.1 38.925v9.6775a5.8064 4.5024 0 0 0 5.8064 4.5022 5.8064 4.5024 0 0 0 5.8064-4.5022v-9.6775z" fill="#7a7b7b"/>
  </g>
  <g stroke-width=".3932">
   <rect x="125.27" y="44.311" width="1.3995" height="6.5311" rx=".19993" ry=".19993" fill="url(#linearGradient1475-5)" style="paint-order:fill markers stroke"/>
   <rect x="127.74" y="44.311" width="1.3995" height="6.5311" rx=".19993" ry=".19993" fill="url(#linearGradient1477-6)" style="paint-order:fill markers stroke"/>
   <rect x="130.2" y="44.311" width="1.3995" height="6.5311" rx=".19993" ry=".19993" fill="url(#linearGradient1479-2)" style="paint-order:fill markers stroke"/>
   <rect x="132.67" y="44.311" width="1.3995" height="6.5311" rx=".19993" ry=".19993" fill="url(#linearGradient1481-9)" style="paint-order:fill markers stroke"/>
   <rect x="135.14" y="44.311" width="1.3995" height="6.5311" rx=".19993" ry=".19993" fill="url(#linearGradient1483-1)" style="paint-order:fill markers stroke"/>
   <rect x="137.6" y="44.311" width="1.3995" height="6.5311" rx=".19993" ry=".19993" fill="url(#linearGradient1485-2)" style="paint-order:fill markers stroke"/>
   <rect x="140.07" y="44.311" width="1.3995" height="6.5311" rx=".19993" ry=".19993" fill="url(#linearGradient1487-7)" style="paint-order:fill markers stroke"/>
  </g>
  <g stroke-width="7.3154">
   <path d="m144.61 38.925v9.6775a5.8064 4.5024 0 0 0 5.8064 4.5022 5.8064 4.5024 0 0 0 5.8065-4.5022v-9.6775z" fill="#797a7a"/>
   <path d="m100.1 38.925v9.6775a5.8064 4.5024 0 0 0 5.8064 4.5022 5.8064 4.5024 0 0 0 5.8064-4.5022v-9.6775z" fill="url(#linearGradient1517-6)"/>
   <path d="m144.61 38.925v9.6775a5.8064 4.5024 0 0 0 5.8064 4.5022 5.8064 4.5024 0 0 0 5.8065-4.5022v-9.6775z" fill="url(#linearGradient1521-0)"/>
   <path d="m109.7-4.9608c-3.8006 0-5.7562 1.757-6.1353 5.4133l-4.1016 39.53c-0.30746 2.9646 2.3988 5.3793 5.3793 5.3793h47.064c2.9805 0 5.6867-2.4147 5.3793-5.3793l-4.1016-39.53c-0.37914-3.6563-2.3347-5.4133-6.1353-5.4133h-19.43z" fill="url(#linearGradient1491-6)"/>
   <path d="m147.25 0.10578-0.99591-0.91259-10.3 11.474c-2.6308 0.34938-5.2478 0.52736-7.895 0.50761-12.35-0.46848-23.016 6.8214-23.016 14.793 0 7.9715 10.018 14.433 22.378 14.433 12.359 0 22.879-6.5589 22.879-14.53 0-0.80674-0.10798-1.5974-0.3052-2.3681z" fill="url(#linearGradient4265-2)" style="paint-order:fill markers stroke"/>
   <path d="m108.98 7.4992 31.018 0.42952-0.6436-7.965c-7.8377 0.79196-26.614 1.8193-29.771 6.9261z" fill="#7a8285"/>
   <path d="m146.37-0.83642-36.452 0.25122-0.32078 7.4931 27.304 0.20955-0.55662 3.165-0.4052 0.66211c-0.7935-0.05998-4.2396 0.44104-5.0556 0.38559-13.308-0.90334-24.5 6.095-24.5 13.825 0 7.7295 9.4288 13.996 21.059 13.996s21.531-6.3598 21.531-14.089c0-0.7823-0.10154-1.549-0.2872-2.2962z" fill="url(#linearGradient4247-8)" style="paint-order:fill markers stroke"/>
   <path d="m111.9 0.080175h22.599c0.36862 0 0.64273 0.29743 0.66533 0.66532l0.28449 4.627c0.0227 0.3679-0.29671 0.66532-0.66533 0.66532h-23.135c-0.36855 0-0.6853-0.29727-0.66533-0.66532l0.25128-4.627c0.0285-0.36746 0.2967-0.66532 0.66532-0.66532z" fill="#2e3440"/>
   <rect x="112.16" y="2.3487" width="15.76" height=".085538" fill="#fff"/>
   <path d="m112.1 1.1044v0.12097h0.0945v-0.12097zm8.3015 0v0.31376c-0.0198-0.034528-0.0446-0.062839-0.0756-0.079386-0.03-0.016898-0.0666-0.022678-0.10966-0.022678-0.0702 0-0.12575 0.027213-0.17008 0.083168-0.0439 0.055962-0.068 0.12812-0.068 0.21926 0 0.091142 0.0241 0.16711 0.068 0.22303 0.0439 0.055889 0.1 0.083168 0.17008 0.083168 0.0432 0 0.0794-0.00988 0.10966-0.026482 0.0307-0.016898 0.0556-0.041112 0.0756-0.075604v0.086943h0.0945v-0.8052zm1.4441 0v0.12097h0.0983v-0.12097zm0.84302 0v0.8052h0.0983v-0.28351l0.29488 0.28351h0.12473l-0.32129-0.30998 0.30622-0.27217h-0.121l-0.28354 0.25328v-0.47631zm-4.5287 0.030212v0.77492h0.10585v-0.37046h0.37798v0.37046h0.10585v-0.77492h-0.10585v0.31754h-0.37798v-0.31754zm2.873 0v0.77492h0.21544c0.14916 0 0.25845-0.032041 0.3289-0.094507 0.0702-0.062473 0.10585-0.16161 0.10585-0.29486 0-0.13256-0.0322-0.22894-0.10205-0.29108-0.0702-0.062473-0.18281-0.094507-0.33263-0.094507zm-7.965 0.030212v0.16255h-0.0717v0.075604h0.0717v0.31376c0 0.072495 0.0139 0.12361 0.0417 0.15121 0.0278 0.027286 0.0777 0.041551 0.15121 0.041551h0.0983v-0.079386h-0.0983c-0.0395 0-0.0666-0.00922-0.0794-0.022678-0.0124-0.01346-0.019-0.043453-0.019-0.090725v-0.31376h0.19656v-0.075604h-0.19657v-0.16255zm3.2435 0v0.16255h-0.068v0.075604h0.068v0.31376c0 0.072495 0.0139 0.12361 0.0417 0.15121 0.0278 0.027286 0.0814 0.041551 0.15501 0.041551h0.0983v-0.079386h-0.0983c-0.0395 0-0.0666-0.00922-0.0794-0.022678-0.0124-0.01346-0.019-0.043453-0.019-0.090725v-0.31376h0.19656v-0.075604h-0.19656v-0.16255zm4.8274 0.056694h0.12853c0.10673 0 0.1812 0.023482 0.23058 0.071837 0.0498 0.047989 0.0756 0.12325 0.0756 0.22681 0 0.10425-0.0256 0.18226-0.0756 0.23059-0.0497 0.048355-0.12392 0.071837-0.23058 0.071837h-0.12853zm-8.4639 0.094507c-0.0402 0-0.0746 0.00922-0.10585 0.026482-0.0307 0.017264-0.0563 0.040746-0.0794 0.075604v-0.090724h-0.0983v0.58216h0.0983v-0.32888c0-0.056621 0.0117-0.099533 0.0417-0.13231 0.03-0.032773 0.0733-0.049159 0.12473-0.049159 0.0424 0 0.0731 0.014338 0.0945 0.041551 0.0212 0.027286 0.0344 0.066058 0.0344 0.12097v0.34778h0.0945v-0.35156c0-0.08011-0.019-0.14039-0.0527-0.18145-0.0344-0.041405-0.0846-0.060498-0.15121-0.060498zm1.0509 0c-0.087 0-0.15648 0.027213-0.2079 0.083168-0.0512 0.055597-0.0756 0.13188-0.0756 0.22681 0 0.091822 0.0256 0.16162 0.0794 0.21547 0.0541 0.053841 0.13051 0.083168 0.22304 0.083168 0.0366 0 0.0735-0.00373 0.10966-0.011339 0.0358-0.00761 0.068-0.019532 0.10205-0.034016v-0.090725c-0.0337 0.017923-0.0673 0.032626-0.10205 0.041551-0.0344 9e-3 -0.0695 0.011339-0.10585 0.011339-0.0629 0-0.11185-0.014923-0.14748-0.049159-0.0351-0.034529-0.0563-0.085619-0.0607-0.15121h0.43856v-0.045355c0-0.086299-0.0227-0.15408-0.068-0.20413-0.0454-0.050403-0.10724-0.075604-0.18522-0.075604zm0.69554 0c-0.0461 0-0.0812 0.00922-0.11339 0.026482-0.0322 0.016898-0.0593 0.040381-0.0794 0.075604v-0.090724h-0.0983v0.58216h0.0983v-0.3062c0-0.065619 0.0132-0.11634 0.0417-0.15121 0.0293-0.035187 0.071-0.05289 0.12473-0.05289 0.0154 0 0.0293 6.716e-4 0.0417 0.00378 0.0124 0.00278 0.0234 0.00892 0.0336 0.015143v-0.098297c-9e-3 -0.00173-0.019-0.00309-0.0263-0.00378-8e-3 -0.00104-0.0161 0-0.0227 0zm0.41207 0c-0.0402 0-0.0746 0.00922-0.10585 0.026482-0.0307 0.017264-0.06 0.040746-0.0832 0.075604v-0.090724h-0.0945v0.58216h0.0945v-0.32888c0-0.056621 0.0154-0.099533 0.0454-0.13231 0.03-0.032773 0.0695-0.049159 0.121-0.049159 0.0424 0 0.0768 0.014338 0.0983 0.041551 0.0212 0.027286 0.03 0.066058 0.03 0.12097v0.34778h0.0945v-0.35156c0-0.08011-0.0154-0.14039-0.049-0.18145-0.0344-0.041405-0.0846-0.060498-0.15121-0.060498zm0.63512 0c-0.087 0-0.15648 0.027213-0.2079 0.083168-0.0512 0.055597-0.0756 0.13188-0.0756 0.22681 0 0.091822 0.0256 0.16162 0.0794 0.21547 0.0541 0.053841 0.1267 0.083168 0.21924 0.083168 0.0366 0 0.0735-0.00373 0.10966-0.011339 0.0358-0.00761 0.0717-0.019532 0.10585-0.034016v-0.090725c-0.0336 0.017923-0.0673 0.032626-0.10205 0.041551-0.0344 9e-3 -0.0695 0.011339-0.10585 0.011339-0.0629 0-0.11185-0.014923-0.14748-0.049159-0.0351-0.034529-0.0563-0.085619-0.0607-0.15121h0.43848v-0.045355c0-0.086299-0.0227-0.15408-0.068-0.20413-0.0454-0.050403-0.10717-0.075604-0.18522-0.075604zm0.69554 0c-0.0461 0-0.085 0.00922-0.11719 0.026482-0.0322 0.016898-0.0556 0.040381-0.0756 0.075604v-0.090724h-0.0983v0.58216h0.0983v-0.3062c0-0.065619 0.0132-0.11634 0.0417-0.15121 0.0293-0.035187 0.071-0.05289 0.12473-0.05289 0.0154 0 0.0293 6.716e-4 0.0417 0.00378 0.0124 0.00278 0.0234 0.00892 0.0336 0.015143v-0.098297c-9e-3 -0.00173-0.019-0.00309-0.0263-0.00378-8e-3 -0.00104-0.0161 0-0.0227 0zm0.809 0c-0.087 0-0.15648 0.027213-0.2079 0.083168-0.0512 0.055597-0.0756 0.13188-0.0756 0.22681 0 0.091822 0.0256 0.16162 0.0794 0.21547 0.0541 0.053841 0.12678 0.083168 0.21924 0.083168 0.0366 0 0.0735-0.00373 0.10966-0.011339 0.0358-0.00761 0.0717-0.019532 0.10585-0.034016v-0.090725c-0.0336 0.017923-0.0673 0.032626-0.10205 0.041551-0.0344 9e-3 -0.0695 0.011339-0.10585 0.011339-0.0629 0-0.11185-0.014923-0.1474-0.049159-0.0351-0.034529-0.0563-0.085619-0.0607-0.15121h0.43848v-0.045355c0-0.086299-0.0227-0.15408-0.068-0.20413-0.0454-0.050403-0.10717-0.075604-0.18522-0.075604zm0.69554 0c-0.0461 0-0.085 0.00922-0.11719 0.026482-0.0322 0.016898-0.0556 0.040381-0.0756 0.075604v-0.090724h-0.0983v0.58216h0.0983v-0.3062c0-0.065619 0.0132-0.11634 0.0417-0.15121 0.0293-0.035187 0.071-0.05289 0.12473-0.05289 0.0154 0 0.0293 6.716e-4 0.0417 0.00378 0.0124 0.00278 0.0234 0.00892 0.0344 0.015143v-0.098297c-0.01-0.00173-0.0183-0.00309-0.0263-0.00378-8e-3 -0.00104-0.0161 0-0.0227 0zm1.4894 0c-0.0315 0-0.0658 6.342e-4 -0.0983 0.00753-0.0329 0.00658-0.0636 0.016752-0.0983 0.030212v0.090725c0.0293-0.015874 0.0593-0.029847 0.0907-0.03782 0.0315-0.00797 0.0615-0.011339 0.0945-0.011339 0.0519 0 0.0922 0.01368 0.121 0.03782 0.0285 0.023848 0.0454 0.05823 0.0454 0.10206v0.00753h-0.13614c-0.0866 0-0.14887 0.015947-0.19276 0.049159-0.0432 0.033138-0.068 0.082188-0.068 0.14743 0 0.055889 0.0183 0.10258 0.0527 0.13609 0.0351 0.033139 0.0843 0.049159 0.14367 0.049159 0.0468 0 0.0845-0.00988 0.11719-0.026482 0.0322-0.016898 0.0615-0.040381 0.0832-0.075604v0.086943h0.0945v-0.33265c0-0.088369-0.0227-0.15307-0.0644-0.19657-0.0417-0.043526-0.10132-0.064229-0.18522-0.064229zm0.73336 0c-0.0461 0-0.085 0.00922-0.11719 0.026482-0.0322 0.016898-0.0592 0.040381-0.0794 0.075604v-0.090724h-0.0945v0.58216h0.0945v-0.3062c0-0.065619 0.0132-0.11634 0.0417-0.15121 0.0293-0.035187 0.071-0.05289 0.12473-0.05289 0.0154 0 0.0293 6.716e-4 0.0417 0.00378 0.0124 0.00278 0.0271 0.00892 0.038 0.015143l-4e-3 -0.098282c-0.01-0.00173-0.019-0.00309-0.0263-0.00378-8e-3 -0.00104-0.0124 0-0.019 0zm2.4345 0c-0.071 0-0.124 0.015655-0.16255 0.045355-0.0388 0.0297-0.0607 0.070227-0.0607 0.12475 0 0.044843 0.0154 0.079949 0.0417 0.10585 0.0263 0.025531 0.0695 0.044258 0.12853 0.056694l0.03 0.00753c0.0593 0.012802 0.10015 0.027798 0.11719 0.041551 0.0176 0.013826 0.0263 0.030798 0.0263 0.056694 0 0.027945-0.0132 0.052524-0.038 0.068033-0.0241 0.015143-0.0571 0.022678-0.10205 0.022678-0.0337 0-0.068-0.00615-0.10205-0.015143-0.0344-0.00929-0.071-0.023263-0.10585-0.041551v0.098289c0.0373 0.01207 0.0724 0.020629 0.10585 0.026482 0.0337 0.00619 0.0673 0.011339 0.0983 0.011339 0.0746 0 0.13146-0.017703 0.17389-0.049159 0.0432-0.031383 0.068-0.070886 0.068-0.12475 0-0.047257-0.0168-0.08717-0.0454-0.1134-0.0285-0.026555-0.076-0.046014-0.14367-0.060498l-0.0344-0.00753c-0.0512-0.011339-0.085-0.02158-0.10205-0.034016-0.0168-0.012802-0.0227-0.030798-0.0227-0.05289 0-0.029042 0.0102-0.049744 0.0344-0.064229 0.0241-0.014484 0.0585-0.022678 0.10585-0.022678 0.0315 0 0.0622 0.00441 0.0907 0.011339 0.0293 0.00692 0.0563 0.016459 0.0832 0.030212v-0.090725c-0.0263-0.010388-0.0519-0.017484-0.0832-0.022678-0.0315-0.00517-0.0673-0.00753-0.10205-0.00753zm-10.225 0.011339v0.58216h0.0945v-0.58216zm9.7455 0v0.58216h0.0983v-0.58216zm-8.1164 0.068033c0.0468-1.5e-6 0.0814 0.014265 0.10966 0.045355 0.0285 0.03109 0.0446 0.072641 0.0454 0.12475l-0.34024 0.00378c5e-3 -0.054499 0.0249-0.098487 0.0563-0.12853 0.0322-0.030066 0.0754-0.045355 0.12853-0.045355zm1.7389 0c0.0468-1.5e-6 0.0851 0.014265 0.11339 0.045355 0.0285 0.03109 0.0446 0.072641 0.0454 0.12475l-0.34024 0.00378c5e-3 -0.054499 0.0249-0.098487 0.0563-0.12853 0.0322-0.030066 0.0717-0.045355 0.12473-0.045355zm1.5045 0c0.0468-1.5e-6 0.0851 0.014265 0.11339 0.045355 0.0285 0.03109 0.0446 0.072641 0.0453 0.12475l-0.34024 0.00378c5e-3 -0.054499 0.0212-0.098487 0.0527-0.12853 0.0322-0.030066 0.0754-0.045355 0.12853-0.045355zm3.2662 0c0.0505-1.5e-6 0.0923 0.02041 0.121 0.060498 0.0285 0.039722 0.0417 0.092473 0.0417 0.16255 0 0.070081-0.0132 0.12629-0.0417 0.16633-0.0293 0.039722-0.0702 0.060498-0.121 0.060498-0.0505 0-0.0884-0.020776-0.11719-0.060498-0.0285-0.040015-0.0453-0.096255-0.0453-0.16633 0-0.070081 0.0168-0.12285 0.0453-0.16255 0.0293-0.040015 0.0666-0.060498 0.11719-0.060498zm-1.0244 0.22303h0.0983v0.018874c0 0.062107-0.0168 0.11356-0.049 0.15121-0.0315 0.037235-0.0757 0.056694-0.12853 0.056694-0.038 0-0.068-0.010607-0.0907-0.030212-0.022-0.019971-0.0336-0.045575-0.0336-0.079386 0-0.042429 0.0154-0.073154 0.0454-0.090725 0.03-0.01763 0.0818-0.026482 0.15874-0.026482zm-7.1144 1.1342v0.090725h0.0756v-0.090725zm6.3697 0v0.23816c-0.0154-0.026482-0.0373-0.043965-0.0607-0.056694-0.0234-0.012948-0.0505-0.018874-0.0832-0.018874-0.0534 0-0.0982 0.021361-0.13233 0.064229-0.0337 0.042868-0.049 0.1002-0.049 0.17011 0 0.06993 0.0154 0.12341 0.049 0.16633 0.0336 0.04294 0.0786 0.06423 0.13233 0.06423 0.0329 0 0.06-0.0062 0.0832-0.01887 0.0234-0.01295 0.0446-0.03021 0.0607-0.05669v0.06423h0.0717v-0.61619zm1.1076 0v0.090725h0.0717v-0.090725zm0.64646 0v0.61618h0.0756v-0.21547l0.22304 0.21547h0.0983l-0.24573-0.23438 0.23438-0.20792h-0.0945l-0.21551 0.18901v-0.3629zm0.73336 0v0.090725h0.0717v-0.090725zm-4.2074 0.022678v0.5935h0.0794v-0.27974h0.29108v0.27974h0.0794v-0.5935h-0.0794v0.24572h-0.29108v-0.24572zm2.2039 0v0.5935h0.16635c0.11441 0 0.19927-0.02392 0.25326-0.07184 0.0541-0.04792 0.0794-0.12081 0.0794-0.22303 0-0.10172-0.0256-0.17917-0.0794-0.22681-0.0534-0.047916-0.13833-0.071837-0.25326-0.071837zm-6.1126 0.022678v0.12853h-0.0527v0.056694h0.0527v0.23816c0 0.05567 0.0124 0.09602 0.0337 0.11718 0.0212 0.02092 0.0571 0.03021 0.11339 0.03021h0.0756v-0.0605h-0.0756c-0.03 0-0.0505-0.0048-0.0607-0.01514-0.01-0.01032-0.0117-0.03555-0.0117-0.07184v-0.23815h0.1474v-0.056694h-0.1474v-0.12853zm2.4912 0v0.12853h-0.0527v0.056694h0.0527v0.23816c0 0.05567 9e-3 0.09602 0.03 0.11718 0.0212 0.02092 0.0607 0.03021 0.11719 0.03021h0.0756v-0.0605h-0.0756c-0.03 0-0.0505-0.0048-0.0607-0.01514-0.01-0.01032-0.0154-0.03555-0.0154-0.07184v-0.23815h0.15121v-0.056694h-0.15121v-0.12853zm6.3659 0v0.12853h-0.0527v0.056694h0.0527v0.23816c0 0.05567 9e-3 0.09602 0.03 0.11718 0.0212 0.02092 0.0607 0.03021 0.11719 0.03021h0.0756v-0.0605h-0.0756c-0.03 0-0.0505-0.0048-0.0607-0.01514-0.01-0.01032-0.0154-0.03555-0.0154-0.07184v-0.23815h0.15121v-0.056694h-0.15121v-0.12853zm2.4912 0v0.12853h-0.0571v0.056694h0.0571v0.23816c0 0.05567 9e-3 0.09602 0.03 0.11718 0.0212 0.02092 0.0607 0.03021 0.11719 0.03021h0.0756v-0.0605h-0.0756c-0.03 0-0.0505-0.0048-0.0607-0.01514-9e-3 -0.01032-0.0154-0.03555-0.0154-0.07184v-0.23815h0.15121v-0.056694h-0.1512v-0.12853zm-5.1562 0.045355h0.0983c0.0816 0 0.13965 0.019605 0.17762 0.056694 0.038 0.036796 0.0607 0.094441 0.0607 0.17389 0 0.07999-0.0227 0.13683-0.0607 0.17389-0.038 0.03709-0.0958 0.05669-0.17762 0.05669h-0.0983zm-6.4907 0.071837c-0.0307 0-0.0593 0.00564-0.0832 0.018874-0.0234 0.013241-0.0432 0.033724-0.0607 0.060498v-0.068033h-0.0756v0.44229h0.0756v-0.2495c0-0.04345 0.011-0.0769 0.0344-0.10206 0.0227-0.025165 0.0512-0.03782 0.0907-0.03782 0.0329 0 0.0592 0.00929 0.0756 0.030212 0.0168 0.020922 0.0263 0.052451 0.0263 0.094507v0.26462h0.0717v-0.2684c0-0.061449-0.0154-0.10836-0.0417-0.13987-0.0263-0.031822-0.0622-0.045355-0.11339-0.045355zm0.8052 0c-0.0666 0-0.11931 0.021361-0.15882 0.064229-0.0388 0.042649-0.0607 0.10106-0.0607 0.17389 0 0.07045 0.0227 0.12503 0.0644 0.16633 0.0417 0.04133 0.0954 0.0605 0.16628 0.0605 0.0285 0 0.06-0.0018 0.087-0.0075 0.0271-0.0059 0.0534-0.01536 0.0794-0.02648v-0.06803c-0.0263 0.01383-0.0534 0.02334-0.0794 0.03021-0.0263 0.0069-0.0512 0.01134-0.0794 0.01134-0.0483 0-0.0861-0.01156-0.11339-0.03782-0.0271-0.02648-0.0424-0.06686-0.0454-0.11718h0.33263v-0.03402c0-0.0662-0.0176-0.12039-0.0527-0.15877-0.0344-0.038698-0.08-0.056694-0.13987-0.056694zm0.5368 0c-0.0351 0-0.0666 0.00564-0.0907 0.018874-0.0241 0.012948-0.0446 0.033431-0.0607 0.060498v-0.068033h-0.0717v0.44229h0.0717v-0.23437c0-0.05033 0.0124-0.08668 0.0344-0.11341 0.022-0.026994 0.0534-0.041551 0.0945-0.041551 0.011 0 0.0205 0.0014 0.03 0.00378 0.01 0.00211 0.0183 0.00657 0.0263 0.011339v-0.075633c-8e-3 -0.00132-0.0132-0.00325-0.019-0.00378-6e-3 -7.959e-4 -0.0102 0-0.0154 0zm0.30995 0c-0.0307 0-0.0556 0.00564-0.0794 0.018874-0.0234 0.013241-0.0468 0.033724-0.0644 0.060498v-0.068033h-0.0717v0.44229h0.0717v-0.2495c0-0.04345 0.0146-0.0769 0.038-0.10206 0.0227-0.025165 0.0512-0.03782 0.0907-0.03782 0.0329 0 0.0592 0.00929 0.0756 0.030212 0.0168 0.020922 0.0227 0.052451 0.0227 0.094507v0.26462h0.0756v-0.2684c0-0.061449-0.0154-0.10836-0.0417-0.13987-0.0263-0.031822-0.0658-0.045355-0.11719-0.045355zm0.48764 0c-0.0666 0-0.11924 0.021361-0.15874 0.064229-0.0388 0.042649-0.0571 0.10106-0.0571 0.17389 0 0.07045 0.019 0.12503 0.0607 0.16633 0.0417 0.04133 0.0992 0.0605 0.17008 0.0605 0.0285 0 0.0556-0.0018 0.0832-0.0075 0.0271-0.0059 0.0534-0.01536 0.0794-0.02648v-0.06803c-0.0263 0.01383-0.049 0.02334-0.0756 0.03021-0.0263 0.0069-0.0549 0.01134-0.0832 0.01134-0.0483 0-0.0861-0.01156-0.11339-0.03782-0.0271-0.02648-0.0424-0.06686-0.0454-0.11718h0.33643v-0.03402c0-0.0662-0.0176-0.12039-0.0527-0.15877-0.0344-0.038698-0.0838-0.056694-0.14367-0.056694zm0.5368 0c-0.0351 0-0.0658 0.00564-0.0907 0.018874-0.0249 0.012948-0.0417 0.033431-0.0571 0.060498v-0.068033h-0.0756v0.44229h0.0756v-0.23437c0-0.05033 8e-3 -0.08668 0.03-0.11341 0.0219-0.026994 0.0534-0.041551 0.0945-0.041551 0.011 0 0.0241 0.0014 0.0344 0.00378 0.01 0.00211 0.0183 0.00657 0.0263 0.011339v-0.075633c-8e-3 -0.00132-0.0132-0.00325-0.019-0.00378-6e-3 -7.959e-4 -0.0139 0-0.019 0zm0.61998 0c-0.0666 0-0.11924 0.021361-0.15874 0.064229-0.0388 0.042649-0.0607 0.10106-0.0607 0.17389 0 0.07045 0.0227 0.12503 0.0644 0.16633 0.0417 0.04133 0.0954 0.0605 0.16628 0.0605 0.0285 0 0.0556-0.0018 0.0832-0.0075 0.0271-0.0059 0.0571-0.01536 0.0832-0.02648v-0.06803c-0.0263 0.01383-0.0534 0.02334-0.0794 0.03021-0.0263 0.0069-0.0549 0.01134-0.0832 0.01134-0.0483 0-0.0861-0.01156-0.11339-0.03782-0.0271-0.02648-0.0424-0.06686-0.0454-0.11718h0.33643v-0.03402c0-0.0662-0.0176-0.12039-0.0527-0.15877-0.0344-0.038698-0.08-0.056694-0.13987-0.056694zm0.53307 0c-0.0351 0-0.0629 0.00564-0.087 0.018874-0.0241 0.012948-0.0446 0.033431-0.0607 0.060498v-0.068033h-0.0756v0.44229h0.0756v-0.23437c0-0.05033 8e-3 -0.08668 0.03-0.11341 0.022-0.026994 0.0571-0.041551 0.0983-0.041551 0.011 0 0.0205 0.0014 0.03 0.00378 9e-3 0.00211 0.0183 0.00657 0.0263 0.011339v-0.075633c-8e-3 -0.00132-0.0132-0.00325-0.019-0.00378-6e-3 -7.959e-4 -0.0139 0-0.019 0zm1.1416 0c-0.0234 0-0.0505 0.00224-0.0756 0.00753-0.0249 0.00502-0.049 0.012363-0.0756 0.022678v0.068033c0.0227-0.012217 0.0439-0.020337 0.068-0.026482 0.0241-0.0061 0.0505-0.011339 0.0756-0.011339 0.0402 0 0.0688 0.0079 0.0907 0.026482 0.0227 0.018288 0.0344 0.045721 0.0344 0.079386v0.0075h-0.10205c-0.0666 0-0.11375 0.01236-0.1474 0.03782-0.0329 0.02546-0.0527 0.06335-0.0527 0.1134 0 0.04287 0.0146 0.07636 0.0417 0.10207 0.0271 0.02538 0.0644 0.03782 0.10966 0.03782 0.0359 0 0.0658-0.0062 0.0907-0.01887 0.0249-0.01295 0.0439-0.03343 0.0607-0.0605v0.06803h0.0756v-0.25328c0-0.06781-0.0176-0.11785-0.049-0.15121-0.0315-0.033358-0.0794-0.049159-0.14367-0.049159zm0.56328 0c-0.0351 0-0.0658 0.00564-0.0907 0.018874-0.0249 0.012948-0.0454 0.033431-0.0607 0.060498v-0.068033h-0.0717v0.44229h0.0717v-0.23437c0-0.05033 0.0124-0.08668 0.0344-0.11341 0.0219-0.026994 0.0534-0.041551 0.0945-0.041551 0.011 0 0.0241 0.0014 0.0336 0.00378 0.01 0.00211 0.0183 0.00657 0.0263 0.011339v-0.075633c-8e-3 -0.00132-0.0168-0.00325-0.0227-0.00378-6e-3 -7.959e-4 -0.0102 0-0.0154 0zm1.8675 0c-0.0541 0-0.095 0.011266-0.12473 0.034016-0.03 0.022751-0.0454 0.052671-0.0454 0.094507 0 0.03445 0.0102 0.06335 0.03 0.08317 0.0198 0.01961 0.0527 0.03204 0.0983 0.04155l0.0263 0.0075c0.0453 0.0098 0.0737 0.01968 0.0869 0.03021 0.0139 0.01061 0.019 0.02553 0.019 0.04535 0 0.02143-8e-3 0.03724-0.0263 0.04916-0.0183 0.01163-0.0446 0.01887-0.0794 0.01887-0.0256 0-0.0534-0.0045-0.0794-0.01134-0.0263-0.0071-0.0527-0.01617-0.0794-0.03021v0.0756c0.0285 0.0092 0.0571 0.01441 0.0832 0.01887 0.0256 0.0048 0.0519 0.0075 0.0756 0.0075 0.0571 0 0.0996-0.0099 0.13226-0.03402 0.0329-0.02414 0.049-0.05699 0.049-0.09828 0-0.03628-8e-3 -0.06679-0.03-0.08694-0.022-0.02041-0.0615-0.03424-0.11339-0.04536l-0.0227-0.0075c-0.0388-0.0088-0.0666-0.01697-0.0794-0.02648-0.0132-0.0097-0.019-0.02085-0.019-0.03782 0-0.022239 9e-3 -0.041771 0.0263-0.05289 0.0183-0.011119 0.0468-0.015143 0.0832-0.015143 0.0234 0 0.0454 0.00224 0.068 0.00753 0.0227 0.00532 0.0439 0.01207 0.0644 0.022678v-0.068033c-0.0198-0.0079-0.0402-0.014923-0.0644-0.018874-0.0241-0.00397-0.0527-0.00378-0.0794-0.00378zm1.4516 0c-0.0307 0-0.0556 0.00564-0.0794 0.018874-0.0234 0.013241-0.0468 0.033724-0.0644 0.060498v-0.068033h-0.0717v0.44229h0.0717v-0.2495c0-0.04345 0.011-0.0769 0.0344-0.10206 0.0227-0.025165 0.0549-0.03782 0.0945-0.03782 0.0329 0 0.0593 0.00929 0.0756 0.030212 0.0168 0.020922 0.0227 0.052451 0.0227 0.094507v0.26462h0.0756v-0.2684h-4e-3c0-0.061449-0.0117-0.10836-0.038-0.13987-0.0263-0.031822-0.0658-0.045355-0.11719-0.045355zm0.809 0c-0.0666 0-0.11924 0.021361-0.15874 0.064229-0.0388 0.042649-0.0607 0.10106-0.0607 0.17389 0 0.07045 0.0227 0.12503 0.0644 0.16633 0.0417 0.04133 0.0954 0.0605 0.16635 0.0605 0.0285 0 0.0556-0.0018 0.0832-0.0075 0.0271-0.0059 0.0571-0.01536 0.0832-0.02648v-0.06803c-0.0263 0.01383-0.0534 0.02334-0.0794 0.03021-0.0263 0.0069-0.0549 0.01134-0.0832 0.01134-0.0483 0-0.0861-0.01156-0.11339-0.03782-0.0271-0.02648-0.0424-0.06686-0.0454-0.11718h0.33643v-0.03402c0-0.0662-0.0176-0.12039-0.0527-0.15877-0.0344-0.038698-0.08-0.056694-0.13987-0.056694zm0.533 0c-0.0351 0-0.0622 0.00564-0.0869 0.018874-0.0249 0.012948-0.0454 0.033431-0.0607 0.060498v-0.068033h-0.0756v0.44229h0.0756v-0.23437c0-0.05033 8e-3 -0.08668 0.03-0.11341 0.022-0.026994 0.0571-0.041551 0.0983-0.041551 0.011 0 0.0205 0.0014 0.03 0.00378 0.01 0.00211 0.0183 0.00657 0.0263 0.011339v-0.075633c-8e-3 -0.00132-0.0132-0.00325-0.019-0.00378-6e-3 -7.959e-4 -0.0139 0-0.019 0zm0.31376 0c-0.0307 0-0.0593 0.00564-0.0832 0.018874-0.0234 0.013241-0.0432 0.033724-0.0607 0.060498v-0.068033h-0.0717v0.44229h0.0717v-0.2495c0-0.04345 0.011-0.0769 0.0344-0.10206 0.0227-0.025165 0.0549-0.03782 0.0945-0.03782 0.0329 0 0.0592 0.00929 0.0756 0.030212 0.0168 0.020922 0.0227 0.052451 0.0227 0.094507v0.26462h0.0717v-0.2684c0-0.061449-0.0117-0.10836-0.038-0.13987-0.0263-0.031822-0.0658-0.045355-0.11719-0.045355zm0.48764 0c-0.0666 0-0.11924 0.021361-0.15874 0.064229-0.0388 0.042649-0.0571 0.10106-0.0571 0.17389 0 0.07045 0.019 0.12503 0.0607 0.16633 0.0417 0.04133 0.0991 0.0605 0.17008 0.0605 0.0285 0 0.0556-0.0018 0.0832-0.0075 0.0271-0.0059 0.0534-0.01536 0.0794-0.02648v-0.06803c-0.0263 0.01383-0.0534 0.02334-0.0794 0.03021-0.0263 0.0069-0.0512 0.01134-0.0794 0.01134-0.0483 0-0.0861-0.01156-0.11339-0.03782-0.0271-0.02648-0.0424-0.06686-0.0454-0.11718h0.33643v-0.03402c0-0.0662-0.0176-0.12039-0.0527-0.15877-0.0344-0.038698-0.0838-0.056694-0.14367-0.056694zm0.5368 0c-0.0351 0-0.0658 0.00564-0.0907 0.018874-0.0249 0.012948-0.0454 0.033431-0.0607 0.060498v-0.068033h-0.0717v0.44229h0.0717v-0.23437c0-0.05033 0.0124-0.08668 0.0344-0.11341 0.022-0.026994 0.0534-0.041551 0.0945-0.041551 0.011 0 0.0205 0.0014 0.03 0.00378 0.01 0.00211 0.022 0.00657 0.03 0.011339v-0.075633c-8e-3 -0.00132-0.0168-0.00325-0.0227-0.00378-6e-3 -7.959e-4 -0.0102 0-0.0154 0zm0.61617 0c-0.0666 0-0.11924 0.021361-0.15874 0.064229-0.0388 0.042649-0.0571 0.10106-0.0571 0.17389 0 0.07045 0.019 0.12503 0.0607 0.16633 0.0417 0.04133 0.0991 0.0605 0.17016 0.0605 0.0285 0 0.0556-0.0018 0.0832-0.0075 0.0271-0.0059 0.0534-0.01536 0.0794-0.02648v-0.06803c-0.0263 0.01383-0.049 0.02334-0.0756 0.03021-0.0263 0.0069-0.0549 0.01134-0.0832 0.01134-0.0483 0-0.0861-0.01156-0.11339-0.03782-0.0271-0.02648-0.0424-0.06686-0.0454-0.11718h0.33643v-0.03402c0-0.0662-0.0176-0.12039-0.0527-0.15877-0.0344-0.038698-0.0838-0.056694-0.14367-0.056694zm0.5368 0c-0.0351 0-0.0658 0.00564-0.0907 0.018874-0.0249 0.012948-0.0417 0.033431-0.0571 0.060498v-0.068033h-0.0756v0.44229h0.0756v-0.23437c-2e-5 -0.05033 8e-3 -0.08668 0.03-0.11341 0.0219-0.026994 0.0534-0.041551 0.0945-0.041551 0.011 0 0.0241 0.0014 0.0344 0.00378 9e-3 0.00211 0.0183 0.00657 0.0263 0.011339v-0.075633c-8e-3 -0.00132-0.0132-0.00325-0.019-0.00378-6e-3 -7.959e-4 -0.0139 0-0.019 0zm-13.129 0.011339v0.44229h0.0756v-0.44229zm7.477 0v0.44229h0.0717v-0.44229zm1.3798 0v0.44229h0.0717v-0.44229zm-7.6094 0.049159c0.0358 0 0.0651 0.013972 0.0869 0.03782 0.022 0.023848 0.0337 0.054499 0.0344 0.094507h-0.26087c4e-3 -0.04184 0.0176-0.075268 0.0417-0.098282 0.0241-0.023043 0.0571-0.034016 0.0983-0.034016zm1.3382 0c0.0359 0 0.0651 0.013972 0.0869 0.03782 0.022 0.023848 0.0337 0.054499 0.0344 0.094507h-0.26079c4e-3 -0.04184 0.0168-0.075268 0.0417-0.098282 0.0241-0.023043 0.0571-0.034016 0.0983-0.034016zm1.153 0c0.0358 0 0.0651 0.013972 0.087 0.03782 0.022 0.023848 0.0337 0.054499 0.0337 0.094507h-0.26079c4e-3 -0.04184 0.0168-0.075268 0.0417-0.098282 0.0241-0.023043 0.0571-0.034016 0.0983-0.034016zm2.5063 0c0.0388 0 0.068 0.014631 0.0907 0.045355 0.0227 0.030431 0.0344 0.07477 0.0344 0.12853 0 0.05377-0.0117 0.09403-0.0344 0.12475-0.0227 0.03043-0.0519 0.04536-0.0907 0.04536s-0.068-0.01492-0.0907-0.04536c-0.0219-0.03072-0.0344-0.07096-0.0344-0.12475 0-0.05377 0.0124-0.0981 0.0344-0.12853 0.0227-0.030724 0.0519-0.045355 0.0907-0.045355zm3.8597 0c0.0358 0 0.0651 0.013972 0.0869 0.03782 0.022 0.023848 0.0336 0.054499 0.0344 0.094507h-0.26087c4e-3 -0.04184 0.0176-0.075268 0.0417-0.098282 0.0241-0.023043 0.0571-0.034016 0.0983-0.034016zm1.3382 0c0.0358 0 0.0614 0.013972 0.0832 0.03782 0.022 0.023848 0.0336 0.054499 0.0344 0.094507h-0.26087c4e-3 -0.04184 0.0212-0.075268 0.0454-0.098282 0.0241-0.023043 0.0571-0.034016 0.0983-0.034016zm1.153 0c0.0358 0 0.0651 0.013972 0.0869 0.03782 0.022 0.023848 0.0337 0.054499 0.0344 0.094507h-0.26086c4e-3 -0.04184 0.0176-0.075268 0.0417-0.098282 0.0241-0.023043 0.0571-0.034016 0.0983-0.034016zm-7.1371 0.17011h0.0717v0.01514c0 0.0477-0.01 0.08832-0.0344 0.11718-0.0241 0.0286-0.0578 0.04155-0.0983 0.04155-0.03 0-0.0549-0.0075-0.0717-0.02268-0.0168-0.01536-0.0227-0.03453-0.0227-0.0605 0-0.03255 0.011-0.0583 0.0344-0.07184 0.0227-0.01353 0.0622-0.01887 0.121-0.01887zm-5.4587 0.41583v0.09073h0.0756v-0.09073zm6.3697 0v0.23816c-0.0154-0.02648-0.0373-0.04397-0.0607-0.05669-0.0234-0.01295-0.0505-0.01887-0.0832-0.01887-0.0534 0-0.0982 0.02136-0.13233 0.06423-0.0337 0.04287-0.049 0.10019-0.049 0.17011 0 0.06993 0.0154 0.12342 0.049 0.16633 0.0336 0.04294 0.0786 0.06423 0.13233 0.06423 0.0329 0 0.06-0.0062 0.0832-0.01887 0.0234-0.01295 0.0446-0.03021 0.0607-0.05669v0.06423h0.0717v-0.61618zm1.1076 0v0.09073h0.0717v-0.09073zm0.64646 0v0.61618h0.0756v-0.21549l0.22304 0.21547h0.0983l-0.24572-0.23438 0.23438-0.20791h-0.0945l-0.21551 0.18901v-0.3629zm0.73336 0v0.09073h0.0717v-0.09073zm-4.2074 0.02268v0.5935h0.0794v-0.27974h0.29108v0.27974h0.0794v-0.5935h-0.0794v0.24572h-0.29108v-0.24572zm2.2039 0v0.5935h0.16635c0.11441 0 0.19927-0.02392 0.25326-0.07184 0.0541-0.04792 0.0794-0.12081 0.0794-0.22303 0-0.10172-0.0256-0.17917-0.0794-0.22681-0.0534-0.04792-0.13833-0.07184-0.25326-0.07184zm-6.1126 0.02268v0.12853h-0.0527v0.05669h0.0527v0.23816c0 0.05567 0.0124 0.09602 0.0336 0.11718 0.0212 0.02092 0.0571 0.03021 0.11339 0.03021h0.0756v-0.0605h-0.0756c-0.03 0-0.0505-0.0048-0.0607-0.01514-0.01-0.01032-0.0117-0.03555-0.0117-0.07184v-0.23816h0.1474v-0.05669h-0.1474v-0.12853zm2.4912 0v0.12853h-0.0527v0.05669h0.0527v0.23816c0 0.05567 9e-3 0.09602 0.03 0.11718 0.0212 0.02092 0.0607 0.03021 0.11719 0.03021h0.0756v-0.0605h-0.0756c-0.03 0-0.0505-0.0048-0.0607-0.01514-9e-3 -0.01032-0.0154-0.03555-0.0154-0.07184v-0.23816h0.15121v-0.05669h-0.15121v-0.12853zm6.3659 0v0.12853h-0.0527v0.05669h0.0527v0.23816c0 0.05567 9e-3 0.09602 0.03 0.11718 0.0212 0.02092 0.0607 0.03021 0.11719 0.03021h0.0756v-0.0605h-0.0756c-0.03 0-0.0505-0.0048-0.0607-0.01514-0.01-0.01032-0.0154-0.03555-0.0154-0.07184v-0.23816h0.15121v-0.05669h-0.15121v-0.12853zm2.4912 0v0.12853h-0.0571v0.05669h0.0571v0.23816c0 0.05567 9e-3 0.09602 0.03 0.11718 0.0212 0.02092 0.0607 0.03021 0.11719 0.03021h0.0756v-0.0605h-0.0756c-0.03 0-0.0505-0.0048-0.0607-0.01514-0.01-0.01032-0.0154-0.03555-0.0154-0.07184v-0.23816h0.15121v-0.05669h-0.15121v-0.12853zm-5.1562 0.04535h0.0983c0.0816 0 0.13965 0.01961 0.17762 0.05669 0.038 0.0368 0.0607 0.09444 0.0607 0.17389 0 0.07999-0.0227 0.13683-0.0607 0.17389-0.038 0.03709-0.0958 0.05669-0.17762 0.05669h-0.0983zm-6.4907 0.07184c-0.0307 2e-6 -0.0592 0.0056-0.0832 0.01887-0.0234 0.01324-0.0432 0.03372-0.0607 0.0605v-0.06803h-0.0756v0.44229h0.0756v-0.2495c0-0.04345 0.011-0.0769 0.0344-0.10206 0.0227-0.02516 0.0512-0.03782 0.0907-0.03782 0.0329 0 0.0592 0.0093 0.0756 0.03021 0.0168 0.02092 0.0263 0.05245 0.0263 0.09451v0.26462h0.0717v-0.26839c0-0.06145-0.0154-0.10837-0.0417-0.13987-0.0263-0.03182-0.0622-0.04536-0.11339-0.04536zm0.8052 0c-0.0666 2e-6 -0.11931 0.02136-0.15882 0.06423-0.0388 0.04265-0.0607 0.10106-0.0607 0.17389 0 0.07045 0.0227 0.12503 0.0644 0.16633 0.0417 0.04133 0.0954 0.0605 0.16628 0.0605 0.0285 0 0.06-0.0018 0.087-0.0075 0.0271-0.0059 0.0534-0.01536 0.0794-0.02648v-0.06803c-0.0263 0.01383-0.0534 0.02334-0.0794 0.03021-0.0263 0.0069-0.0512 0.01134-0.0794 0.01134-0.0483 0-0.0861-0.01156-0.11339-0.03782-0.0271-0.02648-0.0424-0.06686-0.0454-0.11719h0.33263v-0.03402c0-0.0662-0.0176-0.12039-0.0527-0.15877-0.0344-0.0387-0.08-0.05669-0.13987-0.05669zm0.5368 0c-0.0351 0-0.0666 0.0056-0.0907 0.01887-0.0241 0.01295-0.0446 0.03343-0.0607 0.0605v-0.06803h-0.0717v0.44229h0.0717v-0.23438c0-0.05033 0.0124-0.08668 0.0344-0.11341 0.022-0.02699 0.0534-0.04155 0.0945-0.04155 0.011 0 0.0205 0.0014 0.03 0.0038 0.01 0.0021 0.0183 0.0066 0.0263 0.01134v-0.0756c-8e-3 -0.0013-0.0132-0.0033-0.019-0.0038-6e-3 -7.94e-4 -0.0102 0-0.0154 0zm0.30995 0c-0.0307 2e-6 -0.0556 0.0056-0.0794 0.01887-0.0234 0.01324-0.0468 0.03372-0.0644 0.0605v-0.06803h-0.0717v0.44229h0.0717v-0.2495c0-0.04345 0.0146-0.0769 0.038-0.10206 0.0227-0.02516 0.0512-0.03782 0.0907-0.03782 0.0329 0 0.0592 0.0093 0.0756 0.03021 0.0168 0.02092 0.0227 0.05245 0.0227 0.09451v0.26462h0.0756v-0.26839c0-0.06145-0.0154-0.10837-0.0417-0.13987-0.0263-0.03182-0.0658-0.04536-0.11719-0.04536zm0.48764 0c-0.0666 2e-6 -0.11924 0.02136-0.15874 0.06423-0.0388 0.04265-0.0571 0.10106-0.0571 0.17389 0 0.07045 0.019 0.12503 0.0607 0.16633 0.0417 0.04133 0.0992 0.0605 0.17008 0.0605 0.0285 0 0.0556-0.0018 0.0832-0.0075 0.0271-0.0059 0.0534-0.01536 0.0794-0.02648v-0.06803c-0.0263 0.01383-0.049 0.02334-0.0756 0.03021-0.0263 0.0069-0.0549 0.01134-0.0832 0.01134-0.0483 0-0.0861-0.01156-0.11339-0.03782-0.0271-0.02648-0.0424-0.06686-0.0454-0.11719h0.33643v-0.03402c0-0.0662-0.0176-0.12039-0.0527-0.15877-0.0344-0.0387-0.0838-0.05669-0.14367-0.05669zm0.5368 0c-0.0351 0-0.0658 0.0056-0.0907 0.01887-0.0249 0.01295-0.0417 0.03343-0.0571 0.0605v-0.06803h-0.0756v0.44229h0.0756v-0.23438c0-0.05033 8e-3 -0.08668 0.03-0.11341 0.022-0.02699 0.0534-0.04155 0.0945-0.04155 0.011 0 0.0241 0.0014 0.0344 0.0038 0.01 0.0021 0.0183 0.0066 0.0263 0.01134v-0.0756c-8e-3 -0.0013-0.0132-0.0033-0.019-0.0038-6e-3 -7.94e-4 -0.0139 0-0.019 0zm0.61998 0c-0.0666 2e-6 -0.11924 0.02136-0.15874 0.06423-0.0388 0.04265-0.0607 0.10106-0.0607 0.17389 0 0.07045 0.0227 0.12503 0.0644 0.16633 0.0417 0.04133 0.0954 0.0605 0.16628 0.0605 0.0285 0 0.0556-0.0018 0.0832-0.0075 0.0271-0.0059 0.0571-0.01536 0.0832-0.02648v-0.06803c-0.0263 0.01383-0.0534 0.02334-0.0794 0.03021-0.0263 0.0069-0.0549 0.01134-0.0832 0.01134-0.0483 0-0.0861-0.01156-0.11339-0.03782-0.0271-0.02648-0.0424-0.06686-0.0454-0.11719h0.33643v-0.03402c0-0.0662-0.0176-0.12039-0.0527-0.15877-0.0344-0.0387-0.08-0.05669-0.13987-0.05669zm0.53307 0c-0.0351 0-0.0629 0.0056-0.087 0.01887-0.0241 0.01295-0.0446 0.03343-0.0607 0.0605v-0.06803h-0.0756v0.44229h0.0756v-0.23438c0-0.05033 8e-3 -0.08668 0.03-0.11341 0.022-0.02699 0.0571-0.04155 0.0983-0.04155 0.011 0 0.0205 0.0014 0.03 0.0038 0.01 0.0021 0.0183 0.0066 0.0263 0.01134v-0.0756c-8e-3 -0.0013-0.0132-0.0033-0.019-0.0038-6e-3 -7.94e-4 -0.0139 0-0.019 0zm1.1416 0c-0.0234 0-0.0505 0.0022-0.0756 0.0075-0.0249 5e-3 -0.049 0.01236-0.0756 0.02268v0.06803c0.0227-0.01222 0.0439-0.02034 0.068-0.02648 0.0241-0.0061 0.0505-0.01134 0.0756-0.01134 0.0402 0 0.0688 0.0079 0.0907 0.02648 0.0227 0.01829 0.0344 0.04572 0.0344 0.07939v0.0075h-0.10205c-0.0666 0-0.11375 0.01236-0.1474 0.03782-0.0329 0.02546-0.0527 0.06335-0.0527 0.1134 0 0.04287 0.0146 0.07636 0.0417 0.10207 0.0271 0.02538 0.0644 0.03782 0.10966 0.03782 0.0358 0 0.0658-0.0062 0.0907-0.01887 0.0249-0.01295 0.0439-0.03343 0.0607-0.0605v0.06803h0.0756v-0.25328c0-0.06781-0.0176-0.11785-0.049-0.15121-0.0315-0.03336-0.0794-0.04916-0.14367-0.04916zm0.56328 0c-0.0351 0-0.0658 0.0056-0.0907 0.01887-0.0249 0.01295-0.0453 0.03343-0.0607 0.0605v-0.06803h-0.0717v0.44229h0.0717v-0.23438c0-0.05033 0.0124-0.08668 0.0344-0.11341 0.022-0.02699 0.0534-0.04155 0.0945-0.04155 0.011 0 0.0241 0.0014 0.0337 0.0038 0.01 0.0021 0.0183 0.0066 0.0263 0.01134v-0.0756c-8e-3 -0.0013-0.0168-0.0033-0.0227-0.0038-6e-3 -7.94e-4 -0.0102 0-0.0154 0zm1.8675 0c-0.0541 0-0.095 0.01127-0.12473 0.03402-0.03 0.02275-0.0454 0.05267-0.0454 0.09451 0 0.03445 0.0102 0.06335 0.03 0.08317 0.0198 0.01961 0.0527 0.03204 0.0983 0.04155l0.0263 0.0075c0.0454 0.0098 0.0737 0.01968 0.0869 0.03021 0.0139 0.01061 0.019 0.02553 0.019 0.04535 0 0.02143-8e-3 0.03724-0.0263 0.04916-0.0183 0.01163-0.0446 0.01887-0.0794 0.01887-0.0256 0-0.0534-0.0045-0.0794-0.01134-0.0263-0.0071-0.0527-0.01617-0.0794-0.03021v0.0756c0.0285 0.0092 0.0571 0.01441 0.0832 0.01887 0.0256 0.0048 0.0519 0.0075 0.0756 0.0075 0.0571 0 0.0996-0.0099 0.13226-0.03402 0.0329-0.02414 0.049-0.05699 0.049-0.09828 0-0.03628-8e-3 -0.06679-0.03-0.08694-0.022-0.02041-0.0615-0.03424-0.11339-0.04536l-0.0227-0.0075c-0.0388-0.0088-0.0666-0.01697-0.0794-0.02648-0.0132-0.0097-0.019-0.02085-0.019-0.03782 0-0.02224 9e-3 -0.04177 0.0263-0.05289 0.0183-0.01112 0.0468-0.01514 0.0832-0.01514 0.0234 2e-6 0.0454 0.0022 0.068 0.0075 0.0227 0.0053 0.0439 0.01207 0.0644 0.02268v-0.06803c-0.0198-0.0079-0.0402-0.01492-0.0644-0.01887-0.0241-4e-3 -0.0527-0.0038-0.0794-0.0038zm1.4516 0c-0.0307 2e-6 -0.0556 0.0056-0.0794 0.01887-0.0234 0.01324-0.0468 0.03372-0.0644 0.0605v-0.06803h-0.0717v0.44229h0.0717v-0.2495c0-0.04345 0.011-0.0769 0.0344-0.10206 0.0227-0.02516 0.0549-0.03782 0.0945-0.03782 0.0329 0 0.0593 0.0093 0.0756 0.03021 0.0168 0.02092 0.0227 0.05245 0.0227 0.09451v0.26462h0.0756v-0.26839h-4e-3c0-0.06145-0.0117-0.10837-0.038-0.13987-0.0263-0.03182-0.0658-0.04536-0.11719-0.04536zm0.809 0c-0.0666 2e-6 -0.11924 0.02136-0.15874 0.06423-0.0388 0.04265-0.0607 0.10106-0.0607 0.17389 0 0.07045 0.0227 0.12503 0.0644 0.16633 0.0417 0.04133 0.0954 0.0605 0.16635 0.0605 0.0285 0 0.0556-0.0018 0.0832-0.0075 0.0271-0.0059 0.0571-0.01536 0.0832-0.02648v-0.06803c-0.0263 0.01383-0.0534 0.02334-0.0794 0.03021-0.0263 0.0069-0.0549 0.01134-0.0832 0.01134-0.0483 0-0.0861-0.01156-0.11339-0.03782-0.0271-0.02648-0.0424-0.06686-0.0454-0.11719h0.33643v-0.03402c0-0.0662-0.0176-0.12039-0.0527-0.15877-0.0344-0.0387-0.08-0.05669-0.13987-0.05669zm0.533 0c-0.0351 0-0.0622 0.0056-0.0869 0.01887-0.0249 0.01295-0.0454 0.03343-0.0607 0.0605v-0.06803h-0.0756v0.44229h0.0756v-0.23438c0-0.05033 8e-3 -0.08668 0.03-0.11341 0.022-0.02699 0.0571-0.04155 0.0983-0.04155 0.011 0 0.0205 0.0014 0.03 0.0038 0.01 0.0021 0.0183 0.0066 0.0263 0.01134v-0.0756c-8e-3 -0.0013-0.0132-0.0033-0.019-0.0038-6e-3 -7.94e-4 -0.0139 0-0.019 0zm0.31376 0c-0.0307 2e-6 -0.0592 0.0056-0.0832 0.01887-0.0234 0.01324-0.0432 0.03372-0.0607 0.0605v-0.06803h-0.0717v0.44229h0.0717v-0.2495c0-0.04345 0.011-0.0769 0.0344-0.10206 0.0227-0.02516 0.0549-0.03782 0.0945-0.03782 0.0329 0 0.0593 0.0093 0.0756 0.03021 0.0168 0.02092 0.0227 0.05245 0.0227 0.09451v0.26462h0.0717v-0.26839c0-0.06145-0.0117-0.10837-0.038-0.13987-0.0263-0.03182-0.0658-0.04536-0.11719-0.04536zm0.48764 0c-0.0666 2e-6 -0.11924 0.02136-0.15874 0.06423-0.0388 0.04265-0.0571 0.10106-0.0571 0.17389 0 0.07045 0.019 0.12503 0.0607 0.16633 0.0417 0.04133 0.0991 0.0605 0.17008 0.0605 0.0285 0 0.0556-0.0018 0.0832-0.0075 0.0271-0.0059 0.0534-0.01536 0.0794-0.02648v-0.06803c-0.0263 0.01383-0.0534 0.02334-0.0794 0.03021-0.0263 0.0069-0.0512 0.01134-0.0794 0.01134-0.0483 0-0.0861-0.01156-0.11339-0.03782-0.0271-0.02648-0.0424-0.06686-0.0454-0.11719h0.33643v-0.03402c0-0.0662-0.0176-0.12039-0.0527-0.15877-0.0344-0.0387-0.0838-0.05669-0.14367-0.05669zm0.5368 0c-0.0351 0-0.0658 0.0056-0.0907 0.01887-0.0249 0.01295-0.0454 0.03343-0.0607 0.0605v-0.06803h-0.0717v0.44229h0.0717v-0.23438c0-0.05033 0.0124-0.08668 0.0344-0.11341 0.022-0.02699 0.0534-0.04155 0.0945-0.04155 0.011 0 0.0205 0.0014 0.03 0.0038 0.01 0.0021 0.022 0.0066 0.03 0.01134v-0.0756c-8e-3 -0.0013-0.0168-0.0033-0.0227-0.0038-6e-3 -7.94e-4 -0.0102 0-0.0154 0zm0.61617 0c-0.0666 2e-6 -0.11924 0.02136-0.15874 0.06423-0.0388 0.04265-0.0571 0.10106-0.0571 0.17389 0 0.07045 0.019 0.12503 0.0607 0.16633 0.0417 0.04133 0.0991 0.0605 0.17016 0.0605 0.0285 0 0.0556-0.0018 0.0832-0.0075 0.0271-0.0059 0.0534-0.01536 0.0794-0.02648v-0.06803c-0.0263 0.01383-0.049 0.02334-0.0756 0.03021-0.0263 0.0069-0.0549 0.01134-0.0832 0.01134-0.0483 0-0.0861-0.01156-0.11339-0.03782-0.0271-0.02648-0.0424-0.06686-0.0454-0.11719h0.33643v-0.03402c0-0.0662-0.0176-0.12039-0.0527-0.15877-0.0344-0.0387-0.0838-0.05669-0.14367-0.05669zm0.5368 0c-0.0351 0-0.0658 0.0056-0.0907 0.01887-0.0249 0.01295-0.0417 0.03343-0.0571 0.0605v-0.06803h-0.0756v0.44229h0.0756v-0.23438c-2e-5 -0.05033 8e-3 -0.08668 0.03-0.11341 0.0219-0.02699 0.0534-0.04155 0.0945-0.04155 0.011 0 0.0241 0.0014 0.0344 0.0038 0.01 0.0021 0.0183 0.0066 0.0263 0.01134v-0.0756c-8e-3 -0.0013-0.0132-0.0033-0.019-0.0038-6e-3 -7.94e-4 -0.0139 0-0.019 0zm-13.129 0.01134v0.44229h0.0756v-0.44229zm7.477 0v0.44229h0.0717v-0.44229zm1.3798 0v0.44229h0.0717v-0.44229zm-7.6094 0.04916c0.0358 0 0.0651 0.01397 0.0869 0.03782 0.022 0.02385 0.0336 0.0545 0.0344 0.09451h-0.26086c4e-3 -0.04184 0.0176-0.07527 0.0417-0.09828 0.0241-0.02304 0.0571-0.03402 0.0983-0.03402zm1.3382 0c0.0358 0 0.0651 0.01397 0.0869 0.03782 0.022 0.02385 0.0336 0.0545 0.0344 0.09451h-0.26079c4e-3 -0.04184 0.0168-0.07527 0.0417-0.09828 0.0241-0.02304 0.0571-0.03402 0.0983-0.03402zm1.153 0c0.0358 0 0.0651 0.01397 0.087 0.03782 0.022 0.02385 0.0336 0.0545 0.0336 0.09451h-0.26079c4e-3 -0.04184 0.0168-0.07527 0.0417-0.09828 0.0241-0.02304 0.0571-0.03402 0.0983-0.03402zm2.5063 0c0.0388 2e-6 0.068 0.01463 0.0907 0.04535 0.0227 0.03043 0.0344 0.07477 0.0344 0.12853 0 0.05377-0.0117 0.09402-0.0344 0.12475-0.0227 0.03043-0.0519 0.04536-0.0907 0.04536s-0.068-0.01492-0.0907-0.04536c-0.022-0.03073-0.0344-0.07096-0.0344-0.12475 0-0.05377 0.0124-0.0981 0.0344-0.12853 0.0227-0.03072 0.0519-0.04535 0.0907-0.04535zm3.8597 0c0.0358 0 0.0651 0.01397 0.0869 0.03782 0.0219 0.02385 0.0336 0.0545 0.0344 0.09451h-0.26086c4e-3 -0.04184 0.0176-0.07527 0.0417-0.09828 0.0241-0.02304 0.0571-0.03402 0.0983-0.03402zm1.3382 0c0.0358 0 0.0614 0.01397 0.0832 0.03782 0.022 0.02385 0.0336 0.0545 0.0344 0.09451h-0.26087c4e-3 -0.04184 0.0212-0.07527 0.0454-0.09828 0.0241-0.02304 0.0571-0.03402 0.0983-0.03402zm1.153 0c0.0358 0 0.0651 0.01397 0.0869 0.03782 0.022 0.02385 0.0337 0.0545 0.0344 0.09451h-0.26086c4e-3 -0.04184 0.0176-0.07527 0.0417-0.09828 0.0241-0.02304 0.0571-0.03402 0.0983-0.03402zm-7.1371 0.17011h0.0717v0.01514c0 0.0477-9e-3 0.08832-0.0344 0.11718-0.0241 0.0286-0.0578 0.04155-0.0983 0.04155-0.03 0-0.0549-0.0075-0.0717-0.02268-0.0168-0.01536-0.0227-0.03453-0.0227-0.0605 0-0.03255 0.011-0.0583 0.0344-0.07184 0.0227-0.01353 0.0622-0.01887 0.121-0.01887zm-5.4587 0.41583v0.09073h0.0756v-0.09073zm6.3697 0v0.23815c-0.0154-0.02648-0.0373-0.04397-0.0607-0.05669-0.0234-0.01295-0.0505-0.01887-0.0832-0.01887-0.0534 0-0.0982 0.02136-0.13234 0.06423-0.0337 0.04287-0.049 0.1002-0.049 0.17011 0 0.06993 0.0154 0.12342 0.049 0.16633 0.0336 0.04294 0.0786 0.0643 0.13234 0.0643 0.0329 0 0.06-0.0062 0.0832-0.01887 0.0234-0.01295 0.0446-0.03021 0.0607-0.05669v0.06423h0.0717v-0.61618zm1.1076 0v0.09073h0.0717v-0.09073zm0.64646 0v0.61618h0.0756v-0.21547l0.22304 0.21547h0.0983l-0.24572-0.23438 0.23438-0.20791h-0.0945l-0.21551 0.18901v-0.3629zm0.73336 0v0.09073h0.0717v-0.09073zm-4.2074 0.02267v0.5935h0.0794v-0.27974h0.29108v0.27974h0.0794v-0.5935h-0.0794v0.24572h-0.29108v-0.24572zm2.2039 0v0.5935h0.16635c0.11441 0 0.19927-0.02385 0.25326-0.07184 0.0541-0.04791 0.0794-0.12081 0.0794-0.22304 0-0.10172-0.0256-0.17917-0.0794-0.22681-0.0534-0.04792-0.13833-0.07184-0.25326-0.07184zm-6.1126 0.02268v0.12853h-0.0527v0.05669h0.0527v0.23815c0 0.05567 0.0124 0.09602 0.0336 0.11718 0.0212 0.02092 0.0571 0.03021 0.11339 0.03021h0.0756v-0.0605h-0.0756c-0.03 0-0.0505-0.0048-0.0607-0.01514-0.01-0.01031-0.0117-0.03555-0.0117-0.07184v-0.23815h0.1474v-0.05669h-0.1474v-0.12853zm2.4912 0v0.12853h-0.0527v0.05669h0.0527v0.23815c0 0.05567 9e-3 0.09602 0.03 0.11718 0.0212 0.02092 0.0607 0.03021 0.11719 0.03021h0.0756v-0.0605h-0.0756c-0.03 0-0.0505-0.0048-0.0607-0.01514-0.01-0.01031-0.0154-0.03555-0.0154-0.07184v-0.23815h0.15121v-0.05669h-0.15121v-0.12853zm6.3659 0v0.12853h-0.0527v0.05669h0.0527v0.23815c0 0.05567 9e-3 0.09602 0.03 0.11718 0.0212 0.02092 0.0607 0.03021 0.11719 0.03021h0.0756v-0.0605h-0.0756c-0.03 0-0.0505-0.0048-0.0607-0.01514-9e-3 -0.01031-0.0154-0.03555-0.0154-0.07184v-0.23815h0.15121v-0.05669h-0.15121v-0.12853zm2.4912 0v0.12853h-0.0571v0.05669h0.0571v0.23815c0 0.05567 9e-3 0.09602 0.03 0.11718 0.0212 0.02092 0.0607 0.03021 0.11719 0.03021h0.0756v-0.0605h-0.0756c-0.03 0-0.0505-0.0048-0.0607-0.01514-0.01-0.01031-0.0154-0.03555-0.0154-0.07184v-0.23815h0.15121v-0.05669h-0.15121v-0.12853zm2.7634 0v0.12853h-0.0571v0.05669h0.0571v0.23815c0 0.05567 9e-3 0.09602 0.03 0.11718 0.0212 0.02092 0.0607 0.03021 0.11719 0.03021h0.0756v-0.0605h-0.0756c-0.03 0-0.0505-0.0048-0.0607-0.01514-0.01-0.01031-0.0154-0.03555-0.0154-0.07184v-0.23815h0.15121v-0.05669h-0.15121v-0.12853zm-7.9196 0.04536h0.0983c0.0816 0 0.13965 0.0196 0.17762 0.05669 0.038 0.0368 0.0607 0.09444 0.0607 0.17389 0 0.07999-0.0227 0.13683-0.0607 0.17389-0.038 0.03709-0.0958 0.05669-0.17762 0.05669h-0.0983zm-6.4907 0.07184c-0.0307 0-0.0592 0.0056-0.0832 0.01887-0.0234 0.01324-0.0432 0.03372-0.0607 0.0605v-0.06803h-0.0756v0.44229h0.0756v-0.2495c0-0.04345 0.011-0.0769 0.0344-0.10206 0.0227-0.02516 0.0512-0.03782 0.0907-0.03782 0.0329 0 0.0593 0.0093 0.0756 0.03021 0.0168 0.02092 0.0263 0.05245 0.0263 0.09451v0.26462h0.0717v-0.2684c0-0.06145-0.0154-0.10836-0.0417-0.13987-0.0263-0.03182-0.0622-0.04535-0.11339-0.04535zm0.8052 0c-0.0666 0-0.11931 0.02136-0.15882 0.06423-0.0388 0.04265-0.0607 0.10106-0.0607 0.17389 0 0.07045 0.0227 0.12502 0.0644 0.16633 0.0417 0.04133 0.0954 0.0605 0.16628 0.0605 0.0285 0 0.06-0.0018 0.087-0.0075 0.0271-0.0059 0.0534-0.01536 0.0794-0.02648v-0.06803c-0.0263 0.01383-0.0534 0.02334-0.0794 0.03021-0.0263 0.0069-0.0512 0.01134-0.0794 0.01134-0.0483 0-0.0861-0.01156-0.11339-0.03782-0.0271-0.02648-0.0424-0.06686-0.0454-0.11718h0.33263v-0.03407c0-0.0662-0.0176-0.12039-0.0527-0.15877-0.0344-0.0387-0.08-0.05669-0.13987-0.05669zm0.5368 0c-0.0351 0-0.0666 0.0056-0.0907 0.01887-0.0241 0.01295-0.0446 0.03343-0.0607 0.0605v-0.06803h-0.0717v0.44229h0.0717v-0.23438c0-0.05033 0.0124-0.08668 0.0344-0.1134 0.0219-0.02699 0.0534-0.04155 0.0945-0.04155 0.011 0 0.0205 0.0014 0.03 0.0038 0.01 0.0021 0.0183 0.0066 0.0263 0.01134v-0.0756c-8e-3 -0.0013-0.0132-0.0032-0.019-0.0038-6e-3 -7.93e-4 -0.0102 0-0.0154 0zm0.30995 0c-0.0307 0-0.0556 0.0056-0.0794 0.01887-0.0234 0.01324-0.0468 0.03372-0.0644 0.0605v-0.06803h-0.0717v0.44229h0.0717v-0.2495c0-0.04345 0.0146-0.0769 0.038-0.10206 0.0227-0.02516 0.0512-0.03782 0.0907-0.03782 0.0329 0 0.0593 0.0093 0.0756 0.03021 0.0168 0.02092 0.0227 0.05245 0.0227 0.09451v0.26462h0.0756v-0.2684c0-0.06145-0.0154-0.10836-0.0417-0.13987-0.0263-0.03182-0.0658-0.04535-0.11719-0.04535zm0.48764 0c-0.0666 0-0.11924 0.02136-0.15874 0.06423-0.0388 0.04265-0.0571 0.10106-0.0571 0.17389 0 0.07045 0.019 0.12502 0.0607 0.16633 0.0417 0.04133 0.0992 0.0605 0.17008 0.0605 0.0285 0 0.0556-0.0018 0.0832-0.0075 0.0271-0.0059 0.0534-0.01536 0.0794-0.02648v-0.06803c-0.0263 0.01383-0.049 0.02334-0.0756 0.03021-0.0263 0.0069-0.0549 0.01134-0.0832 0.01134-0.0483 0-0.0861-0.01156-0.11339-0.03782-0.0271-0.02648-0.0424-0.06686-0.0454-0.11718h0.33643v-0.03407c0-0.0662-0.0176-0.12039-0.0527-0.15877-0.0344-0.0387-0.0838-0.05669-0.14367-0.05669zm0.5368 0c-0.0351 0-0.0658 0.0056-0.0907 0.01887-0.0249 0.01295-0.0417 0.03343-0.0571 0.0605v-0.06803h-0.0756v0.44229h0.0756v-0.23438c0-0.05033 8e-3 -0.08668 0.03-0.1134 0.022-0.02699 0.0534-0.04155 0.0945-0.04155 0.011 0 0.0241 0.0014 0.0344 0.0038 0.01 0.0021 0.0183 0.0066 0.0263 0.01134v-0.0756c-8e-3 -0.0013-0.0132-0.0032-0.019-0.0038-6e-3 -7.93e-4 -0.0139 0-0.019 0zm0.61998 0c-0.0666 0-0.11924 0.02136-0.15874 0.06423-0.0388 0.04265-0.0607 0.10106-0.0607 0.17389 0 0.07045 0.0227 0.12502 0.0644 0.16633 0.0417 0.04133 0.0954 0.0605 0.16628 0.0605 0.0285 0 0.0556-0.0018 0.0832-0.0075 0.0271-0.0059 0.0571-0.01536 0.0832-0.02648v-0.06803c-0.0263 0.01383-0.0534 0.02334-0.0794 0.03021-0.0263 0.0069-0.0549 0.01134-0.0832 0.01134-0.0483 0-0.0861-0.01156-0.11339-0.03782-0.0271-0.02648-0.0424-0.06686-0.0454-0.11718h0.33643v-0.03407c0-0.0662-0.0176-0.12039-0.0527-0.15877-0.0344-0.0387-0.08-0.05669-0.13987-0.05669zm0.53307 0c-0.0351 0-0.0629 0.0056-0.087 0.01887-0.0241 0.01295-0.0446 0.03343-0.0607 0.0605v-0.06803h-0.0756v0.44229h0.0756v-0.23438c0-0.05033 8e-3 -0.08668 0.03-0.1134 0.022-0.02699 0.0571-0.04155 0.0983-0.04155 0.011 0 0.0205 0.0014 0.03 0.0038 0.01 0.0021 0.0183 0.0066 0.0263 0.01134v-0.0756c-8e-3 -0.0013-0.0132-0.0032-0.019-0.0038-6e-3 -7.93e-4 -0.0139 0-0.019 0zm1.1416 0c-0.0234 0-0.0505 0.0022-0.0756 0.0075-0.0249 5e-3 -0.049 0.01236-0.0756 0.02268v0.06803c0.0227-0.01222 0.0439-0.02034 0.068-0.02648 0.0241-0.0061 0.0505-0.01134 0.0756-0.01134 0.0402 0 0.0688 0.0079 0.0907 0.02648 0.0227 0.01829 0.0344 0.04572 0.0344 0.07939v0.0075h-0.10205c-0.0666 0-0.11375 0.01236-0.1474 0.03782-0.0329 0.02546-0.0527 0.06335-0.0527 0.11341 0 0.04287 0.0146 0.07637 0.0417 0.10206 0.0271 0.02538 0.0644 0.03782 0.10966 0.03782 0.0358 0 0.0658-0.0062 0.0907-0.01887 0.0249-0.01295 0.0439-0.03343 0.0607-0.0605v0.06803h0.0756v-0.25327c0-0.06781-0.0176-0.11785-0.049-0.15121-0.0315-0.03336-0.0794-0.04916-0.14367-0.04916zm0.56328 0c-0.0351 0-0.0658 0.0056-0.0907 0.01887-0.0249 0.01295-0.0453 0.03343-0.0607 0.0605v-0.06803h-0.0717v0.44229h0.0717v-0.23438c0-0.05033 0.0124-0.08668 0.0344-0.1134 0.022-0.02699 0.0534-0.04155 0.0945-0.04155 0.011 0 0.0241 0.0014 0.0337 0.0038 9e-3 0.0021 0.0183 0.0066 0.0263 0.01134v-0.0756c-8e-3 -0.0013-0.0168-0.0032-0.0227-0.0038-6e-3 -7.93e-4 -0.0102 0-0.0154 0zm1.8675 0c-0.0541 0-0.095 0.01127-0.12473 0.03402-0.03 0.02275-0.0454 0.05267-0.0454 0.09451 0 0.03446 0.0102 0.06335 0.03 0.08316 0.0198 0.01961 0.0527 0.03585 0.0983 0.04536l0.0263 0.0038c0.0454 0.0098 0.0737 0.01968 0.0869 0.03021 0.0139 0.01061 0.019 0.02553 0.019 0.04536 0 0.02143-8e-3 0.03723-0.0263 0.04916-0.0183 0.01163-0.0446 0.01887-0.0794 0.01887-0.0256 0-0.0534-0.0045-0.0794-0.01134-0.0263-0.0071-0.0527-0.01617-0.0794-0.03021v0.0756c0.0285 0.0092 0.0571 0.01441 0.0832 0.01887 0.0256 0.0048 0.0519 0.0075 0.0756 0.0075 0.0571 0 0.0996-0.0099 0.13226-0.03402 0.0329-0.02414 0.049-0.05699 0.049-0.09829 0-0.03628-8e-3 -0.06679-0.03-0.08694-0.022-0.02041-0.0614-0.03423-0.11339-0.04535l-0.0227-0.0075c-0.0388-0.0088-0.0666-0.01697-0.0794-0.02648-0.0132-0.0097-0.019-0.02085-0.019-0.03782 0-0.02224 9e-3 -0.04177 0.0263-0.05289 0.0183-0.01112 0.0468-0.01514 0.0832-0.01514 0.0234 0 0.0454 0.0022 0.068 0.0075 0.0227 0.0053 0.0439 0.01207 0.0644 0.02268v-0.06803c-0.0198-0.0079-0.0402-0.01492-0.0644-0.01887-0.0241-4e-3 -0.0527-0.0038-0.0794-0.0038zm1.4516 0c-0.0307 0-0.0556 0.0056-0.0794 0.01887-0.0234 0.01324-0.0468 0.03372-0.0644 0.0605v-0.06803h-0.0717v0.44229h0.0717v-0.2495c0-0.04345 0.011-0.0769 0.0344-0.10206 0.0227-0.02516 0.0549-0.03782 0.0945-0.03782 0.0329 0 0.0593 0.0093 0.0756 0.03021 0.0168 0.02092 0.0227 0.05245 0.0227 0.09451v0.26462h0.0756v-0.2684h-4e-3c0-0.06145-0.0117-0.10836-0.038-0.13987-0.0263-0.03182-0.0658-0.04535-0.11719-0.04535zm0.809 0c-0.0666 0-0.11924 0.02136-0.15874 0.06423-0.0388 0.04265-0.0607 0.10106-0.0607 0.17389 0 0.07045 0.0227 0.12502 0.0644 0.16633 0.0417 0.04133 0.0954 0.0605 0.16635 0.0605 0.0285 0 0.0556-0.0018 0.0832-0.0075 0.0271-0.0059 0.0571-0.01536 0.0832-0.02648v-0.06803c-0.0263 0.01383-0.0534 0.02334-0.0794 0.03021-0.0263 0.0069-0.0549 0.01134-0.0832 0.01134-0.0483 0-0.0861-0.01156-0.11339-0.03782-0.0271-0.02648-0.0424-0.06686-0.0454-0.11718h0.33643v-0.03407c0-0.0662-0.0176-0.12039-0.0527-0.15877-0.0344-0.0387-0.08-0.05669-0.13987-0.05669zm0.533 0c-0.0351 0-0.0622 0.0056-0.0869 0.01887-0.0249 0.01295-0.0454 0.03343-0.0607 0.0605v-0.06803h-0.0756v0.44229h0.0756v-0.23438c0-0.05033 8e-3 -0.08668 0.03-0.1134 0.022-0.02699 0.0571-0.04155 0.0983-0.04155 0.011 0 0.0205 0.0014 0.03 0.0038 0.01 0.0021 0.0183 0.0066 0.0263 0.01134v-0.0756c-8e-3 -0.0013-0.0132-0.0032-0.019-0.0038-6e-3 -7.93e-4 -0.0139 0-0.019 0zm0.31376 0c-0.0307 0-0.0592 0.0056-0.0832 0.01887-0.0234 0.01324-0.0432 0.03372-0.0607 0.0605v-0.06803h-0.0717v0.44229h0.0717v-0.2495c0-0.04345 0.011-0.0769 0.0344-0.10206 0.0227-0.02516 0.0549-0.03782 0.0945-0.03782 0.0329 0 0.0593 0.0093 0.0756 0.03021 0.0168 0.02092 0.0227 0.05245 0.0227 0.09451v0.26462h0.0717v-0.2684c0-0.06145-0.0117-0.10836-0.038-0.13987-0.0263-0.03182-0.0658-0.04535-0.11719-0.04535zm0.48764 0c-0.0666 0-0.11924 0.02136-0.15874 0.06423-0.0388 0.04265-0.0571 0.10106-0.0571 0.17389 0 0.07045 0.019 0.12502 0.0607 0.16633 0.0417 0.04133 0.0991 0.0605 0.17008 0.0605 0.0285 0 0.0556-0.0018 0.0832-0.0075 0.0271-0.0059 0.0534-0.01536 0.0794-0.02648v-0.06803c-0.0263 0.01383-0.0534 0.02334-0.0794 0.03021-0.0263 0.0069-0.0512 0.01134-0.0794 0.01134-0.0483 0-0.0861-0.01156-0.11339-0.03782-0.0271-0.02648-0.0424-0.06686-0.0454-0.11718h0.33643v-0.03407c0-0.0662-0.0176-0.12039-0.0527-0.15877-0.0344-0.0387-0.0838-0.05669-0.14367-0.05669zm0.5368 0c-0.0351 0-0.0658 0.0056-0.0907 0.01887-0.0249 0.01295-0.0454 0.03343-0.0607 0.0605v-0.06803h-0.0717v0.44229h0.0717v-0.23438c0-0.05033 0.0124-0.08668 0.0344-0.1134 0.0219-0.02699 0.0534-0.04155 0.0945-0.04155 0.011 0 0.0205 0.0014 0.03 0.0038 0.01 0.0021 0.022 0.0066 0.03 0.01134v-0.0756c-8e-3 -0.0013-0.0168-0.0032-0.0227-0.0038-6e-3 -7.93e-4 -0.0102 0-0.0154 0zm0.61617 0c-0.0666 0-0.11924 0.02136-0.15874 0.06423-0.0388 0.04265-0.0571 0.10106-0.0571 0.17389 0 0.07045 0.019 0.12502 0.0607 0.16633 0.0417 0.04133 0.0991 0.0605 0.17016 0.0605 0.0285 0 0.0556-0.0018 0.0832-0.0075 0.0271-0.0059 0.0534-0.01536 0.0794-0.02648v-0.06803c-0.0263 0.01383-0.049 0.02334-0.0756 0.03021-0.0263 0.0069-0.0549 0.01134-0.0832 0.01134-0.0483 0-0.0861-0.01156-0.11339-0.03782-0.0271-0.02648-0.0424-0.06686-0.0454-0.11718h0.33644v-0.03407c0-0.0662-0.0176-0.12039-0.0527-0.15877-0.0344-0.0387-0.0838-0.05669-0.14367-0.05669zm0.5368 0c-0.0351 0-0.0658 0.0056-0.0907 0.01887-0.0249 0.01295-0.0417 0.03343-0.0571 0.0605v-0.06803h-0.0756v0.44229h0.0756v-0.23438c-2e-5 -0.05033 8e-3 -0.08668 0.03-0.1134 0.022-0.02699 0.0534-0.04155 0.0945-0.04155 0.011 0 0.0241 0.0014 0.0344 0.0038 0.01 0.0021 0.0183 0.0066 0.0263 0.01134v-0.0756c-8e-3 -0.0013-0.0132-0.0032-0.019-0.0038-6e-3 -7.93e-4 -0.0139 0-0.019 0zm0.58596 0c-0.0307 0-0.0593 0.0056-0.0832 0.01887-0.0234 0.01324-0.0432 0.03372-0.0607 0.0605v-0.06803h-0.0717v0.44229h0.0717v-0.2495c0-0.04345 0.011-0.0769 0.0344-0.10206 0.0227-0.02516 0.0549-0.03782 0.0945-0.03782 0.0329 0 0.0593 0.0093 0.0756 0.03021 0.0168 0.02092 0.0227 0.05245 0.0227 0.09451v0.26462h0.0717v-0.2684c0-0.06145-0.0117-0.10836-0.038-0.13987-0.0263-0.03182-0.0658-0.04535-0.11719-0.04535zm0.48764 0c-0.0666 0-0.11924 0.02136-0.15874 0.06423-0.0388 0.04265-0.0571 0.10106-0.0571 0.17389 0 0.07045 0.019 0.12502 0.0607 0.16633 0.0417 0.04133 0.0991 0.0605 0.17008 0.0605 0.0285 0 0.0556-0.0018 0.0832-0.0075 0.0271-0.0059 0.0534-0.01536 0.0794-0.02648v-0.06803c-0.0263 0.01383-0.0534 0.02334-0.0794 0.03021-0.0263 0.0069-0.0512 0.01134-0.0794 0.01134-0.0483 0-0.0861-0.01156-0.11339-0.03782-0.0271-0.02648-0.0424-0.06686-0.0454-0.11718h0.33643v-0.03407c0-0.0662-0.0176-0.12039-0.0527-0.15877-0.0344-0.0387-0.0838-0.05669-0.14367-0.05669zm0.5368 0c-0.0351 0-0.0666 0.0056-0.0907 0.01887-0.0241 0.01295-0.0446 0.03343-0.0607 0.0605v-0.06803h-0.0717v0.44229h0.0717v-0.23438c0-0.05033 0.0124-0.08668 0.0344-0.1134 0.022-0.02699 0.0534-0.04155 0.0945-0.04155 0.011 0 0.0205 0.0014 0.03 0.0038 0.01 0.0021 0.022 0.0066 0.03 0.01134v-0.0756c-8e-3 -0.0013-0.0168-0.0032-0.0227-0.0038-6e-3 -7.93e-4 -0.0102 0-0.0154 0zm0.61617 0c-0.0666 0-0.11924 0.02136-0.15874 0.06423-0.0388 0.04265-0.0571 0.10106-0.0571 0.17389 0 0.07045 0.019 0.12502 0.0607 0.16633 0.0417 0.04133 0.0991 0.0605 0.17008 0.0605 0.0285 0 0.0556-0.0018 0.0832-0.0075 0.0271-0.0059 0.0534-0.01536 0.0794-0.02648v-0.06803c-0.0263 0.01383-0.049 0.02334-0.0756 0.03021-0.0263 0.0069-0.0549 0.01134-0.0832 0.01134-0.0483 0-0.0861-0.01156-0.11339-0.03782-0.0271-0.02648-0.0424-0.06686-0.0454-0.11718h0.33643v-0.03407c0-0.0662-0.0176-0.12039-0.0527-0.15877-0.0344-0.0387-0.0838-0.05669-0.14367-0.05669zm0.5368 0c-0.0351 0-0.0658 0.0056-0.0907 0.01887-0.0249 0.01295-0.0454 0.03343-0.0607 0.0605v-0.06803h-0.0717v0.44229h0.0717v-0.23438c0-0.05033 0.0124-0.08668 0.0337-0.1134 0.0219-0.02699 0.0534-0.04155 0.0945-0.04155 0.011 0 0.0241 0.0014 0.0344 0.0038 0.01 0.0021 0.0183 0.0066 0.0263 0.01134v-0.0756c-8e-3 -0.0013-0.0132-0.0032-0.019-0.0038-6e-3 -7.93e-4 -0.0139 0-0.019 0zm-15.892 0.01134v0.44229h0.0756v-0.44229zm7.477 0v0.44229h0.0717v-0.44229zm1.3798 0v0.44229h0.0717v-0.44229zm-7.6094 0.04916c0.0358 0 0.0651 0.01397 0.0869 0.03782 0.0219 0.02385 0.0336 0.0545 0.0344 0.09451h-0.26086c4e-3 -0.04184 0.0176-0.07527 0.0417-0.09829 0.0241-0.02304 0.0571-0.03402 0.0983-0.03402zm1.3382 0c0.0358 0 0.0651 0.01397 0.0869 0.03782 0.022 0.02385 0.0337 0.0545 0.0344 0.09451h-0.26079c4e-3 -0.04184 0.0168-0.07527 0.0417-0.09829 0.0241-0.02304 0.0571-0.03402 0.0983-0.03402zm1.153 0c0.0359 0 0.0651 0.01397 0.087 0.03782 0.022 0.02385 0.0337 0.0545 0.0337 0.09451h-0.26079c4e-3 -0.04184 0.0168-0.07527 0.0417-0.09829 0.0241-0.02304 0.0571-0.03402 0.0983-0.03402zm2.5063 0c0.0388 0 0.068 0.01463 0.0907 0.04535 0.0227 0.03043 0.0344 0.07477 0.0344 0.12853 0 0.05377-0.0117 0.09402-0.0344 0.12475-0.0227 0.03043-0.0519 0.04536-0.0907 0.04536s-0.068-0.01492-0.0907-0.04536c-0.022-0.03072-0.0344-0.07096-0.0344-0.12475 0-0.05377 0.0124-0.0981 0.0344-0.12853 0.0227-0.03072 0.0519-0.04535 0.0907-0.04535zm3.8597 0c0.0359 0 0.0651 0.01397 0.0869 0.03782 0.022 0.02385 0.0336 0.0545 0.0344 0.09451h-0.26086c4e-3 -0.04184 0.0176-0.07527 0.0417-0.09829 0.0241-0.02304 0.0571-0.03402 0.0983-0.03402zm1.3382 0c0.0358 0 0.0615 0.01397 0.0832 0.03782 0.022 0.02385 0.0337 0.0545 0.0344 0.09451h-0.26087c4e-3 -0.04184 0.0212-0.07527 0.0454-0.09829 0.0241-0.02304 0.0571-0.03402 0.0983-0.03402zm1.153 0c0.0358 0 0.0651 0.01397 0.0869 0.03782 0.0219 0.02385 0.0336 0.0545 0.0344 0.09451h-0.26087c4e-3 -0.04184 0.0176-0.07527 0.0417-0.09829 0.0241-0.02304 0.0571-0.03402 0.0983-0.03402zm1.6104 0c0.0358 0 0.0614 0.01397 0.0832 0.03782 0.022 0.02385 0.0336 0.0545 0.0336 0.09451h-0.26079c4e-3 -0.04184 0.0212-0.07527 0.0454-0.09829 0.0241-0.02304 0.0571-0.03402 0.0983-0.03402zm1.153 0c0.0358 0 0.0651 0.01397 0.0869 0.03782 0.022 0.02385 0.0337 0.0545 0.0344 0.09451h-0.26087c4e-3 -0.04184 0.0176-0.07527 0.0417-0.09829 0.0241-0.02304 0.0571-0.03402 0.0983-0.03402zm-9.9006 0.17011h0.0717v0.01514c0 0.0477-0.01 0.08832-0.0344 0.11718-0.0241 0.0286-0.0578 0.04155-0.0983 0.04155-0.03 0-0.0549-0.0075-0.0717-0.02268-0.0168-0.01536-0.0227-0.03453-0.0227-0.0605 0-0.03255 0.011-0.0583 0.0344-0.07184 0.0227-0.01353 0.0622-0.01887 0.121-0.01887z" fill="#eceff4"/>
   <path d="m146.37-0.73112-36.453 0.14636v0.38558l36.453-0.25327z" fill="#8b8789" style="paint-order:fill markers stroke"/>
   <path d="m108.97 7.4902 0.49123-7.2789 0.47835-0.83161-0.3488 7.526z" fill="#423d3f"/>
   <path d="m136.47 7.8452 0.49181-0.79123-0.62012 3.229-0.38493 0.38493z" fill="#463d40"/>
   <path d="m99.48 39.795-0.01902 0.18522c-0.30746 2.9646 2.3987 5.3793 5.3793 5.3793h47.064c2.9805 0 5.6867-2.4147 5.3793-5.3793l-0.0154-0.16255c-0.28757 2.5102-2.7119 4.4267-5.3641 4.4267h-47.064c-2.6601 0-5.0847-1.9283-5.3604-4.4493z" fill="url(#linearGradient1439-7)"/>
   <path d="m99.48 49.473-0.01902 0.18522c-0.30746 2.9646 2.3987 5.3793 5.3793 5.3793h47.064c2.9805 0 5.6867-2.4147 5.3793-5.3793l-0.0154-0.16255c-0.28757 2.5102-2.7119 4.4267-5.3641 4.4267h-47.064c-2.6601 0-5.0847-1.9283-5.3604-4.4493z" fill="url(#linearGradient1457-9)"/>
  </g>
  <ellipse cx="103.77" cy="40.653" rx="1.2842" ry="1.0522" fill="#2e3440" stroke-width=".35592" style="paint-order:fill markers stroke"/>
  <ellipse cx="103.77" cy="40.581" rx="1.2388" ry=".92715" fill="#7b88a1" stroke-width=".32815" style="paint-order:fill markers stroke"/>
  <path d="m103.8 39.883a0.13862 0.6054 2.5757 0 0-0.14748 0.40447 0.76584 0.13862 23.938 0 0-0.57835-0.10958 0.76584 0.13862 23.938 0 0 0.38179 0.31376 0.13862 0.76584 66.062 0 0-0.38179 0.30995 0.13862 0.76584 66.062 0 0 0.55948-0.10585 0.13862 0.6054 2.5757 0 0 0.10966 0.39693 0.13862 0.6054 2.5757 0 0 0.15121-0.40074 0.76584 0.13862 23.938 0 0 0.57835 0.10966 0.76584 0.13862 23.938 0 0-0.38179-0.30995 0.13862 0.76584 66.062 0 0 0.38179-0.31376 0.13862 0.76584 66.062 0 0-0.56328 0.10585 0.13862 0.6054 2.5757 0 0-0.10966-0.40074z" fill="#2e3440" stroke-width="7.3154"/>
  <ellipse cx="152.35" cy="40.653" rx="1.2842" ry="1.0522" fill="#2e3440" stroke-width=".35592" style="paint-order:fill markers stroke"/>
  <ellipse cx="152.36" cy="40.581" rx="1.2388" ry=".92715" fill="#7b88a1" stroke-width=".32815" style="paint-order:fill markers stroke"/>
  <path d="m152.38 39.883a0.13862 0.6054 2.5757 0 0-0.14748 0.40447 0.76584 0.13862 23.938 0 0-0.57835-0.10958 0.76584 0.13862 23.938 0 0 0.38179 0.31376 0.13862 0.76584 66.062 0 0-0.38179 0.30995 0.13862 0.76584 66.062 0 0 0.55948-0.10585 0.13862 0.6054 2.5757 0 0 0.10966 0.39693 0.13862 0.6054 2.5757 0 0 0.15121-0.40074 0.76584 0.13862 23.938 0 0 0.57835 0.10966 0.76584 0.13862 23.938 0 0-0.38179-0.30995 0.13862 0.76584 66.062 0 0 0.38179-0.31376 0.13862 0.76584 66.062 0 0-0.56328 0.10585 0.13862 0.6054 2.5757 0 0-0.10966-0.40074z" fill="#2e3440" stroke-width="7.3154"/>
  <ellipse cx="104.88" cy="17.408" rx="1.2842" ry="1.0522" fill="#2e3440" stroke-width=".35592" style="paint-order:fill markers stroke"/>
  <ellipse cx="104.89" cy="17.336" rx="1.2388" ry=".92715" fill="#7b88a1" stroke-width=".32815" style="paint-order:fill markers stroke"/>
  <path d="m104.91 16.638a0.13862 0.6054 2.5757 0 0-0.14748 0.40447 0.76584 0.13862 23.938 0 0-0.57835-0.10958 0.76584 0.13862 23.938 0 0 0.38179 0.31376 0.13862 0.76584 66.062 0 0-0.38179 0.30995 0.13862 0.76584 66.062 0 0 0.55948-0.10585 0.13862 0.6054 2.5757 0 0 0.10966 0.39693 0.13862 0.6054 2.5757 0 0 0.15121-0.40074 0.76584 0.13862 23.938 0 0 0.57835 0.10966 0.76584 0.13862 23.938 0 0-0.38179-0.30995 0.13862 0.76584 66.062 0 0 0.38179-0.31376 0.13862 0.76584 66.062 0 0-0.56328 0.10585 0.13862 0.6054 2.5757 0 0-0.10966-0.40074z" fill="#2e3440" stroke-width="7.3154"/>
  <ellipse cx="151.47" cy="17.408" rx="1.2842" ry="1.0522" fill="#2e3440" stroke-width=".35592" style="paint-order:fill markers stroke"/>
  <ellipse cx="151.48" cy="17.336" rx="1.2388" ry=".92715" fill="#7b88a1" stroke-width=".32815" style="paint-order:fill markers stroke"/>
  <path d="m151.5 16.638a0.13862 0.6054 2.5757 0 0-0.14748 0.40447 0.76584 0.13862 23.938 0 0-0.57835-0.10958 0.76584 0.13862 23.938 0 0 0.38179 0.31376 0.13862 0.76584 66.062 0 0-0.38179 0.30995 0.13862 0.76584 66.062 0 0 0.55948-0.10585 0.13862 0.6054 2.5757 0 0 0.10966 0.39693 0.13862 0.6054 2.5757 0 0 0.15121-0.40074 0.76584 0.13862 23.938 0 0 0.57835 0.10966 0.76584 0.13862 23.938 0 0-0.38179-0.30995 0.13862 0.76584 66.062 0 0 0.38179-0.31376 0.13862 0.76584 66.062 0 0-0.56328 0.10585 0.13862 0.6054 2.5757 0 0-0.10966-0.40074z" fill="#2e3440" stroke-width="7.3154"/>
  <ellipse cx="107.66" cy="-1.7844" rx="1.2842" ry="1.0522" fill="#2e3440" stroke-width=".35592" style="paint-order:fill markers stroke"/>
  <ellipse cx="107.67" cy="-1.8566" rx="1.2388" ry=".92715" fill="#7b88a1" stroke-width=".32815" style="paint-order:fill markers stroke"/>
  <path d="m107.69-2.5548a0.13862 0.6054 2.5757 0 0-0.14748 0.40447 0.76584 0.13862 23.938 0 0-0.57835-0.10958 0.76584 0.13862 23.938 0 0 0.38179 0.31376 0.13862 0.76584 66.062 0 0-0.38179 0.30995 0.13862 0.76584 66.062 0 0 0.55948-0.10585 0.13862 0.6054 2.5757 0 0 0.10966 0.39693 0.13862 0.6054 2.5757 0 0 0.15121-0.40074 0.76584 0.13862 23.938 0 0 0.57835 0.10966 0.76584 0.13862 23.938 0 0-0.38179-0.30995 0.13862 0.76584 66.062 0 0 0.38179-0.31376 0.13862 0.76584 66.062 0 0-0.56328 0.10585 0.13862 0.6054 2.5757 0 0-0.10966-0.40073z" fill="#2e3440" stroke-width="7.3154"/>
  <ellipse cx="149.45" cy="-1.7844" rx="1.2842" ry="1.0522" fill="#2e3440" stroke-width=".35592" style="paint-order:fill markers stroke"/>
  <ellipse cx="149.45" cy="-1.8566" rx="1.2388" ry=".92715" fill="#7b88a1" stroke-width=".32815" style="paint-order:fill markers stroke"/>
  <path d="m149.48-2.5548a0.13862 0.6054 2.5757 0 0-0.14748 0.40447 0.76584 0.13862 23.938 0 0-0.57835-0.10958 0.76584 0.13862 23.938 0 0 0.38179 0.31376 0.13862 0.76584 66.062 0 0-0.38179 0.30995 0.13862 0.76584 66.062 0 0 0.55948-0.10585 0.13862 0.6054 2.5757 0 0 0.10966 0.39693 0.13862 0.6054 2.5757 0 0 0.15121-0.40074 0.76584 0.13862 23.938 0 0 0.57835 0.10966 0.76584 0.13862 23.938 0 0-0.38179-0.30995 0.13862 0.76584 66.062 0 0 0.38179-0.31376 0.13862 0.76584 66.062 0 0-0.56328 0.10585 0.13862 0.6054 2.5757 0 0-0.10966-0.40073z" fill="#2e3440" stroke-width="7.3154"/>
  <path d="m131.35 1.4789c-0.15399 0-0.19115 0.15375-0.27974 0.27974l-1.996 2.8427c-0.0886 0.12599 0.12195 0.27974 0.27594 0.27974h4.0638c0.15399 0 0.3616-0.15174 0.27594-0.27974l-1.9015-2.8427c-0.0857-0.128-0.12575-0.27974-0.27974-0.27974zm0.0344 1.0585c0.13102 0 0.23438 0.12573 0.23438 0.27974v0.61996c0 0.15401-0.10344 0.27974-0.23438 0.27974-0.13102 0-0.23819-0.12573-0.23819-0.27974v-0.61996c0-0.15401 0.10724-0.27974 0.23819-0.27974zm-0.0154 1.3457a0.21926 0.19657 0 0 1 0.0154 0 0.21926 0.19657 0 0 1 0.21924 0.19657 0.21926 0.19657 0 0 1-0.21924 0.19657 0.21926 0.19657 0 0 1-0.21924-0.19657 0.21926 0.19657 0 0 1 0.2041-0.19657z" fill="#eceff4" stroke-width="7.3154"/>
  <path d="m136.04 26.577-2.3897 0.01565-0.0345-4.3389 2.3897-0.01565c2.6394-0.01729 4.7639-1.9741 4.7449-4.3702s-2.1744-4.3249-4.8138-4.3076c-2.6397 0.01729-4.7639 1.9741-4.7449 4.3702l0.0172 2.1694-4.7794 0.03129-0.0172-2.1694c-0.019-2.3961-2.1744-4.3249-4.8138-4.3076-2.6394 0.01728-4.7639 1.9741-4.7449 4.3702s2.1744 4.3249 4.8138 4.3076l2.3897-0.01565 0.0345 4.3389-2.3897 0.01565c-2.6394 0.01728-4.7639 1.9741-4.7449 4.3702 0.019 2.3962 2.1744 4.3249 4.8138 4.3076 2.6397-0.01728 4.7639-1.9741 4.7449-4.3702l-0.0172-2.1694 4.7794-0.03128 0.0172 2.164c1e-5 0.0018-2.7e-4 0.0036-2.6e-4 0.0055 0.019 2.3962 2.1744 4.3249 4.8138 4.3076 2.6394-0.01728 4.7639-1.974 4.7449-4.3702s-2.1741-4.3244-4.8135-4.3076zm-0.0862-10.847c1.3197-0.0086 2.3974 0.95571 2.4069 2.1538 0.01 1.1981-1.0527 2.1764-2.3725 2.1851l-2.3897 0.01565-0.0172-2.1694c-9e-3 -1.1981 1.0527-2.1764 2.3724-2.1851zm-16.711 2.2789c-0.01-1.1981 1.0527-2.1764 2.3724-2.1851 1.3197-0.0086 2.3974 0.95571 2.4069 2.1538l0.0172 2.1694-2.3897 0.01565c-1.3197 0.0086-2.3974-0.95601-2.4069-2.1538zm2.5103 15.17c-1.3197 0.0091-2.3974-0.95571-2.4069-2.1538-9e-3 -1.1981 1.0527-2.1764 2.3724-2.1851l2.3897-0.01564 0.0172 2.1694c0.01 1.1981-1.0527 2.1765-2.3724 2.1851zm4.7277-6.5396-0.0345-4.3389 4.7794-0.03129 0.0345 4.3389zm9.6105 6.4457c-1.3197 0.0091-2.3974-0.95571-2.4069-2.1538l-0.0172-2.1694 2.3894-0.01564c1.3197-0.0091 2.3974 0.95571 2.4069 2.1538 0.01 1.1981-1.0524 2.1764-2.3722 2.1851z" fill="#2e3440" opacity=".25"/>
 </g>
</svg>
