<svg width="64" height="64" version="1.1" viewBox="0 0 16.933 16.933" xmlns="http://www.w3.org/2000/svg">
 <defs>
  <linearGradient id="linearGradient913" x1="175" x2="175" y1="52" y2="5" gradientTransform="matrix(.26458 0 0 .26458 -37.835 -.26458)" gradientUnits="userSpaceOnUse">
   <stop stop-color="#e5e9f0" offset="0"/>
   <stop stop-color="#a6aebf" offset="1"/>
  </linearGradient>
  <linearGradient id="linearGradient921" x1="39.697" x2="42.275" y1="7.6978" y2="7.9319" gradientTransform="translate(-37.835 -.26458)" gradientUnits="userSpaceOnUse">
   <stop stop-color="#2e3440" offset="0"/>
   <stop stop-color="#a6aebf" offset=".65772"/>
   <stop stop-color="#d8dee9" offset="1"/>
  </linearGradient>
  <linearGradient id="linearGradient945" x1="38.628" x2="53.974" y1="14.816" y2="14.816" gradientTransform="translate(-37.835 -.26458)" gradientUnits="userSpaceOnUse">
   <stop stop-color="#d8dee9" offset="0"/>
   <stop stop-color="#a6aebf" offset="1"/>
  </linearGradient>
  <linearGradient id="linearGradient949" x1="39.697" x2="42.275" y1="7.6978" y2="7.9319" gradientTransform="matrix(-1 0 0 1 54.767 -.26458)" gradientUnits="userSpaceOnUse">
   <stop stop-color="#2e3440" offset="0"/>
   <stop stop-color="#a6aebf" offset=".65772"/>
   <stop stop-color="#d8dee9" offset="1"/>
  </linearGradient>
  <linearGradient id="linearGradient968" x1="37.658" x2="37.658" y1="15.081" y2="14.552" gradientTransform="translate(-22.834 -.26458)" gradientUnits="userSpaceOnUse">
   <stop stop-color="#97b67c" offset="0"/>
   <stop stop-color="#a3be8c" offset="1"/>
  </linearGradient>
  <radialGradient id="radialGradient974" cx="37.65" cy="14.726" r=".14492" gradientTransform="matrix(1.8045,0,0,1.8045,-53.128,-12.154)" gradientUnits="userSpaceOnUse">
   <stop stop-color="#a3be8c" offset="0"/>
   <stop stop-color="#61fe30" stop-opacity="0" offset="1"/>
  </radialGradient>
  <filter id="filter1155" x="-1.1932" y="-1.1932" width="3.3864" height="3.3864" color-interpolation-filters="sRGB">
   <feGaussianBlur stdDeviation="0.3043853"/>
  </filter>
 </defs>
 <g stroke-linecap="round" stroke-linejoin="round">
  <path transform="matrix(.26458 0 0 .26458 -37.835 0)" d="m156 4c-2.77 0-4.6713 1.3331-4.9609 4.0879l-5.0391 47.485c-0.28967 2.7548 2.23 5.4266 5 5.4266h48c2.77 0 5.2897-2.6718 5-5.4266l-5.0391-47.485c-0.28969-2.7548-2.1909-4.0879-4.9609-4.0879h-19z" filter="url(#filter1155)" opacity=".25" stroke-width="3.2711"/>
  <path d="m8.466 1.0583v15.081h-6.3499c-0.73288 0-1.3995-0.66733-1.3229-1.3962l1.3332-12.603c0.07664-0.72886 0.57967-1.0816 1.3126-1.0816z" filter="url(#filter1155)" opacity=".1875" stroke-width=".86547"/>
  <path d="m8.466 1.0583v15.081h6.3499c0.73288 0 1.3995-0.66733 1.3229-1.3962l-1.3332-12.603c-0.07664-0.72886-0.57967-1.0816-1.3126-1.0816z" filter="url(#filter1155)" opacity=".1875" stroke-width=".86547"/>
  <path d="m2.116 13.493h12.7c0.73288 0 1.3229 0.59001 1.3229 1.3229 0 0.73288-0.59001 1.3229-1.3229 1.3229h-12.7c-0.73288 0-1.3229-0.59001-1.3229-1.3229 0-0.73288 0.59001-1.3229 1.3229-1.3229z" filter="url(#filter1155)" opacity=".25" stroke-width=".83667"/>
  <path transform="matrix(.26458 0 0 .26458 -37.835 0)" d="m151 52c-2.216 0-4 1.784-4 4s1.784 4 4 4h48c2.216 0 4-1.784 4-4s-1.784-4-4-4zm0 0.5h48c1.939 0 3.5 1.561 3.5 3.5s-1.561 3.5-3.5 3.5h-48c-1.939 0-3.5-1.561-3.5-3.5s1.561-3.5 3.5-3.5z" filter="url(#filter1155)" opacity=".25" stroke-width="2.7792"/>
  <g transform="translate(-22.834)" filter="url(#filter1155)" opacity=".25">
   <path d="m37.957 14.816a0.30612 0.30612 0 0 1-0.30612 0.30612 0.30612 0.30612 0 0 1-0.30612-0.30612 0.30612 0.30612 0 0 1 0.30612-0.30612 0.30612 0.30612 0 0 1 0.30612 0.30612" opacity="1" stroke-width=".91835"/>
   <path d="m37.915 14.816a0.26458 0.26458 0 0 1-0.26458 0.26458 0.26458 0.26458 0 0 1-0.26458-0.26458 0.26458 0.26458 0 0 1 0.26458-0.26458 0.26458 0.26458 0 0 1 0.26458 0.26458" opacity="1" stroke-width=".79373"/>
   <path transform="scale(.26458)" d="m142.3 55a1 1 0 0 0-0.97265 0.78125 0.98836 0.98836 0 0 0 0.94531 0.70508 0.98836 0.98836 0 0 0 0.97266-0.8125 1 1 0 0 0-0.94532-0.67383z" opacity="1" stroke-width="2.9651"/>
  </g>
  <path transform="matrix(.26458 0 0 .26458 -37.835 0)" d="m151 52.5c-1.939 0-3.5 1.561-3.5 3.5 0 0.08572 0.0194 0.16586 0.0254 0.25 0.1297-1.8191 1.6213-3.25 3.4746-3.25h48c1.8533 0 3.3449 1.4309 3.4746 3.25 6e-3 -0.08414 0.0254-0.16428 0.0254-0.25 0-1.939-1.561-3.5-3.5-3.5z" filter="url(#filter1155)" opacity=".025" stroke-width="2.5764"/>
  <path transform="matrix(.26458 0 0 .26458 -37.835 0)" d="m151 52.5c-1.939 0-3.5 1.561-3.5 3.5 0 0.03686 0.0106 0.07084 0.0117 0.10742 0.0587-1.9919 1.5867-3.5801 3.4883-3.5801h48c1.9015 0 3.4296 1.5882 3.4883 3.5801 1e-3 -0.03658 0.0117-0.07056 0.0117-0.10742 0-1.939-1.561-3.5-3.5-3.5zm-3.9902 3.6074c-1e-3 0.03918-0.01 0.07579-0.01 0.11523 0 2.3394 1.784 4.2227 4 4.2227h48c2.216 0 4-1.8832 4-4.2227 0-0.03945-9e-3 -0.07605-0.01-0.11523-0.05739 2.1648-1.8105 3.8926-3.9898 3.8926h-48c-2.1792 0-3.9324-1.7278-3.9902-3.8926z" filter="url(#filter1155)" opacity=".025" stroke-width="2.8556"/>
  <g stroke-width=".86547">
   <path d="m3.4395 0.79374c-0.73289 0-1.2359 0.35271-1.3126 1.0816l-1.3332 12.564c-0.076641 0.72886 0.59001 1.4358 1.3229 1.4358h12.7c0.73289 0 1.3995-0.7069 1.3229-1.4358l-1.3332-12.564c-0.07665-0.72886-0.57967-1.0816-1.3126-1.0816h-5.027z" fill="url(#linearGradient913)"/>
   <path d="m8.466 0.79372v15.081h-6.3499c-0.73288 0-1.3995-0.66733-1.3229-1.3962l1.3332-12.603c0.07664-0.72886 0.57967-1.0816 1.3126-1.0816z" fill="url(#linearGradient921)" opacity=".75"/>
   <path d="m8.466 0.79372v15.081h6.3499c0.73288 0 1.3995-0.66733 1.3229-1.3962l-1.3332-12.603c-0.07664-0.72886-0.57967-1.0816-1.3126-1.0816z" fill="url(#linearGradient949)" opacity=".75"/>
  </g>
  <rect x=".793" y="13.228" width="15.346" height="2.6458" rx="1.3229" ry="1.3229" fill="url(#linearGradient945)" stroke-width=".83667"/>
  <path d="m2.1166 13.494c-0.58631 0-1.0583 0.47201-1.0583 1.0583s0.47201 1.0583 1.0583 1.0583h12.7c0.58631 0 1.0583-0.47201 1.0583-1.0583s-0.47201-1.0583-1.0583-1.0583zm0 0.13229h12.7c0.51302 0 0.92603 0.41301 0.92603 0.92603s-0.41301 0.92603-0.92603 0.92603h-12.7c-0.51302 0-0.92603-0.41301-0.92603-0.92603s0.41301-0.92603 0.92603-0.92603z" fill="#2e3440" stroke-width=".73532"/>
  <circle cx="14.816" cy="14.551" r=".30612" fill="#827076" stroke-width=".91835"/>
  <circle cx="14.816" cy="14.551" r=".26458" fill="url(#linearGradient968)" stroke-width=".79373"/>
  <path d="m14.816 14.287a0.26458 0.26458 0 0 0-0.25734 0.2067 0.2615 0.2615 0 0 0 0.25011 0.18655 0.2615 0.2615 0 0 0 0.25735-0.21497 0.26458 0.26458 0 0 0-0.25011-0.17828z" fill="url(#radialGradient974)" stroke-width=".78451"/>
  <path d="m2.1166 13.626c-0.51302 0-0.92603 0.41301-0.92603 0.92603 0 0.02268 0.00513 0.04388 0.00672 0.06615 0.034316-0.4813 0.42896-0.85989 0.91931-0.85989h12.7c0.49035 0 0.88499 0.37859 0.91931 0.85988 0.0016-0.02226 0.0067-0.04347 0.0067-0.06615 0-0.51302-0.41301-0.92603-0.92603-0.92603z" fill="#fff" opacity=".1" stroke-width=".68166"/>
  <path d="m2.1166 13.626c-0.51302 0-0.92603 0.41301-0.92603 0.92603 0 0.0098 0.0028 0.01874 0.0031 0.02842 0.015531-0.52702 0.41981-0.94722 0.92293-0.94722h12.7c0.5031 0 0.9074 0.42021 0.92293 0.94722 2.65e-4 -0.0097 0.0031-0.01867 0.0031-0.02842 0-0.51302-0.41301-0.92603-0.92603-0.92603zm-1.0557 0.95445c-2.646e-4 0.01037-0.00265 0.02005-0.00265 0.03049 0 0.61896 0.47201 1.1172 1.0583 1.1172h12.7c0.58631 0 1.0583-0.49826 1.0583-1.1172 0-0.01044-0.0024-0.02012-0.0026-0.03049-0.01518 0.57276-0.47902 1.0299-1.0556 1.0299h-12.7c-0.57657 0-1.0404-0.45714-1.0557-1.0299z" fill="#eceff4" opacity=".1" stroke-width=".75554"/>
 </g>
</svg>
