<svg width="64" height="64" version="1.1" viewBox="0 0 16.933 16.933" xmlns="http://www.w3.org/2000/svg">
 <defs>
  <linearGradient id="a" x1="-329.22" x2="-328.74" y1="137.64" y2="304.37" gradientTransform="matrix(.11037 0 0 .098386 43.904 -13.137)" gradientUnits="userSpaceOnUse">
   <stop stop-color="#a6aebf" offset="0"/>
   <stop stop-color="#7b88a1" offset="1"/>
  </linearGradient>
  <linearGradient id="b" x1="-329.64" x2="-286.72" y1="137.99" y2="201.93" gradientTransform="matrix(.10013 0 0 .10065 41.466 -12.701)" gradientUnits="userSpaceOnUse">
   <stop stop-color="#4c566a" offset="0"/>
   <stop stop-color="#2e3440" offset="1"/>
  </linearGradient>
  <filter id="c" x="-.044779" y="-.030114" width="1.0896" height="1.0602" color-interpolation-filters="sRGB">
   <feGaussianBlur stdDeviation="0.41569834"/>
  </filter>
 </defs>
 <rect transform="matrix(.49367 0 0 .49515 .10717 -130.21)" x="5.7932" y="263.5" width="22.28" height="33.13" ry="2.1323" filter="url(#c)" opacity=".25" stroke-width="2.0226"/>
 <rect x="2.9671" y=".26202" width="10.999" height="16.404" ry="1.0558" fill="url(#a)" stroke-width=".99999"/>
 <path d="m8.4665 8.7638a3.6654 3.6846 0 0 0-3.6654 3.6846 3.6654 3.6846 0 0 0 3.6654 3.6846 3.6654 3.6846 0 0 0 3.6654-3.6846 3.6654 3.6846 0 0 0-3.6654-3.6846zm0.00894 0.15888a0.16218 0.16302 0 0 1 0.16219 0.16304 0.16218 0.16302 0 0 1-0.16219 0.16304 0.16218 0.16302 0 0 1-0.16214-0.16304 0.16218 0.16302 0 0 1 0.16214-0.16304zm-0.00894 1.6858a1.8302 1.8398 0 0 1 1.8302 1.8398 1.8302 1.8398 0 0 1-1.8302 1.8398 1.8302 1.8398 0 0 1-1.8302-1.8398 1.8302 1.8398 0 0 1 1.8302-1.8398zm-3.2824 1.7218a0.16218 0.16302 0 0 1 0.16219 0.16304 0.16218 0.16302 0 0 1-0.16219 0.16298 0.16218 0.16302 0 0 1-0.16214-0.16298 0.16218 0.16302 0 0 1 0.16214-0.16304zm6.5648 0a0.16218 0.16302 0 0 1 0.16214 0.16304 0.16218 0.16302 0 0 1-0.16214 0.16298 0.16218 0.16302 0 0 1-0.16219-0.16298 0.16218 0.16302 0 0 1 0.16219-0.16304zm-3.2734 3.3176a0.16218 0.16302 0 0 1 0.16219 0.16298 0.16218 0.16302 0 0 1-0.16219 0.16304 0.16218 0.16302 0 0 1-0.16214-0.16304 0.16218 0.16302 0 0 1 0.16214-0.16298z" fill="#2e3440" stroke-width=".99999"/>
 <rect x="4.1767" y="1.0345" width="8.58" height="6.5909" ry=".45153" fill="url(#b)" stroke="#2e3440" stroke-linecap="round" stroke-linejoin="round" stroke-width=".2"/>
</svg>
