<svg width="64" height="64" version="1.1" viewBox="0 0 16.933 16.933" xmlns="http://www.w3.org/2000/svg">
 <defs>
  <linearGradient id="q" x1="8.4665" x2="8.4665" y1=".5292" y2="16.404" gradientTransform="matrix(.79998 0 0 .79998 1.6986 1.693)" gradientUnits="userSpaceOnUse">
   <stop stop-color="#a6aebf" offset="0"/>
   <stop stop-color="#7b88a1" offset=".41037"/>
   <stop stop-color="#4c566a" offset=".72843"/>
   <stop stop-color="#2e3440" offset="1"/>
  </linearGradient>
  <linearGradient id="a" x1="32.351" x2="32.351" y1="2.0801" y2="61.924" gradientTransform="matrix(.21167 0 0 .21167 1.6986 1.693)" gradientUnits="userSpaceOnUse">
   <stop stop-color="#eceff4" stop-opacity=".78" offset="0"/>
   <stop stop-color="#eceff4" stop-opacity=".24" offset="1"/>
  </linearGradient>
  <radialGradient id="radialGradient991" cx="4.1411" cy="6.432" r="2.1166" gradientTransform="matrix(.79998 0 0 .79998 1.4635 1.5642)" gradientUnits="userSpaceOnUse">
   <stop stop-color="#eceff4" offset="0"/>
   <stop stop-color="#fff" stop-opacity="0" offset="1"/>
  </radialGradient>
  <radialGradient id="radialGradient995" cx="4.1411" cy="6.432" r="2.1166" gradientTransform="matrix(.61482 0 0 .61482 6.9205 2.3588)" gradientUnits="userSpaceOnUse">
   <stop stop-color="#eceff4" offset="0"/>
   <stop stop-color="#fff" stop-opacity="0" offset="1"/>
  </radialGradient>
  <radialGradient id="radialGradient999" cx="4.1411" cy="6.432" r="2.1166" gradientTransform="matrix(.56172 0 0 .56172 7.8387 4.2178)" gradientUnits="userSpaceOnUse">
   <stop stop-color="#fff" offset="0"/>
   <stop stop-color="#fff" stop-opacity="0" offset="1"/>
  </radialGradient>
  <radialGradient id="radialGradient1003" cx="4.1411" cy="6.432" r="2.1166" gradientTransform="matrix(.56172 0 0 .56172 10.291 -.5379)" gradientUnits="userSpaceOnUse">
   <stop stop-color="#eceff4" offset="0"/>
   <stop stop-color="#fff" stop-opacity="0" offset="1"/>
  </radialGradient>
  <radialGradient id="radialGradient1007" cx="4.1411" cy="6.432" r="2.1166" gradientTransform="matrix(.56172 0 0 .56172 11.348 .92917)" gradientUnits="userSpaceOnUse">
   <stop stop-color="#eceff4" offset="0"/>
   <stop stop-color="#fff" stop-opacity="0" offset="1"/>
  </radialGradient>
  <radialGradient id="radialGradient1011" cx="4.1411" cy="6.432" r="2.1166" gradientTransform="matrix(.35953 0 0 .35953 11.911 7.385)" gradientUnits="userSpaceOnUse">
   <stop stop-color="#eceff4" offset="0"/>
   <stop stop-color="#fff" stop-opacity="0" offset="1"/>
  </radialGradient>
  <radialGradient id="radialGradient1015" cx="4.1411" cy="6.432" r="2.1166" gradientTransform="matrix(.35953 0 0 .35953 11.81 8.3978)" gradientUnits="userSpaceOnUse">
   <stop stop-color="#eceff4" offset="0"/>
   <stop stop-color="#fff" stop-opacity="0" offset="1"/>
  </radialGradient>
  <radialGradient id="radialGradient1019" cx="4.1411" cy="6.432" r="2.1166" gradientTransform="matrix(.65138 0 0 .65138 8.2959 6.0619)" gradientUnits="userSpaceOnUse">
   <stop stop-color="#eceff4" offset="0"/>
   <stop stop-color="#fff" stop-opacity="0" offset="1"/>
  </radialGradient>
  <radialGradient id="radialGradient1023" cx="4.1411" cy="6.432" r="2.1166" gradientTransform="matrix(.65138 0 0 .65138 5.4517 8.5114)" gradientUnits="userSpaceOnUse">
   <stop stop-color="#eceff4" offset="0"/>
   <stop stop-color="#fff" stop-opacity="0" offset="1"/>
  </radialGradient>
  <radialGradient id="radialGradient1027" cx="4.1411" cy="6.432" r="2.1166" gradientTransform="matrix(.40425 0 0 .40425 3.7267 6.6726)" gradientUnits="userSpaceOnUse">
   <stop stop-color="#eceff4" offset="0"/>
   <stop stop-color="#fff" stop-opacity="0" offset="1"/>
  </radialGradient>
  <radialGradient id="radialGradient1031" cx="4.1411" cy="6.432" r="2.1166" gradientTransform="matrix(.24549 0 0 .24549 9.113 12.226)" gradientUnits="userSpaceOnUse">
   <stop stop-color="#eceff4" offset="0"/>
   <stop stop-color="#fff" stop-opacity="0" offset="1"/>
  </radialGradient>
  <radialGradient id="radialGradient1035" cx="4.1411" cy="6.432" r="2.1166" gradientTransform="matrix(.37478 0 0 .37478 7.0033 7.6402)" gradientUnits="userSpaceOnUse">
   <stop stop-color="#eceff4" offset="0"/>
   <stop stop-color="#fff" stop-opacity="0" offset="1"/>
  </radialGradient>
  <radialGradient id="radialGradient1039" cx="4.1411" cy="6.432" r="2.1166" gradientTransform="matrix(.1796 0 0 .1796 12.287 11.021)" gradientUnits="userSpaceOnUse">
   <stop stop-color="#eceff4" offset="0"/>
   <stop stop-color="#fff" stop-opacity="0" offset="1"/>
  </radialGradient>
  <radialGradient id="radialGradient1043" cx="4.1411" cy="6.432" r="2.1166" gradientTransform="matrix(.1796 0 0 .1796 11.383 10.343)" gradientUnits="userSpaceOnUse">
   <stop stop-color="#eceff4" offset="0"/>
   <stop stop-color="#fff" stop-opacity="0" offset="1"/>
  </radialGradient>
  <linearGradient id="linearGradient862-3" x1="7.9373" x2="7.9373" y1="15.081" y2="1.852" gradientTransform="matrix(.99996 0 0 .99996 3.7873e-5 .0083453)" gradientUnits="userSpaceOnUse">
   <stop stop-color="#d8dee9" offset="0"/>
   <stop stop-color="#eceff4" offset="1"/>
  </linearGradient>
 </defs>
 <g shape-rendering="auto">
  <path d="m4.3693 0.52916c-2.1142 0-3.8402 1.7835-3.8402 3.9682v8.4675c0 2.1846 1.726 3.9682 3.8402 3.9682h8.1944c2.1142 0 3.8402-1.7835 3.8402-3.9682v-8.4675c0-2.1846-1.726-3.9682-3.8402-3.9682zm0.25704 0.52089h7.6808c1.8443 0 3.3291 1.5342 3.3291 3.44v7.9368c0 1.9058-1.4847 3.44-3.3291 3.44h-7.6808c-1.8443 0-3.3291-1.5342-3.3291-3.44v-7.9368c0-1.9058 1.4847-3.44 3.3291-3.44z" color="#000000" color-rendering="auto" dominant-baseline="auto" image-rendering="auto" opacity=".01" solid-color="#000000" stop-color="#000000" style="font-feature-settings:normal;font-variant-alternates:normal;font-variant-caps:normal;font-variant-east-asian:normal;font-variant-ligatures:normal;font-variant-numeric:normal;font-variant-position:normal;font-variation-settings:normal;inline-size:0;isolation:auto;mix-blend-mode:normal;shape-margin:0;shape-padding:0;text-decoration-color:#000000;text-decoration-line:none;text-decoration-style:solid;text-indent:0;text-orientation:mixed;text-transform:none;white-space:normal"/>
  <path d="m4.3587 0.79373c-1.9668 0-3.5639 1.6528-3.5639 3.6876v8.4996c0 2.0348 1.5971 3.6876 3.5639 3.6876h8.2162c1.9668 0 3.5644-1.6528 3.5644-3.6876v-8.4996c0-2.0348-1.5976-3.6876-3.5644-3.6876zm0.27222 0.25631h7.6718c1.8422 0 3.3251 1.5342 3.3251 3.44v7.9368c0 1.9058-1.483 3.44-3.3251 3.44h-7.6718c-1.8422 0-3.3251-1.5342-3.3251-3.44v-7.9368c0-1.9058 1.483-3.44 3.3251-3.44z" color="#000000" color-rendering="auto" dominant-baseline="auto" image-rendering="auto" opacity=".01" solid-color="#000000" stop-color="#000000" style="font-feature-settings:normal;font-variant-alternates:normal;font-variant-caps:normal;font-variant-east-asian:normal;font-variant-ligatures:normal;font-variant-numeric:normal;font-variant-position:normal;font-variation-settings:normal;inline-size:0;isolation:auto;mix-blend-mode:normal;shape-margin:0;shape-padding:0;text-decoration-color:#000000;text-decoration-line:none;text-decoration-style:solid;text-indent:0;text-orientation:mixed;text-transform:none;white-space:normal"/>
  <path d="m4.3097 1.0583c-1.8657 0-3.3751 1.5383-3.3751 3.439v8.4675c0 1.9007 1.57 3.439 3.4357 3.439h8.1996c1.8657 0 3.4274-1.5383 3.4274-3.439v-8.4675c0-1.9007-1.51-3.439-3.3756-3.439h-0.09688c1.794 0.086515 3.2138 1.5819 3.2138 3.4318v7.9368c0 1.9058-1.5059 3.44-3.3766 3.44h-7.7905c-1.8707 0-3.3766-1.5342-3.3766-3.44v-7.9368c0-1.8498 1.4199-3.3451 3.2138-3.4318z" color="#000000" color-rendering="auto" dominant-baseline="auto" image-rendering="auto" opacity=".03" solid-color="#000000" stop-color="#000000" style="font-feature-settings:normal;font-variant-alternates:normal;font-variant-caps:normal;font-variant-east-asian:normal;font-variant-ligatures:normal;font-variant-numeric:normal;font-variant-position:normal;font-variation-settings:normal;inline-size:0;isolation:auto;mix-blend-mode:normal;shape-margin:0;shape-padding:0;text-decoration-color:#000000;text-decoration-line:none;text-decoration-style:solid;text-indent:0;text-orientation:mixed;text-transform:none;white-space:normal"/>
  <path transform="scale(.26458)" d="m4 46.969v2.0312c0 6.6479 5.8957 12 12.544 12h30.961c6.6479 0 12.495-5.3521 12.495-12v-1.9922c-0.021173 7.1849-5.81 12.963-13 12.963h-29.998c-7.2032 0-13.002-5.7987-13.002-13.002z" color="#000000" color-rendering="auto" dominant-baseline="auto" image-rendering="auto" opacity=".03" solid-color="#000000" stop-color="#000000" style="font-feature-settings:normal;font-variant-alternates:normal;font-variant-caps:normal;font-variant-east-asian:normal;font-variant-ligatures:normal;font-variant-numeric:normal;font-variant-position:normal;font-variation-settings:normal;inline-size:0;isolation:auto;mix-blend-mode:normal;shape-margin:0;shape-padding:0;text-decoration-color:#000000;text-decoration-line:none;text-decoration-style:solid;text-indent:0;text-orientation:mixed;text-transform:none;white-space:normal"/>
  <path d="m1.0583 11.906v0.59234c0 1.9386 1.5729 3.4993 3.3318 3.4993h8.1603c1.7589 0 3.3243-1.5608 3.3243-3.4993v-0.58095c-0.0056 2.0952-1.5372 3.7801-3.4395 3.7801h-7.9368c-1.9058 0-3.44-1.691-3.44-3.7915z" color="#000000" color-rendering="auto" dominant-baseline="auto" image-rendering="auto" opacity=".05" solid-color="#000000" stop-color="#000000" style="font-feature-settings:normal;font-variant-alternates:normal;font-variant-caps:normal;font-variant-east-asian:normal;font-variant-ligatures:normal;font-variant-numeric:normal;font-variant-position:normal;font-variation-settings:normal;inline-size:0;isolation:auto;mix-blend-mode:normal;shape-margin:0;shape-padding:0;text-decoration-color:#000000;text-decoration-line:none;text-decoration-style:solid;text-indent:0;text-orientation:mixed;text-transform:none;white-space:normal"/>
 </g>
 <rect x="1.0583" y="1.0583" width="14.816" height="14.816" rx="3.4399" ry="3.4399" fill="url(#linearGradient862-3)" stroke-width=".99996"/>
 <circle cx="8.4664" cy="8.4664" r="6.3498" fill="url(#q)" fill-rule="evenodd" stroke-width=".79998" style="paint-order:stroke fill markers"/>
 <path d="m8.8104 2.133c-0.603 0.31356-1.3316 0.78576-2.0567 1.492-0.69557 0.67741-1.3684 1.5555-1.8612 2.6155-0.0071998-0.2682-7.999e-4 -0.53085 0.01616-0.78506 0.071038-1.0482 0.32871-1.9279 0.59487-2.5999a6.3499 6.3499 0 0 0-0.20752 0.11906c-0.26774 0.65084-0.51447 1.482-0.59655 2.4655-0.033599 0.40341-0.037439 0.8271-0.0079998 1.2634-0.78991-0.26379-1.416-0.65194-1.8545-0.98638-0.021679-0.016528-0.040239-0.031943-0.060318-0.047951a6.3499 6.3499 0 0 0-0.060398 0.12526c0.01152 0.010152 0.022079 0.019799 0.034319 0.030175 0.42965 0.36391 1.059 0.78474 1.8686 1.0745-0.026639 0.072694-0.052479 0.14574-0.077278 0.21994-0.035759 0.10697-0.069918 0.21524-0.1017 0.32452-0.082374 0.28297-0.14836 0.56444-0.2005 0.84374-0.35528-0.22923-0.67576-0.46244-0.9595-0.68873-0.38455-0.30668-0.68113-0.57989-0.92646-0.81774a6.3499 6.3499 0 0 0-0.033519 0.13022c0.22504 0.24251 0.49898 0.51582 0.85326 0.81686 0.2995 0.25451 0.64274 0.51682 1.0285 0.77305-0.17646 1.0943-0.13436 2.1454 0.045439 3.0735 0.17082 0.88102 0.45922 1.6124 0.75735 2.2063a6.3499 6.3499 0 0 0 0.2468 0.15172c-0.30986-0.62697-0.62335-1.4245-0.79621-2.3969-0.15623-0.87838-0.19073-1.8649-0.033919-2.8922 0.24498 0.1546 0.50584 0.30609 0.78176 0.45061 0.084166 0.22667 0.1792 0.45266 0.28608 0.67798 0.01256 0.026495 0.024799 0.053375 0.037599 0.079782 0.60578 1.2426 1.4632 2.2233 2.3708 2.9406-0.026559 0.48323-0.01488 0.9335 0.02064 1.3365 0.021519 0.24403 0.051999 0.46071 0.085574 0.66352a6.3499 6.3499 0 0 0 0.14345 7e-3c-0.024799-0.20899-0.046959-0.4319-0.060798-0.68213-0.01984-0.35892-0.02168-0.75468 0.0048-1.1765 0.10907 0.08115 0.2185 0.15872 0.32825 0.23235 0.51813 0.34758 1.0305 0.60521 1.5064 0.79828-0.083046 0.2297-0.14559 0.44881-0.19141 0.64904-0.0048 0.02247-0.00848 0.04265-0.0128 0.06408a6.3499 6.3499 0 0 0 0.16743-0.03803c0.054239-0.18852 0.12302-0.39259 0.2096-0.60688 0.30731 0.11674 0.58675 0.19745 0.8487 0.26458a6.3499 6.3499 0 0 0 0.19472-0.08681c-0.29534-0.0826-0.6188-0.18466-0.97854-0.3328 0.26369-0.60512 0.6704-1.2736 1.2902-1.8711 0.17888-0.17256 0.37304-0.3358 0.58207-0.48864 0.32147 0.26234 0.63668 0.47374 0.92814 0.64284-0.09828 0.39568-0.21315 0.75085-0.33114 1.0815a6.3499 6.3499 0 0 0 0.27368-0.24347c0.08333-0.23251 0.16429-0.47438 0.23687-0.73752 0.10384 0.05617 0.19725 0.09947 0.29146 0.14387a6.3499 6.3499 0 0 0 0.08309-0.10955c-0.10707-0.0578-0.2145-0.11553-0.3332-0.18768 0.10864-0.41761 0.1994-0.86902 0.26085-1.3493 0.35416-0.13196 0.70214-0.21987 1.0365-0.27863a6.3499 6.3499 0 0 0 0.0728-0.22241c-0.34633 0.04523-0.70903 0.12208-1.0798 0.24639 0.02192-0.21168 0.03816-0.42883 0.04752-0.6507 0.47059-0.144 0.87454-0.30399 1.2187-0.45846a6.3499 6.3499 0 0 0 0.0244-0.16164c-0.3495 0.14228-0.75632 0.29257-1.2373 0.42869 0.0064-0.25933 0.0032-0.52501-0.01032-0.79664-0.0176-0.34277-0.05216-0.69061-0.10583-1.0418-0.1422-0.93062-0.39687-1.7755-0.71064-2.5279 0.34467-0.21132 0.65728-0.37153 0.94006-0.5056a6.3499 6.3499 0 0 0-0.0802-0.11245c-0.2813 0.11848-0.5895 0.26189-0.92894 0.45516-0.17792-0.40809-0.37306-0.78783-0.57629-1.1373 0.03832-0.072382 0.07424-0.14292 0.10707-0.21167 0.06248-0.1308 0.11161-0.24983 0.15627-0.36381a6.3499 6.3499 0 0 0-0.10128-0.076894c-0.05408 0.11693-0.1131 0.23933-0.18562 0.37453-0.0216 0.040199-0.04472 0.08127-0.06824 0.12278-0.24946-0.41329-0.50895-0.78201-0.76315-1.1038-3.2e-4 -4.064e-4 -5.12e-4 -7.999e-4 -8e-4 -0.00128a6.3499 6.3499 0 0 0-0.33695-0.15337c0.0668 0.083838 0.13224 0.16351 0.20257 0.25838 0.25956 0.35018 0.52526 0.75204 0.77925 1.2022-0.42982 0.70043-1.1201 1.5298-2.1643 2.1374-0.019199 0.011224-0.038479 0.022423-0.057918 0.033487-0.02224-0.52547 0.012719-1.0288 0.085573-1.4912 0.156-0.9879 0.47667-1.7608 0.74537-2.2894a6.3499 6.3499 0 0 0-0.11988-0.042991c-0.30304 0.52008-0.65546 1.2942-0.8351 2.297-0.09115 0.50791-0.13552 1.0661-0.10749 1.6512-0.42883 0.21867-0.89974 0.39359-1.4039 0.50972-0.82974 0.19117-1.6452 0.20027-2.3825 0.076894-0.23848-0.039823-0.46579-0.092718-0.68213-0.15544v-4.232e-4c0.48314-1.2276 1.2149-2.2381 1.9748-3.0042 0.78299-0.7888 1.5648-1.2928 2.1812-1.6247a6.3499 6.3499 0 0 0-0.26913-0.01364zm3.1273 2.0831c0.17528 0.32287 0.34336 0.66941 0.49815 1.0385-0.15895 0.09579-0.32134 0.20016-0.487 0.31459-0.72016 0.49749-1.4731 1.168-2.1335 2.0248-0.091206-0.37722-0.14776-0.75064-0.17611-1.1153 0.053999-0.029943 0.10744-0.060494 0.15999-0.091774 1.0393-0.61981 1.7208-1.4533 2.1387-2.1708zm0.56842 1.2096c0.29274 0.73123 0.531 1.5472 0.66765 2.4415 0.05248 0.34336 0.08783 0.68293 0.10624 1.0178 0.01592 0.28945 0.0196 0.57234 0.0132 0.8479-0.12772 0.033319-0.25893 0.065126-0.39439 0.095494-0.58234 0.13039-1.2266 0.2272-1.9161 0.26458-0.41625-0.57103-0.7814-1.2407-1.0269-1.9996-0.0047999-0.014608-0.0094398-0.029215-0.01408-0.043823-0.01728-0.054631-0.033439-0.10957-0.049199-0.16412 0.66519-0.91014 1.4347-1.6234 2.1691-2.156 0.15074-0.10931 0.29923-0.21013 0.44441-0.30384zm-3.0977 1.1741c0.033999 0.40737 0.10389 0.82606 0.21787 1.248-0.22066 0.30718-0.42924 0.63628-0.62011 0.98846-0.036399 0.067174-0.072158 0.13415-0.10666 0.20174-0.15607 0.30638-0.28994 0.61264-0.40514 0.91654-0.040159-0.0068799-0.080406-0.013672-0.12071-0.02108-0.08039-0.014528-0.15991-0.029711-0.23937-0.045887-1.0233-0.20846-1.9352-0.54567-2.7286-0.93758-0.23891-0.65446-0.38584-1.3107-0.45929-1.9447 0.19736 0.058078 0.40369 0.1083 0.61969 0.14759 0.7644 0.13863 1.6123 0.13556 2.475-0.063246 0.48875-0.11264 0.94718-0.28041 1.3672-0.48989zm-4.6615 0.6664c0.067278 0.50005 0.18154 1.0121 0.35015 1.5251-0.22339-0.11882-0.43649-0.24167-0.63911-0.36628 0.053919-0.30234 0.12442-0.6073 0.21374-0.91406 0.023919-0.082222 0.049039-0.16386 0.075198-0.24472zm4.9654 0.87438c0.0032 0.00958 0.0056 0.019032 0.00872 0.028527 0.23717 0.73181 0.58409 1.3797 0.98222 1.936-0.62576 0.01877-1.286-0.01246-1.9686-0.11245 0.10964-0.28037 0.23528-0.56277 0.37951-0.84502 0.033599-0.065822 0.068318-0.13092 0.10377-0.19636 0.15427-0.28475 0.32026-0.55513 0.49442-0.8107zm-4.1881 1.1149c0.75227 0.36359 1.6084 0.67288 2.5619 0.86814 0.081254 0.01659 0.16296 0.03236 0.24515 0.04713 0.026719 0.0048 0.053199 0.0091 0.079758 0.01406-0.28517 0.81685-0.43405 1.612-0.49442 2.3412-0.83142-0.69995-1.6116-1.6273-2.1729-2.7798-0.01248-0.025583-0.024559-0.051063-0.036799-0.076894-0.065198-0.13741-0.12611-0.27573-0.18272-0.41381zm7.7629 0.67385c-0.0094 0.22737-0.02576 0.44942-0.04792 0.666-0.40812 0.15682-0.82062 0.36922-1.2224 0.64779-0.10756-0.09752-0.2152-0.20028-0.32287-0.31004-0.18648-0.19024-0.37022-0.39885-0.54694-0.62383 0.64614-0.05071 1.2497-0.15401 1.7971-0.28896 0.11752-0.029024 0.23164-0.059583 0.34313-0.09095zm-4.638 0.29351c0.77464 0.11616 1.5201 0.14256 2.2203 0.105 0.21507 0.27774 0.44212 0.53016 0.67302 0.75612 0.10141 0.09929 0.20289 0.19288 0.30426 0.28153-0.20002 0.14983-0.38641 0.30983-0.55851 0.47832-0.64233 0.62946-1.0505 1.3324-1.3014 1.9662-0.45963-0.20111-0.95222-0.46364-1.4498-0.80902-0.14272-0.099061-0.28532-0.20464-0.42662-0.31667 0.066878-0.76192 0.22781-1.6005 0.53866-2.4615zm4.5599 0.63706c-0.05096 0.40212-0.12175 0.7838-0.20505 1.1418-0.25318-0.16365-0.52416-0.36004-0.8003-0.59447 0.33123-0.22455 0.66945-0.40531 1.0054-0.54734z" fill="url(#a)" fill-rule="evenodd" stroke-width=".79998" style="paint-order:stroke fill markers"/>
 <g stroke-linecap="round" stroke-linejoin="round">
  <circle cx="4.7763" cy="6.7098" r="1.6932" fill="url(#radialGradient991)" stroke-width=".70957"/>
  <circle cx="9.4666" cy="6.3133" r="1.3013" fill="url(#radialGradient995)" stroke-width=".54533"/>
  <g transform="matrix(.79998 0 0 .79998 1.6986 1.693)" stroke-width=".49824">
   <circle cx="10.165" cy="7.8309" r="1.1889" fill="url(#radialGradient999)"/>
   <circle cx="12.617" cy="3.0751" r="1.1889" fill="url(#radialGradient1003)"/>
   <circle cx="13.674" cy="4.5422" r="1.1889" fill="url(#radialGradient1007)"/>
  </g>
  <circle cx="13.4" cy="9.6976" r=".76097" fill="url(#radialGradient1011)" stroke-width=".31889"/>
  <circle cx="13.298" cy="10.71" r=".76097" fill="url(#radialGradient1015)" stroke-width=".31889"/>
  <circle cx="10.994" cy="10.251" r="1.3788" fill="url(#radialGradient1019)" stroke-width=".57777"/>
  <circle cx="8.1492" cy="12.701" r="1.3788" fill="url(#radialGradient1023)" stroke-width=".57777"/>
  <circle cx="5.4008" cy="9.2727" r=".85566" fill="url(#radialGradient1027)" stroke-width=".35857"/>
  <circle cx="10.13" cy="13.805" r=".5196" fill="url(#radialGradient1031)" stroke-width=".21775"/>
  <circle cx="8.5554" cy="10.051" r=".79328" fill="url(#radialGradient1035)" stroke-width=".33243"/>
  <circle cx="13.031" cy="12.176" r=".38015" fill="url(#radialGradient1039)" stroke-width=".15931"/>
  <circle cx="12.127" cy="11.498" r=".38015" fill="url(#radialGradient1043)" stroke-width=".15931"/>
 </g>
</svg>
