<svg width="64" height="64" version="1.1" viewBox="0 0 16.933 16.933" xmlns="http://www.w3.org/2000/svg">
 <defs>
  <radialGradient id="a" cx="-74.104" cy="276.04" r="5.6027" gradientTransform="matrix(1.0755,-1.109,1.1794,1.1438,-318.67,-120.38)" gradientUnits="userSpaceOnUse">
   <stop stop-color="#6a6a6a" offset="0"/>
   <stop stop-color="#0d0d0d" offset="1"/>
  </radialGradient>
  <linearGradient id="d" x1="-108.64" x2="-108.6" y1="175.14" y2="178.08" gradientTransform="matrix(.13479 0 0 .13528 21.201 -21.895)" gradientUnits="userSpaceOnUse">
   <stop stop-color="#434c5e" offset="0"/>
   <stop stop-color="#7b88a1" offset="1"/>
  </linearGradient>
  <radialGradient id="radialGradient882" cx="-74.104" cy="276.04" r="5.6027" gradientTransform="matrix(1.0755,-1.109,1.1794,1.1438,-318.67,-120.38)" gradientUnits="userSpaceOnUse">
   <stop stop-color="#7b88a1" offset="0"/>
   <stop stop-color="#434c5e" offset="1"/>
  </radialGradient>
  <linearGradient id="linearGradient944" x1="4.7429" x2="7.7117" y1="3.1631" y2="8.182" gradientUnits="userSpaceOnUse">
   <stop stop-color="#4c566a" offset="0"/>
   <stop stop-color="#434c5e" offset="1"/>
  </linearGradient>
  <linearGradient id="linearGradient1208" x1="8.3844" x2="8.4076" y1="2.1658" y2="1.8913" gradientUnits="userSpaceOnUse">
   <stop stop-color="#7b88a1" offset="0"/>
   <stop stop-color="#434c5e" offset="1"/>
  </linearGradient>
 </defs>
 <g transform="matrix(.5042 0 0 .50602 -.063334 -133.27)" fill="#a6aebf" stroke="#7b88a1" stroke-linecap="round" stroke-linejoin="round" stroke-width=".10585">
  <rect x="8.2992" y="266.98" width=".44856" height="1.3914"/>
  <rect x="8.2992" y="270.08" width=".44856" height="1.3914" ry=".14241"/>
  <rect x="8.2992" y="273.35" width=".44856" height="1.3914" ry=".14241"/>
  <rect x="20.014" y="263.42" width="2.887" height=".37543"/>
 </g>
 <rect x="4.2848" y=".21807" width="8.4514" height="16.615" rx="1.0945" ry="1.1072" fill="#a6aebf" stroke="#7b88a1" stroke-linecap="round" stroke-linejoin="round" stroke-width=".2057"/>
 <rect x="4.4062" y=".34964" width="8.2084" height="16.346" rx=".97316" ry=".97308" fill="#2e3440"/>
 <rect x="7.659" y="1.8373" width="1.5947" height=".3211" ry=".16055" fill="url(#linearGradient1208)"/>
 <rect x="4.7429" y="3.1631" width="7.4269" height="11.1" ry="0" fill="url(#linearGradient944)"/>
 <g transform="matrix(.1394 0 0 .13991 18.673 -22.375)" fill="url(#a)" stroke-width="1.9798">
  <circle cx="-73.293" cy="269.83" r="5.6027" fill="url(#radialGradient882)"/>
 </g>
 <rect x="8.1913" y="15.136" width=".53022" height=".47893" ry=".11717" fill="#2e3440" fill-opacity=".98333" stroke="#a6aebf" stroke-linecap="round" stroke-linejoin="round" stroke-width=".13277"/>
 <ellipse cx="6.6103" cy="1.9993" rx=".21017" ry=".21093" fill="url(#d)"/>
 <ellipse cx="6.6072" cy="1.9993" rx=".1011" ry=".10146" fill="#5e81ac"/>
</svg>
