<svg width="64" height="64" version="1.1" viewBox="0 0 16.933 16.933" xmlns="http://www.w3.org/2000/svg">
 <defs>
  <linearGradient id="b" x1="-23.585" x2="28.501" y1="124.84" y2="170.24" gradientTransform="matrix(.13264 0 0 .13275 6.3608 -14.854)" gradientUnits="userSpaceOnUse">
   <stop stop-color="#4c566a" offset="0"/>
   <stop stop-color="#434c5e" offset="1"/>
  </linearGradient>
  <radialGradient id="a" cx="-74.104" cy="276.04" r="5.6027" gradientTransform="matrix(1.0755,-1.109,1.1794,1.1438,-318.67,-120.38)" gradientUnits="userSpaceOnUse">
   <stop stop-color="#6a6a6a" offset="0"/>
   <stop stop-color="#0d0d0d" offset="1"/>
  </radialGradient>
  <radialGradient id="radialGradient864" cx="-74.104" cy="276.04" r="5.6027" gradientTransform="matrix(1.0755,-1.109,1.1794,1.1438,-318.67,-120.38)" gradientUnits="userSpaceOnUse">
   <stop stop-color="#7b88a1" offset="0"/>
   <stop stop-color="#434c5e" offset="1"/>
  </radialGradient>
 </defs>
 <g transform="matrix(.52631 0 0 .52674 -.45014 -138.77)" fill="#2e3440" stroke-width="1.9755">
  <rect x="26.297" y="263.44" width="1.3781" height=".20599" fill-opacity=".99653"/>
  <rect x="29.189" y="267.78" width=".43449" height=".44797"/>
  <rect x="29.189" y="269.29" width=".43449" height="1.0116" ry=".10353"/>
  <rect x="29.189" y="270.93" width=".43449" height="1.0116" ry=".10353"/>
 </g>
 <rect x="1.8965" y=".1208" width="13.131" height="16.703" ry=".75766" fill="#a6aebf" fill-opacity=".98333" stroke="#7b88a1" stroke-linecap="round" stroke-linejoin="round" stroke-width=".052916"/>
 <rect x="2.0291" y=".28936" width="12.866" height="16.366" ry=".74239" fill="#2e3440" stroke-width="1.0402"/>
 <rect x="3.2325" y="1.7168" width="10.459" height="13.511" ry="0" fill="url(#b)" stroke-width="1.0402"/>
 <g transform="matrix(.067015 0 0 .06707 -16.389 2.6913)">
  <g transform="matrix(1.0342,0,0,1.0342,446.63,-80.455)" fill="url(#a)" stroke-width="1.9755">
   <circle cx="-73.293" cy="269.83" r="5.6027" fill="url(#radialGradient864)"/>
  </g>
  <rect x="368.87" y="196.83" width="3.9336" height="3.5403" ry=".86614" fill="#434c5e" fill-opacity=".98333" stroke="#b4b4b5" stroke-linecap="round" stroke-linejoin="round" stroke-width=".98113"/>
 </g>
</svg>
