<svg width="64" height="64" version="1.1" xmlns="http://www.w3.org/2000/svg">
 <defs>
  <linearGradient id="k" x1="33" x2="24" y1="21" y2="12" gradientTransform="matrix(1.2857,0,0,1.2857,377.71,494.8)" gradientUnits="userSpaceOnUse">
   <stop stop-color="#d08770" offset="0"/>
   <stop stop-color="#ebcb8b" offset="1"/>
  </linearGradient>
  <filter id="d-3" x="-.01448" y="-.017314" width="1.029" height="1.0346" color-interpolation-filters="sRGB">
   <feGaussianBlur stdDeviation=".74992302"/>
  </filter>
  <radialGradient id="c-6" cx="199.22" cy="60.978" r="62.148" gradientTransform="matrix(.6416 -1.9284e-8 4.8966e-8 1.7428 -95.818 -78.974)" gradientUnits="userSpaceOnUse">
   <stop stop-color="#eceff4" offset="0"/>
   <stop stop-color="#cbccce" stop-opacity="0" offset="1"/>
  </radialGradient>
  <linearGradient id="j-5" x1="23.844" x2="23.816" y1="17.574" y2="85.151" gradientTransform="matrix(.48966 0 0 .48209 -.95621 -1.3862)" gradientUnits="userSpaceOnUse">
   <stop stop-color="#88c0d0" offset="0"/>
   <stop stop-color="#5e81ac" offset="1"/>
  </linearGradient>
  <filter id="h-3" x="-.080467" y="-.24546" width="1.1609" height="1.4909" color-interpolation-filters="sRGB">
   <feGaussianBlur stdDeviation="1.4789442"/>
  </filter>
  <linearGradient id="e-6" x1="174.79" x2="174.86" y1="109.47" y2="118.12" gradientTransform="matrix(.48966 0 0 .48209 -55.544 -2.0968)" gradientUnits="userSpaceOnUse">
   <stop stop-color="#909090" offset="0"/>
   <stop stop-color="#727272" stop-opacity="0" offset="1"/>
  </linearGradient>
  <radialGradient id="f-9" cx="178.79" cy="120.7" r="22.055" gradientTransform="matrix(1.8896 -1.1088e-7 0 .066914 -305.84 48.017)" gradientUnits="userSpaceOnUse">
   <stop stop-color="#a6aebf" offset="0"/>
   <stop stop-color="#eceff4" offset="1"/>
  </radialGradient>
  <filter id="g-2" x="-.024992" y="-.504" width="1.05" height="2.008" color-interpolation-filters="sRGB">
   <feGaussianBlur stdDeviation=".32830532"/>
  </filter>
  <linearGradient id="i-7" x1="183.06" x2="183.06" y1="129.42" y2="127.06" gradientTransform="matrix(.48966 0 0 .48209 -55.544 -2.0968)" gradientUnits="userSpaceOnUse">
   <stop stop-color="#a6aebf" offset="0"/>
   <stop stop-color="#636363" stop-opacity="0" offset="1"/>
  </linearGradient>
 </defs>
 <g transform="translate(-90.794 -13.394)">
  <rect transform="matrix(.48966 0 0 .48209 89.837 12.44)" x="5.1564" y="8.7788" width="124.3" height="103.95" rx="5.6617" fill="#2e3440" filter="url(#d-3)" opacity=".887" stroke-width="2.0582"/>
  <g transform="translate(90.793 13.826)">
   <rect x="1.5687" y="2.846" width="60.865" height="50.113" rx="2.7723" fill="#eceff4"/>
   <rect x="1.5687" y="2.846" width="60.865" height="50.113" rx="2.7723" fill="url(#c-6)"/>
   <path d="m4.3409 2.8456c-1.5359 0-2.7725 1.2176-2.7725 2.7296v36.477h60.865v-36.477c0-1.5121-1.2367-2.7296-2.7725-2.7296z" fill="#080808"/>
   <path d="m4.0961 4.5691h55.572v35.351h-55.572z" fill="url(#j-5)"/>
   <path d="m1.5684 49.72v0.50938c0 1.5121 1.2367 2.7296 2.7725 2.7296h55.317c1.5359 0 2.7725-1.2176 2.7725-2.7296v-0.50938c0 1.5121-1.2367 2.7296-2.7725 2.7296h-55.317c-1.5359 0-2.7725-1.2176-2.7725-2.7296z" fill="#a6aebf"/>
  </g>
  <path transform="matrix(.48966 0 0 .48209 35.249 11.729)" d="m194.34 114.95c-0.0882 3.6995-0.94643 7.8217 4.9506 11.334 4.7067 2.9258-2.6114 3.1267-4.4295 3.1267h-32.145c-1.8181 0-9.1362-0.20092-4.4295-3.1267 5.8971-3.5127 5.0389-7.6349 4.9506-11.334z" filter="url(#h-3)" stroke-width="2.0582"/>
  <g transform="translate(90.793 13.826)">
   <path d="m39.617 52.606c-0.04319 1.7835-0.46343 3.7708 2.4241 5.464 2.3047 1.4105-1.2787 1.5074-2.1689 1.5074-5.1375 0.22307-10.362 0.3675-15.74 0-0.89025 0-4.4736-0.09686-2.1689-1.5074 2.8876-1.6934 2.4673-3.6807 2.4241-5.464z" fill="#a6aebf"/>
   <path d="m39.617 52.606c-0.04319 1.7835-0.46343 3.7708 2.4241 5.464 2.3047 1.4105-1.2787 1.5074-2.1689 1.5074h-15.74c-0.89025 0-4.4736-0.09686-2.1689-1.5074 2.8876-1.6934 2.4673-3.6807 2.4241-5.464z" fill="url(#e-6)"/>
   <path d="m39.617 52.606c-0.04319 1.7835-0.46343 3.7708 2.4241 5.464 2.3047 1.4105-1.2787 1.5074-2.1689 1.5074h-15.74c-0.89025 0-4.4736-0.09686-2.1689-1.5074 2.8876-1.6934 2.4673-3.6807 2.4241-5.464z" fill="url(#f-9)"/>
  </g>
  <ellipse transform="matrix(.48966 0 0 .48209 35.249 11.729)" cx="178.29" cy="127.15" rx="15.764" ry=".78168" fill="#e5e9f0" filter="url(#g-2)" opacity=".887" stroke-width="2.0582"/>
  <g transform="translate(90.793 13.826)">
   <path d="m39.617 52.606c-0.04319 1.7835-0.46343 3.7708 2.4241 5.464 2.3047 1.4105-1.2787 1.5074-2.1689 1.5074h-15.74c-0.89025 0-4.4736-0.09686-2.1689-1.5074 2.8876-1.6934 2.4673-3.6807 2.4241-5.464z" fill="url(#i-7)"/>
   <path d="m4.0961 4.5686v35.352h55.572v-35.352zm0.27065 0.24481h55.077v34.885h-55.077z" fill-opacity=".21198"/>
   <path d="m4.3409 2.9658c-1.5359 0-2.7725 1.2176-2.7725 2.7296v36.356h60.865v-36.356c0-1.5121-1.2366-2.7296-2.7725-2.7296zm-0.24483 2.5677h55.572v34.387h-55.572z" fill="#2e3440"/>
  </g>
  <path d="m121.11 62.898c0.27028 0.03213 0.57395 0.20642 0.82809 0.23719 0.2555 0.03211 0.33457-0.1732 0.33457-0.1732s0.28752-0.06398 0.58979-0.07135c0.30257-0.0084 0.58898 0.06264 0.58898 0.06264s0.0555 0.12662 0.15923 0.18191c0.10368 0.05636 0.3269 0.06399 0.46997-0.08606 0.14335-0.15113 0.5258-0.3415 0.74055-0.46049 0.21611-0.11927 0.17645-0.30117 0.0408-0.35646-0.13568-0.05527-0.24675-0.14242-0.23827-0.30962 7e-3 -0.16583-0.11982-0.27639-0.11982-0.27639s0.11134-0.3649 8e-3 -0.66717c-0.10369-0.3009-0.44564-0.78481-0.70853-1.1486-0.26289-0.3649-0.0397-0.78617-0.27903-1.3245-0.23938-0.53918-0.86008-0.50731-1.1946-0.2775-0.33457 0.22983-0.23199 0.79979-0.21586 1.0702 0.0161 0.26904 7e-3 0.46156-0.0235 0.53075-0.0309 0.07025-0.24675 0.32541-0.3901 0.53918-0.14306 0.21486-0.24676 0.65846-0.35153 0.84146-0.1026 0.18191-0.0309 0.34775-0.0309 0.34775s-0.0717 0.0245-0.1283 0.14379c-0.0555 0.11791-0.16661 0.17427-0.36659 0.21268-0.19861 0.04057-0.19861 0.16802-0.15073 0.31071 0.0481 0.14242 0 0.22221-0.0555 0.40412-0.0555 0.18188 0.22241 0.23715 0.49378 0.26902zm2.8095-0.82976c0.14197 0.06181 0.34605-0.02424 0.40815-0.08606 0.0618-0.06154 0.1056-0.15304 0.1056-0.15304s0.0621 0.03077 0.0558 0.12852c-7e-3 0.09913 0.0427 0.24046 0.13568 0.28948 0.093 0.04875 0.23499 0.11681 0.16141 0.18489-0.075 0.06808-0.48968 0.23419-0.6136 0.36381-0.12283 0.1288-0.28423 0.23419-0.38245 0.20314-0.0993-0.03077-0.18602-0.16583-0.14333-0.36354 0.044-0.19688 0.0812-0.41283 0.075-0.53619-7e-3 -0.12336-0.0309-0.28946 0-0.31398 0.0309-0.02424 0.0802-0.01253 0.0802-0.01253s-0.0246 0.23396 0.11763 0.29549zm-0.92136-3.3326c0.13677 0 0.24703 0.13506 0.24703 0.30117 0 0.11791-0.0555 0.22004-0.13679 0.26906-0.0205-0.0084-0.0419-0.01797-0.0654-0.02779 0.0493-0.02423 0.0834-0.08604 0.0834-0.1574 0-0.0934-0.0577-0.17019-0.13021-0.17019-0.0706 0-0.12941 0.07678-0.12941 0.17019 0 0.03406 8e-3 0.06808 0.0224 0.09477-0.0427-0.01717-0.0812-0.03186-0.11216-0.04356-0.0161-0.04058-0.0257-0.08633-0.0257-0.13506 2e-5 -0.16611 0.10998-0.30119 0.24678-0.30119zm-0.33868 0.51904c0.0673 0.01171 0.25221 0.0915 0.32062 0.116 0.0684 0.02342 0.14416 0.06698 0.13678 0.11056-8e-3 0.04492-0.0438 0.04492-0.13678 0.1013-0.0919 0.05529-0.29271 0.17864-0.357 0.18708-0.064 0.0084-0.1004-0.02751-0.16881-0.07135-0.0684-0.04467-0.19667-0.14896-0.16441-0.20423 0 0 0.1004-0.07652 0.14417-0.11573 0.0438-0.04058 0.15703-0.13616 0.22543-0.12363zm-0.29491-0.4711c0.10778 0 0.1956 0.12771 0.1956 0.28511 0 0.0286-3e-3 0.05527-8e-3 0.08196-0.0268 0.0084-0.0536 0.02233-0.0793 0.04466-0.0126 0.01062-0.0244 0.02015-0.035 0.03077 0.0169-0.03186 0.0235-0.0776 0.0159-0.12554-0.0148-0.08496-0.0725-0.14786-0.12912-0.13942-0.0569 0.0095-0.0908 0.08742-0.0771 0.17348 0.015 0.08714 0.0717 0.15003 0.12939 0.1405 3e-3 -0.0011 6e-3 -0.0022 0.01-0.0033-0.0276 0.02669-0.0534 0.05011-0.0802 0.06917-0.078-0.03623-0.13568-0.1446-0.13568-0.27231 2e-5 -0.15848 0.0864-0.28511 0.19451-0.28511zm-0.60047 2.0603c0.11107-0.17427 0.18274-0.55525 0.2938-0.68187 0.11218-0.12635 0.19861-0.39567 0.15923-0.51467 0 0 0.23936 0.28511 0.40597 0.23827 0.16687-0.04794 0.54193-0.32542 0.59746-0.27775 0.0555 0.04792 0.53318 1.0936 0.58132 1.4266 0.0482 0.33277-0.032 0.58712-0.032 0.58712s-0.18273-0.04794-0.20627 0.06263c-0.0235 0.11164-0.0235 0.51604-0.0235 0.51604s-0.24703 0.3404-0.62948 0.39675c-0.38245 0.05529-0.57395 0.01498-0.57395 0.01498l-0.21475-0.24482s0.16689-0.0245 0.14335-0.19144c-0.0235-0.16583-0.50993-0.39568-0.59747-0.6021-0.0875-0.20642-0.0161-0.55525 0.0963-0.7298zm-0.94571 1.2488c0.0192-0.08169 0.26699-0.08169 0.3622-0.13914 0.0952-0.05746 0.11434-0.22248 0.19122-0.26604 0.0758-0.04467 0.21584 0.11383 0.27356 0.20313 0.0566 0.08714 0.27358 0.46812 0.36221 0.56288 0.0897 0.09558 0.17208 0.22221 0.14636 0.33604-0.0243 0.11382-0.15921 0.19688-0.15921 0.19688-0.12063 0.03704-0.45712-0.10756-0.61003-0.17129-0.15291-0.06399-0.54194-0.08306-0.59199-0.13942-0.0514-0.05746 0.0246-0.18408 0.0448-0.30418 0.018-0.12144-0.0386-0.19688-0.0192-0.27884z" fill="#2e3440" stroke-width=".016232"/>
  <g transform="translate(-285.89 -485.73)">
   <path d="m408.57 512.8c-4.986 0-9 4.014-9 9s4.014 9 9 9 9-4.014 9-9-4.014-9-9-9zm0 1a8 8 0 0 1 8 8 8 8 0 0 1-8 8 8 8 0 0 1-8-8 8 8 0 0 1 8-8z" fill="#eceff4" fill-opacity=".45263" opacity=".85" stroke-width=".1"/>
   <path d="m408.57 512.8v1a8 8 0 0 1 8 8h1c0-4.986-4.014-9-9-9z" fill="url(#k)" opacity=".85" stroke-width=".1"/>
   <g transform="translate(-1.1e-5,-2.0001)">
    <rect x="405.62" y="520.8" width="5.9091" height="6" rx="2.9545" ry="3" fill="#2e3440" opacity=".8" stroke-width=".1"/>
    <path d="m410.34 523.8-2.9545-1.8v3.6z" fill="#eceff4" fill-rule="evenodd"/>
   </g>
  </g>
 </g>
</svg>
