<svg version="1.1" viewBox="0 0 16 16" xmlns="http://www.w3.org/2000/svg">
 <defs>
  <style type="text/css">.ColorScheme-Text {
        color:#2e3440;
      }</style>
 </defs>
 <path class="ColorScheme-Text" d="m4 1c-1.662 0-3 1.338-3 3v8c0 1.662 1.338 3 3 3h8c1.662 0 3-1.338 3-3v-8c0-1.662-1.338-3-3-3h-8zm0 1h8c1.108 0 2 0.892 2 2v8c0 1.108-0.892 2-2 2h-8c-1.108 0-2-0.892-2-2v-8c0-1.108 0.892-2 2-2z" fill="currentColor"/>
 <g transform="matrix(.9213 0 0 .9213 -1.8832 -2.1184)">
  <g transform="translate(3,3)">
   <path class="ColorScheme-Text" d="M 6,5 10.4616,7.9827 6,10.9654 Z" fill="currentColor"/>
  </g>
 </g>
</svg>
