<svg viewBox="0 0 16 16" xmlns="http://www.w3.org/2000/svg">
 <defs>
  <style type="text/css">.ColorScheme-Text {
        color:#2e3440;
      }</style>
 </defs>
 <path class="ColorScheme-Text" d="m8 0.5c-4.1227 0-7.5 3.5323-7.5 7.8442 0 3.1836 1.8258 5.9289 4.4065 7.1558l0.36415-0.84045c-2.2719-1.0801-3.8883-3.5008-3.8883-6.3153 0-3.8086 2.9762-6.9214 6.6176-6.9214s6.6176 3.1128 6.6176 6.9214c0 2.7261-1.5336 5.1055-3.7237 6.2292l0.38865 0.82764c2.486-1.2755 4.2174-3.9695 4.2174-7.0569 0-4.3119-3.3773-7.8442-7.5-7.8442zm0 2.3071c-2.9272 0-5.2941 2.4755-5.2941 5.5371 0 2.2608 1.2996 4.1778 3.1285 5.0336l0.36064-0.84045c-1.5238-0.71297-2.6068-2.3014-2.6068-4.1931 0-2.5674 1.957-4.6143 4.4118-4.6143 2.4547 0 4.4118 2.0469 4.4118 4.6143 0 1.8051-1.0048 3.3983-2.4877 4.1528l0.38691 0.82947c1.7816-0.90649 2.9832-2.8195 2.9832-4.9823 0-3.0616-2.3669-5.5371-5.2941-5.5371zm0 2.3071c-1.6964 0-3.0882 1.4557-3.0882 3.23 0 1.3257 0.72245 2.4724 1.812 2.9608l0.34664-0.84778c-0.76328-0.34213-1.2763-1.1318-1.2763-2.113 0-1.2709 0.99073-2.3071 2.2059-2.3071 1.2151 0 2.2059 1.0362 2.2059 2.3071 0 0.92791-0.5115 1.6884-1.257 2.0782l0.39566 0.82581c1.0191-0.53292 1.7437-1.6173 1.7437-2.9041 0-1.7743-1.3918-3.23-3.0882-3.23zm0 2.3071a0.88229 0.92278 0 0 0-0.88235 0.92285 0.88229 0.92278 0 0 0 0.88235 0.92285 0.88229 0.92278 0 0 0 0.88235-0.92285 0.88229 0.92278 0 0 0-0.88235-0.92285z" fill="currentColor"/>
</svg>
