<svg viewBox="0 0 16 16" xmlns="http://www.w3.org/2000/svg">
 <style type="text/css">.ColorScheme-Text {
            color:#2e3440;
        }</style>
 <g class="ColorScheme-Text" fill="currentColor">
  <path d="m8 8c-0.55469 0-1 0.44531-1 1v5h2v-5c0-0.55469-0.44531-1-1-1z"/>
  <path d="m8 2c-3.8789 0-7 3.1211-7 7 0 1.9375 0.78125 3.6914 2.0469 4.9531l0.70703-0.70703c-1.0859-1.0859-1.7539-2.5859-1.7539-4.2461 0-3.3242 2.6758-6 6-6s6 2.6758 6 6c0 1.6602-0.66797 3.1602-1.7539 4.2461l0.70703 0.70703c1.2656-1.2617 2.0469-3.0156 2.0469-4.9531 0-3.8789-3.1211-7-7-7zm0 3c-2.2148 0-4 1.7852-4 4 0 1.1094 0.44531 2.1055 1.1719 2.8281l0.70312-0.70312c-0.53906-0.54297-0.875-1.293-0.875-2.125 0-1.6602 1.3398-3 3-3s3 1.3398 3 3c0 0.83203-0.33594 1.582-0.875 2.125l0.70312 0.70312c0.72656-0.72266 1.1719-1.7188 1.1719-2.8281 0-2.2148-1.7852-4-4-4z"/>
 </g>
</svg>
