<svg width="16" height="16" version="1.1" xmlns="http://www.w3.org/2000/svg">
 <defs>
  <style type="text/css">.ColorScheme-Text { color:#2e3440; } .ColorScheme-Highlight { color:#5294e2; }</style>
 </defs>
 <g class="ColorScheme-Text" transform="translate(-501 156.01)" fill="currentColor">
  <path d="M502.344-156.003a.5.5 0 0 0-.313.656l1.97 5.875-1 6.406v3.063h12v-3.062l-1-6.438 1.718-5.875a.5.5 0 0 0-.469-.625H502.5a.5.5 0 0 0-.094 0 .5.5 0 0 0-.062 0zm.844 1h11.406l-1.469 5h-8.281l-1.656-5zm1.75 6h8.125l.937 6h-10l.938-6zm-.938 7h1v1h-1v-1z"/>
  <path d="m512.47-145.85-7.188 1.812v0.032h7.438l-0.25-1.844z"/>
  <path d="m505.81-148-0.375 2.875 6.906-1.75-0.156-1.125zm-1.25-6 1 3h6.812l0.875-3h-8.687z"/>
 </g>
</svg>
