<svg width="64" height="64" version="1.1" viewBox="0 0 16.933 16.933" xmlns="http://www.w3.org/2000/svg">
 <defs>
  <filter id="filter1178" x="-.047999" y="-.047999" width="1.096" height="1.096" color-interpolation-filters="sRGB">
   <feGaussianBlur stdDeviation="0.30691668"/>
  </filter>
  <filter id="filter20745" x="-.088262" y="-.088262" width="1.1765" height="1.1765" color-interpolation-filters="sRGB">
   <feGaussianBlur stdDeviation="0.38080906"/>
  </filter>
 </defs>
 <g stroke-linecap="round" stroke-linejoin="round">
  <rect transform="matrix(.99138 0 0 1 .072989 .0019055)" x=".79375" y=".90545" width="15.346" height="15.346" rx="3.0526" ry="3.0526" fill="#000000" filter="url(#filter1178)" opacity=".15" stroke-width="1.2489" style="mix-blend-mode:normal"/>
  <rect x=".92604" y=".92604" width="15.081" height="15.081" rx="3" ry="3" fill="#eceff4" stroke-width="1.2274"/>
  <rect x=".01215" y=".0060174" width="16.924" height="16.927" fill="none" opacity=".15" stroke-width="1.052"/>
 </g>
 <path d="m8.6181 3.0112s-4.7972-0.54781-5.7435 5.3462c0 0 0.15164 5.1965 5.5233 5.6745 0 0 4.6951 0.12439 5.6644-5.4157-0.285-5.306-5.4442-5.605-5.4442-5.605z" fill="#eceff4"/>
 <path d="m8.6734 2.7411c-3.2681 1e-7 -5.9277 2.6579-5.9277 5.926s2.6596 5.9277 5.9277 5.9277 5.926-2.6596 5.926-5.9277-2.6579-5.926-5.926-5.926zm-0.43946 0.89735v4.5901h-4.5909c0.20922-2.4423 2.1486-4.3807 4.5909-4.5901zm0.87805 0c2.4426 0.20909 4.3825 2.1476 4.5918 4.5901h-4.5918zm-5.469 5.4681h4.5909v4.5909c-2.4421-0.20948-4.3814-2.1488-4.5909-4.5909zm5.469 0h4.5913c-0.20951 2.4423-2.149 4.3817-4.5913 4.5909z" color="#000000" fill="#2e3440" fill-rule="evenodd" filter="url(#filter20745)" opacity=".43401" stroke="#2e3440" stroke-width=".26458"/>
 <path d="m8.475 2.5427c-3.2681 1e-7 -5.9277 2.6579-5.9277 5.926s2.6596 5.9277 5.9277 5.9277 5.926-2.6596 5.926-5.9277-2.6579-5.926-5.926-5.926zm-0.43946 0.89735v4.5901h-4.5909c0.20922-2.4423 2.1486-4.3807 4.5909-4.5901zm0.87805 0c2.4426 0.20909 4.3825 2.1476 4.5918 4.5901h-4.5918zm-5.469 5.4681h4.5909v4.5909c-2.4421-0.20948-4.3814-2.1488-4.5909-4.5909zm5.469 0h4.5913c-0.20951 2.4423-2.149 4.3817-4.5913 4.5909z" color="#000000" fill="#8c7e75" fill-rule="evenodd" stroke="#8c7e75" stroke-width=".26458"/>
</svg>
