<svg width="64" height="64" version="1.1" viewBox="0 0 16.933 16.933" xmlns="http://www.w3.org/2000/svg">
 <defs>
  <linearGradient id="a" x1="11.856" x2="4.3141" y1="16.792" y2="1.6516" gradientTransform="matrix(1.0178 0 0 1.0178 -.15085 -.14268)" gradientUnits="userSpaceOnUse">
   <stop stop-color="#5e81ac" offset="0"/>
   <stop stop-color="#88c0d0" offset="1"/>
  </linearGradient>
  <filter id="filter1178" x="-.047999" y="-.047999" width="1.096" height="1.096" color-interpolation-filters="sRGB">
   <feGaussianBlur stdDeviation="0.30691668"/>
  </filter>
  <filter id="filter926" x="-.026849" y="-.027153" width="1.0537" height="1.0543" color-interpolation-filters="sRGB">
   <feGaussianBlur stdDeviation="0.11518128"/>
  </filter>
 </defs>
 <g transform="translate(-.00025546 -.11386)">
  <rect transform="matrix(.99138 0 0 1 .072989 .0019055)" x=".79375" y=".90545" width="15.346" height="15.346" rx="3.0526" ry="3.0526" filter="url(#filter1178)" opacity=".15" stroke-linecap="round" stroke-linejoin="round" stroke-width="1.2489" style="mix-blend-mode:normal"/>
 </g>
 <rect x=".926" y=".92602" width="15.081" height="15.081" rx="3.0536" ry="3.0535" fill="url(#a)" stroke-width="1.0178"/>
 <path d="m4.187 13.539c-0.50219-0.048534-0.78071-0.24682-0.85141-0.60616-0.10929-0.55549 0.31406-2.1475 0.99851-3.755 1.1532-2.7083 2.706-5.0658 3.727-5.6584 0.23963-0.13907 0.53536-0.18045 0.77344-0.10821 0.5133 0.15574 1.1586 0.77542 1.8415 1.7682 1.5502 2.2539 2.8141 5.5806 2.9314 7.7151 0.01353 0.24646 0.0114 0.26486-0.03621 0.31247-0.05782 0.05782-0.09584 0.06313-0.15107 0.02112-0.02131-0.01621-0.20229-0.33724-0.40218-0.71338-1.2277-2.3103-2.4007-4.3234-3.1948-5.483-0.49216-0.71869-0.94154-1.2439-1.1511-1.3453l-0.10303-0.049878-0.12421 0.057264c-0.43828 0.20206-1.2132 1.2716-2.0114 2.7763-0.6358 1.1985-1.138 2.4693-1.1151 2.8218 0.0066 0.10092 0.013869 0.11333 0.077975 0.13212 0.089353 0.02618 0.49405 0.0057 0.80182-0.04065 0.94552-0.14228 2.7275-0.60417 4.7003-1.2183 0.43277-0.13473 0.45824-0.1399 0.51293-0.10406 0.08413 0.05513 0.07516 0.14414-0.02396 0.23762-0.1848 0.17429-1.0844 0.74733-1.8877 1.2024-1.7363 0.98373-3.2716 1.6461-4.5676 1.9707-0.3822 0.09571-0.41791 0.09894-0.74505 0.06732z" fill="#2e3440" filter="url(#filter926)" opacity=".5" stroke-width=".023583"/>
 <path d="m4.187 13.539c-0.50219-0.048534-0.78071-0.24682-0.85141-0.60616-0.10929-0.55549 0.31406-2.1475 0.99851-3.755 1.1532-2.7083 2.706-5.0658 3.727-5.6584 0.23963-0.13907 0.53536-0.18045 0.77344-0.10821 0.5133 0.15574 1.1586 0.77542 1.8415 1.7682 1.5502 2.2539 2.8141 5.5806 2.9314 7.7151 0.01353 0.24646 0.0114 0.26486-0.03621 0.31247-0.05782 0.05782-0.09584 0.06313-0.15107 0.02112-0.02131-0.01621-0.20229-0.33724-0.40218-0.71338-1.2277-2.3103-2.4007-4.3234-3.1948-5.483-0.49216-0.71869-0.94154-1.2439-1.1511-1.3453l-0.10303-0.049878-0.12421 0.057264c-0.43828 0.20206-1.2132 1.2716-2.0114 2.7763-0.6358 1.1985-1.138 2.4693-1.1151 2.8218 0.0066 0.10092 0.013869 0.11333 0.077975 0.13212 0.089353 0.02618 0.49405 0.0057 0.80182-0.04065 0.94552-0.14228 2.7275-0.60417 4.7003-1.2183 0.43277-0.13473 0.45824-0.1399 0.51293-0.10406 0.08413 0.05513 0.07516 0.14414-0.02396 0.23762-0.1848 0.17429-1.0844 0.74733-1.8877 1.2024-1.7363 0.98373-3.2716 1.6461-4.5676 1.9707-0.3822 0.09571-0.41791 0.09894-0.74505 0.06732z" fill="#eceff4" stroke-width=".023583"/>
</svg>
