<?xml version="1.0" encoding="UTF-8" standalone="no"?>
<svg
   width="64"
   height="64"
   version="1.1"
   viewBox="0 0 16.933 16.933"
   id="svg32"
   xmlns="http://www.w3.org/2000/svg"
   xmlns:svg="http://www.w3.org/2000/svg">
  <defs
     id="defs18">
    <filter
       id="filter1178"
       x="-0.047999482"
       y="-0.047999482"
       width="1.095999"
       height="1.095999"
       color-interpolation-filters="sRGB">
      <feGaussianBlur
         stdDeviation="0.30691668"
         id="feGaussianBlur2" />
    </filter>
    <linearGradient
       id="linearGradient1340"
       x1="8.3017"
       x2="8.3017"
       y1="16.007"
       y2=".92604"
       gradientUnits="userSpaceOnUse"
       gradientTransform="translate(0.30524084)">
      <stop
         stop-color="#d08770"
         offset="0"
         id="stop5" />
      <stop
         stop-color="#ebcb8b"
         offset="1"
         id="stop7" />
    </linearGradient>
    <linearGradient
       id="linearGradient1205"
       x1="9.3177"
       x2="9.3177"
       y1="12.275"
       y2="4.9902"
       gradientTransform="translate(-.28625 .14153)"
       gradientUnits="userSpaceOnUse">
      <stop
         stop-color="#d8dee9"
         offset="0"
         id="stop10" />
      <stop
         stop-color="#eceff4"
         offset="1"
         id="stop12" />
    </linearGradient>
    <filter
       id="filter1593"
       x="-0.2303611"
       y="-0.23037451"
       width="1.4607222"
       height="1.4607387"
       color-interpolation-filters="sRGB">
      <feGaussianBlur
         stdDeviation="0.3296355"
         id="feGaussianBlur15" />
    </filter>
    <filter
       style="color-interpolation-filters:sRGB"
       id="filter2527"
       x="-0.077097419"
       y="-0.16524016"
       width="1.1541948"
       height="1.3304803">
      <feGaussianBlur
         stdDeviation="0.33604496"
         id="feGaussianBlur2529" />
    </filter>
  </defs>
  <g
     stroke-linecap="round"
     stroke-linejoin="round"
     id="g30">
    <rect
       transform="matrix(.99138 0 0 1 .072989 .0019055)"
       x=".79375"
       y=".90545"
       width="15.346"
       height="15.346"
       rx="3.0526"
       ry="3.0526"
       fill="#000000"
       filter="url(#filter1178)"
       opacity=".15"
       stroke-width="1.2489"
       style="mix-blend-mode:normal"
       id="rect20" />
    <rect
       x="1.2312808"
       y="0.92603999"
       width="15.081"
       height="15.081"
       rx="3"
       ry="3"
       fill="url(#linearGradient1340)"
       stroke-width="1.2274"
       id="rect22"
       style="fill:url(#linearGradient1340)" />
    <rect
       x=".01215"
       y=".0060174"
       width="16.924"
       height="16.927"
       fill="none"
       opacity=".15"
       stroke-width="1.052"
       id="rect24" />
    <path
       style="fill:#2e3440;fill-opacity:1;stroke-width:0.0240443;filter:url(#filter2527);opacity:0.432"
       d="m 3.5834021,11.402468 c -0.039687,-0.01058 -0.042068,-0.146047 -0.042068,-2.423006 0,-2.1774781 0.0037,-2.4137464 0.038099,-2.4267107 0.049476,-0.01905 0.5238647,-0.01905 0.5730762,0 0.034395,0.013229 0.038099,0.2492326 0.038099,2.4256517 v 2.411101 l -0.053974,0.01429 c -0.061382,0.01667 -0.4889404,0.01535 -0.5529683,-0.0013 z m 1.3945913,-0.0095 c -0.039687,-0.02302 -0.042068,-0.16298 -0.042068,-2.401575 0,-1.3075452 0.00661,-2.3944322 0.014552,-2.4153338 0.01217,-0.031749 0.061117,-0.038099 0.2902422,-0.038099 0.1516032,0 0.2963274,0.011377 0.3219915,0.025135 0.045507,0.024341 0.046566,0.076463 0.046566,2.4155978 0,2.338871 -0.00106,2.391257 -0.046566,2.415598 -0.059795,0.03175 -0.5291562,0.03096 -0.5847176,-0.0013 z m 1.4064973,0.0013 -0.054239,-0.02196 5.292e-4,-2.39258 c 7.937e-4,-2.3322557 0.00185,-2.3931087 0.04683,-2.4169207 0.049212,-0.026458 0.5246584,-0.034395 0.5881572,-0.010054 0.034395,0.013229 0.038099,0.2492326 0.038099,2.4256517 v 2.411101 l -0.054239,0.01429 c -0.082813,0.02223 -0.5037567,0.01508 -0.5651388,-0.0095 z m 1.4067619,-0.0013 c -0.03969,-0.02302 -0.04207,-0.164038 -0.04207,-2.424858 V 6.5678322 l 0.05424,-0.014552 c 0.101862,-0.027516 0.559847,-0.016668 0.590009,0.013758 0.02222,0.02196 0.0291,0.5910675 0.0291,2.4155988 0,2.334902 -0.0011,2.387288 -0.04656,2.411629 -0.0598,0.03175 -0.529157,0.03096 -0.584718,-0.0013 z m 1.379775,0.0045 c -0.04657,-0.02963 -0.0463,-0.600592 5.29e-4,-0.630489 0.01773,-0.01138 1.1088474,-0.01799 2.4245944,-0.01482 l 2.39258,0.0058 0.0066,0.315377 c 0.0066,0.310879 0.0058,0.315906 -0.04815,0.330458 -0.08599,0.02302 -4.7393884,0.01693 -4.7761644,-0.0063 z m -0.01667,-1.4284569 c -0.0069,-0.0172 -0.0093,-0.160599 -0.0053,-0.318552 l 0.0066,-0.2870671 h 4.8330494 l 0.0066,0.3185521 0.0069,0.3185519 h -2.418244 c -1.9692554,0 -2.4198314,-0.0058 -2.4296214,-0.03148 z M 9.1390176,8.304815 c -0.004,-0.165362 -0.0037,-0.311409 7.94e-4,-0.324638 0.0053,-0.01508 0.8683454,-0.02355 2.4351774,-0.02355 h 2.427239 l -0.0069,0.318552 -0.0066,0.318816 -2.42089,0.0061 -2.4214194,0.0061 z m 0.03387,-1.1138743 c -0.03704,-0.023812 -0.04895,-0.594507 -0.01296,-0.6304896 0.01376,-0.013758 0.9551274,-0.020108 2.4256524,-0.016404 l 2.403163,0.00609 0.0066,0.3156417 c 0.0066,0.3106147 0.0058,0.3156417 -0.04815,0.3301935 -0.08334,0.022489 -4.7388594,0.017462 -4.7743124,-0.00529 z"
       id="path1985-3" />
    <path
       style="fill:#eceff4;fill-opacity:1;stroke-width:0.0240443;font-variation-settings:normal;opacity:1;vector-effect:none;stroke-linecap:butt;stroke-linejoin:miter;stroke-miterlimit:4;stroke-dasharray:none;stroke-dashoffset:0;stroke-opacity:1;-inkscape-stroke:none;stop-color:#000000;stop-opacity:1"
       d="m 3.5834022,11.402468 c -0.039687,-0.01058 -0.042068,-0.146047 -0.042068,-2.4230059 0,-2.1774781 0.0037,-2.4137464 0.038099,-2.4267107 0.049476,-0.01905 0.5238647,-0.01905 0.5730762,0 0.034395,0.013229 0.038099,0.2492326 0.038099,2.4256517 v 2.4111009 l -0.053974,0.01429 c -0.061382,0.01667 -0.4889404,0.01535 -0.5529683,-0.0013 z m 1.3945913,-0.0095 c -0.039687,-0.02302 -0.042068,-0.16298 -0.042068,-2.4015749 0,-1.3075452 0.00661,-2.3944322 0.014552,-2.4153338 0.01217,-0.031749 0.061117,-0.038099 0.2902422,-0.038099 0.1516032,0 0.2963274,0.011377 0.3219915,0.025135 0.045507,0.024341 0.046566,0.076463 0.046566,2.4155978 0,2.3388709 -0.00106,2.3912569 -0.046566,2.4155979 -0.059795,0.03175 -0.5291562,0.03096 -0.5847176,-0.0013 z m 1.4064972,0.0013 -0.054239,-0.02196 5.292e-4,-2.3925799 c 7.937e-4,-2.3322557 0.00185,-2.3931087 0.04683,-2.4169207 0.049212,-0.026458 0.5246584,-0.034395 0.5881572,-0.010054 0.034395,0.013229 0.038099,0.2492326 0.038099,2.4256517 v 2.4111009 l -0.054239,0.01429 c -0.082813,0.02223 -0.5037567,0.01508 -0.5651388,-0.0095 z m 1.4067619,-0.0013 c -0.03969,-0.02302 -0.04207,-0.164038 -0.04207,-2.4248579 V 6.5678323 l 0.05424,-0.014552 c 0.101862,-0.027516 0.5598471,-0.016668 0.5900091,0.013758 0.02222,0.02196 0.0291,0.5910675 0.0291,2.4155988 0,2.3349019 -0.0011,2.3872879 -0.04656,2.4116289 -0.0598,0.03175 -0.529157,0.03096 -0.584718,-0.0013 z m 1.379775,0.0045 c -0.04657,-0.02963 -0.0463,-0.600592 5.291e-4,-0.630489 0.01773,-0.01138 1.1088473,-0.01799 2.4245943,-0.01482 l 2.39258,0.0058 0.0066,0.315377 c 0.0066,0.310879 0.0058,0.315906 -0.04815,0.330458 -0.08599,0.02302 -4.7393883,0.01693 -4.7761643,-0.0063 z m -0.01667,-1.4284569 c -0.0069,-0.0172 -0.0093,-0.160599 -0.0053,-0.318552 l 0.0066,-0.287067 h 4.8330493 l 0.0066,0.318552 0.0069,0.3185519 h -2.418244 c -1.9692553,0 -2.4198313,-0.0058 -2.4296213,-0.03148 z m -0.01534,-1.664196 c -0.004,-0.165362 -0.0037,-0.311409 7.94e-4,-0.324638 0.0053,-0.01508 0.8683453,-0.02355 2.4351773,-0.02355 h 2.427239 l -0.0069,0.318552 -0.0066,0.318816 -2.42089,0.0061 -2.4214194,0.0061 z m 0.03387,-1.1138743 c -0.03704,-0.023812 -0.04895,-0.594507 -0.01296,-0.6304896 0.01376,-0.013758 0.9551273,-0.020108 2.4256523,-0.016404 l 2.403163,0.00609 0.0066,0.3156417 c 0.0066,0.3106147 0.0058,0.3156417 -0.04815,0.3301935 -0.08334,0.022489 -4.7388593,0.017462 -4.7743123,-0.00529 z"
       id="path1985" />
  </g>
</svg>
