<svg width="64" height="64" version="1.1" viewBox="0 0 16.933 16.933" xmlns="http://www.w3.org/2000/svg">
 <defs>
  <filter id="filter1178" x="-.047999" y="-.047999" width="1.096" height="1.096" color-interpolation-filters="sRGB">
   <feGaussianBlur stdDeviation="0.30691668"/>
  </filter>
  <linearGradient id="linearGradient1340" x1="8.3017" x2="8.3017" y1="16.007" y2=".92604" gradientTransform="translate(.30524)" gradientUnits="userSpaceOnUse">
   <stop stop-color="#d08770" offset="0"/>
   <stop stop-color="#ebcb8b" offset="1"/>
  </linearGradient>
  <filter id="filter2527" x="-.077097" y="-.16524" width="1.1542" height="1.3305" color-interpolation-filters="sRGB">
   <feGaussianBlur stdDeviation="0.33604496"/>
  </filter>
 </defs>
 <rect transform="matrix(.99138 0 0 1 .072989 .0019055)" x=".79375" y=".90545" width="15.346" height="15.346" rx="3.0526" ry="3.0526" filter="url(#filter1178)" opacity=".15" stroke-linecap="round" stroke-linejoin="round" stroke-width="1.2489" style="mix-blend-mode:normal"/>
 <rect x=".01215" y=".0060174" width="16.924" height="16.927" fill="none" opacity=".15" stroke-linecap="round" stroke-linejoin="round" stroke-width="1.052"/>
 <g transform="translate(-.30528 -4.0158e-5)">
  <rect x="1.2313" y=".92604" width="15.081" height="15.081" rx="3" ry="3" fill="url(#linearGradient1340)" stroke-linecap="round" stroke-linejoin="round" stroke-width="1.2274"/>
  <path d="m3.5834 11.402c-0.039687-0.01058-0.042068-0.14605-0.042068-2.423 0-2.1775 0.0037-2.4137 0.038099-2.4267 0.049476-0.01905 0.52386-0.01905 0.57308 0 0.034395 0.013229 0.038099 0.24923 0.038099 2.4257v2.4111l-0.053974 0.01429c-0.061382 0.01667-0.48894 0.01535-0.55297-0.0013zm1.3946-0.0095c-0.039687-0.02302-0.042068-0.16298-0.042068-2.4016 0-1.3075 0.00661-2.3944 0.014552-2.4153 0.01217-0.031749 0.061117-0.038099 0.29024-0.038099 0.1516 0 0.29633 0.011377 0.32199 0.025135 0.045507 0.024341 0.046566 0.076463 0.046566 2.4156 0 2.3389-0.00106 2.3913-0.046566 2.4156-0.059795 0.03175-0.52916 0.03096-0.58472-0.0013zm1.4065 0.0013-0.054239-0.02196 5.292e-4 -2.3926c7.937e-4 -2.3323 0.00185-2.3931 0.04683-2.4169 0.049212-0.026458 0.52466-0.034395 0.58816-0.010054 0.034395 0.013229 0.038099 0.24923 0.038099 2.4257v2.4111l-0.054239 0.01429c-0.082813 0.02223-0.50376 0.01508-0.56514-0.0095zm1.4068-0.0013c-0.03969-0.02302-0.04207-0.16404-0.04207-2.4249v-2.4003l0.05424-0.014552c0.10186-0.027516 0.55985-0.016668 0.59001 0.013758 0.02222 0.02196 0.0291 0.59107 0.0291 2.4156 0 2.3349-0.0011 2.3873-0.04656 2.4116-0.0598 0.03175-0.52916 0.03096-0.58472-0.0013zm1.3798 0.0045c-0.04657-0.02963-0.0463-0.60059 5.29e-4 -0.63049 0.01773-0.01138 1.1088-0.01799 2.4246-0.01482l2.3926 0.0058 0.0066 0.31538c0.0066 0.31088 0.0058 0.31591-0.04815 0.33046-0.08599 0.02302-4.7394 0.01693-4.7762-0.0063zm-0.01667-1.4285c-0.0069-0.0172-0.0093-0.1606-0.0053-0.31855l0.0066-0.28707h4.833l0.0066 0.31855 0.0069 0.31855h-2.4182c-1.9693 0-2.4198-0.0058-2.4296-0.03148zm-0.01534-1.6642c-4e-3 -0.16536-0.0037-0.31141 7.94e-4 -0.32464 0.0053-0.01508 0.86835-0.02355 2.4352-0.02355h2.4272l-0.0069 0.31855-0.0066 0.31882-4.8423 0.0122zm0.03387-1.1139c-0.03704-0.023812-0.04895-0.59451-0.01296-0.63049 0.01376-0.013758 0.95513-0.020108 2.4257-0.016404l2.4032 0.00609 0.0066 0.31564c0.0066 0.31061 0.0058 0.31564-0.04815 0.33019-0.08334 0.022489-4.7389 0.017462-4.7743-0.00529z" fill="#2e3440" filter="url(#filter2527)" opacity=".432" stroke-linecap="round" stroke-linejoin="round" stroke-width=".024044"/>
  <path d="m3.5834 11.402c-0.039687-0.01058-0.042068-0.14605-0.042068-2.423 0-2.1775 0.0037-2.4137 0.038099-2.4267 0.049476-0.01905 0.52386-0.01905 0.57308 0 0.034395 0.013229 0.038099 0.24923 0.038099 2.4257v2.4111l-0.053974 0.01429c-0.061382 0.01667-0.48894 0.01535-0.55297-0.0013zm1.3946-0.0095c-0.039687-0.02302-0.042068-0.16298-0.042068-2.4016 0-1.3075 0.00661-2.3944 0.014552-2.4153 0.01217-0.031749 0.061117-0.038099 0.29024-0.038099 0.1516 0 0.29633 0.011377 0.32199 0.025135 0.045507 0.024341 0.046566 0.076463 0.046566 2.4156 0 2.3389-0.00106 2.3913-0.046566 2.4156-0.059795 0.03175-0.52916 0.03096-0.58472-0.0013zm1.4065 0.0013-0.054239-0.02196 5.292e-4 -2.3926c7.937e-4 -2.3323 0.00185-2.3931 0.04683-2.4169 0.049212-0.026458 0.52466-0.034395 0.58816-0.010054 0.034395 0.013229 0.038099 0.24923 0.038099 2.4257v2.4111l-0.054239 0.01429c-0.082813 0.02223-0.50376 0.01508-0.56514-0.0095zm1.4068-0.0013c-0.03969-0.02302-0.04207-0.16404-0.04207-2.4249v-2.4003l0.05424-0.014552c0.10186-0.027516 0.55985-0.016668 0.59001 0.013758 0.02222 0.02196 0.0291 0.59107 0.0291 2.4156 0 2.3349-0.0011 2.3873-0.04656 2.4116-0.0598 0.03175-0.52916 0.03096-0.58472-0.0013zm1.3798 0.0045c-0.04657-0.02963-0.0463-0.60059 5.291e-4 -0.63049 0.01773-0.01138 1.1088-0.01799 2.4246-0.01482l2.3926 0.0058 0.0066 0.31538c0.0066 0.31088 0.0058 0.31591-0.04815 0.33046-0.08599 0.02302-4.7394 0.01693-4.7762-0.0063zm-0.01667-1.4285c-0.0069-0.0172-0.0093-0.1606-0.0053-0.31855l0.0066-0.28707h4.833l0.0066 0.31855 0.0069 0.31855h-2.4182c-1.9693 0-2.4198-0.0058-2.4296-0.03148zm-0.01534-1.6642c-4e-3 -0.16536-0.0037-0.31141 7.94e-4 -0.32464 0.0053-0.01508 0.86835-0.02355 2.4352-0.02355h2.4272l-0.0069 0.31855-0.0066 0.31882-4.8423 0.0122zm0.03387-1.1139c-0.03704-0.023812-0.04895-0.59451-0.01296-0.63049 0.01376-0.013758 0.95513-0.020108 2.4257-0.016404l2.4032 0.00609 0.0066 0.31564c0.0066 0.31061 0.0058 0.31564-0.04815 0.33019-0.08334 0.022489-4.7389 0.017462-4.7743-0.00529z" fill="#eceff4" stop-color="#000000" stroke-width=".024044" style="-inkscape-stroke:none;font-variation-settings:normal"/>
 </g>
</svg>
