<svg width="64" height="64" version="1.1" viewBox="0 0 16.933 16.933" xmlns="http://www.w3.org/2000/svg">
 <defs>
  <filter id="filter1178" x="-.047999" y="-.047999" width="1.096" height="1.096" color-interpolation-filters="sRGB">
   <feGaussianBlur stdDeviation="0.30691668"/>
  </filter>
  <linearGradient id="linearGradient1340" x1="8.3017" x2="8.355" y1="16.007" y2=".79375" gradientTransform="translate(-.0076499 -.0030174)" gradientUnits="userSpaceOnUse">
   <stop stop-color="#bf616a" offset="0"/>
   <stop stop-color="#d08770" offset="1"/>
  </linearGradient>
  <linearGradient id="linearGradient2545" x1="8.4344" x2="8.4344" y1="12.765" y2="4.1079" gradientUnits="userSpaceOnUse">
   <stop stop-color="#d8dee9" offset="0"/>
   <stop stop-color="#eceff4" offset="1"/>
  </linearGradient>
  <filter id="filter2711" x="-.060588" y="-.098408" width="1.1212" height="1.1968" color-interpolation-filters="sRGB">
   <feGaussianBlur stdDeviation="0.35846589"/>
  </filter>
 </defs>
 <g stroke-linecap="round" stroke-linejoin="round">
  <rect transform="matrix(.99138 0 0 1 .072989 .0019055)" x=".79375" y=".90545" width="15.346" height="15.346" rx="3.0526" ry="3.0526" fill="#000000" filter="url(#filter1178)" opacity=".15" stroke-width="1.2489" style="mix-blend-mode:normal"/>
  <rect x=".91839" y=".92302" width="15.081" height="15.081" rx="3" ry="3" fill="url(#linearGradient1340)" stroke-width="1.2274"/>
  <rect x=".0045001" y=".003" width="16.924" height="16.927" fill="none" opacity=".15" stroke-width="1.052"/>
  <path transform="matrix(.96736 0 0 1 .070166 0)" d="m16.349 8.2224-0.61311 0.54923c-1.9243 1.7244-4.7732 2.728-7.0618 2.4881-0.43557-0.04564-0.87287-0.11055-0.9714-0.14474-0.16979-0.05891-0.15934-0.07463 0.20158-0.29398 1.2206-0.7418 2.2739-1.6004 2.73-2.2256 0.72703-0.99667 0.86884-1.9866 0.40734-2.8427-0.54594-1.0127-2.0488-1.544-3.4304-1.2124-1.8876 0.4531-3.2941 1.758-3.5949 3.3364-0.19171 1.0061 0.2189 2.1588 1.0551 2.9622l0.44682 0.42918-0.18244 0.13128c-0.24288 0.17466-1.9976 1.0123-2.6594 1.2696-0.37288 0.14494-0.52697 0.2427-0.52697 0.33549 0 0.07209 0.029558 0.14821 0.065199 0.16887 0.15653 0.09074 1.6394-0.39898 3.117-1.0295l0.95824-0.40898 0.52398 0.22441c0.78648 0.33668 1.4366 0.52161 2.1444 0.61095 0.7457 0.09413 2.7861 0.04446 3.4119-0.08303 1.2345-0.25149 2.724-0.79494 3.6493-1.3313 0.1428-0.08277 0.27481-0.13609 0.2931-0.11894m-7.8729-5.4295c0.61516 0 0.93108 0.11683 1.2555 0.4634 0.40924 0.43716 0.44351 1.1013 0.091517 1.7767-0.25977 0.49848-1.2709 1.4299-2.3214 2.138-0.48784 0.32883-0.93689 0.59748-0.99772 0.59748-0.060833 0-0.31591-0.18935-0.56645-0.42076-0.60654-0.56024-0.81628-1.0646-0.76862-1.8474 0.041358-0.67933 0.23905-1.1173 0.72496-1.6045 0.7078-0.70972 1.6288-1.103 2.5822-1.103z" fill="#2e3440" filter="url(#filter2711)" opacity=".25" stroke-width="1.3759"/>
  <path d="m15.999 7.8728-0.61311 0.54923c-1.9243 1.7244-4.7732 2.728-7.0618 2.4881-0.43557-0.045641-0.87287-0.11055-0.9714-0.14474-0.16979-0.058908-0.15934-0.074629 0.20158-0.29398 1.2206-0.7418 2.2739-1.6004 2.73-2.2256 0.72703-0.99667 0.86884-1.9866 0.40734-2.8427-0.54594-1.0127-2.0488-1.544-3.4304-1.2124-1.8876 0.4531-3.2941 1.758-3.5949 3.3364-0.19171 1.0061 0.2189 2.1588 1.0551 2.9622l0.44682 0.42918-0.18244 0.13128c-0.24288 0.17466-1.9976 1.0123-2.6594 1.2696-0.37288 0.14494-0.52697 0.2427-0.52697 0.33549 0 0.07209 0.029558 0.14821 0.065199 0.16887 0.15653 0.09074 1.6394-0.39898 3.117-1.0295l0.95824-0.40898 0.52398 0.22441c0.78648 0.33668 1.4366 0.52161 2.1444 0.61095 0.7457 0.09413 2.786 0.04446 3.4119-0.08303 1.2345-0.25149 2.724-0.79494 3.6493-1.3313 0.1428-0.08277 0.33243-0.12674 0.33243-0.12674m-7.9122-5.4217c0.61516 0 0.93108 0.11683 1.2555 0.4634 0.40924 0.43716 0.44351 1.1013 0.091517 1.7767-0.25977 0.49848-1.2709 1.4299-2.3214 2.138-0.48784 0.32883-0.93689 0.59748-0.99772 0.59748-0.060833 0-0.31591-0.18935-0.56645-0.42076-0.60654-0.56024-0.81628-1.0646-0.76862-1.8474 0.041358-0.67933 0.23905-1.1173 0.72496-1.6045 0.7078-0.70972 1.6288-1.103 2.5822-1.103z" fill="url(#linearGradient2545)" stroke-width="1.3759"/>
 </g>
</svg>
