<svg width="64" height="64" version="1.1" viewBox="0 0 16.933 16.933" xmlns="http://www.w3.org/2000/svg">
 <defs>
  <filter id="filter1178" x="-.047999" y="-.047999" width="1.096" height="1.096" color-interpolation-filters="sRGB">
   <feGaussianBlur stdDeviation="0.30691668"/>
  </filter>
  <linearGradient id="i" x1="456.17" x2="480.12" y1="748.87" y2="643.31" gradientTransform="matrix(-.019692 0 0 .019692 18.292 .56467)" gradientUnits="userSpaceOnUse">
   <stop stop-color="#fff" stop-opacity=".8" offset="0"/>
   <stop stop-color="#e5eaf2" offset="1"/>
  </linearGradient>
  <linearGradient id="l" x1="643.16" x2="361.14" y1="256.97" y2="630.52" gradientTransform="matrix(.017494 0 0 .017494 .29199 1.2566)" gradientUnits="userSpaceOnUse">
   <stop stop-color="#eceff4" stop-opacity=".5" offset="0"/>
   <stop stop-color="#eee" stop-opacity="0" offset="1"/>
  </linearGradient>
  <linearGradient id="m" x1="377.22" x2="370.21" y1="285.26" y2="458.38" gradientTransform="matrix(.017494 0 0 .017494 .29199 1.2566)" gradientUnits="userSpaceOnUse">
   <stop stop-color="#eceff4" stop-opacity=".4" offset="0"/>
   <stop stop-color="#eee" stop-opacity="0" offset="1"/>
  </linearGradient>
  <linearGradient id="n" x1="191.37" x2="130.32" y1="439.01" y2="580.55" gradientTransform="matrix(.017494 0 0 .017494 .29199 1.2566)" gradientUnits="userSpaceOnUse">
   <stop stop-color="#eceff4" stop-opacity=".35" offset="0"/>
   <stop stop-color="#eee" stop-opacity="0" offset="1"/>
  </linearGradient>
  <linearGradient id="o" x1="186.97" x2="185.21" y1="547.14" y2="491.07" gradientTransform="matrix(.017494 0 0 .017494 .29199 1.2566)" gradientUnits="userSpaceOnUse">
   <stop stop-color="#eceff4" stop-opacity=".4" offset="0"/>
   <stop stop-color="#eee" stop-opacity="0" offset="1"/>
  </linearGradient>
  <linearGradient id="linearGradient7410" x1="24.44" x2="23.514" y1="8.5893" y2="10.142" gradientTransform="matrix(1.1767 0 0 1.1767 -21.718 -2.4522)" gradientUnits="userSpaceOnUse">
   <stop stop-color="#eceff4" offset="0"/>
   <stop stop-color="#d8dee9" offset="1"/>
  </linearGradient>
  <radialGradient id="radialGradient8804" cx="4.6927" cy="4.0029" r="7.5405" gradientTransform="matrix(-2.6959 -.0082963 .0068041 -2.211 17.317 12.892)" gradientUnits="userSpaceOnUse">
   <stop stop-color="#ebcb8b" offset="0"/>
   <stop stop-color="#d08770" offset="1"/>
  </radialGradient>
  <filter id="filter10080" x="-.069486" y="-.069184" width="1.139" height="1.1384" color-interpolation-filters="sRGB">
   <feGaussianBlur stdDeviation="1.2776568"/>
  </filter>
 </defs>
 <g stroke-linecap="round" stroke-linejoin="round">
  <rect transform="matrix(.99138 0 0 1 .072989 .0019055)" x=".79375" y=".90545" width="15.346" height="15.346" rx="3.0526" ry="3.0526" fill="#000000" filter="url(#filter1178)" opacity=".15" stroke-width="1.2489" style="mix-blend-mode:normal"/>
  <rect x=".92604" y=".92604" width="15.081" height="15.081" rx="3" ry="3" fill="url(#radialGradient8804)" stroke-width="1.2274"/>
  <rect x=".01215" y=".0060174" width="16.924" height="16.927" fill="none" opacity=".15" stroke-width="1.052"/>
 </g>
 <path transform="matrix(.26458 0 0 .26458 .4037 0)" d="m41.975 16.178c-1.1025 0-3.2427 2.5403-4.0449 2.9414-0.80227 0.40117-7.1542 4.9477-7.7559 5.75-0.60168 0.80219-1.4044 1.1352-2.2734 1.0684-0.86902-0.06676-3.6148-0.09344-4.5508 0.44141-0.93608 0.53492-5.2096 4.9084-6.2793 5.4434-1.0696 0.53469-2.4642 0.80809-3.1328 0.875-0.66844 0.06676-2.8846 2.5339-3.4863 3.002-0.60168 0.46808-5.3549 2.5248-6.0234 2.9258-0.66859 0.40117 4.8774 6.0207 5.6797 6.1543 0.72109 0.12033-4.2907 5.3066-6.4336 6.3555 0.92906 5.3341 5.558 9.3652 11.166 9.3652h21.744c-0.11166-1.3199-1.298-3.2041-1.252-3.9395 0.06667-1.0698 0.12407-2.4764 0.25781-3.6797 0.13383-1.2034 0.60149-11.299 2.3398-13.973 1.7381-2.674 6.7051-5.8845 8.4434-6.2188 1.7383-0.33426 1.4043-1.0019 1.4043-1.6035 0-0.60161-0.26628-1.94-0.73438-2.1406-0.46793-0.20051-2.2948 1.005-2.8965 1.1387-0.60167 0.13367-3.4757 0.33453-3.877-0.33398-0.4011-0.66866 3.2429-7.4888 3.7109-8.291 0.46808-0.80234 0.668-1.8714-0.20117-3.0078-0.86881-1.1367-1.4704-2.2734-1.8047-2.2734z" fill="#2e3440" filter="url(#filter10080)" opacity=".49059" stroke-width=".066122"/>
 <path transform="scale(.26458)" d="m41.975 16.178c-1.1025 0-3.2427 2.5403-4.0449 2.9414-0.80227 0.40117-7.1542 4.9477-7.7559 5.75-0.60168 0.80219-1.4044 1.1352-2.2734 1.0684-0.86902-0.066763-3.6148-0.093437-4.5508 0.44141-0.93608 0.53492-5.2096 4.9084-6.2793 5.4434-1.0696 0.53469-2.4642 0.80809-3.1328 0.875-0.66844 0.066763-2.8846 2.5339-3.4863 3.002-0.60168 0.46808-5.3549 2.5248-6.0234 2.9258-0.66859 0.40117 4.8774 6.0207 5.6797 6.1543 0.72109 0.12033-4.2907 5.3066-6.4336 6.3555 0.92906 5.3341 5.558 9.3652 11.166 9.3652h21.744c-0.11166-1.3199-1.298-3.2041-1.252-3.9395 0.066669-1.0698 0.12407-2.4764 0.25781-3.6797 0.13383-1.2034 0.60149-11.299 2.3398-13.973 1.7381-2.674 6.7051-5.8845 8.4434-6.2188 1.7383-0.33426 1.4043-1.0019 1.4043-1.6035 0-0.60161-0.26628-1.94-0.73438-2.1406-0.46793-0.20051-2.2948 1.005-2.8965 1.1387-0.60167 0.13367-3.4757 0.33453-3.877-0.33398-0.4011-0.66866 3.2429-7.4888 3.7109-8.291 0.46808-0.80234 0.668-1.8714-0.20117-3.0078-0.86881-1.1367-1.4704-2.2734-1.8047-2.2734z" fill="#5e81ac" stroke-width=".066122"/>
 <g stroke-width=".017494">
  <path d="m7.5772 7.6145s-0.70076-0.10783-1.1051 0.29652c-0.40436 0.40434-0.75484 1.2939-0.7278 1.5634 0.026924 0.26957 0.83562-0.91649 1.186-0.99733 0.35046-0.080895 0.72782-0.67396 0.64691-0.86261z" fill="url(#linearGradient7410)"/>
  <path d="m9.3467 11.335s-0.62708 2.1347-0.64293 2.1677c-0.089621 0.18625-0.25491 0.72595-0.198 0.90024 0.067015 0.20533 0.55828 1.1265 0.67551 1.2758 0.11723 0.14932 0.16746 0.22396 0.13396 0.27998-0.033478 0.05599-0.46889 0.05599-0.46889 0.05599s-0.575-1.1266-0.64203-1.3132c-0.066956-0.18658-0.10047-0.57848-0.033455-0.70908 0.066968-0.13066 1.1758-2.6575 1.1758-2.6575z" fill="url(#i)" opacity=".18"/>
  <path d="m7.6556 14.016c-1.2179-0.54184-2.3164-1.2854-3.2653-2.2104-0.10654-0.10385-0.13034-0.13155-0.13034-0.15174 0-0.02119 0.030383-0.05138 0.21416-0.21274 0.37424-0.32858 0.45657-0.41628 0.52035-0.55426 0.065121-0.14087 0.19968-0.30694 0.46215-0.57033 0.57945-0.58151 1.6313-1.4505 2.1275-1.7577 0.086232-0.053378 0.13579-0.09196 0.204-0.15882 0.21642-0.21214 0.55162-0.6408 1.25-1.5985 0.74339-1.0194 0.99365-1.3489 1.2411-1.6341 0.14951-0.17232 0.25946-0.27461 0.30209-0.28106 0.01812-0.00274 0.04821-0.0076 0.06686-0.010802 0.01866-0.0032 0.0425-0.00173 0.05299 0.00327 0.01047 5e-3 0.02583 0.011238 0.03409 0.013866 0.01584 0.00504 0.31756 0.34642 0.42868 0.48504 0.1331 0.16605 0.14509 0.21228 0.07849 0.30275-0.02486 0.033763-0.0488 0.082319-0.06723 0.13634-0.03165 0.092788-0.19473 0.42242-0.44564 0.90081-0.19728 0.37612-0.4643 0.90781-0.54774 1.0907-0.17616 0.38604-0.26209 0.65197-0.2396 0.74156 0.00741 0.029328 0.051859 0.050309 0.17137 0.080809 0.27957 0.071342 0.53803 0.060541 0.77887-0.032551 0.03643-0.014081 0.12187-0.057715 0.18988-0.096964 0.2076-0.11982 0.36409-0.18681 0.5595-0.23949 0.09335-0.025167 0.11554-0.027811 0.23991-0.02859 0.13049-8.169e-4 0.13915 2.222e-4 0.18098 0.021709 0.03796 0.019505 0.04493 0.027293 0.05128 0.057405 0.01432 0.067845 0.01684 0.11147 0.0069 0.12132-0.0054 0.00538-0.0098 0.018602-0.0098 0.029377 0 0.044201-0.1063 0.079917-0.40265 0.13529-0.31086 0.05808-0.32587 0.064338-0.5422 0.22607-0.48425 0.36203-1.2377 1.0179-1.505 1.31-0.12126 0.13253-0.30714 0.38902-0.55768 0.76952-0.56213 0.8537-0.95156 1.5909-1.0556 1.9984-0.020675 0.08096-0.07883 0.44666-0.13162 0.82767-0.048729 0.35166-0.050894 0.36225-0.074229 0.36145-0.010355-3.5e-4 -0.094233-0.03423-0.18652-0.07529z" fill="url(#l)" opacity=".58"/>
  <path d="m4.3618 9.2642c-0.00541-0.019368-0.00435-0.18955 0.00177-0.2692 0.00435-0.056987 0.00788-0.07582 0.023123-0.12059 0.046959-0.1384 0.11563-0.21545 0.21496-0.24119 0.037056-0.0096022 0.057154-0.019443 0.11073-0.054205 0.11005-0.071405 0.25052-0.18995 0.47531-0.40116 0.061002-0.057308 0.30846-0.3007 0.54991-0.54088 0.24145-0.24017 0.44986-0.44454 0.46312-0.45415 0.013262-0.0096 0.032808-0.019762 0.04341-0.022571 0.077524-0.020515 0.26502-0.030461 0.74045-0.039278 0.44673-0.00828 0.63697-0.016891 0.69564-0.031471 0.060767-0.0151 0.19943-0.097214 0.47895-0.28363 0.20211-0.13479 0.63224-0.4322 0.88149-0.6095 0.066886-0.047578 0.094092-0.064299 0.10464-0.064299 0.00788 0 0.01558-0.00217 0.017216-0.00482 0.00165-0.00265 0.00635-0.00482 0.010355-0.00482 0.00612 0 0.00694 0.00493 0.00482 0.027737-0.00553 0.058521-0.00894 0.070549-0.027336 0.095088-0.050129 0.066857-0.18216 0.17476-0.33782 0.27608-0.039962 0.026012-0.11757 0.082102-0.17246 0.12465-0.55359 0.42906-0.92967 0.68303-1.0923 0.73761-0.032243 0.010826-0.044716 0.012318-0.10276 0.012318-0.11194 0-0.24053 0.024264-0.45994 0.086795-0.32337 0.092151-0.62083 0.21303-0.77713 0.31578-0.13572 0.089226-0.24477 0.26049-0.35433 0.55647-0.043104 0.11645-0.093939 0.28858-0.15518 0.52545-0.015262 0.059021-0.029218 0.10969-0.031019 0.1126-0.00177 0.00291-0.29172 0.067018-0.64427 0.14246-0.35255 0.075446-0.64473 0.13832-0.64928 0.13972-6e-3 0.00184-0.0093-0.00119-0.012062-0.011003z" fill="url(#m)"/>
  <path d="m2.7014 11.411c-0.00671-0.0015-0.01991-0.0028-0.029371-0.0029-0.041445-4.24e-4 -0.15909-0.05985-0.28566-0.14429-0.13729-0.0916-0.24764-0.17916-0.37273-0.29578-0.025182-0.02348-0.069063-0.06388-0.097505-0.0898-0.076394-0.06958-0.19424-0.18799-0.22889-0.22996-0.063332-0.07672-0.097234-0.13319-0.10189-0.16972-0.00706-0.05554-0.00683-0.06863 0.00224-0.1164 2e-3 -0.01083 0.02883-0.03413 0.065262-0.05678 0.068192-0.04239 0.21327-0.14078 0.72442-0.49132 0.77772-0.53334 1.1054-0.75018 1.2781-0.84586 0.043775-0.024241 0.055825-0.026945 0.12047-0.027014 0.061944-7e-5 0.11407 0.0055 0.15112 0.016124 0.074064 0.021251 0.18855 0.065997 0.28949 0.11315 0.050388 0.023538 0.054001 0.025778 0.054001 0.033435 0 0.00739-0.00177 0.0087-0.017498 0.013124-0.036244 0.010179-0.13297 0.042028-0.2123 0.0699-0.48202 0.1693-0.96432 0.40284-1.3956 0.67573-0.10221 0.064674-0.11407 0.07337-0.15225 0.11154-0.10844 0.10844-0.20606 0.27788-0.23328 0.40489-0.00377 0.01773-0.00553 0.0388-0.00553 0.06697-3.53e-5 0.04492 0.0053 0.06841 0.022229 0.09722 0.066733 0.11387 0.40554 0.22141 0.84374 0.2678 0.12785 0.01353 0.18673 0.01666 0.31652 0.01683l0.12632 1.56e-4 0.033478-0.01153c0.089526-0.03092 0.21202-0.1009 0.47787-0.273 0.23037-0.14913 0.30148-0.19257 0.38352-0.23432 0.076818-0.03909 0.11563-0.05071 0.14871-0.0445 0.012591 0.0024 0.014909 0.0094 0.01505 0.04594 1.989e-4 0.05279-0.00553 0.07288-0.032301 0.11263-0.077265 0.11481-0.2674 0.27087-0.53487 0.43896-0.22478 0.14127-0.48079 0.27226-0.61713 0.31576-0.012909 0.0041-0.04754 0.01299-0.076959 0.01972-0.15719 0.03595-0.31418 0.09193-0.5218 0.18606-0.029395 0.01332-0.055342 0.02305-0.065438 0.02454-0.029795 0.0044-0.059061 0.0054-0.071534 0.0027z" fill="url(#n)" opacity=".7"/>
  <path d="m3.2422 10.527c-0.00294-3.89e-4 -0.041304-0.0014-0.085208-0.0024-0.079053-0.0016-0.12855-0.0051-0.19912-0.0137-0.16368-0.02004-0.27277-0.05229-0.31103-0.09196-0.00812-0.0084-0.010826-0.01839-0.010708-0.03976 1.742e-4 -0.02782 0.00271-0.03867 0.014615-0.06199 0.050423-0.09889 0.19546-0.25549 0.36627-0.39546 0.037479-0.030713 0.099635-0.077359 0.13189-0.098987l0.023276-0.015604 1.0566-0.12781 0.034984 2e-3c0.032525 0.00188 0.060355 0.00388 0.13122 0.00965 0.032678 0.00271 0.03522 0.00388 0.032125 0.014992-0.00103 0.00377-0.00188 0.01012-0.00188 0.014274-1.41e-5 0.010591-0.016651 0.049541-0.039809 0.093151-0.1249 0.23528-0.37717 0.53163-0.54499 0.64024-0.048105 0.03114-0.081866 0.04586-0.12524 0.05462-0.044245 0.0089-0.10075 0.01463-0.16357 0.01644-0.061732 0.0018-0.29981 0.0035-0.30944 0.0022z" fill="url(#o)"/>
 </g>
</svg>
