<svg width="64" height="64" version="1.1" viewBox="0 0 16.933 16.933" xmlns="http://www.w3.org/2000/svg">
 <defs>
  <filter id="filter1178" x="-.047999" y="-.047999" width="1.096" height="1.096" color-interpolation-filters="sRGB">
   <feGaussianBlur stdDeviation="0.30691668"/>
  </filter>
  <linearGradient id="linearGradient862" x1="8.355" x2="8.355" y1="16.007" y2=".79375" gradientUnits="userSpaceOnUse">
   <stop stop-color="#a3be8c" offset="0"/>
   <stop stop-color="#8fbcbb" offset="1"/>
  </linearGradient>
  <linearGradient id="linearGradient6913" x1="25.303" x2="25.334" y1="3.4292" y2="8.3682" gradientUnits="userSpaceOnUse">
   <stop stop-color="#4c566a" offset="0"/>
   <stop stop-color="#2e3440" offset="1"/>
  </linearGradient>
  <linearGradient id="linearGradient7049" x1="25.398" x2="25.4" y1="6.3331" y2="14.661" gradientUnits="userSpaceOnUse">
   <stop stop-color="#eceff4" offset="0"/>
   <stop stop-color="#d8dee9" offset="1"/>
  </linearGradient>
  <filter id="filter7343" x="-.074062" y="-.063847" width="1.1481" height="1.1277" color-interpolation-filters="sRGB">
   <feGaussianBlur stdDeviation="0.31207487"/>
  </filter>
 </defs>
 <g stroke-linecap="round" stroke-linejoin="round">
  <rect transform="matrix(.99138 0 0 1 .072989 .0019055)" x=".79375" y=".90545" width="15.346" height="15.346" rx="3.0526" ry="3.0526" fill="#000000" filter="url(#filter1178)" opacity=".15" stroke-width="1.2489" style="mix-blend-mode:normal"/>
  <rect x=".92604" y=".92604" width="15.081" height="15.081" rx="3" ry="3" fill="url(#linearGradient862)" stroke-width="1.2274"/>
  <rect x=".01215" y=".0060174" width="16.924" height="16.927" fill="none" opacity=".15" stroke-width="1.052"/>
 </g>
 <g transform="matrix(.98242 0 0 .98242 -16.503 -.42362)">
  <path d="m24.869 3.2467h1.1897v1.1897h0.29744a0.89231 0.89231 0 0 1 0.89231 0.89231v2.0821l-0.26174 0.26174 0.97559 1.6894c0.66031-0.64841 1.0708-1.5467 1.0708-2.5461h1.1897c0 1.4396-0.63651 2.7305-1.6478 3.6049l1.8679 3.2361 0.07733 1.3206-1.1124-0.72575-1.8263-3.1707c-0.63057 0.31528-1.3563 0.49374-2.1178 0.49374s-1.4872-0.17846-2.1178-0.49374l-1.8263 3.1707-1.1124 0.72575 0.07733-1.3206 3.4562-5.9844-0.26174-0.26174v-2.0821a0.89231 0.89231 0 0 1 0.89231-0.89231h0.29744v-1.1897m-0.928 6.7994c0.464 0.22009 0.98154 0.33908 1.5229 0.33908 0.54133 0 1.0589-0.11898 1.5229-0.33908l-0.86853-1.505h-0.0059c-0.36882 0.35692-0.928 0.35692-1.2968 0h-0.0059l-0.86858 1.505m1.5229-4.4199a0.59487 0.59487 0 0 0-0.59487 0.59487 0.59487 0.59487 0 0 0 0.59487 0.59487 0.59487 0.59487 0 0 0 0.59488-0.59487 0.59487 0.59487 0 0 0-0.59488-0.59487z" fill="#2e3440" filter="url(#filter7343)" opacity=".32241" stroke-width=".59487"/>
  <path d="m24.789 3.1406h1.1897v1.1897h0.29744a0.89231 0.89231 0 0 1 0.89231 0.89231v2.0821l-0.26174 0.26174 0.97559 1.6894c0.66031-0.64841 1.0708-1.5467 1.0708-2.5461h1.1897c0 1.4396-0.63651 2.7305-1.6478 3.6049l1.8679 3.2361 0.07733 1.3206-1.1124-0.72575-1.8263-3.1707c-0.63057 0.31528-1.3563 0.49374-2.1178 0.49374s-1.4872-0.17846-2.1178-0.49374l-1.8263 3.1707-1.1124 0.72575 0.07733-1.3206 3.4562-5.9844-0.26174-0.26174v-2.0821a0.89231 0.89231 0 0 1 0.89231-0.89231h0.29744v-1.1897m-0.928 6.7994c0.464 0.22009 0.98154 0.33908 1.5229 0.33908 0.54133 0 1.0589-0.11898 1.5229-0.33908l-0.86853-1.505h-0.0059c-0.36882 0.35692-0.928 0.35692-1.2968 0h-0.0059l-0.86858 1.505m1.5229-4.4199a0.59487 0.59487 0 0 0-0.59487 0.59487 0.59487 0.59487 0 0 0 0.59487 0.59487 0.59487 0.59487 0 0 0 0.59488-0.59487 0.59487 0.59487 0 0 0-0.59488-0.59487z" fill="url(#linearGradient7049)" stroke-width=".59487"/>
  <path d="m26.044 8.4423h-0.0061c-0.37028 0.35834-0.93168 0.35834-1.302 0h-0.0058l-0.872-0.87196-0.26278-0.26278v-2.0903c0-0.49476 0.40108-0.89585 0.89585-0.89585h0.29861v-1.1945h1.1945v1.1945h0.29862c0.49476 2e-7 0.89585 0.40108 0.89585 0.89585v2.0903l-0.26278 0.26278m-1.5288-2.0545c-0.32985-7.2e-6 -0.59724 0.26739-0.59724 0.59723s0.26739 0.59723 0.59723 0.59723c0.32984 1e-7 0.59723-0.26739 0.59723-0.59723 1e-6 -0.32984-0.26739-0.59723-0.59723-0.59723z" fill="url(#linearGradient6913)" stroke-width=".59723"/>
 </g>
</svg>
