<svg width="64" height="64" version="1.1" viewBox="0 0 16.933 16.933" xmlns="http://www.w3.org/2000/svg">
 <defs>
  <filter id="filter1178" x="-.048" y="-.048" width="1.096" height="1.096" color-interpolation-filters="sRGB">
   <feGaussianBlur stdDeviation="0.30691955"/>
  </filter>
  <linearGradient id="linearGradient1340" x1="8.5011" x2="8.489" y1="16.007" y2=".79375" gradientUnits="userSpaceOnUse">
   <stop stop-color="#2e3440" offset="0"/>
   <stop stop-color="#4c566a" offset="1"/>
  </linearGradient>
  <filter id="filter3623" x="-.10793" y="-.077655" width="1.212" height="1.1517" color-interpolation-filters="sRGB">
   <feGaussianBlur stdDeviation="0.073287797"/>
  </filter>
  <filter id="filter3699" x="-.084192" y="-.14058" width="1.1861" height="1.3033" color-interpolation-filters="sRGB">
   <feGaussianBlur stdDeviation="0.058926971"/>
  </filter>
  <filter id="filter4411" x="-.070429" y="-.16979" width="1.1598" height="1.3848" color-interpolation-filters="sRGB">
   <feGaussianBlur stdDeviation="0.067928048"/>
  </filter>
  <filter id="filter4469" x="-.11302" y="-.093918" width="1.2688" height="1.1913" color-interpolation-filters="sRGB">
   <feGaussianBlur stdDeviation="0.068167464"/>
  </filter>
  <filter id="filter4527" x="-.07429" y="-.29487" width="1.1523" height="1.6452" color-interpolation-filters="sRGB">
   <feGaussianBlur stdDeviation="0.059296745"/>
  </filter>
  <filter id="filter4842" x="-.088414" y="-.092624" width="1.1869" height="1.198" color-interpolation-filters="sRGB">
   <feGaussianBlur stdDeviation="0.38907125"/>
  </filter>
 </defs>
 <g stroke-linecap="round" stroke-linejoin="round">
  <rect transform="matrix(.99138 0 0 1 .072989 .0019055)" x=".79375" y=".90545" width="15.346" height="15.346" rx="3.0526" ry="3.0526" fill="#000000" filter="url(#filter1178)" opacity=".15" stroke-width="1.2489" style="mix-blend-mode:normal"/>
  <rect x=".92604" y=".92604" width="15.081" height="15.081" rx="3" ry="3" fill="url(#linearGradient1340)" stroke-width="1.2274"/>
  <rect x=".01215" y=".0060174" width="16.924" height="16.927" fill="none" opacity=".15" stroke-width="1.052"/>
 </g>
 <g transform="matrix(.87968 0 0 .87968 -60.14 -14.451)" filter="url(#filter4842)" opacity=".5" stroke="#2e3440">
  <g fill="none">
   <path transform="scale(.26458)" d="m295.86 87.341c0.13743 0.0083 0.26864 0.01166 0.39327 0.0094 4.5836-0.08138 18.056-6.8827 22.88 2.1384 0.0265 0.04956 0.0525 0.09895 0.0781 0.14815" stroke-width="2.527"/>
   <path d="m78.719 20.819c2.5186 0.1163 2.5697 2.4234 3.1941 4.0037 0.64725 1.6382 3.7277 2.4686 2.6149 4.9593-0.04829 0.10807-0.1012 0.20778-0.15833 0.29963" stroke-width=".66859"/>
   <path transform="scale(.26458)" d="m319.21 89.637c4.632 8.9053-5.6347 11.843-9.3024 17.415-3.6879 5.6031-2.2916 16.107-12.883 16.295-0.3741 7e-3 -0.73513 2e-3 -1.0837-0.0144" stroke-width="2.527"/>
   <path d="m84.37 30.081c-1.2595 2.0251-4.5728 0.2368-5.7329 0.2574-1.2127 0.02153-4.7773 1.821-6.0536-0.56576-7e-3 -0.01311-0.01389-0.02618-0.02066-0.0392" stroke-width=".66859"/>
   <path transform="scale(.26458)" d="m295.94 123.33c-9.5193-0.43958-9.7125-9.1595-12.072-15.132-2.4464-6.1917-14.089-9.3305-9.8832-18.744 0.18252-0.40847 0.38248-0.78531 0.59842-1.1325" stroke-width="2.527"/>
   <path d="m72.563 29.734c-1.2255-2.3562 1.4908-3.1333 2.4612-4.6076 0.97573-1.4824 0.60629-4.2615 3.4086-4.3113 0.09898-0.0019 0.1945-5.29e-4 0.28671 0.0038" stroke-width=".66859"/>
   <path transform="scale(.26458)" d="m274.59 88.323c4.6252-7.4365 16.578-1.2676 21.275-0.9823" stroke-width="2.527"/>
   <path transform="scale(.26458)" d="m295.86 87.341c0.13743 0.0083 0.26864 0.01166 0.39327 0.0094 4.5836-0.08138 18.056-6.8827 22.88 2.1384 0.0265 0.04956 0.0525 0.09895 0.0781 0.14815" stroke-width="2.527"/>
   <path d="m78.719 20.819c2.5186 0.1163 2.5697 2.4234 3.1941 4.0037 0.64725 1.6382 3.7277 2.4686 2.6149 4.9593-0.04829 0.10807-0.1012 0.20778-0.15833 0.29963" stroke-width=".66859"/>
   <path transform="scale(.26458)" d="m319.21 89.637c4.632 8.9053-5.6347 11.843-9.3024 17.415-3.6879 5.6031-2.2916 16.107-12.883 16.295-0.3741 7e-3 -0.73513 2e-3 -1.0837-0.0144" stroke-width="2.527"/>
   <path d="m84.37 30.081c-1.2595 2.0251-4.5728 0.2368-5.7329 0.2574-1.2127 0.02153-4.7773 1.821-6.0536-0.56576-7e-3 -0.01311-0.01389-0.02618-0.02066-0.0392" stroke-width=".66859"/>
   <path transform="scale(.26458)" d="m295.94 123.33c-9.5193-0.43958-9.7125-9.1595-12.072-15.132-2.4464-6.1917-14.089-9.3305-9.8832-18.744 0.18252-0.40847 0.38248-0.78531 0.59842-1.1325" stroke-width="2.527"/>
   <path d="m72.563 29.734c-1.2255-2.3562 1.4908-3.1333 2.4612-4.6076 0.97573-1.4824 0.60629-4.2615 3.4086-4.3113 0.09898-0.0019 0.1945-5.29e-4 0.28671 0.0038" stroke-width=".66859"/>
   <path transform="scale(.26458)" d="m274.59 88.323c4.6252-7.4365 16.578-1.2676 21.275-0.9823" stroke-width="2.527"/>
  </g>
  <g fill="#eceff4" stroke-width=".079373">
   <path d="m76.141 21.887c0.21638-1.09 1.8808-1.5086 2.3213-1.1792-1.7768 0.35334-1.5982 0.84943-2.3213 1.1792z" filter="url(#filter3699)" opacity=".6"/>
   <path d="m72.493 23.328c0.21638-1.09 2.5707-1.4603 3.1534-1.0006-1.8965-0.05589-2.4142 0.44778-3.1534 1.0006z" filter="url(#filter4411)" opacity=".6"/>
   <path d="m77.051 30.618c0.50661-0.98912 2.6924-0.5949 3.0258-0.15744-1.8499-0.33852-2.1635-0.17177-3.0258 0.15744z" filter="url(#filter4527)" opacity=".6"/>
   <path d="m71.946 28.812c-0.2935-1.0719 1.0819-2.3559 1.7602-2.562-1.2041 1.4265-1.1819 1.8346-1.7602 2.562z" filter="url(#filter4469)" opacity=".6"/>
   <path d="m81.194 29.593c0.45314-1.5053 0.89305-2.0863 1.9817-2.7087-1.2041 1.4265-1.4034 1.9813-1.9817 2.7087z" filter="url(#filter3623)" opacity=".6"/>
  </g>
 </g>
 <g transform="matrix(.87968 0 0 .87968 -60.437 -14.945)" fill="none">
  <path transform="scale(.26458)" d="m295.86 87.341c0.13743 0.0083 0.26864 0.01166 0.39327 0.0094 4.5836-0.08138 18.056-6.8827 22.88 2.1384 0.0265 0.04956 0.0525 0.09895 0.0781 0.14815" stroke="#a3be8c" stroke-width="2.527"/>
  <path d="m78.719 20.819c2.5186 0.1163 2.5697 2.4234 3.1941 4.0037 0.64725 1.6382 3.7277 2.4686 2.6149 4.9593-0.04829 0.10807-0.1012 0.20778-0.15833 0.29963" stroke="#5e81ac" stroke-width=".66859"/>
  <path transform="scale(.26458)" d="m319.21 89.637c4.632 8.9053-5.6347 11.843-9.3024 17.415-3.6879 5.6031-2.2916 16.107-12.883 16.295-0.3741 7e-3 -0.73513 2e-3 -1.0837-0.0144" stroke="#a3be8c" stroke-width="2.527"/>
  <path d="m84.37 30.081c-1.2595 2.0251-4.5728 0.2368-5.7329 0.2574-1.2127 0.02153-4.7773 1.821-6.0536-0.56576-7e-3 -0.01311-0.01389-0.02618-0.02066-0.0392" stroke="#5e81ac" stroke-width=".66859"/>
  <path transform="scale(.26458)" d="m295.94 123.33c-9.5193-0.43958-9.7125-9.1595-12.072-15.132-2.4464-6.1917-14.089-9.3305-9.8832-18.744 0.18252-0.40847 0.38248-0.78531 0.59842-1.1325" stroke="#a3be8c" stroke-width="2.527"/>
  <path d="m72.563 29.734c-1.2255-2.3562 1.4908-3.1333 2.4612-4.6076 0.97573-1.4824 0.60629-4.2615 3.4086-4.3113 0.09898-0.0019 0.1945-5.29e-4 0.28671 0.0038" stroke="#5e81ac" stroke-width=".66859"/>
  <path transform="scale(.26458)" d="m274.59 88.323c4.6252-7.4365 16.578-1.2676 21.275-0.9823" stroke="#a3be8c" stroke-width="2.527"/>
  <path transform="scale(.26458)" d="m295.86 87.341c0.13743 0.0083 0.26864 0.01166 0.39327 0.0094 4.5836-0.08138 18.056-6.8827 22.88 2.1384 0.0265 0.04956 0.0525 0.09895 0.0781 0.14815" stroke="#a3be8c" stroke-width="2.527"/>
  <path d="m78.719 20.819c2.5186 0.1163 2.5697 2.4234 3.1941 4.0037 0.64725 1.6382 3.7277 2.4686 2.6149 4.9593-0.04829 0.10807-0.1012 0.20778-0.15833 0.29963" stroke="#5e81ac" stroke-width=".66859"/>
  <path transform="scale(.26458)" d="m319.21 89.637c4.632 8.9053-5.6347 11.843-9.3024 17.415-3.6879 5.6031-2.2916 16.107-12.883 16.295-0.3741 7e-3 -0.73513 2e-3 -1.0837-0.0144" stroke="#a3be8c" stroke-width="2.527"/>
  <path d="m84.37 30.081c-1.2595 2.0251-4.5728 0.2368-5.7329 0.2574-1.2127 0.02153-4.7773 1.821-6.0536-0.56576-7e-3 -0.01311-0.01389-0.02618-0.02066-0.0392" stroke="#5e81ac" stroke-width=".66859"/>
  <path transform="scale(.26458)" d="m295.94 123.33c-9.5193-0.43958-9.7125-9.1595-12.072-15.132-2.4464-6.1917-14.089-9.3305-9.8832-18.744 0.18252-0.40847 0.38248-0.78531 0.59842-1.1325" stroke="#a3be8c" stroke-width="2.527"/>
  <path d="m72.563 29.734c-1.2255-2.3562 1.4908-3.1333 2.4612-4.6076 0.97573-1.4824 0.60629-4.2615 3.4086-4.3113 0.09898-0.0019 0.1945-5.29e-4 0.28671 0.0038" stroke="#5e81ac" stroke-width=".66859"/>
  <path transform="scale(.26458)" d="m274.59 88.323c4.6252-7.4365 16.578-1.2676 21.275-0.9823" stroke="#a3be8c" stroke-width="2.527"/>
 </g>
 <g fill="#eceff4">
  <path transform="matrix(.87968 0 0 .87968 -60.437 -14.945)" d="m76.141 21.887c0.21638-1.09 1.8808-1.5086 2.3213-1.1792-1.7768 0.35334-1.5982 0.84943-2.3213 1.1792z" filter="url(#filter3699)" opacity=".6"/>
  <path transform="matrix(.87968 0 0 .87968 -60.437 -14.945)" d="m72.493 23.328c0.21638-1.09 2.5707-1.4603 3.1534-1.0006-1.8965-0.05589-2.4142 0.44778-3.1534 1.0006z" filter="url(#filter4411)" opacity=".6"/>
  <path transform="matrix(.87968 0 0 .87968 -60.437 -14.945)" d="m77.051 30.618c0.64759-0.92013 2.9223-0.4506 3.2558-0.01314-1.8499-0.33852-2.3934-0.31607-3.2558 0.01314z" filter="url(#filter4527)" opacity=".6"/>
  <path transform="matrix(.87968 0 0 .87968 -60.437 -14.945)" d="m71.946 28.812c-0.2935-1.0719 1.0819-2.3559 1.7602-2.562-1.2041 1.4265-1.1819 1.8346-1.7602 2.562z" filter="url(#filter4469)" opacity=".6"/>
  <path transform="matrix(.87968 0 0 .87968 -60.437 -14.945)" d="m81.194 29.593c0.45314-1.5053 0.89305-2.0863 1.9817-2.7087-1.2041 1.4265-1.4034 1.9813-1.9817 2.7087z" filter="url(#filter3623)" opacity=".6"/>
 </g>
</svg>
