<?xml version="1.0" encoding="UTF-8"?>
<svg width="64" height="64" version="1.1" xmlns="http://www.w3.org/2000/svg">
 <defs>
  <filter id="filter1178" x="-.047999" y="-.047999" width="1.096" height="1.096" color-interpolation-filters="sRGB">
   <feGaussianBlur stdDeviation="0.30691668"/>
  </filter>
  <radialGradient id="radialGradient11800" cx="8.4665" cy="8.4665" r="7.5405" gradientTransform="matrix(1.1238 0 -1.0595e-8 1.1224 -1.0482 -1.0363)" gradientUnits="userSpaceOnUse">
   <stop stop-color="#d8dee9" offset="0"/>
   <stop stop-color="#eceff4" offset="1"/>
  </radialGradient>
  <linearGradient id="linearGradient3156" x1="88" x2="88" y1="176" y2="2.9772e-12" gradientTransform="matrix(.24571 0 0 .24571 10.378 10.378)" gradientUnits="userSpaceOnUse">
   <stop stop-color="#b54a55" offset="0"/>
   <stop stop-color="#bf616a" offset="1"/>
  </linearGradient>
 </defs>
 <g transform="matrix(3.7796 0 0 3.7796 -.028914 -.011405)" stroke-linecap="round" stroke-linejoin="round">
  <rect transform="matrix(.99138 0 0 1 .072989 .0019055)" x=".79375" y=".90545" width="15.346" height="15.346" rx="3.0526" ry="3.0526" filter="url(#filter1178)" opacity=".15" stroke-width="1.2489" style="mix-blend-mode:normal"/>
  <rect x=".92604" y=".92604" width="15.081" height="15.081" rx="3" ry="3" fill="url(#radialGradient11800)" stroke-width="1.2274"/>
  <rect x=".01215" y=".0060174" width="16.924" height="16.927" fill="none" opacity=".15" stroke-width="1.052"/>
 </g>
 <circle id="XMLID_791_" cx="32" cy="32" r="21.622" fill="url(#linearGradient3156)" stroke-width="1.2126"/>
 <path id="XMLID_42_" d="m32 21.68c5.6758 0 10.32 4.6193 10.32 10.32 0 5.7004-4.6193 10.32-10.32 10.32-5.7004 0-10.32-4.6193-10.32-10.32 0-5.7004 4.6439-10.32 10.32-10.32m0-0.98283c-6.241 0-11.303 5.0616-11.303 11.303 0 6.241 5.0616 11.303 11.303 11.303 6.241 0 11.303-5.0616 11.303-11.303 0-6.241-5.0616-11.303-11.303-11.303z" fill="#eceff4" stroke-width="1.2126"/>
 <polygon id="XMLID_274_" transform="matrix(.24571 0 0 .24571 10.378 10.378)" points="72 111 111 87 72 65" fill="#eceff4" stroke-width="4.9353"/>
</svg>
