<?xml version="1.0" encoding="UTF-8" standalone="no"?>
<svg
   width="64"
   height="64"
   version="1.1"
   viewBox="0 0 16.933 16.933"
   id="svg225"
   sodipodi:docname="appimagelauncher.svg"
   xml:space="preserve"
   inkscape:version="1.2.2 (b0a8486541, 2022-12-01)"
   xmlns:inkscape="http://www.inkscape.org/namespaces/inkscape"
   xmlns:sodipodi="http://sodipodi.sourceforge.net/DTD/sodipodi-0.dtd"
   xmlns:xlink="http://www.w3.org/1999/xlink"
   xmlns="http://www.w3.org/2000/svg"
   xmlns:svg="http://www.w3.org/2000/svg"><sodipodi:namedview
     id="namedview227"
     pagecolor="#ffffff"
     bordercolor="#000000"
     borderopacity="0.25"
     inkscape:showpageshadow="2"
     inkscape:pageopacity="0.0"
     inkscape:pagecheckerboard="0"
     inkscape:deskcolor="#d1d1d1"
     showgrid="false"
     inkscape:zoom="4.8116407"
     inkscape:cx="43.851986"
     inkscape:cy="34.811411"
     inkscape:window-width="1920"
     inkscape:window-height="1012"
     inkscape:window-x="0"
     inkscape:window-y="0"
     inkscape:window-maximized="1"
     inkscape:current-layer="svg225" /><defs
     id="defs213"><linearGradient
       inkscape:collect="always"
       id="linearGradient1092"><stop
         style="stop-color:#eceff4;stop-opacity:1"
         offset="0"
         id="stop1088" /><stop
         style="stop-color:#d8dee9;stop-opacity:1"
         offset="1"
         id="stop1090" /></linearGradient><linearGradient
       id="a"
       x1="11.856"
       x2="4.3141"
       y1="16.792"
       y2="1.6516"
       gradientTransform="matrix(1.0178 0 0 1.0178 -.15085 -.14268)"
       gradientUnits="userSpaceOnUse"><stop
         stop-color="#5e81ac"
         offset="0"
         id="stop202" /><stop
         stop-color="#88c0d0"
         offset="1"
         id="stop204" /></linearGradient><filter
       id="filter1178"
       x="-0.047999482"
       y="-0.047999482"
       width="1.095999"
       height="1.095999"
       color-interpolation-filters="sRGB"><feGaussianBlur
         stdDeviation="0.30691668"
         id="feGaussianBlur207" /></filter><filter
       id="filter926"
       x="-0.026848312"
       y="-0.027152731"
       width="1.0536966"
       height="1.0543055"
       color-interpolation-filters="sRGB"><feGaussianBlur
         stdDeviation="0.11518128"
         id="feGaussianBlur210" /></filter><filter
       inkscape:collect="always"
       style="color-interpolation-filters:sRGB"
       id="filter1024"
       x="-0.036022003"
       y="-0.036022002"
       width="1.072044"
       height="1.072044"><feGaussianBlur
         inkscape:collect="always"
         stdDeviation="0.16407262"
         id="feGaussianBlur1026" /></filter><linearGradient
       inkscape:collect="always"
       xlink:href="#linearGradient1092"
       id="linearGradient1094"
       x1="8.6329737"
       y1="2.8593287"
       x2="8.6329737"
       y2="13.911734"
       gradientUnits="userSpaceOnUse" /></defs><g
     transform="translate(-.00025546 -.11386)"
     id="g217"><rect
       transform="matrix(.99138 0 0 1 .072989 .0019055)"
       x=".79375"
       y=".90545"
       width="15.346"
       height="15.346"
       rx="3.0526"
       ry="3.0526"
       filter="url(#filter1178)"
       opacity=".15"
       stroke-linecap="round"
       stroke-linejoin="round"
       stroke-width="1.2489"
       style="mix-blend-mode:normal"
       id="rect215" /></g><rect
     x=".926"
     y=".92602"
     width="15.081"
     height="15.081"
     rx="3.0536"
     ry="3.0535"
     fill="url(#a)"
     stroke-width="1.0178"
     id="rect219" /><path
     id="appimagehub-logo"
     fill="#ffffff"
     stroke="none"
     stroke-opacity="1"
     d="M 6.9692669,5.5220081 7.9541182,3.0007735 h 1.0247641 l 2.7525757,7.0463645 c -0.524203,0.338876 -1.154798,0.556108 -1.8143745,0.679533 L 8.4665007,7.1000838 6.8899502,11.041395 c 0.4929335,0.102325 1.0236199,0.157999 1.5765505,0.157999 2.5924163,0 4.6971103,-1.2245818 4.6971103,-2.7328734 0,-0.8301581 -0.637458,-1.5742625 -1.642902,-2.0755859 -0.09406,0.1215176 -0.241255,0.1998175 -0.406753,0.1998175 -0.283583,0 -0.513907,-0.2303239 -0.513907,-0.5139072 0,-0.2837104 0.230324,-0.5140344 0.513907,-0.5140344 0.264643,0 0.482892,0.2004531 0.510856,0.4577244 1.395926,0.6191548 2.307435,1.6373089 2.307435,2.7875309 0,0.9781141 -0.659067,1.8607691 -1.714591,2.4837371 -0.546067,0.330742 -1.157086,0.560176 -1.792003,0.706099 -0.6083509,0.146176 -1.2689432,0.226256 -1.9591523,0.226256 -0.69021,0 -1.3508024,-0.08008 -1.9591527,-0.226256 L 5.7336263,13.932267 H 3.6839716 L 4.7153454,11.291803 C 3.6598206,10.668835 3.0007536,9.78618 3.0007536,8.8080659 c 0,-1.5609153 1.6787467,-2.8786689 3.9685133,-3.2860578 z m 6.2797621,8.4102589 h -2.049655 l -0.643941,-1.609726 c 0.627925,-0.153931 1.23297,-0.385526 1.788189,-0.708132 z M 6.8188953,5.9067713 c -1.7806899,0.3885764 -3.049506,1.3886812 -3.049506,2.5597493 0,0.7344435 0.4989089,1.4015192 1.3102543,1.8928004 z"
     style="clip-rule:evenodd;fill-rule:evenodd;stroke-width:0.12711;stroke-linejoin:round;stroke-miterlimit:2;fill:#2e3440;filter:url(#filter1024);opacity:0.47645951" /><path
     id="path468"
     fill="#ffffff"
     stroke="none"
     stroke-opacity="1"
     d="M 6.9692669,5.5220081 7.9541182,3.0007735 h 1.0247641 l 2.7525757,7.0463645 c -0.524203,0.338876 -1.154798,0.556108 -1.8143745,0.679533 L 8.4665007,7.1000838 6.8899502,11.041395 c 0.4929335,0.102325 1.0236199,0.157999 1.5765505,0.157999 2.5924163,0 4.6971103,-1.2245818 4.6971103,-2.7328734 0,-0.8301581 -0.637458,-1.5742625 -1.642902,-2.0755859 -0.09406,0.1215176 -0.241255,0.1998175 -0.406753,0.1998175 -0.283583,0 -0.513907,-0.2303239 -0.513907,-0.5139072 0,-0.2837104 0.230324,-0.5140344 0.513907,-0.5140344 0.264643,0 0.482892,0.2004531 0.510856,0.4577244 1.395926,0.6191548 2.307435,1.6373089 2.307435,2.7875309 0,0.9781141 -0.659067,1.8607691 -1.714591,2.4837371 -0.546067,0.330742 -1.157086,0.560176 -1.792003,0.706099 -0.6083509,0.146176 -1.2689432,0.226256 -1.9591523,0.226256 -0.69021,0 -1.3508024,-0.08008 -1.9591527,-0.226256 L 5.7336263,13.932267 H 3.6839716 L 4.7153454,11.291803 C 3.6598206,10.668835 3.0007536,9.78618 3.0007536,8.8080659 c 0,-1.5609153 1.6787467,-2.8786689 3.9685133,-3.2860578 z m 6.2797621,8.4102589 h -2.049655 l -0.643941,-1.609726 c 0.627925,-0.153931 1.23297,-0.385526 1.788189,-0.708132 z M 6.8188953,5.9067713 c -1.7806899,0.3885764 -3.049506,1.3886812 -3.049506,2.5597493 0,0.7344435 0.4989089,1.4015192 1.3102543,1.8928004 z"
     style="clip-rule:evenodd;fill-rule:evenodd;stroke-width:0.12711;stroke-linejoin:round;stroke-miterlimit:2;fill-opacity:1;fill:url(#linearGradient1094)" /></svg>
