<svg width="64" height="64" version="1.1" viewBox="0 0 16.933 16.933" xmlns="http://www.w3.org/2000/svg">
 <defs>
  <filter id="filter1178" x="-.047999" y="-.047999" width="1.096" height="1.096" color-interpolation-filters="sRGB">
   <feGaussianBlur stdDeviation="0.30691668"/>
  </filter>
  <linearGradient id="linearGradient1340" x1="8.355" x2="8.3996" y1="16.007" y2=".79375" gradientUnits="userSpaceOnUse">
   <stop stop-color="#d8dee9" offset="0"/>
   <stop stop-color="#eceff4" offset="1"/>
  </linearGradient>
  <radialGradient id="i" cx="265.28" cy="65.436" r="56" gradientTransform="matrix(.025097 .0067242 -.0067258 .025099 -.12136 6.5561)" gradientUnits="userSpaceOnUse">
   <stop stop-color="#eceff4" offset="0"/>
   <stop stop-color="#d8dee9" offset="1"/>
  </radialGradient>
  <linearGradient id="linearGradient926" x1="10.921" x2="5.2299" y1="5.7315" y2="13.76" gradientTransform="matrix(1.125 0 0 1.125 2.7642 -.32265)" gradientUnits="userSpaceOnUse">
   <stop stop-color="#5e81ac" offset="0"/>
   <stop stop-color="#88c0d0" offset="1"/>
  </linearGradient>
 </defs>
 <g stroke-linecap="round" stroke-linejoin="round">
  <rect transform="matrix(.99138 0 0 1 .072989 .0019055)" x=".79375" y=".90545" width="15.346" height="15.346" rx="3.0526" ry="3.0526" filter="url(#filter1178)" opacity=".15" stroke-width="1.2489" style="mix-blend-mode:normal"/>
  <rect x=".92604" y=".92604" width="15.081" height="15.081" rx="3" ry="3" fill="url(#linearGradient1340)" stroke-width="1.2274"/>
  <rect x=".01215" y=".0060174" width="16.924" height="16.927" fill="none" opacity=".15" stroke-width="1.052"/>
 </g>
 <g transform="matrix(1.178 0 0 1.178 -1.5083 -1.479)" stroke-width=".14112">
  <rect x="3.6761" y="3.6715" width="9.5959" height="9.5959" rx="4.798" ry="4.798" fill="#4c566a"/>
  <circle cx="8.4738" cy="8.4695" r="3.9513" fill="#81a1c1"/>
  <circle cx="8.4738" cy="8.4695" r="3.3868" fill="#3b4252"/>
  <circle transform="rotate(90)" cx="8.4695" cy="-8.4738" r="3.1046" fill="#88c0d0"/>
  <ellipse cx="8.4722" cy="8.4829" rx="1.4127" ry="1.4129" fill="#2e3440"/>
  <circle transform="rotate(-15)" cx="5.9884" cy="10.387" r="1.1305" fill="url(#i)"/>
 </g>
 <path d="m15.006 6.1023c-0.074346 0.0020211-0.16483 0.016058-0.2744 0.040824l-2.0598 0.41805-1.9921 0.39377c-0.35026 0.074873-0.41805 0.27027-0.40979 0.57928l0.005684 4.8234c-0.01592 0.339-0.052862 0.52516-0.44286 0.58755-1.3802 0.20543-1.6481 0.63294-1.6397 1.2407 0.0080599 0.58633 0.4686 1.0597 1.1121 1.0268 0.020756-0.001062 0.041916-0.002521 0.063044-0.00465 0.037062-0.004123 0.073676-0.008931 0.10955-0.013953 0.035876-0.005021 0.070737-0.010484 0.10542-0.016536s0.068841-0.012423 0.10232-0.019637c0.43519-0.093779 0.76854-0.2918 0.98907-0.73741 0.1051-0.20656 0.14071-0.63576 0.11472-1.0707l-0.005684-3.8369c0.0012-0.26857-0.044323-0.41814 0.3116-0.49195l2.1425-0.43201v-5.167e-4l1.2722-0.25631c0.20687-0.041724 0.30431 0.028633 0.30747 0.26199l-5.17e-4 5.167e-4 0.005684 2.8664c-0.01592 0.339-0.048738 0.49416-0.43872 0.55654-1.3802 0.20543-1.6522 0.66405-1.6438 1.2717 0.0083 0.60524 0.50712 1.0594 1.1834 0.99114 0.59299-0.06596 1.0188-0.21944 1.2903-0.7679 0.10509-0.20657 0.11419-0.6166 0.12299-1.0593l-0.004134-5.8698c-1.61e-4 -0.34386-0.061067-0.48832-0.32659-0.4811z" fill="url(#linearGradient926)" stroke="#2e3440" stroke-width=".12806"/>
</svg>
