<svg width="64" height="64" version="1.1" viewBox="0 0 16.933 16.933" xmlns="http://www.w3.org/2000/svg">
 <defs>
  <filter id="filter1178" x="-.047999" y="-.047999" width="1.096" height="1.096" color-interpolation-filters="sRGB">
   <feGaussianBlur stdDeviation="0.30691668"/>
  </filter>
  <linearGradient id="linearGradient1340" x1="8.8037" x2="8.8037" y1="43.083" y2="1.0036" gradientUnits="userSpaceOnUse">
   <stop stop-color="#b48ead" offset="0"/>
   <stop stop-color="#eceff4" offset="1"/>
  </linearGradient>
  <linearGradient id="linearGradient641" x1="80.465" x2="80.465" y1="8.0864" y2="33.265" gradientUnits="userSpaceOnUse">
   <stop stop-color="#2e3440" stop-opacity="0" offset="0"/>
   <stop stop-color="#eceff4" stop-opacity=".3" offset=".55166"/>
   <stop stop-color="#2e3440" stop-opacity="0" offset="1"/>
  </linearGradient>
  <filter id="filter1251" x="-.045139" y="-.051248" width="1.0903" height="1.1025" color-interpolation-filters="sRGB">
   <feGaussianBlur stdDeviation="0.23205564"/>
  </filter>
 </defs>
 <rect transform="matrix(.99138 0 0 1 .072989 .0019055)" x=".79375" y=".90545" width="15.346" height="15.346" rx="3.0526" ry="3.0526" filter="url(#filter1178)" opacity=".15" stroke-linecap="round" stroke-linejoin="round" stroke-width="1.2489" style="mix-blend-mode:normal"/>
 <rect x=".92604" y=".92604" width="15.081" height="15.081" rx="3" ry="3" fill="url(#linearGradient1340)" stroke-linecap="round" stroke-linejoin="round" stroke-width="1.2274"/>
 <path d="m8.4678 3.0328c-0.49763 0-0.88137 0.042888-1.3394 0.14883-1.1112 0.25706-2.0433 0.83268-2.6458 1.587v5.168e-4c-0.060153 0.075325-0.11711 0.15225-0.17053 0.23099v5.167e-4c-0.26736 0.39417-0.44897 0.82958-0.52502 1.2883-0.03319 0.20017-0.042364 0.3331-0.042374 0.62321v0.26871l-0.053743 0.028938c-0.07785 0.041891-0.20836 0.12838-0.28576 0.18965-0.025962 0.02055-0.058093 0.049085-0.092499 0.08113-0.10356 0.096485-0.2309 0.23035-0.29817 0.31625-0.060194 0.07687-0.11747 0.15826-0.17104 0.24391v5.168e-4c-0.23205 0.37105-0.39964 0.81894-0.48213 1.295-0.23355 1.3479 0.18789 2.738 1.0361 3.4178 0.088803 0.07117 0.17628 0.13142 0.26613 0.18241 0.035942 0.0204 0.072084 0.03931 0.10904 0.05684 0.05542 0.02629 0.11252 0.04985 0.17156 0.07028 0.033578 0.01162 0.068189 0.02214 0.10335 0.03204 0.00589 0.0017 0.01163 0.0036 0.017569 0.0052h5.17e-4c0.083012 0.02248 0.1709 0.04041 0.26561 0.05478 0.01415 0.0021 0.059342 0.0049 0.10025 0.0057l0.074413 1e-3v-0.0067c0.00137 4.02e-4 0.00276 6.52e-4 0.00413 1e-3 0.00138 3.82e-4 0.00275 6.75e-4 0.00413 1e-3 0.00831 0.0021 0.01677 0.0039 0.025321 0.0052 0.0116 0.0017 0.023165 0.0026 0.035139 0.0026h0.45784c0.0052 0 0.010374-1.89e-4 0.015503-5.17e-4 0.00513-3.28e-4 0.010442-3.85e-4 0.015502-1e-3 0.00923-0.0012 0.017914-0.0035 0.026872-0.0057 8.66e-4 -2.14e-4 0.00172-2.93e-4 0.00258-5.16e-4 1.62e-4 -4.2e-5 3.55e-4 4.1e-5 5.17e-4 0 8.71e-4 -2.27e-4 0.00172-7.97e-4 0.00258-1e-3 0.00873-0.0024 0.01741-5e-3 0.025838-0.0083 0.00942-0.0037 0.018915-0.0076 0.027904-0.0124 0.00548-0.0029 0.010717-0.0065 0.01602-0.0098 0.00592-0.0037 0.011881-0.0077 0.017569-0.01189 0.00326-0.0024 0.00664-0.0047 0.00982-0.0072 0.067647-0.05428 0.11668-0.14234 0.13332-0.24546 2.7e-5 -1.65e-4 -2.6e-5 -3.51e-4 0-5.16e-4 0.00399-0.02487 0.0062-0.05058 0.0062-0.077v-0.12307l0.13022 0.13436c0.47496 0.48998 0.7686 0.6666 1.1704 0.70485 0.060976 0.0058 0.15312 0.01797 0.20464 0.02687 0.15536 0.02688 0.24271 8.07e-4 0.37981-0.11317 0.12441-0.10342 0.1564-0.12316 0.21084-0.12816 0.02676-0.0025 0.066312 0.0012 0.087332 0.0078 0.054603 0.01726 0.16676 0.12306 0.28318 0.26664 0.15834 0.19528 0.29517 0.30454 0.41754 0.33382h5.17e-4c0.053601 0.01282 0.14578 0.0055 0.20774-0.01705 0.085351-0.03106 0.16562-0.08953 0.31729-0.23099l0.14521-0.13591 0.018086 0.02635c0.03379 0.04939 0.10182 0.11336 0.14056 0.13229 0.10778 0.05266 0.18984-1.4e-4 0.35294-0.22737 0.11212-0.15619 0.14568-0.19392 0.19792-0.22324 0.083781-0.04703 0.15352-0.01992 0.23099 0.08991l0.044957 0.06356 0.11627 0.03979c0.48076 0.16465 0.74879 0.1592 0.92086-0.01912 0.08491-0.08799 0.1377-0.2059 0.17156-0.38446 0.01081-0.05692 0.02717-0.12306 0.03617-0.14728 0.03704-0.09947 0.1246-0.20937 0.23771-0.29765 0.04221-0.03295 0.13893-0.10006 0.20928-0.14676v0.36793c0 0.01321 5.07e-4 0.02642 0.0016 0.03927 1e-3 0.01285 0.0026 0.02529 0.0046 0.03772v5.16e-4c0.01629 0.09949 0.06343 0.18454 0.12867 0.23926 0.0041 0.0034 0.0082 0.0066 0.0124 0.0098s0.0086 0.0064 0.01292 0.0093c0.03913 0.02636 0.08355 0.042 0.13074 0.04496 0.0052 3.17e-4 0.01028 5.17e-4 0.0155 5.17e-4h0.46766c0.0079 0 0.01598-2.89e-4 0.02377-1e-3 0.02343-0.0022 0.04606-0.0077 0.0677-0.01602v0.01705l0.11007-0.0067c0.16706-0.01028 0.33128-0.04692 0.48937-0.108 0.27648-0.10691 0.53534-0.28823 0.76066-0.53277 0.06441-0.06991 0.12584-0.14534 0.18448-0.2253 0.08797-0.11995 0.16934-0.2506 0.24236-0.3917 0.08072-0.15599 0.14913-0.31594 0.20618-0.48213 0.0095-0.0277 0.01851-0.05511 0.02739-0.0832 0.07993-0.25276 0.13447-0.52182 0.16691-0.8175 0.02383-0.21716 0.02394-0.65607 0-0.87486-0.03258-0.29782-0.08787-0.56787-0.16898-0.82267v-5.797e-4c-0.063085-0.19814-0.14237-0.38694-0.23872-0.57256v-5.168e-4c-0.1763-0.33955-0.42107-0.64039-0.68987-0.85419-0.0448-0.035642-0.09051-0.068634-0.13642-0.099217-0.02283-0.015208-0.0457-0.030049-0.06873-0.043924h-5.17e-4c-0.02302-0.013864-0.04607-0.027314-0.06924-0.03979h-5.17e-4l-0.05374-0.028938v-0.26871c-3e-6 -0.072544-7.05e-4 -0.13529-0.0021-0.19172-0.0014-0.056421-0.0035-0.10618-0.0067-0.15348-0.0064-0.094604-0.01699-0.17797-0.03359-0.27801-0.01372-0.082698-0.03159-0.16701-0.05323-0.25114v-5.167e-4c-0.043304-0.16838-0.10158-0.33751-0.17206-0.49867l-5.17e-4 -5.168e-4c-0.0095-0.021659-0.01955-0.042726-0.02946-0.064077-0.0085-0.018237-0.01655-0.037309-0.02532-0.055293-0.01912-0.039206-0.03894-0.077431-0.05943-0.11524-0.04041-0.074564-0.0839-0.14791-0.12971-0.21962-0.04581-0.071708-0.09422-0.14212-0.14521-0.21084-0.01103-0.014859-0.02284-0.029209-0.03411-0.043924-0.04075-0.053234-0.08232-0.1063-0.12609-0.15761-0.02789-0.032694-0.0567-0.064742-0.08578-0.096633v-5.167e-4c-0.05826-0.06388-0.11902-0.12599-0.1819-0.18655h-5.17e-4c-0.12584-0.12118-0.26055-0.23608-0.40357-0.34312h-5.17e-4c-0.35787-0.2678-0.76674-0.48936-1.2128-0.65679-0.40134-0.1506-0.83308-0.2574-1.2847-0.31367-0.24762-0.030859-0.42846-0.04134-0.73586-0.04134zm0 0.77151c0.10113 0 0.20261 9.237e-4 0.28835 0.0031 0.042867 0.00109 0.08199 0.0025 0.11524 0.00413 0.032961 0.00163 0.060447 0.00352 0.080097 0.00568 0.044904 0.00494 0.09212 0.010845 0.13952 0.017053 0.047407 0.00622 0.094873 0.01262 0.14159 0.019637h5.17e-4c0.093425 0.014003 0.1822 0.029061 0.25373 0.043407 0.045035 0.00903 0.089675 0.019104 0.13436 0.029455 0.089364 0.020703 0.17804 0.043963 0.26561 0.069762 0.56916 0.16768 1.0946 0.4401 1.5069 0.78547l5.16e-4 5.168e-4c0.03609 0.030233 0.07657 0.066344 0.11885 0.10593 0.12688 0.11877 0.26813 0.26639 0.34364 0.36121 0.0609 0.07647 0.11898 0.15805 0.1726 0.24339v5.168e-4c0.05352 0.08523 0.10269 0.17391 0.14676 0.26354 0.02206 0.044874 0.04325 0.089729 0.06253 0.13487v5.168e-4c0.02893 0.067727 0.05458 0.13529 0.07648 0.20205 0.0146 0.044505 0.02711 0.088387 0.03824 0.13177 0.0056 0.021693 0.01085 0.043286 0.0155 0.064594 0.02558 0.11725 0.03907 0.14531 0.04651 0.42942 3.2e-5 0.00119-3.2e-5 0.00242 0 0.00362 0.0024 0.094342 0.0043 0.21598 0.0057 0.37878-0.01151-0.00394-0.02312-0.00703-0.03514-0.0093-1e-3 -1.976e-4 -0.0021-3.317e-4 -0.0031-5.167e-4 -6.9e-4 -1.216e-4 -0.0014-4.009e-4 -0.0021-5.168e-4 -6.71e-4 -1.149e-4 -0.0014 1.095e-4 -0.0021 0-0.013-0.00207-0.02633-0.00362-0.03979-0.00362h-0.46766c-0.01593 0-0.03124 0.00177-0.04651 0.00465-0.0052 9.737e-4 -0.01041 0.00181-0.0155 0.0031-0.015 0.0038-0.0293 0.0091-0.04341 0.015503-0.0047 0.00215-0.0093 0.0043-0.01395 0.00672-0.01377 0.00722-0.02714 0.015785-0.03979 0.025321-0.08007 0.060387-0.13582 0.16472-0.14572 0.2868v5.168e-4c-1e-3 0.012689-0.0016 0.025724-0.0016 0.038756v1.4702l-0.05313-0.065111c-0.28988-0.35393-0.44334-0.48623-0.62682-0.54001l-0.06821-0.019637-0.06253 0.020153c-0.0771 0.024865-0.11772 0.025195-0.17208 0.00155-0.12384-0.053871-0.17519-0.20006-0.22582-0.64646-0.04009-0.35346-0.06784-0.4917-0.11834-0.58652-0.01145-0.0215-0.02489-0.087434-0.03514-0.1726-0.0091-0.075789-0.02548-0.17428-0.03669-0.2191-0.05689-0.22773-0.12677-0.22433-0.24804 0.012402-0.072744 0.14199-0.18853 0.44292-0.19843 0.5152-0.03279 0.23884-0.13435 0.42263-0.25166 0.45629-0.16674 0.047845-0.40058-0.15476-0.58445-0.5059-0.030803-0.058819-0.076-0.13066-0.10025-0.15916-0.046724-0.054943-0.10711-0.15274-0.21238-0.34571-0.09205-0.16873-0.16591-0.27346-0.2098-0.2961l-0.03669-0.018603-0.030488 0.028421c-0.03239 0.02973-0.061585 0.10091-0.086815 0.21239-0.01779 0.078615-0.20847 0.57167-0.26975 0.69762-0.055411 0.11389-0.1071 0.182-0.15348 0.20308-0.03132 0.014255-0.039332 0.014759-0.069762 0.00258-0.067977-0.027203-0.13003-0.15062-0.20257-0.40307-0.047094-0.1639-0.085163-0.24058-0.13177-0.26665-0.052534-0.029386-0.088572-0.015718-0.17311 0.065628-0.077544 0.074614-0.1317 0.1484-0.30334 0.4134-0.15804 0.24401-0.22316 0.3225-0.34416 0.41495-0.46238 0.35333-0.81969 0.8576-1.1172 1.5756-0.02293 0.055314-0.045641 0.10466-0.050641 0.10955-0.0053 0.00524-0.02848-0.00508-0.05581-0.024804l-0.00258-0.00207v-1.9275c0-0.013382-5.01e-4 -0.026254-0.00155-0.039273-0.00102-0.012853-0.00266-0.025287-0.00465-0.037723-0.015928-0.099347-0.061822-0.18452-0.12557-0.23926-1.04e-4 -8.94e-5 -4.12e-4 8.92e-5 -5.17e-4 0-0.00247-0.00211-0.00472-0.00418-0.00723-0.0062-0.00318-0.00254-0.00656-0.00484-0.00982-0.00723-0.00241-0.00178-0.00478-0.00399-0.00723-0.00568-1.22e-4 -8.39e-5 -3.95e-4 8.36e-5 -5.17e-4 0-0.00322-0.00222-0.00653-0.00413-0.00982-0.0062-0.014006-0.00878-0.028773-0.016779-0.043924-0.022737-0.00843-0.00331-0.017106-0.00589-0.025838-0.00827-8.68e-4 -2.365e-4 -0.00171-8.066e-4 -0.00258-0.00103-1.63e-4 -4.22e-5 -3.54e-4 4.18e-5 -5.17e-4 0-0.00141-3.644e-4 -0.00272-6.942e-4 -0.00413-0.00103-0.0034-8.095e-4 -0.00689-0.0014-0.010335-0.00207-0.00498-9.613e-4 -0.00992-0.00194-0.014986-0.00258-0.010121-0.0013-0.020605-0.00207-0.031005-0.00207h-0.45784c-0.0104 0-0.020367 7.695e-4 -0.030489 0.00207-0.00995 0.00128-0.019822 0.00322-0.029455 0.00568 1.1e-5 -0.00182-1.1e-5 -0.00181 0-0.00362 0.00137-0.22956 0.00278-0.36812 0.00517-0.45578 1.3e-5 -4.635e-4 -1.3e-5 -5.728e-4 0-0.00103 0.00119-0.043582 0.0026-0.07428 0.00413-0.09715v-5.167e-4c0.00155-0.022907 0.00374-0.037805 0.00568-0.049608 0.00586-0.0355 0.01215-0.070747 0.01912-0.10542 0.00694-0.034504 0.014163-0.068599 0.022221-0.10232v-5.167e-4c0.11342-0.47429 0.33871-0.87267 0.70175-1.2464 0.11192-0.11522 0.22739-0.21963 0.34881-0.31625 0.08066-0.06417 0.1645-0.12529 0.25166-0.18293l5.17e-4 -5.167e-4c0.13123-0.08675 0.27048-0.16661 0.42167-0.24236 0.50973-0.25538 1.0343-0.40286 1.6888-0.4749 0.079104-0.00871 0.28142-0.012919 0.48368-0.012919z" fill="#2e3440" filter="url(#filter1251)" opacity=".15" stroke-width=".01007"/>
 <rect x=".01215" y=".0060174" width="16.924" height="16.927" fill="none" opacity=".15" stroke-linecap="round" stroke-linejoin="round" stroke-width="1.052"/>
 <g transform="matrix(.40022 0 0 .40022 -23.988 -.20709)">
  <g stroke-width=".025162">
   <path d="m80.469 35.233c-0.30575-0.07315-0.64794-0.34691-1.0436-0.83484-0.29089-0.35876-0.57183-0.62297-0.70826-0.6661-0.05252-0.01659-0.15021-0.02515-0.21708-0.019-0.13602 0.01252-0.21683 0.06151-0.52768 0.31993-0.34257 0.28478-0.56082 0.34978-0.94902 0.28261-0.12871-0.02227-0.35867-0.05235-0.51102-0.06685-1.0041-0.09557-1.7372-0.53723-2.9239-1.7615l-0.42422-0.43764-0.01285 0.26878c-0.01207 0.25229-0.01784 0.27557-0.09404 0.37959-0.22917 0.31279-0.59069 0.51292-0.99222 0.54926l-0.12212 0.01105v-14.547l0.08356 4.29e-4c0.27745 0.0015 0.8103 0.20101 1.0192 0.38176l0.10564 0.09141 7.95e-4 2.3673 7.94e-4 2.3673 0.11611 0.08379c0.06829 0.04928 0.1254 0.07464 0.13865 0.06156 0.0124-0.01223 0.0694-0.13532 0.12667-0.27353 0.74343-1.794 1.6369-3.0536 2.7922-3.9364 0.30232-0.23102 0.46496-0.42713 0.85984-1.0368 0.42886-0.66215 0.5642-0.8466 0.75795-1.033 0.21123-0.20325 0.30162-0.23751 0.43288-0.16409 0.11645 0.06514 0.21093 0.2567 0.32861 0.66622 0.18125 0.63078 0.33596 0.93867 0.5058 1.0066 0.07602 0.03042 0.09709 0.02972 0.17536-0.0059 0.11588-0.05267 0.24418-0.22278 0.38262-0.50734 0.1531-0.3147 0.62952-1.5473 0.67397-1.7438 0.06303-0.27854 0.13564-0.45645 0.21659-0.53073l0.0771-0.07074 0.091 0.04691c0.10967 0.05657 0.29515 0.31767 0.52515 0.73925 0.26303 0.48215 0.41342 0.72744 0.53017 0.86472 0.0606 0.0712 0.17306 0.2497 0.25002 0.39667 0.45942 0.87737 1.0446 1.3836 1.4613 1.2641 0.29311-0.08412 0.54597-0.54318 0.6279-1.14 0.0248-0.18062 0.31477-0.93224 0.49653-1.287 0.30302-0.5915 0.47666-0.60027 0.6188-0.03125 0.028 0.11199 0.0695 0.35856 0.0922 0.54793 0.0256 0.21279 0.0591 0.37751 0.0877 0.43123 0.12619 0.23692 0.19596 0.58214 0.29613 1.4653 0.1265 1.1154 0.25399 1.481 0.56342 1.6156 0.13583 0.05908 0.23769 0.05813 0.43034-4e-3l0.15693-0.05064 0.17006 0.04985c0.45846 0.13437 0.84183 0.46456 1.5661 1.3489l0.32653 0.39866 0.014-3.9069 0.10548-0.09128c0.20875-0.18063 0.74169-0.38022 1.019-0.38163l0.0836-4.28e-4v14.547l-0.12212-0.01105c-0.4127-0.03737-0.78919-0.25388-1.0185-0.58576l-0.0678-0.09806v-0.57296c0-0.31513-5e-3 -0.57296-0.0112-0.57296-0.0247 0-0.55284 0.359-0.71948 0.48907-0.28261 0.22058-0.50159 0.49442-0.59414 0.74297-0.0225 0.0605-0.063 0.22636-0.09 0.36856-0.0846 0.44616-0.21574 0.74054-0.42788 0.96039-0.42993 0.44557-1.0999 0.4596-2.3011 0.04821l-0.29128-0.09975-0.11245-0.15942c-0.19357-0.27444-0.36683-0.34193-0.57617-0.22443-0.13052 0.07326-0.21463 0.1682-0.49477 0.55848-0.40753 0.56777-0.61276 0.70003-0.88205 0.56844-0.0968-0.0473-0.26673-0.20737-0.35116-0.33078l-0.0451-0.0659-0.36336 0.33889c-0.37896 0.35345-0.57969 0.49955-0.79295 0.57716-0.15478 0.05633-0.38443 0.07564-0.51836 0.0436z" fill="#ebcb8b"/>
   <path d="m80.857 33.796c-8e-3 -0.03386-0.0678-0.72089-0.13298-1.5267-0.06518-0.80584-0.12385-1.4802-0.13038-1.4987-0.0085-0.02405-0.1992-2.1983-0.219-2.4973-0.0011-0.01662-0.10708 0.26344-0.2355 0.62234l-0.2335 0.65256-0.01893 0.44324c-0.01041 0.24379-0.03716 1.0472-0.05945 1.7853-0.02228 0.73812-0.04163 1.3476-0.04298 1.3544-0.0014 0.0068-0.26176-0.95174-0.57868-2.13-0.49313-1.8335-0.90569-3.3541-0.9817-3.6183-0.0153-0.05319-0.05002 0.14577-0.13105 0.75105-0.06063 0.45288-0.12584 0.90098-0.14492 0.99578-0.01907 0.0948-0.13083 0.88543-0.24835 1.7569-0.13369 0.99141-0.22076 1.5629-0.23261 1.5267-0.01042-0.03181-0.16446-0.85-0.3423-1.8182-0.17785-0.96819-0.33605-1.8009-0.35156-1.8505-0.01908-0.06099-0.10201-0.16052-0.25631-0.30762l-0.22811-0.21746-0.0037 0.60279c-2e-3 0.33154-0.01072 1.2781-0.01928 2.1036l-0.01557 1.5008-0.34967-1.5623c-0.31561-1.4101-0.3597-1.5827-0.45268-1.7716-0.05666-0.11512-0.15962-0.34727-0.22882-0.51589l-0.1258-0.30658-0.0158 0.68826c-0.0087 0.37854-0.01851 1.3088-0.02183 2.0672l-6e-3 1.379-0.25244-1.182c-0.31352-1.4679-0.43453-2.0131-0.4502-2.0281-0.0067-0.0064-0.01239 0.0373-0.01267 0.09711-2.81e-4 0.05981-0.01146 0.18123-0.02484 0.2698s-0.06507 0.62494-0.11486 1.1919c-0.04979 0.56699-0.0943 1.0345-0.09891 1.0389-0.0046 0.0044-0.1626-0.48763-0.35109-1.0934l-0.34271-1.1015-0.2369-0.20417-0.02774 3.2126-0.08548 0.12759c-0.20208 0.30162-0.65383 0.54544-1.0106 0.54544h-0.09744v-14.533l0.16069 0.01766c0.31281 0.03437 0.70921 0.18707 0.92228 0.35529l0.09126 0.07205 0.03238 6.7634 0.06728 0.1966c0.03701 0.10813 0.1936 0.64924 0.34798 1.2025 0.15438 0.55323 0.28346 1.0131 0.28684 1.0219 0.0034 0.0088 0.01206-0.68606 0.01928-1.5442l0.01314-1.5603 0.34709 0.55421c0.1909 0.30481 0.35253 0.54924 0.35918 0.54318 0.0066-0.0061 0.11694-0.96616 0.24509-2.1335l0.233-2.1225 0.10956 1.2804c0.06026 0.70424 0.12616 1.4134 0.14644 1.5759 0.02029 0.16252 0.07785 0.77753 0.12792 1.3667 0.05007 0.58915 0.09371 1.0933 0.09699 1.1204 0.0033 0.02709 0.1373-0.2444 0.29784-0.60331 0.16054-0.3589 0.325-0.71586 0.36547-0.79323l0.07358-0.14068 0.10385-2.4326c0.05712-1.3379 0.11156-2.5157 0.12099-2.6173 0.01391-0.14991 0.05691 0.2693 0.22836 2.2262 0.11617 1.326 0.22355 2.5025 0.23863 2.6143 0.02455 0.18211 0.05152 0.24939 0.25768 0.64253 0.1298 0.24754 0.23586 0.423 0.2431 0.40218 0.0071-0.02032 0.04919-0.47464 0.09363-1.0096 0.04443-0.53497 0.09276-1.0634 0.1074-1.1743 0.01464-0.11091 0.14004-1.485 0.27868-3.0535s0.25334-2.846 0.2549-2.839c0.0016 0.0071 0.23404 1.5584 0.51662 3.4475 0.28259 1.8891 0.53018 3.5233 0.55019 3.6317 0.02001 0.10835 0.10973 0.69326 0.19937 1.2998s0.16687 1.0916 0.17163 1.078c0.01262-0.03625 0.32206-2.28 0.91205-6.6132 0.32817-2.4103 0.52211-3.7624 0.52627-3.6691 0.0036 0.08126 0.04185 1.5107 0.08494 3.1766 0.0431 1.6659 0.08842 3.3003 0.10073 3.6321 0.01231 0.33182 0.03071 0.99453 0.0409 1.4727 0.01019 0.47816 0.02698 0.86046 0.03731 0.84955s0.11815-0.30794 0.2396-0.66008c0.19205-0.55683 0.23264-0.70601 0.31158-1.145 0.04991-0.27764 0.10305-0.54913 0.11808-0.6033 0.01503-0.05418 0.19345-1.0072 0.39649-2.1177 0.20304-1.1106 0.37014-2.002 0.37134-1.981 0.0022 0.03864 0.48618 3.1323 0.78706 5.0309 0.08983 0.56689 0.16724 1.0344 0.172 1.039 0.01044 0.01 0.46668-1.766 0.50332-1.9593 0.01416-0.07468 0.1741-1.3682 0.35544-2.8744 0.18133-1.5063 0.33682-2.7306 0.34552-2.7207s0.14581 1.2757 0.30468 2.8129 0.30474 2.9057 0.32414 3.0412c0.01941 0.13544 0.04759 0.36814 0.06263 0.51712 0.02383 0.23606 0.24883 1.2116 0.27391 1.1876 0.0049-0.0047 0.08489-0.28374 0.17772-0.62005 0.09282-0.33632 0.17803-0.6293 0.18934-0.65108s0.19885-0.69141 0.41675-1.4881c0.30383-1.1108 0.40039-1.4323 0.41427-1.379 0.01 0.03822 0.06621 0.73989 0.12502 1.5593 0.0929 1.2943 0.11319 1.4995 0.15463 1.5637 0.02623 0.04063 0.13727 0.24009 0.24676 0.44324 0.13681 0.25386 0.20182 0.35298 0.20789 0.31696 0.0049-0.02883 0.04362-0.25599 0.08615-0.50481s0.14265-0.8481 0.22249-1.3317c0.07984-0.48364 0.15037-0.87434 0.15675-0.86824 0.0064 0.0062 0.04513 0.5237 0.08612 1.1502 0.14567 2.2264 0.16175 2.4526 0.1753 2.4656 0.0075 0.0072 0.08784-0.17747 0.17845-0.41041s0.19054-0.4734 0.22208-0.53435l0.05733-0.11081 0.03754-6.959 0.09161-0.07232c0.21341-0.16848 0.6096-0.32117 0.92262-0.35556l0.16069-0.01766v14.533h-0.09744c-0.35206 0-0.80853-0.24386-1.0048-0.5368l-0.07969-0.11895-0.03482-3.3285-0.13504-0.24256c-0.07427-0.13341-0.17321-0.31182-0.21987-0.39647-0.04666-0.08464-0.09208-0.1539-0.10093-0.1539-0.0089 0-0.0284 0.1025-0.04343 0.22778-0.03383 0.28186-0.20898 1.6761-0.21268 1.6929-0.0015 0.0068-0.10541-0.30904-0.23095-0.7018s-0.25586-0.79168-0.2896-0.88649c-0.03374-0.0948-0.08877-0.2641-0.12228-0.37622-0.03441-0.11512-0.06862-0.19014-0.07862-0.17237-0.0097 0.01731-0.04289 0.14228-0.07369 0.27772s-0.06654 0.26841-0.07943 0.2955c-0.01288 0.02709-0.24414 0.9856-0.5139 2.13s-0.4988 2.1009-0.50898 2.1255c-0.01018 0.02459-0.06229-0.93947-0.11579-2.1423-0.0535-1.2029-0.11061-2.3622-0.1269-2.5762l-0.02963-0.38917-0.06191 0.11668c-0.03405 0.06418-0.07713 0.13125-0.09573 0.14907-0.0186 0.01781-0.05813 0.09464-0.08785 0.17072s-0.15104 0.32265-0.26959 0.54792l-0.21555 0.40958-0.10596 1.8838c-0.05827 1.0361-0.11423 1.9267-0.12435 1.9792-0.01518 0.07874-0.08428-0.2047-0.39618-1.6252-0.41396-1.8853-0.78914-3.5799-0.8-3.6135-0.0038-0.01178-0.07923 0.28741-0.16759 0.66487s-0.16982 0.7029-0.18102 0.72322-0.20455 0.81535-0.42966 1.7668c-0.22511 0.9514-0.41508 1.7298-0.42215 1.7299-0.0071 0-0.08613-0.72297-0.17568-1.6067-0.1393-1.3746-0.19911-1.9491-0.30188-2.8996l-0.01731-0.16006-0.18501 0.72643c-0.10176 0.39954-0.19246 0.74305-0.20157 0.76337-0.0091 0.02032-0.24319 0.94559-0.52018 2.0562-0.27699 1.1106-0.50738 2.0303-0.51197 2.0438-0.0046 0.01354-0.01487-3e-3 -0.02282-0.03694z" fill="#d08770"/>
   <path d="m71.943 25.842v-7.2667l0.16069 0.01707c0.29832 0.03168 0.71609 0.19311 0.92347 0.35682l0.09001 0.07105 0.03362 6.9824 0.05815 0.05218c0.0464 0.04164 0.1179 0.26826 0.35382 1.1214l0.29567 1.0692 0.0067-0.89264c0.0037-0.49096 0.01163-0.89265 0.01761-0.89265 6e-3 0 0.16491 0.09279 0.3532 0.20622l0.34234 0.20622 0.35704-1.025c0.19637-0.56375 0.36124-1.0296 0.36637-1.0353 0.0051-0.0057 0.01428-0.0056 0.02032 2.58e-4 6e-3 0.0058 0.05839 0.55892 0.11634 1.2292s0.10821 1.2353 0.1117 1.2556c0.0035 0.02032 0.1528-0.28996 0.33179-0.68949 0.179-0.39954 0.33654-0.72643 0.3501-0.72643s0.07931 0.0636 0.14612 0.14132c0.06681 0.07773 0.1315 0.13538 0.14375 0.12813 0.01225-0.0072 0.1109-0.15703 0.2192-0.33283 0.10831-0.1758 0.2053-0.32459 0.21553-0.33065 0.01023-0.0061 0.02491 0.04752 0.03262 0.11907 0.01052 0.0976 0.07068 0.23884 0.24101 0.56573 0.12484 0.23961 0.2332 0.43565 0.24078 0.43565 0.0076 0 0.05774-0.5125 0.11145-1.1389l0.09767-1.1389 0.13234-0.21547c0.07279-0.11851 0.13848-0.21545 0.14599-0.21544 0.0075 1.4e-5 0.1165 0.59008 0.24221 1.3113 0.12571 0.72118 0.23587 1.3192 0.2448 1.329 0.0089 0.0098 0.11858-0.3753 0.24365-0.85571s0.23224-0.87347 0.23814-0.87347 0.08534 0.14682 0.17652 0.32628l0.1658 0.32628 0.18666 1.2629c0.11848 0.8016 0.19282 1.2378 0.20352 1.1943 0.0093-0.03771 0.09503-0.65585 0.19056-1.3737 0.09554-0.71781 0.18161-1.3138 0.19127-1.3245 0.0097-0.01066 0.07924 0.13339 0.15462 0.32012s0.19473 0.46512 0.26522 0.61864l0.12817 0.27912 0.14678-0.56231c0.16762-0.64213 0.48336-1.7521 0.51289-1.8031 0.01089-0.0188 0.0287 0.34134 0.03958 0.8003 0.01088 0.45897 0.02688 1.0949 0.03556 1.4132l0.01577 0.57868 0.23818-0.67823c0.21912-0.62394 0.24634-0.72327 0.34-1.2409 0.056-0.30945 0.10608-0.56672 0.11129-0.5717 0.0052-5e-3 0.12364 0.34654 0.26318 0.78118l0.25371 0.79025 0.42505-0.81464c0.23378-0.44805 0.43117-0.81464 0.43865-0.81464 0.0075 0 0.08075 0.44047 0.16281 0.97883 0.08207 0.53836 0.1571 1.004 0.16675 1.0348 0.01205 0.03846 0.09131-0.23119 0.25333-0.86186 0.12969-0.50481 0.24548-0.9677 0.25732-1.0287 0.02005-0.10318 0.03652-0.04848 0.23921 0.79415 0.11972 0.49773 0.22378 0.90496 0.23124 0.90496 0.0075 0 0.20304-0.32722 0.43463-0.72714 0.23159-0.39993 0.42475-0.72362 0.42924-0.71932 0.0045 0.0043 0.02733 0.1871 0.05075 0.40621 0.03062 0.28644 0.07637 0.52768 0.16281 0.85847l0.12022 0.46008 0.16361-0.60086c0.08999-0.33048 0.17077-0.62019 0.17952-0.64382 0.0099-0.02672 0.08264 0.1503 0.1923 0.46787 0.09702 0.28096 0.18108 0.51584 0.1868 0.52197 0.0057 0.0062 0.18836-0.15903 0.40585-0.36702l0.39545-0.37816 0.19652 0.3758c0.10808 0.2067 0.20014 0.37185 0.20456 0.36702 0.0044-0.0049 0.03999-0.21379 0.07904-0.46434 0.03905-0.25056 0.07853-0.46371 0.08774-0.47367 0.0092-0.01 0.11869 0.07998 0.24329 0.19988l0.22655 0.21799 0.0425 0.6908c0.02338 0.37994 0.0493 0.69727 0.0576 0.70517s0.08271-0.1602 0.16535-0.37357c0.21735-0.56117 0.21506-0.55642 0.25362-0.52576 0.02693 0.02141 0.03628-0.42179 0.05019-2.3783 0.0094-1.3225 0.01709-2.9283 0.01709-3.5684v-1.1638l0.09549-0.07539c0.21724-0.17151 0.61114-0.32397 0.9265-0.35862l0.16069-0.01766v14.533h-0.09744c-0.35321 0-0.80852-0.24385-1.0062-0.53889l-0.0811-0.12104-0.0365-3.9716-0.08999 0.06438c-0.17751 0.12701-0.16917 0.12907-0.27456-0.06791l-0.09581-0.17908-0.01982 0.17237c-0.04269 0.37122-0.04464 0.37754-0.13757 0.44542l-0.08757 0.06397-0.21297-0.06715c-0.11713-0.03693-0.22579-0.07681-0.24146-0.0886-0.01567-0.0118-0.07852-0.18227-0.13967-0.37883-0.06115-0.19655-0.11893-0.34887-0.1284-0.33847-0.0095 0.0104-0.03739 0.11092-0.06204 0.22338-0.02465 0.11247-0.05556 0.24176-0.0687 0.28732l-0.02388 0.08284-0.30147-0.09763c-0.16576-0.0537-0.45183-0.17191-0.63566-0.26269l-0.33424-0.16507-0.02572-0.34196-0.06302 0.12946c-0.04671 0.09596-0.07441 0.12661-0.10705 0.11843-0.04738-0.01186-0.07321 0.04393-0.07383 0.15947-3.02e-4 0.05632-0.44464 0.95652-0.47214 0.95652-0.0055 0-0.06034-0.24378-0.12188-0.54174s-0.11801-0.5417-0.12549-0.54166c-0.0075 4.9e-5 -0.18024 0.36018-0.38392 0.8003s-0.37748 0.80022-0.38622 0.80022c-0.0087 0-0.03559-0.09142-0.05965-0.20315-0.21588-1.0024-0.36315-1.6673-0.36815-1.6622-0.0033 0.0034-0.078 0.31092-0.16598 0.68336-0.08798 0.37245-0.16799 0.69152-0.17778 0.70904-0.01121 0.02005-0.1716-0.18931-0.43285-0.56499-0.24885-0.35787-0.42036-0.58261-0.42833-0.56129-0.0073 0.01955-0.07774 0.31813-0.15651 0.66349s-0.15349 0.65009-0.16605 0.67718c-0.02104 0.04538-0.02297 0.04441-0.02461-0.0123-0.0027-0.09314-0.13027-1.338-0.13786-1.3452-0.0036-0.0034-0.08571 0.31162-0.18237 0.70023-0.09667 0.38861-0.1839 0.72094-0.19385 0.73851-0.01158 0.02044-0.11959-0.11418-0.30005-0.37397l-0.28196-0.40591-0.36971 0.92196c-0.20334 0.50708-0.37337 0.91846-0.37784 0.91417-0.0045-0.0043-0.05465-0.56446-0.11151-1.2448-0.05686-0.68039-0.10428-1.2448-0.10538-1.2543s-0.11101 0.29286-0.24425 0.6719l-0.24225 0.68916-0.0032 0.32045c-0.0018 0.17625-0.01043 0.39733-0.01928 0.4913-0.01583 0.16805-0.01963 0.15375-0.23232-0.87418-0.11892-0.57476-0.2212-1.0584-0.22728-1.0747-0.0072-0.0194-0.1448 0.03465-0.39667 0.15583-0.21209 0.10204-0.38922 0.18189-0.39362 0.17744-0.0044-0.0044-0.0969-0.34052-0.20557-0.74682-0.10866-0.40631-0.2002-0.74126-0.2034-0.74435-0.0032-3e-3 -0.05538 0.3626-0.11594 0.81262s-0.11789 0.85549-0.12741 0.90105c-0.01686 0.08074-0.02907 0.06591-0.48318-0.587-0.25623-0.36841-0.47133-0.66055-0.47799-0.6492-0.0067 0.01134-0.05708 0.24101-0.11204 0.51037-0.0835 0.40917-0.1036 0.47751-0.1222 0.4154-0.01295-0.04323-0.11789-0.16551-0.25081-0.29223l-0.22855-0.21789v0.76901c0 0.42295-0.0087 0.76892-0.01928 0.76882-0.01061-9.8e-5 -0.17547-0.18851-0.36637-0.41869l-0.34709-0.4185-0.13094 0.15222-0.33186-0.80284-0.02572 1.2313-0.22932 0.27608c-0.12613 0.15184-0.23853 0.27608-0.24977 0.27608-0.04023 0-0.06934-0.09161-0.14802-0.46577-0.0439-0.20877-0.08563-0.38515-0.09272-0.39194-0.0071-0.0068-0.01376 0.04213-0.01481 0.10872-1e-3 0.06659-0.01008 0.17094-0.02006 0.23188l-0.01816 0.11081-0.08921-0.12884c-0.05795-0.0837-0.10722-0.12889-0.14063-0.129-0.02828-9.8e-5 -0.2134 0.0264-0.41137 0.05888l-0.35995 0.05904-0.06747-0.06096-0.06747-0.06095-0.02166 3.2214-0.08533 0.12736c-0.20193 0.3014-0.6538 0.54521-1.0104 0.54521h-0.09744z" fill="#bf616a"/>
  </g>
  <rect x="70.618" y="18.23" width="2.6447" height="15.183" rx=".75047" ry=".95301" fill="#a6aebf" stroke-linecap="round" stroke-linejoin="round" stroke-width=".18745"/>
  <rect x="88.834" y="18.23" width="2.7012" height="15.183" rx=".76649" ry=".95301" fill="#a6aebf" stroke-linecap="round" stroke-linejoin="round" stroke-width=".18944"/>
  <path d="m70.761 33.388c-0.9484-0.14381-1.6238-0.43413-2.3339-1.0032-2.1194-1.6985-3.1724-5.1725-2.5889-8.5404 0.25375-1.4645 0.82959-2.8217 1.6317-3.8461 0.22411-0.2862 0.71681-0.78687 0.97703-0.99284 0.19339-0.15308 0.51894-0.36938 0.71346-0.47405l0.13498-0.07263 2.2e-5 -0.67081c2.3e-5 -0.72487 0.02256-1.0577 0.10549-1.5578 0.6083-3.6686 3.907-6.736 8.3492-7.7637 1.1451-0.26491 2.1025-0.37109 3.3464-0.37109 0.76809 0 1.2196 0.0251 1.8383 0.10221 4.0133 0.50013 7.3914 2.5894 9.0069 5.5703 0.40953 0.75569 0.71291 1.6342 0.85033 2.4623 0.08296 0.49994 0.10551 0.83278 0.10553 1.5578l2.1e-5 0.67081 0.13498 0.07263c0.93157 0.50126 1.8243 1.4607 2.4116 2.5919 0.55085 1.0609 0.87289 2.1647 1.0177 3.4884 0.05982 0.54668 0.06011 1.6428 5.65e-4 2.1854-0.1441 1.3134-0.46354 2.4156-1.0014 3.4549-0.97301 1.8803-2.5194 3.0407-4.1891 3.1435l-0.27577 0.01697-0.0081-8.2119c-0.0088-8.9447 0.0017-8.2933-0.1449-8.9651-0.18591-0.85186-0.67062-1.8378-1.2793-2.602-0.25155-0.31588-0.79566-0.86516-1.1563-1.1673-1.2677-1.0621-2.9654-1.8496-4.7658-2.2107-0.35741-0.07169-0.88814-0.15141-1.3369-0.20081-0.39531-0.04351-2.0215-0.04351-2.4168 0-1.6352 0.18-2.9462 0.5487-4.2198 1.1868-1.0074 0.5047-1.8093 1.0868-2.5551 1.8545-1.0367 1.0672-1.6235 2.2153-1.8577 3.6345-0.03894 0.23595-0.04331 0.96769-0.05063 8.4663l-8e-3 8.2081-0.18582-0.0035c-0.1022-0.0019-0.21475-0.0079-0.2501-0.01325z" fill="#5e81ac" stroke-width=".02571"/>
  <path d="m81.096 8.0955c-1.2438 0-2.2014 0.10612-3.3465 0.37103-4.4422 1.0277-7.7409 4.0951-8.3492 7.7637-0.08293 0.50016-0.1054 0.83314-0.10542 1.558v0.67075l-0.13487 0.07286c-0.19452 0.10467-0.52024 0.32079-0.71364 0.47386-0.26022 0.20598-0.75256 0.70649-0.97666 0.99268-0.80214 1.0244-1.3782 2.3817-1.6319 3.8462-0.58356 3.3679 0.46959 6.8419 2.5889 8.5404 0.71004 0.56905 1.3853 0.85921 2.3337 1.003 0.03535 0.0053 0.14791 0.01154 0.25011 0.01344l0.18603 0.0036v-0.01757c0.05512 0.01627 0.11243 0.02532 0.17156 0.02532h1.1441c0.41576 0 0.75033-0.42493 0.75033-0.9529v-13.277c0-0.52797-0.33456-0.9529-0.75033-0.9529h-1.1441c-0.05162 0-0.10174 0.0066-0.15038 0.01912 0.0069-1.1547 0.0177-1.4001 0.03721-1.5182 0.23421-1.4192 0.82103-2.5671 1.8577-3.6343 0.74576-0.76773 1.548-1.3499 2.5553-1.8546 1.2736-0.63809 2.5846-1.0065 4.2198-1.1865 0.3953-0.04351 2.0216-0.04351 2.4169 0 0.4488 0.0494 0.97943 0.12881 1.3368 0.2005 1.8004 0.36113 3.4978 1.1486 4.7655 2.2107 0.36066 0.30216 0.90494 0.85147 1.1565 1.1673 0.60864 0.76428 1.0936 1.7505 1.2795 2.6024 0.08524 0.39062 0.11653 0.38565 0.13022 2.0283-0.06532-0.02238-0.13395-0.03462-0.20515-0.03462h-1.1684c-0.42464 0-0.76635 0.42493-0.76635 0.9529v13.277c0 0.52797 0.34171 0.9529 0.76635 0.9529h1.1684c0.07945 0 0.15593-0.01524 0.22789-0.04289v0.04289l0.27543-0.01705c1.6697-0.10274 3.2163-1.2631 4.1893-3.1434 0.53783-1.0393 0.85737-2.1416 1.0015-3.455 0.05954-0.54261 0.0593-1.6387-5.17e-4 -2.1854-0.14484-1.3237-0.46716-2.4277-1.018-3.4886-0.58736-1.1312-1.4801-2.0903-2.4117-2.5915l-0.13487-0.07286v-0.67075c-2.3e-5 -0.72504-0.02246-1.0581-0.10542-1.558-0.13743-0.82812-0.44105-1.7067-0.85058-2.4623-1.6155-2.9809-4.9932-5.07-9.0065-5.5701-0.61872-0.077106-1.0705-0.10232-1.8386-0.10232z" fill="url(#linearGradient641)" stroke-linecap="round" stroke-linejoin="round" stroke-width=".18745"/>
 </g>
</svg>
