<svg width="64" height="64" version="1.1" viewBox="0 0 16.933 16.933" xmlns="http://www.w3.org/2000/svg">
 <defs>
  <filter id="filter1178" x="-.047999" y="-.047999" width="1.096" height="1.096" color-interpolation-filters="sRGB">
   <feGaussianBlur stdDeviation="0.30691668"/>
  </filter>
  <linearGradient id="linearGradient1340" x1="8.3017" x2="8.355" y1="16.007" y2=".79375" gradientUnits="userSpaceOnUse">
   <stop stop-color="#bf616a" offset="0"/>
   <stop stop-color="#d08770" offset="1"/>
  </linearGradient>
  <filter id="filter1488" x="-.066152" y="-.085541" width="1.1323" height="1.1711" color-interpolation-filters="sRGB">
   <feGaussianBlur stdDeviation="1.4644037"/>
  </filter>
  <linearGradient id="linearGradient1618" x1="71.172" x2="71.172" y1="-15.599" y2="23.828" gradientUnits="userSpaceOnUse">
   <stop stop-color="#eceff4" offset="0"/>
   <stop stop-color="#d8dee9" offset="1"/>
  </linearGradient>
 </defs>
 <g stroke-linecap="round" stroke-linejoin="round">
  <rect transform="matrix(.99138 0 0 1 .072989 .0019055)" x=".79375" y=".90545" width="15.346" height="15.346" rx="3.0526" ry="3.0526" fill="#000000" filter="url(#filter1178)" opacity=".15" stroke-width="1.2489" style="mix-blend-mode:normal"/>
  <rect x=".92604" y=".92604" width="15.081" height="15.081" rx="3" ry="3" fill="url(#linearGradient1340)" stroke-width="1.2274"/>
  <rect x=".01215" y=".0060174" width="16.924" height="16.927" fill="none" opacity=".15" stroke-width="1.052"/>
 </g>
 <g transform="matrix(.22001 0 0 .22001 -7.4138 7.7541)" fill="#2e3440" filter="url(#filter1488)" opacity=".54073" stroke-width="4.5453">
  <path d="m83.134 21.579c3.8585-0.21742 7.3376-1.6564 10.2-4.2187 1.4848-1.3291 2.8631-3.2118 3.7403-5.1091 1.6342-3.5345 1.9866-7.4551 1.008-11.215-0.59587-2.2893-1.7493-4.5387-3.2437-6.3256-0.50309-0.60157-1.1686-1.2797-5.512-5.6169-4.9796-4.9724-4.8002-4.8039-5.383-5.0559-0.40319-0.17434-0.68472-0.23617-1.157-0.25411-0.65072-0.02472-1.1217 0.07468-1.6519 0.34865-1.7281 0.8929-2.288 3.0782-1.2114 4.728 0.11209 0.17177 1.2079 1.287 4.9019 4.989 2.6167 2.6223 4.8489 4.8792 4.9605 5.0154 1.2213 1.4906 1.9533 3.1735 2.2268 5.1199 0.0768 0.54667 0.0777 1.9803 2e-3 2.5223-0.15925 1.1334-0.44375 2.0949-0.89936 3.0395-0.97904 2.0299-2.4099 3.4852-4.4032 4.4783-0.98656 0.49152-1.9809 0.79501-3.1503 0.96149-0.54233 0.07721-2.0395 0.07785-2.565 0.0011-1.8907-0.27613-3.4129-0.91766-4.9062-2.0677-0.28021-0.2158-1.3512-1.268-5.1522-5.062-4.2866-4.2787-4.8286-4.8092-5.0803-4.9732-0.53794-0.35053-1.0025-0.49752-1.6498-0.52196-0.65086-0.024571-1.1218 0.074857-1.6519 0.34875-1.5754 0.814-2.2107 2.7445-1.4287 4.3414 0.0765 0.1563 0.2207 0.39161 0.32036 0.52292 0.21316 0.28084 9.5485 9.6131 10.013 10.01 1.674 1.4295 3.5115 2.4768 5.5379 3.1566 1.9554 0.65593 4.1153 0.95047 6.1354 0.83664z"/>
  <path d="m62.356 24.766c0.92297-0.27208 1.633-0.86001 2.0463-1.6944 0.23982-0.48415 0.31196-0.77366 0.32959-1.3227 0.0205-0.63829-0.0721-1.0977-0.32245-1.5995-0.22684-0.45472-0.23776-0.46614-5.1443-5.3829-3.0772-3.0837-4.8756-4.9082-5.0321-5.1056-0.70753-0.89151-1.2923-1.9496-1.6576-2.9996-0.591-1.6984-0.70063-3.6607-0.30418-5.4445 0.27225-1.225 0.80461-2.4478 1.511-3.4706 0.95271-1.3796 2.1611-2.4082 3.7138-3.1614 1.0225-0.49602 2.0327-0.79156 3.2144-0.94038 0.48622-0.061236 1.9113-0.051179 2.3993 0.016931 1.9078 0.26631 3.523 0.95789 5.0278 2.1528 0.19936 0.1583 2.006 1.9388 5.0921 5.0185 4.9005 4.8903 4.9131 4.9023 5.3676 5.1291 0.75378 0.37604 1.7225 0.4385 2.5318 0.16324 0.96171-0.3271 1.7398-1.1239 2.0445-2.0936 0.12102-0.38513 0.15515-0.66997 0.13713-1.1444-0.0179-0.46978-0.0798-0.75397-0.25059-1.1489-0.25682-0.59397-0.0508-0.37411-4.9523-5.2842-4.6064-4.6144-5.0754-5.0747-5.7051-5.5987-4.5734-3.8054-10.837-4.8425-16.451-2.7239-2.6313 0.99294-5.0189 2.7002-6.7498 4.8266-1.8221 2.2384-3.0245 4.9094-3.4869 7.7457-0.34576 2.1209-0.28172 4.2913 0.18757 6.357 0.60107 2.6458 1.7807 4.9952 3.5624 7.0953 0.40391 0.47609 9.8257 9.9103 10.082 10.096 0.37795 0.27296 0.79478 0.45926 1.2555 0.56116 0.40115 0.08872 1.1727 0.06552 1.5534-0.0467z"/>
 </g>
 <g transform="matrix(.22001 0 0 .22001 -7.3873 7.5152)" fill="url(#linearGradient1618)" stroke-width="4.5453">
  <path d="m83.134 21.579c3.8585-0.21742 7.3376-1.6564 10.2-4.2187 1.4848-1.3291 2.8631-3.2118 3.7403-5.1091 1.6342-3.5345 1.9866-7.4551 1.008-11.215-0.59587-2.2893-1.7493-4.5387-3.2437-6.3256-0.50309-0.60157-1.1686-1.2797-5.512-5.6169-4.9796-4.9724-4.8002-4.8039-5.383-5.0559-0.40319-0.17434-0.68472-0.23617-1.157-0.25411-0.65072-0.02472-1.1217 0.07468-1.6519 0.34865-1.7281 0.8929-2.288 3.0782-1.2114 4.728 0.11209 0.17177 1.2079 1.287 4.9019 4.989 2.6167 2.6223 4.8489 4.8792 4.9605 5.0154 1.2213 1.4906 1.9533 3.1735 2.2268 5.1199 0.0768 0.54667 0.0777 1.9803 2e-3 2.5223-0.15925 1.1334-0.44375 2.0949-0.89936 3.0395-0.97904 2.0299-2.4099 3.4852-4.4032 4.4783-0.98656 0.49152-1.9809 0.79501-3.1503 0.96149-0.54233 0.07721-2.0395 0.07785-2.565 0.0011-1.8907-0.27613-3.4129-0.91766-4.9062-2.0677-0.28021-0.2158-1.3512-1.268-5.1522-5.062-4.2866-4.2787-4.8286-4.8092-5.0803-4.9732-0.53794-0.35053-1.0025-0.49752-1.6498-0.52196-0.65086-0.024571-1.1218 0.074857-1.6519 0.34875-1.5754 0.814-2.2107 2.7445-1.4287 4.3414 0.0765 0.1563 0.2207 0.39161 0.32036 0.52292 0.21316 0.28084 9.5485 9.6131 10.013 10.01 1.674 1.4295 3.5115 2.4768 5.5379 3.1566 1.9554 0.65593 4.1153 0.95047 6.1354 0.83664z"/>
  <path d="m62.356 24.766c0.92297-0.27208 1.633-0.86001 2.0463-1.6944 0.23982-0.48415 0.31196-0.77366 0.32959-1.3227 0.0205-0.63829-0.0721-1.0977-0.32245-1.5995-0.22684-0.45472-0.23776-0.46614-5.1443-5.3829-3.0772-3.0837-4.8756-4.9082-5.0321-5.1056-0.70753-0.89151-1.2923-1.9496-1.6576-2.9996-0.591-1.6984-0.70063-3.6607-0.30418-5.4445 0.27225-1.225 0.80461-2.4478 1.511-3.4706 0.95271-1.3796 2.1611-2.4082 3.7138-3.1614 1.0225-0.49602 2.0327-0.79156 3.2144-0.94038 0.48622-0.061236 1.9113-0.051179 2.3993 0.016931 1.9078 0.26631 3.523 0.95789 5.0278 2.1528 0.19936 0.1583 2.006 1.9388 5.0921 5.0185 4.9005 4.8903 4.9131 4.9023 5.3676 5.1291 0.75378 0.37604 1.7225 0.4385 2.5318 0.16324 0.96171-0.3271 1.7398-1.1239 2.0445-2.0936 0.12102-0.38513 0.15515-0.66997 0.13713-1.1444-0.0179-0.46978-0.0798-0.75397-0.25059-1.1489-0.25682-0.59397-0.0508-0.37411-4.9523-5.2842-4.6064-4.6144-5.0754-5.0747-5.7051-5.5987-4.5734-3.8054-10.837-4.8425-16.451-2.7239-2.6313 0.99294-5.0189 2.7002-6.7498 4.8266-1.8221 2.2384-3.0245 4.9094-3.4869 7.7457-0.34576 2.1209-0.28172 4.2913 0.18757 6.357 0.60107 2.6458 1.7807 4.9952 3.5624 7.0953 0.40391 0.47609 9.8257 9.9103 10.082 10.096 0.37795 0.27296 0.79478 0.45926 1.2555 0.56116 0.40115 0.08872 1.1727 0.06552 1.5534-0.0467z"/>
 </g>
</svg>
