<?xml version="1.0" encoding="UTF-8" standalone="no"?>
<svg
   width="64"
   height="64"
   version="1.1"
   viewBox="0 0 16.933 16.933"
   id="svg135"
   sodipodi:docname="baobab.svg"
   inkscape:version="1.1 (c68e22c387, 2021-05-23)"
   xmlns:inkscape="http://www.inkscape.org/namespaces/inkscape"
   xmlns:sodipodi="http://sodipodi.sourceforge.net/DTD/sodipodi-0.dtd"
   xmlns="http://www.w3.org/2000/svg"
   xmlns:svg="http://www.w3.org/2000/svg">
  <sodipodi:namedview
     id="namedview137"
     pagecolor="#ffffff"
     bordercolor="#666666"
     borderopacity="1.0"
     inkscape:pageshadow="2"
     inkscape:pageopacity="0.0"
     inkscape:pagecheckerboard="0"
     showgrid="false"
     inkscape:zoom="1.4142136"
     inkscape:cx="82.731493"
     inkscape:cy="36.769552"
     inkscape:window-width="1920"
     inkscape:window-height="1012"
     inkscape:window-x="0"
     inkscape:window-y="32"
     inkscape:window-maximized="1"
     inkscape:current-layer="svg135"
     inkscape:object-nodes="true"
     inkscape:object-paths="false" />
  <defs
     id="defs21">
    <filter
       id="filter1178"
       x="-0.047999482"
       y="-0.047999482"
       width="1.095999"
       height="1.095999"
       color-interpolation-filters="sRGB">
      <feGaussianBlur
         stdDeviation="0.30691668"
         id="feGaussianBlur2" />
    </filter>
    <linearGradient
       id="linearGradient1340"
       x1="8.355"
       x2="8.3996"
       y1="16.007"
       y2=".79375"
       gradientTransform="translate(-.0076499 -.0030174)"
       gradientUnits="userSpaceOnUse">
      <stop
         stop-color="#d8dee9"
         offset="0"
         id="stop5" />
      <stop
         stop-color="#eceff4"
         offset="1"
         id="stop7" />
    </linearGradient>
    <linearGradient
       id="linearGradient1566"
       x1="8.355"
       x2="8.3996"
       y1="16.007"
       y2=".79375"
       gradientTransform="translate(-.0076499 -.0030174)"
       gradientUnits="userSpaceOnUse">
      <stop
         stop-color="#2e3440"
         stop-opacity=".2"
         offset="0"
         id="stop10" />
      <stop
         stop-color="#d8dee9"
         offset="1"
         id="stop12" />
    </linearGradient>
    <filter
       id="filter5815"
       x="-0.05500597"
       y="-0.11783287"
       width="1.1100119"
       height="1.2356657"
       color-interpolation-filters="sRGB">
      <feGaussianBlur
         stdDeviation="0.19020097"
         id="feGaussianBlur15" />
    </filter>
    <filter
       id="filter5877"
       x="-0.075450405"
       y="-0.074555351"
       width="1.1509008"
       height="1.1491107"
       color-interpolation-filters="sRGB">
      <feGaussianBlur
         stdDeviation="0.28543518"
         id="feGaussianBlur18" />
    </filter>
    <filter
       inkscape:collect="always"
       style="color-interpolation-filters:sRGB"
       id="filter6673"
       x="-0.041785332"
       y="-0.36565436"
       width="1.0835707"
       height="1.7313087">
      <feGaussianBlur
         inkscape:collect="always"
         stdDeviation="0.042889777"
         id="feGaussianBlur6675" />
    </filter>
    <filter
       inkscape:collect="always"
       style="color-interpolation-filters:sRGB"
       id="filter6697"
       x="-0.07681206"
       y="-0.74236111"
       width="1.1536241"
       height="2.4847222">
      <feGaussianBlur
         inkscape:collect="always"
         stdDeviation="0.087081548"
         id="feGaussianBlur6699" />
    </filter>
    <filter
       inkscape:collect="always"
       style="color-interpolation-filters:sRGB"
       id="filter8663"
       x="-0.08201805"
       y="-0.069088305"
       width="1.1640361"
       height="1.1381766">
      <feGaussianBlur
         inkscape:collect="always"
         stdDeviation="0.16840372"
         id="feGaussianBlur8665" />
    </filter>
  </defs>
  <text
     x="29.471731"
     y="9.0578918"
     fill="#000000"
     font-family="'Noto Serif CJK SC'"
     font-size="10.583px"
     letter-spacing="0px"
     stroke-width=".26458"
     word-spacing="0px"
     style="line-height:1.25"
     xml:space="preserve"
     id="text25"><tspan
       x="29.471731"
       y="19.693933"
       stroke-width=".26458"
       id="tspan23" /></text>
  <g
     stroke-linecap="round"
     stroke-linejoin="round"
     id="g33">
    <rect
       transform="matrix(.99138 0 0 1 .065339 -.0030172)"
       x=".79375"
       y="1.0171"
       width="15.346"
       height="15.346"
       rx="3.0526"
       ry="3.0526"
       fill="#2e3440"
       filter="url(#filter1178)"
       opacity=".2"
       stroke-width="1.2489"
       style="mix-blend-mode:normal"
       id="rect27" />
    <rect
       x=".91839"
       y=".92302"
       width="15.081"
       height="15.081"
       rx="3"
       ry="3"
       fill="url(#linearGradient1340)"
       stroke-width="1.2274"
       id="rect29" />
    <rect
       x=".0045001"
       y=".003"
       width="16.924"
       height="16.927"
       fill="none"
       opacity=".15"
       stroke-width="1.052"
       id="rect31" />
  </g>
  <g
     transform="matrix(1.089 0 0 1.089 -.7436 -.10584)"
     fill="#2e3440"
     filter="url(#filter5877)"
     opacity=".25"
     id="g73">
    <ellipse
       cx="8.4604"
       cy="7.2823"
       rx="4.5397"
       ry="4.5942"
       stroke-width=".095309"
       id="ellipse35" />
    <ellipse
       cx="8.3551"
       cy="7.1348"
       rx="4.0857"
       ry="4.1348"
       stroke-width=".085778"
       id="ellipse37" />
    <ellipse
       cx="8.3551"
       cy="7.1348"
       rx="1.316"
       ry="1.3318"
       opacity=".3"
       stroke-width=".027629"
       id="ellipse39" />
    <ellipse
       cx="8.3551"
       cy="7.1348"
       rx=".84225"
       ry=".85237"
       stroke-width=".017683"
       id="ellipse41" />
    <ellipse
       cx="8.3551"
       cy="7.1348"
       rx=".68222"
       ry=".69042"
       opacity=".3"
       stroke-width=".014323"
       id="ellipse43" />
    <ellipse
       cx="8.3551"
       cy="7.1348"
       rx=".18161"
       ry=".18379"
       opacity=".85"
       stroke-width=".0038128"
       id="ellipse45" />
    <g
       opacity=".5"
       stroke-width=".0030502"
       id="g71">
      <ellipse
         cx="8.3551"
         cy="8.2214"
         rx=".14529"
         ry=".14703"
         id="ellipse47" />
      <ellipse
         cx="8.3551"
         cy="6.048"
         rx=".14529"
         ry=".14703"
         id="ellipse49" />
      <ellipse
         transform="rotate(90)"
         cx="7.1347"
         cy="-7.2684"
         rx=".14529"
         ry=".14703"
         id="ellipse51" />
      <ellipse
         transform="rotate(90)"
         cx="7.1347"
         cy="-9.4418"
         rx=".14529"
         ry=".14703"
         id="ellipse53" />
      <ellipse
         transform="rotate(120)"
         cx="2.0013"
         cy="-9.7164"
         rx=".14529"
         ry=".14703"
         id="ellipse55" />
      <ellipse
         transform="rotate(120)"
         cx="2.0013"
         cy="-11.89"
         rx=".14529"
         ry=".14703"
         id="ellipse57" />
      <ellipse
         transform="rotate(150)"
         cx="-3.6684"
         cy="-9.2697"
         rx=".14529"
         ry=".14703"
         id="ellipse59" />
      <ellipse
         transform="rotate(150)"
         cx="-3.6684"
         cy="-11.443"
         rx=".14529"
         ry=".14703"
         id="ellipse61" />
      <ellipse
         transform="rotate(210)"
         cx="-10.803"
         cy="-.91459"
         rx=".14529"
         ry=".14703"
         id="ellipse63" />
      <ellipse
         transform="rotate(210)"
         cx="-10.803"
         cy="-3.088"
         rx=".14529"
         ry=".14703"
         id="ellipse65" />
      <ellipse
         transform="rotate(240)"
         cx="-10.356"
         cy="4.7551"
         rx=".14529"
         ry=".14703"
         id="ellipse67" />
      <ellipse
         transform="rotate(240)"
         cx="-10.356"
         cy="2.5817"
         rx=".14529"
         ry=".14703"
         id="ellipse69" />
    </g>
  </g>
  <rect
     x=".91839"
     y=".92302"
     width="15.081"
     height="15.081"
     rx="3"
     ry="3"
     fill="url(#linearGradient1566)"
     stroke-linecap="round"
     stroke-linejoin="round"
     stroke-width="1.2274"
     id="rect75" />
  <g
     transform="matrix(1.089 0 0 1.089 -.7436 -.10584)"
     id="g115">
    <ellipse
       cx="8.3551"
       cy="7.1348"
       rx="4.5397"
       ry="4.5942"
       fill="#4c566a"
       stroke-width=".095309"
       id="ellipse77" />
    <ellipse
       cx="8.3551"
       cy="7.1348"
       rx="4.0857"
       ry="4.1348"
       fill="#e5e9f0"
       stroke-width=".085778"
       id="ellipse79" />
    <ellipse
       cx="8.3551"
       cy="7.1348"
       rx="1.316"
       ry="1.3318"
       fill="#4c566a"
       opacity=".3"
       stroke-width=".027629"
       id="ellipse81" />
    <ellipse
       cx="8.3551"
       cy="7.1348"
       rx=".84225"
       ry=".85237"
       fill="#eceff4"
       stroke-width=".017683"
       id="ellipse83" />
    <ellipse
       cx="8.3551"
       cy="7.1348"
       rx=".68222"
       ry=".69042"
       fill="#4c566a"
       opacity=".3"
       stroke-width=".014323"
       id="ellipse85" />
    <ellipse
       cx="8.3551"
       cy="7.1348"
       rx=".18161"
       ry=".18379"
       fill="#4c566a"
       opacity=".85"
       stroke-width=".0038128"
       id="ellipse87" />
    <g
       fill="#4c566a"
       opacity=".5"
       stroke-width=".0030502"
       id="g113">
      <ellipse
         cx="8.3551"
         cy="8.2214"
         rx=".14529"
         ry=".14703"
         id="ellipse89" />
      <ellipse
         cx="8.3551"
         cy="6.048"
         rx=".14529"
         ry=".14703"
         id="ellipse91" />
      <ellipse
         transform="rotate(90)"
         cx="7.1347"
         cy="-7.2684"
         rx=".14529"
         ry=".14703"
         id="ellipse93" />
      <ellipse
         transform="rotate(90)"
         cx="7.1347"
         cy="-9.4418"
         rx=".14529"
         ry=".14703"
         id="ellipse95" />
      <ellipse
         transform="rotate(120)"
         cx="2.0013"
         cy="-9.7164"
         rx=".14529"
         ry=".14703"
         id="ellipse97" />
      <ellipse
         transform="rotate(120)"
         cx="2.0013"
         cy="-11.89"
         rx=".14529"
         ry=".14703"
         id="ellipse99" />
      <ellipse
         transform="rotate(150)"
         cx="-3.6684"
         cy="-9.2697"
         rx=".14529"
         ry=".14703"
         id="ellipse101" />
      <ellipse
         transform="rotate(150)"
         cx="-3.6684"
         cy="-11.443"
         rx=".14529"
         ry=".14703"
         id="ellipse103" />
      <ellipse
         transform="rotate(210)"
         cx="-10.803"
         cy="-.91459"
         rx=".14529"
         ry=".14703"
         id="ellipse105" />
      <ellipse
         transform="rotate(210)"
         cx="-10.803"
         cy="-3.088"
         rx=".14529"
         ry=".14703"
         id="ellipse107" />
      <ellipse
         transform="rotate(240)"
         cx="-10.356"
         cy="4.7551"
         rx=".14529"
         ry=".14703"
         id="ellipse109" />
      <ellipse
         transform="rotate(240)"
         cx="-10.356"
         cy="2.5817"
         rx=".14529"
         ry=".14703"
         id="ellipse111" />
    </g>
  </g>
  <g
     stroke-width=".11841"
     id="g123">
    <path
       d="m10.41 11.282-7.8399 2.7123c-0.057374 0.01156-0.11241 0.03144-0.16331 0.059l-0.019074 0.0071 0.00124 0.0035c-0.084175 0.04958-0.15369 0.11942-0.20222 0.20319-0.16065 0.27805-0.056565 0.63878 0.23244 0.80557 0.13922 0.08019 0.30344 0.10369 0.45634 0.06531l0.00101 0.0019 0.00858-0.0046c0.08912-0.02371 0.17067-0.06771 0.23815-0.12849l8.469e-4 -5.43e-4z"
       fill="#2e3440"
       filter="url(#filter5815)"
       opacity=".25"
       id="path117" />
    <path
       d="m10.295 11.121-7.8399 2.7123c-0.057374 0.01156-0.11241 0.03144-0.16331 0.059l-0.019074 0.0071 0.00124 0.0035c-0.084175 0.04958-0.15369 0.11942-0.20222 0.20319-0.16065 0.27805-0.056565 0.63878 0.23244 0.80557 0.13922 0.08019 0.30344 0.10369 0.45634 0.06531l0.00101 0.0019 0.00858-0.0046c0.08912-0.02371 0.17067-0.06771 0.23815-0.12849l8.469e-4 -5.43e-4z"
       fill="#d8dee9"
       id="path119" />
    <path
       d="m10.295 11.121-7.8399 2.7123c-0.057374 0.01156-0.11241 0.03144-0.16331 0.059l-0.019074 0.0071 0.00124 0.0035c-0.084175 0.04958-0.15369 0.11942-0.20222 0.20319-0.16065 0.27805-0.056565 0.63878 0.23244 0.80557 0.13922 0.08019 0.30344 0.10369 0.45634 0.06531l0.00101 0.0019 0.00858-0.0046c0.08912-0.02371 0.17067-0.06771 0.23815-0.12849l8.469e-4 -5.43e-4z"
       fill="#2e3440"
       opacity=".15"
       id="path121" />
  </g>
  <g
     fill="#4c566a"
     stroke-width=".0050748"
     id="g133">
    <ellipse
       cx="2.5924"
       cy="14.459"
       rx=".24172"
       ry=".24462"
       opacity=".5"
       id="ellipse125" />
    <ellipse
       cx="2.5998"
       cy="2.4928"
       rx=".24172"
       ry=".24462"
       opacity=".5"
       id="ellipse129" />
    <ellipse
       cx="14.379"
       cy="2.4928"
       rx=".24172"
       ry=".24462"
       opacity=".5"
       id="ellipse131" />
  </g>
  <g
     id="g8699"
     transform="matrix(1.1946853,0,0,1.1946853,-30.713888,3.0137118)">
    <path
       style="opacity:0.25;fill:#2e3440;stroke:none;stroke-width:0.5;filter:url(#filter8663)"
       id="path1962"
       sodipodi:type="arc"
       sodipodi:cx="36.855251"
       sodipodi:cy="8.1645136"
       sodipodi:rx="2.4639022"
       sodipodi:ry="2.9250169"
       sodipodi:start="5.9964757"
       sodipodi:end="5.995031"
       sodipodi:arc-type="arc"
       d="m 39.218576,7.3373256 a 2.4639022,2.9250169 0 0 1 -1.665685,3.6325054 2.4639022,2.9250169 0 0 1 -3.06046,-1.976103 2.4639022,2.9250169 0 0 1 1.663474,-3.633933 2.4639022,2.9250169 0 0 1 3.061662,1.9734782"
       sodipodi:open="true" />
    <path
       style="opacity:1;fill:#a3be8c;stroke:none;stroke-width:0.5"
       id="path1966"
       sodipodi:type="arc"
       sodipodi:cx="36.728161"
       sodipodi:cy="7.9146857"
       sodipodi:rx="2.4041748"
       sodipodi:ry="2.8541114"
       sodipodi:start="2.2124076"
       sodipodi:end="4.7150011"
       sodipodi:arc-type="slice"
       d="M 35.289293,10.201207 A 2.4041748,2.8541114 0 0 1 34.447635,7.0111587 2.4041748,2.8541114 0 0 1 36.734441,5.060584 l -0.0063,2.8541017 z" />
    <path
       style="opacity:1;fill:#81a1c1;stroke:none;stroke-width:0.5"
       id="path1968"
       sodipodi:type="arc"
       sodipodi:cx="-36.728161"
       sodipodi:cy="7.9059458"
       sodipodi:rx="2.4639022"
       sodipodi:ry="2.9250169"
       sodipodi:start="3.1374947"
       sodipodi:end="4.7146085"
       sodipodi:arc-type="slice"
       d="m -39.192042,7.9179323 a 2.4639022,2.9250169 0 0 1 0.720004,-2.0783423 2.4639022,2.9250169 0 0 1 1.749346,-0.8586539 l -0.0055,2.9250097 z"
       transform="scale(-1,1)" />
    <rect
       style="opacity:1;fill:#5e81ac;stroke-width:0.147573"
       id="rect2148"
       width="2.4634354"
       height="0.28151029"
       x="36.728161"
       y="7.9059458" />
    <rect
       style="opacity:1;fill:#a3be8c;stroke-width:0.155096"
       id="rect2390"
       width="2.7208712"
       height="0.28152838"
       x="67.398979"
       y="67.153877"
       inkscape:transform-center-x="0.70711176"
       inkscape:transform-center-y="1.108636"
       transform="matrix(0.53480532,-0.84497531,-0.01133975,0.9999357,0,0)" />
    <rect
       style="opacity:0.3;fill:#2e3440;stroke-width:0.155096"
       id="rect2594"
       width="2.7208712"
       height="0.28152838"
       x="67.398979"
       y="67.153877"
       inkscape:transform-center-x="0.70711176"
       inkscape:transform-center-y="1.108636"
       transform="matrix(0.53480532,-0.84497531,-0.01133975,0.9999357,0,0)" />
    <path
       id="path1964"
       style="opacity:1;fill:#ebcb8b;stroke-width:0.5"
       d="m 39.192485,8.0351348 c -0.0045,1.1066497 -0.534657,2.0413882 -1.369943,2.5327272 -0.835287,0.49134 -1.536311,0.08216 -2.577039,-0.19246 l 1.483108,-2.335759 z"
       sodipodi:nodetypes="csccc" />
    <rect
       style="opacity:0.25;fill:#2e3440;stroke-width:0.147573;filter:url(#filter6673)"
       id="rect6635"
       width="2.4634354"
       height="0.28151029"
       x="36.728161"
       y="7.9059458" />
    <rect
       style="opacity:0.25;fill:#2e3440;stroke-width:0.155096;filter:url(#filter6697)"
       id="rect6677"
       width="2.7208712"
       height="0.28152838"
       x="67.398979"
       y="67.153877"
       inkscape:transform-center-x="0.70711176"
       inkscape:transform-center-y="1.108636"
       transform="matrix(0.53480532,-0.84497531,-0.01133975,0.9999357,0,0)" />
    <path
       style="opacity:1;fill:#a3be8c;stroke:none;stroke-width:0.264578px;stroke-linecap:butt;stroke-linejoin:miter;stroke-opacity:1"
       d="M 35.280632,10.480593 C 34.209604,9.459201 34.28503,8.2183432 34.326017,7.7973925 c -0.03005,0.8143751 0.257149,1.7486001 0.957806,2.4016945"
       id="path2665"
       sodipodi:nodetypes="ccc" />
    <g
       id="g7057"
       transform="translate(-0.219423,-0.7379042)">
      <path
         style="opacity:1;fill:#ebcb8b;stroke:none;stroke-width:0.264578px;stroke-linecap:butt;stroke-linejoin:miter;stroke-opacity:1"
         d="m 35.500055,11.218497 c 3.175361,1.460057 3.907862,-1.5841101 3.908534,-2.2931361 0,0 -0.533382,3.6905431 -3.909545,2.1273681"
         id="path3726"
         sodipodi:nodetypes="ccc" />
      <path
         style="opacity:0.21;fill:#2e3440;stroke:none;stroke-width:0.264578px;stroke-linecap:butt;stroke-linejoin:miter;stroke-opacity:1"
         d="m 35.500055,11.218497 c 3.236759,1.482182 3.943427,-1.7264737 3.908534,-2.2931365 0,0 -0.533382,3.6905435 -3.909545,2.1273685"
         id="path5440"
         sodipodi:nodetypes="ccc" />
    </g>
    <path
       style="opacity:0.3;fill:#2e3440;stroke:none;stroke-width:0.264578px;stroke-linecap:butt;stroke-linejoin:miter;stroke-opacity:1"
       d="M 35.280632,10.480593 C 34.209604,9.459201 34.28503,8.2183432 34.326017,7.7973925 c -0.03005,0.8143751 0.257149,1.7486001 0.957806,2.4016945"
       id="path8625"
       sodipodi:nodetypes="ccc" />
  </g>
</svg>
