<svg width="64" height="64" version="1.1" viewBox="0 0 16.933 16.933" xmlns="http://www.w3.org/2000/svg">
 <defs>
  <filter id="filter1178" x="-.047999" y="-.047999" width="1.096" height="1.096" color-interpolation-filters="sRGB">
   <feGaussianBlur stdDeviation="0.30691668"/>
  </filter>
  <linearGradient id="linearGradient1340" x1="8.355" x2="8.3996" y1="16.007" y2=".79375" gradientUnits="userSpaceOnUse">
   <stop stop-color="#d8dee9" offset="0"/>
   <stop stop-color="#eceff4" offset="1"/>
  </linearGradient>
  <linearGradient id="linearGradient1124" x1="8.3176" x2="8.3176" y1="2.5883" y2="14.375" gradientUnits="userSpaceOnUse">
   <stop stop-color="#a3be8c" offset="0"/>
   <stop stop-color="#97b67c" offset="1"/>
  </linearGradient>
  <filter id="filter1128" x="-.044586" y="-.040709" width="1.0892" height="1.0814" color-interpolation-filters="sRGB">
   <feGaussianBlur stdDeviation="0.20048991"/>
  </filter>
 </defs>
 <g stroke-linecap="round" stroke-linejoin="round">
  <rect transform="matrix(.99138 0 0 1 .072989 .0019055)" x=".79375" y=".90545" width="15.346" height="15.346" rx="3.0526" ry="3.0526" filter="url(#filter1178)" opacity=".15" stroke-width="1.2489" style="mix-blend-mode:normal"/>
  <rect x=".92604" y=".92604" width="15.081" height="15.081" rx="3" ry="3" fill="url(#linearGradient1340)" stroke-width="1.2274"/>
  <rect x=".01215" y=".0060174" width="16.924" height="16.927" fill="none" opacity=".15" stroke-width="1.052"/>
 </g>
 <path d="m8.4776 14.39c-2.0358-0.15779-3.8423-1.3794-4.7731-3.2278-0.43941-0.87249-0.62959-1.7027-0.62635-2.7342 0.0023-0.72911 0.084525-1.2727 0.28143-1.8605 0.73204-2.185 2.9412-3.9578 4.9581-3.9788 0.53979-0.00562 0.84132 0.057434 1.2906 0.26986 0.82639 0.39077 1.3055 1.2609 1.0929 1.9851-0.12716 0.4332-0.65365 0.97029-1.1038 1.126-0.13528 0.04679-0.35284 0.07741-0.5332 0.07505-0.41377-0.005433-0.70594-0.15024-1.5902-0.78821-0.7216-0.52058-0.95088-0.63461-1.167-0.58036-0.29361 0.073691-0.39472 0.31586-0.85 2.0358-0.49093 1.8546-0.47609 2.7968 0.058177 3.692 0.39317 0.65878 1.9711 1.9197 2.751 2.1982 0.45309 0.16185 1.1458 0.16932 1.5877 0.01713 0.48001-0.16532 1.4798-0.78654 2.4531-1.5243 0.52555-0.39834 0.75151-0.48907 1.0187-0.40903 0.47259 0.14159 0.67263 0.61075 0.4598 1.0784-0.1274 0.27994-0.62364 0.86937-1.0086 1.198-1.2404 1.059-2.7194 1.5501-4.2992 1.4276zm0.34278-2.6016c-0.050274-0.021275-0.22174-0.17144-0.38104-0.33371-0.31839-0.32432-0.35365-0.46294-0.14455-0.56835 0.13592-0.06852 1.0799-0.0805 1.25-0.01586 0.062327 0.0237 0.12787 0.08891 0.14564 0.14491 0.027077 0.08532-0.026852 0.15981-0.33279 0.45965-0.3796 0.37204-0.38757 0.37668-0.53722 0.31336zm-1.7599-1.9178c-0.33738-0.10263-0.77915-0.48768-0.86785-0.75644-0.10309-0.31236 0.078761-0.48546 0.59782-0.56905 0.47033-0.07575 0.83839 0.08834 0.98494 0.4391 0.23321 0.55816-0.16615 1.0533-0.71491 0.88639zm3.263-0.0021c-0.24642-0.09955-0.38916-0.47144-0.29789-0.77607 0.11228-0.37477 0.37738-0.56484 0.78832-0.56522 0.50794-4.66e-4 0.86293 0.18317 0.86293 0.4464 0 0.15861-0.25476 0.5165-0.48216 0.67733-0.33848 0.2394-0.63434 0.31329-0.8712 0.21758zm2.336-1.6454c-0.38813-0.08128-1.3412-0.52963-1.7317-0.81458-0.29321-0.214-0.41839-0.47814-0.34891-0.73618 0.06454-0.23967 0.38597-0.66059 0.91513-1.1984 0.66251-0.6733 0.87967-0.76619 1.1286-0.48272 0.23528 0.26797 0.99133 2.053 1.0496 2.4782 0.03347 0.24418-0.10363 0.55862-0.29193 0.66956-0.1618 0.09533-0.4864 0.13321-0.7208 0.08413z" fill="#2e3440" filter="url(#filter1128)" opacity=".19021" stroke-width=".045703"/>
 <path d="m8.4776 14.39c-2.0358-0.15779-3.8423-1.3794-4.7731-3.2278-0.43941-0.87249-0.62959-1.7027-0.62635-2.7342 0.0023-0.72911 0.084525-1.2727 0.28143-1.8605 0.73204-2.185 2.9412-3.9578 4.9581-3.9788 0.53979-0.00562 0.84132 0.057434 1.2906 0.26986 0.82639 0.39077 1.3055 1.2609 1.0929 1.9851-0.12716 0.4332-0.65365 0.97029-1.1038 1.126-0.13528 0.04679-0.35284 0.07741-0.5332 0.07505-0.41377-0.005433-0.70594-0.15024-1.5902-0.78821-0.7216-0.52058-0.95088-0.63461-1.167-0.58036-0.29361 0.073691-0.39472 0.31586-0.85 2.0358-0.49093 1.8546-0.47609 2.7968 0.058177 3.692 0.39317 0.65878 1.9711 1.9197 2.751 2.1982 0.45309 0.16185 1.1458 0.16932 1.5877 0.01713 0.48001-0.16532 1.4798-0.78654 2.4531-1.5243 0.52555-0.39834 0.75151-0.48907 1.0187-0.40903 0.47259 0.14159 0.67263 0.61075 0.4598 1.0784-0.1274 0.27994-0.62364 0.86937-1.0086 1.198-1.2404 1.059-2.7194 1.5501-4.2992 1.4276zm0.34278-2.6016c-0.050274-0.021275-0.22174-0.17144-0.38104-0.33371-0.31839-0.32432-0.35365-0.46294-0.14455-0.56835 0.13592-0.06852 1.0799-0.0805 1.25-0.01586 0.062327 0.0237 0.12787 0.08891 0.14564 0.14491 0.027077 0.08532-0.026852 0.15981-0.33279 0.45965-0.3796 0.37204-0.38757 0.37668-0.53722 0.31336zm-1.7599-1.9178c-0.33738-0.10263-0.77915-0.48768-0.86785-0.75644-0.10309-0.31236 0.078761-0.48546 0.59782-0.56905 0.47033-0.07575 0.83839 0.08834 0.98494 0.4391 0.23321 0.55816-0.16615 1.0533-0.71491 0.88639zm3.263-0.0021c-0.24642-0.09955-0.38916-0.47144-0.29789-0.77607 0.11228-0.37477 0.37738-0.56484 0.78832-0.56522 0.50794-4.66e-4 0.86293 0.18317 0.86293 0.4464 0 0.15861-0.25476 0.5165-0.48216 0.67733-0.33848 0.2394-0.63434 0.31329-0.8712 0.21758zm2.336-1.6454c-0.38813-0.08128-1.3412-0.52963-1.7317-0.81458-0.29321-0.214-0.41839-0.47814-0.34891-0.73618 0.06454-0.23967 0.38597-0.66059 0.91513-1.1984 0.66251-0.6733 0.87967-0.76619 1.1286-0.48272 0.23528 0.26797 0.99133 2.053 1.0496 2.4782 0.03347 0.24418-0.10363 0.55862-0.29193 0.66956-0.1618 0.09533-0.4864 0.13321-0.7208 0.08413z" fill="url(#linearGradient1124)" stroke-width=".045703"/>
</svg>
