<?xml version="1.0" encoding="UTF-8"?>
<svg width="64" height="64" version="1.1" viewBox="0 0 16.933 16.933" xmlns="http://www.w3.org/2000/svg" xmlns:xlink="http://www.w3.org/1999/xlink">
 <defs>
  <filter id="filter1178" x="-.047999" y="-.047999" width="1.096" height="1.096" color-interpolation-filters="sRGB">
   <feGaussianBlur stdDeviation="0.30691668"/>
  </filter>
  <radialGradient id="radialGradient20" cx="8.0813" cy="14.223" r="6.9674" gradientTransform="matrix(1.3052 -.01238 .011848 1.2491 -2.6346 -3.9203)" gradientUnits="userSpaceOnUse">
   <stop stop-color="#4c566a" offset="0"/>
   <stop stop-color="#2e3440" offset="1"/>
  </radialGradient>
  <linearGradient id="linearGradient8" x1="6.0244" x2="6.0244" y1="3.1432" y2="9.5065" gradientUnits="userSpaceOnUse">
   <stop stop-color="#d8dee9" offset="0"/>
   <stop stop-color="#eceff4" offset="1"/>
  </linearGradient>
  <radialGradient id="radialGradient16" cx="7.6744" cy="15.005" r="7.5405" gradientTransform="matrix(1.2861 -.01226 .01783 1.8704 -2.4565 -12.894)" gradientUnits="userSpaceOnUse">
   <stop stop-color="#eceff4" offset="0"/>
   <stop stop-color="#d8dee9" offset="1"/>
  </radialGradient>
  <filter id="filter16" x="-.13427" y="-.064932" width="1.2685" height="1.1299" color-interpolation-filters="sRGB">
   <feGaussianBlur stdDeviation="0.17675913"/>
  </filter>
 </defs>
 <g stroke-linecap="round" stroke-linejoin="round">
  <rect transform="matrix(.99138 0 0 1 .072989 .0019055)" x=".79375" y=".90545" width="15.346" height="15.346" rx="3.0526" ry="3.0526" filter="url(#filter1178)" opacity=".15" stroke-width="1.2489" style="mix-blend-mode:normal"/>
  <rect x=".01215" y=".0060174" width="16.924" height="16.927" fill="none" opacity=".15" stroke-width="1.052"/>
  <rect x=".92604" y=".92604" width="15.081" height="15.081" rx="3" ry="3" fill="url(#radialGradient16)" stroke-width="1.2274"/>
  <path d="m4.2711 1.4991h8.3908c1.5357 0 2.772 1.2363 2.772 2.772v7.3325c0 1.5357-1.2363 2.772-2.772 2.772h-8.3908c-1.5357 0-2.772-1.2363-2.772-2.772v-7.3325c0-1.5357 1.2363-2.772 2.772-2.772z" fill="url(#radialGradient20)" stroke-width="1.1341"/>
 </g>
 <path d="m5.8855 3.2412v0.70382c-0.3212 0.040955-0.59163 0.14577-0.81079 0.3147-0.28929 0.223-0.43407 0.53341-0.43407 0.93119 0 0.15369 0.024138 0.29847 0.072346 0.43407 0.05122 0.13259 0.12637 0.25928 0.22582 0.37981 0.10246 0.11753 0.22147 0.22284 0.35708 0.31625 0.13862 0.093417 0.40569 0.23053 0.80045 0.41134 0.51229 0.22902 0.76841 0.50324 0.76841 0.82267 0 0.44599-0.26543 0.6692-0.7958 0.6692-0.29231 0-0.67787-0.15685-1.157-0.47025l-0.30282 0.81337c0.40136 0.22627 0.82687 0.35115 1.2764 0.37516v0.83197h0.60667v-0.85936c0.33166-0.050725 0.60539-0.16164 0.82009-0.33382 0.30436-0.2471 0.45629-0.58768 0.45629-1.0216 0-0.33148-0.085586-0.60734-0.25734-0.82732-0.17177-0.21998-0.44599-0.41578-0.82267-0.58755l-0.61494-0.28008c-0.35258-0.15971-0.52916-0.39498-0.52916-0.70537 0-0.14766 0.069636-0.26995 0.20825-0.36638 0.14163-0.09643 0.31494-0.14417 0.51985-0.14417 0.34354 0 0.68524 0.13547 1.0258 0.40669l0.24442-0.7958c-0.40161-0.16696-0.752-0.2712-1.0506-0.31315v-0.70537h-0.60667z" fill="#2e3440" filter="url(#filter16)" stroke-width=".77145"/>
 <path d="m5.7468 3.0871v0.70382c-0.3212 0.040955-0.59163 0.14577-0.81079 0.3147-0.28929 0.223-0.43407 0.53341-0.43407 0.93119 0 0.15369 0.024138 0.29847 0.072346 0.43407 0.05122 0.13259 0.12637 0.25928 0.22582 0.37981 0.10246 0.11753 0.22147 0.22284 0.35708 0.31625 0.13862 0.093417 0.40569 0.23053 0.80045 0.41134 0.51229 0.22902 0.76841 0.50324 0.76841 0.82267 0 0.44599-0.26543 0.6692-0.7958 0.6692-0.29231 0-0.67787-0.15685-1.157-0.47025l-0.30282 0.81337c0.40136 0.22627 0.82687 0.35115 1.2764 0.37516v0.83197h0.60667v-0.85936c0.33166-0.050725 0.60539-0.16164 0.82009-0.33382 0.30436-0.2471 0.45629-0.58768 0.45629-1.0216 0-0.33148-0.085586-0.60734-0.25734-0.82732-0.17177-0.21998-0.44599-0.41578-0.82267-0.58755l-0.61494-0.28008c-0.35258-0.15971-0.52916-0.39498-0.52916-0.70537 0-0.14766 0.069636-0.26995 0.20825-0.36638 0.14163-0.09643 0.31494-0.14417 0.51985-0.14417 0.34354 0 0.68524 0.13547 1.0258 0.40669l0.24442-0.7958c-0.40161-0.16696-0.752-0.2712-1.0506-0.31315v-0.70537h-0.60667z" fill="url(#linearGradient8)" stroke-width=".77145"/>
</svg>
