<?xml version="1.0" encoding="UTF-8" standalone="no"?>
<svg
   width="64"
   height="64"
   version="1.1"
   viewBox="0 0 16.933 16.933"
   id="svg539"
   sodipodi:docname="blockbench.svg"
   inkscape:version="1.2.1 (9c6d41e410, 2022-07-14, custom)"
   xmlns:inkscape="http://www.inkscape.org/namespaces/inkscape"
   xmlns:sodipodi="http://sodipodi.sourceforge.net/DTD/sodipodi-0.dtd"
   xmlns:xlink="http://www.w3.org/1999/xlink"
   xmlns="http://www.w3.org/2000/svg"
   xmlns:svg="http://www.w3.org/2000/svg">
  <sodipodi:namedview
     id="namedview541"
     pagecolor="#ffffff"
     bordercolor="#000000"
     borderopacity="0.25"
     inkscape:showpageshadow="2"
     inkscape:pageopacity="0.0"
     inkscape:pagecheckerboard="0"
     inkscape:deskcolor="#d1d1d1"
     showgrid="false"
     inkscape:zoom="6.4453125"
     inkscape:cx="42.821818"
     inkscape:cy="54.768485"
     inkscape:window-width="1920"
     inkscape:window-height="1019"
     inkscape:window-x="0"
     inkscape:window-y="31"
     inkscape:window-maximized="1"
     inkscape:current-layer="svg539" />
  <defs
     id="defs433">
    <filter
       id="filter1178"
       x="-0.047999482"
       y="-0.047999482"
       width="1.095999"
       height="1.095999"
       color-interpolation-filters="sRGB">
      <feGaussianBlur
         stdDeviation="0.30691668"
         id="feGaussianBlur314" />
    </filter>
    <linearGradient
       id="linearGradient1340"
       x1="8.6644"
       x2="8.6644"
       y1="15.931"
       y2=".79375"
       gradientUnits="userSpaceOnUse">
      <stop
         stop-color="#5e81ac"
         offset="0"
         id="stop317" />
      <stop
         stop-color="#88c0d0"
         offset="1"
         id="stop319" />
    </linearGradient>
    <linearGradient
       id="linearGradient3534">
      <stop
         offset="0"
         id="stop322" />
      <stop
         stop-opacity="0"
         offset="1"
         id="stop324" />
    </linearGradient>
    <linearGradient
       id="linearGradient3650">
      <stop
         stop-color="#4b4b4b"
         offset="0"
         id="stop327" />
      <stop
         stop-color="#4b4b4b"
         stop-opacity="0"
         offset="1"
         id="stop329" />
    </linearGradient>
    <linearGradient
       id="linearGradient3641">
      <stop
         stop-color="#fff"
         offset="0"
         id="stop332" />
      <stop
         stop-color="#e5e5e5"
         offset="1"
         id="stop334" />
    </linearGradient>
    <linearGradient
       id="linearGradient3194">
      <stop
         stop-color="#fff"
         offset="0"
         id="stop337" />
      <stop
         stop-color="#fff"
         stop-opacity="0"
         offset="1"
         id="stop339" />
    </linearGradient>
    <filter
       id="filter3523"
       x="-0.064800003"
       y="-0.32400001"
       width="1.1296"
       height="1.648"
       color-interpolation-filters="sRGB">
      <feGaussianBlur
         stdDeviation="0.27"
         id="feGaussianBlur342" />
    </filter>
    <clipPath
       id="clipPath3451">
      <path
         d="m62.656 4c-0.98341 0-1.7812 0.79784-1.7812 1.7812v2.25c-0.48866 0.066098-0.875 0.46168-0.875 0.96875v48c0 0.55317 0.44683 1 1 1-0.55317 0-1 0.44683-1 1v52l1 31c0 0.55317 0.44683 1 1 1h6c0.55317 0 1-0.44683 1-1l1-31v-52c0-0.55317-0.44683-1-1-1 0.55317 0 1-0.44683 1-1v-48c0-0.55317-0.44683-1-1-1v-2.2188c0-0.98341-0.79784-1.7812-1.7812-1.7812h-4.5625z"
         opacity=".705"
         id="path345" />
    </clipPath>
    <filter
       id="filter3360"
       x="-0.38626"
       y="-0.027788489"
       width="1.77252"
       height="1.055577"
       color-interpolation-filters="sRGB">
      <feGaussianBlur
         stdDeviation="0.745"
         id="feGaussianBlur348" />
    </filter>
    <clipPath
       id="clipPath3344">
      <path
         d="m62.656 4c-0.98341 0-1.7812 0.79784-1.7812 1.7812v2.25c-0.48866 0.066098-0.875 0.46168-0.875 0.96875v48c0 0.55317 0.44683 1 1 1-0.55317 0-1 0.44683-1 1v52l1 31c0 0.55317 0.44683 1 1 1h6c0.55317 0 1-0.44683 1-1l1-31v-52c0-0.55317-0.44683-1-1-1 0.55317 0 1-0.44683 1-1v-48c0-0.55317-0.44683-1-1-1v-2.2188c0-0.98341-0.79784-1.7812-1.7812-1.7812h-4.5625z"
         opacity=".31"
         id="path351" />
    </clipPath>
    <clipPath
       id="clipPath3611">
      <path
         d="m89 7-84 18 19 99 66-14 18-6-3.1309-19.241-15.869-77.759z"
         fill-rule="evenodd"
         id="path354" />
    </clipPath>
    <filter
       id="filter3627"
       x="-0.029626011"
       y="-0.044235748"
       width="1.059252"
       height="1.0884715"
       color-interpolation-filters="sRGB">
      <feGaussianBlur
         stdDeviation="1.6272834"
         id="feGaussianBlur357" />
    </filter>
    <filter
       id="filter3361"
       x="-0.059532827"
       y="-0.053060671"
       width="1.1191359"
       height="1.1061065"
       color-interpolation-filters="sRGB">
      <feGaussianBlur
         stdDeviation="2.2148613"
         id="feGaussianBlur360" />
    </filter>
    <filter
       id="filter3678"
       x="-0.42359658"
       y="-0.42147447"
       width="1.8471932"
       height="1.8429489"
       color-interpolation-filters="sRGB">
      <feGaussianBlur
         stdDeviation="1.3924326"
         id="feGaussianBlur363" />
    </filter>
    <radialGradient
       id="radialGradient3496"
       cx="48.311"
       cy="33.129"
       r="51.5"
       fx="15.957"
       fy="45.863"
       gradientTransform="matrix(.097487 .16885 -.19272 .11127 15.126 .31504)"
       gradientUnits="userSpaceOnUse">
      <stop
         stop-color="#fafafa"
         offset="0"
         id="stop366" />
      <stop
         stop-color="#fafafa"
         offset=".5"
         id="stop368" />
      <stop
         stop-color="#eee"
         offset="1"
         id="stop370" />
    </radialGradient>
    <linearGradient
       id="linearGradient3498"
       x1="59.14"
       x2="107.97"
       y1="108.25"
       y2="74.752"
       gradientUnits="userSpaceOnUse"
       xlink:href="#linearGradient3534" />
    <linearGradient
       id="linearGradient3500"
       x1="105.81"
       x2="95.146"
       y1="102.51"
       y2="96.353"
       gradientTransform="matrix(.091811 0 0 .091811 25.081 1.1596)"
       gradientUnits="userSpaceOnUse"
       xlink:href="#linearGradient3194" />
    <linearGradient
       id="linearGradient3502"
       x1="34.994"
       x2="11.875"
       y1="52.387"
       y2="62.297"
       gradientTransform="matrix(.091811 0 0 .091811 25.265 1.1596)"
       gradientUnits="userSpaceOnUse"
       xlink:href="#linearGradient3534" />
    <radialGradient
       id="radialGradient3506"
       cx="69.029"
       cy="100.39"
       r="3.9445"
       fx="67.564"
       fy="100.63"
       gradientUnits="userSpaceOnUse"
       xlink:href="#linearGradient3534" />
    <linearGradient
       id="linearGradient3508"
       x1="28"
       x2="32"
       y1="42"
       y2="42"
       gradientTransform="matrix(.11355 -.016643 .016643 .11355 1.233 6.33)"
       gradientUnits="userSpaceOnUse"
       xlink:href="#linearGradient3641" />
    <linearGradient
       id="linearGradient3510"
       x1="26.919"
       x2="31.961"
       y1="37.049"
       y2="43.625"
       gradientTransform="matrix(.09084 -.013314 .013314 .09084 2.054 7.1839)"
       gradientUnits="userSpaceOnUse"
       xlink:href="#linearGradient3650" />
    <linearGradient
       id="linearGradient3532"
       x1="65.349"
       x2="72.1"
       y1="58"
       y2="58"
       gradientUnits="userSpaceOnUse"
       spreadMethod="reflect"
       xlink:href="#linearGradient3534" />
    <linearGradient
       id="linearGradient2304"
       x1="62"
       x2="70.922"
       y1="153.77"
       y2="144.84"
       gradientTransform="matrix(.055423 .036535 -.036535 .055423 33.166 -.54194)"
       gradientUnits="userSpaceOnUse"
       xlink:href="#linearGradient3194" />
    <linearGradient
       id="linearGradient2307"
       x1="61.001"
       x2="60.5"
       y1="31.586"
       y2="31.586"
       gradientTransform="matrix(.055423 .036535 -.0045669 .0069279 32.851 -.0040773)"
       gradientUnits="userSpaceOnUse">
      <stop
         stop-opacity="0"
         offset="0"
         id="stop381" />
      <stop
         stop-color="#080808"
         offset="1"
         id="stop383" />
    </linearGradient>
    <linearGradient
       id="linearGradient2310"
       x1="59.515"
       x2="62.331"
       y1="26.312"
       y2="26.312"
       gradientTransform="matrix(.083135 .054803 -.036535 .055423 31.585 -1.8225)"
       gradientUnits="userSpaceOnUse"
       spreadMethod="reflect">
      <stop
         stop-color="#ececec"
         offset="0"
         id="stop386" />
      <stop
         stop-color="#080808"
         offset="1"
         id="stop388" />
    </linearGradient>
    <radialGradient
       id="radialGradient2313"
       cx="59.373"
       cy="49.395"
       r="1.5"
       fx="58.936"
       fy="50.038"
       gradientTransform="matrix(.087067 .050268 -.11729 .20316 35.245 -8.6069)"
       gradientUnits="userSpaceOnUse">
      <stop
         stop-color="#404040"
         offset="0"
         id="stop391" />
      <stop
         stop-color="#efefef"
         offset="1"
         id="stop393" />
    </radialGradient>
    <linearGradient
       id="linearGradient2317"
       x1="64.756"
       x2="64.756"
       y1="139.99"
       y2="142.3"
       gradientTransform="matrix(.055423 .036535 -.036535 .055423 33.166 -.54194)"
       gradientUnits="userSpaceOnUse">
      <stop
         stop-color="#323232"
         offset="0"
         id="stop396" />
      <stop
         stop-color="#323232"
         stop-opacity="0"
         offset="1"
         id="stop398" />
    </linearGradient>
    <linearGradient
       id="linearGradient2320"
       x1="65"
       x2="74.249"
       y1="8"
       y2="8"
       gradientTransform="matrix(.055423 .036535 -.036535 .055423 33.276 -.7082)"
       gradientUnits="userSpaceOnUse"
       spreadMethod="reflect">
      <stop
         stop-color="#fff"
         offset="0"
         id="stop401" />
      <stop
         offset="1"
         id="stop403" />
    </linearGradient>
    <linearGradient
       id="linearGradient2326"
       x1="63.994"
       x2="63.994"
       y1="58"
       y2="56.996"
       gradientTransform="matrix(.055423 .036535 .036535 -.055423 29.038 5.7209)"
       gradientUnits="userSpaceOnUse"
       xlink:href="#linearGradient3534" />
    <linearGradient
       id="linearGradient2329"
       x1="63.994"
       x2="63.994"
       y1="58"
       y2="56.996"
       gradientTransform="matrix(.055423 .036535 -.036535 .055423 33.276 -.7082)"
       gradientUnits="userSpaceOnUse"
       xlink:href="#linearGradient3534" />
    <linearGradient
       id="linearGradient2332"
       x1="60.02"
       x2="65.489"
       y1="73.639"
       y2="73.674"
       gradientTransform="matrix(.055423 .036535 -.036535 .055423 33.276 -.7082)"
       gradientUnits="userSpaceOnUse">
      <stop
         stop-color="#fff"
         stop-opacity="0"
         offset="0"
         id="stop408" />
      <stop
         stop-color="#fff"
         offset=".5"
         id="stop410" />
      <stop
         stop-color="#fff"
         stop-opacity="0"
         offset="1"
         id="stop412" />
    </linearGradient>
    <linearGradient
       id="linearGradient2336"
       x1="70"
       x2="68.223"
       y1="70.141"
       y2="70.141"
       gradientTransform="matrix(.055423 .036535 -.036535 .055423 33.276 -.7082)"
       gradientUnits="userSpaceOnUse"
       xlink:href="#linearGradient3534" />
    <linearGradient
       id="linearGradient2339"
       x1="65.73"
       x2="70.036"
       y1="74.085"
       y2="74.085"
       gradientTransform="matrix(.055423 .036535 -.036535 .055423 33.276 -.7082)"
       gradientUnits="userSpaceOnUse"
       spreadMethod="reflect"
       xlink:href="#linearGradient3534" />
    <linearGradient
       id="linearGradient2343"
       x1="63.491"
       x2="73.839"
       y1="148.68"
       y2="150.8"
       gradientTransform="matrix(.055423 .036535 -.036535 .055423 33.166 -.54194)"
       gradientUnits="userSpaceOnUse">
      <stop
         stop-color="#c0c0c0"
         offset="0"
         id="stop417" />
      <stop
         stop-color="#4b4b4b"
         offset="1"
         id="stop419" />
    </linearGradient>
    <linearGradient
       id="linearGradient2346"
       x1="61.768"
       x2="71.775"
       y1="73.5"
       y2="73.5"
       gradientTransform="matrix(.055423 .036535 -.036535 .055423 33.276 -.7082)"
       gradientUnits="userSpaceOnUse">
      <stop
         stop-color="#eaeaea"
         offset="0"
         id="stop422" />
      <stop
         stop-color="#f2f2f2"
         offset=".22222"
         id="stop424" />
      <stop
         stop-color="#d0d0d0"
         offset=".75"
         id="stop426" />
      <stop
         stop-color="#dcdcdc"
         offset="1"
         id="stop428" />
    </linearGradient>
    <linearGradient
       id="linearGradient1253"
       x1="28"
       x2="32"
       y1="42"
       y2="42"
       gradientTransform="matrix(.11355 -.016643 .016643 .11355 .833 3.6047)"
       gradientUnits="userSpaceOnUse"
       xlink:href="#linearGradient3641" />
    <linearGradient
       id="linearGradient1255"
       x1="26.919"
       x2="31.961"
       y1="37.049"
       y2="43.625"
       gradientTransform="matrix(.09084 -.013314 .013314 .09084 1.654 4.4587)"
       gradientUnits="userSpaceOnUse"
       xlink:href="#linearGradient3650" />
  </defs>
  <g
     stroke-linecap="round"
     stroke-linejoin="round"
     id="g441">
    <rect
       transform="matrix(.99138 0 0 1 .072989 .0019055)"
       x=".79375"
       y=".90545"
       width="15.346"
       height="15.346"
       rx="3.0526"
       ry="3.0526"
       fill="#2e3440"
       filter="url(#filter1178)"
       opacity=".45"
       stroke-width="1.2489"
       style="mix-blend-mode:normal"
       id="rect435" />
    <rect
       x=".92604"
       y=".92604"
       width="15.081"
       height="15.081"
       rx="3"
       ry="3"
       fill="url(#linearGradient1340)"
       stroke-width="1.2274"
       id="rect437" />
    <rect
       x=".01215"
       y=".0060174"
       width="16.924"
       height="16.927"
       fill="none"
       opacity=".15"
       stroke-width="1.052"
       id="rect439" />
  </g>
  <path
     style="fill:#eceff4;fill-opacity:1;stroke:none;stroke-width:0.0145047"
     d="M 14.119386,4.4944865 C 13.995396,4.4955565 13.618402,4.5229125 12.39639,4.607054 10.883015,4.7111293 9.3657198,4.8157628 7.8709144,4.9181127 6.3592053,5.0216048 6.5086801,5.0075917 6.4367956,5.0525007 6.3560136,5.1029707 6.3104021,5.1885657 6.2835823,5.3400599 6.0598681,6.4214796 5.8805118,7.1975021 5.735745,7.826488 c -0.00763,0.01994 -0.02315,0.088478 -0.034486,0.1522989 -0.019195,0.1081045 -0.018803,0.1185172 0.00571,0.1523 0.051804,0.071302 0.1143527,0.087467 0.565494,0.1460735 1.7101154,0.2234814 3.4963379,0.4594758 5.072312,0.6661416 0.620451,0.081339 1.17784,0.1550657 1.588267,0.2100494 0.462202,0.061925 0.470716,0.062111 0.491064,0.011203 0.01613,-0.040365 0.04567,-0.1785844 0.103023,-0.4822901 0.236654,-1.2255607 0.511382,-2.6647365 0.711611,-3.684193 0.06264,-0.3188884 0.06557,-0.3537884 0.03434,-0.4072652 -0.01561,-0.026734 -0.04977,-0.061099 -0.07591,-0.076362 -0.02009,-0.011736 -0.0034,-0.020588 -0.0778,-0.019953 z m -8.7650908,3.97664 C 5.2948082,8.4704994 5.2381992,8.4748365 5.1802806,8.4837945 5.1005066,8.4961635 4.4771783,8.585332 3.7950935,8.6819458 3.1130102,8.7785628 2.52665,8.8678646 2.4920698,8.8803941 c -0.1040503,0.037704 -0.1461489,0.141353 -0.096442,0.2374798 0.03066,0.059295 0.1070349,0.094636 0.347859,0.1609683 0.03191,0.00877 0.07435,0.021343 0.094295,0.027894 2.2543536,0.6325486 4.6368274,1.3301678 6.7446974,1.9303688 0.1183427,0.03554 0.27983,0.09772 0.382726,0.09803 0.0778,-0.02097 0.5224068,-0.240338 1.5302408,-0.747496 0.818613,-0.411941 1.500485,-0.7594873 1.515263,-0.7723355 0.05611,-0.048793 0.08586,-0.1540888 0.0563,-0.1992994 -0.0059,-0.00897 -0.08571,-0.027368 -0.177457,-0.040902 C 12.671623,9.542959 11.992778,9.4437353 11.743676,9.4076139 11.635978,9.3919959 11.482583,9.3691879 11.402808,9.3569122 11.323036,9.3446365 11.078263,9.3086244 10.85888,9.2768727 10.639496,9.2451209 10.280518,9.1928822 10.061134,9.1607787 9.8417489,9.1286804 9.5284467,9.0830726 9.364906,9.0594342 8.9874239,9.0048734 8.1844046,8.8871434 7.733124,8.820212 7.5416621,8.7918139 7.2511975,8.7492822 7.0876568,8.7257047 6.0877972,8.5815448 5.7791577,8.535217 5.6952034,8.5166745 5.5605883,8.4869426 5.4534362,8.4721726 5.3542923,8.4711235 Z M 4.5198344,10.09186 c -0.00357,-2.81e-4 -0.00621,-2.81e-4 -0.00772,2.1e-5 -0.026763,0.0057 -0.5574823,1.143715 -0.5574823,1.195452 0,0.05294 0.038092,0.117947 0.083585,0.142631 0.050369,0.02734 0.082266,0.02778 0.1552528,0.0022 0.220614,-0.06865 0.4558042,-0.145236 0.674959,-0.211071 0.6534961,-0.195992 0.6642997,-0.199999 0.7335579,-0.272281 0.057366,-0.05987 0.1627804,-0.279133 0.1937527,-0.403015 0.00599,-0.02412 0.018731,-0.05839 0.02824,-0.07615 0.00951,-0.01776 0.014848,-0.0323 0.011857,-0.0323 -0.3813278,-0.0987 -0.777219,-0.206191 -1.138296,-0.305195 -0.078751,-0.02163 -0.1524833,-0.0382 -0.1777076,-0.04032 z m 6.7750816,0.888493 c -0.01114,-4.59e-4 -0.02866,0.0078 -0.06096,0.02667 -0.03476,0.0203 -0.135021,0.0772 -0.222776,0.126422 -0.238835,0.144434 -0.465444,0.29458 -0.717983,0.413767 -0.204918,0.128251 -0.2952258,0.156204 -0.3978318,0.123189 -0.1001253,-0.03222 -0.3667001,-0.101692 -0.3901625,-0.101692 -0.013849,0 -0.02884,0.01141 -0.033337,0.02537 -0.00786,0.02442 -0.032773,0.09439 -0.094231,0.264719 -0.098973,0.254777 -0.184182,0.512046 -0.2734718,0.754251 -0.042597,0.115453 -0.1170241,0.380981 -0.1158605,0.413343 0.00115,0.03191 0.070451,0.09728 0.1240192,0.116988 0.032852,0.01209 0.081198,0.01768 0.1147769,0.0133 0.6240594,-0.252542 1.0998455,-0.571109 1.6306565,-0.849101 0.162458,-0.08479 0.222085,-0.144141 0.245467,-0.24432 0.0196,-0.08395 0.05633,-0.247288 0.08023,-0.356762 0.01219,-0.05585 0.0361,-0.16354 0.05316,-0.239328 0.09065,-0.402791 0.09643,-0.440392 0.07326,-0.476977 -0.0039,-0.0062 -0.0083,-0.0096 -0.01496,-0.0098 z"
     id="path5085"
     inkscape:connector-curvature="0"
     sodipodi:nodetypes="ccccccccccscccccccsscsccccsccccscssscccscscccccccccsssccscccccccccccss" />
</svg>
