<svg width="64" height="64" version="1.1" viewBox="0 0 16.933 16.933" xmlns="http://www.w3.org/2000/svg">
 <defs>
  <filter id="filter1178" x="-.047999" y="-.047999" width="1.096" height="1.096" color-interpolation-filters="sRGB">
   <feGaussianBlur stdDeviation="0.30691668"/>
  </filter>
  <linearGradient id="linearGradient1340" x1="8.6644" x2="8.6644" y1="15.931" y2=".79375" gradientUnits="userSpaceOnUse">
   <stop stop-color="#5e81ac" offset="0"/>
   <stop stop-color="#88c0d0" offset="1"/>
  </linearGradient>
  <filter id="filter927" x="-.041447" y="-.057014" width="1.0829" height="1.114" color-interpolation-filters="sRGB">
   <feGaussianBlur stdDeviation="0.20581423"/>
  </filter>
 </defs>
 <g stroke-linecap="round" stroke-linejoin="round">
  <rect transform="matrix(.99138 0 0 1 .072989 .0019055)" x=".79375" y=".90545" width="15.346" height="15.346" rx="3.0526" ry="3.0526" fill="#2e3440" filter="url(#filter1178)" opacity=".45" stroke-width="1.2489" style="mix-blend-mode:normal"/>
  <rect x=".92604" y=".92604" width="15.081" height="15.081" rx="3" ry="3" fill="url(#linearGradient1340)" stroke-width="1.2274"/>
  <rect x=".01215" y=".0060174" width="16.924" height="16.927" fill="none" opacity=".15" stroke-width="1.052"/>
 </g>
 <path d="m14.325 4.6997c-0.12399 0.00107-0.50098 0.028426-1.723 0.11257-1.5134 0.10408-3.0307 0.20871-4.5255 0.31106-1.5117 0.10349-1.3622 0.089479-1.4341 0.13439-0.080782 0.05047-0.12639 0.13606-0.15321 0.28756-0.22371 1.0814-0.40307 1.8574-0.54784 2.4864-0.00763 0.01994-0.02315 0.088478-0.034486 0.1523-0.019195 0.1081-0.018803 0.11852 0.00571 0.1523 0.051804 0.071302 0.11435 0.087467 0.56549 0.14607 1.7101 0.22348 3.4963 0.45948 5.0723 0.66614 0.62045 0.081339 1.1778 0.15507 1.5883 0.21005 0.4622 0.061925 0.47072 0.062111 0.49106 0.011203 0.01613-0.040365 0.04567-0.17858 0.10302-0.48229 0.23665-1.2256 0.51138-2.6647 0.71161-3.6842 0.06264-0.31889 0.06557-0.35379 0.03434-0.40727-0.01561-0.026734-0.04977-0.061099-0.07591-0.076362-0.02009-0.011736-0.0034-0.020588-0.0778-0.019953zm-8.7651 3.9766c-0.059487-6.271e-4 -0.1161 0.00371-0.17401 0.012668-0.079774 0.012369-0.7031 0.10154-1.3852 0.19815-0.68208 0.096617-1.2684 0.18592-1.303 0.19845-0.10405 0.037704-0.14615 0.14135-0.096442 0.23748 0.03066 0.059295 0.10703 0.094636 0.34786 0.16097 0.03191 0.00877 0.07435 0.021343 0.094295 0.027894 2.2544 0.63255 4.6368 1.3302 6.7447 1.9304 0.11834 0.03554 0.27983 0.09772 0.38273 0.09803 0.0778-0.02097 0.52241-0.24034 1.5302-0.7475 0.81861-0.41194 1.5005-0.75949 1.5153-0.77234 0.05611-0.048793 0.08586-0.15409 0.0563-0.1993-0.0059-0.00897-0.08571-0.027368-0.17746-0.040902-0.21793-0.032143-0.89677-0.13137-1.1459-0.16749-0.1077-0.015618-0.26109-0.038426-0.34087-0.050702-0.079772-0.012276-0.32454-0.048288-0.54393-0.08004-0.21938-0.031752-0.57836-0.08399-0.79775-0.11609-0.21939-0.032098-0.53269-0.077706-0.69623-0.10134-0.37748-0.054561-1.1805-0.17229-1.6318-0.23922-0.19146-0.028398-0.48193-0.07093-0.64547-0.094507-0.99986-0.14416-1.3085-0.19049-1.3925-0.20903-0.13462-0.029732-0.24177-0.044502-0.34091-0.045551zm-0.83446 1.6207c-0.00357-2.81e-4 -0.00621-2.81e-4 -0.00772 2.1e-5 -0.026763 0.0057-0.55748 1.1437-0.55748 1.1955 0 0.05294 0.038092 0.11795 0.083585 0.14263 0.050369 0.02734 0.082266 0.02778 0.15525 0.0022 0.22061-0.06865 0.4558-0.14524 0.67496-0.21107 0.6535-0.19599 0.6643-0.2 0.73356-0.27228 0.057366-0.05987 0.16278-0.27913 0.19375-0.40302 0.00599-0.02412 0.018731-0.05839 0.02824-0.07615 0.00951-0.01776 0.014848-0.0323 0.011857-0.0323-0.38133-0.0987-0.77722-0.20619-1.1383-0.3052-0.078751-0.02163-0.15248-0.0382-0.17771-0.04032zm6.7751 0.88849c-0.01114-4.59e-4 -0.02866 0.0078-0.06096 0.02667-0.03476 0.0203-0.13502 0.0772-0.22278 0.12642-0.23884 0.14443-0.46544 0.29458-0.71798 0.41377-0.20492 0.12825-0.29523 0.1562-0.39783 0.12319-0.10013-0.03222-0.3667-0.10169-0.39016-0.10169-0.013849 0-0.02884 0.01141-0.033337 0.02537-0.00786 0.02442-0.032773 0.09439-0.094231 0.26472-0.098973 0.25478-0.18418 0.51205-0.27347 0.75425-0.042597 0.11545-0.11702 0.38098-0.11586 0.41334 0.00115 0.03191 0.070451 0.09728 0.12402 0.11699 0.032852 0.01209 0.081198 0.01768 0.11478 0.0133 0.62406-0.25254 1.0998-0.57111 1.6307-0.8491 0.16246-0.08479 0.22208-0.14414 0.24547-0.24432 0.0196-0.08395 0.05633-0.24729 0.08023-0.35676 0.01219-0.05585 0.0361-0.16354 0.05316-0.23933 0.09065-0.40279 0.09643-0.44039 0.07326-0.47698-0.0039-0.0062-0.0083-0.0096-0.01496-0.0098z" fill="#2e3440" filter="url(#filter927)" opacity=".15"/>
 <path d="m14.119 4.4945c-0.12399 0.00107-0.50098 0.028426-1.723 0.11257-1.5134 0.10408-3.0307 0.20871-4.5255 0.31106-1.5117 0.10349-1.3622 0.089479-1.4341 0.13439-0.080782 0.05047-0.12639 0.13606-0.15321 0.28756-0.22371 1.0814-0.40307 1.8574-0.54784 2.4864-0.00763 0.01994-0.02315 0.088478-0.034486 0.1523-0.019195 0.1081-0.018803 0.11852 0.00571 0.1523 0.051804 0.071302 0.11435 0.087467 0.56549 0.14607 1.7101 0.22348 3.4963 0.45948 5.0723 0.66614 0.62045 0.081339 1.1778 0.15507 1.5883 0.21005 0.4622 0.061925 0.47072 0.062111 0.49106 0.011203 0.01613-0.040365 0.04567-0.17858 0.10302-0.48229 0.23665-1.2256 0.51138-2.6647 0.71161-3.6842 0.06264-0.31889 0.06557-0.35379 0.03434-0.40727-0.01561-0.026734-0.04977-0.061099-0.07591-0.076362-0.02009-0.011736-0.0034-0.020588-0.0778-0.019953zm-8.7651 3.9766c-0.059487-6.271e-4 -0.1161 0.00371-0.17401 0.012668-0.079774 0.012369-0.7031 0.10154-1.3852 0.19815-0.68208 0.096617-1.2684 0.18592-1.303 0.19845-0.10405 0.037704-0.14615 0.14135-0.096442 0.23748 0.03066 0.059295 0.10703 0.094636 0.34786 0.16097 0.03191 0.00877 0.07435 0.021343 0.094295 0.027894 2.2544 0.63255 4.6368 1.3302 6.7447 1.9304 0.11834 0.03554 0.27983 0.09772 0.38273 0.09803 0.0778-0.02097 0.52241-0.24034 1.5302-0.7475 0.81861-0.41194 1.5005-0.75949 1.5153-0.77234 0.05611-0.048793 0.08586-0.15409 0.0563-0.1993-0.0059-0.00897-0.08571-0.027368-0.17746-0.040902-0.21793-0.032143-0.89677-0.13137-1.1459-0.16749-0.1077-0.015618-0.26109-0.038426-0.34087-0.050702-0.079772-0.012276-0.32454-0.048288-0.54393-0.08004-0.21938-0.031752-0.57836-0.08399-0.79775-0.11609-0.21939-0.032098-0.53269-0.077706-0.69623-0.10134-0.37748-0.054561-1.1805-0.17229-1.6318-0.23922-0.19146-0.028398-0.48193-0.07093-0.64547-0.094507-0.99986-0.14416-1.3085-0.19049-1.3925-0.20903-0.13462-0.029732-0.24177-0.044502-0.34091-0.045551zm-0.83446 1.6207c-0.00357-2.81e-4 -0.00621-2.81e-4 -0.00772 2.1e-5 -0.026763 0.0057-0.55748 1.1437-0.55748 1.1955 0 0.05294 0.038092 0.11795 0.083585 0.14263 0.050369 0.02734 0.082266 0.02778 0.15525 0.0022 0.22061-0.06865 0.4558-0.14524 0.67496-0.21107 0.6535-0.19599 0.6643-0.2 0.73356-0.27228 0.057366-0.05987 0.16278-0.27913 0.19375-0.40302 0.00599-0.02412 0.018731-0.05839 0.02824-0.07615 0.00951-0.01776 0.014848-0.0323 0.011857-0.0323-0.38133-0.0987-0.77722-0.20619-1.1383-0.3052-0.078751-0.02163-0.15248-0.0382-0.17771-0.04032zm6.7751 0.88849c-0.01114-4.59e-4 -0.02866 0.0078-0.06096 0.02667-0.03476 0.0203-0.13502 0.0772-0.22278 0.12642-0.23884 0.14443-0.46544 0.29458-0.71798 0.41377-0.20492 0.12825-0.29523 0.1562-0.39783 0.12319-0.10013-0.03222-0.3667-0.10169-0.39016-0.10169-0.013849 0-0.02884 0.01141-0.033337 0.02537-0.00786 0.02442-0.032773 0.09439-0.094231 0.26472-0.098973 0.25478-0.18418 0.51205-0.27347 0.75425-0.042597 0.11545-0.11702 0.38098-0.11586 0.41334 0.00115 0.03191 0.070451 0.09728 0.12402 0.11699 0.032852 0.01209 0.081198 0.01768 0.11478 0.0133 0.62406-0.25254 1.0998-0.57111 1.6307-0.8491 0.16246-0.08479 0.22208-0.14414 0.24547-0.24432 0.0196-0.08395 0.05633-0.24729 0.08023-0.35676 0.01219-0.05585 0.0361-0.16354 0.05316-0.23933 0.09065-0.40279 0.09643-0.44039 0.07326-0.47698-0.0039-0.0062-0.0083-0.0096-0.01496-0.0098z" fill="#eceff4"/>
</svg>
