<svg width="64" height="64" version="1.1" viewBox="0 0 16.933 16.933" xmlns="http://www.w3.org/2000/svg" xmlns:xlink="http://www.w3.org/1999/xlink">
 <defs>
  <filter id="filter1178" x="-.047999" y="-.047999" width="1.096" height="1.096" color-interpolation-filters="sRGB">
   <feGaussianBlur stdDeviation="0.30691668"/>
  </filter>
  <linearGradient id="linearGradient1340" x1="8.355" x2="8.3996" y1="16.007" y2=".79375" gradientUnits="userSpaceOnUse">
   <stop stop-color="#d8dee9" offset="0"/>
   <stop stop-color="#eceff4" offset="1"/>
  </linearGradient>
  <linearGradient id="linearGradient1199" x1="30.675" x2="30.675" y1="12.148" y2="51.652" gradientTransform="matrix(.26458 0 0 .26458 13.435 -.028675)" gradientUnits="userSpaceOnUse">
   <stop stop-color="#eceff4" offset="0"/>
   <stop stop-color="#d8dee9" offset="1"/>
  </linearGradient>
  <filter id="c" x="-.07966" y="-.048123" width="1.1593" height="1.0962" color-interpolation-filters="sRGB">
   <feGaussianBlur stdDeviation="0.79660366"/>
  </filter>
  <filter id="filter1838" x="-.15774" y="-.14793" width="1.3155" height="1.2959" color-interpolation-filters="sRGB">
   <feGaussianBlur stdDeviation="0.23192251"/>
  </filter>
  <linearGradient id="linearGradient1477" x1="43.402" x2="44.013" y1="45.799" y2="46.45" gradientUnits="userSpaceOnUse" xlink:href="#linearGradient1475"/>
  <linearGradient id="linearGradient1475">
   <stop stop-color="#2e3440" offset="0"/>
   <stop stop-color="#eceff4" stop-opacity="0" offset="1"/>
  </linearGradient>
  <linearGradient id="linearGradient1689" x1="43.402" x2="44.013" y1="45.799" y2="46.45" gradientTransform="translate(1.4849 .0032981)" gradientUnits="userSpaceOnUse" xlink:href="#linearGradient1475"/>
  <linearGradient id="linearGradient1898" x1="235.71" x2="244.91" y1="1.1888" y2="-8.554" gradientUnits="userSpaceOnUse">
   <stop stop-color="#eceff4" offset="0"/>
   <stop stop-color="#d8dee9" offset=".035248"/>
   <stop stop-color="#d8dee9" stop-opacity=".019608" offset=".95403"/>
   <stop stop-color="#2e3440" offset="1"/>
  </linearGradient>
  <filter id="filter3310" x="-.10586" y="-.04431" width="1.2117" height="1.0886" color-interpolation-filters="sRGB">
   <feGaussianBlur stdDeviation="0.2133556"/>
  </filter>
  <linearGradient id="linearGradient3368" x1="42.234" x2="46.858" y1="49.192" y2="58.538" gradientTransform="matrix(-.66061 .0032898 -.0032898 -.66061 61.359 55.766)" gradientUnits="userSpaceOnUse">
   <stop stop-color="#88c0d0" offset="0"/>
   <stop stop-color="#5e81ac" offset="1"/>
  </linearGradient>
  <linearGradient id="linearGradient3900" x1="42.014" x2="46.764" y1="53.217" y2="53.202" gradientTransform="matrix(-.66061 .0032898 -.0032898 -.66061 61.359 55.766)" gradientUnits="userSpaceOnUse">
   <stop stop-color="#eceff4" stop-opacity=".34" offset="0"/>
   <stop stop-color="#eceff4" stop-opacity="0" offset=".10055"/>
   <stop stop-color="#ad86a6" stop-opacity="0" offset=".8971"/>
   <stop stop-color="#2e3440" stop-opacity=".4" offset="1"/>
  </linearGradient>
  <linearGradient id="linearGradient6594" x1="44.476" x2="44.551" y1="59.766" y2="48.03" gradientTransform="matrix(-.66061 .0032898 -.0032898 -.66061 61.359 55.766)" gradientUnits="userSpaceOnUse">
   <stop stop-color="#2e3440" offset="0"/>
   <stop stop-color="#b38dac" stop-opacity="0" offset=".048162"/>
   <stop stop-color="#ad85a5" stop-opacity="0" offset="1"/>
  </linearGradient>
  <filter id="filter48528" x="-.2239" y="-.071163" width="1.4478" height="1.1423" color-interpolation-filters="sRGB">
   <feGaussianBlur stdDeviation="0.92954931"/>
  </filter>
 </defs>
 <g stroke-linecap="round" stroke-linejoin="round">
  <rect transform="matrix(.99138 0 0 1 .072989 .0019055)" x=".79375" y=".90545" width="15.346" height="15.346" rx="3.0526" ry="3.0526" fill="#000000" filter="url(#filter1178)" opacity=".15" stroke-width="1.2489" style="mix-blend-mode:normal"/>
  <rect x=".92604" y=".92604" width="15.081" height="15.081" rx="3" ry="3" fill="url(#linearGradient1340)" stroke-width="1.2274"/>
  <rect x=".01215" y=".0060174" width="16.924" height="16.927" fill="none" opacity=".15" stroke-width="1.052"/>
 </g>
 <g transform="matrix(1.1764 .53049 -.53049 1.1764 -21.917 -26.927)">
  <g transform="translate(.91872 -6.365)">
   <g transform="matrix(.32393 0 0 .32393 24.731 17.696)">
    <path d="m21.551 3.1854c-0.09049-0.010374-0.18346 0.00449-0.26886 0.04547-0.17076 0.081956-0.27939 0.25472-0.27939 0.44415v3.5374l-1.4741-1.1914c-0.21151-0.17098-0.52156-0.13845-0.69259 0.073145-0.17102 0.21155-0.13774 0.52222 0.07381 0.69325l2.0428 1.6514-2.0428 1.6514c-0.21155 0.17102-0.24483 0.48103-0.07381 0.69259 0.09735 0.12041 0.23992 0.18254 0.38353 0.18254 0.10877 0 0.21792-0.03571 0.30905-0.10939l1.4741-1.1914v3.5366c0 0.18943 0.10864 0.36221 0.27939 0.44415 0.06781 0.03251 0.14042 0.04811 0.21285 0.04811 0.10998 0 0.21929-0.03664 0.30839-0.10807l3.0887-2.4764c0.11662-0.09351 0.18451-0.23472 0.18451-0.38419s-0.0679-0.29072-0.18451-0.38419l-2.373-1.9025 2.373-1.9025c0.11662-0.09351 0.18451-0.23476 0.18451-0.38419s-0.0679-0.29138-0.18451-0.38486l-3.0887-2.4758c-0.07389-0.059236-0.1619-0.095063-0.25239-0.10544zm0.43624 1.5156 1.8096 1.4504-1.8096 1.4498zm0 4.5732 1.8096 1.4504-1.8096 1.4498zm-0.43624-6.0889c-0.09049-0.010374-0.18346 0.00449-0.26886 0.04547-0.17076 0.081956-0.2794 0.25472-0.2794 0.44415v3.5374l-1.4741-1.1914c-0.21151-0.17098-0.52156-0.13845-0.69259 0.073145-0.17102 0.21155-0.13774 0.52222 0.07381 0.69325l2.0428 1.6514-2.0428 1.6514c-0.21155 0.17102-0.24483 0.48103-0.07381 0.69259 0.09735 0.12041 0.23992 0.18254 0.38353 0.18254 0.10877 0 0.21792-0.03571 0.30905-0.10939l1.4741-1.1914v3.5366c0 0.18943 0.10864 0.36221 0.2794 0.44415 0.06781 0.03251 0.14042 0.0481 0.21285 0.0481 0.10998 0 0.21929-0.03664 0.30839-0.10807l3.0887-2.4764c0.11662-0.09351 0.18451-0.23472 0.18451-0.38419s-0.0679-0.29072-0.18451-0.38419l-2.373-1.9025 2.373-1.9025c0.11662-0.09351 0.18451-0.23476 0.18451-0.38419s-0.0679-0.29138-0.18451-0.38486l-3.0887-2.4758c-0.07389-0.059236-0.1619-0.095063-0.25239-0.10544zm0.43624 1.5156 1.8096 1.4504-1.8096 1.4498zm0 4.5732 1.8096 1.4504-1.8096 1.4498zm3.2907 10.921-6.637 0.03306c-0.89395 0.0043-1.6172-0.71165-1.6216-1.6056l-0.09962-20.001c1.5811-3.3001 9.7435-1.8586 9.8643-0.049115l0.09962 20.001c0.0043 0.89394-0.71165 1.6172-1.6056 1.6216zm0 0-6.637 0.03306c-0.89395 0.0043-1.6172-0.71165-1.6216-1.6056l-0.09962-20.001c1.5811-3.3001 9.7435-1.8586 9.8643-0.049115l0.09962 20.001c0.0043 0.89394-0.71165 1.6172-1.6056 1.6216zm0 0-6.637 0.03306c-0.89395 0.0043-1.6172-0.71165-1.6216-1.6056l-0.09962-20.001c1.5811-3.3001 9.7435-1.8586 9.8643-0.049115l0.09962 20.001c0.0043 0.89394-0.71165 1.6172-1.6056 1.6216zm-2e-6 1e-6 -6.637 0.03305c-0.89394 0.0045-1.6172-0.71165-1.6216-1.6056l-0.09961-20.001c1.5811-3.3001 9.7435-1.8586 9.8643-0.049124l0.09961 20.001c0.0045 0.89394-0.71165 1.6172-1.6056 1.6216zm-6.9978 7.8007 7.1958-0.04784-0.05074-7.6735-7.1958 0.04784zm1.3895-3.2609-0.0095-1.3276 1.2456-0.0082 0.0087 1.3269-1.2449 0.0089zm3.0271-0.01359-8e-3 -1.3277 1.2449-0.0089 0.0087 1.3284-1.2456 0.0082zm-4.4166 3.2745 7.1958-0.04784-0.05074-7.6735-7.1958 0.04784zm1.3895-3.2609-0.0095-1.3276 1.2456-0.0082 0.0087 1.3269-1.2449 0.0089zm3.0271-0.01359-8e-3 -1.3277 1.2449-0.0089 0.0087 1.3284-1.2456 0.0082zm-1.7827 0.0056-1.2453 0.0083-0.0088-1.328 1.2453-0.0083zm3.0284-0.01399-1.2453 0.0083-0.0088-1.328 1.2453-0.0083zm1.5327 3.2345-7.1959 0.04777-0.05094-7.6733 7.1959-0.04777z" fill="#2e3440" filter="url(#filter48528)" opacity=".4"/>
   </g>
   <g stroke-linecap="round" stroke-linejoin="round">
    <g transform="matrix(-.45751 -.47655 .47655 -.45751 61.359 55.766)">
     <rect transform="rotate(-46.548)" x="42.661" y="44.208" width="3.5286" height="3.7627" fill="#2e3440" filter="url(#filter1838)" opacity=".5" stroke-width=".023814"/>
     <rect transform="rotate(-46.548)" x="43.402" y="45.799" width=".61066" height=".65118" fill="url(#linearGradient1477)" stroke-width=".0041214"/>
     <rect transform="rotate(-46.548)" x="44.887" y="45.802" width=".61066" height=".65118" fill="url(#linearGradient1689)" stroke-width=".0041214"/>
     <path transform="scale(.26458)" d="m241.36-11.82-9.1719 9.6816 10.324 9.7812 9.1719-9.6816zm2.5762 6.043 1.7871 1.6914-1.5879 1.6758-1.7852-1.6914 1.5859-1.6758zm-3.8672 4.0645 1.7852 1.6934-1.5859 1.6758-1.7871-1.6934 1.5879-1.6758z" fill="#d8dee9" stroke-width=".090009"/>
     <path transform="scale(.26458)" d="m241.36-11.82-9.1719 9.6816 10.324 9.7812 9.1719-9.6816zm2.5762 6.043 1.7871 1.6914-1.5879 1.6758-1.7852-1.6914 1.5859-1.6758zm-3.8672 4.0645 1.7852 1.6934-1.5859 1.6758-1.7871-1.6934 1.5879-1.6758z" fill="url(#linearGradient1898)" stroke-width=".090009"/>
     <path transform="rotate(-46.453)" d="m42.812 47.939h3.2545c0.43835 0 0.79124 0.3529 0.79124 0.79124v9.8077c-0.78336 1.6143-4.7822 0.88754-4.837 0v-9.8077c0-0.43835 0.3529-0.79124 0.79124-0.79124z" fill="#2e3440" filter="url(#filter3310)" opacity=".5" stroke-width=".026458"/>
    </g>
    <g stroke-width=".017479">
     <path d="m32.919 24.238-2.15 0.01071c-0.28958 0.0014-0.52386-0.23053-0.5253-0.5201l-0.03227-6.4791c0.51218-1.069 3.1562-0.60205 3.1954-0.01591l0.03227 6.4791c0.0014 0.28958-0.23053 0.52386-0.5201 0.5253z" fill="url(#linearGradient3368)"/>
     <path d="m32.919 24.238-2.15 0.01071c-0.28958 0.0014-0.52386-0.23053-0.5253-0.5201l-0.03227-6.4791c0.51218-1.069 3.1562-0.60205 3.1954-0.01591l0.03227 6.4791c0.0014 0.28958-0.23053 0.52386-0.5201 0.5253z" fill="url(#linearGradient3900)"/>
     <path d="m32.919 24.238-2.15 0.01071c-0.28958 0.0014-0.52386-0.23053-0.5253-0.5201l-0.03227-6.4791c0.51218-1.069 3.1562-0.60205 3.1954-0.01591l0.03227 6.4791c0.0014 0.28958-0.23053 0.52386-0.5201 0.5253z" fill="url(#linearGradient6594)"/>
    </g>
   </g>
   <g transform="matrix(.32393 0 0 .32393 24.731 17.696)">
    <path transform="matrix(.26458 0 0 .26458 13.435 -.028675)" d="m30.675 12.148c-0.34202-0.03921-0.6934 0.01697-1.0162 0.17186-0.64542 0.30976-1.056 0.96273-1.056 1.6787v13.37l-5.5716-4.5031c-0.79941-0.64624-1.9713-0.52327-2.6177 0.27646-0.6464 0.79957-0.52062 1.9738 0.27896 2.6202l7.7211 6.2416-7.7211 6.2416c-0.79957 0.6464-0.92536 1.8181-0.27896 2.6177 0.36793 0.45511 0.9068 0.68992 1.4496 0.68992 0.41111 0 0.82366-0.13498 1.1681-0.41345l5.5716-4.5031v13.367c0 0.71598 0.41062 1.369 1.056 1.6787 0.25631 0.12286 0.53074 0.18182 0.80449 0.18182 0.41567 0 0.82883-0.13847 1.1656-0.40847l11.674-9.3599c0.44077-0.35343 0.69739-0.88713 0.69739-1.4521 0-0.56493-0.25662-1.0988-0.69739-1.4521l-8.9689-7.1906 8.9689-7.1906c0.44077-0.35343 0.69739-0.88729 0.69739-1.4521 0-0.56477-0.25662-1.1013-0.69739-1.4546l-11.674-9.3574c-0.27929-0.22389-0.6119-0.3593-0.95393-0.39851zm1.6488 5.7285 6.8394 5.482-6.8394 5.4795zm0 17.285 6.8394 5.482-6.8394 5.4795z" filter="url(#c)" opacity=".15" stroke-width=".12778"/>
    <path d="m21.551 3.1854c-0.09049-0.010374-0.18346 0.00449-0.26886 0.04547-0.17076 0.081956-0.27939 0.25472-0.27939 0.44415v3.5374l-1.4741-1.1914c-0.21151-0.17098-0.52156-0.13845-0.69259 0.073145-0.17102 0.21155-0.13774 0.52222 0.07381 0.69325l2.0428 1.6514-2.0428 1.6514c-0.21155 0.17102-0.24483 0.48103-0.07381 0.69259 0.09735 0.12041 0.23992 0.18254 0.38353 0.18254 0.10877 0 0.21792-0.03571 0.30905-0.10939l1.4741-1.1914v3.5366c0 0.18943 0.10864 0.36221 0.27939 0.44415 0.06781 0.03251 0.14042 0.04811 0.21285 0.04811 0.10998 0 0.21929-0.03664 0.30839-0.10807l3.0887-2.4764c0.11662-0.09351 0.18451-0.23472 0.18451-0.38419s-0.0679-0.29072-0.18451-0.38419l-2.373-1.9025 2.373-1.9025c0.11662-0.09351 0.18451-0.23476 0.18451-0.38419s-0.0679-0.29138-0.18451-0.38486l-3.0887-2.4758c-0.07389-0.059236-0.1619-0.095063-0.25239-0.10544zm0.43624 1.5156 1.8096 1.4504-1.8096 1.4498zm0 4.5732 1.8096 1.4504-1.8096 1.4498z" fill="url(#linearGradient1199)" stroke-width=".033808"/>
   </g>
  </g>
 </g>
</svg>
