<svg width="64" height="64" version="1.1" viewBox="0 0 16.933 16.933" xmlns="http://www.w3.org/2000/svg">
 <defs>
  <filter id="filter1178" x="-.047999" y="-.047999" width="1.096" height="1.096" color-interpolation-filters="sRGB">
   <feGaussianBlur stdDeviation="0.30691668"/>
  </filter>
  <linearGradient id="linearGradient1340" x1="8.6644" x2="8.6644" y1="15.931" y2=".79375" gradientUnits="userSpaceOnUse">
   <stop stop-color="#5e81ac" offset="0"/>
   <stop stop-color="#88c0d0" offset="1"/>
  </linearGradient>
  <linearGradient id="linearGradient1199" x1="30.675" x2="30.675" y1="12.148" y2="51.652" gradientTransform="matrix(.26458 0 0 .26458 5.0308 1.3498)" gradientUnits="userSpaceOnUse">
   <stop stop-color="#eceff4" offset="0"/>
   <stop stop-color="#d8dee9" offset="1"/>
  </linearGradient>
  <filter id="c" x="-.07966" y="-.048123" width="1.1593" height="1.0962" color-interpolation-filters="sRGB">
   <feGaussianBlur stdDeviation="0.79660366"/>
  </filter>
 </defs>
 <g stroke-linecap="round" stroke-linejoin="round">
  <rect transform="matrix(.99138 0 0 1 .072989 .0019055)" x=".79375" y=".90545" width="15.346" height="15.346" rx="3.0526" ry="3.0526" fill="#000000" filter="url(#filter1178)" opacity=".15" stroke-width="1.2489" style="mix-blend-mode:normal"/>
  <rect x=".92604" y=".92604" width="15.081" height="15.081" rx="3" ry="3" fill="url(#linearGradient1340)" stroke-width="1.2274"/>
  <rect x=".01215" y=".0060174" width="16.924" height="16.927" fill="none" opacity=".15" stroke-width="1.052"/>
 </g>
 <g transform="translate(-5.0232 -1.3467)">
  <path transform="matrix(.26458 0 0 .26458 5.0308 1.3498)" d="m30.675 12.148c-0.34202-0.03921-0.6934 0.01697-1.0162 0.17186-0.64542 0.30976-1.056 0.96273-1.056 1.6787v13.37l-5.5716-4.5031c-0.79941-0.64624-1.9713-0.52327-2.6177 0.27646-0.6464 0.79957-0.52062 1.9738 0.27896 2.6202l7.7211 6.2416-7.7211 6.2416c-0.79957 0.6464-0.92536 1.8181-0.27896 2.6177 0.36793 0.45511 0.9068 0.68992 1.4496 0.68992 0.41111 0 0.82366-0.13498 1.1681-0.41345l5.5716-4.5031v13.367c0 0.71598 0.41062 1.369 1.056 1.6787 0.25631 0.12286 0.53074 0.18182 0.80449 0.18182 0.41567 0 0.82883-0.13847 1.1656-0.40847l11.674-9.3599c0.44077-0.35343 0.69739-0.88713 0.69739-1.4521 0-0.56493-0.25662-1.0988-0.69739-1.4521l-8.9689-7.1906 8.9689-7.1906c0.44077-0.35343 0.69739-0.88729 0.69739-1.4521 0-0.56477-0.25662-1.1013-0.69739-1.4546l-11.674-9.3574c-0.27929-0.22389-0.6119-0.3593-0.95393-0.39851zm1.6488 5.7285 6.8394 5.482-6.8394 5.4795zm0 17.285 6.8394 5.482-6.8394 5.4795z" filter="url(#c)" opacity=".15" stroke-width=".12778"/>
  <path d="m13.147 4.5638c-0.09049-0.010374-0.18346 0.00449-0.26886 0.04547-0.17076 0.081956-0.2794 0.25472-0.2794 0.44415v3.5374l-1.4741-1.1914c-0.21151-0.17098-0.52156-0.13845-0.69259 0.073145-0.17102 0.21155-0.13774 0.52222 0.07381 0.69325l2.0428 1.6514-2.0428 1.6514c-0.21155 0.17102-0.24483 0.48103-0.07381 0.69259 0.09735 0.12041 0.23992 0.18254 0.38353 0.18254 0.10877 0 0.21792-0.03571 0.30905-0.10939l1.4741-1.1914v3.5366c0 0.18943 0.10864 0.36221 0.2794 0.44415 0.06781 0.03251 0.14042 0.04811 0.21285 0.04811 0.10998 0 0.21929-0.03664 0.30839-0.10807l3.0887-2.4764c0.11662-0.09351 0.18451-0.23472 0.18451-0.38419s-0.0679-0.29072-0.18451-0.38419l-2.373-1.9025 2.373-1.9025c0.11662-0.09351 0.18451-0.23476 0.18451-0.38419s-0.0679-0.29138-0.18451-0.38486l-3.0887-2.4758c-0.073894-0.059236-0.1619-0.095063-0.25239-0.10544zm0.43624 1.5156 1.8096 1.4504-1.8096 1.4498zm0 4.5732 1.8096 1.4504-1.8096 1.4498z" fill="url(#linearGradient1199)" stroke-width=".033808"/>
 </g>
</svg>
