<svg width="64" height="64" version="1.1" viewBox="0 0 16.933 16.933" xmlns="http://www.w3.org/2000/svg">
 <defs>
  <filter id="filter1178" x="-.047999" y="-.047999" width="1.096" height="1.096" color-interpolation-filters="sRGB">
   <feGaussianBlur stdDeviation="0.30691668"/>
  </filter>
  <radialGradient id="radialGradient20313" cx="32" cy="32" r="28.5" gradientTransform="matrix(.66759 .000515 -.00046712 .60552 -12.881 -10.927)" gradientUnits="userSpaceOnUse">
   <stop stop-color="#eceff4" offset="0"/>
   <stop stop-color="#eceff4" offset="1"/>
  </radialGradient>
  <filter id="filter20893" x="-.03468" y="-.03468" width="1.0694" height="1.0694" color-interpolation-filters="sRGB">
   <feGaussianBlur stdDeviation="0.21144734"/>
  </filter>
  <linearGradient id="linearGradient1280" x1="24.105" x2="24.105" y1="2.2922" y2="12.37" gradientUnits="userSpaceOnUse">
   <stop stop-color="#ebcb8b" offset="0"/>
   <stop stop-color="#d08770" offset="1"/>
  </linearGradient>
  <linearGradient id="linearGradient1352" x1="24.132" x2="24.132" y1="3.2535" y2="4.1479" gradientUnits="userSpaceOnUse">
   <stop stop-color="#d8dee9" offset="0"/>
   <stop stop-color="#eceff4" offset="1"/>
  </linearGradient>
  <linearGradient id="linearGradient1360" x1="24.082" x2="24.082" y1="3.0078" y2="3.4217" gradientUnits="userSpaceOnUse">
   <stop stop-color="#97b67c" offset="0"/>
   <stop stop-color="#a3be8c" offset="1"/>
  </linearGradient>
  <linearGradient id="linearGradient1368" x1="24.172" x2="24.172" y1="7.2597" y2="8.8917" gradientUnits="userSpaceOnUse">
   <stop stop-color="#97b67c" offset="0"/>
   <stop stop-color="#a3be8c" offset="1"/>
  </linearGradient>
  <linearGradient id="linearGradient1544" x1="25.634" x2="28.855" y1="4.9437" y2="4.9437" gradientUnits="userSpaceOnUse">
   <stop stop-color="#a6aebf" offset="0"/>
   <stop stop-color="#eceff4" offset=".73537"/>
   <stop stop-color="#a6aebf" offset="1"/>
  </linearGradient>
  <linearGradient id="linearGradient1554" x1="27.308" x2="27.308" y1="5.5652" y2="12.375" gradientUnits="userSpaceOnUse">
   <stop stop-color="#d8dee9" offset="0"/>
   <stop stop-color="#eceff4" offset="1"/>
  </linearGradient>
  <linearGradient id="linearGradient1562" x1="27.438" x2="27.438" y1="3.7058" y2="4.1471" gradientUnits="userSpaceOnUse">
   <stop stop-color="#5e81ac" offset="0"/>
   <stop stop-color="#81a1c1" offset="1"/>
  </linearGradient>
  <linearGradient id="linearGradient1570" x1="27.34" x2="27.34" y1="7.142" y2="9.842" gradientUnits="userSpaceOnUse">
   <stop stop-color="#5e81ac" offset="0"/>
   <stop stop-color="#81a1c1" offset="1"/>
  </linearGradient>
  <linearGradient id="linearGradient1592" x1="29.49" x2="31.501" y1="4.6253" y2="5.0956" gradientUnits="userSpaceOnUse">
   <stop stop-color="#7b88a1" offset="0"/>
   <stop stop-color="#d8dee9" offset="1"/>
  </linearGradient>
  <linearGradient id="linearGradient1616" x1="29.397" x2="31.884" y1="5.6161" y2="12.221" gradientUnits="userSpaceOnUse">
   <stop stop-color="#bf616a" offset="0"/>
   <stop stop-color="#b54a55" offset="1"/>
  </linearGradient>
  <linearGradient id="linearGradient1624" x1="31.15" x2="32.152" y1="11.344" y2="11.612" gradientUnits="userSpaceOnUse">
   <stop stop-color="#e5e9f0" offset="0"/>
   <stop stop-color="#a6aebf" offset="1"/>
  </linearGradient>
  <filter id="filter1809" x="-.071713" y="-.078603" width="1.1434" height="1.1572" color-interpolation-filters="sRGB">
   <feGaussianBlur stdDeviation="0.41464676"/>
  </filter>
  <linearGradient id="linearGradient1819" x1="8.6814" x2="8.6814" y1="1.4102" y2="15.568" gradientUnits="userSpaceOnUse">
   <stop stop-color="#d8dee9" offset="0"/>
   <stop stop-color="#eceff4" offset="1"/>
  </linearGradient>
 </defs>
 <rect transform="matrix(.99138 0 0 1 .072989 .0019055)" x=".79375" y=".90545" width="15.346" height="15.346" rx="3.0526" ry="3.0526" filter="url(#filter1178)" opacity=".15" stroke-width="1.2489" style="mix-blend-mode:normal"/>
 <rect x=".92604" y=".92604" width="15.081" height="15.081" rx="3" ry="3" fill="url(#linearGradient1819)" stroke-linecap="round" stroke-linejoin="round" stroke-width="1.2274"/>
 <rect x=".01215" y=".0060174" width="16.924" height="16.927" fill="none" opacity=".15" stroke-linecap="round" stroke-linejoin="round" stroke-width="1.052"/>
 <path d="m3.114 2.7084v0.58238l-0.43614 0.94721-1.1704 2.5419v7.0831l0.54363 0.76945 0.68057 0.73637h11.446l0.66248-0.56274 0.28318-0.49195h0.26096v-0.42426h-0.01705l0.01705-0.02946v-6.8062c-0.34585-1.0445-1.1069-1.1978-1.1069-1.1978h-0.0155v-1.1296l-2.7259 5.168e-4v1.1291s-0.55816 0.15615-0.8976 0.68728l-0.15968-0.41495-0.72862-1.8908-5.167e-4 -0.60099h-2.6463v0.60099l-0.80252 1.8908h-5.168e-4l-0.07648 0.17156-0.94721-2.0624-0.43511-0.94721h-0.011369v-0.58238z" fill="#2e3440" filter="url(#filter1809)" opacity=".25"/>
 <g transform="matrix(1.4261 0 0 1.3502 -30.529 -1.1741)">
  <path d="m26.388 4.1651h1.856l0.65254 1.7891 0.0059 6.4551h-3.2642l-0.0023-6.3735z" fill="url(#linearGradient1544)"/>
  <path d="m26.388 4.1651v-0.44483h1.8555l5.59e-4 0.44483z" fill="url(#linearGradient1562)"/>
  <path d="m28.755 5.5658h-2.9299l-0.20298 0.48109 0.20298 6.3624h3.0775l-0.0059-6.4551z" fill="url(#linearGradient1554)"/>
  <path d="m27.32 7.1514a0.64119 0.72924 0 0 0-0.64129 0.72914 0.64119 0.72924 0 0 0 0.01137 0.13539h-0.8883c-7.04e-4 0-1e-3 0.31265-1e-3 0.70072s3.29e-4 0.7002 1e-3 0.7002h3.0959c7.05e-4 0 0.0016-0.31213 0.0016-0.7002s-8.45e-4 -0.70072-0.0016-0.70072h-0.94773a0.64119 0.72924 0 0 0 0.01137-0.13539 0.64119 0.72924 0 0 0-0.64129-0.72914zm-0.0031 0.24546c0.7572 0.87592 0.05689 1.0795-1e-3 1.079-0.05792-5.345e-4 -0.77974-0.22158 1e-3 -1.079z" fill="url(#linearGradient1570)" style="paint-order:stroke markers fill"/>
  <path d="m23.591 3.4638h1.2111l1.1355 2.6109v6.3346h-2.615l-0.47722-0.54535-0.38122-0.57014v-5.2461z" fill="url(#linearGradient1280)"/>
  <ellipse cx="24.169" cy="7.9355" rx=".96657" ry=".96696" fill="url(#linearGradient1368)" fill-rule="evenodd" stroke-width=".35477"/>
  <path d="m23.591 3.4638h1.2111l0.305 0.70127h-1.8219z" fill="url(#linearGradient1352)"/>
  <path d="m23.591 3.4638v-0.43163h1.2031v0.43163z" fill="url(#linearGradient1360)"/>
  <path d="m29.496 5.364h1.9225s0.53344 0.11363 0.77595 0.88726v5.0408l-0.38126 0.70039-0.46452 0.41681h-2.6305v-6.1544c0.14689-0.70483 0.77782-0.89087 0.77782-0.89087z" fill="url(#linearGradient1616)"/>
  <path d="m29.496 5.364v-0.1875h1.9116v0.1875z" fill="#4c566a"/>
  <path d="m29.496 5.1765h1.9116v-0.64909l-1.9116 1.937e-4z" fill="url(#linearGradient1592)"/>
  <path d="m32.194 11.314h-1.0809v0.31439h1.0809z" fill="url(#linearGradient1624)"/>
 </g>
 <g stroke-linecap="round" stroke-linejoin="round" stroke-width="1.2274">
  <path d="m4.0611 1.15c-1.6126 0-2.9112 1.2985-2.9112 2.9112v8.8112c0 1.6126 1.2985 2.9107 2.9112 2.9107h8.8112c1.6126 0 2.9107-1.298 2.9107-2.9107v-8.8112c0-1.6126-1.298-2.9112-2.9107-2.9112zm0.35199 1.1143h8.1067c1.4836 0 2.1488 0.66524 2.1488 2.1488v8.1067c0 1.4836-0.66524 2.1488-2.1488 2.1488h-8.1067c-1.4836 0-2.1488-0.66524-2.1488-2.1488v-8.1067c0-1.4836 0.66524-2.1488 2.1488-2.1488z" fill="#2e3440" filter="url(#filter20893)" opacity=".42451"/>
  <path d="m3.9264 0.92603c-1.662 0-3.0003 1.3383-3.0003 3.0003v9.0809c0 1.662 1.3383 2.9998 3.0003 2.9998h9.0809c1.662 0 2.9998-1.3378 2.9998-2.9998v-9.0809c0-1.662-1.3378-3.0003-2.9998-3.0003zm0.36277 0.60306h8.3549c1.5291 0 2.7601 1.231 2.7601 2.7601v8.3549c0 1.5291-1.231 2.7601-2.7601 2.7601h-8.3549c-1.5291 0-2.7601-1.231-2.7601-2.7601v-8.3549c0-1.5291 1.231-2.7601 2.7601-2.7601z" fill="#e5d0bd"/>
  <path d="m3.9264 0.92603c-1.662 0-3.0003 1.3383-3.0003 3.0003v9.0809c0 1.662 1.3383 2.9998 3.0003 2.9998h9.0809c1.662 0 2.9998-1.3378 2.9998-2.9998v-9.0809c0-1.662-1.3378-3.0003-2.9998-3.0003zm0.36277 1.1322h8.3549c1.5291 0 2.2309 0.7018 2.2309 2.2309v8.3549c0 1.5291-0.7018 2.2309-2.2309 2.2309h-8.3549c-1.5291 0-2.2309-0.7018-2.2309-2.2309v-8.3549c0-1.5291 0.7018-2.2309 2.2309-2.2309z" fill="url(#radialGradient20313)"/>
 </g>
</svg>
