<svg width="64" height="64" version="1.1" viewBox="0 0 16.933 16.933" xmlns="http://www.w3.org/2000/svg">
 <defs>
  <filter id="filter1178" x="-.048" y="-.048" width="1.096" height="1.096" color-interpolation-filters="sRGB">
   <feGaussianBlur stdDeviation="0.30691955"/>
  </filter>
  <linearGradient id="linearGradient1340" x1="8.5011" x2="8.489" y1="16.007" y2=".79375" gradientUnits="userSpaceOnUse">
   <stop stop-color="#2e3440" offset="0"/>
   <stop stop-color="#4c566a" offset="1"/>
  </linearGradient>
 </defs>
 <g stroke-linecap="round" stroke-linejoin="round">
  <rect transform="matrix(.99138 0 0 1 .072989 .0019055)" x=".79375" y=".90545" width="15.346" height="15.346" rx="3.0526" ry="3.0526" fill="#000000" filter="url(#filter1178)" opacity=".15" stroke-width="1.2489" style="mix-blend-mode:normal"/>
  <rect x=".92604" y=".92604" width="15.081" height="15.081" rx="3" ry="3" fill="url(#linearGradient1340)" stroke-width="1.2274"/>
  <rect x=".01215" y=".0060174" width="16.924" height="16.927" fill="none" opacity=".15" stroke-width="1.052"/>
 </g>
 <g transform="matrix(1.0707 0 0 1.0707 -39.895 -15.147)" stroke-width=".93394">
  <g stroke-linecap="round" stroke-linejoin="round">
   <g stroke-width=".32123">
    <g transform="translate(.21635 13.292)">
     <rect x="40.916" y="5.9231" width=".67077" height="5.5908" fill="#eceff4"/>
     <rect x="41.399" y="5.9231" width=".18735" height="5.5908" fill="#4c566a" opacity=".25"/>
    </g>
    <g transform="translate(7.6173 13.378)">
     <rect x="40.916" y="5.9231" width=".67077" height="5.5908" fill="#eceff4"/>
     <rect x="41.399" y="5.9231" width=".18735" height="5.5908" fill="#4c566a" opacity=".25"/>
    </g>
    <g transform="rotate(90 38.337 15.539)">
     <rect x="40.916" y="5.9231" width=".67077" height="5.5908" fill="#eceff4"/>
     <rect x="41.399" y="5.9231" width=".18735" height="5.5908" fill="#4c566a" opacity=".25"/>
    </g>
    <g transform="rotate(90 34.633 19.243)">
     <rect x="40.916" y="5.9231" width=".67077" height="5.5908" fill="#eceff4"/>
     <rect x="41.399" y="5.9231" width=".18735" height="5.5908" fill="#4c566a" opacity=".25"/>
    </g>
   </g>
   <g stroke-width=".472">
    <g transform="matrix(1 0 0 .46318 2.2465 18.084)">
     <rect x="40.916" y="5.9231" width=".67077" height="5.5908" fill="#eceff4"/>
     <rect x="41.399" y="5.9231" width=".18735" height="5.5908" fill="#4c566a" opacity=".25"/>
    </g>
    <g transform="matrix(1 0 0 .46318 5.5821 18.084)">
     <rect x="40.916" y="5.9231" width=".67077" height="5.5908" fill="#eceff4"/>
     <rect x="41.399" y="5.9231" width=".18735" height="5.5908" fill="#4c566a" opacity=".25"/>
    </g>
    <g transform="matrix(0 1 -.46318 0 49.234 -20.766)">
     <rect x="40.916" y="5.9231" width=".67077" height="5.5908" fill="#eceff4"/>
     <rect x="41.399" y="5.9231" width=".18735" height="5.5908" fill="#4c566a" opacity=".25"/>
    </g>
    <g transform="matrix(0 1 -.46318 0 49.234 -17.443)">
     <rect x="40.916" y="5.9231" width=".67077" height="5.5908" fill="#eceff4"/>
     <rect x="41.399" y="5.9231" width=".18735" height="5.5908" fill="#4c566a" opacity=".25"/>
    </g>
   </g>
   <g transform="translate(.20829 13.278)" stroke-width=".32123">
    <ellipse cx="41.263" cy="5.0749" rx="1.0366" ry="1.0834" fill="#eceff4"/>
    <path d="m42.287 5.2455c0.0027 0.29453-0.37234 0.90892-1.0236 0.91278-0.53423 0.00316-0.93337-0.33696-1.0207-0.89461 0.16974 0.87405 1.688 1.0145 2.0443-0.018162z" fill="#4c566a" opacity=".25"/>
   </g>
   <g transform="matrix(.72756 0 0 .72756 16.74 20.005)" stroke-width=".44152">
    <ellipse cx="41.263" cy="5.0749" rx="1.0366" ry="1.0834" fill="#eceff4"/>
    <path d="m42.287 5.2455c0.0027 0.29453-0.37234 0.90892-1.0236 0.91278-0.53423 0.00316-0.93337-0.33696-1.0207-0.89461 0.16974 0.87405 1.688 1.0145 2.0443-0.018162z" fill="#4c566a" opacity=".25"/>
   </g>
  </g>
  <g transform="translate(5.6933 18.817)" stroke-width=".93394">
   <g transform="matrix(-.70711 .70711 -.34961 -.34961 74.615 -19.832)" stroke-linecap="round" stroke-linejoin="round" stroke-width=".45685">
    <path d="m40.916 7.4367h0.67077v4.0772h-0.67077z" fill="#eceff4"/>
    <path d="m41.399 7.4367h0.18735v4.0772h-0.18735z" fill="#4c566a" opacity=".25"/>
   </g>
  </g>
  <g transform="translate(7.6212 20.684)" stroke-linecap="round" stroke-linejoin="round" stroke-width=".32123">
   <ellipse cx="41.263" cy="5.0749" rx="1.0366" ry="1.0834" fill="#eceff4"/>
   <path d="m42.287 5.2455c0.0027 0.29453-0.37234 0.90892-1.0236 0.91278-0.53423 0.00316-0.93337-0.33696-1.0207-0.89461 0.16974 0.87405 1.688 1.0145 2.0443-0.018162z" fill="#4c566a" opacity=".25"/>
  </g>
  <g transform="matrix(.72756 0 0 .72756 13.407 20.062)" stroke-linecap="round" stroke-linejoin="round" stroke-width=".44152">
   <ellipse cx="41.263" cy="5.0749" rx="1.0366" ry="1.0834" fill="#eceff4"/>
   <path d="m42.287 5.2455c0.0027 0.29453-0.37234 0.90892-1.0236 0.91278-0.53423 0.00316-0.93337-0.33696-1.0207-0.89461 0.16974 0.87405 1.688 1.0145 2.0443-0.018162z" fill="#4c566a" opacity=".25"/>
  </g>
  <g transform="rotate(-90 51.65 15.386)" stroke-width=".93394">
   <g transform="matrix(-.70711 .70711 -.34961 -.34961 74.615 -19.832)" stroke-linecap="round" stroke-linejoin="round" stroke-width=".45685">
    <path d="m40.916 7.4367h0.67077v4.0772h-0.67077z" fill="#eceff4"/>
    <path d="m41.399 7.4367h0.18735v4.0772h-0.18735z" fill="#4c566a" opacity=".25"/>
   </g>
  </g>
  <g transform="translate(.20144 20.666)" stroke-linecap="round" stroke-linejoin="round" stroke-width=".32123">
   <ellipse cx="41.263" cy="5.0749" rx="1.0366" ry="1.0834" fill="#eceff4"/>
   <path d="m42.287 5.2455c0.0027 0.29453-0.37234 0.90892-1.0236 0.91278-0.53423 0.00316-0.93337-0.33696-1.0207-0.89461 0.16974 0.87405 1.688 1.0145 2.0443-0.018162z" fill="#4c566a" opacity=".25"/>
  </g>
  <g transform="translate(7.5861 13.294)" stroke-linecap="round" stroke-linejoin="round" stroke-width=".32123">
   <ellipse cx="41.263" cy="5.0749" rx="1.0366" ry="1.0834" fill="#eceff4"/>
   <path d="m42.287 5.2455c0.0027 0.29453-0.37234 0.90892-1.0236 0.91278-0.53423 0.00316-0.93337-0.33696-1.0207-0.89461 0.16974 0.87405 1.688 1.0145 2.0443-0.018162z" fill="#4c566a" opacity=".25"/>
  </g>
  <g transform="translate(.58478 13.721)" stroke-width=".93394">
   <g transform="matrix(-.70711 .70711 -.34961 -.34961 74.615 -19.832)" stroke-linecap="round" stroke-linejoin="round" stroke-width=".45685">
    <path d="m40.916 7.4367h0.67077v4.0772h-0.67077z" fill="#eceff4"/>
    <path d="m41.399 7.4367h0.18735v4.0772h-0.18735z" fill="#4c566a" opacity=".25"/>
   </g>
  </g>
  <g transform="matrix(.72756 0 0 .72756 13.432 16.67)" stroke-linecap="round" stroke-linejoin="round" stroke-width=".44152">
   <ellipse cx="41.263" cy="5.0749" rx="1.0366" ry="1.0834" fill="#eceff4"/>
   <path d="m42.287 5.2455c0.0027 0.29453-0.37234 0.90892-1.0236 0.91278-0.53423 0.00316-0.93337-0.33696-1.0207-0.89461 0.16974 0.87405 1.688 1.0145 2.0443-0.018162z" fill="#4c566a" opacity=".25"/>
  </g>
  <g transform="rotate(-90 51.667 10.211)" stroke-width=".93394">
   <g transform="matrix(-.70711 .70711 -.34961 -.34961 74.615 -19.832)" stroke-linecap="round" stroke-linejoin="round" stroke-width=".45685">
    <path d="m40.916 7.4367h0.67077v4.0772h-0.67077z" fill="#eceff4"/>
    <path d="m41.399 7.4367h0.18735v4.0772h-0.18735z" fill="#4c566a" opacity=".25"/>
   </g>
  </g>
  <g transform="matrix(.72756 0 0 .72756 16.747 16.685)" stroke-linecap="round" stroke-linejoin="round" stroke-width=".44152">
   <ellipse cx="41.263" cy="5.0749" rx="1.0366" ry="1.0834" fill="#eceff4"/>
   <path d="m42.287 5.2455c0.0027 0.29453-0.37234 0.90892-1.0236 0.91278-0.53423 0.00316-0.93337-0.33696-1.0207-0.89461 0.16974 0.87405 1.688 1.0145 2.0443-0.018162z" fill="#4c566a" opacity=".25"/>
  </g>
 </g>
</svg>
