<svg width="64" height="64" version="1.1" viewBox="0 0 16.933 16.933" xmlns="http://www.w3.org/2000/svg">
 <defs>
  <filter id="filter1178" x="-.047999" y="-.047999" width="1.096" height="1.096" color-interpolation-filters="sRGB">
   <feGaussianBlur stdDeviation="0.30691668"/>
  </filter>
  <linearGradient id="linearGradient1340" x1="8.6644" x2="8.6644" y1="15.931" y2=".79375" gradientUnits="userSpaceOnUse">
   <stop stop-color="#5e81ac" offset="0"/>
   <stop stop-color="#88c0d0" offset="1"/>
  </linearGradient>
  <linearGradient id="linearGradient1017" x1="8.376" x2="8.376" y1=".95163" y2="15.878" gradientUnits="userSpaceOnUse">
   <stop stop-color="#eceff4" offset="0"/>
   <stop stop-color="#d8dee9" offset="1"/>
  </linearGradient>
  <linearGradient id="linearGradient9142" x1="42.889" x2="42.889" y1="6.3975" y2="13.515" gradientUnits="userSpaceOnUse">
   <stop stop-color="#4c566a" offset="0"/>
   <stop stop-color="#2e3440" offset="1"/>
  </linearGradient>
  <filter id="filter9440" x="-.10105" y="-.11939" width="1.2021" height="1.2388" color-interpolation-filters="sRGB">
   <feGaussianBlur stdDeviation="0.35548519"/>
  </filter>
 </defs>
 <rect transform="matrix(.99138 0 0 1 .072989 .0019055)" x=".79375" y=".90545" width="15.346" height="15.346" rx="3.0526" ry="3.0526" fill="#000000" filter="url(#filter1178)" opacity=".15" stroke-width="1.2489" style="mix-blend-mode:normal"/>
 <rect x=".92604" y=".92604" width="15.081" height="15.081" rx="3" ry="3" fill="url(#linearGradient1340)" stroke-linecap="round" stroke-linejoin="round" stroke-width="1.2274"/>
 <rect x=".01215" y=".0060174" width="16.924" height="16.927" fill="none" opacity=".15" stroke-linecap="round" stroke-linejoin="round" stroke-width="1.052"/>
 <g transform="matrix(.8 0 0 .8 1.6933 1.6933)" fill="url(#linearGradient1017)">
  <rect x=".92604" y=".92604" width="15.081" height="15.081" rx="3" ry="3" fill="url(#linearGradient1017)" stroke-linecap="round" stroke-linejoin="round" stroke-width="1.2274"/>
 </g>
 <g transform="matrix(1.0567 0 0 1.0567 -36.784 -1.6511)" fill="#2e3440" filter="url(#filter9440)" opacity=".48778">
  <path d="m42.349 6.4044v1.6453h-1.9854v3.744h1.9751v1.7449h-3.7369v-7.1458z"/>
  <path d="m43.298 6.4044v1.6453h1.9854v3.744h-1.9751v1.7449h3.7369v-7.1458z"/>
 </g>
 <g transform="matrix(1.0567 0 0 1.0567 -36.784 -2.064)" fill="url(#linearGradient9142)">
  <path d="m42.349 6.4044v1.6453h-1.9854v3.744h1.9751v1.7449h-3.7369v-7.1458z"/>
  <path d="m43.298 6.4044v1.6453h1.9854v3.744h-1.9751v1.7449h3.7369v-7.1458z"/>
 </g>
</svg>
