<svg width="64" height="64" version="1.1" viewBox="0 0 16.933 16.933" xmlns="http://www.w3.org/2000/svg">
 <defs>
  <filter id="filter1178" x="-.047999" y="-.047999" width="1.096" height="1.096" color-interpolation-filters="sRGB">
   <feGaussianBlur stdDeviation="0.30691668"/>
  </filter>
  <linearGradient id="linearGradient1340" x1="8.355" x2="8.3996" y1="16.007" y2=".79375" gradientUnits="userSpaceOnUse">
   <stop stop-color="#e5e9f0" offset="0"/>
   <stop stop-color="#eceff4" offset="1"/>
  </linearGradient>
  <linearGradient id="linearGradient1154" x1="36.586" x2="36.734" y1="11.643" y2="-12.581" gradientTransform="matrix(.61376 0 0 .61376 -14.156 11.135)" gradientUnits="userSpaceOnUse">
   <stop stop-color="#ebcb8b" offset="0"/>
   <stop stop-color="#d08770" offset="1"/>
  </linearGradient>
  <filter id="filter2441" x="-.081538" y="-.069432" width="1.1631" height="1.1389" color-interpolation-filters="sRGB">
   <feGaussianBlur stdDeviation="0.32159345"/>
  </filter>
 </defs>
 <g stroke-linecap="round" stroke-linejoin="round">
  <rect transform="matrix(.99138 0 0 1 .072989 .0019055)" x=".79375" y=".90545" width="15.346" height="15.346" rx="3.0526" ry="3.0526" fill="#000000" filter="url(#filter1178)" opacity=".15" stroke-width="1.2489" style="mix-blend-mode:normal"/>
  <rect x=".92604" y=".92604" width="15.081" height="15.081" rx="3" ry="3" fill="url(#linearGradient1340)" stroke-width="1.2274"/>
  <rect x=".01215" y=".0060174" width="16.924" height="16.927" fill="none" opacity=".15" stroke-width="1.052"/>
 </g>
 <g transform="matrix(1.088 0 0 1.088 -.73798 -1.2746)" stroke-width=".014516">
  <path d="m6.8547 3.568-0.4491 0.50968c-0.24705 0.28038-0.46562 0.52869-0.48558 0.55155l-0.03616 0.041546-0.16715-0.03013c-0.23244-0.041963-0.54181-0.04165-0.70379 6.137e-4 -0.21514 0.056153-0.28372 0.099745-0.5008 0.31875-0.28692 0.28946-0.60991 0.62837-0.60991 0.64036 0 0.00573 0.05551 0.14633 0.12338 0.31241 0.06786 0.16607 0.12338 0.31233 0.12338 0.32478 0 0.012448-0.07281 0.23054-0.16175 0.48495l-0.16144 0.46274 0.38631 1.4685c0.21256 0.80769 0.47867 1.8214 0.5912 2.2525 0.27337 1.0474 0.34142 1.2462 0.52269 1.5249 0.09241 0.14211 0.33535 0.3864 0.52142 0.52427 0.32226 0.23879 2.1724 1.4916 2.3981 1.6239 0.0476 0.0279 0.12376 0.06385 0.16905 0.07993 0.11482 0.04076 0.23198 0.03168 0.35998-0.02823 0.14418-0.06747 1.6951-1.1055 2.361-1.5801 0.38125-0.27177 0.54985-0.43902 0.70157-0.69554 0.14922-0.25231 0.21512-0.44651 0.42722-1.2604 0.07906-0.3034 0.3425-1.3076 0.58549-2.2313l0.44181-1.6794-0.16556-0.47321-0.16556-0.47353 0.12528-0.30765c0.06888-0.16926 0.12582-0.31496 0.12687-0.32383 0.0021-0.018328-0.16709-0.19899-0.54584-0.58168-0.28717-0.29016-0.33924-0.32588-0.55758-0.38377-0.18934-0.0502-0.6172-0.037562-0.84176 0.024741-0.02642 0.00733-0.10276-0.07335-0.51539-0.54362l-0.48431-0.55187-1.7063-9.207e-4zm1.7086 1.6997c0.17586 4.11e-5 0.35026 0.052839 0.66668 0.15858 0.42413 0.14174 0.49251 0.15543 0.66319 0.13226 0.12965-0.017599 1.0087-0.17147 1.0508-0.18396 0.01596-0.00474 0.08636 0.073116 0.23343 0.25817 0.58253 0.73297 0.97184 1.3081 1.0279 1.5186 0.02213 0.083023-0.0018 0.24002-0.05138 0.33778-0.02163 0.042691-0.11181 0.15056-0.22106 0.26388-0.45372 0.47064-1.0736 1.1375-1.1126 1.197-0.03106 0.047358-0.04455 0.0877-0.04884 0.14748-0.0053 0.072908 0.0035 0.10601 0.0758 0.29211 0.12888 0.33162 0.14922 0.49091 0.08849 0.69269-0.05479 0.18201-0.31491 0.48625-0.49287 0.57629-0.16966 0.08584-0.28041 0.06605-0.65399-0.11577-0.26996-0.13138-0.39154-0.20458-0.56804-0.34254-0.27941-0.21838-0.51624-0.47234-0.53696-0.57597-0.02253-0.11262 0.11885-0.23903 0.6042-0.54045 0.33287-0.20672 0.48352-0.31002 0.55916-0.3825 0.05633-0.053973 0.06502-0.069999 0.06502-0.12211 0-0.080976-0.03947-0.18014-0.15414-0.38758-0.2678-0.48443-0.32509-0.61506-0.32509-0.74344 0-0.1119 0.05059-0.18995 0.1811-0.27974 0.09523-0.065517 0.19162-0.10578 0.79291-0.33144 0.64631-0.24255 0.68515-0.25859 0.67747-0.28164-0.01382-0.041437-0.49014-0.089903-0.88204-0.089758h-0.2975l-0.29021 0.08278c-0.41259 0.11758-0.49442 0.14875-0.53379 0.20394-0.04809 0.067412-0.04117 0.13475 0.07453 0.74248 0.20317 1.0672 0.20727 1.1136 0.1091 1.178-0.05906 0.038698-0.49944 0.13568-0.65875 0.14494-0.12111 0.00705-0.16749 0.00171-0.37933-0.043135-0.32409-0.068601-0.35067-0.07641-0.39519-0.11767-0.0345-0.032-0.03838-0.046072-0.03838-0.13765 0-0.1153 0.04357-0.38146 0.18078-1.1028 0.05223-0.27456 0.09483-0.5283 0.09483-0.56392 0-0.12972-0.08055-0.16992-0.64606-0.32351-0.26247-0.071285-0.42849-0.084197-0.76215-0.058993-0.25955 0.019606-0.58214 0.055343-0.61562 0.068191-0.06203 0.023805-0.06132 0.024039 0.67874 0.30194 0.62242 0.23373 0.7906 0.3118 0.87886 0.40756 0.13772 0.14941 0.11106 0.3117-0.1164 0.71394-0.05792 0.10242-0.14298 0.25985-0.18935 0.34983-0.0741 0.14379-0.08437 0.17375-0.08437 0.24739 0 0.079696 0.0028 0.086608 0.06153 0.14241 0.08454 0.080387 0.15894 0.1317 0.5119 0.35364 0.36249 0.22793 0.46112 0.29705 0.55536 0.38884 0.14988 0.14599 0.12759 0.21848-0.15319 0.49668-0.26707 0.26461-0.44597 0.39313-0.78689 0.56455-0.15569 0.07828-0.32534 0.15649-0.37679 0.17381-0.13811 0.04647-0.22278 0.04176-0.34349-0.01871-0.18275-0.09155-0.36143-0.28321-0.46718-0.50144-0.04779-0.09861-0.0532-0.12277-0.05836-0.25532-0.0067-0.17171 0.01761-0.27853 0.12338-0.54013 0.1049-0.25946 0.08946-0.35338-0.08912-0.54299-0.04751-0.050438-0.13562-0.14387-0.19601-0.20775-0.06039-0.063873-0.20438-0.2172-0.32002-0.34095-0.22166-0.23722-0.39461-0.41971-0.55758-0.58802-0.05411-0.055889-0.11377-0.12511-0.13226-0.15382-0.04781-0.074252-0.07961-0.19259-0.07961-0.29623 0-0.076335 0.0096-0.10895 0.06661-0.22614 0.12459-0.25609 0.52081-0.81778 0.99368-1.4088 0.09821-0.12276 0.17923-0.22427 0.18015-0.22582s0.21363 0.035172 0.47289 0.081829c0.64419 0.11593 0.71731 0.12492 0.83034 0.10308 0.05019-0.0097 0.24798-0.068962 0.43959-0.13162 0.32292-0.1056 0.50034-0.15831 0.6762-0.15827zm-0.0051 5.2247c0.04839 0 0.26852 0.07308 0.46687 0.15509 0.28287 0.11696 0.99751 0.49037 1.0282 0.53728 0.04134 0.06309 5e-3 0.1061-0.26293 0.31272-0.46389 0.35768-0.85774 0.66844-0.95243 0.75136-0.05189 0.04545-0.12313 0.10326-0.15827 0.12845-0.11064 0.07935-0.20548 0.05294-0.37616-0.10466-0.08047-0.07431-0.35481-0.29177-0.84461-0.66985-0.19561-0.15099-0.36689-0.28794-0.3806-0.30416-0.01371-0.01623-0.02511-0.05059-0.02537-0.07644-6.06e-4 -0.05888 3.1e-4 -0.0596 0.46401-0.29814 0.49474-0.2545 0.9219-0.43166 1.0413-0.43166z" fill="#2e3440" filter="url(#filter2441)" opacity=".25"/>
  <path d="m6.657 3.2219-0.4491 0.50968c-0.24705 0.28038-0.46562 0.52869-0.48558 0.55155l-0.03616 0.041546-0.16715-0.03013c-0.23244-0.041963-0.54181-0.04165-0.70379 6.137e-4 -0.21514 0.056153-0.28372 0.099745-0.5008 0.31875-0.28692 0.28946-0.60991 0.62837-0.60991 0.64036 0 0.00573 0.05551 0.14633 0.12338 0.31241 0.06786 0.16607 0.12338 0.31233 0.12338 0.32478 0 0.012448-0.07281 0.23054-0.16175 0.48495l-0.16144 0.46274 0.38631 1.4685c0.21256 0.80769 0.47867 1.8214 0.5912 2.2525 0.27337 1.0474 0.34142 1.2462 0.52269 1.5249 0.09241 0.14211 0.33535 0.3864 0.52142 0.52427 0.32226 0.23879 2.1724 1.4916 2.3981 1.6239 0.0476 0.0279 0.12376 0.06385 0.16905 0.07993 0.11482 0.04076 0.23198 0.03168 0.35998-0.02823 0.14418-0.06747 1.6951-1.1055 2.361-1.5801 0.38125-0.27177 0.54985-0.43902 0.70157-0.69554 0.14922-0.25231 0.21512-0.44651 0.42722-1.2604 0.07906-0.3034 0.3425-1.3076 0.58549-2.2313l0.44181-1.6794-0.16556-0.47321-0.16556-0.47353 0.12528-0.30765c0.06888-0.16926 0.12582-0.31496 0.12687-0.32383 0.0021-0.018328-0.16709-0.19899-0.54584-0.58168-0.28717-0.29016-0.33924-0.32588-0.55758-0.38377-0.18934-0.0502-0.6172-0.037562-0.84176 0.024741-0.02642 0.00733-0.10276-0.07335-0.51539-0.54362l-0.48431-0.55187-1.7064-9.207e-4zm1.7086 1.6997c0.17586 4.11e-5 0.35026 0.052839 0.66668 0.15858 0.42413 0.14174 0.49251 0.15543 0.66319 0.13226 0.12966-0.017599 1.0087-0.17147 1.0508-0.18396 0.01596-0.00474 0.08636 0.073116 0.23343 0.25817 0.58253 0.73297 0.97184 1.3081 1.0279 1.5186 0.02213 0.083023-0.0018 0.24002-0.05138 0.33778-0.02163 0.042691-0.11181 0.15056-0.22106 0.26388-0.45372 0.47064-1.0736 1.1375-1.1126 1.197-0.03106 0.047358-0.04455 0.0877-0.04884 0.14748-0.0053 0.072908 0.0035 0.10601 0.0758 0.29211 0.12888 0.33162 0.14922 0.49091 0.08849 0.69269-0.05479 0.18202-0.31491 0.48625-0.49287 0.57629-0.16966 0.08584-0.28041 0.06605-0.654-0.11577-0.26996-0.13138-0.39154-0.20458-0.56804-0.34254-0.27941-0.21838-0.51624-0.47234-0.53696-0.57597-0.02253-0.11262 0.11885-0.23903 0.6042-0.54045 0.33287-0.20672 0.48352-0.31002 0.55916-0.3825 0.05633-0.053973 0.06502-0.069999 0.06502-0.12211 0-0.080976-0.03947-0.18014-0.15414-0.38758-0.2678-0.48443-0.32509-0.61506-0.32509-0.74344 0-0.1119 0.05059-0.18995 0.1811-0.27974 0.09523-0.065517 0.19162-0.10578 0.79291-0.33144 0.64631-0.24255 0.68515-0.25859 0.67747-0.28164-0.01382-0.041437-0.49014-0.089903-0.88204-0.089758h-0.2975l-0.29021 0.08278c-0.41259 0.11758-0.49442 0.14875-0.53379 0.20394-0.04809 0.067412-0.04117 0.13475 0.07453 0.74248 0.20317 1.0672 0.20727 1.1136 0.1091 1.178-0.05906 0.038698-0.49944 0.13568-0.65875 0.14494-0.12111 0.00705-0.16749 0.00171-0.37933-0.043135-0.32409-0.068601-0.35067-0.07641-0.39519-0.11767-0.0345-0.032-0.03838-0.046072-0.03838-0.13765 0-0.1153 0.04357-0.38146 0.18078-1.1028 0.05223-0.27456 0.09483-0.5283 0.09483-0.56392 0-0.12972-0.08055-0.16992-0.64606-0.32351-0.26247-0.071285-0.42849-0.084197-0.76215-0.058993-0.25955 0.019606-0.58214 0.055343-0.61562 0.068191-0.06203 0.023805-0.06132 0.024039 0.67874 0.30194 0.62242 0.23373 0.7906 0.3118 0.87886 0.40756 0.13772 0.14941 0.11106 0.3117-0.1164 0.71394-0.05792 0.10242-0.14298 0.25985-0.18935 0.34983-0.0741 0.14379-0.08437 0.17375-0.08437 0.24739 0 0.079696 0.0028 0.086608 0.06153 0.14241 0.08454 0.080387 0.15894 0.1317 0.5119 0.35364 0.36249 0.22793 0.46112 0.29705 0.55536 0.38884 0.14988 0.14599 0.12759 0.21848-0.15319 0.49668-0.26707 0.26461-0.44597 0.39313-0.78689 0.56455-0.15569 0.07828-0.32534 0.15649-0.37679 0.17381-0.13811 0.04647-0.22278 0.04176-0.34349-0.01871-0.18275-0.09155-0.36143-0.28321-0.46718-0.50144-0.04779-0.098613-0.0532-0.12278-0.05836-0.25532-0.0067-0.17171 0.01761-0.27853 0.12338-0.54013 0.1049-0.25946 0.08946-0.35338-0.08912-0.54299-0.04751-0.050438-0.13562-0.14387-0.19601-0.20775-0.06039-0.063873-0.20438-0.2172-0.32002-0.34095-0.22166-0.23722-0.39461-0.41971-0.55758-0.58802-0.05411-0.055889-0.11377-0.12511-0.13226-0.15382-0.04781-0.074252-0.07961-0.19259-0.07961-0.29623 0-0.076335 0.0096-0.10895 0.06661-0.22614 0.12459-0.25609 0.52081-0.81778 0.99368-1.4088 0.09821-0.12276 0.17923-0.22427 0.18015-0.22582s0.21363 0.035172 0.47289 0.081829c0.64419 0.11593 0.71731 0.12492 0.83034 0.10308 0.05019-0.0097 0.24798-0.068962 0.43959-0.13162 0.32292-0.1056 0.50034-0.15831 0.6762-0.15827zm-0.0051 5.2247c0.04839 0 0.26852 0.07308 0.46687 0.15509 0.28287 0.11696 0.99751 0.49037 1.0282 0.53728 0.04134 0.06309 5e-3 0.1061-0.26293 0.31272-0.46389 0.35768-0.85774 0.66844-0.95243 0.75136-0.05189 0.04545-0.12313 0.10326-0.15827 0.12845-0.11064 0.07935-0.20548 0.05294-0.37616-0.10466-0.08047-0.07431-0.35481-0.29177-0.84461-0.66985-0.19561-0.15099-0.36689-0.28794-0.3806-0.30416-0.01371-0.01623-0.02511-0.05059-0.02537-0.07644-6.06e-4 -0.05888 3.1e-4 -0.0596 0.46401-0.29814 0.49474-0.2545 0.9219-0.43166 1.0413-0.43166z" fill="url(#linearGradient1154)"/>
 </g>
</svg>
