<svg width="64" height="64" version="1.1" viewBox="0 0 16.933 16.933" xmlns="http://www.w3.org/2000/svg">
 <defs>
  <filter id="filter1178" x="-.047999" y="-.047999" width="1.096" height="1.096" color-interpolation-filters="sRGB">
   <feGaussianBlur stdDeviation="0.30691668"/>
  </filter>
  <linearGradient id="linearGradient1340" x1="8.355" x2="8.3996" y1="16.007" y2=".79375" gradientUnits="userSpaceOnUse">
   <stop stop-color="#e5e9f0" offset="0"/>
   <stop stop-color="#eceff4" offset="1"/>
  </linearGradient>
  <filter id="filter2441" x="-.081538" y="-.069432" width="1.1631" height="1.1389" color-interpolation-filters="sRGB">
   <feGaussianBlur stdDeviation="0.32159345"/>
  </filter>
  <filter id="filter5511" x="-.056999" y="-.10962" width="1.114" height="1.2192" color-interpolation-filters="sRGB">
   <feGaussianBlur stdDeviation="0.12683894"/>
  </filter>
  <linearGradient id="linearGradient2448" x1="28.999" x2="44.34" y1="-4.9272" y2="-4.9235" gradientTransform="matrix(.66777 0 0 .66777 -16.14 10.84)" gradientUnits="userSpaceOnUse">
   <stop stop-color="#eceff4" offset="0"/>
   <stop stop-color="#2e3440" offset="1"/>
  </linearGradient>
  <linearGradient id="linearGradient1116" x1="28.976" x2="44.399" y1="-6.9989" y2="-7.0005" gradientTransform="matrix(.66777 0 0 .66777 -16.14 10.84)" gradientUnits="userSpaceOnUse">
   <stop stop-color="#eceff4" offset="0"/>
   <stop stop-color="#eceff4" offset=".14423"/>
   <stop stop-color="#d8dee9" offset=".32011"/>
   <stop stop-color="#2e3440" offset=".65557"/>
   <stop stop-color="#2e3440" offset="1"/>
  </linearGradient>
  <filter id="filter927" x="-.048426" y="-.1662" width="1.0969" height="1.3324" color-interpolation-filters="sRGB">
   <feGaussianBlur stdDeviation="0.14572722"/>
  </filter>
 </defs>
 <g stroke-linecap="round" stroke-linejoin="round">
  <rect transform="matrix(.99138 0 0 1 .072989 .0019055)" x=".79375" y=".90545" width="15.346" height="15.346" rx="3.0526" ry="3.0526" fill="#000000" filter="url(#filter1178)" opacity=".15" stroke-width="1.2489" style="mix-blend-mode:normal"/>
  <rect x=".92604" y=".92604" width="15.081" height="15.081" rx="3" ry="3" fill="url(#linearGradient1340)" stroke-width="1.2274"/>
  <rect x=".01215" y=".0060174" width="16.924" height="16.927" fill="none" opacity=".15" stroke-width="1.052"/>
 </g>
 <path transform="matrix(1.088 0 0 1.088 -.73798 -1.2746)" d="m6.8547 3.568-0.4491 0.50968c-0.24705 0.28038-0.46562 0.52869-0.48558 0.55155l-0.03616 0.041546-0.16715-0.03013c-0.23244-0.041963-0.54181-0.04165-0.70379 6.137e-4 -0.21514 0.056153-0.28372 0.099745-0.5008 0.31875-0.28692 0.28946-0.60991 0.62837-0.60991 0.64036 0 0.00573 0.05551 0.14633 0.12338 0.31241 0.06786 0.16607 0.12338 0.31233 0.12338 0.32478 0 0.012448-0.07281 0.23054-0.16175 0.48495l-0.16144 0.46274 0.38631 1.4685c0.21256 0.80769 0.47867 1.8214 0.5912 2.2525 0.27337 1.0474 0.34142 1.2462 0.52269 1.5249 0.09241 0.14211 0.33535 0.3864 0.52142 0.52427 0.32226 0.23879 2.1724 1.4916 2.3981 1.6239 0.0476 0.0279 0.12376 0.06385 0.16905 0.07993 0.11482 0.04076 0.23198 0.03168 0.35998-0.02823 0.14418-0.06747 1.6951-1.1055 2.361-1.5801 0.38125-0.27177 0.54985-0.43902 0.70157-0.69554 0.14922-0.25231 0.21512-0.44651 0.42722-1.2604 0.07906-0.3034 0.3425-1.3076 0.58549-2.2313l0.44181-1.6794-0.16556-0.47321-0.16556-0.47353 0.12528-0.30765c0.06888-0.16926 0.12582-0.31496 0.12687-0.32383 0.0021-0.018328-0.16709-0.19899-0.54584-0.58168-0.28717-0.29016-0.33924-0.32588-0.55758-0.38377-0.18934-0.0502-0.6172-0.037562-0.84176 0.024741-0.02642 0.00733-0.10276-0.07335-0.51539-0.54362l-0.48431-0.55187-1.7063-9.207e-4zm1.7086 1.6997c0.17586 4.11e-5 0.35026 0.052839 0.66668 0.15858 0.42413 0.14174 0.49251 0.15543 0.66319 0.13226 0.12965-0.017599 1.0087-0.17147 1.0508-0.18396 0.01596-0.00474 0.08636 0.073116 0.23343 0.25817 0.58253 0.73297 0.97184 1.3081 1.0279 1.5186 0.02213 0.083023-0.0018 0.24002-0.05138 0.33778-0.02163 0.042691-0.11181 0.15056-0.22106 0.26388-0.45372 0.47064-1.0736 1.1375-1.1126 1.197-0.03106 0.047358-0.04455 0.0877-0.04884 0.14748-0.0053 0.072908 0.0035 0.10601 0.0758 0.29211 0.12888 0.33162 0.14922 0.49091 0.08849 0.69269-0.05479 0.18201-0.31491 0.48625-0.49287 0.57629-0.16966 0.08584-0.28041 0.06605-0.65399-0.11577-0.26996-0.13138-0.39154-0.20458-0.56804-0.34254-0.27941-0.21838-0.51624-0.47234-0.53696-0.57597-0.02253-0.11262 0.11885-0.23903 0.6042-0.54045 0.33287-0.20672 0.48352-0.31002 0.55916-0.3825 0.05633-0.053973 0.06502-0.069999 0.06502-0.12211 0-0.080976-0.03947-0.18014-0.15414-0.38758-0.2678-0.48443-0.32509-0.61506-0.32509-0.74344 0-0.1119 0.05059-0.18995 0.1811-0.27974 0.09523-0.065517 0.19162-0.10578 0.79291-0.33144 0.64631-0.24255 0.68515-0.25859 0.67747-0.28164-0.01382-0.041437-0.49014-0.089903-0.88204-0.089758h-0.2975l-0.29021 0.08278c-0.41259 0.11758-0.49442 0.14875-0.53379 0.20394-0.04809 0.067412-0.04117 0.13475 0.07453 0.74248 0.20317 1.0672 0.20727 1.1136 0.1091 1.178-0.05906 0.038698-0.49944 0.13568-0.65875 0.14494-0.12111 0.00705-0.16749 0.00171-0.37933-0.043135-0.32409-0.068601-0.35067-0.07641-0.39519-0.11767-0.0345-0.032-0.03838-0.046072-0.03838-0.13765 0-0.1153 0.04357-0.38146 0.18078-1.1028 0.05223-0.27456 0.09483-0.5283 0.09483-0.56392 0-0.12972-0.08055-0.16992-0.64606-0.32351-0.26247-0.071285-0.42849-0.084197-0.76215-0.058993-0.25955 0.019606-0.58214 0.055343-0.61562 0.068191-0.06203 0.023805-0.06132 0.024039 0.67874 0.30194 0.62242 0.23373 0.7906 0.3118 0.87886 0.40756 0.13772 0.14941 0.11106 0.3117-0.1164 0.71394-0.05792 0.10242-0.14298 0.25985-0.18935 0.34983-0.0741 0.14379-0.08437 0.17375-0.08437 0.24739 0 0.079696 0.0028 0.086608 0.06153 0.14241 0.08454 0.080387 0.15894 0.1317 0.5119 0.35364 0.36249 0.22793 0.46112 0.29705 0.55536 0.38884 0.14988 0.14599 0.12759 0.21848-0.15319 0.49668-0.26707 0.26461-0.44597 0.39313-0.78689 0.56455-0.15569 0.07828-0.32534 0.15649-0.37679 0.17381-0.13811 0.04647-0.22278 0.04176-0.34349-0.01871-0.18275-0.09155-0.36143-0.28321-0.46718-0.50144-0.04779-0.09861-0.0532-0.12277-0.05836-0.25532-0.0067-0.17171 0.01761-0.27853 0.12338-0.54013 0.1049-0.25946 0.08946-0.35338-0.08912-0.54299-0.04751-0.050438-0.13562-0.14387-0.19601-0.20775-0.06039-0.063873-0.20438-0.2172-0.32002-0.34095-0.22166-0.23722-0.39461-0.41971-0.55758-0.58802-0.05411-0.055889-0.11377-0.12511-0.13226-0.15382-0.04781-0.074252-0.07961-0.19259-0.07961-0.29623 0-0.076335 0.0096-0.10895 0.06661-0.22614 0.12459-0.25609 0.52081-0.81778 0.99368-1.4088 0.09821-0.12276 0.17923-0.22427 0.18015-0.22582s0.21363 0.035172 0.47289 0.081829c0.64419 0.11593 0.71731 0.12492 0.83034 0.10308 0.05019-0.0097 0.24798-0.068962 0.43959-0.13162 0.32292-0.1056 0.50034-0.15831 0.6762-0.15827zm-0.0051 5.2247c0.04839 0 0.26852 0.07308 0.46687 0.15509 0.28287 0.11696 0.99751 0.49037 1.0282 0.53728 0.04134 0.06309 5e-3 0.1061-0.26293 0.31272-0.46389 0.35768-0.85774 0.66844-0.95243 0.75136-0.05189 0.04545-0.12313 0.10326-0.15827 0.12845-0.11064 0.07935-0.20548 0.05294-0.37616-0.10466-0.08047-0.07431-0.35481-0.29177-0.84461-0.66985-0.19561-0.15099-0.36689-0.28794-0.3806-0.30416-0.01371-0.01623-0.02511-0.05059-0.02537-0.07644-6.06e-4 -0.05888 3.1e-4 -0.0596 0.46401-0.29814 0.49474-0.2545 0.9219-0.43166 1.0413-0.43166z" fill="#2e3440" filter="url(#filter2441)" opacity=".25" stroke-width=".014516"/>
 <g stroke-width=".015793">
  <path d="m6.5048 2.2308-0.48862 0.55453c-0.26879 0.30505-0.50659 0.57521-0.52831 0.60009l-0.039342 0.045202-0.18186-0.032782c-0.25289-0.045656-0.58949-0.045315-0.76572 6.678e-4 -0.23407 0.061094-0.30869 0.10852-0.54487 0.3468-0.31217 0.31493-0.66358 0.68367-0.66358 0.69671 0 0.00623 0.060395 0.15921 0.13424 0.3399 0.073832 0.18068 0.13424 0.33982 0.13424 0.35336 0 0.013543-0.079217 0.25083-0.17598 0.52763l-0.17565 0.50346 0.42031 1.5977c0.23127 0.87877 0.52079 1.9817 0.64323 2.4507 0.29743 1.1396 0.37146 1.3559 0.56869 1.6591 0.10054 0.15462 0.36486 0.4204 0.5673 0.57041 0.35062 0.2598 2.3636 1.6229 2.6091 1.7668 0.051789 0.03036 0.13465 0.06947 0.18393 0.08696 0.12492 0.04435 0.25239 0.03447 0.39166-0.03071 0.15687-0.07341 1.8443-1.2028 2.5688-1.7191 0.4148-0.29569 0.59824-0.47765 0.76331-0.75675 0.16235-0.27451 0.23405-0.4858 0.46482-1.3713 0.08602-0.3301 0.37264-1.4227 0.63701-2.4277l0.48069-1.8272-0.18013-0.51485-0.18013-0.5152 0.1363-0.33472c0.074941-0.18415 0.13689-0.34268 0.13804-0.35233 0.002284-0.019941-0.18179-0.2165-0.59387-0.63287-0.31244-0.31569-0.36909-0.35456-0.60665-0.41754-0.206-0.054618-0.67151-0.040868-0.91584 0.026918-0.028745 0.007975-0.1118-0.079805-0.56074-0.59146l-0.52693-0.60043-1.8566-1e-3zm1.859 1.8493c0.19134 4.47e-5 0.38108 0.057489 0.72535 0.17254 0.46145 0.15421 0.53585 0.16911 0.72155 0.1439 0.14107-0.019148 1.0975-0.18656 1.1433-0.20015 0.01736-0.00516 0.09396 0.07955 0.25397 0.28089 0.63379 0.79747 1.0574 1.4232 1.1184 1.6522 0.02408 0.090329-2e-3 0.26114-0.0559 0.3675-0.02353 0.046448-0.12165 0.16381-0.24051 0.2871-0.49365 0.51206-1.1681 1.2376-1.2105 1.3023-0.03379 0.051526-0.04847 0.095418-0.05314 0.16046-0.0058 0.079324 0.0038 0.11534 0.08247 0.31782 0.14022 0.3608 0.16235 0.53411 0.09628 0.75365-0.05961 0.19804-0.34262 0.52904-0.53624 0.627-0.18459 0.093394-0.30509 0.071863-0.71155-0.12596-0.29372-0.14294-0.426-0.22258-0.61803-0.37268-0.304-0.2376-0.56167-0.51391-0.58421-0.62666-0.024513-0.12253 0.12931-0.26006 0.65737-0.58801 0.36216-0.22491 0.52607-0.3373 0.60837-0.41616 0.061287-0.058723 0.070742-0.076159 0.070742-0.13286 0-0.088102-0.042943-0.19599-0.1677-0.42169-0.29137-0.52706-0.3537-0.66919-0.3537-0.80886 0-0.12175 0.055042-0.20667 0.19704-0.30436 0.10361-0.071283 0.20848-0.11509 0.86269-0.36061 0.70319-0.26389 0.74544-0.28135 0.73709-0.30642-0.01504-0.045083-0.53327-0.097815-0.95966-0.097657h-0.32368l-0.31575 0.090065c-0.4489 0.12793-0.53793 0.16184-0.58076 0.22189-0.052322 0.073344-0.044793 0.14661 0.081089 0.80782 0.22105 1.1611 0.22551 1.2116 0.1187 1.2817-0.064258 0.042103-0.54339 0.14762-0.71672 0.15769-0.13177 0.0076704-0.18223 0.0018605-0.41271-0.046931-0.35261-0.074638-0.38153-0.083134-0.42997-0.12802-0.037536-0.034816-0.041757-0.050126-0.041757-0.14976 0-0.12545 0.047404-0.41503 0.19669-1.1998 0.056826-0.29872 0.10318-0.57479 0.10318-0.61354 0-0.14114-0.087638-0.18487-0.70291-0.35198-0.28557-0.077558-0.4662-0.091606-0.82922-0.064184-0.28239 0.021331-0.63337 0.060213-0.66979 0.074192-0.067489 0.0259-0.066716 0.026154 0.73847 0.32851 0.67719 0.2543 0.86017 0.33924 0.9562 0.44343 0.14984 0.16256 0.12083 0.33913-0.12664 0.77677-0.063017 0.11143-0.15556 0.28272-0.20601 0.38062-0.080621 0.15644-0.091794 0.18904-0.091794 0.26916 0 0.086709 0.00305 0.094229 0.066945 0.15494 0.091979 0.087461 0.17293 0.14329 0.55695 0.38476 0.39439 0.24799 0.5017 0.32319 0.60423 0.42306 0.16307 0.15884 0.13882 0.23771-0.16667 0.54039-0.29057 0.2879-0.48522 0.42773-0.85614 0.61423-0.16939 0.085169-0.35397 0.17026-0.40995 0.18911-0.15026 0.050559-0.24238 0.045435-0.37372-0.020356-0.19883-0.099606-0.39324-0.30813-0.50829-0.54557-0.051996-0.10729-0.057882-0.13358-0.063496-0.27779-0.0072896-0.18682 0.01916-0.30304 0.13424-0.58766 0.11413-0.28229 0.097332-0.38448-0.096962-0.59077-0.051691-0.054877-0.14755-0.15653-0.21326-0.22603-0.065704-0.069494-0.22237-0.23631-0.34818-0.37095-0.24117-0.2581-0.42934-0.45664-0.60665-0.63977-0.058872-0.060807-0.12378-0.13612-0.1439-0.16736-0.052017-0.080786-0.086616-0.20954-0.086616-0.3223 0-0.083052 0.010445-0.11854 0.072472-0.24604 0.13555-0.27863 0.56664-0.88974 1.0811-1.5328 0.10685-0.13356 0.195-0.24401 0.196-0.24569 1e-3 -0.00169 0.23243 0.038267 0.5145 0.08903 0.70088 0.12613 0.78043 0.13591 0.90341 0.11215 0.054607-0.010554 0.2698-0.075031 0.47827-0.1432 0.35134-0.11489 0.54437-0.17224 0.73571-0.1722zm-0.00555 5.6845c0.052648 0 0.29215 0.079511 0.50795 0.16874 0.30776 0.12725 1.0853 0.53352 1.1187 0.58456 0.044978 0.06864 0.00544 0.11544-0.28607 0.34024-0.50471 0.38916-0.93322 0.72726-1.0362 0.81748-0.056456 0.04945-0.13397 0.11235-0.1722 0.13975-0.12038 0.08633-0.22356 0.0576-0.40926-0.11387-0.08755-0.08085-0.38603-0.31745-0.91893-0.7288-0.21282-0.16428-0.39918-0.31328-0.41409-0.33093-0.014916-0.01766-0.02732-0.05504-0.027603-0.08317-6.593e-4 -0.06406 3.373e-4 -0.06485 0.50484-0.32438 0.53828-0.27689 1.003-0.46964 1.1329-0.46964z" fill="url(#linearGradient2448)"/>
  <path d="m6.5048 2.2308-0.48862 0.55453c-0.26879 0.30505-0.50659 0.57521-0.52831 0.60009l-0.039342 0.045202-0.18186-0.032782c-0.25289-0.045656-0.58949-0.045315-0.76572 6.678e-4 -0.23407 0.061094-0.30869 0.10852-0.54487 0.3468-0.31217 0.31493-0.66358 0.68367-0.66358 0.69671 0 0.00623 0.060395 0.15921 0.13424 0.3399 0.073832 0.18068 0.13424 0.33982 0.13424 0.35336 0 0.013543-0.079217 0.25083-0.17598 0.52763l-0.17565 0.50346 0.42031 1.5977c0.23127 0.87877 0.52079 1.9817 0.64323 2.4507 0.29743 1.1396 0.37146 1.3559 0.56869 1.6591 0.10054 0.15462 0.36486 0.4204 0.5673 0.57041 0.35062 0.2598 2.3636 1.6229 2.6091 1.7668 0.051789 0.03036 0.13465 0.06947 0.18393 0.08696 0.12492 0.04435 0.25239 0.03447 0.39166-0.03071 0.15687-0.07341 1.8443-1.2028 2.5688-1.7191 0.4148-0.29569 0.59824-0.47765 0.76331-0.75675 0.16235-0.27451 0.23405-0.4858 0.46482-1.3713 0.08602-0.3301 0.37264-1.4227 0.63701-2.4277l0.48069-1.8272-0.18013-0.51485-0.18013-0.5152 0.1363-0.33472c0.074941-0.18415 0.13689-0.34268 0.13804-0.35233 0.002284-0.019941-0.18179-0.2165-0.59387-0.63287-0.31244-0.31569-0.36909-0.35456-0.60665-0.41754-0.206-0.054618-0.67151-0.040868-0.91584 0.026918-0.028745 0.007975-0.1118-0.079805-0.56074-0.59146l-0.52693-0.60043-1.8566-1e-3zm1.859 1.8493c0.19134 4.47e-5 0.38108 0.057489 0.72535 0.17254 0.46145 0.15421 0.53585 0.16911 0.72155 0.1439 0.14107-0.019148 1.0975-0.18656 1.1433-0.20015 0.01736-0.00516 0.09396 0.07955 0.25397 0.28089 0.63379 0.79747 1.0574 1.4232 1.1184 1.6522 0.02408 0.090329-2e-3 0.26114-0.0559 0.3675-0.02353 0.046448-0.12165 0.16381-0.24051 0.2871-0.49365 0.51206-1.1681 1.2376-1.2105 1.3023-0.03379 0.051526-0.04847 0.095418-0.05314 0.16046-0.0058 0.079324 0.0038 0.11534 0.08247 0.31782 0.14022 0.3608 0.16235 0.53411 0.09628 0.75365-0.05961 0.19804-0.34262 0.52904-0.53624 0.627-0.18459 0.093394-0.30509 0.071863-0.71155-0.12596-0.29372-0.14294-0.426-0.22258-0.61803-0.37268-0.304-0.2376-0.56167-0.51391-0.58421-0.62666-0.024513-0.12253 0.12931-0.26006 0.65737-0.58801 0.36216-0.22491 0.52607-0.3373 0.60837-0.41616 0.061287-0.058723 0.070742-0.076159 0.070742-0.13286 0-0.088102-0.042943-0.19599-0.1677-0.42169-0.29137-0.52706-0.3537-0.66919-0.3537-0.80886 0-0.12175 0.055042-0.20667 0.19704-0.30436 0.10361-0.071283 0.20848-0.11509 0.86269-0.36061 0.70319-0.26389 0.74544-0.28135 0.73709-0.30642-0.01504-0.045083-0.53327-0.097815-0.95966-0.097657h-0.32368l-0.31575 0.090065c-0.4489 0.12793-0.53793 0.16184-0.58076 0.22189-0.052322 0.073344-0.044793 0.14661 0.081089 0.80782 0.22105 1.1611 0.22551 1.2116 0.1187 1.2817-0.064258 0.042103-0.54339 0.14762-0.71672 0.15769-0.13177 0.0076704-0.18223 0.0018605-0.41271-0.046931-0.35261-0.074638-0.38153-0.083134-0.42997-0.12802-0.037536-0.034816-0.041757-0.050126-0.041757-0.14976 0-0.12545 0.047404-0.41503 0.19669-1.1998 0.056826-0.29872 0.10318-0.57479 0.10318-0.61354 0-0.14114-0.087638-0.18487-0.70291-0.35198-0.28557-0.077558-0.4662-0.091606-0.82922-0.064184-0.28239 0.021331-0.63337 0.060213-0.66979 0.074192-0.067489 0.0259-0.066716 0.026154 0.73847 0.32851 0.67719 0.2543 0.86017 0.33924 0.9562 0.44343 0.14984 0.16256 0.12083 0.33913-0.12664 0.77677-0.063017 0.11143-0.15556 0.28272-0.20601 0.38062-0.080621 0.15644-0.091794 0.18904-0.091794 0.26916 0 0.086709 0.00305 0.094229 0.066945 0.15494 0.091979 0.087461 0.17293 0.14329 0.55695 0.38476 0.39439 0.24799 0.5017 0.32319 0.60423 0.42306 0.16307 0.15884 0.13882 0.23771-0.16667 0.54039-0.29057 0.2879-0.48522 0.42773-0.85614 0.61423-0.16939 0.085169-0.35397 0.17026-0.40995 0.18911-0.15026 0.050559-0.24238 0.045435-0.37372-0.020356-0.19883-0.099606-0.39324-0.30813-0.50829-0.54557-0.051996-0.10729-0.057882-0.13358-0.063496-0.27779-0.0072896-0.18682 0.01916-0.30304 0.13424-0.58766 0.11413-0.28229 0.097332-0.38448-0.096962-0.59077-0.051691-0.054877-0.14755-0.15653-0.21326-0.22603-0.065704-0.069494-0.22237-0.23631-0.34818-0.37095-0.24117-0.2581-0.42934-0.45664-0.60665-0.63977-0.058872-0.060807-0.12378-0.13612-0.1439-0.16736-0.052017-0.080786-0.086616-0.20954-0.086616-0.3223 0-0.083052 0.010445-0.11854 0.072472-0.24604 0.13555-0.27863 0.56664-0.88974 1.0811-1.5328 0.10685-0.13356 0.195-0.24401 0.196-0.24569 1e-3 -0.00169 0.23243 0.038267 0.5145 0.08903 0.70088 0.12613 0.78043 0.13591 0.90341 0.11215 0.054607-0.010554 0.2698-0.075031 0.47827-0.1432 0.35134-0.11489 0.54437-0.17224 0.73571-0.1722zm-0.00555 5.6845c0.052648 0 0.29215 0.079511 0.50795 0.16874 0.30776 0.12725 1.0853 0.53352 1.1187 0.58456 0.044978 0.06864 0.00544 0.11544-0.28607 0.34024-0.50471 0.38916-0.93322 0.72726-1.0362 0.81748-0.056456 0.04945-0.13397 0.11235-0.1722 0.13975-0.12038 0.08633-0.22356 0.0576-0.40926-0.11387-0.08755-0.08085-0.38603-0.31745-0.91893-0.7288-0.21282-0.16428-0.39918-0.31328-0.41409-0.33093-0.014916-0.01766-0.02732-0.05504-0.027603-0.08317-6.593e-4 -0.06406 3.373e-4 -0.06485 0.50484-0.32438 0.53828-0.27689 1.003-0.46964 1.1329-0.46964z" fill="url(#linearGradient1116)"/>
  <path d="m6.5048 2.2308-0.48862 0.55453c-0.26879 0.30505-0.50659 0.57521-0.52831 0.60009l-0.039342 0.045202-0.18186-0.032782c-0.25289-0.045656-0.58949-0.045315-0.76572 6.678e-4 -0.23407 0.061094-0.30869 0.10852-0.54487 0.3468-0.31217 0.31493-0.66358 0.68367-0.66358 0.69671 0 0.00623 0.060395 0.15921 0.13424 0.3399 0.073832 0.18068 0.13424 0.33982 0.13424 0.35336 0 0.013543-0.079217 0.25083-0.17598 0.52763l-0.17565 0.50346 0.42031 1.5977c0.23127 0.87877 0.52079 1.9817 0.64323 2.4507 0.29743 1.1396 0.37146 1.3559 0.56869 1.6591 0.10054 0.15462 0.36486 0.4204 0.5673 0.57041 0.35062 0.2598 2.3636 1.6229 2.6091 1.7668 0.051789 0.03036 0.13465 0.06947 0.18393 0.08696 0.12492 0.04435 0.25239 0.03447 0.39166-0.03071 0.15687-0.07341 1.8443-1.2028 2.5688-1.7191 0.4148-0.29569 0.59824-0.47765 0.76331-0.75675 0.16235-0.27451 0.23405-0.4858 0.46482-1.3713 0.08602-0.3301 0.37264-1.4227 0.63701-2.4277l0.48069-1.8272-0.18013-0.51485-0.18013-0.5152 0.1363-0.33472c0.074941-0.18415 0.13689-0.34268 0.13804-0.35233 0.002284-0.019941-0.18179-0.2165-0.59387-0.63287-0.31244-0.31569-0.36909-0.35456-0.60665-0.41754-0.206-0.054618-0.67151-0.040868-0.91584 0.026918-0.028745 0.007975-0.1118-0.079805-0.56074-0.59146l-0.52693-0.60043-1.8566-1e-3zm1.859 1.8493c0.19134 4.47e-5 0.38108 0.057489 0.72535 0.17254 0.46145 0.15421 0.53585 0.16911 0.72155 0.1439 0.14107-0.019148 1.0975-0.18656 1.1433-0.20015 0.01736-0.00516 0.09396 0.07955 0.25397 0.28089 0.63379 0.79747 1.0574 1.4232 1.1184 1.6522 0.02408 0.090329-2e-3 0.26114-0.0559 0.3675-0.02353 0.046448-0.12165 0.16381-0.24051 0.2871-0.49365 0.51206-1.1681 1.2376-1.2105 1.3023-0.03379 0.051526-0.04847 0.095418-0.05314 0.16046-0.0058 0.079324 0.0038 0.11534 0.08247 0.31782 0.14022 0.3608 0.16235 0.53411 0.09628 0.75365-0.05961 0.19804-0.34262 0.52904-0.53624 0.627-0.18459 0.093394-0.30509 0.071863-0.71155-0.12596-0.29372-0.14294-0.426-0.22258-0.61803-0.37268-0.304-0.2376-0.56167-0.51391-0.58421-0.62666-0.024513-0.12253 0.12931-0.26006 0.65737-0.58801 0.36216-0.22491 0.52607-0.3373 0.60837-0.41616 0.061287-0.058723 0.070742-0.076159 0.070742-0.13286 0-0.088102-0.042943-0.19599-0.1677-0.42169-0.29137-0.52706-0.3537-0.66919-0.3537-0.80886 0-0.12175 0.055042-0.20667 0.19704-0.30436 0.10361-0.071283 0.20848-0.11509 0.86269-0.36061 0.70319-0.26389 0.74544-0.28135 0.73709-0.30642-0.01504-0.045083-0.53327-0.097815-0.95966-0.097657h-0.32368l-0.31575 0.090065c-0.4489 0.12793-0.53793 0.16184-0.58076 0.22189-0.052322 0.073344-0.044793 0.14661 0.081089 0.80782 0.22105 1.1611 0.22551 1.2116 0.1187 1.2817-0.064258 0.042103-0.54339 0.14762-0.71672 0.15769-0.13177 0.0076704-0.18223 0.0018605-0.41271-0.046931-0.35261-0.074638-0.38153-0.083134-0.42997-0.12802-0.037536-0.034816-0.041757-0.050126-0.041757-0.14976 0-0.12545 0.047404-0.41503 0.19669-1.1998 0.056826-0.29872 0.10318-0.57479 0.10318-0.61354 0-0.14114-0.087638-0.18487-0.70291-0.35198-0.28557-0.077558-0.4662-0.091606-0.82922-0.064184-0.28239 0.021331-0.63337 0.060213-0.66979 0.074192-0.067489 0.0259-0.066716 0.026154 0.73847 0.32851 0.67719 0.2543 0.86017 0.33924 0.9562 0.44343 0.14984 0.16256 0.12083 0.33913-0.12664 0.77677-0.063017 0.11143-0.15556 0.28272-0.20601 0.38062-0.080621 0.15644-0.091794 0.18904-0.091794 0.26916 0 0.086709 0.00305 0.094229 0.066945 0.15494 0.091979 0.087461 0.17293 0.14329 0.55695 0.38476 0.39439 0.24799 0.5017 0.32319 0.60423 0.42306 0.16307 0.15884 0.13882 0.23771-0.16667 0.54039-0.29057 0.2879-0.48522 0.42773-0.85614 0.61423-0.16939 0.085169-0.35397 0.17026-0.40995 0.18911-0.15026 0.050559-0.24238 0.045435-0.37372-0.020356-0.19883-0.099606-0.39324-0.30813-0.50829-0.54557-0.051996-0.10729-0.057882-0.13358-0.063496-0.27779-0.0072896-0.18682 0.01916-0.30304 0.13424-0.58766 0.11413-0.28229 0.097332-0.38448-0.096962-0.59077-0.051691-0.054877-0.14755-0.15653-0.21326-0.22603-0.065704-0.069494-0.22237-0.23631-0.34818-0.37095-0.24117-0.2581-0.42934-0.45664-0.60665-0.63977-0.058872-0.060807-0.12378-0.13612-0.1439-0.16736-0.052017-0.080786-0.086616-0.20954-0.086616-0.3223 0-0.083052 0.010445-0.11854 0.072472-0.24604 0.13555-0.27863 0.56664-0.88974 1.0811-1.5328 0.10685-0.13356 0.195-0.24401 0.196-0.24569 1e-3 -0.00169 0.23243 0.038267 0.5145 0.08903 0.70088 0.12613 0.78043 0.13591 0.90341 0.11215 0.054607-0.010554 0.2698-0.075031 0.47827-0.1432 0.35134-0.11489 0.54437-0.17224 0.73571-0.1722zm-0.00555 5.6845c0.052648 0 0.29215 0.079511 0.50795 0.16874 0.30776 0.12725 1.0853 0.53352 1.1187 0.58456 0.044978 0.06864 0.00544 0.11544-0.28607 0.34024-0.50471 0.38916-0.93322 0.72726-1.0362 0.81748-0.056456 0.04945-0.13397 0.11235-0.1722 0.13975-0.12038 0.08633-0.22356 0.0576-0.40926-0.11387-0.08755-0.08085-0.38603-0.31745-0.91893-0.7288-0.21282-0.16428-0.39918-0.31328-0.41409-0.33093-0.014916-0.01766-0.02732-0.05504-0.027603-0.08317-6.593e-4 -0.06406 3.373e-4 -0.06485 0.50484-0.32438 0.53828-0.27689 1.003-0.46964 1.1329-0.46964z" fill="#b48ead" opacity=".7"/>
 </g>
 <g transform="matrix(1.2676 0 0 .93941 -2.4691 .77839)">
  <rect x="8.7963" y="11.52" width="5.3407" height="2.777" ry=".31094" fill="#2e3440" filter="url(#filter5511)" opacity=".25"/>
  <rect x="8.6915" y="11.398" width="5.3407" height="2.777" ry=".31094" fill="#d8dee9"/>
 </g>
 <g transform="matrix(.82914 0 0 .82914 -6.0891 6.0322)" fill="#2e3440" filter="url(#filter927)" opacity=".25" stroke-width=".20384" aria-label="nightly">
  <path d="m19.261 8.2509v0.71769h-0.19535v-0.71132q0-0.16881-0.06582-0.25268-0.06582-0.083872-0.19747-0.083872-0.15819 0-0.24949 0.10086-0.09131 0.10086-0.09131 0.27497v0.67204h-0.19641v-1.1891h0.19641v0.18473q0.07007-0.10723 0.16456-0.16031 0.09555-0.053084 0.21977-0.053084 0.2049 0 0.31001 0.1274 0.10511 0.12634 0.10511 0.37265z"/>
  <path d="m19.651 7.7796h0.19535v1.1891h-0.19535zm0-0.46289h0.19535v0.24737h-0.19535z"/>
  <path d="m21.038 8.3603q0-0.21234-0.08812-0.32912-0.08706-0.11678-0.24525-0.11678-0.15713 0-0.24525 0.11678-0.08706 0.11678-0.08706 0.32912 0 0.21127 0.08706 0.32806 0.08812 0.11678 0.24525 0.11678 0.15819 0 0.24525-0.11678 0.08812-0.11678 0.08812-0.32806zm0.19535 0.46077q0 0.30364-0.13483 0.45121-0.13483 0.14863-0.41299 0.14863-0.10298 0-0.19429-0.015925-0.0913-0.014863-0.1773-0.046714v-0.19004q0.086 0.046714 0.16987 0.069009t0.17093 0.022295q0.19216 0 0.28771-0.10086 0.09555-0.099797 0.09555-0.30258v-0.096612q-0.06051 0.10511-0.155 0.15713-0.09449 0.052022-0.22614 0.052022-0.2187 0-0.35248-0.16668-0.13377-0.16668-0.13377-0.44166 0-0.27604 0.13377-0.44272t0.35248-0.16668q0.13165 0 0.22614 0.052022t0.155 0.15713v-0.18048h0.19535z"/>
  <path d="m22.624 8.2509v0.71769h-0.19535v-0.71132q0-0.16881-0.06582-0.25268-0.06582-0.083872-0.19747-0.083872-0.15819 0-0.24949 0.10086t-0.0913 0.27497v0.67204h-0.19641v-1.652h0.19641v0.64762q0.07007-0.10723 0.16456-0.16031 0.09555-0.053084 0.21977-0.053084 0.2049 0 0.31001 0.1274 0.10511 0.12634 0.10511 0.37265z"/>
  <path d="m23.207 7.4419v0.33761h0.40238v0.15182h-0.40238v0.6455q0 0.14545 0.03928 0.18685 0.04034 0.041405 0.16244 0.041405h0.20066v0.1635h-0.20066q-0.22614 0-0.31213-0.083872-0.086-0.084934-0.086-0.30789v-0.6455h-0.14332v-0.15182h0.14333v-0.33761z"/>
  <path d="m23.866 7.3167h0.19535v1.652h-0.19535z"/>
  <path d="m24.965 9.079q-0.08281 0.21234-0.16137 0.2771-0.07856 0.064762-0.21021 0.064762h-0.15607v-0.1635h0.11466q0.08069 0 0.12528-0.03822t0.09874-0.18048l0.03504-0.089181-0.48094-1.17h0.20703l0.37159 0.93003 0.37159-0.93003h0.20703z"/>
 </g>
 <g transform="matrix(.82914 0 0 .82914 -6.1385 5.9086)" fill="#2e3440" stroke-width=".20384" aria-label="nightly">
  <path d="m19.261 8.2509v0.71769h-0.19535v-0.71132q0-0.16881-0.06582-0.25268-0.06582-0.083872-0.19747-0.083872-0.15819 0-0.24949 0.10086-0.09131 0.10086-0.09131 0.27497v0.67204h-0.19641v-1.1891h0.19641v0.18473q0.07007-0.10723 0.16456-0.16031 0.09555-0.053084 0.21977-0.053084 0.2049 0 0.31001 0.1274 0.10511 0.12634 0.10511 0.37265z"/>
  <path d="m19.651 7.7796h0.19535v1.1891h-0.19535zm0-0.46289h0.19535v0.24737h-0.19535z"/>
  <path d="m21.038 8.3603q0-0.21234-0.08812-0.32912-0.08706-0.11678-0.24525-0.11678-0.15713 0-0.24525 0.11678-0.08706 0.11678-0.08706 0.32912 0 0.21127 0.08706 0.32806 0.08812 0.11678 0.24525 0.11678 0.15819 0 0.24525-0.11678 0.08812-0.11678 0.08812-0.32806zm0.19535 0.46077q0 0.30364-0.13483 0.45121-0.13483 0.14863-0.41299 0.14863-0.10298 0-0.19429-0.015925-0.0913-0.014863-0.1773-0.046714v-0.19004q0.086 0.046714 0.16987 0.069009t0.17093 0.022295q0.19216 0 0.28771-0.10086 0.09555-0.099797 0.09555-0.30258v-0.096612q-0.06051 0.10511-0.155 0.15713-0.09449 0.052022-0.22614 0.052022-0.2187 0-0.35248-0.16668-0.13377-0.16668-0.13377-0.44166 0-0.27604 0.13377-0.44272t0.35248-0.16668q0.13165 0 0.22614 0.052022t0.155 0.15713v-0.18048h0.19535z"/>
  <path d="m22.624 8.2509v0.71769h-0.19535v-0.71132q0-0.16881-0.06582-0.25268-0.06582-0.083872-0.19747-0.083872-0.15819 0-0.24949 0.10086t-0.0913 0.27497v0.67204h-0.19641v-1.652h0.19641v0.64762q0.07007-0.10723 0.16456-0.16031 0.09555-0.053084 0.21977-0.053084 0.2049 0 0.31001 0.1274 0.10511 0.12634 0.10511 0.37265z"/>
  <path d="m23.207 7.4419v0.33761h0.40238v0.15182h-0.40238v0.6455q0 0.14545 0.03928 0.18685 0.04034 0.041405 0.16244 0.041405h0.20066v0.1635h-0.20066q-0.22614 0-0.31213-0.083872-0.086-0.084934-0.086-0.30789v-0.6455h-0.14332v-0.15182h0.14333v-0.33761z"/>
  <path d="m23.866 7.3167h0.19535v1.652h-0.19535z"/>
  <path d="m24.965 9.079q-0.08281 0.21234-0.16137 0.2771-0.07856 0.064762-0.21021 0.064762h-0.15607v-0.1635h0.11466q0.08069 0 0.12528-0.03822t0.09874-0.18048l0.03504-0.089181-0.48094-1.17h0.20703l0.37159 0.93003 0.37159-0.93003h0.20703z"/>
 </g>
</svg>
