<svg width="64" height="64" fill="none" version="1.1" viewBox="0 0 64 64" xmlns="http://www.w3.org/2000/svg">
 <g transform="matrix(3.7796 0 0 3.7796 -.00096588 -.43033)">
  <rect transform="matrix(.99138 0 0 1 .072989 .0019055)" x=".79375" y=".90545" width="15.346" height="15.346" rx="3.0526" ry="3.0526" fill="#000000" filter="url(#filter1178)" opacity=".15" stroke-linecap="round" stroke-linejoin="round" stroke-width="1.2489" style="mix-blend-mode:normal"/>
 </g>
 <path d="m60.39 31.999v17.151c0 7.3657-6.5422 11.34-10.617 11.339l-17.972-0.0068s-2e-4 -5.0503-2e-4 -11.332v-17.151" clip-path="url(#clipPath540)" fill="url(#paint0_linear_5_2)"/>
 <path d="m60.39 31.999v17.151c0 7.3657-6.5422 11.34-10.617 11.339l-17.972-0.0068s-2e-4 -5.0503-2e-4 -11.332v-17.151" clip-path="url(#clipPath534)" stroke="#4c566a" stroke-linecap="round" stroke-linejoin="round" stroke-width=".5"/>
 <path d="m19.028 11.779v5.0962h5.1053v2.2952h-5.1053v5.0962h-2.3277v-5.0962h-5.1054v-2.2952h5.1054v-5.0962z" clip-path="url(#clipPath628)" fill="#2e3440" filter="url(#filter1_f_5_2)" opacity=".25"/>
 <path d="m19.028 11.779v5.0962h5.1053v2.2952h-5.1053v5.0962h-2.3277v-5.0962h-5.1054v-2.2952h5.1054v-5.0962z" clip-path="url(#clipPath620)" filter="url(#filter1_f_5_2)" opacity=".25" stroke="#2e3440" stroke-width=".50001"/>
 <path d="m31.801 3.4943h17.151c7.3657 0 11.467 6.5228 11.465 10.586l-0.0068 17.919s-5.1769 3e-4 -11.459 3e-4h-17.151" clip-path="url(#clipPath522)" fill="url(#paint1_linear_5_2)"/>
 <path d="m31.801 3.4943h17.151c7.3657 0 11.467 6.5228 11.465 10.586l-0.0068 17.919s-5.1769 3e-4 -11.459 3e-4h-17.151" clip-path="url(#clipPath516)" stroke="#4c566a" stroke-linecap="round" stroke-linejoin="round" stroke-width=".5"/>
 <path d="m3.3901 32v-17.151c0-7.3657 6.363-11.34 10.438-11.339l17.972 0.00691s3e-4 5.0503 3e-4 11.332v17.15" clip-path="url(#clipPath510)" fill="url(#paint2_linear_5_2)"/>
 <path d="m3.3901 32v-17.151c0-7.3657 6.363-11.34 10.438-11.339l17.972 0.00691s3e-4 5.0503 3e-4 11.332v17.15" clip-path="url(#clipPath504)" stroke="#4c566a" stroke-linecap="round" stroke-linejoin="round" stroke-width=".5"/>
 <path d="m3.3901 32v17.151c0 7.3657 6.363 11.34 10.438 11.339l17.972-0.0068s3e-4 -5.0503 3e-4 -11.332v-17.151" clip-path="url(#clipPath498)" fill="url(#paint3_linear_5_2)"/>
 <path d="m3.3901 32v17.151c0 7.3657 6.363 11.34 10.438 11.339l17.972-0.0068s3e-4 -5.0503 3e-4 -11.332v-17.151" clip-path="url(#clipPath492)" stroke="#4c566a" stroke-linecap="round" stroke-linejoin="round" stroke-width=".5"/>
 <path d="m60.39 32h-57.038" clip-path="url(#clipPath486)" stroke="#4c566a" stroke-width=".5"/>
 <path d="m19.206 11.958v5.0962h5.1053v2.2952h-5.1053v5.0962h-2.3277v-5.0962h-5.1054v-2.2952h5.1054v-5.0962z" clip-path="url(#clipPath643)" fill="#4c566a" filter="url(#filter2_f_5_2)" opacity=".0625" stroke="#2e3440" stroke-width=".50001"/>
 <path d="m18.76 11.511v5.0962h5.1053v2.2953h-5.1053v5.0962h-2.3277v-5.0962h-5.1054v-2.2953h5.1054v-5.0962z" clip-path="url(#clipPath474)" fill="#eceff4" stroke="#eceff4" stroke-width=".50001"/>
 <path d="m19.979 46.562 4.3325 6.3735h-3.354l-2.9191-4.2656-2.894 4.2656h-3.3708l4.3326-6.3735-4.1655-6.1143h3.3624l2.7351 4.023 2.7267-4.023h3.3792z" clip-path="url(#clipPath574)" fill="#4c566a" filter="url(#filter3_f_5_2)" opacity=".0625"/>
 <path d="m19.532 46.115 4.3325 6.3736h-3.354l-2.9191-4.2657-2.894 4.2657h-3.3708l4.3326-6.3736-4.1655-6.1142h3.3624l2.7351 4.023 2.7267-4.023h3.3792z" clip-path="url(#clipPath462)" fill="#eceff4"/>
 <g fill="#4c566a" stroke="#4c566a">
  <path d="m40.864 43.65h11.361v2.0665h-11.361zm0 4.0011h11.361v2.084h-11.361z" clip-path="url(#clipPath589)" filter="url(#filter4_f_5_2)" opacity=".0625" stroke-width=".50001"/>
  <path d="m40.417 43.203h11.361v2.0664h-11.361zm0 4.001h11.361v2.0841h-11.361z" clip-path="url(#clipPath450)" stroke-width=".50001"/>
  <path d="m40.809 17.115h11.494v2.1572h-11.494z" clip-path="url(#clipPath604)" filter="url(#filter5_f_5_2)" opacity=".0625" stroke-width=".5"/>
 </g>
 <path d="m40.362 16.668h11.494v2.1573h-11.494z" clip-path="url(#clipPath438)" fill="#eceff4" stroke="#eceff4" stroke-width=".5"/>
 <defs>
  <filter id="filter1_f_5_2" x="11.063" y="11.247" width="13.602" height="13.551" color-interpolation-filters="sRGB" filterUnits="userSpaceOnUse">
   <feFlood flood-opacity="0" result="BackgroundImageFix"/>
   <feBlend in="SourceGraphic" in2="BackgroundImageFix" result="shape"/>
   <feGaussianBlur result="effect1_foregroundBlur_5_2" stdDeviation="0.140772"/>
  </filter>
  <filter id="filter2_f_5_2" x="10.972" y="11.156" width="14.142" height="14.091" color-interpolation-filters="sRGB" filterUnits="userSpaceOnUse">
   <feFlood flood-opacity="0" result="BackgroundImageFix"/>
   <feBlend in="SourceGraphic" in2="BackgroundImageFix" result="shape"/>
   <feGaussianBlur result="effect1_foregroundBlur_5_2" stdDeviation="0.275912"/>
  </filter>
  <filter id="filter3_f_5_2" x="11.168" y="39.842" width="13.749" height="13.699" color-interpolation-filters="sRGB" filterUnits="userSpaceOnUse">
   <feFlood flood-opacity="0" result="BackgroundImageFix"/>
   <feBlend in="SourceGraphic" in2="BackgroundImageFix" result="shape"/>
   <feGaussianBlur result="effect1_foregroundBlur_5_2" stdDeviation="0.302811"/>
  </filter>
  <filter id="filter4_f_5_2" x="40.192" y="42.978" width="12.706" height="7.4295" color-interpolation-filters="sRGB" filterUnits="userSpaceOnUse">
   <feFlood flood-opacity="0" result="BackgroundImageFix"/>
   <feBlend in="SourceGraphic" in2="BackgroundImageFix" result="shape"/>
   <feGaussianBlur result="effect1_foregroundBlur_5_2" stdDeviation="0.211098"/>
  </filter>
  <filter id="filter5_f_5_2" x="40.228" y="16.535" width="12.655" height="3.318" color-interpolation-filters="sRGB" filterUnits="userSpaceOnUse">
   <feFlood flood-opacity="0" result="BackgroundImageFix"/>
   <feBlend in="SourceGraphic" in2="BackgroundImageFix" result="shape"/>
   <feGaussianBlur result="effect1_foregroundBlur_5_2" stdDeviation="0.165182"/>
  </filter>
  <linearGradient id="paint0_linear_5_2" x1="43.001" x2="43.001" y1="60.533" y2="31.999" gradientUnits="userSpaceOnUse">
   <stop stop-color="#ECEFF4" offset="0"/>
   <stop stop-color="#D8DEE9" offset="1"/>
  </linearGradient>
  <linearGradient id="paint1_linear_5_2" x1="45.442" x2="45.442" y1="31.999" y2="3.3978" gradientUnits="userSpaceOnUse">
   <stop stop-color="#ebcb8b" offset="0"/>
   <stop stop-color="#d08770" offset="1"/>
  </linearGradient>
  <linearGradient id="paint2_linear_5_2" x1="18.69" x2="18.69" y1="31.999" y2="3.3231" gradientUnits="userSpaceOnUse">
   <stop stop-color="#ebcb8b" offset="0"/>
   <stop stop-color="#d08770" offset="1"/>
  </linearGradient>
  <linearGradient id="paint3_linear_5_2" x1="18.258" x2="18.258" y1="60.538" y2="31.999" gradientUnits="userSpaceOnUse">
   <stop stop-color="#ebcb8b" offset="0"/>
   <stop stop-color="#d08770" offset="1"/>
  </linearGradient>
  <clipPath id="clipPath438">
   <rect width="64" height="64" fill="#fff"/>
  </clipPath>
  <clipPath id="clipPath450">
   <rect width="64" height="64" fill="#fff"/>
  </clipPath>
  <clipPath id="clipPath462">
   <rect width="64" height="64" fill="#fff"/>
  </clipPath>
  <clipPath id="clipPath474">
   <rect width="64" height="64" fill="#fff"/>
  </clipPath>
  <clipPath id="clipPath486">
   <rect width="64" height="64" fill="#fff"/>
  </clipPath>
  <clipPath id="clipPath492">
   <rect width="64" height="64" fill="#fff"/>
  </clipPath>
  <clipPath id="clipPath498">
   <rect width="64" height="64" fill="#fff"/>
  </clipPath>
  <clipPath id="clipPath504">
   <rect width="64" height="64" fill="#fff"/>
  </clipPath>
  <clipPath id="clipPath510">
   <rect width="64" height="64" fill="#fff"/>
  </clipPath>
  <clipPath id="clipPath516">
   <rect width="64" height="64" fill="#fff"/>
  </clipPath>
  <clipPath id="clipPath522">
   <rect width="64" height="64" fill="#fff"/>
  </clipPath>
  <clipPath id="clipPath534">
   <rect width="64" height="64" fill="#fff"/>
  </clipPath>
  <clipPath id="clipPath540">
   <rect width="64" height="64" fill="#fff"/>
  </clipPath>
  <clipPath id="clipPath574">
   <rect width="64" height="64" fill="#fff"/>
  </clipPath>
  <clipPath id="clipPath589">
   <rect width="64" height="64" fill="#fff"/>
  </clipPath>
  <clipPath id="clipPath604">
   <rect width="64" height="64" fill="#fff"/>
  </clipPath>
  <clipPath id="clipPath620">
   <rect width="64" height="64" fill="#fff"/>
  </clipPath>
  <clipPath id="clipPath628">
   <rect width="64" height="64" fill="#fff"/>
  </clipPath>
  <clipPath id="clipPath643">
   <rect width="64" height="64" fill="#fff"/>
  </clipPath>
  <filter id="filter1178" x="-.047999" y="-.047999" width="1.096" height="1.096" color-interpolation-filters="sRGB">
   <feGaussianBlur stdDeviation="0.30691668"/>
  </filter>
 </defs>
</svg>
