<svg width="64" height="64" version="1.1" viewBox="0 0 16.933 16.933" xmlns="http://www.w3.org/2000/svg">
 <defs>
  <filter id="filter1178" x="-.047999" y="-.047999" width="1.096" height="1.096" color-interpolation-filters="sRGB">
   <feGaussianBlur stdDeviation="0.30691668"/>
  </filter>
  <linearGradient id="linearGradient1752" x1="7.6451" x2="7.617" y1="4.1008" y2=".97084" gradientTransform="matrix(1.005 0 0 1.005 -.042332 -.01213)" gradientUnits="userSpaceOnUse">
   <stop stop-color="#4c566a" offset="0"/>
   <stop stop-color="#3b4554" stop-opacity="0" offset=".2563"/>
   <stop stop-color="#81a1c1" stop-opacity="0" offset="1"/>
  </linearGradient>
  <linearGradient id="linearGradient4095" x1="7.9278" x2="7.9278" y1="14.257" y2="4.2668" gradientUnits="userSpaceOnUse">
   <stop stop-color="#d8dee9" offset="0"/>
   <stop stop-color="#eceff4" offset="1"/>
  </linearGradient>
  <linearGradient id="linearGradient4433" x1="1.0066" x2="15.893" y1="14.169" y2="14.152" gradientUnits="userSpaceOnUse">
   <stop stop-color="#4c566a" offset="0"/>
   <stop stop-color="#eceff4" offset=".060556"/>
   <stop stop-color="#eceff4" offset=".093304"/>
   <stop stop-color="#4c566a" offset=".18438"/>
   <stop stop-color="#4c566a" offset=".84844"/>
   <stop stop-color="#eceff4" offset=".9248"/>
   <stop stop-color="#eceff4" offset=".95147"/>
   <stop stop-color="#4c566a" offset="1"/>
  </linearGradient>
  <filter id="filter7596" x="-.058865" y="-.10331" width="1.1177" height="1.2066" color-interpolation-filters="sRGB">
   <feGaussianBlur stdDeviation="0.32067698"/>
  </filter>
  <linearGradient id="linearGradient14964" x1="13.993" x2="14.027" y1="8.2131" y2="14.546" gradientUnits="userSpaceOnUse">
   <stop stop-color="#e5e9f0" offset="0"/>
   <stop stop-color="#d8dee9" offset="1"/>
  </linearGradient>
 </defs>
 <g stroke-linecap="round" stroke-linejoin="round">
  <rect transform="matrix(.99138 0 0 1 .072989 .0019055)" x=".79375" y=".90545" width="15.346" height="15.346" rx="3.0526" ry="3.0526" fill="#000000" filter="url(#filter1178)" opacity=".15" stroke-width="1.2489" style="mix-blend-mode:normal"/>
  <rect x=".92604" y=".92604" width="15.081" height="15.081" rx="3" ry="3" fill="#bf616a" stroke-width="1.2274"/>
  <rect x=".01215" y=".0060174" width="16.924" height="16.927" fill="none" opacity=".15" stroke-width="1.052"/>
  <g stroke-width="1.2274">
   <path d="m3.926 0.92604h9.081c1.662 0 3 1.338 3 3v8.7002c0 1.662-1.338 3-3 3h-9.081c-1.662 0-3-1.338-3-3v-8.7002c0-1.662 1.338-3 3-3z" fill="#d8dee9"/>
   <path d="m3.926 0.92604h9.081c1.662 0 3 1.338 3 3v8.7002c0 1.662-1.338 3-3 3h-9.081c-1.662 0-3-1.338-3-3v-8.7002c0-1.662 1.338-3 3-3z" fill="url(#linearGradient4433)" opacity=".25"/>
   <path d="m16.007 11.66c0 1.662-1.338 3-3 3h-9.081c-1.662 0-3-1.338-3-3 0-4.5968 13.763-4.4371 15.081-1.4179 0.0668 0.15302 0 1.2555 0 1.4179z" fill="url(#linearGradient14964)"/>
   <path d="m3.926 0.95058h9.081c1.662 0 2.9694 1.3135 2.9755 2.9755l0.02454 6.6824c-1.5351 2.7218-1.6476 2.5499-4.0583 4.0583h-8.0227c-1.662 0-3.0053-1.338-3-3l0.024541-7.7407c0.005269-1.662 1.3135-2.9755 2.9755-2.9755z" fill="url(#linearGradient4095)"/>
  </g>
  <path d="m3.9033 0.91854h9.1264c1.6703 0 3.015 1.3447 3.015 3.015h-15.156c0-1.6703 1.3447-3.015 3.015-3.015z" fill="#5e81ac" stroke-width="1.2335"/>
  <path d="m3.9033 0.91854h9.1264c1.6703 0 3.015 1.3447 3.015 3.015h-15.156c0-1.6703 1.3447-3.015 3.015-3.015z" fill="url(#linearGradient1752)" stroke-width="1.2335"/>
 </g>
 <g transform="translate(-.049439 .1236)" fill="#2e3440" filter="url(#filter7596)" opacity=".37">
  <g transform="translate(0 -.52916)">
   <ellipse cx="14.42" cy="6.2621" rx=".58394" ry=".54978" opacity=".25"/>
   <ellipse cx="7.2759" cy="6.2621" rx=".58394" ry=".54978" opacity=".25"/>
   <ellipse cx="9.6571" cy="6.2621" rx=".58394" ry=".54978" opacity=".25"/>
   <ellipse cx="12.038" cy="6.2621" rx=".58394" ry=".54978" opacity=".25"/>
   <ellipse cx="4.8947" cy="6.2621" rx=".58394" ry=".54978" opacity=".25"/>
  </g>
  <ellipse cx="4.8947" cy="8.9079" rx=".58394" ry=".54978" opacity=".25"/>
  <ellipse cx="2.5135" cy="8.9079" rx=".58394" ry=".54978" opacity=".25"/>
  <ellipse cx="7.2759" cy="8.9079" rx=".70072" ry=".65974" opacity=".8"/>
  <ellipse cx="9.6571" cy="8.9079" rx=".58394" ry=".54978" opacity=".25"/>
  <ellipse cx="12.038" cy="8.9079" rx=".58394" ry=".54978" opacity=".25"/>
  <ellipse cx="14.42" cy="8.9079" rx=".58394" ry=".54978" opacity=".25"/>
  <ellipse cx="4.8947" cy="12.083" rx=".58394" ry=".54978" opacity=".25"/>
  <ellipse cx="7.2759" cy="12.083" rx=".58394" ry=".54978" opacity=".25"/>
  <ellipse cx="2.5135" cy="12.083" rx=".58394" ry=".54978" opacity=".25"/>
 </g>
 <g fill="#4c566a">
  <g transform="translate(0 -.52916)">
   <ellipse cx="14.42" cy="6.2621" rx=".58394" ry=".54978" opacity=".25"/>
   <ellipse cx="7.2759" cy="6.2621" rx=".58394" ry=".54978" opacity=".25"/>
   <ellipse cx="9.6571" cy="6.2621" rx=".58394" ry=".54978" opacity=".25"/>
   <ellipse cx="12.038" cy="6.2621" rx=".58394" ry=".54978" opacity=".25"/>
   <ellipse cx="4.8947" cy="6.2621" rx=".58394" ry=".54978" opacity=".25"/>
  </g>
  <ellipse cx="4.8947" cy="8.9079" rx=".58394" ry=".54978" opacity=".25"/>
  <ellipse cx="2.5135" cy="8.9079" rx=".58394" ry=".54978" opacity=".25"/>
 </g>
 <ellipse cx="7.2759" cy="8.9079" rx=".70072" ry=".65974" fill="#bf616a" opacity=".8"/>
 <g fill="#4c566a">
  <ellipse cx="9.6571" cy="8.9079" rx=".58394" ry=".54978" opacity=".25"/>
  <ellipse cx="12.038" cy="8.9079" rx=".58394" ry=".54978" opacity=".25"/>
  <ellipse cx="14.42" cy="8.9079" rx=".58394" ry=".54978" opacity=".25"/>
  <ellipse cx="4.8947" cy="12.083" rx=".58394" ry=".54978" opacity=".25"/>
  <ellipse cx="7.2759" cy="12.083" rx=".58394" ry=".54978" opacity=".25"/>
  <ellipse cx="2.5135" cy="12.083" rx=".58394" ry=".54978" opacity=".25"/>
 </g>
</svg>
