<?xml version="1.0" encoding="UTF-8"?>
<svg width="64" height="64" version="1.1" viewBox="0 0 16.933 16.933" xmlns="http://www.w3.org/2000/svg">
 <defs>
  <filter id="filter1178" x="-.047999" y="-.047999" width="1.096" height="1.096" color-interpolation-filters="sRGB">
   <feGaussianBlur stdDeviation="0.30691668"/>
  </filter>
  <filter id="filter20893" x="-.03468" y="-.03468" width="1.0694" height="1.0694" color-interpolation-filters="sRGB">
   <feGaussianBlur stdDeviation="0.21144734"/>
  </filter>
  <radialGradient id="radialGradient45021" cx="-9.0747" cy="3.7231" r="4.1204" gradientTransform="matrix(-.45755 .034999 -.03475 -.27818 -13.097 4.7178)" gradientUnits="userSpaceOnUse">
   <stop stop-color="#eceff4" stop-opacity=".5" offset="0"/>
   <stop stop-color="#f2ab64" offset="1"/>
  </radialGradient>
  <filter id="filter54388" x="-.13184" y="-.033103" width="1.2637" height="1.0662" color-interpolation-filters="sRGB">
   <feGaussianBlur stdDeviation="0.1519561"/>
  </filter>
  <linearGradient id="linearGradient65090" x1="5.0992" x2="7.4389" y1="5.7633" y2="15.198" gradientTransform="translate(.031718)" gradientUnits="userSpaceOnUse">
   <stop stop-color="#434c5e" offset="0"/>
   <stop stop-color="#2e3440" offset="1"/>
  </linearGradient>
  <filter id="filter65448" x="-.12307" y="-.033709" width="1.2461" height="1.0674" color-interpolation-filters="sRGB">
   <feGaussianBlur stdDeviation="0.14184337"/>
  </filter>
  <linearGradient id="linearGradient80748" x1="6.9712" x2="10.495" y1="6.254" y2="20.623" gradientUnits="userSpaceOnUse">
   <stop stop-color="#eac57b" offset="0"/>
   <stop stop-color="#d08770" offset="1"/>
  </linearGradient>
  <filter id="filter87786" x="-.25698" y="-.038078" width="1.514" height="1.0762" color-interpolation-filters="sRGB">
   <feGaussianBlur stdDeviation="0.19046814"/>
  </filter>
  <linearGradient id="linearGradient94665" x1="12.398" x2="14.35" y1="7.7241" y2="14.817" gradientTransform="translate(-3.907 2.5759)" gradientUnits="userSpaceOnUse">
   <stop stop-color="#eceff4" stop-opacity=".25" offset="0"/>
   <stop stop-color="#81a1c1" stop-opacity="0" offset="1"/>
  </linearGradient>
  <filter id="filter95109" x="-.088701" y="-.043175" width="1.1774" height="1.0864" color-interpolation-filters="sRGB">
   <feGaussianBlur stdDeviation="0.076096167"/>
  </filter>
  <filter id="filter95547" x="-.099675" y="-.039741" width="1.1994" height="1.0795" color-interpolation-filters="sRGB">
   <feGaussianBlur stdDeviation="0.13861919"/>
  </filter>
 </defs>
 <rect transform="matrix(.99138 0 0 1 .072989 .0019055)" x=".79375" y=".90545" width="15.346" height="15.346" rx="3.0526" ry="3.0526" filter="url(#filter1178)" opacity=".15" stroke-width="1.2489" style="mix-blend-mode:normal"/>
 <rect x=".92604" y=".92604" width="15.081" height="15.081" rx="3" ry="3" fill="#c4b0a7" stroke-linecap="round" stroke-linejoin="round" stroke-width="1.2274"/>
 <rect x=".92604" y=".92604" width="15.081" height="15.081" rx="3" ry="3" fill="#eac57b" opacity=".34" stroke-linecap="round" stroke-linejoin="round" stroke-width="1.2274"/>
 <rect transform="rotate(-13.717)" x="7.9532" y="9.7402" width="3.3377" height="8.3714" fill="#2e3440" filter="url(#filter95547)" opacity=".38398"/>
 <rect transform="rotate(-8.8555)" x="6.9712" y="5.0636" width="1.7788" height="12.005" fill="#2e3440" filter="url(#filter87786)" opacity=".62"/>
 <rect x=".01215" y=".0060174" width="16.924" height="16.927" fill="none" opacity=".15" stroke-linecap="round" stroke-linejoin="round" stroke-width="1.052"/>
 <g fill="#2e3440">
  <path d="m4.0611 1.15c-1.6126 0-2.9112 1.2985-2.9112 2.9112v8.8112c0 1.6126 1.2985 2.9107 2.9112 2.9107h8.8112c1.6126 0 2.9107-1.298 2.9107-2.9107v-8.8112c0-1.6126-1.298-2.9112-2.9107-2.9112zm0.35199 0.58514h8.1067c1.4836 0 2.678 1.1944 2.678 2.678v8.1067c0 1.4836-1.1944 2.678-2.678 2.678h-8.1067c-1.4836 0-2.678-1.1944-2.678-2.678v-8.1067c0-1.4836 1.1944-2.678 2.678-2.678z" filter="url(#filter20893)" opacity=".42451" stroke-linecap="round" stroke-linejoin="round" stroke-width="1.2274"/>
  <rect x="2.333" y="4.5178" width="2.7662" height="11.017" filter="url(#filter54388)"/>
  <rect x="5.1309" y="5.4351" width="2.7662" height="10.099" filter="url(#filter65448)"/>
 </g>
 <rect x="2.333" y="4.5178" width="2.7662" height="11.017" fill="#6b5756"/>
 <rect x="2.333" y="14.579" width="2.7662" height=".32818" fill="#f2ab64"/>
 <rect x="5.1309" y="5.4351" width="2.7662" height="10.099" fill="url(#linearGradient65090)"/>
 <g fill="#eceff4">
  <rect x="5.1309" y="14.469" width="2.7662" height=".16912"/>
  <rect x="5.1309" y="6.3418" width="2.7662" height=".16912"/>
  <g transform="matrix(0 -.84697 1.1807 0 0 0)" stroke-width=".26458" aria-label="Kovid Goyal">
   <path d="m-15.754 5.9452-0.01365-0.10175c-0.04839 0.068244-0.07569 0.089338-0.11788 0.089338-0.04343 0-0.08686-0.035983-0.12284-0.10175-0.03598-0.067003-0.05335-0.10919-0.11664-0.28662l-0.06948-0.18984c0.1948-0.16503 0.24444-0.19729 0.29903-0.19729 0.02233 0 0.03846 0.00372 0.07321 0.018612l0.04591-0.091819c-0.03102-0.012408-0.04715-0.01613-0.06949-0.01613-0.0397 0-0.06576 0.012408-0.12284 0.059558l-0.26057 0.21342c-0.0037 0.00372-0.01861 0.01489-0.03971 0.03102l0.06452-0.25933c0.03598-0.00993 0.04591-0.01613 0.06452-0.038465-0.05584-0.00372-0.08189-0.00496-0.11291-0.00496-0.09802 0-0.17743 0.013649-0.23203 0.039706-0.09306 0.04591-0.14393 0.11912-0.14393 0.20845 0 0.032261 5e-3 0.050873 0.02109 0.09306l0.10175-0.043428c-0.01985-0.048391-0.0273-0.079411-0.0273-0.11788 0-0.086856 0.06204-0.13401 0.17744-0.13401 0.01365 0 0.0335 0.00124 0.05956 0.00372l-0.03722 0.15262c-0.03847 0.1551-0.05584 0.21962-0.07569 0.2767-0.04839 0.13773-0.0943 0.1824-0.18984 0.1824h-0.04715l-0.05459 0.053354h0.16999c0.10919 0 0.11167-0.00124 0.19605-0.053354h-0.15014c0.15138-0.15138 0.17123-0.18364 0.21094-0.33874 0.0025 0.00869 0.0062 0.017371 0.0087 0.027298 0.0074 0.021094 0.0074 0.022334 0.02233 0.068244l0.02234 0.074448c0.05335 0.17371 0.09058 0.25933 0.13525 0.3102 0.05459 0.06204 0.13028 0.094301 0.2221 0.094301 0.04095 0 0.06328-0.00372 0.10919-0.021094z"/>
   <path d="m-15.483 5.3881c0-0.067003-0.04591-0.11415-0.11167-0.11415-0.04963 0-0.12904 0.035983-0.20225 0.090578-0.07941 0.059558-0.13525 0.1886-0.13525 0.31144 0 0.075689 0.04219 0.12408 0.10795 0.12408 0.03474 0 0.06948-0.012408 0.12656-0.042187 0.06204-0.034742 0.10299-0.065762 0.12532-0.095542 0.04963-0.067003 0.08934-0.1886 0.08934-0.27422zm-0.09554 0.067003c0 0.052114-0.01737 0.11664-0.04839 0.17743-0.03474 0.070726-0.07941 0.10919-0.12656 0.10919-0.05087 0-0.08313-0.04591-0.08313-0.11664 0-0.14393 0.09058-0.29283 0.17743-0.29283 0.04963 0 0.08065 0.048391 0.08065 0.12284z"/>
   <path d="m-14.911 5.3087c0-0.028538-0.0087-0.04715-0.03226-0.067003-0.02978 0.00869-0.04467 0.01489-0.08313 0.033502 0.01489 0.033502 0.01985 0.053354 0.01985 0.085615 0 0.075689-0.02233 0.1551-0.06452 0.22707-0.04839 0.081893-0.11664 0.14145-0.16254 0.14145-0.0273 0-0.04963-0.032261-0.04963-0.074448 0-0.057077 0.01985-0.12532 0.05459-0.1886 0.02482-0.043428 0.04839-0.075689 0.10671-0.14269 0.0012-0.00372 0.0012-0.00869 0.0012-0.00869 0-0.00372 0-0.00496-0.0025-0.013649h-0.01241c-0.01365 0.01613-0.0273 0.019853-0.067 0.019853h-0.02978l-0.09926-0.00372c-0.02358 0-0.03598 0.00372-0.04343 0.013649-0.01613 0.019853-0.03598 0.071966-0.0608 0.16006l0.02109 0.026057c0.0062-0.018612 0.01241-0.035983 0.01365-0.042187 0.0273-0.07817 0.03598-0.085615 0.10299-0.084374 0.04963-0.00124 0.06328-0.00248 0.09306-0.00869-0.07197 0.080652-0.09306 0.10671-0.11043 0.13525-0.03598 0.059558-0.05708 0.13028-0.05708 0.19108 0 0.057077 0.02606 0.091819 0.067 0.091819 0.09802 0 0.22707-0.10299 0.31268-0.2494 0.04839-0.081893 0.08189-0.18116 0.08189-0.24196z"/>
   <path d="m-14.616 5.6723 5e-3 -0.037224c-0.0608 0.037224-0.1216 0.068244-0.13277 0.068244-0.01365 0-0.02357-0.01489-0.02357-0.034742 0-0.044669 0.01489-0.091819 0.02606-0.13897l0.03847-0.15758c0.0062-0.026057 0.01613-0.065762 0.01613-0.080652 0-0.00993-0.0037-0.01613-0.01489-0.01613-0.02854 0-0.15758 0.084374-0.1948 0.10919l-0.0012 0.035983c0.02854-0.01613 0.07321-0.04591 0.09058-0.04591 0.01365 0 0.01489 0.013649 0.01489 0.024816 0 0.027298-0.0273 0.11912-0.04095 0.17619-0.01365 0.057077-0.03598 0.11539-0.03598 0.17123 0 0.032261 0.01241 0.052114 0.03226 0.052114 0.02109 0 0.04343-0.011167 0.1154-0.058318 0.01985-0.013649 0.02978-0.021094 0.10547-0.068244zm0.0087-0.57573c-0.02233-0.035983-0.02357-0.039706-0.03598-0.068244-0.0012-0.00496-0.0037-0.011167-0.0062-0.01613-0.0074 0.0062-0.01241 0.00993-0.01737 0.013649-0.0335 0.028538-0.03598 0.029779-0.06824 0.052114 0.0099 0.029779 0.01861 0.044669 0.04715 0.086856l0.04095-0.037224c0.0074-0.00496 0.01117-0.00869 0.0397-0.03102z"/>
   <path d="m-14.089 5.6599 5e-3 -0.038465c-0.01613 0.00993-0.02854 0.018612-0.03474 0.022334-0.06824 0.04715-0.10299 0.067003-0.11415 0.067003-0.0099 0-0.01737-0.013649-0.01737-0.032261 0-0.040946 0.10423-0.49012 0.13028-0.56705 0.0273-0.074448 0.0546-0.10299 0.09926-0.10299 0.01613 0 0.02854 0.00248 0.05708 0.00993l0.04343-0.069485c-0.01861-0.00372-0.02854-0.00496-0.0397-0.00496-0.02978 0-0.04591 0.00496-0.07445 0.021094-0.03102 0.017371-0.07321 0.049632-0.10795 0.081893-0.0608 0.058318-0.06452 0.067003-0.09678 0.19481l-0.0099 0.039706c-0.02233-0.00496-0.04095-0.00744-0.05087-0.00744-0.03846 0-0.14517 0.067003-0.1948 0.1216-0.04219 0.048391-0.09802 0.22334-0.09802 0.30896 0 0.04715 0.02482 0.095542 0.04715 0.095542 0.02358 0 0.07817-0.033502 0.20845-0.1278-0.0062 0.03102-0.0099 0.067003-0.0099 0.089338 0 0.024816 0.0099 0.038465 0.0273 0.038465 0.01985 0 0.1278-0.065762 0.23079-0.14021zm-0.23823-0.033502c-0.10547 0.074448-0.13277 0.090578-0.15014 0.090578s-0.02606-0.018612-0.02606-0.054595c0-0.040946 0.0074-0.088097 0.02233-0.14269 0.03598-0.12532 0.08437-0.18736 0.14766-0.18736 0.02233 0 0.03847 0.00869 0.06452 0.033502z"/>
   <path d="m-13.076 5.4514c-0.04963-0.00372-0.16379-0.0062-0.27918-0.0062l-0.07569 0.038465v0.00993l0.18116-0.00744-0.04467 0.17868c-0.05211 0.049632-0.12656 0.083134-0.18364 0.083134-0.09182 0-0.1489-0.071966-0.1489-0.18488 0-0.24196 0.16378-0.46778 0.3375-0.46778 0.05087 0 0.0943 0.021094 0.11788 0.058318 0.01613 0.024816 0.02233 0.04591 0.02978 0.098023l0.09182-0.10299c-0.02358-0.070726-0.06949-0.098023-0.16379-0.098023-0.13525 0-0.25809 0.055836-0.35735 0.16254-0.1005 0.10795-0.16379 0.26057-0.16379 0.39085 0 0.12036 0.06576 0.19481 0.17247 0.19481 0.07693 0 0.14269-0.019853 0.25312-0.075689-0.01861 0.074448-0.04095 0.1551-0.05211 0.1824-0.02482 0.067003-0.0608 0.094301-0.12656 0.094301-0.03598 0-0.09678-0.00496-0.13401-0.011167l-0.05211 0.081893c0.04467 0.00496 0.06452 0.0062 0.08934 0.0062 0.09926 0 0.18364-0.044669 0.26553-0.14021 0.05335-0.060799 0.07569-0.11291 0.11167-0.25685l0.04839-0.19356h0.02606z"/>
   <path d="m-12.555 5.3881c0-0.067003-0.04591-0.11415-0.11167-0.11415-0.04963 0-0.12904 0.035983-0.20225 0.090578-0.07941 0.059558-0.13525 0.1886-0.13525 0.31144 0 0.075689 0.04219 0.12408 0.10795 0.12408 0.03474 0 0.06949-0.012408 0.12656-0.042187 0.06204-0.034742 0.10299-0.065762 0.12532-0.095542 0.04963-0.067003 0.08934-0.1886 0.08934-0.27422zm-0.09554 0.067003c0 0.052114-0.01737 0.11664-0.04839 0.17743-0.03474 0.070726-0.07941 0.10919-0.12656 0.10919-0.05087 0-0.08313-0.04591-0.08313-0.11664 0-0.14393 0.09058-0.29283 0.17744-0.29283 0.04963 0 0.08065 0.048391 0.08065 0.12284z"/>
   <path d="m-12.029 5.269-0.03474 0.018612-0.04343 0.021094c-0.0062 0.00372-0.01613 0.00744-0.0273 0.013649l-0.07569 0.30151c-0.12408 0.07693-0.13028 0.080652-0.15138 0.080652-0.01613 0-0.0273-0.017371-0.0273-0.039706 0-0.027298 0.01117-0.084374 0.03474-0.17247 0.03102-0.12284 0.04839-0.19232 0.04839-0.20349 0-0.00869-0.0062-0.01489-0.01365-0.01489-0.01365 0-0.09306 0.042187-0.19729 0.10423l-0.0037 0.033502c0.05832-0.029779 0.07197-0.035983 0.08562-0.035983 0.01241 0 0.01861 0.00744 0.01861 0.018612 0 0.022334-0.0087 0.059558-0.03846 0.16875-0.02978 0.10795-0.03598 0.13525-0.03598 0.16751 0 0.039706 0.01861 0.069485 0.04343 0.069485 0.02358 0 0.12284-0.059558 0.23327-0.13897-0.04715 0.22707-0.04715 0.22707-0.06204 0.27298-0.01985 0.063281-0.05956 0.086856-0.14021 0.086856-0.03598 0-0.06328-0.00496-0.13649-0.022334l-0.04963 0.084374c0.03846 0.00496 0.09306 0.00869 0.13649 0.00869 0.08686 0 0.13649-0.023575 0.20721-0.099264 0.07197-0.07693 0.07693-0.090578 0.12036-0.29283 0.04343-0.19977 0.067-0.29283 0.10919-0.43056z"/>
   <path d="m-11.51 5.6611v-0.035983c-0.02358 0.01489-0.10547 0.073207-0.12532 0.073207-0.01241 0-0.01489-0.01613-0.01489-0.027298 0-0.04591 0.05584-0.27298 0.07072-0.33378 5e-3 -0.00744 0.02978-0.038465 0.03598-0.044669-0.04219-0.011167-0.09678-0.018612-0.14642-0.018612-0.08313 0-0.09182 0.00869-0.1489 0.048391-0.0335 0.023575-0.06452 0.037224-0.0881 0.074448-0.06204 0.096782-0.08562 0.2221-0.08562 0.30027 0 0.037224 0.0099 0.10423 0.05336 0.10423 0.04591 0 0.15758-0.09306 0.2221-0.13773l-0.0087 0.055836c-0.0074 0.042187-0.01489 0.080652 0.01489 0.080652 0.03102 0 0.18488-0.11291 0.22086-0.13897zm-0.21962-0.04591c-0.03722 0.027298-0.11912 0.094301-0.15138 0.094301s-0.03847-0.033502-0.03847-0.063281c0-0.079411 0.02482-0.16999 0.05708-0.23327 0.02109-0.043428 0.04095-0.079411 0.09678-0.079411 0.03102 0 0.06949 0.00869 0.1005 0.01489z"/>
   <path d="m-11.218 5.6512v-0.027298c-0.01737 0.00993-0.02854 0.017371-0.0335 0.019853-0.08934 0.055836-0.09926 0.060799-0.11664 0.060799-0.02233 0-0.02233-0.029779-0.02233-0.054595 0-0.022334 0.05584-0.26305 0.10175-0.438 0.04839-0.1824 0.05956-0.20473 0.11415-0.20473 0.01613 0 0.02854 0.00124 0.0608 0.00869l0.05335-0.065762c-0.02606-0.0062-0.03971-0.00744-0.05584-0.00744-0.04963 0-0.08934 0.019853-0.1489 0.073207-0.05459 0.049632-0.06824 0.068244-0.08437 0.11291-0.0099 0.029779-0.03722 0.13028-0.04963 0.18488l-0.08934 0.38837c-0.0012 0.00744-0.0025 0.01489-0.0025 0.022334 0 0.038465 0.01489 0.075689 0.05211 0.075689 0.01241 0 0.06452-0.035983 0.22086-0.1489z"/>
  </g>
 </g>
 <rect transform="rotate(-8.8555)" x="6.9712" y="5.0636" width="1.7788" height="12.005" fill="url(#linearGradient80748)"/>
 <rect transform="rotate(-8.8555)" x="6.9712" y="16.234" width="1.7788" height=".83407" fill="#6b5756"/>
 <rect transform="rotate(-13.717)" x="7.9532" y="9.7402" width="3.3377" height="8.3714" fill="#81a1c1"/>
 <rect transform="rotate(-13.717)" x="7.9532" y="9.7402" width="3.3377" height="8.3714" fill="url(#linearGradient94665)"/>
 <g stroke-linecap="round" stroke-linejoin="round">
  <path d="m11.033 7.415 1.0915-0.26641 0.96745 3.9636-0.63065-0.22365-0.46083 0.49006z" fill="#2e3440" filter="url(#filter95109)" opacity=".23072" stroke-width="1.2435"/>
  <path d="m11.112 7.314 1.0915-0.26641 0.96745 3.9636-0.63065-0.22365-0.46083 0.49006z" fill="#bf616a" stroke-width="1.2435"/>
  <path d="m3.9264 0.92603c-1.662 0-3.0003 1.3383-3.0003 3.0003v9.0809c0 1.662 1.3383 2.9998 3.0003 2.9998h9.0809c1.662 0 2.9998-1.3378 2.9998-2.9998v-9.0809c0-1.662-1.3378-3.0003-2.9998-3.0003zm0.36277 0.60306h8.3549c1.5291 0 2.7601 1.231 2.7601 2.7601v8.3549c0 1.5291-1.231 2.7601-2.7601 2.7601h-8.3549c-1.5291 0-2.7601-1.231-2.7601-2.7601v-8.3549c0-1.5291 1.231-2.7601 2.7601-2.7601z" fill="#c4b0a7" stroke-width="1.2274"/>
 </g>
 <rect x="2.333" y="5.4351" width="2.7662" height=".32818" fill="#f2ab64"/>
 <g transform="matrix(0 -.8846 1.1305 0 0 0)" fill="#f2ab64" stroke-width=".26458" aria-label="CALIBRE">
  <path d="m-14.861 3.4982 0.18694 0.047217q-0.05878 0.23031-0.212 0.35172-0.15225 0.12045-0.37292 0.12045-0.22838 0-0.37196-0.092508-0.14262-0.093471-0.21778-0.26981-0.0742-0.17634-0.0742-0.3787 0-0.22067 0.08384-0.38449 0.0848-0.16478 0.23994-0.24958 0.15611-0.085762 0.34305-0.085762 0.212 0 0.35654 0.10793t0.2014 0.30354l-0.18405 0.043363q-0.04914-0.15418-0.14262-0.22452-0.09347-0.070345-0.23512-0.070345-0.16285 0-0.2727 0.078053-0.10889 0.078053-0.15322 0.21007-0.04433 0.13105-0.04433 0.27078 0 0.1802 0.05204 0.3151 0.053 0.13394 0.16382 0.20043t0.23994 0.06649q0.15707 0 0.26596-0.090581t0.14743-0.26885z"/>
  <path d="m-14.599 3.9935 0.54252-1.4127h0.2014l0.57817 1.4127h-0.21296l-0.16478-0.42785h-0.5907l-0.15514 0.42785zm0.40761-0.5801h0.47892l-0.14744-0.39123q-0.06745-0.17827-0.10022-0.29294-0.02698 0.13587-0.07613 0.26981z"/>
  <path d="m-13.135 3.9935v-1.4127h0.18694v1.246h0.69574v0.16671z"/>
  <path d="m-11.998 3.9935v-1.4127h0.18694v1.4127z"/>
  <path d="m-11.489 3.9935v-1.4127h0.52999q0.16189 0 0.25921 0.043363 0.09829 0.042399 0.15322 0.13202 0.05589 0.088653 0.05589 0.18598 0 0.090581-0.04915 0.17056-0.04914 0.079981-0.1484 0.12913 0.12816 0.037581 0.19658 0.12816 0.06938 0.090581 0.06938 0.21392 0 0.099253-0.0424 0.18502-0.04143 0.084799-0.10311 0.13105-0.06167 0.046254-0.15514 0.070345-0.09251 0.023127-0.22742 0.023127zm0.18694-0.81908h0.30547q0.12431 0 0.17827-0.016382 0.07131-0.0212 0.10696-0.070345 0.03662-0.049145 0.03662-0.12334 0-0.070345-0.03373-0.12334-0.03373-0.053963-0.09636-0.073235-0.06264-0.020236-0.21489-0.020236h-0.28234zm0 0.65237h0.35172q0.09058 0 0.1272-0.00675 0.06456-0.011563 0.10792-0.038545t0.07131-0.078054q0.02795-0.052036 0.02795-0.11949 0-0.079017-0.04047-0.13683-0.04047-0.058781-0.11274-0.081908-0.07131-0.024091-0.20622-0.024091h-0.32667z"/>
  <path d="m-10.162 3.9935v-1.4127h0.62635q0.18887 0 0.28716 0.038545 0.09829 0.037581 0.15707 0.13394 0.058781 0.096362 0.058781 0.21296 0 0.15033-0.097326 0.25343-0.097326 0.10311-0.30065 0.13105 0.074199 0.035654 0.11274 0.070345 0.081908 0.075163 0.15514 0.18791l0.24572 0.38449h-0.23512l-0.18694-0.29391q-0.081908-0.1272-0.13491-0.19465-0.052999-0.067454-0.095399-0.094435-0.041436-0.026981-0.084799-0.037581-0.0318-0.00675-0.10407-0.00675h-0.21681v0.62732zm0.18694-0.78921h0.40183q0.12816 0 0.20043-0.026018 0.072272-0.026981 0.10985-0.084799 0.037581-0.058781 0.037581-0.1272 0-0.10022-0.073235-0.16478-0.072272-0.064563-0.22934-0.064563h-0.44712z"/>
  <path d="m-8.7362 3.9935v-1.4127h1.0214v0.16671h-0.8345v0.43267h0.7815v0.16574h-0.7815v0.48085h0.86726v0.16671z"/>
 </g>
 <g transform="matrix(0 -.8846 1.1305 0 0 0)" fill="url(#radialGradient45021)" stroke-width=".26458" aria-label="CALIBRE">
  <path d="m-14.861 3.4982 0.18694 0.047217q-0.05878 0.23031-0.212 0.35172-0.15225 0.12045-0.37292 0.12045-0.22838 0-0.37196-0.092508-0.14262-0.093471-0.21778-0.26981-0.0742-0.17634-0.0742-0.3787 0-0.22067 0.08384-0.38449 0.0848-0.16478 0.23994-0.24958 0.15611-0.085762 0.34305-0.085762 0.212 0 0.35654 0.10793t0.2014 0.30354l-0.18405 0.043363q-0.04914-0.15418-0.14262-0.22452-0.09347-0.070345-0.23512-0.070345-0.16285 0-0.2727 0.078053-0.10889 0.078053-0.15322 0.21007-0.04433 0.13105-0.04433 0.27078 0 0.1802 0.05204 0.3151 0.053 0.13394 0.16382 0.20043t0.23994 0.06649q0.15707 0 0.26596-0.090581t0.14743-0.26885z"/>
  <path d="m-14.599 3.9935 0.54252-1.4127h0.2014l0.57817 1.4127h-0.21296l-0.16478-0.42785h-0.5907l-0.15514 0.42785zm0.40761-0.5801h0.47892l-0.14744-0.39123q-0.06745-0.17827-0.10022-0.29294-0.02698 0.13587-0.07613 0.26981z"/>
  <path d="m-13.135 3.9935v-1.4127h0.18694v1.246h0.69574v0.16671z"/>
  <path d="m-11.998 3.9935v-1.4127h0.18694v1.4127z"/>
  <path d="m-11.489 3.9935v-1.4127h0.52999q0.16189 0 0.25921 0.043363 0.09829 0.042399 0.15322 0.13202 0.05589 0.088653 0.05589 0.18598 0 0.090581-0.04915 0.17056-0.04914 0.079981-0.1484 0.12913 0.12816 0.037581 0.19658 0.12816 0.06938 0.090581 0.06938 0.21392 0 0.099253-0.0424 0.18502-0.04143 0.084799-0.10311 0.13105-0.06167 0.046254-0.15514 0.070345-0.09251 0.023127-0.22742 0.023127zm0.18694-0.81908h0.30547q0.12431 0 0.17827-0.016382 0.07131-0.0212 0.10696-0.070345 0.03662-0.049145 0.03662-0.12334 0-0.070345-0.03373-0.12334-0.03373-0.053963-0.09636-0.073235-0.06264-0.020236-0.21489-0.020236h-0.28234zm0 0.65237h0.35172q0.09058 0 0.1272-0.00675 0.06456-0.011563 0.10792-0.038545t0.07131-0.078054q0.02795-0.052036 0.02795-0.11949 0-0.079017-0.04047-0.13683-0.04047-0.058781-0.11274-0.081908-0.07131-0.024091-0.20622-0.024091h-0.32667z"/>
  <path d="m-10.162 3.9935v-1.4127h0.62635q0.18887 0 0.28716 0.038545 0.09829 0.037581 0.15707 0.13394 0.058781 0.096362 0.058781 0.21296 0 0.15033-0.097326 0.25343-0.097326 0.10311-0.30065 0.13105 0.074199 0.035654 0.11274 0.070345 0.081908 0.075163 0.15514 0.18791l0.24572 0.38449h-0.23512l-0.18694-0.29391q-0.081908-0.1272-0.13491-0.19465-0.052999-0.067454-0.095399-0.094435-0.041436-0.026981-0.084799-0.037581-0.0318-0.00675-0.10407-0.00675h-0.21681v0.62732zm0.18694-0.78921h0.40183q0.12816 0 0.20043-0.026018 0.072272-0.026981 0.10985-0.084799 0.037581-0.058781 0.037581-0.1272 0-0.10022-0.073235-0.16478-0.072272-0.064563-0.22934-0.064563h-0.44712z"/>
  <path d="m-8.7362 3.9935v-1.4127h1.0214v0.16671h-0.8345v0.43267h0.7815v0.16574h-0.7815v0.48085h0.86726v0.16671z"/>
 </g>
 <rect transform="rotate(-8.8555)" x="6.9712" y="5.0636" width="1.7788" height=".83407" fill="#6b5756"/>
 <path d="m3.9264 0.92603c-1.662 0-3.0003 1.3383-3.0003 3.0003v9.0809c0 1.662 1.3383 2.9998 3.0003 2.9998h9.0809c1.662 0 2.9998-1.3378 2.9998-2.9998v-9.0809c0-1.662-1.3378-3.0003-2.9998-3.0003zm0.36277 0.60306h8.3549c1.5291 0 2.7601 1.231 2.7601 2.7601v8.3549c0 1.5291-1.231 2.7601-2.7601 2.7601h-8.3549c-1.5291 0-2.7601-1.231-2.7601-2.7601v-8.3549c0-1.5291 1.231-2.7601 2.7601-2.7601z" fill="#eceff4" opacity=".1" stroke-linecap="round" stroke-linejoin="round" stroke-width="1.2274"/>
</svg>
