<svg width="64" height="64" version="1.1" viewBox="0 0 16.933 16.933" xmlns="http://www.w3.org/2000/svg" xmlns:xlink="http://www.w3.org/1999/xlink">
 <defs>
  <filter id="filter1178" x="-.047999" y="-.047999" width="1.096" height="1.096" color-interpolation-filters="sRGB">
   <feGaussianBlur stdDeviation="0.30691668"/>
  </filter>
  <linearGradient id="linearGradient1340" x1="8.6644" x2="8.6644" y1="15.931" y2=".79375" gradientUnits="userSpaceOnUse">
   <stop stop-color="#5e81ac" offset="0"/>
   <stop stop-color="#88c0d0" offset="1"/>
  </linearGradient>
  <linearGradient id="linearGradient3534">
   <stop offset="0"/>
   <stop stop-opacity="0" offset="1"/>
  </linearGradient>
  <linearGradient id="linearGradient3650">
   <stop stop-color="#4b4b4b" offset="0"/>
   <stop stop-color="#4b4b4b" stop-opacity="0" offset="1"/>
  </linearGradient>
  <linearGradient id="linearGradient3641">
   <stop stop-color="#fff" offset="0"/>
   <stop stop-color="#e5e5e5" offset="1"/>
  </linearGradient>
  <linearGradient id="linearGradient3194">
   <stop stop-color="#fff" offset="0"/>
   <stop stop-color="#fff" stop-opacity="0" offset="1"/>
  </linearGradient>
  <filter id="filter3523" x="-.0648" y="-.324" width="1.1296" height="1.648" color-interpolation-filters="sRGB">
   <feGaussianBlur stdDeviation="0.27"/>
  </filter>
  <clipPath id="clipPath3451">
   <path d="m62.656 4c-0.98341 0-1.7812 0.79784-1.7812 1.7812v2.25c-0.48866 0.066098-0.875 0.46168-0.875 0.96875v48c0 0.55317 0.44683 1 1 1-0.55317 0-1 0.44683-1 1v52l1 31c0 0.55317 0.44683 1 1 1h6c0.55317 0 1-0.44683 1-1l1-31v-52c0-0.55317-0.44683-1-1-1 0.55317 0 1-0.44683 1-1v-48c0-0.55317-0.44683-1-1-1v-2.2188c0-0.98341-0.79784-1.7812-1.7812-1.7812h-4.5625z" opacity=".705"/>
  </clipPath>
  <filter id="filter3360" x="-.38626" y="-.027788" width="1.7725" height="1.0556" color-interpolation-filters="sRGB">
   <feGaussianBlur stdDeviation="0.745"/>
  </filter>
  <clipPath id="clipPath3344">
   <path d="m62.656 4c-0.98341 0-1.7812 0.79784-1.7812 1.7812v2.25c-0.48866 0.066098-0.875 0.46168-0.875 0.96875v48c0 0.55317 0.44683 1 1 1-0.55317 0-1 0.44683-1 1v52l1 31c0 0.55317 0.44683 1 1 1h6c0.55317 0 1-0.44683 1-1l1-31v-52c0-0.55317-0.44683-1-1-1 0.55317 0 1-0.44683 1-1v-48c0-0.55317-0.44683-1-1-1v-2.2188c0-0.98341-0.79784-1.7812-1.7812-1.7812h-4.5625z" opacity=".31"/>
  </clipPath>
  <clipPath id="clipPath3611">
   <path d="m89 7-84 18 19 99 66-14 18-6-3.1309-19.241-15.869-77.759z" fill-rule="evenodd"/>
  </clipPath>
  <filter id="filter3627" x="-.029626" y="-.044236" width="1.0593" height="1.0885" color-interpolation-filters="sRGB">
   <feGaussianBlur stdDeviation="1.6272834"/>
  </filter>
  <filter id="filter3361" x="-.059533" y="-.053061" width="1.1191" height="1.1061" color-interpolation-filters="sRGB">
   <feGaussianBlur stdDeviation="2.2148613"/>
  </filter>
  <filter id="filter3678" x="-.4236" y="-.4236" width="1.8472" height="1.8472" color-interpolation-filters="sRGB">
   <feGaussianBlur stdDeviation="1.3924326"/>
  </filter>
  <radialGradient id="radialGradient3496" cx="48.311" cy="33.129" r="51.5" fx="15.957" fy="45.863" gradientTransform="matrix(.097487 .16885 -.19272 .11127 15.126 .31504)" gradientUnits="userSpaceOnUse">
   <stop stop-color="#fafafa" offset="0"/>
   <stop stop-color="#fafafa" offset=".5"/>
   <stop stop-color="#eee" offset="1"/>
  </radialGradient>
  <linearGradient id="linearGradient3498" x1="59.14" x2="107.97" y1="108.25" y2="74.752" gradientUnits="userSpaceOnUse" xlink:href="#linearGradient3534"/>
  <linearGradient id="linearGradient3500" x1="105.81" x2="95.146" y1="102.51" y2="96.353" gradientTransform="matrix(.091811 0 0 .091811 25.081 1.1596)" gradientUnits="userSpaceOnUse" xlink:href="#linearGradient3194"/>
  <linearGradient id="linearGradient3502" x1="34.994" x2="11.875" y1="52.387" y2="62.297" gradientTransform="matrix(.091811 0 0 .091811 25.265 1.1596)" gradientUnits="userSpaceOnUse" xlink:href="#linearGradient3534"/>
  <radialGradient id="radialGradient3506" cx="69.029" cy="100.39" r="3.9445" fx="67.564" fy="100.63" gradientUnits="userSpaceOnUse" xlink:href="#linearGradient3534"/>
  <linearGradient id="linearGradient3508" x1="28" x2="32" y1="42" y2="42" gradientTransform="matrix(.11355 -.016643 .016643 .11355 1.233 6.33)" gradientUnits="userSpaceOnUse" xlink:href="#linearGradient3641"/>
  <linearGradient id="linearGradient3510" x1="26.919" x2="31.961" y1="37.049" y2="43.625" gradientTransform="matrix(.09084 -.013314 .013314 .09084 2.054 7.1839)" gradientUnits="userSpaceOnUse" xlink:href="#linearGradient3650"/>
  <linearGradient id="linearGradient3532" x1="65.349" x2="72.1" y1="58" y2="58" gradientUnits="userSpaceOnUse" spreadMethod="reflect" xlink:href="#linearGradient3534"/>
  <linearGradient id="linearGradient2304" x1="62" x2="70.922" y1="153.77" y2="144.84" gradientTransform="matrix(.055423 .036535 -.036535 .055423 33.166 -.54194)" gradientUnits="userSpaceOnUse" xlink:href="#linearGradient3194"/>
  <linearGradient id="linearGradient2307" x1="61.001" x2="60.5" y1="31.586" y2="31.586" gradientTransform="matrix(.055423 .036535 -.0045669 .0069279 32.851 -.0040773)" gradientUnits="userSpaceOnUse">
   <stop stop-opacity="0" offset="0"/>
   <stop stop-color="#080808" offset="1"/>
  </linearGradient>
  <linearGradient id="linearGradient2310" x1="59.515" x2="62.331" y1="26.312" y2="26.312" gradientTransform="matrix(.083135 .054803 -.036535 .055423 31.585 -1.8225)" gradientUnits="userSpaceOnUse" spreadMethod="reflect">
   <stop stop-color="#ececec" offset="0"/>
   <stop stop-color="#080808" offset="1"/>
  </linearGradient>
  <radialGradient id="radialGradient2313" cx="59.373" cy="49.395" r="1.5" fx="58.936" fy="50.038" gradientTransform="matrix(.087067 .050268 -.11729 .20316 35.245 -8.6069)" gradientUnits="userSpaceOnUse">
   <stop stop-color="#404040" offset="0"/>
   <stop stop-color="#efefef" offset="1"/>
  </radialGradient>
  <linearGradient id="linearGradient2317" x1="64.756" x2="64.756" y1="139.99" y2="142.3" gradientTransform="matrix(.055423 .036535 -.036535 .055423 33.166 -.54194)" gradientUnits="userSpaceOnUse">
   <stop stop-color="#323232" offset="0"/>
   <stop stop-color="#323232" stop-opacity="0" offset="1"/>
  </linearGradient>
  <linearGradient id="linearGradient2320" x1="65" x2="74.249" y1="8" y2="8" gradientTransform="matrix(.055423 .036535 -.036535 .055423 33.276 -.7082)" gradientUnits="userSpaceOnUse" spreadMethod="reflect">
   <stop stop-color="#fff" offset="0"/>
   <stop offset="1"/>
  </linearGradient>
  <linearGradient id="linearGradient2326" x1="63.994" x2="63.994" y1="58" y2="56.996" gradientTransform="matrix(.055423 .036535 .036535 -.055423 29.038 5.7209)" gradientUnits="userSpaceOnUse" xlink:href="#linearGradient3534"/>
  <linearGradient id="linearGradient2329" x1="63.994" x2="63.994" y1="58" y2="56.996" gradientTransform="matrix(.055423 .036535 -.036535 .055423 33.276 -.7082)" gradientUnits="userSpaceOnUse" xlink:href="#linearGradient3534"/>
  <linearGradient id="linearGradient2332" x1="60.02" x2="65.489" y1="73.639" y2="73.674" gradientTransform="matrix(.055423 .036535 -.036535 .055423 33.276 -.7082)" gradientUnits="userSpaceOnUse">
   <stop stop-color="#fff" stop-opacity="0" offset="0"/>
   <stop stop-color="#fff" offset=".5"/>
   <stop stop-color="#fff" stop-opacity="0" offset="1"/>
  </linearGradient>
  <linearGradient id="linearGradient2336" x1="70" x2="68.223" y1="70.141" y2="70.141" gradientTransform="matrix(.055423 .036535 -.036535 .055423 33.276 -.7082)" gradientUnits="userSpaceOnUse" xlink:href="#linearGradient3534"/>
  <linearGradient id="linearGradient2339" x1="65.73" x2="70.036" y1="74.085" y2="74.085" gradientTransform="matrix(.055423 .036535 -.036535 .055423 33.276 -.7082)" gradientUnits="userSpaceOnUse" spreadMethod="reflect" xlink:href="#linearGradient3534"/>
  <linearGradient id="linearGradient2343" x1="63.491" x2="73.839" y1="148.68" y2="150.8" gradientTransform="matrix(.055423 .036535 -.036535 .055423 33.166 -.54194)" gradientUnits="userSpaceOnUse">
   <stop stop-color="#c0c0c0" offset="0"/>
   <stop stop-color="#4b4b4b" offset="1"/>
  </linearGradient>
  <linearGradient id="linearGradient2346" x1="61.768" x2="71.775" y1="73.5" y2="73.5" gradientTransform="matrix(.055423 .036535 -.036535 .055423 33.276 -.7082)" gradientUnits="userSpaceOnUse">
   <stop stop-color="#eaeaea" offset="0"/>
   <stop stop-color="#f2f2f2" offset=".22222"/>
   <stop stop-color="#d0d0d0" offset=".75"/>
   <stop stop-color="#dcdcdc" offset="1"/>
  </linearGradient>
  <linearGradient id="linearGradient1253" x1="28" x2="32" y1="42" y2="42" gradientTransform="matrix(.11355 -.016643 .016643 .11355 .833 3.6047)" gradientUnits="userSpaceOnUse" xlink:href="#linearGradient3641"/>
  <linearGradient id="linearGradient1255" x1="26.919" x2="31.961" y1="37.049" y2="43.625" gradientTransform="matrix(.09084 -.013314 .013314 .09084 1.654 4.4587)" gradientUnits="userSpaceOnUse" xlink:href="#linearGradient3650"/>
 </defs>
 <g stroke-linecap="round" stroke-linejoin="round">
  <rect transform="matrix(.99138 0 0 1 .072989 .0019055)" x=".79375" y=".90545" width="15.346" height="15.346" rx="3.0526" ry="3.0526" fill="#000000" filter="url(#filter1178)" opacity=".15" stroke-width="1.2489" style="mix-blend-mode:normal"/>
  <rect x=".92604" y=".92604" width="15.081" height="15.081" rx="3" ry="3" fill="url(#linearGradient1340)" stroke-width="1.2274"/>
  <rect x=".01215" y=".0060174" width="16.924" height="16.927" fill="none" opacity=".15" stroke-width="1.052"/>
 </g>
 <path transform="matrix(.091811 0 0 .091811 3.164 2.4643)" d="m89.021 6.9083-84 18 19 99 84.986-17.831z" fill-rule="evenodd" filter="url(#filter3361)" opacity=".515" stroke="#000" stroke-width="1.5"/>
 <path d="m11.337 3.0986-7.7121 1.6526 1.7444 9.0893 6.0595-1.2854 1.6526-0.55087-0.28745-1.7666z" fill="none" stroke="#fff" stroke-width=".18362"/>
 <path d="m11.337 3.0986-7.7121 1.6526 1.7444 9.0893 6.0595-1.2854 1.6526-0.55087-0.28745-1.7666z" fill="url(#radialGradient3496)" fill-rule="evenodd"/>
 <path transform="matrix(.075426 0 0 .075426 4.791 3.3768)" d="m179.84 23.231c-0.52861-0.21683-1.149-0.14267-1.6602 0.19759l-1.8737 1.2332c-0.32549-0.36982-0.89159-0.4767-1.3133-0.19598l-3.3182 2.1978-1.107-1.64-36.582 24.367 0.55349 0.82002 10.025-5.4827-9.4713 6.3027c-0.46005 0.30624-0.57277 0.91345-0.26653 1.3735-0.30625-0.46007-0.91345-0.57276-1.3735-0.26653l-43.273 28.784-25.237 18.002c-0.46007 0.30624-0.57276 0.91347-0.26655 1.3735l0.49331 0.74948-9.1091 4.3842c-0.27809 1.3853-2.2006 3.889-4.4189 5.9656 4.1571-0.96687 6.3603-1.2427 8.2991-0.13292l7.5088-6.7737 0.55347 0.82003c0.30623 0.46005 0.91346 0.57277 1.3735 0.26653l26.328-16.323 43.273-28.784c0.46002-0.30624 0.57275-0.91345 0.26653-1.3735 0.30621 0.46006 0.91345 0.57276 1.3735 0.26653l39.954-26.586c0.46004-0.30624 0.57276-0.91345 0.26652-1.3735l1.8355-1.2494c0.81789-0.54441 1.0406-1.6294 0.4962-2.4473l-2.5267-3.8179c-0.20413-0.30671-0.48614-0.52549-0.80329-0.65559z" clip-path="url(#clipPath3611)" fill="url(#linearGradient3498)" filter="url(#filter3627)" opacity=".32"/>
 <g transform="translate(-22.099,1.2963)" fill-rule="evenodd">
  <path d="m33.528 11.259 1.6526-0.55087-0.28745-1.7666z" fill="url(#linearGradient3500)"/>
  <path d="m26.975 3.1881-1.2509 0.26683 1.7444 9.0893 1.2509-0.26683z" fill="url(#linearGradient3502)" opacity=".01"/>
  <path d="m27.021 3.1881-0.03156 0.00574 1.7444 9.0893 0.03156-0.0057z" fill="#fff" opacity=".235"/>
  <path d="m26.975 3.1881-0.03156 0.00574 1.7444 9.0893 0.03156-0.0057z" fill="#bbc3cd" opacity=".235"/>
 </g>
 <g fill="#2e3440">
  <path d="m6.0785 7.3836 0.03779 0.17206 5.3262-1.1626-0.05165-0.16598z" opacity=".5"/>
  <path d="m6.1898 7.8756 0.03779 0.17206 5.3262-1.1626-0.05165-0.16598z" opacity=".5"/>
  <path d="m6.25 8.2241 0.03779 0.17206 4.5722-1.0143-0.05165-0.16598z" opacity=".5"/>
  <path d="m6.3192 8.5532 0.03779 0.17206 1.371-0.30975-0.05165-0.16598z" opacity=".5"/>
  <path d="m6.3992 8.9844 0.03779 0.17206 5.3262-1.1626-0.05165-0.16598z" opacity=".5"/>
  <path d="m6.4717 9.3329 0.03779 0.17206 4.5722-1.0143-0.05165-0.16598z" opacity=".5"/>
  <path d="m6.56 9.8427 0.03779 0.17206 5.3262-1.1626-0.05165-0.16598z" opacity=".5"/>
  <path d="m6.6326 10.191 0.03779 0.17206 4.5722-1.0143-0.05165-0.16598z" opacity=".5"/>
  <path d="m6.7018 10.52 0.03779 0.17206 2.1868-0.47043-0.05165-0.16598z" opacity=".5"/>
 </g>
 <path d="m8.7642 5.4952 0.01307 0.13498 2.4755-0.52036-0.02693-0.1289z" fill="#2e3440" opacity=".2"/>
 <path d="m10.606 3.1588-1.162 0.24961c0.21685 0.15381 0.37004 0.35606 0.50496 0.65702 0.21356 0.4764 0.29779 1.1544 0.25822 1.9653-0.05824 1.0013-0.28951 2.0807-0.91524 4.1946-0.19079-0.51261-0.31959-0.85926-0.37298-0.97836l-0.61972-1.555c-0.21132-0.52941-0.46585-1.1845-0.75744-1.951-0.10454-0.29121-0.20884-0.58011-0.32421-0.86647l-0.51644 0.53078c-0.11947 1.0678-0.75033 4.703-1.0673 6.1714-0.27404-0.93039-0.91974-3.499-1.2423-4.9148 0.1934-0.17772 0.28906-0.31253 0.40741-0.59964-0.3914 0.18033-0.6557 0.30305-0.92385 0.4275l1.3341 6.9461 0.5853-0.51357c0.56263-3.0088 0.71396-3.8289 1.1075-6.2288 0.56078 1.309 1.6555 4.0666 1.9998 5.0955l0.59103-0.53652c0.11574-0.72804 0.16103-0.9715 0.47053-2.1375 0.89551-3.3369 1.072-4.8969 0.64268-5.9562z" fill="#a3be8c"/>
 <path transform="matrix(.11361 -.11361 .053559 .053559 -3.923 13.91)" d="m72.974 100.39a3.9446 3.9446 0 1 1-7.8891 0 3.9446 3.9446 0 1 1 7.8891 0z" fill="url(#radialGradient3506)" filter="url(#filter3678)"/>
 <path d="m5.166 7.8413a0.22953 0.22953 0 1 1-0.4542 0.066572 0.22953 0.22953 0 1 1 0.4542-0.066572z" fill="url(#linearGradient1253)"/>
 <path d="m5.121 7.8479a0.18362 0.18362 0 1 1-0.36336 0.053257 0.18362 0.18362 0 1 1 0.36336-0.053257z" fill="url(#linearGradient1255)"/>
 <path d="m5.565 10.566a0.22953 0.22953 0 1 1-0.4542 0.066572 0.22953 0.22953 0 1 1 0.4542-0.066572z" fill="url(#linearGradient3508)"/>
 <path d="m5.52 10.573a0.18362 0.18362 0 1 1-0.36336 0.053257 0.18362 0.18362 0 1 1 0.36336-0.053257z" fill="url(#linearGradient3510)"/>
 <path d="m11.367 3.0443-7.7902 1.6693 1.7621 9.1812 6.1209-1.2984 1.6693-0.55644-0.29036-1.7844z" fill="none" opacity=".5" stroke="#fff" stroke-width=".091811px"/>
 <g transform="translate(-22.099,1.2963)">
  <path d="m36.602 1.8026c-0.0545-0.035929-0.12787-0.02086-0.1638 0.033644l-0.0822 0.1247c-0.0295-0.01419-0.06536-0.00638-0.08389 0.021723l-1.7537 2.6603c-0.02021 0.030658-0.01177 0.071748 0.01889 0.091958-0.03066-0.02021-0.07175-0.01177-0.09196 0.018888l-1.8998 2.882-1.0772 1.7546c-0.02021 0.030658-0.01177 0.071748 0.01889 0.091958l0.33254 0.21921c0.03066 0.02021 0.07175 0.011771 0.09196-0.018888l1.188-1.6816 1.8998-2.882c0.02021-0.030659 0.01177-0.071748-0.01889-0.091958 0.03066 0.02021 0.07175 0.01177 0.09196-0.018888l1.7537-2.6603c0.02021-0.030658 0.01177-0.071748-0.01889-0.091958l0.08106-0.12297c0.03593-0.054504 0.02086-0.12787-0.03364-0.1638z" fill="url(#linearGradient2346)"/>
  <path d="m31.536 9.5147 0.22818 0.15042-0.28222 0.60903c-0.14738-0.01765-0.27588 0.05666-0.50515 0.22355 0.08189-0.18454 0.13608-0.38734 0.11719-0.4793z" fill="url(#linearGradient2343)"/>
  <rect transform="rotate(33.393)" x="31.376" y="-17.976" width=".66382" height=".33191" opacity=".14"/>
  <path d="m36.602 1.8026c-0.0545-0.035929-0.12787-0.02086-0.1638 0.033644l-0.0822 0.1247c-0.0295-0.01419-0.06536-0.00638-0.08389 0.021723l-1.7537 2.6603c-0.02021 0.030658-0.01177 0.071748 0.01889 0.091958-0.03066-0.02021-0.07175-0.01177-0.09196 0.018888l-1.8998 2.882-1.0772 1.7546c-0.02021 0.030658-0.01177 0.071748 0.01889 0.091958l0.33254 0.21921c0.03066 0.02021 0.07175 0.011771 0.09196-0.018888l1.188-1.6816 1.8998-2.882c0.02021-0.030659 0.01177-0.071748-0.01889-0.091958 0.03066 0.02021 0.07175 0.01177 0.09196-0.018888l1.7537-2.6603c0.02021-0.030658 0.01177-0.071748-0.01889-0.091958l0.08106-0.12297c0.03593-0.054504 0.02086-0.12787-0.03364-0.1638z" fill="url(#linearGradient2339)" opacity=".31"/>
  <path d="m36.744 1.8963c0.0545 0.035929 0.06957 0.1093 0.03364 0.1638l-0.08106 0.12297c0.03066 0.02021 0.0391 0.0613 0.01889 0.091958l-1.7537 2.6603c-0.02021 0.030658-0.0613 0.039098-0.09196 0.018888 0.03066 0.02021 0.0391 0.0613 0.01889 0.091958l-1.8998 2.882-1.188 1.6816c-0.02021 0.030658-0.0613 0.039098-0.09196 0.018888l0.11085 0.07307c0.03066 0.02021 0.07175 0.011771 0.09196-0.018888l1.188-1.6816 1.8998-2.882c0.02021-0.030659 0.01177-0.071748-0.01889-0.091958 0.03066 0.02021 0.07175 0.01177 0.09196-0.018888l1.7537-2.6603c0.02021-0.030658 0.01177-0.071748-0.01889-0.091958l0.08106-0.12297c0.03593-0.054504 0.02086-0.12787-0.03364-0.1638z" fill="url(#linearGradient2336)" opacity=".32"/>
 </g>
 <path transform="matrix(.055423 .036535 -.036535 .055423 11.177 .5881)" d="m62.656 4c-0.98341 0-1.7812 0.79784-1.7812 1.7812v2.25c-0.48866 0.066098-0.875 0.46168-0.875 0.96875v48c0 0.55317 0.44683 1 1 1-0.55317 0-1 0.44683-1 1v52l1 31c0 0.55317 0.44683 1 1 1h6c0.55317 0 1-0.44683 1-1l1-31v-52c0-0.55317-0.44683-1-1-1 0.55317 0 1-0.44683 1-1v-48c0-0.55317-0.44683-1-1-1v-2.2188c0-0.98341-0.79784-1.7812-1.7812-1.7812z" clip-path="url(#clipPath3344)" fill="none" filter="url(#filter3360)" opacity=".31" stroke="#000" stroke-width="4.1492"/>
 <g transform="translate(-22.099,1.2963)">
  <path d="m36.602 1.8026c-0.0545-0.035929-0.12787-0.02086-0.1638 0.033644l-0.0822 0.1247c-0.0295-0.01419-0.06536-0.00638-0.08389 0.021723l-1.7537 2.6603c-0.02021 0.030658-0.01177 0.071748 0.01889 0.091958-0.03066-0.02021-0.07175-0.01177-0.09196 0.018888l-1.8998 2.882-1.0772 1.7546c-0.02021 0.030658-0.01177 0.071748 0.01889 0.091958l0.33254 0.21921c0.03066 0.02021 0.07175 0.011771 0.09196-0.018888l1.188-1.6816 1.8998-2.882c0.02021-0.030659 0.01177-0.071748-0.01889-0.091958 0.03066 0.02021 0.07175 0.01177 0.09196-0.018888l1.7537-2.6603c0.02021-0.030658 0.01177-0.071748-0.01889-0.091958l0.08106-0.12297c0.03593-0.054504 0.02086-0.12787-0.03364-0.1638z" fill="url(#linearGradient2332)" opacity=".705"/>
  <path d="m34.519 4.643c-0.02021 0.030658-0.01177 0.071748 0.01889 0.091958l0.44338 0.29228c0.03066 0.02021 0.07175 0.01177 0.09196-0.018888z" fill="url(#linearGradient2329)" opacity=".4"/>
  <path d="m34.446 4.7539c0.02021-0.030658 0.0613-0.039098 0.09196-0.018888l0.44338 0.29228c0.03066 0.02021 0.0391 0.0613 0.01889 0.091958z" fill="url(#linearGradient2326)" opacity=".4"/>
  <path transform="matrix(.055423 .036535 -.036535 .055423 33.276 -.7082)" d="m60 57c0 0.55317 0.44683 1 1 1-0.55317 0-1 0.44683-1 1h10c0-0.55317-0.44683-1-1-1 0.55317 0 1-0.44683 1-1z" clip-path="url(#clipPath3451)" fill="url(#linearGradient3532)" filter="url(#filter3523)" opacity=".525"/>
  <path d="m36.071 2.1679-1.6075 2.4386 0.05542 0.036535 0.95116-1.2017 0.7307-1.1085c-0.03062-0.020183-0.09448-0.0979-0.07431-0.12849z" opacity=".175"/>
  <rect transform="rotate(33.393)" x="31.376" y="-17.843" width=".66382" height=".066382" fill="#fff" opacity=".6"/>
  <path d="m36.808 2.2561-0.45145-0.29512c-0.0295-0.01419-0.06536-0.00638-0.08389 0.021723l-0.03654 0.055423c0.01853-0.028103 0.05439-0.035913 0.08389-0.021723l0.45145 0.29512c0.03066 0.02021 0.0391 0.0613 0.01889 0.091958l0.03654-0.055423c0.02021-0.030658 0.01177-0.071748-0.01889-0.091958z" fill="url(#linearGradient2320)" opacity=".705"/>
  <path d="m31.536 9.5144-0.04155 0.051085 0.2096 0.22224 0.06057-0.12262z" fill="url(#linearGradient2317)" opacity=".625"/>
  <path d="m31.312 9.9896c-0.02494-0.016438-0.05828-0.00959-0.07472 0.015346-0.01312 0.0199-0.01014 0.04431 0.0038 0.06212l-0.24661 0.3741-0.0044 0.03685 0.03212-0.01858 0.24661-0.37411c0.02185 0.0058 0.04546-0.0011 0.05858-0.02102 0.01644-0.02494 0.0096-0.05828-0.01535-0.074716z" opacity=".365"/>
  <path d="m34.719 4.2185c-0.02004-0.013209-0.04558-0.016156-0.07255-0.010556l-0.22149 0.336c0.0055 0.026993 0.01826 0.049305 0.0383 0.062515 0.06119 0.040335 0.16813-0.013833 0.23872-0.12091 0.07059-0.10708 0.07821-0.22672 0.01703-0.26705z" fill="url(#radialGradient2313)"/>
  <path d="m36.015 2.1313-1.6075 2.4386 0.05542 0.036535 0.95115-1.2017 0.7307-1.1085c-0.03062-0.020183-0.03906-0.061365-0.01889-0.091958z" fill="url(#linearGradient2310)"/>
  <path d="m36.145 2.2964-0.18268 0.27712 0.02771 0.018268 0.18268-0.27712z" fill="url(#linearGradient2307)" opacity=".335"/>
  <path d="m31.536 9.5144-0.44156 0.504c0.01889 0.09196-0.03529 0.29476-0.11719 0.4793 0.07006-0.051 0.12394-0.08992 0.17026-0.11883 0.02661-0.04995 0.05771-0.09885 0.09071-0.14891 0.11947-0.18124 0.36782-0.49272 0.49868-0.58311z" fill="url(#linearGradient2304)" opacity=".63"/>
 </g>
</svg>
