<?xml version="1.0" encoding="UTF-8" standalone="no"?>
<svg
   width="64"
   height="64"
   version="1.1"
   viewBox="0 0 16.933 16.933"
   id="svg20"
   sodipodi:docname="citrix-receiver.svg"
   inkscape:version="1.1.2 (1:1.1+202202050950+0a00cf5339)"
   xmlns:inkscape="http://www.inkscape.org/namespaces/inkscape"
   xmlns:sodipodi="http://sodipodi.sourceforge.net/DTD/sodipodi-0.dtd"
   xmlns:xlink="http://www.w3.org/1999/xlink"
   xmlns="http://www.w3.org/2000/svg"
   xmlns:svg="http://www.w3.org/2000/svg">
  <sodipodi:namedview
     id="namedview22"
     pagecolor="#505050"
     bordercolor="#eeeeee"
     borderopacity="1"
     inkscape:pageshadow="0"
     inkscape:pageopacity="0"
     inkscape:pagecheckerboard="0"
     showgrid="false"
     inkscape:zoom="12.984375"
     inkscape:cx="32"
     inkscape:cy="31.961492"
     inkscape:window-width="2560"
     inkscape:window-height="1358"
     inkscape:window-x="0"
     inkscape:window-y="0"
     inkscape:window-maximized="1"
     inkscape:current-layer="svg20" />
  <defs
     id="defs10">
    <linearGradient
       inkscape:collect="always"
       id="linearGradient1362">
      <stop
         style="stop-color:#d8dee9;stop-opacity:1"
         offset="0"
         id="stop1358" />
      <stop
         style="stop-color:#eceff4;stop-opacity:1"
         offset="1"
         id="stop1360" />
    </linearGradient>
    <filter
       id="filter1178"
       x="-0.047999482"
       y="-0.047999482"
       width="1.095999"
       height="1.095999"
       color-interpolation-filters="sRGB">
      <feGaussianBlur
         stdDeviation="0.30691668"
         id="feGaussianBlur2" />
    </filter>
    <linearGradient
       id="linearGradient1340"
       x1="8.6644"
       x2="8.6644"
       y1="15.931"
       y2=".79375"
       gradientUnits="userSpaceOnUse">
      <stop
         stop-color="#5e81ac"
         offset="0"
         id="stop5"
         style="stop-color:#5e81ac;stop-opacity:1" />
      <stop
         stop-color="#88c0d0"
         offset="1"
         id="stop7"
         style="stop-color:#88c0d0;stop-opacity:1" />
    </linearGradient>
    <linearGradient
       inkscape:collect="always"
       xlink:href="#linearGradient1362"
       id="linearGradient1364"
       x1="8.4618139"
       y1="13.704225"
       x2="8.4665003"
       y2="3.1749382"
       gradientUnits="userSpaceOnUse"
       gradientTransform="matrix(1.049999,0,0,1.049999,-0.4233399,-0.4233178)" />
    <filter
       inkscape:collect="always"
       style="color-interpolation-filters:sRGB"
       id="filter837"
       x="-0.058079891"
       y="-0.058080114"
       width="1.1161598"
       height="1.1161602">
      <feGaussianBlur
         inkscape:collect="always"
         stdDeviation="0.26891749"
         id="feGaussianBlur839" />
    </filter>
  </defs>
  <g
     stroke-linecap="round"
     stroke-linejoin="round"
     id="g18">
    <rect
       transform="matrix(0.99138,0,0,1,0.072989,2.4878e-7)"
       x="0.79374999"
       y="0.90544999"
       width="15.346"
       height="15.346"
       rx="3.0525999"
       ry="3.0525999"
       fill="#2e3440"
       filter="url(#filter1178)"
       opacity="0.2"
       stroke-width="1.2489"
       style="mix-blend-mode:normal"
       id="rect12" />
    <rect
       x="0.92603999"
       y="0.92603999"
       width="15.081"
       height="15.081"
       rx="3"
       ry="3"
       fill="url(#linearGradient1340)"
       stroke-width="1.2274"
       id="rect14" />
    <rect
       x="0.01215"
       y="0.0060174"
       width="16.924"
       height="16.927"
       fill="none"
       opacity="0.15"
       stroke-width="1.052"
       id="rect16" />
  </g>
  <path
     style="opacity:0.35;fill:#2e3440;stroke-width:0.277806;filter:url(#filter837)"
     d="m 8.4664776,2.9103643 a 0.55561349,0.55561349 0 0 0 -0.053172,0.00326 c -3.0373235,0.02904 -5.5029628,2.5088621 -5.5029628,5.5528767 0,3.061987 2.4941474,5.556135 5.5561349,5.556135 3.0432833,0 5.5226663,-2.464473 5.5528793,-5.5007908 a 0.55561349,0.55561349 0 0 0 0.0033,-0.055345 0.55561349,0.55561349 0 0 0 -0.555613,-0.5556135 0.55561349,0.55561349 0 0 0 -0.555613,0.5556135 c 0,2.4614358 -1.983473,4.4449088 -4.444908,4.4449088 -2.4614362,0 -4.4449081,-1.983473 -4.4449081,-4.4449088 0,-2.461436 1.9834719,-4.4449079 4.4449081,-4.4449079 A 0.55561349,0.55561349 0 0 0 9.0220912,3.4659779 0.55561349,0.55561349 0 0 0 8.4664776,2.9103643 Z m 0,2.2224541 a 0.55561349,0.55561349 0 0 0 -0.053172,0.00217 c -1.8100149,0.028928 -3.2805087,1.5148945 -3.2805087,3.331514 0,1.8345606 1.4991207,3.3336806 3.3336808,3.3336806 1.8158703,0 3.3003103,-1.469351 3.3304253,-3.2783364 a 0.55561349,0.55561349 0 0 0 0.0033,-0.055345 0.55561349,0.55561349 0 0 0 -0.555613,-0.5556134 0.55561349,0.55561349 0 0 0 -0.555613,0.5556134 c 0,1.2340082 -0.9884455,2.2224534 -2.222454,2.2224534 -1.2340087,0 -2.2224539,-0.9884452 -2.2224539,-2.2224534 0,-1.2340087 0.9884452,-2.2224539 2.2224539,-2.2224539 A 0.55561349,0.55561349 0 0 0 9.0220912,5.6884318 0.55561349,0.55561349 0 0 0 8.4664776,5.1328184 Z m 0,2.2224539 A 1.111227,1.111227 0 0 0 7.3552508,8.4664992 1.111227,1.111227 0 0 0 8.4664776,9.5777265 1.111227,1.111227 0 0 0 9.5777046,8.4664992 1.111227,1.111227 0 0 0 8.4664776,7.3552723 Z"
     id="path6" />
  <path
     style="fill:url(#linearGradient1364);fill-opacity:1;stroke-width:0.277806"
     d="m 8.4664776,2.9103641 a 0.55561353,0.55561353 0 0 0 -0.05317,0.00326 c -3.037324,0.029042 -5.502963,2.5088645 -5.502963,5.5528794 0,3.0619875 2.494148,5.5561365 5.556135,5.5561365 3.0432834,0 5.5226664,-2.464475 5.5528804,-5.5007925 a 0.55561353,0.55561353 0 0 0 0.0033,-0.055345 0.55561353,0.55561353 0 0 0 -0.555613,-0.5556136 0.55561353,0.55561353 0 0 0 -0.555613,0.5556136 c 0,2.4614355 -1.983473,4.4449085 -4.4449094,4.4449085 -2.461436,0 -4.444908,-1.983473 -4.444908,-4.4449085 0,-2.4614362 1.983472,-4.4449082 4.444908,-4.4449082 A 0.55561353,0.55561353 0 0 0 9.0220916,3.4659776 0.55561353,0.55561353 0 0 0 8.4664776,2.9103641 Z m 0,2.222454 a 0.55561353,0.55561353 0 0 0 -0.05317,0.00217 c -1.810015,0.028927 -3.280509,1.5148948 -3.280509,3.3315143 0,1.8345606 1.49912,3.3336816 3.333681,3.3336816 1.8158704,0 3.3003124,-1.469351 3.3304264,-3.2783375 a 0.55561353,0.55561353 0 0 0 0.0033,-0.055345 A 0.55561353,0.55561353 0 0 0 11.244594,7.910888 0.55561353,0.55561353 0 0 0 10.68898,8.4665015 c 0,1.2340085 -0.9884464,2.2224545 -2.2224544,2.2224545 -1.234009,0 -2.222455,-0.988446 -2.222455,-2.2224545 0,-1.2340088 0.988446,-2.2224541 2.222455,-2.2224541 A 0.55561353,0.55561353 0 0 0 9.0220916,5.6884317 0.55561353,0.55561353 0 0 0 8.4664776,5.1328181 Z m 0,2.2224542 a 1.1112271,1.1112271 0 0 0 -1.111227,1.1112271 1.1112271,1.1112271 0 0 0 1.111227,1.1112267 1.1112271,1.1112271 0 0 0 1.111226,-1.1112267 1.1112271,1.1112271 0 0 0 -1.111226,-1.1112271 z"
     id="path8" />
</svg>
