<svg width="64" height="64" version="1.1" viewBox="0 0 16.933 16.933" xmlns="http://www.w3.org/2000/svg">
 <defs>
  <filter id="filter1178" x="-.047999" y="-.047999" width="1.096" height="1.096" color-interpolation-filters="sRGB">
   <feGaussianBlur stdDeviation="0.30691668"/>
  </filter>
  <linearGradient id="linearGradient1340" x1="8.6644" x2="8.6644" y1="15.931" y2=".79375" gradientUnits="userSpaceOnUse">
   <stop stop-color="#5e81ac" offset="0"/>
   <stop stop-color="#88c0d0" offset="1"/>
  </linearGradient>
  <linearGradient id="linearGradient1364" x1="8.4618" x2="8.4665" y1="13.704" y2="3.1749" gradientTransform="matrix(1.05 0 0 1.05 -.42334 -.42332)" gradientUnits="userSpaceOnUse">
   <stop stop-color="#d8dee9" offset="0"/>
   <stop stop-color="#eceff4" offset="1"/>
  </linearGradient>
  <filter id="filter837" x="-.05808" y="-.05808" width="1.1162" height="1.1162" color-interpolation-filters="sRGB">
   <feGaussianBlur stdDeviation="0.26891749"/>
  </filter>
 </defs>
 <g stroke-linecap="round" stroke-linejoin="round">
  <rect transform="matrix(.99138 0 0 1 .072989 .0019055)" x=".79375" y=".90545" width="15.346" height="15.346" rx="3.0526" ry="3.0526" fill="#000000" filter="url(#filter1178)" opacity=".15" stroke-width="1.2489" style="mix-blend-mode:normal"/>
  <rect x=".92604" y=".92604" width="15.081" height="15.081" rx="3" ry="3" fill="url(#linearGradient1340)" stroke-width="1.2274"/>
  <rect x=".01215" y=".0060174" width="16.924" height="16.927" fill="none" opacity=".15" stroke-width="1.052"/>
 </g>
 <path d="m8.4665 2.9104a0.55561 0.55561 0 0 0-0.053172 0.00326c-3.0373 0.02904-5.503 2.5089-5.503 5.5529 0 3.062 2.4941 5.5561 5.5561 5.5561 3.0433 0 5.5227-2.4645 5.5529-5.5008a0.55561 0.55561 0 0 0 0.0033-0.055345 0.55561 0.55561 0 0 0-0.55561-0.55561 0.55561 0.55561 0 0 0-0.55561 0.55561c0 2.4614-1.9835 4.4449-4.4449 4.4449s-4.4449-1.9835-4.4449-4.4449 1.9835-4.4449 4.4449-4.4449a0.55561 0.55561 0 0 0 0.55557-0.55561 0.55561 0.55561 0 0 0-0.55561-0.55561zm0 2.2225a0.55561 0.55561 0 0 0-0.053172 0.00217c-1.81 0.028928-3.2805 1.5149-3.2805 3.3315 0 1.8346 1.4991 3.3337 3.3337 3.3337 1.8159 0 3.3003-1.4694 3.3304-3.2783a0.55561 0.55561 0 0 0 0.0033-0.055345 0.55561 0.55561 0 0 0-0.55561-0.55561 0.55561 0.55561 0 0 0-0.55561 0.55561c0 1.234-0.98845 2.2225-2.2225 2.2225-1.234 0-2.2225-0.98845-2.2225-2.2225 0-1.234 0.98845-2.2225 2.2225-2.2225a0.55561 0.55561 0 0 0 0.55557-0.55562 0.55561 0.55561 0 0 0-0.55561-0.55561zm0 2.2225a1.1112 1.1112 0 0 0-1.1112 1.1112 1.1112 1.1112 0 0 0 1.1112 1.1112 1.1112 1.1112 0 0 0 1.1112-1.1112 1.1112 1.1112 0 0 0-1.1112-1.1112z" fill="#2e3440" filter="url(#filter837)" opacity=".35" stroke-width=".27781"/>
 <path d="m8.4665 2.9104a0.55561 0.55561 0 0 0-0.05317 0.00326c-3.0373 0.029042-5.503 2.5089-5.503 5.5529 0 3.062 2.4941 5.5561 5.5561 5.5561 3.0433 0 5.5227-2.4645 5.5529-5.5008a0.55561 0.55561 0 0 0 0.0033-0.055345 0.55561 0.55561 0 0 0-0.55561-0.55561 0.55561 0.55561 0 0 0-0.55561 0.55561c0 2.4614-1.9835 4.4449-4.4449 4.4449s-4.4449-1.9835-4.4449-4.4449 1.9835-4.4449 4.4449-4.4449a0.55561 0.55561 0 0 0 0.55557-0.55562 0.55561 0.55561 0 0 0-0.55561-0.55561zm0 2.2225a0.55561 0.55561 0 0 0-0.05317 0.00217c-1.81 0.028927-3.2805 1.5149-3.2805 3.3315 0 1.8346 1.4991 3.3337 3.3337 3.3337 1.8159 0 3.3003-1.4694 3.3304-3.2783a0.55561 0.55561 0 0 0 0.0033-0.055345 0.55561 0.55561 0 0 0-0.55561-0.55561 0.55561 0.55561 0 0 0-0.55561 0.55561c0 1.234-0.98845 2.2225-2.2225 2.2225-1.234 0-2.2225-0.98845-2.2225-2.2225 0-1.234 0.98845-2.2225 2.2225-2.2225a0.55561 0.55561 0 0 0 0.55557-0.55562 0.55561 0.55561 0 0 0-0.55561-0.55561zm0 2.2225a1.1112 1.1112 0 0 0-1.1112 1.1112 1.1112 1.1112 0 0 0 1.1112 1.1112 1.1112 1.1112 0 0 0 1.1112-1.1112 1.1112 1.1112 0 0 0-1.1112-1.1112z" fill="url(#linearGradient1364)" stroke-width=".27781"/>
</svg>
