<svg id="svg23" width="64" height="64" fill="none" version="1.1" viewBox="0 0 64 64" xmlns="http://www.w3.org/2000/svg">
 <rect id="rect2" transform="matrix(3.747 0 0 3.7796 .2749 -.42313)" x=".79375" y=".90545" width="15.346" height="15.346" rx="3.0526" ry="3.0526" fill="#000" filter="url(#filter1178)" opacity=".15" stroke-linecap="round" stroke-linejoin="round" stroke-width="1.2489" style="mix-blend-mode:normal"/>
 <rect id="rect4" x="3.5" y="3.5" width="57" height="57" rx="11.541" ry="11.541" fill="url(#linearGradient1678)" stroke-width="3.847"/>
 <defs id="defs21">
  <linearGradient id="linearGradient1678" x1="92.857" x2="92.857" y1="5.6767" y2="82.037" gradientTransform="matrix(1.0178 0 0 1.0178 -63.894 -2.2009)" gradientUnits="userSpaceOnUse">
   <stop id="stop13" stop-color="#2e3440" offset="0"/>
   <stop id="stop15" stop-color="#5e81ac" offset="1"/>
  </linearGradient>
  <filter id="filter1178" x="-.048000452" y="-.048000452" width="1.0960009" height="1.0960009" color-interpolation-filters="sRGB">
   <feGaussianBlur id="feGaussianBlur18" stdDeviation="0.30692287"/>
  </filter>
  <linearGradient id="linearGradient2707" x1="558.0968" x2="697.81433" y1="255.82097" y2="816.315" gradientUnits="userSpaceOnUse">
   <stop id="stop2699" style="stop-color:#88c0d0" offset="0"/>
   <stop id="stop2701" style="stop-color:#81a1c1" offset="1"/>
  </linearGradient>
 </defs>
 <g id="g639" transform="matrix(.05758088 0 0 .05758088 -5.6214758 4.6063269)" style="fill:url(#linearGradient2707)">
  <rect id="rect301-3" x="512.60199" y="582.177" width="353.53101" height="70.706154" rx="0" ry="0" style="fill-rule:evenodd;fill:url(#linearGradient2707);stroke-opacity:.356863;stroke-width:.204;stroke:#4c566a"/>
  <rect id="rect301" x="512.60199" y="298.60199" width="353.53101" height="70.706154" rx="0" ry="0" style="fill-rule:evenodd;fill:url(#linearGradient2707);stroke-opacity:.356863;stroke-width:.204;stroke:#4c566a"/>
  <rect id="rect301-5" x="440.59149" y="155.09148" width="284.29074" height="70.727188" rx="0" ry="0" style="fill-rule:evenodd;fill:url(#linearGradient2707);stroke-opacity:.356863;stroke-width:.182963;stroke:#4c566a"/>
  <rect id="rect301-5-2" x="440.59164" y="725.66638" width="284.29074" height="70.727188" rx="0" ry="0" style="fill-rule:evenodd;fill:url(#linearGradient2707);stroke-opacity:.356863;stroke-width:.182963;stroke:#4c566a"/>
  <rect id="rect301-7" x="512.60199" y="440.3895" width="353.53101" height="70.706154" rx="0" ry="0" style="fill-rule:evenodd;fill:url(#linearGradient2707);stroke-opacity:.356863;stroke-width:.204;stroke:#4c566a"/>
 </g>
</svg>
