<svg width="64" height="64" version="1.1" viewBox="0 0 16.933 16.933" xmlns="http://www.w3.org/2000/svg">
 <defs>
  <filter id="filter1178" x="-.047999" y="-.047999" width="1.096" height="1.096" color-interpolation-filters="sRGB">
   <feGaussianBlur stdDeviation="0.30691668"/>
  </filter>
  <linearGradient id="linearGradient1340" x1="8.355" x2="8.3996" y1="16.007" y2=".79375" gradientUnits="userSpaceOnUse">
   <stop stop-color="#d8dee9" offset="0"/>
   <stop stop-color="#eceff4" offset="1"/>
  </linearGradient>
  <linearGradient id="linearGradient1424-9" x1="30.251" x2="30.458" y1="-6.3156" y2="2.5274" gradientTransform="matrix(.55387 0 0 .55387 -10.477 9.8093)" gradientUnits="userSpaceOnUse">
   <stop stop-color="#8fbcbb" offset="0"/>
   <stop stop-color="#a3be8c" offset="1"/>
  </linearGradient>
  <filter id="filter1790" x="-.057915" y="-.057943" width="1.1158" height="1.1159" color-interpolation-filters="sRGB">
   <feGaussianBlur stdDeviation="0.13329337"/>
  </filter>
 </defs>
 <g stroke-linecap="round" stroke-linejoin="round">
  <rect transform="matrix(.99138 0 0 1 .072989 .0019055)" x=".79375" y=".90545" width="15.346" height="15.346" rx="3.0526" ry="3.0526" fill="#000000" filter="url(#filter1178)" opacity=".15" stroke-width="1.2489" style="mix-blend-mode:normal"/>
  <rect x=".92604" y=".92604" width="15.081" height="15.081" rx="3" ry="3" fill="url(#linearGradient1340)" stroke-width="1.2274"/>
  <rect x=".01215" y=".0060174" width="16.924" height="16.927" fill="none" opacity=".15" stroke-width="1.052"/>
 </g>
 <path class="cls-1" d="m6.781 6.8976a2.1069 2.1069 0 0 1 0.512 0.23196l0.27556-0.27691a0.34164 0.34164 0 0 1 0.48189 0l0.2823 0.28365a0.34164 0.34164 0 0 1 0 0.48189l-0.29669 0.29669a2.0948 2.0948 0 0 1 0.1951 0.49133h0.42794a0.34164 0.34164 0 0 1 0.34254 0.34164v0.40007a0.34164 0.34164 0 0 1-0.34074 0.34074h-0.43199a2.1051 2.1051 0 0 1-0.19644 0.48593l0.30028 0.30163a0.34164 0.34164 0 0 1 0 0.48189l-0.28185 0.2823a0.34209 0.34209 0 0 1-0.48234 0l-0.28499-0.28544a2.1227 2.1227 0 0 1-0.50301 0.22476v0.38614a0.34164 0.34164 0 0 1-0.34074 0.34074h-0.39962a0.34164 0.34164 0 0 1-0.34074-0.34074v-0.34883a2.1303 2.1303 0 0 1-0.55514-0.21038l-0.23375 0.23375a0.34254 0.34254 0 0 1-0.48188 0l-0.28365-0.28365a0.34209 0.34209 0 0 1 0-0.48189l0.21217-0.21218a2.1299 2.1299 0 0 1-0.24993-0.57403h-0.28859a0.34164 0.34164 0 0 1-0.34074-0.34074v-0.40007a0.34164 0.34164 0 0 1 0.34074-0.34164h0.28545a2.1218 2.1218 0 0 1 0.24768-0.58168l-0.20678-0.20633a0.34254 0.34254 0 0 1 0-0.48189l0.28365-0.28365a0.34164 0.34164 0 0 1 0.48188 0l0.22476 0.22476a2.0948 2.0948 0 0 1 0.56323-0.21757v-0.33355a0.34164 0.34164 0 0 1 0.34164-0.34074h0.40007a0.34164 0.34164 0 0 1 0.34074 0.34074zm-0.61225 0.93681a1.1058 1.1058 0 1 1-1.1058 1.1054 1.1054 1.1054 0 0 1 1.1058-1.1054z" fill="#2e3440" fill-rule="evenodd" filter="url(#filter1790)" opacity=".31245" stroke-width=".044952"/>
 <path class="cls-1" d="m6.781 6.7118a2.1069 2.1069 0 0 1 0.512 0.23196l0.27556-0.27691a0.34164 0.34164 0 0 1 0.48189 0l0.2823 0.28365a0.34164 0.34164 0 0 1 0 0.48189l-0.29669 0.29669a2.0948 2.0948 0 0 1 0.1951 0.49133h0.42794a0.34164 0.34164 0 0 1 0.34254 0.34164v0.40007a0.34164 0.34164 0 0 1-0.34074 0.34074h-0.43199a2.1051 2.1051 0 0 1-0.19644 0.48593l0.30028 0.30163a0.34164 0.34164 0 0 1 0 0.48189l-0.28185 0.2823a0.34209 0.34209 0 0 1-0.48234 0l-0.28499-0.28544a2.1227 2.1227 0 0 1-0.50301 0.22476v0.38614a0.34164 0.34164 0 0 1-0.34074 0.34074h-0.39962a0.34164 0.34164 0 0 1-0.34074-0.34074v-0.34883a2.1303 2.1303 0 0 1-0.55514-0.21038l-0.23375 0.23375a0.34254 0.34254 0 0 1-0.48188 0l-0.28365-0.28365a0.34209 0.34209 0 0 1 0-0.48189l0.21217-0.21218a2.1299 2.1299 0 0 1-0.24993-0.57403h-0.28859a0.34164 0.34164 0 0 1-0.34074-0.34074v-0.40007a0.34164 0.34164 0 0 1 0.34074-0.34164h0.28545a2.1218 2.1218 0 0 1 0.24768-0.58168l-0.20678-0.20633a0.34254 0.34254 0 0 1 0-0.48189l0.28365-0.28365a0.34164 0.34164 0 0 1 0.48188 0l0.22476 0.22476a2.0948 2.0948 0 0 1 0.56323-0.21757v-0.33355a0.34164 0.34164 0 0 1 0.34164-0.34074h0.40007a0.34164 0.34164 0 0 1 0.34074 0.34074zm-0.61225 0.93681a1.1058 1.1058 0 1 1-1.1058 1.1054 1.1054 1.1054 0 0 1 1.1058-1.1054z" fill="url(#linearGradient1424-9)" fill-rule="evenodd" stroke-width=".044952"/>
 <g fill="#2e3440">
  <g opacity=".3">
   <rect x="4.0399" y="2.9422" width="7.4406" height=".69184" opacity="1" stroke-width=".8595"/>
   <circle cx="3.2379" cy="3.3054" r=".39687" fill-rule="evenodd" stroke-width=".28842"/>
  </g>
  <rect x="4.0399" y="4.5296" width="8.5847" height=".69184" opacity=".5" stroke-width=".92322"/>
  <circle cx="3.2379" cy="4.8928" r=".39687" fill-rule="evenodd" opacity=".5" stroke-width=".28842"/>
  <rect x="4.0399" y="12.467" width="7.6029" height=".69184" opacity=".5" stroke-width=".86882"/>
  <circle cx="3.2379" cy="12.83" r=".39687" fill-rule="evenodd" opacity=".5" stroke-width=".28842"/>
  <rect x="4.0399" y="14.054" width="4.6163" height=".69184" opacity=".3" stroke-width=".677"/>
  <circle cx="3.2379" cy="14.418" r=".39687" fill-rule="evenodd" opacity=".3" stroke-width=".28842"/>
 </g>
 <rect x="9.8607" y="9.292" width="5.1903" height=".92602" fill="#81a1c1" stroke-width=".83052"/>
 <rect x="9.8607" y="7.7046" width="3.6588" height=".92602" fill="#a3be8c" stroke-width=".6973"/>
</svg>
