<svg width="64" height="64" version="1.1" viewBox="0 0 16.933 16.933" xmlns="http://www.w3.org/2000/svg">
 <defs>
  <filter id="filter1178" x="-.047999" y="-.047999" width="1.096" height="1.096" color-interpolation-filters="sRGB">
   <feGaussianBlur stdDeviation="0.30691668"/>
  </filter>
  <linearGradient id="linearGradient1340" x1="8.6644" x2="8.6644" y1="15.931" y2=".79375" gradientUnits="userSpaceOnUse">
   <stop stop-color="#2e3440" offset="0"/>
   <stop stop-color="#4c566a" offset="1"/>
  </linearGradient>
  <linearGradient id="linearGradient6207" x1="7.635" x2="8.761" y1="5.7037" y2="14.001" gradientTransform="matrix(1.3267 0 0 1.3267 -2.8671 -4.6909)" gradientUnits="userSpaceOnUse">
   <stop stop-color="#f5f5f5" offset="0"/>
   <stop stop-color="#b8bcdb" offset="1"/>
  </linearGradient>
  <linearGradient id="linearGradient24178" x1="5.5892" x2="5.6031" y1="1.3764" y2="15.383" gradientTransform="translate(-21.928 1.4172)" gradientUnits="userSpaceOnUse">
   <stop stop-color="#eceff4" offset="0"/>
   <stop stop-color="#d8dee9" offset="1"/>
  </linearGradient>
 </defs>
 <g stroke-linecap="round" stroke-linejoin="round">
  <rect transform="matrix(.99138 0 0 1 .072989 .0019055)" x=".79375" y=".90545" width="15.346" height="15.346" rx="3.0526" ry="3.0526" fill="#000000" filter="url(#filter1178)" opacity=".15" stroke-width="1.2489" style="mix-blend-mode:normal"/>
  <rect x=".92604" y=".92604" width="15.081" height="15.081" rx="3" ry="3" fill="url(#linearGradient1340)" stroke-width="1.2274"/>
  <rect x=".01215" y=".0060174" width="16.924" height="16.927" fill="none" opacity=".15" stroke-width="1.052"/>
 </g>
 <g transform="translate(.10109 .13199)">
  <path d="m11.42 3.1721c-0.13299-0.092601-0.2837-0.13299-0.43739-0.10245-0.15367 0.03054-0.2837 0.11329-0.37631 0.24234l-0.51914 0.73193c-0.18421-0.08176-0.37631-0.14383-0.5812-0.19505-0.2049-0.05122-0.39699-0.092601-0.6019-0.12313l-0.16451-0.95751c-0.029559-0.16451-0.11231-0.2837-0.23248-0.37631-0.13299-0.0926-0.27386-0.12313-0.43739-0.0926l-1.1999 0.21574c-0.15367 0.03054-0.27386 0.10245-0.37631 0.23544-0.092591 0.13299-0.13299 0.27386-0.10245 0.43739l0.15367 0.87477c-0.19505 0.08176-0.37631 0.17436-0.55068 0.2837-0.17437 0.10245-0.34479 0.22559-0.49945 0.34479l-0.8137-0.56052c-0.13299-0.092601-0.27386-0.13299-0.42753-0.10245s-0.2837 0.11329-0.37631 0.24628l-0.69253 0.98905c-0.092591 0.13299-0.13299 0.2837-0.10245 0.43739 0.030541 0.16451 0.11329 0.2837 0.24628 0.37631l0.73193 0.51914c-0.081765 0.18421-0.14383 0.37631-0.19505 0.58121-0.051224 0.2049-0.092591 0.39699-0.12313 0.6019l-0.95653 0.16451c-0.81172 0.15269-0.35267 1.3161-0.25318 1.8697 0.030541 0.15367 0.10245 0.27386 0.23248 0.37631 0.13299 0.09259 0.27386 0.13299 0.43739 0.10245l0.87477-0.15367c0.081765 0.19505 0.17437 0.37631 0.2837 0.55066 0.10245 0.17437 0.22559 0.34478 0.34479 0.5093l-0.56052 0.80384c-0.092591 0.13299-0.13299 0.27386-0.10245 0.42753 0.030541 0.15367 0.11231 0.2837 0.24234 0.37631l0.99791 0.70041c0.13299 0.09259 0.2837 0.12313 0.43739 0.09259 0.15367-0.03053 0.2837-0.10245 0.38617-0.23248l0.52014-0.74178c0.18421 0.08177 0.37631 0.14383 0.58121 0.19505s0.39601 0.09259 0.6019 0.12313l0.16451 0.95751c0.030541 0.16451 0.11329 0.2837 0.23248 0.37631 0.13299 0.09259 0.27386 0.12313 0.43739 0.09259l1.1999-0.21572c0.15367-0.03054 0.27386-0.10245 0.37631-0.23249 0.09259-0.13299 0.13299-0.27386 0.10245-0.43739l-0.15367-0.87476c0.19505-0.08177 0.37631-0.17436 0.55068-0.2837 0.17436-0.10245 0.34577-0.22264 0.5093-0.34478l0.80384 0.56052c0.13299 0.09259 0.27386 0.13299 0.43739 0.10245 0.16451-0.03053 0.2837-0.11329 0.37631-0.24234l0.70041-0.9989c0.09259-0.13299 0.12313-0.2837 0.09259-0.43739-0.03053-0.15367-0.10245-0.2837-0.23544-0.38615l-0.74277-0.5093c0.08177-0.18422 0.14383-0.37631 0.19505-0.58121s0.09259-0.39699 0.12313-0.6019l0.95753-0.16451c0.16451-0.030541 0.2837-0.11329 0.37631-0.23544 0.09259-0.13299 0.12313-0.27386 0.09259-0.43739l-0.21572-1.1999c-0.03054-0.15367-0.10245-0.27386-0.23248-0.37631-0.13299-0.092601-0.27386-0.13299-0.43739-0.10245l-0.87477 0.15367c-0.08176-0.18421-0.17436-0.36547-0.2837-0.55068-0.10245-0.18421-0.22559-0.34479-0.34479-0.49945l0.56052-0.8137c0.09259-0.13299 0.13299-0.27386 0.10245-0.42753-0.030539-0.15367-0.11329-0.2837-0.24234-0.37631l-0.99002-0.69549zm-3.0548 1.4481c2.051 0 3.7148 1.6629 3.7148 3.7148 0 2.051-1.6629 3.7148-3.7148 3.7148-2.052 0-3.7148-1.6638-3.7148-3.7159 0-2.051 1.6638-3.7139 3.7148-3.7139z" fill="url(#linearGradient6207)" stroke-width="1.3267"/>
  <g transform="matrix(.26048 .306 -.306 .26048 15.624 10.952)">
   <path d="m-15.698 3.9178c0 0.30805-0.24972 0.55777-0.55777 0.55777s-0.55777-0.24972-0.55777-0.55777 0.24972-0.55777 0.55777-0.55777 0.55777 0.24972 0.55777 0.55777zm-0.57444-1.3877c-1.6828 4e-6 -3.0469 1.5325-3.0468 3.4229 9.27e-4 1.4436 0.80807 2.7313 2.0176 3.2189v8.031h0.96869l0.85801-1.4981c-7e-6 -8e-6 1.6e-5 -4.18e-4 0-4.35e-4l0.0018-0.0035h-4e-3c-0.01355-0.01677-0.08148-0.10815-0.08148-0.26625 0-0.07836 0.1024-0.16173 0.1024-0.26712 0-0.08473 0.12942-0.21137 0.12942-0.3107 0-0.08747-0.02919-0.16797-0.02919-0.26494 0-0.08888-0.24315-0.12811-0.24315-0.22354 0-0.08982 0.05185-0.22579 0.05185-0.32028 0-0.09051 0.1804-0.20556 0.1804-0.29936 0-0.09119 0.02833-0.07355 0.02833-0.1669 0-0.09162 0.04096-0.20607 0.04096-0.29893 0-0.09211-0.15905-0.26221-0.15905-0.35471 0-0.09243-0.01918-0.20645-0.01918-0.29849 0-0.09276-0.12724-0.06408-0.12724-0.15556 0-0.09345 0.27322-0.24954 0.27322-0.34076 0-0.094 0.0044-0.18952 0.0044-0.28019 0-0.09452-0.2767-0.18906-0.2767-0.27888 0-0.09557 0.20393-0.17379 0.20393-0.26276 0-0.09697-0.21527-0.16919-0.21527-0.25666 0-0.09939 0.13291-0.16013 0.13291-0.2449 0-0.10542 0.095-0.20665 0.095-0.28498 0-0.13119-0.01914-0.24474-0.02876-0.2937h0.44055v-1.1835c1.0668-0.5646 1.7477-1.77 1.7483-3.0947 7.5e-5 -1.8904-1.364-3.4229-3.0468-3.4229z" fill="url(#linearGradient24178)" stroke-linecap="round" stroke-linejoin="round" stroke-width=".065341"/>
   <rect x="-17.052" y="10.346" width=".24825" height="6.857" fill="#2e3440" opacity=".4"/>
   <rect x="-15.32" y="9.4972" width=".19994" height=".73399" fill="#2e3440" opacity=".4"/>
  </g>
 </g>
</svg>
