<svg width="64" height="64" version="1.1" viewBox="0 0 16.933 16.933" xmlns="http://www.w3.org/2000/svg">
 <defs>
  <filter id="filter1178" x="-.048" y="-.048" width="1.096" height="1.096" color-interpolation-filters="sRGB">
   <feGaussianBlur stdDeviation="0.30691955"/>
  </filter>
  <linearGradient id="linearGradient3742" x1="32.112" x2="35.855" y1=".43061" y2="4.1738" gradientUnits="userSpaceOnUse">
   <stop stop-color="#d8dee9" offset="0"/>
   <stop stop-color="#eceff4" offset="1"/>
  </linearGradient>
  <linearGradient id="linearGradient4408" x1="9.3737" x2="41.472" y1="7.2108" y2="50.812" gradientUnits="userSpaceOnUse">
   <stop stop-color="#2e3440" offset="0"/>
   <stop stop-color="#4c566a" offset="1"/>
  </linearGradient>
  <linearGradient id="linearGradient4718" x1="47.316" x2="55.067" y1="48.887" y2="58.917" gradientUnits="userSpaceOnUse">
   <stop stop-color="#ebcb8b" offset="0"/>
   <stop stop-color="#eac57b" offset="1"/>
  </linearGradient>
  <filter id="filter5313" x="-.063686" y="-.073539" width="1.1274" height="1.1471" color-interpolation-filters="sRGB">
   <feGaussianBlur stdDeviation="0.18384374"/>
  </filter>
 </defs>
 <g stroke-linecap="round" stroke-linejoin="round">
  <rect transform="matrix(.99138 0 0 1 .072989 .0019055)" x=".79375" y=".90545" width="15.346" height="15.346" rx="3.0526" ry="3.0526" fill="#000000" filter="url(#filter1178)" opacity=".15" stroke-width="1.2489" style="mix-blend-mode:normal"/>
  <path transform="scale(.26458)" d="m26.532 60.5h-11.693c-6.2817 0-11.339-5.0571-11.339-11.339v-34.323c0-6.2817 5.0571-11.339 11.339-11.339h34.323c6.2817 0 11.339 5.0571 11.339 11.339v26.049" fill="url(#linearGradient4408)" stroke-width="4.6391"/>
  <path transform="scale(.26458)" d="m60.5 40.888v8.2735c0 6.2817-5.0571 11.339-11.339 11.339h-22.629" fill="url(#linearGradient4718)" stroke-width="4.6391"/>
  <rect x=".01215" y=".0060174" width="16.924" height="16.927" fill="none" opacity=".15" stroke-width="1.052"/>
 </g>
 <g transform="matrix(1.6949 0 0 1.6949 -48.779 4.2293)" fill="#2e3440" filter="url(#filter5313)" opacity=".36372">
  <path d="m33.774 4.6771v-0.99998l2.165-1.25v0.49999l-1.732 0.99998v0.49999zm0.433-3.2499-0.433 0.25 1.732 0.99998 0.43301-0.25zm-1.8186 1.25 1.3856-0.79998 1.3856 0.79998-1.3856 0.79998zm-0.3464 0-0.43301 0.25v-0.49999zm1.299 0.74999v0.49999l-1.732-0.99998 0.43301-0.25zm0.86601-2.5 0.43301 0.25-2.598 1.5-0.43301-0.25zm3.031 0.74999-0.86601 0.49999-2.165-1.25 0.86601-0.49999zm-1e-6 0-0.86601 0.49999 1e-6 0.99998 0.86601 0.49999zm0 2-0.86601-0.49999-2.598 1.5v0.99998zm-6.9281 0 0.86601-0.49999 2.598 1.5v0.99998zm4.33-3.4999-0.86601-0.49999-3.464 2 0.86601 0.49999zm-4.33 1.5 0.86601 0.49999v0.99998l-0.86601 0.49999z" fill="#2e3440"/>
 </g>
 <g transform="matrix(1.6949 0 0 1.6949 -48.779 4.2293)">
  <g fill="#d8dee9">
   <path d="m30.31 1.5 0.86601 0.49999v0.99998l-0.86601 0.49999z"/>
   <path d="m34.64 0-0.86601-0.49999-3.464 2 0.86601 0.49999z"/>
   <path d="m30.31 3.4999 0.86601-0.49999 2.598 1.5v0.99998z"/>
   <path d="m37.238 3.4999-0.86601-0.49999-2.598 1.5v0.99998z"/>
   <path d="m37.238 1.5-0.86601 0.49999 1e-6 0.99998 0.86601 0.49999z"/>
   <path d="m37.238 1.5-0.86601 0.49999-2.165-1.25 0.86601-0.49999z"/>
   <path d="m34.207 0.74999 0.43301 0.25-2.598 1.5-0.43301-0.25z"/>
   <path d="m33.341 3.2499v0.49999l-1.732-0.99998 0.43301-0.25z"/>
   <path d="m32.042 2.5-0.43301 0.25v-0.49999z"/>
   <path d="m32.389 2.5 1.3856-0.79998 1.3856 0.79998-1.3856 0.79998z"/>
   <path d="m34.207 1.25-0.433 0.25 1.732 0.99998 0.43301-0.25z"/>
   <path d="m33.774 4.4999v-0.99998l2.165-1.25v0.49999l-1.732 0.99998v0.49999z"/>
  </g>
  <g fill="url(#linearGradient3742)">
   <path d="m30.31 1.5 0.86601 0.49999v0.99998l-0.86601 0.49999z"/>
   <path d="m34.64 0-0.86601-0.49999-3.464 2 0.86601 0.49999z"/>
   <path d="m30.31 3.4999 0.86601-0.49999 2.598 1.5v0.99998z"/>
   <path d="m37.238 3.4999-0.86601-0.49999-2.598 1.5v0.99998z"/>
   <path d="m37.238 1.5-0.86601 0.49999 1e-6 0.99998 0.86601 0.49999z"/>
   <path d="m37.238 1.5-0.86601 0.49999-2.165-1.25 0.86601-0.49999z"/>
   <path d="m34.207 0.74999 0.43301 0.25-2.598 1.5-0.43301-0.25z"/>
   <path d="m33.341 3.2499v0.49999l-1.732-0.99998 0.43301-0.25z"/>
   <path d="m32.042 2.5-0.43301 0.25v-0.49999z"/>
   <path d="m32.389 2.5 1.3856-0.79998 1.3856 0.79998-1.3856 0.79998z"/>
   <path d="m34.207 1.25-0.433 0.25 1.732 0.99998 0.43301-0.25z"/>
   <path d="m33.774 4.4999v-0.99998l2.165-1.25v0.49999l-1.732 0.99998v0.49999z"/>
  </g>
 </g>
</svg>
