<svg width="64" height="64" version="1.1" viewBox="0 0 16.933 16.933" xmlns="http://www.w3.org/2000/svg">
 <defs>
  <linearGradient id="linearGradient4322" x1="8.7575" x2="8.7259" y1="11.518" y2="9.1016" gradientTransform="matrix(8.9659 0 0 8.9659 -31.259 -42.868)" gradientUnits="userSpaceOnUse">
   <stop stop-color="#a6aebf" offset="0"/>
   <stop stop-color="#d8dee9" offset="1"/>
  </linearGradient>
  <linearGradient id="linearGradient3668" x1="8.52" x2="8.531" y1="11.545" y2="8.0601" gradientTransform="matrix(8.9659 0 0 8.9659 -46.635 -42.975)" gradientUnits="userSpaceOnUse">
   <stop stop-color="#e5e9f0" offset="0"/>
   <stop stop-color="#eceff4" offset="1"/>
  </linearGradient>
  <filter id="filter1178" x="-.047999" y="-.047999" width="1.096" height="1.096" color-interpolation-filters="sRGB">
   <feGaussianBlur stdDeviation="0.30691668"/>
  </filter>
  <linearGradient id="linearGradient1340" x1="8.6885" x2="8.6644" y1="15.572" y2="1.366" gradientTransform="translate(-.00765 -.030534)" gradientUnits="userSpaceOnUse">
   <stop stop-color="#4c566a" offset="0"/>
   <stop stop-color="#a6aebf" offset="1"/>
  </linearGradient>
  <linearGradient id="linearGradient1340-3" x1="8.6644" x2="8.6644" y1="18.388" y2="1.366" gradientTransform="translate(-.00765 -.030534)" gradientUnits="userSpaceOnUse">
   <stop stop-color="#88c0d0" offset="0"/>
   <stop stop-color="#5e81ac" offset="1"/>
  </linearGradient>
  <linearGradient id="linearGradient6101" x1="15.093" x2="13.584" y1="2.1411" y2="3.6506" gradientTransform="rotate(180 13.494 3.3387)" gradientUnits="userSpaceOnUse">
   <stop stop-color="#eceff4" offset="0"/>
   <stop stop-color="#d8dee9" offset="1"/>
  </linearGradient>
  <filter id="filter6834" x="-.079225" y="-.079751" width="1.1584" height="1.1595" color-interpolation-filters="sRGB">
   <feGaussianBlur stdDeviation="0.15989484"/>
  </filter>
  <filter id="filter7451" x="-.073049" y="-.072538" width="1.1461" height="1.1451" color-interpolation-filters="sRGB">
   <feGaussianBlur stdDeviation="0.15989484"/>
  </filter>
 </defs>
 <g stroke-linecap="round" stroke-linejoin="round">
  <rect transform="matrix(.99138 0 0 1 .072989 .0019055)" x=".79375" y=".90545" width="15.346" height="15.346" rx="3.0526" ry="3.0526" fill="#000000" filter="url(#filter1178)" opacity=".15" stroke-width="1.2489" style="mix-blend-mode:normal"/>
  <rect x=".91839" y=".89551" width="15.081" height="15.081" rx="3" ry="3" fill="url(#linearGradient1340)" stroke-width="1.2274"/>
  <rect x=".0045003" y="-.024517" width="16.924" height="16.927" fill="none" opacity=".15" stroke-width="1.052"/>
  <g stroke-width="1.2274">
   <path d="m3.9184 0.89551h6.9644c0.90634 0 5.1166 4.1838 5.1166 5.1166v6.9644c0 1.662-1.338 3-3 3h-9.081c-1.662 0-3-1.338-3-3v-9.081c0-1.662 1.338-3 3-3z" fill="url(#linearGradient1340-3)"/>
   <path d="m15.964 5.7734c0.0062-0.56964-1.2579-2.0081-2.0384-2.8042-0.31107-0.31729-2.1363-1.9845-2.7961-2.0076l-0.0092 1.6499c-0.0093 1.662 1.3446 2.8551 3.0003 3.0003z" fill="#2e3440" filter="url(#filter6834)" opacity=".22"/>
   <path d="m15.97 6.2014c0.0062-0.56964-1.577-2.1232-2.3575-2.9193-0.31107-0.31729-2.236-2.3478-2.8958-2.371l0.09051 2.0133c0.07465 1.6603 1.3517 2.7893 3.0003 3.0003z" fill="#2e3440" filter="url(#filter7451)" opacity=".25"/>
   <path d="m15.999 6.0122c0.0062-0.56964-1.433-2.1071-2.2135-2.9032-0.31107-0.31729-2.2433-2.1903-2.9032-2.2135l0.09785 1.8558c0.08752 1.6597 1.352 2.7875 3.0003 3.0003z" fill="url(#linearGradient6101)"/>
  </g>
 </g>
 <path transform="scale(.26458)" d="m19.895 60.385h29.238c0.1963 0 0.39019-0.003912 0.58398-0.013672s0.38707-0.025636 0.57812-0.044922c0.19105-0.019287 0.38028-0.043687 0.56836-0.072266s0.37568-0.061972 0.56055-0.099609c0.18486-0.037637 0.36741-0.078538 0.54883-0.125s0.36132-0.097291 0.53906-0.15234c0.17774-0.055052 0.35351-0.11432 0.52734-0.17773 0.17383-0.063409 0.34594-0.13159 0.51563-0.20312 0.16968-0.071532 0.33665-0.14714 0.50195-0.22656 0.1653-0.079421 0.32759-0.16292 0.48828-0.25 0.16069-0.087075 0.32072-0.17699 0.47656-0.27148 0.15584-0.094497 0.30822-0.19324 0.45898-0.29492s0.29987-0.20582 0.44531-0.31445 0.28784-0.22058 0.42774-0.33594c0.13989-0.11536 0.27604-0.23558 0.41016-0.35742 0.13411-0.12184 0.26644-0.24691 0.39453-0.375s0.25316-0.25847 0.375-0.39258 0.24011-0.27026 0.35547-0.41016 0.2273-0.28424 0.33594-0.42969c0.10864-0.14544 0.21277-0.2926 0.31445-0.44336s0.20043-0.3051 0.29492-0.46094c0.094497-0.15584 0.18636-0.31392 0.27344-0.47461 0.087076-0.16069 0.16863-0.32298 0.24805-0.48828s0.15503-0.33227 0.22656-0.50195 0.13972-0.3418 0.20312-0.51562 0.12268-0.3496 0.17774-0.52734c0.055052-0.17774 0.10588-0.35764 0.15234-0.53906 0.046462-0.18142 0.089316-0.36592 0.12695-0.55078 0.037637-0.18486 0.07103-0.37052 0.099609-0.55859s0.051026-0.37731 0.070312-0.56836c0.019287-0.19105 0.035162-0.38433 0.044922-0.57812s0.013672-0.38768 0.013672-0.58398v-1.8047c-3.2198-2.8116-12.32-10.669-13.537-10.67v0.001953c-1.5818-5.17e-4 -22.666 19.707-27.039 23.811z" fill="url(#linearGradient4322)" stroke-width="2.3722"/>
 <path transform="scale(.26458)" d="m5.8398 55.992c0.071134 0.091879 0.14097 0.1858 0.21484 0.27539 0.11536 0.13989 0.23363 0.27605 0.35547 0.41016s0.24691 0.26448 0.375 0.39258c0.12809 0.12809 0.25847 0.25316 0.39258 0.375s0.27222 0.24207 0.41211 0.35742c0.13989 0.11536 0.28229 0.2273 0.42773 0.33594s0.2926 0.21277 0.44336 0.31445 0.3051 0.20042 0.46094 0.29492 0.31392 0.18441 0.47461 0.27148c0.16069 0.087076 0.32298 0.17058 0.48828 0.25 0.1653 0.079421 0.33422 0.15503 0.50391 0.22656 0.16968 0.071532 0.3418 0.13972 0.51562 0.20312 0.17383 0.063409 0.3496 0.12268 0.52734 0.17773 0.17774 0.055053 0.35569 0.10588 0.53711 0.15234s0.36592 0.087363 0.55078 0.125 0.37052 0.07103 0.55859 0.099609 0.37731 0.052979 0.56836 0.072266c0.19105 0.019286 0.38433 0.035162 0.57812 0.044922 0.1938 0.00976 0.38964 0.013672 0.58594 0.013672h34.322c0.1963 0 0.39019-0.003912 0.58398-0.013672s0.38707-0.025636 0.57812-0.044922c0.19105-0.019287 0.38028-0.043687 0.56836-0.072266s0.37568-0.061972 0.56055-0.099609c0.18486-0.037637 0.36741-0.078538 0.54883-0.125s0.36132-0.097291 0.53906-0.15234c0.17774-0.055052 0.35351-0.11432 0.52734-0.17773 0.13231-0.048263 0.26266-0.10131 0.39258-0.1543-4.7839-6.663-21.348-30.53-23.807-30.434l0.001953-0.001953c-2.1658 0.083958-12.914 13.169-23.787 26.883z" fill="url(#linearGradient3668)" stroke-width="2.3722"/>
</svg>
