<svg width="64" height="64" version="1.1" viewBox="0 0 16.933 16.933" xmlns="http://www.w3.org/2000/svg">
 <defs>
  <filter id="filter1178" x="-.048" y="-.048" width="1.096" height="1.096" color-interpolation-filters="sRGB">
   <feGaussianBlur stdDeviation="0.30691955"/>
  </filter>
  <linearGradient id="linearGradient1340" x1="8.5011" x2="8.3613" y1="16.007" y2="-12.564" gradientUnits="userSpaceOnUse">
   <stop stop-color="#2e3440" offset="0"/>
   <stop stop-color="#8fbcbb" offset="1"/>
  </linearGradient>
  <linearGradient id="linearGradient1285" x1="5.6122" x2="12.355" y1="5.7517" y2="12.097" gradientTransform="translate(-.083827 -.37722)" gradientUnits="userSpaceOnUse">
   <stop stop-color="#eceff4" offset="0"/>
   <stop stop-color="#d8dee9" offset="1"/>
  </linearGradient>
 </defs>
 <g stroke-linecap="round" stroke-linejoin="round">
  <rect transform="matrix(.99138 0 0 1 .072989 .0019055)" x=".79375" y=".90545" width="15.346" height="15.346" rx="3.0526" ry="3.0526" fill="#000000" filter="url(#filter1178)" opacity=".15" stroke-width="1.2489" style="mix-blend-mode:normal"/>
  <rect x=".92604" y=".92604" width="15.081" height="15.081" rx="3" ry="3" fill="url(#linearGradient1340)" stroke-width="1.2274"/>
  <rect x=".01215" y=".0060174" width="16.924" height="16.927" fill="none" opacity=".15" stroke-width="1.052"/>
 </g>
 <g transform="matrix(.3746 0 0 .3746 -124.03 -189.76)" fill-opacity=".852" stroke-width=".833">
  <circle cx="338.34" cy="517.43" r="1.875" fill="#bf616a"/>
  <circle cx="338.4" cy="522.44" r="1.875" fill="#a3be8c"/>
  <circle cx="338.39" cy="527.23" r="1.875" fill="#ebcb8b"/>
 </g>
 <path d="m8.8215 12.593a0.15359 0.15359 0 0 1-0.12774-0.07117c-0.24911-0.39783 0.59337-1.0215 2.5754-2.3488 0.53044-0.3555 1.1789-0.78854 1.622-1.1283a122.42 122.42 0 0 0-1.6172 1.0717c-2.5023 1.6763-3.0463 2.0079-3.2317 1.9674a0.18393 0.18393 0 0 1-0.10714-0.07455 0.15059 0.15059 0 0 1 0.044952-0.20603c2.3724-1.552 4.8114-3.3362 5.4508-4.0779-1.0073 0.60873-3.9539 2.4713-6.0026 3.773a0.15022 0.15022 0 0 1-0.20828-0.04683c-0.034089-0.05469-0.068552-0.14647-0.037835-0.27571 0.037086-0.15733 0.17531-0.35175 0.39258-0.57427-0.2315 0.14722-0.45664 0.29144-0.67241 0.4293a0.15733 0.15733 0 0 1-0.11425 0.02098 0.15134 0.15134 0 0 1-0.0944-0.06743 0.27533 0.27533 0 0 1-0.029219-0.21727c0.026223-0.10863 0.13111-0.2551 0.29669-0.42704-0.46825 0.2862-0.53755 0.29781-0.60161 0.2847a0.15771 0.15771 0 0 1-0.09852-0.06968c-0.40607-0.64881 1.6115-2.1438 5.2343-4.5072 0.36973-0.24162 0.72673-0.47425 0.95299-0.62933-0.65855 0.19367-2.448 1.3579-4.3937 2.7721-0.44578 0.33789-0.94325 0.711-1.498 1.1249-0.18018 0.13448-0.34763 0.25922-0.47125 0.3525l-0.21839 0.1697a0.15883 0.15883 0 0 1-0.11875 0.02922 0.15059 0.15059 0 0 1-0.10114-0.06855c-0.039333-0.06293-0.058438-0.09365 0.041581-0.18992l-0.00637-0.0079c0.22963-0.17866 1.1294-0.87617 2.2191-1.6699 1.0508-0.79528 2.2828-1.7468 3.0028-2.3712-0.68777 0.43042-1.7059 1.0807-2.5908 1.6456-2.947 1.882-2.95 1.882-3.0489 1.858a0.15209 0.15209 0 0 1-0.095149-0.067428c-0.15209-0.24312 0.14497-0.57052 2.5218-2.4139 0.26222-0.20341 0.54168-0.41993 0.77056-0.60199-0.59187 0.35587-1.5007 1.0227-2.0686 1.4392-1.1156 0.81851-1.2729 0.91853-1.3991 0.89455a0.17269 0.17269 0 0 1-0.10751-0.073048c-0.14647-0.23413 0.15209-0.472 1.6085-1.4741l0.41581-0.28732c-1.8056 1.174-1.9344 1.2137-2.0371 1.1912a0.16483 0.16483 0 0 1-0.10002-0.070051c-0.067428-0.10751-0.087282-0.13935 1.1148-1.2433-0.46151 0.28957-0.82188 0.47575-0.947 0.45402a0.20978 0.20978 0 0 1-0.11837-0.079416c-0.047949-0.076419-0.14797-0.23712 0.6578-1.1118l0.0472-0.24574-0.029968 0.14759-0.082412-0.12512 0.05619-0.044578c0.5177-0.41206 0.6623-0.47425 0.77693-0.45552a0.20716 0.20716 0 0 1 0.12137 0.080165c0.03746 0.059936 0.028095 0.13823-0.022476 0.18805-0.44241 0.43192-0.9204 0.94999-1.1369 1.2482 0.45851-0.24836 1.4433-0.91403 2.3248-1.5531a0.15059 0.15059 0 0 1 0.18955 0.23338 234.27 234.27 0 0 0-1.8543 1.6984 146.84 146.84 0 0 0 1.6284-1.0564c0.96048-0.62858 0.95898-0.62671 1.0335-0.61098a0.15359 0.15359 0 0 1 0.095524 0.067428c0.069301 0.11126 0.042704 0.236-0.11425 0.41506 0.25323-0.13336 0.42742-0.18768 0.54093-0.16557a0.22851 0.22851 0 0 1 0.15209 0.10114c0.0974 0.15583 0.10376 0.1652-1.3306 1.2774-0.55067 0.42667-1.3325 1.0328-1.8614 1.4902 0.57427-0.36074 1.3845-0.87844 2.1371-1.3591 3.4138-2.1802 3.431-2.1749 3.5325-2.154 0.03896 0.00824 0.07417 0.033714 0.09552 0.067428 0.06743 0.10826 0.13036 0.20865-0.64507 0.89006 0.72785-0.42555 1.3186-0.68927 1.5872-0.64357 0.11837 0.020978 0.17981 0.085035 0.21165 0.13486 0.09927 0.15958 0.09927 0.15958-1.2729 1.0545-1.2613 0.82263-4.9249 3.213-5.1515 3.9588 0.45627-0.25698 1.8086-1.1407 3.0215-1.933 3.3842-2.2113 3.7921-2.442 3.9401-2.4102a0.16857 0.16857 0 0 1 0.10114 0.071174 0.15096 0.15096 0 0 1-0.04982 0.20865c-2.6567 1.5932-5.3943 3.416-6.2742 4.2585 6.2664-4.0068 6.3611-3.982 6.4342-3.9637a0.15359 0.15359 0 0 1 0.11538 0.1843c-0.02135 0.090654-0.02173 0.092527-1.0676 0.7331-1.4014 0.85784-4.5364 2.7773-5.1527 3.6411 6.0431-3.8397 6.103-3.8243 6.1832-3.8101 0.03896 0.00899 0.07342 0.033714 0.09515 0.067429 0.15996 0.2566-0.3791 0.84435-1.2294 1.5539 0.7301-0.47462 0.85634-0.52295 0.94362-0.50459a0.16782 0.16782 0 0 1 0.10189 0.071174c0.20341 0.3259-0.41468 0.78067-2.233 1.9974-0.66155 0.44278-1.6389 1.0965-2.148 1.5404 3.3224-2.1206 3.3696-2.1116 3.4478-2.0967a0.15022 0.15022 0 0 1 0.0049 0.29332c-0.23038 0.11313-2.4079 1.4928-3.8389 2.4072a0.16632 0.16632 0 0 1-0.083162 0.02323" fill="url(#linearGradient1285)" stroke-width=".3746"/>
</svg>
