<svg width="64" height="64" enable-background="new 0 0 1024 1024" image-rendering="optimizeSpeed" version="1.1" viewBox="0 0 64 64" xmlns="http://www.w3.org/2000/svg" xmlns:xlink="http://www.w3.org/1999/xlink">
 <defs>
  <linearGradient id="linearGradient2172">
   <stop stop-color="#eceff4" offset="0"/>
   <stop stop-color="#d8dee9" offset="1"/>
  </linearGradient>
  <filter id="filter1178" x="-.047999" y="-.047999" width="1.096" height="1.096" color-interpolation-filters="sRGB">
   <feGaussianBlur stdDeviation="0.30691668"/>
  </filter>
  <linearGradient id="linearGradient1340" x1="8.355" x2="8.355" y1="16.007" y2="-2.0403" gradientTransform="matrix(3.7796 0 0 3.7796 -.028914 -.011405)" gradientUnits="userSpaceOnUse">
   <stop stop-color="#5e81ac" offset="0"/>
   <stop stop-color="#88c0d0" offset="1"/>
  </linearGradient>
  <linearGradient id="linearGradient2196" x1="30.553" x2="30.553" y1="16.614" y2="34.819" gradientUnits="userSpaceOnUse" xlink:href="#linearGradient2172"/>
  <linearGradient id="linearGradient2258" x1="30.553" x2="30.553" y1="16.614" y2="34.819" gradientTransform="matrix(-.61891 0 0 .61891 64.411 32.675)" gradientUnits="userSpaceOnUse" xlink:href="#linearGradient2172"/>
  <filter id="filter2310" x="-.068341" y="-.083096" width="1.1367" height="1.1662" color-interpolation-filters="sRGB">
   <feGaussianBlur stdDeviation="0.39776708"/>
  </filter>
  <filter id="filter2331" x="-.063438" y="-.077135" width="1.1269" height="1.1543" color-interpolation-filters="sRGB">
   <feGaussianBlur stdDeviation="0.59657906"/>
  </filter>
 </defs>
 <g stroke-linecap="round" stroke-linejoin="round">
  <rect transform="matrix(3.747 0 0 3.7796 .24696 -.004203)" x=".79375" y=".90545" width="15.346" height="15.346" rx="3.0526" ry="3.0526" filter="url(#filter1178)" opacity=".15" stroke-width="1.2489" style="mix-blend-mode:normal"/>
  <rect x="3.4711" y="3.4887" width="57" height="57" rx="11.339" ry="11.339" fill="url(#linearGradient1340)" stroke-width="4.6391"/>
  <rect x=".017008" y=".011338" width="63.966" height="63.977" fill="none" opacity=".15" stroke-width="3.9761"/>
 </g>
 <g fill="#eceff4" stroke-linecap="round" stroke-width="2.115">
  <path d="m36.861 30.551c0.10965 0.1125 0.21628 0.23538 0.32812 0.33984 0.24265 0.22665 0.48979 0.43498 0.73828 0.62695s0.49788 0.36771 0.74609 0.5293c0.18868 0.12283 0.37039 0.22978 0.54492 0.32422 0.17453 0.094438 0.34219 0.17563 0.50586 0.25 0.038125 0.017323 0.07173 0.028409 0.10938 0.044922h0.83008v-1.291c-0.26705-0.17735-0.51557-0.36157-0.74414-0.55078-0.10778-0.089221-0.19464-0.18235-0.29297-0.27344h-2.7656z" color="#000000" opacity=".3"/>
  <path d="m43.766 30.551v2.1152h7.4004a1.0575 1.0575 0 0 0 1.0586-1.0566 1.0575 1.0575 0 0 0-1.0586-1.0586h-7.4004z" color="#000000" opacity=".3"/>
  <path d="m43.77 20.186 0.001953 2.1152h7.3945a1.0575 1.0575 0 0 0 1.0586-1.0566 1.0575 1.0575 0 0 0-1.0586-1.0586h-7.3965z" color="#000000" opacity=".3"/>
  <path d="m33.963 20.186v2.1152h6.709v-2.1152h-6.709z" color="#000000" opacity=".3"/>
  <path d="m31.006 32.666h3.623c-0.16922-0.17708-0.34167-0.34296-0.50586-0.53516-0.15094-0.1767-0.29978-0.35906-0.44531-0.54883s-0.28873-0.38671-0.42773-0.58984c-0.097503-0.14249-0.18938-0.29222-0.2832-0.44141h-1.9609v2.1152z" color="#000000" opacity=".3"/>
  <path d="m26.869 30.551h-2.7676c0.10971 0.11258 0.21622 0.23531 0.32813 0.33984 0.24246 0.22648 0.48998 0.43511 0.73828 0.62695s0.49805 0.36782 0.74609 0.5293c0.18883 0.12293 0.3702 0.22976 0.54492 0.32422 0.17472 0.094455 0.342 0.17566 0.50586 0.25 0.0381 0.017286 0.071754 0.028444 0.10938 0.044922h0.83203v-1.291c-0.26705-0.17735-0.51557-0.36157-0.74414-0.55078-0.10778-0.089221-0.19464-0.18235-0.29297-0.27344z" color="#000000" opacity=".3"/>
  <path d="m21.205 20.186v2.1152h6.709l-0.001953-2.1152h-6.707z" color="#000000" opacity=".3"/>
  <path d="m48.076 51.281c-0.032369 0.037666-0.056643 0.075852-0.091797 0.11328-0.11421 0.12161-0.24334 0.24026-0.38477 0.35742-0.14142 0.11717-0.29566 0.23204-0.46094 0.3418v1.0078c0.18796-0.073273 0.37886-0.14474 0.58203-0.23633 0.20317-0.091589 0.41861-0.2033 0.65234-0.35547 0.15352-0.099941 0.30727-0.20937 0.46094-0.32812 0.15367-0.11876 0.30698-0.24651 0.45703-0.38672s0.2968-0.29272 0.43945-0.45703c0.015083-0.017373 0.027991-0.038982 0.042969-0.056641h-1.6973z" color="#000000" opacity=".3"/>
  <path d="m40.182 51.281c-0.032369 0.037666-0.056643 0.075852-0.091797 0.11328-0.11421 0.12161-0.24334 0.24026-0.38477 0.35742-0.14142 0.11717-0.29566 0.23204-0.46094 0.3418v1.0078c0.18786-0.073267 0.37782-0.14471 0.58008-0.23633 0.20226-0.091621 0.41684-0.20343 0.65039-0.35547 0.15362-0.10001 0.30909-0.20931 0.46289-0.32812s0.30684-0.24645 0.45703-0.38672c0.1502-0.14027 0.29666-0.29264 0.43945-0.45703 0.015065-0.017342 0.028011-0.039015 0.042969-0.056641h-1.6953z" color="#000000" opacity=".3"/>
  <path d="m15.053 3.4883v6.332h-3.9062a1.0575 1.0575 0 0 0-1.0566 1.0586 1.0575 1.0575 0 0 0 1.0566 1.0566h3.9062v8.25h-3.9062a1.0575 1.0575 0 0 0-1.0566 1.0586 1.0575 1.0575 0 0 0 1.0566 1.0566h3.9062v8.25h-3.9062a1.0575 1.0575 0 0 0-1.0566 1.0586 1.0575 1.0575 0 0 0 1.0566 1.0566h3.9062v8.25h-3.9062a1.0575 1.0575 0 0 0-1.0566 1.0586 1.0575 1.0575 0 0 0 1.0566 1.0566h3.9062v8.25h-3.9062a1.0575 1.0575 0 0 0-1.0566 1.0586 1.0575 1.0575 0 0 0 1.0566 1.0566h3.9062v7.0918h2.6113v-7.0918h19.66v-2.1152h-19.66v-8.25h19.658v-1.0547h14.902364a1.0575 1.0575 0 0 0 0-0.001953 1.0575 1.0575 0 0 0-1.0586-1.0586h-33.502v-8.25h4.2051c-0.16917-0.17708-0.34173-0.34296-0.50586-0.53516-0.15089-0.1767-0.29984-0.35906-0.44531-0.54883s-0.28684-0.38671-0.42578-0.58984c-0.09752-0.14258-0.19132-0.29213-0.28516-0.44141h-2.543v-8.25h0.43945v-2.1152h-0.43945v-8.25h33.502a1.0575 1.0575 0 0 0 1.0586-1.0566 1.0575 1.0575 0 0 0-1.0586-1.0586h-33.502v-6.332h-2.6113z" color="#000000" opacity=".3"/>
 </g>
 <g fill="#2e3440" filter="url(#filter2331)" opacity=".49138">
  <g fill="#2e3440">
   <path d="m29.46 16.58h-9.8059v7.9432c1.3692 9.3677 9.8015 10.619 9.8015 10.619v-4.5588c-2.7915-1.2598-2.4806-3.2815-2.4806-3.2815h2.4901z" color="#000000" style="-inkscape-stroke:none;paint-order:stroke markers fill"/>
   <path d="m42.219 16.58h-9.8059v7.9432c1.3692 9.3677 9.8015 10.619 9.8015 10.619v-4.5588c-2.7915-1.2598-2.4806-3.2815-2.4806-3.2815h2.4901z" color="#000000" style="-inkscape-stroke:none;paint-order:stroke markers fill"/>
  </g>
 </g>
 <g fill="url(#linearGradient2196)">
  <path d="m29.46 16.58h-9.8059v7.9432c1.3692 9.3677 9.8015 10.619 9.8015 10.619v-4.5588c-2.7915-1.2598-2.4806-3.2815-2.4806-3.2815h2.4901z" color="#000000" style="-inkscape-stroke:none;paint-order:stroke markers fill"/>
  <path d="m42.219 16.58h-9.8059v7.9432c1.3692 9.3677 9.8015 10.619 9.8015 10.619v-4.5588c-2.7915-1.2598-2.4806-3.2815-2.4806-3.2815h2.4901z" color="#000000" style="-inkscape-stroke:none;paint-order:stroke markers fill"/>
 </g>
 <g fill="#2e3440" filter="url(#filter2310)" opacity=".3">
  <path d="m46.177 42.936h6.069v4.9161c-0.84739 5.7978-6.0662 6.5722-6.0662 6.5722v-2.8215c1.7277-0.77967 1.5353-2.0309 1.5353-2.0309h-1.5411z" color="#000000" style="-inkscape-stroke:none;paint-order:stroke markers fill"/>
  <path d="m38.281 42.936h6.069v4.9161c-0.84739 5.7978-6.0662 6.5722-6.0662 6.5722v-2.8215c1.7277-0.77967 1.5353-2.0309 1.5353-2.0309h-1.5411z" color="#000000" style="-inkscape-stroke:none;paint-order:stroke markers fill"/>
 </g>
 <g fill="url(#linearGradient2258)">
  <path d="m46.177 42.936h6.069v4.9161c-0.84739 5.7978-6.0662 6.5722-6.0662 6.5722v-2.8215c1.7277-0.77967 1.5353-2.0309 1.5353-2.0309h-1.5411z" color="#000000" style="-inkscape-stroke:none;paint-order:stroke markers fill"/>
  <path d="m38.281 42.936h6.069v4.9161c-0.84739 5.7978-6.0662 6.5722-6.0662 6.5722v-2.8215c1.7277-0.77967 1.5353-2.0309 1.5353-2.0309h-1.5411z" color="#000000" style="-inkscape-stroke:none;paint-order:stroke markers fill"/>
 </g>
</svg>
