<svg width="64" height="64" version="1.1" viewBox="0 0 16.933 16.933" xmlns="http://www.w3.org/2000/svg">
 <defs>
  <filter id="filter1540" x="-.0238" y="-.031194" width="1.0476" height="1.0624" color-interpolation-filters="sRGB">
   <feGaussianBlur stdDeviation="0.069602624"/>
  </filter>
  <linearGradient id="linearGradient4822" x1="8.3569" x2="8.363" y1="5.5739" y2="11.608" gradientTransform="matrix(1.6974 0 0 1.6974 -6.0255 -6.9311)" gradientUnits="userSpaceOnUse">
   <stop stop-color="#5e81ac" offset="0"/>
   <stop stop-color="#81a1c1" offset="1"/>
  </linearGradient>
  <filter id="filter1438" x="-.0057577" y="-.0097294" width="1.0115" height="1.0195" color-interpolation-filters="sRGB">
   <feGaussianBlur stdDeviation="0.042344636"/>
  </filter>
  <linearGradient id="linearGradient4322" x1="8.7575" x2="8.7259" y1="11.518" y2="9.1016" gradientTransform="matrix(1.6974 0 0 1.6974 -3.1147 -6.9109)" gradientUnits="userSpaceOnUse">
   <stop stop-color="#81a1c1" offset="0"/>
   <stop stop-color="#88c0d0" offset="1"/>
  </linearGradient>
  <filter id="filter1396" x="-.021818" y="-.035409" width="1.0436" height="1.0708" color-interpolation-filters="sRGB">
   <feGaussianBlur stdDeviation="0.05305798"/>
  </filter>
  <linearGradient id="linearGradient3668" x1="8.4703" x2="8.4975" y1="11.783" y2="8.8592" gradientTransform="matrix(1.6974 0 0 1.6974 -6.0255 -6.9311)" gradientUnits="userSpaceOnUse">
   <stop stop-color="#81a1c1" offset="0"/>
   <stop stop-color="#88c0d0" offset="1"/>
  </linearGradient>
  <filter id="filter1354" x="-.065035" y="-.052186" width="1.1301" height="1.1044" color-interpolation-filters="sRGB">
   <feGaussianBlur stdDeviation="0.035481374"/>
  </filter>
  <filter id="filter1480" x="-.030324" y="-.024333" width="1.0606" height="1.0487" color-interpolation-filters="sRGB">
   <feGaussianBlur stdDeviation="0.0096310126"/>
  </filter>
  <linearGradient id="linearGradient5062" x1="10.908" x2="10.908" y1="6.763" y2="7.7111" gradientTransform="matrix(1.6974 0 0 1.6974 -6.0255 -6.9311)" gradientUnits="userSpaceOnUse">
   <stop stop-color="#d8dee9" offset="0"/>
   <stop stop-color="#eceff4" offset="1"/>
  </linearGradient>
  <linearGradient id="linearGradient15832" x1="6.2512" x2="6.248" y1="11.776" y2="8.3295" gradientTransform="matrix(1.6974 0 0 1.6974 -5.9278 -6.9984)" gradientUnits="userSpaceOnUse">
   <stop stop-color="#4c566a" offset="0"/>
   <stop stop-color="#2e3440" stop-opacity=".2" offset=".71906"/>
   <stop stop-color="#4c566a" offset="1"/>
  </linearGradient>
  <linearGradient id="linearGradient19984" x1="6.232" x2="6.2178" y1="8.4291" y2="11.651" gradientTransform="matrix(1.6771 0 0 1.7019 -5.7969 -7.0512)" gradientUnits="userSpaceOnUse">
   <stop stop-color="#4c566a" offset="0"/>
   <stop stop-color="#4c566a" stop-opacity=".7" offset=".30175"/>
   <stop stop-color="#4c566a" offset="1"/>
  </linearGradient>
  <radialGradient id="radialGradient22140" cx="7.2235" cy="9.2427" r="1.2593" gradientTransform="matrix(2.7018 .01227 -.01442 3.2556 -15.968 -20.684)" gradientUnits="userSpaceOnUse">
   <stop stop-color="#eceff4" stop-opacity=".7" offset="0"/>
   <stop stop-color="#4c566a" stop-opacity=".7" offset="1"/>
  </radialGradient>
  <linearGradient id="linearGradient1340-7" x1="8.6644" x2="8.6644" y1="15.931" y2=".79375" gradientTransform="translate(-.0076499 -.0030174)" gradientUnits="userSpaceOnUse">
   <stop stop-color="#5e81ac" offset="0"/>
   <stop stop-color="#88c0d0" offset="1"/>
  </linearGradient>
  <filter id="filter1886" x="-.21021" y="-.16868" width="1.4204" height="1.3374" color-interpolation-filters="sRGB">
   <feGaussianBlur stdDeviation="0.33855036"/>
  </filter>
  <filter id="filter1178" x="-.047999" y="-.047999" width="1.096" height="1.096" color-interpolation-filters="sRGB">
   <feGaussianBlur stdDeviation="0.30691668"/>
  </filter>
 </defs>
 <rect transform="matrix(.99138 0 0 1 .072734 -.11195)" x=".79375" y=".90545" width="15.346" height="15.346" rx="3.0526" ry="3.0526" filter="url(#filter1178)" opacity=".15" stroke-width="1.2489" style="mix-blend-mode:normal"/>
 <rect x=".91839" y=".92302" width="15.081" height="15.081" rx="3" ry="3" fill="url(#linearGradient1340-7)" stroke-linecap="round" stroke-linejoin="round" stroke-width="1.2274"/>
 <rect x=".0045001" y=".003" width="16.924" height="16.927" fill="none" opacity=".15" stroke-linecap="round" stroke-linejoin="round" stroke-width="1.052"/>
 <g fill="#2e3440">
  <rect transform="matrix(1.6974 0 0 1.6974 -22.588 -6.1935)" x="14.907" y="6.1319" width="7.0187" height="5.355" ry=".84368" filter="url(#filter1540)" opacity=".0375" style="mix-blend-mode:normal"/>
  <rect x="2.635" y="4.1141" width="11.913" height="9.0893" ry="1.432" filter="url(#filter1886)" opacity=".25" stroke-width="1.6974"/>
  <g stroke="#2e3440" stroke-linecap="round" stroke-linejoin="round">
   <ellipse transform="matrix(1.6974 0 0 1.6974 -22.588 -6.1935)" cx="16.178" cy="9.901" rx="1.4041" ry="1.7498" filter="url(#filter1354)" opacity=".0375" stroke-width=".19495"/>
   <ellipse cx="4.812" cy="10.488" rx="2.3833" ry="2.97" filter="url(#filter1886)" opacity=".25" stroke-width=".3309"/>
   <ellipse cx="4.812" cy="10.488" rx="2.3149" ry="2.8848" filter="url(#filter1886)" opacity=".25" stroke-width=".32139"/>
   <ellipse cx="4.798" cy="10.482" rx="2.3025" ry="2.8631" filter="url(#filter1886)" opacity=".25" stroke-width=".27872"/>
  </g>
  <ellipse cx="4.801" cy="10.483" rx="2.1599" ry="2.7377" filter="url(#filter1886)" opacity=".25" stroke-width="1.6974"/>
  <rect transform="matrix(1.6974,0,0,1.6974,-22.657,-6.578)" x="14.907" y="6.1319" width="7.0187" height="5.355" ry=".84368" filter="url(#filter1540)" opacity=".15" style="mix-blend-mode:normal"/>
 </g>
 <rect x="2.5664" y="3.73" width="11.914" height="9.0896" ry="1.4321" fill="url(#linearGradient4822)" stroke-width="1.6974"/>
 <path transform="matrix(.4491 0 0 .4491 -6.0255 -6.9311)" d="m39.803 33.533v2e-3c-0.74368-2.43e-4 -11.793 10.406-11.793 10.406l8.2051 0.03711h6.2559c1.7666 0 3.1895-1.4229 3.1895-3.1895v-2.627c-1.2109-1.0599-5.3261-4.6287-5.8574-4.6289z" fill="#2e3440" filter="url(#filter1438)" opacity=".15"/>
 <path d="m11.689 8.1289c-0.33398-1.092e-4 -5.2957 4.6738-5.2957 4.6738l3.6849 0.01663h2.9699c0.79338 0 1.4324-0.63812 1.4324-1.4315v-1.0394s-2.5116-2.2195-2.7915-2.2197z" fill="url(#linearGradient4322)" opacity=".7" stroke-width=".4491"/>
 <path transform="matrix(1.6974 0 0 1.6974 -6.0255 -6.9311)" d="m8.5767 8.0398c-0.26678 0.010342-1.7013 1.789-3.0324 3.4779 0.12484 0.07425 0.27069 0.11741 0.42685 0.11834h5.3366c0.02463 0 0.04878-0.0011 0.07286-0.0031-0.05228-0.02391-2.4866-3.6054-2.804-3.593z" fill="#2e3440" filter="url(#filter1396)" opacity=".15" stroke-width=".26458"/>
 <path d="m8.412 6.7156c-0.45283 0.017554-2.8878 3.0366-5.1472 5.9034 0.2119 0.12603 0.45947 0.19929 0.72454 0.20087h9.0583c0.04181 0 0.0828-0.0019 0.12367-0.0053-0.08874-0.04059-4.2208-6.1198-4.7595-6.0988z" fill="url(#linearGradient3668)" stroke-width=".4491"/>
 <ellipse transform="matrix(1.6974,0,0,1.6974,-22.657,-6.578)" cx="16.178" cy="9.901" rx="1.4041" ry="1.7498" fill="#2e3440" filter="url(#filter1354)" opacity=".15" stroke="#2e3440" stroke-linecap="round" stroke-linejoin="round" stroke-width=".19495"/>
 <ellipse transform="matrix(1.6974,0,0,1.6974,-22.657,-6.578)" cx="20.731" cy="7.0615" rx=".38112" ry=".47497" fill="#2e3440" filter="url(#filter1480)" opacity=".15"/>
 <ellipse cx="12.493" cy="5.3557" rx=".64691" ry=".80621" fill="url(#linearGradient5062)" opacity=".7" stroke-width="1.6974"/>
 <g fill="none" stroke-linecap="round" stroke-linejoin="round">
  <ellipse cx="4.7436" cy="10.104" rx="2.3833" ry="2.9701" stroke="url(#linearGradient15832)" stroke-width=".33091"/>
  <ellipse cx="4.7436" cy="10.104" rx="2.3149" ry="2.8849" stroke="#eceff4" stroke-width=".3214"/>
  <ellipse cx="4.7464" cy="10.097" rx="2.21" ry="2.795" stroke="url(#linearGradient19984)" stroke-width=".14162"/>
 </g>
 <ellipse cx="4.7322" cy="10.099" rx="2.1599" ry="2.7377" fill="url(#radialGradient22140)" stroke-width="1.6974"/>
</svg>
