<?xml version="1.0" encoding="UTF-8" standalone="no"?>
<svg
   width="64"
   height="64"
   version="1.1"
   id="svg44"
   xml:space="preserve"
   xmlns="http://www.w3.org/2000/svg"
   xmlns:svg="http://www.w3.org/2000/svg"><defs
     id="defs22"><linearGradient
       id="a"
       x1="7.937"
       x2="7.937"
       y1="15.081"
       y2="1.852"
       gradientTransform="translate(0 .032) scale(3.7795)"
       gradientUnits="userSpaceOnUse"><stop
         stop-color="#f1efeb"
         offset="0"
         id="stop2"
         style="stop-color:#d8dee9;stop-opacity:1;" /><stop
         stop-color="#fdfcfc"
         offset="1"
         id="stop4"
         style="stop-color:#eceff4;stop-opacity:1;" /></linearGradient><linearGradient
       id="d"
       x1="35.117"
       x2="35.117"
       y1="45.229"
       y2="19.409"
       gradientUnits="userSpaceOnUse"><stop
         stop-color="#292929"
         offset="0"
         id="stop7"
         style="stop-color:#2e3440;stop-opacity:1;" /><stop
         stop-color="#757575"
         offset="1"
         id="stop9"
         style="stop-color:#4c566a;stop-opacity:1;" /></linearGradient><radialGradient
       id="b"
       cx="32"
       cy="32"
       r="21"
       gradientUnits="userSpaceOnUse"><stop
         stop-opacity=".05"
         offset="0"
         id="stop12"
         style="stop-color:#eceff4;stop-opacity:0.05098039;" /><stop
         stop-opacity=".05"
         offset=".827"
         id="stop14" /><stop
         stop-opacity=".15"
         offset="1"
         id="stop16"
         style="stop-color:#2e3440;stop-opacity:0.14901961;" /></radialGradient><filter
       id="c"
       x="-0.046612096"
       y="-0.049468192"
       width="1.0932242"
       height="1.0989364"
       color-interpolation-filters="sRGB"><feGaussianBlur
         stdDeviation=".624"
         id="feGaussianBlur19" /></filter><filter
       id="filter1178"
       x="-0.047999482"
       y="-0.047999482"
       width="1.095999"
       height="1.095999"
       color-interpolation-filters="sRGB"><feGaussianBlur
         stdDeviation="0.30691668"
         id="feGaussianBlur2878" /></filter><linearGradient
       id="linearGradient1340"
       x1="8.355"
       x2="8.3996"
       y1="16.007"
       y2=".79375"
       gradientUnits="userSpaceOnUse"><stop
         stop-color="#d8dee9"
         offset="0"
         id="stop2881" /><stop
         stop-color="#eceff4"
         offset="1"
         id="stop2883" /></linearGradient></defs><g
     stroke-linecap="round"
     stroke-linejoin="round"
     id="g2894"
     transform="matrix(3.779602,0,0,3.779602,-0.02891388,-0.32640291)"><rect
       transform="matrix(0.99138,0,0,1,0.072989,2.5202e-7)"
       x="0.79374999"
       y="1.0171"
       width="15.346"
       height="15.346"
       rx="3.0525999"
       ry="3.0525999"
       fill="#2e3440"
       filter="url(#filter1178)"
       opacity="0.2"
       stroke-width="1.2489"
       style="mix-blend-mode:normal"
       id="rect2888" /><rect
       x="0.92603999"
       y="0.92603999"
       width="15.081"
       height="15.081"
       rx="3"
       ry="3"
       fill="url(#linearGradient1340)"
       stroke-width="1.2274"
       id="rect2890"
       style="fill:url(#linearGradient1340)" /><rect
       x="0.01215"
       y="0.0060174"
       width="16.924"
       height="16.927"
       fill="none"
       opacity="0.15"
       stroke-width="1.052"
       id="rect2892" /></g><circle
     cx="32"
     cy="32"
     r="21"
     fill="url(#b)"
     id="circle38" /><path
     d="M31.883 18.051c-7.843 0-14.302 6.088-14.961 13.818h-2.156l3.738 6.377 3.682-6.377h-2.389c.641-6.163 5.79-10.928 12.086-10.928 6.731 0 12.156 5.448 12.156 12.229s-5.425 12.264-12.156 12.264c-3.389 0-6.433-1.403-8.637-3.647 0 0-.39-.399-.627-.625-.433-.413-.781-.266-1.078-.027-.347.278-.65.515-.988.832-.278.228-.437.608-.178.916 2.761 3.317 6.893 5.442 11.508 5.442 8.279 0 15.012-6.816 15.012-15.154 0-8.339-6.733-15.12-15.012-15.12zm-.168 5.201c-.304 0-.523 7.18-.785 10.771 2.244 1.814 6.537 5.639 6.732 5.444.203-.204-3.441-3.78-5.162-5.668-.262-3.516-.452-10.547-.785-10.547z"
     filter="url(#c)"
     opacity=".15"
     id="path40" /><path
     d="M31.883 17.006c-7.843 0-14.302 6.088-14.961 13.818h-2.156l3.738 6.377 3.682-6.377h-2.389c.641-6.163 5.79-10.928 12.086-10.928 6.731 0 12.156 5.448 12.156 12.229s-5.425 12.264-12.156 12.264c-3.389 0-6.433-1.403-8.637-3.647 0 0-.39-.399-.627-.625-.433-.413-.781-.266-1.078-.027-.347.278-.65.515-.988.832-.278.228-.437.608-.178.916 2.761 3.317 6.893 5.442 11.508 5.442 8.279 0 15.012-6.816 15.012-15.154 0-8.339-6.733-15.12-15.012-15.12zm-.168 5.201c-.304 0-.523 7.18-.785 10.771 2.244 1.814 6.537 5.639 6.732 5.444.203-.204-3.441-3.78-5.162-5.668-.262-3.516-.452-10.547-.785-10.547z"
     fill="url(#d)"
     id="path42" /></svg>
