<svg width="64" height="64" version="1.1" viewBox="0 0 16.933 16.933" xmlns="http://www.w3.org/2000/svg">
 <defs>
  <filter id="filter1178" x="-.047999" y="-.047999" width="1.096" height="1.096" color-interpolation-filters="sRGB">
   <feGaussianBlur stdDeviation="0.30691668"/>
  </filter>
  <linearGradient id="linearGradient1340" x1="15.487" x2="-1.2985" y1="14.723" y2=".3478" gradientUnits="userSpaceOnUse">
   <stop stop-color="#5e81ac" offset="0"/>
   <stop stop-color="#88c0d0" offset="1"/>
  </linearGradient>
  <linearGradient id="linearGradient4434" x1="439.57" x2="429.57" y1="502.8" y2="512.8" gradientTransform="matrix(.1695 0 0 .1695 -61.985 -78.046)" gradientUnits="userSpaceOnUse">
   <stop stop-color="#2e3440" offset="0"/>
   <stop stop-opacity="0" offset="1"/>
  </linearGradient>
  <linearGradient id="linearGradient998" x1="8.1989" x2="8.1989" y1="2.7036" y2="4.3797" gradientTransform="translate(.14696)" gradientUnits="userSpaceOnUse">
   <stop stop-color="#eceff4" offset="0"/>
   <stop stop-color="#d8dee9" offset="1"/>
  </linearGradient>
  <filter id="filter2314" x="-.048461" y="-.047548" width="1.0969" height="1.0951" color-interpolation-filters="sRGB">
   <feGaussianBlur stdDeviation="0.17797237"/>
  </filter>
 </defs>
 <rect transform="matrix(.99138 0 0 1 .072989 .0019055)" x=".79375" y=".90545" width="15.346" height="15.346" rx="3.0526" ry="3.0526" filter="url(#filter1178)" opacity=".15" stroke-linecap="round" stroke-linejoin="round" stroke-width="1.2489" style="mix-blend-mode:normal"/>
 <rect x=".92604" y=".92604" width="15.081" height="15.081" rx="3" ry="3" fill="url(#linearGradient1340)" stroke-linecap="round" stroke-linejoin="round" stroke-width="1.2274"/>
 <path d="m12.22 0.94628c0.0517 0.77655 0.08986 1.7142 0.09959 2.7289" fill="#434c5e" stroke="#434c5e" stroke-width=".55561"/>
 <rect x=".01215" y=".0060174" width="16.924" height="16.927" fill="none" opacity=".15" stroke-linecap="round" stroke-linejoin="round" stroke-width="1.052"/>
 <g fill="#2e3440" filter="url(#filter2314)" opacity=".3" stroke-width=".1695">
  <path d="m10.15 4.8086-1.017 1.017 1.8645 1.8645-1.8645 1.8645 1.017 1.017 2.8815-2.8815z" fill-rule="evenodd"/>
  <rect x="5.8697" y="4.9781" width="1.0593" height="1.0593" rx=".52969"/>
  <rect x="4.2171" y="8.2835" width="1.5255" height="1.5255" rx=".76274"/>
  <rect x="6.4206" y="11.588" width="2.2035" height="2.2035" rx="1.1017"/>
  <path d="m9.8102 8.8766 1.017 1.017 1.1865-1.1865-1.017-1.017z" fill-rule="evenodd" opacity=".9"/>
 </g>
 <g stroke-width=".1695">
  <g fill="#434c5e">
   <path d="m10.15 4.8086-1.017 1.017 1.8645 1.8645-1.8645 1.8645 1.017 1.017 2.8815-2.8815z" fill-rule="evenodd"/>
   <rect x="5.8697" y="4.9781" width="1.0593" height="1.0593" rx=".52969"/>
   <rect x="4.2171" y="8.2835" width="1.5255" height="1.5255" rx=".76274"/>
   <rect x="6.4206" y="11.588" width="2.2035" height="2.2035" rx="1.1017"/>
  </g>
  <path d="m9.8102 8.8766 1.017 1.017 1.1865-1.1865-1.017-1.017z" fill="url(#linearGradient4434)" fill-rule="evenodd" opacity=".9"/>
 </g>
 <path d="m4.636 3.6752c0.00327-1.0163 0.03547-1.9536 0.084017-2.7291" fill="#434c5e" stroke="#434c5e" stroke-width=".55561"/>
 <g fill-rule="evenodd">
  <circle cx="4.6754" cy="3.5822" r=".8304" fill="url(#linearGradient998)" stroke-width=".26458"/>
  <circle cx="12.273" cy="3.5822" r=".8304" fill="url(#linearGradient998)" stroke-width=".26458"/>
  <circle cx="4.6754" cy="3.5822" r=".39947" fill="#434c5e" stroke-width=".12728"/>
  <circle cx="12.273" cy="3.5822" r=".39947" fill="#434c5e" stroke-width=".12728"/>
 </g>
</svg>
