<svg width="64" height="64" version="1.1" viewBox="0 0 16.933 16.933" xmlns="http://www.w3.org/2000/svg">
 <defs>
  <filter id="filter1178" x="-.047999" y="-.047999" width="1.096" height="1.096" color-interpolation-filters="sRGB">
   <feGaussianBlur stdDeviation="0.30691668"/>
  </filter>
  <linearGradient id="linearGradient1340" x1="8.355" x2="8.3323" y1="16.007" y2="-11.349" gradientTransform="translate(-.0076499 -.0030174)" gradientUnits="userSpaceOnUse">
   <stop stop-color="#bf616a" offset="0"/>
   <stop stop-color="#ad85a5" offset="1"/>
  </linearGradient>
  <radialGradient id="radialGradient1048" cx="8.568" cy="3.2754" r="7.5405" gradientTransform="matrix(-2.3712 .040291 -.052698 -3.1014 29.013 11.891)" gradientUnits="userSpaceOnUse">
   <stop stop-color="#b48ead" offset="0"/>
   <stop stop-color="#bf616a" offset="1"/>
  </radialGradient>
  <filter id="filter1128" x="-.092838" y="-.084753" width="1.1857" height="1.1695" color-interpolation-filters="sRGB">
   <feGaussianBlur stdDeviation="0.13518159"/>
  </filter>
 </defs>
 <g stroke-linecap="round" stroke-linejoin="round">
  <rect transform="matrix(.99138 0 0 1 .072989 .0019055)" x=".79375" y=".90545" width="15.346" height="15.346" rx="3.0526" ry="3.0526" filter="url(#filter1178)" opacity=".15" stroke-width="1.2489" style="mix-blend-mode:normal"/>
  <rect x=".91839" y=".92302" width="15.081" height="15.081" rx="3" ry="3" fill="url(#linearGradient1340)" stroke-width="1.2274"/>
  <rect x=".0045001" y=".003" width="16.924" height="16.927" fill="none" opacity=".15" stroke-width="1.052"/>
  <path d="m3.9184 1.9813h9.081c1.662 0 3 1.338 3 3v7.4935c0 1.662-1.338 3-3 3h-9.081c-1.662 0-3-1.338-3-3v-7.4935c0-1.662 1.338-3 3-3z" fill="url(#radialGradient1048)" stroke-width="1.2274"/>
  <path d="m10.221 8.1582-3.1912-1.7775m1.5539 2.6418-0.020775 3.4706m-3.1082-5.1158 3.129 1.6452 3.2746-1.7287m-6.4324 0.04119v3.4862l3.137 1.6719 3.3144-1.8243v-3.3959l-3.2437-1.8466z" fill="none" filter="url(#filter1128)" opacity=".2" stroke="#2e3440" stroke-width=".549"/>
 </g>
 <rect x="7.5363" y=".92302" width="1.8453" height="1.9128" fill="#eceff4" opacity=".4"/>
 <rect x="7.5363" y="14.091" width="1.8453" height="1.9128" fill="#eceff4" opacity=".4"/>
 <path d="m10.028 7.9265-3.1912-1.7775m1.5539 2.6418-0.020775 3.4706m-3.1082-5.1158 3.129 1.6452 3.2746-1.7287m-6.4324 0.04119v3.4862l3.137 1.6719 3.3144-1.8243v-3.3959l-3.2437-1.8466z" fill="none" stroke="#d8dee9" stroke-linecap="round" stroke-linejoin="round" stroke-width=".549"/>
</svg>
