<svg id="svg25" width="64" height="64" version="1.1" viewBox="0 0 16.933 16.933" xmlns="http://www.w3.org/2000/svg" xmlns:xlink="http://www.w3.org/1999/xlink">
 <defs id="defs13">
  <linearGradient id="a" x1="11.856" x2="4.3141" y1="16.792" y2="1.6516" gradientTransform="matrix(1.0178 0 0 1.0178 -.15085 -.14268)" gradientUnits="userSpaceOnUse">
   <stop id="stop2" stop-color="#5e81ac" offset="0"/>
   <stop id="stop4" stop-color="#88c0d0" offset="1"/>
  </linearGradient>
  <filter id="filter1178" x="-.047999482" y="-.047999482" width="1.095999" height="1.095999" color-interpolation-filters="sRGB">
   <feGaussianBlur id="feGaussianBlur7" stdDeviation="0.30691668"/>
  </filter>
  <linearGradient id="linearGradient1247" x1="8.6470022" x2="8.6470022" y1="3.6562941" y2="13.18401" gradientUnits="userSpaceOnUse">
   <stop id="stop1241" style="stop-color:#eceff4" offset="0"/>
   <stop id="stop1243" style="stop-color:#d8dee9" offset="1"/>
  </linearGradient>
  <filter id="filter1340" x="-.036588476" y="-.050858259" width="1.073177" height="1.1017165" style="color-interpolation-filters:sRGB">
   <feGaussianBlur id="feGaussianBlur1342" stdDeviation="0.20072679"/>
  </filter>
 </defs>
 <g id="g17" transform="translate(-.00025546 -.11386)">
  <rect id="rect15" transform="matrix(.99138 0 0 1 .072989 .0019055)" x=".79375" y=".90545" width="15.346" height="15.346" rx="3.0526" ry="3.0526" filter="url(#filter1178)" opacity=".15" stroke-linecap="round" stroke-linejoin="round" stroke-width="1.2489" style="mix-blend-mode:normal"/>
 </g>
 <rect id="rect19" x=".926" y=".92602" width="15.081" height="15.081" rx="3.0536" ry="3.0535" fill="url(#a)" stroke-width="1.0178"/>
 <path id="rect1008" d="m10.102066 6.8452446h1.199981c0.04559 0 0.08229 0.041286 0.08229 0.09257v1.0251288c0 0.051284-0.0367 0.09257-0.08229 0.09257h-1.199981c-0.04559 0-0.08229-0.041286-0.08229-0.09257v-1.0251289c0-0.051284 0.0367-0.09257 0.08229-0.09257zm-6.466977 0h1.1999833c0.045584 0 0.082284 0.041286 0.082284 0.09257v1.0251288c0 0.051284-0.036703 0.09257-0.082284 0.09257h-1.1999833c-0.045584 0-0.082284-0.041286-0.082284-0.09257v-1.0251289c0-0.051284 0.036703-0.09257 0.082284-0.09257zm10.224931 0.3340046c-0.145849-1.0574039-1.138996-1.5431851-1.138996-1.5431851-1.011825 1.4630459-0.242005 2.4635167-0.242005 2.4635167-0.136166 0.080354-0.534512 0.2133797-1.075346 0.2162324-2.2432157 0.011834-6.8768972 0.00384-8.5799715 0.011322-0.081342 0.00164-0.1974943 0.051341-0.2664226 0.1201914-0.064996 0.064925-0.113605 0.1730671-0.113605 0.2510886 0.1036656 4.0549598 2.2231572 4.6482798 4.7911101 4.6375508 2.3722291-0.01 5.028563-0.86786 6.343514-4.5125149 0 0 1.639966 0.090157 2.031934-1.309081 0 0-0.469477-0.5311018-1.750212-0.3351175zm-8.6049996-0.3340046h1.1999826c0.045584 0 0.082284 0.041286 0.082284 0.09257v1.0251288c0 0.051284-0.036703 0.09257-0.082284 0.09257h-1.1999826c-0.045584 0-0.082284-0.041286-0.082284-0.09257v-1.0251289c0-0.051284 0.036703-0.09257 0.082284-0.09257zm1.6132903 0h1.1999832c0.045584 0 0.082284 0.041286 0.082284 0.09257v1.0251288c0 0.051284-0.036703 0.09257-0.082284 0.09257h-1.1999832c-0.045584 0-0.082285-0.041286-0.082285-0.09257v-1.0251289c0-0.051284 0.036703-0.09257 0.082285-0.09257zm-1.6196639-1.494035h1.1999825c0.045584 0 0.082284 0.041286 0.082284 0.09257v1.0251276c0 0.051284-0.036703 0.092571-0.082284 0.092571h-1.1999825c-0.045584 0-0.082284-0.041286-0.082284-0.092571v-1.0251276c0-0.051284 0.036703-0.09257 0.082284-0.09257zm1.6199314 0h1.1999826c0.045584 0 0.082284 0.041286 0.082284 0.09257v1.0251276c0 0.051284-0.036704 0.092571-0.082284 0.092571h-1.1999826c-0.045584 0-0.082285-0.041286-0.082285-0.092571v-1.0251276c0-0.051284 0.036703-0.09257 0.082285-0.09257zm1.6132902 1.494035h1.1999827c0.045584 0 0.082284 0.041286 0.082284 0.09257v1.0251288c0 0.051284-0.036704 0.09257-0.082284 0.09257h-1.1999827c-0.045584 0-0.082284-0.041286-0.082284-0.09257v-1.0251289c0-0.051284 0.036703-0.09257 0.082284-0.09257zm0-1.494035h1.1999827c0.045584 0 0.082284 0.041286 0.082284 0.09257v1.0251276c0 0.051284-0.036704 0.092571-0.082284 0.092571h-1.1999827c-0.045584 0-0.082284-0.041286-0.082284-0.092571v-1.0251276c0-0.051284 0.036703-0.09257 0.082284-0.09257zm0-1.487395h1.1999827c0.045584 0 0.082284 0.041286 0.082284 0.09257v1.0251281c0 0.051284-0.036704 0.09257-0.082284 0.09257h-1.1999827c-0.045584 0-0.082284-0.041286-0.082284-0.09257v-1.0251279c0-0.051284 0.036703-0.09257 0.082284-0.09257z" style="fill:#2e3440;filter:url(#filter1340);opacity:.51789077;stroke-linecap:round;stroke-linejoin:round;stroke-width:.0638754"/>
 <path id="path1336" d="m9.9686251 6.7118031h1.1999819c0.04559 0 0.08229 0.041286 0.08229 0.09257v1.0251288c0 0.051284-0.0367 0.09257-0.08229 0.09257h-1.1999819c-0.045587 0-0.08229-0.041286-0.08229-0.09257v-1.0251289c0-0.051284 0.036703-0.09257 0.08229-0.09257zm-6.4669776 0h1.1999833c0.045584 0 0.082284 0.041286 0.082284 0.09257v1.0251288c0 0.051284-0.036703 0.09257-0.082284 0.09257h-1.1999833c-0.045584 0-0.082284-0.041286-0.082284-0.09257v-1.0251289c0-0.051284 0.036703-0.09257 0.082284-0.09257zm10.224932 0.3340046c-0.145849-1.0574039-1.138996-1.5431851-1.138996-1.5431851-1.011825 1.4630459-0.242005 2.4635167-0.242005 2.4635167-0.136166 0.080354-0.534512 0.2133797-1.075346 0.2162324-2.2432172 0.011834-6.8768987 0.00384-8.579973 0.011322-0.081342 0.00164-0.1974943 0.051341-0.2664226 0.1201914-0.064996 0.064925-0.113605 0.1730671-0.113605 0.2510886 0.1036656 4.0549613 2.2231572 4.6482813 4.7911101 4.6375523 2.3722291-0.01 5.0285645-0.86786 6.3435155-4.5125164 0 0 1.639966 0.090157 2.031934-1.309081 0 0-0.469477-0.5311018-1.750212-0.3351175zm-8.6050011-0.3340046h1.1999826c0.045584 0 0.082284 0.041286 0.082284 0.09257v1.0251288c0 0.051284-0.036703 0.09257-0.082284 0.09257h-1.1999826c-0.045584 0-0.082284-0.041286-0.082284-0.09257v-1.0251289c0-0.051284 0.036703-0.09257 0.082284-0.09257zm1.6132903 0h1.1999832c0.045584 0 0.082284 0.041286 0.082284 0.09257v1.0251288c0 0.051284-0.036703 0.09257-0.082284 0.09257h-1.1999832c-0.045584 0-0.082285-0.041286-0.082285-0.09257v-1.0251289c0-0.051284 0.036703-0.09257 0.082285-0.09257zm-1.6196639-1.494035h1.1999825c0.045584 0 0.082284 0.041286 0.082284 0.09257v1.0251276c0 0.051284-0.036703 0.092571-0.082284 0.092571h-1.1999825c-0.045584 0-0.082284-0.041286-0.082284-0.092571v-1.0251276c0-0.051284 0.036703-0.09257 0.082284-0.09257zm1.6199314 0h1.1999826c0.045584 0 0.082284 0.041286 0.082284 0.09257v1.0251276c0 0.051284-0.036704 0.092571-0.082284 0.092571h-1.1999826c-0.045584 0-0.082285-0.041286-0.082285-0.092571v-1.0251276c0-0.051284 0.036703-0.09257 0.082285-0.09257zm1.6132902 1.494035h1.1999827c0.045584 0 0.082284 0.041286 0.082284 0.09257v1.0251288c0 0.051284-0.036704 0.09257-0.082284 0.09257h-1.1999827c-0.045584 0-0.082284-0.041286-0.082284-0.09257v-1.0251289c0-0.051284 0.036703-0.09257 0.082284-0.09257zm0-1.494035h1.1999827c0.045584 0 0.082284 0.041286 0.082284 0.09257v1.0251276c0 0.051284-0.036704 0.092571-0.082284 0.092571h-1.1999827c-0.045584 0-0.082284-0.041286-0.082284-0.092571v-1.0251276c0-0.051284 0.036703-0.09257 0.082284-0.09257zm0-1.487395h1.1999827c0.045584 0 0.082284 0.041286 0.082284 0.09257v1.0251281c0 0.051284-0.036704 0.09257-0.082284 0.09257h-1.1999827c-0.045584 0-0.082284-0.041286-0.082284-0.09257v-1.0251279c0-0.051284 0.036703-0.09257 0.082284-0.09257z" style="fill:url(#linearGradient1247);stroke-linecap:round;stroke-linejoin:round;stroke-width:.0638754"/>
</svg>
