<svg width="64" height="64" version="1.1" viewBox="0 0 16.933 16.933" xmlns="http://www.w3.org/2000/svg">
 <defs>
  <filter id="filter1178" x="-.047999" y="-.047999" width="1.096" height="1.096" color-interpolation-filters="sRGB">
   <feGaussianBlur stdDeviation="0.30691668"/>
  </filter>
  <linearGradient id="linearGradient1340" x1="8.355" x2="8.3996" y1="16.007" y2=".79375" gradientTransform="translate(-.0076499 -.0030174)" gradientUnits="userSpaceOnUse">
   <stop stop-color="#d8dee9" offset="0"/>
   <stop stop-color="#eceff4" offset="1"/>
  </linearGradient>
  <linearGradient id="linearGradient738" x2="0" y1="506" y2="1588" gradientTransform="matrix(.0066304 0 0 .0073642 1.6642 1.4499)" gradientUnits="userSpaceOnUse">
   <stop stop-color="#88c0d0" offset="0"/>
   <stop stop-color="#81a1c1" offset="1"/>
  </linearGradient>
 </defs>
 <g stroke-linecap="round" stroke-linejoin="round">
  <rect transform="matrix(.99138 0 0 1 .065339 -.0011119)" x=".79375" y=".90545" width="15.346" height="15.346" rx="3.0526" ry="3.0526" filter="url(#filter1178)" opacity=".15" stroke-width="1.2489" style="mix-blend-mode:normal"/>
  <rect x=".91839" y=".92302" width="15.081" height="15.081" rx="3" ry="3" fill="url(#linearGradient1340)" stroke-width="1.2274"/>
  <rect x=".0045001" y=".003" width="16.924" height="16.927" fill="none" opacity=".15" stroke-width="1.052"/>
 </g>
 <text x="-49.806946" y="19.370577" font-family="sans-serif" font-size="2.8222px" letter-spacing="0px" stroke-width=".26458" word-spacing="0px" style="line-height:1.25" xml:space="preserve"><tspan x="-49.806946" y="19.370577" stroke-width=".26458"/></text>
 <path d="m15.235 12.781c-0.045174-0.16815-0.32677-1.1822-0.80116-2.1545-0.62499-1.2809-1.1625-2.1966-2.0581-3.1266-0.28806-0.29912-0.56094-0.56642-0.84504-0.80636h3.11e-4s-0.0022-0.00171-0.0061-0.00496c-0.0053-0.00447-0.01062-0.00894-0.01593-0.013388-0.106-0.090962-0.55261-0.50893-0.39373-0.97036 0.05325-0.15465 0.18181-0.28315 0.3347-0.38713l0.82278-0.00745v-0.33875l-2.01e-4 7.6e-6 1.01e-4 -2.23e-5s-0.48177-0.18179-1.3248-0.12173c-0.79124 0.056381-1.5021 0.57023-1.635 0.64247-0.4261-0.13547-0.91228-0.25494-1.4809-0.36208-1.9666-0.37059-3.6311 0.22016-4.4663 0.864-1.0947 0.84388-1.0644 1.6302-1.1547 2.0235-0.055901 0.24364-0.55303 0.69417-0.54708 1.0102v0.33271l0.1027 0.11753 0.3872-0.14617 0.046314-0.17938c0.15928-0.063258 0.33368-0.1512 0.49209-0.22357 0.39527-0.18058 0.42573-0.27879 1.506-0.45781 0.49699-0.082361 1.02-0.10599 1.4095-0.10962 0.15154 0.3554 0.52831 1.0859 1.1811 1.4363 0.42453 0.22788 0.90002 0.34461 1.2789 0.4044l-0.049682 0.27748 0.75367 0.12406v-0.33852l-5.764e-4 -2.59e-4h2.255e-4s-0.63277-0.29198-1.0221-0.72431c-0.26492-0.29422-0.32832-0.74113-0.34181-0.99668l0.00238 2.422e-4c0.6378 0.1346 1.1949 0.23174 2.5272 0.79846 0.24643 0.10481 0.47626 0.21971 0.68563 0.33573l-0.03935 0.02467 0.60055 0.53791 0.7173 0.65929v-0.33852l-0.0024-0.0024c-0.010558-0.014648-0.82745-1.1386-2.2001-1.8905-1.1345-0.62148-2.0659-0.92853-3.3565-0.99805-1.4107-0.075991-2.4501 0.12518-2.4501 0.12518s0.029074-0.69619 1.094-1.251c0.92605-0.48247 2.3829-0.56322 4.0549-0.089475 2.3622 0.6693 3.1678 1.809 4.1839 2.9867 0.64465 0.74721 1.2373 1.7985 1.6109 2.526l-0.06292-0.03136 0.19354 0.55516 0.27684 0.65612v-0.3407l-0.0082-0.02653z" fill="#5e81ac" stroke-width=".0069877"/>
 <path d="m14.434 10.964c-0.62499-1.2809-1.1625-2.1966-2.0581-3.1266-0.28807-0.29913-0.56094-0.56643-0.84505-0.80637l3.25e-4 7.24e-5s-0.0023-0.00177-0.0064-0.00515c-0.0051-0.00432-0.01026-0.00863-0.01539-0.012939-0.10545-0.090425-0.55306-0.50875-0.39403-0.97061 0.17451-0.50682 1.1574-0.73334 1.1574-0.73334s-0.48177-0.18179-1.3248-0.12173c-0.79117 0.056375-1.5021 0.57023-1.635 0.64246-0.4261-0.13547-0.91228-0.25494-1.4809-0.36208-1.9666-0.37059-3.6311 0.22016-4.4663 0.864-1.0947 0.84388-1.0644 1.6302-1.1547 2.0235-0.064938 0.28302-0.7253 0.8452-0.50082 1.1515 0.14005 0.1911 0.60609-0.068406 0.98205-0.24015 0.39527-0.18058 0.42573-0.2788 1.506-0.45782 0.49699-0.082361 1.02-0.10599 1.4095-0.10962 0.15154 0.3554 0.52831 1.0859 1.1811 1.4363 0.88141 0.47312 1.9825 0.46717 1.9825 0.46717s-0.63277-0.29198-1.0221-0.72431c-0.26493-0.29422-0.32833-0.74113-0.34181-0.99668l0.00238 2.421e-4c0.6378 0.1346 1.1949 0.23174 2.5272 0.79846 1.1657 0.49586 1.962 1.217 1.962 1.217s-0.81872-1.1339-2.2004-1.8908c-1.1345-0.62147-2.0659-0.92852-3.3565-0.99804-1.4107-0.075991-2.4501 0.12518-2.4501 0.12518s0.029074-0.69619 1.094-1.251c0.92605-0.48247 2.3829-0.56322 4.0549-0.089475 2.3622 0.6693 3.1678 1.809 4.1839 2.9867 1.0815 1.2535 2.0166 3.3631 2.0166 3.3631s-0.28835-1.1146-0.80765-2.179z" fill="url(#linearGradient738)" stroke-width=".0069877"/>
</svg>
