<svg width="64" height="64" version="1.1" viewBox="0 0 16.933 16.933" xmlns="http://www.w3.org/2000/svg">
 <defs>
  <filter id="filter1178" x="-.047999" y="-.047999" width="1.096" height="1.096" color-interpolation-filters="sRGB">
   <feGaussianBlur stdDeviation="0.30691668"/>
  </filter>
  <linearGradient id="linearGradient1340" x1="8.355" x2="8.3996" y1="16.007" y2=".79375" gradientUnits="userSpaceOnUse">
   <stop stop-color="#d8dee9" offset="0"/>
   <stop stop-color="#eceff4" offset="1"/>
  </linearGradient>
  <filter id="filter889" x="-.077027" y="-.073077" width="1.1541" height="1.1462" color-interpolation-filters="sRGB">
   <feGaussianBlur stdDeviation="0.31418653"/>
  </filter>
  <linearGradient id="linearGradient840" x1="10.01" x2="10.046" y1="15.99" y2="1.0155" gradientUnits="userSpaceOnUse">
   <stop stop-color="#6b5756" offset="0"/>
   <stop stop-color="#8c7e75" offset="1"/>
  </linearGradient>
  <linearGradient id="linearGradient1198" x1="6.7266" x2="6.8302" y1="16.004" y2=".99613" gradientUnits="userSpaceOnUse">
   <stop stop-color="#bf616a" offset="0"/>
   <stop stop-color="#d0877f" stop-opacity=".94118" offset="1"/>
  </linearGradient>
 </defs>
 <g stroke-linecap="round" stroke-linejoin="round">
  <rect transform="matrix(.99138 0 0 1 .072989 .0019055)" x=".79375" y=".90545" width="15.346" height="15.346" rx="3.0526" ry="3.0526" fill="#000000" filter="url(#filter1178)" opacity=".15" stroke-width="1.2489" style="mix-blend-mode:normal"/>
  <rect x=".92604" y=".92604" width="15.081" height="15.081" rx="3" ry="3" fill="url(#linearGradient1340)" stroke-width="1.2274"/>
  <rect x=".01215" y=".0060174" width="16.924" height="16.927" fill="none" opacity=".15" stroke-width="1.052"/>
 </g>
 <path transform="matrix(1.0234 0 0 1.0234 -.19828 -.19828)" d="m5.0766 3.3072c-0.28516 0-0.44648 0.21479-0.44648 0.4811v2.3414s-1.757e-4 0.35243-0.35294 0.35243h-0.70537l1.5875 1.7642 1.5875 1.7637 1.4717-1.6355c-0.83811-0.87995-1.6927-1.925-1.9337-4.6988-0.017827-0.30248-0.28732-0.36845-0.28732-0.36845zm2.5502 0s-0.28665 0.090137-0.32969 0.32556c-0.30886 1.8166-0.097234 3.4065 1.0655 4.5815l1.559-1.7322h-0.70537c-0.35277 0-0.35294-0.35243-0.35294-0.35243v-2.3414c0-0.26631-0.29774-0.4811-0.5829-0.4811zm2.5595 3.6157-1.4717 1.6355c0.8381 0.87995 1.6927 1.9255 1.9337 4.6994 0.01783 0.30248 0.28732 0.36793 0.28732 0.36793h0.92086c0.28516 0 0.44648-0.21479 0.44648-0.4811v-2.3414s1.76e-4 -0.35243 0.35294-0.35243h0.70537l-1.5875-1.7642zm-1.6159 1.7957-1.559 1.7322h0.70537c0.35277 0 0.35294 0.35243 0.35294 0.35243v2.3414c0 0.26631 0.29773 0.4811 0.5829 0.4811h0.65369s0.28664-0.09014 0.32969-0.32556c0.30886-1.8166 0.09723-3.4065-1.0655-4.5815z" fill="#2e3440" filter="url(#filter889)" opacity=".25" stroke-width=".26458"/>
 <path d="m10.079 7.0506-1.5062 1.674c0.85773 0.90056 1.7326 1.9702 1.9792 4.809 0.01823 0.30956 0.29397 0.37664 0.29397 0.37664h0.94225c0.29184 0 0.45693-0.21965 0.45693-0.49219v-2.3961s0-0.36103 0.36103-0.36103h0.72207l-1.6246-1.8052zm-1.6536 1.8376-1.5957 1.7727h0.72207c0.36103 0 0.36103 0.36103 0.36103 0.36103v2.3961c0 0.27254 0.30471 0.49219 0.59655 0.49219h0.66924s0.29332-0.09199 0.33737-0.33292c0.3161-1.8591 0.09949-3.4865-1.0905-4.6891z" fill="url(#linearGradient840)" stroke-width=".27078"/>
 <path d="m6.854 9.8824 1.5062-1.674c-0.85773-0.90056-1.7326-1.9702-1.9792-4.809-0.018244-0.30956-0.29397-0.37663-0.29397-0.37663h-0.94225c-0.29184 0-0.45693 0.21964-0.45693 0.49219v2.3961s0 0.36103-0.36103 0.36103h-0.72207l1.6246 1.8052zm1.6536-1.8376 1.5957-1.7727h-0.72207c-0.36103 0-0.36103-0.36103-0.36103-0.36103v-2.3961c0-0.27255-0.30471-0.49219-0.59655-0.49219h-0.66924s-0.29332 0.091991-0.33737 0.33292c-0.3161 1.8591-0.09949 3.4865 1.0905 4.6891z" fill="url(#linearGradient1198)" stroke-width=".27078"/>
</svg>
