<svg width="64" height="64" version="1.1" viewBox="0 0 16.933 16.933" xmlns="http://www.w3.org/2000/svg">
 <defs>
  <filter id="filter1178" x="-.047999" y="-.047999" width="1.096" height="1.096" color-interpolation-filters="sRGB">
   <feGaussianBlur stdDeviation="0.30691668"/>
  </filter>
  <radialGradient id="b" cx="161.8" cy="68.9" r="95.4" gradientTransform="matrix(.045487 0 0 -.043213 2.4347 13.736)" gradientUnits="userSpaceOnUse">
   <stop stop-color="#2e3440" stop-opacity="0" offset=".7"/>
   <stop stop-color="#2e3440" stop-opacity=".5" offset=".9"/>
   <stop stop-color="#2e3440" offset="1"/>
  </radialGradient>
  <radialGradient id="d" cx="-340.3" cy="63" r="143.2" gradientTransform="matrix(.0068231 -.045033 -.03639 -.0054585 10.468 -3.2849)" gradientUnits="userSpaceOnUse">
   <stop stop-color="#2e3440" stop-opacity="0" offset=".8"/>
   <stop stop-color="#2e3440" stop-opacity=".5" offset=".9"/>
   <stop stop-color="#2e3440" offset="1"/>
  </radialGradient>
  <radialGradient id="e" cx="113.4" cy="570.2" r="202.4" gradientTransform="matrix(-.0018195 .045487 .096888 .003639 -51.218 -2.4343)" gradientUnits="userSpaceOnUse">
   <stop stop-color="#88c0d0" offset="0"/>
   <stop stop-color="#88c0d0" offset=".1"/>
   <stop stop-color="#88c0d0" offset=".2"/>
   <stop stop-color="#88c0d0" offset=".3"/>
   <stop stop-color="#a3be8c" offset=".7"/>
  </radialGradient>
  <radialGradient id="f" cx="376.5" cy="568" r="97.3" gradientTransform="matrix(.012736 .043668 .03548 -.010462 -11.384 -4.3357)" gradientUnits="userSpaceOnUse">
   <stop stop-color="#a3be8c" offset="0"/>
   <stop stop-color="#a3be8c" stop-opacity="0" offset="1"/>
  </radialGradient>
  <linearGradient id="a" x1="63.3" x2="241.7" y1="84" y2="84" gradientTransform="matrix(.045487 0 0 -.045487 2.4347 14.519)" gradientUnits="userSpaceOnUse">
   <stop stop-color="#5e81ac" offset="0"/>
   <stop stop-color="#5e81ac" offset="1"/>
  </linearGradient>
  <linearGradient id="c" x1="157.3" x2="46" y1="161.4" y2="40.1" gradientTransform="matrix(.045487 0 0 -.045487 2.4347 14.519)" gradientUnits="userSpaceOnUse">
   <stop stop-color="#81a1c1" offset="0"/>
   <stop stop-color="#81a1c1" offset=".2"/>
   <stop stop-color="#81a1c1" offset=".7"/>
   <stop stop-color="#81a1c1" offset="1"/>
  </linearGradient>
 </defs>
 <g transform="translate(-.0076499 -.031487)" stroke-linecap="round" stroke-linejoin="round">
  <rect transform="matrix(.99138 0 0 1 .072989 .0019055)" x=".79375" y=".90545" width="15.346" height="15.346" rx="3.0526" ry="3.0526" filter="url(#filter1178)" opacity=".15" stroke-width="1.2489" style="mix-blend-mode:normal"/>
  <rect x=".92604" y=".92604" width="15.081" height="15.081" rx="3" ry="3" fill="#eceff4" stroke-width="1.2274"/>
  <rect x=".01215" y=".0060174" width="16.924" height="16.927" fill="none" opacity=".15" stroke-width="1.052"/>
 </g>
 <path d="m8.6181 3.0112s-4.7972-0.54781-5.7435 5.3462c0 0 0.15164 5.1965 5.5233 5.6745 0 0 4.6951 0.12439 5.6644-5.4157-0.285-5.306-5.4442-5.605-5.4442-5.605z" fill="#eceff4"/>
 <g stroke-width=".045487">
  <path d="m13.156 11.312a4.2622 4.2622 0 0 1-0.48217 0.21379 4.6352 4.6352 0 0 1-1.633 0.29112c-2.1516 0-4.0256-1.4783-4.0256-3.3797a1.4329 1.4329 0 0 1 0.74599-1.2418c-1.9469 0.081877-2.4472 2.1106-2.4472 3.2978 0 3.3661 3.0977 3.7027 3.7664 3.7027 0.35935 0 0.90065-0.10462 1.2282-0.20924l0.05913-0.0182a5.836 5.836 0 0 0 3.0295-2.4017 0.18195 0.18195 0 0 0-0.24108-0.25473z" fill="url(#a)"/>
  <path d="m13.156 11.312a4.2622 4.2622 0 0 1-0.48217 0.21379 4.6352 4.6352 0 0 1-1.633 0.29112c-2.1516 0-4.0256-1.4783-4.0256-3.3797a1.4329 1.4329 0 0 1 0.74599-1.2418c-1.9469 0.081877-2.4472 2.1106-2.4472 3.2978 0 3.3661 3.0977 3.7027 3.7664 3.7027 0.35935 0 0.90065-0.10462 1.2282-0.20924l0.05913-0.0182a5.836 5.836 0 0 0 3.0295-2.4017 0.18195 0.18195 0 0 0-0.24108-0.25473z" fill="url(#b)" opacity=".35" style="isolation:isolate"/>
  <path d="m7.452 13.623a3.6026 3.6026 0 0 1-1.0326-0.96888 3.6708 3.6708 0 0 1 1.3419-5.4585c0.14556-0.068231 0.38664-0.1865 0.7096-0.18195a1.4738 1.4738 0 0 1 1.169 0.59134 1.451 1.451 0 0 1 0.28657 0.85061c0-0.0091 1.1144-3.6208-3.639-3.6208-1.9969 0-3.639 1.8923-3.639 3.5571a5.9225 5.9225 0 0 0 0.5504 2.5473 5.8224 5.8224 0 0 0 7.1142 3.0477 3.4343 3.4343 0 0 1-2.8566-0.3639z" fill="url(#c)"/>
  <path d="m7.452 13.623a3.6026 3.6026 0 0 1-1.0326-0.96888 3.6708 3.6708 0 0 1 1.3419-5.4585c0.14556-0.068231 0.38664-0.1865 0.7096-0.18195a1.4738 1.4738 0 0 1 1.169 0.59134 1.451 1.451 0 0 1 0.28657 0.85061c0-0.0091 1.1144-3.6208-3.639-3.6208-1.9969 0-3.639 1.8923-3.639 3.5571a5.9225 5.9225 0 0 0 0.5504 2.5473 5.8224 5.8224 0 0 0 7.1142 3.0477 3.4343 3.4343 0 0 1-2.8566-0.3639z" fill="url(#d)" opacity=".41" style="isolation:isolate"/>
  <path d="m9.5762 9.4152c-0.040939 0.045487-0.15466 0.11372-0.15466 0.25473 0 0.11827 0.077329 0.23653 0.21834 0.33206 0.65047 0.45487 1.8832 0.39119 1.8877 0.39119a2.711 2.711 0 0 0 1.3783-0.37754 2.7929 2.7929 0 0 0 1.3828-2.4063c0.013646-1.0189-0.3639-1.6967-0.51401-1.9969-0.96888-1.8832-3.0477-2.9658-5.3084-2.9658a5.8224 5.8224 0 0 0-5.8224 5.7405c0.022744-1.6603 1.6739-3.0022 3.639-3.0022 0.15921 0 1.069 0.013646 1.9105 0.45487a3.3024 3.3024 0 0 1 1.4056 1.3328c0.27747 0.48217 0.32751 1.0962 0.32751 1.3419 0 0.24563-0.12282 0.60498-0.3548 0.9052z" fill="url(#e)"/>
  <path d="m9.5762 9.4152c-0.040939 0.045487-0.15466 0.11372-0.15466 0.25473 0 0.11827 0.077329 0.23653 0.21834 0.33206 0.65047 0.45487 1.8832 0.39119 1.8877 0.39119a2.711 2.711 0 0 0 1.3783-0.37754 2.7929 2.7929 0 0 0 1.3828-2.4063c0.013646-1.0189-0.3639-1.6967-0.51401-1.9969-0.96888-1.8832-3.0477-2.9658-5.3084-2.9658a5.8224 5.8224 0 0 0-5.8224 5.7405c0.022744-1.6603 1.6739-3.0022 3.639-3.0022 0.15921 0 1.069 0.013646 1.9105 0.45487a3.3024 3.3024 0 0 1 1.4056 1.3328c0.27747 0.48217 0.32751 1.0962 0.32751 1.3419 0 0.24563-0.12282 0.60498-0.3548 0.9052z" fill="url(#f)"/>
 </g>
</svg>
