<svg width="64" height="64" version="1.1" viewBox="0 0 16.933 16.933" xmlns="http://www.w3.org/2000/svg">
 <defs>
  <filter id="filter1178" x="-.047999" y="-.047999" width="1.096" height="1.096" color-interpolation-filters="sRGB">
   <feGaussianBlur stdDeviation="0.30691668"/>
  </filter>
  <linearGradient id="linearGradient1340" x1="14.851" x2="1.6161" y1="15.377" y2="2.0468" gradientTransform="translate(-.0076499 -.0030174)" gradientUnits="userSpaceOnUse">
   <stop stop-color="#ad85a5" offset="0"/>
   <stop stop-color="#dbc7c5" offset="1"/>
  </linearGradient>
  <linearGradient id="linearGradient371" x1="4.6124" x2="11.78" y1="3.9891" y2="13.401" gradientTransform="translate(-.0076499 -.0030174)" gradientUnits="userSpaceOnUse">
   <stop stop-color="#eceff4" offset="0"/>
   <stop stop-color="#d8dee9" offset="1"/>
  </linearGradient>
 </defs>
 <g stroke-linecap="round" stroke-linejoin="round">
  <rect transform="matrix(.99138 0 0 1 .072989 .0019055)" x=".79375" y=".90545" width="15.346" height="15.346" rx="3.0526" ry="3.0526" fill="#000000" filter="url(#filter1178)" opacity=".15" stroke-width="1.2489" style="mix-blend-mode:normal"/>
  <rect x=".91839" y=".92302" width="15.081" height="15.081" rx="3" ry="3" fill="url(#linearGradient1340)" stroke-width="1.2274"/>
  <rect x=".0045001" y=".003" width="16.924" height="16.927" fill="none" opacity=".15" stroke-width="1.052"/>
 </g>
 <text x="-49.806946" y="19.370577" font-family="sans-serif" font-size="2.8222px" letter-spacing="0px" stroke-width=".26458" word-spacing="0px" style="line-height:1.25" xml:space="preserve"><tspan x="-49.806946" y="19.370577" stroke-width=".26458"/></text>
 <path d="m6.2554 13.785s0.61999 0.04387 1.4176-0.02644c0.323-0.02847 1.5494-0.14892 2.4662-0.35 0 0 1.1179-0.23924 1.7159-0.45963 0.62577-0.23061 0.96629-0.42633 1.1196-0.70366-0.0067-0.05682 0.0472-0.25833-0.24138-0.37937-0.73778-0.30945-1.5934-0.25348-3.2866-0.28938-1.8776-0.064519-2.5022-0.3788-2.8349-0.63192-0.31906-0.25678-0.15862-0.9672 1.2085-1.593 0.68865-0.33323 3.3882-0.94817 3.3882-0.94817-0.90917-0.44939-2.6045-1.2394-2.953-1.41-0.30564-0.14962-0.79477-0.37491-0.90079-0.64748-0.12021-0.26167 0.28389-0.48708 0.50962-0.55163 0.72698-0.20969 1.7533-0.34003 2.6873-0.35466 0.46949-0.0073447 0.5457-0.037559 0.5457-0.037559 0.64781-0.10746 1.0743-0.55067 0.89659-1.2526-0.15951-0.71648-1.0008-1.1375-1.8002-0.99173-0.75284 0.13725-2.5674 0.66432-2.5674 0.66432 2.2429-0.019413 2.6183 0.01802 2.786 0.25244 0.099013 0.13844-0.044992 0.32826-0.64317 0.42595-0.65122 0.10636-2.0049 0.23445-2.0049 0.23445-1.2986 0.077119-2.2134 0.082285-2.4878 0.66316-0.17924 0.37949 0.19114 0.715 0.35348 0.925 0.68602 0.76292 1.6769 1.1744 2.3148 1.4774 0.23999 0.11401 0.94414 0.32931 0.94414 0.32931-2.0692-0.1138-3.5619 0.52158-4.4375 1.2531-0.99032 0.916-0.55223 2.0078 1.4767 2.6801 1.1983 0.39707 1.7926 0.58382 3.5802 0.42285 1.0529-0.05674 1.2188-0.02298 1.2293 0.06342 0.01478 0.12163-1.1694 0.42377-1.4927 0.51703-0.82248 0.23724-2.9785 0.71629-2.9893 0.71861z" fill="url(#linearGradient371)" fill-rule="evenodd" stroke-width="0"/>
</svg>
