<svg width="64" height="64" version="1.1" viewBox="0 0 16.933 16.933" xmlns="http://www.w3.org/2000/svg">
 <defs>
  <filter id="filter1178" x="-.047999" y="-.047999" width="1.096" height="1.096" color-interpolation-filters="sRGB">
   <feGaussianBlur stdDeviation="0.30691668"/>
  </filter>
  <linearGradient id="linearGradient1340" x1="-1.6626" x2="13.999" y1="18.487" y2="2.4103" gradientUnits="userSpaceOnUse">
   <stop stop-color="#88c0d0" offset="0"/>
   <stop stop-color="#ad85a5" offset="1"/>
  </linearGradient>
  <linearGradient id="linearGradient2292" x1="39.204" x2="33.466" y1="6.3248" y2="8.5897" gradientTransform="matrix(1.6187 0 0 1.6187 -51.375 -4.9439)" gradientUnits="userSpaceOnUse">
   <stop stop-color="#d8dee9" offset="0"/>
   <stop stop-color="#eceff4" offset="1"/>
  </linearGradient>
  <linearGradient id="linearGradient2294" x1="36.121" x2="33.755" y1="6.0658" y2="5.6995" gradientTransform="matrix(1.6187 0 0 1.6187 -51.375 -4.9439)" gradientUnits="userSpaceOnUse">
   <stop stop-color="#ebcb8b" offset="0"/>
   <stop stop-color="#d08770" offset="1"/>
  </linearGradient>
  <linearGradient id="linearGradient2302" x1="36.312" x2="31.542" y1="7.6091" y2="10.141" gradientTransform="matrix(1.6187 0 0 1.6187 -51.375 -4.9439)" gradientUnits="userSpaceOnUse">
   <stop stop-color="#ebcb8b" offset="0"/>
   <stop stop-color="#d08770" offset="1"/>
  </linearGradient>
  <linearGradient id="linearGradient3036" x1="39.988" x2="33.453" y1="8.0063" y2="10.61" gradientTransform="matrix(1.6187 0 0 1.6187 -51.375 -5.0447)" gradientUnits="userSpaceOnUse">
   <stop stop-color="#d8dee9" offset="0"/>
   <stop stop-color="#eceff4" offset="1"/>
  </linearGradient>
  <linearGradient id="linearGradient3050" x1="39.736" x2="34.052" y1="10.148" y2="13.683" gradientTransform="matrix(1.6187 0 0 1.6187 -51.375 -5.1202)" gradientUnits="userSpaceOnUse">
   <stop stop-color="#d8dee9" offset="0"/>
   <stop stop-color="#eceff4" offset="1"/>
  </linearGradient>
  <linearGradient id="linearGradient3052" x1="39.112" x2="31.047" y1="8.3697" y2="14.561" gradientTransform="matrix(1.6187 0 0 1.6187 -51.375 -5.0447)" gradientUnits="userSpaceOnUse">
   <stop stop-color="#ebcb8b" offset="0"/>
   <stop stop-color="#d08770" offset="1"/>
  </linearGradient>
  <linearGradient id="linearGradient3066" x1="38.584" x2="37.792" y1="7.1956" y2="6.7009" gradientTransform="matrix(1.6187 0 0 1.6187 -51.375 -4.9439)" gradientUnits="userSpaceOnUse">
   <stop stop-color="#2e3440" offset="0"/>
   <stop stop-color="#4c566a" offset="1"/>
  </linearGradient>
 </defs>
 <g stroke-linecap="round" stroke-linejoin="round">
  <rect transform="matrix(.99138 0 0 1 .072989 .0019055)" x=".79375" y=".90545" width="15.346" height="15.346" rx="3.0526" ry="3.0526" filter="url(#filter1178)" opacity=".15" stroke-width="1.2489" style="mix-blend-mode:normal"/>
  <rect x=".92604" y=".92604" width="15.081" height="15.081" rx="3" ry="3" fill="url(#linearGradient1340)" stroke-width="1.2274"/>
  <rect x=".01215" y=".0060174" width="16.924" height="16.927" fill="none" opacity=".15" stroke-width="1.052"/>
 </g>
 <path d="m12.873 8.8737c-3.5376 0.30203-6.9868 1.2317-9.3517 7.1434l9.468 0.0279c-0.74001-0.79066-5.0492-5.7079-0.11627-7.1713z" fill="url(#linearGradient3050)"/>
 <path d="m12.23 8.7496s-0.02273-0.00343-0.06608-0.0092c-0.02168-0.00289-0.0485-0.00647-0.08031-0.010037-0.03179-0.00356-0.06815-0.00714-0.10957-0.010877-0.04144-0.00373-0.08742-0.00746-0.13803-0.010877-0.05059-0.00342-0.10552-0.00664-0.16478-0.0092-0.05927-0.00258-0.12326-0.00463-0.19072-0.00586-0.06745-0.00122-0.13898-0.00146-0.21414-8.365e-4 -0.07516 6.266e-4 -0.1535 0.00204-0.23588 0.00502-0.0824 0.00298-0.1685 0.00752-0.25763 0.013386-0.04456 0.00293-0.09017 0.00629-0.13634 0.010037-0.04616 0.00373-0.09284 0.00711-0.14054 0.011704-0.0477 0.00462-0.09638 0.010345-0.14555 0.015896-0.04918 0.00555-0.09915 0.011024-0.14973 0.017567-0.05059 0.00656-0.10196 0.014131-0.15391 0.021749-0.05195 0.00761-0.10402 0.015523-0.15726 0.024258-0.05324 0.00874-0.10696 0.017672-0.16143 0.027603-0.05447 0.00994-0.10997 0.0206-0.16562 0.031786-0.055651 0.011185-0.11221 0.023465-0.16897 0.035967-0.056752 0.012496-0.11367 0.02543-0.17148 0.039314-0.05782 0.013888-0.11601 0.028169-0.17482 0.043496-0.058807 0.015329-0.11842 0.03168-0.17817 0.048516-0.05973 0.016836-0.12006 0.034291-0.18068 0.052697-0.060604 0.018408-0.12093 0.037675-0.18235 0.057716-0.06143 0.020041-0.12352 0.040996-0.1857 0.062735-0.062175 0.02174-0.12449 0.044256-0.18737 0.067754-0.06287 0.023501-0.12637 0.048286-0.18988 0.073609-0.063502 0.025325-0.12747 0.051416-0.19155 0.078628-0.064068 0.027212-0.12781 0.055321-0.19239 0.084483-0.064586 0.029162-0.12987 0.059162-0.1949 0.090338-0.065039 0.031176-0.13031 0.063777-0.19573 0.097031-0.065428 0.033253-0.13081 0.067492-0.19657 0.10289-0.065751 0.035394-0.13222 0.071979-0.19824 0.10958-0.066027 0.037599-0.13201 0.076403-0.19824 0.11627-0.066237 0.03987-0.13268 0.08077-0.19908 0.12296-0.066379 0.0422-0.1326 0.08507-0.19908 0.12966s-0.13257 0.09097-0.19908 0.13802c-0.066512 0.04705-0.13343 0.09514-0.19992 0.14471-0.06648 0.04957-0.13268 0.10008-0.19908 0.15224-0.066383 0.05215-0.13285 0.1058-0.19908 0.1606-0.066237 0.0548-0.13222 0.11062-0.19824 0.16813-0.066027 0.05751-0.13249 0.11705-0.19824 0.17733-0.065752 0.06028-0.13115 0.12174-0.19657 0.18486-0.065428 0.06313-0.13071 0.12804-0.19573 0.19406-0.065023 0.06603-0.12948 0.13345-0.19406 0.20243-0.064586 0.06899-0.12916 0.13877-0.19322 0.21079-0.064068 0.07202-0.12806 0.14572-0.19155 0.22083-0.063502 0.07511-0.12618 0.15177-0.18904 0.23003-0.062855 0.07827-0.12521 0.15858-0.18737 0.24007-0.062175 0.08147-0.12428 0.16451-0.1857 0.24927-0.061414 0.08475-0.12258 0.1712-0.18319 0.2593-0.060604 0.0881-0.12095 0.17784-0.18068 0.26934s-0.11854 0.1844-0.17733 0.27938c-0.058791 0.09499-0.11703 0.19174-0.17482 0.29026 0 0-0.00111 0.01633-8.353e-4 0.046 2.121e-4 0.02264 0.00227 0.05958 0.00421 0.09703 0.13061 0.92367 0.4459 1.4378 0.58051 1.6211 0.00664 9e-3 0.010196 0.01263 0.015864 0.02007 0.015216 0.01925 0.030011 0.03868 0.046003 0.05772 0 0 0.046328-0.1225 0.1422-0.33626 0.00124-0.0028 0.00292-0.0065 0.00421-0.0092 0.019781-0.046 0.039529-0.09266 0.059391-0.13801 0.03443-0.07862 0.069054-0.15585 0.10373-0.23254 0.034673-0.0767 0.068795-0.15272 0.10373-0.22752 0.034916-0.07479 0.070219-0.14874 0.10539-0.22167 0.035175-0.07292 0.070785-0.14473 0.10624-0.21581 0.035449-0.07108 0.070511-0.14154 0.10624-0.21079 0.035708-0.06926 0.071903-0.13746 0.1079-0.20493 0.036-0.06747 0.072453-0.13421 0.10874-0.19992 0.036275-0.06571 0.072162-0.1301 0.10874-0.19406 0.036567-0.06397 0.073538-0.12678 0.11041-0.18904 0.036874-0.06226 0.074071-0.12428 0.11125-0.18486 0.037181-0.06057 0.07459-0.12008 0.1121-0.179 0.037489-0.05892 0.075108-0.11669 0.11292-0.17399s0.07561-0.1141 0.11376-0.1698c0.038153-0.0557 0.076112-0.11067 0.1146-0.16479 0.038492-0.05411 0.077439-0.10719 0.11627-0.15977 0.038833-0.05257 0.077925-0.10452 0.1171-0.15559 0.039188-0.05105 0.07841-0.10101 0.11794-0.15057 0.039545-0.04957 0.079705-0.09912 0.11962-0.14722 0.039901-0.04809 0.079333-0.09553 0.11962-0.1422 0.040274-0.04665 0.080627-0.09192 0.12129-0.13718 0.040662-0.04524 0.081923-0.08997 0.12296-0.13383 0.041051-0.04387 0.08236-0.08715 0.1238-0.12966 0.041439-0.04251 0.082797-0.0843 0.12464-0.12547 0.041844-0.04118 0.084059-0.08142 0.12631-0.12129 0.042248-0.03987 0.08448-0.07935 0.12715-0.11794 0.04267-0.0386 0.085726-0.07641 0.12882-0.11376 0.04309-0.03735 0.086131-0.07429 0.12966-0.11042 0.043527-0.03613 0.087361-0.0713 0.13133-0.10623 0.043964-0.03493 0.088592-0.06996 0.13299-0.10372 0.044401-0.03376 0.08898-0.06692 0.13383-0.09954 0.044854-0.03262 0.089353-0.06469 0.13468-0.09619 0.045324-0.03151 0.091392-0.06243 0.13718-0.09285 0.045777-0.03042 0.091764-0.06014 0.13801-0.0895 0.046262-0.02936 0.092946-0.05783 0.13969-0.08616 0.046732-0.02833 0.093302-0.05632 0.14054-0.08365 0.047234-0.02732 0.094484-0.05396 0.1422-0.0803 0.04772-0.02634 0.096474-0.0524 0.14471-0.07779 0.048222-0.02539 0.095973-0.050816 0.14471-0.075283 0.048739-0.024466 0.097964-0.048367 0.14722-0.071937s0.099113-0.046729 0.14889-0.069427c0.049775-0.022699 0.09942-0.044226 0.14973-0.066082s0.10138-0.043369 0.15224-0.064408c0.050859-0.02104 0.10167-0.041649 0.15308-0.061899 0.051394-0.02025 0.1028-0.040737 0.15475-0.060225s0.10475-0.038129 0.15726-0.056879c0.05251-0.018753 0.10501-0.037164 0.1581-0.055207 0.053077-0.018044 0.10611-0.036171 0.15976-0.053534 0.05366-0.017362 0.10803-0.034316 0.16228-0.051025 0.05424-0.016708 0.10828-0.033271 0.16311-0.049353 0.05482-0.016074 0.1102-0.03136 0.16562-0.046842 0.11085-0.030961 0.22298-0.060779 0.33626-0.089503 0.07799-0.019776 0.15755-0.03808 0.23672-0.056879 0.48973-0.13763 1.0076-0.2424 1.555-0.30698 0.0012-1.338e-4 0.0022-7.028e-4 0.0034-8.364e-4z" fill="url(#linearGradient3052)"/>
 <path d="m9.8753 7.5936c-3.8987 0.032-6.5805 2.44-6.5805 2.44-0.63219 1.868-0.6897 3.2287-0.55709 4.1665-0.00194-0.03745-0.00404-0.07437-0.00421-0.09703-2.801e-4 -0.02968 8.352e-4 -0.046 8.352e-4 -0.046 0.057804-0.09851 0.11603-0.19528 0.17482-0.29026 0.058791-0.09497 0.1176-0.18787 0.17733-0.27938s0.12008-0.18124 0.18068-0.26934c0.060604-0.0881 0.12177-0.17455 0.18319-0.2593 0.061414-0.08475 0.12352-0.16779 0.1857-0.24927 0.062175-0.08147 0.12451-0.16181 0.18737-0.24007 0.062855-0.07827 0.12555-0.15493 0.18904-0.23003 0.063502-0.07511 0.12749-0.14881 0.19155-0.22083 0.064068-0.07202 0.12865-0.1418 0.19322-0.21079 0.064589-0.06899 0.12903-0.1364 0.19406-0.20242 0.065023-0.06603 0.13031-0.13094 0.19573-0.19406 0.065428-0.06311 0.13082-0.12458 0.19657-0.18486 0.065752-0.06028 0.13222-0.11982 0.19824-0.17733 0.066027-0.05751 0.13201-0.11333 0.19824-0.16813 0.066237-0.0548 0.13268-0.10845 0.19908-0.1606 0.066383-0.05215 0.1326-0.10267 0.19908-0.15224s0.13341-0.09766 0.19992-0.14471c0.066512-0.04705 0.1326-0.09343 0.19908-0.13802s0.13268-0.08746 0.19908-0.12965c0.066383-0.0422 0.13285-0.08309 0.19908-0.12296 0.066237-0.03987 0.13222-0.07867 0.19824-0.11627 0.066027-0.037599 0.13249-0.074184 0.19824-0.10958 0.065751-0.035394 0.13115-0.069632 0.19657-0.10289 0.065428-0.033254 0.13069-0.065854 0.19574-0.097031 0.065039-0.031176 0.13031-0.061177 0.1949-0.090338 0.064586-0.029162 0.12831-0.057273 0.19239-0.084483 0.064068-0.027212 0.12806-0.053304 0.19155-0.078628 0.063502-0.025325 0.127-0.05011 0.18988-0.073609 0.062871-0.023501 0.12519-0.046015 0.18737-0.067754 0.062175-0.021739 0.12427-0.042693 0.1857-0.062735 0.06143-0.020041 0.12174-0.03931 0.18235-0.057716 0.060604-0.018406 0.12093-0.035861 0.18068-0.052697 0.059746-0.016836 0.11936-0.033186 0.17817-0.048515 0.058807-0.015329 0.11702-0.029612 0.17482-0.043496 0.057803-0.013888 0.11472-0.026811 0.17148-0.039314 0.056752-0.012496 0.11333-0.024782 0.16897-0.035967 0.05565-0.011185 0.11116-0.021854 0.16562-0.031787 0.05447-0.00994 0.10821-0.018862 0.16143-0.027604 0.05324-0.00874 0.10531-0.016645 0.15726-0.024258 0.05194-0.00761 0.10332-0.0152 0.15391-0.021749 0.05059-0.00656 0.10055-0.012011 0.14973-0.017567 0.04918-0.00555 0.09785-0.011282 0.14555-0.015896 0.0477-0.00462 0.09438-0.00798 0.14054-0.011704 0.04616-0.00373 0.09178-0.00711 0.13634-0.010037 0.08912-0.00585 0.17525-0.010387 0.25763-0.013386 0.0824-0.00298 0.16072-0.00438 0.23588-0.00502 0.07516-6.264e-4 0.14669-3.881e-4 0.21414 8.366e-4 0.06745 0.00122 0.13145 0.00329 0.19072 0.00586 0.05926 0.00258 0.1142 0.00579 0.16478 0.0092 0.05059 0.00342 0.09659 0.00714 0.13803 0.010877 0.04144 0.00373 0.07778 0.00732 0.10957 0.010877 0.03179 0.00356 0.05861 0.00715 0.0803 0.010037 0.04336 0.00576 0.06608 0.0092 0.06608 0.0092 0.71123-0.083681 1.4718-0.099567 2.2844-0.031786-1.6592-0.83668-3.2289-1.1358-4.639-1.1242z" fill="url(#linearGradient3036)"/>
 <path d="m7.6411 7.7001c0.014406-0.00377 0.029493-0.0081 0.043495-0.011703 0.048448-0.012545 0.095195-0.02433 0.13969-0.035132 0.044482-0.010797 0.086811-0.020942 0.12715-0.030113 0.080676-0.018343 0.15293-0.033537 0.21581-0.046006 0.062871-0.012464 0.11629-0.021822 0.15977-0.029276 0.043495-0.00746 0.077002-0.012594 0.099534-0.015896l0.034301-0.00502s-0.054356 7.753e-4 -0.15308 0.00418c-0.049355 0.0017-0.11012 0.00384-0.18068 0.00752-0.070559 0.00369-0.15062 0.00863-0.24007 0.015054-0.089433 0.00643-0.1876 0.014341-0.2936 0.024258-0.052996 0.00495-0.10808 0.010748-0.16478 0.01673-0.056703 0.00597-0.11554 0.012157-0.17566 0.019238-0.060118 0.00709-0.12161 0.015135-0.18486 0.023421-0.063243 0.00829-0.12797 0.017179-0.19406 0.026766-0.066076 0.00958-0.1338 0.019133-0.20243 0.030113-0.068617 0.010975-0.13824 0.022665-0.20912 0.035132-0.070883 0.012464-0.14296 0.026101-0.21581 0.040151-0.072842 0.014051-0.14631 0.028609-0.22083 0.044333-0.074524 0.015717-0.14994 0.032694-0.22585 0.050188-0.0759 0.017493-0.15219 0.035847-0.22919 0.055207-0.077002 0.019358-0.15473 0.039745-0.23254 0.061063-0.077811 0.021318-0.1559 0.043546-0.23421 0.066917-0.078313 0.023371-0.15651 0.048091-0.23505 0.073609-0.078539 0.025519-0.1574 0.051705-0.23589 0.079465-0.078475 0.02776-0.15693 0.056896-0.23505 0.086994-0.078118 0.030097-0.1559 0.061158-0.23337 0.093684-0.038735 0.016263-0.077747 0.033298-0.11627 0.050188-0.038525 0.01689-0.076322 0.033499-0.11459 0.051025-0.038266 0.017525-0.076614 0.035359-0.1146 0.053534-0.037975 0.018175-0.076095 0.037207-0.11376 0.056044-0.037651 0.018836-0.074784 0.037371-0.11208 0.056879-0.037295 0.019508-0.074347 0.040032-0.11125 0.060226-0.036906 0.020194-0.073942 0.040173-0.11041 0.061063-0.036469 0.02089-0.072744 0.041975-0.10874 0.063571-0.036 0.021596-0.071579 0.043764-0.10706 0.066082-0.035498 0.022317-0.070446 0.045543-0.10539 0.068591-0.034948 0.023049-0.070187 0.046471-0.10455 0.070263-0.022483 0.015572-0.044693 0.030954-0.066917 0.046842-0.12899 0.74936-0.14554 1.3015-0.14554 1.3015 0.046441-0.04221 0.093237-0.08436 0.13969-0.12547 1.6258-1.4389 3.2555-2.2049 4.7637-2.5604 0.00139-3.277e-4 0.00275-5.093e-4 0.00421-8.364e-4z" fill="url(#linearGradient2302)"/>
 <path d="m6.6139 5.0561c0.013597-0.00579 0.02747-0.012723 0.040986-0.020075 0.013435-0.00735 0.026886-0.015621 0.040144-0.024258 0.013273-0.00865 0.026369-0.017921 0.039318-0.027604 0.012949-0.00968 0.025964-0.019646 0.038476-0.030113 0.012464-0.010472 0.024814-0.021624 0.03681-0.032622 0.011979-0.010991 0.023763-0.022186 0.035126-0.033458 0.022743-0.022547 0.043867-0.044801 0.063567-0.066917 0.019699-0.022116 0.037619-0.043924 0.053531-0.063571 0.015864-0.019648 0.029623-0.037559 0.040986-0.052697 0.022726-0.030276 0.035967-0.049353 0.035967-0.049353-0.0089-0.00594-0.017919-0.011914-0.027599-0.017566-0.00971-0.00564-0.019652-0.010536-0.030107-0.015896-0.02093-0.010732-0.043883-0.021343-0.067759-0.03095-0.023876-0.00961-0.048691-0.018227-0.075286-0.026767-0.026596-0.00855-0.054582-0.016733-0.083654-0.024258-0.029056-0.00752-0.059892-0.015184-0.091182-0.021749-0.031289-0.00656-0.062919-0.011914-0.096199-0.017566-0.033264-0.00564-0.067872-0.011104-0.10288-0.015896-0.035012-0.0048-0.070559-0.0094-0.10706-0.013386-0.036518-0.00398-0.074314-0.00766-0.1121-0.010877-0.03778-0.00323-0.075804-0.00585-0.1146-0.00837-0.038784-0.0025-0.078378-0.00483-0.11794-0.00668-0.039578-0.00186-0.078669-0.00293-0.11878-0.00418-0.080207-0.00253-0.16168-0.00459-0.24258-0.00502-0.080903-4.138e-4 -0.16126 3.943e-4 -0.2409 0.00167-0.079641 0.00128-0.15858 0.0033-0.23505 0.00586-0.076467 0.00256-0.15115 0.00578-0.2225 0.0092-0.071336 0.00343-0.13897 0.00699-0.20326 0.010877-0.064294 0.00388-0.12454 0.00779-0.17984 0.011704-0.11061 0.00786-0.20128 0.015329-0.26432 0.020912-0.063049 0.00558-0.098708 0.0092-0.098708 0.0092s2.5447 0.10183 2.4074 0.5504z" fill="url(#linearGradient2294)"/>
 <path d="m7.0773 3.8599c-1.6679 0.010878-2.8708 0.64576-2.8708 0.64576s0.03566-0.00363 0.098708-0.0092c0.063049-0.00558 0.15373-0.013047 0.26432-0.020912 0.055311-0.00394 0.11554-0.00782 0.17984-0.011704 0.064294-0.00388 0.13192-0.00745 0.20326-0.010877 0.071336-0.00343 0.14604-0.00664 0.2225-0.0092 0.076467-0.00256 0.1554-0.00458 0.23505-0.00586 0.07964-0.00128 0.16001-0.00209 0.2409-0.00167 0.080886 4.139e-4 0.16237 0.00249 0.24258 0.00502 0.040096 0.00126 0.079203 0.00231 0.11878 0.00418 0.039577 0.00186 0.079154 0.00418 0.11794 0.00668 0.0388 0.0025 0.076823 0.00515 0.1146 0.00837 0.037781 0.00323 0.075577 0.0069 0.1121 0.010877 0.036518 0.00398 0.072048 0.00859 0.10706 0.013386 0.035012 0.0048 0.069621 0.010249 0.10288 0.015896 0.033264 0.00564 0.06491 0.011008 0.096199 0.017567 0.031289 0.00656 0.062126 0.014229 0.091182 0.021749s0.05706 0.015717 0.083654 0.024258c0.026596 0.00855 0.05141 0.01716 0.075286 0.026766 0.023876 0.0096 0.046829 0.020224 0.067759 0.03095 0.010525 0.00536 0.020428 0.010249 0.030107 0.015896 0.00971 0.00564 0.018744 0.011622 0.027599 0.017567 0 0-0.013274 0.019074-0.035967 0.049353-0.011331 0.015135-0.025073 0.033051-0.040986 0.052697-0.015864 0.019648-0.03383 0.041455-0.053531 0.063571-0.019699 0.022116-0.04084 0.044371-0.063567 0.066917-0.011331 0.011267-0.023147 0.022461-0.035126 0.033458-0.011978 0.010991-0.024296 0.022155-0.03681 0.032622-0.012464 0.010472-0.025543 0.020431-0.038476 0.030113-0.012949 0.00968-0.026045 0.018962-0.039318 0.027604-0.013274 0.00865-0.026643 0.016911-0.040144 0.024258-0.013435 0.00735-0.027323 0.014277-0.040986 0.020075-2.5706-0.39017-3.4421 2.3288-3.7348 4.0293 0.022224-0.01588 0.044433-0.031277 0.066917-0.046842 0.034365-0.023791 0.069604-0.047216 0.10455-0.070262 0.034948-0.023049 0.069912-0.046274 0.10539-0.068591 0.035498-0.022317 0.071077-0.044484 0.10706-0.066082 0.036-0.021596 0.072275-0.042682 0.10874-0.063571 0.036469-0.02089 0.073522-0.040869 0.11041-0.061063 0.036906-0.020194 0.073959-0.040717 0.11125-0.060225 0.037294-0.019508 0.074428-0.038045 0.11208-0.056879 0.037651-0.018837 0.075771-0.037868 0.11376-0.056044 0.037975-0.018175 0.076322-0.036008 0.1146-0.053534 0.038266-0.017525 0.076079-0.034135 0.11459-0.051025 0.038525-0.01689 0.077535-0.033925 0.11627-0.050188 0.077471-0.032528 0.15525-0.063588 0.23337-0.093684 0.078118-0.030097 0.15658-0.059234 0.23505-0.086994 0.078474-0.02776 0.15734-0.053947 0.23589-0.079465 0.078539-0.025519 0.15672-0.050237 0.23505-0.073609 0.078313-0.023371 0.15642-0.0456 0.23421-0.066917 0.077811-0.021318 0.15554-0.041704 0.23254-0.061063 0.077002-0.019358 0.15329-0.037713 0.22919-0.055207s0.15133-0.034464 0.22585-0.050188c0.074525-0.015717 0.14798-0.030285 0.22083-0.044333 0.072842-0.014051 0.14494-0.027683 0.21581-0.040151 0.070883-0.012464 0.14049-0.024151 0.20912-0.035132 0.068617-0.010975 0.13634-0.020525 0.20243-0.030113 0.066076-0.00958 0.13082-0.018477 0.19406-0.026766 0.063243-0.00829 0.12474-0.016336 0.18486-0.023421 0.060118-0.00709 0.11896-0.013257 0.17566-0.019238 0.056703-0.00597 0.11179-0.011768 0.16478-0.01673 0.10601-0.00992 0.20416-0.01783 0.2936-0.024258 0.089433-0.00643 0.16951-0.011363 0.24007-0.015054 0.070559-0.00369 0.13133-0.00582 0.18068-0.00752 0.098724-0.0034 0.15308-0.00418 0.15308-0.00418l-0.0343 0.00502c-0.022532 0.0033-0.056056 0.00843-0.099534 0.015896-0.043478 0.00746-0.096895 0.016807-0.15977 0.029276-0.06287 0.012464-0.13515 0.027664-0.21581 0.046006-0.040338 0.00918-0.08265 0.019313-0.12715 0.030113-0.044482 0.010796-0.091247 0.022596-0.13969 0.035132-0.014082 0.00363-0.029168 0.00794-0.043495 0.011704 3.9626-0.93216 7.0841 0.97198 7.0841 0.97198-0.36091-1.8354-2.4818-2.3279-2.4818-2.3279-1.7054-1.9496-3.5784-2.476-5.0866-2.4843-0.026709-1.468e-4 -0.052996-1.726e-4 -0.079462 0z" fill="url(#linearGradient2292)"/>
 <path d="m11.075 6.7515c-1.072 0.21325-1.3944-0.86182-1.3944-0.86182s0.97952-0.32316 1.3944 0.86182z" fill="url(#linearGradient3066)"/>
</svg>
