<svg width="64" height="64" version="1.1" viewBox="0 0 16.933 16.933" xmlns="http://www.w3.org/2000/svg">
 <defs>
  <filter id="filter1178" x="-.047999" y="-.047999" width="1.096" height="1.096" color-interpolation-filters="sRGB">
   <feGaussianBlur stdDeviation="0.30691668"/>
  </filter>
  <linearGradient id="linearGradient1935" x1="8.4665" x2="8.4665" y1=".92604" y2="16.007" gradientUnits="userSpaceOnUse">
   <stop stop-color="#d8dee9" offset="0"/>
   <stop stop-color="#eceff4" offset="1"/>
  </linearGradient>
  <filter id="filter1248" x="-.037951" y="-.048441" width="1.0873" height="1.1115" color-interpolation-filters="sRGB">
   <feGaussianBlur stdDeviation="0.20854543"/>
  </filter>
 </defs>
 <g stroke-linecap="round" stroke-linejoin="round">
  <rect transform="matrix(.99138 0 0 1 .072989 .0019055)" x=".79375" y=".90545" width="15.346" height="15.346" rx="3.0526" ry="3.0526" filter="url(#filter1178)" opacity=".15" stroke-width="1.2489" style="mix-blend-mode:normal"/>
  <rect x=".92604" y=".92604" width="15.081" height="15.081" rx="3" ry="3" fill="url(#linearGradient1935)" stroke-width="1.2274"/>
  <rect x=".01215" y=".0060174" width="16.924" height="16.927" fill="none" opacity=".15" stroke-width="1.052"/>
 </g>
 <g transform="translate(19.732 3.2802)" filter="url(#filter1248)" opacity=".258" stroke-linecap="round">
  <path d="m-16.823 0.30413c-0.64035 0.38677-0.58232 3.0055-0.58232 3.0055 1.3337 2.5265 3.137 4.9309 7.0254 6.4055 0 0 1.4222-0.11114 1.8878-0.70442 0.35733-0.45525 0.046959-2.1696 0.046959-2.1696-3.879-2.7707-4.2565-3.6121-5.8983-5.6729 0 0-1.7303-1.3166-2.4796-0.86409z" fill="#2e3440" stroke-width=".096622"/>
  <g fill="#d08770" stroke-width=".096622">
   <path d="m-9.1864 6.3026c-0.49632-0.3658-0.92719-0.6962-1.3047-0.99958l-0.03794 2.4397-2.6184 0.56172c0.57098 0.38385 1.2071 0.73937 1.9214 1.0605l2.134-0.88927z" opacity=".85"/>
   <path d="m-9.1864 6.3026 0.094373 2.173-2.134 0.88927c0.27099 0.12186 0.55315 0.23895 0.84732 0.35051 0 0 1.4222-0.11125 1.8878-0.70452 0.35733-0.45525 0.04693-2.1695 0.04693-2.1695-0.26381-0.18844-0.50971-0.36721-0.74247-0.53876z"/>
   <path d="m-11.691 4.2704-0.67905 2.2139-2.4596 0.44238c0.49161 0.48817 1.0465 0.95031 1.6821 1.3776l2.6184-0.56172 0.03794-2.4397c-0.4717-0.37912-0.86285-0.71732-1.1999-1.0325z" opacity=".7"/>
   <path d="m-12.886 3.0097-1.1085 1.8874-2.1361 0.49781c0.38257 0.53063 0.81023 1.0443 1.3012 1.5319l2.4596-0.44238 0.67906-2.2139c-0.47883-0.44795-0.85015-0.8503-1.1953-1.2607z" opacity=".6"/>
   <path d="m-13.721 1.9627-1.2792 1.6572-1.9488 0.51179c0.2506 0.42877 0.5207 0.85106 0.81786 1.2633l2.1361-0.49781 1.1085-1.8874c-0.28092-0.33402-0.54459-0.67341-0.83435-1.047z" opacity=".5"/>
   <path d="m-16.455 0.20963c-0.13663 0.002242-0.26114 0.030734-0.3665 0.094369-0.64035 0.38677-0.5822 3.0059-0.5822 3.0059 0.14559 0.27581 0.29648 0.55001 0.45537 0.82186l1.9488-0.51179 1.2792-1.6572c-0.1918-0.24733-0.39391-0.50855-0.62164-0.7944 0 0-1.2781-0.97242-2.1131-0.95867z" opacity=".4"/>
  </g>
  <path d="m-16.456 0.2098c-0.13663 0.002242-0.26102 0.030415-0.36638 0.094049-0.64035 0.38677-0.58238 3.006-0.58238 3.006 0.14548 0.27561 0.2965 0.54999 0.45526 0.82164 1.18e-4 2.029e-4 3.98e-4 3.139e-4 5.16e-4 5.168e-4 0.2505 0.42856 0.52048 0.85094 0.8175 1.2629h5.17e-4c0.38257 0.53063 0.81018 1.0441 1.3012 1.5317 0.49161 0.48817 1.0464 0.95041 1.682 1.3777 0.57098 0.38385 1.207 0.73972 1.9213 1.0609 0.27099 0.12186 0.5533 0.2388 0.84748 0.35036 0 0 1.4221-0.11158 1.8877-0.70485 0.35733-0.45525 0.047025-2.1693 0.047025-2.1693-0.26381-0.18844-0.50982-0.36691-0.74258-0.53846l0.094566 2.173h-5.168e-4l-0.094049-2.173c-0.49632-0.3658-0.92728-0.69655-1.3048-0.99992-0.4717-0.37912-0.86288-0.71727-1.1999-1.0325-0.47883-0.44795-0.85006-0.85043-1.1953-1.2609l-1.1084 1.8877h-5.17e-4l1.1084-1.8877c-0.28092-0.33402-0.54428-0.67334-0.83404-1.0469-0.1918-0.24733-0.39392-0.5084-0.62166-0.79425 0 0-1.2781-0.97233-2.113-0.95858z" fill="#2e3440" stroke-width=".096622"/>
  <g fill="none" stroke="#2e3440" stroke-width=".30115">
   <path d="m-16.779 0.45689c1.8409 5.4287 8.2877 8.5539 8.2877 8.5539l4.2735 1.5309"/>
   <path d="m-7.7544 9.2752c0.31934-0.57763 0.24933-1.9408 0.24933-1.9408"/>
   <path d="m-7.1892 9.4771c0.55884-1.2585 0.19092-2.7211 0.19092-2.7211"/>
   <path d="m-8.1796 9.1225c-0.42265 0.63868-1.5935 1.1732-1.5935 1.1732"/>
   <path d="m-7.5322 9.3544c-0.69972 0.83122-1.09 1.0012-1.09 1.0012"/>
  </g>
 </g>
 <g transform="matrix(.96624 0 0 .96624 -18.072 .57888)" stroke-linecap="round">
  <path d="m21.715 3.1105c-0.66272 0.40028-0.60267 3.1105-0.60267 3.1105 1.3803 2.6148 3.2466 5.1032 7.2709 6.6293 0 0 1.4719-0.11502 1.9538-0.72903 0.36982-0.47116 0.0486-2.2454 0.0486-2.2454-4.0145-2.8675-4.4052-3.7383-6.1044-5.8711 0 0-1.7908-1.3626-2.5662-0.89428z" fill="#2e3440" stroke-width=".099998"/>
  <g fill="#d08770" stroke-width=".099998">
   <path d="m29.618 9.3186c-0.51366-0.37858-0.95959-0.72053-1.3503-1.0345l-0.03927 2.5249-2.7099 0.58135c0.59093 0.39726 1.2493 0.7652 1.9885 1.0976l2.2086-0.92034z" opacity=".85"/>
   <path d="m29.618 9.3186 0.09767 2.2489-2.2086 0.92034c0.28046 0.12612 0.57248 0.2473 0.87693 0.36276 0 0 1.4719-0.11514 1.9538-0.72914 0.36982-0.47116 0.04857-2.2453 0.04857-2.2453-0.27303-0.19502-0.52752-0.38004-0.76841-0.55758z"/>
   <path d="m27.026 7.2154-0.70278 2.2913-2.5455 0.45784c0.50879 0.50523 1.0831 0.98351 1.7409 1.4257l2.7099-0.58135 0.03927-2.5249c-0.48818-0.39237-0.893-0.74238-1.2418-1.0686z" opacity=".7"/>
   <path d="m25.789 5.9106-1.1472 1.9533-2.2107 0.5152c0.39594 0.54917 0.83854 1.0808 1.3467 1.5854l2.5455-0.45784 0.70278-2.2913c-0.49556-0.4636-0.87985-0.88001-1.2371-1.3048z" opacity=".6"/>
   <path d="m24.925 4.827-1.3239 1.7151-2.0169 0.52967c0.25936 0.44375 0.53889 0.8808 0.84644 1.3074l2.2107-0.5152 1.1472-1.9533c-0.29073-0.34569-0.56362-0.69694-0.8635-1.0836z" opacity=".5"/>
   <path d="m22.095 3.0127c-0.1414 0.00232-0.27026 0.031808-0.3793 0.097666-0.66272 0.40028-0.60254 3.1109-0.60254 3.1109 0.15068 0.28545 0.30684 0.56923 0.47128 0.85058l2.0169-0.52967 1.3239-1.7151c-0.1985-0.25597-0.40767-0.52632-0.64336-0.82216 0 0-1.3228-1.0064-2.1869-0.99217z" opacity=".4"/>
   <path d="m29.618 9.3186c-0.51366-0.37858-0.95959-0.72053-1.3503-1.0345l-0.03927 2.5249-2.7099 0.58135c0.59093 0.39726 1.2493 0.7652 1.9885 1.0976l2.2086-0.92034z" opacity=".85"/>
   <path d="m29.618 9.3186 0.09767 2.2489-2.2086 0.92034c0.28046 0.12612 0.57248 0.2473 0.87693 0.36276 0 0 1.4719-0.11514 1.9538-0.72914 0.36982-0.47116 0.04857-2.2453 0.04857-2.2453-0.27303-0.19502-0.52752-0.38004-0.76841-0.55758z"/>
   <path d="m27.026 7.2154-0.70278 2.2913-2.5455 0.45784c0.50879 0.50523 1.0831 0.98351 1.7409 1.4257l2.7099-0.58135 0.03927-2.5249c-0.48818-0.39237-0.893-0.74238-1.2418-1.0686z" opacity=".7"/>
   <path d="m25.789 5.9106-1.1472 1.9533-2.2107 0.5152c0.39594 0.54917 0.83854 1.0808 1.3467 1.5854l2.5455-0.45784 0.70278-2.2913c-0.49556-0.4636-0.87985-0.88001-1.2371-1.3048z" opacity=".6"/>
   <path d="m24.925 4.827-1.3239 1.7151-2.0169 0.52967c0.25936 0.44375 0.53889 0.8808 0.84644 1.3074l2.2107-0.5152 1.1472-1.9533c-0.29073-0.34569-0.56362-0.69694-0.8635-1.0836z" opacity=".5"/>
   <path d="m22.095 3.0127c-0.1414 0.00232-0.27026 0.031808-0.3793 0.097666-0.66272 0.40028-0.60254 3.1109-0.60254 3.1109 0.15068 0.28545 0.30684 0.56923 0.47128 0.85058l2.0169-0.52967 1.3239-1.7151c-0.1985-0.25597-0.40767-0.52632-0.64336-0.82216 0 0-1.3228-1.0064-2.1869-0.99217z" opacity=".4"/>
  </g>
  <g fill="none" stroke="#2e3440" stroke-width=".31167">
   <path d="m21.76 3.2686c1.9052 5.6184 8.5773 8.8528 8.5773 8.8528l4.4228 1.5844"/>
   <path d="m31.1 12.395c0.3305-0.59781 0.25804-2.0086 0.25804-2.0086"/>
   <path d="m31.685 12.604c0.57837-1.3025 0.19759-2.8162 0.19759-2.8162"/>
   <path d="m30.66 12.237c-0.43742 0.66099-1.6492 1.2142-1.6492 1.2142"/>
   <path d="m31.33 12.477c-0.72417 0.86026-1.1281 1.0362-1.1281 1.0362"/>
  </g>
 </g>
</svg>
