<svg width="64" height="64" version="1.1" viewBox="0 0 16.933 16.933" xmlns="http://www.w3.org/2000/svg">
 <defs>
  <filter id="filter1178" x="-.047999" y="-.047999" width="1.096" height="1.096" color-interpolation-filters="sRGB">
   <feGaussianBlur stdDeviation="0.30691668"/>
  </filter>
  <linearGradient id="linearGradient1340" x1="8.6644" x2="8.6644" y1="15.931" y2=".79375" gradientUnits="userSpaceOnUse">
   <stop stop-color="#2e3440" offset="0"/>
   <stop stop-color="#4c566a" stop-opacity=".7" offset="1"/>
  </linearGradient>
  <linearGradient id="linearGradient26477" x1="-14.483" x2="-15.613" y1="-22.341" y2="-20.384" gradientTransform="matrix(.87121 0 0 .87121 38.837 20.658)" gradientUnits="userSpaceOnUse">
   <stop stop-color="#88c0d0" offset="0"/>
   <stop stop-color="#81a1c1" offset="1"/>
  </linearGradient>
  <linearGradient id="linearGradient22615" x1="-8.818" x2="-8.714" y1="-25.649" y2="-14.088" gradientTransform="matrix(.87121 0 0 .87121 38.796 20.576)" gradientUnits="userSpaceOnUse">
   <stop stop-color="#88c0d0" offset="0"/>
   <stop stop-color="#81a1c1" offset=".88322"/>
   <stop stop-color="#5e81ac" offset="1"/>
  </linearGradient>
  <linearGradient id="linearGradient21964" x1="-12.281" x2="-11.751" y1="-16.241" y2="-12.378" gradientUnits="userSpaceOnUse">
   <stop stop-color="#2e3440" offset="0"/>
   <stop stop-color="#2e3440" offset="1"/>
  </linearGradient>
  <filter id="filter21906" x="-.18125" y="-.46017" width="1.3622" height="1.889" color-interpolation-filters="sRGB">
   <feGaussianBlur stdDeviation="0.37244598"/>
  </filter>
  <linearGradient id="linearGradient23225" x1="-15.014" x2="-9.5093" y1="-19.093" y2="-11.643" gradientTransform="matrix(.87121 0 0 .87121 38.878 20.535)" gradientUnits="userSpaceOnUse">
   <stop stop-color="#88c0d0" offset="0"/>
   <stop stop-color="#81a1c1" offset=".80035"/>
   <stop stop-color="#5e81ac" offset="1"/>
  </linearGradient>
  <linearGradient id="linearGradient23601" x1="-13.294" x2="-18.47" y1="-22.432" y2="-10.43" gradientTransform="matrix(.87121 0 0 .87121 38.755 20.617)" gradientUnits="userSpaceOnUse">
   <stop stop-color="#88c0d0" offset="0"/>
   <stop stop-color="#81a1c1" offset=".57416"/>
   <stop stop-color="#5e81ac" offset="1"/>
  </linearGradient>
  <linearGradient id="linearGradient25781" x1="-4.4322" x2="1.0518" y1="-4.8941" y2="-10.115" gradientTransform="matrix(.87121 0 0 .87121 36.186 12.543)" gradientUnits="userSpaceOnUse">
   <stop stop-color="#5e81ac" offset="0"/>
   <stop stop-color="#81a1c1" offset=".73456"/>
   <stop stop-color="#88c0d0" offset="1"/>
  </linearGradient>
  <linearGradient id="linearGradient32529" x1="30.19" x2="30.077" y1="3.7528" y2="-1.6931" gradientUnits="userSpaceOnUse">
   <stop stop-color="#88c0d0" offset="0"/>
   <stop stop-color="#d8dee9" offset="1"/>
  </linearGradient>
  <linearGradient id="linearGradient32531" x1="30.746" x2="30.83" y1="-1.7466" y2="3.0412" gradientUnits="userSpaceOnUse">
   <stop stop-color="#d8dee9" offset="0"/>
   <stop stop-color="#88c0d0" offset="1"/>
  </linearGradient>
  <linearGradient id="linearGradient35215" x1="25.122" x2="24.806" y1="1.1582" y2="2.9474" gradientUnits="userSpaceOnUse">
   <stop stop-color="#d8dee9" offset="0"/>
   <stop stop-color="#88c0d0" offset="1"/>
  </linearGradient>
  <linearGradient id="linearGradient35217" x1="27.659" x2="27.742" y1="3.8815" y2="9.9443" gradientUnits="userSpaceOnUse">
   <stop stop-color="#d8dee9" offset="0"/>
   <stop stop-color="#88c0d0" offset="1"/>
  </linearGradient>
  <linearGradient id="linearGradient35219" x1="29.848" x2="29.482" y1="1.5603" y2="13.749" gradientUnits="userSpaceOnUse">
   <stop stop-color="#d8dee9" offset="0"/>
   <stop stop-color="#5e81ac" offset="1"/>
  </linearGradient>
  <linearGradient id="linearGradient35221" x1="28.362" x2="28.316" y1="1.5862" y2="13.708" gradientUnits="userSpaceOnUse">
   <stop stop-color="#d8dee9" offset="0"/>
   <stop stop-color="#5e81ac" offset="1"/>
  </linearGradient>
  <radialGradient id="radialGradient38685" cx="23.53" cy="5.6436" r="2.978" gradientTransform="matrix(-.99997 .0072051 -.0078121 -1.0842 47.103 11.524)" gradientUnits="userSpaceOnUse">
   <stop stop-color="#88c0d0" offset="0"/>
   <stop stop-color="#5e81ac" offset="1"/>
  </radialGradient>
  <filter id="filter48843" x="-.02925" y="-.028441" width="1.0585" height="1.0566" color-interpolation-filters="sRGB">
   <feGaussianBlur stdDeviation="0.17215159"/>
  </filter>
 </defs>
 <g transform="translate(-.0076499 -.0030174)">
  <g stroke-linecap="round" stroke-linejoin="round">
   <rect transform="matrix(.99138 0 0 1 .072989 .0019055)" x=".79375" y=".90545" width="15.346" height="15.346" rx="3.0526" ry="3.0526" fill="#000000" filter="url(#filter1178)" opacity=".15" stroke-width="1.2489" style="mix-blend-mode:normal"/>
   <rect x=".92604" y=".92604" width="15.081" height="15.081" rx="3" ry="3" fill="url(#linearGradient1340)" stroke-width="1.2274"/>
   <rect x=".01215" y=".0060174" width="16.924" height="16.927" fill="none" opacity=".15" stroke-width="1.052"/>
  </g>
 </g>
 <g transform="matrix(.717 0 0 .717 -11.932 4.5384)" fill="#2e3440" filter="url(#filter48843)" opacity=".25" stroke="#2e3440">
  <path d="m24.384 2.6791c0.56558-0.81565 1.8345-1.4842 1.8345-1.4842s-0.27825 1.2795 0.11716 2.0233c-0.11412 0.095938-0.753-0.18281-0.88881-0.21677-0.37661-0.094152-0.83461-0.054598-1.0629-0.32234z" stroke-width=".052916"/>
  <g transform="matrix(1.3568 0 0 1.3568 -2.552 -2.5544)" opacity="1" stroke-opacity=".1">
   <g transform="translate(-18.792 -13.057)" fill="#2e3440" stroke="#2e3440" stroke-opacity=".1" stroke-width=".026458">
    <g transform="matrix(.27515 0 0 .27515 -.34857 -.66315)" fill="#2e3440" stroke="#2e3440" stroke-linecap="round" stroke-linejoin="round" stroke-opacity=".1" stroke-width=".096157">
     <path d="m152.94 63.12 2.039 2.5157 1.557-2.256z"/>
     <path d="m151.46 66.103 1.471-2.9837-3.034 0.6007z"/>
     <path d="m147.66 64.896 1.61 1.9075 0.628-3.0832z"/>
     <path d="m156.53 63.379 1.565 3.4184 1.087-2.1777z"/>
     <path d="m149.27 66.804 2.191-0.7002-1.563-2.383z"/>
     <path d="m151.46 66.103 3.51-0.468-2.039-2.5157z"/>
     <path d="m154.97 65.635 3.122 1.1624-1.565-3.4184z"/>
     <path d="m158.1 66.798 2.857-0.2134-1.77-1.9643z"/>
     <path d="m151.46 66.103 2.556 1.8011 0.954-2.2691z"/>
     <path d="m145.68 66.681 3.598 0.1228-1.61-1.9075z"/>
     <path d="m146.57 68.438 2.702-1.6347-3.598-0.1228z"/>
     <path d="m156.2 68.762 1.894-1.9643-3.122-1.1624z"/>
     <path d="m154.02 67.904 2.182 0.8576-1.228-3.1267z"/>
     <path d="m159.13 69.242 1.822-2.6573-2.857 0.2134z"/>
     <path d="m159.13 69.242 2.58-0.7083-0.758-1.949z"/>
     <path d="m143.98 69.317 2.591-0.8787-0.896-1.7575z"/>
     <path d="m151.76 69.85 2.265-1.9451-2.556-1.8011z"/>
     <path d="m163.45 69.76-2.501-3.176 0.758 1.949z"/>
     <path d="m156.2 68.762 2.929 0.4796-1.035-2.4439z"/>
     <path d="m149.27 66.804 2.482 3.046-0.291-3.7462z"/>
     <path d="m146.57 68.438 2.418 1.5516 0.284-3.1863z"/>
     <path d="m148.99 69.99 2.766-0.1403-2.482-3.046z"/>
     <path d="m157.32 70.76 1.812-1.5181-2.929-0.4796z"/>
     <path d="m154.48 70.784 1.727-2.0218-2.182-0.8576z"/>
     <path d="m161.7 71.03 1.749-1.2697-1.743-1.227z"/>
     <path d="m151.76 69.85 2.72 0.9343-0.455-2.8794z"/>
     <path d="m159.13 69.242 2.574 1.7884 6e-3 -2.4967z"/>
     <path d="m146.59 71.348 2.396-1.3583-2.418-1.5516z"/>
     <path d="m143.98 69.317 2.613 2.0312-0.022-2.9099z"/>
     <path d="m154.48 70.784 2.844-0.0241-1.117-1.9977z"/>
     <path d="m150.21 72.02 1.548-2.1701-2.766 0.1403z"/>
     <path d="m143.51 72.074 3.079-0.726-2.613-2.0312z"/>
     <path d="m143.51 72.074 1.627 0.6169 1.452-1.3429z"/>
     <path d="m161.7 71.03 1.914 1.8952-0.165-3.1649z"/>
     <path d="m151.76 69.85 1.402 3.2052 1.318-2.2709z"/>
     <path d="m155.24 73.18 2.083-2.4198-2.844 0.0241z"/>
     <path d="m158.33 73.18 0.801-3.9379-1.812 1.5181z"/>
     <path d="m150.21 72.02 2.95 1.0351-1.402-3.2052z"/>
     <path d="m158.33 73.18 3.375-2.1495-2.574-1.7884z"/>
     <path d="m146.59 71.348 3.614 0.6715-1.218-2.0298z"/>
     <path d="m153.16 73.055 2.079 0.1248-0.761-2.3957z"/>
     <path d="m161.65 73.764 1.971-0.8392-1.914-1.8952z"/>
     <path d="m146.59 71.348 2.126 2.5798 1.488-1.9083z"/>
     <path d="m155.24 73.18h3.094l-1.011-2.4198z"/>
     <path d="m146.46 74.33 0.138-2.9822-1.452 1.3429z"/>
     <path d="m158.33 73.18 3.318 0.5849 0.057-2.7344z"/>
     <path d="m142.88 73.844 2.256-1.1527-1.627-0.6169z"/>
     <path d="m146.46 74.33 2.264-0.4024-2.126-2.5798z"/>
     <path d="m155.24 73.18 1.817 2.012 1.277-2.012z"/>
     <path d="m159.15 75.029 2.5-1.2642-3.318-0.5849z"/>
     <path d="m157.05 75.192 2.095-0.1629-0.818-1.8491z"/>
     <path d="m161.65 73.764 2.787 1.1803-0.816-2.0195z"/>
     <path d="m143.45 75.841 1.69-3.1501-2.256 1.1527z"/>
     <path d="m143.45 75.841 3.004-1.5108-1.314-1.6393z"/>
     <path d="m150.21 72.02 2.061 3.9729 0.889-2.9378z"/>
     <path d="m148.72 73.928 3.549 2.0646-2.061-3.9729z"/>
     <path d="m149.6 76.1 2.667-0.1078-3.549-2.0646z"/>
     <path d="m155.14 76.669 1.909-1.4773-1.817-2.012z"/>
     <path d="m153.16 73.055 1.987 3.6141 0.092-3.4893z"/>
     <path d="m152.27 75.993 2.876 0.6763-1.987-3.6141z"/>
     <path d="m159.15 75.029 2.563 1.968-0.063-3.2322z"/>
     <path d="m161.71 76.997 2.724-2.0519-2.787-1.1803z"/>
     <path d="m146.46 74.33 3.146 1.77-0.882-2.1724z"/>
     <path d="m143.45 75.841 2.48 1.8114 0.524-3.3222z"/>
     <path d="m161.71 76.997 2.463 0.6727 0.261-2.7246z"/>
     <path d="m157.05 75.192 1.872 2.7358 0.223-2.8987z"/>
     <path d="m155.14 76.669 1.901 1.582 8e-3 -3.0593z"/>
     <path d="m158.92 77.927 2.786-0.9307-2.563-1.968z"/>
     <path d="m145.93 77.653 3.67-1.5522-3.146-1.77z"/>
     <path d="m157.04 78.251 1.88-0.3235-1.872-2.7358z"/>
     <path d="m143.67 78.74 2.26-1.087-2.48-1.8114z"/>
     <path d="m152.62 78.765 2.525-2.0958-2.876-0.6763z"/>
     <path d="m164.44 74.945-0.981-5.1844 0.165 3.1649z"/>
     <path d="m158.92 77.927 1.984 1.3372 0.802-2.2679z"/>
     <path d="m149.6 76.1 3.018 2.6643-0.351-2.7721z"/>
     <path d="m147.67 79.686 1.928-3.5856-3.67 1.5522z"/>
     <path d="m150.28 79.981 2.341-1.2167-3.018-2.6643z"/>
     <path d="m161.71 76.997 1.727 2.8572 0.736-2.1845z"/>
     <path d="m160.91 79.265 2.529 0.5893-1.727-2.8572z"/>
     <path d="m154.87 80.213 2.177-1.9617-1.901-1.582z"/>
     <path d="m152.62 78.765 2.249 1.4479 0.276-3.5437z"/>
     <path d="m147.67 79.686 2.605 0.2954-0.677-3.881z"/>
     <path d="m143.67 78.74 1.86 2.1707 0.4-3.2577z"/>
     <path d="m145.53 80.91 2.142-1.2243-1.742-2.0334z"/>
     <path d="m152.8 81.387 2.064-1.1748-2.249-1.4479z"/>
     <path d="m154.87 80.213 2.372 1.1735-0.195-3.1352z"/>
     <path d="m157.24 81.386 1.685-3.4587-1.88 0.3235z"/>
     <path d="m150.28 79.981 2.526 1.406-0.185-2.6227z"/>
     <path d="m143.98 69.317-1.095 4.5268 0.629-1.7696z"/>
     <path d="m158.92 77.927 1.534 3.3752 0.45-2.038z"/>
     <path d="m160.91 79.265 1.399 2.659 1.13-2.0697z"/>
     <path d="m160.46 81.303 1.849 0.621-1.399-2.659z"/>
     <path d="m157.24 81.386 3.219-0.0835-1.534-3.3752z"/>
     <path d="m151.03 82.6 1.774-1.2129-2.526-1.406z"/>
     <path d="m158.51 82.893 1.948-1.59-3.219 0.0835z"/>
     <path d="m148.58 83.364 1.693-3.383-2.605-0.2954z"/>
     <path d="m148.58 83.364 2.445-0.7641-0.752-2.6189z"/>
     <path d="m146.38 83.404 1.288-3.7179-2.142 1.2243z"/>
     <path d="m146.38 83.404 2.2-0.0395-0.912-3.6784z"/>
     <path d="m160.51 83.57 1.8-1.6466-1.849-0.621z"/>
     <path d="m158.51 82.893 1.997 0.6776-0.049-2.2676z"/>
     <path d="m154.87 80.213 1.201 3.9992 1.171-2.8257z"/>
     <path d="m156.07 84.212 2.442-1.3192-1.271-1.5065z"/>
     <path d="m152.8 81.387 3.265 2.8244-1.201-3.9992z"/>
     <path d="m156.07 84.212 1.998 1.0865 0.444-2.4057z"/>
     <path d="m149.15 85.22 1.881-2.6199-2.445 0.7641z"/>
     <path d="m149.15 85.22 2.177 0.175-0.296-2.7949z"/>
     <path d="m158.07 85.298 2.441-1.7281-1.997-0.6776z"/>
     <path d="m152.8 81.387 1.61 4.5814 1.655-1.757z"/>
     <path d="m151.33 85.395 1.478-4.0078-1.774 1.2129z"/>
     <path d="m151.33 85.395 3.088 0.5736-1.61-4.5814z"/>
     <path d="m146.38 83.404 2.764 1.8163-0.564-1.8558z"/>
     <path d="m154.41 85.969 3.653-0.6705-1.998-1.0865z"/>
     <path d="m142.88 73.844 0.786 4.8958-0.22-2.8984z"/>
     <path d="m143.67 78.74 2.714 4.6643-0.854-2.4936z"/>
     <path d="m149.15 85.22 5.265 0.7486-3.088-0.5736z"/>
     <path d="m152.94 63.12 2.039 2.5157 1.557-2.256z"/>
     <path d="m151.46 66.103 1.471-2.9837-3.034 0.6007z"/>
     <path d="m147.66 64.896 1.61 1.9075 0.628-3.0832z"/>
     <path d="m156.53 63.379 1.565 3.4184 1.087-2.1777z"/>
     <path d="m149.27 66.804 2.191-0.7002-1.563-2.383z"/>
     <path d="m151.46 66.103 3.51-0.468-2.039-2.5157z"/>
     <path d="m154.97 65.635 3.122 1.1624-1.565-3.4184z"/>
     <path d="m158.1 66.798 2.857-0.2134-1.77-1.9643z"/>
     <path d="m151.46 66.103 2.556 1.8011 0.954-2.2691z"/>
     <path d="m145.68 66.681 3.598 0.1228-1.61-1.9075z"/>
     <path d="m146.57 68.438 2.702-1.6347-3.598-0.1228z"/>
     <path d="m156.2 68.762 1.894-1.9643-3.122-1.1624z"/>
     <path d="m154.02 67.904 2.182 0.8576-1.228-3.1267z"/>
     <path d="m159.13 69.242 1.822-2.6573-2.857 0.2134z"/>
     <path d="m159.13 69.242 2.58-0.7083-0.758-1.949z"/>
     <path d="m143.98 69.317 2.591-0.8787-0.896-1.7575z"/>
     <path d="m151.76 69.85 2.265-1.9451-2.556-1.8011z"/>
     <path d="m163.45 69.76-2.501-3.176 0.758 1.949z"/>
     <path d="m156.2 68.762 2.929 0.4796-1.035-2.4439z"/>
     <path d="m149.27 66.804 2.482 3.046-0.291-3.7462z"/>
     <path d="m146.57 68.438 2.418 1.5516 0.284-3.1863z"/>
     <path d="m148.99 69.99 2.766-0.1403-2.482-3.046z"/>
     <path d="m157.32 70.76 1.812-1.5181-2.929-0.4796z"/>
     <path d="m154.48 70.784 1.727-2.0218-2.182-0.8576z"/>
     <path d="m161.7 71.03 1.749-1.2697-1.743-1.227z"/>
     <path d="m151.76 69.85 2.72 0.9343-0.455-2.8794z"/>
     <path d="m159.13 69.242 2.574 1.7884 6e-3 -2.4967z"/>
     <path d="m146.59 71.348 2.396-1.3583-2.418-1.5516z"/>
     <path d="m143.98 69.317 2.613 2.0312-0.022-2.9099z"/>
     <path d="m154.48 70.784 2.844-0.0241-1.117-1.9977z"/>
     <path d="m150.21 72.02 1.548-2.1701-2.766 0.1403z"/>
     <path d="m143.51 72.074 3.079-0.726-2.613-2.0312z"/>
     <path d="m143.51 72.074 1.627 0.6169 1.452-1.3429z"/>
     <path d="m161.7 71.03 1.914 1.8952-0.165-3.1649z"/>
     <path d="m151.76 69.85 1.402 3.2052 1.318-2.2709z"/>
     <path d="m155.24 73.18 2.083-2.4198-2.844 0.0241z"/>
     <path d="m158.33 73.18 0.801-3.9379-1.812 1.5181z"/>
     <path d="m150.21 72.02 2.95 1.0351-1.402-3.2052z"/>
     <path d="m158.33 73.18 3.375-2.1495-2.574-1.7884z"/>
     <path d="m146.59 71.348 3.614 0.6715-1.218-2.0298z"/>
     <path d="m153.16 73.055 2.079 0.1248-0.761-2.3957z"/>
     <path d="m161.65 73.764 1.971-0.8392-1.914-1.8952z"/>
     <path d="m146.59 71.348 2.126 2.5798 1.488-1.9083z"/>
     <path d="m155.24 73.18h3.094l-1.011-2.4198z"/>
     <path d="m146.46 74.33 0.138-2.9822-1.452 1.3429z"/>
     <path d="m158.33 73.18 3.318 0.5849 0.057-2.7344z"/>
     <path d="m142.88 73.844 2.256-1.1527-1.627-0.6169z"/>
     <path d="m146.46 74.33 2.264-0.4024-2.126-2.5798z"/>
     <path d="m155.24 73.18 1.817 2.012 1.277-2.012z"/>
     <path d="m159.15 75.029 2.5-1.2642-3.318-0.5849z"/>
     <path d="m157.05 75.192 2.095-0.1629-0.818-1.8491z"/>
     <path d="m161.65 73.764 2.787 1.1803-0.816-2.0195z"/>
     <path d="m143.45 75.841 1.69-3.1501-2.256 1.1527z"/>
     <path d="m143.45 75.841 3.004-1.5108-1.314-1.6393z"/>
     <path d="m150.21 72.02 2.061 3.9729 0.889-2.9378z"/>
     <path d="m148.72 73.928 3.549 2.0646-2.061-3.9729z"/>
     <path d="m149.6 76.1 2.667-0.1078-3.549-2.0646z"/>
     <path d="m155.14 76.669 1.909-1.4773-1.817-2.012z"/>
     <path d="m153.16 73.055 1.987 3.6141 0.092-3.4893z"/>
     <path d="m152.27 75.993 2.876 0.6763-1.987-3.6141z"/>
     <path d="m159.15 75.029 2.563 1.968-0.063-3.2322z"/>
     <path d="m161.71 76.997 2.724-2.0519-2.787-1.1803z"/>
     <path d="m146.46 74.33 3.146 1.77-0.882-2.1724z"/>
     <path d="m143.45 75.841 2.48 1.8114 0.524-3.3222z"/>
     <path d="m161.71 76.997 2.463 0.6727 0.261-2.7246z"/>
     <path d="m157.05 75.192 1.872 2.7358 0.223-2.8987z"/>
     <path d="m155.14 76.669 1.901 1.582 8e-3 -3.0593z"/>
     <path d="m158.92 77.927 2.786-0.9307-2.563-1.968z"/>
     <path d="m145.93 77.653 3.67-1.5522-3.146-1.77z"/>
     <path d="m157.04 78.251 1.88-0.3235-1.872-2.7358z"/>
     <path d="m143.67 78.74 2.26-1.087-2.48-1.8114z"/>
     <path d="m152.62 78.765 2.525-2.0958-2.876-0.6763z"/>
     <path d="m164.44 74.945-0.981-5.1844 0.165 3.1649z"/>
     <path d="m158.92 77.927 1.984 1.3372 0.802-2.2679z"/>
     <path d="m149.6 76.1 3.018 2.6643-0.351-2.7721z"/>
     <path d="m147.67 79.686 1.928-3.5856-3.67 1.5522z"/>
     <path d="m150.28 79.981 2.341-1.2167-3.018-2.6643z"/>
     <path d="m161.71 76.997 1.727 2.8572 0.736-2.1845z"/>
     <path d="m160.91 79.265 2.529 0.5893-1.727-2.8572z"/>
     <path d="m154.87 80.213 2.177-1.9617-1.901-1.582z"/>
     <path d="m152.62 78.765 2.249 1.4479 0.276-3.5437z"/>
     <path d="m147.67 79.686 2.605 0.2954-0.677-3.881z"/>
     <path d="m143.67 78.74 1.86 2.1707 0.4-3.2577z"/>
     <path d="m145.53 80.91 2.142-1.2243-1.742-2.0334z"/>
     <path d="m152.8 81.387 2.064-1.1748-2.249-1.4479z"/>
     <path d="m154.87 80.213 2.372 1.1735-0.195-3.1352z"/>
     <path d="m157.24 81.386 1.685-3.4587-1.88 0.3235z"/>
     <path d="m150.28 79.981 2.526 1.406-0.185-2.6227z"/>
     <path d="m143.98 69.317-1.095 4.5268 0.629-1.7696z"/>
     <path d="m158.92 77.927 1.534 3.3752 0.45-2.038z"/>
     <path d="m160.91 79.265 1.399 2.659 1.13-2.0697z"/>
     <path d="m160.46 81.303 1.849 0.621-1.399-2.659z"/>
     <path d="m157.24 81.386 3.219-0.0835-1.534-3.3752z"/>
     <path d="m151.03 82.6 1.774-1.2129-2.526-1.406z"/>
     <path d="m158.51 82.893 1.948-1.59-3.219 0.0835z"/>
     <path d="m148.58 83.364 1.693-3.383-2.605-0.2954z"/>
     <path d="m148.58 83.364 2.445-0.7641-0.752-2.6189z"/>
     <path d="m146.38 83.404 1.288-3.7179-2.142 1.2243z"/>
     <path d="m146.38 83.404 2.2-0.0395-0.912-3.6784z"/>
     <path d="m160.51 83.57 1.8-1.6466-1.849-0.621z"/>
     <path d="m158.51 82.893 1.997 0.6776-0.049-2.2676z"/>
     <path d="m154.87 80.213 1.201 3.9992 1.171-2.8257z"/>
     <path d="m156.07 84.212 2.442-1.3192-1.271-1.5065z"/>
     <path d="m152.8 81.387 3.265 2.8244-1.201-3.9992z"/>
     <path d="m156.07 84.212 1.998 1.0865 0.444-2.4057z"/>
     <path d="m149.15 85.22 1.881-2.6199-2.445 0.7641z"/>
     <path d="m149.15 85.22 2.177 0.175-0.296-2.7949z"/>
     <path d="m158.07 85.298 2.441-1.7281-1.997-0.6776z"/>
     <path d="m152.8 81.387 1.61 4.5814 1.655-1.757z"/>
     <path d="m151.33 85.395 1.478-4.0078-1.774 1.2129z"/>
     <path d="m151.33 85.395 3.088 0.5736-1.61-4.5814z"/>
     <path d="m146.38 83.404 2.764 1.8163-0.564-1.8558z"/>
     <path d="m154.41 85.969 3.653-0.6705-1.998-1.0865z"/>
     <path d="m142.88 73.844 0.786 4.8958-0.22-2.8984z"/>
     <path d="m143.67 78.74 2.714 4.6643-0.854-2.4936z"/>
     <path d="m149.15 85.22 5.265 0.7486-3.088-0.5736z"/>
     <path d="m152.94 63.12 2.039 2.5157 1.557-2.256z"/>
     <path d="m151.46 66.103 1.471-2.9837-3.034 0.6007z"/>
     <path d="m147.66 64.896 1.61 1.9075 0.628-3.0832z"/>
     <path d="m156.53 63.379 1.565 3.4184 1.087-2.1777z"/>
     <path d="m149.27 66.804 2.191-0.7002-1.563-2.383z"/>
     <path d="m151.46 66.103 3.51-0.468-2.039-2.5157z"/>
     <path d="m154.97 65.635 3.122 1.1624-1.565-3.4184z"/>
     <path d="m158.1 66.798 2.857-0.2134-1.77-1.9643z"/>
     <path d="m151.46 66.103 2.556 1.8011 0.954-2.2691z"/>
     <path d="m145.68 66.681 3.598 0.1228-1.61-1.9075z"/>
     <path d="m146.57 68.438 2.702-1.6347-3.598-0.1228z"/>
     <path d="m156.2 68.762 1.894-1.9643-3.122-1.1624z"/>
     <path d="m154.02 67.904 2.182 0.8576-1.228-3.1267z"/>
     <path d="m159.13 69.242 1.822-2.6573-2.857 0.2134z"/>
     <path d="m159.13 69.242 2.58-0.7083-0.758-1.949z"/>
     <path d="m143.98 69.317 2.591-0.8787-0.896-1.7575z"/>
     <path d="m151.76 69.85 2.265-1.9451-2.556-1.8011z"/>
     <path d="m163.45 69.76-2.501-3.176 0.758 1.949z"/>
     <path d="m156.2 68.762 2.929 0.4796-1.035-2.4439z"/>
     <path d="m149.27 66.804 2.482 3.046-0.291-3.7462z"/>
     <path d="m146.57 68.438 2.418 1.5516 0.284-3.1863z"/>
     <path d="m148.99 69.99 2.766-0.1403-2.482-3.046z"/>
     <path d="m157.32 70.76 1.812-1.5181-2.929-0.4796z"/>
     <path d="m154.48 70.784 1.727-2.0218-2.182-0.8576z"/>
     <path d="m161.7 71.03 1.749-1.2697-1.743-1.227z"/>
     <path d="m151.76 69.85 2.72 0.9343-0.455-2.8794z"/>
     <path d="m159.13 69.242 2.574 1.7884 6e-3 -2.4967z"/>
     <path d="m146.59 71.348 2.396-1.3583-2.418-1.5516z"/>
     <path d="m143.98 69.317 2.613 2.0312-0.022-2.9099z"/>
     <path d="m154.48 70.784 2.844-0.0241-1.117-1.9977z"/>
     <path d="m150.21 72.02 1.548-2.1701-2.766 0.1403z"/>
     <path d="m143.51 72.074 3.079-0.726-2.613-2.0312z"/>
     <path d="m143.51 72.074 1.627 0.6169 1.452-1.3429z"/>
     <path d="m161.7 71.03 1.914 1.8952-0.165-3.1649z"/>
     <path d="m151.76 69.85 1.402 3.2052 1.318-2.2709z"/>
     <path d="m155.24 73.18 2.083-2.4198-2.844 0.0241z"/>
     <path d="m158.33 73.18 0.801-3.9379-1.812 1.5181z"/>
     <path d="m150.21 72.02 2.95 1.0351-1.402-3.2052z"/>
     <path d="m158.33 73.18 3.375-2.1495-2.574-1.7884z"/>
     <path d="m146.59 71.348 3.614 0.6715-1.218-2.0298z"/>
     <path d="m153.16 73.055 2.079 0.1248-0.761-2.3957z"/>
     <path d="m161.65 73.764 1.971-0.8392-1.914-1.8952z"/>
     <path d="m146.59 71.348 2.126 2.5798 1.488-1.9083z"/>
     <path d="m155.24 73.18h3.094l-1.011-2.4198z"/>
     <path d="m146.46 74.33 0.138-2.9822-1.452 1.3429z"/>
     <path d="m158.33 73.18 3.318 0.5849 0.057-2.7344z"/>
     <path d="m142.88 73.844 2.256-1.1527-1.627-0.6169z"/>
     <path d="m146.46 74.33 2.264-0.4024-2.126-2.5798z"/>
     <path d="m155.24 73.18 1.817 2.012 1.277-2.012z"/>
     <path d="m159.15 75.029 2.5-1.2642-3.318-0.5849z"/>
     <path d="m157.05 75.192 2.095-0.1629-0.818-1.8491z"/>
     <path d="m161.65 73.764 2.787 1.1803-0.816-2.0195z"/>
     <path d="m143.45 75.841 1.69-3.1501-2.256 1.1527z"/>
     <path d="m143.45 75.841 3.004-1.5108-1.314-1.6393z"/>
     <path d="m150.21 72.02 2.061 3.9729 0.889-2.9378z"/>
     <path d="m148.72 73.928 3.549 2.0646-2.061-3.9729z"/>
     <path d="m149.6 76.1 2.667-0.1078-3.549-2.0646z"/>
     <path d="m155.14 76.669 1.909-1.4773-1.817-2.012z"/>
     <path d="m153.16 73.055 1.987 3.6141 0.092-3.4893z"/>
     <path d="m152.27 75.993 2.876 0.6763-1.987-3.6141z"/>
     <path d="m159.15 75.029 2.563 1.968-0.063-3.2322z"/>
     <path d="m161.71 76.997 2.724-2.0519-2.787-1.1803z"/>
     <path d="m146.46 74.33 3.146 1.77-0.882-2.1724z"/>
     <path d="m143.45 75.841 2.48 1.8114 0.524-3.3222z"/>
     <path d="m161.71 76.997 2.463 0.6727 0.261-2.7246z"/>
     <path d="m157.05 75.192 1.872 2.7358 0.223-2.8987z"/>
     <path d="m155.14 76.669 1.901 1.582 8e-3 -3.0593z"/>
     <path d="m158.92 77.927 2.786-0.9307-2.563-1.968z"/>
     <path d="m145.93 77.653 3.67-1.5522-3.146-1.77z"/>
     <path d="m157.04 78.251 1.88-0.3235-1.872-2.7358z"/>
     <path d="m143.67 78.74 2.26-1.087-2.48-1.8114z"/>
     <path d="m152.62 78.765 2.525-2.0958-2.876-0.6763z"/>
     <path d="m164.44 74.945-0.981-5.1844 0.165 3.1649z"/>
     <path d="m158.92 77.927 1.984 1.3372 0.802-2.2679z"/>
     <path d="m149.6 76.1 3.018 2.6643-0.351-2.7721z"/>
     <path d="m147.67 79.686 1.928-3.5856-3.67 1.5522z"/>
     <path d="m150.28 79.981 2.341-1.2167-3.018-2.6643z"/>
     <path d="m161.71 76.997 1.727 2.8572 0.736-2.1845z"/>
     <path d="m160.91 79.265 2.529 0.5893-1.727-2.8572z"/>
     <path d="m154.87 80.213 2.177-1.9617-1.901-1.582z"/>
     <path d="m152.62 78.765 2.249 1.4479 0.276-3.5437z"/>
     <path d="m147.67 79.686 2.605 0.2954-0.677-3.881z"/>
     <path d="m143.67 78.74 1.86 2.1707 0.4-3.2577z"/>
     <path d="m145.53 80.91 2.142-1.2243-1.742-2.0334z"/>
     <path d="m152.8 81.387 2.064-1.1748-2.249-1.4479z"/>
     <path d="m154.87 80.213 2.372 1.1735-0.195-3.1352z"/>
     <path d="m157.24 81.386 1.685-3.4587-1.88 0.3235z"/>
     <path d="m150.28 79.981 2.526 1.406-0.185-2.6227z"/>
     <path d="m143.98 69.317-1.095 4.5268 0.629-1.7696z"/>
     <path d="m158.92 77.927 1.534 3.3752 0.45-2.038z"/>
     <path d="m160.91 79.265 1.399 2.659 1.13-2.0697z"/>
     <path d="m160.46 81.303 1.849 0.621-1.399-2.659z"/>
     <path d="m157.24 81.386 3.219-0.0835-1.534-3.3752z"/>
     <path d="m151.03 82.6 1.774-1.2129-2.526-1.406z"/>
     <path d="m158.51 82.893 1.948-1.59-3.219 0.0835z"/>
     <path d="m148.58 83.364 1.693-3.383-2.605-0.2954z"/>
     <path d="m148.58 83.364 2.445-0.7641-0.752-2.6189z"/>
     <path d="m146.38 83.404 1.288-3.7179-2.142 1.2243z"/>
     <path d="m146.38 83.404 2.2-0.0395-0.912-3.6784z"/>
     <path d="m160.51 83.57 1.8-1.6466-1.849-0.621z"/>
     <path d="m158.51 82.893 1.997 0.6776-0.049-2.2676z"/>
     <path d="m154.87 80.213 1.201 3.9992 1.171-2.8257z"/>
     <path d="m156.07 84.212 2.442-1.3192-1.271-1.5065z"/>
     <path d="m152.8 81.387 3.265 2.8244-1.201-3.9992z"/>
     <path d="m156.07 84.212 1.998 1.0865 0.444-2.4057z"/>
     <path d="m149.15 85.22 1.881-2.6199-2.445 0.7641z"/>
     <path d="m149.15 85.22 2.177 0.175-0.296-2.7949z"/>
     <path d="m158.07 85.298 2.441-1.7281-1.997-0.6776z"/>
     <path d="m152.8 81.387 1.61 4.5814 1.655-1.757z"/>
     <path d="m151.33 85.395 1.478-4.0078-1.774 1.2129z"/>
     <path d="m151.33 85.395 3.088 0.5736-1.61-4.5814z"/>
     <path d="m146.38 83.404 2.764 1.8163-0.564-1.8558z"/>
     <path d="m154.41 85.969 3.653-0.6705-1.998-1.0865z"/>
     <path d="m142.88 73.844 0.786 4.8958-0.22-2.8984z"/>
     <path d="m143.67 78.74 2.714 4.6643-0.854-2.4936z"/>
     <path d="m149.15 85.22 5.265 0.7486-3.088-0.5736z"/>
     <path d="m152.94 63.12 2.039 2.5157 1.557-2.256z"/>
     <path d="m151.46 66.103 1.471-2.9837-3.034 0.6007z"/>
     <path d="m147.66 64.896 1.61 1.9075 0.628-3.0832z"/>
     <path d="m156.53 63.379 1.565 3.4184 1.087-2.1777z"/>
     <path d="m149.27 66.804 2.191-0.7002-1.563-2.383z"/>
     <path d="m151.46 66.103 3.51-0.468-2.039-2.5157z"/>
     <path d="m154.97 65.635 3.122 1.1624-1.565-3.4184z"/>
     <path d="m158.1 66.798 2.857-0.2134-1.77-1.9643z"/>
     <path d="m151.46 66.103 2.556 1.8011 0.954-2.2691z"/>
     <path d="m145.68 66.681 3.598 0.1228-1.61-1.9075z"/>
     <path d="m146.57 68.438 2.702-1.6347-3.598-0.1228z"/>
     <path d="m156.2 68.762 1.894-1.9643-3.122-1.1624z"/>
     <path d="m154.02 67.904 2.182 0.8576-1.228-3.1267z"/>
     <path d="m159.13 69.242 1.822-2.6573-2.857 0.2134z"/>
     <path d="m159.13 69.242 2.58-0.7083-0.758-1.949z"/>
     <path d="m143.98 69.317 2.591-0.8787-0.896-1.7575z"/>
     <path d="m151.76 69.85 2.265-1.9451-2.556-1.8011z"/>
     <path d="m163.45 69.76-2.501-3.176 0.758 1.949z"/>
     <path d="m156.2 68.762 2.929 0.4796-1.035-2.4439z"/>
     <path d="m149.27 66.804 2.482 3.046-0.291-3.7462z"/>
     <path d="m146.57 68.438 2.418 1.5516 0.284-3.1863z"/>
     <path d="m148.99 69.99 2.766-0.1403-2.482-3.046z"/>
     <path d="m157.32 70.76 1.812-1.5181-2.929-0.4796z"/>
     <path d="m154.48 70.784 1.727-2.0218-2.182-0.8576z"/>
     <path d="m161.7 71.03 1.749-1.2697-1.743-1.227z"/>
     <path d="m151.76 69.85 2.72 0.9343-0.455-2.8794z"/>
     <path d="m159.13 69.242 2.574 1.7884 6e-3 -2.4967z"/>
     <path d="m146.59 71.348 2.396-1.3583-2.418-1.5516z"/>
     <path d="m143.98 69.317 2.613 2.0312-0.022-2.9099z"/>
     <path d="m154.48 70.784 2.844-0.0241-1.117-1.9977z"/>
     <path d="m150.21 72.02 1.548-2.1701-2.766 0.1403z"/>
     <path d="m143.51 72.074 3.079-0.726-2.613-2.0312z"/>
     <path d="m143.51 72.074 1.627 0.6169 1.452-1.3429z"/>
     <path d="m161.7 71.03 1.914 1.8952-0.165-3.1649z"/>
     <path d="m151.76 69.85 1.402 3.2052 1.318-2.2709z"/>
     <path d="m155.24 73.18 2.083-2.4198-2.844 0.0241z"/>
     <path d="m158.33 73.18 0.801-3.9379-1.812 1.5181z"/>
     <path d="m150.21 72.02 2.95 1.0351-1.402-3.2052z"/>
     <path d="m158.33 73.18 3.375-2.1495-2.574-1.7884z"/>
     <path d="m146.59 71.348 3.614 0.6715-1.218-2.0298z"/>
     <path d="m153.16 73.055 2.079 0.1248-0.761-2.3957z"/>
     <path d="m161.65 73.764 1.971-0.8392-1.914-1.8952z"/>
     <path d="m146.59 71.348 2.126 2.5798 1.488-1.9083z"/>
     <path d="m155.24 73.18h3.094l-1.011-2.4198z"/>
     <path d="m146.46 74.33 0.138-2.9822-1.452 1.3429z"/>
     <path d="m158.33 73.18 3.318 0.5849 0.057-2.7344z"/>
     <path d="m142.88 73.844 2.256-1.1527-1.627-0.6169z"/>
     <path d="m146.46 74.33 2.264-0.4024-2.126-2.5798z"/>
     <path d="m155.24 73.18 1.817 2.012 1.277-2.012z"/>
     <path d="m159.15 75.029 2.5-1.2642-3.318-0.5849z"/>
     <path d="m157.05 75.192 2.095-0.1629-0.818-1.8491z"/>
     <path d="m161.65 73.764 2.787 1.1803-0.816-2.0195z"/>
     <path d="m143.45 75.841 1.69-3.1501-2.256 1.1527z"/>
     <path d="m143.45 75.841 3.004-1.5108-1.314-1.6393z"/>
     <path d="m150.21 72.02 2.061 3.9729 0.889-2.9378z"/>
     <path d="m148.72 73.928 3.549 2.0646-2.061-3.9729z"/>
     <path d="m149.6 76.1 2.667-0.1078-3.549-2.0646z"/>
     <path d="m155.14 76.669 1.909-1.4773-1.817-2.012z"/>
     <path d="m153.16 73.055 1.987 3.6141 0.092-3.4893z"/>
     <path d="m152.27 75.993 2.876 0.6763-1.987-3.6141z"/>
     <path d="m159.15 75.029 2.563 1.968-0.063-3.2322z"/>
     <path d="m161.71 76.997 2.724-2.0519-2.787-1.1803z"/>
     <path d="m146.46 74.33 3.146 1.77-0.882-2.1724z"/>
     <path d="m143.45 75.841 2.48 1.8114 0.524-3.3222z"/>
     <path d="m161.71 76.997 2.463 0.6727 0.261-2.7246z"/>
     <path d="m157.05 75.192 1.872 2.7358 0.223-2.8987z"/>
     <path d="m155.14 76.669 1.901 1.582 8e-3 -3.0593z"/>
     <path d="m158.92 77.927 2.786-0.9307-2.563-1.968z"/>
     <path d="m145.93 77.653 3.67-1.5522-3.146-1.77z"/>
     <path d="m157.04 78.251 1.88-0.3235-1.872-2.7358z"/>
     <path d="m143.67 78.74 2.26-1.087-2.48-1.8114z"/>
     <path d="m152.62 78.765 2.525-2.0958-2.876-0.6763z"/>
     <path d="m164.44 74.945-0.981-5.1844 0.165 3.1649z"/>
     <path d="m158.92 77.927 1.984 1.3372 0.802-2.2679z"/>
     <path d="m149.6 76.1 3.018 2.6643-0.351-2.7721z"/>
     <path d="m147.67 79.686 1.928-3.5856-3.67 1.5522z"/>
     <path d="m150.28 79.981 2.341-1.2167-3.018-2.6643z"/>
     <path d="m161.71 76.997 1.727 2.8572 0.736-2.1845z"/>
     <path d="m160.91 79.265 2.529 0.5893-1.727-2.8572z"/>
     <path d="m154.87 80.213 2.177-1.9617-1.901-1.582z"/>
     <path d="m152.62 78.765 2.249 1.4479 0.276-3.5437z"/>
     <path d="m147.67 79.686 2.605 0.2954-0.677-3.881z"/>
     <path d="m143.67 78.74 1.86 2.1707 0.4-3.2577z"/>
     <path d="m145.53 80.91 2.142-1.2243-1.742-2.0334z"/>
     <path d="m152.8 81.387 2.064-1.1748-2.249-1.4479z"/>
     <path d="m154.87 80.213 2.372 1.1735-0.195-3.1352z"/>
     <path d="m157.24 81.386 1.685-3.4587-1.88 0.3235z"/>
     <path d="m150.28 79.981 2.526 1.406-0.185-2.6227z"/>
     <path d="m143.98 69.317-1.095 4.5268 0.629-1.7696z"/>
     <path d="m158.92 77.927 1.534 3.3752 0.45-2.038z"/>
     <path d="m160.91 79.265 1.399 2.659 1.13-2.0697z"/>
     <path d="m160.46 81.303 1.849 0.621-1.399-2.659z"/>
     <path d="m157.24 81.386 3.219-0.0835-1.534-3.3752z"/>
     <path d="m151.03 82.6 1.774-1.2129-2.526-1.406z"/>
     <path d="m158.51 82.893 1.948-1.59-3.219 0.0835z"/>
     <path d="m148.58 83.364 1.693-3.383-2.605-0.2954z"/>
     <path d="m148.58 83.364 2.445-0.7641-0.752-2.6189z"/>
     <path d="m146.38 83.404 1.288-3.7179-2.142 1.2243z"/>
     <path d="m146.38 83.404 2.2-0.0395-0.912-3.6784z"/>
     <path d="m160.51 83.57 1.8-1.6466-1.849-0.621z"/>
     <path d="m158.51 82.893 1.997 0.6776-0.049-2.2676z"/>
     <path d="m154.87 80.213 1.201 3.9992 1.171-2.8257z"/>
     <path d="m156.07 84.212 2.442-1.3192-1.271-1.5065z"/>
     <path d="m152.8 81.387 3.265 2.8244-1.201-3.9992z"/>
     <path d="m156.07 84.212 1.998 1.0865 0.444-2.4057z"/>
     <path d="m149.15 85.22 1.881-2.6199-2.445 0.7641z"/>
     <path d="m149.15 85.22 2.177 0.175-0.296-2.7949z"/>
     <path d="m158.07 85.298 2.441-1.7281-1.997-0.6776z"/>
     <path d="m152.8 81.387 1.61 4.5814 1.655-1.757z"/>
     <path d="m151.33 85.395 1.478-4.0078-1.774 1.2129z"/>
     <path d="m151.33 85.395 3.088 0.5736-1.61-4.5814z"/>
     <path d="m146.38 83.404 2.764 1.8163-0.564-1.8558z"/>
     <path d="m154.41 85.969 3.653-0.6705-1.998-1.0865z"/>
     <path d="m142.88 73.844 0.786 4.8958-0.22-2.8984z"/>
     <path d="m143.67 78.74 2.714 4.6643-0.854-2.4936z"/>
     <path d="m149.15 85.22 5.265 0.7486-3.088-0.5736z"/>
    </g>
   </g>
  </g>
  <path d="m28.479 2.4317c0.1042-1.7543 1.3434-3.4983 2.6343-4.2024 0.14362 0.73358 1.2361 1.9984 1.2361 1.9984 0.9964 1.0854 2.0263 2.3287 2.558 3.5452 0.37327 2.2161-1.1658 3.981-1.9258 4.6164 0.65291-1.3929 0.0449-3.3567-0.95999-4.0577-0.20337-0.13106-0.7679-1.8855-3.5426-1.8999" stroke-width=".052916"/>
  <path transform="matrix(.79914 .35205 -.25455 .61595 33.889 21.692)" d="m-15.361-15.751s2.185 1.771 3.4934 1.7909c1.3915 0.02113 3.7713-1.7909 3.7713-1.7909 0.87886 0.59251-0.73183 2.3786-1.7297 2.8981-1.2145 0.6322-2.9433 0.43913-4.0966-0.29867-0.8342-0.53363-2.0356-1.8096-1.4383-2.5994z" filter="url(#filter21906)" opacity=".15" style="mix-blend-mode:normal"/>
  <g stroke-width=".052916">
   <path d="m30.358 3.911c2.8487-0.39191 3.8504 3.6299 2.1625 5.196-3.5754 1.9219-8.634 0.79068-9.5093-3.0204-0.10764-0.53819-0.1835-1.3213 0.19836-1.7031 0.5224-0.52238 4.8851 0.25455 5.6219 0.39089 0 0-0.01773 0.46491-0.83067 0.85022 0 0-1.1275 0.094257-1.4596 0.24615-0.82267 0.37631-1.0561 0.99301-1.0561 0.99301 0.12343 1.8008 1.7182 2.9822 3.6095 2.8245 3.1134-0.25952 3.8837-4.2793 1.2629-5.7773z"/>
   <path d="m24.856 5.9696c-0.96574 0.039692-1.7855-1.0475-1.7855-1.0475s0.1758-0.31497 1.2146-0.4856c1.3589-0.22322 2.262 1.1543 4.4048 0.41599 0.13734-0.056489-1.5818-0.66279-2.1718-1.4227-0.59439-0.76562-2.2158-0.79224-2.2158-0.79224-0.44932-0.91669-0.21205-1.8444-0.21205-1.8444-2.0404 1.1145-3.3697 3.8239-2.7044 7.1396 0.36806 1.8342 1.5535 3.6037 3.5684 4.8596 5.3934 2.8263 10.272-0.80425 11.056-4.9818 0.95764-4.1735-1.8721-6.2387-1.8721-6.2387 1.8125 3.3215 0.33024 6.7451-3.4306 8.0188-4.0376 0.92009-5.9446-1.4497-5.8514-3.6214z"/>
   <path d="m34.138 1.4899c3.7818 7.7587-2.5352 11.932-7.3738 10.817-4.5966-1.588-5.0075-4.1619-5.5648-6.1256 0.13414 5.2794 4.6161 7.7709 7.986 7.5208 6.606-0.49023 9.2427-8.6946 4.9527-12.213z"/>
   <path d="m31.122-1.7814c-1.6212 2.7733-0.05405 4.6183 0.75293 5.9093"/>
  </g>
 </g>
 <g transform="matrix(.717 0 0 .717 -12.121 4.16)">
  <path d="m24.384 2.6791c0.56558-0.81565 1.8345-1.4842 1.8345-1.4842s-0.27825 1.2795 0.11716 2.0233c-0.11412 0.095938-0.753-0.18281-0.88881-0.21677-0.37661-0.094152-0.83461-0.054598-1.0629-0.32234z" fill="url(#linearGradient26477)" stroke="url(#linearGradient35215)" stroke-width=".052916"/>
  <g transform="matrix(1.3568 0 0 1.3568 -2.552 -2.5544)" fill="url(#radialGradient38685)" stroke="#d8dee9" stroke-opacity=".1">
   <g transform="translate(-18.792 -13.057)" fill="url(#radialGradient38685)" stroke="#d8dee9" stroke-opacity=".1" stroke-width=".026458">
    <g transform="matrix(.27515 0 0 .27515 -.34857 -.66315)" fill="url(#radialGradient38685)" stroke="#d8dee9" stroke-linecap="round" stroke-linejoin="round" stroke-opacity=".1" stroke-width=".096157">
     <path d="m152.94 63.12 2.039 2.5157 1.557-2.256z"/>
     <path d="m151.46 66.103 1.471-2.9837-3.034 0.6007z"/>
     <path d="m147.66 64.896 1.61 1.9075 0.628-3.0832z"/>
     <path d="m156.53 63.379 1.565 3.4184 1.087-2.1777z"/>
     <path d="m149.27 66.804 2.191-0.7002-1.563-2.383z"/>
     <path d="m151.46 66.103 3.51-0.468-2.039-2.5157z"/>
     <path d="m154.97 65.635 3.122 1.1624-1.565-3.4184z"/>
     <path d="m158.1 66.798 2.857-0.2134-1.77-1.9643z"/>
     <path d="m151.46 66.103 2.556 1.8011 0.954-2.2691z"/>
     <path d="m145.68 66.681 3.598 0.1228-1.61-1.9075z"/>
     <path d="m146.57 68.438 2.702-1.6347-3.598-0.1228z"/>
     <path d="m156.2 68.762 1.894-1.9643-3.122-1.1624z"/>
     <path d="m154.02 67.904 2.182 0.8576-1.228-3.1267z"/>
     <path d="m159.13 69.242 1.822-2.6573-2.857 0.2134z"/>
     <path d="m159.13 69.242 2.58-0.7083-0.758-1.949z"/>
     <path d="m143.98 69.317 2.591-0.8787-0.896-1.7575z"/>
     <path d="m151.76 69.85 2.265-1.9451-2.556-1.8011z"/>
     <path d="m163.45 69.76-2.501-3.176 0.758 1.949z"/>
     <path d="m156.2 68.762 2.929 0.4796-1.035-2.4439z"/>
     <path d="m149.27 66.804 2.482 3.046-0.291-3.7462z"/>
     <path d="m146.57 68.438 2.418 1.5516 0.284-3.1863z"/>
     <path d="m148.99 69.99 2.766-0.1403-2.482-3.046z"/>
     <path d="m157.32 70.76 1.812-1.5181-2.929-0.4796z"/>
     <path d="m154.48 70.784 1.727-2.0218-2.182-0.8576z"/>
     <path d="m161.7 71.03 1.749-1.2697-1.743-1.227z"/>
     <path d="m151.76 69.85 2.72 0.9343-0.455-2.8794z"/>
     <path d="m159.13 69.242 2.574 1.7884 6e-3 -2.4967z"/>
     <path d="m146.59 71.348 2.396-1.3583-2.418-1.5516z"/>
     <path d="m143.98 69.317 2.613 2.0312-0.022-2.9099z"/>
     <path d="m154.48 70.784 2.844-0.0241-1.117-1.9977z"/>
     <path d="m150.21 72.02 1.548-2.1701-2.766 0.1403z"/>
     <path d="m143.51 72.074 3.079-0.726-2.613-2.0312z"/>
     <path d="m143.51 72.074 1.627 0.6169 1.452-1.3429z"/>
     <path d="m161.7 71.03 1.914 1.8952-0.165-3.1649z"/>
     <path d="m151.76 69.85 1.402 3.2052 1.318-2.2709z"/>
     <path d="m155.24 73.18 2.083-2.4198-2.844 0.0241z"/>
     <path d="m158.33 73.18 0.801-3.9379-1.812 1.5181z"/>
     <path d="m150.21 72.02 2.95 1.0351-1.402-3.2052z"/>
     <path d="m158.33 73.18 3.375-2.1495-2.574-1.7884z"/>
     <path d="m146.59 71.348 3.614 0.6715-1.218-2.0298z"/>
     <path d="m153.16 73.055 2.079 0.1248-0.761-2.3957z"/>
     <path d="m161.65 73.764 1.971-0.8392-1.914-1.8952z"/>
     <path d="m146.59 71.348 2.126 2.5798 1.488-1.9083z"/>
     <path d="m155.24 73.18h3.094l-1.011-2.4198z"/>
     <path d="m146.46 74.33 0.138-2.9822-1.452 1.3429z"/>
     <path d="m158.33 73.18 3.318 0.5849 0.057-2.7344z"/>
     <path d="m142.88 73.844 2.256-1.1527-1.627-0.6169z"/>
     <path d="m146.46 74.33 2.264-0.4024-2.126-2.5798z"/>
     <path d="m155.24 73.18 1.817 2.012 1.277-2.012z"/>
     <path d="m159.15 75.029 2.5-1.2642-3.318-0.5849z"/>
     <path d="m157.05 75.192 2.095-0.1629-0.818-1.8491z"/>
     <path d="m161.65 73.764 2.787 1.1803-0.816-2.0195z"/>
     <path d="m143.45 75.841 1.69-3.1501-2.256 1.1527z"/>
     <path d="m143.45 75.841 3.004-1.5108-1.314-1.6393z"/>
     <path d="m150.21 72.02 2.061 3.9729 0.889-2.9378z"/>
     <path d="m148.72 73.928 3.549 2.0646-2.061-3.9729z"/>
     <path d="m149.6 76.1 2.667-0.1078-3.549-2.0646z"/>
     <path d="m155.14 76.669 1.909-1.4773-1.817-2.012z"/>
     <path d="m153.16 73.055 1.987 3.6141 0.092-3.4893z"/>
     <path d="m152.27 75.993 2.876 0.6763-1.987-3.6141z"/>
     <path d="m159.15 75.029 2.563 1.968-0.063-3.2322z"/>
     <path d="m161.71 76.997 2.724-2.0519-2.787-1.1803z"/>
     <path d="m146.46 74.33 3.146 1.77-0.882-2.1724z"/>
     <path d="m143.45 75.841 2.48 1.8114 0.524-3.3222z"/>
     <path d="m161.71 76.997 2.463 0.6727 0.261-2.7246z"/>
     <path d="m157.05 75.192 1.872 2.7358 0.223-2.8987z"/>
     <path d="m155.14 76.669 1.901 1.582 8e-3 -3.0593z"/>
     <path d="m158.92 77.927 2.786-0.9307-2.563-1.968z"/>
     <path d="m145.93 77.653 3.67-1.5522-3.146-1.77z"/>
     <path d="m157.04 78.251 1.88-0.3235-1.872-2.7358z"/>
     <path d="m143.67 78.74 2.26-1.087-2.48-1.8114z"/>
     <path d="m152.62 78.765 2.525-2.0958-2.876-0.6763z"/>
     <path d="m164.44 74.945-0.981-5.1844 0.165 3.1649z"/>
     <path d="m158.92 77.927 1.984 1.3372 0.802-2.2679z"/>
     <path d="m149.6 76.1 3.018 2.6643-0.351-2.7721z"/>
     <path d="m147.67 79.686 1.928-3.5856-3.67 1.5522z"/>
     <path d="m150.28 79.981 2.341-1.2167-3.018-2.6643z"/>
     <path d="m161.71 76.997 1.727 2.8572 0.736-2.1845z"/>
     <path d="m160.91 79.265 2.529 0.5893-1.727-2.8572z"/>
     <path d="m154.87 80.213 2.177-1.9617-1.901-1.582z"/>
     <path d="m152.62 78.765 2.249 1.4479 0.276-3.5437z"/>
     <path d="m147.67 79.686 2.605 0.2954-0.677-3.881z"/>
     <path d="m143.67 78.74 1.86 2.1707 0.4-3.2577z"/>
     <path d="m145.53 80.91 2.142-1.2243-1.742-2.0334z"/>
     <path d="m152.8 81.387 2.064-1.1748-2.249-1.4479z"/>
     <path d="m154.87 80.213 2.372 1.1735-0.195-3.1352z"/>
     <path d="m157.24 81.386 1.685-3.4587-1.88 0.3235z"/>
     <path d="m150.28 79.981 2.526 1.406-0.185-2.6227z"/>
     <path d="m143.98 69.317-1.095 4.5268 0.629-1.7696z"/>
     <path d="m158.92 77.927 1.534 3.3752 0.45-2.038z"/>
     <path d="m160.91 79.265 1.399 2.659 1.13-2.0697z"/>
     <path d="m160.46 81.303 1.849 0.621-1.399-2.659z"/>
     <path d="m157.24 81.386 3.219-0.0835-1.534-3.3752z"/>
     <path d="m151.03 82.6 1.774-1.2129-2.526-1.406z"/>
     <path d="m158.51 82.893 1.948-1.59-3.219 0.0835z"/>
     <path d="m148.58 83.364 1.693-3.383-2.605-0.2954z"/>
     <path d="m148.58 83.364 2.445-0.7641-0.752-2.6189z"/>
     <path d="m146.38 83.404 1.288-3.7179-2.142 1.2243z"/>
     <path d="m146.38 83.404 2.2-0.0395-0.912-3.6784z"/>
     <path d="m160.51 83.57 1.8-1.6466-1.849-0.621z"/>
     <path d="m158.51 82.893 1.997 0.6776-0.049-2.2676z"/>
     <path d="m154.87 80.213 1.201 3.9992 1.171-2.8257z"/>
     <path d="m156.07 84.212 2.442-1.3192-1.271-1.5065z"/>
     <path d="m152.8 81.387 3.265 2.8244-1.201-3.9992z"/>
     <path d="m156.07 84.212 1.998 1.0865 0.444-2.4057z"/>
     <path d="m149.15 85.22 1.881-2.6199-2.445 0.7641z"/>
     <path d="m149.15 85.22 2.177 0.175-0.296-2.7949z"/>
     <path d="m158.07 85.298 2.441-1.7281-1.997-0.6776z"/>
     <path d="m152.8 81.387 1.61 4.5814 1.655-1.757z"/>
     <path d="m151.33 85.395 1.478-4.0078-1.774 1.2129z"/>
     <path d="m151.33 85.395 3.088 0.5736-1.61-4.5814z"/>
     <path d="m146.38 83.404 2.764 1.8163-0.564-1.8558z"/>
     <path d="m154.41 85.969 3.653-0.6705-1.998-1.0865z"/>
     <path d="m142.88 73.844 0.786 4.8958-0.22-2.8984z"/>
     <path d="m143.67 78.74 2.714 4.6643-0.854-2.4936z"/>
     <path d="m149.15 85.22 5.265 0.7486-3.088-0.5736z"/>
     <path d="m152.94 63.12 2.039 2.5157 1.557-2.256z"/>
     <path d="m151.46 66.103 1.471-2.9837-3.034 0.6007z"/>
     <path d="m147.66 64.896 1.61 1.9075 0.628-3.0832z"/>
     <path d="m156.53 63.379 1.565 3.4184 1.087-2.1777z"/>
     <path d="m149.27 66.804 2.191-0.7002-1.563-2.383z"/>
     <path d="m151.46 66.103 3.51-0.468-2.039-2.5157z"/>
     <path d="m154.97 65.635 3.122 1.1624-1.565-3.4184z"/>
     <path d="m158.1 66.798 2.857-0.2134-1.77-1.9643z"/>
     <path d="m151.46 66.103 2.556 1.8011 0.954-2.2691z"/>
     <path d="m145.68 66.681 3.598 0.1228-1.61-1.9075z"/>
     <path d="m146.57 68.438 2.702-1.6347-3.598-0.1228z"/>
     <path d="m156.2 68.762 1.894-1.9643-3.122-1.1624z"/>
     <path d="m154.02 67.904 2.182 0.8576-1.228-3.1267z"/>
     <path d="m159.13 69.242 1.822-2.6573-2.857 0.2134z"/>
     <path d="m159.13 69.242 2.58-0.7083-0.758-1.949z"/>
     <path d="m143.98 69.317 2.591-0.8787-0.896-1.7575z"/>
     <path d="m151.76 69.85 2.265-1.9451-2.556-1.8011z"/>
     <path d="m163.45 69.76-2.501-3.176 0.758 1.949z"/>
     <path d="m156.2 68.762 2.929 0.4796-1.035-2.4439z"/>
     <path d="m149.27 66.804 2.482 3.046-0.291-3.7462z"/>
     <path d="m146.57 68.438 2.418 1.5516 0.284-3.1863z"/>
     <path d="m148.99 69.99 2.766-0.1403-2.482-3.046z"/>
     <path d="m157.32 70.76 1.812-1.5181-2.929-0.4796z"/>
     <path d="m154.48 70.784 1.727-2.0218-2.182-0.8576z"/>
     <path d="m161.7 71.03 1.749-1.2697-1.743-1.227z"/>
     <path d="m151.76 69.85 2.72 0.9343-0.455-2.8794z"/>
     <path d="m159.13 69.242 2.574 1.7884 6e-3 -2.4967z"/>
     <path d="m146.59 71.348 2.396-1.3583-2.418-1.5516z"/>
     <path d="m143.98 69.317 2.613 2.0312-0.022-2.9099z"/>
     <path d="m154.48 70.784 2.844-0.0241-1.117-1.9977z"/>
     <path d="m150.21 72.02 1.548-2.1701-2.766 0.1403z"/>
     <path d="m143.51 72.074 3.079-0.726-2.613-2.0312z"/>
     <path d="m143.51 72.074 1.627 0.6169 1.452-1.3429z"/>
     <path d="m161.7 71.03 1.914 1.8952-0.165-3.1649z"/>
     <path d="m151.76 69.85 1.402 3.2052 1.318-2.2709z"/>
     <path d="m155.24 73.18 2.083-2.4198-2.844 0.0241z"/>
     <path d="m158.33 73.18 0.801-3.9379-1.812 1.5181z"/>
     <path d="m150.21 72.02 2.95 1.0351-1.402-3.2052z"/>
     <path d="m158.33 73.18 3.375-2.1495-2.574-1.7884z"/>
     <path d="m146.59 71.348 3.614 0.6715-1.218-2.0298z"/>
     <path d="m153.16 73.055 2.079 0.1248-0.761-2.3957z"/>
     <path d="m161.65 73.764 1.971-0.8392-1.914-1.8952z"/>
     <path d="m146.59 71.348 2.126 2.5798 1.488-1.9083z"/>
     <path d="m155.24 73.18h3.094l-1.011-2.4198z"/>
     <path d="m146.46 74.33 0.138-2.9822-1.452 1.3429z"/>
     <path d="m158.33 73.18 3.318 0.5849 0.057-2.7344z"/>
     <path d="m142.88 73.844 2.256-1.1527-1.627-0.6169z"/>
     <path d="m146.46 74.33 2.264-0.4024-2.126-2.5798z"/>
     <path d="m155.24 73.18 1.817 2.012 1.277-2.012z"/>
     <path d="m159.15 75.029 2.5-1.2642-3.318-0.5849z"/>
     <path d="m157.05 75.192 2.095-0.1629-0.818-1.8491z"/>
     <path d="m161.65 73.764 2.787 1.1803-0.816-2.0195z"/>
     <path d="m143.45 75.841 1.69-3.1501-2.256 1.1527z"/>
     <path d="m143.45 75.841 3.004-1.5108-1.314-1.6393z"/>
     <path d="m150.21 72.02 2.061 3.9729 0.889-2.9378z"/>
     <path d="m148.72 73.928 3.549 2.0646-2.061-3.9729z"/>
     <path d="m149.6 76.1 2.667-0.1078-3.549-2.0646z"/>
     <path d="m155.14 76.669 1.909-1.4773-1.817-2.012z"/>
     <path d="m153.16 73.055 1.987 3.6141 0.092-3.4893z"/>
     <path d="m152.27 75.993 2.876 0.6763-1.987-3.6141z"/>
     <path d="m159.15 75.029 2.563 1.968-0.063-3.2322z"/>
     <path d="m161.71 76.997 2.724-2.0519-2.787-1.1803z"/>
     <path d="m146.46 74.33 3.146 1.77-0.882-2.1724z"/>
     <path d="m143.45 75.841 2.48 1.8114 0.524-3.3222z"/>
     <path d="m161.71 76.997 2.463 0.6727 0.261-2.7246z"/>
     <path d="m157.05 75.192 1.872 2.7358 0.223-2.8987z"/>
     <path d="m155.14 76.669 1.901 1.582 8e-3 -3.0593z"/>
     <path d="m158.92 77.927 2.786-0.9307-2.563-1.968z"/>
     <path d="m145.93 77.653 3.67-1.5522-3.146-1.77z"/>
     <path d="m157.04 78.251 1.88-0.3235-1.872-2.7358z"/>
     <path d="m143.67 78.74 2.26-1.087-2.48-1.8114z"/>
     <path d="m152.62 78.765 2.525-2.0958-2.876-0.6763z"/>
     <path d="m164.44 74.945-0.981-5.1844 0.165 3.1649z"/>
     <path d="m158.92 77.927 1.984 1.3372 0.802-2.2679z"/>
     <path d="m149.6 76.1 3.018 2.6643-0.351-2.7721z"/>
     <path d="m147.67 79.686 1.928-3.5856-3.67 1.5522z"/>
     <path d="m150.28 79.981 2.341-1.2167-3.018-2.6643z"/>
     <path d="m161.71 76.997 1.727 2.8572 0.736-2.1845z"/>
     <path d="m160.91 79.265 2.529 0.5893-1.727-2.8572z"/>
     <path d="m154.87 80.213 2.177-1.9617-1.901-1.582z"/>
     <path d="m152.62 78.765 2.249 1.4479 0.276-3.5437z"/>
     <path d="m147.67 79.686 2.605 0.2954-0.677-3.881z"/>
     <path d="m143.67 78.74 1.86 2.1707 0.4-3.2577z"/>
     <path d="m145.53 80.91 2.142-1.2243-1.742-2.0334z"/>
     <path d="m152.8 81.387 2.064-1.1748-2.249-1.4479z"/>
     <path d="m154.87 80.213 2.372 1.1735-0.195-3.1352z"/>
     <path d="m157.24 81.386 1.685-3.4587-1.88 0.3235z"/>
     <path d="m150.28 79.981 2.526 1.406-0.185-2.6227z"/>
     <path d="m143.98 69.317-1.095 4.5268 0.629-1.7696z"/>
     <path d="m158.92 77.927 1.534 3.3752 0.45-2.038z"/>
     <path d="m160.91 79.265 1.399 2.659 1.13-2.0697z"/>
     <path d="m160.46 81.303 1.849 0.621-1.399-2.659z"/>
     <path d="m157.24 81.386 3.219-0.0835-1.534-3.3752z"/>
     <path d="m151.03 82.6 1.774-1.2129-2.526-1.406z"/>
     <path d="m158.51 82.893 1.948-1.59-3.219 0.0835z"/>
     <path d="m148.58 83.364 1.693-3.383-2.605-0.2954z"/>
     <path d="m148.58 83.364 2.445-0.7641-0.752-2.6189z"/>
     <path d="m146.38 83.404 1.288-3.7179-2.142 1.2243z"/>
     <path d="m146.38 83.404 2.2-0.0395-0.912-3.6784z"/>
     <path d="m160.51 83.57 1.8-1.6466-1.849-0.621z"/>
     <path d="m158.51 82.893 1.997 0.6776-0.049-2.2676z"/>
     <path d="m154.87 80.213 1.201 3.9992 1.171-2.8257z"/>
     <path d="m156.07 84.212 2.442-1.3192-1.271-1.5065z"/>
     <path d="m152.8 81.387 3.265 2.8244-1.201-3.9992z"/>
     <path d="m156.07 84.212 1.998 1.0865 0.444-2.4057z"/>
     <path d="m149.15 85.22 1.881-2.6199-2.445 0.7641z"/>
     <path d="m149.15 85.22 2.177 0.175-0.296-2.7949z"/>
     <path d="m158.07 85.298 2.441-1.7281-1.997-0.6776z"/>
     <path d="m152.8 81.387 1.61 4.5814 1.655-1.757z"/>
     <path d="m151.33 85.395 1.478-4.0078-1.774 1.2129z"/>
     <path d="m151.33 85.395 3.088 0.5736-1.61-4.5814z"/>
     <path d="m146.38 83.404 2.764 1.8163-0.564-1.8558z"/>
     <path d="m154.41 85.969 3.653-0.6705-1.998-1.0865z"/>
     <path d="m142.88 73.844 0.786 4.8958-0.22-2.8984z"/>
     <path d="m143.67 78.74 2.714 4.6643-0.854-2.4936z"/>
     <path d="m149.15 85.22 5.265 0.7486-3.088-0.5736z"/>
     <path d="m152.94 63.12 2.039 2.5157 1.557-2.256z"/>
     <path d="m151.46 66.103 1.471-2.9837-3.034 0.6007z"/>
     <path d="m147.66 64.896 1.61 1.9075 0.628-3.0832z"/>
     <path d="m156.53 63.379 1.565 3.4184 1.087-2.1777z"/>
     <path d="m149.27 66.804 2.191-0.7002-1.563-2.383z"/>
     <path d="m151.46 66.103 3.51-0.468-2.039-2.5157z"/>
     <path d="m154.97 65.635 3.122 1.1624-1.565-3.4184z"/>
     <path d="m158.1 66.798 2.857-0.2134-1.77-1.9643z"/>
     <path d="m151.46 66.103 2.556 1.8011 0.954-2.2691z"/>
     <path d="m145.68 66.681 3.598 0.1228-1.61-1.9075z"/>
     <path d="m146.57 68.438 2.702-1.6347-3.598-0.1228z"/>
     <path d="m156.2 68.762 1.894-1.9643-3.122-1.1624z"/>
     <path d="m154.02 67.904 2.182 0.8576-1.228-3.1267z"/>
     <path d="m159.13 69.242 1.822-2.6573-2.857 0.2134z"/>
     <path d="m159.13 69.242 2.58-0.7083-0.758-1.949z"/>
     <path d="m143.98 69.317 2.591-0.8787-0.896-1.7575z"/>
     <path d="m151.76 69.85 2.265-1.9451-2.556-1.8011z"/>
     <path d="m163.45 69.76-2.501-3.176 0.758 1.949z"/>
     <path d="m156.2 68.762 2.929 0.4796-1.035-2.4439z"/>
     <path d="m149.27 66.804 2.482 3.046-0.291-3.7462z"/>
     <path d="m146.57 68.438 2.418 1.5516 0.284-3.1863z"/>
     <path d="m148.99 69.99 2.766-0.1403-2.482-3.046z"/>
     <path d="m157.32 70.76 1.812-1.5181-2.929-0.4796z"/>
     <path d="m154.48 70.784 1.727-2.0218-2.182-0.8576z"/>
     <path d="m161.7 71.03 1.749-1.2697-1.743-1.227z"/>
     <path d="m151.76 69.85 2.72 0.9343-0.455-2.8794z"/>
     <path d="m159.13 69.242 2.574 1.7884 6e-3 -2.4967z"/>
     <path d="m146.59 71.348 2.396-1.3583-2.418-1.5516z"/>
     <path d="m143.98 69.317 2.613 2.0312-0.022-2.9099z"/>
     <path d="m154.48 70.784 2.844-0.0241-1.117-1.9977z"/>
     <path d="m150.21 72.02 1.548-2.1701-2.766 0.1403z"/>
     <path d="m143.51 72.074 3.079-0.726-2.613-2.0312z"/>
     <path d="m143.51 72.074 1.627 0.6169 1.452-1.3429z"/>
     <path d="m161.7 71.03 1.914 1.8952-0.165-3.1649z"/>
     <path d="m151.76 69.85 1.402 3.2052 1.318-2.2709z"/>
     <path d="m155.24 73.18 2.083-2.4198-2.844 0.0241z"/>
     <path d="m158.33 73.18 0.801-3.9379-1.812 1.5181z"/>
     <path d="m150.21 72.02 2.95 1.0351-1.402-3.2052z"/>
     <path d="m158.33 73.18 3.375-2.1495-2.574-1.7884z"/>
     <path d="m146.59 71.348 3.614 0.6715-1.218-2.0298z"/>
     <path d="m153.16 73.055 2.079 0.1248-0.761-2.3957z"/>
     <path d="m161.65 73.764 1.971-0.8392-1.914-1.8952z"/>
     <path d="m146.59 71.348 2.126 2.5798 1.488-1.9083z"/>
     <path d="m155.24 73.18h3.094l-1.011-2.4198z"/>
     <path d="m146.46 74.33 0.138-2.9822-1.452 1.3429z"/>
     <path d="m158.33 73.18 3.318 0.5849 0.057-2.7344z"/>
     <path d="m142.88 73.844 2.256-1.1527-1.627-0.6169z"/>
     <path d="m146.46 74.33 2.264-0.4024-2.126-2.5798z"/>
     <path d="m155.24 73.18 1.817 2.012 1.277-2.012z"/>
     <path d="m159.15 75.029 2.5-1.2642-3.318-0.5849z"/>
     <path d="m157.05 75.192 2.095-0.1629-0.818-1.8491z"/>
     <path d="m161.65 73.764 2.787 1.1803-0.816-2.0195z"/>
     <path d="m143.45 75.841 1.69-3.1501-2.256 1.1527z"/>
     <path d="m143.45 75.841 3.004-1.5108-1.314-1.6393z"/>
     <path d="m150.21 72.02 2.061 3.9729 0.889-2.9378z"/>
     <path d="m148.72 73.928 3.549 2.0646-2.061-3.9729z"/>
     <path d="m149.6 76.1 2.667-0.1078-3.549-2.0646z"/>
     <path d="m155.14 76.669 1.909-1.4773-1.817-2.012z"/>
     <path d="m153.16 73.055 1.987 3.6141 0.092-3.4893z"/>
     <path d="m152.27 75.993 2.876 0.6763-1.987-3.6141z"/>
     <path d="m159.15 75.029 2.563 1.968-0.063-3.2322z"/>
     <path d="m161.71 76.997 2.724-2.0519-2.787-1.1803z"/>
     <path d="m146.46 74.33 3.146 1.77-0.882-2.1724z"/>
     <path d="m143.45 75.841 2.48 1.8114 0.524-3.3222z"/>
     <path d="m161.71 76.997 2.463 0.6727 0.261-2.7246z"/>
     <path d="m157.05 75.192 1.872 2.7358 0.223-2.8987z"/>
     <path d="m155.14 76.669 1.901 1.582 8e-3 -3.0593z"/>
     <path d="m158.92 77.927 2.786-0.9307-2.563-1.968z"/>
     <path d="m145.93 77.653 3.67-1.5522-3.146-1.77z"/>
     <path d="m157.04 78.251 1.88-0.3235-1.872-2.7358z"/>
     <path d="m143.67 78.74 2.26-1.087-2.48-1.8114z"/>
     <path d="m152.62 78.765 2.525-2.0958-2.876-0.6763z"/>
     <path d="m164.44 74.945-0.981-5.1844 0.165 3.1649z"/>
     <path d="m158.92 77.927 1.984 1.3372 0.802-2.2679z"/>
     <path d="m149.6 76.1 3.018 2.6643-0.351-2.7721z"/>
     <path d="m147.67 79.686 1.928-3.5856-3.67 1.5522z"/>
     <path d="m150.28 79.981 2.341-1.2167-3.018-2.6643z"/>
     <path d="m161.71 76.997 1.727 2.8572 0.736-2.1845z"/>
     <path d="m160.91 79.265 2.529 0.5893-1.727-2.8572z"/>
     <path d="m154.87 80.213 2.177-1.9617-1.901-1.582z"/>
     <path d="m152.62 78.765 2.249 1.4479 0.276-3.5437z"/>
     <path d="m147.67 79.686 2.605 0.2954-0.677-3.881z"/>
     <path d="m143.67 78.74 1.86 2.1707 0.4-3.2577z"/>
     <path d="m145.53 80.91 2.142-1.2243-1.742-2.0334z"/>
     <path d="m152.8 81.387 2.064-1.1748-2.249-1.4479z"/>
     <path d="m154.87 80.213 2.372 1.1735-0.195-3.1352z"/>
     <path d="m157.24 81.386 1.685-3.4587-1.88 0.3235z"/>
     <path d="m150.28 79.981 2.526 1.406-0.185-2.6227z"/>
     <path d="m143.98 69.317-1.095 4.5268 0.629-1.7696z"/>
     <path d="m158.92 77.927 1.534 3.3752 0.45-2.038z"/>
     <path d="m160.91 79.265 1.399 2.659 1.13-2.0697z"/>
     <path d="m160.46 81.303 1.849 0.621-1.399-2.659z"/>
     <path d="m157.24 81.386 3.219-0.0835-1.534-3.3752z"/>
     <path d="m151.03 82.6 1.774-1.2129-2.526-1.406z"/>
     <path d="m158.51 82.893 1.948-1.59-3.219 0.0835z"/>
     <path d="m148.58 83.364 1.693-3.383-2.605-0.2954z"/>
     <path d="m148.58 83.364 2.445-0.7641-0.752-2.6189z"/>
     <path d="m146.38 83.404 1.288-3.7179-2.142 1.2243z"/>
     <path d="m146.38 83.404 2.2-0.0395-0.912-3.6784z"/>
     <path d="m160.51 83.57 1.8-1.6466-1.849-0.621z"/>
     <path d="m158.51 82.893 1.997 0.6776-0.049-2.2676z"/>
     <path d="m154.87 80.213 1.201 3.9992 1.171-2.8257z"/>
     <path d="m156.07 84.212 2.442-1.3192-1.271-1.5065z"/>
     <path d="m152.8 81.387 3.265 2.8244-1.201-3.9992z"/>
     <path d="m156.07 84.212 1.998 1.0865 0.444-2.4057z"/>
     <path d="m149.15 85.22 1.881-2.6199-2.445 0.7641z"/>
     <path d="m149.15 85.22 2.177 0.175-0.296-2.7949z"/>
     <path d="m158.07 85.298 2.441-1.7281-1.997-0.6776z"/>
     <path d="m152.8 81.387 1.61 4.5814 1.655-1.757z"/>
     <path d="m151.33 85.395 1.478-4.0078-1.774 1.2129z"/>
     <path d="m151.33 85.395 3.088 0.5736-1.61-4.5814z"/>
     <path d="m146.38 83.404 2.764 1.8163-0.564-1.8558z"/>
     <path d="m154.41 85.969 3.653-0.6705-1.998-1.0865z"/>
     <path d="m142.88 73.844 0.786 4.8958-0.22-2.8984z"/>
     <path d="m143.67 78.74 2.714 4.6643-0.854-2.4936z"/>
     <path d="m149.15 85.22 5.265 0.7486-3.088-0.5736z"/>
     <path d="m152.94 63.12 2.039 2.5157 1.557-2.256z"/>
     <path d="m151.46 66.103 1.471-2.9837-3.034 0.6007z"/>
     <path d="m147.66 64.896 1.61 1.9075 0.628-3.0832z"/>
     <path d="m156.53 63.379 1.565 3.4184 1.087-2.1777z"/>
     <path d="m149.27 66.804 2.191-0.7002-1.563-2.383z"/>
     <path d="m151.46 66.103 3.51-0.468-2.039-2.5157z"/>
     <path d="m154.97 65.635 3.122 1.1624-1.565-3.4184z"/>
     <path d="m158.1 66.798 2.857-0.2134-1.77-1.9643z"/>
     <path d="m151.46 66.103 2.556 1.8011 0.954-2.2691z"/>
     <path d="m145.68 66.681 3.598 0.1228-1.61-1.9075z"/>
     <path d="m146.57 68.438 2.702-1.6347-3.598-0.1228z"/>
     <path d="m156.2 68.762 1.894-1.9643-3.122-1.1624z"/>
     <path d="m154.02 67.904 2.182 0.8576-1.228-3.1267z"/>
     <path d="m159.13 69.242 1.822-2.6573-2.857 0.2134z"/>
     <path d="m159.13 69.242 2.58-0.7083-0.758-1.949z"/>
     <path d="m143.98 69.317 2.591-0.8787-0.896-1.7575z"/>
     <path d="m151.76 69.85 2.265-1.9451-2.556-1.8011z"/>
     <path d="m163.45 69.76-2.501-3.176 0.758 1.949z"/>
     <path d="m156.2 68.762 2.929 0.4796-1.035-2.4439z"/>
     <path d="m149.27 66.804 2.482 3.046-0.291-3.7462z"/>
     <path d="m146.57 68.438 2.418 1.5516 0.284-3.1863z"/>
     <path d="m148.99 69.99 2.766-0.1403-2.482-3.046z"/>
     <path d="m157.32 70.76 1.812-1.5181-2.929-0.4796z"/>
     <path d="m154.48 70.784 1.727-2.0218-2.182-0.8576z"/>
     <path d="m161.7 71.03 1.749-1.2697-1.743-1.227z"/>
     <path d="m151.76 69.85 2.72 0.9343-0.455-2.8794z"/>
     <path d="m159.13 69.242 2.574 1.7884 6e-3 -2.4967z"/>
     <path d="m146.59 71.348 2.396-1.3583-2.418-1.5516z"/>
     <path d="m143.98 69.317 2.613 2.0312-0.022-2.9099z"/>
     <path d="m154.48 70.784 2.844-0.0241-1.117-1.9977z"/>
     <path d="m150.21 72.02 1.548-2.1701-2.766 0.1403z"/>
     <path d="m143.51 72.074 3.079-0.726-2.613-2.0312z"/>
     <path d="m143.51 72.074 1.627 0.6169 1.452-1.3429z"/>
     <path d="m161.7 71.03 1.914 1.8952-0.165-3.1649z"/>
     <path d="m151.76 69.85 1.402 3.2052 1.318-2.2709z"/>
     <path d="m155.24 73.18 2.083-2.4198-2.844 0.0241z"/>
     <path d="m158.33 73.18 0.801-3.9379-1.812 1.5181z"/>
     <path d="m150.21 72.02 2.95 1.0351-1.402-3.2052z"/>
     <path d="m158.33 73.18 3.375-2.1495-2.574-1.7884z"/>
     <path d="m146.59 71.348 3.614 0.6715-1.218-2.0298z"/>
     <path d="m153.16 73.055 2.079 0.1248-0.761-2.3957z"/>
     <path d="m161.65 73.764 1.971-0.8392-1.914-1.8952z"/>
     <path d="m146.59 71.348 2.126 2.5798 1.488-1.9083z"/>
     <path d="m155.24 73.18h3.094l-1.011-2.4198z"/>
     <path d="m146.46 74.33 0.138-2.9822-1.452 1.3429z"/>
     <path d="m158.33 73.18 3.318 0.5849 0.057-2.7344z"/>
     <path d="m142.88 73.844 2.256-1.1527-1.627-0.6169z"/>
     <path d="m146.46 74.33 2.264-0.4024-2.126-2.5798z"/>
     <path d="m155.24 73.18 1.817 2.012 1.277-2.012z"/>
     <path d="m159.15 75.029 2.5-1.2642-3.318-0.5849z"/>
     <path d="m157.05 75.192 2.095-0.1629-0.818-1.8491z"/>
     <path d="m161.65 73.764 2.787 1.1803-0.816-2.0195z"/>
     <path d="m143.45 75.841 1.69-3.1501-2.256 1.1527z"/>
     <path d="m143.45 75.841 3.004-1.5108-1.314-1.6393z"/>
     <path d="m150.21 72.02 2.061 3.9729 0.889-2.9378z"/>
     <path d="m148.72 73.928 3.549 2.0646-2.061-3.9729z"/>
     <path d="m149.6 76.1 2.667-0.1078-3.549-2.0646z"/>
     <path d="m155.14 76.669 1.909-1.4773-1.817-2.012z"/>
     <path d="m153.16 73.055 1.987 3.6141 0.092-3.4893z"/>
     <path d="m152.27 75.993 2.876 0.6763-1.987-3.6141z"/>
     <path d="m159.15 75.029 2.563 1.968-0.063-3.2322z"/>
     <path d="m161.71 76.997 2.724-2.0519-2.787-1.1803z"/>
     <path d="m146.46 74.33 3.146 1.77-0.882-2.1724z"/>
     <path d="m143.45 75.841 2.48 1.8114 0.524-3.3222z"/>
     <path d="m161.71 76.997 2.463 0.6727 0.261-2.7246z"/>
     <path d="m157.05 75.192 1.872 2.7358 0.223-2.8987z"/>
     <path d="m155.14 76.669 1.901 1.582 8e-3 -3.0593z"/>
     <path d="m158.92 77.927 2.786-0.9307-2.563-1.968z"/>
     <path d="m145.93 77.653 3.67-1.5522-3.146-1.77z"/>
     <path d="m157.04 78.251 1.88-0.3235-1.872-2.7358z"/>
     <path d="m143.67 78.74 2.26-1.087-2.48-1.8114z"/>
     <path d="m152.62 78.765 2.525-2.0958-2.876-0.6763z"/>
     <path d="m164.44 74.945-0.981-5.1844 0.165 3.1649z"/>
     <path d="m158.92 77.927 1.984 1.3372 0.802-2.2679z"/>
     <path d="m149.6 76.1 3.018 2.6643-0.351-2.7721z"/>
     <path d="m147.67 79.686 1.928-3.5856-3.67 1.5522z"/>
     <path d="m150.28 79.981 2.341-1.2167-3.018-2.6643z"/>
     <path d="m161.71 76.997 1.727 2.8572 0.736-2.1845z"/>
     <path d="m160.91 79.265 2.529 0.5893-1.727-2.8572z"/>
     <path d="m154.87 80.213 2.177-1.9617-1.901-1.582z"/>
     <path d="m152.62 78.765 2.249 1.4479 0.276-3.5437z"/>
     <path d="m147.67 79.686 2.605 0.2954-0.677-3.881z"/>
     <path d="m143.67 78.74 1.86 2.1707 0.4-3.2577z"/>
     <path d="m145.53 80.91 2.142-1.2243-1.742-2.0334z"/>
     <path d="m152.8 81.387 2.064-1.1748-2.249-1.4479z"/>
     <path d="m154.87 80.213 2.372 1.1735-0.195-3.1352z"/>
     <path d="m157.24 81.386 1.685-3.4587-1.88 0.3235z"/>
     <path d="m150.28 79.981 2.526 1.406-0.185-2.6227z"/>
     <path d="m143.98 69.317-1.095 4.5268 0.629-1.7696z"/>
     <path d="m158.92 77.927 1.534 3.3752 0.45-2.038z"/>
     <path d="m160.91 79.265 1.399 2.659 1.13-2.0697z"/>
     <path d="m160.46 81.303 1.849 0.621-1.399-2.659z"/>
     <path d="m157.24 81.386 3.219-0.0835-1.534-3.3752z"/>
     <path d="m151.03 82.6 1.774-1.2129-2.526-1.406z"/>
     <path d="m158.51 82.893 1.948-1.59-3.219 0.0835z"/>
     <path d="m148.58 83.364 1.693-3.383-2.605-0.2954z"/>
     <path d="m148.58 83.364 2.445-0.7641-0.752-2.6189z"/>
     <path d="m146.38 83.404 1.288-3.7179-2.142 1.2243z"/>
     <path d="m146.38 83.404 2.2-0.0395-0.912-3.6784z"/>
     <path d="m160.51 83.57 1.8-1.6466-1.849-0.621z"/>
     <path d="m158.51 82.893 1.997 0.6776-0.049-2.2676z"/>
     <path d="m154.87 80.213 1.201 3.9992 1.171-2.8257z"/>
     <path d="m156.07 84.212 2.442-1.3192-1.271-1.5065z"/>
     <path d="m152.8 81.387 3.265 2.8244-1.201-3.9992z"/>
     <path d="m156.07 84.212 1.998 1.0865 0.444-2.4057z"/>
     <path d="m149.15 85.22 1.881-2.6199-2.445 0.7641z"/>
     <path d="m149.15 85.22 2.177 0.175-0.296-2.7949z"/>
     <path d="m158.07 85.298 2.441-1.7281-1.997-0.6776z"/>
     <path d="m152.8 81.387 1.61 4.5814 1.655-1.757z"/>
     <path d="m151.33 85.395 1.478-4.0078-1.774 1.2129z"/>
     <path d="m151.33 85.395 3.088 0.5736-1.61-4.5814z"/>
     <path d="m146.38 83.404 2.764 1.8163-0.564-1.8558z"/>
     <path d="m154.41 85.969 3.653-0.6705-1.998-1.0865z"/>
     <path d="m142.88 73.844 0.786 4.8958-0.22-2.8984z"/>
     <path d="m143.67 78.74 2.714 4.6643-0.854-2.4936z"/>
     <path d="m149.15 85.22 5.265 0.7486-3.088-0.5736z"/>
    </g>
   </g>
  </g>
  <path d="m28.479 2.4317c0.1042-1.7543 1.3434-3.4983 2.6343-4.2024 0.14362 0.73358 1.2361 1.9984 1.2361 1.9984 0.9964 1.0854 2.0263 2.3287 2.558 3.5452 0.37327 2.2161-1.1658 3.981-1.9258 4.6164 0.65291-1.3929 0.0449-3.3567-0.95999-4.0577-0.20337-0.13106-0.7679-1.8855-3.5426-1.8999" fill="url(#linearGradient22615)" stroke="url(#linearGradient32529)" stroke-width=".052916"/>
  <path transform="matrix(.79914 .35205 -.25455 .61595 33.889 21.692)" d="m-15.361-15.751s2.185 1.771 3.4934 1.7909c1.3915 0.02113 3.7713-1.7909 3.7713-1.7909 0.87886 0.59251-0.73183 2.3786-1.7297 2.8981-1.2145 0.6322-2.9433 0.43913-4.0966-0.29867-0.8342-0.53363-2.0356-1.8096-1.4383-2.5994z" fill="url(#linearGradient21964)" filter="url(#filter21906)" opacity=".15" style="mix-blend-mode:normal"/>
  <g stroke-width=".052916">
   <path d="m30.358 3.911c2.8487-0.39191 3.8504 3.6299 2.1625 5.196-3.5754 1.9219-8.634 0.79068-9.5093-3.0204-0.10764-0.53819-0.1835-1.3213 0.19836-1.7031 0.5224-0.52238 4.8851 0.25455 5.6219 0.39089 0 0-0.01773 0.46491-0.83067 0.85022 0 0-1.1275 0.094257-1.4596 0.24615-0.82267 0.37631-1.0561 0.99301-1.0561 0.99301 0.12343 1.8008 1.7182 2.9822 3.6095 2.8245 3.1134-0.25952 3.8837-4.2793 1.2629-5.7773z" fill="url(#linearGradient23225)" stroke="url(#linearGradient35217)"/>
   <path d="m24.856 5.9696c-0.96574 0.039692-1.7855-1.0475-1.7855-1.0475s0.1758-0.31497 1.2146-0.4856c1.3589-0.22322 2.262 1.1543 4.4048 0.41599 0.13734-0.056489-1.5818-0.66279-2.1718-1.4227-0.59439-0.76562-2.2158-0.79224-2.2158-0.79224-0.44932-0.91669-0.21205-1.8444-0.21205-1.8444-2.0404 1.1145-3.3697 3.8239-2.7044 7.1396 0.36806 1.8342 1.5535 3.6037 3.5684 4.8596 5.3934 2.8263 10.272-0.80425 11.056-4.9818 0.95764-4.1735-1.8721-6.2387-1.8721-6.2387 1.8125 3.3215 0.33024 6.7451-3.4306 8.0188-4.0376 0.92009-5.9446-1.4497-5.8514-3.6214z" fill="url(#linearGradient23601)" stroke="url(#linearGradient35219)"/>
   <path d="m34.138 1.4899c3.7818 7.7587-2.5352 11.932-7.3738 10.817-4.5966-1.588-5.0075-4.1619-5.5648-6.1256 0.13414 5.2794 4.6161 7.7709 7.986 7.5208 6.606-0.49023 9.2427-8.6946 4.9527-12.213z" fill="url(#linearGradient25781)" stroke="url(#linearGradient35221)"/>
   <path d="m31.122-1.7814c-1.6212 2.7733-0.05405 4.6183 0.75293 5.9093" fill="none" stroke="url(#linearGradient32531)"/>
  </g>
 </g>
</svg>
