<svg width="64" height="64" version="1.1" viewBox="0 0 16.933 16.933" xmlns="http://www.w3.org/2000/svg">
 <defs>
  <radialGradient id="radialGradient19316" cx="26.376" cy="-16.036" r="4.6995" gradientTransform="matrix(.93064 .01152 -.013189 1.0655 -36.597 2.0295)" gradientUnits="userSpaceOnUse">
   <stop stop-color="#5e81ac" offset="0"/>
   <stop stop-color="#b48ead" offset="1"/>
  </radialGradient>
  <filter id="filter21906" x="-.11641" y="-.27262" width="1.2328" height="1.5452" color-interpolation-filters="sRGB">
   <feGaussianBlur stdDeviation="0.37244598"/>
  </filter>
  <linearGradient id="linearGradient21964" x1="-12.281" x2="-11.751" y1="-16.241" y2="-12.378" gradientUnits="userSpaceOnUse">
   <stop stop-color="#2e3440" offset="0"/>
   <stop stop-color="#2e3440" offset="1"/>
  </linearGradient>
  <linearGradient id="linearGradient22615" x1="-8.818" x2="-8.818" y1="-25.649" y2="-13.994" gradientTransform="translate(-.047299 .047299)" gradientUnits="userSpaceOnUse">
   <stop stop-color="#ebcb8b" offset="0"/>
   <stop stop-color="#d08770" offset=".88322"/>
   <stop stop-color="#bf616a" offset="1"/>
  </linearGradient>
  <linearGradient id="linearGradient23225" x1="-15.014" x2="-15.014" y1="-19.093" y2="-12.175" gradientTransform="translate(.047299)" gradientUnits="userSpaceOnUse">
   <stop stop-color="#ebcb8b" offset="0"/>
   <stop stop-color="#d08770" offset=".61927"/>
   <stop stop-color="#bf616a" offset="1"/>
  </linearGradient>
  <linearGradient id="linearGradient23601" x1="-13.294" x2="-18.47" y1="-22.432" y2="-10.43" gradientTransform="translate(-.094598 .094598)" gradientUnits="userSpaceOnUse">
   <stop stop-color="#ebcb8b" offset="0"/>
   <stop stop-color="#d08770" offset=".57416"/>
   <stop stop-color="#bf616a" offset="1"/>
  </linearGradient>
  <linearGradient id="linearGradient25781" x1="-4.4322" x2="1.0518" y1="-4.8941" y2="-10.115" gradientTransform="translate(-3.0427 -9.1728)" gradientUnits="userSpaceOnUse">
   <stop stop-color="#bf616a" offset="0"/>
   <stop stop-color="#dfae82" offset=".73456"/>
   <stop stop-color="#ebcb8b" offset="1"/>
  </linearGradient>
  <linearGradient id="linearGradient26477" x1="-14.483" x2="-15.613" y1="-22.341" y2="-20.384" gradientTransform="translate(0 .1419)" gradientUnits="userSpaceOnUse">
   <stop stop-color="#ebcb8b" offset="0"/>
   <stop stop-color="#d08770" offset="1"/>
  </linearGradient>
  <filter id="filter937" x="-.027481" y="-.026536" width="1.055" height="1.0531" color-interpolation-filters="sRGB">
   <feGaussianBlur stdDeviation="0.19753134"/>
  </filter>
  <linearGradient id="linearGradient1340-5" x1="8.355" x2="8.3996" y1="16.007" y2=".79375" gradientTransform="translate(-.0076499 -.086359)" gradientUnits="userSpaceOnUse">
   <stop stop-color="#d8dee9" offset="0"/>
   <stop stop-color="#eceff4" offset="1"/>
  </linearGradient>
  <filter id="filter1178-36" x="-.047999" y="-.047999" width="1.096" height="1.096" color-interpolation-filters="sRGB">
   <feGaussianBlur stdDeviation="0.30691668"/>
  </filter>
 </defs>
 <g transform="translate(-.00025546 -.11386)">
  <rect transform="matrix(.99138 0 0 1 .072989 .0019055)" x=".79375" y=".90545" width="15.346" height="15.346" rx="3.0526" ry="3.0526" filter="url(#filter1178-36)" opacity=".15" stroke-linecap="round" stroke-linejoin="round" stroke-width="1.2489" style="mix-blend-mode:normal"/>
 </g>
 <rect x=".91839" y=".83968" width="15.081" height="15.081" rx="3" ry="3" fill="url(#linearGradient1340-5)" stroke-linecap="round" stroke-linejoin="round" stroke-width="1.2274"/>
 <rect x=".0045001" y="-.080342" width="16.924" height="16.927" fill="none" opacity=".15" stroke-linecap="round" stroke-linejoin="round" stroke-width="1.052"/>
 <g transform="matrix(.6421 0 0 .6421 16.023 19.312)" fill="#2e3440" filter="url(#filter937)" opacity=".25" style="mix-blend-mode:normal">
  <path d="m-16.589-20.495c0.64919-0.93623 2.1057-1.7036 2.1057-1.7036s-0.31938 1.4686 0.13448 2.3224c-0.13099 0.11012-0.86431-0.20984-1.0202-0.24881-0.43228-0.10807-0.95799-0.06267-1.22-0.36999z"/>
  <path d="m-11.889-20.779c0.11961-2.0136 1.542-4.0155 3.0237-4.8236 0.16485 0.84202 1.4188 2.2938 1.4188 2.2938 1.1437 1.2458 2.3258 2.673 2.9362 4.0693 0.42845 2.5437-1.3381 4.5695-2.2105 5.2988 0.74943-1.5988 0.05154-3.8529-1.1019-4.6575-0.23343-0.15044-0.88142-2.1642-4.0663-2.1808"/>
  <ellipse cx="-11.6" cy="-15.725" rx="4.6995" ry="5.1213"/>
  <path transform="matrix(.91727 .40409 -.29218 .70701 -5.6795 1.3281)" d="m-15.361-15.751s2.185 1.771 3.4934 1.7909c1.3915 0.02113 3.7713-1.7909 3.7713-1.7909 0.87886 0.59251-0.73183 2.3786-1.7297 2.8981-1.2145 0.6322-2.9433 0.43913-4.0966-0.29867-0.8342-0.53363-2.0356-1.8096-1.4383-2.5994z" filter="url(#filter21906)" opacity=".15" style="mix-blend-mode:normal"/>
  <path d="m-9.733-19.081c3.2698-0.44985 4.4196 4.1665 2.4822 5.9641-4.1039 2.206-9.9104 0.90757-10.915-3.4669-0.12355-0.61775-0.21063-1.5166 0.22768-1.9549 0.59962-0.5996 5.6073 0.29218 6.453 0.44867 0 0-0.02035 0.53364-0.95347 0.97591 0 0-1.2942 0.10819-1.6754 0.28254-0.94428 0.43194-1.2122 1.1398-1.2122 1.1398 0.14168 2.067 1.9722 3.423 4.1431 3.242 3.5736-0.29788 4.4578-4.9119 1.4496-6.6313z"/>
  <path d="m-16.048-16.718c-1.1085 0.04556-2.0494-1.2023-2.0494-1.2023s0.20179-0.36153 1.3941-0.55738c1.5598-0.25622 2.5964 1.3249 5.056 0.47749 0.15764-0.06484-1.8156-0.76077-2.4928-1.633-0.68226-0.8788-2.5433-0.90935-2.5433-0.90935-0.51574-1.0522-0.2434-2.117-0.2434-2.117-2.342 1.2793-3.8678 4.3892-3.1042 8.195 0.42247 2.1054 1.7832 4.1364 4.0959 5.578 6.1907 3.2441 11.791-0.92314 12.69-5.7182 1.0992-4.7905-2.1488-7.1609-2.1488-7.1609 2.0804 3.8125 0.37906 7.7422-3.9377 9.2042-4.6345 1.0561-6.8234-1.664-6.7164-4.1567z"/>
  <path d="m-5.3941-21.86c4.3409 8.9056-2.91 13.696-8.4638 12.416-5.2761-1.8227-5.7478-4.7771-6.3874-7.0311 0.15397 6.0598 5.2985 8.9196 9.1665 8.6326 7.5825-0.5627 10.609-9.9799 5.6848-14.018z"/>
 </g>
 <g transform="matrix(.6421 0 0 .6421 15.928 19.17)">
  <path d="m-16.589-20.495c0.64919-0.93623 2.1057-1.7036 2.1057-1.7036s-0.31938 1.4686 0.13448 2.3224c-0.13099 0.11012-0.86431-0.20984-1.0202-0.24881-0.43228-0.10807-0.95799-0.06267-1.22-0.36999z" fill="url(#linearGradient26477)"/>
  <path d="m-11.889-20.779c0.11961-2.0136 1.542-4.0155 3.0237-4.8236 0.16485 0.84202 1.4188 2.2938 1.4188 2.2938 1.1437 1.2458 2.3258 2.673 2.9362 4.0693 0.42845 2.5437-1.3381 4.5695-2.2105 5.2988 0.74943-1.5988 0.05154-3.8529-1.1019-4.6575-0.23343-0.15044-0.88142-2.1642-4.0663-2.1808" fill="url(#linearGradient22615)"/>
  <ellipse cx="-11.6" cy="-15.725" rx="4.6995" ry="5.1213" fill="url(#radialGradient19316)"/>
  <path transform="matrix(.91727 .40409 -.29218 .70701 -5.6795 1.3281)" d="m-15.361-15.751s2.185 1.771 3.4934 1.7909c1.3915 0.02113 3.7713-1.7909 3.7713-1.7909 0.87886 0.59251-0.73183 2.3786-1.7297 2.8981-1.2145 0.6322-2.9433 0.43913-4.0966-0.29867-0.8342-0.53363-2.0356-1.8096-1.4383-2.5994z" fill="url(#linearGradient21964)" filter="url(#filter21906)" opacity=".15" style="mix-blend-mode:normal"/>
  <path d="m-9.733-19.081c3.2698-0.44985 4.4196 4.1665 2.4822 5.9641-4.1039 2.206-9.9104 0.90757-10.915-3.4669-0.12355-0.61775-0.21063-1.5166 0.22768-1.9549 0.59962-0.5996 5.6073 0.29218 6.453 0.44867 0 0-0.02035 0.53364-0.95347 0.97591 0 0-1.2942 0.10819-1.6754 0.28254-0.94428 0.43194-1.2122 1.1398-1.2122 1.1398 0.14168 2.067 1.9722 3.423 4.1431 3.242 3.5736-0.29788 4.4578-4.9119 1.4496-6.6313z" fill="url(#linearGradient23225)"/>
  <path d="m-16.048-16.718c-1.1085 0.04556-2.0494-1.2023-2.0494-1.2023s0.20179-0.36153 1.3941-0.55738c1.5598-0.25622 2.5964 1.3249 5.056 0.47749 0.15764-0.06484-1.8156-0.76077-2.4928-1.633-0.68226-0.8788-2.5433-0.90935-2.5433-0.90935-0.51574-1.0522-0.2434-2.117-0.2434-2.117-2.342 1.2793-3.8678 4.3892-3.1042 8.195 0.42247 2.1054 1.7832 4.1364 4.0959 5.578 6.1907 3.2441 11.791-0.92314 12.69-5.7182 1.0992-4.7905-2.1488-7.1609-2.1488-7.1609 2.0804 3.8125 0.37906 7.7422-3.9377 9.2042-4.6345 1.0561-6.8234-1.664-6.7164-4.1567z" fill="url(#linearGradient23601)"/>
  <path d="m-5.3941-21.86c4.3409 8.9056-2.91 13.696-8.4638 12.416-5.2761-1.8227-5.7478-4.7771-6.3874-7.0311 0.15397 6.0598 5.2994 9.0284 9.1674 8.7414 7.6204-0.60346 10.608-10.089 5.6839-14.127z" fill="url(#linearGradient25781)"/>
 </g>
</svg>
