<svg width="64" height="64" version="1.1" viewBox="0 0 16.933 16.933" xmlns="http://www.w3.org/2000/svg">
 <defs>
  <filter id="filter1178" x="-.048" y="-.048" width="1.096" height="1.096" color-interpolation-filters="sRGB">
   <feGaussianBlur stdDeviation="0.30691955"/>
  </filter>
  <linearGradient id="linearGradient1340" x1="16.491" x2="6.0286" y1="16.346" y2="5.6537" gradientUnits="userSpaceOnUse">
   <stop stop-color="#ebcb8b" offset="0"/>
   <stop stop-color="#bf616a" offset="1"/>
  </linearGradient>
  <clipPath id="clipPath1392">
   <path class="st0" d="m-31.273 1.0577h3.2176c0.14527 0 0.26427 0.12791 0.26427 0.28407v3.55c0 0.15616-0.119 0.28407-0.26427 0.28407h-3.2176c-0.14527-0.00164-0.26427-0.12791-0.26427-0.28407v-3.55c0-0.15616 0.119-0.28407 0.26427-0.28407zm0.03245 14.978h6.2992c0.14527 0 0.26427 0.12791 0.26427 0.28407v3.55c0 0.15616-0.119 0.28407-0.26427 0.28407h-6.2992c-0.14527 0-0.26427-0.12791-0.26427-0.28407v-3.5517c0.0016-0.15616 0.119-0.28241 0.26427-0.28241zm15.237 0h3.1728c0.14527 0 0.26427 0.12791 0.26427 0.28407v3.55c0 0.15616-0.119 0.28407-0.26427 0.28407h-3.1728c-0.14527 0-0.26427-0.12791-0.26427-0.28407v-3.5517c0-0.15616 0.119-0.28241 0.26427-0.28241zm-7.5989 0h6.2992c0.14527 0 0.26427 0.12791 0.26427 0.28407v3.55c0 0.15616-0.119 0.28407-0.26427 0.28407h-6.2992c-0.14527 0-0.26427-0.12791-0.26427-0.28407v-3.5517c0-0.15616 0.119-0.28241 0.26427-0.28241zm4.4926-4.9936h6.2992c0.14527 0 0.26427 0.12791 0.26427 0.28407v3.55c0 0.15616-0.119 0.28407-0.26427 0.28407h-6.2992c-0.14527 0-0.26427-0.12791-0.26427-0.28407v-3.55c0-0.15616 0.119-0.28407 0.26427-0.28407zm-7.6159 0h6.2992c0.14527 0 0.26427 0.12791 0.26427 0.28407v3.55c0 0.15616-0.119 0.28407-0.26427 0.28407h-6.2992c-0.14527 0-0.26427-0.12791-0.26427-0.28407v-3.55c0.0016-0.15616 0.119-0.28407 0.26427-0.28407zm-4.5467 0h3.2176c0.14527 0 0.26427 0.12791 0.26427 0.28407v3.55c0 0.15616-0.119 0.28407-0.26427 0.28407h-3.2176c-0.14527 0-0.26427-0.12791-0.26427-0.28407v-3.55c0-0.15616 0.119-0.28407 0.26427-0.28407zm0.03245-4.992h6.2992c0.14527 0 0.26427 0.12791 0.26427 0.28407v3.55c0 0.15616-0.119 0.28407-0.26427 0.28407h-6.2992c-0.14527 0-0.26427-0.12791-0.26427-0.28407v-3.55c0.0016-0.15616 0.119-0.28407 0.26427-0.28407zm15.237 0h3.1728c0.14527 0 0.26427 0.12791 0.26427 0.28407v3.55c0 0.15616-0.119 0.28407-0.26427 0.28407h-3.1728c-0.14527 0-0.26427-0.12791-0.26427-0.28407v-3.55c0-0.15616 0.119-0.28407 0.26427-0.28407zm-7.5989 0h6.2992c0.14527 0 0.26427 0.12791 0.26427 0.28407v3.55c0 0.15616-0.119 0.28407-0.26427 0.28407h-6.2992c-0.14527 0-0.26427-0.12791-0.26427-0.28407v-3.55c0-0.15616 0.119-0.28407 0.26427-0.28407zm4.4926-4.992h6.2992c0.14527 0 0.26427 0.12791 0.26427 0.28407v3.55c0 0.15616-0.119 0.28407-0.26427 0.28407h-6.2992c-0.14527 0-0.26427-0.12791-0.26427-0.28407v-3.55c0-0.15616 0.119-0.28407 0.26427-0.28407zm-7.6159 0h6.2992c0.14527 0 0.26427 0.12791 0.26427 0.28407v3.55c0 0.15616-0.119 0.28407-0.26427 0.28407h-6.2992c-0.14527 0-0.26427-0.12791-0.26427-0.28407v-3.55c0.0016-0.15616 0.119-0.28407 0.26427-0.28407z" fill="#d08770" stroke-width=".16023"/>
  </clipPath>
  <linearGradient id="linearGradient1675" x1="-22.007" x2="-22.007" y1="2.77" y2="18.878" gradientUnits="userSpaceOnUse">
   <stop stop-color="#eceff4" offset="0"/>
   <stop stop-color="#d8dee9" offset="1"/>
  </linearGradient>
  <filter id="filter1928" x="-.12591" y="-.094552" width="1.2518" height="1.1891" color-interpolation-filters="sRGB">
   <feGaussianBlur stdDeviation="0.4071827"/>
  </filter>
 </defs>
 <g stroke-linecap="round" stroke-linejoin="round">
  <rect transform="matrix(.99138 0 0 1 .072989 .0019055)" x=".79375" y=".90545" width="15.346" height="15.346" rx="3.0526" ry="3.0526" fill="#000000" filter="url(#filter1178)" opacity=".15" stroke-width="1.2489" style="mix-blend-mode:normal"/>
  <rect x=".92604" y=".92604" width="15.081" height="15.081" rx="3" ry="3" fill="url(#linearGradient1340)" stroke-width="1.2274"/>
  <rect x=".01215" y=".0060174" width="16.924" height="16.927" fill="none" opacity=".15" stroke-width="1.052"/>
 </g>
 <style type="text/css"><![CDATA[
	.st0{fill-rule:evenodd;clip-rule:evenodd;fill:#EC6F59;}
	.st1{fill-rule:evenodd;clip-rule:evenodd;fill:#FAD15C;}
	.st2{fill-rule:evenodd;clip-rule:evenodd;fill:#393939;}
]]></style>
 <style type="text/css">.st0{fill-rule:evenodd;clip-rule:evenodd;}</style>
 <g transform="matrix(.64451 0 0 .64451 4.5725 -9.0889)">
  <path transform="matrix(.77784 0 0 .77784 23.226 18.88)" d="m-13.787 1.6396h-16.03v9.1677c-0.27694 4.0476 2.8414 7.6395 8.015 9.4892 5.1735-1.8497 8.2919-5.4416 8.015-9.4892v-9.1677z" fill="url(#linearGradient1675)" stroke-width=".15183"/>
  <path transform="matrix(.67553 0 0 .67553 20.996 20.002)" d="m-13.787 1.6396h-16.03v9.1677c-0.27694 4.0476 2.8414 7.6395 8.015 9.4892 5.1735-1.8497 8.2919-5.4416 8.015-9.4892v-9.1677z" clip-path="url(#clipPath1392)" fill="#d08770" stroke-width=".15183"/>
  <g transform="translate(-17.563 3.2324)">
   <path class="st1" d="m27.743 31.487c-0.40902-1.056-0.35304-2.7605 0.79161-3.3593 0.0093 1.9611 1.9409 2.21 1.5832 4.3033 0.32971-0.37326 0.49612-0.97046 0.52567-1.4433 0.52256 1.1975 0.11198 2.1555-0.63298 2.6439-2.2691 1.4837-4.2224-1.5241-2.9223-3.1727 0.03733 0.36859 0.48834 0.93625 0.65475 1.028zm-1.2831-3.1696c-0.24417-2.1944 1.0373-3.7388 3.4417-4.6175-1.4712 1.9098 1.2551 3.9798 1.4059 5.9627 0.35304-0.60187 0.55211-1.4044 0.59254-2.4775 1.8025 2.8274 0.30794 7.4511-3.6594 6.7855-0.36392-0.06065-0.7154-0.17574-1.0342-0.34682-1.4464-0.77139-2.3111-2.4557-2.3111-4.0638 0-1.0249 0.43857-1.9394 1.0047-2.6657 0.07465 0.71229 0.23639 1.2426 0.55988 1.423z" fill="#2e3440" filter="url(#filter1928)" opacity=".4" stroke-width=".15552"/>
  </g>
  <g transform="translate(-17.286 3.5795)" stroke-width=".15552">
   <path class="st0" d="m26.46 28.318c-0.24417-2.1944 1.0373-3.7388 3.4417-4.6175-1.4712 1.9098 1.2551 3.9798 1.4059 5.9627 0.35304-0.60187 0.55211-1.4044 0.59254-2.4775 1.8025 2.8274 0.30794 7.4511-3.6594 6.7855-0.36392-0.06065-0.7154-0.17574-1.0342-0.34682-1.4464-0.77139-2.3111-2.4557-2.3111-4.0638 0-1.0249 0.43857-1.9394 1.0047-2.6657 0.07465 0.71229 0.23639 1.2426 0.55988 1.423z" fill="#bf616a"/>
   <path class="st1" d="m27.743 31.487c-0.40902-1.056-0.35304-2.7605 0.79161-3.3593 0.0093 1.9611 1.9409 2.21 1.5832 4.3033 0.32971-0.37326 0.49612-0.97046 0.52567-1.4433 0.52256 1.1975 0.11198 2.1555-0.63298 2.6439-2.2691 1.4837-4.2224-1.5241-2.9223-3.1727 0.03733 0.36859 0.48834 0.93625 0.65475 1.028z" fill="#ebcb8b"/>
  </g>
 </g>
</svg>
