<svg width="64" height="64" version="1.1" viewBox="0 0 16.933 16.933" xmlns="http://www.w3.org/2000/svg">
 <defs>
  <filter id="filter1178" x="-.047999" y="-.047999" width="1.096" height="1.096" color-interpolation-filters="sRGB">
   <feGaussianBlur stdDeviation="0.30691668"/>
  </filter>
  <linearGradient id="linearGradient1340" x1="8.6644" x2="8.6644" y1="15.931" y2=".79375" gradientUnits="userSpaceOnUse">
   <stop stop-color="#5e81ac" offset="0"/>
   <stop stop-color="#88c0d0" offset="1"/>
  </linearGradient>
  <linearGradient id="linearGradient404" x1="8.4883" x2="8.4883" y1="2.382" y2="14.439" gradientUnits="userSpaceOnUse">
   <stop stop-color="#eceff4" offset="0"/>
   <stop stop-color="#d8dee9" offset="1"/>
  </linearGradient>
  <filter id="filter1047" x="-.050633" y="-.045628" width="1.1013" height="1.0913" color-interpolation-filters="sRGB">
   <feGaussianBlur stdDeviation="0.23090266"/>
  </filter>
 </defs>
 <g stroke-linecap="round" stroke-linejoin="round">
  <rect transform="matrix(.99138 0 0 1 .072989 .0019055)" x=".79375" y=".90545" width="15.346" height="15.346" rx="3.0526" ry="3.0526" filter="url(#filter1178)" opacity=".15" stroke-width="1.2489" style="mix-blend-mode:normal"/>
  <rect x=".92604" y=".92604" width="15.081" height="15.081" rx="3" ry="3" fill="url(#linearGradient1340)" stroke-width="1.2274"/>
  <rect x=".01215" y=".0060174" width="16.924" height="16.927" fill="none" opacity=".15" stroke-width="1.052"/>
 </g>
 <path d="m8.8772 14.479c0.20993-0.06209 4.0463-2.2402 4.4349-2.518 0.21408-0.15301 0.47483-0.53297 0.55804-0.81319 0.09172-0.30884 0.09172-5.0517 0-5.3606-0.083216-0.28022-0.34396-0.66018-0.55804-0.81319-0.38861-0.27775-4.225-2.4559-4.4349-2.518-0.28111-0.08313-0.54018-0.08313-0.82128 0-0.20994 0.06208-4.0463 2.2402-4.4349 2.518-0.21408 0.15301-0.47483 0.53297-0.55804 0.81319-0.091716 0.30884-0.091716 5.0517 0 5.3606 0.08322 0.28023 0.34397 0.66019 0.55804 0.81317 0.36282 0.25928 4.1819 2.4359 4.397 2.506 0.28235 0.09202 0.57485 0.09609 0.85928 0.01197zm-2.5123-2.2412c-1.076-0.61819-2.0115-1.1783-2.0788-1.2447l-0.12235-0.12071-0.011998-2.2934c-0.011728-2.2422-0.00263-2.5585 0.073378-2.5585 0.020513 0 0.97509 0.54142 2.1213 1.2032 1.1462 0.66173 2.0921 1.2032 2.1021 1.2032 0.00993 0 0.018056-1.092 0.018056-2.4267 0-2.2999 0.00381-2.4267 0.072624-2.4267 0.095312 0 3.955 2.218 4.0874 2.3489 0.07764 0.076718 0.08934 0.10861 0.04906 0.13368-0.0291 0.018111-0.98805 0.57233-2.131 1.2316l-2.0781 1.1987v2.4378c0 2.3105-0.00381 2.4378-0.072625 2.4378-0.039947 0-0.95302-0.5058-2.029-1.124z" filter="url(#filter1047)" opacity=".25" stroke-width=".040785"/>
 <path d="m8.8772 14.479c0.20993-0.06209 4.0463-2.2402 4.4349-2.518 0.21408-0.15301 0.47483-0.53297 0.55804-0.81319 0.09172-0.30884 0.09172-5.0517 0-5.3606-0.083216-0.28022-0.34396-0.66018-0.55804-0.81319-0.38861-0.27775-4.225-2.4559-4.4349-2.518-0.28111-0.08313-0.54018-0.08313-0.82128 0-0.20994 0.06208-4.0463 2.2402-4.4349 2.518-0.21408 0.15301-0.47483 0.53297-0.55804 0.81319-0.091716 0.30884-0.091716 5.0517 0 5.3606 0.08322 0.28023 0.34397 0.66019 0.55804 0.81317 0.36282 0.25928 4.1819 2.4359 4.397 2.506 0.28235 0.09202 0.57485 0.09609 0.85928 0.01197zm-2.5123-2.2412c-1.076-0.61819-2.0115-1.1783-2.0788-1.2447l-0.12235-0.12071-0.011998-2.2934c-0.011728-2.2422-0.00263-2.5585 0.073378-2.5585 0.020513 0 0.97509 0.54142 2.1213 1.2032 1.1462 0.66173 2.0921 1.2032 2.1021 1.2032 0.00993 0 0.018056-1.092 0.018056-2.4267 0-2.2999 0.00381-2.4267 0.072624-2.4267 0.095312 0 3.955 2.218 4.0874 2.3489 0.07764 0.076718 0.08934 0.10861 0.04906 0.13368-0.0291 0.018111-0.98805 0.57233-2.131 1.2316l-2.0781 1.1987v2.4378c0 2.3105-0.00381 2.4378-0.072625 2.4378-0.039947 0-0.95302-0.5058-2.029-1.124z" fill="url(#linearGradient404)" stroke-width=".040785"/>
</svg>
