<?xml version="1.0" encoding="UTF-8"?>
<svg width="64" height="64" version="1.1" viewBox="0 0 16.933 16.933" xmlns="http://www.w3.org/2000/svg">
 <defs>
  <filter id="filter1178" x="-.047999" y="-.047999" width="1.096" height="1.096" color-interpolation-filters="sRGB">
   <feGaussianBlur stdDeviation="0.30691668"/>
  </filter>
  <style>.cls-1{fill:#7ebc1b;fill-rule:evenodd;}.cls-2{fill:#629907;}</style>
  <linearGradient id="linearGradient6104" x1="15.85" x2="1.0028" y1="8.4727" y2="8.4727" gradientUnits="userSpaceOnUse">
   <stop stop-color="#eceff4" stop-opacity="0" offset="0"/>
   <stop stop-color="#d8dee9" stop-opacity=".15" offset=".3687"/>
   <stop stop-color="#2e3440" stop-opacity=".25" offset=".49753"/>
   <stop stop-color="#2e3440" stop-opacity=".5" offset=".5"/>
   <stop stop-color="#2e3440" stop-opacity=".25" offset=".50252"/>
   <stop stop-color="#d8dee9" stop-opacity=".15" offset=".65166"/>
   <stop stop-color="#eceff4" stop-opacity="0" offset="1"/>
  </linearGradient>
  <linearGradient id="linearGradient9523" x1="4.6333" x2="59.33" y1="57.141" y2="57.141" gradientUnits="userSpaceOnUse">
   <stop stop-color="#2e3440" stop-opacity=".25" offset="0"/>
   <stop stop-color="#bdc3ce" stop-opacity="0" offset=".057213"/>
   <stop stop-color="#2e3440" stop-opacity=".15" offset=".095862"/>
   <stop stop-color="#2e3440" stop-opacity=".15" offset=".90266"/>
   <stop stop-color="#c7cdd9" stop-opacity="0" offset=".94142"/>
   <stop stop-color="#2e3440" stop-opacity=".25" offset="1"/>
  </linearGradient>
 </defs>
 <g stroke-linecap="round" stroke-linejoin="round">
  <rect transform="matrix(.99138 0 0 1 .072989 .0019055)" x=".79375" y=".90545" width="15.346" height="15.346" rx="3.0526" ry="3.0526" filter="url(#filter1178)" opacity=".15" stroke-width="1.2489" style="mix-blend-mode:normal"/>
  <rect x=".92604" y=".92604" width="15.081" height="15.081" rx="3" ry="3" fill="#eceff4" stroke-width="1.2274"/>
  <rect x=".01215" y=".0060174" width="16.924" height="16.927" fill="none" opacity=".15" stroke-width="1.052"/>
  <rect x=".92604" y=".92604" width="15.081" height="15.081" rx="3" ry="3" fill="url(#linearGradient6104)" stroke-width="1.2274"/>
  <g stroke-width="4.6391">
   <path transform="scale(.26458)" d="m4.582 54.012c1.8118 3.8417 5.7139 6.4883 10.258 6.4883h34.322c4.544 0 8.4441-2.6466 10.256-6.4883h-54.836z" fill="#d8dee9"/>
   <path transform="scale(.26458)" d="m4.582 54.012c1.8118 3.8417 5.7139 6.4883 10.258 6.4883h34.322c4.544 0 8.4441-2.6466 10.256-6.4883h-54.836z" fill="url(#linearGradient9523)"/>
   <path transform="scale(.26458)" d="m7.3555 57.689c1.9942 1.7499 4.6106 2.8105 7.4844 2.8105h34.322c2.8736 0 5.4882-1.0609 7.4824-2.8105h-49.289z" fill="#8fbcbb"/>
  </g>
 </g>
 <g fill="#2e3440">
  <rect x="2.1623" y="3.5817" width="4.4256" height=".88201" opacity=".5" stroke-width=".74845"/>
  <rect x="2.8792" y="8.3441" width="3.7087" height=".88201" opacity=".5" stroke-width=".68515"/>
  <rect x="2.71" y="6.7566" width="3.8779" height=".88201" opacity=".5" stroke-width=".70061"/>
  <rect x="3.2725" y="5.1691" width="3.3153" height=".88201" opacity=".5" stroke-width=".6478"/>
 </g>
 <rect x="10.1" y="3.5817" width="4.4256" height=".88201" fill="#8fbcbb" stroke-width=".74845"/>
 <g fill="#2e3440">
  <rect x="10.1" y="8.3441" width="4.1207" height=".88201" opacity=".5" stroke-width=".72221"/>
  <rect x="10.1" y="6.7566" width="2.9857" height=".88201" opacity=".5" stroke-width=".61475"/>
  <rect x="10.1" y="5.1691" width="4.694" height=".88201" opacity=".5" stroke-width=".77081"/>
  <rect x="4.3456" y="9.9316" width="2.2423" height=".88201" opacity=".5" stroke-width=".53275"/>
  <rect x="10.1" y="9.9316" width="3.6113" height=".88201" opacity=".5" stroke-width=".67609"/>
 </g>
 <g transform="matrix(1.1351 0 0 1.1351 -1.1469 -1.4451)" stroke-width=".069821">
  <path d="m6.0501 9.7073c-2.9881-1.7749-2.2719-5.3667-1.2456-7.0296 0.024436-0.052366 0.24298-0.57393 0.26323-0.56346 0.012566-0.020946 0.48875 0.34073 0.53762 0.37494 1.5912 1.1171 3.8939 3.7261 2.3963 6.7029-1.3846 0.83786-0.37634 0.51319-1.955 0.51807z" fill="#a3be8c"/>
  <path d="m7.4424 10.353-0.52575-1.8586a2.8711 2.8711 0 0 0 0.52994-0.83157 5.4517 5.4517 0 0 0 0.36377-1.2002l0.061445-0.34212-0.14593 0.37075c-0.24368 0.61652-0.57463 1.4565-0.88673 1.7455l-0.36447-1.2128a3.3717 3.3717 0 0 0 0.53832-0.78689 3.3368 3.3368 0 0 0 0.28766-0.90209l0.053064-0.29325-0.118 0.2737a9.7513 9.7513 0 0 1-0.43219 0.91117 1.8977 1.8977 0 0 1-0.40496 0.53064l-0.26532-0.87277a3.2544 3.2544 0 0 0 0.50551-0.77781 3.3961 3.3961 0 0 0 0.26043-0.90139l0.043986-0.30721-0.11311 0.28697a9.2737 9.2737 0 0 1-0.40147 0.90768c-0.12358 0.2339-0.24926 0.41893-0.37843 0.52157l-0.67238-2.2399-0.066331 0.018153 0.47898 1.948c-0.16268-0.026532-0.36167-0.12219-0.58301-0.26183a9.3372 9.3372 0 0 1-0.80295-0.5865l-0.24158-0.19201 0.1934 0.24019a3.3626 3.3626 0 0 0 0.67517 0.65004 3.2313 3.2313 0 0 0 0.82529 0.41893l0.21575 0.88603a1.9808 1.9808 0 0 1-0.61862-0.25834 10.006 10.006 0 0 1-0.83367-0.56206l-0.23949-0.17595 0.19271 0.22482a3.3738 3.3738 0 0 0 0.7024 0.63258 3.394 3.394 0 0 0 0.8616 0.40357l0.31699 1.2889a2.9918 2.9918 0 0 1-0.69821-0.36796 8.4302 8.4302 0 0 1-0.99007-0.77013l-0.20946-0.19271 0.15849 0.23739a3.4422 3.4422 0 0 0 0.78619 0.79457 4.0797 4.0797 0 0 0 1.0173 0.56695l0.55438 2.1316c0.00417 0.01745 0.00838 0.03631 0.011869 0.05446l0.00838 0.0398c0.025132 0.10822 0.061445 0.17874 0.23041 0.13964 0.16897-0.0391 0.17804-0.11102 0.155-0.20946a0.82599 0.82599 0 0 0-0.023042-0.0796l-0.013263-0.04189z" fill="#97b67c"/>
  <path d="m7.4424 10.353-0.52575-1.8586a2.8711 2.8711 0 0 0 0.52994-0.83157 5.4517 5.4517 0 0 0 0.36377-1.2002l0.061445-0.34212-0.14593 0.37075c-0.24368 0.61652-0.57463 1.4565-0.88673 1.7455l-0.36447-1.2128a3.3717 3.3717 0 0 0 0.53832-0.78689 3.3368 3.3368 0 0 0 0.28766-0.90209l0.053064-0.29325-0.118 0.2737a9.7513 9.7513 0 0 1-0.43219 0.91117 1.8977 1.8977 0 0 1-0.40496 0.53064l-0.26532-0.87277a3.2544 3.2544 0 0 0 0.50551-0.77781 3.3961 3.3961 0 0 0 0.26043-0.90139l0.043986-0.30721-0.11311 0.28697a9.2737 9.2737 0 0 1-0.40147 0.90768c-0.12358 0.2339-0.24926 0.41893-0.37843 0.52157l-0.67238-2.2399-0.066331 0.018153 0.47898 1.948c-0.16268-0.026532-0.36167-0.12219-0.58301-0.26183a9.3372 9.3372 0 0 1-0.80295-0.5865l-0.24158-0.19201 0.1934 0.24019a3.3626 3.3626 0 0 0 0.67517 0.65004 3.2313 3.2313 0 0 0 0.82529 0.41893l0.21575 0.88603a1.9808 1.9808 0 0 1-0.61862-0.25834 10.006 10.006 0 0 1-0.83367-0.56206l-0.23949-0.17595 0.19271 0.22482a3.3738 3.3738 0 0 0 0.7024 0.63258 3.394 3.394 0 0 0 0.8616 0.40357l0.31699 1.2889a2.9918 2.9918 0 0 1-0.69821-0.36796 8.4302 8.4302 0 0 1-0.99007-0.77013l-0.20946-0.19271 0.15849 0.23739a3.4422 3.4422 0 0 0 0.78619 0.79457 4.0797 4.0797 0 0 0 1.0173 0.56695l0.55438 2.1316c0.00417 0.01745 0.00838 0.03631 0.011869 0.05446l0.00838 0.0398c0.025132 0.10822 0.061445 0.17874 0.23041 0.13964 0.16897-0.0391 0.17804-0.11102 0.155-0.20946a0.82599 0.82599 0 0 0-0.023042-0.0796l-0.013263-0.04189z" fill="#2e3440" opacity=".25"/>
 </g>
</svg>
