<svg width="64" height="64" version="1.1" viewBox="0 0 16.933 16.933" xmlns="http://www.w3.org/2000/svg">
 <defs>
  <filter id="filter1178" x="-.047999" y="-.047999" width="1.096" height="1.096" color-interpolation-filters="sRGB">
   <feGaussianBlur stdDeviation="0.30691668"/>
  </filter>
  <linearGradient id="linearGradient1340" x1="8.355" x2="8.3996" y1="16.007" y2=".79375" gradientUnits="userSpaceOnUse">
   <stop stop-color="#d8dee9" offset="0"/>
   <stop stop-color="#eceff4" offset="1"/>
  </linearGradient>
  <filter id="filter18629" x="-.084117" y="-.067666" width="1.1682" height="1.1353" color-interpolation-filters="sRGB">
   <feGaussianBlur stdDeviation="0.11904485"/>
  </filter>
  <filter id="filter18655" x="-.090434" y="-.06294" width="1.1809" height="1.1259" color-interpolation-filters="sRGB">
   <feGaussianBlur stdDeviation="0.13421396"/>
  </filter>
  <filter id="filter18681" x="-.084429" y="-.067416" width="1.1689" height="1.1348" color-interpolation-filters="sRGB">
   <feGaussianBlur stdDeviation="0.15131677"/>
  </filter>
 </defs>
 <g transform="translate(-.0076499 -.0030174)">
  <g stroke-linecap="round" stroke-linejoin="round">
   <rect transform="matrix(.99138 0 0 1 .072989 .0019055)" x=".79375" y=".90545" width="15.346" height="15.346" rx="3.0526" ry="3.0526" fill="#000000" filter="url(#filter1178)" opacity=".15" stroke-width="1.2489" style="mix-blend-mode:normal"/>
   <rect x=".92604" y=".92604" width="15.081" height="15.081" rx="3" ry="3" fill="url(#linearGradient1340)" stroke-width="1.2274"/>
   <rect x=".01215" y=".0060174" width="16.924" height="16.927" fill="none" opacity=".15" stroke-width="1.052"/>
  </g>
 </g>
 <g fill="#2e3440">
  <g transform="matrix(1.0751 0 0 .93015 .11472 .18356)" filter="url(#filter18655)" opacity=".25" stroke-width=".65948" aria-label="b">
   <path d="m8.7291 11.802v-5.0354h0.96517v1.8136q0.44652-0.50835 1.0579-0.50835 0.66635 0 1.1026 0.4843 0.43622 0.48087 0.43622 1.3842 0 0.93426-0.44652 1.4392-0.44309 0.50491-1.0785 0.50491-0.31256 0-0.61826-0.15456-0.30226-0.158-0.52209-0.4637v0.53583zm0.9583-1.9029q0 0.56674 0.17861 0.83809 0.25074 0.3847 0.66635 0.3847 0.31944 0 0.5427-0.27135 0.2267-0.27478 0.2267-0.86213 0-0.62513-0.2267-0.89991-0.2267-0.27822-0.58048-0.27822-0.34691 0-0.57704 0.27135-0.23013 0.26791-0.23013 0.81748z" fill="#2e3440"/>
  </g>
  <g transform="translate(.13767 .18356)" filter="url(#filter18629)" opacity=".25" stroke-width=".68936" aria-label="a">
   <path d="m6.9283 5.5265q-0.80066 0-1.1094 0.18311-0.30878 0.18311-0.30878 0.62473 0 0.35186 0.22979 0.56011 0.23338 0.20465 0.63191 0.20465 0.54933 0 0.87965-0.38777 0.33391-0.39136 0.33391-1.0376v-0.14721zm1.3177-0.27287v2.2943h-0.66064v-0.61037q-0.2262 0.36622-0.5637 0.54215-0.3375 0.17234-0.8258 0.17234-0.61755 0-0.98378-0.34468-0.36263-0.34827-0.36263-0.92992 0-0.67859 0.45239-1.0233 0.45598-0.34468 1.3572-0.34468h0.92633v-0.064628q0-0.45598-0.3016-0.70372-0.298-0.25133-0.84016-0.25133-0.34468 0-0.67141 0.08258t-0.62832 0.24774v-0.61037q0.36263-0.14003 0.70372-0.20824 0.34109-0.071808 0.66423-0.071808 0.87247 0 1.3033 0.45239t0.43085 1.3715z" fill="#2e3440"/>
  </g>
  <g stroke-width=".68936" aria-label="a">
   <path d="m6.9283 5.5265q-0.80066 0-1.1094 0.18311-0.30878 0.18311-0.30878 0.62473 0 0.35186 0.22979 0.56011 0.23338 0.20465 0.63191 0.20465 0.54933 0 0.87965-0.38777 0.33391-0.39136 0.33391-1.0376v-0.14721zm1.3177-0.27287v2.2943h-0.66064v-0.61037q-0.2262 0.36622-0.5637 0.54215-0.3375 0.17234-0.8258 0.17234-0.61755 0-0.98378-0.34468-0.36263-0.34827-0.36263-0.92992 0-0.67859 0.45239-1.0233 0.45598-0.34468 1.3572-0.34468h0.92633v-0.064628q0-0.45598-0.3016-0.70372-0.298-0.25133-0.84016-0.25133-0.34468 0-0.67141 0.08258t-0.62832 0.24774v-0.61037q0.36263-0.14003 0.70372-0.20824 0.34109-0.071808 0.66423-0.071808 0.87247 0 1.3033 0.45239t0.43085 1.3715z" fill="#2e3440"/>
  </g>
  <g transform="scale(1.0751 .93015)" stroke-width=".65948" aria-label="b">
   <path d="m8.7291 11.802v-5.0354h0.96517v1.8136q0.44652-0.50835 1.0579-0.50835 0.66635 0 1.1026 0.4843 0.43622 0.48087 0.43622 1.3842 0 0.93426-0.44652 1.4392-0.44309 0.50491-1.0785 0.50491-0.31256 0-0.61826-0.15456-0.30226-0.158-0.52209-0.4637v0.53583zm0.9583-1.9029q0 0.56674 0.17861 0.83809 0.25074 0.3847 0.66635 0.3847 0.31944 0 0.5427-0.27135 0.2267-0.27478 0.2267-0.86213 0-0.62513-0.2267-0.89991-0.2267-0.27822-0.58048-0.27822-0.34691 0-0.57704 0.27135-0.23013 0.26791-0.23013 0.81748z" fill="#2e3440"/>
  </g>
  <g transform="scale(1.0037 .99631)" stroke-width=".70889" aria-label="C">
   <path d="m7.9535 9.8468-0.14769 0.022153-0.26953-0.97104q-0.45783-0.11446-0.83074-0.11446-0.90458 0-1.4215 0.63136-0.5169 0.63136-0.5169 1.6393 0 1.0781 0.59075 1.7205 0.59075 0.64244 1.6356 0.64244 0.58705 0 1.2369-0.22522l0.040614 0.16615q-0.72736 0.50213-1.6467 0.50213-1.1926 0-1.9236-0.72736t-0.73105-1.9162q0-1.2664 0.80489-2.0048 0.80489-0.73843 2.1045-0.73843 0.62397 0 1.2775 0.15138l0.025845 0.029537z" fill="#2e3440"/>
  </g>
 </g>
 <text x="-49.806946" y="19.370577" font-family="sans-serif" font-size="2.8222px" letter-spacing="0px" stroke-width=".26458" word-spacing="0px" style="line-height:1.25" xml:space="preserve"><tspan x="-49.806946" y="19.370577" stroke-width=".26458"/></text>
 <g transform="scale(1.0037 .99631)" fill="#2e3440" filter="url(#filter18681)" opacity=".25" stroke-width=".70889" aria-label="C">
  <path d="m8.1135 10.008-0.14769 0.022152-0.26953-0.97104q-0.45783-0.11446-0.83074-0.11446-0.90458 0-1.4215 0.63136-0.5169 0.63136-0.5169 1.6393 0 1.0781 0.59075 1.7205 0.59075 0.64244 1.6356 0.64244 0.58705 0 1.2369-0.22522l0.040614 0.16615q-0.72736 0.50213-1.6467 0.50213-1.1926 0-1.9236-0.72736t-0.73105-1.9162q0-1.2664 0.80489-2.0048 0.80489-0.73843 2.1045-0.73843 0.62397 0 1.2775 0.15138l0.025845 0.029537z" fill="#2e3440"/>
 </g>
</svg>
