<?xml version="1.0" encoding="UTF-8"?>
<svg width="64" height="64" version="1.1" viewBox="0 0 16.933 16.933" xml:space="preserve" xmlns="http://www.w3.org/2000/svg" xmlns:xlink="http://www.w3.org/1999/xlink"><defs><filter id="filter1178" x="-.047999" y="-.047999" width="1.096" height="1.096" color-interpolation-filters="sRGB"><feGaussianBlur stdDeviation="0.30691668"/></filter><linearGradient id="linearGradient1637" x1="7.9709" x2="7.9827" y1="15.584" y2="1.1618" gradientTransform="matrix(.84 0 0 .84 1.3546 1.3546)" gradientUnits="userSpaceOnUse"><stop stop-color="#4c566a" offset="0"/><stop stop-color="#2e3440" offset="1"/></linearGradient><linearGradient id="linearGradient1781" x1="8.3056" x2="8.3056" y1="1.0579" y2="15.858" gradientUnits="userSpaceOnUse"><stop stop-color="#d8dee9" offset="0"/><stop stop-color="#eceff4" offset="1"/></linearGradient><filter id="filter1128" x="-.1761" y="-.94907" width="1.3522" height="2.8981" color-interpolation-filters="sRGB"><feGaussianBlur stdDeviation="0.16494722"/></filter><linearGradient id="linearGradient397" x1="7.2717" x2="8.921" y1="7.9458" y2="11.091" gradientTransform="matrix(1.0273 0 0 1.0273 .7892 .48506)" gradientUnits="userSpaceOnUse"><stop stop-color="#eac57b" offset="0"/><stop stop-color="#eceff4" offset="1"/></linearGradient><filter id="filter1109" x="-.34786" y="-.17379" width="1.6954" height="1.3476" color-interpolation-filters="sRGB"><feGaussianBlur stdDeviation="3.846864"/></filter><linearGradient id="linearGradient1915" x1="1921.4" x2="1945.5" y1="532.5" y2="632.03" gradientTransform="matrix(.11751 0 0 .11751 -221 -59.28)" gradientUnits="userSpaceOnUse"><stop stop-color="#ebcb8b" offset="0"/><stop stop-color="#eceff4" offset="1"/></linearGradient></defs><g stroke-linecap="round" stroke-linejoin="round"><rect transform="matrix(.99138 0 0 1 .072989 .0019055)" x=".79375" y=".90545" width="15.346" height="15.346" rx="3.0526" ry="3.0526" filter="url(#filter1178)" opacity=".15" stroke-width="1.2489" style="mix-blend-mode:normal"/><rect x=".01215" y=".0060174" width="16.924" height="16.927" fill="none" opacity=".15" stroke-width="1.052"/><rect x=".92604" y=".92604" width="15.081" height="15.081" rx="3" ry="3" fill="url(#linearGradient1781)" stroke-width="1.2274"/><rect x="2.1325" y="2.1325" width="12.668" height="12.668" rx="2.52" ry="2.52" fill="url(#linearGradient1637)" stroke-width="1.031"/></g><path transform="matrix(1.0273 0 0 1.0273 1.0044 .77206)" d="m10.15 8.0797v0.56353h-3.0371v-0.56353z" fill="#2e3440" filter="url(#filter1128)" stroke="#2e3440" stroke-linejoin="round" stroke-width=".27791"/><path d="m8.0955 8.6427a0.14276 0.14276 0 0 0-0.14211 0.14262v0.57773a0.14276 0.14276 0 0 0 0.14211 0.14469h3.1212a0.14276 0.14276 0 0 0 0.14262-0.14469v-0.57773a0.14276 0.14276 0 0 0-0.14262-0.14262h-3.1212z" color="#000000" fill="url(#linearGradient397)" stroke-linejoin="round" stroke-width=".2855" style="-inkscape-stroke:none"/><g transform="matrix(.11751 0 0 .11751 1.2668 -19.73)" fill="#2e3440" filter="url(#filter1109)" stroke="#2e3440"><path d="m37.006 207.13c-0.9539-0.24232-1.8766-0.41748-2.7117-0.49721-4.1121-0.39258-5.433-0.0326-7.5067 2.0491-2.8434 2.8538-2.2667 6.9068 1.4644 10.38 8.0896 7.5311 8.2202 12.581 0.4808 18.275-3.1863 2.3441-5.492 7.8532-4.4994 10.739 1.2501 3.6347 6.0098 5.0245 10.164 2.9734 3.8964-1.9237 8.3104-8.4997 11.321-16.362 0.2509-0.65526 0.4966-1.3194 0.7268-1.9912 0.6909-2.0152 1.2796-4.0953 1.7466-6.1793 1.4109-6.2947 1.0666-11.193-0.9956-14.138-1.287-1.8379-6.056-4.1992-10.189-5.2492z"/><g transform="translate(-1890.7 -335.57)"><ellipse cx="1934.7" cy="540.29" rx="2" ry="2.2761"/><ellipse cx="1939.1" cy="543.36" rx="1.6243" ry="1.7865"/><ellipse cx="1941.4" cy="547.07" rx="1.3326" ry="1.5"/><ellipse cx="1921.9" cy="536.07" rx="3.8098" ry="4.5"/><ellipse cx="1929.2" cy="537.57" rx="2.5" ry="3"/></g></g><path d="m5.9915 3.8905a0.29378 0.35253 0 0 1-0.29378 0.35253 0.29378 0.35253 0 0 1-0.29378-0.35253 0.29378 0.35253 0 0 1 0.29378-0.35253 0.29378 0.35253 0 0 1 0.29378 0.35253zm-0.70508-0.17627a0.44769 0.5288 0 0 1-0.4477 0.5288 0.44769 0.5288 0 0 1-0.44768-0.5288 0.44769 0.5288 0 0 1 0.44768-0.5288 0.44769 0.5288 0 0 1 0.4477 0.5288zm1.9977 1.2926a0.1566 0.17627 0 0 1-0.1566 0.17627 0.1566 0.17627 0 0 1-0.1566-0.17627 0.1566 0.17627 0 0 1 0.1566-0.17627 0.1566 0.17627 0 0 1 0.1566 0.17627zm-0.23501-0.43638a0.19087 0.20993 0 0 1-0.19087 0.20993 0.19087 0.20993 0 0 1-0.19087-0.20993 0.19087 0.20993 0 0 1 0.19087-0.20993 0.19087 0.20993 0 0 1 0.19087 0.20993zm-0.47005-0.35989a0.23502 0.26747 0 0 1-0.23502 0.26747 0.23502 0.26747 0 0 1-0.23502-0.26747 0.23502 0.26747 0 0 1 0.23502-0.26747 0.23502 0.26747 0 0 1 0.23502 0.26747zm-1.0569 0.28259c-0.11209-0.028475-0.22052-0.049059-0.31866-0.058428-0.48322-0.046133-0.63844-0.0038309-0.88212 0.24079-0.33413 0.33536-0.26636 0.81162 0.17208 1.2198 0.95062 0.88499 0.96597 1.4784 0.0565 2.1475-0.37443 0.27546-0.64537 0.92284-0.52873 1.262 0.1469 0.42712 0.70622 0.59043 1.1943 0.34941 0.45787-0.22606 0.97657-0.99881 1.3303-1.9228 0.029484-0.077 0.058356-0.15505 0.085407-0.23399 0.081189-0.23682 0.15037-0.48124 0.20525-0.72614 0.1658-0.73969 0.12534-1.3153-0.11699-1.6614-0.15124-0.21597-0.71165-0.49346-1.1973-0.61685z" fill="url(#linearGradient1915)" stroke-width=".11751"/></svg>
