<?xml version="1.0" encoding="UTF-8"?>
<svg width="64" height="64" version="1.1" viewBox="0 0 16.933 16.933" xmlns="http://www.w3.org/2000/svg">
 <defs>
  <filter id="filter1178" x="-.047999" y="-.047999" width="1.096" height="1.096" color-interpolation-filters="sRGB">
   <feGaussianBlur stdDeviation="0.30691668"/>
  </filter>
 </defs>
 <g stroke-linecap="round" stroke-linejoin="round">
  <rect transform="matrix(.99138 0 0 1 .072989 .0019055)" x=".79375" y=".90545" width="15.346" height="15.346" rx="3.0526" ry="3.0526" filter="url(#filter1178)" opacity=".15" stroke-width="1.2489" style="mix-blend-mode:normal"/>
  <g stroke-width="1.2274">
   <path d="m6.8731 16.007h-2.9471c-0.83086 0-1.5808-0.33439-2.123-0.87648l6.6635-6.664 2.9735 2.9735" fill="#88c0d0"/>
   <path d="m11.44 11.44 3.6903 3.6903c-0.54225 0.54225-1.2922 0.87675-2.1232 0.87675h-6.1339" fill="#81a1c1"/>
   <path d="m5.4553 5.4553 3.0112 3.0112-6.6637 6.6637c-0.54225-0.54225-0.87675-1.2922-0.87675-2.1232v-3.0225" fill="#5e81ac"/>
   <path d="m0.92604 9.9845v-6.0585c0-0.831 0.3345-1.581 0.87675-2.1232l3.6525 3.6525" fill="#ad85a5"/>
   <path d="m1.8031 15.131c-8.82e-5 -8.8e-5 -1.763e-4 -1.76e-4 -2.645e-4 -2.64e-4" fill="#2e3440"/>
  </g>
  <rect x=".01215" y=".0060174" width="16.924" height="16.927" fill="none" opacity=".15" stroke-width="1.052"/>
  <path d="m10.041 0.90718h2.9471c0.83086 0 1.5808 0.33439 2.123 0.87649l-6.6635 6.664-2.9735-2.9735" fill="#a3be8c" stroke-width="1.2274"/>
  <path d="m5.4742 5.4742-3.6903-3.6903c0.54225-0.54225 1.2923-0.87675 2.1232-0.87675h6.1339" fill="#ebcb8b" stroke-width="1.2274"/>
  <g stroke-width="4.6391">
   <path transform="scale(.26458)" d="m31.929 31.929 25.186-25.186c2.0495 2.0495 3.3138 4.8842 3.3138 8.025v17.162" fill="#d08770"/>
   <path transform="scale(.26458)" d="m43.31 43.31-11.381-11.381" fill="#2e3440"/>
   <path transform="scale(.26458)" d="m60.429 31.93v17.16c0 3.1408-1.2643 5.9756-3.3138 8.025l-25.186-25.186" fill="#bf616a"/>
   <path transform="scale(.26458)" d="m60.429 26.192v5.7383" fill="#2e3440"/>
  </g>
  <path d="m15.111 1.7837c8.8e-5 8.81e-5 1.76e-4 1.762e-4 2.64e-4 2.643e-4" fill="#2e3440" stroke-width="1.2274"/>
 </g>
 <g fill="#eceff4">
  <path d="m8.4665 8.4665 2.9735 2.9735 3.0117-3.0117z" opacity=".25"/>
  <path d="m14.452 8.4284-2.9925-2.9925-3.0115 3.0118z" opacity=".25"/>
 </g>
 <g stroke-linecap="round" stroke-linejoin="round" stroke-width="1.2274">
  <path d="m0.92604 9.9845v-6.0585c0-0.831 0.3345-1.581 0.87675-2.1232l3.6525 3.6525-2.2646 2.2646z" fill="#2e3440" opacity=".15"/>
  <path d="m2.5911 8.3195 3.0112 3.0112-3.7995 3.7996c-0.54225-0.54225-0.87675-1.2922-0.87675-2.1232v-3.0225" fill="#b48ead"/>
  <path d="m6.8731 16.007h-2.9471c-0.83086 0-1.5808-0.33439-2.123-0.87648l6.6635-6.664 2.9735 2.9735" fill="#88c0d0"/>
  <path d="m2.5911 8.3195 3.0112 3.0112-3.7995 3.7996c-0.54225-0.54225-0.87675-1.2922-0.87675-2.1232v-3.0225" fill="#2e3440" opacity=".15"/>
  <path d="m5.6801 16.007h-1.754c-0.83086 0-1.5808-0.33439-2.123-0.87648l3.7993-3.7998 0.077765 4.6763" fill="#b48ead" opacity=".5"/>
 </g>
 <g fill="#2e3440">
  <path d="m2.5911 8.3195 5.8754 0.14704-3.0112-3.0112z" opacity=".35"/>
  <path d="m8.4477 8.4477 0.042446-5.969-3.0112 3.0112z" opacity=".35"/>
  <path d="m2.6202 2.6202 5.8754-0.14704-3.0112 3.0112z" opacity=".35"/>
  <path d="m8.4477 8.4477 0.047932-5.9745 2.9826 2.9817z" opacity=".22"/>
 </g>
</svg>
