<svg width="64" height="64" version="1.1" viewBox="0 0 16.933 16.933" xmlns="http://www.w3.org/2000/svg">
 <defs>
  <filter id="filter1178" x="-.047999" y="-.047999" width="1.096" height="1.096" color-interpolation-filters="sRGB">
   <feGaussianBlur stdDeviation="0.30691668"/>
  </filter>
  <linearGradient id="linearGradient1340" x1="14.188" x2="2.5221" y1="14.457" y2="2.4898" gradientUnits="userSpaceOnUse">
   <stop stop-color="#bf616a" offset="0"/>
   <stop stop-color="#d08770" offset="1"/>
  </linearGradient>
  <linearGradient id="linearGradient1333" x1="161.78" x2="184.16" y1="28.191" y2="49.356" gradientUnits="userSpaceOnUse">
   <stop stop-color="#eceff4" offset="0"/>
   <stop stop-color="#d8dee9" offset="1"/>
  </linearGradient>
  <linearGradient id="linearGradient2031" x1="43.9" x2="46.966" y1="7.7922" y2="9.7511" gradientUnits="userSpaceOnUse">
   <stop stop-color="#4c566a" offset="0"/>
   <stop stop-color="#2e3440" offset="1"/>
  </linearGradient>
  <filter id="filter888" x="-.10562" y="-.11049" width="1.2112" height="1.221" color-interpolation-filters="sRGB">
   <feGaussianBlur stdDeviation="0.34684187"/>
  </filter>
 </defs>
 <g transform="translate(-.0076499 -.0030174)" stroke-linecap="round" stroke-linejoin="round">
  <rect transform="matrix(.99138 0 0 1 .072989 .0019055)" x=".79375" y=".90545" width="15.346" height="15.346" rx="3.0526" ry="3.0526" fill="#000000" filter="url(#filter1178)" opacity=".15" stroke-width="1.2489" style="mix-blend-mode:normal"/>
  <rect x=".92604" y=".92604" width="15.081" height="15.081" rx="3" ry="3" fill="url(#linearGradient1340)" stroke-width="1.2274"/>
  <rect x=".01215" y=".0060174" width="16.924" height="16.927" fill="none" opacity=".15" stroke-width="1.052"/>
 </g>
 <g transform="matrix(1.4744 0 0 1.4744 -58.612 -6.0259)" fill="#2e3440" filter="url(#filter888)" opacity=".3" stroke-width=".3308">
  <path d="m45.575 6.2457c-0.89023 0.0089-1.7692 0.3747-2.4825 1.0991-0.34192 0.34726-0.57366 0.51262-0.71828 0.51262-0.11745 0-0.31808 0.096926-0.44545 0.21497-0.28588 0.26495-0.3231 0.81292-0.0708 1.0413 0.13131 0.11883 0.16195 0.2853 0.16795 0.91053 0.01164 1.213 0.37182 2.0423 1.2376 2.8498 0.43388 0.4047 0.9812 0.70995 1.541 0.85936 0.41452 0.11065 2.1766 0.01268 3.3197-0.18448 0.5743-0.09906 1.0618-0.19774 1.0831-0.2191 0.02138-0.02137-0.06486-0.16147-0.1912-0.3116-0.28969-0.34427-0.30231-0.80874-0.04134-1.5317 0.11758-0.32572 0.20443-0.81853 0.23048-1.31 0.0313-0.59064 0.08245-0.8398 0.20515-0.9963 0.23128-0.29501 0.2099-0.72241-0.05064-1.0036-0.11804-0.12737-0.29702-0.23151-0.3974-0.23151-0.10681 0-0.39478-0.21532-0.69505-0.51934-0.77342-0.7831-1.7165-1.1777-2.65-1.1803-0.01413-3.84e-5 -0.02824-1.411e-4 -0.04237 0zm1.1374 1.5462c0.0062-5.24e-5 0.01249-2.09e-5 0.0186 0 0.01222 4.26e-5 0.02408 2.91e-4 0.03617 0.00103 0.01209 7.409e-4 0.02424 0.00167 0.03617 0.0031s0.02387 0.00355 0.03566 0.00568c0.0118 0.00214 0.02349 0.00441 0.03514 0.00723 0.01164 0.00283 0.02312 0.00578 0.03462 0.0093 0.01148 0.00353 0.02275 0.00766 0.03411 0.011885 0.01135 0.00422 0.02291 0.00852 0.03411 0.013435 0.01119 0.00492 0.02204 0.010406 0.03307 0.01602 0.01103 0.00561 0.0222 0.011779 0.03307 0.018087 0.01087 0.00631 0.02183 0.012634 0.03256 0.019637 0.01074 7e-3 0.02096 0.014523 0.03152 0.022219 0.01058 0.0077 0.02109 0.015896 0.03152 0.024288 0.01042 0.00839 0.02074 0.016753 0.03101 0.025839 0.01026 0.00908 0.0209 0.018645 0.031 0.028421 0.01011 0.00978 0.02003 0.020018 0.02997 0.03049 0.0099 0.01047 0.01966 0.021391 0.02945 0.032557 0.0098 0.011163 0.01982 0.022767 0.02946 0.034623 0.0096 0.011856 0.01894 0.023624 0.02842 0.036173 0.0095 0.012546 0.0191 0.025516 0.02842 0.038756 0.0093 0.01324 0.01823 0.026892 0.02739 0.040825 0.01834 0.02786 0.03658 0.057223 0.05426 0.087848 0.01767 0.030625 0.03516 0.062732 0.05219 0.096117 0.01426 0.027971 0.0274 0.055948 0.03979 0.084232 0.01238 0.028284 0.0241 0.05675 0.03462 0.085266 0.01053 0.028514 0.01976 0.05712 0.02842 0.085782 0.0087 0.028662 0.01648 0.057573 0.02326 0.086298 0.0068 0.028725 0.01265 0.057073 0.01757 0.085782 0.0049 0.02871 0.0088 0.057689 0.01188 0.086298 3e-3 0.028609 5e-3 0.05684 0.0062 0.085263 0.0013 0.028427 0.0016 0.057107 0.0011 0.085266-7.94e-4 0.028159-0.0021 0.055906-0.0047 0.083716s-6e-3 0.055303-0.01035 0.082681c-0.0044 0.027379-0.0098 0.054784-0.01603 0.081647-0.0062 0.026863-0.0136 0.053316-0.0217 0.07958-0.0081 0.026265-0.01693 0.052445-0.02687 0.07803-5e-3 0.012792-0.01008 0.025116-0.0155 0.037724-0.0054 0.012607-0.01116 0.025312-0.01704 0.037724-0.0059 0.012411-0.01225 0.024484-0.0186 0.036689-0.0064 0.012205-0.01283 0.024701-0.01963 0.036689s-0.01392 0.023894-0.02119 0.035657c-0.0073 0.01176-0.015 0.0231-0.02273 0.034623-0.0081 0.012028-0.01622 0.023722-0.02479 0.035139-0.0086 0.011419-0.0173 0.022783-0.02635 0.033588-9e-3 0.010805-0.01841 0.021333-0.0279 0.031522-0.0095 0.010189-0.01905 0.019886-0.02894 0.029456-0.0099 0.00957-0.02021 0.01896-0.03049 0.027905-0.01029 0.00895-0.02088 0.01752-0.03152 0.025839-0.01064 0.00832-0.02106 0.016087-0.03204 0.02377-0.01095 0.00768-0.02233 0.015174-0.03359 0.022219-0.01127 0.00705-0.02257 0.013745-0.03411 0.020153-0.01153 0.00641-0.02336 0.01284-0.03514 0.018603-0.01177 0.00576-0.02365 0.010903-0.03565 0.01602-0.01201 0.00511-0.02397 0.010006-0.03617 0.01447-0.0122 0.0045-0.02434 0.0086-0.03669 0.0124s-0.02471 0.0072-0.03721 0.01033c-0.01249 0.0031-0.02513 0.0058-0.03772 0.0083s-0.02558 0.0049-0.03824 0.0067c-0.01267 0.0018-0.025 0.0035-0.03772 0.0046-0.01273 0.0011-0.02551 0.0016-0.03824 0.0021-0.01273 4.76e-4 -0.0255 7.41e-4 -0.03824 5.29e-4 -0.01273-2.15e-4 -0.02553-6.61e-4 -0.03824-0.0016-0.0127-8.99e-4 -0.02508-0.0025-0.03772-0.0041-0.01265-0.0016-0.02569-0.0034-0.03824-0.0057-0.01254-0.0023-0.02476-0.0048-0.03721-0.0077-0.01243-3e-3 -0.02492-0.0061-0.03721-0.0098-0.01228-0.0037-0.02458-8e-3 -0.03669-0.0124-0.01212-0.0044-0.02376-0.00886-0.03566-0.013951-0.01191-0.00509-0.02397-0.010734-0.03565-0.016536-0.01169-0.0058-0.0232-0.012086-0.03462-0.018603-0.01143-0.00652-0.02246-0.013433-0.03359-0.020672-0.01114-0.00724-0.02225-0.014774-0.03307-0.022738-0.01082-0.00796-0.02156-0.016113-0.03204-0.024804-0.01048-0.00869-0.0209-0.017965-0.03101-0.027389-0.0191-0.017804-0.03746-0.035851-0.05529-0.054776s-0.03512-0.038436-0.05168-0.058393-0.03226-0.040595-0.04754-0.061494c-0.01529-0.020899-0.02991-0.04233-0.04393-0.064079-0.01402-0.021748-0.02756-0.04364-0.04031-0.066145s-0.02469-0.045558-0.03617-0.06873c-0.01148-0.023169-0.02233-0.046534-0.03256-0.070278-0.01024-0.023743-0.01998-0.047603-0.02894-0.071828-9e-3 -0.024225-0.01759-0.048762-0.02532-0.073379-0.0077-0.024617-0.01471-0.049498-0.02119-0.074413-0.0065-0.024915-0.01233-0.049805-0.01757-0.074929-0.0052-0.025124-0.01-0.050207-0.01394-0.075448-4e-3 -0.025241-0.0071-0.050699-0.0098-0.075964-0.0028-0.025265-0.0052-0.050768-0.0067-0.075964-0.0016-0.025199-0.0024-0.049892-0.0026-0.074929-2.65e-4 -0.025037 9.2e-5 -0.050143 0.0011-0.074929 0.0011-0.024788 0.0024-0.04945 0.0047-0.073897 0.0021-0.024447 0.0049-0.048849 0.0083-0.072863 0.0034-0.024013 0.0073-0.047826 0.01188-0.071312 0.0046-0.023487 0.01021-0.046376 0.01601-0.069246s0.01209-0.045534 0.01913-0.067696c7e-3 -0.022161 0.0145-0.043748 0.02273-0.06511 0.0082-0.021362 0.01693-0.042573 0.02635-0.063044 0.0094-0.020471 0.01987-0.040457 0.03049-0.059943 0.01064-0.019489 0.02175-0.03843 0.03359-0.056842 0.01183-0.018412 0.02418-0.036496 0.03721-0.053742 0.01302-0.017248 0.02661-0.03362 0.04082-0.049609 0.01421-0.015988 0.02904-0.031353 0.04444-0.045992s0.03148-0.028659 0.04806-0.041857c0.01656-0.013197 0.03341-0.02554 0.05116-0.037205 0.0089-0.00583 0.01823-0.01162 0.02739-0.017052 0.0092-0.00543 0.01844-0.010483 0.02791-0.015502 0.0095-0.00502 0.01918-0.00987 0.02894-0.01447 0.0098-0.0046 0.01942-0.00927 0.02945-0.013435 0.01339-0.00555 0.02705-0.010655 0.04031-0.015502 0.01326-0.00485 0.02617-0.00929 0.03927-0.013435 0.0131-0.00415 0.0263-0.00792 0.03927-0.011369 0.01296-0.00345 0.02593-0.00655 0.03876-0.0093s0.02556-0.00518 0.03824-0.00723c0.01267-0.00206 0.02519-0.00382 0.03772-0.00517 0.01254-0.00135 0.02482-0.00243 0.03721-0.0031 0.0062-3.175e-4 0.01238-4.762e-4 0.0186-5.291e-4zm-2.1761 0.00103c0.02548-1.619e-4 0.05134 0.00135 0.07751 0.00414 0.02617 0.00278 0.05273 0.00718 0.07958 0.01292s0.05413 0.013007 0.08165 0.021703c0.02751 0.0087 0.05555 0.018822 0.08371 0.03049 0.02066 0.00856 0.04051 0.018031 0.05994 0.028421 0.01945 0.01039 0.03813 0.021476 0.05633 0.033589 0.0182 0.012112 0.03576 0.025021 0.05271 0.038756 0.01696 0.013734 0.03339 0.028154 0.04909 0.043407 0.01572 0.015256 0.03102 0.031387 0.04548 0.048058 0.01445 0.016671 0.02813 0.034207 0.04134 0.052194 0.02641 0.035972 0.05044 0.074106 0.07183 0.11472 0.0214 0.040616 0.03997 0.083718 0.05633 0.12816 0.01635 0.044439 0.03055 0.090531 0.04186 0.13797 0.0113 0.047445 0.02011 0.096096 0.02635 0.14573 0.0062 0.04963 0.0097 0.10041 0.01085 0.15141 0.0011 0.050998-1.72e-4 0.10245-0.0041 0.15399-4e-3 0.051545-0.01056 0.10272-0.01963 0.15399-0.0091 0.051276-0.0209 0.10226-0.03514 0.15244-0.01423 0.050186-0.03073 0.10003-0.05012 0.14831-0.01939 0.048278-0.04157 0.095008-0.06614 0.14056-0.02458 0.04555-0.05187 0.089772-0.08165 0.13177-0.02978 0.042002-0.06215 0.081734-0.09715 0.11937-0.01749 0.01882-0.03545 0.037203-0.05426 0.054776s-0.03828 0.034417-0.05839 0.050643c-0.01545 0.012451-0.03211 0.024238-0.04961 0.035139-0.01749 0.010903-0.03605 0.021135-0.05529 0.030487-0.01924 0.00935-0.03928 0.018034-0.05994 0.025839-0.02066 0.00781-0.04177 0.014417-0.06356 0.020672-0.04358 0.01251-0.08921 0.02212-0.13539 0.02842s-0.09274 0.0097-0.13901 0.0098c-0.04628 9.5e-5 -0.09204-0.0032-0.13591-0.0093-0.04386-0.0061-0.0861-0.01505-0.12505-0.02739-0.01947-0.00617-0.03803-0.013462-0.05581-0.021187-0.01778-0.00773-0.03487-0.016039-0.05064-0.02532-0.01577-0.00928-0.03047-0.01965-0.04392-0.030487-0.01344-0.01084-0.02535-0.022225-0.03617-0.034623-0.02318-0.026561-0.04493-0.05313-0.06563-0.080099-0.02069-0.026966-0.04016-0.054257-0.05839-0.081647-0.01823-0.027392-0.03539-0.054847-0.05116-0.082681s-0.03062-0.055935-0.04392-0.084232c-0.01331-0.028297-0.02532-0.057004-0.03617-0.085782s-0.02003-0.058051-0.02842-0.087333c-0.0084-0.029281-0.01577-0.058565-0.0217-0.088364-0.0059-0.0298-0.01048-0.060094-0.01394-0.090433-0.0035-0.030339-0.0057-0.06057-0.0067-0.091465-0.0011-0.030898-7.94e-4 -0.06206 5.29e-4 -0.093534 0.0013-0.031474 0.0039-0.063531 0.0078-0.095601s0.0092-0.064465 0.01551-0.097151c0.0063-0.032686 0.01347-0.065383 0.02222-0.098702 0.0088-0.033319 0.01879-0.067314 0.02997-0.10128 0.01119-0.033972 0.02357-0.06819 0.03721-0.10283 0.01363-0.034644 0.02889-0.069569 0.04496-0.1049 0.01585-0.034821 0.03184-0.068272 0.04858-0.10025 0.01672-0.03198 0.03407-0.062335 0.05167-0.091465 0.01762-0.02913 0.03579-0.056927 0.05426-0.083197 0.01847-0.026273 0.03701-0.051008 0.05633-0.074413 0.01931-0.023405 0.03929-0.045616 0.05943-0.066145 0.02013-0.020529 0.04054-0.039713 0.06149-0.057361 0.02096-0.017645 0.04233-0.033821 0.06408-0.048574s0.04414-0.027937 0.06666-0.03979 0.04544-0.022063 0.06873-0.031006c0.02328-0.00894 0.04676-0.016714 0.07079-0.022738 0.02402-0.00602 0.04862-0.010337 0.07338-0.013435 0.02477-0.0031 0.04946-0.00501 0.07493-0.00517z" stroke-width=".087523"/>
  <path transform="scale(.26458)" d="m176.12 28.758c-0.0463-1.6e-4 -0.0938-5.24e-4 -0.14062 2e-3 -0.0468 0.0025-0.0933 0.0066-0.14063 0.01172-0.0474 0.0051-0.0947 0.01178-0.14257 0.01953-0.0479 0.0078-0.0961 0.01695-0.14454 0.02734-0.0485 0.0104-0.0975 0.02212-0.14648 0.03516-0.049 0.01304-0.0989 0.02729-0.14844 0.04297-0.0496 0.01568-0.0983 0.03245-0.14843 0.05078-0.0501 0.01833-0.10172 0.03762-0.15235 0.05859-0.038 0.01573-0.0745 0.0334-0.11133 0.05078-0.0369 0.01738-0.0736 0.03571-0.10937 0.05469-0.0358 0.01898-0.0708 0.03806-0.10547 0.05859-0.0347 0.02053-0.07 0.04241-0.10352 0.06445-0.0671 0.04409-0.13071 0.09074-0.19336 0.14062-0.0626 0.04988-0.12345 0.10287-0.18164 0.1582-0.0582 0.05533-0.11426 0.1134-0.16796 0.17383s-0.10509 0.12231-0.1543 0.1875c-0.0492 0.06519-0.0959 0.13353-0.14063 0.20312-0.0447 0.06959-0.0868 0.14119-0.12695 0.21484-0.0402 0.07366-0.0796 0.14919-0.11523 0.22656-0.0357 0.07737-0.0685 0.15754-0.0996 0.23828s-0.0594 0.16233-0.0859 0.24609-0.0503 0.16942-0.0723 0.25586-0.0432 0.17295-0.0605 0.26172c-0.0174 0.08877-0.0321 0.17877-0.0449 0.26953s-0.0231 0.183-0.0312 0.27539c-8e-3 0.0924-0.014 0.18561-0.0176 0.2793-4e-3 0.09369-5e-3 0.18857-4e-3 0.2832s4e-3 0.18797 0.01 0.2832 0.015 0.19162 0.0254 0.28711 0.022 0.19171 0.0371 0.28711 0.033 0.1902 0.0527 0.28516c0.0198 0.09496 0.0419 0.18903 0.0664 0.2832s0.0509 0.18821 0.0801 0.28125 0.0618 0.18578 0.0957 0.27734c0.0339 0.09157 0.0707 0.18174 0.10937 0.27148 0.0387 0.08974 0.0796 0.17805 0.12305 0.26562 0.0434 0.08757 0.0885 0.17471 0.13672 0.25977 0.0482 0.08506 0.0994 0.1678 0.15234 0.25 0.053 0.0822 0.10826 0.1632 0.16602 0.24219 0.0578 0.07899 0.11712 0.15699 0.17968 0.23242 0.0626 0.07543 0.12793 0.14917 0.19532 0.2207 0.0674 0.07153 0.13676 0.13974 0.20898 0.20703 0.0382 0.03561 0.0776 0.07067 0.11719 0.10352 0.0396 0.03285 0.0802 0.06366 0.12109 0.09375 0.0409 0.03009 0.0829 0.05858 0.125 0.08594s0.0838 0.05349 0.12696 0.07813c0.0432 0.02463 0.0867 0.04838 0.13086 0.07031 0.0441 0.02193 0.0898 0.04326 0.13476 0.0625 0.045 0.01924 0.089 0.03618 0.13477 0.05273 0.0458 0.01656 0.0922 0.03298 0.13867 0.04687 0.0464 0.0139 0.0936 0.02586 0.14062 0.03711 0.047 0.01125 0.0932 0.02068 0.14063 0.0293 0.0474 0.0086 0.0968 0.01548 0.14453 0.02148 0.0478 6e-3 0.0946 0.01222 0.14258 0.01563 0.048 0.0034 0.0964 5e-3 0.14453 0.0059 0.0481 8.15e-4 0.0964-1.96e-4 0.14453-2e-3 0.0482-0.0018 0.0965-0.0035 0.14453-0.0078 0.0481-0.0043 0.0947-0.01073 0.14258-0.01758 0.0479-0.0069 0.0969-0.01601 0.14453-0.02539 0.0476-0.0094 0.0954-0.01936 0.14258-0.03125 0.0472-0.01189 0.0939-0.02468 0.14062-0.03906 0.0467-0.01439 0.0926-0.03001 0.13868-0.04687 0.0461-0.01687 0.0914-0.03535 0.13672-0.05469 0.0454-0.01933 0.0902-0.03876 0.13476-0.06055 0.0445-0.02178 0.0892-0.04609 0.13281-0.07031 0.0436-0.02422 0.0863-0.04953 0.12891-0.07617 0.0426-0.02664 0.0855-0.05494 0.12695-0.08398 0.0414-0.02904 0.0809-0.05841 0.1211-0.08984 0.0402-0.03144 0.0803-0.06385 0.11914-0.09766 0.0388-0.03381 0.0778-0.0693 0.11523-0.10547 0.0374-0.03617 0.0735-0.07281 0.10938-0.11133 0.0358-0.03851 0.0713-0.0783 0.10546-0.11914 0.0342-0.04084 0.0672-0.0838 0.0996-0.12695 0.0324-0.04316 0.0632-0.08736 0.0937-0.13281 0.0293-0.04355 0.0584-0.08641 0.0859-0.13086s0.0543-0.08946 0.0801-0.13477 0.0502-0.09254 0.0742-0.13867 0.048-0.09176 0.0703-0.13867 0.0439-0.09493 0.0644-0.14258 0.0398-0.09423 0.0586-0.14258c0.0376-0.0967 0.071-0.19565 0.10156-0.29492 0.0306-0.09927 0.0585-0.19925 0.082-0.30078 0.0236-0.10153 0.044-0.20512 0.0606-0.30859 0.0166-0.10348 0.0295-0.20739 0.0391-0.3125 0.01-0.10511 0.0151-0.20998 0.0176-0.31641 3e-3 -0.10643 5.9e-4 -0.21483-4e-3 -0.32227-5e-3 -0.10744-0.0119-0.21414-0.0234-0.32226-0.0115-0.10813-0.0263-0.21766-0.0449-0.32617s-0.0408-0.21564-0.0664-0.32422-0.0552-0.21784-0.0879-0.32617-0.0677-0.21645-0.10742-0.32422c-0.0398-0.10777-0.084-0.21536-0.13086-0.32227-0.0469-0.1069-0.0965-0.21264-0.1504-0.31836-0.0644-0.12618-0.13044-0.24753-0.19726-0.36328-0.0668-0.11575-0.13583-0.22673-0.20508-0.33203-0.0346-0.05265-0.0683-0.10426-0.10351-0.1543-0.0352-0.05004-0.0716-0.09906-0.10743-0.14648-0.0358-0.04743-0.071-0.09191-0.10742-0.13672-0.0364-0.04481-0.0743-0.08867-0.11133-0.13086-0.037-0.04219-0.0737-0.08347-0.11132-0.12305-0.0376-0.03957-0.0751-0.07828-0.11329-0.11524-0.0382-0.03696-0.0784-0.07309-0.11718-0.10742-0.0388-0.03434-0.0778-0.06594-0.11719-0.09766-0.0394-0.03171-0.0792-0.06271-0.11914-0.0918-0.04-0.02909-0.0786-0.05752-0.11914-0.08398-0.0406-0.02647-0.0819-0.05038-0.12305-0.07422-0.0411-0.02384-0.0833-0.04714-0.125-0.06836-0.0417-0.02121-0.0827-0.04196-0.125-0.06055s-0.086-0.03482-0.1289-0.05078-0.0855-0.03159-0.12891-0.04492c-0.0434-0.01333-0.0869-0.02446-0.13086-0.03516-0.044-0.0107-0.0883-0.01928-0.13281-0.02734-0.0446-0.0081-0.0896-0.01605-0.13477-0.02148-0.0451-0.0054-0.091-0.0089-0.13672-0.01172-0.0457-0.0028-0.0905-0.0037-0.13672-0.0039z"/>
  <path transform="scale(.26458)" d="m167.83 28.762c-0.0963 6.11e-4 -0.18961 0.0078-0.2832 0.01953-0.0936 0.01171-0.18652 0.02801-0.27735 0.05078-0.0908 0.02277-0.17956 0.05214-0.26757 0.08594-0.088 0.0338-0.17464 0.07239-0.25977 0.11719-0.0851 0.0448-0.16976 0.09463-0.25195 0.15039-0.0822 0.05576-0.163 0.1169-0.24219 0.18359-0.0792 0.06669-0.1563 0.1392-0.23242 0.2168-0.0761 0.07759-0.15162 0.16154-0.22461 0.25-0.073 0.08846-0.14309 0.18195-0.21289 0.28125s-0.13853 0.20435-0.20508 0.31445c-0.0665 0.1101-0.13207 0.22483-0.19531 0.3457-0.0632 0.12087-0.12373 0.2473-0.1836 0.37891-0.0607 0.13355-0.11837 0.26555-0.16992 0.39648-0.0515 0.13094-0.0983 0.26028-0.14062 0.38867-0.0423 0.1284-0.0802 0.25688-0.11328 0.38281-0.0331 0.12593-0.0601 0.24951-0.084 0.37305s-0.044 0.24598-0.0586 0.36719-0.0239 0.24237-0.0293 0.36133c-5e-3 0.11896-6e-3 0.23674-2e-3 0.35352s0.0122 0.23104 0.0254 0.3457c0.0131 0.11467 0.0303 0.22917 0.0527 0.3418s0.0503 0.22332 0.082 0.33398 0.0664 0.2213 0.10743 0.33008c0.041 0.10877 0.0864 0.21727 0.13672 0.32422 0.0503 0.10695 0.10641 0.21316 0.16601 0.31836s0.12445 0.20897 0.19336 0.3125c0.0689 0.10352 0.14247 0.20667 0.2207 0.30859 0.0782 0.10192 0.16048 0.20235 0.24805 0.30274 0.0409 0.04686 0.0859 0.08989 0.13672 0.13086 0.0508 0.04097 0.1064 0.08015 0.16601 0.11523 0.0596 0.03508 0.12421 0.0665 0.19141 0.0957s0.13732 0.05676 0.21094 0.08008c0.14723 0.04664 0.30686 0.08039 0.47265 0.10352 0.1658 0.02313 0.33878 0.03551 0.51368 0.03516 0.17489-3.58e-4 0.35086-0.01328 0.52539-0.03711s0.34701-0.06014 0.51172-0.10742c0.0823-0.02364 0.16211-0.04863 0.24023-0.07813 0.0781-0.0295 0.15385-0.0623 0.22656-0.09766 0.0727-0.03535 0.14287-0.07403 0.20899-0.11523 0.0661-0.04121 0.12915-0.08575 0.1875-0.13281 0.076-0.06133 0.14962-0.12499 0.2207-0.19141 0.0711-0.06642 0.13894-0.13591 0.20508-0.20703 0.13227-0.14225 0.25464-0.29242 0.36719-0.45117 0.11254-0.15875 0.2157-0.32589 0.30859-0.49805 0.0929-0.17216 0.17669-0.34878 0.25-0.53125 0.0733-0.18247 0.13566-0.37087 0.18945-0.56055 0.0538-0.18968 0.0985-0.38237 0.13281-0.57617 0.0343-0.1938 0.0592-0.38721 0.0742-0.58203s0.02-0.38928 0.0156-0.58203c-4e-3 -0.19275-0.0174-0.38468-0.041-0.57227s-0.0569-0.37146-0.0996-0.55078-0.0964-0.35352-0.1582-0.52148-0.13203-0.33087-0.21289-0.48438c-0.0809-0.1535-0.17166-0.29764-0.27148-0.43359-0.0499-0.06798-0.10162-0.13426-0.15625-0.19727-0.0546-0.06301-0.11252-0.12399-0.17188-0.18164-0.0593-0.05766-0.12148-0.11215-0.18555-0.16406-0.0641-0.05191-0.13045-0.1007-0.19921-0.14648-0.0688-0.04578-0.13944-0.08768-0.2129-0.12695-0.0735-0.03927-0.14842-0.07506-0.22656-0.10742-0.10645-0.04409-0.21241-0.08237-0.3164-0.11524-0.104-0.03287-0.20711-0.06036-0.3086-0.08203s-0.20186-0.03831-0.30078-0.04883c-0.0989-0.01052-0.19669-0.01624-0.29297-0.01563z"/>
 </g>
 <g transform="matrix(1.4744 0 0 1.4744 -58.612 -6.0259)" stroke-width=".3308">
  <path transform="scale(.26458)" d="m171.75 22.914c-3.3647 0.03363-6.6868 1.4162-9.3828 4.1543-1.2923 1.3125-2.1682 1.9375-2.7148 1.9375-0.44391 0-1.2022 0.36634-1.6836 0.8125-1.0805 1.0014-1.2212 3.0725-0.26758 3.9355 0.49628 0.44912 0.61212 1.0783 0.63477 3.4414 0.044 4.5847 1.4053 7.7192 4.6777 10.771 1.6399 1.5296 3.7085 2.6833 5.8242 3.248 1.5667 0.4182 8.2268 0.04793 12.547-0.69727 2.1706-0.37441 4.013-0.74736 4.0938-0.82812 0.0808-0.08077-0.24516-0.61028-0.72266-1.1777-1.0949-1.3012-1.1426-3.0567-0.15625-5.7891 0.44442-1.2311 0.77266-3.0937 0.8711-4.9512 0.1183-2.2324 0.31163-3.1741 0.77539-3.7656 0.87411-1.115 0.79332-2.7304-0.19141-3.793-0.44616-0.48141-1.1226-0.875-1.502-0.875-0.4037 0-1.4921-0.81382-2.627-1.9629-2.9232-2.9598-6.4878-4.4513-10.016-4.4609-0.0534-1.45e-4 -0.10675-5.33e-4 -0.16016 0zm4.2988 5.8438c0.0235-1.98e-4 0.0472-7.9e-5 0.0703 0 0.0462 1.61e-4 0.091 0.0011 0.13672 0.0039 0.0457 0.0028 0.0916 0.0063 0.13672 0.01172 0.0451 0.0054 0.0902 0.01342 0.13477 0.02148 0.0446 0.0081 0.0888 0.01665 0.13281 0.02734 0.044 0.0107 0.0874 0.02183 0.13086 0.03516 0.0434 0.01333 0.086 0.02896 0.12891 0.04492 0.0429 0.01596 0.0866 0.03219 0.1289 0.05078s0.0833 0.03933 0.125 0.06055 0.0839 0.04452 0.125 0.06836 0.0825 0.04775 0.12305 0.07422c0.0406 0.02647 0.0792 0.05489 0.11914 0.08398 0.04 0.02909 0.0797 0.06008 0.11914 0.0918 0.0394 0.03171 0.0784 0.06332 0.11719 0.09766 0.0388 0.03433 0.079 0.07047 0.11718 0.10742 0.0382 0.03696 0.0757 0.07566 0.11329 0.11524 0.0376 0.03957 0.0743 0.08085 0.11132 0.12305 0.037 0.04219 0.0749 0.08605 0.11133 0.13086 0.0364 0.04481 0.0716 0.08929 0.10742 0.13672 0.0358 0.04742 0.0722 0.09644 0.10743 0.14648 0.0352 0.05004 0.0689 0.10164 0.10351 0.1543 0.0693 0.1053 0.13826 0.21628 0.20508 0.33203 0.0668 0.11575 0.1329 0.2371 0.19726 0.36328 0.0539 0.10572 0.10355 0.21146 0.1504 0.31836 0.0468 0.1069 0.0911 0.21449 0.13086 0.32227 0.0398 0.10777 0.0747 0.21589 0.10742 0.32422 0.0327 0.10833 0.0623 0.2176 0.0879 0.32617s0.0478 0.21571 0.0664 0.32422 0.0334 0.21804 0.0449 0.32617 0.0189 0.21483 0.0234 0.32226c5e-3 0.10744 6e-3 0.21584 4e-3 0.32227-3e-3 0.10643-8e-3 0.2113-0.0176 0.31641-0.01 0.10511-0.0225 0.20902-0.0391 0.3125s-0.037 0.20706-0.0606 0.30859-0.0514 0.20151-0.082 0.30078-0.064 0.19822-0.10156 0.29492c-0.0188 0.04835-0.0381 0.09493-0.0586 0.14258s-0.0422 0.09567-0.0644 0.14258c-0.0223 0.04691-0.0463 0.09254-0.0703 0.13867s-0.0485 0.09336-0.0742 0.13867c-0.0258 0.04531-0.0526 0.09031-0.0801 0.13477-0.0275 0.04445-0.0567 0.08731-0.0859 0.13086-0.0305 0.04546-0.0613 0.08966-0.0937 0.13281-0.0324 0.04316-0.0654 0.08611-0.0996 0.12695s-0.0696 0.08063-0.10546 0.11914c-0.0358 0.03851-0.072 0.07516-0.10938 0.11133-0.0374 0.03617-0.0764 0.07166-0.11523 0.10547-0.0389 0.03381-0.0789 0.06622-0.11914 0.09766-0.0402 0.03143-0.0796 0.0608-0.1211 0.08984-0.0414 0.02904-0.0844 0.05735-0.12695 0.08398-0.0426 0.02664-0.0853 0.05195-0.12891 0.07617-0.0436 0.02422-0.0883 0.04853-0.13281 0.07031-0.0445 0.02178-0.0894 0.04121-0.13476 0.06055-0.0454 0.01933-0.0906 0.03782-0.13672 0.05469-0.0461 0.01687-0.092 0.03249-0.13868 0.04687-0.0467 0.01439-0.0934 0.02717-0.14062 0.03906-0.0472 0.01189-0.095 0.02187-0.14258 0.03125-0.0476 0.0094-0.0967 0.01854-0.14453 0.02539-0.0479 0.0069-0.0945 0.01327-0.14258 0.01758-0.0481 0.0043-0.0964 0.0061-0.14453 0.0078-0.0481 0.0018-0.0964 0.0028-0.14453 2e-3 -0.0481-8.14e-4 -0.0965-0.0025-0.14453-0.0059-0.048-0.0034-0.0948-0.0096-0.14258-0.01563-0.0478-6e-3 -0.0971-0.01287-0.14453-0.02148-0.0474-0.0086-0.0936-0.01805-0.14063-0.0293-0.047-0.01125-0.0942-0.02321-0.14062-0.03711-0.0464-0.0139-0.0929-0.03032-0.13867-0.04687-0.0458-0.01656-0.0898-0.0335-0.13477-0.05273-0.045-0.01924-0.0906-0.04057-0.13476-0.0625-0.0442-0.02193-0.0877-0.04568-0.13086-0.07031-0.0432-0.02464-0.0849-0.05077-0.12696-0.07813-0.0421-0.02736-0.0841-0.05584-0.125-0.08594-0.0409-0.03009-0.0815-0.0609-0.12109-0.09375-0.0396-0.03285-0.079-0.0679-0.11719-0.10352-0.0722-0.06729-0.14159-0.1355-0.20898-0.20703-0.0674-0.07153-0.13275-0.14527-0.19532-0.2207-0.0626-0.07543-0.12192-0.15343-0.17968-0.23242-0.0578-0.07899-0.11305-0.15999-0.16602-0.24219-0.053-0.0822-0.10416-0.16494-0.15234-0.25-0.0482-0.08506-0.0933-0.17219-0.13672-0.25977-0.0434-0.08757-0.0844-0.17588-0.12305-0.26562-0.0387-0.08974-0.0755-0.17992-0.10937-0.27148-0.0339-0.09156-0.0665-0.1843-0.0957-0.27734s-0.0556-0.18708-0.0801-0.28125-0.0466-0.18824-0.0664-0.2832-0.0377-0.18976-0.0527-0.28516c-0.0151-0.0954-0.0267-0.19162-0.0371-0.28711s-0.0197-0.19188-0.0254-0.28711c-6e-3 -0.09524-9e-3 -0.18857-0.01-0.2832s3.5e-4 -0.18952 4e-3 -0.2832c4e-3 -0.09369 9e-3 -0.1869 0.0176-0.2793 8e-3 -0.0924 0.0185-0.18463 0.0312-0.27539 0.0128-0.09076 0.0275-0.18076 0.0449-0.26953s0.0386-0.17528 0.0605-0.26172c0.022-0.08644 0.0457-0.1721 0.0723-0.25586 0.0265-0.08376 0.0548-0.16535 0.0859-0.24609s0.064-0.16091 0.0996-0.23828c0.0357-0.07737 0.0751-0.15291 0.11523-0.22656 0.0402-0.07366 0.0822-0.14525 0.12695-0.21484 0.0447-0.06959 0.0914-0.13794 0.14063-0.20312 0.0492-0.06519 0.10059-0.12707 0.1543-0.1875 0.0537-0.06043 0.10978-0.1185 0.16796-0.17383 0.0582-0.05533 0.11899-0.10832 0.18164-0.1582 0.0626-0.04988 0.12626-0.09653 0.19336-0.14062 0.0336-0.02205 0.0689-0.04392 0.10352-0.06445 0.0347-0.02053 0.0697-0.03962 0.10547-0.05859 0.0358-0.01898 0.0725-0.03731 0.10937-0.05469 0.0369-0.01738 0.0734-0.03505 0.11133-0.05078 0.0506-0.02097 0.10225-0.04027 0.15235-0.05859 0.0501-0.01833 0.0989-0.0351 0.14843-0.05078 0.0495-0.01568 0.0994-0.02993 0.14844-0.04297 0.049-0.01304 0.098-0.02476 0.14648-0.03516 0.0485-0.0104 0.0966-0.01959 0.14454-0.02734 0.0479-0.0078 0.0952-0.01442 0.14257-0.01953 0.0474-0.0051 0.0938-0.0092 0.14063-0.01172 0.0234-0.0012 0.0468-0.0018 0.0703-2e-3zm-8.2246 0.0039c0.0963-6.12e-4 0.19405 0.0051 0.29297 0.01563 0.0989 0.01052 0.19929 0.02715 0.30078 0.04883s0.2046 0.04916 0.3086 0.08203c0.10399 0.03287 0.20995 0.07114 0.3164 0.11524 0.0781 0.03237 0.15311 0.06815 0.22656 0.10742 0.0735 0.03927 0.14413 0.08117 0.2129 0.12695 0.0688 0.04578 0.13515 0.09457 0.19921 0.14648 0.0641 0.05191 0.1262 0.10641 0.18555 0.16406 0.0594 0.05766 0.11724 0.11863 0.17188 0.18164 0.0546 0.06301 0.10634 0.12929 0.15625 0.19727 0.0998 0.13596 0.19062 0.28009 0.27148 0.43359 0.0809 0.15351 0.15106 0.31642 0.21289 0.48438 0.0618 0.16796 0.11547 0.34217 0.1582 0.52148 0.0427 0.17932 0.076 0.3632 0.0996 0.55078s0.0367 0.37952 0.041 0.57227c4e-3 0.19275-6.5e-4 0.38721-0.0156 0.58203-0.015 0.19482-0.0399 0.38823-0.0742 0.58203s-0.079 0.38649-0.13281 0.57617c-0.0538 0.18968-0.11614 0.37808-0.18945 0.56055-0.0733 0.18247-0.15711 0.35909-0.25 0.53125-0.0929 0.17216-0.19605 0.3393-0.30859 0.49805-0.11255 0.15875-0.23492 0.30892-0.36719 0.45117-0.0661 0.07113-0.134 0.14061-0.20508 0.20703-0.0711 0.06642-0.14467 0.13008-0.2207 0.19141-0.0584 0.04706-0.12138 0.09161-0.1875 0.13281-0.0661 0.04121-0.13627 0.07988-0.20899 0.11523-0.0727 0.03535-0.14844 0.06816-0.22656 0.09766-0.0781 0.0295-0.15788 0.05449-0.24023 0.07813-0.16471 0.04728-0.33719 0.0836-0.51172 0.10742-0.17453 0.02383-0.3505 0.03675-0.52539 0.03711-0.1749 3.59e-4 -0.34788-0.01203-0.51368-0.03516-0.16579-0.02313-0.32542-0.05688-0.47265-0.10352-0.0736-0.02332-0.14373-0.05088-0.21094-0.08008-0.0672-0.0292-0.1318-0.06062-0.19141-0.0957-0.0596-0.03508-0.11518-0.07427-0.16601-0.11523-0.0508-0.04097-0.0958-0.084-0.13672-0.13086-0.0876-0.10039-0.16981-0.20081-0.24805-0.30274-0.0782-0.10192-0.15179-0.20507-0.2207-0.30859-0.0689-0.10353-0.13376-0.2073-0.19336-0.3125s-0.11573-0.21141-0.16601-0.31836c-0.0503-0.10695-0.0957-0.21545-0.13672-0.32422-0.041-0.10877-0.0757-0.21941-0.10743-0.33008-0.0317-0.11067-0.0596-0.22135-0.082-0.33398s-0.0396-0.22713-0.0527-0.3418-0.0215-0.22893-0.0254-0.3457c-4e-3 -0.11678-3e-3 -0.23456 2e-3 -0.35352s0.0147-0.24012 0.0293-0.36133 0.0347-0.24365 0.0586-0.36719 0.0509-0.24712 0.084-0.37305 0.071-0.25442 0.11328-0.38281c0.0423-0.1284 0.0891-0.25773 0.14062-0.38867 0.0515-0.13094 0.10917-0.26294 0.16992-0.39648 0.0599-0.13161 0.12036-0.25804 0.1836-0.37891 0.0632-0.12087 0.12876-0.2356 0.19531-0.3457 0.0666-0.1101 0.13528-0.21516 0.20508-0.31445 0.0698-0.0993 0.1399-0.19279 0.21289-0.28125 0.073-0.08846 0.14849-0.17241 0.22461-0.25 0.0761-0.07759 0.15324-0.1501 0.23242-0.2168 0.0792-0.06669 0.16-0.12783 0.24219-0.18359 0.0822-0.05576 0.16682-0.10559 0.25195-0.15039 0.0851-0.0448 0.17176-0.08339 0.25977-0.11719 0.088-0.0338 0.17675-0.06317 0.26757-0.08594 0.0908-0.02277 0.18376-0.03907 0.27735-0.05078 0.0936-0.01171 0.18692-0.01892 0.2832-0.01953z" fill="url(#linearGradient1333)"/>
  <g fill="url(#linearGradient2031)">
   <path transform="scale(.26458)" d="m176.12 28.758c-0.0463-1.6e-4 -0.0938-5.24e-4 -0.14062 2e-3 -0.0468 0.0025-0.0933 0.0066-0.14063 0.01172-0.0474 0.0051-0.0947 0.01178-0.14257 0.01953-0.0479 0.0078-0.0961 0.01695-0.14454 0.02734-0.0485 0.0104-0.0975 0.02212-0.14648 0.03516-0.049 0.01304-0.0989 0.02729-0.14844 0.04297-0.0496 0.01568-0.0983 0.03245-0.14843 0.05078-0.0501 0.01833-0.10172 0.03762-0.15235 0.05859-0.038 0.01573-0.0745 0.0334-0.11133 0.05078-0.0369 0.01738-0.0736 0.03571-0.10937 0.05469-0.0358 0.01898-0.0708 0.03806-0.10547 0.05859-0.0347 0.02053-0.07 0.04241-0.10352 0.06445-0.0671 0.04409-0.13071 0.09074-0.19336 0.14062-0.0626 0.04988-0.12345 0.10287-0.18164 0.1582-0.0582 0.05533-0.11426 0.1134-0.16796 0.17383s-0.10509 0.12231-0.1543 0.1875c-0.0492 0.06519-0.0959 0.13353-0.14063 0.20312-0.0447 0.06959-0.0868 0.14119-0.12695 0.21484-0.0402 0.07366-0.0796 0.14919-0.11523 0.22656-0.0357 0.07737-0.0685 0.15754-0.0996 0.23828s-0.0594 0.16233-0.0859 0.24609-0.0503 0.16942-0.0723 0.25586-0.0432 0.17295-0.0605 0.26172c-0.0174 0.08877-0.0321 0.17877-0.0449 0.26953s-0.0231 0.183-0.0312 0.27539c-8e-3 0.0924-0.014 0.18561-0.0176 0.2793-4e-3 0.09369-5e-3 0.18857-4e-3 0.2832s4e-3 0.18797 0.01 0.2832 0.015 0.19162 0.0254 0.28711 0.022 0.19171 0.0371 0.28711 0.033 0.1902 0.0527 0.28516c0.0198 0.09496 0.0419 0.18903 0.0664 0.2832s0.0509 0.18821 0.0801 0.28125 0.0618 0.18578 0.0957 0.27734c0.0339 0.09157 0.0707 0.18174 0.10937 0.27148 0.0387 0.08974 0.0796 0.17805 0.12305 0.26562 0.0434 0.08757 0.0885 0.17471 0.13672 0.25977 0.0482 0.08506 0.0994 0.1678 0.15234 0.25 0.053 0.0822 0.10826 0.1632 0.16602 0.24219 0.0578 0.07899 0.11712 0.15699 0.17968 0.23242 0.0626 0.07543 0.12793 0.14917 0.19532 0.2207 0.0674 0.07153 0.13676 0.13974 0.20898 0.20703 0.0382 0.03561 0.0776 0.07067 0.11719 0.10352 0.0396 0.03285 0.0802 0.06366 0.12109 0.09375 0.0409 0.03009 0.0829 0.05858 0.125 0.08594s0.0838 0.05349 0.12696 0.07813c0.0432 0.02463 0.0867 0.04838 0.13086 0.07031 0.0441 0.02193 0.0898 0.04326 0.13476 0.0625 0.045 0.01924 0.089 0.03618 0.13477 0.05273 0.0458 0.01656 0.0922 0.03298 0.13867 0.04687 0.0464 0.0139 0.0936 0.02586 0.14062 0.03711 0.047 0.01125 0.0932 0.02068 0.14063 0.0293 0.0474 0.0086 0.0968 0.01548 0.14453 0.02148 0.0478 6e-3 0.0946 0.01222 0.14258 0.01563 0.048 0.0034 0.0964 5e-3 0.14453 0.0059 0.0481 8.15e-4 0.0964-1.96e-4 0.14453-2e-3 0.0482-0.0018 0.0965-0.0035 0.14453-0.0078 0.0481-0.0043 0.0947-0.01073 0.14258-0.01758 0.0479-0.0069 0.0969-0.01601 0.14453-0.02539 0.0476-0.0094 0.0954-0.01936 0.14258-0.03125 0.0472-0.01189 0.0939-0.02468 0.14062-0.03906 0.0467-0.01439 0.0926-0.03001 0.13868-0.04687 0.0461-0.01687 0.0914-0.03535 0.13672-0.05469 0.0454-0.01933 0.0902-0.03876 0.13476-0.06055 0.0445-0.02178 0.0892-0.04609 0.13281-0.07031 0.0436-0.02422 0.0863-0.04953 0.12891-0.07617 0.0426-0.02664 0.0855-0.05494 0.12695-0.08398 0.0414-0.02904 0.0809-0.05841 0.1211-0.08984 0.0402-0.03144 0.0803-0.06385 0.11914-0.09766 0.0388-0.03381 0.0778-0.0693 0.11523-0.10547 0.0374-0.03617 0.0735-0.07281 0.10938-0.11133 0.0358-0.03851 0.0713-0.0783 0.10546-0.11914 0.0342-0.04084 0.0672-0.0838 0.0996-0.12695 0.0324-0.04316 0.0632-0.08736 0.0937-0.13281 0.0293-0.04355 0.0584-0.08641 0.0859-0.13086s0.0543-0.08946 0.0801-0.13477 0.0502-0.09254 0.0742-0.13867 0.048-0.09176 0.0703-0.13867 0.0439-0.09493 0.0644-0.14258 0.0398-0.09423 0.0586-0.14258c0.0376-0.0967 0.071-0.19565 0.10156-0.29492 0.0306-0.09927 0.0585-0.19925 0.082-0.30078 0.0236-0.10153 0.044-0.20512 0.0606-0.30859 0.0166-0.10348 0.0295-0.20739 0.0391-0.3125 0.01-0.10511 0.0151-0.20998 0.0176-0.31641 3e-3 -0.10643 5.9e-4 -0.21483-4e-3 -0.32227-5e-3 -0.10744-0.0119-0.21414-0.0234-0.32226-0.0115-0.10813-0.0263-0.21766-0.0449-0.32617s-0.0408-0.21564-0.0664-0.32422-0.0552-0.21784-0.0879-0.32617-0.0677-0.21645-0.10742-0.32422c-0.0398-0.10777-0.084-0.21536-0.13086-0.32227-0.0469-0.1069-0.0965-0.21264-0.1504-0.31836-0.0644-0.12618-0.13044-0.24753-0.19726-0.36328-0.0668-0.11575-0.13583-0.22673-0.20508-0.33203-0.0346-0.05265-0.0683-0.10426-0.10351-0.1543-0.0352-0.05004-0.0716-0.09906-0.10743-0.14648-0.0358-0.04743-0.071-0.09191-0.10742-0.13672-0.0364-0.04481-0.0743-0.08867-0.11133-0.13086-0.037-0.04219-0.0737-0.08347-0.11132-0.12305-0.0376-0.03957-0.0751-0.07828-0.11329-0.11524-0.0382-0.03696-0.0784-0.07309-0.11718-0.10742-0.0388-0.03434-0.0778-0.06594-0.11719-0.09766-0.0394-0.03171-0.0792-0.06271-0.11914-0.0918-0.04-0.02909-0.0786-0.05752-0.11914-0.08398-0.0406-0.02647-0.0819-0.05038-0.12305-0.07422-0.0411-0.02384-0.0833-0.04714-0.125-0.06836-0.0417-0.02121-0.0827-0.04196-0.125-0.06055s-0.086-0.03482-0.1289-0.05078-0.0855-0.03159-0.12891-0.04492c-0.0434-0.01333-0.0869-0.02446-0.13086-0.03516-0.044-0.0107-0.0883-0.01928-0.13281-0.02734-0.0446-0.0081-0.0896-0.01605-0.13477-0.02148-0.0451-0.0054-0.091-0.0089-0.13672-0.01172-0.0457-0.0028-0.0905-0.0037-0.13672-0.0039z"/>
   <path transform="scale(.26458)" d="m167.83 28.762c-0.0963 6.11e-4 -0.18961 0.0078-0.2832 0.01953-0.0936 0.01171-0.18652 0.02801-0.27735 0.05078-0.0908 0.02277-0.17956 0.05214-0.26757 0.08594-0.088 0.0338-0.17464 0.07239-0.25977 0.11719-0.0851 0.0448-0.16976 0.09463-0.25195 0.15039-0.0822 0.05576-0.163 0.1169-0.24219 0.18359-0.0792 0.06669-0.1563 0.1392-0.23242 0.2168-0.0761 0.07759-0.15162 0.16154-0.22461 0.25-0.073 0.08846-0.14309 0.18195-0.21289 0.28125s-0.13853 0.20435-0.20508 0.31445c-0.0665 0.1101-0.13207 0.22483-0.19531 0.3457-0.0632 0.12087-0.12373 0.2473-0.1836 0.37891-0.0607 0.13355-0.11837 0.26555-0.16992 0.39648-0.0515 0.13094-0.0983 0.26028-0.14062 0.38867-0.0423 0.1284-0.0802 0.25688-0.11328 0.38281-0.0331 0.12593-0.0601 0.24951-0.084 0.37305s-0.044 0.24598-0.0586 0.36719-0.0239 0.24237-0.0293 0.36133c-5e-3 0.11896-6e-3 0.23674-2e-3 0.35352s0.0122 0.23104 0.0254 0.3457c0.0131 0.11467 0.0303 0.22917 0.0527 0.3418s0.0503 0.22332 0.082 0.33398 0.0664 0.2213 0.10743 0.33008c0.041 0.10877 0.0864 0.21727 0.13672 0.32422 0.0503 0.10695 0.10641 0.21316 0.16601 0.31836s0.12445 0.20897 0.19336 0.3125c0.0689 0.10352 0.14247 0.20667 0.2207 0.30859 0.0782 0.10192 0.16048 0.20235 0.24805 0.30274 0.0409 0.04686 0.0859 0.08989 0.13672 0.13086 0.0508 0.04097 0.1064 0.08015 0.16601 0.11523 0.0596 0.03508 0.12421 0.0665 0.19141 0.0957s0.13732 0.05676 0.21094 0.08008c0.14723 0.04664 0.30686 0.08039 0.47265 0.10352 0.1658 0.02313 0.33878 0.03551 0.51368 0.03516 0.17489-3.58e-4 0.35086-0.01328 0.52539-0.03711s0.34701-0.06014 0.51172-0.10742c0.0823-0.02364 0.16211-0.04863 0.24023-0.07813 0.0781-0.0295 0.15385-0.0623 0.22656-0.09766 0.0727-0.03535 0.14287-0.07403 0.20899-0.11523 0.0661-0.04121 0.12915-0.08575 0.1875-0.13281 0.076-0.06133 0.14962-0.12499 0.2207-0.19141 0.0711-0.06642 0.13894-0.13591 0.20508-0.20703 0.13227-0.14225 0.25464-0.29242 0.36719-0.45117 0.11254-0.15875 0.2157-0.32589 0.30859-0.49805 0.0929-0.17216 0.17669-0.34878 0.25-0.53125 0.0733-0.18247 0.13566-0.37087 0.18945-0.56055 0.0538-0.18968 0.0985-0.38237 0.13281-0.57617 0.0343-0.1938 0.0592-0.38721 0.0742-0.58203s0.02-0.38928 0.0156-0.58203c-4e-3 -0.19275-0.0174-0.38468-0.041-0.57227s-0.0569-0.37146-0.0996-0.55078-0.0964-0.35352-0.1582-0.52148-0.13203-0.33087-0.21289-0.48438c-0.0809-0.1535-0.17166-0.29764-0.27148-0.43359-0.0499-0.06798-0.10162-0.13426-0.15625-0.19727-0.0546-0.06301-0.11252-0.12399-0.17188-0.18164-0.0593-0.05766-0.12148-0.11215-0.18555-0.16406-0.0641-0.05191-0.13045-0.1007-0.19921-0.14648-0.0688-0.04578-0.13944-0.08768-0.2129-0.12695-0.0735-0.03927-0.14842-0.07506-0.22656-0.10742-0.10645-0.04409-0.21241-0.08237-0.3164-0.11524-0.104-0.03287-0.20711-0.06036-0.3086-0.08203s-0.20186-0.03831-0.30078-0.04883c-0.0989-0.01052-0.19669-0.01624-0.29297-0.01563z"/>
  </g>
 </g>
</svg>
