<?xml version="1.0" encoding="UTF-8" standalone="no"?>
<svg
   width="64"
   height="64"
   version="1.1"
   viewBox="0 0 16.933 16.933"
   id="svg60"
   sodipodi:docname="gimagereader.svg"
   xml:space="preserve"
   inkscape:version="1.2.2 (b0a8486541, 2022-12-01)"
   xmlns:inkscape="http://www.inkscape.org/namespaces/inkscape"
   xmlns:sodipodi="http://sodipodi.sourceforge.net/DTD/sodipodi-0.dtd"
   xmlns:xlink="http://www.w3.org/1999/xlink"
   xmlns="http://www.w3.org/2000/svg"
   xmlns:svg="http://www.w3.org/2000/svg"><sodipodi:namedview
     id="namedview62"
     pagecolor="#ffffff"
     bordercolor="#000000"
     borderopacity="0.25"
     inkscape:showpageshadow="2"
     inkscape:pageopacity="0.0"
     inkscape:pagecheckerboard="0"
     inkscape:deskcolor="#d1d1d1"
     showgrid="false"
     inkscape:zoom="19.234375"
     inkscape:cx="31.974005"
     inkscape:cy="32"
     inkscape:window-width="3440"
     inkscape:window-height="1440"
     inkscape:window-x="0"
     inkscape:window-y="0"
     inkscape:window-maximized="1"
     inkscape:current-layer="svg60" /><defs
     id="defs36"><linearGradient
       inkscape:collect="always"
       id="linearGradient2070"><stop
         style="stop-color:#4c566a;stop-opacity:1"
         offset="0"
         id="stop2066" /><stop
         style="stop-color:#2e3440;stop-opacity:1"
         offset="1"
         id="stop2068" /></linearGradient><linearGradient
       inkscape:collect="always"
       id="linearGradient2057"><stop
         style="stop-color:#3b4252;stop-opacity:1"
         offset="0"
         id="stop2053" /><stop
         style="stop-color:#2e3440;stop-opacity:1"
         offset="1"
         id="stop2055" /></linearGradient><linearGradient
       inkscape:collect="always"
       id="linearGradient2049"><stop
         style="stop-color:#88c0d0;stop-opacity:1;"
         offset="0"
         id="stop2045" /><stop
         style="stop-color:#8fbcbb;stop-opacity:1"
         offset="1"
         id="stop2047" /></linearGradient><linearGradient
       id="linearGradient4322"
       x1="8.7575"
       x2="8.7259"
       y1="11.518"
       y2="9.1016"
       gradientTransform="matrix(8.9659 0 0 8.9659 -31.259 -42.868)"
       gradientUnits="userSpaceOnUse"><stop
         stop-color="#a6aebf"
         offset="0"
         id="stop2" /><stop
         stop-color="#d8dee9"
         offset="1"
         id="stop4" /></linearGradient><linearGradient
       id="linearGradient3668"
       x1="8.52"
       x2="8.531"
       y1="11.545"
       y2="8.0601"
       gradientTransform="matrix(8.9659 0 0 8.9659 -46.635 -42.975)"
       gradientUnits="userSpaceOnUse"><stop
         stop-color="#e5e9f0"
         offset="0"
         id="stop7" /><stop
         stop-color="#eceff4"
         offset="1"
         id="stop9" /></linearGradient><filter
       id="filter1178"
       x="-0.047999482"
       y="-0.047999482"
       width="1.095999"
       height="1.095999"
       color-interpolation-filters="sRGB"><feGaussianBlur
         stdDeviation="0.30691668"
         id="feGaussianBlur12" /></filter><linearGradient
       id="linearGradient1340"
       x1="8.6885"
       x2="8.6644"
       y1="15.572"
       y2="1.366"
       gradientTransform="translate(-0.00765,-0.030534)"
       gradientUnits="userSpaceOnUse"><stop
         stop-color="#4c566a"
         offset="0"
         id="stop15" /><stop
         stop-color="#a6aebf"
         offset="1"
         id="stop17" /></linearGradient><linearGradient
       id="linearGradient1340-3"
       x1="8.6644001"
       x2="8.6644001"
       y1="16.109188"
       y2="0.99702185"
       gradientTransform="translate(-0.00765,-0.030534)"
       gradientUnits="userSpaceOnUse"><stop
         stop-color="#88c0d0"
         offset="0"
         id="stop20"
         style="stop-color:#eceff4;stop-opacity:1" /><stop
         stop-color="#5e81ac"
         offset="1"
         id="stop22"
         style="stop-color:#d8dee9;stop-opacity:1" /></linearGradient><linearGradient
       id="linearGradient6101"
       x1="15.093"
       x2="13.584"
       y1="2.1411"
       y2="3.6506"
       gradientTransform="rotate(180,13.494,3.3387)"
       gradientUnits="userSpaceOnUse"><stop
         stop-color="#eceff4"
         offset="0"
         id="stop25" /><stop
         stop-color="#d8dee9"
         offset="1"
         id="stop27" /></linearGradient><filter
       id="filter6834"
       x="-0.079224981"
       y="-0.079751364"
       width="1.15845"
       height="1.1595027"
       color-interpolation-filters="sRGB"><feGaussianBlur
         stdDeviation="0.15989484"
         id="feGaussianBlur30" /></filter><filter
       id="filter7451"
       x="-0.073048615"
       y="-0.072537968"
       width="1.1460972"
       height="1.1450759"
       color-interpolation-filters="sRGB"><feGaussianBlur
         stdDeviation="0.15989484"
         id="feGaussianBlur33" /></filter><linearGradient
       inkscape:collect="always"
       xlink:href="#linearGradient2049"
       id="linearGradient2051"
       x1="7.1331658"
       y1="11.832718"
       x2="7.1331658"
       y2="15.533676"
       gradientUnits="userSpaceOnUse" /><linearGradient
       inkscape:collect="always"
       xlink:href="#linearGradient2057"
       id="linearGradient2059"
       x1="8.1712322"
       y1="12.245977"
       x2="8.1712322"
       y2="15.190386"
       gradientUnits="userSpaceOnUse" /><linearGradient
       inkscape:collect="always"
       xlink:href="#linearGradient2070"
       id="linearGradient2072"
       x1="8.4513521"
       y1="8.8024178"
       x2="8.4513521"
       y2="11.382606"
       gradientUnits="userSpaceOnUse" /></defs><rect
     transform="matrix(0.99138,0,0,1,0.072989,0.0019055)"
     x="0.79374999"
     y="0.90544999"
     width="15.346"
     height="15.346"
     rx="3.0525999"
     ry="3.0525999"
     fill="#000000"
     filter="url(#filter1178)"
     opacity="0.15"
     stroke-width="1.2489"
     style="mix-blend-mode:normal;stroke-linecap:round;stroke-linejoin:round"
     id="rect38" /><rect
     x="0.91838998"
     y="0.89551002"
     width="15.081"
     height="15.081"
     rx="3"
     ry="3"
     fill="url(#linearGradient1340)"
     stroke-width="1.2274"
     id="rect40"
     style="fill:url(#linearGradient1340);stroke-linecap:round;stroke-linejoin:round" /><rect
     x="0.0045003002"
     y="-0.024517"
     width="16.924"
     height="16.927"
     fill="none"
     opacity="0.15"
     stroke-width="1.052"
     id="rect42"
     style="stroke-linecap:round;stroke-linejoin:round" /><path
     d="m 3.9184,0.89551 h 6.9644 c 0.90634,0 5.1166,4.1838 5.1166,5.1166 v 6.9644 c 0,1.662 -1.338,3 -3,3 h -9.081 c -1.662,0 -3,-1.338 -3,-3 v -9.081 c 0,-1.662 1.338,-3 3,-3 z"
     fill="url(#linearGradient1340-3)"
     id="path44"
     style="fill:url(#linearGradient1340-3);stroke-width:1.2274;stroke-linecap:round;stroke-linejoin:round" /><path
     d="M 15.964,5.7734 C 15.9702,5.20376 14.7061,3.7653 13.9256,2.9692 13.61453,2.65191 11.7893,0.9847 11.1295,0.9616 l -0.0092,1.6499 c -0.0093,1.662 1.3446,2.8551 3.0003,3.0003 z"
     fill="#2e3440"
     filter="url(#filter6834)"
     opacity="0.22"
     id="path46"
     style="stroke-width:1.2274;stroke-linecap:round;stroke-linejoin:round" /><path
     d="M 15.97,6.2014 C 15.9762,5.63176 14.393,4.0782 13.6125,3.2821 13.30143,2.96481 11.3765,0.9343 10.7167,0.9111 l 0.09051,2.0133 c 0.07465,1.6603 1.3517,2.7893 3.0003,3.0003 z"
     fill="#2e3440"
     filter="url(#filter7451)"
     opacity="0.25"
     id="path48"
     style="stroke-width:1.2274;stroke-linecap:round;stroke-linejoin:round" /><g
     id="g1806"><path
       id="rect568"
       style="opacity:1;fill:#5e81ac;fill-opacity:0.964706;stroke-width:0.138563"
       d="m 2.8254013,2.1726222 h 8.9378177 c 2.402766,2.0206208 2.286371,2.1715124 2.32918,2.3094021 V 8.3495231 H 2.8254013 Z"
       sodipodi:nodetypes="cccccc" /><path
       style="opacity:1;fill:#88c0d0;fill-opacity:0.964706;stroke-width:0.132289"
       d="m 3.0965956,4.8829816 c 0,0 -0.4268497,0.5006244 0.2462556,0.7811073 0.6731049,0.2804827 7.3942708,-0.6788548 7.3942708,-0.6788548 0,0 -2.030331,-0.1822062 -2.871941,-0.7707367 C 7.0235712,3.6259669 3.0965956,4.8829816 3.0965956,4.8829816 Z"
       id="path1622" /><path
       style="opacity:1;fill:#ebcb8b;fill-opacity:0.964706;stroke-width:0.132289"
       d="m 6.2992262,5.3898511 c 0,0 0.4603347,-0.2808098 1.0467284,-0.036889 C 7.9323486,5.596883 8.0448364,4.989722 8.3801138,5.1624158 8.7153914,5.3351096 8.8905442,5.7037236 9.3369433,5.408705 9.7833422,5.1136863 10.498255,5.477108 10.498255,5.477108 L 12.666765,6.074614 10.836902,7.2737256 6.1583203,5.928153 Z"
       id="path1618" /><path
       id="path1327"
       style="opacity:1;fill:#6b5756;fill-opacity:0.964706;stroke-width:0.132289"
       d="M 6.8495763 5.914768 L 6.0150183 6.3400567 L 4.8972791 6.6718128 L 4.4807752 6.3126687 L 2.8256117 6.6428746 L 2.8256117 8.3497136 L 14.092402 8.3497136 L 14.092402 6.3715787 L 14.070699 6.3664111 L 13.245442 6.410852 L 12.102382 5.9473235 L 10.739185 7.0557612 L 10.45807 5.9158015 L 10.281341 6.5038677 C 10.281341 6.5038677 9.4310273 6.7606013 8.8122085 6.5043845 C 8.1933894 6.2481675 7.2945016 6.6418411 7.2945016 6.6418411 L 6.8495763 5.914768 z " /><path
       style="opacity:1;fill:#c4b0a7;fill-opacity:0.964706;stroke-width:0.132289"
       d="m 4.0093933,7.6627422 1.8230311,-0.69369 0.122416,0.5253683 z"
       id="path1386" /><path
       style="opacity:1;fill:#c4b0a7;fill-opacity:0.964706;stroke-width:0.132289"
       d="M 7.1047663,7.8509202 6.8991914,7.3207247 7.6879724,7.2974074 7.7873442,7.9859966 Z"
       id="path1442" /><path
       style="opacity:1;fill:#c4b0a7;fill-opacity:0.964706;stroke-width:0.132289"
       d="m 10.11443,7.8113901 c 1.973227,-0.1001005 1.317792,-1.291196 2.157853,-1.1818961 0.840061,0.1092999 1.11659,0.8399697 1.11659,0.8399697 0,0 -0.196467,0.8777691 -0.979874,0.5480479 -0.783407,-0.3297215 -1.35204,0.087622 -1.35204,0.087622 z"
       id="path1444" /><path
       style="opacity:1;fill:#a88279;fill-opacity:0.964706;stroke-width:0.132289"
       d="M 3.6250221,7.0461088 5.2807332,8.0729812 4.6176473,6.894455 Z"
       id="path1446" /><path
       style="opacity:1;fill:#a88279;fill-opacity:0.964706;stroke-width:0.132289"
       d="m 6.6648342,6.5633675 c 0,0 -1.5137125,0.9944467 -0.5698168,1.4445801 C 7.038913,8.4580812 7.5381405,7.5416927 7.5381405,7.5416927 l 1.9657585,0.075599 -0.1166776,-0.7988 z"
       id="path1502" /><path
       style="opacity:1;fill:#a88279;fill-opacity:0.964706;stroke-width:0.132289"
       d="m 13.634797,7.8163086 0.34639,0.3520368 H 13.20452 Z"
       id="path1504" /><path
       style="opacity:1;fill:#c4b0a7;fill-opacity:0.964706;stroke-width:0.132289"
       d="M 8.5872372,6.5818572 8.4094428,8.0179669 10.176458,7.3534234 9.8094833,6.9093015 10.609923,6.7360613 Z"
       id="path1506" /><path
       style="opacity:1;fill:#ebcb8b;fill-opacity:0.964706;stroke-width:0.132289"
       d="M 3.6286654,5.6905168 4.7206623,5.3234512 5.4702775,6.4579841 Z"
       id="path1562" /><path
       style="opacity:1;fill:#c4b0a7;fill-opacity:0.964706;stroke-width:0.132289"
       d="M 8.2536381,6.0408253 10.142006,5.552241 10.205786,6.0878991 Z"
       id="path1620" /><ellipse
       style="opacity:1;fill:#88c0d0;fill-opacity:0.964706;stroke-width:0.132289"
       id="path1676"
       cx="8.6595249"
       cy="7.013833"
       rx="1.2356561"
       ry="0.4078286"
       transform="rotate(-18.18891)" /><ellipse
       style="opacity:1;fill:#81a1c1;fill-opacity:0.964706;stroke-width:0.132289"
       id="path1732"
       cx="4.4700217"
       cy="3.9667642"
       rx="1.3797663"
       ry="0.33537051" /><path
       style="opacity:1;fill:#81a1c1;fill-opacity:0.964706;stroke-width:0.132289"
       d="m 7.4909352,3.4730445 c 0,0 0.3653263,-0.6995414 1.1125822,-0.4220138 0.7472557,0.2775277 0.1700092,0.6881503 0.8789,0.9593913 C 10.191308,4.2816627 11.477876,5.0438562 9.9309752,4.9255376 8.3840745,4.8072188 8.9034514,3.9336919 8.0142882,4.0132159 7.1251253,4.0927399 6.6804901,3.4332826 7.0915964,3.4861551 c 0.4111062,0.052873 0.3993388,-0.01311 0.3993388,-0.013111 z"
       id="path1788" /></g><path
     d="M 15.999,6.0122 C 16.0052,5.44256 14.566,3.9051 13.7855,3.109 13.47443,2.79171 11.5422,0.9187 10.8823,0.8955 l 0.09785,1.8558 c 0.08752,1.6597 1.352,2.7875 3.0003,3.0003 z"
     fill="url(#linearGradient6101)"
     id="path50"
     style="fill:url(#linearGradient6101);stroke-width:1.2274;stroke-linecap:round;stroke-linejoin:round" /><g
     id="g2064"
     style="fill-opacity:1;fill:url(#linearGradient2072)"><rect
       style="opacity:1;fill:url(#linearGradient2072);fill-opacity:1.0;stroke-width:0.15223"
       id="rect1860"
       width="11.2821"
       height="0.4635621"
       x="2.810302"
       y="8.8024178" /><rect
       style="opacity:1;fill:url(#linearGradient2072);fill-opacity:1.0;stroke-width:0.15223"
       id="rect1866"
       width="11.2821"
       height="0.4635621"
       x="2.810302"
       y="9.8607311" /><rect
       style="opacity:1;fill:url(#linearGradient2072);fill-opacity:1.0;stroke-width:0.117277"
       id="rect1868"
       width="6.6960363"
       height="0.4635621"
       x="2.810302"
       y="10.919044" /></g><rect
     style="opacity:1;fill:url(#linearGradient2051);fill-opacity:1;stroke-width:0.143918"
     id="rect2043"
     width="11.2821"
     height="3.7009583"
     x="2.810302"
     y="11.832718" /><g
     id="g1989"
     transform="translate(0.238211)"
     style="fill:url(#linearGradient2059);fill-opacity:1"><path
       d="m 4.7053057,12.776317 q -0.3345486,0 -0.5189306,0.24711 -0.1843819,0.24711 -0.1843819,0.695709 0,0.446699 0.1843819,0.693808 0.184382,0.24711 0.5189306,0.24711 0.3364495,0 0.5208315,-0.24711 0.1843819,-0.247109 0.1843819,-0.693808 0,-0.448599 -0.1843819,-0.695709 -0.184382,-0.24711 -0.5208315,-0.24711 z m 0,-0.530336 q 0.6843041,0 1.0720765,0.391574 0.3877723,0.391574 0.3877723,1.081581 0,0.688106 -0.3877723,1.07968 -0.3877724,0.391574 -1.0720765,0.391574 -0.6824031,0 -1.0720764,-0.391574 -0.3877723,-0.391574 -0.3877723,-1.07968 0,-0.690007 0.3877723,-1.081581 0.3896732,-0.391574 1.0720764,-0.391574 z"
       style="font-style:normal;font-weight:bold;font-size:3.89293px;font-family:sans-serif;-inkscape-font-specification:'sans-serif Bold';fill:url(#linearGradient2059);fill-opacity:1.0;stroke-width:0.162205"
       id="path1976" /><path
       d="m 9.4980568,14.979396 q -0.2014895,0.104547 -0.4200866,0.15777 -0.2185972,0.05322 -0.4562028,0.05322 -0.7090151,0 -1.1233992,-0.395376 -0.4143842,-0.397276 -0.4143842,-1.075878 0,-0.680502 0.4143842,-1.075878 0.4143841,-0.397277 1.1233992,-0.397277 0.2376056,0 0.4562028,0.05322 0.2185971,0.05322 0.4200866,0.15777 v 0.587361 q -0.2033903,-0.138762 -0.4010782,-0.20339 -0.1976879,-0.06463 -0.416285,-0.06463 -0.391574,0 -0.6158737,0.250912 -0.2242997,0.250911 -0.2242997,0.691907 0,0.439095 0.2242997,0.690007 0.2242997,0.250911 0.6158737,0.250911 0.2185971,0 0.416285,-0.06463 0.1976879,-0.06463 0.4010782,-0.20339 z"
       style="font-style:normal;font-weight:bold;font-size:3.89293px;font-family:sans-serif;-inkscape-font-specification:'sans-serif Bold';fill:url(#linearGradient2059);fill-opacity:1.0;stroke-width:0.162205"
       id="path1978" /><path
       d="m 11.673344,13.555663 q 0.230003,0 0.328846,-0.08554 0.100745,-0.08554 0.100745,-0.281325 0,-0.193886 -0.100745,-0.277523 -0.09884,-0.08364 -0.328846,-0.08364 h -0.307937 v 0.728023 z m -0.307937,0.505625 v 1.073977 h -0.731825 v -2.837961 h 1.117697 q 0.560749,0 0.821165,0.188184 0.262316,0.188183 0.262316,0.594964 0,0.281325 -0.13686,0.461905 -0.13496,0.180581 -0.408682,0.266119 0.150167,0.03421 0.268019,0.155869 0.119753,0.119753 0.241407,0.364962 l 0.397277,0.805958 h -0.779346 l -0.345954,-0.705213 q -0.104547,-0.212895 -0.212895,-0.290829 -0.106447,-0.07794 -0.285126,-0.07794 z"
       style="font-style:normal;font-weight:bold;font-size:3.89293px;font-family:sans-serif;-inkscape-font-specification:'sans-serif Bold';fill:url(#linearGradient2059);fill-opacity:1.0;stroke-width:0.162205"
       id="path1980" /></g></svg>
