<svg width="64" height="64" version="1.1" viewBox="0 0 64 64" xmlns="http://www.w3.org/2000/svg">
 <defs>
  <filter id="filter3873" x="-.10777" y="-.10824" width="1.2155" height="1.2165" color-interpolation-filters="sRGB">
   <feGaussianBlur stdDeviation="0.4876645"/>
  </filter>
  <filter id="filter3915" x="-.12825" y="-.093271" width="1.2565" height="1.1865" color-interpolation-filters="sRGB">
   <feGaussianBlur stdDeviation="1.5386188"/>
  </filter>
  <filter id="filter1178-3" x="-.047999" y="-.047999" width="1.096" height="1.096" color-interpolation-filters="sRGB">
   <feGaussianBlur stdDeviation="0.30691668"/>
  </filter>
 </defs>
 <filter x="-.069933" y="-.054406" width="1.1399" height="1.1088" color-interpolation-filters="sRGB">
  <feGaussianBlur stdDeviation="1.9764485"/>
 </filter>
 <g transform="matrix(3.7796 0 0 3.7796 -.00096588 -.43033)">
  <rect transform="matrix(.99138 0 0 1 .072989 .0019055)" x=".79375" y=".90545" width="15.346" height="15.346" rx="3.0526" ry="3.0526" fill="#000000" filter="url(#filter1178-3)" opacity=".15" stroke-linecap="round" stroke-linejoin="round" stroke-width="1.2489" style="mix-blend-mode:normal"/>
 </g>
 <rect x="3.4711" y="3.4886" width="57" height="57" rx="11.339" ry="11.339" fill="#eceff4" stroke-linecap="round" stroke-linejoin="round" stroke-width="4.6391"/>
 <rect x=".017009" y=".011339" width="63.966" height="63.977" fill="none" opacity=".15" stroke-linecap="round" stroke-linejoin="round" stroke-width="3.9761"/>
 <path d="m32.07 32.064-4.5449 4.543 23.654 23.689c2.3193-0.42017 4.3909-1.5327 5.9844-3.1289l-25.094-25.104z" fill="#ebcb8b"/>
 <path d="m51.68 3.7832-47.91 47.93c0.48383 2.1068 1.5424 3.9897 3.0156 5.4629l50.387-50.357c-1.4791-1.4845-3.372-2.5514-5.4922-3.0352z" fill="#eceff4"/>
 <path d="m27.525 36.607-20.65 20.65c2.0424 1.999 4.8386 3.2305 7.9355 3.2305h34.322c0.70029 0 1.3823-0.071017 2.0469-0.19141l-23.654-23.689z" fill="#5e81ac"/>
 <path d="m57.24 6.8926-25.17 25.172 25.1 25.1c2.0426-2.0486 3.3008-4.8788 3.3008-8.0137v-34.322c0-3.0969-1.2314-5.8932-3.2305-7.9355z" fill="#a3be8c"/>
 <path d="m14.811 3.4883c-6.2817 1e-7 -11.34 5.0581-11.34 11.34v34.322c0 0.88311 0.10958 1.7384 0.29883 2.5625l47.91-47.93c-0.81924-0.18691-1.6694-0.29492-2.5469-0.29492h-34.322z" fill="#dbc7c5" opacity=".5"/>
 <path d="m43.479 10.728c-1.8974 0.25827-3.8039 0.77212-5.4699 1.7447-1.3335 0.77846-2.5387 1.7001-3.5844 2.8393-6.9007 7.5181-2.8084 18.831 2.5458 25.982 1.8326 2.4476 3.82 4.7801 5.9825 6.9426 0.45748 0.45748 1.5283 1.9768 2.209 1.9768 0.6525 0 1.6356-1.4055 2.0997-1.8271 2.2474-2.0417 4.3081-4.5208 6.0746-6.9872 4.9573-6.9212 9.2532-17.329 3.4623-25.035-0.80574-1.0723-1.7285-1.9949-2.8007-2.8007-1.3589-1.0212-2.8858-1.8235-4.5232-2.2928-1.9024-0.5452-4.0195-0.81112-5.9959-0.5421" fill="#2e3440" filter="url(#filter3915)" opacity=".3"/>
 <path d="m44.135 9.8098c-1.8974 0.25827-3.8039 0.77212-5.4699 1.7447-1.3335 0.77846-2.5387 1.7001-3.5844 2.8393-6.9007 7.5181-2.8084 18.831 2.5458 25.982 1.8326 2.4476 3.82 4.7801 5.9825 6.9426 0.45748 0.45748 1.5283 1.9768 2.209 1.9768 0.6525 0 1.6356-1.4055 2.0997-1.8271 2.2474-2.0417 4.3081-4.5208 6.0746-6.9872 4.9573-6.9212 9.2532-17.329 3.4623-25.035-0.80574-1.0723-1.7285-1.9949-2.8007-2.8007-1.3589-1.0212-2.8858-1.8235-4.5232-2.2928-1.9024-0.5452-4.0195-0.81112-5.9959-0.5421" fill="#bf616a"/>
 <path d="m44.872 16.421c2.2872-0.32957 4.671 0.70332 5.7461 2.8086 1.6065 3.1458-0.25077 7.326-3.8527 7.8752-2.3763 0.36228-4.8086-0.7072-5.8927-2.9312-1.5508-3.182 0.43475-7.2389 3.9992-7.7525z" fill="#2e3440" filter="url(#filter3873)" opacity=".3"/>
 <path d="m44.872 15.372c2.2872-0.32957 4.671 0.70332 5.7461 2.8086 1.6065 3.1458-0.25077 7.326-3.8527 7.8752-2.3763 0.36228-4.8086-0.7072-5.8927-2.9312-1.5508-3.182 0.43475-7.2389 3.9992-7.7525z" fill="#eceff4"/>
</svg>
