<?xml version="1.0" encoding="UTF-8"?>
<svg width="64" height="64" version="1.1" viewBox="0 0 16.933 16.933" xmlns="http://www.w3.org/2000/svg">
 <defs>
  <filter id="filter1178" x="-.047999" y="-.047999" width="1.096" height="1.096" color-interpolation-filters="sRGB">
   <feGaussianBlur stdDeviation="0.30691668"/>
  </filter>
  <linearGradient id="linearGradient1340" x1="8.355" x2="8.3996" y1="16.007" y2=".79375" gradientUnits="userSpaceOnUse">
   <stop stop-color="#b54a55" offset="0"/>
   <stop stop-color="#bf616a" offset="1"/>
  </linearGradient>
  <linearGradient id="linearGradient2903" x1="8.378" x2="8.378" y1="1.8397" y2="15.042" gradientUnits="userSpaceOnUse">
   <stop stop-color="#eceff4" offset="0"/>
   <stop stop-color="#d8dee9" offset="1"/>
  </linearGradient>
  <linearGradient id="linearGradient3103" x1="8.5417" x2="8.5417" y1="6.4837" y2="10.311" gradientUnits="userSpaceOnUse">
   <stop stop-color="#eceff4" offset="0"/>
   <stop stop-color="#d8dee9" offset="1"/>
  </linearGradient>
  <linearGradient id="linearGradient3319" x1="8.5417" x2="8.5417" y1="10.311" y2="6.4837" gradientUnits="userSpaceOnUse">
   <stop stop-color="#d8dee9" offset="0"/>
   <stop stop-color="#eceff4" offset="1"/>
  </linearGradient>
  <filter id="filter3938" x="-.025838" y="-.025838" width="1.0517" height="1.0517" color-interpolation-filters="sRGB">
   <feGaussianBlur stdDeviation="0.14404322"/>
  </filter>
  <filter id="filter4002" x="-.086921" y="-.11768" width="1.1738" height="1.2354" color-interpolation-filters="sRGB">
   <feGaussianBlur stdDeviation="0.083026184"/>
  </filter>
 </defs>
 <g stroke-linecap="round" stroke-linejoin="round">
  <rect transform="matrix(.99138 0 0 1 .072989 .0019055)" x=".79375" y=".90545" width="15.346" height="15.346" rx="3.0526" ry="3.0526" filter="url(#filter1178)" opacity=".15" stroke-width="1.2489" style="mix-blend-mode:normal"/>
  <rect x=".92604" y=".92604" width="15.081" height="15.081" rx="3" ry="3" fill="url(#linearGradient1340)" stroke-width="1.2274"/>
  <rect x=".01215" y=".0060174" width="16.924" height="16.927" fill="none" opacity=".15" stroke-width="1.052"/>
 </g>
 <g fill="url(#linearGradient2903)" filter="url(#filter3938)" opacity=".40856">
  <path d="m4.9787 3.8838c0.38928 0.38928 0.487 1.7219 0.487 1.7219s-1.3326-0.097718-1.7219-0.487c-0.38928-0.38928-0.47669-0.93302-0.087408-1.3223 0.38928-0.38928 0.93302-0.30187 1.3223 0.087408zm-2.2044 3.85c0.55053 1e-7 1.5619 0.8732 1.5619 0.8732s-1.0114 0.8732-1.5619 0.8732c-0.55053 0-0.99682-0.32267-0.99681-0.8732-9e-7 -0.55053 0.44629-0.8732 0.99682-0.8732zm0.97064 4.3611c0.38928-0.38928 1.7219-0.487 1.7219-0.487s-0.097718 1.3326-0.487 1.7219c-0.38928 0.38928-0.93302 0.47669-1.3223 0.08741s-0.30187-0.93302 0.087408-1.3223zm3.85 2.2044c0-0.55053 0.8732-1.5619 0.8732-1.5619s0.8732 1.0114 0.8732 1.5619-0.32267 0.99682-0.8732 0.99682c-0.55053 1e-6 -0.8732-0.44629-0.8732-0.99682zm4.3611-0.97064c-0.38928-0.38928-0.487-1.7219-0.487-1.7219s1.3326 0.09772 1.7219 0.487c0.38928 0.38928 0.47669 0.93302 0.08741 1.3223s-0.93302 0.30187-1.3223-0.08741zm2.2044-3.85c-0.55053-1e-7 -1.5619-0.8732-1.5619-0.8732s1.0114-0.8732 1.5619-0.8732c0.55053 3e-7 0.99682 0.32267 0.99682 0.8732s-0.44629 0.8732-0.99682 0.8732zm-0.97064-4.3611c-0.38928 0.38928-1.7219 0.487-1.7219 0.487s0.09772-1.3326 0.487-1.7219c0.38928-0.38928 0.93302-0.47669 1.3223-0.087411 0.38928 0.38928 0.30187 0.93302-0.08741 1.3223zm-3.85-2.2044c0 0.55053-0.8732 1.5619-0.8732 1.5619s-0.8732-1.0114-0.8732-1.5619c0-0.55053 0.32267-0.99682 0.8732-0.99682s0.8732 0.44629 0.8732 0.99682zm-1.6114 7.0466 3.3801-3.3801 0.57526 0.57526-3.3801 3.3801-0.28763-0.28763zm-0.82451-1.975 1.975 1.975-0.57526 0.57526-1.975-1.975 0.28763-0.28763z" fill="#2e3440" fill-rule="evenodd" stroke-width=".088022"/>
 </g>
 <g fill="url(#linearGradient2903)" fill-rule="evenodd" stroke-width=".088022">
  <path d="m9.3397 2.7547c0 0.55053-0.8732 1.5619-0.8732 1.5619s-0.8732-1.0114-0.8732-1.5619c0-0.55053 0.32267-0.99682 0.8732-0.99682s0.8732 0.44629 0.8732 0.99682z"/>
  <path d="m13.19 4.959c-0.38928 0.38928-1.7219 0.487-1.7219 0.487s0.09772-1.3326 0.487-1.7219c0.38928-0.38928 0.93302-0.47669 1.3223-0.087411 0.38928 0.38928 0.30187 0.93302-0.08741 1.3223z"/>
  <path d="m14.16 9.3201c-0.55053-1e-7 -1.5619-0.8732-1.5619-0.8732s1.0114-0.8732 1.5619-0.8732c0.55053 3e-7 0.99682 0.32267 0.99682 0.8732s-0.44629 0.8732-0.99682 0.8732z"/>
  <path d="m11.956 13.17c-0.38928-0.38928-0.487-1.7219-0.487-1.7219s1.3326 0.09772 1.7219 0.487c0.38928 0.38928 0.47669 0.93302 0.08741 1.3223s-0.93302 0.30187-1.3223-0.08741z"/>
  <path d="m7.595 14.141c0-0.55053 0.8732-1.5619 0.8732-1.5619s0.8732 1.0114 0.8732 1.5619-0.32267 0.99682-0.8732 0.99682c-0.55053 1e-6 -0.8732-0.44629-0.8732-0.99682z"/>
  <path d="m3.745 11.936c0.38928-0.38928 1.7219-0.487 1.7219-0.487s-0.097718 1.3326-0.487 1.7219c-0.38928 0.38928-0.93302 0.47669-1.3223 0.08741s-0.30187-0.93302 0.087408-1.3223z"/>
  <path d="m2.7743 7.5754c0.55053 1e-7 1.5619 0.8732 1.5619 0.8732s-1.0114 0.8732-1.5619 0.8732c-0.55053 0-0.99682-0.32267-0.99681-0.8732-9e-7 -0.55053 0.44629-0.8732 0.99682-0.8732z"/>
  <path d="m4.9787 3.7253c0.38928 0.38928 0.487 1.7219 0.487 1.7219s-1.3326-0.097718-1.7219-0.487c-0.38928-0.38928-0.47669-0.93302-0.087408-1.3223 0.38928-0.38928 0.93302-0.30187 1.3223 0.087408z"/>
 </g>
 <path d="m7.7284 9.9145 3.3801-3.3801 0.57526 0.57526-3.3801 3.3801-0.28763-0.28763zm-0.82451-1.975 1.975 1.975-0.57526 0.57526-1.975-1.975 0.28763-0.28763z" fill="#2e3440" filter="url(#filter4002)" opacity=".34077" stroke="#2e3440" stroke-linecap="round" stroke-width=".37648"/>
 <path d="m7.7284 9.8013 3.3801-3.3801 0.57526 0.57526-3.3801 3.3801-0.28763-0.28763zm-0.82451-1.975 1.975 1.975-0.57526 0.57525-1.975-1.975 0.28763-0.28763z" fill="url(#linearGradient3103)" stroke="url(#linearGradient3319)" stroke-linecap="round" stroke-width=".37648"/>
</svg>
