<svg width="64" height="64" version="1.1" viewBox="0 0 16.933 16.933" xmlns="http://www.w3.org/2000/svg">
 <defs>
  <filter id="filter1178" x="-.047999" y="-.047999" width="1.096" height="1.096" color-interpolation-filters="sRGB">
   <feGaussianBlur stdDeviation="0.30691668"/>
  </filter>
  <linearGradient id="linearGradient1340" x1="8.355" x2="8.3996" y1="16.007" y2=".79375" gradientUnits="userSpaceOnUse">
   <stop stop-color="#d8dee9" offset="0"/>
   <stop stop-color="#eceff4" offset="1"/>
  </linearGradient>
  <linearGradient id="linearGradient4339" x1="42.603" x2="42.603" y1="3.1803" y2="10.624" gradientTransform="matrix(1.1315 0 0 1.1315 -39.925 .64292)" gradientUnits="userSpaceOnUse">
   <stop stop-color="#8fbcbb" offset="0"/>
   <stop stop-color="#a3be8c" offset="1"/>
  </linearGradient>
  <linearGradient id="linearGradient5218" x1="3.3935" x2="13.749" y1="8.6142" y2="8.6142" gradientUnits="userSpaceOnUse">
   <stop stop-color="#2e3440" stop-opacity=".5" offset="0"/>
   <stop stop-color="#eceff4" stop-opacity="0" offset=".048755"/>
   <stop stop-color="#2e3440" stop-opacity=".5" offset=".13504"/>
   <stop stop-color="#2e3440" stop-opacity="0" offset=".23004"/>
   <stop stop-color="#2e3440" stop-opacity=".5" offset=".32719"/>
   <stop stop-color="#2e3440" stop-opacity="0" offset=".54197"/>
   <stop stop-color="#2e3440" stop-opacity=".5" offset=".76727"/>
   <stop stop-color="#a3be8c" stop-opacity="0" offset="1"/>
  </linearGradient>
  <filter id="filter6714" x="-.10153" y="-.11536" width="1.2031" height="1.2307" color-interpolation-filters="sRGB">
   <feGaussianBlur stdDeviation="0.46431521"/>
  </filter>
 </defs>
 <g stroke-linecap="round" stroke-linejoin="round">
  <rect transform="matrix(.99138 0 0 1 .072989 .0019055)" x=".79375" y=".90545" width="15.346" height="15.346" rx="3.0526" ry="3.0526" fill="#000000" filter="url(#filter1178)" opacity=".15" stroke-width="1.2489" style="mix-blend-mode:normal"/>
  <rect x=".92604" y=".92604" width="15.081" height="15.081" rx="3" ry="3" fill="url(#linearGradient1340)" stroke-width="1.2274"/>
  <rect x=".01215" y=".0060174" width="16.924" height="16.927" fill="none" opacity=".15" stroke-width="1.052"/>
 </g>
 <g transform="translate(-.60596 .14504)" stroke-width=".11898">
  <g transform="matrix(1.0814 0 0 1.0814 .07538 -.7284)" fill="#2e3440" filter="url(#filter6714)" opacity=".3">
   <path d="m7.3314 12.327c-0.19603-0.5133-0.19733-0.57471-0.017923-0.84851 0.24603-0.37548 0.95877-0.5795 1.4911-0.42682 0.7568 0.21705 0.88743 0.53858 0.54843 1.3499-0.15749 0.37692-0.16001 0.61902 8.961e-4 0.77991 0.40185 0.40185 1.698 0.38238 2.3857-0.03582l0.36052-0.21927-0.17584-1.5003c-0.10872-0.92766-0.05674-1.345 0.02356-1.6755 0 0 0.03432-0.26431 0.76734-0.23518 0.81672 0.41132 1.2447 0.22443 1.2468-0.65393-0.01397-0.92446-0.30928-1.3937-1.1506-1.0224-0.18209 0.080358-0.43832 0.096846-0.56062 0.05803-0.40906-0.12983-0.45977-0.43081-0.31742-1.8838 0.0745-0.76039 0.1108-1.4072 0.08066-1.4373-0.13317-0.13317-1.514-0.4216-2.0184-0.4216-0.7911 0-0.93623 0.21349-0.60116 0.8844 0.44071 0.88243 0.073381 1.3762-1.0238 1.3762-0.42737 0-0.65185-0.066684-0.85191-0.25307-0.27955-0.26044-0.10472-0.73341 0.070186-1.2197 0.097161-0.27015 0.018534-0.54965-0.21464-0.68017-0.26181-0.16583-1.179-0.11073-1.8893 0.11349-0.36321 0.11466-0.73693 0.2358-0.73693 0.2358s0.00803 0.68476 0.19855 1.7528c0.28352 1.5891-0.23095 1.8243-0.84367 1.4776-0.79469-0.44969-1.1165 0.16914-1.1165 0.81313 0 0.72447 0.37089 1.3241 1.1412 0.89338 0.24362-0.13623 0.37271-0.15535 0.53583-0.021012 0.1806 0.14874 0.25406 0.2347 0.19088 1.6827l-0.08115 1.6204 0.31879 0.12392c0.25939 0.10083 1.5194 0.42164 1.8226 0.44924 0.65317 0.08646 0.70153-0.25851 0.4169-1.0764z"/>
   <path d="m7.3314 12.327c-0.19603-0.5133-0.19733-0.57471-0.017923-0.84851 0.24603-0.37548 0.95877-0.5795 1.4911-0.42682 0.7568 0.21705 0.88743 0.53858 0.54843 1.3499-0.15749 0.37692-0.16001 0.61902 8.961e-4 0.77991 0.40185 0.40185 1.698 0.38238 2.3857-0.03582l0.36052-0.21927-0.17584-1.5003c-0.10872-0.92766-0.05674-1.345 0.02356-1.6755 0 0 0.03432-0.26431 0.76734-0.23518 0.81672 0.41132 1.2447 0.22443 1.2468-0.65393-0.01397-0.92446-0.30928-1.3937-1.1506-1.0224-0.18209 0.080358-0.43832 0.096846-0.56062 0.05803-0.40906-0.12983-0.45977-0.43081-0.31742-1.8838 0.0745-0.76039 0.1108-1.4072 0.08066-1.4373-0.13317-0.13317-1.514-0.4216-2.0184-0.4216-0.7911 0-0.93623 0.21349-0.60116 0.8844 0.44071 0.88243 0.073381 1.3762-1.0238 1.3762-0.42737 0-0.65185-0.066684-0.85191-0.25307-0.27955-0.26044-0.10472-0.73341 0.070186-1.2197 0.097161-0.27015 0.018534-0.54965-0.21464-0.68017-0.26181-0.16583-1.179-0.11073-1.8893 0.11349-0.36321 0.11466-0.73693 0.2358-0.73693 0.2358s0.00803 0.68476 0.19855 1.7528c0.28352 1.5891-0.23095 1.8243-0.84367 1.4776-0.79469-0.44969-1.1165 0.16914-1.1165 0.81313 0 0.72447 0.37089 1.3241 1.1412 0.89338 0.24362-0.13623 0.37271-0.15535 0.53583-0.021012 0.1806 0.14874 0.25406 0.2347 0.19088 1.6827l-0.08115 1.6204 0.31879 0.12392c0.25939 0.10083 1.5194 0.42164 1.8226 0.44924 0.65317 0.08646 0.70153-0.25851 0.4169-1.0764z"/>
   <path d="m7.3314 11.984c-0.19603-0.5133-0.19733-0.57471-0.017923-0.84851 0.24603-0.37548 0.95877-0.5795 1.4911-0.42682 0.7568 0.21705 0.88743 0.53858 0.54843 1.3499-0.15749 0.37692-0.16001 0.61902 8.961e-4 0.77991 0.40185 0.40185 1.698 0.38238 2.3857-0.03582l0.36052-0.21927-0.17584-1.5003c-0.10872-0.92766-0.05674-1.345 0.02356-1.6755 0 0 0.03432-0.26431 0.76734-0.23518 0.81672 0.41132 1.2447 0.22443 1.2468-0.65393-0.01397-0.92446-0.30928-1.3937-1.1506-1.0224-0.18209 0.080358-0.43832 0.096846-0.56062 0.05803-0.40906-0.12983-0.45977-0.43081-0.31742-1.8838 0.0745-0.76039 0.1108-1.4072 0.08066-1.4373-0.13317-0.13317-1.514-0.4216-2.0184-0.4216-0.7911 0-0.93623 0.21349-0.60116 0.8844 0.44071 0.88243 0.073381 1.3762-1.0238 1.3762-0.42737 0-0.65185-0.066684-0.85191-0.25307-0.27955-0.26044-0.10472-0.73341 0.070186-1.2197 0.097161-0.27015 0.018534-0.54965-0.21464-0.68017-0.26181-0.16583-1.179-0.11073-1.8893 0.11349-0.36321 0.11466-0.73693 0.2358-0.73693 0.2358s0.00803 0.68476 0.19855 1.7528c0.28352 1.5891-0.23095 1.8243-0.84367 1.4776-0.79469-0.44969-1.1165 0.16914-1.1165 0.81313 0 0.72447 0.37089 1.3241 1.1412 0.89338 0.24362-0.13623 0.37271-0.15535 0.53583-0.021012 0.1806 0.14874 0.25406 0.2347 0.19088 1.6827l-0.08115 1.6204 0.31879 0.12392c0.25939 0.10083 1.5194 0.42164 1.8226 0.44924 0.65317 0.08646 0.70153-0.25851 0.4169-1.0764z"/>
  </g>
  <g transform="matrix(1.0814 0 0 1.0814 -.24308 -1.3122)">
   <path d="m7.3314 12.327c-0.19603-0.5133-0.19733-0.57471-0.017923-0.84851 0.24603-0.37548 0.95877-0.5795 1.4911-0.42682 0.7568 0.21705 0.88743 0.53858 0.54843 1.3499-0.15749 0.37692-0.16001 0.61902 8.961e-4 0.77991 0.40185 0.40185 1.698 0.38238 2.3857-0.03582l0.36052-0.21927-0.17584-1.5003c-0.10872-0.92766-0.05674-1.345 0.02356-1.6755 0 0 0.03432-0.26431 0.76734-0.23518 0.81672 0.41132 1.2447 0.22443 1.2468-0.65393-0.01397-0.92446-0.30928-1.3937-1.1506-1.0224-0.18209 0.080358-0.43832 0.096846-0.56062 0.05803-0.40906-0.12983-0.45977-0.43081-0.31742-1.8838 0.0745-0.76039 0.1108-1.4072 0.08066-1.4373-0.13317-0.13317-1.514-0.4216-2.0184-0.4216-0.7911 0-0.93623 0.21349-0.60116 0.8844 0.44071 0.88243 0.073381 1.3762-1.0238 1.3762-0.42737 0-0.65185-0.066684-0.85191-0.25307-0.27955-0.26044-0.10472-0.73341 0.070186-1.2197 0.097161-0.27015 0.018534-0.54965-0.21464-0.68017-0.26181-0.16583-1.179-0.11073-1.8893 0.11349-0.36321 0.11466-0.73693 0.2358-0.73693 0.2358s0.00803 0.68476 0.19855 1.7528c0.28352 1.5891-0.23095 1.8243-0.84367 1.4776-0.79469-0.44969-1.1165 0.16914-1.1165 0.81313 0 0.72447 0.37089 1.3241 1.1412 0.89338 0.24362-0.13623 0.37271-0.15535 0.53583-0.021012 0.1806 0.14874 0.25406 0.2347 0.19088 1.6827l-0.08115 1.6204 0.31879 0.12392c0.25939 0.10083 1.5194 0.42164 1.8226 0.44924 0.65317 0.08646 0.70153-0.25851 0.4169-1.0764z" fill="#a3be8c"/>
   <path d="m7.3314 12.327c-0.19603-0.5133-0.19733-0.57471-0.017923-0.84851 0.24603-0.37548 0.95877-0.5795 1.4911-0.42682 0.7568 0.21705 0.88743 0.53858 0.54843 1.3499-0.15749 0.37692-0.16001 0.61902 8.961e-4 0.77991 0.40185 0.40185 1.698 0.38238 2.3857-0.03582l0.36052-0.21927-0.17584-1.5003c-0.10872-0.92766-0.05674-1.345 0.02356-1.6755 0 0 0.03432-0.26431 0.76734-0.23518 0.81672 0.41132 1.2447 0.22443 1.2468-0.65393-0.01397-0.92446-0.30928-1.3937-1.1506-1.0224-0.18209 0.080358-0.43832 0.096846-0.56062 0.05803-0.40906-0.12983-0.45977-0.43081-0.31742-1.8838 0.0745-0.76039 0.1108-1.4072 0.08066-1.4373-0.13317-0.13317-1.514-0.4216-2.0184-0.4216-0.7911 0-0.93623 0.21349-0.60116 0.8844 0.44071 0.88243 0.073381 1.3762-1.0238 1.3762-0.42737 0-0.65185-0.066684-0.85191-0.25307-0.27955-0.26044-0.10472-0.73341 0.070186-1.2197 0.097161-0.27015 0.018534-0.54965-0.21464-0.68017-0.26181-0.16583-1.179-0.11073-1.8893 0.11349-0.36321 0.11466-0.73693 0.2358-0.73693 0.2358s0.00803 0.68476 0.19855 1.7528c0.28352 1.5891-0.23095 1.8243-0.84367 1.4776-0.79469-0.44969-1.1165 0.16914-1.1165 0.81313 0 0.72447 0.37089 1.3241 1.1412 0.89338 0.24362-0.13623 0.37271-0.15535 0.53583-0.021012 0.1806 0.14874 0.25406 0.2347 0.19088 1.6827l-0.08115 1.6204 0.31879 0.12392c0.25939 0.10083 1.5194 0.42164 1.8226 0.44924 0.65317 0.08646 0.70153-0.25851 0.4169-1.0764z" fill="url(#linearGradient5218)"/>
   <path d="m7.3314 11.984c-0.19603-0.5133-0.19733-0.57471-0.017923-0.84851 0.24603-0.37548 0.95877-0.5795 1.4911-0.42682 0.7568 0.21705 0.88743 0.53858 0.54843 1.3499-0.15749 0.37692-0.16001 0.61902 8.961e-4 0.77991 0.40185 0.40185 1.698 0.38238 2.3857-0.03582l0.36052-0.21927-0.17584-1.5003c-0.10872-0.92766-0.05674-1.345 0.02356-1.6755 0 0 0.03432-0.26431 0.76734-0.23518 0.81672 0.41132 1.2447 0.22443 1.2468-0.65393-0.01397-0.92446-0.30928-1.3937-1.1506-1.0224-0.18209 0.080358-0.43832 0.096846-0.56062 0.05803-0.40906-0.12983-0.45977-0.43081-0.31742-1.8838 0.0745-0.76039 0.1108-1.4072 0.08066-1.4373-0.13317-0.13317-1.514-0.4216-2.0184-0.4216-0.7911 0-0.93623 0.21349-0.60116 0.8844 0.44071 0.88243 0.073381 1.3762-1.0238 1.3762-0.42737 0-0.65185-0.066684-0.85191-0.25307-0.27955-0.26044-0.10472-0.73341 0.070186-1.2197 0.097161-0.27015 0.018534-0.54965-0.21464-0.68017-0.26181-0.16583-1.179-0.11073-1.8893 0.11349-0.36321 0.11466-0.73693 0.2358-0.73693 0.2358s0.00803 0.68476 0.19855 1.7528c0.28352 1.5891-0.23095 1.8243-0.84367 1.4776-0.79469-0.44969-1.1165 0.16914-1.1165 0.81313 0 0.72447 0.37089 1.3241 1.1412 0.89338 0.24362-0.13623 0.37271-0.15535 0.53583-0.021012 0.1806 0.14874 0.25406 0.2347 0.19088 1.6827l-0.08115 1.6204 0.31879 0.12392c0.25939 0.10083 1.5194 0.42164 1.8226 0.44924 0.65317 0.08646 0.70153-0.25851 0.4169-1.0764z" fill="url(#linearGradient4339)"/>
  </g>
 </g>
</svg>
