<svg width="64" height="64" version="1.1" viewBox="0 0 16.933 16.933" xmlns="http://www.w3.org/2000/svg">
 <defs>
  <filter id="filter1178" x="-.047999" y="-.047999" width="1.096" height="1.096" color-interpolation-filters="sRGB">
   <feGaussianBlur stdDeviation="0.30691668"/>
  </filter>
  <filter id="filter2448" x="-.064035" y="-.059879" width="1.1281" height="1.1198" color-interpolation-filters="sRGB">
   <feGaussianBlur stdDeviation="0.1404025"/>
  </filter>
  <filter id="filter2454" x="-.064732" y="-.07941" width="1.1295" height="1.1588" color-interpolation-filters="sRGB">
   <feGaussianBlur stdDeviation="0.12232893"/>
  </filter>
 </defs>
 <g stroke-linecap="round" stroke-linejoin="round">
  <rect transform="matrix(.99138 0 0 1 .072989 .0019055)" x=".79375" y=".90545" width="15.346" height="15.346" rx="3.0526" ry="3.0526" filter="url(#filter1178)" opacity=".15" stroke-width="1.2489" style="mix-blend-mode:normal"/>
  <rect x=".92604" y=".92604" width="15.081" height="15.081" rx="3" ry="3" fill="#eceff4" stroke-width="1.2274"/>
  <rect x=".01215" y=".0060174" width="16.924" height="16.927" fill="none" opacity=".15" stroke-width="1.052"/>
 </g>
 <g transform="matrix(1.1138 0 0 1.1138 -1.3539 -.55028)" stroke-linecap="round" stroke-linejoin="round">
  <rect x="6.499" y="4.2831" width="6.7393" height="5.4936" rx=".71055" ry="1.0416" fill="#2e3440" filter="url(#filter2454)" opacity=".15" stroke="#2e3440" stroke-width=".28532"/>
  <rect x="6.499" y="4.2831" width="6.7393" height="5.4936" rx=".71055" ry="1.0416" fill="#90ad77" stroke="#90ad77" stroke-width=".28532"/>
  <path d="m4.8869 6.1721c-0.27203 0-0.49121 0.3145-0.49121 0.70499v4.1812c0 0.05031 0.0038 0.09906 0.01067 0.14633l-0.01067-0.0019v2.0029c0.05754 0.5195 0.24446 0.16225 2.0807-1.4428h4.2128c0.27203 0 0.49121-0.31411 0.49121-0.70461v-4.1812c0-0.3905-0.21917-0.70499-0.49121-0.70499z" fill="#2e3440" filter="url(#filter2448)" opacity=".15" stroke="#2e3440" stroke-width=".19499"/>
  <path d="m4.8869 6.1721c-0.27203 0-0.49121 0.3145-0.49121 0.70499v4.1812c0 0.05031 0.0038 0.09906 0.01067 0.14633l-0.01067-0.0019v2.0029c0.05754 0.5195 0.24446 0.16225 2.0807-1.4428h4.2128c0.27203 0 0.49121-0.31411 0.49121-0.70461v-4.1812c0-0.3905-0.21917-0.70499-0.49121-0.70499z" fill="#a3be8c" stroke="#a3be8c" stroke-width=".19511px"/>
 </g>
</svg>
