<svg width="64" height="64" version="1.1" viewBox="0 0 16.933 16.933" xmlns="http://www.w3.org/2000/svg">
 <defs>
  <filter id="filter1178" x="-.047999" y="-.047999" width="1.096" height="1.096" color-interpolation-filters="sRGB">
   <feGaussianBlur stdDeviation="0.30691668"/>
  </filter>
  <linearGradient id="linearGradient378" x1="8.4668" x2="8.4668" y1="1.0171" y2="38.27" gradientUnits="userSpaceOnUse">
   <stop stop-color="#eceff4" offset="0"/>
   <stop stop-color="#a3be8c" offset="1"/>
  </linearGradient>
  <filter id="filter1284" x="-.032915" y="-.031463" width="1.0658" height="1.0649" color-interpolation-filters="sRGB">
   <feGaussianBlur stdDeviation="0.16895393"/>
  </filter>
 </defs>
 <g stroke-linecap="round" stroke-linejoin="round">
  <rect transform="matrix(.99138 0 0 1 .072989 .0019055)" x=".79375" y=".90545" width="15.346" height="15.346" rx="3.0526" ry="3.0526" fill="#000000" filter="url(#filter1178)" opacity=".15" stroke-width="1.2489" style="mix-blend-mode:normal"/>
  <rect x=".92604" y=".92604" width="15.081" height="15.081" rx="3" ry="3" fill="url(#linearGradient378)" stroke-width="1.2274"/>
  <rect x=".01215" y=".0060174" width="16.924" height="16.927" fill="none" opacity=".15" stroke-width="1.052"/>
 </g>
 <g transform="translate(-.081758 -.13626)" fill="#2e3440" filter="url(#filter1284)" opacity=".33721">
  <path d="m9.6304 16.007c-0.89754-4.4841-0.25244-7.9237-0.81854-9.5477" stroke="#97b67c" stroke-width=".26458px"/>
  <path transform="rotate(-15)" d="m7.2973 7.1439c0 0.070832-0.068105 0.073636-0.06973 0.14262-0.00163 0.068984 0.06322 0.20415 0.06004 0.27094s-0.00711 0.1324-0.011764 0.19666c-0.00465 0.064256-0.055643 0.12619-0.061683 0.18757-0.00604 0.061376 0.032875 0.12219 0.025526 0.18034-0.00735 0.058153-0.015334 0.11461-0.023913 0.16919-0.00858 0.054585 0.02675 0.091606 0.017021 0.14228-0.00973 0.050674-0.064517 0.115-0.075316 0.16142-0.010799 0.046419-0.06673 0.050015-0.078519 0.091834-0.011789 0.04182 0.020564 0.12186 0.00787 0.15874-0.012699 0.036877-0.00167 0.10756-0.015204 0.13915-0.013529 0.03159-0.051611 0.024093-0.06589 0.050053s0.00632 0.11138-0.00863 0.13136c-0.014949 0.019986-0.065443-0.025458-0.080982-0.01179s-0.031353 0.02409-0.047402 0.031096c-0.016049 0.00701 9.815e-4 0.097722-0.015498 0.097722-0.016479 0-0.066077-0.090717-0.082127-0.097722-0.016049-0.00701-0.02553 0.039555-0.047402-0.031096-0.00612-0.019769-0.07583 0.025612-0.090779 0.00563-0.014949-0.019986 0.015444-0.099238 0.00117-0.1252-0.014279-0.02596-0.040966-0.00719-0.054495-0.038777-0.013529-0.03159-0.013899-0.11354-0.026598-0.15042-0.012707-0.036878-0.0743-0.051289-0.086089-0.093109s0.026225-0.11105 0.015426-0.15747c-0.010799-0.046419 0.013683-0.12324 0.00395-0.17391-0.00973-0.050674-0.05367-0.075205-0.062249-0.12979-0.00858-0.054585 0.016914-0.12361 0.00956-0.18176-0.00735-0.058152-0.047541-0.10543-0.053581-0.16681-0.00604-0.061376 0.047571-0.15626 0.042922-0.22052-0.00465-0.064256-0.06756-0.097884-0.070739-0.16468-0.00318-0.066792 0.025127-0.093524 0.023497-0.16251-0.00163-0.068984-0.033187-0.18022-0.033187-0.25105 0-0.070832-0.054905-0.151-0.05328-0.21998 0.00163-0.068984 0.05979-0.12679 0.06297-0.19358s0.012385-0.091807 0.017039-0.15606c0.00465-0.064256 0.00474-0.16775 0.010779-0.22913 0.00604-0.061376 0.069675-0.016288 0.077024-0.07444 0.00735-0.058153-0.041587-0.21955-0.033008-0.27413 0.00858-0.054585 0.017754-0.1073 0.027483-0.15797 0.00973-0.050674-0.044561-0.11661-0.033761-0.16303 0.010799-0.046419 0.086687-0.073321 0.098476-0.11514s0.024053-0.081254 0.036752-0.11813c0.012699-0.036877 0.028726-0.03099 0.042255-0.06258s0.02456-0.10066 0.038839-0.12662 0.028913-0.049019 0.043862-0.069005 0.030213-0.036898 0.045752-0.050566 0.033942 0.02077 0.049991 0.013764c0.016049-0.00701 0.029744-0.055455 0.046223-0.055455s0.032763 0.00359 0.048812 0.010595c0.016049 0.00701 0.057517-0.025679 0.073056-0.012011s0.00515 0.073687 0.020098 0.093673c0.014949 0.019986 0.029583 0.043044 0.043862 0.069004s0.067715 0.01529 0.081244 0.046881c0.013529 0.03159-0.012849 0.10544-1.497e-4 0.14232 0.012699 0.036877-0.040693 0.13078-0.028904 0.1726s0.088759 0.031557 0.099558 0.077976 0.077053 0.048449 0.086782 0.099122c0.00973 0.050674-0.037066 0.14999-0.028487 0.20458 0.00858 0.054585 0.062267 0.069154 0.069616 0.12731 0.00735 0.058153-0.031639 0.15989-0.0256 0.22126 0.00604 0.061376-0.041642 0.15279-0.036992 0.21705s0.061626 0.10135 0.06481 0.16815c0.00318 0.066792 0.0056 0.13477 0.00723 0.20375 0.00163 0.068984 0.00246 0.13898 0.00246 0.20981z" fill-rule="evenodd" stroke-width=".26458"/>
  <path d="m7.4666 16.007c-0.76018-2.9003-3.8268-5.9738-3.8268-5.9738s3.0729 5.0374 3.1041 5.9738z"/>
  <path d="m9.6304 16.007c0-1.5852-1.5937-5.7622-3.0051-8.2785 2.03 5.6879 1.0426 3.1357 2.1866 6.9172-1.4774-4.767-4.713-7.1357-4.713-7.1357 3.5249 4.1862 3.8087 6.0902 4.5767 8.497z"/>
  <path d="m13.361 16.007c0.82768-0.18832-0.12917-3.1226 1.3162-4.2485-1.348 2.2599 0.22265 3.2584-0.38321 3.9613z"/>
  <path d="m12.234 16.007c0.02477-0.44629 0.83003-5.5472 3.7248-10.506-2.4999 1.5563-4.3281 9.5083-4.3281 9.5083s-6.8621-9.4439-7.3321-9.4439c0.29226 0.7502 6.7727 10.441 6.7727 10.441z"/>
  <path d="m9.1693 10.754c0.44931-1.2413 3.6476-3.8178 3.6476-3.8178s-3.5826 3.8676-3.5957 5.3496z"/>
 </g>
 <g fill="#97b67c">
  <path d="m9.6304 16.007c-0.89754-4.4841-0.25244-7.9237-0.81854-9.5477" stroke="#97b67c" stroke-width=".26458px"/>
  <path transform="rotate(-15)" d="m7.2973 7.1439c0 0.070832-0.068105 0.073636-0.06973 0.14262-0.00163 0.068984 0.06322 0.20415 0.06004 0.27094s-0.00711 0.1324-0.011764 0.19666c-0.00465 0.064256-0.055643 0.12619-0.061683 0.18757-0.00604 0.061376 0.032875 0.12219 0.025526 0.18034-0.00735 0.058153-0.015334 0.11461-0.023913 0.16919-0.00858 0.054585 0.02675 0.091606 0.017021 0.14228-0.00973 0.050674-0.064517 0.115-0.075316 0.16142-0.010799 0.046419-0.06673 0.050015-0.078519 0.091834-0.011789 0.04182 0.020564 0.12186 0.00787 0.15874-0.012699 0.036877-0.00167 0.10756-0.015204 0.13915-0.013529 0.03159-0.051611 0.024093-0.06589 0.050053s0.00632 0.11138-0.00863 0.13136c-0.014949 0.019986-0.065443-0.025458-0.080982-0.01179s-0.031353 0.02409-0.047402 0.031096c-0.016049 0.00701 9.815e-4 0.097722-0.015498 0.097722-0.016479 0-0.066077-0.090717-0.082127-0.097722-0.016049-0.00701-0.02553 0.039555-0.047402-0.031096-0.00612-0.019769-0.07583 0.025612-0.090779 0.00563-0.014949-0.019986 0.015444-0.099238 0.00117-0.1252-0.014279-0.02596-0.040966-0.00719-0.054495-0.038777-0.013529-0.03159-0.013899-0.11354-0.026598-0.15042-0.012707-0.036878-0.0743-0.051289-0.086089-0.093109s0.026225-0.11105 0.015426-0.15747c-0.010799-0.046419 0.013683-0.12324 0.00395-0.17391-0.00973-0.050674-0.05367-0.075205-0.062249-0.12979-0.00858-0.054585 0.016914-0.12361 0.00956-0.18176-0.00735-0.058152-0.047541-0.10543-0.053581-0.16681-0.00604-0.061376 0.047571-0.15626 0.042922-0.22052-0.00465-0.064256-0.06756-0.097884-0.070739-0.16468-0.00318-0.066792 0.025127-0.093524 0.023497-0.16251-0.00163-0.068984-0.033187-0.18022-0.033187-0.25105 0-0.070832-0.054905-0.151-0.05328-0.21998 0.00163-0.068984 0.05979-0.12679 0.06297-0.19358s0.012385-0.091807 0.017039-0.15606c0.00465-0.064256 0.00474-0.16775 0.010779-0.22913 0.00604-0.061376 0.069675-0.016288 0.077024-0.07444 0.00735-0.058153-0.041587-0.21955-0.033008-0.27413 0.00858-0.054585 0.017754-0.1073 0.027483-0.15797 0.00973-0.050674-0.044561-0.11661-0.033761-0.16303 0.010799-0.046419 0.086687-0.073321 0.098476-0.11514s0.024053-0.081254 0.036752-0.11813c0.012699-0.036877 0.028726-0.03099 0.042255-0.06258s0.02456-0.10066 0.038839-0.12662 0.028913-0.049019 0.043862-0.069005 0.030213-0.036898 0.045752-0.050566 0.033942 0.02077 0.049991 0.013764c0.016049-0.00701 0.029744-0.055455 0.046223-0.055455s0.032763 0.00359 0.048812 0.010595c0.016049 0.00701 0.057517-0.025679 0.073056-0.012011s0.00515 0.073687 0.020098 0.093673c0.014949 0.019986 0.029583 0.043044 0.043862 0.069004s0.067715 0.01529 0.081244 0.046881c0.013529 0.03159-0.012849 0.10544-1.497e-4 0.14232 0.012699 0.036877-0.040693 0.13078-0.028904 0.1726s0.088759 0.031557 0.099558 0.077976 0.077053 0.048449 0.086782 0.099122c0.00973 0.050674-0.037066 0.14999-0.028487 0.20458 0.00858 0.054585 0.062267 0.069154 0.069616 0.12731 0.00735 0.058153-0.031639 0.15989-0.0256 0.22126 0.00604 0.061376-0.041642 0.15279-0.036992 0.21705s0.061626 0.10135 0.06481 0.16815c0.00318 0.066792 0.0056 0.13477 0.00723 0.20375 0.00163 0.068984 0.00246 0.13898 0.00246 0.20981z" fill-rule="evenodd" stroke-width=".26458"/>
  <path d="m7.4666 16.007c-0.76018-2.9003-3.8268-5.9738-3.8268-5.9738s3.0729 5.0374 3.1041 5.9738z"/>
  <path d="m9.6304 16.007c0-1.5852-1.5937-5.7622-3.0051-8.2785 2.03 5.6879 1.0426 3.1357 2.1866 6.9172-1.4774-4.767-4.713-7.1357-4.713-7.1357 3.5249 4.1862 3.8087 6.0902 4.5767 8.497z"/>
  <path d="m13.361 16.007c0.82768-0.18832-0.12917-3.1226 1.3162-4.2485-1.348 2.2599 0.22265 3.2584-0.38321 3.9613z"/>
  <path d="m12.234 16.007c0.02477-0.44629 0.83003-5.5472 3.7248-10.506-2.4999 1.5563-4.3281 9.5083-4.3281 9.5083s-6.8621-9.4439-7.3321-9.4439c0.29226 0.7502 6.7727 10.441 6.7727 10.441z"/>
  <path d="m9.1693 10.754c0.44931-1.2413 3.6476-3.8178 3.6476-3.8178s-3.5826 3.8676-3.5957 5.3496z"/>
 </g>
</svg>
