<svg width="64" height="64" version="1.1" viewBox="0 0 16.933 16.933" xmlns="http://www.w3.org/2000/svg">
 <defs>
  <filter id="filter1178" x="-.047999" y="-.047999" width="1.096" height="1.096" color-interpolation-filters="sRGB">
   <feGaussianBlur stdDeviation="0.30691668"/>
  </filter>
  <linearGradient id="linearGradient1819" x1="16.876" x2="3.3293" y1="-3.3111" y2="14.456" gradientUnits="userSpaceOnUse">
   <stop stop-color="#dbc7c5" offset="0"/>
   <stop stop-color="#ad85a5" offset="1"/>
  </linearGradient>
  <linearGradient id="linearGradient864" x1="18.047" x2="23.677" y1="-1.6291" y2=".83942" gradientUnits="userSpaceOnUse">
   <stop stop-color="#d08770" offset="0"/>
   <stop stop-color="#ebcb8b" offset="1"/>
  </linearGradient>
  <linearGradient id="linearGradient872" x1="21.543" x2="21.414" y1="1.9475" y2="-3.9497" gradientUnits="userSpaceOnUse">
   <stop stop-color="#8fbcbb" offset="0"/>
   <stop stop-color="#ebcb8b" offset="1"/>
  </linearGradient>
  <linearGradient id="linearGradient880" x1="19.495" x2="22.909" y1="-1.4259" y2="1.2551" gradientUnits="userSpaceOnUse">
   <stop stop-color="#88c0d0" offset="0"/>
   <stop stop-color="#5e81ac" offset="1"/>
  </linearGradient>
  <linearGradient id="linearGradient888" x1="22.551" x2="20.657" y1="-1.3011" y2="1.5699" gradientUnits="userSpaceOnUse">
   <stop stop-color="#ebcb8b" offset="0"/>
   <stop stop-color="#bf616a" offset="1"/>
  </linearGradient>
  <linearGradient id="linearGradient896" x1="19.064" x2="25.397" y1="-.90677" y2="1.0606" gradientUnits="userSpaceOnUse">
   <stop stop-color="#8fbcbb" offset="0"/>
   <stop stop-color="#ebcb8b" offset="1"/>
  </linearGradient>
  <linearGradient id="linearGradient910" x1="20.676" x2="22.533" y1="-1.9812" y2="1.4434" gradientUnits="userSpaceOnUse">
   <stop stop-color="#88c0d0" offset="0"/>
   <stop stop-color="#5e81ac" offset="1"/>
  </linearGradient>
  <filter id="filter1537" x="-.078953" y="-.084731" width="1.1579" height="1.1695" color-interpolation-filters="sRGB">
   <feGaussianBlur stdDeviation="0.7102107"/>
  </filter>
  <filter id="filter1543" x="-.05056" y="-.083182" width="1.1011" height="1.1664" color-interpolation-filters="sRGB">
   <feGaussianBlur stdDeviation="0.24524595"/>
  </filter>
 </defs>
 <rect transform="matrix(.99138 0 0 1 .072989 .0019055)" x=".79375" y=".90545" width="15.346" height="15.346" rx="3.0526" ry="3.0526" filter="url(#filter1178)" opacity=".15" stroke-width="1.2489" style="mix-blend-mode:normal"/>
 <g stroke-linecap="round" stroke-linejoin="round">
  <rect x=".92604" y=".92604" width="15.081" height="15.081" rx="3" ry="3" fill="url(#linearGradient1819)" stroke-width="1.2274"/>
  <rect x=".01215" y=".0060174" width="16.924" height="16.927" fill="none" opacity=".15" stroke-width="1.052"/>
  <path transform="matrix(-.55853 .14966 .14966 .55853 24.553 8.0525)" d="m21.512 2.0499-1.9907-1.1493v-2.2987l1.9907-1.1493 1.9907 1.1493v2.2987zm-4.1538-3.816-1.3422-0.7749v-1.5498l1.3422-0.7749 1.3422 0.7749v1.5498zm2.3335-5.1055-2.3763-1.3719v-2.7439l2.3763-1.3719 2.3763 1.3719v2.7439zm8.8391 1.9183 0.74358-1.2879-0.74358-1.2879-1.4872-1e-7 -0.74358 1.2879 0.74358 1.2879zm7.9481-4.1998 1.126-1.9503-1.126-1.9503h-2.252l-1.126 1.9503 1.126 1.9503zm-7.2185-2.0282 1.9876-3.4427-1.9876-3.4427h-3.9753l-1.9876 3.4427 1.9876 3.4427z" fill="#2e3440" filter="url(#filter1537)" opacity=".27149" stroke-width=".54741" style="paint-order:stroke markers fill"/>
 </g>
 <path transform="rotate(15 -1.6857 -52.756)" d="m21.512 2.0499-1.9907-1.1493v-2.2987l1.9907-1.1493 1.9907 1.1493v2.2987z" fill="url(#linearGradient864)" style="paint-order:stroke markers fill"/>
 <path transform="matrix(.5472 .14662 -.14662 .5472 -8.6623 4.1237)" d="m21.512 2.0499-1.9907-1.1493v-2.2987l1.9907-1.1493 1.9907 1.1493v2.2987z" fill="url(#linearGradient872)" style="paint-order:stroke markers fill"/>
 <path transform="matrix(.36135 .096824 -.096824 .36135 .30128 6.7321)" d="m21.512 2.0499-1.9907-1.1493v-2.2987l1.9907-1.1493 1.9907 1.1493v2.2987z" fill="url(#linearGradient880)" style="paint-order:stroke markers fill"/>
 <path transform="matrix(-.66671 .17864 .17864 .66671 26.502 1.9518)" d="m21.512 2.0499-1.9907-1.1493v-2.2987l1.9907-1.1493 1.9907 1.1493v2.2987z" fill="url(#linearGradient910)" style="paint-order:stroke markers fill"/>
 <path transform="matrix(-.37657 .1009 .1009 .37657 22.487 6.7213)" d="m21.512 2.0499-1.9907-1.1493v-2.2987l1.9907-1.1493 1.9907 1.1493v2.2987z" fill="url(#linearGradient896)" style="paint-order:stroke markers fill"/>
 <path transform="matrix(-.55853 .14966 .14966 .55853 24.553 8.0525)" d="m21.512 2.0499-1.9907-1.1493v-2.2987l1.9907-1.1493 1.9907 1.1493v2.2987z" fill="url(#linearGradient888)" style="paint-order:stroke markers fill"/>
 <path d="m4.8497 8.7321c-0.067026 6.508e-4 -0.13495 0.017807-0.19792 0.052709-0.2015 0.1117-0.27344 0.36383-0.16174 0.56533l0.92086 1.6608c-1.7 0.96772-2.7422 2.6716-2.7652 4.5123 0.38793 0.18242 0.82195 0.28473 1.2805 0.28473h9.0809c0.45853 0 0.89208-0.10234 1.28-0.28473-0.02267-1.8409-1.0645-3.5449-2.7646-4.5128l0.92034-1.6603c0.11173-0.2015 0.039751-0.45364-0.16174-0.56533-0.2015-0.11168-0.45364-0.03975-0.56533 0.16174l-0.94411 1.7027c-0.728-0.28986-1.5124-0.43918-2.3052-0.43924-0.79282 2.01e-4 -1.5773 0.14979-2.3052 0.43976l-0.94411-1.7032c-0.076787-0.13853-0.21995-0.21586-0.36741-0.21445zm0.92964 3.7429c0.26581 0 0.48627 0.21994 0.48627 0.48575s-0.22046 0.48678-0.48627 0.48678-0.48627-0.22098-0.48627-0.48678 0.22046-0.48575 0.48627-0.48575zm5.3742 0c0.2658 0 0.48626 0.21994 0.48626 0.48575s-0.22046 0.48678-0.48626 0.48678c-0.26581 0-0.48627-0.22098-0.48627-0.48678s0.22046-0.48575 0.48627-0.48575z" fill="#2e3440" filter="url(#filter1543)" opacity=".24251"/>
 <path d="m4.8497 8.9311c-0.067026 6.508e-4 -0.13495 0.017807-0.19792 0.052709-0.2015 0.1117-0.27344 0.36383-0.16174 0.56533l0.92086 1.6608c-1.7 0.96772-2.7422 2.6716-2.7652 4.5123 0.38793 0.18242 0.82195 0.28473 1.2805 0.28473h9.0809c0.45853 0 0.89208-0.10234 1.28-0.28473-0.022672-1.8409-1.0645-3.5449-2.7646-4.5128l0.92034-1.6603c0.11173-0.2015 0.039751-0.45364-0.16174-0.56533-0.2015-0.11168-0.45364-0.03975-0.56533 0.16174l-0.94411 1.7027c-0.728-0.28986-1.5124-0.43918-2.3052-0.43924-0.79282 2.01e-4 -1.5773 0.14979-2.3052 0.43976l-0.94411-1.7032c-0.076787-0.13853-0.21995-0.21586-0.36741-0.21445zm0.92964 3.7428c0.26581 0 0.48627 0.21994 0.48627 0.48575s-0.22046 0.48678-0.48627 0.48678-0.48627-0.22098-0.48627-0.48678 0.22046-0.48575 0.48627-0.48575zm5.3742 0c0.2658 0 0.48626 0.21994 0.48626 0.48575s-0.22046 0.48678-0.48626 0.48678c-0.26581 0-0.48627-0.22098-0.48627-0.48678s0.22046-0.48575 0.48627-0.48575z" fill="#a3be8c"/>
</svg>
