<?xml version="1.0" encoding="UTF-8"?>
<svg width="64" height="64" version="1.1" viewBox="0 0 16.933 16.933" xmlns="http://www.w3.org/2000/svg" xmlns:xlink="http://www.w3.org/1999/xlink">
 <defs>
  <filter id="filter1178" x="-.047999" y="-.047999" width="1.096" height="1.096" color-interpolation-filters="sRGB">
   <feGaussianBlur stdDeviation="0.30691668"/>
  </filter>
  <style>.cls-1{fill-rule:evenodd;}</style>
  <linearGradient id="linearGradient4322" x1="8.7575" x2="8.7259" y1="11.518" y2="9.1016" gradientTransform="matrix(1.6974,0,0,1.9779,27.83,-27.082)" gradientUnits="userSpaceOnUse" xlink:href="#linearGradient3666"/>
  <linearGradient id="linearGradient3666">
   <stop stop-color="#5e81ac" offset="0"/>
   <stop stop-color="#88c0d0" offset="1"/>
  </linearGradient>
  <linearGradient id="linearGradient3668" x1="8.52" x2="8.531" y1="11.545" y2="8.0601" gradientTransform="matrix(1.6974,0,0,1.908,24.76,-26.283)" gradientUnits="userSpaceOnUse" xlink:href="#linearGradient3666"/>
  <linearGradient id="linearGradient5062" x1="10.908" x2="10.908" y1="6.763" y2="7.7111" gradientTransform="matrix(1.6974,0,0,1.6974,24.866,-24.776)" gradientUnits="userSpaceOnUse">
   <stop stop-color="#d8dee9" offset="0"/>
   <stop stop-color="#eceff4" offset="1"/>
  </linearGradient>
  <linearGradient id="linearGradient3334" x1="40.855" x2="41.064" y1="-15.079" y2="-4.4533" gradientUnits="userSpaceOnUse">
   <stop stop-color="#2e3440" offset="0"/>
   <stop stop-color="#4c566a" offset="1"/>
  </linearGradient>
  <linearGradient id="linearGradient3738" x1="-24.014" x2="-24.047" y1=".14725" y2="18.525" gradientUnits="userSpaceOnUse">
   <stop stop-color="#d8dee9" offset="0"/>
   <stop stop-color="#eceff4" offset="1"/>
  </linearGradient>
  <filter id="filter947" x="-.04874" y="-.076924" width="1.0975" height="1.1538" color-interpolation-filters="sRGB">
   <feGaussianBlur stdDeviation="0.57829392"/>
  </filter>
  <linearGradient id="linearGradient1023" x1="8.1016" x2="8.2369" y1="2.4506" y2="16.013" gradientUnits="userSpaceOnUse">
   <stop stop-color="#bf616a" offset="0"/>
   <stop stop-color="#b54a55" offset="1"/>
  </linearGradient>
 </defs>
 <g stroke-linecap="round" stroke-linejoin="round">
  <rect transform="matrix(.99138 0 0 1 .072989 .0019055)" x=".79375" y=".90545" width="15.346" height="15.346" rx="3.0526" ry="3.0526" filter="url(#filter1178)" opacity=".15" stroke-width="1.2489" style="mix-blend-mode:normal"/>
  <rect x=".01215" y=".0060174" width="16.924" height="16.927" fill="none" opacity=".15" stroke-width="1.052"/>
  <rect x=".926" y=".926" width="15.081" height="15.081" rx="3" ry="3" fill="url(#linearGradient1023)" stroke-width="1.2274"/>
 </g>
 <g transform="matrix(.4771 0 0 .4771 19.794 3.9616)">
  <path d="m-37.748 9.2412a24.727 28.236 0 0 1 2.3912-2.8786c3.3296-3.4607 7.1156-5.3101 11.036-5.4053s7.8987 1.5663 11.666 5.1116a28.247 32.255 0 0 1 2.9055 3.1749 0.92681 1.0583 0 0 1 0.057922 1.3229 18.508 21.135 0 0 1-3.5636 4.3417 16.11 18.396 0 0 1-10.04 4.0877 17.609 20.108 0 0 1-10.255-3.7993 20.703 23.64 0 0 1-4.2425-4.5984 0.91291 1.0424 0 0 1 0.04402-1.3573z" fill="#2e3440" filter="url(#filter947)" opacity=".34863" stroke-width=".2476"/>
  <path d="m-37.748 8.7087a24.727 28.236 0 0 1 2.3912-2.8786c3.3296-3.4607 7.1156-5.3101 11.036-5.4053s7.8987 1.5663 11.666 5.1116a28.247 32.255 0 0 1 2.9055 3.1749 0.92681 1.0583 0 0 1 0.057922 1.3229 18.508 21.135 0 0 1-3.5636 4.3417 16.11 18.396 0 0 1-10.04 4.0877 17.609 20.108 0 0 1-10.255-3.7993 20.703 23.64 0 0 1-4.2425-4.5984 0.91291 1.0424 0 0 1 0.04402-1.3573z" fill="url(#linearGradient3738)" stroke-width=".2476"/>
  <g transform="matrix(1.4641,0,0,1.4641,-83.597,23.651)">
   <path d="m40.855-15.079a5.3736 5.3736 0 1 1-3.794 1.5875 5.3551 5.3551 0 0 1 3.794-1.5875z" fill="url(#linearGradient3334)" stroke-width=".26458"/>
   <path d="m42.633-9.5573v5.168e-4c-0.24439-9.32e-5 -2.9613 2.91-4.4043 4.4746a5.3736 5.3736 0 0 0 7.1958-1.7508v-0.13797s-2.5116-2.5862-2.7915-2.5864z" fill="url(#linearGradient4322)" stroke-width=".48478"/>
   <path d="m39.197-10.944c-0.31471 0.01371-1.5871 1.6579-3.0923 3.7408a5.3736 5.3736 0 0 0 7.28 2.2324c-1.1688-1.8504-3.7676-5.9916-4.1878-5.9732z" fill="url(#linearGradient3668)" stroke-width=".47614"/>
   <ellipse cx="43.384" cy="-12.489" rx=".64691" ry=".80621" fill="url(#linearGradient5062)" opacity=".8" stroke-width="1.6974"/>
  </g>
 </g>
</svg>
