<svg width="64" height="64" version="1.1" xmlns="http://www.w3.org/2000/svg">
 <defs>
  <filter id="filter1178" x="-.047999" y="-.047999" width="1.096" height="1.096" color-interpolation-filters="sRGB">
   <feGaussianBlur stdDeviation="0.30691668"/>
  </filter>
  <filter id="filter11742" x="-.11405" y="-.055871" width="1.2281" height="1.1117" color-interpolation-filters="sRGB">
   <feGaussianBlur stdDeviation="0.800066"/>
  </filter>
  <radialGradient id="radialGradient11800" cx="8.4665" cy="8.4665" r="7.5405" gradientTransform="matrix(1.5476 .0037506 -.0033757 1.3929 -4.6076 -3.3582)" gradientUnits="userSpaceOnUse">
   <stop stop-color="#88c0d0" offset="0"/>
   <stop stop-color="#5e81ac" offset="1"/>
  </radialGradient>
 </defs>
 <g transform="matrix(3.7796 0 0 3.7796 -.028914 -.011405)" stroke-linecap="round" stroke-linejoin="round">
  <rect transform="matrix(.99138 0 0 1 .072989 .0019055)" x=".79375" y=".90545" width="15.346" height="15.346" rx="3.0526" ry="3.0526" fill="#000000" filter="url(#filter1178)" opacity=".15" stroke-width="1.2489" style="mix-blend-mode:normal"/>
  <rect x=".92604" y=".92604" width="15.081" height="15.081" rx="3" ry="3" fill="url(#radialGradient11800)" stroke-width="1.2274"/>
  <rect x=".01215" y=".0060174" width="16.924" height="16.927" fill="none" opacity=".15" stroke-width="1.052"/>
 </g>
 <g stroke-width="4.9353">
  <g transform="matrix(1.0718 0 0 1.0718 .027037 -2.6515)" fill="#2e3440" filter="url(#filter11742)" opacity=".25" aria-label="?">
   <path d="m39.034 24.238q0 1.6451-0.5398 3.0075-0.5141 1.3367-1.311 2.5448-0.79685 1.1824-1.7222 2.262-0.92538 1.0796-1.7222 2.1592-0.79685 1.0539-1.3367 2.1592-0.5141 1.1053-0.5141 2.3391 0 0.15423 0.02571 0.38557 0.0257 0.20564 0.07711 0.41128 0.05141 0.25705 0.10282 0.5141l-3.2131-0.05141q-0.46269-0.95108-0.77115-1.9793-0.28275-1.0539-0.28275-2.5962 0-1.0282 0.30846-2.0307 0.30846-1.0282 0.77115-1.9793 0.46269-0.97679 1.0025-1.8765 0.5398-0.89967 1.0025-1.6965 0.46269-0.82256 0.77115-1.5423t0.30846-1.3367q0-1.3624-0.89967-2.262-0.89967-0.89967-2.5191-0.89967-0.77115 0-1.3367 0.20564-0.5398 0.17994-0.92538 0.48839-0.35987 0.30846-0.59121 0.69403-0.23134 0.35987-0.35987 0.71974h-1.9022q-0.59121-0.5141-0.92538-1.2852t-0.33416-1.3624q0-0.77115 0.43698-1.6451 0.46269-0.89967 1.4138-1.6451 0.97679-0.74544 2.4934-1.2338 1.5166-0.5141 3.6501-0.5141t3.7786 0.69403q1.6708 0.66833 2.7761 1.7993 1.131 1.131 1.6965 2.5962 0.59121 1.4395 0.59121 2.9561zm-4.6783 22.26q0 0.84826-0.30846 1.5937t-0.84826 1.2852q-0.5398 0.5398-1.2852 0.87397-0.71974 0.30846-1.5423 0.30846-0.84826 0-1.5937-0.30846-0.74544-0.33416-1.2852-0.87397-0.5398-0.5398-0.87397-1.2852-0.30846-0.74544-0.30846-1.5937 0-0.82256 0.30846-1.5423 0.33416-0.74544 0.87397-1.2852 0.5398-0.5398 1.2852-0.84826 0.74544-0.30846 1.5937-0.30846 0.82256 0 1.5423 0.30846 0.74544 0.30846 1.2852 0.84826 0.5398 0.5398 0.84826 1.2852 0.30846 0.71974 0.30846 1.5423z" fill="#2e3440"/>
  </g>
  <g transform="matrix(1.0718 0 0 1.0718 -.81384 -3.7727)" fill="#e5e9f0" aria-label="?">
   <path d="m39.034 24.238q0 1.6451-0.5398 3.0075-0.5141 1.3367-1.311 2.5448-0.79685 1.1824-1.7222 2.262-0.92538 1.0796-1.7222 2.1592-0.79685 1.0539-1.3367 2.1592-0.5141 1.1053-0.5141 2.3391 0 0.15423 0.02571 0.38557 0.0257 0.20564 0.07711 0.41128 0.05141 0.25705 0.10282 0.5141l-3.2131-0.05141q-0.46269-0.95108-0.77115-1.9793-0.28275-1.0539-0.28275-2.5962 0-1.0282 0.30846-2.0307 0.30846-1.0282 0.77115-1.9793 0.46269-0.97679 1.0025-1.8765 0.5398-0.89967 1.0025-1.6965 0.46269-0.82256 0.77115-1.5423t0.30846-1.3367q0-1.3624-0.89967-2.262-0.89967-0.89967-2.5191-0.89967-0.77115 0-1.3367 0.20564-0.5398 0.17994-0.92538 0.48839-0.35987 0.30846-0.59121 0.69403-0.23134 0.35987-0.35987 0.71974h-1.9022q-0.59121-0.5141-0.92538-1.2852t-0.33416-1.3624q0-0.77115 0.43698-1.6451 0.46269-0.89967 1.4138-1.6451 0.97679-0.74544 2.4934-1.2338 1.5166-0.5141 3.6501-0.5141t3.7786 0.69403q1.6708 0.66833 2.7761 1.7993 1.131 1.131 1.6965 2.5962 0.59121 1.4395 0.59121 2.9561zm-4.6783 22.26q0 0.84826-0.30846 1.5937t-0.84826 1.2852q-0.5398 0.5398-1.2852 0.87397-0.71974 0.30846-1.5423 0.30846-0.84826 0-1.5937-0.30846-0.74544-0.33416-1.2852-0.87397-0.5398-0.5398-0.87397-1.2852-0.30846-0.74544-0.30846-1.5937 0-0.82256 0.30846-1.5423 0.33416-0.74544 0.87397-1.2852 0.5398-0.5398 1.2852-0.84826 0.74544-0.30846 1.5937-0.30846 0.82256 0 1.5423 0.30846 0.74544 0.30846 1.2852 0.84826 0.5398 0.5398 0.84826 1.2852 0.30846 0.71974 0.30846 1.5423z" fill="#e5e9f0"/>
  </g>
 </g>
</svg>
