<?xml version="1.0" encoding="UTF-8" standalone="no"?>
<svg
   width="63.966"
   height="64.192566"
   viewBox="0 0 16.915341 17.035371"
   version="1.1"
   id="svg323"
   sodipodi:docname="heroic-dark.svg"
   inkscape:export-filename="heroic.svg"
   inkscape:export-xdpi="96"
   inkscape:export-ydpi="96"
   inkscape:version="1.2.2 (b0a8486541, 2022-12-01)"
   xmlns:inkscape="http://www.inkscape.org/namespaces/inkscape"
   xmlns:sodipodi="http://sodipodi.sourceforge.net/DTD/sodipodi-0.dtd"
   xmlns:xlink="http://www.w3.org/1999/xlink"
   xmlns="http://www.w3.org/2000/svg"
   xmlns:svg="http://www.w3.org/2000/svg">
  <sodipodi:namedview
     id="namedview325"
     pagecolor="#505050"
     bordercolor="#eeeeee"
     borderopacity="1"
     inkscape:showpageshadow="0"
     inkscape:pageopacity="0"
     inkscape:pagecheckerboard="0"
     inkscape:deskcolor="#505050"
     showgrid="false"
     inkscape:zoom="5.0773319"
     inkscape:cx="48.352167"
     inkscape:cy="51.109521"
     inkscape:window-width="1777"
     inkscape:window-height="1262"
     inkscape:window-x="0"
     inkscape:window-y="0"
     inkscape:window-maximized="1"
     inkscape:current-layer="svg323" />
  <defs
     id="defs302">
    <linearGradient
       id="linearGradient63145"
       x1="8.6644001"
       x2="8.6644001"
       y1="15.931"
       y2="0.79374999"
       gradientUnits="userSpaceOnUse"
       gradientTransform="matrix(1.0000197,0,0,1.0000197,-0.01215,-0.00603)">
      <stop
         stop-color="#5e81ac"
         offset="0"
         id="stop63141"
         style="stop-color:#8fbcbb;stop-opacity:1;" />
      <stop
         stop-color="#88c0d0"
         offset="1"
         id="stop63143"
         style="stop-color:#5e81ac;stop-opacity:1;" />
    </linearGradient>
    <filter
       id="filter1178-61"
       x="-0.04799993"
       y="-0.04799993"
       width="1.096"
       height="1.096"
       color-interpolation-filters="sRGB">
      <feGaussianBlur
         stdDeviation="0.30691955"
         id="feGaussianBlur38254" />
    </filter>
    <linearGradient
       id="linearGradient1340-8"
       x1="6.2744002"
       x2="13.684"
       y1="14.625"
       y2="2.4754"
       gradientUnits="userSpaceOnUse">
      <stop
         stop-color="#2e3440"
         offset="0"
         id="stop38257" />
      <stop
         stop-color="#5e81ac"
         offset="1"
         id="stop38259" />
    </linearGradient>
    <filter
       style="color-interpolation-filters:sRGB"
       inkscape:label="Drop Shadow"
       id="filter8263-7-1"
       x="-0.02429967"
       y="-0.018041419"
       width="1.0587242"
       height="1.0436001">
      <feFlood
         flood-opacity="0.498039"
         flood-color="rgb(0,0,0)"
         result="flood"
         id="feFlood8253-5-2" />
      <feComposite
         in="flood"
         in2="SourceGraphic"
         operator="in"
         result="composite1"
         id="feComposite8255-3-9" />
      <feGaussianBlur
         in="composite1"
         stdDeviation="0.1"
         result="blur"
         id="feGaussianBlur8257-5-3" />
      <feOffset
         dx="0.1"
         dy="0.1"
         result="offset"
         id="feOffset8259-6-1" />
      <feComposite
         in="SourceGraphic"
         in2="offset"
         operator="over"
         result="composite2"
         id="feComposite8261-2-9" />
    </filter>
    <linearGradient
       inkscape:collect="always"
       xlink:href="#linearGradient63145"
       id="linearGradient70536"
       gradientUnits="userSpaceOnUse"
       gradientTransform="matrix(1.0000197,0,0,1.0000197,31.932197,0.34035814)"
       x1="8.6644001"
       y1="15.931"
       x2="8.6644001"
       y2="0.79374999" />
  </defs>
  <g
     stroke-linecap="round"
     stroke-linejoin="round"
     id="g38310"
     transform="matrix(1.0030277,0,0,1.0030277,-0.04215513,-0.00603561)">
    <rect
       transform="matrix(0.99138,0,0,1,0.072989,0.0019055)"
       x="0.79374999"
       y="0.90544999"
       width="15.346"
       height="15.346"
       rx="3.0525999"
       ry="3.0525999"
       fill="#000000"
       filter="url(#filter1178)"
       opacity="0.15"
       stroke-width="1.2489"
       style="mix-blend-mode:normal;filter:url(#filter1178-61)"
       id="rect38304" />
    <rect
       x="0.92603999"
       y="0.92603999"
       width="15.081"
       height="15.081"
       rx="3"
       ry="3"
       fill="url(#linearGradient1340)"
       stroke-width="1.2274"
       id="rect38306"
       style="fill:url(#linearGradient1340-8)" />
    <rect
       x="0.01215"
       y="0.0060174"
       width="16.924"
       height="16.927"
       fill="none"
       opacity="0.15"
       stroke-width="1.052"
       id="rect38308" />
  </g>
  <g
     id="g8060-1-8"
     transform="translate(-31.998752,-0.37098016)"
     style="filter:url(#filter8263-7-1)">
    <path
       id="rect306-7-2-4"
       style="fill:url(#linearGradient70536);stroke-linecap:round;stroke-linejoin:round"
       d="m 40.396301,2.3873761 c -0.01188,4.482e-4 -0.02383,0.0013 -0.03576,0.00259 -0.01194,0.00129 -0.02405,0.00305 -0.03576,0.00518 -0.01171,0.00213 -0.02301,0.00482 -0.03421,0.00777 -0.0112,0.00295 -0.02225,0.00608 -0.03265,0.00985 -0.01937,0.00717 -0.249319,0.1073227 -0.60436,0.2627876 -0.355041,0.1554648 -0.835274,0.3662257 -1.353848,0.5950299 -1.03715,0.4576082 -1.966396,0.8680484 -2.063945,0.9096493 -0.02636,0.011476 -0.05063,0.022419 -0.07308,0.033172 -0.02245,0.010753 -0.04322,0.02124 -0.0622,0.031618 -0.01897,0.010378 -0.03642,0.020749 -0.05235,0.031099 -0.01593,0.01035 -0.03022,0.020948 -0.04354,0.031617 -0.01331,0.010669 -0.02567,0.021318 -0.0368,0.032654 -0.01113,0.011336 -0.0212,0.023414 -0.03058,0.035764 -0.0094,0.01235 -0.01785,0.025162 -0.02592,0.038874 -0.0081,0.013712 -0.01563,0.028118 -0.02281,0.043539 -0.0083,0.016856 -0.01477,0.031897 -0.02021,0.04613 -0.0054,0.014233 -0.0098,0.027927 -0.01296,0.041466 -0.0031,0.013538 -0.0054,0.027213 -0.0067,0.041984 -0.0013,0.014771 -0.0016,0.030272 -0.0016,0.048204 0,0.00825 0.0013,0.022259 0.0041,0.042502 0.0028,0.020243 0.0071,0.046727 0.01296,0.079821 0.01166,0.066189 0.02968,0.1592253 0.05442,0.2819654 0.02475,0.1227401 0.0561,0.2751538 0.09537,0.4613037 0.03927,0.1861499 0.08627,0.4059929 0.141501,0.6624113 0.169272,0.7904142 0.533791,2.4915119 0.810651,3.7811351 0.07459,0.3493036 0.143755,0.6724036 0.206291,0.9609636 0.06253,0.28856 0.118024,0.542903 0.164825,0.754672 0.0468,0.211769 0.08508,0.380729 0.112475,0.499659 0.0137,0.05947 0.0245,0.1067 0.03265,0.139946 0.0082,0.03325 0.0134,0.05251 0.01555,0.05753 0.0043,0.009 0.01058,0.01946 0.01762,0.03058 0.007,0.01112 0.01506,0.02289 0.02384,0.03473 0.0088,0.01183 0.01792,0.02361 0.02747,0.03473 0.0095,0.01112 0.0197,0.02162 0.02903,0.03058 0.009,0.0086 0.04725,0.04197 0.109365,0.09433 0.06211,0.05236 0.14803,0.123689 0.250866,0.2094 0.205673,0.171424 0.480294,0.399247 0.774369,0.641679 0.588149,0.48343 1.151564,0.949924 1.254849,1.034564 0.02815,0.02331 0.05408,0.04406 0.07775,0.06272 0.02367,0.01865 0.04512,0.03478 0.06531,0.04924 0.02018,0.01446 0.03933,0.02712 0.05701,0.03784 0.01769,0.01072 0.03409,0.01951 0.05028,0.02695 0.01618,0.0074 0.03202,0.01352 0.04769,0.01814 0.01567,0.0046 0.03102,0.0081 0.04717,0.01037 0.01615,0.0023 0.03317,0.0033 0.0508,0.0036 0.01762,3.64e-4 0.03589,3.8e-5 0.05598,-10e-4 0.02008,-0.0014 0.03799,-0.003 0.05442,-0.0052 0.01643,-0.0022 0.03154,-0.0049 0.04561,-0.0083 0.01408,-0.0034 0.02741,-0.0079 0.04043,-0.01296 0.01302,-0.0051 0.0256,-0.01097 0.03887,-0.01814 0.005,-0.0027 0.01911,-0.01277 0.04147,-0.02954 0.02236,-0.01677 0.0529,-0.0401 0.09071,-0.06945 0.0756,-0.0587 0.180358,-0.141051 0.306326,-0.241018 0.125968,-0.09997 0.273216,-0.217583 0.434351,-0.346756 0.161136,-0.129173 0.336176,-0.26989 0.517282,-0.41621 0.29264,-0.236335 0.521838,-0.422004 0.701286,-0.568077 0.179447,-0.146073 0.309272,-0.252896 0.40377,-0.332242 0.04725,-0.03967 0.08532,-0.07211 0.116622,-0.09952 0.03131,-0.0274 0.05574,-0.04982 0.07464,-0.0679 0.0189,-0.01808 0.03249,-0.03185 0.0425,-0.04354 0.01001,-0.01169 0.01659,-0.0213 0.02125,-0.02954 0.0045,-0.0079 0.0088,-0.0169 0.01348,-0.02851 0.0047,-0.01161 0.0097,-0.02563 0.01503,-0.04302 0.0054,-0.01739 0.01108,-0.038 0.01762,-0.06324 0.0065,-0.02524 0.01408,-0.05504 0.02229,-0.09019 0.01641,-0.07029 0.03622,-0.162266 0.0622,-0.284557 0.02598,-0.122292 0.05799,-0.275179 0.09744,-0.465969 0.240998,-1.173428 0.199489,-0.972327 0.637014,-3.0953997 0.209438,-1.0185011 0.46196,-2.2452778 0.562375,-2.7258382 0.02905,-0.1412991 0.05445,-0.2683974 0.07671,-0.3804459 0.02226,-0.1120486 0.04134,-0.2087801 0.0565,-0.2897402 0.01515,-0.08096 0.02648,-0.1458176 0.03421,-0.1938512 0.0039,-0.024017 0.0069,-0.044166 0.0088,-0.059607 0.002,-0.015441 0.0026,-0.026538 0.0026,-0.033172 -1.79e-4,-0.014345 -0.0012,-0.02851 -0.0031,-0.04302 -0.0019,-0.01451 -0.0043,-0.02907 -0.0078,-0.043539 -0.0035,-0.014468 -0.008,-0.028801 -0.01296,-0.04302 -0.005,-0.014219 -0.01022,-0.028221 -0.01659,-0.041984 -0.0064,-0.013762 -0.01359,-0.02733 -0.02125,-0.040429 -0.0077,-0.013098 -0.01602,-0.026129 -0.02488,-0.038356 -0.0089,-0.012227 -0.01804,-0.023579 -0.02799,-0.034727 -0.0099,-0.011148 -0.02068,-0.021755 -0.03162,-0.031617 -0.0068,-0.0061 -0.01449,-0.012269 -0.02332,-0.01866 -0.0088,-0.00639 -0.01892,-0.01312 -0.03058,-0.020214 -0.01165,-0.00709 -0.02462,-0.0146 -0.03991,-0.022806 -0.01529,-0.00821 -0.03263,-0.017225 -0.05235,-0.026953 -0.03945,-0.019456 -0.08879,-0.041978 -0.150831,-0.069973 C 44.46785,4.1315124 44.392924,4.0982432 44.301833,4.0584356 44.04936,3.9479784 43.108299,3.5348626 42.208862,3.1389382 41.759144,2.9409761 41.345245,2.7592116 41.040053,2.6258027 40.734861,2.4923937 40.538469,2.4072306 40.524844,2.4029256 c -0.0088,-0.00305 -0.018,-0.00562 -0.02799,-0.00777 -0.01,-0.00216 -0.02071,-0.00391 -0.03162,-0.00518 -0.0109,-0.00128 -0.02216,-0.00218 -0.03369,-0.00259 -0.01154,-4.091e-4 -0.02337,-4.483e-4 -0.03525,0 z" />
    <path
       id="path6188-7-5"
       style="fill:#41526a;fill-opacity:1;stroke-linecap:round;stroke-linejoin:round"
       d="m 40.408741,2.187305 c -0.01309,0 -0.0264,5.04e-5 -0.03939,0.00104 -0.01299,9.862e-4 -0.02567,0.00269 -0.03836,0.00466 -0.01269,0.00197 -0.02514,0.0043 -0.03732,0.00726 -0.01218,0.00296 -0.02429,0.00642 -0.03576,0.010366 -0.01937,0.00717 -0.289805,0.1251215 -0.709578,0.3089179 -0.419774,0.1837965 -0.988913,0.4335924 -1.605752,0.7054318 -0.516423,0.2277282 -0.915379,0.4036109 -1.224269,0.5406064 -0.30889,0.1369956 -0.527729,0.2349596 -0.68418,0.3063264 -0.07823,0.035683 -0.140814,0.064649 -0.19126,0.088633 -0.05045,0.023983 -0.08862,0.043149 -0.118177,0.05857 -0.02955,0.015421 -0.05028,0.027322 -0.06583,0.037319 -0.01555,0.01 -0.02578,0.018205 -0.03421,0.025916 -0.01327,0.012014 -0.02579,0.024145 -0.03732,0.036801 -0.01153,0.012656 -0.02232,0.025549 -0.03214,0.038874 -0.0098,0.013325 -0.01883,0.026924 -0.02695,0.040947 -0.0081,0.014023 -0.01532,0.02879 -0.02177,0.043539 -0.0065,0.014749 -0.01178,0.029592 -0.01659,0.045094 -0.0048,0.015502 -0.0087,0.031401 -0.01192,0.047685 -0.0032,0.016284 -0.0057,0.033183 -0.0073,0.050277 -0.0016,0.017094 -0.0026,0.034419 -0.0026,0.05235 0,0.010938 0.0029,0.032737 0.0088,0.068936 0.0059,0.036199 0.01468,0.086819 0.02799,0.1554957 0.01331,0.068677 0.03116,0.1554516 0.05339,0.2638242 0.02222,0.1083726 0.04926,0.2381184 0.08189,0.3934039 0.06527,0.3105711 0.152563,0.7226524 0.268489,1.2641794 0.115927,0.541527 0.26042,1.2124722 0.439016,2.0426941 0.241715,1.1217857 0.464131,2.1490282 0.628203,2.8999932 0.08204,0.375482 0.149715,0.681963 0.197479,0.896691 0.02388,0.107364 0.04252,0.191679 0.05598,0.250348 0.01346,0.05867 0.02153,0.09159 0.02332,0.09589 0.0079,0.01722 0.01861,0.03733 0.02954,0.05598 0.01094,0.01865 0.02197,0.03621 0.03058,0.04769 0.0038,0.0048 0.01798,0.01761 0.04146,0.03835 0.02348,0.02075 0.05635,0.04938 0.09693,0.08397 0.08116,0.06918 0.194238,0.163582 0.328096,0.275227 0.133857,0.111645 0.288428,0.240425 0.454047,0.377336 0.165618,0.136912 0.341874,0.28212 0.518319,0.427095 0.176444,0.144975 0.353019,0.289704 0.519355,0.42554 0.166336,0.135835 0.322383,0.262659 0.457675,0.372153 0.135293,0.109493 0.249966,0.201504 0.333279,0.267452 0.04166,0.03297 0.07582,0.0594 0.100554,0.07827 0.02474,0.01886 0.03989,0.03005 0.04509,0.03265 0.01685,0.0082 0.03129,0.01504 0.04509,0.02022 0.01381,0.0052 0.02712,0.0091 0.04147,0.01192 0.01434,0.0028 0.02973,0.0041 0.0482,0.0052 0.01847,0.0011 0.04016,0.0016 0.06634,0.0016 0.0269,0 0.04866,-4.37e-4 0.06738,-0.0016 0.01872,-0.0011 0.03411,-0.0027 0.04872,-0.0057 0.01461,-0.003 0.02843,-0.0077 0.04302,-0.01348 0.01459,-0.0058 0.03007,-0.01295 0.04872,-0.02229 0.0062,-0.0031 0.02249,-0.01455 0.04769,-0.03317 0.0252,-0.01862 0.05938,-0.04462 0.101072,-0.07671 0.08339,-0.06418 0.197485,-0.153252 0.331724,-0.259159 0.134239,-0.105907 0.2886,-0.228249 0.453529,-0.359713 0.164929,-0.131465 0.340269,-0.271731 0.515727,-0.412582 0.175458,-0.140851 0.350938,-0.282664 0.516764,-0.416728 0.165826,-0.134065 0.322162,-0.260528 0.458193,-0.371635 0.136032,-0.111107 0.251868,-0.206878 0.337944,-0.278855 0.04304,-0.03599 0.07845,-0.06598 0.105219,-0.08915 0.02677,-0.02317 0.04489,-0.03935 0.05287,-0.04769 0.01147,-0.01183 0.02325,-0.02473 0.03421,-0.03784 0.01096,-0.01311 0.02117,-0.02639 0.03058,-0.03939 0.0094,-0.013 0.01752,-0.02582 0.02436,-0.03732 0.0068,-0.0115 0.01232,-0.02197 0.01555,-0.03058 0.0032,-0.0086 0.03038,-0.132103 0.07619,-0.34831 0.04581,-0.216207 0.110288,-0.524739 0.189186,-0.902911 0.157796,-0.756345 0.372289,-1.7913699 0.605396,-2.9217627 0.232749,-1.1293168 0.403721,-1.9549553 0.527649,-2.5610128 0.06196,-0.3030287 0.111903,-0.5509971 0.152385,-0.7546721 0.04048,-0.203675 0.07152,-0.3629608 0.09433,-0.4882562 0.01141,-0.062648 0.0208,-0.1168033 0.02851,-0.1637887 0.0077,-0.046985 0.01366,-0.086823 0.01814,-0.1207683 0.0045,-0.033945 0.0071,-0.061996 0.0088,-0.085523 0.0017,-0.023526 0.0026,-0.042323 0.0021,-0.058052 -5.32e-4,-0.015729 -0.0023,-0.02832 -0.0047,-0.038874 -0.0023,-0.010554 -0.0052,-0.01947 -0.0088,-0.027471 -0.0073,-0.016001 -0.01675,-0.029278 -0.02643,-0.050795 -0.0061,-0.013628 -0.01343,-0.027092 -0.02125,-0.040429 -0.0078,-0.013336 -0.0165,-0.026571 -0.02592,-0.039392 -0.0094,-0.012821 -0.01919,-0.025238 -0.03006,-0.037319 -0.01087,-0.012081 -0.02253,-0.02361 -0.03473,-0.034727 -0.0086,-0.00771 -0.01904,-0.015919 -0.03473,-0.025916 -0.01568,-0.01 -0.0367,-0.021898 -0.06635,-0.037319 -0.02964,-0.015421 -0.06769,-0.034587 -0.118176,-0.05857 -0.05049,-0.023983 -0.113553,-0.052949 -0.191778,-0.088633 C 44.625345,4.0005451 44.406844,3.9025811 44.098133,3.7655855 43.789423,3.62859 43.390447,3.4527073 42.874383,3.2249791 42.257544,2.9531382 41.688743,2.7033441 41.26915,2.5195473 40.849556,2.3357505 40.579654,2.2178019 40.559571,2.2106294 c -0.01148,-0.00394 -0.02358,-0.00741 -0.03576,-0.010366 -0.01218,-0.00296 -0.02463,-0.00528 -0.03732,-0.00726 -0.01269,-0.00197 -0.02588,-0.00368 -0.03887,-0.00466 -0.01299,-9.863e-4 -0.02578,-0.00104 -0.03887,-0.00104 z m -0.01244,0.2000711 c 0.01188,-4.483e-4 0.02371,-4.091e-4 0.03525,0 0.01153,4.09e-4 0.02279,0.00131 0.03369,0.00259 0.01091,0.00128 0.02163,0.00303 0.03162,0.00518 0.01,0.00216 0.0192,0.00473 0.02799,0.00777 0.01362,0.00431 0.210017,0.089468 0.515209,0.2228771 0.305192,0.1334089 0.719091,0.3151734 1.168809,0.5131355 0.899437,0.3959244 1.840498,0.8090402 2.092971,0.9194974 0.09109,0.039808 0.166017,0.073077 0.22806,0.1010722 0.06204,0.027995 0.111382,0.050517 0.150831,0.069973 0.01972,0.00973 0.03706,0.018746 0.05235,0.026953 0.01529,0.00821 0.02826,0.015712 0.03991,0.022806 0.01166,0.00709 0.02175,0.013824 0.03058,0.020214 0.0088,0.00639 0.01651,0.012563 0.02332,0.01866 0.01094,0.00986 0.02167,0.020469 0.03162,0.031617 0.0099,0.011148 0.01913,0.0225 0.02799,0.034727 0.0089,0.012227 0.01722,0.025257 0.02488,0.038356 0.0077,0.013098 0.01489,0.026667 0.02125,0.040429 0.0064,0.013762 0.01162,0.027765 0.01659,0.041984 0.005,0.014219 0.0095,0.028552 0.01296,0.04302 0.0035,0.014468 0.0059,0.029028 0.0078,0.043539 0.0019,0.01451 0.0029,0.028675 0.0031,0.04302 0,0.00663 -6.38e-4,0.017732 -0.0026,0.033172 -0.002,0.015441 -0.0049,0.03559 -0.0088,0.059607 -0.0077,0.048034 -0.01906,0.1128911 -0.03421,0.1938512 -0.01515,0.08096 -0.03424,0.1776916 -0.0565,0.2897402 -0.02226,0.1120485 -0.04766,0.2391468 -0.07671,0.3804459 -0.100415,0.4805604 -0.352937,1.7073371 -0.562375,2.7258382 -0.437525,2.1230722 -0.396016,1.9219712 -0.637014,3.0953992 -0.03945,0.19079 -0.07147,0.343677 -0.09744,0.465969 -0.02598,0.122291 -0.04579,0.214266 -0.0622,0.284557 -0.0082,0.03514 -0.01575,0.06495 -0.02229,0.09019 -0.0065,0.02524 -0.01226,0.04584 -0.01762,0.06324 -0.0054,0.01739 -0.01035,0.03141 -0.01503,0.04302 -0.0047,0.01161 -0.009,0.02062 -0.01348,0.02851 -0.0047,0.0082 -0.01124,0.01785 -0.02125,0.02954 -0.01001,0.01169 -0.02361,0.02546 -0.0425,0.04354 -0.0189,0.01808 -0.04333,0.04049 -0.07464,0.0679 -0.03131,0.0274 -0.06937,0.05984 -0.116622,0.09952 -0.0945,0.07935 -0.224323,0.186169 -0.40377,0.332242 -0.179448,0.146073 -0.408646,0.331742 -0.701286,0.568077 -0.181106,0.14632 -0.356146,0.287037 -0.517282,0.41621 -0.161135,0.129173 -0.308383,0.246788 -0.434351,0.346756 -0.125968,0.09997 -0.230723,0.182315 -0.306326,0.241018 -0.0378,0.02935 -0.06835,0.05268 -0.09071,0.06945 -0.02236,0.01677 -0.03645,0.02685 -0.04147,0.02954 -0.01327,0.0072 -0.02585,0.01308 -0.03887,0.01814 -0.01302,0.0051 -0.02635,0.0096 -0.04043,0.01296 -0.01408,0.0034 -0.02918,0.0061 -0.04561,0.0083 -0.01643,0.0022 -0.03434,0.0037 -0.05442,0.0052 -0.02008,0.0011 -0.03836,0.0014 -0.05598,10e-4 -0.01762,-3.65e-4 -0.03465,-0.0014 -0.0508,-0.0036 -0.01615,-0.0023 -0.0315,-0.0057 -0.04717,-0.01037 -0.01567,-0.0046 -0.0315,-0.0107 -0.04769,-0.01814 -0.01618,-0.0074 -0.03259,-0.01623 -0.05028,-0.02695 -0.01769,-0.01072 -0.03683,-0.02338 -0.05701,-0.03784 -0.02018,-0.01446 -0.04164,-0.03059 -0.06531,-0.04924 -0.02367,-0.01865 -0.0496,-0.03941 -0.07775,-0.06272 -0.103285,-0.08464 -0.6667,-0.551134 -1.254849,-1.034564 -0.294075,-0.242432 -0.568696,-0.470255 -0.774369,-0.641679 -0.102836,-0.08571 -0.188756,-0.157041 -0.250866,-0.2094 -0.06211,-0.05236 -0.100399,-0.08573 -0.109365,-0.09433 -0.0093,-0.009 -0.01948,-0.01946 -0.02903,-0.03058 -0.0095,-0.01112 -0.01869,-0.02289 -0.02747,-0.03473 -0.0088,-0.01183 -0.0168,-0.02361 -0.02384,-0.03473 -0.007,-0.01112 -0.01332,-0.02162 -0.01762,-0.03058 -0.0022,-0.005 -0.0074,-0.02429 -0.01555,-0.05753 -0.0082,-0.03325 -0.01896,-0.08048 -0.03265,-0.139946 -0.02739,-0.11893 -0.06567,-0.28789 -0.112475,-0.499659 -0.0468,-0.211769 -0.10229,-0.466112 -0.164825,-0.754672 -0.06254,-0.28856 -0.131697,-0.61166 -0.206291,-0.9609631 C 36.689208,8.6558765 36.324689,6.9547788 36.155417,6.1643646 36.100189,5.9079462 36.053186,5.6881032 36.013916,5.5019533 35.974646,5.3158034 35.943291,5.1633897 35.918546,5.0406496 35.8938,4.9179095 35.875778,4.8248733 35.864122,4.7586842 c -0.0058,-0.033095 -0.01013,-0.059578 -0.01296,-0.079821 -0.0028,-0.020243 -0.0041,-0.034254 -0.0041,-0.042502 0,-0.017931 2.33e-4,-0.033433 0.0016,-0.048204 0.0013,-0.014771 0.0036,-0.028446 0.0067,-0.041984 0.0031,-0.013538 0.0075,-0.027232 0.01296,-0.041466 0.0054,-0.014233 0.01196,-0.029275 0.02021,-0.04613 0.0072,-0.015421 0.01474,-0.029827 0.02281,-0.043539 0.0081,-0.013712 0.01654,-0.026524 0.02592,-0.038874 0.0094,-0.01235 0.01945,-0.024428 0.03058,-0.035764 0.01113,-0.011336 0.02349,-0.021985 0.0368,-0.032654 0.01331,-0.010669 0.02761,-0.021268 0.04354,-0.031617 0.01593,-0.01035 0.03338,-0.020721 0.05235,-0.031099 0.01897,-0.010378 0.03975,-0.020864 0.0622,-0.031618 0.02245,-0.010753 0.04672,-0.021696 0.07308,-0.033172 0.09755,-0.041601 1.026795,-0.4520411 2.063945,-0.9096493 0.518574,-0.2288042 0.998807,-0.4395651 1.353848,-0.5950299 0.355041,-0.1554649 0.584994,-0.2556151 0.60436,-0.2627876 0.0104,-0.00377 0.02145,-0.00689 0.03265,-0.00985 0.0112,-0.00295 0.0225,-0.00565 0.03421,-0.00777 0.01171,-0.00213 0.02383,-0.00389 0.03576,-0.00518 0.01194,-0.00129 0.02388,-0.00214 0.03576,-0.00259 z" />
  </g>
  <g
     id="g8181-0-0"
     transform="translate(-18.221047,-6.9796111)">
    <path
       d="m 26.332265,10.86957 c -0.167838,0.29264 -0.374407,0.655571 -0.461912,0.806194 l -0.156362,0.272557 0.08464,0.788981 c 0.04734,0.433222 0.197963,1.843345 0.33711,3.132969 0.137713,1.289625 0.252474,2.345424 0.253908,2.346858 0.0029,0.0014 0.06742,0.05308 0.144886,0.113327 l 0.139147,0.111891 0.140582,-0.111891 c 0.07603,-0.06025 0.140582,-0.111892 0.142017,-0.113327 0.0029,-0.0014 0.183617,-1.806047 0.456174,-4.561741 0.0832,-0.844926 0.154927,-1.575092 0.160665,-1.623865 l 0.0086,-0.08751 -0.391621,-0.679958 c -0.533638,-0.923825 -0.536507,-0.929563 -0.545114,-0.929563 -0.0043,0 -0.144886,0.240998 -0.312723,0.535073 z"
       style="fill:#41526a;fill-opacity:1;stroke:none;stroke-width:0.00143451"
       id="path314-9-9-3" />
    <path
       d="m 24.848981,18.366318 c -0.08607,0.156362 -0.154927,0.29264 -0.154927,0.302682 0,0.01004 0.07173,0.150624 0.159231,0.309854 0.140582,0.259646 0.1621,0.291206 0.189355,0.285468 0.01721,-0.0043 0.302682,-0.05164 0.632619,-0.106154 0.355759,-0.06025 0.608232,-0.107588 0.618274,-0.119064 0.01004,-0.01004 0.07029,-0.09755 0.136278,-0.193659 l 0.11763,-0.17501 -0.13054,-0.186487 c -0.10185,-0.143451 -0.139148,-0.187921 -0.170707,-0.193659 -0.09468,-0.02008 -1.202119,-0.209438 -1.220768,-0.209438 -0.01434,0.0014 -0.08033,0.106154 -0.176445,0.285467 z"
       id="path467-3-3-3-6"
       style="fill:#41526a;fill-opacity:1;stroke:none;stroke-width:0.00143451" />
    <path
       d="m 27.713698,18.179832 c -0.299813,0.05308 -0.569501,0.10185 -0.598191,0.107588 -0.04877,0.0086 -0.06599,0.02726 -0.185052,0.196528 l -0.13054,0.186487 0.11763,0.17501 c 0.06599,0.09611 0.126237,0.182183 0.134844,0.192224 0.01148,0.01291 1.037151,0.193659 1.260934,0.223784 0.02008,0.0014 0.06168,-0.06312 0.187921,-0.29264 l 0.1621,-0.296944 -0.159231,-0.295509 c -0.153493,-0.284033 -0.160665,-0.294075 -0.202266,-0.294075 -0.02295,0.0014 -0.288336,0.04591 -0.588149,0.09755 z"
       id="path469-6-6-6-1"
       style="fill:#41526a;fill-opacity:1;stroke:none;stroke-width:0.00143451" />
    <path
       d="m 26.523055,19.029062 c -0.07029,0.06312 -0.130541,0.119064 -0.131975,0.124802 -0.0057,0.01435 -0.160665,1.200685 -0.157796,1.20212 0.0014,0 0.100415,0.06886 0.220914,0.152058 l 0.218046,0.152058 0.21948,-0.150624 c 0.120499,-0.08464 0.220914,-0.153492 0.222349,-0.153492 0.0014,-0.0014 -0.03443,-0.271123 -0.0789,-0.602494 l -0.08177,-0.599626 -0.129106,-0.120498 c -0.07173,-0.06599 -0.139148,-0.119065 -0.150624,-0.119065 -0.01148,0 -0.0789,0.05164 -0.150623,0.114761 z"
       id="path471-0-0-0-0"
       style="fill:#41526a;fill-opacity:1;stroke:none;stroke-width:0.00143451" />
  </g>
</svg>
