<svg width="64" height="64" version="1.1" viewBox="0 0 16.933 16.933" xmlns="http://www.w3.org/2000/svg">
 <defs>
  <filter id="filter1178" x="-.048" y="-.048" width="1.096" height="1.096" color-interpolation-filters="sRGB">
   <feGaussianBlur stdDeviation="0.30691955"/>
  </filter>
  <linearGradient id="linearGradient1340" x1="8.5011" x2="8.489" y1="16.007" y2=".79375" gradientUnits="userSpaceOnUse">
   <stop stop-color="#2e3440" offset="0"/>
   <stop stop-color="#4c566a" offset="1"/>
  </linearGradient>
  <linearGradient id="d" x1="31.552" x2="32.29" y1="60.192" y2="3.92" gradientTransform="matrix(.28021 0 0 .28021 -.50013 -.66016)" gradientUnits="userSpaceOnUse">
   <stop stop-color="#d08770" offset="0"/>
   <stop stop-color="#eac57b" offset="1"/>
  </linearGradient>
 </defs>
 <g stroke-linecap="round" stroke-linejoin="round">
  <rect transform="matrix(.99138 0 0 1 .072989 .0019055)" x=".79375" y=".90545" width="15.346" height="15.346" rx="3.0526" ry="3.0526" fill="#000000" filter="url(#filter1178)" opacity=".15" stroke-width="1.2489" style="mix-blend-mode:normal"/>
  <rect x=".92604" y=".92604" width="15.081" height="15.081" rx="3" ry="3" fill="url(#linearGradient1340)" stroke-width="1.2274"/>
  <rect x=".01215" y=".0060174" width="16.924" height="16.927" fill="none" opacity=".15" stroke-width="1.052"/>
 </g>
 <path d="m8.4666 3.1154c-0.63131 0-1.2613 0.011209-1.7642 0.033625-0.25135 0.012049-0.46963 0.02634-0.65009 0.045395-0.090228 0.00952-0.17009 0.020455-0.2491 0.035306-0.078459 0.014851-0.13786 0.011209-0.29562 0.10003-0.15804 0.088266-0.18494 0.14038-0.23818 0.19951a2.8859 2.8859 0 0 0-0.15552 0.19167 10.635 10.635 0 0 0-0.36512 0.52371 37.708 37.708 0 0 0-0.91292 1.466 37.531 37.531 0 0 0-0.85072 1.5008 10.558 10.558 0 0 0-0.28525 0.56938c-0.036428 0.080421-0.067251 0.15271-0.09331 0.22641-0.02606 0.073976-0.059685 0.12245-0.059685 0.29954s0.033625 0.22557 0.059685 0.29926c0.02578 0.073695 0.056883 0.14571 0.09331 0.22641a10.611 10.611 0 0 0 0.28497 0.56938c0.2309 0.43432 0.53576 0.97008 0.85128 1.5006a43.189 43.189 0 0 0 0.59517 0.96924l-0.82241 2.6284 2.0629-1.1432c0.050438 0.01485 0.088547 0.01849 0.13226 0.0269 0.078179 0.01513 0.15832 0.02578 0.24826 0.0353 0.18045 0.01906 0.39874 0.03335 0.65009 0.04484 0.50298 0.02326 1.1328 0.03446 1.7642 0.03446 0.63137 0 1.2609-0.0112 1.7637-0.03419a11.293 11.293 0 0 0 0.65064-0.04484c0.08967-0.0098 0.17009-0.02074 0.24883-0.03558 0.07874-0.01485 0.13842-0.01121 0.29646-0.10003 0.15776-0.08826 0.18465-0.14038 0.23734-0.19923a2.984 2.984 0 0 0 0.1558-0.19194 10.623 10.623 0 0 0 0.36512-0.52372 37.711 37.711 0 0 0 0.91292-1.466 37.534 37.534 0 0 0 0.85072-1.5008 10.325 10.325 0 0 0 0.2847-0.56938 2.8379 2.8379 0 0 0 0.09387-0.22641c0.02606-0.073695 0.05968-0.12245 0.05968-0.29926s-0.03362-0.22557-0.05968-0.29954a2.8374 2.8374 0 0 0-0.09359-0.2264 10.522 10.522 0 0 0-0.2847-0.56938 37.534 37.534 0 0 0-0.851-1.5006 37.714 37.714 0 0 0-0.91292-1.466 10.638 10.638 0 0 0-0.36512-0.52399 2.8864 2.8864 0 0 0-0.1558-0.19167c-0.052679-0.058844-0.079579-0.11125-0.2379-0.19979-0.15776-0.088827-0.21716-0.084904-0.29562-0.10004a3.0406 3.0406 0 0 0-0.24938-0.034747 11.292 11.292 0 0 0-0.65009-0.045114 40.242 40.242 0 0 0-1.7639-0.034466zm0 1.1808c0.61618 0 1.2334 0.011489 1.7065 0.033065 0.06809 0.00336 0.1048 0.00841 0.16645 0.012049l-1.8836 2.8038-1.9068-2.8013c0.075657-0.00504 0.12441-0.010363 0.21128-0.014571 0.47271-0.021576 1.09-0.032784 1.7062-0.032784zm2.9781 1.0312a41.157 41.157 0 0 1 0.59882 0.9743 36.708 36.708 0 0 1 0.82382 1.4507c0.10844 0.20455 0.19671 0.38109 0.25219 0.50438 0.01065 0.022416 0.01317 0.030823 0.02101 0.049877-0.0076 0.019054-0.01039 0.02718-0.02074 0.050438-0.05604 0.12329-0.14403 0.29983-0.25219 0.50382a36.71 36.71 0 0 1-0.8241 1.4509 39.635 39.635 0 0 1-0.68092 1.1026l-2.0166-2.9629zm-5.978 0.033625 2.1075 3.0963-1.9951 2.9702a39.479 39.479 0 0 1-0.68931-1.1158 36.71 36.71 0 0 1-0.8241-1.4507 9.699 9.699 0 0 1-0.25219-0.50409c-0.010363-0.022977-0.01317-0.031103-0.021016-0.050438 0.00757-0.018774 0.010648-0.0269 0.020735-0.050157 0.056043-0.12329 0.14403-0.29983 0.25219-0.50382 0.21744-0.40827 0.51559-0.9331 0.8241-1.4509a41.63 41.63 0 0 1 0.57724-0.94039zm2.9974 4.4026 1.7155 2.5199-0.0067 8.4e-4c-0.47299 0.02158-1.0903 0.03278-1.7065 0.03278-0.61198 0-1.2242-0.01121-1.6959-0.03223z" color="#000000" display="block" fill="url(#d)" font-weight="400" overflow="visible" stroke-width=".28031" style="font-feature-settings:normal;font-variant-alternates:normal;font-variant-caps:normal;font-variant-ligatures:normal;font-variant-numeric:normal;font-variant-position:normal;isolation:auto;mix-blend-mode:normal;paint-order:fill markers stroke;shape-padding:0;text-decoration-color:#000000;text-decoration-line:none;text-decoration-style:solid;text-indent:0;text-orientation:mixed;text-transform:none;white-space:normal"/>
</svg>
