<svg id="svg20" width="64" height="64" version="1.1" viewBox="0 0 16.933 16.933" xmlns="http://www.w3.org/2000/svg" xmlns:xlink="http://www.w3.org/1999/xlink">
 <defs id="defs10">
  <filter id="filter1178" x="-.04799993" y="-.04799993" width="1.0959999" height="1.0959999" color-interpolation-filters="sRGB">
   <feGaussianBlur id="feGaussianBlur2" stdDeviation="0.30691955"/>
  </filter>
  <linearGradient id="linearGradient1340" x1="8.5011" x2="8.489" y1="16.007" y2=".79375" gradientUnits="userSpaceOnUse">
   <stop id="stop5" stop-color="#2e3440" offset="0"/>
   <stop id="stop7" stop-color="#4c566a" offset="1"/>
  </linearGradient>
  <linearGradient id="linearGradient1113" x1="8.4691095" x2="11.510417" y1="3.1167259" y2="12.903059" gradientTransform="translate(4.3944859e-6)" gradientUnits="userSpaceOnUse">
   <stop id="stop1107" style="stop-color:#a3be8c" offset="0"/>
   <stop id="stop1109" style="stop-color:#8fbcbb" offset="1"/>
  </linearGradient>
  <filter id="filter1915" x="-.02307086" y="-.021604829" width="1.0461417" height="1.0432097" style="color-interpolation-filters:sRGB">
   <feGaussianBlur id="feGaussianBlur1917" stdDeviation="0.10074736"/>
  </filter>
  <filter id="filter1178-6" x="-.04799993" y="-.04799993" width="1.0959999" height="1.0959999" color-interpolation-filters="sRGB">
   <feGaussianBlur id="feGaussianBlur1999" stdDeviation="0.30691955"/>
  </filter>
 </defs>
 <g id="g2015" transform="translate(-.00764989 -.03053775)" stroke-linecap="round" stroke-linejoin="round">
  <rect id="rect2009" transform="matrix(.99138 0 0 1 .072989 .1117)" x=".79374999" y=".79374999" width="15.346" height="15.346" rx="3.0525999" ry="3.0525999" fill="#2e3440" filter="url(#filter1178)" opacity=".2" stroke-width="1.2489" style="filter:url(#filter1178-6)"/>
  <rect id="rect2011" x=".92603999" y=".92603999" width="15.081" height="15.081" rx="3" ry="3" fill="url(#linearGradient1340)" stroke-width="1.2274" style="fill:url(#linearGradient1340)"/>
  <rect id="rect2013" x=".01215" y=".0060174" width="16.924" height="16.927" fill="none" opacity=".15" stroke-width="1.052"/>
 </g>
 <path id="path12-5" d="m4.4771634 12.198072v-1.864254h3.7380226v3.728506h-3.7380226zm4.2579456 0.932123c-0.0035-0.512667-0.0035-1.351582 0-1.864253l0.0064-0.932124h3.725372v3.728506h-3.725369zm-0.101419-4.1470111v-0.9321288h1.864255v1.8642538h-1.864255zm-4.1565266-1.0355858v-1.863084l0.932921-0.0071c0.513106-4e-3 1.354158-4e-3 1.869009-1.4e-5l0.9360926 0.0071v3.7261938h-3.7380226zm6.3822176 0.693169v-0.960658h-1.921323v-1.807187h3.738024v3.7285088h-1.816701zm-7.6327177-2.837498c0.03933-0.02637 0.391563-0.21016 0.946132-0.493663 0.3164951-0.161795 0.7006411-0.359021 0.8536571-0.43827l0.27821-0.144096v-0.24358c0-0.133972 3e-3 -0.494682 0.0063-0.801576l0.0063-0.557987h1.908696v0.280589c0 0.154322 0.0025 0.280589 0.0052 0.280589 0.0069 0 0.9443916-0.428654 1.1086016-0.506909l0.129353-0.06164 0.0052-0.120569c3e-3 -0.06631 0.0074-0.122758 0.01008-0.12543 0.0025-0.0025 0.179669 0.08481 0.393328 0.194407 0.432134 0.221651 1.064191 0.544005 1.943604 0.99124 1.354174 0.688686 2.8479 1.454634 2.884285 1.478993 0.02894 0.01936-0.486897 0.02365-2.862886 0.02365l-2.266114 1.5e-5v0.25681h-2.6843676c-2.2294261 0-2.6811841-2e-3 -2.6655981-0.01255z" style="fill:#2e3440;filter:url(#filter1915);stroke-width:.00951151"/>
 <path id="path12" d="m4.4771634 12.198072v-1.864254h3.7380226v3.728507h-3.7380226zm4.2579456 0.932124c-0.0035-0.512668-0.0035-1.351582 0-1.864254l0.0064-0.932124h3.725372v3.728507h-3.725369zm-0.101419-4.1470121v-0.9321288h1.864255v1.8642538h-1.864255zm-4.1565266-1.0355858v-1.863084l0.932921-0.0071c0.513106-4e-3 1.354158-4e-3 1.869009-1.4e-5l0.9360926 0.0071v3.7261938h-3.7380226zm6.3822176 0.693169v-0.960658h-1.921323v-1.807187h3.738024v3.7285088h-1.816701zm-7.6327177-2.837498c0.03933-0.02637 0.391563-0.21016 0.946132-0.493663 0.3164951-0.161795 0.7006411-0.359021 0.8536571-0.43827l0.27821-0.144096v-0.24358c0-0.133972 3e-3 -0.494682 0.0063-0.801576l0.0063-0.557987h1.908696v0.280589c0 0.154322 0.0025 0.280589 0.0052 0.280589 0.0069 0 0.9443916-0.428654 1.1086016-0.506909l0.129353-0.06164 0.0052-0.120569c3e-3 -0.06631 0.0074-0.122758 0.01008-0.12543 0.0025-0.0025 0.179669 0.08481 0.393328 0.194407 0.432134 0.221651 1.064191 0.544005 1.943604 0.99124 1.354174 0.688686 2.8479 1.454634 2.884285 1.478993 0.02894 0.01936-0.486897 0.02365-2.862886 0.02365l-2.266114 1.5e-5v0.25681h-2.6843676c-2.2294261 0-2.6811841-2e-3 -2.6655981-0.01255z" style="fill:url(#linearGradient1113);stroke-width:.00951151"/>
</svg>
