<?xml version="1.0" encoding="UTF-8" standalone="no"?>
<svg
   width="64"
   height="64"
   version="1.1"
   viewBox="0 0 16.933 16.933"
   id="svg20"
   xmlns:xlink="http://www.w3.org/1999/xlink"
   xmlns="http://www.w3.org/2000/svg"
   xmlns:svg="http://www.w3.org/2000/svg">
  <defs
     id="defs10">
    <linearGradient
       id="linearGradient1111">
      <stop
         style="stop-color:#a3be8c;stop-opacity:1"
         offset="0"
         id="stop1107" />
      <stop
         style="stop-color:#8fbcbb;stop-opacity:1"
         offset="1"
         id="stop1109" />
    </linearGradient>
    <filter
       id="filter1178"
       x="-0.04799993"
       y="-0.04799993"
       width="1.0959999"
       height="1.0959999"
       color-interpolation-filters="sRGB">
      <feGaussianBlur
         stdDeviation="0.30691955"
         id="feGaussianBlur2" />
    </filter>
    <linearGradient
       id="linearGradient1340"
       x1="8.5011"
       x2="8.489"
       y1="16.007"
       y2=".79375"
       gradientUnits="userSpaceOnUse">
      <stop
         stop-color="#2e3440"
         offset="0"
         id="stop5" />
      <stop
         stop-color="#4c566a"
         offset="1"
         id="stop7" />
    </linearGradient>
    <linearGradient
       xlink:href="#linearGradient1111"
       id="linearGradient1113"
       x1="8.4691095"
       y1="3.1167259"
       x2="11.510417"
       y2="12.903059"
       gradientUnits="userSpaceOnUse"
       gradientTransform="translate(4.3944859e-6)" />
    <filter
       id="filter1178-3"
       x="-0.047999482"
       y="-0.047999482"
       width="1.095999"
       height="1.095999"
       color-interpolation-filters="sRGB">
      <feGaussianBlur
         stdDeviation="0.30691668"
         id="feGaussianBlur1392" />
    </filter>
    <linearGradient
       id="linearGradient1340-6"
       x1="8.355"
       x2="8.3996"
       y1="16.007"
       y2=".79375"
       gradientUnits="userSpaceOnUse">
      <stop
         stop-color="#d8dee9"
         offset="0"
         id="stop1395" />
      <stop
         stop-color="#eceff4"
         offset="1"
         id="stop1397" />
    </linearGradient>
    <filter
       style="color-interpolation-filters:sRGB"
       id="filter1915"
       x="-0.02307086"
       y="-0.021604829"
       width="1.0461417"
       height="1.0432097">
      <feGaussianBlur
         stdDeviation="0.10074736"
         id="feGaussianBlur1917" />
    </filter>
    <filter
       id="filter1178-6"
       x="-0.04799993"
       y="-0.04799993"
       width="1.0959999"
       height="1.0959999"
       color-interpolation-filters="sRGB">
      <feGaussianBlur
         stdDeviation="0.30691955"
         id="feGaussianBlur1999" />
    </filter>
  </defs>
  <g
     stroke-linecap="round"
     stroke-linejoin="round"
     id="g2015"
     transform="translate(-0.00764989,-0.03053775)">
    <rect
       transform="matrix(0.99138,0,0,1,0.072989,0.1117)"
       x="0.79374999"
       y="0.79374999"
       width="15.346"
       height="15.346"
       rx="3.0525999"
       ry="3.0525999"
       fill="#2e3440"
       filter="url(#filter1178)"
       opacity="0.2"
       stroke-width="1.2489"
       id="rect2009"
       style="filter:url(#filter1178-6)" />
    <rect
       x="0.92603999"
       y="0.92603999"
       width="15.081"
       height="15.081"
       rx="3"
       ry="3"
       fill="url(#linearGradient1340)"
       stroke-width="1.2274"
       id="rect2011"
       style="fill:url(#linearGradient1340)" />
    <rect
       x="0.01215"
       y="0.0060174"
       width="16.924"
       height="16.927"
       fill="none"
       opacity="0.15"
       stroke-width="1.052"
       id="rect2013" />
  </g>
  <path
     style="fill:#2e3440;fill-opacity:1;stroke-width:0.00951151;filter:url(#filter1915)"
     d="m 4.4771634,12.198072 v -1.864254 h 1.869009 1.8690136 v 1.864254 1.864252 H 6.3461724 4.4771634 Z m 4.2579456,0.932123 c -0.0035,-0.512667 -0.0035,-1.351582 0,-1.864253 l 0.0064,-0.932124 h 1.862687 1.862685 v 1.864254 1.864252 H 10.604199 8.741512 Z M 8.63369,8.9831839 V 8.0510551 h 0.932125 0.93213 v 0.9321288 0.932125 H 9.565815 8.63369 Z M 4.4771634,7.9475981 v -1.863084 l 0.932921,-0.0071 c 0.513106,-0.004 1.354158,-0.004 1.869009,-1.4e-5 l 0.9360926,0.0071 v 1.863095 1.8630988 H 6.3461724 4.4771634 Z m 6.3822176,0.693169 V 7.6801091 H 9.898723 8.938058 v -0.903596 -0.903591 h 1.86901 1.869014 v 1.864254 1.8642548 h -0.908351 -0.90835 z M 3.2266633,5.8032691 c 0.03933,-0.02637 0.391563,-0.21016 0.946132,-0.493663 0.3164951,-0.161795 0.7006411,-0.359021 0.8536571,-0.43827 l 0.27821,-0.144096 v -0.24358 c 0,-0.133972 0.003,-0.494682 0.0063,-0.801576 l 0.0063,-0.557987 h 0.954345 0.954351 v 0.280589 c 0,0.154322 0.0025,0.280589 0.0052,0.280589 0.0069,0 0.9443916,-0.428654 1.1086016,-0.506909 l 0.129353,-0.06164 0.0052,-0.120569 c 0.003,-0.06631 0.0074,-0.122758 0.01008,-0.12543 0.0025,-0.0025 0.179669,0.08481 0.393328,0.194407 0.432134,0.221651 1.064191,0.544005 1.943604,0.99124 1.354174,0.688686 2.8479,1.454634 2.884285,1.478993 0.02894,0.01936 -0.486897,0.02365 -2.862886,0.02365 l -2.266114,1.5e-5 v 0.128405 0.128405 H 5.8922424 c -2.2294261,0 -2.6811841,-0.002 -2.6655981,-0.01255 z"
     id="path12-5" />
  <path
     style="fill:url(#linearGradient1113);fill-opacity:1;stroke-width:0.00951151"
     d="m 4.4771634,12.198072 v -1.864254 h 1.869009 1.8690136 v 1.864254 1.864253 H 6.3461724 4.4771634 Z m 4.2579456,0.932124 c -0.0035,-0.512668 -0.0035,-1.351582 0,-1.864254 l 0.0064,-0.932124 h 1.862687 1.862685 v 1.864254 1.864253 H 10.604199 8.741512 Z M 8.63369,8.9831839 V 8.0510551 h 0.932125 0.93213 v 0.9321288 0.932125 H 9.565815 8.63369 Z M 4.4771634,7.9475981 v -1.863084 l 0.932921,-0.0071 c 0.513106,-0.004 1.354158,-0.004 1.869009,-1.4e-5 l 0.9360926,0.0071 v 1.863095 1.8630988 H 6.3461724 4.4771634 Z m 6.3822176,0.693169 V 7.6801091 H 9.898723 8.938058 v -0.903596 -0.903591 h 1.86901 1.869014 v 1.864254 1.8642548 h -0.908351 -0.90835 z M 3.2266633,5.8032691 c 0.03933,-0.02637 0.391563,-0.21016 0.946132,-0.493663 0.3164951,-0.161795 0.7006411,-0.359021 0.8536571,-0.43827 l 0.27821,-0.144096 v -0.24358 c 0,-0.133972 0.003,-0.494682 0.0063,-0.801576 l 0.0063,-0.557987 h 0.954345 0.954351 v 0.280589 c 0,0.154322 0.0025,0.280589 0.0052,0.280589 0.0069,0 0.9443916,-0.428654 1.1086016,-0.506909 l 0.129353,-0.06164 0.0052,-0.120569 c 0.003,-0.06631 0.0074,-0.122758 0.01008,-0.12543 0.0025,-0.0025 0.179669,0.08481 0.393328,0.194407 0.432134,0.221651 1.064191,0.544005 1.943604,0.99124 1.354174,0.688686 2.8479,1.454634 2.884285,1.478993 0.02894,0.01936 -0.486897,0.02365 -2.862886,0.02365 l -2.266114,1.5e-5 v 0.128405 0.128405 H 5.8922424 c -2.2294261,0 -2.6811841,-0.002 -2.6655981,-0.01255 z"
     id="path12" />
</svg>
