<svg width="64" height="64" version="1.1" viewBox="0 0 16.933 16.933" xmlns="http://www.w3.org/2000/svg">
 <defs>
  <filter id="filter1178" x="-.047999" y="-.047999" width="1.096" height="1.096" color-interpolation-filters="sRGB">
   <feGaussianBlur stdDeviation="0.30691668"/>
  </filter>
  <linearGradient id="linearGradient1340" x1="8.6644" x2="8.6644" y1="15.931" y2=".79375" gradientUnits="userSpaceOnUse">
   <stop stop-color="#5e81ac" offset="0"/>
   <stop stop-color="#88c0d0" offset="1"/>
  </linearGradient>
  <linearGradient id="linearGradient3870" x1="30.464" x2="30.464" y1="3.0011" y2="13.506" gradientUnits="userSpaceOnUse">
   <stop stop-color="#eceff4" offset="0"/>
   <stop stop-color="#d8dee9" offset="1"/>
  </linearGradient>
  <linearGradient id="linearGradient4244" x1="30.359" x2="30.297" y1="10.287" y2="6.2573" gradientTransform="translate(.062429 .12147)" gradientUnits="userSpaceOnUse">
   <stop stop-color="#88c0d0" offset="0"/>
   <stop stop-color="#5e81ac" offset="1"/>
  </linearGradient>
  <linearGradient id="linearGradient1993" x1="9.5781" x2="9.5781" y1=".92609" y2="15.987" gradientUnits="userSpaceOnUse">
   <stop stop-color="#eceff4" offset="0"/>
   <stop stop-color="#d8dee9" offset="1"/>
  </linearGradient>
 </defs>
 <g stroke-linecap="round" stroke-linejoin="round">
  <rect transform="matrix(.99138 0 0 1 .072989 .0019055)" x=".79375" y=".90545" width="15.346" height="15.346" rx="3.0526" ry="3.0526" fill="#000000" filter="url(#filter1178)" opacity=".15" stroke-width="1.2489" style="mix-blend-mode:normal"/>
  <rect x=".92604" y=".92604" width="15.081" height="15.081" rx="3" ry="3" fill="url(#linearGradient1340)" stroke-width="1.2274"/>
  <rect x=".01215" y=".0060174" width="16.924" height="16.927" fill="none" opacity=".15" stroke-width="1.052"/>
  <path d="m5.6321 0.92609c-0.018666 2.0403 0.69186 4.5139 2.5915 7.4909-0.00522 0.01015-0.010287 0.0198-0.015504 0.02997-3.593-0.75183-5.4633-3.5418-6.4103-6.6393-0.53951 0.54188-0.87177 1.2901-0.87177 2.1187v3.3181c1.7284 0.89318 4.1046 1.4094 7.356 1.265 0.00617 0.0096 0.011887 0.01883 0.018087 0.02842-2.0418 2.2822-4.7122 2.8172-7.3741 2.5083v1.9611c0 0.82705 0.33096 1.574 0.86867 2.1156 2.2241-0.74095 4.537-2.6544 6.5964-6.6176 0.011353-5.53e-4 0.022214-9.82e-4 0.033588-0.0016 0.93527 2.8477 0.12062 5.3803-1.4133 7.5033h4.0219c0.04481-2.0606-0.6582-4.5693-2.591-7.5984 0.00529-0.01029 0.010215-0.02017 0.015502-0.03049 3.7 0.77422 5.5725 3.7104 6.492 6.9173 0.64711-0.54944 1.0573-1.3689 1.0573-2.2882v-3.284c-1.7481-0.98032-4.202-1.5596-7.6232-1.4076-0.00617-0.0096-0.01189-0.01883-0.018087-0.02842 2.1101-2.3584 4.8918-2.8505 7.6412-2.4742v-1.8867c0-0.90408-0.39661-1.7117-1.0252-2.2608-2.2577 0.71401-4.6135 2.6257-6.7069 6.6542-0.01153 5.63e-4 -0.022558 9.73e-4 -0.034107 0.0016-0.91931-2.7996-0.14673-5.2946 1.3374-7.3953zm2.7238 7.3725c0.00216 0.0061 0.00406 0.01203 0.0062 0.01808-0.00782 3.54e-4 -0.015422 6.72e-4 -0.023254 1e-3 0.00566-0.0064 0.011385-0.01276 0.017055-0.01912zm-0.11007 0.03669c0.00648 0.0012 0.012652 0.0029 0.019121 0.0041-0.00362 7e-3 -0.00724 0.01368-0.010853 0.02067-0.00276-0.0083-0.00554-0.01655-0.00827-0.0248zm0.065629 0.01344c0.022055 0.0042 0.043698 0.0091 0.065626 0.01344 0.00745 0.02141 0.014459 0.0427 0.021703 0.06408-0.0147 0.01701-0.02967 0.0333-0.044439 0.05012-0.022225-0.0043-0.044052-9e-3 -0.066145-0.01344-0.00738-0.02123-0.014004-0.04236-0.021187-0.06356 0.014774-0.01709 0.029598-0.03373 0.044442-0.05064zm0.10645 0.0217c0.00843 0.0017 0.016912 0.0034 0.02532 0.0052-0.00424 5e-3 -0.00868 0.0095-0.012917 0.01447-0.00421-0.0066-0.00818-0.01305-0.012403-0.01964zm-0.18241 0.06459c0.00421 0.0066 0.00818 0.01304 0.012401 0.01964-0.00843-0.0017-0.016909-0.0034-0.02532-0.0052 0.00423-5e-3 0.00868-0.0095 0.012919-0.01447zm0.17673 0.03049c0.00268 8e-3 0.00509 0.01624 0.00775 0.02429-0.00631-0.0012-0.012303-3e-3 -0.018603-0.0041 0.00355-0.0068 0.00731-0.0133 0.010853-0.02016zm-0.085266 0.04186c-0.00575 0.0065-0.011292 0.01318-0.017052 0.01964-0.00222-0.0062-4e-3 -0.01238-0.0062-0.01861 0.00782-3.52e-4 0.015422-6.69e-4 0.023254-1e-3z" fill="url(#linearGradient1993)" stroke-width="1.2274"/>
 </g>
 <g transform="matrix(.75407 0 0 .75407 -14.58 2.0555)">
  <ellipse cx="30.573" cy="8.5059" rx="5.6248" ry="6.1524" fill="url(#linearGradient3870)"/>
  <path d="m33.065 8.4848-3.926 2.6365v-5.231z" fill="url(#linearGradient4244)" stroke-width=".12017"/>
 </g>
</svg>
