<svg width="64" height="64" version="1.1" viewBox="0 0 16.933 16.933" xmlns="http://www.w3.org/2000/svg">
 <defs>
  <filter id="filter1178" x="-.047999" y="-.047999" width="1.096" height="1.096" color-interpolation-filters="sRGB">
   <feGaussianBlur stdDeviation="0.30691668"/>
  </filter>
  <linearGradient id="linearGradient1340" x1="8.355" x2="8.3996" y1="16.007" y2=".79375" gradientUnits="userSpaceOnUse">
   <stop stop-color="#d8dee9" offset="0"/>
   <stop stop-color="#eceff4" offset="1"/>
  </linearGradient>
  <linearGradient id="linearGradient19509" x1="58.241" x2="62.313" y1="-23.075" y2="-19.073" gradientUnits="userSpaceOnUse">
   <stop stop-color="#eceff4" stop-opacity=".5" offset="0"/>
   <stop stop-color="#d8dee9" stop-opacity=".1" offset="1"/>
  </linearGradient>
  <filter id="filter20407" x="-.075973" y="-.07405" width="1.1519" height="1.1481" color-interpolation-filters="sRGB">
   <feGaussianBlur stdDeviation="0.3574646"/>
  </filter>
  <filter id="filter22176" x="-.15107" y="-.14315" width="1.3021" height="1.2863" color-interpolation-filters="sRGB">
   <feGaussianBlur stdDeviation="0.66362658"/>
  </filter>
  <linearGradient id="linearGradient23852" x1="61.812" x2="61.018" y1="-14.926" y2="-13.552" gradientTransform="matrix(.57472 0 0 .57472 -28.034 18.429)" gradientUnits="userSpaceOnUse">
   <stop stop-color="#d8dee9" stop-opacity=".7" offset="0"/>
   <stop stop-color="#d8dee9" stop-opacity="0" offset="1"/>
  </linearGradient>
  <filter id="filter24584" x="-.18549" y="-.19898" width="1.371" height="1.398" color-interpolation-filters="sRGB">
   <feGaussianBlur stdDeviation="0.43093523"/>
  </filter>
  <linearGradient id="linearGradient24660" x1="59.303" x2="62.91" y1="-14.81" y2="-9.5056" gradientUnits="userSpaceOnUse">
   <stop stop-color="#d8dee9" offset="0"/>
   <stop stop-color="#d8dee9" stop-opacity="0" offset="1"/>
  </linearGradient>
  <filter id="filter25218" x="-.010101" y="-.014778" width="1.0202" height="1.0296" color-interpolation-filters="sRGB">
   <feGaussianBlur stdDeviation="0.087880843"/>
  </filter>
  <linearGradient id="linearGradient25357" x1="63.233" x2="63.233" y1="-27.84" y2="-15.969" gradientTransform="matrix(.57472 0 0 .57472 -28.034 18.429)" gradientUnits="userSpaceOnUse">
   <stop stop-color="#d8dee9" offset="0"/>
   <stop stop-color="#e5e9f0" stop-opacity="0" offset="1"/>
  </linearGradient>
  <radialGradient id="radialGradient26814" cx="51.324" cy="-10.884" r="1.3094" gradientTransform="matrix(.39971 .02029 -.0081155 .15987 30.721 -9.7341)" gradientUnits="userSpaceOnUse">
   <stop stop-color="#d8dee9" offset="0"/>
   <stop stop-color="#d8dee9" stop-opacity="0" offset="1"/>
  </radialGradient>
  <radialGradient id="radialGradient27080" cx="51.648" cy="-10.037" r="1.3094" gradientTransform="matrix(2.9052 .028484 -.019756 2.015 -98.597 8.7159)" gradientUnits="userSpaceOnUse">
   <stop stop-color="#2e3440" offset="0"/>
   <stop stop-color="#d8dee9" offset="1"/>
  </radialGradient>
  <filter id="filter28124" x="-.055025" y="-.11774" width="1.11" height="1.2355" color-interpolation-filters="sRGB">
   <feGaussianBlur stdDeviation="0.060042077"/>
  </filter>
  <filter id="filter28128" x="-.055025" y="-.11774" width="1.11" height="1.2355" color-interpolation-filters="sRGB">
   <feGaussianBlur stdDeviation="0.060042077"/>
  </filter>
  <filter id="filter29785" x="-.43392" y="-.43011" width="1.8678" height="1.8602" color-interpolation-filters="sRGB">
   <feGaussianBlur stdDeviation="0.21920007"/>
  </filter>
  <filter id="filter29827" x="-.241" y="-.39724" width="1.482" height="1.7945" color-interpolation-filters="sRGB">
   <feGaussianBlur stdDeviation="0.072757411"/>
  </filter>
  <radialGradient id="radialGradient29875" cx="45.341" cy="-7.8392" r=".6062" gradientTransform="matrix(.44548 .012565 -.010437 .37972 25.036 -5.5771)" gradientUnits="userSpaceOnUse">
   <stop stop-color="#d8dee9" offset="0"/>
   <stop stop-color="#d8dee9" stop-opacity="0" offset="1"/>
  </radialGradient>
  <filter id="filter30307" x="-.075332" y="-.074671" width="1.1507" height="1.1493" color-interpolation-filters="sRGB">
   <feGaussianBlur stdDeviation="0.038055278"/>
  </filter>
  <radialGradient id="radialGradient31071" cx="29.325" cy="-8.4259" r="1.035" gradientTransform="matrix(-1.4011 .010718 -.012751 -1.6669 70.317 -22.696)" gradientUnits="userSpaceOnUse">
   <stop stop-color="#d8dee9" offset="0"/>
   <stop stop-color="#d8dee9" stop-opacity="0" offset="1"/>
  </radialGradient>
  <filter id="filter31345" x="-.16533" y="-.24317" width="1.3307" height="1.4863" color-interpolation-filters="sRGB">
   <feGaussianBlur stdDeviation="0.14259822"/>
  </filter>
  <filter id="filter31545" x="-.062995" y="-.092656" width="1.126" height="1.1853" color-interpolation-filters="sRGB">
   <feGaussianBlur stdDeviation="0.054334046"/>
  </filter>
  <filter id="filter31816" x="-.10785" y="-.27797" width="1.2157" height="1.556" color-interpolation-filters="sRGB">
   <feGaussianBlur stdDeviation="0.1328481"/>
  </filter>
  <filter id="filter31866" x="-.39059" y="-.37287" width="1.7813" height="1.7536" color-interpolation-filters="sRGB">
   <feGaussianBlur stdDeviation="0.084201108"/>
  </filter>
  <filter id="filter31950" x="-.22896" y="-.20663" width="1.4117" height="1.4132" color-interpolation-filters="sRGB">
   <feGaussianBlur stdDeviation="0.12021857"/>
  </filter>
  <linearGradient id="linearGradient1099" x1="8.3454" x2="8.3454" y1="2.6974" y2="6.1042" gradientUnits="userSpaceOnUse">
   <stop stop-color="#eceff4" offset="0"/>
   <stop stop-color="#d8dee9" offset="1"/>
  </linearGradient>
 </defs>
 <g stroke-linecap="round" stroke-linejoin="round">
  <rect transform="matrix(.99138 0 0 1 .072989 .0019055)" x=".79375" y=".90545" width="15.346" height="15.346" rx="3.0526" ry="3.0526" fill="#000000" filter="url(#filter1178)" opacity=".15" stroke-width="1.2489" style="mix-blend-mode:normal"/>
  <rect x=".92604" y=".92604" width="15.081" height="15.081" rx="3" ry="3" fill="url(#linearGradient1340)" stroke-width="1.2274"/>
  <rect x=".01215" y=".0060174" width="16.924" height="16.927" fill="none" opacity=".15" stroke-width="1.052"/>
 </g>
 <path d="m3.4618 6.8438c4.1807-4.2671 4.0799-4.3971 4.8669-4.4107 0.57512 0.00914 1.0191 0.37626 1.4712 0.84277 0.34857 0.35163 2.2327 2.3961 3.1815 3.3221 0.19764 0.28806 1.5375 1.2948 1.4271 1.8965-0.04451 0.98564-3.4142 1.7551-3.5924 1.9627-0.31495 0.36715 1.0024 0.56909 1.0293 1.119-0.01615 0.78076-1.4271 0.52674-2.2166 1.3942-0.23964 0.39555 0.59052 0.35695 0.46907 0.63173-0.53927 0.57456-1.9636 0.96001-2.2995 0.58489-0.17208-0.22878-0.073668-0.48744-0.34464-0.72317-0.3759-0.31022-1.0955-0.16988-1.2648-0.49222-0.24242-0.40828 0.85248-0.71892 0.3771-1.1959-0.44575-0.38561-2.3781-0.59955-2.6763-1.1956 0.0075978-0.48332 0.94421-0.45555 1.1866-0.93093-0.25628-0.41872-2.4875-0.51168-2.6683-1.2002-0.1221-0.46526 0.43805-0.96564 1.0536-1.605z" fill="url(#linearGradient25357)" stroke-width=".57472"/>
 <path transform="matrix(.57472 0 0 .57472 -28.034 18.429)" d="m73.849-17.236c-0.07745 1.715-5.9407 3.0538-6.2507 3.4151-0.54801 0.63883 1.7442 0.99021 1.7909 1.947-0.0281 1.3585-2.4832 0.91652-3.8568 2.4259-0.41696 0.68825 1.0275 0.62108 0.81618 1.0992-0.93832 0.99972-3.4166 1.6704-4.0011 1.0177-0.29942-0.39807-0.12818-0.84814-0.59966-1.2583-0.65406-0.53978-1.9062-0.29559-2.2008-0.85645-0.4218-0.7104 1.4833-1.2509 0.65614-2.0809-0.7756-0.67095-4.1378-1.0432-4.6567-2.0804 0.01322-0.84097 1.6429-0.79264 2.0646-1.6198-0.44593-0.72856-4.3282-0.89031-4.6427-2.0884 2.728-4.9289 16.005-5.8257 20.88 0.07934z" fill="#2e3440" filter="url(#filter25218)"/>
 <path d="m3.5607 6.8748c4.0971-4.1817 3.9983-4.3091 4.7696-4.3225 0.5636 0.00895 0.99875 0.36873 1.4418 0.82593 0.3416 0.3446 2.188 2.3482 3.1179 3.2556 0.19369 0.2823 1.5067 1.2689 1.3986 1.8586-0.04362 0.96593-3.346 1.72-3.5206 1.9235-0.30865 0.3598 0.98237 0.55771 1.0087 1.0966-0.01583 0.76512-1.3986 0.51621-2.1722 1.3663-0.23484 0.38764 0.18589 0.58478 0.066851 0.85409-0.52848 0.56307-1.5315 0.70587-1.8607 0.33827-0.16864-0.2242-0.072196-0.4777-0.33775-0.70869-0.36838-0.30402-1.009-0.077639-1.1749-0.39353-0.23757-0.40011 0.77081-0.7934 0.30494-1.2609-0.43684-0.3779-2.3305-0.58754-2.6227-1.1717 0.0074484-0.47366 0.92536-0.44643 1.1628-0.91231-0.25116-0.41034-2.4378-0.50145-2.6149-1.1762-0.11966-0.45595 0.42929-0.94633 1.0325-1.573z" fill="#2e3440" stroke-width=".57472"/>
 <path d="m5.063 5.5001c0.13239-0.16259 1.5524-1.5885 1.5524-1.5885 0.61093-0.55816 0.92668-1.1883 1.7301-1.2143 0.25934 0.01519 0.58179 0.049322 1.1517 0.60254l1.5269 1.5891c0.23936 0.47146-0.18503 0.40475-0.18503 0.40475l-0.82036-0.56652-0.16094 1.1361-0.76679-0.40842-1.2008 0.73955-0.38568-1.4965-0.59386 1.2611-1.7348 0.0014368s-0.47299-0.034558-0.11271-0.46039z" fill="url(#linearGradient1099)" stroke-width=".57472"/>
 <path transform="matrix(.57472 0 0 .57472 -28.034 18.429)" d="m53.613-18.369c1.3904-1.4799 7.7269-8.0141 7.7269-8.0141 1.02-1.1275 2.4667-1.2941 3.2849-0.43515l-6.225 11.029c-0.05168 0.10766-2.8077-0.52862-2.8077-0.52862-0.86087-0.18439-3.0277-0.62003-1.9791-2.0509z" fill="url(#linearGradient19509)" filter="url(#filter20407)"/>
 <path transform="matrix(.57472 0 0 .57472 -28.034 18.429)" d="m72.048-18.675c-1.0889 0.01708-8.7923 5.4634-9.0474 5.9661-0.37662 0.74214 1.8958 0.44399 2.3136 1.8255 0.44984 1.4875-2.8116 3.9071-0.16951 3.2114 2.0889-0.55-0.38888-0.80167 0.70194-2.1252 0.91464-1.1097 2.2042-0.76137 3.2498-1.5404 1.095-0.81582-2.2087-1.5065-1.8975-2.3385 0.48443-1.2952 1.8627-0.72762 4.0969-1.6112 2.6128-1.0332 2.9567-3.4224 0.75213-3.3878z" fill="#4c566a" filter="url(#filter22176)" opacity=".8"/>
 <path d="m5.8411 9.8651c0.16671 0 1.2047-0.070041 1.2047-0.070041 0.00775-0.00144 0.031202 0.16735 0.039058 0.1797 0.017558 0.013856 0.12447-0.18192 0.19051-0.13979 0.15873 0.10125 0.33975 0.27799 0.49444 0.32952 0.074444 0.0248 0.33657-0.07638 0.35608-0.0564 0.040811 0.04179 0.02242 0.15907 0.041184 0.19939 0.015575 0.03346 0.11787-0.10536 0.16002-0.08955 0.035092 0.03065-0.025104 0.27307-0.073541 0.28728-0.14005 0.04107-0.64748-0.04284-1.2339-0.34199-0.47206-0.13037-0.90444-0.18853-1.1786-0.29811z" fill="url(#linearGradient23852)" stroke-width=".57472"/>
 <path transform="matrix(.57472 0 0 .57472 -28.034 18.429)" d="m61.287-11.704c0.20217-0.8699-4.4957-1.1804-4.0342-2.1178 0.37103-0.75368 1.0793-1.0109 1.8994-1.0109 2.6625 0 2.8558 0.56128 3.4512 2.9285 0.92365 3.6724-1.7924 2.2485-1.3164 0.20016z" fill="url(#linearGradient24660)" filter="url(#filter24584)" opacity=".2"/>
 <g transform="matrix(.57472 0 0 .57472 -16.36 17.312)">
  <path d="m50.217-9.965c0.25499-0.27158 0.52908-0.55314 0.85125-0.67273 1.1023-0.40917 2.4886 0.68557 1.93 1.0823-0.46329 0.32906-3.22 0.32396-2.7813-0.40955z" fill="#2e3440"/>
  <path d="m50.381-9.9732c0.22588-0.24058 0.46868-0.48999 0.75408-0.59593 0.97644-0.36246 2.2045 0.6073 1.7097 0.95873-0.4104 0.2915-2.8524 0.28697-2.4638-0.3628z" fill="url(#radialGradient27080)" filter="url(#filter28128)"/>
  <path d="m50.381-9.9732c0.22588-0.24058 0.46868-0.48999 0.75408-0.59593 0.97644-0.36246 2.2045 0.6073 1.7097 0.95873-0.4104 0.2915-2.8524 0.28697-2.4638-0.3628z" fill="url(#radialGradient26814)" filter="url(#filter28124)"/>
 </g>
 <g transform="matrix(.57472 0 0 .57472 -13.709 16.981)">
  <path d="m45.178-8.2406c-0.71854 1.0031 0.38793 1.6292 0.84349 1.286 0.8223-0.61945-0.31947-1.2919-0.84349-1.286z" fill="#2e3440"/>
  <path transform="matrix(.8981 0 0 .88654 4.6486 -.85122)" d="m45.23-8.1618c-0.63651 0.88862 0.34365 1.4432 0.7472 1.1392 0.72843-0.54874-0.283-1.1444-0.7472-1.1392z" fill="#d8dee9" filter="url(#filter29785)" style="mix-blend-mode:normal"/>
  <path transform="matrix(1.6949,0,0,1.8183,-31.8,6.0669)" d="m45.903-7.6445c0.38039 0.31935-0.20537 0.51866-0.44654 0.40941-0.43532-0.1972 0.16912-0.41127 0.44654-0.40941z" fill="#2e3440" filter="url(#filter29827)" style="mix-blend-mode:normal"/>
  <path transform="matrix(.8981 0 0 .88654 4.6486 -.85122)" d="m45.23-8.1618c-0.63651 0.88862 0.34365 1.4432 0.7472 1.1392 0.72843-0.54874-0.283-1.1444-0.7472-1.1392z" fill="url(#radialGradient29875)" filter="url(#filter30307)" style="mix-blend-mode:normal"/>
 </g>
 <g transform="matrix(.57472 0 0 .57472 -11.578 17.2)">
  <path d="m28.34-7.6332c-0.17674-0.88176 1.6859-1.2957 2.325-0.63646-0.14975 0.84522-2.0519 1.9987-2.325 0.63646z" fill="#2e3440"/>
  <path d="m28.472-7.6522c-0.15656-0.7811 1.4935-1.1478 2.0596-0.5638-0.13265 0.74873-1.8177 1.7705-2.0596 0.5638z" fill="url(#radialGradient31071)" filter="url(#filter31545)"/>
  <path transform="matrix(.98809 0 0 .68835 .2973 -2.3609)" d="m28.472-7.6522c-0.15656-0.7811 1.4935-1.1478 2.0596-0.5638-0.13265 0.74873-1.8177 1.7705-2.0596 0.5638z" fill="#2e3440" filter="url(#filter31345)" style="mix-blend-mode:normal"/>
 </g>
 <g transform="matrix(.57472 0 0 .57472 -28.034 18.429)" fill="#2e3440">
  <g transform="translate(20.461,-1.6962)" filter="url(#filter31816)" opacity=".25">
   <path d="m50.217-9.965c0.25499-0.27158 0.52908-0.55314 0.85125-0.67273 1.1023-0.40917 2.4886 0.68557 1.93 1.0823-0.46329 0.32906-3.22 0.32396-2.7813-0.40955z"/>
   <path d="m50.381-9.9732c0.22588-0.24058 0.46868-0.48999 0.75408-0.59593 0.97644-0.36246 2.2045 0.6073 1.7097 0.95873-0.4104 0.2915-2.8524 0.28697-2.4638-0.3628z" filter="url(#filter28128)"/>
   <path d="m50.381-9.9732c0.22588-0.24058 0.46868-0.48999 0.75408-0.59593 0.97644-0.36246 2.2045 0.6073 1.7097 0.95873-0.4104 0.2915-2.8524 0.28697-2.4638-0.3628z" filter="url(#filter28124)"/>
  </g>
  <g transform="translate(25.013,-2.3978)" filter="url(#filter31866)" opacity=".25">
   <path d="m45.178-8.2406c-0.71854 1.0031 0.38793 1.6292 0.84349 1.286 0.8223-0.61945-0.31947-1.2919-0.84349-1.286z"/>
   <path transform="matrix(.8981 0 0 .88654 4.6486 -.85122)" d="m45.23-8.1618c-0.63651 0.88862 0.34365 1.4432 0.7472 1.1392 0.72843-0.54874-0.283-1.1444-0.7472-1.1392z" filter="url(#filter29785)" style="mix-blend-mode:normal"/>
   <path transform="matrix(1.6949,0,0,1.8183,-31.8,6.0669)" d="m45.903-7.6445c0.38039 0.31935-0.20537 0.51866-0.44654 0.40941-0.43532-0.1972 0.16912-0.41127 0.44654-0.40941z" filter="url(#filter29827)" style="mix-blend-mode:normal"/>
   <path transform="matrix(.8981 0 0 .88654 4.6486 -.85122)" d="m45.23-8.1618c-0.63651 0.88862 0.34365 1.4432 0.7472 1.1392 0.72843-0.54874-0.283-1.1444-0.7472-1.1392z" filter="url(#filter30307)" style="mix-blend-mode:normal"/>
  </g>
  <g transform="translate(28.72,-2.0165)" filter="url(#filter31950)" opacity=".25">
   <path d="m28.34-7.6332c-0.17674-0.88176 1.6859-1.2957 2.325-0.63646-0.14975 0.84522-2.0519 1.9987-2.325 0.63646z"/>
   <path d="m28.472-7.6522c-0.15656-0.7811 1.4935-1.1478 2.0596-0.5638-0.13265 0.74873-1.8177 1.7705-2.0596 0.5638z" filter="url(#filter31545)"/>
   <path transform="matrix(.98809 0 0 .68835 .2973 -2.3609)" d="m28.472-7.6522c-0.15656-0.7811 1.4935-1.1478 2.0596-0.5638-0.13265 0.74873-1.8177 1.7705-2.0596 0.5638z" filter="url(#filter31345)" style="mix-blend-mode:normal"/>
  </g>
 </g>
</svg>
