<svg width="64" height="64" version="1.1" viewBox="0 0 16.933 16.933" xmlns="http://www.w3.org/2000/svg" xmlns:xlink="http://www.w3.org/1999/xlink">
 <defs>
  <filter id="filter1178" x="-.047999" y="-.047999" width="1.096" height="1.096" color-interpolation-filters="sRGB">
   <feGaussianBlur stdDeviation="0.30691668"/>
  </filter>
  <linearGradient id="linearGradient1340" x1="8.355" x2="8.3996" y1="16.007" y2=".79375" gradientUnits="userSpaceOnUse">
   <stop stop-color="#d8dee9" offset="0"/>
   <stop stop-color="#eceff4" offset="1"/>
  </linearGradient>
  <linearGradient id="linearGradient19509" x1="58.241" x2="62.313" y1="-23.075" y2="-19.073" gradientUnits="userSpaceOnUse">
   <stop stop-color="#eceff4" stop-opacity=".5" offset="0"/>
   <stop stop-color="#d8dee9" stop-opacity=".1" offset="1"/>
  </linearGradient>
  <filter id="filter20407" x="-.075974" y="-.074051" width="1.1519" height="1.1481" color-interpolation-filters="sRGB">
   <feGaussianBlur stdDeviation="0.3574646"/>
  </filter>
  <filter id="filter22176" x="-.15107" y="-.14315" width="1.3021" height="1.2863" color-interpolation-filters="sRGB">
   <feGaussianBlur stdDeviation="0.66362658"/>
  </filter>
  <linearGradient id="linearGradient23852" x1="61.812" x2="61.018" y1="-14.926" y2="-13.552" gradientUnits="userSpaceOnUse">
   <stop stop-color="#d8dee9" stop-opacity=".7" offset="0"/>
   <stop stop-color="#d8dee9" stop-opacity="0" offset="1"/>
  </linearGradient>
  <filter id="filter24584" x="-.18549" y="-.19898" width="1.371" height="1.398" color-interpolation-filters="sRGB">
   <feGaussianBlur stdDeviation="0.43093523"/>
  </filter>
  <linearGradient id="linearGradient24660" x1="59.303" x2="62.91" y1="-14.81" y2="-9.5056" gradientUnits="userSpaceOnUse">
   <stop stop-color="#d8dee9" offset="0"/>
   <stop stop-color="#d8dee9" stop-opacity="0" offset="1"/>
  </linearGradient>
  <filter id="filter25218" x="-.010101" y="-.014778" width="1.0202" height="1.0296" color-interpolation-filters="sRGB">
   <feGaussianBlur stdDeviation="0.087880843"/>
  </filter>
  <linearGradient id="linearGradient25357" x1="63.233" x2="63.233" y1="-27.84" y2="-15.969" gradientUnits="userSpaceOnUse">
   <stop stop-color="#d8dee9" offset="0"/>
   <stop stop-color="#e5e9f0" stop-opacity="0" offset="1"/>
  </linearGradient>
  <radialGradient id="radialGradient26814" cx="51.324" cy="-10.884" r="1.3094" gradientTransform="matrix(.39971 .02029 -.0081155 .15987 30.721 -9.7341)" gradientUnits="userSpaceOnUse">
   <stop stop-color="#d8dee9" offset="0"/>
   <stop stop-color="#d8dee9" stop-opacity="0" offset="1"/>
  </radialGradient>
  <radialGradient id="radialGradient27080" cx="51.648" cy="-10.037" r="1.3094" gradientTransform="matrix(2.9052 .028484 -.019756 2.015 -98.597 8.7159)" gradientUnits="userSpaceOnUse">
   <stop stop-color="#2e3440" offset="0"/>
   <stop stop-color="#d8dee9" offset="1"/>
  </radialGradient>
  <filter id="filter28124" x="-.055025" y="-.11774" width="1.1101" height="1.2355" color-interpolation-filters="sRGB">
   <feGaussianBlur stdDeviation="0.060042077"/>
  </filter>
  <filter id="filter28128" x="-.055025" y="-.11774" width="1.1101" height="1.2355" color-interpolation-filters="sRGB">
   <feGaussianBlur stdDeviation="0.060042077"/>
  </filter>
  <filter id="filter29785" x="-.43392" y="-.4301" width="1.8678" height="1.8602" color-interpolation-filters="sRGB">
   <feGaussianBlur stdDeviation="0.21920007"/>
  </filter>
  <filter id="filter29827" x="-.241" y="-.39724" width="1.482" height="1.7945" color-interpolation-filters="sRGB">
   <feGaussianBlur stdDeviation="0.072757411"/>
  </filter>
  <radialGradient id="radialGradient29875" cx="45.341" cy="-7.8392" r=".6062" gradientTransform="matrix(.44548 .012565 -.010437 .37972 25.036 -5.5771)" gradientUnits="userSpaceOnUse">
   <stop stop-color="#d8dee9" offset="0"/>
   <stop stop-color="#d8dee9" stop-opacity="0" offset="1"/>
  </radialGradient>
  <filter id="filter30307" x="-.075332" y="-.07467" width="1.1507" height="1.1493" color-interpolation-filters="sRGB">
   <feGaussianBlur stdDeviation="0.038055278"/>
  </filter>
  <radialGradient id="radialGradient31071" cx="29.325" cy="-8.4259" r="1.035" gradientTransform="matrix(-1.4011 .010718 -.012751 -1.6669 70.317 -22.696)" gradientUnits="userSpaceOnUse">
   <stop stop-color="#d8dee9" offset="0"/>
   <stop stop-color="#d8dee9" stop-opacity="0" offset="1"/>
  </radialGradient>
  <filter id="filter31345" x="-.16533" y="-.24317" width="1.3307" height="1.4863" color-interpolation-filters="sRGB">
   <feGaussianBlur stdDeviation="0.14259822"/>
  </filter>
  <filter id="filter31545" x="-.062996" y="-.092655" width="1.126" height="1.1853" color-interpolation-filters="sRGB">
   <feGaussianBlur stdDeviation="0.054334046"/>
  </filter>
  <filter id="filter31816" x="-.10785" y="-.27799" width="1.2157" height="1.556" color-interpolation-filters="sRGB">
   <feGaussianBlur stdDeviation="0.1328481"/>
  </filter>
  <filter id="filter31866" x="-.39126" y="-.37286" width="1.7813" height="1.7536" color-interpolation-filters="sRGB">
   <feGaussianBlur stdDeviation="0.084201108"/>
  </filter>
  <filter id="filter31950" x="-.22892" y="-.2066" width="1.4117" height="1.4132" color-interpolation-filters="sRGB">
   <feGaussianBlur stdDeviation="0.12021857"/>
  </filter>
  <filter id="filter31974" x="-.10746" y="-.10855" width="1.2149" height="1.2171" color-interpolation-filters="sRGB">
   <feGaussianBlur stdDeviation="0.95582162"/>
  </filter>
 </defs>
 <g stroke-linecap="round" stroke-linejoin="round">
  <rect transform="matrix(.99138 0 0 1 .072989 2.5202e-7)" x=".79375" y="1.0171" width="15.346" height="15.346" rx="3.0526" ry="3.0526" fill="#2e3440" filter="url(#filter1178)" opacity=".2" stroke-width="1.2489" style="mix-blend-mode:normal"/>
  <rect x=".92604" y=".92604" width="15.081" height="15.081" rx="3" ry="3" fill="url(#linearGradient1340)" stroke-width="1.2274"/>
  <rect x=".01215" y=".0060174" width="16.924" height="16.927" fill="none" opacity=".15" stroke-width="1.052"/>
 </g>
 <image x="16.762" y="-54.679" width="24.498" height="24.498" fill="#2e3440" preserveAspectRatio="none" xlink:href="file:///home/alexandre/Downloads/proxy-image.jpeg"/>
 <g transform="matrix(.57472 0 0 .57472 -28.034 18.429)">
  <path d="m54.874-19.916c7.4228-7.5761 7.2439-7.8069 8.6412-7.8312 1.0211 0.01622 1.8094 0.66804 2.6122 1.4964 0.61889 0.62431 3.9641 4.2543 5.6486 5.8982 0.3509 0.51145 2.7298 2.2989 2.5339 3.3672-0.07903 1.75-6.0619 3.1161-6.3782 3.4848-0.5592 0.65186 1.7798 1.0104 1.8275 1.9867-0.02867 1.3862-2.5339 0.93523-3.9355 2.4754-0.42547 0.7023 1.0485 0.63375 0.83283 1.1217-0.95747 1.0201-3.4863 1.7045-4.0827 1.0385-0.30553-0.40619-0.1308-0.86545-0.6119-1.2839-0.6674-0.55079-1.9451-0.30163-2.2457-0.87393-0.4304-0.7249 1.5136-1.2765 0.66953-2.1234-0.79143-0.68465-4.2222-1.0645-4.7517-2.1229 0.01349-0.85813 1.6764-0.80881 2.1067-1.6528-0.45503-0.74343-4.4166-0.90848-4.7374-2.131-0.2168-0.82606 0.77776-1.7145 1.8706-2.8497z" fill="#2e3440" filter="url(#filter31974)" opacity=".3"/>
  <path d="m54.626-20.213c7.4228-7.5761 7.2439-7.8069 8.6412-7.8312 1.0211 0.01622 1.8094 0.66804 2.6122 1.4964 0.61889 0.62431 3.9641 4.2543 5.6486 5.8982 0.3509 0.51145 2.7298 2.2989 2.5339 3.3672-0.07903 1.75-6.0619 3.1161-6.3782 3.4848-0.5592 0.65186 1.7798 1.0104 1.8275 1.9867-0.02867 1.3862-2.5339 0.93523-3.9355 2.4754-0.42547 0.7023 1.0485 0.63375 0.83283 1.1217-0.95747 1.0201-3.4863 1.7045-4.0827 1.0385-0.30553-0.40619-0.1308-0.86545-0.6119-1.2839-0.6674-0.55079-1.9451-0.30163-2.2457-0.87393-0.4304-0.7249 1.5136-1.2765 0.66953-2.1234-0.79143-0.68465-4.2222-1.0645-4.7517-2.1229 0.01349-0.85813 1.6764-0.80881 2.1067-1.6528-0.45503-0.74343-4.4166-0.90848-4.7374-2.131-0.2168-0.82606 0.77776-1.7145 1.8706-2.8497z" fill="#2e3440"/>
  <path d="m54.802-20.158c7.2743-7.4246 7.099-7.6508 8.4683-7.6745 1.0007 0.0159 1.7732 0.65468 2.5599 1.4664 0.60651 0.61183 3.8848 4.1692 5.5357 5.7803 0.34389 0.50122 2.6752 2.2529 2.4832 3.2999-0.07745 1.715-5.9407 3.0538-6.2507 3.4151-0.54801 0.63883 1.7442 0.99021 1.7909 1.947-0.0281 1.3585-2.4832 0.91652-3.8568 2.4259-0.41696 0.68825 1.0275 0.62108 0.81618 1.0992-0.93832 0.99972-3.4166 1.6704-4.0011 1.0177-0.29942-0.39807-0.12818-0.84814-0.59966-1.2583-0.65406-0.53978-1.9062-0.29559-2.2008-0.85645-0.4218-0.7104 1.4833-1.2509 0.65614-2.0809-0.7756-0.67095-4.1378-1.0432-4.6567-2.0804 0.01322-0.84097 1.6429-0.79264 2.0646-1.6198-0.44593-0.72856-4.3282-0.89031-4.6427-2.0884-0.21246-0.80954 0.7622-1.6802 1.8332-2.7927z" fill="url(#linearGradient25357)"/>
  <path d="m73.849-17.236c-0.07745 1.715-5.9407 3.0538-6.2507 3.4151-0.54801 0.63883 1.7442 0.99021 1.7909 1.947-0.0281 1.3585-2.4832 0.91652-3.8568 2.4259-0.41696 0.68825 1.0275 0.62108 0.81618 1.0992-0.93832 0.99972-3.4166 1.6704-4.0011 1.0177-0.29942-0.39807-0.12818-0.84814-0.59966-1.2583-0.65406-0.53978-1.9062-0.29559-2.2008-0.85645-0.4218-0.7104 1.4833-1.2509 0.65614-2.0809-0.7756-0.67095-4.1378-1.0432-4.6567-2.0804 0.01322-0.84097 1.6429-0.79264 2.0646-1.6198-0.44593-0.72856-4.3282-0.89031-4.6427-2.0884 2.728-4.9289 16.005-5.8257 20.88 0.07934z" fill="#2e3440" filter="url(#filter25218)"/>
  <path d="m54.974-20.104c7.1288-7.2761 6.957-7.4978 8.299-7.5211 0.98066 0.01558 1.7378 0.64159 2.5087 1.4371 0.59438 0.59959 3.8071 4.0858 5.425 5.6647 0.33701 0.4912 2.6217 2.2078 2.4335 3.2339-0.0759 1.6807-5.8219 2.9927-6.1257 3.3468-0.53705 0.62605 1.7093 0.97041 1.7551 1.908-0.02754 1.3313-2.4335 0.89819-3.7796 2.3774-0.40862 0.67449 0.32345 1.0175 0.11632 1.4861-0.91955 0.97973-2.6647 1.2282-3.2375 0.58858-0.29343-0.3901-0.12562-0.83118-0.58767-1.2331-0.64097-0.52898-1.7556-0.13509-2.0443-0.68473-0.41336-0.69619 1.3412-1.3805 0.53058-2.1939-0.76009-0.65753-4.055-1.0223-4.5635-2.0388 0.01296-0.82415 1.6101-0.77678 2.0233-1.5874-0.43701-0.71399-4.2417-0.87251-4.5498-2.0466-0.20821-0.79335 0.74696-1.6466 1.7966-2.7369z" fill="#2e3440"/>
  <path d="m57.588-22.496c0.23036-0.2829 2.7011-2.7639 2.7011-2.7639 1.063-0.97119 1.6124-2.0677 3.0103-2.1128 0.45124 0.02643 1.0123 0.08582 2.0039 1.0484l2.6567 2.765c0.41648 0.82033-0.32195 0.70425-0.32195 0.70425l-1.4274-0.98573-0.28003 1.9768-1.3342-0.71064-2.0894 1.2868-0.67107-2.6039-1.0333 2.1943-3.0186 0.0025s-0.82299-0.06013-0.19611-0.80106z" fill="#d8dee9"/>
  <path d="m53.613-18.369c1.3904-1.4799 7.7269-8.0141 7.7269-8.0141 1.02-1.1275 2.4667-1.2941 3.2849-0.43515l-6.225 11.029c-0.05168 0.10766-2.8077-0.52862-2.8077-0.52862-0.86087-0.18439-3.0277-0.62003-1.9791-2.0509z" fill="url(#linearGradient19509)" filter="url(#filter20407)"/>
  <path d="m72.048-18.675c-1.0889 0.01708-8.7923 5.4634-9.0474 5.9661-0.37662 0.74214 1.8958 0.44399 2.3136 1.8255 0.44984 1.4875-2.8116 3.9071-0.16951 3.2114 2.0889-0.55-0.38888-0.80167 0.70194-2.1252 0.91464-1.1097 2.2042-0.76137 3.2498-1.5404 1.095-0.81582-2.2087-1.5065-1.8975-2.3385 0.48443-1.2952 1.8627-0.72762 4.0969-1.6112 2.6128-1.0332 2.9567-3.4224 0.75213-3.3878z" fill="#4c566a" filter="url(#filter22176)" opacity=".8"/>
  <path d="m58.942-14.901c0.29007 0 2.0962-0.12187 2.0962-0.12187 0.01349-0.0025 0.05429 0.29119 0.06796 0.31268 0.03055 0.02411 0.21657-0.31653 0.33149-0.24323 0.27618 0.17617 0.59116 0.4837 0.86032 0.57335 0.12953 0.04315 0.58563-0.1329 0.61958-0.09814 0.07101 0.07272 0.03901 0.27678 0.07166 0.34694 0.0271 0.05822 0.20509-0.18333 0.27844-0.15582 0.06106 0.05334-0.04368 0.47514-0.12796 0.49986-0.24368 0.07147-1.1266-0.07454-2.1469-0.59505-0.82137-0.22684-1.5737-0.32804-2.0508-0.51871z" fill="url(#linearGradient23852)"/>
  <path d="m61.287-11.704c0.20217-0.8699-4.4957-1.1804-4.0342-2.1178 0.37103-0.75368 1.0793-1.0109 1.8994-1.0109 2.6625 0 2.8558 0.56128 3.4512 2.9285 0.92365 3.6724-1.7924 2.2485-1.3164 0.20016z" fill="url(#linearGradient24660)" filter="url(#filter24584)" opacity=".2"/>
  <g transform="translate(20.313 -1.9434)">
   <path d="m50.217-9.965c0.25499-0.27158 0.52908-0.55314 0.85125-0.67273 1.1023-0.40917 2.4886 0.68557 1.93 1.0823-0.46329 0.32906-3.22 0.32396-2.7813-0.40955z" fill="#2e3440"/>
   <path d="m50.381-9.9732c0.22588-0.24058 0.46868-0.48999 0.75408-0.59593 0.97644-0.36246 2.2045 0.6073 1.7097 0.95873-0.4104 0.2915-2.8524 0.28697-2.4638-0.3628z" fill="url(#radialGradient27080)" filter="url(#filter28128)"/>
   <path d="m50.381-9.9732c0.22588-0.24058 0.46868-0.48999 0.75408-0.59593 0.97644-0.36246 2.2045 0.6073 1.7097 0.95873-0.4104 0.2915-2.8524 0.28697-2.4638-0.3628z" fill="url(#radialGradient26814)" filter="url(#filter28124)"/>
  </g>
  <g transform="translate(24.926 -2.5202)">
   <path d="m45.178-8.2406c-0.71854 1.0031 0.38793 1.6292 0.84349 1.286 0.8223-0.61945-0.31947-1.2919-0.84349-1.286z" fill="#2e3440"/>
   <g>
    <path transform="matrix(.8981 0 0 .88654 4.6486 -.85122)" d="m45.23-8.1618c-0.63651 0.88862 0.34365 1.4432 0.7472 1.1392 0.72843-0.54874-0.283-1.1444-0.7472-1.1392z" fill="#d8dee9" filter="url(#filter29785)" style="mix-blend-mode:normal"/>
    <path transform="matrix(1.6949 0 0 1.8183 -31.8 6.0669)" d="m45.903-7.6445c0.38039 0.31935-0.20537 0.51866-0.44654 0.40941-0.43532-0.1972 0.16912-0.41127 0.44654-0.40941z" fill="#2e3440" filter="url(#filter29827)" style="mix-blend-mode:normal"/>
    <path transform="matrix(.8981 0 0 .88654 4.6486 -.85122)" d="m45.23-8.1618c-0.63651 0.88862 0.34365 1.4432 0.7472 1.1392 0.72843-0.54874-0.283-1.1444-0.7472-1.1392z" fill="url(#radialGradient29875)" filter="url(#filter30307)" style="mix-blend-mode:normal"/>
   </g>
  </g>
  <g transform="translate(28.633 -2.1389)">
   <path d="m28.34-7.6332c-0.17674-0.88176 1.6859-1.2957 2.325-0.63646-0.14975 0.84522-2.0519 1.9987-2.325 0.63646z" fill="#2e3440"/>
   <path d="m28.472-7.6522c-0.15656-0.7811 1.4935-1.1478 2.0596-0.5638-0.13265 0.74873-1.8177 1.7705-2.0596 0.5638z" fill="url(#radialGradient31071)" filter="url(#filter31545)"/>
   <path transform="matrix(.98809 0 0 .68835 .2973 -2.3609)" d="m28.472-7.6522c-0.15656-0.7811 1.4935-1.1478 2.0596-0.5638-0.13265 0.74873-1.8177 1.7705-2.0596 0.5638z" fill="#2e3440" filter="url(#filter31345)" style="mix-blend-mode:normal"/>
  </g>
  <g fill="#2e3440">
   <g transform="translate(20.461 -1.6962)" filter="url(#filter31816)" opacity=".25">
    <path d="m50.217-9.965c0.25499-0.27158 0.52908-0.55314 0.85125-0.67273 1.1023-0.40917 2.4886 0.68557 1.93 1.0823-0.46329 0.32906-3.22 0.32396-2.7813-0.40955z"/>
    <path d="m50.381-9.9732c0.22588-0.24058 0.46868-0.48999 0.75408-0.59593 0.97644-0.36246 2.2045 0.6073 1.7097 0.95873-0.4104 0.2915-2.8524 0.28697-2.4638-0.3628z" filter="url(#filter28128)"/>
    <path d="m50.381-9.9732c0.22588-0.24058 0.46868-0.48999 0.75408-0.59593 0.97644-0.36246 2.2045 0.6073 1.7097 0.95873-0.4104 0.2915-2.8524 0.28697-2.4638-0.3628z" filter="url(#filter28124)"/>
   </g>
   <g transform="translate(25.013 -2.3978)" filter="url(#filter31866)" opacity=".25">
    <path d="m45.178-8.2406c-0.71854 1.0031 0.38793 1.6292 0.84349 1.286 0.8223-0.61945-0.31947-1.2919-0.84349-1.286z"/>
    <g>
     <path transform="matrix(.8981 0 0 .88654 4.6486 -.85122)" d="m45.23-8.1618c-0.63651 0.88862 0.34365 1.4432 0.7472 1.1392 0.72843-0.54874-0.283-1.1444-0.7472-1.1392z" filter="url(#filter29785)" style="mix-blend-mode:normal"/>
     <path transform="matrix(1.6949 0 0 1.8183 -31.8 6.0669)" d="m45.903-7.6445c0.38039 0.31935-0.20537 0.51866-0.44654 0.40941-0.43532-0.1972 0.16912-0.41127 0.44654-0.40941z" filter="url(#filter29827)" style="mix-blend-mode:normal"/>
     <path transform="matrix(.8981 0 0 .88654 4.6486 -.85122)" d="m45.23-8.1618c-0.63651 0.88862 0.34365 1.4432 0.7472 1.1392 0.72843-0.54874-0.283-1.1444-0.7472-1.1392z" filter="url(#filter30307)" style="mix-blend-mode:normal"/>
    </g>
   </g>
   <g transform="translate(28.72 -2.0165)" filter="url(#filter31950)" opacity=".25">
    <path d="m28.34-7.6332c-0.17674-0.88176 1.6859-1.2957 2.325-0.63646-0.14975 0.84522-2.0519 1.9987-2.325 0.63646z"/>
    <path d="m28.472-7.6522c-0.15656-0.7811 1.4935-1.1478 2.0596-0.5638-0.13265 0.74873-1.8177 1.7705-2.0596 0.5638z" filter="url(#filter31545)"/>
    <path transform="matrix(.98809 0 0 .68835 .2973 -2.3609)" d="m28.472-7.6522c-0.15656-0.7811 1.4935-1.1478 2.0596-0.5638-0.13265 0.74873-1.8177 1.7705-2.0596 0.5638z" filter="url(#filter31345)" style="mix-blend-mode:normal"/>
   </g>
  </g>
 </g>
</svg>
