<?xml version="1.0" encoding="UTF-8"?>
<svg width="64" height="64" version="1.1" viewBox="0 0 16.933 16.933" xmlns="http://www.w3.org/2000/svg" xmlns:xlink="http://www.w3.org/1999/xlink">
 <defs>
  <filter id="filter1178" x="-.047999" y="-.047999" width="1.096" height="1.096" color-interpolation-filters="sRGB">
   <feGaussianBlur stdDeviation="0.30691668"/>
  </filter>
  <linearGradient id="linearGradient2" x1="22.342" x2="22.342" y1="34.366" y2="49.881" gradientUnits="userSpaceOnUse">
   <stop stop-color="#ebcb8b" offset="0"/>
   <stop stop-color="#eac57b" offset="1"/>
  </linearGradient>
  <linearGradient id="linearGradient4" x1="9.9956" x2="9.9956" y1="9.5851" y2="10.057" gradientUnits="userSpaceOnUse">
   <stop stop-color="#ebcb8b" offset="0"/>
   <stop stop-color="#eac57b" offset="1"/>
  </linearGradient>
  <linearGradient id="linearGradient6" x1="9.9751" x2="9.9751" y1="9.5441" y2="10.139" gradientUnits="userSpaceOnUse">
   <stop stop-color="#ebcb8b" offset="0"/>
   <stop stop-color="#eac57b" offset="1"/>
  </linearGradient>
  <linearGradient id="linearGradient8" x1="9.8519" x2="9.8519" y1="1.4573" y2="11.699" gradientUnits="userSpaceOnUse">
   <stop stop-color="#eceff4" offset="0"/>
   <stop stop-color="#d8dee9" offset="1"/>
  </linearGradient>
  <linearGradient id="linearGradient10" x1="11.781" x2="11.781" y1="8.0663" y2="14.018" gradientUnits="userSpaceOnUse">
   <stop stop-color="#a6aebf" offset="0"/>
   <stop stop-color="#7b88a1" offset="1"/>
  </linearGradient>
  <linearGradient id="linearGradient12" x1="9.9751" x2="9.9751" y1="11.063" y2="12.828" gradientUnits="userSpaceOnUse">
   <stop stop-color="#a6aebf" offset="0"/>
   <stop stop-color="#7b88a1" offset="1"/>
  </linearGradient>
  <linearGradient id="linearGradient14" x1="9.8109" x2="9.8109" y1="3.1198" y2="4.0844" gradientUnits="userSpaceOnUse">
   <stop stop-color="#88c0d0" offset="0"/>
   <stop stop-color="#81a1c1" offset="1"/>
  </linearGradient>
  <linearGradient id="linearGradient16" x1="25.212" x2="25.212" y1="3.6461" y2="39.021" gradientUnits="userSpaceOnUse">
   <stop stop-color="#a88279" offset="0"/>
   <stop stop-color="#6b5756" offset="1"/>
  </linearGradient>
  <linearGradient id="linearGradient18" x1="38.788" x2="38.788" y1="50.269" y2="68.499" gradientUnits="userSpaceOnUse">
   <stop stop-color="#6b5756" offset="0"/>
   <stop stop-color="#2e3440" offset="1"/>
  </linearGradient>
  <linearGradient id="linearGradient20" x1="12.722" x2="12.722" y1="4.0339" y2="65.552" gradientUnits="userSpaceOnUse">
   <stop stop-color="#c4b0a7" offset="0"/>
   <stop stop-color="#8c7e75" offset="1"/>
  </linearGradient>
  <linearGradient id="linearGradient22" x1="2.4425" x2="2.4425" y1="3.5918" y2="4.577" gradientUnits="userSpaceOnUse">
   <stop stop-color="#8c7e75" offset="0"/>
   <stop stop-color="#6b5756" offset="1"/>
  </linearGradient>
  <linearGradient id="linearGradient24" x1="-3.4482" x2="-3.4482" y1="5.747" y2="6.8553" gradientUnits="userSpaceOnUse">
   <stop stop-color="#8c7e75" offset="0"/>
   <stop stop-color="#6b5756" offset="1"/>
  </linearGradient>
  <linearGradient id="linearGradient26" x1="2.6067" x2="2.6067" y1="7.8815" y2="8.9899" gradientUnits="userSpaceOnUse">
   <stop stop-color="#8c7e75" offset="0"/>
   <stop stop-color="#6b5756" offset="1"/>
  </linearGradient>
  <linearGradient id="linearGradient28" x1="2.5861" x2="2.5861" y1="10.037" y2="11.166" gradientUnits="userSpaceOnUse">
   <stop stop-color="#8c7e75" offset="0"/>
   <stop stop-color="#6b5756" offset="1"/>
  </linearGradient>
  <linearGradient id="linearGradient30" x1="2.5861" x2="2.5861" y1="12.212" y2="13.341" gradientUnits="userSpaceOnUse">
   <stop stop-color="#8c7e75" offset="0"/>
   <stop stop-color="#6b5756" offset="1"/>
  </linearGradient>
 </defs>
 <g stroke-linecap="round" stroke-linejoin="round">
  <rect transform="matrix(.99138 0 0 1 .072989 .0019055)" x=".79375" y=".90545" width="15.346" height="15.346" rx="3.0526" ry="3.0526" filter="url(#filter1178)" opacity=".15" stroke-width="1.2489" style="mix-blend-mode:normal"/>
  <g>
   <path transform="scale(.26458)" d="m14.811 3.4883c-1.1007 0-2.1631 0.15737-3.168 0.44727v48.422h48.369c0.29733-1.0166 0.45898-2.0918 0.45898-3.207v-34.322c0-6.2817-5.0562-11.34-11.338-11.34z" enable-background="new" fill="url(#linearGradient16)"/>
   <path transform="scale(.26458)" d="m15.713 34.035v16.287h44.697c0.03924-0.38532 0.06055-0.77586 0.06055-1.1719v-7.9043c-9.9991-3.3735-25.585-7.2109-44.758-7.2109z" fill="url(#linearGradient2)"/>
   <path transform="scale(.26458)" d="m13.678 50.322v10.109c0.37209 0.03654 0.7508 0.05664 1.1328 0.05664h34.322c5.8857 0 10.694-4.4393 11.277-10.166z" enable-background="new" fill="url(#linearGradient18)"/>
   <path transform="scale(.26458)" d="m14.811 3.4883c-6.0317 0-10.932 4.6635-11.313 10.596v35.809c0.38071 5.9322 5.2808 10.596 11.313 10.596h0.90234v-57z" enable-background="new" fill="url(#linearGradient20)"/>
   <rect transform="scale(-1,1)" x="-9.5438" y="5.7734" width="7.5408" height="1.0773" ry=".53863" enable-background="new" fill="url(#linearGradient24)"/>
   <rect x="2.003" y="7.9279" width="1.0773" height="1.0773" ry=".53863" enable-background="new" fill="url(#linearGradient26)"/>
   <rect x="2.003" y="10.082" width="1.0773" height="1.0773" ry=".53863" enable-background="new" fill="url(#linearGradient28)"/>
   <rect x="2.003" y="12.237" width="1.0773" height="1.0773" ry=".53863" enable-background="new" fill="url(#linearGradient30)"/>
   <rect x="2.003" y="3.6188" width="1.0773" height="1.0773" ry=".53863" enable-background="new" fill="url(#linearGradient22)"/>
   <g fill-rule="evenodd">
    <path d="m6.312 14.391v-4.8477l1.6159-1.6159h3.7704l1.6159 1.6159v4.8477l-1.6159-3.2318h-3.7704z" fill="url(#linearGradient10)"/>
    <path d="m9.0051 11.16-0.53863 0.53863v1.0773h2.6931v-1.0773l-0.53863-0.53863z" fill="url(#linearGradient12)"/>
    <path d="m9.0051 11.698-0.53863-1.0773-0.53863-2.1545v-1.6159l0.53863-3.2318 1.0773-2.1545h0.53863l1.0773 2.1545 0.53863 3.2318v1.6159l-0.53863 2.1545-0.53863 1.0773z" fill="url(#linearGradient8)"/>
   </g>
   <rect x="9.0051" y="9.5438" width="1.6159" height=".53863" ry=".26931" fill="url(#linearGradient6)"/>
   <rect x="8.7358" y="8.4665" width="2.1545" height=".53863" ry=".26931" fill="url(#linearGradient4)"/>
   <rect x="9.0051" y="3.0802" width="1.6159" height="1.0773" ry=".53863" fill="url(#linearGradient14)"/>
  </g>
  <rect x=".0045001" y=".003" width="16.924" height="16.927" fill="none" opacity=".15" stroke-width="1.052"/>
  <rect x=".0045001" y=".003" width="16.924" height="16.927" fill="none" opacity=".15" stroke-width="1.052"/>
 </g>
</svg>
