<svg width="64" height="64" version="1.1" viewBox="0 0 16.933 16.933" xmlns="http://www.w3.org/2000/svg">
 <defs>
  <filter id="filter1478" x="-.025213" y="-.025213" width="1.0504" height="1.0504" color-interpolation-filters="sRGB">
   <feGaussianBlur stdDeviation="0.20253768"/>
  </filter>
  <filter id="filter2561" x="-.015621" y="-.077619" width="1.0312" height="1.1552" color-interpolation-filters="sRGB">
   <feGaussianBlur stdDeviation="0.053546619"/>
  </filter>
  <radialGradient id="radialGradient2601" cx="42.155" cy="59.72" r="28.5" gradientTransform="matrix(1.167 .019195 -.020413 1.241 -5.6319 -14.973)" gradientUnits="userSpaceOnUse">
   <stop stop-color="#bf616a" offset="0"/>
   <stop stop-color="#5e81ac" offset="1"/>
  </radialGradient>
  <filter id="filter1178" x="-.047999" y="-.047999" width="1.096" height="1.096" color-interpolation-filters="sRGB">
   <feGaussianBlur stdDeviation="0.30691668"/>
  </filter>
 </defs>
 <g transform="translate(-.00025546 -.11386)">
  <rect transform="matrix(.99138 0 0 1 .072989 .0019055)" x=".79375" y=".90545" width="15.346" height="15.346" rx="3.0526" ry="3.0526" fill="#000000" filter="url(#filter1178)" opacity=".15" stroke-linecap="round" stroke-linejoin="round" stroke-width="1.2489" style="mix-blend-mode:normal"/>
 </g>
 <path transform="scale(.26458)" d="m14.84 3.5c-0.4116 0-0.81678 0.024052-1.2168 0.066406v4.1953h-5v-2.4102c-3.0873 2.0221-5.123 5.5071-5.123 9.4883v34.322c0 3.9812 2.0357 7.4648 5.123 9.4863v-2.2988h5v4.084c0.40001 0.042338 0.8052 0.066406 1.2168 0.066406h34.322c0.49578 0 0.9823-0.034585 1.4609-0.095703v-4.0547h5v2.1387c2.9504-2.0432 4.877-5.4502 4.877-9.3262v-34.322c0-3.876-1.9266-7.2849-4.877-9.3281v2.25h-5v-4.166c-0.47864-0.061118-0.96516-0.095703-1.4609-0.095703h-34.322zm-6.2168 6.3633h5v4.5391h-5v-4.5391zm42 0h5v4.5391h-5v-4.5391zm-42 6.6406h5v4.5391h-5v-4.5391zm42 0h5v4.5391h-5v-4.5391zm-42 6.6426h5v4.5371h-5v-4.5371zm42 0h5v4.5371h-5v-4.5371zm-42 6.6406h5v4.5371h-5v-4.5371zm42 0h5v4.5371h-5v-4.5371zm-42 6.6406h5v4.5371h-5v-4.5371zm42 0h5v4.5371h-5v-4.5371zm-42 6.6406h5v4.5371h-5v-4.5371zm42 0h5v4.5371h-5v-4.5371zm-42 6.6406h5v4.5391h-5v-4.5391zm42 0h5v4.5391h-5v-4.5391z" fill="url(#radialGradient2601)" stroke-linecap="round" stroke-linejoin="round" stroke-width="4.6391"/>
 <rect x=".01215" y=".0060174" width="16.924" height="16.927" fill="none" opacity=".15" stroke-linecap="round" stroke-linejoin="round" stroke-width="1.052"/>
 <g transform="matrix(1.3936 0 0 1.3936 -3.2346 -1.7648)" fill-rule="evenodd" stroke-width=".64264">
  <path transform="scale(.26458)" d="m31.736 18.322a9.6396 9.6396 0 0 0-9.6406 9.6406 9.6396 9.6396 0 0 0 9.6406 9.6387 9.6396 9.6396 0 0 0 9.6387-9.6387 9.6396 9.6396 0 0 0-9.6387-9.6406zm-2.375 4.2109a0.58172 0.58172 0 0 1 0.29297 0.07813l6.8125 3.9336a0.58172 0.58172 0 0 1 0 1.0039l-6.8125 3.9434a0.58172 0.58172 0 0 1-0.87109-0.50977l-0.0078-7.8613a0.58172 0.58172 0 0 1 0.29492-0.50977 0.58172 0.58172 0 0 1 0.29102-0.07813z" filter="url(#filter1478)" opacity=".063688" style="mix-blend-mode:normal"/>
  <path transform="scale(.26458)" d="m31.736 17.41a9.6396 9.6396 0 0 0-9.6406 9.6406 9.6396 9.6396 0 0 0 9.6406 9.6387 9.6396 9.6396 0 0 0 9.6387-9.6387 9.6396 9.6396 0 0 0-9.6387-9.6406zm-2.375 5.123a0.58172 0.58172 0 0 1 0.29297 0.07813l6.8125 3.9336a0.58172 0.58172 0 0 1 0 1.0039l-6.8125 3.9434a0.58172 0.58172 0 0 1-0.87109-0.50977l-0.0078-7.8613a0.58172 0.58172 0 0 1 0.29492-0.50977 0.58172 0.58172 0 0 1 0.29102-0.07813z" fill="#eceff4"/>
 </g>
 <g transform="translate(7.3882e-8 1.7907)" stroke-linecap="round" stroke-linejoin="round">
  <path d="m7.125 11.064a0.82783 0.82783 0 0 0-0.75756 0.49608h-1.6826c-0.18371 0-0.33176 0.14805-0.33176 0.33176s0.14805 0.33124 0.33176 0.33124h1.682a0.82783 0.82783 0 0 0 0.75808 0.4966 0.82783 0.82783 0 0 0 0.7586-0.4966h4.3645c0.18371 0 0.33176-0.14753 0.33176-0.33124s-0.14805-0.33176-0.33176-0.33176h-4.3645a0.82783 0.82783 0 0 0-0.7586-0.49608z" fill="#2e3440" filter="url(#filter2561)" opacity=".177" stroke-width=".87311"/>
  <path transform="scale(.26458)" d="m26.93 41.193a3.1289 3.1289 0 0 0-2.8633 1.875h-6.3594c-0.69434 0-1.2539 0.55957-1.2539 1.2539 0 0.69434 0.55957 1.252 1.2539 1.252h6.3574a3.1289 3.1289 0 0 0 2.8652 1.877 3.1289 3.1289 0 0 0 2.8672-1.877h16.496c0.69434 0 1.2539-0.55762 1.2539-1.252 0-0.69434-0.55957-1.2539-1.2539-1.2539h-16.496a3.1289 3.1289 0 0 0-2.8672-1.875z" fill="#e5e9f0" stroke-width="3.3"/>
 </g>
</svg>
