<svg width="64" height="64" version="1.1" viewBox="0 0 16.933 16.933" xmlns="http://www.w3.org/2000/svg">
 <defs>
  <filter id="filter1178" x="-.047999" y="-.047999" width="1.096" height="1.096" color-interpolation-filters="sRGB">
   <feGaussianBlur stdDeviation="0.30691668"/>
  </filter>
  <linearGradient id="linearGradient1340" x1="15.803" x2="-1.5759" y1="15.469" y2="-2.2423" gradientUnits="userSpaceOnUse">
   <stop stop-color="#5e81ac" offset="0"/>
   <stop stop-color="#88c0d0" offset="1"/>
  </linearGradient>
  <filter id="filter1176" x="-.055575" y="-.042242" width="1.1111" height="1.0845" color-interpolation-filters="sRGB">
   <feGaussianBlur stdDeviation="0.20690246"/>
  </filter>
  <linearGradient id="linearGradient1180" x1="4.3517" x2="12.748" y1="2.9877" y2="14.283" gradientUnits="userSpaceOnUse">
   <stop stop-color="#eceff4" offset="0"/>
   <stop stop-color="#d8dee9" offset="1"/>
  </linearGradient>
 </defs>
 <g stroke-linecap="round" stroke-linejoin="round">
  <rect transform="matrix(.99138 0 0 1 .072989 .0019055)" x=".79375" y=".90545" width="15.346" height="15.346" rx="3.0526" ry="3.0526" filter="url(#filter1178)" opacity=".15" stroke-width="1.2489" style="mix-blend-mode:normal"/>
  <rect x=".92604" y=".92604" width="15.081" height="15.081" rx="3" ry="3" fill="url(#linearGradient1340)" stroke-width="1.2274"/>
  <rect x=".01215" y=".0060174" width="16.924" height="16.927" fill="none" opacity=".15" stroke-width="1.052"/>
 </g>
 <path d="m12.86 2.589h-4.3611c-0.04121 0-0.074535 0.033349-0.074535 0.074501v1.3849c0 0.046607 0.037734 0.084376 0.084371 0.084376h0.59793c0.24184 0 0.43795 0.18602 0.45895 0.42241v6.5525h-1.576e-4c0.0015 0.05278-5.948e-4 0.1047-0.00574 0.15581-5.644e-4 0.0075-0.00156 0.01487-0.00251 0.02222-0.0034 0.02987-0.00734 0.0596-0.01308 0.08867-0.00323 0.01667-0.00771 0.03272-0.011642 0.04905-0.00537 0.02172-0.00968 0.04379-0.016305 0.06504-0.039435 0.12622-0.10177 0.24328-0.18799 0.34634-0.00322 0.0037-0.00716 7e-3 -0.010218 0.01075-0.026302 0.03046-0.053913 0.06015-0.084462 0.08796-0.030835 0.02806-0.0635 0.05412-0.097829 0.07835-0.24396 0.17282-0.57235 0.24885-0.93924 0.21375-0.46782-0.04396-0.93195-0.25612-1.3071-0.59744-0.37508-0.34129-0.6083-0.76357-0.65657-1.1892-0.043413-0.38075 0.070683-0.71581 0.32101-0.94358 6.576e-4 -5.012e-4 0.00125-9.73e-4 0.00176-0.00153 0.00968-0.00865 0.020336-0.016305 0.030316-0.024666 0.17915-0.1501 0.41269-0.24106 0.6792-0.26614 0.00305-2.806e-4 0.00592-7.524e-4 0.00879-1e-3 0.028059-0.00251 0.056637-0.00363 0.085464-0.00461 0.015052-5.026e-4 0.029957-0.00153 0.045258-0.00168 0.00501-6.28e-5 0.00985-5.946e-4 0.015049-5.946e-4 0.00914 0 0.018527 0.00119 0.027611 0.00131 0.041997 6.588e-4 0.084319 0.00238 0.12746 0.00614 0.00537 4.383e-4 0.010567 2.499e-4 0.016305 7.525e-4 0.00394 4.061e-4 0.00789 0.00128 0.011824 0.00168 0.24447 0.024513 0.48654 0.097507 0.71625 0.20811 0.00484 2.206e-4 0.010386 0.00168 0.0172 0.00559 0.070021 0.038682 0.08344-0.00294 0.085501-0.03025v-2.0846c0-0.059699-0.041533-0.11252-0.099763-0.12535-1.2373-0.27231-2.4513 0.011108-3.3079 0.79091-0.74831 0.6807-1.1103 1.663-0.99301 2.6948 0.10465 0.91906 0.57643 1.802 1.3286 2.4865 0.73308 0.66694 1.6665 1.084 2.6293 1.1747 0.13268 0.01242 0.26598 0.01863 0.39605 0.01863 0.91954 0 1.7728-0.3153 2.4026-0.88819 0.59658-0.54317 0.95392-1.289 1.0064-2.1005l0.0049-5.3217h5.33e-4v-1.423h1.88e-4v-0.024824c0.0054-0.25112 0.21018-0.45316 0.46268-0.45316h0.59793c0.04657 0 0.08437-0.037768 0.08437-0.084376v-1.3849c0-0.041154-0.03332-0.074501-0.07453-0.074501" fill="#2e3440" filter="url(#filter1176)" opacity=".3"/>
 <path d="m12.86 2.589h-4.3611c-0.04121 0-0.074535 0.033349-0.074535 0.074501v1.3849c0 0.046607 0.037734 0.084376 0.084371 0.084376h0.59793c0.24184 0 0.43795 0.18602 0.45895 0.42241v6.5525h-1.576e-4c0.0015 0.05278-5.948e-4 0.1047-0.00574 0.15581-5.644e-4 0.0075-0.00156 0.01487-0.00251 0.02222-0.0034 0.02987-0.00734 0.0596-0.01308 0.08867-0.00323 0.01667-0.00771 0.03272-0.011642 0.04905-0.00537 0.02172-0.00968 0.04379-0.016305 0.06504-0.039435 0.12622-0.10177 0.24328-0.18799 0.34634-0.00322 0.0037-0.00716 7e-3 -0.010218 0.01075-0.026302 0.03046-0.053913 0.06015-0.084462 0.08796-0.030835 0.02806-0.0635 0.05412-0.097829 0.07835-0.24396 0.17282-0.57235 0.24885-0.93924 0.21375-0.46782-0.04396-0.93195-0.25612-1.3071-0.59744-0.37508-0.34129-0.6083-0.76357-0.65657-1.1892-0.043413-0.38075 0.070683-0.71581 0.32101-0.94358 6.576e-4 -5.012e-4 0.00125-9.73e-4 0.00176-0.00153 0.00968-0.00865 0.020336-0.016305 0.030316-0.024666 0.17915-0.1501 0.41269-0.24106 0.6792-0.26614 0.00305-2.806e-4 0.00592-7.524e-4 0.00879-1e-3 0.028059-0.00251 0.056637-0.00363 0.085464-0.00461 0.015052-5.026e-4 0.029957-0.00153 0.045258-0.00168 0.00501-6.28e-5 0.00985-5.946e-4 0.015049-5.946e-4 0.00914 0 0.018527 0.00119 0.027611 0.00131 0.041997 6.588e-4 0.084319 0.00238 0.12746 0.00614 0.00537 4.383e-4 0.010567 2.499e-4 0.016305 7.525e-4 0.00394 4.061e-4 0.00789 0.00128 0.011824 0.00168 0.24447 0.024513 0.48654 0.097507 0.71625 0.20811 0.00484 2.206e-4 0.010386 0.00168 0.0172 0.00559 0.070021 0.038682 0.08344-0.00294 0.085501-0.03025v-2.0846c0-0.059699-0.041533-0.11252-0.099763-0.12535-1.2373-0.27231-2.4513 0.011108-3.3079 0.79091-0.74831 0.6807-1.1103 1.663-0.99301 2.6948 0.10465 0.91906 0.57643 1.802 1.3286 2.4865 0.73308 0.66694 1.6665 1.084 2.6293 1.1747 0.13268 0.01242 0.26598 0.01863 0.39605 0.01863 0.91954 0 1.7728-0.3153 2.4026-0.88819 0.59658-0.54317 0.95392-1.289 1.0064-2.1005l0.0049-5.3217h5.33e-4v-1.423h1.88e-4v-0.024824c0.0054-0.25112 0.21018-0.45316 0.46268-0.45316h0.59793c0.04657 0 0.08437-0.037768 0.08437-0.084376v-1.3849c0-0.041154-0.03332-0.074501-0.07453-0.074501" fill="url(#linearGradient1180)"/>
</svg>
