<svg width="64" height="64" version="1.1" viewBox="0 0 16.933 16.933" xmlns="http://www.w3.org/2000/svg" xmlns:xlink="http://www.w3.org/1999/xlink">
 <defs>
  <filter id="filter1178" x="-.047999" y="-.047999" width="1.096" height="1.096" color-interpolation-filters="sRGB">
   <feGaussianBlur stdDeviation="0.30691668"/>
  </filter>
  <radialGradient id="radialGradient959" cx="8.4665" cy="8.4665" r="7.5405" gradientTransform="matrix(1.4375 -.015053 .01723 1.6455 -3.8504 -5.3377)" gradientUnits="userSpaceOnUse">
   <stop stop-color="#eceff4" offset="0"/>
   <stop stop-color="#d8dee9" offset="1"/>
  </radialGradient>
  <path id="A" d="M5.894 2.844c.025.588-.123 1.17-.425 1.672s-.746.904-1.275 1.152-1.12.333-1.695.243a2.94 2.94 0 0 1-1.543-.748 2.98 2.98 0 0 1-.871-1.486c-.138-.57-.105-1.17.095-1.724A2.97 2.97 0 0 1 1.208.574 2.93 2.93 0 0 1 2.823.003c.78-.033 1.542.247 2.118.78s.918 1.274.952 2.06z"/>
  <path id="B" d="M18.265 7.134C10.415 7.134 3.56 4.258 0 0c1.325 3.82 3.796 7.13 7.07 9.473s7.187 3.6 11.2 3.6 7.927-1.258 11.2-3.6S35.213 3.82 36.538 0C32.97 4.258 26.115 7.134 18.265 7.134z"/>
  <path id="C" d="M18.273 5.94c7.85 0 14.706 2.877 18.265 7.134-1.325-3.82-3.796-7.13-7.07-9.473S22.282 0 18.27 0s-7.927 1.258-11.2 3.6S1.325 9.253 0 13.073C3.567 8.825 10.423 5.94 18.273 5.94z"/>
  <path id="D" d="M7.428 3.583a3.77 3.77 0 0 1-.536 2.109c-.382.634-.94 1.14-1.608 1.452s-1.4.42-2.137.306-1.404-.442-1.945-.944S.28 5.353.105 4.632a3.78 3.78 0 0 1 .122-2.173c.253-.696.705-1.3 1.3-1.74S2.83.033 3.564.003c.983-.04 1.94.314 2.666.985a3.76 3.76 0 0 1 1.198 2.596z"/>
  <path id="E" d="M2.275 4.396c-.43.02-.858-.092-1.227-.318S.385 3.52.203 3.127-.04 2.292.026 1.862.283 1.03.575.71s.672-.546 1.09-.65.86-.078 1.265.072.757.417 1.01.77a2.21 2.21 0 0 1-.156 2.784c-.39.43-.934.684-1.51.71z"/>
  <filter id="filter1823" x="-.043549" y="-.03303" width="1.0871" height="1.0661" color-interpolation-filters="sRGB">
   <feGaussianBlur stdDeviation="0.17090543"/>
  </filter>
  <filter id="filter3393" x="-.049715" y="-.19292" width="1.0994" height="1.3858" color-interpolation-filters="sRGB">
   <feGaussianBlur stdDeviation="0.19991353"/>
  </filter>
 </defs>
 <g stroke-linecap="round" stroke-linejoin="round">
  <rect transform="matrix(.99138 0 0 1 .072989 .0019055)" x=".79375" y=".90545" width="15.346" height="15.346" rx="3.0526" ry="3.0526" fill="#000000" filter="url(#filter1178)" opacity=".15" stroke-width="1.2489" style="mix-blend-mode:normal"/>
  <rect x=".92604" y=".92604" width="15.081" height="15.081" rx="3" ry="3" fill="url(#radialGradient959)" stroke-width="1.2274"/>
  <rect x=".01215" y=".0060174" width="16.924" height="16.927" fill="none" opacity=".15" stroke-width="1.052"/>
 </g>
 <g transform="translate(.29783 .051388)" fill="#2e3440" filter="url(#filter1823)" opacity=".153" stroke-width="1.3635">
  <use transform="matrix(.24839 0 0 .24839 -403.33 -517.59)" x="1669.3" y="2093.3101" xlink:href="#A"/>
  <use transform="matrix(.24839 0 0 .24839 -403.33 -517.59)" x="1639.74" y="2123.98" xlink:href="#B"/>
  <use transform="matrix(.24839 0 0 .24839 -403.33 -517.59)" x="1639.73" y="2097.48" xlink:href="#C"/>
  <use transform="matrix(.24839 0 0 .24839 -403.33 -517.59)" x="1639.8" y="2135.8101" xlink:href="#D"/>
  <use transform="matrix(.24839 0 0 .24839 -403.33 -517.59)" x="1638.36" y="2098.0601" xlink:href="#E"/>
 </g>
 <g transform="translate(.12918 -.11726)" stroke-width="1.3635">
  <use transform="matrix(.24839 0 0 .24839 -403.33 -517.59)" x="1669.3" y="2093.3101" fill="#4c566a" xlink:href="#A"/>
  <use transform="matrix(.24839 0 0 .24839 -403.33 -517.59)" x="1639.74" y="2123.98" fill="#d08770" xlink:href="#B"/>
  <use transform="matrix(.24839 0 0 .24839 -403.33 -517.59)" x="1639.73" y="2097.48" fill="#d08770" xlink:href="#C"/>
  <use transform="matrix(.24839 0 0 .24839 -403.33 -517.59)" x="1639.8" y="2135.8101" fill="#4c566a" xlink:href="#D"/>
  <use transform="matrix(.24839 0 0 .24839 -403.33 -517.59)" x="1638.36" y="2098.0601" fill="#2e3440" xlink:href="#E"/>
 </g>
 <g stroke-width=".26458">
  <g fill="#2e3440" filter="url(#filter3393)" opacity=".33882" aria-label="Jupyter">
   <path d="m3.997 9.7557q-0.0756 0-0.13295-0.010428-0.057352-0.00782-0.099063-0.018248v-0.32847q0.041711 0.010428 0.088635 0.018248 0.044318 0.00782 0.096456 0.00782 0.06778 0 0.12252-0.026069 0.057352-0.026069 0.088635-0.099063 0.031283-0.072993 0.031283-0.20855v-1.744h0.39364v1.7414q0 0.23984-0.0756 0.38582-0.072993 0.14859-0.20595 0.21377-0.13295 0.06778-0.30762 0.06778z"/>
   <path d="m6.3302 7.7848v1.4234h-0.29719l-0.052138-0.18248h-0.020855q-0.06778 0.10949-0.1877 0.15902-0.11731 0.049531-0.25026 0.049531-0.22941 0-0.36757-0.12252-0.13817-0.12513-0.13817-0.39886v-0.92806h0.38843v0.8316q0 0.1512 0.054745 0.22941 0.054745 0.078207 0.17466 0.078207 0.17727 0 0.24244-0.11992 0.065173-0.12252 0.065173-0.34933v-0.66998z"/>
   <path d="m7.5294 7.7588q0.23984 0 0.38843 0.1877 0.14859 0.18509 0.14859 0.54745t-0.15381 0.55266q-0.15381 0.1877-0.39364 0.1877-0.15381 0-0.24505-0.054745-0.091242-0.057352-0.14859-0.12774h-0.020855q0.020855 0.10949 0.020855 0.20855v0.57352h-0.38843v-2.049h0.31544l0.054745 0.18509h0.018248q0.057352-0.086028 0.15381-0.14859 0.096456-0.062566 0.25026-0.062566zm-0.12513 0.31022q-0.1512 0-0.21377 0.093849-0.059959 0.093849-0.065173 0.28676v0.041711q0 0.20595 0.059959 0.31804 0.062566 0.10949 0.22419 0.10949 0.13295 0 0.19552-0.10949 0.065173-0.1121 0.065173-0.32065 0-0.41971-0.2659-0.41971z"/>
   <path d="m8.1316 7.7848h0.42493l0.26851 0.80032q0.020855 0.057352 0.031283 0.11992 0.010428 0.059959 0.015642 0.12774h0.00782q0.00782-0.06778 0.020855-0.12774 0.015641-0.062566 0.03389-0.11992l0.2633-0.80032h0.41711l-0.6022 1.6059q-0.080814 0.22159-0.23723 0.33108-0.15381 0.1121-0.35715 0.1121-0.065173 0-0.1147-0.00782-0.046924-0.00521-0.083421-0.013035v-0.30762q0.028676 0.00521 0.06778 0.010428 0.041711 0.00521 0.086028 0.00521 0.12252 0 0.19291-0.0756 0.072993-0.072994 0.10688-0.17727l0.023462-0.070386z"/>
   <path d="m10.418 8.9241q0.06517 0 0.12513-0.013034 0.05996-0.013035 0.11992-0.031283v0.28937q-0.06257 0.026069-0.15642 0.044318-0.09124 0.020855-0.20073 0.020855-0.12774 0-0.22941-0.041711-0.099063-0.04171-0.15902-0.14338-0.057352-0.10428-0.057352-0.28676v-0.68562h-0.18509v-0.16424l0.21377-0.13035 0.1121-0.29979h0.24766v0.3024h0.39886v0.29197h-0.39886v0.68562q0 0.080814 0.04692 0.12252 0.04692 0.039104 0.12252 0.039104z"/>
   <path d="m11.536 7.7588q0.29458 0 0.46664 0.16945 0.17206 0.16684 0.17206 0.47706v0.1877h-0.91763q0.0052 0.16424 0.09646 0.25808 0.09385 0.093849 0.25808 0.093849 0.13817 0 0.25026-0.026069 0.1121-0.028676 0.23202-0.086028v0.29979q-0.10428 0.052138-0.22159 0.0756-0.1147 0.026069-0.27894 0.026069-0.21377 0-0.378-0.078207-0.16424-0.080814-0.25808-0.24244-0.09385-0.16163-0.09385-0.40668 0-0.25026 0.08342-0.4145 0.08603-0.16684 0.23723-0.25026 0.1512-0.083421 0.35193-0.083421zm0.0026 0.27633q-0.1121 0-0.1877 0.072994-0.07299 0.072993-0.08603 0.2268h0.54484q-0.0026-0.13035-0.06778-0.21377-0.06517-0.086028-0.20334-0.086028z"/>
   <path d="m13.285 7.7588q0.02868 0 0.06778 0.00261t0.06257 0.00782l-0.02868 0.36497q-0.01825-0.00521-0.05475-0.00782-0.03389-0.00521-0.05996-0.00521-0.09906 0-0.1903 0.036497-0.09124 0.03389-0.14859 0.1121-0.05475 0.078207-0.05475 0.21377v0.72472h-0.38843v-1.4234h0.29458l0.05735 0.23984h0.01825q0.06257-0.10949 0.17206-0.1877 0.10949-0.078207 0.25287-0.078207z"/>
  </g>
  <g fill="#2e3440" aria-label="Jupyter">
   <path d="m3.8732 9.6318q-0.0756 0-0.13295-0.010428-0.057352-0.00782-0.099063-0.018248v-0.32847q0.041711 0.010428 0.088635 0.018248 0.044318 0.00782 0.096456 0.00782 0.06778 0 0.12252-0.026069 0.057352-0.026069 0.088635-0.099063 0.031283-0.072993 0.031283-0.20855v-1.744h0.39364v1.7414q0 0.23984-0.0756 0.38582-0.072994 0.14859-0.20595 0.21377-0.13295 0.06778-0.30762 0.06778z"/>
   <path d="m6.2064 7.661v1.4234h-0.29719l-0.052138-0.18248h-0.020855q-0.06778 0.10949-0.1877 0.15902-0.11731 0.049531-0.25026 0.049531-0.22941 0-0.36757-0.12252-0.13817-0.12513-0.13817-0.39886v-0.92806h0.38843v0.8316q0 0.1512 0.054745 0.22941 0.054745 0.078207 0.17466 0.078207 0.17727 0 0.24244-0.11992 0.065173-0.12252 0.065173-0.34933v-0.66998z"/>
   <path d="m7.4055 7.6349q0.23984 0 0.38843 0.1877 0.14859 0.18509 0.14859 0.54745t-0.15381 0.55266q-0.15381 0.1877-0.39364 0.1877-0.15381 0-0.24505-0.054745-0.091242-0.057352-0.14859-0.12774h-0.020855q0.020855 0.10949 0.020855 0.20855v0.57352h-0.38843v-2.049h0.31544l0.054745 0.18509h0.018248q0.057352-0.086028 0.15381-0.14859 0.096456-0.062566 0.25026-0.062566zm-0.12513 0.31022q-0.1512 0-0.21377 0.093849-0.059959 0.093849-0.065173 0.28676v0.041711q0 0.20595 0.059959 0.31804 0.062566 0.10949 0.22419 0.10949 0.13295 0 0.19552-0.10949 0.065173-0.1121 0.065173-0.32065 0-0.41971-0.2659-0.41971z"/>
   <path d="m8.0077 7.661h0.42493l0.26851 0.80032q0.020855 0.057352 0.031283 0.11992 0.010428 0.059959 0.015641 0.12774h0.00782q0.00782-0.06778 0.020855-0.12774 0.015641-0.062566 0.03389-0.11992l0.2633-0.80032h0.41711l-0.6022 1.6059q-0.080814 0.22159-0.23723 0.33108-0.15381 0.1121-0.35715 0.1121-0.065173 0-0.1147-0.00782-0.046924-0.00521-0.083421-0.013034v-0.30762q0.028676 0.00521 0.06778 0.010428 0.041711 0.00521 0.086028 0.00521 0.12252 0 0.19291-0.0756 0.072993-0.072993 0.10688-0.17727l0.023462-0.070387z"/>
   <path d="m10.294 8.8002q0.06517 0 0.12513-0.013035 0.05996-0.013034 0.11992-0.031283v0.28937q-0.06257 0.026069-0.15641 0.044318-0.09124 0.020855-0.20073 0.020855-0.12774 0-0.22941-0.041711-0.099063-0.04171-0.15902-0.14338-0.057352-0.10428-0.057352-0.28676v-0.68562h-0.18509v-0.16424l0.21377-0.13035 0.1121-0.29979h0.24766v0.3024h0.39886v0.29197h-0.39886v0.68562q0 0.080814 0.04692 0.12252 0.04692 0.039104 0.12252 0.039104z"/>
   <path d="m11.412 7.6349q0.29458 0 0.46664 0.16945 0.17206 0.16684 0.17206 0.47706v0.1877h-0.91763q0.0052 0.16424 0.09646 0.25808 0.09385 0.093849 0.25808 0.093849 0.13817 0 0.25026-0.026069 0.1121-0.028676 0.23202-0.086028v0.29979q-0.10428 0.052138-0.22159 0.0756-0.1147 0.026069-0.27894 0.026069-0.21377 0-0.378-0.078207-0.16424-0.080814-0.25808-0.24244-0.09385-0.16163-0.09385-0.40668 0-0.25026 0.08342-0.4145 0.08603-0.16684 0.23723-0.25026 0.1512-0.083421 0.35193-0.083421zm0.0026 0.27633q-0.1121 0-0.1877 0.072993-0.07299 0.072994-0.08603 0.2268h0.54484q-0.0026-0.13035-0.06778-0.21377-0.06517-0.086028-0.20334-0.086028z"/>
   <path d="m13.162 7.6349q0.02868 0 0.06778 0.00261t0.06257 0.00782l-0.02868 0.36497q-0.01825-0.00521-0.05475-0.00782-0.03389-0.00521-0.05996-0.00521-0.09906 0-0.1903 0.036497-0.09124 0.03389-0.14859 0.1121-0.05475 0.078207-0.05475 0.21377v0.72472h-0.38843v-1.4234h0.29458l0.05735 0.23984h0.01825q0.06257-0.10949 0.17206-0.1877 0.10949-0.078207 0.25287-0.078207z"/>
  </g>
  <text x="-6.6289392" y="10.029615" font-family="Roboto" font-size="4.9388px" font-weight="bold" letter-spacing="0px" word-spacing="0px" style="line-height:1.25" xml:space="preserve"><tspan x="-6.6289392" y="10.029615" stroke-width=".26458"/></text>
 </g>
</svg>
