<svg width="64" height="64" version="1.1" xmlns="http://www.w3.org/2000/svg">
 <defs>
  <radialGradient id="radialGradient896" cx="8.7968" cy="15.605" r="28.5" gradientTransform="matrix(2.6993,-1.589e-8,0,2.6762,-16.148,-33.77)" gradientUnits="userSpaceOnUse">
   <stop stop-color="#88c0d0" offset="0"/>
   <stop stop-color="#5e81ac" offset="1"/>
  </radialGradient>
  <linearGradient id="linearGradient4796" x1="44.322" x2="29.382" y1="41.441" y2="31.498" gradientUnits="userSpaceOnUse">
   <stop stop-color="#eceff4" offset="0"/>
   <stop stop-color="#d8dee9" offset="1"/>
  </linearGradient>
  <filter id="filter4828" x="-.063747" y="-.056771" width="1.1275" height="1.1135" color-interpolation-filters="sRGB">
   <feGaussianBlur stdDeviation="0.80605049"/>
  </filter>
  <filter id="filter1178-3" x="-.047999" y="-.047999" width="1.096" height="1.096" color-interpolation-filters="sRGB">
   <feGaussianBlur stdDeviation="0.30691668"/>
  </filter>
 </defs>
 <g transform="matrix(3.7796 0 0 3.7796 -.00096588 -.43033)">
  <rect transform="matrix(.99138 0 0 1 .072989 .0019055)" x=".79375" y=".90545" width="15.346" height="15.346" rx="3.0526" ry="3.0526" fill="#000000" filter="url(#filter1178-3)" opacity=".15" stroke-linecap="round" stroke-linejoin="round" stroke-width="1.2489" style="mix-blend-mode:normal"/>
 </g>
 <rect x="3.4711" y="3.4887" width="57" height="57" rx="11.339" ry="11.339" fill="url(#radialGradient896)" stroke-linecap="round" stroke-linejoin="round" stroke-width="4.6391"/>
 <rect x=".017008" y=".011338" width="63.966" height="63.977" fill="none" opacity=".15" stroke-linecap="round" stroke-linejoin="round" stroke-width="3.9761"/>
 <g transform="matrix(1.1066 0 0 1.1066 -3.4295 -3.4514)" stroke-width=".31267">
  <g transform="matrix(1.2599 0 0 1.2599 -6.5171 -10.482)" fill="#2e3440" filter="url(#filter4828)" opacity=".35556">
   <path d="m25.511 26.748c-1.2951-4.2996-8.614-3.2562-9.8373-3.3496 1.3731-0.6816 2.614-1.2434 5.4447-3.294 5.4532-3.9503 11.227-3.0888 14.118-1.52-7.9041 0.30047-6.3983 4.6066-5.2341 6.8756-1.4805 0.43005-3.8176 1.0792-4.4911 1.2881z"/>
   <path d="m45.022 20.832c-2.8463 3.7596-7.5785 8.839-12.758 9.5081-5.1791 0.66909-10.117-0.07213-11.26 3.785-1.0533 3.5521 2.6512 6.8685 6.4933 6.0692 4.1046-0.85391 3.2181-5.5062 0.97309-8.6742 1.7053-0.09779 1.3881-0.07247 4.28-0.21824 4.3105 3.6742 5.7392 4.7218 13.27 10.082-5.8033-0.6078-7.9154-1.1659-12.078-3.6556 1.0783 2.7065 3.3829 8.8492 3.8821 13.615-2.4006-3.4496-3.3107-4.7173-7.0312-7.2059-4.7656-3.1878-8.6252-3.2957-10.859-7.9923-2.2291-4.6864 0.7214-8.0622 6.001-9.5242 7.545-2.0893 14.046-4.0701 19.087-5.7899z"/>
   <path d="m28.47 31.52c1.7053-0.09779 1.3881-0.07247 4.28-0.21824 4.3105 3.6742 5.7392 4.7218 13.27 10.082-7.5693-0.54148-13.296-2.7739-17.55-9.8642z"/>
   <path d="m45.022 20.832c-2.8463 3.7596-7.5785 8.839-12.758 9.5081-5.1791 0.66909-10.117-0.07213-11.26 3.785-1.0533 3.5521 2.6512 6.8685 6.4933 6.0692 4.1046-0.85391 3.2181-5.5062 0.97309-8.6742 1.7053-0.09779 1.3881-0.07247 4.28-0.21824 4.3105 3.6742 5.7392 4.7218 13.27 10.082-5.8033-0.6078-7.9154-1.1659-12.078-3.6556 1.0783 2.7065 3.3829 8.8492 3.8821 13.615-2.4006-3.4496-3.3107-4.7173-7.0312-7.2059-4.7656-3.1878-8.6252-3.2957-10.859-7.9923-2.2291-4.6864 0.7214-8.0622 6.001-9.5242 7.545-2.0893 14.046-4.0701 19.087-5.7899z"/>
   <path d="m28.47 31.52c1.7053-0.09779 1.3881-0.07247 4.28-0.21824 4.3105 3.6742 5.7392 4.7218 13.27 10.082-7.5693-0.54148-13.296-2.7739-17.55-9.8642z"/>
   <path d="m15.674 23.399c1.3731-0.6816 2.614-1.2434 5.4447-3.294 5.4532-3.9503 11.227-3.0888 14.118-1.52-7.9041 0.30047-6.8857 1.8753-6.9148 3.11-5.2515-1.107-6.7848 0.39916-12.648 1.7041z"/>
   <path d="m35.236 18.585c-7.9041 0.30047-6.3983 4.6066-5.2341 6.8756-0.92236 0.26792-1.9221 0.57313-3.1551 0.89946-4.9751-8.8647 4.3286-10.018 8.3892-7.775z"/>
   <path d="m21.357 38.354c-3.8678-4.9803-3.1537-9.5452 4.4201-11.917 7.4741-2.3405 14.204-3.8857 19.244-5.6055-13.603 5.183-30.636 8.6462-23.664 17.522z"/>
  </g>
  <g transform="matrix(1.2599 0 0 1.2599 -6.8929 -11.234)">
   <path d="m25.511 26.748c-1.2951-4.2996-8.614-3.2562-9.8373-3.3496 1.3731-0.6816 2.614-1.2434 5.4447-3.294 5.4532-3.9503 11.227-3.0888 14.118-1.52-7.9041 0.30047-6.3983 4.6066-5.2341 6.8756-1.4805 0.43005-3.8176 1.0792-4.4911 1.2881z" fill="#d8dee9"/>
   <path d="m45.022 20.832c-2.8463 3.7596-7.5785 8.839-12.758 9.5081-5.1791 0.66909-10.117-0.07213-11.26 3.785-1.0533 3.5521 2.6512 6.8685 6.4933 6.0692 4.1046-0.85391 3.2181-5.5062 0.97309-8.6742 1.7053-0.09779 1.3881-0.07247 4.28-0.21824 4.3105 3.6742 5.7392 4.7218 13.27 10.082-5.8033-0.6078-7.9154-1.1659-12.078-3.6556 1.0783 2.7065 3.3829 8.8492 3.8821 13.615-2.4006-3.4496-3.3107-4.7173-7.0312-7.2059-4.7656-3.1878-8.6252-3.2957-10.859-7.9923-2.2291-4.6864 0.7214-8.0622 6.001-9.5242 7.545-2.0893 14.046-4.0701 19.087-5.7899z" fill="#2e3440"/>
   <path d="m28.47 31.52c1.7053-0.09779 1.3881-0.07247 4.28-0.21824 4.3105 3.6742 5.7392 4.7218 13.27 10.082-7.5693-0.54148-13.296-2.7739-17.55-9.8642z" fill="#2e3440"/>
   <path d="m45.022 20.832c-2.8463 3.7596-7.5785 8.839-12.758 9.5081-5.1791 0.66909-10.117-0.07213-11.26 3.785-1.0533 3.5521 2.6512 6.8685 6.4933 6.0692 4.1046-0.85391 3.2181-5.5062 0.97309-8.6742 1.7053-0.09779 1.3881-0.07247 4.28-0.21824 4.3105 3.6742 5.7392 4.7218 13.27 10.082-5.8033-0.6078-7.9154-1.1659-12.078-3.6556 1.0783 2.7065 3.3829 8.8492 3.8821 13.615-2.4006-3.4496-3.3107-4.7173-7.0312-7.2059-4.7656-3.1878-8.6252-3.2957-10.859-7.9923-2.2291-4.6864 0.7214-8.0622 6.001-9.5242 7.545-2.0893 14.046-4.0701 19.087-5.7899z" fill="#d8dee9"/>
   <path d="m28.47 31.52c1.7053-0.09779 1.3881-0.07247 4.28-0.21824 4.3105 3.6742 5.7392 4.7218 13.27 10.082-7.5693-0.54148-13.296-2.7739-17.55-9.8642z" fill="url(#linearGradient4796)"/>
   <path d="m15.674 23.399c1.3731-0.6816 2.614-1.2434 5.4447-3.294 5.4532-3.9503 11.227-3.0888 14.118-1.52-7.9041 0.30047-6.8857 1.8753-6.9148 3.11-5.2515-1.107-6.7848 0.39916-12.648 1.7041z" fill="#eceff4"/>
   <path d="m35.236 18.585c-7.9041 0.30047-6.3983 4.6066-5.2341 6.8756-0.92236 0.26792-1.9221 0.57313-3.1551 0.89946-4.9751-8.8647 4.3286-10.018 8.3892-7.775z" fill="#d8dee9"/>
   <path d="m21.357 38.354c-3.8678-4.9803-3.1537-9.5452 4.4201-11.917 7.4741-2.3405 14.204-3.8857 19.244-5.6055-13.603 5.183-30.636 8.6462-23.664 17.522z" fill="#eceff4"/>
  </g>
 </g>
</svg>
