<svg width="64" height="64" version="1.1" viewBox="0 0 16.933 16.933" xmlns="http://www.w3.org/2000/svg">
 <defs>
  <filter id="filter1178" x="-.047999" y="-.047999" width="1.096" height="1.096" color-interpolation-filters="sRGB">
   <feGaussianBlur stdDeviation="0.30691668"/>
  </filter>
  <linearGradient id="linearGradient1340" x1="15.487" x2="-1.2985" y1="14.723" y2=".3478" gradientUnits="userSpaceOnUse">
   <stop stop-color="#5e81ac" offset="0"/>
   <stop stop-color="#88c0d0" offset="1"/>
  </linearGradient>
  <linearGradient id="linearGradient517" x1="5.1202" x2="12.334" y1="4.3539" y2="12.508" gradientUnits="userSpaceOnUse">
   <stop stop-color="#eceff4" offset="0"/>
   <stop stop-color="#d8dee9" offset="1"/>
  </linearGradient>
  <filter id="filter1075" x="-.052462" y="-.044238" width="1.1049" height="1.0885" color-interpolation-filters="sRGB">
   <feGaussianBlur stdDeviation="0.17464138"/>
  </filter>
 </defs>
 <g stroke-linecap="round" stroke-linejoin="round">
  <rect transform="matrix(.99138 0 0 1 .072989 .0019055)" x=".79375" y=".90545" width="15.346" height="15.346" rx="3.0526" ry="3.0526" filter="url(#filter1178)" opacity=".15" stroke-width="1.2489" style="mix-blend-mode:normal"/>
  <rect x=".92604" y=".92604" width="15.081" height="15.081" rx="3" ry="3" fill="url(#linearGradient1340)" stroke-width="1.2274"/>
  <rect x=".01215" y=".0060174" width="16.924" height="16.927" fill="none" opacity=".15" stroke-width="1.052"/>
 </g>
 <path d="m12.461 12.522v-0.52128l-7.9894-0.0106v0.51779c0 0.28478 0.0064 0.5242 0.01424 0.53203 0.00779 0.0078 1.8055 0.01182 3.9947 0.0089l3.9805-0.0053zm-4.6064-1.2553v-0.53192h-3.383v1.0638h3.383zm4.6064 0v-0.52128l-3.3085-0.0108v1.0644l3.3085-0.0108zm-4.6114-1.2501 0.00566-0.53737-3.3731 0.01088-0.00575 0.51022c-0.00312 0.28062-0.00107 0.52244 0.00468 0.53737 0.00834 0.02176 0.34322 0.02606 1.6866 0.0217l1.6762-0.0054zm4.6114 0.0054v-0.53189l-3.3085-0.01088v0.52851c0 0.29068 0.0064 0.53494 0.014313 0.54282 0.00787 0.0079 0.75229 0.01186 1.6543 0.0089l1.64-0.0054zm0-1.2553v-0.5319h-7.9788l-0.00575 0.51022c-0.00312 0.28062-0.00107 0.5224 0.00468 0.53729 0.00836 0.021806 0.78566 0.026026 3.9951 0.021702l3.9847-0.00532zm-6.0745-1.3626c0-0.70306 0.014362-0.8371 0.12074-1.1268 0.23723-0.646 0.77448-1.1305 1.4644-1.3207 0.21398-0.058975 0.78602-0.058975 1 0 0.59033 0.1627 1.0733 0.54161 1.3492 1.0584 0.20171 0.37789 0.23598 0.56563 0.25075 1.3739l0.01215 0.6649h1.3175l-0.0093-0.76064c-0.008185-0.6801-0.014045-0.78294-0.055293-0.97117-0.15319-0.69898-0.45048-1.2595-0.92088-1.7363-0.49676-0.5035-1.06-0.80748-1.7837-0.96257-0.19155-0.041051-0.28797-0.048068-0.66047-0.048068-0.46795 0-0.67892 0.029784-1.0434 0.1473-1.0468 0.33748-1.8659 1.1463-2.2144 2.1867-0.14004 0.418-0.15071 0.50786-0.16183 1.3629l-0.010162 0.78192h1.3448z" fill="#2e3440" filter="url(#filter1075)" opacity=".3" stroke-width=".021277"/>
 <path d="m12.461 12.522v-0.52128l-7.9894-0.0106v0.51779c0 0.28478 0.0064 0.5242 0.01424 0.53203 0.00779 0.0078 1.8055 0.01182 3.9947 0.0089l3.9805-0.0053zm-4.6064-1.2553v-0.53192h-3.383v1.0638h3.383zm4.6064 0v-0.52128l-3.3085-0.0108v1.0644l3.3085-0.0108zm-4.6114-1.2501 0.00566-0.53737-3.3731 0.01088-0.00575 0.51022c-0.00312 0.28062-0.00107 0.52244 0.00468 0.53737 0.00834 0.02176 0.34322 0.02606 1.6866 0.0217l1.6762-0.0054zm4.6114 0.0054v-0.53189l-3.3085-0.01088v0.52851c0 0.29068 0.0064 0.53494 0.014313 0.54282 0.00787 0.0079 0.75229 0.01186 1.6543 0.0089l1.64-0.0054zm0-1.2553v-0.5319h-7.9788l-0.00575 0.51022c-0.00312 0.28062-0.00107 0.5224 0.00468 0.53729 0.00836 0.021806 0.78566 0.026026 3.9951 0.021702l3.9847-0.00532zm-6.0745-1.3626c0-0.70306 0.014362-0.8371 0.12074-1.1268 0.23723-0.646 0.77448-1.1305 1.4644-1.3207 0.21398-0.058975 0.78602-0.058975 1 0 0.59033 0.1627 1.0733 0.54161 1.3492 1.0584 0.20171 0.37789 0.23598 0.56563 0.25075 1.3739l0.01215 0.6649h1.3175l-0.0093-0.76064c-0.008185-0.6801-0.014045-0.78294-0.055293-0.97117-0.15319-0.69898-0.45048-1.2595-0.92088-1.7363-0.49676-0.5035-1.06-0.80748-1.7837-0.96257-0.19155-0.041051-0.28797-0.048068-0.66047-0.048068-0.46795 0-0.67892 0.029784-1.0434 0.1473-1.0468 0.33748-1.8659 1.1463-2.2144 2.1867-0.14004 0.418-0.15071 0.50786-0.16183 1.3629l-0.010162 0.78192h1.3448z" fill="url(#linearGradient517)" stroke-width=".021277"/>
</svg>
