<svg width="64" height="64" version="1.1" viewBox="0 0 16.933 16.933" xmlns="http://www.w3.org/2000/svg">
 <defs>
  <filter id="filter1178" x="-.048" y="-.048" width="1.096" height="1.096" color-interpolation-filters="sRGB">
   <feGaussianBlur stdDeviation="0.30691955"/>
  </filter>
  <linearGradient id="linearGradient1340" x1="8.5011" x2="8.489" y1="16.007" y2=".79375" gradientUnits="userSpaceOnUse">
   <stop stop-color="#d8dee9" offset="0"/>
   <stop stop-color="#eceff4" offset="1"/>
  </linearGradient>
  <linearGradient id="linearGradient1010" x1="8.2543" x2="8.2291" y1="4.0315" y2="14.063" gradientUnits="userSpaceOnUse">
   <stop stop-color="#a3be8c" offset="0"/>
   <stop stop-color="#97b67c" offset="1"/>
  </linearGradient>
  <linearGradient id="linearGradient815" x1="8.2218" x2="8.2218" y1="2.3806" y2="12.564" gradientTransform="translate(0 -.024371)" gradientUnits="userSpaceOnUse">
   <stop stop-color="#eceff4" offset="0"/>
   <stop stop-color="#d8dee9" offset="1"/>
  </linearGradient>
 </defs>
 <g stroke-linecap="round" stroke-linejoin="round">
  <rect transform="matrix(.99138 0 0 1 .072989 .0019055)" x=".79375" y=".90545" width="15.346" height="15.346" rx="3.0526" ry="3.0526" filter="url(#filter1178)" opacity=".15" stroke-width="1.2489" style="mix-blend-mode:normal"/>
  <rect x=".92604" y=".92604" width="15.081" height="15.081" rx="3" ry="3" fill="url(#linearGradient1340)" stroke-width="1.2274"/>
  <rect x=".01215" y=".0060174" width="16.924" height="16.927" fill="none" opacity=".15" stroke-width="1.052"/>
  <rect x="2.4341" y="2.4341" width="12.065" height="12.065" rx="2.4" ry="2.4" fill="url(#linearGradient1010)" stroke-width=".98192"/>
 </g>
 <text x="26.956491" y="17.323977" font-family="'Abyssinica SIL'" font-size="2.8222px" font-weight="bold" letter-spacing="0px" stroke-width=".26458" word-spacing="0px" style="line-height:1.25" xml:space="preserve"><tspan x="26.956491" y="17.323977" font-family="'Abyssinica SIL'" font-weight="bold" stroke-width=".26458"/></text>
 <path d="m5.328 2.414c-26.128-3.3999-13.064-1.6999 0 0zm2e-6 0c0.0025 0.088502 0.0034 0.19334 0.0016 0.31315-0.01744 1.1161 0.54582 2.1614 1.4743 2.7352l0.28576 0.17621v5.6745l0.66196 0.65938 0.66196 0.6599 0.65731-0.66093 0.65783-0.66041-0.05064-0.57153-0.05116-0.57101 0.29817-0.30592 0.29817-0.30644-0.62114-0.63457 0.94256-0.94773-0.91569-0.93222 0.04961-0.63147c0.02747-0.34726 0.05184-0.66273 0.05374-0.70124 0.0019-0.038504 0.13178-0.14942 0.28886-0.24649 0.92848-0.57375 1.4917-1.6191 1.4743-2.7352-0.0021-0.13161-0.0014-0.23443 0.0026-0.31315h-1.975l-0.0026 0.19637c-0.0039 0.34951-0.02618 0.42479-0.18035 0.60822-0.26058 0.30997-0.78561 0.50552-1.1379 0.42426-0.2734-0.06306-0.55181-0.22742-0.71726-0.42426-0.15418-0.18343-0.17645-0.2587-0.18035-0.60822l-0.0026-0.19637zm1.974 0h2.221zm4.196 0 3.8e-5 1e-6zm-4.0477 3.9361h0.54156v4.6301h-0.54156v-2.3151z" fill="url(#linearGradient815)" stroke-width=".060131"/>
</svg>
