<svg width="64" height="64" version="1.1" viewBox="0 0 16.933 16.933" xmlns="http://www.w3.org/2000/svg">
 <defs>
  <filter id="filter1178" x="-.048" y="-.048" width="1.096" height="1.096" color-interpolation-filters="sRGB">
   <feGaussianBlur stdDeviation="0.30691955"/>
  </filter>
  <radialGradient id="radialGradient24818" cx="3.6559" cy="4.2246" r="7.5405" gradientTransform="matrix(1.3991 1.352 -1.3571 1.4044 4.2441 -7.1185)" gradientUnits="userSpaceOnUse">
   <stop stop-color="#bf616a" offset="0"/>
   <stop stop-color="#bf616a" offset=".19754"/>
   <stop stop-color="#d08770" offset=".27002"/>
   <stop stop-color="#d08770" offset=".313"/>
   <stop stop-color="#a3be8c" offset=".37789"/>
   <stop stop-color="#a3be8c" offset=".56553"/>
   <stop stop-color="#88c0d0" offset=".63653"/>
   <stop stop-color="#88c0d0" offset=".69161"/>
   <stop stop-color="#5e81ac" offset=".78892"/>
   <stop stop-color="#b48ead" offset=".85778"/>
   <stop stop-color="#b48ead" offset="1"/>
  </radialGradient>
  <linearGradient id="linearGradient28836" x1="4.5466" x2="12.99" y1="4.1176" y2="12.422" gradientUnits="userSpaceOnUse">
   <stop stop-color="#eceff4" offset="0"/>
   <stop stop-color="#d8dee9" offset="1"/>
  </linearGradient>
 </defs>
 <g stroke-linecap="round" stroke-linejoin="round">
  <rect transform="matrix(.99138 0 0 1 .072989 .0019055)" x=".79375" y=".90545" width="15.346" height="15.346" rx="3.0526" ry="3.0526" fill="#000000" filter="url(#filter1178)" opacity=".15" stroke-width="1.2489" style="mix-blend-mode:normal"/>
  <rect x=".92604" y=".92604" width="15.081" height="15.081" rx="3" ry="3" fill="url(#radialGradient24818)" stroke-width="1.2274"/>
  <rect x=".01215" y=".0060174" width="16.924" height="16.927" fill="none" opacity=".15" stroke-width="1.052"/>
 </g>
 <path d="m5.1111 13.242c0-0.14195-0.2323-0.25812-0.51623-0.25812-0.60397 0-0.61088-0.07209-0.21348-2.2287 0.26041-1.4133 0.38003-1.643 0.85594-1.643 0.42392 0 0.73022 0.37212 1.3105 1.5921 1.211 2.546 1.4826 2.7958 3.0406 2.7958 1.3339 0 1.3548-0.01271 3.3001-2.0004 2.1968-2.2447 2.8053-3.0589 2.8053-3.7535 0-0.34447-0.15803-0.45385-0.56948-0.39429-0.42939 0.062198-0.63574 0.34964-0.83887 1.1686-0.24849 1.0018-2.5319 3.9646-2.8276 3.6689-0.06264-0.06265 0.0477-0.8678 0.24514-1.7892 0.1975-0.9214 0.36314-2.0092 0.36811-2.4174 0.0087-0.69468-0.04261-0.73177-0.79754-0.58075-0.44365 0.088729-0.96631 0.16133-1.1615 0.16133-0.19522 0-0.35492 0.11618-0.35492 0.25812 0 0.14195 0.2323 0.25812 0.51623 0.25812 0.28395 0 0.51607 0.028917 0.51587 0.064532-1.92e-4 0.035512-0.17427 1.0518-0.38683 2.2585-0.21257 1.2067-0.38663 2.223-0.38683 2.2585-1.99e-4 0.03551-0.11729 0.06454-0.26015 0.06454-0.14292 0-0.80784-1.1032-1.4777-2.4516l-1.2178-2.4517 1.7934-1.8072c1.1742-1.1833 1.9963-1.8072 2.3811-1.8072 0.3503 0 0.58768-0.15641 0.58768-0.38719 0-0.30728-0.37283-0.38719-1.8068-0.38719-1.434 0-1.8068 0.079902-1.8068 0.38719 0 0.2151 0.22941 0.38719 0.51623 0.38719 0.28395 0 0.51623 0.08452 0.51623 0.18786 0 0.27111-3.9448 4.2001-4.217 4.2001-0.22282 0-0.1418-0.66221 0.38688-3.1619 0.20009-0.94613 0.37227-1.226 0.75414-1.226 0.27218 0 0.49484-0.17421 0.49484-0.38719 0-0.30972-0.38719-0.38719-1.9359-0.38719-1.5487 0-1.9359 0.077417-1.9359 0.38719 0 0.2151 0.22946 0.38719 0.51623 0.38719 0.64411 0 0.64782-0.11131-0.13672 4.1051-0.73444 3.9471-0.97232 4.6707-1.5355 4.6707-0.21597 0-0.39272 0.11616-0.39272 0.25812 0 0.14915 0.81736 0.25812 1.9359 0.25812 1.1185 0 1.9359-0.10896 1.9359-0.25812z" fill="url(#linearGradient28836)" stroke-width=".25811"/>
</svg>
