<svg width="64" height="64" version="1.1" viewBox="0 0 16.933 16.933" xmlns="http://www.w3.org/2000/svg" xmlns:xlink="http://www.w3.org/1999/xlink">
 <defs>
  <linearGradient id="linearGradient5804">
   <stop stop-color="#4c566a" stop-opacity=".5" offset="0"/>
   <stop stop-color="#434c5e" stop-opacity=".5" offset="1"/>
  </linearGradient>
  <linearGradient id="linearGradient5204">
   <stop stop-color="#d8dee9" offset="0"/>
   <stop stop-color="#eceff4" offset="1"/>
  </linearGradient>
  <filter id="filter1178" x="-.047999" y="-.047999" width="1.096" height="1.096" color-interpolation-filters="sRGB">
   <feGaussianBlur stdDeviation="0.30691668"/>
  </filter>
  <linearGradient id="linearGradient1340" x1="8.6885" x2="8.6644" y1="15.572" y2="1.366" gradientUnits="userSpaceOnUse">
   <stop stop-color="#e5e9f0" offset="0"/>
   <stop stop-color="#eceff4" offset="1"/>
  </linearGradient>
  <linearGradient id="linearGradient1340-3" x1="8.6885" x2="8.6644" y1="15.572" y2="1.366" gradientUnits="userSpaceOnUse">
   <stop stop-color="#a3be8c" offset="0"/>
   <stop stop-color="#8fbcbb" offset="1"/>
  </linearGradient>
  <linearGradient id="linearGradient6101" x1="15.093" x2="13.584" y1="2.1411" y2="3.6506" gradientTransform="rotate(180 13.498 3.354)" gradientUnits="userSpaceOnUse">
   <stop stop-color="#eceff4" offset="0"/>
   <stop stop-color="#d8dee9" offset="1"/>
  </linearGradient>
  <filter id="filter6834" x="-.079225" y="-.079751" width="1.1584" height="1.1595" color-interpolation-filters="sRGB">
   <feGaussianBlur stdDeviation="0.15989484"/>
  </filter>
  <filter id="filter7451" x="-.073049" y="-.072538" width="1.1461" height="1.1451" color-interpolation-filters="sRGB">
   <feGaussianBlur stdDeviation="0.15989484"/>
  </filter>
  <linearGradient id="linearGradient2506" x1="67.456" x2="67.437" y1="14.424" y2="11.934" gradientTransform="matrix(1.005,0,0,1.005,-54.833,-1.0422)" gradientUnits="userSpaceOnUse">
   <stop stop-color="#a3be8c" offset="0"/>
   <stop stop-color="#a3be8c" stop-opacity="0" offset="1"/>
  </linearGradient>
  <linearGradient id="linearGradient2662" x1="64.158" x2="64.169" y1="14.197" y2="12.759" gradientTransform="matrix(1.005 0 0 1.005 -52.908 -.82012)" gradientUnits="userSpaceOnUse">
   <stop stop-color="#ebcb8b" offset="0"/>
   <stop stop-color="#ebcb8b" stop-opacity="0" offset="1"/>
  </linearGradient>
  <linearGradient id="linearGradient3138" x1="62.757" x2="62.757" y1="14.231" y2="10.571" gradientTransform="matrix(1.005 0 0 1.005 -52.901 -.81526)" gradientUnits="userSpaceOnUse">
   <stop stop-color="#bf616a" offset="0"/>
   <stop stop-color="#bf616a" stop-opacity="0" offset="1"/>
  </linearGradient>
  <linearGradient id="linearGradient3294" x1="61.273" x2="61.273" y1="14.196" y2="11.184" gradientTransform="matrix(1.005 0 0 1.005 -52.895 -.81759)" gradientUnits="userSpaceOnUse">
   <stop stop-color="#5e81ac" offset="0"/>
   <stop stop-color="#5e81ac" stop-opacity="0" offset="1"/>
  </linearGradient>
  <linearGradient id="linearGradient3674" x1="54.595" x2="54.595" y1="13.039" y2="4.7394" gradientTransform="translate(-47.915 .15858)" gradientUnits="userSpaceOnUse" xlink:href="#linearGradient5204"/>
  <linearGradient id="linearGradient5206" x1="10.914" x2="10.907" y1="14.057" y2="9.4745" gradientUnits="userSpaceOnUse" xlink:href="#linearGradient5204"/>
  <linearGradient id="linearGradient5806" x1="11.423" x2="11.423" y1="9.4833" y2="13.948" gradientUnits="userSpaceOnUse" xlink:href="#linearGradient5804"/>
  <linearGradient id="linearGradient7234" x1="54.595" x2="54.595" y1="13.039" y2="4.7394" gradientTransform="translate(-48.146 -.77142)" gradientUnits="userSpaceOnUse" xlink:href="#linearGradient5204"/>
  <linearGradient id="linearGradient7236" x1="10.914" x2="10.907" y1="14.057" y2="9.4745" gradientTransform="translate(-.23152 -.93)" gradientUnits="userSpaceOnUse" xlink:href="#linearGradient5204"/>
  <linearGradient id="linearGradient7240" x1="11.423" x2="11.423" y1="9.4833" y2="13.948" gradientTransform="translate(-.23152 -.93)" gradientUnits="userSpaceOnUse" xlink:href="#linearGradient5804"/>
  <filter id="filter7387" x="-.9" y="-.5625" width="2.8" height="2.125" color-interpolation-filters="sRGB">
   <feGaussianBlur stdDeviation="0.331314"/>
  </filter>
  <linearGradient id="linearGradient7411" x1="11.423" x2="11.423" y1="9.4833" y2="13.948" gradientTransform="translate(-.083203 -.75696)" gradientUnits="userSpaceOnUse" xlink:href="#linearGradient5804"/>
  <filter id="filter8158" x="-.062899" y="-.092843" width="1.1258" height="1.1857" color-interpolation-filters="sRGB">
   <feGaussianBlur stdDeviation="0.14356997"/>
  </filter>
 </defs>
 <g stroke-linecap="round" stroke-linejoin="round">
  <rect transform="matrix(.99138 0 0 1 .072989 .0019055)" x=".79375" y=".90545" width="15.346" height="15.346" rx="3.0526" ry="3.0526" fill="#000000" filter="url(#filter1178)" opacity=".15" stroke-width="1.2489" style="mix-blend-mode:normal"/>
  <rect x=".92604" y=".92604" width="15.081" height="15.081" rx="3" ry="3" fill="url(#linearGradient1340)" stroke-width="1.2274"/>
  <rect x=".01215" y=".0060174" width="16.924" height="16.927" fill="none" opacity=".15" stroke-width="1.052"/>
  <path d="m12.646 8.4665a4.1799 4.1799 0 0 1-4.1799 4.1799 4.1799 4.1799 0 0 1-4.1799-4.1799 4.1799 4.1799 0 0 1 4.1799-4.1799 4.1799 4.1799 0 0 1 4.1799 4.1799zm2.3512-2e-7a6.5311 6.5311 0 0 1-6.5311 6.5311 6.5311 6.5311 0 0 1-6.5311-6.5311 6.5311 6.5311 0 0 1 6.5311-6.5311 6.5311 6.5311 0 0 1 6.5311 6.5311zm-13.062-6.5311v13.062m13.062-13.062v13.062m-13.062 0h13.062m-13.062-13.062 13.062 1e-7 -13.062 13.062m1e-7 -13.062 13.062 13.062m-13.922-6.5311h14.781m-7.3904-7.3904v14.781" fill="none" opacity=".5" stroke="#2e3440" stroke-width=".26458"/>
  <path d="m3.926 0.92604h6.9644c0.90634 0 5.1166 4.1838 5.1166 5.1166v6.9644c0 1.662-1.338 3-3 3h-9.081c-1.662 0-3-1.338-3-3v-9.081c0-1.662 1.338-3 3-3z" fill="url(#linearGradient1340-3)" stroke-width="1.2274"/>
 </g>
 <g fill="#2e3440">
  <path d="m15.972 5.8039c0.006198-0.56964-1.2579-2.0081-2.0384-2.8042-0.31107-0.31729-2.1363-1.9845-2.7961-2.0076l-0.0092 1.6499c-0.0093 1.662 1.3446 2.8551 3.0003 3.0003z" filter="url(#filter6834)" opacity=".3" stroke-linecap="round" stroke-linejoin="round" stroke-width="1.2274"/>
  <g stroke-width="1.1285">
   <path transform="matrix(.8861 0 0 .8861 .89058 .29365)" d="m12.335 12.491v-1.2369h1.2369v2.4738h-1.2369z" filter="url(#filter7387)" opacity=".25"/>
   <path transform="matrix(.8861 0 0 .8861 .89058 .29365)" d="m10.921 12.844v-0.8835h1.2369v1.767h-1.2369z" filter="url(#filter7387)" opacity=".25"/>
   <path transform="matrix(.8861 0 0 .8861 .89058 .29365)" d="m9.5074 11.872v-1.8554h1.2369v3.7107h-1.2369z" filter="url(#filter7387)" opacity=".25"/>
   <path transform="matrix(.8861 0 0 .8861 .89058 .29365)" d="m8.0938 12.314v-1.4136h1.2369v2.8272h-1.2369z" filter="url(#filter7387)" opacity=".25"/>
   <path transform="matrix(.8861 0 0 .8861 .89058 .29365)" d="m13.395 12.491v-1.0602h-0.8835v2.1204h0.8835z" filter="url(#filter7387)" opacity=".25"/>
   <path transform="matrix(.8861 0 0 .8861 .89058 .29365)" d="m11.981 12.844v-0.70677h-0.8835v1.4136h0.8835z" filter="url(#filter7387)" opacity=".25"/>
   <path transform="matrix(.8861 0 0 .8861 .89058 .29365)" d="m10.568 11.872v-1.6787h-0.8835v3.3573h0.8835z" filter="url(#filter7387)" opacity=".25"/>
   <path transform="matrix(.8861 0 0 .8861 .89058 .29365)" d="m9.1469 12.307 0.0077-1.2295h-0.88416v1.2173c0 0.6695 0.0092 1.2265 0.02041 1.2377 0.01122 0.01122 0.2067 0.01675 0.43439 0.01227l0.41398-0.0081z" filter="url(#filter7387)" opacity=".25"/>
  </g>
 </g>
 <g stroke-width="1.1285">
  <g transform="matrix(.8861 0 0 .8861 .96431 .96439)">
   <g transform="translate(-.083203 -.75696)" fill="#2e3440" filter="url(#filter7387)" opacity=".25">
    <path d="m7.387 13.904v-0.3534h-4.4175v-9.1884h10.602v4.9476h0.7068v4.9476h-6.8913zm6.5379-2.1204v-2.1204h-6.1845v4.2408h6.1845zm-7.5981 0.70677v-0.70677h-3.0039v1.4136h3.0039zm1.0602 0v-0.70677h-0.7068v1.4136h0.7068zm-1.0602-1.767v-0.7068h-3.0039v1.4136h3.0039zm1.0602 0v-0.7068h-0.7068v1.4136h0.7068zm-1.0602-1.767v-0.7068h-3.0039v1.4136h3.0039zm1.0602 0.5301v-0.1767h2.4738v-1.0602h-3.1806v1.4136h0.7068zm5.8311-0.7068v-0.5301h-3.0039v1.0602h3.0039zm-6.8913-1.5903v-0.7068h-3.0039v1.4136h3.0039zm3.534 0v-0.7068h-3.1806v1.4136h3.1806zm3.3573 0v-0.7068h-3.0039v1.4136h3.0039zm-6.8913-1.767v-0.7068h-3.0039v1.4136h3.0039zm3.534 0v-0.7068h-3.1806v1.4136h3.1806zm3.3573 0v-0.7068h-3.0039v1.4136h3.0039z" stroke-width="1.1285"/>
    <rect x="7.387" y="9.31" width="6.8913" height="4.9476" stroke="#d8dee9" stroke-linecap="round" stroke-linejoin="round" stroke-width=".38816"/>
    <rect x="7.387" y="9.31" width="6.8913" height="4.9476" stroke="url(#linearGradient5806)" stroke-linecap="round" stroke-linejoin="round" stroke-width=".38816"/>
    <g stroke-width="1.1285">
     <path d="m12.335 12.491v-1.2369h1.2369v2.4738h-1.2369z"/>
     <path d="m10.921 12.844v-0.8835h1.2369v1.767h-1.2369z"/>
     <path d="m9.5074 11.872v-1.8554h1.2369v3.7107h-1.2369z"/>
     <path d="m8.0938 12.314v-1.4136h1.2369v2.8272h-1.2369z"/>
     <path d="m13.395 12.491v-1.0602h-0.8835v2.1204h0.8835z"/>
     <path d="m13.397 12.491v-1.0655h-0.88792v2.131h0.88792z"/>
     <path d="m11.981 12.844v-0.70677h-0.8835v1.4136h0.8835z"/>
     <path d="m10.568 11.872v-1.6787h-0.8835v3.3573h0.8835z"/>
     <path d="m9.1469 12.307 0.0077-1.2295h-0.88416v1.2173c0 0.6695 0.0092 1.2265 0.02041 1.2377 0.01122 0.01122 0.2067 0.01675 0.43439 0.01227l0.41398-0.0081z"/>
     <path d="m11.983 12.844v-0.7103h-0.88792v1.4207h0.88792z"/>
     <path d="m10.57 11.872v-1.687h-0.88792v3.3741h0.88792z"/>
     <path d="m9.1491 12.307 0.0077-1.2357h-0.8886v1.2234c0 0.67285 0.0092 1.2326 0.02051 1.2439 0.01127 0.01127 0.20774 0.01685 0.43657 0.01232l0.41606-0.0081z"/>
    </g>
   </g>
   <g stroke-width="1.1285">
    <g fill="#2e3440">
     <path d="m7.3038 13.147v-0.3534h-4.4175v-9.1884h10.602v4.9476h0.7068v4.9476h-6.8913zm6.5379-2.1204v-2.1204h-6.1845v4.2408h6.1845zm-7.5981 0.70677v-0.70677h-3.0039v1.4136h3.0039zm1.0602 0v-0.70677h-0.7068v1.4136h0.7068zm-1.0602-1.767v-0.7068h-3.0039v1.4136h3.0039zm1.0602 0v-0.7068h-0.7068v1.4136h0.7068zm-1.0602-1.767v-0.7068h-3.0039v1.4136h3.0039zm1.0602 0.5301v-0.1767h2.4738v-1.0602h-3.1806v1.4136h0.7068zm5.8311-0.7068v-0.5301h-3.0039v1.0602h3.0039zm-6.8913-1.5903v-0.7068h-3.0039v1.4136h3.0039zm3.534 0v-0.7068h-3.1806v1.4136h3.1806zm3.3573 0v-0.7068h-3.0039v1.4136h3.0039zm-6.8913-1.767v-0.7068h-3.0039v1.4136h3.0039zm3.534 0v-0.7068h-3.1806v1.4136h3.1806zm3.3573 0v-0.7068h-3.0039v1.4136h3.0039z" filter="url(#filter7387)" opacity=".25" stroke-width="1.2736"/>
     <rect x="7.3038" y="8.5531" width="6.8913" height="4.9476" filter="url(#filter7387)" opacity=".25" stroke="#d8dee9" stroke-linecap="round" stroke-linejoin="round" stroke-width=".38816"/>
     <rect x="7.3038" y="8.5531" width="6.8913" height="4.9476" filter="url(#filter7387)" opacity=".25" stroke="url(#linearGradient7411)" stroke-linecap="round" stroke-linejoin="round" stroke-width=".38816"/>
    </g>
    <g transform="translate(-.23152 -.93)">
     <path d="m7.387 13.904v-0.3534h-4.4175v-9.1884h10.602v4.9476h0.7068v4.9476h-6.8913zm6.5379-2.1204v-2.1204h-6.1845v4.2408h6.1845zm-7.5981 0.70677v-0.70677h-3.0039v1.4136h3.0039zm1.0602 0v-0.70677h-0.7068v1.4136h0.7068zm-1.0602-1.767v-0.7068h-3.0039v1.4136h3.0039zm1.0602 0v-0.7068h-0.7068v1.4136h0.7068zm-1.0602-1.767v-0.7068h-3.0039v1.4136h3.0039zm1.0602 0.5301v-0.1767h2.4738v-1.0602h-3.1806v1.4136h0.7068zm5.8311-0.7068v-0.5301h-3.0039v1.0602h3.0039zm-6.8913-1.5903v-0.7068h-3.0039v1.4136h3.0039zm3.534 0v-0.7068h-3.1806v1.4136h3.1806zm3.3573 0v-0.7068h-3.0039v1.4136h3.0039zm-6.8913-1.767v-0.7068h-3.0039v1.4136h3.0039zm3.534 0v-0.7068h-3.1806v1.4136h3.1806zm3.3573 0v-0.7068h-3.0039v1.4136h3.0039z" fill="url(#linearGradient3674)" stroke-width="1.2736"/>
     <rect x="7.387" y="9.31" width="6.8913" height="4.9476" fill="url(#linearGradient5206)" stroke="#d8dee9" stroke-linecap="round" stroke-linejoin="round" stroke-width=".38816"/>
     <rect x="7.387" y="9.31" width="6.8913" height="4.9476" fill="url(#linearGradient5206)" stroke="url(#linearGradient5806)" stroke-linecap="round" stroke-linejoin="round" stroke-width=".38816"/>
     <path d="m12.335 12.491v-1.2369h1.2369v2.4738h-1.2369z" fill="#a3be8c" stroke-width="1.2736"/>
     <path d="m10.921 12.844v-0.8835h1.2369v1.767h-1.2369z" fill="#ebcb8b" stroke-width="1.2736"/>
     <path d="m9.5074 11.872v-1.8554h1.2369v3.7107h-1.2369z" fill="#bf616a" stroke-width="1.2736"/>
     <path d="m8.0938 12.314v-1.4136h1.2369v2.8272h-1.2369z" fill="#5e81ac" stroke-width="1.2736"/>
     <path d="m13.395 12.491v-1.0602h-0.8835v2.1204h0.8835z" fill="#d8dee9" stroke-width="1.2736"/>
     <path d="m13.397 12.491v-1.0655h-0.88792v2.131h0.88792z" fill="url(#linearGradient2506)" stroke-width="1.2736"/>
     <g fill="#d8dee9" stroke-width="1.1285">
      <path d="m11.981 12.844v-0.70677h-0.8835v1.4136h0.8835z"/>
      <path d="m10.568 11.872v-1.6787h-0.8835v3.3573h0.8835z"/>
      <path d="m9.1469 12.307 0.0077-1.2295h-0.88416v1.2173c0 0.6695 0.0092 1.2265 0.02041 1.2377 0.01122 0.01122 0.2067 0.01675 0.43439 0.01227l0.41398-0.0081z"/>
     </g>
     <g stroke-width="1.2736">
      <path d="m11.983 12.844v-0.7103h-0.88792v1.4207h0.88792z" fill="url(#linearGradient2662)"/>
      <path d="m10.57 11.872v-1.687h-0.88792v3.3741h0.88792z" fill="url(#linearGradient3138)"/>
      <path d="m9.1491 12.307 0.0077-1.2357h-0.8886v1.2234c0 0.67285 0.0092 1.2326 0.02051 1.2439 0.01127 0.01127 0.20774 0.01685 0.43657 0.01232l0.41606-0.0081z" fill="url(#linearGradient3294)"/>
     </g>
    </g>
    <path d="m7.1554 12.974v-0.3534h-4.4175v-9.1884h10.602v4.9476h0.7068v4.9476h-6.8913zm6.5379-2.1204v-2.1204h-6.1845v4.2408h6.1845zm-7.5981 0.70677v-0.70677h-3.0039v1.4136h3.0039zm1.0602 0v-0.70677h-0.7068v1.4136h0.7068zm-1.0602-1.767v-0.7068h-3.0039v1.4136h3.0039zm1.0602 0v-0.7068h-0.7068v1.4136h0.7068zm-1.0602-1.767v-0.7068h-3.0039v1.4136h3.0039zm1.0602 0.5301v-0.1767h2.4738v-1.0602h-3.1806v1.4136h0.7068zm5.8311-0.7068v-0.5301h-3.0039v1.0602h3.0039zm-6.8913-1.5903v-0.7068h-3.0039v1.4136h3.0039zm3.534 0v-0.7068h-3.1806v1.4136h3.1806zm3.3573 0v-0.7068h-3.0039v1.4136h3.0039zm-6.8913-1.767v-0.7068h-3.0039v1.4136h3.0039zm3.534 0v-0.7068h-3.1806v1.4136h3.1806zm3.3573 0v-0.7068h-3.0039v1.4136h3.0039z" fill="url(#linearGradient7234)" stroke-width="1.2736"/>
    <rect x="7.1554" y="8.38" width="6.8913" height="4.9476" fill="url(#linearGradient7236)" stroke="#d8dee9" stroke-linecap="round" stroke-linejoin="round" stroke-width=".38816"/>
    <rect x="7.1554" y="8.38" width="6.8913" height="4.9476" fill="url(#linearGradient7236)" stroke="url(#linearGradient7240)" stroke-linecap="round" stroke-linejoin="round" stroke-width=".38816"/>
   </g>
  </g>
  <path transform="matrix(.8861 0 0 .8861 .89058 .29365)" d="m13.397 12.491v-1.0655h-0.88792v2.131h0.88792z" fill="#2e3440" filter="url(#filter7387)" opacity=".25"/>
  <g transform="matrix(.8861 0 0 .8861 .89058 .29365)" fill="#2e3440" filter="url(#filter7387)" opacity=".25">
   <path d="m11.983 12.844v-0.7103h-0.88792v1.4207h0.88792z"/>
   <path d="m10.57 11.872v-1.687h-0.88792v3.3741h0.88792z"/>
   <path d="m9.1491 12.307 0.0077-1.2357h-0.8886v1.2234c0 0.67285 0.0092 1.2326 0.02051 1.2439 0.01127 0.01127 0.20774 0.01685 0.43657 0.01232l0.41606-0.0081z"/>
  </g>
  <g transform="matrix(.8861 0 0 .8861 .96431 .96439)">
   <g transform="translate(-.14412 -.79016)" fill="#2e3440" filter="url(#filter8158)" opacity=".25">
    <path d="m12.335 12.491v-1.2369h1.2369v2.4738h-1.2369z"/>
    <path d="m10.921 12.844v-0.8835h1.2369v1.767h-1.2369z"/>
    <path d="m9.5074 11.872v-1.8554h1.2369v3.7107h-1.2369z"/>
    <path d="m8.0938 12.314v-1.4136h1.2369v2.8272h-1.2369z"/>
    <path d="m13.395 12.491v-1.0602h-0.8835v2.1204h0.8835z"/>
    <path d="m13.397 12.491v-1.0655h-0.88792v2.131h0.88792z"/>
    <path d="m11.981 12.844v-0.70677h-0.8835v1.4136h0.8835z"/>
    <path d="m10.568 11.872v-1.6787h-0.8835v3.3573h0.8835z"/>
    <path d="m9.1469 12.307 0.0077-1.2295h-0.88416v1.2173c0 0.6695 0.0092 1.2265 0.02041 1.2377 0.01122 0.01122 0.2067 0.01675 0.43439 0.01227l0.41398-0.0081z"/>
    <path d="m11.983 12.844v-0.7103h-0.88792v1.4207h0.88792z"/>
    <path d="m10.57 11.872v-1.687h-0.88792v3.3741h0.88792z"/>
    <path d="m9.1491 12.307 0.0077-1.2357h-0.8886v1.2234c0 0.67285 0.0092 1.2326 0.02051 1.2439 0.01127 0.01127 0.20774 0.01685 0.43657 0.01232l0.41606-0.0081z"/>
   </g>
   <g transform="translate(-.23152 -.93)">
    <path d="m12.335 12.491v-1.2369h1.2369v2.4738h-1.2369z" fill="#a3be8c" stroke-width="1.2736"/>
    <path d="m10.921 12.844v-0.8835h1.2369v1.767h-1.2369z" fill="#ebcb8b" stroke-width="1.2736"/>
    <path d="m9.5074 11.872v-1.8554h1.2369v3.7107h-1.2369z" fill="#bf616a" stroke-width="1.2736"/>
    <path d="m8.0938 12.314v-1.4136h1.2369v2.8272h-1.2369z" fill="#5e81ac" stroke-width="1.2736"/>
    <path d="m13.395 12.491v-1.0602h-0.8835v2.1204h0.8835z" fill="#d8dee9" stroke-width="1.2736"/>
    <path d="m13.397 12.491v-1.0655h-0.88792v2.131h0.88792z" fill="url(#linearGradient2506)" stroke-width="1.2736"/>
    <g fill="#d8dee9" stroke-width="1.1285">
     <path d="m11.981 12.844v-0.70677h-0.8835v1.4136h0.8835z"/>
     <path d="m10.568 11.872v-1.6787h-0.8835v3.3573h0.8835z"/>
     <path d="m9.1469 12.307 0.0077-1.2295h-0.88416v1.2173c0 0.6695 0.0092 1.2265 0.02041 1.2377 0.01122 0.01122 0.2067 0.01675 0.43439 0.01227l0.41398-0.0081z"/>
    </g>
    <g stroke-width="1.2736">
     <path d="m11.983 12.844v-0.7103h-0.88792v1.4207h0.88792z" fill="url(#linearGradient2662)"/>
     <path d="m10.57 11.872v-1.687h-0.88792v3.3741h0.88792z" fill="url(#linearGradient3138)"/>
     <path d="m9.1491 12.307 0.0077-1.2357h-0.8886v1.2234c0 0.67285 0.0092 1.2326 0.02051 1.2439 0.01127 0.01127 0.20774 0.01685 0.43657 0.01232l0.41606-0.0081z" fill="url(#linearGradient3294)"/>
    </g>
   </g>
  </g>
 </g>
 <path d="m15.978 6.2319c0.006198-0.56964-1.577-2.1232-2.3575-2.9193-0.31107-0.31729-2.236-2.3478-2.8958-2.371l0.09051 2.0133c0.07465 1.6603 1.3517 2.7893 3.0003 3.0003z" fill="#2e3440" filter="url(#filter7451)" opacity=".25" stroke-linecap="round" stroke-linejoin="round" stroke-width="1.2274"/>
 <path d="m16.007 6.0427c0.006198-0.56964-1.433-2.1071-2.2135-2.9032-0.31107-0.31729-2.2433-2.1903-2.9032-2.2135l0.09785 1.8558c0.08752 1.6597 1.352 2.7875 3.0003 3.0003z" fill="url(#linearGradient6101)" stroke-linecap="round" stroke-linejoin="round" stroke-width="1.2274"/>
</svg>
