<svg width="64" height="64" version="1.1" viewBox="0 0 16.933 16.933" xmlns="http://www.w3.org/2000/svg">
 <defs>
  <filter id="filter1178" x="-.047999" y="-.047999" width="1.096" height="1.096" color-interpolation-filters="sRGB">
   <feGaussianBlur stdDeviation="0.30691668"/>
  </filter>
  <linearGradient id="linearGradient1340" x1="8.6885" x2="8.6644" y1="15.572" y2="1.366" gradientUnits="userSpaceOnUse">
   <stop stop-color="#e5e9f0" offset="0"/>
   <stop stop-color="#eceff4" offset="1"/>
  </linearGradient>
  <linearGradient id="linearGradient1340-3" x1="8.6885" x2="8.6644" y1="15.572" y2="1.366" gradientTransform="matrix(1.01 0 0 1.01 -.084665 -.084665)" gradientUnits="userSpaceOnUse">
   <stop stop-color="#4c566a" offset="0"/>
   <stop stop-color="#4c566a" stop-opacity=".55" offset="1"/>
  </linearGradient>
  <linearGradient id="linearGradient6101" x1="15.093" x2="13.584" y1="2.1411" y2="3.6506" gradientTransform="rotate(180,13.498,3.354)" gradientUnits="userSpaceOnUse">
   <stop stop-color="#eceff4" offset="0"/>
   <stop stop-color="#d8dee9" offset="1"/>
  </linearGradient>
  <filter id="filter6834" x="-.079225" y="-.079751" width="1.1584" height="1.1595" color-interpolation-filters="sRGB">
   <feGaussianBlur stdDeviation="0.15989484"/>
  </filter>
  <filter id="filter7451" x="-.073049" y="-.072538" width="1.1461" height="1.1451" color-interpolation-filters="sRGB">
   <feGaussianBlur stdDeviation="0.15989484"/>
  </filter>
  <linearGradient id="linearGradient2294" x1="7.9348" x2="7.9348" y1="4.8675" y2="12.23" gradientUnits="userSpaceOnUse">
   <stop stop-color="#eceff4" offset="0"/>
   <stop stop-color="#d8dee9" offset="1"/>
  </linearGradient>
  <filter id="filter2992" x="-.10041" y="-.11684" width="1.2008" height="1.2337" color-interpolation-filters="sRGB">
   <feGaussianBlur stdDeviation="0.39590007"/>
  </filter>
 </defs>
 <g stroke-linecap="round" stroke-linejoin="round">
  <rect transform="matrix(.99138 0 0 1 .072989 .0019055)" x=".79375" y=".90545" width="15.346" height="15.346" rx="3.0526" ry="3.0526" fill="#000000" filter="url(#filter1178)" opacity=".15" stroke-width="1.2489" style="mix-blend-mode:normal"/>
  <rect x=".92604" y=".92604" width="15.081" height="15.081" rx="3" ry="3" fill="url(#linearGradient1340)" stroke-width="1.2274"/>
  <rect x=".01215" y=".0060174" width="16.924" height="16.927" fill="none" opacity=".15" stroke-width="1.052"/>
  <path d="m12.646 8.4665a4.1799 4.1799 0 0 1-4.1799 4.1799 4.1799 4.1799 0 0 1-4.1799-4.1799 4.1799 4.1799 0 0 1 4.1799-4.1799 4.1799 4.1799 0 0 1 4.1799 4.1799zm2.3512-2e-7a6.5311 6.5311 0 0 1-6.5311 6.5311 6.5311 6.5311 0 0 1-6.5311-6.5311 6.5311 6.5311 0 0 1 6.5311-6.5311 6.5311 6.5311 0 0 1 6.5311 6.5311zm-13.062-6.5311v13.062m13.062-13.062v13.062m-13.062 0h13.062m-13.062-13.062 13.062 1e-7 -13.062 13.062m1e-7 -13.062 13.062 13.062m-13.922-6.5311h14.781m-7.3904-7.3904v14.781" fill="none" opacity=".5" stroke="#2e3440" stroke-width=".26458"/>
  <path d="m3.926 0.92604h6.9644c0.90634 0 5.1166 4.1838 5.1166 5.1166v6.9644c0 1.662-1.338 3-3 3h-9.081c-1.662 0-3-1.338-3-3v-9.081c0-1.662 1.338-3 3-3z" fill="#eceff4" stroke-width="1.2274"/>
  <path d="m3.8806 0.85064h7.034c0.9154 0 5.1678 4.2256 5.1678 5.1678v7.034c0 1.6786-1.3514 3.03-3.03 3.03h-9.1718c-1.6786 0-3.03-1.3514-3.03-3.03v-9.1718c0-1.6786 1.3514-3.03 3.03-3.03z" fill="url(#linearGradient1340-3)" stroke-width="1.2397"/>
 </g>
 <g stroke-width=".14786">
  <g transform="translate(.34706 .34706)" fill="#2e3440" filter="url(#filter2992)" opacity=".35">
   <path d="m3.5211 4.5603v8.1324h9.4632v-8.1324zm0.4433 0.29572h8.576c0.08192 0 0.14786 0.065946 0.14786 0.14786v5.323c0 0.08192-0.06595 0.14786-0.14786 0.14786h-8.576c-0.08192 0-0.14786-0.06595-0.14786-0.14786v-5.323c0-0.081915 0.06595-0.14786 0.14786-0.14786zm-0.14786 6.0623h8.8717v1.4786h-8.8717z" opacity=".6"/>
   <path d="m7.6606 5.1506-1.5719 3.7017-0.93107-1.7622-0.89497 0.33009 0.15913 0.53744 0.43117-0.21919 1.1075 2.2916h0.26251l1.8084-4.288h3.6241v0.29572h0.44387v-0.88717h-4.4385zm0.51319 1.6276 1.4298 1.586v0.02021l-1.4757 1.6467h0.73353l1.1448-1.2253h0.02281l1.2586 1.2253h0.79447l-1.6198-1.6736v-0.02021l1.513-1.5592h-0.73353l-1.1973 1.1312h-0.02281l-1.0529-1.1312zm1.2464 4.2733c-0.10506 0-0.17525 0.01557-0.21111 0.04679-0.03544 0.0308-0.05344 0.09276-0.05343 0.18598v0.1519c-1.5e-5 0.06329-0.01115 0.10706-0.0335 0.13111-0.02235 0.02409-0.06325 0.0361-0.12274 0.0361h-0.03928v0.09039h0.03928c0.05907 0 0.0998 0.0122 0.12216 0.03668 0.0228 0.02447 0.03406 0.06857 0.03408 0.13227v0.15133c-1.5e-5 0.09324 0.01798 0.15534 0.05343 0.18656 0.03586 0.03123 0.10605 0.04678 0.21111 0.04678h0.04072v-0.09097h-0.04447c-0.05907 0-0.09768-9e-3 -0.1158-0.02715-0.01772-0.01814-0.02657-0.0575-0.02657-0.11783v-0.15682c0-0.06581-0.0093-0.11386-0.0283-0.14382-0.01899-0.02996-0.05194-0.05071-0.09877-0.06209 0.04641-0.01054 0.07891-0.03069 0.0979-0.06065 0.01935-0.02995 0.02917-0.07815 0.02917-0.1444v-0.15681c0-0.05991 0.0088-0.09882 0.02657-0.11696 0.01813-0.01854 0.05673-0.028 0.1158-0.02801h0.04447v-0.09039zm1.0301 0v0.09039h0.04303c0.0595 1.5e-5 0.09824 0.0094 0.11638 0.02802 0.01819 0.01855 0.02714 0.05746 0.02714 0.11696v0.15681c0 0.06624 0.0096 0.11444 0.02859 0.1444 0.0194 0.02995 0.05235 0.05015 0.09877 0.06064-0.04683 0.01138-0.07978 0.03214-0.09877 0.06209-0.01901 0.02996-0.02859 0.07801-0.02859 0.14382v0.15682c0 0.05948-9e-3 0.0984-0.02714 0.11696-0.01814 0.01853-0.05688 0.02802-0.11638 0.02802h-0.04303v0.09097h0.03928c0.10504 0 0.17509-0.01555 0.21053-0.04678 0.03544-0.03122 0.05314-0.09332 0.05314-0.18656v-0.15133c0-0.0637 0.01142-0.1078 0.03379-0.13227 0.02277-0.02443 0.06383-0.03668 0.12332-0.03668h0.04043v-0.09039h-0.04043c-0.05948 0-0.10054-0.01205-0.12332-0.0361-0.02231-0.02406-0.03379-0.06783-0.03379-0.13111v-0.1519c0-0.09323-0.01769-0.15518-0.05314-0.18598-0.03544-0.03121-0.10549-0.04679-0.21053-0.04679zm-2.1836 0.12996v0.20129h-0.18945v0.09068h0.18945v0.38467c0 0.08564 0.01786 0.14606 0.05372 0.18107 0.03587 0.03501 0.0975 0.05256 0.18483 0.05256h0.14238v-0.09328h-0.13111c-0.04936 0-0.08385-0.01023-0.10368-0.0309-0.01983-0.02069-0.02974-0.05714-0.02974-0.10945v-0.38467h0.26454v-0.09068h-0.26454v-0.20129zm-2.2589 0.16548c-0.08523 0-0.15067 0.01861-0.19667 0.05574-0.04599 0.0367-0.06902 0.08889-0.06902 0.15682 0 0.05358 0.01541 0.09613 0.04621 0.12736 0.0308 0.03079 0.07962 0.05268 0.14671 0.06584l0.04361 0.0087 0.0052 0.0017c0.10336 0.02068 0.15508 0.05776 0.15508 0.11176 0 0.03754-0.01418 0.067-0.04245 0.08808-0.02827 0.02065-0.06809 0.0309-0.11956 0.0309-0.03544 0-0.07326-0.0055-0.11292-0.01646-0.03966-0.0114-0.08101-0.02818-0.12447-0.05054v0.12043c0.04472 0.01476 0.08607 0.02539 0.12447 0.03263 0.03839 0.0075 0.07529 0.01155 0.11032 0.01155 0.0886 0 0.15786-0.01967 0.20764-0.05891 0.04978-0.03966 0.07451-0.09457 0.07451-0.16461 0-0.05273-0.01482-0.09562-0.04476-0.12851-0.02954-0.03291-0.07331-0.05462-0.13111-0.06555l-0.04679-9e-3c-0.07721-0.01477-0.12557-0.03002-0.14497-0.04563-0.01935-0.01562-0.02917-0.03911-0.02917-0.07075 0-0.03501 0.01295-0.0611 0.0387-0.07797 0.02616-0.01722 0.06568-0.02599 0.11841-0.02599 0.03503 0 0.06934 5e-3 0.1031 0.01473 0.03374 0.0097 0.06717 0.02419 0.1005 0.04361v-0.11408c-0.03375-0.01393-0.06807-0.02439-0.1031-0.03119-0.03501-0.0072-0.07148-0.01068-0.10945-0.01068zm0.74249 0.0029c-0.08523 0-0.15234 0.0331-0.20129 0.09934-0.04894 0.06624-0.07335 0.15794-0.07335 0.27522 0 0.11517 0.02441 0.20565 0.07335 0.27146 0.04936 0.06538 0.11649 0.09819 0.20129 0.09819 0.04261 0 0.07999-0.0094 0.11205-0.02801 0.0325-0.01897 0.05812-0.04585 0.07711-0.08086v0.36012h0.11725v-0.97843h-0.11725v0.09039c-0.01941-0.03501-0.0452-0.06158-0.07769-0.07971-0.03207-0.01854-0.06929-0.02773-0.11147-0.02773zm0.98825 0.01126c-0.05527 0-0.10332 0.01343-0.14382 0.04043-0.04009 0.02657-0.06984 0.06503-0.08924 0.11523v-0.13862h-0.11696v0.7087h0.11696v-0.35233c0-0.08606 0.01936-0.15196 0.05776-0.19754 0.03839-0.04557 0.09377-0.06815 0.16634-0.06815 0.0308 0 0.05918 0.0044 0.08491 0.01328 0.02574 0.0089 0.05106 0.02275 0.07595 0.04217v-0.11869c-0.02278-0.0152-0.04673-0.02655-0.07162-0.03379-0.0249-0.0072-0.0516-0.01069-0.08028-0.01069zm1.8789 0.0032 0.25385 0.33933-0.27869 0.36966h0.13487l0.20706-0.28417 0.20735 0.28417h0.13487l-0.2784-0.36966 0.25385-0.33933h-0.13111l-0.18656 0.25645-0.188-0.25645zm-2.8487 0.08433c0.05611-1e-6 0.09839 0.02319 0.12707 0.0696 0.02917 0.04598 0.04361 0.11373 0.04361 0.2036 0 0.08986-0.01449 0.15805-0.04361 0.20447-0.02869 0.04598-0.07096 0.06902-0.12707 0.06902s-0.09866-0.02304-0.12736-0.06902c-0.0282-0.04598-0.04245-0.11418-0.04245-0.20447 0-0.0903 0.01419-0.15819 0.04245-0.20418 0.0287-0.04598 0.07124-0.06902 0.12736-0.06902z"/>
  </g>
  <g fill="url(#linearGradient2294)">
   <path d="m3.5211 4.5603v8.1324h9.4632v-8.1324zm0.4433 0.29572h8.576c0.08192 0 0.14786 0.065946 0.14786 0.14786v5.323c0 0.08192-0.06595 0.14786-0.14786 0.14786h-8.576c-0.08192 0-0.14786-0.06595-0.14786-0.14786v-5.323c0-0.081915 0.06595-0.14786 0.14786-0.14786zm-0.14786 6.0623h8.8717v1.4786h-8.8717z" opacity=".6"/>
   <path d="m7.6606 5.1506-1.5719 3.7017-0.93107-1.7622-0.89497 0.33009 0.15913 0.53744 0.43117-0.21919 1.1075 2.2916h0.26251l1.8084-4.288h3.6241v0.29572h0.44387v-0.88717h-4.4385zm0.51319 1.6276 1.4298 1.586v0.02021l-1.4757 1.6467h0.73353l1.1448-1.2253h0.02281l1.2586 1.2253h0.79447l-1.6198-1.6736v-0.02021l1.513-1.5592h-0.73353l-1.1973 1.1312h-0.02281l-1.0529-1.1312zm1.2464 4.2733c-0.10506 0-0.17525 0.01557-0.21111 0.04679-0.03544 0.0308-0.05344 0.09276-0.05343 0.18598v0.1519c-1.5e-5 0.06329-0.01115 0.10706-0.0335 0.13111-0.02235 0.02409-0.06325 0.0361-0.12274 0.0361h-0.03928v0.09039h0.03928c0.05907 0 0.0998 0.0122 0.12216 0.03668 0.0228 0.02447 0.03406 0.06857 0.03408 0.13227v0.15133c-1.5e-5 0.09324 0.01798 0.15534 0.05343 0.18656 0.03586 0.03123 0.10605 0.04678 0.21111 0.04678h0.04072v-0.09097h-0.04447c-0.05907 0-0.09768-9e-3 -0.1158-0.02715-0.01772-0.01814-0.02657-0.0575-0.02657-0.11783v-0.15682c0-0.06581-0.0093-0.11386-0.0283-0.14382-0.01899-0.02996-0.05194-0.05071-0.09877-0.06209 0.04641-0.01054 0.07891-0.03069 0.0979-0.06065 0.01935-0.02995 0.02917-0.07815 0.02917-0.1444v-0.15681c0-0.05991 0.0088-0.09882 0.02657-0.11696 0.01813-0.01854 0.05673-0.028 0.1158-0.02801h0.04447v-0.09039zm1.0301 0v0.09039h0.04303c0.0595 1.5e-5 0.09824 0.0094 0.11638 0.02802 0.01819 0.01855 0.02714 0.05746 0.02714 0.11696v0.15681c0 0.06624 0.0096 0.11444 0.02859 0.1444 0.0194 0.02995 0.05235 0.05015 0.09877 0.06064-0.04683 0.01138-0.07978 0.03214-0.09877 0.06209-0.01901 0.02996-0.02859 0.07801-0.02859 0.14382v0.15682c0 0.05948-9e-3 0.0984-0.02714 0.11696-0.01814 0.01853-0.05688 0.02802-0.11638 0.02802h-0.04303v0.09097h0.03928c0.10504 0 0.17509-0.01555 0.21053-0.04678 0.03544-0.03122 0.05314-0.09332 0.05314-0.18656v-0.15133c0-0.0637 0.01142-0.1078 0.03379-0.13227 0.02277-0.02443 0.06383-0.03668 0.12332-0.03668h0.04043v-0.09039h-0.04043c-0.05948 0-0.10054-0.01205-0.12332-0.0361-0.02231-0.02406-0.03379-0.06783-0.03379-0.13111v-0.1519c0-0.09323-0.01769-0.15518-0.05314-0.18598-0.03544-0.03121-0.10549-0.04679-0.21053-0.04679zm-2.1836 0.12996v0.20129h-0.18945v0.09068h0.18945v0.38467c0 0.08564 0.01786 0.14606 0.05372 0.18107 0.03587 0.03501 0.0975 0.05256 0.18483 0.05256h0.14238v-0.09328h-0.13111c-0.04936 0-0.08385-0.01023-0.10368-0.0309-0.01983-0.02069-0.02974-0.05714-0.02974-0.10945v-0.38467h0.26454v-0.09068h-0.26454v-0.20129zm-2.2589 0.16548c-0.08523 0-0.15067 0.01861-0.19667 0.05574-0.04599 0.0367-0.06902 0.08889-0.06902 0.15682 0 0.05358 0.01541 0.09613 0.04621 0.12736 0.0308 0.03079 0.07962 0.05268 0.14671 0.06584l0.04361 0.0087 0.0052 0.0017c0.10336 0.02068 0.15508 0.05776 0.15508 0.11176 0 0.03754-0.01418 0.067-0.04245 0.08808-0.02827 0.02065-0.06809 0.0309-0.11956 0.0309-0.03544 0-0.07326-0.0055-0.11292-0.01646-0.03966-0.0114-0.08101-0.02818-0.12447-0.05054v0.12043c0.04472 0.01476 0.08607 0.02539 0.12447 0.03263 0.03839 0.0075 0.07529 0.01155 0.11032 0.01155 0.0886 0 0.15786-0.01967 0.20764-0.05891 0.04978-0.03966 0.07451-0.09457 0.07451-0.16461 0-0.05273-0.01482-0.09562-0.04476-0.12851-0.02954-0.03291-0.07331-0.05462-0.13111-0.06555l-0.04679-9e-3c-0.07721-0.01477-0.12557-0.03002-0.14497-0.04563-0.01935-0.01562-0.02917-0.03911-0.02917-0.07075 0-0.03501 0.01295-0.0611 0.0387-0.07797 0.02616-0.01722 0.06568-0.02599 0.11841-0.02599 0.03503 0 0.06934 5e-3 0.1031 0.01473 0.03374 0.0097 0.06717 0.02419 0.1005 0.04361v-0.11408c-0.03375-0.01393-0.06807-0.02439-0.1031-0.03119-0.03501-0.0072-0.07148-0.01068-0.10945-0.01068zm0.74249 0.0029c-0.08523 0-0.15234 0.0331-0.20129 0.09934-0.04894 0.06624-0.07335 0.15794-0.07335 0.27522 0 0.11517 0.02441 0.20565 0.07335 0.27146 0.04936 0.06538 0.11649 0.09819 0.20129 0.09819 0.04261 0 0.07999-0.0094 0.11205-0.02801 0.0325-0.01897 0.05812-0.04585 0.07711-0.08086v0.36012h0.11725v-0.97843h-0.11725v0.09039c-0.01941-0.03501-0.0452-0.06158-0.07769-0.07971-0.03207-0.01854-0.06929-0.02773-0.11147-0.02773zm0.98825 0.01126c-0.05527 0-0.10332 0.01343-0.14382 0.04043-0.04009 0.02657-0.06984 0.06503-0.08924 0.11523v-0.13862h-0.11696v0.7087h0.11696v-0.35233c0-0.08606 0.01936-0.15196 0.05776-0.19754 0.03839-0.04557 0.09377-0.06815 0.16634-0.06815 0.0308 0 0.05918 0.0044 0.08491 0.01328 0.02574 0.0089 0.05106 0.02275 0.07595 0.04217v-0.11869c-0.02278-0.0152-0.04673-0.02655-0.07162-0.03379-0.0249-0.0072-0.0516-0.01069-0.08028-0.01069zm1.8789 0.0032 0.25385 0.33933-0.27869 0.36966h0.13487l0.20706-0.28417 0.20735 0.28417h0.13487l-0.2784-0.36966 0.25385-0.33933h-0.13111l-0.18656 0.25645-0.188-0.25645zm-2.8487 0.08433c0.05611-1e-6 0.09839 0.02319 0.12707 0.0696 0.02917 0.04598 0.04361 0.11373 0.04361 0.2036 0 0.08986-0.01449 0.15805-0.04361 0.20447-0.02869 0.04598-0.07096 0.06902-0.12707 0.06902s-0.09866-0.02304-0.12736-0.06902c-0.0282-0.04598-0.04245-0.11418-0.04245-0.20447 0-0.0903 0.01419-0.15819 0.04245-0.20418 0.0287-0.04598 0.07124-0.06902 0.12736-0.06902z"/>
  </g>
 </g>
 <g transform="translate(.073622 -.073622)" stroke-linecap="round" stroke-linejoin="round" stroke-width="1.2274">
  <path d="m15.972 5.8039c0.006198-0.56964-1.2579-2.0081-2.0384-2.8042-0.31107-0.31729-2.1363-1.9845-2.7961-2.0076l-0.0092 1.6499c-0.0093 1.662 1.3446 2.8551 3.0003 3.0003z" fill="#2e3440" filter="url(#filter6834)" opacity=".3"/>
  <path d="m15.978 6.2319c0.006198-0.56964-1.577-2.1232-2.3575-2.9193-0.31107-0.31729-2.236-2.3478-2.8958-2.371l0.09051 2.0133c0.07465 1.6603 1.3517 2.7893 3.0003 3.0003z" fill="#2e3440" filter="url(#filter7451)" opacity=".25"/>
  <path d="m16.007 6.0427c0.006198-0.56964-1.433-2.1071-2.2135-2.9032-0.31107-0.31729-2.2433-2.1903-2.9032-2.2135l0.09785 1.8558c0.08752 1.6597 1.352 2.7875 3.0003 3.0003z" fill="url(#linearGradient6101)"/>
 </g>
</svg>
