<svg width="64" height="64" version="1.1" viewBox="0 0 16.933 16.933" xmlns="http://www.w3.org/2000/svg">
 <defs>
  <filter id="filter1178" x="-.047999" y="-.047999" width="1.096" height="1.096" color-interpolation-filters="sRGB">
   <feGaussianBlur stdDeviation="0.30691668"/>
  </filter>
  <linearGradient id="linearGradient1340" x1="8.6644" x2="8.6644" y1="15.931" y2=".79375" gradientUnits="userSpaceOnUse">
   <stop stop-color="#5e81ac" offset="0"/>
   <stop stop-color="#88c0d0" offset="1"/>
  </linearGradient>
  <filter id="filter1025" x="-.061476" y="-.059311" width="1.123" height="1.1186" color-interpolation-filters="sRGB">
   <feGaussianBlur stdDeviation="0.29114878"/>
  </filter>
 </defs>
 <g stroke-linecap="round" stroke-linejoin="round">
  <rect transform="matrix(.99138 0 0 1 .072989 .0019055)" x=".79375" y=".90545" width="15.346" height="15.346" rx="3.0526" ry="3.0526" filter="url(#filter1178)" opacity=".15" stroke-width="1.2489" style="mix-blend-mode:normal"/>
  <rect x=".92604" y=".92604" width="15.081" height="15.081" rx="3" ry="3" fill="url(#linearGradient1340)" stroke-width="1.2274"/>
  <rect x=".01215" y=".0060174" width="16.924" height="16.927" fill="none" opacity=".15" stroke-width="1.052"/>
 </g>
 <path d="m11.169 4.136c-0.034042-0.006555-0.2189 0.12014-0.41082 0.28163-1.0008 0.84217-1.7612 1.4198-2.2908 1.7399-0.25272 0.15275-0.25384 0.15291-0.68005 0.14366-0.50462-0.01094-0.57575 0.015267-1.4175 0.52554-0.29153 0.17674-0.61972 0.35561-0.72966 0.39738-0.11049 0.041983-0.46131 0.1027-0.78443 0.13591-0.66362 0.068206-0.84154 0.10979-1.0898 0.25321-0.24555 0.14183-0.307 0.24694-0.25476 0.43614 0.051151 0.18526 0.32322 0.54998 0.65008 0.87125l0.24598 0.24184-0.19017 0.29352c-0.10462 0.16152-0.26213 0.45981-0.34984 0.663-0.17431 0.40382-0.22199 0.48024-0.56946 0.90794-0.30101 0.37051-0.63406 0.90363-0.94566 1.5141-0.26635 0.52182-0.7456 0.8736-1.2345 1.1534 0.34084 1.2827 1.5061 2.2226 2.899 2.2226h4.5722c0.024349-0.45759 0.44052-1.7954 0.73069-2.1259 0.25523-0.29069 0.304-0.52247 0.30902-1.4665 0.00415-0.78153 0.012726-0.87274 0.11317-1.2232 0.17098-0.59652 0.34813-1.0178 0.55499-1.3198 0.10513-0.15346 0.27299-0.42748 0.3731-0.60874s0.24546-0.42549 0.32297-0.54259c0.20249-0.30591 0.6353-0.72789 0.84903-0.82836 0.23885-0.11227 0.50202-0.41478 0.5891-0.67695 0.08951-0.2695 0.06218-0.69504-0.05478-0.85109-0.06892-0.091957-0.1128-0.108-0.28938-0.108-0.16173 0-0.23118-0.021735-0.3116-0.09715-0.11061-0.10374-0.19172-0.089729-0.19172 0.033072 0 0.096313-0.14728 0.28045-0.19016 0.23771-0.01786-0.017803 9.17e-4 -0.12004 0.04186-0.22686 0.15003-0.39147 0.19914-0.64156 0.17518-0.8945-0.039499-0.41705-0.29974-1.0548-0.44131-1.0821zm-2.9698 2.5993-0.38085 0.4873-0.61184 0.085781 0.38033-0.4873z" fill="#2e3440" filter="url(#filter1025)" opacity=".2" stroke-width=".041196"/>
 <path d="m11.079 4.226c-0.034042-0.006555-0.2189 0.12014-0.41082 0.28163-1.0008 0.84217-1.7612 1.4198-2.2908 1.7399-0.25272 0.15275-0.25384 0.15291-0.68005 0.14366-0.50462-0.01094-0.57575 0.015267-1.4175 0.52554-0.29153 0.17674-0.61972 0.35561-0.72966 0.39738-0.11049 0.041983-0.46131 0.1027-0.78443 0.13591-0.66362 0.068206-0.84154 0.10979-1.0898 0.25321-0.24555 0.14183-0.307 0.24694-0.25476 0.43614 0.051151 0.18526 0.32322 0.54998 0.65008 0.87125l0.24598 0.24184-0.19017 0.29352c-0.10462 0.16152-0.26213 0.45981-0.34984 0.663-0.17431 0.40382-0.22199 0.48024-0.56946 0.90794-0.30101 0.37051-0.63406 0.90363-0.94566 1.5141-0.26635 0.52182-0.7456 0.8736-1.2345 1.1534 0.34084 1.2827 1.5061 2.2226 2.899 2.2226h4.5722c0.024348-0.45759 0.44052-1.7954 0.73069-2.1259 0.25523-0.29069 0.304-0.52247 0.30902-1.4665 0.0041518-0.78153 0.012726-0.87274 0.11317-1.2232 0.17098-0.59652 0.34813-1.0178 0.55499-1.3198 0.10513-0.15346 0.27299-0.42748 0.3731-0.60874s0.24546-0.42549 0.32297-0.54259c0.20249-0.30591 0.6353-0.72789 0.84903-0.82836 0.23885-0.11227 0.50202-0.41478 0.5891-0.67695 0.089511-0.2695 0.062179-0.69504-0.054776-0.85109-0.068921-0.091957-0.1128-0.108-0.28938-0.108-0.16173 0-0.23118-0.021735-0.3116-0.09715-0.11061-0.10374-0.19172-0.089729-0.19172 0.033072 0 0.096313-0.14728 0.28045-0.19016 0.23771-0.01786-0.017803 9.17e-4 -0.12004 0.041857-0.22686 0.15003-0.39147 0.19914-0.64157 0.17518-0.8945-0.039499-0.41705-0.29974-1.0548-0.44131-1.0821zm-2.9698 2.5993-0.38085 0.4873-0.61184 0.085781 0.38033-0.4873 0.61235-0.085781z" fill="#fff" stroke-width=".041196"/>
</svg>
