<svg width="64" height="64" version="1.1" viewBox="0 0 16.933 16.933" xmlns="http://www.w3.org/2000/svg" xmlns:xlink="http://www.w3.org/1999/xlink">
 <defs>
  <linearGradient id="linearGradient4751">
   <stop stop-color="#4c566a" stop-opacity=".7" offset="0"/>
   <stop stop-color="#2e3440" stop-opacity=".7" offset="1"/>
  </linearGradient>
  <filter id="filter1178" x="-.047999" y="-.047999" width="1.096" height="1.096" color-interpolation-filters="sRGB">
   <feGaussianBlur stdDeviation="0.30691668"/>
  </filter>
  <linearGradient id="linearGradient1340" x1="8.6885" x2="8.6644" y1="15.572" y2="1.366" gradientUnits="userSpaceOnUse">
   <stop stop-color="#e5e9f0" offset="0"/>
   <stop stop-color="#eceff4" offset="1"/>
  </linearGradient>
  <linearGradient id="linearGradient1340-3" x1="8.6885" x2="8.6644" y1="15.572" y2="1.366" gradientUnits="userSpaceOnUse">
   <stop stop-color="#d08770" offset="0"/>
   <stop stop-color="#ebcb8b" offset="1"/>
  </linearGradient>
  <linearGradient id="linearGradient6101" x1="15.093" x2="13.584" y1="2.1411" y2="3.6506" gradientTransform="rotate(180 13.498 3.354)" gradientUnits="userSpaceOnUse">
   <stop stop-color="#eceff4" offset="0"/>
   <stop stop-color="#d8dee9" offset="1"/>
  </linearGradient>
  <filter id="filter6834" x="-.079225" y="-.079751" width="1.1584" height="1.1595" color-interpolation-filters="sRGB">
   <feGaussianBlur stdDeviation="0.15989484"/>
  </filter>
  <filter id="filter7451" x="-.073049" y="-.072538" width="1.1461" height="1.1451" color-interpolation-filters="sRGB">
   <feGaussianBlur stdDeviation="0.15989484"/>
  </filter>
  <linearGradient id="linearGradient3489" x1="20.914" x2="20.914" y1="28.136" y2="33.681" gradientTransform="translate(-13.881)" gradientUnits="userSpaceOnUse">
   <stop stop-color="#bf616a" offset="0"/>
   <stop stop-color="#d08770" offset="1"/>
  </linearGradient>
  <linearGradient id="linearGradient4045" x1="24.535" x2="24.535" y1="33.083" y2="31.334" gradientTransform="translate(-13.881)" gradientUnits="userSpaceOnUse">
   <stop stop-color="#a3be8c" offset="0"/>
   <stop stop-color="#8fbcbb" offset="1"/>
  </linearGradient>
  <linearGradient id="linearGradient4753" x1="24.861" x2="24.901" y1="31.473" y2="33.06" gradientTransform="matrix(.90068 0 0 .90068 -11.751 -20.317)" gradientUnits="userSpaceOnUse" xlink:href="#linearGradient4751"/>
  <linearGradient id="linearGradient5111" x1="24.814" x2="24.814" y1="33.688" y2="30.807" gradientTransform="translate(-13.881)" gradientUnits="userSpaceOnUse">
   <stop stop-color="#2e3440" stop-opacity=".7" offset="0"/>
   <stop stop-color="#4c566a" stop-opacity=".7" offset="1"/>
  </linearGradient>
  <linearGradient id="linearGradient5311" x1="21.302" x2="21.302" y1="27.183" y2="34.706" gradientTransform="matrix(.90068 0 0 .90068 -11.751 -20.317)" gradientUnits="userSpaceOnUse">
   <stop stop-color="#bf616a" offset="0"/>
   <stop stop-color="#d08770" offset="1"/>
  </linearGradient>
  <linearGradient id="linearGradient5493" x1="22.045" x2="22.045" y1="36.481" y2="34.942" gradientTransform="matrix(.90068 0 0 .90068 -11.751 -20.317)" gradientUnits="userSpaceOnUse">
   <stop stop-color="#2e3440" offset="0"/>
   <stop stop-color="#4c566a" offset="1"/>
  </linearGradient>
  <linearGradient id="linearGradient5957" x1="9.1528" x2="9.1528" y1="27.72" y2="34.262" gradientTransform="matrix(.90068 0 0 .90068 .7518 -20.317)" gradientUnits="userSpaceOnUse">
   <stop stop-color="#eceff4" offset="0"/>
   <stop stop-color="#d8dee9" offset="1"/>
  </linearGradient>
  <filter id="filter6207" x="-.061305" y="-.096567" width="1.1226" height="1.1931" color-interpolation-filters="sRGB">
   <feGaussianBlur stdDeviation="0.23188997"/>
  </filter>
  <filter id="filter6292" x="-.070161" y="-.080555" width="1.1403" height="1.1611" color-interpolation-filters="sRGB">
   <feGaussianBlur stdDeviation="0.31642425"/>
  </filter>
  <linearGradient id="linearGradient973" x1="24.861" x2="24.901" y1="31.473" y2="33.06" gradientTransform="translate(-13.881)" gradientUnits="userSpaceOnUse" xlink:href="#linearGradient4751"/>
 </defs>
 <g stroke-linecap="round" stroke-linejoin="round">
  <rect transform="matrix(.99138 0 0 1 .072989 .0019055)" x=".79375" y=".90545" width="15.346" height="15.346" rx="3.0526" ry="3.0526" fill="#000000" filter="url(#filter1178)" opacity=".15" stroke-width="1.2489" style="mix-blend-mode:normal"/>
  <rect x=".92604" y=".92604" width="15.081" height="15.081" rx="3" ry="3" fill="url(#linearGradient1340)" stroke-width="1.2274"/>
  <rect x=".01215" y=".0060174" width="16.924" height="16.927" fill="none" opacity=".15" stroke-width="1.052"/>
  <path d="m12.646 8.4665a4.1799 4.1799 0 0 1-4.1799 4.1799 4.1799 4.1799 0 0 1-4.1799-4.1799 4.1799 4.1799 0 0 1 4.1799-4.1799 4.1799 4.1799 0 0 1 4.1799 4.1799zm2.3512-2e-7a6.5311 6.5311 0 0 1-6.5311 6.5311 6.5311 6.5311 0 0 1-6.5311-6.5311 6.5311 6.5311 0 0 1 6.5311-6.5311 6.5311 6.5311 0 0 1 6.5311 6.5311zm-13.062-6.5311v13.062m13.062-13.062v13.062m-13.062 0h13.062m-13.062-13.062 13.062 1e-7 -13.062 13.062m1e-7 -13.062 13.062 13.062m-13.922-6.5311h14.781m-7.3904-7.3904v14.781" fill="none" opacity=".5" stroke="#2e3440" stroke-width=".26458"/>
  <path d="m3.926 0.92604h6.9644c0.90634 0 5.1166 4.1838 5.1166 5.1166v6.9644c0 1.662-1.338 3-3 3h-9.081c-1.662 0-3-1.338-3-3v-9.081c0-1.662 1.338-3 3-3z" fill="url(#linearGradient1340-3)" stroke-width="1.2274"/>
  <path d="m15.972 5.8039c0.006198-0.56964-1.2579-2.0081-2.0384-2.8042-0.31107-0.31729-2.1363-1.9845-2.7961-2.0076l-0.0092 1.6499c-0.0093 1.662 1.3446 2.8551 3.0003 3.0003z" fill="#2e3440" filter="url(#filter6834)" opacity=".3" stroke-width="1.2274"/>
 </g>
 <rect transform="matrix(.90068 0 0 .90068 .92992 -20.072)" x="3.3732" y="27.457" width="10.295" height="7.1259" fill="#2e3440" filter="url(#filter6292)" opacity=".21" stroke-width="1.1103"/>
 <g transform="matrix(.90068 0 0 .90068 .92992 -20.072)" fill="#2e3440" filter="url(#filter6292)" opacity=".3" stroke-width="1.1103">
  <g transform="translate(.086519 .098879)" filter="url(#filter6207)" opacity=".25">
   <path d="m8.897 31.965h3.4376m-3.4376 0.52916h3.4376m-3.4376 0.52916h3.4376m-3.4376-1.5875h3.4376" stroke="url(#linearGradient973)" stroke-width=".20563"/>
   <g stroke-width="1.1103">
    <path d="m9.0319 33.258c-0.08528-0.0366-0.16189-0.15143-0.16189-0.24268 0-0.09548 0.06049-0.16496 0.72366-0.83115 0.49611-0.49838 0.5082-0.49922 0.92826-0.06508l0.26619 0.27513 0.16416-0.16249c0.09029-0.08937 0.16044-0.16621 0.15589-0.17076-0.0045-0.0046 0.07874-0.08628 0.18508-0.18163s0.25029-0.23841 0.31987-0.31792c0.06959-0.07951 0.13634-0.15275 0.14834-0.16276s0.0682-0.05695 0.12489-0.10432 0.12383-0.09272 0.1492-0.10077c0.14578-0.04627 0.32602 0.09326 0.32602 0.25237 0 0.07834-0.01619 0.10371-0.16656 0.26111-0.09161 0.09589-0.16112 0.17434-0.15447 0.17434 0.0067 0-0.02564 0.03928-0.07177 0.08729s-0.09271 0.08729-0.10353 0.08729c-0.02383 0-0.34151 0.32972-0.42659 0.44277-0.03352 0.04453-0.07303 0.08097-0.0878 0.08097-0.0325 0-0.3702 0.33577-0.35399 0.35197 0.02586 0.02586-0.18644 0.10937-0.24523 0.09646-0.03708-0.0081-0.17094-0.12129-0.3505-0.29627-0.15978-0.1557-0.29846-0.2831-0.30819-0.2831-0.02229 0-0.50688 0.46147-0.496 0.47234 0.01068 0.01068-0.15324 0.18233-0.17412 0.18233-9e-3 0-0.0523 0.03514-0.09628 0.07808-0.08494 0.08294-0.20622 0.11442-0.29464 0.07647z"/>
    <path d="m8.3463 32.23v-1.5712h4.539v3.1424h-4.539zm4.1899 0v-1.2221h-3.8407v2.4441h3.8407z"/>
    <path d="m4.123 33.75c-0.10481-0.05285-0.19557-0.1921-0.19557-0.30006s0.09076-0.2472 0.19557-0.30006c0.05355-0.027 0.12267-0.0491 0.15359-0.0491s0.10004 0.0221 0.15359 0.0491c0.10481 0.05285 0.19557 0.1921 0.19557 0.30006 0 0.03092-0.0221 0.10004-0.0491 0.15359-0.05285 0.10481-0.1921 0.19557-0.30006 0.19557-0.03092 0-0.10004-0.02209-0.15359-0.0491zm1.0265-0.30006v-0.34916h2.6187v0.69831h-2.6187zm-1.0265-0.92199c-0.10481-0.05285-0.19557-0.1921-0.19557-0.30006s0.09076-0.2472 0.19557-0.30006c0.05355-0.027 0.12267-0.0491 0.15359-0.0491s0.10004 0.0221 0.15359 0.0491c0.10481 0.05285 0.19557 0.1921 0.19557 0.30006 0 0.09964-0.09112 0.24682-0.18549 0.29961-0.11095 0.06207-0.19483 0.06218-0.31726 4.5e-4zm1.0265-0.30006v-0.34916h2.6187v0.69832h-2.6187zm-1.0265-0.92199c-0.10481-0.05285-0.19557-0.1921-0.19557-0.30006s0.09076-0.2472 0.19557-0.30006c0.05355-0.027 0.12267-0.0491 0.15359-0.0491s0.10004 0.0221 0.15359 0.0491c0.10481 0.05285 0.19557 0.1921 0.19557 0.30006 0 0.03092-0.0221 0.10004-0.0491 0.15359-0.05285 0.10481-0.1921 0.19557-0.30006 0.19557-0.03092 0-0.10004-0.0221-0.15359-0.0491zm1.0265-0.30006v-0.34916h2.6187v0.69831h-2.6187zm0.52374-1.3966v-0.34916h5.5865v0.69832h-5.5865zm-1.7458-1.2221v-0.34916h9.0781v0.69832h-9.0781z"/>
   </g>
  </g>
  <path d="m8.897 31.965h3.4376m-3.4376 0.52916h3.4376m-3.4376 0.52916h3.4376m-3.4376-1.5875h3.4376" stroke="url(#linearGradient973)" stroke-width=".20563"/>
  <g stroke-width="1.1103">
   <path d="m9.0319 33.258c-0.08528-0.0366-0.16189-0.15143-0.16189-0.24268 0-0.09548 0.06049-0.16496 0.72366-0.83115 0.49611-0.49838 0.5082-0.49922 0.92826-0.06508l0.26619 0.27513 0.16416-0.16249c0.09029-0.08937 0.16044-0.16621 0.15589-0.17076-0.0045-0.0046 0.07874-0.08628 0.18508-0.18163s0.25029-0.23841 0.31987-0.31792c0.06959-0.07951 0.13634-0.15275 0.14834-0.16276s0.0682-0.05695 0.12489-0.10432 0.12383-0.09272 0.1492-0.10077c0.14578-0.04627 0.32602 0.09326 0.32602 0.25237 0 0.07834-0.01619 0.10371-0.16656 0.26111-0.09161 0.09589-0.16112 0.17434-0.15447 0.17434 0.0067 0-0.02564 0.03928-0.07177 0.08729s-0.09271 0.08729-0.10353 0.08729c-0.02383 0-0.34151 0.32972-0.42659 0.44277-0.03352 0.04453-0.07303 0.08097-0.0878 0.08097-0.0325 0-0.3702 0.33577-0.35399 0.35197 0.02586 0.02586-0.18644 0.10937-0.24523 0.09646-0.03708-0.0081-0.17094-0.12129-0.3505-0.29627-0.15978-0.1557-0.29846-0.2831-0.30819-0.2831-0.02229 0-0.50688 0.46147-0.496 0.47234 0.01068 0.01068-0.15324 0.18233-0.17412 0.18233-9e-3 0-0.0523 0.03514-0.09628 0.07808-0.08494 0.08294-0.20622 0.11442-0.29464 0.07647z"/>
   <path d="m8.3463 32.23v-1.5712h4.539v3.1424h-4.539zm4.1899 0v-1.2221h-3.8407v2.4441h3.8407z"/>
   <path d="m4.123 33.75c-0.10481-0.05285-0.19557-0.1921-0.19557-0.30006s0.09076-0.2472 0.19557-0.30006c0.05355-0.027 0.12267-0.0491 0.15359-0.0491s0.10004 0.0221 0.15359 0.0491c0.10481 0.05285 0.19557 0.1921 0.19557 0.30006 0 0.03092-0.0221 0.10004-0.0491 0.15359-0.05285 0.10481-0.1921 0.19557-0.30006 0.19557-0.03092 0-0.10004-0.02209-0.15359-0.0491zm1.0265-0.30006v-0.34916h2.6187v0.69831h-2.6187zm-1.0265-0.92199c-0.10481-0.05285-0.19557-0.1921-0.19557-0.30006s0.09076-0.2472 0.19557-0.30006c0.05355-0.027 0.12267-0.0491 0.15359-0.0491s0.10004 0.0221 0.15359 0.0491c0.10481 0.05285 0.19557 0.1921 0.19557 0.30006 0 0.09964-0.09112 0.24682-0.18549 0.29961-0.11095 0.06207-0.19483 0.06218-0.31726 4.5e-4zm1.0265-0.30006v-0.34916h2.6187v0.69832h-2.6187zm-1.0265-0.92199c-0.10481-0.05285-0.19557-0.1921-0.19557-0.30006s0.09076-0.2472 0.19557-0.30006c0.05355-0.027 0.12267-0.0491 0.15359-0.0491s0.10004 0.0221 0.15359 0.0491c0.10481 0.05285 0.19557 0.1921 0.19557 0.30006 0 0.03092-0.0221 0.10004-0.0491 0.15359-0.05285 0.10481-0.1921 0.19557-0.30006 0.19557-0.03092 0-0.10004-0.0221-0.15359-0.0491zm1.0265-0.30006v-0.34916h2.6187v0.69831h-2.6187zm0.52374-1.3966v-0.34916h5.5865v0.69832h-5.5865zm-1.7458-1.2221v-0.34916h9.0781v0.69832h-9.0781z"/>
  </g>
  <path d="m6.3716 36.195c0.28205-0.1867 0.75096-0.49706 1.042-0.6897l0.52919-0.35024v-0.36593h-4.8882v-7.6815h10.824v7.6815h-4.8882l0.0014 0.18004 0.0014 0.18003 1.0351 0.68548c0.56932 0.37702 1.0351 0.6888 1.0351 0.69286 0 0.0041-0.22954 0.0074-0.51008 0.0074h-0.51001l-0.76387-0.61105c-0.5176-0.41403-0.78055-0.61102-0.81563-0.611-0.03225 1.8e-5 -0.14227 0.07214-0.29181 0.1913-0.13202 0.1052-0.47918 0.38015-0.77146 0.611l-0.53141 0.41972-1.0103-4.61e-4zm7.1042-1.8086 0.05356-0.05356v-6.7689l-0.10712-0.10712h-9.9113l-0.10712 0.10712v6.7689l0.10712 0.10712h9.9113z"/>
  <path d="m8.9916 34.79 0.0014 0.3592 1.0351 0.68548c0.56932 0.37702 1.0351 0.6888 1.0351 0.69286 0 0.0041-0.22953 0.0074-0.51008 0.0074h-0.51001l-0.76387-0.61105c-0.5176-0.41403-0.78055-0.61102-0.81563-0.611-0.03225 1.8e-5 -0.14227 0.07214-0.29181 0.1913-0.13203 0.1052-0.47918 0.38015-0.77146 0.611l-0.53141 0.41972-1.0103-4.61e-4 0.51282-0.33946c0.28205-0.1867 0.75096-0.49707 1.042-0.6897l0.52919-0.35024v-0.36523"/>
 </g>
 <rect x="3.79" y="4.413" width="9.2725" height="6.4182" fill="url(#linearGradient5957)"/>
 <g transform="matrix(.90068 0 0 .90068 .82973 -20.228)" fill="#2e3440" filter="url(#filter6207)" opacity=".25">
  <path d="m8.897 31.965h3.4376m-3.4376 0.52916h3.4376m-3.4376 0.52916h3.4376m-3.4376-1.5875h3.4376" stroke="url(#linearGradient973)" stroke-width=".20563"/>
  <g stroke-width="1.1103">
   <path d="m9.0319 33.258c-0.08528-0.0366-0.16189-0.15143-0.16189-0.24268 0-0.09548 0.06049-0.16496 0.72366-0.83115 0.49611-0.49838 0.5082-0.49922 0.92826-0.06508l0.26619 0.27513 0.16416-0.16249c0.09029-0.08937 0.16044-0.16621 0.15589-0.17076-0.0045-0.0046 0.07874-0.08628 0.18508-0.18163s0.25029-0.23841 0.31987-0.31792c0.06959-0.07951 0.13634-0.15275 0.14834-0.16276s0.0682-0.05695 0.12489-0.10432 0.12383-0.09272 0.1492-0.10077c0.14578-0.04627 0.32602 0.09326 0.32602 0.25237 0 0.07834-0.01619 0.10371-0.16656 0.26111-0.09161 0.09589-0.16112 0.17434-0.15447 0.17434 0.0067 0-0.02564 0.03928-0.07177 0.08729s-0.09271 0.08729-0.10353 0.08729c-0.02383 0-0.34151 0.32972-0.42659 0.44277-0.03352 0.04453-0.07303 0.08097-0.0878 0.08097-0.0325 0-0.3702 0.33577-0.35399 0.35197 0.02586 0.02586-0.18644 0.10937-0.24523 0.09646-0.03708-0.0081-0.17094-0.12129-0.3505-0.29627-0.15978-0.1557-0.29846-0.2831-0.30819-0.2831-0.02229 0-0.50688 0.46147-0.496 0.47234 0.01068 0.01068-0.15324 0.18233-0.17412 0.18233-9e-3 0-0.0523 0.03514-0.09628 0.07808-0.08494 0.08294-0.20622 0.11442-0.29464 0.07647z"/>
   <path d="m8.3463 32.23v-1.5712h4.539v3.1424h-4.539zm4.1899 0v-1.2221h-3.8407v2.4441h3.8407z"/>
   <path d="m4.123 33.75c-0.10481-0.05285-0.19557-0.1921-0.19557-0.30006s0.09076-0.2472 0.19557-0.30006c0.05355-0.027 0.12267-0.0491 0.15359-0.0491s0.10004 0.0221 0.15359 0.0491c0.10481 0.05285 0.19557 0.1921 0.19557 0.30006 0 0.03092-0.0221 0.10004-0.0491 0.15359-0.05285 0.10481-0.1921 0.19557-0.30006 0.19557-0.03092 0-0.10004-0.02209-0.15359-0.0491zm1.0265-0.30006v-0.34916h2.6187v0.69831h-2.6187zm-1.0265-0.92199c-0.10481-0.05285-0.19557-0.1921-0.19557-0.30006s0.09076-0.2472 0.19557-0.30006c0.05355-0.027 0.12267-0.0491 0.15359-0.0491s0.10004 0.0221 0.15359 0.0491c0.10481 0.05285 0.19557 0.1921 0.19557 0.30006 0 0.09964-0.09112 0.24682-0.18549 0.29961-0.11095 0.06207-0.19483 0.06218-0.31726 4.5e-4zm1.0265-0.30006v-0.34916h2.6187v0.69832h-2.6187zm-1.0265-0.92199c-0.10481-0.05285-0.19557-0.1921-0.19557-0.30006s0.09076-0.2472 0.19557-0.30006c0.05355-0.027 0.12267-0.0491 0.15359-0.0491s0.10004 0.0221 0.15359 0.0491c0.10481 0.05285 0.19557 0.1921 0.19557 0.30006 0 0.03092-0.0221 0.10004-0.0491 0.15359-0.05285 0.10481-0.1921 0.19557-0.30006 0.19557-0.03092 0-0.10004-0.0221-0.15359-0.0491zm1.0265-0.30006v-0.34916h2.6187v0.69831h-2.6187zm0.52374-1.3966v-0.34916h5.5865v0.69832h-5.5865zm-1.7458-1.2221v-0.34916h9.0781v0.69832h-9.0781z"/>
  </g>
 </g>
 <path d="m8.7652 8.4732h3.0962m-3.0962 0.4766h3.0962m-3.0962 0.4766h3.0962m-3.0962-1.4298h3.0962" fill="#4c566a" stroke="url(#linearGradient4753)" stroke-width=".18521"/>
 <g transform="matrix(.90068 0 0 .90068 .7518 -20.317)" stroke-width="1.1103">
  <path d="m9.0319 33.258c-0.08528-0.0366-0.16189-0.15143-0.16189-0.24268 0-0.09548 0.06049-0.16496 0.72366-0.83115 0.49611-0.49838 0.5082-0.49922 0.92826-0.06508l0.26619 0.27513 0.16416-0.16249c0.09029-0.08937 0.16044-0.16621 0.15589-0.17076-0.0045-0.0046 0.07874-0.08628 0.18508-0.18163s0.25029-0.23841 0.31987-0.31792c0.06959-0.07951 0.13634-0.15275 0.14834-0.16276s0.0682-0.05695 0.12489-0.10432 0.12383-0.09272 0.1492-0.10077c0.14578-0.04627 0.32602 0.09326 0.32602 0.25237 0 0.07834-0.01619 0.10371-0.16656 0.26111-0.09161 0.09589-0.16112 0.17434-0.15447 0.17434 0.0067 0-0.02564 0.03928-0.07177 0.08729s-0.09271 0.08729-0.10353 0.08729c-0.02383 0-0.34151 0.32972-0.42659 0.44277-0.03352 0.04453-0.07303 0.08097-0.0878 0.08097-0.0325 0-0.3702 0.33577-0.35399 0.35197 0.02586 0.02586-0.18644 0.10937-0.24523 0.09646-0.03708-0.0081-0.17094-0.12129-0.3505-0.29627-0.15978-0.1557-0.29846-0.2831-0.30819-0.2831-0.02229 0-0.50688 0.46147-0.496 0.47234 0.01068 0.01068-0.15324 0.18233-0.17412 0.18233-9e-3 0-0.0523 0.03514-0.09628 0.07808-0.08494 0.08294-0.20622 0.11442-0.29464 0.07647z" fill="url(#linearGradient4045)"/>
  <path d="m8.3463 32.23v-1.5712h4.539v3.1424h-4.539zm4.1899 0v-1.2221h-3.8407v2.4441h3.8407z" fill="url(#linearGradient5111)"/>
  <path d="m4.123 33.75c-0.10481-0.05285-0.19557-0.1921-0.19557-0.30006s0.09076-0.2472 0.19557-0.30006c0.05355-0.027 0.12267-0.0491 0.15359-0.0491s0.10004 0.0221 0.15359 0.0491c0.10481 0.05285 0.19557 0.1921 0.19557 0.30006 0 0.03092-0.0221 0.10004-0.0491 0.15359-0.05285 0.10481-0.1921 0.19557-0.30006 0.19557-0.03092 0-0.10004-0.02209-0.15359-0.0491zm1.0265-0.30006v-0.34916h2.6187v0.69831h-2.6187zm-1.0265-0.92199c-0.10481-0.05285-0.19557-0.1921-0.19557-0.30006s0.09076-0.2472 0.19557-0.30006c0.05355-0.027 0.12267-0.0491 0.15359-0.0491s0.10004 0.0221 0.15359 0.0491c0.10481 0.05285 0.19557 0.1921 0.19557 0.30006 0 0.09964-0.09112 0.24682-0.18549 0.29961-0.11095 0.06207-0.19483 0.06218-0.31726 4.5e-4zm1.0265-0.30006v-0.34916h2.6187v0.69832h-2.6187zm-1.0265-0.92199c-0.10481-0.05285-0.19557-0.1921-0.19557-0.30006s0.09076-0.2472 0.19557-0.30006c0.05355-0.027 0.12267-0.0491 0.15359-0.0491s0.10004 0.0221 0.15359 0.0491c0.10481 0.05285 0.19557 0.1921 0.19557 0.30006 0 0.03092-0.0221 0.10004-0.0491 0.15359-0.05285 0.10481-0.1921 0.19557-0.30006 0.19557-0.03092 0-0.10004-0.0221-0.15359-0.0491zm1.0265-0.30006v-0.34916h2.6187v0.69831h-2.6187zm0.52374-1.3966v-0.34916h5.5865v0.69832h-5.5865zm-1.7458-1.2221v-0.34916h9.0781v0.69832h-9.0781z" fill="url(#linearGradient3489)"/>
 </g>
 <path d="m6.4906 12.283c0.25404-0.16816 0.67637-0.44769 0.93851-0.6212l0.47663-0.31546v-0.32958h-4.4027v-6.9186h9.749v6.9186h-4.4027l0.00126 0.16216 0.00126 0.16215 0.93229 0.6174c0.51277 0.33957 0.93229 0.62039 0.93229 0.62404 0 0.0037-0.20674 0.0067-0.45942 0.0067h-0.45935l-0.688-0.5504c-0.46619-0.37291-0.70303-0.55033-0.73462-0.55032-0.029047 1.6e-5 -0.12814 0.06498-0.26283 0.1723-0.11891 0.09475-0.43159 0.34239-0.69484 0.55032l-0.47863 0.37803-0.90996-4.15e-4zm6.3986-1.629 0.04824-0.04824v-6.0966l-0.09648-0.096481h-8.9269l-0.096481 0.096481v6.0966l0.096481 0.09648h8.9269z" fill="url(#linearGradient5311)"/>
 <path d="m8.8504 11.018 0.00126 0.32352 0.93229 0.6174c0.51277 0.33957 0.93229 0.62039 0.93229 0.62404 0 0.0037-0.20673 0.0067-0.45942 0.0067h-0.45935l-0.688-0.5504c-0.46619-0.37291-0.70303-0.55033-0.73462-0.55032-0.029047 1.6e-5 -0.12814 0.06498-0.26283 0.1723-0.11892 0.09475-0.43159 0.34239-0.69484 0.55032l-0.47863 0.37803-0.90996-4.15e-4 0.46189-0.30574c0.25404-0.16816 0.67637-0.4477 0.93851-0.6212l0.47663-0.31545v-0.32896" fill="url(#linearGradient5493)"/>
 <path d="m15.978 6.2319c0.006198-0.56964-1.577-2.1232-2.3575-2.9193-0.31107-0.31729-2.236-2.3478-2.8958-2.371l0.09051 2.0133c0.07465 1.6603 1.3517 2.7893 3.0003 3.0003z" fill="#2e3440" filter="url(#filter7451)" opacity=".25" stroke-linecap="round" stroke-linejoin="round" stroke-width="1.2274"/>
 <path d="m16.007 6.0427c0.006198-0.56964-1.433-2.1071-2.2135-2.9032-0.31107-0.31729-2.2433-2.1903-2.9032-2.2135l0.09785 1.8558c0.08752 1.6597 1.352 2.7875 3.0003 3.0003z" fill="url(#linearGradient6101)" stroke-linecap="round" stroke-linejoin="round" stroke-width="1.2274"/>
</svg>
