<svg width="64" height="64" version="1.1" viewBox="0 0 16.933 16.933" xmlns="http://www.w3.org/2000/svg">
 <defs>
  <filter id="filter1178" x="-.047999" y="-.047999" width="1.096" height="1.096" color-interpolation-filters="sRGB">
   <feGaussianBlur stdDeviation="0.30691668"/>
  </filter>
  <linearGradient id="linearGradient1340" x1="8.6885" x2="8.6644" y1="15.572" y2="1.366" gradientUnits="userSpaceOnUse">
   <stop stop-color="#e5e9f0" offset="0"/>
   <stop stop-color="#eceff4" offset="1"/>
  </linearGradient>
  <linearGradient id="linearGradient1340-3" x1="8.6885" x2="8.6644" y1="15.572" y2="1.366" gradientUnits="userSpaceOnUse">
   <stop stop-color="#b48ead" offset="0"/>
   <stop stop-color="#dbc7c5" offset="1"/>
  </linearGradient>
  <linearGradient id="linearGradient6101" x1="15.093" x2="13.584" y1="2.1411" y2="3.6506" gradientTransform="rotate(180 13.498 3.354)" gradientUnits="userSpaceOnUse">
   <stop stop-color="#eceff4" offset="0"/>
   <stop stop-color="#d8dee9" offset="1"/>
  </linearGradient>
  <filter id="filter6834" x="-.079225" y="-.079751" width="1.1584" height="1.1595" color-interpolation-filters="sRGB">
   <feGaussianBlur stdDeviation="0.15989484"/>
  </filter>
  <filter id="filter7451" x="-.073049" y="-.072538" width="1.1461" height="1.1451" color-interpolation-filters="sRGB">
   <feGaussianBlur stdDeviation="0.15989484"/>
  </filter>
  <linearGradient id="linearGradient1790" x1="44.025" x2="37.87" y1="2.7394" y2="6.293" gradientTransform="translate(-2.7495 6.4519)" gradientUnits="userSpaceOnUse">
   <stop stop-color="#b48ead" offset="0"/>
   <stop stop-color="#dbc7c5" offset="1"/>
  </linearGradient>
  <filter id="filter3282" x="-.11961" y="-.098447" width="1.2392" height="1.1969" color-interpolation-filters="sRGB">
   <feGaussianBlur stdDeviation="0.37625628"/>
  </filter>
 </defs>
 <g stroke-linecap="round" stroke-linejoin="round">
  <rect transform="matrix(.99138 0 0 1 .072989 .0019055)" x=".79375" y=".90545" width="15.346" height="15.346" rx="3.0526" ry="3.0526" fill="#000000" filter="url(#filter1178)" opacity=".15" stroke-width="1.2489" style="mix-blend-mode:normal"/>
  <rect x=".92604" y=".92604" width="15.081" height="15.081" rx="3" ry="3" fill="url(#linearGradient1340)" stroke-width="1.2274"/>
  <rect x=".01215" y=".0060174" width="16.924" height="16.927" fill="none" opacity=".15" stroke-width="1.052"/>
  <path d="m12.646 8.4665a4.1799 4.1799 0 0 1-4.1799 4.1799 4.1799 4.1799 0 0 1-4.1799-4.1799 4.1799 4.1799 0 0 1 4.1799-4.1799 4.1799 4.1799 0 0 1 4.1799 4.1799zm2.3512-2e-7a6.5311 6.5311 0 0 1-6.5311 6.5311 6.5311 6.5311 0 0 1-6.5311-6.5311 6.5311 6.5311 0 0 1 6.5311-6.5311 6.5311 6.5311 0 0 1 6.5311 6.5311zm-13.062-6.5311v13.062m13.062-13.062v13.062m-13.062 0h13.062m-13.062-13.062 13.062 1e-7 -13.062 13.062m1e-7 -13.062 13.062 13.062m-13.922-6.5311h14.781m-7.3904-7.3904v14.781" fill="none" opacity=".5" stroke="#2e3440" stroke-width=".26458"/>
  <path d="m3.926 0.92604h6.9644c0.90634 0 5.1166 4.1838 5.1166 5.1166v6.9644c0 1.662-1.338 3-3 3h-9.081c-1.662 0-3-1.338-3-3v-9.081c0-1.662 1.338-3 3-3z" fill="url(#linearGradient1340-3)" stroke-width="1.2274"/>
 </g>
 <g transform="translate(-18.339 -.26446)" fill="#2e3440" filter="url(#filter3282)" opacity=".3" stroke-width=".074641">
  <path d="m24.726 6.5238c0.61653 0.20601 1.4749 0.3329 2.4281 0.3329s1.8115-0.12764 2.4281-0.3329c0.54114-0.18063 0.87628-0.39933 0.87628-0.61355s-0.33439-0.43292-0.87628-0.61355c-0.61653-0.20526-1.4749-0.3329-2.4281-0.3329-0.95316 0-1.8115 0.12764-2.4281 0.3329-1.148 0.38365-1.1801 0.83299 0 1.2271zm5.7332 4.359c-0.19257 0.13212-0.43814 0.24781-0.72849 0.34484-0.6643 0.22168-1.5757 0.35902-2.5766 0.35902s-1.9123-0.13734-2.5766-0.35902c-0.28662-0.09554-0.5307-0.21049-0.72252-0.33962v1.407c0.04255 0.19929 0.36723 0.40082 0.87106 0.56876 0.61653 0.20601 1.4749 0.3329 2.4281 0.3329 0.95316 0 1.8115-0.12764 2.4281-0.3329 0.37395-0.12465 0.64863-0.26796 0.78373-0.41426 0.11121-0.12092 0.0933-0.20078 0.0933-0.34633zm-7.0789-4.9726c0-0.43814 0.45755-0.80985 1.1972-1.0569 0.6643-0.22168 1.5757-0.35902 2.5766-0.35902s1.9123 0.13734 2.5766 0.35902c0.67326 0.22467 1.1129 0.55309 1.186 0.94122 9e-3 0.024632 0.01344 0.051499 0.01344 0.079119v6.4743c0 0.44859-0.85762 0.84568-1.1995 0.95988-0.6643 0.22168-1.5757 0.35902-2.5766 0.35902s-1.9123-0.13734-2.5766-0.35902c-0.35006-0.11719-1.192-0.50084-1.192-0.95988v-0.15003c1e-6 -2.0967-0.0052-4.1926-0.0052-6.2877zm0.47472 4.3045c0.04255 0.19929 0.36723 0.40082 0.87106 0.56876 0.61653 0.20601 1.4749 0.3329 2.4281 0.3329 0.95316 0 1.8115-0.12764 2.4281-0.3329 0.54114-0.18063 0.87628-0.39933 0.87628-0.61355h0.0022v-1.3667c-0.19257 0.13211-0.43963 0.24781-0.72999 0.34484-0.6643 0.22168-1.5757 0.35902-2.5766 0.35902s-1.9123-0.13734-2.5766-0.35902c-0.28662-0.09554-0.5307-0.21049-0.72252-0.33962zm0-2.0795c0.04255 0.19929 0.36723 0.40082 0.87106 0.56876 0.61653 0.20601 1.4749 0.3329 2.4281 0.3329 0.95316 0 1.8115-0.12764 2.4281-0.3329 0.54114-0.18063 0.87628-0.39933 0.87628-0.61355h0.0022v-1.4674c-0.19254 0.13211-0.4396 0.24781-0.72995 0.34484-0.6643 0.22168-1.5757 0.35902-2.5766 0.35902s-1.9123-0.13734-2.5766-0.35902c-0.28662-0.095541-0.53069-0.21049-0.72252-0.33962z" opacity="1"/>
  <g transform="translate(-11.004 -1.7823)">
   <path d="m34.859 9.9175c0.04255 0.19929 0.36723 0.40082 0.87106 0.56876 0.61653 0.20601 1.4749 0.3329 2.4281 0.3329 0.95316 0 1.8115-0.12764 2.4281-0.3329 0.54114-0.18063 0.87628-0.39933 0.87628-0.61355h0.0022v-1.4674c-0.19254 0.13211-0.4396 0.24781-0.72995 0.34484-0.6643 0.22168-1.5757 0.35902-2.5766 0.35902s-1.9123-0.13734-2.5766-0.35902c-0.28662-0.095541-0.53069-0.21049-0.72252-0.33962z"/>
   <path d="m34.859 11.997c0.04255 0.19929 0.36723 0.40082 0.87106 0.56876 0.61653 0.20601 1.4749 0.3329 2.4281 0.3329 0.95316 0 1.8115-0.12764 2.4281-0.3329 0.54114-0.18063 0.87628-0.39933 0.87628-0.61355h0.0022v-1.3667c-0.19257 0.13211-0.43963 0.24781-0.72999 0.34484-0.6643 0.22168-1.5757 0.35902-2.5766 0.35902s-1.9123-0.13734-2.5766-0.35902c-0.28662-0.09554-0.5307-0.21049-0.72252-0.33962z"/>
   <path d="m41.463 12.665c-0.19257 0.13212-0.43814 0.24781-0.72849 0.34484-0.6643 0.22168-1.5757 0.35902-2.5766 0.35902s-1.9123-0.13734-2.5766-0.35902c-0.28662-0.09554-0.5307-0.21049-0.72252-0.33962v1.407c0.04255 0.19929 0.36723 0.40082 0.87106 0.56876 0.61653 0.20601 1.4749 0.3329 2.4281 0.3329 0.95316 0 1.8115-0.12764 2.4281-0.3329 0.37395-0.12465 0.64863-0.26796 0.78373-0.41426 0.11121-0.12092 0.0933-0.20078 0.0933-0.34633z"/>
   <path d="m35.73 8.3061c0.61653 0.20601 1.4749 0.3329 2.4281 0.3329 0.95316 0 1.8115-0.12764 2.4281-0.3329 0.54114-0.18063 0.87628-0.39933 0.87628-0.61355s-0.33439-0.43292-0.87628-0.61355c-0.61653-0.20526-1.4749-0.3329-2.4281-0.3329-0.95316 0-1.8115 0.12764-2.4281 0.3329-1.148 0.38365-1.1801 0.83299 0 1.2271z"/>
  </g>
 </g>
 <g transform="translate(-18.689 -.61405)" stroke-width=".074641">
  <path d="m24.726 6.5238c0.61653 0.20601 1.4749 0.3329 2.4281 0.3329s1.8115-0.12764 2.4281-0.3329c0.54114-0.18063 0.87628-0.39933 0.87628-0.61355s-0.33439-0.43292-0.87628-0.61355c-0.61653-0.20526-1.4749-0.3329-2.4281-0.3329-0.95316 0-1.8115 0.12764-2.4281 0.3329-1.148 0.38365-1.1801 0.83299 0 1.2271zm5.7332 4.359c-0.19257 0.13212-0.43814 0.24781-0.72849 0.34484-0.6643 0.22168-1.5757 0.35902-2.5766 0.35902s-1.9123-0.13734-2.5766-0.35902c-0.28662-0.09554-0.5307-0.21049-0.72252-0.33962v1.407c0.04255 0.19929 0.36723 0.40082 0.87106 0.56876 0.61653 0.20601 1.4749 0.3329 2.4281 0.3329 0.95316 0 1.8115-0.12764 2.4281-0.3329 0.37395-0.12465 0.64863-0.26796 0.78373-0.41426 0.11121-0.12092 0.0933-0.20078 0.0933-0.34633zm-7.0789-4.9726c0-0.43814 0.45755-0.80985 1.1972-1.0569 0.6643-0.22168 1.5757-0.35902 2.5766-0.35902s1.9123 0.13734 2.5766 0.35902c0.67326 0.22467 1.1129 0.55309 1.186 0.94122 9e-3 0.024632 0.01344 0.051499 0.01344 0.079119v6.4743c0 0.44859-0.85762 0.84568-1.1995 0.95988-0.6643 0.22168-1.5757 0.35902-2.5766 0.35902s-1.9123-0.13734-2.5766-0.35902c-0.35006-0.11719-1.192-0.50084-1.192-0.95988v-0.15003c1e-6 -2.0967-0.0052-4.1926-0.0052-6.2877zm0.47472 4.3045c0.04255 0.19929 0.36723 0.40082 0.87106 0.56876 0.61653 0.20601 1.4749 0.3329 2.4281 0.3329 0.95316 0 1.8115-0.12764 2.4281-0.3329 0.54114-0.18063 0.87628-0.39933 0.87628-0.61355h0.0022v-1.3667c-0.19257 0.13211-0.43963 0.24781-0.72999 0.34484-0.6643 0.22168-1.5757 0.35902-2.5766 0.35902s-1.9123-0.13734-2.5766-0.35902c-0.28662-0.09554-0.5307-0.21049-0.72252-0.33962zm0-2.0795c0.04255 0.19929 0.36723 0.40082 0.87106 0.56876 0.61653 0.20601 1.4749 0.3329 2.4281 0.3329 0.95316 0 1.8115-0.12764 2.4281-0.3329 0.54114-0.18063 0.87628-0.39933 0.87628-0.61355h0.0022v-1.4674c-0.19254 0.13211-0.4396 0.24781-0.72995 0.34484-0.6643 0.22168-1.5757 0.35902-2.5766 0.35902s-1.9123-0.13734-2.5766-0.35902c-0.28662-0.095541-0.53069-0.21049-0.72252-0.33962z" fill="#4c566a"/>
  <g transform="translate(-11.004 -1.7823)" fill="url(#linearGradient1790)">
   <path d="m34.859 9.9175c0.04255 0.19929 0.36723 0.40082 0.87106 0.56876 0.61653 0.20601 1.4749 0.3329 2.4281 0.3329 0.95316 0 1.8115-0.12764 2.4281-0.3329 0.54114-0.18063 0.87628-0.39933 0.87628-0.61355h0.0022v-1.4674c-0.19254 0.13211-0.4396 0.24781-0.72995 0.34484-0.6643 0.22168-1.5757 0.35902-2.5766 0.35902s-1.9123-0.13734-2.5766-0.35902c-0.28662-0.095541-0.53069-0.21049-0.72252-0.33962z"/>
   <path d="m34.859 11.997c0.04255 0.19929 0.36723 0.40082 0.87106 0.56876 0.61653 0.20601 1.4749 0.3329 2.4281 0.3329 0.95316 0 1.8115-0.12764 2.4281-0.3329 0.54114-0.18063 0.87628-0.39933 0.87628-0.61355h0.0022v-1.3667c-0.19257 0.13211-0.43963 0.24781-0.72999 0.34484-0.6643 0.22168-1.5757 0.35902-2.5766 0.35902s-1.9123-0.13734-2.5766-0.35902c-0.28662-0.09554-0.5307-0.21049-0.72252-0.33962z"/>
   <path d="m41.463 12.665c-0.19257 0.13212-0.43814 0.24781-0.72849 0.34484-0.6643 0.22168-1.5757 0.35902-2.5766 0.35902s-1.9123-0.13734-2.5766-0.35902c-0.28662-0.09554-0.5307-0.21049-0.72252-0.33962v1.407c0.04255 0.19929 0.36723 0.40082 0.87106 0.56876 0.61653 0.20601 1.4749 0.3329 2.4281 0.3329 0.95316 0 1.8115-0.12764 2.4281-0.3329 0.37395-0.12465 0.64863-0.26796 0.78373-0.41426 0.11121-0.12092 0.0933-0.20078 0.0933-0.34633z"/>
   <path d="m35.73 8.3061c0.61653 0.20601 1.4749 0.3329 2.4281 0.3329 0.95316 0 1.8115-0.12764 2.4281-0.3329 0.54114-0.18063 0.87628-0.39933 0.87628-0.61355s-0.33439-0.43292-0.87628-0.61355c-0.61653-0.20526-1.4749-0.3329-2.4281-0.3329-0.95316 0-1.8115 0.12764-2.4281 0.3329-1.148 0.38365-1.1801 0.83299 0 1.2271z"/>
  </g>
 </g>
 <g stroke-linecap="round" stroke-linejoin="round" stroke-width="1.2274">
  <path d="m15.972 5.8039c0.006198-0.56964-1.2579-2.0081-2.0384-2.8042-0.31107-0.31729-2.1363-1.9845-2.7961-2.0076l-0.0092 1.6499c-0.0093 1.662 1.3446 2.8551 3.0003 3.0003z" fill="#2e3440" filter="url(#filter6834)" opacity=".3"/>
  <path d="m15.978 6.2319c0.006198-0.56964-1.577-2.1232-2.3575-2.9193-0.31107-0.31729-2.236-2.3478-2.8958-2.371l0.09051 2.0133c0.07465 1.6603 1.3517 2.7893 3.0003 3.0003z" fill="#2e3440" filter="url(#filter7451)" opacity=".25"/>
  <path d="m16.007 6.0427c0.006198-0.56964-1.433-2.1071-2.2135-2.9032-0.31107-0.31729-2.2433-2.1903-2.9032-2.2135l0.09785 1.8558c0.08752 1.6597 1.352 2.7875 3.0003 3.0003z" fill="url(#linearGradient6101)"/>
 </g>
</svg>
