<svg id="svg20" width="64" height="64" version="1.1" viewBox="0 0 16.933 16.933" xmlns="http://www.w3.org/2000/svg">
 <defs id="defs10">
  <linearGradient id="linearGradient1024" x1="192.43761" x2="192.53743" y1="103.23778" y2="311.3898" gradientUnits="userSpaceOnUse">
   <stop id="stop1224" style="stop-color:#8fbcbb" offset="0"/>
   <stop id="stop1226" style="stop-color:#97b67c" offset="1"/>
  </linearGradient>
 </defs>
 <g id="g18" stroke-linecap="round" stroke-linejoin="round">
  <rect id="rect14" x=".92604" y=".92604" width="15.081" height="15.081" rx="3" ry="3" fill="url(#linearGradient1340)" stroke-width="1.2274" style="fill:none"/>
  <rect id="rect16" x=".01215" y=".0060174" width="16.924" height="16.927" fill="none" opacity=".15" stroke-width="1.052"/>
  <g id="layer1-6-7" transform="matrix(.15384348 0 0 .15384348 2.272466e-7 -28.758514)" style="fill:url(#linearGradient832)">
   <g id="layer3-2-5-2-8" transform="matrix(.49136791 0 0 .51184157 -39.309434 135.50375)" style="fill:url(#linearGradient856)">
    <path id="path4193-6-9-2-9" d="m80 104v144c0 35.15671 28.84329 64 64 64h96c35.15671 0 64-28.84329 64-64v-80c0-26.32015-21.67985-48-48-48-12.29591 0-23.46684 4.8602-32 12.58594-8.53316-7.72574-19.70409-12.58594-32-12.58594-26.32015 0-48 21.67985-48 48v80h32v-80c0-9.02607 6.97393-16 16-16s16 6.97393 16 16v80h32v-80c0-9.02607 6.97393-16 16-16s16 6.97393 16 16v80c0 17.86263-14.13737 32-32 32h-96c-17.86263 0-32-14.13737-32-32v-144z" style="color-rendering:auto;color:#000000;dominant-baseline:auto;fill:url(#linearGradient1024);font-feature-settings:normal;font-variant-alternates:normal;font-variant-caps:normal;font-variant-ligatures:normal;font-variant-numeric:normal;font-variant-position:normal;image-rendering:auto;isolation:auto;mix-blend-mode:normal;shape-padding:0;shape-rendering:auto;solid-color:#000000;text-decoration-color:#000000;text-decoration-line:none;text-decoration-style:solid;text-indent:0;text-orientation:mixed;text-transform:none;white-space:normal"/>
   </g>
  </g>
 </g>
</svg>
