<?xml version="1.0" encoding="UTF-8" standalone="no"?>
<!-- Created with Inkscape (http://www.inkscape.org/) -->

<svg
   width="96"
   height="96"
   viewBox="0 0 25.399999 25.400001"
   version="1.1"
   id="svg8"
   inkscape:version="1.1.2 (1:1.1+202202050950+0a00cf5339)"
   sodipodi:docname="linuxmint-logo-filled-leaf.svg"
   xmlns:inkscape="http://www.inkscape.org/namespaces/inkscape"
   xmlns:sodipodi="http://sodipodi.sourceforge.net/DTD/sodipodi-0.dtd"
   xmlns:xlink="http://www.w3.org/1999/xlink"
   xmlns="http://www.w3.org/2000/svg"
   xmlns:svg="http://www.w3.org/2000/svg"
   xmlns:rdf="http://www.w3.org/1999/02/22-rdf-syntax-ns#"
   xmlns:cc="http://creativecommons.org/ns#"
   xmlns:dc="http://purl.org/dc/elements/1.1/">
  <defs
     id="defs2">
    <linearGradient
       inkscape:collect="always"
       id="linearGradient1020">
      <stop
         style="stop-color:#d8dee9;stop-opacity:1"
         offset="0"
         id="stop1016" />
      <stop
         style="stop-color:#eceff4;stop-opacity:1"
         offset="1"
         id="stop1018" />
    </linearGradient>
    <linearGradient
       inkscape:collect="always"
       id="linearGradient936">
      <stop
         style="stop-color:#d8dee9;stop-opacity:1"
         offset="0"
         id="stop932" />
      <stop
         style="stop-color:#eceff4;stop-opacity:1"
         offset="1"
         id="stop934" />
    </linearGradient>
    <linearGradient
       inkscape:collect="always"
       id="linearGradient852">
      <stop
         style="stop-color:#8fbcbb;stop-opacity:1"
         offset="0"
         id="stop848" />
      <stop
         style="stop-color:#a3be8c;stop-opacity:1"
         offset="1"
         id="stop850" />
    </linearGradient>
    <linearGradient
       inkscape:collect="always"
       xlink:href="#linearGradient852"
       id="linearGradient854"
       x1="583.51019"
       y1="483.7327"
       x2="583.49237"
       y2="680.69055"
       gradientUnits="userSpaceOnUse" />
    <linearGradient
       inkscape:collect="always"
       xlink:href="#linearGradient936"
       id="linearGradient938"
       x1="591.39874"
       y1="484.45465"
       x2="592.75208"
       y2="679.90662"
       gradientUnits="userSpaceOnUse" />
    <linearGradient
       inkscape:collect="always"
       xlink:href="#linearGradient1020"
       id="linearGradient1022"
       x1="180.05893"
       y1="13.427755"
       x2="184.52621"
       y2="403.81842"
       gradientUnits="userSpaceOnUse" />
  </defs>
  <sodipodi:namedview
     id="base"
     pagecolor="#ffffff"
     bordercolor="#666666"
     borderopacity="1.0"
     inkscape:pageopacity="0.0"
     inkscape:pageshadow="2"
     inkscape:zoom="5.6"
     inkscape:cx="-0.089285714"
     inkscape:cy="40.535714"
     inkscape:document-units="px"
     inkscape:current-layer="g1108"
     showgrid="false"
     inkscape:pagecheckerboard="true"
     units="px"
     inkscape:window-width="1920"
     inkscape:window-height="998"
     inkscape:window-x="0"
     inkscape:window-y="0"
     inkscape:window-maximized="1" />
  <metadata
     id="metadata5">
    <rdf:RDF>
      <cc:Work
         rdf:about="">
        <dc:format>image/svg+xml</dc:format>
        <dc:type
           rdf:resource="http://purl.org/dc/dcmitype/StillImage" />
        <dc:title />
      </cc:Work>
    </rdf:RDF>
  </metadata>
  <g
     inkscape:label="Calque 1"
     inkscape:groupmode="layer"
     id="layer1"
     transform="translate(0,-271.59998)">
    <g
       id="g1108"
       transform="matrix(0.23966525,0,0,0.23966525,10.873397,207.99153)">
      <g
         transform="matrix(0.54054181,0,0,0.54054181,-308.35691,3.6048501)"
         id="g4824-3-4-8">
        <g
           id="g5159">
          <path
             style="display:inline;opacity:1;fill:url(#linearGradient854);fill-opacity:1;fill-rule:evenodd;stroke-width:1.12712526"
             d="m 671.90956,642.97352 c 0,-25.20809 0,-84.67388 0,-84.67388 0,-28.28854 -24.808,-51.21991 -55.41715,-51.21991 h -31.76933 v -0.0683 L 498.79913,506.636 v 30.8947 c 0,0 7.01578,0 13.18985,0 9.20682,0 10.8333,6.35563 10.8333,15.15255 l 0.0683,54.61836 c 0,28.28856 24.8081,51.21988 55.38309,51.21988 h 75.48956 c 9.67782,0 18.14635,-6.12887 18.14635,-15.548 z"
             id="path2576-0-3-7-4-8"
             sodipodi:nodetypes="cccccccsccccc"
             inkscape:connector-curvature="0" />
          <path
             inkscape:connector-curvature="0"
             sodipodi:nodetypes="ccccccccccccccccccccsccccc"
             d="m 577.77171,670.2471 c -36.45888,0 -68.09808,-27.63927 -68.09808,-64.06549 l -0.0327,-44.22927 V 550.67389 H 486.5263 v -56.19662 l 97.47492,0.45904 30.49168,0.0656 c 36.49165,0 68.09808,27.60638 68.09808,64.0653 V 670.24709 H 577.77177 v 0 0 z m 89.96674,-29.82397 c 0,-24.22031 0,-81.35591 0,-81.35591 0,-27.18004 -23.83588,-49.21283 -53.2456,-49.21283 h -30.52444 v -0.0656 l -82.55696,-0.36074 v 26.39336 c 0,0 3.31589,0 9.24802,0 6.27863,0 13.83375,5.9003 13.83375,14.55879 l 0.0656,55.76887 c 0,27.18005 23.83599,49.21281 53.21289,49.21281 h 72.53146 c 9.29857,0 17.43527,-5.88872 17.43527,-14.93876 z"
             style="display:inline;overflow:visible;visibility:visible;fill:url(#linearGradient938);fill-opacity:1;fill-rule:evenodd;stroke:none;stroke-width:1.12712526;marker:none;enable-background:accumulate"
             id="path4210-8-6-5-7-3" />
        </g>
      </g>
      <g
         style="fill:#eceff4;fill-opacity:1"
         id="layer3-2-5-2-2"
         inkscape:label="Layer 1"
         transform="matrix(0.27212591,0,0,0.27212591,-37.922389,261.72722)">
        <path
           style="color:#000000;font-style:normal;font-variant:normal;font-weight:normal;font-stretch:normal;font-size:medium;line-height:normal;font-family:sans-serif;font-variant-ligatures:normal;font-variant-position:normal;font-variant-caps:normal;font-variant-numeric:normal;font-variant-alternates:normal;font-feature-settings:normal;text-indent:0;text-align:start;text-decoration:none;text-decoration-line:none;text-decoration-style:solid;text-decoration-color:#000000;letter-spacing:normal;word-spacing:normal;text-transform:none;writing-mode:lr-tb;direction:ltr;text-orientation:mixed;dominant-baseline:auto;baseline-shift:baseline;text-anchor:start;white-space:normal;shape-padding:0;clip-rule:nonzero;display:inline;overflow:visible;visibility:visible;opacity:1;isolation:auto;mix-blend-mode:normal;color-interpolation:sRGB;color-interpolation-filters:linearRGB;solid-color:#000000;solid-opacity:1;vector-effect:none;fill:url(#linearGradient1022);fill-opacity:1;fill-rule:nonzero;stroke:none;stroke-width:32;stroke-linecap:butt;stroke-linejoin:miter;stroke-miterlimit:4;stroke-dasharray:none;stroke-dashoffset:0;stroke-opacity:1;color-rendering:auto;image-rendering:auto;shape-rendering:auto;text-rendering:auto;enable-background:accumulate"
           d="m 80,104 v 144 c 0,35.15671 28.84329,64 64,64 h 96 c 35.15671,0 64,-28.84329 64,-64 v -80 c 0,-26.32015 -21.67985,-48 -48,-48 -12.29591,0 -23.46684,4.8602 -32,12.58594 C 215.46684,124.8602 204.29591,120 192,120 c -26.32015,0 -48,21.67985 -48,48 v 80 h 32 v -80 c 0,-9.02607 6.97393,-16 16,-16 9.02607,0 16,6.97393 16,16 v 80 h 32 v -80 c 0,-9.02607 6.97393,-16 16,-16 9.02607,0 16,6.97393 16,16 v 80 c 0,17.86263 -14.13737,32 -32,32 h -96 c -17.86263,0 -32,-14.13737 -32,-32 V 104 Z"
           id="path4193-6-9-2-91"
           inkscape:connector-curvature="0" />
      </g>
    </g>
  </g>
</svg>
