<?xml version="1.0" encoding="UTF-8" standalone="no"?>
<svg
   width="64"
   height="64"
   version="1.1"
   viewBox="0 0 16.933 16.933"
   id="svg20"
   sodipodi:docname="linuxmint-logo-filled-leaf.svg"
   inkscape:version="1.1.2 (1:1.1+202202050950+0a00cf5339)"
   xmlns:inkscape="http://www.inkscape.org/namespaces/inkscape"
   xmlns:sodipodi="http://sodipodi.sourceforge.net/DTD/sodipodi-0.dtd"
   xmlns:xlink="http://www.w3.org/1999/xlink"
   xmlns="http://www.w3.org/2000/svg"
   xmlns:svg="http://www.w3.org/2000/svg">
  <sodipodi:namedview
     id="namedview22"
     pagecolor="#505050"
     bordercolor="#eeeeee"
     borderopacity="1"
     inkscape:pageshadow="0"
     inkscape:pageopacity="0"
     inkscape:pagecheckerboard="0"
     showgrid="false"
     inkscape:zoom="12.984375"
     inkscape:cx="32"
     inkscape:cy="31.961492"
     inkscape:window-width="2560"
     inkscape:window-height="1358"
     inkscape:window-x="0"
     inkscape:window-y="0"
     inkscape:window-maximized="1"
     inkscape:current-layer="g18" />
  <defs
     id="defs10">
    <filter
       id="filter1178"
       x="-0.047999482"
       y="-0.047999482"
       width="1.095999"
       height="1.095999"
       color-interpolation-filters="sRGB">
      <feGaussianBlur
         stdDeviation="0.30691668"
         id="feGaussianBlur2" />
    </filter>
    <linearGradient
       inkscape:collect="always"
       xlink:href="#linearGradient852"
       id="linearGradient854"
       x1="577.97504"
       y1="496.07022"
       x2="577.77179"
       y2="670.24707"
       gradientUnits="userSpaceOnUse" />
    <linearGradient
       inkscape:collect="always"
       id="linearGradient852">
      <stop
         style="stop-color:#8fbcbb;stop-opacity:1"
         offset="0"
         id="stop848" />
      <stop
         style="stop-color:#a3be8c;stop-opacity:1"
         offset="1"
         id="stop850" />
    </linearGradient>
    <linearGradient
       inkscape:collect="always"
       id="linearGradient936">
      <stop
         style="stop-color:#d8dee9;stop-opacity:1"
         offset="0"
         id="stop932" />
      <stop
         style="stop-color:#eceff4;stop-opacity:1"
         offset="1"
         id="stop934" />
    </linearGradient>
    <linearGradient
       inkscape:collect="always"
       xlink:href="#linearGradient936"
       id="linearGradient938-2"
       x1="590.57263"
       y1="494.61368"
       x2="591.80859"
       y2="670.54828"
       gradientUnits="userSpaceOnUse"
       gradientTransform="translate(4e-6)" />
    <filter
       inkscape:collect="always"
       style="color-interpolation-filters:sRGB"
       id="filter1170"
       x="-0.071118336"
       y="-0.079329848"
       width="1.1422367"
       height="1.1586597">
      <feGaussianBlur
         inkscape:collect="always"
         stdDeviation="5.8099142"
         id="feGaussianBlur1172" />
    </filter>
    <linearGradient
       inkscape:collect="always"
       xlink:href="#linearGradient936"
       id="linearGradient847-7"
       x1="155.38577"
       y1="33.811779"
       x2="153.88199"
       y2="382.81619"
       gradientUnits="userSpaceOnUse" />
    <linearGradient
       inkscape:collect="always"
       xlink:href="#linearGradient936"
       id="linearGradient1263"
       gradientUnits="userSpaceOnUse"
       x1="155.38577"
       y1="33.811779"
       x2="153.88199"
       y2="382.81619" />
    <filter
       inkscape:collect="always"
       style="color-interpolation-filters:sRGB"
       id="filter1303"
       x="-0.072321429"
       y="-0.077884615"
       width="1.1446429"
       height="1.1557692">
      <feGaussianBlur
         inkscape:collect="always"
         stdDeviation="6.75"
         id="feGaussianBlur1305" />
    </filter>
  </defs>
  <g
     stroke-linecap="round"
     stroke-linejoin="round"
     id="g18">
    <rect
       x=".92604"
       y=".92604"
       width="15.081"
       height="15.081"
       rx="3"
       ry="3"
       fill="url(#linearGradient852)"
       stroke-width="1.2274"
       id="rect14"
       style="fill:none;fill-opacity:1" />
    <rect
       x=".01215"
       y=".0060174"
       width="16.924"
       height="16.927"
       fill="none"
       opacity=".15"
       stroke-width="1.052"
       id="rect16" />
    <g
       transform="matrix(0.08636436,0,0,0.08636436,-42.018533,-41.828837)"
       id="g4824-3-4-8">
      <g
         id="g5159">
        <path
           style="display:inline;opacity:1;fill:url(#linearGradient854);fill-opacity:1;fill-rule:evenodd;stroke-width:1.12713"
           d="m 671.90956,642.97352 c 0,-25.20809 0,-84.67388 0,-84.67388 0,-28.28854 -24.808,-51.21991 -55.41715,-51.21991 h -31.76933 v -0.0683 L 498.79913,506.636 v 30.8947 c 0,0 7.01578,0 13.18985,0 9.20682,0 10.8333,6.35563 10.8333,15.15255 l 0.0683,54.61836 c 0,28.28856 24.8081,51.21988 55.38309,51.21988 h 75.48956 c 9.67782,0 18.14635,-6.12887 18.14635,-15.548 z"
           id="path2576-0-3-7-4-8"
           sodipodi:nodetypes="cccccccsccccc"
           inkscape:connector-curvature="0" />
        <path
           inkscape:connector-curvature="0"
           sodipodi:nodetypes="ccccccccccccccccccccsccccc"
           d="m 577.77171,670.2471 c -36.45888,0 -68.09808,-27.63927 -68.09808,-64.06549 l -0.0327,-44.22927 V 550.67389 H 486.5263 v -56.19662 l 97.47492,0.45904 30.49168,0.0656 c 36.49165,0 68.09808,27.60638 68.09808,64.0653 V 670.24709 H 577.77177 v 0 0 z m 89.96674,-29.82397 c 0,-24.22031 0,-81.35591 0,-81.35591 0,-27.18004 -23.83588,-49.21283 -53.2456,-49.21283 h -30.52444 v -0.0656 l -82.55696,-0.36074 v 26.39336 c 0,0 3.31589,0 9.24802,0 6.27863,0 13.83375,5.9003 13.83375,14.55879 l 0.0656,55.76887 c 0,27.18005 23.83599,49.21281 53.21289,49.21281 h 72.53146 c 9.29857,0 17.43527,-5.88872 17.43527,-14.93876 z"
           style="display:inline;overflow:visible;visibility:visible;fill:#2e3440;fill-opacity:1;fill-rule:evenodd;stroke:none;stroke-width:1.12713;marker:none;enable-background:accumulate;filter:url(#filter1170);opacity:0.318"
           id="path4210-8-6-5-7-3" />
        <path
           inkscape:connector-curvature="0"
           sodipodi:nodetypes="ccccccccccccccccccccsccccc"
           d="m 577.77171,670.24711 c -36.45888,0 -68.09808,-27.63928 -68.09808,-64.06549 l -0.0327,-44.22927 V 550.67389 H 486.5263 v -56.19661 l 97.47492,0.45904 30.49168,0.0656 c 36.49165,0 68.09808,27.60638 68.09808,64.0653 V 670.24709 H 577.77177 v 0 0 z m 89.96674,-29.82398 c 0,-24.22031 0,-81.35591 0,-81.35591 0,-27.18003 -23.83588,-49.21282 -53.2456,-49.21282 h -30.52444 v -0.0656 l -82.55696,-0.36075 v 26.39336 c 0,0 3.31589,0 9.24802,0 6.27863,0 13.83375,5.9003 13.83375,14.5588 l 0.0656,55.76887 c 0,27.18005 23.83599,49.21281 53.21289,49.21281 h 72.53146 c 9.29857,0 17.43527,-5.88873 17.43527,-14.93876 z"
           style="display:inline;overflow:visible;visibility:visible;fill:url(#linearGradient938-2);fill-opacity:1;fill-rule:evenodd;stroke:none;stroke-width:1.12713;marker:none;enable-background:accumulate"
           id="path4210-8-6-5-7-3-3" />
      </g>
    </g>
    <g
       style="fill:#2e3440;fill-opacity:1;filter:url(#filter1303);opacity:0.318"
       id="layer3-2-5-2-2"
       inkscape:label="Layer 1"
       transform="matrix(0.04347856,0,0,0.04347856,1.1897854,-0.57704048)">
      <path
         style="color:#000000;font-style:normal;font-variant:normal;font-weight:normal;font-stretch:normal;font-size:medium;line-height:normal;font-family:sans-serif;font-variant-ligatures:normal;font-variant-position:normal;font-variant-caps:normal;font-variant-numeric:normal;font-variant-alternates:normal;font-feature-settings:normal;text-indent:0;text-align:start;text-decoration:none;text-decoration-line:none;text-decoration-style:solid;text-decoration-color:#000000;letter-spacing:normal;word-spacing:normal;text-transform:none;writing-mode:lr-tb;direction:ltr;text-orientation:mixed;dominant-baseline:auto;baseline-shift:baseline;text-anchor:start;white-space:normal;shape-padding:0;clip-rule:nonzero;display:inline;overflow:visible;visibility:visible;opacity:1;isolation:auto;mix-blend-mode:normal;color-interpolation:sRGB;color-interpolation-filters:linearRGB;solid-color:#000000;solid-opacity:1;vector-effect:none;fill:#2e3440;fill-opacity:1;fill-rule:nonzero;stroke:none;stroke-width:32;stroke-linecap:butt;stroke-linejoin:miter;stroke-miterlimit:4;stroke-dasharray:none;stroke-dashoffset:0;stroke-opacity:1;color-rendering:auto;image-rendering:auto;shape-rendering:auto;text-rendering:auto;enable-background:accumulate"
         d="m 80,104 v 144 c 0,35.15671 28.84329,64 64,64 h 96 c 35.15671,0 64,-28.84329 64,-64 v -80 c 0,-26.32015 -21.67985,-48 -48,-48 -12.29591,0 -23.46684,4.8602 -32,12.58594 C 215.46684,124.8602 204.29591,120 192,120 c -26.32015,0 -48,21.67985 -48,48 v 80 h 32 v -80 c 0,-9.02607 6.97393,-16 16,-16 9.02607,0 16,6.97393 16,16 v 80 h 32 v -80 c 0,-9.02607 6.97393,-16 16,-16 9.02607,0 16,6.97393 16,16 v 80 c 0,17.86263 -14.13737,32 -32,32 h -96 c -17.86263,0 -32,-14.13737 -32,-32 V 104 Z"
         id="path4193-6-9-2-91"
         inkscape:connector-curvature="0" />
    </g>
    <g
       style="fill:url(#linearGradient847-7);fill-opacity:1"
       id="layer3-2-5-2-2-2"
       inkscape:label="Layer 1"
       transform="matrix(0.04347856,0,0,0.04347856,1.1897854,-0.57704048)">
      <path
         style="color:#000000;font-style:normal;font-variant:normal;font-weight:normal;font-stretch:normal;font-size:medium;line-height:normal;font-family:sans-serif;font-variant-ligatures:normal;font-variant-position:normal;font-variant-caps:normal;font-variant-numeric:normal;font-variant-alternates:normal;font-feature-settings:normal;text-indent:0;text-align:start;text-decoration:none;text-decoration-line:none;text-decoration-style:solid;text-decoration-color:#000000;letter-spacing:normal;word-spacing:normal;text-transform:none;writing-mode:lr-tb;direction:ltr;text-orientation:mixed;dominant-baseline:auto;baseline-shift:baseline;text-anchor:start;white-space:normal;shape-padding:0;clip-rule:nonzero;display:inline;overflow:visible;visibility:visible;opacity:1;isolation:auto;mix-blend-mode:normal;color-interpolation:sRGB;color-interpolation-filters:linearRGB;solid-color:#000000;solid-opacity:1;vector-effect:none;fill:url(#linearGradient1263);fill-opacity:1;fill-rule:nonzero;stroke:none;stroke-width:32;stroke-linecap:butt;stroke-linejoin:miter;stroke-miterlimit:4;stroke-dasharray:none;stroke-dashoffset:0;stroke-opacity:1;color-rendering:auto;image-rendering:auto;shape-rendering:auto;text-rendering:auto;enable-background:accumulate"
         d="m 80,104 v 144 c 0,35.15671 28.84329,64 64,64 h 96 c 35.15671,0 64,-28.84329 64,-64 v -80 c 0,-26.32015 -21.67985,-48 -48,-48 -12.29591,0 -23.46684,4.8602 -32,12.58594 C 215.46684,124.8602 204.29591,120 192,120 c -26.32015,0 -48,21.67985 -48,48 v 80 h 32 v -80 c 0,-9.02607 6.97393,-16 16,-16 9.02607,0 16,6.97393 16,16 v 80 h 32 v -80 c 0,-9.02607 6.97393,-16 16,-16 9.02607,0 16,6.97393 16,16 v 80 c 0,17.86263 -14.13737,32 -32,32 h -96 c -17.86263,0 -32,-14.13737 -32,-32 V 104 Z"
         id="path4193-6-9-2-91-8"
         inkscape:connector-curvature="0" />
    </g>
  </g>
</svg>
