<?xml version="1.0" encoding="UTF-8" standalone="no"?>
<!-- Created with Inkscape (http://www.inkscape.org/) -->

<svg
   width="96"
   height="96"
   viewBox="0 0 25.399999 25.400001"
   version="1.1"
   id="svg8"
   inkscape:version="1.1.2 (1:1.1+202202050950+0a00cf5339)"
   sodipodi:docname="linuxmint-logo-leaf.svg"
   xmlns:inkscape="http://www.inkscape.org/namespaces/inkscape"
   xmlns:sodipodi="http://sodipodi.sourceforge.net/DTD/sodipodi-0.dtd"
   xmlns="http://www.w3.org/2000/svg"
   xmlns:svg="http://www.w3.org/2000/svg"
   xmlns:rdf="http://www.w3.org/1999/02/22-rdf-syntax-ns#"
   xmlns:cc="http://creativecommons.org/ns#"
   xmlns:dc="http://purl.org/dc/elements/1.1/">
  <defs
     id="defs2" />
  <sodipodi:namedview
     id="base"
     pagecolor="#ffffff"
     bordercolor="#666666"
     borderopacity="1.0"
     inkscape:pageopacity="0.0"
     inkscape:pageshadow="2"
     inkscape:zoom="5.6"
     inkscape:cx="-3.5714286"
     inkscape:cy="45.625"
     inkscape:document-units="px"
     inkscape:current-layer="layer1"
     showgrid="false"
     inkscape:pagecheckerboard="true"
     units="px"
     inkscape:window-width="1619"
     inkscape:window-height="945"
     inkscape:window-x="747"
     inkscape:window-y="344"
     inkscape:window-maximized="0" />
  <metadata
     id="metadata5">
    <rdf:RDF>
      <cc:Work
         rdf:about="">
        <dc:format>image/svg+xml</dc:format>
        <dc:type
           rdf:resource="http://purl.org/dc/dcmitype/StillImage" />
        <dc:title />
      </cc:Work>
    </rdf:RDF>
  </metadata>
  <g
     inkscape:label="Calque 1"
     inkscape:groupmode="layer"
     id="layer1"
     transform="translate(0,-271.59998)">
    <g
       id="g1068"
       style="fill:#a3be8c;fill-opacity:1"
       transform="matrix(0.58450462,0,0,0.58450462,-5.7551937,168.63618)">
      <g
         style="fill:#a3be8c;fill-opacity:1;stroke:none"
         transform="matrix(0.22163909,0,0,0.22163909,-7.7510456,130.86817)"
         id="g4676">
        <path
           inkscape:connector-curvature="0"
           sodipodi:nodetypes="ccccccccccccccccccccsccccc"
           d="m 170.64172,390.24714 c -36.45889,0 -68.09809,-27.63927 -68.09809,-64.06549 l -0.0327,-44.22927 V 270.67393 H 79.39629 v -56.19662 l 97.47493,0.45904 30.49168,0.0656 c 36.49165,0 68.09809,27.60639 68.09809,64.0653 V 390.24713 H 170.64178 v 0 0 z m 89.96675,-29.82397 c 0,-24.22032 0,-81.35591 0,-81.35591 0,-27.18003 -23.83589,-49.21283 -53.24561,-49.21283 h -30.52444 v -0.0656 L 94.28144,229.4281 v 26.39336 c 0,0 3.3159,0 9.24803,0 6.27863,0 13.83376,5.90029 13.83376,14.55878 l 0.0656,55.76887 c 0,27.18005 23.836,49.21281 53.21289,49.21281 h 72.53146 c 9.29857,0 17.43528,-5.88872 17.43528,-14.93876 z"
           style="display:inline;overflow:visible;visibility:visible;fill:#a3be8c;fill-opacity:1;fill-rule:evenodd;stroke:none;stroke-width:1.12712526;marker:none;enable-background:accumulate"
           id="path4210-8-3-3" />
      </g>
      <g
         style="fill:#a3be8c;fill-opacity:1"
         id="layer3-2-5-2-5"
         inkscape:label="Layer 1"
         transform="matrix(0.11356117,0,0,0.11356117,12.684076,174.29676)">
        <path
           style="color:#000000;font-style:normal;font-variant:normal;font-weight:normal;font-stretch:normal;font-size:medium;line-height:normal;font-family:sans-serif;font-variant-ligatures:normal;font-variant-position:normal;font-variant-caps:normal;font-variant-numeric:normal;font-variant-alternates:normal;font-feature-settings:normal;text-indent:0;text-align:start;text-decoration:none;text-decoration-line:none;text-decoration-style:solid;text-decoration-color:#000000;letter-spacing:normal;word-spacing:normal;text-transform:none;writing-mode:lr-tb;direction:ltr;text-orientation:mixed;dominant-baseline:auto;baseline-shift:baseline;text-anchor:start;white-space:normal;shape-padding:0;clip-rule:nonzero;display:inline;overflow:visible;visibility:visible;opacity:1;isolation:auto;mix-blend-mode:normal;color-interpolation:sRGB;color-interpolation-filters:linearRGB;solid-color:#000000;solid-opacity:1;vector-effect:none;fill:#a3be8c;fill-opacity:1;fill-rule:nonzero;stroke:none;stroke-width:32;stroke-linecap:butt;stroke-linejoin:miter;stroke-miterlimit:4;stroke-dasharray:none;stroke-dashoffset:0;stroke-opacity:1;color-rendering:auto;image-rendering:auto;shape-rendering:auto;text-rendering:auto;enable-background:accumulate"
           d="m 80,104 v 144 c 0,35.15671 28.84329,64 64,64 h 96 c 35.15671,0 64,-28.84329 64,-64 v -80 c 0,-26.32015 -21.67985,-48 -48,-48 -12.29591,0 -23.46684,4.8602 -32,12.58594 C 215.46684,124.8602 204.29591,120 192,120 c -26.32015,0 -48,21.67985 -48,48 v 80 h 32 v -80 c 0,-9.02607 6.97393,-16 16,-16 9.02607,0 16,6.97393 16,16 v 80 h 32 v -80 c 0,-9.02607 6.97393,-16 16,-16 9.02607,0 16,6.97393 16,16 v 80 c 0,17.86263 -14.13737,32 -32,32 h -96 c -17.86263,0 -32,-14.13737 -32,-32 V 104 Z"
           id="path4193-6-9-2-6"
           inkscape:connector-curvature="0" />
      </g>
    </g>
  </g>
</svg>
