<svg width="64" height="64" enable-background="new 0 0 1024 1024" image-rendering="optimizeSpeed" version="1.1" viewBox="0 0 64 64" xmlns="http://www.w3.org/2000/svg" xmlns:xlink="http://www.w3.org/1999/xlink">
 <defs>
  <linearGradient id="c" x1="42.137" x2="45.252" y1="45.492" y2="42.441" gradientTransform="matrix(1.0585 0 0 1.0585 1.3541 -3.4368)" gradientUnits="userSpaceOnUse">
   <stop stop-color="#242424" offset="0"/>
   <stop stop-color="#6a6a6a" offset="1"/>
  </linearGradient>
  <linearGradient id="b" x1="26.752" x2="27.555" y1="43.539" y2="14.105" gradientTransform="matrix(1.0585 0 0 1.0585 1.3541 -3.4368)" gradientUnits="userSpaceOnUse">
   <stop stop-color="#696969" offset="0"/>
   <stop stop-color="#979797" offset="1"/>
  </linearGradient>
  <filter id="filter948" x="-.108" y="-.108" width="1.216" height="1.216" color-interpolation-filters="sRGB">
   <feGaussianBlur stdDeviation="1.08"/>
  </filter>
  <filter id="filter1178" x="-.047999" y="-.047999" width="1.096" height="1.096" color-interpolation-filters="sRGB">
   <feGaussianBlur stdDeviation="0.30691668"/>
  </filter>
  <linearGradient id="linearGradient1340" x1="8.355" x2="8.3996" y1="16.007" y2=".79375" gradientUnits="userSpaceOnUse">
   <stop stop-color="#d8dee9" offset="0"/>
   <stop stop-color="#eceff4" offset="1"/>
  </linearGradient>
 </defs>
 <g transform="matrix(3.7796 0 0 3.7796 -.028914 -.011405)" stroke-linecap="round" stroke-linejoin="round">
  <rect transform="matrix(.99138 0 0 1 .072989 .0019055)" x=".79375" y=".90545" width="15.346" height="15.346" rx="3.0526" ry="3.0526" fill="#000000" filter="url(#filter1178)" opacity=".15" stroke-width="1.2489" style="mix-blend-mode:normal"/>
  <rect x=".92604" y=".92604" width="15.081" height="15.081" rx="3" ry="3" fill="url(#linearGradient1340)" stroke-width="1.2274"/>
  <rect x=".01215" y=".0060174" width="16.924" height="16.927" fill="none" opacity=".15" stroke-width="1.052"/>
 </g>
 <path transform="matrix(1.5548 0 0 1.5548 -39.377 -43.719)" d="m45.633 36.096c-5.4048 1e-6 -9.8047 4.3979-9.8047 9.8027s4.3999 9.8047 9.8047 9.8047c2.4088 0 4.6137-0.87691 6.3223-2.3242l1.334 1.332-0.28906 0.28906 5.0957 5.0957 1.7324-1.7344-5.0957-5.0957-0.28906 0.28906-1.332-1.332c1.4469-1.709 2.3242-3.9154 2.3242-6.3242 0-5.4048-4.3979-9.8027-9.8027-9.8027zm0 1.6348c4.5217 0 8.1699 3.6462 8.1699 8.168s-3.6482 8.1699-8.1699 8.1699-8.1699-3.6482-8.1699-8.1699 3.6482-8.168 8.1699-8.168z" color="#000000" color-rendering="auto" dominant-baseline="auto" enable-background="accumulate" filter="url(#filter948)" image-rendering="auto" opacity=".15" shape-rendering="auto" solid-color="#000000" stop-color="#000000" style="font-feature-settings:normal;font-variant-alternates:normal;font-variant-caps:normal;font-variant-east-asian:normal;font-variant-ligatures:normal;font-variant-numeric:normal;font-variant-position:normal;font-variation-settings:normal;inline-size:0;isolation:auto;mix-blend-mode:normal;shape-margin:0;shape-padding:0;text-decoration-color:#000000;text-decoration-line:none;text-decoration-style:solid;text-indent:0;text-orientation:mixed;text-transform:none;white-space:normal"/>
 <path d="m44.746 40.351-3.1689-3.1689" color="#000000" enable-background="accumulate" fill="none" stroke="#888" stroke-width="2.5405"/>
 <path d="m52.139 47.744-7.9221-7.9221" color="#000000" enable-background="accumulate" fill="none" stroke="url(#c)" stroke-width="3.8106"/>
 <circle cx="31.415" cy="27.021" r="13.972" color="#000000" enable-background="accumulate" fill="#fff" fill-opacity=".54292" stroke="url(#b)" stroke-width="2.5405"/>
 <rect id="rect1351" x="8.1387" y="8.3427" width="3.4016" height="3.4016" fill="#2e3440" opacity=".6"/>
 <use id="use1593" transform="translate(0,6)" width="100%" height="100%" xlink:href="#rect1351"/>
 <use id="use1595" transform="translate(0,6)" width="100%" height="100%" xlink:href="#use1593"/>
 <use id="use1597" transform="translate(0,6)" width="100%" height="100%" xlink:href="#use1595"/>
 <use id="use1599" transform="translate(0,6)" width="100%" height="100%" xlink:href="#use1597"/>
 <use id="use1601" transform="translate(0,6)" width="100%" height="100%" xlink:href="#use1599"/>
 <use id="use1603" transform="translate(0,6)" width="100%" height="100%" xlink:href="#use1601"/>
 <use transform="translate(0,6)" width="100%" height="100%" xlink:href="#use1603"/>
 <rect x="52.139" y="8.3427" width="3.4016" height="3.4016" fill="#2e3440" opacity=".6"/>
 <use transform="translate(44,6)" width="100%" height="100%" xlink:href="#rect1351"/>
 <use transform="translate(44,6)" width="100%" height="100%" xlink:href="#use1593"/>
 <use transform="translate(44,6)" width="100%" height="100%" xlink:href="#use1595"/>
 <use transform="translate(44,6)" width="100%" height="100%" xlink:href="#use1597"/>
 <use transform="translate(44,6)" width="100%" height="100%" xlink:href="#use1599"/>
 <use transform="translate(44,6)" width="100%" height="100%" xlink:href="#use1601"/>
 <use transform="translate(44,6)" width="100%" height="100%" xlink:href="#use1603"/>
 <path id="path1706" d="m14.251 12.125h34.58" fill="none" opacity=".3" stroke="#000" stroke-width=".86298px"/>
 <use id="use1930" transform="translate(0,6)" width="100%" height="100%" xlink:href="#path1706"/>
 <use id="use1932" transform="translate(0,6)" width="100%" height="100%" xlink:href="#use1930"/>
 <use id="use1934" transform="translate(0,6)" width="100%" height="100%" xlink:href="#use1932"/>
 <use id="use1936" transform="translate(0,6)" width="100%" height="100%" xlink:href="#use1934"/>
 <use id="use1938" transform="translate(0,6)" width="100%" height="100%" xlink:href="#use1936"/>
 <use transform="translate(0,6)" width="100%" height="100%" xlink:href="#use1938"/>
</svg>
