<svg width="64" height="64" version="1.1" viewBox="0 0 16.933 16.933" xmlns="http://www.w3.org/2000/svg">
 <defs>
  <filter id="filter1178" x="-.047999" y="-.047999" width="1.096" height="1.096" color-interpolation-filters="sRGB">
   <feGaussianBlur stdDeviation="0.30691668"/>
  </filter>
  <radialGradient id="radialGradient4544-0" cx="365.9" cy="-121.31" r="77.057" gradientTransform="matrix(.077665 .00088297 -.00097274 .08728 -1.0887 20.511)" gradientUnits="userSpaceOnUse">
   <stop stop-color="#ebcb8b" offset="0"/>
   <stop stop-color="#d08770" offset="1"/>
  </radialGradient>
  <linearGradient id="linearGradient4550-5" x1="369.24" x2="369.24" y1="-117.55" y2="-183.12" gradientTransform="matrix(.061261 0 0 .061888 4.9946 17.908)" gradientUnits="userSpaceOnUse">
   <stop stop-color="#d8dee9" offset="0"/>
   <stop stop-color="#eceff4" offset="1"/>
  </linearGradient>
  <linearGradient id="linearGradient1586" x1="32.784" x2="32.784" y1="5.832" y2="7.8753" gradientUnits="userSpaceOnUse">
   <stop stop-color="#4c566a" offset="0"/>
   <stop stop-color="#2e3440" offset="1"/>
  </linearGradient>
  <filter id="filter3411" x="-.027881" y="-.027888" width="1.0558" height="1.0558" color-interpolation-filters="sRGB">
   <feGaussianBlur stdDeviation="0.14926252"/>
  </filter>
  <linearGradient id="linearGradient5403" x1="-3.1372" x2="16.007" y1="8.4095" y2="8.4095" gradientUnits="userSpaceOnUse">
   <stop stop-color="#d08770" offset="0"/>
   <stop stop-color="#ebcb8b" offset="1"/>
  </linearGradient>
 </defs>
 <g stroke-linecap="round" stroke-linejoin="round">
  <rect transform="matrix(.99138 0 0 1 .072989 .0019055)" x=".79375" y=".90545" width="15.346" height="15.346" rx="3.0526" ry="3.0526" fill="#000000" filter="url(#filter1178)" opacity=".15" stroke-width="1.2489" style="mix-blend-mode:normal"/>
  <rect x=".92604" y=".86898" width="15.081" height="15.081" rx="3" ry="3" fill="url(#linearGradient5403)" stroke-width="1.2274"/>
  <rect x=".01215" y=".0060174" width="16.924" height="16.927" fill="none" opacity=".15" stroke-width="1.052"/>
 </g>
 <g transform="matrix(.84125 0 0 .84125 -14.47 .48163)" fill="#2e3440" filter="url(#filter3411)" opacity=".38063">
  <path d="m30.793 5.8977-0.01359 0.49119-3.6186 0.28761-2.727 1.7886-0.64616 2.99s0.43926 1.9326 0.81409 2.3243c0.37483 0.39172 1.1499 1.5152 2.1064 1.7111 0.95646 0.19586 1.7707 0.41722 2.5462 0.22136s1.2931-0.4306 1.2931-0.4306l0.32308-0.15673s-0.07951 0.07036-0.20712 0.16077c1.5432-0.99951 2.5654-2.748 2.5654-4.7374 0-1.9332-0.96526-3.6382-2.4359-4.6502z"/>
  <path d="m27.31 3.4457c-3.4837 0-6.308 2.8532-6.308 6.3726s2.8372 6.4694 6.308 6.4698c2.2643 0.06799 4.3646-0.99728 5.057-2.7326-0.25546 0.1191-0.53638 0.40599-0.74826 0.59375-0.3995 0.35403-0.83289 0.42578-1.3839 0.7157-1.068 0.56197-2.223 0.4872-3.3005 0.24804-0.87584-0.1944-1.8368-0.62714-2.3523-1.3193-0.5155-0.69213-0.81802-2.3357-0.81802-2.3357l0.64956-3.0044 2.7403-1.7978 3.6364-0.28887 0.0098-0.35243 1.0309 0.76893c0.1372 0.1552 0.26622 0.31798 0.38602 0.48782h0.8759c-0.02854-0.06603-0.05874-0.13101-0.0894-0.19585l0.44234 0.075446 0.2067-0.2713-0.09767-0.48213s0.07271-0.80814-0.09095-1.1296c-0.16364-0.32149-0.28174-0.45952-1.1182-0.91879-0.8365-0.45927-1.5823-0.20205-1.5823-0.20205s-0.16363-0.13758-0.24546-0.22944c-0.08183-0.091854-0.15434-0.17455-0.28163-0.16536-0.09677 0.00698-0.199 0.20409-0.24236 0.29868-0.81452-0.38774-1.7239-0.60512-2.684-0.60512z"/>
  <path d="m30.794 5.8979-0.28908 0.3984-3.3426 0.37906-2.728 1.7889-0.64516 2.99s0.4388 1.9329 0.81362 2.3247c0.37483 0.39172 1.1494 1.5157 2.1058 1.7116 0.95646 0.19586 1.7707 0.41634 2.5462 0.22048s1.2941-0.42935 1.2941-0.42935l0.32354-0.15665s-0.08106 0.07011-0.20867 0.16052c0.17477-0.11319 0.34282-0.23773 0.50349-0.36939-0.89554 0.56621-1.9877 0.85084-2.6074 0.85096-2.3025 0-4.1696-1.8842-4.1696-4.2103 0-0.82116 0.19626-1.6233 0.59538-2.2763 0.28108 0.12192 0.57702 0.32922 0.76385 0.63242 0.03006 0.04378 0.05074 0.09397 0.08423 0.13538 0.16493 0.20387 0.34306 0.25662 0.52263 0.26496 0.38372 0.01129 0.56489-0.27812 0.58198-0.66723 4.9e-4 -0.03052 0.0028-0.01526 6.56e-4 -0.04198-0.01213-0.25931-0.39042-1.2174-1.0191-1.3273 0.11004-0.085543 0.22471-0.16548 0.34459-0.23788 0.40492-0.24453 1.2653-0.52203 2.4581-0.34038 0.60494 0.092121 1.1006 0.22384 1.8646 0.46996 0.88677 0.28565 1.3796 0.68462 2.0618 0.76393 0.11481 0.013345 0.2307 0.00803 0.34268-0.013538-0.37202-1.2439-1.1581-2.3055-2.1977-3.0209z" fill-opacity=".15686"/>
  <path d="m29.676 5.3545c-1.2216 0.0063-1.933 0.14934-3.2006 0.69608-1.6081 0.75575-3.2228 2.1708-3.2319 4.4837-0.0106 2.6954 2.1634 4.8802 4.8316 4.8802 1.3787 0 2.8634-0.50881 3.7436-1.4446-0.9472 0.80126-2.5082 1.0551-3.2452 1.0552-2.3025 0-4.1847-1.7304-4.1847-4.0565 0-1.4697 0.71309-2.5524 1.8749-3.254 0.40492-0.24453 1.2647-0.52264 2.4576-0.34099 0.60494 0.092121 1.1004 0.22396 1.8645 0.47008 0.88677 0.28565 1.3807 0.68467 2.063 0.76398 0.77703 0.090321 1.5979-0.64939 0.99171-1.7999 0 0-0.10987 0.11076-0.20172 0.16644-0.091847 0.055672-0.22009-0.017862-0.58747-0.14776-0.36739-0.1299-0.42272-0.27905-0.93706-0.63164s-0.51411-0.74183-2.0204-0.83461c-0.07061-0.00435-0.14364-0.00644-0.21779-0.00568z"/>
  <path d="m25.474 6.5548c-0.31043 0.076368-1.0669 0.26197-1.5164 0.87818-0.43166 0.59182-0.39663 1.2818-0.40624 1.4656 0.125-0.20328 0.46721-0.17445 0.70314-0.13758 0.5563 0.086941 1.1268 0.23655 1.4834 0.81534 0.03006 0.043778 0.05141 0.094344 0.0849 0.13575 0.16493 0.20387 0.34318 0.25616 0.52275 0.2645 0.38372 0.011286 0.5649-0.27807 0.582-0.66718 4.9e-4 -0.030523 1.22e-4 -0.015902-2e-3 -0.042625-0.01268-0.27094-0.42438-1.3045-1.1035-1.3363-0.0076-2.476e-4 -0.01524-1.857e-4 -0.02274-6.684e-4 -0.37669-0.023251-0.66945-0.3474-0.65848-0.7343 0.03782-0.25066 0.15365-0.44888 0.38095-0.60974z"/>
  <ellipse cx="31.772" cy="6.192" rx=".47644" ry=".48131"/>
  <ellipse cx="33.535" cy="6.5303" rx=".24698" ry=".31037"/>
  <path d="m33.409 6.9865s-0.06185 0.10799-0.19524 0.1727c-0.05477 0.026573-0.15096-0.040085-0.24124 0.052573-0.1917 0.38872 0.27658 0.71326 0.4948 0.70407s0.39037-0.23131 0.38128-0.4242c-0.0091-0.29852-0.4396-0.50515-0.4396-0.50515z"/>
 </g>
 <g transform="matrix(.84125 0 0 .84125 -14.606 .1647)">
  <path d="m30.793 5.8977-0.01359 0.49119-3.6186 0.28761-2.727 1.7886-0.64616 2.99s0.43926 1.9326 0.81409 2.3243c0.37483 0.39172 1.1499 1.5152 2.1064 1.7111 0.95646 0.19586 1.7707 0.41722 2.5462 0.22136s1.2931-0.4306 1.2931-0.4306l0.32308-0.15673s-0.07951 0.07036-0.20712 0.16077c1.5432-0.99951 2.5654-2.748 2.5654-4.7374 0-1.9332-0.96526-3.6382-2.4359-4.6502z" fill="url(#radialGradient4544-0)"/>
  <path d="m27.31 3.4457c-3.4837 0-6.308 2.8532-6.308 6.3726s2.8372 6.4694 6.308 6.4698c2.2643 0.06799 4.3646-0.99728 5.057-2.7326-0.25546 0.1191-0.53638 0.40599-0.74826 0.59375-0.3995 0.35403-0.83289 0.42578-1.3839 0.7157-1.068 0.56197-2.223 0.4872-3.3005 0.24804-0.87584-0.1944-1.8368-0.62714-2.3523-1.3193-0.5155-0.69213-0.81802-2.3357-0.81802-2.3357l0.64956-3.0044 2.7403-1.7978 3.6364-0.28887 0.0098-0.35243 1.0309 0.76893c0.1372 0.1552 0.26622 0.31798 0.38602 0.48782h0.8759c-0.02854-0.06603-0.05874-0.13101-0.0894-0.19585l0.44234 0.075446 0.2067-0.2713-0.09767-0.48213s0.07271-0.80814-0.09095-1.1296c-0.16364-0.32149-0.28174-0.45952-1.1182-0.91879-0.8365-0.45927-1.5823-0.20205-1.5823-0.20205s-0.16363-0.13758-0.24546-0.22944c-0.08183-0.091854-0.15434-0.17455-0.28163-0.16536-0.09677 0.00698-0.199 0.20409-0.24236 0.29868-0.81452-0.38774-1.7239-0.60512-2.684-0.60512z" fill="#6b5756"/>
  <path d="m30.794 5.8979-0.28908 0.3984-3.3426 0.37906-2.728 1.7889-0.64516 2.99s0.4388 1.9329 0.81362 2.3247c0.37483 0.39172 1.1494 1.5157 2.1058 1.7116 0.95646 0.19586 1.7707 0.41634 2.5462 0.22048s1.2941-0.42935 1.2941-0.42935l0.32354-0.15665s-0.08106 0.07011-0.20867 0.16052c0.17477-0.11319 0.34282-0.23773 0.50349-0.36939-0.89554 0.56621-1.9877 0.85084-2.6074 0.85096-2.3025 0-4.1696-1.8842-4.1696-4.2103 0-0.82116 0.19626-1.6233 0.59538-2.2763 0.28108 0.12192 0.57702 0.32922 0.76385 0.63242 0.03006 0.04378 0.05074 0.09397 0.08423 0.13538 0.16493 0.20387 0.34306 0.25662 0.52263 0.26496 0.38372 0.01129 0.56489-0.27812 0.58198-0.66723 4.9e-4 -0.03052 0.0028-0.01526 6.56e-4 -0.04198-0.01213-0.25931-0.39042-1.2174-1.0191-1.3273 0.11004-0.085543 0.22471-0.16548 0.34459-0.23788 0.40492-0.24453 1.2653-0.52203 2.4581-0.34038 0.60494 0.092121 1.1006 0.22384 1.8646 0.46996 0.88677 0.28565 1.3796 0.68462 2.0618 0.76393 0.11481 0.013345 0.2307 0.00803 0.34268-0.013538-0.37202-1.2439-1.1581-2.3055-2.1977-3.0209z" fill="#2e3440" fill-opacity=".15686"/>
  <path d="m29.676 5.3545c-1.2216 0.0063-1.933 0.14934-3.2006 0.69608-1.6081 0.75575-3.2228 2.1708-3.2319 4.4837-0.0106 2.6954 2.1634 4.8802 4.8316 4.8802 1.3787 0 2.8634-0.50881 3.7436-1.4446-0.9472 0.80126-2.5082 1.0551-3.2452 1.0552-2.3025 0-4.1847-1.7304-4.1847-4.0565 0-1.4697 0.71309-2.5524 1.8749-3.254 0.40492-0.24453 1.2647-0.52264 2.4576-0.34099 0.60494 0.092121 1.1004 0.22396 1.8645 0.47008 0.88677 0.28565 1.3807 0.68467 2.063 0.76398 0.77703 0.090321 1.5979-0.64939 0.99171-1.7999 0 0-0.10987 0.11076-0.20172 0.16644-0.091847 0.055672-0.22009-0.017862-0.58747-0.14776-0.36739-0.1299-0.42272-0.27905-0.93706-0.63164s-0.51411-0.74183-2.0204-0.83461c-0.07061-0.00435-0.14364-0.00644-0.21779-0.00568z" fill="url(#linearGradient4550-5)"/>
  <path d="m25.474 6.5548c-0.31043 0.076368-1.0669 0.26197-1.5164 0.87818-0.43166 0.59182-0.39663 1.2818-0.40624 1.4656 0.125-0.20328 0.46721-0.17445 0.70314-0.13758 0.5563 0.086941 1.1268 0.23655 1.4834 0.81534 0.03006 0.043778 0.05141 0.094344 0.0849 0.13575 0.16493 0.20387 0.34318 0.25616 0.52275 0.2645 0.38372 0.011286 0.5649-0.27807 0.582-0.66718 4.9e-4 -0.030523 1.22e-4 -0.015902-2e-3 -0.042625-0.01268-0.27094-0.42438-1.3045-1.1035-1.3363-0.0076-2.476e-4 -0.01524-1.857e-4 -0.02274-6.684e-4 -0.37669-0.023251-0.66945-0.3474-0.65848-0.7343 0.03782-0.25066 0.15365-0.44888 0.38095-0.60974z" fill="#6b5756"/>
  <g fill="url(#linearGradient1586)">
   <ellipse cx="31.772" cy="6.192" rx=".47644" ry=".48131"/>
   <ellipse cx="33.535" cy="6.5303" rx=".24698" ry=".31037"/>
   <path d="m33.409 6.9865s-0.06185 0.10799-0.19524 0.1727c-0.05477 0.026573-0.15096-0.040085-0.24124 0.052573-0.1917 0.38872 0.27658 0.71326 0.4948 0.70407s0.39037-0.23131 0.38128-0.4242c-0.0091-0.29852-0.4396-0.50515-0.4396-0.50515z"/>
  </g>
 </g>
</svg>
