<svg width="64" height="64" version="1.1" viewBox="0 0 16.933 16.933" xmlns="http://www.w3.org/2000/svg">
 <defs>
  <filter id="filter1178" x="-.047999" y="-.047999" width="1.096" height="1.096" color-interpolation-filters="sRGB">
   <feGaussianBlur stdDeviation="0.30691668"/>
  </filter>
  <linearGradient id="linearGradient1340" x1="8.3017" x2="8.355" y1="16.007" y2=".79375" gradientUnits="userSpaceOnUse">
   <stop stop-color="#bf616a" offset="0"/>
   <stop stop-color="#d08770" offset="1"/>
  </linearGradient>
  <linearGradient id="linearGradient1090" x1="1283.5" x2="1283.5" y1="30.951" y2="1361.5" gradientUnits="userSpaceOnUse">
   <stop stop-color="#eceff4" offset="0"/>
   <stop stop-color="#d8dee9" offset="1"/>
  </linearGradient>
  <filter id="filter1324" x="-.031902" y="-.057482" width="1.0638" height="1.115" color-interpolation-filters="sRGB">
   <feGaussianBlur stdDeviation="33.229135"/>
  </filter>
 </defs>
 <g stroke-linecap="round" stroke-linejoin="round">
  <rect transform="matrix(.99138 0 0 1 .072989 .0019055)" x=".79375" y=".90545" width="15.346" height="15.346" rx="3.0526" ry="3.0526" fill="#000000" filter="url(#filter1178)" opacity=".15" stroke-width="1.2489" style="mix-blend-mode:normal"/>
  <rect x=".92604" y=".92604" width="15.081" height="15.081" rx="3" ry="3" fill="url(#linearGradient1340)" stroke-width="1.2274"/>
  <rect x=".01215" y=".0060174" width="16.924" height="16.927" fill="none" opacity=".15" stroke-width="1.052"/>
 </g>
 <style type="text/css">.st0 { fill:#323232; }</style>
 <g transform="matrix(.0053186 0 0 .0053186 1.8188 4.9069)" fill="#2e3440" filter="url(#filter1324)" opacity=".5194">
  <g fill="#2e3440">
   <path d="m1250.3 399.1c0.4 0 0.7 0.1 1 0.1s0.6-0.1 1-0.1c135.4 0 245.2 109.7 245.2 245.3 0 75.8-34.5 143.6-88.6 188.6-23.6 22.3-53.1 38.7-89.1 47-21.4 6.2-44.2 9.6-67.5 9.6h-2c-23.4 0-46.1-3.4-67.6-9.6-36-8.3-65.6-24.7-89.1-47-54.1-45-88.6-112.7-88.6-188.6 0-135.6 109.9-245.3 245.3-245.3m-1038.8 986.7c131.8 16.6 248.8-79.4 261.2-214.2 4.1-45.5-4.4-89.7-22.2-128.8-184.6-405.1 726.2-414.4 572.3-32-0.3 0.5-0.7 0.9-1.1 1.6-72.8 116.3-33.4 267.6 87.7 337.5 44.5 25.7 93.7 36.5 141.9 34.5 48.2 2 97.5-8.8 141.9-34.5 121-70 160.4-221.2 87.6-337.5-0.3-0.7-0.8-1.1-1.1-1.6-153.8-382.4 757.1-373.2 572.3 32-17.8 39.1-26.3 83.3-22.2 128.8 12.5 134.9 129.4 230.8 261.2 214.2 58.6-7.4 110.3-35.7 148.5-76.8 0 0 61.3-50.8 60.3-180.6-0.9-105.7-60.3-164.3-60.3-164.3-47.9-48.4-116-75-189-67.2-169.1-3.8-194.2-136.1-146.4-385.8 17.5-44.2 25.1-91.7 23.6-139.1 4.7-127.6-59.5-253.5-177.7-321.9-14.4-8.3-29.2-15.1-44.3-21.3-4-1.8-8.2-3.2-12.3-4.9-4.7-1.7-9.2-3.5-13.9-4.8-36.8-12.4-76.1-19.2-117-18.7-127.2 1.2-238 69.2-300.1 170.1-85.2 93.4-123.6 150.1-211.2 150.1-83.2 0-126.1-56.8-211.3-150.1-61.9-101-172.7-169-299.9-170.2-41-0.4-80.2 6.3-116.9 18.7-4.7 1.4-9.4 3.2-13.9 4.8-4.2 1.6-8.2 3.1-12.4 4.9-15 6.2-29.9 13-44.2 21.3-118.3 68.5-182.4 194.4-177.8 322-1.6 47.4 6.1 94.9 23.6 139.1 47.7 249.7 22.6 382-146.4 385.8-82.7-8.9-144.5 25.2-207 87.7-62.6 62.5-57.4 229.8 0 302.8 41.6 53.1 98.1 89.8 166.5 98.4" fill="#2e3440"/>
  </g>
 </g>
 <g transform="matrix(.0053186 0 0 .0053186 1.8188 4.7756)" fill="url(#linearGradient1090)">
  <g fill="#d8dee9">
   <path d="m1250.3 399.1c0.4 0 0.7 0.1 1 0.1s0.6-0.1 1-0.1c135.4 0 245.2 109.7 245.2 245.3 0 75.8-34.5 143.6-88.6 188.6-23.6 22.3-53.1 38.7-89.1 47-21.4 6.2-44.2 9.6-67.5 9.6h-2c-23.4 0-46.1-3.4-67.6-9.6-36-8.3-65.6-24.7-89.1-47-54.1-45-88.6-112.7-88.6-188.6 0-135.6 109.9-245.3 245.3-245.3m-1038.8 986.7c131.8 16.6 248.8-79.4 261.2-214.2 4.1-45.5-4.4-89.7-22.2-128.8-184.6-405.1 726.2-414.4 572.3-32-0.3 0.5-0.7 0.9-1.1 1.6-72.8 116.3-33.4 267.6 87.7 337.5 44.5 25.7 93.7 36.5 141.9 34.5 48.2 2 97.5-8.8 141.9-34.5 121-70 160.4-221.2 87.6-337.5-0.3-0.7-0.8-1.1-1.1-1.6-153.8-382.4 757.1-373.2 572.3 32-17.8 39.1-26.3 83.3-22.2 128.8 12.5 134.9 129.4 230.8 261.2 214.2 58.6-7.4 110.3-35.7 148.5-76.8 0 0 61.3-50.8 60.3-180.6-0.9-105.7-60.3-164.3-60.3-164.3-47.9-48.4-116-75-189-67.2-169.1-3.8-194.2-136.1-146.4-385.8 17.5-44.2 25.1-91.7 23.6-139.1 4.7-127.6-59.5-253.5-177.7-321.9-14.4-8.3-29.2-15.1-44.3-21.3-4-1.8-8.2-3.2-12.3-4.9-4.7-1.7-9.2-3.5-13.9-4.8-36.8-12.4-76.1-19.2-117-18.7-127.2 1.2-238 69.2-300.1 170.1-85.2 93.4-123.6 150.1-211.2 150.1-83.2 0-126.1-56.8-211.3-150.1-61.9-101-172.7-169-299.9-170.2-41-0.4-80.2 6.3-116.9 18.7-4.7 1.4-9.4 3.2-13.9 4.8-4.2 1.6-8.2 3.1-12.4 4.9-15 6.2-29.9 13-44.2 21.3-118.3 68.5-182.4 194.4-177.8 322-1.6 47.4 6.1 94.9 23.6 139.1 47.7 249.7 22.6 382-146.4 385.8-82.7-8.9-144.5 25.2-207 87.7-62.6 62.5-57.4 229.8 0 302.8 41.6 53.1 98.1 89.8 166.5 98.4" fill="#d8dee9"/>
  </g>
 </g>
</svg>
