<svg width="64" height="64" version="1.1" viewBox="0 0 16.933 16.933" xmlns="http://www.w3.org/2000/svg">
 <defs>
  <filter id="filter1178" x="-.047999" y="-.047999" width="1.096" height="1.096" color-interpolation-filters="sRGB">
   <feGaussianBlur stdDeviation="0.30691668"/>
  </filter>
  <linearGradient id="linearGradient1340" x1="8.6644" x2="8.6644" y1="15.931" y2=".79375" gradientUnits="userSpaceOnUse">
   <stop stop-color="#4c566a" offset="0"/>
   <stop stop-color="#a6aebf" offset="1"/>
  </linearGradient>
  <linearGradient id="linearGradient502" x1="8.2886" x2="8.2886" y1="3.9013" y2="12.575" gradientUnits="userSpaceOnUse">
   <stop stop-color="#eceff4" offset="0"/>
   <stop stop-color="#d8dee9" offset="1"/>
  </linearGradient>
  <filter id="filter1060" x="-.048673" y="-.064887" width="1.0973" height="1.1298" color-interpolation-filters="sRGB">
   <feGaussianBlur stdDeviation="0.23673152"/>
  </filter>
 </defs>
 <g stroke-linecap="round" stroke-linejoin="round">
  <rect transform="matrix(.99138 0 0 1 .072989 .0019055)" x=".79375" y=".90545" width="15.346" height="15.346" rx="3.0526" ry="3.0526" filter="url(#filter1178)" opacity=".15" stroke-width="1.2489" style="mix-blend-mode:normal"/>
  <rect x=".92604" y=".92604" width="15.081" height="15.081" rx="3" ry="3" fill="url(#linearGradient1340)" stroke-width="1.2274"/>
  <rect x=".01215" y=".0060174" width="16.924" height="16.927" fill="none" opacity=".15" stroke-width="1.052"/>
 </g>
 <path d="m10.187 4.866c-0.17194 0-0.31253-0.13964-0.31253-0.31253 0-0.17194 0.13964-0.31253 0.31253-0.31253 1.1675 0 2.2248 0.47307 2.9895 1.2387 0.76565 0.76565 1.2387 1.822 1.2387 2.9895s-0.47307 2.2248-1.2387 2.9895c-0.76565 0.76565-1.822 1.2387-2.9895 1.2387-0.17194 0-0.31253-0.13964-0.31253-0.31253s0.13964-0.31253 0.31253-0.31253c0.99553 0 1.8961-0.40372 2.5487-1.0554 0.65261-0.65261 1.0554-1.5531 1.0554-2.5487 0-0.99554-0.40372-1.8961-1.0554-2.5487-0.65261-0.65071-1.5541-1.0535-2.5487-1.0535zm-6.4501 1.1418h2.3055l1.9626-1.9749c0.12159-0.12159 0.31823-0.12254 0.43982-9.523e-4 0.061746 0.059844 0.092145 0.13964 0.092145 0.22039h9.336e-4v8.121c0 0.17194-0.13964 0.31253-0.31253 0.31253-0.087395 0-0.16624-0.0361-0.22324-0.09405l-1.9436-1.6396h-2.3216c-0.27358 0-0.52247-0.1121-0.702-0.29163-0.18049-0.17954-0.29258-0.42842-0.29258-0.702v-2.9562c0-0.27358 0.11209-0.52247 0.29163-0.702 0.18049-0.18049 0.42937-0.29258 0.70295-0.29258zm6.2924 0.64216c-0.14249 0-0.25838-0.11589-0.25838-0.25838s0.11589-0.25838 0.25838-0.25838c0.66306 0 1.2634 0.26883 1.6975 0.70295 0.43412 0.43412 0.70295 1.0345 0.70295 1.6975 0 0.66306-0.26883 1.2634-0.70295 1.6975-0.43412 0.43412-1.0345 0.70296-1.6975 0.70296-0.14249 0-0.25838-0.11589-0.25838-0.25838s0.11589-0.25838 0.25838-0.25838c0.52057 0 0.99174-0.21089 1.3328-0.55191 0.34103-0.34103 0.55191-0.8122 0.55191-1.3328 0-0.52057-0.21089-0.99174-0.55191-1.3328-0.34198-0.33913-0.81315-0.55001-1.3328-0.55001z" fill="#2e3440" filter="url(#filter1060)" opacity=".31706" stroke-width=".094994"/>
 <path d="m10.187 4.866c-0.17194 0-0.31253-0.13964-0.31253-0.31253 0-0.17194 0.13964-0.31253 0.31253-0.31253 1.1675 0 2.2248 0.47307 2.9895 1.2387 0.76565 0.76565 1.2387 1.822 1.2387 2.9895s-0.47307 2.2248-1.2387 2.9895c-0.76565 0.76565-1.822 1.2387-2.9895 1.2387-0.17194 0-0.31253-0.13964-0.31253-0.31253s0.13964-0.31253 0.31253-0.31253c0.99553 0 1.8961-0.40372 2.5487-1.0554 0.65261-0.65261 1.0554-1.5531 1.0554-2.5487 0-0.99554-0.40372-1.8961-1.0554-2.5487-0.65261-0.65071-1.5541-1.0535-2.5487-1.0535zm-6.4501 1.1418h2.3055l1.9626-1.9749c0.12159-0.12159 0.31823-0.12254 0.43982-9.523e-4 0.061746 0.059844 0.092145 0.13964 0.092145 0.22039h9.336e-4v8.121c0 0.17194-0.13964 0.31253-0.31253 0.31253-0.087395 0-0.16624-0.0361-0.22324-0.09405l-1.9436-1.6396h-2.3216c-0.27358 0-0.52247-0.1121-0.702-0.29163-0.18049-0.17954-0.29258-0.42842-0.29258-0.702v-2.9562c0-0.27358 0.11209-0.52247 0.29163-0.702 0.18049-0.18049 0.42937-0.29258 0.70295-0.29258zm6.2924 0.64216c-0.14249 0-0.25838-0.11589-0.25838-0.25838s0.11589-0.25838 0.25838-0.25838c0.66306 0 1.2634 0.26883 1.6975 0.70295 0.43412 0.43412 0.70295 1.0345 0.70295 1.6975 0 0.66306-0.26883 1.2634-0.70295 1.6975-0.43412 0.43412-1.0345 0.70296-1.6975 0.70296-0.14249 0-0.25838-0.11589-0.25838-0.25838s0.11589-0.25838 0.25838-0.25838c0.52057 0 0.99174-0.21089 1.3328-0.55191 0.34103-0.34103 0.55191-0.8122 0.55191-1.3328 0-0.52057-0.21089-0.99174-0.55191-1.3328-0.34198-0.33913-0.81315-0.55001-1.3328-0.55001z" fill="url(#linearGradient502)" stroke-width=".094994"/>
</svg>
