<svg width="64" height="64" version="1.1" viewBox="0 0 16.933 16.933" xmlns="http://www.w3.org/2000/svg">
 <g transform="translate(-21.363 -.10823)">
  <g stroke-linecap="round" stroke-linejoin="round">
   <rect transform="matrix(.99138 0 0 1 .072989 .0019055)" x=".79375" y=".90545" width="15.346" height="15.346" rx="3.0526" ry="3.0526" fill="#000000" filter="url(#filter1178)" opacity=".15" stroke-width="1.2489" style="mix-blend-mode:normal"/>
   <rect x="22.281" y="1.0313" width="15.081" height="15.081" rx="3" ry="3" fill="url(#linearGradient866)" stroke-width="1.2274"/>
   <rect x="21.368" y=".11123" width="16.924" height="16.927" fill="none" opacity=".15" stroke-width="1.052"/>
  </g>
  <path d="m35.454 14.104c0-0.28731-0.43797-0.72044-1.4343-1.4184-0.37825-0.26499-0.45783-0.34994-0.37549-0.40082 0.01772-0.01095 0.19594-0.03734 0.39602-0.05864 0.6973-0.07422 0.97165-0.15787 0.97165-0.29629 0-0.09314-0.84896-0.96951-1.1788-1.2168-0.13174-0.09879-0.43847-0.28203-0.68161-0.4072-0.91216-0.46956-1.1115-0.68473-1.3605-1.4684-0.1362-0.4287-0.45171-1.077-0.73225-1.5045-0.57288-0.87309-1.4675-1.8188-2.2501-2.3785-0.62047-0.44377-1.1901-0.68971-1.8086-0.78078-0.48665-0.071666-0.45651-0.062089-0.92185-0.29306-0.71701-0.35589-1.3579-0.47762-1.6327-0.31012-0.18252 0.11128-0.2799 0.35796-0.25089 0.63554 0.02795 0.26747 0.12452 0.45085 0.49029 0.93109 0.43806 0.57517 0.54946 0.76508 0.74869 1.2763 0.23771 0.60998 0.36055 0.85162 0.54863 1.0792 0.08316 0.10063 0.1512 0.21386 0.1512 0.25161 0 0.037747-0.03279 0.17897-0.07286 0.31381-0.1407 0.47343-0.19254 1.3681-0.10908 1.8826 0.05523 0.3404 0.21435 0.79764 0.34545 0.99266 0.16401 0.24398 0.33131 0.34634 0.53039 0.32452 0.23655-0.02592 0.39282-0.19318 0.48772-0.522 0.10419-0.36102 0.14786-0.46401 0.1866-0.44007 0.01839 0.01137 0.13386 0.17002 0.2566 0.35255 0.26559 0.39499 0.63206 0.79061 1.0751 1.1606 0.47268 0.39476 0.49018 0.3644 0.09902-0.1717-0.27234-0.37324-0.54819-0.81159-0.93836-1.4911-0.4068-0.70849-0.51705-0.86662-0.60419-0.86662-0.18674 0-0.35922 0.28508-0.5059 0.83618-0.05199 0.19534-0.11348 0.38552-0.13665 0.4226-0.16923 0.27099-0.45605-0.31108-0.49321-1.0009-0.024-0.44557 0.02888-0.78062 0.21204-1.3436 0.08044-0.24725 0.14625-0.47843 0.14625-0.51372 0-0.035296-0.14075-0.31584-0.31277-0.62343-0.17202-0.3076-0.37189-0.70829-0.44415-0.89043s-0.1721-0.43064-0.22187-0.55221-0.20218-0.36811-0.33869-0.54786c-0.37893-0.49897-0.5245-0.72647-0.5245-0.81975 0-0.090016 0.09485-0.16123 0.21473-0.16123 0.15186 0 0.55233 0.15234 0.83519 0.3177 0.5464 0.31943 0.53405 0.31537 1.0447 0.34378 0.55847 0.03108 0.6488 0.067846 1.3959 0.56821 0.93182 0.62408 1.5312 1.1721 1.8928 1.7305 0.12 0.18531 0.4992 0.90058 0.84267 1.5895 0.85922 1.7234 0.99337 1.8849 1.805 2.174 0.47955 0.17078 0.75168 0.30574 1.0985 0.54479 0.18196 0.12542 0.25381 0.19443 0.22104 0.21231-0.02671 0.01457-0.25198 0.05401-0.50061 0.08766-0.52411 0.07094-0.72279 0.1326-0.86444 0.26831-0.18469 0.17694-0.12215 0.35982 0.23681 0.6925 0.31265 0.28975 0.74163 0.60441 1.1488 0.84266 0.60044 0.35134 1.2564 0.71938 1.2847 0.72078 0.01519 7.55e-4 0.02763-0.03244 0.02763-0.07377zm-8.3775-8.0335c0.05187-0.057375 0.06965-0.13068 0.06814-0.281-0.0019-0.18527-0.01385-0.21419-0.13467-0.32492-0.20249-0.18557-0.49446-0.25021-0.64715-0.14326-0.12319 0.086288-0.10521 0.21632 0.04193 0.30314 0.06809 0.040174 0.17081 0.13714 0.22825 0.21547 0.24524 0.33441 0.31624 0.37132 0.44349 0.23057z" fill="#2e3440" filter="url(#filter3771)" opacity=".41847" stroke-width=".03684"/>
  <path d="m35.454 13.838c0-0.28731-0.43797-0.72044-1.4343-1.4184-0.37825-0.26499-0.45783-0.34994-0.37549-0.40082 0.01772-0.01095 0.19594-0.03734 0.39602-0.05864 0.6973-0.07422 0.97165-0.15787 0.97165-0.29629 0-0.09314-0.84896-0.96951-1.1788-1.2168-0.13174-0.09879-0.43847-0.28203-0.68161-0.4072-0.91216-0.46956-1.1115-0.68472-1.3605-1.4684-0.1362-0.4287-0.45171-1.077-0.73225-1.5045-0.57288-0.87309-1.4675-1.8188-2.2501-2.3785-0.62047-0.44377-1.1901-0.68971-1.8086-0.78078-0.48665-0.071666-0.45651-0.062089-0.92185-0.29306-0.71701-0.35589-1.3579-0.47762-1.6327-0.31012-0.18252 0.11128-0.2799 0.35796-0.25089 0.63554 0.02795 0.26747 0.12452 0.45085 0.49029 0.93109 0.43806 0.57517 0.54946 0.76508 0.74869 1.2763 0.23771 0.60998 0.36055 0.85162 0.54863 1.0792 0.08316 0.10063 0.1512 0.21386 0.1512 0.25161 0 0.037747-0.03279 0.17897-0.07286 0.31381-0.1407 0.47343-0.19254 1.3681-0.10908 1.8826 0.05523 0.34039 0.21435 0.79764 0.34545 0.99266 0.16401 0.24398 0.33131 0.34634 0.53039 0.32452 0.23655-0.02592 0.39282-0.19318 0.48772-0.522 0.10419-0.36102 0.14786-0.46401 0.1866-0.44007 0.01839 0.01137 0.13386 0.17002 0.2566 0.35255 0.26559 0.39499 0.63206 0.79061 1.0751 1.1606 0.47268 0.39476 0.49018 0.3644 0.09902-0.1717-0.27234-0.37324-0.54819-0.81159-0.93836-1.4911-0.4068-0.70849-0.51705-0.86662-0.60419-0.86662-0.18674 0-0.35922 0.28508-0.5059 0.83618-0.05199 0.19534-0.11348 0.38551-0.13665 0.4226-0.16923 0.27099-0.45605-0.31108-0.49321-1.0009-0.024-0.44557 0.02888-0.78062 0.21204-1.3436 0.08044-0.24725 0.14625-0.47843 0.14625-0.51372 0-0.035296-0.14075-0.31584-0.31277-0.62343-0.17202-0.3076-0.37189-0.70829-0.44415-0.89043s-0.1721-0.43064-0.22187-0.55221-0.20218-0.36811-0.33869-0.54786c-0.37893-0.49897-0.5245-0.72647-0.5245-0.81975 0-0.090016 0.09485-0.16123 0.21473-0.16123 0.15186 0 0.55233 0.15234 0.83519 0.3177 0.5464 0.31943 0.53405 0.31537 1.0447 0.34378 0.55847 0.03108 0.6488 0.067846 1.3959 0.56821 0.93182 0.62408 1.5312 1.1721 1.8928 1.7305 0.12 0.18531 0.4992 0.90058 0.84267 1.5895 0.85922 1.7234 0.99337 1.8849 1.805 2.174 0.47955 0.17078 0.75168 0.30574 1.0985 0.54479 0.18196 0.12542 0.25381 0.19443 0.22104 0.21231-0.02671 0.01457-0.25198 0.05401-0.50061 0.08766-0.52411 0.07094-0.72279 0.1326-0.86444 0.26831-0.18469 0.17694-0.12215 0.35982 0.23681 0.6925 0.31265 0.28975 0.74163 0.60441 1.1488 0.84266 0.60044 0.35134 1.2564 0.71938 1.2847 0.72078 0.01519 7.55e-4 0.02763-0.03244 0.02763-0.07377zm-8.3775-8.0335c0.05187-0.057375 0.06965-0.13068 0.06814-0.281-0.0019-0.18527-0.01385-0.21419-0.13467-0.32492-0.20249-0.18557-0.49446-0.25021-0.64715-0.14326-0.12319 0.086288-0.10521 0.21632 0.04193 0.30314 0.06809 0.040174 0.17081 0.13714 0.22825 0.21547 0.24524 0.33441 0.31624 0.37132 0.44349 0.23057z" fill="url(#linearGradient864)" stroke-width=".03684"/>
 </g>
 <defs>
  <filter id="filter1178" x="-.047999" y="-.047999" width="1.096" height="1.096" color-interpolation-filters="sRGB">
   <feGaussianBlur stdDeviation="0.30691668"/>
  </filter>
  <filter id="filter3771" x="-.059291" y="-.062527" width="1.1186" height="1.1251" color-interpolation-filters="sRGB">
   <feGaussianBlur stdDeviation="0.27828414"/>
  </filter>
  <linearGradient id="linearGradient864" x1="8.6193" x2="8.6193" y1="3.204" y2="13.58" gradientTransform="translate(21.355 .10522)" gradientUnits="userSpaceOnUse">
   <stop stop-color="#eceff4" offset="0"/>
   <stop stop-color="#d8dee9" offset="1"/>
  </linearGradient>
  <linearGradient id="linearGradient866" x1="8.6644" x2="8.6644" y1="15.941" y2=".79375" gradientTransform="translate(21.355 .10522)" gradientUnits="userSpaceOnUse">
   <stop stop-color="#4c566a" offset="0"/>
   <stop stop-color="#5e81ac" offset="1"/>
  </linearGradient>
 </defs>
</svg>
