<svg width="64" height="64" version="1.1" viewBox="0 0 16.933 16.933" xmlns="http://www.w3.org/2000/svg">
 <defs>
  <linearGradient id="linearGradient1340" x1="8.3017" x2="8.355" y1="16.007" y2=".79375" gradientTransform="translate(-4.004e-5 -3.7569e-5)" gradientUnits="userSpaceOnUse">
   <stop stop-color="#bf616a" offset="0"/>
   <stop stop-color="#2e3440" offset="1"/>
  </linearGradient>
  <filter id="filter890" x="-.025013" y="-.029329" width="1.05" height="1.0587" color-interpolation-filters="sRGB">
   <feGaussianBlur stdDeviation="0.12802307"/>
  </filter>
  <filter id="filter1178-3" x="-.047999" y="-.047999" width="1.096" height="1.096" color-interpolation-filters="sRGB">
   <feGaussianBlur stdDeviation="0.30691668"/>
  </filter>
 </defs>
 <g transform="translate(-.00025546 -.11386)">
  <rect transform="matrix(.99138 0 0 1 .072989 .0019055)" x=".79375" y=".90545" width="15.346" height="15.346" rx="3.0526" ry="3.0526" filter="url(#filter1178-3)" opacity=".15" stroke-linecap="round" stroke-linejoin="round" stroke-width="1.2489" style="mix-blend-mode:normal"/>
 </g>
 <g stroke-linecap="round" stroke-linejoin="round">
  <rect x=".926" y=".926" width="15.081" height="15.081" rx="3" ry="3" fill="url(#linearGradient1340)" stroke-width="1.2274"/>
  <path d="m4.7007 13.46c-0.026327-0.12831-0.10446-0.55992-0.17363-0.95912-0.15119-0.87251-0.25068-1.0476-1.0926-1.9228-0.87925-0.91402-1.0904-1.4159-1.1074-2.6325-0.012286-0.88301 0.01242-1.0087 0.32322-1.64 0.53433-1.0854 1.6629-1.9857 3.1775-2.535 1.0178-0.3691 1.5438-0.46244 2.9087-0.51621 1.3785-0.054312 1.4934-0.043188 2.2811 0.22061 1.0642 0.35639 1.6162 0.68144 2.3733 1.3976 1.9816 1.8742 1.5035 4.2936-1.1406 5.7722-0.78013 0.43627-1.1357 0.82876-1.2867 1.4201-0.0612 0.2398-0.19076 0.69263-0.2879 1.0063l-0.17663 0.57028-0.97436 0.06276-0.03126-0.60167c-0.10382-0.56575-0.21227-0.55957-0.74983-0.60187-1.0113 0.032117-0.78407 0.52121-0.70094 1.1926h-0.894l-0.07154-0.52012c-0.08013-0.58261-0.23942-0.72414-0.81505-0.72414-0.52471 0-0.69704 0.21761-0.61962 0.78243l0.063301 0.46183h-0.47872c-0.41314 0-0.48527-0.03196-0.52658-0.2333zm3.1546-2.1321c0-0.34555-1.0647-1.1588-1.5182-1.1596-0.28703-4.71e-4 -1.2814 0.89174-1.2814 1.1498 0 0.1848 0.091796 0.19777 1.3998 0.19777 1.2825 0 1.3998-0.01574 1.3998-0.18798zm2.8301-1.6031c0.5088-0.33338 0.64346-0.66284 0.64346-1.5743 0-1.0553-0.21646-1.4871-0.85795-1.7114-0.76781-0.26843-1.8214 0.07639-2.2962 0.75153-0.22074 0.31384-0.30116 2.3864-0.10191 2.6265 0.1997 0.24062 2.2131 0.16948 2.6126-0.09233zm-1.7374-0.81483c-0.14881-0.12091-0.14298-0.45896-0.01903-0.61344 0.21368-0.26634 0.27992-0.33113 0.62071-0.29532 0.47896 0.05033 0.46645 0.20913 0.54663 0.49058 0.14671 0.515-0.70953 0.77468-1.1483 0.41818zm-3.5812 0.70703c0-0.1319-0.13998-0.37393-0.31106-0.53784-0.3919-0.37547-0.39179-0.6065 4.674e-4 -1.0533 0.29951-0.34112 0.30545-0.36667 0.15359-0.66034-0.2318-0.44825-0.77362-1.0341-0.95639-1.0341-0.087276 0-0.33685 0.05338-0.55461 0.11863-0.46107 0.13814-0.61317 0.44839-0.61317 1.2507 0 0.79718 0.19191 1.3825 0.58649 1.7888 0.3358 0.34576 0.39587 0.36727 1.0257 0.36727 0.63002 0 0.66898-0.01397 0.66898-0.23982z" fill="#2e3440" filter="url(#filter890)" opacity=".5" stroke-width=".10369"/>
  <path d="m4.7007 13.46c-0.026327-0.12831-0.10446-0.55992-0.17363-0.95912-0.15119-0.87251-0.25068-1.0476-1.0926-1.9228-0.87925-0.91402-1.0904-1.4159-1.1074-2.6325-0.012286-0.88301 0.01242-1.0087 0.32322-1.64 0.53433-1.0854 1.6629-1.9857 3.1775-2.535 1.0178-0.3691 1.5438-0.46244 2.9087-0.51621 1.3785-0.054312 1.4934-0.043188 2.2811 0.22061 1.0642 0.35639 1.6162 0.68144 2.3733 1.3976 1.9816 1.8742 1.5035 4.2936-1.1406 5.7722-0.78013 0.43627-1.1357 0.82876-1.2867 1.4201-0.0612 0.2398-0.19076 0.69263-0.2879 1.0063l-0.17663 0.57028-0.97436 0.06276-0.03126-0.60167c-0.10382-0.56575-0.21227-0.55957-0.74983-0.60187-1.0113 0.032117-0.78407 0.52121-0.70094 1.1926h-0.894l-0.07154-0.52012c-0.08013-0.58261-0.23942-0.72414-0.81505-0.72414-0.52471 0-0.69704 0.21761-0.61962 0.78243l0.063301 0.46183h-0.47872c-0.41314 0-0.48527-0.03196-0.52658-0.2333zm3.1546-2.1321c0-0.34555-1.0647-1.1588-1.5182-1.1596-0.28703-4.71e-4 -1.2814 0.89174-1.2814 1.1498 0 0.1848 0.091796 0.19777 1.3998 0.19777 1.2825 0 1.3998-0.01574 1.3998-0.18798zm2.8301-1.6031c0.5088-0.33338 0.64346-0.66284 0.64346-1.5743 0-1.0553-0.21646-1.4871-0.85795-1.7114-0.76781-0.26843-1.8214 0.07639-2.2962 0.75153-0.22074 0.31384-0.30116 2.3864-0.10191 2.6265 0.1997 0.24062 2.2131 0.16948 2.6126-0.09233zm-1.7374-0.81483c-0.14881-0.12091-0.14298-0.45896-0.01903-0.61344 0.21368-0.26634 0.27992-0.33113 0.62071-0.29532 0.47896 0.05033 0.46645 0.20913 0.54663 0.49058 0.14671 0.515-0.70953 0.77468-1.1483 0.41818zm-3.5812 0.70703c0-0.1319-0.13998-0.37393-0.31106-0.53784-0.3919-0.37547-0.39179-0.6065 4.674e-4 -1.0533 0.29951-0.34112 0.30545-0.36667 0.15359-0.66034-0.2318-0.44825-0.77362-1.0341-0.95639-1.0341-0.087276 0-0.33685 0.05338-0.55461 0.11863-0.46107 0.13814-0.61317 0.44839-0.61317 1.2507 0 0.79718 0.19191 1.3825 0.58649 1.7888 0.3358 0.34576 0.39587 0.36727 1.0257 0.36727 0.63002 0 0.66898-0.01397 0.66898-0.23982z" fill="#eceff4" stroke-width=".10369"/>
  <rect x=".0045001" y=".003" width="16.924" height="16.927" fill="none" opacity=".15" stroke-width="1.052"/>
 </g>
</svg>
