<?xml version="1.0" encoding="UTF-8" standalone="no"?>
<svg
   width="64"
   height="64"
   version="1.1"
   viewBox="0 0 16.933 16.933"
   id="svg32"
   xml:space="preserve"
   xmlns:xlink="http://www.w3.org/1999/xlink"
   xmlns="http://www.w3.org/2000/svg"
   xmlns:svg="http://www.w3.org/2000/svg"><defs
     id="defs18"><linearGradient
       id="linearGradient3303"><stop
         style="stop-color:#d8dee9;stop-opacity:1;"
         offset="0"
         id="stop3299" /><stop
         style="stop-color:#eceff4;stop-opacity:1;"
         offset="1"
         id="stop3301" /></linearGradient><filter
       id="filter1178"
       x="-0.047999482"
       y="-0.047999482"
       width="1.095999"
       height="1.095999"
       color-interpolation-filters="sRGB"><feGaussianBlur
         stdDeviation="0.30691668"
         id="feGaussianBlur2" /></filter><linearGradient
       id="linearGradient1340"
       x1="8.3017"
       x2="8.355"
       y1="16.007"
       y2=".79375"
       gradientTransform="translate(-4.0040057e-5,-3.7569258e-5)"
       gradientUnits="userSpaceOnUse"><stop
         stop-color="#bf616a"
         offset="0"
         id="stop5" /><stop
         stop-color="#d08770"
         offset="1"
         id="stop7"
         style="stop-color:#ebcb8b;stop-opacity:1;" /></linearGradient><linearGradient
       id="linearGradient2545"
       x1="8.4344"
       x2="8.4344"
       y1="12.765"
       y2="4.1079"
       gradientUnits="userSpaceOnUse"><stop
         stop-color="#d8dee9"
         offset="0"
         id="stop10" /><stop
         stop-color="#eceff4"
         offset="1"
         id="stop12" /></linearGradient><filter
       id="filter2711"
       x="-0.060587575"
       y="-0.09840816"
       width="1.1211751"
       height="1.1968163"
       color-interpolation-filters="sRGB"><feGaussianBlur
         stdDeviation="0.35846589"
         id="feGaussianBlur15" /></filter><filter
       style="color-interpolation-filters:sRGB"
       id="filter2477"
       x="-0.011298458"
       y="-0.01279443"
       width="1.0225969"
       height="1.0255889"><feGaussianBlur
         stdDeviation="0.056386254"
         id="feGaussianBlur2479" /></filter><radialGradient
       xlink:href="#linearGradient3303"
       id="radialGradient3307"
       cx="5.7156811"
       cy="9.473814"
       fx="5.7156811"
       fy="9.473814"
       r="5.988739"
       gradientTransform="matrix(0.13630341,0.37569957,-0.30285842,0.10987671,7.9790162,5.4360656)"
       gradientUnits="userSpaceOnUse" /><filter
       style="color-interpolation-filters:sRGB"
       id="filter2254"
       x="-0.025013355"
       y="-0.029329445"
       width="1.0500267"
       height="1.0586589"><feGaussianBlur
         stdDeviation="0.12802307"
         id="feGaussianBlur2256" /></filter></defs><g
     stroke-linecap="round"
     stroke-linejoin="round"
     id="g30"><rect
       transform="matrix(.99138 0 0 1 .065339 -.0030174)"
       x=".79375"
       y=".90545"
       width="15.346"
       height="15.346"
       rx="3.0526"
       ry="3.0526"
       fill="#2e3440"
       filter="url(#filter1178)"
       opacity=".2"
       stroke-width="1.2489"
       style="mix-blend-mode:normal"
       id="rect20" /><rect
       x="0.92599982"
       y="0.92599982"
       width="15.081"
       height="15.081"
       rx="3"
       ry="3"
       fill="url(#linearGradient1340)"
       stroke-width="1.2274"
       id="rect22"
       style="fill:url(#linearGradient1340)" /><rect
       x=".0045001"
       y=".003"
       width="16.924"
       height="16.927"
       fill="none"
       opacity=".15"
       stroke-width="1.052"
       id="rect24" /><path
       style="fill:#2e3440;fill-opacity:1;stroke-width:0.103688;filter:url(#filter2254);opacity:0.5"
       d="M 4.7006773,13.460287 C 4.6743473,13.33198 4.5962153,12.900371 4.5270433,12.501173 4.3758563,11.628666 4.2763683,11.45358 3.4344763,10.578398 2.5552243,9.6643777 2.3440843,9.1624637 2.3270693,7.9459057 c -0.01229,-0.88301 0.01242,-1.00868 0.323224,-1.64002 0.534325,-1.085368 1.662911,-1.9857362 3.177544,-2.534995 1.017836,-0.3691042 1.54378,-0.4624425 2.908747,-0.5162148 1.3785117,-0.054312 1.4934157,-0.043188 2.2811367,0.22061 1.064177,0.3563882 1.616192,0.6814446 2.373346,1.397553 1.981604,1.8741849 1.503537,4.2935499 -1.140598,5.7722331 -0.780126,0.436272 -1.135735,0.828762 -1.286653,1.420099 -0.0612,0.239801 -0.19076,0.69263 -0.287905,1.006286 l -0.176629,0.570285 -0.487182,0.03138 -0.4871797,0.03138 -0.03126,-0.60167 -0.03126,-0.60167 -0.641841,-0.0307 c -0.570951,-0.02732 -0.655265,-0.0056 -0.763386,0.196401 -0.06685,0.124916 -0.09741,0.407023 -0.06792,0.626916 l 0.05363,0.399805 h -0.447001 -0.447 l -0.071539,-0.520123 c -0.08013,-0.582613 -0.239419,-0.724135 -0.815051,-0.724135 -0.524712,0 -0.697039,0.217607 -0.619621,0.78243 l 0.0633,0.461828 h -0.478715 c -0.413137,0 -0.485272,-0.03196 -0.52658,-0.233299 z m 3.154557,-2.132129 c 0,-0.345546 -1.064742,-1.158789 -1.518185,-1.15958 -0.287031,-4.71e-4 -1.281394,0.891737 -1.281394,1.14979 0,0.184799 0.0918,0.197767 1.39979,0.197767 1.282512,0 1.399789,-0.01574 1.399789,-0.187977 z M 10.685326,9.7251067 c 0.508796,-0.333375 0.643459,-0.662841 0.643459,-1.574273 0,-1.055348 -0.216457,-1.4871289 -0.857947,-1.7113969 -0.7678077,-0.2684271 -1.8213627,0.07639 -2.2962347,0.7515349 -0.220745,0.313841 -0.301162,2.386377 -0.101909,2.626461 0.1997,0.2406233 2.2130727,0.169475 2.6126317,-0.09233 z M 8.9478813,8.9102737 c -0.148807,-0.12091 -0.142975,-0.458962 -0.01903,-0.613445 0.21368,-0.266339 0.279917,-0.331134 0.620707,-0.295319 0.4789607,0.05033 0.4664507,0.209126 0.5466307,0.490582 0.14671,0.515 -0.7095287,0.774685 -1.1483017,0.418182 z m -3.581161,0.707032 c 0,-0.1319 -0.139979,-0.373929 -0.311065,-0.537839 -0.391901,-0.375466 -0.391792,-0.606496 4.68e-4,-1.053295 0.299511,-0.341124 0.305454,-0.366672 0.153593,-0.660338 -0.231797,-0.448251 -0.773621,-1.034102 -0.956386,-1.034102 -0.08728,0 -0.336848,0.05338 -0.554606,0.118626 -0.461071,0.138141 -0.613173,0.448393 -0.613173,1.250726 0,0.797176 0.191907,1.382494 0.586486,1.788779 0.3358,0.345762 0.395866,0.36727 1.02567,0.36727 0.630025,0 0.668981,-0.01397 0.668981,-0.239821 z"
       id="path847-3" /><path
       style="fill:#eceff4;stroke-width:0.103688;fill-opacity:1"
       d="M 4.7006765,13.460287 C 4.6743498,13.331979 4.5962153,12.900371 4.5270427,12.501172 4.3758561,11.628666 4.2763677,11.45358 3.434476,10.578397 2.5552237,9.664377 2.3440845,9.162463 2.3270685,7.9459058 2.3147826,7.0628957 2.339488,6.9372253 2.6502927,6.3058859 3.1846183,5.2205171 4.3132039,4.3201492 5.8278374,3.7708905 6.8456734,3.4017863 7.371617,3.3084479 8.7365839,3.2546756 10.115096,3.2003636 10.23,3.2114876 11.017721,3.4752856 c 1.064177,0.3563882 1.616192,0.6814446 2.373346,1.397553 1.981604,1.8741844 1.503537,4.2935504 -1.140598,5.7722334 -0.780126,0.436272 -1.135735,0.828762 -1.286653,1.420099 -0.0612,0.239801 -0.19076,0.69263 -0.287905,1.006286 l -0.176629,0.570285 -0.487182,0.03138 -0.4871801,0.03138 -0.03126,-0.60167 -0.03126,-0.60167 -0.641841,-0.0307 c -0.5709505,-0.02732 -0.6552653,-0.0056 -0.7633859,0.196401 -0.06685,0.124916 -0.097414,0.407023 -0.067921,0.626916 l 0.053626,0.399805 H 7.5958771 7.1488775 l -0.071535,-0.520123 c -0.08013,-0.582614 -0.2394184,-0.724135 -0.8150507,-0.724135 -0.5247118,0 -0.6970383,0.217607 -0.6196207,0.78243 l 0.063301,0.461828 H 5.2272572 c -0.413137,0 -0.485272,-0.03196 -0.5265806,-0.233299 z m 3.1545577,-2.132129 c 0,-0.345546 -1.064742,-1.158789 -1.5181853,-1.15958 -0.2870306,-4.71e-4 -1.2813936,0.891737 -1.2813936,1.14979 0,0.184799 0.091796,0.197767 1.3997894,0.197767 1.282512,0 1.3997895,-0.01574 1.3997895,-0.187977 z M 10.685326,9.725107 c 0.508796,-0.333376 0.643459,-0.662841 0.643459,-1.5742731 0,-1.0553484 -0.216457,-1.4871295 -0.857947,-1.7113972 C 9.7030299,6.1710091 8.6494749,6.5158231 8.1746032,7.1909713 7.9538579,7.5048128 7.8734415,9.577348 8.072694,9.817433 c 0.1997003,0.240623 2.213073,0.1694747 2.612632,-0.09233 z M 8.9478809,8.910273 C 8.7990739,8.789363 8.8049059,8.451312 8.9288509,8.2968282 9.1425309,8.0304891 9.2087679,7.9656942 9.5495579,8.001509 10.028519,8.051841 10.016009,8.2106356 10.096189,8.492092 10.242899,9.007091 9.3866599,9.266776 8.9478869,8.910273 Z M 5.3667196,9.617306 c 0,-0.131901 -0.1399789,-0.373929 -0.3110643,-0.53784 C 4.6637539,8.704 4.6638635,8.47297 5.0561227,8.0261717 5.3556341,7.6850474 5.3615769,7.6594993 5.2097161,7.3658335 4.9779195,6.9175825 4.4360953,6.3317318 4.2533303,6.3317318 c -0.087276,0 -0.3368484,0.053377 -0.5546059,0.118626 -0.4610712,0.1381406 -0.6131739,0.4483925 -0.6131739,1.2507254 0,0.7971758 0.191908,1.3824938 0.5864868,1.7887788 0.3358002,0.345762 0.3958659,0.36727 1.0256701,0.36727 0.6300242,0 0.6689811,-0.01397 0.6689811,-0.239821 z"
       id="path847" /></g></svg>
