<?xml version="1.0" encoding="UTF-8"?>
<svg width="64" height="64" version="1.1" viewBox="0 0 16.933 16.933" xml:space="preserve" xmlns="http://www.w3.org/2000/svg" xmlns:xlink="http://www.w3.org/1999/xlink"><defs><filter id="filter1178" x="-.047999" y="-.047999" width="1.096" height="1.096" color-interpolation-filters="sRGB"><feGaussianBlur stdDeviation="0.30691668"/></filter><linearGradient id="linearGradient1340" x1=".95428" x2="16.024" y1="8.5711" y2="8.5711" gradientUnits="userSpaceOnUse"><stop stop-color="#5e81ac" offset="0"/><stop stop-color="#88c0d0" offset="1"/></linearGradient><linearGradient id="linearGradient491" x1="14.769" x2="1.8728" y1="8.8626" y2="8.8626" gradientUnits="userSpaceOnUse"><stop stop-color="#eceff4" offset="0"/><stop stop-color="#d8dee9" offset="1"/></linearGradient><filter id="filter1049" x="-.074249" y="-.1631" width="1.1485" height="1.3262" color-interpolation-filters="sRGB"><feGaussianBlur stdDeviation="0.39765825"/></filter></defs><g stroke-linecap="round" stroke-linejoin="round"><rect transform="matrix(.99138 0 0 1 .072989 .0019055)" x=".79375" y=".90545" width="15.346" height="15.346" rx="3.0526" ry="3.0526" filter="url(#filter1178)" opacity=".15" stroke-width="1.2489" style="mix-blend-mode:normal"/><rect x=".92604" y=".92604" width="15.081" height="15.081" rx="3" ry="3" fill="url(#linearGradient1340)" stroke-width="1.2274"/><rect x=".01215" y=".0060174" width="16.924" height="16.927" fill="none" opacity=".15" stroke-width="1.052"/></g><path d="m8.1381 6.1444c-1.3323 0-2.4616 0.90323-2.8116 2.127-0.30418-0.64911-0.96335-1.1039-1.7226-1.1039-1.0442 0-1.9025 0.85832-1.9025 1.9025 0 1.0441 0.85832 1.9029 1.9025 1.9029 0.75925 0 1.4184-0.45503 1.7226-1.1043 0.34999 1.2239 1.4792 2.1274 2.8116 2.1274 1.3225 0 2.446-0.8899 2.8049-2.1 0.3098 0.63448 0.96081 1.0768 1.7093 1.0768 1.0442 0 1.9029-0.85871 1.9029-1.9029 0-1.0441-0.85871-1.9025-1.9029-1.9025-0.74847 0-1.3995 0.44206-1.7093 1.0764-0.35895-1.21-1.4824-2.0996-2.8049-2.0996zm0 1.1168c1.0058 0 1.8092 0.80306 1.8092 1.8088 0 1.0058-0.80345 1.8092-1.8092 1.8092-1.0057 0-1.8088-0.80346-1.8088-1.8092 0-1.0058 0.80306-1.8088 1.8088-1.8088zm-4.5342 1.0231c0.44064 0 0.78607 0.34503 0.78607 0.78567 0 0.44064-0.34542 0.78606-0.78607 0.78606-0.44064 0-0.78568-0.34542-0.78568-0.78606 0-0.44065 0.34503-0.78567 0.78568-0.78567zm9.0484 0c0.44065 0 0.78607 0.34503 0.78607 0.78567 0 0.44064-0.34542 0.78606-0.78607 0.78606-0.44064 0-0.78567-0.34542-0.78567-0.78606 0-0.44065 0.34503-0.78567 0.78567-0.78567z" color="#000000" color-rendering="auto" fill="#2e3440" filter="url(#filter1049)" image-rendering="auto" opacity=".37115" shape-rendering="auto" solid-color="#000000" style="isolation:auto;mix-blend-mode:normal;text-decoration-color:#000000;text-decoration-line:none;text-decoration-style:solid;text-indent:0;text-transform:none;white-space:normal"/><path d="m8.3689 5.9136c-1.3323 0-2.4616 0.90323-2.8116 2.127-0.30418-0.64911-0.96335-1.1039-1.7226-1.1039-1.0442 0-1.9025 0.85832-1.9025 1.9025 0 1.0441 0.85832 1.9029 1.9025 1.9029 0.75925 0 1.4184-0.45503 1.7226-1.1043 0.34999 1.2239 1.4792 2.1274 2.8116 2.1274 1.3225 0 2.446-0.8899 2.8049-2.1 0.3098 0.63448 0.96081 1.0768 1.7093 1.0768 1.0442 0 1.9029-0.85871 1.9029-1.9029 0-1.0441-0.85871-1.9025-1.9029-1.9025-0.74847 0-1.3995 0.44206-1.7093 1.0764-0.35895-1.21-1.4824-2.0996-2.8049-2.0996zm0 1.1168c1.0058 0 1.8092 0.80306 1.8092 1.8088 0 1.0058-0.80345 1.8092-1.8092 1.8092-1.0057 0-1.8088-0.80345-1.8088-1.8092 0-1.0058 0.80306-1.8088 1.8088-1.8088zm-4.5342 1.0231c0.44064 0 0.78607 0.34503 0.78607 0.78567 0 0.44064-0.34542 0.78606-0.78607 0.78606-0.44064 0-0.78568-0.34542-0.78568-0.78606 0-0.44065 0.34503-0.78567 0.78568-0.78567zm9.0484 0c0.44065 0 0.78607 0.34503 0.78607 0.78567 0 0.44064-0.34542 0.78606-0.78607 0.78606-0.44064 0-0.78567-0.34542-0.78567-0.78606 0-0.44065 0.34503-0.78567 0.78567-0.78567z" color="#000000" color-rendering="auto" fill="url(#linearGradient491)" image-rendering="auto" shape-rendering="auto" solid-color="#000000" style="isolation:auto;mix-blend-mode:normal;text-decoration-color:#000000;text-decoration-line:none;text-decoration-style:solid;text-indent:0;text-transform:none;white-space:normal"/></svg>
