<svg width="64" height="64" version="1.1" viewBox="0 0 16.933 16.933" xmlns="http://www.w3.org/2000/svg">
 <defs>
  <filter id="filter1178" x="-.047999" y="-.047999" width="1.096" height="1.096" color-interpolation-filters="sRGB">
   <feGaussianBlur stdDeviation="0.30691668"/>
  </filter>
  <linearGradient id="linearGradient1340" x1="8.3017" x2="8.355" y1="16.007" y2=".79375" gradientUnits="userSpaceOnUse">
   <stop stop-color="#bf616a" offset="0"/>
   <stop stop-color="#d08770" offset="1"/>
  </linearGradient>
  <linearGradient id="linearGradient1230" x1="30.777" x2="30.777" y1="2.284" y2="9.6099" gradientTransform="matrix(1 0 0 1.0451 -21.282 2.1891)" gradientUnits="userSpaceOnUse">
   <stop stop-color="#eceff4" offset="0"/>
   <stop stop-color="#d8dee9" offset="1"/>
  </linearGradient>
  <filter id="filter1529" x="-.026897" y="-.03539" width="1.0538" height="1.0708" color-interpolation-filters="sRGB">
   <feGaussianBlur stdDeviation="0.11172205"/>
  </filter>
 </defs>
 <g stroke-linecap="round" stroke-linejoin="round">
  <rect transform="matrix(.99138 0 0 1 .072989 .0019055)" x=".79375" y=".90545" width="15.346" height="15.346" rx="3.0526" ry="3.0526" fill="#000000" filter="url(#filter1178)" opacity=".15" stroke-width="1.2489" style="mix-blend-mode:normal"/>
  <rect x=".92604" y=".92604" width="15.081" height="15.081" rx="3" ry="3" fill="url(#linearGradient1340)" stroke-width="1.2274"/>
  <rect x=".01215" y=".0060174" width="16.924" height="16.927" fill="none" opacity=".15" stroke-width="1.052"/>
 </g>
 <path d="m5.3852 11.444v-0.94708h-1.8125v1.8942h1.8125zm2.7187-1.4206v-2.3677h0.90625v4.7354h1.8125v-4.7354h0.90625v4.7354h1.8125v-7.5766h-7.25v7.5766h1.8125zm-2.7187-2.8412v-2.3677h-1.8125v4.7354h1.8125z" fill="#2e3440" filter="url(#filter1529)" opacity=".38073" stroke-width=".028951"/>
 <path d="m5.2947 11.308v-0.94708h-1.8125v1.8942h1.8125zm2.7187-1.4206v-2.3677h0.90625v4.7354h1.8125v-4.7354h0.90625v4.7354h1.8125v-7.5766h-7.25v7.5766h1.8125zm-2.7187-2.8412v-2.3677h-1.8125v4.7354h1.8125z" fill="url(#linearGradient1230)" stroke-width=".028951"/>
</svg>
