<svg width="64" height="64" version="1.1" viewBox="0 0 16.933 16.933" xmlns="http://www.w3.org/2000/svg">
 <defs>
  <filter id="filter1178" x="-.047999" y="-.047999" width="1.096" height="1.096" color-interpolation-filters="sRGB">
   <feGaussianBlur stdDeviation="0.30691668"/>
  </filter>
  <linearGradient id="linearGradient1340" x1="8.3017" x2="8.355" y1="16.007" y2=".79375" gradientUnits="userSpaceOnUse">
   <stop stop-color="#bf616a" offset="0"/>
   <stop stop-color="#d08770" offset="1"/>
  </linearGradient>
  <linearGradient id="linearGradient1230" x1="30.777" x2="30.777" y1="2.284" y2="9.6099" gradientTransform="matrix(1 0 0 1.0451 -21.282 2.1891)" gradientUnits="userSpaceOnUse">
   <stop stop-color="#eceff4" offset="0"/>
   <stop stop-color="#d8dee9" offset="1"/>
  </linearGradient>
  <filter id="filter1529" x="-.026897" y="-.03539" width="1.0538" height="1.0708" color-interpolation-filters="sRGB">
   <feGaussianBlur stdDeviation="0.11172205"/>
  </filter>
  <linearGradient id="linearGradient1225" x1="31.069" x2="31.069" y1="6.6945" y2="17.856" gradientTransform="matrix(.56725 0 0 .56725 -4.9831 5.9184)" gradientUnits="userSpaceOnUse">
   <stop stop-color="#eceff4" offset="0"/>
   <stop stop-color="#d8dee9" offset="1"/>
  </linearGradient>
  <linearGradient id="linearGradient1407" x1="40.464" x2="40.464" y1="6.1551" y2="15.84" gradientTransform="matrix(.56725 0 0 .56725 -10.069 6.6075)" gradientUnits="userSpaceOnUse">
   <stop stop-color="#4c566a" offset="0"/>
   <stop stop-color="#2e3440" offset="1"/>
  </linearGradient>
  <filter id="filter1643" x="-.072808" y="-.073753" width="1.1456" height="1.1475" color-interpolation-filters="sRGB">
   <feGaussianBlur stdDeviation="0.20101888"/>
  </filter>
 </defs>
 <g stroke-linecap="round" stroke-linejoin="round">
  <rect transform="matrix(.99138 0 0 1 .072989 .0019055)" x=".79375" y=".90545" width="15.346" height="15.346" rx="3.0526" ry="3.0526" fill="#000000" filter="url(#filter1178)" opacity=".15" stroke-width="1.2489" style="mix-blend-mode:normal"/>
  <rect x=".92604" y=".92604" width="15.081" height="15.081" rx="3" ry="3" fill="url(#linearGradient1340)" stroke-width="1.2274"/>
  <rect x=".01215" y=".0060174" width="16.924" height="16.927" fill="none" opacity=".15" stroke-width="1.052"/>
 </g>
 <path d="m5.3852 11.444v-0.94708h-1.8125v1.8942h1.8125zm2.7187-1.4206v-2.3677h0.90625v4.7354h1.8125v-4.7354h0.90625v4.7354h1.8125v-7.5766h-7.25v7.5766h1.8125zm-2.7187-2.8412v-2.3677h-1.8125v4.7354h1.8125z" fill="#2e3440" filter="url(#filter1529)" opacity=".38073" stroke-width=".028951"/>
 <path d="m5.2947 11.308v-0.94708h-1.8125v1.8942h1.8125zm2.7187-1.4206v-2.3677h0.90625v4.7354h1.8125v-4.7354h0.90625v4.7354h1.8125v-7.5766h-7.25v7.5766h1.8125zm-2.7187-2.8412v-2.3677h-1.8125v4.7354h1.8125z" fill="url(#linearGradient1230)" stroke-width=".028951"/>
 <ellipse cx="12.607" cy="12.697" rx="3.3131" ry="3.2707" fill="#2e3440" fill-rule="evenodd" filter="url(#filter1643)" opacity=".3487" stroke-width=".15008"/>
 <g transform="matrix(.95369 0 0 .95369 .67778 .70157)">
  <ellipse cx="12.788" cy="12.856" rx="3.3131" ry="3.2707" fill="url(#linearGradient1225)" fill-rule="evenodd" stroke-width=".15008"/>
  <path d="m12.365 15.672c-0.62249-0.09697-1.1868-0.38742-1.6108-0.82901-0.2464-0.25665-0.38283-0.45267-0.53204-0.76441-0.85354-1.7832 0.31914-3.8516 2.3014-4.0591 1.068-0.11182 2.148 0.43604 2.7085 1.374 0.67692 1.1327 0.48918 2.5781-0.45401 3.4952-0.65449 0.63642-1.5305 0.92079-2.413 0.78332zm0.99906-0.41552c0.10722-0.02762 0.28376-0.08718 0.3923-0.13237 0.19708-0.08204 0.59187-0.32852 0.67716-0.42276 0.04442-0.04909 0.04143-0.05009-0.20328-0.0679-0.1366-0.0099-0.34395-0.03468-0.46076-0.05496l-0.21239-0.03688-0.05715 0.06166c-0.27728 0.29919-0.79964 0.12792-0.8453-0.27716-0.01226-0.10873-0.02082-0.12-0.13524-0.17798-0.15309-0.07757-0.50311-0.31504-0.66261-0.44953-0.11935-0.10064-0.12239-0.10159-0.23463-0.07332-0.06255 0.01575-0.14214 0.02863-0.17686 0.02863-0.05498 0-0.06868 0.01888-0.10594 0.14604-0.07039 0.24021-0.11137 0.51352-0.11231 0.74901l-9.08e-4 0.22199 0.12064 0.08868c0.28698 0.21094 0.74127 0.39484 1.0985 0.44466 0.2427 0.03385 0.69263 0.01044 0.9188-0.04781zm1.4441-1.0189c0.05523-0.02955 0.14521-0.17524 0.23816-0.38558l0.06398-0.14476-0.47762-0.333-0.12223 0.06589c-0.10506 0.05663-0.14465 0.06419-0.28175 0.05379-0.34873-0.02645-0.55404-0.3144-0.48354-0.67818 0.0172-0.08876 0.01673-0.0893-0.30482-0.35049-0.17713-0.14387-0.38726-0.31952-0.46696-0.39031l-0.14491-0.12872-0.21067 0.16522c-0.11587 0.09087-0.27659 0.22651-0.35717 0.30142l-0.1465 0.1362 0.04109 0.11429c0.05121 0.14243 0.037 0.4036-0.02945 0.54091l-0.04666 0.09643 0.07512 0.06274c0.04132 0.03451 0.21136 0.15494 0.37788 0.26762 0.21377 0.14467 0.31829 0.20105 0.35558 0.19182 0.02905-0.0072 0.09783-0.02457 0.15285-0.03863 0.10846-0.02773 0.21762-0.01515 0.32162 0.03706 0.08642 0.04339 0.22113 0.19797 0.24079 0.27633 0.01335 0.0532 0.04092 0.06719 0.1972 0.10014 0.09993 0.02106 0.20454 0.04313 0.23248 0.04904 0.1077 0.02277 0.72956 0.01537 0.77552-0.0092zm-4.0299-0.22177c0.0091-0.10826 0.03848-0.28827 0.06523-0.40002 0.04028-0.16826 0.04294-0.20974 0.01543-0.24129-0.10693-0.12262-0.15282-0.26726-0.15313-0.48257-2.64e-4 -0.18721 0.0087-0.23182 0.06737-0.33583l0.06767-0.11995-0.04655-0.1225c-0.06278-0.1652-0.10478-0.48538-0.08682-0.66175l0.01468-0.14418-0.07803 0.12699c-0.36804 0.59896-0.42158 1.4837-0.13155 2.1739 0.08564 0.20383 0.19882 0.40399 0.22844 0.40399 0.01137 0 0.02814-0.08858 0.03726-0.19684zm4.4735-1.0065c0.04005-0.49475-0.11018-1.0649-0.39594-1.5026l-0.12368-0.18946h-0.14256c-0.30413 0-0.89325 0.16054-1.2516 0.34106l-0.1613 0.08126 0.40167 0.37439c0.36286 0.33821 0.4079 0.37242 0.46608 0.35402 0.03543-0.01121 0.14059-0.0204 0.23371-0.02044 0.14769-5.6e-5 0.18336 0.0098 0.27938 0.07726 0.16484 0.1158 0.23758 0.26361 0.23396 0.47548l-0.0029 0.17182 0.38701 0.3091 0.02974-0.13279c0.01635-0.07303 0.03726-0.22562 0.04643-0.33907zm-3.4161-1.093c0.13271-0.12827 0.29272-0.27186 0.35558-0.31909s0.12403-0.09415 0.13592-0.10426c0.0119-0.01011-0.06107-0.1138-0.16215-0.23042s-0.24606-0.30061-0.32218-0.40887-0.15226-0.19684-0.16921-0.19684c-0.04569 0-0.39055 0.23364-0.53643 0.36341l-0.12699 0.11298 0.0021 0.26342c0.0021 0.26685 0.02225 0.37802 0.11472 0.63376l0.05126 0.14175 0.41609-0.02262zm1.0976-0.76328c0.35826-0.16553 0.86058-0.26234 1.2085-0.23293 0.11302 0.0096 0.17994 0.0064 0.171-0.0081-0.03173-0.05135-0.40184-0.26264-0.60209-0.34373-0.3-0.12149-0.56287-0.16977-0.92256-0.16946-0.27859 2.44e-4 -0.62017 0.04797-0.71184 0.09946-0.02381 0.01337 0.06221 0.1241 0.29576 0.38078 0.18113 0.19906 0.33866 0.36193 0.35008 0.36193 0.01141 0 0.10643-0.03958 0.21114-0.08796z" fill="url(#linearGradient1407)" stroke-width=".025398"/>
 </g>
</svg>
