<svg width="64" height="64" version="1.1" viewBox="0 0 16.933 16.933" xmlns="http://www.w3.org/2000/svg">
 <defs>
  <filter id="filter1178" x="-.047999" y="-.047999" width="1.096" height="1.096" color-interpolation-filters="sRGB">
   <feGaussianBlur stdDeviation="0.30691668"/>
  </filter>
  <linearGradient id="linearGradient1340" x1="8.355" x2="8.3996" y1="16.007" y2=".79375" gradientUnits="userSpaceOnUse">
   <stop stop-color="#d8dee9" offset="0"/>
   <stop stop-color="#eceff4" offset="1"/>
  </linearGradient>
  <linearGradient id="linearGradient1442" x1="8.6848" x2="8.7624" y1="16.869" y2="4.5337" gradientTransform="matrix(1.151 0 0 1.151 -1.2792 -1.2828)" gradientUnits="userSpaceOnUse">
   <stop stop-color="#5e81ac" offset="0"/>
   <stop stop-color="#88c0d0" offset="1"/>
  </linearGradient>
 </defs>
 <g stroke-linecap="round" stroke-linejoin="round">
  <rect transform="matrix(.99138 0 0 1 .072989 .0019055)" x=".79375" y=".90545" width="15.346" height="15.346" rx="3.0526" ry="3.0526" fill="#2e3440" filter="url(#filter1178)" opacity=".15" stroke-width="1.2489" style="mix-blend-mode:normal"/>
  <rect x=".92604" y=".92604" width="15.081" height="15.081" rx="3" ry="3" fill="url(#linearGradient1340)" stroke-width="1.2274"/>
  <rect x=".01215" y=".0060174" width="16.924" height="16.927" fill="none" opacity=".15" stroke-width="1.052"/>
 </g>
 <path d="m3.6896 13.193c-0.707-0.97336-1.1235-2.1744-1.1235-3.4771 0-3.2689 2.6441-5.9178 5.9081-5.9178s5.9081 2.649 5.9081 5.9227c0 1.2979-0.41645 2.4989-1.1235 3.4771l-2.8379-4.6199-0.276 0.4649 0.276 1.2882-1.9516-3.3415-1.201 2.0388 0.2809 1.3027-1.0218-1.7483z" fill="url(#linearGradient1442)" stroke-width=".084558"/>
</svg>
