<?xml version="1.0" encoding="UTF-8" standalone="no"?>
<svg
   width="64"
   height="64"
   version="1.1"
   viewBox="0 0 16.933 16.933"
   id="svg25"
   xml:space="preserve"
   xmlns:xlink="http://www.w3.org/1999/xlink"
   xmlns="http://www.w3.org/2000/svg"
   xmlns:svg="http://www.w3.org/2000/svg"><defs
     id="defs15"><linearGradient
       id="linearGradient13580"><stop
         style="stop-color:#d8dee9;stop-opacity:1;"
         offset="0"
         id="stop13576" /><stop
         style="stop-color:#d8dee9;stop-opacity:1;"
         offset="1"
         id="stop13578" /></linearGradient><linearGradient
       id="a"
       x1="8.587"
       x2="8.587"
       y1="15.747"
       y2="1.097"
       gradientTransform="matrix(1.0178 0 0 1.0178 -.15083 -.14268)"
       gradientUnits="userSpaceOnUse"><stop
         stop-color="#2e3440"
         offset="0"
         id="stop2" /><stop
         stop-color="#4c566a"
         offset="1"
         id="stop4" /></linearGradient><filter
       id="filter1078"
       x="-0.02631447"
       y="-0.027723006"
       width="1.0526289"
       height="1.055446"
       color-interpolation-filters="sRGB"><feGaussianBlur
         stdDeviation="0.45999875"
         id="feGaussianBlur7" /></filter><linearGradient
       id="linearGradient467"
       x1="8.8655"
       x2="8.8655"
       y1="3.3171"
       y2="13.735"
       gradientUnits="userSpaceOnUse"
       gradientTransform="translate(0.02623798,0.04790047)"><stop
         stop-color="#eceff4"
         offset="0"
         id="stop10" /><stop
         stop-color="#d8dee9"
         offset="1"
         id="stop12" /></linearGradient><style
       id="style333">.cls-1{fill:url(#radial-gradient);}.cls-2{fill:none;}.cls-3{fill:url(#radial-gradient-2);}.cls-4{fill:url(#radial-gradient-3);}.cls-5{clip-path:url(#clip-path);}.cls-6{fill:url(#radial-gradient-5);}.cls-7{clip-path:url(#clip-path-2);}.cls-8{fill:url(#radial-gradient-6);}.cls-9{fill:url(#radial-gradient-7);}</style><radialGradient
       id="radial-gradient"
       cx="512.06144"
       cy="512.12118"
       r="444.12235"
       gradientUnits="userSpaceOnUse"><stop
         offset="0.99"
         stop-opacity="0.5"
         id="stop335" /><stop
         offset="1"
         stop-opacity="0"
         id="stop337" /></radialGradient><radialGradient
       id="radial-gradient-2"
       cx="514.5"
       cy="516.5"
       r="496.5"
       gradientUnits="userSpaceOnUse"><stop
         offset="0.91341"
         id="stop340" /><stop
         offset="1"
         stop-opacity="0"
         id="stop342" /></radialGradient><radialGradient
       id="radial-gradient-3"
       cx="512.05911"
       cy="512.1212"
       r="486.27268"
       gradientUnits="userSpaceOnUse"
       gradientTransform="translate(1479.0677,252.77525)"><stop
         offset="0.99"
         stop-color="#fff"
         id="stop345" /><stop
         offset="0.99505"
         stop-color="#fdfdfd"
         id="stop347" /><stop
         offset="0.99687"
         stop-color="#f6f6f6"
         id="stop349" /><stop
         offset="0.99817"
         stop-color="#ebebeb"
         id="stop351" /><stop
         offset="0.99921"
         stop-color="#dadada"
         id="stop353" /><stop
         offset="1"
         stop-color="#c7c7c7"
         id="stop355" /></radialGradient><clipPath
       id="clip-path"
       transform="translate(-18 -20)"><path
         id="SVGID"
         class="cls-1"
         d="M67.93793,512.1212c0,245.28622,198.83963,444.12116,444.12116,444.12116S956.185,757.40742,956.185,512.1212C956.185,266.83966,757.34063,68,512.05909,68S67.93793,266.83966,67.93793,512.1212" /></clipPath><radialGradient
       id="radial-gradient-5"
       cx="494.0614"
       cy="492.1212"
       r="444.12237"
       xlink:href="#radial-gradient" /><clipPath
       id="clip-path-2"
       transform="translate(-18 -20)"><path
         class="cls-2"
         d="M71.60309,512.1212c0,243.262,197.19869,440.456,440.456,440.456s440.46067-197.194,440.46067-440.456c0-243.25733-197.20334-440.45606-440.46067-440.45606S71.60309,268.86387,71.60309,512.1212"
         id="path361" /></clipPath><radialGradient
       id="radial-gradient-6"
       cx="5.29522"
       cy="1029.31443"
       r="4.65333"
       gradientTransform="matrix(94.65428,0,0,-94.65428,-7.15418,97921.139)"
       gradientUnits="userSpaceOnUse"><stop
         offset="0"
         id="stop364" /><stop
         offset="1"
         stop-color="#322f32"
         id="stop366" /></radialGradient><radialGradient
       id="radial-gradient-7"
       cx="578.89023"
       cy="473.31944"
       r="353.94182"
       gradientTransform="matrix(1,0,0,1.09706,0,-45.94173)"
       gradientUnits="userSpaceOnUse"><stop
         offset="0"
         stop-color="#c2c0c2"
         id="stop369" /><stop
         offset="1"
         stop-color="#ebebeb"
         id="stop371" /></radialGradient><radialGradient
       xlink:href="#linearGradient13580"
       id="radialGradient13582"
       cx="9.5074494"
       cy="7.7684738"
       fx="9.5074494"
       fy="7.7684738"
       r="5.4511029"
       gradientTransform="matrix(1,0,0,1.0970739,0,-0.75411569)"
       gradientUnits="userSpaceOnUse" /><filter
       style="color-interpolation-filters:sRGB"
       id="filter29284"
       x="-0.028310497"
       y="-0.025805462"
       width="1.056621"
       height="1.0516109"><feGaussianBlur
         stdDeviation="0.12860286"
         id="feGaussianBlur29286" /></filter><filter
       id="filter1178"
       x="-0.04799993"
       y="-0.04799993"
       width="1.0959999"
       height="1.0959999"
       color-interpolation-filters="sRGB"><feGaussianBlur
         stdDeviation="0.30691955"
         id="feGaussianBlur276" /></filter></defs><rect
     transform="matrix(0.99138,0,0,1,0.07299277,0.00180981)"
     x="0.79374999"
     y="0.90544999"
     width="15.346"
     height="15.346"
     rx="3.0525999"
     ry="3.0525999"
     fill="#2e3440"
     filter="url(#filter1178)"
     opacity="0.45"
     stroke-width="1.2489"
     style="mix-blend-mode:normal"
     id="rect333" /><rect
     x=".92602"
     y=".92602"
     width="15.081"
     height="15.081"
     rx="3.0536"
     ry="3.0535"
     fill="url(#a)"
     stroke-width="1.0178"
     id="rect19" /><path
     style="fill:#2e3440;fill-opacity:1;stroke-width:0.004149;filter:url(#filter29284);opacity:0.5"
     d="m 5.4126382,13.747177 c -0.445436,-0.02508 -0.856969,-0.114425 -1.260772,-0.273718 -0.04341,-0.01713 -0.0836,-0.0338 -0.08931,-0.03707 -0.01231,-0.007 -0.01128,-0.0068 0.05004,0.0107 0.445871,0.127384 0.948552,0.154566 1.41429,0.07648 0.594355,-0.09965 1.143894,-0.359486 1.599329,-0.756211 0.133973,-0.1167 0.294691,-0.284897 0.407497,-0.426452 0.19271,-0.241832 0.356743,-0.525352 0.472717,-0.817062 0.258692,-0.650693 0.296886,-1.377745 0.107921,-2.0543841 C 7.9052642,8.7207928 7.4344432,8.0749107 6.7835012,7.6437825 6.5164252,7.4668929 6.2520802,7.3418855 5.9422922,7.2459794 5.6578422,7.1579164 5.3649992,7.1117721 5.0436562,7.1043795 l -0.118297,-0.00271 -0.04261,-0.087377 C 4.6796432,6.5978081 4.5527202,6.1512071 4.5052012,5.6858184 c -0.01419,-0.1390666 -0.01654,-0.193342 -0.01669,-0.3874544 -1.72e-4,-0.2099617 0.0029,-0.2734418 0.02092,-0.4371818 0.05165,-0.4686263 0.186307,-0.9238955 0.398105,-1.3460077 0.337495,-0.672619 0.857687,-1.23247 1.504248,-1.618925 0.09006,-0.05383 0.206689,-0.117665 0.195166,-0.106823 -0.0022,0.0022 -0.02286,0.01671 -0.0457,0.03235 -0.09658,0.06614 -0.217892,0.160697 -0.305329,0.238002 -0.114011,0.100807 -0.264363,0.256827 -0.361797,0.37544 -0.585909,0.713269 -0.837408,1.6394808 -0.693051,2.5523479 0.08109,0.5128083 0.288204,1.0025323 0.601472,1.422221 0.506956,0.679171 1.266172,1.1365782 2.09975,1.2650366 0.206623,0.031841 0.377835,0.042367 0.598013,0.036763 0.712179,-0.018131 1.414165,-0.2823829 1.9678828,-0.7407812 0.147577,-0.1221719 0.29994,-0.274365 0.427687,-0.4272042 0.09446,-0.1130123 0.211147,-0.2773947 0.282385,-0.3978144 0.01684,-0.02849 0.03084,-0.051989 0.03106,-0.05222 0.0015,-0.00172 0.141046,0.00825 0.210177,0.015073 0.854188,0.084286 1.651024,0.4391838 2.284242,1.0173623 0.658264,0.6010494 1.091476,1.3943313 1.238708,2.2682842 0.009,0.053386 0.01625,0.099073 0.0161,0.1015264 -2.02e-4,0.00246 -0.0084,-0.023034 -0.01834,-0.056638 C 14.802428,8.9738187 14.578092,8.5658572 14.260575,8.2032324 14.199975,8.1340274 14.046436,7.9804309 13.974279,7.9168383 13.46486,7.4678826 12.837523,7.191913 12.167243,7.1219075 11.699072,7.0730125 11.238745,7.1235975 10.791379,7.2730827 9.8925282,7.5734422 9.1680112,8.2589939 8.8151052,9.1430718 c -0.122451,0.3067449 -0.192391,0.6124621 -0.221091,0.9663542 -0.007,0.0865 -0.0071,0.364368 -7.7e-5,0.451685 0.0365,0.456104 0.144993,0.846423 0.343839,1.236962 0.02378,0.04673 0.04326,0.08689 0.04326,0.08925 0,0.0024 -0.01867,0.03275 -0.04149,0.06753 -0.458357,0.698572 -1.12749,1.237831 -1.904775,1.535069 -0.355296,0.135866 -0.704126,0.214629 -1.107002,0.249953 -0.07265,0.0064 -0.439372,0.01157 -0.515109,0.0073 z"
     id="path13552-2" /><path
     style="fill:url(#radialGradient13582);stroke-width:0.004149;fill-opacity:1"
     d="m 5.4126383,13.747177 c -0.445436,-0.02508 -0.856969,-0.114425 -1.260772,-0.273718 -0.04341,-0.01713 -0.0836,-0.0338 -0.08931,-0.03707 -0.01231,-0.007 -0.01128,-0.0068 0.05004,0.0107 0.445871,0.127384 0.948552,0.154566 1.41429,0.07648 0.594355,-0.09965 1.143894,-0.359486 1.599329,-0.756211 0.133973,-0.1167 0.294691,-0.284897 0.407497,-0.426452 0.19271,-0.241832 0.356743,-0.525352 0.472717,-0.817062 0.258692,-0.650693 0.296886,-1.377745 0.107921,-2.0543841 C 7.9052643,8.7207928 7.4344433,8.0749107 6.7835013,7.6437825 6.5164253,7.4668929 6.2520803,7.3418855 5.9422923,7.2459794 5.6578423,7.1579164 5.3649993,7.1117721 5.0436563,7.1043795 l -0.118297,-0.00271 -0.04261,-0.087377 C 4.6796433,6.5978081 4.5527203,6.1512071 4.5052013,5.6858184 c -0.01419,-0.1390666 -0.01654,-0.193342 -0.01669,-0.3874544 -1.72e-4,-0.2099617 0.0029,-0.2734418 0.02092,-0.4371818 0.05165,-0.4686263 0.186307,-0.9238955 0.398105,-1.3460077 0.337495,-0.672619 0.857687,-1.23247 1.504248,-1.618925 0.09006,-0.05383 0.206689,-0.117665 0.195166,-0.106823 -0.0022,0.0022 -0.02286,0.01671 -0.0457,0.03235 -0.09658,0.06614 -0.217892,0.160697 -0.305329,0.238002 -0.114011,0.100807 -0.264363,0.256827 -0.361797,0.37544 -0.585909,0.713269 -0.837408,1.6394808 -0.693051,2.5523479 0.08109,0.5128083 0.288204,1.0025323 0.601472,1.422221 0.506956,0.679171 1.266172,1.1365782 2.09975,1.2650366 0.206623,0.031841 0.377835,0.042367 0.598013,0.036763 0.712179,-0.018131 1.414165,-0.2823829 1.9678827,-0.7407812 0.147577,-0.1221719 0.29994,-0.274365 0.427687,-0.4272042 0.09446,-0.1130123 0.211147,-0.2773947 0.282385,-0.3978144 0.01684,-0.02849 0.03084,-0.051989 0.03106,-0.05222 0.0015,-0.00172 0.141046,0.00825 0.210177,0.015073 0.854188,0.084286 1.651024,0.4391838 2.284242,1.0173623 0.658264,0.6010494 1.091476,1.3943313 1.238708,2.2682842 0.009,0.053386 0.01625,0.099073 0.0161,0.1015264 -2.02e-4,0.00246 -0.0084,-0.023034 -0.01834,-0.056638 C 14.802428,8.9738187 14.578092,8.5658572 14.260575,8.2032324 14.199975,8.1340274 14.046436,7.9804309 13.974279,7.9168383 13.46486,7.4678826 12.837523,7.191913 12.167243,7.1219075 11.699072,7.0730125 11.238745,7.1235975 10.791379,7.2730827 9.8925283,7.5734422 9.1680113,8.2589939 8.8151053,9.1430718 c -0.122451,0.3067449 -0.192391,0.6124624 -0.221091,0.9663542 -0.007,0.0865 -0.0071,0.364368 -7.7e-5,0.451685 0.0365,0.456104 0.144993,0.846423 0.343839,1.236962 0.02378,0.04673 0.04326,0.08689 0.04326,0.08925 0,0.0024 -0.01867,0.03275 -0.04149,0.06753 -0.458357,0.698572 -1.12749,1.237831 -1.904775,1.535069 -0.355296,0.135866 -0.704126,0.214629 -1.107002,0.249953 -0.07265,0.0064 -0.439372,0.01157 -0.515109,0.0073 z"
     id="path13552" /></svg>
