<svg width="64" height="64" version="1.1" viewBox="0 0 16.933 16.933" xmlns="http://www.w3.org/2000/svg" xmlns:xlink="http://www.w3.org/1999/xlink">
 <defs>
  <filter id="filter1178" x="-.048" y="-.048" width="1.096" height="1.096" color-interpolation-filters="sRGB">
   <feGaussianBlur stdDeviation="0.30691955"/>
  </filter>
  <style>.cls-1{fill:url(#radial-gradient);}.cls-2{fill:none;}.cls-3{fill:url(#radial-gradient-2);}.cls-4{fill:url(#radial-gradient-3);}.cls-5{clip-path:url(#clip-path);}.cls-6{fill:url(#radial-gradient-5);}.cls-7{clip-path:url(#clip-path-2);}.cls-8{fill:url(#radial-gradient-6);}.cls-9{fill:url(#radial-gradient-7);}</style>
  <radialGradient id="radial-gradient" cx="512.06" cy="512.12" r="444.12" gradientUnits="userSpaceOnUse">
   <stop stop-opacity=".5" offset=".99"/>
   <stop stop-opacity="0" offset="1"/>
  </radialGradient>
  <radialGradient id="radial-gradient-2" cx="514.5" cy="516.5" r="496.5" gradientTransform="matrix(.017412 0 0 .017412 -.49204 -.52687)" gradientUnits="userSpaceOnUse">
   <stop offset=".91341"/>
   <stop stop-opacity="0" offset="1"/>
  </radialGradient>
  <radialGradient id="radial-gradient-3" cx="512.06" cy="512.12" r="486.27" gradientTransform="matrix(.019178 0 0 .019178 28.018 -1.0429)" gradientUnits="userSpaceOnUse">
   <stop stop-color="#fff" offset=".99"/>
   <stop stop-color="#fdfdfd" offset=".99505"/>
   <stop stop-color="#f6f6f6" offset=".99687"/>
   <stop stop-color="#ebebeb" offset=".99817"/>
   <stop stop-color="#dadada" offset=".99921"/>
   <stop stop-color="#c7c7c7" offset="1"/>
  </radialGradient>
  <clipPath id="clip-path" transform="translate(-18 -20)">
   <path class="cls-1" d="m67.938 512.12c0 245.29 198.84 444.12 444.12 444.12s444.13-198.83 444.13-444.12c0-245.28-198.84-444.12-444.13-444.12s-444.12 198.84-444.12 444.12"/>
  </clipPath>
  <radialGradient id="radial-gradient-5" cx="494.06" cy="492.12" r="444.12" xlink:href="#radial-gradient"/>
  <clipPath id="clip-path-2" transform="translate(-18 -20)">
   <path class="cls-2" d="m71.603 512.12c0 243.26 197.2 440.46 440.46 440.46s440.46-197.19 440.46-440.46c0-243.26-197.2-440.46-440.46-440.46s-440.46 197.2-440.46 440.46"/>
  </clipPath>
  <radialGradient id="radial-gradient-6" cx="5.2952" cy="1029.3" r="4.6533" gradientTransform="matrix(94.654 0 0 -94.654 -7.1542 97921)" gradientUnits="userSpaceOnUse">
   <stop offset="0"/>
   <stop stop-color="#322f32" offset="1"/>
  </radialGradient>
  <radialGradient id="radial-gradient-7" cx="578.89" cy="473.32" r="353.94" gradientTransform="matrix(.017412 0 0 .019102 -.49204 -1.3268)" gradientUnits="userSpaceOnUse">
   <stop stop-color="#c2c0c2" offset="0"/>
   <stop stop-color="#ebebeb" offset="1"/>
  </radialGradient>
  <radialGradient id="radialGradient2048" cx="8.4665" cy="8.4665" r="7.5405" gradientUnits="userSpaceOnUse">
   <stop stop-color="#4c566a" offset="0"/>
   <stop stop-color="#2e3440" offset="1"/>
  </radialGradient>
  <radialGradient id="radialGradient2580" cx="8.7348" cy="8.0649" r="5.8714" gradientTransform="matrix(1 0 0 1.0971 -7.0939e-7 -.7488)" gradientUnits="userSpaceOnUse">
   <stop stop-color="#eceff4" offset="0"/>
   <stop stop-color="#d8dee9" offset="1"/>
  </radialGradient>
 </defs>
 <g stroke-linecap="round" stroke-linejoin="round">
  <rect transform="matrix(.99138 0 0 1 .072989 .1117)" x=".79375" y=".79375" width="15.346" height="15.346" rx="3.0526" ry="3.0526" fill="#2e3440" filter="url(#filter1178)" opacity=".2" stroke-width="1.2489"/>
  <rect x=".92604" y=".92604" width="15.081" height="15.081" rx="3" ry="3" fill="url(#radialGradient2048)" stroke-width="1.2274"/>
  <rect x=".01215" y=".0060174" width="16.924" height="16.927" fill="none" opacity=".15" stroke-width="1.052"/>
 </g>
 <path class="cls-9" d="m11.434 5.9244a3.4692 3.4692 0 0 1-4.8274 1.2268 3.5303 3.5303 0 0 1-0.78204-0.65772 3.4637 3.4637 0 0 1-0.86884-2.4574c0.0049-0.10081 0.013382-0.20133 0.026583-0.3014 0.01301-0.098622 0.030397-0.1968 0.051841-0.29381q0.033021-0.14937 0.079179-0.29535 0.044787-0.14208 0.1021-0.27987c0.039603-0.095508 0.083763-0.18899 0.1314-0.28072 0.050171-0.096596 0.10575-0.19057 0.16509-0.2818q0.082093-0.12622 0.17489-0.24486c0.067112-0.086205 0.13843-0.16937 0.21366-0.24858q0.11391-0.11993 0.23801-0.22918c0.084244-0.074224 0.1726-0.14365 0.26361-0.20933q0.070381-0.050791 0.14341-0.097715a4.2554 4.2554 0 0 0-1.8993 5.6326q0.01429 0.02967 0.029035 0.059118 0.00672 0.013374 0.013491 0.026701a0.080102 0.080102 0 0 0 0.00817 0.015969c0.00563 0.00625 0.00708 0.0052 0.01567 0.00505 0.044887-8.148e-4 0.08981-6.042e-4 0.1347 3.657e-4q0.1244 0.00269 0.2484 0.014186a3.4751 3.4751 0 0 1 3.1022 2.8968 3.5056 3.5056 0 0 1 0.011167 1.0476 3.4606 3.4606 0 0 1-0.80377 1.7735 3.5206 3.5206 0 0 1-0.86672 0.72755 3.48 3.48 0 0 1-2.1617 0.46132 3.5358 3.5358 0 0 1-0.40401-0.07017c-0.086269-0.02026-0.17168-0.04407-0.25615-0.07089a4.2243 4.2243 0 0 0 1.1936 0.33036 4.3014 4.3014 0 0 0 1.1563-0.0139 4.2404 4.2404 0 0 0 1.8922-0.78159 4.2841 4.2841 0 0 0 1.0401-1.0983q0.018131-0.02764 0.035826-0.05555c0.00454-0.0073 0.014817-0.01861 0.013482-0.02627a0.14791 0.14791 0 0 0-0.018294-0.03387q-0.034871-0.065421-0.06692-0.1323-0.064388-0.13436-0.11704-0.27393a3.448 3.448 0 0 1-0.16264-0.58099 3.4977 3.4977 0 0 1 7.145e-4 -1.2882 3.4456 3.4456 0 0 1 0.37188-1.0318 3.4664 3.4664 0 0 1 3.0139-1.7945q0.12775-8.863e-4 0.25532 0.00739 0.12303 0.00818 0.2453 0.024688 0.12105 0.016556 0.24076 0.041683 0.11719 0.024739 0.23254 0.05729 0.11299 0.032053 0.22363 0.071707 0.11215 0.040267 0.22128 0.088174 0.11125 0.048583 0.21872 0.10527 0.10736 0.056463 0.21068 0.12026c0.06466 0.040005 0.12823 0.081925 0.19002 0.12626q0.09559 0.06859 0.18677 0.14292c0.06274 0.051031 0.12328 0.1048 0.18216 0.16023q0.09404 0.088517 0.18122 0.18393 0.08702 0.09485 0.16664 0.19624c0.0592 0.075192 0.11559 0.15274 0.16821 0.23268 0.05406 0.082121 0.10516 0.16638 0.15233 0.25274a3.4862 3.4862 0 0 1 0.17532 0.37204 3.6039 3.6039 0 0 1 0.13882 0.42436 4.2441 4.2441 0 0 0-0.89982-2.1059 4.2775 4.2775 0 0 0-1.3061-1.0879 4.2287 4.2287 0 0 0-1.6707-0.49284q-0.07429-0.00595-0.14877-0.0093z" fill="url(#radialGradient2580)" shape-rendering="geometricPrecision" stroke-width=".017412"/>
</svg>
