<svg width="64" height="64" version="1.1" viewBox="0 0 16.933 16.933" xmlns="http://www.w3.org/2000/svg">
 <defs>
  <filter id="filter1178" x="-.047999" y="-.047999" width="1.096" height="1.096" color-interpolation-filters="sRGB">
   <feGaussianBlur stdDeviation="0.30691668"/>
  </filter>
  <linearGradient id="linearGradient1340" x1="8.355" x2="8.3996" y1="16.007" y2=".79375" gradientUnits="userSpaceOnUse">
   <stop stop-color="#d8dee9" offset="0"/>
   <stop stop-color="#eceff4" offset="1"/>
  </linearGradient>
  <linearGradient id="linearGradient447" x1="-17.251" x2="-17.251" y1="-.01963" y2="10.12" gradientUnits="userSpaceOnUse">
   <stop stop-color="#5e81ac" offset="0"/>
   <stop stop-color="#88c0d0" stop-opacity=".8" offset="1"/>
  </linearGradient>
  <linearGradient id="linearGradient519" x1="-17.241" x2="-17.241" y1="5.0829" y2="15.89" gradientUnits="userSpaceOnUse">
   <stop stop-color="#97b67c" offset="0"/>
   <stop stop-color="#a3be8c" stop-opacity=".8" offset="1"/>
  </linearGradient>
  <linearGradient id="linearGradient527" x1="-17.284" x2="-17.284" y1="11.085" y2="21.606" gradientUnits="userSpaceOnUse">
   <stop stop-color="#b54a55" offset="0"/>
   <stop stop-color="#d08770" stop-opacity=".8" offset="1"/>
  </linearGradient>
  <filter id="filter1226" x="-.042687" y="-.04605" width="1.0854" height="1.0921" color-interpolation-filters="sRGB">
   <feGaussianBlur stdDeviation="0.42360167"/>
  </filter>
 </defs>
 <g stroke-linecap="round" stroke-linejoin="round">
  <rect transform="matrix(.99138 0 0 1 .072989 .0019055)" x=".79375" y=".90545" width="15.346" height="15.346" rx="3.0526" ry="3.0526" fill="#000000" filter="url(#filter1178)" opacity=".15" stroke-width="1.2489" style="mix-blend-mode:normal"/>
  <rect x=".92604" y=".92604" width="15.081" height="15.081" rx="3" ry="3" fill="url(#linearGradient1340)" stroke-width="1.2274"/>
  <rect x=".01215" y=".0060174" width="16.924" height="16.927" fill="none" opacity=".15" stroke-width="1.052"/>
 </g>
 <g transform="matrix(.47174 0 0 .47174 16.602 3.9329)" fill="#2e3440" filter="url(#filter1226)" opacity=".23502" stroke-width=".1216">
  <path d="m-18.081 21.668c-0.64163-0.24184-1.4988-0.60471-2.1279-0.90085-0.40126-0.18888-1.1126-0.51877-1.5807-0.73309-1.1209-0.51316-2.2299-1.025-3.3161-1.5305-0.48633-0.22632-0.90625-0.41149-0.93316-0.41149-0.13271 0-2.7098-1.2793-2.8944-1.4369-0.27276-0.23274-0.27276-0.6623 0-0.89822 0.11704-0.10123 0.73261-0.41847 1.3679-0.70499 1.5191-0.68509 2.5346-1.15 3.6479-1.6699 3.8748-1.8098 5.4678-2.5017 6.0331-2.6202 1.1341-0.23789 1.5854-0.07778 7.2208 2.5623 0.56846 0.2663 1.909 0.8807 2.9791 1.3653 1.07 0.48463 2.0413 0.96449 2.1583 1.0664 0.27274 0.2374 0.27274 0.66666 0 0.89938-0.18462 0.15753-2.7617 1.4369-2.8944 1.4369-0.02691 0-0.47419 0.19774-0.99396 0.43943s-1.246 0.57629-1.6138 0.74357c-0.36782 0.16728-0.99708 0.45712-1.3983 0.64411-0.40126 0.18698-1.1673 0.53982-1.7023 0.78409s-1.1916 0.55342-1.4591 0.68701c-0.48424 0.24183-2.108 0.42273-2.4927 0.27772z"/>
  <path d="m-18.081 16.063c-0.64163-0.24184-1.4988-0.60471-2.1279-0.90085-0.40126-0.18888-1.1126-0.51877-1.5807-0.73309-1.1209-0.51316-2.2299-1.025-3.3161-1.5305-0.48633-0.22632-0.90625-0.41149-0.93316-0.41149-0.13271 0-2.7098-1.2793-2.8944-1.4369-0.27276-0.23274-0.27276-0.6623 0-0.89822 0.11704-0.10123 0.73261-0.41847 1.3679-0.70499 1.5191-0.68509 2.5346-1.15 3.6479-1.6699 3.8748-1.8098 5.4678-2.5017 6.0331-2.6202 1.1341-0.23789 1.5854-0.077781 7.2208 2.5623 0.56846 0.26631 1.909 0.8807 2.9791 1.3653 1.07 0.48463 2.0413 0.96449 2.1583 1.0664 0.27274 0.2374 0.27274 0.66666 0 0.89938-0.18462 0.15753-2.7617 1.4369-2.8944 1.4369-0.02691 0-0.47419 0.19774-0.99396 0.43943s-1.246 0.57629-1.6138 0.74357c-0.36782 0.16728-0.99708 0.45712-1.3983 0.64411-0.40126 0.18698-1.1673 0.53982-1.7023 0.78409s-1.1916 0.55342-1.4591 0.68701c-0.48424 0.24183-2.108 0.42273-2.4927 0.27772z"/>
  <path d="m-18.081 10.628c-0.64163-0.24184-1.4988-0.60471-2.1279-0.90085-0.40126-0.18888-1.1126-0.51877-1.5807-0.73309-1.1209-0.51316-2.2299-1.025-3.3161-1.5305-0.48633-0.22632-0.90625-0.41149-0.93316-0.41149-0.13271 0-2.7098-1.2793-2.8944-1.4369-0.27276-0.23274-0.27276-0.6623 0-0.89822 0.11704-0.10123 0.73261-0.41847 1.3679-0.70499 1.5191-0.68509 2.5346-1.15 3.6479-1.6699 3.8748-1.8098 5.4678-2.5017 6.0331-2.6202 1.1341-0.23789 1.5854-0.077781 7.2208 2.5623 0.56846 0.26631 1.909 0.8807 2.9791 1.3653 1.07 0.48463 2.0413 0.96449 2.1583 1.0664 0.27274 0.2374 0.27274 0.66666 0 0.89938-0.18462 0.15753-2.7617 1.4369-2.8944 1.4369-0.02691 0-0.47419 0.19774-0.99396 0.43943s-1.246 0.57629-1.6138 0.74357c-0.36782 0.16728-0.99708 0.45713-1.3983 0.64411-0.40126 0.18698-1.1673 0.53982-1.7023 0.78409s-1.2029 0.53289-1.4591 0.68701c-0.78857 0.47434-2.108 0.42273-2.4927 0.27772z"/>
 </g>
 <g transform="matrix(.47174 0 0 .47174 16.602 3.4306)" stroke-width=".1216">
  <path d="m-18.081 21.668c-0.64163-0.24184-1.4988-0.60471-2.1279-0.90085-0.40126-0.18888-1.1126-0.51877-1.5807-0.73309-1.1209-0.51316-2.2299-1.025-3.3161-1.5305-0.48633-0.22632-0.90625-0.41149-0.93316-0.41149-0.13271 0-2.7098-1.2793-2.8944-1.4369-0.27276-0.23274-0.27276-0.6623 0-0.89822 0.11704-0.10123 0.73261-0.41847 1.3679-0.70499 1.5191-0.68509 2.5346-1.15 3.6479-1.6699 3.8748-1.8098 5.4678-2.5017 6.0331-2.6202 1.1341-0.23789 1.5854-0.07778 7.2208 2.5623 0.56846 0.2663 1.909 0.8807 2.9791 1.3653 1.07 0.48463 2.0413 0.96449 2.1583 1.0664 0.27274 0.2374 0.27274 0.66666 0 0.89938-0.18462 0.15753-2.7617 1.4369-2.8944 1.4369-0.02691 0-0.47419 0.19774-0.99396 0.43943s-1.246 0.57629-1.6138 0.74357c-0.36782 0.16728-0.99708 0.45712-1.3983 0.64411-0.40126 0.18698-1.1673 0.53982-1.7023 0.78409s-1.1916 0.55342-1.4591 0.68701c-0.48424 0.24183-2.108 0.42273-2.4927 0.27772z" fill="url(#linearGradient527)"/>
  <path d="m-18.081 16.063c-0.64163-0.24184-1.4988-0.60471-2.1279-0.90085-0.40126-0.18888-1.1126-0.51877-1.5807-0.73309-1.1209-0.51316-2.2299-1.025-3.3161-1.5305-0.48633-0.22632-0.90625-0.41149-0.93316-0.41149-0.13271 0-2.7098-1.2793-2.8944-1.4369-0.27276-0.23274-0.27276-0.6623 0-0.89822 0.11704-0.10123 0.73261-0.41847 1.3679-0.70499 1.5191-0.68509 2.5346-1.15 3.6479-1.6699 3.8748-1.8098 5.4678-2.5017 6.0331-2.6202 1.1341-0.23789 1.5854-0.077781 7.2208 2.5623 0.56846 0.26631 1.909 0.8807 2.9791 1.3653 1.07 0.48463 2.0413 0.96449 2.1583 1.0664 0.27274 0.2374 0.27274 0.66666 0 0.89938-0.18462 0.15753-2.7617 1.4369-2.8944 1.4369-0.02691 0-0.47419 0.19774-0.99396 0.43943s-1.246 0.57629-1.6138 0.74357c-0.36782 0.16728-0.99708 0.45712-1.3983 0.64411-0.40126 0.18698-1.1673 0.53982-1.7023 0.78409s-1.1916 0.55342-1.4591 0.68701c-0.48424 0.24183-2.108 0.42273-2.4927 0.27772z" fill="url(#linearGradient519)"/>
  <path d="m-18.081 10.628c-0.64163-0.24184-1.4988-0.60471-2.1279-0.90085-0.40126-0.18888-1.1126-0.51877-1.5807-0.73309-1.1209-0.51316-2.2299-1.025-3.3161-1.5305-0.48633-0.22632-0.90625-0.41149-0.93316-0.41149-0.13271 0-2.7098-1.2793-2.8944-1.4369-0.27276-0.23274-0.27276-0.6623 0-0.89822 0.11704-0.10123 0.73261-0.41847 1.3679-0.70499 1.5191-0.68509 2.5346-1.15 3.6479-1.6699 3.8748-1.8098 5.4678-2.5017 6.0331-2.6202 1.1341-0.23789 1.5854-0.077781 7.2208 2.5623 0.56846 0.26631 1.909 0.8807 2.9791 1.3653 1.07 0.48463 2.0413 0.96449 2.1583 1.0664 0.27274 0.2374 0.27274 0.66666 0 0.89938-0.18462 0.15753-2.7617 1.4369-2.8944 1.4369-0.02691 0-0.47419 0.19774-0.99396 0.43943s-1.246 0.57629-1.6138 0.74357c-0.36782 0.16728-0.99708 0.45713-1.3983 0.64411-0.40126 0.18698-1.1673 0.53982-1.7023 0.78409s-1.2029 0.53289-1.4591 0.68701c-0.78857 0.47434-2.108 0.42273-2.4927 0.27772z" fill="url(#linearGradient447)"/>
 </g>
</svg>
