<svg width="64" height="64" version="1.1" viewBox="0 0 16.933 16.933" xmlns="http://www.w3.org/2000/svg">
 <defs>
  <linearGradient id="a" x1="8.587" x2="8.587" y1="15.747" y2="1.097" gradientTransform="matrix(1.0178 0 0 1.0178 -.15083 -.14268)" gradientUnits="userSpaceOnUse">
   <stop stop-color="#2e3440" offset="0"/>
   <stop stop-color="#4c566a" offset="1"/>
  </linearGradient>
  <linearGradient id="linearGradient2202" x1="8.6528" x2="8.6487" y1="2.6437" y2="14.802" gradientUnits="userSpaceOnUse">
   <stop stop-color="#b48ead" offset="0"/>
   <stop stop-color="#88c0d0" offset=".16116"/>
   <stop stop-color="#a3be8c" offset=".27483"/>
   <stop stop-color="#ebcb8b" offset=".40351"/>
   <stop stop-color="#d08770" offset=".55047"/>
   <stop stop-color="#bf616a" offset=".71968"/>
   <stop stop-color="#434c5e" offset=".73449"/>
   <stop stop-color="#3b4252" offset=".76504"/>
   <stop stop-color="#2e3440" offset="1"/>
  </linearGradient>
  <filter id="filter22734-7" x="-.035248" y="-.02188" width="1.0705" height="1.0438" color-interpolation-filters="sRGB">
   <feGaussianBlur stdDeviation="0.11228564"/>
  </filter>
  <linearGradient id="linearGradient22858" x1="8.6528" x2="8.6487" y1="2.6437" y2="14.802" gradientUnits="userSpaceOnUse">
   <stop stop-color="#b48ead" offset="0"/>
   <stop stop-color="#88c0d0" offset=".16116"/>
   <stop stop-color="#a3be8c" offset=".27483"/>
   <stop stop-color="#ebcb8b" offset=".40351"/>
   <stop stop-color="#d08770" offset=".55047"/>
   <stop stop-color="#bf616a" offset=".71968"/>
   <stop stop-color="#434c5e" stop-opacity="0" offset=".73449"/>
   <stop stop-color="#3b4252" stop-opacity="0" offset=".76504"/>
   <stop stop-color="#2e3440" stop-opacity="0" offset="1"/>
  </linearGradient>
  <filter id="filter22734-7-9" x="-.035248" y="-.02188" width="1.0705" height="1.0438" color-interpolation-filters="sRGB">
   <feGaussianBlur stdDeviation="0.11228564"/>
  </filter>
  <filter id="filter23757" x="-.035248" y="-.02188" width="1.0705" height="1.0438" color-interpolation-filters="sRGB">
   <feGaussianBlur stdDeviation="0.11228631"/>
  </filter>
  <filter id="filter1178" x="-.047999" y="-.047999" width="1.096" height="1.096" color-interpolation-filters="sRGB">
   <feGaussianBlur stdDeviation="0.30691668"/>
  </filter>
 </defs>
 <g transform="translate(-.00025546 -.11386)">
  <rect transform="matrix(.99138 0 0 1 .072989 .0019055)" x=".79375" y=".90545" width="15.346" height="15.346" rx="3.0526" ry="3.0526" fill="#000000" filter="url(#filter1178)" opacity=".15" stroke-linecap="round" stroke-linejoin="round" stroke-width="1.2489" style="mix-blend-mode:normal"/>
 </g>
 <rect x=".92602" y=".92602" width="15.081" height="15.081" rx="3.0001" ry="3.0001" fill="url(#a)" stroke-width="1.0178"/>
 <g stroke-width=".076556">
  <path d="m7.8531 14.556c-0.4369-0.12039-0.86207-0.37992-1.0218-0.62371-0.16876-0.25756-0.15375-0.76123 0.03892-1.3054 0.12786-0.36118 0.15334-0.56875 0.12181-0.99257-0.07015-0.94302-0.42608-1.6873-1.3362-2.7943-0.63083-0.76726-1.0131-1.6781-1.0121-2.4115 0.0014-1.0438 0.46753-2.1231 1.2584-2.914 1.4051-1.4051 3.0102-1.5892 4.5317-0.51997 0.89908 0.63184 1.4489 1.4172 1.7118 2.4453 0.18812 0.73553 0.19076 1.1564 0.01131 1.8036-0.16482 0.5944-0.41754 1.048-0.92137 1.6537-0.86284 1.0373-1.2125 1.7809-1.2871 2.7372-0.03329 0.42675-0.0089 0.6289 0.11987 0.99257 0.2041 0.57653 0.20925 1.0605 0.01419 1.3345-0.36276 0.50944-1.4686 0.80439-2.2296 0.59469z" fill="url(#linearGradient2202)"/>
  <path d="m7.8531 14.557c-0.4369-0.12039-0.86207-0.37992-1.0218-0.62372-0.16876-0.25756-0.15374-0.76124 0.03892-1.3055 0.12786-0.36118 0.15334-0.56876 0.12181-0.99258-0.070154-0.94303-0.42608-1.6874-1.3362-2.7943-0.63083-0.76726-1.0131-1.6781-1.0121-2.4115 0.0014-1.0438 0.46754-2.1231 1.2584-2.914 1.4051-1.4051 3.0102-1.5893 4.5317-0.51997 0.89909 0.63184 1.4489 1.4173 1.7118 2.4453 0.18812 0.73554 0.19076 1.1564 0.01131 1.8036-0.16482 0.59441-0.41754 1.048-0.92137 1.6537-0.86284 1.0374-1.2125 1.7809-1.2871 2.7372-0.03329 0.42676-0.0089 0.6289 0.11987 0.99258 0.2041 0.57654 0.20925 1.0605 0.01419 1.3345-0.36276 0.50944-1.4686 0.8044-2.2296 0.5947zm1.4574-0.53127c0.18113-0.09579 0.38303-0.25502 0.44865-0.35386l0.11932-0.17971-0.34092 0.06678c-0.1875 0.03673-0.6682 0.06678-1.0682 0.06678s-0.8807-0.03005-1.0682-0.06678l-0.34092-0.06678 0.11923 0.17957c0.33955 0.51139 1.4763 0.70022 2.131 0.354zm-0.21714-0.83348c0.57557-0.09505 0.67532-0.18443 0.53922-0.48312-0.07409-0.16261-0.10931-0.17315-0.37371-0.11178-0.37378 0.08676-1.2036 0.08716-1.5757 7.53e-4 -0.2477-0.05751-0.29985-0.04585-0.36848 0.0824-0.15544 0.29044-0.05742 0.40413 0.42824 0.49666 0.61537 0.11725 0.72437 0.11847 1.3504 0.01508zm0.18178-1.0284c0.1607-0.04033 0.18945-0.09247 0.18945-0.34358 0-0.28614-0.0066-0.29354-0.19638-0.22137-0.10801 0.04106-0.46749 0.07467-0.79886 0.07467s-0.69085-0.0336-0.79886-0.07467c-0.18981-0.07217-0.19638-0.06476-0.19638 0.22139 0 0.29088 0.0064 0.29745 0.36364 0.37629 0.3552 0.07838 1.0585 0.06236 1.4374-0.03273zm-0.62024-1.0453c0.1327-0.64658 0.23365-1.044 0.31369-1.2349 0.06526-0.15564 0.07107-0.31328 0.01975-0.5359-0.11906-0.51643-0.0308-1.6298 0.17066-2.1528 0.22392-0.5813 0.58328-0.95696 0.91542-0.95696 0.56137 0 0.80568 0.37599 0.75 1.1543-0.04662 0.65153-0.23306 1.0368-0.90458 1.8694-0.50888 0.63095-0.61592 0.8553-0.79453 1.6654-0.03825 0.17346-0.02018 0.21053 0.1026 0.21053 0.1515 0 0.46636-0.33147 0.46636-0.49096 0-0.23816 0.57525-1.2308 1.0686-1.844 0.72781-0.9046 1.0229-1.5191 1.0631-2.2136 0.062167-1.0751-0.27762-1.9292-1.0982-2.7604-0.61259-0.62052-1.0959-0.90414-1.7799-1.0446-0.95121-0.1953-1.8413 0.14475-2.7369 1.0456-0.82306 0.8279-1.1622 1.6808-1.0935 2.7503 0.04648 0.7242 0.32738 1.3141 1.0584 2.2227 0.49334 0.61318 1.0686 1.6059 1.0686 1.844 0 0.15949 0.31486 0.49096 0.46636 0.49096 0.12278 0 0.14084-0.03706 0.1026-0.21053-0.17617-0.799-0.28505-1.0271-0.80006-1.6764-0.68254-0.8604-0.85282-1.2124-0.89904-1.8585-0.055685-0.77827 0.18862-1.1543 0.75-1.1543 0.332 0 0.6913 0.37544 0.91583 0.95696 0.202 0.52319 0.29671 1.7363 0.17107 2.1913-0.05639 0.20422-0.04768 0.33815 0.0347 0.53353 0.06049 0.14348 0.14393 0.43312 0.18542 0.64365s0.09173 0.4603 0.11164 0.55503c0.02266 0.1078 0.09241 0.17225 0.1864 0.17225 0.09425 0 0.16336-0.06417 0.18555-0.17225zm-1.06-2.8237c-0.11356-1.2236-0.79036-2.0842-1.0413-1.324-0.15898 0.48171 0.07274 1.1194 0.67288 1.8518l0.28039 0.34218 0.064-0.2193c0.0352-0.12061 0.04599-0.4134 0.02397-0.65064zm2.2851 0.30783c0.44563-0.59282 0.63463-1.1908 0.50894-1.6103-0.07051-0.23534-0.12534-0.2949-0.27146-0.2949-0.30596 0-0.62883 0.60705-0.76674 1.4416-0.06236 0.37736 0.01384 1.0318 0.113 0.97047 0.03623-0.022392 0.22354-0.25046 0.41626-0.50683z" fill="#2e3440" filter="url(#filter23757)" opacity=".5"/>
  <path d="m7.8531 14.556c-0.4369-0.12039-0.86207-0.37992-1.0218-0.62371-0.16876-0.25756-0.15375-0.76123 0.03892-1.3054 0.12786-0.36118 0.40714-0.87059 0.37561-1.2944-0.07015-0.94302-0.67988-1.3855-1.59-2.4925-0.63083-0.76726-1.0131-1.6781-1.0121-2.4115 0.0014-1.0438 0.46753-2.1231 1.2584-2.914 1.4051-1.4051 3.0102-1.5892 4.5317-0.51997 0.89908 0.63184 1.4489 1.4172 1.7118 2.4453 0.18812 0.73553 0.19076 1.1564 0.01131 1.8036-0.16482 0.5944-0.41754 1.048-0.92137 1.6537-0.86284 1.0373-1.4191 1.6146-1.4937 2.5709-0.03329 0.42675 0.19772 0.79516 0.32649 1.1588 0.2041 0.57653 0.20925 1.0605 0.01419 1.3345-0.36276 0.50944-1.4686 0.80439-2.2296 0.59469z" fill="url(#linearGradient22858)" filter="url(#filter22734-7)" style="mix-blend-mode:normal"/>
  <path d="m7.8531 14.557c-0.4369-0.12039-0.86207-0.37992-1.0218-0.62372-0.16876-0.25756-0.15374-0.76124 0.03892-1.3055 0.12786-0.36118 0.15334-0.56876 0.12181-0.99258-0.07015-0.94303-0.42608-1.6874-1.3362-2.7943-0.63083-0.76726-1.0131-1.6781-1.0121-2.4115 0.0014-1.0438 0.46754-2.1231 1.2584-2.914 1.4051-1.4051 3.0102-1.5893 4.5317-0.51997 0.89909 0.63184 1.4489 1.4173 1.7118 2.4453 0.18812 0.73554 0.19076 1.1564 0.01131 1.8036-0.16482 0.59441-0.41754 1.048-0.92137 1.6537-0.86284 1.0374-1.2125 1.7809-1.2871 2.7372-0.03329 0.42676-0.0089 0.6289 0.11987 0.99258 0.2041 0.57654 0.20925 1.0605 0.01419 1.3345-0.36276 0.50944-1.4686 0.8044-2.2296 0.5947zm1.4574-0.53127c0.18113-0.09579 0.38303-0.25502 0.44865-0.35386l0.11932-0.17971-0.34092 0.06678c-0.1875 0.03673-0.6682 0.06678-1.0682 0.06678s-0.8807-0.03005-1.0682-0.06678l-0.34092-0.06678 0.11923 0.17957c0.33955 0.51139 1.4763 0.70022 2.131 0.354zm-0.21714-0.83348c0.57557-0.09505 0.67532-0.18443 0.53923-0.48312-0.07409-0.16261-0.10931-0.17315-0.37371-0.11178-0.37378 0.08676-1.2036 0.08716-1.5757 7.53e-4 -0.2477-0.05751-0.29985-0.04585-0.36849 0.0824-0.15544 0.29044-0.05742 0.40413 0.42824 0.49666 0.61537 0.11725 0.72437 0.11847 1.3504 0.01508zm0.18178-1.0284c0.1607-0.04033 0.18945-0.09247 0.18945-0.34358 0-0.28614-0.0066-0.29354-0.19638-0.22137-0.10801 0.04106-0.46749 0.07467-0.79886 0.07467s-0.69085-0.0336-0.79886-0.07467c-0.18981-0.07217-0.19638-0.06476-0.19638 0.22139 0 0.29088 0.0064 0.29745 0.36364 0.37629 0.3552 0.07838 1.0585 0.06236 1.4374-0.03273zm-0.62024-1.0453c0.1327-0.64658 0.23365-1.044 0.31369-1.2349 0.06526-0.15564 0.07107-0.31328 0.01975-0.5359-0.11906-0.51643-0.0308-1.6298 0.17066-2.1528 0.22392-0.5813 0.58328-0.95696 0.91542-0.95696 0.56137 0 0.80568 0.37599 0.75 1.1543-0.04662 0.65153-0.23306 1.0368-0.90458 1.8694-0.50888 0.63095-0.61592 0.8553-0.79453 1.6654-0.03825 0.17346-0.02018 0.21053 0.1026 0.21053 0.1515 0 0.46636-0.33147 0.46636-0.49096 0-0.23816 0.57525-1.2308 1.0686-1.844 0.72781-0.9046 1.0229-1.5191 1.0631-2.2136 0.062167-1.0751-0.27762-1.9292-1.0982-2.7604-0.61259-0.62052-1.0959-0.90414-1.7799-1.0446-0.95121-0.1953-1.8413 0.14475-2.7369 1.0456-0.82306 0.8279-1.1622 1.6808-1.0935 2.7503 0.04648 0.7242 0.32738 1.3141 1.0584 2.2227 0.49334 0.61318 1.0686 1.6059 1.0686 1.844 0 0.15949 0.31486 0.49096 0.46636 0.49096 0.12278 0 0.14084-0.03706 0.1026-0.21053-0.17617-0.799-0.28505-1.0271-0.80006-1.6764-0.68254-0.8604-0.85282-1.2124-0.89904-1.8585-0.05569-0.77827 0.18862-1.1543 0.75-1.1543 0.332 0 0.6913 0.37544 0.91583 0.95696 0.202 0.52319 0.29671 1.7363 0.17107 2.1913-0.05639 0.20422-0.04768 0.33815 0.0347 0.53353 0.06049 0.14348 0.14393 0.43312 0.18542 0.64365s0.09173 0.4603 0.11164 0.55503c0.02266 0.1078 0.09241 0.17225 0.1864 0.17225 0.09425 0 0.16336-0.06417 0.18555-0.17225zm-1.06-2.8237c-0.11356-1.2236-0.79037-2.0842-1.0413-1.324-0.15898 0.48171 0.07274 1.1194 0.67288 1.8518l0.28039 0.34218 0.064-0.2193c0.0352-0.12061 0.04599-0.4134 0.02397-0.65064zm2.2851 0.30783c0.44563-0.59282 0.63463-1.1908 0.50894-1.6103-0.07051-0.23534-0.12534-0.2949-0.27146-0.2949-0.30596 0-0.62883 0.60705-0.76674 1.4416-0.06236 0.37736 0.01384 1.0318 0.113 0.97047 0.03623-0.02239 0.22354-0.25046 0.41626-0.50683z" fill="#eceff4"/>
  <path d="m7.8531 14.556c-0.4369-0.12039-0.86207-0.37992-1.0218-0.62371-0.16876-0.25756-0.15375-0.76123 0.03892-1.3054 0.12786-0.36118 0.40714-0.87059 0.37561-1.2944-0.07015-0.94302-0.67988-1.3855-1.59-2.4925-0.63083-0.76726-1.0131-1.6781-1.0121-2.4115 0.0014-1.0438 0.46753-2.1231 1.2584-2.914 1.4051-1.4051 3.0102-1.5892 4.5317-0.51997 0.89908 0.63184 1.4489 1.4172 1.7118 2.4453 0.18812 0.73553 0.19076 1.1564 0.01131 1.8036-0.16482 0.5944-0.41754 1.048-0.92137 1.6537-0.86284 1.0373-1.4191 1.6146-1.4937 2.5709-0.03329 0.42675 0.19772 0.79517 0.32649 1.1588 0.2041 0.57653 0.20925 1.0605 0.01419 1.3345-0.36276 0.50944-1.4686 0.80439-2.2296 0.59469z" fill="url(#linearGradient22858)" filter="url(#filter22734-7-9)" opacity=".15" style="mix-blend-mode:color-dodge"/>
 </g>
</svg>
