<?xml version="1.0" encoding="UTF-8"?>
<svg width="64" height="64" version="1.1" viewBox="0 0 16.933 16.933" xmlns="http://www.w3.org/2000/svg" xmlns:xlink="http://www.w3.org/1999/xlink">
 <defs>
  <linearGradient id="a" x1="8.0757" x2="8.0757" y1="17.849" y2="1.0105" gradientTransform="matrix(1.0178 0 0 1.0178 -.15085 -.14268)" gradientUnits="userSpaceOnUse">
   <stop stop-color="#5e81ac" offset="0"/>
   <stop stop-color="#d8dee9" offset="1"/>
  </linearGradient>
  <filter id="filter1178" x="-.047999" y="-.047999" width="1.096" height="1.096" color-interpolation-filters="sRGB">
   <feGaussianBlur stdDeviation="0.30691668"/>
  </filter>
  <linearGradient id="linearGradient11783" x1="10.213" x2="4.9555" y1="11.068" y2="4.8226" gradientUnits="userSpaceOnUse">
   <stop stop-color="#5e81ac" offset="0"/>
   <stop stop-color="#88c0d0" offset="1"/>
  </linearGradient>
  <linearGradient id="linearGradient11791" x1="8.5391" x2="11.374" y1="3.5754" y2="12.838" gradientUnits="userSpaceOnUse">
   <stop stop-color="#eceff4" offset="0"/>
   <stop stop-color="#d8dee9" offset="1"/>
  </linearGradient>
  <linearGradient id="linearGradient2801" x1="16.274" x2="28.825" y1="14.96" y2="31.729" gradientTransform="matrix(.035854 .018307 -.018307 .035854 4.927 7.0003)" gradientUnits="userSpaceOnUse">
   <stop stop-color="#4c566a" offset="0"/>
   <stop stop-color="#2e3440" offset="1"/>
  </linearGradient>
  <linearGradient id="linearGradient3065" x1="28.825" x2="16.274" y1="31.729" y2="14.96" gradientTransform="matrix(.035854 .018307 -.018307 .035854 4.927 7.0003)" gradientUnits="userSpaceOnUse">
   <stop stop-color="#2e3440" offset="0"/>
   <stop stop-color="#4c566a" offset="1"/>
  </linearGradient>
  <radialGradient id="radialGradient22180" cx="5.0999" cy="6.4542" r="4.3375" gradientTransform="matrix(1 0 0 1.1757 0 -1.4545)" gradientUnits="userSpaceOnUse">
   <stop stop-color="#eceff4" stop-opacity=".6" offset="0"/>
   <stop stop-color="#eceff4" stop-opacity="0" offset="1"/>
  </radialGradient>
  <filter id="filter22258" x="-.11709" y="-.1171" width="1.2342" height="1.2342" color-interpolation-filters="sRGB">
   <feGaussianBlur stdDeviation="0.51579099"/>
  </filter>
 </defs>
 <g transform="translate(-.00025546 -.11386)">
  <rect transform="matrix(.99138 0 0 1 .072989 .0019055)" x=".79375" y=".90545" width="15.346" height="15.346" rx="3.0526" ry="3.0526" filter="url(#filter1178)" opacity=".15" stroke-linecap="round" stroke-linejoin="round" stroke-width="1.2489" style="mix-blend-mode:normal"/>
 </g>
 <rect x=".926" y=".92602" width="15.081" height="15.081" rx="3.0536" ry="3.0535" fill="url(#a)" stroke-width="1.0178"/>
 <g transform="matrix(1.0885 0 0 1.0885 -.74952 -.74955)">
  <path d="m8.4665 3.1811a5.2856 5.2856 0 0 0-5.2859 5.2854 5.2856 5.2856 0 0 0 3.3129 4.9004 5.2856 5.2856 0 0 0 0.03566 0.01292 5.2856 5.2856 0 0 0 1.9373 0.37258 5.2856 5.2856 0 0 0 5.2859-5.2859 5.2856 5.2856 0 0 0-4.0147-5.1303 5.2856 5.2856 0 0 0-0.80304-0.13177 5.2856 5.2856 0 0 0-0.46818-0.023254zm1.9988 4.8947c0.07088 0.021844 0.13986 0.044126 0.20722 0.067178-0.06736-0.023052-0.13634-0.045335-0.20722-0.067178z" fill="#2e3440" filter="url(#filter22258)" opacity=".24285" stroke-width=".73341"/>
  <g stroke-width=".73341">
   <path d="m8.9347 3.2044a5.2856 5.2856 0 0 0-0.46818-0.023254 5.2856 5.2856 0 0 0-5.2859 5.2854 5.2856 5.2856 0 0 0 3.3129 4.9004 5.2856 5.2856 0 0 0 0.035656 0.01292c0.08673-0.04857 0.17482-0.09813 0.26509-0.14934 0.104-0.059 0.20998-0.11975 0.3178-0.1819 0.10782-0.06215 0.21743-0.12575 0.32814-0.19068 0.11071-0.06494 0.2222-0.13108 0.33486-0.19843 0.11265-0.06735 0.22636-0.13575 0.34002-0.20515 0.11366-0.0694 0.22733-0.13976 0.34106-0.21084 0.11373-0.07108 0.22768-0.1431 0.34054-0.21549s0.22484-0.14525 0.33589-0.21859c0.11105-0.07333 0.22087-0.14675 0.32917-0.22065 0.1083-0.07391 0.21525-0.14809 0.31987-0.2222 0.10462-0.07411 0.20696-0.14825 0.30695-0.2222 0.05-0.03698 0.09913-0.07424 0.14779-0.1111 0.04866-0.03687 0.09696-0.07336 0.14417-0.11007 0.04721-0.03671 0.09336-0.07356 0.13901-0.11007 0.04565-0.03651 0.09091-0.07277 0.13487-0.10904 0.04396-0.03626 0.08703-0.07255 0.12919-0.10852 0.04216-0.03597 0.08326-0.07134 0.1235-0.10697 0.04024-0.03563 0.07961-0.07121 0.11782-0.10645 0.03821-0.03524 0.07505-0.07061 0.1111-0.10542 0.03606-0.03481 0.07112-0.06902 0.1049-0.10335 0.03378-0.03433 0.06627-0.06851 0.09767-0.10232 0.0314-0.03381 0.06154-0.06753 0.09043-0.10077 0.02889-0.033237 0.05693-0.066079 0.0832-0.0987s0.05088-0.064674 0.07441-0.096633 0.04599-0.063832 0.06666-0.095083 0.03966-0.062003 0.05736-0.092499 0.03397-0.060736 0.04857-0.090432 0.02736-0.058999 0.03876-0.087848c0.0057-0.014425 0.01115-0.028686 0.01602-0.042891 0.0049-0.014205 0.0094-0.028395 0.01344-0.042374 4e-3 -0.013979 0.0077-0.027593 0.01085-0.04134 0.0032-0.013747 6e-3 -0.027314 0.0083-0.040824 0.0023-0.013509 0.0043-0.027041 0.0057-0.040307s0.0021-0.026256 0.0026-0.039273c5.32e-4 -0.013017 8.97e-4 -0.025994 5.17e-4 -0.038757-3.81e-4 -0.012762-0.0013-0.025738-0.0026-0.03824s-0.0029-0.024454-0.0052-0.03669c-0.0022-0.012236-0.0051-0.024726-0.0083-0.03669-6e-3 -0.022243-0.01313-0.043713-0.02119-0.065111-0.0081-0.021398-0.01729-0.042461-0.02739-0.063044s-0.02101-0.040663-0.03307-0.06046c-0.01207-0.019797-0.0253-0.039353-0.03927-0.058393s-0.02863-0.037497-0.04444-0.055809c-0.01581-0.018313-0.03255-0.036645-0.05012-0.054259-0.01758-0.017615-0.03601-0.03473-0.05529-0.051675-0.01928-0.016946-0.03954-0.033819-0.06046-0.050125s-0.04262-0.031845-0.06511-0.047541c-0.0225-0.015696-0.04576-0.031392-0.06976-0.046508s-0.04845-0.029877-0.0739-0.044441c-0.02544-0.014564-0.05173-0.028848-0.07855-0.042891-0.02682-0.014042-0.05456-0.027791-0.08268-0.04134-0.02813-0.013549-0.05693-0.026704-0.0863-0.03979s-0.05937-0.026105-0.08991-0.038756c-0.03055-0.012652-0.06136-0.024959-0.09302-0.037206s-0.06393-0.024301-0.09663-0.036173-0.06605-0.023613-0.09973-0.035139c-0.06736-0.023052-0.13634-0.045334-0.20722-0.067178s-0.14368-0.043207-0.21755-0.064078c-0.07387-0.02087-0.14897-0.041362-0.2253-0.061494-0.07633-0.020134-0.15375-0.040318-0.23202-0.059946-0.078266-0.019628-0.15752-0.039035-0.23719-0.058393-0.15934-0.038717-0.32085-0.076705-0.48265-0.11575-0.080899-0.019524-0.16164-0.039468-0.24236-0.059427s-0.16131-0.040349-0.24132-0.060977c-0.080012-0.020628-0.15945-0.041511-0.23822-0.063044-0.078777-0.021533-0.15708-0.043473-0.23409-0.066145-0.077013-0.022672-0.15265-0.046233-0.22737-0.070278-0.074721-0.024045-0.14824-0.048759-0.22014-0.074413-0.03595-0.012827-0.071822-0.025484-0.10697-0.038757-0.035146-0.013273-0.069592-0.027075-0.10387-0.040824-0.034276-0.013748-0.068461-0.027604-0.1018-0.041857-0.03334-0.014253-0.065846-0.02862-0.098183-0.043407-0.032338-0.014787-0.06433-0.030124-0.0956-0.045474-0.031269-0.015351-0.061847-0.031081-0.091982-0.047025-0.030135-0.015944-0.059947-0.032009-0.088882-0.048575s-0.057079-0.033425-0.084748-0.050642c-0.027668-0.017217-0.054794-0.034811-0.08113-0.052709-0.026336-0.017898-0.052059-0.036168-0.076996-0.054776-0.024938-0.018608-0.048873-0.037495-0.072346-0.056843-0.023473-0.019348-0.046269-0.03931-0.068212-0.059427-0.021942-0.020116-0.043215-0.040579-0.063561-0.061494-0.020346-0.020915-0.03971-0.042335-0.058393-0.064078-0.018683-0.021742-0.036788-0.043546-0.053742-0.066144-0.016955-0.022599-0.032898-0.04576-0.048058-0.069245-0.01516-0.023485-0.029591-0.047428-0.042891-0.071829s-0.025317-0.049067-0.03669-0.074413c-0.011373-0.025346-0.022142-0.051193-0.031522-0.077513-0.00938-0.02632-0.017483-0.05329-0.024804-0.080614-0.00535-0.019979-0.00983-0.040401-0.012919-0.060977-0.00309-0.020576-0.00478-0.041383-0.00568-0.062527-9.03e-4 -0.021144-7.018e-4 -0.042394 5.167e-4 -0.064078 0.00122-0.021683 0.00345-0.043951 0.00672-0.066145 0.00327-0.022193 0.00766-0.044503 0.012919-0.067178 0.00525-0.022675 0.011434-0.045601 0.018603-0.068728 0.00717-0.023127 0.015273-0.046211 0.024287-0.069762 0.00901-0.023551 0.018665-0.047366 0.029455-0.071312s0.022642-0.048034 0.035139-0.072346 0.025655-0.049247 0.03979-0.073896 0.029253-0.049455 0.044958-0.074413c0.015704-0.024957 0.032404-0.049693 0.049608-0.074929 0.017204-0.025237 0.035108-0.050476 0.053743-0.075963s0.03788-0.051288 0.057876-0.076996c0.019997-0.025709 0.040721-0.051611 0.062011-0.077513 0.021289-0.025902 0.043115-0.051964 0.065628-0.07803s0.045578-0.052346 0.069245-0.078547 0.047593-0.05224 0.072346-0.078547c0.024752-0.026307 0.050194-0.052679 0.075963-0.079063s0.052348-0.05263 0.079063-0.079063c0.053432-0.052866 0.10856-0.10576 0.16536-0.15864 0.056806-0.052887 0.11504-0.10597 0.17466-0.15864 0.059628-0.052677 0.12052-0.10537 0.18241-0.15761 0.061896-0.052236 0.125-0.10398 0.18862-0.15554 0.063613-0.051565 0.12797-0.10281 0.19275-0.15348 0.064776-0.050662 0.12995-0.10085 0.19533-0.15038 0.065387-0.049529 0.13092-0.098077 0.19637-0.14624 0.065445-0.048165 0.13038-0.096054 0.19533-0.14262 0.064951-0.04657 0.12988-0.092196 0.19378-0.13694 0.063904-0.044744 0.12683-0.088568 0.18913-0.13126 0.015235-0.010438 0.029839-0.020182 0.044958-0.030489z" fill="url(#linearGradient11783)"/>
   <path d="m8.9347 3.2044a5.2856 5.2856 0 0 0-0.46818-0.023254 5.2856 5.2856 0 0 0-5.2859 5.2854 5.2856 5.2856 0 0 0 3.3129 4.9004 5.2856 5.2856 0 0 0 0.035656 0.01292c0.08673-0.04857 0.17482-0.09813 0.26509-0.14934 0.104-0.059 0.20998-0.11975 0.3178-0.1819 0.10782-0.06215 0.21743-0.12575 0.32814-0.19068 0.11071-0.06494 0.2222-0.13108 0.33486-0.19843 0.11265-0.06735 0.22636-0.13575 0.34002-0.20515 0.11366-0.0694 0.22733-0.13976 0.34106-0.21084 0.11373-0.07108 0.22768-0.1431 0.34054-0.21549s0.22484-0.14525 0.33589-0.21859c0.11105-0.07333 0.22087-0.14675 0.32917-0.22065 0.1083-0.07391 0.21525-0.14809 0.31987-0.2222 0.10462-0.07411 0.20696-0.14825 0.30695-0.2222 0.05-0.03698 0.09913-0.07424 0.14779-0.1111 0.04866-0.03687 0.09696-0.07336 0.14417-0.11007 0.04721-0.03671 0.09336-0.07356 0.13901-0.11007 0.04565-0.03651 0.09091-0.07277 0.13487-0.10904 0.04396-0.03626 0.08703-0.07255 0.12919-0.10852 0.04216-0.03597 0.08326-0.07134 0.1235-0.10697 0.04024-0.03563 0.07961-0.07121 0.11782-0.10645 0.03821-0.03524 0.07505-0.07061 0.1111-0.10542 0.03606-0.03481 0.07112-0.06902 0.1049-0.10335 0.03378-0.03433 0.06627-0.06851 0.09767-0.10232 0.0314-0.03381 0.06154-0.06753 0.09043-0.10077 0.02889-0.033237 0.05693-0.066079 0.0832-0.0987s0.05088-0.064674 0.07441-0.096633 0.04599-0.063832 0.06666-0.095083 0.03966-0.062003 0.05736-0.092499 0.03397-0.060736 0.04857-0.090432 0.02736-0.058999 0.03876-0.087848c0.0057-0.014425 0.01115-0.028686 0.01602-0.042891 0.0049-0.014205 0.0094-0.028395 0.01344-0.042374 4e-3 -0.013979 0.0077-0.027593 0.01085-0.04134 0.0032-0.013747 6e-3 -0.027314 0.0083-0.040824 0.0023-0.013509 0.0043-0.027041 0.0057-0.040307s0.0021-0.026256 0.0026-0.039273c5.32e-4 -0.013017 8.97e-4 -0.025994 5.17e-4 -0.038757-3.81e-4 -0.012762-0.0013-0.025738-0.0026-0.03824s-0.0029-0.024454-0.0052-0.03669c-0.0022-0.012236-0.0051-0.024726-0.0083-0.03669-6e-3 -0.022243-0.01313-0.043713-0.02119-0.065111-0.0081-0.021398-0.01729-0.042461-0.02739-0.063044s-0.02101-0.040663-0.03307-0.06046c-0.01207-0.019797-0.0253-0.039353-0.03927-0.058393s-0.02863-0.037497-0.04444-0.055809c-0.01581-0.018313-0.03255-0.036645-0.05012-0.054259-0.01758-0.017615-0.03601-0.03473-0.05529-0.051675-0.01928-0.016946-0.03954-0.033819-0.06046-0.050125s-0.04262-0.031845-0.06511-0.047541c-0.0225-0.015696-0.04576-0.031392-0.06976-0.046508s-0.04845-0.029877-0.0739-0.044441c-0.02544-0.014564-0.05173-0.028848-0.07855-0.042891-0.02682-0.014042-0.05456-0.027791-0.08268-0.04134-0.02813-0.013549-0.05693-0.026704-0.0863-0.03979s-0.05937-0.026105-0.08991-0.038756c-0.03055-0.012652-0.06136-0.024959-0.09302-0.037206s-0.06393-0.024301-0.09663-0.036173-0.06605-0.023613-0.09973-0.035139c-0.06736-0.023052-0.13634-0.045334-0.20722-0.067178s-0.14368-0.043207-0.21755-0.064078c-0.07387-0.02087-0.14897-0.041362-0.2253-0.061494-0.07633-0.020134-0.15375-0.040318-0.23202-0.059946-0.078266-0.019628-0.15752-0.039035-0.23719-0.058393-0.15934-0.038717-0.32085-0.076705-0.48265-0.11575-0.080899-0.019524-0.16164-0.039468-0.24236-0.059427s-0.16131-0.040349-0.24132-0.060977c-0.080012-0.020628-0.15945-0.041511-0.23822-0.063044-0.078777-0.021533-0.15708-0.043473-0.23409-0.066145-0.077013-0.022672-0.15265-0.046233-0.22737-0.070278-0.074721-0.024045-0.14824-0.048759-0.22014-0.074413-0.03595-0.012827-0.071822-0.025484-0.10697-0.038757-0.035146-0.013273-0.069592-0.027075-0.10387-0.040824-0.034276-0.013748-0.068461-0.027604-0.1018-0.041857-0.03334-0.014253-0.065846-0.02862-0.098183-0.043407-0.032338-0.014787-0.06433-0.030124-0.0956-0.045474-0.031269-0.015351-0.061847-0.031081-0.091982-0.047025-0.030135-0.015944-0.059947-0.032009-0.088882-0.048575s-0.057079-0.033425-0.084748-0.050642c-0.027668-0.017217-0.054794-0.034811-0.08113-0.052709-0.026336-0.017898-0.052059-0.036168-0.076996-0.054776-0.024938-0.018608-0.048873-0.037495-0.072346-0.056843-0.023473-0.019348-0.046269-0.03931-0.068212-0.059427-0.021942-0.020116-0.043215-0.040579-0.063561-0.061494-0.020346-0.020915-0.03971-0.042335-0.058393-0.064078-0.018683-0.021742-0.036788-0.043546-0.053742-0.066144-0.016955-0.022599-0.032898-0.04576-0.048058-0.069245-0.01516-0.023485-0.029591-0.047428-0.042891-0.071829s-0.025317-0.049067-0.03669-0.074413c-0.011373-0.025346-0.022142-0.051193-0.031522-0.077513-0.00938-0.02632-0.017483-0.05329-0.024804-0.080614-0.00535-0.019979-0.00983-0.040401-0.012919-0.060977-0.00309-0.020576-0.00478-0.041383-0.00568-0.062527-9.03e-4 -0.021144-7.018e-4 -0.042394 5.167e-4 -0.064078 0.00122-0.021683 0.00345-0.043951 0.00672-0.066145 0.00327-0.022193 0.00766-0.044503 0.012919-0.067178 0.00525-0.022675 0.011434-0.045601 0.018603-0.068728 0.00717-0.023127 0.015273-0.046211 0.024287-0.069762 0.00901-0.023551 0.018665-0.047366 0.029455-0.071312s0.022642-0.048034 0.035139-0.072346 0.025655-0.049247 0.03979-0.073896 0.029253-0.049455 0.044958-0.074413c0.015704-0.024957 0.032404-0.049693 0.049608-0.074929 0.017204-0.025237 0.035108-0.050476 0.053743-0.075963s0.03788-0.051288 0.057876-0.076996c0.019997-0.025709 0.040721-0.051611 0.062011-0.077513 0.021289-0.025902 0.043115-0.051964 0.065628-0.07803s0.045578-0.052346 0.069245-0.078547 0.047593-0.05224 0.072346-0.078547c0.024752-0.026307 0.050194-0.052679 0.075963-0.079063s0.052348-0.05263 0.079063-0.079063c0.053432-0.052866 0.10856-0.10576 0.16536-0.15864 0.056806-0.052887 0.11504-0.10597 0.17466-0.15864 0.059628-0.052677 0.12052-0.10537 0.18241-0.15761 0.061896-0.052236 0.125-0.10398 0.18862-0.15554 0.063613-0.051565 0.12797-0.10281 0.19275-0.15348 0.064776-0.050662 0.12995-0.10085 0.19533-0.15038 0.065387-0.049529 0.13092-0.098077 0.19637-0.14624 0.065445-0.048165 0.13038-0.096054 0.19533-0.14262 0.064951-0.04657 0.12988-0.092196 0.19378-0.13694 0.063904-0.044744 0.12683-0.088568 0.18913-0.13126 0.015235-0.010438 0.029839-0.020182 0.044958-0.030489z" fill="url(#radialGradient22180)"/>
   <path d="m8.9347 3.2044c-0.015118 0.010306-0.029723 0.020051-0.044958 0.030489-0.062304 0.042687-0.12523 0.086511-0.18913 0.13126-0.063904 0.044744-0.12883 0.09037-0.19378 0.13694-0.064951 0.04657-0.12989 0.094459-0.19533 0.14262-0.065445 0.048165-0.13098 0.096713-0.19637 0.14624-0.065387 0.049529-0.13056 0.099713-0.19533 0.15038-0.064776 0.050662-0.12914 0.10191-0.19275 0.15348-0.063613 0.051565-0.12672 0.10331-0.18862 0.15554-0.061896 0.052236-0.12279 0.10493-0.18241 0.15761-0.059627 0.052677-0.11786 0.10576-0.17466 0.15864-0.056806 0.052887-0.11193 0.10578-0.16536 0.15864-0.026716 0.026433-0.053295 0.052679-0.079063 0.079063-0.025769 0.026384-0.05121 0.052757-0.075963 0.079063-0.024752 0.026307-0.048679 0.052346-0.072346 0.078547s-0.046732 0.052481-0.069245 0.078547-0.044339 0.052128-0.065628 0.07803-0.042014 0.051804-0.062011 0.077513c-0.019996 0.025709-0.039242 0.051509-0.057876 0.076996-0.018635 0.025487-0.036538 0.050726-0.053743 0.075963-0.017204 0.025237-0.033904 0.049972-0.049608 0.074929s-0.030822 0.049764-0.044958 0.074413c-0.014135 0.024649-0.027293 0.049584-0.03979 0.073896s-0.024349 0.0484-0.035139 0.072346-0.020441 0.047761-0.029455 0.071312c-0.00901 0.023551-0.017119 0.046634-0.024287 0.069762-0.00717 0.023127-0.013349 0.046053-0.018603 0.068728-0.00525 0.022675-0.00965 0.044985-0.012919 0.067178-0.00327 0.022193-0.0055 0.044461-0.00672 0.066145-0.00122 0.021683-0.00142 0.042933-5.167e-4 0.064078 9.03e-4 0.021144 0.00259 0.041951 0.00568 0.062527s0.00757 0.040998 0.012919 0.060977c0.00732 0.027323 0.015424 0.054294 0.024804 0.080614s0.020149 0.052167 0.031522 0.077513 0.02339 0.050012 0.03669 0.074413c0.013299 0.024401 0.02773 0.048343 0.042891 0.071829 0.01516 0.023485 0.031103 0.046646 0.048058 0.069245s0.035059 0.044402 0.053742 0.066145c0.018683 0.021742 0.038047 0.043163 0.058393 0.064077 0.020346 0.020915 0.041618 0.041377 0.063561 0.061494 0.021942 0.020117 0.044739 0.040079 0.068212 0.059427s0.047408 0.038235 0.072346 0.056843c0.024937 0.018608 0.050661 0.036878 0.076996 0.054776 0.026336 0.017898 0.053462 0.035492 0.08113 0.052709s0.055813 0.034076 0.084748 0.050642 0.058747 0.032631 0.088882 0.048575 0.060713 0.031674 0.091982 0.047025 0.063262 0.030687 0.095599 0.045474 0.064844 0.029154 0.098183 0.043407c0.03334 0.014253 0.067524 0.028109 0.1018 0.041857 0.034276 0.013749 0.068721 0.027551 0.10387 0.040824 0.035146 0.013273 0.071018 0.02593 0.10697 0.038757 0.071901 0.025654 0.14542 0.050367 0.22014 0.074413 0.074721 0.024045 0.15036 0.047607 0.22737 0.070278 0.077013 0.022672 0.15531 0.044612 0.23409 0.066145s0.15821 0.042416 0.23822 0.063044c0.080012 0.020628 0.1606 0.041018 0.24132 0.060977 0.08072 0.019959 0.16146 0.039903 0.24236 0.059427 0.1618 0.039048 0.3233 0.077036 0.48265 0.11575 0.079672 0.019358 0.15892 0.038766 0.23719 0.058393 0.078267 0.019628 0.15569 0.039812 0.23202 0.059944 0.07633 0.020131 0.15143 0.040623 0.2253 0.061494 0.07387 0.02087 0.14667 0.042234 0.21755 0.064078s0.13986 0.044126 0.20722 0.067178c0.03368 0.011526 0.06703 0.023267 0.09973 0.035139s0.06498 0.023925 0.09663 0.036173c0.03166 0.012247 0.06247 0.024554 0.09302 0.037206s0.06055 0.02567 0.08991 0.038756c0.02937 0.013086 0.05817 0.026241 0.0863 0.03979s0.05586 0.027298 0.08268 0.04134 0.0531 0.028327 0.07855 0.042891c0.02544 0.014564 0.04989 0.029325 0.0739 0.044441 0.024 0.015116 0.04727 0.030812 0.06976 0.046508s0.04419 0.031235 0.06511 0.047541 0.04118 0.033179 0.06046 0.050125 0.03772 0.034061 0.05529 0.051675c0.01758 0.017614 0.03432 0.035947 0.05012 0.054259 0.01581 0.018313 0.03047 0.036769 0.04444 0.055809s0.02721 0.038596 0.03927 0.058393c0.01207 0.019797 0.02298 0.039877 0.03307 0.06046 0.0101 0.020583 0.01933 0.041646 0.02739 0.063044 0.0081 0.021398 0.01523 0.042868 0.02119 0.065111 0.0032 0.011964 6e-3 0.024454 0.0083 0.03669s0.0039 0.024188 0.0052 0.03669 0.0022 0.025477 0.0026 0.03824c3.8e-4 0.012762 1.5e-5 0.025739-5.17e-4 0.038757-5.32e-4 0.013017-0.0012 0.026007-0.0026 0.039273s-0.0034 0.026797-0.0057 0.040307c-0.0023 0.013509-0.0051 0.027077-0.0083 0.040824s-0.0068 0.027362-0.01085 0.04134c-4e-3 0.013979-0.0086 0.028169-0.01344 0.042374-0.0049 0.014205-0.01032 0.028466-0.01602 0.042891-0.0114 0.02885-0.02415 0.058152-0.03876 0.087848-0.0146 0.029696-0.03088 0.059935-0.04857 0.090432-0.0177 0.030496-0.03669 0.061248-0.05736 0.092499s-0.04313 0.063124-0.06666 0.095083-0.04814 0.064012-0.07441 0.096633-0.05431 0.065463-0.0832 0.0987-0.05904 0.066959-0.09043 0.10077c-0.0314 0.03381-0.06388 0.06799-0.09767 0.10232-0.03378 0.03433-0.06885 0.06854-0.1049 0.10335-0.03605 0.03481-0.07289 0.07018-0.1111 0.10542-0.03821 0.03524-0.07758 0.07082-0.11782 0.10645-0.04024 0.03563-0.08134 0.071-0.1235 0.10697-0.04216 0.03597-0.08522 0.07226-0.12919 0.10852-0.04396 0.03626-0.08922 0.07253-0.13487 0.10904-0.04565 0.03651-0.09179 0.07336-0.13901 0.11007-0.04721 0.03671-0.09551 0.0732-0.14417 0.11007-0.04866 0.03687-0.09779 0.07413-0.14779 0.1111-0.099992 0.07395-0.20233 0.14809-0.30695 0.2222-0.10462 0.07411-0.21157 0.1483-0.31987 0.2222-0.1083 0.07391-0.21812 0.14732-0.32917 0.22065-0.11105 0.07333-0.22303 0.1462-0.33589 0.21859-0.11286 0.07239-0.22681 0.14441-0.34054 0.21549-0.11373 0.07108-0.2274 0.14144-0.34106 0.21084s-0.22737 0.1378-0.34002 0.20515c-0.11265 0.06735-0.22415 0.1335-0.33486 0.19843-0.11071 0.06494-0.22032 0.12853-0.32814 0.19068s-0.2138 0.1229-0.3178 0.1819c-0.09027 0.05121-0.17837 0.10077-0.26509 0.14934a5.2856 5.2856 0 0 0 1.9373 0.37258 5.2856 5.2856 0 0 0 5.2859-5.2859 5.2856 5.2856 0 0 0-4.0147-5.1303 5.2856 5.2856 0 0 0-0.80304-0.13177z" fill="url(#linearGradient11791)"/>
  </g>
  <g fill="#2e3440">
   <path transform="rotate(18.732 14.623 7.8776)" d="m3.7669 9.5708a5.2856 5.2856 0 0 0-0.015824 0.099765c0.071585 0.014673 0.1433 0.02907 0.21495 0.043333 0.0024 4.777e-4 0.00244 0.012074-1.962e-4 0.025167l-0.043822 0.21512c-0.00264 0.013094-0.00678 0.023245-0.0092 0.022762-0.064212-0.012822-0.12807-0.025885-0.19221-0.039039a5.2856 5.2856 0 0 0-0.00691 0.085828c0.27038 0.05543 0.54107 0.10847 0.8125 0.15773 0.018597 0.0034 0.021669 0.07198 0.00684 0.15374l-0.24418 1.346c-0.014825 0.08176-0.042333 0.1446-0.061856 0.14102-0.11922-0.02184-0.23809-0.04467-0.35692-0.06776a5.2856 5.2856 0 0 0 0.027774 0.09317c0.00447 8.63e-4 0.00894 0.0017 0.013413 0.0025 0.00255 4.91e-4 0.00281 0.01187 2.932e-4 0.025l-0.00223 0.01112a5.2856 5.2856 0 0 0 0.058045 0.1953l0.035788-0.18893c0.00247-0.01313 0.00697-0.0239 0.00952-0.02342 0.087262 0.01654 0.17457 0.03277 0.26204 0.04864 0.00256 4.64e-4 0.00266 0.01184 2.932e-4 0.025l-0.039078 0.21624c-0.00237 0.01315-0.00662 0.02323-0.0092 0.02276-0.080312-0.01458-0.16033-0.02936-0.24045-0.04451a5.2856 5.2856 0 0 0 0.042408 0.11057c3.2388 0.60682 6.6387 0.7485 9.9244-0.04023a5.2856 5.2856 0 0 0 0.06277-0.18498l-0.04239-0.17006c-0.0032-0.01279-0.0034-0.0242-7.83e-4 -0.02483 0.03657-0.0091 0.07298-0.01857 0.10951-0.02786a5.2856 5.2856 0 0 0 0.02435-0.09393c-0.38026 0.09789-0.76213 0.18318-1.146 0.25548-0.01966 0.0037-0.04829-0.05797-0.06331-0.13841l-0.24709-1.324c-0.01502-0.08044-0.01243-0.14797 0.0054-0.15135 0.53778-0.10185 1.0691-0.23205 1.5922-0.39261a5.2856 5.2856 0 0 0-0.0086-0.086565c-0.02058 0.00636-0.04107 0.013017-0.06167 0.019276-0.0023 6.913e-4 -0.0068-0.00884-0.01057-0.021516l-0.06253-0.20852c-0.0038-0.012675-0.0051-0.023979-0.0029-0.02466 0.0344-0.010507 0.06879-0.021454 0.10311-0.032238a5.2856 5.2856 0 0 0-0.0162-0.099272c-3.2518 1.0278-6.8769 0.79518-10.422 0.069178zm0.29401 0.16222c0.082051 0.016115 0.16422 0.031867 0.24635 0.047419 0.0024 4.551e-4 0.00264 0.011384 1.272e-4 0.024512l-0.041201 0.21641c-0.00251 0.01313-0.00694 0.02273-0.00936 0.02227-0.082767-0.01571-0.16547-0.03161-0.24815-0.0479-0.00242-4.766e-4 -0.00257-0.010919 3.87e-5 -0.024022l0.043001-0.21593c0.00261-0.013102 0.0068-0.023233 0.0092-0.022762zm0.34138 0.065391c0.082149 0.01533 0.16446 0.030387 0.24666 0.045129 0.00241 4.313e-4 0.0025 0.011353 1.272e-4 0.024511l-0.038912 0.21673c-0.00237 0.01316-0.00629 0.02303-0.00871 0.0226-0.082876-0.01488-0.16566-0.03012-0.24846-0.04561-0.00242-4.54e-4 -0.00309-0.01121-6.166e-4 -0.02435l0.040878-0.21576c0.00248-0.013136 0.00663-0.023701 0.00903-0.023252zm0.34186 0.061957c0.082225 0.01451 0.16454 0.028456 0.24681 0.042351 0.00241 4.066e-4 0.00253 0.011814 2.932e-4 0.025001l-0.036622 0.21704c-0.00223 0.01319-0.00612 0.0235-0.00854 0.02309-0.082965-0.01402-0.16587-0.02867-0.24878-0.04332-0.00243-4.29e-4 -0.00246-0.01135-1.272e-4 -0.02451l0.038422-0.21656c0.00234-0.013166 0.00613-0.02351 0.00854-0.023086zm0.34233 0.058523c0.082281 0.013653 0.16433 0.027215 0.24664 0.040227 0.00241 3.808e-4 0.00287 0.011624 7.825e-4 0.024835l-0.034333 0.21736c-0.00208 0.01321-0.00563 0.02331-0.00805 0.02292-0.083032-0.01312-0.16643-0.02661-0.24942-0.04038-0.00243-4.03e-4 -0.00281-0.01116-6.166e-4 -0.02435l0.036454-0.21752c0.00219-0.013193 0.00613-0.023485 0.00854-0.023086zm0.34215 0.054766c0.082315 0.01276 0.16446 0.025355 0.24679 0.037448 0.00241 3.54e-4 0.00321 0.01143 0.00127 0.02467l-0.032043 0.21767c-0.00193 0.01323-0.00546 0.02377-0.00789 0.02341-0.083077-0.01219-0.16603-0.02489-0.24908-0.03776-0.00243-3.77e-4 -0.00315-0.01096-0.00111-0.02418l0.033677-0.21768c0.00205-0.013217 0.00597-0.023949 0.00838-0.023575zm0.34213 0.051497c0.082327 0.01183 0.16494 0.02287 0.24726 0.03401 0.00241 3.26e-4 0.00321 0.01191 0.00144 0.02516l-0.029265 0.21782c-0.00177 0.01325-0.00546 0.02374-0.00789 0.02341-0.083101-0.01122-0.16614-0.02307-0.24922-0.03499-0.00243-3.49e-4 -0.00301-0.01094-0.00111-0.02418l0.030899-0.21783c0.00189-0.01324 0.00548-0.02376 0.00789-0.02341zm-0.63431 0.26476c0.00251-0.0016 0.00518-0.0024 0.00751-2e-3 0.63782 0.10354 1.2771 0.18772 1.9155 0.24858 0.018651 0.0018 0.027513 0.06947 0.019909 0.15204l-0.12515 1.3591c-0.0076 0.08257-0.029562 0.14735-0.049413 0.14553-0.67948-0.06223-1.3564-0.14984-2.0282-0.25894-0.019627-0.0032-0.024502-0.07136-0.011091-0.15339l0.22079-1.3506c0.011735-0.07178 0.032522-0.12907 0.050094-0.14031zm0.97658-0.21767c0.082319 0.01087 0.16462 0.02126 0.24692 0.0314 0.00241 2.97e-4 0.00354 0.01172 0.00193 0.02499l-0.026486 0.21797c-0.00161 0.01327-0.00497 0.02353-0.0074 0.02324-0.083104-0.01021-0.16659-0.02061-0.2497-0.03155-0.00243-3.21e-4 -3e-3 -0.01141-0.00127-0.02467l0.028609-0.21814c0.00173-0.01325 0.00499-0.02355 0.0074-0.02324zm0.34258 0.04316c0.082289 0.0099 0.16465 0.01901 0.2469 0.02813 0.00241 2.67e-4 0.00337 0.01172 0.00193 0.02499l-0.024196 0.21828c-0.00144 0.01328-0.00431 0.02384-0.00674 0.02357-0.083086-0.0092-0.16626-0.01902-0.24936-0.02894-0.00243-2.91e-4 -0.00267-0.01091-0.00111-0.02418l0.02583-0.21829c0.00157-0.01327 0.00434-0.02385 0.00674-0.02357zm0.34223 0.03891c0.082237 0.0088 0.16421 0.01697 0.2464 0.02503 0.00241 2.36e-4 0.00368 0.01155 0.00242 0.02483l-0.020762 0.21876c-0.00126 0.01329-0.00448 0.02331-0.00691 0.02308-0.083046-0.0081-0.1661-0.01631-0.24917-0.02518-0.00243-2.59e-4 -0.00316-0.01122-0.00176-0.0245l0.023052-0.21844c0.00139-0.01328 0.00434-0.02382 0.00674-0.02357zm0.34171 0.03418c0.082164 0.0078 0.16445 0.0153 0.24654 0.02225 0.0024 2.04e-4 0.00351 0.01154 0.00242 0.02483l-0.018149 0.21842c-0.00108 0.01329-0.00382 0.0236-0.00625 0.0234-0.082984-7e-3 -0.16613-0.01413-0.24916-0.02191-0.00243-2.27e-4 -0.00297-0.01122-0.00176-0.0245l0.019783-0.21842c0.00122-0.01329 0.00419-0.02429 0.00658-0.02406zm0.34136 0.02993c0.08207 0.0066 0.16405 0.01332 0.24604 0.01915 0.0024 1.7e-4 0.00364 0.01088 0.00274 0.02417l-0.014715 0.21889c-8.965e-4 0.01329-0.00383 0.02357-0.00625 0.0234-0.082902-0.0058-0.16569-0.01215-0.24865-0.01881-0.00243-1.95e-4 -0.00312-0.01056-0.00208-0.02385l0.017005-0.21857c0.00104-0.01329 0.00353-0.02458 0.00592-0.02438zm0.34102 0.02568c0.082122 0.0055 0.16432 0.01057 0.24634 0.01523 0.0024 1.36e-4 0.00345 0.01088 0.00274 0.02417l-0.011447 0.21887c-7.046e-4 0.01329-0.00318 0.02386-0.0056 0.02372-0.082966-0.0046-0.16608-0.0099-0.24912-0.01538-0.00243-1.61e-4 -0.0031-0.01105-0.00225-0.02434l0.013736-0.21856c8.483e-4 -0.01329 0.00322-0.02388 0.0056-0.02372zm0.34082 0.02029c0.081985 0.0043 0.1638 0.0082 0.24567 0.01164 0.00239 1.01e-4 0.00325 0.01089 0.00274 0.02417l-0.00818 0.21885c-5.071e-4 0.01328-0.0027 0.02366-0.00511 0.02356-0.082841-0.0034-0.16552-0.0075-0.24845-0.01178-0.00242-1.26e-4 -0.00323-0.01039-0.00257-0.02368l0.010468-0.21854c6.549e-4 -0.01329 0.00305-0.02434 0.00543-0.02421zm0.33965 0.01523c0.081826 0.0031 0.16379 0.0057 0.24549 0.0079 0.00239 6.4e-5 0.0037 0.01121 0.0034 0.02449l-0.00508 0.21835c-3.039e-4 0.01328-0.00204 0.02394-0.00445 0.02388-0.082694-0.0022-0.16547-5e-3 -0.24827-8e-3 -0.00242-9e-5 -0.00369-0.01072-0.00323-0.02401l0.00737-0.21803c4.56e-4 -0.01328 0.0024-0.02463 0.00478-0.02454zm-0.83147 0.31088c0.00233-0.0018 0.00452-0.0025 0.00685-0.0023 0.63754 0.04526 1.2735 0.06538 1.9051 0.05678 0.018449-2.51e-4 0.034106 0.06608 0.035577 0.14836l0.024351 1.3543c0.00147 0.08228-0.013131 0.14834-0.033055 0.14872-0.68197 0.01277-1.365-0.0052-2.0459-0.0505-0.019892-0.0013-0.03092-0.06875-0.025134-0.15135l0.095402-1.3599c0.00507-0.07227 0.020548-0.13127 0.036838-0.144zm1.1706-0.30038c0.081646 0.0019 0.16331 0.0033 0.24482 0.0043 0.00238 2.7e-5 0.00397 0.01107 0.00388 0.02433l-0.00132 0.21816c-9.52e-5 0.01326-0.00222 0.02342-0.00462 0.02339-0.082525-8.56e-4 -0.16478-0.0021-0.24743-0.0039-0.00241-5.2e-5 -0.00397-0.01056-0.00372-0.02384l0.00393-0.2185c2.515e-4 -0.01327 0.00208-0.02394 0.00445-0.02388zm0.33829 0.0048c0.081445 5.57e-4 0.16335 9.28e-4 0.24463 5.28e-4 0.00237-1.1e-5 0.0036 0.01059 0.00372 0.02384l0.00195 0.21815c1.19e-4 0.01325-0.00108 0.02354-0.00347 0.02355-0.082336 4.8e-4 -0.16461 7.9e-4 -0.24708 3.02e-4 -0.00241-1.5e-5 -0.00425-0.01041-0.00421-0.02367l6.635e-4 -0.21849c4.14e-5 -0.01326 0.00143-0.02423 0.0038-0.02421zm-4.804 1.6411c0.08755 0.01559 0.17559 0.03113 0.26334 0.04602 0.00257 4.36e-4 0.00302 0.01164 7.825e-4 0.02484l-0.037111 0.21721c-0.00223 0.01318-0.00612 0.02304-0.00871 0.0226-0.088442-0.01502-0.17674-0.03028-0.26497-0.04601-0.00258-4.6e-4 -0.00311-0.01168-7.825e-4 -0.02483l0.038422-0.21656c0.00234-0.01316 0.00647-0.0237 0.00903-0.02325zm5.1416-1.6415c0.081222-7.71e-4 0.16275-0.0018 0.2438-0.0036 0.00237-5.2e-5 0.00403 0.01093 0.00437 0.02416l0.00554 0.21748c3.389e-4 0.01323-9.159e-4 0.02399-0.00331 0.02404-0.082125 0.0019-0.16413 3e-3 -0.24641 0.0039-0.0024 2.5e-5 -0.00453-0.01026-0.0047-0.02351l-0.00244-0.21798c-1.743e-4 -0.01324 7.81e-4 -0.02451 0.00314-0.02453zm-4.7771 1.7045c0.087817 0.01461 0.17581 0.0287 0.26381 0.04259 0.00258 4.07e-4 0.00352 0.01194 0.00144 0.02516l-0.034333 0.21736c-0.00208 0.01321-0.00611 0.02301-0.00871 0.0226-0.08872-0.01399-0.17758-0.02817-0.2661-0.0429-0.00259-4.31e-4 -0.00281-0.01116-6.166e-4 -0.02435l0.035967-0.21736c0.00219-0.01319 0.00597-0.02351 0.00854-0.02309zm5.114-1.7102c0.080979-0.0021 0.162-5e-3 0.24279-0.0081 0.0024-9.2e-5 0.0044 0.01079 0.0049 0.024l0.0093 0.21729c5.64e-4 0.01321-1e-3 0.02395-0.0033 0.02404-0.08189 0.0033-0.16351 0.0058-0.24557 8e-3 -0.0024 6.6e-5 -0.0043-0.01028-0.0047-0.02351l-0.00669-0.21763c-3.954e-4 -0.01322 9.47e-4 -0.02398 0.00331-0.02404zm0.33543-0.01171c0.08071-0.0035 0.16144-0.0076 0.24195-0.0122 0.0024-1.34e-4 0.0046 0.01065 0.0054 0.02383l0.01289 0.21662c7.96e-4 0.01318-3.9e-5 0.02358-0.0023 0.02371-0.08164 0.0047-0.16372 0.0092-0.24554 0.01288-0.0024 1.07e-4 -4e-3 -0.01031-0.0047-0.02351l-0.01044-0.21745c-6.06e-4 -0.01285 6.21e-4 -0.02322 0.0028-0.02387zm-5.0836 1.7806c0.088062 0.01359 0.17622 0.0268 0.26445 0.03964 0.00258 3.76e-4 0.0032 0.01143 0.00127 0.02467l-0.031388 0.21799c-0.00193 0.01323-0.0061 0.02298-0.00871 0.0226-0.088977-0.01293-0.17778-0.02576-0.26657-0.03947-0.0026-4.01e-4 -0.00332-0.01146-0.00127-0.02467l0.033678-0.21768c0.00205-0.01321 0.00597-0.02349 0.00854-0.02309zm5.418-1.7986c0.08043-5e-3 0.16074-0.01074 0.24095-0.01678 0.0024-1.77e-4 0.0049 0.01099 6e-3 0.02415l0.01665 0.21644c1e-3 0.01316 4.78e-4 0.02336-0.0018 0.02354-0.08136 0.0062-0.16314 0.01186-0.24471 0.01696-0.0024 1.5e-4 -0.0043-0.01016-0.0052-0.02334l-0.01403-0.21678c-8.55e-4 -0.01318-9.1e-5 -0.02406 0.0022-0.0242zm0.33357-0.02363c0.07996-0.0064 0.15974-0.01366 0.23946-0.02118 0.0024-2.22e-4 5e-3 0.01038 0.0063 0.0235l0.0209 0.21609c0.0013 0.01312 5.83e-4 0.02381-0.0017 0.02403-0.0809 0.0077-0.1621 0.01478-0.24321 0.02136-0.0024 1.94e-4 -0.0051-0.0099-0.0062-0.02301l-0.01828-0.21643c-0.0011-0.01315 3.29e-4 -0.02417 0.0027-0.02436zm-5.3851 1.8763c0.088286 0.01254 0.17714 0.02477 0.26557 0.03653 0.00259 3.44e-4 0.00304 0.01142 0.00127 0.02467l-0.029099 0.21831c-0.00177 0.01325-0.00544 0.02327-0.00805 0.02292-0.089213-0.01184-0.17816-0.02388-0.26721-0.03652-0.00261-3.7e-4 -0.00365-0.01127-0.00176-0.0245l0.031388-0.21799c0.00189-0.01323 0.00531-0.02377 0.00789-0.02341zm5.717-1.9065c0.07963-0.0079 0.15924-0.0162 0.23862-0.02526 0.0023-2.67e-4 0.0048 0.01041 0.0063 0.0235l0.02498 0.21525c0.0015 0.01309 0.0011 0.0236-0.0012 0.02386-0.08058 0.0092-0.16139 0.01782-0.24221 0.02593-0.0024 2.39e-4 -0.0053-0.0097-0.0067-0.02284l-0.02187-0.21576c-0.0013-0.01312-3.8e-4 -0.02445 2e-3 -0.02469zm0.3304-0.03619c0.07928-0.0095 0.1586-0.01921 0.23761-0.02983 0.0023-3.13e-4 5e-3 0.01028 0.0068 0.02333l0.02906 0.21441c0.0018 0.01305 0.0018 0.02388-5.28e-4 0.02419-0.08025 0.01081-0.16071 0.02084-0.2412 0.0305-0.0024 2.85e-4 -0.0055-0.0096-0.0071-0.02268l-0.02612-0.21541c-0.0016-0.01308-8.34e-4 -0.02424 0.0015-0.02452zm-1.3265 0.45856c0.62851-0.02781 1.2518-0.08597 1.8677-0.17883 0.01799-0.0027 0.04242 0.05985 0.05482 0.14074l0.20382 1.3316c0.0124 0.08089 0.0066 0.14823-0.0131 0.15123-0.6757 0.10256-1.3555 0.16844-2.0367 0.20177-0.0199 9.73e-4 -0.03874-0.06398-0.04243-0.14604l-0.06094-1.3511c-0.0037-0.08207 0.0085-0.14852 0.02684-0.14934zm-4.3531 1.534c0.088489 0.01145 0.17694 0.02262 0.26556 0.03327 0.00259 3.11e-4 0.00354 0.01172 0.00193 0.02499l-0.026486 0.21797c-0.00161 0.01326-0.00478 0.02355-0.0074 0.02324-0.089427-0.0107-0.17906-0.02188-0.26834-0.03341-0.00261-3.37e-4 -0.00349-0.01125-0.00176-0.0245l0.028609-0.21816c0.00173-0.01325 0.0053-0.02374 0.00789-0.02341zm6.0083-2.0353c0.0789-0.01106 0.15782-0.02266 0.23644-0.03489 0.0023-3.6e-4 0.0053 0.01016 0.0073 0.02317l0.0333 0.21406c2e-3 0.01301 0.0022 0.02367-3.8e-5 0.02402-0.07988 0.01243-0.15989 0.0243-0.24004 0.03556-0.0024 3.32e-4 -0.0058-0.0095-0.0076-0.02251l-0.0302-0.21457c-0.0018-0.01304-0.0014-0.02452 8.51e-4 -0.02484zm0.32755-0.04942c0.07851-0.01268 0.15657-0.02592 0.23478-0.03979 0.0023-4.09e-4 0.0066 0.01023 0.0089 0.02316l0.03738 0.21322c0.0023 0.01296 0.0024 0.02361-3.8e-5 0.02402-0.0795 0.01409-0.15908 0.02773-0.23886 0.04062-0.0024 3.8e-4 -0.0062-0.0098-0.0083-0.02284l-0.03477-0.21356c-0.0021-0.013-0.0015-0.02446 8.52e-4 -0.02484zm0.3254-0.05578c0.0781-0.01433 0.15632-0.029467 0.2341-0.04501 0.0023-4.585e-4 0.0062 0.00975 0.0088 0.022669l0.04212 0.21271c0.0026 0.01292 0.0026 0.02341 4.51e-4 0.02386-0.0791 0.01578-0.1583 0.03112-0.23769 0.04568-0.0023 4.29e-4 -0.0065-0.0097-0.0088-0.02267l-0.03885-0.21273c-0.0024-0.01295-0.0024-0.02408-1.27e-4 -0.02451zm0.32388-0.063452c0.07766-0.016016 0.15511-0.032648 0.23244-0.049904 0.0023-5.091e-4 7e-3 0.00996 0.0099 0.022826l0.04669 0.21171c0.0028 0.01287 0.0027 0.02335 4.51e-4 0.02386-0.07868 0.01751-0.15754 0.03448-0.23652 0.05074-0.0023 4.8e-4 -0.0065-0.0091-0.0091-0.02201l-0.0431-0.21238c-0.0026-0.012904-0.0031-0.024363-7.83e-4 -0.024835zm-6.6167 2.2493c0.088671 0.01032 0.17724 0.02034 0.26603 0.02983 0.0026 2.77e-4 0.00386 0.01155 0.00242 0.02483l-0.023541 0.21861c-0.00144 0.01327-0.00494 0.02303-0.00756 0.02275-0.08962-0.0095-0.17916-0.01911-0.26864-0.02949-0.00262-3.04e-4 -0.00332-0.01123-0.00176-0.0245l0.02583-0.21829c0.00157-0.01326 0.00465-0.02403 0.00723-0.02373zm6.9389-2.3192c0.0772-0.017739 0.15441-0.035959 0.23127-0.054964 0.0023-5.607e-4 0.0067 0.00953 0.0098 0.022337l0.05126 0.2107c0.0031 0.01281 0.0039 0.02344 0.0016 0.02401-0.07823 0.01928-0.1568 0.0378-0.23535 0.0558-0.0023 5.31e-4 -0.0067-0.0089-0.0096-0.02185l-0.04784-0.21186c-0.0029-0.012852-0.0034-0.023656-0.0011-0.02418zm0.31973-0.07732c0.07673-0.019499 0.15357-0.039723 0.22994-0.060513 0.0023-6.133e-4 0.0069 0.00942 0.01025 0.022171l0.05649 0.21002c0.0034 0.012754 0.0038 0.023417 0.0016 0.024013-0.07776 0.02108-0.15542 0.04142-0.23353 0.06119-0.0023 5.83e-4 -0.0071-0.0094-0.01025-0.02217l-0.05273-0.2102c-0.0032-0.012796-0.0041-0.023927-0.0018-0.024503zm0.31822-0.084993c0.07623-0.021294 0.15226-0.043285 0.22811-0.065896 0.0022-6.67e-4 0.0075 0.00915 0.01122 0.021839l0.06057 0.20918c0.0037 0.012692 0.0049 0.023006 0.0026 0.023682-0.07728 0.022915-0.15505 0.045314-0.23268 0.0669-0.0023 6.368e-4 -0.0066-0.00895-0.01008-0.021682l-0.05747-0.20969c-0.0035-0.012737-0.0046-0.023709-0.0023-0.024337zm-7.2079 2.5223c0.088831 0.0092 0.17806 0.01793 0.26699 0.02623 0.0026 2.43e-4 0.00351 0.01104 0.00225 0.02434l-0.020762 0.21876c-0.00126 0.01328-0.00477 0.02349-0.0074 0.02324-0.089792-0.0083-0.17945-0.01686-0.26912-0.02606-0.00262-2.69e-4 -0.00316-0.01122-0.00176-0.0245l0.023052-0.21844c0.00139-0.01327 0.00415-0.02384 0.00674-0.02357zm0.36999 0.0355c0.088969 8e-3 0.17775 0.01539 0.26681 0.02247 0.00261 2.07e-4 0.00399 0.01136 0.00291 0.02466l-0.017983 0.2189c-0.00108 0.01328-0.00428 0.02329-0.00691 0.02308-0.089942-0.0071-0.17975-0.01463-0.26959-0.02262-0.00263-2.33e-4 -0.0033-0.01057-0.00208-0.02385l0.020273-0.21859c0.00122-0.01328 0.00399-0.0243 0.00658-0.02406zm0.36997 0.0306c0.089087 0.0067 0.17812 0.01323 0.26728 0.01904 0.00261 1.7e-4 0.0043 0.01119 0.0034 0.02449l-0.014881 0.2184c-8.962e-4 0.01329-0.00361 0.02357-0.00625 0.0234-0.090071-0.0058-0.1804-0.01179-0.27038-0.01853-0.00263-1.97e-4 -0.00329-0.01105-0.00225-0.02434l0.017005-0.21857c0.00104-0.01329 0.00349-0.02409 0.00609-0.02389zm0.37092 0.02536c0.089364 0.0055 0.17866 0.01042 0.26808 0.01495 0.00261 1.33e-4 0.00362 0.01136 0.00291 0.02466l-0.011613 0.21838c-7.043e-4 0.01328-0.00297 0.02385-0.0056 0.02372-0.090362-0.0045-0.18057-0.0096-0.27086-0.0151-0.00264-1.59e-4 -0.00408-0.01071-0.00323-0.024l0.014226-0.21872c8.48e-4 -0.01329 0.00349-0.02405 0.00609-0.02389zm0.37073 0.01997c0.089439 0.0042 0.1789 0.0078 0.26838 0.01103 0.00261 9.3e-5 0.00391 0.01121 0.0034 0.02449l-0.00834 0.21836c-5.068e-4 0.01328-0.00248 0.02366-0.00511 0.02356-0.090448-0.0032-0.1811-0.0064-0.27149-0.01052-0.00264-1.2e-4 -0.00389-0.01071-0.00323-0.024l0.010957-0.2187c6.547e-4 -0.01328 0.00283-0.02433 0.00543-0.02421zm0.37151 0.01425c0.089492 0.0028 0.17868 0.0054 0.2682 0.0073 0.00261 5.3e-5 0.00418 0.01105 0.00388 0.02433l-0.00508 0.21835c-3.039e-4 0.01327-0.00181 0.02393-0.00445 0.02388-0.090513-0.0018-0.18149-0.0044-0.27196-0.0071-0.00264-8.1e-5 -0.00369-0.01073-0.00323-0.02401l0.0072-0.21852c4.559e-4 -0.01328 0.00282-0.02429 0.00543-0.02421zm0.37132 0.0089c0.089524 0.0014 0.17881 0.0025 0.26834 0.0029 0.00261 1.2e-5 0.00447 0.01089 0.00437 0.02416l-0.00132 0.21816c-9.52e-5 0.01326-0.00231 0.02406-0.00494 0.02405-0.090556-3.48e-4 -0.18108-0.0014-0.27161-0.0028-0.00264-4.1e-5 -0.00397-0.01057-0.00372-0.02384l0.0041-0.21802c2.514e-4 -0.01327 0.00218-0.02458 0.00478-0.02454zm0.37162 0.0033c0.089535 1.6e-5 0.17895-5.44e-4 0.26848-0.0016 0.00261-3e-5 0.00474 0.01075 0.00486 0.024l0.00195 0.21815c1.189e-4 0.01324-0.00182 0.02385-0.00445 0.02388-0.090578 0.0011-0.18119 0.0016-0.27175 0.0016-0.00264 2e-6 -0.00425-0.01042-0.00421-0.02367l6.635e-4 -0.21849c4.14e-5 -0.01326 0.00185-0.02389 0.00445-0.02388zm0.37159-0.0032c0.089524-0.0014 0.17912-0.0035 0.26862-6e-3 0.00261-7.3e-5 0.00469 0.01125 0.00503 0.02449l0.00554 0.21748c3.387e-4 0.01323-0.00132 0.02364-0.00396 0.02371-0.090579 0.0026-0.18114 5e-3 -0.27172 0.0065-0.00265 4.5e-5 -0.00452-0.01027-0.0047-0.02351l-0.00309-0.2183c-1.742e-4 -0.01324 0.00168-0.02433 0.00429-0.02437zm0.3714-0.0086c0.089492-0.0029 0.17914-0.0068 0.2686-0.01087 0.0026-1.19e-4 0.0049 0.0111 0.0055 0.02432l0.0093 0.21729c5.64e-4 0.0132-0.0014 0.0236-4e-3 0.02372-0.09056 0.0041-0.1808 0.0077-0.27138 0.01072-0.00265 8.8e-5 -0.0048-0.01012-0.00519-0.02334l-0.0066277-0.21773c-3.953e-4 -0.01322 0.0012-0.02412 0.0038-0.02421zm0.3712-0.01565c0.08944-0.0045 0.17886-0.0096 0.26825-0.01512 0.0026-1.65e-4 0.0052 0.01096 6e-3 0.02415l0.01289 0.21662c7.95e-4 0.01318-3.06e-4 0.0237-0.0028 0.02387-0.09052 0.0057-0.1808 0.01106-0.27135 0.01563-0.0027 1.34e-4 -0.0052-0.01046-0.0058-0.02366l-0.01028-0.21696c-6.23e-4 -0.0132 5.93e-4 -0.02441 0.0031-0.02453zm0.37133-0.0217c0.08936-6e-3 0.17844-0.01268 0.26773-0.01985 0.0026-2.11e-4 0.0055 0.01083 0.0065 0.02399l0.01665 0.21644c1e-3 0.01315 2.07e-4 0.02351-0.0023 0.02371-0.09045 0.0073-0.18099 0.01389-0.27149 0.02004-0.0027 1.82e-4 -0.0053-0.0098-0.0062-0.02301l-0.01403-0.21678c-8.54e-4 -0.01317 5.68e-4 -0.02436 0.0031-0.02453zm0.3708-0.02807 4.89e-4 -1.66e-4c0.08909-0.0076 0.17773-0.01566 0.26673-0.02443 0.0026-2.59e-4 0.0056 0.0102 0.0068 0.02333l0.02089 0.21609c0.0013 0.01312 2.42e-4 0.02345-0.0023 0.02371-0.09018 0.0089-0.18007 0.01735-0.27032 0.0251-0.0027 2.28e-4 -0.0062-0.01007-0.0073-0.02317l-0.01763-0.21611c-0.0011-0.01314 6.7e-5 -0.02414 0.0027-0.02436zm0.3706-0.0351c0.08897-0.0092 0.17783-0.01889 0.2667-0.02933 0.0026-3.08e-4 0.0053 0.01023 0.0068 0.02333l0.02498 0.21525c0.0015 0.01309 0.0013 0.02356-0.0012 0.02387-0.09008 0.01061-0.18014 0.0206-0.2703 0.03-0.0027 2.77e-4 -0.0065-0.0099-0.0078-0.023l-0.02187-0.21576c-0.0013-0.01311 1.7e-5 -0.02409 0.0027-0.02436zm0.36943-0.04179c0.08883-0.0109 0.1778-0.02259 0.26651-0.03472 0.0026-3.58e-4 0.0056 0.01011 0.0073 0.02317l0.02922 0.2149c0.0018 0.01305 0.0014 0.02351-0.0012 0.02386-0.08995 0.01232-0.18006 0.0243-0.2701 0.03539-0.0027 3.27e-4 -0.0062-0.0099-0.0078-0.023l-0.02595-0.21492c-0.0016-0.01308-5.97e-4 -0.02437 2e-3 -0.02469zm0.36923-0.04882c0.08867-0.01261 0.17729-0.02609 0.26583-0.03995 0.0026-4.09e-4 6e-3 0.01047 8e-3 0.02349l0.0333 0.21406c2e-3 0.01301 0.0018 0.0233-6.94e-4 0.0237-0.0898 0.01407-0.17968 0.02733-0.26959 0.04013-0.0027 3.77e-4 -0.0062-0.0093-0.0081-0.02234l-0.0302-0.21457c-0.0018-0.01304-0.0012-0.02415 0.0015-0.02452zm0.36837-0.05617c0.08849-0.01435 0.17681-0.02954 0.26515-0.04517 0.0026-4.61e-4 0.0066 0.01022 0.0089 0.02316l0.03787 0.21306c0.0023 0.01296 0.0021 0.02372-5.28e-4 0.02419-0.08963 0.01585-0.17964 0.03096-0.2694 0.04552-0.0026 4.3e-4 -0.0065-0.0092-0.0086-0.02218l-0.03445-0.21422c-0.0021-0.01299-0.0016-0.02393 1e-3 -0.02435zm0.36752-0.06352c0.08828-0.01612 0.17651-0.03249 0.26464-0.04991 0.0026-5.14e-4 0.0067 0.0095 0.0093 0.0225l0.04261 0.21254c0.0026 0.01291 2e-3 0.02369-5.28e-4 0.02419-0.08944 0.01766-0.17864 0.03424-0.26823 0.05058-0.0026 4.82e-4 -0.0067-9e-3 -0.0091-0.02201l-0.03902-0.21322c-0.0024-0.01295-0.0022-0.0242 3.62e-4 -0.02468zm0.36666-0.07086c0.08806-0.01793 0.1759-0.03635 0.26379-0.05562 0.0026-5.68e-4 0.0075 0.0098 0.01041 0.02266l0.04669 0.21171c0.0028 0.01286 0.0026 0.02345-3.8e-5 0.02402-0.08923 0.01952-0.17848 0.03828-0.26787 0.05646-0.0026 5.36e-4 -0.0069-9e-3 -0.0096-0.02185l-0.04359-0.21221c-0.0026-0.0129-0.0024-0.02464 1.96e-4 -0.02517zm0.3658-0.07821c0.08781-0.01978 0.17532-0.0402 0.26294-0.06134 0.0026-6.24e-4 0.0077 0.0096 0.0109 0.02249l0.05126 0.2107c0.0031 0.01281 0.0031 0.02323 4.5e-4 0.02386-0.089 0.02141-0.17786 0.04214-0.26702 0.06218-0.0026 5.91e-4 -0.0071-0.0088-0.01008-0.02168l-0.04833-0.2117c-0.0029-0.01285-0.0027-0.02392-1.27e-4 -0.02451z" stroke-width=".045507"/>
   <g fill-opacity=".3">
    <path d="m12.368 11.379c-0.0026-2.79e-4 -0.0059 0.01015-0.0072 0.02325l-0.02222 0.21549c-0.0014 0.0131-1.13e-4 0.024 0.0026 0.02429 0.09088 0.0097 0.18169 0.01856 0.27285 0.02687 0.0027 2.45e-4 0.0061-0.01012 0.0072-0.02325l0.0186-0.216c0.0012-0.01314 8.1e-5 -0.02405-0.0026-0.02429-0.08977-0.0081-0.17971-0.01689-0.26923-0.02636z"/>
    <path d="m11.997 11.336c-0.0026-3.33e-4 -0.0066 0.01019-0.0083 0.02325l-0.02687 0.21497c-0.0016 0.01306-6.35e-4 0.02395 0.0021 0.02429 0.09049 0.01149 0.18104 0.02238 0.27181 0.03256 0.0027 3e-4 0.0063-0.01016 0.0078-0.02325l0.02325-0.21549c0.0014-0.0131 6.04e-4 -0.02399-0.0021-0.02429-0.08942-0.01-0.17852-0.02074-0.26768-0.03204z"/>
    <path d="m11.627 11.285c-0.0026-3.86e-4 -0.0069 0.01023-0.0088 0.02325l-0.03152 0.21394c-0.0019 0.01302-0.0011 0.0239 0.0015 0.02429 0.09009 0.01329 0.1804 0.02573 0.27078 0.03772 0.0026 3.39e-4 0.0061-0.0097 0.0078-0.02274l0.02842-0.21445c0.0017-0.01306 0.0011-0.02445-0.0015-0.02481-0.08905-0.0118-0.17786-0.02412-0.26665-0.03721z"/>
    <path d="m11.259 11.227c-0.0026-4.38e-4 -0.0071 0.0098-0.0093 0.02274l-0.03566 0.21342c-0.0022 0.01298-0.0016 0.02384 1e-3 0.02429 0.08968 0.01504 0.17926 0.02963 0.26923 0.04341 0.0027 4.07e-4 0.0068-0.0097 0.0088-0.02274l0.03256-0.21394c2e-3 -0.01302 0.0016-0.02439-1e-3 -0.0248-0.08868-0.01358-0.1772-0.02754-0.26561-0.04237z"/>
    <path d="m10.892 11.161c-0.0026-4.88e-4 -0.0069 0.0098-0.0093 0.02274l-0.04031 0.2129c-0.0024 0.01294-0.0021 0.02379 5.17e-4 0.02429 0.08926 0.01675 0.17863 0.03304 0.2682 0.04857 0.0025 4.4e-4 6e-3 -0.0098 0.0083-0.02274l0.03721-0.21342c0.0023-0.01298 0.0026-0.02384 0-0.02429-0.0883-0.01531-0.17656-0.03152-0.26458-0.04806z"/>
    <path d="m10.526 11.09c-0.0026-5.37e-4 -0.0071 0.0093-0.0098 0.02222l-0.04444 0.21239c-0.0027 0.01289-0.0026 0.02323 0 0.02377 0.08883 0.01842 0.17802 0.03652 0.26716 0.05374 0.0025 4.87e-4 0.0063-0.0093 0.0088-0.02222l0.04134-0.2129c0.0025-0.01294 0.0026-0.02379 0-0.02429-0.08791-0.01701-0.1754-0.03451-0.26303-0.05271z"/>
    <path d="m9.4401 10.832c-0.00245-6.5e-4 -0.00691 0.0095-0.010335 0.02222l-0.056326 0.2098c-0.00342 0.01275-0.00465 0.02309-0.00207 0.02377 0.087682 0.02324 0.17553 0.04609 0.26354 0.06821 0.00249 6.26e-4 0.00709-0.0089 0.010335-0.0217l0.053226-0.21084c0.00325-0.01279 0.00462-0.02364 0.00207-0.02429-0.086868-0.02189-0.17388-0.04418-0.26044-0.06718z"/>
    <path d="m9.082 10.734c-0.00243-6.92e-4 -0.0072 0.0095-0.010852 0.02222l-0.059943 0.20877c-0.00365 0.0127-0.00515 0.02304-0.00258 0.02377 0.08722 0.02475 0.17444 0.0492 0.26199 0.07286 0.00247 6.68e-4 0.00737-9e-3 0.010852-0.0217l0.056843-0.2098c0.00348-0.01275 0.00513-0.0236 0.00258-0.02429-0.086443-0.02342-0.17276-0.04732-0.25889-0.07183z"/>
    <path d="m8.7254 10.629c-0.00249-7.55e-4 -0.0075 0.0096-0.011369 0.02222l-0.063561 0.20774c-0.00387 0.01265-0.00563 0.02352-0.0031 0.02429 0.08675 0.02622 0.17387 0.05183 0.26096 0.077 0.00246 7.11e-4 0.00715-9e-3 0.010852-0.0217l0.060977-0.20877c0.00371-0.01269 0.00512-0.02355 0.00258-0.02429-0.08601-0.02491-0.17165-0.05051-0.25734-0.07648z"/>
    <path d="m8.3704 10.518c-0.00248-7.97e-4 -0.00728 0.0091-0.011369 0.0217l-0.067178 0.20722c-0.00409 0.01259-0.00562 0.02296-0.0031 0.02377 0.086272 0.02765 0.17279 0.05503 0.25941 0.08165 0.00252 7.74e-4 0.00693-0.0086 0.010852-0.02119l0.064594-0.20825c0.00393-0.01264 0.0056-0.02352 0.0031-0.02429-0.085568-0.02637-0.17107-0.05323-0.25631-0.08061z"/>
    <path d="m8.018 10.401c-0.00247-8.37e-4 -0.00811 0.0092-0.012402 0.0217l-0.070279 0.2067c-0.0043 0.01254-0.00612 0.02292-0.00362 0.02377 0.085784 0.02903 0.17172 0.05723 0.25786 0.08526 0.00251 8.15e-4 0.00723-0.0086 0.011369-0.02119l0.068212-0.2067c0.00414-0.01259 0.0061-0.02348 0.00362-0.02429-0.085118-0.02778-0.16997-0.0565-0.25476-0.08526z"/>
    <path d="m7.6671 10.279c-0.00245-8.76e-4 -0.0079 0.0087-0.012402 0.02119l-0.074413 0.20567c-0.0045 0.01248-0.00611 0.02288-0.00362 0.02377 0.085288 0.03038 0.17066 0.0605 0.25631 0.08992 0.00249 8.55e-4 0.00754-0.0087 0.011885-0.02119l0.071829-0.20618c0.00435-0.01254 0.00609-0.02344 0.00362-0.02429-0.084659-0.02914-0.16889-0.05877-0.25321-0.08888z"/>
    <path d="m7.3178 10.152c-0.00244-9.13e-4 -0.00771 0.0088-0.012402 0.02119l-0.077513 0.20464c-0.0047 0.01243-0.00661 0.02285-0.00413 0.02377 0.084783 0.03168 0.16961 0.06279 0.25476 0.09353 0.00248 8.94e-4 0.00785-0.0082 0.012402-0.02067l0.074929-0.20515c0.00455-0.01248 0.00659-0.0234 0.00413-0.02429-0.084191-0.03047-0.16833-0.06161-0.25218-0.09302z"/>
    <path d="m6.971 10.019c-0.00242-9.5e-4 -0.00803 0.0083-0.012919 0.02067l-0.080614 0.2036c-0.00489 0.01237-0.00711 0.02281-0.00465 0.02377 0.08427 0.03295 0.16857 0.06563 0.25321 0.09767 0.00246 9.32e-4 0.00817-0.0083 0.012919-0.02067l0.07803-0.20412c0.00475-0.01242 0.0071-0.02336 0.00465-0.02429-0.083714-0.03176-0.16726-0.06397-0.25063-0.09663z"/>
    <path d="m6.6258 9.8803c-0.00241-9.85e-4 -0.00785 0.0089-0.012919 0.021187l-0.083714 0.20257c-0.00507 0.01231-0.00761 0.02277-0.00517 0.02377 0.083748 0.03417 0.16805 0.06799 0.25218 0.10128 0.00245 9.69e-4 0.00799-0.0083 0.012919-0.02067l0.08113-0.2036c0.00494-0.01236 0.00708-0.022811 0.00465-0.023771-0.083229-0.033-0.1662-0.06689-0.24908-0.10077z"/>
    <path d="m6.2832 9.7377c-0.0024-0.00102-0.0087 0.00842-0.013952 0.02067l-0.086298 0.20153c-0.00525 0.01225-0.0076 0.022741-0.00517 0.023771 0.083049 0.035281 0.16616 0.069952 0.24959 0.10438 0.00244 1e-3 0.00884-0.0079 0.013952-0.02015l0.084231-0.20257c0.00512-0.0123 0.00707-0.023287 0.00465-0.024287-0.082564-0.034144-0.1648-0.068372-0.24701-0.10336z"/>
    <path d="m5.9422 9.5894c-0.00238-0.00105-0.00853 0.00848-0.013952 0.02067l-0.088882 0.2005c-0.00542 0.01219-0.0081 0.022711-0.00568 0.023771 0.082511 0.03642 0.16514 0.0724 0.24804 0.108 0.00243 1e-3 0.00866-0.0079 0.013952-0.020153l0.087331-0.20102c0.0053-0.012243 0.00757-0.023255 0.00517-0.024287-0.082072-0.035309-0.16428-0.071372-0.24598-0.10749z"/>
    <path d="m5.6037 9.437c-0.00237-0.00108-0.00889 0.00855-0.014469 0.02067l-0.091465 0.19947c-0.00558 0.012123-0.0086 0.022156-0.0062 0.023254 0.081964 0.037514 0.16413 0.074891 0.24649 0.11162 0.00241 0.0011 0.00901-0.00747 0.014469-0.019637l0.089915-0.2005c0.00547-0.01218 0.00755-0.023222 0.00517-0.024287-0.08156-0.036422-0.16273-0.073381-0.24391-0.11059z"/>
    <path d="m13.24 9.3636c-0.0023-1.273e-4 -0.0054 0.010589-0.0062 0.023771l-0.01292 0.21704c-7.9e-4 0.013183 7.28e-4 0.023638 0.0031 0.023771 0.08045 0.00449 0.16078 0.00825 0.24132 0.011369 0.0024 9.19e-5 0.0051-0.010044 0.0057-0.023254l0.0093-0.21755c5.68e-4 -0.013209-7.68e-4 -0.024201-0.0031-0.024287-0.0791-0.00295-0.15816-0.00654-0.23719-0.010852z"/>
    <path d="m12.911 9.3419c-0.0023-1.821e-4 -0.0051 0.010109-0.0062 0.023254l-0.01809 0.21652c-0.0011 0.013146 1.98e-4 0.023583 0.0026 0.023771 0.08032 0.00636 0.16091 0.01204 0.24132 0.017053 0.0023 1.42e-4 0.0048-0.01008 0.0057-0.023254l0.01447-0.21652c8.64e-4 -0.013173-2.36e-4 -0.024145-0.0026-0.024287-0.079-0.00484-0.15827-0.010362-0.23719-0.016536z"/>
    <path d="m12.583 9.3124c-0.0023-2.358e-4 -0.0054 0.010147-0.0067 0.023254l-0.02222 0.21549c-0.0014 0.013108-7.64e-4 0.024046 0.0016 0.024287 0.08018 0.00818 0.16053 0.015352 0.24081 0.02222 0.0024 2.026e-4 0.0056-0.0096 0.0067-0.022737l0.01912-0.21652c0.0012-0.013136-2.4e-4 -0.02409-0.0026-0.024287-0.07889-0.00669-0.15786-0.01371-0.23667-0.021704z"/>
    <path d="m5.2673 9.2804c-0.00235-0.00112-0.00873 0.00809-0.014469 0.020153l-0.094566 0.19843c-0.00574 0.012059-0.00858 0.022125-0.0062 0.023254 0.081409 0.03857 0.16261 0.076907 0.24442 0.11472 0.00239 0.00111 0.00936-0.00753 0.014986-0.019637l0.092499-0.19947c0.00563-0.012116 0.00806-0.022673 0.00568-0.023771-0.081037-0.037501-0.1617-0.075432-0.24236-0.11369z"/>
    <path d="m12.256 9.2752c-0.0023-2.883e-4 -0.0062 0.010187-0.0078 0.023254l-0.02687 0.21497c-0.0016 0.013068-8.6e-4 0.023993 0.0015 0.024287 0.08002 0.00997 0.16016 0.019222 0.24029 0.027905 0.0024 2.561e-4 0.0053-0.010156 0.0067-0.023254l0.02377-0.21549c0.0014-0.013097 0.0012-0.024038-1e-3 -0.024287-0.07878-0.00849-0.15747-0.017615-0.23616-0.027388z"/>
    <path d="m11.929 9.2308c-0.0023-3.396e-4 -0.0059 0.010228-0.0078 0.023254l-0.03152 0.21445c-0.0019 0.013027-0.0013 0.023425 1e-3 0.023771 0.07986 0.011711 0.15979 0.023132 0.23977 0.033589 0.0023 2.961e-4 0.0055-0.00968 0.0072-0.022737l0.02842-0.21497c0.0017-0.013057 7.2e-4 -0.023985-0.0015-0.024287-0.07866-0.010261-0.15708-0.021562-0.23564-0.033072z"/>
    <path d="m11.277 9.1212c-0.0023-4.384e-4 -0.0063 0.0098-0.0088 0.022737l-0.04031 0.2129c-0.0024 0.012941-0.0023 0.023843 0 0.024287 0.07952 0.015076 0.1591 0.029527 0.23874 0.043407 0.0023 3.931e-4 0.0055-0.00976 0.0078-0.022737l0.03721-0.21342c0.0023-0.012973 0.0023-0.023884 0-0.024287-0.07839-0.013672-0.15633-0.028029-0.23461-0.042891z"/>
    <path d="m10.951 9.0561c-0.0023-4.861e-4 -0.0066 0.00984-0.0093 0.022737l-0.04392 0.21187c-0.0027 0.012897-0.0029 0.023795-5.16e-4 0.024287 0.07933 0.016696 0.15876 0.032527 0.23822 0.048058 0.0023 4.399e-4 0.0058-0.00929 0.0083-0.022221l0.04134-0.2129c0.0025-0.012929 0.0028-0.023836 5.16e-4 -0.024287-0.07824-0.015316-0.15648-0.031065-0.23461-0.047541z"/>
    <path d="m10.627 8.9843c-0.0023-5.324e-4 -0.0064 0.00937-0.0093 0.02222l-0.04857 0.21187c-3e-3 0.01285-0.0034 0.023232-1e-3 0.023771 0.07914 0.018276 0.15843 0.036085 0.23771 0.053226 0.0022 4.854e-4 6e-3 -0.00934 0.0088-0.022221l0.04547-0.21187c0.0028-0.012884 0.0033-0.024305 1e-3 -0.024804-0.07808-0.016919-0.15613-0.034142-0.23409-0.052192z"/>
    <path d="m10.303 8.9057c-0.0023-5.777e-4 -0.0072 0.00994-0.01033 0.022737l-0.05219 0.21032c-0.0032 0.012803-0.0039 0.023703-0.0015 0.024287 0.07894 0.019815 0.15811 0.039169 0.23719 0.057877 0.0022 5.299e-4 0.0063-0.00938 0.0093-0.02222l0.04909-0.21135c3e-3 -0.012837 0.0044-0.023742 0.0021-0.024287-0.07791-0.018481-0.15579-0.037778-0.23357-0.05736z"/>
    <path d="m9.9796 8.8215c-0.0022-5.969e-4 -0.00691 0.00947-0.010335 0.02222l-0.056326 0.2098c-0.00342 0.012754-0.00439 0.023142-0.00207 0.023771 0.078884 0.021358 0.15764 0.04225 0.23667 0.062527 0.0022 5.731e-4 0.0066-0.00943 0.0098-0.02222l0.05322-0.21032c0.0033-0.01279 0.0044-0.023698 0.0021-0.024288-0.07789-0.020042-0.15529-0.040375-0.23306-0.061494z"/>
    <path d="m9.6571 8.7306c-0.00219-6.379e-4 -0.00668 0.00952-0.010335 0.02222l-0.06046 0.20877c-0.00365 0.012704-0.0049 0.023616-0.00258 0.024287 0.078663 0.022817 0.15733 0.044895 0.23616 0.066661 0.00223 6.151e-4 0.00685-0.00896 0.010335-0.021704l0.056843-0.2098c0.00348-0.01274 0.00539-0.023654 0.0031-0.024287-0.077711-0.021525-0.15548-0.043573-0.23306-0.066145z"/>
    <path d="m9.3357 8.6339c-0.00225-6.975e-4 -0.00698 0.00957-0.010852 0.022221l-0.064077 0.20774c-0.00387 0.012652-0.00539 0.023581-0.0031 0.024287 0.078434 0.024236 0.15704 0.047581 0.23564 0.070795 0.00222 6.561e-4 0.00663-0.0085 0.010335-0.021187l0.060977-0.20929c0.00371-0.01269 0.00538-0.023612 0.0031-0.024287-0.077519-0.022967-0.15465-0.046295-0.23202-0.070279z"/>
    <path d="m9.0148 8.5316c-0.00224-7.374e-4 -0.00728 0.00911-0.011369 0.021704l-0.067178 0.20722c-0.00409 0.012599-0.0059 0.023023-0.00362 0.023771 0.078196 0.025613 0.15675 0.050824 0.23512 0.075446 0.00228 7.161e-4 0.00692-0.00855 0.010852-0.021187l0.064594-0.20825c0.00393-0.012638 0.00536-0.023577 0.0031-0.024287-0.077314-0.024368-0.15433-0.049058-0.2315-0.074414z"/>
    <path d="m8.6949 8.4236c-0.00224-7.761e-4 -0.00707 0.00916-0.011369 0.021704l-0.070795 0.20618c-0.0043 0.012545-0.00641 0.022984-0.00413 0.023771 0.077949 0.02695 0.15596 0.053593 0.23409 0.07958 0.00227 7.559e-4 0.00723-0.0086 0.011369-0.021187l0.068212-0.20722c0.00414-0.012585 0.00587-0.023536 0.00362-0.024287-0.077117-0.025727-0.15404-0.051863-0.231-0.078547z"/>
    <path d="m8.3761 8.3099c-0.00223-8.136e-4 -0.00738 0.00922-0.011885 0.021704l-0.073896 0.20567c-0.0045 0.012489-0.00692 0.022946-0.00465 0.023771 0.077694 0.028245 0.15569 0.055886 0.23357 0.083197 0.00227 7.944e-4 0.00702-0.00866 0.011369-0.021187l0.071829-0.20618c0.00435-0.01253 0.00638-0.023498 0.00413-0.024287-0.07689-0.027045-0.15375-0.054708-0.23047-0.082681z"/>
    <path d="m7.171 8.2185c-0.019562 0.0069-0.053642 0.058236-0.081647 0.12505l-0.52657 1.2567c-0.032004 0.076361-0.043217 0.14377-0.024804 0.15141 0.63029 0.26156 1.2708 0.49845 1.9208 0.70537 0.018988 6e-3 0.054549-0.05235 0.07958-0.13074l0.41185-1.2903c0.02503-0.07839 0.030988-0.14572 0.013436-0.15141-0.60084-0.19467-1.1962-0.41848-1.7854-0.6661-0.00215-9.037e-4 -0.00444-9.863e-4 -0.00723 0z"/>
    <path d="m8.0583 8.1916c-0.00222-8.498e-4 -0.0077 0.00876-0.012402 0.021187l-0.077513 0.20463c-0.0047 0.012432-0.00691 0.022909-0.00465 0.023771 0.07743 0.029498 0.15492 0.058218 0.23254 0.086815 0.00226 8.318e-4 0.00733-0.0082 0.011885-0.02067l0.074929-0.20515c0.00455-0.012474 0.00689-0.02346 0.00465-0.024287-0.076663-0.028323-0.15294-0.057078-0.22944-0.086298z"/>
    <path d="m7.741 8.0676c-0.00222-8.849e-4 -0.00751 0.00881-0.012402 0.021187l-0.080614 0.2036c-0.00489 0.012374-0.0069 0.022874-0.00465 0.023771 0.077158 0.030711 0.15415 0.06111 0.23151 0.090949 0.00225 8.679e-4 0.00766-0.00877 0.012402-0.021187l0.07803-0.20412c0.00475-0.012417 0.0074-0.023425 0.00517-0.024287-0.076431-0.02956-0.15319-0.05949-0.22944-0.089916z"/>
    <path d="m7.4252 7.9389c-0.00221-9.188e-4 -0.00785 0.00887-0.012919 0.021187l-0.083714 0.20257c-0.00507 0.012315-0.00741 0.02284-0.00517 0.023771 0.076877 0.031883 0.15391 0.063009 0.23099 0.094049 0.00224 9.028e-4 0.00747-0.00831 0.012402-0.02067l0.08113-0.20308c0.00493-0.012358 0.00791-0.023389 0.00568-0.024287-0.076177-0.030755-0.1524-0.061941-0.2284-0.093533z"/>
    <path d="m7.1105 7.8056c-0.0022-9.516e-4 -0.00819 0.00842-0.013436 0.02067l-0.086298 0.20153c-0.00525 0.012254-0.00792 0.022807-0.00568 0.023771 0.076431 0.032947 0.1528 0.06553 0.22944 0.097667 0.00224 9.405e-4 0.00832-0.00785 0.013436-0.020153l0.084231-0.20257c0.00512-0.012298 0.00738-0.023356 0.00517-0.024287-0.075783-0.031845-0.15127-0.063984-0.22686-0.096634z"/>
    <path d="m6.7964 7.6676c-0.00219-9.83e-4 -0.00802 0.00848-0.013436 0.02067l-0.088882 0.2005c-0.00542 0.012192-0.00843 0.022258-0.0062 0.023254 0.076134 0.034034 0.15257 0.06803 0.22892 0.10128 0.00223 9.731e-4 0.00814-0.00792 0.013436-0.020153l0.087331-0.20153c0.00529-0.012237 0.00738-0.023322 0.00517-0.024287-0.075518-0.032956-0.15102-0.066004-0.22634-0.099734z"/>
    <path d="m6.4837 7.525c-0.00219-0.00101-0.00785 0.00854-0.013436 0.02067l-0.091982 0.19947c-0.00559 0.012128-0.00894 0.022227-0.00672 0.023254 0.075827 0.03508 0.15184 0.070055 0.22789 0.10438 0.00223 1e-3 0.00849-0.00798 0.013952-0.020153l0.089915-0.19998c0.00546-0.012175 0.0084-0.023292 0.0062-0.024287-0.075242-0.034025-0.15077-0.068582-0.22582-0.10335z"/>
    <path d="m6.1726 7.3782c-0.00218-0.00104-0.00873 0.00861-0.014469 0.02067l-0.094566 0.19843c-0.00574 0.012063-0.00841 0.022198-0.0062 0.023254 0.075512 0.036085 0.15111 0.071604 0.22686 0.10697 0.00222 0.00103 0.00833-0.00753 0.013952-0.019637l0.092499-0.19947c0.00563-0.012111 0.00839-0.022745 0.0062-0.023771-0.074968-0.035052-0.14951-0.070682-0.22427-0.10645z"/>
    <path d="m5.8621 7.2278c-0.00218-0.00107-0.00909 0.00764-0.014986 0.019637l-0.096633 0.1974c-0.0059 0.011997-0.00892 0.022686-0.00672 0.023771 0.075189 0.03705 0.1504 0.07371 0.22582 0.11007 0.00221 0.00106 0.00869-0.00759 0.014469-0.019637l0.095599-0.19843c0.00578-0.012046 0.00839-0.022716 0.0062-0.023771-0.074681-0.03604-0.14929-0.072308-0.22375-0.10904z"/>
    <path d="m4.8673 7.1198c-0.020248 0.00499-0.058852 0.053097-0.093016 0.1173l-0.64284 1.2077c-0.039043 0.073376-0.05632 0.14002-0.038756 0.14934 0.60118 0.31907 1.2141 0.61942 1.8376 0.89657 0.018216 0.0081 0.059814-0.046201 0.093533-0.12195l0.55499-1.2469c0.033718-0.075752 0.047064-0.1427 0.029972-0.15038-0.58505-0.26266-1.1634-0.5482-1.7342-0.85109-0.00208-0.00111-0.00434-0.00123-0.00723-5.167e-4z"/>
    <path d="m5.553 7.0728c-0.00217-0.0011-0.00894 0.00771-0.014986 0.019637l-0.099734 0.19637c-0.00604 0.011929-0.00891 0.022659-0.00672 0.023771 0.074856 0.037973 0.15021 0.075342 0.2253 0.11265 0.0022 0.00109 0.00853-0.00714 0.014469-0.01912l0.097666-0.1974c0.00593-0.011979 0.00889-0.022688 0.00672-0.023771-0.074385-0.036986-0.14855-0.074492-0.22272-0.11214z"/>
    <path d="m5.2451 6.9147c-0.00216-0.00113-0.0088 0.00778-0.014986 0.019637l-0.1018 0.19482c-0.00618 0.01186-0.00942 0.022634-0.00723 0.023771 0.074515 0.038855 0.14951 0.077014 0.22427 0.11524 0.00219 0.00112 0.00891-0.00721 0.014986-0.01912l0.099734-0.19585c0.00608-0.011911 0.0094-0.022662 0.00723-0.023771-0.074081-0.037892-0.14835-0.0762-0.2222-0.11472z"/>
    <path d="m3.7501 6.0863a5.2856 5.2856 0 0 0-0.1142 0.24339c0.057668 0.033823 0.1153 0.067874 0.17311 0.10128 0.00214 0.00123 0.00931-0.00705 0.016019-0.018603l0.11007-0.19017c0.0067-0.011552 0.010384-0.022031 0.00827-0.023254-0.064668-0.037321-0.12887-0.074955-0.19327-0.11265zm0.2775 0.16071c-0.00212-0.00122-0.00934 0.00755-0.016019 0.01912l-0.11007 0.19017c-0.00668 0.011571-0.00989 0.022026-0.00775 0.023254 0.073066 0.041973 0.14628 0.083596 0.21962 0.12505 0.00215 0.00121 0.00891-0.00698 0.015503-0.018603l0.10852-0.1912c0.00659-0.011626 0.010394-0.022568 0.00827-0.023771-0.072781-0.041101-0.14554-0.08241-0.21807-0.12402zm-0.42632 0.16226a5.2856 5.2856 0 0 0-0.40669 1.6893c0.10608 0.060579 0.21249 0.12083 0.31935 0.18035 0.01734 0.00966 0.063569-0.041015 0.10387-0.11369l0.66351-1.1963c0.040297-0.07267 0.059419-0.13811 0.042891-0.14728-0.24246-0.1345-0.4834-0.27225-0.72294-0.41237zm0.72862 0.0093c-0.00213-0.0012-0.00946 0.00748-0.016019 0.01912l-0.108 0.19172c-0.00656 0.011646-0.0099 0.022047-0.00775 0.023254 0.073441 0.041255 0.14695 0.082276 0.22065 0.12299 0.00216 0.00119 0.00955-0.00742 0.016019-0.01912l0.10645-0.19223c0.00647-0.011699 0.00989-0.02259 0.00775-0.023771-0.073114-0.04036-0.14623-0.081054-0.2191-0.12195zm0.30385 0.16898c-0.00214-0.00117-0.00958 0.0074-0.016019 0.01912l-0.10594 0.19275c-0.00644 0.011718-0.00939 0.022069-0.00723 0.023254 0.073808 0.040496 0.14762 0.080481 0.22169 0.1204 0.00217 0.00117 0.00915-0.00683 0.015503-0.018603l0.10438-0.19378c0.00635-0.011771 0.0099-0.022613 0.00775-0.023771-0.073444-0.039578-0.14693-0.079223-0.22014-0.11937zm0.30488 0.16484c-0.00215-0.00115-0.00919 0.00785-0.015503 0.019637l-0.10387 0.19378c-0.00632 0.01179-0.0094 0.022092-0.00723 0.023254 0.074166 0.039696 0.1483 0.079243 0.22272 0.11834 0.00218 0.00114 0.00929-0.00728 0.015503-0.01912l0.10231-0.19482c0.00622-0.011842 0.00939-0.022636 0.00723-0.023771-0.073759-0.038755-0.14763-0.077949-0.22117-0.1173zm-1.7477 1.4428a5.2856 5.2856 0 0 0-0.00207 0.048575l0.0093-0.016019c0.0066-0.011632 0.00996-0.022486 0.00775-0.023771-0.00504-0.00286-0.00995-0.00592-0.014986-0.00878zm0.10438 0.059944c-0.0023-0.00128-0.0095 0.00696-0.016019 0.018603l-0.098183 0.17415a5.2856 5.2856 0 0 0-5.167e-4 0.018603 5.2856 5.2856 0 0 0 0.00103 0.032556c0.071922 0.040588 0.14426 0.080826 0.21652 0.12092 0.00229 0.00127 0.00955-0.00691 0.016019-0.018603l0.10645-0.19275c0.00648-0.011705 0.00951-0.021992 0.00723-0.023254-0.077736-0.043112-0.15521-0.086534-0.23253-0.13022zm0.32194 0.17983c-0.00301 9.755e-4 -0.00935 0.00887-0.014986 0.01912l-0.10593 0.19275c-0.00644 0.011714-0.00953 0.021989-0.00723 0.023254 0.078502 0.043233 0.15722 0.086048 0.23616 0.12867 0.00231 0.00125 0.00916-0.00684 0.015503-0.018603l0.10438-0.19378c0.00635-0.011777 0.00953-0.022533 0.00723-0.023771-0.07831-0.04228-0.15618-0.084754-0.23409-0.12764-2.85e-4 -1.575e-4 -6.032e-4 -1.394e-4 -0.00103 0zm0.32607 0.17673c-0.0023-0.00123-0.00971 0.00733-0.016019 0.01912l-0.10387 0.19378c-0.00631 0.011786-0.00903 0.02253-0.00672 0.023771 0.079101 0.042383 0.15818 0.084345 0.23771 0.12609 0.00233 0.00122 0.00929-0.00728 0.015503-0.01912l0.10232-0.19482c0.00622-0.011847 0.00954-0.022559 0.00723-0.023771-0.078868-0.041405-0.15768-0.083014-0.23615-0.12505zm0.32659 0.1726c-0.00297 0.00108-0.00906 0.00926-0.014469 0.019637l-0.1018 0.19533c-0.00618 0.011856-0.00905 0.02204-0.00672 0.023254 0.079691 0.041491 0.15966 0.082682 0.23977 0.1235 0.00234 0.00119 0.00891-0.00721 0.014986-0.01912l0.10025-0.19585c0.00608-0.011916 0.0090378-0.023104 0.0067178-0.024288-0.07943-0.040491-0.15868-0.081315-0.23771-0.12247-2.888e-4 -1.5e-4 -6.087e-4 -1.539e-4 -0.00103 0zm0.33072 0.1695c-0.00233-0.00118-0.00946 0.00771-0.015503 0.019637l-0.099217 0.19637c-0.00604 0.011925-0.00907 0.022067-0.00672 0.023254 0.080272 0.040558 0.16116 0.08106 0.24184 0.12092 0.00236 0.00117 0.00905-0.00714 0.014986-0.01912l0.097666-0.1974c0.00594-0.011984 0.00854-0.023131 0.0062-0.024287-0.07997-0.039537-0.15968-0.079141-0.23926-0.11937zm0.33227 0.16536c-0.00234-0.00115-0.00961 0.00764-0.015503 0.019637l-0.096633 0.1974c-0.00589 0.011992-0.00857 0.022612-0.0062 0.023771 0.080844 0.039585 0.16162 0.078963 0.24287 0.11782 0.00238 0.00114 0.0092-0.00759 0.014986-0.019637l0.095083-0.19843c0.00579-0.012051 0.00856-0.022643 0.0062-0.023771-0.08051-0.038539-0.16068-0.077524-0.24081-0.11679z"/>
    <path d="m13.62 9.6442a5.2856 5.2856 0 0 0 0.0047-0.019637 5.2856 5.2856 0 0 0 0.02687-0.1266 5.2856 5.2856 0 0 0 0.0217-0.11834c-0.03481-7.97e-4 -0.06964-0.00101-0.10438-0.00207-0.0023-7.11e-5 -0.0047 0.010553-0.0052 0.023771l-0.0083 0.21755c-4.92e-4 0.013218 0.0012 0.023695 0.0036 0.023771 0.02032 6.506e-4 0.04066 9.842e-4 0.06098 0.00155z"/>
    <path d="m12.902 11.342a5.2856 5.2856 0 0 0 0.03049-0.04702 5.2856 5.2856 0 0 0 0.06821-0.11058 5.2856 5.2856 0 0 0 0.06511-0.11214 5.2856 5.2856 0 0 0 0.06253-0.11368 5.2856 5.2856 0 0 0 0.05994-0.11524 5.2856 5.2856 0 0 0 0.05684-0.11627 5.2856 5.2856 0 0 0 0.05426-0.11834 5.2856 5.2856 0 0 0 0.05064-0.11885 5.2856 5.2856 0 0 0 0.04858-0.12092 5.2856 5.2856 0 0 0 0.04496-0.12144 5.2856 5.2856 0 0 0 0.04237-0.12247 5.2856 5.2856 0 0 0 0.03927-0.12402 5.2856 5.2856 0 0 0 0.03617-0.12454 5.2856 5.2856 0 0 0 0.03307-0.12557 5.2856 5.2856 0 0 0 0.0052-0.021187c-0.54568-0.016045-1.089-0.063444-1.6298-0.13952-0.01798-0.00253-0.04213 0.060069-0.05374 0.14107l-0.19122 1.3337c-0.01161 0.081-0.0048 0.14809 0.01499 0.15089 0.3848 0.05453 0.77248 0.09668 1.1622 0.12609z"/>
    <path d="m12.72 11.604a5.2856 5.2856 0 0 0 0.06769-0.09405 5.2856 5.2856 0 0 0 0.06046-0.08785c-0.03584-0.0028-0.07174-0.0052-0.10748-0.0083-0.0027-2.25e-4 -0.0056 0.01063-0.0067 0.02377z"/>
    <path d="m10.017 11.197 0.04341-0.185c3e-3 -0.01284 0.0036-0.02421 1e-3 -0.0248-0.087107-0.02027-0.17415-0.04112-0.26096-0.06253-0.00256-6.32e-4 -0.00715 0.0094-0.010335 0.02222l-0.052709 0.21084c-0.00319 0.0128-0.00363 0.02365-0.00103 0.02429 0.075432 0.01856 0.15114 0.03658 0.22686 0.05426 0.018021-0.0131 0.035867-0.02618 0.053742-0.03927z"/>
    <path d="m10.017 11.197c-0.017876 0.01309-0.035721 0.02618-0.053742 0.03927 0.012572 0.0029 0.025152 0.0059 0.037723 0.0088 0.0025 5.81e-4 0.0068-0.0089 0.0098-0.0217z"/>
    <path d="m10.244 11.028c-0.02705-6e-3 -0.05416-0.01195-0.08113-0.01809-0.0026-5.85e-4 -0.0069 0.0099-0.0098 0.02274l-0.01757 0.07648c0.03389-0.0254 0.06796-0.05072 0.10128-0.07596 0.0024-0.0018 0.0049-0.0034 0.0072-0.0052z"/>
    <path d="m10.244 11.028c-0.0024 0.0018-0.0049 0.0034-0.0072 0.0052-0.03332 0.02524-0.0674 0.05057-0.10128 0.07596l-0.03101 0.13487c-3e-3 0.01284-0.0031 0.02369-5.17e-4 0.02429 0.0884 0.02005 0.1769 0.03951 0.26561 0.05839 0.0025 5.35e-4 0.0065-0.0093 0.0093-0.02222l0.04548-0.21187c0.0028-0.01289 0.0036-0.02424 1e-3 -0.0248-0.06045-0.01289-0.12095-0.0263-0.18138-0.03979z"/>
    <path d="m11.298 10.114 0.08268-0.4687c0.01424-0.080586 0.01171-0.14768-0.0062-0.15089-0.61308-0.10986-1.2226-0.25494-1.8267-0.43046-0.017658-0.00513-0.050003 0.054417-0.072862 0.13332l-0.3762 1.2986c-0.022859 0.0789-0.025875 0.14697-0.00672 0.15244 0.40955 0.11691 0.82283 0.22129 1.2392 0.31264 0.01645-0.01258 0.03339-0.02511 0.04961-0.03772 0.04721-0.03671 0.09336-0.07356 0.13901-0.11007 0.04565-0.03651 0.09091-0.07277 0.13487-0.10904 0.04396-0.03626 0.08703-0.07255 0.12919-0.10852 0.04216-0.03597 0.08326-0.07134 0.1235-0.10697 0.04024-0.03563 0.07961-0.07121 0.11782-0.10645 0.03821-0.03524 0.07505-0.07061 0.1111-0.10542 0.03606-0.03481 0.07112-0.06902 0.1049-0.10335 0.01964-0.01996 0.03804-0.03961 0.05684-0.05943z"/>
    <path d="m11.298 10.114c-0.01881 0.01981-0.0372 0.03947-0.05684 0.05943-0.03378 0.03433-0.06885 0.06854-0.1049 0.10335-0.03605 0.03481-0.07289 0.07018-0.1111 0.10542-0.03821 0.03524-0.07758 0.07082-0.11782 0.10645-0.04024 0.03563-0.08134 0.071-0.1235 0.10697-0.04216 0.03597-0.08522 0.07226-0.12919 0.10852-0.04396 0.03626-0.08922 0.07253-0.13487 0.10904-0.04565 0.03651-0.09179 0.07336-0.13901 0.11007-0.01622 0.01261-0.03316 0.02514-0.04961 0.03772 0.25039 0.05494 0.50178 0.10536 0.75446 0.15038 0.01967 0.0035 0.04674-0.05842 0.06098-0.13901z"/>
    <path d="m11.824 9.3336 0.01395-0.091982c2e-3 -0.013016 0.0018-0.023934-5.17e-4 -0.024287-0.07853-0.01199-0.15722-0.024517-0.23564-0.037723-0.0023-3.896e-4 -0.0061 0.00975-0.0083 0.022737l-0.03566 0.21394c-0.0022 0.012985-0.0018 0.023375 5.17e-4 0.023771 0.07022 0.01182 0.14052 0.023171 0.21084 0.034106 0.0034-0.00723 0.0072-0.014522 0.01033-0.021704 0.0064-0.014644 0.01239-0.028982 0.01809-0.043407s0.01115-0.028686 0.01602-0.042891c0.0037-0.010915 0.0071-0.021747 0.01033-0.032555z"/>
    <path d="m11.824 9.3336c-0.0033 0.010808-0.0066 0.021641-0.01033 0.032555-0.0049 0.014205-0.01032 0.028466-0.01602 0.042891s-0.01165 0.028763-0.01809 0.043407c-0.0032 0.00718-7e-3 0.014472-0.01033 0.021704 0.0095 0.00147 0.01894 0.0032 0.02842 0.00465 0.0023 3.595e-4 0.0059-0.00972 0.0078-0.022737z"/>
   </g>
  </g>
  <path d="m5.8161 8.5739-1.0522 0.050181 0.48266-0.93633z" fill="url(#linearGradient2801)" stroke="url(#linearGradient3065)" stroke-linecap="round" stroke-linejoin="round" stroke-width=".060383"/>
 </g>
</svg>
