<svg width="64" height="64" version="1.1" viewBox="0 0 16.933 16.933" xmlns="http://www.w3.org/2000/svg">
 <defs>
  <filter id="filter1178" x="-.047999" y="-.047999" width="1.096" height="1.096" color-interpolation-filters="sRGB">
   <feGaussianBlur stdDeviation="0.30691668"/>
  </filter>
  <linearGradient id="linearGradient1340" x1="8.355" x2="8.3996" y1="16.007" y2=".79375" gradientUnits="userSpaceOnUse">
   <stop stop-color="#d8dee9" offset="0"/>
   <stop stop-color="#eceff4" offset="1"/>
  </linearGradient>
  <linearGradient id="a" x2="1" gradientTransform="matrix(0 11.23 -11.23 0 -29.241 3.8693)" gradientUnits="userSpaceOnUse">
   <stop stop-color="#d4969c" offset="0"/>
   <stop stop-color="#bf616a" offset=".3"/>
   <stop stop-color="#bf616a" offset=".614"/>
   <stop stop-color="#943d45" offset="1"/>
  </linearGradient>
  <linearGradient id="b" x2="1" gradientTransform="matrix(0 9.9325 -9.9325 0 -26.332 4.5313)" gradientUnits="userSpaceOnUse">
   <stop stop-color="#983e47" offset="0"/>
   <stop stop-color="#bf616a" offset=".7"/>
   <stop stop-color="#ddabb0" offset="1"/>
  </linearGradient>
  <filter id="filter2807" x="-.067986" y="-.067985" width="1.136" height="1.136" color-interpolation-filters="sRGB">
   <feGaussianBlur stdDeviation="0.32824813"/>
  </filter>
 </defs>
 <rect transform="matrix(.99138 0 0 1 .072989 .0019055)" x=".79375" y=".90545" width="15.346" height="15.346" rx="3.0526" ry="3.0526" fill="#000000" filter="url(#filter1178)" opacity=".15" stroke-width="1.2489" style="mix-blend-mode:normal"/>
 <rect x=".92604" y=".92604" width="15.081" height="15.081" rx="3" ry="3" fill="url(#linearGradient1340)" stroke-linecap="round" stroke-linejoin="round" stroke-width="1.2274"/>
 <g transform="translate(36.742 -.70726)" fill="#2e3440" filter="url(#filter2807)" opacity=".39459" stroke-width=".20439" style="mix-blend-mode:normal">
  <path d="m-28.275 3.6805c-3.1998 0-5.7937 2.5939-5.7937 5.7937 0 3.1072 2.4462 5.6431 5.5178 5.787 0.09167 0.0043 0.18348 0.0068 0.27601 0.0068 1.4834 0 2.8362-0.55777 3.8612-1.4744-0.67914 0.4504-1.4731 0.70955-2.3217 0.70955-1.3797 0-2.6154-0.68447-3.4465-1.7638-0.64065-0.75623-1.0556-1.8741-1.0839-3.1286v-0.27287c0.02825-1.2545 0.44318-2.3726 1.0837-3.1286 0.83118-1.0794 2.0668-1.7638 3.4465-1.7638 0.84876 0 1.6429 0.25915 2.3221 0.70984-1.02-0.91247-2.3646-1.4691-3.8397-1.4746-0.0073 0-0.01456-2.863e-4 -0.0219-2.863e-4z"/>
  <path d="m-30.182 6.2094c0.53169-0.62767 1.2183-1.0062 1.9685-1.0062 1.6867 0 3.0538 1.9123 3.0538 4.2712s-1.3672 4.2712-3.0538 4.2712c-0.75018 0-1.4368-0.37833-1.9684-1.006 0.83104 1.0794 2.0666 1.7638 3.4465 1.7638 0.84862 0 1.6426-0.25915 2.3217-0.70955 1.1859-1.0609 1.9326-2.6029 1.9326-4.3194 0-1.7163-0.74658-3.2582-1.9322-4.319-0.67928-0.45069-1.4734-0.70984-2.3221-0.70984-1.3797 0-2.6154 0.68447-3.4465 1.7638"/>
 </g>
 <rect x=".01215" y=".0060174" width="16.924" height="16.927" fill="none" opacity=".15" stroke-linecap="round" stroke-linejoin="round" stroke-width="1.052"/>
 <g transform="translate(36.742 -1.0075)" stroke-width=".20439">
  <path d="m-28.275 3.6805c-3.1998 0-5.7937 2.5939-5.7937 5.7937 0 3.1072 2.4462 5.6431 5.5178 5.787 0.09167 0.0043 0.18348 0.0068 0.27601 0.0068 1.4834 0 2.8362-0.55777 3.8612-1.4744-0.67914 0.4504-1.4731 0.70955-2.3217 0.70955-1.3797 0-2.6154-0.68447-3.4465-1.7638-0.64065-0.75623-1.0556-1.8741-1.0839-3.1286v-0.27287c0.02825-1.2545 0.44318-2.3726 1.0837-3.1286 0.83118-1.0794 2.0668-1.7638 3.4465-1.7638 0.84876 0 1.6429 0.25915 2.3221 0.70984-1.02-0.91247-2.3646-1.4691-3.8397-1.4746-0.0073 0-0.01456-2.863e-4 -0.0219-2.863e-4z" fill="url(#a)"/>
  <path d="m-30.182 6.2094c0.53169-0.62767 1.2183-1.0062 1.9685-1.0062 1.6867 0 3.0538 1.9123 3.0538 4.2712s-1.3672 4.2712-3.0538 4.2712c-0.75018 0-1.4368-0.37833-1.9684-1.006 0.83104 1.0794 2.0666 1.7638 3.4465 1.7638 0.84862 0 1.6426-0.25915 2.3217-0.70955 1.1859-1.0609 1.9326-2.6029 1.9326-4.3194 0-1.7163-0.74658-3.2582-1.9322-4.319-0.67928-0.45069-1.4734-0.70984-2.3221-0.70984-1.3797 0-2.6154 0.68447-3.4465 1.7638" fill="url(#b)"/>
 </g>
</svg>
