<?xml version="1.0" encoding="UTF-8"?>
<svg width="64" height="64" version="1.1" xml:space="preserve" xmlns="http://www.w3.org/2000/svg"><defs><filter id="filter1178" x="-.047999" y="-.047999" width="1.096" height="1.096" color-interpolation-filters="sRGB"><feGaussianBlur stdDeviation="0.30691668"/></filter><linearGradient id="linearGradient1590" x1="9.152" x2="9.152" y1="9.539" y2="16.475" gradientTransform="matrix(5.3417,-2.6341,2.8166,5.728,-49.812,-4.6569)" gradientUnits="userSpaceOnUse"><stop stop-color="#ebcb8b" offset="0"/><stop stop-color="#eac57b" offset="1"/></linearGradient><linearGradient id="linearGradient1925" x1="9.152" x2="9.152" y1="9.539" y2="16.475" gradientTransform="matrix(5.3417,-2.6341,2.8166,5.728,-49.812,-4.6569)" gradientUnits="userSpaceOnUse"><stop stop-color="#4c566a" offset="0"/><stop stop-color="#2e3440" offset="1"/></linearGradient></defs><rect transform="matrix(3.747 0 0 3.7796 .24696 -.004203)" x=".79375" y=".90545" width="15.346" height="15.346" rx="3.0526" ry="3.0526" filter="url(#filter1178)" opacity=".15" stroke-linecap="round" stroke-linejoin="round" stroke-width="1.2489" style="mix-blend-mode:normal"/><rect x=".017008" y=".011338" width="63.966" height="63.977" fill="none" opacity=".15" stroke-linecap="round" stroke-linejoin="round" stroke-width="3.9761"/><path d="m34.139 3.4883c-0.67384 0.2458-1.3468 0.49036-2.041 0.76367-14.843 9.391-15.936 20.613-13.408 26.137 5.5133 12.046 17.654 5.6989 13.281 1.6113-8.6356 1.0065-4.3745-11.085 2.5625-13.42 7.3248-2.465 19.138 1.3354 25.938 15.941v-19.693c0-6.2817-5.0562-11.34-11.338-11.34h-14.994z" fill="#5e81ac"/><path d="m38.717 17.812c-1.9657 0.047897-3.7 0.46414-5.0898 1.0762-11.191 4.9283-5.7438 17.484-1.6562 13.111-1.0065-8.6356 10.275-5.8595 13.42 2.5625 2.7017 7.236-1.3307 19.124-15.916 25.926h19.658c6.2817 0 11.338-5.0562 11.338-11.338v-14.959c-0.26475-0.73087-0.53293-1.4659-0.83008-2.2207-7.0433-11.133-15.027-14.302-20.924-14.158z" fill="#d08770"/><path d="m36.191 26.512c-3.8619 0.070079-6.6805 3.189-4.2207 5.4883 8.6356-1.0065 5.7033 10.197-2.7188 13.342-7.2403 2.7033-18.982-1.2571-25.781-15.863v19.672c0 6.2817 5.0582 11.338 11.34 11.338h15.055c0.65381-0.23909 1.3055-0.4753 1.9785-0.74023 14.843-9.391 16.047-19.358 13.26-26.047-2.2725-5.4542-5.9084-7.244-8.9121-7.1895z" fill="#5e81ac"/><path d="m14.811 3.4883c-6.2817 0-11.34 5.0582-11.34 11.34v15.035c0.24245 0.66383 0.48283 1.3262 0.75195 2.0098 9.391 14.843 19.664 15.79 26.092 13.238 12.249-4.8626 5.8818-17.015 1.6562-13.111 1.0065 8.6356-10.117 5.9377-13.262-2.4844-2.7048-7.2443 1.1827-19.229 15.809-26.027h-19.707z" fill="#d08770"/><g transform="matrix(3.7796 0 0 3.7796 -.030025 -.013329)" stroke-linecap="round" stroke-width="2.1462"><path transform="scale(.26458)" d="m60.395 40.426 0.10547 0.21289v-0.21289zm-9.0977 0.0039-9.0977 0.0039 9.7031 19.734c2.8143-0.69369 5.2066-2.4327 6.748-4.7852l-7.3535-14.953zm-18.193 0.0059-9.0996 0.0039 9.8652 20.061h9.0996l-9.8652-20.064zm-18.197 0.0078-9.0957 0.0039 9.8594 20.053h9.0996l-9.8633-20.057z" fill="url(#linearGradient1590)"/><path transform="scale(.26458)" d="m60.395 40.426-9.0977 0.0039 7.3535 14.953c1.1691-1.7842 1.8496-3.9193 1.8496-6.2207v-8.5234l-0.10547-0.21289zm-18.195 0.0078-9.0977 2e-3 9.8672 20.064h6.1934c0.94586 0 1.863-0.1158 2.7402-0.33203l-9.7031-19.734zm-18.195 0.0059-9.0977 0.0039 9.8613 20.057h9.1016l-9.8652-20.061zm-20.504 0.0078v8.7148c0 6.2817 5.0581 11.338 11.34 11.338h0.83008l-9.8594-20.053h-2.3105z" fill="url(#linearGradient1925)"/></g></svg>
