<?xml version="1.0" encoding="UTF-8" standalone="no"?>
<svg
   width="64"
   height="64"
   version="1.1"
   viewBox="0 0 16.933 16.933"
   id="svg111"
   sodipodi:docname="org.xfce.volman.svg"
   inkscape:version="1.1 (c68e22c387, 2021-05-23)"
   xmlns:inkscape="http://www.inkscape.org/namespaces/inkscape"
   xmlns:sodipodi="http://sodipodi.sourceforge.net/DTD/sodipodi-0.dtd"
   xmlns:xlink="http://www.w3.org/1999/xlink"
   xmlns="http://www.w3.org/2000/svg"
   xmlns:svg="http://www.w3.org/2000/svg">
  <sodipodi:namedview
     id="namedview113"
     pagecolor="#ffffff"
     bordercolor="#666666"
     borderopacity="1.0"
     inkscape:pageshadow="2"
     inkscape:pageopacity="0.0"
     inkscape:pagecheckerboard="0"
     showgrid="false"
     inkscape:zoom="5.390625"
     inkscape:cx="56.57971"
     inkscape:cy="29.495652"
     inkscape:window-width="1920"
     inkscape:window-height="1018"
     inkscape:window-x="0"
     inkscape:window-y="32"
     inkscape:window-maximized="1"
     inkscape:current-layer="svg111" />
  <defs
     id="defs71">
    <linearGradient
       id="linearGradient2366"
       x1="44.476"
       x2="44.551"
       y1="59.766"
       y2="48.03"
       gradientUnits="userSpaceOnUse">
      <stop
         stop-color="#2e3440"
         offset="0"
         id="stop2360"
         style="stop-color:#b48ead;stop-opacity:1" />
      <stop
         stop-color="#ad85a5"
         stop-opacity="0"
         offset="1"
         id="stop2364"
         style="stop-color:#ad85a5;stop-opacity:1" />
    </linearGradient>
    <linearGradient
       inkscape:collect="always"
       id="linearGradient1086">
      <stop
         style="stop-color:#eceff4;stop-opacity:0.2"
         offset="0"
         id="stop1082" />
      <stop
         style="stop-color:#e6e9ee;stop-opacity:0"
         offset="0.39099902"
         id="stop1252" />
      <stop
         style="stop-color:#3b404c;stop-opacity:0"
         offset="0.61623353"
         id="stop1446" />
      <stop
         style="stop-color:#2e3440;stop-opacity:0.2"
         offset="1"
         id="stop1084" />
    </linearGradient>
    <linearGradient
       id="linearGradient1475">
      <stop
         stop-color="#2e3440"
         offset="0"
         id="stop2" />
      <stop
         stop-color="#eceff4"
         stop-opacity="0"
         offset="1"
         id="stop4" />
    </linearGradient>
    <filter
       id="filter1178"
       x="-0.047999482"
       y="-0.047999482"
       width="1.095999"
       height="1.095999"
       color-interpolation-filters="sRGB">
      <feGaussianBlur
         stdDeviation="0.30691668"
         id="feGaussianBlur7" />
    </filter>
    <linearGradient
       id="linearGradient1340"
       x1="8.355"
       x2="8.3996"
       y1="16.007"
       y2=".79375"
       gradientUnits="userSpaceOnUse">
      <stop
         stop-color="#d8dee9"
         offset="0"
         id="stop10"
         style="stop-color:#d8dee9;stop-opacity:1" />
      <stop
         stop-color="#eceff4"
         offset="1"
         id="stop12"
         style="stop-color:#eceff4;stop-opacity:1" />
    </linearGradient>
    <linearGradient
       id="linearGradient1477"
       x1="43.402"
       x2="44.013"
       y1="45.799"
       y2="46.45"
       gradientUnits="userSpaceOnUse"
       xlink:href="#linearGradient1475" />
    <linearGradient
       id="linearGradient1689"
       x1="43.402"
       x2="44.013"
       y1="45.799"
       y2="46.45"
       gradientTransform="translate(1.4849,0.0032981)"
       gradientUnits="userSpaceOnUse"
       xlink:href="#linearGradient1475" />
    <filter
       id="filter1838"
       x="-0.15774359"
       y="-0.14792941"
       width="1.3154872"
       height="1.2958588"
       color-interpolation-filters="sRGB">
      <feGaussianBlur
         stdDeviation="0.23192251"
         id="feGaussianBlur17" />
    </filter>
    <linearGradient
       id="linearGradient1898"
       x1="235.71"
       x2="244.91"
       y1="1.1888"
       y2="-8.554"
       gradientUnits="userSpaceOnUse">
      <stop
         stop-color="#eceff4"
         offset="0"
         id="stop20" />
      <stop
         stop-color="#d8dee9"
         offset=".035248"
         id="stop22" />
      <stop
         stop-color="#d8dee9"
         stop-opacity=".019608"
         offset=".95403"
         id="stop24" />
      <stop
         stop-color="#2e3440"
         offset="1"
         id="stop26" />
    </linearGradient>
    <filter
       id="filter3310"
       x="-0.10586178"
       y="-0.044310008"
       width="1.2117236"
       height="1.08862"
       color-interpolation-filters="sRGB">
      <feGaussianBlur
         stdDeviation="0.2133556"
         id="feGaussianBlur29" />
    </filter>
    <linearGradient
       id="linearGradient3368"
       x1="42.234"
       x2="46.858"
       y1="49.192"
       y2="58.538"
       gradientUnits="userSpaceOnUse">
      <stop
         stop-color="#b48ead"
         offset="0"
         id="stop32" />
      <stop
         stop-color="#ad85a5"
         offset="1"
         id="stop34" />
    </linearGradient>
    <linearGradient
       id="linearGradient3900"
       x1="42.014"
       x2="46.764"
       y1="53.217"
       y2="53.202"
       gradientUnits="userSpaceOnUse">
      <stop
         stop-color="#eceff4"
         stop-opacity=".34"
         offset="0"
         id="stop37" />
      <stop
         stop-color="#eceff4"
         stop-opacity="0"
         offset=".10055"
         id="stop39" />
      <stop
         stop-color="#ad86a6"
         stop-opacity="0"
         offset=".8971"
         id="stop41" />
      <stop
         stop-color="#2e3440"
         stop-opacity=".4"
         offset="1"
         id="stop43" />
    </linearGradient>
    <linearGradient
       id="linearGradient6594"
       x1="44.476"
       x2="44.551"
       y1="59.766"
       y2="48.03"
       gradientUnits="userSpaceOnUse">
      <stop
         stop-color="#2e3440"
         offset="0"
         id="stop46" />
      <stop
         stop-color="#b38dac"
         stop-opacity="0"
         offset=".048162"
         id="stop48" />
      <stop
         stop-color="#ad85a5"
         stop-opacity="0"
         offset="1"
         id="stop50" />
    </linearGradient>
    <linearGradient
       id="linearGradient8120"
       x1="58.26"
       x2="72.362"
       y1="4.8228"
       y2="5.9903"
       gradientUnits="userSpaceOnUse">
      <stop
         stop-color="#d8dee9"
         stop-opacity="0"
         offset="0"
         id="stop53" />
      <stop
         stop-color="#eceff4"
         offset=".031227"
         id="stop55" />
      <stop
         stop-color="#2e3440"
         offset=".039062"
         id="stop57" />
      <stop
         stop-color="#4c566a"
         offset=".069115"
         id="stop59" />
      <stop
         stop-color="#eceff4"
         offset=".074828"
         id="stop61" />
      <stop
         stop-color="#eceff4"
         offset=".11541"
         id="stop63" />
      <stop
         stop-color="#d8dee9"
         stop-opacity="0"
         offset="1"
         id="stop65" />
    </linearGradient>
    <filter
       id="filter9236"
       x="-0.024128802"
       y="-0.06162744"
       width="1.0482576"
       height="1.1232549"
       color-interpolation-filters="sRGB">
      <feGaussianBlur
         stdDeviation="0.14478519"
         id="feGaussianBlur68" />
    </filter>
    <linearGradient
       inkscape:collect="always"
       xlink:href="#linearGradient1086"
       id="linearGradient1088"
       x1="68.686958"
       y1="5.6624012"
       x2="71.739822"
       y2="5.5618982"
       gradientUnits="userSpaceOnUse"
       gradientTransform="translate(-0.03681084,0.0306757)" />
    <linearGradient
       inkscape:collect="always"
       xlink:href="#linearGradient2366"
       id="linearGradient2166"
       gradientUnits="userSpaceOnUse"
       gradientTransform="matrix(0.9,0,0,0.9,6.9837912,0.58686548)"
       x1="65.503357"
       y1="1.6561447"
       x2="73.414482"
       y2="8.1691132" />
  </defs>
  <g
     stroke-linecap="round"
     stroke-linejoin="round"
     id="g79">
    <rect
       transform="matrix(.99138 0 0 1 .072989 2.5202e-7)"
       x=".79375"
       y="1.0171"
       width="15.346"
       height="15.346"
       rx="3.0526"
       ry="3.0526"
       fill="#2e3440"
       filter="url(#filter1178)"
       opacity=".2"
       stroke-width="1.2489"
       style="mix-blend-mode:normal"
       id="rect73" />
    <rect
       x=".92604"
       y=".92604"
       width="15.081"
       height="15.081"
       rx="3"
       ry="3"
       fill="url(#linearGradient1340)"
       stroke-width="1.2274"
       id="rect75" />
    <rect
       x=".01215"
       y=".0060174"
       width="16.924"
       height="16.927"
       fill="none"
       opacity=".15"
       stroke-width="1.052"
       id="rect77" />
  </g>
  <style
     type="text/css"
     id="style2809">.st0{fill-rule:evenodd;clip-rule:evenodd;}</style>
  <g
     id="g2937"
     transform="matrix(0.66061805,0,0,0.66061805,-35.388717,6.2130555)">
    <g
       stroke-linecap="round"
       stroke-linejoin="round"
       id="g95">
      <rect
         transform="rotate(-46.548)"
         x="42.660999"
         y="44.208"
         width="3.5286"
         height="3.7627001"
         fill="#2e3440"
         filter="url(#filter1838)"
         opacity="0.5"
         stroke-width="0.023814"
         id="rect83" />
      <rect
         transform="rotate(-46.548)"
         x="43.402"
         y="45.799"
         width="0.61066002"
         height="0.65118003"
         fill="url(#linearGradient1477)"
         stroke-width="0.0041214"
         id="rect85"
         style="fill:url(#linearGradient1477)" />
      <rect
         transform="rotate(-46.548)"
         x="44.887001"
         y="45.801998"
         width="0.61066002"
         height="0.65118003"
         fill="url(#linearGradient1689)"
         stroke-width="0.0041214"
         id="rect87"
         style="fill:url(#linearGradient1689)" />
      <path
         transform="scale(0.26458)"
         d="m 241.36,-11.82 -9.1719,9.6816 10.324,9.7812 9.1719,-9.6816 z m 2.5762,6.043 1.7871,1.6914 -1.5879,1.6758 -1.7852,-1.6914 1.5859,-1.6758 z m -3.8672,4.0645 1.7852,1.6934 -1.5859,1.6758 -1.7871,-1.6934 1.5879,-1.6758 z"
         fill="#d8dee9"
         stroke-width="0.090009"
         id="path89" />
      <path
         transform="scale(0.26458)"
         d="m 241.36,-11.82 -9.1719,9.6816 10.324,9.7812 9.1719,-9.6816 z m 2.5762,6.043 1.7871,1.6914 -1.5879,1.6758 -1.7852,-1.6914 1.5859,-1.6758 z m -3.8672,4.0645 1.7852,1.6934 -1.5859,1.6758 -1.7871,-1.6934 1.5879,-1.6758 z"
         fill="url(#linearGradient1898)"
         stroke-width="0.090009"
         id="path91"
         style="fill:url(#linearGradient1898)" />
      <path
         transform="rotate(-46.453)"
         d="m 42.812,47.939 h 3.2545 c 0.43835,0 0.79124,0.3529 0.79124,0.79124 v 9.8077 c -0.78336,1.6143 -4.7822,0.88754 -4.837,0 v -9.8077 c 0,-0.43835 0.3529,-0.79124 0.79124,-0.79124 z"
         fill="#2e3440"
         filter="url(#filter3310)"
         opacity="0.5"
         stroke-width="0.026458"
         id="path93" />
    </g>
    <g
       stroke-linecap="round"
       stroke-linejoin="round"
       stroke-width="0.026458"
       id="g103">
      <path
         transform="rotate(-46.453)"
         d="m 42.812,47.939 h 3.2545 c 0.43835,0 0.79124,0.3529 0.79124,0.79124 v 9.8077 c -0.78336,1.6143 -4.7822,0.88754 -4.837,0 v -9.8077 c 0,-0.43835 0.3529,-0.79124 0.79124,-0.79124 z"
         fill="url(#linearGradient3368)"
         id="path97"
         style="fill:url(#linearGradient3368)" />
      <path
         transform="rotate(-46.453)"
         d="m 42.812,47.939 h 3.2545 c 0.43835,0 0.79124,0.3529 0.79124,0.79124 v 9.8077 c -0.78336,1.6143 -4.7822,0.88754 -4.837,0 v -9.8077 c 0,-0.43835 0.3529,-0.79124 0.79124,-0.79124 z"
         fill="url(#linearGradient3900)"
         id="path99"
         style="fill:url(#linearGradient3900)" />
      <path
         transform="rotate(-46.453)"
         d="m 42.812,47.939 h 3.2545 c 0.43835,0 0.79124,0.3529 0.79124,0.79124 v 9.8077 c -0.78336,1.6143 -4.7822,0.88754 -4.837,0 v -9.8077 c 0,-0.43835 0.3529,-0.79124 0.79124,-0.79124 z"
         fill="url(#linearGradient6594)"
         id="path101"
         style="fill:url(#linearGradient6594)" />
    </g>
    <path
       id="path951"
       style="fill:#a6aebf;stroke-width:3.7796"
       d="m 220.88281,9.5117188 -1.6582,19.0292972 45.42773,2.28125 c 13.21689,-2.358963 10.61899,-18.295665 0.35938,-18.958985 z m 44.34375,5.7187502 a 5.7971535,5.8992027 0 0 1 0.14649,0.002 5.7971535,5.8992027 0 0 1 0.14648,0.0059 5.7971535,5.8992027 0 0 1 0.14649,0.0078 5.7971535,5.8992027 0 0 1 0.14648,0.01367 5.7971535,5.8992027 0 0 1 0.14648,0.01758 5.7971535,5.8992027 0 0 1 0.14454,0.02148 5.7971535,5.8992027 0 0 1 0.14453,0.02344 5.7971535,5.8992027 0 0 1 0.14453,0.0293 5.7971535,5.8992027 0 0 1 0.14453,0.03125 5.7971535,5.8992027 0 0 1 0.14258,0.03516 5.7971535,5.8992027 0 0 1 0.14062,0.03906 5.7971535,5.8992027 0 0 1 0.14063,0.04297 5.7971535,5.8992027 0 0 1 0.14062,0.04687 5.7971535,5.8992027 0 0 1 0.13867,0.05078 5.7971535,5.8992027 0 0 1 0.13672,0.05274 5.7971535,5.8992027 0 0 1 0.13477,0.05664 5.7971535,5.8992027 0 0 1 0.13476,0.0625 5.7971535,5.8992027 0 0 1 0.13282,0.0625 5.7971535,5.8992027 0 0 1 0.13086,0.06836 5.7971535,5.8992027 0 0 1 0.1289,0.07031 5.7971535,5.8992027 0 0 1 0.12696,0.07422 5.7971535,5.8992027 0 0 1 0.12695,0.07813 5.7971535,5.8992027 0 0 1 0.12305,0.08008 5.7971535,5.8992027 0 0 1 0.12109,0.08398 5.7971535,5.8992027 0 0 1 0.11914,0.08789 5.7971535,5.8992027 0 0 1 0.11914,0.08984 5.7971535,5.8992027 0 0 1 0.11328,0.0918 5.7971535,5.8992027 0 0 1 0.11328,0.0957 5.7971535,5.8992027 0 0 1 0.11133,0.09961 5.7971535,5.8992027 0 0 1 0.10742,0.101563 5.7971535,5.8992027 0 0 1 0.10547,0.103515 5.7971535,5.8992027 0 0 1 0.10156,0.107422 5.7971535,5.8992027 0 0 1 0.0996,0.109375 5.7971535,5.8992027 0 0 1 0.0977,0.113281 5.7971535,5.8992027 0 0 1 0.0937,0.113282 5.7971535,5.8992027 0 0 1 0.0918,0.117187 5.7971535,5.8992027 0 0 1 0.0879,0.119141 5.7971535,5.8992027 0 0 1 0.0859,0.123047 5.7971535,5.8992027 0 0 1 0.082,0.123046 5.7971535,5.8992027 0 0 1 0.0801,0.125 5.7971535,5.8992027 0 0 1 0.0762,0.128907 5.7971535,5.8992027 0 0 1 0.0723,0.128906 5.7971535,5.8992027 0 0 1 0.0703,0.132813 5.7971535,5.8992027 0 0 1 0.0664,0.132812 5.7971535,5.8992027 0 0 1 0.0625,0.134766 5.7971535,5.8992027 0 0 1 0.0586,0.136718 5.7971535,5.8992027 0 0 1 0.0566,0.138672 5.7971535,5.8992027 0 0 1 0.0527,0.138672 5.7971535,5.8992027 0 0 1 0.0488,0.140625 5.7971535,5.8992027 0 0 1 0.0469,0.142578 5.7971535,5.8992027 0 0 1 0.041,0.142578 5.7971535,5.8992027 0 0 1 0.0391,0.144532 5.7971535,5.8992027 0 0 1 0.0352,0.144531 5.7971535,5.8992027 0 0 1 0.0312,0.146484 5.7971535,5.8992027 0 0 1 0.0273,0.146485 5.7971535,5.8992027 0 0 1 0.0254,0.148437 5.7971535,5.8992027 0 0 1 0.0195,0.148438 5.7971535,5.8992027 0 0 1 0.0176,0.148437 5.7971535,5.8992027 0 0 1 0.0117,0.148438 5.7971535,5.8992027 0 0 1 0.01,0.148437 5.7971535,5.8992027 0 0 1 0.006,0.150391 5.7971535,5.8992027 0 0 1 0.002,0.148437 5.7971535,5.8992027 0 0 1 -0.0156,0.441406 5.7971535,5.8992027 0 0 1 -0.0488,0.4375 5.7971535,5.8992027 0 0 1 -0.082,0.433594 5.7971535,5.8992027 0 0 1 -0.11133,0.425782 5.7971535,5.8992027 0 0 1 -0.14257,0.417968 5.7971535,5.8992027 0 0 1 -0.17383,0.404297 5.7971535,5.8992027 0 0 1 -0.20313,0.388672 5.7971535,5.8992027 0 0 1 -0.23047,0.375 5.7971535,5.8992027 0 0 1 -0.25781,0.353516 5.7971535,5.8992027 0 0 1 -0.28125,0.333984 5.7971535,5.8992027 0 0 1 -0.30664,0.3125 5.7971535,5.8992027 0 0 1 -0.33008,0.289063 5.7971535,5.8992027 0 0 1 -0.34765,0.261718 5.7971535,5.8992027 0 0 1 -0.36719,0.234375 5.7971535,5.8992027 0 0 1 -0.38281,0.205078 5.7971535,5.8992027 0 0 1 -0.39844,0.177735 5.7971535,5.8992027 0 0 1 -0.4082,0.144531 5.7971535,5.8992027 0 0 1 -0.41993,0.115234 5.7971535,5.8992027 0 0 1 -0.42578,0.08203 5.7971535,5.8992027 0 0 1 -0.42968,0.04883 5.7971535,5.8992027 0 0 1 -0.4336,0.01563 5.7971535,5.8992027 0 0 1 -0.43359,-0.01563 5.7971535,5.8992027 0 0 1 -0.43164,-0.04883 5.7971535,5.8992027 0 0 1 -0.42578,-0.08203 5.7971535,5.8992027 0 0 1 -0.41797,-0.115234 5.7971535,5.8992027 0 0 1 -0.41016,-0.144531 5.7971535,5.8992027 0 0 1 -0.39648,-0.177735 5.7971535,5.8992027 0 0 1 -0.38282,-0.205078 5.7971535,5.8992027 0 0 1 -0.36718,-0.234375 5.7971535,5.8992027 0 0 1 -0.34961,-0.261718 5.7971535,5.8992027 0 0 1 -0.32813,-0.289063 5.7971535,5.8992027 0 0 1 -0.30664,-0.3125 5.7971535,5.8992027 0 0 1 -0.2832,-0.333984 5.7971535,5.8992027 0 0 1 -0.25781,-0.353516 5.7971535,5.8992027 0 0 1 -0.23047,-0.375 5.7971535,5.8992027 0 0 1 -0.20117,-0.388672 5.7971535,5.8992027 0 0 1 -0.17383,-0.404297 5.7971535,5.8992027 0 0 1 -0.14453,-0.417968 5.7971535,5.8992027 0 0 1 -0.11133,-0.425782 5.7971535,5.8992027 0 0 1 -0.0801,-0.433594 5.7971535,5.8992027 0 0 1 -0.0488,-0.4375 5.7971535,5.8992027 0 0 1 -0.0156,-0.441406 5.7971535,5.8992027 0 0 1 0.0156,-0.441406 5.7971535,5.8992027 0 0 1 0.0488,-0.4375 5.7971535,5.8992027 0 0 1 0.0801,-0.433594 5.7971535,5.8992027 0 0 1 0.11133,-0.425781 5.7971535,5.8992027 0 0 1 0.14453,-0.416016 5.7971535,5.8992027 0 0 1 0.17383,-0.404297 5.7971535,5.8992027 0 0 1 0.20117,-0.390624 5.7971535,5.8992027 0 0 1 0.23047,-0.373047 5.7971535,5.8992027 0 0 1 0.25781,-0.355469 5.7971535,5.8992027 0 0 1 0.2832,-0.333984 5.7971535,5.8992027 0 0 1 0.30664,-0.3125 5.7971535,5.8992027 0 0 1 0.32813,-0.28711 5.7971535,5.8992027 0 0 1 0.34961,-0.261719 5.7971535,5.8992027 0 0 1 0.36718,-0.236328 5.7971535,5.8992027 0 0 1 0.38282,-0.205078 5.7971535,5.8992027 0 0 1 0.39648,-0.175781 5.7971535,5.8992027 0 0 1 0.41016,-0.146484 5.7971535,5.8992027 0 0 1 0.41797,-0.115235 5.7971535,5.8992027 0 0 1 0.42578,-0.08203 5.7971535,5.8992027 0 0 1 0.43164,-0.04883 5.7971535,5.8992027 0 0 1 0.43359,-0.01563 z"
       transform="scale(0.26457812)" />
    <path
       d="m 58.441,2.5166 -0.43902,5.0348 12.019,0.60367 c 3.4969,-0.62413 2.8099,-4.8406 0.09543,-5.0161 z"
       fill="url(#linearGradient8120)"
       filter="url(#filter9236)"
       id="path107"
       style="fill:url(#linearGradient8120)" />
    <path
       id="ellipse109"
       style="fill:url(#linearGradient1088);fill-opacity:1"
       d="m 71.70301,5.5925736 a 1.5338,1.5608 0 0 1 -1.5338,1.5607999 1.5338,1.5608 0 0 1 -1.5338,-1.5607999 1.5338,1.5608 0 0 1 1.5338,-1.5608 1.5338,1.5608 0 0 1 1.5338,1.5608 z" />
    <path
       id="path2134"
       style="fill:url(#linearGradient2166);fill-opacity:1;stroke-width:0.9"
       d="m 71.54963,5.5925736 a 1.38042,1.40472 0 0 1 -1.38042,1.4047199 1.38042,1.40472 0 0 1 -1.38042,-1.4047199 1.38042,1.40472 0 0 1 1.38042,-1.40472 1.38042,1.40472 0 0 1 1.38042,1.40472 z" />
    <path
       class="st0"
       d="m 61.941748,4.6931176 c 0.294837,0.011767 0.489221,0.2039345 0.543849,0.4560546 l 0.262962,0.010495 c 0.15587,-0.137442 0.250318,-0.3357251 0.337905,-0.5199993 0.189784,-0.397791 0.354409,-0.7440772 0.930288,-0.6064156 0.05733,-0.183802 0.232217,-0.3137639 0.433948,-0.3057127 0.240736,0.00961 0.428393,0.2124284 0.418786,0.4531642 -0.0096,0.2407354 -0.21285,0.428375 -0.453584,0.4187671 -0.173631,-0.00693 -0.319306,-0.1143996 -0.383891,-0.2644212 l -0.0014,0.005 c -0.06225,-0.019289 -0.118111,-0.029917 -0.168388,-0.033185 -0.284522,-0.017651 -0.390861,0.2049359 -0.511004,0.4576423 -0.0073,0.01525 -0.01466,0.030498 -0.02201,0.046171 -0.05864,0.1219994 -0.121183,0.2472037 -0.204382,0.3636024 l 2.416998,0.096463 0.01301,-0.3258779 0.003,-0.075073 0.07779,0.050573 0.855789,0.5550388 -0.979298,0.5292668 0.01759,-0.4407891 -1.844099,-0.073599 c 0.07533,0.1227265 0.128928,0.2534056 0.178043,0.380546 0.0076,0.019213 0.01483,0.038819 0.02246,0.058026 0.100768,0.2644626 0.190184,0.4973888 0.483409,0.4969096 0.03949,-8.07e-5 0.08251,-0.00427 0.129911,-0.013302 l 0.0083,-0.207183 c 0.0014,-0.034809 0.03103,-0.061772 0.06542,-0.060399 l 0.764985,0.030531 c 0.03482,0.00139 0.06177,0.03103 0.0604,0.065421 l -0.03105,0.7779859 c -0.0014,0.034809 -0.0306,0.061788 -0.06542,0.060399 l -0.764932,-0.030536 c -0.03439,-0.00138 -0.06177,-0.03103 -0.0604,-0.065421 L 64.4875,6.7114957 C 63.906332,6.8004588 63.769375,6.4429768 63.612701,6.0321985 63.537763,5.8363968 63.457137,5.6252457 63.305199,5.4746786 l -0.83083,-0.033159 c -0.07497,0.2469478 -0.283626,0.4230298 -0.578463,0.4112628 -0.295677,-0.0118 -0.570088,-0.2827741 -0.557317,-0.6027759 0.01277,-0.3200011 0.307922,-0.5686637 0.603179,-0.5568799 z"
       id="path2811"
       style="fill:#4c566a;stroke-width:0.0419733" />
  </g>
</svg>
