<svg width="64" height="64" version="1.1" viewBox="0 0 16.933 16.933" xmlns="http://www.w3.org/2000/svg">
 <defs>
  <filter id="filter1178" x="-.048" y="-.048" width="1.096" height="1.096" color-interpolation-filters="sRGB">
   <feGaussianBlur stdDeviation="0.30691955"/>
  </filter>
  <linearGradient id="linearGradient1340" x1="8.5234" x2="8.4785" y1="15.743" y2="1.3583" gradientUnits="userSpaceOnUse">
   <stop stop-color="#7b88a1" offset="0"/>
   <stop stop-color="#d8dee9" offset="1"/>
  </linearGradient>
  <linearGradient id="a" x1="18.601" x2="18.601" y1=".85446" y2="49.956" gradientTransform="matrix(.29413 0 0 .25403 7.6027 1.2101)" gradientUnits="userSpaceOnUse">
   <stop stop-color="#eceff4" offset="0"/>
   <stop stop-color="#d8dee9" offset="1"/>
  </linearGradient>
  <filter id="filter1527" x="-.15049" y="-.084221" width="1.301" height="1.1684" color-interpolation-filters="sRGB">
   <feGaussianBlur stdDeviation="0.4270864"/>
  </filter>
 </defs>
 <g stroke-linecap="round" stroke-linejoin="round">
  <rect transform="matrix(.99138 0 0 1 .072989 .0019055)" x=".79375" y=".90545" width="15.346" height="15.346" rx="3.0526" ry="3.0526" fill="#000000" filter="url(#filter1178)" opacity=".15" stroke-width="1.2489" style="mix-blend-mode:normal"/>
  <rect x=".92604" y=".92604" width="15.081" height="15.081" rx="3" ry="3" fill="url(#linearGradient1340)" stroke-width="1.2274"/>
  <rect x=".01215" y=".0060174" width="16.924" height="16.927" fill="none" opacity=".15" stroke-width="1.052"/>
 </g>
 <g transform="translate(-1.0438 .80904)" stroke-width=".26458">
  <path d="m9.518 3.4272c0.14658 0 0.26458 0.14539 0.26458 0.32599v0.93547c0 0.1806-0.118 0.32599-0.26458 0.32599s-0.26458-0.1454-0.26458-0.32599v-0.93547c0-0.1806 0.118-0.32599 0.26458-0.32599zm0-0.26458c0.14658 0 0.26458 0.14539 0.26458 0.32599v0.93547c0 0.1806-0.118 0.32599-0.26458 0.32599s-0.26458-0.1454-0.26458-0.32599v-0.93547c0-0.1806 0.118-0.32599 0.26458-0.32599zm-0.30003-1.5869c-0.77405 0.0086-1.6062 0.079141-2.1733 0.61078-0.86858 0.81427-0.75892 1.3775-0.84422 2.492-0.17415 2.275-0.10673 5.3929 0.35583 7.6328 0.13568 0.65705 0.75542 1.1194 1.4128 1.246 0.50458 0.09713 1.0264 0.17071 1.5489 0.18847 0.52252-0.01776 1.0443-0.09134 1.5489-0.18847 0.65742-0.12655 1.2771-0.58892 1.4128-1.246 0.46256-2.24 0.52998-5.358 0.35583-7.6328-0.08531-1.1145 0.02436-1.6777-0.84422-2.492-0.5671-0.53164-1.3993-0.60218-2.1733-0.61078-0.10116-0.00111-0.20153-1.299e-4 -0.3 0-0.09848-1.299e-4 -0.19884-0.00111-0.3 0z" fill="#2e3440" filter="url(#filter1527)" opacity=".5"/>
  <path d="m9.218 1.5757c-0.77405 0.0086-1.6062 0.079141-2.1733 0.61078-0.86858 0.81427-0.75892 1.3775-0.84422 2.492-0.17415 2.275-0.10673 5.3929 0.35583 7.6328 0.13568 0.65705 0.75542 1.1194 1.4128 1.246 0.50458 0.09713 1.0264 0.17071 1.5489 0.18847 0.52252-0.01776 1.0443-0.09134 1.5489-0.18847 0.65742-0.12655 1.2771-0.58892 1.4128-1.246 0.46256-2.24 0.52998-5.358 0.35583-7.6328-0.08531-1.1145 0.02436-1.6777-0.84422-2.492-0.5671-0.53164-1.3993-0.60218-2.1733-0.61078-0.10116-0.00111-0.20153-1.299e-4 -0.3 0-0.09848-1.299e-4 -0.19884-0.00111-0.3 0z" color="#000000" fill="url(#a)"/>
  <path d="m9.518 3.1626c0.14658 0 0.26458 0.14539 0.26458 0.32599v0.93547c0 0.1806-0.118 0.32599-0.26458 0.32599s-0.26458-0.1454-0.26458-0.32599v-0.93547c0-0.1806 0.118-0.32599 0.26458-0.32599z" fill="#4c566a" fill-opacity=".58824"/>
  <path d="m9.518 3.4272c0.14658 0 0.26458 0.14539 0.26458 0.32599v0.93547c0 0.1806-0.118 0.32599-0.26458 0.32599s-0.26458-0.1454-0.26458-0.32599v-0.93547c0-0.1806 0.118-0.32599 0.26458-0.32599z" fill="#4c566a" fill-opacity=".58824"/>
 </g>
</svg>
