<svg width="64" height="64" version="1.1" viewBox="0 0 16.933 16.933" xmlns="http://www.w3.org/2000/svg">
 <defs>
  <filter id="filter1178" x="-.047999" y="-.047999" width="1.096" height="1.096" color-interpolation-filters="sRGB">
   <feGaussianBlur stdDeviation="0.30691668"/>
  </filter>
  <linearGradient id="linearGradient1340" x1="8.3639" x2="8.3412" y1="15.481" y2="1.4263" gradientUnits="userSpaceOnUse">
   <stop stop-color="#d8dee9" offset="0"/>
   <stop stop-color="#eceff4" offset="1"/>
  </linearGradient>
  <filter id="filter11783" x="-.033457" y="-.056664" width="1.0669" height="1.1133" color-interpolation-filters="sRGB">
   <feGaussianBlur stdDeviation="0.13174676"/>
  </filter>
  <filter id="filter11787" x="-.044457" y="-.075293" width="1.0889" height="1.1506" color-interpolation-filters="sRGB">
   <feGaussianBlur stdDeviation="0.17506133"/>
  </filter>
 </defs>
 <rect transform="matrix(.99138 0 0 1 .072989 .0019055)" x=".79375" y=".90545" width="15.346" height="15.346" rx="3.0526" ry="3.0526" fill="#000000" filter="url(#filter1178)" opacity=".15" stroke-width="1.2489" style="mix-blend-mode:normal"/>
 <rect x=".92604" y=".92604" width="15.081" height="15.081" rx="3" ry="3" fill="url(#linearGradient1340)" stroke-linecap="round" stroke-linejoin="round" stroke-width="1.2274"/>
 <path transform="matrix(.90047 0 0 .90047 24.644 8.9492)" d="m-19.85 0.6113h-0.04999c-0.65374 0-1.2482 0.26757-1.6793 0.69865-0.43108 0.43108-0.69865 1.0256-0.69865 1.6793 0 0.010229 0 0.020459 1.54e-4 0.030457 1.54e-4 0.01023 3.2e-4 0.020458 6.1e-4 0.03061 3.19e-4 0.010075 6.1e-4 0.020305 8.96e-4 0.03038 4.65e-4 0.010075 8.96e-4 0.020305 0.0014 0.03038 6.1e-4 0.010075 0.0012 0.020151 0.0018 0.030226 6.1e-4 0.010075 0.0014 0.020151 2e-3 0.030226 7.56e-4 0.00992 0.0016 0.019997 0.0025 0.029918v1.537e-4c0.0027 0.029918 0.0059 0.059759 0.0096 0.08937 0.06857 0.53368 0.31592 1.0137 0.67978 1.3775 0.38394 0.38394 0.8977 0.63843 1.467 0.68935 0.0099 9.283e-4 0.02 0.00177 0.02992 0.00253h1.53e-4c0.0099 7.559e-4 0.02 0.00154 0.03007 0.00206 0.01007 7.558e-4 0.02015 0.00122 0.03022 0.00177h1.54e-4c0.0099 4.65e-4 0.02015 9.281e-4 0.03022 0.00139 0.01023 4.652e-4 0.02031 7.557e-4 0.03038 9.282e-4h1.54e-4c0.01007 3.198e-4 0.02031 4.651e-4 0.03046 6.103e-4 0.01007 1.539e-4 0.02031 3.199e-4 0.03046 3.199e-4h0.04999c0.65343 0 1.248-0.2678 1.6793-0.69896 0.43109-0.43107 0.69881-1.0255 0.69881-1.6791 0-0.65374-0.26757-1.2483-0.69865-1.6793-0.43124-0.43116-1.0256-0.69873-1.6795-0.69873zm-0.05007-0.41201h3.8707c0.76749 0 1.4651 0.31387 1.9707 0.8194 0.50561 0.50561 0.8194 1.2032 0.8194 1.9707 0 0.76749-0.31387 1.4649-0.81948 1.9705-0.50561 0.50561-1.2033 0.81956-1.9706 0.81956h-3.8706c-0.012 0-0.02392-1.54e-4 -0.03591-3.2e-4 -0.01185-1.54e-4 -0.02392-3.2e-4 -0.03576-6.11e-4 -0.01184-4.65e-4 -0.02392-7.55e-4 -0.03576-0.0012-0.01184-4.65e-4 -0.02377-0.0011-0.03561-0.0016-0.01185-6.1e-4 -0.02361-0.0012-0.03546-2e-3 -0.01185-7.56e-4 -0.02361-0.0016-0.0353-0.0025-0.01185-8.96e-4 -0.02361-0.0018-0.0353-0.0028-0.66858-0.059966-1.2711-0.35815-1.7215-0.80853-0.41862-0.41862-0.70588-0.96907-0.79226-1.5816v-1.539e-4c-0.0033-0.022996-0.0063-0.0463-9e-3 -0.069527-0.0027-0.023305-5e-3 -0.046531-0.0071-0.070142-0.0011-0.011691-2e-3 -0.023459-3e-3 -0.035147-8.95e-4 -0.011843-0.0018-0.023613-0.0025-0.035456-7.55e-4 -0.011692-0.0014-0.023613-2e-3 -0.035455-6.1e-4 -0.011843-0.0012-0.023764-0.0016-0.03561-4.66e-4 -0.011846-7.57e-4 -0.023767-0.0011-0.035763-3.2e-4 -0.011843-6.1e-4 -0.023764-7.56e-4 -0.035763-1.54e-4 -0.011996-1.54e-4 -0.023918-1.54e-4 -0.035917 0-0.76749 0.3138-1.4651 0.8194-1.9708 0.50556-0.50546 1.2031-0.81933 1.9706-0.81933z" fill="#2e3440" filter="url(#filter11787)" stroke-width=".07691" style="mix-blend-mode:normal"/>
 <rect x=".01215" y=".0060174" width="16.924" height="16.927" fill="none" opacity=".15" stroke-linecap="round" stroke-linejoin="round" stroke-width="1.052"/>
 <path transform="matrix(.90047 0 0 .90047 24.644 8.9492)" d="m-16.08-6.2923h0.04999c0.65374 0 1.2482 0.26757 1.6793 0.69865 0.43108 0.43108 0.69865 1.0256 0.69865 1.6793 0 0.010229 0 0.020459-1.54e-4 0.030457-1.54e-4 0.01023-3.2e-4 0.020458-6.1e-4 0.03061-3.19e-4 0.010075-6.1e-4 0.020305-8.96e-4 0.03038-4.65e-4 0.010075-8.96e-4 0.020305-0.0014 0.03038-6.1e-4 0.010075-0.0012 0.020151-0.0018 0.030226-6.1e-4 0.010075-0.0014 0.020151-2e-3 0.030226-7.56e-4 0.00992-0.0016 0.019997-0.0025 0.029918v1.537e-4c-0.0027 0.029918-0.0059 0.059759-0.0096 0.08937-0.06857 0.53368-0.31592 1.0137-0.67978 1.3775-0.38394 0.38394-0.8977 0.63843-1.467 0.68935-0.0099 9.282e-4 -0.02 0.00177-0.02992 0.00253h-1.53e-4c-0.0099 7.559e-4 -0.02 0.00154-0.03007 0.00206-0.01007 7.558e-4 -0.02015 0.00122-0.03022 0.00177h-1.54e-4c-0.0099 4.651e-4 -0.02015 9.282e-4 -0.03022 0.00139-0.01023 4.651e-4 -0.02031 7.558e-4 -0.03038 9.282e-4h-1.54e-4c-0.01007 3.198e-4 -0.02031 4.651e-4 -0.03046 6.104e-4 -0.01007 1.538e-4 -0.02031 3.198e-4 -0.03046 3.198e-4h-0.04999c-0.65343 0-1.248-0.2678-1.6793-0.69896-0.43109-0.43107-0.69881-1.0255-0.69881-1.6791 0-0.65374 0.26757-1.2483 0.69866-1.6793 0.43124-0.43116 1.0256-0.69873 1.6795-0.69873zm0.05007-0.41201h-3.8707c-0.76749 0-1.4651 0.31387-1.9707 0.8194-0.50561 0.50561-0.8194 1.2032-0.8194 1.9707s0.31387 1.4649 0.81948 1.9705c0.50561 0.50561 1.2033 0.81956 1.9706 0.81956h3.8706c0.012 0 0.02392-1.54e-4 0.03591-3.2e-4 0.01185-1.54e-4 0.02392-3.2e-4 0.03576-6.11e-4 0.01184-4.65e-4 0.02392-7.55e-4 0.03576-0.0012 0.01184-4.65e-4 0.02377-0.0011 0.03561-0.0016 0.01185-6.1e-4 0.02361-0.0012 0.03546-2e-3 0.01185-7.56e-4 0.02361-0.0016 0.0353-0.0025 0.01185-8.96e-4 0.02361-0.0018 0.0353-0.0028 0.66858-0.059966 1.2711-0.35815 1.7215-0.80853 0.41862-0.41862 0.70588-0.96907 0.79226-1.5816v-1.538e-4c0.0033-0.022996 0.0063-0.0463 9e-3 -0.069527 0.0027-0.023305 5e-3 -0.046531 0.0071-0.070142 0.0011-0.011691 2e-3 -0.023459 3e-3 -0.035147 8.95e-4 -0.011843 0.0018-0.023613 0.0025-0.035456 7.55e-4 -0.011692 0.0014-0.023613 2e-3 -0.035455 6.1e-4 -0.011843 0.0012-0.023764 0.0016-0.03561 4.66e-4 -0.011846 7.57e-4 -0.023767 0.0011-0.035763 3.2e-4 -0.011843 6.1e-4 -0.023764 7.56e-4 -0.035763 1.54e-4 -0.011996 1.54e-4 -0.023918 1.54e-4 -0.035917 0-0.76749-0.3138-1.4651-0.8194-1.9708-0.50556-0.50546-1.2031-0.81933-1.9706-0.81933z" fill="#2e3440" filter="url(#filter11783)" stroke-width=".07691" style="mix-blend-mode:normal"/>
 <ellipse cx="10.189" cy="5.2736" rx="2.2399" ry="2.2071" fill="#eceff4" stroke-linecap="round" stroke-linejoin="round" stroke-width="2.7353"/>
 <path d="m10.164 3.1506h0.04501c0.58867 0 1.124 0.24094 1.5121 0.62912 0.38818 0.38818 0.62912 0.92352 0.62912 1.5122 0 0.00921 0 0.018423-1.38e-4 0.027426-1.39e-4 0.00921-2.89e-4 0.018422-5.5e-4 0.027563-2.87e-4 0.00907-5.49e-4 0.018284-8.06e-4 0.027356-4.19e-4 0.00907-8.07e-4 0.018284-0.0013 0.027356-5.49e-4 0.00907-0.0011 0.018145-0.0016 0.027218-5.49e-4 0.00907-0.0013 0.018145-0.0018 0.027218-6.81e-4 0.00893-0.0014 0.018007-0.0023 0.02694v1.384e-4c-0.0024 0.02694-0.0053 0.053811-0.0086 0.080475-0.06175 0.48056-0.28448 0.91279-0.61213 1.2404-0.34572 0.34572-0.80835 0.57489-1.321 0.62074-0.0089 8.358e-4 -0.01801 0.00159-0.02694 0.00228h-1.38e-4c-0.0089 6.806e-4 -0.01801 0.00139-0.02708 0.00185-0.0091 6.806e-4 -0.01814 0.0011-0.02721 0.00159h-1.39e-4c-0.0089 4.188e-4 -0.01814 8.358e-4 -0.02721 0.00125-0.0092 4.188e-4 -0.01829 6.806e-4 -0.02736 8.358e-4h-1.39e-4c-0.0091 2.88e-4 -0.01829 4.188e-4 -0.02743 5.497e-4 -0.0091 1.385e-4 -0.01829 2.879e-4 -0.02743 2.879e-4h-0.04501c-0.5884 0-1.1238-0.24115-1.5121-0.62939-0.38818-0.38817-0.62926-0.92345-0.62926-1.512 0-0.58867 0.24094-1.124 0.62912-1.5122 0.38834-0.38824 0.92355-0.62918 1.5124-0.62918zm0.04509-0.371h-3.4854c-0.6911 0-1.3192 0.28263-1.7745 0.73785-0.45529 0.45529-0.73786 1.0834-0.73786 1.7745s0.28263 1.3191 0.73792 1.7744c0.45529 0.45529 1.0835 0.73799 1.7745 0.73799h3.4854c0.01081 0 0.02154-1.387e-4 0.03234-2.881e-4 0.01067-1.387e-4 0.02154-2.882e-4 0.0322-5.502e-4 0.01066-4.188e-4 0.02154-6.799e-4 0.0322-0.00108 0.01066-4.187e-4 0.0214-9.905e-4 0.03207-0.00144 0.01067-5.492e-4 0.02126-0.00108 0.03193-0.0018 0.01067-6.808e-4 0.02126-0.00144 0.03179-0.00225 0.01067-8.068e-4 0.02126-0.00162 0.03179-0.00252 0.60202-0.054002 1.1446-0.32251 1.5501-0.72807 0.37696-0.37696 0.63563-0.87262 0.7134-1.4242v-1.385e-4c3e-3 -0.020707 0.0057-0.041692 0.0081-0.062607 0.0024-0.020986 0.0045-0.0419 0.0064-0.063161 9.91e-4 -0.010527 0.0018-0.021124 0.0027-0.031649 8.06e-4 -0.010664 0.0016-0.021263 0.0023-0.031927 6.8e-4 -0.010528 0.0013-0.021263 0.0018-0.031926 5.49e-4 -0.010664 0.0011-0.021399 0.0014-0.032066 4.19e-4 -0.010667 6.81e-4 -0.021401 9.9e-4 -0.032204 2.88e-4 -0.010664 5.5e-4 -0.021399 6.81e-4 -0.032204 1.39e-4 -0.010802 1.39e-4 -0.021537 1.39e-4 -0.032342 0-0.6911-0.28256-1.3192-0.73785-1.7746-0.45525-0.45515-1.0834-0.73778-1.7744-0.73778z" fill="#5e81ac" stroke-width=".069256"/>
 <ellipse cx="6.6768" cy="11.471" rx="2.2399" ry="2.2071" fill="#eceff4" stroke-linecap="round" stroke-linejoin="round" stroke-width="2.7353"/>
 <path d="m6.7689 9.345h-0.045015c-0.58867 0-1.1239 0.24094-1.5121 0.62912-0.38818 0.38818-0.62912 0.92352-0.62912 1.5122 0 0.0092 0 0.01842 1.387e-4 0.02742 1.387e-4 0.0092 2.881e-4 0.01842 5.493e-4 0.02756 2.872e-4 0.0091 5.493e-4 0.01828 8.068e-4 0.02736 4.187e-4 0.0091 8.068e-4 0.01828 0.00126 0.02736 5.493e-4 0.0091 0.00108 0.01814 0.00162 0.02722 5.493e-4 0.0091 0.00126 0.01815 0.0018 0.02722 6.808e-4 0.0089 0.00144 0.01801 0.00225 0.02694v1.38e-4c0.00243 0.02694 0.00531 0.05381 0.00864 0.08048 0.061745 0.48056 0.28448 0.91279 0.61213 1.2404 0.34572 0.34572 0.80835 0.57489 1.321 0.62074 0.00891 8.36e-4 0.018009 0.0016 0.026942 0.0023h1.377e-4c0.00891 6.8e-4 0.01801 0.0014 0.027077 0.0019 0.00907 6.8e-4 0.018145 0.0011 0.027212 0.0016h1.386e-4c0.00891 4.18e-4 0.018145 8.35e-4 0.027212 0.0013 0.00921 4.19e-4 0.018288 6.81e-4 0.027356 8.36e-4h1.387e-4c0.00907 2.88e-4 0.018288 4.19e-4 0.027428 5.5e-4 0.00907 1.38e-4 0.018289 2.88e-4 0.027428 2.88e-4h0.045014c0.58839 0 1.1238-0.24115 1.5121-0.6294 0.38818-0.38817 0.62926-0.92345 0.62926-1.512 0-0.58867-0.24094-1.124-0.62912-1.5122-0.38831-0.38838-0.92351-0.62932-1.5123-0.62932zm-0.045087-0.371h3.4854c0.6911 0 1.3193 0.28263 1.7745 0.73785 0.45529 0.45529 0.73785 1.0834 0.73785 1.7745s-0.28263 1.3191-0.73792 1.7744c-0.45529 0.45529-1.0835 0.73799-1.7745 0.73799h-3.4854c-0.010806 0-0.021539-1.38e-4 -0.032336-2.88e-4 -0.010671-1.39e-4 -0.021539-2.88e-4 -0.032201-5.5e-4 -0.010662-4.19e-4 -0.021539-6.8e-4 -0.032201-0.0011-0.010662-4.18e-4 -0.021404-9.9e-4 -0.032066-0.0014-0.010671-5.5e-4 -0.02126-0.0011-0.031931-0.0018-0.01067-6.81e-4 -0.02126-0.0014-0.031787-0.0023-0.010671-8.06e-4 -0.02126-0.0016-0.031787-0.0025-0.60204-0.053992-1.1446-0.3225-1.5501-0.72806-0.37696-0.37696-0.63563-0.87262-0.7134-1.4242v-1.39e-4c-0.00297-0.02071-0.00567-0.04169-0.0081-0.06261-0.00243-0.02098-0.0045-0.0419-0.00639-0.06316-9.905e-4 -0.01053-0.0018-0.02112-0.0027-0.03165-8.059e-4 -0.01066-0.00162-0.02126-0.00225-0.03193-6.799e-4 -0.01053-0.00126-0.02126-0.0018-0.03193-5.493e-4 -0.01066-0.00108-0.0214-0.00144-0.03207-4.197e-4 -0.01067-6.817e-4 -0.0214-9.906e-4 -0.0322-2.881e-4 -0.01066-5.492e-4 -0.0214-6.807e-4 -0.0322-1.387e-4 -0.0108-1.387e-4 -0.02154-1.387e-4 -0.03234 0-0.6911 0.28256-1.3192 0.73785-1.7746 0.45523-0.45514 1.0834-0.73778 1.7744-0.73778z" fill="#4c566a" stroke-width=".069256"/>
</svg>
