<svg width="64" height="64" version="1.1" viewBox="0 0 16.933 16.933" xmlns="http://www.w3.org/2000/svg">
 <defs>
  <linearGradient id="linearGradient1340" x1="8.5011" x2="8.489" y1="16.007" y2=".79375" gradientUnits="userSpaceOnUse">
   <stop stop-color="#2e3440" offset="0"/>
   <stop stop-color="#4c566a" offset="1"/>
  </linearGradient>
  <linearGradient id="linearGradient2492" x1="12.255" x2="20.264" y1="14.821" y2="8.1485" gradientTransform="matrix(-.34595 -.0043384 -.020328 .30302 17.079 1.5737)" gradientUnits="userSpaceOnUse">
   <stop stop-color="#eceff4" offset="0"/>
   <stop stop-color="#eeeeec" stop-opacity="0" offset="1"/>
  </linearGradient>
  <linearGradient id="linearGradient2498" x1="21.664" x2="29" y1="-.02548" y2="15.225" gradientTransform="matrix(.26458 0 0 .26458 41.099 6.0117)" gradientUnits="userSpaceOnUse">
   <stop stop-color="#eeeeec" offset="0"/>
   <stop stop-color="#eeeeec" stop-opacity="0" offset="1"/>
  </linearGradient>
  <linearGradient id="linearGradient2532" x1="12.9" x2="18.573" y1="12.908" y2="9.7131" gradientTransform="matrix(.34595 -.0043384 .020328 .30302 -.14582 1.5863)" gradientUnits="userSpaceOnUse">
   <stop stop-color="#eceff4" offset="0"/>
   <stop stop-color="#eeeeec" stop-opacity="0" offset="1"/>
  </linearGradient>
  <linearGradient id="linearGradient2562" x1="23.906" x2="24.746" y1="6.0466" y2="21.636" gradientTransform="matrix(.34712 .017654 -.018714 .32746 .081177 1.4066)" gradientUnits="userSpaceOnUse">
   <stop stop-color="#eceff4" offset="0"/>
   <stop stop-color="#eeeeec" stop-opacity="0" offset="1"/>
  </linearGradient>
  <linearGradient id="linearGradient7089" x1="6.7197" x2="9.7903" y1="12.05" y2="12.04" gradientUnits="userSpaceOnUse">
   <stop stop-color="#2e3440" stop-opacity=".7" offset="0"/>
   <stop stop-color="#eac57b" stop-opacity="0" offset=".48109"/>
   <stop stop-color="#2e3440" stop-opacity=".7" offset="1"/>
  </linearGradient>
  <linearGradient id="linearGradient8434" x1="8.3257" x2="8.2967" y1="7.8773" y2="9.6645" gradientUnits="userSpaceOnUse">
   <stop stop-color="#2e3440" stop-opacity=".5" offset="0"/>
   <stop stop-color="#2e3440" stop-opacity="0" offset="1"/>
  </linearGradient>
  <filter id="filter1178-3" x="-.047999" y="-.047999" width="1.096" height="1.096" color-interpolation-filters="sRGB">
   <feGaussianBlur stdDeviation="0.30691668"/>
  </filter>
 </defs>
 <g transform="translate(-.00025546 -.11386)">
  <rect transform="matrix(.99138 0 0 1 .072989 .0019055)" x=".79375" y=".90545" width="15.346" height="15.346" rx="3.0526" ry="3.0526" fill="#000000" filter="url(#filter1178-3)" opacity=".15" stroke-linecap="round" stroke-linejoin="round" stroke-width="1.2489" style="mix-blend-mode:normal"/>
 </g>
 <g stroke-linecap="round" stroke-linejoin="round">
  <rect x=".92604" y=".92604" width="15.081" height="15.081" rx="3" ry="3" fill="url(#linearGradient1340)" stroke-width="1.2274"/>
  <rect x=".01215" y=".0060174" width="16.924" height="16.927" fill="none" opacity=".15" stroke-width="1.052"/>
  <path d="m3.926 2.5135h9.081c1.662 0 3 1.338 3 3v3.2603c-0.01754 1.0344-0.80422 1.0583-0.80422 1.0583h-13.454s-0.81346 0.020143-0.82322-1.0583v-3.2603c0-1.662 1.338-3 3-3z" fill="#7b88a1" stroke-width="1.2274"/>
  <path d="m3.926 0.92604h9.081c1.662 0 3 1.338 3 3v3.2603c-0.01754 1.0344-0.80422 1.0583-0.80422 1.0583h-13.454s-0.81346 0.020143-0.82322-1.0583v-3.2603c0-1.662 1.338-3 3-3z" fill="#a6aebf" stroke-width="1.2274"/>
 </g>
 <path d="m3.9023 9.8668 1.3838-1.4494-0.51926 1.4494z" fill="#4c566a"/>
 <path d="m11.819 8.6612-0.58148-1.2272 0.81082 0.79816z" fill="#7b88a1"/>
 <path d="m11.237 7.434 0.58148 1.2272-0.81467-0.42361z" fill="#7b88a1" opacity=".5"/>
 <g stroke-linecap="round" stroke-linejoin="round" stroke-width="2.6806">
  <path d="m6.789 8.9786c1.6231-0.66836 2.9495 0 2.9495 0v6.3097s-1.4405 1.4505-2.9495 0z" fill="#ebcb8b"/>
  <path d="m6.789 8.9786c1.6231-0.66836 2.9495 0 2.9495 0v6.3097s-1.4405 1.4505-2.9495 0z" fill="#2e3440" opacity=".25"/>
  <path d="m6.789 8.8068c1.6231-0.66836 2.9495 0 2.9495 0v6.3097s-1.4405 1.4505-2.9495 0z" fill="#eac57b"/>
 </g>
 <g fill-rule="evenodd">
  <path d="m8.422 2.539-0.18292 0.1549c-0.16136 0.13665-0.55395 0.37521-0.81638 0.76924-0.16545 0.24841-0.22062 0.58721-0.19658 0.96497-0.44407 0.12558-0.80434 0.31213-1.0337 0.57346-0.38407 0.43769-0.55622 0.95025-0.83477 1.2814l-0.23333 0.27549 0.37057-0.011943c0.63062-0.02067 1.3118-0.0031008 1.9455-0.15763 0.16457-0.040129 0.31583-0.10466 0.4673-0.18149-0.18024-0.11549-0.29245-0.23333-0.36212-0.3263-0.0014453-0.001892-0.19384 0.092126-0.30049 0.11813-0.46434 0.11323-0.68592 0.0065695-1.2088 0.020628 0.21132-0.33414 0.17613-0.52363 0.42704-0.80957 0.1905-0.21709 0.64965-0.35175 1.0615-0.48994 0.41187-0.13819 1.0242-0.063668 1.1015-0.046612l-0.013244-0.33935c-0.10206-0.023106-0.21744-0.041846-0.34537-0.048353-0.38378-0.019518-0.59959 0.069995-0.62475 0.081117-0.014676-0.29241 0.053489-0.54431 0.18371-0.73984 0.16273-0.24433 0.54397-0.41204 0.59039-0.4318 0.18328 0.27378 0.35139 0.34151 0.47534 0.62968 0.075142 0.1747 0.21483 0.43688 0.015701 1.0579-0.12403 0.38678-0.28366 0.48065-0.44671 0.58279l0.3023 0.23089c0.097478-0.065384 0.20861-0.15796 0.29841-0.27218 0.22541-0.28669 0.2097-0.54382 0.2069-0.57446 0 0 0.42488 0.32379 0.59934 0.55388 0.22625 0.29841 0.30905 0.49278 0.51905 0.81663-0.46598-0.028533-0.7694 0.078386-1.2686-0.074779-0.13499-0.041419-0.41631-0.21146-0.75065-0.50043s-0.49995-0.46704-0.58671-0.65544l-0.43008 0.10128c0.00499 0.012035 0.50204 0.87928 1.0005 1.1058 0.49848 0.22648 2.1127 0.38673 2.6334 0.41321l0.42306 0.021515-0.2771-0.29119c-0.28971-0.30444-0.51214-0.69473-0.85889-1.1521-0.20676-0.2727-0.54733-0.48701-0.97433-0.65506 0 0 0.044962-0.48256-0.10332-0.85707-0.15893-0.40139-0.54415-0.64108-0.67591-0.92724z" fill="url(#linearGradient2562)"/>
  <path d="m9.4076 2.8612c0.44344 0.56793 1.5487 1.1686 2.0968 1.3247 0.0095 0.00271 0.02328-0.00204 0.03243 4.067e-4 0.0024-1.138e-4 0.0084 2.696e-4 0.01077 1.355e-4 0.13827-0.00791 0.28165-0.055908 0.45405-0.15542 0.50501-0.29149 0.29977-0.21388 0.85086-0.42529 0.0058-0.00221 0.01629-0.00719 0.02226-0.0092 0.34596-0.10869 1.0382 0.10038 1.1593 0.13774-0.11732 0.014551-0.61241 0.094715-0.95707 0.39552-0.0022 0.00192-0.0092 0.00745-0.01143 0.00933-0.0022 0.00187-0.0091 0.0075-0.01143 0.00933-0.10084 0.075811-0.25561 0.13084-0.43307 0.16516 0.2673 0.019634 0.54597 0.04912 0.83754 0.095799 0.54429 0.087135 0.88103 0.27629 1.036 0.52476 0.15496 0.24848 0.10388 0.55272-0.10488 0.75687-0.60582 0.59244-2.2261 0.28852-2.2195-0.30267 3.47e-4 -0.010064 0.0013-0.027654 0.0025-0.037877 2e-3 -0.012837 0.01051-0.03414 0.01399-0.047211 0.0038-0.013126 0.0085-0.033866 0.01399-0.047211 0.0022-0.00536 0.0096-0.013411 0.01209-0.018803 0.32158-0.67928 1.1008-0.2698 1.3609 0.03602-0.27966-0.16394-0.66925-0.19545-0.80575-0.085922-0.0026 0.00219-0.0091 0.00702-0.01143 0.00933-0.0034 0.00355-0.0091 0.015001-0.01209 0.018803-8.7e-4 0.00133-0.01064 0.00798-0.01143 0.00933-7.65e-4 0.00139 8.3e-5 0.00807-6.26e-4 0.00947-6.61e-4 0.00142-3e-5 8e-3 -6.25e-4 0.00947-0.0016 0.00447-0.0109 0.014078-0.01209 0.018803-3.13e-4 0.0016-3.82e-4 0.00784-6.25e-4 0.00947-1.9e-4 0.00167-5.22e-4 0.00778-6.27e-4 0.00947-6.4e-5 0.00171-6.25e-4 0.00773-6.25e-4 0.00947-4.52e-4 0.48839 1.3013 0.49467 1.4131 0.065106 0.02716-0.10437 0.02523-0.19404 7e-3 -0.26528-0.0021-0.00753-0.0063-0.021351-0.0089-0.028543-0.0028-0.00708-0.0058-0.021773-0.0089-0.028543-0.0022-0.00444-0.0071-0.014764-0.0096-0.019074-0.10975-0.1868-0.40474-0.24982-0.73708-0.30303-0.68089-0.109-1.4086-0.0025256-2.0077-0.072563-0.9064-0.10596-1.3071-0.23106-1.803-0.86609z" fill="url(#linearGradient2492)"/>
  <path d="m7.5255 2.8738c-0.44344 0.56793-1.5487 1.1686-2.0968 1.3247-0.00946 0.00271-0.023282-0.00204-0.03244 4.068e-4 -0.00237-1.138e-4 -0.00841 2.695e-4 -0.010774 1.355e-4 -0.13827-0.0079097-0.28165-0.055908-0.45405-0.15542-0.50501-0.29149-0.29977-0.21388-0.85086-0.42529-0.00578-0.00221-0.016292-0.00719-0.022257-0.0092-0.34596-0.10869-1.0382 0.10038-1.1593 0.13774 0.11732 0.014553 0.61241 0.094715 0.95707 0.39552 0.00223 0.00192 0.0092 0.00745 0.011431 0.00933 0.00223 0.00187 0.00907 0.0075 0.011431 0.00933 0.10084 0.075811 0.25561 0.13084 0.43307 0.16516-0.2673 0.019634-0.54597 0.049121-0.83754 0.095799-0.54429 0.087135-0.88103 0.27629-1.036 0.52477-0.15496 0.24848-0.10388 0.55272 0.10488 0.75687 0.60582 0.59244 2.2261 0.28852 2.2195-0.30267-3.469e-4 -0.010064-0.00125-0.027654-0.0025-0.037877-0.00197-0.012837-0.010511-0.03414-0.013993-0.047211-0.00381-0.013126-0.00854-0.033866-0.013993-0.047211-0.00223-0.00536-0.00959-0.013411-0.012088-0.018803-0.32158-0.67928-1.1008-0.2698-1.3609 0.03602 0.27966-0.16394 0.66925-0.19545 0.80575-0.085922 0.00263 0.00219 0.00907 0.00702 0.011431 0.00933 0.00342 0.00355 0.00907 0.015001 0.012088 0.018803 8.685e-4 0.00133 0.010643 0.00798 0.011431 0.00933 7.647e-4 0.00139-8.28e-5 0.00807 6.254e-4 0.00947 6.609e-4 0.00142 3.02e-5 8e-3 6.254e-4 0.00947 0.00158 0.00447 0.010905 0.014078 0.012088 0.018803 3.127e-4 0.0016 3.823e-4 0.00784 6.254e-4 0.00947 1.892e-4 0.00167 5.216e-4 0.00778 6.267e-4 0.00947 6.44e-5 0.00171 6.254e-4 0.00773 6.254e-4 0.00947 4.52e-4 0.48839-1.3013 0.49467-1.4131 0.065106-0.027158-0.10437-0.02524-0.19404-0.00696-0.26528 0.0021-0.00753 0.00631-0.021348 0.00893-0.028543 0.00276-0.00708 0.00578-0.021773 0.00893-0.028543 0.00223-0.00444 0.0071-0.014764 0.00959-0.019074 0.10976-0.1868 0.40475-0.24982 0.73709-0.30302 0.68089-0.109 1.4086-0.0025227 2.0077-0.072563 0.9064-0.10596 1.3071-0.23106 1.803-0.86609z" fill="url(#linearGradient2532)"/>
 </g>
 <path d="m45.426 9.8015c0.43607-0.61489 0.43607-1.6732 2.0235-1.6732 1.5875 0 1.5875 1.0583 2.1166 1.5875-0.79374 0-2.1166 0-2.6458-1.0583-0.52916-1.0583 0.26458-1.5875 0.52916-1.852 0.26458 0.52916 1.0583 0.79373 0.52916 1.852s-1.5875 1.0583-2.5527 1.144z" display="none" fill="none" stroke="url(#linearGradient2498)" stroke-width=".26458px"/>
 <path d="m6.789 13.086v1.1361l2.9495-1.7086v-0.96831z" fill="#bf616a" stroke="#2e3440" stroke-width=".006879"/>
 <path d="m6.789 10.904v1.1494l2.9495 1.0839v-1.0948z" fill="#bf616a" stroke="#2e3440" stroke-width=".011906"/>
 <path d="m6.789 8.8068c1.6231-0.66836 2.9495 0 2.9495 0v6.3097s-1.4405 1.4505-2.9495 0z" fill="url(#linearGradient7089)" stroke-linecap="round" stroke-linejoin="round" stroke-width="2.6806"/>
 <path d="m6.789 8.8068c1.6231-0.66836 2.9495 0 2.9495 0v6.3097s-1.4405 1.4505-2.9495 0z" fill="url(#linearGradient8434)" stroke-linecap="round" stroke-linejoin="round" stroke-width="2.6806"/>
</svg>
