<?xml version="1.0" encoding="UTF-8"?>
<svg width="64" height="64" version="1.1" viewBox="0 0 16.933 16.933" xmlns="http://www.w3.org/2000/svg" xmlns:xlink="http://www.w3.org/1999/xlink">
 <defs>
  <linearGradient id="linearGradient1340" x1="8.5011" x2="8.489" y1="16.007" y2=".79375" gradientUnits="userSpaceOnUse">
   <stop stop-color="#2e3440" offset="0"/>
   <stop stop-color="#4c566a" offset="1"/>
  </linearGradient>
  <filter id="filter1178-3" x="-.047999" y="-.047999" width="1.096" height="1.096" color-interpolation-filters="sRGB">
   <feGaussianBlur stdDeviation="0.30691668"/>
  </filter>
  <filter id="filter2349" x="-.080897" y="-.081108" width="1.1618" height="1.1622" color-interpolation-filters="sRGB">
   <feGaussianBlur stdDeviation="0.36468779"/>
  </filter>
  <linearGradient id="linearGradient1590" x1="9.152" x2="9.152" y1="9.539" y2="16.475" gradientTransform="matrix(5.3417,-2.6341,2.8166,5.728,-49.812,-4.6569)" gradientUnits="userSpaceOnUse">
   <stop stop-color="#ebcb8b" offset="0"/>
   <stop stop-color="#eac57b" offset="1"/>
  </linearGradient>
  <linearGradient id="linearGradient2712" x1="9.152" x2="9.152" y1="9.539" y2="16.475" gradientTransform="matrix(5.3417 -2.6341 2.8166 5.728 -49.813 -7.0581)" gradientUnits="userSpaceOnUse" xlink:href="#linearGradient1590"/>
  <linearGradient id="linearGradient2714" x1="9.152" x2="9.152" y1="9.539" y2="16.475" gradientTransform="matrix(5.3417 -2.6341 2.8166 5.728 -49.813 -7.0581)" gradientUnits="userSpaceOnUse" xlink:href="#linearGradient1590">
   <stop stop-color="#4c566a" offset="0"/>
   <stop stop-color="#2e3440" offset="1"/>
  </linearGradient>
  <linearGradient id="linearGradient2" x1="10.855" x2="10.855" y1="13.775" y2="3.1053" gradientUnits="userSpaceOnUse">
   <stop stop-color="#97b67c" offset="0"/>
   <stop stop-color="#a3be8c" offset="1"/>
  </linearGradient>
  <linearGradient id="linearGradient4" x1="11.121" x2="11.121" y1="13.775" y2="3.238" gradientUnits="userSpaceOnUse">
   <stop stop-color="#2e3440" offset="0"/>
   <stop stop-color="#2e3440" stop-opacity="0" offset="1"/>
  </linearGradient>
 </defs>
 <g transform="translate(-.00025546 -.11386)">
  <rect transform="matrix(.99138 0 0 1 .072989 .0019055)" x=".79375" y=".90545" width="15.346" height="15.346" rx="3.0526" ry="3.0526" fill="#2e3440" filter="url(#filter1178-3)" opacity=".15" stroke-linecap="round" stroke-linejoin="round" stroke-width="1.2489" style="mix-blend-mode:normal"/>
 </g>
 <rect x=".92604" y=".92604" width="15.081" height="15.081" rx="3" ry="3" fill="url(#linearGradient1340)" stroke-linecap="round" stroke-linejoin="round" stroke-width="1.2274"/>
 <rect x=".01215" y=".0060174" width="16.924" height="16.927" fill="none" opacity=".15" stroke-linecap="round" stroke-linejoin="round" stroke-width="1.052"/>
 <g transform="matrix(1.0386 0 0 .99716 -.09181 .65952)" filter="url(#filter2349)" opacity=".4" stroke-width=".72129">
  <path d="m3.0568 8.5088 1.7441-2.5527h2.4569s1.6933 2.5386 1.6764 2.5752c-0.016905 0.039446-1.6652 2.4738-1.6652 2.4738h-2.471z"/>
  <path d="m7.9988 5.6659c-0.036628-0.10988 1.6088-2.595 1.6088-2.595h2.6428s1.6173 2.3893 1.6257 2.4653c0.0056 0.076074-1.6314 2.5978-1.6314 2.5978l-2.5865 0.014088s-1.6229-2.3808-1.6595-2.4823z"/>
  <path d="m7.8523 11.323 1.7722-2.4935h2.5555s1.7384 2.5132 1.6905 2.5978c-0.04508 0.07889-1.7018 2.4344-1.7018 2.4344l-2.5301-0.0028z"/>
 </g>
 <path d="m9.6075 3.0711s-1.6453 2.4847-1.6087 2.5946c0.036628 0.10143 1.6593 2.4825 1.6593 2.4825l2.5869-0.013951s1.637-2.5216 1.6314-2.5977c-0.0085-0.076074-1.6257-2.4654-1.6257-2.4654zm-4.8068 2.885-1.744 2.5528 1.7415 2.4964h2.4711s1.6481-2.4348 1.665-2.4742c0.016906-0.036628-1.6764-2.575-1.6764-2.575zm4.8239 2.8737-1.7725 2.4939 1.7864 2.5357 2.53 0.0026c-1e-6 0 1.6571-2.3555 1.7022-2.4344 0.0479-0.08453-1.6908-2.5977-1.6908-2.5977z" fill="url(#linearGradient2)" stroke-width=".72129"/>
 <path d="m9.6075 3.0711s-1.6453 2.4847-1.6087 2.5946c0.036628 0.10143 1.6593 2.4825 1.6593 2.4825l2.5869-0.013951s1.637-2.5216 1.6314-2.5977c-0.0085-0.076074-1.6257-2.4654-1.6257-2.4654zm-4.8068 2.885-1.744 2.5528 1.7415 2.4964h2.4711s1.6481-2.4348 1.665-2.4742c0.016906-0.036628-1.6764-2.575-1.6764-2.575zm4.8239 2.8737-1.7725 2.4939 1.7864 2.5357 2.53 0.0026c-1e-6 0 1.6571-2.3555 1.7022-2.4344 0.0479-0.08453-1.6908-2.5977-1.6908-2.5977z" fill="url(#linearGradient4)" opacity=".25" stroke-width=".72129"/>
 <g stroke-linecap="round" stroke-width="2.1462">
  <path transform="scale(.26458)" d="m49.209 38.029-7.0098 0.0039 5.7148 11.623c1.8563-2.6423 4.3933-6.2576 4.5117-6.4648 0.09222-0.16275-1.5658-2.7044-3.2168-5.1621zm-16.146 0.0059-3.3848 4.7637 6.752 9.584 3.7305 0.0039-7.0566-14.352zm-3.1816 2e-3 -5.877 2e-3 1.75 3.5566h1.7207s1.2661-1.871 2.4062-3.5586z" fill="url(#linearGradient2712)"/>
  <path transform="scale(.26458)" d="m42.199 38.033-9.0977 2e-3 7.0586 14.352 5.832 0.0059c-2e-6 0 1.1079-1.5777 1.9219-2.7363zm-18.195 0.0059-8.3477 0.0039 2.4785 3.5527h7.6191z" fill="url(#linearGradient2714)"/>
 </g>
</svg>
