<svg width="64" height="64" version="1.1" viewBox="0 0 16.933 16.933" xmlns="http://www.w3.org/2000/svg">
 <defs>
  <filter id="filter1178" x="-.047999" y="-.047999" width="1.096" height="1.096" color-interpolation-filters="sRGB">
   <feGaussianBlur stdDeviation="0.30691668"/>
  </filter>
  <linearGradient id="linearGradient1340" x1="8.355" x2="8.3996" y1="16.007" y2=".79375" gradientUnits="userSpaceOnUse">
   <stop stop-color="#2e3440" offset="0"/>
   <stop stop-color="#4c566a" offset="1"/>
  </linearGradient>
  <linearGradient id="m" x1="529.29" x2="543.34" y1="441.73" y2="408.6" gradientTransform="matrix(.09662 0 0 .09662 -27.875 -29.564)" gradientUnits="userSpaceOnUse">
   <stop stop-color="#ebcb8b" offset="0"/>
   <stop stop-color="#ebcb8b" offset="1"/>
  </linearGradient>
  <linearGradient id="k" x1="56" x2="0" y1="252" y2="244" gradientTransform="matrix(.09662 0 0 .09662 20.821 -14.298)" gradientUnits="userSpaceOnUse">
   <stop stop-color="#fff" offset="0"/>
   <stop stop-color="#fff" stop-opacity="0" offset="1"/>
  </linearGradient>
  <linearGradient id="j" x1="64" x2="80" y1="260" y2="220" gradientTransform="matrix(.09662 0 0 .09662 20.821 -14.298)" gradientUnits="userSpaceOnUse">
   <stop stop-color="#88c0d0" offset="0"/>
   <stop stop-color="#5e81ac" offset="1"/>
  </linearGradient>
  <linearGradient id="i" x1="32" x2="56" y1="239.25" y2="196" gradientTransform="matrix(.09662 0 0 .09662 20.821 -14.298)" gradientUnits="userSpaceOnUse">
   <stop stop-color="#dbc7c5" offset="0"/>
   <stop stop-color="#b48ead" offset="1"/>
  </linearGradient>
  <linearGradient id="linearGradient2994" x1="32.015" x2="28.145" y1="8.2103" y2="9.2475" gradientUnits="userSpaceOnUse">
   <stop stop-color="#8fbcbb" offset="0"/>
   <stop stop-color="#88c0d0" offset="1"/>
  </linearGradient>
  <linearGradient id="linearGradient3775" x1="24.721" x2="22.694" y1="9.6765" y2="13.187" gradientUnits="userSpaceOnUse">
   <stop stop-color="#2e3440" stop-opacity="0" offset="0"/>
   <stop stop-color="#eceff4" stop-opacity=".3" offset="1"/>
  </linearGradient>
  <filter id="filter923" x="-.11358" y="-.10295" width="1.2272" height="1.2059" color-interpolation-filters="sRGB">
   <feGaussianBlur stdDeviation="0.43898619"/>
  </filter>
 </defs>
 <g stroke-linecap="round" stroke-linejoin="round">
  <rect transform="matrix(.99138 0 0 1 .072989 .0019055)" x=".79375" y=".90545" width="15.346" height="15.346" rx="3.0526" ry="3.0526" fill="#000000" filter="url(#filter1178)" opacity=".15" stroke-width="1.2489" style="mix-blend-mode:normal"/>
  <rect x=".92604" y=".92604" width="15.081" height="15.081" rx="3" ry="3" fill="url(#linearGradient1340)" stroke-width="1.2274"/>
  <rect x=".01215" y=".0060174" width="16.924" height="16.927" fill="none" opacity=".15" stroke-width="1.052"/>
 </g>
 <g transform="matrix(.89643 0 0 .89643 -15.601 .92354)" fill="#2e3440" fill-rule="evenodd" filter="url(#filter923)" stroke-width=".09662">
  <path d="m24.336 6.8572a1.5461 1.5461 0 0 0-1.5823 1.5455v3.5701a1.5461 1.5461 0 0 0 2.3189 1.3389l3.0918-1.7853a1.5461 1.5461 0 0 0 0-2.6776l-3.0918-1.7849a1.5461 1.5461 0 0 0-0.73653-0.20667z" color="#000000" overflow="visible" solid-color="#000000" style="font-feature-settings:normal;font-variant-alternates:normal;font-variant-caps:normal;font-variant-ligatures:normal;font-variant-numeric:normal;font-variant-position:normal;isolation:auto;mix-blend-mode:normal;shape-padding:0;text-decoration-color:#000000;text-decoration-line:none;text-decoration-style:solid;text-indent:0;text-orientation:mixed;text-transform:none;white-space:normal"/>
  <path d="m24.336 3.2872a1.5461 1.5461 0 0 0-1.5823 1.5453v7.1402h3.0918v-4.4626l3.8648 2.2313 1.5459-2.6776-6.1836-3.5701a1.5461 1.5461 0 0 0-0.73653-0.20657z" color="#000000" overflow="visible" solid-color="#000000" style="font-feature-settings:normal;font-variant-alternates:normal;font-variant-caps:normal;font-variant-ligatures:normal;font-variant-numeric:normal;font-variant-position:normal;isolation:auto;mix-blend-mode:normal;shape-padding:0;text-decoration-color:#000000;text-decoration-line:none;text-decoration-style:solid;text-indent:0;text-orientation:mixed;text-transform:none;white-space:normal"/>
  <path d="m27.428 5.0722a1.5461 1.5461 0 0 0-1.5823 1.5453v3.5701a1.5461 1.5461 0 0 0 2.3189 1.3388l3.0918-1.7849a1.5461 1.5461 0 0 0 0-2.6776l-3.0918-1.785a1.5461 1.5461 0 0 0-0.73653-0.20657z" color="#000000" overflow="visible" solid-color="#000000" style="font-feature-settings:normal;font-variant-alternates:normal;font-variant-caps:normal;font-variant-ligatures:normal;font-variant-numeric:normal;font-variant-position:normal;isolation:auto;mix-blend-mode:normal;shape-padding:0;text-decoration-color:#000000;text-decoration-line:none;text-decoration-style:solid;text-indent:0;text-orientation:mixed;text-transform:none;white-space:normal"/>
  <path d="m22.755 8.3607c-0.0043 1.2039-6.77e-4 2.408-0.0019 3.6121-0.0143 0.77798 0.63808 1.4905 1.4156 1.5392 0.39266 0.04377 0.77025-0.10599 1.0966-0.31189 0.69334-0.55266 0.79131-1.7206 0.10947-2.3358-0.07672-0.10918-0.18976-0.16648-0.30725-0.23295-0.55608-0.32628-1.1218-0.63672-1.6712-0.97392-0.41092-0.29198-0.65866-0.79315-0.64136-1.2968z" color="#000000" overflow="visible" solid-color="#000000" style="font-feature-settings:normal;font-variant-alternates:normal;font-variant-caps:normal;font-variant-ligatures:normal;font-variant-numeric:normal;font-variant-position:normal;isolation:auto;mix-blend-mode:normal;shape-padding:0;text-decoration-color:#000000;text-decoration-line:none;text-decoration-style:solid;text-indent:0;text-orientation:mixed;text-transform:none;white-space:normal"/>
  <path d="m22.755 8.3607c-0.0043 1.2039-6.77e-4 2.408-0.0019 3.6121-0.0143 0.77798 0.63808 1.4905 1.4156 1.5392 0.39266 0.04377 0.77025-0.10599 1.0966-0.31189 0.69334-0.55266 0.79131-1.7206 0.10947-2.3358-0.07672-0.10918-0.18976-0.16648-0.30725-0.23295-0.55608-0.32628-1.1218-0.63672-1.6712-0.97392-0.41092-0.29198-0.65866-0.79315-0.64136-1.2968z" color="#000000" overflow="visible" solid-color="#000000" style="font-feature-settings:normal;font-variant-alternates:normal;font-variant-caps:normal;font-variant-ligatures:normal;font-variant-numeric:normal;font-variant-position:normal;isolation:auto;mix-blend-mode:normal;shape-padding:0;text-decoration-color:#000000;text-decoration-line:none;text-decoration-style:solid;text-indent:0;text-orientation:mixed;text-transform:none;white-space:normal"/>
  <path d="m22.755 4.8935c-0.0039 1.1697-4.83e-4 2.3395-0.0016 3.5092v3.5701a1.5461 1.5461 0 0 0 2.3189 1.3389l3.0918-1.7852a1.5461 1.5461 0 0 0 0-2.6775l-3.0919-1.785a1.5461 1.5461 0 0 0-0.11343-0.058165c-0.52097-0.30329-1.0485-0.59576-1.5621-0.91112-0.38493-0.27343-0.62677-0.73035-0.64155-1.2011z" color="#000000" opacity=".2" overflow="visible" solid-color="#000000" style="font-feature-settings:normal;font-variant-alternates:normal;font-variant-caps:normal;font-variant-ligatures:normal;font-variant-numeric:normal;font-variant-position:normal;isolation:auto;mix-blend-mode:normal;shape-padding:0;text-decoration-color:#000000;text-decoration-line:none;text-decoration-style:solid;text-indent:0;text-orientation:mixed;text-transform:none;white-space:normal"/>
  <path d="m28.127 11.541c1.0449-0.59817 2.0858-1.2035 3.1291-1.8045 0.68107-0.37653 0.97199-1.2978 0.62532-1.9955-0.15846-0.36194-0.47691-0.61411-0.81837-0.79373-0.82532-0.32416-1.8857 0.17498-2.0776 1.0731-0.05623 0.12097-0.04928 0.24754-0.04812 0.38261-0.0045 0.64465 0.0094 1.2899-0.0079 1.9341-0.04734 0.50184-0.35749 0.96697-0.80243 1.2039z" color="#000000" overflow="visible" solid-color="#000000" style="font-feature-settings:normal;font-variant-alternates:normal;font-variant-caps:normal;font-variant-ligatures:normal;font-variant-numeric:normal;font-variant-position:normal;isolation:auto;mix-blend-mode:normal;shape-padding:0;text-decoration-color:#000000;text-decoration-line:none;text-decoration-style:solid;text-indent:0;text-orientation:mixed;text-transform:none;white-space:normal"/>
  <path d="m32.015 8.2103a1.5461 1.5461 0 0 1-0.75943 1.1447l-6.1836 3.5701c-1.0306 0.59489-2.3188-0.14879-2.3189-1.3389v0.38648c9.6e-5 1.19 1.2882 1.9337 2.3189 1.339l6.1836-3.5702a1.5461 1.5461 0 0 0 0.75943-1.5312z" color="#000000" opacity=".2" overflow="visible" solid-color="#000000" style="font-feature-settings:normal;font-variant-alternates:normal;font-variant-caps:normal;font-variant-ligatures:normal;font-variant-numeric:normal;font-variant-position:normal;isolation:auto;mix-blend-mode:normal;shape-padding:0;text-decoration-color:#000000;text-decoration-line:none;text-decoration-style:solid;text-indent:0;text-orientation:mixed;text-transform:none;white-space:normal"/>
 </g>
 <g transform="matrix(.89643 0 0 .89643 -15.723 .70268)" fill-rule="evenodd" stroke-width=".09662">
  <path d="m24.336 6.8572a1.5461 1.5461 0 0 0-1.5823 1.5455v3.5701a1.5461 1.5461 0 0 0 2.3189 1.3389l3.0918-1.7853a1.5461 1.5461 0 0 0 0-2.6776l-3.0918-1.7849a1.5461 1.5461 0 0 0-0.73653-0.20667z" color="#000000" fill="#8fbcbb" overflow="visible" solid-color="#000000" style="font-feature-settings:normal;font-variant-alternates:normal;font-variant-caps:normal;font-variant-ligatures:normal;font-variant-numeric:normal;font-variant-position:normal;isolation:auto;mix-blend-mode:normal;shape-padding:0;text-decoration-color:#000000;text-decoration-line:none;text-decoration-style:solid;text-indent:0;text-orientation:mixed;text-transform:none;white-space:normal"/>
  <path d="m24.336 3.2872a1.5461 1.5461 0 0 0-1.5823 1.5453v7.1402h3.0918v-4.4626l3.8648 2.2313 1.5459-2.6776-6.1836-3.5701a1.5461 1.5461 0 0 0-0.73653-0.20657z" color="#000000" fill="url(#i)" overflow="visible" solid-color="#000000" style="font-feature-settings:normal;font-variant-alternates:normal;font-variant-caps:normal;font-variant-ligatures:normal;font-variant-numeric:normal;font-variant-position:normal;isolation:auto;mix-blend-mode:normal;shape-padding:0;text-decoration-color:#000000;text-decoration-line:none;text-decoration-style:solid;text-indent:0;text-orientation:mixed;text-transform:none;white-space:normal"/>
  <path d="m27.428 5.0722a1.5461 1.5461 0 0 0-1.5823 1.5453v3.5701a1.5461 1.5461 0 0 0 2.3189 1.3388l3.0918-1.7849a1.5461 1.5461 0 0 0 0-2.6776l-3.0918-1.785a1.5461 1.5461 0 0 0-0.73653-0.20657z" color="#000000" fill="url(#j)" overflow="visible" solid-color="#000000" style="font-feature-settings:normal;font-variant-alternates:normal;font-variant-caps:normal;font-variant-ligatures:normal;font-variant-numeric:normal;font-variant-position:normal;isolation:auto;mix-blend-mode:normal;shape-padding:0;text-decoration-color:#000000;text-decoration-line:none;text-decoration-style:solid;text-indent:0;text-orientation:mixed;text-transform:none;white-space:normal"/>
  <path d="m22.755 8.3607c-0.0043 1.2039-6.77e-4 2.408-0.0019 3.6121-0.0143 0.77798 0.63808 1.4905 1.4156 1.5392 0.39266 0.04377 0.77025-0.10599 1.0966-0.31189 0.69334-0.55266 0.79131-1.7206 0.10947-2.3358-0.07672-0.10918-0.18976-0.16648-0.30725-0.23295-0.55608-0.32628-1.1218-0.63672-1.6712-0.97392-0.41092-0.29198-0.65866-0.79315-0.64136-1.2968z" color="#000000" fill="url(#m)" overflow="visible" solid-color="#000000" style="font-feature-settings:normal;font-variant-alternates:normal;font-variant-caps:normal;font-variant-ligatures:normal;font-variant-numeric:normal;font-variant-position:normal;isolation:auto;mix-blend-mode:normal;shape-padding:0;text-decoration-color:#000000;text-decoration-line:none;text-decoration-style:solid;text-indent:0;text-orientation:mixed;text-transform:none;white-space:normal"/>
  <path d="m22.755 8.3607c-0.0043 1.2039-6.77e-4 2.408-0.0019 3.6121-0.0143 0.77798 0.63808 1.4905 1.4156 1.5392 0.39266 0.04377 0.77025-0.10599 1.0966-0.31189 0.69334-0.55266 0.79131-1.7206 0.10947-2.3358-0.07672-0.10918-0.18976-0.16648-0.30725-0.23295-0.55608-0.32628-1.1218-0.63672-1.6712-0.97392-0.41092-0.29198-0.65866-0.79315-0.64136-1.2968z" color="#000000" fill="url(#linearGradient3775)" overflow="visible" solid-color="#000000" style="font-feature-settings:normal;font-variant-alternates:normal;font-variant-caps:normal;font-variant-ligatures:normal;font-variant-numeric:normal;font-variant-position:normal;isolation:auto;mix-blend-mode:normal;shape-padding:0;text-decoration-color:#000000;text-decoration-line:none;text-decoration-style:solid;text-indent:0;text-orientation:mixed;text-transform:none;white-space:normal"/>
  <path d="m22.755 4.8935c-0.0039 1.1697-4.83e-4 2.3395-0.0016 3.5092v3.5701a1.5461 1.5461 0 0 0 2.3189 1.3389l3.0918-1.7852a1.5461 1.5461 0 0 0 0-2.6775l-3.0919-1.785a1.5461 1.5461 0 0 0-0.11343-0.058165c-0.52097-0.30329-1.0485-0.59576-1.5621-0.91112-0.38493-0.27343-0.62677-0.73035-0.64155-1.2011z" color="#000000" fill="url(#k)" opacity=".2" overflow="visible" solid-color="#000000" style="font-feature-settings:normal;font-variant-alternates:normal;font-variant-caps:normal;font-variant-ligatures:normal;font-variant-numeric:normal;font-variant-position:normal;isolation:auto;mix-blend-mode:normal;shape-padding:0;text-decoration-color:#000000;text-decoration-line:none;text-decoration-style:solid;text-indent:0;text-orientation:mixed;text-transform:none;white-space:normal"/>
  <path d="m28.127 11.541c1.0449-0.59817 2.0858-1.2035 3.1291-1.8045 0.68107-0.37653 0.97199-1.2978 0.62532-1.9955-0.15846-0.36194-0.47691-0.61411-0.81837-0.79373-0.82532-0.32416-1.8857 0.17498-2.0776 1.0731-0.05623 0.12097-0.04928 0.24754-0.04812 0.38261-0.0045 0.64465 0.0094 1.2899-0.0079 1.9341-0.04734 0.50184-0.35749 0.96697-0.80243 1.2039z" color="#000000" fill="url(#linearGradient2994)" overflow="visible" solid-color="#000000" style="font-feature-settings:normal;font-variant-alternates:normal;font-variant-caps:normal;font-variant-ligatures:normal;font-variant-numeric:normal;font-variant-position:normal;isolation:auto;mix-blend-mode:normal;shape-padding:0;text-decoration-color:#000000;text-decoration-line:none;text-decoration-style:solid;text-indent:0;text-orientation:mixed;text-transform:none;white-space:normal"/>
  <path d="m32.015 8.2103a1.5461 1.5461 0 0 1-0.75943 1.1447l-6.1836 3.5701c-1.0306 0.59489-2.3188-0.14879-2.3189-1.3389v0.38648c9.6e-5 1.19 1.2882 1.9337 2.3189 1.339l6.1836-3.5702a1.5461 1.5461 0 0 0 0.75943-1.5312z" color="#000000" fill="#2e3440" opacity=".2" overflow="visible" solid-color="#000000" style="font-feature-settings:normal;font-variant-alternates:normal;font-variant-caps:normal;font-variant-ligatures:normal;font-variant-numeric:normal;font-variant-position:normal;isolation:auto;mix-blend-mode:normal;shape-padding:0;text-decoration-color:#000000;text-decoration-line:none;text-decoration-style:solid;text-indent:0;text-orientation:mixed;text-transform:none;white-space:normal"/>
 </g>
</svg>
