<svg width="64" height="64" version="1.1" viewBox="0 0 16.933 16.933" xmlns="http://www.w3.org/2000/svg" xmlns:xlink="http://www.w3.org/1999/xlink">
 <defs>
  <linearGradient id="linearGradient1475">
   <stop stop-color="#2e3440" offset="0"/>
   <stop stop-color="#eceff4" stop-opacity="0" offset="1"/>
  </linearGradient>
  <filter id="filter1178" x="-.047999" y="-.047999" width="1.096" height="1.096" color-interpolation-filters="sRGB">
   <feGaussianBlur stdDeviation="0.30691668"/>
  </filter>
  <linearGradient id="linearGradient1340" x1="8.355" x2="8.3996" y1="16.007" y2=".79375" gradientUnits="userSpaceOnUse">
   <stop stop-color="#d8dee9" offset="0"/>
   <stop stop-color="#eceff4" offset="1"/>
  </linearGradient>
  <linearGradient id="linearGradient1477" x1="43.402" x2="44.013" y1="45.799" y2="46.45" gradientUnits="userSpaceOnUse" xlink:href="#linearGradient1475"/>
  <linearGradient id="linearGradient1689" x1="43.402" x2="44.013" y1="45.799" y2="46.45" gradientTransform="translate(1.4849 .0032981)" gradientUnits="userSpaceOnUse" xlink:href="#linearGradient1475"/>
  <filter id="filter1838" x="-.15774" y="-.14793" width="1.3155" height="1.2959" color-interpolation-filters="sRGB">
   <feGaussianBlur stdDeviation="0.23192251"/>
  </filter>
  <linearGradient id="linearGradient1898" x1="235.71" x2="244.91" y1="1.1888" y2="-8.554" gradientUnits="userSpaceOnUse">
   <stop stop-color="#eceff4" offset="0"/>
   <stop stop-color="#d8dee9" offset=".035248"/>
   <stop stop-color="#d8dee9" stop-opacity=".019608" offset=".95403"/>
   <stop stop-color="#2e3440" offset="1"/>
  </linearGradient>
  <filter id="filter3310" x="-.10586" y="-.04431" width="1.2117" height="1.0886" color-interpolation-filters="sRGB">
   <feGaussianBlur stdDeviation="0.2133556"/>
  </filter>
  <linearGradient id="linearGradient3368" x1="42.234" x2="46.858" y1="49.192" y2="58.538" gradientUnits="userSpaceOnUse">
   <stop stop-color="#b48ead" offset="0"/>
   <stop stop-color="#ad85a5" offset="1"/>
  </linearGradient>
  <linearGradient id="linearGradient3900" x1="42.014" x2="46.764" y1="53.217" y2="53.202" gradientUnits="userSpaceOnUse">
   <stop stop-color="#eceff4" stop-opacity=".34" offset="0"/>
   <stop stop-color="#eceff4" stop-opacity="0" offset=".10055"/>
   <stop stop-color="#ad86a6" stop-opacity="0" offset=".8971"/>
   <stop stop-color="#2e3440" stop-opacity=".4" offset="1"/>
  </linearGradient>
  <linearGradient id="linearGradient6594" x1="44.476" x2="44.551" y1="59.766" y2="48.03" gradientUnits="userSpaceOnUse">
   <stop stop-color="#2e3440" offset="0"/>
   <stop stop-color="#b38dac" stop-opacity="0" offset=".048162"/>
   <stop stop-color="#ad85a5" stop-opacity="0" offset="1"/>
  </linearGradient>
  <linearGradient id="linearGradient8120" x1="58.26" x2="72.362" y1="4.8228" y2="5.9903" gradientUnits="userSpaceOnUse">
   <stop stop-color="#d8dee9" stop-opacity="0" offset="0"/>
   <stop stop-color="#eceff4" offset=".031227"/>
   <stop stop-color="#2e3440" offset=".039062"/>
   <stop stop-color="#4c566a" offset=".069115"/>
   <stop stop-color="#eceff4" offset=".074828"/>
   <stop stop-color="#eceff4" offset=".11541"/>
   <stop stop-color="#d8dee9" stop-opacity="0" offset="1"/>
  </linearGradient>
  <filter id="filter9236" x="-.024129" y="-.061627" width="1.0483" height="1.1233" color-interpolation-filters="sRGB">
   <feGaussianBlur stdDeviation="0.14478519"/>
  </filter>
  <linearGradient id="linearGradient1088" x1="68.687" x2="71.74" y1="5.6624" y2="5.5619" gradientTransform="translate(-.036811 .030676)" gradientUnits="userSpaceOnUse">
   <stop stop-color="#eceff4" stop-opacity=".2" offset="0"/>
   <stop stop-color="#e6e9ee" stop-opacity="0" offset=".391"/>
   <stop stop-color="#3b404c" stop-opacity="0" offset=".61623"/>
   <stop stop-color="#2e3440" stop-opacity=".2" offset="1"/>
  </linearGradient>
  <linearGradient id="linearGradient2166" x1="65.503" x2="73.414" y1="1.6561" y2="8.1691" gradientTransform="matrix(.9 0 0 .9 6.9838 .58687)" gradientUnits="userSpaceOnUse">
   <stop stop-color="#b48ead" offset="0"/>
   <stop stop-color="#ad85a5" offset="1"/>
  </linearGradient>
 </defs>
 <g stroke-linecap="round" stroke-linejoin="round">
  <rect transform="matrix(.99138 0 0 1 .072989 .0019055)" x=".79375" y=".90545" width="15.346" height="15.346" rx="3.0526" ry="3.0526" fill="#000000" filter="url(#filter1178)" opacity=".15" stroke-width="1.2489" style="mix-blend-mode:normal"/>
  <rect x=".92604" y=".92604" width="15.081" height="15.081" rx="3" ry="3" fill="url(#linearGradient1340)" stroke-width="1.2274"/>
  <rect x=".01215" y=".0060174" width="16.924" height="16.927" fill="none" opacity=".15" stroke-width="1.052"/>
 </g>
 <style type="text/css">.st0{fill-rule:evenodd;clip-rule:evenodd;}</style>
 <g transform="matrix(.66062 0 0 .66062 -35.389 6.2131)">
  <g stroke-linecap="round" stroke-linejoin="round">
   <rect transform="rotate(-46.548)" x="42.661" y="44.208" width="3.5286" height="3.7627" fill="#2e3440" filter="url(#filter1838)" opacity=".5" stroke-width=".023814"/>
   <rect transform="rotate(-46.548)" x="43.402" y="45.799" width=".61066" height=".65118" fill="url(#linearGradient1477)" stroke-width=".0041214"/>
   <rect transform="rotate(-46.548)" x="44.887" y="45.802" width=".61066" height=".65118" fill="url(#linearGradient1689)" stroke-width=".0041214"/>
   <path transform="scale(.26458)" d="m241.36-11.82-9.1719 9.6816 10.324 9.7812 9.1719-9.6816zm2.5762 6.043 1.7871 1.6914-1.5879 1.6758-1.7852-1.6914 1.5859-1.6758zm-3.8672 4.0645 1.7852 1.6934-1.5859 1.6758-1.7871-1.6934 1.5879-1.6758z" fill="#d8dee9" stroke-width=".090009"/>
   <path transform="scale(.26458)" d="m241.36-11.82-9.1719 9.6816 10.324 9.7812 9.1719-9.6816zm2.5762 6.043 1.7871 1.6914-1.5879 1.6758-1.7852-1.6914 1.5859-1.6758zm-3.8672 4.0645 1.7852 1.6934-1.5859 1.6758-1.7871-1.6934 1.5879-1.6758z" fill="url(#linearGradient1898)" stroke-width=".090009"/>
   <path transform="rotate(-46.453)" d="m42.812 47.939h3.2545c0.43835 0 0.79124 0.3529 0.79124 0.79124v9.8077c-0.78336 1.6143-4.7822 0.88754-4.837 0v-9.8077c0-0.43835 0.3529-0.79124 0.79124-0.79124z" fill="#2e3440" filter="url(#filter3310)" opacity=".5" stroke-width=".026458"/>
  </g>
  <g stroke-linecap="round" stroke-linejoin="round" stroke-width=".026458">
   <path transform="rotate(-46.453)" d="m42.812 47.939h3.2545c0.43835 0 0.79124 0.3529 0.79124 0.79124v9.8077c-0.78336 1.6143-4.7822 0.88754-4.837 0v-9.8077c0-0.43835 0.3529-0.79124 0.79124-0.79124z" fill="url(#linearGradient3368)"/>
   <path transform="rotate(-46.453)" d="m42.812 47.939h3.2545c0.43835 0 0.79124 0.3529 0.79124 0.79124v9.8077c-0.78336 1.6143-4.7822 0.88754-4.837 0v-9.8077c0-0.43835 0.3529-0.79124 0.79124-0.79124z" fill="url(#linearGradient3900)"/>
   <path transform="rotate(-46.453)" d="m42.812 47.939h3.2545c0.43835 0 0.79124 0.3529 0.79124 0.79124v9.8077c-0.78336 1.6143-4.7822 0.88754-4.837 0v-9.8077c0-0.43835 0.3529-0.79124 0.79124-0.79124z" fill="url(#linearGradient6594)"/>
  </g>
  <path transform="scale(.26458)" d="m220.88 9.5117-1.6582 19.029 45.428 2.2812c13.217-2.359 10.619-18.296 0.35938-18.959zm44.344 5.7188a5.7972 5.8992 0 0 1 0.14649 2e-3 5.7972 5.8992 0 0 1 0.14648 0.0059 5.7972 5.8992 0 0 1 0.14649 0.0078 5.7972 5.8992 0 0 1 0.14648 0.01367 5.7972 5.8992 0 0 1 0.14648 0.01758 5.7972 5.8992 0 0 1 0.14454 0.02148 5.7972 5.8992 0 0 1 0.14453 0.02344 5.7972 5.8992 0 0 1 0.14453 0.0293 5.7972 5.8992 0 0 1 0.14453 0.03125 5.7972 5.8992 0 0 1 0.14258 0.03516 5.7972 5.8992 0 0 1 0.14062 0.03906 5.7972 5.8992 0 0 1 0.14063 0.04297 5.7972 5.8992 0 0 1 0.14062 0.04687 5.7972 5.8992 0 0 1 0.13867 0.05078 5.7972 5.8992 0 0 1 0.13672 0.05274 5.7972 5.8992 0 0 1 0.13477 0.05664 5.7972 5.8992 0 0 1 0.13476 0.0625 5.7972 5.8992 0 0 1 0.13282 0.0625 5.7972 5.8992 0 0 1 0.13086 0.06836 5.7972 5.8992 0 0 1 0.1289 0.07031 5.7972 5.8992 0 0 1 0.12696 0.07422 5.7972 5.8992 0 0 1 0.12695 0.07813 5.7972 5.8992 0 0 1 0.12305 0.08008 5.7972 5.8992 0 0 1 0.12109 0.08398 5.7972 5.8992 0 0 1 0.11914 0.08789 5.7972 5.8992 0 0 1 0.11914 0.08984 5.7972 5.8992 0 0 1 0.11328 0.0918 5.7972 5.8992 0 0 1 0.11328 0.0957 5.7972 5.8992 0 0 1 0.11133 0.09961 5.7972 5.8992 0 0 1 0.10742 0.10156 5.7972 5.8992 0 0 1 0.10547 0.10352 5.7972 5.8992 0 0 1 0.10156 0.10742 5.7972 5.8992 0 0 1 0.0996 0.10938 5.7972 5.8992 0 0 1 0.0977 0.11328 5.7972 5.8992 0 0 1 0.0937 0.11328 5.7972 5.8992 0 0 1 0.0918 0.11719 5.7972 5.8992 0 0 1 0.0879 0.11914 5.7972 5.8992 0 0 1 0.0859 0.12305 5.7972 5.8992 0 0 1 0.082 0.12305 5.7972 5.8992 0 0 1 0.0801 0.125 5.7972 5.8992 0 0 1 0.0762 0.12891 5.7972 5.8992 0 0 1 0.0723 0.12891 5.7972 5.8992 0 0 1 0.0703 0.13281 5.7972 5.8992 0 0 1 0.0664 0.13281 5.7972 5.8992 0 0 1 0.0625 0.13477 5.7972 5.8992 0 0 1 0.0586 0.13672 5.7972 5.8992 0 0 1 0.0566 0.13867 5.7972 5.8992 0 0 1 0.0527 0.13867 5.7972 5.8992 0 0 1 0.0488 0.14062 5.7972 5.8992 0 0 1 0.0469 0.14258 5.7972 5.8992 0 0 1 0.041 0.14258 5.7972 5.8992 0 0 1 0.0391 0.14453 5.7972 5.8992 0 0 1 0.0352 0.14453 5.7972 5.8992 0 0 1 0.0312 0.14648 5.7972 5.8992 0 0 1 0.0273 0.14648 5.7972 5.8992 0 0 1 0.0254 0.14844 5.7972 5.8992 0 0 1 0.0195 0.14844 5.7972 5.8992 0 0 1 0.0176 0.14844 5.7972 5.8992 0 0 1 0.0117 0.14844 5.7972 5.8992 0 0 1 0.01 0.14844 5.7972 5.8992 0 0 1 6e-3 0.15039 5.7972 5.8992 0 0 1 2e-3 0.14844 5.7972 5.8992 0 0 1-0.0156 0.44141 5.7972 5.8992 0 0 1-0.0488 0.4375 5.7972 5.8992 0 0 1-0.082 0.43359 5.7972 5.8992 0 0 1-0.11133 0.42578 5.7972 5.8992 0 0 1-0.14257 0.41797 5.7972 5.8992 0 0 1-0.17383 0.4043 5.7972 5.8992 0 0 1-0.20313 0.38867 5.7972 5.8992 0 0 1-0.23047 0.375 5.7972 5.8992 0 0 1-0.25781 0.35352 5.7972 5.8992 0 0 1-0.28125 0.33398 5.7972 5.8992 0 0 1-0.30664 0.3125 5.7972 5.8992 0 0 1-0.33008 0.28906 5.7972 5.8992 0 0 1-0.34765 0.26172 5.7972 5.8992 0 0 1-0.36719 0.23438 5.7972 5.8992 0 0 1-0.38281 0.20508 5.7972 5.8992 0 0 1-0.39844 0.17774 5.7972 5.8992 0 0 1-0.4082 0.14453 5.7972 5.8992 0 0 1-0.41993 0.11523 5.7972 5.8992 0 0 1-0.42578 0.08203 5.7972 5.8992 0 0 1-0.42968 0.04883 5.7972 5.8992 0 0 1-0.4336 0.01563 5.7972 5.8992 0 0 1-0.43359-0.01563 5.7972 5.8992 0 0 1-0.43164-0.04883 5.7972 5.8992 0 0 1-0.42578-0.08203 5.7972 5.8992 0 0 1-0.41797-0.11523 5.7972 5.8992 0 0 1-0.41016-0.14453 5.7972 5.8992 0 0 1-0.39648-0.17774 5.7972 5.8992 0 0 1-0.38282-0.20508 5.7972 5.8992 0 0 1-0.36718-0.23438 5.7972 5.8992 0 0 1-0.34961-0.26172 5.7972 5.8992 0 0 1-0.32813-0.28906 5.7972 5.8992 0 0 1-0.30664-0.3125 5.7972 5.8992 0 0 1-0.2832-0.33398 5.7972 5.8992 0 0 1-0.25781-0.35352 5.7972 5.8992 0 0 1-0.23047-0.375 5.7972 5.8992 0 0 1-0.20117-0.38867 5.7972 5.8992 0 0 1-0.17383-0.4043 5.7972 5.8992 0 0 1-0.14453-0.41797 5.7972 5.8992 0 0 1-0.11133-0.42578 5.7972 5.8992 0 0 1-0.0801-0.43359 5.7972 5.8992 0 0 1-0.0488-0.4375 5.7972 5.8992 0 0 1-0.0156-0.44141 5.7972 5.8992 0 0 1 0.0156-0.44141 5.7972 5.8992 0 0 1 0.0488-0.4375 5.7972 5.8992 0 0 1 0.0801-0.43359 5.7972 5.8992 0 0 1 0.11133-0.42578 5.7972 5.8992 0 0 1 0.14453-0.41602 5.7972 5.8992 0 0 1 0.17383-0.4043 5.7972 5.8992 0 0 1 0.20117-0.39062 5.7972 5.8992 0 0 1 0.23047-0.37305 5.7972 5.8992 0 0 1 0.25781-0.35547 5.7972 5.8992 0 0 1 0.2832-0.33398 5.7972 5.8992 0 0 1 0.30664-0.3125 5.7972 5.8992 0 0 1 0.32813-0.28711 5.7972 5.8992 0 0 1 0.34961-0.26172 5.7972 5.8992 0 0 1 0.36718-0.23633 5.7972 5.8992 0 0 1 0.38282-0.20508 5.7972 5.8992 0 0 1 0.39648-0.17578 5.7972 5.8992 0 0 1 0.41016-0.14648 5.7972 5.8992 0 0 1 0.41797-0.11524 5.7972 5.8992 0 0 1 0.42578-0.08203 5.7972 5.8992 0 0 1 0.43164-0.04883 5.7972 5.8992 0 0 1 0.43359-0.01563z" fill="#a6aebf" stroke-width="3.7796"/>
  <path d="m58.441 2.5166-0.43902 5.0348 12.019 0.60367c3.4969-0.62413 2.8099-4.8406 0.09543-5.0161z" fill="url(#linearGradient8120)" filter="url(#filter9236)"/>
  <path d="m71.703 5.5926a1.5338 1.5608 0 0 1-1.5338 1.5608 1.5338 1.5608 0 0 1-1.5338-1.5608 1.5338 1.5608 0 0 1 1.5338-1.5608 1.5338 1.5608 0 0 1 1.5338 1.5608z" fill="url(#linearGradient1088)"/>
  <path d="m71.55 5.5926a1.3804 1.4047 0 0 1-1.3804 1.4047 1.3804 1.4047 0 0 1-1.3804-1.4047 1.3804 1.4047 0 0 1 1.3804-1.4047 1.3804 1.4047 0 0 1 1.3804 1.4047z" fill="url(#linearGradient2166)" stroke-width=".9"/>
  <path class="st0" d="m61.942 4.6931c0.29484 0.011767 0.48922 0.20393 0.54385 0.45605l0.26296 0.010495c0.15587-0.13744 0.25032-0.33573 0.3379-0.52 0.18978-0.39779 0.35441-0.74408 0.93029-0.60642 0.05733-0.1838 0.23222-0.31376 0.43395-0.30571 0.24074 0.00961 0.42839 0.21243 0.41879 0.45316-0.0096 0.24074-0.21285 0.42838-0.45358 0.41877-0.17363-0.00693-0.31931-0.1144-0.38389-0.26442l-0.0014 5e-3c-0.06225-0.019289-0.11811-0.029917-0.16839-0.033185-0.28452-0.017651-0.39086 0.20494-0.511 0.45764-0.0073 0.01525-0.01466 0.030498-0.02201 0.046171-0.05864 0.122-0.12118 0.2472-0.20438 0.3636l2.417 0.096463 0.01301-0.32588 3e-3 -0.075073 0.07779 0.050573 0.85579 0.55504-0.9793 0.52927 0.01759-0.44079-1.8441-0.073599c0.07533 0.12273 0.12893 0.25341 0.17804 0.38055 0.0076 0.019213 0.01483 0.038819 0.02246 0.058026 0.10077 0.26446 0.19018 0.49739 0.48341 0.49691 0.03949-8.07e-5 0.08251-0.00427 0.12991-0.013302l0.0083-0.20718c0.0014-0.034809 0.03103-0.061772 0.06542-0.060399l0.76498 0.030531c0.03482 0.00139 0.06177 0.03103 0.0604 0.065421l-0.03105 0.77799c-0.0014 0.034809-0.0306 0.061788-0.06542 0.060399l-0.76493-0.030536c-0.03439-0.00138-0.06177-0.03103-0.0604-0.065421l0.010767-0.27176c-0.58117 0.088963-0.71812-0.26852-0.8748-0.6793-0.074938-0.1958-0.15556-0.40695-0.3075-0.55752l-0.83083-0.033159c-0.07497 0.24695-0.28363 0.42303-0.57846 0.41126-0.29568-0.0118-0.57009-0.28277-0.55732-0.60278 0.01277-0.32 0.30792-0.56866 0.60318-0.55688z" fill="#4c566a" stroke-width=".041973"/>
 </g>
</svg>
