<svg id="svg878" width="64" height="64" version="1.1" viewBox="0 0 16.933 16.933" xmlns="http://www.w3.org/2000/svg" xmlns:xlink="http://www.w3.org/1999/xlink">
 <defs id="defs868">
  <filter id="filter1178" x="-.04799993" y="-.04799993" width="1.0959999" height="1.0959999" color-interpolation-filters="sRGB">
   <feGaussianBlur id="feGaussianBlur860" stdDeviation="0.30691955"/>
  </filter>
  <linearGradient id="linearGradient1340" x1="8.5011" x2="8.489" y1="16.007" y2=".79375" gradientUnits="userSpaceOnUse">
   <stop id="stop863" stop-color="#2e3440" offset="0"/>
   <stop id="stop865" stop-color="#4c566a" offset="1"/>
  </linearGradient>
  <linearGradient id="linearGradient2492" x1="12.254768" x2="20.264099" y1="14.820889" y2="8.1485271" gradientTransform="matrix(-.3459539 -.0043384 -.02032816 .30301831 17.07891 1.5737034)" gradientUnits="userSpaceOnUse">
   <stop id="stop4944" style="stop-color:#eceff4" offset="0"/>
   <stop id="stop4946" style="stop-color:#eeeeec;stop-opacity:0" offset="1"/>
  </linearGradient>
  <linearGradient id="linearGradient2498" x1="21.664345" x2="29" y1="-.025480289" y2="15.22452" gradientTransform="matrix(.26457812 0 0 .26457812 41.099397 6.0116667)" gradientUnits="userSpaceOnUse">
   <stop id="stop2417" style="stop-color:#eeeeec" offset="0"/>
   <stop id="stop2419" style="stop-color:#eeeeec;stop-opacity:0" offset="1"/>
  </linearGradient>
  <linearGradient id="linearGradient2532" x1="12.900058" x2="18.573477" y1="12.908146" y2="9.7130737" gradientTransform="matrix(.3459539 -.0043384 .02032816 .30301831 -.1458172 1.5863382)" gradientUnits="userSpaceOnUse">
   <stop id="stop5078" style="stop-color:#eceff4" offset="0"/>
   <stop id="stop5080" style="stop-color:#eeeeec;stop-opacity:0" offset="1"/>
  </linearGradient>
  <linearGradient id="linearGradient2562" x1="23.906006" x2="24.746471" y1="6.0466475" y2="21.63644" gradientTransform="matrix(.34712436 .01765365 -.01871392 .32745728 .08117692 1.4066379)" gradientUnits="userSpaceOnUse">
   <stop id="stop5148" style="stop-color:#eceff4" offset="0"/>
   <stop id="stop5150" style="stop-color:#eeeeec;stop-opacity:0" offset="1"/>
  </linearGradient>
  <radialGradient id="radialGradient1542" cx="18.63378" cy="17.486208" r="40.692665" fx="18.934305" fy="17.810213" gradientTransform="scale(1.036822 .964486)" gradientUnits="userSpaceOnUse" xlink:href="#linearGradient4750"/>
  <linearGradient id="linearGradient4750">
   <stop id="stop4752" style="stop-color:#ffffff" offset="0"/>
   <stop id="stop4758" style="stop-color:#fefefe" offset=".37931034"/>
   <stop id="stop4754" style="stop-color:#1d1d1d" offset="1"/>
  </linearGradient>
  <linearGradient id="linearGradient7089" x1="6.719739" x2="9.7903233" y1="12.050472" y2="12.039512" gradientUnits="userSpaceOnUse">
   <stop id="stop7083" style="stop-color:#2e3440;stop-opacity:.7" offset="0"/>
   <stop id="stop7253" style="stop-color:#eac57b;stop-opacity:0" offset=".48108634"/>
   <stop id="stop7085" style="stop-color:#2e3440;stop-opacity:.7" offset="1"/>
  </linearGradient>
  <linearGradient id="linearGradient8434" x1="8.3256903" x2="8.2967281" y1="7.8773336" y2="9.6645079" gradientUnits="userSpaceOnUse">
   <stop id="stop8530" style="stop-color:#2e3440;stop-opacity:.5" offset="0"/>
   <stop id="stop8534" style="stop-color:#2e3440;stop-opacity:0" offset="1"/>
  </linearGradient>
 </defs>
 <rect id="rect870" transform="matrix(.99138 0 0 1 .072989 .1117)" x=".79374999" y=".79374999" width="15.346" height="15.346" rx="3.0525999" ry="3.0525999" fill="#2e3440" filter="url(#filter1178)" opacity=".2" stroke-width="1.2489" style="stroke-linecap:round;stroke-linejoin:round"/>
 <rect id="rect872" x=".92603999" y=".92603999" width="15.081" height="15.081" rx="3" ry="3" fill="url(#linearGradient1340)" stroke-width="1.2274" style="fill:url(#linearGradient1340);stroke-linecap:round;stroke-linejoin:round"/>
 <rect id="rect874" x=".01215" y=".0060174" width="16.924" height="16.927" fill="none" opacity=".15" stroke-width="1.052" style="stroke-linecap:round;stroke-linejoin:round"/>
 <path id="path2214" d="m3.92604 2.5135086h9.081c1.662 0 3 1.338 3 3v3.2602812c-0.01754 1.0344272-0.804224 1.0583125-0.804224 1.0583125h-13.453555s-0.813459 0.020143-0.82322101-1.0583125v-3.2602812c0-1.662 1.338-3 3-3z" style="fill:#7b88a1;stroke-linecap:round;stroke-linejoin:round;stroke-width:1.2274"/>
 <path id="rect1748" d="m3.92604 0.92603999h9.081c1.662 0 3 1.338 3 3v3.2602812c-0.01754 1.0344272-0.804224 1.0583125-0.804224 1.0583125h-13.453555s-0.813459 0.020143-0.82322101-1.0583125v-3.2602812c0-1.662 1.338-3 3-3z" style="fill:#a6aebf;stroke-linecap:round;stroke-linejoin:round;stroke-width:1.2274"/>
 <path id="path2267" d="m3.9022681 9.8668079 1.3838283-1.4494255-0.5192578 1.4494255z" style="fill:#4c566a"/>
 <path id="path2454" d="m11.818973 8.661169-0.581484-1.2271826 0.810818 0.7981557z" style="fill:#7b88a1"/>
 <path id="path2654" d="m11.237489 7.4339864 0.581484 1.227182-0.814673-0.4236146z" style="fill:#7b88a1;opacity:.5"/>
 <path id="path8228" d="m6.789039 8.9786095c1.6230691-0.6683576 2.949471 0 2.949471 0v6.3096635s-1.4405418 1.450501-2.949471 0z" style="fill:#ebcb8b;stroke-linecap:round;stroke-linejoin:round;stroke-width:2.68057"/>
 <path id="path8266" d="m6.789039 8.9786095c1.6230691-0.6683576 2.949471 0 2.949471 0v6.3096635s-1.4405418 1.450501-2.949471 0z" style="fill:#2e3440;opacity:.25;stroke-linecap:round;stroke-linejoin:round;stroke-width:2.68057"/>
 <path id="rect3118" d="m6.789039 8.8068254c1.6230691-0.6683576 2.949471 0 2.949471 0v6.3096626s-1.4405418 1.450501-2.949471 0z" style="fill:#eac57b;stroke-linecap:round;stroke-linejoin:round;stroke-width:2.68057"/>
 <path id="path1540" d="m8.4220283 2.5389588-0.1829182 0.1549019c-0.1613623 0.1366465-0.5539508 0.3752113-0.816382 0.7692415-0.1654473 0.2484104-0.2206204 0.5872109-0.1965774 0.9649675-0.444071 0.1255783-0.804335 0.3121272-1.033656 0.5734614-0.3840732 0.437692-0.5562173 0.9502541-0.834774 1.2814457l-0.2333271 0.2754916 0.3705728-0.0119433c0.6306194-0.0206703 1.3118238-0.0031008 1.9454993-0.1576276 0.1645656-0.040129 0.3158332-0.1046624 0.467298-0.1814906-0.1802404-0.1154902-0.2924485-0.2333319-0.3621232-0.3262996-0.0014453-0.001892-0.1938353 0.0921265-0.3004883 0.1181338-0.4643364 0.1132277-0.6859226 0.0065695-1.2087669 0.0206282 0.211322-0.3341392 0.1761292-0.523632 0.4270376-0.8095682 0.190498-0.2170922 0.6496472-0.3517512 1.0615198-0.489942 0.4118726-0.1381909 1.0242472-0.0636675 1.1014596-0.0466118l-0.013244-0.3393455c-0.1020636-0.0231062-0.2174421-0.0418463-0.3453697-0.0483527-0.3837841-0.019518-0.5995865 0.0699952-0.6247476 0.0811174-0.0146762-0.2924134 0.0534888-0.54431 0.1837104-0.7398407 0.1627275-0.2443295 0.5439652-0.4120387 0.5903931-0.4317996 0.1832755 0.2737803 0.3513873 0.3415088 0.4753351 0.6296785 0.0751418 0.1747027 0.2148301 0.4368767 0.0157011 1.0578652-0.1240319 0.3867772-0.2836559 0.4806515-0.4467145 0.5827858l0.3023001 0.2308928c0.0974781-0.0653835 0.2086101-0.1579645 0.2984137-0.2721816 0.2254082-0.2866881 0.2097006-0.5438216 0.2068967-0.5744569 0 0 0.4248775 0.3237859 0.5993368 0.5538825 0.2262515 0.2984066 0.3090545 0.4927783 0.5190475 0.8166316-0.4659831-0.0285326-0.7693988 0.0783858-1.268589-0.0747792-0.1349924-0.0414193-0.4163083-0.2114607-0.7506478-0.5004278-0.3343382-0.2889676-0.4999536-0.4670381-0.5867076-0.655441l-0.4300753 0.1012805c0.00499 0.012035 0.5020361 0.8792778 1.0005116 1.1057623 0.4984781 0.2264838 2.1126681 0.3867265 2.6333541 0.4132071l0.423058 0.021515-0.277097-0.2911878c-0.289706-0.304439-0.512138-0.694726-0.858889-1.1520611-0.206764-0.2727041-0.5473301-0.4870131-0.9743256-0.6550555 0 0 0.044962-0.4825603-0.1033249-0.8570663-0.1589342-0.4013857-0.5441491-0.6410831-0.6759133-0.9272372z" style="fill-rule:evenodd;fill:url(#linearGradient2562)"/>
 <path id="path2461" d="m9.4076127 2.8611896c0.4434403 0.5679316 1.5487443 1.1685919 2.0968033 1.3246827 0.0095 0.00271 0.02328-0.00204 0.03243 4.067e-4 0.0024-1.138e-4 0.0084 2.696e-4 0.01077 1.355e-4 0.138267-0.00791 0.281647-0.055908 0.454053-0.1554201 0.505007-0.2914887 0.299767-0.2138756 0.850861-0.4252853 0.0058-0.00221 0.01629-0.00719 0.02226-0.0092 0.345961-0.1086895 1.038245 0.1003765 1.159335 0.1377431-0.117318 0.014551-0.612408 0.094715-0.957066 0.3955216-0.0022 0.00192-0.0092 0.00745-0.01143 0.00933-0.0022 0.00187-0.0091 0.0075-0.01143 0.00933-0.100841 0.075811-0.255608 0.1308418-0.433066 0.1651606 0.267296 0.019634 0.545973 0.04912 0.837545 0.095799 0.54429 0.087135 0.881033 0.2762864 1.035991 0.5247648 0.154957 0.2484788 0.103877 0.5527241-0.104875 0.756868-0.605817 0.5924414-2.226093 0.2885246-2.219465-0.3026738 3.47e-4 -0.010064 0.0013-0.027654 0.0025-0.037877 2e-3 -0.012837 0.01051-0.03414 0.01399-0.047211 0.0038-0.013126 0.0085-0.033866 0.01399-0.047211 0.0022-0.00536 0.0096-0.013411 0.01209-0.018803 0.321579-0.6792755 1.100754-0.2698039 1.360921 0.03602-0.279657-0.1639426-0.669246-0.1954521-0.805746-0.085922-0.0026 0.00219-0.0091 0.00702-0.01143 0.00933-0.0034 0.00355-0.0091 0.015001-0.01209 0.018803-8.7e-4 0.00133-0.01064 0.00798-0.01143 0.00933-7.65e-4 0.00139 8.3e-5 0.00807-6.26e-4 0.00947-6.61e-4 0.00142-3e-5 8e-3 -6.25e-4 0.00947-0.0016 0.00447-0.0109 0.014078-0.01209 0.018803-3.13e-4 0.0016-3.82e-4 0.00784-6.25e-4 0.00947-1.9e-4 0.00167-5.22e-4 0.00778-6.27e-4 0.00947-6.4e-5 0.00171-6.25e-4 0.00773-6.25e-4 0.00947-4.52e-4 0.488387 1.301304 0.4946731 1.413072 0.065106 0.02716-0.1043655 0.02523-0.1940386 7e-3 -0.2652768-0.0021-0.00753-0.0063-0.021351-0.0089-0.028543-0.0028-0.00708-0.0058-0.021773-0.0089-0.028543-0.0022-0.00444-0.0071-0.014764-0.0096-0.019074-0.109749-0.1868008-0.404743-0.2498221-0.737085-0.3030265-0.680889-0.1090038-1.408557-0.0025256-2.00768-0.072563-0.906403-0.1059585-1.307133-0.2310587-1.8029634-0.866088z" style="fill-rule:evenodd;fill:url(#linearGradient2492)"/>
 <path id="path2530" d="m7.5254774 2.873824c-0.4434415 0.5679317-1.5487456 1.168592-2.0968037 1.3246827-0.00946 0.00271-0.023282-0.00204-0.03244 4.068e-4 -0.00237-1.138e-4 -0.00841 2.695e-4 -0.010774 1.355e-4 -0.1382654-0.0079097-0.2816457-0.0559077-0.4540513-0.15542-0.5050069-0.2914888-0.299767-0.2138758-0.8508614-0.4252855-0.00578-0.00221-0.016292-0.00719-0.022257-0.0092-0.345961-0.1086895-1.0382441 0.1003765-1.1593355 0.137743 0.1173178 0.014553 0.6124087 0.094715 0.9570663 0.3955216 0.00223 0.00192 0.0092 0.00745 0.011431 0.00933 0.00223 0.00187 0.00907 0.0075 0.011431 0.00933 0.100841 0.0758106 0.2556076 0.1308419 0.4330651 0.1651606-0.2672953 0.0196336-0.5459728 0.0491214-0.8375437 0.0957989-0.5442911 0.087135-0.8810337 0.2762865-1.0359908 0.5247651-0.1549584 0.2484786-0.1038767 0.5527243 0.1048753 0.756868 0.6058169 0.5924416 2.2260925 0.2885248 2.2194652-0.3026738-3.469e-4 -0.010064-0.00125-0.027654-0.0025-0.037877-0.00197-0.012837-0.010511-0.03414-0.013993-0.047211-0.00381-0.013126-0.00854-0.033866-0.013993-0.047211-0.00223-0.00536-0.00959-0.013411-0.012088-0.018803-0.3215752-0.6792759-1.1007504-0.2698046-1.3609177 0.0360204 0.2796577-0.1639425 0.6692466-0.1954519 0.805746-0.0859223 0.00263 0.00219 0.00907 0.00702 0.011431 0.00933 0.00342 0.00355 0.00907 0.015001 0.012088 0.018803 8.685e-4 0.00133 0.010643 0.00798 0.011431 0.00933 7.647e-4 0.00139-8.28e-5 0.00807 6.254e-4 0.00947 6.609e-4 0.00142 3.02e-5 8e-3 6.254e-4 0.00947 0.00158 0.00447 0.010905 0.014078 0.012088 0.018803 3.127e-4 0.0016 3.823e-4 0.00784 6.254e-4 0.00947 1.892e-4 0.00167 5.216e-4 0.00778 6.267e-4 0.00947 6.44e-5 0.00171 6.254e-4 0.00773 6.254e-4 0.00947 4.52e-4 0.488387-1.3013047 0.4946731-1.4130713 0.065106-0.027158-0.1043654-0.02524-0.1940389-0.00696-0.265277 0.0021-0.00753 0.00631-0.021348 0.00893-0.028543 0.00276-0.00708 0.00578-0.021773 0.00893-0.028543 0.00223-0.00444 0.0071-0.014764 0.00959-0.019074 0.1097562-0.1867993 0.4047458-0.2498206 0.7370882-0.303025 0.6808891-0.1090036 1.4085555-0.0025227 2.0076794-0.0725626 0.9064038-0.105958 1.3071332-0.2310587 1.8029638-0.866088z" style="fill-rule:evenodd;fill:url(#linearGradient2532)"/>
 <path id="path2534" d="m45.425737 9.801494c0.436066-0.6148899 0.436066-1.6732023 2.023535-1.6732023 1.587468 0 1.587468 1.0583124 2.116625 1.5874687-0.793735 0-2.116625 0-2.645781-1.0583125-0.529157-1.0583125 0.264578-1.5874687 0.529156-1.8520468 0.264578 0.5291562 1.058312 0.7937343 0.529156 1.8520468s-1.587469 1.0583125-2.552691 1.1440461z" style="display:none;fill:none;stroke-width:.264578px;stroke:url(#linearGradient2498)"/>
 <g id="g4202" transform="matrix(.25991387 0 0 .25991387 15.988322 4.3572613)" style="fill-opacity:.71345;fill:#000000">
  <g id="g4204" style="opacity:.75"></g>
  <g id="g4208"></g>
 </g>
 <g id="g4212" transform="matrix(.25991387 0 0 .25991387 15.988322 4.3572613)" style="fill-opacity:.71345;fill:#000000">
  <g id="g4214" style="opacity:.75"></g>
  <g id="g4218"></g>
 </g>
 <g id="g3282" transform="matrix(.25991387 0 0 .25991387 15.93487 4.3038083)" style="color:#000000;fill:url(#radialGradient1542);stroke-width:1.01795">
  <g id="g3284" style="color:#000000;fill:url(#radialGradient1542);opacity:.75"></g>
  <g id="g3288" style="color:#000000;fill:url(#radialGradient1542)"></g>
 </g>
 <g id="g3292" transform="matrix(.25991387 0 0 .25991387 15.93487 4.3038083)" style="color:#000000;fill:url(#radialGradient1542);stroke-width:1.01795">
  <g id="g3294" style="color:#000000;fill:url(#radialGradient1542);opacity:.75"></g>
  <g id="g3298" style="color:#000000;fill:url(#radialGradient1542)"></g>
 </g>
 <path id="path6114" d="m6.789039 13.085787v1.136105l2.949471-1.708568v-0.968313z" style="fill:#bf616a;stroke-width:.00687903;stroke:#2e3440"/>
 <path id="path5427" d="m6.789039 10.903617v1.149387l2.949471 1.083852v-1.094786z" style="fill:#bf616a;stroke-width:.01190602;stroke:#2e3440"/>
 <path id="path7051" d="m6.789039 8.8068254c1.6230691-0.6683576 2.949471 0 2.949471 0v6.3096626s-1.4405418 1.450501-2.949471 0z" style="fill:url(#linearGradient7089);stroke-linecap:round;stroke-linejoin:round;stroke-width:2.68057"/>
 <path id="path8304" d="m6.789039 8.8068254c1.6230691-0.6683576 2.949471 0 2.949471 0v6.3096626s-1.4405418 1.450501-2.949471 0z" style="fill:url(#linearGradient8434);stroke-linecap:round;stroke-linejoin:round;stroke-width:2.68057"/>
</svg>
