<svg width="64" height="64" version="1.1" viewBox="0 0 16.933 16.933" xmlns="http://www.w3.org/2000/svg" xmlns:xlink="http://www.w3.org/1999/xlink">
 <defs>
  <linearGradient id="linearGradient1224">
   <stop stop-color="#dbc7c5" offset="0"/>
   <stop stop-color="#b48ead" offset="1"/>
  </linearGradient>
  <filter id="filter1178" x="-.047999" y="-.047999" width="1.096" height="1.096" color-interpolation-filters="sRGB">
   <feGaussianBlur stdDeviation="0.30691668"/>
  </filter>
  <linearGradient id="linearGradient1340" x1="8.6644" x2="8.6644" y1="15.931" y2=".79375" gradientUnits="userSpaceOnUse">
   <stop stop-color="#5e81ac" offset="0"/>
   <stop stop-color="#88c0d0" offset="1"/>
  </linearGradient>
  <linearGradient id="linearGradient1226" x1="4.4077" x2="4.4112" y1="13.767" y2="14.975" gradientTransform="translate(7.9644 -.10248)" gradientUnits="userSpaceOnUse" xlink:href="#linearGradient1224"/>
  <linearGradient id="linearGradient1904" x1="4.4077" x2="4.4112" y1="13.767" y2="14.975" gradientTransform="translate(4.7895 -.10248)" gradientUnits="userSpaceOnUse" xlink:href="#linearGradient1224"/>
  <linearGradient id="linearGradient1924" x1="4.4077" x2="4.4112" y1="13.767" y2="14.975" gradientTransform="translate(3.202 -.10248)" gradientUnits="userSpaceOnUse" xlink:href="#linearGradient1224"/>
  <linearGradient id="linearGradient1944" x1="4.4077" x2="4.4112" y1="13.767" y2="14.975" gradientTransform="translate(1.6146 -.10248)" gradientUnits="userSpaceOnUse" xlink:href="#linearGradient1224"/>
  <linearGradient id="linearGradient1964" x1="4.4077" x2="4.4112" y1="13.767" y2="14.975" gradientTransform="translate(.027081 -.10248)" gradientUnits="userSpaceOnUse" xlink:href="#linearGradient1224"/>
  <linearGradient id="linearGradient2004" x1="4.4077" x2="4.4112" y1="13.767" y2="14.975" gradientTransform="translate(6.377 -.10248)" gradientUnits="userSpaceOnUse" xlink:href="#linearGradient1224"/>
 </defs>
 <g stroke-linecap="round" stroke-linejoin="round">
  <rect transform="matrix(.99138 0 0 1 .072989 .0019055)" x=".79375" y=".90545" width="15.346" height="15.346" rx="3.0526" ry="3.0526" fill="#000000" filter="url(#filter1178)" opacity=".15" stroke-width="1.2489" style="mix-blend-mode:normal"/>
  <rect x=".92604" y=".92604" width="15.081" height="15.081" rx="3" ry="3" fill="url(#linearGradient1340)" stroke-width="1.2274"/>
  <rect x=".01215" y=".0060174" width="16.924" height="16.927" fill="none" opacity=".15" stroke-width="1.052"/>
  <path transform="scale(.26458)" d="m3.5 45.816v3.3457c0 6.2817 5.0581 11.338 11.34 11.338h34.322c6.2817 0 11.338-5.0562 11.338-11.338v-3.3457h-57z" fill="#2e3440" opacity=".6" stroke-width="4.0156"/>
 </g>
 <g transform="matrix(1.2402 0 0 1.4134 -2.0303 -6.1224)" stroke-linecap="round" stroke-linejoin="round" stroke-width=".62811">
  <rect x="11.842" y="13.634" width="1.1808" height="1.2971" ry=".15784" fill="url(#linearGradient1226)"/>
  <rect x="3.905" y="13.634" width="1.1808" height="1.2971" ry=".15784" fill="url(#linearGradient1964)"/>
  <rect x="5.4925" y="13.634" width="1.1808" height="1.2971" ry=".15784" fill="url(#linearGradient1944)"/>
  <rect x="7.08" y="13.634" width="1.1808" height="1.2971" ry=".15784" fill="url(#linearGradient1924)"/>
  <rect x="8.6674" y="13.634" width="1.1808" height="1.2971" ry=".15784" fill="url(#linearGradient1904)"/>
  <rect x="10.255" y="13.634" width="1.1808" height="1.2971" ry=".15784" fill="url(#linearGradient2004)"/>
 </g>
</svg>
