<svg width="64" height="64" version="1.1" viewBox="0 0 16.933 16.933" xmlns="http://www.w3.org/2000/svg">
 <defs>
  <filter id="filter1178" x="-.047999" y="-.047999" width="1.096" height="1.096" color-interpolation-filters="sRGB">
   <feGaussianBlur stdDeviation="0.30691668"/>
  </filter>
  <linearGradient id="linearGradient1340" x1="8.355" x2="8.3996" y1="16.007" y2=".79375" gradientUnits="userSpaceOnUse">
   <stop stop-color="#d8dee9" offset="0"/>
   <stop stop-color="#eceff4" offset="1"/>
  </linearGradient>
  <linearGradient id="linearGradient1313" x1="8.2364" x2="8.24" y1="1.1606" y2="3.5817" gradientTransform="matrix(1.005 0 0 1 -.042332 0)" gradientUnits="userSpaceOnUse">
   <stop stop-color="#2e3440" offset="0"/>
   <stop stop-color="#4c566a" offset="1"/>
  </linearGradient>
  <linearGradient id="linearGradient6207" x1="7.635" x2="8.761" y1="5.7037" y2="14.001" gradientUnits="userSpaceOnUse">
   <stop stop-color="#2e3440" offset="0"/>
   <stop stop-color="#4c566a" offset="1"/>
  </linearGradient>
  <filter id="filter6437" x="-.10795" y="-.10805" width="1.2159" height="1.2161" color-interpolation-filters="sRGB">
   <feGaussianBlur stdDeviation="0.41036932"/>
  </filter>
  <linearGradient id="linearGradient6495" x1="12.05" x2="12.066" y1="1.9716" y2="2.8515" gradientUnits="userSpaceOnUse">
   <stop stop-color="#ebcb8b" offset="0"/>
   <stop stop-color="#eac57b" offset="1"/>
  </linearGradient>
  <linearGradient id="linearGradient6567" x1="13.286" x2="13.275" y1="1.9581" y2="2.8476" gradientUnits="userSpaceOnUse">
   <stop stop-color="#a3be8c" offset="0"/>
   <stop stop-color="#97b67c" offset="1"/>
  </linearGradient>
  <linearGradient id="linearGradient6639" x1="14.461" x2="14.467" y1="1.9502" y2="2.8203" gradientUnits="userSpaceOnUse">
   <stop stop-color="#bf616a" offset="0"/>
   <stop stop-color="#b54a55" offset="1"/>
  </linearGradient>
 </defs>
 <g stroke-linecap="round" stroke-linejoin="round">
  <rect transform="matrix(.99138 0 0 1 .072989 .0019055)" x=".79375" y=".90545" width="15.346" height="15.346" rx="3.0526" ry="3.0526" filter="url(#filter1178)" opacity=".15" stroke-width="1.2489" style="mix-blend-mode:normal"/>
  <rect x=".92604" y=".92604" width="15.081" height="15.081" rx="3" ry="3" fill="url(#linearGradient1340)" stroke-width="1.2274"/>
  <rect x=".01215" y=".0060174" width="16.924" height="16.927" fill="none" opacity=".15" stroke-width="1.052"/>
 </g>
 <style type="text/css"><![CDATA[
	.st0{fill-rule:evenodd;clip-rule:evenodd;}
]]></style>
 <path class="st0" d="m10.956 6.2541c-0.10024-0.069796-0.21384-0.10024-0.32968-0.077222-0.11583 0.023017-0.21384 0.085389-0.28364 0.18266l-0.3913 0.55169c-0.13885-0.061628-0.28364-0.10841-0.43808-0.14702s-0.29923-0.069796-0.45368-0.092814l-0.124-0.72172c-0.022276-0.124-0.084647-0.21384-0.17523-0.28364-0.10024-0.069796-0.20642-0.092814-0.32968-0.069796l-0.90438 0.16261c-0.11583 0.023017-0.20642 0.077222-0.28364 0.17746-0.069793 0.10024-0.10024 0.20642-0.077222 0.32968l0.11583 0.65935c-0.14702 0.061628-0.28364 0.13142-0.41507 0.21384-0.13143 0.077222-0.25988 0.17004-0.37646 0.25988l-0.61332-0.42249c-0.10024-0.069796-0.20642-0.10024-0.32225-0.077222-0.11583 0.023017-0.21384 0.085389-0.28364 0.18563l-0.52199 0.74549c-0.069793 0.10024-0.10024 0.21384-0.077222 0.32968 0.023015 0.124 0.085388 0.21384 0.18563 0.28364l0.55169 0.3913c-0.061626 0.13885-0.10841 0.28364-0.14702 0.43808-0.038611 0.15444-0.069792 0.29923-0.092814 0.45368l-0.72098 0.124c-0.61183 0.11509-0.26582 0.992-0.19083 1.4093 0.023015 0.11583 0.077221 0.20642 0.17523 0.28364 0.10024 0.06979 0.20642 0.10024 0.32968 0.07722l0.65935-0.11583c0.061626 0.14702 0.13143 0.28364 0.21384 0.41506 0.077222 0.13143 0.17004 0.25988 0.25988 0.38388l-0.42249 0.60589c-0.069793 0.10024-0.10024 0.20642-0.077222 0.32225 0.023015 0.11583 0.084651 0.21384 0.18266 0.28364l0.75217 0.52793c0.10024 0.06979 0.21384 0.09281 0.32968 0.06979 0.11583-0.02301 0.21384-0.07722 0.29107-0.17523l0.39205-0.55911c0.13885 0.06163 0.28364 0.10841 0.43808 0.14702s0.29849 0.06979 0.45368 0.09281l0.124 0.72172c0.023015 0.124 0.085388 0.21384 0.17523 0.28364 0.10024 0.06979 0.20642 0.09281 0.32968 0.06979l0.90438-0.1626c0.11583-0.02302 0.20642-0.07722 0.28364-0.17524 0.06979-0.10024 0.10024-0.20642 0.07722-0.32968l-0.11583-0.65935c0.14702-0.06163 0.28364-0.13142 0.41507-0.21384 0.13142-0.07722 0.26062-0.16781 0.38388-0.25988l0.60589 0.42249c0.10024 0.06979 0.20642 0.10024 0.32968 0.07722 0.124-0.02301 0.21384-0.08539 0.28364-0.18266l0.52793-0.75291c0.06979-0.10024 0.09281-0.21384 0.06979-0.32968-0.02301-0.11583-0.07722-0.21384-0.17746-0.29106l-0.55986-0.38388c0.06163-0.13885 0.10841-0.28364 0.14702-0.43808s0.06979-0.29923 0.09281-0.45368l0.72173-0.124c0.124-0.02302 0.21384-0.08539 0.28364-0.17746 0.06979-0.10024 0.09281-0.20642 0.06979-0.32968l-0.1626-0.90438c-0.023018-0.11583-0.077223-0.20642-0.17523-0.28364-0.10024-0.069796-0.20642-0.10024-0.32968-0.077222l-0.65935 0.11583c-0.061628-0.13885-0.13142-0.27547-0.21384-0.41507-0.077222-0.13885-0.17004-0.25988-0.25988-0.37646l0.42249-0.61332c0.06979-0.10024 0.10024-0.20642 0.07722-0.32225s-0.08539-0.21384-0.18266-0.28364l-0.74622-0.52422zm-3.2173 3.201 0.64376 0.61257 1.1086-1.1257c0.10989-0.11138 0.1782-0.20122 0.31408-0.061628l0.43882 0.44922c0.14479 0.14256 0.13662 0.22572 7.15e-4 0.35789l-1.6112 1.5816c-0.28661 0.28067-0.23612 0.29775-0.52719 0.0097l-1.1063-1.099c-0.060142-0.06534-0.054206-0.13142 0.011881-0.19751l0.50937-0.52867c0.076475-0.079449 0.13811-0.074251 0.21756 0.0015zm0.91478-2.1095c1.5459 0 2.8 1.2534 2.8 2.8 0 1.5459-1.2534 2.8-2.8 2.8-1.5467 0-2.8-1.2541-2.8-2.8008 0-1.5459 1.2541-2.7993 2.8-2.7993z" fill="#2e3440" filter="url(#filter6437)" opacity=".5" stroke-width=".074252"/>
 <path class="st0" d="m10.769 5.9267c-0.10024-0.069796-0.21384-0.10024-0.32968-0.077222-0.11583 0.023017-0.21384 0.085389-0.28364 0.18266l-0.3913 0.55169c-0.13885-0.061628-0.28364-0.10841-0.43808-0.14702s-0.29923-0.069796-0.45368-0.092814l-0.124-0.72172c-0.022276-0.124-0.084647-0.21384-0.17523-0.28364-0.10024-0.069796-0.20642-0.092814-0.32968-0.069796l-0.90438 0.16261c-0.11583 0.023017-0.20642 0.077222-0.28364 0.17746-0.069793 0.10024-0.10024 0.20642-0.077222 0.32968l0.11583 0.65935c-0.14702 0.061628-0.28364 0.13142-0.41507 0.21384-0.13143 0.077222-0.25988 0.17004-0.37646 0.25988l-0.61332-0.42249c-0.10024-0.069796-0.20642-0.10024-0.32225-0.077222-0.11583 0.023017-0.21384 0.085389-0.28364 0.18563l-0.52199 0.74549c-0.069793 0.10024-0.10024 0.21384-0.077222 0.32968 0.023015 0.124 0.085388 0.21384 0.18563 0.28364l0.55169 0.3913c-0.061626 0.13885-0.10841 0.28364-0.14702 0.43808-0.038611 0.15444-0.069792 0.29923-0.092814 0.45368l-0.72098 0.124c-0.61183 0.11509-0.26582 0.992-0.19083 1.4093 0.023015 0.11583 0.077221 0.20642 0.17523 0.28364 0.10024 0.06979 0.20642 0.10024 0.32968 0.07722l0.65935-0.11583c0.061626 0.14702 0.13143 0.28364 0.21384 0.41506 0.077222 0.13143 0.17004 0.25988 0.25988 0.38388l-0.42249 0.60589c-0.069793 0.10024-0.10024 0.20642-0.077222 0.32225 0.023015 0.11583 0.084651 0.21384 0.18266 0.28364l0.75217 0.52793c0.10024 0.06979 0.21384 0.09281 0.32968 0.06979 0.11583-0.02301 0.21384-0.07722 0.29107-0.17523l0.39205-0.55911c0.13885 0.06163 0.28364 0.10841 0.43808 0.14702s0.29849 0.06979 0.45368 0.09281l0.124 0.72172c0.023015 0.124 0.085388 0.21384 0.17523 0.28364 0.10024 0.06979 0.20642 0.09281 0.32968 0.06979l0.90438-0.1626c0.11583-0.02302 0.20642-0.07722 0.28364-0.17524 0.069793-0.10024 0.10024-0.20642 0.077222-0.32968l-0.11583-0.65935c0.14702-0.06163 0.28364-0.13142 0.41507-0.21384 0.13142-0.07722 0.26062-0.16781 0.38388-0.25988l0.60589 0.42249c0.10024 0.06979 0.20642 0.10024 0.32968 0.07722 0.124-0.02301 0.21384-0.08539 0.28364-0.18266l0.52793-0.75291c0.06979-0.10024 0.09281-0.21384 0.06979-0.32968-0.02301-0.11583-0.07722-0.21384-0.17746-0.29106l-0.55986-0.38388c0.06163-0.13885 0.10841-0.28364 0.14702-0.43808s0.06979-0.29923 0.09281-0.45368l0.72173-0.124c0.124-0.02302 0.21384-0.08539 0.28364-0.17746 0.06979-0.10024 0.09281-0.20642 0.06979-0.32968l-0.1626-0.90438c-0.023018-0.11583-0.077223-0.20642-0.17523-0.28364-0.10024-0.069796-0.20642-0.10024-0.32968-0.077222l-0.65935 0.11583c-0.061628-0.13885-0.13142-0.27547-0.21384-0.41507-0.077222-0.13885-0.17004-0.25988-0.25988-0.37646l0.42249-0.61332c0.06979-0.10024 0.10024-0.20642 0.07722-0.32225s-0.08539-0.21384-0.18266-0.28364l-0.74622-0.52422zm-3.2173 3.201 0.64376 0.61257 1.1086-1.1257c0.10989-0.11138 0.1782-0.20122 0.31408-0.061628l0.43883 0.44922c0.14479 0.14256 0.13662 0.22572 7.15e-4 0.35789l-1.6112 1.5816c-0.28661 0.28067-0.23612 0.29775-0.52719 0.0097l-1.1063-1.099c-0.060142-0.065341-0.054206-0.13143 0.011881-0.19751l0.50937-0.52867c0.076475-0.079449 0.13811-0.074251 0.21756 0.0015zm0.91478-2.1095c1.5459 0 2.8 1.2534 2.8 2.8 0 1.5459-1.2534 2.8-2.8 2.8-1.5467 0-2.8-1.2541-2.8-2.8008 0-1.5459 1.2541-2.7993 2.8-2.7993z" fill="url(#linearGradient6207)" stroke-width=".074252"/>
 <path d="m3.9033 0.92604h9.1264c1.6703 0 3.015 1.338 3.015 3h-15.156c0-1.662 1.3447-3 3.015-3z" fill="url(#linearGradient1313)" stroke-linecap="round" stroke-linejoin="round" stroke-width="1.2305"/>
 <ellipse cx="12.06" cy="2.426" rx=".44454" ry=".50993" fill="url(#linearGradient6495)"/>
 <ellipse cx="13.288" cy="2.426" rx=".44454" ry=".50993" fill="url(#linearGradient6567)"/>
 <ellipse cx="14.482" cy="2.426" rx=".44454" ry=".50993" fill="url(#linearGradient6639)"/>
</svg>
