<?xml version="1.0" encoding="UTF-8"?>
<svg width="64" height="64" version="1.1" viewBox="0 0 16.933 16.933" xmlns="http://www.w3.org/2000/svg" xmlns:xlink="http://www.w3.org/1999/xlink">
 <defs>
  <filter id="filter1178" x="-.047999" y="-.047999" width="1.096" height="1.096" color-interpolation-filters="sRGB">
   <feGaussianBlur stdDeviation="0.30691668"/>
  </filter>
  <linearGradient id="linearGradient2014" x1="7.9709" x2="7.9827" y1="15.584" y2="1.1618" gradientUnits="userSpaceOnUse">
   <stop stop-color="#4c566a" offset="0"/>
   <stop stop-color="#2e3440" offset="1"/>
  </linearGradient>
  <filter id="filter888" x="-.062856" y="-.09296" width="1.1257" height="1.1859" color-interpolation-filters="sRGB">
   <feGaussianBlur stdDeviation="0.14481734"/>
  </filter>
  <linearGradient id="linearGradient881" x1="5.2049" x2="5.2049" y1="7.1604" y2="3.8654" gradientUnits="userSpaceOnUse">
   <stop stop-color="#d8dee9" offset="0"/>
   <stop stop-color="#eceff4" offset="1"/>
  </linearGradient>
  <style>.cls-1 { 
}</style>
  <linearGradient id="linearGradient1070" x1="24.255" x2="24.483" y1="-11.18" y2="1.0418" gradientTransform="matrix(.53878 0 0 .46307 -.25413 15.32)" gradientUnits="userSpaceOnUse">
   <stop stop-color="#eceff4" offset="0"/>
   <stop stop-color="#d8dee9" offset="1"/>
  </linearGradient>
  <linearGradient id="linearGradient1424" x1="30.251" x2="30.458" y1="-6.3156" y2="2.5274" gradientTransform="matrix(.55387 0 0 .55387 -3.7377 14.029)" gradientUnits="userSpaceOnUse">
   <stop stop-color="#4c566a" offset="0"/>
   <stop stop-color="#2e3440" offset="1"/>
  </linearGradient>
  <linearGradient id="linearGradient604" x1="5.2049" x2="5.2049" y1="7.1604" y2="3.8654" gradientTransform="matrix(1.3533 0 0 1.7398 -.94213 -2.6509)" gradientUnits="userSpaceOnUse" xlink:href="#linearGradient881"/>
  <linearGradient id="linearGradient606" x1="5.2049" x2="5.2049" y1="7.1604" y2="3.8654" gradientTransform="matrix(1.3533 0 0 1.3533 -.94213 -1.2661)" gradientUnits="userSpaceOnUse" xlink:href="#linearGradient881"/>
  <linearGradient id="linearGradient14" x1="24.255" x2="24.483" y1="-11.18" y2="1.0418" gradientTransform="matrix(.19568 0 0 .16818 8.1727 13.83)" gradientUnits="userSpaceOnUse" xlink:href="#linearGradient1070"/>
 </defs>
 <g stroke-linecap="round" stroke-linejoin="round">
  <rect transform="matrix(.99138 0 0 1 .072989 .0019055)" x=".79375" y=".90545" width="15.346" height="15.346" rx="3.0526" ry="3.0526" filter="url(#filter1178)" opacity=".15" stroke-width="1.2489" style="mix-blend-mode:normal"/>
  <rect x=".01215" y=".0060174" width="16.924" height="16.927" fill="none" opacity=".15" stroke-width="1.052"/>
  <rect x=".92604" y=".92604" width="15.081" height="15.081" rx="3" ry="3" fill="url(#linearGradient2014)" stroke-width="1.2274"/>
 </g>
 <g transform="matrix(1.3533 0 0 1.3533 -.70795 -1.0319)" fill="#2e3440" filter="url(#filter888)" opacity=".25" stroke-width=".19551" aria-label="&gt;_">
  <path d="m2.6666 4.1314v-0.5479l2.8097 1.0147v0.51722l-2.8097 1.0147v-0.5479l2.1149-0.72323z"/>
  <path d="m8.1961 6.9059v0.41641h-2.2442v-0.41641z"/>
 </g>
 <path d="m2.6666 4.5367v-0.95321l3.8024 1.7653v0.89983l-3.8024 1.7653v-0.95321l2.8621-1.2582z" fill="url(#linearGradient604)" stroke-width=".29999"/>
 <path d="m10.15 8.0797v0.56353h-3.0371v-0.56353z" fill="url(#linearGradient606)" stroke-width=".26458"/>
 <ellipse cx="12.979" cy="12.98" rx="3.0657" ry="3.0642" fill="url(#linearGradient1070)" stroke-width="1.1813"/>
 <path class="cls-1" d="m13.52 10.932a2.1069 2.1069 0 0 1 0.512 0.23196l0.27556-0.27691a0.34164 0.34164 0 0 1 0.48189 0l0.2823 0.28365a0.34164 0.34164 0 0 1 0 0.48189l-0.29669 0.29669a2.0948 2.0948 0 0 1 0.1951 0.49133h0.42794a0.34164 0.34164 0 0 1 0.34254 0.34164v0.40007a0.34164 0.34164 0 0 1-0.34074 0.34074h-0.43199a2.1051 2.1051 0 0 1-0.19644 0.48593l0.30028 0.30163a0.34164 0.34164 0 0 1 0 0.48189l-0.28185 0.2823a0.34209 0.34209 0 0 1-0.48234 0l-0.28499-0.28544a2.1227 2.1227 0 0 1-0.50301 0.22476v0.38614a0.34164 0.34164 0 0 1-0.34074 0.34074h-0.39962a0.34164 0.34164 0 0 1-0.34074-0.34074v-0.34883a2.1303 2.1303 0 0 1-0.55514-0.21038l-0.23375 0.23375a0.34254 0.34254 0 0 1-0.48188 0l-0.28365-0.28365a0.34209 0.34209 0 0 1 0-0.48189l0.21217-0.21218a2.1299 2.1299 0 0 1-0.24993-0.57403h-0.28859a0.34164 0.34164 0 0 1-0.34074-0.34074v-0.40007a0.34164 0.34164 0 0 1 0.34074-0.34164h0.28545a2.1218 2.1218 0 0 1 0.24768-0.58168l-0.20678-0.20633a0.34254 0.34254 0 0 1 0-0.48189l0.28365-0.28365a0.34164 0.34164 0 0 1 0.48188 0l0.22476 0.22476a2.0948 2.0948 0 0 1 0.56323-0.21757v-0.33355a0.34164 0.34164 0 0 1 0.34164-0.34074h0.40007a0.34164 0.34164 0 0 1 0.34074 0.34074zm-0.61225 0.93682a1.1058 1.1058 0 1 1-1.1058 1.1054 1.1054 1.1054 0 0 1 1.1058-1.1054z" fill="url(#linearGradient1424)" stroke-width=".044952"/>
 <ellipse cx="12.979" cy="12.98" rx="1.1134" ry="1.1129" fill="url(#linearGradient14)" stroke-width=".42903"/>
</svg>
