<svg width="64" height="64" version="1.1" viewBox="0 0 16.933 16.933" xmlns="http://www.w3.org/2000/svg">
 <defs>
  <filter id="filter1178" x="-.048" y="-.048" width="1.096" height="1.096" color-interpolation-filters="sRGB">
   <feGaussianBlur stdDeviation="0.30691955"/>
  </filter>
  <linearGradient id="linearGradient1340" x1="8.5011" x2="8.489" y1="16.007" y2=".79375" gradientUnits="userSpaceOnUse">
   <stop stop-color="#2e3440" offset="0"/>
   <stop stop-color="#4c566a" offset="1"/>
  </linearGradient>
  <linearGradient id="b" x1="-241.22" x2="-241.22" y1="231.54" y2="240.93" gradientTransform="matrix(.12464 0 0 .12406 37.685 -23.461)" gradientUnits="userSpaceOnUse">
   <stop stop-color="#d8dee9" offset="0"/>
   <stop stop-color="#a6aebf" offset="1"/>
  </linearGradient>
  <linearGradient id="linearGradient1120" x1="-230.59" x2="-128.89" y1="205.2" y2="247.06" gradientUnits="userSpaceOnUse">
   <stop stop-color="#fcfcfc" offset="0"/>
   <stop stop-color="#e3e3e3" offset="1"/>
  </linearGradient>
 </defs>
 <g stroke-linecap="round" stroke-linejoin="round">
  <rect transform="matrix(.99138 0 0 1 .072989 .0019055)" x=".79375" y=".90545" width="15.346" height="15.346" rx="3.0526" ry="3.0526" fill="#000000" filter="url(#filter1178)" opacity=".15" stroke-width="1.2489" style="mix-blend-mode:normal"/>
  <rect x=".92604" y=".92604" width="15.081" height="15.081" rx="3" ry="3" fill="url(#linearGradient1340)" stroke-width="1.2274"/>
  <rect x=".01215" y=".0060174" width="16.924" height="16.927" fill="none" opacity=".15" stroke-width="1.052"/>
 </g>
 <g transform="matrix(.94204 0 0 .94204 .64737 .45285)">
  <rect x="1.7331" y="4.8464" width="13.15" height="7.327" ry=".27964" fill="url(#b)" stroke="#7b88a1" stroke-linecap="round" stroke-linejoin="round" stroke-width=".10397"/>
  <g transform="matrix(.12464 0 0 .12406 30.664 -18.679)" opacity=".25" stroke-width="1.9907">
   <rect x="-230.59" y="201.44" width="6.5692" height="3.7538" ry=".54973" opacity="1"/>
   <rect x="-222.96" y="201.44" width="6.5692" height="3.7538" ry=".54973" opacity="1"/>
   <rect x="-215.24" y="201.44" width="6.5692" height="3.7538" ry=".54973" opacity="1"/>
   <rect x="-207.61" y="201.44" width="6.5692" height="3.7538" ry=".54973" opacity="1"/>
   <rect x="-199.89" y="201.44" width="6.5692" height="3.7538" ry=".54973" opacity="1"/>
   <rect x="-192.27" y="201.44" width="6.5692" height="3.7538" ry=".54973" opacity="1"/>
   <rect x="-184.55" y="201.44" width="6.5692" height="3.7538" ry=".54973" opacity="1"/>
   <rect x="-176.92" y="201.44" width="6.5692" height="3.7538" ry=".54973" opacity="1"/>
   <rect x="-169.2" y="201.44" width="6.5692" height="3.7538" ry=".54973" opacity="1"/>
   <rect x="-161.58" y="201.44" width="6.5692" height="3.7538" ry=".54973" opacity="1"/>
   <rect x="-153.86" y="201.44" width="6.5692" height="3.7538" ry=".54973" opacity="1"/>
   <rect x="-146.23" y="201.44" width="6.5692" height="3.7538" ry=".54973" opacity="1"/>
   <rect x="-132.82" y="201.44" width="4.5534" height="3.7538" ry=".54973" opacity="1"/>
   <rect x="-230.59" y="206.34" width="7.0971" height="7.3317" ry=".78043" opacity="1"/>
   <rect x="-222.12" y="206.34" width="7.0971" height="7.3317" ry=".78043" opacity="1"/>
   <rect x="-213.65" y="206.34" width="7.0971" height="7.3317" ry=".78043" opacity="1"/>
   <rect x="-205.19" y="206.34" width="7.0971" height="7.3317" ry=".78043" opacity="1"/>
   <rect x="-196.72" y="206.34" width="7.0971" height="7.3317" ry=".78043" opacity="1"/>
   <rect x="-188.25" y="206.34" width="7.0971" height="7.3317" ry=".78043" opacity="1"/>
   <rect x="-179.79" y="206.34" width="7.0971" height="7.3317" ry=".78043" opacity="1"/>
   <rect x="-171.32" y="206.34" width="7.0971" height="7.3317" ry=".78043" opacity="1"/>
   <rect x="-163.16" y="206.34" width="7.0971" height="7.3317" ry=".78043" opacity="1"/>
   <rect x="-154.7" y="206.34" width="7.0971" height="7.3317" ry=".78043" opacity="1"/>
   <rect x="-146.23" y="206.34" width="7.0971" height="7.3317" ry=".78043" opacity="1"/>
   <rect x="-137.78" y="206.34" width="9.5077" height="7.3317" ry=".78043" opacity="1"/>
   <rect x="-138.44" y="201.44" width="4.5534" height="3.7538" ry=".54973" opacity="1"/>
   <rect x="-230.35" y="214.78" width="10.264" height="7.2144" ry=".76795" opacity="1"/>
   <rect x="-218.5" y="214.78" width="6.7805" height="7.214" ry=".7679" opacity="1"/>
   <rect x="-210.38" y="214.78" width="6.7805" height="7.214" ry=".7679" opacity="1"/>
   <rect x="-201.84" y="214.78" width="6.7805" height="7.214" ry=".7679" opacity="1"/>
   <rect x="-193.72" y="214.78" width="6.7805" height="7.214" ry=".7679" opacity="1"/>
   <rect x="-185.18" y="214.78" width="6.7805" height="7.214" ry=".7679" opacity="1"/>
   <rect x="-177.06" y="214.78" width="6.7805" height="7.214" ry=".7679" opacity="1"/>
   <rect x="-168.53" y="214.78" width="6.7805" height="7.214" ry=".7679" opacity="1"/>
   <rect x="-160.41" y="214.78" width="6.7805" height="7.214" ry=".7679" opacity="1"/>
   <rect x="-152.03" y="214.78" width="6.7805" height="7.214" ry=".7679" opacity="1"/>
   <rect x="-143.91" y="214.78" width="6.7805" height="7.214" ry=".7679" opacity="1"/>
   <rect x="-135.58" y="214.78" width="6.7805" height="7.214" ry=".7679" opacity="1"/>
   <rect x="-230.35" y="223.18" width="12.732" height="7.2144" ry=".76795" opacity="1"/>
   <rect x="-216.15" y="223.18" width="6.7805" height="7.214" ry=".7679" opacity="1"/>
   <rect x="-208.09" y="223.18" width="6.7805" height="7.214" ry=".7679" opacity="1"/>
   <rect x="-199.56" y="223.18" width="6.7805" height="7.214" ry=".7679" opacity="1"/>
   <rect x="-191.44" y="223.18" width="6.7805" height="7.214" ry=".7679" opacity="1"/>
   <rect x="-182.9" y="223.18" width="6.7805" height="7.214" ry=".7679" opacity="1"/>
   <rect x="-174.78" y="223.18" width="6.7805" height="7.214" ry=".7679" opacity="1"/>
   <rect x="-166.24" y="223.18" width="6.7805" height="7.214" ry=".7679" opacity="1"/>
   <rect x="-158.12" y="223.18" width="6.7805" height="7.214" ry=".7679" opacity="1"/>
   <rect x="-149.74" y="223.18" width="6.7805" height="7.214" ry=".7679" opacity="1"/>
   <rect x="-141.2" y="223.18" width="13.063" height="7.214" ry=".7679" opacity="1"/>
   <rect x="-230.35" y="231.45" width="15.175" height="7.2144" ry=".76795" opacity="1"/>
   <rect x="-213.59" y="231.45" width="6.7805" height="7.214" ry=".7679" opacity="1"/>
   <rect x="-205.47" y="231.45" width="6.7805" height="7.214" ry=".7679" opacity="1"/>
   <rect x="-196.93" y="231.45" width="6.7805" height="7.214" ry=".7679" opacity="1"/>
   <rect x="-188.81" y="231.45" width="6.7805" height="7.214" ry=".7679" opacity="1"/>
   <rect x="-180.27" y="231.45" width="6.7805" height="7.214" ry=".7679" opacity="1"/>
   <rect x="-172.15" y="231.45" width="6.7805" height="7.214" ry=".7679" opacity="1"/>
   <rect x="-163.77" y="231.45" width="6.7805" height="7.214" ry=".7679" opacity="1"/>
   <rect x="-147" y="231.45" width="18.862" height="7.214" ry=".7679" opacity="1"/>
   <rect x="-155.41" y="231.45" width="6.7805" height="7.214" ry=".7679" opacity="1"/>
   <rect x="-230.25" y="239.85" width="6.7805" height="7.214" ry=".7679" opacity="1"/>
   <rect x="-222.13" y="239.85" width="6.7805" height="7.214" ry=".7679" opacity="1"/>
   <rect x="-213.59" y="239.85" width="6.7805" height="7.214" ry=".7679" opacity="1"/>
   <rect x="-205.47" y="239.85" width="6.7805" height="7.214" ry=".7679" opacity="1"/>
   <rect x="-197.1" y="239.85" width="32.258" height="7.214" ry=".7679" opacity="1"/>
   <rect x="-163.77" y="239.85" width="6.7805" height="7.214" ry=".7679" opacity="1"/>
   <rect x="-155.41" y="239.85" width="6.7805" height="7.214" ry=".7679" opacity="1"/>
   <rect x="-141.59" y="239.85" width="6.7805" height="7.214" ry=".7679" opacity="1"/>
   <rect x="-134.28" y="243.08" width="5.3845" height="3.9857" ry=".42426" opacity="1"/>
   <rect x="-147.5" y="243.08" width="5.3845" height="3.9857" ry=".42426" opacity="1"/>
  </g>
  <g transform="matrix(.12464 0 0 .12406 30.664 -18.774)" fill="url(#linearGradient1120)" stroke="#7b88a1" stroke-linecap="round" stroke-linejoin="round" stroke-width=".65364">
   <rect x="-230.59" y="201.44" width="6.5692" height="3.7538" ry=".54973"/>
   <rect x="-222.96" y="201.44" width="6.5692" height="3.7538" ry=".54973"/>
   <rect x="-215.24" y="201.44" width="6.5692" height="3.7538" ry=".54973"/>
   <rect x="-207.61" y="201.44" width="6.5692" height="3.7538" ry=".54973"/>
   <rect x="-199.89" y="201.44" width="6.5692" height="3.7538" ry=".54973"/>
   <rect x="-192.27" y="201.44" width="6.5692" height="3.7538" ry=".54973"/>
   <rect x="-184.55" y="201.44" width="6.5692" height="3.7538" ry=".54973"/>
   <rect x="-176.92" y="201.44" width="6.5692" height="3.7538" ry=".54973"/>
   <rect x="-169.2" y="201.44" width="6.5692" height="3.7538" ry=".54973"/>
   <rect x="-161.58" y="201.44" width="6.5692" height="3.7538" ry=".54973"/>
   <rect x="-153.86" y="201.44" width="6.5692" height="3.7538" ry=".54973"/>
   <rect x="-146.23" y="201.44" width="6.5692" height="3.7538" ry=".54973"/>
   <rect x="-132.82" y="201.44" width="4.5534" height="3.7538" ry=".54973"/>
   <rect x="-230.59" y="206.34" width="7.0971" height="7.3317" ry=".78043"/>
   <rect x="-222.12" y="206.34" width="7.0971" height="7.3317" ry=".78043"/>
   <rect x="-213.65" y="206.34" width="7.0971" height="7.3317" ry=".78043"/>
   <rect x="-205.19" y="206.34" width="7.0971" height="7.3317" ry=".78043"/>
   <rect x="-196.72" y="206.34" width="7.0971" height="7.3317" ry=".78043"/>
   <rect x="-188.25" y="206.34" width="7.0971" height="7.3317" ry=".78043"/>
   <rect x="-179.79" y="206.34" width="7.0971" height="7.3317" ry=".78043"/>
   <rect x="-171.32" y="206.34" width="7.0971" height="7.3317" ry=".78043"/>
   <rect x="-163.16" y="206.34" width="7.0971" height="7.3317" ry=".78043"/>
   <rect x="-154.7" y="206.34" width="7.0971" height="7.3317" ry=".78043"/>
   <rect x="-146.23" y="206.34" width="7.0971" height="7.3317" ry=".78043"/>
   <rect x="-137.78" y="206.34" width="9.5077" height="7.3317" ry=".78043"/>
   <rect x="-138.44" y="201.44" width="4.5534" height="3.7538" ry=".54973"/>
   <rect x="-230.35" y="214.78" width="10.264" height="7.2144" ry=".76795"/>
   <rect x="-218.5" y="214.78" width="6.7805" height="7.214" ry=".7679"/>
   <rect x="-210.38" y="214.78" width="6.7805" height="7.214" ry=".7679"/>
   <rect x="-201.84" y="214.78" width="6.7805" height="7.214" ry=".7679"/>
   <rect x="-193.72" y="214.78" width="6.7805" height="7.214" ry=".7679"/>
   <rect x="-185.18" y="214.78" width="6.7805" height="7.214" ry=".7679"/>
   <rect x="-177.06" y="214.78" width="6.7805" height="7.214" ry=".7679"/>
   <rect x="-168.53" y="214.78" width="6.7805" height="7.214" ry=".7679"/>
   <rect x="-160.41" y="214.78" width="6.7805" height="7.214" ry=".7679"/>
   <rect x="-152.03" y="214.78" width="6.7805" height="7.214" ry=".7679"/>
   <rect x="-143.91" y="214.78" width="6.7805" height="7.214" ry=".7679"/>
   <rect x="-135.58" y="214.78" width="6.7805" height="7.214" ry=".7679"/>
   <rect x="-230.35" y="223.18" width="12.732" height="7.2144" ry=".76795"/>
   <rect x="-216.15" y="223.18" width="6.7805" height="7.214" ry=".7679"/>
   <rect x="-208.09" y="223.18" width="6.7805" height="7.214" ry=".7679"/>
   <rect x="-199.56" y="223.18" width="6.7805" height="7.214" ry=".7679"/>
   <rect x="-191.44" y="223.18" width="6.7805" height="7.214" ry=".7679"/>
   <rect x="-182.9" y="223.18" width="6.7805" height="7.214" ry=".7679"/>
   <rect x="-174.78" y="223.18" width="6.7805" height="7.214" ry=".7679"/>
   <rect x="-166.24" y="223.18" width="6.7805" height="7.214" ry=".7679"/>
   <rect x="-158.12" y="223.18" width="6.7805" height="7.214" ry=".7679"/>
   <rect x="-149.74" y="223.18" width="6.7805" height="7.214" ry=".7679"/>
   <rect x="-141.2" y="223.18" width="13.063" height="7.214" ry=".7679"/>
   <rect x="-230.35" y="231.45" width="15.175" height="7.2144" ry=".76795"/>
   <rect x="-213.59" y="231.45" width="6.7805" height="7.214" ry=".7679"/>
   <rect x="-205.47" y="231.45" width="6.7805" height="7.214" ry=".7679"/>
   <rect x="-196.93" y="231.45" width="6.7805" height="7.214" ry=".7679"/>
   <rect x="-188.81" y="231.45" width="6.7805" height="7.214" ry=".7679"/>
   <rect x="-180.27" y="231.45" width="6.7805" height="7.214" ry=".7679"/>
   <rect x="-172.15" y="231.45" width="6.7805" height="7.214" ry=".7679"/>
   <rect x="-163.77" y="231.45" width="6.7805" height="7.214" ry=".7679"/>
   <rect x="-147" y="231.45" width="18.862" height="7.214" ry=".7679"/>
   <rect x="-155.41" y="231.45" width="6.7805" height="7.214" ry=".7679"/>
   <rect x="-230.25" y="239.85" width="6.7805" height="7.214" ry=".7679"/>
   <rect x="-222.13" y="239.85" width="6.7805" height="7.214" ry=".7679"/>
   <rect x="-213.59" y="239.85" width="6.7805" height="7.214" ry=".7679"/>
   <rect x="-205.47" y="239.85" width="6.7805" height="7.214" ry=".7679"/>
   <rect x="-197.1" y="239.85" width="32.258" height="7.214" ry=".7679"/>
   <rect x="-163.77" y="239.85" width="6.7805" height="7.214" ry=".7679"/>
   <rect x="-155.41" y="239.85" width="6.7805" height="7.214" ry=".7679"/>
   <rect x="-141.59" y="239.85" width="6.7805" height="7.214" ry=".7679"/>
   <rect x="-134.28" y="243.08" width="5.3845" height="3.9857" ry=".42426"/>
   <rect x="-147.5" y="243.08" width="5.3845" height="3.9857" ry=".42426"/>
  </g>
 </g>
</svg>
