<svg width="64" height="64" version="1.1" viewBox="0 0 16.933 16.933" xmlns="http://www.w3.org/2000/svg">
 <defs>
  <filter id="filter1178" x="-.047999" y="-.047999" width="1.096" height="1.096" color-interpolation-filters="sRGB">
   <feGaussianBlur stdDeviation="0.30691668"/>
  </filter>
  <linearGradient id="linearGradient1340" x1="8.355" x2="8.3996" y1="16.007" y2=".79375" gradientUnits="userSpaceOnUse">
   <stop stop-color="#d8dee9" offset="0"/>
   <stop stop-color="#eceff4" offset="1"/>
  </linearGradient>
  <linearGradient id="linearGradient484" x1="46.907" x2="45.558" y1="-1.6207" y2="6.5141" gradientUnits="userSpaceOnUse">
   <stop stop-color="#e3b75e" offset="0"/>
   <stop stop-color="#ebcb8b" offset="1"/>
  </linearGradient>
  <linearGradient id="linearGradient579" x1="39.817" x2="47.537" y1="7.4282" y2="4.5293" gradientUnits="userSpaceOnUse">
   <stop stop-color="#8bae70" offset="0"/>
   <stop stop-color="#a3be8c" offset="1"/>
  </linearGradient>
  <linearGradient id="linearGradient587" x1="51.245" x2="44.874" y1="9.1321" y2="3.8961" gradientUnits="userSpaceOnUse">
   <stop stop-color="#5e81ac" offset="0"/>
   <stop stop-color="#81a1c1" offset="1"/>
  </linearGradient>
  <filter id="filter1148" x="-.025343" y="-.067487" width="1.0507" height="1.135" color-interpolation-filters="sRGB">
   <feGaussianBlur stdDeviation="0.081515458"/>
  </filter>
  <filter id="filter1201" x="-.031801" y="-.038691" width="1.0636" height="1.0774" color-interpolation-filters="sRGB">
   <feGaussianBlur stdDeviation="0.08440988"/>
  </filter>
  <filter id="filter1207" x="-.043999" y="-.025265" width="1.088" height="1.0505" color-interpolation-filters="sRGB">
   <feGaussianBlur stdDeviation="0.08563804"/>
  </filter>
 </defs>
 <g transform="translate(-.0076499 -.0030174)">
  <g stroke-linecap="round" stroke-linejoin="round">
   <rect transform="matrix(.99138 0 0 1 .072989 .0019055)" x=".79375" y=".90545" width="15.346" height="15.346" rx="3.0526" ry="3.0526" fill="#000000" filter="url(#filter1178)" opacity=".15" stroke-width="1.2489" style="mix-blend-mode:normal"/>
   <rect x=".92604" y=".92604" width="15.081" height="15.081" rx="3" ry="3" fill="url(#linearGradient1340)" stroke-width="1.2274"/>
   <rect x=".01215" y=".0060174" width="16.924" height="16.927" fill="none" opacity=".15" stroke-width="1.052"/>
  </g>
 </g>
 <text x="-49.806946" y="19.370577" font-family="sans-serif" font-size="2.8222px" letter-spacing="0px" stroke-width=".26458" word-spacing="0px" style="line-height:1.25" xml:space="preserve"><tspan x="-49.806946" y="19.370577" stroke-width=".26458"/></text>
 <g transform="matrix(1.0489 0 0 1.0489 -39.71 4.0334)" stroke-width=".26458">
  <path d="m45.793 6.4848 3.023-5.236-1.6737-2.8989-2.9976 5.192z" fill="#2e3440" filter="url(#filter1207)" opacity=".24299"/>
  <path d="m45.558 6.5141 3.023-5.236-1.6737-2.8989-2.9976 5.192z" fill="url(#linearGradient484)"/>
  <path d="m45.021 3.7492 3.023 5.236 3.3473-1.8e-6 -2.9976-5.192z" fill="#2e3440" filter="url(#filter1201)" opacity=".24766"/>
  <path d="m44.874 3.8961 3.023 5.236 3.3473-1.8e-6 -2.9976-5.192z" fill="url(#linearGradient587)"/>
  <path d="m47.743 4.4118h-6.046l-1.6737 2.8989h5.9952z" fill="#2e3440" filter="url(#filter1148)" opacity=".29206"/>
  <path d="m47.537 4.5293h-6.046l-1.6737 2.8989h5.9952z" fill="url(#linearGradient579)"/>
 </g>
</svg>
