<svg width="64" height="64" version="1.1" viewBox="0 0 16.933 16.933" xmlns="http://www.w3.org/2000/svg">
 <defs>
  <filter id="filter1178" x="-.022596" y="-.022596" width="1.0452" height="1.0452" color-interpolation-filters="sRGB">
   <feGaussianBlur stdDeviation="0.14448374"/>
  </filter>
  <linearGradient id="linearGradient1340" x1=".92604" x2="16.074" y1="16.007" y2="1.1724" gradientUnits="userSpaceOnUse">
   <stop stop-color="#b48ead" offset="0"/>
   <stop stop-color="#81a1c1" offset=".53763"/>
   <stop stop-color="#a3be8c" offset="1"/>
  </linearGradient>
  <linearGradient id="linearGradient2227" x1="-26.556" x2="-26.556" y1="2.8375" y2="9.6809" gradientUnits="userSpaceOnUse">
   <stop stop-color="#c0a0b9" offset="0"/>
   <stop stop-color="#ad85a5" offset="1"/>
  </linearGradient>
  <linearGradient id="linearGradient2299" x1="-22.798" x2="-22.798" y1="5.9832" y2="12.849" gradientUnits="userSpaceOnUse">
   <stop stop-color="#81a1c1" offset="0"/>
   <stop stop-color="#5e81ac" offset="1"/>
  </linearGradient>
  <linearGradient id="linearGradient2435" x1="-19.092" x2="-19.092" y1="9.6539" y2="16.596" gradientUnits="userSpaceOnUse">
   <stop stop-color="#aec69a" offset="0"/>
   <stop stop-color="#97b67c" offset="1"/>
  </linearGradient>
  <filter id="filter4097" x="-.061078" y="-.06738" width="1.1222" height="1.1348" color-interpolation-filters="sRGB">
   <feGaussianBlur stdDeviation="0.32014606"/>
  </filter>
 </defs>
 <g stroke-linecap="round" stroke-linejoin="round">
  <rect transform="matrix(.99138 0 0 1 .072989 .0019055)" x=".79375" y=".90545" width="15.346" height="15.346" rx="3.0526" ry="3.0526" fill="#000000" filter="url(#filter1178)" opacity=".15" stroke-width="1.2489" style="mix-blend-mode:normal"/>
  <rect x=".92604" y=".92604" width="15.081" height="15.081" rx="3" ry="3" fill="url(#linearGradient1340)" stroke-width="1.2274"/>
  <rect x=".01215" y=".0060174" width="16.924" height="16.927" fill="none" opacity=".15" stroke-width="1.052"/>
 </g>
 <g transform="matrix(.95 0 0 .95 29.844 -.46433)" fill="#2f3541" filter="url(#filter4097)" opacity=".33194">
  <rect x="-29.974" y="2.7236" width="7.0934" height="7.0934" ry="1.2031" opacity="1"/>
  <path d="m-25.035 8.5202c-0.09233-0.05002-0.09607-0.06451-0.09607-0.37231v-0.25684l-0.23-0.0056c-0.24115-0.0059-0.31868-0.01715-0.46759-0.06829-0.08762-0.03009-0.21153-0.09246-0.29778-0.14986-0.09-0.0599-0.24362-0.20637-0.30722-0.29292-0.02719-0.03701-0.28273-0.44034-0.56786-0.89631-0.28513-0.45596-0.53379-0.8524-0.55258-0.88096-0.0805-0.12238-0.19777-0.21323-0.33851-0.26226l-0.08444-0.02942-1.0363-0.0064v-0.64705l0.55353 4e-3c0.59858 0.0043 0.59191 0.0037 0.77595 0.06399 0.10975 0.03595 0.26434 0.11644 0.35765 0.18623 0.09252 0.0692 0.22293 0.20268 0.28627 0.29302 0.02535 0.03614 0.28168 0.44333 0.56963 0.90485s0.54371 0.86416 0.56836 0.89474c0.05868 0.07282 0.13181 0.13235 0.20848 0.16972 0.1174 0.05723 0.15781 0.06495 0.3678 0.07033l0.19462 0.0049v-0.25933c0-0.19887 0.0033-0.26719 0.0141-0.29306 0.03181-0.07611 0.1371-0.11741 0.21053-0.08257 0.04589 0.02178 1.0225 0.83569 1.0463 0.87197 0.02445 0.03731 0.0245 0.13084 8.1e-5 0.16809-0.01501 0.02291-0.91745 0.78371-1.0135 0.85439-0.04117 0.03031-0.12126 0.03869-0.16151 0.01689zm-3.9783-0.95398v-0.32363l0.51814-0.0035c0.57-0.0039 0.55056-0.0019 0.69132-0.07054 0.13343-0.06504 0.19949-0.13864 0.36784-0.4098 0.06299-0.10146 0.11544-0.18335 0.11655-0.18198 0.0098 0.01214 0.37872 0.60694 0.37872 0.61066 0 0.0027-0.03053 0.05123-0.06783 0.10783-0.19124 0.29011-0.46612 0.48161-0.81174 0.5655-0.08019 0.01947-0.12294 0.02113-0.63946 0.025l-0.55353 0.0042zm2.6488-1.8992c-0.10287-0.16462-0.18858-0.30321-0.19047-0.30796-0.0073-0.01821 0.13804-0.21955 0.22045-0.30554 0.18467-0.1927 0.40372-0.31518 0.67268-0.37613 0.04804-0.01088 0.14465-0.01773 0.30078-0.02129l0.23-0.0053v-0.25694c0-0.19683 0.0033-0.26483 0.01409-0.29067 0.03181-0.07611 0.1371-0.11741 0.21053-0.08257 0.04589 0.02178 1.0225 0.83569 1.0463 0.87197 0.02445 0.03731 0.02449 0.13084 8.1e-5 0.16809-0.01637 0.02498-0.9355 0.79813-1.0179 0.85622-0.05267 0.03714-0.1352 0.03545-0.18673-0.0038-0.0633-0.04825-0.06641-0.06491-0.06641-0.35592v-0.25933l-0.19462 0.0045c-0.17896 0.0042-0.20113 0.0068-0.2755 0.03219-0.19395 0.06629-0.26696 0.13704-0.45488 0.44083-0.06019 0.09731-0.11213 0.18007-0.11542 0.18391-0.0033 0.0038-0.09014-0.12771-0.19301-0.29233z" opacity=".3" stroke-width=".01011"/>
  <rect x="-26.27" y="5.8985" width="7.0934" height="7.0934" ry="1.2031" opacity="1"/>
  <path d="m-21.331 11.695c-0.09233-0.05002-0.09607-0.06451-0.09607-0.37231v-0.25684l-0.23-0.0056c-0.24115-0.0059-0.31868-0.01715-0.46759-0.06829-0.08762-0.03009-0.21153-0.09246-0.29778-0.14986-0.09-0.0599-0.24362-0.20637-0.30722-0.29292-0.02719-0.03701-0.28273-0.44034-0.56786-0.89631-0.28513-0.45596-0.53379-0.8524-0.55258-0.88096-0.0805-0.12238-0.19777-0.21323-0.33851-0.26226l-0.08444-0.02942-1.0363-0.0064v-0.64705l0.55353 4e-3c0.59858 0.0043 0.59191 0.0037 0.77595 0.06399 0.10975 0.03595 0.26434 0.11644 0.35765 0.18623 0.09252 0.0692 0.22293 0.20268 0.28627 0.29302 0.02535 0.03614 0.28168 0.44333 0.56963 0.90485s0.54371 0.86416 0.56836 0.89474c0.05868 0.07282 0.13181 0.13235 0.20848 0.16972 0.1174 0.05723 0.15781 0.06495 0.3678 0.07033l0.19462 0.0049v-0.25933c0-0.19887 0.0033-0.26719 0.0141-0.29306 0.03181-0.07611 0.1371-0.11741 0.21053-0.08257 0.04589 0.02178 1.0225 0.83569 1.0463 0.87197 0.02445 0.03731 0.0245 0.13084 8.1e-5 0.16809-0.01501 0.02291-0.91745 0.78371-1.0135 0.85439-0.04117 0.03031-0.12126 0.03869-0.16151 0.01689zm-3.9783-0.95398v-0.32363l0.51814-0.0035c0.57-0.0039 0.55056-0.0019 0.69132-0.07054 0.13343-0.06504 0.19949-0.13864 0.36784-0.4098 0.06299-0.10146 0.11544-0.18335 0.11655-0.18198 0.0098 0.01214 0.37872 0.60694 0.37872 0.61066 0 0.0027-0.03053 0.05123-0.06783 0.10783-0.19124 0.29011-0.46612 0.48161-0.81174 0.5655-0.08019 0.01947-0.12294 0.02113-0.63946 0.025l-0.55353 0.0042zm2.6488-1.8992c-0.10287-0.16462-0.18858-0.30321-0.19047-0.30796-0.0073-0.01821 0.13804-0.21955 0.22045-0.30554 0.18467-0.1927 0.40372-0.31518 0.67268-0.37613 0.04804-0.01088 0.14465-0.01773 0.30078-0.02129l0.23-0.0053v-0.25694c0-0.19683 0.0033-0.26483 0.01409-0.29067 0.03181-0.07611 0.1371-0.11741 0.21053-0.08257 0.04589 0.02178 1.0225 0.83569 1.0463 0.87197 0.02445 0.03731 0.02449 0.13084 8.1e-5 0.16809-0.01637 0.02498-0.9355 0.79813-1.0179 0.85622-0.05267 0.03714-0.1352 0.03545-0.18673-0.0038-0.0633-0.04825-0.06641-0.06491-0.06641-0.35592v-0.25933l-0.19462 0.0045c-0.17896 0.0042-0.20113 0.0068-0.2755 0.03219-0.19395 0.06629-0.26696 0.13704-0.45488 0.44083-0.06019 0.09731-0.11213 0.18007-0.11542 0.18391-0.0033 0.0038-0.09014-0.12771-0.19301-0.29233z" opacity=".3" stroke-width=".01011"/>
  <rect x="-22.566" y="9.6026" width="7.0934" height="7.0934" ry="1.2031" opacity="1"/>
  <path d="m-17.626 15.399c-0.09233-0.05002-0.09607-0.06451-0.09607-0.37231v-0.25684l-0.23-0.0056c-0.24115-0.0059-0.31868-0.01715-0.46759-0.06829-0.08762-0.03009-0.21153-0.09246-0.29778-0.14986-0.09-0.0599-0.24362-0.20637-0.30722-0.29292-0.02719-0.03701-0.28273-0.44034-0.56786-0.89631-0.28513-0.45596-0.53379-0.8524-0.55258-0.88096-0.0805-0.12238-0.19777-0.21323-0.33851-0.26226l-0.08444-0.02942-1.0363-0.0064v-0.64705l0.55353 4e-3c0.59858 0.0043 0.59191 0.0037 0.77595 0.06399 0.10975 0.03595 0.26434 0.11644 0.35765 0.18623 0.09252 0.0692 0.22293 0.20268 0.28627 0.29302 0.02535 0.03614 0.28168 0.44333 0.56963 0.90485s0.54371 0.86416 0.56836 0.89474c0.05868 0.07282 0.13181 0.13235 0.20848 0.16972 0.1174 0.05723 0.15781 0.06495 0.3678 0.07033l0.19462 0.0049v-0.25933c0-0.19887 0.0033-0.26719 0.0141-0.29306 0.03181-0.07611 0.1371-0.11741 0.21053-0.08257 0.04589 0.02178 1.0225 0.83569 1.0463 0.87197 0.02445 0.03731 0.0245 0.13084 8.1e-5 0.16809-0.01501 0.02291-0.91745 0.78371-1.0135 0.85439-0.04117 0.03031-0.12126 0.03869-0.16151 0.01689zm-3.9783-0.95398v-0.32363l0.51814-0.0035c0.57-0.0039 0.55056-0.0019 0.69132-0.07054 0.13343-0.06504 0.19949-0.13864 0.36784-0.4098 0.06299-0.10146 0.11544-0.18335 0.11655-0.18198 0.0098 0.01214 0.37872 0.60694 0.37872 0.61066 0 0.0027-0.03053 0.05123-0.06783 0.10783-0.19124 0.29011-0.46612 0.48161-0.81174 0.5655-0.08019 0.01947-0.12294 0.02113-0.63946 0.025l-0.55353 0.0042zm2.6488-1.8992c-0.10287-0.16462-0.18858-0.30321-0.19047-0.30796-0.0073-0.01821 0.13804-0.21955 0.22045-0.30554 0.18467-0.1927 0.40372-0.31518 0.67268-0.37613 0.04804-0.01088 0.14465-0.01773 0.30078-0.02129l0.23-0.0053v-0.25694c0-0.19683 0.0033-0.26483 0.01409-0.29067 0.03181-0.07611 0.1371-0.11741 0.21053-0.08257 0.04589 0.02178 1.0225 0.83569 1.0463 0.87197 0.02445 0.03731 0.02449 0.13084 8.1e-5 0.16809-0.01637 0.02498-0.9355 0.79813-1.0179 0.85622-0.05267 0.03714-0.1352 0.03545-0.18673-0.0038-0.0633-0.04825-0.06641-0.06491-0.06641-0.35592v-0.25933l-0.19462 0.0045c-0.17896 0.0042-0.20113 0.0068-0.2755 0.03219-0.19395 0.06629-0.26696 0.13704-0.45488 0.44083-0.06019 0.09731-0.11213 0.18007-0.11542 0.18391-0.0033 0.0038-0.09014-0.12771-0.19301-0.29233z" opacity=".3" stroke-width=".01011"/>
 </g>
 <g transform="matrix(.95 0 0 .95 30.053 -.75773)">
  <rect x="-29.974" y="2.7236" width="7.0934" height="7.0934" ry="1.2031" fill="url(#linearGradient2227)"/>
  <path d="m-25.035 8.5202c-0.09233-0.05002-0.09607-0.06451-0.09607-0.37231v-0.25684l-0.23-0.0056c-0.24115-0.0059-0.31868-0.01715-0.46759-0.06829-0.08762-0.03009-0.21153-0.09246-0.29778-0.14986-0.09-0.0599-0.24362-0.20637-0.30722-0.29292-0.02719-0.03701-0.28273-0.44034-0.56786-0.89631-0.28513-0.45596-0.53379-0.8524-0.55258-0.88096-0.0805-0.12238-0.19777-0.21323-0.33851-0.26226l-0.08444-0.02942-1.0363-0.0064v-0.64705l0.55353 4e-3c0.59858 0.0043 0.59191 0.0037 0.77595 0.06399 0.10975 0.03595 0.26434 0.11644 0.35765 0.18623 0.09252 0.0692 0.22293 0.20268 0.28627 0.29302 0.02535 0.03614 0.28168 0.44333 0.56963 0.90485s0.54371 0.86416 0.56836 0.89474c0.05868 0.07282 0.13181 0.13235 0.20848 0.16972 0.1174 0.05723 0.15781 0.06495 0.3678 0.07033l0.19462 0.0049v-0.25933c0-0.19887 0.0033-0.26719 0.0141-0.29306 0.03181-0.07611 0.1371-0.11741 0.21053-0.08257 0.04589 0.02178 1.0225 0.83569 1.0463 0.87197 0.02445 0.03731 0.0245 0.13084 8.1e-5 0.16809-0.01501 0.02291-0.91745 0.78371-1.0135 0.85439-0.04117 0.03031-0.12126 0.03869-0.16151 0.01689zm-3.9783-0.95398v-0.32363l0.51814-0.0035c0.57-0.0039 0.55056-0.0019 0.69132-0.07054 0.13343-0.06504 0.19949-0.13864 0.36784-0.4098 0.06299-0.10146 0.11544-0.18335 0.11655-0.18198 0.0098 0.01214 0.37872 0.60694 0.37872 0.61066 0 0.0027-0.03053 0.05123-0.06783 0.10783-0.19124 0.29011-0.46612 0.48161-0.81174 0.5655-0.08019 0.01947-0.12294 0.02113-0.63946 0.025l-0.55353 0.0042zm2.6488-1.8992c-0.10287-0.16462-0.18858-0.30321-0.19047-0.30796-0.0073-0.01821 0.13804-0.21955 0.22045-0.30554 0.18467-0.1927 0.40372-0.31518 0.67268-0.37613 0.04804-0.01088 0.14465-0.01773 0.30078-0.02129l0.23-0.0053v-0.25694c0-0.19683 0.0033-0.26483 0.01409-0.29067 0.03181-0.07611 0.1371-0.11741 0.21053-0.08257 0.04589 0.02178 1.0225 0.83569 1.0463 0.87197 0.02445 0.03731 0.02449 0.13084 8.1e-5 0.16809-0.01637 0.02498-0.9355 0.79813-1.0179 0.85622-0.05267 0.03714-0.1352 0.03545-0.18673-0.0038-0.0633-0.04825-0.06641-0.06491-0.06641-0.35592v-0.25933l-0.19462 0.0045c-0.17896 0.0042-0.20113 0.0068-0.2755 0.03219-0.19395 0.06629-0.26696 0.13704-0.45488 0.44083-0.06019 0.09731-0.11213 0.18007-0.11542 0.18391-0.0033 0.0038-0.09014-0.12771-0.19301-0.29233z" opacity=".3" stroke-width=".01011"/>
  <rect x="-26.27" y="5.8985" width="7.0934" height="7.0934" ry="1.2031" fill="url(#linearGradient2299)"/>
  <path d="m-21.331 11.695c-0.09233-0.05002-0.09607-0.06451-0.09607-0.37231v-0.25684l-0.23-0.0056c-0.24115-0.0059-0.31868-0.01715-0.46759-0.06829-0.08762-0.03009-0.21153-0.09246-0.29778-0.14986-0.09-0.0599-0.24362-0.20637-0.30722-0.29292-0.02719-0.03701-0.28273-0.44034-0.56786-0.89631-0.28513-0.45596-0.53379-0.8524-0.55258-0.88096-0.0805-0.12238-0.19777-0.21323-0.33851-0.26226l-0.08444-0.02942-1.0363-0.0064v-0.64705l0.55353 4e-3c0.59858 0.0043 0.59191 0.0037 0.77595 0.06399 0.10975 0.03595 0.26434 0.11644 0.35765 0.18623 0.09252 0.0692 0.22293 0.20268 0.28627 0.29302 0.02535 0.03614 0.28168 0.44333 0.56963 0.90485s0.54371 0.86416 0.56836 0.89474c0.05868 0.07282 0.13181 0.13235 0.20848 0.16972 0.1174 0.05723 0.15781 0.06495 0.3678 0.07033l0.19462 0.0049v-0.25933c0-0.19887 0.0033-0.26719 0.0141-0.29306 0.03181-0.07611 0.1371-0.11741 0.21053-0.08257 0.04589 0.02178 1.0225 0.83569 1.0463 0.87197 0.02445 0.03731 0.0245 0.13084 8.1e-5 0.16809-0.01501 0.02291-0.91745 0.78371-1.0135 0.85439-0.04117 0.03031-0.12126 0.03869-0.16151 0.01689zm-3.9783-0.95398v-0.32363l0.51814-0.0035c0.57-0.0039 0.55056-0.0019 0.69132-0.07054 0.13343-0.06504 0.19949-0.13864 0.36784-0.4098 0.06299-0.10146 0.11544-0.18335 0.11655-0.18198 0.0098 0.01214 0.37872 0.60694 0.37872 0.61066 0 0.0027-0.03053 0.05123-0.06783 0.10783-0.19124 0.29011-0.46612 0.48161-0.81174 0.5655-0.08019 0.01947-0.12294 0.02113-0.63946 0.025l-0.55353 0.0042zm2.6488-1.8992c-0.10287-0.16462-0.18858-0.30321-0.19047-0.30796-0.0073-0.01821 0.13804-0.21955 0.22045-0.30554 0.18467-0.1927 0.40372-0.31518 0.67268-0.37613 0.04804-0.01088 0.14465-0.01773 0.30078-0.02129l0.23-0.0053v-0.25694c0-0.19683 0.0033-0.26483 0.01409-0.29067 0.03181-0.07611 0.1371-0.11741 0.21053-0.08257 0.04589 0.02178 1.0225 0.83569 1.0463 0.87197 0.02445 0.03731 0.02449 0.13084 8.1e-5 0.16809-0.01637 0.02498-0.9355 0.79813-1.0179 0.85622-0.05267 0.03714-0.1352 0.03545-0.18673-0.0038-0.0633-0.04825-0.06641-0.06491-0.06641-0.35592v-0.25933l-0.19462 0.0045c-0.17896 0.0042-0.20113 0.0068-0.2755 0.03219-0.19395 0.06629-0.26696 0.13704-0.45488 0.44083-0.06019 0.09731-0.11213 0.18007-0.11542 0.18391-0.0033 0.0038-0.09014-0.12771-0.19301-0.29233z" opacity=".3" stroke-width=".01011"/>
  <rect x="-22.566" y="9.6026" width="7.0934" height="7.0934" ry="1.2031" fill="url(#linearGradient2435)"/>
  <path d="m-17.626 15.399c-0.09233-0.05002-0.09607-0.06451-0.09607-0.37231v-0.25684l-0.23-0.0056c-0.24115-0.0059-0.31868-0.01715-0.46759-0.06829-0.08762-0.03009-0.21153-0.09246-0.29778-0.14986-0.09-0.0599-0.24362-0.20637-0.30722-0.29292-0.02719-0.03701-0.28273-0.44034-0.56786-0.89631-0.28513-0.45596-0.53379-0.8524-0.55258-0.88096-0.0805-0.12238-0.19777-0.21323-0.33851-0.26226l-0.08444-0.02942-1.0363-0.0064v-0.64705l0.55353 4e-3c0.59858 0.0043 0.59191 0.0037 0.77595 0.06399 0.10975 0.03595 0.26434 0.11644 0.35765 0.18623 0.09252 0.0692 0.22293 0.20268 0.28627 0.29302 0.02535 0.03614 0.28168 0.44333 0.56963 0.90485s0.54371 0.86416 0.56836 0.89474c0.05868 0.07282 0.13181 0.13235 0.20848 0.16972 0.1174 0.05723 0.15781 0.06495 0.3678 0.07033l0.19462 0.0049v-0.25933c0-0.19887 0.0033-0.26719 0.0141-0.29306 0.03181-0.07611 0.1371-0.11741 0.21053-0.08257 0.04589 0.02178 1.0225 0.83569 1.0463 0.87197 0.02445 0.03731 0.0245 0.13084 8.1e-5 0.16809-0.01501 0.02291-0.91745 0.78371-1.0135 0.85439-0.04117 0.03031-0.12126 0.03869-0.16151 0.01689zm-3.9783-0.95398v-0.32363l0.51814-0.0035c0.57-0.0039 0.55056-0.0019 0.69132-0.07054 0.13343-0.06504 0.19949-0.13864 0.36784-0.4098 0.06299-0.10146 0.11544-0.18335 0.11655-0.18198 0.0098 0.01214 0.37872 0.60694 0.37872 0.61066 0 0.0027-0.03053 0.05123-0.06783 0.10783-0.19124 0.29011-0.46612 0.48161-0.81174 0.5655-0.08019 0.01947-0.12294 0.02113-0.63946 0.025l-0.55353 0.0042zm2.6488-1.8992c-0.10287-0.16462-0.18858-0.30321-0.19047-0.30796-0.0073-0.01821 0.13804-0.21955 0.22045-0.30554 0.18467-0.1927 0.40372-0.31518 0.67268-0.37613 0.04804-0.01088 0.14465-0.01773 0.30078-0.02129l0.23-0.0053v-0.25694c0-0.19683 0.0033-0.26483 0.01409-0.29067 0.03181-0.07611 0.1371-0.11741 0.21053-0.08257 0.04589 0.02178 1.0225 0.83569 1.0463 0.87197 0.02445 0.03731 0.02449 0.13084 8.1e-5 0.16809-0.01637 0.02498-0.9355 0.79813-1.0179 0.85622-0.05267 0.03714-0.1352 0.03545-0.18673-0.0038-0.0633-0.04825-0.06641-0.06491-0.06641-0.35592v-0.25933l-0.19462 0.0045c-0.17896 0.0042-0.20113 0.0068-0.2755 0.03219-0.19395 0.06629-0.26696 0.13704-0.45488 0.44083-0.06019 0.09731-0.11213 0.18007-0.11542 0.18391-0.0033 0.0038-0.09014-0.12771-0.19301-0.29233z" opacity=".3" stroke-width=".01011"/>
 </g>
</svg>
