<?xml version="1.0" encoding="UTF-8"?>
<svg width="64" height="64" version="1.1" viewBox="0 0 16.933 16.933" xmlns="http://www.w3.org/2000/svg">
 <defs>
  <filter id="filter1178" x="-.022596" y="-.022596" width="1.0452" height="1.0452" color-interpolation-filters="sRGB">
   <feGaussianBlur stdDeviation="0.14448374"/>
  </filter>
  <linearGradient id="linearGradient1340" x1=".92604" x2="16.074" y1="16.007" y2="1.1724" gradientUnits="userSpaceOnUse">
   <stop stop-color="#b48ead" offset="0"/>
   <stop stop-color="#81a1c1" offset=".53763"/>
   <stop stop-color="#a3be8c" offset="1"/>
  </linearGradient>
  <linearGradient id="linearGradient2227" x1="-26.556" x2="-26.556" y1="2.8375" y2="9.6809" gradientTransform="matrix(.95 0 0 .95 30.053 -.75773)" gradientUnits="userSpaceOnUse">
   <stop stop-color="#b48ead" offset="0"/>
   <stop stop-color="#ad85a5" offset="1"/>
  </linearGradient>
  <linearGradient id="linearGradient2299" x1="-22.798" x2="-22.798" y1="5.9832" y2="12.849" gradientTransform="matrix(.95 0 0 .95 30.053 -.75773)" gradientUnits="userSpaceOnUse">
   <stop stop-color="#81a1c1" offset="0"/>
   <stop stop-color="#5e81ac" offset="1"/>
  </linearGradient>
  <linearGradient id="linearGradient2435" x1="-19.092" x2="-19.092" y1="9.6539" y2="16.596" gradientTransform="matrix(.95 0 0 .95 30.053 -.75773)" gradientUnits="userSpaceOnUse">
   <stop stop-color="#a3be8c" offset="0"/>
   <stop stop-color="#97b67c" offset="1"/>
  </linearGradient>
  <filter id="filter4097" x="-.052985" y="-.054991" width="1.106" height="1.11" color-interpolation-filters="sRGB">
   <feGaussianBlur stdDeviation="0.32014606"/>
  </filter>
 </defs>
 <g stroke-linecap="round" stroke-linejoin="round">
  <rect transform="matrix(.99138 0 0 1 .072989 .0019055)" x=".79375" y=".90545" width="15.346" height="15.346" rx="3.0526" ry="3.0526" filter="url(#filter1178)" opacity=".15" stroke-width="1.2489" style="mix-blend-mode:normal"/>
  <rect x=".92604" y=".92604" width="15.081" height="15.081" rx="3" ry="3" fill="url(#linearGradient1340)" stroke-width="1.2274"/>
  <rect x=".01215" y=".0060174" width="16.924" height="16.927" fill="none" opacity=".15" stroke-width="1.052"/>
 </g>
 <g transform="matrix(.95 0 0 .95 29.844 -.46433)" fill="#2f3541" filter="url(#filter4097)" opacity=".33194">
  <rect x="-29.974" y="2.7236" width="7.0934" height="7.0934" ry="1.2031" opacity="1"/>
  <path d="m-25.035 8.5202c-0.09233-0.05002-0.09607-0.06451-0.09607-0.37231v-0.25684l-0.23-0.0056c-0.24115-0.0059-0.31868-0.01715-0.46759-0.06829-0.08762-0.03009-0.21153-0.09246-0.29778-0.14986-0.09-0.0599-0.24362-0.20637-0.30722-0.29292-0.02719-0.03701-0.28273-0.44034-0.56786-0.89631-0.28513-0.45596-0.53379-0.8524-0.55258-0.88096-0.0805-0.12238-0.19777-0.21323-0.33851-0.26226l-0.08444-0.02942-1.0363-0.0064v-0.64705l0.55353 4e-3c0.59858 0.0043 0.59191 0.0037 0.77595 0.06399 0.10975 0.03595 0.26434 0.11644 0.35765 0.18623 0.09252 0.0692 0.22293 0.20268 0.28627 0.29302 0.02535 0.03614 0.28168 0.44333 0.56963 0.90485s0.54371 0.86416 0.56836 0.89474c0.05868 0.07282 0.13181 0.13235 0.20848 0.16972 0.1174 0.05723 0.15781 0.06495 0.3678 0.07033l0.19462 0.0049v-0.25933c0-0.19887 0.0033-0.26719 0.0141-0.29306 0.03181-0.07611 0.1371-0.11741 0.21053-0.08257 0.04589 0.02178 1.0225 0.83569 1.0463 0.87197 0.02445 0.03731 0.0245 0.13084 8.1e-5 0.16809-0.01501 0.02291-0.91745 0.78371-1.0135 0.85439-0.04117 0.03031-0.12126 0.03869-0.16151 0.01689zm-3.9783-0.95398v-0.32363l0.51814-0.0035c0.57-0.0039 0.55056-0.0019 0.69132-0.07054 0.13343-0.06504 0.19949-0.13864 0.36784-0.4098 0.06299-0.10146 0.11544-0.18335 0.11655-0.18198 0.0098 0.01214 0.37872 0.60694 0.37872 0.61066 0 0.0027-0.03053 0.05123-0.06783 0.10783-0.19124 0.29011-0.46612 0.48161-0.81174 0.5655-0.08019 0.01947-0.12294 0.02113-0.63946 0.025l-0.55353 0.0042zm2.6488-1.8992c-0.10287-0.16462-0.18858-0.30321-0.19047-0.30796-0.0073-0.01821 0.13804-0.21955 0.22045-0.30554 0.18467-0.1927 0.40372-0.31518 0.67268-0.37613 0.04804-0.01088 0.14465-0.01773 0.30078-0.02129l0.23-0.0053v-0.25694c0-0.19683 0.0033-0.26483 0.01409-0.29067 0.03181-0.07611 0.1371-0.11741 0.21053-0.08257 0.04589 0.02178 1.0225 0.83569 1.0463 0.87197 0.02445 0.03731 0.02449 0.13084 8.1e-5 0.16809-0.01637 0.02498-0.9355 0.79813-1.0179 0.85622-0.05267 0.03714-0.1352 0.03545-0.18673-0.0038-0.0633-0.04825-0.06641-0.06491-0.06641-0.35592v-0.25933l-0.19462 0.0045c-0.17896 0.0042-0.20113 0.0068-0.2755 0.03219-0.19395 0.06629-0.26696 0.13704-0.45488 0.44083-0.06019 0.09731-0.11213 0.18007-0.11542 0.18391-0.0033 0.0038-0.09014-0.12771-0.19301-0.29233z" opacity=".3" stroke-width=".01011"/>
  <rect x="-26.27" y="5.8985" width="7.0934" height="7.0934" ry="1.2031" opacity="1"/>
  <path d="m-21.331 11.695c-0.09233-0.05002-0.09607-0.06451-0.09607-0.37231v-0.25684l-0.23-0.0056c-0.24115-0.0059-0.31868-0.01715-0.46759-0.06829-0.08762-0.03009-0.21153-0.09246-0.29778-0.14986-0.09-0.0599-0.24362-0.20637-0.30722-0.29292-0.02719-0.03701-0.28273-0.44034-0.56786-0.89631-0.28513-0.45596-0.53379-0.8524-0.55258-0.88096-0.0805-0.12238-0.19777-0.21323-0.33851-0.26226l-0.08444-0.02942-1.0363-0.0064v-0.64705l0.55353 4e-3c0.59858 0.0043 0.59191 0.0037 0.77595 0.06399 0.10975 0.03595 0.26434 0.11644 0.35765 0.18623 0.09252 0.0692 0.22293 0.20268 0.28627 0.29302 0.02535 0.03614 0.28168 0.44333 0.56963 0.90485s0.54371 0.86416 0.56836 0.89474c0.05868 0.07282 0.13181 0.13235 0.20848 0.16972 0.1174 0.05723 0.15781 0.06495 0.3678 0.07033l0.19462 0.0049v-0.25933c0-0.19887 0.0033-0.26719 0.0141-0.29306 0.03181-0.07611 0.1371-0.11741 0.21053-0.08257 0.04589 0.02178 1.0225 0.83569 1.0463 0.87197 0.02445 0.03731 0.0245 0.13084 8.1e-5 0.16809-0.01501 0.02291-0.91745 0.78371-1.0135 0.85439-0.04117 0.03031-0.12126 0.03869-0.16151 0.01689zm-3.9783-0.95398v-0.32363l0.51814-0.0035c0.57-0.0039 0.55056-0.0019 0.69132-0.07054 0.13343-0.06504 0.19949-0.13864 0.36784-0.4098 0.06299-0.10146 0.11544-0.18335 0.11655-0.18198 0.0098 0.01214 0.37872 0.60694 0.37872 0.61066 0 0.0027-0.03053 0.05123-0.06783 0.10783-0.19124 0.29011-0.46612 0.48161-0.81174 0.5655-0.08019 0.01947-0.12294 0.02113-0.63946 0.025l-0.55353 0.0042zm2.6488-1.8992c-0.10287-0.16462-0.18858-0.30321-0.19047-0.30796-0.0073-0.01821 0.13804-0.21955 0.22045-0.30554 0.18467-0.1927 0.40372-0.31518 0.67268-0.37613 0.04804-0.01088 0.14465-0.01773 0.30078-0.02129l0.23-0.0053v-0.25694c0-0.19683 0.0033-0.26483 0.01409-0.29067 0.03181-0.07611 0.1371-0.11741 0.21053-0.08257 0.04589 0.02178 1.0225 0.83569 1.0463 0.87197 0.02445 0.03731 0.02449 0.13084 8.1e-5 0.16809-0.01637 0.02498-0.9355 0.79813-1.0179 0.85622-0.05267 0.03714-0.1352 0.03545-0.18673-0.0038-0.0633-0.04825-0.06641-0.06491-0.06641-0.35592v-0.25933l-0.19462 0.0045c-0.17896 0.0042-0.20113 0.0068-0.2755 0.03219-0.19395 0.06629-0.26696 0.13704-0.45488 0.44083-0.06019 0.09731-0.11213 0.18007-0.11542 0.18391-0.0033 0.0038-0.09014-0.12771-0.19301-0.29233z" opacity=".3" stroke-width=".01011"/>
  <rect x="-22.566" y="9.6026" width="7.0934" height="7.0934" ry="1.2031" opacity="1"/>
  <path d="m-17.626 15.399c-0.09233-0.05002-0.09607-0.06451-0.09607-0.37231v-0.25684l-0.23-0.0056c-0.24115-0.0059-0.31868-0.01715-0.46759-0.06829-0.08762-0.03009-0.21153-0.09246-0.29778-0.14986-0.09-0.0599-0.24362-0.20637-0.30722-0.29292-0.02719-0.03701-0.28273-0.44034-0.56786-0.89631-0.28513-0.45596-0.53379-0.8524-0.55258-0.88096-0.0805-0.12238-0.19777-0.21323-0.33851-0.26226l-0.08444-0.02942-1.0363-0.0064v-0.64705l0.55353 4e-3c0.59858 0.0043 0.59191 0.0037 0.77595 0.06399 0.10975 0.03595 0.26434 0.11644 0.35765 0.18623 0.09252 0.0692 0.22293 0.20268 0.28627 0.29302 0.02535 0.03614 0.28168 0.44333 0.56963 0.90485s0.54371 0.86416 0.56836 0.89474c0.05868 0.07282 0.13181 0.13235 0.20848 0.16972 0.1174 0.05723 0.15781 0.06495 0.3678 0.07033l0.19462 0.0049v-0.25933c0-0.19887 0.0033-0.26719 0.0141-0.29306 0.03181-0.07611 0.1371-0.11741 0.21053-0.08257 0.04589 0.02178 1.0225 0.83569 1.0463 0.87197 0.02445 0.03731 0.0245 0.13084 8.1e-5 0.16809-0.01501 0.02291-0.91745 0.78371-1.0135 0.85439-0.04117 0.03031-0.12126 0.03869-0.16151 0.01689zm-3.9783-0.95398v-0.32363l0.51814-0.0035c0.57-0.0039 0.55056-0.0019 0.69132-0.07054 0.13343-0.06504 0.19949-0.13864 0.36784-0.4098 0.06299-0.10146 0.11544-0.18335 0.11655-0.18198 0.0098 0.01214 0.37872 0.60694 0.37872 0.61066 0 0.0027-0.03053 0.05123-0.06783 0.10783-0.19124 0.29011-0.46612 0.48161-0.81174 0.5655-0.08019 0.01947-0.12294 0.02113-0.63946 0.025l-0.55353 0.0042zm2.6488-1.8992c-0.10287-0.16462-0.18858-0.30321-0.19047-0.30796-0.0073-0.01821 0.13804-0.21955 0.22045-0.30554 0.18467-0.1927 0.40372-0.31518 0.67268-0.37613 0.04804-0.01088 0.14465-0.01773 0.30078-0.02129l0.23-0.0053v-0.25694c0-0.19683 0.0033-0.26483 0.01409-0.29067 0.03181-0.07611 0.1371-0.11741 0.21053-0.08257 0.04589 0.02178 1.0225 0.83569 1.0463 0.87197 0.02445 0.03731 0.02449 0.13084 8.1e-5 0.16809-0.01637 0.02498-0.9355 0.79813-1.0179 0.85622-0.05267 0.03714-0.1352 0.03545-0.18673-0.0038-0.0633-0.04825-0.06641-0.06491-0.06641-0.35592v-0.25933l-0.19462 0.0045c-0.17896 0.0042-0.20113 0.0068-0.2755 0.03219-0.19395 0.06629-0.26696 0.13704-0.45488 0.44083-0.06019 0.09731-0.11213 0.18007-0.11542 0.18391-0.0033 0.0038-0.09014-0.12771-0.19301-0.29233z" opacity=".3" stroke-width=".01011"/>
 </g>
 <rect x="1.5777" y="1.8297" width="6.7387" height="6.7387" ry="1.1429" fill="url(#linearGradient2227)" stroke-width=".95"/>
 <path d="m6.2698 7.3365c-0.087714-0.047519-0.091266-0.061284-0.091266-0.35369v-0.244l-0.2185-0.00532c-0.22909-0.005605-0.30275-0.016292-0.44421-0.064876-0.083239-0.028586-0.20095-0.087837-0.28289-0.14237-0.0855-0.056905-0.23144-0.19605-0.29186-0.27827-0.02583-0.03516-0.26859-0.41832-0.53947-0.85149-0.27087-0.43316-0.5071-0.80978-0.52495-0.83691-0.076475-0.11626-0.18788-0.20257-0.32158-0.24915l-0.080218-0.027949-0.98448-0.00608v-0.6147l0.52585 0.0038c0.56865 0.00408 0.56231 0.00352 0.73715 0.06079 0.10426 0.034152 0.25112 0.11062 0.33977 0.17692 0.087894 0.06574 0.21178 0.19255 0.27196 0.27837 0.024082 0.034333 0.2676 0.42116 0.54115 0.85961s0.51652 0.82095 0.53994 0.85c0.055746 0.069179 0.12522 0.12573 0.19806 0.16123 0.11153 0.054368 0.14992 0.061702 0.34941 0.066814l0.18489 0.00465v-0.24636c0-0.18893 0.00314-0.25383 0.013395-0.27841 0.03022-0.072304 0.13024-0.11154 0.2-0.078442 0.043596 0.020691 0.97138 0.79391 0.99398 0.82837 0.023227 0.035444 0.023275 0.1243 7.69e-5 0.15969-0.014259 0.021764-0.87158 0.74452-0.96282 0.81167-0.039112 0.028795-0.1152 0.036755-0.15343 0.016045zm-3.7794-0.90628v-0.30745l0.49223-0.00333c0.5415-0.00371 0.52303-0.00181 0.65675-0.067013 0.12676-0.061788 0.18952-0.13171 0.34945-0.38931 0.059841-0.096387 0.10967-0.17418 0.11072-0.17288 0.00931 0.011533 0.35978 0.57659 0.35978 0.58013 0 0.00257-0.029003 0.048669-0.064439 0.10244-0.18168 0.2756-0.44281 0.45753-0.77115 0.53722-0.07618 0.018497-0.11679 0.020074-0.60749 0.02375l-0.52585 0.00399zm2.5164-1.8042c-0.097726-0.15639-0.17915-0.28805-0.18095-0.29256-0.006935-0.0173 0.13114-0.20857 0.20943-0.29026 0.17544-0.18306 0.38353-0.29942 0.63905-0.35732 0.045638-0.010336 0.13742-0.016844 0.28574-0.020226l0.2185-0.00503v-0.2441c0-0.18699 0.00314-0.25159 0.013386-0.27614 0.03022-0.072304 0.13024-0.11154 0.2-0.078441 0.043596 0.020691 0.97138 0.79391 0.99398 0.82837 0.023227 0.035445 0.023265 0.1243 7.69e-5 0.15969-0.015551 0.023731-0.88872 0.75822-0.967 0.81341-0.050037 0.035283-0.12844 0.033678-0.17739-0.00361-0.060135-0.045837-0.063089-0.061664-0.063089-0.33812v-0.24636l-0.18489 0.00428c-0.17001 0.00399-0.19107 0.00646-0.26172 0.03058-0.18425 0.062971-0.25361 0.13018-0.43214 0.41878-0.05718 0.092444-0.10652 0.17107-0.10965 0.17471-0.003135 0.00361-0.085633-0.12132-0.18336-0.27771z" opacity=".3" stroke-width=".0096045"/>
 <rect x="5.0965" y="4.8458" width="6.7387" height="6.7387" ry="1.1429" fill="url(#linearGradient2299)" stroke-width=".95"/>
 <path d="m9.7886 10.353c-0.087714-0.04752-0.091267-0.06128-0.091267-0.35369v-0.244l-0.2185-0.00532c-0.22909-0.005605-0.30275-0.016292-0.44421-0.064876-0.083239-0.028586-0.20095-0.087837-0.28289-0.14237-0.0855-0.056905-0.23144-0.19605-0.29186-0.27827-0.02583-0.03516-0.26859-0.41832-0.53947-0.85149-0.27087-0.43316-0.5071-0.80978-0.52495-0.83691-0.076475-0.11626-0.18788-0.20257-0.32158-0.24915l-0.080218-0.027949-0.98448-0.00608v-0.6147l0.52585 0.0038c0.56865 0.00408 0.56231 0.00351 0.73715 0.06079 0.10426 0.034153 0.25112 0.11062 0.33977 0.17692 0.087894 0.06574 0.21178 0.19255 0.27196 0.27837 0.024083 0.034333 0.2676 0.42116 0.54115 0.85961s0.51652 0.82095 0.53994 0.85c0.055746 0.069179 0.12522 0.12573 0.19806 0.16123 0.11153 0.054369 0.14992 0.061703 0.34941 0.066814l0.18489 0.00465v-0.24636c0-0.18893 0.00314-0.25383 0.013395-0.27841 0.03022-0.072304 0.13024-0.11154 0.2-0.078442 0.043596 0.020691 0.97137 0.79391 0.99398 0.82837 0.02323 0.035445 0.02327 0.1243 7.7e-5 0.15969-0.01426 0.021764-0.87158 0.74452-0.96282 0.81167-0.039112 0.02879-0.1152 0.03676-0.15343 0.01605zm-3.7794-0.90628v-0.30745l0.49223-0.00333c0.5415-0.00371 0.52303-0.00181 0.65675-0.067013 0.12676-0.061788 0.18952-0.13171 0.34945-0.38931 0.05984-0.096387 0.10967-0.17418 0.11072-0.17288 0.00931 0.011533 0.35978 0.57659 0.35978 0.58013 0 0.00257-0.029003 0.048668-0.064438 0.10244-0.18168 0.27561-0.44281 0.45753-0.77115 0.53723-0.07618 0.018496-0.11679 0.020074-0.60749 0.02375l-0.52585 0.00399zm2.5164-1.8042c-0.097726-0.15639-0.17915-0.28805-0.18095-0.29256-0.006935-0.0173 0.13114-0.20857 0.20943-0.29026 0.17544-0.18306 0.38353-0.29942 0.63905-0.35732 0.045638-0.010336 0.13742-0.016844 0.28574-0.020226l0.2185-0.00504v-0.24409c0-0.18699 0.00314-0.25159 0.013386-0.27614 0.030219-0.072304 0.13024-0.11154 0.2-0.078442 0.043596 0.020691 0.97138 0.79391 0.99399 0.82837 0.02323 0.035445 0.02327 0.1243 7.7e-5 0.15969-0.01555 0.023731-0.88873 0.75822-0.96701 0.81341-0.050037 0.035283-0.12844 0.033677-0.17739-0.00361-0.060135-0.045838-0.06309-0.061665-0.06309-0.33812v-0.24636l-0.18489 0.00427c-0.17001 0.00399-0.19107 0.00646-0.26172 0.030581-0.18425 0.06298-0.25361 0.13019-0.43214 0.41879-0.05718 0.092444-0.10652 0.17107-0.10965 0.17471-0.003135 0.00361-0.085633-0.12132-0.18336-0.27771z" opacity=".3" stroke-width=".0096045"/>
 <rect x="8.6153" y="8.3647" width="6.7387" height="6.7387" ry="1.1429" fill="url(#linearGradient2435)" stroke-width=".95"/>
 <path d="m13.308 13.871c-0.08771-0.04752-0.09127-0.06129-0.09127-0.3537v-0.244l-0.2185-0.0053c-0.22909-0.0056-0.30275-0.01629-0.44421-0.06488-0.08324-0.02859-0.20095-0.08784-0.28289-0.14237-0.0855-0.0569-0.23144-0.19605-0.29186-0.27827-0.02583-0.03516-0.26859-0.41832-0.53947-0.8515-0.27087-0.43316-0.5071-0.80978-0.52495-0.83691-0.07648-0.11626-0.18788-0.20257-0.32158-0.24915l-0.08022-0.02795-0.98449-0.0061v-0.6147l0.52585 0.0038c0.56865 0.0041 0.56231 0.0035 0.73715 0.06079 0.10426 0.03415 0.25112 0.11062 0.33977 0.17692 0.08789 0.06574 0.21178 0.19255 0.27196 0.27837 0.02408 0.03433 0.2676 0.42116 0.54115 0.85961 0.27355 0.43844 0.51652 0.82095 0.53994 0.85 0.05575 0.06918 0.12522 0.12573 0.19806 0.16123 0.11153 0.05437 0.14992 0.0617 0.34941 0.06681l0.18489 0.0047v-0.24636c0-0.18893 0.0031-0.25383 0.01339-0.27841 0.03022-0.0723 0.13024-0.11154 0.2-0.07844 0.0436 0.02069 0.97138 0.7939 0.99398 0.82837 0.02323 0.03545 0.02327 0.1243 7.7e-5 0.15969-0.01426 0.02176-0.87158 0.74452-0.96282 0.81167-0.03911 0.0288-0.1152 0.03676-0.15343 0.01605zm-3.7794-0.90628v-0.30745l0.49223-0.0033c0.5415-0.0037 0.52303-0.0018 0.65675-0.06701 0.12676-0.06179 0.18952-0.13171 0.34945-0.38931 0.05984-0.09639 0.10967-0.17418 0.11072-0.17288 0.0093 0.01153 0.35978 0.57659 0.35978 0.58013 0 0.0026-0.029 0.04867-0.06444 0.10244-0.18168 0.2756-0.44281 0.45753-0.77115 0.53722-0.07618 0.0185-0.11679 0.02007-0.60749 0.02375l-0.52585 4e-3zm2.5164-1.8042c-0.09773-0.15639-0.17915-0.28805-0.18095-0.29256-0.0069-0.0173 0.13114-0.20857 0.20943-0.29026 0.17544-0.18306 0.38353-0.29942 0.63905-0.35732 0.04564-0.01034 0.13742-0.01684 0.28574-0.02022l0.2185-5e-3v-0.24413c0-0.18699 0.0031-0.25159 0.01338-0.27614 0.03022-0.072305 0.13024-0.11154 0.2-0.078442 0.04359 0.020691 0.97138 0.79391 0.99398 0.82837 0.02323 0.03544 0.02327 0.1243 7.7e-5 0.15969-0.01555 0.02373-0.88872 0.75822-0.967 0.81341-0.05004 0.03528-0.12844 0.03368-0.17739-0.0036-0.06013-0.04584-0.06309-0.06166-0.06309-0.33812v-0.24636l-0.18489 0.0043c-0.17001 4e-3 -0.19107 0.0065-0.26172 0.03058-0.18425 0.06297-0.25361 0.13019-0.43214 0.41879-0.05718 0.09244-0.10652 0.17107-0.10965 0.17472-0.0031 0.0036-0.08563-0.12132-0.18336-0.27771z" opacity=".3" stroke-width=".0096045"/>
</svg>
