<?xml version="1.0" encoding="UTF-8"?>
<svg width="64" height="64" version="1.1" xmlns="http://www.w3.org/2000/svg">
 <defs>
  <filter id="filter1178" x="-.047999" y="-.047999" width="1.096" height="1.096" color-interpolation-filters="sRGB">
   <feGaussianBlur stdDeviation="0.30691668"/>
  </filter>
  <radialGradient id="radialGradient1138" cx="11.584" cy="10.254" r="26.628" gradientTransform="matrix(.94147 1.1654 -1.0639 .85947 11.587 -12.06)" gradientUnits="userSpaceOnUse">
   <stop stop-color="#fcda95" offset="0"/>
   <stop stop-color="#eac57b" offset="1"/>
  </radialGradient>
 </defs>
 <g transform="matrix(3.7796 0 0 3.7796 -.00096588 -.43033)">
  <rect transform="matrix(.99138 0 0 1 .072989 .0019055)" x=".79375" y=".90545" width="15.346" height="15.346" rx="3.0526" ry="3.0526" filter="url(#filter1178)" opacity=".15" stroke-linecap="round" stroke-linejoin="round" stroke-width="1.2489" style="mix-blend-mode:normal"/>
 </g>
 <path d="m56.756 7.4913a13.204 13.204 0 0 0-9.489-3.9913h-30.533a13.204 13.204 0 0 0-13.234 13.234v30.533a13.204 13.204 0 0 0 3.9919 9.4896" fill="url(#radialGradient1138)"/>
 <path d="m7.4919 56.757a13.204 13.204 0 0 0 9.2421 3.7444h30.533a13.204 13.204 0 0 0 13.234-13.234v-30.533a13.204 13.204 0 0 0-3.745-9.2427" fill="#a3be8c"/>
 <path d="m7.4919 56.757a13.204 13.204 0 0 0 9.2421 3.7444h30.533a13.204 13.204 0 0 0 13.234-13.234v-30.533a13.204 13.204 0 0 0-3.745-9.2427" fill="#eceff4" opacity=".1"/>
 <path d="m55.398 6.2871c-8.752 1.6426-38.675 10.026-49.055 49.1a13.204 13.204 0 0 0 2.0098 2.0547c9.0178-1.0781 39.723-7.7606 49.055-49.221a13.204 13.204 0 0 0-2.0098-1.9336z" fill="#97b67c"/>
 <path d="m55.398 6.2871c-8.752 1.6426-38.675 10.026-49.055 49.1a13.204 13.204 0 0 0 2.0098 2.0547c9.0178-1.0781 39.723-7.7606 49.055-49.221a13.204 13.204 0 0 0-2.0098-1.9336z" fill="#2e3440" opacity=".1"/>
 <g fill-rule="evenodd">
  <g transform="translate(-1.995 2.2024)">
   <circle cx="19.697" cy="45.085" r="6.233" fill="#a3be8c"/>
   <circle cx="19.697" cy="45.085" r="3.7121" fill="#ebcb8b" stroke-width=".59555"/>
  </g>
  <g transform="translate(1.5547 -2.6126)">
   <circle cx="45.423" cy="19.677" r="6.233" fill="#a3be8c"/>
   <circle cx="45.423" cy="19.677" r="3.7121" fill="#ebcb8b" stroke-width=".59555"/>
  </g>
  <g transform="translate(-.86276 -1.4821)">
   <circle cx="32.698" cy="33.262" r="8.4827" fill="#a3be8c" stroke-width="1.3609"/>
   <circle cx="32.698" cy="33.262" r="5.9197" fill="#ebcb8b" stroke-width=".94973"/>
  </g>
 </g>
 <path d="m16.734 3.5a13.204 13.204 0 0 0-5.6289 1.2988c43.552 5.8371 47.098 37.503 47.504 49.295a13.204 13.204 0 0 0 1.8926-6.8262v-30.533a13.204 13.204 0 0 0-3.7461-9.2422 13.204 13.204 0 0 0-9.4883-3.9922h-30.533z" fill="#2e3440" opacity=".15"/>
</svg>
