<svg width="64" height="64" version="1.1" viewBox="0 0 16.933 16.933" xmlns="http://www.w3.org/2000/svg">
 <defs>
  <filter id="filter1178" x="-.047999" y="-.047999" width="1.096" height="1.096" color-interpolation-filters="sRGB">
   <feGaussianBlur stdDeviation="0.30691668"/>
  </filter>
  <linearGradient id="linearGradient1340" x1="8.355" x2="8.3996" y1="16.007" y2=".79375" gradientUnits="userSpaceOnUse">
   <stop stop-color="#d8dee9" offset="0"/>
   <stop stop-color="#eceff4" offset="1"/>
  </linearGradient>
  <linearGradient id="z" x1="82" x2="64" y1="225.61" y2="196" gradientTransform="matrix(.12394 0 0 .12394 25.517 -21.322)" gradientUnits="userSpaceOnUse">
   <stop stop-color="#eac57b" offset="0"/>
   <stop stop-color="#ebcb8b" offset="1"/>
  </linearGradient>
  <linearGradient id="B" x1="82.001" x2="100" y1="246.39" y2="216" gradientTransform="matrix(.12394 0 0 .12394 25.517 -21.322)" gradientUnits="userSpaceOnUse">
   <stop stop-color="#b54a55" offset="0"/>
   <stop stop-color="#d08770" offset="1"/>
  </linearGradient>
  <linearGradient id="D" x1="64.499" x2="100" y1="257.07" y2="258" gradientTransform="matrix(.12394 0 0 .12394 25.517 -21.322)" gradientUnits="userSpaceOnUse">
   <stop stop-color="#b54a55" offset="0"/>
   <stop stop-color="#bf616a" offset="1"/>
  </linearGradient>
  <linearGradient id="y" x1="45.999" x2="64" y1="246.97" y2="276" gradientTransform="matrix(.12394 0 0 .12394 25.517 -21.322)" gradientUnits="userSpaceOnUse">
   <stop stop-color="#ad85a5" offset="0"/>
   <stop stop-color="#b48ead" offset="1"/>
  </linearGradient>
  <linearGradient id="A" x1="45.999" x2="28" y1="225.61" y2="256.78" gradientTransform="matrix(.12394 0 0 .12394 25.517 -21.322)" gradientUnits="userSpaceOnUse">
   <stop stop-color="#5e81ac" offset="0"/>
   <stop stop-color="#81a1c1" offset="1"/>
  </linearGradient>
  <linearGradient id="C" x1="63.999" x2="28" y1="215.22" y2="215.22" gradientTransform="matrix(.12394 0 0 .12394 25.517 -21.322)" gradientUnits="userSpaceOnUse">
   <stop stop-color="#97b67c" offset="0"/>
   <stop stop-color="#a3be8c" offset="1"/>
  </linearGradient>
  <linearGradient id="linearGradient4143" x1="33.449" x2="33.449" y1="5.3531" y2="10.505" gradientUnits="userSpaceOnUse">
   <stop stop-color="#eceff4" offset="0"/>
   <stop stop-color="#d8dee9" offset="1"/>
  </linearGradient>
 </defs>
 <g stroke-linecap="round" stroke-linejoin="round">
  <rect transform="matrix(.99138 0 0 1 .072989 .0019055)" x=".79375" y=".90545" width="15.346" height="15.346" rx="3.0526" ry="3.0526" fill="#000000" filter="url(#filter1178)" opacity=".15" stroke-width="1.2489" style="mix-blend-mode:normal"/>
  <rect x=".92604" y=".92604" width="15.081" height="15.081" rx="3" ry="3" fill="url(#linearGradient1340)" stroke-width="1.2274"/>
  <rect x=".01215" y=".0060174" width="16.924" height="16.927" fill="none" opacity=".15" stroke-width="1.052"/>
 </g>
 <g transform="matrix(.8195 0 0 .8195 -18.937 1.9714)">
  <path d="m35.68 6.6412v2.5761l-2.231 1.2882-2.231-1.2882v-2.5761l2.231-1.2882z" fill="#3d3846" stroke-width=".12394"/>
  <g fill="none" stroke-width="4.462">
   <path d="m28.987 5.3532v5.1523" stroke="#a3be8c"/>
   <path d="m33.449 13.082-4.462-2.5762" stroke="#81a1c1"/>
   <path d="m33.449 13.082 4.462-2.5764" stroke="#b48ead"/>
   <path d="m37.911 5.3531v5.1521" stroke="#bf616a"/>
   <path d="m37.911 5.3531-4.462-2.5762" stroke="#d08770"/>
   <path d="m28.987 5.3532 4.462-2.5762" stroke="#ebcb8b"/>
  </g>
  <g stroke-width=".12394">
   <path d="m33.449 15.313c1.2321 0 2.231-0.99899 2.231-2.231a2.231 2.231 0 0 0-0.95983-1.8302l-1.1475-0.67451-0.1237-0.07139a51.987 51.987 0 0 1-1.0577-0.61477 2.231 2.231 0 0 1-1.1733-1.9615v5.1521c0 1.2321 0.99887 2.231 2.231 2.231zm-2.2228-2.411c3e-3 -0.03508 0.0081-0.06966 0.01264-0.10436-5e-3 0.0347-0.0092 0.06941-0.01264 0.10436zm0.11626-0.54684c0.0032-0.0093 0.0056-0.01909 0.0089-0.02838l4.96e-4 -2.48e-4 -0.0094 0.02851z" fill="url(#y)"/>
   <path d="m33.449 0.54611c-1.2321 0-2.231 0.99887-2.231 2.231a2.231 2.231 0 0 0 0.95983 1.83l1.1475 0.67451 0.1237 0.071392a51.987 51.987 0 0 1 1.0577 0.61477 2.231 2.231 0 0 1 1.1733 1.9614v-5.1521c0-1.2321-0.99887-2.231-2.231-2.231zm2.2228 2.4107c-3e-3 0.0352-0.0081 0.069781-0.01264 0.10449 5e-3 -0.034705 0.0092-0.069409 0.01264-0.10436zm-0.11626 0.54697c-0.0032 0.0093-0.0056 0.018964-0.0089 0.028259l-4.95e-4 2.478e-4z" fill="url(#z)"/>
   <path d="m27.055 11.621c0.616 1.0672 1.9806 1.4327 3.0476 0.81655a2.231 2.231 0 0 0 1.1051-1.7464l0.01029-1.3308v-0.14291c-0.0037-0.39476-0.0021-0.85076 0.0037-1.2233a2.231 2.231 0 0 1 1.1118-1.9967l-1.1155 0.64389-2.7352 1.5793-0.61105 0.35275c-1.0671 0.61601-1.4328 1.9806-0.81666 3.0477zm0.97644-3.1305c0.03185-0.014873 0.06445-0.027764 0.09668-0.041274a2.3574 2.3574 0 0 0-0.09668 0.041274zm0.53172-0.17278c0.0097-0.00186 0.01934-0.00471 0.029-0.00645l4.96e-4 2.479e-4z" fill="url(#A)"/>
   <path d="m39.843 4.2377c-0.616-1.0672-1.9806-1.4327-3.0476-0.81655a2.231 2.231 0 0 0-1.1051 1.7463l-0.01029 1.3309v0.14291c0.0037 0.39476 0.0021 0.85076-0.0037 1.2233a2.231 2.231 0 0 1-1.1118 1.9967l3.3464-1.932 0.50421-0.29115 0.61105-0.35275c1.0672-0.61613 1.4328-1.9806 0.81667-3.0477zm-0.97644 3.1305c-0.03185 0.014873-0.06445 0.027764-0.09668 0.041274 0.03247-0.013014 0.0647-0.026772 0.09668-0.041274zm-0.53172 0.17278c-0.0097 0.00186-0.01934 0.00459-0.029 0.00632l-4.96e-4 -2.479e-4c0.0099-0.00186 0.01958-0.00397 0.0295-0.00607z" fill="url(#B)"/>
   <path d="m27.055 4.2377c-0.616 1.0672-0.25037 2.4315 0.81655 3.0476a2.231 2.231 0 0 0 2.0649 0.083911l1.1576-0.65654 0.1237-0.071392a51.988 51.988 0 0 1 1.0613-0.60857 2.231 2.231 0 0 1 2.2854-0.035448l-1.1155-0.64414-2.2311-1.288-0.50421-0.29115-0.61105-0.35275c-1.0672-0.61613-2.4317-0.25049-3.0478 0.81655zm3.1993-0.7195c0.02888 0.020079 0.05627 0.041769 0.08404 0.063088a2.2313 2.2313 0 0 0-0.08404-0.063212zm0.41546 0.37406c0.0064 0.00744 0.01363 0.014254 0.02008 0.021814v4.957e-4z" fill="url(#C)"/>
   <path d="m39.843 11.621c0.616-1.0672 0.25037-2.4315-0.81655-3.0477a2.231 2.231 0 0 0-2.0649-0.083787l-1.1576 0.65654-0.1237 0.071392a51.984 51.984 0 0 1-1.0613 0.60857 2.231 2.231 0 0 1-2.2854 0.035572l1.1155 0.64402 2.2311 1.2882 0.50421 0.29115 0.61105 0.35275c1.0672 0.616 2.4317 0.25049 3.0478-0.81655zm-3.1993 0.7195c-0.02888-0.02008-0.05627-0.04177-0.08404-0.06309 0.02752 0.02169 0.05553 0.04276 0.08404 0.06321zm-0.41546-0.37406c-0.0064-0.0074-0.01363-0.01438-0.02008-0.02194v-4.96e-4l0.02008 0.02256z" fill="url(#D)"/>
   <path d="m31.218 6.6412v2.5761l2.231 1.2882 2.231-1.2882v-2.5761l-2.231-1.2882z" fill="url(#linearGradient4143)"/>
  </g>
 </g>
</svg>
