<?xml version="1.0" encoding="UTF-8"?>
<svg width="64" height="64" version="1.1" viewBox="0 0 16.933 16.933" xmlns="http://www.w3.org/2000/svg">
 <defs>
  <filter id="filter1178" x="-.047999" y="-.047999" width="1.096" height="1.096" color-interpolation-filters="sRGB">
   <feGaussianBlur stdDeviation="0.30691668"/>
  </filter>
  <linearGradient id="linearGradient1340" x1="8.6644" x2="8.6644" y1="15.931" y2=".79375" gradientUnits="userSpaceOnUse">
   <stop stop-color="#ad85a5" offset="0"/>
   <stop stop-color="#b48ead" offset="1"/>
  </linearGradient>
  <linearGradient id="linearGradient2615" x1="7.8163" x2="7.8163" y1="3.6486" y2="13.36" gradientUnits="userSpaceOnUse">
   <stop stop-color="#eceff4" offset="0"/>
   <stop stop-color="#d8dee9" offset="1"/>
  </linearGradient>
  <filter id="filter868" x="-.049284" y="-.050227" width="1.0986" height="1.1005" color-interpolation-filters="sRGB">
   <feGaussianBlur stdDeviation="0.20357392"/>
  </filter>
 </defs>
 <g stroke-linecap="round" stroke-linejoin="round">
  <rect transform="matrix(.99138 0 0 1 .072989 .0019055)" x=".79375" y=".90545" width="15.346" height="15.346" rx="3.0526" ry="3.0526" filter="url(#filter1178)" opacity=".15" stroke-width="1.2489" style="mix-blend-mode:normal"/>
  <rect x=".92604" y=".92604" width="15.081" height="15.081" rx="3" ry="3" fill="url(#linearGradient1340)" stroke-width="1.2274"/>
  <rect x=".01215" y=".0060174" width="16.924" height="16.927" fill="none" opacity=".15" stroke-width="1.052"/>
 </g>
 <path d="m10.818 13.367c0.31919-0.22357 0.26131-0.67353-0.13223-1.028-0.0938-0.08449-0.40183-0.2892-0.68451-0.45492-0.62795-0.36813-0.81493-0.53662-0.87906-0.79215-0.060364-0.2405 0.089904-1.3311 0.22941-1.665l0.10168-0.24334h1.5347v0.32726c0 0.18 0.01885 0.32726 0.04189 0.32726s0.22765-0.14294 0.45469-0.31764c0.3746-0.28825 0.458-0.32052 0.90119-0.34874 0.38835-0.024722 0.52628-0.0667 0.67337-0.20488 0.31513-0.29605 0.36346-0.62425 0.36434-2.4741 7.98e-4 -1.6887-0.0013-1.7129-0.181-2.0335-0.23233-0.41459-0.56326-0.6356-1.04-0.69455-0.20798-0.025718-1.3272-0.036041-2.4872-0.02295-2.0503 0.023138-2.1165 0.028432-2.3766 0.19019-0.2785 0.17318-0.64148 0.77902-0.64148 1.0707 0 0.14345-0.030248 0.15181-0.44176 0.12204-0.53504-0.0387-0.66555 0.051071-0.38971 0.26804l0.19705 0.155-0.21005-0.041845c-0.21602-0.043041-0.61004 0.065647-0.61004 0.16827 0 0.031722 0.080999 0.10683 0.18001 0.1669l0.18001 0.10922-0.34064 0.25307c-0.44146 0.32797-0.7678 0.76261-0.96636 1.2871-0.14801 0.39094-0.15589 0.49982-0.11196 1.5478 0.054959 1.3114 0.00188 1.6728-0.36451 2.4844-0.31483 0.69728-0.39126 1.2432-0.22033 1.5738 0.065559 0.12678 0.19224 0.24736 0.28151 0.26794 0.2453 0.05657 1.2062 0.07873 4.1278 0.09518 2.2422 0.01263 2.6804-0.0018 2.8098-0.09244zm-6.8682-0.29672c-0.2588-0.18127-0.22408-0.74238 0.085983-1.3894 0.35801-0.74704 0.41852-1.1449 0.39294-2.5837-0.021942-1.2338-0.018508-1.2674 0.17109-1.6718 0.43653-0.9312 1.2538-1.4743 2.2065-1.4662 0.86314 0.00731 1.5496 0.3764 2.0134 1.0824 0.13261 0.2019 0.33915 0.41462 0.45896 0.47271 0.28442 0.1379 0.39793 0.38081 0.39925 0.85436 8.639e-4 0.30611-0.03335 0.41953-0.16669 0.55288-0.092274 0.092274-0.20915 0.18156-0.25974 0.19842-0.29159 0.097192-0.49795 1.9862-0.25712 2.3537 0.063443 0.09683 0.44026 0.37571 0.83737 0.61974 0.76412 0.46957 0.98083 0.69541 0.9029 0.94094-0.04675 0.1473-0.08498 0.14901-3.3352 0.14901-2.8581 0-3.309-0.0148-3.4496-0.11321zm4.4506-2.8031c0.44151-0.40351 0.51043-0.53794 0.21899-0.42713-0.10277 0.039076-0.26473 0.051504-0.3599 0.027612-0.14458-0.036285-0.1598-0.064628-0.092562-0.1723 0.12305-0.19704 0.019859-0.36631-0.22331-0.36631-0.12982 0-0.23047-0.046353-0.25834-0.11899-0.041347-0.10775-0.057529-0.10832-0.17141-0.00609-0.06917 0.062092-0.22393 0.12382-0.34393 0.13717-0.19402 0.021576-0.21706 0.049787-0.20809 0.25477 0.00809 0.18468-0.023448 0.23892-0.15859 0.27284-0.092773 0.023282-0.25489 0.00953-0.36027-0.030514-0.5946-0.22607-0.1928 0.20828 0.50829 0.54946 0.7332 0.35681 0.94622 0.33909 1.4491-0.12053zm-2.1451-1.3801c0.18301-0.18301 0.22377-0.28288 0.22377-0.54826 0-0.27646-0.04179-0.36928-0.28229-0.62712-0.22924-0.24575-0.33107-0.30263-0.54182-0.30263-0.32775 0-0.53491 0.18357-0.63762 0.56502-0.23354 0.8673 0.63967 1.5113 1.238 0.91298zm-0.71542-0.31416c-0.049565-0.059733-0.079426-0.18403-0.066356-0.27623 0.018563-0.13089 0.069845-0.16763 0.23401-0.16763 0.25923 0 0.40801 0.19519 0.29103 0.38181-0.10441 0.16657-0.34494 0.19911-0.45868 0.062059zm3.8804 0.15812c0.31779-0.45371-0.084842-1.2413-0.57206-1.119-0.27593 0.069258-0.4056 0.24604-0.4056 0.55296 0 0.58925 0.68402 0.98525 0.97767 0.56601zm-0.67222-0.14381c-0.048003-0.048003-0.087268-0.14217-0.087268-0.20927 0-0.31363 0.52563-0.38868 0.5692-0.081265 0.04354 0.30713-0.27394 0.49852-0.48193 0.29053z" fill="#2e3440" filter="url(#filter868)" opacity=".32974" stroke-width=".072726"/>
 <path d="m10.818 13.234c0.31919-0.22357 0.26131-0.67353-0.13223-1.028-0.0938-0.08449-0.40183-0.2892-0.68451-0.45492-0.62795-0.36813-0.81493-0.53662-0.87906-0.79215-0.060364-0.2405 0.089904-1.3311 0.22941-1.665l0.10168-0.24334h1.5347v0.32726c0 0.18 0.01885 0.32726 0.04189 0.32726s0.22765-0.14294 0.45469-0.31764c0.3746-0.28825 0.458-0.32052 0.90119-0.34874 0.38835-0.024722 0.52628-0.0667 0.67337-0.20488 0.31513-0.29605 0.36346-0.62425 0.36434-2.4741 7.98e-4 -1.6887-0.0013-1.7129-0.181-2.0335-0.23233-0.41459-0.56326-0.6356-1.04-0.69455-0.20798-0.025718-1.3272-0.036041-2.4872-0.02295-2.0503 0.023138-2.1165 0.028432-2.3766 0.19019-0.2785 0.17318-0.64148 0.77902-0.64148 1.0707 0 0.14345-0.030248 0.15181-0.44176 0.12204-0.53504-0.0387-0.66555 0.051071-0.38971 0.26804l0.19705 0.155-0.21005-0.041845c-0.21602-0.043041-0.61004 0.065647-0.61004 0.16827 0 0.031722 0.080999 0.10683 0.18001 0.1669l0.18001 0.10922-0.34064 0.25307c-0.44146 0.32797-0.7678 0.76261-0.96636 1.2871-0.14801 0.39094-0.15589 0.49982-0.11196 1.5478 0.054959 1.3114 0.00188 1.6728-0.36451 2.4844-0.31483 0.69728-0.39126 1.2432-0.22033 1.5738 0.065559 0.12678 0.19224 0.24736 0.28151 0.26794 0.2453 0.05657 1.2062 0.07873 4.1278 0.09518 2.2422 0.01263 2.6804-0.0018 2.8098-0.09244zm-6.8682-0.29672c-0.2588-0.18127-0.22408-0.74238 0.085983-1.3894 0.35801-0.74704 0.41852-1.1449 0.39294-2.5837-0.021942-1.2338-0.018508-1.2674 0.17109-1.6718 0.43653-0.9312 1.2538-1.4743 2.2065-1.4662 0.86314 0.00731 1.5496 0.3764 2.0134 1.0824 0.13261 0.2019 0.33915 0.41462 0.45896 0.47271 0.28442 0.1379 0.39793 0.38081 0.39925 0.85436 8.639e-4 0.30611-0.03335 0.41953-0.16669 0.55288-0.092274 0.092274-0.20915 0.18156-0.25974 0.19842-0.29159 0.097192-0.49795 1.9862-0.25712 2.3537 0.063443 0.09683 0.44026 0.37571 0.83737 0.61974 0.76412 0.46957 0.98083 0.69541 0.9029 0.94094-0.04675 0.1473-0.08498 0.14901-3.3352 0.14901-2.8581 0-3.309-0.0148-3.4496-0.11321zm4.4506-2.8031c0.44151-0.40351 0.51043-0.53794 0.21899-0.42713-0.10277 0.039076-0.26473 0.051504-0.3599 0.027612-0.14458-0.036285-0.1598-0.064628-0.092562-0.1723 0.12305-0.19704 0.019859-0.36631-0.22331-0.36631-0.12982 0-0.23047-0.046353-0.25834-0.11899-0.041347-0.10775-0.057529-0.10832-0.17141-0.0060918-0.06917 0.062092-0.22393 0.12382-0.34393 0.13717-0.19402 0.021576-0.21706 0.049787-0.20809 0.25477 0.0080855 0.18468-0.023448 0.23892-0.15859 0.27284-0.092773 0.023282-0.25489 0.0095254-0.36027-0.030514-0.5946-0.22607-0.1928 0.20828 0.50829 0.54946 0.7332 0.35681 0.94622 0.33909 1.4491-0.12053zm-2.1451-1.3801c0.18301-0.18301 0.22377-0.28288 0.22377-0.54826 0-0.27646-0.04179-0.36928-0.28229-0.62712-0.22924-0.24575-0.33107-0.30263-0.54182-0.30263-0.32775 0-0.53491 0.18357-0.63762 0.56502-0.23354 0.8673 0.63967 1.5113 1.238 0.91298zm-0.71542-0.31416c-0.049565-0.059733-0.079426-0.18403-0.066356-0.27623 0.018563-0.13089 0.069845-0.16763 0.23401-0.16763 0.25923 0 0.40801 0.19519 0.29103 0.38181-0.10441 0.16657-0.34494 0.19911-0.45868 0.062059zm3.8804 0.15812c0.31779-0.45371-0.084842-1.2413-0.57206-1.119-0.27593 0.069258-0.4056 0.24604-0.4056 0.55296 0 0.58925 0.68402 0.98525 0.97767 0.56601zm-0.67222-0.14381c-0.048003-0.048003-0.087268-0.14217-0.087268-0.20927 0-0.31363 0.52563-0.38868 0.5692-0.081265 0.04354 0.30713-0.27394 0.49852-0.48193 0.29053z" fill="url(#linearGradient2615)" stroke-width=".072726"/>
</svg>
