<svg width="64" height="64" version="1.1" viewBox="0 0 16.933 16.933" xmlns="http://www.w3.org/2000/svg">
 <defs>
  <filter id="filter1178" x="-.048" y="-.048" width="1.096" height="1.096" color-interpolation-filters="sRGB">
   <feGaussianBlur stdDeviation="0.30691955"/>
  </filter>
  <linearGradient id="linearGradient1340" x1="8.5011" x2="8.489" y1="16.007" y2=".79375" gradientUnits="userSpaceOnUse">
   <stop stop-color="#2e3440" offset="0"/>
   <stop stop-color="#4c566a" offset="1"/>
  </linearGradient>
  <linearGradient id="linearGradient525" x1="8.7151" x2="8.7151" y1="3.7283" y2="13.137" gradientUnits="userSpaceOnUse">
   <stop stop-color="#ebcb8b" offset="0"/>
   <stop stop-color="#eac57b" offset="1"/>
  </linearGradient>
 </defs>
 <g stroke-linecap="round" stroke-linejoin="round">
  <rect transform="matrix(.99138 0 0 1 .072989 .0019055)" x=".79375" y=".90545" width="15.346" height="15.346" rx="3.0526" ry="3.0526" filter="url(#filter1178)" opacity=".15" stroke-width="1.2489" style="mix-blend-mode:normal"/>
  <rect x=".92604" y=".92604" width="15.081" height="15.081" rx="3" ry="3" fill="url(#linearGradient1340)" stroke-width="1.2274"/>
  <rect x=".01215" y=".0060174" width="16.924" height="16.927" fill="none" opacity=".15" stroke-width="1.052"/>
 </g>
 <path d="m9.4818 10.831 1.5876-2.3599-1.3668-2.0209c-0.75172-1.1115-1.3668-2.0301-1.3668-2.0413 0-0.011197 0.1284-0.020305 0.28534-0.02024l0.28534 1.038e-4 0.91654 1.3565c0.5041 0.74605 1.1236 1.6643 1.3767 2.0406l0.46012 0.68414-1.2008 1.7897c-0.66047 0.98437-1.3783 2.0505-1.5951 2.3691l-0.39423 0.57932h1.6156l2.7578-4.0812h1.753v-0.65827l-1.8452 0.01842-1.2739 1.885c-0.70062 1.0367-1.3201 1.9511-1.3767 2.032l-0.10285 0.14699h-0.28111c-0.21084 0-0.27688-0.01081-0.26421-0.04323 0.0093-0.02378 0.62419-0.94179 1.3664-2.04l1.3495-1.9968-3.1851-4.7395h-0.79051c-0.43478 0-0.79051 0.00867-0.79051 0.019276 0 0.010601 0.70362 1.0651 1.5636 2.3432 0.85998 1.2782 1.5634 2.3473 1.5632 2.3758-2.07e-4 0.028534-0.61383 0.95848-1.3636 2.0665l-1.3632 2.0147h-0.28647c-0.15756 0-0.28647-0.0066-0.28647-0.01473 0-0.0081 0.45603-0.68902 1.0134-1.5132 0.55737-0.82414 1.1732-1.7357 1.3685-2.0256l0.35507-0.52716-1.5826-2.3558c-0.87041-1.2957-1.5994-2.3622-1.62-2.3701s-0.38377-0.010171-0.80705-0.00504l-0.7696 0.00933 2.7368 4.0466-5.5712 0.0177v0.65674h3.2532c2.5932 0 3.248-0.00877 3.2275-0.043233-0.01415-0.023778-0.60401-0.89925-1.3108-1.9455-0.7068-1.0462-1.3127-1.9451-1.3465-1.9974l-0.06138-0.095112h0.5897l1.3606 2.0127c0.74835 1.107 1.3651 2.0301 1.3705 2.0513 0.0055 0.021204-0.69882 1.0931-1.565 2.382-0.86622 1.2889-1.575 2.3505-1.575 2.3591s0.35978 0.01149 0.79952 0.0064l0.79952-0.0093z" fill="url(#linearGradient525)" stroke-width=".034586"/>
</svg>
