<svg width="64" height="64" version="1.1" viewBox="0 0 16.933 16.933" xmlns="http://www.w3.org/2000/svg" xmlns:xlink="http://www.w3.org/1999/xlink">
 <defs>
  <linearGradient id="linearGradient4696">
   <stop stop-color="#eceff4" offset="0"/>
   <stop stop-color="#eceff4" stop-opacity="0" offset=".051427"/>
   <stop stop-color="#eceff4" stop-opacity="0" offset="1"/>
  </linearGradient>
  <linearGradient id="linearGradient4684">
   <stop stop-color="#eceff4" offset="0"/>
   <stop stop-color="#eceff4" stop-opacity="0" offset=".054317"/>
   <stop stop-color="#eceff4" stop-opacity="0" offset="1"/>
  </linearGradient>
  <linearGradient id="linearGradient4653">
   <stop stop-color="#eceff4" offset="0"/>
   <stop stop-color="#eceff4" stop-opacity="0" offset=".12111"/>
   <stop stop-color="#eceff4" stop-opacity="0" offset="1"/>
  </linearGradient>
  <linearGradient id="linearGradient4645">
   <stop stop-color="#eceff4" offset="0"/>
   <stop stop-color="#eceff4" stop-opacity="0" offset=".096515"/>
   <stop stop-color="#eceff4" stop-opacity="0" offset="1"/>
  </linearGradient>
  <linearGradient id="linearGradient4637">
   <stop stop-color="#eceff4" offset="0"/>
   <stop stop-color="#eceff4" stop-opacity="0" offset=".092931"/>
   <stop stop-color="#eceff4" stop-opacity="0" offset="1"/>
  </linearGradient>
  <linearGradient id="linearGradient1301">
   <stop stop-color="#2e3440" offset="0"/>
   <stop stop-color="#4c566a" offset=".55759"/>
   <stop stop-color="#d8dee9" offset=".66351"/>
   <stop stop-color="#eceff4" offset="1"/>
  </linearGradient>
  <filter id="filter1178" x="-.047999" y="-.047999" width="1.096" height="1.096" color-interpolation-filters="sRGB">
   <feGaussianBlur stdDeviation="0.30691668"/>
  </filter>
  <linearGradient id="linearGradient1303" x1="8.3898" x2="8.3898" y1="1.8429" y2="7.7663" gradientUnits="userSpaceOnUse" xlink:href="#linearGradient1301"/>
  <linearGradient id="linearGradient4639" x1="7.6539" x2="7.6539" y1="2.0754" y2="4.1624" gradientUnits="userSpaceOnUse" xlink:href="#linearGradient4637"/>
  <linearGradient id="linearGradient4647" x1="6.2046" x2="8.3396" y1="3.8004" y2="3.8004" gradientUnits="userSpaceOnUse" xlink:href="#linearGradient4645"/>
  <linearGradient id="linearGradient4655" x1="7.296" x2="8.4336" y1="6.5031" y2="5.3655" gradientUnits="userSpaceOnUse" xlink:href="#linearGradient4653"/>
  <linearGradient id="linearGradient4676" x1="6.3016" x2="8.3396" y1="2.1855" y2="3.8004" gradientUnits="userSpaceOnUse" xlink:href="#linearGradient4684"/>
  <linearGradient id="linearGradient4688" x1="6.3682" x2="7.6539" y1="2.1049" y2="4.1624" gradientUnits="userSpaceOnUse" xlink:href="#linearGradient4696"/>
  <linearGradient id="linearGradient4717" x1="7.6539" x2="7.6539" y1="2.0754" y2="4.1624" gradientTransform="matrix(-1 0 0 1 16.881 0)" gradientUnits="userSpaceOnUse" xlink:href="#linearGradient4637"/>
  <linearGradient id="linearGradient4719" x1="6.2046" x2="8.3396" y1="3.8004" y2="3.8004" gradientTransform="matrix(-1 0 0 1 16.881 0)" gradientUnits="userSpaceOnUse" xlink:href="#linearGradient4645"/>
  <linearGradient id="linearGradient4721" x1="7.296" x2="8.4336" y1="6.5031" y2="5.3655" gradientTransform="matrix(-1 0 0 1 16.881 0)" gradientUnits="userSpaceOnUse" xlink:href="#linearGradient4653"/>
  <linearGradient id="linearGradient4723" x1="6.3016" x2="8.3396" y1="2.1855" y2="3.8004" gradientTransform="matrix(-1 0 0 1 16.881 0)" gradientUnits="userSpaceOnUse" xlink:href="#linearGradient4684"/>
  <linearGradient id="linearGradient4725" x1="6.3682" x2="7.6539" y1="2.1049" y2="4.1624" gradientTransform="matrix(-1 0 0 1 16.881 0)" gradientUnits="userSpaceOnUse" xlink:href="#linearGradient4696"/>
  <radialGradient id="radialGradient4786" cx="8.4405" cy="8.0427" r="2.1852" gradientTransform="matrix(1 0 0 .75184 0 1.4536)" gradientUnits="userSpaceOnUse">
   <stop stop-color="#eceff4" offset="0"/>
   <stop stop-color="#eceff4" stop-opacity="0" offset=".080948"/>
   <stop stop-color="#eceff4" stop-opacity="0" offset="1"/>
  </radialGradient>
  <filter id="filter4827" x="-.15421" y="-1.0234" width="1.3084" height="3.0469" color-interpolation-filters="sRGB">
   <feGaussianBlur stdDeviation="0.2020381"/>
  </filter>
  <linearGradient id="linearGradient4925" x1="8.3898" x2="8.3898" y1="1.8429" y2="7.7663" gradientTransform="rotate(90 8.4382 8.4499)" gradientUnits="userSpaceOnUse" xlink:href="#linearGradient1301"/>
  <linearGradient id="linearGradient5761" x1="8.3898" x2="8.3898" y1="1.8429" y2="7.7663" gradientTransform="rotate(180 8.4382 8.4499)" gradientUnits="userSpaceOnUse" xlink:href="#linearGradient1301"/>
  <linearGradient id="linearGradient5871" x1="8.3898" x2="8.3898" y1="1.8429" y2="7.7663" gradientTransform="rotate(-90 8.4382 8.4499)" gradientUnits="userSpaceOnUse" xlink:href="#linearGradient1301"/>
  <filter id="filter5953" x="-.11969" y="-.2618" width="1.2394" height="1.5236" color-interpolation-filters="sRGB">
   <feGaussianBlur stdDeviation="0.18806815"/>
  </filter>
  <filter id="filter5991" x="-.11898" y="-.19228" width="1.238" height="1.3846" color-interpolation-filters="sRGB">
   <feGaussianBlur stdDeviation="0.17189934"/>
  </filter>
  <filter id="filter6215" x="-.046534" y="-.046534" width="1.0931" height="1.0931" color-interpolation-filters="sRGB">
   <feGaussianBlur stdDeviation="0.033132083"/>
  </filter>
  <filter id="filter6265" x="-.044785" y="-.051713" width="1.0896" height="1.1034" color-interpolation-filters="sRGB">
   <feGaussianBlur stdDeviation="0.080237937"/>
  </filter>
  <filter id="filter6332" x="-.048" y="-.048" width="1.096" height="1.096" color-interpolation-filters="sRGB">
   <feGaussianBlur stdDeviation="0.059266901"/>
  </filter>
  <linearGradient id="linearGradient6357" x1="8.4162" x2="8.4162" y1=".90489" y2="18.553" gradientUnits="userSpaceOnUse">
   <stop stop-color="#2e3440" offset="0"/>
   <stop stop-color="#4c566a" offset="1"/>
  </linearGradient>
 </defs>
 <g stroke-linecap="round" stroke-linejoin="round">
  <rect transform="matrix(.99138 0 0 1 .072989 .0019055)" x=".79375" y=".90545" width="15.346" height="15.346" rx="3.0526" ry="3.0526" filter="url(#filter1178)" opacity=".15" stroke-width="1.2489" style="mix-blend-mode:normal"/>
  <rect x=".92604" y=".92604" width="15.081" height="15.081" rx="3" ry="3" fill="url(#linearGradient6357)" stroke-width="1.2274"/>
  <rect x=".01215" y=".0060174" width="16.924" height="16.927" fill="none" opacity=".15" stroke-width="1.052"/>
 </g>
 <path d="m6.5418 2.0789a0.32928 0.32928 0 0 0-0.33079 0.32873l-0.00564 2.8834a0.32928 0.32928 0 0 0 0.09723 0.23356l1.8705 1.8525a0.32928 0.32928 0 0 0 0.463 0.00206l1.8839-1.8432a0.32928 0.32928 0 0 0 0.09929-0.2351l0.0057-2.8819a0.32928 0.32928 0 0 0-0.32876-0.33027z" color="#000000" fill="#4c566a" style="paint-order:markers stroke fill"/>
 <g stroke-linecap="round" stroke-linejoin="round">
  <path d="m6.5586 1.99c-0.00729-3.34e-5 -0.014501 1.82e-4 -0.021704 5.168e-4 -0.0072 3.348e-4 -0.014595 8.563e-4 -0.021704 0.00155-0.00711 6.94e-4 -0.014181 0.00154-0.021187 0.00258-0.00701 0.00104-0.013777 0.00223-0.02067 0.00362-0.00689 0.00139-0.013898 0.00293-0.02067 0.00465-0.00677 0.00172-0.013512 0.00364-0.020153 0.00568-0.00664 0.00204-0.013135 0.00436-0.019637 0.00672-0.0065 0.00236-0.012768 0.00509-0.01912 0.00775-0.00635 0.00266-0.012926 0.00531-0.01912 0.00827-0.00619 0.00296-0.01206 0.00606-0.018086 0.0093-0.00603 0.00324-0.01172 0.00681-0.01757 0.010335-0.00585 0.00352-0.011906 0.00706-0.01757 0.010852-0.00566 0.00379-0.011067 0.00783-0.016536 0.011885-0.00547 0.00405-0.010755 0.0081-0.016019 0.012402-0.00526 0.0043-0.010452 0.00889-0.015503 0.013436-0.00505 0.00455-0.010158 0.00917-0.014986 0.013952-0.00483 0.00478-0.00936 0.00947-0.013952 0.014469-0.0046 5e-3 -0.00908 0.010285-0.013436 0.015503-0.00435 0.00522-0.00881 0.010595-0.012919 0.016019-0.0041 0.00542-0.00804 0.010915-0.011885 0.016536-0.00384 0.00562-0.00779 0.011243-0.011368 0.017053-0.00358 0.00581-0.00704 0.011581-0.010335 0.01757-0.0033 0.00599-0.00629 0.011927-0.0093 0.018086-0.00301 0.00616-0.00555 0.012799-0.00827 0.01912-0.00271 0.00632-0.00534 0.012647-0.00775 0.01912-0.00241 0.00647-0.00462 0.01302-0.00672 0.019637-0.00209 0.00662-0.00443 0.013403-0.0062 0.020153s-0.00321 0.013278-0.00465 0.020153c-0.00144 0.00688-0.00252 0.013678-0.00362 0.02067-0.00109 0.00699-0.00236 0.014087-0.0031 0.021187-7.429e-4 0.0071-0.00117 0.014506-0.00155 0.021704-3.821e-4 0.0072-5.047e-4 0.014416-5.167e-4 0.021704l-0.00413 2.8964c1.3e-6 0.00704 1.664e-4 0.01418 5.168e-4 0.021187 3.503e-4 0.00701 8.558e-4 0.013714 0.00155 0.02067 6.945e-4 0.00696 0.00155 0.013776 0.00258 0.02067 0.00103 0.00689 0.00225 0.013851 0.00362 0.02067 0.00137 0.00682 0.00295 0.013938 0.00465 0.02067 0.0017 0.00673 0.00366 0.013004 0.00568 0.019637 0.00202 0.00663 0.00438 0.013632 0.00672 0.020153 0.00234 0.00652 0.00458 0.012723 0.00723 0.01912 0.00266 0.0064 0.00582 0.012859 0.00878 0.01912 0.00297 0.00626 0.00603 0.012491 0.0093 0.018603 0.00327 0.00611 0.00676 0.012135 0.010335 0.018086 0.00357 0.00595 0.00699 0.011791 0.010852 0.01757 0.00387 0.00578 0.00773 0.011459 0.011885 0.017053 0.00416 0.00559 0.00848 0.01114 0.012919 0.016536 0.00444 0.0054 0.00923 0.010833 0.013952 0.016019 0.00472 0.00519 0.00947 0.010021 0.014469 0.014986l1.8789 1.8613v-0.00207c0.00511 0.0051 0.010202 0.010205 0.015503 0.014986 0.0053 0.00478 0.011055 0.00948 0.016536 0.013952 0.00548 0.00447 0.010886 0.00877 0.016536 0.012919 0.00565 0.00415 0.011247 0.00805 0.017053 0.011885 0.00581 0.00384 0.011621 0.00733 0.01757 0.010852 0.00595 0.00352 0.012006 0.00713 0.018086 0.010335 0.00608 0.00321 0.012404 0.00641 0.018603 0.0093 0.0062 0.00289 0.012298 0.00517 0.018603 0.00775 0.00631 0.00258 0.01272 0.00549 0.01912 0.00775s0.013155 0.00425 0.019637 0.0062c0.00648 0.00195 0.012569 0.00354 0.01912 0.00517 0.00655 0.00163 0.013546 0.00333 0.020153 0.00465 0.013215 0.00263 0.026421 0.00432 0.03979 0.00568 0.013369 0.00137 0.026883 0.00248 0.040307 0.00258 0.013424 9.93e-5 0.026927-8.974e-4 0.040307-0.00207 0.01338-0.00117 0.026552-0.00273 0.03979-0.00517 0.00662-0.00122 0.013072-0.0026 0.019637-0.00413 0.00656-0.00154 0.013139-0.00331 0.019637-0.00517 0.0065-0.00186 0.013217-0.00403 0.019637-0.0062s0.012792-0.00422 0.01912-0.00672c0.00633-0.00249 0.012379-0.00546 0.018603-0.00827 0.00622-0.00281 0.012495-0.00565 0.018603-0.00878 0.00611-0.00313 0.012106-0.00637 0.018086-0.00982s0.01173-0.00708 0.01757-0.010852c0.00584-0.00377 0.011883-0.0078 0.01757-0.011885 0.00569-0.00409 0.011015-0.00799 0.016536-0.012402 0.00552-0.00441 0.011193-0.00922 0.016536-0.013952 0.00534-0.00473 0.01035-0.00942 0.015503-0.014469l1.8929-1.8515c0.0051-0.00497 0.0097-0.010307 0.01447-0.015503 0.0048-0.0052 0.0094-0.010609 0.01395-0.016019 0.0045-0.00541 0.0092-0.010922 0.01344-0.016536 0.0042-0.00561 0.0085-0.011249 0.0124-0.017053 0.0039-0.0058 0.0072-0.011587 0.01085-0.01757 0.0036-0.00598 0.0075-0.011939 0.01085-0.018086 0.0033-0.00615 0.0063-0.012303 0.0093-0.018603s0.0056-0.012679 0.0083-0.01912c0.0027-0.00644 0.0054-0.013068 0.0078-0.019637 0.0024-0.00657 0.0047-0.01347 0.0067-0.020153 2e-3 -0.00668 4e-3 -0.013367 0.0057-0.020153 0.0017-0.00679 0.0033-0.013277 0.0046-0.020154 0.0014-0.00688 0.0026-0.013716 0.0036-0.02067 0.0011-0.00695 0.0019-0.014168 0.0026-0.021187 7.08e-4 -0.00702 0.0012-0.014115 0.0015-0.021187 3.62e-4 -0.00707 5.05e-4 -0.014075 5.17e-4 -0.021187l0.0062-2.8949c2e-5 -0.00728-1.71e-4 -0.014512-5.17e-4 -0.021704-3.47e-4 -0.00719-8.46e-4 -0.014091-0.0015-0.021187-7.05e-4 -0.0071-0.0015-0.014197-0.0026-0.021187s-0.0022-0.013794-0.0036-0.02067c-0.0014-0.00688-0.0029-0.013918-0.0047-0.02067-0.0017-0.00675-0.0036-0.013533-0.0057-0.020153-2e-3 -0.00662-0.0044-0.013158-0.0067-0.019637-0.0024-0.00648-0.0051-0.012792-0.0078-0.01912-0.0027-0.00633-0.0053-0.012435-0.0083-0.018603-3e-3 -0.00617-0.0061-0.012087-0.0093-0.018086-0.0032-6e-3 -0.0068-0.012264-0.01033-0.018086-0.0035-0.00582-0.0071-0.011417-0.01085-0.017053-0.0038-0.00564-0.0078-0.011096-0.01189-0.016536-0.0041-0.00544-0.0081-0.010784-0.0124-0.016019-0.0043-0.00524-0.0089-0.01048-0.01343-0.015503-0.0045-0.00502-0.0092-0.00967-0.01395-0.014469-0.0048-0.0048-0.0095-0.0099-0.01447-0.014469-5e-3 -0.00457-0.01029-0.00859-0.0155-0.012919-0.0052-0.00433-0.0106-0.00884-0.01602-0.012919-0.0054-0.00408-0.01092-0.00807-0.01654-0.011885-0.0056-0.00382-0.01125-0.0073-0.01705-0.010852-0.0058-0.00355-0.01158-0.00706-0.01757-0.010335-6e-3 -0.00327-0.01245-0.00631-0.0186-0.0093-0.0062-0.00299-0.01229-0.00609-0.0186-0.00878-0.0063-0.00269-0.01265-0.00484-0.01912-0.00723-0.0065-0.00239-0.01303-0.00464-0.01964-0.00672-0.0066-0.00208-0.01341-0.00393-0.02015-0.00568-0.0067-0.00176-0.01328-0.00374-0.02015-0.00517-0.0069-0.00143-0.01368-0.00253-0.02067-0.00362-7e-3 -0.00109-0.0141-0.00185-0.02119-0.00258-0.0071-7.364e-4 -0.01451-0.00169-0.0217-0.00207-0.0072-3.786e-4 -0.01442-5.05e-4 -0.0217-5.167e-4zm0 0.18396 3.7713 0.00982c0.0083 1.35e-5 0.01674 2.037e-4 0.02481 0.00103 0.0081 8.298e-4 0.01597 0.00201 0.02377 0.00362s0.01524 0.00386 0.02274 0.0062 0.01507 0.00471 0.02222 0.00775c0.0071 0.00304 0.01391 0.00664 0.02067 0.010335 0.0068 0.0037 0.0133 0.00757 0.01964 0.011885 0.0063 0.00431 0.01272 0.00906 0.0186 0.013952 0.0059 0.00489 0.01168 0.010073 0.01705 0.015503 0.0054 0.00543 0.01015 0.011125 0.01499 0.017053 0.0048 0.00593 0.0097 0.012218 0.01395 0.018603 0.0043 0.00639 0.0082 0.012833 0.01188 0.019637 0.0036 0.0068 0.0068 0.014005 0.0098 0.021187 3e-3 0.00718 0.0055 0.014183 0.0078 0.021704 0.0023 0.00752 0.0041 0.015434 0.0057 0.023254s0.0028 0.015692 0.0036 0.023771c7.86e-4 0.00808 0.0011 0.01599 1e-3 0.024287l-0.0057 2.8949c-1.3e-5 0.00801-2.15e-4 0.015881-1e-3 0.023771-8.19e-4 0.00789-2e-3 0.015535-0.0036 0.023254-0.0016 0.00772-0.0038 0.015759-0.0062 0.023254-0.0024 0.0075-0.0052 0.014484-0.0083 0.021704s-0.0066 0.014295-0.01034 0.021187c-0.0038 0.00689-0.0079 0.013642-0.0124 0.020153-0.0045 0.00651-0.0088 0.013041-0.01395 0.01912-0.0051 0.00608-0.01081 0.011976-0.01654 0.01757l-1.8923 1.8515c-0.00587 0.00575-0.011813 0.010993-0.018086 0.016019-0.00627 0.00503-0.013015 0.00965-0.019637 0.013952-0.00662 0.0043-0.013238 0.00831-0.020153 0.011885-0.00692 0.00357-0.014031 0.00697-0.021187 0.00982-0.00716 0.00285-0.014362 0.00511-0.021704 0.00723-0.00734 0.00212-0.014747 0.00377-0.02222 0.00517-0.00747 0.0014-0.015186 0.00243-0.022737 0.0031-0.00755 6.747e-4 -0.015162 0.00108-0.022737 0.00103-0.00758-4.8e-5 -0.015192-2.634e-4 -0.022737-0.00103-0.00754-7.701e-4 -0.01476-0.00213-0.02222-0.00362s-0.014898-0.00347-0.02222-0.00568c-0.00732-0.00221-0.014574-0.00482-0.021704-0.00775s-0.014303-0.00617-0.021187-0.00982c-0.00688-0.00365-0.01357-0.00752-0.020153-0.011885-0.00658-0.00437-0.012891-0.00886-0.01912-0.013952-0.00623-0.00509-0.012266-0.010731-0.018086-0.016536l-1.8789-1.8613c-0.00563-0.00559-0.011019-0.011531-0.016019-0.01757-5e-3 -0.00604-0.0096-0.01216-0.013952-0.018603-0.00435-0.00644-0.00872-0.012834-0.012402-0.019637-0.00368-0.0068-0.00683-0.01407-0.00982-0.021187-0.00299-0.00712-0.00548-0.014316-0.00775-0.021704-0.00227-0.00739-0.00415-0.015123-0.00568-0.022737-0.00154-0.00761-0.00284-0.014942-0.00362-0.022737-7.802e-4 -0.0078-0.00103-0.015838-0.00103-0.023771l0.00568-2.8964c1.37e-5 -0.00831 2.046e-4 -0.016727 0.00103-0.024804 8.29e-4 -0.00808 0.00253-0.015963 0.00413-0.023771 0.0016-0.00781 0.00334-0.015237 0.00568-0.022737s0.00523-0.015066 0.00827-0.02222c0.00304-0.00715 0.00612-0.013902 0.00982-0.02067 0.00369-0.00677 0.00757-0.013292 0.011885-0.019637 0.00431-0.00634 0.00906-0.012722 0.013952-0.018603 0.00489-0.00588 0.010076-0.011674 0.015503-0.017053 0.00543-0.00538 0.011127-0.010148 0.017053-0.014986 0.00593-0.00484 0.012219-0.00969 0.018603-0.013952 0.00638-0.00426 0.012833-0.00825 0.019637-0.011885 0.0068-0.00364 0.014003-0.00684 0.021187-0.00982 0.00718-0.00298 0.014697-0.00547 0.02222-0.00775 0.00752-0.00229 0.014913-0.00413 0.022737-0.00568 0.00782-0.00155 0.015685-0.00284 0.023771-0.00362 0.00809-7.752e-4 0.016497-0.00107 0.024804-0.00103z" color="#000000" fill="url(#linearGradient1303)" style="paint-order:markers stroke fill"/>
  <path d="m6.5586 1.8185c-0.32559-6.054e-4 -0.59735 0.26797-0.59788 0.59375l-0.00362 2.8964c2.92e-5 0.15845 0.06328 0.31001 0.1757 0.42167l1.8769 1.8613c0.22877 0.22819 0.60739 0.23028 0.83818 0.00413l1.8924-1.8515c0.11447-0.11172 0.17957-0.26586 0.17983-0.42581l0.0036-2.8949c1e-3 -0.32596-0.26777-0.59476-0.59373-0.5953l-3.7692-0.00982zm0 0.17156 3.7713 0.00982c0.0073 1.17e-5 0.01451 1.381e-4 0.0217 5.167e-4 0.0072 3.786e-4 0.01461 0.00133 0.0217 0.00207 0.0071 7.365e-4 0.0142 0.0015 0.02119 0.00258 7e-3 0.00109 0.0138 0.00219 0.02067 0.00362 0.0069 0.00143 0.01341 0.00341 0.02015 0.00517 0.0067 0.00176 0.01354 0.00361 0.02015 0.00568 0.0066 0.00208 0.01317 0.00433 0.01964 0.00672 0.0065 0.00239 0.01281 0.00454 0.01912 0.00723 0.0063 0.00269 0.01245 0.0058 0.0186 0.00878 0.0062 0.00299 0.01262 0.00603 0.0186 0.0093 6e-3 0.00327 0.01176 0.00678 0.01757 0.010335 0.0058 0.00355 0.01144 0.00703 0.01705 0.010852 0.0056 0.00382 0.01111 0.00781 0.01654 0.011885 0.0054 0.00408 0.0108 0.00859 0.01602 0.012919 0.0052 0.00433 0.0105 0.00835 0.0155 0.012919 5e-3 0.00457 0.0097 0.00967 0.01447 0.014469 0.0048 0.0048 0.0094 0.00945 0.01395 0.014469 0.0045 0.00502 0.0091 0.010267 0.01343 0.015503 0.0043 0.00524 0.0083 0.010579 0.0124 0.016019s0.0081 0.0109 0.01189 0.016536c0.0038 0.00564 0.0073 0.01123 0.01085 0.017053 0.0035 0.00582 0.0071 0.012087 0.01033 0.018086 0.0032 6e-3 0.0063 0.011918 0.0093 0.018086 3e-3 0.00617 0.0056 0.012275 0.0083 0.018603 0.0027 0.00633 0.0054 0.012641 0.0078 0.01912 0.0024 0.00648 0.0047 0.013017 0.0067 0.019637s4e-3 0.013401 0.0057 0.020153c0.0017 0.00675 0.0033 0.013794 0.0047 0.02067 0.0014 0.00688 0.0026 0.01368 0.0036 0.02067 0.0011 0.00699 0.0019 0.014091 0.0026 0.021187 7.04e-4 0.0071 0.0012 0.013995 0.0015 0.021187 3.46e-4 0.00719 5.37e-4 0.014424 5.17e-4 0.021704l-0.0062 2.8949c-1.2e-5 0.00711-1.55e-4 0.014115-5.17e-4 0.021187-3.62e-4 0.00707-8.42e-4 0.014168-0.0015 0.021187-7.09e-4 0.00702-0.0015 0.014233-0.0026 0.021187-1e-3 0.00695-0.0022 0.013794-0.0036 0.02067-0.0014 0.00688-0.0029 0.013367-0.0046 0.020154-0.0017 0.00679-0.0036 0.01347-0.0057 0.020153-2e-3 0.00668-0.0043 0.013585-0.0067 0.020153-0.0024 0.00657-0.0051 0.013196-0.0078 0.019637-0.0027 0.00644-0.0053 0.012819-0.0083 0.01912-3e-3 0.0063-6e-3 0.012455-0.0093 0.018603-0.0033 0.00615-0.0072 0.012104-0.01085 0.018086-0.0036 0.00598-0.0069 0.011765-0.01085 0.01757-0.0039 0.0058-0.0082 0.011439-0.0124 0.017053-0.0042 0.00561-0.0089 0.011125-0.01344 0.016536-0.0045 0.00541-0.0091 0.010824-0.01395 0.016019-0.0048 0.0052-0.0094 0.010535-0.01447 0.015503l-1.8929 1.8515c-0.00515 0.00505-0.010159 0.00974-0.015503 0.014469-0.00534 0.00473-0.011015 0.00954-0.016536 0.013952-0.00552 0.00441-0.01085 0.00831-0.016536 0.012402-0.00569 0.00409-0.01173 0.00812-0.01757 0.011885-0.00584 0.00377-0.01159 0.0074-0.01757 0.010852-0.00598 0.00345-0.011978 0.00669-0.018086 0.00982-0.00611 0.00313-0.012379 0.00597-0.018603 0.00878-0.00622 0.00281-0.012275 0.00577-0.018603 0.00827-0.00633 0.00249-0.012701 0.00454-0.01912 0.00672-0.00642 0.00217-0.013139 0.00434-0.019637 0.0062-0.0065 0.00186-0.013072 0.00363-0.019637 0.00517-0.00656 0.00154-0.013018 0.00291-0.019637 0.00413-0.013238 0.00244-0.02641 4e-3 -0.03979 0.00517s-0.026883 0.00217-0.040307 0.00207c-0.013424-9.93e-5 -0.026938-0.00122-0.040307-0.00258-0.013369-0.00137-0.026575-0.00305-0.03979-0.00568-0.00661-0.00132-0.013603-0.00302-0.020153-0.00465s-0.012639-0.00322-0.01912-0.00517c-0.00648-0.00195-0.013237-0.00394-0.019637-0.0062s-0.012815-0.00517-0.01912-0.00775c-0.00631-0.00258-0.012404-0.00486-0.018603-0.00775-0.0062-0.00289-0.012523-0.00609-0.018603-0.0093s-0.012137-0.00681-0.018086-0.010335c-0.00595-0.00352-0.011764-0.00701-0.01757-0.010852-0.00581-0.00384-0.011403-0.00773-0.017053-0.011885-0.00565-0.00415-0.011055-0.00845-0.016536-0.012919-0.00548-0.00447-0.011235-0.00917-0.016536-0.013952-0.0053-0.00478-0.010395-0.00989-0.015503-0.014986v0.00207l-1.8789-1.8614c-5e-3 -0.00496-0.00975-0.0098-0.014469-0.014986-0.00472-0.00519-0.00951-0.010623-0.013952-0.016019-0.00444-0.0054-0.00876-0.010942-0.012919-0.016536-0.00416-0.00559-0.00802-0.011274-0.011885-0.017053-0.00387-0.00578-0.00728-0.011618-0.010852-0.01757-0.00357-0.00595-0.00706-0.011974-0.010335-0.018086-0.00327-0.00611-0.00634-0.012342-0.0093-0.018603-0.00297-0.00626-0.00613-0.012723-0.00878-0.01912-0.00266-0.0064-0.00489-0.012599-0.00723-0.01912-0.00234-0.00652-0.0047-0.013521-0.00672-0.020153-0.00202-0.00663-0.00399-0.012905-0.00568-0.019637-0.0017-0.00673-0.00328-0.013851-0.00465-0.02067-0.00137-0.00682-0.00258-0.013776-0.00362-0.02067-0.00103-0.00689-0.00189-0.013714-0.00258-0.02067-6.944e-4 -0.00696-0.0012-0.013664-0.00155-0.02067-3.504e-4 -0.00701-5.155e-4 -0.014142-5.168e-4 -0.021187l0.00413-2.8964c1.2e-5 -0.00729 1.346e-4 -0.014506 5.167e-4 -0.021704 3.821e-4 -0.0072 8.074e-4 -0.014604 0.00155-0.021704 7.429e-4 -0.0071 0.00201-0.014195 0.0031-0.021187 0.00109-0.00699 0.00218-0.013794 0.00362-0.02067 0.00144-0.00688 0.00288-0.013403 0.00465-0.020153s0.00411-0.013537 0.0062-0.020153c0.00209-0.00662 0.00431-0.013164 0.00672-0.019637 0.00241-0.00647 0.00504-0.012799 0.00775-0.01912 0.00271-0.00632 0.00526-0.012961 0.00827-0.01912 0.00301-0.00616 6e-3 -0.012097 0.0093-0.018086 0.0033-0.00599 0.00676-0.01176 0.010335-0.01757 0.00358-0.00581 0.00752-0.011431 0.011368-0.017053 0.00385-0.00562 0.00778-0.011112 0.011885-0.016536 0.0041-0.00542 0.00856-0.010802 0.012919-0.016019 0.00436-0.00522 0.00884-0.0105 0.013436-0.015503 0.0046-5e-3 0.00912-0.00969 0.013952-0.014469 0.00483-0.00478 0.00994-0.00941 0.014986-0.013952 0.00505-0.00455 0.010238-0.00913 0.015503-0.013436 0.00526-0.0043 0.010551-0.00835 0.016019-0.012402 0.00547-0.00405 0.010872-0.00809 0.016536-0.011885 0.00566-0.00379 0.01172-0.00733 0.01757-0.010852 0.00585-0.00352 0.011543-0.00709 0.01757-0.010335 0.00603-0.00324 0.011893-0.00635 0.018086-0.0093 0.00619-0.00296 0.012768-0.00561 0.01912-0.00827 0.00635-0.00266 0.012619-0.0054 0.01912-0.00775 0.0065-0.00236 0.012996-0.00468 0.019637-0.00672 0.00664-0.00204 0.013382-0.00397 0.020153-0.00568 0.00677-0.00172 0.013777-0.00327 0.02067-0.00465 0.00689-0.00139 0.013665-0.00257 0.02067-0.00362 0.00701-0.00104 0.014078-0.00189 0.021187-0.00258 0.00711-6.939e-4 0.014501-0.00122 0.021704-0.00155 0.0072-3.348e-4 0.014416-5.502e-4 0.021704-5.168e-4z" color="#000000" fill="url(#linearGradient1303)" style="paint-order:markers stroke fill"/>
  <path d="m6.5586 1.9902c-0.23319-0.00107-0.4254 0.18868-0.42578 0.42188l-0.00391 2.8965c2.07e-5 0.11271 0.045032 0.22135 0.125 0.30078l1.8789 1.8613v-0.0019531c0.16346 0.16305 0.42885 0.16549 0.59375 0.00391l1.8926-1.8516c0.08143-0.079475 0.12677-0.18895 0.12695-0.30273l0.0059-2.8945c6.64e-4 -0.23294-0.18897-0.42345-0.42192-0.42383zm0 0.18359 3.7715 0.00977c0.13276 2.148e-4 0.23868 0.10747 0.23828 0.24023l-0.0059 2.8945c-1.05e-4 0.064066-0.02642 0.12517-0.07227 0.16992l-1.8925 1.8516c-0.093943 0.092054-0.24282 0.090934-0.33594-0.0019531l-1.8789-1.8613c-0.045025-0.044723-0.070301-0.10451-0.070312-0.16797l0.00586-2.8965c2.189e-4 -0.13291 0.10733-0.23889 0.24023-0.23828z" color="#000000" fill="#2e3440" style="paint-order:markers stroke fill"/>
 </g>
 <path d="m6.7471 2.3529a0.29768 0.29768 0 0 0-0.29905 0.29719l-0.0051 2.6068a0.29768 0.29768 0 0 0 0.0879 0.21115l1.691 1.6747a0.29768 0.29768 0 0 0 0.41857 0.00186l1.7031-1.6664a0.29768 0.29768 0 0 0 0.08976-0.21254l0.0051-2.6054a0.29768 0.29768 0 0 0-0.29717-0.29858z" color="#000000" fill="#4c566a" style="paint-order:markers stroke fill"/>
 <path d="m8.4407 4.2488-6.32e-5 -2.1619-1.882-0.0049c-0.079821-3.661e-4 -0.15315 0.027569-0.2105 0.074372" color="#000000" fill="url(#linearGradient4639)" style="paint-order:markers stroke fill"/>
 <path d="m8.4066 4.2147-2.0585-2.0583c-0.074165 0.060526-0.1216 0.15261-0.12177 0.25583l-0.00568 2.8964c9.4e-6 0.051672 0.01211 0.10209 0.034728 0.14748" color="#000000" fill="url(#linearGradient4647)" style="paint-order:markers stroke fill"/>
 <path d="m6.2554 5.4561c0.015939 0.031984 0.037102 0.061468 0.062938 0.08713l1.8789 1.8608c0.064452 0.06429 0.15255 0.099174 0.24354 0.096433l-9.5e-5 -3.2517-0.03411-0.034108" color="#000000" fill="url(#linearGradient4655)" style="paint-order:markers stroke fill"/>
 <path d="m8.4066 4.2147-2.0585-2.0583c-0.074165 0.060526-0.1216 0.15261-0.12177 0.25583l-0.00568 2.8964c9.4e-6 0.051672 0.01211 0.10209 0.034728 0.14748" color="#000000" fill="url(#linearGradient4676)" style="paint-order:markers stroke fill"/>
 <path d="m8.4407 4.2488-6.32e-5 -2.1619-1.882-0.0049c-0.079821-3.661e-4 -0.15315 0.027569-0.2105 0.074372" color="#000000" fill="url(#linearGradient4688)" style="paint-order:markers stroke fill"/>
 <path d="m8.4406 4.2488 6.32e-5 -2.1619 1.882-0.0049c0.07982-3.661e-4 0.15315 0.027569 0.2105 0.074372" color="#000000" fill="url(#linearGradient4717)" style="paint-order:markers stroke fill"/>
 <path d="m8.4747 4.2147 2.0585-2.0583c0.07417 0.060526 0.1216 0.15261 0.12177 0.25583l0.0057 2.8964c-9e-6 0.051672-0.01211 0.10209-0.03473 0.14748" color="#000000" fill="url(#linearGradient4719)" style="paint-order:markers stroke fill"/>
 <path d="m10.626 5.4561c-0.01594 0.031984-0.0371 0.061468-0.06294 0.08713l-1.8789 1.8608c-0.064452 0.06429-0.15255 0.099174-0.24354 0.096433l9.5e-5 -3.2517 0.03411-0.034108" color="#000000" fill="url(#linearGradient4721)" style="paint-order:markers stroke fill"/>
 <path d="m8.4747 4.2147 2.0585-2.0583c0.07417 0.060526 0.1216 0.15261 0.12177 0.25583l0.0057 2.8964c-9e-6 0.051672-0.01211 0.10209-0.03473 0.14748" color="#000000" fill="url(#linearGradient4723)" style="paint-order:markers stroke fill"/>
 <path d="m8.4406 4.2488 6.32e-5 -2.1619 1.882-0.0049c0.07982-3.661e-4 0.15315 0.027569 0.2105 0.074372" color="#000000" fill="url(#linearGradient4725)" style="paint-order:markers stroke fill"/>
 <path d="m10.626 5.4561c-0.01594 0.031984-0.0371 0.061468-0.06294 0.08713l-1.8789 1.8608c-0.064452 0.06429-0.15255 0.099174-0.24354 0.096433l9.5e-5 -3.2517 0.03411-0.034108m-2.2193 1.2414c0.015939 0.031984 0.037102 0.061468 0.062938 0.08713l1.8789 1.8608c0.064452 0.06429 0.15255 0.099174 0.24354 0.096433l-9.5e-5 -3.2517-0.03411-0.034108" color="#000000" fill="url(#radialGradient4786)" style="paint-order:markers stroke fill"/>
 <path d="m8.4407 4.2488-6.32e-5 -2.1619-1.882-0.0049c-0.079821-3.661e-4 -0.15315 0.027569-0.2105 0.074372" color="#000000" fill="url(#linearGradient4639)" style="paint-order:markers stroke fill"/>
 <path d="m8.4066 4.2147-2.0585-2.0583c-0.074165 0.060526-0.1216 0.15261-0.12177 0.25583l-0.00568 2.8964c9.4e-6 0.051672 0.01211 0.10209 0.034728 0.14748" color="#000000" fill="url(#linearGradient4647)" style="paint-order:markers stroke fill"/>
 <path d="m6.2554 5.4561c0.015939 0.031984 0.037102 0.061468 0.062938 0.08713l1.8789 1.8608c0.064452 0.06429 0.15255 0.099174 0.24354 0.096433l-9.5e-5 -3.2517-0.03411-0.034108" color="#000000" fill="url(#linearGradient4655)" style="paint-order:markers stroke fill"/>
 <path d="m8.4066 4.2147-2.0585-2.0583c-0.074165 0.060526-0.1216 0.15261-0.12177 0.25583l-0.00568 2.8964c9.4e-6 0.051672 0.01211 0.10209 0.034728 0.14748" color="#000000" fill="url(#linearGradient4676)" style="paint-order:markers stroke fill"/>
 <path d="m8.4407 4.2488-6.32e-5 -2.1619-1.882-0.0049c-0.079821-3.661e-4 -0.15315 0.027569-0.2105 0.074372" color="#000000" fill="url(#linearGradient4688)" style="paint-order:markers stroke fill"/>
 <path d="m8.4406 4.2488 6.32e-5 -2.1619 1.882-0.0049c0.07982-3.661e-4 0.15315 0.027569 0.2105 0.074372" color="#000000" fill="url(#linearGradient4717)" style="paint-order:markers stroke fill"/>
 <path d="m8.4747 4.2147 2.0585-2.0583c0.07417 0.060526 0.1216 0.15261 0.12177 0.25583l0.0057 2.8964c-9e-6 0.051672-0.01211 0.10209-0.03473 0.14748" color="#000000" fill="url(#linearGradient4719)" style="paint-order:markers stroke fill"/>
 <path d="m10.626 5.4561c-0.01594 0.031984-0.0371 0.061468-0.06294 0.08713l-1.8789 1.8608c-0.064452 0.06429-0.15255 0.099174-0.24354 0.096433l9.5e-5 -3.2517 0.03411-0.034108" color="#000000" fill="url(#linearGradient4721)" style="paint-order:markers stroke fill"/>
 <path d="m8.4747 4.2147 2.0585-2.0583c0.07417 0.060526 0.1216 0.15261 0.12177 0.25583l0.0057 2.8964c-9e-6 0.051672-0.01211 0.10209-0.03473 0.14748" color="#000000" fill="url(#linearGradient4723)" style="paint-order:markers stroke fill"/>
 <path d="m8.4406 4.2488 6.32e-5 -2.1619 1.882-0.0049c0.07982-3.661e-4 0.15315 0.027569 0.2105 0.074372" color="#000000" fill="url(#linearGradient4725)" style="paint-order:markers stroke fill"/>
 <path d="m10.626 5.4561c-0.01594 0.031984-0.0371 0.061468-0.06294 0.08713l-1.8789 1.8608c-0.064452 0.06429-0.15255 0.099174-0.24354 0.096433l9.5e-5 -3.2517 0.03411-0.034108m-2.2193 1.2414c0.015939 0.031984 0.037102 0.061468 0.062938 0.08713l1.8789 1.8608c0.064452 0.06429 0.15255 0.099174 0.24354 0.096433l-9.5e-5 -3.2517-0.03411-0.034108" color="#000000" fill="url(#radialGradient4786)" style="paint-order:markers stroke fill"/>
 <g transform="matrix(.56356 0 0 .56356 -4.2079 -1.9227)">
  <path transform="matrix(1.0854 0 0 1.0854 -2.0704 6.9682)" d="m24.736 4.9491h-4.2999l2.15-3.7239z" fill="#a3be8c" style="paint-order:markers stroke fill"/>
  <path transform="matrix(.79123 0 0 .79123 4.5729 8.0564)" d="m24.736 4.9491h-4.2999l2.15-3.7239z" fill="#2e3440" filter="url(#filter6265)" style="paint-order:markers stroke fill"/>
  <path transform="matrix(.79123 0 0 .79123 4.5729 8.0564)" d="m24.736 4.9491h-4.2999l2.15-3.7239z" fill="#4c566a" style="paint-order:markers stroke fill"/>
 </g>
 <path d="m14.809 6.5535a0.32928 0.32928 0 0 0-0.32873-0.33079l-2.8834-0.00564a0.32928 0.32928 0 0 0-0.23356 0.09723l-1.8525 1.8705a0.32928 0.32928 0 0 0-0.00206 0.463l1.8432 1.8839a0.32928 0.32928 0 0 0 0.2351 0.09929l2.8819 0.0057a0.32928 0.32928 0 0 0 0.33027-0.32876z" color="#000000" fill="#4c566a" style="paint-order:markers stroke fill"/>
 <g stroke-linecap="round" stroke-linejoin="round">
  <path d="m14.898 6.5704c3.3e-5 -0.00729-1.82e-4 -0.014501-5.17e-4 -0.021704-3.35e-4 -0.0072-8.56e-4 -0.014595-0.0015-0.021704-6.94e-4 -0.00711-0.0015-0.014181-0.0026-0.021187-1e-3 -0.00701-0.0022-0.013777-0.0036-0.02067-0.0014-0.00689-0.0029-0.013898-0.0046-0.02067-0.0017-0.00677-0.0036-0.013512-0.0057-0.020153-2e-3 -0.00664-0.0044-0.013135-0.0067-0.019637-0.0024-0.0065-0.0051-0.012768-0.0077-0.01912-0.0027-0.00635-0.0053-0.012926-0.0083-0.01912-3e-3 -0.00619-0.0061-0.01206-0.0093-0.018086-0.0032-0.00603-0.0068-0.01172-0.01034-0.01757-0.0035-0.00585-0.0071-0.011906-0.01085-0.01757-0.0038-0.00566-0.0078-0.011067-0.01188-0.016536-4e-3 -0.00547-0.0081-0.010755-0.0124-0.016019-0.0043-0.00526-0.0089-0.010452-0.01344-0.015503-0.0046-0.00505-0.0092-0.010158-0.01395-0.014986-0.0048-0.00483-0.0095-0.00936-0.01447-0.013952-5e-3 -0.0046-0.01028-0.00908-0.0155-0.013436-0.0052-0.00435-0.01059-0.00881-0.01602-0.012919-0.0054-0.0041-0.01091-0.00804-0.01654-0.011885-0.0056-0.00384-0.01124-0.00779-0.01705-0.011368-0.0058-0.00358-0.01158-0.00704-0.01757-0.010335-6e-3 -0.0033-0.01193-0.00629-0.01809-0.0093-0.0062-0.00301-0.0128-0.00555-0.01912-0.00827-0.0063-0.00271-0.01265-0.00534-0.01912-0.00775-0.0065-0.00241-0.01302-0.00462-0.01964-0.00672-0.0066-0.00209-0.0134-0.00443-0.02015-0.0062-0.0068-0.00177-0.01328-0.00321-0.02015-0.00465-0.0069-0.00144-0.01368-0.00252-0.02067-0.00362-7e-3 -0.00109-0.01409-0.00236-0.02119-0.0031-0.0071-7.429e-4 -0.01451-0.00117-0.0217-0.00155-0.0072-3.821e-4 -0.01442-5.047e-4 -0.0217-5.167e-4l-2.8964-0.00413c-7e-3 1.3e-6 -0.01418 1.664e-4 -0.02119 5.168e-4 -7e-3 3.503e-4 -0.01371 8.558e-4 -0.02067 0.00155-7e-3 6.945e-4 -0.01378 0.00155-0.02067 0.00258-0.0069 0.00103-0.01385 0.00225-0.02067 0.00362-0.0068 0.00137-0.01394 0.00295-0.02067 0.00465-0.0067 0.0017-0.013 0.00366-0.01964 0.00568-0.0066 0.00202-0.01363 0.00438-0.02015 0.00672-0.0065 0.00234-0.01272 0.00458-0.01912 0.00723-0.0064 0.00266-0.01286 0.00582-0.01912 0.00878-0.0063 0.00297-0.01249 0.00603-0.0186 0.0093-0.0061 0.00327-0.01214 0.00676-0.01809 0.010335-6e-3 0.00357-0.01179 0.00699-0.01757 0.010852-0.0058 0.00387-0.01146 0.00773-0.01705 0.011885-0.0056 0.00416-0.01114 0.00848-0.01654 0.012919-0.0054 0.00444-0.01083 0.00923-0.01602 0.013952-0.0052 0.00472-0.01002 0.00947-0.01499 0.014469l-1.8615 1.8789h0.00207c-0.0051 0.00511-0.010205 0.010202-0.014986 0.015503-0.00478 0.0053-0.00948 0.011055-0.013952 0.016536-0.00447 0.00548-0.00877 0.010886-0.012919 0.016536-0.00415 0.00565-0.00805 0.011247-0.011885 0.017053-0.00384 0.00581-0.00733 0.011621-0.010852 0.01757-0.00352 0.00595-0.00713 0.012006-0.010335 0.018086-0.00321 0.00608-0.00641 0.012404-0.0093 0.018603-0.00289 0.0062-0.00517 0.012298-0.00775 0.018603-0.00258 0.00631-0.00549 0.01272-0.00775 0.01912s-0.00425 0.013155-0.0062 0.019637c-0.00195 0.00648-0.00354 0.012569-0.00517 0.01912-0.00163 0.00655-0.00333 0.013546-0.00465 0.020153-0.00263 0.013215-0.00432 0.026421-0.00568 0.03979-0.00137 0.013369-0.00248 0.026883-0.00258 0.040307-9.93e-5 0.013424 8.974e-4 0.026927 0.00207 0.040307 0.00117 0.01338 0.00273 0.026552 0.00517 0.03979 0.00122 0.00662 0.0026 0.013072 0.00413 0.019637 0.00154 0.00656 0.00331 0.013139 0.00517 0.019637 0.00186 0.0065 0.00403 0.013217 0.0062 0.019637s0.00422 0.012792 0.00672 0.01912c0.00249 0.00633 0.00546 0.012379 0.00827 0.018603 0.00281 0.00622 0.00565 0.012495 0.00878 0.018603 0.00313 0.00611 0.00637 0.012106 0.00982 0.018086s0.00708 0.01173 0.010852 0.01757c0.00377 0.00584 0.0078 0.011883 0.011885 0.01757 0.00409 0.00569 0.00799 0.011015 0.012402 0.016536 0.00441 0.00552 0.00922 0.011193 0.013952 0.016536 0.00473 0.00534 0.00942 0.01035 0.014469 0.015503l1.8515 1.8929c5e-3 0.0051 0.01031 0.0097 0.0155 0.01447 0.0052 0.0048 0.01061 0.0094 0.01602 0.01395 0.0054 0.0045 0.01092 0.0092 0.01654 0.01344 0.0056 0.0042 0.01125 0.0085 0.01705 0.0124s0.01159 0.0072 0.01757 0.01085c6e-3 0.0036 0.01194 0.0075 0.01809 0.01085 0.0061 0.0033 0.0123 0.0063 0.0186 0.0093s0.01268 0.0056 0.01912 0.0083c0.0064 0.0027 0.01307 0.0054 0.01964 0.0078 0.0066 0.0024 0.01347 0.0047 0.02015 0.0067 0.0067 2e-3 0.01337 4e-3 0.02015 0.0057 0.0068 0.0017 0.01328 0.0033 0.02015 0.0046 0.0069 0.0014 0.01372 0.0026 0.02067 0.0036 0.0069 0.0011 0.01417 0.0019 0.02119 0.0026 7e-3 7.08e-4 0.01412 0.0012 0.02119 0.0015 0.0071 3.62e-4 0.01408 5.05e-4 0.02119 5.17e-4l2.8949 0.0062c0.0073 2e-5 0.01451-1.71e-4 0.0217-5.17e-4 0.0072-3.47e-4 0.01409-8.46e-4 0.02119-0.0015 0.0071-7.05e-4 0.0142-0.0015 0.02119-0.0026 7e-3 -0.0011 0.01379-0.0022 0.02067-0.0036 0.0069-0.0014 0.01392-0.0029 0.02067-0.0047 0.0068-0.0017 0.01353-0.0036 0.02015-0.0057 0.0066-2e-3 0.01316-0.0044 0.01964-0.0067 0.0065-0.0024 0.01279-0.0051 0.01912-0.0078 0.0063-0.0027 0.01243-0.0053 0.0186-0.0083 0.0062-3e-3 0.01209-0.0061 0.01809-0.0093s0.01226-0.0068 0.01809-0.01033c0.0058-0.0035 0.01142-0.0071 0.01705-0.01085 0.0056-0.0038 0.0111-0.0078 0.01654-0.01189 0.0054-0.0041 0.01078-0.0081 0.01602-0.0124 0.0052-0.0043 0.01048-0.0089 0.0155-0.01343 5e-3 -0.0045 0.0097-0.0092 0.01447-0.01395 0.0048-0.0048 0.0099-0.0095 0.01447-0.01447 0.0046-5e-3 0.0086-0.01029 0.01292-0.0155 0.0043-0.0052 0.0088-0.0106 0.01292-0.01602 0.0041-0.0054 0.0081-0.01092 0.01189-0.01654 0.0038-0.0056 0.0073-0.01125 0.01085-0.01705 0.0035-0.0058 0.0071-0.01158 0.01033-0.01757 0.0033-6e-3 0.0063-0.01245 0.0093-0.0186 3e-3 -0.0062 0.0061-0.01229 0.0088-0.0186 0.0027-0.0063 0.0048-0.01265 0.0072-0.01912 0.0024-0.0065 0.0046-0.01303 0.0067-0.01964 0.0021-0.0066 0.0039-0.01341 0.0057-0.02015 0.0018-0.0067 0.0037-0.01328 0.0052-0.02015 0.0014-0.0069 0.0025-0.01368 0.0036-0.02067 0.0011-7e-3 0.0019-0.0141 0.0026-0.02119 7.36e-4 -0.0071 0.0017-0.01451 0.0021-0.0217 3.79e-4 -0.0072 5.05e-4 -0.01442 5.17e-4 -0.0217zm-0.18396 0-0.0098 3.7713c-1.3e-5 0.0083-2.04e-4 0.01674-1e-3 0.02481-8.3e-4 0.0081-2e-3 0.01597-0.0036 0.02377s-0.0039 0.01524-0.0062 0.02274-0.0047 0.01507-0.0077 0.02222c-3e-3 0.0071-0.0066 0.01391-0.01033 0.02067-0.0037 0.0068-0.0076 0.0133-0.01188 0.01964-0.0043 0.0063-0.0091 0.01272-0.01395 0.0186-0.0049 0.0059-0.01007 0.01168-0.0155 0.01705-0.0054 0.0054-0.01112 0.01015-0.01705 0.01499-0.0059 0.0048-0.01222 0.0097-0.0186 0.01395-0.0064 0.0043-0.01283 0.0082-0.01964 0.01188-0.0068 0.0036-0.014 0.0068-0.02119 0.0098-0.0072 3e-3 -0.01418 0.0055-0.0217 0.0078-0.0075 0.0023-0.01543 0.0041-0.02325 0.0057-0.0078 0.0016-0.01569 0.0028-0.02377 0.0036-0.0081 7.86e-4 -0.01599 0.0011-0.02429 1e-3l-2.8949-0.0057c-8e-3 -1.3e-5 -0.01588-2.15e-4 -0.02377-1e-3 -0.0079-8.19e-4 -0.01553-2e-3 -0.02325-0.0036-0.0077-0.0016-0.01576-0.0038-0.02325-0.0062-0.0075-0.0024-0.01448-0.0052-0.0217-0.0083-0.0072-0.0031-0.0143-0.0066-0.02119-0.01034-0.0069-0.0038-0.01364-0.0079-0.02015-0.0124-0.0065-0.0045-0.01304-0.0088-0.01912-0.01395-0.0061-0.0051-0.01198-0.01081-0.01757-0.01654l-1.8517-1.8923c-0.00575-0.00587-0.010993-0.011813-0.016019-0.018086-0.00503-0.00627-0.00965-0.013015-0.013952-0.019637-0.0043-0.00662-0.00831-0.013238-0.011885-0.020153-0.00357-0.00692-0.00697-0.014031-0.00982-0.021187-0.00285-0.00716-0.00511-0.014362-0.00723-0.021704-0.00212-0.00734-0.00377-0.014747-0.00517-0.02222-0.0014-0.00747-0.00243-0.015186-0.0031-0.022737-6.747e-4 -0.00755-0.00108-0.015162-0.00103-0.022737 4.8e-5 -0.00758 2.634e-4 -0.015192 0.00103-0.022737 7.701e-4 -0.00754 0.00213-0.01476 0.00362-0.02222s0.00347-0.014898 0.00568-0.02222c0.00221-0.00732 0.00482-0.014574 0.00775-0.021704s0.00617-0.014303 0.00982-0.021187c0.00365-0.00688 0.00752-0.01357 0.011885-0.020153 0.00437-0.00658 0.00886-0.012891 0.013952-0.01912 0.00509-0.00623 0.010731-0.012266 0.016536-0.018086l1.8613-1.8789c0.0056-0.00563 0.01153-0.011019 0.01757-0.016019 6e-3 -5e-3 0.01216-0.0096 0.0186-0.013952 0.0064-0.00435 0.01283-0.00872 0.01964-0.012402 0.0068-0.00368 0.01407-0.00683 0.02119-0.00982 0.0071-0.00299 0.01432-0.00548 0.0217-0.00775 0.0074-0.00227 0.01512-0.00415 0.02274-0.00568 0.0076-0.00154 0.01494-0.00284 0.02274-0.00362 0.0078-7.802e-4 0.01584-0.00103 0.02377-0.00103l2.8964 0.00568c0.0083 1.37e-5 0.01673 2.046e-4 0.0248 0.00103 0.0081 8.29e-4 0.01596 0.00253 0.02377 0.00413 0.0078 0.0016 0.01524 0.00334 0.02274 0.00568s0.01507 0.00523 0.02222 0.00827c0.0071 0.00304 0.0139 0.00612 0.02067 0.00982 0.0068 0.00369 0.01329 0.00757 0.01964 0.011885 0.0063 0.00431 0.01272 0.00906 0.0186 0.013952 0.0059 0.00489 0.01167 0.010076 0.01705 0.015503 0.0054 0.00543 0.01015 0.011127 0.01499 0.017053 0.0048 0.00593 0.0097 0.012219 0.01395 0.018603 0.0043 0.00638 0.0083 0.012833 0.01188 0.019637 0.0036 0.0068 0.0068 0.014003 0.0098 0.021187 3e-3 0.00718 0.0055 0.014697 0.0077 0.02222 0.0023 0.00752 0.0041 0.014913 0.0057 0.022737 0.0015 0.00782 0.0028 0.015685 0.0036 0.023771 7.76e-4 0.00809 0.0011 0.016497 1e-3 0.024804z" color="#000000" fill="url(#linearGradient4925)" style="paint-order:markers stroke fill"/>
  <path d="m15.07 6.5704c6.05e-4 -0.32559-0.26797-0.59735-0.59375-0.59788l-2.8964-0.00362c-0.15845 2.92e-5 -0.31001 0.06328-0.42167 0.1757l-1.8613 1.8769c-0.22819 0.22877-0.23028 0.60739-0.00413 0.83818l1.8515 1.8924c0.11172 0.11447 0.26586 0.17957 0.4258 0.17983l2.8949 0.0036c0.32596 1e-3 0.59476-0.26777 0.5953-0.59373l0.0098-3.7692zm-0.17156 0-0.0098 3.7713c-1.2e-5 0.0073-1.38e-4 0.01451-5.17e-4 0.0217-3.79e-4 0.0072-0.0013 0.01461-0.0021 0.0217-7.37e-4 0.0071-0.0015 0.0142-0.0026 0.02119-0.0011 7e-3 -0.0022 0.0138-0.0036 0.02067-0.0014 0.0069-0.0034 0.01341-0.0052 0.02015-0.0018 0.0067-0.0036 0.01354-0.0057 0.02015-0.0021 0.0066-0.0043 0.01317-0.0067 0.01964-0.0024 0.0065-0.0045 0.01281-0.0072 0.01912-0.0027 0.0063-0.0058 0.01245-0.0088 0.0186-3e-3 0.0062-6e-3 0.01262-0.0093 0.0186-0.0033 6e-3 -0.0068 0.01176-0.01033 0.01757-0.0035 0.0058-7e-3 0.01144-0.01085 0.01705-0.0038 0.0056-0.0078 0.01111-0.01188 0.01654-0.0041 0.0054-0.0086 0.0108-0.01292 0.01602-0.0043 0.0052-0.0084 0.0105-0.01292 0.0155-0.0046 5e-3 -0.0097 0.0097-0.01447 0.01447-0.0048 0.0048-0.0094 0.0094-0.01447 0.01395-5e-3 0.0045-0.01027 0.0091-0.0155 0.01343-0.0052 0.0043-0.01058 0.0083-0.01602 0.0124-0.0054 0.0041-0.0109 0.0081-0.01654 0.01189-0.0056 0.0038-0.01123 0.0073-0.01705 0.01085-0.0058 0.0035-0.01209 0.0071-0.01809 0.01033-6e-3 0.0032-0.01192 0.0063-0.01809 0.0093-0.0062 3e-3 -0.01227 0.0056-0.0186 0.0083-0.0063 0.0027-0.01264 0.0054-0.01912 0.0078-0.0065 0.0024-0.01302 0.0047-0.01964 0.0067-0.0066 2e-3 -0.0134 4e-3 -0.02015 0.0057-0.0068 0.0017-0.01379 0.0033-0.02067 0.0047-0.0069 0.0014-0.01368 0.0026-0.02067 0.0036-7e-3 0.0011-0.01409 0.0019-0.02119 0.0026-0.0071 7.04e-4 -0.014 0.0012-0.02119 0.0015-0.0072 3.46e-4 -0.01442 5.37e-4 -0.0217 5.17e-4l-2.8949-0.0062c-0.0071-1.2e-5 -0.01412-1.55e-4 -0.02119-5.17e-4 -0.0071-3.62e-4 -0.01417-8.42e-4 -0.02119-0.0015-7e-3 -7.09e-4 -0.01423-0.0015-0.02119-0.0026-0.0069-1e-3 -0.01379-0.0022-0.02067-0.0036-0.0069-0.0014-0.01337-0.0029-0.02015-0.0046-0.0068-0.0017-0.01347-0.0036-0.02015-0.0057-0.0067-2e-3 -0.01359-0.0043-0.02015-0.0067-0.0066-0.0024-0.0132-0.0051-0.01964-0.0078-0.0064-0.0027-0.01282-0.0053-0.01912-0.0083s-0.01245-6e-3 -0.0186-0.0093c-0.0061-0.0033-0.0121-0.0072-0.01809-0.01085-6e-3 -0.0036-0.01177-0.0069-0.01757-0.01085-0.0058-0.0039-0.01144-0.0082-0.01705-0.0124-0.0056-0.0042-0.01112-0.0089-0.01654-0.01344-0.0054-0.0045-0.01082-0.0091-0.01602-0.01395-0.0052-0.0048-0.01054-0.0094-0.0155-0.01447l-1.8515-1.8929c-0.00505-0.00515-0.00974-0.010159-0.014469-0.015503-0.00473-0.00534-0.00954-0.011015-0.013952-0.016536-0.00441-0.00552-0.00831-0.01085-0.012402-0.016536-0.00409-0.00569-0.00812-0.01173-0.011885-0.01757-0.00377-0.00584-0.0074-0.01159-0.010852-0.01757-0.00345-0.00598-0.00669-0.011978-0.00982-0.018086-0.00313-0.00611-0.00597-0.012379-0.00878-0.018603-0.00281-0.00622-0.00577-0.012275-0.00827-0.018603-0.00249-0.00633-0.00454-0.012701-0.00672-0.01912-0.00217-0.00642-0.00434-0.013139-0.0062-0.019637-0.00186-0.0065-0.00363-0.013072-0.00517-0.019637-0.00154-0.00656-0.00291-0.013018-0.00413-0.019637-0.00244-0.013238-4e-3 -0.02641-0.00517-0.03979s-0.00217-0.026883-0.00207-0.040307c9.93e-5 -0.013424 0.00122-0.026938 0.00258-0.040307 0.00137-0.013369 0.00305-0.026575 0.00568-0.03979 0.00132-0.00661 0.00302-0.013603 0.00465-0.020153s0.00322-0.012639 0.00517-0.01912c0.00195-0.00648 0.00394-0.013237 0.0062-0.019637s0.00517-0.012815 0.00775-0.01912c0.00258-0.00631 0.00486-0.012404 0.00775-0.018603 0.00289-0.0062 0.00609-0.012523 0.0093-0.018603s0.00681-0.012137 0.010335-0.018086c0.00352-0.00595 0.00701-0.011764 0.010852-0.01757 0.00384-0.00581 0.00773-0.011403 0.011885-0.017053 0.00415-0.00565 0.00845-0.011055 0.012919-0.016536 0.00447-0.00548 0.00917-0.011235 0.013952-0.016536 0.00478-0.0053 0.00989-0.010395 0.014986-0.015503h-0.00207l1.8614-1.8789c5e-3 -5e-3 0.0098-0.00975 0.01499-0.014469 0.0052-0.00472 0.01062-0.00951 0.01602-0.013952 0.0054-0.00444 0.01094-0.00876 0.01654-0.012919 0.0056-0.00416 0.01127-0.00802 0.01705-0.011885 0.0058-0.00387 0.01162-0.00728 0.01757-0.010852 6e-3 -0.00357 0.01197-0.00706 0.01809-0.010335 0.0061-0.00327 0.01234-0.00634 0.0186-0.0093 0.0063-0.00297 0.01272-0.00613 0.01912-0.00878 0.0064-0.00266 0.0126-0.00489 0.01912-0.00723 0.0065-0.00234 0.01352-0.0047 0.02015-0.00672 0.0066-0.00202 0.0129-0.00399 0.01964-0.00568 0.0067-0.0017 0.01385-0.00328 0.02067-0.00465 0.0068-0.00137 0.01378-0.00258 0.02067-0.00362 0.0069-0.00103 0.01371-0.00189 0.02067-0.00258 7e-3 -6.944e-4 0.01366-0.0012 0.02067-0.00155 7e-3 -3.504e-4 0.01414-5.155e-4 0.02119-5.168e-4l2.8964 0.00413c0.0073 1.2e-5 0.01451 1.346e-4 0.0217 5.167e-4 0.0072 3.821e-4 0.0146 8.074e-4 0.0217 0.00155 0.0071 7.429e-4 0.01419 0.00201 0.02119 0.0031s0.01379 0.00218 0.02067 0.00362c0.0069 0.00144 0.0134 0.00288 0.02015 0.00465 0.0068 0.00177 0.01354 0.00411 0.02015 0.0062 0.0066 0.00209 0.01316 0.00431 0.01964 0.00672 0.0065 0.00241 0.0128 0.00504 0.01912 0.00775 0.0063 0.00271 0.01296 0.00526 0.01912 0.00827 0.0062 0.00301 0.0121 6e-3 0.01809 0.0093 6e-3 0.0033 0.01176 0.00676 0.01757 0.010335 0.0058 0.00358 0.01143 0.00752 0.01705 0.011368 0.0056 0.00385 0.01111 0.00778 0.01654 0.011885 0.0054 0.0041 0.0108 0.00856 0.01602 0.012919 0.0052 0.00436 0.0105 0.00884 0.0155 0.013436 5e-3 0.0046 0.0097 0.00912 0.01447 0.013952 0.0048 0.00483 0.0094 0.00994 0.01395 0.014986 0.0046 0.00505 0.0091 0.010238 0.01344 0.015503 0.0043 0.00526 0.0084 0.010551 0.0124 0.016019 4e-3 0.00547 0.0081 0.010872 0.01188 0.016536 0.0038 0.00566 0.0073 0.01172 0.01085 0.01757 0.0035 0.00585 0.0071 0.011543 0.01033 0.01757 0.0032 0.00603 0.0063 0.011893 0.0093 0.018086 3e-3 0.00619 0.0056 0.012768 0.0083 0.01912 0.0027 0.00635 0.0054 0.012619 0.0077 0.01912 0.0024 0.0065 0.0047 0.012996 0.0067 0.019637 2e-3 0.00664 4e-3 0.013382 0.0057 0.020153 0.0017 0.00677 0.0033 0.013777 0.0046 0.02067 0.0014 0.00689 0.0026 0.013665 0.0036 0.02067 1e-3 0.00701 0.0019 0.014078 0.0026 0.021187 6.93e-4 0.00711 0.0012 0.014501 0.0015 0.021704 3.34e-4 0.0072 5.5e-4 0.014416 5.16e-4 0.021704z" color="#000000" fill="url(#linearGradient4925)" style="paint-order:markers stroke fill"/>
  <path d="m14.898 6.5703c0.0011-0.23319-0.18868-0.4254-0.42188-0.42578l-2.8965-0.00391c-0.11271 2.07e-5 -0.22135 0.045032-0.30078 0.125l-1.8613 1.8789h0.00195c-0.16305 0.16346-0.16549 0.42885-0.00391 0.59375l1.8516 1.8926c0.07947 0.08143 0.18895 0.12677 0.30273 0.12695l2.8945 0.0059c0.23294 6.64e-4 0.42345-0.18897 0.42383-0.42192zm-0.18359 0-0.0098 3.7715c-2.15e-4 0.13276-0.10747 0.23868-0.24024 0.23828l-2.8945-0.0059c-0.06407-1.05e-4 -0.12517-0.02642-0.16992-0.07227l-1.8515-1.8925c-0.092054-0.093943-0.090934-0.24282 0.0019531-0.33594l1.8613-1.8789c0.04472-0.045025 0.10451-0.070301 0.16797-0.070312l2.8965 0.00586c0.13291 2.189e-4 0.23889 0.10733 0.23828 0.24023z" color="#000000" fill="#2e3440" style="paint-order:markers stroke fill"/>
 </g>
 <path d="m14.535 6.7588a0.29768 0.29768 0 0 0-0.29718-0.29905l-2.6068-0.0051a0.29768 0.29768 0 0 0-0.21115 0.0879l-1.6747 1.691a0.29768 0.29768 0 0 0-0.00186 0.41857l1.6664 1.7031a0.29768 0.29768 0 0 0 0.21254 0.08976l2.6054 0.0051a0.29768 0.29768 0 0 0 0.29858-0.29717z" color="#000000" fill="#4c566a" style="paint-order:markers stroke fill"/>
 <g transform="rotate(90 8.4382 8.4499)">
  <path d="m8.4407 4.2488-6.32e-5 -2.1619-1.882-0.0049c-0.079821-3.661e-4 -0.15315 0.027569-0.2105 0.074372" color="#000000" fill="url(#linearGradient4639)" style="paint-order:markers stroke fill"/>
  <path d="m8.4066 4.2147-2.0585-2.0583c-0.074165 0.060526-0.1216 0.15261-0.12177 0.25583l-0.00568 2.8964c9.4e-6 0.051672 0.01211 0.10209 0.034728 0.14748" color="#000000" fill="url(#linearGradient4647)" style="paint-order:markers stroke fill"/>
  <path d="m6.2554 5.4561c0.015939 0.031984 0.037102 0.061468 0.062938 0.08713l1.8789 1.8608c0.064452 0.06429 0.15255 0.099174 0.24354 0.096433l-9.5e-5 -3.2517-0.03411-0.034108" color="#000000" fill="url(#linearGradient4655)" style="paint-order:markers stroke fill"/>
  <path d="m8.4066 4.2147-2.0585-2.0583c-0.074165 0.060526-0.1216 0.15261-0.12177 0.25583l-0.00568 2.8964c9.4e-6 0.051672 0.01211 0.10209 0.034728 0.14748" color="#000000" fill="url(#linearGradient4676)" style="paint-order:markers stroke fill"/>
  <path d="m8.4407 4.2488-6.32e-5 -2.1619-1.882-0.0049c-0.079821-3.661e-4 -0.15315 0.027569-0.2105 0.074372" color="#000000" fill="url(#linearGradient4688)" style="paint-order:markers stroke fill"/>
  <path d="m8.4406 4.2488 6.32e-5 -2.1619 1.882-0.0049c0.07982-3.661e-4 0.15315 0.027569 0.2105 0.074372" color="#000000" fill="url(#linearGradient4717)" style="paint-order:markers stroke fill"/>
  <path d="m8.4747 4.2147 2.0585-2.0583c0.07417 0.060526 0.1216 0.15261 0.12177 0.25583l0.0057 2.8964c-9e-6 0.051672-0.01211 0.10209-0.03473 0.14748" color="#000000" fill="url(#linearGradient4719)" style="paint-order:markers stroke fill"/>
  <path d="m10.626 5.4561c-0.01594 0.031984-0.0371 0.061468-0.06294 0.08713l-1.8789 1.8608c-0.064452 0.06429-0.15255 0.099174-0.24354 0.096433l9.5e-5 -3.2517 0.03411-0.034108" color="#000000" fill="url(#linearGradient4721)" style="paint-order:markers stroke fill"/>
  <path d="m8.4747 4.2147 2.0585-2.0583c0.07417 0.060526 0.1216 0.15261 0.12177 0.25583l0.0057 2.8964c-9e-6 0.051672-0.01211 0.10209-0.03473 0.14748" color="#000000" fill="url(#linearGradient4723)" style="paint-order:markers stroke fill"/>
  <path d="m8.4406 4.2488 6.32e-5 -2.1619 1.882-0.0049c0.07982-3.661e-4 0.15315 0.027569 0.2105 0.074372" color="#000000" fill="url(#linearGradient4725)" style="paint-order:markers stroke fill"/>
  <path d="m10.626 5.4561c-0.01594 0.031984-0.0371 0.061468-0.06294 0.08713l-1.8789 1.8608c-0.064452 0.06429-0.15255 0.099174-0.24354 0.096433l9.5e-5 -3.2517 0.03411-0.034108m-2.2193 1.2414c0.015939 0.031984 0.037102 0.061468 0.062938 0.08713l1.8789 1.8608c0.064452 0.06429 0.15255 0.099174 0.24354 0.096433l-9.5e-5 -3.2517-0.03411-0.034108" color="#000000" fill="url(#radialGradient4786)" style="paint-order:markers stroke fill"/>
  <path d="m8.4407 4.2488-6.32e-5 -2.1619-1.882-0.0049c-0.079821-3.661e-4 -0.15315 0.027569-0.2105 0.074372" color="#000000" fill="url(#linearGradient4639)" style="paint-order:markers stroke fill"/>
  <path d="m8.4066 4.2147-2.0585-2.0583c-0.074165 0.060526-0.1216 0.15261-0.12177 0.25583l-0.00568 2.8964c9.4e-6 0.051672 0.01211 0.10209 0.034728 0.14748" color="#000000" fill="url(#linearGradient4647)" style="paint-order:markers stroke fill"/>
  <path d="m6.2554 5.4561c0.015939 0.031984 0.037102 0.061468 0.062938 0.08713l1.8789 1.8608c0.064452 0.06429 0.15255 0.099174 0.24354 0.096433l-9.5e-5 -3.2517-0.03411-0.034108" color="#000000" fill="url(#linearGradient4655)" style="paint-order:markers stroke fill"/>
  <path d="m8.4066 4.2147-2.0585-2.0583c-0.074165 0.060526-0.1216 0.15261-0.12177 0.25583l-0.00568 2.8964c9.4e-6 0.051672 0.01211 0.10209 0.034728 0.14748" color="#000000" fill="url(#linearGradient4676)" style="paint-order:markers stroke fill"/>
  <path d="m8.4407 4.2488-6.32e-5 -2.1619-1.882-0.0049c-0.079821-3.661e-4 -0.15315 0.027569-0.2105 0.074372" color="#000000" fill="url(#linearGradient4688)" style="paint-order:markers stroke fill"/>
  <path d="m8.4406 4.2488 6.32e-5 -2.1619 1.882-0.0049c0.07982-3.661e-4 0.15315 0.027569 0.2105 0.074372" color="#000000" fill="url(#linearGradient4717)" style="paint-order:markers stroke fill"/>
  <path d="m8.4747 4.2147 2.0585-2.0583c0.07417 0.060526 0.1216 0.15261 0.12177 0.25583l0.0057 2.8964c-9e-6 0.051672-0.01211 0.10209-0.03473 0.14748" color="#000000" fill="url(#linearGradient4719)" style="paint-order:markers stroke fill"/>
  <path d="m10.626 5.4561c-0.01594 0.031984-0.0371 0.061468-0.06294 0.08713l-1.8789 1.8608c-0.064452 0.06429-0.15255 0.099174-0.24354 0.096433l9.5e-5 -3.2517 0.03411-0.034108" color="#000000" fill="url(#linearGradient4721)" style="paint-order:markers stroke fill"/>
  <path d="m8.4747 4.2147 2.0585-2.0583c0.07417 0.060526 0.1216 0.15261 0.12177 0.25583l0.0057 2.8964c-9e-6 0.051672-0.01211 0.10209-0.03473 0.14748" color="#000000" fill="url(#linearGradient4723)" style="paint-order:markers stroke fill"/>
  <path d="m8.4406 4.2488 6.32e-5 -2.1619 1.882-0.0049c0.07982-3.661e-4 0.15315 0.027569 0.2105 0.074372" color="#000000" fill="url(#linearGradient4725)" style="paint-order:markers stroke fill"/>
  <path d="m10.626 5.4561c-0.01594 0.031984-0.0371 0.061468-0.06294 0.08713l-1.8789 1.8608c-0.064452 0.06429-0.15255 0.099174-0.24354 0.096433l9.5e-5 -3.2517 0.03411-0.034108m-2.2193 1.2414c0.015939 0.031984 0.037102 0.061468 0.062938 0.08713l1.8789 1.8608c0.064452 0.06429 0.15255 0.099174 0.24354 0.096433l-9.5e-5 -3.2517-0.03411-0.034108" color="#000000" fill="url(#radialGradient4786)" style="paint-order:markers stroke fill"/>
 </g>
 <path d="m10.123 8.1733c0.09131 0 1.3396-1.3984 1.5317-1.4889 0.23848-0.033037 2.5248-0.03752 2.5763 0.013142 0.10559 0.10384-0.0015 0.44427-0.0015 0.44427s-0.0978-0.18328-0.17965-0.2681c-0.0556-0.057615-2.0468-0.025268-2.317 0.019123-0.52598 0.27838-1.3588 1.3942-1.4642 1.4561-0.09017 0.05296-0.14231 0.23678-0.14231 0.23678s-0.14084-0.41239-0.0034-0.41239z" fill="#eceff4" filter="url(#filter5953)" opacity=".75" stroke="#eceff4" stroke-linecap="round" stroke-linejoin="round" stroke-width=".10583" style="mix-blend-mode:normal"/>
 <path d="m10.335 14.821a0.32928 0.32928 0 0 0 0.33079-0.32873l0.0056-2.8834a0.32928 0.32928 0 0 0-0.09723-0.23356l-1.8705-1.8525a0.32928 0.32928 0 0 0-0.463-0.00206l-1.8839 1.8432a0.32928 0.32928 0 0 0-0.09929 0.2351l-0.0057 2.8819a0.32928 0.32928 0 0 0 0.32876 0.33027z" color="#000000" fill="#4c566a" style="paint-order:markers stroke fill"/>
 <g stroke-linecap="round" stroke-linejoin="round">
  <path d="m10.318 14.91c0.0073 3.3e-5 0.0145-1.82e-4 0.0217-5.17e-4s0.01459-8.56e-4 0.0217-0.0015c0.0071-6.94e-4 0.01418-0.0015 0.02119-0.0026 7e-3 -1e-3 0.01378-0.0022 0.02067-0.0036 0.0069-0.0014 0.0139-0.0029 0.02067-0.0046 0.0068-0.0017 0.01351-0.0036 0.02015-0.0057 0.0066-2e-3 0.01314-0.0044 0.01964-0.0067 0.0065-0.0024 0.01277-0.0051 0.01912-0.0077 0.0063-0.0027 0.01293-0.0053 0.01912-0.0083 0.0062-3e-3 0.01206-0.0061 0.01809-0.0093 6e-3 -0.0032 0.01172-0.0068 0.01757-0.01033 0.0058-0.0035 0.01191-0.0071 0.01757-0.01085 0.0057-0.0038 0.01107-0.0078 0.01654-0.01188 0.0055-4e-3 0.01075-0.0081 0.01602-0.0124 0.0053-0.0043 0.01045-0.0089 0.0155-0.01344 5e-3 -0.0046 0.01016-0.0092 0.01499-0.01395 0.0048-0.0048 0.0094-0.0095 0.01395-0.01447 0.0046-5e-3 0.0091-0.01028 0.01344-0.0155 0.0044-0.0052 0.0088-0.0106 0.01292-0.01602 0.0041-0.0054 8e-3 -0.01091 0.01188-0.01654 0.0038-0.0056 0.0078-0.01124 0.01137-0.01705 0.0036-0.0058 7e-3 -0.01158 0.01033-0.01757 0.0033-6e-3 0.0063-0.01193 0.0093-0.01809 3e-3 -0.0062 0.0056-0.0128 0.0083-0.01912 0.0027-0.0063 0.0053-0.01265 0.0077-0.01912 0.0024-0.0065 0.0046-0.01302 0.0067-0.01964 0.0021-0.0066 0.0044-0.0134 0.0062-0.02015 0.0018-0.0068 0.0032-0.01328 0.0046-0.02015 0.0014-0.0069 0.0025-0.01368 0.0036-0.02067 0.0011-7e-3 0.0024-0.01409 0.0031-0.02119 7.43e-4 -0.0071 0.0012-0.01451 0.0015-0.0217 3.82e-4 -0.0072 5.05e-4 -0.01442 5.17e-4 -0.0217l0.0041-2.8964c-2e-6 -7e-3 -1.67e-4 -0.01418-5.17e-4 -0.02119-3.51e-4 -7e-3 -8.56e-4 -0.01371-0.0015-0.02067-6.95e-4 -7e-3 -0.0015-0.01378-0.0026-0.02067-1e-3 -0.0069-0.0023-0.01385-0.0036-0.02067-0.0014-0.0068-0.0029-0.01394-0.0046-0.02067-0.0017-0.0067-0.0037-0.013-0.0057-0.01964-2e-3 -0.0066-0.0044-0.01363-0.0067-0.02015-0.0023-0.0065-0.0046-0.01272-0.0072-0.01912-0.0027-0.0064-0.0058-0.01286-0.0088-0.01912-3e-3 -0.0063-6e-3 -0.01249-0.0093-0.0186-0.0033-0.0061-0.0068-0.01214-0.01034-0.01809-0.0036-6e-3 -7e-3 -0.01179-0.01085-0.01757-0.0039-0.0058-0.0077-0.01146-0.01188-0.01705-0.0042-0.0056-0.0085-0.01114-0.01292-0.01654-0.0044-0.0054-0.0092-0.01083-0.01395-0.01602-0.0047-0.0052-0.0095-0.01002-0.01447-0.01499l-1.8788-1.8615v0.00207c-0.00511-0.0051-0.010202-0.010205-0.015503-0.014986-0.0053-0.00478-0.011055-0.00948-0.016536-0.013952-0.00548-0.00447-0.010886-0.00877-0.016536-0.012919-0.00565-0.00415-0.011247-0.00805-0.017053-0.011885-0.00581-0.00384-0.011621-0.00733-0.01757-0.010852-0.00595-0.00352-0.012006-0.00713-0.018086-0.010335-0.00608-0.00321-0.012404-0.00641-0.018603-0.0093-0.0062-0.00289-0.012298-0.00517-0.018603-0.00775-0.00631-0.00258-0.01272-0.00549-0.01912-0.00775s-0.013155-0.00425-0.019637-0.0062c-0.00648-0.00195-0.012569-0.00354-0.01912-0.00517-0.00655-0.00163-0.013546-0.00333-0.020153-0.00465-0.013215-0.00263-0.026421-0.00432-0.03979-0.00568-0.013369-0.00137-0.026883-0.00248-0.040307-0.00258-0.013424-9.93e-5 -0.026927 8.974e-4 -0.040307 0.00207-0.01338 0.00117-0.026552 0.00273-0.03979 0.00517-0.00662 0.00122-0.013072 0.0026-0.019637 0.00413-0.00656 0.00154-0.013139 0.00331-0.019637 0.00517-0.0065 0.00186-0.013217 0.00403-0.019637 0.0062s-0.012792 0.00422-0.01912 0.00672c-0.00633 0.00249-0.012379 0.00546-0.018603 0.00827-0.00622 0.00281-0.012495 0.00565-0.018603 0.00878-0.00611 0.00313-0.012106 0.00637-0.018086 0.00982s-0.01173 0.00708-0.01757 0.010852c-0.00584 0.00377-0.011883 0.0078-0.01757 0.011885-0.00569 0.00409-0.011015 0.00799-0.016536 0.012402-0.00552 0.00441-0.011193 0.00922-0.016536 0.013952-0.00534 0.00473-0.01035 0.00942-0.015503 0.014469l-1.8929 1.8515c-0.0051 5e-3 -0.0097 0.01031-0.01447 0.0155-0.0048 0.0052-0.0094 0.01061-0.01395 0.01602-0.0045 0.0054-0.0092 0.01092-0.01344 0.01654-0.0042 0.0056-0.0085 0.01125-0.0124 0.01705s-0.0072 0.01159-0.01085 0.01757c-0.0036 6e-3 -0.0075 0.01194-0.01085 0.01809-0.0033 0.0061-0.0063 0.0123-0.0093 0.0186s-0.0056 0.01268-0.0083 0.01912c-0.0027 0.0064-0.0054 0.01307-0.0078 0.01964-0.0024 0.0066-0.0047 0.01347-0.0067 0.02015-2e-3 0.0067-4e-3 0.01337-0.0057 0.02015-0.0017 0.0068-0.0033 0.01328-0.0046 0.02015-0.0014 0.0069-0.0026 0.01372-0.0036 0.02067-0.0011 0.0069-0.0019 0.01417-0.0026 0.02119-7.08e-4 7e-3 -0.0012 0.01412-0.0015 0.02119-3.62e-4 0.0071-5.05e-4 0.01408-5.17e-4 0.02119l-0.0062 2.8949c-2e-5 0.0073 1.71e-4 0.01451 5.17e-4 0.0217 3.47e-4 0.0072 8.46e-4 0.01409 0.0015 0.02119 7.05e-4 0.0071 0.0015 0.0142 0.0026 0.02119 0.0011 7e-3 0.0022 0.01379 0.0036 0.02067 0.0014 0.0069 0.0029 0.01392 0.0047 0.02067 0.0017 0.0067 0.0036 0.01353 0.0057 0.02015 2e-3 0.0066 0.0044 0.01316 0.0067 0.01964 0.0024 0.0065 0.0051 0.01279 0.0078 0.01912 0.0027 0.0063 0.0053 0.01243 0.0083 0.0186 3e-3 0.0062 0.0061 0.01209 0.0093 0.01809s0.0068 0.01226 0.01033 0.01809c0.0035 0.0058 0.0071 0.01142 0.01085 0.01705 0.0038 0.0056 0.0078 0.0111 0.01189 0.01654 0.0041 0.0054 0.0081 0.01078 0.0124 0.01602 0.0043 0.0052 0.0089 0.01048 0.01343 0.0155 0.0045 5e-3 0.0092 0.0097 0.01395 0.01447 0.0048 0.0048 0.0095 0.0099 0.01447 0.01447 5e-3 0.0046 0.01029 0.0086 0.0155 0.01292 0.0052 0.0043 0.0106 0.0088 0.01602 0.01292 0.0054 0.0041 0.01092 0.0081 0.01654 0.01189 0.0056 0.0038 0.01125 0.0073 0.01705 0.01085 0.0058 0.0035 0.01158 0.0071 0.01757 0.01033 6e-3 0.0033 0.01245 0.0063 0.0186 0.0093 0.0062 3e-3 0.01229 0.0061 0.0186 0.0088 0.0063 0.0027 0.01265 0.0048 0.01912 0.0072 0.0065 0.0024 0.01303 0.0046 0.01964 0.0067 0.0066 0.0021 0.01341 0.0039 0.02015 0.0057 0.0067 0.0018 0.01328 0.0037 0.02015 0.0052 0.0069 0.0014 0.01368 0.0025 0.02067 0.0036 7e-3 0.0011 0.0141 0.0018 0.02119 0.0026 0.0071 7.36e-4 0.01451 0.0017 0.0217 0.0021 0.0072 3.79e-4 0.01442 5.05e-4 0.0217 5.17e-4zm0-0.18396-3.7713-0.0098c-0.0083-1.3e-5 -0.01674-2.04e-4 -0.02481-1e-3 -0.0081-8.3e-4 -0.01597-2e-3 -0.02377-0.0036s-0.01524-0.0039-0.02274-0.0062-0.01507-0.0047-0.02222-0.0077c-0.0071-3e-3 -0.01391-0.0066-0.02067-0.01033-0.0068-0.0037-0.0133-0.0076-0.01964-0.01188-0.0063-0.0043-0.01272-0.0091-0.0186-0.01395-0.0059-0.0049-0.01168-0.01007-0.01705-0.0155-0.0054-0.0054-0.01015-0.01112-0.01499-0.01705-0.0048-0.0059-0.0097-0.01222-0.01395-0.0186-0.0043-0.0064-0.0082-0.01283-0.01188-0.01964-0.0036-0.0068-0.0068-0.014-0.0098-0.02119-3e-3 -0.0072-0.0055-0.01418-0.0078-0.0217-0.0023-0.0075-0.0041-0.01543-0.0057-0.02325-0.0016-0.0078-0.0028-0.01569-0.0036-0.02377-7.86e-4 -0.0081-0.0011-0.01599-1e-3 -0.02429l0.0057-2.8949c1.3e-5 -8e-3 2.15e-4 -0.01588 1e-3 -0.02377 8.19e-4 -0.0079 2e-3 -0.01553 0.0036-0.02325 0.0016-0.0077 0.0038-0.01576 0.0062-0.02325 0.0024-0.0075 0.0052-0.01448 0.0083-0.0217 0.0031-0.0072 0.0066-0.0143 0.01034-0.02119 0.0038-0.0069 0.0079-0.01364 0.0124-0.02015 0.0045-0.0065 0.0088-0.01304 0.01395-0.01912 0.0051-0.0061 0.01081-0.01198 0.01654-0.01757l1.8923-1.8517c0.00587-0.00575 0.011813-0.010993 0.018086-0.016019 0.00627-0.00503 0.013015-0.00965 0.019637-0.013952 0.00662-0.0043 0.013238-0.00831 0.020153-0.011885 0.00692-0.00357 0.014031-0.00697 0.021187-0.00982 0.00716-0.00285 0.014362-0.00511 0.021704-0.00723 0.00734-0.00212 0.014747-0.00377 0.02222-0.00517 0.00747-0.0014 0.015186-0.00243 0.022737-0.0031 0.00755-6.747e-4 0.015162-0.00108 0.022737-0.00103 0.00758 4.8e-5 0.015192 2.634e-4 0.022737 0.00103 0.00754 7.701e-4 0.01476 0.00213 0.02222 0.00362s0.014898 0.00347 0.02222 0.00568c0.00732 0.00221 0.014574 0.00482 0.021704 0.00775s0.014303 0.00617 0.021187 0.00982c0.00688 0.00365 0.01357 0.00752 0.020153 0.011885 0.00658 0.00437 0.012891 0.00886 0.01912 0.013952 0.00623 0.00509 0.012266 0.010731 0.018086 0.016536l1.8789 1.8613c0.0056 0.0056 0.01102 0.01153 0.01602 0.01757 5e-3 6e-3 0.0096 0.01216 0.01395 0.0186 0.0043 0.0064 0.0087 0.01283 0.0124 0.01964 0.0037 0.0068 0.0068 0.01407 0.0098 0.02119 3e-3 0.0071 0.0055 0.01432 0.0077 0.0217 0.0023 0.0074 0.0042 0.01512 0.0057 0.02274 0.0015 0.0076 0.0028 0.01494 0.0036 0.02274 7.8e-4 0.0078 1e-3 0.01584 1e-3 0.02377l-0.0057 2.8964c-1.3e-5 0.0083-2.04e-4 0.01673-1e-3 0.0248-8.29e-4 0.0081-0.0025 0.01596-0.0041 0.02377-0.0016 0.0078-0.0033 0.01524-0.0057 0.02274-0.0023 0.0075-0.0052 0.01507-0.0083 0.02222-3e-3 0.0071-0.0061 0.0139-0.0098 0.02067-0.0037 0.0068-0.0076 0.01329-0.01188 0.01964-0.0043 0.0063-0.0091 0.01272-0.01395 0.0186-0.0049 0.0059-0.01008 0.01167-0.0155 0.01705-0.0054 0.0054-0.01113 0.01015-0.01705 0.01499-0.0059 0.0048-0.01222 0.0097-0.0186 0.01395-0.0064 0.0043-0.01283 0.0083-0.01964 0.01188-0.0068 0.0036-0.014 0.0068-0.02119 0.0098-0.0072 3e-3 -0.0147 0.0055-0.02222 0.0078-0.0075 0.0023-0.01491 0.0041-0.02274 0.0057-0.0078 0.0015-0.01568 0.0028-0.02377 0.0036-0.0081 7.76e-4 -0.0165 0.0011-0.0248 1e-3z" color="#000000" fill="url(#linearGradient5761)" style="paint-order:markers stroke fill"/>
  <path d="m10.318 15.081c0.32559 6.05e-4 0.59735-0.26797 0.59788-0.59375l0.0036-2.8964c-2.9e-5 -0.15845-0.06328-0.31001-0.1757-0.42167l-1.8768-1.8613c-0.22877-0.22819-0.60739-0.23028-0.83818-0.00413l-1.8924 1.8515c-0.11447 0.11172-0.17957 0.26586-0.17983 0.4258l-0.0036 2.8949c-1e-3 0.32596 0.26777 0.59476 0.59373 0.5953l3.7692 0.0098zm0-0.17156-3.7713-0.0098c-0.0073-1.2e-5 -0.01451-1.38e-4 -0.0217-5.17e-4 -0.0072-3.79e-4 -0.01461-0.0013-0.0217-0.0021-0.0071-7.37e-4 -0.0142-0.0015-0.02119-0.0026-7e-3 -0.0011-0.0138-0.0022-0.02067-0.0036-0.0069-0.0014-0.01341-0.0034-0.02015-0.0052-0.0067-0.0018-0.01354-0.0036-0.02015-0.0057-0.0066-0.0021-0.01317-0.0043-0.01964-0.0067-0.0065-0.0024-0.01281-0.0045-0.01912-0.0072-0.0063-0.0027-0.01245-0.0058-0.0186-0.0088-0.0062-3e-3 -0.01262-6e-3 -0.0186-0.0093-6e-3 -0.0033-0.01176-0.0068-0.01757-0.01033-0.0058-0.0036-0.01144-7e-3 -0.01705-0.01085-0.0056-0.0038-0.01111-0.0078-0.01654-0.01188-0.0054-0.0041-0.0108-0.0086-0.01602-0.01292-0.0052-0.0043-0.0105-0.0084-0.0155-0.01292-5e-3 -0.0046-0.0097-0.0097-0.01447-0.01447-0.0048-0.0048-0.0094-0.0095-0.01395-0.01447-0.0045-5e-3 -0.0091-0.01027-0.01343-0.0155-0.0043-0.0052-0.0083-0.01058-0.0124-0.01602-0.0041-0.0054-0.0081-0.0109-0.01189-0.01654-0.0038-0.0056-0.0073-0.01123-0.01085-0.01705-0.0035-0.0058-0.0071-0.01209-0.01033-0.01809-0.0032-6e-3 -0.0063-0.01192-0.0093-0.01809-3e-3 -0.0062-0.0056-0.01228-0.0083-0.0186-0.0027-0.0063-0.0054-0.01264-0.0078-0.01912-0.0024-0.0065-0.0047-0.01302-0.0067-0.01964-2e-3 -0.0066-4e-3 -0.0134-0.0057-0.02015-0.0017-0.0068-0.0033-0.01379-0.0047-0.02067-0.0014-0.0069-0.0026-0.01368-0.0036-0.02067-0.0011-7e-3 -0.0019-0.01409-0.0026-0.02119-7.04e-4 -0.0071-0.0012-0.014-0.0015-0.02119-3.46e-4 -0.0072-5.37e-4 -0.01442-5.17e-4 -0.0217l0.0062-2.8949c1.2e-5 -0.0071 1.55e-4 -0.01412 5.17e-4 -0.02119 3.62e-4 -0.0071 8.42e-4 -0.01417 0.0015-0.02119 7.09e-4 -7e-3 0.0015-0.01423 0.0026-0.02119 1e-3 -0.0069 0.0022-0.01379 0.0036-0.02067 0.0014-0.0069 0.0029-0.01337 0.0046-0.02015 0.0017-0.0068 0.0036-0.01347 0.0057-0.02015 2e-3 -0.0067 0.0043-0.01359 0.0067-0.02015 0.0024-0.0066 0.0051-0.0132 0.0078-0.01964 0.0027-0.0064 0.0053-0.01282 0.0083-0.01912s6e-3 -0.01245 0.0093-0.0186c0.0033-0.0062 0.0072-0.0121 0.01085-0.01809 0.0036-6e-3 0.0069-0.01177 0.01085-0.01757 0.0039-0.0058 0.0082-0.01144 0.0124-0.01705 0.0042-0.0056 0.0089-0.01112 0.01344-0.01654 0.0045-0.0054 0.0091-0.01082 0.01395-0.01602 0.0048-0.0052 0.0094-0.01054 0.01447-0.0155l1.8929-1.8515c0.00515-0.00505 0.010159-0.00974 0.015503-0.014469 0.00534-0.00473 0.011015-0.00954 0.016536-0.013952 0.00552-0.00441 0.01085-0.00831 0.016536-0.012402 0.00569-0.00409 0.01173-0.00812 0.01757-0.011885 0.00584-0.00377 0.01159-0.0074 0.01757-0.010852 0.00598-0.00345 0.011978-0.00669 0.018086-0.00982 0.00611-0.00313 0.012379-0.00597 0.018603-0.00878 0.00622-0.00281 0.012275-0.00577 0.018603-0.00827 0.00633-0.00249 0.012701-0.00454 0.01912-0.00672 0.00642-0.00217 0.013139-0.00434 0.019637-0.0062 0.0065-0.00186 0.013072-0.00363 0.019637-0.00517 0.00656-0.00154 0.013018-0.00291 0.019637-0.00413 0.013238-0.00244 0.02641-4e-3 0.03979-0.00517s0.026883-0.00217 0.040307-0.00207c0.013424 9.93e-5 0.026938 0.00122 0.040307 0.00258 0.013369 0.00137 0.026575 0.00305 0.03979 0.00568 0.00661 0.00132 0.013603 0.00302 0.020153 0.00465s0.012639 0.00322 0.01912 0.00517c0.00648 0.00195 0.013237 0.00394 0.019637 0.0062s0.012815 0.00517 0.01912 0.00775c0.00631 0.00258 0.012404 0.00486 0.018603 0.00775 0.0062 0.00289 0.012523 0.00609 0.018603 0.0093s0.012137 0.00681 0.018086 0.010335c0.00595 0.00352 0.011764 0.00701 0.01757 0.010852 0.00581 0.00384 0.011403 0.00773 0.017053 0.011885 0.00565 0.00415 0.011055 0.00845 0.016536 0.012919 0.00548 0.00447 0.011235 0.00917 0.016536 0.013952 0.0053 0.00478 0.010395 0.00989 0.015503 0.014986v-0.00207l1.8789 1.8614c5e-3 5e-3 0.0098 0.0098 0.01447 0.01499 0.0047 0.0052 0.0095 0.01062 0.01395 0.01602 0.0044 0.0054 0.0088 0.01094 0.01292 0.01654 0.0042 0.0056 8e-3 0.01127 0.01188 0.01705 0.0039 0.0058 0.0073 0.01162 0.01085 0.01757 0.0036 6e-3 0.0071 0.01197 0.01033 0.01809 0.0033 0.0061 0.0063 0.01234 0.0093 0.0186 3e-3 0.0063 0.0061 0.01272 0.0088 0.01912s0.0049 0.0126 0.0072 0.01912c0.0023 0.0065 0.0047 0.01352 0.0067 0.02015 2e-3 0.0066 4e-3 0.0129 0.0057 0.01964 0.0017 0.0067 0.0033 0.01385 0.0046 0.02067 0.0014 0.0068 0.0026 0.01378 0.0036 0.02067 1e-3 0.0069 0.0019 0.01371 0.0026 0.02067 6.94e-4 7e-3 0.0012 0.01366 0.0015 0.02067 3.5e-4 7e-3 5.15e-4 0.01414 5.17e-4 0.02119l-0.0041 2.8964c-1.2e-5 0.0073-1.35e-4 0.01451-5.17e-4 0.0217-3.82e-4 0.0072-8.07e-4 0.0146-0.0015 0.0217-7.43e-4 0.0071-2e-3 0.0142-0.0031 0.02119-0.0011 7e-3 -0.0022 0.01379-0.0036 0.02067-0.0014 0.0069-0.0029 0.0134-0.0046 0.02015-0.0018 0.0068-0.0041 0.01354-0.0062 0.02015-0.0021 0.0066-0.0043 0.01316-0.0067 0.01964-0.0024 0.0065-5e-3 0.0128-0.0077 0.01912-0.0027 0.0063-0.0053 0.01296-0.0083 0.01912-3e-3 0.0062-6e-3 0.0121-0.0093 0.01809-0.0033 6e-3 -0.0068 0.01176-0.01034 0.01757-0.0036 0.0058-0.0075 0.01143-0.01137 0.01705-0.0038 0.0056-0.0078 0.01111-0.01188 0.01654-0.0041 0.0054-0.0086 0.0108-0.01292 0.01602-0.0044 0.0052-0.0088 0.0105-0.01344 0.0155-0.0046 5e-3 -0.0091 0.0097-0.01395 0.01447-0.0048 0.0048-0.0099 0.0094-0.01499 0.01395-0.0051 0.0046-0.01024 0.0091-0.0155 0.01344-0.0053 0.0043-0.01055 0.0084-0.01602 0.0124-0.0055 0.0041-0.01087 0.0081-0.01654 0.01189-0.0057 0.0038-0.01172 0.0073-0.01757 0.01085-0.0058 0.0035-0.01154 0.0071-0.01757 0.01033-6e-3 0.0032-0.01189 0.0063-0.01809 0.0093s-0.01277 0.0056-0.01912 0.0083c-0.0063 0.0027-0.01262 0.0054-0.01912 0.0078s-0.013 0.0047-0.01964 0.0067c-0.0066 2e-3 -0.01338 4e-3 -0.02015 0.0057-0.0068 0.0017-0.01378 0.0033-0.02067 0.0046-0.0069 0.0014-0.01366 0.0026-0.02067 0.0036-7e-3 1e-3 -0.01408 0.0019-0.02119 0.0026-0.0071 6.93e-4 -0.0145 0.0012-0.0217 0.0015-0.0072 3.34e-4 -0.01442 5.5e-4 -0.0217 5.16e-4z" color="#000000" fill="url(#linearGradient5761)" style="paint-order:markers stroke fill"/>
  <path d="m10.318 14.91c0.23319 0.0011 0.4254-0.18868 0.42578-0.42188l0.0039-2.8965c-2.1e-5 -0.11271-0.04503-0.22135-0.125-0.30078l-1.8789-1.8613v0.00195c-0.16346-0.16304-0.42885-0.16549-0.59375-0.0039069l-1.8926 1.8516c-0.08143 0.07948-0.12677 0.18895-0.12695 0.30273l-0.0059 2.8945c-6.64e-4 0.23294 0.18897 0.42345 0.42192 0.42383zm0-0.18359-3.7715-0.0098c-0.13276-2.15e-4 -0.23868-0.10747-0.23828-0.24024l0.0059-2.8945c1.05e-4 -0.06407 0.02642-0.12517 0.07227-0.16992l1.8925-1.8515c0.093943-0.092054 0.24282-0.090934 0.33594 0.00195l1.8789 1.8613c0.04503 0.04472 0.0703 0.10451 0.07031 0.16797l-0.0059 2.8965c-2.19e-4 0.13291-0.10733 0.23889-0.24023 0.23828z" color="#000000" fill="#2e3440" style="paint-order:markers stroke fill"/>
 </g>
 <path d="m10.129 14.547a0.29768 0.29768 0 0 0 0.29905-0.29718l0.0051-2.6068a0.29768 0.29768 0 0 0-0.0879-0.21115l-1.691-1.6747a0.29768 0.29768 0 0 0-0.41857-0.00186l-1.7031 1.6664a0.29768 0.29768 0 0 0-0.08976 0.21254l-0.0051 2.6054a0.29768 0.29768 0 0 0 0.29717 0.29858z" color="#000000" fill="#4c566a" style="paint-order:markers stroke fill"/>
 <g transform="rotate(180 8.4382 8.4499)">
  <path d="m8.4407 4.2488-6.32e-5 -2.1619-1.882-0.0049c-0.079821-3.661e-4 -0.15315 0.027569-0.2105 0.074372" color="#000000" fill="url(#linearGradient4639)" style="paint-order:markers stroke fill"/>
  <path d="m8.4066 4.2147-2.0585-2.0583c-0.074165 0.060526-0.1216 0.15261-0.12177 0.25583l-0.00568 2.8964c9.4e-6 0.051672 0.01211 0.10209 0.034728 0.14748" color="#000000" fill="url(#linearGradient4647)" style="paint-order:markers stroke fill"/>
  <path d="m6.2554 5.4561c0.015939 0.031984 0.037102 0.061468 0.062938 0.08713l1.8789 1.8608c0.064452 0.06429 0.15255 0.099174 0.24354 0.096433l-9.5e-5 -3.2517-0.03411-0.034108" color="#000000" fill="url(#linearGradient4655)" style="paint-order:markers stroke fill"/>
  <path d="m8.4066 4.2147-2.0585-2.0583c-0.074165 0.060526-0.1216 0.15261-0.12177 0.25583l-0.00568 2.8964c9.4e-6 0.051672 0.01211 0.10209 0.034728 0.14748" color="#000000" fill="url(#linearGradient4676)" style="paint-order:markers stroke fill"/>
  <path d="m8.4407 4.2488-6.32e-5 -2.1619-1.882-0.0049c-0.079821-3.661e-4 -0.15315 0.027569-0.2105 0.074372" color="#000000" fill="url(#linearGradient4688)" style="paint-order:markers stroke fill"/>
  <path d="m8.4406 4.2488 6.32e-5 -2.1619 1.882-0.0049c0.07982-3.661e-4 0.15315 0.027569 0.2105 0.074372" color="#000000" fill="url(#linearGradient4717)" style="paint-order:markers stroke fill"/>
  <path d="m8.4747 4.2147 2.0585-2.0583c0.07417 0.060526 0.1216 0.15261 0.12177 0.25583l0.0057 2.8964c-9e-6 0.051672-0.01211 0.10209-0.03473 0.14748" color="#000000" fill="url(#linearGradient4719)" style="paint-order:markers stroke fill"/>
  <path d="m10.626 5.4561c-0.01594 0.031984-0.0371 0.061468-0.06294 0.08713l-1.8789 1.8608c-0.064452 0.06429-0.15255 0.099174-0.24354 0.096433l9.5e-5 -3.2517 0.03411-0.034108" color="#000000" fill="url(#linearGradient4721)" style="paint-order:markers stroke fill"/>
  <path d="m8.4747 4.2147 2.0585-2.0583c0.07417 0.060526 0.1216 0.15261 0.12177 0.25583l0.0057 2.8964c-9e-6 0.051672-0.01211 0.10209-0.03473 0.14748" color="#000000" fill="url(#linearGradient4723)" style="paint-order:markers stroke fill"/>
  <path d="m8.4406 4.2488 6.32e-5 -2.1619 1.882-0.0049c0.07982-3.661e-4 0.15315 0.027569 0.2105 0.074372" color="#000000" fill="url(#linearGradient4725)" style="paint-order:markers stroke fill"/>
  <path d="m10.626 5.4561c-0.01594 0.031984-0.0371 0.061468-0.06294 0.08713l-1.8789 1.8608c-0.064452 0.06429-0.15255 0.099174-0.24354 0.096433l9.5e-5 -3.2517 0.03411-0.034108m-2.2193 1.2414c0.015939 0.031984 0.037102 0.061468 0.062938 0.08713l1.8789 1.8608c0.064452 0.06429 0.15255 0.099174 0.24354 0.096433l-9.5e-5 -3.2517-0.03411-0.034108" color="#000000" fill="url(#radialGradient4786)" style="paint-order:markers stroke fill"/>
  <path d="m8.4407 4.2488-6.32e-5 -2.1619-1.882-0.0049c-0.079821-3.661e-4 -0.15315 0.027569-0.2105 0.074372" color="#000000" fill="url(#linearGradient4639)" style="paint-order:markers stroke fill"/>
  <path d="m8.4066 4.2147-2.0585-2.0583c-0.074165 0.060526-0.1216 0.15261-0.12177 0.25583l-0.00568 2.8964c9.4e-6 0.051672 0.01211 0.10209 0.034728 0.14748" color="#000000" fill="url(#linearGradient4647)" style="paint-order:markers stroke fill"/>
  <path d="m6.2554 5.4561c0.015939 0.031984 0.037102 0.061468 0.062938 0.08713l1.8789 1.8608c0.064452 0.06429 0.15255 0.099174 0.24354 0.096433l-9.5e-5 -3.2517-0.03411-0.034108" color="#000000" fill="url(#linearGradient4655)" style="paint-order:markers stroke fill"/>
  <path d="m8.4066 4.2147-2.0585-2.0583c-0.074165 0.060526-0.1216 0.15261-0.12177 0.25583l-0.00568 2.8964c9.4e-6 0.051672 0.01211 0.10209 0.034728 0.14748" color="#000000" fill="url(#linearGradient4676)" style="paint-order:markers stroke fill"/>
  <path d="m8.4407 4.2488-6.32e-5 -2.1619-1.882-0.0049c-0.079821-3.661e-4 -0.15315 0.027569-0.2105 0.074372" color="#000000" fill="url(#linearGradient4688)" style="paint-order:markers stroke fill"/>
  <path d="m8.4406 4.2488 6.32e-5 -2.1619 1.882-0.0049c0.07982-3.661e-4 0.15315 0.027569 0.2105 0.074372" color="#000000" fill="url(#linearGradient4717)" style="paint-order:markers stroke fill"/>
  <path d="m8.4747 4.2147 2.0585-2.0583c0.07417 0.060526 0.1216 0.15261 0.12177 0.25583l0.0057 2.8964c-9e-6 0.051672-0.01211 0.10209-0.03473 0.14748" color="#000000" fill="url(#linearGradient4719)" style="paint-order:markers stroke fill"/>
  <path d="m10.626 5.4561c-0.01594 0.031984-0.0371 0.061468-0.06294 0.08713l-1.8789 1.8608c-0.064452 0.06429-0.15255 0.099174-0.24354 0.096433l9.5e-5 -3.2517 0.03411-0.034108" color="#000000" fill="url(#linearGradient4721)" style="paint-order:markers stroke fill"/>
  <path d="m8.4747 4.2147 2.0585-2.0583c0.07417 0.060526 0.1216 0.15261 0.12177 0.25583l0.0057 2.8964c-9e-6 0.051672-0.01211 0.10209-0.03473 0.14748" color="#000000" fill="url(#linearGradient4723)" style="paint-order:markers stroke fill"/>
  <path d="m8.4406 4.2488 6.32e-5 -2.1619 1.882-0.0049c0.07982-3.661e-4 0.15315 0.027569 0.2105 0.074372" color="#000000" fill="url(#linearGradient4725)" style="paint-order:markers stroke fill"/>
  <path d="m10.626 5.4561c-0.01594 0.031984-0.0371 0.061468-0.06294 0.08713l-1.8789 1.8608c-0.064452 0.06429-0.15255 0.099174-0.24354 0.096433l9.5e-5 -3.2517 0.03411-0.034108m-2.2193 1.2414c0.015939 0.031984 0.037102 0.061468 0.062938 0.08713l1.8789 1.8608c0.064452 0.06429 0.15255 0.099174 0.24354 0.096433l-9.5e-5 -3.2517-0.03411-0.034108" color="#000000" fill="url(#radialGradient4786)" style="paint-order:markers stroke fill"/>
 </g>
 <path d="m2.0672 10.346a0.32928 0.32928 0 0 0 0.32873 0.33079l2.8834 0.0056a0.32928 0.32928 0 0 0 0.23356-0.09723l1.8525-1.8705a0.32928 0.32928 0 0 0 0.00206-0.463l-1.8432-1.8839a0.32928 0.32928 0 0 0-0.2351-0.09929l-2.8819-0.0057a0.32928 0.32928 0 0 0-0.33027 0.32876z" color="#000000" fill="#4c566a" style="paint-order:markers stroke fill"/>
 <g stroke-linecap="round" stroke-linejoin="round">
  <path d="m1.9783 10.329c-3.34e-5 0.0073 1.82e-4 0.0145 5.168e-4 0.0217s8.563e-4 0.01459 0.00155 0.0217c6.94e-4 0.0071 0.00154 0.01418 0.00258 0.02119 0.00104 7e-3 0.00223 0.01378 0.00362 0.02067 0.00139 0.0069 0.00293 0.0139 0.00465 0.02067 0.00172 0.0068 0.00364 0.01351 0.00568 0.02015 0.00204 0.0066 0.00436 0.01314 0.00672 0.01964s0.00509 0.01277 0.00775 0.01912c0.00266 0.0063 0.00531 0.01293 0.00827 0.01912 0.00296 0.0062 0.00606 0.01206 0.0093 0.01809 0.00324 6e-3 0.00681 0.01172 0.010335 0.01757 0.00352 0.0058 0.00706 0.01191 0.010852 0.01757 0.00379 0.0057 0.00783 0.01107 0.011885 0.01654 0.00405 0.0055 0.0081 0.01075 0.012402 0.01602 0.0043 0.0053 0.00889 0.01045 0.013436 0.0155 0.00455 0.0051 0.00917 0.01016 0.013952 0.01499 0.00478 0.0048 0.00947 0.0094 0.014469 0.01395 5e-3 0.0046 0.010285 0.0091 0.015503 0.01344 0.00522 0.0044 0.010595 0.0088 0.016019 0.01292 0.00542 0.0041 0.010915 8e-3 0.016536 0.01188 0.00562 0.0038 0.011243 0.0078 0.017053 0.01137 0.00581 0.0036 0.011581 7e-3 0.01757 0.01033 0.00599 0.0033 0.011927 0.0063 0.018086 0.0093 0.00616 3e-3 0.012799 0.0055 0.01912 0.0083 0.00632 0.0027 0.012647 0.0053 0.01912 0.0078 0.00647 0.0024 0.01302 0.0046 0.019637 0.0067 0.00662 0.0021 0.013403 0.0044 0.020153 0.0062s0.013278 0.0032 0.020153 0.0046c0.00688 0.0014 0.013678 0.0025 0.02067 0.0036 0.00699 0.0011 0.014087 0.0024 0.021187 0.0031 0.0071 7.43e-4 0.014506 0.0012 0.021704 0.0015 0.0072 3.82e-4 0.014416 5.05e-4 0.021704 5.17e-4l2.8964 0.0041c0.00704-2e-6 0.01418-1.67e-4 0.021187-5.17e-4 0.00701-3.5e-4 0.013714-8.56e-4 0.02067-0.0015 0.00696-6.95e-4 0.013776-0.0015 0.02067-0.0026 0.00689-1e-3 0.013851-0.0023 0.02067-0.0036 0.00682-0.0014 0.013938-3e-3 0.02067-0.0046 0.00673-0.0017 0.013004-0.0037 0.019637-0.0057 0.00663-2e-3 0.013632-0.0044 0.020153-0.0067 0.00652-0.0023 0.012723-0.0046 0.01912-0.0072 0.0064-0.0027 0.012859-0.0058 0.01912-0.0088 0.00626-3e-3 0.012491-6e-3 0.018603-0.0093 0.00611-0.0033 0.012135-0.0068 0.018086-0.01033 0.00595-0.0036 0.011791-7e-3 0.01757-0.01085 0.00578-0.0039 0.011459-0.0077 0.017053-0.01188 0.00559-0.0042 0.01114-0.0085 0.016536-0.01292 0.0054-0.0044 0.010833-0.0092 0.016019-0.01395 0.00519-0.0047 0.010021-0.0095 0.014986-0.01447l1.8613-1.879h-0.00207c0.0051-0.00511 0.010205-0.010202 0.014986-0.015503 0.00478-0.0053 0.00948-0.011055 0.013952-0.016536 0.00447-0.00548 0.00877-0.010886 0.012919-0.016536 0.00415-0.00565 0.00805-0.011247 0.011885-0.017053 0.00384-0.00581 0.00733-0.011621 0.010852-0.01757 0.00352-0.00595 0.00713-0.012006 0.010335-0.018086 0.00321-0.00608 0.00641-0.012404 0.0093-0.018603 0.00289-0.0062 0.00517-0.012298 0.00775-0.018603 0.00258-0.00631 0.00549-0.01272 0.00775-0.01912s0.00425-0.013155 0.0062-0.019637c0.00195-0.00648 0.00354-0.012569 0.00517-0.01912 0.00163-0.00655 0.00333-0.013546 0.00465-0.020153 0.00263-0.013215 0.00432-0.026421 0.00568-0.03979 0.00137-0.013369 0.00248-0.026883 0.00258-0.040307 9.93e-5 -0.013424-8.974e-4 -0.026927-0.00207-0.040307-0.00117-0.01338-0.00273-0.026552-0.00517-0.03979-0.00122-0.00662-0.0026-0.013072-0.00413-0.019637-0.00154-0.00656-0.00331-0.013139-0.00517-0.019637-0.00186-0.0065-0.00403-0.013217-0.0062-0.019637s-0.00422-0.012792-0.00672-0.01912c-0.00249-0.00633-0.00546-0.012379-0.00827-0.018603-0.00281-0.00622-0.00565-0.012495-0.00878-0.018603-0.00313-0.00611-0.00637-0.012106-0.00982-0.018086s-0.00708-0.01173-0.010852-0.01757c-0.00377-0.00584-0.0078-0.011883-0.011885-0.01757-0.00409-0.00569-0.00799-0.011015-0.012402-0.016536-0.00441-0.00552-0.00922-0.011193-0.013952-0.016536-0.00473-0.00534-0.00942-0.01035-0.014469-0.015503l-1.8515-1.8929c-0.00497-0.0051-0.010307-0.0097-0.015503-0.01447-0.0052-0.0048-0.010609-0.0094-0.016019-0.01395-0.00541-0.0045-0.010922-0.0092-0.016536-0.01344-0.00561-0.0042-0.011249-0.0085-0.017053-0.0124-0.0058-0.0039-0.011587-0.0072-0.01757-0.01085-0.00598-0.0036-0.011939-0.0075-0.018086-0.01085-0.00615-0.0033-0.012303-0.0063-0.018603-0.0093s-0.012679-0.0056-0.01912-0.0083c-0.00644-0.0027-0.013068-0.0054-0.019637-0.0078-0.00657-0.0024-0.01347-0.0047-0.020153-0.0067-0.00668-2e-3 -0.013367-4e-3 -0.020153-0.0057-0.00679-0.0017-0.013277-0.0033-0.020154-0.0046-0.00688-0.0014-0.013716-0.0026-0.02067-0.0036-0.00695-0.0011-0.014168-0.0019-0.021187-0.0026-0.00702-7.08e-4 -0.014115-0.0012-0.021187-0.0015-0.00707-3.62e-4 -0.014075-5.05e-4 -0.021187-5.17e-4l-2.8949-0.0062c-0.00728-2e-5 -0.014512 1.71e-4 -0.021704 5.17e-4 -0.00719 3.47e-4 -0.014091 8.46e-4 -0.021187 0.0015-0.0071 7.05e-4 -0.014197 0.0015-0.021187 0.0026s-0.013794 0.0022-0.02067 0.0036c-0.00688 0.0014-0.013918 0.0029-0.02067 0.0047-0.00675 0.0017-0.013533 0.0036-0.020153 0.0057-0.00662 2e-3 -0.013158 0.0044-0.019637 0.0067-0.00648 0.0024-0.012792 0.0051-0.01912 0.0078-0.00633 0.0027-0.012435 0.0053-0.018603 0.0083-0.00617 3e-3 -0.012087 0.0061-0.018086 0.0093-6e-3 0.0032-0.012264 0.0068-0.018086 0.01033-0.00582 0.0035-0.011417 0.0071-0.017053 0.01085-0.00564 0.0038-0.011096 0.0078-0.016536 0.01189-0.00544 0.0041-0.010784 0.0081-0.016019 0.0124-0.00524 0.0043-0.01048 0.0089-0.015503 0.01343-0.00502 0.0045-0.00967 0.0092-0.014469 0.01395-0.0048 0.0048-0.0099 0.0095-0.014469 0.01447-0.00457 5e-3 -0.00859 0.01029-0.012919 0.0155-0.00433 0.0052-0.00884 0.0106-0.012919 0.01602-0.00408 0.0054-0.00807 0.01092-0.011885 0.01654-0.00382 0.0056-0.0073 0.01125-0.010852 0.01705-0.00355 0.0058-0.00706 0.01158-0.010335 0.01757-0.00327 6e-3 -0.00631 0.01245-0.0093 0.0186-0.00299 0.0062-0.00609 0.01229-0.00878 0.0186-0.00269 0.0063-0.00484 0.01265-0.00723 0.01912-0.00239 0.0065-0.00464 0.01303-0.00672 0.01964-0.00208 0.0066-0.00393 0.01341-0.00568 0.02015-0.00176 0.0067-0.00374 0.01328-0.00517 0.02015-0.00143 0.0069-0.00253 0.01368-0.00362 0.02067-0.00109 7e-3 -0.00185 0.0141-0.00258 0.02119-7.364e-4 0.0071-0.00169 0.01451-0.00207 0.0217-3.786e-4 0.0072-5.05e-4 0.01442-5.167e-4 0.0217zm0.18396 0 0.00982-3.7713c1.35e-5 -0.0083 2.037e-4 -0.01674 0.00103-0.02481 8.298e-4 -0.0081 0.00201-0.01597 0.00362-0.02377s0.00386-0.01524 0.0062-0.02274 0.00471-0.01507 0.00775-0.02222c0.00304-0.0071 0.00664-0.01391 0.010335-0.02067 0.0037-0.0068 0.00757-0.0133 0.011885-0.01964 0.00431-0.0063 0.00906-0.01272 0.013952-0.0186 0.00489-0.0059 0.010073-0.01168 0.015503-0.01705 0.00543-0.0054 0.011125-0.01015 0.017053-0.01499 0.00593-0.0048 0.012218-0.0097 0.018603-0.01395 0.00639-0.0043 0.012833-0.0082 0.019637-0.01188 0.0068-0.0036 0.014005-0.0068 0.021187-0.0098 0.00718-3e-3 0.014183-0.0055 0.021704-0.0078 0.00752-0.0023 0.015434-0.0041 0.023254-0.0057s0.015692-0.0028 0.023771-0.0036c0.00808-7.86e-4 0.01599-0.0011 0.024287-1e-3l2.8949 0.0057c0.00801 1.3e-5 0.015881 2.15e-4 0.023771 1e-3 0.00789 8.19e-4 0.015535 2e-3 0.023254 0.0036 0.00772 0.0016 0.015759 0.0038 0.023254 0.0062 0.0075 0.0024 0.014484 0.0052 0.021704 0.0083s0.014295 0.0066 0.021187 0.01034c0.00689 0.0038 0.013642 0.0079 0.020153 0.0124 0.00651 0.0045 0.013041 0.0088 0.01912 0.01395 0.00608 0.0051 0.011976 0.01081 0.01757 0.01654l1.8515 1.8923c0.00575 0.00587 0.010993 0.011813 0.016019 0.018086 0.00503 0.00627 0.00965 0.013015 0.013952 0.019637 0.0043 0.00662 0.00831 0.013238 0.011885 0.020153 0.00357 0.00692 0.00697 0.014031 0.00982 0.021187 0.00285 0.00716 0.00511 0.014362 0.00723 0.021704 0.00212 0.00734 0.00377 0.014747 0.00517 0.02222 0.0014 0.00747 0.00243 0.015186 0.0031 0.022737 6.747e-4 0.00755 0.00108 0.015162 0.00103 0.022737-4.8e-5 0.00758-2.634e-4 0.015192-0.00103 0.022737-7.701e-4 0.00754-0.00213 0.01476-0.00362 0.02222s-0.00347 0.014898-0.00568 0.02222c-0.00221 0.00732-0.00482 0.014574-0.00775 0.021704s-0.00617 0.014303-0.00982 0.021187c-0.00365 0.00688-0.00752 0.01357-0.011885 0.020153-0.00437 0.00658-0.00886 0.012891-0.013952 0.01912-0.00509 0.00623-0.010731 0.012266-0.016536 0.018086l-1.8613 1.8789c-0.00559 0.0056-0.011531 0.01102-0.01757 0.01602-0.00604 5e-3 -0.01216 0.0096-0.018603 0.01395-0.00644 0.0043-0.012834 0.0087-0.019637 0.0124-0.0068 0.0037-0.01407 0.0068-0.021187 0.0098-0.00712 3e-3 -0.014316 0.0055-0.021704 0.0077-0.00739 0.0023-0.015123 0.0042-0.022737 0.0057-0.00761 0.0015-0.014942 0.0028-0.022737 0.0036-0.0078 7.8e-4 -0.015838 1e-3 -0.023771 1e-3l-2.8964-0.0057c-0.00831-1.3e-5 -0.016727-2.04e-4 -0.024804-1e-3 -0.00808-8.29e-4 -0.015963-0.0025-0.023771-0.0041-0.00781-0.0016-0.015237-0.0033-0.022737-0.0057-0.0075-0.0023-0.015066-0.0052-0.02222-0.0083-0.00715-3e-3 -0.013902-0.0061-0.02067-0.0098-0.00677-0.0037-0.013292-0.0076-0.019637-0.01189-0.00634-0.0043-0.012722-0.0091-0.018603-0.01395-0.00588-0.0049-0.011674-0.01008-0.017053-0.0155-0.00538-0.0054-0.010148-0.01113-0.014986-0.01705-0.00484-0.0059-0.00969-0.01222-0.013952-0.0186-0.00426-0.0064-0.00825-0.01283-0.011885-0.01964-0.00364-0.0068-0.00684-0.014-0.00982-0.02119-0.00298-0.0072-0.00547-0.0147-0.00775-0.02222-0.00229-0.0075-0.00413-0.01491-0.00568-0.02274-0.00155-0.0078-0.00284-0.01569-0.00362-0.02377-7.752e-4 -0.0081-0.00107-0.0165-0.00103-0.0248z" color="#000000" fill="url(#linearGradient5871)" style="paint-order:markers stroke fill"/>
  <path d="m1.8067 10.329c-6.054e-4 0.32559 0.26797 0.59735 0.59375 0.59788l2.8964 0.0036c0.15845-3e-5 0.31001-0.06328 0.42167-0.1757l1.8613-1.8768c0.22819-0.22877 0.23028-0.60739 0.00413-0.83818l-1.8515-1.8924c-0.11172-0.11447-0.26586-0.17957-0.42581-0.17983l-2.8949-0.0036c-0.32596-1e-3 -0.59476 0.26777-0.5953 0.59373l-0.00982 3.7692zm0.17156 0 0.00982-3.7713c1.17e-5 -0.0073 1.381e-4 -0.01451 5.167e-4 -0.0217 3.786e-4 -0.0072 0.00133-0.01461 0.00207-0.0217 7.365e-4 -0.0071 0.0015-0.0142 0.00258-0.02119 0.00109-7e-3 0.00219-0.0138 0.00362-0.02067 0.00143-0.0069 0.00341-0.01341 0.00517-0.02015 0.00176-0.0067 0.00361-0.01354 0.00568-0.02015 0.00208-0.0066 0.00433-0.01317 0.00672-0.01964 0.00239-0.0065 0.00454-0.01281 0.00723-0.01912 0.00269-0.0063 0.0058-0.01245 0.00878-0.0186 0.00299-0.0062 0.00603-0.01262 0.0093-0.0186 0.00327-6e-3 0.00678-0.01176 0.010335-0.01757 0.00355-0.0058 0.00703-0.01144 0.010852-0.01705 0.00382-0.0056 0.00781-0.01111 0.011885-0.01654 0.00408-0.0054 0.00859-0.0108 0.012919-0.01602 0.00433-0.0052 0.00835-0.0105 0.012919-0.0155 0.00457-5e-3 0.00967-0.0097 0.014469-0.01447 0.0048-0.0048 0.00945-0.0094 0.014469-0.01395 0.00502-0.0045 0.010267-0.0091 0.015503-0.01343 0.00524-0.0043 0.010579-0.0083 0.016019-0.0124s0.0109-0.0081 0.016536-0.01189c0.00564-0.0038 0.01123-0.0073 0.017053-0.01085 0.00582-0.0035 0.012087-0.0071 0.018086-0.01033 6e-3 -0.0032 0.011918-0.0063 0.018086-0.0093 0.00617-3e-3 0.012275-0.0056 0.018603-0.0083 0.00633-0.0027 0.012641-0.0054 0.01912-0.0078 0.00648-0.0024 0.013017-0.0047 0.019637-0.0067s0.013401-4e-3 0.020153-0.0057c0.00675-0.0017 0.013794-0.0033 0.02067-0.0047 0.00688-0.0014 0.01368-0.0026 0.02067-0.0036 0.00699-0.0011 0.014091-0.0019 0.021187-0.0026 0.0071-7.04e-4 0.013995-0.0012 0.021187-0.0015 0.00719-3.46e-4 0.014424-5.37e-4 0.021704-5.17e-4l2.8949 0.0062c0.00711 1.2e-5 0.014115 1.55e-4 0.021187 5.17e-4 0.00707 3.62e-4 0.014168 8.42e-4 0.021187 0.0015 0.00702 7.09e-4 0.014233 0.0015 0.021187 0.0026 0.00695 1e-3 0.013794 0.0022 0.02067 0.0036 0.00688 0.0014 0.013367 0.0029 0.020154 0.0046 0.00679 0.0017 0.01347 0.0036 0.020153 0.0057 0.00668 2e-3 0.013585 0.0043 0.020153 0.0067 0.00657 0.0024 0.013196 0.0051 0.019637 0.0078 0.00644 0.0027 0.012819 0.0053 0.01912 0.0083 0.0063 3e-3 0.012455 6e-3 0.018603 0.0093 0.00615 0.0033 0.012104 0.0072 0.018086 0.01085 0.00598 0.0036 0.011765 0.0069 0.01757 0.01085 0.0058 0.0039 0.011439 0.0082 0.017053 0.0124 0.00561 0.0042 0.011125 0.0089 0.016536 0.01344 0.00541 0.0045 0.010824 0.0091 0.016019 0.01395 0.0052 0.0048 0.010535 0.0094 0.015503 0.01447l1.8515 1.8929c0.00505 0.00515 0.00974 0.010159 0.014469 0.015503 0.00473 0.00534 0.00954 0.011015 0.013952 0.016536 0.00441 0.00552 0.00831 0.01085 0.012402 0.016536 0.00409 0.00569 0.00812 0.01173 0.011885 0.01757 0.00377 0.00584 0.0074 0.01159 0.010852 0.01757 0.00345 0.00598 0.00669 0.011978 0.00982 0.018086 0.00313 0.00611 0.00597 0.012379 0.00878 0.018603 0.00281 0.00622 0.00577 0.012275 0.00827 0.018603 0.00249 0.00633 0.00454 0.012701 0.00672 0.01912 0.00217 0.00642 0.00434 0.013139 0.0062 0.019637 0.00186 0.0065 0.00363 0.013072 0.00517 0.019637 0.00154 0.00656 0.00291 0.013018 0.00413 0.019637 0.00244 0.013238 4e-3 0.02641 0.00517 0.03979s0.00217 0.026883 0.00207 0.040307c-9.93e-5 0.013424-0.00122 0.026938-0.00258 0.040307-0.00137 0.013369-0.00305 0.026575-0.00568 0.03979-0.00132 0.00661-0.00302 0.013603-0.00465 0.020153s-0.00322 0.012639-0.00517 0.01912c-0.00195 0.00648-0.00394 0.013237-0.0062 0.019637s-0.00517 0.012815-0.00775 0.01912c-0.00258 0.00631-0.00486 0.012404-0.00775 0.018603-0.00289 0.0062-0.00609 0.012523-0.0093 0.018603s-0.00681 0.012137-0.010335 0.018086c-0.00352 0.00595-0.00701 0.011764-0.010852 0.01757-0.00384 0.00581-0.00773 0.011403-0.011885 0.017053-0.00415 0.00565-0.00845 0.011055-0.012919 0.016536-0.00447 0.00548-0.00917 0.011235-0.013952 0.016536-0.00478 0.0053-0.00989 0.010395-0.014986 0.015503h0.00207l-1.8614 1.8789c-0.00496 5e-3 -0.0098 0.0098-0.014986 0.01447-0.00519 0.0047-0.010623 0.0095-0.016019 0.01395-0.0054 0.0044-0.010942 0.0088-0.016536 0.01292-0.00559 0.0042-0.011274 8e-3 -0.017053 0.01189-0.00578 0.0039-0.011618 0.0073-0.01757 0.01085-0.00595 0.0036-0.011974 0.0071-0.018086 0.01033-0.00611 0.0033-0.012342 0.0063-0.018603 0.0093-0.00626 3e-3 -0.012723 0.0061-0.01912 0.0088-0.0064 0.0027-0.012599 0.0049-0.01912 0.0072-0.00652 0.0023-0.013521 0.0047-0.020153 0.0067-0.00663 2e-3 -0.012905 4e-3 -0.019637 0.0057-0.00673 0.0017-0.013851 0.0033-0.02067 0.0046-0.00682 0.0014-0.013776 0.0026-0.02067 0.0036-0.00689 1e-3 -0.013714 0.0019-0.02067 0.0026-0.00696 6.94e-4 -0.013664 0.0012-0.02067 0.0015-0.00701 3.5e-4 -0.014142 5.15e-4 -0.021187 5.17e-4l-2.8964-0.0041c-0.00729-1.2e-5 -0.014506-1.35e-4 -0.021704-5.17e-4 -0.0072-3.82e-4 -0.014604-8.07e-4 -0.021704-0.0015-0.0071-7.43e-4 -0.014195-2e-3 -0.021187-0.0031-0.00699-0.0011-0.013794-0.0022-0.02067-0.0036-0.00688-0.0014-0.013403-0.0029-0.020153-0.0046-0.00675-0.0018-0.013537-0.0041-0.020153-0.0062-0.00662-0.0021-0.013164-0.0043-0.019637-0.0067-0.00647-0.0024-0.012799-5e-3 -0.01912-0.0077-0.00632-0.0027-0.012961-0.0053-0.01912-0.0083-0.00616-3e-3 -0.012097-6e-3 -0.018086-0.0093-0.00599-0.0033-0.01176-0.0068-0.01757-0.01034-0.00581-0.0036-0.011431-0.0075-0.017053-0.01137-0.00562-0.0038-0.011112-0.0078-0.016536-0.01188-0.00542-0.0041-0.010802-0.0086-0.016019-0.01292-0.00522-0.0044-0.0105-0.0088-0.015503-0.01344-5e-3 -0.0046-0.00969-0.0091-0.014469-0.01395-0.00478-0.0048-0.00941-0.0099-0.013952-0.01499-0.00455-0.0051-0.00913-0.01024-0.013436-0.0155-0.0043-0.0053-0.00835-0.01055-0.012402-0.01602-0.00405-0.0055-0.00809-0.01087-0.011885-0.01654-0.00379-0.0057-0.00733-0.01172-0.010852-0.01757-0.00352-0.0059-0.00709-0.01154-0.010335-0.01757-0.00324-6e-3 -0.00635-0.01189-0.0093-0.01809-0.00296-0.0062-0.00561-0.01277-0.00827-0.01912-0.00266-0.0063-0.0054-0.01262-0.00775-0.01912-0.00236-0.0065-0.00468-0.013-0.00672-0.01964-0.00204-0.0066-0.00397-0.01338-0.00568-0.02015-0.00172-0.0068-0.00327-0.01378-0.00465-0.02067-0.00139-0.0069-0.00257-0.01366-0.00362-0.02067-0.00104-7e-3 -0.00189-0.01408-0.00258-0.02119-6.939e-4 -0.0071-0.00122-0.0145-0.00155-0.0217-3.348e-4 -0.0072-5.502e-4 -0.01442-5.168e-4 -0.0217z" color="#000000" fill="url(#linearGradient5871)" style="paint-order:markers stroke fill"/>
  <path d="m1.9785 10.329c-0.00107 0.23319 0.18868 0.4254 0.42188 0.42578l2.8965 0.0039c0.11271-2.1e-5 0.22135-0.04503 0.30078-0.125l1.8613-1.8789h-0.00195c0.16305-0.16346 0.16549-0.42885 0.00391-0.59375l-1.8516-1.8926c-0.079475-0.08143-0.18895-0.12677-0.30273-0.12695l-2.8945-0.0059c-0.23294-6.64e-4 -0.42345 0.18897-0.42383 0.42192zm0.18359 0 0.00977-3.7715c2.148e-4 -0.13276 0.10747-0.23868 0.24023-0.23828l2.8945 0.0059c0.064066 1.05e-4 0.12517 0.02642 0.16992 0.07227l1.8516 1.8925c0.092054 0.093943 0.090934 0.24282-0.00195 0.33594l-1.8613 1.8789c-0.044723 0.04503-0.10451 0.0703-0.16797 0.07031l-2.8965-0.0059c-0.13291-1.76e-4 -0.23889-0.10728-0.23828-0.24019z" color="#000000" fill="#2e3440" style="paint-order:markers stroke fill"/>
 </g>
 <path d="m2.3412 10.141a0.29768 0.29768 0 0 0 0.29719 0.29905l2.6068 0.0051a0.29768 0.29768 0 0 0 0.21115-0.0879l1.6747-1.691a0.29768 0.29768 0 0 0 0.00186-0.41857l-1.6664-1.7031a0.29768 0.29768 0 0 0-0.21254-0.08976l-2.6054-0.0051a0.29768 0.29768 0 0 0-0.29858 0.29717z" color="#000000" fill="#4c566a" style="paint-order:markers stroke fill"/>
 <path d="m2.407 6.2631a0.32928 0.32928 0 0 0-0.33021 0.32866l-0.0098183 3.7547a0.32928 0.32928 0 0 0 0.32917 0.33072l2.883 0.005685a0.32928 0.32928 0 0 0 0.23357-0.09715l1.8526-1.8707a0.32928 0.32928 0 0 0 0.002067-0.46301l-1.8433-1.8841a0.32928 0.32928 0 0 0-0.23512-0.099217l-2.8819-0.0056843zm0.29558 1.0123h2.344v2.344h-2.344v-2.344z" color="#000000" fill="#4c566a" style="paint-order:markers stroke fill"/>
 <path d="m2.7027 7.2754h2.344v2.344h-2.344z" color="#000000" fill="#b48ead" stroke-linecap="round" stroke-linejoin="round" stroke-width=".060582" style="paint-order:markers stroke fill"/>
 <rect x="3.0203" y="7.593" width="1.7088" height="1.7088" ry="0" fill="#2e3440" filter="url(#filter6215)" style="paint-order:markers stroke fill"/>
 <rect x="3.0203" y="7.593" width="1.7088" height="1.7088" ry="0" fill="#4c566a" style="paint-order:markers stroke fill"/>
 <g transform="rotate(-90 8.4382 8.4499)">
  <path d="m8.4407 4.2488-6.32e-5 -2.1619-1.882-0.0049c-0.079821-3.661e-4 -0.15315 0.027569-0.2105 0.074372" color="#000000" fill="url(#linearGradient4639)" style="paint-order:markers stroke fill"/>
  <path d="m8.4066 4.2147-2.0585-2.0583c-0.074165 0.060526-0.1216 0.15261-0.12177 0.25583l-0.00568 2.8964c9.4e-6 0.051672 0.01211 0.10209 0.034728 0.14748" color="#000000" fill="url(#linearGradient4647)" style="paint-order:markers stroke fill"/>
  <path d="m6.2554 5.4561c0.015939 0.031984 0.037102 0.061468 0.062938 0.08713l1.8789 1.8608c0.064452 0.06429 0.15255 0.099174 0.24354 0.096433l-9.5e-5 -3.2517-0.03411-0.034108" color="#000000" fill="url(#linearGradient4655)" style="paint-order:markers stroke fill"/>
  <path d="m8.4066 4.2147-2.0585-2.0583c-0.074165 0.060526-0.1216 0.15261-0.12177 0.25583l-0.00568 2.8964c9.4e-6 0.051672 0.01211 0.10209 0.034728 0.14748" color="#000000" fill="url(#linearGradient4676)" style="paint-order:markers stroke fill"/>
  <path d="m8.4407 4.2488-6.32e-5 -2.1619-1.882-0.0049c-0.079821-3.661e-4 -0.15315 0.027569-0.2105 0.074372" color="#000000" fill="url(#linearGradient4688)" style="paint-order:markers stroke fill"/>
  <path d="m8.4406 4.2488 6.32e-5 -2.1619 1.882-0.0049c0.07982-3.661e-4 0.15315 0.027569 0.2105 0.074372" color="#000000" fill="url(#linearGradient4717)" style="paint-order:markers stroke fill"/>
  <path d="m8.4747 4.2147 2.0585-2.0583c0.07417 0.060526 0.1216 0.15261 0.12177 0.25583l0.0057 2.8964c-9e-6 0.051672-0.01211 0.10209-0.03473 0.14748" color="#000000" fill="url(#linearGradient4719)" style="paint-order:markers stroke fill"/>
  <path d="m10.626 5.4561c-0.01594 0.031984-0.0371 0.061468-0.06294 0.08713l-1.8789 1.8608c-0.064452 0.06429-0.15255 0.099174-0.24354 0.096433l9.5e-5 -3.2517 0.03411-0.034108" color="#000000" fill="url(#linearGradient4721)" style="paint-order:markers stroke fill"/>
  <path d="m8.4747 4.2147 2.0585-2.0583c0.07417 0.060526 0.1216 0.15261 0.12177 0.25583l0.0057 2.8964c-9e-6 0.051672-0.01211 0.10209-0.03473 0.14748" color="#000000" fill="url(#linearGradient4723)" style="paint-order:markers stroke fill"/>
  <path d="m8.4406 4.2488 6.32e-5 -2.1619 1.882-0.0049c0.07982-3.661e-4 0.15315 0.027569 0.2105 0.074372" color="#000000" fill="url(#linearGradient4725)" style="paint-order:markers stroke fill"/>
  <path d="m10.626 5.4561c-0.01594 0.031984-0.0371 0.061468-0.06294 0.08713l-1.8789 1.8608c-0.064452 0.06429-0.15255 0.099174-0.24354 0.096433l9.5e-5 -3.2517 0.03411-0.034108m-2.2193 1.2414c0.015939 0.031984 0.037102 0.061468 0.062938 0.08713l1.8789 1.8608c0.064452 0.06429 0.15255 0.099174 0.24354 0.096433l-9.5e-5 -3.2517-0.03411-0.034108" color="#000000" fill="url(#radialGradient4786)" style="paint-order:markers stroke fill"/>
  <path d="m8.4407 4.2488-6.32e-5 -2.1619-1.882-0.0049c-0.079821-3.661e-4 -0.15315 0.027569-0.2105 0.074372" color="#000000" fill="url(#linearGradient4639)" style="paint-order:markers stroke fill"/>
  <path d="m8.4066 4.2147-2.0585-2.0583c-0.074165 0.060526-0.1216 0.15261-0.12177 0.25583l-0.00568 2.8964c9.4e-6 0.051672 0.01211 0.10209 0.034728 0.14748" color="#000000" fill="url(#linearGradient4647)" style="paint-order:markers stroke fill"/>
  <path d="m6.2554 5.4561c0.015939 0.031984 0.037102 0.061468 0.062938 0.08713l1.8789 1.8608c0.064452 0.06429 0.15255 0.099174 0.24354 0.096433l-9.5e-5 -3.2517-0.03411-0.034108" color="#000000" fill="url(#linearGradient4655)" style="paint-order:markers stroke fill"/>
  <path d="m8.4066 4.2147-2.0585-2.0583c-0.074165 0.060526-0.1216 0.15261-0.12177 0.25583l-0.00568 2.8964c9.4e-6 0.051672 0.01211 0.10209 0.034728 0.14748" color="#000000" fill="url(#linearGradient4676)" style="paint-order:markers stroke fill"/>
  <path d="m8.4407 4.2488-6.32e-5 -2.1619-1.882-0.0049c-0.079821-3.661e-4 -0.15315 0.027569-0.2105 0.074372" color="#000000" fill="url(#linearGradient4688)" style="paint-order:markers stroke fill"/>
  <path d="m8.4406 4.2488 6.32e-5 -2.1619 1.882-0.0049c0.07982-3.661e-4 0.15315 0.027569 0.2105 0.074372" color="#000000" fill="url(#linearGradient4717)" style="paint-order:markers stroke fill"/>
  <path d="m8.4747 4.2147 2.0585-2.0583c0.07417 0.060526 0.1216 0.15261 0.12177 0.25583l0.0057 2.8964c-9e-6 0.051672-0.01211 0.10209-0.03473 0.14748" color="#000000" fill="url(#linearGradient4719)" style="paint-order:markers stroke fill"/>
  <path d="m10.626 5.4561c-0.01594 0.031984-0.0371 0.061468-0.06294 0.08713l-1.8789 1.8608c-0.064452 0.06429-0.15255 0.099174-0.24354 0.096433l9.5e-5 -3.2517 0.03411-0.034108" color="#000000" fill="url(#linearGradient4721)" style="paint-order:markers stroke fill"/>
  <path d="m8.4747 4.2147 2.0585-2.0583c0.07417 0.060526 0.1216 0.15261 0.12177 0.25583l0.0057 2.8964c-9e-6 0.051672-0.01211 0.10209-0.03473 0.14748" color="#000000" fill="url(#linearGradient4723)" style="paint-order:markers stroke fill"/>
  <path d="m8.4406 4.2488 6.32e-5 -2.1619 1.882-0.0049c0.07982-3.661e-4 0.15315 0.027569 0.2105 0.074372" color="#000000" fill="url(#linearGradient4725)" style="paint-order:markers stroke fill"/>
  <path d="m10.626 5.4561c-0.01594 0.031984-0.0371 0.061468-0.06294 0.08713l-1.8789 1.8608c-0.064452 0.06429-0.15255 0.099174-0.24354 0.096433l9.5e-5 -3.2517 0.03411-0.034108m-2.2193 1.2414c0.015939 0.031984 0.037102 0.061468 0.062938 0.08713l1.8789 1.8608c0.064452 0.06429 0.15255 0.099174 0.24354 0.096433l-9.5e-5 -3.2517-0.03411-0.034108" color="#000000" fill="url(#radialGradient4786)" style="paint-order:markers stroke fill"/>
 </g>
 <path transform="matrix(-1 0 0 1 16.85 .021674)" d="m10.123 8.1733c0.09131 0 1.3396-1.3984 1.5317-1.4889 0.23848-0.033037 2.5248-0.03752 2.5763 0.013142 0.10559 0.10384-0.0015 0.44427-0.0015 0.44427s-0.0978-0.18328-0.17965-0.2681c-0.0556-0.057615-2.0468-0.025268-2.317 0.019123-0.52598 0.27838-1.3588 1.3942-1.4642 1.4561-0.09017 0.05296-0.14231 0.23678-0.14231 0.23678s-0.14084-0.41239-0.0034-0.41239z" fill="#eceff4" filter="url(#filter5953)" opacity=".75" stroke="#eceff4" stroke-linecap="round" stroke-linejoin="round" stroke-width=".10583" style="mix-blend-mode:normal"/>
 <path d="m6.731 2.4781c0.15894-0.12263 3.2994-0.092935 3.3939 0 0.10559 0.10384-0.0015 0.44427-0.0015 0.44427s-0.09779-0.18329-0.17965-0.2681c-0.10429-0.10807-2.8414-0.13313-3.0671-5.613e-4 -0.090173 0.052961-0.14231 0.23678-0.14231 0.23678s-0.1122-0.32842-0.00336-0.41239z" fill="#eceff4" filter="url(#filter4827)" opacity=".76436" stroke="#eceff4" stroke-linecap="round" stroke-linejoin="round" stroke-width=".10583" style="mix-blend-mode:normal"/>
 <g transform="matrix(.62418 0 0 .62418 -2.378 4.858)" fill-rule="evenodd">
  <circle cx="24.564" cy="5.7585" r="2.0325" fill="#bf616a" stroke-width=".31966"/>
  <circle cx="24.564" cy="5.7585" r="1.4817" fill="#2e3440" filter="url(#filter6332)" stroke-width=".23304"/>
  <circle cx="24.564" cy="5.7585" r="1.4817" fill="#4c566a" stroke-width=".23304"/>
 </g>
 <path d="m7.2637 11.685 2.3439 2.344" fill="#dbc7c5" stroke="#dbc7c5" stroke-linejoin="round" stroke-width=".37041"/>
 <path d="m9.6076 11.685-2.3439 2.344" fill="#dbc7c5" stroke="#dbc7c5" stroke-linejoin="round" stroke-width=".37041"/>
 <path d="m6.7021 11.647 1.7332-1.7332 1.733 1.733v0.41256l-1.731-1.731-1.7364 1.6952z" fill="#eceff4" filter="url(#filter5991)" opacity=".75"/>
</svg>
