<svg width="64" height="64" version="1.1" viewBox="0 0 16.933 16.933" xmlns="http://www.w3.org/2000/svg">
 <defs>
  <filter id="filter1178" x="-.047999" y="-.047999" width="1.096" height="1.096" color-interpolation-filters="sRGB">
   <feGaussianBlur stdDeviation="0.30691668"/>
  </filter>
  <linearGradient id="linearGradient1340" x1="8.355" x2="8.3996" y1="16.007" y2=".79375" gradientUnits="userSpaceOnUse">
   <stop stop-color="#d8dee9" offset="0"/>
   <stop stop-color="#eceff4" offset="1"/>
  </linearGradient>
  <linearGradient id="q" x1="8.4665" x2="8.4665" y1=".5292" y2="16.404" gradientTransform="matrix(.79998 0 0 .79998 1.4711 .96409)" gradientUnits="userSpaceOnUse">
   <stop stop-color="#a6aebf" offset="0"/>
   <stop stop-color="#7b88a1" offset=".41037"/>
   <stop stop-color="#4c566a" offset=".72843"/>
   <stop stop-color="#2e3440" offset="1"/>
  </linearGradient>
  <linearGradient id="a" x1="32.351" x2="32.351" y1="2.0801" y2="61.924" gradientTransform="matrix(.21167 0 0 .21167 1.4711 .96409)" gradientUnits="userSpaceOnUse">
   <stop stop-color="#eceff4" stop-opacity=".78" offset="0"/>
   <stop stop-color="#eceff4" stop-opacity=".24" offset="1"/>
  </linearGradient>
  <radialGradient id="radialGradient991" cx="4.1411" cy="6.432" r="2.1166" gradientTransform="matrix(.79998 0 0 .79998 1.4635 1.5642)" gradientUnits="userSpaceOnUse">
   <stop stop-color="#eceff4" offset="0"/>
   <stop stop-color="#fff" stop-opacity="0" offset="1"/>
  </radialGradient>
  <radialGradient id="radialGradient995" cx="4.1411" cy="6.432" r="2.1166" gradientTransform="matrix(.61482 0 0 .61482 6.9205 2.3588)" gradientUnits="userSpaceOnUse">
   <stop stop-color="#eceff4" offset="0"/>
   <stop stop-color="#fff" stop-opacity="0" offset="1"/>
  </radialGradient>
  <radialGradient id="radialGradient999" cx="4.1411" cy="6.432" r="2.1166" gradientTransform="matrix(.56172 0 0 .56172 7.8387 4.2178)" gradientUnits="userSpaceOnUse">
   <stop stop-color="#fff" offset="0"/>
   <stop stop-color="#fff" stop-opacity="0" offset="1"/>
  </radialGradient>
  <radialGradient id="radialGradient1003" cx="4.1411" cy="6.432" r="2.1166" gradientTransform="matrix(.56172 0 0 .56172 10.291 -.5379)" gradientUnits="userSpaceOnUse">
   <stop stop-color="#eceff4" offset="0"/>
   <stop stop-color="#fff" stop-opacity="0" offset="1"/>
  </radialGradient>
  <radialGradient id="radialGradient1007" cx="4.1411" cy="6.432" r="2.1166" gradientTransform="matrix(.56172 0 0 .56172 11.348 .92917)" gradientUnits="userSpaceOnUse">
   <stop stop-color="#eceff4" offset="0"/>
   <stop stop-color="#fff" stop-opacity="0" offset="1"/>
  </radialGradient>
  <radialGradient id="radialGradient1011" cx="4.1411" cy="6.432" r="2.1166" gradientTransform="matrix(.35953 0 0 .35953 11.911 7.385)" gradientUnits="userSpaceOnUse">
   <stop stop-color="#eceff4" offset="0"/>
   <stop stop-color="#fff" stop-opacity="0" offset="1"/>
  </radialGradient>
  <radialGradient id="radialGradient1015" cx="4.1411" cy="6.432" r="2.1166" gradientTransform="matrix(.35953 0 0 .35953 11.81 8.3978)" gradientUnits="userSpaceOnUse">
   <stop stop-color="#eceff4" offset="0"/>
   <stop stop-color="#fff" stop-opacity="0" offset="1"/>
  </radialGradient>
  <radialGradient id="radialGradient1019" cx="4.1411" cy="6.432" r="2.1166" gradientTransform="matrix(.65138 0 0 .65138 8.2959 6.0619)" gradientUnits="userSpaceOnUse">
   <stop stop-color="#eceff4" offset="0"/>
   <stop stop-color="#fff" stop-opacity="0" offset="1"/>
  </radialGradient>
  <radialGradient id="radialGradient1023" cx="4.1411" cy="6.432" r="2.1166" gradientTransform="matrix(.65138 0 0 .65138 5.4517 8.5114)" gradientUnits="userSpaceOnUse">
   <stop stop-color="#eceff4" offset="0"/>
   <stop stop-color="#fff" stop-opacity="0" offset="1"/>
  </radialGradient>
  <radialGradient id="radialGradient1027" cx="4.1411" cy="6.432" r="2.1166" gradientTransform="matrix(.40425 0 0 .40425 3.7267 6.6726)" gradientUnits="userSpaceOnUse">
   <stop stop-color="#eceff4" offset="0"/>
   <stop stop-color="#fff" stop-opacity="0" offset="1"/>
  </radialGradient>
  <radialGradient id="radialGradient1031" cx="4.1411" cy="6.432" r="2.1166" gradientTransform="matrix(.24549 0 0 .24549 9.113 12.226)" gradientUnits="userSpaceOnUse">
   <stop stop-color="#eceff4" offset="0"/>
   <stop stop-color="#fff" stop-opacity="0" offset="1"/>
  </radialGradient>
  <radialGradient id="radialGradient1035" cx="4.1411" cy="6.432" r="2.1166" gradientTransform="matrix(.37478 0 0 .37478 7.0033 7.6402)" gradientUnits="userSpaceOnUse">
   <stop stop-color="#eceff4" offset="0"/>
   <stop stop-color="#fff" stop-opacity="0" offset="1"/>
  </radialGradient>
  <radialGradient id="radialGradient1039" cx="4.1411" cy="6.432" r="2.1166" gradientTransform="matrix(.1796 0 0 .1796 12.287 11.021)" gradientUnits="userSpaceOnUse">
   <stop stop-color="#eceff4" offset="0"/>
   <stop stop-color="#fff" stop-opacity="0" offset="1"/>
  </radialGradient>
  <radialGradient id="radialGradient1043" cx="4.1411" cy="6.432" r="2.1166" gradientTransform="matrix(.1796 0 0 .1796 11.383 10.343)" gradientUnits="userSpaceOnUse">
   <stop stop-color="#eceff4" offset="0"/>
   <stop stop-color="#fff" stop-opacity="0" offset="1"/>
  </radialGradient>
  <filter id="d" x="-.01448" y="-.017314" width="1.029" height="1.0346" color-interpolation-filters="sRGB">
   <feGaussianBlur stdDeviation=".74992302"/>
  </filter>
  <radialGradient id="c-5" cx="199.22" cy="60.978" r="62.148" gradientTransform="matrix(.6416 -1.9284e-8 4.8966e-8 1.7428 -95.818 -78.974)" gradientUnits="userSpaceOnUse">
   <stop stop-color="#eceff4" offset="0"/>
   <stop stop-color="#cbccce" stop-opacity="0" offset="1"/>
  </radialGradient>
  <linearGradient id="j" x1="23.844" x2="23.816" y1="17.574" y2="85.151" gradientTransform="matrix(.48966 0 0 .48209 -.95621 -1.3862)" gradientUnits="userSpaceOnUse">
   <stop stop-color="#88c0d0" offset="0"/>
   <stop stop-color="#5e81ac" offset="1"/>
  </linearGradient>
  <filter id="h" x="-.080467" y="-.24546" width="1.1609" height="1.4909" color-interpolation-filters="sRGB">
   <feGaussianBlur stdDeviation="1.4789442"/>
  </filter>
  <linearGradient id="e" x1="174.79" x2="174.86" y1="109.47" y2="118.12" gradientTransform="matrix(.48966 0 0 .48209 -55.544 -2.0968)" gradientUnits="userSpaceOnUse">
   <stop stop-color="#909090" offset="0"/>
   <stop stop-color="#727272" stop-opacity="0" offset="1"/>
  </linearGradient>
  <radialGradient id="f" cx="178.79" cy="120.7" r="22.055" gradientTransform="matrix(1.8896 -1.1088e-7 0 .066914 -305.84 48.017)" gradientUnits="userSpaceOnUse">
   <stop stop-color="#a6aebf" offset="0"/>
   <stop stop-color="#eceff4" offset="1"/>
  </radialGradient>
  <filter id="g" x="-.024992" y="-.504" width="1.05" height="2.008" color-interpolation-filters="sRGB">
   <feGaussianBlur stdDeviation=".32830532"/>
  </filter>
  <linearGradient id="i" x1="183.06" x2="183.06" y1="129.42" y2="127.06" gradientTransform="matrix(.48966 0 0 .48209 -55.544 -2.0968)" gradientUnits="userSpaceOnUse">
   <stop stop-color="#a6aebf" offset="0"/>
   <stop stop-color="#636363" stop-opacity="0" offset="1"/>
  </linearGradient>
  <filter id="filter1527" x="-.108" y="-.108" width="1.216" height="1.216" color-interpolation-filters="sRGB">
   <feGaussianBlur stdDeviation="0.57148202"/>
  </filter>
 </defs>
 <g stroke-linecap="round" stroke-linejoin="round">
  <rect transform="matrix(.99138 0 0 1 .072989 .0019055)" x=".79375" y=".90545" width="15.346" height="15.346" rx="3.0526" ry="3.0526" fill="#000000" filter="url(#filter1178)" opacity=".15" stroke-width="1.2489" style="mix-blend-mode:normal"/>
  <rect x=".92604" y=".92604" width="15.081" height="15.081" rx="3" ry="3" fill="url(#linearGradient1340)" stroke-width="1.2274"/>
  <rect x=".01215" y=".0060174" width="16.924" height="16.927" fill="none" opacity=".15" stroke-width="1.052"/>
 </g>
 <g transform="matrix(.62142 0 0 .62142 -16.15 .64639)">
  <g transform="translate(-.22747 -.72891)" stroke-linecap="round" stroke-linejoin="round">
   <path d="m40.181 13.363a0.38015 0.38015 0 0 1-0.38015 0.38015 0.38015 0.38015 0 0 1-0.38015-0.38015 0.38015 0.38015 0 0 1 0.38015-0.38015 0.38015 0.38015 0 0 1 0.38015 0.38015zm0.904 0.678a0.38015 0.38015 0 0 1-0.38015 0.38015 0.38015 0.38015 0 0 1-0.38015-0.38015 0.38015 0.38015 0 0 1 0.38015-0.38015 0.38015 0.38015 0 0 1 0.38015 0.38015zm-4.0625-2.125a0.79328 0.79328 0 0 1-0.79328 0.79328 0.79328 0.79328 0 0 1-0.79328-0.79328 0.79328 0.79328 0 0 1 0.79328-0.79328 0.79328 0.79328 0 0 1 0.79328 0.79328zm1.3009 3.754a0.5196 0.5196 0 0 1-0.5196 0.5196 0.5196 0.5196 0 0 1-0.5196-0.5196 0.5196 0.5196 0 0 1 0.5196-0.5196 0.5196 0.5196 0 0 1 0.5196 0.5196zm-4.3931-4.5323a0.85566 0.85566 0 0 1-0.85566 0.85566 0.85566 0.85566 0 0 1-0.85566-0.85566 0.85566 0.85566 0 0 1 0.85566-0.85566 0.85566 0.85566 0 0 1 0.85566 0.85566zm3.2715 3.4283a1.3788 1.3788 0 0 1-1.3788 1.3788 1.3788 1.3788 0 0 1-1.3788-1.3788 1.3788 1.3788 0 0 1 1.3788-1.3788 1.3788 1.3788 0 0 1 1.3788 1.3788zm2.8448-2.45a1.3788 1.3788 0 0 1-1.3788 1.3788 1.3788 1.3788 0 0 1-1.3788-1.3788 1.3788 1.3788 0 0 1 1.3788-1.3788 1.3788 1.3788 0 0 1 1.3788 1.3788zm1.6862 0.459a0.76097 0.76097 0 0 1-0.76097 0.76097 0.76097 0.76097 0 0 1-0.76097-0.76097 0.76097 0.76097 0 0 1 0.76097-0.76097 0.76097 0.76097 0 0 1 0.76097 0.76097zm0.102-1.0124a0.76097 0.76097 0 0 1-0.76097 0.76097 0.76097 0.76097 0 0 1-0.76097-0.76097 0.76097 0.76097 0 0 1 0.76097-0.76097 0.76097 0.76097 0 0 1 0.76097 0.76097zm-0.57235-4.3709a0.9511 0.9511 0 0 1-0.9511 0.9511 0.9511 0.9511 0 0 1-0.9511-0.9511 0.9511 0.9511 0 0 1 0.9511-0.9511 0.9511 0.9511 0 0 1 0.9511 0.9511zm-0.84558-1.1737a0.9511 0.9511 0 0 1-0.9511 0.9511 0.9511 0.9511 0 0 1-0.9511-0.9511 0.9511 0.9511 0 0 1 0.9511-0.9511 0.9511 0.9511 0 0 1 0.9511 0.9511zm-1.9616 3.8045a0.9511 0.9511 0 0 1-0.9511 0.9511 0.9511 0.9511 0 0 1-0.9511-0.9511 0.9511 0.9511 0 0 1 0.9511-0.9511 0.9511 0.9511 0 0 1 0.9511 0.9511zm-0.01359-1.6443a1.3013 1.3013 0 0 1-1.3013 1.3013 1.3013 1.3013 0 0 1-1.3013-1.3013 1.3013 1.3013 0 0 1 1.3013-1.3013 1.3013 1.3013 0 0 1 1.3013 1.3013zm-4.2984 0.3965a1.6932 1.6932 0 0 1-1.6932 1.6932 1.6932 1.6932 0 0 1-1.6932-1.6932 1.6932 1.6932 0 0 1 1.6932-1.6932 1.6932 1.6932 0 0 1 1.6932 1.6932zm2.3409-4.5768c-0.603 0.31356-1.3316 0.78576-2.0567 1.492-0.69557 0.67741-1.3684 1.5555-1.8612 2.6155-0.0072-0.2682-8e-4 -0.53085 0.01616-0.78506 0.07104-1.0482 0.32871-1.9279 0.59487-2.5999a6.3499 6.3499 0 0 0-0.20752 0.11906c-0.26774 0.65084-0.51447 1.482-0.59655 2.4655-0.0336 0.40341-0.03744 0.8271-8e-3 1.2634-0.78991-0.26379-1.416-0.65194-1.8545-0.98638-0.02168-0.016528-0.04024-0.031943-0.06032-0.047951a6.3499 6.3499 0 0 0-0.0604 0.12526c0.01152 0.010152 0.02208 0.019799 0.03432 0.030175 0.42965 0.36391 1.059 0.78474 1.8686 1.0745-0.02664 0.072694-0.05248 0.14574-0.07728 0.21994-0.03576 0.10697-0.06992 0.21524-0.1017 0.32452-0.08237 0.28297-0.14836 0.56444-0.2005 0.84374-0.35528-0.22923-0.67576-0.46244-0.9595-0.68873-0.38455-0.30668-0.68113-0.57989-0.92646-0.81774a6.3499 6.3499 0 0 0-0.03352 0.13022c0.22504 0.24251 0.49898 0.51582 0.85326 0.81686 0.2995 0.25451 0.64274 0.51682 1.0285 0.77305-0.17646 1.0943-0.13436 2.1454 0.04544 3.0735 0.17082 0.88102 0.45922 1.6124 0.75735 2.2063a6.3499 6.3499 0 0 0 0.2468 0.15172c-0.30986-0.62697-0.62335-1.4245-0.79621-2.3969-0.15623-0.87838-0.19073-1.8649-0.03392-2.8922 0.24498 0.1546 0.50584 0.30609 0.78176 0.45061 0.08417 0.22667 0.1792 0.45266 0.28608 0.67798 0.01256 0.02649 0.0248 0.05337 0.0376 0.07978 0.60578 1.2426 1.4632 2.2233 2.3708 2.9406-0.02656 0.48323-0.01488 0.9335 0.02064 1.3365 0.02152 0.24403 0.052 0.46071 0.08557 0.66352a6.3499 6.3499 0 0 0 0.14345 7e-3c-0.0248-0.20899-0.04696-0.4319-0.0608-0.68213-0.01984-0.35892-0.02168-0.75468 0.0048-1.1765 0.10907 0.08115 0.2185 0.15872 0.32825 0.23235 0.51813 0.34758 1.0305 0.60521 1.5064 0.79828-0.08305 0.2297-0.14559 0.44881-0.19141 0.64904-0.0048 0.02247-0.0085 0.04265-0.0128 0.06408a6.3499 6.3499 0 0 0 0.16743-0.03803c0.05424-0.18852 0.12302-0.39259 0.2096-0.60688 0.30731 0.11674 0.58675 0.19745 0.8487 0.26458a6.3499 6.3499 0 0 0 0.19472-0.08681c-0.29534-0.0826-0.6188-0.18466-0.97854-0.3328 0.26369-0.60512 0.6704-1.2736 1.2902-1.8711 0.17888-0.17256 0.37304-0.3358 0.58207-0.48864 0.32147 0.26234 0.63668 0.47374 0.92814 0.64284-0.09828 0.39568-0.21315 0.75085-0.33114 1.0815a6.3499 6.3499 0 0 0 0.27368-0.24347c0.08333-0.23251 0.16429-0.47438 0.23687-0.73752 0.10384 0.05617 0.19725 0.09947 0.29146 0.14387a6.3499 6.3499 0 0 0 0.08309-0.10955c-0.10707-0.0578-0.2145-0.11553-0.3332-0.18768 0.10864-0.41761 0.1994-0.86902 0.26085-1.3493 0.35416-0.13196 0.70214-0.21987 1.0365-0.27863a6.3499 6.3499 0 0 0 0.0728-0.22241c-0.34633 0.04523-0.70903 0.12208-1.0798 0.24639 0.02192-0.21168 0.03816-0.42883 0.04752-0.6507 0.47059-0.144 0.87454-0.30399 1.2187-0.45846a6.3499 6.3499 0 0 0 0.0244-0.16164c-0.3495 0.14228-0.75632 0.29257-1.2373 0.42869 0.0064-0.25933 0.0032-0.52501-0.01032-0.79664-0.0176-0.34277-0.05216-0.69061-0.10583-1.0418-0.1422-0.93062-0.39687-1.7755-0.71064-2.5279 0.34467-0.21132 0.65728-0.37153 0.94006-0.5056a6.3499 6.3499 0 0 0-0.0802-0.11245c-0.2813 0.11848-0.5895 0.26189-0.92894 0.45516-0.17792-0.40809-0.37306-0.78783-0.57629-1.1373 0.03832-0.072382 0.07424-0.14292 0.10707-0.21167 0.06248-0.1308 0.11161-0.24983 0.15627-0.36381a6.3499 6.3499 0 0 0-0.10128-0.076894c-0.05408 0.11693-0.1131 0.23933-0.18562 0.37453-0.0216 0.040199-0.04472 0.08127-0.06824 0.12278-0.24946-0.41329-0.50895-0.78201-0.76315-1.1038-3.2e-4 -4.064e-4 -5.12e-4 -7.999e-4 -8e-4 -0.00128a6.3499 6.3499 0 0 0-0.33695-0.15337c0.0668 0.083838 0.13224 0.16351 0.20257 0.25838 0.25956 0.35018 0.52526 0.75204 0.77925 1.2022-0.42982 0.70043-1.1201 1.5298-2.1643 2.1374-0.0192 0.011224-0.03848 0.022423-0.05792 0.033487-0.02224-0.52547 0.01272-1.0288 0.08557-1.4912 0.156-0.9879 0.47667-1.7608 0.74537-2.2894a6.3499 6.3499 0 0 0-0.11988-0.042991c-0.30304 0.52008-0.65546 1.2942-0.8351 2.297-0.09115 0.50791-0.13552 1.0661-0.10749 1.6512-0.42883 0.21867-0.89974 0.39359-1.4039 0.50972-0.82974 0.19117-1.6452 0.20027-2.3825 0.076894-0.23848-0.039823-0.46579-0.092718-0.68213-0.15544v-4.212e-4c0.48314-1.2276 1.2149-2.2381 1.9748-3.0042 0.78299-0.7888 1.5648-1.2928 2.1812-1.6247a6.3499 6.3499 0 0 0-0.26913-0.01364zm3.1273 2.0831c0.17528 0.32287 0.34336 0.66941 0.49815 1.0385-0.15895 0.09579-0.32134 0.20016-0.487 0.31459-0.72016 0.49749-1.4731 1.168-2.1335 2.0248-0.09121-0.37722-0.14776-0.75064-0.17611-1.1153 0.054-0.029943 0.10744-0.060494 0.15999-0.091774 1.0393-0.61981 1.7208-1.4533 2.1387-2.1708zm0.56842 1.2096c0.29274 0.73123 0.531 1.5472 0.66765 2.4415 0.05248 0.34336 0.08783 0.68293 0.10624 1.0178 0.01592 0.28945 0.0196 0.57234 0.0132 0.8479-0.12772 0.03332-0.25893 0.06513-0.39439 0.09549-0.58234 0.13039-1.2266 0.2272-1.9161 0.26458-0.41625-0.57103-0.7814-1.2407-1.0269-1.9996-0.0048-0.01461-0.0094-0.02921-0.01408-0.04382-0.01728-0.05463-0.03344-0.10957-0.0492-0.16412 0.66519-0.91014 1.4347-1.6234 2.1691-2.156 0.15074-0.10931 0.29923-0.21013 0.44441-0.30384zm-3.0977 1.1741c0.034 0.40737 0.10389 0.82606 0.21787 1.248-0.22066 0.30718-0.42924 0.63628-0.62011 0.98846-0.0364 0.06717-0.07216 0.13415-0.10666 0.20174-0.15607 0.30638-0.28994 0.61264-0.40514 0.91654-0.04016-0.0069-0.08041-0.01367-0.12071-0.02108-0.08039-0.01453-0.15991-0.02971-0.23937-0.04589-1.0233-0.20846-1.9352-0.54567-2.7286-0.93758-0.23891-0.65446-0.38584-1.3107-0.45929-1.9447 0.19736 0.058078 0.40369 0.1083 0.61969 0.14759 0.7644 0.13863 1.6123 0.13556 2.475-0.063246 0.48875-0.11264 0.94718-0.28041 1.3672-0.48989zm-4.6615 0.6664c0.06728 0.50005 0.18154 1.0121 0.35015 1.5251-0.22339-0.11882-0.43649-0.24167-0.63911-0.36628 0.05392-0.30234 0.12442-0.6073 0.21374-0.91406 0.02392-0.082222 0.04904-0.16386 0.0752-0.24472zm4.9654 0.87438c0.0032 0.0096 0.0056 0.01903 0.0087 0.02853 0.23717 0.73181 0.58409 1.3797 0.98222 1.936-0.62576 0.01877-1.286-0.01246-1.9686-0.11245 0.10964-0.28037 0.23528-0.56277 0.37951-0.84502 0.0336-0.06582 0.06832-0.13092 0.10377-0.19636 0.15427-0.28475 0.32026-0.55513 0.49442-0.8107zm-4.1881 1.1149c0.75227 0.36359 1.6084 0.67288 2.5619 0.86814 0.08125 0.01659 0.16296 0.03236 0.24515 0.04713 0.02672 0.0048 0.0532 0.0091 0.07976 0.01406-0.28517 0.81685-0.43405 1.612-0.49442 2.3412-0.83142-0.69995-1.6116-1.6273-2.1729-2.7798-0.01248-0.02558-0.02456-0.05106-0.0368-0.07689-0.0652-0.13741-0.12611-0.27573-0.18272-0.41381zm7.7629 0.67385c-0.0094 0.22737-0.02576 0.44942-0.04792 0.666-0.40812 0.15682-0.82062 0.36922-1.2224 0.64779-0.10756-0.09752-0.2152-0.20028-0.32287-0.31004-0.18648-0.19024-0.37022-0.39885-0.54694-0.62383 0.64614-0.05071 1.2497-0.15401 1.7971-0.28896 0.11752-0.02902 0.23164-0.05958 0.34313-0.09095zm-4.638 0.29351c0.77464 0.11616 1.5201 0.14256 2.2203 0.105 0.21507 0.27774 0.44212 0.53016 0.67302 0.75612 0.10141 0.09929 0.20289 0.19288 0.30426 0.28153-0.20002 0.14983-0.38641 0.30983-0.55851 0.47832-0.64233 0.62946-1.0505 1.3324-1.3014 1.9662-0.45963-0.20111-0.95222-0.46364-1.4498-0.80902-0.14272-0.09906-0.28532-0.20464-0.42662-0.31667 0.06688-0.76192 0.22781-1.6005 0.53866-2.4615zm4.5599 0.63706c-0.05096 0.40212-0.12175 0.7838-0.20505 1.1418-0.25318-0.16365-0.52416-0.36004-0.8003-0.59447 0.33123-0.22455 0.66945-0.40531 1.0054-0.54734zm1.6072-2.3935a6.3498 6.3498 0 0 1-6.3498 6.3498 6.3498 6.3498 0 0 1-6.3498-6.3498 6.3498 6.3498 0 0 1 6.3498-6.3498 6.3498 6.3498 0 0 1 6.3498 6.3498z" fill="#2e3440" filter="url(#filter1527)" opacity=".45" stroke-width=".15931"/>
  </g>
 </g>
 <g transform="matrix(.62142 0 0 .62142 1.0472 1.5601)">
  <circle cx="8.2389" cy="7.7375" r="6.3498" fill="url(#q)" fill-rule="evenodd" stroke-width=".79998" style="paint-order:stroke fill markers"/>
  <path d="m8.5829 1.4041c-0.603 0.31356-1.3316 0.78576-2.0567 1.492-0.69557 0.67741-1.3684 1.5555-1.8612 2.6155-0.0072-0.2682-8e-4 -0.53085 0.01616-0.78506 0.07104-1.0482 0.32871-1.9279 0.59487-2.5999a6.3499 6.3499 0 0 0-0.20752 0.11906c-0.26774 0.65084-0.51447 1.482-0.59655 2.4655-0.0336 0.40341-0.03744 0.8271-8e-3 1.2634-0.78991-0.26379-1.416-0.65194-1.8545-0.98638-0.021679-0.016528-0.040239-0.031943-0.060318-0.047951a6.3499 6.3499 0 0 0-0.060398 0.12526c0.01152 0.010152 0.022079 0.019799 0.034319 0.030175 0.42965 0.36391 1.059 0.78474 1.8686 1.0745-0.02664 0.072694-0.05248 0.14574-0.07728 0.21994-0.03576 0.10697-0.06992 0.21524-0.1017 0.32452-0.08237 0.28297-0.14836 0.56444-0.2005 0.84374-0.35528-0.22923-0.67576-0.46244-0.9595-0.68873-0.38455-0.30668-0.68113-0.57989-0.92646-0.81774a6.3499 6.3499 0 0 0-0.033519 0.13022c0.22504 0.24251 0.49898 0.51582 0.85326 0.81686 0.2995 0.25451 0.64274 0.51682 1.0285 0.77305-0.17646 1.0943-0.13436 2.1454 0.04544 3.0735 0.17082 0.88102 0.45922 1.6124 0.75735 2.2063a6.3499 6.3499 0 0 0 0.2468 0.15172c-0.30986-0.62697-0.62335-1.4245-0.79621-2.3969-0.15623-0.87838-0.19073-1.8649-0.03392-2.8922 0.24498 0.1546 0.50584 0.30609 0.78176 0.45061 0.08417 0.22667 0.1792 0.45266 0.28608 0.67798 0.01256 0.02649 0.0248 0.05337 0.0376 0.07978 0.60578 1.2426 1.4632 2.2233 2.3708 2.9406-0.02656 0.48323-0.01488 0.9335 0.02064 1.3365 0.02152 0.24403 0.052 0.46071 0.08557 0.66352a6.3499 6.3499 0 0 0 0.14345 7e-3c-0.0248-0.20899-0.04696-0.4319-0.0608-0.68213-0.01984-0.35892-0.02168-0.75468 0.0048-1.1765 0.10907 0.08115 0.2185 0.15872 0.32825 0.23235 0.51813 0.34758 1.0305 0.60521 1.5064 0.79828-0.08305 0.2297-0.14559 0.44881-0.19141 0.64904-0.0048 0.02247-0.0085 0.04265-0.0128 0.06408a6.3499 6.3499 0 0 0 0.16743-0.03803c0.05424-0.18852 0.12302-0.39259 0.2096-0.60688 0.30731 0.11674 0.58675 0.19745 0.8487 0.26458a6.3499 6.3499 0 0 0 0.19472-0.08681c-0.29534-0.0826-0.6188-0.18466-0.97854-0.3328 0.26369-0.60512 0.6704-1.2736 1.2902-1.8711 0.17888-0.17256 0.37304-0.3358 0.58207-0.48864 0.32147 0.26234 0.63668 0.47374 0.92814 0.64284-0.09828 0.39568-0.21315 0.75085-0.33114 1.0815a6.3499 6.3499 0 0 0 0.27368-0.24347c0.08333-0.23251 0.16429-0.47438 0.23687-0.73752 0.10384 0.05617 0.19725 0.09947 0.29146 0.14387a6.3499 6.3499 0 0 0 0.08309-0.10955c-0.10707-0.0578-0.2145-0.11553-0.3332-0.18768 0.10864-0.41761 0.1994-0.86902 0.26085-1.3493 0.35416-0.13196 0.70214-0.21987 1.0365-0.27863a6.3499 6.3499 0 0 0 0.0728-0.22241c-0.34633 0.04523-0.70903 0.12208-1.0798 0.24639 0.02192-0.21168 0.03816-0.42883 0.04752-0.6507 0.47059-0.144 0.87454-0.30399 1.2187-0.45846a6.3499 6.3499 0 0 0 0.0244-0.16164c-0.3495 0.14228-0.75632 0.29257-1.2373 0.42869 0.0064-0.25933 0.0032-0.52501-0.01032-0.79664-0.0176-0.34277-0.05216-0.69061-0.10583-1.0418-0.1422-0.93062-0.39687-1.7755-0.71064-2.5279 0.34467-0.21132 0.65728-0.37153 0.94006-0.5056a6.3499 6.3499 0 0 0-0.0802-0.11245c-0.2813 0.11848-0.5895 0.26189-0.92894 0.45516-0.17792-0.40809-0.37306-0.78783-0.57629-1.1373 0.03832-0.072382 0.07424-0.14292 0.10707-0.21167 0.06248-0.1308 0.11161-0.24983 0.15627-0.36381a6.3499 6.3499 0 0 0-0.10128-0.076894c-0.05408 0.11693-0.1131 0.23933-0.18562 0.37453-0.0216 0.040199-0.04472 0.08127-0.06824 0.12278-0.24946-0.41329-0.50895-0.78201-0.76315-1.1038-3.2e-4 -4.064e-4 -5.12e-4 -7.999e-4 -8e-4 -0.00128a6.3499 6.3499 0 0 0-0.33695-0.15337c0.0668 0.083838 0.13224 0.16351 0.20257 0.25838 0.25956 0.35018 0.52526 0.75204 0.77925 1.2022-0.42982 0.70043-1.1201 1.5298-2.1643 2.1374-0.0192 0.011224-0.03848 0.022423-0.05792 0.033487-0.02224-0.52547 0.01272-1.0288 0.08557-1.4912 0.156-0.9879 0.47667-1.7608 0.74537-2.2894a6.3499 6.3499 0 0 0-0.11988-0.042991c-0.30304 0.52008-0.65546 1.2942-0.8351 2.297-0.09115 0.50791-0.13552 1.0661-0.10749 1.6512-0.42883 0.21867-0.89974 0.39359-1.4039 0.50972-0.82974 0.19117-1.6452 0.20027-2.3825 0.076894-0.23848-0.039823-0.46579-0.092718-0.68213-0.15544v-4.212e-4c0.48314-1.2276 1.2149-2.2381 1.9748-3.0042 0.78299-0.7888 1.5648-1.2928 2.1812-1.6247a6.3499 6.3499 0 0 0-0.26913-0.01364zm3.1273 2.0831c0.17528 0.32287 0.34336 0.66941 0.49815 1.0385-0.15895 0.09579-0.32134 0.20016-0.487 0.31459-0.72016 0.49749-1.4731 1.168-2.1335 2.0248-0.09121-0.37722-0.14776-0.75064-0.17611-1.1153 0.054-0.029943 0.10744-0.060494 0.15999-0.091774 1.0393-0.61981 1.7208-1.4533 2.1387-2.1708zm0.56842 1.2096c0.29274 0.73123 0.531 1.5472 0.66765 2.4415 0.05248 0.34336 0.08783 0.68293 0.10624 1.0178 0.01592 0.28945 0.0196 0.57234 0.0132 0.8479-0.12772 0.03332-0.25893 0.06513-0.39439 0.09549-0.58234 0.13039-1.2266 0.2272-1.9161 0.26458-0.41625-0.57103-0.7814-1.2407-1.0269-1.9996-0.0048-0.01461-0.0094-0.02921-0.01408-0.04382-0.01728-0.05463-0.03344-0.10957-0.0492-0.16412 0.66519-0.91014 1.4347-1.6234 2.1691-2.156 0.15074-0.10931 0.29923-0.21013 0.44441-0.30384zm-3.0977 1.1741c0.034 0.40737 0.10389 0.82606 0.21787 1.248-0.22066 0.30718-0.42924 0.63628-0.62011 0.98846-0.0364 0.06717-0.07216 0.13415-0.10666 0.20174-0.15607 0.30638-0.28994 0.61264-0.40514 0.91654-0.04016-0.0069-0.08041-0.01367-0.12071-0.02108-0.08039-0.01453-0.15991-0.02971-0.23937-0.04589-1.0233-0.20846-1.9352-0.54567-2.7286-0.93758-0.23891-0.65446-0.38584-1.3107-0.45929-1.9447 0.19736 0.058078 0.40369 0.1083 0.61969 0.14759 0.7644 0.13863 1.6123 0.13556 2.475-0.063246 0.48875-0.11264 0.94718-0.28041 1.3672-0.48989zm-4.6615 0.6664c0.06728 0.50005 0.18154 1.0121 0.35015 1.5251-0.22339-0.11882-0.43649-0.24167-0.63911-0.36628 0.05392-0.30234 0.12442-0.6073 0.21374-0.91406 0.02392-0.082222 0.04904-0.16386 0.0752-0.24472zm4.9654 0.87438c0.0032 0.0096 0.0056 0.01903 0.0087 0.02853 0.23717 0.73181 0.58409 1.3797 0.98222 1.936-0.62576 0.01877-1.286-0.01246-1.9686-0.11245 0.10964-0.28037 0.23528-0.56277 0.37951-0.84502 0.0336-0.06582 0.06832-0.13092 0.10377-0.19636 0.15427-0.28475 0.32026-0.55513 0.49442-0.8107zm-4.1881 1.1149c0.75227 0.36359 1.6084 0.67288 2.5619 0.86814 0.08125 0.01659 0.16296 0.03236 0.24515 0.04713 0.02672 0.0048 0.0532 0.0091 0.07976 0.01406-0.28517 0.81685-0.43405 1.612-0.49442 2.3412-0.83142-0.69995-1.6116-1.6273-2.1729-2.7798-0.01248-0.02558-0.02456-0.05106-0.0368-0.07689-0.0652-0.13741-0.12611-0.27573-0.18272-0.41381zm7.7629 0.67385c-0.0094 0.22737-0.02576 0.44942-0.04792 0.666-0.40812 0.15682-0.82062 0.36922-1.2224 0.64779-0.10756-0.09752-0.2152-0.20028-0.32287-0.31004-0.18648-0.19024-0.37022-0.39885-0.54694-0.62383 0.64614-0.05071 1.2497-0.15401 1.7971-0.28896 0.11752-0.02902 0.23164-0.05958 0.34313-0.09095zm-4.638 0.29351c0.77464 0.11616 1.5201 0.14256 2.2203 0.105 0.21507 0.27774 0.44212 0.53016 0.67302 0.75612 0.10141 0.09929 0.20289 0.19288 0.30426 0.28153-0.20002 0.14983-0.38641 0.30983-0.55851 0.47832-0.64233 0.62946-1.0505 1.3324-1.3014 1.9662-0.45963-0.20111-0.95222-0.46364-1.4498-0.80902-0.14272-0.09906-0.28532-0.20464-0.42662-0.31667 0.06688-0.76192 0.22781-1.6005 0.53866-2.4615zm4.5599 0.63706c-0.05096 0.40212-0.12175 0.7838-0.20505 1.1418-0.25318-0.16365-0.52416-0.36004-0.8003-0.59447 0.33123-0.22455 0.66945-0.40531 1.0054-0.54734z" fill="url(#a)" fill-rule="evenodd" stroke-width=".79998" style="paint-order:stroke fill markers"/>
  <g transform="translate(-.22747 -.72891)" stroke-linecap="round" stroke-linejoin="round">
   <circle cx="4.7763" cy="6.7098" r="1.6932" fill="url(#radialGradient991)" stroke-width=".70957"/>
   <circle cx="9.4666" cy="6.3133" r="1.3013" fill="url(#radialGradient995)" stroke-width=".54533"/>
   <g transform="matrix(.79998 0 0 .79998 1.6986 1.693)" stroke-width=".49824">
    <circle cx="10.165" cy="7.8309" r="1.1889" fill="url(#radialGradient999)"/>
    <circle cx="12.617" cy="3.0751" r="1.1889" fill="url(#radialGradient1003)"/>
    <circle cx="13.674" cy="4.5422" r="1.1889" fill="url(#radialGradient1007)"/>
   </g>
   <circle cx="13.4" cy="9.6976" r=".76097" fill="url(#radialGradient1011)" stroke-width=".31889"/>
   <circle cx="13.298" cy="10.71" r=".76097" fill="url(#radialGradient1015)" stroke-width=".31889"/>
   <circle cx="10.994" cy="10.251" r="1.3788" fill="url(#radialGradient1019)" stroke-width=".57777"/>
   <circle cx="8.1492" cy="12.701" r="1.3788" fill="url(#radialGradient1023)" stroke-width=".57777"/>
   <circle cx="5.4008" cy="9.2727" r=".85566" fill="url(#radialGradient1027)" stroke-width=".35857"/>
   <circle cx="10.13" cy="13.805" r=".5196" fill="url(#radialGradient1031)" stroke-width=".21775"/>
   <circle cx="8.5554" cy="10.051" r=".79328" fill="url(#radialGradient1035)" stroke-width=".33243"/>
   <circle cx="13.031" cy="12.176" r=".38015" fill="url(#radialGradient1039)" stroke-width=".15931"/>
   <circle cx="12.127" cy="11.498" r=".38015" fill="url(#radialGradient1043)" stroke-width=".15931"/>
  </g>
 </g>
 <g transform="matrix(.51085 0 0 .51085 2.5888 4.7965)">
  <rect transform="matrix(.12955 0 0 .12755 7.6979 3.3169)" x="5.1564" y="8.7788" width="124.3" height="103.95" rx="5.6617" fill="#2e3440" filter="url(#d)" opacity=".887" stroke-width="2.0582"/>
  <g transform="matrix(.26458 0 0 .26458 7.9509 3.6837)">
   <rect x="1.5687" y="2.846" width="60.865" height="50.113" rx="2.7723" fill="#eceff4"/>
   <rect x="1.5687" y="2.846" width="60.865" height="50.113" rx="2.7723" fill="url(#c-5)"/>
   <path d="m4.3409 2.8456c-1.5359 0-2.7725 1.2176-2.7725 2.7296v36.477h60.865v-36.477c0-1.5121-1.2367-2.7296-2.7725-2.7296z" fill="#080808"/>
   <path d="m4.0961 4.5691h55.572v35.351h-55.572z" fill="url(#j)"/>
   <path d="m1.5684 49.72v0.50938c0 1.5121 1.2367 2.7296 2.7725 2.7296h55.317c1.5359 0 2.7725-1.2176 2.7725-2.7296v-0.50938c0 1.5121-1.2367 2.7296-2.7725 2.7296h-55.317c-1.5359 0-2.7725-1.2176-2.7725-2.7296z" fill="#a6aebf"/>
  </g>
  <path transform="matrix(.12955 0 0 .12755 -6.7449 3.1289)" d="m194.34 114.95c-0.0882 3.6995-0.94643 7.8217 4.9506 11.334 4.7067 2.9258-2.6114 3.1267-4.4295 3.1267h-32.145c-1.8181 0-9.1362-0.20092-4.4295-3.1267 5.8971-3.5127 5.0389-7.6349 4.9506-11.334z" filter="url(#h)" stroke-width="2.0582"/>
  <g transform="matrix(.26458 0 0 .26458 7.9509 3.6837)">
   <path d="m39.617 52.606c-0.04319 1.7835-0.46343 3.7708 2.4241 5.464 2.3047 1.4105-1.2787 1.5074-2.1689 1.5074-5.1375 0.22307-10.362 0.3675-15.74 0-0.89025 0-4.4736-0.09686-2.1689-1.5074 2.8876-1.6934 2.4673-3.6807 2.4241-5.464z" fill="#a6aebf"/>
   <path d="m39.617 52.606c-0.04319 1.7835-0.46343 3.7708 2.4241 5.464 2.3047 1.4105-1.2787 1.5074-2.1689 1.5074h-15.74c-0.89025 0-4.4736-0.09686-2.1689-1.5074 2.8876-1.6934 2.4673-3.6807 2.4241-5.464z" fill="url(#e)"/>
   <path d="m39.617 52.606c-0.04319 1.7835-0.46343 3.7708 2.4241 5.464 2.3047 1.4105-1.2787 1.5074-2.1689 1.5074h-15.74c-0.89025 0-4.4736-0.09686-2.1689-1.5074 2.8876-1.6934 2.4673-3.6807 2.4241-5.464z" fill="url(#f)"/>
  </g>
  <ellipse transform="matrix(.12955 0 0 .12755 -6.7449 3.1289)" cx="178.29" cy="127.15" rx="15.764" ry=".78168" fill="#e5e9f0" filter="url(#g)" opacity=".887" stroke-width="2.0582"/>
  <g transform="matrix(.26458 0 0 .26458 7.9509 3.6837)">
   <path d="m39.617 52.606c-0.04319 1.7835-0.46343 3.7708 2.4241 5.464 2.3047 1.4105-1.2787 1.5074-2.1689 1.5074h-15.74c-0.89025 0-4.4736-0.09686-2.1689-1.5074 2.8876-1.6934 2.4673-3.6807 2.4241-5.464z" fill="url(#i)"/>
   <path d="m4.0961 4.5686v35.352h55.572v-35.352zm0.27065 0.24481h55.077v34.885h-55.077z" fill-opacity=".21198"/>
   <path d="m4.3409 2.9658c-1.5359 0-2.7725 1.2176-2.7725 2.7296v36.356h60.865v-36.356c0-1.5121-1.2366-2.7296-2.7725-2.7296zm-0.24483 2.5677h55.572v34.387h-55.572z" fill="#2e3440"/>
  </g>
  <path d="m15.973 16.667c0.07151 0.0085 0.15185 0.05461 0.21909 0.06276 0.0676 0.0085 0.08852-0.04583 0.08852-0.04583s0.07607-0.01693 0.15605-0.01888c0.08005-0.0022 0.15583 0.01657 0.15583 0.01657s0.01468 0.0335 0.04213 0.04813c0.02743 0.01491 0.08649 0.01693 0.12434-0.02277 0.03793-0.03999 0.13912-0.09035 0.19593-0.12184 0.05718-0.03156 0.04668-0.07968 0.01079-0.09431-0.0359-0.01462-0.06528-0.03768-0.06304-0.08192 0.0019-0.04387-0.0317-0.07313-0.0317-0.07313s0.02946-0.09654 0.0021-0.17652c-0.02743-0.07961-0.11791-0.20764-0.18746-0.3039-0.06955-0.09654-0.0105-0.208-0.07382-0.35043-0.06333-0.14266-0.22756-0.13422-0.31607-0.07342-0.08852 0.06081-0.06138 0.21161-0.05711 0.28315 0.0043 0.07118 0.0019 0.12212-0.0062 0.14042-0.0082 0.01859-0.06528 0.0861-0.10321 0.14266-0.03785 0.05685-0.06529 0.17421-0.09301 0.22263-0.02715 0.04813-0.0082 0.09201-0.0082 0.09201s-0.01897 0.0065-0.03395 0.03804c-0.01468 0.0312-0.04408 0.04611-0.09699 0.05627-0.05255 0.01073-0.05255 0.04445-0.03988 0.08221 0.01273 0.03768 0 0.05879-0.01468 0.10692-0.01469 0.04812 0.05884 0.06274 0.13064 0.07118zm0.74333-0.21954c0.03756 0.01635 0.09156-0.0064 0.10799-0.02277 0.01635-0.01628 0.02794-0.04049 0.02794-0.04049s0.01643 0.0081 0.01476 0.034c-0.0019 0.02623 0.0113 0.06362 0.0359 0.07659 0.02461 0.0129 0.06217 0.03091 0.04271 0.04892-0.01984 0.01801-0.12956 0.06196-0.16234 0.09626-0.0325 0.03408-0.0752 0.06196-0.10119 0.05375-0.02627-0.0081-0.04922-0.04387-0.03792-0.09618 0.01164-0.05209 0.02148-0.10923 0.01984-0.14186-0.0019-0.03264-0.0082-0.07658 0-0.08307 0.0082-0.0064 0.02122-0.0033 0.02122-0.0033s-0.0065 0.0619 0.03112 0.07818zm-0.24377-0.88173c0.03619 0 0.06536 0.03573 0.06536 0.07968 0 0.0312-0.01468 0.05822-0.03619 0.07119-0.0054-0.0022-0.01109-0.0048-0.0173-0.0074 0.01304-0.0064 0.02207-0.02276 0.02207-0.04165 0-0.02471-0.01527-0.04503-0.03445-0.04503-0.01868 0-0.03424 0.02031-0.03424 0.04503 0 9e-3 0.0021 0.01801 0.0059 0.02507-0.0113-0.0045-0.02148-0.0084-0.02967-0.01152-0.0043-0.01074-0.0068-0.02284-0.0068-0.03573 5e-6 -0.04395 0.0291-0.07969 0.06529-0.07969zm-0.08961 0.13733c0.01781 0.0031 0.06673 0.02421 0.08483 0.03069 0.0181 0.0062 0.03814 0.01772 0.03619 0.02925-0.0021 0.01188-0.01159 0.01188-0.03619 0.0268-0.02432 0.01463-0.07745 0.04726-0.09445 0.0495-0.01693 0.0022-0.02656-0.0073-0.04466-0.01888-0.0181-0.01182-0.05204-0.03941-0.0435-0.05403 0 0 0.02656-0.02025 0.03814-0.03062 0.01159-0.01074 0.04155-0.03603 0.05964-0.03271zm-0.07803-0.12464c0.02852 0 0.05175 0.03379 0.05175 0.07543 0 0.0076-7.94e-4 0.01462-0.0021 0.02168-0.0071 0.0022-0.01418 0.0059-0.02098 0.01182-0.0033 0.0028-0.0065 0.0053-0.0093 0.0081 0.0045-0.0084 0.0062-0.02053 0.0042-0.03322-0.0039-0.02248-0.01918-0.03912-0.03416-0.03689-0.01505 0.0025-0.02402 0.02313-0.0204 0.0459 4e-3 0.02305 0.01897 0.0397 0.03423 0.03717 7.94e-4 -2.91e-4 0.0016-5.82e-4 0.0026-8.73e-4 -0.0073 0.0071-0.01413 0.01326-0.02122 0.0183-0.02064-0.0096-0.0359-0.03826-0.0359-0.07205 5e-6 -0.04193 0.02286-0.07543 0.05146-0.07543zm-0.15887 0.54511c0.02939-0.04611 0.04835-0.14691 0.07773-0.18041 0.02968-0.03343 0.05255-0.10468 0.04213-0.13617 0 0 0.06333 0.07543 0.10741 0.06304 0.04415-0.01268 0.14338-0.0861 0.15808-0.07349 0.01468 0.01268 0.14107 0.28934 0.1538 0.37745 0.01275 0.08804-0.0085 0.15534-0.0085 0.15534s-0.04835-0.01268-0.05457 0.01657c-0.0062 0.02954-0.0062 0.13653-0.0062 0.13653s-0.06536 0.09006-0.16655 0.10497c-0.10119 0.01463-0.15186 4e-3 -0.15186 4e-3l-0.05682-0.06477s0.04415-0.0065 0.03793-0.05065c-0.0062-0.04387-0.13492-0.10469-0.15808-0.1593-0.02315-0.05461-0.0043-0.14691 0.02548-0.19309zm-0.25021 0.3304c0.0051-0.02161 0.07064-0.02161 0.09583-0.03681s0.03025-0.05886 0.05059-0.07039c0.02005-0.01182 0.05711 0.03012 0.07238 0.05374 0.01497 0.02306 0.07238 0.12386 0.09583 0.14893 0.02373 0.02529 0.04553 0.05879 0.03872 0.08891-0.0064 0.03011-0.04212 0.05209-0.04212 0.05209-0.03192 0.0098-0.12094-0.02846-0.1614-0.04532-0.04046-0.01693-0.14339-0.02198-0.15663-0.03689-0.0136-0.0152 0.0065-0.0487 0.01185-0.08048 0.0048-0.03213-0.01021-0.05209-0.0051-0.07377z" fill="#2e3440" stroke-width=".0042946"/>
 </g>
</svg>
