<svg width="64" height="64" version="1.1" viewBox="0 0 16.933 16.933" xmlns="http://www.w3.org/2000/svg" xmlns:xlink="http://www.w3.org/1999/xlink">
 <defs>
  <linearGradient id="linearGradient1224">
   <stop stop-color="#dbc7c5" offset="0"/>
   <stop stop-color="#b48ead" offset="1"/>
  </linearGradient>
  <filter id="filter1178" x="-.047999" y="-.047999" width="1.096" height="1.096" color-interpolation-filters="sRGB">
   <feGaussianBlur stdDeviation="0.30691668"/>
  </filter>
  <linearGradient id="linearGradient1340" x1="8.6644" x2="8.6644" y1="15.931" y2=".79375" gradientUnits="userSpaceOnUse">
   <stop stop-color="#5e81ac" offset="0"/>
   <stop stop-color="#88c0d0" offset="1"/>
  </linearGradient>
  <linearGradient id="linearGradient1226" x1="4.4077" x2="4.4112" y1="13.767" y2="14.975" gradientTransform="translate(7.9644 -.10248)" gradientUnits="userSpaceOnUse" xlink:href="#linearGradient1224"/>
  <linearGradient id="linearGradient1904" x1="4.4077" x2="4.4112" y1="13.767" y2="14.975" gradientTransform="translate(4.7895 -.10248)" gradientUnits="userSpaceOnUse" xlink:href="#linearGradient1224"/>
  <linearGradient id="linearGradient1924" x1="4.4077" x2="4.4112" y1="13.767" y2="14.975" gradientTransform="translate(3.202 -.10248)" gradientUnits="userSpaceOnUse" xlink:href="#linearGradient1224"/>
  <linearGradient id="linearGradient1944" x1="4.4077" x2="4.4112" y1="13.767" y2="14.975" gradientTransform="translate(1.6146 -.10248)" gradientUnits="userSpaceOnUse" xlink:href="#linearGradient1224"/>
  <linearGradient id="linearGradient1964" x1="4.4077" x2="4.4112" y1="13.767" y2="14.975" gradientTransform="translate(.027081 -.10248)" gradientUnits="userSpaceOnUse" xlink:href="#linearGradient1224"/>
  <linearGradient id="linearGradient2004" x1="4.4077" x2="4.4112" y1="13.767" y2="14.975" gradientTransform="translate(6.377 -.10248)" gradientUnits="userSpaceOnUse" xlink:href="#linearGradient1224"/>
 </defs>
 <g stroke-linecap="round" stroke-linejoin="round">
  <rect transform="matrix(.99138 0 0 1 .072989 .0019055)" x=".79375" y=".90545" width="15.346" height="15.346" rx="3.0526" ry="3.0526" fill="#000000" filter="url(#filter1178)" opacity=".15" stroke-width="1.2489" style="mix-blend-mode:normal"/>
  <rect x=".92604" y=".92604" width="15.081" height="15.081" rx="3" ry="3" fill="url(#linearGradient1340)" stroke-width="1.2274"/>
  <rect x=".01215" y=".0060174" width="16.924" height="16.927" fill="none" opacity=".15" stroke-width="1.052"/>
  <path d="m0.92603 12.122v0.88521c0 1.662 1.3383 2.9998 3.0003 2.9998h9.0809c1.662 0 2.9998-1.3378 2.9998-2.9998v-0.88521z" fill="#2e3440" opacity=".6" stroke-width="1.0624"/>
  <g transform="matrix(1.2402,0,0,1.4134,-2.0303,-6.1224)" stroke-width=".62811">
   <rect x="11.842" y="13.634" width="1.1808" height="1.2971" ry=".15784" fill="url(#linearGradient1226)"/>
   <rect x="3.905" y="13.634" width="1.1808" height="1.2971" ry=".15784" fill="url(#linearGradient1964)"/>
   <rect x="5.4925" y="13.634" width="1.1808" height="1.2971" ry=".15784" fill="url(#linearGradient1944)"/>
   <rect x="7.08" y="13.634" width="1.1808" height="1.2971" ry=".15784" fill="url(#linearGradient1924)"/>
   <rect x="8.6674" y="13.634" width="1.1808" height="1.2971" ry=".15784" fill="url(#linearGradient1904)"/>
   <rect x="10.255" y="13.634" width="1.1808" height="1.2971" ry=".15784" fill="url(#linearGradient2004)"/>
  </g>
 </g>
 <style type="text/css">.st0{fill-rule:evenodd;clip-rule:evenodd;}</style>
 <g fill="#d8dee9">
  <path transform="scale(.26458)" d="m43.471 3.5s-0.022003 17.103 17.029 17.029v-5.6895c0-6.2817-5.0562-11.34-11.338-11.34h-5.6914z" opacity=".7"/>
  <path d="m5.4316 0.92604s0.0058 4.525-4.5056 4.5056v-1.5053c0-1.662 1.3378-3.0003 2.9998-3.0003z" opacity=".7"/>
  <path transform="scale(.26458)" d="m20.218 45.823c-0.87031-4.8897-4.1744-14.131-16.718-14.077v14.07" opacity=".7"/>
  <path transform="scale(.26458)" d="m3.6423 50.957c1.003e-4 6.36e-4 2.007e-4 0.001271 3.011e-4 0.001907"/>
  <path transform="scale(.26458)" d="m3.5957 50.633c0.014062 0.10845 0.029604 0.21644 0.046576 0.32395"/>
  <path transform="scale(.26458)" d="m3.5763 50.475c0.0061294 0.052918 0.012613 0.10573 0.019447 0.15842"/>
  <path transform="scale(.26458)" d="m3.5449 50.169c0.0091178 0.10244 0.019583 0.20449 0.031356 0.30613"/>
  <path transform="scale(.26458)" d="m3.5235 49.889c0.0060197 0.093425 0.013173 0.18653 0.021431 0.27931"/>
  <path transform="scale(.26458)" d="m3.5124 49.691c0.0031044 0.066086 0.0067804 0.13202 0.011018 0.19778"/>
  <path transform="scale(.26458)" d="m3.5 49.162c0 0.17754 0.004212 0.35401 0.012449 0.52937"/>
  <path transform="scale(.26458)" d="m3.5 45.816v3.3457"/>
  <path d="m11.584 12.124c0.23026-1.2937 1.1045-3.7388 4.4232-3.7245v3.7227" opacity=".7"/>
 </g>
</svg>
