<svg width="64" height="64" version="1.1" viewBox="0 0 16.933 16.933" xmlns="http://www.w3.org/2000/svg">
 <defs>
  <filter id="filter1178" x="-.047999" y="-.047999" width="1.096" height="1.096" color-interpolation-filters="sRGB">
   <feGaussianBlur stdDeviation="0.30691668"/>
  </filter>
  <linearGradient id="linearGradient1167" x1="8.6644" x2="8.6644" y1="15.931" y2=".79375" gradientTransform="matrix(.85 0 0 .85 1.27 1.27)" gradientUnits="userSpaceOnUse">
   <stop stop-color="#5e81ac" offset="0"/>
   <stop stop-color="#88c0d0" offset="1"/>
  </linearGradient>
  <linearGradient id="linearGradient1830" x1="8.653" x2="8.653" y1="12.464" y2="15.68" gradientTransform="matrix(1.005 0 0 1.005 -.042333 -.070323)" gradientUnits="userSpaceOnUse">
   <stop stop-color="#d8dee9" offset="0"/>
   <stop stop-color="#a6aebf" offset="1"/>
  </linearGradient>
  <linearGradient id="linearGradient2070" x1="8.4519" x2="8.4519" y1="4.0024" y2="10.209" gradientTransform="translate(0 -.28228)" gradientUnits="userSpaceOnUse">
   <stop stop-color="#4c566a" offset="0"/>
   <stop stop-color="#2e3440" offset="1"/>
  </linearGradient>
  <filter id="filter2364" x="-.054685" y="-.042771" width="1.1094" height="1.0855" color-interpolation-filters="sRGB">
   <feGaussianBlur stdDeviation="0.11626378"/>
  </filter>
  <linearGradient id="linearGradient4867" x1="8.3154" x2="8.3892" y1="3.3595" y2="13.524" gradientTransform="matrix(.24417 0 0 .25092 6.3973 11.939)" gradientUnits="userSpaceOnUse">
   <stop stop-color="#4c566a" offset="0"/>
   <stop stop-color="#2e3440" offset="1"/>
  </linearGradient>
 </defs>
 <g stroke-linecap="round" stroke-linejoin="round">
  <rect transform="matrix(.99138 0 0 1 .072989 .0019055)" x=".79375" y=".90545" width="15.346" height="15.346" rx="3.0526" ry="3.0526" fill="#000000" filter="url(#filter1178)" opacity=".15" stroke-width="1.2489" style="mix-blend-mode:normal"/>
  <path d="m3.926 0.92604h9.081c1.662 0 3 1.338 3 3v9.081c0 1.662-1.338 3-3 3h-9.081c-1.662 0-3-1.338-3-3v-9.081c0-1.662 1.338-3 3-3z" fill="#2e3440" stroke-width="1.2274"/>
  <rect x=".01215" y=".0060174" width="16.924" height="16.927" fill="none" opacity=".15" stroke-width="1.052"/>
  <rect x="2.0571" y="2.0571" width="12.819" height="12.819" rx="2.55" ry="2.55" fill="url(#linearGradient1167)" stroke-width="1.0433"/>
  <path d="m16.007 11.62v1.3866c0 1.662-1.338 3-3 3h-9.081c-1.662 0-3-1.338-3-3v-1.3866z" fill="#2e3440" stroke-width="1.2274"/>
  <path d="m0.88833 12.112v0.88964c0 1.6703 1.345 3.0148 3.0153 3.0148h9.1263c1.6703 0 3.0148-1.3445 3.0148-3.0148v-0.88964z" fill="url(#linearGradient1830)" stroke-width="1.0677"/>
 </g>
 <style type="text/css">.st0{fill-rule:evenodd;clip-rule:evenodd;}</style>
 <path d="m6.1561 6.7312h0.47564v-1.0044c0-0.5418 0.22176-1.0344 0.57859-1.3914v-4.779e-4c0.35699-0.35699 0.84972-0.57875 1.3919-0.57875 0.54174 0 1.0344 0.22176 1.3914 0.57875l5.216e-4 4.779e-4c0.35683 0.35693 0.57859 0.84957 0.57859 1.3914v1.0044h0.37886c0.08441 0 0.15354 0.069126 0.15354 0.15349v3.2419c0 0.08436-0.06913 0.15348-0.15354 0.15348h-4.7955c-0.084415 0-0.15354-0.06913-0.15354-0.15348v-3.2419c0-0.084362 0.069125-0.15349 0.15354-0.15349zm1.2412 0h2.4097v-1.0154c0-0.33129-0.13559-0.63269-0.35369-0.85105l-2.609e-4 2.13e-4c-0.21826-0.21842-0.51961-0.35407-0.85079-0.35407-0.33134 0-0.63269 0.13559-0.85121 0.35385-0.21815 0.21836-0.35369 0.51976-0.35369 0.85105v0.95835zm1.2146 1.7739 0.24321 1.1223-0.66667 0.00284 0.19564-1.1374c-0.18216-0.058397-0.31419-0.22908-0.31419-0.43062 0-0.24958 0.20228-0.45186 0.45197-0.45186 0.24942 0 0.45186 0.20228 0.45186 0.45186 0 0.21874-0.15545 0.40121-0.36182 0.44289z" clip-rule="evenodd" fill="#2e3440" fill-rule="evenodd" filter="url(#filter2364)" opacity=".4" stroke-width=".053091"/>
 <path d="m6.0688 6.6221h0.47564v-1.0044c0-0.5418 0.22176-1.0344 0.57859-1.3914v-4.779e-4c0.35699-0.35699 0.84972-0.57875 1.3919-0.57875 0.54174 0 1.0344 0.22176 1.3914 0.57875l5.216e-4 4.779e-4c0.35683 0.35693 0.57859 0.84957 0.57859 1.3914v1.0044h0.37886c0.08441 0 0.15354 0.069126 0.15354 0.15349v3.2419c0 0.08436-0.06913 0.15348-0.15354 0.15348h-4.7955c-0.084415 0-0.15354-0.06913-0.15354-0.15348v-3.2419c0-0.084362 0.069125-0.15349 0.15354-0.15349zm1.2412 0h2.4097v-1.0154c0-0.33129-0.13559-0.63269-0.35369-0.85105l-2.609e-4 2.13e-4c-0.21826-0.21842-0.51961-0.35407-0.85079-0.35407-0.33134 0-0.63269 0.13559-0.85121 0.35385-0.21815 0.21836-0.35369 0.51976-0.35369 0.85105v0.95835zm1.2146 1.7739 0.24321 1.1223-0.66667 0.00284 0.19564-1.1374c-0.18216-0.058397-0.31419-0.22908-0.31419-0.43062 0-0.24958 0.20228-0.45186 0.45197-0.45186 0.24942 0 0.45186 0.20228 0.45186 0.45186 0 0.21874-0.15545 0.40121-0.36182 0.44289z" clip-rule="evenodd" fill="url(#linearGradient2070)" fill-rule="evenodd" stroke-width=".053091"/>
 <path d="m7.3132 15.452c-0.0163-0.0083-0.02546-0.01797-0.03383-0.03575-0.01049-0.02226-0.01117-0.0297-0.0079-0.08571 0.01647-0.28026 0.11944-0.51793 0.30866-0.7124 0.16108-0.16554 0.34245-0.26114 0.57234-0.30166 0.04859-0.0086 0.08958-0.0099 0.314-0.0099s0.26542 0.0013 0.314 0.0099c0.22989 0.04054 0.41126 0.13613 0.57234 0.30166 0.18922 0.19445 0.2922 0.43212 0.30866 0.7124 0.0033 0.05607 0.0026 0.06343-0.0079 0.08581-0.0085 0.01814-0.0174 0.0274-0.03418 0.03575l-0.02265 0.01127-2.2612-9e-6zm1.0921-1.3153c-0.10963-0.01574-0.1583-0.02896-0.23267-0.06319-0.18317-0.08432-0.33283-0.25792-0.3919-0.45462-0.0406-0.13522-0.0406-0.29955 0-0.43478 0.06816-0.227 0.25333-0.41729 0.47423-0.48734 0.13158-0.04172 0.29149-0.04172 0.42308 0 0.22089 0.07004 0.40606 0.26033 0.47423 0.48734 0.03096 0.1031 0.03945 0.24984 0.02026 0.35001-0.05803 0.30282-0.28312 0.53494-0.57402 0.59198-0.04359 0.0085-0.16215 0.01504-0.19319 0.01059z" fill="url(#linearGradient4867)" stroke-width=".005395"/>
</svg>
