<svg width="64" height="64" version="1.1" viewBox="0 0 16.933 16.933" xmlns="http://www.w3.org/2000/svg" xmlns:xlink="http://www.w3.org/1999/xlink">
 <defs>
  <linearGradient id="linearGradient1224">
   <stop stop-color="#dbc7c5" offset="0"/>
   <stop stop-color="#b48ead" offset="1"/>
  </linearGradient>
  <filter id="filter1178" x="-.047999" y="-.047999" width="1.096" height="1.096" color-interpolation-filters="sRGB">
   <feGaussianBlur stdDeviation="0.30691668"/>
  </filter>
  <linearGradient id="linearGradient1340" x1="8.6644" x2="8.6644" y1="15.931" y2=".79375" gradientUnits="userSpaceOnUse">
   <stop stop-color="#5e81ac" offset="0"/>
   <stop stop-color="#88c0d0" offset="1"/>
  </linearGradient>
  <linearGradient id="linearGradient1226" x1="4.4077" x2="4.4112" y1="13.767" y2="14.975" gradientTransform="translate(7.9644 -.10248)" gradientUnits="userSpaceOnUse" xlink:href="#linearGradient1224"/>
  <linearGradient id="linearGradient1904" x1="4.4077" x2="4.4112" y1="13.767" y2="14.975" gradientTransform="translate(4.7895 -.10248)" gradientUnits="userSpaceOnUse" xlink:href="#linearGradient1224"/>
  <linearGradient id="linearGradient1924" x1="4.4077" x2="4.4112" y1="13.767" y2="14.975" gradientTransform="translate(3.202 -.10248)" gradientUnits="userSpaceOnUse" xlink:href="#linearGradient1224"/>
  <linearGradient id="linearGradient1944" x1="4.4077" x2="4.4112" y1="13.767" y2="14.975" gradientTransform="translate(1.6146 -.10248)" gradientUnits="userSpaceOnUse" xlink:href="#linearGradient1224"/>
  <linearGradient id="linearGradient1964" x1="4.4077" x2="4.4112" y1="13.767" y2="14.975" gradientTransform="translate(.027081 -.10248)" gradientUnits="userSpaceOnUse" xlink:href="#linearGradient1224"/>
  <linearGradient id="linearGradient2004" x1="4.4077" x2="4.4112" y1="13.767" y2="14.975" gradientTransform="translate(6.377 -.10248)" gradientUnits="userSpaceOnUse" xlink:href="#linearGradient1224"/>
  <linearGradient id="linearGradient997" x1="8.4955" x2="8.4955" y1="2.3877" y2="10.454" gradientUnits="userSpaceOnUse">
   <stop stop-color="#2e3440" offset="0"/>
   <stop stop-color="#4c566a" offset="1"/>
  </linearGradient>
  <filter id="filter1465" x="-.10829" y="-.10771" width="1.2166" height="1.2154" color-interpolation-filters="sRGB">
   <feGaussianBlur stdDeviation="0.3988747"/>
  </filter>
 </defs>
 <rect transform="matrix(.99138 0 0 1 .072989 .0019055)" x=".79375" y=".90545" width="15.346" height="15.346" rx="3.0526" ry="3.0526" fill="#000000" filter="url(#filter1178)" opacity=".15" stroke-width="1.2489" style="mix-blend-mode:normal"/>
 <rect x=".92604" y=".92604" width="15.081" height="15.081" rx="3" ry="3" fill="url(#linearGradient1340)" stroke-linecap="round" stroke-linejoin="round" stroke-width="1.2274"/>
 <path class="st0" d="m12.953 3.2358v0.76231c0 0.093299-0.08752 0.16997-0.19456 0.16997h-3.0153c-0.20541 0.42817-0.64298 0.72398-1.15 0.72398-0.50628 0-0.94385-0.29581-1.1493-0.72398h-3.1368c-0.10632 0-0.19456-0.076667-0.19456-0.16997v-0.76231c0-0.093299 0.087515-0.16996 0.19456-0.16996h3.1368c0.20541-0.42817 0.64298-0.72326 1.1493-0.72326s0.94385 0.29581 1.1493 0.72326h3.0153c0.10777 0 0.19528 0.076667 0.19528 0.16996zm-5.2552 7.2709c-0.20541 0.42817-0.64298 0.72326-1.15 0.72326-0.50628 0-0.94385-0.29509-1.1493-0.72326h-1.0914c-0.10704 0-0.19456-0.07666-0.19456-0.16996v-0.76231c0-0.093299 0.087515-0.16996 0.19456-0.16996h1.0914c0.2054-0.42817 0.64298-0.72398 1.1493-0.72398 0.50628 0 0.94385 0.29581 1.1493 0.72398h5.0606c0.10704 0 0.19456 0.076662 0.19456 0.16996v0.76231c0 0.0933-0.08824 0.16996-0.19456 0.16996zm3.9454-3.1209c-0.2054 0.42817-0.64298 0.72398-1.1493 0.72398-0.50628 0-0.94385-0.29581-1.15-0.72398h-5.0368c-0.10632 0-0.19456-0.076667-0.19456-0.16997v-0.76159c0-0.0933 0.087515-0.16997 0.19456-0.16997h5.0368c0.20541-0.42817 0.64298-0.72326 1.1493-0.72326 0.50628 0 0.94385 0.29581 1.1493 0.72326h1.1153c0.10704 0 0.19456 0.076667 0.19456 0.16997v0.76159c0 0.093301-0.08752 0.16997-0.19456 0.16997z" fill="#2e3440" filter="url(#filter1465)" opacity=".4" stroke-width=".072326"/>
 <g stroke-linecap="round" stroke-linejoin="round">
  <rect x=".01215" y=".0060174" width="16.924" height="16.927" fill="none" opacity=".15" stroke-width="1.052"/>
  <path d="m0.92603 12.122v0.88521c0 1.662 1.3383 2.9998 3.0003 2.9998h9.0809c1.662 0 2.9998-1.3378 2.9998-2.9998v-0.88521z" fill="#2e3440" opacity=".6" stroke-width="1.0624"/>
  <g transform="matrix(1.2402 0 0 1.4134 -2.0303 -6.1224)" stroke-width=".62811">
   <rect x="11.842" y="13.634" width="1.1808" height="1.2971" ry=".15784" fill="url(#linearGradient1226)"/>
   <rect x="3.905" y="13.634" width="1.1808" height="1.2971" ry=".15784" fill="url(#linearGradient1964)"/>
   <rect x="5.4925" y="13.634" width="1.1808" height="1.2971" ry=".15784" fill="url(#linearGradient1944)"/>
   <rect x="7.08" y="13.634" width="1.1808" height="1.2971" ry=".15784" fill="url(#linearGradient1924)"/>
   <rect x="8.6674" y="13.634" width="1.1808" height="1.2971" ry=".15784" fill="url(#linearGradient1904)"/>
   <rect x="10.255" y="13.634" width="1.1808" height="1.2971" ry=".15784" fill="url(#linearGradient2004)"/>
  </g>
 </g>
 <style type="text/css">.st0{fill-rule:evenodd;clip-rule:evenodd;}</style>
 <path class="st0" d="m12.887 3.0373v0.76231c0 0.093299-0.08752 0.16997-0.19456 0.16997h-3.0153c-0.20541 0.42817-0.64298 0.72398-1.15 0.72398-0.50628 0-0.94385-0.29581-1.1493-0.72398h-3.1368c-0.10632 0-0.19456-0.076667-0.19456-0.16997v-0.76231c0-0.093299 0.087515-0.16996 0.19456-0.16996h3.1368c0.20541-0.42817 0.64298-0.72326 1.1493-0.72326s0.94385 0.29581 1.1493 0.72326h3.0153c0.10777 0 0.19528 0.076667 0.19528 0.16996zm-5.2552 7.2709c-0.20541 0.42817-0.64298 0.72326-1.15 0.72326-0.50628 0-0.94385-0.29509-1.1493-0.72326h-1.0914c-0.10704 0-0.19456-0.07666-0.19456-0.16996v-0.76231c0-0.093299 0.087515-0.16996 0.19456-0.16996h1.0914c0.2054-0.42817 0.64298-0.72398 1.1493-0.72398 0.50628 0 0.94385 0.29581 1.1493 0.72398h5.0606c0.10704 0 0.19456 0.076662 0.19456 0.16996v0.76231c0 0.0933-0.08824 0.16996-0.19456 0.16996zm3.9454-3.1209c-0.2054 0.42817-0.64298 0.72398-1.1493 0.72398-0.50628 0-0.94385-0.29581-1.15-0.72398h-5.0368c-0.10632 0-0.19456-0.076667-0.19456-0.16997v-0.76159c0-0.0933 0.087515-0.16997 0.19456-0.16997h5.0368c0.20541-0.42817 0.64298-0.72326 1.1493-0.72326 0.50628 0 0.94385 0.29581 1.1493 0.72326h1.1153c0.10704 0 0.19456 0.076667 0.19456 0.16997v0.76159c0 0.093301-0.08752 0.16997-0.19456 0.16997z" fill="url(#linearGradient997)" stroke-width=".072326"/>
</svg>
