<svg width="64" height="64" version="1.1" viewBox="0 0 16.933 16.933" xmlns="http://www.w3.org/2000/svg" xmlns:xlink="http://www.w3.org/1999/xlink">
 <defs>
  <filter id="filter910" x="-.078105" y="-.072132" width="1.1562" height="1.1443" color-interpolation-filters="sRGB">
   <feGaussianBlur stdDeviation="0.66757952"/>
  </filter>
  <linearGradient id="linearGradient3950" x1="219.74" x2="408.75" y1="-208.14" y2="18.425" gradientTransform="matrix(.08274 0 0 .08274 18.987 18.751)" gradientUnits="userSpaceOnUse" xlink:href="#radialGradient1279-7-3"/>
  <radialGradient id="radialGradient1279-7-3" cx="16.993" cy="17.403" r="12.416" gradientTransform="matrix(1.0313,0,0,1.0313,-1.4819,-1.6041)" gradientUnits="userSpaceOnUse">
   <stop stop-color="#d8dee9" offset="0"/>
   <stop stop-color="#4c566a" stop-opacity=".7" offset=".28824"/>
   <stop stop-color="#d8dee9" offset=".47676"/>
   <stop stop-color="#2e3440" offset=".75178"/>
   <stop stop-color="#d8dee9" offset="1"/>
  </radialGradient>
  <linearGradient id="linearGradient3952" x1="219.74" x2="408.75" y1="-208.14" y2="18.425" gradientTransform="matrix(.08274 0 0 .08274 18.98 18.737)" gradientUnits="userSpaceOnUse">
   <stop stop-color="#eceff4" offset="0"/>
   <stop stop-color="#4c566a" stop-opacity=".6" offset=".28824"/>
   <stop stop-color="#eceff4" offset=".47676"/>
   <stop stop-color="#2e3440" offset=".75178"/>
   <stop stop-color="#eceff4" offset="1"/>
  </linearGradient>
  <linearGradient id="linearGradient3954" x1="219.74" x2="408.75" y1="-208.14" y2="18.425" gradientTransform="matrix(.08274 0 0 .08274 18.98 18.737)" gradientUnits="userSpaceOnUse" xlink:href="#radialGradient1279-7-3"/>
  <filter id="filter1178" x="-.047999" y="-.047999" width="1.096" height="1.096" color-interpolation-filters="sRGB">
   <feGaussianBlur stdDeviation="0.30691668"/>
  </filter>
  <linearGradient id="linearGradient1340" x1="8.355" x2="8.3996" y1="16.007" y2=".79375" gradientUnits="userSpaceOnUse">
   <stop stop-color="#d8dee9" offset="0"/>
   <stop stop-color="#eceff4" offset="1"/>
  </linearGradient>
 </defs>
 <g transform="translate(-.0076499 -.0030174)">
  <g stroke-linecap="round" stroke-linejoin="round">
   <rect transform="matrix(.99138 0 0 1 .072989 .0019055)" x=".79375" y=".90545" width="15.346" height="15.346" rx="3.0526" ry="3.0526" fill="#000000" filter="url(#filter1178)" opacity=".15" stroke-width="1.2489" style="mix-blend-mode:normal"/>
   <rect x=".92604" y=".92604" width="15.081" height="15.081" rx="3" ry="3" fill="url(#linearGradient1340)" stroke-width="1.2274"/>
   <rect x=".01215" y=".0060174" width="16.924" height="16.927" fill="none" opacity=".15" stroke-width="1.052"/>
  </g>
 </g>
 <g transform="matrix(.51619 0 0 .51619 .14731 .14709)">
  <g transform="translate(-.27309 .35058)" fill="#2e3440" filter="url(#filter910)" opacity=".25">
   <path d="m20.92 15.401-0.3657 0.01471-0.20847 0.54896-0.03572 0.32466 0.02796 0.20718-0.5913 0.11813-0.05398-0.202-0.15756-0.2862-0.40336-0.42663-0.34324 0.12686-0.0286 0.58645 0.06642 0.31981 0.0905 0.18843-0.52585 0.29508-0.11361-0.1755-0.23836-0.22333-0.51535-0.28119-0.28733 0.22673 0.15401 0.56658 0.16209 0.28361 0.14431 0.15142-0.40902 0.44295-0.16241-0.1317-0.29557-0.13882-0.57708-0.10811-0.20313 0.30446 0.32143 0.49127 0.24176 0.21962 0.18406 0.09922-0.25194 0.54783-0.19522-0.07514-0.32401-0.04072-0.58225 0.07547-0.09922 0.35229 0.45766 0.36797 0.29783 0.13413 0.20572 0.03765-0.07046 0.59873-0.20879-0.01115-0.32078 0.06157-0.53054 0.25161 0.01471 0.3657 0.5488 0.20847 0.32482 0.03571 0.20717-0.0278 0.11813 0.59114-0.202 0.05397-0.2862 0.15756-0.42663 0.40336 0.12686 0.34324 0.58645 0.0286 0.31981-0.06642 0.18843-0.0905 0.29508 0.52585-0.1755 0.11361-0.2235 0.23836-0.28103 0.51535 0.22673 0.28733 0.56658-0.15401 0.28361-0.16192 0.15126-0.14431 0.44311 0.40885-0.13171 0.16241-0.13882 0.29557-0.10827 0.57708 0.30446 0.20313 0.49127-0.32143 0.21978-0.24176 0.09922-0.18406 0.54783 0.25194-0.07514 0.19522-0.04072 0.32401 0.07547 0.58241 0.35229 0.09906 0.36797-0.45766 0.13413-0.29783 0.03765-0.20556 0.59874 0.0703-0.01115 0.20879 0.06157 0.32078 0.25161 0.53054 0.3657-0.0147 0.20847-0.5488 0.03571-0.32482-0.02796-0.20717 0.5913-0.11813 0.05398 0.20216 0.15756 0.28604 0.40336 0.42663 0.34324-0.12686 0.0286-0.58645-0.06642-0.31981-0.0905-0.18843 0.52585-0.29509 0.11361 0.1755 0.23836 0.2235 0.51535 0.28102 0.28733-0.22673-0.15401-0.56658-0.16209-0.28361-0.14431-0.15126 0.40902-0.44311 0.16225 0.1317 0.29573 0.13882 0.57708 0.10827 0.20313-0.30446-0.32159-0.49127-0.24176-0.21978-0.1839-0.09922 0.25194-0.54783 0.19522 0.07514 0.32401 0.04072 0.58225-0.07547 0.09906-0.35229-0.4575-0.36797-0.29783-0.13413-0.20572-0.03765 0.07046-0.59874 0.20879 0.01115 0.32078-0.06141 0.53054-0.25178-0.01471-0.3657-0.54896-0.20847-0.32466-0.03555-0.20717 0.0278-0.11813-0.5913 0.202-0.05398 0.2862-0.15756 0.42663-0.40336-0.12686-0.34324-0.58645-0.0286-0.31981 0.06642-0.18843 0.0905-0.29508-0.52585 0.1755-0.11361 0.22333-0.23836 0.28119-0.51535-0.22673-0.28733-0.56658 0.15401-0.28361 0.16209-0.15126 0.14431-0.44311-0.40902 0.13171-0.16225 0.13882-0.29573 0.10811-0.57708-0.3043-0.20313-0.49143 0.32159-0.21962 0.24176-0.09922 0.1839-0.54783-0.25194 0.07514-0.19522 0.04072-0.32401-0.07547-0.58225-0.35229-0.09906-0.36797 0.4575-0.13413 0.29783-0.03765 0.20572-0.59874-0.07046 0.01115-0.20879-0.06157-0.32078zm-0.11716 1.6474a4.15 4.15 0 0 1 2.8242 0.97414l-2.3048 2.3048a0.94948 0.93549 7.9185e-6 0 0-0.3914-0.06707 0.94948 0.93549 7.9185e-6 0 0-0.31399 0.06836l-2.3059-2.3059a4.15 4.15 0 0 1 2.4919-0.9743zm-3.0064 1.4885 2.2972 2.2972a0.94948 0.93549 7.9185e-6 0 0-0.07337 0.39835 0.94948 0.93549 7.9185e-6 0 0 0.07482 0.32224l-2.2985 2.2983a4.15 4.15 0 0 1-0.9743-2.4919 4.15 4.15 0 0 1 0.97414-2.8242zm6.3448 1.65e-4a4.15 4.15 0 0 1 0.9743 2.4919 4.15 4.15 0 0 1-0.96735 2.8309l-2.3036-2.3036a0.94948 0.93549 7.9185e-6 0 0 0.07304-0.39867 0.94948 0.93549 7.9185e-6 0 0-0.07466-0.32207zm-3.191 2.1926a0.46565 0.46565 0 0 1 0.484 0.44667 0.46565 0.46565 0 0 1-0.44667 0.484 0.46565 0.46565 0 0 1-0.484-0.44667 0.46565 0.46565 0 0 1 0.44667-0.484zm-0.33484 1.3331a0.94948 0.93549 7.9185e-6 0 0 0.39156 0.06706 0.94948 0.93549 7.9185e-6 0 0 0.31577-0.06658l2.3111 2.3111a4.15 4.15 0 0 1-2.4989 0.96735 4.15 4.15 0 0 1-2.8242-0.97414z" opacity=".7"/>
   <path d="m12.831 18.111-0.33597 0.49806-0.05866 0.2041-0.01163 0.31997-0.61118 0.0425-0.05575-0.31545-0.0863-0.19392-0.40158-0.44667-0.31803 0.10213-0.06609 0.59712 0.04299 0.20798 0.13833 0.28878-0.52133 0.32159-0.19602-0.25323-0.16645-0.13187-0.56334-0.20879-0.234 0.23836 0.21897 0.5593 0.13462 0.16419 0.25678 0.19134-0.31222 0.52715-0.29121-0.13316-0.20863-0.03927-0.59583 0.07676-0.09648 0.31981 0.45378 0.3935 0.19554 0.08274 0.31625 0.05026-0.03135 0.61182-0.31981 0.01729-0.20313 0.06222-0.49176 0.34502 0.06319 0.32789 0.58468 0.13769 0.21154-0.01778 0.30349-0.10246 0.25646 0.5564-0.27505 0.16403-0.15094 0.14932-0.27521 0.53393 0.2083 0.26115 0.58177-0.14997 0.17906-0.11393 0.22107-0.23174 0.48561 0.37346-0.16726 0.27311-0.06416 0.20232 0.0044 0.60068 0.30575 0.13445 0.44554-0.4032 0.10569-0.18406 0.08791-0.30801 0.60358 0.10504-0.02133 0.31949 0.03733 0.20911 0.28313 0.52989 0.33306-0.02327 0.20717-0.56383 0.0079-0.21218-0.06513-0.31351 0.58322-0.18762 0.1296 0.29282 0.13009 0.1679 0.49693 0.33759 0.28426-0.17534-0.0787-0.59566-0.09147-0.1915-0.20346-0.24741 0.42922-0.43697 0.25097 0.19893 0.19311 0.08807 0.59696 0.06803 0.17017-0.28733-0.34647-0.49079-0.17001-0.12718-0.29508-0.12443 0.17696-0.58645 0.31464 0.05963 0.21202-0.0118 0.56011-0.21719 0.01713-0.33355-0.53474-0.27359-0.20976-0.03345-0.319 0.02699-0.11587-0.60148 0.30624-0.09357 0.18229-0.10892 0.39496-0.45265-0.13979-0.30333-0.60067 0.0063-0.2012 0.06787-0.27004 0.17211-0.38203-0.47883 0.2277-0.22511 0.1107-0.18116 0.13946-0.58435-0.2647-0.20346-0.52892 0.28474-0.14674 0.15352-0.15902 0.27779-0.56092-0.24628 0.09712-0.30527 0.01374-0.21186-0.14803-0.58209zm-0.49062 1.4864a2.4322 2.4468 0 0 1 0.4436 0.04137l-0.47479 1.7718a0.63573 0.63573 0 0 0-0.50194 0.28991l-1.7582-0.47107a2.4322 2.4468 0 0 1 2.2914-1.632zm0.81803 0.14383a2.4322 2.4468 0 0 1 1.6142 2.303 2.4322 2.4468 0 0 1-0.04024 0.44004l-1.7569-0.47075a0.63573 0.63573 0 0 0-0.29105-0.50355zm-3.2093 1.8633 1.7576 0.47091a0.63573 0.63573 0 0 0 0.28991 0.50194l-0.4743 1.7699a2.4322 2.4468 0 0 1-1.6142-2.303 2.4322 2.4468 0 0 1 0.04105-0.43972zm2.4085 0.10229a0.33782 0.33782 0 0 1 0.32013 0.35472 0.33782 0.33782 0 0 1-0.35472 0.32013 0.33782 0.33782 0 0 1-0.32013-0.35472 0.33782 0.33782 0 0 1 0.35472-0.32013zm0.51583 0.68115 1.759 0.47139a2.4322 2.4468 0 0 1-2.2922 1.6317 2.4322 2.4468 0 0 1-0.44327-0.04282l0.4743-1.7704a0.63573 0.63573 0 0 0 0.5021-0.28991z" opacity=".7"/>
   <path d="m13.584 4.7771-0.25711 0.52197-0.09228 0.39786 0.0019 0.1296-0.57918 0.036522-0.01438-0.12896-0.1414-0.383-0.32046-0.48578-0.37249 0.071104-0.11926 0.56948 0.0097 0.40821 0.0341 0.12524-0.552 0.17922-0.04589-0.1212-0.23222-0.33581-0.43132-0.39075-0.34292 0.16128 0.02618 0.58144 0.1107 0.39302 0.06416 0.11264-0.48999 0.31108-0.07466-0.10601-0.3085-0.26761-0.51486-0.27133-0.29201 0.24176 0.16984 0.55656 0.20507 0.3531 0.09017 0.093245-0.39738 0.42307-0.09858-0.084195-0.36538-0.18245-0.56609-0.13461-0.22285 0.30672 0.303 0.49693 0.28636 0.29088 0.11054 0.067873-0.27957 0.50856-0.11652-0.056884-0.39916-0.085972-0.58193 0.010504-0.13946 0.35245 0.41693 0.40594 0.34987 0.21057 0.12395 0.03814-0.14431 0.56221-0.12702-0.02618-0.40804 0.01616-0.56108 0.15465-0.04751 0.37621 0.50501 0.28943 0.39108 0.117 0.1296 0.0061v0.58047l-0.1296 0.0061-0.39108 0.117-0.50501 0.28959 0.04751 0.37605 0.56108 0.15482 0.40804 0.016 0.12702-0.02618 0.14431 0.56221-0.12395 0.03814-0.34987 0.21073-0.41693 0.40578 0.13946 0.35262 0.58193 0.01034 0.39916-0.08597 0.11652-0.05688 0.27957 0.50856-0.11054 0.06787-0.28636 0.29104-0.303 0.49676 0.22285 0.30672 0.56609-0.13461 0.36538-0.18245 0.09858-0.0842 0.39738 0.42307-0.09017 0.09324-0.20507 0.3531-0.16984 0.55656 0.29201 0.24176 0.51486-0.27133 0.3085-0.26745 0.07466-0.10617 0.48998 0.31108-0.06416 0.11264-0.1107 0.39302-0.02618 0.58144 0.34292 0.16144 0.43132-0.39075 0.23222-0.33597 0.04589-0.1212 0.55203 0.17938-0.0341 0.12508-0.0097 0.40821 0.11926 0.56965 0.37249 0.07094 0.32046-0.48562 0.1414-0.38316 0.01438-0.1288 0.57918 0.03636-0.0019 0.1296 0.09227 0.39786 0.25711 0.52214 0.37847-0.02392 0.18972-0.55009 0.04153-0.40627-0.0181-0.12831 0.57013-0.10876 0.03038 0.12605 0.18827 0.36231 0.3788 0.44166 0.36053-0.11716 0.04703-0.57999-0.06076-0.40384-0.04945-0.11975 0.52521-0.24725 0.06076 0.11458 0.2723 0.30414 0.47689 0.33371 0.32013-0.20313-0.09874-0.57369-0.15934-0.37589-0.07773-0.10375 0.44731-0.37007 0.08726 0.09583 0.33953 0.22689 0.54492 0.20459 0.25953-0.27634-0.23836-0.53102-0.24774-0.3245-0.10116-0.08129 0.34114-0.46945 0.10844 0.07111 0.38526 0.13526 0.5787 0.06254 0.18261-0.33225-0.36296-0.45491-0.32062-0.25274-0.11813-0.05349 0.21364-0.53975 0.12266 0.04202 0.40692 0.03523 0.57595-0.08322 0.09421-0.36731-0.4646-0.35035-0.37346-0.16516-0.12766-0.02246 0.07272-0.57579 0.12928 0.01002 0.40271-0.06707 0.53733-0.22382v-0.37912l-0.53733-0.22382-0.40271-0.06707-0.12928 0.01002-0.07272-0.57579 0.12766-0.02246 0.37346-0.165 0.4646-0.35051-0.09422-0.36716-0.57595-0.083224-0.40692 0.035229-0.12266 0.041855-0.21364-0.53975 0.11813-0.053328 0.32062-0.25291 0.36296-0.45491-0.18261-0.33225-0.5787 0.062702-0.38526 0.13526-0.10844 0.071105-0.34114-0.46962 0.10116-0.081124 0.24774-0.32466 0.23836-0.53086-0.25953-0.27634-0.54492 0.20443-0.33953 0.22689-0.08726 0.09583-0.44731-0.36991 0.07773-0.10375 0.15934-0.37605 0.09874-0.57353-0.32013-0.20313-0.47689 0.33355-0.2723 0.30414-0.06076 0.11458-0.52521-0.24709 0.04945-0.11991 0.06076-0.40368-0.04703-0.58015-0.36053-0.11716-0.3788 0.44166-0.18827 0.36247-0.03038 0.12605-0.57013-0.10876 0.0181-0.12847-0.04153-0.40611-0.18972-0.55025zm-0.24095 1.9299a5.144 5.1765 0 0 1 4.8237 3.3843l-3.914 1.0488a1.175 1.175 0 0 0-0.72042-0.41596l-1.0559-3.9407a5.144 5.1765 0 0 1 0.86667-0.076438zm-1.7983 0.33048 1.0553 3.9384a1.175 1.175 0 0 0-0.41516 0.71816l-3.9111 1.048a5.144 5.1765 0 0 1-0.07466-0.85859 5.144 5.1765 0 0 1 3.3456-4.846zm6.8676 3.9875a5.144 5.1765 0 0 1 0.07466 0.85843 5.144 5.1765 0 0 1-3.345 4.8485l-1.0559-3.9408a1.175 1.175 0 0 0 0.41516-0.71816zm-5.0693 0.18051a0.67799 0.67799 0 0 1 0.67792 0.67808 0.67799 0.67799 0 0 1-0.67792 0.67792 0.67799 0.67799 0 0 1-0.67792-0.67792 0.67799 0.67799 0 0 1 0.67792-0.67808zm-0.90788 1.421a1.175 1.175 0 0 0 0.71832 0.41516l1.0567 3.9436a5.144 5.1765 0 0 1-0.86716 0.07482 5.144 5.1765 0 0 1-4.8235-3.3843z" opacity=".7"/>
   <g transform="translate(-28.942,5.1878)">
    <path d="m42.525-0.41072-0.25711 0.52197-0.09228 0.39786 0.0019 0.1296-0.57918 0.036522-0.01438-0.12896-0.1414-0.383-0.32046-0.48578-0.37249 0.071104-0.11926 0.56949 0.0097 0.40821 0.0341 0.12524-0.552 0.17922-0.04589-0.1212-0.23222-0.33581-0.43132-0.39075-0.34292 0.16128 0.02618 0.58144 0.1107 0.39302 0.06416 0.11264-0.48998 0.31108-0.07466-0.10601-0.3085-0.26761-0.51486-0.27133-0.29201 0.24176 0.16984 0.55656 0.20507 0.3531 0.09017 0.093245-0.39738 0.42307-0.09858-0.084195-0.36538-0.18245-0.56609-0.13461-0.22285 0.30672 0.303 0.49693 0.28636 0.29088 0.11054 0.067873-0.27957 0.50856-0.11652-0.056884-0.39916-0.085972-0.58193 0.010504-0.13946 0.35245 0.41693 0.40594 0.34987 0.21057 0.12395 0.038137-0.14431 0.56221-0.12702-0.02618-0.40804 0.01616-0.56108 0.15465-0.04751 0.37621 0.50501 0.28943 0.39108 0.117 0.1296 0.00614v0.58047l-0.1296 0.00614-0.39108 0.117-0.50501 0.28959 0.04751 0.37605 0.56108 0.15482 0.40804 0.015999 0.12702-0.02618 0.14431 0.56221-0.12395 0.038138-0.34987 0.21073-0.41693 0.40578 0.13946 0.35262 0.58193 0.010343 0.39916-0.085972 0.11652-0.056884 0.27957 0.50856-0.11054 0.067873-0.28636 0.29104-0.303 0.49676 0.22285 0.30672 0.56609-0.13461 0.36538-0.18245 0.09858-0.0842 0.39738 0.42307-0.09017 0.09324-0.20507 0.3531-0.16984 0.55656 0.29201 0.24176 0.51486-0.27133 0.3085-0.26745 0.07466-0.10617 0.48998 0.31108-0.06416 0.11264-0.1107 0.39302-0.02618 0.58144 0.34292 0.16144 0.43132-0.39075 0.23222-0.33597 0.04589-0.1212 0.55203 0.17938-0.0341 0.12508-0.0097 0.40821 0.11926 0.56965 0.37249 0.07094 0.32046-0.48561 0.1414-0.38316 0.01438-0.1288 0.57918 0.03636-0.0019 0.1296 0.09227 0.39786 0.25711 0.52214 0.37847-0.02392 0.18972-0.55009 0.04153-0.40627-0.0181-0.12831 0.57013-0.10876 0.03038 0.12605 0.18827 0.36231 0.3788 0.44166 0.36053-0.11716 0.04703-0.57999-0.06076-0.40384-0.04945-0.11975 0.52521-0.24725 0.06076 0.11458 0.2723 0.30414 0.47689 0.33371 0.32013-0.20313-0.09874-0.57369-0.15934-0.37589-0.07773-0.10375 0.44731-0.37007 0.08726 0.09583 0.33953 0.22689 0.54492 0.20459 0.25953-0.27634-0.23836-0.53102-0.24774-0.3245-0.10116-0.08129 0.34114-0.46945 0.10844 0.07111 0.38526 0.13526 0.5787 0.06254 0.18261-0.33225-0.36296-0.45491-0.32062-0.25275-0.11813-0.05349 0.21364-0.53975 0.12266 0.042016 0.40692 0.03523 0.57595-0.083225 0.09421-0.36731-0.4646-0.35035-0.37346-0.16516-0.12766-0.022462 0.07272-0.57579 0.12928 0.010019 0.40271-0.067065 0.53733-0.22382v-0.37912l-0.53733-0.22382-0.40271-0.067065-0.12928 0.010019-0.07272-0.57579 0.12766-0.022463 0.37346-0.165 0.4646-0.35051-0.09421-0.36716-0.57595-0.083224-0.40692 0.035229-0.12266 0.041855-0.21364-0.53975 0.11813-0.053328 0.32062-0.25291 0.36296-0.45491-0.18261-0.33225-0.5787 0.062702-0.38526 0.13526-0.10844 0.071105-0.34114-0.46962 0.10116-0.081124 0.24774-0.32466 0.23836-0.53086-0.25953-0.27634-0.54492 0.20443-0.33953 0.22689-0.08726 0.09583-0.44731-0.36991 0.07773-0.10375 0.15934-0.37605 0.09874-0.57353-0.32013-0.20313-0.47689 0.33355-0.2723 0.30414-0.06076 0.11458-0.52521-0.24709 0.04945-0.11991 0.06076-0.40368-0.04703-0.58015-0.36053-0.11716-0.3788 0.44166-0.18827 0.36247-0.03038 0.12605-0.57013-0.10876 0.0181-0.12847-0.04153-0.40611-0.18972-0.55025zm-0.24095 1.9299a5.144 5.1765 0 0 1 4.8237 3.3843l-3.914 1.0488a1.175 1.175 0 0 0-0.72042-0.41596l-1.0559-3.9407a5.144 5.1765 0 0 1 0.86667-0.076438zm-1.7983 0.33048 1.0553 3.9384a1.175 1.175 0 0 0-0.41516 0.71816l-3.9111 1.048a5.144 5.1765 0 0 1-0.07466-0.85859 5.144 5.1765 0 0 1 3.3456-4.846zm6.8676 3.9875a5.144 5.1765 0 0 1 0.07466 0.85843 5.144 5.1765 0 0 1-3.345 4.8485l-1.0559-3.9408a1.175 1.175 0 0 0 0.41516-0.71816zm-5.0693 0.18051a0.67799 0.67799 0 0 1 0.67792 0.67808 0.67799 0.67799 0 0 1-0.67792 0.67792 0.67799 0.67799 0 0 1-0.67792-0.67792 0.67799 0.67799 0 0 1 0.67792-0.67808zm-0.90788 1.421a1.175 1.175 0 0 0 0.71832 0.41516l1.0567 3.9436a5.144 5.1765 0 0 1-0.86716 0.07482 5.144 5.1765 0 0 1-4.8235-3.3843z" opacity=".7"/>
    <path d="m49.862 10.213-0.3657 0.01471-0.20847 0.54896-0.03572 0.32466 0.02796 0.20717-0.5913 0.11813-0.05398-0.202-0.15756-0.2862-0.40336-0.42663-0.34324 0.12686-0.0286 0.58645 0.06642 0.31981 0.0905 0.18843-0.52585 0.29508-0.11361-0.1755-0.23836-0.22333-0.51535-0.28119-0.28733 0.22673 0.15401 0.56658 0.16209 0.28361 0.14431 0.15142-0.40902 0.44295-0.16241-0.13171-0.29557-0.13882-0.57708-0.10811-0.20313 0.30446 0.32143 0.49127 0.24176 0.21962 0.18406 0.09922-0.25194 0.54783-0.19522-0.07514-0.32401-0.04072-0.58225 0.07547-0.09922 0.35229 0.45766 0.36797 0.29783 0.13413 0.20572 0.03765-0.07046 0.59874-0.20879-0.01115-0.32078 0.06157-0.53054 0.25161 0.01471 0.3657 0.5488 0.20847 0.32482 0.03571 0.20717-0.0278 0.11813 0.59114-0.202 0.05397-0.2862 0.15756-0.42663 0.40336 0.12686 0.34324 0.58645 0.0286 0.31981-0.06642 0.18843-0.0905 0.29508 0.52585-0.1755 0.11361-0.2235 0.23836-0.28103 0.51535 0.22673 0.28733 0.56658-0.15401 0.28361-0.16192 0.15126-0.14431 0.44311 0.40885-0.13171 0.16241-0.13882 0.29557-0.10827 0.57708 0.30446 0.20313 0.49127-0.32143 0.21978-0.24176 0.09922-0.18406 0.54783 0.25194-0.07514 0.19522-0.04072 0.32401 0.07547 0.58241 0.35229 0.09906 0.36797-0.45766 0.13413-0.29783 0.03765-0.20556 0.59874 0.0703-0.01115 0.20879 0.06157 0.32078 0.25161 0.53054 0.3657-0.0147 0.20847-0.5488 0.03571-0.32482-0.02796-0.20717 0.5913-0.11813 0.05398 0.20216 0.15756 0.28604 0.40336 0.42663 0.34324-0.12686 0.0286-0.58645-0.06642-0.31981-0.0905-0.18843 0.52585-0.29509 0.11361 0.1755 0.23836 0.2235 0.51535 0.28102 0.28733-0.22673-0.15401-0.56658-0.16209-0.28361-0.14431-0.15126 0.40902-0.44311 0.16225 0.1317 0.29573 0.13882 0.57708 0.10827 0.20313-0.30446-0.32159-0.49127-0.24176-0.21978-0.1839-0.09922 0.25194-0.54783 0.19522 0.07514 0.32401 0.04072 0.58225-0.07547 0.09906-0.35229-0.4575-0.36797-0.29783-0.13413-0.20572-0.03765 0.07046-0.59874 0.20879 0.01115 0.32078-0.06141 0.53054-0.25178-0.01471-0.3657-0.54896-0.20847-0.32466-0.03555-0.20717 0.0278-0.11813-0.5913 0.202-0.05398 0.2862-0.15756 0.42663-0.40336-0.12686-0.34324-0.58645-0.0286-0.31981 0.06642-0.18843 0.0905-0.29508-0.52585 0.1755-0.11361 0.22333-0.23836 0.28119-0.51535-0.22673-0.28733-0.56658 0.15401-0.28361 0.16209-0.15126 0.14431-0.44311-0.40901 0.13171-0.16225 0.13882-0.29573 0.10811-0.57708-0.3043-0.20313-0.49143 0.32159-0.21962 0.24176-0.09922 0.1839-0.54783-0.25194 0.07514-0.19522 0.04072-0.32401-0.07547-0.58225-0.35229-0.09906-0.36797 0.4575-0.13413 0.29783-0.03765 0.20572-0.59874-0.07046 0.01115-0.20879-0.06157-0.32078zm-0.11716 1.6474a4.15 4.15 0 0 1 2.8242 0.97414l-2.3048 2.3048a0.94948 0.93549 7.9185e-6 0 0-0.3914-0.06707 0.94948 0.93549 7.9185e-6 0 0-0.31399 0.06836l-2.3059-2.3059a4.15 4.15 0 0 1 2.4919-0.9743zm-3.0064 1.4885 2.2972 2.2972a0.94948 0.93549 7.9185e-6 0 0-0.07337 0.39835 0.94948 0.93549 7.9185e-6 0 0 0.07482 0.32224l-2.2985 2.2983a4.15 4.15 0 0 1-0.9743-2.4919 4.15 4.15 0 0 1 0.97414-2.8242zm6.3448 1.65e-4a4.15 4.15 0 0 1 0.9743 2.4919 4.15 4.15 0 0 1-0.96735 2.8309l-2.3036-2.3036a0.94948 0.93549 7.9185e-6 0 0 0.07304-0.39867 0.94948 0.93549 7.9185e-6 0 0-0.07466-0.32207zm-3.191 2.1926a0.46565 0.46565 0 0 1 0.484 0.44667 0.46565 0.46565 0 0 1-0.44667 0.484 0.46565 0.46565 0 0 1-0.484-0.44667 0.46565 0.46565 0 0 1 0.44667-0.484zm-0.33484 1.3331a0.94948 0.93549 7.9185e-6 0 0 0.39156 0.06706 0.94948 0.93549 7.9185e-6 0 0 0.31577-0.06658l2.3111 2.3111a4.15 4.15 0 0 1-2.4989 0.96735 4.15 4.15 0 0 1-2.8242-0.97414z" opacity=".5"/>
    <path d="m41.772 12.924-0.33597 0.49806-0.05866 0.2041-0.01163 0.31997-0.61118 0.0425-0.05575-0.31545-0.0863-0.19392-0.40158-0.44667-0.31803 0.10213-0.06609 0.59712 0.04299 0.20798 0.13833 0.28878-0.52133 0.32159-0.19602-0.25323-0.16645-0.13187-0.56334-0.20879-0.234 0.23836 0.21897 0.5593 0.13462 0.16419 0.25678 0.19134-0.31222 0.52715-0.29121-0.13316-0.20863-0.03927-0.59583 0.07676-0.09648 0.31981 0.45378 0.3935 0.19554 0.08274 0.31625 0.05026-0.03135 0.61182-0.31981 0.01729-0.20313 0.06222-0.49176 0.34502 0.06319 0.32789 0.58468 0.13768 0.21154-0.01778 0.30349-0.10246 0.25646 0.5564-0.27505 0.16403-0.15094 0.14932-0.27521 0.53393 0.2083 0.26115 0.58177-0.14997 0.17906-0.11393 0.22107-0.23174 0.48561 0.37346-0.16726 0.27311-0.06416 0.20232 0.0044 0.60068 0.30575 0.13445 0.44554-0.4032 0.10569-0.18406 0.08791-0.30801 0.60358 0.10504-0.02133 0.31949 0.03733 0.20911 0.28313 0.52989 0.33306-0.02327 0.20717-0.56383 0.0079-0.21218-0.06513-0.31351 0.58322-0.18762 0.1296 0.29282 0.13009 0.1679 0.49693 0.33759 0.28426-0.17534-0.0787-0.59566-0.09147-0.1915-0.20346-0.24741 0.42922-0.43697 0.25097 0.19893 0.19311 0.08807 0.59696 0.06803 0.17017-0.28733-0.34647-0.49078-0.17001-0.12718-0.29508-0.12443 0.17696-0.58645 0.31464 0.05963 0.21202-0.0118 0.56011-0.21719 0.01713-0.33355-0.53474-0.27359-0.20976-0.03345-0.319 0.02699-0.11587-0.60148 0.30624-0.09357 0.18229-0.10892 0.39496-0.45265-0.13979-0.30333-0.60067 0.0063-0.2012 0.06787-0.27004 0.17211-0.38203-0.47883 0.2277-0.22511 0.1107-0.18116 0.13946-0.58435-0.2647-0.20346-0.52892 0.28474-0.14674 0.15352-0.15902 0.27779-0.56092-0.24628 0.09712-0.30527 0.01374-0.21186-0.14803-0.58209zm-0.49062 1.4864a2.4322 2.4468 0 0 1 0.4436 0.04137l-0.47479 1.7718a0.63573 0.63573 0 0 0-0.50194 0.28991l-1.7582-0.47107a2.4322 2.4468 0 0 1 2.2914-1.632zm0.81803 0.14383a2.4322 2.4468 0 0 1 1.6142 2.303 2.4322 2.4468 0 0 1-0.04024 0.44004l-1.7569-0.47075a0.63573 0.63573 0 0 0-0.29105-0.50355zm-3.2093 1.8633 1.7576 0.47091a0.63573 0.63573 0 0 0 0.28991 0.50194l-0.4743 1.7699a2.4322 2.4468 0 0 1-1.6142-2.303 2.4322 2.4468 0 0 1 0.04105-0.43972zm2.4085 0.10229a0.33782 0.33782 0 0 1 0.32013 0.35472 0.33782 0.33782 0 0 1-0.35472 0.32013 0.33782 0.33782 0 0 1-0.32013-0.35472 0.33782 0.33782 0 0 1 0.35472-0.32013zm0.51583 0.68115 1.759 0.47139a2.4322 2.4468 0 0 1-2.2922 1.6317 2.4322 2.4468 0 0 1-0.44327-0.04282l0.4743-1.7703a0.63573 0.63573 0 0 0 0.5021-0.28991z" opacity=".5"/>
   </g>
  </g>
  <g transform="translate(-.50667 .117)">
   <g fill="#4c566a">
    <path d="m20.92 15.401-0.3657 0.01471-0.20847 0.54896-0.03572 0.32466 0.02796 0.20718-0.5913 0.11813-0.05398-0.202-0.15756-0.2862-0.40336-0.42663-0.34324 0.12686-0.0286 0.58645 0.06642 0.31981 0.0905 0.18843-0.52585 0.29508-0.11361-0.1755-0.23836-0.22333-0.51535-0.28119-0.28733 0.22673 0.15401 0.56658 0.16209 0.28361 0.14431 0.15142-0.40902 0.44295-0.16241-0.1317-0.29557-0.13882-0.57708-0.10811-0.20313 0.30446 0.32143 0.49127 0.24176 0.21962 0.18406 0.09922-0.25194 0.54783-0.19522-0.07514-0.32401-0.04072-0.58225 0.07547-0.09922 0.35229 0.45766 0.36797 0.29783 0.13413 0.20572 0.03765-0.07046 0.59873-0.20879-0.01115-0.32078 0.06157-0.53054 0.25161 0.01471 0.3657 0.5488 0.20847 0.32482 0.03571 0.20717-0.0278 0.11813 0.59114-0.202 0.05397-0.2862 0.15756-0.42663 0.40336 0.12686 0.34324 0.58645 0.0286 0.31981-0.06642 0.18843-0.0905 0.29508 0.52585-0.1755 0.11361-0.2235 0.23836-0.28103 0.51535 0.22673 0.28733 0.56658-0.15401 0.28361-0.16192 0.15126-0.14431 0.44311 0.40885-0.13171 0.16241-0.13882 0.29557-0.10827 0.57708 0.30446 0.20313 0.49127-0.32143 0.21978-0.24176 0.09922-0.18406 0.54783 0.25194-0.07514 0.19522-0.04072 0.32401 0.07547 0.58241 0.35229 0.09906 0.36797-0.45766 0.13413-0.29783 0.03765-0.20556 0.59874 0.0703-0.01115 0.20879 0.06157 0.32078 0.25161 0.53054 0.3657-0.0147 0.20847-0.5488 0.03571-0.32482-0.02796-0.20717 0.5913-0.11813 0.05398 0.20216 0.15756 0.28604 0.40336 0.42663 0.34324-0.12686 0.0286-0.58645-0.06642-0.31981-0.0905-0.18843 0.52585-0.29509 0.11361 0.1755 0.23836 0.2235 0.51535 0.28102 0.28733-0.22673-0.15401-0.56658-0.16209-0.28361-0.14431-0.15126 0.40902-0.44311 0.16225 0.1317 0.29573 0.13882 0.57708 0.10827 0.20313-0.30446-0.32159-0.49127-0.24176-0.21978-0.1839-0.09922 0.25194-0.54783 0.19522 0.07514 0.32401 0.04072 0.58225-0.07547 0.09906-0.35229-0.4575-0.36797-0.29783-0.13413-0.20572-0.03765 0.07046-0.59874 0.20879 0.01115 0.32078-0.06141 0.53054-0.25178-0.01471-0.3657-0.54896-0.20847-0.32466-0.03555-0.20717 0.0278-0.11813-0.5913 0.202-0.05398 0.2862-0.15756 0.42663-0.40336-0.12686-0.34324-0.58645-0.0286-0.31981 0.06642-0.18843 0.0905-0.29508-0.52585 0.1755-0.11361 0.22333-0.23836 0.28119-0.51535-0.22673-0.28733-0.56658 0.15401-0.28361 0.16209-0.15126 0.14431-0.44311-0.40902 0.13171-0.16225 0.13882-0.29573 0.10811-0.57708-0.3043-0.20313-0.49143 0.32159-0.21962 0.24176-0.09922 0.1839-0.54783-0.25194 0.07514-0.19522 0.04072-0.32401-0.07547-0.58225-0.35229-0.09906-0.36797 0.4575-0.13413 0.29783-0.03765 0.20572-0.59874-0.07046 0.01115-0.20879-0.06157-0.32078zm-0.11716 1.6474a4.15 4.15 0 0 1 2.8242 0.97414l-2.3048 2.3048a0.94948 0.93549 7.9185e-6 0 0-0.3914-0.06707 0.94948 0.93549 7.9185e-6 0 0-0.31399 0.06836l-2.3059-2.3059a4.15 4.15 0 0 1 2.4919-0.9743zm-3.0064 1.4885 2.2972 2.2972a0.94948 0.93549 7.9185e-6 0 0-0.07337 0.39835 0.94948 0.93549 7.9185e-6 0 0 0.07482 0.32224l-2.2985 2.2983a4.15 4.15 0 0 1-0.9743-2.4919 4.15 4.15 0 0 1 0.97414-2.8242zm6.3448 1.65e-4a4.15 4.15 0 0 1 0.9743 2.4919 4.15 4.15 0 0 1-0.96735 2.8309l-2.3036-2.3036a0.94948 0.93549 7.9185e-6 0 0 0.07304-0.39867 0.94948 0.93549 7.9185e-6 0 0-0.07466-0.32207zm-3.191 2.1926a0.46565 0.46565 0 0 1 0.484 0.44667 0.46565 0.46565 0 0 1-0.44667 0.484 0.46565 0.46565 0 0 1-0.484-0.44667 0.46565 0.46565 0 0 1 0.44667-0.484zm-0.33484 1.3331a0.94948 0.93549 7.9185e-6 0 0 0.39156 0.06706 0.94948 0.93549 7.9185e-6 0 0 0.31577-0.06658l2.3111 2.3111a4.15 4.15 0 0 1-2.4989 0.96735 4.15 4.15 0 0 1-2.8242-0.97414z" opacity=".7"/>
    <path d="m12.831 18.111-0.33597 0.49806-0.05866 0.2041-0.01163 0.31997-0.61118 0.0425-0.05575-0.31545-0.0863-0.19392-0.40158-0.44667-0.31803 0.10213-0.06609 0.59712 0.04299 0.20798 0.13833 0.28878-0.52133 0.32159-0.19602-0.25323-0.16645-0.13187-0.56334-0.20879-0.234 0.23836 0.21897 0.5593 0.13462 0.16419 0.25678 0.19134-0.31222 0.52715-0.29121-0.13316-0.20863-0.03927-0.59583 0.07676-0.09648 0.31981 0.45378 0.3935 0.19554 0.08274 0.31625 0.05026-0.03135 0.61182-0.31981 0.01729-0.20313 0.06222-0.49176 0.34502 0.06319 0.32789 0.58468 0.13769 0.21154-0.01778 0.30349-0.10246 0.25646 0.5564-0.27505 0.16403-0.15094 0.14932-0.27521 0.53393 0.2083 0.26115 0.58177-0.14997 0.17906-0.11393 0.22107-0.23174 0.48561 0.37346-0.16726 0.27311-0.06416 0.20232 0.0044 0.60068 0.30575 0.13445 0.44554-0.4032 0.10569-0.18406 0.08791-0.30801 0.60358 0.10504-0.02133 0.31949 0.03733 0.20911 0.28313 0.52989 0.33306-0.02327 0.20717-0.56383 0.0079-0.21218-0.06513-0.31351 0.58322-0.18762 0.1296 0.29282 0.13009 0.1679 0.49693 0.33759 0.28426-0.17534-0.0787-0.59566-0.09147-0.1915-0.20346-0.24741 0.42922-0.43697 0.25097 0.19893 0.19311 0.08807 0.59696 0.06803 0.17017-0.28733-0.34647-0.49079-0.17001-0.12718-0.29508-0.12443 0.17696-0.58645 0.31464 0.05963 0.21202-0.0118 0.56011-0.21719 0.01713-0.33355-0.53474-0.27359-0.20976-0.03345-0.319 0.02699-0.11587-0.60148 0.30624-0.09357 0.18229-0.10892 0.39496-0.45265-0.13979-0.30333-0.60067 0.0063-0.2012 0.06787-0.27004 0.17211-0.38203-0.47883 0.2277-0.22511 0.1107-0.18116 0.13946-0.58435-0.2647-0.20346-0.52892 0.28474-0.14674 0.15352-0.15902 0.27779-0.56092-0.24628 0.09712-0.30527 0.01374-0.21186-0.14803-0.58209zm-0.49062 1.4864a2.4322 2.4468 0 0 1 0.4436 0.04137l-0.47479 1.7718a0.63573 0.63573 0 0 0-0.50194 0.28991l-1.7582-0.47107a2.4322 2.4468 0 0 1 2.2914-1.632zm0.81803 0.14383a2.4322 2.4468 0 0 1 1.6142 2.303 2.4322 2.4468 0 0 1-0.04024 0.44004l-1.7569-0.47075a0.63573 0.63573 0 0 0-0.29105-0.50355zm-3.2093 1.8633 1.7576 0.47091a0.63573 0.63573 0 0 0 0.28991 0.50194l-0.4743 1.7699a2.4322 2.4468 0 0 1-1.6142-2.303 2.4322 2.4468 0 0 1 0.04105-0.43972zm2.4085 0.10229a0.33782 0.33782 0 0 1 0.32013 0.35472 0.33782 0.33782 0 0 1-0.35472 0.32013 0.33782 0.33782 0 0 1-0.32013-0.35472 0.33782 0.33782 0 0 1 0.35472-0.32013zm0.51583 0.68115 1.759 0.47139a2.4322 2.4468 0 0 1-2.2922 1.6317 2.4322 2.4468 0 0 1-0.44327-0.04282l0.4743-1.7704a0.63573 0.63573 0 0 0 0.5021-0.28991z" opacity=".7"/>
    <path d="m13.584 4.7771-0.25711 0.52197-0.09228 0.39786 0.0019 0.1296-0.57918 0.036522-0.01438-0.12896-0.1414-0.383-0.32046-0.48578-0.37249 0.071104-0.11926 0.56948 0.0097 0.40821 0.0341 0.12524-0.552 0.17922-0.04589-0.1212-0.23222-0.33581-0.43132-0.39075-0.34292 0.16128 0.02618 0.58144 0.1107 0.39302 0.06416 0.11264-0.48999 0.31108-0.07466-0.10601-0.3085-0.26761-0.51486-0.27133-0.29201 0.24176 0.16984 0.55656 0.20507 0.3531 0.09017 0.093245-0.39738 0.42307-0.09858-0.084195-0.36538-0.18245-0.56609-0.13461-0.22285 0.30672 0.303 0.49693 0.28636 0.29088 0.11054 0.067873-0.27957 0.50856-0.11652-0.056884-0.39916-0.085972-0.58193 0.010504-0.13946 0.35245 0.41693 0.40594 0.34987 0.21057 0.12395 0.03814-0.14431 0.56221-0.12702-0.02618-0.40804 0.01616-0.56108 0.15465-0.04751 0.37621 0.50501 0.28943 0.39108 0.117 0.1296 0.0061v0.58047l-0.1296 0.0061-0.39108 0.117-0.50501 0.28959 0.04751 0.37605 0.56108 0.15482 0.40804 0.016 0.12702-0.02618 0.14431 0.56221-0.12395 0.03814-0.34987 0.21073-0.41693 0.40578 0.13946 0.35262 0.58193 0.01034 0.39916-0.08597 0.11652-0.05688 0.27957 0.50856-0.11054 0.06787-0.28636 0.29104-0.303 0.49676 0.22285 0.30672 0.56609-0.13461 0.36538-0.18245 0.09858-0.0842 0.39738 0.42307-0.09017 0.09324-0.20507 0.3531-0.16984 0.55656 0.29201 0.24176 0.51486-0.27133 0.3085-0.26745 0.07466-0.10617 0.48998 0.31108-0.06416 0.11264-0.1107 0.39302-0.02618 0.58144 0.34292 0.16144 0.43132-0.39075 0.23222-0.33597 0.04589-0.1212 0.55203 0.17938-0.0341 0.12508-0.0097 0.40821 0.11926 0.56965 0.37249 0.07094 0.32046-0.48562 0.1414-0.38316 0.01438-0.1288 0.57918 0.03636-0.0019 0.1296 0.09227 0.39786 0.25711 0.52214 0.37847-0.02392 0.18972-0.55009 0.04153-0.40627-0.0181-0.12831 0.57013-0.10876 0.03038 0.12605 0.18827 0.36231 0.3788 0.44166 0.36053-0.11716 0.04703-0.57999-0.06076-0.40384-0.04945-0.11975 0.52521-0.24725 0.06076 0.11458 0.2723 0.30414 0.47689 0.33371 0.32013-0.20313-0.09874-0.57369-0.15934-0.37589-0.07773-0.10375 0.44731-0.37007 0.08726 0.09583 0.33953 0.22689 0.54492 0.20459 0.25953-0.27634-0.23836-0.53102-0.24774-0.3245-0.10116-0.08129 0.34114-0.46945 0.10844 0.07111 0.38526 0.13526 0.5787 0.06254 0.18261-0.33225-0.36296-0.45491-0.32062-0.25274-0.11813-0.05349 0.21364-0.53975 0.12266 0.04202 0.40692 0.03523 0.57595-0.08322 0.09421-0.36731-0.4646-0.35035-0.37346-0.16516-0.12766-0.02246 0.07272-0.57579 0.12928 0.01002 0.40271-0.06707 0.53733-0.22382v-0.37912l-0.53733-0.22382-0.40271-0.06707-0.12928 0.01002-0.07272-0.57579 0.12766-0.02246 0.37346-0.165 0.4646-0.35051-0.09422-0.36716-0.57595-0.083224-0.40692 0.035229-0.12266 0.041855-0.21364-0.53975 0.11813-0.053328 0.32062-0.25291 0.36296-0.45491-0.18261-0.33225-0.5787 0.062702-0.38526 0.13526-0.10844 0.071105-0.34114-0.46962 0.10116-0.081124 0.24774-0.32466 0.23836-0.53086-0.25953-0.27634-0.54492 0.20443-0.33953 0.22689-0.08726 0.09583-0.44731-0.36991 0.07773-0.10375 0.15934-0.37605 0.09874-0.57353-0.32013-0.20313-0.47689 0.33355-0.2723 0.30414-0.06076 0.11458-0.52521-0.24709 0.04945-0.11991 0.06076-0.40368-0.04703-0.58015-0.36053-0.11716-0.3788 0.44166-0.18827 0.36247-0.03038 0.12605-0.57013-0.10876 0.0181-0.12847-0.04153-0.40611-0.18972-0.55025zm-0.24095 1.9299a5.144 5.1765 0 0 1 4.8237 3.3843l-3.914 1.0488a1.175 1.175 0 0 0-0.72042-0.41596l-1.0559-3.9407a5.144 5.1765 0 0 1 0.86667-0.076438zm-1.7983 0.33048 1.0553 3.9384a1.175 1.175 0 0 0-0.41516 0.71816l-3.9111 1.048a5.144 5.1765 0 0 1-0.07466-0.85859 5.144 5.1765 0 0 1 3.3456-4.846zm6.8676 3.9875a5.144 5.1765 0 0 1 0.07466 0.85843 5.144 5.1765 0 0 1-3.345 4.8485l-1.0559-3.9408a1.175 1.175 0 0 0 0.41516-0.71816zm-5.0693 0.18051a0.67799 0.67799 0 0 1 0.67792 0.67808 0.67799 0.67799 0 0 1-0.67792 0.67792 0.67799 0.67799 0 0 1-0.67792-0.67792 0.67799 0.67799 0 0 1 0.67792-0.67808zm-0.90788 1.421a1.175 1.175 0 0 0 0.71832 0.41516l1.0567 3.9436a5.144 5.1765 0 0 1-0.86716 0.07482 5.144 5.1765 0 0 1-4.8235-3.3843z" opacity=".7"/>
   </g>
   <g transform="translate(-28.942,5.1878)">
    <path d="m42.525-0.41072-0.25711 0.52197-0.09228 0.39786 0.0019 0.1296-0.57918 0.036522-0.01438-0.12896-0.1414-0.383-0.32046-0.48578-0.37249 0.071104-0.11926 0.56949 0.0097 0.40821 0.0341 0.12524-0.552 0.17922-0.04589-0.1212-0.23222-0.33581-0.43132-0.39075-0.34292 0.16128 0.02618 0.58144 0.1107 0.39302 0.06416 0.11264-0.48998 0.31108-0.07466-0.10601-0.3085-0.26761-0.51486-0.27133-0.29201 0.24176 0.16984 0.55656 0.20507 0.3531 0.09017 0.093245-0.39738 0.42307-0.09858-0.084195-0.36538-0.18245-0.56609-0.13461-0.22285 0.30672 0.303 0.49693 0.28636 0.29088 0.11054 0.067873-0.27957 0.50856-0.11652-0.056884-0.39916-0.085972-0.58193 0.010504-0.13946 0.35245 0.41693 0.40594 0.34987 0.21057 0.12395 0.038137-0.14431 0.56221-0.12702-0.02618-0.40804 0.01616-0.56108 0.15465-0.04751 0.37621 0.50501 0.28943 0.39108 0.117 0.1296 0.00614v0.58047l-0.1296 0.00614-0.39108 0.117-0.50501 0.28959 0.04751 0.37605 0.56108 0.15482 0.40804 0.015999 0.12702-0.02618 0.14431 0.56221-0.12395 0.038138-0.34987 0.21073-0.41693 0.40578 0.13946 0.35262 0.58193 0.010343 0.39916-0.085972 0.11652-0.056884 0.27957 0.50856-0.11054 0.067873-0.28636 0.29104-0.303 0.49676 0.22285 0.30672 0.56609-0.13461 0.36538-0.18245 0.09858-0.0842 0.39738 0.42307-0.09017 0.09324-0.20507 0.3531-0.16984 0.55656 0.29201 0.24176 0.51486-0.27133 0.3085-0.26745 0.07466-0.10617 0.48998 0.31108-0.06416 0.11264-0.1107 0.39302-0.02618 0.58144 0.34292 0.16144 0.43132-0.39075 0.23222-0.33597 0.04589-0.1212 0.55203 0.17938-0.0341 0.12508-0.0097 0.40821 0.11926 0.56965 0.37249 0.07094 0.32046-0.48561 0.1414-0.38316 0.01438-0.1288 0.57918 0.03636-0.0019 0.1296 0.09227 0.39786 0.25711 0.52214 0.37847-0.02392 0.18972-0.55009 0.04153-0.40627-0.0181-0.12831 0.57013-0.10876 0.03038 0.12605 0.18827 0.36231 0.3788 0.44166 0.36053-0.11716 0.04703-0.57999-0.06076-0.40384-0.04945-0.11975 0.52521-0.24725 0.06076 0.11458 0.2723 0.30414 0.47689 0.33371 0.32013-0.20313-0.09874-0.57369-0.15934-0.37589-0.07773-0.10375 0.44731-0.37007 0.08726 0.09583 0.33953 0.22689 0.54492 0.20459 0.25953-0.27634-0.23836-0.53102-0.24774-0.3245-0.10116-0.08129 0.34114-0.46945 0.10844 0.07111 0.38526 0.13526 0.5787 0.06254 0.18261-0.33225-0.36296-0.45491-0.32062-0.25275-0.11813-0.05349 0.21364-0.53975 0.12266 0.042016 0.40692 0.03523 0.57595-0.083225 0.09421-0.36731-0.4646-0.35035-0.37346-0.16516-0.12766-0.022462 0.07272-0.57579 0.12928 0.010019 0.40271-0.067065 0.53733-0.22382v-0.37912l-0.53733-0.22382-0.40271-0.067065-0.12928 0.010019-0.07272-0.57579 0.12766-0.022463 0.37346-0.165 0.4646-0.35051-0.09421-0.36716-0.57595-0.083224-0.40692 0.035229-0.12266 0.041855-0.21364-0.53975 0.11813-0.053328 0.32062-0.25291 0.36296-0.45491-0.18261-0.33225-0.5787 0.062702-0.38526 0.13526-0.10844 0.071105-0.34114-0.46962 0.10116-0.081124 0.24774-0.32466 0.23836-0.53086-0.25953-0.27634-0.54492 0.20443-0.33953 0.22689-0.08726 0.09583-0.44731-0.36991 0.07773-0.10375 0.15934-0.37605 0.09874-0.57353-0.32013-0.20313-0.47689 0.33355-0.2723 0.30414-0.06076 0.11458-0.52521-0.24709 0.04945-0.11991 0.06076-0.40368-0.04703-0.58015-0.36053-0.11716-0.3788 0.44166-0.18827 0.36247-0.03038 0.12605-0.57013-0.10876 0.0181-0.12847-0.04153-0.40611-0.18972-0.55025zm-0.24095 1.9299a5.144 5.1765 0 0 1 4.8237 3.3843l-3.914 1.0488a1.175 1.175 0 0 0-0.72042-0.41596l-1.0559-3.9407a5.144 5.1765 0 0 1 0.86667-0.076438zm-1.7983 0.33048 1.0553 3.9384a1.175 1.175 0 0 0-0.41516 0.71816l-3.9111 1.048a5.144 5.1765 0 0 1-0.07466-0.85859 5.144 5.1765 0 0 1 3.3456-4.846zm6.8676 3.9875a5.144 5.1765 0 0 1 0.07466 0.85843 5.144 5.1765 0 0 1-3.345 4.8485l-1.0559-3.9408a1.175 1.175 0 0 0 0.41516-0.71816zm-5.0693 0.18051a0.67799 0.67799 0 0 1 0.67792 0.67808 0.67799 0.67799 0 0 1-0.67792 0.67792 0.67799 0.67799 0 0 1-0.67792-0.67792 0.67799 0.67799 0 0 1 0.67792-0.67808zm-0.90788 1.421a1.175 1.175 0 0 0 0.71832 0.41516l1.0567 3.9436a5.144 5.1765 0 0 1-0.86716 0.07482 5.144 5.1765 0 0 1-4.8235-3.3843z" fill="url(#linearGradient3950)" opacity=".7"/>
    <path d="m49.862 10.213-0.3657 0.01471-0.20847 0.54896-0.03572 0.32466 0.02796 0.20717-0.5913 0.11813-0.05398-0.202-0.15756-0.2862-0.40336-0.42663-0.34324 0.12686-0.0286 0.58645 0.06642 0.31981 0.0905 0.18843-0.52585 0.29508-0.11361-0.1755-0.23836-0.22333-0.51535-0.28119-0.28733 0.22673 0.15401 0.56658 0.16209 0.28361 0.14431 0.15142-0.40902 0.44295-0.16241-0.13171-0.29557-0.13882-0.57708-0.10811-0.20313 0.30446 0.32143 0.49127 0.24176 0.21962 0.18406 0.09922-0.25194 0.54783-0.19522-0.07514-0.32401-0.04072-0.58225 0.07547-0.09922 0.35229 0.45766 0.36797 0.29783 0.13413 0.20572 0.03765-0.07046 0.59874-0.20879-0.01115-0.32078 0.06157-0.53054 0.25161 0.01471 0.3657 0.5488 0.20847 0.32482 0.03571 0.20717-0.0278 0.11813 0.59114-0.202 0.05397-0.2862 0.15756-0.42663 0.40336 0.12686 0.34324 0.58645 0.0286 0.31981-0.06642 0.18843-0.0905 0.29508 0.52585-0.1755 0.11361-0.2235 0.23836-0.28103 0.51535 0.22673 0.28733 0.56658-0.15401 0.28361-0.16192 0.15126-0.14431 0.44311 0.40885-0.13171 0.16241-0.13882 0.29557-0.10827 0.57708 0.30446 0.20313 0.49127-0.32143 0.21978-0.24176 0.09922-0.18406 0.54783 0.25194-0.07514 0.19522-0.04072 0.32401 0.07547 0.58241 0.35229 0.09906 0.36797-0.45766 0.13413-0.29783 0.03765-0.20556 0.59874 0.0703-0.01115 0.20879 0.06157 0.32078 0.25161 0.53054 0.3657-0.0147 0.20847-0.5488 0.03571-0.32482-0.02796-0.20717 0.5913-0.11813 0.05398 0.20216 0.15756 0.28604 0.40336 0.42663 0.34324-0.12686 0.0286-0.58645-0.06642-0.31981-0.0905-0.18843 0.52585-0.29509 0.11361 0.1755 0.23836 0.2235 0.51535 0.28102 0.28733-0.22673-0.15401-0.56658-0.16209-0.28361-0.14431-0.15126 0.40902-0.44311 0.16225 0.1317 0.29573 0.13882 0.57708 0.10827 0.20313-0.30446-0.32159-0.49127-0.24176-0.21978-0.1839-0.09922 0.25194-0.54783 0.19522 0.07514 0.32401 0.04072 0.58225-0.07547 0.09906-0.35229-0.4575-0.36797-0.29783-0.13413-0.20572-0.03765 0.07046-0.59874 0.20879 0.01115 0.32078-0.06141 0.53054-0.25178-0.01471-0.3657-0.54896-0.20847-0.32466-0.03555-0.20717 0.0278-0.11813-0.5913 0.202-0.05398 0.2862-0.15756 0.42663-0.40336-0.12686-0.34324-0.58645-0.0286-0.31981 0.06642-0.18843 0.0905-0.29508-0.52585 0.1755-0.11361 0.22333-0.23836 0.28119-0.51535-0.22673-0.28733-0.56658 0.15401-0.28361 0.16209-0.15126 0.14431-0.44311-0.40901 0.13171-0.16225 0.13882-0.29573 0.10811-0.57708-0.3043-0.20313-0.49143 0.32159-0.21962 0.24176-0.09922 0.1839-0.54783-0.25194 0.07514-0.19522 0.04072-0.32401-0.07547-0.58225-0.35229-0.09906-0.36797 0.4575-0.13413 0.29783-0.03765 0.20572-0.59874-0.07046 0.01115-0.20879-0.06157-0.32078zm-0.11716 1.6474a4.15 4.15 0 0 1 2.8242 0.97414l-2.3048 2.3048a0.94948 0.93549 7.9185e-6 0 0-0.3914-0.06707 0.94948 0.93549 7.9185e-6 0 0-0.31399 0.06836l-2.3059-2.3059a4.15 4.15 0 0 1 2.4919-0.9743zm-3.0064 1.4885 2.2972 2.2972a0.94948 0.93549 7.9185e-6 0 0-0.07337 0.39835 0.94948 0.93549 7.9185e-6 0 0 0.07482 0.32224l-2.2985 2.2983a4.15 4.15 0 0 1-0.9743-2.4919 4.15 4.15 0 0 1 0.97414-2.8242zm6.3448 1.65e-4a4.15 4.15 0 0 1 0.9743 2.4919 4.15 4.15 0 0 1-0.96735 2.8309l-2.3036-2.3036a0.94948 0.93549 7.9185e-6 0 0 0.07304-0.39867 0.94948 0.93549 7.9185e-6 0 0-0.07466-0.32207zm-3.191 2.1926a0.46565 0.46565 0 0 1 0.484 0.44667 0.46565 0.46565 0 0 1-0.44667 0.484 0.46565 0.46565 0 0 1-0.484-0.44667 0.46565 0.46565 0 0 1 0.44667-0.484zm-0.33484 1.3331a0.94948 0.93549 7.9185e-6 0 0 0.39156 0.06706 0.94948 0.93549 7.9185e-6 0 0 0.31577-0.06658l2.3111 2.3111a4.15 4.15 0 0 1-2.4989 0.96735 4.15 4.15 0 0 1-2.8242-0.97414z" fill="url(#linearGradient3952)" opacity=".5"/>
    <path d="m41.772 12.924-0.33597 0.49806-0.05866 0.2041-0.01163 0.31997-0.61118 0.0425-0.05575-0.31545-0.0863-0.19392-0.40158-0.44667-0.31803 0.10213-0.06609 0.59712 0.04299 0.20798 0.13833 0.28878-0.52133 0.32159-0.19602-0.25323-0.16645-0.13187-0.56334-0.20879-0.234 0.23836 0.21897 0.5593 0.13462 0.16419 0.25678 0.19134-0.31222 0.52715-0.29121-0.13316-0.20863-0.03927-0.59583 0.07676-0.09648 0.31981 0.45378 0.3935 0.19554 0.08274 0.31625 0.05026-0.03135 0.61182-0.31981 0.01729-0.20313 0.06222-0.49176 0.34502 0.06319 0.32789 0.58468 0.13768 0.21154-0.01778 0.30349-0.10246 0.25646 0.5564-0.27505 0.16403-0.15094 0.14932-0.27521 0.53393 0.2083 0.26115 0.58177-0.14997 0.17906-0.11393 0.22107-0.23174 0.48561 0.37346-0.16726 0.27311-0.06416 0.20232 0.0044 0.60068 0.30575 0.13445 0.44554-0.4032 0.10569-0.18406 0.08791-0.30801 0.60358 0.10504-0.02133 0.31949 0.03733 0.20911 0.28313 0.52989 0.33306-0.02327 0.20717-0.56383 0.0079-0.21218-0.06513-0.31351 0.58322-0.18762 0.1296 0.29282 0.13009 0.1679 0.49693 0.33759 0.28426-0.17534-0.0787-0.59566-0.09147-0.1915-0.20346-0.24741 0.42922-0.43697 0.25097 0.19893 0.19311 0.08807 0.59696 0.06803 0.17017-0.28733-0.34647-0.49078-0.17001-0.12718-0.29508-0.12443 0.17696-0.58645 0.31464 0.05963 0.21202-0.0118 0.56011-0.21719 0.01713-0.33355-0.53474-0.27359-0.20976-0.03345-0.319 0.02699-0.11587-0.60148 0.30624-0.09357 0.18229-0.10892 0.39496-0.45265-0.13979-0.30333-0.60067 0.0063-0.2012 0.06787-0.27004 0.17211-0.38203-0.47883 0.2277-0.22511 0.1107-0.18116 0.13946-0.58435-0.2647-0.20346-0.52892 0.28474-0.14674 0.15352-0.15902 0.27779-0.56092-0.24628 0.09712-0.30527 0.01374-0.21186-0.14803-0.58209zm-0.49062 1.4864a2.4322 2.4468 0 0 1 0.4436 0.04137l-0.47479 1.7718a0.63573 0.63573 0 0 0-0.50194 0.28991l-1.7582-0.47107a2.4322 2.4468 0 0 1 2.2914-1.632zm0.81803 0.14383a2.4322 2.4468 0 0 1 1.6142 2.303 2.4322 2.4468 0 0 1-0.04024 0.44004l-1.7569-0.47075a0.63573 0.63573 0 0 0-0.29105-0.50355zm-3.2093 1.8633 1.7576 0.47091a0.63573 0.63573 0 0 0 0.28991 0.50194l-0.4743 1.7699a2.4322 2.4468 0 0 1-1.6142-2.303 2.4322 2.4468 0 0 1 0.04105-0.43972zm2.4085 0.10229a0.33782 0.33782 0 0 1 0.32013 0.35472 0.33782 0.33782 0 0 1-0.35472 0.32013 0.33782 0.33782 0 0 1-0.32013-0.35472 0.33782 0.33782 0 0 1 0.35472-0.32013zm0.51583 0.68115 1.759 0.47139a2.4322 2.4468 0 0 1-2.2922 1.6317 2.4322 2.4468 0 0 1-0.44327-0.04282l0.4743-1.7703a0.63573 0.63573 0 0 0 0.5021-0.28991z" fill="url(#linearGradient3954)" opacity=".5"/>
   </g>
  </g>
 </g>
</svg>
