<svg width="64" height="64" version="1.1" viewBox="0 0 16.933 16.933" xmlns="http://www.w3.org/2000/svg">
 <defs>
  <filter id="filter1178" x="-.047999" y="-.047999" width="1.096" height="1.096" color-interpolation-filters="sRGB">
   <feGaussianBlur stdDeviation="0.30691668"/>
  </filter>
  <linearGradient id="linearGradient1340" x1="13.927" x2="3.0164" y1="13.864" y2="2.199" gradientUnits="userSpaceOnUse">
   <stop stop-color="#5e81ac" offset="0"/>
   <stop stop-color="#88c0d0" offset="1"/>
  </linearGradient>
  <linearGradient id="c-3" x1="42.137" x2="45.252" y1="45.492" y2="42.441" gradientTransform="matrix(.28006 0 0 .28006 -.34756 -.58136)" gradientUnits="userSpaceOnUse">
   <stop stop-color="#242424" offset="0"/>
   <stop stop-color="#6a6a6a" offset="1"/>
  </linearGradient>
  <linearGradient id="b-5" x1="26.752" x2="27.555" y1="43.539" y2="14.105" gradientTransform="matrix(.28006 0 0 .28006 -.34756 -.58136)" gradientUnits="userSpaceOnUse">
   <stop stop-color="#696969" offset="0"/>
   <stop stop-color="#979797" offset="1"/>
  </linearGradient>
  <filter id="filter2055" x="-.14461" y="-.14461" width="1.2785" height="1.2785" color-interpolation-filters="sRGB">
   <feGaussianBlur stdDeviation="0.41308517"/>
  </filter>
  <linearGradient id="linearGradient1831" x1="10.187" x2="19.63" y1="-30.851" y2="-21.964" gradientUnits="userSpaceOnUse">
   <stop stop-color="#88c0d0" offset="0"/>
   <stop stop-color="#5e81ac" offset="1"/>
  </linearGradient>
 </defs>
 <g stroke-linecap="round" stroke-linejoin="round">
  <rect transform="matrix(.99138 0 0 1 .072989 .0019055)" x=".79375" y=".90545" width="15.346" height="15.346" rx="3.0526" ry="3.0526" fill="#000000" filter="url(#filter1178)" opacity=".15" stroke-width="1.2489" style="mix-blend-mode:normal"/>
  <rect x=".92604" y=".92604" width="15.081" height="15.081" rx="3" ry="3" fill="url(#linearGradient1340)" stroke-width="1.2274"/>
  <rect x=".01215" y=".0060174" width="16.924" height="16.927" fill="none" opacity=".15" stroke-width="1.052"/>
 </g>
 <g transform="matrix(1.2324 0 0 1.2324 -2.2189 -1.8211)">
  <g fill="none">
   <path d="m11.303 7.4771a3.6967 3.6967 0 0 1-3.6967 3.6967 3.6967 3.6967 0 0 1-3.6967-3.6967 3.6967 3.6967 0 0 1 3.6967-3.6967 3.6967 3.6967 0 0 1 3.6967 3.6967zm1.7864 5.4829-2.096-2.096m0.13999 0.13999-0.83842-0.83842" filter="url(#filter2055)" opacity=".5" stroke="#2e3440" stroke-width=".67216"/>
   <path d="m11.133 11.004-0.83842-0.83842" color="#000000" stroke="#888" stroke-width=".67216"/>
   <path d="m13.089 12.96-2.096-2.096" color="#000000" stroke="url(#c-3)" stroke-width="1.0082"/>
  </g>
  <circle cx="7.6059" cy="7.4771" r="3.6967" color="#000000" fill="#fff" fill-opacity=".54292" stroke="url(#b-5)" stroke-width=".67216"/>
 </g>
 <g transform="matrix(.53444 0 0 .53444 -.86337 21.533)" fill="url(#linearGradient1831)" stroke-width=".056023">
  <path d="m15.484-28.646c0.29658-0.22621 0.48715-0.6742 0.51871-1.2194 0.03224-0.55698-0.06188-0.89831-0.3283-1.1905-0.2023-0.22187-0.20557-0.23304-0.23842-0.8132-0.02835-0.50083-0.11931-1.1379-0.23912-1.6748-0.01736-0.07781-0.05054-0.1131-0.079-0.08404-0.09653 0.09861-0.44428 1.363-0.50892 1.8504-0.0549 0.41402-0.09263 0.52723-0.2267 0.68031-0.31464 0.35925-0.40503 0.61211-0.43093 1.2055-0.03404 0.78008 0.09766 1.088 0.57754 1.3501 0.25702 0.14042 0.69716 0.09227 0.95512-0.10449z"/>
  <path d="m12.837-27.855c0.43966-0.1837 0.71188-0.74287 0.71131-1.4611-3.93e-4 -0.53116-0.07927-0.78297-0.33198-1.0601-0.21024-0.23059-0.21198-0.23645-0.2469-0.82756-0.03109-0.52636-0.21879-1.7059-0.28143-1.7686-0.0261-0.0261-0.21292 0.49341-0.376 1.0456-0.05887 0.1993-0.1356 0.57746-0.17052 0.84035-0.04831 0.36374-0.09604 0.51672-0.19965 0.64004-0.07489 0.08913-0.204 0.29081-0.28692 0.44819-0.1373 0.2606-0.15078 0.34149-0.15096 0.9063-1.68e-4 0.58274 0.0091 0.63421 0.15373 0.85295 0.2663 0.40273 0.75423 0.56161 1.1793 0.38401z"/>
  <path d="m18.11-27.655c0.12088-0.08396 0.2805-0.2661 0.35469-0.40476 0.12156-0.22717 0.13267-0.30474 0.11235-0.78433-0.02523-0.5955-0.13123-0.88606-0.46592-1.2771-0.1485-0.17349-0.19291-0.27577-0.19291-0.44428 0-0.1204-0.02626-0.3685-0.05836-0.55133-0.08024-0.45702-0.45229-1.6101-0.5015-1.5543-0.06709 0.07606-0.23144 1.1873-0.26357 1.7822-0.02902 0.53717-0.03781 0.5683-0.2135 0.75632-0.26071 0.27899-0.36344 0.51284-0.40074 0.91224-0.06824 0.73075 0.22019 1.4032 0.70937 1.654 0.31208 0.15997 0.60245 0.132 0.92008-0.08861z"/>
  <path d="m10.559-25.982c0.41147-0.2509 0.63697-0.75687 0.63644-1.4281-3.92e-4 -0.5296-0.07102-0.75522-0.32808-1.0484-0.2142-0.2443-0.21525-0.2479-0.27683-0.94552-0.07256-0.82197-0.2304-1.7091-0.29233-1.643-0.10567 0.11278-0.44871 1.3397-0.50576 1.8089-0.05693 0.4682-0.0834 0.54384-0.28198 0.80567-0.27936 0.36833-0.40312 0.74241-0.41007 1.2394-0.01136 0.81266 0.38363 1.3176 1.0309 1.318 0.14981 5.6e-5 0.32335-0.04331 0.42769-0.10693z"/>
  <path d="m20.456-26.002c0.31198-0.23796 0.45465-0.59715 0.44949-1.1317-0.0051-0.53021-0.10597-0.82519-0.42741-1.2501-0.20665-0.27318-0.23011-0.34109-0.29746-0.86122-0.06838-0.52803-0.36702-1.6405-0.46901-1.7471-0.02508-0.02621-0.05969-1e-3 -0.07691 0.05602-0.06855 0.22702-0.20181 1.2002-0.23674 1.7288-0.03539 0.53555-0.04506 0.56826-0.22344 0.75586-0.34022 0.35779-0.45729 0.81953-0.36086 1.4232 0.08953 0.56044 0.30945 0.92048 0.70115 1.1479 0.19741 0.11462 0.71991 0.04703 0.94118-0.12174z"/>
  <path d="m12.977-21.309c0.16328-0.018 0.57925-0.12231 0.92438-0.2318 0.56261-0.17848 0.69415-0.19943 1.2718-0.20254 0.55765-3e-3 0.71582 0.01839 1.1765 0.15918 0.47495 0.14515 0.61361 0.16267 1.2885 0.16282 0.64397 1.12e-4 0.81168-0.01897 1.129-0.12865 0.73587-0.25431 1.1528-0.63947 1.3377-1.2357 0.20642-0.66581 0.10682-1.461-0.25078-2.0022-0.22251-0.33672-0.82674-0.83694-1.5538-1.2863-0.28715-0.17748-0.73637-0.52173-0.99828-0.765-0.93694-0.87028-1.3763-1.0737-2.3277-1.078-0.59334-0.0027-0.63427 5e-3 -0.98764 0.18425-0.20275 0.10286-0.65531 0.41153-1.0057 0.68593s-0.92245 0.69054-1.2713 0.92474c-1.4127 0.94847-1.8537 1.6894-1.7916 3.0103 0.02896 0.61661 0.12956 0.84469 0.5433 1.2317 0.32193 0.30113 0.63406 0.45293 1.1087 0.53921 0.61116 0.1111 0.67608 0.11257 1.4069 0.032z"/>
 </g>
</svg>
