<svg id="svg1232" width="64" height="64" version="1.1" viewBox="0 0 16.933 16.933" xmlns="http://www.w3.org/2000/svg" xmlns:xlink="http://www.w3.org/1999/xlink">
 <defs id="defs1052">
  <filter id="filter1178" x="-.047999482" y="-.047999482" width="1.095999" height="1.095999" color-interpolation-filters="sRGB">
   <feGaussianBlur id="feGaussianBlur851" stdDeviation="0.30691668"/>
  </filter>
  <linearGradient id="linearGradient1340" x1="8.355" x2="8.3996" y1="16.007" y2=".79375" gradientUnits="userSpaceOnUse">
   <stop id="stop854" stop-color="#d8dee9" offset="0"/>
   <stop id="stop856" stop-color="#eceff4" offset="1"/>
  </linearGradient>
  <linearGradient id="linearGradient1313" x1="8.2364" x2="8.24" y1="1.1606" y2="3.5817" gradientUnits="userSpaceOnUse">
   <stop id="stop859" stop-color="#2e3440" offset="0"/>
   <stop id="stop861" stop-color="#4c566a" offset="1"/>
  </linearGradient>
  <linearGradient id="linearGradient6495" x1="12.05" x2="12.066" y1="1.9716" y2="2.8515" gradientUnits="userSpaceOnUse">
   <stop id="stop864" stop-color="#ebcb8b" offset="0"/>
   <stop id="stop866" stop-color="#eac57b" offset="1"/>
  </linearGradient>
  <linearGradient id="linearGradient6567" x1="13.286" x2="13.275" y1="1.9581" y2="2.8476" gradientUnits="userSpaceOnUse">
   <stop id="stop869" stop-color="#a3be8c" offset="0"/>
   <stop id="stop871" stop-color="#97b67c" offset="1"/>
  </linearGradient>
  <linearGradient id="linearGradient6639" x1="14.461" x2="14.467" y1="1.9502" y2="2.8203" gradientUnits="userSpaceOnUse">
   <stop id="stop874" stop-color="#bf616a" offset="0"/>
   <stop id="stop876" stop-color="#b54a55" offset="1"/>
  </linearGradient>
  <filter id="filter2347-3" x="-.024545776" y="-.029998631" width="1.0490916" height="1.0599973" color-interpolation-filters="sRGB">
   <feGaussianBlur id="feGaussianBlur879" stdDeviation="0.14938518"/>
  </filter>
  <filter id="filter2161-7" x="-.024009103" y="-.03084203" width="1.0480182" height="1.0616841" color-interpolation-filters="sRGB">
   <feGaussianBlur id="feGaussianBlur882" stdDeviation="0.146119"/>
  </filter>
  <linearGradient id="linearGradient2575" x1="26.221" x2="26.221" y1="14.474" y2="3.3043" gradientTransform="matrix(.17788379 0 0 .17788379 -1.0046864 5.340928)" gradientUnits="userSpaceOnUse">
   <stop id="stop885" stop-color="#2e3440" stop-opacity=".15" offset="0"/>
   <stop id="stop887" stop-color="#2e3440" stop-opacity="0" offset="1"/>
  </linearGradient>
  <filter id="filter1321" x="-.066691976" y="-.085672019" width="1.133384" height="1.171344" color-interpolation-filters="sRGB">
   <feGaussianBlur id="feGaussianBlur893" stdDeviation="0.27168811"/>
  </filter>
  <linearGradient id="linearGradient1129" x1="8.355" x2="8.3996" y1="16.007" y2=".79375" gradientTransform="matrix(.25597 0 0 .25597 6.30497 4.72247)" gradientUnits="userSpaceOnUse" xlink:href="#linearGradient1340"/>
  <linearGradient id="linearGradient1340-7" x1="8.3639" x2="8.3412" y1="15.481" y2="1.4263" gradientTransform="matrix(.25597 0 0 .25597 6.30497 9.48487)" gradientUnits="userSpaceOnUse">
   <stop id="stop900" stop-color="#d8dee9" offset="0"/>
   <stop id="stop902" stop-color="#eceff4" offset="1"/>
  </linearGradient>
  <filter id="filter11783" x="-.033456838" y="-.056662988" width="1.0669137" height="1.113326" color-interpolation-filters="sRGB">
   <feGaussianBlur id="feGaussianBlur905" stdDeviation="0.13174676"/>
  </filter>
  <filter id="filter11787" x="-.044456492" y="-.075292161" width="1.088913" height="1.1505843" color-interpolation-filters="sRGB">
   <feGaussianBlur id="feGaussianBlur908" stdDeviation="0.17506133"/>
  </filter>
  <linearGradient id="linearGradient1340-3" x1="8.6644" x2="8.6644" y1="15.931" y2=".79375" gradientTransform="matrix(.25597 0 0 .25597 1.54257 9.48487)" gradientUnits="userSpaceOnUse">
   <stop id="stop914" stop-color="#5e81ac" offset="0"/>
   <stop id="stop916" stop-color="#88c0d0" offset="1"/>
  </linearGradient>
  <linearGradient id="linearGradient1340-2" x1="8.142" x2="8.142" y1="15.389" y2="1.2852" gradientTransform="matrix(.25597 0 0 .25597 11.06737 4.72247)" gradientUnits="userSpaceOnUse">
   <stop id="stop922" stop-color="#2e3440" offset="0"/>
   <stop id="stop924" stop-color="#4c566a" offset="1"/>
  </linearGradient>
  <linearGradient id="linearGradient9038" x1="57.671" x2="50.253" y1="3.5919" y2="1.1392" gradientTransform="matrix(.16441465 0 0 .16441465 3.9263189 5.6543288)" gradientUnits="userSpaceOnUse">
   <stop id="stop927" stop-color="#5e81ac" offset="0"/>
   <stop id="stop929" stop-color="#88c0d0" offset="1"/>
  </linearGradient>
  <linearGradient id="linearGradient9250" x1="54.154" x2="53.904" y1="-.074123" y2="-.34236" gradientTransform="matrix(.16441465 0 0 .16441465 3.9263189 5.6543288)" gradientUnits="userSpaceOnUse">
   <stop id="stop932" stop-color="#5e81ac" offset="0"/>
   <stop id="stop934" stop-color="#81a1c1" offset="1"/>
  </linearGradient>
  <linearGradient id="linearGradient9538" x1="55.002" x2="54.878" y1="-.26267" y2="-.38509" gradientTransform="matrix(.16441465 0 0 .16441465 3.9263189 5.6543288)" gradientUnits="userSpaceOnUse">
   <stop id="stop937" stop-color="#5e81ac" offset="0"/>
   <stop id="stop939" stop-color="#81a1c1" offset="1"/>
  </linearGradient>
  <linearGradient id="linearGradient9778" x1="51.267" x2="50.278" y1="6.6" y2="5.7432" gradientTransform="matrix(.16441465 0 0 .16441465 3.9263189 5.6543288)" gradientUnits="userSpaceOnUse">
   <stop id="stop942" stop-color="#88c0d0" offset="0"/>
   <stop id="stop944" stop-color="#eceff4" stop-opacity=".8" offset=".68217"/>
   <stop id="stop946" stop-color="#88c0d0" offset="1"/>
  </linearGradient>
  <linearGradient id="linearGradient10960" x1="52.128" x2="51.956" y1="4.3937" y2="4.2556" gradientTransform="translate(.0093016 .002067)" gradientUnits="userSpaceOnUse">
   <stop id="stop949" stop-color="#d8dee9" offset="0"/>
   <stop id="stop951" stop-color="#eceff4" offset="1"/>
  </linearGradient>
  <linearGradient id="linearGradient11270" x1="52.396" x2="51.942" y1="4.5925" y2="4.2701" gradientTransform="matrix(.16441465 0 0 .16441465 3.9263189 5.6543288)" gradientUnits="userSpaceOnUse">
   <stop id="stop954" stop-color="#2e3440" offset="0"/>
   <stop id="stop956" stop-color="#4c566a" offset="1"/>
  </linearGradient>
  <filter id="filter11568" x="-.056370737" y="-.059895922" width="1.1127415" height="1.1197918" color-interpolation-filters="sRGB">
   <feGaussianBlur id="feGaussianBlur959" stdDeviation="0.0045391125"/>
  </filter>
  <linearGradient id="linearGradient11846" x1="52.544" x2="51.916" y1="4.6115" y2="4.272" gradientTransform="matrix(.16441465 0 0 .16441465 3.9263189 5.6543288)" gradientUnits="userSpaceOnUse">
   <stop id="stop962" stop-color="#eac57b" offset="0"/>
   <stop id="stop964" stop-color="#ebcb8b" offset="1"/>
  </linearGradient>
  <linearGradient id="linearGradient12317" x1="55.526" x2="51.625" y1="-.67835" y2="5.3778" gradientTransform="matrix(.16441465 0 0 .16441465 3.9263189 5.6543288)" gradientUnits="userSpaceOnUse">
   <stop id="stop967" stop-color="#88c0d0" offset="0"/>
   <stop id="stop969" stop-color="#5e81ac" offset="1"/>
  </linearGradient>
  <linearGradient id="linearGradient19188" x1="43.965" x2="39.895" y1="5.3156" y2="1.2218" gradientTransform="matrix(.16441465 0 0 .16441465 6.6233768 5.6543288)" gradientUnits="userSpaceOnUse">
   <stop id="stop972" stop-color="#88c0d0" offset="0"/>
   <stop id="stop974" stop-color="#81a1c1" offset=".48461"/>
   <stop id="stop976" stop-color="#5e81ac" offset="1"/>
  </linearGradient>
  <linearGradient id="linearGradient19522" x1="46.368" x2="44.327" y1="8.6309" y2="3.8588" gradientTransform="matrix(.16441465 0 0 .16441465 6.6233768 5.6543288)" gradientUnits="userSpaceOnUse">
   <stop id="stop979" stop-color="#88c0d0" offset="0"/>
   <stop id="stop981" stop-color="#81a1c1" offset="1"/>
  </linearGradient>
  <linearGradient id="linearGradient20158" x1="44.934" x2="48.433" y1="13.68" y2="4.5609" gradientTransform="matrix(.16441465 0 0 .16441465 6.6233768 5.6543288)" gradientUnits="userSpaceOnUse">
   <stop id="stop984" stop-color="#88c0d0" offset="0"/>
   <stop id="stop986" stop-color="#5e81ac" offset="1"/>
  </linearGradient>
  <linearGradient id="linearGradient20446" x1="41.18" x2="47.915" y1="16.784" y2="11.323" gradientTransform="matrix(.16441465 0 0 .16441465 6.6233768 5.6543288)" gradientUnits="userSpaceOnUse">
   <stop id="stop989" stop-color="#5e81ac" offset="0"/>
   <stop id="stop991" stop-color="#81a1c1" offset="1"/>
  </linearGradient>
  <linearGradient id="linearGradient2635" x1="32.913" x2="30.899" y1="7.0913" y2="6.2755" gradientTransform="matrix(.16441465 0 0 .16441465 6.6233768 5.6543288)" gradientUnits="userSpaceOnUse">
   <stop id="stop994" stop-color="#81a1c1" offset="0"/>
   <stop id="stop996" stop-color="#5e81ac" offset="1"/>
  </linearGradient>
  <linearGradient id="linearGradient3005" x1="36.089" x2="31.853" y1="14.529" y2="10.976" gradientTransform="matrix(.16441465 0 0 .16441465 6.6233768 5.6543288)" gradientUnits="userSpaceOnUse">
   <stop id="stop999" stop-color="#5e81ac" offset="0"/>
   <stop id="stop1001" stop-color="#5e81ac" offset="1"/>
  </linearGradient>
  <linearGradient id="linearGradient4271" x1="35.78" x2="32.475" y1="14.686" y2="11.169" gradientTransform="matrix(.16441465 0 0 .16441465 6.6233768 5.6543288)" gradientUnits="userSpaceOnUse">
   <stop id="stop1004" stop-color="#2e3440" stop-opacity=".4" offset="0"/>
   <stop id="stop1006" stop-color="#2e3440" stop-opacity=".1" offset="1"/>
  </linearGradient>
  <linearGradient id="linearGradient5573" x1="42.903" x2="33.12" y1="14.677" y2="4.1864" gradientTransform="matrix(.16441465 0 0 .16441465 6.6233768 5.6543288)" gradientUnits="userSpaceOnUse">
   <stop id="stop1009" stop-color="#d8dee9" offset="0"/>
   <stop id="stop1011" stop-color="#eceff4" offset="1"/>
  </linearGradient>
  <linearGradient id="linearGradient2014" x1="7.9709" x2="7.9827" y1="15.584" y2="1.1618" gradientTransform="matrix(.25597 0 0 .25597 6.30497 4.72247)" gradientUnits="userSpaceOnUse">
   <stop id="stop1017" stop-color="#2e3440" stop-opacity=".2" offset="0"/>
   <stop id="stop1019" stop-color="#4c566a" stop-opacity=".2" offset="1"/>
  </linearGradient>
  <linearGradient id="linearGradient2546" x1="7.9709" x2="7.9827" y1="15.584" y2="1.1618" gradientTransform="matrix(.24626618 0 0 .24626618 6.3871364 4.8046364)" gradientUnits="userSpaceOnUse">
   <stop id="stop1022" stop-color="#2e3440" offset="0"/>
   <stop id="stop1024" stop-color="#4c566a" offset="1"/>
  </linearGradient>
  <filter id="filter888" x="-.15487105" y="-.83466202" width="1.3097421" height="2.669324" color-interpolation-filters="sRGB">
   <feGaussianBlur id="feGaussianBlur1027" stdDeviation="0.14481734"/>
  </filter>
  <style id="style1030">.cls-1{fill-rule:evenodd;}</style>
  <linearGradient id="linearGradient1070" x1="24.255" x2="24.483" y1="-11.18" y2="1.0418" gradientTransform="matrix(.13791076 0 0 .11853165 6.230397 8.6345202)" gradientUnits="userSpaceOnUse">
   <stop id="stop1032" stop-color="#eceff4" offset="0"/>
   <stop id="stop1034" stop-color="#d8dee9" offset="1"/>
  </linearGradient>
  <linearGradient id="linearGradient1424" x1="30.251" x2="30.458" y1="-6.3156" y2="2.5274" gradientTransform="matrix(.1417741 0 0 .1417741 5.3387088 8.3040022)" gradientUnits="userSpaceOnUse">
   <stop id="stop1037" stop-color="#4c566a" offset="0"/>
   <stop id="stop1039" stop-color="#2e3440" offset="1"/>
  </linearGradient>
  <linearGradient id="linearGradient1353" x1="8.355" x2="8.3996" y1="16.007" y2=".79375" gradientTransform="matrix(.25597 0 0 .25597 1.5426119 4.7223976)" gradientUnits="userSpaceOnUse" xlink:href="#linearGradient1340"/>
  <linearGradient id="linearGradient1355" x1="8.5029" x2="8.5394" y1="5.2206" y2="11.916" gradientTransform="matrix(.37312747 0 0 .37312747 .54989274 8.4940613)" gradientUnits="userSpaceOnUse">
   <stop id="stop1047" stop-color="#4c566a" offset="0"/>
   <stop id="stop1049" stop-color="#2e3440" offset="1"/>
  </linearGradient>
  <linearGradient id="linearGradient1361" x1="5.2049" x2="5.2049" y1="7.1604" y2="3.8654" gradientTransform="matrix(.3464042 0 0 .3464042 6.063813 4.3983864)" gradientUnits="userSpaceOnUse">
   <stop id="stop1042" stop-color="#d8dee9" offset="0"/>
   <stop id="stop1044" stop-color="#eceff4" offset="1"/>
  </linearGradient>
 </defs>
 <g id="g1060" stroke-linecap="round" stroke-linejoin="round">
  <rect transform="matrix(.99138 0 0 1 .072989 .0019055)" x=".79375" y=".90545" width="15.346" height="15.346" rx="3.0526" ry="3.0526" fill="#000000" filter="url(#filter1178)" opacity=".15" stroke-width="1.2489" style="mix-blend-mode:normal"/>
  <rect id="rect1056" x=".92604" y=".92604" width="15.081" height="15.081" rx="3" ry="3" fill="url(#linearGradient1340)" stroke-width="1.2274"/>
  <rect id="rect1058" x=".01215" y=".0060174" width="16.924" height="16.927" fill="none" opacity=".15" stroke-width="1.052"/>
 </g>
 <style id="style1062" type="text/css"><![CDATA[
	.st0{fill-rule:evenodd;clip-rule:evenodd;}
]]></style>
 <path id="path1064" d="m3.926 0.92604h9.081c1.662 0 3 1.338 3 3h-15.081c0-1.662 1.338-3 3-3z" fill="url(#linearGradient1313)" stroke-linecap="round" stroke-linejoin="round" stroke-width="1.2274"/>
 <ellipse id="ellipse1066" cx="12.06" cy="2.426" rx=".44454" ry=".50993" fill="url(#linearGradient6495)"/>
 <ellipse id="ellipse1068" cx="13.288" cy="2.426" rx=".44454" ry=".50993" fill="url(#linearGradient6567)"/>
 <ellipse id="ellipse1070" cx="14.482" cy="2.426" rx=".44454" ry=".50993" fill="url(#linearGradient6639)"/>
 <rect id="rect1074" x="1.7796503" y="4.9594359" width="3.8602836" height="3.8602836" rx=".76791" ry=".76791" fill="url(#linearGradient1129)" stroke-width=".314178" style="fill:url(#linearGradient1353);stroke-linecap:round;stroke-linejoin:round"/>
 <rect id="rect1076" x="1.5457219" y="4.723938" width="4.332036" height="4.3328042" fill="none" opacity=".15" stroke-width=".26928" style="stroke-linecap:round;stroke-linejoin:round"/>
 <path id="path1082" transform="matrix(.26574805 0 0 .26574805 1.4469405 4.6345097)" d="m4.3033 5.6483h3.1453c0.39427 0 0.42842-0.70505 0.88015-0.70505h4.6221c0.31286 0 0.56473 0.25068 0.56473 0.56206v6.4869c0 0.31138-0.25187 0.56206-0.56473 0.56206h-8.6476c-0.31286 0-0.56473-0.25068-0.56473-0.56206v-5.7818c0-0.31138 0.25187-0.56206 0.56473-0.56206z" fill="#2e3440" filter="url(#filter1321)" opacity=".25" stroke-width=".10954" style="stroke-linecap:round;stroke-linejoin:round"/>
 <path id="path1084" transform="matrix(.17966278 0 0 .17966278 2.1719525 5.3131041)" d="m2.0282 2.7764h4.6989c0.58902 0 0.64003 1.0583 1.3149 1.0583h6.9051c0.4674 0 0.84368 0.37628 0.84368 0.84368v9.2054c0 0.4674-0.37628 0.84368-0.84368 0.84368h-12.919c-0.4674 0-0.84368-0.37628-0.84368-0.84368v-10.264c0-0.4674 0.37628-0.84368 0.84368-0.84368z" fill="#2e3440" filter="url(#filter2347-3)" opacity=".15" stroke-width=".16404" style="stroke-linecap:round;stroke-linejoin:round"/>
 <path id="path1086" d="m2.5478188 5.6744825h0.8358701c0.1047762 0 0.1142445 0.2143416 0.2339002 0.224048l1.2282977 0.099654c0.08287 0.00672 0.1500777 0.066934 0.1500777 0.1500778v1.6374913c0 0.083144-0.066934 0.1500778-0.1500777 0.1500778h-2.2980731c-0.083142 0-0.1500778-0.066934-0.1500778-0.1500778v-1.961242c0-0.083144 0.066934-0.1500777 0.1500778-0.1500777z" fill="#81a1c1" stroke-width=".0291806" style="stroke-linecap:round;stroke-linejoin:round"/>
 <path id="path1088" d="m2.5478188 5.6744825h0.8358701c0.1047762 0 0.1141779 0.2241555 0.2339002 0.2329967l1.2282977 0.090706c0.082916 0.00612 0.1500777 0.066934 0.1500777 0.1500778v1.6374913c0 0.083144-0.066934 0.1500778-0.1500777 0.1500778h-2.2980731c-0.083142 0-0.1500778-0.066934-0.1500778-0.1500778v-1.9612427c0-0.083144 0.066934-0.1500777 0.1500778-0.1500777z" fill="#2e3440" opacity=".15" stroke-width=".0291806" style="stroke-linecap:round;stroke-linejoin:round"/>
 <path id="path1090" transform="matrix(.17788379 0 0 .17788379 -1.0046864 5.340928)" d="m19.971 3.8487h4.6989c0.58902 0 0.64003-1.0533 1.3149-1.0533h6.9051c0.4674 0 0.84368 0.3745 0.84368 0.83969v9.691c0 0.46519-0.37628 0.83969-0.84368 0.83969h-12.919c-0.4674 0-0.84368-0.3745-0.84368-0.83969v-8.6377c0-0.46519 0.37628-0.83969 0.84368-0.83969z" fill="#2e3440" filter="url(#filter2161-7)" opacity=".5" stroke-width=".16365" style="stroke-linecap:round;stroke-linejoin:round"/>
 <path id="path1092" d="m2.54787 6.0928655h0.83587c0.1047788 0 0.1138504-0.187365 0.2339003-0.187365h1.2283233c0.083144 0 0.1500777 0.066619 0.1500777 0.1493688v1.7238811c0 0.08275-0.066934 0.1493688-0.1500777 0.1493688h-2.2980987c-0.083144 0-0.1500778-0.066619-0.1500778-0.1493688v-1.5365111c0-0.08275 0.066934-0.1493687 0.1500778-0.1493687z" fill="#81a1c1" stroke-width=".0291115" style="stroke-linecap:round;stroke-linejoin:round"/>
 <path id="path1094" d="m2.54787 6.0928655h0.83587c0.1047788 0 0.1138504-0.187365 0.2339003-0.187365h1.2283233c0.083144 0 0.1500777 0.066619 0.1500777 0.1493688v1.7238811c0 0.08275-0.066934 0.1493688-0.1500777 0.1493688h-2.2980987c-0.083144 0-0.1500778-0.066619-0.1500778-0.1493688v-1.5365111c0-0.08275 0.066934-0.1493687 0.1500778-0.1493687z" fill="url(#linearGradient2575)" stroke-width=".0291115" style="fill:url(#linearGradient2575);stroke-linecap:round;stroke-linejoin:round"/>
 <rect id="rect1102" x="6.5420084" y="9.7219086" width="3.8602836" height="3.8602836" rx=".76791" ry=".76791" fill="url(#linearGradient1340-7)" stroke-linecap="round" stroke-linejoin="round" stroke-width=".314178" style="fill:url(#linearGradient1340-7)"/>
 <path id="path1104" transform="matrix(.23049331 0 0 .23049331 12.613095 11.775597)" d="m-19.85 0.6113h-0.04999c-0.65374 0-1.2482 0.26757-1.6793 0.69865-0.43108 0.43108-0.69865 1.0256-0.69865 1.6793 0 0.010229 0 0.020459 1.54e-4 0.030457 1.54e-4 0.01023 3.2e-4 0.020458 6.1e-4 0.03061 3.19e-4 0.010075 6.1e-4 0.020305 8.96e-4 0.03038 4.65e-4 0.010075 8.96e-4 0.020305 0.0014 0.03038 6.1e-4 0.010075 0.0012 0.020151 0.0018 0.030226 6.1e-4 0.010075 0.0014 0.020151 2e-3 0.030226 7.56e-4 0.00992 0.0016 0.019997 0.0025 0.029918v1.537e-4c0.0027 0.029918 0.0059 0.059759 0.0096 0.08937 0.06857 0.53368 0.31592 1.0137 0.67978 1.3775 0.38394 0.38394 0.8977 0.63843 1.467 0.68935 0.0099 9.283e-4 0.02 0.00177 0.02992 0.00253h1.53e-4c0.0099 7.559e-4 0.02 0.00154 0.03007 0.00206 0.01007 7.558e-4 0.02015 0.00122 0.03022 0.00177h1.54e-4c0.0099 4.65e-4 0.02015 9.281e-4 0.03022 0.00139 0.01023 4.652e-4 0.02031 7.557e-4 0.03038 9.282e-4h1.54e-4c0.01007 3.198e-4 0.02031 4.651e-4 0.03046 6.103e-4 0.01007 1.539e-4 0.02031 3.199e-4 0.03046 3.199e-4h0.04999c0.65343 0 1.248-0.2678 1.6793-0.69896 0.43109-0.43107 0.69881-1.0255 0.69881-1.6791 0-0.65374-0.26757-1.2483-0.69865-1.6793-0.43124-0.43116-1.0256-0.69873-1.6795-0.69873zm-0.05007-0.41201h3.8707c0.76749 0 1.4651 0.31387 1.9707 0.8194 0.50561 0.50561 0.8194 1.2032 0.8194 1.9707 0 0.76749-0.31387 1.4649-0.81948 1.9705-0.50561 0.50561-1.2033 0.81956-1.9706 0.81956h-3.8706c-0.012 0-0.02392-1.54e-4 -0.03591-3.2e-4 -0.01185-1.54e-4 -0.02392-3.2e-4 -0.03576-6.11e-4 -0.01184-4.65e-4 -0.02392-7.55e-4 -0.03576-0.0012-0.01184-4.65e-4 -0.02377-0.0011-0.03561-0.0016-0.01185-6.1e-4 -0.02361-0.0012-0.03546-2e-3 -0.01185-7.56e-4 -0.02361-0.0016-0.0353-0.0025-0.01185-8.96e-4 -0.02361-0.0018-0.0353-0.0028-0.66858-0.059966-1.2711-0.35815-1.7215-0.80853-0.41862-0.41862-0.70588-0.96907-0.79226-1.5816v-1.539e-4c-0.0033-0.022996-0.0063-0.0463-9e-3 -0.069527-0.0027-0.023305-5e-3 -0.046531-0.0071-0.070142-0.0011-0.011691-2e-3 -0.023459-3e-3 -0.035147-8.95e-4 -0.011843-0.0018-0.023613-0.0025-0.035456-7.55e-4 -0.011692-0.0014-0.023613-2e-3 -0.035455-6.1e-4 -0.011843-0.0012-0.023764-0.0016-0.03561-4.66e-4 -0.011846-7.57e-4 -0.023767-0.0011-0.035763-3.2e-4 -0.011843-6.1e-4 -0.023764-7.56e-4 -0.035763-1.54e-4 -0.011996-1.54e-4 -0.023918-1.54e-4 -0.035917 0-0.76749 0.3138-1.4651 0.8194-1.9708 0.50556-0.50546 1.2031-0.81933 1.9706-0.81933z" fill="#2e3440" filter="url(#filter11787)" stroke-width=".07691" style="mix-blend-mode:normal"/>
 <rect id="rect1106" x="6.3080802" y="9.4864101" width="4.332036" height="4.3328042" fill="none" opacity=".15" stroke-linecap="round" stroke-linejoin="round" stroke-width=".26928"/>
 <path id="path1108" transform="matrix(.23049331 0 0 .23049331 12.613095 11.775597)" d="m-16.08-6.2923h0.04999c0.65374 0 1.2482 0.26757 1.6793 0.69865 0.43108 0.43108 0.69865 1.0256 0.69865 1.6793 0 0.010229 0 0.020459-1.54e-4 0.030457-1.54e-4 0.01023-3.2e-4 0.020458-6.1e-4 0.03061-3.19e-4 0.010075-6.1e-4 0.020305-8.96e-4 0.03038-4.65e-4 0.010075-8.96e-4 0.020305-0.0014 0.03038-6.1e-4 0.010075-0.0012 0.020151-0.0018 0.030226-6.1e-4 0.010075-0.0014 0.020151-2e-3 0.030226-7.56e-4 0.00992-0.0016 0.019997-0.0025 0.029918v1.537e-4c-0.0027 0.029918-0.0059 0.059759-0.0096 0.08937-0.06857 0.53368-0.31592 1.0137-0.67978 1.3775-0.38394 0.38394-0.8977 0.63843-1.467 0.68935-0.0099 9.282e-4 -0.02 0.00177-0.02992 0.00253h-1.53e-4c-0.0099 7.559e-4 -0.02 0.00154-0.03007 0.00206-0.01007 7.558e-4 -0.02015 0.00122-0.03022 0.00177h-1.54e-4c-0.0099 4.651e-4 -0.02015 9.282e-4 -0.03022 0.00139-0.01023 4.651e-4 -0.02031 7.558e-4 -0.03038 9.282e-4h-1.54e-4c-0.01007 3.198e-4 -0.02031 4.651e-4 -0.03046 6.104e-4 -0.01007 1.538e-4 -0.02031 3.198e-4 -0.03046 3.198e-4h-0.04999c-0.65343 0-1.248-0.2678-1.6793-0.69896-0.43109-0.43107-0.69881-1.0255-0.69881-1.6791 0-0.65374 0.26757-1.2483 0.69866-1.6793 0.43124-0.43116 1.0256-0.69873 1.6795-0.69873zm0.05007-0.41201h-3.8707c-0.76749 0-1.4651 0.31387-1.9707 0.8194-0.50561 0.50561-0.8194 1.2032-0.8194 1.9707s0.31387 1.4649 0.81948 1.9705c0.50561 0.50561 1.2033 0.81956 1.9706 0.81956h3.8706c0.012 0 0.02392-1.54e-4 0.03591-3.2e-4 0.01185-1.54e-4 0.02392-3.2e-4 0.03576-6.11e-4 0.01184-4.65e-4 0.02392-7.55e-4 0.03576-0.0012 0.01184-4.65e-4 0.02377-0.0011 0.03561-0.0016 0.01185-6.1e-4 0.02361-0.0012 0.03546-2e-3 0.01185-7.56e-4 0.02361-0.0016 0.0353-0.0025 0.01185-8.96e-4 0.02361-0.0018 0.0353-0.0028 0.66858-0.059966 1.2711-0.35815 1.7215-0.80853 0.41862-0.41862 0.70588-0.96907 0.79226-1.5816v-1.538e-4c0.0033-0.022996 0.0063-0.0463 9e-3 -0.069527 0.0027-0.023305 5e-3 -0.046531 0.0071-0.070142 0.0011-0.011691 2e-3 -0.023459 3e-3 -0.035147 8.95e-4 -0.011843 0.0018-0.023613 0.0025-0.035456 7.55e-4 -0.011692 0.0014-0.023613 2e-3 -0.035455 6.1e-4 -0.011843 0.0012-0.023764 0.0016-0.03561 4.66e-4 -0.011846 7.57e-4 -0.023767 0.0011-0.035763 3.2e-4 -0.011843 6.1e-4 -0.023764 7.56e-4 -0.035763 1.54e-4 -0.011996 1.54e-4 -0.023918 1.54e-4 -0.035917 0-0.76749-0.3138-1.4651-0.8194-1.9708-0.50556-0.50546-1.2031-0.81933-1.9706-0.81933z" fill="#2e3440" filter="url(#filter11783)" stroke-width=".07691" style="mix-blend-mode:normal"/>
 <ellipse id="ellipse1110" cx="8.9130487" cy="10.834753" rx=".57334721" ry=".56495136" fill="#eceff4" stroke-linecap="round" stroke-linejoin="round" stroke-width=".700155"/>
 <path id="path1112" d="m8.9066491 10.291329h0.011521c0.1506818 0 0.2877103 0.06167 0.3870522 0.161036 0.099363 0.09936 0.1610359 0.236393 0.1610359 0.387078 0 0.0024 0 0.0047-3.54e-5 7e-3 -3.55e-5 0.0024-7.39e-5 0.0047-1.407e-4 0.0071-7.35e-5 0.0023-1.406e-4 0.0047-2.063e-4 7e-3 -1.073e-4 0.0023-2.066e-4 0.0047-3.328e-4 7e-3 -1.405e-4 0.0023-2.816e-4 0.0046-4.096e-4 7e-3 -1.405e-4 0.0023-3.327e-4 0.0046-4.607e-4 7e-3 -1.743e-4 0.0023-3.584e-4 0.0046-5.887e-4 0.0069v3.5e-5c-6.144e-4 0.0069-0.00136 0.01377-0.0022 0.0206-0.015806 0.123009-0.072818 0.233647-0.1566869 0.317506-0.088494 0.08849-0.2069133 0.147154-0.3381364 0.15889-0.00228 2.14e-4 -0.00461 4.07e-4 -0.0069 5.84e-4h-3.53e-5c-0.00228 1.74e-4 -0.00461 3.56e-4 -0.00693 4.74e-4 -0.00233 1.74e-4 -0.00464 2.81e-4 -0.00696 4.07e-4h-3.56e-5c-0.00228 1.07e-4 -0.00464 2.13e-4 -0.00696 3.19e-4 -0.00235 1.08e-4 -0.00468 1.75e-4 -7e-3 2.14e-4h-3.56e-5c-0.00233 7.4e-5 -0.00468 1.08e-4 -0.00702 1.41e-4 -0.00233 3.6e-5 -0.00468 7.4e-5 -0.00702 7.4e-5h-0.011521c-0.1506127 0-0.2876591-0.06173-0.3870522-0.161105-0.099362-0.09936-0.1610717-0.236376-0.1610717-0.387027 0-0.150682 0.061673-0.28771 0.1610358-0.387078 0.099403-0.09938 0.2364011-0.161051 0.3871291-0.161051zm0.011542-0.09496h-0.8921582c-0.1769008 0-0.3376756 0.07234-0.4542187 0.188868-0.1165406 0.11654-0.1888701 0.277318-0.1888701 0.454218 0 0.176901 0.072345 0.33765 0.1888854 0.454194 0.1165406 0.11654 0.2773435 0.188903 0.4542188 0.188903h0.8921578c0.00277 0 0.00551-3.6e-5 0.00828-7.4e-5 0.00273-3.5e-5 0.00551-7.4e-5 0.00824-1.41e-4 0.00273-1.07e-4 0.00551-1.74e-4 0.00824-2.76e-4 0.00273-1.07e-4 0.00548-2.54e-4 0.00821-3.69e-4 0.00273-1.4e-4 0.00544-2.76e-4 0.00817-4.6e-4 0.00273-1.75e-4 0.00544-3.69e-4 0.00814-5.76e-4 0.00273-2.07e-4 0.00544-4.15e-4 0.00814-6.45e-4 0.1540991-0.01382 0.2929833-0.08255 0.3967791-0.186365 0.09649-0.09649 0.1627022-0.223364 0.182609-0.364552v-3.5e-5c7.679e-4 -0.0053 0.00146-0.01067 0.00207-0.01603 6.143e-4 -0.0054 0.00115-0.01073 0.00164-0.01617 2.536e-4 -0.0027 4.607e-4 -0.0054 6.911e-4 -0.0081 2.063e-4 -0.0027 4.095e-4 -0.0054 5.887e-4 -0.0082 1.741e-4 -0.0027 3.328e-4 -0.0054 4.608e-4 -0.0082 1.405e-4 -0.0027 2.815e-4 -0.0055 3.583e-4 -0.0082 1.073e-4 -0.0027 1.743e-4 -0.0055 2.534e-4 -0.0082 7.38e-5 -0.0027 1.408e-4 -0.0055 1.744e-4 -0.0082 3.55e-5 -0.0028 3.55e-5 -0.0055 3.55e-5 -0.0083 0-0.176901-0.072327-0.337676-0.1888674-0.454244-0.1165304-0.116505-0.2773179-0.18885-0.4541932-0.18885z" fill="#5e81ac" stroke-width=".0177275"/>
 <ellipse id="ellipse1114" cx="8.0140305" cy="12.421102" rx=".57334721" ry=".56495136" fill="#eceff4" stroke-linecap="round" stroke-linejoin="round" stroke-width=".700155"/>
 <path id="path1116" d="m8.0376053 11.87691h-0.011522c-0.1506818 0-0.2876846 0.06167-0.3870522 0.161035-0.099362 0.09936-0.1610358 0.236394-0.1610358 0.387078 0 0.0024 0 0.0047 3.55e-5 7e-3 3.55e-5 0.0024 7.37e-5 0.0047 1.406e-4 0.0071 7.35e-5 0.0023 1.406e-4 0.0047 2.065e-4 7e-3 1.072e-4 0.0023 2.065e-4 0.0047 3.225e-4 7e-3 1.406e-4 0.0023 2.765e-4 0.0046 4.147e-4 7e-3 1.406e-4 0.0023 3.225e-4 0.0046 4.607e-4 7e-3 1.743e-4 0.0023 3.686e-4 0.0046 5.76e-4 0.0069v3.5e-5c6.22e-4 0.0069 0.00136 0.01377 0.00221 0.0206 0.015805 0.123009 0.072818 0.233647 0.156687 0.317505 0.088494 0.08849 0.2069133 0.147155 0.3381363 0.158891 0.00228 2.14e-4 0.00461 4.09e-4 0.0069 5.89e-4h3.52e-5c0.00228 1.74e-4 0.00461 3.58e-4 0.00693 4.86e-4 0.00232 1.74e-4 0.00464 2.82e-4 0.00697 4.09e-4h3.54e-5c0.00228 1.07e-4 0.00464 2.14e-4 0.00697 3.33e-4 0.00236 1.08e-4 0.00468 1.75e-4 7e-3 2.14e-4h3.55e-5c0.00232 7.4e-5 0.00468 1.08e-4 0.00702 1.41e-4 0.00232 3.5e-5 0.00468 7.4e-5 0.00702 7.4e-5h0.011522c0.1506102 0 0.2876591-0.06173 0.3870523-0.161108 0.099362-0.09936 0.1610717-0.236375 0.1610717-0.387026 0-0.150682-0.061673-0.287711-0.1610359-0.387078-0.099396-0.09941-0.2363908-0.161087-0.3871034-0.161087zm-0.011541-0.09497h0.8921579c0.1769008 0 0.3377012 0.07235 0.4542187 0.188867 0.1165406 0.116541 0.1888675 0.277318 0.1888675 0.454219s-0.072345 0.33765-0.1888854 0.454193c-0.1165406 0.116541-0.2773435 0.188903-0.4542188 0.188903h-0.8921577c-0.00277 0-0.00551-3.5e-5 -0.00828-7.3e-5 -0.00273-3.6e-5 -0.00551-7.4e-5 -0.00824-1.41e-4 -0.00273-1.07e-4 -0.00551-1.74e-4 -0.00824-2.82e-4 -0.00273-1.07e-4 -0.00548-2.53e-4 -0.00821-3.58e-4 -0.00273-1.41e-4 -0.00544-2.82e-4 -0.00817-4.61e-4 -0.00273-1.74e-4 -0.00544-3.58e-4 -0.00814-5.88e-4 -0.00273-2.07e-4 -0.00544-4.1e-4 -0.00814-6.4e-4 -0.1541006-0.013815-0.2929796-0.082546-0.3967755-0.186357-0.0964904-0.09649-0.1627022-0.223364-0.182609-0.364552v-3.6e-5c-7.602e-4 -0.0053-0.00145-0.01067-0.00207-0.01603-6.22e-4 -0.0054-0.00115-0.01073-0.00164-0.01617-2.535e-4 -0.0027-4.607e-4 -0.0054-6.911e-4 -0.0081-2.063e-4 -0.0027-4.147e-4 -0.0054-5.759e-4 -0.0082-1.741e-4 -0.0027-3.226e-4 -0.0054-4.608e-4 -0.0082-1.406e-4 -0.0027-2.764e-4 -0.0055-3.686e-4 -0.0082-1.074e-4 -0.0027-1.745e-4 -0.0055-2.535e-4 -0.0082-7.38e-5 -0.0027-1.406e-4 -0.0055-1.743e-4 -0.0082-3.55e-5 -0.0028-3.55e-5 -0.0055-3.55e-5 -0.0083 0-0.176901 0.072327-0.337676 0.1888675-0.454245 0.1165252-0.116502 0.2773179-0.188849 0.4541932-0.188849z" fill="#4c566a" stroke-width=".0177275"/>
 <rect id="rect1122" x="1.7796085" y="9.7219086" width="3.8602836" height="3.8602836" rx=".76791" ry=".76791" fill="url(#linearGradient1340-3)" stroke-width=".314178" style="fill:url(#linearGradient1340-3);stroke-linecap:round;stroke-linejoin:round"/>
 <rect id="rect1124" x="1.54568" y="9.4864101" width="4.332036" height="4.3328042" fill="none" opacity=".15" stroke-width=".26928" style="stroke-linecap:round;stroke-linejoin:round"/>
 <path id="path1128" d="m2.541983 10.913942a0.07897616 0.07897616 0 0 0-0.047645 0.0079 0.09196846 0.09196846 0 0 0-0.056051 0.07949c-2.542e-4 0.03439 0.024207 0.06369 0.056051 0.07974l0.8756183 0.270551-0.0079 0.629242-0.3105502 0.931139c-0.029811 0.04255-0.020635 0.0912 0.023947 0.119737 0.044581 0.02802 0.1136211 0.01834 0.1431728-0.02395l0.4937222-1.003228 0.4934611 1.003228a0.09349455 0.09349455 0 0 0 0.1273783 0.03184c0.046365-0.02548 0.066237-0.07566 0.039999-0.119736l-0.3026428-0.939278-0.0157952-0.581109 0.8916627-0.318445a0.09375201 0.09375201 0 0 0 0.031843-0.111584c-0.015541-0.03873-0.060122-0.06038-0.081778-0.05808l-1.18412 0.193616z" style="fill:url(#linearGradient1355);stroke-width:.254757"/>
 <path id="path1130" d="m3.7281179 10.253096c-0.1816422 0-0.326091 0.141389-0.326091 0.318446 0 0.177056 0.1444488 0.326345 0.326091 0.326345s0.3265985-0.149289 0.3265985-0.326345c0-0.177057-0.1449563-0.318446-0.3265985-0.318446z" style="fill:url(#linearGradient1355);stroke-width:.254757"/>
 <rect id="rect1138" x="11.304408" y="4.9595084" width="3.8602836" height="3.8602836" rx=".76791" ry=".76791" fill="url(#linearGradient1340-2)" stroke-width=".314178" style="fill:url(#linearGradient1340-2);stroke-linecap:round;stroke-linejoin:round"/>
 <rect id="rect1140" x="11.07048" y="4.7240105" width="4.332036" height="4.3328042" fill="none" opacity=".15" stroke-width=".26928" style="stroke-linecap:round;stroke-linejoin:round"/>
 <path id="path1144" d="m12.454342 8.154418c-0.122327-0.2499103-0.15051-0.3902546-0.15051-0.3902546s0.17137 0.17862 0.3468 0.1887315l-0.197462-0.2856211s-0.466494-0.1564833-0.592616-0.208264c0.05796 0.4973872 0.5938 0.6953917 0.5938 0.6953917z" fill="url(#linearGradient3005)" style="fill:url(#linearGradient3005);stroke-width:.164415"/>
 <path id="path1146" d="m12.454342 8.154418c-0.122327-0.2499103-0.15051-0.3902546-0.15051-0.3902546s0.17137 0.17862 0.3468 0.1887315l-0.197462-0.2856211s-0.466494-0.1564833-0.592616-0.208264c0.05796 0.4973872 0.5938 0.6953917 0.5938 0.6953917z" fill="url(#linearGradient4271)" style="fill:url(#linearGradient4271);stroke-width:.164415"/>
 <path id="path1148" d="m11.836965 7.5390139 1.981526 0.6485007 0.552449-1.5366686-2.37349-0.4359783c-0.287298 0.2122264-0.160391 1.3241462-0.160391 1.3241462z" fill="url(#linearGradient5573)" style="fill:url(#linearGradient5573);stroke-width:.164415"/>
 <path id="path1150" d="m11.836965 7.5390139 1.981526 0.6485007 0.502467-1.4636027-1.665684 0.5857929-0.707871-1.0217713c-0.287298 0.2122265-0.110408 1.2510804-0.110408 1.2510804z" fill="none" stroke="#7b88a1" stroke-width=".045676"/>
 <path id="path1154" d="m12.568611 5.7311894c-0.509768 0.2103849-0.742497 0.5512001-0.835408 0.8695068-0.199221 0.6825675 0.203052 1.3929374 0.721074 1.5536692-0.605918-0.2979852-0.620847-0.8663666-0.610719-1.1640558 0.05964 0.090939 0.179969 0.1021689 0.179969 0.1021689-0.353311-0.5479775 0.198645-0.8694411 0.241656-0.8396985 0 0 0.103062-0.1886658 0.303411-0.5216054z" fill="url(#linearGradient2635)" style="fill:url(#linearGradient2635);stroke-width:.164415"/>
 <path id="path1156" d="m12.25984 6.2500688c-0.09604 0.00386-0.567675 0.3077514-0.241657 0.8396985-0.0513-0.06921-0.113418-0.2954202-0.05134-0.4957759 0.03641-0.117517 0.168903-0.2929047 0.341736-0.3005171z" fill="#5e81ac" style="stroke-width:.164415"/>
 <path id="path1158" d="m12.950381 5.5191306c-0.206948 0.01096-0.448572 0.1783735-0.5731 0.4439525-0.255681 0.2694098-0.08643 0.387739-0.123873 0.5657015-0.05911 0.1551318-0.0063 0.2000597 0.0043 0.2628332 0.125513-0.1383204 0.156599-0.1145131 0.273504-0.1817111 0.133547-0.076767 0.252985-0.1598176 0.297574-0.1537375 0.179113-0.025884 0.26359 0.020317 0.459473 0.055796 0.233338 0.042264 0.513599 0.063714 0.53739 0.079258l0.221766-0.6838504c-0.543325-0.3427881-0.891736-0.3078664-1.091187-0.2872653 0 0 0.0099-0.020353 0.04416-0.045375-0.06119-0.00338-0.160694 0.063859-0.185262 0.077045 0.0155-0.052968 0.135256-0.132635 0.135256-0.132635z" fill="url(#linearGradient9038)" style="fill:url(#linearGradient9038);stroke-width:.164415"/>
 <path id="path1160" d="m12.815068 5.6517644c-0.02153 0.0037-0.08982 0.033751-0.08982 0.033751 0.07424-0.1098751 0.225067-0.1663877 0.225067-0.1663877s-0.116414 0.0753-0.135255 0.132635z" fill="url(#linearGradient9250)" style="fill:url(#linearGradient9250);stroke-width:.164415"/>
 <path id="path1162" d="m13.000363 5.5747192s-0.03902 0.013055-0.08277 0.054346c0 0 0.02637-0.00742 0.03861-0.00897 0.0062-0.01754 0.04416-0.045375 0.04416-0.045375z" fill="url(#linearGradient9538)" style="fill:url(#linearGradient9538);stroke-width:.164415"/>
 <path id="path1164" d="m12.4088 6.5482019s4.27e-4 0.07739 0.02598 0.079468c-0.02074 0.0043-0.08308 0.031201-0.177075 0.1639428 0 0-0.0951-0.105569-0.0043-0.2628333 0 0 0.04054 0.097669 0.155431 0.019416z" fill="#88c0d0" style="stroke-width:.164415"/>
 <path id="path1166" d="m13.000857 5.8907735s-0.412615 0.116274-0.574399 0.3298487c-0.05717 0.075476-0.02267 0.2500253-0.01224 0.3178957 0 0 0.168164-0.059508 0.231841-0.1184673 0.03602-0.033347 0.176138-0.3664967 0.354791-0.5292672z" fill="url(#linearGradient12317)" style="fill:url(#linearGradient12317);stroke-width:.164415"/>
 <path id="path1168" d="m13.000857 5.8907735s-0.412615 0.116274-0.574399 0.3298487c-0.05717 0.075476-0.02267 0.2500253-0.01224 0.3178957 0.371462-0.5832116 0.503405-0.5918763 0.586632-0.6477444z" fill="#2e3440" opacity=".1" style="stroke-width:.164415"/>
 <path id="path1170" d="m12.441025 6.4459196s0.06179 0.023759 0.108658-0.019523c0.07172-0.066238 0.04178-0.1467763 0.04178-0.1467763s-0.07961-0.057492-0.142337 0.025613c-0.01956 0.025918-0.02555 0.060695-0.0081 0.1406847z" fill="#5e81ac" style="stroke-width:.164415"/>
 <path id="path1172" d="m12.473908 6.4433876c0.03493 0.00817 0.06174-0.00288 0.07666-0.019879 0.06079-0.069274 0.02006-0.1056907 0.02006-0.1056907s-0.06527-0.035953-0.105217 0.041842c-0.01235 0.024042-6.6e-5 0.065126 0.0085 0.083728z" fill="url(#linearGradient11846)" style="fill:url(#linearGradient11846);stroke-width:.164415"/>
 <ellipse id="ellipse1174" cx="12.508928" cy="6.376997" rx=".042670537" ry=".040240485" fill="url(#linearGradient11270)" style="fill:url(#linearGradient11270);stroke-width:.164415"/>
 <ellipse id="ellipse1176" transform="matrix(.16441465 0 0 .16441465 3.9263189 5.6543288)" cx="52.056" cy="4.3256001" rx=".096626997" ry=".090939999" fill="url(#linearGradient10960)" filter="url(#filter11568)" style="fill:url(#linearGradient10960)"/>
 <path id="path1178" d="m12.4088 6.5482019s4.27e-4 0.07739 0.02598 0.079468c-0.02074 0.0043-0.08308 0.031201-0.177075 0.1639428 0 0-0.0951-0.105569-0.0043-0.2628333 0 0 0.04054 0.097669 0.155431 0.019416z" fill="url(#linearGradient9778)" style="fill:url(#linearGradient9778);stroke-width:.164415"/>
 <path id="path1180" d="m13.001027 5.8907776s-0.06035 0.017054-0.14384 0.049956c0.02418-0.00589 0.06277-0.015015 0.09329-0.020901 2.2e-5 -1.25e-5 4.3e-5 1.24e-5 8.7e-5 0 0.01908-0.010522 0.03559-0.01907 0.05047-0.029057z" fill="#88c0d0" style="stroke-width:.0435008"/>
 <path id="path1182" d="m13.858279 7.5376986s0.01112 0.5513317-0.670549 0.876363c0.413947-0.052785 0.582768-0.2534452 0.582768-0.2534452s-0.03753 0.1385045-0.288893 0.2780745c0.880276-0.1604029 1.115175-0.9679913 1.115175-0.9679913-0.09409-0.2605478-0.738501 0.067001-0.738501 0.067001z" fill="url(#linearGradient20446)" style="fill:url(#linearGradient20446);stroke-width:.164415"/>
 <path id="path1184" d="m13.843811 7.1941378c0.02861 0.2808202-0.181235 0.5171169-0.181235 0.5171169 0.340191-0.1049787 0.420984-0.2587229 0.420984-0.2587229s-0.0074 0.1770253-0.189077 0.4002511c0.286575-0.071614 0.373123-0.2335511 0.373123-0.2335511s-0.0053 0.1320234-0.215038 0.3923592c0.811715-0.2742437 0.637616-1.2801489 0.38302-1.6961016z" fill="url(#linearGradient20158)" style="fill:url(#linearGradient20158);stroke-width:.164415"/>
 <path id="path1186" d="m13.727569 6.8629573s0.02949 0.3195235-0.06789 0.506874c0.279669-0.1580798 0.352965-0.3934936 0.352965-0.3934936s0.04423 0.1419359 0.0039 0.2593476c0.215351-0.2023286 0.232696-0.4091787 0.232696-0.4091787s0.04573 0.093618 0.03251 0.2234231c0.114104-0.1338303 0.131193-0.3599201 0.131193-0.3599201s0.05014 0.046773 0.05804 0.1951437c0.294901-0.4503975-0.415403-0.9856494-0.415403-0.9856494l-0.336228 0.5930108z" fill="url(#linearGradient19522)" style="fill:url(#linearGradient19522);stroke-width:.164415"/>
 <path id="path1188" d="m12.942654 6.0891562c0.0233-0.1702842 0.248069-0.188189 0.248069-0.188189 0.131896-0.1907703 0.283303-0.094575 0.283303-0.094575-0.06764-0.077048 0.161644-0.1061099 0.161644-0.1061099 0.08241 0.018257 0.241196 0.078225 0.381771 0.1742302 0.158387 0.1081684 0.290997 0.2239656 0.216419 0.5230523-0.03436-0.1004557-0.100823-0.149928-0.100823-0.149928s0.0315 0.1983827-0.04811 0.299547c-0.02251-0.1190444-0.0836-0.1431838-0.0836-0.1431838s0.02358 0.1475967-0.0756 0.3018982c-0.01567-0.1126388-0.07395-0.1775843-0.07395-0.1775843s0.03013 0.1124383-0.12418 0.3346661c-0.02693-0.3117795-0.204039-0.7041551-0.784949-0.7738176z" fill="url(#linearGradient19188)" style="fill:url(#linearGradient19188);stroke-width:.164415"/>
 <rect id="rect1198" x="6.5420084" y="4.9595084" width="3.8602836" height="3.8602836" rx=".76791" ry=".76791" fill="url(#linearGradient1129)" stroke-width=".314178" style="fill:url(#linearGradient1129);stroke-linecap:round;stroke-linejoin:round"/>
 <rect id="rect1200" x="6.3080802" y="4.7240105" width="4.332036" height="4.3328042" fill="none" opacity=".15" stroke-width=".26928" style="stroke-linecap:round;stroke-linejoin:round"/>
 <rect id="rect1202" x="6.5420084" y="4.9595084" width="3.8602836" height="3.8602836" rx=".76791" ry=".76791" fill="url(#linearGradient2014)" stroke-width=".314178" style="fill:url(#linearGradient2014);stroke-linecap:round;stroke-linejoin:round"/>
 <rect id="rect1204" x="6.61518" y="5.03268" width="3.7138686" height="3.7138686" rx=".73880625" ry=".73880625" fill="url(#linearGradient2546)" stroke-width=".314178" style="fill:url(#linearGradient2546);stroke-linecap:round;stroke-linejoin:round"/>
 <path id="path1208" transform="matrix(.3464042 0 0 .3464042 6.1237548 4.4583282)" d="m2.6666 4.1314v-0.5479l2.8097 1.0147v0.51722l-2.8097 1.0147v-0.5479l2.1149-0.72323z" style="fill:#2e3440;filter:url(#filter888);opacity:.25;stroke-width:.19551"/>
 <path id="path1210" transform="matrix(.3464042 0 0 .3464042 6.1237548 4.4583282)" d="m8.1961 6.9059v0.41641h-2.2442v-0.41641z" style="fill:#2e3440;filter:url(#filter888);opacity:.25;stroke-width:.19551"/>
 <path id="path1214" d="m6.9875344 5.8295207v-0.1897948l0.9732919 0.3514963v0.1791672l-0.9732919 0.3514963v-0.1897948l0.7326103-0.25053z" style="fill:url(#linearGradient1361);stroke-width:.0677255"/>
 <path id="path1216" d="m8.9029765 6.7906192v0.1442461h-0.7774003v-0.1442461z" style="fill:url(#linearGradient1361);stroke-width:.0677255"/>
 <ellipse id="ellipse1222" cx="9.6175928" cy="8.0355816" rx=".78471965" ry=".78433686" fill="url(#linearGradient1070)" stroke-width=".302376" style="fill:url(#linearGradient1070)"/>
 <path id="path1224" class="cls-1" d="m9.7561062 7.5112298a0.53930868 0.53930868 0 0 1 0.1310574 0.059374l0.070534-0.07088a0.0874491 0.0874491 0 0 1 0.1233494 0l0.07226 0.072605a0.0874491 0.0874491 0 0 1 0 0.1233491l-0.07594 0.075943a0.53620382 0.53620382 0 0 1 0.04994 0.125765h0.109541a0.0874491 0.0874491 0 0 1 0.08768 0.087449v0.1024062a0.0874491 0.0874491 0 0 1-0.08722 0.087218h-0.110577a0.53884082 0.53884082 0 0 1-0.05028 0.124384l0.07686 0.077207a0.0874491 0.0874491 0 0 1 0 0.1233491l-0.07215 0.072259a0.08756394 0.08756394 0 0 1-0.1234639 0l-0.07295-0.073065a0.54333506 0.54333506 0 0 1-0.1287564 0.057532v0.098839a0.0874491 0.0874491 0 0 1-0.087218 0.087218h-0.1022894a0.0874491 0.0874491 0 0 1-0.0872194-0.0872168v-0.0892893a0.54529154 0.54529154 0 0 1-0.1421002-0.0538501l-0.059833 0.059833a0.08767877 0.08767877 0 0 1-0.1233477 0l-0.072605-0.072605a0.08756394 0.08756394 0 0 1 0-0.1233491l0.054309-0.054311a0.54517812 0.54517812 0 0 1-0.0639754-0.1469349h-0.0738714a0.0874491 0.0874491 0 0 1-0.087218-0.0872181v-0.1024062a0.0874491 0.0874491 0 0 1 0.087218-0.087449h0.073066a0.54310822 0.54310822 0 0 1 0.0634-0.1488912l-0.05293-0.052815a0.08767877 0.08767877 0 0 1 0-0.1233491l0.072605-0.072605a0.0874491 0.0874491 0 0 1 0.1233477 0l0.057532 0.057532a0.53620382 0.53620382 0 0 1 0.1441701-0.05569v-0.085378a0.0874491 0.0874491 0 0 1 0.087449-0.087218h0.1024063a0.0874491 0.0874491 0 0 1 0.087218 0.087218zm-0.1567171 0.2397967a0.28305199 0.28305199 0 1 1-0.283052 0.2829386 0.28293857 0.28293857 0 0 1 0.283052-0.2829386z" fill="url(#linearGradient1424)" stroke-width=".0115064" style="fill:url(#linearGradient1424)"/>
</svg>
