<svg width="64" height="64" version="1.1" viewBox="0 0 16.933 16.933" xmlns="http://www.w3.org/2000/svg">
 <defs>
  <filter id="filter1178" x="-.048" y="-.048" width="1.096" height="1.096" color-interpolation-filters="sRGB">
   <feGaussianBlur stdDeviation="0.30691955"/>
  </filter>
  <linearGradient id="linearGradient1455" x1="8.0474" x2="8.0474" y1="2.308" y2="7.4851" gradientUnits="userSpaceOnUse">
   <stop stop-color="#eceff4" offset="0"/>
   <stop stop-color="#d8dee9" offset="1"/>
  </linearGradient>
  <linearGradient id="linearGradient1527" x1="8.4124" x2="8.4124" y1="9.3581" y2="14.438" gradientUnits="userSpaceOnUse">
   <stop stop-color="#eceff4" offset="0"/>
   <stop stop-color="#d8dee9" offset="1"/>
  </linearGradient>
  <linearGradient id="linearGradient1663" x1="5.617" x2="5.617" y1="9.0827" y2="14.788" gradientUnits="userSpaceOnUse">
   <stop stop-color="#4c566a" offset="0"/>
   <stop stop-color="#434c5e" offset="1"/>
  </linearGradient>
 </defs>
 <g stroke-linecap="round" stroke-linejoin="round">
  <rect transform="matrix(.99138 0 0 1 .072989 .0019055)" x=".79375" y=".90545" width="15.346" height="15.346" rx="3.0526" ry="3.0526" fill="#000000" filter="url(#filter1178)" opacity=".15" stroke-width="1.2489" style="mix-blend-mode:normal"/>
  <rect x=".92604" y=".92604" width="15.081" height="15.081" rx="3" ry="3" fill="#2e3440" stroke-width="1.2274"/>
  <rect x=".01215" y=".0060174" width="16.924" height="16.927" fill="none" opacity=".15" stroke-width="1.052"/>
 </g>
 <path d="m4.3801 1.6801h8.1729c1.4958 0 2.7 1.2042 2.7 2.7v3.8321h-13.573v-3.8321c0-1.4958 1.2042-2.7 2.7-2.7z" fill="#5e81ac" stroke-linecap="round" stroke-linejoin="round" stroke-width="1.1047"/>
 <path d="m12.553 15.23h-8.1729c-1.4958 0-2.7-1.2042-2.7-2.7v-3.8321h13.573v3.8321c0 1.4958-1.2042 2.7-2.7 2.7z" fill="url(#linearGradient1663)" stroke-linecap="round" stroke-linejoin="round" stroke-width="1.1047"/>
 <path d="m10.721 3.7639a0.16368 0.16368 0 0 0-0.12024-0.15773l-1.4452-1.4082a0.16139 0.16139 0 0 0-0.12619-0.06035h-2.5237a0.29352 0.29352 0 0 0-0.29398 0.29398v5.0291a0.29352 0.29352 0 0 0 0.29398 0.29398h3.9218a0.29352 0.29352 0 0 0 0.2926-0.29398q0-1.8494 0-3.6978zm-1.5284-1.0515 0.98205 0.91988h-0.98205zm-2.6526 4.7151v-4.9629h2.3235v1.3309a0.16505 0.16505 0 0 0 0.16505 0.16505h1.3643q0 1.7337 0 3.4669z" fill="url(#linearGradient1455)" stroke-width=".04572"/>
 <path d="m11.069 11.966c-0.0035 0.05237-5e-3 0.0952-5e-3 0.1157 0 0.0484-0.03383 0.08881-0.07913 0.09894l-0.13324 0.04091c-0.0099 3e-3 -0.0199 0.0045-0.02972 0.0045v2.75e-4h-0.02119c-0.04721 0-0.08694-0.03232-0.09817-0.07606l-0.11671-0.35555-2.76e-4 -8.23e-4 -1.37e-4 4.5e-5 -0.02119-0.06699-0.19766 0.3551c-0.0085 0.01529-0.02036 0.02753-0.0342 0.03625l1.37e-4 1.9e-4 -0.10301 0.06534c-0.04726 0.02995-0.10986 0.01598-0.13986-0.03128-0.0076-0.01196-0.01233-0.02488-0.01443-0.03799l-0.10019-0.56254-0.15164-0.10744-0.35583-0.063513c0.01219 0.01931 0.024562 0.0384 0.036802 0.05726 0.063372 0.0978 0.1226 0.18917 0.14223 0.28332 0.031641 0.15136-0.024842 0.27793-0.27683 0.36834 0.00724 0.0044 0.014429 0.0092 0.021549 0.01461 0.098168 0.07511 0.12182 0.18588-0.092279 0.46555-0.054063 0.07064-0.10054 0.13305-0.13958 0.1873-0.030686 0.0427-0.059314 0.08379-0.085658 0.12328l0.048169 0.35048c0.0065 0.04721-0.00486 0.09315-0.035246 0.13739-0.022554 0.03283-0.05589 0.06401-0.10054 0.09328-0.029492 0.01936-0.054696 0.03881-0.07534 0.05831-0.00815 0.0077-0.015573 0.01534-0.022282 0.02292l0.022142 0.10013c0.010593 0.04799-0.014792 0.09552-0.058219 0.11438l4.61e-5 9.1e-5 -0.037123 0.01617c-0.00733 0.02877-0.017944 0.05698-0.03155 0.08465-0.02201 0.04447-0.052507 0.08794-0.091365 0.13031-0.04137 0.04525-0.086937 0.0795-0.13661 0.10269-0.051873 0.02424-0.10652 0.03634-0.1641 0.03634h-0.17844c-0.055981 0-0.10141-0.04539-0.10141-0.10141 0-0.0458-0.0056-0.09438-0.016578-0.14588-0.011417-0.05328-0.028809-0.11036-0.052095-0.17127-0.026258-0.06867-0.046301-0.13082-0.060088-0.18643-0.014701-0.05926-0.022051-0.11059-0.022051-0.15406 0-0.03881 0.00329-0.07355 0.010001-0.10429 0.0079-0.03666 0.020636-0.0678 0.038168-0.09351 0.00181-0.0027 0.00387-0.01036 0.00617-0.02311 0.00354-0.01959 0.00535-0.04648 0.00535-0.08086 0-0.02616-0.00453-0.0537-0.013425-0.08255-0.00991-0.03196-0.025204-0.06607-0.045749-0.1021-0.025657-0.04498-0.045025-0.08127-0.05803-0.10881-0.018718-0.03949-0.028077-0.07118-0.028077-0.0947 0-0.16552-0.056754-0.202-0.13556-0.202-0.047346 0-0.10063 0.0072-0.15602 0.01475-0.068994 0.0094-0.14081 0.01909-0.21136 0.01909-0.05319 0-0.1057-0.02429-0.15693-0.07251-0.037757-0.03554-0.07725-0.08704-0.11794-0.15412-0.036892-0.06077-0.064747-0.10986-0.083649-0.14684-0.026027-0.05096-0.038991-0.09-0.038991-0.11611 0-0.0668-4.52e-5 -0.07251-9.05e-5 -0.07785-0.00272-0.28135-0.00519-0.54741 0.2662-0.74348 0.11251-0.15995 0.21382-0.26368 0.33569-0.32971 0.12689-0.06876 0.26807-0.09283 0.45897-0.09283 0.055981 0 0.10141 0.04543 0.10141 0.10141v0.14378l0.12164 0.05324 0.00173-0.0083c0.011598-0.05466 0.065339-0.08958 0.11999-0.07803l4.141e-4 9.1e-5v-9.1e-5c0.037625 0.0081 0.071867 0.01776 0.10301 0.02908 0.033328 0.01215 0.062146 0.02598 0.086662 0.04178 0.012832 0.0083 0.035888 0.01566 0.063561 0.0205 0.030958 0.0053 0.064154 0.0065 0.092186 9.06e-4 0.014882-3e-3 0.026027-0.0065 0.02927-0.01031l4.53e-5 -2.77e-4c-4.53e-5 0-9.14e-5 0-4.53e-5 -9.1e-5l6.379e-4 -0.0032c0.00255-0.01511 0.00477-0.03041 0.00658-0.04584l-0.1204 0.01073c-0.043288 0.0037-0.082553-0.02036-0.10004-0.05749l-1.902e-4 4.5e-5c-0.039708-0.083521-0.12363-0.1264-0.22897-0.18014-0.11324-0.057808-0.24656-0.12588-0.39016-0.26259-0.48459 0.17191-0.63942 0.19556-0.67823 0.08748-0.022833-0.06337 0.00995-0.1141 0.054104-0.18241 0.039814-0.06159 0.096479-0.14917 0.096479-0.23145 0-0.04406 0.028175-0.0816 0.067488-0.09557l0.40792-0.18633h-9.14e-5c-0.043971-0.0077-0.098442-0.01744-0.1436-0.23693-0.00922-0.04507 0.013153-0.08926 0.051914-0.10963l-4.61e-5 -9.1e-5c0.031822-0.01676 0.069175-0.03963 0.11205-0.06867 0.043469-0.02945 0.095475-0.06726 0.15611-0.11356l0.00387-0.0029c-0.20739 0.03228-0.40678 0.08922-0.59796 0.1709l4.53e-5 1.37e-4c-0.15954 0.06862-0.30825 0.14899-0.44591 0.24131-0.13789 0.09255-0.26565 0.19762-0.38318 0.31556l-4.14e-4 4.14e-4c-0.11794 0.11753-0.223 0.24528-0.31551 0.38318-0.092369 0.13762-0.17273 0.28633-0.24136 0.44591-7.252e-4 0.0016-0.00148 0.0032-0.00222 0.0049-0.066574 0.15597-0.11643 0.3177-0.14999 0.48518-0.033839 0.16908-0.050729 0.34368-0.050729 0.52372s0.01694 0.35468 0.05077 0.52376c0.00181 0.0091 0.0037 0.01822 0.00568 0.02739l0.46897 0.22424c0.035065 0.0168 0.056071 0.05118 0.057347 0.08753h4.61e-5c0.00502 0.13406-0.030727 0.23318-0.067438 0.33487-0.027303 0.07561-0.055199 0.15296-0.059676 0.24401-4.486e-4 0.0096-0.00222 0.01886-0.00519 0.02757 0.090909 0.13415 0.19378 0.25866 0.30889 0.3734l4.148e-4 4.15e-4v-4.6e-5c0.11748 0.11794 0.24528 0.22305 0.38318 0.31556 0.13762 0.09232 0.28633 0.17273 0.44591 0.24136 0.00165 6.91e-4 0.00321 0.0014 0.00486 0.0022 0.15588 0.06616 0.31766 0.11602 0.48514 0.14954 0.16908 0.03383 0.34368 0.05073 0.52372 0.05073 0.17999 0 0.35464-0.01689 0.52367-0.05073 0.16926-0.03388 0.33263-0.08447 0.49002-0.15164l-9.14e-5 -1.37e-4c0.15958-0.06862 0.30829-0.14903 0.44596-0.24136 0.13785-0.09251 0.2656-0.19762 0.38318-0.31556l4.14e-4 -3.62e-4c0.11789-0.11748 0.223-0.24528 0.31546-0.38318 0.09237-0.13762 0.17273-0.28633 0.24136-0.44591 7.25e-4 -0.0016 0.0014-0.0032 0.0022-0.0049 0.0662-0.15588 0.11607-0.31761 0.14958-0.48504 0.03356-0.16835 0.0505-0.34213 0.05064-0.5213zm-3.6957-2.5886c0.34195-0.14616 0.70672-0.21921 1.0932-0.21921 0.19314 0 0.38098 0.01821 0.56326 0.0547 0.18004 0.03607 0.35505 0.09018 0.52486 0.16232 0.00181 6.9e-4 0.0037 0.0014 0.00551 0.0022 0.1694 0.07287 0.32893 0.15926 0.47838 0.25958 0.14908 0.09999 0.28702 0.21341 0.41368 0.34048l4.14e-4 4.15e-4c0.12707 0.12666 0.24049 0.2646 0.34048 0.41368 0.10022 0.1494 0.1867 0.30898 0.25958 0.47838l-1.9e-4 4.6e-5 1.9e-4 3.11e-4c0.07324 0.17141 0.12808 0.34811 0.16451 0.52993 0.03648 0.18227 0.05471 0.37012 0.05471 0.5633 0 0.19319-0.01822 0.38103-0.05471 0.5633-0.03603 0.18008-0.09022 0.3551-0.16237 0.5249-6.9e-4 0.0018-0.0014 0.0036-0.0021 0.0054-0.07287 0.1694-0.15931 0.32893-0.25958 0.47838-0.09999 0.14908-0.21341 0.28702-0.34048 0.41368l-4.14e-4 4.14e-4c-0.12665 0.12712-0.26463 0.24054-0.41371 0.34054-0.1494 0.10027-0.30898 0.1867-0.47838 0.25958l-4.53e-5 -1.38e-4 -3.63e-4 1.38e-4c-0.17141 0.07324-0.34811 0.12812-0.52993 0.16451-0.18232 0.03648-0.37012 0.0547-0.5633 0.0547-0.19319 0-0.38103-0.01822-0.5633-0.0547-0.18004-0.03603-0.355-0.09013-0.52481-0.16232-0.00189-6.9e-4 -0.0037-0.0014-0.00551-0.0022-0.16941-0.0729-0.32894-0.15929-0.47843-0.2596-0.14903-0.09999-0.28702-0.21341-0.41368-0.34048l-4.14e-4 -4.14e-4c-0.12703-0.12661-0.24044-0.2646-0.34044-0.41367-0.10027-0.1494-0.1867-0.30898-0.25958-0.47838l1.366e-4 -9.2e-5 -1.366e-4 -3.28e-4c-0.073241-0.1714-0.12812-0.34806-0.16451-0.52992-0.03639-0.18232-0.054655-0.37012-0.054655-0.56335 0-0.19318 0.018265-0.38103 0.054746-0.5633 0.036028-0.18004 0.090178-0.35505 0.16237-0.5249 6.897e-4 -0.0018 0.0014-0.0036 0.00214-0.0054 0.072871-0.1694 0.15926-0.32898 0.25958-0.47838 0.099995-0.14903 0.21341-0.28702 0.34044-0.41368l4.148e-4 -4.14e-4c0.12666-0.12707 0.26464-0.24049 0.41368-0.34049 0.14944-0.10027 0.30902-0.1867 0.47842-0.25958l4.61e-5 1.37e-4zm-1.2701 3.6027c0.022051 0.05105 0.046161 0.10159 0.072278 0.15136 0.00453-0.01287 0.00913-0.02571 0.013746-0.0384 0.023607-0.06534 0.046712-0.1294 0.053692-0.2004l-0.21282-0.10173c0.021278 0.06315 0.045617 0.12616 0.073101 0.1888l-1.375e-4 4.6e-5zm3.5187-3.3309c-0.094059-0.0473-0.19195-0.08913-0.29368-0.12529-0.37656 0.08671-0.48546 0.0347-0.60622-0.02306-0.061413-0.02936-0.12693-0.06073-0.27149-0.06073h-0.08648c-0.00872 0-0.026941 0.0074-0.054696 0.02224-0.037073 0.01986-0.083603 0.05105-0.13963 0.09379-0.059907 0.04571-0.11506 0.08561-0.16561 0.11986-0.029451 0.01995-0.056392 0.03726-0.080864 0.05205 0.048309 0.01114 0.085201 0.04137 0.11091 0.26734h-1.901e-4c0.00469 0.04214-0.017763 0.08438-0.058442 0.10296l-0.38327 0.17506c-0.018677 0.11123-0.079217 0.20492-0.12401 0.27419-9.054e-4 0.0015-0.00198 0.0026-0.00305 0.0033 0.048581-0.02904 0.16556-0.12712 0.44381-0.22794 0.037806-0.01639 0.083421-0.0085 0.11346 0.02311 0.13657 0.14282 0.27058 0.21118 0.38249 0.26834 0.1173 0.05986 0.2146 0.10954 0.284 0.21131l0.16369-0.01461c0.00593-0.0011 0.012009-0.0016 0.018216-0.0016 0.055981 0 0.10141 0.04539 0.10141 0.10136 0 0.03155-0.00148 0.06401-0.00436 0.09703-0.00272 0.03041-0.00683 0.06192-0.012371 0.09429-1.901e-4 0.0012-3.63e-4 0.0024-5.869e-4 0.0036-0.00477 0.02767-0.014792 0.05238-0.0289 0.07429-0.036028 0.05602-0.094516 0.08726-0.16036 0.10036-0.053421 0.01064-0.1131 0.0092-0.16657-9e-5 -0.052919-0.0092-0.10283-0.02717-0.13803-0.04982-0.00741-0.0048-0.015936-0.0093-0.025616-0.01365l-0.00469 0.02214h-9.13e-5c-0.0014 0.0065-0.00346 0.01305-0.00626 0.0194-0.022323 0.05118-0.081868 0.07457-0.1331 0.05228l-0.28907-0.1266c-0.039633-0.01375-0.068122-0.05146-0.068122-0.09579v-0.1052c-0.10652 0.0068-0.18981 0.0263-0.26172 0.06529-0.093693 0.05073-0.1762 0.13826-0.27314 0.27766-0.00716 0.01155-0.016849 0.02182-0.028768 0.02995-0.19807 0.13598-0.19602 0.35446-0.19387 0.58577 4.486e-4 0.0468 9.055e-4 0.06529 9.055e-4 0.07945 0 0.0048 0.00535 0.0032 0.016075 0.0242 0.01694 0.0332 0.042416 0.07798 0.076526 0.13415 0.030595 0.05041 0.058721 0.08762 0.083923 0.11132 0.012009 0.01133 0.018174 0.01703 0.018306 0.01703 0.061141 0 0.12406-0.0085 0.18446-0.01671 0.064286-0.0087 0.12616-0.01708 0.18291-0.01708 0.19679 0 0.33834 0.07301 0.33834 0.40473 0 0.0061 0.0028-0.0033 0.00831 0.0084 0.011236 0.02375 0.028217 0.05552 0.05091 0.09534 0.027673 0.04854 0.048811 0.09607 0.063191 0.1425 0.015252 0.04917 0.022965 0.09657 0.022965 0.14191 0 0.04429-0.00321 0.08337-0.00936 0.11725-0.00757 0.04128-0.020273 0.07488-0.037946 0.10072-0.00263 0.0039-0.00502 0.01096-0.00733 0.02142-0.00346 0.01612-0.00519 0.03689-0.00519 0.06233 0 0.02827 0.00527 0.06351 0.015705 0.1057 0.011417 0.04589 0.02904 0.10009 0.052968 0.16269 0.026669 0.06981 0.047025 0.13693 0.06082 0.20136 0.00634 0.0295 0.011277 0.05835 0.01475 0.08648h0.083649c0.028768 0 0.054976-0.0055 0.078534-0.01648 0.025706-0.01206 0.050178-0.03069 0.073283-0.05598 0.025253-0.02762 0.044885-0.05552 0.058812-0.08365 0.012191-0.02452 0.019681-0.04885 0.022331-0.07296 0.00255-0.03648 0.024702-0.07036 0.060499-0.08598l0.010273-0.0045-0.014199-0.0641c-0.0056-0.0252-0.00148-0.05251 0.013466-0.07602 0.020726-0.03255 0.046622-0.06346 0.077439-0.09255 0.029953-0.02836 0.064426-0.0552 0.1031-0.08054 0.022743-0.01488 0.037575-0.02771 0.045066-0.03863 4.61e-5 -4.5e-5 9.14e-5 0 1.367e-4 9.1e-5l5.869e-4 4.14e-4 -0.052005-0.37815c-0.00494-0.02506-5.005e-4 -0.05196 0.014569-0.07502 0.02927-0.0447 0.066525-0.09863 0.11182-0.16164 0.043922-0.061 0.091594-0.12511 0.14278-0.192 0.11246-0.14698 0.13365-0.17949 0.13031-0.182-0.00691-0.0054-0.023788-0.01228-0.041461-0.0195-0.069085-0.02827-0.14515-0.0595-0.181-0.1615-0.00198-0.0051-0.00354-0.01041-0.00469-0.01589-0.011367-0.05466 0.023739-0.10826 0.078444-0.11958 0.27496-0.05749 0.3429-0.11849 0.32875-0.18611-0.01196-0.05735-0.061141-0.13319-0.11374-0.21437-0.052416-0.08086-0.1078-0.16638-0.14506-0.2598-0.00882-0.01836-0.01219-0.03954-0.00845-0.06114 0.00963-0.05511 0.062096-0.092 0.11721-0.08237l0.58129 0.10374-4.61e-5 4.15e-4c0.014289 0.0025 0.028217 0.0081 0.040868 0.01703l0.19757 0.13995c0.02506 0.01447 0.04379 0.03954 0.04913 0.07032l0.07393 0.415 0.25679-0.46135c0.0116-0.02493 0.0332-0.04511 0.06145-0.05401 0.05338-0.01685 0.11031 0.01278 0.12716 0.06616l0.092 0.29067h-1.37e-4l0.08589 0.26163c0.0032-0.0558 9e-3 -0.12835 0.01831-0.2009 0.0095-0.07383 0.02278-0.14753 0.041-0.20405 0.01333-0.04146 0.03069-0.07667 0.05278-0.10287-0.01511-0.0964-0.03574-0.19128-0.062-0.28456-0.03169-0.11251-0.0716-0.22223-0.11968-0.32898-0.04867-0.10757-0.10342-0.21013-0.16428-0.30788-0.0615-0.09867-0.1284-0.19159-0.20095-0.27903-0.07333-0.08798-0.1524-0.17031-0.23697-0.24702-0.083967-0.076074-0.17442-0.14721-0.27131-0.21328-0.095931-0.065751-0.19579-0.12479-0.29925-0.17684zm-0.70042 3.6089-5.005e-4 -0.0039-5.868e-4 -4.14e-4c5.004e-4 9.88e-4 0.00156 0.0073 0.00107 0.0043zm-1.4867-2.7062c0.00387 0.01082 0.0121 0.0099 0.028719 1.9e-4z" fill="url(#linearGradient1527)" stroke="#d8dee9" stroke-width=".04566"/>
</svg>
