<svg width="64" height="64" version="1.1" viewBox="0 0 16.933 16.933" xmlns="http://www.w3.org/2000/svg" xmlns:xlink="http://www.w3.org/1999/xlink">
 <defs>
  <filter id="filter1178" x="-.047999" y="-.047999" width="1.096" height="1.096" color-interpolation-filters="sRGB">
   <feGaussianBlur stdDeviation="0.30691668"/>
  </filter>
  <linearGradient id="linearGradient1340" x1="8.355" x2="8.3996" y1="16.007" y2=".79375" gradientUnits="userSpaceOnUse">
   <stop stop-color="#d8dee9" offset="0"/>
   <stop stop-color="#eceff4" offset="1"/>
  </linearGradient>
  <linearGradient id="linearGradient1313" x1="8.2364" x2="8.24" y1="1.1606" y2="3.5817" gradientUnits="userSpaceOnUse">
   <stop stop-color="#2e3440" offset="0"/>
   <stop stop-color="#4c566a" offset="1"/>
  </linearGradient>
  <linearGradient id="linearGradient6495" x1="12.05" x2="12.066" y1="1.9716" y2="2.8515" gradientUnits="userSpaceOnUse">
   <stop stop-color="#ebcb8b" offset="0"/>
   <stop stop-color="#eac57b" offset="1"/>
  </linearGradient>
  <linearGradient id="linearGradient6567" x1="13.286" x2="13.275" y1="1.9581" y2="2.8476" gradientUnits="userSpaceOnUse">
   <stop stop-color="#a3be8c" offset="0"/>
   <stop stop-color="#97b67c" offset="1"/>
  </linearGradient>
  <linearGradient id="linearGradient6639" x1="14.461" x2="14.467" y1="1.9502" y2="2.8203" gradientUnits="userSpaceOnUse">
   <stop stop-color="#bf616a" offset="0"/>
   <stop stop-color="#b54a55" offset="1"/>
  </linearGradient>
  <filter id="filter2347-3" x="-.024546" y="-.029999" width="1.0491" height="1.06" color-interpolation-filters="sRGB">
   <feGaussianBlur stdDeviation="0.14938518"/>
  </filter>
  <filter id="filter2161-7" x="-.024009" y="-.030842" width="1.048" height="1.0617" color-interpolation-filters="sRGB">
   <feGaussianBlur stdDeviation="0.146119"/>
  </filter>
  <linearGradient id="linearGradient2575" x1="26.221" x2="26.221" y1="14.474" y2="3.3043" gradientTransform="matrix(.69494 0 0 .69494 -9.9592 2.4134)" gradientUnits="userSpaceOnUse">
   <stop stop-color="#2e3440" stop-opacity=".15" offset="0"/>
   <stop stop-color="#2e3440" stop-opacity="0" offset="1"/>
  </linearGradient>
  <filter id="filter1178-3" x="-.047999" y="-.047999" width="1.096" height="1.096" color-interpolation-filters="sRGB">
   <feGaussianBlur stdDeviation="0.30691668"/>
  </filter>
  <filter id="filter1321" x="-.066692" y="-.085672" width="1.1334" height="1.1713" color-interpolation-filters="sRGB">
   <feGaussianBlur stdDeviation="0.27168811"/>
  </filter>
  <linearGradient id="linearGradient1129" x1="8.355" x2="8.3996" y1="16.007" y2=".79375" gradientUnits="userSpaceOnUse" xlink:href="#linearGradient1340"/>
  <filter id="filter1178-6" x="-.047999" y="-.047999" width="1.096" height="1.096" color-interpolation-filters="sRGB">
   <feGaussianBlur stdDeviation="0.30691668"/>
  </filter>
  <linearGradient id="linearGradient1340-7" x1="8.3639" x2="8.3412" y1="15.481" y2="1.4263" gradientUnits="userSpaceOnUse">
   <stop stop-color="#d8dee9" offset="0"/>
   <stop stop-color="#eceff4" offset="1"/>
  </linearGradient>
  <filter id="filter11783" x="-.033457" y="-.056663" width="1.0669" height="1.1133" color-interpolation-filters="sRGB">
   <feGaussianBlur stdDeviation="0.13174676"/>
  </filter>
  <filter id="filter11787" x="-.044456" y="-.075292" width="1.0889" height="1.1506" color-interpolation-filters="sRGB">
   <feGaussianBlur stdDeviation="0.17506133"/>
  </filter>
  <filter id="filter1178-5" x="-.047999" y="-.047999" width="1.096" height="1.096" color-interpolation-filters="sRGB">
   <feGaussianBlur stdDeviation="0.30691668"/>
  </filter>
  <linearGradient id="linearGradient1340-3" x1="8.6644" x2="8.6644" y1="15.931" y2=".79375" gradientUnits="userSpaceOnUse">
   <stop stop-color="#5e81ac" offset="0"/>
   <stop stop-color="#88c0d0" offset="1"/>
  </linearGradient>
  <filter id="filter1178-56" x="-.047999" y="-.047999" width="1.096" height="1.096" color-interpolation-filters="sRGB">
   <feGaussianBlur stdDeviation="0.30691668"/>
  </filter>
  <linearGradient id="linearGradient1340-2" x1="8.142" x2="8.142" y1="15.389" y2="1.2852" gradientUnits="userSpaceOnUse">
   <stop stop-color="#2e3440" offset="0"/>
   <stop stop-color="#4c566a" offset="1"/>
  </linearGradient>
  <linearGradient id="linearGradient9038" x1="57.671" x2="50.253" y1="3.5919" y2="1.1392" gradientUnits="userSpaceOnUse">
   <stop stop-color="#5e81ac" offset="0"/>
   <stop stop-color="#88c0d0" offset="1"/>
  </linearGradient>
  <linearGradient id="linearGradient9250" x1="54.154" x2="53.904" y1="-.074123" y2="-.34236" gradientUnits="userSpaceOnUse">
   <stop stop-color="#5e81ac" offset="0"/>
   <stop stop-color="#81a1c1" offset="1"/>
  </linearGradient>
  <linearGradient id="linearGradient9538" x1="55.002" x2="54.878" y1="-.26267" y2="-.38509" gradientUnits="userSpaceOnUse">
   <stop stop-color="#5e81ac" offset="0"/>
   <stop stop-color="#81a1c1" offset="1"/>
  </linearGradient>
  <linearGradient id="linearGradient9778" x1="51.267" x2="50.278" y1="6.6" y2="5.7432" gradientUnits="userSpaceOnUse">
   <stop stop-color="#88c0d0" offset="0"/>
   <stop stop-color="#eceff4" stop-opacity=".8" offset=".68217"/>
   <stop stop-color="#88c0d0" offset="1"/>
  </linearGradient>
  <linearGradient id="linearGradient10960" x1="52.128" x2="51.956" y1="4.3937" y2="4.2556" gradientTransform="translate(.0093016 .002067)" gradientUnits="userSpaceOnUse">
   <stop stop-color="#d8dee9" offset="0"/>
   <stop stop-color="#eceff4" offset="1"/>
  </linearGradient>
  <linearGradient id="linearGradient11270" x1="52.396" x2="51.942" y1="4.5925" y2="4.2701" gradientUnits="userSpaceOnUse">
   <stop stop-color="#2e3440" offset="0"/>
   <stop stop-color="#4c566a" offset="1"/>
  </linearGradient>
  <filter id="filter11568" x="-.056371" y="-.059896" width="1.1127" height="1.1198" color-interpolation-filters="sRGB">
   <feGaussianBlur stdDeviation="0.0045391125"/>
  </filter>
  <linearGradient id="linearGradient11846" x1="52.544" x2="51.916" y1="4.6115" y2="4.272" gradientUnits="userSpaceOnUse">
   <stop stop-color="#eac57b" offset="0"/>
   <stop stop-color="#ebcb8b" offset="1"/>
  </linearGradient>
  <linearGradient id="linearGradient12317" x1="55.526" x2="51.625" y1="-.67835" y2="5.3778" gradientUnits="userSpaceOnUse">
   <stop stop-color="#88c0d0" offset="0"/>
   <stop stop-color="#5e81ac" offset="1"/>
  </linearGradient>
  <linearGradient id="linearGradient19188" x1="43.965" x2="39.895" y1="5.3156" y2="1.2218" gradientUnits="userSpaceOnUse">
   <stop stop-color="#88c0d0" offset="0"/>
   <stop stop-color="#81a1c1" offset=".48461"/>
   <stop stop-color="#5e81ac" offset="1"/>
  </linearGradient>
  <linearGradient id="linearGradient19522" x1="46.368" x2="44.327" y1="8.6309" y2="3.8588" gradientUnits="userSpaceOnUse">
   <stop stop-color="#88c0d0" offset="0"/>
   <stop stop-color="#81a1c1" offset="1"/>
  </linearGradient>
  <linearGradient id="linearGradient20158" x1="44.934" x2="48.433" y1="13.68" y2="4.5609" gradientUnits="userSpaceOnUse">
   <stop stop-color="#88c0d0" offset="0"/>
   <stop stop-color="#5e81ac" offset="1"/>
  </linearGradient>
  <linearGradient id="linearGradient20446" x1="41.18" x2="47.915" y1="16.784" y2="11.323" gradientUnits="userSpaceOnUse">
   <stop stop-color="#5e81ac" offset="0"/>
   <stop stop-color="#81a1c1" offset="1"/>
  </linearGradient>
  <linearGradient id="linearGradient2635" x1="32.913" x2="30.899" y1="7.0913" y2="6.2755" gradientTransform="translate(16.404)" gradientUnits="userSpaceOnUse">
   <stop stop-color="#81a1c1" offset="0"/>
   <stop stop-color="#5e81ac" offset="1"/>
  </linearGradient>
  <linearGradient id="linearGradient3005" x1="36.089" x2="31.853" y1="14.529" y2="10.976" gradientTransform="translate(16.404)" gradientUnits="userSpaceOnUse">
   <stop stop-color="#5e81ac" offset="0"/>
   <stop stop-color="#5e81ac" offset="1"/>
  </linearGradient>
  <linearGradient id="linearGradient4271" x1="35.78" x2="32.475" y1="14.686" y2="11.169" gradientTransform="translate(16.404)" gradientUnits="userSpaceOnUse">
   <stop stop-color="#2e3440" stop-opacity=".4" offset="0"/>
   <stop stop-color="#2e3440" stop-opacity=".1" offset="1"/>
  </linearGradient>
  <linearGradient id="linearGradient5573" x1="42.903" x2="33.12" y1="14.677" y2="4.1864" gradientUnits="userSpaceOnUse">
   <stop stop-color="#d8dee9" offset="0"/>
   <stop stop-color="#eceff4" offset="1"/>
  </linearGradient>
  <filter id="filter1178-9" x="-.047999" y="-.047999" width="1.096" height="1.096" color-interpolation-filters="sRGB">
   <feGaussianBlur stdDeviation="0.30691668"/>
  </filter>
  <linearGradient id="linearGradient2014" x1="7.9709" x2="7.9827" y1="15.584" y2="1.1618" gradientUnits="userSpaceOnUse">
   <stop stop-color="#2e3440" stop-opacity=".2" offset="0"/>
   <stop stop-color="#4c566a" stop-opacity=".2" offset="1"/>
  </linearGradient>
  <linearGradient id="linearGradient2546" x1="7.9709" x2="7.9827" y1="15.584" y2="1.1618" gradientTransform="matrix(.96209 0 0 .96209 .321 .321)" gradientUnits="userSpaceOnUse">
   <stop stop-color="#2e3440" offset="0"/>
   <stop stop-color="#4c566a" offset="1"/>
  </linearGradient>
  <filter id="filter888" x="-.062856" y="-.09296" width="1.1257" height="1.1859" color-interpolation-filters="sRGB">
   <feGaussianBlur stdDeviation="0.14481734"/>
  </filter>
  <style>.cls-1{fill-rule:evenodd;}</style>
  <linearGradient id="linearGradient1070" x1="24.255" x2="24.483" y1="-11.18" y2="1.0418" gradientTransform="matrix(.97275 0 0 .83606 6.2895 2.3313)" gradientUnits="userSpaceOnUse">
   <stop stop-color="#eceff4" offset="0"/>
   <stop stop-color="#d8dee9" offset="1"/>
  </linearGradient>
  <linearGradient id="linearGradient1424" x1="30.251" x2="30.458" y1="-6.3156" y2="2.5274" gradientUnits="userSpaceOnUse">
   <stop stop-color="#4c566a" offset="0"/>
   <stop stop-color="#2e3440" offset="1"/>
  </linearGradient>
  <linearGradient id="linearGradient1608" x1="5.2049" x2="5.2049" y1="7.1604" y2="3.8654" gradientUnits="userSpaceOnUse">
   <stop stop-color="#d8dee9" offset="0"/>
   <stop stop-color="#eceff4" offset="1"/>
  </linearGradient>
  <linearGradient id="linearGradient1614" x1="8.5029" x2="8.5394" y1="5.2206" y2="11.916" gradientUnits="userSpaceOnUse">
   <stop stop-color="#4c566a" offset="0"/>
   <stop stop-color="#2e3440" offset="1"/>
  </linearGradient>
 </defs>
 <g stroke-linecap="round" stroke-linejoin="round">
  <rect transform="matrix(.99138 0 0 1 .072989 2.5202e-7)" x=".79375" y="1.0171" width="15.346" height="15.346" rx="3.0526" ry="3.0526" fill="#2e3440" filter="url(#filter1178)" opacity=".2" stroke-width="1.2489" style="mix-blend-mode:normal"/>
  <rect x=".92604" y=".92604" width="15.081" height="15.081" rx="3" ry="3" fill="url(#linearGradient1340)" stroke-width="1.2274"/>
  <rect x=".01215" y=".0060174" width="16.924" height="16.927" fill="none" opacity=".15" stroke-width="1.052"/>
 </g>
 <style type="text/css"><![CDATA[
	.st0{fill-rule:evenodd;clip-rule:evenodd;}
]]></style>
 <path d="m3.926 0.92604h9.081c1.662 0 3 1.338 3 3h-15.081c0-1.662 1.338-3 3-3z" fill="url(#linearGradient1313)" stroke-linecap="round" stroke-linejoin="round" stroke-width="1.2274"/>
 <ellipse cx="12.06" cy="2.426" rx=".44454" ry=".50993" fill="url(#linearGradient6495)"/>
 <ellipse cx="13.288" cy="2.426" rx=".44454" ry=".50993" fill="url(#linearGradient6567)"/>
 <ellipse cx="14.482" cy="2.426" rx=".44454" ry=".50993" fill="url(#linearGradient6639)"/>
 <g transform="translate(-.31263 .23467)">
  <g transform="matrix(.25597 0 0 .25597 1.8572 4.4885)">
   <g transform="translate(-.0076499 -.0030174)">
    <g stroke-linecap="round" stroke-linejoin="round">
     <rect transform="matrix(.99138 0 0 1 .072989 2.5202e-7)" x=".79375" y="1.0171" width="15.346" height="15.346" rx="3.0526" ry="3.0526" fill="#2e3440" filter="url(#filter1178-3)" opacity=".2" stroke-width="1.2489" style="mix-blend-mode:normal"/>
     <rect x=".92604" y=".92604" width="15.081" height="15.081" rx="3" ry="3" fill="url(#linearGradient1129)" stroke-width="1.2274"/>
     <rect x=".01215" y=".0060174" width="16.924" height="16.927" fill="none" opacity=".15" stroke-width="1.052"/>
    </g>
   </g>
   <g stroke-linecap="round" stroke-linejoin="round">
    <path transform="matrix(1.0382 0 0 1.0382 -.38141 -.34637)" d="m4.3033 5.6483h3.1453c0.39427 0 0.42842-0.70505 0.88015-0.70505h4.6221c0.31286 0 0.56473 0.25068 0.56473 0.56206v6.4869c0 0.31138-0.25187 0.56206-0.56473 0.56206h-8.6476c-0.31286 0-0.56473-0.25068-0.56473-0.56206v-5.7818c0-0.31138 0.25187-0.56206 0.56473-0.56206z" fill="#2e3440" filter="url(#filter1321)" opacity=".25" stroke-width=".10954"/>
    <path transform="matrix(.70189 0 0 .70189 2.451 2.3047)" d="m2.0282 2.7764h4.6989c0.58902 0 0.64003 1.0583 1.3149 1.0583h6.9051c0.4674 0 0.84368 0.37628 0.84368 0.84368v9.2054c0 0.4674-0.37628 0.84368-0.84368 0.84368h-12.919c-0.4674 0-0.84368-0.37628-0.84368-0.84368v-10.264c0-0.4674 0.37628-0.84368 0.84368-0.84368z" fill="#2e3440" filter="url(#filter2347-3)" opacity=".15" stroke-width=".16404"/>
    <path d="m3.9194 3.7165h3.2655c0.40933 0 0.44632 0.83737 0.91378 0.87529l4.7986 0.38932c0.32375 0.026267 0.58631 0.26149 0.58631 0.58631v6.3972c0 0.32482-0.26149 0.58631-0.58631 0.58631h-8.9779c-0.32481 0-0.58631-0.26149-0.58631-0.58631v-7.662c0-0.32482 0.26149-0.58631 0.58631-0.58631z" fill="#81a1c1" stroke-width=".114"/>
    <path d="m3.9194 3.7165h3.2655c0.40933 0 0.44606 0.87571 0.91378 0.91025l4.7986 0.35436c0.32393 0.023921 0.58631 0.26149 0.58631 0.58631v6.3972c0 0.32482-0.26149 0.58631-0.58631 0.58631h-8.9779c-0.32481 0-0.58631-0.26149-0.58631-0.58631v-7.662c0-0.32482 0.26149-0.58631 0.58631-0.58631z" fill="#2e3440" opacity=".15" stroke-width=".114"/>
    <path transform="matrix(.69494 0 0 .69494 -9.9592 2.4134)" d="m19.971 3.8487h4.6989c0.58902 0 0.64003-1.0533 1.3149-1.0533h6.9051c0.4674 0 0.84368 0.3745 0.84368 0.83969v9.691c0 0.46519-0.37628 0.83969-0.84368 0.83969h-12.919c-0.4674 0-0.84368-0.3745-0.84368-0.83969v-8.6377c0-0.46519 0.37628-0.83969 0.84368-0.83969z" fill="#2e3440" filter="url(#filter2161-7)" opacity=".5" stroke-width=".16365"/>
    <path d="m3.9196 5.351h3.2655c0.40934 0 0.44478-0.73198 0.91378-0.73198h4.7987c0.32482 0 0.58631 0.26026 0.58631 0.58354v6.7347c0 0.32328-0.26149 0.58354-0.58631 0.58354h-8.978c-0.32482 0-0.58631-0.26026-0.58631-0.58354v-6.0027c0-0.32328 0.26149-0.58354 0.58631-0.58354z" fill="#81a1c1" stroke-width=".11373"/>
    <path d="m3.9196 5.351h3.2655c0.40934 0 0.44478-0.73198 0.91378-0.73198h4.7987c0.32482 0 0.58631 0.26026 0.58631 0.58354v6.7347c0 0.32328-0.26149 0.58354-0.58631 0.58354h-8.978c-0.32482 0-0.58631-0.26026-0.58631-0.58354v-6.0027c0-0.32328 0.26149-0.58354 0.58631-0.58354z" fill="url(#linearGradient2575)" stroke-width=".11373"/>
   </g>
  </g>
  <g transform="matrix(.25597 0 0 .25597 6.6176 9.2502)">
   <rect transform="matrix(.99138 0 0 1 .072989 2.5202e-7)" x=".79375" y="1.0171" width="15.346" height="15.346" rx="3.0526" ry="3.0526" fill="#2e3440" filter="url(#filter1178-6)" opacity=".2" stroke-linecap="round" stroke-linejoin="round" stroke-width="1.2489" style="mix-blend-mode:normal"/>
   <rect x=".92604" y=".92604" width="15.081" height="15.081" rx="3" ry="3" fill="url(#linearGradient1340-7)" stroke-linecap="round" stroke-linejoin="round" stroke-width="1.2274"/>
   <path transform="matrix(.90047 0 0 .90047 24.644 8.9492)" d="m-19.85 0.6113h-0.04999c-0.65374 0-1.2482 0.26757-1.6793 0.69865-0.43108 0.43108-0.69865 1.0256-0.69865 1.6793 0 0.010229 0 0.020459 1.54e-4 0.030457 1.54e-4 0.01023 3.2e-4 0.020458 6.1e-4 0.03061 3.19e-4 0.010075 6.1e-4 0.020305 8.96e-4 0.03038 4.65e-4 0.010075 8.96e-4 0.020305 0.0014 0.03038 6.1e-4 0.010075 0.0012 0.020151 0.0018 0.030226 6.1e-4 0.010075 0.0014 0.020151 2e-3 0.030226 7.56e-4 0.00992 0.0016 0.019997 0.0025 0.029918v1.537e-4c0.0027 0.029918 0.0059 0.059759 0.0096 0.08937 0.06857 0.53368 0.31592 1.0137 0.67978 1.3775 0.38394 0.38394 0.8977 0.63843 1.467 0.68935 0.0099 9.283e-4 0.02 0.00177 0.02992 0.00253h1.53e-4c0.0099 7.559e-4 0.02 0.00154 0.03007 0.00206 0.01007 7.558e-4 0.02015 0.00122 0.03022 0.00177h1.54e-4c0.0099 4.65e-4 0.02015 9.281e-4 0.03022 0.00139 0.01023 4.652e-4 0.02031 7.557e-4 0.03038 9.282e-4h1.54e-4c0.01007 3.198e-4 0.02031 4.651e-4 0.03046 6.103e-4 0.01007 1.539e-4 0.02031 3.199e-4 0.03046 3.199e-4h0.04999c0.65343 0 1.248-0.2678 1.6793-0.69896 0.43109-0.43107 0.69881-1.0255 0.69881-1.6791 0-0.65374-0.26757-1.2483-0.69865-1.6793-0.43124-0.43116-1.0256-0.69873-1.6795-0.69873zm-0.05007-0.41201h3.8707c0.76749 0 1.4651 0.31387 1.9707 0.8194 0.50561 0.50561 0.8194 1.2032 0.8194 1.9707 0 0.76749-0.31387 1.4649-0.81948 1.9705-0.50561 0.50561-1.2033 0.81956-1.9706 0.81956h-3.8706c-0.012 0-0.02392-1.54e-4 -0.03591-3.2e-4 -0.01185-1.54e-4 -0.02392-3.2e-4 -0.03576-6.11e-4 -0.01184-4.65e-4 -0.02392-7.55e-4 -0.03576-0.0012-0.01184-4.65e-4 -0.02377-0.0011-0.03561-0.0016-0.01185-6.1e-4 -0.02361-0.0012-0.03546-2e-3 -0.01185-7.56e-4 -0.02361-0.0016-0.0353-0.0025-0.01185-8.96e-4 -0.02361-0.0018-0.0353-0.0028-0.66858-0.059966-1.2711-0.35815-1.7215-0.80853-0.41862-0.41862-0.70588-0.96907-0.79226-1.5816v-1.539e-4c-0.0033-0.022996-0.0063-0.0463-9e-3 -0.069527-0.0027-0.023305-5e-3 -0.046531-0.0071-0.070142-0.0011-0.011691-2e-3 -0.023459-3e-3 -0.035147-8.95e-4 -0.011843-0.0018-0.023613-0.0025-0.035456-7.55e-4 -0.011692-0.0014-0.023613-2e-3 -0.035455-6.1e-4 -0.011843-0.0012-0.023764-0.0016-0.03561-4.66e-4 -0.011846-7.57e-4 -0.023767-0.0011-0.035763-3.2e-4 -0.011843-6.1e-4 -0.023764-7.56e-4 -0.035763-1.54e-4 -0.011996-1.54e-4 -0.023918-1.54e-4 -0.035917 0-0.76749 0.3138-1.4651 0.8194-1.9708 0.50556-0.50546 1.2031-0.81933 1.9706-0.81933z" fill="#2e3440" filter="url(#filter11787)" stroke-width=".07691" style="mix-blend-mode:normal"/>
   <rect x=".01215" y=".0060174" width="16.924" height="16.927" fill="none" opacity=".15" stroke-linecap="round" stroke-linejoin="round" stroke-width="1.052"/>
   <path transform="matrix(.90047 0 0 .90047 24.644 8.9492)" d="m-16.08-6.2923h0.04999c0.65374 0 1.2482 0.26757 1.6793 0.69865 0.43108 0.43108 0.69865 1.0256 0.69865 1.6793 0 0.010229 0 0.020459-1.54e-4 0.030457-1.54e-4 0.01023-3.2e-4 0.020458-6.1e-4 0.03061-3.19e-4 0.010075-6.1e-4 0.020305-8.96e-4 0.03038-4.65e-4 0.010075-8.96e-4 0.020305-0.0014 0.03038-6.1e-4 0.010075-0.0012 0.020151-0.0018 0.030226-6.1e-4 0.010075-0.0014 0.020151-2e-3 0.030226-7.56e-4 0.00992-0.0016 0.019997-0.0025 0.029918v1.537e-4c-0.0027 0.029918-0.0059 0.059759-0.0096 0.08937-0.06857 0.53368-0.31592 1.0137-0.67978 1.3775-0.38394 0.38394-0.8977 0.63843-1.467 0.68935-0.0099 9.282e-4 -0.02 0.00177-0.02992 0.00253h-1.53e-4c-0.0099 7.559e-4 -0.02 0.00154-0.03007 0.00206-0.01007 7.558e-4 -0.02015 0.00122-0.03022 0.00177h-1.54e-4c-0.0099 4.651e-4 -0.02015 9.282e-4 -0.03022 0.00139-0.01023 4.651e-4 -0.02031 7.558e-4 -0.03038 9.282e-4h-1.54e-4c-0.01007 3.198e-4 -0.02031 4.651e-4 -0.03046 6.104e-4 -0.01007 1.538e-4 -0.02031 3.198e-4 -0.03046 3.198e-4h-0.04999c-0.65343 0-1.248-0.2678-1.6793-0.69896-0.43109-0.43107-0.69881-1.0255-0.69881-1.6791 0-0.65374 0.26757-1.2483 0.69866-1.6793 0.43124-0.43116 1.0256-0.69873 1.6795-0.69873zm0.05007-0.41201h-3.8707c-0.76749 0-1.4651 0.31387-1.9707 0.8194-0.50561 0.50561-0.8194 1.2032-0.8194 1.9707s0.31387 1.4649 0.81948 1.9705c0.50561 0.50561 1.2033 0.81956 1.9706 0.81956h3.8706c0.012 0 0.02392-1.54e-4 0.03591-3.2e-4 0.01185-1.54e-4 0.02392-3.2e-4 0.03576-6.11e-4 0.01184-4.65e-4 0.02392-7.55e-4 0.03576-0.0012 0.01184-4.65e-4 0.02377-0.0011 0.03561-0.0016 0.01185-6.1e-4 0.02361-0.0012 0.03546-2e-3 0.01185-7.56e-4 0.02361-0.0016 0.0353-0.0025 0.01185-8.96e-4 0.02361-0.0018 0.0353-0.0028 0.66858-0.059966 1.2711-0.35815 1.7215-0.80853 0.41862-0.41862 0.70588-0.96907 0.79226-1.5816v-1.538e-4c0.0033-0.022996 0.0063-0.0463 9e-3 -0.069527 0.0027-0.023305 5e-3 -0.046531 0.0071-0.070142 0.0011-0.011691 2e-3 -0.023459 3e-3 -0.035147 8.95e-4 -0.011843 0.0018-0.023613 0.0025-0.035456 7.55e-4 -0.011692 0.0014-0.023613 2e-3 -0.035455 6.1e-4 -0.011843 0.0012-0.023764 0.0016-0.03561 4.66e-4 -0.011846 7.57e-4 -0.023767 0.0011-0.035763 3.2e-4 -0.011843 6.1e-4 -0.023764 7.56e-4 -0.035763 1.54e-4 -0.011996 1.54e-4 -0.023918 1.54e-4 -0.035917 0-0.76749-0.3138-1.4651-0.8194-1.9708-0.50556-0.50546-1.2031-0.81933-1.9706-0.81933z" fill="#2e3440" filter="url(#filter11783)" stroke-width=".07691" style="mix-blend-mode:normal"/>
   <ellipse cx="10.189" cy="5.2736" rx="2.2399" ry="2.2071" fill="#eceff4" stroke-linecap="round" stroke-linejoin="round" stroke-width="2.7353"/>
   <path d="m10.164 3.1506h0.04501c0.58867 0 1.124 0.24094 1.5121 0.62912 0.38818 0.38818 0.62912 0.92352 0.62912 1.5122 0 0.00921 0 0.018423-1.38e-4 0.027426-1.39e-4 0.00921-2.89e-4 0.018422-5.5e-4 0.027563-2.87e-4 0.00907-5.49e-4 0.018284-8.06e-4 0.027356-4.19e-4 0.00907-8.07e-4 0.018284-0.0013 0.027356-5.49e-4 0.00907-0.0011 0.018145-0.0016 0.027218-5.49e-4 0.00907-0.0013 0.018145-0.0018 0.027218-6.81e-4 0.00893-0.0014 0.018007-0.0023 0.02694v1.384e-4c-0.0024 0.02694-0.0053 0.053811-0.0086 0.080475-0.06175 0.48056-0.28448 0.91279-0.61213 1.2404-0.34572 0.34572-0.80835 0.57489-1.321 0.62074-0.0089 8.358e-4 -0.01801 0.00159-0.02694 0.00228h-1.38e-4c-0.0089 6.806e-4 -0.01801 0.00139-0.02708 0.00185-0.0091 6.806e-4 -0.01814 0.0011-0.02721 0.00159h-1.39e-4c-0.0089 4.188e-4 -0.01814 8.358e-4 -0.02721 0.00125-0.0092 4.188e-4 -0.01829 6.806e-4 -0.02736 8.358e-4h-1.39e-4c-0.0091 2.88e-4 -0.01829 4.188e-4 -0.02743 5.497e-4 -0.0091 1.385e-4 -0.01829 2.879e-4 -0.02743 2.879e-4h-0.04501c-0.5884 0-1.1238-0.24115-1.5121-0.62939-0.38818-0.38817-0.62926-0.92345-0.62926-1.512 0-0.58867 0.24094-1.124 0.62912-1.5122 0.38834-0.38824 0.92355-0.62918 1.5124-0.62918zm0.04509-0.371h-3.4854c-0.6911 0-1.3192 0.28263-1.7745 0.73785-0.45529 0.45529-0.73786 1.0834-0.73786 1.7745s0.28263 1.3191 0.73792 1.7744c0.45529 0.45529 1.0835 0.73799 1.7745 0.73799h3.4854c0.01081 0 0.02154-1.387e-4 0.03234-2.881e-4 0.01067-1.387e-4 0.02154-2.882e-4 0.0322-5.502e-4 0.01066-4.188e-4 0.02154-6.799e-4 0.0322-0.00108 0.01066-4.187e-4 0.0214-9.905e-4 0.03207-0.00144 0.01067-5.492e-4 0.02126-0.00108 0.03193-0.0018 0.01067-6.808e-4 0.02126-0.00144 0.03179-0.00225 0.01067-8.068e-4 0.02126-0.00162 0.03179-0.00252 0.60202-0.054002 1.1446-0.32251 1.5501-0.72807 0.37696-0.37696 0.63563-0.87262 0.7134-1.4242v-1.385e-4c3e-3 -0.020707 0.0057-0.041692 0.0081-0.062607 0.0024-0.020986 0.0045-0.0419 0.0064-0.063161 9.91e-4 -0.010527 0.0018-0.021124 0.0027-0.031649 8.06e-4 -0.010664 0.0016-0.021263 0.0023-0.031927 6.8e-4 -0.010528 0.0013-0.021263 0.0018-0.031926 5.49e-4 -0.010664 0.0011-0.021399 0.0014-0.032066 4.19e-4 -0.010667 6.81e-4 -0.021401 9.9e-4 -0.032204 2.88e-4 -0.010664 5.5e-4 -0.021399 6.81e-4 -0.032204 1.39e-4 -0.010802 1.39e-4 -0.021537 1.39e-4 -0.032342 0-0.6911-0.28256-1.3192-0.73785-1.7746-0.45525-0.45515-1.0834-0.73778-1.7744-0.73778z" fill="#5e81ac" stroke-width=".069256"/>
   <ellipse cx="6.6768" cy="11.471" rx="2.2399" ry="2.2071" fill="#eceff4" stroke-linecap="round" stroke-linejoin="round" stroke-width="2.7353"/>
   <path d="m6.7689 9.345h-0.045015c-0.58867 0-1.1239 0.24094-1.5121 0.62912-0.38818 0.38818-0.62912 0.92352-0.62912 1.5122 0 0.0092 0 0.01842 1.387e-4 0.02742 1.387e-4 0.0092 2.881e-4 0.01842 5.493e-4 0.02756 2.872e-4 0.0091 5.493e-4 0.01828 8.068e-4 0.02736 4.187e-4 0.0091 8.068e-4 0.01828 0.00126 0.02736 5.493e-4 0.0091 0.00108 0.01814 0.00162 0.02722 5.493e-4 0.0091 0.00126 0.01815 0.0018 0.02722 6.808e-4 0.0089 0.00144 0.01801 0.00225 0.02694v1.38e-4c0.00243 0.02694 0.00531 0.05381 0.00864 0.08048 0.061745 0.48056 0.28448 0.91279 0.61213 1.2404 0.34572 0.34572 0.80835 0.57489 1.321 0.62074 0.00891 8.36e-4 0.018009 0.0016 0.026942 0.0023h1.377e-4c0.00891 6.8e-4 0.01801 0.0014 0.027077 0.0019 0.00907 6.8e-4 0.018145 0.0011 0.027212 0.0016h1.386e-4c0.00891 4.18e-4 0.018145 8.35e-4 0.027212 0.0013 0.00921 4.19e-4 0.018288 6.81e-4 0.027356 8.36e-4h1.387e-4c0.00907 2.88e-4 0.018288 4.19e-4 0.027428 5.5e-4 0.00907 1.38e-4 0.018289 2.88e-4 0.027428 2.88e-4h0.045014c0.58839 0 1.1238-0.24115 1.5121-0.6294 0.38818-0.38817 0.62926-0.92345 0.62926-1.512 0-0.58867-0.24094-1.124-0.62912-1.5122-0.38831-0.38838-0.92351-0.62932-1.5123-0.62932zm-0.045087-0.371h3.4854c0.6911 0 1.3193 0.28263 1.7745 0.73785 0.45529 0.45529 0.73785 1.0834 0.73785 1.7745s-0.28263 1.3191-0.73792 1.7744c-0.45529 0.45529-1.0835 0.73799-1.7745 0.73799h-3.4854c-0.010806 0-0.021539-1.38e-4 -0.032336-2.88e-4 -0.010671-1.39e-4 -0.021539-2.88e-4 -0.032201-5.5e-4 -0.010662-4.19e-4 -0.021539-6.8e-4 -0.032201-0.0011-0.010662-4.18e-4 -0.021404-9.9e-4 -0.032066-0.0014-0.010671-5.5e-4 -0.02126-0.0011-0.031931-0.0018-0.01067-6.81e-4 -0.02126-0.0014-0.031787-0.0023-0.010671-8.06e-4 -0.02126-0.0016-0.031787-0.0025-0.60204-0.05399-1.1446-0.3225-1.5501-0.72806-0.37696-0.37696-0.63563-0.87262-0.7134-1.4242v-1.39e-4c-0.00297-0.02071-0.00567-0.04169-0.0081-0.06261-0.00243-0.02098-0.0045-0.0419-0.00639-0.06316-9.905e-4 -0.01053-0.0018-0.02112-0.0027-0.03165-8.059e-4 -0.01066-0.00162-0.02126-0.00225-0.03193-6.799e-4 -0.01053-0.00126-0.02126-0.0018-0.03193-5.493e-4 -0.01066-0.00108-0.0214-0.00144-0.03207-4.197e-4 -0.01067-6.817e-4 -0.0214-9.906e-4 -0.0322-2.881e-4 -0.01066-5.492e-4 -0.0214-6.807e-4 -0.0322-1.387e-4 -0.0108-1.387e-4 -0.02154-1.387e-4 -0.03234 0-0.6911 0.28256-1.3192 0.73785-1.7746 0.45523-0.45514 1.0834-0.73778 1.7744-0.73778z" fill="#4c566a" stroke-width=".069256"/>
  </g>
  <g transform="matrix(.25597 0 0 .25597 1.8552 9.2502)">
   <g stroke-linecap="round" stroke-linejoin="round">
    <rect transform="matrix(.99138 0 0 1 .072989 2.4878e-7)" x=".79375" y=".90545" width="15.346" height="15.346" rx="3.0526" ry="3.0526" fill="#2e3440" filter="url(#filter1178-5)" opacity=".2" stroke-width="1.2489" style="mix-blend-mode:normal"/>
    <rect x=".92604" y=".92604" width="15.081" height="15.081" rx="3" ry="3" fill="url(#linearGradient1340-3)" stroke-width="1.2274"/>
    <rect x=".01215" y=".0060174" width="16.924" height="16.927" fill="none" opacity=".15" stroke-width="1.052"/>
   </g>
   <g transform="matrix(1.4577,0,0,1.4577,-3.8781,-3.8708)" fill="url(#linearGradient1614)" stroke-width=".68276">
    <path d="m5.3389 6.4854a0.21166 0.21166 0 0 0-0.12769 0.021161 0.24648 0.24648 0 0 0-0.15022 0.21303c-6.813e-4 0.092178 0.064876 0.1707 0.15022 0.2137l2.3467 0.72509-0.021161 1.6864-0.83229 2.4955c-0.079894 0.11404-0.055302 0.24443 0.064179 0.3209 0.11948 0.07509 0.30451 0.04916 0.38371-0.06418l1.3232-2.6887 1.3225 2.6887a0.25057 0.25057 0 0 0 0.34138 0.08534c0.12426-0.06828 0.17752-0.20278 0.1072-0.3209l-0.81111-2.5173-0.042332-1.5574 2.3897-0.85345a0.25126 0.25126 0 0 0 0.08534-0.29905c-0.04165-0.10379-0.16113-0.16183-0.21917-0.15566l-3.1735 0.5189z"/>
    <path d="m8.5178 4.7143c-0.48681 0-0.87394 0.37893-0.87394 0.85345s0.38713 0.87462 0.87394 0.87462 0.8753-0.4001 0.8753-0.87462-0.38849-0.85345-0.8753-0.85345z"/>
   </g>
  </g>
  <g transform="matrix(.25597 0 0 .25597 11.38 4.4878)">
   <g stroke-linecap="round" stroke-linejoin="round">
    <rect transform="matrix(.99138 0 0 1 .072989 2.4878e-7)" x=".79375" y=".90545" width="15.346" height="15.346" rx="3.0526" ry="3.0526" fill="#2e3440" filter="url(#filter1178-56)" opacity=".2" stroke-width="1.2489" style="mix-blend-mode:normal"/>
    <rect x=".92604" y=".92604" width="15.081" height="15.081" rx="3" ry="3" fill="url(#linearGradient1340-2)" stroke-width="1.2274"/>
    <rect x=".01215" y=".0060174" width="16.924" height="16.927" fill="none" opacity=".15" stroke-width="1.052"/>
   </g>
   <g transform="matrix(.64232 0 0 .64232 -27.898 3.6405)">
    <path d="m51.869 15.206c-0.74402-1.52-0.91543-2.3736-0.91543-2.3736s1.0423 1.0864 2.1093 1.1479l-1.201-1.7372s-2.8373-0.95176-3.6044-1.2667c0.3525 3.0252 3.6116 4.2295 3.6116 4.2295z" fill="url(#linearGradient3005)"/>
    <path d="m51.869 15.206c-0.74402-1.52-0.91543-2.3736-0.91543-2.3736s1.0423 1.0864 2.1093 1.1479l-1.201-1.7372s-2.8373-0.95176-3.6044-1.2667c0.3525 3.0252 3.6116 4.2295 3.6116 4.2295z" fill="url(#linearGradient4271)"/>
    <g transform="translate(16.404)">
     <path d="m31.71 11.463 12.052 3.9443 3.3601-9.3463-14.436-2.6517c-1.7474 1.2908-0.97553 8.0537-0.97553 8.0537z" fill="url(#linearGradient5573)"/>
     <path d="m31.71 11.463 12.052 3.9443 3.0561-8.9019-10.131 3.5629-4.3054-6.2146c-1.7474 1.2908-0.67152 7.6093-0.67152 7.6093z" fill="none" stroke="#7b88a1" stroke-width=".27781"/>
    </g>
    <path d="m52.564 0.46748c-3.1005 1.2796-4.516 3.3525-5.0811 5.2885-1.2117 4.1515 1.235 8.4721 4.3857 9.4497-3.6853-1.8124-3.7761-5.2694-3.7145-7.08 0.36271 0.55311 1.0946 0.62141 1.0946 0.62141-2.1489-3.3329 1.2082-5.2881 1.4698-5.1072 0 0 0.62684-1.1475 1.8454-3.1725z" fill="url(#linearGradient2635)"/>
    <path d="m50.686 3.6234c-0.58411 0.023478-3.4527 1.8718-1.4698 5.1072-0.31203-0.42095-0.68983-1.7968-0.31225-3.0154 0.22146-0.71476 1.0273-1.7815 2.0785-1.8278z" fill="#5e81ac"/>
    <path d="m54.886-0.8223c-1.2587 0.066658-2.7283 1.0849-3.4857 2.7002-1.5551 1.6386-0.52567 2.3583-0.75342 3.4407-0.35949 0.94354-0.03853 1.2168 0.02638 1.5986 0.76339-0.84129 0.95246-0.69649 1.6635-1.1052 0.81226-0.46691 1.5387-0.97204 1.8099-0.93506 1.0894-0.15743 1.6032 0.12357 2.7946 0.33936 1.4192 0.25706 3.1238 0.38752 3.2685 0.48206l1.3486-4.1593c-3.3046-2.0849-5.4237-1.8725-6.6368-1.7472 0 0 0.06028-0.12379 0.26861-0.27598-0.37216-0.020585-0.97737 0.3884-1.1268 0.4686 0.09427-0.32216 0.82265-0.80671 0.82265-0.80671z" fill="url(#linearGradient9038)"/>
    <path d="m54.063-0.015597c-0.13097 0.022523-0.54629 0.20528-0.54629 0.20528 0.45156-0.66828 1.3689-1.012 1.3689-1.012s-0.70805 0.45799-0.82265 0.80671z" fill="url(#linearGradient9250)"/>
    <path d="m55.19-0.4842s-0.2373 0.079405-0.50341 0.33054c0 0 0.16038-0.045136 0.2348-0.054557 0.03768-0.10668 0.26861-0.27598 0.26861-0.27598z" fill="url(#linearGradient9538)"/>
    <path d="m51.592 5.4367s0.0026 0.4707 0.158 0.48334c-0.12614 0.026132-0.50528 0.18977-1.077 0.99713 0 0-0.57843-0.64209-0.02638-1.5986 0 0 0.24657 0.59404 0.94536 0.11809z" fill="#88c0d0"/>
    <path d="m55.193 1.4381s-2.5096 0.7072-3.4936 2.0062c-0.34774 0.45906-0.13791 1.5207-0.07443 1.9335 0 0 1.0228-0.36194 1.4101-0.72054 0.21909-0.20282 1.0713-2.2291 2.1579-3.2191z" fill="url(#linearGradient12317)"/>
    <path d="m55.193 1.4381s-2.5096 0.7072-3.4936 2.0062c-0.34774 0.45906-0.13791 1.5207-0.07443 1.9335 2.2593-3.5472 3.0618-3.5999 3.568-3.9397z" fill="#2e3440" opacity=".1"/>
    <path d="m51.788 4.8146s0.37583 0.14451 0.66088-0.11874c0.43623-0.40287 0.25409-0.89272 0.25409-0.89272s-0.48421-0.34968-0.86572 0.15578c-0.11898 0.15764-0.1554 0.36916-0.04925 0.85567z" fill="#5e81ac"/>
    <path d="m51.988 4.7992c0.21243 0.049709 0.37552-0.017493 0.46628-0.12091 0.36975-0.42134 0.12202-0.64283 0.12202-0.64283s-0.39695-0.21867-0.63995 0.25449c-0.0751 0.14623-4.02e-4 0.39611 0.05165 0.50925z" fill="url(#linearGradient11846)"/>
    <ellipse cx="52.201" cy="4.3954" rx=".25953" ry=".24475" fill="url(#linearGradient11270)"/>
    <ellipse cx="52.056" cy="4.3256" rx=".096627" ry=".09094" fill="url(#linearGradient10960)" filter="url(#filter11568)"/>
    <path d="m51.592 5.4367s0.0026 0.4707 0.158 0.48334c-0.12614 0.026132-0.50528 0.18977-1.077 0.99713 0 0-0.57843-0.64209-0.02638-1.5986 0 0 0.24657 0.59404 0.94536 0.11809z" fill="url(#linearGradient9778)"/>
    <path transform="scale(.26458)" d="m208.61 5.4355s-1.3873 0.39203-3.3066 1.1484c0.5558-0.13541 1.443-0.34516 2.1445-0.48047 5.2e-4 -2.863e-4 1e-3 2.863e-4 2e-3 0 0.43868-0.24188 0.81811-0.43839 1.1602-0.66797z" fill="#88c0d0"/>
    <g transform="translate(16.404)">
     <path d="m44.004 11.455s0.06763 3.3533-4.0784 5.3302c2.5177-0.32105 3.5445-1.5415 3.5445-1.5415s-0.22824 0.84241-1.7571 1.6913c5.354-0.9756 6.7827-5.8875 6.7827-5.8875-0.57225-1.5847-4.4917 0.40751-4.4917 0.40751z" fill="url(#linearGradient20446)"/>
     <path d="m43.916 9.3654c0.17399 1.708-1.1023 3.1452-1.1023 3.1452 2.0691-0.6385 2.5605-1.5736 2.5605-1.5736s-0.0452 1.0767-1.15 2.4344c1.743-0.43557 2.2694-1.4205 2.2694-1.4205s-0.03206 0.80299-1.3079 2.3864c4.937-1.668 3.8781-7.7861 2.3296-10.316z" fill="url(#linearGradient20158)"/>
     <path d="m43.209 7.3511s0.17934 1.9434-0.41291 3.0829c1.701-0.96147 2.1468-2.3933 2.1468-2.3933s0.26901 0.86328 0.02352 1.5774c1.3098-1.2306 1.4153-2.4887 1.4153-2.4887s0.27814 0.5694 0.19773 1.3589c0.694-0.81398 0.79794-2.1891 0.79794-2.1891s0.30495 0.28448 0.35304 1.1869c1.7938-2.7394-2.5264-5.9949-2.5264-5.9949l-2.045 3.6068z" fill="url(#linearGradient19522)"/>
     <path d="m38.435 2.6447c0.14174-1.0357 1.5088-1.1446 1.5088-1.1446 0.80222-1.1603 1.7231-0.57522 1.7231-0.57522-0.41142-0.46862 0.98315-0.64538 0.98315-0.64538 0.50122 0.11104 1.467 0.47578 2.322 1.0597 0.96334 0.6579 1.7699 1.3622 1.3163 3.1813-0.20898-0.61099-0.61322-0.91189-0.61322-0.91189s0.19157 1.2066-0.29264 1.8219c-0.1369-0.72405-0.50848-0.87087-0.50848-0.87087s0.14343 0.89771-0.45979 1.8362c-0.09531-0.68509-0.44977-1.0801-0.44977-1.0801s0.18326 0.68387-0.75529 2.0355c-0.16379-1.8963-1.241-4.2828-4.7742-4.7065z" fill="url(#linearGradient19188)"/>
    </g>
   </g>
  </g>
  <g transform="matrix(.25597 0 0 .25597 6.6176 4.4878)">
   <g stroke-linecap="round" stroke-linejoin="round">
    <rect transform="matrix(.99138 0 0 1 .072989 2.5202e-7)" x=".79375" y="1.0171" width="15.346" height="15.346" rx="3.0526" ry="3.0526" fill="#2e3440" filter="url(#filter1178-9)" opacity=".2" stroke-width="1.2489" style="mix-blend-mode:normal"/>
    <rect x=".92604" y=".92604" width="15.081" height="15.081" rx="3" ry="3" fill="url(#linearGradient1129)" stroke-width="1.2274"/>
    <rect x=".01215" y=".0060174" width="16.924" height="16.927" fill="none" opacity=".15" stroke-width="1.052"/>
    <rect x=".92604" y=".92604" width="15.081" height="15.081" rx="3" ry="3" fill="url(#linearGradient2014)" stroke-width="1.2274"/>
    <rect x="1.2119" y="1.2119" width="14.509" height="14.509" rx="2.8863" ry="2.8863" fill="url(#linearGradient2546)" stroke-width="1.2274"/>
   </g>
   <g transform="matrix(1.3533 0 0 1.3533 -.94213 -1.2661)" stroke-width=".19551">
    <g transform="translate(.17304 .17304)" fill="#2e3440" filter="url(#filter888)" opacity=".25" aria-label="&gt;_">
     <path d="m2.6666 4.1314v-0.5479l2.8097 1.0147v0.51722l-2.8097 1.0147v-0.5479l2.1149-0.72323z"/>
     <path d="m8.1961 6.9059v0.41641h-2.2442v-0.41641z"/>
    </g>
    <g fill="url(#linearGradient1608)" aria-label="&gt;_">
     <path d="m2.6666 4.1314v-0.5479l2.8097 1.0147v0.51722l-2.8097 1.0147v-0.5479l2.1149-0.72323z"/>
     <path d="m8.1961 6.9059v0.41641h-2.2442v-0.41641z"/>
    </g>
   </g>
   <g transform="matrix(.55387 0 0 .55387 -3.7749 13.992)">
    <ellipse cx="30.181" cy="-1.8933" rx="5.535" ry="5.5323" fill="url(#linearGradient1070)" stroke-width="2.1328"/>
    <path class="cls-1" d="m31.158-5.5918a3.804 3.804 0 0 1 0.92441 0.41879l0.49751-0.49995a0.61682 0.61682 0 0 1 0.87004 0l0.50969 0.51212a0.61682 0.61682 0 0 1 0 0.87004l-0.53566 0.53566a3.7821 3.7821 0 0 1 0.35224 0.88708h0.77264a0.61682 0.61682 0 0 1 0.61844 0.61682v0.72232a0.61682 0.61682 0 0 1-0.61519 0.61519h-0.77995a3.8007 3.8007 0 0 1-0.35467 0.87734l0.54215 0.54458a0.61682 0.61682 0 0 1 0 0.87004l-0.50887 0.50968a0.61763 0.61763 0 0 1-0.87085 0l-0.51455-0.51536a3.8324 3.8324 0 0 1-0.90818 0.4058v0.69716a0.61682 0.61682 0 0 1-0.61519 0.61519h-0.72151a0.61682 0.61682 0 0 1-0.6152-0.61519v-0.6298a3.8462 3.8462 0 0 1-1.0023-0.37983l-0.42203 0.42203a0.61844 0.61844 0 0 1-0.87003 0l-0.51212-0.51212a0.61763 0.61763 0 0 1 0-0.87004l0.38307-0.38308a3.8454 3.8454 0 0 1-0.45125-1.0364h-0.52105a0.61682 0.61682 0 0 1-0.61519-0.61519v-0.72232a0.61682 0.61682 0 0 1 0.61519-0.61682h0.51537a3.8308 3.8308 0 0 1 0.44719-1.0502l-0.37334-0.37253a0.61844 0.61844 0 0 1 0-0.87004l0.51212-0.51212a0.61682 0.61682 0 0 1 0.87003 0l0.4058 0.4058a3.7821 3.7821 0 0 1 1.0169-0.39281v-0.60221a0.61682 0.61682 0 0 1 0.61682-0.61519h0.72232a0.61682 0.61682 0 0 1 0.61519 0.61519zm-1.1054 1.6914a1.9965 1.9965 0 1 1-1.9965 1.9957 1.9957 1.9957 0 0 1 1.9965-1.9957z" fill="url(#linearGradient1424)" stroke-width=".08116"/>
   </g>
  </g>
 </g>
</svg>
