<svg width="64" height="64" version="1.1" viewBox="0 0 16.933 16.933" xmlns="http://www.w3.org/2000/svg">
 <defs>
  <filter id="filter1178" x="-.047999" y="-.047999" width="1.096" height="1.096" color-interpolation-filters="sRGB">
   <feGaussianBlur stdDeviation="0.30691668"/>
  </filter>
  <linearGradient id="linearGradient1340" x1="12.828" x2="3.5853" y1="13.342" y2="4.1621" gradientUnits="userSpaceOnUse">
   <stop stop-color="#5e81ac" offset="0"/>
   <stop stop-color="#88c0d0" offset="1"/>
  </linearGradient>
  <filter id="filter1295" x="-.10958" y="-.046086" width="1.2192" height="1.0922" color-interpolation-filters="sRGB">
   <feGaussianBlur stdDeviation="0.26782598"/>
  </filter>
  <linearGradient id="linearGradient1365" x1="6.2145" x2="9.7983" y1="1.8661" y2="13.831" gradientUnits="userSpaceOnUse">
   <stop stop-color="#4c566a" offset="0"/>
   <stop stop-color="#2e3440" offset="1"/>
  </linearGradient>
 </defs>
 <g stroke-linecap="round" stroke-linejoin="round">
  <rect transform="matrix(.99138 0 0 1 .072989 .0019055)" x=".79375" y=".90545" width="15.346" height="15.346" rx="3.0526" ry="3.0526" fill="#000000" filter="url(#filter1178)" opacity=".15" stroke-width="1.2489" style="mix-blend-mode:normal"/>
  <rect x=".92604" y=".92604" width="15.081" height="15.081" rx="3" ry="3" fill="url(#linearGradient1340)" stroke-width="1.2274"/>
  <rect x=".01215" y=".0060174" width="16.924" height="16.927" fill="none" opacity=".15" stroke-width="1.052"/>
 </g>
 <path d="m5.8513 14.682c0.03153-0.69878 0.25795-3.9726 0.28772-4.1603l0.0085-0.05381 0.05913 0.05242c0.03252 0.02883 0.20318 0.18768 0.37924 0.353 0.50114 0.47058 0.46966 0.4433 0.48447 0.41993 0.03506-0.05532 1.5926-3.5045 1.5926-3.5268 0-0.00638-0.0144-0.016385-0.03201-0.022242-0.0176-0.00586-0.59218-0.015891-1.2768-0.022296-0.68466-0.00641-1.266-0.015946-1.2919-0.021202-0.03554-0.00721-0.04503-0.015237-0.03871-0.032713 0.0046-0.012736 0.61075-1.5292 1.347-3.37l1.3386-3.3468h1.2836c0.70596 0 1.3806 0.0042 1.4992 0.00933l0.21564 0.00933-0.05193 0.093809c-0.08587 0.15511-1.5423 2.7329-2.351 4.161-0.41597 0.73461-0.75328 1.3387-0.74957 1.3424 0.0037 0.00371 0.64999 0.014055 1.4362 0.022993 0.78619 0.00894 1.433 0.019848 1.4374 0.024246 0.0044 0.0044-0.39603 0.60939-0.88983 1.3444-1.0394 1.5472-2.4875 3.7162-2.4875 3.7259 0 0.02371 0.20613 0.04633 0.65443 0.07181 0.15719 0.0089 0.65959 0.0505 0.66427 0.05496 0.0029 0.0027-1.0612 0.94898-1.936 1.7216-0.77302 0.68274-1.4354 1.2533-1.551 1.3359l-0.04143 0.02962z" fill="#2e3440" filter="url(#filter1295)" opacity=".574"/>
 <path d="m5.5434 14.657c0.03153-0.69878 0.25795-3.9726 0.28772-4.1603l0.0085-0.05381 0.05913 0.05242c0.03252 0.02883 0.20318 0.18768 0.37924 0.353 0.50114 0.47058 0.46966 0.4433 0.48447 0.41993 0.03506-0.05532 1.5926-3.5045 1.5926-3.5268 0-0.00638-0.0144-0.016385-0.03201-0.022242-0.0176-0.00586-0.59218-0.015891-1.2768-0.022296-0.68466-0.00641-1.266-0.015946-1.2919-0.021202-0.03554-0.00721-0.04503-0.015237-0.03871-0.032713 0.0046-0.012736 0.61075-1.5292 1.347-3.37l1.3386-3.3468h1.2836c0.70596 0 1.3806 0.0042 1.4992 0.00933l0.21564 0.00933-0.05193 0.093809c-0.08587 0.15511-1.5423 2.7329-2.351 4.161-0.41597 0.73461-0.75328 1.3387-0.74957 1.3424 0.0037 0.00371 0.64999 0.014055 1.4362 0.022993 0.78619 0.00894 1.433 0.019848 1.4374 0.024246 0.0044 0.0044-0.39603 0.60939-0.88983 1.3444-1.0394 1.5472-2.4875 3.7162-2.4875 3.7259 0 0.02371 0.20613 0.04633 0.65443 0.07181 0.15719 0.0089 0.65959 0.0505 0.66427 0.05496 0.0029 0.0027-1.0612 0.94898-1.936 1.7216-0.77302 0.68274-1.4354 1.2533-1.551 1.3359l-0.04143 0.02962z" fill="url(#linearGradient1365)"/>
</svg>
