<svg width="64" height="64" version="1.1" viewBox="0 0 16.933 16.933" xmlns="http://www.w3.org/2000/svg" xmlns:xlink="http://www.w3.org/1999/xlink">
 <defs>
  <linearGradient id="linearGradient1224">
   <stop stop-color="#dbc7c5" offset="0"/>
   <stop stop-color="#b48ead" offset="1"/>
  </linearGradient>
  <filter id="filter1178" x="-.047999" y="-.047999" width="1.096" height="1.096" color-interpolation-filters="sRGB">
   <feGaussianBlur stdDeviation="0.30691668"/>
  </filter>
  <linearGradient id="linearGradient1340" x1="8.6644" x2="8.6644" y1="15.931" y2=".79375" gradientUnits="userSpaceOnUse">
   <stop stop-color="#5e81ac" offset="0"/>
   <stop stop-color="#88c0d0" offset="1"/>
  </linearGradient>
  <linearGradient id="linearGradient1226" x1="4.4077" x2="4.4112" y1="13.767" y2="14.975" gradientTransform="translate(7.9644 -.10248)" gradientUnits="userSpaceOnUse" xlink:href="#linearGradient1224"/>
  <linearGradient id="linearGradient1904" x1="4.4077" x2="4.4112" y1="13.767" y2="14.975" gradientTransform="translate(4.7895 -.10248)" gradientUnits="userSpaceOnUse" xlink:href="#linearGradient1224"/>
  <linearGradient id="linearGradient1924" x1="4.4077" x2="4.4112" y1="13.767" y2="14.975" gradientTransform="translate(3.202 -.10248)" gradientUnits="userSpaceOnUse" xlink:href="#linearGradient1224"/>
  <linearGradient id="linearGradient1944" x1="4.4077" x2="4.4112" y1="13.767" y2="14.975" gradientTransform="translate(1.6146 -.10248)" gradientUnits="userSpaceOnUse" xlink:href="#linearGradient1224"/>
  <linearGradient id="linearGradient1964" x1="4.4077" x2="4.4112" y1="13.767" y2="14.975" gradientTransform="translate(.027081 -.10248)" gradientUnits="userSpaceOnUse" xlink:href="#linearGradient1224"/>
  <linearGradient id="linearGradient2004" x1="4.4077" x2="4.4112" y1="13.767" y2="14.975" gradientTransform="translate(6.377 -.10248)" gradientUnits="userSpaceOnUse" xlink:href="#linearGradient1224"/>
  <linearGradient id="linearGradient1327" x1="4.4199" x2="13.091" y1="3.934" y2="9.9821" gradientUnits="userSpaceOnUse">
   <stop stop-color="#4c566a" offset="0"/>
   <stop stop-color="#2e3440" offset="1"/>
  </linearGradient>
  <filter id="filter1627" x="-.13103" y="-.16741" width="1.2621" height="1.3348" color-interpolation-filters="sRGB">
   <feGaussianBlur stdDeviation="0.50806895"/>
  </filter>
 </defs>
 <rect transform="matrix(.99138 0 0 1 .072989 .0019055)" x=".79375" y=".90545" width="15.346" height="15.346" rx="3.0526" ry="3.0526" fill="#000000" filter="url(#filter1178)" opacity=".15" stroke-width="1.2489" style="mix-blend-mode:normal"/>
 <rect x=".92604" y=".92604" width="15.081" height="15.081" rx="3" ry="3" fill="url(#linearGradient1340)" stroke-linecap="round" stroke-linejoin="round" stroke-width="1.2274"/>
 <path d="m8.8912 4.4494c1.0134 0.057565 1.9276 0.46428 2.6039 1.0929 0.73619 0.68393 1.1914 1.6292 1.1914 2.6744 0 0.00833-7.44e-4 0.01742-0.0016 0.025754-0.0023 0.13633-0.11285 0.2454-0.24918 0.2454v7.448e-4h-7.5891c-0.13785 0-0.24994-0.1121-0.24994-0.24994l7.588e-4 -0.021964h-0.00155c0-1.0452 0.4552-1.9912 1.1914-2.6744 0.67635-0.62787 1.5898-1.0346 2.6032-1.0922v-0.67938h-0.54078c-0.13785 0-0.24994-0.11209-0.24994-0.24994s0.1121-0.24994 0.24994-0.24994h1.6117c0.13785 0 0.24994 0.11209 0.24994 0.24994s-0.11209 0.24994-0.24994 0.24994h-0.57032zm-4.6315 4.3452h8.8062c0.13785 0 0.24994 0.11209 0.24994 0.24994v1.2603c0 0.13785-0.1121 0.24994-0.24994 0.24994h-8.8062c-0.13785 0-0.24994-0.11209-0.24994-0.24994v-1.2603c0-0.13785 0.11209-0.24994 0.24994-0.24994z" fill="#2e3440" filter="url(#filter1627)" opacity=".5" stroke-width=".07574"/>
 <g stroke-linecap="round" stroke-linejoin="round">
  <rect x=".01215" y=".0060174" width="16.924" height="16.927" fill="none" opacity=".15" stroke-width="1.052"/>
  <path d="m0.92603 12.122v0.88521c0 1.662 1.3383 2.9998 3.0003 2.9998h9.0809c1.662 0 2.9998-1.3378 2.9998-2.9998v-0.88521z" fill="#2e3440" opacity=".6" stroke-width="1.0624"/>
  <g transform="matrix(1.2402 0 0 1.4134 -2.0303 -6.1224)" stroke-width=".62811">
   <rect x="11.842" y="13.634" width="1.1808" height="1.2971" ry=".15784" fill="url(#linearGradient1226)"/>
   <rect x="3.905" y="13.634" width="1.1808" height="1.2971" ry=".15784" fill="url(#linearGradient1964)"/>
   <rect x="5.4925" y="13.634" width="1.1808" height="1.2971" ry=".15784" fill="url(#linearGradient1944)"/>
   <rect x="7.08" y="13.634" width="1.1808" height="1.2971" ry=".15784" fill="url(#linearGradient1924)"/>
   <rect x="8.6674" y="13.634" width="1.1808" height="1.2971" ry=".15784" fill="url(#linearGradient1904)"/>
   <rect x="10.255" y="13.634" width="1.1808" height="1.2971" ry=".15784" fill="url(#linearGradient2004)"/>
  </g>
 </g>
 <style type="text/css">.st0{fill-rule:evenodd;clip-rule:evenodd;}</style>
 <path d="m8.6949 4.2531c1.0134 0.057565 1.9276 0.46428 2.6039 1.0929 0.73619 0.68393 1.1914 1.6292 1.1914 2.6744 0 0.00833-7.44e-4 0.01742-0.0016 0.025754-0.0023 0.13633-0.11285 0.2454-0.24918 0.2454v7.448e-4h-7.5891c-0.13785 0-0.24994-0.1121-0.24994-0.24994l7.588e-4 -0.021964h-0.00155c0-1.0452 0.4552-1.9912 1.1914-2.6744 0.67635-0.62787 1.5898-1.0346 2.6032-1.0922v-0.67938h-0.54078c-0.13785 0-0.24994-0.11209-0.24994-0.24994s0.1121-0.24994 0.24994-0.24994h1.6117c0.13785 0 0.24994 0.11209 0.24994 0.24994s-0.11209 0.24994-0.24994 0.24994h-0.57032zm-4.6315 4.3452h8.8062c0.13785 0 0.24994 0.11209 0.24994 0.24994v1.2603c0 0.13785-0.1121 0.24994-0.24994 0.24994h-8.8062c-0.13785 0-0.24994-0.11209-0.24994-0.24994v-1.2603c0-0.13785 0.11209-0.24994 0.24994-0.24994z" fill="url(#linearGradient1327)" stroke-width=".07574"/>
</svg>
