<svg width="64" height="64" version="1.1" viewBox="0 0 16.933 16.933" xmlns="http://www.w3.org/2000/svg">
 <defs>
  <filter id="filter1178" x="-.047999" y="-.047999" width="1.096" height="1.096" color-interpolation-filters="sRGB">
   <feGaussianBlur stdDeviation="0.30691668"/>
  </filter>
  <linearGradient id="linearGradient1167" x1="8.6644" x2="8.6644" y1="15.931" y2=".79375" gradientTransform="matrix(.85 0 0 .85 1.27 1.27)" gradientUnits="userSpaceOnUse">
   <stop stop-color="#5e81ac" offset="0"/>
   <stop stop-color="#88c0d0" offset="1"/>
  </linearGradient>
  <linearGradient id="linearGradient1830" x1="8.653" x2="8.653" y1="12.464" y2="15.68" gradientTransform="matrix(1.005 0 0 1.005 -.042333 -.070323)" gradientUnits="userSpaceOnUse">
   <stop stop-color="#d8dee9" offset="0"/>
   <stop stop-color="#a6aebf" offset="1"/>
  </linearGradient>
 </defs>
 <g stroke-linecap="round" stroke-linejoin="round">
  <rect transform="matrix(.99138 0 0 1 .072989 .0019055)" x=".79375" y=".90545" width="15.346" height="15.346" rx="3.0526" ry="3.0526" fill="#000000" filter="url(#filter1178)" opacity=".15" stroke-width="1.2489" style="mix-blend-mode:normal"/>
  <path d="m3.926 0.92604h9.081c1.662 0 3 1.338 3 3v9.081c0 1.662-1.338 3-3 3h-9.081c-1.662 0-3-1.338-3-3v-9.081c0-1.662 1.338-3 3-3z" fill="#2e3440" stroke-width="1.2274"/>
  <rect x=".01215" y=".0060174" width="16.924" height="16.927" fill="none" opacity=".15" stroke-width="1.052"/>
  <rect x="2.0571" y="2.0571" width="12.819" height="12.819" rx="2.55" ry="2.55" fill="url(#linearGradient1167)" stroke-width="1.0433"/>
  <path d="m16.007 11.62v1.3866c0 1.662-1.338 3-3 3h-9.081c-1.662 0-3-1.338-3-3v-1.3866z" fill="#2e3440" stroke-width="1.2274"/>
  <path d="m0.88833 12.112v0.88964c0 1.6703 1.345 3.0148 3.0153 3.0148h9.1263c1.6703 0 3.0148-1.3445 3.0148-3.0148v-0.88964z" fill="url(#linearGradient1830)" stroke-width="1.0677"/>
 </g>
 <style type="text/css">.st0{fill-rule:evenodd;clip-rule:evenodd;}</style>
 <path d="m7.5443 15.313c0.14823 0.01745 0.31476 0.11322 0.45415 0.1301 0.14011 0.01745 0.18349-0.095 0.18349-0.095s0.15768-0.0349 0.32348-0.03896c0.16592-0.0045 0.32304 0.03449 0.32304 0.03449s0.03043 0.06943 0.08732 0.09979c0.05685 0.03084 0.17927 0.0349 0.25775-0.04719 0.07864-0.08291 0.28839-0.18728 0.40615-0.25257 0.11853-0.06541 0.09678-0.16516 0.02232-0.19552-0.07442-0.03044-0.13533-0.07812-0.13066-0.16983 0.0039-0.09094-0.0657-0.15161-0.0657-0.15161s0.06107-0.20014 0.0045-0.36595c-0.05685-0.16504-0.2444-0.43045-0.38857-0.63-0.1442-0.20014-0.021943-0.43119-0.15305-0.72646-0.13127-0.29574-0.47171-0.27824-0.65518-0.1522-0.18349 0.12606-0.12725 0.43868-0.11841 0.58698 0.0089 0.14755 0.0039 0.25318-0.01299 0.29108-0.01704 0.03855-0.13533 0.17847-0.21397 0.29575-0.07848 0.11784-0.13533 0.36112-0.19278 0.46152-0.05628 0.09979-0.01704 0.19073-0.01704 0.19073s-0.03936 0.01339-0.07036 0.07885c-0.03043 0.06469-0.09138 0.09561-0.20106 0.11667-0.10895 0.02232-0.10895 0.09216-0.08266 0.17044 0.02638 0.07812 0 0.12186-0.03043 0.22165-0.03043 0.09975 0.12198 0.13006 0.27082 0.14755zm1.5409-0.45512c0.07787 0.03409 0.18978-0.01339 0.22387-0.0472 0.03408-0.03368 0.0579-0.08392 0.0579-0.08392s0.03409 0.01664 0.03043 0.07049c-0.0039 0.05438 0.02353 0.13189 0.07442 0.15879 0.05101 0.02678 0.12887 0.06408 0.08854 0.10141-0.04115 0.03733-0.26858 0.12844-0.33651 0.19953-0.06736 0.07065-0.1559 0.12844-0.20975 0.11143-0.05446-0.01664-0.10201-0.09094-0.0786-0.19937 0.02394-0.10798 0.04451-0.22644 0.04111-0.29408-0.0039-0.06765-0.01704-0.15875 0-0.17222 0.01704-0.01339 0.04399-0.0069 0.04399-0.0069s-0.01339 0.12832 0.06452 0.16208zm-0.50531-1.8279c0.07503 0 0.13549 0.07406 0.13549 0.1652 0 0.06469-0.03043 0.12069-0.07503 0.14759-0.01136-0.0045-0.02313-0.01014-0.03571-0.01542 0.02719-0.01339 0.04573-0.0472 0.04573-0.08635 0-0.05121-0.03165-0.09333-0.07142-0.09333-0.03855 0-0.07097 0.04208-0.07097 0.09333 0 0.01867 0.0045 0.03733 0.01217 0.05198-0.02353-0.0093-0.04451-0.01745-0.06152-0.02394-0.0089-0.02232-0.0142-0.04736-0.0142-0.07406 1.2e-5 -0.0911 0.06034-0.1652 0.13533-0.1652zm-0.18576 0.28467c0.03693 0.0065 0.13833 0.0502 0.17586 0.06363 0.03733 0.01299 0.07905 0.03693 0.07503 0.06063-0.0045 0.02475-0.02394 0.02475-0.07503 0.05555-0.0504 0.03043-0.16052 0.09796-0.19579 0.10263-0.0349 0.0045-0.05506-0.01501-0.09256-0.03896-0.03733-0.02435-0.1079-0.08169-0.09016-0.112 0 0 0.05506-0.04196 0.07904-0.06347 0.02394-0.02232 0.08615-0.07471 0.12364-0.06781zm-0.16174-0.25838c0.05912 0 0.10729 0.07004 0.10729 0.15636 0 0.01583-0.0016 0.03044-0.0045 0.04492-0.01461 0.0045-0.02922 0.01217-0.0435 0.02435-0.0069 0.0057-0.01339 0.01096-0.01948 0.01664 0.0093-0.01745 0.01299-0.04257 0.0085-0.06886-0.0081-0.04659-0.03977-0.08108-0.07081-0.07649-0.03124 0.0053-0.04979 0.04797-0.04228 0.09516 0.0081 0.0478 0.03936 0.0823 0.07097 0.07706 0.0016-6.05e-4 0.0033-0.0012 0.0053-0.0018-0.01501 0.01461-0.02922 0.02759-0.04399 0.03774-0.04277-0.01988-0.07442-0.07933-0.07442-0.14938 1.2e-5 -0.08692 0.04739-0.15636 0.10668-0.15636zm-0.32933 1.13c0.06091-0.09561 0.10023-0.30456 0.16113-0.37399 0.06151-0.06931 0.10895-0.21702 0.08732-0.28228 0 0 0.13127 0.15636 0.22265 0.13067 0.0915-0.02638 0.29723-0.17851 0.32766-0.15234 0.03043 0.02638 0.29244 0.59982 0.31882 0.78247 0.02637 0.18253-0.01745 0.322-0.01745 0.322s-0.10023-0.02638-0.11313 0.03449c-0.01299 0.06124-0.01299 0.28305-0.01299 0.28305s-0.13549 0.18671-0.34524 0.21759c-0.20975 0.03044-0.3148 0.0081-0.3148 0.0081l-0.1178-0.13428s0.0915-0.01339 0.07864-0.10502c-0.01299-0.09094-0.27966-0.21702-0.3277-0.33024-0.048-0.11322-0.0089-0.30456 0.05283-0.40028zm-0.51866 0.68493c0.01055-0.0448 0.14644-0.0448 0.19863-0.07629 0.05222-0.03165 0.06269-0.12202 0.10485-0.14593 0.04155-0.02435 0.11837 0.06245 0.15002 0.11139 0.03084 0.0478 0.15006 0.25675 0.19863 0.30873 0.04918 0.05243 0.09438 0.12186 0.08026 0.18432-0.01339 0.06241-0.08732 0.10798-0.08732 0.10798-0.06618 0.02029-0.25069-0.059-0.33456-0.09394-0.08387-0.0349-0.29723-0.04557-0.32466-0.07649-0.028-0.03165 0.01339-0.10096 0.02475-0.16682 0.01014-0.06659-0.0211-0.10798-0.01055-0.15291z" fill="#2e3440" stroke-width=".0089026"/>
</svg>
