<?xml version="1.0" encoding="UTF-8" standalone="no"?>
<svg
   width="64"
   height="64"
   version="1.1"
   viewBox="0 0 16.933 16.933"
   id="svg1232"
   sodipodi:docname="preferences-desktop-icons.svg"
   inkscape:version="1.2.1 (9c6d41e410, 2022-07-14)"
   xmlns:inkscape="http://www.inkscape.org/namespaces/inkscape"
   xmlns:sodipodi="http://sodipodi.sourceforge.net/DTD/sodipodi-0.dtd"
   xmlns:xlink="http://www.w3.org/1999/xlink"
   xmlns="http://www.w3.org/2000/svg"
   xmlns:svg="http://www.w3.org/2000/svg">
  <sodipodi:namedview
     id="namedview1234"
     pagecolor="#ffffff"
     bordercolor="#666666"
     borderopacity="1.0"
     inkscape:showpageshadow="2"
     inkscape:pageopacity="0.0"
     inkscape:pagecheckerboard="0"
     inkscape:deskcolor="#d1d1d1"
     showgrid="false"
     inkscape:zoom="4.5631034"
     inkscape:cx="-13.368095"
     inkscape:cy="24.106401"
     inkscape:window-width="1920"
     inkscape:window-height="1018"
     inkscape:window-x="0"
     inkscape:window-y="32"
     inkscape:window-maximized="1"
     inkscape:current-layer="svg1232" />
  <defs
     id="defs1052">
    <filter
       id="filter1178"
       x="-0.047999482"
       y="-0.047999482"
       width="1.095999"
       height="1.095999"
       color-interpolation-filters="sRGB">
      <feGaussianBlur
         stdDeviation="0.30691668"
         id="feGaussianBlur851" />
    </filter>
    <linearGradient
       id="linearGradient1340"
       x1="8.355"
       x2="8.3996"
       y1="16.007"
       y2=".79375"
       gradientUnits="userSpaceOnUse">
      <stop
         stop-color="#d8dee9"
         offset="0"
         id="stop854" />
      <stop
         stop-color="#eceff4"
         offset="1"
         id="stop856" />
    </linearGradient>
    <linearGradient
       id="linearGradient1313"
       x1="8.2364"
       x2="8.24"
       y1="1.1606"
       y2="3.5817"
       gradientUnits="userSpaceOnUse">
      <stop
         stop-color="#2e3440"
         offset="0"
         id="stop859" />
      <stop
         stop-color="#4c566a"
         offset="1"
         id="stop861" />
    </linearGradient>
    <linearGradient
       id="linearGradient6495"
       x1="12.05"
       x2="12.066"
       y1="1.9716"
       y2="2.8515"
       gradientUnits="userSpaceOnUse">
      <stop
         stop-color="#ebcb8b"
         offset="0"
         id="stop864" />
      <stop
         stop-color="#eac57b"
         offset="1"
         id="stop866" />
    </linearGradient>
    <linearGradient
       id="linearGradient6567"
       x1="13.286"
       x2="13.275"
       y1="1.9581"
       y2="2.8476"
       gradientUnits="userSpaceOnUse">
      <stop
         stop-color="#a3be8c"
         offset="0"
         id="stop869" />
      <stop
         stop-color="#97b67c"
         offset="1"
         id="stop871" />
    </linearGradient>
    <linearGradient
       id="linearGradient6639"
       x1="14.461"
       x2="14.467"
       y1="1.9502"
       y2="2.8203"
       gradientUnits="userSpaceOnUse">
      <stop
         stop-color="#bf616a"
         offset="0"
         id="stop874" />
      <stop
         stop-color="#b54a55"
         offset="1"
         id="stop876" />
    </linearGradient>
    <filter
       id="filter2347-3"
       x="-0.024545776"
       y="-0.029998631"
       width="1.0490916"
       height="1.0599973"
       color-interpolation-filters="sRGB">
      <feGaussianBlur
         stdDeviation="0.14938518"
         id="feGaussianBlur879" />
    </filter>
    <filter
       id="filter2161-7"
       x="-0.024009103"
       y="-0.03084203"
       width="1.0480182"
       height="1.0616841"
       color-interpolation-filters="sRGB">
      <feGaussianBlur
         stdDeviation="0.146119"
         id="feGaussianBlur882" />
    </filter>
    <linearGradient
       id="linearGradient2575"
       x1="26.221"
       x2="26.221"
       y1="14.474"
       y2="3.3043"
       gradientTransform="matrix(0.17788379,0,0,0.17788379,-1.0046864,5.340928)"
       gradientUnits="userSpaceOnUse">
      <stop
         stop-color="#2e3440"
         stop-opacity=".15"
         offset="0"
         id="stop885" />
      <stop
         stop-color="#2e3440"
         stop-opacity="0"
         offset="1"
         id="stop887" />
    </linearGradient>
    <filter
       id="filter1178-3"
       x="-0.047999482"
       y="-0.047999482"
       width="1.095999"
       height="1.095999"
       color-interpolation-filters="sRGB">
      <feGaussianBlur
         stdDeviation="0.30691668"
         id="feGaussianBlur890" />
    </filter>
    <filter
       id="filter1321"
       x="-0.066691976"
       y="-0.085672019"
       width="1.133384"
       height="1.171344"
       color-interpolation-filters="sRGB">
      <feGaussianBlur
         stdDeviation="0.27168811"
         id="feGaussianBlur893" />
    </filter>
    <linearGradient
       id="linearGradient1129"
       x1="8.355"
       x2="8.3996"
       y1="16.007"
       y2=".79375"
       gradientUnits="userSpaceOnUse"
       xlink:href="#linearGradient1340"
       gradientTransform="matrix(0.25597,0,0,0.25597,6.30497,4.72247)" />
    <filter
       id="filter1178-6"
       x="-0.047999482"
       y="-0.047999482"
       width="1.095999"
       height="1.095999"
       color-interpolation-filters="sRGB">
      <feGaussianBlur
         stdDeviation="0.30691668"
         id="feGaussianBlur897" />
    </filter>
    <linearGradient
       id="linearGradient1340-7"
       x1="8.3639"
       x2="8.3412"
       y1="15.481"
       y2="1.4263"
       gradientUnits="userSpaceOnUse"
       gradientTransform="matrix(0.25597,0,0,0.25597,6.30497,9.48487)">
      <stop
         stop-color="#d8dee9"
         offset="0"
         id="stop900" />
      <stop
         stop-color="#eceff4"
         offset="1"
         id="stop902" />
    </linearGradient>
    <filter
       id="filter11783"
       x="-0.033456838"
       y="-0.056662988"
       width="1.0669137"
       height="1.113326"
       color-interpolation-filters="sRGB">
      <feGaussianBlur
         stdDeviation="0.13174676"
         id="feGaussianBlur905" />
    </filter>
    <filter
       id="filter11787"
       x="-0.044456492"
       y="-0.075292161"
       width="1.088913"
       height="1.1505843"
       color-interpolation-filters="sRGB">
      <feGaussianBlur
         stdDeviation="0.17506133"
         id="feGaussianBlur908" />
    </filter>
    <filter
       id="filter1178-5"
       x="-0.047999482"
       y="-0.047999482"
       width="1.095999"
       height="1.095999"
       color-interpolation-filters="sRGB">
      <feGaussianBlur
         stdDeviation="0.30691668"
         id="feGaussianBlur911" />
    </filter>
    <linearGradient
       id="linearGradient1340-3"
       x1="8.6644"
       x2="8.6644"
       y1="15.931"
       y2=".79375"
       gradientUnits="userSpaceOnUse"
       gradientTransform="matrix(0.25597,0,0,0.25597,1.54257,9.48487)">
      <stop
         stop-color="#5e81ac"
         offset="0"
         id="stop914" />
      <stop
         stop-color="#88c0d0"
         offset="1"
         id="stop916" />
    </linearGradient>
    <filter
       id="filter1178-56"
       x="-0.047999482"
       y="-0.047999482"
       width="1.095999"
       height="1.095999"
       color-interpolation-filters="sRGB">
      <feGaussianBlur
         stdDeviation="0.30691668"
         id="feGaussianBlur919" />
    </filter>
    <linearGradient
       id="linearGradient1340-2"
       x1="8.142"
       x2="8.142"
       y1="15.389"
       y2="1.2852"
       gradientUnits="userSpaceOnUse"
       gradientTransform="matrix(0.25597,0,0,0.25597,11.06737,4.72247)">
      <stop
         stop-color="#2e3440"
         offset="0"
         id="stop922" />
      <stop
         stop-color="#4c566a"
         offset="1"
         id="stop924" />
    </linearGradient>
    <linearGradient
       id="linearGradient9038"
       x1="57.671"
       x2="50.253"
       y1="3.5919"
       y2="1.1392"
       gradientUnits="userSpaceOnUse"
       gradientTransform="matrix(0.16441465,0,0,0.16441465,3.9263189,5.6543288)">
      <stop
         stop-color="#5e81ac"
         offset="0"
         id="stop927" />
      <stop
         stop-color="#88c0d0"
         offset="1"
         id="stop929" />
    </linearGradient>
    <linearGradient
       id="linearGradient9250"
       x1="54.154"
       x2="53.904"
       y1="-.074123"
       y2="-.34236"
       gradientUnits="userSpaceOnUse"
       gradientTransform="matrix(0.16441465,0,0,0.16441465,3.9263189,5.6543288)">
      <stop
         stop-color="#5e81ac"
         offset="0"
         id="stop932" />
      <stop
         stop-color="#81a1c1"
         offset="1"
         id="stop934" />
    </linearGradient>
    <linearGradient
       id="linearGradient9538"
       x1="55.002"
       x2="54.878"
       y1="-.26267"
       y2="-.38509"
       gradientUnits="userSpaceOnUse"
       gradientTransform="matrix(0.16441465,0,0,0.16441465,3.9263189,5.6543288)">
      <stop
         stop-color="#5e81ac"
         offset="0"
         id="stop937" />
      <stop
         stop-color="#81a1c1"
         offset="1"
         id="stop939" />
    </linearGradient>
    <linearGradient
       id="linearGradient9778"
       x1="51.267"
       x2="50.278"
       y1="6.6"
       y2="5.7432"
       gradientUnits="userSpaceOnUse"
       gradientTransform="matrix(0.16441465,0,0,0.16441465,3.9263189,5.6543288)">
      <stop
         stop-color="#88c0d0"
         offset="0"
         id="stop942" />
      <stop
         stop-color="#eceff4"
         stop-opacity=".8"
         offset=".68217"
         id="stop944" />
      <stop
         stop-color="#88c0d0"
         offset="1"
         id="stop946" />
    </linearGradient>
    <linearGradient
       id="linearGradient10960"
       x1="52.128"
       x2="51.956"
       y1="4.3937"
       y2="4.2556"
       gradientTransform="translate(0.0093016,0.002067)"
       gradientUnits="userSpaceOnUse">
      <stop
         stop-color="#d8dee9"
         offset="0"
         id="stop949" />
      <stop
         stop-color="#eceff4"
         offset="1"
         id="stop951" />
    </linearGradient>
    <linearGradient
       id="linearGradient11270"
       x1="52.396"
       x2="51.942"
       y1="4.5925"
       y2="4.2701"
       gradientUnits="userSpaceOnUse"
       gradientTransform="matrix(0.16441465,0,0,0.16441465,3.9263189,5.6543288)">
      <stop
         stop-color="#2e3440"
         offset="0"
         id="stop954" />
      <stop
         stop-color="#4c566a"
         offset="1"
         id="stop956" />
    </linearGradient>
    <filter
       id="filter11568"
       x="-0.056370737"
       y="-0.059895922"
       width="1.1127415"
       height="1.1197918"
       color-interpolation-filters="sRGB">
      <feGaussianBlur
         stdDeviation="0.0045391125"
         id="feGaussianBlur959" />
    </filter>
    <linearGradient
       id="linearGradient11846"
       x1="52.544"
       x2="51.916"
       y1="4.6115"
       y2="4.272"
       gradientUnits="userSpaceOnUse"
       gradientTransform="matrix(0.16441465,0,0,0.16441465,3.9263189,5.6543288)">
      <stop
         stop-color="#eac57b"
         offset="0"
         id="stop962" />
      <stop
         stop-color="#ebcb8b"
         offset="1"
         id="stop964" />
    </linearGradient>
    <linearGradient
       id="linearGradient12317"
       x1="55.526"
       x2="51.625"
       y1="-.67835"
       y2="5.3778"
       gradientUnits="userSpaceOnUse"
       gradientTransform="matrix(0.16441465,0,0,0.16441465,3.9263189,5.6543288)">
      <stop
         stop-color="#88c0d0"
         offset="0"
         id="stop967" />
      <stop
         stop-color="#5e81ac"
         offset="1"
         id="stop969" />
    </linearGradient>
    <linearGradient
       id="linearGradient19188"
       x1="43.965"
       x2="39.895"
       y1="5.3156"
       y2="1.2218"
       gradientUnits="userSpaceOnUse"
       gradientTransform="matrix(0.16441465,0,0,0.16441465,6.6233768,5.6543288)">
      <stop
         stop-color="#88c0d0"
         offset="0"
         id="stop972" />
      <stop
         stop-color="#81a1c1"
         offset=".48461"
         id="stop974" />
      <stop
         stop-color="#5e81ac"
         offset="1"
         id="stop976" />
    </linearGradient>
    <linearGradient
       id="linearGradient19522"
       x1="46.368"
       x2="44.327"
       y1="8.6309"
       y2="3.8588"
       gradientUnits="userSpaceOnUse"
       gradientTransform="matrix(0.16441465,0,0,0.16441465,6.6233768,5.6543288)">
      <stop
         stop-color="#88c0d0"
         offset="0"
         id="stop979" />
      <stop
         stop-color="#81a1c1"
         offset="1"
         id="stop981" />
    </linearGradient>
    <linearGradient
       id="linearGradient20158"
       x1="44.934"
       x2="48.433"
       y1="13.68"
       y2="4.5609"
       gradientUnits="userSpaceOnUse"
       gradientTransform="matrix(0.16441465,0,0,0.16441465,6.6233768,5.6543288)">
      <stop
         stop-color="#88c0d0"
         offset="0"
         id="stop984" />
      <stop
         stop-color="#5e81ac"
         offset="1"
         id="stop986" />
    </linearGradient>
    <linearGradient
       id="linearGradient20446"
       x1="41.18"
       x2="47.915"
       y1="16.784"
       y2="11.323"
       gradientUnits="userSpaceOnUse"
       gradientTransform="matrix(0.16441465,0,0,0.16441465,6.6233768,5.6543288)">
      <stop
         stop-color="#5e81ac"
         offset="0"
         id="stop989" />
      <stop
         stop-color="#81a1c1"
         offset="1"
         id="stop991" />
    </linearGradient>
    <linearGradient
       id="linearGradient2635"
       x1="32.913"
       x2="30.899"
       y1="7.0913"
       y2="6.2755"
       gradientTransform="matrix(0.16441465,0,0,0.16441465,6.6233768,5.6543288)"
       gradientUnits="userSpaceOnUse">
      <stop
         stop-color="#81a1c1"
         offset="0"
         id="stop994" />
      <stop
         stop-color="#5e81ac"
         offset="1"
         id="stop996" />
    </linearGradient>
    <linearGradient
       id="linearGradient3005"
       x1="36.089"
       x2="31.853"
       y1="14.529"
       y2="10.976"
       gradientTransform="matrix(0.16441465,0,0,0.16441465,6.6233768,5.6543288)"
       gradientUnits="userSpaceOnUse">
      <stop
         stop-color="#5e81ac"
         offset="0"
         id="stop999" />
      <stop
         stop-color="#5e81ac"
         offset="1"
         id="stop1001" />
    </linearGradient>
    <linearGradient
       id="linearGradient4271"
       x1="35.78"
       x2="32.475"
       y1="14.686"
       y2="11.169"
       gradientTransform="matrix(0.16441465,0,0,0.16441465,6.6233768,5.6543288)"
       gradientUnits="userSpaceOnUse">
      <stop
         stop-color="#2e3440"
         stop-opacity=".4"
         offset="0"
         id="stop1004" />
      <stop
         stop-color="#2e3440"
         stop-opacity=".1"
         offset="1"
         id="stop1006" />
    </linearGradient>
    <linearGradient
       id="linearGradient5573"
       x1="42.903"
       x2="33.12"
       y1="14.677"
       y2="4.1864"
       gradientUnits="userSpaceOnUse"
       gradientTransform="matrix(0.16441465,0,0,0.16441465,6.6233768,5.6543288)">
      <stop
         stop-color="#d8dee9"
         offset="0"
         id="stop1009" />
      <stop
         stop-color="#eceff4"
         offset="1"
         id="stop1011" />
    </linearGradient>
    <filter
       id="filter1178-9"
       x="-0.047999482"
       y="-0.047999482"
       width="1.095999"
       height="1.095999"
       color-interpolation-filters="sRGB">
      <feGaussianBlur
         stdDeviation="0.30691668"
         id="feGaussianBlur1014" />
    </filter>
    <linearGradient
       id="linearGradient2014"
       x1="7.9709"
       x2="7.9827"
       y1="15.584"
       y2="1.1618"
       gradientUnits="userSpaceOnUse"
       gradientTransform="matrix(0.25597,0,0,0.25597,6.30497,4.72247)">
      <stop
         stop-color="#2e3440"
         stop-opacity=".2"
         offset="0"
         id="stop1017" />
      <stop
         stop-color="#4c566a"
         stop-opacity=".2"
         offset="1"
         id="stop1019" />
    </linearGradient>
    <linearGradient
       id="linearGradient2546"
       x1="7.9709"
       x2="7.9827"
       y1="15.584"
       y2="1.1618"
       gradientTransform="matrix(0.24626618,0,0,0.24626618,6.3871364,4.8046364)"
       gradientUnits="userSpaceOnUse">
      <stop
         stop-color="#2e3440"
         offset="0"
         id="stop1022" />
      <stop
         stop-color="#4c566a"
         offset="1"
         id="stop1024" />
    </linearGradient>
    <filter
       id="filter888"
       x="-0.15487105"
       y="-0.83466202"
       width="1.3097421"
       height="2.669324"
       color-interpolation-filters="sRGB">
      <feGaussianBlur
         stdDeviation="0.14481734"
         id="feGaussianBlur1027" />
    </filter>
    <style
       id="style1030">.cls-1{fill-rule:evenodd;}</style>
    <linearGradient
       id="linearGradient1070"
       x1="24.255"
       x2="24.483"
       y1="-11.18"
       y2="1.0418"
       gradientTransform="matrix(0.13791076,0,0,0.11853165,6.230397,8.6345202)"
       gradientUnits="userSpaceOnUse">
      <stop
         stop-color="#eceff4"
         offset="0"
         id="stop1032" />
      <stop
         stop-color="#d8dee9"
         offset="1"
         id="stop1034" />
    </linearGradient>
    <linearGradient
       id="linearGradient1424"
       x1="30.251"
       x2="30.458"
       y1="-6.3156"
       y2="2.5274"
       gradientUnits="userSpaceOnUse"
       gradientTransform="matrix(0.1417741,0,0,0.1417741,5.3387088,8.3040022)">
      <stop
         stop-color="#4c566a"
         offset="0"
         id="stop1037" />
      <stop
         stop-color="#2e3440"
         offset="1"
         id="stop1039" />
    </linearGradient>
    <linearGradient
       id="linearGradient1608"
       x1="5.2049"
       x2="5.2049"
       y1="7.1604"
       y2="3.8654"
       gradientUnits="userSpaceOnUse">
      <stop
         stop-color="#d8dee9"
         offset="0"
         id="stop1042" />
      <stop
         stop-color="#eceff4"
         offset="1"
         id="stop1044" />
    </linearGradient>
    <linearGradient
       id="linearGradient1614"
       x1="8.5029"
       x2="8.5394"
       y1="5.2206"
       y2="11.916"
       gradientUnits="userSpaceOnUse">
      <stop
         stop-color="#4c566a"
         offset="0"
         id="stop1047" />
      <stop
         stop-color="#2e3440"
         offset="1"
         id="stop1049" />
    </linearGradient>
    <linearGradient
       inkscape:collect="always"
       xlink:href="#linearGradient1340"
       id="linearGradient1353"
       gradientUnits="userSpaceOnUse"
       x1="8.355"
       y1="16.007"
       x2="8.3996"
       y2=".79375"
       gradientTransform="matrix(0.25597,0,0,0.25597,1.5426119,4.7223976)" />
    <linearGradient
       inkscape:collect="always"
       xlink:href="#linearGradient1614"
       id="linearGradient1355"
       gradientUnits="userSpaceOnUse"
       x1="8.5029"
       y1="5.2206"
       x2="8.5394"
       y2="11.916"
       gradientTransform="matrix(0.37312747,0,0,0.37312747,0.54989274,8.4940613)" />
    <linearGradient
       inkscape:collect="always"
       xlink:href="#linearGradient1614"
       id="linearGradient1357"
       gradientUnits="userSpaceOnUse"
       x1="8.5029"
       y1="5.2206"
       x2="8.5394"
       y2="11.916"
       gradientTransform="matrix(0.37312747,0,0,0.37312747,0.54989274,8.4940613)" />
    <linearGradient
       inkscape:collect="always"
       xlink:href="#linearGradient1608"
       id="linearGradient1361"
       gradientUnits="userSpaceOnUse"
       x1="5.2049"
       y1="7.1604"
       x2="5.2049"
       y2="3.8654"
       gradientTransform="matrix(0.3464042,0,0,0.3464042,6.063813,4.3983864)" />
    <linearGradient
       inkscape:collect="always"
       xlink:href="#linearGradient1608"
       id="linearGradient1363"
       gradientUnits="userSpaceOnUse"
       x1="5.2049"
       y1="7.1604"
       x2="5.2049"
       y2="3.8654"
       gradientTransform="matrix(0.3464042,0,0,0.3464042,6.063813,4.3983864)" />
  </defs>
  <g
     stroke-linecap="round"
     stroke-linejoin="round"
     id="g1060">
    <rect
       transform="matrix(.99138 0 0 1 .072989 2.5202e-7)"
       x=".79375"
       y="1.0171"
       width="15.346"
       height="15.346"
       rx="3.0526"
       ry="3.0526"
       fill="#2e3440"
       filter="url(#filter1178)"
       opacity=".2"
       stroke-width="1.2489"
       style="mix-blend-mode:normal"
       id="rect1054" />
    <rect
       x=".92604"
       y=".92604"
       width="15.081"
       height="15.081"
       rx="3"
       ry="3"
       fill="url(#linearGradient1340)"
       stroke-width="1.2274"
       id="rect1056" />
    <rect
       x=".01215"
       y=".0060174"
       width="16.924"
       height="16.927"
       fill="none"
       opacity=".15"
       stroke-width="1.052"
       id="rect1058" />
  </g>
  <style
     type="text/css"
     id="style1062"><![CDATA[
	.st0{fill-rule:evenodd;clip-rule:evenodd;}
]]></style>
  <path
     d="m3.926 0.92604h9.081c1.662 0 3 1.338 3 3h-15.081c0-1.662 1.338-3 3-3z"
     fill="url(#linearGradient1313)"
     stroke-linecap="round"
     stroke-linejoin="round"
     stroke-width="1.2274"
     id="path1064" />
  <ellipse
     cx="12.06"
     cy="2.426"
     rx=".44454"
     ry=".50993"
     fill="url(#linearGradient6495)"
     id="ellipse1066" />
  <ellipse
     cx="13.288"
     cy="2.426"
     rx=".44454"
     ry=".50993"
     fill="url(#linearGradient6567)"
     id="ellipse1068" />
  <ellipse
     cx="14.482"
     cy="2.426"
     rx=".44454"
     ry=".50993"
     fill="url(#linearGradient6639)"
     id="ellipse1070" />
  <rect
     x="1.7796503"
     y="4.9594359"
     width="3.8602836"
     height="3.8602836"
     rx="0.76791"
     ry="0.76791"
     fill="url(#linearGradient1129)"
     stroke-width="0.314178"
     id="rect1074"
     style="fill:url(#linearGradient1353);stroke-linecap:round;stroke-linejoin:round" />
  <rect
     x="1.5457219"
     y="4.723938"
     width="4.332036"
     height="4.3328042"
     fill="none"
     opacity="0.15"
     stroke-width="0.26928"
     id="rect1076"
     style="stroke-linecap:round;stroke-linejoin:round" />
  <path
     transform="matrix(0.26574805,0,0,0.26574805,1.4469405,4.6345097)"
     d="m 4.3033,5.6483 h 3.1453 c 0.39427,0 0.42842,-0.70505 0.88015,-0.70505 h 4.6221 c 0.31286,0 0.56473,0.25068 0.56473,0.56206 v 6.4869 c 0,0.31138 -0.25187,0.56206 -0.56473,0.56206 h -8.6476 c -0.31286,0 -0.56473,-0.25068 -0.56473,-0.56206 v -5.7818 c 0,-0.31138 0.25187,-0.56206 0.56473,-0.56206 z"
     fill="#2e3440"
     filter="url(#filter1321)"
     opacity="0.25"
     stroke-width="0.10954"
     id="path1082"
     style="stroke-linecap:round;stroke-linejoin:round" />
  <path
     transform="matrix(0.17966278,0,0,0.17966278,2.1719525,5.3131041)"
     d="m 2.0282,2.7764 h 4.6989 c 0.58902,0 0.64003,1.0583 1.3149,1.0583 h 6.9051 c 0.4674,0 0.84368,0.37628 0.84368,0.84368 v 9.2054 c 0,0.4674 -0.37628,0.84368 -0.84368,0.84368 H 2.0281 c -0.4674,0 -0.84368,-0.37628 -0.84368,-0.84368 v -10.264 c 0,-0.4674 0.37628,-0.84368 0.84368,-0.84368 z"
     fill="#2e3440"
     filter="url(#filter2347-3)"
     opacity="0.15"
     stroke-width="0.16404"
     id="path1084"
     style="stroke-linecap:round;stroke-linejoin:round" />
  <path
     d="m 2.5478188,5.6744825 h 0.8358701 c 0.1047762,0 0.1142445,0.2143416 0.2339002,0.224048 l 1.2282977,0.099654 c 0.08287,0.00672 0.1500777,0.066934 0.1500777,0.1500778 v 1.6374913 c 0,0.083144 -0.066934,0.1500778 -0.1500777,0.1500778 H 2.5478137 c -0.083142,0 -0.1500778,-0.066934 -0.1500778,-0.1500778 v -1.961242 c 0,-0.083144 0.066934,-0.1500777 0.1500778,-0.1500777 z"
     fill="#81a1c1"
     stroke-width="0.0291806"
     id="path1086"
     style="stroke-linecap:round;stroke-linejoin:round" />
  <path
     d="m 2.5478188,5.6744825 h 0.8358701 c 0.1047762,0 0.1141779,0.2241555 0.2339002,0.2329967 l 1.2282977,0.090706 c 0.082916,0.00612 0.1500777,0.066934 0.1500777,0.1500778 v 1.6374913 c 0,0.083144 -0.066934,0.1500778 -0.1500777,0.1500778 H 2.5478137 c -0.083142,0 -0.1500778,-0.066934 -0.1500778,-0.1500778 V 5.8245116 c 0,-0.083144 0.066934,-0.1500777 0.1500778,-0.1500777 z"
     fill="#2e3440"
     opacity="0.15"
     stroke-width="0.0291806"
     id="path1088"
     style="stroke-linecap:round;stroke-linejoin:round" />
  <path
     transform="matrix(0.17788379,0,0,0.17788379,-1.0046864,5.340928)"
     d="m 19.971,3.8487 h 4.6989 c 0.58902,0 0.64003,-1.0533 1.3149,-1.0533 h 6.9051 c 0.4674,0 0.84368,0.3745 0.84368,0.83969 v 9.691 c 0,0.46519 -0.37628,0.83969 -0.84368,0.83969 h -12.919 c -0.4674,0 -0.84368,-0.3745 -0.84368,-0.83969 v -8.6377 c 0,-0.46519 0.37628,-0.83969 0.84368,-0.83969 z"
     fill="#2e3440"
     filter="url(#filter2161-7)"
     opacity="0.5"
     stroke-width="0.16365"
     id="path1090"
     style="stroke-linecap:round;stroke-linejoin:round" />
  <path
     d="m 2.54787,6.0928655 h 0.83587 c 0.1047788,0 0.1138504,-0.187365 0.2339003,-0.187365 h 1.2283233 c 0.083144,0 0.1500777,0.066619 0.1500777,0.1493688 v 1.7238811 c 0,0.08275 -0.066934,0.1493688 -0.1500777,0.1493688 H 2.5478649 c -0.083144,0 -0.1500778,-0.066619 -0.1500778,-0.1493688 V 6.2422393 c 0,-0.08275 0.066934,-0.1493687 0.1500778,-0.1493687 z"
     fill="#81a1c1"
     stroke-width="0.0291115"
     id="path1092"
     style="stroke-linecap:round;stroke-linejoin:round" />
  <path
     d="m 2.54787,6.0928655 h 0.83587 c 0.1047788,0 0.1138504,-0.187365 0.2339003,-0.187365 h 1.2283233 c 0.083144,0 0.1500777,0.066619 0.1500777,0.1493688 v 1.7238811 c 0,0.08275 -0.066934,0.1493688 -0.1500777,0.1493688 H 2.5478649 c -0.083144,0 -0.1500778,-0.066619 -0.1500778,-0.1493688 V 6.2422393 c 0,-0.08275 0.066934,-0.1493687 0.1500778,-0.1493687 z"
     fill="url(#linearGradient2575)"
     stroke-width="0.0291115"
     id="path1094"
     style="fill:url(#linearGradient2575);stroke-linecap:round;stroke-linejoin:round" />
  <rect
     x="6.5420084"
     y="9.7219086"
     width="3.8602836"
     height="3.8602836"
     rx="0.76791"
     ry="0.76791"
     fill="url(#linearGradient1340-7)"
     stroke-linecap="round"
     stroke-linejoin="round"
     stroke-width="0.314178"
     id="rect1102"
     style="fill:url(#linearGradient1340-7)" />
  <path
     transform="matrix(0.23049331,0,0,0.23049331,12.613095,11.775597)"
     d="m -19.85,0.6113 h -0.04999 c -0.65374,0 -1.2482,0.26757 -1.6793,0.69865 -0.43108,0.43108 -0.69865,1.0256 -0.69865,1.6793 0,0.010229 0,0.020459 1.54e-4,0.030457 1.54e-4,0.01023 3.2e-4,0.020458 6.1e-4,0.03061 3.19e-4,0.010075 6.1e-4,0.020305 8.96e-4,0.03038 4.65e-4,0.010075 8.96e-4,0.020305 0.0014,0.03038 6.1e-4,0.010075 0.0012,0.020151 0.0018,0.030226 6.1e-4,0.010075 0.0014,0.020151 0.002,0.030226 7.56e-4,0.00992 0.0016,0.019997 0.0025,0.029918 v 1.537e-4 c 0.0027,0.029918 0.0059,0.059759 0.0096,0.08937 0.06857,0.53368 0.31592,1.0137 0.67978,1.3775 0.38394,0.38394 0.8977,0.63843 1.467,0.68935 0.0099,9.283e-4 0.02,0.00177 0.02992,0.00253 h 1.53e-4 c 0.0099,7.559e-4 0.02,0.00154 0.03007,0.00206 0.01007,7.558e-4 0.02015,0.00122 0.03022,0.00177 h 1.54e-4 c 0.0099,4.65e-4 0.02015,9.281e-4 0.03022,0.00139 0.01023,4.652e-4 0.02031,7.557e-4 0.03038,9.282e-4 h 1.54e-4 c 0.01007,3.198e-4 0.02031,4.651e-4 0.03046,6.103e-4 0.01007,1.539e-4 0.02031,3.199e-4 0.03046,3.199e-4 h 0.04999 c 0.65343,0 1.248,-0.2678 1.6793,-0.69896 0.43109,-0.43107 0.69881,-1.0255 0.69881,-1.6791 0,-0.65374 -0.26757,-1.2483 -0.69865,-1.6793 -0.43124,-0.43116 -1.0256,-0.69873 -1.6795,-0.69873 z m -0.05007,-0.41201 h 3.8707 c 0.76749,0 1.4651,0.31387 1.9707,0.8194 0.50561,0.50561 0.8194,1.2032 0.8194,1.9707 0,0.76749 -0.31387,1.4649 -0.81948,1.9705 -0.50561,0.50561 -1.2033,0.81956 -1.9706,0.81956 h -3.8706 c -0.012,0 -0.02392,-1.54e-4 -0.03591,-3.2e-4 -0.01185,-1.54e-4 -0.02392,-3.2e-4 -0.03576,-6.11e-4 -0.01184,-4.65e-4 -0.02392,-7.55e-4 -0.03576,-0.0012 -0.01184,-4.65e-4 -0.02377,-0.0011 -0.03561,-0.0016 -0.01185,-6.1e-4 -0.02361,-0.0012 -0.03546,-0.002 -0.01185,-7.56e-4 -0.02361,-0.0016 -0.0353,-0.0025 -0.01185,-8.96e-4 -0.02361,-0.0018 -0.0353,-0.0028 -0.66858,-0.059966 -1.2711,-0.35815 -1.7215,-0.80853 -0.41862,-0.41862 -0.70588,-0.96907 -0.79226,-1.5816 v -1.539e-4 c -0.0033,-0.022996 -0.0063,-0.0463 -0.009,-0.069527 -0.0027,-0.023305 -0.005,-0.046531 -0.0071,-0.070142 -0.0011,-0.011691 -0.002,-0.023459 -0.003,-0.035147 -8.95e-4,-0.011843 -0.0018,-0.023613 -0.0025,-0.035456 -7.55e-4,-0.011692 -0.0014,-0.023613 -0.002,-0.035455 -6.1e-4,-0.011843 -0.0012,-0.023764 -0.0016,-0.03561 -4.66e-4,-0.011846 -7.57e-4,-0.023767 -0.0011,-0.035763 -3.2e-4,-0.011843 -6.1e-4,-0.023764 -7.56e-4,-0.035763 -1.54e-4,-0.011996 -1.54e-4,-0.023918 -1.54e-4,-0.035917 0,-0.76749 0.3138,-1.4651 0.8194,-1.9708 0.50556,-0.50546 1.2031,-0.81933 1.9706,-0.81933 z"
     fill="#2e3440"
     filter="url(#filter11787)"
     stroke-width="0.07691"
     style="mix-blend-mode:normal"
     id="path1104" />
  <rect
     x="6.3080802"
     y="9.4864101"
     width="4.332036"
     height="4.3328042"
     fill="none"
     opacity="0.15"
     stroke-linecap="round"
     stroke-linejoin="round"
     stroke-width="0.26928"
     id="rect1106" />
  <path
     transform="matrix(0.23049331,0,0,0.23049331,12.613095,11.775597)"
     d="m -16.08,-6.2923 h 0.04999 c 0.65374,0 1.2482,0.26757 1.6793,0.69865 0.43108,0.43108 0.69865,1.0256 0.69865,1.6793 0,0.010229 0,0.020459 -1.54e-4,0.030457 -1.54e-4,0.01023 -3.2e-4,0.020458 -6.1e-4,0.03061 -3.19e-4,0.010075 -6.1e-4,0.020305 -8.96e-4,0.03038 -4.65e-4,0.010075 -8.96e-4,0.020305 -0.0014,0.03038 -6.1e-4,0.010075 -0.0012,0.020151 -0.0018,0.030226 -6.1e-4,0.010075 -0.0014,0.020151 -0.002,0.030226 -7.56e-4,0.00992 -0.0016,0.019997 -0.0025,0.029918 v 1.537e-4 c -0.0027,0.029918 -0.0059,0.059759 -0.0096,0.08937 -0.06857,0.53368 -0.31592,1.0137 -0.67978,1.3775 -0.38394,0.38394 -0.8977,0.63843 -1.467,0.68935 -0.0099,9.282e-4 -0.02,0.00177 -0.02992,0.00253 h -1.53e-4 c -0.0099,7.559e-4 -0.02,0.00154 -0.03007,0.00206 -0.01007,7.558e-4 -0.02015,0.00122 -0.03022,0.00177 h -1.54e-4 c -0.0099,4.651e-4 -0.02015,9.282e-4 -0.03022,0.00139 -0.01023,4.651e-4 -0.02031,7.558e-4 -0.03038,9.282e-4 h -1.54e-4 c -0.01007,3.198e-4 -0.02031,4.651e-4 -0.03046,6.104e-4 -0.01007,1.538e-4 -0.02031,3.198e-4 -0.03046,3.198e-4 h -0.04999 c -0.65343,0 -1.248,-0.2678 -1.6793,-0.69896 -0.43109,-0.43107 -0.69881,-1.0255 -0.69881,-1.6791 0,-0.65374 0.26757,-1.2483 0.69866,-1.6793 0.43124,-0.43116 1.0256,-0.69873 1.6795,-0.69873 z m 0.05007,-0.41201 h -3.8707 c -0.76749,0 -1.4651,0.31387 -1.9707,0.8194 -0.50561,0.50561 -0.8194,1.2032 -0.8194,1.9707 0,0.7675 0.31387,1.4649 0.81948,1.9705 0.50561,0.50561 1.2033,0.81956 1.9706,0.81956 h 3.8706 c 0.012,0 0.02392,-1.54e-4 0.03591,-3.2e-4 0.01185,-1.54e-4 0.02392,-3.2e-4 0.03576,-6.11e-4 0.01184,-4.65e-4 0.02392,-7.55e-4 0.03576,-0.0012 0.01184,-4.65e-4 0.02377,-0.0011 0.03561,-0.0016 0.01185,-6.1e-4 0.02361,-0.0012 0.03546,-0.002 0.01185,-7.56e-4 0.02361,-0.0016 0.0353,-0.0025 0.01185,-8.96e-4 0.02361,-0.0018 0.0353,-0.0028 0.66858,-0.059966 1.2711,-0.35815 1.7215,-0.80853 0.41862,-0.41862 0.70588,-0.96907 0.79226,-1.5816 v -1.538e-4 c 0.0033,-0.022996 0.0063,-0.0463 0.009,-0.069527 0.0027,-0.023305 0.005,-0.046531 0.0071,-0.070142 0.0011,-0.011691 0.002,-0.023459 0.003,-0.035147 8.95e-4,-0.011843 0.0018,-0.023613 0.0025,-0.035456 7.55e-4,-0.011692 0.0014,-0.023613 0.002,-0.035455 6.1e-4,-0.011843 0.0012,-0.023764 0.0016,-0.03561 4.66e-4,-0.011846 7.57e-4,-0.023767 0.0011,-0.035763 3.2e-4,-0.011843 6.1e-4,-0.023764 7.56e-4,-0.035763 1.54e-4,-0.011996 1.54e-4,-0.023918 1.54e-4,-0.035917 0,-0.76749 -0.3138,-1.4651 -0.8194,-1.9708 -0.50556,-0.50546 -1.2031,-0.81933 -1.9706,-0.81933 z"
     fill="#2e3440"
     filter="url(#filter11783)"
     stroke-width="0.07691"
     style="mix-blend-mode:normal"
     id="path1108" />
  <ellipse
     cx="8.9130487"
     cy="10.834753"
     rx="0.57334721"
     ry="0.56495136"
     fill="#eceff4"
     stroke-linecap="round"
     stroke-linejoin="round"
     stroke-width="0.700155"
     id="ellipse1110" />
  <path
     d="m 8.9066491,10.291329 h 0.011521 c 0.1506818,0 0.2877103,0.06167 0.3870522,0.161036 0.099363,0.09936 0.1610359,0.236393 0.1610359,0.387078 0,0.0024 0,0.0047 -3.54e-5,0.007 -3.55e-5,0.0024 -7.39e-5,0.0047 -1.407e-4,0.0071 -7.35e-5,0.0023 -1.406e-4,0.0047 -2.063e-4,0.007 -1.073e-4,0.0023 -2.066e-4,0.0047 -3.328e-4,0.007 -1.405e-4,0.0023 -2.816e-4,0.0046 -4.096e-4,0.007 -1.405e-4,0.0023 -3.327e-4,0.0046 -4.607e-4,0.007 -1.743e-4,0.0023 -3.584e-4,0.0046 -5.887e-4,0.0069 v 3.5e-5 c -6.144e-4,0.0069 -0.00136,0.01377 -0.0022,0.0206 -0.015806,0.123009 -0.072818,0.233647 -0.1566869,0.317506 -0.088494,0.08849 -0.2069133,0.147154 -0.3381364,0.15889 -0.00228,2.14e-4 -0.00461,4.07e-4 -0.0069,5.84e-4 h -3.53e-5 c -0.00228,1.74e-4 -0.00461,3.56e-4 -0.00693,4.74e-4 -0.00233,1.74e-4 -0.00464,2.81e-4 -0.00696,4.07e-4 h -3.56e-5 c -0.00228,1.07e-4 -0.00464,2.13e-4 -0.00696,3.19e-4 -0.00235,1.08e-4 -0.00468,1.75e-4 -0.007,2.14e-4 h -3.56e-5 c -0.00233,7.4e-5 -0.00468,1.08e-4 -0.00702,1.41e-4 -0.00233,3.6e-5 -0.00468,7.4e-5 -0.00702,7.4e-5 h -0.011521 c -0.1506127,0 -0.2876591,-0.06173 -0.3870522,-0.161105 -0.099362,-0.09936 -0.1610717,-0.236376 -0.1610717,-0.387027 0,-0.150682 0.061673,-0.28771 0.1610358,-0.387078 0.099403,-0.09938 0.2364011,-0.161051 0.3871291,-0.161051 z m 0.011542,-0.09496 H 8.0260329 c -0.1769008,0 -0.3376756,0.07234 -0.4542187,0.188868 -0.1165406,0.11654 -0.1888701,0.277318 -0.1888701,0.454218 0,0.176901 0.072345,0.33765 0.1888854,0.454194 0.1165406,0.11654 0.2773435,0.188903 0.4542188,0.188903 h 0.8921578 c 0.00277,0 0.00551,-3.6e-5 0.00828,-7.4e-5 0.00273,-3.5e-5 0.00551,-7.4e-5 0.00824,-1.41e-4 0.00273,-1.07e-4 0.00551,-1.74e-4 0.00824,-2.76e-4 0.00273,-1.07e-4 0.00548,-2.54e-4 0.00821,-3.69e-4 0.00273,-1.4e-4 0.00544,-2.76e-4 0.00817,-4.6e-4 0.00273,-1.75e-4 0.00544,-3.69e-4 0.00814,-5.76e-4 0.00273,-2.07e-4 0.00544,-4.15e-4 0.00814,-6.45e-4 0.1540991,-0.01382 0.2929833,-0.08255 0.3967791,-0.186365 0.09649,-0.09649 0.1627022,-0.223364 0.182609,-0.364552 v -3.5e-5 c 7.679e-4,-0.0053 0.00146,-0.01067 0.00207,-0.01603 6.143e-4,-0.0054 0.00115,-0.01073 0.00164,-0.01617 2.536e-4,-0.0027 4.607e-4,-0.0054 6.911e-4,-0.0081 2.063e-4,-0.0027 4.095e-4,-0.0054 5.887e-4,-0.0082 1.741e-4,-0.0027 3.328e-4,-0.0054 4.608e-4,-0.0082 1.405e-4,-0.0027 2.815e-4,-0.0055 3.583e-4,-0.0082 1.073e-4,-0.0027 1.743e-4,-0.0055 2.534e-4,-0.0082 7.38e-5,-0.0027 1.408e-4,-0.0055 1.744e-4,-0.0082 3.55e-5,-0.0028 3.55e-5,-0.0055 3.55e-5,-0.0083 0,-0.176901 -0.072327,-0.337676 -0.1888674,-0.454244 -0.1165304,-0.116505 -0.2773179,-0.18885 -0.4541932,-0.18885 z"
     fill="#5e81ac"
     stroke-width="0.0177275"
     id="path1112" />
  <ellipse
     cx="8.0140305"
     cy="12.421102"
     rx="0.57334721"
     ry="0.56495136"
     fill="#eceff4"
     stroke-linecap="round"
     stroke-linejoin="round"
     stroke-width="0.700155"
     id="ellipse1114" />
  <path
     d="m 8.0376053,11.87691 h -0.011522 c -0.1506818,0 -0.2876846,0.06167 -0.3870522,0.161035 -0.099362,0.09936 -0.1610358,0.236394 -0.1610358,0.387078 0,0.0024 0,0.0047 3.55e-5,0.007 3.55e-5,0.0024 7.37e-5,0.0047 1.406e-4,0.0071 7.35e-5,0.0023 1.406e-4,0.0047 2.065e-4,0.007 1.072e-4,0.0023 2.065e-4,0.0047 3.225e-4,0.007 1.406e-4,0.0023 2.765e-4,0.0046 4.147e-4,0.007 1.406e-4,0.0023 3.225e-4,0.0046 4.607e-4,0.007 1.743e-4,0.0023 3.686e-4,0.0046 5.76e-4,0.0069 v 3.5e-5 c 6.22e-4,0.0069 0.00136,0.01377 0.00221,0.0206 0.015805,0.123009 0.072818,0.233647 0.156687,0.317505 0.088494,0.08849 0.2069133,0.147155 0.3381363,0.158891 0.00228,2.14e-4 0.00461,4.09e-4 0.0069,5.89e-4 h 3.52e-5 c 0.00228,1.74e-4 0.00461,3.58e-4 0.00693,4.86e-4 0.00232,1.74e-4 0.00464,2.82e-4 0.00697,4.09e-4 h 3.54e-5 c 0.00228,1.07e-4 0.00464,2.14e-4 0.00697,3.33e-4 0.00236,1.08e-4 0.00468,1.75e-4 0.007,2.14e-4 h 3.55e-5 c 0.00232,7.4e-5 0.00468,1.08e-4 0.00702,1.41e-4 0.00232,3.5e-5 0.00468,7.4e-5 0.00702,7.4e-5 h 0.011522 c 0.1506102,0 0.2876591,-0.06173 0.3870523,-0.161108 0.099362,-0.09936 0.1610717,-0.236375 0.1610717,-0.387026 0,-0.150682 -0.061673,-0.287711 -0.1610359,-0.387078 -0.099396,-0.09941 -0.2363908,-0.161087 -0.3871034,-0.161087 z m -0.011541,-0.09497 h 0.8921579 c 0.1769008,0 0.3377012,0.07235 0.4542187,0.188867 0.1165406,0.116541 0.1888675,0.277318 0.1888675,0.454219 0,0.176901 -0.072345,0.33765 -0.1888854,0.454193 -0.1165406,0.116541 -0.2773435,0.188903 -0.4542188,0.188903 H 8.0260465 c -0.00277,0 -0.00551,-3.5e-5 -0.00828,-7.3e-5 -0.00273,-3.6e-5 -0.00551,-7.4e-5 -0.00824,-1.41e-4 -0.00273,-1.07e-4 -0.00551,-1.74e-4 -0.00824,-2.82e-4 -0.00273,-1.07e-4 -0.00548,-2.53e-4 -0.00821,-3.58e-4 -0.00273,-1.41e-4 -0.00544,-2.82e-4 -0.00817,-4.61e-4 -0.00273,-1.74e-4 -0.00544,-3.58e-4 -0.00814,-5.88e-4 -0.00273,-2.07e-4 -0.00544,-4.1e-4 -0.00814,-6.4e-4 C 7.8145259,13.051764 7.6756469,12.983033 7.571851,12.879222 7.4753606,12.782732 7.4091488,12.655858 7.389242,12.51467 v -3.6e-5 c -7.602e-4,-0.0053 -0.00145,-0.01067 -0.00207,-0.01603 -6.22e-4,-0.0054 -0.00115,-0.01073 -0.00164,-0.01617 -2.535e-4,-0.0027 -4.607e-4,-0.0054 -6.911e-4,-0.0081 -2.063e-4,-0.0027 -4.147e-4,-0.0054 -5.759e-4,-0.0082 -1.741e-4,-0.0027 -3.226e-4,-0.0054 -4.608e-4,-0.0082 -1.406e-4,-0.0027 -2.764e-4,-0.0055 -3.686e-4,-0.0082 -1.074e-4,-0.0027 -1.745e-4,-0.0055 -2.535e-4,-0.0082 -7.38e-5,-0.0027 -1.406e-4,-0.0055 -1.743e-4,-0.0082 -3.55e-5,-0.0028 -3.55e-5,-0.0055 -3.55e-5,-0.0083 0,-0.176901 0.072327,-0.337676 0.1888675,-0.454245 C 7.688365,11.854287 7.8491577,11.78194 8.026033,11.78194 Z"
     fill="#4c566a"
     stroke-width="0.0177275"
     id="path1116" />
  <rect
     x="1.7796085"
     y="9.7219086"
     width="3.8602836"
     height="3.8602836"
     rx="0.76791"
     ry="0.76791"
     fill="url(#linearGradient1340-3)"
     stroke-width="0.314178"
     id="rect1122"
     style="fill:url(#linearGradient1340-3);stroke-linecap:round;stroke-linejoin:round" />
  <rect
     x="1.54568"
     y="9.4864101"
     width="4.332036"
     height="4.3328042"
     fill="none"
     opacity="0.15"
     stroke-width="0.26928"
     id="rect1124"
     style="stroke-linecap:round;stroke-linejoin:round" />
  <path
     d="m 2.541983,10.913942 a 0.07897616,0.07897616 0 0 0 -0.047645,0.0079 0.09196846,0.09196846 0 0 0 -0.056051,0.07949 c -2.542e-4,0.03439 0.024207,0.06369 0.056051,0.07974 l 0.8756183,0.270551 -0.0079,0.629242 -0.3105502,0.931139 c -0.029811,0.04255 -0.020635,0.0912 0.023947,0.119737 0.044581,0.02802 0.1136211,0.01834 0.1431728,-0.02395 l 0.4937222,-1.003228 0.4934611,1.003228 a 0.09349455,0.09349455 0 0 0 0.1273783,0.03184 c 0.046365,-0.02548 0.066237,-0.07566 0.039999,-0.119736 L 4.0705437,11.980617 4.0547485,11.399508 4.9464112,11.081063 a 0.09375201,0.09375201 0 0 0 0.031843,-0.111584 c -0.015541,-0.03873 -0.060122,-0.06038 -0.081778,-0.05808 l -1.18412,0.193616 z"
     id="path1128"
     style="fill:url(#linearGradient1355);stroke-width:0.254757" />
  <path
     d="m 3.7281179,10.253096 c -0.1816422,0 -0.326091,0.141389 -0.326091,0.318446 0,0.177056 0.1444488,0.326345 0.326091,0.326345 0.1816422,0 0.3265985,-0.149289 0.3265985,-0.326345 0,-0.177057 -0.1449563,-0.318446 -0.3265985,-0.318446 z"
     id="path1130"
     style="fill:url(#linearGradient1357);stroke-width:0.254757" />
  <rect
     x="11.304408"
     y="4.9595084"
     width="3.8602836"
     height="3.8602836"
     rx="0.76791"
     ry="0.76791"
     fill="url(#linearGradient1340-2)"
     stroke-width="0.314178"
     id="rect1138"
     style="fill:url(#linearGradient1340-2);stroke-linecap:round;stroke-linejoin:round" />
  <rect
     x="11.07048"
     y="4.7240105"
     width="4.332036"
     height="4.3328042"
     fill="none"
     opacity="0.15"
     stroke-width="0.26928"
     id="rect1140"
     style="stroke-linecap:round;stroke-linejoin:round" />
  <path
     d="m 12.454342,8.154418 c -0.122327,-0.2499103 -0.15051,-0.3902546 -0.15051,-0.3902546 0,0 0.17137,0.17862 0.3468,0.1887315 L 12.45317,7.6672738 c 0,0 -0.466494,-0.1564833 -0.592616,-0.208264 0.05796,0.4973872 0.5938,0.6953917 0.5938,0.6953917 z"
     fill="url(#linearGradient3005)"
     id="path1144"
     style="fill:url(#linearGradient3005);stroke-width:0.164415" />
  <path
     d="m 12.454342,8.154418 c -0.122327,-0.2499103 -0.15051,-0.3902546 -0.15051,-0.3902546 0,0 0.17137,0.17862 0.3468,0.1887315 L 12.45317,7.6672738 c 0,0 -0.466494,-0.1564833 -0.592616,-0.208264 0.05796,0.4973872 0.5938,0.6953917 0.5938,0.6953917 z"
     fill="url(#linearGradient4271)"
     id="path1146"
     style="fill:url(#linearGradient4271);stroke-width:0.164415" />
  <path
     d="M 11.836965,7.5390139 13.818491,8.1875146 14.37094,6.650846 11.99745,6.2148677 c -0.287298,0.2122264 -0.160391,1.3241462 -0.160391,1.3241462 z"
     fill="url(#linearGradient5573)"
     id="path1148"
     style="fill:url(#linearGradient5573);stroke-width:0.164415" />
  <path
     d="M 11.836965,7.5390139 13.818491,8.1875146 14.320958,6.7239119 12.655274,7.3097048 11.947403,6.2879335 C 11.660105,6.50016 11.836995,7.5390139 11.836995,7.5390139 Z"
     fill="none"
     stroke="#7b88a1"
     stroke-width="0.045676"
     id="path1150" />
  <path
     d="m 12.568611,5.7311894 c -0.509768,0.2103849 -0.742497,0.5512001 -0.835408,0.8695068 -0.199221,0.6825675 0.203052,1.3929374 0.721074,1.5536692 -0.605918,-0.2979852 -0.620847,-0.8663666 -0.610719,-1.1640558 0.05964,0.090939 0.179969,0.1021689 0.179969,0.1021689 -0.353311,-0.5479775 0.198645,-0.8694411 0.241656,-0.8396985 0,0 0.103062,-0.1886658 0.303411,-0.5216054 z"
     fill="url(#linearGradient2635)"
     id="path1154"
     style="fill:url(#linearGradient2635);stroke-width:0.164415" />
  <path
     d="m 12.25984,6.2500688 c -0.09604,0.00386 -0.567675,0.3077514 -0.241657,0.8396985 -0.0513,-0.06921 -0.113418,-0.2954202 -0.05134,-0.4957759 0.03641,-0.117517 0.168903,-0.2929047 0.341736,-0.3005171 z"
     fill="#5e81ac"
     id="path1156"
     style="stroke-width:0.164415" />
  <path
     d="m 12.950381,5.5191306 c -0.206948,0.01096 -0.448572,0.1783735 -0.5731,0.4439525 -0.255681,0.2694098 -0.08643,0.387739 -0.123873,0.5657015 -0.05911,0.1551318 -0.0063,0.2000597 0.0043,0.2628332 0.125513,-0.1383204 0.156599,-0.1145131 0.273504,-0.1817111 0.133547,-0.076767 0.252985,-0.1598176 0.297574,-0.1537375 0.179113,-0.025884 0.26359,0.020317 0.459473,0.055796 0.233338,0.042264 0.513599,0.063714 0.53739,0.079258 L 14.047415,5.9073728 C 13.50409,5.5645847 13.155679,5.5995064 12.956228,5.6201075 c 0,0 0.0099,-0.020353 0.04416,-0.045375 -0.06119,-0.00338 -0.160694,0.063859 -0.185262,0.077045 0.0155,-0.052968 0.135256,-0.132635 0.135256,-0.132635 z"
     fill="url(#linearGradient9038)"
     id="path1158"
     style="fill:url(#linearGradient9038);stroke-width:0.164415" />
  <path
     d="m 12.815068,5.6517644 c -0.02153,0.0037 -0.08982,0.033751 -0.08982,0.033751 0.07424,-0.1098751 0.225067,-0.1663877 0.225067,-0.1663877 0,0 -0.116414,0.0753 -0.135255,0.132635 z"
     fill="url(#linearGradient9250)"
     id="path1160"
     style="fill:url(#linearGradient9250);stroke-width:0.164415" />
  <path
     d="m 13.000363,5.5747192 c 0,0 -0.03902,0.013055 -0.08277,0.054346 0,0 0.02637,-0.00742 0.03861,-0.00897 0.0062,-0.01754 0.04416,-0.045375 0.04416,-0.045375 z"
     fill="url(#linearGradient9538)"
     id="path1162"
     style="fill:url(#linearGradient9538);stroke-width:0.164415" />
  <path
     d="m 12.4088,6.5482019 c 0,0 4.27e-4,0.07739 0.02598,0.079468 -0.02074,0.0043 -0.08308,0.031201 -0.177075,0.1639428 0,0 -0.0951,-0.105569 -0.0043,-0.2628333 0,0 0.04054,0.097669 0.155431,0.019416 z"
     fill="#88c0d0"
     id="path1164"
     style="stroke-width:0.164415" />
  <path
     d="m 13.000857,5.8907735 c 0,0 -0.412615,0.116274 -0.574399,0.3298487 -0.05717,0.075476 -0.02267,0.2500253 -0.01224,0.3178957 0,0 0.168164,-0.059508 0.231841,-0.1184673 0.03602,-0.033347 0.176138,-0.3664967 0.354791,-0.5292672 z"
     fill="url(#linearGradient12317)"
     id="path1166"
     style="fill:url(#linearGradient12317);stroke-width:0.164415" />
  <path
     d="m 13.000857,5.8907735 c 0,0 -0.412615,0.116274 -0.574399,0.3298487 -0.05717,0.075476 -0.02267,0.2500253 -0.01224,0.3178957 0.371462,-0.5832116 0.503405,-0.5918763 0.586632,-0.6477444 z"
     fill="#2e3440"
     opacity="0.1"
     id="path1168"
     style="stroke-width:0.164415" />
  <path
     d="m 12.441025,6.4459196 c 0,0 0.06179,0.023759 0.108658,-0.019523 0.07172,-0.066238 0.04178,-0.1467763 0.04178,-0.1467763 0,0 -0.07961,-0.057492 -0.142337,0.025613 -0.01956,0.025918 -0.02555,0.060695 -0.0081,0.1406847 z"
     fill="#5e81ac"
     id="path1170"
     style="stroke-width:0.164415" />
  <path
     d="m 12.473908,6.4433876 c 0.03493,0.00817 0.06174,-0.00288 0.07666,-0.019879 0.06079,-0.069274 0.02006,-0.1056907 0.02006,-0.1056907 0,0 -0.06527,-0.035953 -0.105217,0.041842 -0.01235,0.024042 -6.6e-5,0.065126 0.0085,0.083728 z"
     fill="url(#linearGradient11846)"
     id="path1172"
     style="fill:url(#linearGradient11846);stroke-width:0.164415" />
  <ellipse
     cx="12.508928"
     cy="6.376997"
     rx="0.042670537"
     ry="0.040240485"
     fill="url(#linearGradient11270)"
     id="ellipse1174"
     style="fill:url(#linearGradient11270);stroke-width:0.164415" />
  <ellipse
     cx="52.056"
     cy="4.3256001"
     rx="0.096626997"
     ry="0.090939999"
     fill="url(#linearGradient10960)"
     filter="url(#filter11568)"
     id="ellipse1176"
     style="fill:url(#linearGradient10960)"
     transform="matrix(0.16441465,0,0,0.16441465,3.9263189,5.6543288)" />
  <path
     d="m 12.4088,6.5482019 c 0,0 4.27e-4,0.07739 0.02598,0.079468 -0.02074,0.0043 -0.08308,0.031201 -0.177075,0.1639428 0,0 -0.0951,-0.105569 -0.0043,-0.2628333 0,0 0.04054,0.097669 0.155431,0.019416 z"
     fill="url(#linearGradient9778)"
     id="path1178"
     style="fill:url(#linearGradient9778);stroke-width:0.164415" />
  <path
     d="m 13.001027,5.8907776 c 0,0 -0.06035,0.017054 -0.14384,0.049956 0.02418,-0.00589 0.06277,-0.015015 0.09329,-0.020901 2.2e-5,-1.25e-5 4.3e-5,1.24e-5 8.7e-5,0 0.01908,-0.010522 0.03559,-0.01907 0.05047,-0.029057 z"
     fill="#88c0d0"
     id="path1180"
     style="stroke-width:0.0435008" />
  <path
     d="m 13.858279,7.5376986 c 0,0 0.01112,0.5513317 -0.670549,0.876363 0.413947,-0.052785 0.582768,-0.2534452 0.582768,-0.2534452 0,0 -0.03753,0.1385045 -0.288893,0.2780745 0.880276,-0.1604029 1.115175,-0.9679913 1.115175,-0.9679913 -0.09409,-0.2605478 -0.738501,0.067001 -0.738501,0.067001 z"
     fill="url(#linearGradient20446)"
     id="path1182"
     style="fill:url(#linearGradient20446);stroke-width:0.164415" />
  <path
     d="m 13.843811,7.1941378 c 0.02861,0.2808202 -0.181235,0.5171169 -0.181235,0.5171169 0.340191,-0.1049787 0.420984,-0.2587229 0.420984,-0.2587229 0,0 -0.0074,0.1770253 -0.189077,0.4002511 0.286575,-0.071614 0.373123,-0.2335511 0.373123,-0.2335511 0,0 -0.0053,0.1320234 -0.215038,0.3923592 0.811715,-0.2742437 0.637616,-1.2801489 0.38302,-1.6961016 z"
     fill="url(#linearGradient20158)"
     id="path1184"
     style="fill:url(#linearGradient20158);stroke-width:0.164415" />
  <path
     d="m 13.727569,6.8629573 c 0,0 0.02949,0.3195235 -0.06789,0.506874 0.279669,-0.1580798 0.352965,-0.3934936 0.352965,-0.3934936 0,0 0.04423,0.1419359 0.0039,0.2593476 0.215351,-0.2023286 0.232696,-0.4091787 0.232696,-0.4091787 0,0 0.04573,0.093618 0.03251,0.2234231 0.114104,-0.1338303 0.131193,-0.3599201 0.131193,-0.3599201 0,0 0.05014,0.046773 0.05804,0.1951437 C 14.765884,6.4347558 14.05558,5.8995039 14.05558,5.8995039 l -0.336228,0.5930108 z"
     fill="url(#linearGradient19522)"
     id="path1186"
     style="fill:url(#linearGradient19522);stroke-width:0.164415" />
  <path
     d="m 12.942654,6.0891562 c 0.0233,-0.1702842 0.248069,-0.188189 0.248069,-0.188189 0.131896,-0.1907703 0.283303,-0.094575 0.283303,-0.094575 -0.06764,-0.077048 0.161644,-0.1061099 0.161644,-0.1061099 0.08241,0.018257 0.241196,0.078225 0.381771,0.1742302 0.158387,0.1081684 0.290997,0.2239656 0.216419,0.5230523 -0.03436,-0.1004557 -0.100823,-0.149928 -0.100823,-0.149928 0,0 0.0315,0.1983827 -0.04811,0.299547 C 14.062417,6.4281394 14.001327,6.404 14.001327,6.404 c 0,0 0.02358,0.1475967 -0.0756,0.3018982 -0.01567,-0.1126388 -0.07395,-0.1775843 -0.07395,-0.1775843 0,0 0.03013,0.1124383 -0.12418,0.3346661 -0.02693,-0.3117795 -0.204039,-0.7041551 -0.784949,-0.7738176 z"
     fill="url(#linearGradient19188)"
     id="path1188"
     style="fill:url(#linearGradient19188);stroke-width:0.164415" />
  <rect
     x="6.5420084"
     y="4.9595084"
     width="3.8602836"
     height="3.8602836"
     rx="0.76791"
     ry="0.76791"
     fill="url(#linearGradient1129)"
     stroke-width="0.314178"
     id="rect1198"
     style="fill:url(#linearGradient1129);stroke-linecap:round;stroke-linejoin:round" />
  <rect
     x="6.3080802"
     y="4.7240105"
     width="4.332036"
     height="4.3328042"
     fill="none"
     opacity="0.15"
     stroke-width="0.26928"
     id="rect1200"
     style="stroke-linecap:round;stroke-linejoin:round" />
  <rect
     x="6.5420084"
     y="4.9595084"
     width="3.8602836"
     height="3.8602836"
     rx="0.76791"
     ry="0.76791"
     fill="url(#linearGradient2014)"
     stroke-width="0.314178"
     id="rect1202"
     style="fill:url(#linearGradient2014);stroke-linecap:round;stroke-linejoin:round" />
  <rect
     x="6.61518"
     y="5.03268"
     width="3.7138686"
     height="3.7138686"
     rx="0.73880625"
     ry="0.73880625"
     fill="url(#linearGradient2546)"
     stroke-width="0.314178"
     id="rect1204"
     style="fill:url(#linearGradient2546);stroke-linecap:round;stroke-linejoin:round" />
  <path
     d="M 2.6666,4.1314 V 3.5835 L 5.4763,4.5982 V 5.11542 L 2.6666,6.13012 V 5.58222 L 4.7815,4.85899 Z"
     id="path1208"
     transform="matrix(0.3464042,0,0,0.3464042,6.1237548,4.4583282)"
     style="opacity:0.25;fill:#2e3440;stroke-width:0.19551;filter:url(#filter888)" />
  <path
     d="M 8.1961,6.9059 V 7.32231 H 5.9519 V 6.9059 Z"
     id="path1210"
     transform="matrix(0.3464042,0,0,0.3464042,6.1237548,4.4583282)"
     style="opacity:0.25;fill:#2e3440;stroke-width:0.19551;filter:url(#filter888)" />
  <path
     d="M 6.9875344,5.8295207 V 5.6397259 L 7.9608263,5.9912222 V 6.1703894 L 6.9875344,6.5218857 V 6.3320909 l 0.7326103,-0.25053 z"
     id="path1214"
     style="fill:url(#linearGradient1361);stroke-width:0.0677255" />
  <path
     d="M 8.9029765,6.7906192 V 6.9348653 H 8.1255762 V 6.7906192 Z"
     id="path1216"
     style="fill:url(#linearGradient1363);stroke-width:0.0677255" />
  <ellipse
     cx="9.6175928"
     cy="8.0355816"
     rx="0.78471965"
     ry="0.78433686"
     fill="url(#linearGradient1070)"
     stroke-width="0.302376"
     id="ellipse1222"
     style="fill:url(#linearGradient1070)" />
  <path
     class="cls-1"
     d="m 9.7561062,7.5112298 a 0.53930868,0.53930868 0 0 1 0.1310574,0.059374 l 0.070534,-0.07088 a 0.0874491,0.0874491 0 0 1 0.1233494,0 l 0.07226,0.072605 a 0.0874491,0.0874491 0 0 1 0,0.1233491 l -0.07594,0.075943 a 0.53620382,0.53620382 0 0 1 0.04994,0.125765 h 0.109541 a 0.0874491,0.0874491 0 0 1 0.08768,0.087449 v 0.1024062 a 0.0874491,0.0874491 0 0 1 -0.08722,0.087218 h -0.110577 a 0.53884082,0.53884082 0 0 1 -0.05028,0.124384 l 0.07686,0.077207 a 0.0874491,0.0874491 0 0 1 0,0.1233491 l -0.07215,0.072259 a 0.08756394,0.08756394 0 0 1 -0.1234639,0 l -0.07295,-0.073065 a 0.54333506,0.54333506 0 0 1 -0.1287564,0.057532 v 0.098839 a 0.0874491,0.0874491 0 0 1 -0.087218,0.087218 H 9.5664833 A 0.0874491,0.0874491 0 0 1 9.4792639,8.6549654 V 8.5656761 A 0.54529154,0.54529154 0 0 1 9.3371637,8.511826 l -0.059833,0.059833 a 0.08767877,0.08767877 0 0 1 -0.1233477,0 L 9.081378,8.499054 a 0.08756394,0.08756394 0 0 1 0,-0.1233491 L 9.135687,8.3213939 A 0.54517812,0.54517812 0 0 1 9.0717116,8.174459 H 8.9978402 A 0.0874491,0.0874491 0 0 1 8.9106222,8.0872409 V 7.9848347 a 0.0874491,0.0874491 0 0 1 0.087218,-0.087449 h 0.073066 a 0.54310822,0.54310822 0 0 1 0.0634,-0.1488912 l -0.05293,-0.052815 a 0.08767877,0.08767877 0 0 1 0,-0.1233491 l 0.072605,-0.072605 a 0.0874491,0.0874491 0 0 1 0.1233477,0 l 0.057532,0.057532 A 0.53620382,0.53620382 0 0 1 9.479031,7.5015674 V 7.4161894 A 0.0874491,0.0874491 0 0 1 9.56648,7.3289714 h 0.1024063 a 0.0874491,0.0874491 0 0 1 0.087218,0.087218 z M 9.5993891,7.7510265 a 0.28305199,0.28305199 0 1 1 -0.283052,0.2829386 0.28293857,0.28293857 0 0 1 0.283052,-0.2829386 z"
     fill="url(#linearGradient1424)"
     stroke-width="0.0115064"
     id="path1224"
     style="fill:url(#linearGradient1424)" />
</svg>
