<svg width="64" height="64" version="1.1" viewBox="0 0 16.933 16.933" xmlns="http://www.w3.org/2000/svg">
 <defs>
  <filter id="filter1178" x="-.047999" y="-.047999" width="1.096" height="1.096" color-interpolation-filters="sRGB">
   <feGaussianBlur stdDeviation="0.30691668"/>
  </filter>
  <linearGradient id="linearGradient1340" x1="8.355" x2="8.3996" y1="16.007" y2=".79375" gradientTransform="translate(-.0076499 -.0030174)" gradientUnits="userSpaceOnUse">
   <stop stop-color="#d8dee9" offset="0"/>
   <stop stop-color="#eceff4" offset="1"/>
  </linearGradient>
  <linearGradient id="linearGradient1031" x1="8.3005" x2="8.3099" y1="2.8607" y2="13.865" gradientUnits="userSpaceOnUse">
   <stop stop-color="#a3be8c" offset="0"/>
   <stop stop-color="#97b67c" offset="1"/>
  </linearGradient>
  <filter id="filter1159" x="-.079755" y="-.44652" width="1.1595" height="1.9252" color-interpolation-filters="sRGB">
   <feGaussianBlur stdDeviation="0.0893561"/>
  </filter>
  <filter id="filter1165" x="-.14261" y="-.14143" width="1.2852" height="1.2829" color-interpolation-filters="sRGB">
   <feGaussianBlur stdDeviation="0.31176504"/>
  </filter>
  <linearGradient id="linearGradient1281" x1="8.4191" x2="8.4191" y1="7.3976" y2="9.4943" gradientUnits="userSpaceOnUse">
   <stop stop-color="#4c566a" offset="0"/>
   <stop stop-color="#2e3440" offset="1"/>
  </linearGradient>
  <filter id="filter1289" x="-.041428" y="-.20687" width="1.0829" height="1.4137" color-interpolation-filters="sRGB">
   <feGaussianBlur stdDeviation="0.18484123"/>
  </filter>
 </defs>
 <g stroke-linecap="round" stroke-linejoin="round">
  <rect transform="matrix(.99138 0 0 1 .065339 -.0011119)" x=".79375" y=".90545" width="15.346" height="15.346" rx="3.0526" ry="3.0526" filter="url(#filter1178)" opacity=".15" stroke-width="1.2489" style="mix-blend-mode:normal"/>
  <rect x=".91839" y=".92302" width="15.081" height="15.081" rx="3" ry="3" fill="url(#linearGradient1340)" stroke-width="1.2274"/>
  <rect x=".0045001" y=".003" width="16.924" height="16.927" fill="none" opacity=".15" stroke-width="1.052"/>
 </g>
 <text x="-49.806946" y="19.370577" font-family="sans-serif" font-size="2.8222px" letter-spacing="0px" stroke-width=".26458" word-spacing="0px" style="line-height:1.25" xml:space="preserve"><tspan x="-49.806946" y="19.370577" stroke-width=".26458"/></text>
 <g transform="matrix(1.1374 0 0 1.1374 -1.46 -1.1989)">
  <path d="m8.7229 3.3805v10.388m-5.0927-5.2958 5.0927-5.0927 5.2095 5.2095" fill="none" filter="url(#filter1165)" opacity=".30971" stroke="#2e3440" stroke-linecap="round" stroke-linejoin="round" stroke-width="1.442"/>
  <g fill="none">
   <path d="m8.5994 3.2261v10.388m-5.0927-5.2958 5.0927-5.0927 5.2095 5.2095" stroke="url(#linearGradient1031)" stroke-linecap="round" stroke-linejoin="round" stroke-width="1.442"/>
   <path d="m6.7219 11.165 0.67777-0.67777 0.78633 0.78632 0.79639-0.7964 0.76338 0.76338 0.78983-0.78983" filter="url(#filter1159)" opacity=".28545" stroke="#2e3440" stroke-width=".25373"/>
   <path d="m6.5984 10.826 0.67777-0.67777 0.78633 0.78632 0.79639-0.7964 0.76338 0.76338 0.78983-0.78983" stroke="#d08770" stroke-width=".25373"/>
  </g>
  <text x="3.2158046" y="9.5956383" fill="#2e3440" filter="url(#filter1289)" font-family="Roboto" font-size="2.897px" font-weight="bold" letter-spacing="0px" opacity=".31711" stroke-width=".1552" word-spacing="0px" style="line-height:1.25" xml:space="preserve"><tspan x="3.2158046" y="9.5956383" fill="#2e3440" font-family="Arial" font-weight="bold" stroke-width=".1552">PUPGUI</tspan></text>
  <text x="3.1086342" y="9.4884691" fill="url(#linearGradient1281)" font-family="Roboto" font-size="2.897px" font-weight="bold" letter-spacing="0px" stroke-width=".1552" word-spacing="0px" style="line-height:1.25" xml:space="preserve"><tspan x="3.1086342" y="9.4884691" fill="url(#linearGradient1281)" font-family="Arial" font-weight="bold" stroke-width=".1552">PUPGUI</tspan></text>
 </g>
</svg>
