<svg width="64" height="64" version="1.1" viewBox="0 0 16.933 16.933" xmlns="http://www.w3.org/2000/svg">
 <defs>
  <filter id="filter1178" x="-.047999" y="-.047999" width="1.096" height="1.096" color-interpolation-filters="sRGB">
   <feGaussianBlur stdDeviation="0.30691668"/>
  </filter>
  <linearGradient id="linearGradient1340" x1="8.6644" x2="8.6644" y1="15.931" y2=".79375" gradientUnits="userSpaceOnUse">
   <stop stop-color="#5e81ac" offset="0"/>
   <stop stop-color="#88c0d0" offset="1"/>
  </linearGradient>
  <filter id="filter4981" x="-.098257" y="-.059379" width="1.1965" height="1.1188" color-interpolation-filters="sRGB">
   <feGaussianBlur stdDeviation="0.15967863"/>
  </filter>
  <filter id="filter4985" x="-.13109" y="-.080866" width="1.2622" height="1.1617" color-interpolation-filters="sRGB">
   <feGaussianBlur stdDeviation="0.22231479"/>
  </filter>
 </defs>
 <g stroke-linecap="round" stroke-linejoin="round">
  <rect transform="matrix(.99138 0 0 1 .072989 .0019055)" x=".79375" y=".90545" width="15.346" height="15.346" rx="3.0526" ry="3.0526" filter="url(#filter1178)" opacity=".15" stroke-width="1.2489" style="mix-blend-mode:normal"/>
  <rect x=".92604" y=".92604" width="15.081" height="15.081" rx="3" ry="3" fill="url(#linearGradient1340)" stroke-width="1.2274"/>
  <rect x=".01215" y=".0060174" width="16.924" height="16.927" fill="none" opacity=".15" stroke-width="1.052"/>
 </g>
 <g stroke-width=".13335">
  <path d="m6.7989 11.079q0-0.17351 0.00964-0.40487 0.00964-0.23135 0.038559-0.39523h-0.057838q-0.22171 0.32775-0.61694 0.5591-0.38559 0.23135-1.0025 0.23135-0.93505 0-1.5231-0.66514-0.57838-0.67478-0.57838-2.0051 0-1.3303 0.58802-2.0051 0.59766-0.68442 1.5423-0.68442 0.6073 0 0.99289 0.23135t0.61694 0.56874h0.038559l0.12532-0.7037h0.67478v7.4804h-0.84829zm-1.4652-0.71334q0.80009 0 1.1278-0.43379 0.33739-0.44343 0.34703-1.3496v-0.17351q0-0.98325-0.32775-1.4845-0.32775-0.5109-1.1664-0.5109-0.69406 0-1.0314 0.54946-0.33739 0.53982-0.33739 1.4556t0.33739 1.4363q0.34703 0.5109 1.0507 0.5109z" fill="#2e3440" filter="url(#filter4981)" opacity=".32378" stroke="#2e3440"/>
  <path d="m10.134 5.43q0 0.32775-0.01928 0.61694-0.0096 0.27955-0.02892 0.44343h0.0482q0.22171-0.32775 0.6073-0.54946t0.99289-0.22171q0.96397 0 1.5423 0.67478 0.58802 0.66514 0.58802 1.9954 0 1.3303-0.58802 2.0051-0.58802 0.67478-1.5423 0.67478-0.6073 0-0.99289-0.22171t-0.6073-0.53018h-0.06748l-0.17351 0.6555h-0.6073v-7.3262h0.84829zm1.4556 0.99289q-0.81937 0-1.1375 0.47234-0.31811 0.47234-0.31811 1.4652v0.038559q0 0.95433 0.30847 1.4652 0.31811 0.50126 1.1664 0.50126 0.69406 0 1.0314-0.5109 0.34703-0.5109 0.34703-1.4749 0-1.9569-1.3978-1.9569z" fill="#2e3440" filter="url(#filter4985)" opacity=".33524" stroke="#2e3440"/>
  <path d="m6.7989 11.079q0-0.17351 0.00964-0.40487 0.00964-0.23135 0.038559-0.39523h-0.057838q-0.22171 0.32775-0.61694 0.5591-0.38559 0.23135-1.0025 0.23135-0.93505 0-1.5231-0.66514-0.57838-0.67478-0.57838-2.0051 0-1.3303 0.58802-2.0051 0.59766-0.68442 1.5423-0.68442 0.6073 0 0.99289 0.23135t0.61694 0.56874h0.038559l0.12532-0.7037h0.67478v7.4804h-0.84829zm-1.4652-0.71334q0.80009 0 1.1278-0.43379 0.33739-0.44343 0.34703-1.3496v-0.17351q0-0.98325-0.32775-1.4845-0.32775-0.5109-1.1664-0.5109-0.69406 0-1.0314 0.54946-0.33739 0.53982-0.33739 1.4556t0.33739 1.4363q0.34703 0.5109 1.0507 0.5109z" fill="#81a1c1" stroke="#81a1c1"/>
  <path d="m10.134 5.43q0 0.32775-0.01928 0.61694-0.0096 0.27955-0.02892 0.44343h0.0482q0.22171-0.32775 0.6073-0.54946t0.99289-0.22171q0.96397 0 1.5423 0.67478 0.58802 0.66514 0.58802 1.9954 0 1.3303-0.58802 2.0051-0.58802 0.67478-1.5423 0.67478-0.6073 0-0.99289-0.22171t-0.6073-0.53018h-0.06748l-0.17351 0.6555h-0.6073v-7.3262h0.84829zm1.4556 0.99289q-0.81937 0-1.1375 0.47234-0.31811 0.47234-0.31811 1.4652v0.038559q0 0.95433 0.30847 1.4652 0.31811 0.50126 1.1664 0.50126 0.69406 0 1.0314-0.5109 0.34703-0.5109 0.34703-1.4749 0-1.9569-1.3978-1.9569z" fill="#eceff4" stroke="#eceff4"/>
  <path d="m6.7989 11.079q0-0.17351 0.00964-0.40487 0.00964-0.23135 0.038559-0.39523h-0.057838q-0.22171 0.32775-0.61694 0.5591-0.38559 0.23135-1.0025 0.23135-0.93505 0-1.5231-0.66514-0.57838-0.67478-0.57838-2.0051 0-1.3303 0.58802-2.0051 0.59766-0.68442 1.5423-0.68442 0.6073 0 0.99289 0.23135t0.61694 0.56874h0.038559l0.12532-0.7037h0.67478v7.4804h-0.84829zm-1.4652-0.71334q0.80009 0 1.1278-0.43379 0.33739-0.44343 0.34703-1.3496v-0.17351q0-0.98325-0.32775-1.4845-0.32775-0.5109-1.1664-0.5109-0.69406 0-1.0314 0.54946-0.33739 0.53982-0.33739 1.4556t0.33739 1.4363q0.34703 0.5109 1.0507 0.5109z" fill="#eceff4" opacity=".5" stroke="#eceff4"/>
 </g>
</svg>
