<svg width="64" height="64" version="1.1" viewBox="0 0 16.933 16.933" xmlns="http://www.w3.org/2000/svg">
 <defs>
  <filter id="filter1178" x="-.047999" y="-.047999" width="1.096" height="1.096" color-interpolation-filters="sRGB">
   <feGaussianBlur stdDeviation="0.30691668"/>
  </filter>
  <linearGradient id="linearGradient1340-3" x1="2.9628" x2="14.718" y1="2.0522" y2="13.233" gradientUnits="userSpaceOnUse">
   <stop stop-color="#5e81ac" offset="0"/>
   <stop stop-color="#81a1c1" offset="1"/>
  </linearGradient>
  <linearGradient id="linearGradient6101" x1="11.624" x2="15.933" y1="1.1309" y2="4.897" gradientTransform="rotate(180,13.498,3.354)" gradientUnits="userSpaceOnUse">
   <stop stop-color="#a6aebf" offset="0"/>
   <stop stop-color="#eceff4" offset="1"/>
  </linearGradient>
  <filter id="filter6834" x="-.079225" y="-.079751" width="1.1584" height="1.1595" color-interpolation-filters="sRGB">
   <feGaussianBlur stdDeviation="0.15989484"/>
  </filter>
  <filter id="filter7451" x="-.073049" y="-.072538" width="1.1461" height="1.1451" color-interpolation-filters="sRGB">
   <feGaussianBlur stdDeviation="0.15989484"/>
  </filter>
  <style type="text/css">.ColorScheme-Text {
        color:#4d4d4d;
      }</style>
 </defs>
 <g stroke-linecap="round" stroke-linejoin="round">
  <rect transform="matrix(.99138 0 0 1 .072989 .0019055)" x=".79375" y=".90545" width="15.346" height="15.346" rx="3.0526" ry="3.0526" fill="#000000" filter="url(#filter1178)" opacity=".15" stroke-width="1.2489" style="mix-blend-mode:normal"/>
  <rect x=".92604" y=".92604" width="15.081" height="15.081" rx="3" ry="3" fill="#5e81ac" stroke-width="1.2274"/>
  <rect x=".01215" y=".0060174" width="16.924" height="16.927" fill="none" opacity=".15" stroke-width="1.052"/>
 </g>
 <g stroke-linecap="round" stroke-linejoin="round" stroke-width="1.2274">
  <path d="m3.926 0.92604h6.9644c0.90634 0 5.1166 4.1838 5.1166 5.1166v6.9644c0 1.662-1.338 3-3 3h-9.081c-1.662 0-3-1.338-3-3v-9.081c0-1.662 1.338-3 3-3z" fill="url(#linearGradient1340-3)"/>
  <path d="m15.972 5.8039c0.006198-0.56964-1.2579-2.0081-2.0384-2.8042-0.31107-0.31729-2.1363-1.9845-2.7961-2.0076l-0.0092 1.6499c-0.0093 1.662 1.3446 2.8551 3.0003 3.0003z" fill="#2e3440" filter="url(#filter6834)" opacity=".3"/>
  <path d="m15.978 6.2319c0.006198-0.56964-1.577-2.1232-2.3575-2.9193-0.31107-0.31729-2.236-2.3478-2.8958-2.371l0.09051 2.0133c0.07465 1.6603 1.3517 2.7893 3.0003 3.0003z" fill="#2e3440" filter="url(#filter7451)" opacity=".25"/>
  <path d="m16.007 6.0427c0.006198-0.56964-1.433-2.1071-2.2135-2.9032-0.31107-0.31729-2.2433-2.1903-2.9032-2.2135l0.09785 1.8558c0.08752 1.6597 1.352 2.7875 3.0003 3.0003z" fill="url(#linearGradient6101)"/>
 </g>
 <path d="m8.4665 3.933a3.5262 3.5262 0 0 0-3.5262 3.5262 3.5262 3.5262 0 0 0 0.040358 0.50472 2.5187 2.5187 0 0 0-0.040358-0.00113 2.5187 2.5187 0 0 0-2.5187 2.5187 2.5187 2.5187 0 0 0 2.5187 2.5187h6.5486a3.0224 3.0224 0 0 0 3.0224-3.0224 3.0224 3.0224 0 0 0-2.5531-2.9831 3.5262 3.5262 0 0 0-3.4917-3.0618zm0 0.50374a3.0224 3.0224 0 0 1 0.30205 0.014737 3.0224 3.0224 0 0 1 1.404 0.51358 3.0224 3.0224 0 0 1 0.0011 0 3.0224 3.0224 0 0 1 0.66018 0.61491 3.0224 3.0224 0 0 1 0 0.00113 3.0224 3.0224 0 0 1 0.61196 1.3764 3.0224 3.0224 0 0 1 0.04325 0.50174 2.5187 2.5187 0 0 1 0.50176 0.050158 2.5187 2.5187 0 0 1 0.24302 0.061987 2.5187 2.5187 0 0 1 0.0011 0 2.5187 2.5187 0 0 1 0.23514 0.086572 2.5187 2.5187 0 0 1 0.0011 0 2.5187 2.5187 0 0 1 0.22531 0.10921 2.5187 2.5187 0 0 1 0.0024 0.00113 2.5187 2.5187 0 0 1 0.21252 0.13085 2.5187 2.5187 0 0 1 0.0024 0.00113 2.5187 2.5187 0 0 1 0.19875 0.15152 2.5187 2.5187 0 0 1 0.0011 0.00113 2.5187 2.5187 0 0 1 0.183 0.1702 2.5187 2.5187 0 0 1 0.0011 0.00113 2.5187 2.5187 0 0 1 0.31189 0.39355 2.5187 2.5187 0 0 1 0.0011 0.00113 2.5187 2.5187 0 0 1 0.12396 0.21744 2.5187 2.5187 0 0 1 0.0011 0.00113 2.5187 2.5187 0 0 1 0.10233 0.22826 2.5187 2.5187 0 0 1 0.0011 0.00113 2.5187 2.5187 0 0 1 0.0787 0.2381 2.5187 2.5187 0 0 1 0 0.00113 2.5187 2.5187 0 0 1 0.0551 0.24498 2.5187 2.5187 0 0 1 0 0.00113 2.5187 2.5187 0 0 1 0.03049 0.24892 2.5187 2.5187 0 0 1 0.0058 0.17786 2.5187 2.5187 0 0 1-2.5187 2.5187h-6.5484a2.015 2.015 0 0 1-2.015-2.0149 2.015 2.015 0 0 1 0.00986-0.20072 2.015 2.015 0 0 1 2.0051-1.8142 2.015 2.015 0 0 1 0.15053 0.00691 2.015 2.015 0 0 1 0 0.00113 2.015 2.015 0 0 1 0.58245 0.1319 3.0224 3.0224 0 0 1-0.17219-0.57752 3.0224 3.0224 0 0 1-0.037359-0.25581 3.0224 3.0224 0 0 1-0.0068549-0.058041 3.0224 3.0224 0 0 1-0.012853-0.25583 3.0224 3.0224 0 0 1 0.014781-0.30204 3.0224 3.0224 0 0 1 3.0077-2.7204z" color="#4d4d4d" color-rendering="auto" fill="#eceff4" image-rendering="auto" opacity=".65" shape-rendering="auto" solid-color="#000000" style="isolation:auto;mix-blend-mode:normal"/>
 <g fill="#4d4d4d" stroke-width=".26458">
  <rect x="3.0932" y="-17.689" width="0" height="3.8808"/>
  <rect x="4.9349" y="-11.717" width="0" height="3.8808"/>
  <rect x="5.4146" y="-11.998" width="0" height="3.8808"/>
  <rect x="-1.4459" y="-18.689" width="0" height="3.8808"/>
  <rect x=".3957" y="-12.718" width="0" height="3.8808"/>
  <rect x=".87545" y="-12.998" width="0" height="3.8808"/>
  <rect x="-1.4459" y="-18.689" width="0" height="3.8808"/>
  <rect x=".3957" y="-12.718" width="0" height="3.8808"/>
  <rect x=".87545" y="-12.998" width="0" height="3.8808"/>
  <rect x="-1.4459" y="-18.689" width="0" height="3.8808"/>
  <rect x=".3957" y="-12.718" width="0" height="3.8808"/>
  <rect x=".87545" y="-12.998" width="0" height="3.8808"/>
  <rect x="-1.4459" y="-18.689" width="0" height="3.8808"/>
  <rect x=".3957" y="-12.718" width="0" height="3.8808"/>
  <rect x=".87545" y="-12.998" width="0" height="3.8808"/>
  <rect x="17.146" y="-13.057" width="0" height="2.9104"/>
  <rect x="15.942" y="-12.39" width="0" height="2.9104"/>
  <rect x="14.749" y="-15.676" width="0" height="2.9104"/>
  <rect x="14.972" y="-12.438" width="0" height="2.9104"/>
  <rect x="13.768" y="-11.772" width="0" height="2.9104"/>
  <rect x="12.575" y="-15.057" width="0" height="2.9104"/>
  <rect x="17.146" y="-13.057" width="0" height="2.9104"/>
  <rect x="15.942" y="-12.39" width="0" height="2.9104"/>
  <rect x="14.749" y="-15.676" width="0" height="2.9104"/>
  <rect x="14.972" y="-12.438" width="0" height="2.9104"/>
  <rect x="13.768" y="-11.772" width="0" height="2.9104"/>
  <rect x="12.575" y="-15.057" width="0" height="2.9104"/>
 </g>
</svg>
