<svg id="svg36" width="64" height="64" version="1.1" viewBox="0 0 16.933 16.933" xmlns="http://www.w3.org/2000/svg">
 <defs id="defs22">
  <filter id="filter1178" x="-.047999482" y="-.047999482" width="1.095999" height="1.095999" color-interpolation-filters="sRGB">
   <feGaussianBlur id="feGaussianBlur2" stdDeviation="0.30691668"/>
  </filter>
  <linearGradient id="linearGradient1340" x1="8.355" x2="8.3996" y1="16.007" y2=".79375" gradientUnits="userSpaceOnUse">
   <stop id="stop5" stop-color="#d8dee9" offset="0"/>
   <stop id="stop7" stop-color="#eceff4" offset="1"/>
  </linearGradient>
  <linearGradient id="linearGradient6743" x1="25.818" x2="34.428" y1="5.149" y2="13.925" gradientTransform="matrix(1.5637 0 0 1.4238 -39.721 -5.3257)" gradientUnits="userSpaceOnUse">
   <stop id="stop15" stop-color="#8fbcbb" offset="0"/>
   <stop id="stop17" stop-color="#a3be8c" offset=".68559"/>
   <stop id="stop19" stop-color="#a3be8c" offset="1"/>
  </linearGradient>
  <linearGradient id="b" x1="32" x2="32" y1="16.002001" y2="47.998001" gradientTransform="matrix(.26457812 0 0 .26457812 9.5630332 2.0981739)" gradientUnits="userSpaceOnUse">
   <stop id="stop344" stop-color="#fff" offset="0"/>
   <stop id="stop346" stop-color="#daffd8" offset="1"/>
  </linearGradient>
  <linearGradient id="b-3" x1="32" x2="32" y1="16.002001" y2="47.998001" gradientTransform="matrix(.26457812 0 0 .26457812 7.81e-5 3.2147374e-5)" gradientUnits="userSpaceOnUse">
   <stop id="stop344-6" stop-color="#fff" style="stop-color:#eceff4" offset="0"/>
   <stop id="stop346-7" stop-color="#daffd8" style="stop-color:#d8dee5;stop-opacity:.9137255" offset="1"/>
  </linearGradient>
  <filter id="filter6337" x="-.10799297" y="-.10800703" width="1.2159859" height="1.2160141" style="color-interpolation-filters:sRGB">
   <feGaussianBlur id="feGaussianBlur6339" stdDeviation="0.38096968"/>
  </filter>
 </defs>
 <g id="g30" stroke-linecap="round" stroke-linejoin="round">
  <rect id="rect24" transform="matrix(.99138 0 0 1 .072989 .0019055)" x=".79375" y=".90545" width="15.346" height="15.346" rx="3.0526" ry="3.0526" fill="#000000" filter="url(#filter1178)" opacity=".15" stroke-width="1.2489" style="mix-blend-mode:normal"/>
  <rect id="rect26" x=".92604" y=".92604" width="15.081" height="15.081" rx="3" ry="3" fill="url(#linearGradient1340)" stroke-width="1.2274"/>
  <rect id="rect28" x=".01215" y=".0060174" width="16.924" height="16.927" fill="none" opacity=".15" stroke-width="1.052"/>
 </g>
 <path id="path32" d="m3.9264 0.92603c-1.662 0-3.0003 1.3383-3.0003 3.0003v9.0809c0 1.662 1.3383 2.9998 3.0003 2.9998h9.0809c1.662 0 2.9998-1.3378 2.9998-2.9998v-9.0809c0-1.662-1.3378-3.0003-2.9998-3.0003z" fill="url(#linearGradient6743)" stroke-width=".26458"/>
 <path id="path18" class="shp86" d="m11.84527 3.1871377-0.265372 0.7090694a0.12832039 0.12832039 0 0 0 0.03969 0.1381098l0.312202 0.238914c0.0381 0.029104 0.103449 0.030956 0.14393 0.00212l0.615409-0.4391996a0.10927076 0.10927076 0 0 1 0.136522 0.011377l0.257963 0.2579637a0.10874161 0.10874161 0 0 1 0.01164 0.1365223l-0.439465 0.6148759a0.12858497 0.12858497 0 0 0 0.0026 0.1441951l0.239179 0.3122022a0.12964328 0.12964328 0 0 0 0.138374 0.039687l0.708011-0.2656364a0.10927076 0.10927076 0 0 1 0.128585 0.046566l0.182605 0.3156411a0.10847703 0.10847703 0 0 1-0.02461 0.1349349l-0.583923 0.4807384a0.12832039 0.12832039 0 0 0-0.03519 0.1394327l0.15028 0.3632657c0.01852 0.044449 0.07408 0.07858 0.123292 0.074082l0.753254-0.073288a0.10927076 0.10927076 0 0 1 0.112711 0.078315l0.09445 0.3518889a0.10847703 0.10847703 0 0 1-0.05847 0.1240872l-0.689226 0.3135251a0.12805581 0.12805581 0 0 0-0.06985 0.1259391l0.05133 0.3894591a0.12964328 0.12964328 0 0 0 0.100539 0.1031855l0.746111 0.1243517a0.10979992 0.10979992 0 0 1 0.08863 0.1045083v0.3643244a0.10847703 0.10847703 0 0 1-0.08863 0.104508l-0.745317 0.124352a0.12752665 0.12752665 0 0 0-0.10001 0.103185l-0.05106 0.389988a0.13043701 0.13043701 0 0 0 0.07011 0.125939l0.687903 0.312996a0.11032908 0.11032908 0 0 1 0.05821 0.123823l-0.09419 0.3521528a0.10874161 0.10874161 0 0 1-0.11271 0.07831l-0.75246-0.07276a0.12805581 0.12805581 0 0 0-0.123293 0.07408l-0.15081 0.363266a0.1293787 0.1293787 0 0 0 0.03466 0.139433l0.584189 0.480738c0.03836 0.03175 0.04948 0.09181 0.02434 0.134935l-0.182295 0.315642a0.10900619 0.10900619 0 0 1-0.129114 0.04657l-0.709065-0.265368a0.12832039 0.12832039 0 0 0-0.13811 0.03969l-0.238914 0.312203a0.12990786 0.12990786 0 0 0-0.0021 0.143665l0.4392 0.615674a0.10927076 0.10927076 0 0 1-0.01138 0.136522l-0.257962 0.257964a0.10874161 0.10874161 0 0 1-0.136523 0.01138l-0.615144-0.4392a0.12858497 0.12858497 0 0 0-0.14393 0.0024l-0.312202 0.239443a0.12964328 0.12964328 0 0 0-0.03969 0.13811l0.265636 0.708011a0.10927076 0.10927076 0 0 1-0.04656 0.12885l-0.315658 0.182268a0.10847703 0.10847703 0 0 1-0.134934-0.02434l-0.48074-0.58419a0.12832039 0.12832039 0 0 0-0.139433-0.03492l-0.363266 0.150016a0.13017244 0.13017244 0 0 0-0.07408 0.123558l0.07329 0.753254a0.10927076 0.10927076 0 0 1-0.07831 0.11271l-0.3518895 0.09419a0.10847703 0.10847703 0 0 1-0.124087-0.05821l-0.313525-0.689226a0.12805581 0.12805581 0 0 0-0.125674-0.07011l-0.389724 0.05159a0.12964328 0.12964328 0 0 0-0.103193 0.100538l-0.124352 0.74611a0.10979992 0.10979992 0 0 1-0.104509 0.08837h-0.364324a0.10847703 0.10847703 0 0 1-0.104508-0.08837l-0.124352-0.745581a0.12752665 0.12752665 0 0 0-0.103185-0.09975l-0.389988-0.05106a0.13043701 0.13043701 0 0 0-0.12594 0.06985l-0.312995 0.687903a0.1100645 0.1100645 0 0 1-0.123823 0.05821l-0.352153-0.09393a0.10874161 0.10874161 0 0 1-0.07832-0.11271l0.07276-0.75246a0.12805581 0.12805581 0 0 0-0.07408-0.123558l-0.363266-0.15081a0.1293787 0.1293787 0 0 0-0.139433 0.03492l-0.480738 0.584189a0.10927076 0.10927076 0 0 1-0.134935 0.02408l-0.31564-0.182293a0.10900619 0.10900619 0 0 1-0.04657-0.129114l0.265372-0.708805a0.12832039 0.12832039 0 0 0-0.03942-0.138109l-0.312202-0.239179a0.12990786 0.12990786 0 0 0-0.143931-0.0019l-0.615673 0.4392a0.10927076 0.10927076 0 0 1-0.136522-0.01138l-0.257962-0.257913a0.10874161 0.10874161 0 0 1-0.01138-0.136787l0.4392-0.614879a0.12858497 0.12858497 0 0 0-0.0024-0.143931l-0.239421-0.312202a0.12964328 0.12964328 0 0 0-0.13811-0.03969l-0.708011 0.265372a0.10927076 0.10927076 0 0 1-0.12885-0.04657l-0.182294-0.315377a0.10847703 0.10847703 0 0 1 0.02434-0.134935l0.584189-0.481003a0.12832039 0.12832039 0 0 0 0.03492-0.139432l-0.150281-0.363266a0.13017244 0.13017244 0 0 0-0.123293-0.07408l-0.753254 0.07329a0.10927076 0.10927076 0 0 1-0.11271-0.07831l-0.09419-0.3518888a0.10847703 0.10847703 0 0 1 0.05821-0.124087l0.689226-0.31326a0.12805581 0.12805581 0 0 0 0.06985-0.12594l-0.05133-0.389723a0.12964328 0.12964328 0 0 0-0.10054-0.103186l-0.74611-0.124351a0.10979992 0.10979992 0 0 1-0.08837-0.104244v-0.3645908a0.10847703 0.10847703 0 0 1 0.08837-0.1045084l0.745316-0.1243517a0.12752665 0.12752665 0 0 0 0.100011-0.1031855l0.05106-0.3899881a0.13043701 0.13043701 0 0 0-0.069842-0.1259392l-0.687903-0.3129959a0.1100645 0.1100645 0 0 1-0.05821-0.1238226l0.09393-0.3521535a0.10874161 0.10874161 0 0 1 0.11271-0.078315l0.75246 0.073024a0.12805581 0.12805581 0 0 0 0.123556-0.074082l0.15081-0.3632658a0.1293787 0.1293787 0 0 0-0.034925-0.139433l-0.584188-0.4810031a0.10927076 0.10927076 0 0 1-0.024077-0.1349348l0.18203-0.3156417a0.10900619 0.10900619 0 0 1 0.129379-0.046301l0.708805 0.2653719a0.12832039 0.12832039 0 0 0 0.138109-0.039687l0.238914-0.3122022a0.12990786 0.12990786 0 0 0 0.0021-0.1439305l-0.4392-0.6154086a0.10927076 0.10927076 0 0 1 0.01138-0.1365223l0.257964-0.2579637a0.10874161 0.10874161 0 0 1 0.136522-0.011641l0.615144 0.4391996a0.12858497 0.12858497 0 0 0 0.143931-0.00238l0.312202-0.2391787a0.12964328 0.12964328 0 0 0 0.03969-0.1383743l-0.265361-0.7080126a0.10927076 0.10927076 0 0 1 0.0463-0.1288495l0.315642-0.1820298a0.10847703 0.10847703 0 0 1 0.134934 0.024077l0.481004 0.5841885c0.03175 0.038364 0.09419 0.053974 0.139432 0.034924l0.363266-0.1500158a0.13017244 0.13017244 0 0 0 0.07408-0.1235579l-0.07329-0.7532538a0.10927076 0.10927076 0 0 1 0.07805-0.1127103l0.352154-0.09419a0.10847703 0.10847703 0 0 1 0.123822 0.058472l0.313525 0.6892258c0.02064 0.044978 0.07699 0.076463 0.12594 0.069849l0.389723-0.051593a0.12964328 0.12964328 0 0 0 0.103186-0.1002751l0.124351-0.7461101a0.10979992 0.10979992 0 0 1 0.103979-0.088634h0.364589a0.10847703 0.10847703 0 0 1 0.104508 0.088634l0.124352 0.7453164a0.12752665 0.12752665 0 0 0 0.103186 0.1000105l0.389988 0.051064a0.13043701 0.13043701 0 0 0 0.125939-0.070113l0.312996-0.687903a0.1100645 0.1100645 0 0 1 0.123822-0.058207l0.3521535 0.09419c0.04895 0.013229 0.08308 0.063499 0.07805 0.1127103l-0.07276 0.7524601a0.12805581 0.12805581 0 0 0 0.07408 0.1232934l0.363266 0.1508095c0.04445 0.018521 0.108213 0.00344 0.139433-0.03466l0.481003-0.5841885a0.10927076 0.10927076 0 0 1 0.134935-0.024341l0.315641 0.1822943a0.10900619 0.10900619 0 0 1 0.0463 0.1291141zm-1.2078 1.5102119a4.3382874 4.3382874 0 0 0-3.2466375-0.4500473c-0.204519 0.051857-0.0844 0.023547-0.0844 0.023547-0.284686 0.0971-0.39819 0.3902527-0.254524 0.6519205 0 0-0.08281-0.1508095 0.0064 0.011641l1.277119 2.3296104c0.192348 0.3513597 0.673351 0.6296959 1.074452 0.6212294l2.8304555-0.058736c0.175416-0.0037 0 0 0 0 0.290507-0.00635 0.479416-0.2505555 0.415917-0.5241293a4.3401395 4.3401395 0 0 0-2.018253-2.6050357zm-0.07144 7.5764584a4.3398749 4.3398749 0 0 0 2.057889-2.5513258c0.06085-0.202138 0.02355-0.08467 0.02355-0.08467 0.0635-0.293947-0.129643-0.542121-0.427823-0.554027 0 0 0.171976 0.0071-0.01323-2.64e-4l-2.6542465-0.105303c-0.400307-0.01614-0.886337 0.252937-1.086094 0.600857l-1.407555 2.4566078c-0.08705 0.152133 0 0 0 0-0.144195 0.252143-0.03148 0.53974 0.235474 0.626521 0 0-0.168536-0.04683 0 0 1.060959 0.293682 2.233569 0.187586 3.2723025-0.388401zm-5.1500125-0.693194c0.208487 0.18785 0.514075 0.141549 0.660122-0.1098 0 0-0.08784 0.151339 0 0 0.474918-0.815694 1.42343-2.4468188 1.42343-2.4468188 0.201609-0.346861 0.19182-0.902211-0.02222-1.2414001l-1.418139-2.2462682c-0.09948-0.1563657-0.0071-0.010848-0.0071-0.010848-0.159276-0.2521429-0.470949-0.2952691-0.693724-0.093396 0 0 0.08308-0.09128-0.06138 0.06244a4.3406686 4.3406686 0 0 0-1.180548 3.0579933 4.3382874 4.3382874 0 0 0 1.299872 3.0278318z" opacity=".15" style="fill:#2e3440;stroke-width:.264578"/>
 <path id="path362-5" d="m6.772749 4.2338111c-0.854323 0-1.490898 0.3058523-1.911048 0.9178215-0.419092 0.6061484-0.628373 1.4834895-0.628373 2.6328168 0 1.1739332 0.20981 2.0652966 0.628373 2.6825576 0.292094 0.42994 0.684464 0.70907 1.175256 0.837655 0 0 0.09895-4e-3 0.107419 0.09551 0.16933 1.298021 1.02815 1.299079 2.00656 1.299079 0 0 0.126469 2.65e-4 0.126469-0.118266v-0.715155c0-0.119854-0.126469-0.119854-0.126469-0.119854-0.489469 0-0.616467 0.03069-0.745581-0.432585a2.2465328 2.2465328 0 0 0 0.464335-0.159541 2.0420139 2.0420139 0 0 0 0.79638-0.693459c0.210869-0.305853 0.365118-0.683406 0.465657-1.132395 0.104773-0.4479306 0.155572-0.9622704 0.155572-1.5435486 0-1.1614979-0.212191-2.0443951-0.63922-2.645252-0.425971-0.6032381-1.052757-0.9053863-1.87533-0.9053863zm-0.0071 0.5788969v0.00265c0.180442 0 0.315642 0.059001 0.431263 0.1833526 0.06747 0.070113 0.126997 0.1613927 0.183617 0.2717218 0.03043 0.080167 0.06191 0.1666842 0.08519 0.2645781 0.06747 0.2629906 0.114562 0.5810135 0.142078 0.960154 0.02752 0.3788758 0.03836 0.8090799 0.03836 1.2898183 0 0.4836488-0.01058 0.9186152-0.03836 1.3033118-0.02752 0.3828444-0.0762 0.7053654-0.142078 0.9754994a2.3864946 2.3864946 0 0 1-0.08519 0.277014c-0.0071 0.0095-0.0093 0.02222-0.01508 0.03307-0.05212 0.09631-0.106361 0.179119-0.168272 0.244999-0.114298 0.129644-0.252407 0.190232-0.431527 0.190232-0.177796 0-0.3167-0.06085-0.429939-0.190496-0.112975-0.132287-0.205048-0.323049-0.272516-0.580483-0.0672-0.261933-0.114562-0.580749-0.142078-0.9583022a18.933739 18.933739 0 0 1-0.04392-1.2964328c0-0.4778281 0.01508-0.9037988 0.04392-1.2784414 0.02752-0.3735843 0.07488-0.6889615 0.142078-0.9424273 0.06747-0.2537304 0.160864-0.4426392 0.272516-0.5664618 0.11271-0.1227642 0.250555-0.1833526 0.429939-0.1833526zm3.913111 0.4868237c-0.378612 1.4300448-0.126998 1.4300448-0.884485 1.4300448v0.834744h0.505873v2.5037025h-5.29e-4s-0.126468 0.714626 0.505874 1.071542c0.650597 0.368028 1.869773 0.01799 1.894379 0v-0.833421s-0.275426 0.09393-0.477828 0.07593c-0.159805 0-0.289713-0.05821-0.386284-0.16933-0.09763-0.11324-0.147106-0.27966-0.147106-0.502699v-2.1457245h1.011218v-0.834744h-1.011262v-1.4300448h-1.00963z" fill="url(#b)" style="fill:#2e3440;filter:url(#filter6337);opacity:.3;stroke-width:.264578"/>
 <path id="path362" d="m6.772749 4.2338112c-0.854323 0-1.490898 0.3058523-1.911048 0.9178215-0.419092 0.6061484-0.628373 1.4834895-0.628373 2.6328168 0 1.1739332 0.20981 2.0652969 0.628373 2.6825575 0.292094 0.42994 0.684464 0.70907 1.175256 0.837655 0 0 0.09895-4e-3 0.107419 0.09551 0.16933 1.298021 1.02815 1.299079 2.00656 1.299079 0 0 0.126469 2.65e-4 0.126469-0.118266v-0.715155c0-0.119854-0.126469-0.119854-0.126469-0.119854-0.489469 0-0.616467 0.03069-0.745581-0.432585a2.2465328 2.2465328 0 0 0 0.464335-0.159541 2.0420139 2.0420139 0 0 0 0.79638-0.693459c0.210869-0.305853 0.365118-0.6834056 0.465657-1.1323947 0.104773-0.4479308 0.155572-0.9622706 0.155572-1.5435488 0-1.1614979-0.212191-2.0443951-0.63922-2.645252-0.425971-0.6032381-1.052757-0.9053863-1.87533-0.9053863zm-0.0071 0.5788969v0.00265c0.180442 0 0.315642 0.059001 0.431263 0.1833526 0.06747 0.070113 0.126997 0.1613927 0.183617 0.2717218 0.03043 0.080167 0.06191 0.1666842 0.08519 0.2645781 0.06747 0.2629906 0.114562 0.5810135 0.142078 0.960154 0.02752 0.3788758 0.03836 0.8090799 0.03836 1.2898183 0 0.4836488-0.01058 0.9186152-0.03836 1.3033118-0.02752 0.3828446-0.0762 0.7053653-0.142078 0.9754993a2.3864946 2.3864946 0 0 1-0.08519 0.277014c-0.0071 0.0095-0.0093 0.02222-0.01508 0.03307-0.05212 0.09631-0.106361 0.179119-0.168272 0.244999-0.114298 0.129644-0.252407 0.190232-0.431527 0.190232-0.177796 0-0.3167-0.06085-0.429939-0.190496-0.112975-0.132287-0.205048-0.323049-0.272516-0.580483-0.0672-0.2619325-0.114562-0.5807491-0.142078-0.9583021a18.933739 18.933739 0 0 1-0.04392-1.2964328c0-0.4778281 0.01508-0.9037988 0.04392-1.2784414 0.02752-0.3735843 0.07488-0.6889615 0.142078-0.9424273 0.06747-0.2537304 0.160864-0.4426392 0.272516-0.5664618 0.11271-0.1227642 0.250555-0.1833526 0.429939-0.1833526zm3.913111 0.4868237c-0.378612 1.4300448-0.126998 1.4300448-0.884485 1.4300448v0.834744h0.505873v2.5037024h-5.29e-4s-0.126468 0.714626 0.505874 1.071542c0.650597 0.368028 1.869773 0.01799 1.894379 0v-0.833421s-0.275426 0.09393-0.477828 0.07593c-0.159805 0-0.289713-0.05821-0.386284-0.16933-0.09763-0.11324-0.147106-0.2796594-0.147106-0.5026988v-2.1457246h1.011218v-0.834744h-1.011262v-1.4300448h-1.00963z" fill="url(#b)" style="fill:url(#b-3);stroke-width:.264578"/>
</svg>
