<?xml version="1.0" encoding="UTF-8" standalone="no"?>
<svg
   width="64"
   height="64"
   version="1.1"
   viewBox="0 0 16.933 16.933"
   id="svg36"
   sodipodi:docname="qtconfig.svg"
   inkscape:version="1.2.1 (9c6d41e410, 2022-07-14, custom)"
   xmlns:inkscape="http://www.inkscape.org/namespaces/inkscape"
   xmlns:sodipodi="http://sodipodi.sourceforge.net/DTD/sodipodi-0.dtd"
   xmlns="http://www.w3.org/2000/svg"
   xmlns:svg="http://www.w3.org/2000/svg">
  <sodipodi:namedview
     id="namedview38"
     pagecolor="#ffffff"
     bordercolor="#000000"
     borderopacity="0.25"
     inkscape:showpageshadow="2"
     inkscape:pageopacity="0.0"
     inkscape:pagecheckerboard="0"
     inkscape:deskcolor="#d1d1d1"
     showgrid="false"
     inkscape:zoom="6.2734375"
     inkscape:cx="36.343711"
     inkscape:cy="19.128269"
     inkscape:window-width="1920"
     inkscape:window-height="1019"
     inkscape:window-x="0"
     inkscape:window-y="31"
     inkscape:window-maximized="1"
     inkscape:current-layer="svg36" />
  <defs
     id="defs22">
    <filter
       id="filter1178"
       x="-0.047999482"
       y="-0.047999482"
       width="1.095999"
       height="1.095999"
       color-interpolation-filters="sRGB">
      <feGaussianBlur
         stdDeviation="0.30691668"
         id="feGaussianBlur2" />
    </filter>
    <linearGradient
       id="linearGradient1340"
       x1="8.355"
       x2="8.3996"
       y1="16.007"
       y2=".79375"
       gradientUnits="userSpaceOnUse">
      <stop
         stop-color="#d8dee9"
         offset="0"
         id="stop5" />
      <stop
         stop-color="#eceff4"
         offset="1"
         id="stop7" />
    </linearGradient>
    <linearGradient
       id="linearGradient6479"
       x1="30.29"
       x2="31.529"
       y1="10.045"
       y2="12.645"
       gradientTransform="matrix(1.9356 0 0 1.8448 -51.187 -12.848)"
       gradientUnits="userSpaceOnUse">
      <stop
         stop-color="#2e3440"
         offset="0"
         id="stop10" />
      <stop
         stop-color="#4c566a"
         offset="1"
         id="stop12" />
    </linearGradient>
    <linearGradient
       id="linearGradient6743"
       x1="25.818"
       x2="34.428"
       y1="5.149"
       y2="13.925"
       gradientTransform="matrix(1.5637 0 0 1.4238 -39.721 -5.3257)"
       gradientUnits="userSpaceOnUse">
      <stop
         stop-color="#8fbcbb"
         offset="0"
         id="stop15" />
      <stop
         stop-color="#a3be8c"
         offset=".68559"
         id="stop17" />
      <stop
         stop-color="#a3be8c"
         offset="1"
         id="stop19" />
    </linearGradient>
    <linearGradient
       id="b"
       x1="32"
       x2="32"
       y1="16.002001"
       y2="47.998001"
       gradientUnits="userSpaceOnUse"
       gradientTransform="matrix(0.26457812,0,0,0.26457812,9.5630332,2.0981739)">
      <stop
         stop-color="#fff"
         offset="0"
         id="stop344" />
      <stop
         stop-color="#daffd8"
         offset="1"
         id="stop346" />
    </linearGradient>
    <linearGradient
       id="b-3"
       x1="32"
       x2="32"
       y1="16.002001"
       y2="47.998001"
       gradientUnits="userSpaceOnUse"
       gradientTransform="matrix(0.26457812,0,0,0.26457812,7.81e-5,3.2147374e-5)">
      <stop
         stop-color="#fff"
         offset="0"
         id="stop344-6"
         style="stop-color:#eceff4;stop-opacity:1;" />
      <stop
         stop-color="#daffd8"
         offset="1"
         id="stop346-7"
         style="stop-color:#d8dee5;stop-opacity:0.9137255;" />
    </linearGradient>
    <filter
       inkscape:collect="always"
       style="color-interpolation-filters:sRGB"
       id="filter6337"
       x="-0.10799297"
       y="-0.10800703"
       width="1.2159859"
       height="1.2160141">
      <feGaussianBlur
         inkscape:collect="always"
         stdDeviation="0.38096968"
         id="feGaussianBlur6339" />
    </filter>
  </defs>
  <g
     stroke-linecap="round"
     stroke-linejoin="round"
     id="g30">
    <rect
       transform="matrix(.99138 0 0 1 .072989 .0019055)"
       x=".79375"
       y=".90545"
       width="15.346"
       height="15.346"
       rx="3.0526"
       ry="3.0526"
       fill="#000000"
       filter="url(#filter1178)"
       opacity=".15"
       stroke-width="1.2489"
       style="mix-blend-mode:normal"
       id="rect24" />
    <rect
       x=".92604"
       y=".92604"
       width="15.081"
       height="15.081"
       rx="3"
       ry="3"
       fill="url(#linearGradient1340)"
       stroke-width="1.2274"
       id="rect26" />
    <rect
       x=".01215"
       y=".0060174"
       width="16.924"
       height="16.927"
       fill="none"
       opacity=".15"
       stroke-width="1.052"
       id="rect28" />
  </g>
  <path
     d="m3.9264 0.92603c-1.662 0-3.0003 1.3383-3.0003 3.0003v9.0809c0 1.662 1.3383 2.9998 3.0003 2.9998h9.0809c1.662 0 2.9998-1.3378 2.9998-2.9998v-9.0809c0-1.662-1.3378-3.0003-2.9998-3.0003z"
     fill="url(#linearGradient6743)"
     stroke-width=".26458"
     id="path32" />
  <path
     class="shp86"
     d="m 11.84527,3.1871377 -0.265372,0.7090694 a 0.12832039,0.12832039 0 0 0 0.03969,0.1381098 l 0.312202,0.238914 c 0.0381,0.029104 0.103449,0.030956 0.14393,0.00212 l 0.615409,-0.4391996 a 0.10927076,0.10927076 0 0 1 0.136522,0.011377 l 0.257963,0.2579637 a 0.10874161,0.10874161 0 0 1 0.01164,0.1365223 l -0.439465,0.6148759 a 0.12858497,0.12858497 0 0 0 0.0026,0.1441951 l 0.239179,0.3122022 a 0.12964328,0.12964328 0 0 0 0.138374,0.039687 l 0.708011,-0.2656364 a 0.10927076,0.10927076 0 0 1 0.128585,0.046566 l 0.182605,0.3156411 a 0.10847703,0.10847703 0 0 1 -0.02461,0.1349349 L 13.44861,6.0652185 a 0.12832039,0.12832039 0 0 0 -0.03519,0.1394327 l 0.15028,0.3632657 c 0.01852,0.044449 0.07408,0.07858 0.123292,0.074082 l 0.753254,-0.073288 a 0.10927076,0.10927076 0 0 1 0.112711,0.078315 l 0.09445,0.3518889 a 0.10847703,0.10847703 0 0 1 -0.05847,0.1240872 l -0.689226,0.3135251 a 0.12805581,0.12805581 0 0 0 -0.06985,0.1259391 l 0.05133,0.3894591 a 0.12964328,0.12964328 0 0 0 0.100539,0.1031855 l 0.746111,0.1243517 a 0.10979992,0.10979992 0 0 1 0.08863,0.1045083 v 0.3643244 a 0.10847703,0.10847703 0 0 1 -0.08863,0.104508 l -0.745317,0.124352 a 0.12752665,0.12752665 0 0 0 -0.10001,0.103185 l -0.05106,0.389988 a 0.13043701,0.13043701 0 0 0 0.07011,0.125939 l 0.687903,0.312996 a 0.11032908,0.11032908 0 0 1 0.05821,0.123823 l -0.09419,0.3521528 a 0.10874161,0.10874161 0 0 1 -0.11271,0.07831 l -0.75246,-0.07276 a 0.12805581,0.12805581 0 0 0 -0.123293,0.07408 l -0.15081,0.363266 a 0.1293787,0.1293787 0 0 0 0.03466,0.139433 l 0.584189,0.480738 c 0.03836,0.03175 0.04948,0.09181 0.02434,0.134935 l -0.182295,0.315642 a 0.10900619,0.10900619 0 0 1 -0.129114,0.04657 l -0.709065,-0.265368 a 0.12832039,0.12832039 0 0 0 -0.13811,0.03969 l -0.238914,0.312203 a 0.12990786,0.12990786 0 0 0 -0.0021,0.143665 l 0.4392,0.615674 a 0.10927076,0.10927076 0 0 1 -0.01138,0.136522 l -0.257962,0.257964 a 0.10874161,0.10874161 0 0 1 -0.136523,0.01138 l -0.615144,-0.4392 a 0.12858497,0.12858497 0 0 0 -0.14393,0.0024 l -0.312202,0.239443 a 0.12964328,0.12964328 0 0 0 -0.03969,0.13811 l 0.265636,0.708011 a 0.10927076,0.10927076 0 0 1 -0.04656,0.12885 l -0.315658,0.182268 a 0.10847703,0.10847703 0 0 1 -0.134934,-0.02434 l -0.48074,-0.58419 a 0.12832039,0.12832039 0 0 0 -0.139433,-0.03492 l -0.363266,0.150016 a 0.13017244,0.13017244 0 0 0 -0.07408,0.123558 l 0.07329,0.753254 a 0.10927076,0.10927076 0 0 1 -0.07831,0.11271 l -0.3518895,0.09419 a 0.10847703,0.10847703 0 0 1 -0.124087,-0.05821 l -0.313525,-0.689226 a 0.12805581,0.12805581 0 0 0 -0.125674,-0.07011 l -0.389724,0.05159 a 0.12964328,0.12964328 0 0 0 -0.103193,0.100538 l -0.124352,0.74611 a 0.10979992,0.10979992 0 0 1 -0.104509,0.08837 h -0.364324 a 0.10847703,0.10847703 0 0 1 -0.104508,-0.08837 l -0.124352,-0.745581 a 0.12752665,0.12752665 0 0 0 -0.103185,-0.09975 l -0.389988,-0.05106 a 0.13043701,0.13043701 0 0 0 -0.12594,0.06985 l -0.312995,0.687903 a 0.1100645,0.1100645 0 0 1 -0.123823,0.05821 l -0.352153,-0.09393 a 0.10874161,0.10874161 0 0 1 -0.07832,-0.11271 l 0.07276,-0.75246 a 0.12805581,0.12805581 0 0 0 -0.07408,-0.123558 l -0.363266,-0.15081 a 0.1293787,0.1293787 0 0 0 -0.139433,0.03492 l -0.480738,0.584189 a 0.10927076,0.10927076 0 0 1 -0.134935,0.02408 l -0.31564,-0.182293 a 0.10900619,0.10900619 0 0 1 -0.04657,-0.129114 l 0.265372,-0.708805 a 0.12832039,0.12832039 0 0 0 -0.03942,-0.138109 l -0.312202,-0.239179 a 0.12990786,0.12990786 0 0 0 -0.143931,-0.0019 l -0.615673,0.4392 a 0.10927076,0.10927076 0 0 1 -0.136522,-0.01138 l -0.257962,-0.257913 a 0.10874161,0.10874161 0 0 1 -0.01138,-0.136787 l 0.4392,-0.614879 a 0.12858497,0.12858497 0 0 0 -0.0024,-0.143931 l -0.239421,-0.312202 a 0.12964328,0.12964328 0 0 0 -0.13811,-0.03969 l -0.708011,0.265372 a 0.10927076,0.10927076 0 0 1 -0.12885,-0.04657 l -0.182294,-0.315377 a 0.10847703,0.10847703 0 0 1 0.02434,-0.134935 l 0.584189,-0.481003 a 0.12832039,0.12832039 0 0 0 0.03492,-0.139432 l -0.150281,-0.363266 a 0.13017244,0.13017244 0 0 0 -0.123293,-0.07408 l -0.753254,0.07329 a 0.10927076,0.10927076 0 0 1 -0.11271,-0.07831 l -0.09419,-0.3518888 a 0.10847703,0.10847703 0 0 1 0.05821,-0.124087 l 0.689226,-0.31326 a 0.12805581,0.12805581 0 0 0 0.06985,-0.12594 l -0.05133,-0.389723 a 0.12964328,0.12964328 0 0 0 -0.10054,-0.103186 l -0.74611,-0.124351 a 0.10979992,0.10979992 0 0 1 -0.08837,-0.104244 V 8.2847644 a 0.10847703,0.10847703 0 0 1 0.08837,-0.1045084 l 0.745316,-0.1243517 a 0.12752665,0.12752665 0 0 0 0.100011,-0.1031855 l 0.05106,-0.3899881 A 0.13043701,0.13043701 0 0 0 3.0316435,7.4367915 L 2.3437405,7.1237956 A 0.1100645,0.1100645 0 0 1 2.2855305,6.999973 l 0.09393,-0.3521535 a 0.10874161,0.10874161 0 0 1 0.11271,-0.078315 l 0.75246,0.073024 a 0.12805581,0.12805581 0 0 0 0.123556,-0.074082 l 0.15081,-0.3632658 A 0.1293787,0.1293787 0 0 0 3.4840715,6.0657477 L 2.8998835,5.5847446 A 0.10927076,0.10927076 0 0 1 2.8758065,5.4498098 l 0.18203,-0.3156417 a 0.10900619,0.10900619 0 0 1 0.129379,-0.046301 l 0.708805,0.2653719 a 0.12832039,0.12832039 0 0 0 0.138109,-0.039687 l 0.238914,-0.3122022 a 0.12990786,0.12990786 0 0 0 0.0021,-0.1439305 l -0.4392,-0.6154086 a 0.10927076,0.10927076 0 0 1 0.01138,-0.1365223 l 0.257964,-0.2579637 a 0.10874161,0.10874161 0 0 1 0.136522,-0.011641 l 0.615144,0.4391996 a 0.12858497,0.12858497 0 0 0 0.143931,-0.00238 l 0.312202,-0.2391787 a 0.12964328,0.12964328 0 0 0 0.03969,-0.1383743 L 5.0874155,3.1871377 a 0.10927076,0.10927076 0 0 1 0.0463,-0.1288495 l 0.315642,-0.1820298 a 0.10847703,0.10847703 0 0 1 0.134934,0.024077 l 0.481004,0.5841885 c 0.03175,0.038364 0.09419,0.053974 0.139432,0.034924 l 0.363266,-0.1500158 a 0.13017244,0.13017244 0 0 0 0.07408,-0.1235579 l -0.07329,-0.7532538 a 0.10927076,0.10927076 0 0 1 0.07805,-0.1127103 l 0.352154,-0.09419 a 0.10847703,0.10847703 0 0 1 0.123822,0.058472 l 0.313525,0.6892258 c 0.02064,0.044978 0.07699,0.076463 0.12594,0.069849 l 0.389723,-0.051593 a 0.12964328,0.12964328 0 0 0 0.103186,-0.1002751 l 0.124351,-0.7461101 a 0.10979992,0.10979992 0 0 1 0.103979,-0.088634 h 0.364589 a 0.10847703,0.10847703 0 0 1 0.104508,0.088634 l 0.124352,0.7453164 a 0.12752665,0.12752665 0 0 0 0.103186,0.1000105 l 0.389988,0.051064 a 0.13043701,0.13043701 0 0 0 0.125939,-0.070113 l 0.312996,-0.687903 a 0.1100645,0.1100645 0 0 1 0.123822,-0.058207 l 0.3521535,0.09419 c 0.04895,0.013229 0.08308,0.063499 0.07805,0.1127103 l -0.07276,0.7524601 a 0.12805581,0.12805581 0 0 0 0.07408,0.1232934 l 0.363266,0.1508095 c 0.04445,0.018521 0.108213,0.00344 0.139433,-0.03466 l 0.481003,-0.5841885 a 0.10927076,0.10927076 0 0 1 0.134935,-0.024341 l 0.315641,0.1822943 a 0.10900619,0.10900619 0 0 1 0.0463,0.1291141 z m -1.2078,1.5102119 A 4.3382874,4.3382874 0 0 0 7.3908325,4.2473023 c -0.204519,0.051857 -0.0844,0.023547 -0.0844,0.023547 -0.284686,0.0971 -0.39819,0.3902527 -0.254524,0.6519205 0,0 -0.08281,-0.1508095 0.0064,0.011641 l 1.277119,2.3296104 c 0.192348,0.3513597 0.673351,0.6296959 1.074452,0.6212294 l 2.8304555,-0.058736 c 0.175416,-0.0037 0,0 0,0 0.290507,-0.00635 0.479416,-0.2505555 0.415917,-0.5241293 A 4.3401395,4.3401395 0 0 0 10.637999,4.6973496 Z m -0.07144,7.5764584 a 4.3398749,4.3398749 0 0 0 2.057889,-2.5513258 c 0.06085,-0.202138 0.02355,-0.08467 0.02355,-0.08467 0.0635,-0.293947 -0.129643,-0.542121 -0.427823,-0.554027 0,0 0.171976,0.0071 -0.01323,-2.64e-4 L 9.5521695,8.9782182 c -0.400307,-0.01614 -0.886337,0.252937 -1.086094,0.600857 l -1.407555,2.4566078 c -0.08705,0.152133 0,0 0,0 -0.144195,0.252143 -0.03148,0.53974 0.235474,0.626521 0,0 -0.168536,-0.04683 0,0 1.060959,0.293682 2.233569,0.187586 3.2723025,-0.388401 z M 5.4160175,11.580614 c 0.208487,0.18785 0.514075,0.141549 0.660122,-0.1098 0,0 -0.08784,0.151339 0,0 0.474918,-0.815694 1.42343,-2.4468188 1.42343,-2.4468188 0.201609,-0.346861 0.19182,-0.902211 -0.02222,-1.2414001 L 6.0592105,5.5363269 c -0.09948,-0.1563657 -0.0071,-0.010848 -0.0071,-0.010848 -0.159276,-0.2521429 -0.470949,-0.2952691 -0.693724,-0.093396 0,0 0.08308,-0.09128 -0.06138,0.06244 a 4.3406686,4.3406686 0 0 0 -1.180548,3.0579933 4.3382874,4.3382874 0 0 0 1.299872,3.0278318 z"
     opacity="0.15"
     id="path18"
     style="fill:#2e3440;fill-opacity:1;stroke-width:0.264578" />
  <path
     d="m 6.772749,4.2338111 c -0.854323,0 -1.490898,0.3058523 -1.911048,0.9178215 -0.419092,0.6061484 -0.628373,1.4834895 -0.628373,2.6328168 0,1.1739332 0.20981,2.0652966 0.628373,2.6825576 0.292094,0.42994 0.684464,0.70907 1.175256,0.837655 0,0 0.09895,-0.004 0.107419,0.09551 0.16933,1.298021 1.02815,1.299079 2.00656,1.299079 0,0 0.126469,2.65e-4 0.126469,-0.118266 V 11.86583 c 0,-0.119854 -0.126469,-0.119854 -0.126469,-0.119854 -0.489469,0 -0.616467,0.03069 -0.745581,-0.432585 A 2.2465328,2.2465328 0 0 0 7.86969,11.15385 2.0420139,2.0420139 0 0 0 8.66607,10.460391 C 8.876939,10.154538 9.031188,9.776985 9.131727,9.327996 9.2365,8.8800654 9.287299,8.3657256 9.287299,7.7844474 9.287299,6.6229495 9.075108,5.7400523 8.648079,5.1391954 8.222108,4.5359573 7.595322,4.2338091 6.772749,4.2338091 Z m -0.0071,0.5788969 v 0.00265 c 0.180442,0 0.315642,0.059001 0.431263,0.1833526 0.06747,0.070113 0.126997,0.1613927 0.183617,0.2717218 0.03043,0.080167 0.06191,0.1666842 0.08519,0.2645781 0.06747,0.2629906 0.114562,0.5810135 0.142078,0.960154 0.02752,0.3788758 0.03836,0.8090799 0.03836,1.2898183 0,0.4836488 -0.01058,0.9186152 -0.03836,1.3033118 C 7.580277,9.471139 7.531597,9.79366 7.465719,10.063794 a 2.3864946,2.3864946 0 0 1 -0.08519,0.277014 c -0.0071,0.0095 -0.0093,0.02222 -0.01508,0.03307 -0.05212,0.09631 -0.106361,0.179119 -0.168272,0.244999 -0.114298,0.129644 -0.252407,0.190232 -0.431527,0.190232 -0.177796,0 -0.3167,-0.06085 -0.429939,-0.190496 C 6.222736,10.486326 6.130663,10.295564 6.063195,10.03813 5.995995,9.776197 5.948633,9.457381 5.921117,9.0798278 A 18.933739,18.933739 0 0 1 5.877197,7.783395 c 0,-0.4778281 0.01508,-0.9037988 0.04392,-1.2784414 C 5.948637,6.1313693 5.995997,5.8159921 6.063195,5.5625263 6.130665,5.3087959 6.224059,5.1198871 6.335711,4.9960645 6.448421,4.8733003 6.586266,4.8127119 6.76565,4.8127119 Z M 10.67876,5.2995317 C 10.300148,6.7295765 10.551762,6.7295765 9.794275,6.7295765 v 0.834744 h 0.505873 v 2.5037025 h -5.29e-4 c 0,0 -0.126468,0.714626 0.505874,1.071542 0.650597,0.368028 1.869773,0.01799 1.894379,0 v -0.833421 c 0,0 -0.275426,0.09393 -0.477828,0.07593 -0.159805,0 -0.289713,-0.05821 -0.386284,-0.16933 -0.09763,-0.11324 -0.147106,-0.27966 -0.147106,-0.502699 V 7.5643205 h 1.011218 V 6.7295765 H 11.68861 V 5.2995317 h -1.00963 z"
     fill="url(#b)"
     id="path362-5"
     style="display:inline;opacity:0.3;fill:#2e3440;fill-opacity:1;stroke-width:0.264578;filter:url(#filter6337)" />
  <path
     d="m 6.772749,4.2338112 c -0.854323,0 -1.490898,0.3058523 -1.911048,0.9178215 -0.419092,0.6061484 -0.628373,1.4834895 -0.628373,2.6328168 0,1.1739332 0.20981,2.0652969 0.628373,2.6825575 0.292094,0.42994 0.684464,0.70907 1.175256,0.837655 0,0 0.09895,-0.004 0.107419,0.09551 0.16933,1.298021 1.02815,1.299079 2.00656,1.299079 0,0 0.126469,2.65e-4 0.126469,-0.118266 V 11.86583 c 0,-0.119854 -0.126469,-0.119854 -0.126469,-0.119854 -0.489469,0 -0.616467,0.03069 -0.745581,-0.432585 A 2.2465328,2.2465328 0 0 0 7.86969,11.15385 2.0420139,2.0420139 0 0 0 8.66607,10.460391 C 8.876939,10.154538 9.031188,9.7769854 9.131727,9.3279963 9.2365,8.8800655 9.287299,8.3657257 9.287299,7.7844475 9.287299,6.6229496 9.075108,5.7400524 8.648079,5.1391955 8.222108,4.5359574 7.595322,4.2338092 6.772749,4.2338092 Z m -0.0071,0.5788969 v 0.00265 c 0.180442,0 0.315642,0.059001 0.431263,0.1833526 0.06747,0.070113 0.126997,0.1613927 0.183617,0.2717218 0.03043,0.080167 0.06191,0.1666842 0.08519,0.2645781 0.06747,0.2629906 0.114562,0.5810135 0.142078,0.960154 0.02752,0.3788758 0.03836,0.8090799 0.03836,1.2898183 0,0.4836488 -0.01058,0.9186152 -0.03836,1.3033118 -0.02752,0.3828446 -0.0762,0.7053653 -0.142078,0.9754993 a 2.3864946,2.3864946 0 0 1 -0.08519,0.277014 c -0.0071,0.0095 -0.0093,0.02222 -0.01508,0.03307 -0.05212,0.09631 -0.106361,0.179119 -0.168272,0.244999 -0.114298,0.129644 -0.252407,0.190232 -0.431527,0.190232 -0.177796,0 -0.3167,-0.06085 -0.429939,-0.190496 C 6.222736,10.486326 6.130663,10.295564 6.063195,10.03813 5.995995,9.7761975 5.948633,9.4573809 5.921117,9.0798279 A 18.933739,18.933739 0 0 1 5.877197,7.7833951 c 0,-0.4778281 0.01508,-0.9037988 0.04392,-1.2784414 C 5.948637,6.1313694 5.995997,5.8159922 6.063195,5.5625264 6.130665,5.308796 6.224059,5.1198872 6.335711,4.9960646 6.448421,4.8733004 6.586266,4.812712 6.76565,4.812712 Z M 10.67876,5.2995318 C 10.300148,6.7295766 10.551762,6.7295766 9.794275,6.7295766 v 0.834744 h 0.505873 v 2.5037024 h -5.29e-4 c 0,0 -0.126468,0.714626 0.505874,1.071542 0.650597,0.368028 1.869773,0.01799 1.894379,0 v -0.833421 c 0,0 -0.275426,0.09393 -0.477828,0.07593 -0.159805,0 -0.289713,-0.05821 -0.386284,-0.16933 -0.09763,-0.11324 -0.147106,-0.2796594 -0.147106,-0.5026988 V 7.5643206 h 1.011218 V 6.7295766 H 11.68861 V 5.2995318 h -1.00963 z"
     fill="url(#b)"
     id="path362"
     style="fill:url(#b-3);stroke-width:0.264578" />
</svg>
