<svg id="svg36" width="64" height="64" version="1.1" viewBox="0 0 16.933 16.933" xmlns="http://www.w3.org/2000/svg">
 <defs id="defs22">
  <filter id="filter1178" x="-.047999482" y="-.047999482" width="1.095999" height="1.095999" color-interpolation-filters="sRGB">
   <feGaussianBlur id="feGaussianBlur2" stdDeviation="0.30691668"/>
  </filter>
  <linearGradient id="linearGradient1340" x1="8.355" x2="8.3996" y1="16.007" y2=".79375" gradientUnits="userSpaceOnUse">
   <stop id="stop5" stop-color="#d8dee9" offset="0"/>
   <stop id="stop7" stop-color="#eceff4" offset="1"/>
  </linearGradient>
  <linearGradient id="linearGradient6743" x1="25.818" x2="34.428" y1="5.149" y2="13.925" gradientTransform="matrix(1.5637 0 0 1.4238 -39.721 -5.3257)" gradientUnits="userSpaceOnUse">
   <stop id="stop15" stop-color="#8fbcbb" offset="0"/>
   <stop id="stop17" stop-color="#a3be8c" offset=".68559"/>
   <stop id="stop19" stop-color="#a3be8c" offset="1"/>
  </linearGradient>
  <linearGradient id="b" x1="32" x2="32" y1="16.002001" y2="47.998001" gradientTransform="matrix(.26457812 0 0 .26457812 9.5630332 2.0981739)" gradientUnits="userSpaceOnUse">
   <stop id="stop344" stop-color="#fff" offset="0"/>
   <stop id="stop346" stop-color="#daffd8" offset="1"/>
  </linearGradient>
  <linearGradient id="b-3" x1="32" x2="32" y1="16.002001" y2="47.998001" gradientTransform="matrix(.26457812 0 0 .26457812 7.81e-5 3.2147374e-5)" gradientUnits="userSpaceOnUse">
   <stop id="stop344-6" stop-color="#fff" style="stop-color:#eceff4" offset="0"/>
   <stop id="stop346-7" stop-color="#daffd8" style="stop-color:#d8dee5;stop-opacity:.9137255" offset="1"/>
  </linearGradient>
  <filter id="filter6337" x="-.10799297" y="-.10800703" width="1.2159859" height="1.2160141" style="color-interpolation-filters:sRGB">
   <feGaussianBlur id="feGaussianBlur6339" stdDeviation="0.38096968"/>
  </filter>
 </defs>
 <g id="g30" stroke-linecap="round" stroke-linejoin="round">
  <rect id="rect24" transform="matrix(.99138 0 0 1 .072989 .0019055)" x=".79375" y=".90545" width="15.346" height="15.346" rx="3.0526" ry="3.0526" fill="#000000" filter="url(#filter1178)" opacity=".15" stroke-width="1.2489" style="mix-blend-mode:normal"/>
  <rect id="rect26" x=".92604" y=".92604" width="15.081" height="15.081" rx="3" ry="3" fill="url(#linearGradient1340)" stroke-width="1.2274"/>
  <rect id="rect28" x=".01215" y=".0060174" width="16.924" height="16.927" fill="none" opacity=".15" stroke-width="1.052"/>
 </g>
 <path id="path32" d="m3.9264 0.92603c-1.662 0-3.0003 1.3383-3.0003 3.0003v9.0809c0 1.662 1.3383 2.9998 3.0003 2.9998h9.0809c1.662 0 2.9998-1.3378 2.9998-2.9998v-9.0809c0-1.662-1.3378-3.0003-2.9998-3.0003z" fill="url(#linearGradient6743)" stroke-width=".26458"/>
 <path id="path425" d="m5.5246091 14.716519c-0.155307-0.228066-0.626521-1.157264-0.823367-1.623716-0.23812-0.563816-0.479416-1.600433-0.466451-1.995712 0.0217-0.555614 0.196846-1.080008 0.517779-1.5411683 0.406657-0.583924 0.674674-0.824954 2.280134-2.0404256 1.950999-1.4763462 2.714837-2.1676888 3.6741969-3.326541 0.400042-0.4847071 1.000105-1.3493484 1.314424-1.8917336 0.175151-0.3042648 0.175151-0.3241082 0.03122 0.7442583-0.05953 0.4381414-0.09604 0.8186047-0.07937 0.8432105 0.0164 0.026458 0.185204-0.1934066 0.377023-0.491057l0.348711-0.5386811-0.198433 1.6649901a256.24021 256.24021 0 0 0-0.297651 2.6222338c-0.264578 2.5568826-0.561963 3.6855729-1.240077 4.7272169-0.487618 0.747698-1.0815959 1.269975-2.1097459 1.863424-0.750608 0.433114-1.857074 0.836861-2.822519 1.02868-0.406922 0.07937-0.419886 0.07937-0.502699-0.04445m1.678219-0.398455c1.932743-0.623346 2.714572-1.719758 3.2275889-3.360142 0.133612-0.423325-2.8555919-0.292359-2.7973849-0.803259 0.03625-0.2214523 3.8265929-1.7546823 3.8390289-1.9115773 0.0069-0.09736-3.0024329 3.4408383-2.9513689 2.6836163 0.09736-1.4731713-2.21399-0.04948-2.144406-0.565668 0.02487-0.173564 5.5577279-7.5941861 5.5534949-7.6039755-0.0019-0.00979-0.185205 0.2494971-0.410096 0.5720179-0.686316 0.9969303-0.138904 2.7365315-1.083448 3.5728627-0.27278 0.238385-0.379934 1.9134286-1.0482579 2.4193026-1.846755 1.3953853-3.966555 2.3378123-4.325852 2.9960823-0.403218 0.732088-0.755371-1.278441-0.477829-0.221452 0.228331 0.869933 1.03503 1.908138 1.24193 2.133294 0.0381 0.04154-1.542755-1.511006-1.263096-2.025346 0.567256-1.039792 0.339189-2.5134923 0.367235-2.5523853 0.01323-0.01667 3.617841-0.536035 3.748278-0.762514 0.132289-0.224627 0.287596-0.492645 0.345274-0.590274a1018.5199 1018.5199 0 0 1 1.0120119-1.7276946c0.501111-0.8511478 0.922848-1.5546611 0.939252-1.5562485 0.01667-0.00344-0.02963 0.1058312-0.103979 0.2412952-0.07461 0.1370515-0.40163 0.7704515-0.726003 1.4086143-1.0331769 2.0271966 1.845168 4.2755819 0.07276 5.7921439l-1.0794779 0.922848-0.955921 0.600328c-0.206636 0.130702-1.218647 0.416446-0.978939 0.340512" opacity=".15" style="fill:#2e3440;stroke-width:.264578"/>
 <path id="path362-5" d="m6.772749 4.2338111c-0.854323 0-1.490898 0.3058523-1.911048 0.9178215-0.419092 0.6061484-0.628373 1.4834895-0.628373 2.6328168 0 1.1739332 0.20981 2.0652966 0.628373 2.6825576 0.292094 0.42994 0.684464 0.70907 1.175256 0.837655 0 0 0.09895-4e-3 0.107419 0.09551 0.16933 1.298021 1.02815 1.299079 2.00656 1.299079 0 0 0.126469 2.65e-4 0.126469-0.118266v-0.715155c0-0.119854-0.126469-0.119854-0.126469-0.119854-0.489469 0-0.616467 0.03069-0.745581-0.432585a2.2465328 2.2465328 0 0 0 0.464335-0.159541 2.0420139 2.0420139 0 0 0 0.79638-0.693459c0.210869-0.305853 0.365118-0.683406 0.465657-1.132395 0.104773-0.4479306 0.155572-0.9622704 0.155572-1.5435486 0-1.1614979-0.212191-2.0443951-0.63922-2.645252-0.425971-0.6032381-1.052757-0.9053863-1.87533-0.9053863zm-0.0071 0.5788969v0.00265c0.180442 0 0.315642 0.059001 0.431263 0.1833526 0.06747 0.070113 0.126997 0.1613927 0.183617 0.2717218 0.03043 0.080167 0.06191 0.1666842 0.08519 0.2645781 0.06747 0.2629906 0.114562 0.5810135 0.142078 0.960154 0.02752 0.3788758 0.03836 0.8090799 0.03836 1.2898183 0 0.4836488-0.01058 0.9186152-0.03836 1.3033118-0.02752 0.3828444-0.0762 0.7053654-0.142078 0.9754994a2.3864946 2.3864946 0 0 1-0.08519 0.277014c-0.0071 0.0095-0.0093 0.02222-0.01508 0.03307-0.05212 0.09631-0.106361 0.179119-0.168272 0.244999-0.114298 0.129644-0.252407 0.190232-0.431527 0.190232-0.177796 0-0.3167-0.06085-0.429939-0.190496-0.112975-0.132287-0.205048-0.323049-0.272516-0.580483-0.0672-0.261933-0.114562-0.580749-0.142078-0.9583022a18.933739 18.933739 0 0 1-0.04392-1.2964328c0-0.4778281 0.01508-0.9037988 0.04392-1.2784414 0.02752-0.3735843 0.07488-0.6889615 0.142078-0.9424273 0.06747-0.2537304 0.160864-0.4426392 0.272516-0.5664618 0.11271-0.1227642 0.250555-0.1833526 0.429939-0.1833526zm3.913111 0.4868237c-0.378612 1.4300448-0.126998 1.4300448-0.884485 1.4300448v0.834744h0.505873v2.5037025h-5.29e-4s-0.126468 0.714626 0.505874 1.071542c0.650597 0.368028 1.869773 0.01799 1.894379 0v-0.833421s-0.275426 0.09393-0.477828 0.07593c-0.159805 0-0.289713-0.05821-0.386284-0.16933-0.09763-0.11324-0.147106-0.27966-0.147106-0.502699v-2.1457245h1.011218v-0.834744h-1.011262v-1.4300448h-1.00963z" fill="url(#b)" style="fill:#2e3440;filter:url(#filter6337);opacity:.3;stroke-width:.264578"/>
 <path id="path362" d="m6.772749 4.2338112c-0.854323 0-1.490898 0.3058523-1.911048 0.9178215-0.419092 0.6061484-0.628373 1.4834895-0.628373 2.6328168 0 1.1739332 0.20981 2.0652969 0.628373 2.6825575 0.292094 0.42994 0.684464 0.70907 1.175256 0.837655 0 0 0.09895-4e-3 0.107419 0.09551 0.16933 1.298021 1.02815 1.299079 2.00656 1.299079 0 0 0.126469 2.65e-4 0.126469-0.118266v-0.715155c0-0.119854-0.126469-0.119854-0.126469-0.119854-0.489469 0-0.616467 0.03069-0.745581-0.432585a2.2465328 2.2465328 0 0 0 0.464335-0.159541 2.0420139 2.0420139 0 0 0 0.79638-0.693459c0.210869-0.305853 0.365118-0.6834056 0.465657-1.1323947 0.104773-0.4479308 0.155572-0.9622706 0.155572-1.5435488 0-1.1614979-0.212191-2.0443951-0.63922-2.645252-0.425971-0.6032381-1.052757-0.9053863-1.87533-0.9053863zm-0.0071 0.5788969v0.00265c0.180442 0 0.315642 0.059001 0.431263 0.1833526 0.06747 0.070113 0.126997 0.1613927 0.183617 0.2717218 0.03043 0.080167 0.06191 0.1666842 0.08519 0.2645781 0.06747 0.2629906 0.114562 0.5810135 0.142078 0.960154 0.02752 0.3788758 0.03836 0.8090799 0.03836 1.2898183 0 0.4836488-0.01058 0.9186152-0.03836 1.3033118-0.02752 0.3828446-0.0762 0.7053653-0.142078 0.9754993a2.3864946 2.3864946 0 0 1-0.08519 0.277014c-0.0071 0.0095-0.0093 0.02222-0.01508 0.03307-0.05212 0.09631-0.106361 0.179119-0.168272 0.244999-0.114298 0.129644-0.252407 0.190232-0.431527 0.190232-0.177796 0-0.3167-0.06085-0.429939-0.190496-0.112975-0.132287-0.205048-0.323049-0.272516-0.580483-0.0672-0.2619325-0.114562-0.5807491-0.142078-0.9583021a18.933739 18.933739 0 0 1-0.04392-1.2964328c0-0.4778281 0.01508-0.9037988 0.04392-1.2784414 0.02752-0.3735843 0.07488-0.6889615 0.142078-0.9424273 0.06747-0.2537304 0.160864-0.4426392 0.272516-0.5664618 0.11271-0.1227642 0.250555-0.1833526 0.429939-0.1833526zm3.913111 0.4868237c-0.378612 1.4300448-0.126998 1.4300448-0.884485 1.4300448v0.834744h0.505873v2.5037024h-5.29e-4s-0.126468 0.714626 0.505874 1.071542c0.650597 0.368028 1.869773 0.01799 1.894379 0v-0.833421s-0.275426 0.09393-0.477828 0.07593c-0.159805 0-0.289713-0.05821-0.386284-0.16933-0.09763-0.11324-0.147106-0.2796594-0.147106-0.5026988v-2.1457246h1.011218v-0.834744h-1.011262v-1.4300448h-1.00963z" fill="url(#b)" style="fill:url(#b-3);stroke-width:.264578"/>
</svg>
