<svg width="64" height="64" version="1.1" viewBox="0 0 16.933 16.933" xmlns="http://www.w3.org/2000/svg">
 <defs>
  <filter id="filter1178" x="-.048" y="-.048" width="1.096" height="1.096" color-interpolation-filters="sRGB">
   <feGaussianBlur stdDeviation="0.30691955"/>
  </filter>
  <linearGradient id="linearGradient10388" x1="8.5011" x2="8.489" y1="16.007" y2=".79375" gradientTransform="translate(34.649 -6.6456)" gradientUnits="userSpaceOnUse">
   <stop stop-color="#2e3440" offset="0"/>
   <stop stop-color="#4c566a" offset="1"/>
  </linearGradient>
  <linearGradient id="linearGradient10777" x1="42.859" x2="42.859" y1="-1.6001" y2="5.9939" gradientUnits="userSpaceOnUse">
   <stop stop-color="#4c566a" offset="0"/>
   <stop stop-color="#2e3440" offset="1"/>
  </linearGradient>
 </defs>
 <g transform="translate(-34.657 6.6426)">
  <g stroke-linecap="round" stroke-linejoin="round">
   <rect transform="matrix(.99138 0 0 1 .072989 .0019055)" x=".79375" y=".90545" width="15.346" height="15.346" rx="3.0526" ry="3.0526" fill="#000000" filter="url(#filter1178)" opacity=".15" stroke-width="1.2489" style="mix-blend-mode:normal"/>
   <rect x="35.575" y="-5.7196" width="15.081" height="15.081" rx="3" ry="3" fill="url(#linearGradient10388)" stroke-width="1.2274"/>
   <rect x="34.661" y="-6.6396" width="16.924" height="16.927" fill="none" opacity=".15" stroke-width="1.052"/>
  </g>
  <path transform="scale(.26458)" d="m151.06-13.303c-2.693 9e-3 -6.4887 1.8815-12.48 5.5605-1.5215 0.80528-2.8941 1.749-4.1211 2.7793v17.738c1.9742-1.575 4.0342-4.3268 6.0996-7.1641 3.3005-4.5338 7.388-14.252 10.699-14.146 1.5154 0.048326 2.4413 0.79315 3.5176 2.6836a14.765 16.27 0 0 0-7.5488 14.186 14.765 16.27 0 0 0 14.766 16.27 14.765 16.27 0 0 0 14.764-16.27 14.765 16.27 0 0 0-3.1953-10.109c1.0926-1.9409 2.0212-2.706 3.5547-2.748 3.8483-0.1056 7.0974 4.5858 11.412 8.168 0.97153 0.80657 1.9534 1.5817 2.9316 2.3105v-13.682c-9.8161-3.4188-14.596-2.2153-19.34 4.2207a14.765 16.27 0 0 0-10.127-4.4297 14.765 16.27 0 0 0-4.8008 0.89453c-1.6754-4.2028-3.2893-6.2712-6.1309-6.2617z" fill="#eceff4" fill-rule="evenodd" stroke-width="1.3009"/>
  <path d="m42.859-1.6001a3.4531 3.805 0 0 0-3.2512 2.529c0.05206 0.024852 0.10418 0.049092 0.15622 0.070969 0.06083 0.025569 0.12131 0.048906 0.18211 0.070522 0.0608 0.021617 0.12179 0.041132 0.18256 0.058918s0.12139 0.033682 0.18211 0.047759 0.12144 0.026558 0.18211 0.037047c0.06067 0.01049 0.12151 0.019311 0.18211 0.026334 0.0606 0.00702 0.12114 0.012389 0.18166 0.016068 0.06053 0.00368 0.12077 0.00535 0.18122 0.0058 0.06044 4.57e-4 0.12086-4.8e-4 0.18122-0.00312 0.06035-0.00264 0.12052-0.00687 0.18077-0.012498 0.06025-0.00562 0.12063-0.012496 0.18077-0.020979 0.06014-0.00848 0.1203-0.018687 0.18032-0.029905 0.06002-0.011219 0.11999-0.023661 0.17988-0.037493 0.05989-0.013833 0.11968-0.028755 0.17943-0.045081s0.11938-0.033972 0.17898-0.052669c0.05961-0.018696 0.11909-0.038418 0.17854-0.059364 0.05945-0.020947 0.11881-0.042985 0.17809-0.066059 0.05928-0.023075 0.11854-0.047227 0.17764-0.072308s0.11828-0.051144 0.1772-0.078111c0.05892-0.026966 0.11758-0.054737 0.17631-0.083467 0.11745-0.057459 0.23466-0.11833 0.35128-0.18211 0.11662-0.063783 0.23244-0.13083 0.34815-0.19996 0.11571-0.069134 0.23118-0.14074 0.34592-0.21425 0.11473-0.073511 0.22912-0.14894 0.3428-0.22585 0.11368-0.076916 0.22668-0.15498 0.33922-0.23433 0.10192-0.071851 0.20303-0.14473 0.30396-0.21782a3.4531 3.805 0 0 0-2.3594-1.027zm2.6433 1.3578c-0.098405 0.083576-0.19624 0.16583-0.29191 0.24237-0.11598 0.092774-0.22993 0.18044-0.34146 0.26334s-0.221 0.16122-0.32762 0.23478c-0.10662 0.073559-0.21032 0.14236-0.31155 0.20711-0.10123 0.064741-0.19966 0.12521-0.29503 0.18166s-0.18768 0.10888-0.27674 0.15756c-0.08905 0.048686-0.17484 0.093796-0.2571 0.13524-0.08226 0.041447-0.16112 0.079529-0.23612 0.11426-0.075 0.034736-0.14609 0.066075-0.21335 0.094626-0.06727 0.028551-0.13064 0.054326-0.1897 0.077218s-0.11386 0.042943-0.16426 0.060703c-0.05039 0.017761-0.09667 0.033265-0.13792 0.04642-0.0825 0.026311-0.14612 0.043852-0.18925 0.054901s-0.06561 0.015622-0.06561 0.015622c0.0016 0.027544 9.14e-4 0.055184-0.0023 0.083467-0.0031 0.028283-0.0086 0.056931-0.01607 0.085699-0.0074 0.028768-0.01661 0.058037-0.02812 0.087038-0.01149 0.029-0.02532 0.058058-0.04062 0.087038-0.01529 0.028979-0.03207 0.057886-0.05088 0.086591s-0.03954 0.057074-0.0616 0.085252c-0.02205 0.028178-0.0455 0.056069-0.07052 0.083467-0.02503 0.027398-0.05174 0.054424-0.07945 0.080789-0.02771 0.026364-0.05647 0.05214-0.08659 0.077218s-0.06147 0.049217-0.09373 0.072754c-0.03226 0.023538-0.06542 0.0461-0.09954 0.067845s-0.06919 0.04279-0.10489 0.062489-0.07235 0.038394-0.10936 0.055793c-0.037 0.0174-0.07445 0.033358-0.11248 0.048206s-0.07638 0.028576-0.11516 0.040617-0.07813 0.022261-0.11739 0.031244c-0.03925 0.00898-0.07838 0.016646-0.11784 0.022318-0.03945 0.00567-0.07891 0.0095-0.11828 0.011605-0.03937 0.0021-0.07882 0.00261-0.11784 8.913e-4 -0.03902-0.00171-0.07767-0.00538-0.11605-0.011159-0.03838-0.00578-0.07635-0.013995-0.11382-0.024103s-0.07441-0.022362-0.1107-0.037047-0.07185-0.031814-0.10668-0.05133c-0.03482-0.019516-0.06913-0.041459-0.10222-0.06606-0.03308-0.0246-0.06535-0.051744-0.09641-0.081681s-0.06094-0.062669-0.08971-0.098197c-0.02877-0.035527-0.05638-0.073787-0.08257-0.11516-0.0262-0.04137-0.05074-0.085991-0.07409-0.13346-0.02335-0.047467-0.04539-0.097941-0.06561-0.15176-0.02022-0.053817-0.03897-0.11098-0.05579-0.1714-0.01682-0.060419-0.03149-0.12376-0.04463-0.19104-0.01314-0.067275-0.02473-0.13808-0.03392-0.21246l-0.09106-0.03303a3.4531 3.805 0 0 0-0.07276 0.76906 3.4531 3.805 0 0 0 3.4529 3.8051 3.4531 3.805 0 0 0 3.4529-3.8051 3.4531 3.805 0 0 0-0.80967-2.4473zm-1.0824 1.8055a0.32686 0.31494 0 0 1 0.02678 8.913e-4 0.32686 0.31494 0 0 1 0.02678 0.00357 0.32686 0.31494 0 0 1 0.02678 0.00536 0.32686 0.31494 0 0 1 0.02589 0.00714 0.32686 0.31494 0 0 1 0.025 0.00937 0.32686 0.31494 0 0 1 0.0241 0.011605 0.32686 0.31494 0 0 1 0.02321 0.01339 0.32686 0.31494 0 0 1 0.02233 0.015177 0.32686 0.31494 0 0 1 0.02052 0.016516 0.32686 0.31494 0 0 1 0.0192 0.018746 0.32686 0.31494 0 0 1 0.01741 0.01964 0.32686 0.31494 0 0 1 0.01563 0.021425 0.32686 0.31494 0 0 1 0.01385 0.022318 0.32686 0.31494 0 0 1 0.01161 0.02321 0.32686 0.31494 0 0 1 0.0098 0.024103 0.32686 0.31494 0 0 1 8e-3 0.024995 0.32686 0.31494 0 0 1 0.0053 0.025442 0.32686 0.31494 0 0 1 0.0036 0.025888 0.32686 0.31494 0 0 1 0 4.57e-4 0.32686 0.31494 0 0 1 0 4.571e-4 0.32686 0.31494 0 0 1 0 4.571e-4 0.32686 0.31494 0 0 1 0 4.57e-4 0.32686 0.31494 0 0 1 0 4.571e-4 0.32686 0.31494 0 0 1 0 4.57e-4 0.32686 0.31494 0 0 1 0 4.571e-4 0.32686 0.31494 0 0 1 4.57e-4 4.571e-4 0.32686 0.31494 0 0 1 0 4.57e-4 0.32686 0.31494 0 0 1 0 4.571e-4 0.32686 0.31494 0 0 1 0 4.57e-4 0.32686 0.31494 0 0 1 0 4.571e-4 0.32686 0.31494 0 0 1 0 4.571e-4 0.32686 0.31494 0 0 1 0 4.57e-4 0.32686 0.31494 0 0 1 0 4.571e-4 0.32686 0.31494 0 0 1 0 4.57e-4 0.32686 0.31494 0 0 1 0 4.571e-4 0.32686 0.31494 0 0 1 0 4.571e-4 0.32686 0.31494 0 0 1 0 4.57e-4 0.32686 0.31494 0 0 1 0 4.571e-4 0.32686 0.31494 0 0 1 0 4.57e-4 0.32686 0.31494 0 0 1 0 4.571e-4 0.32686 0.31494 0 0 1 0 4.571e-4 0.32686 0.31494 0 0 1 0 4.57e-4 0.32686 0.31494 0 0 1 0 4.571e-4 0.32686 0.31494 0 0 1 4.57e-4 4.57e-4 0.32686 0.31494 0 0 1 0 4.571e-4 0.32686 0.31494 0 0 1 0 4.571e-4 0.32686 0.31494 0 0 1 0 4.57e-4 0.32686 0.31494 0 0 1 0 4.571e-4 0.32686 0.31494 0 0 1 0 4.57e-4 0.32686 0.31494 0 0 1 0 4.571e-4 0.32686 0.31494 0 0 1 0 4.57e-4 0.32686 0.31494 0 0 1 0 4.571e-4 0.32686 0.31494 0 0 1 0 4.571e-4 0.32686 0.31494 0 0 1 0 4.57e-4 0.32686 0.31494 0 0 1 0 4.571e-4 0.32686 0.31494 0 0 1 0 4.57e-4 0.32686 0.31494 0 0 1 0 4.571e-4 0.32686 0.31494 0 0 1 0 4.571e-4 0.32686 0.31494 0 0 1 0 4.57e-4 0.32686 0.31494 0 0 1 0 4.571e-4 0.32686 0.31494 0 0 1 0 4.57e-4 0.32686 0.31494 0 0 1 0 4.571e-4 0.32686 0.31494 0 0 1 0 4.571e-4 0.32686 0.31494 0 0 1 0 4.57e-4 0.32686 0.31494 0 0 1 0 4.571e-4 0.32686 0.31494 0 0 1 0 4.57e-4 0.32686 0.31494 0 0 1 0 4.571e-4 0.32686 0.31494 0 0 1 0 4.571e-4 0.32686 0.31494 0 0 1 0 4.57e-4 0.32686 0.31494 0 0 1 0 4.571e-4 0.32686 0.31494 0 0 1 0 4.57e-4 0.32686 0.31494 0 0 1 0 4.571e-4 0.32686 0.31494 0 0 1 0 4.571e-4 0.32686 0.31494 0 0 1 0 4.57e-4 0.32686 0.31494 0 0 1 0 4.571e-4 0.32686 0.31494 0 0 1 0 4.57e-4 0.32686 0.31494 0 0 1 0 4.571e-4 0.32686 0.31494 0 0 1 0 4.571e-4 0.32686 0.31494 0 0 1 0 4.57e-4 0.32686 0.31494 0 0 1 0 4.571e-4 0.32686 0.31494 0 0 1 0 4.57e-4 0.32686 0.31494 0 0 1 0 4.571e-4 0.32686 0.31494 0 0 1 0 4.571e-4 0.32686 0.31494 0 0 1 0 4.57e-4 0.32686 0.31494 0 0 1 0 4.571e-4 0.32686 0.31494 0 0 1 0 4.57e-4 0.32686 0.31494 0 0 1 0 4.571e-4 0.32686 0.31494 0 0 1 0 4.57e-4 0.32686 0.31494 0 0 1 0 4.571e-4 0.32686 0.31494 0 0 1 0 4.571e-4 0.32686 0.31494 0 0 1 0 4.57e-4 0.32686 0.31494 0 0 1 0 4.571e-4 0.32686 0.31494 0 0 1 0 4.57e-4 0.32686 0.31494 0 0 1 0 4.571e-4 0.32686 0.31494 0 0 1 0 4.571e-4 0.32686 0.31494 0 0 1 0 4.57e-4 0.32686 0.31494 0 0 1 0 4.571e-4 0.32686 0.31494 0 0 1 0 4.57e-4 0.32686 0.31494 0 0 1 0 4.571e-4 0.32686 0.31494 0 0 1 0 4.571e-4 0.32686 0.31494 0 0 1 0 4.57e-4 0.32686 0.31494 0 0 1 0 4.571e-4 0.32686 0.31494 0 0 1 0 4.57e-4 0.32686 0.31494 0 0 1 0 4.571e-4 0.32686 0.31494 0 0 1 0 4.571e-4 0.32686 0.31494 0 0 1 0 4.57e-4 0.32686 0.31494 0 0 1 0 4.571e-4 0.32686 0.31494 0 0 1 0 4.57e-4 0.32686 0.31494 0 0 1-4.57e-4 4.571e-4 0.32686 0.31494 0 0 1 0 4.571e-4 0.32686 0.31494 0 0 1 0 4.57e-4 0.32686 0.31494 0 0 1 0 4.571e-4 0.32686 0.31494 0 0 1 0 4.57e-4 0.32686 0.31494 0 0 1 0 4.571e-4 0.32686 0.31494 0 0 1 0 4.571e-4 0.32686 0.31494 0 0 1 0 4.57e-4 0.32686 0.31494 0 0 1 0 4.571e-4 0.32686 0.31494 0 0 1 0 4.57e-4 0.32686 0.31494 0 0 1 0 4.571e-4 0.32686 0.31494 0 0 1 0 4.57e-4 0.32686 0.31494 0 0 1 0 4.571e-4 0.32686 0.31494 0 0 1 0 4.571e-4 0.32686 0.31494 0 0 1 0 4.57e-4 0.32686 0.31494 0 0 1 0 4.571e-4 0.32686 0.31494 0 0 1 0 4.57e-4 0.32686 0.31494 0 0 1 0 4.571e-4 0.32686 0.31494 0 0 1 0 4.571e-4 0.32686 0.31494 0 0 1-4.57e-4 4.57e-4 0.32686 0.31494 0 0 1 0 4.571e-4 0.32686 0.31494 0 0 1 0 4.57e-4 0.32686 0.31494 0 0 1 0 4.571e-4 0.32686 0.31494 0 0 1 0 4.571e-4 0.32686 0.31494 0 0 1 0 4.57e-4 0.32686 0.31494 0 0 1 0 4.571e-4 0.32686 0.31494 0 0 1 0 4.57e-4 0.32686 0.31494 0 0 1-0.0036 0.025888 0.32686 0.31494 0 0 1-0.0053 0.025442 0.32686 0.31494 0 0 1-8e-3 0.024995 0.32686 0.31494 0 0 1-0.0098 0.024103 0.32686 0.31494 0 0 1-0.01161 0.02321 0.32686 0.31494 0 0 1-0.01385 0.022318 0.32686 0.31494 0 0 1-0.01563 0.021425 0.32686 0.31494 0 0 1-0.01741 0.01964 0.32686 0.31494 0 0 1-0.0192 0.018746 0.32686 0.31494 0 0 1-0.02052 0.016516 0.32686 0.31494 0 0 1-0.02233 0.015177 0.32686 0.31494 0 0 1-0.02321 0.013389 0.32686 0.31494 0 0 1-0.0241 0.011605 0.32686 0.31494 0 0 1-0.025 0.00937 0.32686 0.31494 0 0 1-0.02589 0.00759 0.32686 0.31494 0 0 1-0.02678 0.00536 0.32686 0.31494 0 0 1-0.02678 0.00312 0.32686 0.31494 0 0 1-0.02678 8.913e-4 0.32686 0.31494 0 0 1-0.07276-0.00804 0.32686 0.31494 0 0 1-0.06918-0.02321 0.32686 0.31494 0 0 1-0.06204-0.037493 0.32686 0.31494 0 0 1-0.05178-0.049991 0.32686 0.31494 0 0 1-0.03883-0.059364 0.32686 0.31494 0 0 1-0.0241-0.066506 0.32686 0.31494 0 0 1-8e-3 -0.070076 0.32686 0.31494 0 0 1 8e-3 -0.070077 0.32686 0.31494 0 0 1 0.0241-0.066952 0.32686 0.31494 0 0 1 0.03883-0.059364 0.32686 0.31494 0 0 1 0.05178-0.049991 0.32686 0.31494 0 0 1 0.06204-0.037493 0.32686 0.31494 0 0 1 0.06918-0.02321 0.32686 0.31494 0 0 1 0.07276-0.00804zm-2.3558 1.905c0.04722-2e-6 0.09425 0.00165 0.1406 0.00491 0.04634 0.00327 0.09192 0.00829 0.13614 0.015177 0.04422 0.00688 0.08726 0.015503 0.1281 0.026335s0.07985 0.023712 0.11605 0.038832c0.0181 0.00756 0.03551 0.015853 0.05222 0.024549 0.0167 0.0087 0.0326 0.0178 0.04776 0.027673 0.01515 0.00987 0.0294 0.020597 0.04285 0.031691 0.01344 0.011093 0.02591 0.02246 0.03749 0.034815 0.01159 0.012354 0.02212 0.025619 0.03169 0.039279 0.0096 0.013659 0.01805 0.027843 0.02544 0.042849 0.0094 0.019112 0.01677 0.039056 0.02187 0.059364 0.0051 0.020307 0.0082 0.040836 0.0094 0.062042 0.0011 0.021208 2.29e-4 0.042915-0.0023 0.06472-0.0025 0.021806-0.0066 0.043953-0.0125 0.06606-0.0058 0.022106-0.01344 0.044398-0.02233 0.066505-0.0089 0.022108-0.01922 0.043803-0.0308 0.065613-0.01159 0.021811-0.02441 0.043506-0.03839 0.06472-0.01396 0.021214-0.02904 0.042169-0.04508 0.062488-0.01604 0.020321-0.03309 0.040238-0.05088 0.059364-0.0178 0.019126-0.03657 0.037267-0.05579 0.054901-0.01922 0.017633-0.03902 0.034594-0.05936 0.050437-0.02034 0.015842-0.0409 0.030882-0.06204 0.044635s-0.04265 0.026129-0.06427 0.037493c-0.02162 0.011365-0.04338 0.021674-0.06517 0.030352-0.02178 0.00868-0.04398 0.015734-0.06561 0.021425-0.02164 0.00569-0.04311 0.010092-0.06427 0.012498-0.02719 0.00309-0.05453 0.00286-0.08257 0-0.02805-0.00286-0.0567-0.00839-0.08525-0.016516-0.02856-0.00812-0.05697-0.018995-0.0857-0.031691-0.02872-0.012695-0.05759-0.027615-0.08614-0.044188s-0.05677-0.034692-0.0848-0.054455c-0.02804-0.019761-0.05584-0.041123-0.08302-0.063381-0.02718-0.022259-0.05392-0.045566-0.0799-0.06963s-0.05145-0.048916-0.07588-0.074094c-0.04887-0.050356-0.09414-0.10199-0.1348-0.15265-0.04065-0.050664-0.07653-0.10007-0.10623-0.14551s-0.05318-0.087164-0.06918-0.12185c-8e-3 -0.017345-0.01424-0.032801-0.01831-0.04642-0.0041-0.01362-6e-3 -0.025166-0.0058-0.034369-6.86e-4 -0.00712-1.83e-4 -0.014343 0.0018-0.021425 0.0021-0.00708 0.0053-0.013975 0.0098-0.020979 0.0045-7e-3 0.0101-0.014093 0.01696-0.020979 0.0069-0.00688 0.01501-0.01381 0.0241-0.020531 0.01817-0.013442 0.04043-0.026295 0.06651-0.038832s0.05608-0.024414 0.08882-0.035708 0.06853-0.02198 0.10668-0.031691c0.03814-0.00971 0.07866-0.018543 0.12096-0.026335 0.0423-0.00779 0.08604-0.014553 0.13123-0.020085 0.04519-0.00553 0.09154-0.010007 0.13837-0.012944 0.04683-0.00294 0.09428-0.00446 0.14149-0.00446z" fill="url(#linearGradient10777)" fill-rule="evenodd" stroke-width=".30424"/>
 </g>
</svg>
