<?xml version="1.0" encoding="UTF-8" standalone="no"?>
<svg
   width="64"
   height="64"
   version="1.1"
   viewBox="0 0 16.933 16.933"
   id="svg20"
   sodipodi:docname="redshift.svg"
   inkscape:version="1.1.2 (1:1.1+202202050950+0a00cf5339)"
   xmlns:inkscape="http://www.inkscape.org/namespaces/inkscape"
   xmlns:sodipodi="http://sodipodi.sourceforge.net/DTD/sodipodi-0.dtd"
   xmlns:xlink="http://www.w3.org/1999/xlink"
   xmlns="http://www.w3.org/2000/svg"
   xmlns:svg="http://www.w3.org/2000/svg">
  <sodipodi:namedview
     id="namedview22"
     pagecolor="#505050"
     bordercolor="#eeeeee"
     borderopacity="1"
     inkscape:pageshadow="0"
     inkscape:pageopacity="0"
     inkscape:pagecheckerboard="0"
     showgrid="false"
     inkscape:zoom="12.984375"
     inkscape:cx="32"
     inkscape:cy="31.961492"
     inkscape:window-width="2560"
     inkscape:window-height="1358"
     inkscape:window-x="0"
     inkscape:window-y="0"
     inkscape:window-maximized="1"
     inkscape:current-layer="svg20" />
  <defs
     id="defs10">
    <linearGradient
       inkscape:collect="always"
       id="linearGradient851">
      <stop
         style="stop-color:#d8dee9;stop-opacity:1"
         offset="0"
         id="stop847" />
      <stop
         style="stop-color:#eceff4;stop-opacity:1"
         offset="1"
         id="stop849" />
    </linearGradient>
    <filter
       id="filter1178"
       x="-0.047999482"
       y="-0.047999482"
       width="1.095999"
       height="1.095999"
       color-interpolation-filters="sRGB">
      <feGaussianBlur
         stdDeviation="0.30691668"
         id="feGaussianBlur2" />
    </filter>
    <linearGradient
       id="linearGradient1340"
       x1="8.3017"
       x2="8.355"
       y1="16.007"
       y2=".79375"
       gradientUnits="userSpaceOnUse">
      <stop
         stop-color="#bf616a"
         offset="0"
         id="stop5" />
      <stop
         stop-color="#d08770"
         offset="1"
         id="stop7" />
    </linearGradient>
    <linearGradient
       inkscape:collect="always"
       xlink:href="#linearGradient851"
       id="linearGradient1151"
       gradientUnits="userSpaceOnUse"
       gradientTransform="matrix(1.1419718,0,0,1.1419718,-1.2020029,-1.2020042)"
       x1="8.6450262"
       y1="15.045001"
       x2="8.6459179"
       y2="1.8019222" />
    <filter
       inkscape:collect="always"
       style="color-interpolation-filters:sRGB"
       id="filter1190"
       x="-0.047916979"
       y="-0.035935138"
       width="1.095834"
       height="1.0718703">
      <feGaussianBlur
         inkscape:collect="always"
         stdDeviation="0.17580364"
         id="feGaussianBlur1192" />
    </filter>
  </defs>
  <g
     stroke-linecap="round"
     stroke-linejoin="round"
     id="g18">
    <rect
       transform="matrix(.99138 0 0 1 .072989 0)"
       x=".79375"
       y=".90545"
       width="15.346"
       height="15.346"
       rx="3.0526"
       ry="3.0526"
       fill="#2e3440"
       filter="url(#filter1178)"
       opacity=".2"
       stroke-width="1.2489"
       style="mix-blend-mode:normal"
       id="rect12" />
    <rect
       x=".92604"
       y=".92604"
       width="15.081"
       height="15.081"
       rx="3"
       ry="3"
       fill="url(#linearGradient1340)"
       stroke-width="1.2274"
       id="rect14" />
    <rect
       x=".01215"
       y=".0060174"
       width="16.924"
       height="16.927"
       fill="none"
       opacity=".15"
       stroke-width="1.052"
       id="rect16" />
  </g>
  <path
     d="m 11.76916,6.0206991 c 0,-0.3666745 -0.0988,-0.707344 -0.29646,-1.0246084 C 11.275059,4.6788261 11.017608,4.4213736 10.697742,4.2211329 10.380479,4.0208921 10.026805,3.8622596 9.639329,3.7478365 9.2518511,3.6334132 8.8617709,3.5762015 8.4664898,3.5762015 c -0.3952806,0 -0.7879605,0.057212 -1.172839,0.1716354 C 6.9061721,3.8622585 6.5551008,4.0208917 6.2352357,4.2211325 5.9179713,4.4213721 5.6579179,4.6814265 5.4602781,4.9960903 5.2626376,5.3133548 5.1638176,5.654024 5.1638176,6.0206989 c 0,0.5149045 0.1950386,0.9725973 0.5851193,1.3756797 0.057212,0.057212 0.1456278,0.1404283 0.262653,0.252251 C 6.1286146,7.7604538 6.2170306,7.843668 6.2742431,7.9008807 7.0075924,8.6810396 7.4132748,9.440394 7.4860897,10.178945 H 9.4468891 C 9.5223171,9.440394 9.925388,8.6810395 10.658736,7.9008806 c 0.05719,-0.057212 0.145625,-0.1404284 0.262664,-0.252251 0.117032,-0.1118241 0.205437,-0.1950411 0.262663,-0.252251 0.390079,-0.4030825 0.585119,-0.8607753 0.585119,-1.37568 m 1.100024,0 c 0,0.7905609 -0.296462,1.4718995 -0.886781,2.0492168 -0.257446,0.2496518 -0.470696,0.4706959 -0.639728,0.6657369 -0.169053,0.1924283 -0.340671,0.4368871 -0.512303,0.7307473 -0.171624,0.2938597 -0.27046,0.5669164 -0.291262,0.8217684 0.270462,0.143024 0.403086,0.351071 0.403086,0.626728 0,0.189849 -0.07282,0.351071 -0.215841,0.488899 0.143016,0.137829 0.215841,0.301662 0.215841,0.4889 0,0.265245 -0.130019,0.470697 -0.387483,0.618924 0.07543,0.11703 0.111822,0.236645 0.111822,0.358876 0,0.234039 -0.09103,0.416082 -0.270461,0.543507 -0.179447,0.127422 -0.4030815,0.189846 -0.6657362,0.189846 -0.1144268,0.223635 -0.286056,0.40308 -0.5149042,0.535708 -0.2288497,0.132627 -0.4784982,0.197643 -0.7489528,0.197643 -0.2704563,0 -0.5201057,-0.06502 -0.7489523,-0.197643 -0.2288471,-0.132625 -0.4004817,-0.312065 -0.5149048,-0.535708 -0.2626531,0 -0.4862991,-0.06242 -0.6657355,-0.189846 -0.179432,-0.127439 -0.2704504,-0.30946 -0.2704504,-0.543507 0,-0.122215 0.036406,-0.24186 0.1118242,-0.358876 -0.2574549,-0.148232 -0.3874816,-0.353671 -0.3874816,-0.618924 0,-0.189849 0.072815,-0.351071 0.215843,-0.4889 -0.143036,-0.137843 -0.2158493,-0.30166 -0.2158493,-0.488899 0,-0.275646 0.1352257,-0.483697 0.4030816,-0.626728 C 6.3704634,10.033316 6.2742436,9.7602594 6.1026087,9.4663997 5.9309738,9.1725395 5.7593388,8.9306909 5.5903044,8.7356526 5.42127,8.5432131 5.2080266,8.3195667 4.9505742,8.0699158 4.3602544,7.4951989 4.0637938,6.8112596 4.0637938,6.0206991 c 0,-0.5045029 0.1274266,-0.9751987 0.3822778,-1.409487 C 4.7009243,4.1743234 5.0363919,3.8128498 5.4524764,3.5267915 5.8685609,3.2381325 6.3392569,3.0118868 6.861963,2.8454528 7.3872699,2.6790193 7.9203786,2.5958012 8.4664898,2.5958012 c 0.5435085,0 1.0792213,0.083217 1.6045262,0.2496516 0.525305,0.1664333 0.996003,0.3926797 1.409486,0.6813387 0.416083,0.2886587 0.751552,0.6501323 1.006401,1.0844206 0.254845,0.436889 0.38228,0.9049841 0.38228,1.409487 z"
     fill="#2e3440"
     id="path2"
     style="fill:#2e3440;fill-opacity:1;stroke-width:2.60052;filter:url(#filter1190);opacity:0.519" />
  <path
     d="m 11.76916,6.0206989 c 0,-0.3666745 -0.0988,-0.707344 -0.29646,-1.0246084 C 11.275059,4.6788259 11.017608,4.4213734 10.697742,4.2211327 10.380479,4.0208919 10.026805,3.8622594 9.6393299,3.7478363 9.2518521,3.633413 8.8617711,3.5762013 8.4664901,3.5762013 c -0.39528,0 -0.78796,0.057212 -1.172839,0.1716354 -0.387478,0.1144216 -0.73855,0.2730548 -1.058415,0.4732956 -0.317264,0.2002396 -0.577317,0.460294 -0.774957,0.7749578 -0.197641,0.3172645 -0.296461,0.6579337 -0.296461,1.0246086 0,0.5149049 0.195039,0.9725969 0.58512,1.3756799 0.05721,0.05721 0.145627,0.140428 0.262653,0.252251 0.117024,0.111824 0.20544,0.195038 0.262653,0.252251 0.733349,0.780159 1.139031,1.539513 1.211846,2.2780644 h 1.9608 c 0.07543,-0.7385514 0.4784988,-1.4979054 1.2118459,-2.2780644 0.05719,-0.05721 0.145625,-0.140429 0.262664,-0.252251 0.117032,-0.111824 0.205437,-0.195041 0.262663,-0.252251 0.390079,-0.403083 0.585119,-0.8607761 0.585119,-1.3756802 m 1.100024,0 c 0,0.7905612 -0.296462,1.4718992 -0.886781,2.0492172 -0.257446,0.249651 -0.470696,0.470696 -0.639728,0.665737 -0.169053,0.192428 -0.340671,0.436887 -0.512303,0.730747 -0.171624,0.29386 -0.27046,0.5669164 -0.291262,0.8217684 0.270462,0.143024 0.403086,0.351071 0.403086,0.626728 0,0.189849 -0.07282,0.351071 -0.215841,0.488899 0.143016,0.137829 0.215841,0.301662 0.215841,0.4889 0,0.265245 -0.130019,0.470697 -0.387483,0.618924 0.07543,0.11703 0.111822,0.236645 0.111822,0.358876 0,0.234039 -0.09103,0.416082 -0.270461,0.543507 -0.179447,0.127422 -0.4030801,0.189846 -0.6657351,0.189846 -0.114427,0.223635 -0.2860558,0.40308 -0.5149048,0.535708 -0.22885,0.132627 -0.478498,0.197643 -0.748953,0.197643 -0.270456,0 -0.520105,-0.06502 -0.748952,-0.197643 -0.228847,-0.132625 -0.400482,-0.312065 -0.514905,-0.535708 -0.262653,0 -0.486299,-0.06242 -0.665735,-0.189846 -0.179432,-0.127439 -0.270451,-0.30946 -0.270451,-0.543507 0,-0.122215 0.03641,-0.24186 0.111825,-0.358876 -0.257455,-0.148232 -0.387482,-0.353671 -0.387482,-0.618924 0,-0.189849 0.07282,-0.351071 0.215843,-0.4889 -0.143036,-0.137843 -0.215849,-0.30166 -0.215849,-0.488899 0,-0.275646 0.135225,-0.483697 0.403081,-0.626728 -0.02341,-0.254852 -0.119634,-0.5279085 -0.291269,-0.8217684 -0.171635,-0.29386 -0.34327,-0.535709 -0.512304,-0.7307471 -0.169034,-0.1924399 -0.382278,-0.416086 -0.63973,-0.665737 -0.59032,-0.574717 -0.886781,-1.258656 -0.886781,-2.0492167 0,-0.5045029 0.127427,-0.9751987 0.382278,-1.409487 0.254853,-0.4368887 0.590321,-0.7983623 1.006405,-1.0844206 0.416085,-0.288659 0.886781,-0.5149047 1.409487,-0.6813386 0.525307,-0.1664335 1.058415,-0.2496516 1.604526,-0.2496516 0.543509,0 1.079222,0.083217 1.6045259,0.2496516 0.525305,0.1664333 0.996003,0.3926796 1.409486,0.6813386 0.416083,0.2886587 0.751552,0.6501323 1.006401,1.0844206 0.254845,0.436889 0.38228,0.9049841 0.38228,1.409487 z"
     fill="#2e3440"
     id="path2-3"
     style="fill:url(#linearGradient1151);fill-opacity:1;stroke-width:2.60052" />
</svg>
