<svg width="64" height="64" version="1.1" viewBox="0 0 16.933 16.933" xmlns="http://www.w3.org/2000/svg">
 <defs>
  <filter id="filter1178" x="-.048" y="-.048" width="1.096" height="1.096" color-interpolation-filters="sRGB">
   <feGaussianBlur stdDeviation="0.30691955"/>
  </filter>
  <linearGradient id="linearGradient1340" x1="8.5011" x2="8.489" y1="16.007" y2=".79375" gradientUnits="userSpaceOnUse">
   <stop stop-color="#2e3440" offset="0"/>
   <stop stop-color="#4c566a" offset="1"/>
  </linearGradient>
  <linearGradient id="linearGradient494" x1="8.6426" x2="8.6426" y1="5.6761" y2="11.174" gradientTransform="matrix(1.1228 0 0 1.1228 -1.0401 -1.0401)" gradientUnits="userSpaceOnUse">
   <stop stop-color="#eceff4" offset="0"/>
   <stop stop-color="#d8dee9" offset="1"/>
  </linearGradient>
  <filter id="filter1140" x="-.036372" y="-.070555" width="1.0727" height="1.1411" color-interpolation-filters="sRGB">
   <feGaussianBlur stdDeviation="0.16153418"/>
  </filter>
 </defs>
 <g stroke-linecap="round" stroke-linejoin="round">
  <rect transform="matrix(.99138 0 0 1 .072989 .0019055)" x=".79375" y=".90545" width="15.346" height="15.346" rx="3.0526" ry="3.0526" filter="url(#filter1178)" opacity=".15" stroke-width="1.2489" style="mix-blend-mode:normal"/>
  <rect x=".92604" y=".92604" width="15.081" height="15.081" rx="3" ry="3" fill="url(#linearGradient1340)" stroke-width="1.2274"/>
  <rect x=".01215" y=".0060174" width="16.924" height="16.927" fill="none" opacity=".15" stroke-width="1.052"/>
 </g>
 <path transform="matrix(1.1228 0 0 1.1228 -1.0401 -1.0401)" d="m5.1477 11.156c0-0.03189 0.23878-0.32665 0.53063-0.65503l0.53063-0.59705h-0.80199c-0.65928 0-0.79347-0.022201-0.7541-0.1248 0.026343-0.068641 0.074225-0.26515 0.1064-0.43669l0.058509-0.31188h-0.83943c-0.46168 0-0.84021-0.029479-0.84117-0.065499-9.503e-4 -0.036028 0.1253-0.58625 0.28057-1.2227l0.28232-1.1572h0.37446c0.20595 0 0.37378 0.00982 0.37296 0.021833-8.208e-4 0.01201-0.075512 0.30677-0.16597 0.65503l-0.16447 0.6332h1.0157l0.30885-1.3101h1.5537l-0.71087-0.82971 0.37047-0.02865c0.34758-0.026879 0.39576-0.00121 0.77972 0.41485l0.40925 0.4435h1.2451l0.40925-0.4435c0.38396-0.41609 0.43214-0.44173 0.77972-0.41485l0.37047 0.02865-0.71087 0.82971h1.5537l0.30884 1.31006h1.0157l-0.16447-0.6332c-0.09046-0.34826-0.16514-0.64302-0.16597-0.65503-7.85e-4 -0.01201 0.16701-0.021832 0.37296-0.021832h0.37446l0.28232 1.1572c0.15528 0.63647 0.28153 1.1867 0.28057 1.2227-9.5e-4 0.036028-0.37949 0.065499-0.84117 0.065499h-0.83943l0.05851 0.31188c0.03219 0.17154 0.08005 0.36804 0.1064 0.43669 0.03937 0.1026-0.09481 0.1248-0.7541 0.1248h-0.80199l0.53063 0.59705c0.29185 0.32838 0.53063 0.62314 0.53063 0.65503s-0.23309 0.05798-0.51797 0.05798h-0.51797l-1.0836-1.3101h-2.3985l-1.0836 1.3101h-0.51798c-0.28489 0-0.51797-0.02609-0.51797-0.05798zm2.0088-3.3482v-0.52403h-0.96071v1.0481h0.96071zm3.5808 0v-0.52403h-0.96071v1.0481h0.96071z" fill="#2e3440" filter="url(#filter1140)" opacity=".3" stroke-width=".087338"/>
 <path d="m4.74 11.486c0-0.03581 0.26812-0.36678 0.59582-0.7355l0.59582-0.6704h-0.90051c-0.74027 0-0.89094-0.02493-0.84673-0.14014 0.029579-0.077073 0.083343-0.29772 0.11947-0.49033l0.065696-0.3502h-0.94254c-0.5184 0-0.94343-0.0331-0.94451-0.073545-0.00107-0.040454 0.14069-0.65827 0.31504-1.3729l0.317-1.2994h0.42046c0.23125 0 0.4197 0.011026 0.41878 0.024515-9.216e-4 0.013486-0.084788 0.34446-0.18635 0.7355l-0.18467 0.71098h1.1405l0.34679-1.471h1.7446l-0.79819-0.93163 0.41598-0.032169c0.39028-0.030181 0.44438-0.0013602 0.87551 0.46582l0.45953 0.49798h1.3981l0.45953-0.49798c0.43113-0.46721 0.48523-0.49599 0.87551-0.46582l0.41598 0.032169-0.7982 0.93164h1.7446l0.34679 1.471h1.1405l-0.18467-0.71098c-0.10157-0.39104-0.18543-0.72201-0.18636-0.7355-8.81e-4 -0.013486 0.18753-0.024514 0.41878-0.024514h0.42046l0.317 1.2994c0.17435 0.71466 0.31612 1.3325 0.31504 1.3729-1e-3 0.040453-0.42611 0.073545-0.9445 0.073545h-0.94254l0.06569 0.3502c0.03614 0.19261 0.08989 0.41326 0.11947 0.49033 0.0442 0.1152-0.10646 0.14013-0.84673 0.14013h-0.90051l0.59582 0.6704c0.3277 0.36872 0.59582 0.6997 0.59582 0.7355 0 0.03581-0.26172 0.0651-0.5816 0.0651h-0.5816l-1.2168-1.471h-2.6931l-1.2168 1.471h-0.58161c-0.31988 0-0.5816-0.02929-0.5816-0.0651zm2.2555-3.7595v-0.5884h-1.0787v1.1768h1.0787zm4.0207 0v-0.5884h-1.0787v1.1768h1.0787z" fill="url(#linearGradient494)" stroke-width=".098067"/>
</svg>
