<?xml version="1.0" encoding="UTF-8"?>
<svg width="64" height="64" version="1.1" viewBox="0 0 16.933 16.933" xml:space="preserve" xmlns="http://www.w3.org/2000/svg" xmlns:xlink="http://www.w3.org/1999/xlink"><defs><filter id="filter1178" x="-.047999" y="-.047999" width="1.096" height="1.096" color-interpolation-filters="sRGB"><feGaussianBlur stdDeviation="0.30691668"/></filter><linearGradient id="linearGradient8" x1="5.2553" x2="5.2553" y1=".92604" y2="16.007" gradientUnits="userSpaceOnUse"><stop stop-color="#81a1c1" offset="0"/><stop stop-color="#88c0d0" offset="1"/></linearGradient><linearGradient id="linearGradient10" x1="12.237" x2="12.237" y1="1.0409" y2="16.007" gradientUnits="userSpaceOnUse"><stop stop-color="#81a1c1" offset="0"/><stop stop-color="#5e81ac" offset="1"/></linearGradient><linearGradient id="linearGradient12" x1="7.9872" x2="7.9872" y1="2.2169" y2="14.534" gradientUnits="userSpaceOnUse"><stop stop-color="#4c566a" offset="0"/><stop stop-color="#2e3440" offset="1"/></linearGradient><filter id="filter13" x="-.054734" y="-.039189" width="1.1095" height="1.0784" color-interpolation-filters="sRGB"><feGaussianBlur stdDeviation="0.19876034"/></filter></defs><rect transform="matrix(.99138 0 0 1 .072989 .0019055)" x=".79375" y=".90545" width="15.346" height="15.346" rx="3.0526" ry="3.0526" filter="url(#filter1178)" opacity=".15" stroke-linecap="round" stroke-linejoin="round" stroke-width="1.2489" style="mix-blend-mode:normal"/><g stroke-linecap="round" stroke-linejoin="round"><path d="m8.4663 16.007h-4.5402c-1.662 0-3-1.338-3-3v-9.081c0-1.662 1.338-3 3-3l4.5402 3e-8z" fill="url(#linearGradient8)"/><path d="m8.4663 0.92604 4.5408-3e-8c1.662 0 3 1.338 3 3v9.081c0 1.662-1.338 3-3 3h-4.5408z" fill="url(#linearGradient10)"/></g><rect x=".01215" y=".0060174" width="16.924" height="16.927" fill="none" opacity=".15" stroke-linecap="round" stroke-linejoin="round" stroke-width="1.052"/><path d="m8.4678 2.7763c0.48724 0.061394 1.8399-0.27802 1.981 0.32074-1.6326 0.32735-1.8357 1.1776-1.8736 1.4121-0.054239 0.33591 0.035307 0.6743 0.2409 0.91235 0.25067 0.29023 1.526 1.0594 1.6489 1.061-0.05717 0.098234-0.17085 0.10518-0.17085 0.10518 0.06402 5.739e-4 0.27418 0.15818 0.31632 0.19387 0 0-0.12924-0.00706-0.1275 0.027244 0.19034 0.18973 0.31105 0.40233 0.31105 0.40233-0.17978-0.026525-0.20782 0.063582-0.20782 0.063582 0.25877 0.24547 0.34539 0.48083 0.34539 0.48083-0.17486-0.02413-0.23231 0.048604-0.23231 0.048604s0.24357 0.20717 0.32841 0.44296c-0.17434-0.027107-0.22968 0.022156-0.22968 0.022156s0.8728 1.2977 0.42788 1.8482c0 0 0.33145 0.52797 0.40085 0.82605 0.04685 0.20126-0.02666 0.42462 0.0036 0.61993 0.02803 0.18128 0.07984 0.44534 0.2044 0.56942 0.4397 0.438 0.84838 0.78901 1.2365 1.4318-0.10285-0.03829-0.15588-2.76e-4 -0.15588-2.76e-4s0.2409 0.39263 0.20213 0.60012c-0.03964 0.2122-0.2004 0.46897-0.41435 0.49771-0.90013 0.12089-2.234-1.5598-2.234-1.5598l-0.03768 0.81364c0.12354 0.04414 0.11426 0.30815 0.11426 0.30815 0.23392 0.0391 0.19968 0.24804 0.19968 0.24804 0.13968 0.02588 0.04408 0.34206 0.04408 0.34206s-0.01931-0.1806-0.11102-0.18478l-0.71183 0.0088c0.02218 0.04644 0.01479 0.0923 0.01479 0.0923-0.08989 0.02376-0.26275 0.0053-0.32488-0.0022 0.01604-0.1923-0.12638-0.16508-0.12638-0.16508-0.07849 0.07845-0.12506 0.12161-0.20466 0.1082-0.07381-0.01243-0.14266-0.15843-0.14266-0.15843s-0.12867 0.01844-0.18943 0.22716c-0.12944-0.23332 0.10631-0.37853 0.126-0.3888 0.17623-0.09186 0.7837 0 0.7837 0-0.0096-0.14619 0.11228-0.24575 0.11228-0.24575 0.0024-0.10239 0.09235-0.09888 0.09235-0.09888-8.74e-4 -0.08847 0.07451-0.12177 0.07451-0.12177v-1.1342c-0.45186-0.42383-0.82437-0.82202-1.3662-1.0747-0.46277-0.2158-1.5417-0.34766-1.5417-0.34766 0.16931 0.31508 0.19732 0.35578 0.24557 0.55868 0.051591 0.21696 0.035746 0.57384-0.02437 0.65905-0.18645 0.26428-0.81086 1.1324-1.0906 1.5678 0.10592 0.02535 0.11085 0.11085 0.11085 0.11085 0.080098 0.01574 0.068332 0.13105 0.068332 0.13105h0.75244c0.25082 0.06757 0.22006 0.41925 0.22006 0.41925s-0.17707-0.27732-0.31824-0.27617c0 0-0.074613 0.1004-0.061864 0.24928h-0.3382l-1.9342-0.04619c-0.047813-0.0061-0.1463 0.11528-0.1463 0.11528 0.021759-0.13042-0.03869-0.21778-0.03869-0.21778-0.212-0.0021-0.26838 0.1569-0.26838 0.1569-0.1514-0.20713 0.13198-0.33319 0.13198-0.33319l0.5048 0.0248c0.030415-0.1432 0.34009-0.11019 0.34009-0.11019 0.025517-0.11966 0.42128-0.07307 0.42128-0.07307l0.27243-0.27243 0.69531-1.2043c0.0016627-0.5732-0.18726-1.0275-0.18726-1.0275l-0.55671-0.6957c-0.33717-0.40963-0.5697-1.5695-0.5697-1.5695-0.47193 0.053711-0.67278-1.0109-0.67278-1.0109-0.097078-0.57369-0.091317-1.5106 0-1.8411-0.011339-0.26565 0.54134-0.89675 0.54134-0.89675-0.12929-0.62979 0.44507-1.5994 0.44507-1.5994-0.048028-0.23545 0.17665-1.201 1.2232-1.5024h1.0703c0.1056-0.00329 0.20707 0.11248 0.35748 0.13143z" fill="#2e3440" filter="url(#filter13)" opacity=".30062" style="paint-order:markers fill stroke"/><path d="m8.1702 2.5118c0.48724 0.061394 1.8399-0.27802 1.981 0.32074-1.6327 0.32735-1.8357 1.1776-1.8736 1.4121-0.054239 0.33591 0.035307 0.6743 0.2409 0.91235 0.25067 0.29023 1.526 1.0594 1.6489 1.061-0.05717 0.098234-0.17085 0.10518-0.17085 0.10518 0.06402 5.739e-4 0.27419 0.15818 0.31632 0.19387 0 0-0.12924-0.00706-0.1275 0.027244 0.19034 0.18973 0.31105 0.40233 0.31105 0.40233-0.17978-0.026525-0.20782 0.063582-0.20782 0.063582 0.25877 0.24547 0.34539 0.48083 0.34539 0.48083-0.17486-0.02413-0.23231 0.048604-0.23231 0.048604s0.24357 0.20717 0.32841 0.44296c-0.17434-0.027107-0.22968 0.022156-0.22968 0.022156s0.8728 1.2977 0.42788 1.8482c0 0 0.33145 0.52797 0.40085 0.82605 0.04685 0.20126-0.02666 0.42462 0.0036 0.61993 0.02803 0.18128 0.07984 0.44534 0.2044 0.56942 0.4397 0.438 0.84838 0.78901 1.2365 1.4318-0.10285-0.03829-0.15588-2.76e-4 -0.15588-2.76e-4s0.2409 0.39263 0.20213 0.60012c-0.03964 0.2122-0.2004 0.46897-0.41435 0.49771-0.90013 0.12089-2.234-1.5598-2.234-1.5598l-0.03768 0.81364c0.12354 0.04414 0.11426 0.30815 0.11426 0.30815 0.23392 0.0391 0.19968 0.24804 0.19968 0.24804 0.13968 0.02588 0.04408 0.34206 0.04408 0.34206s-0.01931-0.1806-0.11102-0.18478l-0.71184 0.0088c0.02218 0.04644 0.01479 0.0923 0.01479 0.0923-0.08989 0.02376-0.26275 0.0053-0.32488-0.0022 0.01604-0.1923-0.12638-0.16508-0.12638-0.16508-0.07849 0.07845-0.12506 0.12161-0.20466 0.1082-0.07381-0.01243-0.14266-0.15843-0.14266-0.15843s-0.12867 0.01844-0.18943 0.22716c-0.12944-0.23332 0.10631-0.37853 0.126-0.3888 0.17623-0.09186 0.7837 0 0.7837 0-0.0096-0.14619 0.11228-0.24575 0.11228-0.24575 0.0024-0.10239 0.09235-0.09888 0.09235-0.09888-8.74e-4 -0.08847 0.07451-0.12177 0.07451-0.12177v-1.1342c-0.45186-0.42383-0.82437-0.82202-1.3662-1.0747-0.46277-0.2158-1.5417-0.34766-1.5417-0.34766 0.16931 0.31508 0.19732 0.35578 0.24557 0.55868 0.051591 0.21696 0.035746 0.57384-0.02437 0.65905-0.18645 0.26428-0.81086 1.1324-1.0906 1.5678 0.10592 0.02535 0.11085 0.11085 0.11085 0.11085 0.080098 0.01574 0.068332 0.13105 0.068332 0.13105h0.75244c0.25082 0.06757 0.22006 0.41925 0.22006 0.41925s-0.17707-0.27732-0.31824-0.27617c0 0-0.074613 0.1004-0.061864 0.24928h-0.3382l-1.9342-0.04619c-0.047813-0.0061-0.1463 0.11528-0.1463 0.11528 0.021759-0.13042-0.03869-0.21778-0.03869-0.21778-0.212-0.0021-0.26838 0.1569-0.26838 0.1569-0.1514-0.20713 0.13198-0.33319 0.13198-0.33319l0.5048 0.0248c0.030415-0.1432 0.34009-0.11019 0.34009-0.11019 0.025517-0.11966 0.42128-0.07307 0.42128-0.07307l0.27243-0.27243 0.69531-1.2043c0.0016627-0.5732-0.18726-1.0275-0.18726-1.0275l-0.55671-0.6957c-0.33717-0.40963-0.5697-1.5695-0.5697-1.5695-0.47193 0.053711-0.67278-1.0109-0.67278-1.0109-0.097078-0.57369-0.091317-1.5106 0-1.8411-0.011339-0.26565 0.54134-0.89675 0.54134-0.89675-0.12929-0.62979 0.44507-1.5994 0.44507-1.5994-0.048028-0.23545 0.17665-1.201 1.2232-1.5024h1.0703c0.1056-0.00329 0.20707 0.11248 0.35748 0.13143z" fill="url(#linearGradient12)" style="paint-order:markers fill stroke"/></svg>
