<svg width="64" height="64" version="1.1" viewBox="0 0 16.933 16.933" xmlns="http://www.w3.org/2000/svg">
 <defs>
  <filter id="filter1178" x="-.047999" y="-.047999" width="1.096" height="1.096" color-interpolation-filters="sRGB">
   <feGaussianBlur stdDeviation="0.30691668"/>
  </filter>
  <linearGradient id="linearGradient1340" x1="8.6555" x2="8.6435" y1="15.628" y2="1.2644" gradientUnits="userSpaceOnUse">
   <stop stop-color="#81a1c1" offset="0"/>
   <stop stop-color="#81a1c1" stop-opacity=".7" offset="1"/>
  </linearGradient>
  <linearGradient id="linearGradient2606" x1="8.1158" x2="8.1158" y1="4.312" y2="12.331" gradientUnits="userSpaceOnUse">
   <stop stop-color="#eceff4" offset="0"/>
   <stop stop-color="#d8dee9" offset="1"/>
  </linearGradient>
  <filter id="filter2900" x="-.079678" y="-.070841" width="1.1594" height="1.1417" color-interpolation-filters="sRGB">
   <feGaussianBlur stdDeviation="0.26271703"/>
  </filter>
 </defs>
 <g stroke-linecap="round" stroke-linejoin="round">
  <rect transform="matrix(.99138 0 0 1 .072989 .0019055)" x=".79375" y=".90545" width="15.346" height="15.346" rx="3.0526" ry="3.0526" fill="#000000" filter="url(#filter1178)" opacity=".15" stroke-width="1.2489" style="mix-blend-mode:normal"/>
  <rect x=".92604" y=".92604" width="15.081" height="15.081" rx="3" ry="3" fill="#d8dee9" stroke-width="1.2274"/>
  <rect x=".01215" y=".0060174" width="16.924" height="16.927" fill="none" opacity=".15" stroke-width="1.052"/>
  <rect x=".92604" y=".92604" width="15.081" height="15.081" rx="3" ry="3" fill="url(#linearGradient1340)" stroke-width="1.2274"/>
 </g>
 <g transform="translate(.5174 .10775)" stroke-width=".046673">
  <path d="m8.2834 12.561v-0.44554l-1.3768 0.0138-0.02446-3.1834h1.4322l2.6996 4.0372h1.6335l-0.0054-0.84012-1.0861-0.04668-0.17959-0.2567c-0.0989-0.14106-0.42211-0.61362-0.71837-1.05-0.29635-0.43646-0.72166-1.0616-0.94523-1.3893-0.34686-0.50837-0.39421-0.59993-0.3228-0.62412 0.046025-0.015587 0.25781-0.11081 0.47064-0.21159 1.0639-0.50382 1.593-1.6627 1.2778-2.7992-0.1139-0.41077-0.27794-0.67885-0.58979-0.96386-0.66686-0.60947-1.6047-0.80349-3.0819-0.63759-0.41072 0.046125-1.0198 0.083651-1.3535 0.083401-0.5268-4.206e-4 -0.75468-0.02456-1.2718-0.13482-0.10238-0.021827-0.10502-0.012492-0.10502 0.37151 0 0.45656-0.080219 0.40206 0.7351 0.49935l0.4784 0.057082v7.1231l-1.1902-0.0138-0.013765 0.36581c-0.00761 0.2012-3e-3 0.39392 0.010233 0.42828 0.019431 0.05064 0.35567 0.06247 1.7757 0.06247h1.7517zm-1.4002-5.9636v-1.5583l0.52781-0.053512c1.6993-0.17228 2.5274 0.13368 2.7635 1.0211 0.19611 0.73694-0.037976 1.3846-0.63192 1.7484-0.45286 0.27737-0.83929 0.35883-1.8076 0.38106l-0.85178 0.019556z" fill="#2e3440" filter="url(#filter2900)" opacity=".25"/>
  <path d="m7.9867 12.166v-0.44554l-1.3768 0.0138-0.02446-3.1834h1.4322l2.6996 4.0372h1.6335l-0.0054-0.84012-1.0861-0.04668-0.17959-0.2567c-0.0989-0.14106-0.42211-0.61362-0.71837-1.05-0.29635-0.43646-0.72166-1.0616-0.94523-1.3893-0.34686-0.50837-0.39421-0.59993-0.3228-0.62412 0.046025-0.015587 0.25781-0.11081 0.47064-0.21159 1.0639-0.50382 1.593-1.6627 1.2778-2.7992-0.1139-0.41077-0.27794-0.67885-0.58979-0.96386-0.66686-0.60947-1.6047-0.80349-3.0819-0.63759-0.41072 0.046125-1.0198 0.083651-1.3535 0.083401-0.5268-4.206e-4 -0.75468-0.02456-1.2718-0.13482-0.10238-0.021827-0.10502-0.012492-0.10502 0.37151 0 0.45656-0.080219 0.40206 0.7351 0.49935l0.4784 0.057082v7.1231l-1.1902-0.0138-0.013765 0.36581c-0.00761 0.2012-3e-3 0.39392 0.010233 0.42828 0.019431 0.05064 0.35567 0.06247 1.7757 0.06247h1.7517zm-1.4002-5.9636v-1.5583l0.52781-0.053512c1.6993-0.17228 2.5274 0.13368 2.7635 1.0211 0.19611 0.73694-0.037975 1.3846-0.63192 1.7484-0.45286 0.27737-0.83929 0.35883-1.8076 0.38106l-0.85178 0.019556z" fill="url(#linearGradient2606)"/>
 </g>
</svg>
