<svg width="64" height="64" version="1.1" viewBox="0 0 16.933 16.933" xmlns="http://www.w3.org/2000/svg">
 <defs>
  <filter id="filter1178" x="-.047999" y="-.047999" width="1.096" height="1.096" color-interpolation-filters="sRGB">
   <feGaussianBlur stdDeviation="0.30691668"/>
  </filter>
  <linearGradient id="linearGradient862" x1="8.355" x2="8.2882" y1="15.341" y2="1.2959" gradientTransform="translate(-4.0142e-5)" gradientUnits="userSpaceOnUse">
   <stop stop-color="#97b67c" offset="0"/>
   <stop stop-color="#a3be8c" offset="1"/>
  </linearGradient>
  <linearGradient id="linearGradient24178" x1="5.5892" x2="5.6031" y1="1.3764" y2="15.383" gradientUnits="userSpaceOnUse">
   <stop stop-color="#eceff4" offset="0"/>
   <stop stop-color="#d8dee9" offset="1"/>
  </linearGradient>
  <filter id="filter24536" x="-.18403" y="-.076426" width="1.3681" height="1.1529" color-interpolation-filters="sRGB">
   <feGaussianBlur stdDeviation="0.46724466"/>
  </filter>
 </defs>
 <g stroke-linecap="round" stroke-linejoin="round">
  <rect transform="matrix(.99138 0 0 1 .072989 .0019055)" x=".79375" y=".90545" width="15.346" height="15.346" rx="3.0526" ry="3.0526" fill="#000000" filter="url(#filter1178)" opacity=".15" stroke-width="1.2489" style="mix-blend-mode:normal"/>
  <rect x=".926" y=".92604" width="15.081" height="15.081" rx="3" ry="3" fill="url(#linearGradient862)" stroke-width="1.2274"/>
  <rect x=".01215" y=".0060174" width="16.924" height="16.927" fill="none" opacity=".15" stroke-width="1.052"/>
  <rect x=".92604" y="4.3578" width="15.081" height="2.4309" fill="#2e3440" stroke-width=".058855"/>
 </g>
 <style type="text/css">.st0{fill-rule:evenodd;clip-rule:evenodd;}</style>
 <path class="st0" d="m2.1043 8.0116h0.84705v2.8579h-0.84705zm10.583 0h0.42352v2.8579h-0.42352zm-0.93196 0h0.21228v2.8579h-0.21228zm-4.3667 0h0.60474v2.8579h-0.60474zm-1.1743 0h0.45355v2.8579h-0.45355zm-2.5432 0h0.25681v2.8579h-0.25681zm10.159 0h0.99823v2.8579h-0.99823zm-3.5508 0h0.75696v2.8579h-0.75696zm-1.5667 0h0.84705v2.8579h-0.84705zm-4.0654 0h0.84705v2.8579h-0.84705z" opacity=".4" stroke-width=".06614"/>
 <text transform="scale(.91362 1.0945)" x="2.0583134" y="13.47863" fill="#eceff4" font-family="sans-serif" font-size="2.5076px" letter-spacing="0px" opacity=".6" stroke-width=".21478" word-spacing="0px" style="line-height:1.25" xml:space="preserve"><tspan x="2.0583134" y="13.47863" fill="#eceff4" font-family="sans-serif" font-weight="bold" stroke-width=".21478">* * * * * * *</tspan></text>
 <path d="m6.4459 2.5623c0 0.30805-0.24972 0.55777-0.55777 0.55777-0.30805-1e-7 -0.55777-0.24972-0.55777-0.55777s0.24972-0.55777 0.55777-0.55777c0.30805 2e-7 0.55777 0.24972 0.55777 0.55777zm-0.57444-1.3877c-1.6828 4.1e-6 -3.0469 1.5325-3.0468 3.4229 9.276e-4 1.4436 0.80807 2.7313 2.0176 3.2189v8.031h0.96869l0.85801-1.4981c-6.7e-6 -8e-6 1.61e-5 -4.18e-4 0-4.35e-4l0.00177-0.0035h-0.00396c-0.013551-0.01677-0.081484-0.10815-0.081484-0.26625 0-0.07836 0.1024-0.16173 0.1024-0.26712 0-0.08473 0.12942-0.21137 0.12942-0.3107 0-0.08747-0.029194-0.16797-0.029194-0.26494 0-0.08888-0.24315-0.12811-0.24315-0.22354 0-0.08982 0.051852-0.22579 0.051852-0.32028 0-0.09051 0.1804-0.20556 0.1804-0.29936 0-0.09119 0.028325-0.07355 0.028325-0.1669 0-0.09162 0.040957-0.20607 0.040957-0.29893 0-0.09211-0.15905-0.26221-0.15905-0.35471 0-0.09243-0.019176-0.20645-0.019176-0.29849 0-0.09276-0.12724-0.06408-0.12724-0.15556 0-0.09345 0.27322-0.24954 0.27322-0.34076 0-0.094 0.00438-0.18952 0.00438-0.28019 0-0.09452-0.2767-0.18906-0.2767-0.27888 0-0.09557 0.20393-0.17379 0.20393-0.26276 0-0.096971-0.21527-0.16919-0.21527-0.25666 0-0.099387 0.13291-0.16013 0.13291-0.2449 0-0.10542 0.094995-0.20665 0.094995-0.28498 0-0.13119-0.019142-0.24474-0.028764-0.2937h0.44055v-1.1835c1.0668-0.5646 1.7477-1.77 1.7483-3.0947 7.51e-5 -1.8904-1.364-3.4229-3.0468-3.4229z" fill="#2e3440" filter="url(#filter24536)" opacity=".4" stroke-linecap="round" stroke-linejoin="round" stroke-width=".065341"/>
 <path d="m6.2299 2.5006c0 0.30805-0.24972 0.55777-0.55777 0.55777-0.30805-1e-7 -0.55777-0.24972-0.55777-0.55777s0.24972-0.55777 0.55777-0.55777c0.30805 2e-7 0.55777 0.24972 0.55777 0.55777zm-0.57444-1.3877c-1.6828 4.1e-6 -3.0469 1.5325-3.0468 3.4229 9.276e-4 1.4436 0.80807 2.7313 2.0176 3.2189v8.031h0.96869l0.85801-1.4981c-6.7e-6 -8e-6 1.61e-5 -4.18e-4 0-4.35e-4l0.00177-0.0035h-0.00396c-0.013551-0.01677-0.081484-0.10815-0.081484-0.26625 0-0.07836 0.1024-0.16173 0.1024-0.26712 0-0.08473 0.12942-0.21137 0.12942-0.3107 0-0.08747-0.029194-0.16797-0.029194-0.26494 0-0.08888-0.24315-0.12811-0.24315-0.22354 0-0.08982 0.051852-0.22579 0.051852-0.32028 0-0.09051 0.1804-0.20556 0.1804-0.29936 0-0.09119 0.028325-0.07355 0.028325-0.1669 0-0.09162 0.040957-0.20607 0.040957-0.29893 0-0.09211-0.15905-0.26221-0.15905-0.35471 0-0.09243-0.019176-0.20645-0.019176-0.29849 0-0.09276-0.12724-0.06408-0.12724-0.15556 0-0.09345 0.27322-0.24954 0.27322-0.34076 0-0.094 0.00438-0.18952 0.00438-0.28019 0-0.09452-0.2767-0.18906-0.2767-0.27888 0-0.09557 0.20393-0.17379 0.20393-0.26276 0-0.096971-0.21527-0.16919-0.21527-0.25666 0-0.099387 0.13291-0.16013 0.13291-0.2449 0-0.10542 0.094995-0.20665 0.094995-0.28498 0-0.13119-0.019142-0.24474-0.028764-0.2937h0.44055v-1.1835c1.0668-0.5646 1.7477-1.77 1.7483-3.0947 7.51e-5 -1.8904-1.364-3.4229-3.0468-3.4229z" fill="url(#linearGradient24178)" stroke-linecap="round" stroke-linejoin="round" stroke-width=".065341"/>
 <rect x="4.8765" y="8.9287" width=".24825" height="6.857" fill="#2e3440" opacity=".4"/>
 <rect x="6.6078" y="8.08" width=".19994" height=".73399" fill="#2e3440" opacity=".4"/>
</svg>
