<svg id="svg136" width="64" height="64" version="1.1" viewBox="0 0 16.933 16.933" xmlns="http://www.w3.org/2000/svg">
 <defs id="defs62">
  <linearGradient id="d" x1="16.933" x2="16.933" y1="291.12" y2="268.25" gradientTransform="matrix(.37026 0 0 .37026 2.1969 -95.086)" gradientUnits="userSpaceOnUse">
   <stop id="stop2" stop-color="#81a1c1" offset="0"/>
   <stop id="stop4" stop-color="#5e81ac" style="stop-color:#b48ead" offset="1"/>
  </linearGradient>
  <linearGradient id="e" x1="16.933" x2="16.933" y1="288.26" y2="272.06" gradientTransform="matrix(.37026 0 0 .37026 2.197 -95.086)" gradientUnits="userSpaceOnUse">
   <stop id="stop7" stop-color="#e5e5e5" offset="0"/>
   <stop id="stop9" stop-color="#f1f1f1" offset="1"/>
  </linearGradient>
  <linearGradient id="f" x1="47.902" x2="47.902" y1="1016.9" y2="991.52" gradientTransform="matrix(.0679 0 0 .0679 -12.692 -12.307)" gradientUnits="userSpaceOnUse">
   <stop id="stop12" stop-color="#fff" offset="0"/>
   <stop id="stop14" stop-color="#fff" stop-opacity="0" offset="1"/>
  </linearGradient>
  <linearGradient id="g" x1="48.543" x2="48.543" y1="1016.1" y2="993.68" gradientTransform="matrix(.0679 0 0 .0679 -12.692 -12.307)" gradientUnits="userSpaceOnUse">
   <stop id="stop17" stop-color="#d6d6d6" offset="0"/>
   <stop id="stop19" stop-color="#d0d0d0" offset="1"/>
  </linearGradient>
  <linearGradient id="h" x1="31.807" x2="31.807" y1="26.918" y2="36.986" gradientTransform="matrix(.26459 0 0 .26459 0 .004)" gradientUnits="userSpaceOnUse">
   <stop id="stop22" stop-color="#3b4252" offset="0"/>
   <stop id="stop24" stop-color="#2e3440" stop-opacity=".50196" offset="1"/>
  </linearGradient>
  <linearGradient id="i" x1="299.74" x2="323.46" y1="304.59" y2="304.59" gradientTransform="matrix(.06694 0 0 .06643 -12.391 -11.497)" gradientUnits="userSpaceOnUse">
   <stop id="stop27" stop-color="#2e3440" offset="0"/>
   <stop id="stop29" stop-color="#2e3440" offset=".167"/>
   <stop id="stop31" stop-color="#3b4252" offset=".506"/>
   <stop id="stop33" stop-color="#2e3440" offset=".833"/>
   <stop id="stop35" stop-color="#2e3440" offset="1"/>
  </linearGradient>
  <linearGradient id="a" x1="8.587" x2="8.587" y1="15.747" y2="1.097" gradientTransform="matrix(1.0178 0 0 1.0178 -.15083 -.14268)" gradientUnits="userSpaceOnUse">
   <stop id="stop38" stop-color="#2e3440" offset="0"/>
   <stop id="stop40" stop-color="#4c566a" offset="1"/>
  </linearGradient>
  <linearGradient id="b" x1="8.379" x2="8.379" y1="13.822" y2="3.406" gradientUnits="userSpaceOnUse">
   <stop id="stop43" stop-color="#eceff4" offset="0"/>
   <stop id="stop45" stop-color="#eceff4" offset="1"/>
  </linearGradient>
  <radialGradient id="c" cx="259.52" cy="558.97" r="34" gradientTransform="matrix(.1323 0 0 .1323 -25.866 -65.48)" gradientUnits="userSpaceOnUse">
   <stop id="stop48" stop-color="#65257e" style="stop-color:#b48ead" offset="0"/>
   <stop id="stop50" stop-color="#2e3440" offset=".724"/>
   <stop id="stop52" stop-color="#81a1c1" style="stop-color:#b48ead" offset=".801"/>
   <stop id="stop54" stop-color="#81a1c1" style="stop-color:#b48ead" offset=".94099998"/>
   <stop id="stop56" stop-color="#2e3440" offset="1"/>
  </radialGradient>
  <filter id="filter1178" x="-.047999482" y="-.047999482" width="1.095999" height="1.095999" color-interpolation-filters="sRGB">
   <feGaussianBlur id="feGaussianBlur59" stdDeviation="0.30691668"/>
  </filter>
 </defs>
 <g id="g66" transform="translate(-.00025546 -.11386)">
  <rect id="rect64" transform="matrix(.99138 0 0 1 .072989 .0019055)" x=".79375" y=".90545" width="15.346" height="15.346" rx="3.0526" ry="3.0526" fill="#000000" filter="url(#filter1178)" opacity=".15" stroke-linecap="round" stroke-linejoin="round" stroke-width="1.2489" style="mix-blend-mode:normal"/>
 </g>
 <rect id="rect68" x=".92602" y=".92602" width="15.081" height="15.081" rx="3.0536" ry="3.0535" fill="url(#a)" stroke-width="1.0178"/>
 <g id="g88" stroke-width=".359">
  <rect id="rect70" x="2.646" y="3.144" width="11.642" height="11.642" rx="5.821" ry="5.821" opacity=".037"/>
  <rect id="rect72" x="2.646" y="2.91" width="11.642" height="11.642" rx="5.821" ry="5.821" opacity=".063"/>
  <rect id="rect74" x="3.969" y="4.232" width="8.996" height="8.996" rx="4.498" ry="4.498" opacity=".25"/>
  <rect id="rect76" x="4.022" y="4.284" width="8.89" height="8.89" rx="4.445" ry="4.445" opacity=".25"/>
  <rect id="rect78" x="4.022" y="4.284" width="8.89" height="8.89" rx="4.445" ry="4.445" opacity=".087"/>
  <rect id="rect80" x="5.027" y="5.291" width="6.879" height="6.879" rx="3.44" ry="3.44" opacity=".25"/>
  <rect id="rect82" x="6.643" y="6.905" width="3.647" height="3.647" rx="1.823" ry="1.823" opacity=".25"/>
  <rect id="rect84" x="6.784" y="7.046" width="3.366" height="3.366" rx="1.683" ry="1.683" opacity=".25"/>
  <rect id="rect86" x="6.615" y="6.88" width="3.704" height="3.704" rx="1.852" ry="1.852" opacity=".25"/>
 </g>
 <path id="path90" d="m8.467 6.878c-1.026 0-1.852 0.826-1.852 1.852s0.826 1.852 1.852 1.852 1.852-0.826 1.852-1.852-0.826-1.852-1.852-1.852zm0 0.057c0.994 0 1.795 0.8 1.795 1.795 0 0.994-0.8 1.795-1.795 1.795a1.79 1.79 0 0 1-1.795-1.795c0-0.995 0.8-1.795 1.795-1.795z" opacity=".087"/>
 <path id="path92" d="m7.808 6.084a0.134 0.134 0 0 0-0.135 0.134v1.457l0.526 0.512-0.526 0.512v2.543c0 0.074 0.06 0.134 0.135 0.134h1.318c0.075 0 0.135-0.06 0.135-0.134v-1.468l-0.53-0.515 0.53-0.515v-2.526a0.134 0.134 0 0 0-0.135-0.134z" opacity=".25"/>
 <g id="g110" stroke-width=".359">
  <rect id="rect94" x="2.646" y="2.77" width="11.642" height="11.642" rx="5.821" ry="5.821" opacity=".175"/>
  <rect id="rect96" x="3.969" y="4.092" width="8.996" height="8.996" rx="4.498" ry="4.498" opacity=".35"/>
  <rect id="rect98" x="4.022" y="4.144" width="8.89" height="8.89" rx="4.445" ry="4.445" opacity=".35"/>
  <rect id="rect100" x="4.022" y="4.144" width="8.89" height="8.89" rx="4.445" ry="4.445" opacity=".122"/>
  <rect id="rect102" x="5.027" y="5.151" width="6.879" height="6.879" rx="3.44" ry="3.44" opacity=".35"/>
  <rect id="rect104" x="6.643" y="6.765" width="3.647" height="3.647" rx="1.823" ry="1.823" opacity=".35"/>
  <rect id="rect106" x="6.784" y="6.906" width="3.366" height="3.366" rx="1.683" ry="1.683" opacity=".35"/>
  <rect id="rect108" x="6.615" y="6.739" width="3.704" height="3.704" rx="1.852" ry="1.852" opacity=".35"/>
 </g>
 <path id="path112" d="m8.467 6.738c-1.026 0-1.852 0.826-1.852 1.852s0.826 1.852 1.852 1.852 1.852-0.826 1.852-1.852-0.826-1.852-1.852-1.852zm0 0.056c0.994 0 1.795 0.801 1.795 1.796 0 0.994-0.8 1.795-1.795 1.795a1.79 1.79 0 0 1-1.795-1.795c0-0.995 0.8-1.796 1.795-1.796z" opacity=".122"/>
 <path id="path114" d="m7.808 5.944a0.134 0.134 0 0 0-0.135 0.134v1.456l0.526 0.513-0.526 0.512v2.542c0 0.075 0.06 0.135 0.135 0.135h1.318c0.075 0 0.135-0.06 0.135-0.135v-1.467l-0.53-0.515 0.53-0.515v-2.526a0.134 0.134 0 0 0-0.135-0.134z" opacity=".35"/>
 <g id="g130" stroke-width=".37">
  <rect id="rect116" x="2.646" y="2.651" width="11.642" height="11.642" rx="5.821" ry="5.821" fill="url(#b)"/>
  <rect id="rect118" x="4.022" y="4.025" width="8.89" height="8.89" rx="4.445" ry="4.445" fill="url(#c)"/>
  <rect id="rect120" x="4.0219" y="4.025" width="8.8901" height="8.89" rx="4.445" ry="4.445" fill="url(#d)" opacity=".35"/>
  <rect id="rect122" x="5.027" y="5.032" width="6.879" height="6.879" rx="3.44" ry="3.44" fill="url(#e)"/>
  <rect id="rect124" x="6.643" y="6.646" width="3.647" height="3.647" rx="1.823" ry="1.823" fill="url(#f)"/>
  <rect id="rect126" x="6.784" y="6.787" width="3.366" height="3.366" rx="1.683" ry="1.683" fill="url(#g)"/>
  <rect id="rect128" x="6.615" y="6.62" width="3.704" height="3.704" rx="1.852" ry="1.852" fill="#d8dee9"/>
 </g>
 <path id="path132" d="m8.467 6.619c-1.026 0-1.852 0.826-1.852 1.852s0.826 1.852 1.852 1.852 1.852-0.826 1.852-1.852-0.826-1.852-1.852-1.852zm0 0.056c0.994 0 1.795 0.801 1.795 1.796 0 0.994-0.8 1.795-1.795 1.795a1.79 1.79 0 0 1-1.795-1.795c0-0.995 0.8-1.796 1.795-1.796z" fill="url(#h)" opacity=".35"/>
 <path id="path134" d="m7.808 5.825a0.134 0.134 0 0 0-0.135 0.134v1.456l0.526 0.512-0.526 0.513v2.542c0 0.075 0.06 0.135 0.135 0.135h1.318c0.075 0 0.135-0.06 0.135-0.135v-1.467l-0.531-0.515 0.53-0.515v-2.526a0.134 0.134 0 0 0-0.135-0.134z" fill="url(#i)"/>
</svg>
