<?xml version="1.0" encoding="UTF-8"?>
<svg width="64" height="64" version="1.1" viewBox="0 0 16.933 16.933" xml:space="preserve" xmlns="http://www.w3.org/2000/svg"><defs><filter id="filter1178" x="-.047999" y="-.047999" width="1.096" height="1.096" color-interpolation-filters="sRGB"><feGaussianBlur stdDeviation="0.30691668"/></filter></defs><g stroke-linecap="round" stroke-linejoin="round"><rect transform="matrix(.99138 0 0 1 .072989 .0019055)" x=".79375" y=".90545" width="15.346" height="15.346" rx="3.0526" ry="3.0526" filter="url(#filter1178)" opacity=".15" stroke-width="1.2489" style="mix-blend-mode:normal"/><g stroke-width="1.2274"><path d="m6.1373 16.007h-2.2112c-1.662 0-3-1.338-3-3v-9.081c0-1.662 1.338-3 3-3l2.2112-1e-8" fill="#2e3440"/><path d="m7.1956 16.007h-1.0583" fill="#88c0d0"/><path d="m7.1956 0.92604 5.8115 1e-8c1.662 0 3 1.338 3 3v9.081c0 1.662-1.338 3-3 3h-5.8115" fill="#2e3440"/><path d="m6.1373 0.92604h1.0583" fill="#88c0d0"/></g><rect x=".01215" y=".0060174" width="16.924" height="16.927" fill="none" opacity=".15" stroke-width="1.052"/><g stroke-width="1.2274"><path d="m5.0789 14.949h-2.7404c-0.82208 0-1.4107-1.2952-1.4125-1.9417v-9.081c0-1.662 1.4125-1.9417 1.4125-1.9417h2.7404" fill="#8fbcbb"/><path d="m8.2539 1.9844h5.8115c1.662 0 1.9417 1.2446 1.9417 1.9417v9.081c0 0.72125-0.27969 1.9417-1.9417 1.9417h-5.8115" fill="#8fbcbb"/><path d="m8.2539 1.9844h5.8115c1.662 0 1.9417 1.2446 1.9417 1.9417v9.081c0 0.72125-0.27969 1.9417-1.9417 1.9417h-5.8115" fill="#2e3440" opacity=".2"/><path d="m5.0789 14.949h-2.7404c-0.82208 0-1.4107-1.2952-1.4125-1.9417v-9.081c0-1.662 1.4125-1.9417 1.4125-1.9417h2.7404" fill="#2e3440" opacity=".2"/></g></g></svg>
