<svg width="64" height="64" version="1.1" viewBox="0 0 16.933 16.933" xmlns="http://www.w3.org/2000/svg">
 <defs>
  <filter id="filter1178" x="-.047999" y="-.047999" width="1.096" height="1.096" color-interpolation-filters="sRGB">
   <feGaussianBlur stdDeviation="0.30691668"/>
  </filter>
  <linearGradient id="linearGradient1340" x1="8.6644" x2="8.6644" y1="15.931" y2=".79375" gradientUnits="userSpaceOnUse">
   <stop stop-color="#5e81ac" offset="0"/>
   <stop stop-color="#88c0d0" offset="1"/>
  </linearGradient>
  <linearGradient id="linearGradient1980" x1="8.2204" x2="8.2204" y1="3.1552" y2="13.43" gradientTransform="translate(.19014 .14158)" gradientUnits="userSpaceOnUse">
   <stop stop-color="#eceff4" offset="0"/>
   <stop stop-color="#d8dee9" offset="1"/>
  </linearGradient>
 </defs>
 <g stroke-linecap="round" stroke-linejoin="round">
  <rect transform="matrix(.99138 0 0 1 .072989 .0019055)" x=".79375" y=".90545" width="15.346" height="15.346" rx="3.0526" ry="3.0526" fill="#000000" filter="url(#filter1178)" opacity=".15" stroke-width="1.2489" style="mix-blend-mode:normal"/>
  <rect x=".92604" y=".92604" width="15.081" height="15.081" rx="3" ry="3" fill="url(#linearGradient1340)" stroke-width="1.2274"/>
  <rect x=".01215" y=".0060174" width="16.924" height="16.927" fill="none" opacity=".15" stroke-width="1.052"/>
 </g>
 <path d="m7.4477 3.436 0.1163 0.47111a4.7052 4.7052 0 0 0-1.3014 0.53883l-0.24881-0.41664a5.1174 5.1174 0 0 1 1.4339-0.59331zm2.4881 0-0.1163 0.47111a4.7052 4.7052 0 0 1 1.3014 0.53883l0.25175-0.41664a5.1542 5.1542 0 0 0-1.4369-0.59331zm-5.6813 2.3511a5.1454 5.1454 0 0 0-0.59331 1.4354l0.47111 0.1163a4.7052 4.7052 0 0 1 0.53883-1.3014zm-0.25911 2.6794a4.689 4.689 0 0 1 0.053001-0.70372l-0.47994-0.073612a5.1822 5.1822 0 0 0 0 1.5532l0.47994-0.07213a4.7037 4.7037 0 0 1-0.053001-0.70372zm7.3744 4.4358-0.2488-0.41517a4.6787 4.6787 0 0 1-1.3 0.53883l0.1163 0.47111a5.1572 5.1572 0 0 0 1.4325-0.59478zm2.0184-4.4358a4.7037 4.7037 0 0 1-0.053 0.70372l0.47994 0.07213a5.1822 5.1822 0 0 0 0-1.5532l-0.47994 0.073617a4.689 4.689 0 0 1 0.053 0.70372zm0.33419 1.2426-0.47111-0.1163a4.6964 4.6964 0 0 1-0.53883 1.3029l0.41664 0.25028a5.1366 5.1366 0 0 0 0.5933-1.4369zm-4.3269 3.4008a4.6979 4.6979 0 0 1-1.4074 0l-0.072143 0.47995a5.1719 5.1719 0 0 0 1.5517 0zm3.0769-1.8579a4.6831 4.6831 0 0 1-0.99522 0.99375l0.28856 0.39161a5.2279 5.2279 0 0 0 1.0983-1.0939zm-0.99522-6.5661a4.6905 4.6905 0 0 1 0.99522 0.99522l0.39161-0.2915a5.2205 5.2205 0 0 0-1.0953-1.0953zm-6.5661 0.99522a4.6905 4.6905 0 0 1 0.99522-0.99522l-0.2915-0.39161a5.2205 5.2205 0 0 0-1.0953 1.0953zm8.2179 0.106-0.41664 0.25028a4.6787 4.6787 0 0 1 0.53883 1.3l0.47111-0.1163a5.1366 5.1366 0 0 0-0.5933-1.4339zm-5.141-1.9639a4.6979 4.6979 0 0 1 1.4074 0l0.072143-0.47994a5.1719 5.1719 0 0 0-1.5517 0zm-2.8281 8.9437-1.0026 0.23261 0.23408-1.0026-0.47258-0.11042-0.23408 1.0026a0.48583 0.48583 0 0 0 0.36217 0.58447 0.50792 0.50792 0 0 0 0.22083 0l1.0026-0.23114zm-1.141-1.3132 0.47406 0.10894 0.16194-0.69489a4.6552 4.6552 0 0 1-0.52264-1.2749l-0.47111 0.1163a5.2014 5.2014 0 0 0 0.477 1.2322zm2.2672 1.0512-0.69489 0.16195 0.11042 0.47405 0.51086-0.11925a5.1381 5.1381 0 0 0 1.2322 0.477l0.1163-0.47111a4.6625 4.6625 0 0 1-1.2705-0.52558zm2.4056-8.2489c-2.3261 0.001471-4.2091 1.8874-4.2091 4.212 0.00128 0.79178 0.22524 1.5672 0.6463 2.2378l-0.40486 1.7284 1.7269-0.40486c1.9684 1.2381 4.5683 0.64778 5.8064-1.3191 1.2381-1.9669 0.64925-4.5668-1.3176-5.8064-0.705-0.47446-1.9078-0.65755-2.2481-0.64778z" fill="url(#linearGradient1980)" stroke-width=".014722"/>
</svg>
