<svg width="64" height="64" version="1.1" xmlns="http://www.w3.org/2000/svg">
 <defs>
  <linearGradient id="b" x1="13.784" x2="13.784" y1=".403" y2="23.336" gradientTransform="matrix(1.7082 0 0 1.7082 11.433 11.433)" gradientUnits="userSpaceOnUse">
   <stop stop-color="#eceff4" offset="0"/>
   <stop stop-color="#d8dee9" offset="1"/>
  </linearGradient>
  <linearGradient id="a" x1="7.937" x2="7.937" y1="15.081" y2="1.852" gradientTransform="matrix(3.847 0 0 3.847 -.57128 -.53973)" gradientUnits="userSpaceOnUse">
   <stop stop-color="#5e81ac" offset="0"/>
   <stop stop-color="#81a1c1" offset="1"/>
  </linearGradient>
  <filter id="filter2039" x="-.071333" y="-.076916" width="1.1427" height="1.1538" color-interpolation-filters="sRGB">
   <feGaussianBlur stdDeviation="1.2225902"/>
  </filter>
  <filter id="filter1178" x="-.047999" y="-.047999" width="1.096" height="1.096" color-interpolation-filters="sRGB">
   <feGaussianBlur stdDeviation="0.30691668"/>
  </filter>
 </defs>
 <g transform="matrix(3.7796 0 0 3.7796 -.00096588 -.43033)">
  <rect transform="matrix(.99138 0 0 1 .072989 .0019055)" x=".79375" y=".90545" width="15.346" height="15.346" rx="3.0526" ry="3.0526" filter="url(#filter1178)" opacity=".15" stroke-linecap="round" stroke-linejoin="round" stroke-width="1.2489" style="mix-blend-mode:normal"/>
 </g>
 <rect x="3.5" y="3.5" width="57" height="57" rx="11.339" ry="11.339" fill="url(#a)" stroke-width="1.0178"/>
 <path d="m50.772 36.111a9.678 9.678 0 0 1 1.332 2.69c0.308 0.974 0.463 1.982 0.463 3.026 0 1.494-0.302 2.898-0.9 4.214a11.19 11.19 0 0 1-2.477 3.473 11.635 11.635 0 0 1-3.685 2.342 11.802 11.802 0 0 1-4.463 0.845c-2.243 0-4.255-0.53-6.04-1.587-0.496 0.069-0.995 0.118-1.498 0.156-0.506 0.034-1.007 0.048-1.507 0.048-2.62 0-5.08-0.47-7.381-1.406-2.296-0.941-4.307-2.22-6.039-3.847a17.706 17.706 0 0 1-4.069-5.721c-0.99-2.188-1.483-4.527-1.483-7.012 0-0.482 0.024-0.94 0.075-1.364 0.046-0.423 0.11-0.855 0.175-1.288-1.23-1.706-1.842-3.54-1.842-5.505a9.78 9.78 0 0 1 0.902-4.144 10.424 10.424 0 0 1 2.47-3.386c1.052-0.96 2.284-1.715 3.683-2.269 1.403-0.553 2.89-0.823 4.466-0.823 1.134 0 2.198 0.133 3.21 0.405 1.01 0.275 1.957 0.658 2.83 1.158 0.494-0.07 1-0.12 1.498-0.159 0.506-0.03 1.011-0.05 1.505-0.05 2.629 0 5.097 0.459 7.405 1.369 2.303 0.904 4.318 2.156 6.05 3.744a17.802 17.802 0 0 1 4.088 5.543c0.988 2.105 1.481 4.363 1.481 6.768 2e-3 0.887-0.08 1.814-0.25 2.78zm-9.73 5.47c0.81-1.066 1.21-2.318 1.21-3.757 0-1.132-0.226-2.084-0.67-2.856-0.463-0.769-1.116-1.413-1.958-1.927-0.774-0.499-1.78-0.941-3.012-1.337-1.238-0.311-2.552-0.615-3.94-0.926l-1.523-0.347c-0.408-0.087-0.732-0.16-0.977-0.227a7.288 7.288 0 0 1-0.761-0.227c-0.226-0.08-0.465-0.175-0.704-0.277a3.583 3.583 0 0 1-1.164-0.77c-0.239-0.269-0.358-0.63-0.358-1.077 0-0.654 0.39-1.238 1.163-1.756 0.876-0.483 1.947-0.716 3.22-0.7 1.47 0 2.504 0.217 3.087 0.652a5.532 5.532 0 0 1 1.649 1.903c0.343 0.55 0.692 0.96 1.052 1.23 0.343 0.263 0.82 0.404 1.42 0.423 0.674 0 1.233-0.224 1.703-0.675 0.46-0.42 0.68-0.893 0.668-1.426 0-0.617-0.175-1.223-0.516-1.807-0.338-0.549-0.907-1.133-1.691-1.753a10.165 10.165 0 0 0-2.879-1.325 14.026 14.026 0 0 0-1.904-0.376c-0.67-0.084-1.401-0.123-2.21-0.123-2.04 0-3.76 0.25-5.162 0.748-1.504 0.52-2.644 1.233-3.416 2.16-0.772 0.88-1.158 1.94-1.158 3.176 0 1.302 0.374 2.361 1.112 3.178 0.743 0.883 1.75 1.55 3.022 2.004 1.21 0.483 2.755 0.907 4.651 1.272 0.71 0.168 1.33 0.31 1.878 0.417 0.54 0.106 1.03 0.227 1.458 0.359 0.808 0.22 1.464 0.589 1.965 1.113 0.535 0.455 0.803 1.039 0.803 1.76 0 0.996-0.489 1.802-1.454 2.417-0.912 0.63-2.145 0.941-3.698 0.919-1.244 0-2.144-0.143-2.715-0.434-0.709-0.323-1.231-0.733-1.575-1.221a7.976 7.976 0 0 1-1.064-1.843c-0.244-0.634-0.574-1.112-1.004-1.435-0.402-0.327-0.872-0.489-1.423-0.489-0.704 0-1.285 0.197-1.744 0.583-0.46 0.439-0.68 0.953-0.67 1.53 0 1.006 0.372 2.013 1.11 3.02a7.636 7.636 0 0 0 2.82 2.43c1.68 0.867 3.79 1.306 6.324 1.323 2.069 0 3.912-0.307 5.516-0.92 1.575-0.7 2.75-1.565 3.517-2.605z" fill="#2e3440" filter="url(#filter2039)" opacity=".44717"/>
 <path d="m50.772 34.484a9.678 9.678 0 0 1 1.332 2.69c0.308 0.974 0.463 1.982 0.463 3.026 0 1.494-0.302 2.898-0.9 4.214a11.19 11.19 0 0 1-2.477 3.473 11.635 11.635 0 0 1-3.685 2.342 11.802 11.802 0 0 1-4.463 0.845c-2.243 0-4.255-0.53-6.04-1.587-0.496 0.069-0.995 0.118-1.498 0.156-0.506 0.034-1.007 0.048-1.507 0.048-2.62 0-5.08-0.47-7.381-1.406-2.296-0.941-4.307-2.22-6.039-3.847a17.706 17.706 0 0 1-4.069-5.721c-0.99-2.188-1.483-4.527-1.483-7.012 0-0.482 0.024-0.94 0.075-1.364 0.046-0.423 0.11-0.855 0.175-1.288-1.23-1.706-1.842-3.54-1.842-5.505a9.78 9.78 0 0 1 0.902-4.144 10.424 10.424 0 0 1 2.47-3.386c1.052-0.96 2.284-1.715 3.683-2.269 1.403-0.553 2.89-0.823 4.466-0.823 1.134 0 2.198 0.133 3.21 0.405 1.01 0.275 1.957 0.658 2.83 1.158 0.494-0.07 1-0.12 1.498-0.159 0.506-0.03 1.011-0.05 1.505-0.05 2.629 0 5.097 0.459 7.405 1.369 2.303 0.904 4.318 2.156 6.05 3.744a17.802 17.802 0 0 1 4.088 5.543c0.988 2.105 1.481 4.363 1.481 6.768 2e-3 0.887-0.08 1.814-0.25 2.78zm-9.73 5.47c0.81-1.066 1.21-2.318 1.21-3.757 0-1.132-0.226-2.084-0.67-2.856-0.463-0.769-1.116-1.413-1.958-1.927-0.774-0.499-1.78-0.941-3.012-1.337-1.238-0.311-2.552-0.615-3.94-0.926l-1.523-0.347c-0.408-0.087-0.732-0.16-0.977-0.227a7.288 7.288 0 0 1-0.761-0.227c-0.226-0.08-0.465-0.175-0.704-0.277a3.583 3.583 0 0 1-1.164-0.77c-0.239-0.269-0.358-0.63-0.358-1.077 0-0.654 0.39-1.238 1.163-1.756 0.876-0.483 1.947-0.716 3.22-0.7 1.47 0 2.504 0.217 3.087 0.652a5.532 5.532 0 0 1 1.649 1.903c0.343 0.55 0.692 0.96 1.052 1.23 0.343 0.263 0.82 0.404 1.42 0.423 0.674 0 1.233-0.224 1.703-0.675 0.46-0.42 0.68-0.893 0.668-1.426 0-0.617-0.175-1.223-0.516-1.807-0.338-0.549-0.907-1.133-1.691-1.753a10.165 10.165 0 0 0-2.879-1.325 14.026 14.026 0 0 0-1.904-0.376c-0.67-0.084-1.401-0.123-2.21-0.123-2.04 0-3.76 0.25-5.162 0.748-1.504 0.52-2.644 1.233-3.416 2.16-0.772 0.88-1.158 1.94-1.158 3.176 0 1.302 0.374 2.361 1.112 3.178 0.743 0.883 1.75 1.55 3.022 2.004 1.21 0.483 2.755 0.907 4.651 1.272 0.71 0.168 1.33 0.31 1.878 0.417 0.54 0.106 1.03 0.227 1.458 0.359 0.808 0.22 1.464 0.589 1.965 1.113 0.535 0.455 0.803 1.039 0.803 1.76 0 0.996-0.489 1.802-1.454 2.417-0.912 0.63-2.145 0.941-3.698 0.919-1.244 0-2.144-0.143-2.715-0.434-0.709-0.323-1.231-0.733-1.575-1.221a7.976 7.976 0 0 1-1.064-1.843c-0.244-0.634-0.574-1.112-1.004-1.435-0.402-0.327-0.872-0.489-1.423-0.489-0.704 0-1.285 0.197-1.744 0.583-0.46 0.439-0.68 0.953-0.67 1.53 0 1.006 0.372 2.013 1.11 3.02a7.636 7.636 0 0 0 2.82 2.43c1.68 0.867 3.79 1.306 6.324 1.323 2.069 0 3.912-0.307 5.516-0.92 1.575-0.7 2.75-1.565 3.517-2.605z" fill="url(#b)"/>
</svg>
