<svg width="64" height="64" version="1.1" viewBox="0 0 16.933 16.933" xmlns="http://www.w3.org/2000/svg">
 <defs>
  <filter id="filter1178" x="-.047999" y="-.047999" width="1.096" height="1.096" color-interpolation-filters="sRGB">
   <feGaussianBlur stdDeviation="0.30691668"/>
  </filter>
  <linearGradient id="linearGradient1340" x1="8.4665" x2="8.4668" y1="16.007" y2="1.0171" gradientTransform="translate(-.0076499 -.0030174)" gradientUnits="userSpaceOnUse">
   <stop stop-color="#2e3440" offset="0"/>
   <stop stop-color="#4c566a" offset="1"/>
  </linearGradient>
  <filter id="filter934" x="-.074642" y="-.074702" width="1.1493" height="1.1494" color-interpolation-filters="sRGB">
   <feGaussianBlur stdDeviation="0.29783649"/>
  </filter>
 </defs>
 <g stroke-linecap="round" stroke-linejoin="round">
  <rect transform="matrix(.99138 0 0 1 .072989 .0019055)" x=".79375" y=".90545" width="15.346" height="15.346" rx="3.0526" ry="3.0526" fill="#000000" filter="url(#filter1178)" opacity=".15" stroke-width="1.2489" style="mix-blend-mode:normal"/>
  <rect x=".91839" y=".92302" width="15.081" height="15.081" rx="3" ry="3" fill="url(#linearGradient1340)" stroke-width="1.2274"/>
  <rect x=".0045001" y=".003" width="16.924" height="16.927" fill="none" opacity=".15" stroke-width="1.052"/>
 </g>
 <text x="-49.806946" y="19.370577" font-family="sans-serif" font-size="2.8222px" letter-spacing="0px" stroke-width=".26458" word-spacing="0px" style="line-height:1.25" xml:space="preserve"><tspan x="-49.806946" y="19.370577" stroke-width=".26458"/></text>
 <g transform="translate(.23506 .29383)" fill="#2e3440" filter="url(#filter934)" opacity=".31947" stroke-width=".076185">
  <path d="m5.6972 9.8145c0 0.55615-0.44949 1.0056-1.0056 1.0056-0.55615 0-1.0056-0.44949-1.0056-1.0056 0-0.55615 0.44949-1.0056 1.0056-1.0056h1.0056zm0.50282 0c0-0.55615 0.44949-1.0056 1.0056-1.0056 0.55615 0 1.0056 0.44949 1.0056 1.0056v2.5141c0 0.55615-0.44949 1.0056-1.0056 1.0056-0.55615 0-1.0056-0.44949-1.0056-1.0056z"/>
  <path d="m7.2056 5.7767c-0.55615 0-1.0056-0.44949-1.0056-1.0056 0-0.55615 0.44949-1.0056 1.0056-1.0056 0.55615 0 1.0056 0.44949 1.0056 1.0056v1.0056zm0 0.51044c0.55615 0 1.0056 0.44949 1.0056 1.0056 0 0.55615-0.44949 1.0056-1.0056 1.0056h-2.5217c-0.55615 0-1.0056-0.44949-1.0056-1.0056 0-0.55615 0.44949-1.0056 1.0056-1.0056z"/>
  <path d="m11.236 7.2928c0-0.55615 0.44949-1.0056 1.0056-1.0056s1.0056 0.44949 1.0056 1.0056c0 0.55615-0.44949 1.0056-1.0056 1.0056h-1.0056zm-0.50282 0c0 0.55615-0.44949 1.0056-1.0056 1.0056-0.55615 0-1.0056-0.44949-1.0056-1.0056v-2.5217c0-0.55615 0.44949-1.0056 1.0056-1.0056 0.55615 0 1.0056 0.44949 1.0056 1.0056z"/>
  <path d="m9.7274 11.323c0.55615 0 1.0056 0.44949 1.0056 1.0056 0 0.55615-0.44949 1.0056-1.0056 1.0056-0.55615 0-1.0056-0.44949-1.0056-1.0056v-1.0056zm0-0.50282c-0.55615 0-1.0056-0.44949-1.0056-1.0056 0-0.55615 0.44949-1.0056 1.0056-1.0056h2.5217c0.55615 0 1.0056 0.44949 1.0056 1.0056 0 0.55615-0.44949 1.0056-1.0056 1.0056z"/>
 </g>
 <g stroke-width=".076185">
  <path d="m5.6972 9.8145c0 0.55615-0.44949 1.0056-1.0056 1.0056-0.55615 0-1.0056-0.44949-1.0056-1.0056 0-0.55615 0.44949-1.0056 1.0056-1.0056h1.0056zm0.50282 0c0-0.55615 0.44949-1.0056 1.0056-1.0056 0.55615 0 1.0056 0.44949 1.0056 1.0056v2.5141c0 0.55615-0.44949 1.0056-1.0056 1.0056-0.55615 0-1.0056-0.44949-1.0056-1.0056z" fill="#bf616a"/>
  <path d="m7.2056 5.7767c-0.55615 0-1.0056-0.44949-1.0056-1.0056 0-0.55615 0.44949-1.0056 1.0056-1.0056 0.55615 0 1.0056 0.44949 1.0056 1.0056v1.0056zm0 0.51044c0.55615 0 1.0056 0.44949 1.0056 1.0056 0 0.55615-0.44949 1.0056-1.0056 1.0056h-2.5217c-0.55615 0-1.0056-0.44949-1.0056-1.0056 0-0.55615 0.44949-1.0056 1.0056-1.0056z" fill="#88c0d0"/>
  <path d="m11.236 7.2928c0-0.55615 0.44949-1.0056 1.0056-1.0056s1.0056 0.44949 1.0056 1.0056c0 0.55615-0.44949 1.0056-1.0056 1.0056h-1.0056zm-0.50282 0c0 0.55615-0.44949 1.0056-1.0056 1.0056-0.55615 0-1.0056-0.44949-1.0056-1.0056v-2.5217c0-0.55615 0.44949-1.0056 1.0056-1.0056 0.55615 0 1.0056 0.44949 1.0056 1.0056z" fill="#a3be8c"/>
  <path d="m9.7274 11.323c0.55615 0 1.0056 0.44949 1.0056 1.0056 0 0.55615-0.44949 1.0056-1.0056 1.0056-0.55615 0-1.0056-0.44949-1.0056-1.0056v-1.0056zm0-0.50282c-0.55615 0-1.0056-0.44949-1.0056-1.0056 0-0.55615 0.44949-1.0056 1.0056-1.0056h2.5217c0.55615 0 1.0056 0.44949 1.0056 1.0056 0 0.55615-0.44949 1.0056-1.0056 1.0056z" fill="#ebcb8b"/>
 </g>
</svg>
