<svg width="64" height="64" version="1.1" viewBox="0 0 16.933 16.933" xmlns="http://www.w3.org/2000/svg">
 <defs>
  <filter id="filter1178" x="-.047999" y="-.047999" width="1.096" height="1.096" color-interpolation-filters="sRGB">
   <feGaussianBlur stdDeviation="0.30691668"/>
  </filter>
  <linearGradient id="linearGradient1340" x1="8.3305" x2="8.3754" y1="15.567" y2="1.278" gradientUnits="userSpaceOnUse">
   <stop stop-color="#a6aebf" offset="0"/>
   <stop stop-color="#eceff4" offset="1"/>
  </linearGradient>
  <linearGradient id="linearGradient6207" x1="7.635" x2="8.761" y1="5.7037" y2="14.001" gradientTransform="matrix(.80506 0 0 .80506 1.6581 -.63983)" gradientUnits="userSpaceOnUse">
   <stop stop-color="#2e3440" offset="0"/>
   <stop stop-color="#4c566a" offset="1"/>
  </linearGradient>
  <linearGradient id="linearGradient2027" x1="10.222" x2="2.6088" y1="12.247" y2="12.247" gradientUnits="userSpaceOnUse">
   <stop stop-color="#4c566a" offset="0"/>
   <stop stop-color="#2e3440" offset="1"/>
  </linearGradient>
  <linearGradient id="linearGradient15316" x1="8.4579" x2="8.4789" y1="5.5323" y2="8.8647" gradientUnits="userSpaceOnUse">
   <stop stop-color="#2e3440" offset="0"/>
   <stop stop-color="#4c566a" offset="1"/>
  </linearGradient>
 </defs>
 <g stroke-linecap="round" stroke-linejoin="round">
  <rect transform="matrix(.99138 0 0 1 .072989 .0019055)" x=".79375" y=".90545" width="15.346" height="15.346" rx="3.0526" ry="3.0526" fill="#000000" filter="url(#filter1178)" opacity=".15" stroke-width="1.2489" style="mix-blend-mode:normal"/>
  <rect x=".92604" y=".92604" width="15.081" height="15.081" rx="3" ry="3" fill="url(#linearGradient1340)" stroke-width="1.2274"/>
  <rect x=".01215" y=".0060174" width="16.924" height="16.927" fill="none" opacity=".15" stroke-width="1.052"/>
 </g>
 <style type="text/css"><![CDATA[
	.st0{fill-rule:evenodd;clip-rule:evenodd;}
]]></style>
 <path d="m10.328 4.1315c-0.0807-0.05619-0.17215-0.0807-0.26541-0.062169-0.09325 0.01853-0.17215 0.068744-0.22835 0.14705l-0.31502 0.44415c-0.11178-0.049614-0.22835-0.087277-0.35268-0.11836-0.12433-0.031084-0.2409-0.05619-0.36524-0.074721l-0.099828-0.58103c-0.017934-0.099828-0.068146-0.17215-0.14107-0.22835-0.0807-0.05619-0.16618-0.074721-0.26541-0.05619l-0.72808 0.13091c-0.09325 0.01853-0.16618 0.062169-0.22835 0.14287-0.056188 0.0807-0.0807 0.16618-0.062169 0.26541l0.09325 0.53082c-0.11836 0.049614-0.22835 0.1058-0.33416 0.17215-0.10581 0.062169-0.20922 0.13689-0.30307 0.20922l-0.49376-0.34013c-0.080699-0.05619-0.16618-0.080699-0.25943-0.062169s-0.17215 0.068744-0.22835 0.14944l-0.42023 0.60017c-0.056187 0.0807-0.0807 0.17215-0.062169 0.26541 0.018528 0.099828 0.068743 0.17215 0.14944 0.22835l0.44415 0.31502c-0.049613 0.11178-0.087277 0.22835-0.11836 0.35268-0.031084 0.12433-0.056187 0.2409-0.074721 0.36524l-0.58043 0.099828c-0.49256 0.092655-0.214 0.79862-0.15363 1.1346 0.018529 0.093251 0.062168 0.16618 0.14107 0.22835 0.0807 0.056181 0.16618 0.080701 0.26541 0.062172l0.53082-0.093255c0.049613 0.11836 0.10581 0.22835 0.17215 0.33415 0.062169 0.10581 0.13689 0.20922 0.20922 0.30905l-0.34013 0.48778c-0.056188 0.080701-0.0807 0.16618-0.062169 0.25943 0.018528 0.09325 0.06815 0.17215 0.14705 0.22835l0.60554 0.42502c0.0807 0.05619 0.17215 0.07472 0.26541 0.05619 0.09325-0.01853 0.17215-0.06217 0.23433-0.14107l0.31562-0.45012c0.11178 0.04961 0.22835 0.08728 0.35268 0.11836 0.12433 0.03109 0.2403 0.05618 0.36524 0.07472l0.099828 0.58103c0.018528 0.09983 0.068743 0.17215 0.14107 0.22835 0.0807 0.05618 0.16618 0.07472 0.26541 0.05618l0.72808-0.1309c0.093251-0.01853 0.16618-0.06217 0.22835-0.14108 0.056188-0.0807 0.0807-0.16618 0.062169-0.26541l-0.09325-0.53082c0.11836-0.049614 0.22835-0.1058 0.33416-0.17215 0.1058-0.062172 0.20982-0.1351 0.30905-0.20922l0.48778 0.34013c0.0807 0.056181 0.16618 0.080701 0.26541 0.062162 0.09983-0.01852 0.17215-0.068746 0.22835-0.14705l0.42502-0.60614c0.05619-0.080701 0.07472-0.17216 0.05619-0.26541s-0.06217-0.17215-0.14287-0.23432l-0.45072-0.30905c0.04961-0.11178 0.08728-0.22835 0.11836-0.35268 0.03109-0.12433 0.05618-0.2409 0.07472-0.36524l0.58104-0.099828c0.09983-0.018533 0.17215-0.068744 0.22835-0.14287 0.05618-0.0807 0.07472-0.16618 0.05618-0.26541l-0.1309-0.72808c-0.01853-0.09325-0.06216-0.16618-0.14107-0.22835-0.0807-0.05619-0.16618-0.0807-0.26541-0.062169l-0.53082 0.093251c-0.049616-0.11178-0.1058-0.22177-0.17216-0.33416-0.062167-0.11178-0.13689-0.20922-0.20922-0.30307l0.34013-0.49376c0.05618-0.0807 0.0807-0.16618 0.06216-0.25943-0.01853-0.09325-0.06875-0.17215-0.14705-0.22835l-0.60075-0.42203zm-1.8537 0.87873c1.2445 0 2.2542 1.0091 2.2542 2.2542 0 1.2445-1.0091 2.2542-2.2542 2.2542-1.2452 0-2.2542-1.0096-2.2542-2.2548 0-1.2445 1.0096-2.2536 2.2542-2.2536z" fill="url(#linearGradient6207)" stroke-width=".80506"/>
 <rect x="2.375" y="11.833" width="12.814" height=".81114" ry=".40557" fill="#eceff4" stroke-linecap="round" stroke-linejoin="round" stroke-width=".052916"/>
 <rect x="2.3996" y="11.884" width="8.1399" height=".70754" ry=".35377" fill="url(#linearGradient2027)" stroke-linecap="round" stroke-linejoin="round" stroke-width=".039389"/>
 <text x="5.930655" y="13.653153" fill="#2e3440" font-family="sans-serif" font-size="1.0246px" letter-spacing="0px" stroke-width=".096052" word-spacing="0px" style="line-height:1.25" xml:space="preserve"><tspan x="5.930655" y="13.653153" fill="#2e3440" font-family="sans-serif" font-weight="bold" stroke-width=".096052">UPDATE...</tspan></text>
 <text x="16.921101" y="14.050462" font-family="sans-serif" font-size="2.8222px" letter-spacing="0px" stroke-width=".26458" word-spacing="0px" style="line-height:1.25" xml:space="preserve"><tspan x="16.921101" y="14.050462" stroke-width=".26458"/></text>
 <path d="m7.2182 8.3831-0.011256-0.013229-0.029829 0.24285a0.14295 0.14295 0 0 1-0.054029 0.095958 0.1438 0.1438 0 0 1-0.23244-0.13198l0.078511-0.62893v-0.00199a0.092299 0.092299 0 0 1 0.00225-0.011536 0.14323 0.14323 0 0 1 0.1725-0.10637q0.31573 0.071196 0.6309 0.14492a0.1407 0.1407 0 0 1 0.089204 0.063313 0.14464 0.14464 0 0 1 0.018009 0.10806 0.1407 0.1407 0 0 1-0.063315 0.088922 0.14295 0.14295 0 0 1-0.10778 0.018295c-0.093142-0.021106-0.18629-0.042772-0.27915-0.064158a1.1456 1.1456 0 0 0 0.079918 0.08442 1.4095 1.4095 0 0 0 0.73811 0.37961 1.3696 1.3696 0 0 0 0.41394 0.00957 1.3324 1.3324 0 0 0 0.39368-0.11228q0.070913-0.033483 0.13592-0.071477c0.043898-0.026169 0.08639-0.054026 0.12691-0.08442a1.4295 1.4295 0 0 0 0.24088-0.22174 1.3766 1.3766 0 0 0 0.17982-0.26592l0.015758-0.030954 0.2814 0.075697-0.02251 0.046712a1.6501 1.6501 0 0 1-0.22231 0.34444 1.7244 1.7244 0 0 1-0.30419 0.28421c-0.047275 0.034615-0.097365 0.067536-0.14971 0.09849-0.05234 0.030954-0.10496 0.058248-0.16152 0.084421a1.6321 1.6321 0 0 1-0.47838 0.1407 1.6479 1.6479 0 0 1-0.50061-0.010974 1.6943 1.6943 0 0 1-0.88866-0.45756c-0.033767-0.03264-0.063596-0.065007-0.091174-0.097083zm2.5146-2.2377 0.011255 0.013222 0.028137-0.24285a0.1438 0.1438 0 1 1 0.28534 0.035458l-0.077106 0.62949v0.00199c0 0.00363 0 0.0076-0.00199 0.011536a0.14323 0.14323 0 0 1-0.17109 0.10637c-0.21018-0.047578-0.42207-0.095697-0.63087-0.14494a0.1407 0.1407 0 0 1-0.088923-0.063313 0.14351 0.14351 0 0 1-0.018292-0.10806 0.1407 0.1407 0 0 1 0.063316-0.088923 0.14351 0.14351 0 0 1 0.10806-0.018286c0.093144 0.021104 0.18601 0.042771 0.27915 0.064156-0.023638-0.028137-0.049808-0.056281-0.079918-0.085827a1.4095 1.4095 0 0 0-0.34134-0.24566 1.3927 1.3927 0 0 0-0.39649-0.13451 1.3676 1.3676 0 0 0-0.41366-0.0095687 1.3299 1.3299 0 0 0-0.39396 0.11537q-0.071194 0.033202-0.13592 0.071477c-0.04418 0.02617-0.08639 0.054026-0.12719 0.08442a1.4166 1.4166 0 0 0-0.2406 0.22174 1.3507 1.3507 0 0 0-0.17981 0.26592l-0.01604 0.030954-0.28281-0.076823 0.022512-0.046712a1.6574 1.6574 0 0 1 0.22231-0.34443 1.7343 1.7343 0 0 1 0.30419-0.28421q0.071476-0.052058 0.14971-0.09849c0.050934-0.02983 0.10496-0.058248 0.16152-0.08442a1.6321 1.6321 0 0 1 0.47838-0.1407 1.6479 1.6479 0 0 1 0.50174 0.010974 1.6819 1.6819 0 0 1 0.47838 0.16152 1.6997 1.6997 0 0 1 0.41056 0.29603c0.033487 0.03264 0.063596 0.065007 0.091174 0.097083z" fill="url(#linearGradient15316)" stroke-width=".02814"/>
</svg>
