<svg width="64" height="64" version="1.1" viewBox="0 0 16.933 16.933" xmlns="http://www.w3.org/2000/svg">
 <defs>
  <filter id="filter1178" x="-.047999" y="-.047999" width="1.096" height="1.096" color-interpolation-filters="sRGB">
   <feGaussianBlur stdDeviation="0.30691668"/>
  </filter>
  <linearGradient id="linearGradient1340" x1="8.355" x2="8.2433" y1="16.007" y2="1.6411" gradientUnits="userSpaceOnUse">
   <stop stop-color="#7b88a1" offset="0"/>
   <stop stop-color="#a6aebf" offset="1"/>
  </linearGradient>
  <linearGradient id="linearGradient1370" x1="143.75" x2="97.429" y1="-4.4334" y2="41.887" gradientUnits="userSpaceOnUse">
   <stop stop-color="#88c0d0" offset="0"/>
   <stop stop-color="#5e81ac" offset="1"/>
  </linearGradient>
  <linearGradient id="linearGradient1744" x1="120.59" x2="155.49" y1="18.727" y2="18.755" gradientUnits="userSpaceOnUse">
   <stop stop-color="#bf616a" offset="0"/>
   <stop stop-color="#b48ead" offset="1"/>
  </linearGradient>
  <linearGradient id="linearGradient2188" x1="120.59" x2="120.47" y1="18.727" y2="48.567" gradientUnits="userSpaceOnUse">
   <stop stop-color="#a6aebf" offset="0"/>
   <stop stop-color="#4c566a" offset="1"/>
  </linearGradient>
  <linearGradient id="linearGradient7048" x1="8.8413" x2="8.8413" y1="5.5542" y2="11.401" gradientUnits="userSpaceOnUse">
   <stop stop-color="#eceff4" offset="0"/>
   <stop stop-color="#d8dee9" offset="1"/>
  </linearGradient>
 </defs>
 <g stroke-linecap="round" stroke-linejoin="round">
  <rect transform="matrix(.99138 0 0 1 .072989 .0019055)" x=".79375" y=".90545" width="15.346" height="15.346" rx="3.0526" ry="3.0526" fill="#000000" filter="url(#filter1178)" opacity=".15" stroke-width="1.2489" style="mix-blend-mode:normal"/>
  <rect x=".92604" y=".92604" width="15.081" height="15.081" rx="3" ry="3" fill="url(#linearGradient1340)" stroke-width="1.2274"/>
  <rect x=".01215" y=".0060174" width="16.924" height="16.927" fill="none" opacity=".15" stroke-width="1.052"/>
 </g>
 <text x="18.183498" y="-26.236582" fill="#000000" font-family="sans-serif" font-size="5.8387px" letter-spacing="0px" stroke-width=".14597" word-spacing="0px" style="line-height:1.25" xml:space="preserve"><tspan x="18.183498" y="-21.070711" stroke-width=".14597"/></text>
 <g transform="translate(-23.439 3.5115)" stroke-linecap="round" stroke-linejoin="round" stroke-width="4.266">
  <path transform="scale(.26458)" d="m97.429 41.887c-1.8847-1.8847-3.0473-4.4915-3.0473-7.3798v-31.561c0-5.7766 4.6505-10.427 10.427-10.427h31.561c2.8883 0 5.4951 1.1626 7.3798 3.0473" fill="url(#linearGradient1370)"/>
  <path transform="scale(.26458)" d="m120.59 18.727 23.16-23.16c1.8847 1.8847 3.0473 4.4915 3.0473 7.3798v31.561c0 2.8883-1.1626 5.4951-3.0473 7.3798" fill="url(#linearGradient1744)"/>
  <path transform="scale(.26458)" d="m143.75 41.887c-1.8847 1.8847-4.4915 3.0473-7.3798 3.0473h-31.561c-2.8883 0-5.4951-1.1626-7.3798-3.0473l23.16-23.16" fill="url(#linearGradient2188)"/>
  <path transform="scale(.26458)" d="m97.429 41.887c-1.8847-1.8847-3.0473-4.4915-3.0473-7.3798v-31.561c0-5.7766 4.6505-10.427 10.427-10.427h31.561c2.8883 0 5.4951 1.1626 7.3798 3.0473" fill="url(#linearGradient1370)"/>
  <path transform="scale(.26458)" d="m120.59 18.727 23.16-23.16c1.8847 1.8847 3.0473 4.4915 3.0473 7.3798v31.561c0 2.8883-1.1626 5.4951-3.0473 7.3798" fill="url(#linearGradient1744)"/>
  <path transform="scale(.26458)" d="m143.75 41.887c-1.8847 1.8847-4.4915 3.0473-7.3798 3.0473h-31.561c-2.8883 0-5.4951-1.1626-7.3798-3.0473l23.16-23.16" fill="url(#linearGradient2188)"/>
 </g>
 <g fill="none" stroke="#d8dee9" stroke-linecap="round" stroke-width=".26458px">
  <path d="m2.1278 4.6452c0.39786-2.1858 1.9972-2.3704 1.9972-2.3704" opacity=".85"/>
  <path d="m2.1278 12.432c0.39786 2.1858 1.9972 2.3704 1.9972 2.3704" opacity=".85"/>
  <path d="m14.981 4.6452c-0.39786-2.1858-1.9972-2.3704-1.9972-2.3704" opacity=".85"/>
  <path d="m14.981 12.394c-0.39786 2.1858-1.9972 2.3704-1.9972 2.3704" opacity=".85"/>
 </g>
 <path d="m7.5584 5.513v1.2102h-0.89938v4.6965h5.8042v-4.6965h-0.83111v-1.2102zm0.42615 0.43498h3.1531v0.77519h-3.1531zm-3.5151 0.77519v4.6965h1.7923v-4.6965zm5.1191 0.45205a1.8804 1.8804 0 0 1 0.16363 0.00706 1.8804 1.8804 0 0 1 0.16304 0.021189 1.8804 1.8804 0 0 1 0.1601 0.035316 1.8804 1.8804 0 0 1 0.15657 0.049442 1.8804 1.8804 0 0 1 0.15127 0.062981 1.8804 1.8804 0 0 1 0.14538 0.075929 1.8804 1.8804 0 0 1 0.13832 0.087701 1.8804 1.8804 0 0 1 0.13008 0.10006 1.8804 1.8804 0 0 1 0.12125 0.11066 1.8804 1.8804 0 0 1 0.11066 0.12125 1.8804 1.8804 0 0 1 0.10006 0.13008 1.8804 1.8804 0 0 1 0.08829 0.13832 1.8804 1.8804 0 0 1 0.07535 0.14538 1.8804 1.8804 0 0 1 0.06298 0.15186 1.8804 1.8804 0 0 1 0.04945 0.15598 1.8804 1.8804 0 0 1 0.03532 0.16069 1.8804 1.8804 0 0 1 0.02119 0.16245 1.8804 1.8804 0 0 1 0.0076 0.16363 1.8804 1.8804 0 0 1-0.0076 0.16422 1.8804 1.8804 0 0 1-0.02119 0.16245 1.8804 1.8804 0 0 1-0.03532 0.1601 1.8804 1.8804 0 0 1-0.04945 0.15657 1.8804 1.8804 0 0 1-0.06298 0.15127 1.8804 1.8804 0 0 1-0.07535 0.14597 1.8804 1.8804 0 0 1-0.08829 0.13832 1.8804 1.8804 0 0 1-0.10006 0.13008 1.8804 1.8804 0 0 1-0.11066 0.12066 1.8804 1.8804 0 0 1-0.12125 0.11125 1.8804 1.8804 0 0 1-0.13008 0.09947 1.8804 1.8804 0 0 1-0.13832 0.08829 1.8804 1.8804 0 0 1-0.14538 0.07593 1.8804 1.8804 0 0 1-0.15127 0.0624 1.8804 1.8804 0 0 1-0.15657 0.04945 1.8804 1.8804 0 0 1-0.1601 0.03532 1.8804 1.8804 0 0 1-0.16304 0.02178 1.8804 1.8804 0 0 1-0.16363 0.0071 1.8804 1.8804 0 0 1-0.16422-0.0071 1.8804 1.8804 0 0 1-0.16245-0.02178 1.8804 1.8804 0 0 1-0.1601-0.03532 1.8804 1.8804 0 0 1-0.15657-0.04945 1.8804 1.8804 0 0 1-0.15127-0.0624 1.8804 1.8804 0 0 1-0.14538-0.075928 1.8804 1.8804 0 0 1-0.13891-0.088287 1.8804 1.8804 0 0 1-0.13008-0.099472 1.8804 1.8804 0 0 1-0.12066-0.11125 1.8804 1.8804 0 0 1-0.11066-0.12066 1.8804 1.8804 0 0 1-0.10006-0.13008 1.8804 1.8804 0 0 1-0.08829-0.13832 1.8804 1.8804 0 0 1-0.075342-0.14597 1.8804 1.8804 0 0 1-0.062981-0.15127 1.8804 1.8804 0 0 1-0.049442-0.15657 1.8804 1.8804 0 0 1-0.035316-0.1601 1.8804 1.8804 0 0 1-0.021778-0.16245 1.8804 1.8804 0 0 1-0.007062-0.16422 1.8804 1.8804 0 0 1 0.007062-0.16363 1.8804 1.8804 0 0 1 0.021778-0.16245 1.8804 1.8804 0 0 1 0.035316-0.16069 1.8804 1.8804 0 0 1 0.049442-0.15598 1.8804 1.8804 0 0 1 0.062981-0.15186 1.8804 1.8804 0 0 1 0.075342-0.14538 1.8804 1.8804 0 0 1 0.08829-0.13832 1.8804 1.8804 0 0 1 0.10006-0.13008 1.8804 1.8804 0 0 1 0.11066-0.12125 1.8804 1.8804 0 0 1 0.12066-0.11066 1.8804 1.8804 0 0 1 0.13008-0.10006 1.8804 1.8804 0 0 1 0.13891-0.087701 1.8804 1.8804 0 0 1 0.14538-0.075929 1.8804 1.8804 0 0 1 0.15127-0.062981 1.8804 1.8804 0 0 1 0.15657-0.049442 1.8804 1.8804 0 0 1 0.1601-0.035316 1.8804 1.8804 0 0 1 0.16245-0.021189 1.8804 1.8804 0 0 1 0.16422-0.00706zm0 0.42556a1.4545 1.4545 0 0 0-1.4544 1.4544 1.4545 1.4545 0 0 0 1.4544 1.4544 1.4545 1.4545 0 0 0 1.4544-1.4544 1.4545 1.4545 0 0 0-1.4544-1.4544z" fill="url(#linearGradient7048)" stroke-linecap="round" stroke-linejoin="round" stroke-width=".063158"/>
</svg>
