<svg width="64" height="64" version="1.1" viewBox="0 0 16.933 16.933" xmlns="http://www.w3.org/2000/svg">
 <defs>
  <linearGradient id="a" x1="8.587" x2="8.587" y1="15.747" y2="1.097" gradientTransform="matrix(1.0178 0 0 1.0178 -.15085 -.1427)" gradientUnits="userSpaceOnUse">
   <stop stop-color="#2e3440" offset="0"/>
   <stop stop-color="#4c566a" offset="1"/>
  </linearGradient>
  <filter id="filter1178" x="-.047999" y="-.047999" width="1.096" height="1.096" color-interpolation-filters="sRGB">
   <feGaussianBlur stdDeviation="0.30691668"/>
  </filter>
  <filter id="filter1088" x="-.13064" y="-.12749" width="1.2613" height="1.2549" color-interpolation-filters="sRGB">
   <feGaussianBlur stdDeviation="0.54832416"/>
  </filter>
 </defs>
 <rect transform="matrix(.99138 0 0 1 .072734 -.11195)" x=".79375" y=".90545" width="15.346" height="15.346" rx="3.0526" ry="3.0526" filter="url(#filter1178)" opacity=".15" stroke-linecap="round" stroke-linejoin="round" stroke-width="1.2489" style="mix-blend-mode:normal"/>
 <rect x=".926" y=".926" width="15.081" height="15.081" rx="3.0001" ry="3.0001" fill="url(#a)" stroke-width="1.0178"/>
 <path d="m8.7018 13.779a24.021 24.021 0 0 1-0.13579-0.80211 0.4779 0.4779 0 0 1 0.00737-0.12211c0.041053-0.21684 0.2179-0.3579 0.50316-0.40211 0.23158-0.03579 0.42106 0.02947 0.52632 0.18105 0.066316 0.09368 0.07579 0.12842 0.15263 0.56632 0.03895 0.21684 0.06842 0.39684 0.06632 0.4a1.5632 1.5632 0 0 1-0.23263 0.0379 10.62 10.62 0 0 1-0.069474-0.37369 9.1864 9.1864 0 0 0-0.078948-0.41474c-0.047368-0.15368-0.20316-0.22632-0.38421-0.17895-0.14105 0.03474-0.22105 0.11053-0.24211 0.22737-0.010527 0.06-0.010527 0.06632 0.063159 0.48737 0.034737 0.19684 0.062106 0.36106 0.060001 0.36526a0.41053 0.41053 0 0 1-0.10526 0.02527 3.1011 3.1011 0 0 0-0.11579 0.02105c-0.00737 0.0021-0.012631-0.0032-0.01579-0.01684zm-1.9684-0.23684a7.6969 7.6969 0 0 1-0.30211-0.11895 0.72316 0.72316 0 0 1-0.18947-0.14316 0.54948 0.54948 0 0 1-0.16526-0.40526 0.64211 0.64211 0 0 1 0.18737-0.46 0.54737 0.54737 0 0 1 0.34421-0.16526 0.65264 0.65264 0 0 1 0.25474 0.01895c0.084211 0.02105 0.58316 0.20526 0.58106 0.21474 0 0.0053-0.40737 1.099-0.42632 1.1484-0.00316 0.0074-0.00737 0.01263-0.010527 0.01263zm0.27053-0.56842c0.083158-0.22105 0.14947-0.40211 0.14737-0.40316a4.0053 4.0053 0 0 0-0.32632-0.11474 0.50421 0.50421 0 0 0-0.22105 0.01369c-0.12316 0.04527-0.21053 0.14316-0.26316 0.29263a0.37263 0.37263 0 0 0-0.016842 0.14842v0.09684l0.031579 0.06527a0.41053 0.41053 0 0 0 0.17895 0.18421c0.061053 0.03158 0.29263 0.12211 0.30948 0.12 0.00632-0.0011 0.063159-0.14211 0.16-0.40316zm4.0379-0.65579a35.541 35.541 0 0 1-0.60316-0.30526c0-0.0021 0.15684-0.13263 0.18316-0.15158 0.01053-0.0074 0.03579 0.0032 0.15684 0.06421 0.0779 0.04 0.14526 0.07264 0.14947 0.07158 0.0032-0.0011 0.1-0.08 0.21368-0.17474l0.20842-0.17369-0.04948-0.15474a1.1158 1.1158 0 0 1-0.04527-0.16 3.4527 3.4527 0 0 1 0.18948-0.15263c0.0021 0.0011 0.08842 0.27579 0.19263 0.61053l0.19895 0.64106 0.01053 0.03158-0.09368 0.07684a0.83579 0.83579 0 0 1-0.10106 0.07685c-0.0042 0-0.27895-0.13579-0.61053-0.3zm0.53158 0.0042-0.1579-0.47684a0.89685 0.89685 0 0 0-0.15474 0.11791c-0.08422 0.06948-0.14948 0.12842-0.14632 0.13158 0.0084 0.0084 0.44737 0.23579 0.45579 0.23579 0.0032 0 0.0042-0.0042 0.0032-0.0084zm-6.9874-0.09053-0.084211-0.08422 0.43474-0.44c0.24-0.24211 0.43895-0.43895 0.44211-0.43895 0.010527 0 0.16632 0.15579 0.16632 0.16632 0 0.0032-0.19684 0.20421-0.43684 0.44421l-0.4379 0.43687zm-0.77053-1.5053c-0.23895-0.046319-0.42737-0.22737-0.51263-0.49158a0.66316 0.66316 0 0 1 0.069474-0.58737 0.63579 0.63579 0 0 1 0.59263-0.27579 0.61369 0.61369 0 0 1 0.3779 0.18421c0.088421 0.088416 0.1579 0.21369 0.19684 0.35158a0.56106 0.56106 0 0 1 0.021053 0.18737c0 0.08737-0.00421 0.12632-0.014737 0.16632a0.82632 0.82632 0 0 1-0.12 0.24211 0.67053 0.67053 0 0 1-0.32632 0.21158 0.75579 0.75579 0 0 1-0.28421 0.01053zm0.18316-0.24421a0.44 0.44 0 0 0 0.34-0.31474 0.4779 0.4779 0 0 0-0.12947-0.43474 0.40842 0.40842 0 0 0-0.49053-0.072636c-0.22737 0.11263-0.3 0.35369-0.18211 0.59685a0.51369 0.51369 0 0 0 0.18632 0.19474c0.086316 0.04211 0.17684 0.05158 0.27579 0.03053zm9.4737-1.0116a0.92422 0.92422 0 0 1-0.07894-0.01158l0.02947-0.27895 0.03158-0.27895a6.9369 6.9369 0 0 0-0.32105-0.035792 9.0748 9.0748 0 0 0-0.03158 0.26737 14.653 14.653 0 0 1-0.03158 0.26632 2.9126 2.9126 0 0 1-0.18632-0.022107c0-0.00105 0.01158-0.12 0.02842-0.26526s0.02842-0.26527 0.02737-0.26737a4.9053 4.9053 0 0 0-0.34421-0.03895 7.4737 7.4737 0 0 0-0.03474 0.28105 5.1495 5.1495 0 0 1-0.03684 0.28316 0.46632 0.46632 0 0 1-0.09263-0.00526c-0.0779-0.00842-0.08948-0.010527-0.08948-0.023159 0-0.01579 0.08948-0.8 0.09157-0.8a164.32 164.32 0 0 1 1.2358 0.14l-0.03158 0.29684c-0.06316 0.56106-0.05579 0.50527-0.07369 0.50316zm-1.1516-1.9895c-0.04527-0.12632-0.04527-0.12632-0.03158-0.14316 0.0084-0.010527 0.06316-0.073689 0.12421-0.14 0.22421-0.25053 0.25053-0.30526 0.20526-0.43895-0.01579-0.048421-0.02105-0.058948-0.03158-0.054737-0.06106 0.023158-0.48316 0.17369-0.48421 0.17158a2.4748 2.4748 0 0 1-0.07685-0.22421 95.751 95.751 0 0 1 1.1684-0.42106c0.0084 0.010527 0.16842 0.46948 0.17474 0.49895a0.54842 0.54842 0 0 1 0.0042 0.11263 0.24526 0.24526 0 0 1-0.03369 0.13368 0.30526 0.30526 0 0 1-0.14421 0.14842 0.32 0.32 0 0 1-0.38-0.052635l-0.02842-0.025265-0.0084 0.034739c-0.02105 0.082111-0.06527 0.14421-0.23474 0.32842a5.479 5.479 0 0 0-0.17579 0.1979zm0.74737-0.57474c0.10526-0.04 0.12632-0.12316 0.07053-0.28526a0.82 0.82 0 0 0-0.03684-0.093685 2.8737 2.8737 0 0 0-0.32421 0.11053l0.03263 0.092632c0.04211 0.11368 0.06632 0.14737 0.12632 0.17579a0.16211 0.16211 0 0 0 0.13053 0zm-8.9085 0.47053a0.89474 0.89474 0 0 1-0.10526-0.042108 0.29474 0.29474 0 0 1 0.049474-0.036844 0.88106 0.88106 0 0 0 0.11368-0.095785 0.39895 0.39895 0 0 0 0.12947-0.23684c0.00947-0.10211-0.043159-0.16842-0.13368-0.16842-0.047368 0-0.093685 0.031579-0.21474 0.14737-0.13895 0.13263-0.17263 0.15895-0.24842 0.19474a0.32632 0.32632 0 0 1-0.31053-0.012632c-0.22421-0.11895-0.20737-0.48632 0.034737-0.74211l0.046316-0.048421 0.10105 0.036842a0.82737 0.82737 0 0 1 0.1 0.038948 0.31579 0.31579 0 0 1-0.041053 0.037895 0.61474 0.61474 0 0 0-0.18737 0.26421c-0.036842 0.1179 0.00526 0.20737 0.096843 0.20737 0.057895 0 0.1-0.027369 0.22737-0.15158 0.13684-0.13369 0.16737-0.1579 0.24-0.19263a0.35158 0.35158 0 0 1 0.38948 0.069474c0.10316 0.098948 0.12947 0.25579 0.070527 0.42737a0.61053 0.61053 0 0 1-0.16526 0.26632 0.66 0.66 0 0 1-0.081053 0.074742 2.5895 2.5895 0 0 1-0.11158-0.037897zm0.57158-1.959-0.44-0.44316 0.20105-0.19895c0.21369-0.21053 0.2379-0.23053 0.33369-0.2579a0.30948 0.30948 0 0 1 0.11263-0.00947 0.24105 0.24105 0 0 1 0.12632 0.031579 0.36527 0.36527 0 0 1 0.20632 0.28842 0.35369 0.35369 0 0 1-0.044211 0.20421 0.62842 0.62842 0 0 1-0.14105 0.17369l-0.11053 0.11368 0.36737 0.36737-0.084211 0.085263-0.084211 0.084211zm0.2-0.32842c0.073685-0.07579 0.089474-0.096843 0.10105-0.13053a0.16632 0.16632 0 0 0 0.00842-0.068421 0.20421 0.20421 0 0 0-0.082105-0.12316c-0.031579-0.023158-0.042106-0.026317-0.081054-0.026317-0.06421 0-0.10105 0.021053-0.2 0.11579l-0.085263 0.082105 0.12 0.12c0.066316 0.066316 0.12211 0.12105 0.12526 0.12105 0.00211 0 0.04421-0.041053 0.092632-0.090527zm6.4106 0.61369a0.68632 0.68632 0 0 1-0.07369-0.090527c0-0.00842 0.86-0.80422 0.8958-0.82948 0.0179-0.012631 0.0179-0.011579 0.05264 0.025264l0.07894 0.089474 0.04632 0.050526-0.45369 0.41684a24.116 24.116 0 0 1-0.46316 0.4179 0.46737 0.46737 0 0 1-0.08316-0.08zm-4.9579-1.5179a22.937 22.937 0 0 1-0.24-0.57369 1.8842 1.8842 0 0 1 0.21684-0.097895 408.98 408.98 0 0 0 0.37895 0.88948c0.098947 0.22842 0.10842 0.25369 0.096843 0.26-0.02 0.010527-0.20105 0.088421-0.20632 0.088421-0.00211 0-0.11263-0.25474-0.24632-0.56632zm3.5358 0.50737a1.5284 1.5284 0 0 1-0.10105-0.054737l0.37895-0.77579c0.08106-0.16211 0.15053-0.30526 0.15684-0.31895l0.01053-0.023158 0.33684 0.16632 0.34105 0.16842a0.80527 0.80527 0 0 1-0.07895 0.16421 2.4463 2.4463 0 0 1-0.23474-0.10842 4.5948 4.5948 0 0 0-0.22948-0.10842 5.4653 5.4653 0 0 0-0.07158 0.14316l-0.06948 0.14 0.22948 0.11368 0.23158 0.11368a0.94106 0.94106 0 0 1-0.0379 0.087369l-0.04 0.085263-0.0758-0.03579a9.0674 9.0674 0 0 1-0.23367-0.11368l-0.1579-0.078948-0.11895 0.24316a2.8937 2.8937 0 0 1-0.12632 0.24316c-0.0042 0-0.05263-0.023158-0.10947-0.050526zm-1.7105-0.8379v-0.52632l-0.21895-0.00316-0.22-0.00211-0.00211-0.093685-0.00211-0.094738h1.1295v0.18527h-0.44211v1.0632h-0.24421z" fill="#2e3440" filter="url(#filter1088)" opacity=".5" stroke="#2e3440" stroke-linejoin="round" stroke-width=".086782"/>
 <path d="m8.7018 13.779a24.021 24.021 0 0 1-0.13579-0.80211 0.4779 0.4779 0 0 1 0.00737-0.12211c0.041053-0.21684 0.2179-0.3579 0.50316-0.40211 0.23158-0.03579 0.42106 0.02947 0.52632 0.18105 0.066316 0.09368 0.07579 0.12842 0.15263 0.56632 0.03895 0.21684 0.06842 0.39684 0.06632 0.4a1.5632 1.5632 0 0 1-0.23263 0.0379 10.62 10.62 0 0 1-0.069474-0.37369 9.1864 9.1864 0 0 0-0.078948-0.41474c-0.047368-0.15368-0.20316-0.22632-0.38421-0.17895-0.14105 0.03474-0.22105 0.11053-0.24211 0.22737-0.010527 0.06-0.010527 0.06632 0.063159 0.48737 0.034737 0.19684 0.062106 0.36106 0.060001 0.36526a0.41053 0.41053 0 0 1-0.10526 0.02527 3.1011 3.1011 0 0 0-0.11579 0.02105c-0.00737 0.0021-0.012631-0.0032-0.01579-0.01684zm-1.9684-0.23684a7.6969 7.6969 0 0 1-0.30211-0.11895 0.72316 0.72316 0 0 1-0.18947-0.14316 0.54948 0.54948 0 0 1-0.16526-0.40526 0.64211 0.64211 0 0 1 0.18737-0.46 0.54737 0.54737 0 0 1 0.34421-0.16526 0.65264 0.65264 0 0 1 0.25474 0.01895c0.084211 0.02105 0.58316 0.20526 0.58106 0.21474 0 0.0053-0.40737 1.099-0.42632 1.1484-0.00316 0.0074-0.00737 0.01263-0.010527 0.01263zm0.27053-0.56842c0.083158-0.22105 0.14947-0.40211 0.14737-0.40316a4.0053 4.0053 0 0 0-0.32632-0.11474 0.50421 0.50421 0 0 0-0.22105 0.01369c-0.12316 0.04527-0.21053 0.14316-0.26316 0.29263a0.37263 0.37263 0 0 0-0.016842 0.14842v0.09684l0.031579 0.06527a0.41053 0.41053 0 0 0 0.17895 0.18421c0.061053 0.03158 0.29263 0.12211 0.30948 0.12 0.00632-0.0011 0.063159-0.14211 0.16-0.40316zm4.0379-0.65579a35.541 35.541 0 0 1-0.60316-0.30526c0-0.0021 0.15684-0.13263 0.18316-0.15158 0.01053-0.0074 0.03579 0.0032 0.15684 0.06421 0.0779 0.04 0.14526 0.07264 0.14947 0.07158 0.0032-0.0011 0.1-0.08 0.21368-0.17474l0.20842-0.17369-0.04948-0.15474a1.1158 1.1158 0 0 1-0.04527-0.16 3.4527 3.4527 0 0 1 0.18948-0.15263c0.0021 0.0011 0.08842 0.27579 0.19263 0.61053l0.19895 0.64106 0.01053 0.03158-0.09368 0.07684a0.83579 0.83579 0 0 1-0.10106 0.07685c-0.0042 0-0.27895-0.13579-0.61053-0.3zm0.53158 0.0042-0.1579-0.47684a0.89685 0.89685 0 0 0-0.15474 0.11791c-0.08422 0.06948-0.14948 0.12842-0.14632 0.13158 0.0084 0.0084 0.44737 0.23579 0.45579 0.23579 0.0032 0 0.0042-0.0042 0.0032-0.0084zm-6.9874-0.09053-0.084211-0.08422 0.43474-0.44c0.24-0.24211 0.43895-0.43895 0.44211-0.43895 0.010527 0 0.16632 0.15579 0.16632 0.16632 0 0.0032-0.19684 0.20421-0.43684 0.44421l-0.4379 0.43687zm-0.77053-1.5053c-0.23895-0.046319-0.42737-0.22737-0.51263-0.49158a0.66316 0.66316 0 0 1 0.069474-0.58737 0.63579 0.63579 0 0 1 0.59263-0.27579 0.61369 0.61369 0 0 1 0.3779 0.18421c0.088421 0.088416 0.1579 0.21369 0.19684 0.35158a0.56106 0.56106 0 0 1 0.021053 0.18737c0 0.08737-0.00421 0.12632-0.014737 0.16632a0.82632 0.82632 0 0 1-0.12 0.24211 0.67053 0.67053 0 0 1-0.32632 0.21158 0.75579 0.75579 0 0 1-0.28421 0.01053zm0.18316-0.24421a0.44 0.44 0 0 0 0.34-0.31474 0.4779 0.4779 0 0 0-0.12947-0.43474 0.40842 0.40842 0 0 0-0.49053-0.072636c-0.22737 0.11263-0.3 0.35369-0.18211 0.59685a0.51369 0.51369 0 0 0 0.18632 0.19474c0.086316 0.04211 0.17684 0.05158 0.27579 0.03053zm9.4737-1.0116a0.92422 0.92422 0 0 1-0.07894-0.01158l0.02947-0.27895 0.03158-0.27895a6.9369 6.9369 0 0 0-0.32105-0.035792 9.0748 9.0748 0 0 0-0.03158 0.26737 14.653 14.653 0 0 1-0.03158 0.26632 2.9126 2.9126 0 0 1-0.18632-0.022107c0-0.00105 0.01158-0.12 0.02842-0.26526s0.02842-0.26527 0.02737-0.26737a4.9053 4.9053 0 0 0-0.34421-0.03895 7.4737 7.4737 0 0 0-0.03474 0.28105 5.1495 5.1495 0 0 1-0.03684 0.28316 0.46632 0.46632 0 0 1-0.09263-0.00526c-0.0779-0.00842-0.08948-0.010527-0.08948-0.023159 0-0.01579 0.08948-0.8 0.09157-0.8a164.32 164.32 0 0 1 1.2358 0.14l-0.03158 0.29684c-0.06316 0.56106-0.05579 0.50527-0.07369 0.50316zm-1.1516-1.9895c-0.04527-0.12632-0.04527-0.12632-0.03158-0.14316 0.0084-0.010527 0.06316-0.073689 0.12421-0.14 0.22421-0.25053 0.25053-0.30526 0.20526-0.43895-0.01579-0.048421-0.02105-0.058948-0.03158-0.054737-0.06106 0.023158-0.48316 0.17369-0.48421 0.17158a2.4748 2.4748 0 0 1-0.07685-0.22421 95.751 95.751 0 0 1 1.1684-0.42106c0.0084 0.010527 0.16842 0.46948 0.17474 0.49895a0.54842 0.54842 0 0 1 0.0042 0.11263 0.24526 0.24526 0 0 1-0.03369 0.13368 0.30526 0.30526 0 0 1-0.14421 0.14842 0.32 0.32 0 0 1-0.38-0.052635l-0.02842-0.025265-0.0084 0.034739c-0.02105 0.082111-0.06527 0.14421-0.23474 0.32842a5.479 5.479 0 0 0-0.17579 0.1979zm0.74737-0.57474c0.10526-0.04 0.12632-0.12316 0.07053-0.28526a0.82 0.82 0 0 0-0.03684-0.093685 2.8737 2.8737 0 0 0-0.32421 0.11053l0.03263 0.092632c0.04211 0.11368 0.06632 0.14737 0.12632 0.17579a0.16211 0.16211 0 0 0 0.13053 0zm-8.9085 0.47053a0.89474 0.89474 0 0 1-0.10526-0.042108 0.29474 0.29474 0 0 1 0.049474-0.036844 0.88106 0.88106 0 0 0 0.11368-0.095785 0.39895 0.39895 0 0 0 0.12947-0.23684c0.00947-0.10211-0.043159-0.16842-0.13368-0.16842-0.047368 0-0.093685 0.031579-0.21474 0.14737-0.13895 0.13263-0.17263 0.15895-0.24842 0.19474a0.32632 0.32632 0 0 1-0.31053-0.012632c-0.22421-0.11895-0.20737-0.48632 0.034737-0.74211l0.046316-0.048421 0.10105 0.036842a0.82737 0.82737 0 0 1 0.1 0.038948 0.31579 0.31579 0 0 1-0.041053 0.037895 0.61474 0.61474 0 0 0-0.18737 0.26421c-0.036842 0.1179 0.00526 0.20737 0.096843 0.20737 0.057895 0 0.1-0.027369 0.22737-0.15158 0.13684-0.13369 0.16737-0.1579 0.24-0.19263a0.35158 0.35158 0 0 1 0.38948 0.069474c0.10316 0.098948 0.12947 0.25579 0.070527 0.42737a0.61053 0.61053 0 0 1-0.16526 0.26632 0.66 0.66 0 0 1-0.081053 0.074742 2.5895 2.5895 0 0 1-0.11158-0.037897zm0.57158-1.959-0.44-0.44316 0.20105-0.19895c0.21369-0.21053 0.2379-0.23053 0.33369-0.2579a0.30948 0.30948 0 0 1 0.11263-0.00947 0.24105 0.24105 0 0 1 0.12632 0.031579 0.36527 0.36527 0 0 1 0.20632 0.28842 0.35369 0.35369 0 0 1-0.044211 0.20421 0.62842 0.62842 0 0 1-0.14105 0.17369l-0.11053 0.11368 0.36737 0.36737-0.084211 0.085263-0.084211 0.084211zm0.2-0.32842c0.073685-0.07579 0.089474-0.096843 0.10105-0.13053a0.16632 0.16632 0 0 0 0.00842-0.068421 0.20421 0.20421 0 0 0-0.082105-0.12316c-0.031579-0.023158-0.042106-0.026317-0.081054-0.026317-0.06421 0-0.10105 0.021053-0.2 0.11579l-0.085263 0.082105 0.12 0.12c0.066316 0.066316 0.12211 0.12105 0.12526 0.12105 0.00211 0 0.04421-0.041053 0.092632-0.090527zm6.4106 0.61369a0.68632 0.68632 0 0 1-0.07369-0.090527c0-0.00842 0.86-0.80422 0.8958-0.82948 0.0179-0.012631 0.0179-0.011579 0.05264 0.025264l0.07894 0.089474 0.04632 0.050526-0.45369 0.41684a24.116 24.116 0 0 1-0.46316 0.4179 0.46737 0.46737 0 0 1-0.08316-0.08zm-4.9579-1.5179a22.937 22.937 0 0 1-0.24-0.57369 1.8842 1.8842 0 0 1 0.21684-0.097895 408.98 408.98 0 0 0 0.37895 0.88948c0.098947 0.22842 0.10842 0.25369 0.096843 0.26-0.02 0.010527-0.20105 0.088421-0.20632 0.088421-0.00211 0-0.11263-0.25474-0.24632-0.56632zm3.5358 0.50737a1.5284 1.5284 0 0 1-0.10105-0.054737l0.37895-0.77579c0.08106-0.16211 0.15053-0.30526 0.15684-0.31895l0.01053-0.023158 0.33684 0.16632 0.34105 0.16842a0.80527 0.80527 0 0 1-0.07895 0.16421 2.4463 2.4463 0 0 1-0.23474-0.10842 4.5948 4.5948 0 0 0-0.22948-0.10842 5.4653 5.4653 0 0 0-0.07158 0.14316l-0.06948 0.14 0.22948 0.11368 0.23158 0.11368a0.94106 0.94106 0 0 1-0.0379 0.087369l-0.04 0.085263-0.0758-0.03579a9.0674 9.0674 0 0 1-0.23367-0.11368l-0.1579-0.078948-0.11895 0.24316a2.8937 2.8937 0 0 1-0.12632 0.24316c-0.0042 0-0.05263-0.023158-0.10947-0.050526zm-1.7105-0.8379v-0.52632l-0.21895-0.00316-0.22-0.00211-0.00211-0.093685-0.00211-0.094738h1.1295v0.18527h-0.44211v1.0632h-0.24421z" fill="#eceff4" stroke="#eceff4" stroke-linejoin="round" stroke-width=".086782"/>
</svg>
