<?xml version="1.0" encoding="UTF-8" standalone="no"?>
<svg
   width="64"
   height="64"
   version="1.1"
   viewBox="0 0 16.933 16.933"
   id="svg163"
   sodipodi:docname="spitfire.svg"
   inkscape:version="1.2.2 (b0a8486541, 2022-12-01)"
   xmlns:inkscape="http://www.inkscape.org/namespaces/inkscape"
   xmlns:sodipodi="http://sodipodi.sourceforge.net/DTD/sodipodi-0.dtd"
   xmlns="http://www.w3.org/2000/svg"
   xmlns:svg="http://www.w3.org/2000/svg">
  <sodipodi:namedview
     id="namedview165"
     pagecolor="#505050"
     bordercolor="#eeeeee"
     borderopacity="1"
     inkscape:showpageshadow="0"
     inkscape:pageopacity="0"
     inkscape:pagecheckerboard="0"
     inkscape:deskcolor="#505050"
     showgrid="false"
     inkscape:zoom="12.546875"
     inkscape:cx="28.054795"
     inkscape:cy="31.960149"
     inkscape:window-width="1920"
     inkscape:window-height="1019"
     inkscape:window-x="0"
     inkscape:window-y="31"
     inkscape:window-maximized="1"
     inkscape:current-layer="svg163" />
  <defs
     id="defs151">
    <linearGradient
       id="a"
       x1="8.587"
       x2="8.587"
       y1="15.747"
       y2="1.097"
       gradientTransform="matrix(1.0178,0,0,1.0178,-0.15083,0.09009917)"
       gradientUnits="userSpaceOnUse">
      <stop
         stop-color="#2e3440"
         offset="0"
         id="stop135" />
      <stop
         stop-color="#4c566a"
         offset="1"
         id="stop137" />
    </linearGradient>
    <filter
       id="filter1078"
       x="-0.02631447"
       y="-0.027723006"
       width="1.0526289"
       height="1.055446"
       color-interpolation-filters="sRGB">
      <feGaussianBlur
         stdDeviation="0.45999875"
         id="feGaussianBlur140" />
    </filter>
    <linearGradient
       id="linearGradient467"
       x1="8.8655"
       x2="8.8655"
       y1="3.3171"
       y2="13.735"
       gradientUnits="userSpaceOnUse">
      <stop
         stop-color="#eceff4"
         offset="0"
         id="stop143" />
      <stop
         stop-color="#d8dee9"
         offset="1"
         id="stop145" />
    </linearGradient>
    <filter
       id="filter1178"
       x="-0.047999482"
       y="-0.047999482"
       width="1.095999"
       height="1.095999"
       color-interpolation-filters="sRGB">
      <feGaussianBlur
         stdDeviation="0.30691668"
         id="feGaussianBlur148" />
    </filter>
    <filter
       inkscape:collect="always"
       style="color-interpolation-filters:sRGB"
       id="filter856"
       x="-0.027333807"
       y="-0.026674247"
       width="1.0546676"
       height="1.0533485">
      <feGaussianBlur
         inkscape:collect="always"
         stdDeviation="0.11257458"
         id="feGaussianBlur858" />
    </filter>
  </defs>
  <g
     transform="translate(-.00025546 -.11386)"
     id="g155">
    <rect
       transform="matrix(.99138 0 0 1 .072989 .0019055)"
       x=".79375"
       y=".90545"
       width="15.346"
       height="15.346"
       rx="3.0526"
       ry="3.0526"
       fill="#000000"
       filter="url(#filter1178)"
       opacity=".15"
       stroke-linecap="round"
       stroke-linejoin="round"
       stroke-width="1.2489"
       style="mix-blend-mode:normal"
       id="rect153" />
  </g>
  <rect
     x="0.92602003"
     y="1.1587992"
     width="15.081"
     height="15.081"
     rx="3.0536001"
     ry="3.0534999"
     fill="url(#a)"
     stroke-width="1.0178"
     id="rect157"
     style="fill:url(#a)" />
  <path
     style="opacity:0.5;fill:#2e3440;fill-opacity:1;stroke-width:0.00701054;filter:url(#filter856)"
     d="m 8.690016,13.746287 a 22.818653,22.818653 0 0 1 -0.128993,-0.761955 0.4539732,0.4539732 0 0 1 0.007,-0.115993 c 0.039,-0.205988 0.206988,-0.33998 0.477972,-0.381978 0.219987,-0.034 0.399977,0.028 0.499971,0.17199 0.063,0.08899 0.072,0.121993 0.144991,0.537968 0.037,0.205988 0.065,0.376978 0.063,0.379978 a 1.4849123,1.4849123 0 0 1 -0.220987,0.036 10.088404,10.088404 0 0 1 -0.066,-0.354979 8.7264848,8.7264848 0 0 0 -0.075,-0.393977 c -0.045,-0.145991 -0.192988,-0.214987 -0.364978,-0.16999 -0.133992,0.033 -0.209988,0.104994 -0.229987,0.215987 -0.01,0.057 -0.01,0.063 0.06,0.462973 0.033,0.186989 0.059,0.34298 0.057,0.346979 a 0.38997697,0.38997697 0 0 1 -0.09999,0.024 2.9458261,2.9458261 0 0 0 -0.109993,0.02 c -0.007,0.002 -0.012,-0.003 -0.015,-0.016 z M 6.820126,13.5213 A 7.3115683,7.3115683 0 0 1 6.533143,13.408307 0.68695944,0.68695944 0 0 1 6.353154,13.272315 0.52196918,0.52196918 0 0 1 6.196163,12.887338 a 0.60996399,0.60996399 0 0 1 0.177989,-0.436975 0.5199693,0.5199693 0 0 1 0.326981,-0.15699 0.6199634,0.6199634 0 0 1 0.241986,0.018 c 0.08,0.02 0.553967,0.194988 0.551967,0.203988 0,0.005 -0.386977,1.043938 -0.404976,1.090935 -0.003,0.007 -0.007,0.012 -0.01,0.012 z m 0.256985,-0.539968 c 0.07899,-0.209988 0.141992,-0.381977 0.139992,-0.382977 a 3.8047754,3.8047754 0 0 0 -0.309982,-0.108994 0.47897172,0.47897172 0 0 0 -0.209988,0.013 c -0.116993,0.043 -0.199988,0.135992 -0.249985,0.277984 a 0.3539791,0.3539791 0 0 0 -0.016,0.140992 v 0.09199 l 0.03,0.062 a 0.38997697,0.38997697 0 0 0 0.16999,0.17499 c 0.058,0.03 0.277984,0.115993 0.293983,0.113993 0.006,-10e-4 0.06,-0.134992 0.151991,-0.382977 z m 3.835773,-0.622963 a 33.762007,33.762007 0 0 1 -0.572966,-0.289983 c 0,-0.002 0.148991,-0.125993 0.17399,-0.143992 0.01,-0.007 0.034,0.003 0.148992,0.061 0.074,0.038 0.137991,0.069 0.14199,0.068 0.003,-0.001 0.09499,-0.076 0.202989,-0.16599 l 0.197988,-0.164991 -0.047,-0.146991 a 1.0599374,1.0599374 0 0 1 -0.043,-0.151991 3.2798063,3.2798063 0 0 1 0.179988,-0.144991 c 0.002,9.99e-4 0.08399,0.261984 0.182989,0.579965 l 0.188989,0.608964 0.01,0.03 -0.08899,0.07299 a 0.79395312,0.79395312 0 0 1 -0.096,0.073 c -0.004,0 -0.264984,-0.128992 -0.579965,-0.284983 z m 0.50497,0.004 -0.149991,-0.452974 a 0.8519497,0.8519497 0 0 0 -0.146991,0.111994 c -0.08,0.066 -0.141992,0.121992 -0.138992,0.124992 0.008,0.008 0.424975,0.223987 0.432974,0.223987 0.003,0 0.004,-0.004 0.003,-0.008 z m -6.637607,-0.086 -0.08,-0.08 0.412975,-0.417975 c 0.227987,-0.229986 0.416976,-0.416975 0.419975,-0.416975 0.01,0 0.157991,0.147991 0.157991,0.15799 0,0.003 -0.186989,0.193989 -0.414975,0.421975 L 4.860237,12.356369 Z M 4.04829,10.846458 c -0.226987,-0.044 -0.405976,-0.215987 -0.486971,-0.466972 a 0.6299628,0.6299628 0 0 1 0.066,-0.5579672 0.60396434,0.60396434 0 0 1 0.562966,-0.261985 0.58296558,0.58296558 0 0 1 0.358979,0.17499 c 0.08399,0.08399 0.149991,0.202988 0.186989,0.3339802 a 0.53296853,0.53296853 0 0 1 0.02,0.177989 c 0,0.083 -0.004,0.119993 -0.014,0.157991 a 0.78495365,0.78495365 0 0 1 -0.113993,0.229987 0.63696239,0.63696239 0 0 1 -0.309982,0.200988 0.71795761,0.71795761 0 0 1 -0.269984,0.01 z M 4.22228,10.614472 A 0.41797532,0.41797532 0 0 0 4.54526,10.315489 0.4539732,0.4539732 0 0 0 4.422268,9.9025138 0.38797709,0.38797709 0 0 0 3.956295,9.8335138 C 3.740308,9.9405078 3.671312,10.169494 3.783306,10.40048 a 0.48797119,0.48797119 0 0 0 0.176989,0.184989 c 0.082,0.04 0.16799,0.049 0.261985,0.029 z m 8.999467,-0.9609442 a 0.87794816,0.87794816 0 0 1 -0.07499,-0.011 l 0.028,-0.264984 0.03,-0.264985 a 6.5896109,6.5896109 0 0 0 -0.304982,-0.034 8.620491,8.620491 0 0 0 -0.03,0.253985 13.919178,13.919178 0 0 1 -0.03,0.252985 2.7668366,2.7668366 0 0 1 -0.176991,-0.021 c 0,-10e-4 0.011,-0.113994 0.027,-0.251985 0.016,-0.137992 0.027,-0.251986 0.026,-0.253985 a 4.6597249,4.6597249 0 0 0 -0.32698,-0.037 7.0995808,7.0995808 0 0 0 -0.033,0.266984 4.8917112,4.8917112 0 0 1 -0.035,0.268984 0.44297385,0.44297385 0 0 1 -0.08799,-0.005 c -0.074,-0.008 -0.085,-0.01 -0.085,-0.022 0,-0.015 0.085,-0.759955 0.08699,-0.759955 a 156.09078,156.09078 0 0 1 1.173929,0.132992 l -0.03,0.281983 c -0.06,0.532969 -0.053,0.479972 -0.07,0.477972 z m -1.093935,-1.889888 c -0.043,-0.119993 -0.043,-0.119993 -0.03,-0.135992 0.008,-0.01 0.06,-0.07 0.117994,-0.132992 0.212986,-0.237986 0.237986,-0.2899829 0.194988,-0.4169754 -0.015,-0.045997 -0.02,-0.055997 -0.03,-0.051997 -0.058,0.021999 -0.458973,0.1649903 -0.459973,0.1629904 a 2.3508612,2.3508612 0 0 1 -0.073,-0.2129874 90.95763,90.95763 0 0 1 1.109935,-0.3999764 c 0.008,0.01 0.159991,0.4459737 0.16599,0.473972 a 0.52096924,0.52096924 0 0 1 0.004,0.1069937 0.23298624,0.23298624 0 0 1 -0.032,0.1269925 0.28998288,0.28998288 0 0 1 -0.136991,0.1409916 0.30398205,0.30398205 0 0 1 -0.36098,-0.05 l -0.027,-0.024 -0.008,0.033 c -0.02,0.078 -0.062,0.136991 -0.222987,0.311981 a 5.2046927,5.2046927 0 0 0 -0.166991,0.187989 z M 12.83777,7.2176721 c 0.09999,-0.037998 0.119993,-0.1169931 0.067,-0.270984 a 0.77895401,0.77895401 0 0 0 -0.035,-0.088995 2.7298388,2.7298388 0 0 0 -0.307983,0.1049938 l 0.031,0.087995 c 0.04,0.1079936 0.063,0.1399917 0.119993,0.1669901 a 0.15399091,0.15399091 0 0 0 0.123992,0 z M 4.375271,7.6646458 a 0.84994982,0.84994982 0 0 1 -0.09999,-0.04 0.27998347,0.27998347 0 0 1 0.047,-0.035 0.83695058,0.83695058 0 0 0 0.107993,-0.09099 0.37897762,0.37897762 0 0 0 0.122993,-0.224987 c 0.009,-0.096994 -0.041,-0.1599906 -0.126993,-0.1599906 -0.045,0 -0.089,0.029998 -0.203988,0.1399918 C 4.090294,7.3796628 4.058296,7.4046608 3.9863,7.4386588 a 0.3099817,0.3099817 0 0 1 -0.294982,-0.012 C 3.47833,7.3136668 3.49433,6.964687 3.724318,6.7217014 l 0.044,-0.045997 0.09599,0.034998 a 0.78595359,0.78595359 0 0 1 0.09499,0.036998 0.29998229,0.29998229 0 0 1 -0.039,0.035998 0.58396552,0.58396552 0 0 0 -0.17799,0.2509852 c -0.035,0.1119934 0.005,0.1969884 0.09199,0.1969884 0.055,0 0.09499,-0.025999 0.215988,-0.1439915 C 4.180279,6.9606873 4.209277,6.9376886 4.278273,6.9046906 a 0.33398028,0.33398028 0 0 1 0.369978,0.065996 c 0.09799,0.093994 0.122993,0.2429856 0.067,0.4059762 a 0.57996576,0.57996576 0 0 1 -0.15699,0.252985 0.62696298,0.62696298 0 0 1 -0.077,0.071 2.4598548,2.4598548 0 0 1 -0.105994,-0.036 z M 4.918238,5.8037556 4.500263,5.3827804 4.691252,5.1937916 C 4.89424,4.9938034 4.917239,4.9748045 5.008233,4.9488061 a 0.29398264,0.29398264 0 0 1 0.106994,-0.009 0.22898648,0.22898648 0 0 1 0.119993,0.029998 0.34697951,0.34697951 0 0 1 0.195988,0.2739839 0.33598016,0.33598016 0 0 1 -0.042,0.1939885 0.59696475,0.59696475 0 0 1 -0.133992,0.1649903 l -0.104994,0.1079936 0.17499,0.1749896 0.17399,0.1739898 -0.08,0.080995 -0.08,0.079995 z M 5.108227,5.491774 c 0.07,-0.071996 0.08499,-0.091995 0.09599,-0.1239927 a 0.15799067,0.15799067 0 0 0 0.008,-0.064996 0.19398855,0.19398855 0 0 0 -0.078,-0.1169931 c -0.03,-0.021999 -0.04,-0.024999 -0.077,-0.024999 -0.061,0 -0.09599,0.019999 -0.189988,0.1099935 l -0.08099,0.077995 0.113993,0.1139932 c 0.063,0.062996 0.115993,0.1149932 0.118993,0.1149932 0.002,0 0.042,-0.038998 0.08799,-0.085995 z m 6.089641,0.5829656 a 0.65196151,0.65196151 0 0 1 -0.07,-0.085995 c 0,-0.008 0.816952,-0.7639549 0.850949,-0.7879535 0.017,-0.011999 0.017,-0.010999 0.05,0.023999 l 0.07499,0.084995 0.044,0.047997 -0.430975,0.3959766 A 22.908647,22.908647 0 0 1 11.27686,6.150735 0.44397379,0.44397379 0 0 1 11.19786,6.07474 Z M 6.488146,4.6328247 A 21.788714,21.788714 0 0 1 6.260159,4.0878569 1.7898943,1.7898943 0 0 1 6.466147,3.9948624 388.50506,388.50506 0 0 0 6.826126,4.8398125 c 0.09399,0.2169872 0.102994,0.2409858 0.092,0.2469854 -0.019,0.01 -0.190989,0.083995 -0.195989,0.083995 -0.002,0 -0.106993,-0.2419858 -0.233986,-0.5379682 z M 9.846947,5.1147963 A 1.4519143,1.4519143 0 0 1 9.750953,5.0627993 l 0.359978,-0.7369565 c 0.077,-0.1539909 0.142992,-0.2899828 0.148992,-0.3029821 l 0.01,-0.021999 0.319981,0.1579907 0.323981,0.1599906 a 0.76495483,0.76495483 0 0 1 -0.075,0.1559911 2.3238628,2.3238628 0 0 1 -0.222986,-0.102994 4.3647423,4.3647423 0 0 0 -0.217987,-0.1029939 5.1916935,5.1916935 0 0 0 -0.068,0.135992 l -0.066,0.1329921 0.217987,0.1079937 0.219988,0.1079936 a 0.89394722,0.89394722 0 0 1 -0.036,0.082995 l -0.038,0.080995 -0.072,-0.033998 A 8.6134914,8.6134914 0 0 1 10.333918,4.7758163 L 10.183927,4.7008207 10.070934,4.9318071 A 2.7488377,2.7488377 0 0 1 9.950941,5.1627934 c -0.004,0 -0.05,-0.021999 -0.103994,-0.047997 z M 8.222043,4.3188433 V 3.8188728 l -0.207987,-0.003 -0.208988,-0.002 -0.002,-0.088995 -0.002,-0.089995 H 8.874005 V 3.8108733 H 8.45403 V 4.8208136 H 8.222043 Z"
     id="path4-3" />
  <path
     style="fill:#ffffff;fill-opacity:1;stroke-width:0.00701054"
     d="m 8.6900152,13.746287 a 22.818653,22.818653 0 0 1 -0.1289923,-0.761955 0.4539732,0.4539732 0 0 1 0.007,-0.115993 c 0.038998,-0.205988 0.2069878,-0.33998 0.4779718,-0.381978 0.219987,-0.034 0.3999764,0.028 0.4999705,0.17199 0.062996,0.08899 0.071996,0.121993 0.1449914,0.537968 0.036998,0.205988 0.064996,0.376978 0.062996,0.379978 a 1.4849123,1.4849123 0 0 1 -0.2209869,0.036 10.088404,10.088404 0 0 1 -0.065996,-0.354979 8.7264848,8.7264848 0 0 0 -0.074996,-0.393977 c -0.044997,-0.145991 -0.1929886,-0.214987 -0.3649785,-0.16999 -0.133992,0.033 -0.2099876,0.104994 -0.2299864,0.215987 -0.01,0.057 -0.01,0.063 0.059997,0.462973 0.032998,0.186989 0.058997,0.34298 0.056997,0.346979 a 0.38997697,0.38997697 0 0 1 -0.099994,0.024 2.9458261,2.9458261 0 0 0 -0.1099935,0.02 c -0.007,0.002 -0.011999,-0.003 -0.014999,-0.016 z M 6.8201256,13.5213 A 7.3115683,7.3115683 0 0 1 6.5331426,13.408307 0.68695944,0.68695944 0 0 1 6.3531532,13.272315 0.52196918,0.52196918 0 0 1 6.1961625,12.887338 0.60996399,0.60996399 0 0 1 6.374152,12.450363 a 0.5199693,0.5199693 0 0 1 0.3269807,-0.15699 0.6199634,0.6199634 0 0 1 0.2419857,0.018 c 0.079995,0.02 0.5539673,0.194988 0.5519674,0.203988 0,0.005 -0.3869772,1.043938 -0.4049761,1.090935 -0.003,0.007 -0.007,0.012 -0.01,0.012 z m 0.2569849,-0.539968 c 0.078995,-0.209988 0.1419916,-0.381977 0.1399917,-0.382977 a 3.8047754,3.8047754 0 0 0 -0.3099817,-0.108994 0.47897172,0.47897172 0 0 0 -0.2099876,0.013 c -0.1169931,0.043 -0.1999882,0.135992 -0.2499852,0.277984 a 0.3539791,0.3539791 0 0 0 -0.015999,0.140992 v 0.09199 l 0.029998,0.062 a 0.38997697,0.38997697 0 0 0 0.16999,0.17499 c 0.057997,0.03 0.2779836,0.115993 0.2939826,0.113993 0.006,-10e-4 0.059997,-0.134992 0.1519911,-0.382977 z m 3.8357735,-0.622963 a 33.762007,33.762007 0 0 1 -0.572966,-0.289983 c 0,-0.002 0.148991,-0.125993 0.17399,-0.143992 0.01,-0.007 0.034,0.003 0.148991,0.061 0.074,0.038 0.137992,0.069 0.141991,0.068 0.003,-0.001 0.09499,-0.076 0.202988,-0.16599 l 0.197989,-0.164991 -0.047,-0.146991 a 1.0599374,1.0599374 0 0 1 -0.043,-0.151991 3.2798063,3.2798063 0 0 1 0.179989,-0.144991 c 0.002,9.99e-4 0.08399,0.261984 0.182989,0.579965 l 0.188989,0.608964 0.01,0.03 -0.08899,0.07299 a 0.79395312,0.79395312 0 0 1 -0.096,0.073 c -0.004,0 -0.264984,-0.128992 -0.579965,-0.284983 z m 0.50497,0.004 -0.149991,-0.452974 a 0.8519497,0.8519497 0 0 0 -0.146991,0.111994 c -0.08,0.066 -0.141992,0.121992 -0.138992,0.124992 0.008,0.008 0.424975,0.223987 0.432974,0.223987 0.003,0 0.004,-0.004 0.003,-0.008 z m -6.6376079,-0.086 -0.079995,-0.08 0.4129756,-0.417975 c 0.2279866,-0.229986 0.4169754,-0.416975 0.4199752,-0.416975 0.01,0 0.1579907,0.147991 0.1579907,0.15799 0,0.003 -0.186989,0.193989 -0.4149755,0.421975 L 4.8602414,12.356369 Z M 4.0482893,10.846458 c -0.2269866,-0.044 -0.405976,-0.215987 -0.4869712,-0.466972 a 0.6299628,0.6299628 0 0 1 0.065996,-0.557967 0.60396434,0.60396434 0 0 1 0.5629667,-0.261985 0.58296558,0.58296558 0 0 1 0.3589788,0.17499 c 0.083995,0.08399 0.1499912,0.202988 0.186989,0.33398 a 0.53296853,0.53296853 0 0 1 0.019999,0.177989 c 0,0.083 -0.004,0.119993 -0.013999,0.157991 a 0.78495365,0.78495365 0 0 1 -0.1139932,0.229987 0.63696239,0.63696239 0 0 1 -0.3099817,0.200988 0.71795761,0.71795761 0 0 1 -0.2699841,0.01 z M 4.222279,10.614472 A 0.41797532,0.41797532 0 0 0 4.54526,10.315489 0.4539732,0.4539732 0 0 0 4.4222672,9.902514 0.38797709,0.38797709 0 0 0 3.9562947,9.833514 C 3.7403075,9.940508 3.6713116,10.169494 3.783305,10.40048 a 0.48797119,0.48797119 0 0 0 0.1769895,0.184989 c 0.081995,0.04 0.1679901,0.049 0.2619845,0.029 z m 8.999468,-0.960944 a 0.87794816,0.87794816 0 0 1 -0.07499,-0.011 l 0.028,-0.264984 0.03,-0.264985 a 6.5896109,6.5896109 0 0 0 -0.304982,-0.034 8.620491,8.620491 0 0 0 -0.03,0.253985 13.919178,13.919178 0 0 1 -0.03,0.252985 2.7668366,2.7668366 0 0 1 -0.17699,-0.021 c 0,-10e-4 0.011,-0.113994 0.027,-0.251985 0.016,-0.137992 0.027,-0.251986 0.026,-0.253985 a 4.6597249,4.6597249 0 0 0 -0.32698,-0.037 7.0995808,7.0995808 0 0 0 -0.033,0.266984 4.8917112,4.8917112 0 0 1 -0.035,0.268984 0.44297385,0.44297385 0 0 1 -0.08799,-0.005 c -0.074,-0.008 -0.085,-0.01 -0.085,-0.022 0,-0.015 0.085,-0.759955 0.08699,-0.759955 a 156.09078,156.09078 0 0 1 1.17393,0.132992 l -0.03,0.281983 c -0.06,0.532969 -0.053,0.479972 -0.07,0.477972 z M 12.127812,7.76364 c -0.043,-0.119993 -0.043,-0.119993 -0.03,-0.135992 0.008,-0.01 0.06,-0.07 0.117993,-0.132992 0.212987,-0.237986 0.237986,-0.2899829 0.194988,-0.4169754 -0.015,-0.045997 -0.02,-0.055997 -0.03,-0.051997 -0.058,0.021999 -0.458973,0.1649903 -0.459973,0.1629904 a 2.3508612,2.3508612 0 0 1 -0.073,-0.2129874 90.95763,90.95763 0 0 1 1.109935,-0.3999764 c 0.008,0.01 0.159991,0.4459737 0.16599,0.473972 a 0.52096924,0.52096924 0 0 1 0.004,0.1069937 0.23298624,0.23298624 0 0 1 -0.032,0.1269925 0.28998288,0.28998288 0 0 1 -0.136992,0.1409916 0.30398205,0.30398205 0 0 1 -0.360979,-0.05 l -0.027,-0.024 -0.008,0.033 c -0.02,0.078 -0.062,0.136991 -0.222987,0.311981 A 5.2046927,5.2046927 0 0 0 12.172797,7.88363 Z M 12.83777,7.2176723 c 0.09999,-0.037998 0.119993,-0.1169931 0.067,-0.270984 a 0.77895401,0.77895401 0 0 0 -0.035,-0.088995 2.7298388,2.7298388 0 0 0 -0.307982,0.1049938 l 0.031,0.087995 c 0.04,0.1079936 0.063,0.1399917 0.119992,0.1669901 a 0.15399091,0.15399091 0 0 0 0.123993,0 z M 4.37527,7.664646 a 0.84994982,0.84994982 0 0 1 -0.099994,-0.04 0.27998347,0.27998347 0 0 1 0.046997,-0.035 0.83695058,0.83695058 0 0 0 0.1079937,-0.09099 0.37897762,0.37897762 0 0 0 0.1229927,-0.224987 c 0.009,-0.096994 -0.040998,-0.1599906 -0.1269925,-0.1599906 -0.044997,0 -0.088995,0.029998 -0.203988,0.1399918 C 4.0902867,7.379663 4.0582886,7.404661 3.9862929,7.438659 a 0.3099817,0.3099817 0 0 1 -0.2949826,-0.012 C 3.478323,7.313667 3.494322,6.9646872 3.7243084,6.7217016 l 0.043997,-0.045997 0.095994,0.034998 a 0.78595359,0.78595359 0 0 1 0.094994,0.036998 0.29998229,0.29998229 0 0 1 -0.038998,0.035998 0.58396552,0.58396552 0 0 0 -0.1779895,0.2509852 c -0.034998,0.1119934 0.005,0.1969884 0.091995,0.1969884 0.054997,0 0.094994,-0.025999 0.2159873,-0.1439915 C 4.1802815,6.9606875 4.2092798,6.9376888 4.2782757,6.9046908 a 0.33398028,0.33398028 0 0 1 0.3699782,0.065996 c 0.097994,0.093994 0.1229927,0.2429856 0.066996,0.4059762 a 0.57996576,0.57996576 0 0 1 -0.1569907,0.252985 0.62696298,0.62696298 0 0 1 -0.076995,0.071 2.4598548,2.4598548 0 0 1 -0.1059937,-0.036 z M 4.9182379,5.8037558 4.5002626,5.3827806 4.6912513,5.1937918 C 4.8942394,4.9938036 4.917238,4.9748047 5.0082326,4.9488063 a 0.29398264,0.29398264 0 0 1 0.1069937,-0.009 0.22898648,0.22898648 0 0 1 0.1199929,0.029998 A 0.34697951,0.34697951 0 0 1 5.4312077,5.2437882 0.33598016,0.33598016 0 0 1 5.3892097,5.4377767 0.59696475,0.59696475 0 0 1 5.2552176,5.602767 L 5.1502238,5.7107606 5.3252135,5.8857502 5.4992032,6.05974 5.4192082,6.140735 5.3392132,6.22073 Z M 5.1082267,5.4917742 c 0.069996,-0.071996 0.084995,-0.091995 0.095994,-0.1239927 a 0.15799067,0.15799067 0 0 0 0.008,-0.064996 0.19398855,0.19398855 0 0 0 -0.077995,-0.1169931 c -0.029998,-0.021999 -0.039998,-0.024999 -0.076996,-0.024999 -0.060996,0 -0.095994,0.019999 -0.1899887,0.1099935 l -0.080995,0.077995 0.1139933,0.1139932 c 0.062996,0.062996 0.1159932,0.1149932 0.118993,0.1149932 0.002,0 0.041997,-0.038998 0.087995,-0.085995 z m 6.0896403,0.5829656 a 0.65196151,0.65196151 0 0 1 -0.07,-0.085995 c 0,-0.008 0.816952,-0.7639549 0.85095,-0.7879535 0.017,-0.011999 0.017,-0.010999 0.05,0.023999 l 0.07499,0.084995 0.044,0.047997 -0.430975,0.3959766 a 22.908647,22.908647 0 0 1 -0.439973,0.3969763 0.44397379,0.44397379 0 0 1 -0.079,-0.075995 z M 6.4881452,4.6328249 A 21.788714,21.788714 0 0 1 6.2601587,4.0878571 1.7898943,1.7898943 0 0 1 6.4661465,3.9948626 388.50506,388.50506 0 0 0 6.8261253,4.8398127 c 0.093994,0.2169872 0.1029939,0.2409858 0.091995,0.2469854 -0.018999,0.01 -0.1909888,0.083995 -0.1959885,0.083995 -0.002,0 -0.1069936,-0.2419858 -0.2339866,-0.5379682 z M 9.8469469,5.1147965 A 1.4519143,1.4519143 0 0 1 9.7509526,5.0627995 L 10.110931,4.325843 c 0.077,-0.1539909 0.142992,-0.2899828 0.148992,-0.3029821 l 0.01,-0.021999 0.319981,0.1579907 0.32398,0.1599906 a 0.76495483,0.76495483 0 0 1 -0.075,0.1559911 2.3238628,2.3238628 0 0 1 -0.222986,-0.102994 4.3647423,4.3647423 0 0 0 -0.217988,-0.1029939 5.1916935,5.1916935 0 0 0 -0.068,0.135992 l -0.066,0.1329921 0.217987,0.1079937 0.219988,0.1079936 a 0.89394722,0.89394722 0 0 1 -0.036,0.082995 l -0.038,0.080995 -0.072,-0.033998 A 8.6134914,8.6134914 0 0 1 10.333918,4.7758165 L 10.183927,4.7008209 10.070934,4.9318073 A 2.7488377,2.7488377 0 0 1 9.9509408,5.1627936 c -0.004,0 -0.049997,-0.021999 -0.1039939,-0.047997 z M 8.2220429,4.3188435 V 3.818873 l -0.2079877,-0.003 -0.2089877,-0.002 -0.002,-0.088995 -0.002,-0.089995 H 8.8740044 V 3.8108735 H 8.4540292 V 4.8208138 H 8.2220429 Z"
     id="path4" />
</svg>
