<svg width="64" height="64" version="1.1" viewBox="0 0 16.933 16.933" xmlns="http://www.w3.org/2000/svg">
 <defs>
  <filter id="filter1178" x="-.047999" y="-.047999" width="1.096" height="1.096" color-interpolation-filters="sRGB">
   <feGaussianBlur stdDeviation="0.30691668"/>
  </filter>
  <linearGradient id="linearGradient956" x1="8.4086" x2="8.355" y1="15.4" y2="1.3976" gradientUnits="userSpaceOnUse">
   <stop stop-color="#2e3440" stop-opacity=".2" offset="0"/>
   <stop stop-color="#4c566a" stop-opacity="0" offset="1"/>
  </linearGradient>
  <linearGradient id="linearGradient2389" x1="8.2991" x2="8.2991" y1="11.1" y2="5.7094" gradientTransform="matrix(1.0992 0 0 1.0992 -1.0744 -.67287)" gradientUnits="userSpaceOnUse">
   <stop stop-color="#d8dee9" offset="0"/>
   <stop stop-color="#eceff4" offset="1"/>
  </linearGradient>
  <filter id="filter2555" x="-.090593" y="-.13369" width="1.1812" height="1.2674" color-interpolation-filters="sRGB">
   <feGaussianBlur stdDeviation="0.39474441"/>
  </filter>
 </defs>
 <g stroke-linecap="round" stroke-linejoin="round">
  <rect transform="matrix(.99138 0 0 1 .072989 .0019055)" x=".79375" y=".90545" width="15.346" height="15.346" rx="3.0526" ry="3.0526" fill="#000000" filter="url(#filter1178)" opacity=".15" stroke-width="1.2489" style="mix-blend-mode:normal"/>
  <rect x=".92604" y=".92604" width="15.081" height="15.081" rx="3" ry="3" fill="#a3be8c" stroke-width="1.2274"/>
  <rect x=".01215" y=".0060174" width="16.924" height="16.927" fill="none" opacity=".15" stroke-width="1.052"/>
  <rect x=".92604" y=".92604" width="15.081" height="15.081" rx="3" ry="3" fill="url(#linearGradient956)" stroke-width="1.2274"/>
 </g>
 <g transform="rotate(-4.6399 8.2721 7.8848)">
  <path d="m11.693 12.217c0.43546-0.1082 0.63126-0.6518 0.36196-1.0049-0.11601-0.15212-0.17171-0.18814-0.67376-0.43569-0.15685-0.07734-0.34934-0.16559-0.42776-0.19613-0.07843-0.03054-0.17009-0.06687-0.2037-0.08072-0.03361-0.01387-0.08729-0.03591-0.11928-0.04899-0.21092-0.08622-0.76039-0.25585-1.0011-0.30904-0.089631-0.01981-0.23171-0.05147-0.31573-0.07036-0.23762-0.05341-0.44268-0.090215-0.63146-0.11333-0.095226-0.01166-0.24189-0.030048-0.32592-0.040865-0.2711-0.034897-1.1918-0.04695-1.5408-0.020172-0.39294 0.030147-1.1292 0.14127-1.3517 0.20401-0.039209 0.01106-0.17212 0.04397-0.29536 0.07314s-0.25615 0.06524-0.29536 0.08015c-0.039209 0.01492-0.11624 0.04308-0.17118 0.06258-0.17374 0.06168-0.33013 0.23561-0.3904 0.43418-0.039561 0.13036-0.036352 0.21974 0.013741 0.38191 0.036241 0.11735 0.061127 0.15643 0.16067 0.25232 0.19787 0.19063 0.39628 0.22548 0.74915 0.13159 0.10723-0.02854 0.20101-0.05561 0.20841-0.06018 0.012256-0.0076 0.20115-0.05176 0.51939-0.12149 0.51649-0.11317 1.2328-0.1643 1.874-0.13378 0.24647 0.01173 0.48022 0.02619 0.51943 0.03214 0.039209 0.0059 0.12171 0.01932 0.18333 0.02973 0.061622 0.01044 0.19911 0.0336 0.30554 0.05156 0.22425 0.03784 0.62362 0.13213 0.81479 0.19238 0.072823 0.02295 0.16907 0.05242 0.21388 0.06548 0.044816 0.01306 0.090641 0.03008 0.10185 0.03779 0.011206 0.0077 0.05704 0.02566 0.10184 0.03987 0.23457 0.07434 0.59422 0.2337 0.99987 0.44306 0.28317 0.14615 0.41713 0.17308 0.61559 0.12377zm0.97101-2.2481c0.13869-0.065613 0.25211-0.17902 0.32222-0.3222 0.04568-0.093296 0.0551-0.13992 0.0551-0.27277 0-0.18069-0.04545-0.29871-0.17194-0.44649-0.18143-0.21196-1.6019-0.80835-2.415-1.0139-0.42644-0.10783-0.56388-0.13936-0.79441-0.18225-0.75104-0.13973-1.0395-0.17278-1.7508-0.20059-0.43702-0.017087-0.68746-0.016734-1.0185 0.0014399-0.35359 0.019411-0.94174 0.076619-1.1723 0.11402-0.33256 0.05396-0.75219 0.13941-0.96664 0.19684-0.084529 0.022639-0.21862 0.058172-0.29797 0.078963-0.29638 0.077654-0.4128 0.16109-0.52292 0.37479-0.056819 0.11027-0.064161 0.14364-0.063238 0.2877 0.0012 0.19435 0.062556 0.34466 0.18974 0.46518 0.19909 0.18866 0.43732 0.22294 0.81724 0.1176 0.27839-0.077187 0.45492-0.11895 0.57414-0.13581 0.053356-0.00755 0.10202-0.021829 0.10814-0.03174 0.00616-0.00992 0.04497-0.018048 0.086322-0.018084 0.041352-4.07e-5 0.1531-0.013511 0.24833-0.029945 0.49061-0.084667 0.92029-0.11816 1.5277-0.11908 0.61946-9.39e-4 0.80358 0.011705 1.4666 0.10072 0.99531 0.13362 1.9468 0.41952 2.8925 0.86908 0.47855 0.2275 0.44642 0.2162 0.61745 0.21721 0.12926 7.6e-4 0.17959-0.0088 0.26816-0.050646zm0.87552-2.198c0.25344-0.11208 0.39041-0.3371 0.3855-0.63328-0.002968-0.17845-0.052982-0.28597-0.19874-0.42719-0.084959-0.082316-0.17147-0.1325-0.45106-0.26167-0.39323-0.18167-0.40226-0.18569-0.65148-0.29002-0.16792-0.070295-0.27575-0.11008-0.78423-0.28936-0.39706-0.14-0.85634-0.26558-1.4972-0.40939-0.31931-0.071658-0.69692-0.13509-1.2222-0.20529-0.3949-0.052784-1.1938-0.10078-1.6907-0.10159-1.0083-0.0016268-2.2023 0.1418-3.198 0.38416-0.35747 0.087009-0.47045 0.13473-0.58141 0.24557-0.14119 0.14105-0.18246 0.24364-0.18246 0.45365 0 0.20803 0.038858 0.31659 0.16061 0.44867 0.14328 0.15544 0.42025 0.2515 0.58733 0.2037 0.13025-0.037265 0.63931-0.15294 0.78997-0.17951 0.078418-0.013831 0.248-0.043831 0.37684-0.066669 0.89883-0.15932 1.8898-0.21614 2.7636-0.15846 0.27813 0.018358 0.56528 0.042016 0.6381 0.052574 0.072824 0.010553 0.19198 0.025011 0.26481 0.03212 0.16183 0.015796 0.67117 0.099696 0.86571 0.1426 0.078435 0.017296 0.20675 0.044566 0.28517 0.060598 0.2165 0.044263 0.52187 0.12343 0.75124 0.19476 0.11338 0.03526 0.27947 0.086924 0.3691 0.11481 0.17602 0.054767 0.65291 0.22342 0.70276 0.24853 0.01681 0.00846 0.11305 0.049979 0.21388 0.09225s0.29332 0.12777 0.42776 0.18999c0.42124 0.19496 0.45501 0.20633 0.6156 0.20727 0.11298 6.62e-4 0.17316-0.010663 0.25944-0.048824z" fill="#2e3440" filter="url(#filter2555)" opacity=".45"/>
  <path d="m11.463 11.987c0.43546-0.1082 0.63126-0.6518 0.36196-1.0049-0.11601-0.15212-0.17171-0.18814-0.67376-0.43569-0.15685-0.07734-0.34934-0.16559-0.42776-0.19613-0.07843-0.03054-0.17009-0.06687-0.2037-0.08072-0.03361-0.01387-0.08729-0.03591-0.11928-0.04899-0.21092-0.08622-0.7604-0.25585-1.0011-0.30904-0.08963-0.019808-0.23171-0.051477-0.31573-0.070361-0.23762-0.053412-0.44268-0.090216-0.63146-0.11333-0.095226-0.01166-0.24189-0.030048-0.32592-0.040865-0.2711-0.034897-1.1918-0.04695-1.5408-0.020172-0.39294 0.030147-1.1292 0.14127-1.3517 0.20401-0.039209 0.01106-0.17212 0.04397-0.29536 0.07314s-0.25615 0.06524-0.29536 0.08015c-0.039209 0.01492-0.11624 0.04308-0.17118 0.06258-0.17374 0.06168-0.33013 0.23561-0.3904 0.43418-0.039561 0.13036-0.036352 0.21974 0.013741 0.38191 0.036241 0.11735 0.061127 0.15643 0.16067 0.25232 0.19787 0.19063 0.39628 0.22548 0.74915 0.13159 0.10723-0.02854 0.20101-0.05561 0.20841-0.06018 0.012256-0.0076 0.20115-0.05176 0.51939-0.12149 0.51649-0.11317 1.2328-0.1643 1.874-0.13378 0.24647 0.01173 0.48022 0.02619 0.51943 0.03214 0.039209 0.0059 0.12171 0.01932 0.18333 0.02973 0.061622 0.01044 0.19911 0.0336 0.30554 0.05156 0.22425 0.03784 0.62362 0.13213 0.81479 0.19238 0.072823 0.02295 0.16907 0.05242 0.21388 0.06548 0.044816 0.01306 0.090641 0.03008 0.10185 0.03779 0.011206 0.0077 0.05704 0.02566 0.10184 0.03987 0.23457 0.07434 0.59422 0.2337 0.99987 0.44306 0.28317 0.14615 0.41713 0.17308 0.61559 0.12377zm0.97101-2.2481c0.13869-0.065613 0.25211-0.17902 0.32222-0.3222 0.04568-0.093296 0.0551-0.13992 0.0551-0.27277 0-0.18069-0.04545-0.29871-0.17194-0.44649-0.18143-0.21196-1.6019-0.80835-2.415-1.0139-0.42644-0.10783-0.56388-0.13936-0.79442-0.18225-0.75104-0.13973-1.0395-0.17278-1.7508-0.20059-0.43702-0.017087-0.68746-0.016734-1.0185 0.0014399-0.35359 0.019411-0.94174 0.076619-1.1723 0.11402-0.33256 0.05396-0.75219 0.13941-0.96664 0.19684-0.084529 0.022639-0.21862 0.058172-0.29797 0.078963-0.29638 0.077654-0.4128 0.16109-0.52292 0.37479-0.056819 0.11027-0.064161 0.14364-0.063238 0.2877 0.0012 0.19435 0.062556 0.34466 0.18974 0.46518 0.19909 0.18866 0.43732 0.22294 0.81724 0.1176 0.27839-0.077187 0.45492-0.11895 0.57414-0.13581 0.053356-0.00755 0.10202-0.021829 0.10814-0.03174 0.00616-0.00992 0.04497-0.018048 0.086322-0.018084 0.041352-4.07e-5 0.1531-0.013511 0.24833-0.029945 0.49061-0.084667 0.92029-0.11816 1.5277-0.11908 0.61946-9.39e-4 0.80358 0.011705 1.4666 0.10072 0.99531 0.13362 1.9468 0.41952 2.8925 0.86908 0.47855 0.2275 0.44642 0.2162 0.61745 0.21721 0.12926 7.6e-4 0.17959-0.00875 0.26816-0.050646zm0.87552-2.198c0.25344-0.11208 0.39041-0.3371 0.3855-0.63328-0.002968-0.17845-0.052982-0.28597-0.19874-0.42719-0.084959-0.082316-0.17147-0.1325-0.45106-0.26167-0.39323-0.18167-0.40226-0.18569-0.65148-0.29002-0.16792-0.070295-0.27575-0.11008-0.78423-0.28936-0.39706-0.14-0.85634-0.26558-1.4972-0.40939-0.31931-0.071658-0.69692-0.13509-1.2222-0.20529-0.3949-0.052784-1.1938-0.10078-1.6907-0.10159-1.0083-0.0016268-2.2023 0.1418-3.198 0.38416-0.35747 0.087009-0.47045 0.13473-0.58141 0.24557-0.14119 0.14105-0.18246 0.24364-0.18246 0.45365 0 0.20803 0.038858 0.31659 0.16061 0.44867 0.14328 0.15544 0.42025 0.2515 0.58733 0.2037 0.13025-0.037265 0.63931-0.15294 0.78997-0.17951 0.078418-0.013831 0.248-0.043831 0.37684-0.066669 0.89883-0.15932 1.8898-0.21614 2.7636-0.15846 0.27813 0.018358 0.56528 0.042016 0.6381 0.052574 0.072824 0.010553 0.19198 0.025011 0.26481 0.03212 0.16183 0.015796 0.67117 0.099696 0.86571 0.1426 0.078435 0.017296 0.20675 0.044566 0.28518 0.060598 0.2165 0.044263 0.52187 0.12343 0.75124 0.19476 0.11338 0.03526 0.27947 0.086924 0.3691 0.11481 0.17602 0.054767 0.65291 0.22342 0.70276 0.24853 0.01681 0.00846 0.11305 0.049979 0.21388 0.09225s0.29332 0.12777 0.42776 0.18999c0.42124 0.19496 0.45501 0.20633 0.6156 0.20727 0.11298 6.62e-4 0.17316-0.010663 0.25944-0.048824z" fill="url(#linearGradient2389)"/>
 </g>
</svg>
