<?xml version="1.0" encoding="UTF-8" standalone="no"?>
<svg
   width="64"
   height="64"
   version="1.1"
   viewBox="0 0 16.933 16.933"
   id="svg52"
   xmlns:xlink="http://www.w3.org/1999/xlink"
   xmlns="http://www.w3.org/2000/svg"
   xmlns:svg="http://www.w3.org/2000/svg">
  <defs
     id="defs26">
    <linearGradient
       id="linearGradient1781">
      <stop
         style="stop-color:#88c0d0;stop-opacity:1;"
         offset="0"
         id="stop1777" />
      <stop
         style="stop-color:#8fbcbb;stop-opacity:1;"
         offset="1"
         id="stop1779" />
    </linearGradient>
    <linearGradient
       id="linearGradient1715">
      <stop
         style="stop-color:#88c0d0;stop-opacity:1;"
         offset="0"
         id="stop1711" />
      <stop
         style="stop-color:#5e81ac;stop-opacity:1;"
         offset="1"
         id="stop1713" />
    </linearGradient>
    <filter
       id="filter1178"
       x="-0.047999482"
       y="-0.047999482"
       width="1.095999"
       height="1.095999"
       color-interpolation-filters="sRGB">
      <feGaussianBlur
         stdDeviation="0.30691668"
         id="feGaussianBlur2" />
    </filter>
    <radialGradient
       id="radialGradient8804"
       cx="4.6927"
       cy="4.0029"
       r="7.5405"
       gradientTransform="matrix(-2.6959 -.0082963 .0068041 -2.211 17.317 12.892)"
       gradientUnits="userSpaceOnUse">
      <stop
         stop-color="#ebcb8b"
         offset="0"
         id="stop5"
         style="stop-color:#8fbcbb;stop-opacity:1;" />
      <stop
         stop-color="#d08770"
         offset="1"
         id="stop7"
         style="stop-color:#88c0d0;stop-opacity:1;" />
    </radialGradient>
    <filter
       id="filter1268"
       x="-0.040462619"
       y="-0.044819667"
       width="1.0809252"
       height="1.0896393"
       color-interpolation-filters="sRGB">
      <feGaussianBlur
         stdDeviation="0.1087792"
         id="feGaussianBlur10" />
    </filter>
    <filter
       id="filter1274"
       x="-0.036564519"
       y="-0.037897439"
       width="1.073129"
       height="1.0757949"
       color-interpolation-filters="sRGB">
      <feGaussianBlur
         stdDeviation="0.17460471"
         id="feGaussianBlur13" />
    </filter>
    <linearGradient
       id="linearGradient1344"
       x1="5.3351"
       x2="5.3351"
       y1="8.4981"
       y2="14.234"
       gradientUnits="userSpaceOnUse">
      <stop
         stop-color="#2e3440"
         offset="0"
         id="stop16" />
      <stop
         stop-color="#4c566a"
         offset="1"
         id="stop18" />
    </linearGradient>
    <linearGradient
       id="linearGradient1439"
       x1="9.426"
       x2="9.426"
       y1="2.3829"
       y2="13.496"
       gradientUnits="userSpaceOnUse"
       gradientTransform="matrix(1,0,0,-1,-1.0970583,16.369795)">
      <stop
         stop-color="#d8dee9"
         offset="0"
         id="stop21" />
      <stop
         stop-color="#eceff4"
         offset="1"
         id="stop23" />
    </linearGradient>
    <linearGradient
       xlink:href="#linearGradient1715"
       id="linearGradient1717"
       x1="8.4876137"
       y1="6.6859865"
       x2="5.0097704"
       y2="14.987044"
       gradientUnits="userSpaceOnUse" />
    <linearGradient
       xlink:href="#linearGradient1781"
       id="linearGradient1775"
       gradientUnits="userSpaceOnUse"
       x1="8.4876137"
       y1="6.6859865"
       x2="5.0097704"
       y2="14.987044" />
  </defs>
  <g
     stroke-linecap="round"
     stroke-linejoin="round"
     id="g50">
    <rect
       transform="matrix(.99138 0 0 1 .072989 .0019055)"
       x=".79375"
       y=".90545"
       width="15.346"
       height="15.346"
       rx="3.0526"
       ry="3.0526"
       filter="url(#filter1178)"
       opacity=".15"
       stroke-width="1.2489"
       style="mix-blend-mode:normal"
       id="rect28" />
    <rect
       x=".92604"
       y=".92604"
       width="15.081"
       height="15.081"
       rx="3"
       ry="3"
       fill="url(#radialGradient8804)"
       stroke-width="1.2274"
       id="rect30" />
    <rect
       x=".01215"
       y=".0060174"
       width="16.924"
       height="16.927"
       fill="none"
       opacity=".15"
       stroke-width="1.052"
       id="rect32" />
    <path
       d="m 8.4665433,2.9377848 a 5.7301,4.9287 0 0 0 -5.7303,4.9288 5.7301,4.9287 0 0 0 5.7303,4.9288002 5.7301,4.9287 0 0 0 1.7000997,-0.22479 l 1.3766,0.6568 1.6092,0.7679 -0.13952,-1.7771 -0.09818,-1.2495 a 5.7301,4.9287 0 0 0 1.2821,-3.1021002 5.7301,4.9287 0 0 0 -5.7302997,-4.9288 z"
       fill="#2e3440"
       filter="url(#filter1274)"
       opacity="0.49798"
       stroke-width="0.69624"
       id="path34"
       transform="matrix(1,0,0,-1,0,16.93308)" />
    <path
       d="m 8.4665417,13.995295 a 5.7301,4.9287 0 0 1 -5.7303,-4.9287997 5.7301,4.9287 0 0 1 5.7303,-4.9287998 5.7301,4.9287 0 0 1 1.7001003,0.22479 l 1.3766,-0.6568 1.6092,-0.7679 -0.13952,1.7771 -0.09818,1.2495 a 5.7301,4.9287 0 0 1 1.2821,3.1020998 5.7301,4.9287 0 0 1 -5.7303003,4.9287997 z"
       fill="url(#linearGradient1439)"
       stroke-width="0.69624"
       id="path36"
       style="fill:url(#linearGradient1439)" />
  </g>
  <g
     aria-label="#"
     id="text1028"
     style="font-size:8.4665px;opacity:1;fill:url(#linearGradient1717);fill-opacity:1;stroke-width:0.264578"
     transform="translate(0,-0.21508422)">
    <path
       d="m 9.8000156,8.5841396 -0.2624615,1.35464 H 10.697465 V 10.506035 H 9.4274896 L 9.080363,12.275534 H 8.4792415 L 8.826368,10.506035 H 7.6156585 L 7.285465,12.275534 H 6.69281 L 7.014537,10.506035 H 5.9477579 V 9.9387796 h 1.1768436 l 0.270928,-1.35464 H 6.2610184 V 8.0253505 h 1.2361091 l 0.33866,-1.794898 h 0.609588 l -0.33866,1.794898 h 1.219176 L 9.6645516,6.2304525 H 10.24874 L 9.9100801,8.0253505 H 10.985326 V 8.5841396 Z M 7.725723,9.9387796 H 8.9364325 L 9.198894,8.5841396 H 7.9881845 Z"
       style="fill:url(#linearGradient1775);fill-opacity:1"
       id="path1708" />
  </g>
</svg>
