<svg id="svg190" width="64" height="64" version="1.1" viewBox="0 0 16.933 16.933" xmlns="http://www.w3.org/2000/svg">
 <defs id="defs180">
  <filter id="filter1178" x="-.04799993" y="-.04799993" width="1.0959999" height="1.0959999" color-interpolation-filters="sRGB">
   <feGaussianBlur id="feGaussianBlur172" stdDeviation="0.30691955"/>
  </filter>
  <linearGradient id="linearGradient1340" x1="8.5011" x2="8.489" y1="16.007" y2=".79375" gradientUnits="userSpaceOnUse">
   <stop id="stop175" stop-color="#a97fa1" offset="0"/>
   <stop id="stop177" stop-color="#be9db7" offset="1"/>
  </linearGradient>
  <radialGradient id="radialGradient1246" cx="8.4665001" cy="8.4665002" r="5.8209824" gradientTransform="matrix(1,0,0,1.0000022,0,-1.8938145e-5)" gradientUnits="userSpaceOnUse">
   <stop id="stop1240" style="stop-color:#d8dee9" offset="0"/>
   <stop id="stop1242" style="stop-color:#eceff4" offset="1"/>
  </radialGradient>
  <filter id="filter2850" x="-.075000076" y="-.074999924" width="1.1500002" height="1.1499998" style="color-interpolation-filters:sRGB">
   <feGaussianBlur id="feGaussianBlur2852" stdDeviation="0.36381185"/>
  </filter>
 </defs>
 <g id="g188" stroke-linecap="round" stroke-linejoin="round">
  <rect transform="matrix(.99138 0 0 1 .072989 .0019055)" x=".79375" y=".90545" width="15.346" height="15.346" rx="3.0526" ry="3.0526" fill="#000000" filter="url(#filter1178)" opacity=".15" stroke-width="1.2489" style="mix-blend-mode:normal"/>
  <rect id="rect184" x=".92604" y=".92604" width="15.081" height="15.081" rx="3" ry="3" fill="url(#linearGradient1340)" stroke-width="1.2274"/>
  <rect id="rect186" x=".01215" y=".0060174" width="16.924" height="16.927" fill="none" opacity=".15" stroke-width="1.052"/>
 </g>
 <path id="path170-5" d="m7.8488033 14.281486c-0.04008-0.0069-0.171283-0.02675-0.291546-0.04402-0.3294358-0.04732-0.8781508-0.191274-1.1770248-0.308779-1.801673-0.708335-3.102218-2.168345-3.575542-4.0139581-0.144305-0.56268-0.160051-0.709866-0.159139-1.4875674 7.81e-4 -0.679699 0.0061-0.75306 0.07973-1.096882 0.21747-1.0158974 0.687239-1.9644711 1.339473-2.7047129 0.953362-1.0820018 2.299951-1.7864133 3.7386438-1.9557149 0.426094-0.050143 1.317405-0.019228 1.721796 0.059726 2.4401147 0.4763771 4.2501937 2.3243313 4.6960847 4.7943488 0.0639 0.353943 0.08793 1.243649 0.04345 1.6079804-0.309716 2.5365861-2.155649 4.5402011-4.6666487 5.0652861-0.316356 0.06616-0.450971 0.07758-1.020413 0.08656-0.360788 0.0058-0.688778 0.0047-0.728867-0.0022zm2.3396597-3.073216 1.683681-0.417794v-0.8262561l-1.705546 0.4258721-1.7055477 0.425872-1.7055468-0.425872-1.705547-0.4258721v0.8302191l1.698258 0.422827c0.9340438 0.232554 1.7113798 0.41967 1.7274138 0.415811 0.01603-0.0038 0.786811-0.195021 1.7128347-0.424807zm-3.87e-4 -1.8992681 1.683295-0.4156564 3.88e-4 -0.417161c3.56e-4 -0.383841-0.0036-0.41593-0.05064-0.401752-0.02806 0.0085-0.795558 0.201114-1.705547 0.428084l-1.6545267 0.412673-1.6545268-0.412673c-0.90999-0.22697-1.677486-0.419607-1.705547-0.428084-0.04693-0.01418-0.05102 0.01802-0.05102 0.402048v0.417455l1.654527 0.4115944c0.9099898 0.226376 1.6873248 0.413289 1.7274128 0.415361 0.04008 0.0021 0.83037-0.183278 1.7561827-0.411889zm-0.08852-1.8868634c0.902765-0.224245 1.67091-0.414613 1.706989-0.423038 0.06424-0.01501 0.0656-0.0239 0.0656-0.430633v-0.4153167l-1.703796-0.4247401-1.7037937-0.42474-1.7072988 0.4218741-1.7073 0.421874v0.8363637l0.08018 0.02026c0.352081 0.08899 3.2916878 0.820051 3.3076118 0.822572 0.01123 0.0018 0.759049-0.180239 1.6618137-0.404484z" style="fill:#2e3440;filter:url(#filter2850);opacity:.25;stroke-width:.0291456"/>
 <path id="path170" d="m7.848805 14.281486c-0.0400841-0.006931-0.1712834-0.026754-0.2915465-0.04402-0.3294354-0.047323-0.8781507-0.191274-1.1770249-0.308779-1.8016722-0.708335-3.1022173-2.168345-3.5755421-4.0139583-0.1443045-0.5626802-0.1600509-0.7098664-0.1591383-1.4875671 7.809e-4 -0.6796993 0.0061252-0.7530602 0.0797268-1.096882 0.2174701-1.0158973 0.6872387-1.964471 1.3394727-2.7047128 0.953362-1.0820018 2.2999508-1.7864133 3.7386438-1.9557149 0.4260948-0.050143 1.3174057-0.019228 1.7217966 0.059726 2.4401149 0.4763771 4.2501939 2.3243313 4.6960849 4.7943492 0.0639 0.3539421 0.08793 1.2436487 0.04345 1.60798-0.309716 2.5365859-2.155649 4.5402009-4.6666487 5.0652859-0.3163564 0.06616-0.4509714 0.07758-1.0204132 0.08656-0.3607884 0.0058-0.6887782 0.0047-0.7288668-0.0022zm2.33966-3.073216 1.683681-0.417794v-0.8262563l-1.705546 0.4258723-1.7055478 0.425872-1.7055468-0.425872-1.7055478-0.4258723v0.8302193l1.6982588 0.422827c0.9340433 0.232554 1.7113792 0.41967 1.7274138 0.415811 0.016034-0.0038 0.7868112-0.195021 1.7128348-0.424807zm-3.87e-4 -1.8992687 1.683295-0.4156559 3.88e-4 -0.4171611c3.56e-4 -0.3838407-0.0036-0.4159295-0.05064-0.4017512-0.02806 0.00846-0.795558 0.2011132-1.705547 0.4280833l-1.6545271 0.4126735-1.6545266-0.4126735c-0.9099901-0.2269701-1.6774861-0.4196069-1.7055477-0.4280833-0.04693-0.014178-0.05102 0.018022-0.05102 0.4020474v0.4174555l1.6545271 0.4115941c0.9099901 0.226376 1.6873252 0.4132883 1.7274129 0.4153607 0.040084 0.00207 0.8303704-0.1832783 1.7561834-0.4118895zm-0.08852-1.8868624c0.902765-0.2242452 1.67091-0.4146127 1.706989-0.4230378 0.06424-0.015007 0.0656-0.0239 0.0656-0.4306336v-0.4153165l-1.703796-0.4247401-1.7037939-0.42474-1.7072988 0.4218741-1.7073007 0.421874v0.8363642l0.080177 0.020264c0.3520817 0.088994 3.2916881 0.8200511 3.3076119 0.8225725 0.011232 0.0018 0.7590496-0.1802392 1.6618145-0.4044843z" style="fill:url(#radialGradient1246);stroke-width:.0291456"/>
</svg>
