<svg width="64" height="64" version="1.1" viewBox="0 0 16.933 16.933" xmlns="http://www.w3.org/2000/svg">
 <defs>
  <filter id="filter1178" x="-.048" y="-.048" width="1.096" height="1.096" color-interpolation-filters="sRGB">
   <feGaussianBlur stdDeviation="0.30691955"/>
  </filter>
  <linearGradient id="linearGradient1340" x1="8.5011" x2="8.489" y1="16.007" y2=".79375" gradientUnits="userSpaceOnUse">
   <stop stop-color="#434c5e" offset="0"/>
   <stop stop-color="#4c566a" offset="1"/>
  </linearGradient>
  <linearGradient id="linearGradient2162" x1="4.4386" x2="12.937" y1="7.8103" y2="7.9493" gradientTransform="matrix(.95781 0 0 .95781 .40908 .10455)" gradientUnits="userSpaceOnUse">
   <stop stop-color="#8fbcbb" offset="0"/>
   <stop stop-color="#eceff4" offset="1"/>
  </linearGradient>
  <linearGradient id="linearGradient3061" x1="11.139" x2="8.4764" y1="11.263" y2="4.5474" gradientUnits="userSpaceOnUse">
   <stop stop-color="#eceff4" stop-opacity=".8" offset="0"/>
   <stop stop-color="#88c0d0" stop-opacity=".2" offset="1"/>
  </linearGradient>
  <linearGradient id="linearGradient7190" x1="5.5172" x2="11.706" y1="13.47" y2="14.421" gradientTransform="translate(-.031765)" gradientUnits="userSpaceOnUse">
   <stop stop-color="#eceff4" offset="0"/>
   <stop stop-color="#d8dee9" offset="1"/>
  </linearGradient>
 </defs>
 <rect transform="matrix(.99138 0 0 1 .072989 .0019055)" x=".79375" y=".90545" width="15.346" height="15.346" rx="3.0526" ry="3.0526" fill="#000000" filter="url(#filter1178)" opacity=".15" stroke-width="1.2489" style="mix-blend-mode:normal"/>
 <rect x=".92604" y=".92604" width="15.081" height="15.081" rx="3" ry="3" fill="url(#linearGradient1340)" stroke-linecap="round" stroke-linejoin="round" stroke-width="1.2274"/>
 <g fill="none">
  <rect x=".01215" y=".0060174" width="16.924" height="16.927" opacity=".15" stroke-linecap="round" stroke-linejoin="round" stroke-width="1.052"/>
  <path d="m4.2452 12.847c-1.7491-1.7365-2.2735-4.3587-1.3267-6.6343 0.94682-2.2756 3.1765-3.7519 5.6412-3.7351 2.4646 0.016789 4.6741 1.5234 5.5898 3.8117 0.91573 2.2883 0.35566 4.9032-1.417 6.6156" stroke="url(#linearGradient2162)" stroke-width=".95095"/>
  <g stroke="#eceff4" stroke-linecap="round" stroke-width=".34395">
   <path d="m8.4665 3.3043v1.0232"/>
   <path d="m13.676 8.4925h-1.0232"/>
   <path d="m12.146 4.8195-0.72348 0.72348"/>
   <path d="m3.2783 8.5138 1.0232-3e-7"/>
   <path d="m4.7935 4.8346 0.72348 0.72348"/>
  </g>
 </g>
 <path d="m4.8086 12.187 0.72348-0.72348" fill="#88c0d0" stroke="#5e81ac" stroke-linecap="round" stroke-width=".34395"/>
 <path d="m12.161 12.172-0.72348-0.72348" fill="none" stroke="#5e81ac" stroke-linecap="round" stroke-width=".34395"/>
 <path d="m8.4764 4.5474a3.9714 3.8531 0 0 1 3.7112 2.4698 3.9714 3.8531 0 0 1-1.0485 4.2461l-2.6581-2.8628z" fill="url(#linearGradient3061)" fill-rule="evenodd" stroke-width="1.4932"/>
 <path d="m11.139 11.263-2.426-2.0818 0.43339-0.39201z" fill="#8fbcbb" stroke-linecap="round" stroke-linejoin="round" stroke-width=".37168"/>
 <circle cx="8.4665" cy="8.4665" r=".79373" fill="#2e3440" fill-rule="evenodd"/>
 <text x="4.8842673" y="14.57163" fill="url(#linearGradient7190)" font-family="sans-serif" font-size="1.6885px" font-weight="bold" letter-spacing="0px" stroke-width=".1583" word-spacing="0px" style="line-height:1.25" xml:space="preserve"><tspan x="4.8842673" y="14.57163" fill="url(#linearGradient7190)" stroke-width=".1583">STACER</tspan></text>
</svg>
