<?xml version="1.0" encoding="UTF-8"?>
<svg width="64" height="64" version="1.1" viewBox="0 0 16.933 16.933" xmlns="http://www.w3.org/2000/svg">
 <defs>
  <filter id="filter1178" x="-.048" y="-.048" width="1.096" height="1.096" color-interpolation-filters="sRGB">
   <feGaussianBlur stdDeviation="0.30691955"/>
  </filter>
  <linearGradient id="linearGradient1340" x1="8.5011" x2="8.489" y1="16.007" y2=".79375" gradientUnits="userSpaceOnUse">
   <stop stop-color="#ad85a5" offset="0"/>
   <stop stop-color="#b48ead" offset="1"/>
  </linearGradient>
  <radialGradient id="radialGradient1246" cx="8.4665" cy="8.4665" r="5.821" gradientTransform="matrix(1 0 0 1 0 -1.8938e-5)" gradientUnits="userSpaceOnUse">
   <stop stop-color="#d8dee9" offset="0"/>
   <stop stop-color="#eceff4" offset="1"/>
  </radialGradient>
  <filter id="filter2850" x="-.075" y="-.075" width="1.15" height="1.15" color-interpolation-filters="sRGB">
   <feGaussianBlur stdDeviation="0.36381185"/>
  </filter>
 </defs>
 <g stroke-linecap="round" stroke-linejoin="round">
  <rect transform="matrix(.99138 0 0 1 .072989 .0019055)" x=".79375" y=".90545" width="15.346" height="15.346" rx="3.0526" ry="3.0526" filter="url(#filter1178)" opacity=".15" stroke-width="1.2489" style="mix-blend-mode:normal"/>
  <rect x=".92604" y=".92604" width="15.081" height="15.081" rx="3" ry="3" fill="url(#linearGradient1340)" stroke-width="1.2274"/>
  <rect x=".01215" y=".0060174" width="16.924" height="16.927" fill="none" opacity=".15" stroke-width="1.052"/>
 </g>
 <path d="m7.8488 14.281c-0.04008-0.0069-0.17128-0.02675-0.29155-0.04402-0.32944-0.04732-0.87815-0.19127-1.177-0.30878-1.8017-0.70834-3.1022-2.1683-3.5755-4.014-0.1443-0.56268-0.16005-0.70987-0.15914-1.4876 7.81e-4 -0.6797 0.0061-0.75306 0.07973-1.0969 0.21747-1.0159 0.68724-1.9645 1.3395-2.7047 0.95336-1.082 2.3-1.7864 3.7386-1.9557 0.42609-0.050143 1.3174-0.019228 1.7218 0.059726 2.4401 0.47638 4.2502 2.3243 4.6961 4.7943 0.0639 0.35394 0.08793 1.2436 0.04345 1.608-0.30972 2.5366-2.1556 4.5402-4.6666 5.0653-0.31636 0.06616-0.45097 0.07758-1.0204 0.08656-0.36079 0.0058-0.68878 0.0047-0.72887-0.0022zm2.3397-3.0732 1.6837-0.41779v-0.82626l-3.4111 0.85174-3.4111-0.85174v0.83022l1.6983 0.42283c0.93404 0.23255 1.7114 0.41967 1.7274 0.41581 0.01603-0.0038 0.78681-0.19502 1.7128-0.42481zm-3.87e-4 -1.8993 1.6833-0.41566 3.88e-4 -0.41716c3.56e-4 -0.38384-0.0036-0.41593-0.05064-0.40175-0.02806 0.0085-0.79556 0.20111-1.7055 0.42808l-1.6545 0.41267-1.6545-0.41267c-0.90999-0.22697-1.6775-0.41961-1.7055-0.42808-0.04693-0.01418-0.05102 0.01802-0.05102 0.40205v0.41746l1.6545 0.41159c0.90999 0.22638 1.6873 0.41329 1.7274 0.41536 0.04008 0.0021 0.83037-0.18328 1.7562-0.41189zm-0.08852-1.8869c0.90276-0.22424 1.6709-0.41461 1.707-0.42304 0.06424-0.01501 0.0656-0.0239 0.0656-0.43063v-0.41532l-3.4076-0.84948-3.4146 0.84375v0.83636l0.08018 0.02026c0.35208 0.08899 3.2917 0.82005 3.3076 0.82257 0.01123 0.0018 0.75905-0.18024 1.6618-0.40448z" fill="#2e3440" filter="url(#filter2850)" opacity=".25" stroke-width=".029146"/>
 <path d="m7.8488 14.281c-0.040084-0.006931-0.17128-0.026754-0.29155-0.04402-0.32944-0.047323-0.87815-0.19127-1.177-0.30878-1.8017-0.70834-3.1022-2.1683-3.5755-4.014-0.1443-0.56268-0.16005-0.70987-0.15914-1.4876 7.809e-4 -0.6797 0.0061252-0.75306 0.079727-1.0969 0.21747-1.0159 0.68724-1.9645 1.3395-2.7047 0.95336-1.082 2.3-1.7864 3.7386-1.9557 0.42609-0.050143 1.3174-0.019228 1.7218 0.059726 2.4401 0.47638 4.2502 2.3243 4.6961 4.7943 0.0639 0.35394 0.08793 1.2436 0.04345 1.608-0.30972 2.5366-2.1556 4.5402-4.6666 5.0653-0.31636 0.06616-0.45097 0.07758-1.0204 0.08656-0.36079 0.0058-0.68878 0.0047-0.72887-0.0022zm2.3397-3.0732 1.6837-0.41779v-0.82626l-3.4111 0.85174-3.4111-0.85174v0.83022l1.6983 0.42283c0.93404 0.23255 1.7114 0.41967 1.7274 0.41581 0.016034-0.0038 0.78681-0.19502 1.7128-0.42481zm-3.87e-4 -1.8993 1.6833-0.41566 3.88e-4 -0.41716c3.56e-4 -0.38384-0.0036-0.41593-0.05064-0.40175-0.02806 0.00846-0.79556 0.20111-1.7055 0.42808l-1.6545 0.41267-1.6545-0.41267c-0.90999-0.22697-1.6775-0.41961-1.7055-0.42808-0.04693-0.014178-0.05102 0.018022-0.05102 0.40205v0.41746l1.6545 0.41159c0.90999 0.22638 1.6873 0.41329 1.7274 0.41536 0.040084 0.00207 0.83037-0.18328 1.7562-0.41189zm-0.08852-1.8869c0.90276-0.22425 1.6709-0.41461 1.707-0.42304 0.06424-0.015007 0.0656-0.0239 0.0656-0.43063v-0.41532l-3.4076-0.84948-3.4146 0.84375v0.83636l0.080177 0.020264c0.35208 0.088994 3.2917 0.82005 3.3076 0.82257 0.011232 0.0018 0.75905-0.18024 1.6618-0.40448z" fill="url(#radialGradient1246)" stroke-width=".029146"/>
</svg>
