<svg width="64" height="64" version="1.1" viewBox="0 0 16.933 16.933" xmlns="http://www.w3.org/2000/svg">
 <defs>
  <filter id="filter1178" x="-.047999" y="-.047999" width="1.096" height="1.096" color-interpolation-filters="sRGB">
   <feGaussianBlur stdDeviation="0.30691668"/>
  </filter>
  <linearGradient id="linearGradient1340" x1="8.6644" x2="8.6644" y1="15.931" y2=".063704" gradientUnits="userSpaceOnUse">
   <stop stop-color="#5e81ac" offset="0"/>
   <stop stop-color="#2e3440" offset="1"/>
  </linearGradient>
  <linearGradient id="linearGradient1096" x1="30.483" x2="30.483" y1="15.673" y2="51.973" gradientUnits="userSpaceOnUse">
   <stop stop-color="#d8dee9" offset="0"/>
   <stop stop-color="#eceff4" offset="1"/>
  </linearGradient>
  <filter id="filter1454" x="-.07619" y="-.098046" width="1.1524" height="1.1961" color-interpolation-filters="sRGB">
   <feGaussianBlur stdDeviation="0.40583937"/>
  </filter>
 </defs>
 <g stroke-linecap="round" stroke-linejoin="round">
  <rect transform="matrix(.99138 0 0 1 .072989 .0019055)" x=".79375" y=".90545" width="15.346" height="15.346" rx="3.0526" ry="3.0526" fill="#000000" filter="url(#filter1178)" opacity=".15" stroke-width="1.2489" style="mix-blend-mode:normal"/>
  <rect x=".92604" y=".92604" width="15.081" height="15.081" rx="3" ry="3" fill="url(#linearGradient1340)" stroke-width="1.2274"/>
  <rect x=".01215" y=".0060174" width="16.924" height="16.927" fill="none" opacity=".15" stroke-width="1.052"/>
 </g>
 <path d="m10.949 4.001c-1.6053 0-2.9114 1.3076-2.9114 2.9155 0 0.012895-1.415e-4 0.026135 5.167e-4 0.03824l-1.8753 2.7243c-0.30382-0.013816-0.60852 0.039562-0.8976 0.15864-0.12744 0.051972-0.2471 0.11596-0.35914 0.18965l-3.8302-1.5766v2.5755c0.00456 0.01392 0.00874 0.02804 0.013436 0.04186l2.9119 1.2009c0.14619 0.6533 0.594 1.2265 1.2552 1.5022 1.0818 0.45198 2.3291-0.06288 2.7791-1.1451 0.11711-0.2829 0.17171-0.57984 0.16381-0.8759l2.6835-1.9177c0.02171 6.583e-4 0.04443 0.00103 0.06614 0.00103 1.6059 0 2.9109-1.3093 2.9109-2.9171 0-1.6079-1.3049-2.9155-2.9109-2.9155zm0 0.97305c1.0698 0 1.9399 0.87174 1.9399 1.9425 0 1.0716-0.87014 1.9435-1.9399 1.9435-1.0691 0-1.9394-0.87192-1.9394-1.9435 0-1.0707 0.87028-1.9425 1.9394-1.9425zm0.0031 0.47955c-0.80396 0-1.4567 0.65422-1.4567 1.4603 0 0.8062 0.65277 1.4593 1.4567 1.4593 0.80462 0 1.4572-0.65312 1.4572-1.4593 0-0.80613-0.65263-1.4603-1.4572-1.4603zm-4.8606 4.7112c0.20488 0.0016 0.41263 0.04202 0.61339 0.12557 0.40481 0.16842 0.71875 0.48562 0.8852 0.89088 0.16645 0.40527 0.16579 0.85228-0.00258 1.2562-0.3483 0.8362-1.3093 1.2332-2.1445 0.8852-0.38534-0.16053-0.67603-0.45496-0.84386-0.80562l0.94773 0.39325c0.616 0.25658 1.3226-0.03583 1.5787-0.65163 0.25685-0.61646-0.034414-1.3242-0.65008-1.5808l-0.97977-0.40617c0.18902-0.07171 0.39094-0.10861 0.59582-0.10697z" fill="#2e3440" filter="url(#filter1454)" opacity=".4587" stroke-width=".06579"/>
 <path transform="scale(.26458)" d="m40.816 14.98c-6.0674 0-11.004 4.9422-11.004 11.02 0 0.048738-5.35e-4 0.098779 0.001953 0.14453l-7.0879 10.297c-1.1483-0.052219-2.3 0.14953-3.3926 0.59961-0.48166 0.19644-0.93395 0.4383-1.3574 0.7168l-14.477-5.959v9.7344c0.017231 0.052624 0.033034 0.10599 0.050781 0.1582l11.006 4.5391c0.55253 2.4692 2.2451 4.6358 4.7441 5.6777 4.0888 1.7083 8.8031-0.23764 10.504-4.3281 0.44262-1.0692 0.64898-2.1916 0.61914-3.3105l10.143-7.248c0.082055 0.002488 0.16794 0.003907 0.25 0.003907 6.0698 0 11.002-4.9486 11.002-11.025 0-6.0773-4.9321-11.02-11.002-11.02zm0 3.6777c4.0432 0 7.332 3.2948 7.332 7.3418 0 4.0502-3.2888 7.3457-7.332 7.3457-4.0408 0-7.3301-3.2955-7.3301-7.3457 0-4.047 3.2893-7.3418 7.3301-7.3418zm0.011719 1.8125c-3.0386 0-5.5059 2.4727-5.5059 5.5195 0 3.0471 2.4672 5.5156 5.5059 5.5156 3.0411 0 5.5078-2.4685 5.5078-5.5156-1e-6 -3.0469-2.4667-5.5195-5.5078-5.5195zm-18.371 17.807c0.77436 0.006216 1.5596 0.15881 2.3184 0.47461 1.53 0.63658 2.7166 1.8354 3.3457 3.3672 0.62912 1.5318 0.62661 3.2213-0.009766 4.748-1.3164 3.1605-4.9485 4.6611-8.1055 3.3457-1.4564-0.60673-2.5551-1.7196-3.1895-3.0449l3.582 1.4863c2.3282 0.96978 4.999-0.13541 5.9668-2.4629 0.97077-2.33-0.13007-5.0048-2.457-5.9746l-3.7031-1.5352c0.71441-0.27104 1.4776-0.41051 2.252-0.4043z" fill="url(#linearGradient1096)" stroke-width=".24866"/>
</svg>
