<svg width="64" height="64" version="1.1" viewBox="0 0 16.933 16.933" xmlns="http://www.w3.org/2000/svg">
 <defs>
  <filter id="filter1178" x="-.047999" y="-.047999" width="1.096" height="1.096" color-interpolation-filters="sRGB">
   <feGaussianBlur stdDeviation="0.30691668"/>
  </filter>
  <linearGradient id="linearGradient1340" x1="8.355" x2="8.3996" y1="16.007" y2=".79375" gradientTransform="translate(-.0076499 -.0030174)" gradientUnits="userSpaceOnUse">
   <stop stop-color="#88c0d0" offset="0"/>
   <stop stop-color="#5e81ac" offset="1"/>
  </linearGradient>
  <linearGradient id="linearGradient1731" x1="8.176" x2="8.2807" y1="2.3324" y2="14.506" gradientUnits="userSpaceOnUse">
   <stop stop-color="#88c0d0" offset="0"/>
   <stop stop-color="#5e81ac" offset="1"/>
  </linearGradient>
  <filter id="filter2463" x="-.17573" y="-.15927" width="1.3514" height="1.3185" color-interpolation-filters="sRGB">
   <feGaussianBlur stdDeviation="0.32905716"/>
  </filter>
 </defs>
 <g stroke-linecap="round" stroke-linejoin="round">
  <rect transform="matrix(.99138 0 0 1 .072989 .0019055)" x=".79375" y=".90545" width="15.346" height="15.346" rx="3.0526" ry="3.0526" fill="#000000" filter="url(#filter1178)" opacity=".15" stroke-width="1.2489" style="mix-blend-mode:normal"/>
  <rect x=".91839" y=".92302" width="15.081" height="15.081" rx="3" ry="3" fill="url(#linearGradient1340)" stroke-width="1.2274"/>
  <rect x=".0045001" y=".003" width="16.924" height="16.927" fill="none" opacity=".15" stroke-width="1.052"/>
  <path d="m3.9184 1.9813h9.081c1.662 0 3 1.338 3 3v7.4935c0 1.662-1.338 3-3 3h-9.081c-1.662 0-3-1.338-3-3v-7.4935c0-1.662 1.338-3 3-3z" fill="url(#linearGradient1731)" stroke-width="1.2274"/>
 </g>
 <g transform="translate(15.167 .18577)" fill="none" filter="url(#filter2463)" opacity=".5" stroke="#2e3440">
  <ellipse cx="-6.7001" cy="8.6517" rx="3.6232" ry="3.6892" opacity="1" stroke-linecap="round" stroke-linejoin="round" stroke-width=".62811"/>
  <path d="m-5.7007 5.7365v2.4199h0.91968c0.15363 0.00662 0.26294 0.057558 0.32588 0.15321 0.17102 0.25632-0.06253 0.50974-0.22443 0.68821-0.45963 0.50435-1.5002 1.4178-1.7271 1.6845-0.17185 0.19007-0.41657 0.19007-0.58841 0-0.23437-0.27371-1.3317-1.2423-1.7686-1.7329-0.15156-0.1706-0.33914-0.40332-0.18137-0.63976 0.064597-0.095654 0.17267-0.14659 0.3263-0.15321h0.9172v-2.4199z" stroke-width=".041408"/>
 </g>
 <rect x="7.5363" y=".92302" width="1.8453" height="1.9128" fill="#eceff4" opacity=".4"/>
 <rect x="7.5363" y="14.091" width="1.8453" height="1.9128" fill="#eceff4" opacity=".4"/>
 <g transform="translate(15.167 .18577)">
  <path d="m-5.7007 5.7365v2.4199h0.91968c0.15363 0.00662 0.26294 0.057558 0.32588 0.15321 0.17102 0.25632-0.06253 0.50974-0.22443 0.68821-0.45963 0.50435-1.5002 1.4178-1.7271 1.6845-0.17185 0.19007-0.41657 0.19007-0.58841 0-0.23437-0.27371-1.3317-1.2423-1.7686-1.7329-0.15156-0.1706-0.33914-0.40332-0.18137-0.63976 0.064597-0.095654 0.17267-0.14659 0.3263-0.15321h0.9172v-2.4199z" fill="#2e3440" stroke-width=".041408"/>
  <ellipse cx="-6.7001" cy="8.2807" rx="3.6232" ry="3.6892" fill="none" stroke="#2e3440" stroke-linecap="round" stroke-linejoin="round" stroke-width=".62811"/>
 </g>
</svg>
