<?xml version="1.0" encoding="UTF-8" standalone="no"?>
<svg
   width="64"
   height="64"
   version="1.1"
   viewBox="0 0 16.933 16.933"
   id="svg20"
   sodipodi:docname="template-blue.svg"
   inkscape:version="1.1.2 (1:1.1+202202050950+0a00cf5339)"
   xmlns:inkscape="http://www.inkscape.org/namespaces/inkscape"
   xmlns:sodipodi="http://sodipodi.sourceforge.net/DTD/sodipodi-0.dtd"
   xmlns:xlink="http://www.w3.org/1999/xlink"
   xmlns="http://www.w3.org/2000/svg"
   xmlns:svg="http://www.w3.org/2000/svg">
  <sodipodi:namedview
     id="namedview22"
     pagecolor="#505050"
     bordercolor="#eeeeee"
     borderopacity="1"
     inkscape:pageshadow="0"
     inkscape:pageopacity="0"
     inkscape:pagecheckerboard="0"
     showgrid="false"
     inkscape:zoom="12.984375"
     inkscape:cx="32"
     inkscape:cy="31.961492"
     inkscape:window-width="2560"
     inkscape:window-height="1358"
     inkscape:window-x="0"
     inkscape:window-y="0"
     inkscape:window-maximized="1"
     inkscape:current-layer="svg20" />
  <defs
     id="defs10">
    <linearGradient
       inkscape:collect="always"
       id="linearGradient931">
      <stop
         style="stop-color:#d8dee9;stop-opacity:1"
         offset="0"
         id="stop927" />
      <stop
         style="stop-color:#eceff4;stop-opacity:1"
         offset="1"
         id="stop929" />
    </linearGradient>
    <filter
       id="filter1178"
       x="-0.047999482"
       y="-0.047999482"
       width="1.095999"
       height="1.095999"
       color-interpolation-filters="sRGB">
      <feGaussianBlur
         stdDeviation="0.30691668"
         id="feGaussianBlur2" />
    </filter>
    <linearGradient
       id="linearGradient1340"
       x1="8.6644"
       x2="8.6644"
       y1="15.931"
       y2=".79375"
       gradientUnits="userSpaceOnUse">
      <stop
         stop-color="#5e81ac"
         offset="0"
         id="stop5" />
      <stop
         stop-color="#88c0d0"
         offset="1"
         id="stop7" />
    </linearGradient>
    <filter
       inkscape:collect="always"
       style="color-interpolation-filters:sRGB"
       id="filter887"
       x="-0.074999999"
       y="-0.074999999"
       width="1.15"
       height="1.15">
      <feGaussianBlur
         inkscape:collect="always"
         stdDeviation="0.34725876"
         id="feGaussianBlur889" />
    </filter>
    <linearGradient
       inkscape:collect="always"
       xlink:href="#linearGradient931"
       id="linearGradient933"
       x1="8.4268646"
       y1="15.971568"
       x2="8.5039139"
       y2="0.92627555"
       gradientUnits="userSpaceOnUse" />
  </defs>
  <g
     stroke-linecap="round"
     stroke-linejoin="round"
     id="g18">
    <rect
       transform="matrix(.99138 0 0 1 .072989 2.4878e-7)"
       x=".79375"
       y=".90545"
       width="15.346"
       height="15.346"
       rx="3.0526"
       ry="3.0526"
       fill="#2e3440"
       filter="url(#filter1178)"
       opacity=".2"
       stroke-width="1.2489"
       style="mix-blend-mode:normal"
       id="rect12" />
    <rect
       x=".92604"
       y=".92604"
       width="15.081"
       height="15.081"
       rx="3"
       ry="3"
       fill="url(#linearGradient1340)"
       stroke-width="1.2274"
       id="rect14" />
    <rect
       x=".01215"
       y=".0060174"
       width="16.924"
       height="16.927"
       fill="none"
       opacity=".15"
       stroke-width="1.052"
       id="rect16" />
  </g>
  <path
     style="opacity:0.318;fill:#2e3440;fill-opacity:1;stroke-width:0.264578;filter:url(#filter887)"
     d="m 8.4665005,2.9103599 c -3.0685715,0 -5.5561406,2.4875691 -5.5561406,5.5561408 0,3.0685703 2.4875691,5.5561393 5.5561406,5.5561393 3.0685705,0 5.5561395,-2.487569 5.5561395,-5.5561393 0,-3.0685717 -2.487569,-5.5561408 -5.5561395,-5.5561408 z M 6.3498755,6.3498755 V 7.408188 H 10.583125 V 6.3498755 l 2.910359,2.1166252 -2.910359,2.1166243 V 9.5248127 H 6.3498755 V 10.583125 L 3.4395162,8.4665007 Z"
     id="path8" />
  <path
     style="fill:url(#linearGradient933);stroke-width:0.264578;fill-opacity:1"
     d="m 8.4665006,2.9103603 c -3.068571,0 -5.556141,2.487569 -5.556141,5.5561408 0,3.0685699 2.48757,5.5561389 5.556141,5.5561389 3.0685704,0 5.5561394,-2.487569 5.5561394,-5.5561389 0,-3.0685718 -2.487569,-5.5561409 -5.5561394,-5.5561408 z m -2.116625,3.439515 v 1.058313 h 4.2332494 v -1.058313 l 2.910359,2.1166258 -2.910359,2.1166239 V 9.5248132 H 6.3498756 V 10.583125 L 3.4395166,8.4665011 Z"
     id="path8-3" />
</svg>
