<svg width="64" height="64" version="1.1" viewBox="0 0 16.933 16.933" xmlns="http://www.w3.org/2000/svg">
 <defs>
  <filter id="filter1178" x="-.047999" y="-.047999" width="1.096" height="1.096" color-interpolation-filters="sRGB">
   <feGaussianBlur stdDeviation="0.30691668"/>
  </filter>
  <linearGradient id="linearGradient1340" x1="14.343" x2="5.8502" y1="1.6007" y2="12.535" gradientUnits="userSpaceOnUse">
   <stop stop-color="#5e81ac" offset="0"/>
   <stop stop-color="#88c0d0" offset="1"/>
  </linearGradient>
  <linearGradient id="paint1_linear_24_29" x1="41.481" x2="41.481" y1="22.173" y2="39.961" gradientTransform="matrix(.26458 0 0 .26458 -.13279 .29063)" gradientUnits="userSpaceOnUse">
   <stop stop-color="#D8DEE9" stop-opacity=".85" offset="0"/>
   <stop stop-color="#ECEFF4" offset="1"/>
  </linearGradient>
  <filter id="filter1349" x="-.054656" y="-.065951" width="1.1093" height="1.1319" color-interpolation-filters="sRGB">
   <feGaussianBlur stdDeviation="0.19656944"/>
  </filter>
 </defs>
 <g stroke-linecap="round" stroke-linejoin="round">
  <rect transform="matrix(.99138 0 0 1 .072989 .0019055)" x=".79375" y=".90545" width="15.346" height="15.346" rx="3.0526" ry="3.0526" fill="#000000" filter="url(#filter1178)" opacity=".15" stroke-width="1.2489" style="mix-blend-mode:normal"/>
  <rect x=".92604" y=".92604" width="15.081" height="15.081" rx="3" ry="3" fill="url(#linearGradient1340)" stroke-width="1.2274"/>
  <rect x=".01215" y=".0060174" width="16.924" height="16.927" fill="none" opacity=".15" stroke-width="1.052"/>
 </g>
 <g transform="matrix(1.1719 0 0 1.1719 -1.0151 -1.1909)" stroke-width=".26458">
  <path d="m3.8922 8.5374c2.3169-1.0094 3.862-1.6748 4.6349-1.9965 2.2071-0.91809 2.6659-1.0776 2.9649-1.0829 0.06562-0.00106 0.21272 0.015346 0.30797 0.092602 0.08043 0.065086 0.10266 0.15346 0.11324 0.2151 0.01058 0.061911 0.02381 0.20293 0.01323 0.313-0.11959 1.2567-0.6371 4.3065-0.90062 5.7141-0.11112 0.59556-0.33072 0.79532-0.54291 0.8149-0.46169 0.04233-0.81225-0.30506-1.2594-0.59795-0.69928-0.45878-1.0946-0.74426-1.7735-1.1917-0.78474-0.51699-0.27596-0.80114 0.17118-1.2657 0.11694-0.12171 2.1508-1.9711 2.1899-2.1391 5e-3 -0.020902 0.0095-0.099217-0.03704-0.14023-0.0463-0.041539-0.11483-0.027252-0.1643-0.016139-0.07038 0.015875-1.188 0.75458-3.3525 2.2158-0.3175 0.21775-0.60456 0.32384-0.862 0.31829-0.28389-0.00609-0.82972-0.16033-1.2356-0.29236-0.49741-0.16166-0.89322-0.24738-0.85882-0.52201 0.017991-0.14314 0.2151-0.28945 0.59133-0.4392z" fill="#2e3440" filter="url(#filter1349)" opacity=".26589"/>
  <path d="m3.8922 8.2534c2.3169-1.0094 3.862-1.6748 4.6349-1.9965 2.2071-0.91809 2.6659-1.0776 2.9649-1.0829 0.06562-0.00106 0.21272 0.015346 0.30797 0.092602 0.08043 0.065086 0.10266 0.15346 0.11324 0.2151 0.01058 0.061911 0.02381 0.20293 0.01323 0.313-0.11959 1.2567-0.6371 4.3065-0.90062 5.7141-0.11112 0.59556-0.33072 0.79532-0.54291 0.8149-0.46169 0.04233-0.81225-0.30506-1.2594-0.59795-0.69928-0.45878-1.0946-0.74426-1.7735-1.1917-0.78474-0.51699-0.27596-0.80114 0.17118-1.2657 0.11694-0.12171 2.1508-1.9711 2.1899-2.1391 5e-3 -0.020902 0.0095-0.099217-0.03704-0.14023-0.0463-0.041539-0.11483-0.027252-0.1643-0.016139-0.07038 0.015875-1.188 0.75458-3.3525 2.2158-0.3175 0.21775-0.60456 0.32384-0.862 0.31829-0.28389-0.00609-0.82972-0.16033-1.2356-0.29236-0.49741-0.16166-0.89322-0.24738-0.85882-0.52201 0.017991-0.14314 0.2151-0.28945 0.59133-0.4392z" fill="url(#paint1_linear_24_29)"/>
 </g>
</svg>
