<svg width="64" height="64" version="1.1" viewBox="0 0 16.933 16.933" xmlns="http://www.w3.org/2000/svg" xmlns:xlink="http://www.w3.org/1999/xlink">
 <defs>
  <filter id="filter1178" x="-.047999" y="-.047999" width="1.096" height="1.096" color-interpolation-filters="sRGB">
   <feGaussianBlur stdDeviation="0.30691668"/>
  </filter>
  <linearGradient id="linearGradient1340" x1="8.355" x2="8.3996" y1="16.007" y2=".79375" gradientUnits="userSpaceOnUse">
   <stop stop-color="#d8dee9" offset="0"/>
   <stop stop-color="#eceff4" offset="1"/>
  </linearGradient>
  <linearGradient id="linearGradient2014" x1="7.9709" x2="7.9827" y1="15.584" y2="1.1618" gradientUnits="userSpaceOnUse">
   <stop stop-color="#2e3440" stop-opacity=".2" offset="0"/>
   <stop stop-color="#4c566a" stop-opacity=".2" offset="1"/>
  </linearGradient>
  <linearGradient id="linearGradient2546" x1="7.9709" x2="7.9827" y1="15.584" y2="1.1618" gradientTransform="matrix(.96209 0 0 .96209 .321 .321)" gradientUnits="userSpaceOnUse">
   <stop stop-color="#2e3440" offset="0"/>
   <stop stop-color="#4c566a" offset="1"/>
  </linearGradient>
  <filter id="filter888" x="-.062856" y="-.09296" width="1.1257" height="1.1859" color-interpolation-filters="sRGB">
   <feGaussianBlur stdDeviation="0.14481734"/>
  </filter>
  <linearGradient id="linearGradient881" x1="5.2049" x2="5.2049" y1="7.1604" y2="3.8654" gradientUnits="userSpaceOnUse">
   <stop stop-color="#d8dee9" offset="0"/>
   <stop stop-color="#eceff4" offset="1"/>
  </linearGradient>
 </defs>
 <g stroke-linecap="round" stroke-linejoin="round">
  <rect transform="matrix(.99138 0 0 1 .072989 2.5202e-7)" x=".79375" y="1.0171" width="15.346" height="15.346" rx="3.0526" ry="3.0526" fill="#2e3440" filter="url(#filter1178)" opacity=".2" stroke-width="1.2489" style="mix-blend-mode:normal"/>
  <rect x=".92604" y=".92604" width="15.081" height="15.081" rx="3" ry="3" fill="url(#linearGradient1340)" stroke-width="1.2274"/>
  <rect x=".01215" y=".0060174" width="16.924" height="16.927" fill="none" opacity=".15" stroke-width="1.052"/>
  <rect x=".92604" y=".92604" width="15.081" height="15.081" rx="3" ry="3" fill="url(#linearGradient2014)" stroke-width="1.2274"/>
  <rect x="1.2119" y="1.2119" width="14.509" height="14.509" rx="2.8863" ry="2.8863" fill="url(#linearGradient2546)" stroke-width="1.2274"/>
 </g>
 <g transform="matrix(1.3533 0 0 1.3533 -.94213 -1.2661)" stroke-width=".19551">
  <g transform="translate(.17304 .17304)" fill="#2e3440" filter="url(#filter888)" opacity=".25" aria-label="&gt;_">
   <path d="m2.6666 4.1314v-0.5479l2.8097 1.0147v0.51722l-2.8097 1.0147v-0.5479l2.1149-0.72323z"/>
   <path d="m8.1961 6.9059v0.41641h-2.2442v-0.41641z"/>
  </g>
  <g fill="url(#linearGradient881)" aria-label="&gt;_">
   <path d="m2.6666 4.1314v-0.5479l2.8097 1.0147v0.51722l-2.8097 1.0147v-0.5479l2.1149-0.72323z"/>
   <path d="m8.1961 6.9059v0.41641h-2.2442v-0.41641z"/>
  </g>
 </g>
</svg>
