<svg width="64" height="64" version="1.1" viewBox="0 0 16.933 16.933" xmlns="http://www.w3.org/2000/svg">
 <defs>
  <filter id="filter1178" x="-.047999" y="-.047999" width="1.096" height="1.096" color-interpolation-filters="sRGB">
   <feGaussianBlur stdDeviation="0.30691668"/>
  </filter>
  <linearGradient id="linearGradient1637" x1="7.9709" x2="7.9827" y1="15.584" y2="1.1618" gradientTransform="matrix(.84 0 0 .84 1.3546 1.3546)" gradientUnits="userSpaceOnUse">
   <stop stop-color="#4c566a" offset="0"/>
   <stop stop-color="#2e3440" offset="1"/>
  </linearGradient>
  <linearGradient id="linearGradient1781" x1="8.3056" x2="8.3056" y1="1.0579" y2="15.858" gradientUnits="userSpaceOnUse">
   <stop stop-color="#d8dee9" offset="0"/>
   <stop stop-color="#eceff4" offset="1"/>
  </linearGradient>
  <linearGradient id="linearGradient334" x1="6.6668" x2="5.7246" y1="3.6645" y2="8.5849" gradientUnits="userSpaceOnUse">
   <stop stop-color="#d8dee9" offset="0"/>
   <stop stop-color="#eceff4" offset="1"/>
  </linearGradient>
  <linearGradient id="linearGradient1006" x1="3.9277" x2="5.7246" y1="3.6996" y2="8.5849" gradientUnits="userSpaceOnUse">
   <stop stop-color="#d8dee9" offset="0"/>
   <stop stop-color="#eceff4" offset="1"/>
  </linearGradient>
  <filter id="filter1128" x="-.071469" y="-.1057" width="1.1429" height="1.2114" color-interpolation-filters="sRGB">
   <feGaussianBlur stdDeviation="0.16494722"/>
  </filter>
 </defs>
 <g stroke-linejoin="round">
  <g stroke-linecap="round">
   <rect transform="matrix(.99138 0 0 1 .072989 .0019055)" x=".79375" y=".90545" width="15.346" height="15.346" rx="3.0526" ry="3.0526" filter="url(#filter1178)" opacity=".15" stroke-width="1.2489" style="mix-blend-mode:normal"/>
   <rect x=".01215" y=".0060174" width="16.924" height="16.927" fill="none" opacity=".15" stroke-width="1.052"/>
   <rect x=".92604" y=".92604" width="15.081" height="15.081" rx="3" ry="3" fill="url(#linearGradient1781)" stroke-width="1.2274"/>
   <rect x="2.1325" y="2.1325" width="12.668" height="12.668" rx="2.52" ry="2.52" fill="url(#linearGradient1637)" stroke-width="1.031"/>
  </g>
  <g transform="matrix(1.0273 0 0 1.0273 1.0044 .77206)" fill="#2e3440" filter="url(#filter1128)" stroke="#2e3440" stroke-width=".27791">
   <path d="m2.6666 4.5939v-1.0105l3.8024 1.8714v0.95388l-3.8024 1.8714v-1.0105l2.8621-1.3338z"/>
   <path d="m10.15 8.0797v0.56353h-3.0371v-0.56353z"/>
  </g>
  <g transform="matrix(1.0273 0 0 1.0273 .7892 .48506)" fill="url(#linearGradient334)" stroke="url(#linearGradient1006)" stroke-width=".27791">
   <path d="m2.6666 4.5939v-1.0105l3.8024 1.8714v0.95388l-3.8024 1.8714v-1.0105l2.8621-1.3338z"/>
   <path d="m10.15 8.0797v0.56353h-3.0371v-0.56353z"/>
  </g>
 </g>
</svg>
