<svg width="64" height="64" version="1.1" viewBox="0 0 16.933 16.933" xmlns="http://www.w3.org/2000/svg">
 <defs>
  <filter id="filter1178" x="-.048" y="-.048" width="1.096" height="1.096" color-interpolation-filters="sRGB">
   <feGaussianBlur stdDeviation="0.30691955"/>
  </filter>
  <linearGradient id="linearGradient1340" x1="8.5011" x2="8.489" y1="16.007" y2=".79375" gradientUnits="userSpaceOnUse">
   <stop stop-color="#2e3440" offset="0"/>
   <stop stop-color="#4c566a" offset="1"/>
  </linearGradient>
  <filter id="filter3977-9" x="-.018783" y="-.03323" width="1.0376" height="1.0665" color-interpolation-filters="sRGB">
   <feGaussianBlur stdDeviation="1.6009017"/>
  </filter>
  <linearGradient id="linearGradient1424-9" x1="30.251" x2="30.458" y1="-6.3156" y2="2.5274" gradientTransform="matrix(.35824 0 0 .35824 2.4501 14.19)" gradientUnits="userSpaceOnUse">
   <stop stop-color="#eceff4" offset="0"/>
   <stop stop-color="#d8dee9" offset="1"/>
  </linearGradient>
  <linearGradient id="linearGradient8384" x1="8.512" x2="8.2779" y1="2.8059" y2="7.8702" gradientTransform="matrix(1.102 0 0 1.102 -.39665 -.27112)" gradientUnits="userSpaceOnUse">
   <stop stop-color="#eceff4" offset="0"/>
   <stop stop-color="#d8dee9" offset="1"/>
  </linearGradient>
  <linearGradient id="linearGradient8526" x1="8.4853" x2="8.468" y1="8.983" y2="10.655" gradientTransform="matrix(1.0833 0 0 1.0833 -.67264 -.32809)" gradientUnits="userSpaceOnUse">
   <stop stop-color="#eceff4" offset="0"/>
   <stop stop-color="#d8dee9" offset="1"/>
  </linearGradient>
  <linearGradient id="linearGradient8656" x1="323.31" x2="322.06" y1="125.56" y2="235.4" gradientUnits="userSpaceOnUse">
   <stop stop-color="#eceff4" offset="0"/>
   <stop stop-color="#d8dee9" offset="1"/>
  </linearGradient>
 </defs>
 <g stroke-linecap="round" stroke-linejoin="round">
  <rect transform="matrix(.99138 0 0 1 .072989 .0019055)" x=".79375" y=".90545" width="15.346" height="15.346" rx="3.0526" ry="3.0526" fill="#000000" filter="url(#filter1178)" opacity=".15" stroke-width="1.2489" style="mix-blend-mode:normal"/>
  <rect x=".92604" y=".92604" width="15.081" height="15.081" rx="3" ry="3" fill="url(#linearGradient1340)" stroke-width="1.2274"/>
  <rect x=".01215" y=".0060174" width="16.924" height="16.927" fill="none" opacity=".15" stroke-width="1.052"/>
 </g>
 <g transform="translate(-.60773)">
  <path transform="matrix(.04968 0 0 .04968 -7.2741 -3.2929)" d="m326.28 238.13h-31.825v-3.4572l3.0179-2e-3c1.6598-1e-3 3.6484-0.18598 4.4189-0.41067 1.0797-0.31482 1.5202-0.70798 1.9205-1.7141 0.43645-1.0968 0.51949-7.1615 0.51949-37.945 0-26.347-0.11666-36.991-0.41531-37.891-0.28152-0.84802-0.80805-1.4234-1.6344-1.7859-0.73643-0.32311-2.5272-0.53487-4.5231-0.53487h-3.304v-3.8414h6.5846l-7e-3 -1.6326c-4e-3 -0.89792-0.24559-3.514-0.53702-5.8135-0.29143-2.2996-0.79658-5.1444-1.1226-6.3218-0.32597-1.1774-0.98159-2.9468-1.4569-3.9318-0.47536-0.98506-1.4074-2.273-2.0711-2.8622-0.66377-0.58912-1.9386-1.4125-2.8328-1.8297-0.89429-0.41724-3.1166-0.99369-4.9384-1.281-1.8218-0.28732-6.1206-0.52361-9.5527-0.52511-4.8149-2e-3 -6.4025 0.12182-6.9504 0.54246-0.69342 0.5324-0.71234 1.4323-0.80679 38.374-0.0609 23.805 0.0351 38.193 0.25865 38.81 0.19544 0.53981 0.89741 1.2894 1.5599 1.6658 0.96037 0.54561 2.2985 0.71224 6.6003 0.82189l5.3957 0.13754v3.3868h-36.215v-3.4572l4.6641-9e-3c2.5652-5e-3 5.3073-0.16583 6.0935-0.35732 0.78616-0.1915 1.8562-0.79629 2.3778-1.344l0.94837-0.99586v-37.98c0-36.81-0.0214-38.005-0.69687-38.789-0.65676-0.76208-1.0572-0.80861-6.96-0.80861-3.4447 0-7.6282 0.17974-9.2966 0.39943-1.6684 0.21968-3.9491 0.75915-5.0681 1.1988-1.119 0.43966-2.6834 1.4149-3.4765 2.1673-0.79302 0.75234-1.7693 2.0419-2.1695 2.8657-0.40022 0.82378-1.0284 2.737-1.396 4.2517-0.36761 1.5146-0.84356 4.3096-1.0577 6.2111-0.2141 1.9015-0.49119 4.4512-0.61573 5.666l-0.22646 2.2088h-2.5767l0.21123-1.8246c0.11617-1.0035 0.54746-6.7512 0.95841-12.772 0.41093-6.0213 0.83526-11.682 0.94293-12.58l0.19577-1.6326h35.278c19.403 0 35.281 0.12964 35.284 0.28811 3e-3 0.15845 0.41337 5.9061 0.91158 12.772 0.4982 6.8664 0.90716 13.046 0.90877 13.733l3e-3 1.2484h52.643l0.19231 1.2484c0.10582 0.68664 0.77186 6.9528 1.4802 13.925 0.70835 6.972 1.2877 12.806 1.2875 12.965-2.2e-4 0.15847-0.54798 0.28811-1.2172 0.28811h-1.2168l-0.60577-4.5136c-0.33318-2.4825-0.86334-5.5508-1.1782-6.8184-0.31481-1.2676-0.96141-3.1994-1.4369-4.2928-0.47548-1.0934-1.5613-2.7818-2.4129-3.752-0.8977-1.0227-2.4971-2.2395-3.8059-2.8954-1.2416-0.62224-3.7088-1.3971-5.4826-1.722-2.4664-0.45164-6.0875-0.5906-15.391-0.5906-11.432 0-12.218 0.0444-13.03 0.73402l-0.8636 0.73402-0.22986 35.024 5.785-3e-3c3.1817-2e-3 7.2382-0.17799 9.0145-0.39169 1.7762-0.21369 3.8339-0.71403 4.5726-1.1119 0.73871-0.39783 1.7056-1.1314 2.1487-1.6303 0.44308-0.49881 1.0849-1.596 1.4262-2.4382 0.38839-0.95829 0.68662-3.0046 0.79703-5.4687l0.17641-3.9374h2.4648v33.42h-2.5607l-6e-3 -2.977c-3e-3 -1.6374-0.22754-3.9669-0.49867-5.1767s-0.91852-2.7855-1.4386-3.5016c-0.52013-0.71609-1.7361-1.7116-2.7022-2.2122-1.6722-0.86659-2.1745-0.91663-10.466-1.0427l-8.7096-0.1324 0.11309 19.464 0.11308 19.464 0.89624 0.7618c0.86558 0.73574 1.3723 0.75686 14.815 0.61759 13.68-0.14174 13.971-0.16096 16.929-1.12 1.6553-0.53669 3.8976-1.5949 4.9829-2.3516 1.0853-0.75668 2.5691-2.1394 3.2973-3.0726 0.72826-0.93327 1.8067-2.8145 2.3965-4.1805 0.58984-1.366 1.3299-3.5272 1.6446-4.8025s0.82123-3.6854 1.1256-5.3557c0.30436-1.6702 0.55342-3.1664 0.55345-3.3249 4e-5 -0.15847-1.6555-0.28811-3.6791-0.28811h-3.6791l0.11249-1.6326c0.11096-1.6112 0.13163-1.6338 1.5757-1.724 0.80478-0.0503 2.3686-0.28718 3.4752-0.52642 1.1066-0.23925 2.9387-0.92478 4.0715-1.5234 1.1327-0.59861 2.8992-1.9175 3.9254-2.9308 1.1928-1.1778 5.7611-7.848 12.664-18.491 5.9391-9.157 10.798-16.805 10.798-16.996s-5.2738-8.5157-11.72-18.499c-6.4458-9.9837-12.351-18.786-13.123-19.561-0.77173-0.77496-2.0413-1.5951-2.8212-1.8225s-2.6938-0.41444-4.2531-0.41562l-2.835-2e-3v-3.4572h26.338v1.7286c0 1.5936-0.0724 1.7286-0.92627 1.7286-0.50945 0-1.4843 0.24485-2.1664 0.54412-0.68206 0.29926-1.5115 0.97911-1.8433 1.5108-0.49571 0.79444-0.52419 1.1252-0.15992 1.8567 0.24379 0.48953 4.4929 7.1516 9.4424 14.805 6.9979 10.82 9.0954 13.81 9.4317 13.445 0.23792-0.25839 4.1489-6.1571 8.6911-13.108 7.2972-11.167 8.2586-12.813 8.2586-14.136 0-0.82367-0.2497-2.0046-0.5549-2.6244-0.3052-0.61976-1.0378-1.389-1.628-1.7095-0.59018-0.3205-1.4105-0.58271-1.8228-0.58271-0.64476 0-0.74978-0.24213-0.74978-1.7286v-1.7286h22.68v3.4572h-1.5693c-0.86311 0-2.512 0.25785-3.6642 0.573s-2.9426 1.0241-3.9787 1.5754c-1.0361 0.55133-2.7206 1.8974-3.7434 2.9914-1.0228 1.0939-5.975 8.2759-11.005 15.96-5.0299 7.6841-9.1935 14.097-9.2526 14.252-0.059 0.15451 5.9275 9.5928 13.303 20.974 7.3759 11.381 13.979 21.318 14.673 22.081 0.69436 0.76317 1.8876 1.5842 2.6517 1.8246 0.76406 0.24039 2.3578 0.43943 3.5416 0.44232 1.1838 3e-3 2.5228 0.10948 2.9755 0.23688 0.68522 0.19283 0.82307 0.49753 0.82307 1.8194v1.5878h-26.371l0.10772-1.688c0.10626-1.6641 0.13208-1.6945 1.8249-2.144 0.94445-0.25076 1.9917-0.69517 2.3272-0.98758 0.33552-0.29242 0.73679-0.88338 0.89171-1.3133 0.15491-0.42988 0.11018-1.1273-0.0996-1.5499-0.20964-0.42255-5.0678-8.0284-10.796-16.902-5.7281-8.8735-10.53-16.269-10.672-16.435s-4.6642 6.469-10.051 14.743c-5.3865 8.2744-10.039 15.662-10.339 16.416-0.43044 1.0818-0.46159 1.6668-0.14737 2.7682 0.21913 0.76803 0.71818 1.7003 1.109 2.0717 0.39081 0.3714 1.3388 0.90104 2.1066 1.177 1.2795 0.45984 1.4054 0.63317 1.5085 2.0762l0.11249 1.5745h-6.6056c-3.6331 0-6.6068 0.12965-6.6084 0.2881-1e-3 0.15847-0.82451 6.3382-1.8288 13.733-1.0043 7.3946-1.8262 13.574-1.8263 13.733-1.1e-4 0.15846-14.322 0.2881-31.826 0.2881z" fill="url(#linearGradient8656)" filter="url(#filter3977-9)"/>
  <path d="m8.7256 8.4019h-1.5811v-0.17176l0.14993-9.31e-5c0.082462-4.67e-5 0.18125-0.00923 0.21953-0.020403 0.053638-0.015641 0.075522-0.035173 0.095411-0.085158 0.021683-0.054488 0.025809-0.35579 0.025809-1.8851 0-1.309-0.0058-1.8377-0.020633-1.8824-0.013986-0.04213-0.040144-0.070713-0.081198-0.088727-0.036586-0.016051-0.12555-0.026571-0.22471-0.026571h-0.16415v-0.19084h0.32712l-3.261e-4 -0.081106c-1.863e-4 -0.04461-0.012201-0.17458-0.026679-0.28882s-0.039574-0.25557-0.055769-0.31407c-0.016194-0.058496-0.048766-0.1464-0.072382-0.19534-0.023616-0.048938-0.069919-0.11292-0.1029-0.14219-0.032976-0.029268-0.096308-0.070174-0.14074-0.090902-0.044428-0.020729-0.15483-0.049367-0.24534-0.063641s-0.30407-0.026013-0.47458-0.026088c-0.2392-9.31e-5 -0.31808 0.00605-0.3453 0.02695-0.03445 0.026451-0.035389 0.071157-0.040081 1.9064-0.00303 1.1826 0.00174 1.8974 0.012851 1.9281 0.00971 0.026818 0.044584 0.064059 0.077498 0.082759 0.047712 0.027106 0.11419 0.035385 0.32791 0.040832l0.26806 0.00683v0.16826h-1.7992v-0.17176l0.23171-4.658e-4c0.12744-2.329e-4 0.26367-0.00824 0.30273-0.017752 0.039057-0.00951 0.092215-0.03956 0.11813-0.066771l0.047116-0.049473v-1.8869c0-1.8287-0.00106-1.8881-0.034621-1.9271-0.032629-0.037861-0.052523-0.040172-0.34577-0.040172-0.17113 0-0.37897 0.00893-0.46186 0.019844-0.082889 0.01091-0.19619 0.037715-0.25179 0.059557-0.055593 0.021842-0.13332 0.070295-0.17271 0.10767-0.039397 0.037376-0.0879 0.10144-0.10778 0.14237-0.019883 0.040926-0.051094 0.13598-0.069357 0.21123-0.018263 0.075248-0.041909 0.2141-0.052545 0.30857-0.010635 0.094465-0.024403 0.22114-0.03059 0.28149l-0.01125 0.10973h-0.12801l0.010491-0.09065c0.00577-0.049856 0.027198-0.3354 0.047614-0.63454 0.020415-0.29914 0.041496-0.58039 0.046846-0.625l0.00973-0.081107h1.7526c0.96395 0 1.7528 0.00644 1.7529 0.014314 1.397e-4 0.00787 0.020536 0.29342 0.045287 0.63454 0.02475 0.34113 0.045068 0.64814 0.045147 0.68225l1.398e-4 0.062023h2.6153l0.0096 0.062024c0.0053 0.034112 0.03835 0.34542 0.07354 0.69179s0.06398 0.63621 0.06396 0.64408c-1.1e-5 0.00787-0.02722 0.014314-0.06047 0.014314h-0.06046l-0.030136-0.22424c-0.016552-0.12333-0.042891-0.27576-0.058532-0.33874-0.015639-0.062977-0.047763-0.15895-0.071385-0.21327-0.023623-0.05432-0.077566-0.1382-0.11988-0.1864-0.044598-0.050807-0.12406-0.11126-0.18908-0.14384-0.061683-0.030913-0.18425-0.06941-0.27238-0.085548-0.12253-0.022438-0.30243-0.029341-0.76465-0.029341-0.56793 0-0.60701 0.0022-0.64732 0.036466l-0.042905 0.036467-0.01142 1.74 0.2874-1.397e-4c0.15807-9.31e-5 0.3596-0.00884 0.44784-0.019459 0.088243-0.010612 0.19047-0.035473 0.22717-0.055239 0.036699-0.019765 0.084736-0.056211 0.10675-0.080992 0.022012-0.024781 0.053897-0.07929 0.070855-0.12113 0.019295-0.047608 0.034112-0.14927 0.039597-0.27169l0.0087642-0.19561h0.12245v1.6603h-0.12722l-2.776e-4 -0.1479c-1.398e-4 -0.081346-0.011304-0.19708-0.024774-0.25718-0.01347-0.060104-0.045633-0.13839-0.071472-0.17396-0.025841-0.035576-0.08625-0.085033-0.13424-0.10991-0.083075-0.043052-0.10803-0.045538-0.51996-0.0518l-0.4327-0.00658 0.01124 1.9339 0.044526 0.037847c0.043003 0.036552 0.068176 0.037601 0.73603 0.030682 0.67963-0.00704 0.69407-8e-3 0.84102-0.055642 0.082237-0.026662 0.19363-0.079235 0.24755-0.11683 0.053912-0.037591 0.12763-0.10628 0.16381-0.15265 0.03618-0.046365 0.08976-0.13983 0.11906-0.20769 0.0293-0.067865 0.06607-0.17523 0.08171-0.23859 0.01563-0.063361 0.0408-0.18309 0.05592-0.26607 0.01512-0.082979 0.02749-0.15731 0.0275-0.16518 3e-6 -0.00787-0.08225-0.014313-0.18278-0.014313h-0.18279l0.00559-0.081107c0.0055-0.080046 0.0065-0.081167 0.07828-0.08565 0.03998-0.0025 0.11767-0.014268 0.17265-0.026153 0.05498-0.011886 0.146-0.045943 0.20227-0.075683 0.05627-0.029739 0.14403-0.095261 0.19502-0.1456 0.05926-0.058514 0.28621-0.38989 0.62917-0.91866 0.29506-0.45492 0.53647-0.83489 0.53647-0.84438s-0.26201-0.42306-0.58224-0.91906c-0.32023-0.49599-0.61361-0.93331-0.65195-0.97181-0.03834-0.038501-0.10141-0.079245-0.14016-0.090543s-0.13383-0.02059-0.2113-0.020648l-0.14084-9.32e-5v-0.17176h1.3085v0.085878c0 0.079171-0.0036 0.085878-0.04602 0.085878-0.02531 0-0.07375 0.012164-0.10763 0.027031-0.03389 0.014867-0.07509 0.048642-0.09158 0.075056-0.02463 0.039468-0.02604 0.055902-0.0079 0.092242 0.01211 0.02432 0.22321 0.35529 0.4691 0.7355 0.34766 0.53755 0.45186 0.68609 0.46857 0.66794 0.01181-0.012837 0.20612-0.30589 0.43178-0.65122 0.36253-0.55479 0.41029-0.63654 0.41029-0.70228 0-0.04092-0.01241-0.099591-0.02756-0.13038-0.01516-0.03079-0.05155-0.069008-0.08088-0.08493s-0.07008-0.028949-0.09056-0.028949c-0.03204 0-0.03725-0.01203-0.03725-0.085878v-0.085877h1.1268v0.17176h-0.07797c-0.04288 0-0.1248 0.01281-0.18204 0.028467-0.05724 0.015656-0.14619 0.050876-0.19766 0.078266-0.05147 0.027391-0.13516 0.094265-0.18597 0.14861-0.05081 0.054347-0.29684 0.41115-0.54673 0.7929s-0.45674 0.70037-0.45967 0.70804c-3e-3 0.00768 0.29448 0.47658 0.66092 1.042 0.36644 0.56543 0.69448 1.0591 0.72898 1.097 0.03449 0.037915 0.09378 0.078706 0.13174 0.090649 0.03795 0.011943 0.11714 0.021831 0.17595 0.021974 0.05881 1.397e-4 0.12533 0.00544 0.14782 0.011768 0.03404 0.00958 0.04089 0.024717 0.04089 0.090388v0.078881h-1.3101l0.0054-0.083861c0.0053-0.082673 0.0066-0.084182 0.09066-0.10651 0.04692-0.012457 0.09895-0.034536 0.11562-0.049064 0.01666-0.014528 0.03661-0.043887 0.0443-0.065244 0.0077-0.021357 0.0055-0.056006-5e-3 -0.076998-0.01034-0.020989-0.25175-0.39885-0.53633-0.83969s-0.52316-0.80826-0.53018-0.81648c-0.0071-0.00822-0.23172 0.32139-0.49932 0.73246-0.2676 0.41108-0.49875 0.77808-0.51366 0.81556-0.02138 0.053745-0.02293 0.08281-0.0073 0.13752 0.01091 0.038156 0.03568 0.084473 0.05509 0.10292 0.01942 0.018451 0.06651 0.044764 0.10466 0.058473 0.06356 0.022845 0.06982 0.031456 0.07494 0.10315l0.0056 0.078221h-0.32813c-0.18049 0-0.32823 0.00645-0.32831 0.014313-4.7e-5 0.00787-0.04096 0.31489-0.09086 0.68225-0.04989 0.36737-0.09072 0.67438-0.09073 0.68225-6e-6 0.00787-0.71151 0.014313-1.5811 0.014313z" fill="url(#linearGradient8384)" stroke-width=".049681"/>
 </g>
 <text x="3.3420186" y="11.261524" fill="url(#linearGradient8526)" font-family="'Bitstream Vera Sans'" font-size=".36599px" font-style="oblique" font-weight="bold" stroke-width=".030499" style="line-height:0%" xml:space="preserve"><tspan x="3.3420186" y="11.261524" fill="url(#linearGradient8526)" font-size="2.6058px" stroke-width=".030499" style="line-height:1">MAKER</tspan></text>
 <path class="cls-1" d="m13.612 12.186a1.3627 1.3627 0 0 1 0.33116 0.15003l0.17823-0.1791a0.22097 0.22097 0 0 1 0.31168 0l0.18259 0.18346a0.22097 0.22097 0 0 1 0 0.31168l-0.1919 0.1919a1.3549 1.3549 0 0 1 0.12619 0.31779h0.27679a0.22097 0.22097 0 0 1 0.22155 0.22097v0.25876a0.22097 0.22097 0 0 1-0.22039 0.22039h-0.27941a1.3616 1.3616 0 0 1-0.12706 0.3143l0.19422 0.19509a0.22097 0.22097 0 0 1 0 0.31168l-0.1823 0.18259a0.22126 0.22126 0 0 1-0.31198 0l-0.18433-0.18462a1.373 1.373 0 0 1-0.32534 0.14537v0.24975a0.22097 0.22097 0 0 1-0.22039 0.22039h-0.25847a0.22097 0.22097 0 0 1-0.22039-0.22039v-0.22562a1.3779 1.3779 0 0 1-0.35906-0.13607l-0.15119 0.15119a0.22155 0.22155 0 0 1-0.31168 0l-0.18346-0.18346a0.22126 0.22126 0 0 1 0-0.31168l0.13723-0.13724a1.3776 1.3776 0 0 1-0.16166-0.37128h-0.18666a0.22097 0.22097 0 0 1-0.22039-0.22039v-0.25876a0.22097 0.22097 0 0 1 0.22039-0.22097h0.18463a1.3724 1.3724 0 0 1 0.1602-0.37623l-0.13374-0.13345a0.22155 0.22155 0 0 1 0-0.31168l0.18346-0.18346a0.22097 0.22097 0 0 1 0.31168 0l0.14537 0.14537a1.3549 1.3549 0 0 1 0.36429-0.14072v-0.21574a0.22097 0.22097 0 0 1 0.22097-0.22039h0.25876a0.22097 0.22097 0 0 1 0.22039 0.22039zm-0.396 0.60592a0.71523 0.71523 0 1 1-0.71523 0.71497 0.71497 0.71497 0 0 1 0.71523-0.71497z" fill="url(#linearGradient1424-9)" fill-rule="evenodd" stroke-width=".029075"/>
</svg>
