<?xml version="1.0" encoding="UTF-8" standalone="no"?>
<svg
   width="64"
   height="64"
   version="1.1"
   viewBox="0 0 16.933 16.933"
   id="svg7"
   sodipodi:docname="text-pieces.svg"
   inkscape:version="1.3.2 (091e20ef0f, 2023-11-25, custom)"
   xmlns:inkscape="http://www.inkscape.org/namespaces/inkscape"
   xmlns:sodipodi="http://sodipodi.sourceforge.net/DTD/sodipodi-0.dtd"
   xmlns:xlink="http://www.w3.org/1999/xlink"
   xmlns="http://www.w3.org/2000/svg"
   xmlns:svg="http://www.w3.org/2000/svg">
  <sodipodi:namedview
     id="namedview7"
     pagecolor="#ffffff"
     bordercolor="#000000"
     borderopacity="0.25"
     inkscape:showpageshadow="2"
     inkscape:pageopacity="0.0"
     inkscape:pagecheckerboard="0"
     inkscape:deskcolor="#d1d1d1"
     inkscape:zoom="13.6875"
     inkscape:cx="26.484018"
     inkscape:cy="38.429224"
     inkscape:window-width="2752"
     inkscape:window-height="1080"
     inkscape:window-x="0"
     inkscape:window-y="0"
     inkscape:window-maximized="1"
     inkscape:current-layer="svg7" />
  <defs
     id="defs4">
    <linearGradient
       id="linearGradient87"
       inkscape:collect="always">
      <stop
         style="stop-color:#a6aebf;stop-opacity:1"
         offset="0"
         id="stop87" />
      <stop
         style="stop-color:#eceff4;stop-opacity:1"
         offset="0.4383688"
         id="stop89" />
      <stop
         style="stop-color:#a6aebf;stop-opacity:1"
         offset="1"
         id="stop88" />
    </linearGradient>
    <linearGradient
       id="linearGradient85"
       inkscape:collect="always">
      <stop
         style="stop-color:#d8dee9;stop-opacity:1"
         offset="0"
         id="stop85" />
      <stop
         style="stop-color:#eceff4;stop-opacity:1"
         offset="1"
         id="stop86" />
    </linearGradient>
    <linearGradient
       id="linearGradient83"
       inkscape:collect="always">
      <stop
         style="stop-color:#b54a55;stop-opacity:1"
         offset="0"
         id="stop83" />
      <stop
         style="stop-color:#bf616a;stop-opacity:1"
         offset="1"
         id="stop84" />
    </linearGradient>
    <linearGradient
       id="linearGradient78"
       inkscape:collect="always">
      <stop
         style="stop-color:#b54a55;stop-opacity:1"
         offset="0"
         id="stop78" />
      <stop
         style="stop-color:#eceff4;stop-opacity:0.5"
         offset="0.41980451"
         id="stop80" />
      <stop
         style="stop-color:#b54a55;stop-opacity:1"
         offset="1"
         id="stop79" />
    </linearGradient>
    <filter
       id="filter1178"
       x="-0.047999482"
       y="-0.047999482"
       width="1.095999"
       height="1.095999"
       color-interpolation-filters="sRGB">
      <feGaussianBlur
         stdDeviation="0.30691668"
         id="feGaussianBlur1" />
    </filter>
    <linearGradient
       id="linearGradient1340"
       x1="8.355"
       x2="8.3996"
       y1="16.007"
       y2=".79375"
       gradientTransform="translate(-0.0076499,-0.0030174)"
       gradientUnits="userSpaceOnUse">
      <stop
         stop-color="#d8dee9"
         offset="0"
         id="stop1"
         style="stop-color:#4c566a;stop-opacity:1" />
      <stop
         stop-color="#eceff4"
         offset="1"
         id="stop2"
         style="stop-color:#2e3440;stop-opacity:1" />
    </linearGradient>
    <linearGradient
       id="linearGradient738"
       x2="0"
       y1="506"
       y2="1588"
       gradientTransform="matrix(.0066304 0 0 .0073642 1.6642 1.4499)"
       gradientUnits="userSpaceOnUse">
      <stop
         stop-color="#88c0d0"
         offset="0"
         id="stop3" />
      <stop
         stop-color="#81a1c1"
         offset="1"
         id="stop4" />
    </linearGradient>
    <inkscape:path-effect
       effect="fill_between_many"
       method="originald"
       linkedpaths="#rect7,0,1|#rect8,0,1|"
       id="path-effect8" />
    <linearGradient
       inkscape:collect="always"
       xlink:href="#linearGradient78"
       id="linearGradient79"
       x1="3.5980992"
       y1="12.830255"
       x2="5.8429995"
       y2="12.823476"
       gradientUnits="userSpaceOnUse"
       gradientTransform="translate(3.1023e-4,0.30109617)" />
    <linearGradient
       inkscape:collect="always"
       xlink:href="#linearGradient83"
       id="linearGradient84"
       x1="11.263925"
       y1="2.3513269"
       x2="6.49475"
       y2="14.5054"
       gradientUnits="userSpaceOnUse" />
    <linearGradient
       inkscape:collect="always"
       xlink:href="#linearGradient85"
       id="linearGradient86"
       x1="-9.9108953"
       y1="5.8033695"
       x2="-1.9763377"
       y2="19.546427"
       gradientUnits="userSpaceOnUse" />
    <linearGradient
       inkscape:collect="always"
       xlink:href="#linearGradient87"
       id="linearGradient88"
       x1="2.8552885"
       y1="0.99137956"
       x2="11.167116"
       y2="5.4915104"
       gradientUnits="userSpaceOnUse"
       gradientTransform="translate(3.1023e-4,0.30109617)" />
    <linearGradient
       inkscape:collect="always"
       xlink:href="#linearGradient87"
       id="linearGradient91"
       x1="0.92109388"
       y1="5.3884544"
       x2="12.592502"
       y2="5.3884544"
       gradientUnits="userSpaceOnUse"
       gradientTransform="translate(3.1023e-4,0.30109617)" />
    <filter
       inkscape:collect="always"
       style="color-interpolation-filters:sRGB"
       id="filter91"
       x="-0.078177784"
       y="-0.16609011"
       width="1.1563556"
       height="1.3321802">
      <feGaussianBlur
         inkscape:collect="always"
         stdDeviation="0.38018533"
         id="feGaussianBlur91" />
    </filter>
    <linearGradient
       inkscape:collect="always"
       xlink:href="#linearGradient85"
       id="linearGradient92"
       gradientUnits="userSpaceOnUse"
       x1="-9.9108953"
       y1="5.8033695"
       x2="-1.9763377"
       y2="19.546427" />
    <linearGradient
       inkscape:collect="always"
       xlink:href="#linearGradient85"
       id="linearGradient93"
       gradientUnits="userSpaceOnUse"
       x1="-9.9108953"
       y1="5.8033695"
       x2="-1.9763377"
       y2="19.546427" />
    <linearGradient
       inkscape:collect="always"
       xlink:href="#linearGradient85"
       id="linearGradient94"
       gradientUnits="userSpaceOnUse"
       x1="-9.9108953"
       y1="5.8033695"
       x2="-1.9763377"
       y2="19.546427" />
    <linearGradient
       inkscape:collect="always"
       xlink:href="#linearGradient85"
       id="linearGradient95"
       gradientUnits="userSpaceOnUse"
       x1="-9.9108953"
       y1="5.8033695"
       x2="-1.9763377"
       y2="19.546427" />
    <linearGradient
       inkscape:collect="always"
       xlink:href="#linearGradient85"
       id="linearGradient96"
       gradientUnits="userSpaceOnUse"
       x1="-9.9108953"
       y1="5.8033695"
       x2="-1.9763377"
       y2="19.546427" />
    <linearGradient
       inkscape:collect="always"
       xlink:href="#linearGradient85"
       id="linearGradient97"
       gradientUnits="userSpaceOnUse"
       x1="-9.9108953"
       y1="5.8033695"
       x2="-1.9763377"
       y2="19.546427" />
  </defs>
  <rect
     transform="matrix(0.99138,0,0,1,0.065339,-0.0011119)"
     x="0.79374999"
     y="0.90544999"
     width="15.346"
     height="15.346"
     rx="3.0525999"
     ry="3.0525999"
     filter="url(#filter1178)"
     opacity="0.15"
     stroke-width="1.2489"
     style="mix-blend-mode:normal;stroke-linecap:round;stroke-linejoin:round"
     id="rect4" />
  <rect
     x="0.91838998"
     y="0.92302001"
     width="15.081"
     height="15.081"
     rx="3"
     ry="3"
     fill="url(#linearGradient1340)"
     stroke-width="1.2274"
     id="rect5"
     style="fill:url(#linearGradient1340);stroke-linecap:round;stroke-linejoin:round" />
  <rect
     x="0.0045000999"
     y="0.003"
     width="16.924"
     height="16.927"
     fill="none"
     opacity="0.15"
     stroke-width="1.052"
     id="rect6"
     style="stroke-linecap:round;stroke-linejoin:round" />
  <text
     x="-49.806946"
     y="19.370577"
     font-family="sans-serif"
     font-size="2.8222px"
     letter-spacing="0px"
     stroke-width=".26458"
     word-spacing="0px"
     style="line-height:1.25"
     xml:space="preserve"
     id="text6"><tspan
       x="-49.806946"
       y="19.370577"
       stroke-width=".26458"
       id="tspan6" /></text>
  <path
     inkscape:original-d="M 0,0"
     inkscape:path-effect="#path-effect8"
     d="M 0,0"
     id="path8" />
  <path
     id="rect8"
     style="fill:#b54a55;stroke-width:0.717715"
     d="M 3.15378,11.1644 11.7958,2.52239 c 0.92545,-0.92545 2.41553,-0.92545 3.34098,-4e-7 0.92545,0.92545 0.925451,2.41553 0,3.34098 L 6.49475,14.5054 c -0.92545,0.92545 -2.41553,0.92545 -3.34098,0 -0.92545,-0.92545 -0.92545,-2.41552 4e-7,-3.34098 z"
     transform="translate(3.1023e-4,0.30109617)" />
  <path
     id="path77"
     style="opacity:0.44;fill:#2e3440;stroke-width:0.717715"
     d="M 3.1540902,11.465496 11.79611,2.8234862 c 0.92545,-0.92545 2.41553,-0.92545 3.34098,-4e-7 0.92545,0.92545 0.925451,2.41553 0,3.34098 L 6.4950602,14.806496 c -0.92545,0.92545 -2.41553,0.92545 -3.34098,0 -0.92545,-0.92545 -0.92545,-2.41552 4e-7,-3.34098 z" />
  <path
     id="path76"
     style="fill:url(#linearGradient79);fill-opacity:0.3;stroke:none;stroke-width:1px;stroke-linejoin:round;stroke-opacity:0.6"
     d="m 3.1540608,10.762267 c -0.5526963,0.552726 -0.7751121,1.307141 -0.6676464,2.022059 0.072548,-0.482 0.2950087,-0.946099 0.6676464,-1.318757 z m -0.6676464,2.022059 c -0.1076257,0.715051 0.114835,1.469218 0.6676464,2.022059 0.9254491,0.925399 2.4153665,0.925399 3.3408156,0 v -0.702786 c -0.9254491,0.925499 -2.4153665,0.925499 -3.3408156,0 C 2.781308,13.730826 2.5588921,13.266486 2.4864144,12.784326 Z" />
  <path
     style="fill:#7b88a1;stroke-width:0.423325"
     d="M 13.237279,1.4264567 H 2.4599995 c 0,4.7248531 10.7867835,4.7248531 10.7867835,4.7248531 z"
     id="path9"
     sodipodi:nodetypes="cccc" />
  <path
     id="path32"
     style="fill:#7b88a1;stroke-width:0.423325"
     d="M 11.328971,3.1736212 0.91895923,5.9630602 c 0.34813997,1.299275 1.44196997,2.001352 2.82819497,2.342446 l -0.424255,-1.582301 0.645426,-0.173112 h 5.17e-4 l 0.163294,-0.043924 0.134356,-0.035657 0.927574,-0.249075 c 0.05555,-0.01491 0.111535,-0.022128 0.166394,-0.022737 0.296255,-0.00328 0.567113,0.193011 0.647493,0.492983 0.095261,0.355523 -0.114207,0.718111 -0.469729,0.813371 l -0.927574,0.249076 0.197917,0.738441 c 3.40776,0.404618 7.7523458,-0.757561 7.7523458,-0.757561 z" />
  <path
     id="path80"
     style="opacity:0.2;fill:#2e3440;fill-opacity:1;stroke:none;stroke-width:1px;stroke-linejoin:round;stroke-opacity:0.6"
     d="m 3.1540608,10.762267 c -0.5526963,0.552726 -0.7751121,1.307141 -0.6676464,2.022059 0.072548,-0.482 0.2950087,-0.946099 0.6676464,-1.318757 z m -0.6676464,2.022059 c -0.1076257,0.715051 0.114835,1.469218 0.6676464,2.022059 0.9254491,0.925399 2.4153665,0.925399 3.3408156,0 v -0.702786 c -0.9254491,0.925499 -2.4153665,0.925499 -3.3408156,0 C 2.781308,13.730826 2.5588921,13.266486 2.4864144,12.784326 Z" />
  <path
     id="path86"
     style="fill:url(#linearGradient88);fill-opacity:1;stroke-width:0.423325"
     d="M 2.4830873,1.4265867 C 2.6249921,5.8838409 12.520857,6.0460286 13.246786,6.0520531 l -0.0093,-4.6254664 z"
     sodipodi:nodetypes="cccc" />
  <path
     id="path91"
     style="opacity:0.289174;fill:#2e3440;stroke-width:0.423325;filter:url(#filter91)"
     d="M 11.299904,2.8074048 0.94073404,5.7801008 C 1.3117463,7.0730303 2.4177946,7.7556967 3.8098226,8.0722768 L 3.357713,6.4977084 3.9999838,6.3132344 4.0005007,6.3132252 4.1629942,6.2664267 4.2967001,6.2284044 5.2197346,5.9630006 C 5.2750126,5.9471126 5.3308618,5.9389076 5.3857015,5.9373306 5.6818524,5.9288206 5.956132,6.1203044 6.0417927,6.4188114 6.1433123,6.7725985 5.940275,7.1388262 5.5864893,7.2403448 L 4.6634548,7.5057497 4.8743712,8.2405833 C 8.2887404,8.5850062 12.612142,7.3463452 12.612142,7.3463452 Z" />
  <path
     id="path89"
     style="fill:url(#linearGradient91);stroke-width:0.423325"
     d="M 11.280574,2.9427141 0.92140413,5.9154101 C 1.2924164,7.2083396 2.3984647,7.891006 3.7904927,8.2075861 L 3.3383831,6.6330177 3.9806539,6.4485437 3.9811708,6.4485345 4.1436643,6.401736 4.2773702,6.3637137 5.2004047,6.0983099 c 0.055278,-0.015888 0.1111272,-0.024093 0.1659669,-0.02567 0.2961509,-0.00851 0.5704305,0.1829738 0.6560912,0.4814808 C 6.1239824,6.9079078 5.9209451,7.2741355 5.5671594,7.3756541 L 4.6441249,7.641059 4.8550413,8.3758926 C 8.2694105,8.7203155 12.592812,7.4816545 12.592812,7.4816545 Z" />
  <path
     id="rect7"
     style="fill:url(#linearGradient84);fill-opacity:1;stroke-width:0.717715"
     d="M 3.15378,10.4615 11.7958,1.81945 c 0.92545,-0.92545 2.41553,-0.92545 3.34098,-4e-7 0.925451,0.925451 0.925451,2.41553 0,3.34098 L 6.49475,13.8024 c -0.92545,0.92545 -2.41553,0.92545 -3.34098,0 -0.92545,-0.92545 -0.92545,-2.41552 4e-7,-3.34098 z"
     transform="translate(3.1023e-4,0.30109617)" />
  <g
     id="g26"
     transform="matrix(0.12419521,0.12419521,-0.12419521,0.12419521,7.6242638,11.08611)"
     style="fill:url(#linearGradient86);fill-opacity:1">
    <g
       id="g23"
       style="fill:url(#linearGradient94);fill-opacity:1">
      <rect
         style="fill:url(#linearGradient92);fill-opacity:1;stroke-width:0.470267"
         id="rect21"
         width="2.7486115"
         height="13.743057"
         x="-11.347436"
         y="-12.70635"
         ry="0"
         rx="0"
         transform="rotate(-90)" />
      <rect
         style="fill:url(#linearGradient93);fill-opacity:1;stroke-width:0.470267"
         id="rect23"
         width="2.7486115"
         height="13.743057"
         x="-16.750971"
         y="-12.70635"
         ry="0"
         rx="0"
         transform="rotate(-90)" />
    </g>
    <g
       id="g25"
       style="fill:url(#linearGradient97);fill-opacity:1"
       transform="rotate(-90,-5.8348217,12.674898)">
      <rect
         style="fill:url(#linearGradient95);fill-opacity:1;stroke-width:0.470267"
         id="rect24"
         width="2.7486115"
         height="13.743057"
         x="-11.347436"
         y="-12.70635"
         ry="0"
         rx="0"
         transform="rotate(-90)" />
      <rect
         style="fill:url(#linearGradient96);fill-opacity:1;stroke-width:0.470267"
         id="rect25"
         width="2.7486115"
         height="13.743057"
         x="-16.750971"
         y="-12.70635"
         ry="0"
         rx="0"
         transform="rotate(-90)" />
    </g>
  </g>
  <rect
     style="opacity:0.5;fill:#2e3440;stroke:none;stroke-width:0.423325"
     id="rect86"
     width="3.9504619"
     height="0.26124623"
     x="3.611093"
     y="1.6936886"
     ry="0.13062312" />
</svg>
