<?xml version="1.0" encoding="UTF-8"?>
<svg width="64" height="64" version="1.1" viewBox="0 0 16.933 16.933" xml:space="preserve" xmlns="http://www.w3.org/2000/svg" xmlns:xlink="http://www.w3.org/1999/xlink"><defs><filter id="filter1178" x="-.047999" y="-.047999" width="1.096" height="1.096" color-interpolation-filters="sRGB"><feGaussianBlur stdDeviation="0.30691668"/></filter><linearGradient id="linearGradient1340" x1="8.3017" x2="8.3017" y1="16.007" y2="-3.7481" gradientUnits="userSpaceOnUse"><stop stop-color="#bf616a" offset="0"/><stop stop-color="#d08770" offset="1"/></linearGradient><linearGradient id="linearGradient17" x1="5.9472" x2="5.9472" y1="3.6887" y2="8.1358" gradientUnits="userSpaceOnUse"><stop stop-color="#eceff4" offset="0"/><stop stop-color="#d8dee9" offset="1"/></linearGradient><linearGradient id="linearGradient19" x1="7.28" x2="7.28" y1="6.1978" y2="10.883" gradientUnits="userSpaceOnUse"><stop stop-color="#eceff4" offset="0"/><stop stop-color="#d8dee9" offset="1"/></linearGradient><linearGradient id="linearGradient21" x1="6.9953" x2="6.9953" y1="9.0743" y2="13.703" gradientUnits="userSpaceOnUse"><stop stop-color="#eceff4" offset="0"/><stop stop-color="#d8dee9" offset="1"/></linearGradient><filter id="filter27" x="-.035633" y="-.034793" width="1.0713" height="1.0696" color-interpolation-filters="sRGB"><feGaussianBlur stdDeviation="0.15131112"/></filter></defs><g stroke-linecap="round" stroke-linejoin="round"><rect transform="matrix(.99138 0 0 1 .072989 .0019055)" x=".79375" y=".90545" width="15.346" height="15.346" rx="3.0526" ry="3.0526" filter="url(#filter1178)" opacity=".15" stroke-width="1.2489" style="mix-blend-mode:normal"/><rect x=".92604" y=".92604" width="15.081" height="15.081" rx="3" ry="3" fill="url(#linearGradient1340)" stroke-width="1.2274"/><rect x=".01215" y=".0060174" width="16.924" height="16.927" fill="none" opacity=".15" stroke-width="1.052"/></g><g transform="translate(.16402 -.21869)" fill="#2e3440" filter="url(#filter27)" opacity=".20989" stroke-width=".49217"><path d="m10.118 8.7595c-0.082674-6.363e-4 -0.37981 0.17931-0.37981 0.17931l-5.1567 2.9775s-0.4919 0.33072-0.65214 0.33072c-0.16025 0-0.66558-0.33434-0.66558-0.33434l-2.3373-1.3668v1.4665l2.2825 1.3172s0.57172 0.38705 0.74826 0.38705 0.74826-0.38653 0.74826-0.38653l6.1018-3.5232s0.31011-0.12891 0.31057-0.35863c3.01e-4 -0.15271-0.3116-0.33124-0.3116-0.33124l-0.30798-0.17776s-0.29765-0.17919-0.38033-0.17983z"/><path d="m10.118 6.044c-0.082674-6.363e-4 -0.37981 0.17931-0.37981 0.17931l-5.1567 2.9775s-0.4919 0.33124-0.65214 0.33124c-0.16025 0-0.66558-0.33434-0.66558-0.33434l-2.3373-1.3668v1.4665l2.2825 1.3172s0.57172 0.38705 0.74826 0.38705 0.74826-0.38705 0.74826-0.38705l6.1018-3.5227s0.31011-0.12891 0.31057-0.35863c3.01e-4 -0.15271-0.3116-0.33124-0.3116-0.33124l-0.30798-0.17776s-0.29765-0.17971-0.38033-0.18035z"/><path d="m10.118 3.2793c-0.082674-6.364e-4 -0.37981 0.17931-0.37981 0.17931l-5.1567 2.977s-0.4919 0.33124-0.65214 0.33124c-0.16025 0-0.66558-0.33434-0.66558-0.33434l-2.3373-1.3668v1.4665l2.2825 1.3172s0.57172 0.38705 0.74826 0.38705 0.74826-0.38653 0.74826-0.38653l6.1018-3.5232s0.31011-0.12891 0.31057-0.35863c3.01e-4 -0.15271-0.3116-0.33124-0.3116-0.33124l-0.30798-0.17776s-0.29765-0.17919-0.38033-0.17983z"/></g><g stroke-width=".49217"><path d="m10.118 8.7595c-0.082674-6.363e-4 -0.37981 0.17931-0.37981 0.17931l-5.1567 2.9775s-0.4919 0.33072-0.65214 0.33072c-0.16025 0-0.66558-0.33434-0.66558-0.33434l-2.3373-1.3668v1.4665l2.2825 1.3172s0.57172 0.38705 0.74826 0.38705 0.74826-0.38653 0.74826-0.38653l6.1018-3.5232s0.31011-0.12891 0.31057-0.35863c3.01e-4 -0.15271-0.3116-0.33124-0.3116-0.33124l-0.30798-0.17776s-0.29765-0.17919-0.38033-0.17983z" fill="url(#linearGradient21)"/><path d="m10.118 6.044c-0.082674-6.363e-4 -0.37981 0.17931-0.37981 0.17931l-5.1567 2.9775s-0.4919 0.33124-0.65214 0.33124c-0.16025 0-0.66558-0.33434-0.66558-0.33434l-2.3373-1.3668v1.4665l2.2825 1.3172s0.57172 0.38705 0.74826 0.38705 0.74826-0.38705 0.74826-0.38705l6.1018-3.5227s0.31011-0.12891 0.31057-0.35863c3.01e-4 -0.15271-0.3116-0.33124-0.3116-0.33124l-0.30798-0.17776s-0.29765-0.17971-0.38033-0.18035z" fill="url(#linearGradient19)"/><path d="m10.118 3.2793c-0.082674-6.364e-4 -0.37981 0.17931-0.37981 0.17931l-5.1567 2.977s-0.4919 0.33124-0.65214 0.33124c-0.16025 0-0.66558-0.33434-0.66558-0.33434l-2.3373-1.3668v1.4665l2.2825 1.3172s0.57172 0.38705 0.74826 0.38705 0.74826-0.38653 0.74826-0.38653l6.1018-3.5232s0.31011-0.12891 0.31057-0.35863c3.01e-4 -0.15271-0.3116-0.33124-0.3116-0.33124l-0.30798-0.17776s-0.29765-0.17919-0.38033-0.17983z" fill="url(#linearGradient17)"/></g></svg>
