<svg width="64" height="64" version="1.1" viewBox="0 0 16.933 16.933" xmlns="http://www.w3.org/2000/svg" xmlns:xlink="http://www.w3.org/1999/xlink">
 <defs>
  <linearGradient id="linearGradient862-3-3" x1="7.9373" x2="7.9373" y1="15.081" y2="1.852" gradientTransform="matrix(1.0178 0 0 1.0178 -.018853 -.018705)" gradientUnits="userSpaceOnUse">
   <stop stop-color="#7b88a1" offset="0"/>
   <stop stop-color="#d8dee9" offset="1"/>
  </linearGradient>
  <linearGradient id="linearGradient1070" x1="24.255" x2="24.483" y1="-11.18" y2="1.0418" gradientTransform="matrix(.55371 0 0 .4759 -.72357 15.266)" gradientUnits="userSpaceOnUse">
   <stop stop-color="#4c566a" offset="0"/>
   <stop stop-color="#2e3440" offset="1"/>
  </linearGradient>
  <linearGradient id="linearGradient1424" x1="30.251" x2="30.458" y1="-6.3156" y2="2.5274" gradientTransform="matrix(.53408 0 0 .53408 -3.2429 13.872)" gradientUnits="userSpaceOnUse">
   <stop stop-color="#eceff4" offset="0"/>
   <stop stop-color="#d8dee9" offset="1"/>
  </linearGradient>
  <linearGradient id="linearGradient514" x1="24.255" x2="24.483" y1="-11.18" y2="1.0418" gradientTransform="matrix(.55371 0 0 .4759 -.87361 15.094)" gradientUnits="userSpaceOnUse" xlink:href="#linearGradient1070"/>
  <filter id="filter1217" x="-.17279" y="-.17287" width="1.3456" height="1.3457" color-interpolation-filters="sRGB">
   <feGaussianBlur stdDeviation="0.45365396"/>
  </filter>
 </defs>
 <g shape-rendering="auto">
  <path d="m4.3693 0.52916c-2.1142 0-3.8402 1.7835-3.8402 3.9682v8.4675c0 2.1846 1.726 3.9682 3.8402 3.9682h8.1944c2.1142 0 3.8402-1.7835 3.8402-3.9682v-8.4675c0-2.1846-1.726-3.9682-3.8402-3.9682zm0.25704 0.52089h7.6808c1.8443 0 3.3291 1.5342 3.3291 3.44v7.9368c0 1.9058-1.4847 3.44-3.3291 3.44h-7.6808c-1.8443 0-3.3291-1.5342-3.3291-3.44v-7.9368c0-1.9058 1.4847-3.44 3.3291-3.44z" color="#000000" color-rendering="auto" dominant-baseline="auto" image-rendering="auto" opacity=".01" solid-color="#000000" stop-color="#000000" style="font-feature-settings:normal;font-variant-alternates:normal;font-variant-caps:normal;font-variant-east-asian:normal;font-variant-ligatures:normal;font-variant-numeric:normal;font-variant-position:normal;font-variation-settings:normal;inline-size:0;isolation:auto;mix-blend-mode:normal;shape-margin:0;shape-padding:0;text-decoration-color:#000000;text-decoration-line:none;text-decoration-style:solid;text-indent:0;text-orientation:mixed;text-transform:none;white-space:normal"/>
  <path d="m4.3587 0.79373c-1.9668 0-3.5639 1.6528-3.5639 3.6876v8.4996c0 2.0348 1.5971 3.6876 3.5639 3.6876h8.2162c1.9668 0 3.5644-1.6528 3.5644-3.6876v-8.4996c0-2.0348-1.5976-3.6876-3.5644-3.6876zm0.27222 0.25631h7.6718c1.8422 0 3.3251 1.5342 3.3251 3.44v7.9368c0 1.9058-1.483 3.44-3.3251 3.44h-7.6718c-1.8422 0-3.3251-1.5342-3.3251-3.44v-7.9368c0-1.9058 1.483-3.44 3.3251-3.44z" color="#000000" color-rendering="auto" dominant-baseline="auto" image-rendering="auto" opacity=".01" solid-color="#000000" stop-color="#000000" style="font-feature-settings:normal;font-variant-alternates:normal;font-variant-caps:normal;font-variant-east-asian:normal;font-variant-ligatures:normal;font-variant-numeric:normal;font-variant-position:normal;font-variation-settings:normal;inline-size:0;isolation:auto;mix-blend-mode:normal;shape-margin:0;shape-padding:0;text-decoration-color:#000000;text-decoration-line:none;text-decoration-style:solid;text-indent:0;text-orientation:mixed;text-transform:none;white-space:normal"/>
  <path d="m4.3097 1.0583c-1.8657 0-3.3751 1.5383-3.3751 3.439v8.4675c0 1.9007 1.57 3.439 3.4357 3.439h8.1996c1.8657 0 3.4274-1.5383 3.4274-3.439v-8.4675c0-1.9007-1.51-3.439-3.3756-3.439h-0.09688c1.794 0.086515 3.2138 1.5819 3.2138 3.4318v7.9368c0 1.9058-1.5059 3.44-3.3766 3.44h-7.7905c-1.8707 0-3.3766-1.5342-3.3766-3.44v-7.9368c0-1.8498 1.4199-3.3451 3.2138-3.4318z" color="#000000" color-rendering="auto" dominant-baseline="auto" image-rendering="auto" opacity=".03" solid-color="#000000" stop-color="#000000" style="font-feature-settings:normal;font-variant-alternates:normal;font-variant-caps:normal;font-variant-east-asian:normal;font-variant-ligatures:normal;font-variant-numeric:normal;font-variant-position:normal;font-variation-settings:normal;inline-size:0;isolation:auto;mix-blend-mode:normal;shape-margin:0;shape-padding:0;text-decoration-color:#000000;text-decoration-line:none;text-decoration-style:solid;text-indent:0;text-orientation:mixed;text-transform:none;white-space:normal"/>
  <path transform="scale(.26458)" d="m4 46.969v2.0312c0 6.6479 5.8957 12 12.544 12h30.961c6.6479 0 12.495-5.3521 12.495-12v-1.9922c-0.02117 7.1849-5.81 12.963-13 12.963h-29.998c-7.2032 0-13.002-5.7987-13.002-13.002z" color="#000000" color-rendering="auto" dominant-baseline="auto" image-rendering="auto" opacity=".03" solid-color="#000000" stop-color="#000000" style="font-feature-settings:normal;font-variant-alternates:normal;font-variant-caps:normal;font-variant-east-asian:normal;font-variant-ligatures:normal;font-variant-numeric:normal;font-variant-position:normal;font-variation-settings:normal;inline-size:0;isolation:auto;mix-blend-mode:normal;shape-margin:0;shape-padding:0;text-decoration-color:#000000;text-decoration-line:none;text-decoration-style:solid;text-indent:0;text-orientation:mixed;text-transform:none;white-space:normal"/>
  <path d="m1.0583 11.906v0.59234c0 1.9386 1.5729 3.4993 3.3318 3.4993h8.1603c1.7589 0 3.3243-1.5608 3.3243-3.4993v-0.58095c-0.0056 2.0952-1.5372 3.7801-3.4395 3.7801h-7.9368c-1.9058 0-3.44-1.691-3.44-3.7915z" color="#000000" color-rendering="auto" dominant-baseline="auto" image-rendering="auto" opacity=".05" solid-color="#000000" stop-color="#000000" style="font-feature-settings:normal;font-variant-alternates:normal;font-variant-caps:normal;font-variant-east-asian:normal;font-variant-ligatures:normal;font-variant-numeric:normal;font-variant-position:normal;font-variation-settings:normal;inline-size:0;isolation:auto;mix-blend-mode:normal;shape-margin:0;shape-padding:0;text-decoration-color:#000000;text-decoration-line:none;text-decoration-style:solid;text-indent:0;text-orientation:mixed;text-transform:none;white-space:normal"/>
 </g>
 <rect x="1.0583" y="1.05" width="15.081" height="15.081" rx="3.5013" ry="3.5013" fill="url(#linearGradient862-3-3)" stroke-width="1.0178"/>
 <rect x="1.0583" y="10.319" width="15.081" height=".26458" rx="0" ry="5.7983e-7" fill="#2e3440" opacity=".25" stroke-linecap="round" stroke-linejoin="round" stroke-width=".4004"/>
 <rect x="8.3342" y="10.583" width=".26458" height="5.5461" rx="0" ry="0" fill="#2e3440" opacity=".25" stroke-linecap="round" stroke-linejoin="round" stroke-width=".39728"/>
 <ellipse cx="12.726" cy="12.69" rx="3.1506" ry="3.1491" fill="url(#linearGradient514)" filter="url(#filter1217)" opacity=".52667" stroke-width="1.214"/>
 <ellipse cx="12.876" cy="12.861" rx="3.1506" ry="3.1491" fill="url(#linearGradient1070)" stroke-width="1.214"/>
 <path class="cls-1" d="m13.398 10.886a2.0316 2.0316 0 0 1 0.4937 0.22367l0.26571-0.26701a0.32943 0.32943 0 0 1 0.46467 0l0.27221 0.27351a0.32943 0.32943 0 0 1 0 0.46467l-0.28608 0.28608a2.0199 2.0199 0 0 1 0.18812 0.47377h0.41265a0.32943 0.32943 0 0 1 0.33029 0.32943v0.38577a0.32943 0.32943 0 0 1-0.32856 0.32856h-0.41655a2.0299 2.0299 0 0 1-0.18942 0.46857l0.28955 0.29085a0.32943 0.32943 0 0 1 0 0.46467l-0.27178 0.27221a0.32986 0.32986 0 0 1-0.4651 0l-0.27481-0.27524a2.0468 2.0468 0 0 1-0.48504 0.21673v0.37234a0.32943 0.32943 0 0 1-0.32856 0.32856h-0.38534a0.32943 0.32943 0 0 1-0.32856-0.32856v-0.33636a2.0542 2.0542 0 0 1-0.5353-0.20286l-0.2254 0.2254a0.33029 0.33029 0 0 1-0.46466 0l-0.27351-0.27351a0.32986 0.32986 0 0 1 0-0.46467l0.20459-0.2046a2.0537 2.0537 0 0 1-0.241-0.55352h-0.27828a0.32943 0.32943 0 0 1-0.32856-0.32856v-0.38577a0.32943 0.32943 0 0 1 0.32856-0.32943h0.27525a2.0459 2.0459 0 0 1 0.23883-0.56089l-0.19939-0.19896a0.33029 0.33029 0 0 1 0-0.46467l0.27351-0.27351a0.32943 0.32943 0 0 1 0.46466 0l0.21673 0.21673a2.0199 2.0199 0 0 1 0.5431-0.20979v-0.32163a0.32943 0.32943 0 0 1 0.32943-0.32856h0.38578a0.32943 0.32943 0 0 1 0.32856 0.32856zm-0.59037 0.90334a1.0663 1.0663 0 1 1-1.0663 1.0659 1.0659 1.0659 0 0 1 1.0663-1.0659z" fill="url(#linearGradient1424)" fill-rule="evenodd" stroke-width=".043346"/>
</svg>
