<?xml version="1.0" encoding="UTF-8" standalone="no"?>
<svg
   width="64"
   height="64"
   version="1.1"
   viewBox="0 0 16.933 16.933"
   id="svg49"
   xmlns:xlink="http://www.w3.org/1999/xlink"
   xmlns="http://www.w3.org/2000/svg"
   xmlns:svg="http://www.w3.org/2000/svg">
  <defs
     id="defs21">
    <filter
       id="filter1178"
       x="-0.047999482"
       y="-0.047999482"
       width="1.095999"
       height="1.095999"
       color-interpolation-filters="sRGB">
      <feGaussianBlur
         stdDeviation="0.30691668"
         id="feGaussianBlur2" />
    </filter>
    <linearGradient
       id="linearGradient1340"
       x1="8.3305"
       x2="8.3413"
       y1="15.353"
       y2="1.4499"
       gradientUnits="userSpaceOnUse">
      <stop
         stop-color="#7b88a1"
         offset="0"
         id="stop5" />
      <stop
         stop-color="#a6aebf"
         offset="1"
         id="stop7" />
    </linearGradient>
    <filter
       id="filter7694"
       x="-0.063407536"
       y="-1.3731574"
       width="1.1268151"
       height="3.7463148"
       color-interpolation-filters="sRGB">
      <feGaussianBlur
         stdDeviation="0.15823351"
         id="feGaussianBlur10" />
    </filter>
    <linearGradient
       id="linearGradient7736"
       x1="24.39"
       x2="24.333"
       y1="8.6643"
       y2="6.4105"
       gradientTransform="matrix(.93006 0 0 .93006 1.5255 .46402)"
       gradientUnits="userSpaceOnUse">
      <stop
         stop-color="#2e3440"
         stop-opacity=".4"
         offset="0"
         id="stop13" />
      <stop
         stop-color="#bf616a"
         stop-opacity="0"
         offset="1"
         id="stop15" />
    </linearGradient>
    <filter
       id="filter8660"
       x="-0.14934228"
       y="-0.52587997"
       width="1.2986846"
       height="2.0517599"
       color-interpolation-filters="sRGB">
      <feGaussianBlur
         stdDeviation="0.58973058"
         id="feGaussianBlur18" />
    </filter>
    <radialGradient
       id="radialGradient3068"
       cx="16.993999"
       cy="4.3080001"
       r="6.579"
       gradientTransform="matrix(0.40692656,0,0,0.99139319,1.601124,0.0539689)"
       gradientUnits="userSpaceOnUse">
      <stop
         offset="0"
         id="stop482" />
      <stop
         stop-opacity="0"
         offset="1"
         id="stop484" />
    </radialGradient>
    <linearGradient
       id="linearGradient965"
       x1="103.3"
       x2="103.3"
       y1="33.303001"
       y2="61.043999"
       gradientTransform="matrix(-0.04320269,0,0,0.04320269,17.341855,2.3095187)"
       gradientUnits="userSpaceOnUse"
       xlink:href="#linearGradient961" />
    <linearGradient
       id="linearGradient961">
      <stop
         stop-color="#eee"
         offset="0"
         id="stop388"
         style="stop-color:#d8dee9;stop-opacity:1;" />
      <stop
         stop-color="#cacaca"
         offset="0.26026747"
         id="stop390"
         style="stop-color:#d8dee9;stop-opacity:1;" />
      <stop
         stop-color="#b3b3b3"
         offset="0.57683003"
         id="stop392"
         style="stop-color:#e5e9f0;stop-opacity:1;" />
      <stop
         stop-color="#454646"
         offset="0.9603169"
         id="stop396"
         style="stop-color:#4c566a;stop-opacity:1;" />
    </linearGradient>
    <linearGradient
       id="linearGradient955"
       x1="100.34"
       x2="100.34"
       y1="56.952999"
       y2="35.604"
       gradientTransform="matrix(-0.04320269,0,0,0.04320269,17.341855,2.3095187)"
       gradientUnits="userSpaceOnUse"
       xlink:href="#linearGradient953" />
    <linearGradient
       id="linearGradient953">
      <stop
         stop-color="#484847"
         offset="0"
         id="stop400"
         style="stop-color:#4c566a;stop-opacity:1;" />
      <stop
         stop-color="#828280"
         offset="1"
         id="stop402"
         style="stop-color:#d8dee9;stop-opacity:1;" />
    </linearGradient>
    <linearGradient
       id="linearGradient833"
       x1="15.715"
       x2="19.408001"
       y1="78.625"
       y2="42.828999"
       gradientTransform="matrix(0.04320269,0,0,0.04320269,4.959668,1.8742123)"
       gradientUnits="userSpaceOnUse"
       xlink:href="#linearGradient841" />
    <linearGradient
       id="linearGradient841">
      <stop
         stop-color="#46120e"
         offset="0"
         id="stop415"
         style="stop-color:#2e3440;stop-opacity:0.5;" />
      <stop
         stop-color="#8b150d"
         offset="0.31099999"
         id="stop417"
         style="stop-color:#4c566a;stop-opacity:0.25;" />
      <stop
         stop-color="#c72318"
         stop-opacity="0"
         offset="1"
         id="stop419"
         style="stop-color:#bf616a;stop-opacity:0;" />
    </linearGradient>
    <linearGradient
       xlink:href="#linearGradient841"
       id="linearGradient6436"
       gradientUnits="userSpaceOnUse"
       gradientTransform="matrix(-0.04320269,0,0,0.04320269,11.988631,1.8742122)"
       x1="15.715"
       y1="78.625"
       x2="19.408001"
       y2="42.828999" />
    <linearGradient
       id="linearGradient4978"
       x1="535.64001"
       x2="535.64001"
       y1="161.77"
       y2="200.46001"
       gradientTransform="matrix(0.04320269,0,0,0.04320269,-9.1754668,0.72668729)"
       gradientUnits="userSpaceOnUse">
      <stop
         stop-color="#0d0d0d"
         offset="0"
         id="stop436"
         style="stop-color:#171b21;stop-opacity:1;" />
      <stop
         stop-color="#2c2c2c"
         stop-opacity="0"
         offset="1"
         id="stop438"
         style="stop-color:#2e3440;stop-opacity:0;" />
    </linearGradient>
    <linearGradient
       id="linearGradient1067"
       x1="353.60999"
       x2="353.60999"
       y1="34.476002"
       y2="194.3"
       gradientTransform="matrix(0.04320269,0,0,0.04320269,-6.8309107,1.4919284)"
       gradientUnits="userSpaceOnUse">
      <stop
         stop-color="#c3c3c3"
         stop-opacity=".996"
         offset="0"
         id="stop441"
         style="stop-color:#e5e9f0;stop-opacity:0.99607843;" />
      <stop
         stop-color="#c4c4c4"
         offset="0.042"
         id="stop443"
         style="stop-color:#e5e9f0;stop-opacity:1;" />
      <stop
         stop-color="#999"
         offset="0.085"
         id="stop445"
         style="stop-color:#d8dee9;stop-opacity:1;" />
      <stop
         stop-color="#9f9f9f"
         offset="0.139"
         id="stop447"
         style="stop-color:#d8dee9;stop-opacity:1;" />
      <stop
         stop-color="#dedede"
         offset="0.20100001"
         id="stop449"
         style="stop-color:#eceff4;stop-opacity:1;" />
      <stop
         stop-color="#e9e9e9"
         offset="0.23"
         id="stop451"
         style="stop-color:#eceff4;stop-opacity:1;" />
      <stop
         stop-color="#bebdbd"
         offset="0.27500001"
         id="stop453"
         style="stop-color:#d8dee9;stop-opacity:1;" />
      <stop
         stop-color="#888686"
         offset="0.30899999"
         id="stop455"
         style="stop-color:#d8dee9;stop-opacity:1;" />
      <stop
         stop-color="#545353"
         offset="0.456"
         id="stop457"
         style="stop-color:#4c566a;stop-opacity:1;" />
      <stop
         stop-color="#4e4e4e"
         offset="0.53500003"
         id="stop459"
         style="stop-color:#4c566a;stop-opacity:1;" />
      <stop
         stop-color="#a1a1a1"
         offset="0.85699999"
         id="stop461"
         style="stop-color:#434c5e;stop-opacity:1;" />
      <stop
         stop-color="#737373"
         offset="1"
         id="stop463"
         style="stop-color:#434c5e;stop-opacity:1;" />
    </linearGradient>
    <linearGradient
       xlink:href="#linearGradient24948"
       id="linearGradient23443"
       gradientUnits="userSpaceOnUse"
       gradientTransform="matrix(0.04320269,0,0,0.04320269,-6.8309107,1.4919284)"
       x1="353.60999"
       y1="34.476002"
       x2="353.60999"
       y2="194.3" />
    <linearGradient
       id="linearGradient24948"
       x1="353.60999"
       x2="353.60999"
       y1="34.476002"
       y2="194.3"
       gradientTransform="matrix(0.05408,0,0,0.05408,-10.717,-1.577)"
       gradientUnits="userSpaceOnUse">
      <stop
         stop-color="#c3c3c3"
         stop-opacity=".996"
         offset="0"
         id="stop24924"
         style="stop-color:#e5e9f0;stop-opacity:0;" />
      <stop
         stop-color="#c4c4c4"
         offset="0.042"
         id="stop24926"
         style="stop-color:#e5e9f0;stop-opacity:0;" />
      <stop
         stop-color="#999"
         offset="0.085"
         id="stop24928"
         style="stop-color:#d8dee9;stop-opacity:0;" />
      <stop
         stop-color="#9f9f9f"
         offset="0.139"
         id="stop24930"
         style="stop-color:#d8dee9;stop-opacity:0;" />
      <stop
         stop-color="#dedede"
         offset="0.20100001"
         id="stop24932"
         style="stop-color:#eceff4;stop-opacity:0;" />
      <stop
         stop-color="#e9e9e9"
         offset="0.23"
         id="stop24934"
         style="stop-color:#eceff4;stop-opacity:0;" />
      <stop
         stop-color="#bebdbd"
         offset="0.27500001"
         id="stop24936"
         style="stop-color:#d8dee9;stop-opacity:0;" />
      <stop
         stop-color="#888686"
         offset="0.30899999"
         id="stop24938"
         style="stop-color:#d8dee9;stop-opacity:0;" />
      <stop
         stop-color="#545353"
         offset="0.456"
         id="stop24940"
         style="stop-color:#d8dee9;stop-opacity:0.25;" />
      <stop
         stop-color="#4e4e4e"
         offset="0.53500003"
         id="stop24942"
         style="stop-color:#e5e9f0;stop-opacity:0.2;" />
      <stop
         stop-color="#a1a1a1"
         offset="0.85699999"
         id="stop24944"
         style="stop-color:#d8dee9;stop-opacity:0.1;" />
      <stop
         stop-color="#737373"
         offset="1"
         id="stop24946"
         style="stop-color:#d8dee9;stop-opacity:0;" />
    </linearGradient>
    <linearGradient
       xlink:href="#linearGradient961"
       id="linearGradient39567"
       gradientUnits="userSpaceOnUse"
       gradientTransform="matrix(0.04320269,0,0,0.04320269,-0.39351326,2.3095187)"
       x1="103.3"
       y1="33.303001"
       x2="103.3"
       y2="61.043999" />
    <linearGradient
       xlink:href="#linearGradient953"
       id="linearGradient39569"
       gradientUnits="userSpaceOnUse"
       gradientTransform="matrix(0.04320269,0,0,0.04320269,-0.39351326,2.3095187)"
       x1="100.34"
       y1="56.952999"
       x2="100.34"
       y2="35.604" />
  </defs>
  <rect
     transform="matrix(0.99138,0,0,1,0.072989,0.0019055)"
     x="0.79374999"
     y="0.90544999"
     width="15.346"
     height="15.346"
     rx="3.0525999"
     ry="3.0525999"
     fill="#000000"
     filter="url(#filter1178)"
     opacity="0.15"
     stroke-width="1.2489"
     style="mix-blend-mode:normal;stroke-linecap:round;stroke-linejoin:round"
     id="rect23" />
  <rect
     x="0.92603999"
     y="0.92603999"
     width="15.081"
     height="15.081"
     rx="3"
     ry="3"
     fill="url(#linearGradient1340)"
     stroke-width="1.2274"
     id="rect25"
     style="fill:url(#linearGradient1340);stroke-linecap:round;stroke-linejoin:round" />
  <rect
     x="0.01215"
     y="0.0060174"
     width="16.924"
     height="16.927"
     fill="none"
     opacity="0.15"
     stroke-width="1.052"
     id="rect27"
     style="stroke-linecap:round;stroke-linejoin:round" />
  <style
     type="text/css"
     id="style31">.st0{fill-rule:evenodd;clip-rule:evenodd;}</style>
  <g
     id="g630"
     transform="translate(-11.113782,-0.19280073)">
    <g
       id="g600"
       transform="translate(5.7144844,0.07459049)">
      <g
         id="g592">
        <g
           id="g585">
          <path
             d="m 13.8661,5.7208005 c -0.06391,0 -0.127819,0.024765 -0.180544,0.075093 l -1.834996,1.757506 c -0.202113,0.1941246 -0.142198,0.3754672 0,0.3794616 h 0.722974 V 11.943171 H 11.85056 c -0.142198,0.004 -0.202113,0.184538 0,0.378663 l 1.834996,1.757506 a 0.25963158,0.25963158 0 0 0 0.180544,0.07509 c 0.06391,0 0.127819,-0.02477 0.179745,-0.07509 l 1.834996,-1.757506 c 0.202114,-0.194125 0.142998,-0.375468 0,-0.379462 H 15.157867 V 7.9320627 h 0.722974 c 0.142998,-0.00399 0.202114,-0.1845381 0,-0.3786627 L 14.045845,5.795894 A 0.25963158,0.25963158 0 0 0 13.8661,5.7208005 Z"
             fill="#fff"
             stroke="#fff"
             stroke-linecap="round"
             stroke-linejoin="round"
             stroke-opacity=".355"
             stroke-width="0.258833"
             id="path496"
             style="fill:#d8dee9;fill-opacity:1;stroke:#4c566a;stroke-opacity:0.356863" />
          <path
             d="m 13.8661,5.7208007 c -0.06391,0 -0.127818,0.024765 -0.180544,0.075093 l -1.834996,1.757506 c -0.202113,0.1941246 -0.142198,0.3754672 0,0.3794616 h 0.722974 V 11.943171 H 11.85056 c -0.142198,0.004 -0.202113,0.184538 0,0.378663 l 1.834996,1.757506 a 0.25963158,0.25963158 0 0 0 0.180544,0.07509 c 0.06391,0 0.127819,-0.02477 0.179745,-0.07509 l 1.834996,-1.757506 c 0.202114,-0.194125 0.142998,-0.375468 0,-0.379462 H 15.157867 V 7.9320629 h 0.722974 c 0.142998,-0.00399 0.202114,-0.1845381 0,-0.3786627 L 14.045845,5.7958942 A 0.25963158,0.25963158 0 0 0 13.8661,5.7208007 Z"
             fill="#484848"
             id="path498"
             style="fill:#2e3440;fill-opacity:1;stroke-width:0.798866" />
          <path
             d="m 13.866237,5.7208005 c -0.06391,0 -0.127819,0.024765 -0.180544,0.075093 l -1.834996,1.757506 c -0.202113,0.1941246 -0.142997,0.3754672 0,0.3794616 h 0.722974 v 4.0103099 h -0.722974 c -0.142997,0.004 -0.202113,0.184538 0,0.378663 l 1.834996,1.757506 a 0.25963158,0.25963158 0 0 0 0.180544,0.07509 c 0.06391,0 0.127819,-0.02477 0.179745,-0.07509 l 1.834996,-1.757506 c 0.202113,-0.194125 0.142997,-0.375468 0,-0.379462 H 15.158004 V 7.9320627 h 0.722974 c 0.142997,-0.00399 0.202113,-0.1845381 0,-0.3786627 L 14.045982,5.795894 a 0.25963158,0.25963158 0 0 0 -0.179745,-0.075093 z m 0,0.3515012 1.604124,1.5362201 h -0.311558 a 0.32433975,0.32433975 0 0 0 -0.32434,0.3243398 v 4.0103094 a 0.32433975,0.32433975 0 0 0 0.323541,0.323541 h 0.311558 l -1.603325,1.537019 -1.604923,-1.537019 h 0.311558 a 0.32433975,0.32433975 0 0 0 0.32434,-0.32434 V 7.9320627 A 0.32433975,0.32433975 0 0 0 12.573671,7.6085218 h -0.311558 z"
             color="#000000"
             fill-opacity=".128"
             style="font-variant-ligatures:normal;font-variant-position:normal;font-variant-caps:normal;font-variant-numeric:normal;font-variant-alternates:normal;font-feature-settings:normal;text-indent:0;text-decoration-line:none;text-decoration-style:solid;text-decoration-color:#000000;text-transform:none;text-orientation:mixed;white-space:normal;shape-padding:0;isolation:auto;mix-blend-mode:normal;fill:#2e3440;fill-opacity:0.25;stroke-width:0.798866"
             id="path502" />
          <path
             d="m 12.573671,7.4747116 v 2.7137494 h -0.722974 c -0.142997,0.0048 -0.202113,0.185337 0,0.379462 l 1.834996,1.757506 a 0.25963158,0.25963158 0 0 0 0.180544,0.07509 c 0.06391,0 0.127819,-0.02476 0.179745,-0.07509 l 1.834996,-1.757506 c 0.202113,-0.194125 0.142997,-0.375468 0,-0.379462 H 15.158004 V 7.4747116 Z"
             fill="url(#linearGradient4978)"
             id="path538"
             style="fill:url(#linearGradient4978);stroke-width:0.798866" />
        </g>
      </g>
    </g>
    <g
       id="g611"
       transform="translate(11.106173)">
      <path
         d="M 5.8566853,3.5969413 A 2.6770013,6.5227441 0 0 0 5.8391102,4.3255075 2.6770013,6.5227441 0 0 0 8.5161115,10.848252 2.6770013,6.5227441 0 0 0 11.193113,4.3255075 2.6770013,6.5227441 0 0 0 11.17394,3.5977402 Z"
         fill="url(#radialGradient3068)"
         opacity="0.735"
         id="path500"
         style="fill:url(#radialGradient3068);stroke-width:0.798866" />
      <path
         d="m 3.6327614,3.9838389 0.690379,-0.3042333 c 0.042339,-0.018664 0.082863,0.039142 0.082863,0.087745 V 4.867291 c 0,0.048603 -0.040006,0.1051554 -0.082863,0.087702 L 3.6327614,4.6741747 C 3.5899044,4.656764 3.5498987,4.6350763 3.5498987,4.5864733 V 4.0715404 c 0,-0.048603 0.040481,-0.069081 0.082863,-0.087745 z"
         fill="url(#linearGradient965)"
         stroke="url(#linearGradient955)"
         stroke-linecap="round"
         stroke-linejoin="round"
         id="path506"
         style="fill:url(#linearGradient39567);stroke:url(#linearGradient39569);stroke-width:0.0432027" />
      <path
         d="M 6.9806903,5.5046343 A 10.064119,10.064119 0 0 1 4.4219213,5.0420906 C 4.31008,5.0053428 4.2094228,4.9542153 4.1886523,4.8144137 A 6.2167782,6.2167782 0 0 1 4.1830602,3.7359441 C 4.1966409,3.628896 4.3124766,3.5873549 4.4099383,3.5561992 5.2743117,3.2909755 6.1690421,3.1032419 7.1572398,3.084868 Z"
         fill="#c72418"
         id="path510"
         style="fill:#bf616a;fill-opacity:1;stroke-width:0.798866" />
      <path
         d="M 6.980474,5.5042753 C 6.1279552,5.4677691 5.2677896,5.3061478 4.421708,5.0423521 4.3101154,5.0052842 4.2089347,4.9537866 4.1885863,4.8138963 4.155061,4.4822293 4.1541969,4.0676561 4.1830563,3.7359891 4.1968812,3.6285872 4.3119731,3.5869398 4.4100001,3.5560067 5.274054,3.2905261 6.1693002,3.1030696 7.1572162,3.0852269 Z"
         fill="url(#linearGradient833)"
         id="path514"
         style="fill:url(#linearGradient833);stroke-width:0.0432027" />
      <path
         d="M 13.315581,3.9838389 12.625202,3.6796056 c -0.04234,-0.018664 -0.08286,0.039142 -0.08286,0.087745 V 4.867291 c 0,0.048603 0.04001,0.1051554 0.08286,0.087702 l 0.690379,-0.2808175 c 0.04286,-0.017411 0.08286,-0.039098 0.08286,-0.087701 V 4.0715404 c 0,-0.048603 -0.04048,-0.069081 -0.08286,-0.087745 z"
         fill="url(#linearGradient965)"
         stroke="url(#linearGradient955)"
         stroke-linecap="round"
         stroke-linejoin="round"
         id="path522"
         style="fill:url(#linearGradient965);stroke:url(#linearGradient955);stroke-width:0.043118;stroke-dasharray:none" />
      <path
         d="M 9.9676517,5.5046343 A 10.064119,10.064119 0 0 0 12.526421,5.0420906 C 12.638262,5.0053426 12.739718,4.9542156 12.75969,4.8144137 12.79324,4.4820853 12.79404,4.0674736 12.76529,3.7359441 12.751701,3.628896 12.636664,3.5873549 12.538404,3.5561992 11.67403,3.2909755 10.7793,3.1032419 9.7911023,3.084868 Z"
         fill="#c72418"
         id="path526"
         style="fill:#bf616a;fill-opacity:1;stroke-width:0.798866" />
      <path
         d="M 9.9678251,5.5042753 C 10.820344,5.4677688 11.68051,5.3061479 12.526592,5.0423522 c 0.111592,-0.037068 0.212773,-0.088566 0.233121,-0.2284558 0.03353,-0.3316671 0.03439,-0.7462403 0.0055,-1.0779073 C 12.751421,3.6285872 12.636326,3.5869398 12.538299,3.5560066 11.674245,3.2905261 10.779,3.1030696 9.7910831,3.0852269 Z"
         fill="url(#linearGradient833)"
         id="path530"
         style="fill:url(#linearGradient6436);stroke-width:0.0432027" />
      <path
         d="M 7.2243446,2.9602448 C 6.5612855,3.1847263 7.048594,6.576713 7.179608,8.8678618 v 0.8412063 c 0,0.09187 0.074295,0.1653653 0.1661643,0.1653653 H 9.5985755 A 0.16536534,0.16536534 0 0 0 9.7647397,9.7090681 V 9.0020713 C 9.7487624,7.7838001 10.50449,3.1711456 9.6768644,2.9602448 Z"
         fill="url(#linearGradient1067)"
         id="path540"
         style="fill:url(#linearGradient1067);stroke-width:0.798866" />
      <path
         d="M 7.2243444,2.9602448 C 6.5612853,3.1847263 7.0485938,6.576713 7.1796079,8.8678618 v 0.8412063 c 0,0.09187 0.074295,0.1653653 0.1661642,0.1653653 H 9.5985756 A 0.16536534,0.16536534 0 0 0 9.7647397,9.7090681 V 9.0020713 C 9.7487624,7.7838001 10.50449,3.1711456 9.6768645,2.9602448 Z"
         fill="url(#linearGradient1067)"
         id="path540-0"
         style="fill:url(#linearGradient23443);stroke-width:0.798866" />
    </g>
  </g>
</svg>
