<svg id="svg32" width="64" height="64" version="1.1" viewBox="0 0 16.933 16.933" xmlns="http://www.w3.org/2000/svg">
 <defs id="defs18">
  <filter id="filter1178" x="-.047999482" y="-.047999482" width="1.095999" height="1.095999" color-interpolation-filters="sRGB">
   <feGaussianBlur id="feGaussianBlur2" stdDeviation="0.30691668"/>
  </filter>
  <linearGradient id="linearGradient1340" x1="8.3017" x2="8.355" y1="16.007" y2=".79375" gradientTransform="translate(-.0076499 -.0030174)" gradientUnits="userSpaceOnUse">
   <stop id="stop5" stop-color="#bf616a" offset="0"/>
   <stop id="stop7" stop-color="#d08770" offset="1"/>
  </linearGradient>
  <filter id="filter2477" x="-.011298458" y="-.01279443" width="1.0225969" height="1.0255889" style="color-interpolation-filters:sRGB">
   <feGaussianBlur id="feGaussianBlur2479" stdDeviation="0.056386254"/>
  </filter>
  <radialGradient id="radialGradient3307" cx="5.7156811" cy="9.473814" r="5.988739" gradientTransform="matrix(.13630341 .37569957 -.30285842 .10987671 7.9790162 5.4360656)" gradientUnits="userSpaceOnUse">
   <stop id="stop3299" style="stop-color:#d8dee9" offset="0"/>
   <stop id="stop3301" style="stop-color:#eceff4" offset="1"/>
  </radialGradient>
 </defs>
 <g id="g30" stroke-linecap="round" stroke-linejoin="round">
  <rect transform="matrix(.99138 0 0 1 .072989 .0019055)" x=".79375" y=".90545" width="15.346" height="15.346" rx="3.0526" ry="3.0526" fill="#000000" filter="url(#filter1178)" opacity=".15" stroke-width="1.2489" style="mix-blend-mode:normal"/>
  <rect id="rect22" x=".91839" y=".92302" width="15.081" height="15.081" rx="3" ry="3" fill="url(#linearGradient1340)" stroke-width="1.2274"/>
  <rect id="rect24" x=".0045001" y=".003" width="16.924" height="16.927" fill="none" opacity=".15" stroke-width="1.052"/>
  <path id="path847-3" d="m11.669236 3.2137106c-0.283726 0.06502-0.552437 0.2346699-0.82868 0.3282276-1.0395767 0.3520712-2.0549037 0.7533473-3.0709857 1.1733775-0.284237 0.1174969-0.565597 0.2424393-0.853052 0.3518745-0.158788 0.060445-0.3341521 0.1432636-0.3790469 0.3271815-0.1254957 0.5139515 0.3053689 0.8018683 0.6227519 1.098974 0.277998 0.2601807 0.525895 0.5856564 0.700551 0.923977 0.356551 0.6907523 0.426477 1.3802618 0.37059 2.1448152-0.01448 0.198005-0.07587 0.420163-0.136927 0.6093231-0.03215 0.09963-0.104243 0.234223-0.06608 0.340245 0.0448 0.1244 0.223061 0.196494 0.326159 0.265031 0.284017 0.188817 0.568326 0.376903 0.853051 0.564697 0.228228 0.150526 0.454775 0.303491 0.682441 0.454895 0.0916 0.0609 0.1984927 0.148162 0.3167507 0.121866 0.140193-0.03118 0.24407-0.225401 0.323405-0.333105 0.228251-0.309829 0.457942-0.618341 0.688802-0.926171 0.790194-1.053567 1.57015-2.1147403 2.360443-3.1684769 0.207121-0.2761463 0.416167-0.55078 0.620851-0.8286795 0.09966-0.1353428 0.236663-0.288185 0.246387-0.4630853 0.014799-0.2654696-0.141556-0.5526307-0.214845-0.8043056-0.091423-0.3140452-0.167783-0.7165048-0.333227-0.9989335-0.103049-0.1758917-0.303783-0.3017582-0.450118-0.4399331-0.509419-0.4810578-1.02561-0.9144958-1.779221-0.7417945m-2.0229517 0.3039476v-0.0487458c-0.445658-0.2237118-0.791462-0.0391433-1.218645 0.1316057-0.469739 0.1877498-0.944426 0.3608146-1.413629 0.5504966-0.9489832 0.3836319-1.9097628 0.7745193-2.8760026 1.1131322-0.2873805 0.1007093-0.5681639 0.2218913-0.8530512 0.3298876-0.161161 0.061101-0.3384156 0.1013915-0.45357 0.2400975-0.4228506 0.5093691-0.386486 1.4818968-0.3222245 2.0950211 0.1135482 1.0834004 0.8252641 2.2427469 1.5801 2.9978679 0.2072624 0.20734 0.4234181 0.410731 0.6824412 0.552973 0.074484 0.04092 0.1987857 0.126739 0.2857724 0.07899 0.087353-0.04794 0.1749731-0.267516 0.1269097-0.358745-0.0582769-0.110626-0.2440216-0.18182-0.3395627-0.260179-0.1921082-0.157522-0.3573978-0.347728-0.5014119-0.549242-0.7992266-1.1183761-1.2100102-2.7888707-0.6682052-4.0946492 0.1047353-0.2524301 0.248543-0.5865579 0.4670334-0.7607026 0.3546112-0.2826039 0.9856505-0.3775121 1.4093977-0.5323532 1.3632007-0.4981449 2.7405867-0.9631124 4.0946477-1.4854548m2.3397987-0.1858436c0.515461-0.025522 0.924854 0.4411322 1.291763 0.7444628 0.08706 0.071965 0.413973 0.2646971 0.339125 0.4067817-0.04533 0.086019-0.207243 0.1326738-0.290379 0.1710049-0.259498 0.1196394-0.522773 0.2322156-0.779933 0.356629-0.8453 0.4090267-1.70135 0.8025759-2.5591547 1.1845965-0.287259 0.1279336-0.706716 0.4401266-1.022613 0.4513864-0.156718 0.00558-0.21921-0.3146054-0.279851-0.423625-0.206682-0.3715411-0.514804-0.6764214-0.866723-0.9099141-0.066101-0.0438504-0.393331-0.1804327-0.300714-0.2889654 0.068317-0.0800402 0.230738-0.1123834 0.325085-0.1519747 0.283385-0.1189129 0.567816-0.2359371 0.853052-0.3503798 0.619682-0.2486379 1.235122-0.5060256 1.8523417-0.7606929 0.484655-0.1999803 0.91018-0.4031771 1.438001-0.4293094m-7.0925153 2.5012695v0.024373c0.325037-0.025664 0.6532431-0.071046 0.9749163-0.1238138 0.1035848-0.017017 0.2702467-0.00559 0.3475088-0.088303 0.073022-0.078212 0.045019-0.2329323 0.018081-0.3240866l-1.3405088 0.5118304m8.38428 0.2302996c0.28248-0.068878 0.318601 0.2817263 0.203902 0.4521417-0.628382 0.9335554-1.401978 1.7896046-2.089124 2.6810196-0.169294 0.219624-0.336516 0.4405149-0.508468 0.658067-0.07524 0.0952-0.154695 0.209048-0.28733 0.215628-0.273757 0.01357-0.411758-0.326744-0.272978-0.532474 0.307929-0.4564803 0.712249-0.8763039 1.072871-1.2917642 0.37081-0.4271595 0.70835-0.8859793 1.076844-1.3161368 0.194715-0.2273021 0.503056-0.793021 0.804283-0.8664812m-7.6043471 0.4137542c-0.8848583 0.120499-1.3828435 1.0790852-1.2742543 1.9151002 0.1640612 1.2631257 1.076517 2.6979108 2.5416447 2.4537178 0.840793-0.140119 1.145527-1.0091351 1.145527-1.7469039 0-1.2588837-0.978353-2.8172874-2.4129174-2.6219141m0.804306 0.3308661v0.048746c-0.3908686 0.115527-0.7001118 0.011621-1.0129624 0.366543-0.9056704 1.0274644 0.019523 2.9355949 1.3054368 3.0874139 0.281971 0.03329 0.484193-0.118867 0.731187-0.212361v-0.02438c-1.1627335-1.23e-4 -1.8699864-1.2596818-1.6463162-2.3154183 0.0870113-0.4107321 0.5551659-1.0185926 1.0126202-0.7311874-0.062126 0.1137731-0.1821624 0.1139926-0.2924741 0.1656392-0.1312237 0.0614446-0.240146 0.1586672-0.3283272 0.273073-0.4390532 0.5696193-0.1951051 1.4736102 0.2837491 1.9428864 0.2317382 0.227107 0.5318172 0.449923 0.8732572 0.445195 0.07278-9.9e-4 0.31904-0.09569 0.323964 0.02847 0.0064 0.1631531-0.20985 0.3971811-0.324915 0.4918941-0.484289 0.398571-1.0358485 0.333179-1.5589147 0.05866-0.8736223-0.4584731-1.3159692-1.5832099-1.2144049-2.5283909 0.1039996-0.9679694 0.9896134-1.4274721 1.8481002-1.09678m-0.9469372 4.3808359c-0.1619335 0.07327-0.017549 0.585607 0.1006837 0.659993 0.087426 0.05501 0.2357598 0.02874 0.3344213 0.02874 0.2784357 0 0.5784174-0.0455 0.8530516-0.0221 0.254379 0.02169 0.513244 0.305344 0.706814 0.45575 0.106655 0.08286 0.385165 0.38453 0.533035 0.318578 0.07819-0.03485 0.114016-0.145994 0.151429-0.216041 0.04806-0.08996 0.159227-0.233712 0.140973-0.340856-0.03045-0.178773-0.440614-0.361229-0.581709-0.455333-0.210387-0.140315-0.436031-0.360451-0.68244-0.431279-0.279704-0.08037-0.660019-0.01555-0.9505438-0.01555-0.1706594 0-0.4485836-0.05299-0.6057153 0.01808m0.6788339 1.162146c-0.1766059 0.02321-0.5243588-0.05937-0.6722289 0.03909-0.090277 0.0601-0.077774 0.198395-0.090374 0.291792-0.029736 0.220794-0.090985 0.438786-0.1298105 0.658069-0.013596 0.07682-0.078261 0.233784 5.531e-4 0.291793 0.090692 0.06676 0.2953509 0.02108 0.4044198 0.03539 0.3322754 0.04363 0.6649899 0.03058 0.9992882 0.03878 0.1279825 0.0032 0.2630085 0.05801 0.3899665 0.0438 0.218942-0.02447 0.444513-0.441149 0.56901-0.60474 0.04714-0.06195 0.137463-0.155279 0.09325-0.23922-0.05954-0.113015-0.263301-0.183795-0.369787-0.24458-0.411874-0.23507-0.7083207-0.373946-1.194268-0.310162z" style="fill:#2e3440;filter:url(#filter2477)"/>
  <path id="path847" d="m11.669235 3.2137106c-0.283726 0.06502-0.552437 0.2346699-0.82868 0.3282276-1.0395766 0.3520712-2.0549036 0.7533473-3.0709858 1.1733775-0.2842365 0.1174969-0.5655969 0.2424393-0.8530515 0.3518745-0.1587886 0.0604452-0.3341524 0.1432636-0.3790472 0.3271815-0.1254957 0.5139515 0.305369 0.8018683 0.622752 1.098974 0.2779974 0.2601807 0.5258946 0.5856564 0.7005504 0.923977 0.356551 0.6907523 0.426477 1.3802618 0.3705904 2.1448151-0.014477 0.1980054-0.075873 0.4201634-0.136927 0.6093232-0.03215 0.09963-0.1042429 0.234223-0.066078 0.340245 0.044797 0.1244 0.2230609 0.196494 0.3261587 0.265031 0.2840178 0.188817 0.5683267 0.376903 0.853051 0.564697 0.2282286 0.150526 0.4547756 0.303491 0.6824414 0.454895 0.0916 0.0609 0.1984926 0.148162 0.3167506 0.121866 0.140193-0.03118 0.24407-0.225401 0.323405-0.333105 0.228251-0.309829 0.457942-0.618341 0.688802-0.926171 0.790194-1.0535674 1.57015-2.1147404 2.360443-3.1684769 0.207121-0.2761463 0.416167-0.55078 0.620851-0.8286795 0.09966-0.1353428 0.236663-0.288185 0.246387-0.4630853 0.014797-0.2654696-0.141558-0.5526307-0.214847-0.8043056-0.091423-0.3140452-0.167783-0.7165048-0.333227-0.9989335-0.103049-0.1758917-0.303783-0.3017582-0.450118-0.4399331-0.509419-0.4810578-1.02561-0.9144958-1.779221-0.7417945m-2.0229514 0.3039476v-0.0487458c-0.4456585-0.2237118-0.7914622-0.0391433-1.2186452 0.1316057-0.4697389 0.1877498-0.9444257 0.3608146-1.4136286 0.5504966-0.9489836 0.3836319-1.9097632 0.7745193-2.876003 1.1131322-0.2873805 0.1007093-0.5681639 0.2218913-0.8530512 0.3298876-0.161161 0.061101-0.3384156 0.1013915-0.45357 0.2400975-0.4228506 0.5093691-0.386486 1.4818968-0.3222245 2.0950211 0.1135482 1.0834004 0.8252641 2.2427469 1.5801 2.9978679 0.2072624 0.20734 0.4234181 0.410731 0.6824412 0.552973 0.074484 0.04092 0.1987857 0.126739 0.2857724 0.07899 0.087353-0.04794 0.1749731-0.267516 0.1269097-0.358745-0.0582769-0.110626-0.2440216-0.18182-0.3395627-0.260179-0.1921082-0.157522-0.3573978-0.347728-0.5014119-0.549242-0.7992266-1.1183764-1.2100102-2.7888707-0.6682052-4.0946492 0.1047353-0.2524301 0.248543-0.5865579 0.4670334-0.7607026 0.3546112-0.2826039 0.9856505-0.3775121 1.4093977-0.5323532 1.3632009-0.4981449 2.7405869-0.9631124 4.0946479-1.4854548m2.3397984-0.1858436c0.515461-0.025522 0.924854 0.4411322 1.291763 0.7444628 0.08706 0.071965 0.413973 0.2646971 0.339125 0.4067817-0.04533 0.086019-0.207243 0.1326738-0.290379 0.1710049-0.259498 0.1196394-0.522773 0.2322156-0.779933 0.356629-0.8453 0.4090267-1.70135 0.8025759-2.5591546 1.1845965-0.287259 0.1279336-0.706716 0.4401266-1.022613 0.4513864-0.1567182 0.0055837-0.2192098-0.3146054-0.2798505-0.423625-0.2066823-0.3715411-0.5148046-0.6764214-0.8667239-0.9099141-0.0661002-0.0438504-0.3933303-0.1804327-0.3007137-0.2889654 0.0683171-0.0800402 0.2307381-0.1123834 0.3250855-0.1519747 0.2833842-0.1189129 0.5678156-0.2359371 0.8530518-0.3503798 0.6196815-0.2486379 1.2351218-0.5060256 1.8523414-0.7606929 0.484655-0.1999803 0.91018-0.4031771 1.438001-0.4293094m-7.0925152 2.5012695v0.024373c0.325037-0.025664 0.6532431-0.071046 0.9749163-0.1238138 0.1035848-0.017017 0.2702467-0.00559 0.3475088-0.088303 0.073022-0.078212 0.045019-0.2329323 0.018081-0.3240866l-1.3405088 0.5118304m8.3842799 0.2302996c0.28248-0.068878 0.318601 0.2817263 0.203902 0.4521417-0.628382 0.9335554-1.401978 1.7896046-2.089124 2.6810197-0.169294 0.2196234-0.336516 0.440515-0.508468 0.6580671-0.07524 0.0952-0.154695 0.2090478-0.28733 0.2156278-0.273757 0.01357-0.411758-0.3267441-0.272978-0.5324738 0.307929-0.4564806 0.712249-0.8763042 1.072871-1.2917645 0.37081-0.4271595 0.70835-0.8859793 1.076844-1.3161368 0.194715-0.2273021 0.503056-0.793021 0.804283-0.8664812m-7.604347 0.4137543c-0.8848583 0.120499-1.3828435 1.0790852-1.2742543 1.9151002 0.1640612 1.2631255 1.076517 2.6979108 2.5416447 2.4537178 0.8407929-0.140119 1.1455268-1.0091352 1.1455268-1.7469039 0-1.2588837-0.9783527-2.8172874-2.4129172-2.6219141m0.804306 0.3308661v0.048746c-0.3908686 0.115527-0.7001118 0.011621-1.0129624 0.366543-0.9056704 1.0274644 0.019523 2.9355949 1.3054369 3.0874139 0.2819706 0.03329 0.4841924-0.118867 0.7311871-0.212361v-0.02438c-1.1627337-1.23e-4 -1.8699866-1.2596818-1.6463164-2.3154183 0.0870113-0.4107321 0.5551659-1.0185926 1.0126205-0.7311874-0.0621267 0.1137731-0.1821627 0.1139926-0.2924744 0.1656392-0.1312237 0.0614446-0.240146 0.1586672-0.3283272 0.273073-0.4390532 0.5696193-0.1951051 1.4736102 0.2837491 1.9428867 0.2317379 0.2271063 0.5318172 0.449923 0.8732571 0.445195 0.072779-9.9e-4 0.3190404-0.09569 0.323964 0.02847 0.00644 0.1631528-0.2098502 0.3971808-0.324915 0.4918938-0.4842888 0.398571-1.0358484 0.333179-1.5589146 0.05866-0.8736223-0.4584728-1.3159692-1.5832099-1.2144049-2.5283909 0.1039996-0.9679694 0.9896134-1.4274721 1.8481002-1.09678m-0.9469372 4.3808359c-0.1619335 0.07327-0.017549 0.585607 0.1006837 0.659993 0.087426 0.05501 0.2357598 0.02874 0.3344213 0.02874 0.2784357 0 0.5784174-0.0455 0.8530515-0.0221 0.2543791 0.02169 0.513244 0.305344 0.7068137 0.45575 0.1066554 0.08286 0.3851649 0.38453 0.5330353 0.318578 0.078189-0.03485 0.1140163-0.145994 0.151429-0.216041 0.048062-0.08996 0.1592276-0.233712 0.140973-0.340856-0.0304451-0.178773-0.4406136-0.361229-0.5817085-0.455333-0.210387-0.140315-0.4360311-0.360451-0.6824408-0.431279-0.2797038-0.08037-0.6600186-0.01555-0.9505434-0.01555-0.1706594 0-0.4485836-0.05299-0.6057153 0.01808m0.6788339 1.162146c-0.1766059 0.02321-0.5243588-0.05937-0.6722289 0.03909-0.090277 0.0601-0.077774 0.198395-0.090374 0.291792-0.029736 0.220794-0.090985 0.438786-0.1298105 0.658069-0.013596 0.07682-0.078261 0.233784 5.531e-4 0.291793 0.090692 0.06676 0.2953509 0.02108 0.4044198 0.03539 0.3322754 0.04363 0.6649899 0.03058 0.9992882 0.03878 0.1279825 0.0032 0.2630086 0.05801 0.3899666 0.0438 0.2189422-0.02447 0.4445131-0.441149 0.5690097-0.60474 0.047138-0.06195 0.1374628-0.155279 0.093251-0.23922-0.0595403-0.113015-0.2633008-0.183795-0.3697868-0.24458-0.4118737-0.23507-0.7083207-0.373946-1.194268-0.310162z" style="fill:url(#radialGradient3307)"/>
 </g>
</svg>
