<svg width="64" height="64" version="1.1" xmlns="http://www.w3.org/2000/svg">
 <defs>
  <linearGradient id="linearGradient849" x1="28.621" x2="41.413" y1="19.562" y2="31.844" gradientUnits="userSpaceOnUse">
   <stop stop-color="#eceff4" offset="0"/>
   <stop stop-color="#2e3440" offset="1"/>
  </linearGradient>
  <linearGradient id="linearGradient1593" x1="36.098" x2="32.396" y1="46.81" y2="28.042" gradientUnits="userSpaceOnUse">
   <stop stop-color="#2e3440" offset="0"/>
   <stop stop-color="#4c566a" offset="1"/>
  </linearGradient>
  <linearGradient id="linearGradient2495" x1="24.421" x2="15.521" y1="28.473" y2="46.666" gradientUnits="userSpaceOnUse">
   <stop stop-color="#eceff4" stop-opacity="0" offset="0"/>
   <stop stop-color="#d8dee9" offset="1"/>
  </linearGradient>
  <filter id="filter1178" x="-.047999" y="-.047999" width="1.096" height="1.096" color-interpolation-filters="sRGB">
   <feGaussianBlur stdDeviation="0.30691668"/>
  </filter>
  <linearGradient id="linearGradient1340" x1="8.355" x2="8.3996" y1="16.007" y2=".79375" gradientUnits="userSpaceOnUse">
   <stop stop-color="#d8dee9" offset="0"/>
   <stop stop-color="#eceff4" offset="1"/>
  </linearGradient>
  <filter id="filter2609" x="-.14662" y="-.12951" width="1.2932" height="1.259" color-interpolation-filters="sRGB">
   <feGaussianBlur stdDeviation="2.0507469"/>
  </filter>
 </defs>
 <g transform="matrix(3.7796 0 0 3.7796 -.028914 -.3264)" stroke-linecap="round" stroke-linejoin="round">
  <rect transform="matrix(.99138 0 0 1 .072989 .0019055)" x=".79375" y=".90545" width="15.346" height="15.346" rx="3.0526" ry="3.0526" fill="#000000" filter="url(#filter1178)" opacity=".15" stroke-width="1.2489" style="mix-blend-mode:normal"/>
  <rect x=".92604" y=".92604" width="15.081" height="15.081" rx="3" ry="3" fill="url(#linearGradient1340)" stroke-width="1.2274"/>
  <rect x=".01215" y=".0060174" width="16.924" height="16.927" fill="none" opacity=".15" stroke-width="1.052"/>
 </g>
 <g transform="translate(-5e-4 .92798)" fill="#2e3440" filter="url(#filter2609)" opacity=".53656">
  <path d="m30.655 13-15.438 8.868 16.861 9.737 16.706-9.737-15.28-8.868v6.81l6.018 3.482c0.238 0.079 0.238 0.476 0 0.635l-7.125 4.115c-0.238 0.08-0.477 0.08-0.635 0l-7.125-4.115c-0.238-0.08-0.238-0.477 0-0.635l6.018-3.483zm18.13 8.868-16.706 9.739-16.861-9.739v17.655l5.857-3.405v-6.887c0-0.237 0.316-0.397 0.475-0.318l7.127 4.117c0.238 0.08 0.316 0.316 0.316 0.633v8.235c0.159 0.237-0.159 0.395-0.396 0.316l-6.018-3.482-5.857 3.402 15.357 8.868 15.28-8.868-5.858-3.402-6.018 3.562c-0.237 0.159-0.474-0.08-0.474-0.318v-8.233c0-0.237 0.158-0.474 0.316-0.633l7.125-4.117c0.238-0.158 0.477 0.079 0.477 0.316v6.887l5.857 3.405z"/>
  <path class="st1" d="m28.596 42.213-6.017-3.483-5.858 3.404 15.358 8.866v-19.395l-16.863-9.738v17.654-0.079 0.08l5.859-3.405v-6.887c0-0.238 0.316-0.396 0.475-0.317l7.125 4.117c0.237 0.079 0.316 0.316 0.316 0.633v8.233c0.159 0.238-0.158 0.396-0.395 0.317z" opacity=".1"/>
  <path class="st0" d="m33.504 13v6.808l6.017 3.484c0.237 0.079 0.237 0.475 0 0.633l-7.125 4.117c-0.238 0.079-0.475 0.079-0.634 0l-7.125-4.117c-0.237-0.08-0.237-0.475 0-0.633l6.017-3.484v-6.808l-15.438 8.867 16.863 9.737 16.704-9.737z" opacity=".2"/>
 </g>
 <g transform="translate(-5e-4 -.001)">
  <path d="m30.655 13-15.438 8.868 16.861 9.737 16.706-9.737-15.28-8.868v6.81l6.018 3.482c0.238 0.079 0.238 0.476 0 0.635l-7.125 4.115c-0.238 0.08-0.477 0.08-0.635 0l-7.125-4.115c-0.238-0.08-0.238-0.477 0-0.635l6.018-3.483zm18.13 8.868-16.706 9.739-16.861-9.739v17.655l5.857-3.405v-6.887c0-0.237 0.316-0.397 0.475-0.318l7.127 4.117c0.238 0.08 0.316 0.316 0.316 0.633v8.235c0.159 0.237-0.159 0.395-0.396 0.316l-6.018-3.482-5.857 3.402 15.357 8.868 15.28-8.868-5.858-3.402-6.018 3.562c-0.237 0.159-0.474-0.08-0.474-0.318v-8.233c0-0.237 0.158-0.474 0.316-0.633l7.125-4.117c0.238-0.158 0.477 0.079 0.477 0.316v6.887l5.857 3.405z" fill="url(#linearGradient1593)"/>
  <path class="st1" d="m28.596 42.213-6.017-3.483-5.858 3.404 15.358 8.866v-19.395l-16.863-9.738v17.654-0.079 0.08l5.859-3.405v-6.887c0-0.238 0.316-0.396 0.475-0.317l7.125 4.117c0.237 0.079 0.316 0.316 0.316 0.633v8.233c0.159 0.238-0.158 0.396-0.395 0.317z" fill="url(#linearGradient2495)" opacity=".1"/>
  <path class="st0" d="m33.504 13v6.808l6.017 3.484c0.237 0.079 0.237 0.475 0 0.633l-7.125 4.117c-0.238 0.079-0.475 0.079-0.634 0l-7.125-4.117c-0.237-0.08-0.237-0.475 0-0.633l6.017-3.484v-6.808l-15.438 8.867 16.863 9.737 16.704-9.737z" fill="url(#linearGradient849)" opacity=".2"/>
 </g>
</svg>
