<svg width="64" height="64" version="1.1" xmlns="http://www.w3.org/2000/svg" xmlns:xlink="http://www.w3.org/1999/xlink">
 <defs>
  <path id="SVGID_1_" d="m152 110.2c-3 0-4.2-1.8-4.2-1.8-0.2-0.8-0.4-12.7-0.5-24.5-0.1-12.3 0-24.5 0.6-24.6 3.5-6.5 14.5-19.6 14.5-19.6-20.6 4.1-31.8 17.6-31.8 17.6-3.3-2.6-10.1-2.2-10.1-2.2 3.2 1.7 6.3 6.8 6.3 11v41.4s-6.9 6.1-12.2 6.1c-3.2 0-5.1-1.7-6.2-3.1-0.7-1-1-1.8-1-1.8v-51.1c-0.7 0.5-1.6 0.9-2.5 0.9-1.1 0-2.3-0.6-3.1-2.2-0.6-1.3-1-3.1-1-5.9 0-9.4 10.7-15.7 10.7-15.7-13.5 3.6-26.1 10.6-42.8 29.8s-13.5 35-13.5 35 4.5-11 15.6-22.5c5.3-5.4 9.2-7.2 11.9-7.3 3 0 4.4 2.2 4.4 4.2v38.9c0 3.8-2.5 4.7-4.8 4.6-1.9 0-3.7-0.7-3.7-0.7 11.4 16.5 38.6 18.9 38.6 18.9l12-12.8 0.3 0.2 11 9.3c20-11.9 29.7-34 29.7-34-9.1 9.7-14.8 11.9-18.2 11.9"/>
  <path id="SVGID_5_" d="m115.6 5.2c21.2 0 41.2 8.3 56.2 23.5 15 15.1 23.3 35.3 23.3 56.7s-8.3 41.5-23.3 56.7c-15 15.1-35 23.5-56.2 23.5s-41.2-8.3-56.2-23.5c-15-15.1-23.3-35.3-23.3-56.7s8.3-41.5 23.3-56.7 34.9-23.5 56.2-23.5m0-3.7c-46 0-83.2 37.5-83.2 83.8s37.2 83.8 83.1 83.8 83.1-37.5 83.1-83.8c0.1-46.3-37.1-83.8-83-83.8"/>
  <rect id="SVGID_37_" x="-46.8" y="-94.5" width="705.6" height="470.4"/>
  <path id="SVGID_43_" d="m119.6 213h-8.3v-2.3c0-0.8 0-1.5-0.1-2.2-0.1-0.6-0.2-1.1-0.4-1.5s-0.5-0.8-0.9-1c-0.4-0.3-0.9-0.4-1.6-0.6-0.6-0.1-1.4-0.2-2.4-0.3-0.9 0-2.1-0.1-3.4-0.1h-8.4v7.9h-8.3v-28.5h22.2c2.3 0 4.2 0.1 5.7 0.4s2.7 0.8 3.5 1.4c0.9 0.7 1.5 1.6 1.8 2.7s0.5 2.5 0.5 4.1v1c0 1.1-0.1 2.1-0.3 2.9s-0.5 1.6-0.9 2.2-0.9 1.1-1.5 1.5-1.4 0.7-2.3 0.9v0.2c1 0.2 1.8 0.4 2.5 0.6 0.6 0.3 1.1 0.6 1.5 1.1s0.6 1.2 0.7 2 0.2 1.8 0.2 3.1v4.5zm-15-14.1c1.4 0 2.6 0 3.5-0.1s1.5-0.3 2-0.6c0.4-0.3 0.7-0.7 0.9-1.2 0.1-0.5 0.2-1.2 0.2-2v-0.5c0-0.8-0.1-1.5-0.2-2s-0.4-0.9-0.9-1.1c-0.5-0.3-1.1-0.4-2-0.5s-2-0.1-3.4-0.1h-10.5v8.1h10.4z"/>
  <polygon id="SVGID_47_" points="156.1 213 125 213 125 184.5 155.6 184.5 155.6 190.8 133.4 190.8 133.4 195.6 154.4 195.6 154.4 201.6 133.4 201.6 133.4 206.5 156.1 206.5"/>
  <linearGradient id="linearGradient1340" x1="8.5011" x2="8.489" y1="16.007" y2=".79375" gradientTransform="matrix(3.7796 0 0 3.7796 7.7836e-5 .00025662)" gradientUnits="userSpaceOnUse">
   <stop stop-color="#2e3440" offset="0"/>
   <stop stop-color="#4c566a" offset="1"/>
  </linearGradient>
  <filter id="filter1178-3" x="-.047999" y="-.047999" width="1.096" height="1.096" color-interpolation-filters="sRGB">
   <feGaussianBlur stdDeviation="0.30691668"/>
  </filter>
  <linearGradient id="linearGradient458" x1="108.32" x2="108.32" y1="1.6777" y2="199.87" gradientUnits="userSpaceOnUse">
   <stop stop-color="#eceff4" offset="0"/>
   <stop stop-color="#d8dee9" offset="1"/>
  </linearGradient>
  <clipPath id="SVGID_44_" fill="url(#linearGradient458)">
   <use fill="url(#linearGradient458)" xlink:href="#SVGID_43_"/>
  </clipPath>
  <clipPath id="SVGID_48_" fill="url(#linearGradient458)">
   <use fill="url(#linearGradient458)" xlink:href="#SVGID_47_"/>
  </clipPath>
  <clipPath id="SVGID_38_" fill="url(#linearGradient458)">
   <use fill="url(#linearGradient458)" xlink:href="#SVGID_37_"/>
  </clipPath>
  <linearGradient id="linearGradient360" x1="108.32" x2="108.32" y1="1.6777" y2="199.87" gradientUnits="userSpaceOnUse" xlink:href="#linearGradient458"/>
 </defs>
 <g transform="matrix(3.7796 0 0 3.7796 -.00096588 -.43033)">
  <rect transform="matrix(.99138 0 0 1 .072989 .0019055)" x=".79375" y=".90545" width="15.346" height="15.346" rx="3.0526" ry="3.0526" filter="url(#filter1178-3)" opacity=".15" stroke-linecap="round" stroke-linejoin="round" stroke-width="1.2489" style="mix-blend-mode:normal"/>
 </g>
 <rect width="64" height="64" rx="0" ry="0" fill="none" style="paint-order:stroke fill markers"/>
 <circle cx="32.02" cy="32.044" r="30.001" fill="none"/>
 <style type="text/css">.st0{clip-path:url(#SVGID_2_);}
	.st1{clip-path:url(#SVGID_4_);fill:#2E2E2C;}
	.st2{clip-path:url(#SVGID_6_);}
	.st3{clip-path:url(#SVGID_8_);fill:#2E2E2C;}
	.st4{clip-path:url(#SVGID_10_);}
	.st5{clip-path:url(#SVGID_12_);fill:#2E2E2C;}
	.st6{clip-path:url(#SVGID_14_);}
	.st7{clip-path:url(#SVGID_16_);fill:#2E2E2C;}
	.st8{clip-path:url(#SVGID_18_);}
	.st9{clip-path:url(#SVGID_20_);fill:#2E2E2C;}
	.st10{clip-path:url(#SVGID_22_);}
	.st11{clip-path:url(#SVGID_24_);enable-background:new    ;}
	.st12{clip-path:url(#SVGID_26_);}
	.st13{clip-path:url(#SVGID_28_);}
	.st14{clip-path:url(#SVGID_30_);fill:#2E2E2C;}
	.st15{clip-path:url(#SVGID_32_);}
	.st16{clip-path:url(#SVGID_34_);fill:#2E2E2C;}
	.st17{clip-path:url(#SVGID_36_);}
	.st18{clip-path:url(#SVGID_38_);fill:#2E2E2C;}
	.st19{clip-path:url(#SVGID_40_);}
	.st20{clip-path:url(#SVGID_42_);fill:#2E2E2C;}
	.st21{clip-path:url(#SVGID_44_);}
	.st22{clip-path:url(#SVGID_46_);fill:#2E2E2C;}
	.st23{clip-path:url(#SVGID_48_);}
	.st24{clip-path:url(#SVGID_50_);fill:#2E2E2C;}
	.st25{clip-path:url(#SVGID_52_);}
	.st26{clip-path:url(#SVGID_54_);fill:#2E2E2C;}
	.st27{clip-path:url(#SVGID_56_);}
	.st28{clip-path:url(#SVGID_58_);fill:#2E2E2C;}
	.st29{clip-path:url(#SVGID_60_);}
	.st30{clip-path:url(#SVGID_62_);fill:#2E2E2C;}</style>
 <rect x="3.5001" y="3.5003" width="57" height="57" rx="11.339" ry="11.339" fill="url(#linearGradient1340)" stroke-linecap="round" stroke-linejoin="round" stroke-width="4.6391"/>
 <rect x=".046" y=".023" width="63.966" height="63.977" fill="none" opacity=".15" stroke-linecap="round" stroke-linejoin="round" stroke-width="3.9761"/>
 <use transform="matrix(.29764 0 0 .29764 -1.5073 6.6254)" fill="url(#linearGradient360)" xlink:href="#SVGID_1_"/>
 <use transform="matrix(.29764 0 0 .29764 -2.3773 6.5807)" fill="url(#linearGradient360)" xlink:href="#SVGID_5_"/>
</svg>
