<?xml version="1.0" encoding="UTF-8" standalone="no"?>
<svg
   width="64"
   height="64"
   version="1.1"
   viewBox="0 0 16.933 16.933"
   id="svg43"
   xml:space="preserve"
   xmlns:xlink="http://www.w3.org/1999/xlink"
   xmlns="http://www.w3.org/2000/svg"
   xmlns:svg="http://www.w3.org/2000/svg"><defs
     id="defs25"><linearGradient
       id="linearGradient923"><stop
         style="stop-color:#d69a85;stop-opacity:1;"
         offset="0"
         id="stop919" /><stop
         style="stop-color:#cb795d;stop-opacity:1;"
         offset="1"
         id="stop921" /></linearGradient><filter
       id="filter1178"
       x="-0.04799993"
       y="-0.04799993"
       width="1.0959999"
       height="1.0959999"
       color-interpolation-filters="sRGB"><feGaussianBlur
         stdDeviation="0.30691955"
         id="feGaussianBlur2" /></filter><linearGradient
       id="linearGradient1694"
       x1="48.597"
       x2="48.597"
       y1="-1.8124"
       y2="3.8129"
       gradientUnits="userSpaceOnUse"
       gradientTransform="matrix(0.89214762,0,0,0.92700658,2.4703195,-1.0964435)"><stop
         stop-color="#88c0d0"
         offset="0"
         id="stop5" /><stop
         stop-color="#5e81ac"
         offset="1"
         id="stop7" /></linearGradient><linearGradient
       id="linearGradient1830"
       x1="48.461"
       x2="48.461"
       y1="-3.5809"
       y2="6.0409"
       gradientUnits="userSpaceOnUse"
       gradientTransform="matrix(0.89214762,0,0,0.92700658,2.4703195,-1.0964435)"><stop
         stop-color="#eceff4"
         offset="0"
         id="stop10" /><stop
         stop-color="#d8dee9"
         offset="1"
         id="stop12" /></linearGradient><linearGradient
       id="linearGradient1902"
       x1="176.3"
       x2="176.3"
       y1="-38.658"
       y2="35.521"
       gradientUnits="userSpaceOnUse"
       gradientTransform="matrix(0.26458,0,0,0.26458,-30.923261,-5.4432961)"><stop
         stop-color="#d69a85"
         offset="0"
         id="stop15" /><stop
         stop-color="#cb795d"
         offset="1"
         id="stop17" /></linearGradient><linearGradient
       id="linearGradient4554"
       x1="8.0262"
       x2="8.0262"
       y1="1.1559"
       y2="16.004"
       gradientUnits="userSpaceOnUse"><stop
         stop-color="#4c566a"
         offset="0"
         id="stop20" /><stop
         stop-color="#2e3440"
         offset="1"
         id="stop22" /></linearGradient><linearGradient
       xlink:href="#linearGradient923"
       id="linearGradient925"
       x1="37.739799"
       y1="-8.9749203"
       x2="50.284859"
       y2="14.631141"
       gradientUnits="userSpaceOnUse"
       gradientTransform="translate(-1.1535359,-0.81925484)" /></defs><g
     stroke-linecap="round"
     stroke-linejoin="round"
     id="g33"><rect
       transform="matrix(.99138 0 0 1 .072989 .1117)"
       x=".79375"
       y=".79375"
       width="15.346"
       height="15.346"
       rx="3.0526"
       ry="3.0526"
       fill="#2e3440"
       filter="url(#filter1178)"
       opacity=".2"
       stroke-width="1.2489"
       id="rect27" /><rect
       x=".92604"
       y=".92604"
       width="15.081"
       height="15.081"
       rx="3"
       ry="3"
       fill="url(#linearGradient4554)"
       stroke-width="1.2274"
       id="rect29" /><rect
       x=".01215"
       y=".0060174"
       width="16.924"
       height="16.927"
       fill="none"
       opacity=".15"
       stroke-width="1.052"
       id="rect31" /></g><g
     transform="matrix(.49245 0 0 .49245 -13.676 8.6437)"
     fill-rule="evenodd"
     id="g41"><path
       style="fill:url(#linearGradient925);fill-opacity:1;stroke-width:0.00888249"
       d="m 52.467974,9.5223862 c -0.09731,-0.01102 -0.258372,-0.04788 -0.350163,-0.08025 C 52.059121,9.4214662 51.346166,9.1451503 50.895766,8.9685333 50.84975,8.9504843 49.879085,8.5721396 49.665544,8.4890075 49.213504,8.3130372 48.252986,7.9386807 47.769128,7.7498837 47.436931,7.6202601 47.095171,7.487206 47.009676,7.4541957 46.924188,7.4211991 46.380578,7.2093596 45.801662,6.9834741 45.222741,6.7575885 44.667351,6.5411061 44.567453,6.5023988 44.438228,6.4523184 44.338281,6.4205273 44.221064,6.392146 42.517785,5.9797782 41.067112,4.8844495 40.180881,3.3415934 39.792968,2.6662722 39.52987,1.9314952 39.394694,1.1459144 L 39.366314,0.98088306 39.122043,1.1689155 c -0.134342,0.1034124 -0.496086,0.381989 -0.803863,0.6190548 -0.307771,0.2370726 -0.96056,0.7398333 -1.450618,1.1172482 -0.490065,0.377415 -0.924607,0.7080973 -0.965643,0.734846 -0.31065,0.2024916 -0.711431,0.299532 -1.077728,0.2609486 -0.535282,-0.056418 -0.999039,-0.3519269 -1.276651,-0.81359 -0.100864,-0.1677247 -0.176398,-0.371229 -0.212294,-0.5719088 -0.0226,-0.1265513 -0.02755,-0.3719041 -0.01,-0.497422 0.05463,-0.390159 0.225989,-0.732931 0.495108,-0.9904836 0.08853,-0.08473 0.06214,-0.064064 1.064784,-0.83579894 4.746392,-3.65352926 6.525356,-5.02640786 6.634424,-5.11996946 0.45782,-0.3927559 0.836385,-0.6499296 1.319796,-0.8965981 1.598027,-0.8154288 3.46817,-0.90512 5.13186,-0.2461177 0.06716,0.026587 0.122127,0.046774 0.122127,0.044846 0,-0.00344 -0.07015,-0.7625786 -0.1066,-1.1537862 -0.173202,-1.858624 -0.255632,-2.75753 -0.260819,-2.8442243 -0.0027,-0.04009 -0.0013,-0.122018 0.0035,-0.182095 0.05725,-0.799633 0.661791,-1.442963 1.455294,-1.548601 0.120503,-0.01605 0.316692,-0.01612 0.43645,-1.59e-4 0.559951,0.07463 1.039889,0.418996 1.288128,0.924264 0.103633,0.210943 0.147913,0.387285 0.177321,0.706237 0.02252,0.2444103 0.07769,0.8383623 0.120027,1.2924133 0.01729,0.185643 0.03754,0.403489 0.04491,0.4841 0.0073,0.08061 0.02742,0.296453 0.04443,0.479656 0.01708,0.183203 0.05277,0.568926 0.07943,0.8571674 0.04554,0.4923999 0.06599,0.7125065 0.142478,1.5322412 0.01708,0.1832035 0.03706,0.3990522 0.0445,0.4796563 0.0073,0.08061 0.02922,0.3164434 0.04843,0.5240671 0.01921,0.2076376 0.04105,0.4434634 0.04843,0.5240743 0.0073,0.080611 0.03134,0.3384317 0.05324,0.572928 0.0219,0.2344964 0.04595,0.4923107 0.05332,0.5729216 0.07568,0.8226485 0.129264,1.3844449 0.133067,1.3950189 0.01027,0.028656 0.0682,0.354097 0.08867,0.49831057 0.262003,1.84685889 -0.257656,3.71651913 -1.430923,5.14817893 -0.171437,0.2091943 -0.407497,0.4606848 -0.597217,0.6362556 -0.05091,0.047049 -0.0908,0.087341 -0.08868,0.089442 0.0021,0.00207 0.169646,0.068405 0.37231,0.1473413 0.20267,0.078923 0.676265,0.2634216 1.052439,0.4099981 0.376176,0.1465697 0.981736,0.3824643 1.345697,0.524212 0.363962,0.1417407 0.705714,0.2790175 0.759452,0.3050497 0.392101,0.1899337 0.701312,0.5397252 0.843832,0.9545454 0.193798,0.5640764 0.08012,1.1735767 -0.304892,1.6348126 -0.352299,0.4220459 -0.918442,0.6468499 -1.4716,0.5843559 z"
       id="path917" /><ellipse
       cx="45.809959"
       cy="0.0314456"
       rx="4.7235646"
       ry="4.4530616"
       fill="url(#linearGradient1830)"
       stroke-width="0.407288"
       id="ellipse37"
       style="fill:url(#linearGradient1830)" /><ellipse
       cx="45.892036"
       cy="-0.11465057"
       rx="2.9324892"
       ry="2.7618308"
       fill="url(#linearGradient1694)"
       stroke-width="0.252725"
       id="ellipse39"
       style="fill:url(#linearGradient1694)" /></g></svg>
