<svg width="64" height="64" version="1.1" viewBox="0 0 16.933 16.933" xmlns="http://www.w3.org/2000/svg">
 <defs>
  <filter id="filter1178" x="-.047999" y="-.047999" width="1.096" height="1.096" color-interpolation-filters="sRGB">
   <feGaussianBlur stdDeviation="0.30691668"/>
  </filter>
  <linearGradient id="linearGradient1340" x1="8.355" x2="8.3996" y1="16.007" y2=".79375" gradientUnits="userSpaceOnUse">
   <stop stop-color="#d8dee9" offset="0"/>
   <stop stop-color="#eceff4" offset="1"/>
  </linearGradient>
  <linearGradient id="linearGradient4867" x1="8.3154" x2="8.3892" y1="3.3595" y2="13.524" gradientUnits="userSpaceOnUse">
   <stop stop-color="#4c566a" offset="0"/>
   <stop stop-color="#2e3440" offset="1"/>
  </linearGradient>
  <filter id="filter5161" x="-.11505" y="-.10114" width="1.2301" height="1.2023" color-interpolation-filters="sRGB">
   <feGaussianBlur stdDeviation="0.46991679"/>
  </filter>
 </defs>
 <g stroke-linecap="round" stroke-linejoin="round">
  <rect transform="matrix(.99138 0 0 1 .072989 .0019055)" x=".79375" y=".90545" width="15.346" height="15.346" rx="3.0526" ry="3.0526" fill="#000000" filter="url(#filter1178)" opacity=".15" stroke-width="1.2489" style="mix-blend-mode:normal"/>
  <rect x=".92604" y=".92604" width="15.081" height="15.081" rx="3" ry="3" fill="url(#linearGradient1340)" stroke-width="1.2274"/>
  <rect x=".01215" y=".0060174" width="16.924" height="16.927" fill="none" opacity=".15" stroke-width="1.052"/>
 </g>
 <path d="m3.7018 14.49c-0.06676-0.03304-0.10425-0.0716-0.13856-0.14246-0.04294-0.08871-0.04575-0.11838-0.03228-0.34156 0.06743-1.1169 0.48917-2.0641 1.2641-2.8391 0.6597-0.6597 1.4025-1.0407 2.344-1.2022 0.19899-0.03415 0.36686-0.03927 1.286-0.03927 0.91913 0 1.087 0.0051 1.286 0.03927 0.94152 0.16156 1.6843 0.54253 2.344 1.2022 0.77493 0.77493 1.1967 1.7221 1.2641 2.8391 0.01349 0.22346 0.01071 0.25278-0.03248 0.34198-0.035 0.0723-0.07126 0.1092-0.13999 0.14247l-0.09276 0.0449-9.2606-3.4e-5zm4.4726-5.2419c-0.44899-0.06273-0.64832-0.11541-0.95291-0.25184-0.75018-0.33603-1.3631-1.0279-1.605-1.8118-0.16628-0.53887-0.16628-1.1938 0-1.7327 0.27915-0.90464 1.0375-1.663 1.9422-1.9422 0.53887-0.16628 1.1938-0.16628 1.7327 0 0.90464 0.27915 1.663 1.0375 1.9422 1.9422 0.12679 0.41089 0.16157 0.99568 0.08296 1.3949-0.23765 1.2068-1.1595 2.1319-2.3509 2.3592-0.17852 0.03406-0.66409 0.05996-0.79121 0.0422z" fill="#2e3440" filter="url(#filter5161)" opacity=".40744" stroke-width=".021796"/>
 <path d="m3.7509 13.999c-0.06676-0.03304-0.10425-0.0716-0.13856-0.14246-0.04294-0.08871-0.04575-0.11838-0.03228-0.34156 0.06743-1.1169 0.48917-2.0641 1.2641-2.8391 0.6597-0.6597 1.4025-1.0407 2.344-1.2022 0.19899-0.03415 0.36686-0.03927 1.286-0.03927 0.91913 0 1.087 0.0051 1.286 0.03927 0.94152 0.16156 1.6843 0.54253 2.344 1.2022 0.77493 0.77493 1.1967 1.7221 1.2641 2.8391 0.01349 0.22346 0.01071 0.25278-0.03248 0.34198-0.035 0.0723-0.07126 0.1092-0.13999 0.14247l-0.09276 0.0449-9.2606-3.4e-5zm4.4726-5.2419c-0.44899-0.06273-0.64832-0.11541-0.95291-0.25184-0.75018-0.33603-1.3631-1.0279-1.605-1.8118-0.16628-0.53887-0.16628-1.1938 0-1.7327 0.27915-0.90464 1.0375-1.663 1.9422-1.9422 0.53887-0.16628 1.1938-0.16628 1.7327 0 0.90464 0.27915 1.663 1.0375 1.9422 1.9422 0.12679 0.41089 0.16157 0.99568 0.08296 1.3949-0.23765 1.2068-1.1595 2.1319-2.3509 2.3592-0.17852 0.03406-0.66409 0.05996-0.79121 0.0422z" fill="url(#linearGradient4867)" stroke-width=".021796"/>
</svg>
