<svg width="64" height="64" version="1.1" viewBox="0 0 16.933 16.933" xmlns="http://www.w3.org/2000/svg">
 <defs>
  <filter id="filter1178" x="-.048" y="-.048" width="1.096" height="1.096" color-interpolation-filters="sRGB">
   <feGaussianBlur stdDeviation="0.30691955"/>
  </filter>
  <linearGradient id="linearGradient1340" x1="8.5011" x2="8.489" y1="16.007" y2=".79375" gradientUnits="userSpaceOnUse">
   <stop stop-color="#2e3440" offset="0"/>
   <stop stop-color="#4c566a" offset="1"/>
  </linearGradient>
 </defs>
 <g stroke-linecap="round" stroke-linejoin="round">
  <rect transform="matrix(.99138 0 0 1 .072989 .0019055)" x=".79375" y=".90545" width="15.346" height="15.346" rx="3.0526" ry="3.0526" fill="#000000" filter="url(#filter1178)" opacity=".15" stroke-width="1.2489" style="mix-blend-mode:normal"/>
  <rect x=".92604" y=".92604" width="15.081" height="15.081" rx="3" ry="3" fill="url(#linearGradient1340)" stroke-width="1.2274"/>
  <rect x=".01215" y=".0060174" width="16.924" height="16.927" fill="none" opacity=".15" stroke-width="1.052"/>
 </g>
 <path d="m0.92604 10.305 0.76604 8e-3c0.42132 0.0044 1.3783 0.01933 2.1266 0.03324 1.3097 0.02434 1.3638 0.02264 1.4464-0.04525 0.14104-0.11597 0.2906-0.34173 0.36113-0.54511 0.036631-0.10562 0.092894-0.19614 0.12569-0.20218 0.03429-0.0063 0.1194 0.06587 0.20152 0.17096 0.22403 0.28668 0.55349 0.55206 0.68535 0.55206 0.17033 0 0.53269 0.14015 0.68312 0.26422 0.073796 0.06087 0.14264 0.10272 0.15298 0.093 0.022547-0.02118 0.31271-2.8736 0.52855-5.1956 0.024272-0.26109 0.06479-0.49586 0.090052-0.5217 0.051855-0.05306 0.17635-0.02264 0.17635 0.04309 0 0.02369 0.035568 0.39576 0.079044 0.82684 0.043477 0.43108 0.10462 1.0549 0.13587 1.3863 0.031257 0.33138 0.11814 1.2331 0.19308 2.0037 0.074936 0.77066 0.13625 1.4245 0.13625 1.4531 0 0.02852 0.065758-0.01307 0.14613-0.09244 0.19202-0.18961 0.33869-0.21395 0.82858-0.13753 0.2103 0.03281 0.47877 0.05965 0.59658 0.05965 0.18331 0 0.23367-0.01605 0.3491-0.11125 0.08603-0.07096 0.15887-0.18007 0.2011-0.30126 0.23485-0.67398 0.6761-1.1333 1.0887-1.1333 0.33435 0 0.58142 0.25072 0.86822 0.88106 0.22556 0.49572 0.42372 0.70132 0.67595 0.70132 0.13753 0 0.39588-0.19219 0.51499-0.38311 0.15393-0.24674 0.36764-0.32784 0.6233-0.23653 0.05798 0.02071 0.23843 0.15825 0.40099 0.30566 0.16256 0.1474 0.33378 0.28657 0.38048 0.30926 0.10922 0.05306 0.29521 0.05299 0.35175-1.1e-4 0.06871-0.06454 0.17315-0.0075 0.15889 0.08685-9e-3 0.05938-0.05725 0.09688-0.1732 0.13453-0.24184 0.07854-0.4627-0.01333-0.83054-0.34548-0.46321-0.41826-0.52746-0.42741-0.75374-0.10729-0.3608 0.51044-0.86765 0.58154-1.2269 0.17211-0.11608-0.13228-0.14558-0.18365-0.42465-0.73923-0.2887-0.57476-0.52195-0.7009-0.86802-0.46943-0.15749 0.10534-0.42706 0.50464-0.53879 0.79807-0.11934 0.31341-0.2172 0.45012-0.40344 0.56355-0.18842 0.11476-0.40234 0.12172-1.0012 0.03257-0.66728-0.09934-0.70008-0.06642-0.78602 0.78896-0.059202 0.58926-0.087232 0.67632-0.20419 0.63417-0.06792-0.02448-0.072657-0.05185-0.14733-0.85073-0.034726-0.37155-0.088061-0.93025-0.11853-1.2416-0.10786-1.1022-0.21722-2.2528-0.31319-3.2951-0.014308-0.15539-0.038847-0.27508-0.054527-0.26598-0.015681 0.0091-0.039794 0.16089-0.053568 0.33731-0.013775 0.17641-0.11442 1.2327-0.22365 2.3474-0.20419 2.0837-0.22317 2.1924-0.36357 2.083-0.03314-0.02585-0.060265-0.0741-0.060265-0.10723 0-0.09149-0.21895-0.32155-0.40185-0.42223-0.089586-0.04931-0.27307-0.11381-0.40774-0.14332-0.29143-0.06386-0.35754-0.10158-0.62091-0.35422-0.11057-0.10606-0.20672-0.18575-0.21368-0.17707-0.00692 0.0087-0.067472 0.09793-0.13448 0.19835-0.067004 0.10042-0.18321 0.23846-0.25823 0.30676l-0.13641 0.12418-1.2166-0.02391c-2.8594-0.05619-3.097-0.06604-3.1177-0.12931z" fill="#a3be8c" stroke-width=".037677"/>
</svg>
