<?xml version="1.0" encoding="UTF-8" standalone="no"?>
<svg
   width="64"
   height="64"
   version="1.1"
   id="svg25"
   sodipodi:docname="vim.svg"
   xml:space="preserve"
   inkscape:version="1.2.2 (b0a8486541, 2022-12-01)"
   xmlns:inkscape="http://www.inkscape.org/namespaces/inkscape"
   xmlns:sodipodi="http://sodipodi.sourceforge.net/DTD/sodipodi-0.dtd"
   xmlns:xlink="http://www.w3.org/1999/xlink"
   xmlns="http://www.w3.org/2000/svg"
   xmlns:svg="http://www.w3.org/2000/svg"><sodipodi:namedview
     id="namedview27"
     pagecolor="#ffffff"
     bordercolor="#000000"
     borderopacity="0.25"
     inkscape:showpageshadow="2"
     inkscape:pageopacity="0.0"
     inkscape:pagecheckerboard="0"
     inkscape:deskcolor="#d1d1d1"
     showgrid="false"
     inkscape:zoom="6.8003785"
     inkscape:cx="26.39559"
     inkscape:cy="42.130008"
     inkscape:window-width="3440"
     inkscape:window-height="1440"
     inkscape:window-x="0"
     inkscape:window-y="0"
     inkscape:window-maximized="1"
     inkscape:current-layer="svg25" /><defs
     id="defs13"><linearGradient
       inkscape:collect="always"
       id="linearGradient1171"><stop
         style="stop-color:#eceff4;stop-opacity:1"
         offset="0"
         id="stop1167" /><stop
         style="stop-color:#d8dee9;stop-opacity:1"
         offset="1"
         id="stop1169" /></linearGradient><linearGradient
       inkscape:collect="always"
       id="linearGradient1163"><stop
         style="stop-color:#eceff4;stop-opacity:1"
         offset="0"
         id="stop1159" /><stop
         style="stop-color:#d8dee9;stop-opacity:1"
         offset="1"
         id="stop1161" /></linearGradient><linearGradient
       id="a"
       x1="30.79"
       x2="30.790001"
       y1="-6.397"
       y2="568.59027"
       gradientTransform="matrix(.24428 0 0 .24428 7.5723 7.5398)"
       gradientUnits="userSpaceOnUse"><stop
         stop-color="#a3be8c"
         offset="0"
         id="stop2"
         style="stop-color:#a3be8c;stop-opacity:1" /><stop
         stop-color="#8fbcbb"
         offset="1"
         id="stop4"
         style="stop-color:#4c566a;stop-opacity:1" /></linearGradient><filter
       id="filter1178"
       x="-0.047999482"
       y="-0.047999482"
       width="1.095999"
       height="1.095999"
       color-interpolation-filters="sRGB"><feGaussianBlur
         stdDeviation="0.30691668"
         id="feGaussianBlur7" /></filter><filter
       id="filter881"
       x="-0.041719995"
       y="-0.041704717"
       width="1.08344"
       height="1.0834094"
       color-interpolation-filters="sRGB"><feGaussianBlur
         stdDeviation="0.78545803"
         id="feGaussianBlur10" /></filter><linearGradient
       inkscape:collect="always"
       xlink:href="#linearGradient1163"
       id="linearGradient1165"
       x1="19.622559"
       y1="13.286377"
       x2="19.622559"
       y2="50.092285"
       gradientUnits="userSpaceOnUse" /><linearGradient
       inkscape:collect="always"
       xlink:href="#linearGradient1171"
       id="linearGradient1173"
       x1="33.382324"
       y1="35.537109"
       x2="33.382324"
       y2="51.063477"
       gradientUnits="userSpaceOnUse" /><filter
       inkscape:collect="always"
       style="color-interpolation-filters:sRGB"
       id="filter1739"
       x="-0.064418986"
       y="-0.068305157"
       width="1.128838"
       height="1.1366103"><feGaussianBlur
         inkscape:collect="always"
         stdDeviation="1.0813037"
         id="feGaussianBlur1741" /></filter></defs><g
     transform="matrix(3.7796 0 0 3.7796 -.00096588 -.43033)"
     id="g17"><rect
       transform="matrix(.99138 0 0 1 .072989 .0019055)"
       x=".79375"
       y=".90545"
       width="15.346"
       height="15.346"
       rx="3.0526"
       ry="3.0526"
       filter="url(#filter1178)"
       opacity=".15"
       stroke-linecap="round"
       stroke-linejoin="round"
       stroke-width="1.2489"
       style="mix-blend-mode:normal"
       id="rect15" /></g><path
     d="m16.734 3.5a13.204 13.204 0 0 0-13.234 13.234v30.533a13.204 13.204 0 0 0 13.234 13.234h30.533a13.204 13.204 0 0 0 13.234-13.234v-30.533a13.204 13.204 0 0 0-13.234-13.234z"
     fill="url(#a)"
     stroke-width="1.0178"
     id="path19"
     style="fill:url(#a)" /><g
     id="g1183"
     style="fill:#2e3440;filter:url(#filter1739);opacity:0.50734308"><path
       id="path1179"
       style="fill:#2e3440;fill-opacity:1;stroke:none;stroke-width:0.124109px;stroke-linecap:butt;stroke-linejoin:miter;stroke-opacity:1"
       d="m 37.660156,13.003906 -0.53125,0.53125 v 1.953125 l 0.464844,0.464844 h 2.457031 v 1.886719 L 23.794922,34.337891 V 15.976562 h 2.701172 l 0.554687,-0.554687 V 13.447266 L 26.539062,13.050781 H 12.322266 l -0.464844,0.464844 v 2.019531 l 0.472656,0.472656 h 2.472656 v 33.8125 l 0.466797,0.464844 h 2.808594 l 12.005859,-12.404297 0.560547,-1.572265 c 0.01746,-0.05368 0.04168,-0.105438 0.07227,-0.152344 0.03059,-0.04691 0.06756,-0.08896 0.109375,-0.126953 l 0.0039,-0.0039 0.660156,-0.56836 c 0.04213,-0.03711 0.08873,-0.06879 0.138672,-0.09375 0.04994,-0.02496 0.103209,-0.0432 0.158203,-0.05469 0.01881,-0.02495 -0.09534,0.0064 0.05078,-0.0078 0.01505,-0.0015 0.02981,4.82e-4 0.04492,0 0.0289,-9.21e-4 0.05714,-0.0029 0.08594,0 l -0.04883,-0.002 h 0.662109 L 52.142578,15.087891 v -1.552735 l -0.53125,-0.53125 z"
       sodipodi:nodetypes="ccccccccccccccccccccccscccsccsccccccc" /><path
       style="color:#000000;fill:#2e3440;stroke-width:0.992878;stroke-miterlimit:10;-inkscape-stroke:none;fill-opacity:1"
       d="m 31.888067,35.795063 a 0.1529256,0.15313114 0 0 0 -0.06978,0.03493 l -0.658888,0.56663 a 0.1529256,0.15313114 0 0 0 -0.04265,0.06598 l -0.658889,1.847369 a 0.1529256,0.15313114 0 0 0 0.03485,0.159123 l 0.503857,0.504533 a 0.1529256,0.15313114 0 0 0 0.108526,0.04269 h 2.034803 a 0.1529256,0.15313114 0 0 0 0.108526,-0.04269 l 0.530989,-0.535582 a 0.1529256,0.15313114 0 0 0 0.03875,-0.06598 L 34.38403,36.42767 a 0.1529256,0.15313114 0 0 0 -0.03875,-0.15136 l -0.43797,-0.438556 a 0.1529256,0.15313114 0 0 0 -0.108525,-0.04269 h -1.879772 a 0.1529256,0.15313114 0 0 0 -0.03103,0 z m -3.728537,5.208341 a 0.1529256,0.15313114 0 0 0 -0.116276,0.112549 l -0.251924,1.001306 a 0.1529256,0.15313114 0 0 0 0.147281,0.19017 h 1.197627 l -2.968881,8.48781 a 0.1529256,0.15313114 0 0 0 0.143407,0.201814 h 4.321539 a 0.1529256,0.15313114 0 0 0 0.147281,-0.104788 l 0.282931,-0.912042 A 0.1529256,0.15313114 0 0 0 30.915241,49.782291 H 29.938533 L 32.8764,41.205217 a 0.1529256,0.15313114 0 0 0 -0.143399,-0.201813 h -4.542465 a 0.1529256,0.15313114 0 0 0 -0.03103,0 z m 13.751412,0.03104 a 0.1529256,0.15313114 0 0 0 -0.08527,0.05045 l -0.899197,1.01683 h -1.43017 l -0.953451,-0.989663 a 0.1529256,0.15313114 0 0 0 -0.108526,-0.04657 h -3.4146 a 0.1529256,0.15313114 0 0 0 -0.143407,0.100906 l -0.313937,0.93921 a 0.1529256,0.15313114 0 0 0 0.143406,0.201813 h 0.914688 l -2.844847,8.394665 a 0.1529256,0.15313114 0 0 0 0.143406,0.201813 h 3.635519 a 0.1529256,0.15313114 0 0 0 0.143407,-0.100906 l 0.279056,-0.818897 A 0.1529256,0.15313114 0 0 0 36.833612,49.782282 H 36.19798 l 1.813885,-5.716756 h 3.282818 l -2.069692,6.64044 a 0.1529256,0.15313114 0 0 0 0.147282,0.197932 h 3.507619 a 0.1529256,0.15313114 0 0 0 0.139532,-0.09314 l 0.313937,-0.75292 a 0.1529256,0.15313114 0 0 0 -0.139524,-0.209575 h -0.63564 l 1.844891,-5.813781 H 47.527 l -2.100698,6.671488 a 0.1529256,0.15313114 0 0 0 0.147281,0.197932 h 3.85257 a 0.1529256,0.15313114 0 0 0 0.143407,-0.09703 l 0.313937,-0.818897 A 0.1529256,0.15313114 0 0 0 49.740092,49.782289 H 48.97656 l 2.321617,-7.548602 a 0.1529256,0.15313114 0 0 0 -0.02323,-0.139717 l -0.720901,-0.970257 a 0.1529256,0.15313114 0 0 0 -0.124033,-0.05822 h -2.755704 a 0.1529256,0.15313114 0 0 0 -0.112401,0.04657 l -0.868182,0.954733 h -1.519322 l -0.899189,-0.98578 a 0.1529256,0.15313114 0 0 0 -0.1124,-0.04658 h -2.220841 a 0.1529256,0.15313114 0 0 0 -0.03103,0 z"
       id="path1181" /></g><g
     id="g1177"><path
       id="path1154"
       style="fill:url(#linearGradient1165);fill-opacity:1;stroke:none;stroke-width:0.124109px;stroke-linecap:butt;stroke-linejoin:miter;stroke-opacity:1"
       d="m 37.660156,13.003906 -0.53125,0.53125 v 1.953125 l 0.464844,0.464844 h 2.457031 v 1.886719 L 23.794922,34.337891 V 15.976562 h 2.701172 l 0.554687,-0.554687 V 13.447266 L 26.539062,13.050781 H 12.322266 l -0.464844,0.464844 v 2.019531 l 0.472656,0.472656 h 2.472656 v 33.8125 l 0.466797,0.464844 h 2.808594 l 12.005859,-12.404297 0.560547,-1.572265 c 0.01746,-0.05368 0.04168,-0.105438 0.07227,-0.152344 0.03059,-0.04691 0.06756,-0.08896 0.109375,-0.126953 l 0.0039,-0.0039 0.660156,-0.56836 c 0.04213,-0.03711 0.08873,-0.06879 0.138672,-0.09375 0.04994,-0.02496 0.103209,-0.0432 0.158203,-0.05469 0.01881,-0.02495 -0.09534,0.0064 0.05078,-0.0078 0.01505,-0.0015 0.02981,4.82e-4 0.04492,0 0.0289,-9.21e-4 0.05714,-0.0029 0.08594,0 l -0.04883,-0.002 h 0.662109 L 52.142578,15.087891 v -1.552735 l -0.53125,-0.53125 z"
       sodipodi:nodetypes="ccccccccccccccccccccccscccsccsccccccc" /><path
       style="color:#000000;fill:url(#linearGradient1173);stroke-width:0.992878;stroke-miterlimit:10;-inkscape-stroke:none;fill-opacity:1"
       d="m 31.888067,35.795063 a 0.1529256,0.15313114 0 0 0 -0.06978,0.03493 l -0.658888,0.56663 a 0.1529256,0.15313114 0 0 0 -0.04265,0.06598 l -0.658889,1.847369 a 0.1529256,0.15313114 0 0 0 0.03485,0.159123 l 0.503857,0.504533 a 0.1529256,0.15313114 0 0 0 0.108526,0.04269 h 2.034803 a 0.1529256,0.15313114 0 0 0 0.108526,-0.04269 l 0.530989,-0.535582 a 0.1529256,0.15313114 0 0 0 0.03875,-0.06598 L 34.38403,36.42767 a 0.1529256,0.15313114 0 0 0 -0.03875,-0.15136 l -0.43797,-0.438556 a 0.1529256,0.15313114 0 0 0 -0.108525,-0.04269 h -1.879772 a 0.1529256,0.15313114 0 0 0 -0.03103,0 z m -3.728537,5.208341 a 0.1529256,0.15313114 0 0 0 -0.116276,0.112549 l -0.251924,1.001306 a 0.1529256,0.15313114 0 0 0 0.147281,0.19017 h 1.197627 l -2.968881,8.48781 a 0.1529256,0.15313114 0 0 0 0.143407,0.201814 h 4.321539 a 0.1529256,0.15313114 0 0 0 0.147281,-0.104788 l 0.282931,-0.912042 A 0.1529256,0.15313114 0 0 0 30.915241,49.782291 H 29.938533 L 32.8764,41.205217 a 0.1529256,0.15313114 0 0 0 -0.143399,-0.201813 h -4.542465 a 0.1529256,0.15313114 0 0 0 -0.03103,0 z m 13.751412,0.03104 a 0.1529256,0.15313114 0 0 0 -0.08527,0.05045 l -0.899197,1.01683 h -1.43017 l -0.953451,-0.989663 a 0.1529256,0.15313114 0 0 0 -0.108526,-0.04657 h -3.4146 a 0.1529256,0.15313114 0 0 0 -0.143407,0.100906 l -0.313937,0.93921 a 0.1529256,0.15313114 0 0 0 0.143406,0.201813 h 0.914688 l -2.844847,8.394665 a 0.1529256,0.15313114 0 0 0 0.143406,0.201813 h 3.635519 a 0.1529256,0.15313114 0 0 0 0.143407,-0.100906 l 0.279056,-0.818897 A 0.1529256,0.15313114 0 0 0 36.833612,49.782282 H 36.19798 l 1.813885,-5.716756 h 3.282818 l -2.069692,6.64044 a 0.1529256,0.15313114 0 0 0 0.147282,0.197932 h 3.507619 a 0.1529256,0.15313114 0 0 0 0.139532,-0.09314 l 0.313937,-0.75292 a 0.1529256,0.15313114 0 0 0 -0.139524,-0.209575 h -0.63564 l 1.844891,-5.813781 H 47.527 l -2.100698,6.671488 a 0.1529256,0.15313114 0 0 0 0.147281,0.197932 h 3.85257 a 0.1529256,0.15313114 0 0 0 0.143407,-0.09703 l 0.313937,-0.818897 A 0.1529256,0.15313114 0 0 0 49.740092,49.782289 H 48.97656 l 2.321617,-7.548602 a 0.1529256,0.15313114 0 0 0 -0.02323,-0.139717 l -0.720901,-0.970257 a 0.1529256,0.15313114 0 0 0 -0.124033,-0.05822 h -2.755704 a 0.1529256,0.15313114 0 0 0 -0.112401,0.04657 l -0.868182,0.954733 h -1.519322 l -0.899189,-0.98578 a 0.1529256,0.15313114 0 0 0 -0.1124,-0.04658 h -2.220841 a 0.1529256,0.15313114 0 0 0 -0.03103,0 z"
       id="path1148" /></g></svg>
