<svg width="64" height="64" version="1.1" viewBox="0 0 16.933 16.933" xmlns="http://www.w3.org/2000/svg">
 <defs>
  <filter id="filter1178" x="-.047999" y="-.047999" width="1.096" height="1.096" color-interpolation-filters="sRGB">
   <feGaussianBlur stdDeviation="0.30691668"/>
  </filter>
  <linearGradient id="linearGradient1340" x1="8.3017" x2="8.355" y1="16.007" y2=".79375" gradientUnits="userSpaceOnUse">
   <stop stop-color="#bf616a" offset="0"/>
   <stop stop-color="#d08770" offset="1"/>
  </linearGradient>
  <linearGradient id="linearGradient305" x1="8.3866" x2="8.3866" y1="2.4434" y2="14.7" gradientTransform="translate(.0019998 -.09301)" gradientUnits="userSpaceOnUse">
   <stop stop-color="#eceff4" offset="0"/>
   <stop stop-color="#d8dee9" offset="1"/>
  </linearGradient>
 </defs>
 <g stroke-linecap="round" stroke-linejoin="round">
  <rect transform="matrix(.99138 0 0 1 .072989 .0019055)" x=".79375" y=".90545" width="15.346" height="15.346" rx="3.0526" ry="3.0526" fill="#000000" filter="url(#filter1178)" opacity=".15" stroke-width="1.2489" style="mix-blend-mode:normal"/>
  <rect x=".92604" y=".92604" width="15.081" height="15.081" rx="3" ry="3" fill="url(#linearGradient1340)" stroke-width="1.2274"/>
  <rect x=".01215" y=".0060174" width="16.924" height="16.927" fill="none" opacity=".15" stroke-width="1.052"/>
 </g>
 <path d="m7.7237 14.646c-2.1243-0.30837-3.8758-1.548-4.7955-3.3942-0.30305-0.60829-0.47477-1.1296-0.5779-1.7543-0.54283-3.2881 1.6161-6.4163 4.8942-7.0914 1.99-0.4098 4.057 0.18832 5.5238 1.5984 0.53156 0.51101 0.9312 1.0393 1.2363 1.6344 0.2759 0.53805 0.41657 0.92167 0.5583 1.5225 0.0976 0.41378 0.10279 0.47979 0.10322 1.3128 4.06e-4 0.77609-9e-3 0.92027-0.08194 1.2517-0.54159 2.462-2.3866 4.3013-4.8504 4.8353-0.29579 0.06411-0.51179 0.08126-1.133 0.08996-0.42212 0.0059-0.81682 0.0036-0.87713-0.0052zm1.2466-1.8955c0.10055-0.05011 0.22632-0.13651 0.27949-0.19201 0.12682-0.13237 3.2984-5.6295 3.3705-5.842 0.071-0.20913 0.07026-0.38979-0.0026-0.63859-0.045431-0.15493-0.10392-0.24329-0.2665-0.40252-0.17506-0.17146-0.24664-0.2144-0.44856-0.26905-0.19972-0.054063-0.27213-0.058201-0.42914-0.024528-0.27146 0.058218-0.44864 0.15969-0.62129 0.35583-0.29149 0.33115-0.32567 0.7152-0.10897 1.2244 0.49469 1.1625-0.37237 2.4064-1.6208 2.3252-0.50619-0.03292-0.91228-0.2432-1.1969-0.61974-0.070833-0.093725-0.47917-0.77812-0.90742-1.5209-0.43672-0.75745-0.83793-1.4106-0.91367-1.4874-0.25555-0.25916-0.596-0.3504-0.95978-0.2572-0.60015 0.15375-0.93846 0.74779-0.74702 1.3117 0.07094 0.20895 3.2447 5.7114 3.3738 5.8492 0.26508 0.28308 0.82982 0.37141 1.1989 0.18751z" fill="url(#linearGradient305)" stroke-width=".036547"/>
</svg>
