<svg width="64" height="64" version="1.1" viewBox="0 0 16.933 16.933" xmlns="http://www.w3.org/2000/svg">
 <defs>
  <filter id="filter1178" x="-.047999" y="-.047999" width="1.096" height="1.096" color-interpolation-filters="sRGB">
   <feGaussianBlur stdDeviation="0.30691668"/>
  </filter>
  <linearGradient id="linearGradient1340" x1="8.3017" x2="8.3017" y1="16.007" y2=".92604" gradientUnits="userSpaceOnUse">
   <stop stop-color="#d08770" offset="0"/>
   <stop stop-color="#ebcb8b" offset="1"/>
  </linearGradient>
  <linearGradient id="linearGradient9194" x1="199.49" x2="199.49" y1="-9.0117" y2="36.609" gradientUnits="userSpaceOnUse">
   <stop stop-color="#eceff4" offset="0"/>
   <stop stop-color="#e5e9f0" offset="1"/>
  </linearGradient>
 </defs>
 <g stroke-linecap="round" stroke-linejoin="round">
  <rect transform="matrix(.99138 0 0 1 .072989 .0019055)" x=".79375" y=".90545" width="15.346" height="15.346" rx="3.0526" ry="3.0526" fill="#000000" filter="url(#filter1178)" opacity=".15" stroke-width="1.2489" style="mix-blend-mode:normal"/>
  <rect x=".92604" y=".92604" width="15.081" height="15.081" rx="3" ry="3" fill="url(#linearGradient1340)" stroke-width="1.2274"/>
  <rect x=".01215" y=".0060174" width="16.924" height="16.927" fill="none" opacity=".15" stroke-width="1.052"/>
 </g>
 <g transform="matrix(.91317 0 0 .91317 -39.734 4.9035)">
  <path transform="scale(.26458)" d="m199.49-9.0117c-1.7719 0.00423-2.4853 0.61274-4.4473 6.2832 0.0601 0.034105 0.0478 0.031368 0.13086 0.076172 0.1339 0.072223 0.29565 0.15583 0.48047 0.24609 0.18481 0.090261 0.39215 0.18695 0.61718 0.2832 0.22504 0.09625 0.46809 0.19301 0.72266 0.2832 0.12728 0.045095 0.25796 0.087585 0.39063 0.12891 0.13266 0.041321 0.26759 0.081147 0.40429 0.11719 0.1367 0.036041 0.27466 0.068402 0.41406 0.097656 0.13941 0.029255 0.27915 0.05521 0.41993 0.076172 0.14077 0.020962 0.28302 0.037665 0.42383 0.048828 0.1408 0.011164 0.28042 0.015766 0.41992 0.015625 0.1395-1.412e-4 0.27987-0.00501 0.41992-0.015625 0.14005-0.010614 0.28055-0.027185 0.41992-0.046875s0.27661-0.042945 0.41406-0.070312c0.13745-0.027368 0.27391-0.058149 0.40821-0.091797 0.26859-0.067296 0.53074-0.14644 0.77929-0.23047 0.24856-0.084032 0.4845-0.17213 0.70313-0.26172 0.21862-0.089587 0.41885-0.17971 0.59765-0.26367 0.17881-0.083962 0.33576-0.16331 0.46485-0.23047 0.16271-0.084645 0.18988-0.10276 0.25586-0.14062-1.9447-5.6656-2.6698-6.3089-4.4395-6.3047zm7.0996 14.518c-0.0827 0.083012-0.19908 0.1944-0.35546 0.33203-0.0813 0.07155-0.17279 0.15051-0.27344 0.23242-0.10066 0.081911-0.21046 0.16855-0.33008 0.25781s-0.24853 0.17984-0.38672 0.27344c-0.13819 0.093598-0.28698 0.19023-0.44336 0.28516-0.15638 0.094926-0.32192 0.18801-0.49609 0.28125-0.17418 0.093242-0.35724 0.18489-0.54883 0.27344-0.19159 0.088548-0.391 0.17502-0.59961 0.25586-0.20861 0.080843-0.42515 0.15644-0.65039 0.22656-0.22524 0.070126-0.4597 0.13501-0.70117 0.19141-0.24148 0.056399-0.49072 0.10487-0.74805 0.14453-0.25733 0.039661-0.52213 0.069932-0.79492 0.089844-0.1364 0.00996-0.27387 0.01703-0.41406 0.021484-0.14019 0.00445-0.2838 0.00728-0.42774 0.00586-0.14393-0.00142-0.28503-0.00638-0.42578-0.013672-0.14075-0.00729-0.28048-0.018477-0.41797-0.03125-0.27497-0.025546-0.54329-0.060274-0.80469-0.10547-0.26139-0.045195-0.51652-0.10032-0.76367-0.16211-0.24714-0.061793-0.48654-0.13169-0.71875-0.20703s-0.45723-0.15635-0.67383-0.24219c-0.21659-0.085839-0.42469-0.17624-0.625-0.26953-0.2003-0.093286-0.39284-0.18943-0.57617-0.28711-0.18333-0.097684-0.35775-0.19589-0.52344-0.29492-0.16568-0.099031-0.3214-0.19759-0.46874-0.29492-0.14735-0.097328-0.28573-0.19453-0.41407-0.28711-0.25667-0.18515-0.47383-0.35802-0.65039-0.50586-0.0204-0.017104-0.0276-0.024593-0.0469-0.041016-0.86658 2.7145-1.8751 5.8839-3.1016 9.6934 0.0166 0.01489 0.0321 0.03005 0.0488 0.04492 0.11062 0.09855 0.22467 0.19747 0.33985 0.29492 0.11517 0.09745 0.23176 0.19308 0.35156 0.28906s0.2427 0.19101 0.36719 0.28516c0.12449 0.09414 0.25161 0.18736 0.38086 0.2793 0.12924 0.09194 0.26047 0.18407 0.39453 0.27344s0.27121 0.17725 0.41015 0.26367c0.13895 0.08643 0.27994 0.17079 0.42383 0.25391 0.0719 0.04156 0.1436 0.08238 0.2168 0.12305 0.0732 0.04066 0.1482 0.08137 0.22265 0.12109 0.0745 0.03972 0.1489 0.07846 0.22461 0.11719 0.0757 0.03873 0.15153 0.07754 0.22852 0.11523 0.077 0.0377 0.15611 0.07471 0.23437 0.11133 0.0783 0.03662 0.15678 0.07193 0.23633 0.10742 0.0796 0.03549 0.15938 0.07115 0.24024 0.10547 0.0808 0.03432 0.16198 0.06846 0.24414 0.10156 0.0822 0.0331 0.16457 0.06582 0.24804 0.09766 0.0835 0.03183 0.16912 0.06127 0.25391 0.0918 0.0848 0.03052 0.16974 0.06068 0.25586 0.08984 0.0861 0.02917 0.17231 0.05817 0.25977 0.08594 0.0875 0.02776 0.17682 0.05572 0.26562 0.08203 0.0888 0.02632 0.17742 0.05135 0.26758 0.07617 0.0902 0.02482 0.17996 0.04899 0.27148 0.07227 0.0915 0.02328 0.18446 0.04471 0.27735 0.06641 0.0929 0.02169 0.18698 0.04244 0.28125 0.0625 0.0943 0.02006 0.1895 0.04021 0.28515 0.05859 0.0957 0.01838 0.19202 0.03608 0.28907 0.05273 0.097 0.01666 0.19452 0.03199 0.29296 0.04687 0.0985 0.01489 0.19702 0.0299 0.29688 0.04297 0.0999 0.01307 0.20146 0.02395 0.30273 0.03516 0.10128 0.01121 0.20199 0.02195 0.30469 0.03125s0.20641 0.01805 0.31055 0.02539c0.10413 0.0073 0.20887 0.01224 0.31445 0.01758 0.10558 0.0053 0.21133 0.01038 0.31836 0.01367 0.10703 0.0033 0.21573 0.0066 0.32422 0.0078 0.10848 0.0012 0.21817 9.38e-4 0.32812 0 0.10996-9.37e-4 0.21939-0.0044 0.32813-0.0078s0.2167-0.0078 0.32422-0.01367c0.10752-0.0058 0.21403-0.01331 0.32031-0.02148 0.10628-0.0082 0.21138-0.01691 0.31641-0.02734 0.10502-0.01043 0.2107-0.02255 0.31445-0.03516 0.10375-0.0126 0.20613-0.02436 0.30859-0.03906 0.10247-0.0147 0.20353-0.03212 0.30469-0.04883s0.2029-0.03409 0.30274-0.05273c0.0998-0.01865 0.19837-0.03809 0.29687-0.05859s0.19582-0.04217 0.29297-0.06445c0.0971-0.02228 0.19329-0.04438 0.28906-0.06836 0.0958-0.02398 0.19272-0.04863 0.28711-0.07422 0.0944-0.02559 0.18631-0.05295 0.2793-0.08008 0.093-0.02713 0.18577-0.0554 0.27734-0.08398 0.0916-0.02859 0.1833-0.05793 0.27344-0.08789 0.0901-0.02996 0.17889-0.06053 0.26758-0.0918 0.0887-0.03126 0.17645-0.06322 0.26367-0.0957 0.0872-0.03248 0.17404-0.06403 0.25976-0.09766 0.0857-0.03362 0.17163-0.06883 0.25586-0.10352 0.0842-0.03468 0.16728-0.06981 0.25-0.10547 0.0827-0.03566 0.16491-0.07086 0.2461-0.10742 0.0812-0.03656 0.16059-0.07394 0.24023-0.11133 0.15929-0.07477 0.31576-0.15094 0.46875-0.22852 0.153-0.07757 0.30265-0.15658 0.44922-0.23633 0.14658-0.07974 0.28966-0.16091 0.42969-0.24219s0.27681-0.16392 0.41015-0.24609c0.13336-0.08217 0.26409-0.16366 0.39063-0.24609s0.24953-0.16404 0.36914-0.24609c0.11961-0.08206 0.23512-0.16505 0.34766-0.24609s0.22278-0.16084 0.32812-0.24024c0.10535-0.07939 0.20667-0.15727 0.30469-0.23438 0.098-0.07711 0.19264-0.15433 0.2832-0.22852 0.0349-0.02857 0.0659-0.05592 0.0996-0.08399-1.2327-3.8613-2.2446-7.0723-3.1113-9.8105zm-18.841 14.342h-3.7598c-0.81931 0-1.6736 0.62204-1.9199 1.4141l-4.0742 13.1c-0.38724 1.2449 0.15342 2.2812 1.2246 2.2812h40.562c1.0712 0 1.6118-1.0363 1.2246-2.2812l-4.0762-13.1c-0.24637-0.79202-1.0987-1.4141-1.918-1.4141h-3.8574c0.42283 1.3127 0.84459 2.6222 1.3105 4.0566-0.0132 0.04019-0.0314 0.08372-0.0527 0.12891-0.0215 0.04518-0.0464 0.09281-0.0762 0.14258-0.0299 0.04977-0.0636 0.10034-0.10155 0.1543-0.038 0.05395-0.0808 0.11024-0.12696 0.16797-0.0461 0.05773-0.0962 0.11858-0.15039 0.17969-0.0542 0.06111-0.11157 0.12342-0.17383 0.1875-0.0622 0.06408-0.12903 0.12865-0.19922 0.19531-0.0702 0.06666-0.14461 0.1343-0.22265 0.20313-0.0781 0.06883-0.16022 0.13839-0.24609 0.20899-0.0859 0.07059-0.17594 0.14289-0.26953 0.21484-0.0936 0.07196-0.18973 0.14388-0.29103 0.21679-0.10129 0.07292-0.2075 0.14723-0.31639 0.22071s-0.22148 0.14707-0.33789 0.2207c-0.11642 0.07363-0.23551 0.14732-0.35937 0.2207-0.12389 0.07339-0.25153 0.14601-0.38282 0.21875-0.13126 0.07274-0.26767 0.14511-0.40625 0.2168-0.1386 0.07168-0.27992 0.14266-0.42578 0.21289-0.14585 0.07023-0.29621 0.14062-0.44922 0.20898-0.15304 0.06837-0.3086 0.13506-0.46875 0.20117-0.16014 0.06611-0.32501 0.12991-0.49218 0.19336-0.16721 0.06344-0.33756 0.12712-0.51172 0.1875s-0.35018 0.11887-0.53125 0.17578c-0.18108 0.05691-0.36681 0.11102-0.55469 0.16406s-0.37956 0.10358-0.57422 0.15234c-0.19465 0.04876-0.39239 0.09654-0.59375 0.14062-0.20134 0.04409-0.4053 0.086-0.61328 0.125-0.20799 0.039-0.42023 0.0739-0.63477 0.10742-0.21453 0.03352-0.43132 0.06416-0.65234 0.0918-0.22103 0.02763-0.44639 0.05287-0.67383 0.07422-0.22742 0.02135-0.45762 0.04003-0.6914 0.05469-0.23381 0.01466-0.47088 0.02562-0.71094 0.03318-0.24008 0.0076-0.48225 0.01164-0.72852 0.01172-0.24624 6.5e-5 -0.48985-0.0038-0.73047-0.01172-0.24061-8e-3 -0.47804-0.01965-0.71289-0.03515-0.23483-0.01553-0.46831-0.03594-0.69726-0.05859-0.22897-0.02264-0.45481-0.04883-0.67774-0.07813-0.22292-0.02929-0.44141-0.06021-0.6582-0.0957-0.2168-0.03549-0.43206-0.07399-0.64258-0.11523-0.21052-0.04125-0.41697-0.08626-0.62109-0.13281-0.2041-0.04655-0.40592-0.09509-0.60352-0.14648s-0.39107-0.10632-0.58203-0.16211c-0.19094-0.05579-0.37831-0.11215-0.5625-0.17187-0.18418-0.05972-0.36568-0.12234-0.54297-0.18555-0.1773-0.06321-0.3512-0.12712-0.52148-0.19336-0.17027-0.06624-0.33688-0.1343-0.5-0.20313-0.16313-0.06882-0.32267-0.13999-0.47852-0.21094-0.15583-0.07095-0.3066-0.14222-0.45507-0.21484-0.14846-0.07262-0.29462-0.14491-0.43555-0.21875-0.14094-0.07384-0.27686-0.14805-0.41016-0.22266-0.1333-0.0746-0.26313-0.14969-0.38867-0.22461-0.12552-0.07492-0.2476-0.14984-0.36522-0.22461-0.11766-0.07478-0.23218-0.15042-0.34179-0.22461-0.10961-0.07418-0.21491-0.14757-0.31639-0.2207-0.10149-0.07314-0.19779-0.14516-0.29103-0.2168-0.0932-0.07164-0.18275-0.14321-0.2676-0.21289-0.0848-0.06968-0.16588-0.1378-0.24219-0.20508-0.0763-0.06727-0.14718-0.13285-0.21484-0.19726-0.0677-0.06441-0.13251-0.12835-0.1914-0.18945-0.0589-0.0611-0.1121-0.1204-0.1621-0.17774-0.05-0.05733-0.0957-0.1129-0.13671-0.16602-0.041-0.05311-0.0775-0.1039-0.10938-0.15234-0.0317-0.04844-0.0594-0.09341-0.082-0.13672-0.0227-0.04331-0.0395-0.08336-0.0527-0.1211-0.0132-0.03772-0.0215-0.07377-0.0253-0.10547 0.46988-1.435 0.89585-2.7436 1.3223-4.0566z" fill="url(#linearGradient9194)"/>
 </g>
</svg>
