<svg width="64" height="64" fill="none" version="1.1" viewBox="0 0 64 64" xmlns="http://www.w3.org/2000/svg">
 <rect transform="matrix(3.747 0 0 3.7796 .2749 -.42313)" x=".79375" y=".90545" width="15.346" height="15.346" rx="3.0526" ry="3.0526" fill="#000" filter="url(#filter1178)" opacity=".15" stroke-linecap="round" stroke-linejoin="round" stroke-width="1.2489" style="mix-blend-mode:normal"/>
 <rect x="3.5" y="3.5" width="57" height="57" rx="11.541" ry="11.541" fill="url(#linearGradient1678)" stroke-width="3.847"/>
 <path d="m32.09 53.801c-0.63919-0.30558-1.0962-0.91652-1.4318-1.9145-0.15858-0.47146-0.31054-1.0022-0.33768-1.1795-0.1221-0.79706-0.50947-2.0667-0.77299-2.5333-0.83541-1.4791-2.2551-2.1136-5.0606-2.2617-2.4545-0.12958-3.6147-0.29568-4.56-0.65274-0.86315-0.32604-1.8003-1.1691-2.2539-2.0276-0.4962-0.93907-0.59495-1.2542-1.2462-3.9765-0.11303-0.47267-0.30283-1.1408-0.42166-1.4846-0.76301-2.208-2.5338-4.3926-4.6634-5.753-0.8531-0.54505-1.1877-0.86889-1.2984-1.2566-0.121-0.42383 0.01238-0.75911 0.41725-1.0506 0.23975-0.17259 0.39602-0.20966 0.88373-0.20966 0.51072 0 0.64337 0.0352 0.96108 0.2519 0.46928 0.32076 0.68953 0.60214 1.3836 1.7677 0.30965 0.51997 0.69372 1.0733 0.85348 1.2296l0.29048 0.28424 0.04551-2.749c0.04345-2.6225 0.05431-2.7601 0.23674-2.9915 0.13984-0.17732 0.28354-0.24981 0.53502-0.26983 0.71544-0.0572 1.0665 0.58883 1.2417 2.2839 0.05252 0.50787 0.17233 1.6001 0.26631 2.4273 0.09391 0.8272 0.19692 1.8424 0.22877 2.256 0.0319 0.4136 0.09171 0.75196 0.1331 0.75196 0.07851 0 0.47428-0.46002 0.77625-0.90244 0.1734-0.2541 0.33479-0.61204 0.50339-1.1167 0.14482-0.4334 0.09872-1.6018-0.09075-2.3009-0.27536-1.016-0.03163-1.5242 0.73111-1.5242 0.62549 0 1.0773 0.55946 1.2726 1.5759 0.18051 0.9394-0.06834 2.1082-1.0367 4.8698-0.76464 2.1806-0.81425 2.4141-0.77614 3.6526 0.03108 1.0087 0.04015 1.048 0.4178 1.7936 0.53338 1.0531 1.2012 1.6558 2.5126 2.2672 0.53228 0.24816 1.025 0.45122 1.0948 0.45122 0.0699 0 0.30557 0.0594 0.52377 0.13211 0.58157 0.1936 3.2691 0.51436 3.2691 0.39006 0-0.0297-0.0555-0.13046-0.12348-0.22374-0.24258-0.33319-1.217-2.1549-1.4008-2.6189-0.45709-1.1538-0.52493-1.4814-0.52493-2.5353 0-1.1137 0.0643-1.3914 0.65738-2.8361 0.56346-1.3727 0.76694-1.888 0.79744-2.0197 0.0165-0.0715 0.10436-0.38027 0.1955-0.6875 0.12292-0.41481 0.16537-0.85734 0.16472-1.7189-7.3e-4 -0.98516-0.0385-1.2964-0.24993-2.0626-0.34639-1.2551-1.0925-2.6435-1.881-3.5005-1.1451-1.2446-1.8971-1.7655-3.5833-2.482-2.0916-0.8888-2.5312-1.1336-3.2764-1.8241-0.73657-0.68244-1.0714-1.2851-1.136-2.0443l-0.04524-0.53141 0.51009-0.1001c0.41905-0.0825 0.60785-0.0759 1.0577 0.033 1.0847 0.26224 1.7638 0.68761 3.6297 2.2735 1.3211 1.1228 2.0759 1.5234 3.0356 1.6112 0.57558 0.0528 0.60816 0.0462 0.67151-0.14256 0.10423-0.30998 0.0641-0.90167-0.084-1.236-0.37638-0.85008-1.1061-1.4988-2.4675-2.1937-1.3573-0.69278-1.8336-1.0479-2.3086-1.7207-0.3186-0.45133-0.33231-0.5016-0.33245-1.2182-6.9e-5 -0.62326 0.03149-0.78782 0.19-0.99022 0.47926-0.61193 1.5319-0.71126 2.5389-0.23947 1.2061 0.56507 2.7777 2.3249 3.7903 4.2443 0.78587 1.4896 1.2388 2.8003 1.606 4.6475 0.23516 1.1828 0.23488 5.6852-4.7e-4 7.1762-0.22002 1.3942-0.50059 2.8601-0.71079 3.7139-0.23292 0.946-0.227 1.5626 0.0187 1.9556 0.49933 0.7986 1.201 0.60522 2.5997-0.71643 0.99288-0.9383 1.5024-1.7145 1.9127-2.9141 0.19928-0.58267 0.23584-0.89034 0.29887-2.516 0.0815-2.103 0.18839-2.5057 0.75045-2.8291 0.86307-0.49654 1.6276 0.13838 1.621 1.3461-4e-3 0.83919-0.64662 3.3996-1.2027 4.7962-0.68907 1.7307-1.1607 2.3748-3.0876 4.2169-1.4514 1.3875-1.6576 1.6211-1.9392 2.1962-0.61708 1.2603-0.5085 2.1344 0.36791 2.9614 0.51533 0.48631 1.0829 0.70994 2.0026 0.78914 0.85688 0.0737 1.9782-0.36234 2.6415-1.0272 0.38495-0.38588 0.94117-1.1983 1.283-1.8741 0.99642-1.9695 1.9602-6.1717 2.08-9.0693 0.0293-0.70774 0.0668-1.3277 0.0836-1.3777 0.0877-0.2629-0.16702-2.5027-0.37579-3.3039-0.28449-1.0919-0.38746-1.3604-0.91691-2.3907-0.81244-1.5811-1.8618-2.6391-3.932-3.9643-0.8153-0.52195-0.96263-0.63943-1.7596-1.404-0.77689-0.74514-1.164-1.3912-1.3516-2.2556-0.0619-0.28479-0.0847-0.65681-0.051-0.82676 0.0564-0.28369 0.10161-0.32087 0.55176-0.45452 0.56693-0.1683 0.93981-0.12826 1.6868 0.18106 0.59772 0.2475 1.7636 1.3357 2.0821 1.9434 0.11564 0.22066 0.24462 0.42119 0.28657 0.44572 0.0419 0.0242 0.16548 0.20603 0.27451 0.40337 0.26712 0.48367 0.90469 1.2557 1.3516 1.6366 0.39448 0.33627 0.74886 0.54494 0.74117 0.43626-3e-3 -0.0374-0.43219-0.84095-0.9546-1.7863-0.52239-0.94534-1.1138-2.0283-1.3143-2.4064-0.20045-0.37818-0.48464-0.90024-0.63152-1.1602-0.5733-1.0146-0.74658-1.4201-0.84989-1.9887-0.1353-0.74443 0.0144-1.2185 0.47862-1.5159 0.42883-0.27473 0.68575-0.317 1.1147-0.1834 0.58321 0.18164 0.89455 0.42727 1.1832 0.93346 0.24463 0.42904 0.36719 0.77136 0.9094 2.5398 0.10148 0.33088 0.26197 0.83666 0.35669 1.1239 0.0947 0.28732 0.18938 0.60643 0.21037 0.70917 0.0209 0.1023 0.12815 0.46717 0.2382 0.80971 0.2213 0.68893 0.41174 1.3074 0.72106 2.3418 0.11302 0.37818 0.27941 0.9196 0.36964 1.2032 0.0902 0.28358 0.19076 0.64163 0.22337 0.79574 0.0734 0.34672 0.14932 0.30701 0.41044-0.2145 0.64235-1.283 1.0903-3.1819 1.0909-4.625 3.4e-4 -0.77462-0.31154-2.6922-0.58263-3.5823-0.46769-1.5356-0.51994-2.2108-0.22806-2.947 0.23081-0.58213 0.65097-0.99977 1.1469-1.14 0.47416-0.13406 0.58426-0.13132 1.1674 0.0286 0.84251 0.23114 1.6204 1.0507 1.8188 1.9164 0.14639 0.63865 0.0632 2.0359-0.17581 2.9543-0.22602 0.86834-0.73578 2.407-1.147 3.462-0.11055 0.28358-0.32169 0.825-0.4692 1.2032-0.14751 0.37818-0.33179 0.88088-0.40949 1.1173-0.0777 0.23639-0.17343 0.46838-0.21271 0.51568-0.0393 0.0473-0.13462 0.29865-0.21197 0.55858-0.0773 0.26004-0.24455 0.82071-0.37168 1.2462-0.36969 1.237-0.61543 2.8062-0.61242 3.9104 3e-3 1.038 0.23733 2.4118 0.52041 3.0491l0.15187 0.34188 0.17793-0.42779c0.0979-0.23529 0.23323-0.58256 0.30084-0.77165 1.053-2.9449 1.4706-3.9036 1.7932-4.1168 0.64957-0.42933 1.5336 0.20977 1.4009 1.0127-0.0322 0.1947-0.50893 1.6109-1.0594 3.1471-0.55052 1.5362-1.0383 2.9092-1.084 3.051-0.14278 0.44319-0.45871 1.2814-0.55067 1.461-0.0484 0.0946-0.1467 0.34595-0.21848 0.55858-0.0718 0.21274-0.23788 0.65747-0.36911 0.98835-0.13117 0.33088-0.33342 0.85294-0.44931 1.1602-0.66955 1.775-0.88423 2.3377-1.0984 2.8791-0.1309 0.33088-0.37733 0.96899-0.54765 1.4181-0.34147 0.90024-0.44548 1.168-1.1851 3.051-0.2785 0.70906-0.52214 1.3472-0.54143 1.4181-0.0192 0.0715-0.10038 0.2739-0.18027 0.45122-0.0799 0.17721-0.12306 0.3223-0.096 0.3223 0.0271 0 1.0114-0.82181 2.1872-1.8263 1.1759-1.0044 2.9472-2.516 3.9364-3.359 0.98917-0.84293 2.3826-2.0668 3.0966-2.7196 1.1118-1.0166 1.3399-1.2712 1.5895-1.7746 0.55574-1.1207 0.45265-2.1055-0.37668-3.5987-0.2888-0.51997-0.79472-1.4288-1.1243-2.0197-0.76589-1.3731-0.96545-2.1516-0.75258-2.9357 0.0763-0.28105 0.21074-0.60445 0.29877-0.71852 0.35517-0.46057 1.2818-0.62194 1.7824-0.31042 0.82376 0.51249 1.9573 3.2555 2.2244 5.3828l0.0755 0.60159 1.1971-2.2368c0.76188-1.4236 1.3341-2.3838 1.5741-2.641 0.65809-0.70554 1.4863-0.76417 2.1062-0.14927 0.45247 0.44891 0.58865 0.99011 0.43526 1.7301-0.13406 0.64647-0.71534 1.9478-1.2667 2.8355-0.21636 0.34837-0.51125 0.82676-0.65531 1.0632-0.14407 0.23639-0.42247 0.66176-0.61868 0.94534-0.19622 0.28358-0.48578 0.70906-0.64347 0.94534-0.48658 0.7293-2.1412 2.9362-2.674 3.5666-0.21972 0.25993-0.38528 0.48653-0.3679 0.50358 0.0175 0.0165 0.14786-0.0473 0.28991-0.14267 1.0895-0.73205 2.2447-1.0219 3.1388-0.7876 0.51623 0.1353 1.1432 0.73271 1.2738 1.2138 0.0995 0.36674 0.0901 0.43439-0.1133 0.80718-0.17521 0.32131-0.32726 0.45881-0.72245 0.65318-0.44996 0.22132-0.66162 0.25916-2.0944 0.37389-1.9612 0.15708-2.4651 0.23419-3.4053 0.52085-2.3511 0.71687-4.5248 2.198-5.8218 3.9668-0.28482 0.38841-0.51786 0.72292-0.51786 0.74327 0 0.0209-0.15903 0.28402-0.35342 0.58586-0.19437 0.30195-0.56664 0.93434-0.82725 1.4054-0.90765 1.6404-1.4296 2.3997-2.3375 3.4003-1.5612 1.7205-2.9762 2.328-4.1337 1.7748z" fill="url(#linearGradient1731)" stroke-width=".088471"/>
 <defs>
  <linearGradient id="linearGradient1731" x1="124.17" x2="116.79" y1="42.367" y2="23.523" gradientTransform="translate(-77.391,6.8773)" gradientUnits="userSpaceOnUse">
   <stop stop-color="#81a1c1" offset="0"/>
   <stop stop-color="#88c0d0" offset="1"/>
  </linearGradient>
  <linearGradient id="linearGradient1678" x1="92.857" x2="92.857" y1="5.6767" y2="82.037" gradientTransform="matrix(1.0178 0 0 1.0178 -63.894 -2.2009)" gradientUnits="userSpaceOnUse">
   <stop stop-color="#2e3440" offset="0"/>
   <stop stop-color="#5e81ac" offset="1"/>
  </linearGradient>
  <filter id="filter1178" x="-.048" y="-.048" width="1.096" height="1.096" color-interpolation-filters="sRGB">
   <feGaussianBlur stdDeviation="0.30692287"/>
  </filter>
 </defs>
</svg>
