<?xml version="1.0" encoding="UTF-8" standalone="no"?>
<svg
   width="64"
   height="64"
   fill="none"
   version="1.1"
   viewBox="0 0 64 64"
   id="svg55"
   xmlns:xlink="http://www.w3.org/1999/xlink"
   xmlns="http://www.w3.org/2000/svg"
   xmlns:svg="http://www.w3.org/2000/svg">
  <g
     transform="translate(0 .0079719)"
     id="g20">
    <path
       d="m47.418 3.9172h-30.837c-7.3821 0-13.367 5.9844-13.367 13.367v30.837c0 7.3821 5.9844 13.367 13.367 13.367h30.837c7.3821 0 13.367-5.9844 13.367-13.367v-30.837c0-7.3821-5.9844-13.367-13.367-13.367z"
       fill="#2e3440"
       filter="url(#filter1969)"
       opacity=".29284"
       stroke-width="1.028"
       id="path2" />
    <path
       d="m47.266 3.5h-30.532c-7.309 0-13.234 5.9251-13.234 13.234v30.532c0 7.309 5.9251 13.234 13.234 13.234h30.532c7.309 0 13.234-5.9252 13.234-13.234v-30.532c0-7.309-5.9252-13.234-13.234-13.234z"
       fill="url(#linearGradient3657)"
       stroke-width="1.0179"
       id="path4" />
    <path
       style="fill:url(#linearGradient1731);fill-opacity:1;stroke-width:0.0884714;opacity:1"
       d="m 32.089512,53.793249 c -0.63919,-0.305581 -1.09616,-0.916522 -1.43181,-1.914477 -0.15858,-0.471461 -0.31054,-1.002212 -0.33768,-1.179467 -0.1221,-0.797061 -0.50947,-2.066728 -0.77299,-2.533261 -0.83541,-1.479096 -2.25513,-2.113621 -5.06057,-2.261748 -2.454494,-0.12958 -3.614673,-0.29568 -4.559965,-0.652741 -0.863149,-0.326041 -1.800315,-1.169148 -2.253917,-2.027645 -0.4962,-0.939072 -0.594954,-1.254212 -1.246227,-3.976509 -0.113026,-0.472671 -0.302833,-1.140779 -0.421661,-1.484618 -0.763007,-2.208012 -2.533842,-4.392617 -4.663389,-5.753045 -0.853098,-0.545051 -1.18772,-0.868892 -1.298368,-1.25662 -0.1210008,-0.423831 0.01238,-0.759112 0.417247,-1.050613 0.239747,-0.17259 0.396017,-0.20966 0.883733,-0.20966 0.51072,0 0.643368,0.0352 0.961078,0.2519 0.469277,0.320761 0.689526,0.602142 1.383617,1.767704 0.309653,0.519971 0.693721,1.073272 0.853483,1.229638 l 0.290485,0.28424 0.04551,-2.749004 c 0.04345,-2.622516 0.05431,-2.760148 0.236735,-2.991457 0.139839,-0.17732 0.283541,-0.24981 0.535017,-0.26983 0.715445,-0.0572 1.066472,0.588831 1.24169,2.283901 0.05252,0.507872 0.172329,1.600119 0.266312,2.427321 0.09391,0.827201 0.196915,1.842404 0.228774,2.256005 0.0319,0.413601 0.09171,0.751962 0.133101,0.751962 0.07851,0 0.474282,-0.460021 0.776248,-0.902442 0.173403,-0.254101 0.334788,-0.612041 0.503392,-1.1167 0.144816,-0.433401 0.09872,-1.601769 -0.09075,-2.300875 -0.275359,-1.015962 -0.03163,-1.524163 0.731107,-1.524163 0.625492,0 1.077307,0.559461 1.272626,1.57594 0.180512,0.939402 -0.06834,2.108242 -1.036688,4.869798 -0.764644,2.180612 -0.814254,2.414054 -0.776139,3.652591 0.03108,1.008702 0.04015,1.047972 0.417797,1.79362 0.53338,1.053142 1.201196,1.655778 2.512612,2.267192 0.53228,0.248161 1.02496,0.451221 1.09484,0.451221 0.0699,0 0.30557,0.0594 0.52377,0.132111 0.58157,0.1936 3.26914,0.514361 3.26914,0.39006 0,-0.0297 -0.0555,-0.13046 -0.12348,-0.22374 -0.24258,-0.333191 -1.21698,-2.154872 -1.40081,-2.618908 -0.45709,-1.153759 -0.52493,-1.481439 -0.52493,-2.535329 0,-1.113719 0.0643,-1.391393 0.65738,-2.836125 0.56346,-1.372704 0.76694,-1.888022 0.79744,-2.019659 0.0165,-0.0715 0.10436,-0.380271 0.1955,-0.687502 0.12292,-0.41481 0.16537,-0.857341 0.16472,-1.718874 -7.3e-4,-0.985162 -0.0385,-1.296441 -0.24993,-2.062636 -0.34639,-1.255081 -1.09249,-2.643548 -1.88101,-3.500538 -1.1451,-1.244553 -1.897148,-1.76546 -3.58331,-2.481979 -2.091638,-0.888802 -2.531216,-1.133552 -3.276402,-1.824057 -0.736566,-0.682441 -1.071409,-1.285078 -1.135993,-2.04431 l -0.04524,-0.531411 0.510088,-0.100101 c 0.419048,-0.0825 0.60785,-0.0759 1.057713,0.033 1.084704,0.26224 1.763795,0.687611 3.629725,2.273451 1.321069,1.122784 2.075899,1.523405 3.035629,1.611185 0.57558,0.0528 0.60816,0.0462 0.67151,-0.142561 0.10423,-0.30998 0.0641,-0.901672 -0.084,-1.236017 -0.37638,-0.850082 -1.10613,-1.498819 -2.46751,-2.193746 -1.357276,-0.692781 -1.833634,-1.047862 -2.308563,-1.7207 -0.318603,-0.451331 -0.332312,-0.501602 -0.332449,-1.218242 -6.9e-5,-0.623261 0.03149,-0.787822 0.189998,-0.990222 0.47926,-0.611931 1.531913,-0.711262 2.538934,-0.239471 1.20613,0.565072 2.77771,2.324855 3.79034,4.244304 0.78587,1.489645 1.23878,2.800287 1.60602,4.647499 0.23516,1.182778 0.23488,5.68523 -4.7e-4,7.17625 -0.22002,1.394165 -0.50059,2.860149 -0.71079,3.713949 -0.23292,0.946002 -0.227,1.562597 0.0187,1.955628 0.49933,0.798602 1.20104,0.605221 2.59972,-0.716431 0.99288,-0.938302 1.50237,-1.714508 1.91268,-2.914148 0.19928,-0.582672 0.23584,-0.890342 0.29887,-2.516047 0.0815,-2.102984 0.18839,-2.505728 0.75045,-2.829096 0.86307,-0.496541 1.62759,0.138381 1.62097,1.346073 -0.004,0.839192 -0.64662,3.399612 -1.20268,4.796241 -0.68907,1.730722 -1.16067,2.374828 -3.08757,4.216881 -1.4514,1.387521 -1.65764,1.621073 -1.9392,2.196155 -0.61708,1.260327 -0.5085,2.134367 0.36791,2.961393 0.51533,0.486311 1.08287,0.709941 2.00256,0.789142 0.85688,0.0737 1.97816,-0.362341 2.64148,-1.027183 0.38495,-0.38588 0.94117,-1.19832 1.28305,-1.874074 0.99642,-1.969477 1.9602,-6.171728 2.08003,-9.069299 0.0293,-0.707741 0.0668,-1.327746 0.0836,-1.377698 0.0877,-0.2629 -0.16702,-2.50267 -0.37579,-3.303922 -0.28449,-1.091863 -0.38746,-1.360351 -0.91691,-2.390702 -0.81244,-1.581066 -1.86185,-2.639103 -3.93198,-3.964298 -0.8153,-0.521951 -0.96263,-0.639431 -1.75965,-1.403955 -0.77689,-0.745141 -1.16403,-1.391228 -1.35164,-2.255566 -0.0619,-0.28479 -0.0847,-0.656811 -0.051,-0.826761 0.0564,-0.283691 0.10161,-0.320871 0.55176,-0.454521 0.56693,-0.168301 0.93981,-0.128261 1.68682,0.18106 0.59772,0.247501 1.76363,1.335733 2.08211,1.943396 0.11564,0.220661 0.24462,0.421191 0.28657,0.445721 0.0419,0.0242 0.16548,0.206031 0.27451,0.403371 0.26712,0.483671 0.90469,1.255653 1.35155,1.636627 0.39448,0.336271 0.74886,0.544942 0.74117,0.436261 -0.003,-0.0374 -0.43219,-0.840951 -0.9546,-1.786348 -0.52239,-0.945342 -1.11381,-2.028251 -1.31427,-2.406409 -0.20045,-0.378181 -0.48464,-0.900242 -0.63152,-1.160228 -0.5733,-1.014642 -0.74658,-1.420147 -0.84989,-1.988749 -0.1353,-0.744427 0.0144,-1.218501 0.47862,-1.515914 0.42883,-0.274726 0.68575,-0.316999 1.11474,-0.183404 0.58321,0.181644 0.89455,0.427274 1.18317,0.933462 0.24463,0.429045 0.36719,0.771355 0.9094,2.539753 0.10148,0.33088 0.26197,0.836661 0.35669,1.123949 0.0947,0.287321 0.18938,0.606431 0.21037,0.709172 0.0209,0.1023 0.12815,0.467171 0.2382,0.809711 0.2213,0.688932 0.41174,1.307408 0.72106,2.341795 0.11302,0.378181 0.27941,0.919602 0.36964,1.203194 0.0902,0.28358 0.19076,0.641631 0.22337,0.795741 0.0734,0.346721 0.14932,0.307011 0.41044,-0.2145 0.64235,-1.282977 1.09026,-3.181933 1.09091,-4.624982 3.4e-4,-0.774621 -0.31154,-2.692178 -0.58263,-3.582311 -0.46769,-1.535597 -0.51994,-2.210833 -0.22806,-2.94701 0.23081,-0.582132 0.65097,-0.99977 1.14688,-1.139975 0.47416,-0.1340576 0.58426,-0.1313186 1.16745,0.0286 0.84251,0.231143 1.62037,1.050722 1.81878,1.91637 0.14639,0.63865 0.0632,2.035914 -0.17581,2.9543 -0.22602,0.868342 -0.73578,2.406959 -1.147,3.461983 -0.11055,0.28358 -0.32169,0.825001 -0.4692,1.203193 -0.14751,0.378181 -0.33179,0.880882 -0.40949,1.117273 -0.0777,0.23639 -0.17343,0.46838 -0.21271,0.515681 -0.0393,0.0473 -0.13462,0.29865 -0.21197,0.558581 -0.0773,0.26004 -0.24455,0.820712 -0.37168,1.246181 -0.36969,1.237041 -0.61543,2.806183 -0.61242,3.91041 0.003,1.037962 0.23733,2.411832 0.52041,3.049096 l 0.15187,0.341881 0.17793,-0.427791 c 0.0979,-0.235291 0.23323,-0.582561 0.30084,-0.771652 1.05304,-2.944937 1.47062,-3.903622 1.79315,-4.116824 0.64957,-0.429331 1.53365,0.20977 1.40093,1.012662 -0.0322,0.1947 -0.50893,1.610854 -1.05945,3.147095 -0.55052,1.536242 -1.03833,2.909176 -1.08403,3.050978 -0.14278,0.443191 -0.45871,1.281381 -0.55067,1.461045 -0.0484,0.0946 -0.1467,0.345951 -0.21848,0.558581 -0.0718,0.21274 -0.23788,0.657471 -0.36911,0.988352 -0.13117,0.330881 -0.33342,0.852942 -0.44931,1.160228 -0.66955,1.774963 -0.88423,2.33768 -1.0984,2.879091 -0.1309,0.33088 -0.37733,0.968992 -0.54765,1.418068 -0.34147,0.900241 -0.44548,1.168026 -1.1851,3.050988 -0.2785,0.709061 -0.52214,1.347151 -0.54143,1.418068 -0.0192,0.0715 -0.10038,0.273901 -0.18027,0.451221 -0.0799,0.17721 -0.12306,0.322301 -0.096,0.322301 0.0271,0 1.01136,-0.821812 2.18723,-1.826301 1.17586,-1.004412 2.94725,-2.516014 3.93644,-3.359 0.98917,-0.842932 2.38263,-2.066828 3.09659,-2.719613 1.11182,-1.016622 1.33991,-1.27124 1.58951,-1.774601 0.55574,-1.120671 0.45265,-2.105481 -0.37668,-3.598701 -0.2888,-0.519971 -0.79472,-1.428815 -1.12428,-2.019693 -0.76589,-1.373121 -0.96545,-2.151582 -0.75258,-2.935664 0.0763,-0.28105 0.21074,-0.604451 0.29877,-0.718521 0.35517,-0.460571 1.28184,-0.621942 1.78244,-0.310421 0.82376,0.512491 1.95726,3.255523 2.22437,5.382751 l 0.0755,0.601592 1.19707,-2.236822 c 0.76188,-1.423634 1.33413,-2.38376 1.57413,-2.64104 0.65809,-0.705541 1.48629,-0.764171 2.10621,-0.14927 0.45247,0.448911 0.58865,0.990112 0.43526,1.730062 -0.13406,0.646471 -0.71534,1.947763 -1.26667,2.835531 -0.21636,0.34837 -0.51125,0.826761 -0.65531,1.063152 -0.14407,0.23639 -0.42247,0.661761 -0.61868,0.945342 -0.19622,0.283581 -0.48578,0.709061 -0.64347,0.945342 -0.48658,0.729301 -2.14125,2.936247 -2.67405,3.566647 -0.21972,0.259931 -0.38528,0.486531 -0.3679,0.503581 0.0175,0.0165 0.14786,-0.0473 0.28991,-0.14267 1.08949,-0.732051 2.24469,-1.021902 3.13885,-0.787602 0.51623,0.135301 1.14317,0.732712 1.27379,1.213765 0.0995,0.366741 0.0901,0.434391 -0.1133,0.807182 -0.17521,0.32131 -0.32726,0.458811 -0.72245,0.653181 -0.44996,0.221321 -0.66162,0.259161 -2.09435,0.373891 -1.96119,0.15708 -2.46508,0.23419 -3.40527,0.520851 -2.35106,0.716872 -4.52483,2.197992 -5.82182,3.96685 -0.28482,0.388411 -0.51786,0.722922 -0.51786,0.743272 0,0.0209 -0.15903,0.284021 -0.35342,0.585861 -0.19437,0.301951 -0.56664,0.934342 -0.82725,1.405363 -0.90765,1.640445 -1.42962,2.399732 -2.3375,3.400283 -1.56123,1.720547 -2.9762,2.328045 -4.13372,1.774766 z"
       id="path12-3" />
  </g>
  <defs
     id="defs53">
    <linearGradient
       id="paint3_linear_24_14"
       x1="41.178"
       x2="37.74"
       y1="45.254"
       y2="45.254"
       gradientUnits="userSpaceOnUse">
      <stop
         stop-color="#2E3440"
         offset="0"
         id="stop22" />
      <stop
         stop-color="#4C566A"
         stop-opacity="0"
         offset="1"
         id="stop24" />
    </linearGradient>
    <linearGradient
       id="paint4_linear_24_14"
       x1="41.178001"
       x2="37.740002"
       y1="36.68"
       y2="36.68"
       gradientUnits="userSpaceOnUse"
       spreadMethod="pad">
      <stop
         stop-color="#2E3440"
         offset="0"
         id="stop27" />
      <stop
         stop-color="#4C566A"
         stop-opacity="0"
         offset="1"
         id="stop29" />
    </linearGradient>
    <linearGradient
       id="linearGradient2775"
       x1="40.764"
       x2="15.253"
       y1="17.011"
       y2="40.03"
       gradientUnits="userSpaceOnUse">
      <stop
         stop-color="#81a1c1"
         offset="0"
         id="stop32" />
      <stop
         stop-color="#88c0d0"
         offset="1"
         id="stop34" />
    </linearGradient>
    <linearGradient
       id="linearGradient3085"
       x1="40.79"
       x2="15.559"
       y1="45.39"
       y2="23.659"
       gradientUnits="userSpaceOnUse">
      <stop
         stop-color="#81a1c1"
         offset="0"
         id="stop37" />
      <stop
         stop-color="#88c0d0"
         offset="1"
         id="stop39" />
    </linearGradient>
    <linearGradient
       id="linearGradient3657"
       x1="31.26"
       x2="31"
       y1="4.4378"
       y2="89.188"
       gradientTransform="matrix(1.0179 0 0 1.0179 -.57143 -.57143)"
       gradientUnits="userSpaceOnUse">
      <stop
         stop-color="#2e3440"
         offset="0"
         id="stop42" />
      <stop
         stop-color="#5e81ac"
         offset="1"
         id="stop44" />
    </linearGradient>
    <filter
       id="filter4207"
       x="-0.043370366"
       y="-0.043039534"
       width="1.0867407"
       height="1.0860791"
       color-interpolation-filters="sRGB">
      <feGaussianBlur
         stdDeviation="0.4738128"
         id="feGaussianBlur47" />
    </filter>
    <filter
       id="filter1969"
       x="-0.030030466"
       y="-0.030030466"
       width="1.0600609"
       height="1.0600609"
       color-interpolation-filters="sRGB">
      <feGaussianBlur
         stdDeviation="0.72036831"
         id="feGaussianBlur50" />
    </filter>
    <linearGradient
       xlink:href="#linearGradient3085"
       id="linearGradient1731"
       x1="124.16661"
       y1="42.366581"
       x2="116.78777"
       y2="23.522511"
       gradientUnits="userSpaceOnUse"
       gradientTransform="translate(-77.391148,6.8693218)" />
  </defs>
</svg>
