<svg width="64" height="64" version="1.1" viewBox="0 0 16.933 16.933" xmlns="http://www.w3.org/2000/svg">
 <defs>
  <filter id="filter1178" x="-.048" y="-.048" width="1.096" height="1.096" color-interpolation-filters="sRGB">
   <feGaussianBlur stdDeviation="0.30691955"/>
  </filter>
  <linearGradient id="linearGradient1340" x1="8.5011" x2="8.572" y1="16.007" y2="-.98774" gradientUnits="userSpaceOnUse">
   <stop stop-color="#ad85a5" offset="0"/>
   <stop stop-color="#5e81ac" offset="1"/>
  </linearGradient>
  <filter id="filter868" x="-.072426" y="-.077764" width="1.1449" height="1.1555" color-interpolation-filters="sRGB">
   <feGaussianBlur stdDeviation="0.325765"/>
  </filter>
  <linearGradient id="linearGradient896" x1="8.8988" x2="8.7245" y1="13.47" y2="3.4771" gradientTransform="translate(0)" gradientUnits="userSpaceOnUse">
   <stop stop-color="#eceff4" offset="0"/>
   <stop stop-color="#d8dee9" offset="1"/>
  </linearGradient>
 </defs>
 <g stroke-linecap="round" stroke-linejoin="round">
  <rect transform="matrix(.99138 0 0 1 .072989 .0019055)" x=".79375" y=".90545" width="15.346" height="15.346" rx="3.0526" ry="3.0526" fill="#000000" filter="url(#filter1178)" opacity=".15" stroke-width="1.2489" style="mix-blend-mode:normal"/>
  <rect x=".92604" y=".92604" width="15.081" height="15.081" rx="3" ry="3" fill="url(#linearGradient1340)" stroke-width="1.2274"/>
  <rect x=".01215" y=".0060174" width="16.924" height="16.927" fill="none" opacity=".15" stroke-width="1.052"/>
 </g>
 <path d="m12.806 3.4395a1.0583 1.0583 0 0 0-1.0583 1.0583 1.0583 1.0583 0 0 0 0.04961 0.31832l-1.8169 1.9926a2.1166 2.1166 0 0 0-0.87848-0.1943 2.1166 2.1166 0 0 0-2.1146 2.0474l-2.5683 0.36586c-0.14319-0.18254-0.36227-0.28922-0.59427-0.28938-0.41755 2.445e-4 -0.75582 0.33898-0.75549 0.75653 2.442e-4 0.41715 0.33835 0.75525 0.75549 0.7555 0.30823-1.69e-4 0.58549-0.18746 0.70072-0.47335l2.5734-0.36793a2.1166 2.1166 0 0 0 2.0029 1.4386 2.1166 2.1166 0 0 0 2.1166-2.1166 2.1166 2.1166 0 0 0-0.37-1.1947l1.8148-1.9916a1.0583 1.0583 0 0 0 0.14262 0.011368 1.0583 1.0583 0 0 0 1.0583-1.0583 1.0583 1.0583 0 0 0-1.0583-1.0583zm-6.0853 0.52916a0.79373 0.79373 0 0 0-0.79373 0.79373 0.79373 0.79373 0 0 0 0.79373 0.79373 0.79373 0.79373 0 0 0 0.79373-0.79373 0.79373 0.79373 0 0 0-0.79373-0.79373zm6.0853 0a0.52916 0.52916 0 0 1 0.52916 0.52916 0.52916 0.52916 0 0 1-0.52916 0.52916 0.52916 0.52916 0 0 1-0.52916-0.52916 0.52916 0.52916 0 0 1 0.52916-0.52916zm-5.366 1.4665-0.3917 0.28835 0.26251 0.37516 0.3917-0.28938zm0.3917 0.56016-0.39067 0.28938 0.34416 0.49298 0.3917-0.28938zm1.2702 1.6774a1.0583 1.0583 0 0 1 1.0583 1.0583 1.0583 1.0583 0 0 1-1.0583 1.0583 1.0583 1.0583 0 0 1-1.0583-1.0583 1.0583 1.0583 0 0 1 1.0583-1.0583zm-5.2771 1.4438c0.20898-1.635e-4 0.37843 0.16929 0.37826 0.37826 1.635e-4 0.20898-0.16929 0.37843-0.37826 0.37826-0.20857-3.97e-4 -0.37739-0.16969-0.37723-0.37826-1.63e-4 -0.20857 0.16866-0.37786 0.37723-0.37826zm7.1116 0.99217-0.36896 0.36896 0.47645 0.47852 0.37103-0.37103zm0.65008 0.64904-0.37 0.37 0.55293 0.55189 0.36896-0.36896zm-3.4147 0.05684-0.32969 0.82371 0.47335 0.16536 0.32866-0.82267zm4.502 0.56223a0.92602 0.92602 0 0 0-0.92602 0.92602 0.92602 0.92602 0 0 0 0.92602 0.92602 0.92602 0.92602 0 0 0 0.92602-0.92602 0.92602 0.92602 0 0 0-0.92602-0.92602zm-4.8947 0.52916a0.79373 0.79373 0 0 0-0.79374 0.79373 0.79373 0.79373 0 0 0 0.79374 0.79374 0.79373 0.79373 0 0 0 0.79373-0.79374 0.79373 0.79373 0 0 0-0.79373-0.79373z" fill="#2e3440" filter="url(#filter868)" opacity=".4" stroke-width=".26458"/>
 <path d="m12.806 3.4395a1.0583 1.0583 0 0 0-1.0583 1.0583 1.0583 1.0583 0 0 0 0.04961 0.31832l-1.8169 1.9926a2.1166 2.1166 0 0 0-0.87848-0.1943 2.1166 2.1166 0 0 0-2.1146 2.0474l-2.5683 0.36586c-0.14319-0.18254-0.36227-0.28922-0.59427-0.28938-0.41755 2.445e-4 -0.75582 0.33898-0.7555 0.75653 2.44e-4 0.41715 0.33835 0.75525 0.7555 0.75549 0.30823-1.68e-4 0.58549-0.18746 0.70072-0.47335l2.5734-0.36793a2.1166 2.1166 0 0 0 2.0029 1.4386 2.1166 2.1166 0 0 0 2.1166-2.1166 2.1166 2.1166 0 0 0-0.37-1.1947l1.8148-1.9916a1.0583 1.0583 0 0 0 0.14262 0.011369 1.0583 1.0583 0 0 0 1.0583-1.0583 1.0583 1.0583 0 0 0-1.0583-1.0583zm-6.0853 0.52916a0.79373 0.79373 0 0 0-0.79373 0.79373 0.79373 0.79373 0 0 0 0.79373 0.79373 0.79373 0.79373 0 0 0 0.79374-0.79373 0.79373 0.79373 0 0 0-0.79374-0.79373zm6.0853 0a0.52916 0.52916 0 0 1 0.52916 0.52916 0.52916 0.52916 0 0 1-0.52916 0.52916 0.52916 0.52916 0 0 1-0.52916-0.52916 0.52916 0.52916 0 0 1 0.52916-0.52916zm-5.366 1.4665-0.3917 0.28835 0.26251 0.37516 0.3917-0.28938zm0.3917 0.56016-0.39067 0.28938 0.34416 0.49298 0.3917-0.28938zm1.2702 1.6774a1.0583 1.0583 0 0 1 1.0583 1.0583 1.0583 1.0583 0 0 1-1.0583 1.0583 1.0583 1.0583 0 0 1-1.0583-1.0583 1.0583 1.0583 0 0 1 1.0583-1.0583zm-5.2771 1.4438c0.20898-1.635e-4 0.37843 0.16929 0.37826 0.37826 1.64e-4 0.20898-0.16929 0.37843-0.37826 0.37826-0.20857-3.969e-4 -0.37739-0.16969-0.37723-0.37826-1.63e-4 -0.20857 0.16866-0.37786 0.37723-0.37826zm7.1116 0.99217-0.36896 0.36896 0.47645 0.47851 0.37103-0.37103zm0.65008 0.64904-0.37 0.37 0.55293 0.55189 0.36896-0.36896zm-3.4147 0.05684-0.32969 0.82371 0.47335 0.16536 0.32866-0.82267zm4.502 0.56223a0.92602 0.92602 0 0 0-0.92602 0.92602 0.92602 0.92602 0 0 0 0.92602 0.92602 0.92602 0.92602 0 0 0 0.92602-0.92602 0.92602 0.92602 0 0 0-0.92602-0.92602zm-4.8947 0.52916a0.79373 0.79373 0 0 0-0.79374 0.79374 0.79373 0.79373 0 0 0 0.79374 0.79373 0.79373 0.79373 0 0 0 0.79373-0.79373 0.79373 0.79373 0 0 0-0.79373-0.79374z" fill="url(#linearGradient896)" stroke-width=".26458"/>
</svg>
