<?xml version="1.0" encoding="UTF-8" standalone="no"?>
<svg
   width="64"
   height="64"
   version="1.1"
   viewBox="0 0 16.933 16.933"
   id="svg20"
   sodipodi:docname="warpinator.svg"
   inkscape:version="1.1.2 (1:1.1+202202050950+0a00cf5339)"
   xmlns:inkscape="http://www.inkscape.org/namespaces/inkscape"
   xmlns:sodipodi="http://sodipodi.sourceforge.net/DTD/sodipodi-0.dtd"
   xmlns:xlink="http://www.w3.org/1999/xlink"
   xmlns="http://www.w3.org/2000/svg"
   xmlns:svg="http://www.w3.org/2000/svg">
  <sodipodi:namedview
     id="namedview22"
     pagecolor="#505050"
     bordercolor="#eeeeee"
     borderopacity="1"
     inkscape:pageshadow="0"
     inkscape:pageopacity="0"
     inkscape:pagecheckerboard="0"
     showgrid="false"
     inkscape:zoom="12.984375"
     inkscape:cx="32"
     inkscape:cy="31.961492"
     inkscape:window-width="2560"
     inkscape:window-height="1358"
     inkscape:window-x="0"
     inkscape:window-y="0"
     inkscape:window-maximized="1"
     inkscape:current-layer="svg20" />
  <defs
     id="defs10">
    <linearGradient
       inkscape:collect="always"
       id="linearGradient894">
      <stop
         style="stop-color:#eceff4;stop-opacity:1"
         offset="0"
         id="stop892" />
      <stop
         style="stop-color:#d8dee9;stop-opacity:1"
         offset="1"
         id="stop890" />
    </linearGradient>
    <filter
       id="filter1178"
       x="-0.04799993"
       y="-0.04799993"
       width="1.0959999"
       height="1.0959999"
       color-interpolation-filters="sRGB">
      <feGaussianBlur
         stdDeviation="0.30691955"
         id="feGaussianBlur2" />
    </filter>
    <linearGradient
       id="linearGradient1340"
       x1="8.5011"
       x2="8.572"
       y1="16.007"
       y2="-.98774"
       gradientUnits="userSpaceOnUse">
      <stop
         stop-color="#b48ead"
         offset="0"
         id="stop5"
         style="stop-color:#ad85a5;stop-opacity:1" />
      <stop
         stop-color="#5e81ac"
         offset="1"
         id="stop7" />
    </linearGradient>
    <filter
       inkscape:collect="always"
       style="color-interpolation-filters:sRGB"
       id="filter868"
       x="-0.072425796"
       y="-0.077763944"
       width="1.1448516"
       height="1.1555279">
      <feGaussianBlur
         inkscape:collect="always"
         stdDeviation="0.325765"
         id="feGaussianBlur870" />
    </filter>
    <linearGradient
       inkscape:collect="always"
       xlink:href="#linearGradient894"
       id="linearGradient896"
       x1="8.8987951"
       y1="13.470018"
       x2="8.7245274"
       y2="3.4770656"
       gradientUnits="userSpaceOnUse"
       gradientTransform="translate(0)" />
  </defs>
  <g
     stroke-linecap="round"
     stroke-linejoin="round"
     id="g18">
    <rect
       transform="matrix(.99138 0 0 1 .072989 .1117)"
       x=".79375"
       y=".79375"
       width="15.346"
       height="15.346"
       rx="3.0526"
       ry="3.0526"
       fill="#2e3440"
       filter="url(#filter1178)"
       opacity=".2"
       stroke-width="1.2489"
       id="rect12" />
    <rect
       x=".92604"
       y=".92604"
       width="15.081"
       height="15.081"
       rx="3"
       ry="3"
       fill="url(#linearGradient1340)"
       stroke-width="1.2274"
       id="rect14" />
    <rect
       x=".01215"
       y=".0060174"
       width="16.924"
       height="16.927"
       fill="none"
       opacity=".15"
       stroke-width="1.052"
       id="rect16" />
  </g>
  <path
     style="opacity:0.4;stroke-width:0.264578;fill:#2e3440;filter:url(#filter868)"
     d="m 12.805685,3.4395172 a 1.0583125,1.0583125 0 0 0 -1.058313,1.0583125 1.0583125,1.0583125 0 0 0 0.04961,0.3183208 L 9.9800739,6.8087545 A 2.116625,2.116625 0 0 0 9.1015909,6.6144546 2.116625,2.116625 0 0 0 6.9870329,8.6618347 L 4.4187649,9.0276965 C 4.2755773,8.8451551 4.0564979,8.738473 3.8244978,8.7383142 3.4069473,8.7385587 3.068677,9.0772917 3.0690032,9.494842 3.0692474,9.9119888 3.4073507,10.250092 3.8244978,10.250337 4.13273,10.250168 4.4099907,10.062876 4.5252163,9.7769898 L 7.0986519,9.409061 A 2.116625,2.116625 0 0 0 9.1015909,10.847704 2.116625,2.116625 0 0 0 11.218216,8.7310796 2.116625,2.116625 0 0 0 10.84822,7.5363443 l 1.814841,-1.9915705 a 1.0583125,1.0583125 0 0 0 0.142624,0.011368 1.0583125,1.0583125 0 0 0 1.058312,-1.0583125 1.0583125,1.0583125 0 0 0 -1.058312,-1.0583121 z M 6.7203879,3.9686734 a 0.79373431,0.79373431 0 0 0 -0.793734,0.7937344 0.79373431,0.79373431 0 0 0 0.793734,0.7937344 0.79373431,0.79373431 0 0 0 0.793734,-0.7937344 0.79373431,0.79373431 0 0 0 -0.793734,-0.7937344 z m 6.0852971,0 a 0.52915624,0.52915624 0 0 1 0.529156,0.5291563 0.52915624,0.52915624 0 0 1 -0.529156,0.5291562 0.52915624,0.52915624 0 0 1 -0.529156,-0.5291562 0.52915624,0.52915624 0 0 1 0.529156,-0.5291563 z m -5.3659751,1.4665481 -0.3917,0.2883489 0.262511,0.3751638 0.3917,-0.2893823 z m 0.391699,0.5601616 -0.390666,0.2893823 0.344159,0.4929837 0.391699,-0.2893823 z m 1.270182,1.677384 A 1.0583125,1.0583125 0 0 1 10.159904,8.7310796 1.0583125,1.0583125 0 0 1 9.1015909,9.7893918 1.0583125,1.0583125 0 0 1 8.0432789,8.7310796 1.0583125,1.0583125 0 0 1 9.1015909,7.6727671 Z M 3.8244978,9.1165784 C 4.0334746,9.1164149 4.2029247,9.285865 4.2027617,9.494842 4.2029252,9.7038188 4.0334749,9.8732688 3.8244978,9.8731058 3.6159243,9.8727088 3.4471039,9.7034158 3.4472671,9.494842 3.4471041,9.2862687 3.6159245,9.1169858 3.8244978,9.1165784 Z m 7.1115712,0.9921676 -0.368963,0.368962 0.476447,0.478515 0.37103,-0.37103 z m 0.650076,0.649043 -0.369996,0.369996 0.552927,0.551894 0.368962,-0.368963 z m -3.4147111,0.05684 -0.329689,0.823706 0.473347,0.165362 0.328655,-0.822673 z m 4.5019621,0.562229 a 0.92602331,0.92602331 0 0 0 -0.926024,0.926023 0.92602331,0.92602331 0 0 0 0.926024,0.926023 0.92602331,0.92602331 0 0 0 0.926023,-0.926023 0.92602331,0.92602331 0 0 0 -0.926023,-0.926023 z m -4.8946951,0.529156 a 0.79373431,0.79373431 0 0 0 -0.793735,0.793734 0.79373431,0.79373431 0 0 0 0.793735,0.793735 0.79373431,0.79373431 0 0 0 0.793734,-0.793735 0.79373431,0.79373431 0 0 0 -0.793734,-0.793734 z"
     id="path6" />
  <path
     style="fill:url(#linearGradient896);fill-opacity:1;stroke-width:0.264578"
     d="m 12.805685,3.4395166 a 1.0583125,1.0583125 0 0 0 -1.058312,1.0583125 1.0583125,1.0583125 0 0 0 0.04961,0.3183205 L 9.980072,6.8087538 A 2.116625,2.116625 0 0 0 9.10159,6.614454 2.116625,2.116625 0 0 0 6.987032,8.6618341 L 4.418765,9.0276959 C 4.275577,8.8451545 4.056498,8.7384723 3.824498,8.7383136 3.406947,8.7385581 3.068677,9.0772911 3.069003,9.4948414 3.069247,9.911989 3.40735,10.250092 3.824498,10.250336 4.13273,10.250168 4.40999,10.062875 4.525216,9.7769891 L 7.098651,9.4090604 A 2.116625,2.116625 0 0 0 9.10159,10.847704 2.116625,2.116625 0 0 0 11.218216,8.731079 2.116625,2.116625 0 0 0 10.84822,7.5363437 l 1.814841,-1.9915706 a 1.0583125,1.0583125 0 0 0 0.142624,0.011369 1.0583125,1.0583125 0 0 0 1.058313,-1.0583125 1.0583125,1.0583125 0 0 0 -1.058313,-1.058313 z M 6.720387,3.9686728 A 0.79373431,0.79373431 0 0 0 5.926653,4.7624072 0.79373431,0.79373431 0 0 0 6.720387,5.5561415 0.79373431,0.79373431 0 0 0 7.514122,4.7624072 0.79373431,0.79373431 0 0 0 6.720387,3.9686728 Z m 6.085298,0 A 0.52915624,0.52915624 0 0 1 13.334841,4.4978291 0.52915624,0.52915624 0 0 1 12.805685,5.0269853 0.52915624,0.52915624 0 0 1 12.276529,4.4978291 0.52915624,0.52915624 0 0 1 12.805685,3.9686728 Z M 7.439709,5.4352209 7.04801,5.7235697 7.31052,6.0987336 7.70222,5.8093513 Z M 7.831408,5.9953825 7.440742,6.2847648 7.784901,6.7777485 8.1766,6.4883661 Z M 9.10159,7.6727665 A 1.0583125,1.0583125 0 0 1 10.159904,8.731079 1.0583125,1.0583125 0 0 1 9.10159,9.7893915 1.0583125,1.0583125 0 0 1 8.043278,8.731079 1.0583125,1.0583125 0 0 1 9.10159,7.6727665 Z M 3.824498,9.1165778 C 4.033474,9.1164143 4.202924,9.2858644 4.202761,9.4948414 4.202925,9.7038184 4.033475,9.8732691 3.824498,9.8731056 3.615924,9.8727087 3.447104,9.7034152 3.447267,9.4948414 3.447104,9.2862681 3.615924,9.1169852 3.824498,9.1165778 Z m 7.111571,0.9921682 -0.368963,0.368962 0.476448,0.478514 0.371029,-0.371029 z m 0.650076,0.649043 -0.369996,0.369996 0.552927,0.551893 0.368963,-0.368962 z m -3.414712,0.05684 -0.329689,0.823706 0.473347,0.165361 0.328655,-0.822673 z m 4.501963,0.562228 a 0.92602331,0.92602331 0 0 0 -0.926023,0.926023 0.92602331,0.92602331 0 0 0 0.926023,0.926024 0.92602331,0.92602331 0 0 0 0.926023,-0.926024 0.92602331,0.92602331 0 0 0 -0.926023,-0.926023 z M 7.7787,11.906013 A 0.79373431,0.79373431 0 0 0 6.984965,12.699748 0.79373431,0.79373431 0 0 0 7.7787,13.493482 0.79373431,0.79373431 0 0 0 8.572434,12.699748 0.79373431,0.79373431 0 0 0 7.7787,11.906013 Z"
     id="path8" />
</svg>
