<svg width="64" height="64" version="1.1" viewBox="0 0 16.933 16.933" xmlns="http://www.w3.org/2000/svg">
 <defs>
  <filter id="filter1178" x="-.047999" y="-.047999" width="1.096" height="1.096" color-interpolation-filters="sRGB">
   <feGaussianBlur stdDeviation="0.30691668"/>
  </filter>
  <linearGradient id="linearGradient1340" x1="8.355" x2="8.3996" y1="16.007" y2=".79375" gradientUnits="userSpaceOnUse">
   <stop stop-color="#d8dee9" offset="0"/>
   <stop stop-color="#eceff4" offset="1"/>
  </linearGradient>
  <linearGradient id="c" x1="-112.45" x2="-112.42" y1="271.04" y2="265.14" gradientTransform="matrix(.80172 -.33725 .34817 .79705 1.1031 -242.45)" gradientUnits="userSpaceOnUse">
   <stop stop-color="#5e81ac" offset="0"/>
   <stop stop-color="#88c0d0" offset="1"/>
  </linearGradient>
  <linearGradient id="d" x1="11.713" x2="14.149" y1="291.6" y2="286.73" gradientTransform="matrix(.86977 0 0 .86977 1.1031 -242.45)" gradientUnits="userSpaceOnUse">
   <stop stop-color="#5e81ac" offset="0"/>
   <stop stop-color="#88c0d0" offset="1"/>
  </linearGradient>
  <linearGradient id="e" x1="11.571" x2="11.096" y1="293.43" y2="289.55" gradientTransform="matrix(.86977 0 0 .86977 1.1031 -242.45)" gradientUnits="userSpaceOnUse">
   <stop stop-color="#81a1c1" offset="0"/>
   <stop stop-color="#88c0d0" offset="1"/>
  </linearGradient>
  <linearGradient id="f" x1="11.607" x2="11.217" y1="294.76" y2="291.42" gradientTransform="matrix(.86977 0 0 .86977 1.1031 -242.45)" gradientUnits="userSpaceOnUse">
   <stop stop-color="#81a1c1" offset="0"/>
   <stop stop-color="#88c0d0" offset="1"/>
  </linearGradient>
  <linearGradient id="g" x1="8.998" x2="10.294" y1="289.45" y2="291.56" gradientTransform="matrix(.86977 0 0 .86977 1.2384 -242.23)" gradientUnits="userSpaceOnUse">
   <stop stop-color="#4c566a" stop-opacity=".5" offset="0"/>
   <stop stop-color="#4c566a" stop-opacity="0" offset="1"/>
  </linearGradient>
  <linearGradient id="h" x1="7.04" x2="5.767" y1="286.24" y2="293.71" gradientTransform="matrix(.86977 0 0 .86977 1.1031 -242.45)" gradientUnits="userSpaceOnUse">
   <stop stop-color="#88c0d0" offset="0"/>
   <stop stop-color="#81a1c1" offset="1"/>
  </linearGradient>
  <linearGradient id="i" x1="32.799" x2="27.072" y1="42.111" y2="39.572" gradientTransform="matrix(.23012 0 0 .23012 1.1031 1.1457)" gradientUnits="userSpaceOnUse">
   <stop stop-color="#88c0d0" offset="0"/>
   <stop stop-color="#81a1c1" offset="1"/>
  </linearGradient>
  <linearGradient id="j" x1="5.25" x2="5.564" y1="287.3" y2="285.59" gradientTransform="matrix(.86977 0 0 .86977 1.1031 -242.45)" gradientUnits="userSpaceOnUse">
   <stop stop-color="#81a1c1" offset="0"/>
   <stop stop-color="#88c0d0" offset="1"/>
  </linearGradient>
  <radialGradient id="k" cx="8.661" cy="283.81" r="1.504" gradientTransform="matrix(1.6618 .067894 -.04101 1.0037 5.8459 -281.14)" gradientUnits="userSpaceOnUse">
   <stop stop-color="#88c0d0" offset="0"/>
   <stop stop-color="#81a1c1" offset="1"/>
  </radialGradient>
  <linearGradient id="l" x1="10.855" x2="11.759" y1="283.68" y2="282.57" gradientTransform="matrix(.86977 0 0 .86977 1.1031 -242.45)" gradientUnits="userSpaceOnUse">
   <stop stop-color="#81a1c1" offset="0"/>
   <stop stop-color="#88c0d0" offset="1"/>
  </linearGradient>
  <linearGradient id="n" x1="38.878" x2="41.802" y1="24.172" y2="27.079" gradientTransform="matrix(.23012 0 0 .23012 1.1031 1.1457)" gradientUnits="userSpaceOnUse">
   <stop stop-color="#d8dee9" offset="0"/>
   <stop stop-color="#eceff4" offset="1"/>
  </linearGradient>
  <filter id="b" x="-.055905" y="-.064553" width="1.1118" height="1.1291" color-interpolation-filters="sRGB">
   <feGaussianBlur stdDeviation=".326"/>
  </filter>
  <linearGradient id="linearGradient11331" x1="30.379" x2="45.72" y1="24.664" y2="24.664" gradientTransform="matrix(.23012 0 0 .23012 1.1031 1.1457)" gradientUnits="userSpaceOnUse">
   <stop stop-color="#d8dee9" offset="0"/>
   <stop stop-color="#eceff4" offset="1"/>
  </linearGradient>
 </defs>
 <g stroke-linecap="round" stroke-linejoin="round">
  <rect transform="matrix(.99138 0 0 1 .072989 .0019055)" x=".79375" y=".90545" width="15.346" height="15.346" rx="3.0526" ry="3.0526" filter="url(#filter1178)" opacity=".15" stroke-width="1.2489" style="mix-blend-mode:normal"/>
  <rect x=".92604" y=".92604" width="15.081" height="15.081" rx="3" ry="3" fill="url(#linearGradient1340)" stroke-width="1.2274"/>
  <rect x=".01215" y=".0060174" width="16.924" height="16.927" fill="none" opacity=".15" stroke-width="1.052"/>
 </g>
 <g transform="matrix(.86977 0 0 .86977 1.1031 -242.45)" filter="url(#b)" opacity=".15">
  <path transform="matrix(.92176 -.38775 .4003 .91639 0 0)" d="m-112.36 264.53c0.737 0 1.505 0.666 1.503 1.403l-0.022 6.612c-2e-3 0.736-0.717 1.173-1.454 1.173s-1.457-0.621-1.458-1.358l-8e-3 -6.366c-1e-3 -0.737 0.702-1.464 1.439-1.464z" style="paint-order:normal"/>
  <path d="m14.627 285.98c-0.679-0.286-1.654 0.027-1.947 0.703l-2.627 6.067c-0.293 0.676 0.18 1.449 0.86 1.734 0.678 0.286 1.603-0.099 1.899-0.774l2.556-5.83c0.295-0.675-0.062-1.614-0.741-1.9z" style="paint-order:normal"/>
  <path d="m9.479 286.92c0.748 0.973 1.31 2.108 1.726 2.824 0.417 0.715 0.488 0.866 0.805 1.451 0.317 0.586 1.03 1.065 1.758 0.334-0.065 0.167-0.639 1.58-0.928 2.164-0.192 0.39-0.318 0.524-0.658 0.717-0.641 0.362-1.618 0.138-1.992-0.496l-3.23-5.474c1.153-0.695 1.324-0.837 2.519-1.52z" style="paint-order:normal"/>
  <path d="m7.521 287.46c0.833 0.981 2.83 4.553 3.175 5.016 0.346 0.462 0.981 0.958 1.623 0.596 0.34-0.192 0.506-0.374 0.788-0.704a20.147 20.147 0 0 0 0.683-0.837c-0.066 0.166-0.657 1.576-0.946 2.161-0.192 0.39-0.318 0.524-0.658 0.716-0.642 0.363-1.619 0.14-1.993-0.495l-3.23-5.474c0.231-0.382 0.313-0.513 0.558-0.979z" style="paint-order:normal"/>
  <path d="m9.479 286.92c0.748 0.973 1.31 2.108 1.726 2.824 0.417 0.715 0.488 0.866 0.805 1.451 0.317 0.586 1.03 1.065 1.758 0.334-0.065 0.167-0.639 1.58-0.928 2.164-0.192 0.39-0.318 0.524-0.658 0.717-0.641 0.362-1.618 0.138-1.992-0.496l-3.23-5.474c1.153-0.695 1.324-0.837 2.519-1.52z" style="paint-order:normal"/>
  <path d="m9.711 285.37c-0.802 0.16-1.789 0.93-2.238 1.514-0.749 0.972-1.31 2.108-1.726 2.823-0.417 0.716-0.488 0.866-0.805 1.452-0.318 0.585-1.048 1.068-1.776 0.337 0.065 0.166 0.656 1.576 0.945 2.161 0.193 0.39 0.319 0.524 0.659 0.716 0.641 0.362 1.618 0.139 1.992-0.496l3.23-5.473a7.168 7.168 0 0 1 1.05-1.347c0.544-0.548 1.199-0.852 0.977-1.206-0.477-0.76-1.475-0.652-2.277-0.491z" style="paint-order:normal"/>
  <path transform="matrix(.26458 0 0 .26458 0 280.07)" d="m44.643 21.932a3.877 3.877 0 0 0-0.57 2e-3c-2.72 0.204-6.19 3.027-7.533 4.61-3.148 3.708-11.577 18.472-12.883 20.22-1.307 1.748-3.709 3.621-6.133 2.252-1.285-0.726-1.912-1.414-2.98-2.66a75.37 75.37 0 0 1-2.56-3.149l-0.018-0.016c0.248 0.63 2.482 5.958 3.574 8.17 0.727 1.473 1.203 1.98 2.488 2.705 2.424 1.37 6.117 0.525 7.532-1.873l12.205-20.688c0.707-1.199 1.983-3.181 3.903-5.117 1.862-1.877 4.119-2.96 3.912-4.157-0.321-0.126-0.546-0.272-0.936-0.3z" style="paint-order:normal"/>
  <path d="m5.801 287.44c-0.456-0.165-0.829-0.494-0.88-1.114-0.051-0.619 0.317-1.063 0.743-1.042s0.57 0.378 0.472 0.71c-0.1 0.331-0.2 0.457-0.262 0.686s-0.064 0.47-0.073 0.76zm1.199-1.25c-0.386-0.658-0.283-1.404-0.06-1.954 0.225-0.55 0.764-1.16 1.362-1.32s1.142-0.074 1.387 0.535c0.244 0.608-0.286 1.36-0.92 1.536s-1.218 0.516-1.77 1.203z"/>
  <circle cx="11.342" cy="283.14" r=".677" style="paint-order:normal"/>
  <path transform="matrix(.26458 0 0 .26458 0 280.07)" d="m40.379 19.467c-1.243-1e-3 -2.518 0.19-3.654 0.418-1.427 0.286-3.009 1.124-4.465 2.152-1.004 1.25-1.745 2.742-1.856 4.46-0.296 3.455 2.104 4.213 4.188 2.437 0.319-0.272 0.498-0.501 0.687-0.713 0.898-0.833 6.312-2.926 9.768-4.7 0.585-0.598 0.873-1.146 0.516-1.716-1.126-1.797-3.112-2.336-5.184-2.338z" style="paint-order:normal"/>
  <path transform="matrix(.26458 0 0 .26458 0 280.07)" d="m44.643 21.932a3.87 3.87 0 0 0-0.57 2e-3c-2.72 0.204-6.19 3.027-7.534 4.61a25.47 25.47 0 0 0-1.248 1.648c0.964 1.455 2.68 1.677 4.395 0.562a27.47 27.47 0 0 1 2.05-2.338c1.862-1.876 4.174-3.042 3.968-4.24a3.59 3.59 0 0 0-1.06-0.244z" style="paint-order:normal"/>
 </g>
 <path d="m3.123 6.2862c0.59087-0.24856 1.4385 0.023268 1.6935 0.61137l2.2845 5.2775c0.25465 0.5873-0.16643 1.1767-0.7573 1.4253-0.59087 0.24856-1.3843-0.0036-1.6417-0.59068l-2.2229-5.0713c-0.2574-0.58709 0.053088-1.4036 0.64395-1.6522z" fill="url(#c)" stroke-width=".86973" style="paint-order:normal"/>
 <g stroke-width=".86977">
  <path d="m13.825 6.286c-0.59057-0.24875-1.4386 0.023484-1.6934 0.61145l-2.2849 5.2769c-0.25484 0.58796 0.15656 1.2603 0.748 1.5082 0.5897 0.24875 1.3942-0.08611 1.6517-0.6732l2.2231-5.0708c0.25658-0.58709-0.05393-1.4038-0.6445-1.6526z" fill="url(#d)" style="paint-order:normal"/>
  <path d="m9.3476 7.1036c0.65059 0.84629 1.1394 1.8335 1.5012 2.4562 0.36269 0.62189 0.42445 0.75322 0.70016 1.262 0.27572 0.50968 0.89586 0.9263 1.5291 0.2905-0.05654 0.14525-0.55578 1.3742-0.80715 1.8822-0.167 0.33921-0.27659 0.45576-0.57231 0.62362-0.55752 0.31486-1.4073 0.12003-1.7326-0.43141l-2.8094-4.7611c1.0028-0.60449 1.1516-0.728 2.191-1.3221z" fill="url(#e)" style="paint-order:normal"/>
  <path d="m7.6446 7.5733c0.72452 0.85324 2.4614 3.9601 2.7615 4.3628 0.30094 0.40183 0.85324 0.83324 1.4116 0.51838 0.29572-0.167 0.4401-0.32529 0.68538-0.61232a17.523 17.523 0 0 0 0.59405-0.728c-0.0574 0.14438-0.57144 1.3708-0.8228 1.8796-0.167 0.33921-0.27659 0.45576-0.57231 0.62276-0.55839 0.31573-1.4082 0.12177-1.7335-0.43054l-2.8094-4.7611c0.20092-0.33225 0.27224-0.44619 0.48533-0.8515z" fill="url(#f)" style="paint-order:normal"/>
  <path d="m9.4829 7.3231c0.65059 0.84629 1.1394 1.8335 1.5012 2.4562 0.36269 0.62189 0.42445 0.75322 0.70016 1.262 0.27572 0.50969 0.89586 0.92631 1.5291 0.2905-0.05654 0.14525-0.55578 1.3742-0.80715 1.8822-0.167 0.33921-0.27659 0.45576-0.57231 0.62362-0.55752 0.31486-1.4073 0.12003-1.7326-0.43141l-2.8094-4.7611c1.0028-0.60449 1.1516-0.728 2.191-1.3221z" fill="url(#g)" style="paint-order:normal"/>
  <path d="m9.5494 5.7555c-0.69756 0.13916-1.556 0.80889-1.9465 1.3168-0.65146 0.84542-1.1394 1.8335-1.5012 2.4554-0.36269 0.62276-0.42445 0.75322-0.70016 1.2629-0.27659 0.50882-0.91152 0.92892-1.5447 0.29311 0.056535 0.14438 0.57057 1.3708 0.82193 1.8796 0.16787 0.33921 0.27746 0.45576 0.57318 0.62276 0.55752 0.31486 1.4073 0.1209 1.7326-0.43141l2.8094-4.7603a6.2345 6.2345 0 0 1 0.91326-1.1716c0.47316-0.47663 1.0429-0.74104 0.84976-1.0489-0.41488-0.66103-1.2829-0.56709-1.9805-0.42706z" fill="url(#h)" style="paint-order:normal"/>
 </g>
 <path d="m11.376 6.1928a0.89219 0.89219 0 0 0-0.13117 4.602e-4c-0.62594 0.046945-1.4245 0.69658-1.7335 1.0609-0.72443 0.8533-2.6641 4.2508-2.9647 4.6531-0.30077 0.40226-0.85353 0.83328-1.4113 0.51824-0.29571-0.16707-0.44-0.3254-0.68577-0.61213a17.344 17.344 0 0 1-0.58912-0.72466l-0.00414-0.0037c0.057071 0.14498 0.57117 1.3711 0.82246 1.8801 0.1673 0.33897 0.27684 0.45564 0.57255 0.62248 0.55782 0.31527 1.4077 0.12082 1.7333-0.43102l2.8087-4.7608c0.1627-0.27592 0.45634-0.73202 0.89817-1.1775 0.42849-0.43194 0.94788-0.68117 0.90024-0.95662-0.07387-0.028996-0.12565-0.062594-0.2154-0.069037z" fill="url(#i)" stroke-width=".23012" style="paint-order:normal"/>
 <g stroke-width=".86977">
  <path d="m6.1486 7.5559c-0.39662-0.14351-0.72104-0.42967-0.7654-0.96892-0.044358-0.53839 0.27572-0.92457 0.64624-0.9063 0.37052 0.018265 0.49577 0.32877 0.41053 0.61754-0.086977 0.28789-0.17395 0.39748-0.22788 0.59666-0.053926 0.19918-0.055665 0.40879-0.063493 0.66103z" fill="url(#j)"/>
  <path d="m7.1915 6.4687c-0.33573-0.57231-0.24614-1.2212-0.052186-1.6995 0.1957-0.47837 0.6645-1.0089 1.1846-1.1481 0.52012-0.13916 0.99328-0.064363 1.2064 0.46533 0.21222 0.52882-0.24875 1.1829-0.80019 1.336-0.55143 0.15308-1.0594 0.4488-1.5395 1.0463z" fill="url(#k)"/>
  <circle cx="10.968" cy="3.8159" r=".58883" fill="url(#l)" style="paint-order:normal"/>
 </g>
 <path d="m10.395 5.6255c-0.28604-2.301e-4 -0.57945 0.043724-0.84087 0.096192-0.32839 0.065815-0.69244 0.25866-1.0275 0.49523-0.23104 0.28765-0.40157 0.631-0.42711 1.0264-0.068117 0.79508 0.48418 0.96951 0.96376 0.56081 0.073409-0.062594 0.1146-0.11529 0.1581-0.16408 0.20665-0.19169 1.4525-0.67334 2.2478-1.0816 0.13462-0.13761 0.2009-0.26372 0.11874-0.39489-0.25912-0.41353-0.71614-0.53757-1.193-0.53803z" fill="url(#linearGradient11331)" stroke-width=".23012" style="paint-order:normal"/>
 <path d="m11.376 6.1928a0.89058 0.89058 0 0 0-0.13117 4.602e-4c-0.62594 0.046945-1.4245 0.69658-1.7338 1.0609a5.8613 5.8613 0 0 0-0.28719 0.37924c0.22184 0.33483 0.61673 0.38592 1.0114 0.12933a6.3215 6.3215 0 0 1 0.47175-0.53803c0.42849-0.43171 0.96054-0.70004 0.91313-0.97572a0.82614 0.82614 0 0 0-0.24393-0.05615z" fill="url(#n)" stroke-width=".23012" style="paint-order:normal"/>
</svg>
