<svg width="64" height="64" version="1.1" viewBox="0 0 16.933 16.933" xmlns="http://www.w3.org/2000/svg">
 <defs>
  <filter id="filter1178" x="-.047999" y="-.047999" width="1.096" height="1.096" color-interpolation-filters="sRGB">
   <feGaussianBlur stdDeviation="0.30691668"/>
  </filter>
  <linearGradient id="linearGradient728" x1="8.5539" x2="8.5539" y1="7.7814" y2="12.907" gradientUnits="userSpaceOnUse">
   <stop stop-color="#eceff4" offset="0"/>
   <stop stop-color="#d8dee9" offset="1"/>
  </linearGradient>
  <linearGradient id="linearGradient823" x1="3.1075" x2="14.947" y1="10.401" y2="10.401" gradientUnits="userSpaceOnUse">
   <stop stop-color="#ebcb8b" offset="0"/>
   <stop stop-color="#d08770" offset="1"/>
  </linearGradient>
  <radialGradient id="radialGradient1386" cx=".0057243" cy="-12.136" r="6.8232" gradientTransform="matrix(-.70357 .70357 -.71352 -.71352 -.066769 -.06677)" gradientUnits="userSpaceOnUse">
   <stop stop-color="#c1e0a7" offset="0"/>
   <stop stop-color="#97b67c" offset="1"/>
  </radialGradient>
  <filter id="filter1411" x="-.07064" y="-.072855" width="1.1413" height="1.1457" color-interpolation-filters="sRGB">
   <feGaussianBlur stdDeviation="0.35492338"/>
  </filter>
 </defs>
 <g stroke-linecap="round" stroke-linejoin="round">
  <rect transform="matrix(.99138 0 0 1 .072989 .0019055)" x=".79375" y=".90545" width="15.346" height="15.346" rx="3.0526" ry="3.0526" filter="url(#filter1178)" opacity=".15" stroke-width="1.2489" style="mix-blend-mode:normal"/>
  <rect x=".92604" y=".92604" width="15.081" height="15.081" rx="3" ry="3" fill="#eceff4" stroke-width="1.2274"/>
  <rect x=".01215" y=".0060174" width="16.924" height="16.927" fill="none" opacity=".15" stroke-width="1.052"/>
 </g>
 <path d="m3.4581 2.6354c-0.19582 0.0053689-0.40913 0.09701-0.58031 0.2682l-0.17156 0.17208c-0.30433 0.30433-0.35848 0.74066-0.12092 0.97822l1.2903 1.2898a5.7082 5.7388 0 0 0-0.88727 2.1993c-0.0088128-0.004993-0.017539-0.0099709-0.026354-0.014986-0.06275 0.34022-0.094916 0.68542-0.096116 1.0314 9.5e-5 3.1854 2.5686 5.7675 5.737 5.7675 3.1684 4e-5 5.7369-2.5821 5.737-5.7675-1.37e-4 -0.35382-0.03266-0.70687-0.09715-1.0547-0.009826 0.0065808-0.019625 0.013093-0.029455 0.019637a5.7082 5.7388 0 0 0-0.99527-2.3409l1.1296-1.1296c0.23756-0.23756 0.18393-0.67389-0.1204-0.97822l-0.17208-0.17208c-0.30433-0.30433-0.74066-0.35796-0.97822-0.1204l-1.1276 1.1276a5.7082 5.7388 0 0 0-3.347-1.0904 5.7082 5.7388 0 0 0-3.5005 1.2087l-1.2459-1.2459c-0.10393-0.10393-0.24559-0.15197-0.3979-0.14779z" fill="#2e3440" filter="url(#filter1411)" opacity=".37934" stroke-width=".995"/>
 <path d="m3.458 2.6353c-0.19582 0.0053689-0.4088 0.097211-0.57998 0.2684l-0.17173 0.17225c-0.30433 0.30433-0.35839 0.7404-0.12083 0.97795l1.2901 1.2901a5.7082 5.7388 0 0 0-0.98155 3.2151 5.7082 5.7388 0 0 0 5.7083 5.7387 5.7082 5.7388 0 0 0 5.7083-5.7387 5.7082 5.7388 0 0 0-1.0926-3.3755l1.1296-1.1296c0.23756-0.23756 0.18401-0.67362-0.12032-0.97795l-0.17225-0.17225c-0.30433-0.30433-0.7404-0.35787-0.97795-0.12032l-1.1276 1.1276a5.7082 5.7388 0 0 0-3.3472-1.0906 5.7082 5.7388 0 0 0-3.5005 1.2088l-1.2458-1.2458c-0.10393-0.10393-0.24566-0.15226-0.39797-0.14808z" fill="url(#radialGradient1386)" stroke-width=".995"/>
 <path d="m14.243 7.505c-3.465 2.3207-7.225 2.3305-11.281 0.02325-0.06275 0.34022-0.09492 0.68542-0.09612 1.0314 9.5e-5 3.1854 2.5686 5.7675 5.737 5.7675 3.1684 4e-5 5.7369-2.5821 5.737-5.7675-1.37e-4 -0.35382-0.03266-0.70687-0.09715-1.0547z" fill="url(#linearGradient823)"/>
 <path d="m3.3678 7.78c1.0806 1.7441 1.8144 3.0577 2.9469 4.7689 0.64156 0.90853 1.1304 0.33914 1.1304 0.33914l1.1515-1.1595 0.93799 0.95639c0.47808 0.45499 0.82815 0.38037 1.116-0.05343 0.83401-1.3262 2.0311-3.1784 3.0342-4.7741-0.81703 0.46631-1.5736 0.83686-2.4188 1.0639l-1.1357 1.751-1.07-1.4307c-0.3025 0.0076-0.60637 5.79e-4 -0.91229-0.02081l-1.0857 1.4515-1.2177-1.8771c-0.8141-0.24126-1.6398-0.57938-2.4768-1.0152z" fill="url(#linearGradient728)"/>
</svg>
