<?xml version="1.0" encoding="UTF-8" standalone="no"?>
<svg
   width="64"
   height="64"
   version="1.1"
   viewBox="0 0 16.933 16.933"
   id="svg100"
   sodipodi:docname="webapp-manager.svg"
   inkscape:version="1.1.2 (0a00cf5339, 2022-02-04)"
   xmlns:inkscape="http://www.inkscape.org/namespaces/inkscape"
   xmlns:sodipodi="http://sodipodi.sourceforge.net/DTD/sodipodi-0.dtd"
   xmlns:xlink="http://www.w3.org/1999/xlink"
   xmlns="http://www.w3.org/2000/svg"
   xmlns:svg="http://www.w3.org/2000/svg">
  <sodipodi:namedview
     id="namedview102"
     pagecolor="#505050"
     bordercolor="#eeeeee"
     borderopacity="1"
     inkscape:pageshadow="0"
     inkscape:pageopacity="0"
     inkscape:pagecheckerboard="0"
     showgrid="false"
     inkscape:zoom="12.984375"
     inkscape:cx="32"
     inkscape:cy="31.961492"
     inkscape:window-width="2560"
     inkscape:window-height="1358"
     inkscape:window-x="0"
     inkscape:window-y="0"
     inkscape:window-maximized="1"
     inkscape:current-layer="svg100" />
  <defs
     id="defs52">
    <filter
       id="filter1178"
       x="-0.047999482"
       y="-0.047999482"
       width="1.095999"
       height="1.095999"
       color-interpolation-filters="sRGB">
      <feGaussianBlur
         stdDeviation="0.30691668"
         id="feGaussianBlur2" />
    </filter>
    <linearGradient
       id="linearGradient1340"
       x1="8.6885"
       x2="8.6644"
       y1="15.572"
       y2="1.366"
       gradientUnits="userSpaceOnUse">
      <stop
         stop-color="#e5e9f0"
         offset="0"
         id="stop5" />
      <stop
         stop-color="#eceff4"
         offset="1"
         id="stop7" />
    </linearGradient>
    <linearGradient
       id="linearGradient1340-3"
       x1="8.6885"
       x2="8.6644"
       y1="15.572"
       y2="1.366"
       gradientUnits="userSpaceOnUse">
      <stop
         stop-color="#5e81ac"
         offset="0"
         id="stop10" />
      <stop
         stop-color="#88c0d0"
         offset="1"
         id="stop12" />
    </linearGradient>
    <linearGradient
       id="linearGradient6101"
       x1="15.093"
       x2="13.584"
       y1="2.1411"
       y2="3.6506"
       gradientTransform="rotate(180 13.498 3.354)"
       gradientUnits="userSpaceOnUse">
      <stop
         stop-color="#eceff4"
         offset="0"
         id="stop15" />
      <stop
         stop-color="#d8dee9"
         offset="1"
         id="stop17" />
    </linearGradient>
    <filter
       id="filter6834"
       x="-0.079224981"
       y="-0.079751364"
       width="1.15845"
       height="1.1595027"
       color-interpolation-filters="sRGB">
      <feGaussianBlur
         stdDeviation="0.15989484"
         id="feGaussianBlur20" />
    </filter>
    <filter
       id="filter7451"
       x="-0.073048615"
       y="-0.072537968"
       width="1.1460972"
       height="1.1450759"
       color-interpolation-filters="sRGB">
      <feGaussianBlur
         stdDeviation="0.15989484"
         id="feGaussianBlur23" />
    </filter>
    <linearGradient
       id="linearGradient8926"
       x1="61.799"
       x2="61.799"
       y1="15.872"
       y2="7.879"
       gradientUnits="userSpaceOnUse">
      <stop
         stop-color="#d8dee9"
         offset="0"
         id="stop26" />
      <stop
         stop-color="#eceff4"
         offset="1"
         id="stop28" />
    </linearGradient>
    <linearGradient
       id="linearGradient9236"
       x1="65.275"
       x2="65.275"
       y1="11.193"
       y2="7.7691"
       gradientUnits="userSpaceOnUse">
      <stop
         stop-color="#d8dee9"
         offset="0"
         id="stop31" />
      <stop
         stop-color="#eceff4"
         offset="1"
         id="stop33" />
    </linearGradient>
    <linearGradient
       id="linearGradient9448"
       x1="65.218"
       x2="65.218"
       y1="10.571"
       y2="7.4588"
       gradientTransform="matrix(.81 0 0 .81 12.468 1.8163)"
       gradientUnits="userSpaceOnUse">
      <stop
         stop-color="#88c0d0"
         offset="0"
         id="stop36" />
      <stop
         stop-color="#5e81ac"
         offset="1"
         id="stop38" />
    </linearGradient>
    <filter
       id="filter10109"
       x="-0.072539817"
       y="-0.077635269"
       width="1.1450796"
       height="1.1552705"
       color-interpolation-filters="sRGB">
      <feGaussianBlur
         stdDeviation="0.038291656"
         id="feGaussianBlur41" />
    </filter>
    <linearGradient
       id="linearGradient10898"
       x1="247.1"
       x2="247.1"
       y1="41.983"
       y2="32.82"
       gradientUnits="userSpaceOnUse">
      <stop
         stop-color="#3b4252"
         offset="0"
         id="stop44" />
      <stop
         stop-color="#4c566a"
         offset="1"
         id="stop46" />
    </linearGradient>
    <filter
       id="filter11594"
       x="-0.071915996"
       y="-0.07835757"
       width="1.143832"
       height="1.1567151"
       color-interpolation-filters="sRGB">
      <feGaussianBlur
         stdDeviation="0.27798228"
         id="feGaussianBlur49" />
    </filter>
    <linearGradient
       inkscape:collect="always"
       xlink:href="#linearGradient6101"
       id="linearGradient1236"
       x1="8.4065638"
       y1="4.8445811"
       x2="8.452693"
       y2="12.098567"
       gradientUnits="userSpaceOnUse" />
  </defs>
  <g
     stroke-linecap="round"
     stroke-linejoin="round"
     id="g66">
    <rect
       transform="matrix(.99138 0 0 1 .072989 2.4878e-7)"
       x=".79375"
       y=".90545"
       width="15.346"
       height="15.346"
       rx="3.0526"
       ry="3.0526"
       fill="#2e3440"
       filter="url(#filter1178)"
       opacity=".2"
       stroke-width="1.2489"
       style="mix-blend-mode:normal"
       id="rect54" />
    <rect
       x=".92604"
       y=".92604"
       width="15.081"
       height="15.081"
       rx="3"
       ry="3"
       fill="url(#linearGradient1340)"
       stroke-width="1.2274"
       id="rect56" />
    <rect
       x=".01215"
       y=".0060174"
       width="16.924"
       height="16.927"
       fill="none"
       opacity=".15"
       stroke-width="1.052"
       id="rect58" />
    <path
       d="m12.646 8.4665a4.1799 4.1799 0 0 1-4.1799 4.1799 4.1799 4.1799 0 0 1-4.1799-4.1799 4.1799 4.1799 0 0 1 4.1799-4.1799 4.1799 4.1799 0 0 1 4.1799 4.1799zm2.3512-2e-7a6.5311 6.5311 0 0 1-6.5311 6.5311 6.5311 6.5311 0 0 1-6.5311-6.5311 6.5311 6.5311 0 0 1 6.5311-6.5311 6.5311 6.5311 0 0 1 6.5311 6.5311zm-13.062-6.5311v13.062m13.062-13.062v13.062m-13.062 0h13.062m-13.062-13.062 13.062 1e-7 -13.062 13.062m1e-7 -13.062 13.062 13.062m-13.922-6.5311h14.781m-7.3904-7.3904v14.781"
       fill="none"
       opacity=".5"
       stroke="#2e3440"
       stroke-width=".26458"
       id="path60" />
    <path
       d="m3.926 0.92604h6.9644c0.90634 0 5.1166 4.1838 5.1166 5.1166v6.9644c0 1.662-1.338 3-3 3h-9.081c-1.662 0-3-1.338-3-3v-9.081c0-1.662 1.338-3 3-3z"
       fill="url(#linearGradient1340-3)"
       stroke-width="1.2274"
       id="path62" />
    <path
       d="m15.972 5.8039c0.006198-0.56964-1.2579-2.0081-2.0384-2.8042-0.31107-0.31729-2.1363-1.9845-2.7961-2.0076l-0.0092 1.6499c-0.0093 1.662 1.3446 2.8551 3.0003 3.0003z"
       fill="#2e3440"
       filter="url(#filter6834)"
       opacity=".3"
       stroke-width="1.2274"
       id="path64" />
  </g>
  <path
     d="m15.978 6.2319c0.006198-0.56964-1.577-2.1232-2.3575-2.9193-0.31107-0.31729-2.236-2.3478-2.8958-2.371l0.09051 2.0133c0.07465 1.6603 1.3517 2.7893 3.0003 3.0003z"
     fill="#2e3440"
     filter="url(#filter7451)"
     opacity=".25"
     stroke-linecap="round"
     stroke-linejoin="round"
     stroke-width="1.2274"
     id="path96" />
  <path
     d="m16.007 6.0427c0.006198-0.56964-1.433-2.1071-2.2135-2.9032-0.31107-0.31729-2.2433-2.1903-2.9032-2.2135l0.09785 1.8558c0.08752 1.6597 1.352 2.7875 3.0003 3.0003z"
     fill="url(#linearGradient6101)"
     stroke-linecap="round"
     stroke-linejoin="round"
     stroke-width="1.2274"
     id="path98" />
  <path
     d="m 9.2609998,4.7750001 c -0.884,0 -1.649,0.509 -2.028,1.247 a 1.572,1.572 0 0 0 -0.85,-0.25 1.592,1.592 0 0 0 -1.531,2.002 2.397,2.397 0 0 0 -1.048,1.9899997 2.383,2.383 0 0 0 2.38,2.3940002 H 10.749 a 2.383,2.383 0 0 0 2.38,-2.3940002 2.39,2.39 0 0 0 -1.624,-2.2699997 2.31,2.31 0 0 0 0.037,-0.424 2.288,2.288 0 0 0 -2.2820002,-2.295 z"
     color="#000000"
     fill="#ffffff"
     id="path39"
     style="fill-opacity:1;fill:url(#linearGradient1236)" />
</svg>
