<?xml version="1.0" encoding="UTF-8"?>
<svg width="64" height="64" version="1.1" viewBox="0 0 16.933 16.933" xml:space="preserve" xmlns="http://www.w3.org/2000/svg" xmlns:xlink="http://www.w3.org/1999/xlink"><defs><filter id="filter1178" x="-.047999" y="-.047999" width="1.096" height="1.096" color-interpolation-filters="sRGB"><feGaussianBlur stdDeviation="0.30691668"/></filter><linearGradient id="linearGradient2014" x1="7.9709" x2="7.9827" y1="15.584" y2="1.1618" gradientUnits="userSpaceOnUse"><stop stop-color="#4c566a" offset="0"/><stop stop-color="#2e3440" offset="1"/></linearGradient><filter id="filter888" x="-.062856" y="-.09296" width="1.1257" height="1.1859" color-interpolation-filters="sRGB"><feGaussianBlur stdDeviation="0.14481734"/></filter><style>.cls-1{fill-rule:evenodd;}</style></defs><g stroke-linecap="round" stroke-linejoin="round"><rect transform="matrix(.99138 0 0 1 .072989 .0019055)" x=".79375" y=".90545" width="15.346" height="15.346" rx="3.0526" ry="3.0526" filter="url(#filter1178)" opacity=".15" stroke-width="1.2489" style="mix-blend-mode:normal"/><rect x=".01215" y=".0060174" width="16.924" height="16.927" fill="none" opacity=".15" stroke-width="1.052"/><rect x=".92604" y=".92604" width="15.081" height="15.081" rx="3" ry="3" fill="url(#linearGradient2014)" stroke-width="1.2274"/></g><g transform="matrix(1.3533 0 0 1.3533 -.70795 -1.0319)" fill="#2e3440" filter="url(#filter888)" opacity=".25" stroke-width=".19551" aria-label="&gt;_"><path d="m2.6666 4.1314v-0.5479l2.8097 1.0147v0.51722l-2.8097 1.0147v-0.5479l2.1149-0.72323z"/><path d="m8.1961 6.9059v0.41641h-2.2442v-0.41641z"/></g><g transform="matrix(0 -.3746 .3746 0 -190.66 130.21)" fill-opacity=".852" stroke-width=".833"><circle cx="338.34" cy="517.43" r="1.875" fill="#bf616a"/><circle cx="338.39" cy="527.23" r="1.875" fill="#a3be8c"/><circle cx="338.4" cy="522.44" r="1.875" fill="#ebcb8b"/></g><g transform="matrix(.20724 0 0 .20816 -4.9281 -5.8504)" fill="#5e81ac" stroke-width=".26458" aria-label="$W"><path d="m47.079 66.907c0-1.2474 1.2474-2.0151 4.27-2.0151l-1.0075 5.5174c-1.8711-1.2474-3.2625-2.3989-3.2625-3.5024zm8.0603 13.626c0 1.2954-1.2954 2.159-4.27 2.3029l1.0555-5.8533c1.8711 1.2474 3.2145 2.3509 3.2145 3.5504zm-5.2776 11.994 0.91158-5.4215c7.2446-0.67169 10.075-3.5983 10.075-6.8128 0-3.3105-4.0301-5.9013-7.7244-8.1562l1.3434-7.1007c1.5353 0.14393 3.3584 0.4318 5.5174 0.8636l0.62371-4.9417c-1.6312-0.23989-3.1665-0.33584-4.6059-0.4318l1.1035-5.2776-4.7498-0.04798-0.91158 5.3735c-7.2446 0.57573-10.075 3.5983-10.075 6.8128 0 3.2625 4.0301 5.7573 7.7244 7.9163l-1.3434 7.4366c-1.7272-0.09596-3.8382-0.38382-6.2851-0.81562l-0.95956 4.9417c2.063 0.23989 3.9822 0.38382 5.7094 0.4318l-1.0555 5.1816z"/><path d="m81.133 88.737h5.3735c0.67169-5.6134 1.6312-16.936 2.255-29.746h-5.1336c-0.14393 3.0226-0.67169 21.014-0.8636 22.502h-0.14393c-1.2954-4.8458-2.3509-8.7799-3.6463-13.578h-2.9266c-1.2474 4.7978-2.111 8.3961-3.4064 13.578h-0.19191c-0.14393-1.4873-0.95956-19.479-1.0555-22.502h-5.3255c0.62371 12.81 1.5353 24.133 2.207 29.746h5.2776l3.6943-14.249z"/></g></svg>
