<svg width="64" height="64" version="1.1" viewBox="0 0 16.933 16.933" xmlns="http://www.w3.org/2000/svg">
 <defs>
  <filter id="filter1178" x="-.047999" y="-.047999" width="1.096" height="1.096" color-interpolation-filters="sRGB">
   <feGaussianBlur stdDeviation="0.30691668"/>
  </filter>
  <linearGradient id="linearGradient862" x1="8.355" x2="8.355" y1="16.007" y2="-.77149" gradientUnits="userSpaceOnUse">
   <stop stop-color="#a3be8c" offset="0"/>
   <stop stop-color="#8fbcbb" offset="1"/>
  </linearGradient>
  <linearGradient id="linearGradient1296" x1="-14.927" x2="-14.927" y1="5.3165" y2="18.279" gradientUnits="userSpaceOnUse">
   <stop stop-color="#eceff4" offset="0"/>
   <stop stop-color="#d8dee9" offset="1"/>
  </linearGradient>
  <filter id="filter1600" x="-.038959" y="-.038766" width="1.0779" height="1.0775" color-interpolation-filters="sRGB">
   <feGaussianBlur stdDeviation="0.21503788"/>
  </filter>
 </defs>
 <g stroke-linecap="round" stroke-linejoin="round">
  <rect transform="matrix(.99138 0 0 1 .072989 .0019055)" x=".79375" y=".90545" width="15.346" height="15.346" rx="3.0526" ry="3.0526" fill="#000000" filter="url(#filter1178)" opacity=".15" stroke-width="1.2489" style="mix-blend-mode:normal"/>
  <rect x=".92604" y=".92604" width="15.081" height="15.081" rx="3" ry="3" fill="url(#linearGradient862)" stroke-width="1.2274"/>
  <rect x=".01215" y=".0060174" width="16.924" height="16.927" fill="none" opacity=".15" stroke-width="1.052"/>
 </g>
 <g transform="matrix(.77512 0 0 .77512 19.851 -.43504)" clip-rule="evenodd" fill="#2e3440" fill-rule="evenodd" filter="url(#filter1600)" opacity=".35787" shape-rendering="geometricPrecision" stroke-width=".020699">
  <path d="m-11.654 13.131c-0.16379-0.08337-0.97522-0.48089-1.1258-0.53589-0.1506-0.05502-0.26039-0.08337-0.3721 0.08335-0.10904 0.16381-0.42612 0.53589-0.52268 0.64714-0.09658 0.10929-0.19217 0.12492-0.35595 0.04156-0.16381-0.08337-0.697-0.2572-1.326-0.819-0.48919-0.43664-0.82095-0.97741-0.91753-1.1412-0.09656-0.16381-0.01076-0.25476 0.07311-0.33517 0.07578-0.07336 0.16404-0.19217 0.24716-0.28875 0.08337-0.09656 0.10929-0.16404 0.16404-0.2755 0.05502-0.10929 0.02813-0.20587-0.01319-0.28875-0.04156-0.0831-0.3721-0.89453-0.5068-1.225-0.13226-0.32296-0.27039-0.27798-0.37185-0.28359-0.09656-0.00491-0.20585-0.00491-0.31462-0.00491-0.10881 0-0.28874 0.041314-0.43933 0.2056-0.1506 0.16381-0.57745 0.56424-0.57745 1.3754 0 0.81141 0.59016 1.594 0.67304 1.7057 0.08335 0.10902 1.1625 1.7756 2.8156 2.4888 0.39286 0.16892 0.69968 0.27038 0.93878 0.34885 0.3953 0.12469 0.75395 0.1066 1.0375 0.06479 0.3171-0.0467 0.97522-0.39801 1.1133-0.78305 0.13789-0.3853 0.13789-0.71485 0.09658-0.78305-0.03912-0.07336-0.14816-0.11392-0.31464-0.19829l-0.0012 9.94e-4z" image-rendering="optimizeQuality"/>
  <path d="m-9.9947 7.0881c-1.2456-1.2482-2.9024-1.9347-4.667-1.9347-3.6351-2.07e-5 -6.5937 2.9589-6.5937 6.5966 0 1.162 0.30437 2.2986 0.88108 3.2972l-0.93632 3.419 3.4972-0.91778c0.96445 0.52537 2.0494 0.80383 3.1508 0.80383h0.0027c3.6353 0 6.5964-2.9589 6.5964-6.5964 0-1.7631-0.68649-3.419-1.9321-4.6668l9.728e-4 -9.728e-4zm-4.6651 10.151c-0.98523 0-1.9502-0.2655-2.7921-0.76496l-0.20072-0.1198-2.0753 0.54348 0.55423-2.0228-0.12982-0.20781c-0.55178-0.87133-0.83974-1.8798-0.83974-2.9171 0-3.0237 2.4597-5.4843 5.4865-5.4843 1.4637 0 2.8425 0.57232 3.8769 1.6067 1.0348 1.0376 1.604 2.4132 1.604 3.8793-0.00244 3.0259-2.4621 5.4865-5.4843 5.4865l4.97e-4 7.45e-4z" image-rendering="optimizeQuality"/>
 </g>
 <g transform="matrix(.77512 0 0 .77512 19.851 -.68749)" clip-rule="evenodd" fill="url(#linearGradient1296)" fill-rule="evenodd" shape-rendering="geometricPrecision" stroke-width=".020699">
  <path d="m-11.654 13.131c-0.16379-0.08337-0.97522-0.48089-1.1258-0.53589-0.1506-0.05502-0.26039-0.08337-0.3721 0.08335-0.10904 0.16381-0.42612 0.53589-0.52268 0.64714-0.09658 0.10929-0.19217 0.12492-0.35595 0.04156-0.16381-0.08337-0.697-0.2572-1.326-0.819-0.48919-0.43664-0.82095-0.97741-0.91753-1.1412-0.09656-0.16381-0.01076-0.25476 0.07311-0.33517 0.07578-0.07336 0.16404-0.19217 0.24716-0.28875 0.08337-0.09656 0.10929-0.16404 0.16404-0.2755 0.05502-0.10929 0.02813-0.20587-0.01319-0.28875-0.04156-0.0831-0.3721-0.89453-0.5068-1.225-0.13226-0.32296-0.27039-0.27798-0.37185-0.28359-0.09656-0.00491-0.20585-0.00491-0.31462-0.00491-0.10881 0-0.28874 0.041314-0.43933 0.2056-0.1506 0.16381-0.57745 0.56424-0.57745 1.3754 0 0.81141 0.59016 1.594 0.67304 1.7057 0.08335 0.10902 1.1625 1.7756 2.8156 2.4888 0.39286 0.16892 0.69968 0.27038 0.93878 0.34885 0.3953 0.12469 0.75395 0.1066 1.0375 0.06479 0.3171-0.0467 0.97522-0.39801 1.1133-0.78305 0.13789-0.3853 0.13789-0.71485 0.09658-0.78305-0.03912-0.07336-0.14816-0.11392-0.31464-0.19829l-0.0012 9.94e-4z" image-rendering="optimizeQuality"/>
  <path d="m-9.9947 7.0881c-1.2456-1.2482-2.9024-1.9347-4.667-1.9347-3.6351-2.07e-5 -6.5937 2.9589-6.5937 6.5966 0 1.162 0.30437 2.2986 0.88108 3.2972l-0.93632 3.419 3.4972-0.91778c0.96445 0.52537 2.0494 0.80383 3.1508 0.80383h0.0027c3.6353 0 6.5964-2.9589 6.5964-6.5964 0-1.7631-0.68649-3.419-1.9321-4.6668l9.728e-4 -9.728e-4zm-4.6651 10.151c-0.98523 0-1.9502-0.2655-2.7921-0.76496l-0.20072-0.1198-2.0753 0.54348 0.55423-2.0228-0.12982-0.20781c-0.55178-0.87133-0.83974-1.8798-0.83974-2.9171 0-3.0237 2.4597-5.4843 5.4865-5.4843 1.4637 0 2.8425 0.57232 3.8769 1.6067 1.0348 1.0376 1.604 2.4132 1.604 3.8793-0.00244 3.0259-2.4621 5.4865-5.4843 5.4865l4.97e-4 7.45e-4z" image-rendering="optimizeQuality"/>
 </g>
</svg>
