<svg width="64" height="64" version="1.1" viewBox="0 0 16.933 16.933" xmlns="http://www.w3.org/2000/svg">
 <defs>
  <linearGradient id="a" x1="8.587" x2="8.587" y1="15.747" y2="1.097" gradientTransform="matrix(1.0178 0 0 1.0178 -.15083 -.14268)" gradientUnits="userSpaceOnUse">
   <stop stop-color="#2e3440" offset="0"/>
   <stop stop-color="#4c566a" offset="1"/>
  </linearGradient>
  <filter id="filter1078" x="-.026314" y="-.027723" width="1.0526" height="1.0554" color-interpolation-filters="sRGB">
   <feGaussianBlur stdDeviation="0.45999875"/>
  </filter>
  <linearGradient id="linearGradient467" x1="8.8655" x2="8.8655" y1="3.3171" y2="13.735" gradientUnits="userSpaceOnUse">
   <stop stop-color="#eceff4" offset="0"/>
   <stop stop-color="#d8dee9" offset="1"/>
  </linearGradient>
  <filter id="filter1178" x="-.047999" y="-.047999" width="1.096" height="1.096" color-interpolation-filters="sRGB">
   <feGaussianBlur stdDeviation="0.30691668"/>
  </filter>
 </defs>
 <g transform="translate(-.00025546 -.11386)">
  <rect transform="matrix(.99138 0 0 1 .072989 .0019055)" x=".79375" y=".90545" width="15.346" height="15.346" rx="3.0526" ry="3.0526" fill="#000000" filter="url(#filter1178)" opacity=".15" stroke-linecap="round" stroke-linejoin="round" stroke-width="1.2489" style="mix-blend-mode:normal"/>
 </g>
 <rect x=".92602" y=".92602" width="15.081" height="15.081" rx="3.0536" ry="3.0535" fill="url(#a)" stroke-width="1.0178"/>
 <path transform="matrix(.26458 0 0 .26458 -.00024434 .0079592)" d="m32.77 45.109c-0.0065-0.07949-0.04764-0.15188-0.06978-0.22744-0.05018-0.17163-0.09903-0.34326-0.14573-0.51589-0.15726-0.58129-0.31591-1.1631-0.46197-1.7474-0.19887-0.79553-0.38658-1.5952-0.60626-2.3853-0.16353-0.58811-0.35668-1.1671-0.52787-1.7529-0.20325-0.69574-0.39973-1.3926-0.62916-2.0802-0.23609-0.70755-0.56315-1.3837-0.8551-2.0691-0.08909-0.20913-0.18129-0.41255-0.29401-0.6102-0.03826-0.06706-0.05806-0.16236-0.1212-0.21079 0.01824 0.08814 0.06054 0.17119 0.09197 0.25517 0.0526 0.14074 0.10479 0.28325 0.14811 0.42714 0.18544 0.61569 0.36373 1.2339 0.51784 1.8583 0.2747 1.1132 0.50002 2.237 0.74859 3.3561 0.03962 0.17856 0.06491 0.36012 0.10707 0.53808 0.33699 1.4218 0.77123 2.8197 1.1427 4.2325 0.24159 0.91862 0.48439 1.8386 0.76635 2.7459 0.11293 0.36346 0.26161 0.71382 0.36123 1.0817 0.04725 0.17441 0.09347 0.35086 0.09347 0.53253-0.09774-0.09785-0.14578-0.23164-0.20403-0.35502-0.10677-0.2261-0.20996-0.45353-0.31108-0.6823-0.36151-0.81766-0.69751-1.646-1.0204-2.4796-0.59578-1.538-1.2498-3.0567-1.7909-4.6153-0.46508-1.3397-0.82104-2.7183-1.3253-4.0439-0.15959-0.41953-0.29395-0.84756-0.44439-1.2703-0.16752-0.47068-0.34232-0.93953-0.48038-1.4201-0.07389-0.25711-0.13935-0.51722-0.224-0.77106-0.03447-0.10351-0.06289-0.23853-0.15715-0.3051 0.02086 0.07639 0.04842 0.14928 0.06406 0.22743 0.03897 0.1951 0.04966 0.39652 0.07616 0.59356 0.02581 0.19154 0.06795 0.38398 0.08115 0.57691 0.0094 0.13834-0.0013 0.27797 0.01251 0.41603 0.04998 0.49964 0.13918 0.99773 0.22511 1.4922 0.08154 0.46946 0.15154 0.94519 0.26144 1.409 0.19532 0.82387 0.44277 1.6382 0.69389 2.4463 0.17558 0.56476 0.34654 1.1306 0.54963 1.6863 0.364 0.99617 0.76695 1.98 1.1669 2.9622 0.14711 0.36135 0.29222 0.72419 0.4349 1.0873 0.04907 0.12504 0.0882 0.25318 0.13979 0.37721-0.09008-0.09008-0.14945-0.20064-0.22854-0.29955-0.17606-0.22005-0.3548-0.43789-0.52821-0.66011-0.46086-0.59062-0.9326-1.1723-1.4127-1.7474-0.68779-0.82399-1.382-1.6444-2.1135-2.4297-0.43628-0.46841-0.90303-0.90919-1.353-1.3646-0.68092-0.68913-1.3471-1.3976-2.1135-1.9947-0.72058-0.56138-1.5022-1.0336-2.291-1.4913-0.35846-0.20807-0.71387-0.4202-1.0873-0.60087-0.24097-0.1166-0.49127-0.21357-0.73223-0.33017-0.17984-0.08698-0.3623-0.17147-0.53808-0.26654-0.11006-0.0595-0.2113-0.13574-0.33284-0.17025 0.08798 0.15222 0.29145 0.24436 0.42715 0.34881 0.27874 0.21468 0.54207 0.44971 0.80434 0.68391 0.99023 0.88417 1.9924 1.7471 2.8836 2.7338 0.71703 0.79386 1.3779 1.6448 1.9628 2.5406 0.39302 0.60198 0.74593 1.2288 1.1214 1.8417 0.43135 0.70406 0.86659 1.4061 1.3014 2.1079 0.27736 0.4476 0.58683 0.8718 0.9174 1.2814 0.11931 0.14778 0.23653 0.29739 0.35751 0.44378 0.08045 0.0973 0.1708 0.18594 0.23714 0.294-0.12076-0.0333-0.20585-0.15278-0.29954-0.22855-0.2154-0.17407-0.43607-0.34221-0.65457-0.51245-0.40317-0.31414-0.75852-0.68053-1.1316-1.0281-0.56165-0.52321-1.1211-1.0606-1.5844-1.6758-0.22899-0.30404-0.44-0.62024-0.65818-0.93193-0.06557-0.0937-0.13319-0.18572-0.20163-0.27736-0.03735-0.04998-0.0705-0.11001-0.12409-0.14423 0.05768 0.13857 0.15182 0.26455 0.22738 0.39385 0.09408 0.16104 0.1759 0.32967 0.26461 0.4937 0.27353 0.5058 0.54884 1.0103 0.86342 1.4922 0.30122 0.46131 0.64624 0.90065 1.0093 1.3147 0.22206 0.25323 0.45969 0.49393 0.71958 0.70866 0.10146 0.08381 0.20214 0.16902 0.30509 0.25101 0.06042 0.04809 0.13248 0.09142 0.17752 0.15532-0.24103-0.18528-0.48526-0.36256-0.71559-0.56182-0.45892-0.39706-0.8931-0.8216-1.3369-1.235-0.61534-0.57325-1.237-1.1457-1.8019-1.7701-0.31153-0.34437-0.62649-0.69446-0.88478-1.0817-0.10412-0.15604-0.20435-0.31447-0.30693-0.47151-0.04523-0.06928-0.08281-0.16187-0.15166-0.21079 0.02346 0.10134 0.08414 0.18849 0.12526 0.28291 0.10413 0.23936 0.21906 0.47295 0.32789 0.71004 0.06361 0.13863 0.11938 0.28174 0.19205 0.41604 0.26849 0.49648 0.62179 0.9519 0.96544 1.3979 0.25618 0.3325 0.51067 0.66583 0.78732 0.98186 0.22628 0.25839 0.47151 0.5003 0.71958 0.73756 0.31193 0.29827 0.62096 0.60503 0.94858 0.88617 0.12165 0.1044 0.24835 0.20375 0.37167 0.30626 0.05768 0.0479 0.1282 0.08815 0.17196 0.15022-0.06503-0.0088-0.12364-0.04399-0.18306-0.06978-0.13635-0.05911-0.2666-0.12875-0.39939-0.19509-0.40323-0.20165-0.80324-0.409-1.2037-0.61569-0.76341-0.39402-1.4852-0.85899-2.23-1.286-0.50092-0.28718-1.0239-0.53403-1.5199-0.83003-0.29477-0.1759-0.60159-0.34093-0.88201-0.5393-0.19481-0.13785-0.37665-0.33172-0.5991-0.42481 0.04699 0.09886 0.14313 0.17529 0.21541 0.25517 0.14051 0.15532 0.27924 0.31236 0.41548 0.47152 0.37416 0.43712 0.80801 0.79236 1.2607 1.1451 0.58895 0.45887 1.1962 0.87258 1.8306 1.2657 0.31436 0.19477 0.63116 0.3832 0.95412 0.56338 0.15443 0.08615 0.3558 0.14866 0.46596 0.29323-0.363-0.02867-0.70794-0.10972-1.0651-0.17862-0.31059-0.05989-0.62495-0.10257-0.93747-0.151-0.299-0.0464-0.59633-0.10961-0.89866-0.13031-0.14922-0.01017-0.29932 0.0033-0.44932-5.53e-4 -0.40234-0.0099-0.80213-0.0059-1.2037 0.02177-0.18794 0.01284-0.37777-0.0065-0.56582 0.0066-0.39418 0.02698-0.78953 0.07711-1.1816 0.12864-0.2144 0.02821-0.42679 0.07089-0.63793 0.11727-0.12238 0.02691-0.24158 0.06511-0.36611 0.08087v0.01107c0.07665-5.54e-4 0.15216-0.02945 0.22744-0.0421 0.1841-0.03089 0.36899-0.06472 0.55471-0.08454 0.39846-0.04269 0.79254-0.05279 1.1927-0.05083 0.17085 6.52e-4 0.34548-0.01115 0.51589 4.43e-4 0.36678 0.02516 0.72796 0.09918 1.0928 0.14284 0.28996 0.03473 0.58468 0.04021 0.87092 0.10306 0.47922 0.10529 0.93792 0.28257 1.409 0.41687 0.81627 0.23277 1.6355 0.45516 2.4519 0.68792 0.63743 0.18172 1.2655 0.39779 1.9082 0.56055 0.19937 0.05044 0.39956 0.09719 0.5991 0.147 0.09081 0.02261 0.19216 0.02502 0.26626 0.08803-0.22205 0-0.44305 0.01923-0.66565 0.01662-0.52649-0.0065-1.0549-0.04334-1.581-0.06635-0.49698-0.02177-0.99523-0.01753-1.4922-0.0393-0.52738-0.02307-1.0526-0.08776-1.581-0.09408-0.47034-0.0059-0.94054 0.02848-1.409 0.06054-0.28058 0.01916-0.56254 0.01512-0.84318 0.03428-0.29062 0.01994-0.58029 0.05676-0.87091 0.07667-0.20325 0.01395-0.40767 0.01597-0.61019 0.04092-0.28729 0.03532-0.56903 0.10345-0.85427 0.15128-0.18972 0.03187-0.38199 0.04829-0.57137 0.08242-0.32962 0.0595-0.66133 0.11594-0.9874 0.1931-0.17441 0.04131-0.34516 0.12077-0.52699 0.12077v0.01662c0.17385-0.0013 0.34404-0.05468 0.51589-0.07605 0.42614-0.05305 0.85833-0.10468 1.287-0.12343 0.25024-0.01095 0.50979 0 0.75997 0.01069 0.32529 0.01427 0.65114 0.01355 0.9763 0.02776 0.66368 0.02906 1.3241 0.03298 1.9859 0.09913 0.42436 0.04243 0.853 0.04829 1.2759 0.10401 0.10152 0.01336 0.20403 2e-3 0.3051 0.02228 0.04027 8e-3 0.08243 0.0079 0.11094 0.04106-0.51378 0-1.0134 0.11412-1.5199 0.18711-0.32972 0.04751-0.66256 0.06178-0.99295 0.10296-0.29733 0.03702-0.59155 0.09436-0.88755 0.14028-0.3239 0.05018-0.65235 0.0537-0.97632 0.10368-0.28611 0.04425-0.56815 0.11266-0.85426 0.15705-0.17308 0.02685-0.34821 0.0288-0.52145 0.05376-0.36589 0.05279-0.72818 0.13463-1.0928 0.19576-0.14162 0.02379-0.28551 0.02548-0.42713 0.04927-0.25334 0.04249-0.50135 0.11306-0.75442 0.15705-0.32042 0.05565-0.64526 0.07916-0.96522 0.13685-0.14367 0.02594-0.28358 0.06928-0.42714 0.09518-0.65213 0.11766-1.306 0.2255-1.9582 0.34304-0.20891 0.03767-0.41821 0.07288-0.62684 0.11201-0.14112 0.02646-0.27803 0.06296-0.42159 0.07426v0.01115c0.23204 0 0.45837-0.05487 0.68785-0.08232 0.26609-0.03187 0.53303-0.05624 0.7988-0.0912 0.25174-0.03311 0.50169-0.07766 0.75442-0.1029 0.37506-0.03747 0.7511-0.05599 1.1261-0.09618 0.39708-0.04249 0.78949-0.1211 1.1871-0.15899 0.38686-0.03682 0.77806-0.0094 1.1649-0.04627 0.5884-0.05598 1.1745-0.14118 1.764-0.18163 0.53908-0.03695 1.081-0.01955 1.6198-0.05644 0.53202-0.03643 1.0648-0.10906 1.5976-0.13242 0.08903-0.0039 0.17762 0.0089 0.26626 0.0052 0.44934-0.01968 0.89866-0.04647 1.348-0.06614 0.13501-0.0059 0.26981 0.0069 0.40494 0.0052 0.22706-0.0026 0.45499-0.01115 0.68232-0.01668 0.77655-0.01903 1.553-0.04744 2.3298-0.06645 0.55256-0.01349 1.1065 0.01284 1.6586-0.01134 0.51062-0.02236 1.0203-0.06595 1.531-0.08831 0.34521-0.01512 0.69208 0.0091 1.0373-0.0059 1.7835-0.07804 3.572-0.07745 5.3586-0.07745 1.8348 0 3.6693-0.01166 5.5028 0.03324 0.69557 0.01694 1.3909 0.02737 2.0858 0.04438 0.2382 0.0059 0.47756-0.0101 0.71558 0 0.61042 0.02665 1.2211 0.08515 1.8306 0.12686 0.6011 0.04119 1.2065 0.02985 1.8084 0.05617 0.58978 0.02581 1.1711 0.12503 1.7585 0.1819 0.20885 0.02027 0.41782 0.0033 0.62684 0.01225 0.22716 0.0099 0.45653 0.03982 0.68231 0.06795 0.35296 0.04386 0.70698 0.08005 1.0595 0.12753 0.16375 0.02209 0.32839 0.08383 0.49371 0.08721v-0.0059c-0.19953-0.116-0.45304-0.14572-0.67676-0.1835-0.20974-0.03538-0.41654-0.08576-0.62683-0.11838-0.31797-0.04933-0.63922-0.08721-0.95413-0.15415-0.21029-0.0447-0.41493-0.11594-0.62684-0.15278-0.28495-0.04947-0.57618-0.04809-0.85981-0.10679-0.21744-0.04503-0.43029-0.108-0.64902-0.14745-0.24191-0.0436-0.48876-0.05506-0.73222-0.08708-0.28807-0.03786-0.57131-0.10717-0.85982-0.14178-0.33034-0.03969-0.66212-0.05195-0.99295-0.08504-0.43235-0.04321-0.85999-0.1282-1.2925-0.17008-0.33977-0.03292-0.68103-0.04008-1.0207-0.074-0.44283-0.04425-0.88302-0.11472-1.3258-0.15897-0.4466-0.04464-0.8961-0.03708-1.3424-0.07955-1.1505-0.10956-2.2936-0.19876-3.4504-0.19876 0.05794-0.04921 0.13557-0.06629 0.20524-0.09324 0.17142-0.0664 0.34897-0.11117 0.52698-0.15566 0.52732-0.13186 1.0573-0.25695 1.5809-0.40245 1.2436-0.34559 2.4654-0.76502 3.7111-1.1024 0.7613-0.20619 1.5356-0.42076 2.3298-0.42076v-0.01107c-0.55117 0-1.094 0.03858-1.642 0.09335-0.17563 0.01759-0.35209 0.02737-0.52698 0.05325-0.37682 0.05572-0.75969 0.12309-1.1316 0.20519-0.15659 0.0346-0.30892 0.08715-0.46596 0.11971-0.2099 0.04346-0.42242 0.07305-0.63238 0.1165-0.17912 0.03708-0.35392 0.09153-0.53253 0.1308-0.47611 0.10456-0.95578 0.19082-1.4312 0.29994-0.39957 0.09169-0.7993 0.18412-1.1982 0.27864-0.2596 0.06158-0.51477 0.13912-0.7766 0.19149-0.12248 0.02451-0.24563 0.05024-0.36611 0.08337-0.08083 0.02216-0.17136 0.06054-0.25517 0.06419 0.07832-0.07478 0.18428-0.10662 0.2829-0.14534 0.12315-0.04836 0.2433-0.10395 0.36612-0.1531 0.45209-0.18084 0.90336-0.36462 1.3535-0.55034 0.5879-0.24257 1.1872-0.45643 1.7751-0.69895 0.83857-0.34598 1.6798-0.7025 2.5517-0.95729 0.43279-0.12642 0.88566-0.18361 1.3313-0.24568 0.16021-0.02228 0.34698 0.02275 0.49926-0.03402v-0.0059l-0.85982-0.02216-0.85427 0.06602-0.7766 0.0408-0.60465 0.13486-0.78771 0.18217-0.78216 0.27476-1.176 0.45515c0.04705-0.11238 0.16602-0.18267 0.24962-0.26627 0.19792-0.19792 0.40112-0.39002 0.5991-0.588 0.58273-0.58273 1.1428-1.1981 1.6158-1.875 0.31513-0.45104 0.54269-0.96167 0.76075-1.4645 0.2433-0.56088 0.49326-1.1631 0.56742-1.7751 0.01192-0.09807 0.0065-0.19582 0.01322-0.29401 0.02157-0.31503 0.02972-0.63255 0.0159-0.94857-0.0093-0.21207-0.02646-0.42569-0.0275-0.63793 0-0.11755 0.0039-0.23831 0.01824-0.35502 0.0081-0.06511 0.02887-0.12847 0.03168-0.19415-0.04921 0.0039-0.06022 0.10329-0.07394 0.14423-0.05435 0.16142-0.09114 0.31769-0.10308 0.48816-0.01342 0.19155-0.026 0.38248-0.064 0.57136-0.04301 0.21374-0.11178 0.42215-0.16864 0.63238-0.07776 0.2874-0.15149 0.57059-0.27437 0.84318-0.29688 0.65878-0.70033 1.2483-1.1165 1.8361-0.16719 0.2362-0.32291 0.48067-0.49965 0.71005-0.48476 0.62905-1.026 1.2213-1.5995 1.7698-0.30936 0.29583-0.62695 0.57996-0.95412 0.85638-0.09592 0.08104-0.19039 0.16326-0.28845 0.24174-0.05279 0.0423-0.10329 0.09009-0.16642 0.11649 0.20897-0.3072 0.45553-0.58667 0.65007-0.90419 0.28757-0.46946 0.52094-0.9696 0.76036-1.4645 0.28685-0.59288 0.57685-1.188 0.81505-1.8028 0.19693-0.50846 0.35119-1.0314 0.50774-1.5532 0.03806-0.12686 0.09442-0.25018 0.12913-0.37721-0.05794 0.03272-0.07877 0.1156-0.10677 0.17196-0.06935 0.13968-0.13608 0.28058-0.20265 0.42159-0.2423 0.51301-0.48111 1.0328-0.77338 1.5199-0.43347 0.72247-0.9042 1.4213-1.376 2.119-0.16215 0.23975-0.30366 0.49292-0.46647 0.73224-0.20175 0.29644-0.42442 0.57857-0.63953 0.86536-0.29151 0.38869-0.56976 0.78598-0.88806 1.1538-0.10401 0.12021-0.19171 0.24979-0.31219 0.35502 0.11583-0.20807 0.27531-0.39995 0.41372-0.59355 0.2596-0.36312 0.51733-0.72691 0.75647-1.1039 0.33731-0.53187 0.64625-1.0808 0.96227-1.6253 0.56054-0.96577 1.1029-1.9413 1.5572-2.9622 0.21218-0.47678 0.38753-0.96599 0.57292-1.4534 0.1962-0.51572 0.40234-1.0277 0.58739-1.5477 0.09392-0.26394 0.16903-0.53414 0.26089-0.7988 0.17263-0.49725 0.36346-0.99018 0.56715-1.4756 0.23104-0.55062 0.43074-1.1184 0.73134-1.6364 0.31504-0.54274 0.71442-1.0581 1.1681-1.492 0.11754-0.11238 0.23891-0.2164 0.37721-0.30299 0.1004-0.06282 0.24053-0.12093 0.30509-0.22422-0.08975 0.01134-0.17341 0.03988-0.26072 0.06172-0.2114 0.05292-0.41831 0.11555-0.62684 0.17835-0.28723 0.08654-0.57386 0.16375-0.84871 0.28612-0.39785 0.17718-0.77362 0.40844-1.1316 0.65519-0.39684 0.27354-0.78298 0.5712-1.1316 0.90458-0.54641 0.5225-1.0184 1.1209-1.4991 1.7028-0.55838 0.67576-1.1028 1.3638-1.6161 2.0747-0.35513 0.49193-0.70317 0.99096-1.0283 1.5033-0.11505 0.18128-0.22693 0.36495-0.34604 0.54362-0.06928 0.1039-0.13308 0.21413-0.23115 0.294l0.08703-0.18861 0.17136-0.38276 0.58396-1.4145 0.19376-0.44378 0.13435-0.294c-0.04184 0.03089-0.06192 0.08226-0.08459 0.12758-0.03298 0.06607-0.06962 0.13008-0.10634 0.19415-0.16114 0.28113-0.31098 0.56642-0.45953 0.85427-0.31197 0.60443-0.61508 1.217-0.87169 1.8472-0.22111 0.54319-0.39862 1.1026-0.58396 1.6586-0.13413 0.4024-0.23908 0.82083-0.39569 1.2148-0.03617 0.09103-0.07378 0.18305-0.10063 0.27735-0.0052 0.01773-0.01349 0.0876-0.03799 0.0876-0.0204 0-0.01669-0.03617-0.01669-0.04874 0-0.05298 0.0045-0.10828-0.0026-0.16087-0.01245-0.09436-0.0045-0.19338-0.0089-0.28846-0.0059-0.13663-0.01643-0.27353-0.01643-0.41049 0-0.71126-0.02307-1.424-0.0059-2.1357 0.0067-0.27559-0.01401-0.55777 0.01212-0.83208 0.01643-0.17252 0.0083-0.34826 0.0159-0.52144l0.0333-0.75442c0.01304-0.29794 0.04197-0.59522 0.055-0.89311 0.02261-0.51738 0.01662-1.0357 0.0393-1.5532 0.01923-0.43823 0.04184-0.87634 0.061-1.3147 0.02203-0.50364 0.08974-1.0013 0.13752-1.5033 0.01121-0.11787 0.0045-0.23698 0.01251-0.35502 0.02352-0.34365 0.03989-0.68869 0.07257-1.0318 0.04204-0.4414 0.11682-0.87913 0.15898-1.3202 0.03265-0.3416 0.03741-0.68464 0.074-1.0262 0.05083-0.47523 0.14695-0.94475 0.19782-1.4201 0.02444-0.22815 0.05475-0.45525 0.0882-0.6823 0.01857-0.12609 0.03239-0.26682 0.11188-0.37166 0.09663-0.12748 0.18062-0.02053 0.23215 0.0832 0.1008 0.20286 0.15256 0.43928 0.2214 0.65457 0.08309 0.26005 0.13962 0.53087 0.23104 0.78771 0.02809 0.0791 0.05598 0.22782 0.12608 0.2793 0.06237 0.04582 0.14657 0.01799 0.21612 0.01493 0.18334-8e-3 0.36174-0.02939 0.54363-0.055 0.5048-0.071 1.007-0.15427 1.5144-0.20503 0.18128-0.01812 0.36245-0.03611 0.54363-0.05546 0.10335-0.01108 0.21551-0.01883 0.31064-0.06472 0.18604-0.0897 0.11139-0.39213 0.11139-0.552 0-0.32007 0.03284-0.63959 0.03284-0.95966 0-0.22316-0.01297-0.43906 0.19969-0.57447 0.12814-0.0816 0.2752-0.1298 0.4105-0.19798 0.17358-0.08736 0.33777-0.1961 0.49926-0.30371 0.11261-0.07505 0.25262-0.21279 0.39962-0.19332 0.15598 0.02066 0.30287 0.13513 0.438 0.20824 0.27902 0.15094 0.56126 0.29589 0.84318 0.44139 0.09479 0.04894 0.18743 0.10196 0.28291 0.14972 0.04725 0.02366 0.10041 0.05617 0.15532 0.0535 0.0801-0.0039 0.14761-0.076 0.19648-0.13258 0.10883-0.12598 0.19875-0.26599 0.30521-0.39385 0.37337-0.44861 0.71153-0.92456 1.0675-1.3868 0.09524-0.12365 0.19359-0.24541 0.29251-0.36612 0.046-0.05605 0.11188-0.11438 0.12686-0.1886 0.01036-0.05162-0.03206-0.10096-0.06133-0.13868-0.07871-0.10146-0.16792-0.19116-0.25744-0.28291-0.18927-0.19404-0.35658-0.40872-0.5439-0.60464-0.14001-0.14645-0.30959-0.27287-0.41465-0.44933-0.0851-0.14284 0.01173-0.30104 0.06308-0.43822 0.08465-0.22655 0.15866-0.46275 0.21079-0.69895 0.03154-0.14329 0.03102-0.29428 0.08394-0.43268 0.05618-0.14711 0.25217-0.17252 0.38436-0.21002 0.35829-0.10157 0.7202-0.19072 1.0762-0.30022 0.13341-0.04099 0.40338-0.06211 0.43562-0.2331 0.01245-0.06607-0.0148-0.13474-0.02359-0.1997-0.01838-0.1363-0.03037-0.27376-0.04503-0.4105-0.06119-0.57159-0.20585-1.1444-0.22277-1.7196-0.0052-0.18378-0.04797-0.36584-0.06061-0.54918-0.0052-0.07938-0.0071-0.18272-0.07822-0.23498-0.1415-0.104-0.3862-0.0535-0.54912-0.0535-0.27242 0-0.54351-0.02731-0.81544-0.02776-0.17673-2.21e-4 -0.38136 0.03219-0.54917-0.03578-0.16952-0.06878-0.2109-0.28029-0.28169-0.43018-0.11378-0.24092-0.26034-0.47506-0.40445-0.69895-0.05077-0.07883-0.11216-0.15094-0.15782-0.23299-0.08126-0.146 0.08509-0.3219 0.15455-0.44378 0.11422-0.20053 0.21551-0.40855 0.32806-0.61019 0.07843-0.14045 0.17296-0.27292 0.24618-0.41604 0.06237-0.12176 0.17218-0.27286 0.07944-0.40494-0.0582-0.08293-0.14228-0.1429-0.21945-0.20664-0.14129-0.11666-0.28823-0.22666-0.43267-0.33932-0.40701-0.31758-0.80763-0.64325-1.2148-0.96055-0.14095-0.10978-0.28579-0.2149-0.42159-0.33111-0.05057-0.04334-0.11998-0.11495-0.19415-0.09397-0.06198 0.01746-0.10883 0.06973-0.15533 0.11116-0.08126 0.07256-0.16526 0.14179-0.24408 0.21707-0.2408 0.22988-0.49641 0.44411-0.74887 0.66106-0.13425 0.11538-0.28851 0.33111-0.4826 0.27265-0.34172-0.10296-0.67555-0.24208-1.0262-0.31331-0.17145-0.03481-0.38419-0.03168-0.48776-0.19859-0.07932-0.1277-0.08432-0.29633-0.12476-0.43823-0.08093-0.28391-0.18472-0.56226-0.25634-0.84872-0.03656-0.14628-0.06939-0.41954-0.24613-0.4622-0.09026-0.02177-0.1866 0.0032-0.27735 0.01192-0.18118 0.01734-0.3579 0.03851-0.53808 0.06511-0.52677 0.07788-1.0566 0.14822-1.5865 0.20114-0.17701 0.01773-0.35669 0.0264-0.53254 0.05416-0.07643 0.01206-0.16503 0.03317-0.20319 0.10766-0.06817 0.13324-0.02959 0.31653-0.02978 0.46042-0.0013 0.33539-0.02398 0.67443-0.03858 1.0096-0.0059 0.13014 0.03102 0.30055-0.02411 0.42159-0.04073 0.08937-0.15016 0.13918-0.23125 0.18627-0.27609 0.16021-0.58213 0.26716-0.83763 0.46208-0.09951 0.07594-0.25422 0.24081-0.39385 0.21906-0.05475-0.0085-0.10129-0.04281-0.14978-0.06723-0.09296-0.04679-0.18616-0.09386-0.27735-0.1439-0.26322-0.14456-0.53786-0.26953-0.79881-0.41776-0.10794-0.06133-0.21622-0.12337-0.32728-0.1789-0.04809-0.02398-0.11094-0.05741-0.16642-0.04568-0.08371 0.01773-0.13867 0.10668-0.18861 0.16908-0.11916 0.14894-0.23986 0.29672-0.35429 0.44933-0.32512 0.43346-0.66522 0.85571-1.0004 1.2814-0.12858 0.16331-0.27087 0.3178-0.39025 0.48816-0.02405 0.03434-0.05311 0.07822-0.05161 0.12204 2e-3 0.05207 0.04399 0.10024 0.07473 0.13868 0.07005 0.08771 0.14478 0.1703 0.2241 0.24962 0.25906 0.25905 0.49531 0.53969 0.75443 0.7988 0.12376 0.12376 0.26937 0.24519 0.22244 0.43823-0.02679 0.11044-0.07595 0.21346-0.10905 0.32174-0.07649 0.24957-0.13546 0.50552-0.19299 0.75997-0.0333 0.14734-0.03089 0.33672-0.17002 0.43068-0.10474 0.07073-0.24225 0.08188-0.36058 0.11865-0.30748 0.09552-0.61968 0.17208-0.93193 0.25018-0.12359 0.03089-0.24751 0.0595-0.36611 0.1069-0.04308 0.0172-0.09996 0.03225-0.12959 0.0704-0.0423 0.05455-0.02575 0.13546-0.02575 0.1992 0 0.18184 0.02086 0.36462 0.05311 0.54363 0.04289 0.23809 0.05559 0.48138 0.0871 0.72114 0.04484 0.34071 0.11416 0.67848 0.14728 1.0207 0.01479 0.15288 0.02874 0.30715 0.0393 0.46041 0.0052 0.07888 0.0013 0.18056 0.0578 0.24358 0.04562 0.05077 0.113 0.05044 0.17568 0.05044h0.36058c0.27203 0 0.54346 0.03004 0.81543 0.0333 0.10557 0.0013 0.21102 0.01056 0.3162 0.01107 0.09081 4.43e-4 0.18905-0.0103 0.27736 0.01525 0.14228 0.04119 0.19398 0.24701 0.24414 0.3675 0.09546 0.22926 0.23065 0.44827 0.36789 0.65457 0.07416 0.11139 0.17257 0.21879 0.2231 0.34393 0.0621 0.15377-0.05995 0.3112-0.13218 0.43823-0.18762 0.32984-0.35846 0.667-0.53243 1.004-0.06939 0.13441-0.22704 0.31547-0.1521 0.47706 0.02144 0.04634 0.06178 0.08154 0.09808 0.11627 0.14733 0.1409 0.33305 0.24352 0.4937 0.36867 0.41189 0.32096 0.82964 0.63422 1.2426 0.95373 0.14284 0.1105 0.28136 0.22704 0.42159 0.34087 0.05806 0.04718 0.11266 0.12365 0.19414 0.12808 0.05396 0.0033 0.09764-0.03578 0.13869-0.06518 0.09879-0.07078 0.18422-0.15532 0.27182-0.23909 0.31019-0.29661 0.61773-0.60537 0.95966-0.86625 0.16813-0.12831 0.31874-0.14922 0.51589-0.07034 0.06028 0.02411 0.13091 0.04933 0.16408 0.10984 0.03688 0.06723 0.02555 0.15577 0.01121 0.22744-0.02815 0.14117-0.06601 0.28119-0.09829 0.42158-0.12599 0.54785-0.23061 1.1019-0.34104 1.6531-0.06367 0.31774-0.1348 0.63443-0.18838 0.95412-0.03337 0.19881-0.05155 0.3999-0.08244 0.5991-0.05506 0.35486-0.12182 0.7075-0.15759 1.0651-0.04321 0.4319-0.04386 0.86625-0.08509 1.298-0.06673 0.69822-0.14567 1.391-0.17635 2.0913-0.01564 0.35696-0.03428 0.71382-0.04992 1.0706-0.0045 0.1014 0.0065 0.2038-0.0013 0.3051-0.06607 0.96477-0.11232 1.9296-0.1546 2.8956-0.03441 0.78571 0.0026 1.5771-0.01681 2.3631-0.01323 0.54246-0.0013 1.0841 0.02236 1.6253 0.0059 0.14007 0.01643 0.2813 0.01643 0.42159 0 0.0421 0.01512 0.11865-0.01662 0.14977m3.1231-28.461c0.13274-0.0157 0.27636 0.0095 0.4105 0.0095 0.14866 0 0.29544-0.0076 0.44378 0.0065 0.29011 0.0277 0.57574 0.10013 0.85426 0.18367 0.25035 0.07511 0.49793 0.15849 0.73223 0.27564 0.22006 0.11 0.4202 0.25506 0.62129 0.39557 0.20874 0.14584 0.44539 0.26504 0.6208 0.45332 0.1551 0.16647 0.26066 0.36861 0.38897 0.55472 0.11704 0.16986 0.24879 0.32218 0.34758 0.5048 0.13452 0.24863 0.23398 0.51351 0.3198 0.78216 0.06829 0.21368 0.14445 0.42769 0.18439 0.64902 0.09474 0.52526 0.08716 1.0991 0.0059 1.6253-0.02737 0.17607-0.08342 0.33977-0.13241 0.51034-0.08409 0.29267-0.17634 0.59078-0.32184 0.85982-0.09912 0.18328-0.22655 0.34754-0.34032 0.52144-0.15438 0.23603-0.29206 0.48366-0.49559 0.68225-0.12115 0.11816-0.27403 0.20425-0.41604 0.29434-0.10395 0.06595-0.2012 0.14156-0.29955 0.21534-0.28884 0.21668-0.62545 0.36728-0.96522 0.48522-0.31336 0.10883-0.63554 0.19449-0.96521 0.23509-0.24224 0.02978-0.48832 0.02926-0.73223 0.02926-0.21729 0-0.43368 0.0026-0.64902-0.02926-0.2777-0.04092-0.54802-0.12049-0.81544-0.20358-0.20574-0.06393-0.41066-0.13452-0.60465-0.22904-0.20714-0.10096-0.39213-0.23825-0.58245-0.36651-0.17858-0.12032-0.38155-0.22034-0.53808-0.37006-0.25385-0.24274-0.41832-0.55288-0.60143-0.8485-0.11938-0.19265-0.23892-0.38619-0.33128-0.59355-0.15089-0.33883-0.24064-0.69446-0.32585-1.054-0.05853-0.2468-0.12797-0.48859-0.13912-0.74332-0.01519-0.34654 0.05448-0.69446 0.12619-1.0318 0.06795-0.31958 0.13668-0.64243 0.25312-0.94858 0.1075-0.28252 0.258-0.54618 0.42292-0.7988 0.17557-0.26898 0.33832-0.56365 0.5788-0.78121 0.15238-0.13785 0.32123-0.25562 0.48815-0.37494 0.28823-0.20608 0.58091-0.40001 0.90974-0.53569 0.49486-0.2042 1.0188-0.30216 1.5477-0.36456m5.8689 18.326c-0.01864 0.12437-0.12088 0.24868-0.18301 0.35502-0.09274 0.15876-0.16614 0.32933-0.24829 0.4937-0.33322 0.66644-0.67099 1.3243-0.95545 2.0136-0.33223 0.80523-0.66224 1.6134-0.98081 2.4241-0.09219 0.2347-0.16969 0.4749-0.26077 0.71004-0.15455 0.39901-0.32905 0.79281-0.50757 1.1816-0.25251 0.54995-0.56004 1.0744-0.85333 1.6031-0.40146 0.7238-0.79802 1.4479-1.224 2.1579-0.48355 0.8059-1.0013 1.5997-1.5797 2.3409-0.13602 0.1743-0.27913 0.34321-0.41726 0.51589-0.0578 0.07222-0.13092 0.17673-0.22854 0.19415 0.02555-0.11039 0.11809-0.19094 0.185-0.27736 0.1202-0.15532 0.23536-0.31608 0.33965-0.48261 0.33017-0.52726 0.59011-1.0912 0.86632-1.6475 0.24152-0.48649 0.50102-0.96415 0.73772-1.4534 0.67881-1.4029 1.3432-2.8129 2.0221-4.2159 0.12082-0.24974 0.25352-0.49353 0.37433-0.74333 0.10578-0.21861 0.2037-0.44073 0.31936-0.65457 0.13551-0.25051 0.2606-0.5053 0.38797-0.75997 0.05911-0.11815 0.13891-0.22943 0.18168-0.35502h-0.0059c-0.07977 0.1916-0.22094 0.35896-0.32495 0.53808-0.27214 0.46902-0.55982 0.92888-0.83208 1.3979-0.56465 0.97298-1.1356 1.9423-1.7054 2.9123-0.47244 0.80429-0.96243 1.6004-1.3798 2.4352-0.31369 0.62734-0.65146 1.2423-0.96522 1.8694-0.0801 0.16004-0.15793 0.32184-0.25655 0.47151-0.04034 0.06126-0.07223 0.13674-0.14978 0.15532v-0.53808c0-0.07877-0.01446-0.1597-0.0033-0.23853 0.075-0.52366 0.29279-1.0205 0.48466-1.5088 0.13141-0.33455 0.23797-0.6787 0.36489-1.0151 0.27475-0.72857 0.55594-1.4534 0.88867-2.1579 0.31026-0.65679 0.67365-1.2918 1.0576-1.9082 0.65363-1.0495 1.4404-2.0079 2.1812-2.9955 0.57136-0.76186 1.1756-1.5008 1.8493-2.1745 0.16664-0.16664 0.35386-0.30815 0.53254-0.46114 0.08005-0.06857 0.17723-0.17263 0.28845-0.18234m-2.021 3.3912 0.0039 2e-3 -0.0039-2e-3m-3.1102 0.17568v0.01107h0.01662v-0.01107h-0.01662m-11.804 1.703c0.22877 0.13036 0.39346 0.38237 0.5769 0.56581 0.44384 0.44384 0.87935 0.89904 1.2819 1.3813 0.27198 0.32585 0.55988 0.63804 0.83025 0.96522 0.21529 0.26061 0.41848 0.53092 0.63161 0.79325 0.63305 0.779 1.2624 1.5568 1.8752 2.352 0.39329 0.51041 0.78987 1.0176 1.1717 1.5366 0.0922 0.12526 0.17918 0.25445 0.27481 0.37721 0.06934 0.08898 0.15987 0.18306 0.19183 0.294-0.0876-7e-3 -0.16187-0.05989-0.23299-0.10722-0.0877-0.05839-0.17678-0.1156-0.26626-0.17119-0.46508-0.28885-0.89809-0.62983-1.298-1.0023-0.25206-0.23482-0.48687-0.49182-0.72163-0.74383-0.51784-0.55594-1.0113-1.1377-1.4505-1.7585-0.31202-0.44111-0.58018-0.9113-0.86447-1.3702-0.2209-0.35641-0.46131-0.69994-0.68581-1.054-0.32501-0.51234-0.64353-1.0336-0.99112-1.531-0.08776-0.12559-0.17418-0.25157-0.2534-0.38276-0.02171-0.03597-0.08537-0.09957-0.0699-0.14423m10.628 1.054-0.0059 0.0059 0.0059-0.0059m-19.193 8.5427v0.01115h0.01662v-0.01115h-0.01662m-5.2366 2.0247v0.01662h0.04438v-0.01662z" fill="#2e3440" filter="url(#filter1078)" opacity=".5"/>
 <path d="m8.6699 11.943c-0.00172-0.02103-0.012604-0.04019-0.018462-0.06018-0.013276-0.04541-0.026201-0.09082-0.038556-0.13649-0.041608-0.15379-0.083582-0.30774-0.12223-0.46231-0.052617-0.21048-0.10228-0.42206-0.1604-0.6311-0.043266-0.1556-0.094369-0.3088-0.13966-0.46378-0.053776-0.18408-0.10576-0.36845-0.16646-0.55038-0.062464-0.1872-0.149-0.3661-0.22624-0.54744-0.023571-0.05533-0.047965-0.10915-0.077789-0.16144-0.010123-0.01774-0.015361-0.04296-0.032067-0.05577 0.00483 0.02332 0.016018 0.04529 0.024333 0.06751 0.013917 0.03724 0.027726 0.07494 0.039187 0.11301 0.049063 0.1629 0.096235 0.32647 0.13701 0.49167 0.072678 0.29453 0.1323 0.59187 0.19806 0.88794 0.010483 0.04724 0.017174 0.09528 0.028327 0.14236 0.08916 0.37618 0.20405 0.74603 0.30234 1.1198 0.063919 0.24305 0.12816 0.48646 0.20276 0.7265 0.029879 0.09616 0.069216 0.18886 0.095575 0.2862 0.012501 0.04614 0.02473 0.09283 0.02473 0.1409-0.02586-0.02589-0.038569-0.06129-0.053981-0.09393-0.02825-0.05982-0.055552-0.12-0.082305-0.18052-0.095649-0.21634-0.18455-0.4355-0.26998-0.65605-0.15763-0.40691-0.33067-0.80874-0.47384-1.2211-0.12305-0.35446-0.21723-0.7192-0.35066-1.0699-0.042223-0.111-0.077772-0.22425-0.11758-0.3361-0.044322-0.12453-0.090569-0.24858-0.1271-0.37572-0.01955-0.06803-0.036869-0.13685-0.059265-0.20401-0.00912-0.02739-0.016639-0.06311-0.041578-0.08072 0.00552 0.02021 0.012811 0.03949 0.016949 0.06017 0.010311 0.05162 0.013139 0.10491 0.02015 0.15704 0.00683 0.05068 0.017978 0.10159 0.021471 0.15264 0.00249 0.0366-3.439e-4 0.07354 0.00331 0.11007 0.013224 0.13219 0.036823 0.26398 0.059558 0.3948 0.021574 0.12421 0.040095 0.25008 0.069171 0.37279 0.051677 0.21798 0.11715 0.43343 0.18359 0.64725 0.046454 0.14942 0.091686 0.29913 0.14542 0.44617 0.096307 0.26357 0.20292 0.52386 0.30872 0.78374 0.038921 0.09561 0.077315 0.1916 0.11506 0.28766 0.012983 0.03308 0.023336 0.06699 0.036985 0.0998-0.023833-0.02383-0.03954-0.05309-0.060466-0.07926-0.046582-0.05821-0.093873-0.11585-0.13975-0.17464-0.12193-0.15626-0.24675-0.31016-0.37376-0.46232-0.18197-0.21801-0.36564-0.43506-0.5592-0.64284-0.11543-0.12393-0.23892-0.24055-0.35798-0.36105-0.18016-0.18233-0.35642-0.36976-0.55918-0.52774-0.19065-0.14853-0.39745-0.27346-0.60615-0.39457-0.09484-0.05505-0.18887-0.11118-0.28766-0.15898-0.063755-0.03085-0.12998-0.0565-0.19373-0.08735-0.047582-0.02301-0.095856-0.04537-0.14236-0.07052-0.029119-0.01574-0.055905-0.03591-0.088062-0.04504 0.023278 0.04027 0.077111 0.06465 0.11301 0.09229 0.073749 0.0568 0.14342 0.11898 0.21281 0.18095 0.26199 0.23393 0.52714 0.46224 0.76294 0.72331 0.18971 0.21004 0.36455 0.43516 0.51931 0.67219 0.10399 0.15927 0.19736 0.32512 0.29669 0.48727 0.11413 0.18628 0.22928 0.37203 0.34433 0.55772 0.073382 0.11843 0.15526 0.23066 0.24272 0.33903 0.031567 0.0391 0.062582 0.07868 0.09459 0.11741 0.021285 0.02574 0.04519 0.0492 0.062743 0.07779-0.03195-0.0088-0.054463-0.04042-0.079253-0.06047-0.056989-0.04606-0.11538-0.09054-0.17319-0.13558-0.10667-0.08311-0.20069-0.18005-0.29941-0.272-0.1486-0.13843-0.29662-0.28062-0.41921-0.44337-0.060586-0.08044-0.11642-0.1641-0.17414-0.24657-0.017348-0.02479-0.035238-0.04914-0.053348-0.07338-0.00988-0.01322-0.018653-0.0291-0.032831-0.03816 0.015261 0.03666 0.04017 0.06999 0.060159 0.1042 0.024892 0.04261 0.046541 0.08722 0.070009 0.13062 0.07237 0.13382 0.14521 0.26729 0.22844 0.3948 0.079696 0.12205 0.17098 0.23829 0.26703 0.34784 0.058752 0.067 0.12162 0.13068 0.19039 0.1875 0.026843 0.02217 0.053481 0.04472 0.08072 0.06641 0.015986 0.01272 0.03505 0.02419 0.046967 0.0411-0.063771-0.04902-0.12839-0.09593-0.18933-0.14865-0.12142-0.10508-0.2363-0.2174-0.35371-0.32677-0.16281-0.15167-0.32729-0.30313-0.47674-0.46832-0.082424-0.09111-0.16576-0.18374-0.23409-0.2862-0.027547-0.04129-0.054067-0.0832-0.081207-0.12475-0.011967-0.01833-0.02191-0.04283-0.040125-0.05577 0.00621 0.02681 0.022262 0.04987 0.03314 0.07485 0.02755 0.06333 0.057959 0.12513 0.086753 0.18786 0.01683 0.03668 0.031586 0.07454 0.050812 0.11008 0.071037 0.13136 0.16451 0.25185 0.25543 0.36985 0.067778 0.08797 0.13511 0.17616 0.20831 0.25978 0.059867 0.06836 0.12475 0.13237 0.19039 0.19514 0.082529 0.07892 0.16429 0.16008 0.25097 0.23446 0.032186 0.02762 0.065707 0.05391 0.098335 0.08103 0.015261 0.01267 0.033918 0.02332 0.045496 0.03974-0.017206-0.0023-0.032712-0.01164-0.048434-0.01846-0.036074-0.01564-0.070535-0.03406-0.10567-0.05162-0.10669-0.05335-0.21252-0.10821-0.31849-0.1629-0.20198-0.10425-0.39294-0.22727-0.59-0.34025-0.13253-0.07598-0.2709-0.14129-0.40214-0.21961-0.077991-0.04654-0.15917-0.0902-0.23336-0.14269-0.051542-0.03647-0.099652-0.08777-0.15851-0.11239 0.012433 0.02616 0.037869 0.04638 0.056993 0.06751 0.037176 0.0411 0.073882 0.08265 0.10993 0.12475 0.098995 0.11565 0.21378 0.20964 0.33356 0.30296 0.15582 0.12141 0.31649 0.23086 0.48433 0.33486 0.083172 0.05153 0.16699 0.10139 0.25244 0.14906 0.040859 0.02279 0.094136 0.03933 0.12328 0.07758-0.096042-0.0076-0.1873-0.02903-0.28179-0.04726-0.082175-0.01584-0.16535-0.02714-0.24804-0.03995-0.07911-0.01228-0.15778-0.029-0.23777-0.03448-0.039482-0.0027-0.079194 8.73e-4 -0.11888-1.46e-4 -0.10645-0.0026-0.21223-0.0016-0.31849 0.0058-0.049724 0.0034-0.099949-0.0017-0.1497 0.0017-0.10429 0.0071-0.20889 0.0204-0.31261 0.03404-0.056724 0.0075-0.11292 0.01876-0.16878 0.03103-0.032378 0.0071-0.063916 0.01723-0.096864 0.0214v0.0029c0.02028-1.47e-4 0.040258-0.0078 0.060174-0.01114 0.04871-0.0082 0.097626-0.01712 0.14677-0.02237 0.10542-0.0113 0.20969-0.01397 0.31555-0.01345 0.045203 1.73e-4 0.091405-3e-3 0.13649 1.17e-4 0.097042 0.0067 0.1926 0.02624 0.28913 0.03779 0.076717 0.0092 0.15469 0.01064 0.23043 0.02727 0.12679 0.02786 0.24815 0.07476 0.37279 0.11029 0.21597 0.06159 0.43273 0.12042 0.64871 0.18201 0.16865 0.04808 0.33482 0.10525 0.50488 0.14831 0.052748 0.01335 0.10571 0.02571 0.15851 0.03889 0.024026 6e-3 0.050841 0.0066 0.070447 0.02329-0.05875 0-0.11722 0.0051-0.17612 0.0044-0.1393-0.0017-0.27911-0.01147-0.41829-0.01755-0.13149-0.0058-0.26332-0.0046-0.3948-0.0104-0.13953-0.0061-0.27851-0.02322-0.41829-0.02489-0.12444-0.0016-0.24885 0.0075-0.37279 0.01602-0.074236 0.0051-0.14884 4e-3 -0.22309 0.0091-0.076891 0.0053-0.15353 0.01502-0.23042 0.02028-0.053776 0.0037-0.10786 0.0042-0.16144 0.01083-0.076012 0.0093-0.15055 0.02737-0.22602 0.04002-0.050196 0.0084-0.10107 0.01278-0.15117 0.02181-0.08721 0.01574-0.17497 0.03068-0.26124 0.05109-0.046146 0.01093-0.091321 0.03195-0.13943 0.03195v0.0044c0.045997-3.44e-4 0.091026-0.01447 0.13649-0.02012 0.11275-0.01404 0.22709-0.0277 0.3405-0.03266 0.066207-0.0029 0.13488 0 0.20107 0.0028 0.086065 0.0038 0.17228 0.0036 0.25831 0.0073 0.17559 0.0077 0.35034 0.0087 0.52543 0.02623 0.11228 0.01123 0.22568 0.01278 0.33756 0.02752 0.02686 0.0035 0.053981 5.3e-4 0.080724 0.0059 0.010655 0.0021 0.021809 0.0021 0.029351 0.01086-0.13594 0-0.26811 0.03019-0.40214 0.04951-0.087238 0.01257-0.1753 0.01635-0.26271 0.02724-0.078667 0.0098-0.15651 0.02496-0.23483 0.03712-0.085696 0.01328-0.1726 0.01421-0.25831 0.02743-0.075699 0.01171-0.15032 0.02981-0.22602 0.04155-0.045794 0.0071-0.092128 0.0076-0.13796 0.01422-0.096806 0.01397-0.19266 0.03562-0.28913 0.05179-0.03747 0.0063-0.075541 0.0067-0.11301 0.01304-0.06703 0.01124-0.13265 0.02991-0.1996 0.04155-0.084776 0.01472-0.17072 0.02094-0.25538 0.03621-0.038013 0.0069-0.075028 0.01833-0.11301 0.02518-0.17254 0.03113-0.34555 0.05966-0.51809 0.09076-0.055274 0.01-0.11065 0.01928-0.16585 0.02963-0.037338 7e-3 -0.073561 0.01666-0.11154 0.01965v0.0029c0.061391 0 0.12127-0.01452 0.18199-0.02178 0.070402-0.0084 0.14103-0.01488 0.21134-0.02413 0.066604-0.0088 0.13274-0.02055 0.1996-0.02722 0.099232-0.0099 0.19872-0.01481 0.29794-0.02545 0.10506-0.01124 0.20888-0.03204 0.31408-0.04207 0.10235-0.0097 0.20586-0.0025 0.30821-0.01224 0.15568-0.01481 0.31074-0.03735 0.46672-0.04805 0.14263-0.0098 0.286-0.0052 0.42856-0.01493 0.14076-0.0096 0.28173-0.02886 0.42269-0.03504 0.023555-1e-3 0.046994 0.0024 0.070447 0.0014 0.11888-0.0052 0.23777-0.01229 0.35665-0.0175 0.035721-0.0016 0.071387 0.0018 0.10714 0.0014 0.060074-6.88e-4 0.12038-3e-3 0.18053-0.0044 0.20546-5e-3 0.4109-0.01255 0.61642-0.01758 0.14619-0.0036 0.29276 0.0034 0.43883-3e-3 0.1351-0.0059 0.26995-0.01745 0.40508-0.02337 0.091335-4e-3 0.18311 0.0024 0.27446-0.0016 0.47187-0.02065 0.94506-0.02049 1.4178-0.02049 0.48545 0 0.97081-0.0031 1.4559 0.0088 0.18403 0.0045 0.368 0.0072 0.55185 0.01174 0.06302 0.0016 0.12635-0.0027 0.18933 0 0.1615 0.0071 0.32306 0.02253 0.48433 0.03356 0.15904 0.0109 0.3192 0.0079 0.47846 0.01486 0.15604 0.0068 0.30984 0.03308 0.46525 0.04813 0.05526 0.0054 0.11054 8.73e-4 0.16585 0.0032 0.0601 0.0026 0.12079 0.01054 0.18052 0.01798 0.09339 0.0116 0.18705 0.02118 0.28032 0.03374 0.04332 0.0058 0.08688 0.02218 0.13062 0.02307v-0.0016c-0.05279-0.03069-0.11987-0.03856-0.17906-0.04855-0.05549-0.0094-0.11021-0.02269-0.16585-0.03132-0.08413-0.01305-0.16912-0.02307-0.25244-0.04078-0.05564-0.01183-0.10978-0.03068-0.16585-0.04042-0.07539-0.01309-0.15244-0.01272-0.22749-0.02825-0.05753-0.01191-0.11385-0.02858-0.17172-0.03901-0.064-0.01154-0.12932-0.01457-0.19373-0.02304-0.07622-0.01002-0.15116-0.02835-0.22749-0.03751-0.0874-0.0105-0.17518-0.01375-0.26271-0.0225-0.11439-0.01143-0.22754-0.03392-0.34197-0.045-0.0899-0.0087-0.18019-0.0106-0.27005-0.01958-0.11716-0.01171-0.23363-0.03035-0.35078-0.04206-0.11816-0.01181-0.23709-0.0098-0.35518-0.02105-0.30439-0.02899-0.60684-0.05259-0.91289-0.05259 0.01533-0.01302 0.03587-0.01754 0.0543-0.02467 0.04535-0.01757 0.09233-0.02941 0.13943-0.04118 0.13952-0.03489 0.27974-0.06798 0.41828-0.10648 0.32904-0.09144 0.65228-0.20241 0.98187-0.29167 0.20142-0.05455 0.4063-0.11132 0.61642-0.11132v-0.0029c-0.14583 0-0.28945 0.01021-0.43443 0.0247-0.04647 0.0047-0.09316 0.0072-0.13943 0.01409-0.0997 0.01474-0.201 0.03257-0.29941 0.05429-0.04143 0.0092-0.08173 0.02306-0.12328 0.03167-0.05554 0.0115-0.11176 0.01933-0.16732 0.03082-0.04739 0.0098-0.09364 0.02422-0.1409 0.03461-0.12597 0.02766-0.25288 0.05049-0.37866 0.07936-0.10572 0.02426-0.21148 0.04871-0.31702 0.07372-0.06869 0.01629-0.1362 0.03681-0.20547 0.05067-0.03241 0.0065-0.06499 0.01329-0.09687 0.02206-0.02139 0.0059-0.04534 0.01602-0.06751 0.01698 0.02072-0.01979 0.04876-0.02821 0.07485-0.03845 0.03258-0.01279 0.06437-0.0275 0.09687-0.04051 0.11961-0.04785 0.23901-0.09647 0.35811-0.14561 0.15554-0.06418 0.31411-0.12076 0.46966-0.18493 0.22187-0.09154 0.44444-0.18587 0.67513-0.25328 0.11451-0.03345 0.23433-0.04858 0.35224-0.065 0.04239-0.0059 0.0918 6e-3 0.13209-9e-3v-0.0016l-0.22749-0.0059-0.22602 0.01747-0.20547 0.01079-0.15998 0.03568-0.20841 0.0482-0.20694 0.07269-0.31114 0.12042c0.01245-0.02973 0.04393-0.04833 0.06604-0.07045 0.05237-0.05236 0.10613-0.10319 0.15851-0.15557 0.15418-0.15418 0.30237-0.317 0.4275-0.49607 0.08338-0.11934 0.14358-0.25444 0.20128-0.38747 0.06437-0.1484 0.13051-0.30773 0.15013-0.46966 0.0031-0.02595 0.0017-0.05181 0.0035-0.07779 0.0057-0.08335 0.0079-0.16736 0.0042-0.25097-0.0025-0.05611-7e-3 -0.11263-0.0073-0.16878 0-0.0311 1e-3 -0.06305 0.0048-0.09393 0.0021-0.01723 0.0076-0.03399 0.0084-0.05137-0.01302 1e-3 -0.01593 0.02733-0.01956 0.03816-0.01438 0.04271-0.02411 0.08405-0.02727 0.12916-0.0035 0.05068-0.0069 0.1012-0.01693 0.15117-0.01138 0.05655-0.02958 0.11169-0.04462 0.16732-0.02057 0.07604-0.04008 0.15097-0.07259 0.22309-0.07855 0.1743-0.18529 0.33027-0.2954 0.4858-0.04423 0.06249-0.08543 0.12718-0.1322 0.18786-0.12826 0.16643-0.27145 0.32314-0.4232 0.46825-0.08185 0.07827-0.16588 0.15344-0.25244 0.22658-0.02538 0.02144-0.05037 0.04319-0.07632 0.06396-0.01397 0.01119-0.02733 0.02384-0.04403 0.03082 0.05529-0.08128 0.12052-0.15522 0.17199-0.23923 0.07609-0.12421 0.13783-0.25654 0.20117-0.38746 0.07589-0.15686 0.15262-0.31432 0.21564-0.47699 0.0521-0.13453 0.09292-0.27288 0.13434-0.41095 0.01007-0.03357 0.02498-0.06619 0.03417-0.0998-0.01533 0.0087-0.02084 0.03059-0.02825 0.0455-0.01835 0.03696-0.036 0.07423-0.05362 0.11154-0.06411 0.13573-0.12729 0.27327-0.20462 0.40214-0.11469 0.19115-0.23923 0.37603-0.36406 0.56065-0.0429 0.06343-0.08034 0.13042-0.12342 0.19373-0.05338 0.07843-0.11229 0.15308-0.16921 0.22896-0.07713 0.10284-0.15075 0.20795-0.23496 0.30528-0.02752 0.03181-0.05072 0.06609-0.0826 0.09393 0.03065-0.05505 0.07284-0.10582 0.10946-0.15704 0.06869-0.09607 0.13687-0.19232 0.20015-0.29207 0.08925-0.14072 0.17098-0.28595 0.25459-0.43003 0.14831-0.25552 0.2918-0.51363 0.412-0.78374 0.05614-0.12614 0.10253-0.25558 0.15158-0.38453 0.05191-0.13645 0.10645-0.27192 0.15541-0.40948 0.02485-0.06983 0.04472-0.14132 0.06902-0.21134 0.04568-0.13156 0.09616-0.26198 0.15006-0.3904 0.06113-0.14568 0.11396-0.2959 0.1935-0.43296 0.08335-0.1436 0.18902-0.27996 0.30906-0.39474 0.0311-0.02974 0.06321-0.05725 0.0998-0.08017 0.02656-0.01662 0.06364-0.032 0.08072-0.05932-0.02375 3e-3 -0.04588 0.01055-0.06898 0.01633-0.05593 0.014-0.11068 0.03057-0.16585 0.04719-0.07599 0.0229-0.15183 0.04333-0.22455 0.0757-0.10526 0.04688-0.20468 0.10806-0.29941 0.17335-0.105 0.07237-0.20716 0.15113-0.2994 0.23933-0.14457 0.13824-0.26944 0.29657-0.39664 0.45052-0.14774 0.17879-0.29179 0.36084-0.42758 0.54891-0.09396 0.13015-0.18604 0.26219-0.27206 0.39774-0.03044 0.04796-0.06004 0.09656-0.09155 0.14383-0.01833 0.02749-0.03521 0.05665-0.06116 0.07779l0.02303-0.0499 0.04534-0.10127 0.1545-0.37426 0.05127-0.11741 0.03555-0.07779c-0.01107 0.0082-0.01638 0.02176-0.02238 0.03375-0.0087 0.01748-0.01842 0.03442-0.02814 0.05137-0.04264 0.07438-0.08228 0.14986-0.12158 0.22602-0.08254 0.15992-0.16274 0.32198-0.23063 0.48873-0.0585 0.14372-0.10547 0.29173-0.1545 0.43883-0.03549 0.10646-0.06326 0.21717-0.10469 0.32142-0.0096 0.02409-0.01952 0.04843-0.02662 0.07338-0.0014 0.0047-0.0036 0.02318-0.01005 0.02318-0.0054 0-0.0044-0.0096-0.0044-0.0129 0-0.01402 0.0012-0.02865-6.88e-4 -0.04256-0.0033-0.02497-0.0012-0.05116-0.0023-0.07632-0.0016-0.03615-0.0044-0.07237-0.0044-0.10861 0-0.18818-0.0061-0.37677-0.0016-0.56505 0.0018-0.07291-0.0037-0.14757 0.0032-0.22015 0.0044-0.04565 0.0022-0.09214 0.0042-0.13796l0.0088-0.1996c0.0034-0.07883 0.0111-0.15748 0.01455-0.2363 6e-3 -0.13689 0.0044-0.27403 0.0104-0.41095 0.0051-0.11595 0.01107-0.23186 0.01614-0.34784 0.0058-0.13325 0.02374-0.26493 0.03639-0.39774 3e-3 -0.03119 0.0012-0.0627 0.0033-0.09393 0.0062-0.09092 0.01055-0.18221 0.0192-0.27299 0.01112-0.11678 0.03091-0.2326 0.04206-0.34931 0.0086-0.09038 0.0099-0.18114 0.01958-0.27152 0.01345-0.12574 0.03888-0.24996 0.05234-0.37572 0.0065-0.06036 0.01449-0.12045 0.02334-0.18052 0.0049-0.033361 0.0086-0.070594 0.0296-0.098334 0.02557-0.033728 0.04779-0.00543 0.06142 0.022013 0.02667 0.053672 0.04036 0.11622 0.05858 0.17318 0.02198 0.0688 0.03694 0.14046 0.06113 0.20841 0.0074 0.02093 0.01481 0.06028 0.03336 0.0739 0.0165 0.01212 0.03878 0.0048 0.05718 4e-3 0.04851-0.0021 0.09571-0.0078 0.14383-0.01455 0.13356-0.01879 0.26643-0.04082 0.40067-0.05425 0.04796-0.0048 0.0959-0.0096 0.14383-0.01467 0.02734-0.0029 0.05702-5e-3 0.08219-0.01712 0.04922-0.02373 0.02947-0.10375 0.02947-0.14605 0-0.08468 0.0087-0.16922 0.0087-0.25391 0-0.059045-0.0034-0.11617 0.05283-0.15199 0.0339-0.02159 0.07281-0.034343 0.10861-0.052382 0.04593-0.023114 0.08937-0.051882 0.13209-0.080355 0.02979-0.019857 0.06684-0.0563 0.10573-0.051148 0.04127 0.00547 0.08013 0.035752 0.11589 0.055096 0.07382 0.039935 0.1485 0.078285 0.22309 0.11678 0.02508 0.012948 0.04959 0.026976 0.07485 0.039613 0.0125 0.00626 0.02656 0.014861 0.0411 0.014155 0.02119-0.00103 0.03905-0.020108 0.05198-0.035078 0.0288-0.033331 0.05259-0.070375 0.08075-0.1042 0.09879-0.11869 0.18826-0.24462 0.28244-0.36692 0.0252-0.032714 0.05122-0.06493 0.07739-0.096868 0.01217-0.01483 0.0296-0.030262 0.03356-0.049899 0.0027-0.013658-0.0085-0.026712-0.01623-0.036692-0.02083-0.026673-0.04444-0.050405-0.06812-0.074681-0.05008-0.051337-0.09434-0.10814-0.1439-0.15997-0.03704-0.038747-0.08191-0.072196-0.10971-0.11888-0.02252-0.037792 0.0031-0.079649 0.01669-0.11594 0.0224-0.05994 0.04198-0.12243 0.05577-0.18493 0.0083-0.037911 0.0082-0.077861 0.02221-0.11448 0.01486-0.038923 0.06672-0.045644 0.10169-0.055565 0.0948-0.026874 0.19055-0.05046 0.28473-0.079431 0.0353-0.010845 0.10673-0.016433 0.11526-0.061672 0.0033-0.017481-0.0039-0.035648-0.0062-0.052836-0.0049-0.036061-8e-3 -0.07243-0.01191-0.10861-0.01619-0.15123-0.05446-0.3028-0.05894-0.45498-0.0014-0.048623-0.01269-0.096794-0.01604-0.1453-0.0014-0.021002-0.0019-0.048344-0.02069-0.062171-0.03744-0.027517-0.10218-0.014155-0.14528-0.014155-0.07208 0-0.1438-0.00723-0.21575-0.00734-0.04676-5.85e-5 -0.1009 0.00852-0.1453-0.00947-0.04485-0.018198-0.0558-0.074159-0.07453-0.11382-0.0301-0.063742-0.06888-0.12569-0.10701-0.18493-0.01343-0.020857-0.02968-0.039937-0.04176-0.061643-0.0215-0.038628 0.02251-0.085169 0.04089-0.11741 0.03022-0.053056 0.05702-0.10809 0.0868-0.16144 0.02075-0.03716 0.04576-0.072209 0.06513-0.11008 0.0165-0.032216 0.04556-0.072194 0.02102-0.10714-0.0154-0.021943-0.03765-0.037809-0.05806-0.054674-0.03738-0.030865-0.07626-0.059969-0.11448-0.089778-0.10768-0.084024-0.21368-0.17019-0.32142-0.25414-0.03729-0.029046-0.07562-0.056859-0.11154-0.087605-0.01338-0.011467-0.03175-0.030412-0.05137-0.024862-0.0164 0.00462-0.0288 0.018449-0.0411 0.029412-0.0215 0.019198-0.04372 0.037514-0.06458 0.057431-0.06371 0.060821-0.13134 0.1175-0.19813 0.1749-0.03552 0.030528-0.07633 0.087605-0.12769 0.072137-0.09041-0.027242-0.17873-0.064051-0.27152-0.082895-0.04536-0.00921-0.10165-0.00838-0.12905-0.052543-0.02099-0.033786-0.02231-0.078403-0.03301-0.11595-0.02141-0.075116-0.04887-0.14876-0.06782-0.22455-0.0097-0.038702-0.01836-0.111-0.06512-0.12229-0.02388-0.00576-0.04937 8.466e-4 -0.07338 0.00315-0.04793 0.00459-0.09469 0.010189-0.14236 0.017227-0.13937 0.020605-0.27956 0.039216-0.41976 0.053217-0.04683 0.00469-0.09437 0.00698-0.1409 0.01433-0.02022 0.00319-0.043663 0.00878-0.05376 0.028486-0.018036 0.035254-0.00783 0.083746-0.00788 0.12182-3.439e-4 0.088736-0.00634 0.17844-0.010207 0.26712-0.00156 0.034431 0.00821 0.079518-0.00638 0.11154-0.010768 0.023645-0.03972 0.036824-0.061177 0.049284-0.073047 0.042387-0.15402 0.070683-0.22162 0.12226-0.026328 0.020092-0.067262 0.063712-0.1042 0.057959-0.014486-0.00225-0.0268-0.011327-0.039628-0.017788-0.024595-0.01238-0.049253-0.024833-0.07338-0.038073-0.069642-0.038245-0.1423-0.07131-0.21135-0.11053-0.028559-0.016227-0.057207-0.03264-0.086591-0.047332-0.012724-0.00634-0.029352-0.015189-0.04403-0.012086-0.022148 0.00469-0.03669 0.028224-0.049901 0.044734-0.031526 0.039407-0.06346 0.078506-0.093738 0.11888-0.086021 0.11468-0.176 0.2264-0.26468 0.33903-0.034021 0.043208-0.071666 0.084084-0.10325 0.12916-0.00636 0.00909-0.014052 0.020695-0.013655 0.032288 5.292e-4 0.013777 0.011639 0.026521 0.019772 0.036692 0.018534 0.023206 0.038306 0.045058 0.059293 0.066045 0.068542 0.06854 0.13105 0.14279 0.1996 0.21134 0.032743 0.032743 0.07127 0.064871 0.058851 0.11595-0.00709 0.029221-0.020095 0.056476-0.028853 0.085126-0.020238 0.06603-0.03584 0.13375-0.05106 0.20107-0.00881 0.038982-0.00817 0.089088-0.044984 0.11395-0.027712 0.018714-0.064095 0.021664-0.0954 0.031393-0.081351 0.025272-0.16395 0.045529-0.24657 0.066192-0.0327 0.00817-0.065486 0.015742-0.096866 0.028283-0.011398 0.00455-0.026447 0.00853-0.034286 0.018626-0.011192 0.014433-0.00681 0.03584-0.00681 0.052703 0 0.048111 0.00552 0.096471 0.014052 0.14383 0.011348 0.062993 0.014708 0.12736 0.023045 0.1908 0.011864 0.090145 0.030203 0.17951 0.038966 0.27005 0.00391 0.040449 0.0076 0.081265 0.010398 0.12182 0.00138 0.02087 3.439e-4 0.047774 0.015293 0.064445 0.01207 0.013433 0.029898 0.013345 0.046482 0.013345h0.095401c0.071973 0 0.14379 0.00795 0.21575 0.00881 0.027933 3.44e-4 0.055832 0.00279 0.083658 0.00293 0.024026 1.172e-4 0.050018-0.00273 0.073383 0.00403 0.037645 0.010898 0.051324 0.065354 0.064594 0.097233 0.025257 0.060658 0.061026 0.1186 0.097337 0.17318 0.019621 0.029471 0.045658 0.057886 0.059028 0.090997 0.01643 0.040683-0.015861 0.082336-0.034973 0.11595-0.049639 0.087267-0.094842 0.17647-0.14087 0.26565-0.018359 0.035562-0.060071 0.083467-0.040244 0.12622 0.00567 0.012261 0.016346 0.021574 0.02595 0.030762 0.038979 0.03728 0.088117 0.064431 0.13062 0.097542 0.10898 0.084919 0.21951 0.1678 0.32876 0.25234 0.037792 0.02924 0.074442 0.06007 0.11154 0.09019 0.015361 0.01248 0.029807 0.03272 0.051365 0.03389 0.014277 8.73e-4 0.025833-0.0095 0.036694-0.01724 0.026138-0.01873 0.048741-0.0411 0.071918-0.06326 0.08207-0.078477 0.16344-0.16017 0.25391-0.22919 0.044484-0.033948 0.084332-0.039481 0.13649-0.01861 0.01595 0.00638 0.03464 0.013052 0.04341 0.02906 0.0098 0.017788 0.0068 0.041213 3e-3 0.060176-0.0075 0.037351-0.01747 0.074396-0.02601 0.11154-0.03333 0.14495-0.06101 0.29154-0.09023 0.43737-0.016846 0.08407-0.035666 0.16786-0.049843 0.25244-0.00883 0.0526-0.013639 0.1058-0.021812 0.15851-0.014568 0.09389-0.032231 0.18719-0.041696 0.28179-0.011432 0.11427-0.011604 0.22919-0.022513 0.34344-0.017655 0.18474-0.03854 0.36802-0.046658 0.55331-0.00414 0.09445-0.00907 0.18886-0.013208 0.28326-0.00119 0.02683 0.00172 0.05392-3.44e-4 0.08072-0.017481 0.25526-0.029717 0.51053-0.040904 0.76612-0.0091 0.20788 6.879e-4 0.41726-0.00445 0.62523-0.0035 0.14352-3.439e-4 0.28683 0.00592 0.43003 0.00156 0.03706 0.00435 0.07443 0.00435 0.11154 0 0.01114 4e-3 0.03139-0.0044 0.03963m0.8263-7.5302c0.03512-0.00415 0.07312 0.00251 0.10861 0.00251 0.03933 0 0.07817-0.00201 0.11741 0.00172 0.07676 0.00733 0.15233 0.026491 0.22602 0.048596 0.06624 0.019872 0.13174 0.041932 0.19373 0.072929 0.05822 0.029104 0.11118 0.067483 0.16438 0.10466 0.05523 0.038585 0.11784 0.070125 0.16425 0.11994 0.04103 0.044044 0.06896 0.097526 0.10291 0.14677 0.03097 0.044941 0.06583 0.085243 0.09196 0.13356 0.03559 0.065781 0.06191 0.13586 0.08461 0.20694 0.01807 0.056534 0.03822 0.11316 0.04879 0.17172 0.02507 0.13897 0.02306 0.29079 0.0016 0.43003-0.0072 0.046584-0.02207 0.089895-0.03503 0.13503-0.02225 0.077434-0.04666 0.15631-0.08515 0.22749-0.02623 0.04849-0.05994 0.09195-0.09004 0.13796-0.04085 0.062448-0.07727 0.12797-0.13112 0.18051-0.03205 0.031262-0.0725 0.05404-0.11008 0.077875-0.0275 0.017449-0.05323 0.037454-0.07925 0.056974-0.07642 0.057327-0.16548 0.097174-0.25537 0.12838-0.08291 0.028795-0.16815 0.051457-0.25537 0.062201-0.06409 0.00788-0.1292 0.00774-0.19373 0.00774-0.05749 0-0.11474 6.879e-4 -0.17172-0.00774-0.07353-0.010824-0.14504-0.031875-0.2158-0.053861-0.05444-0.016915-0.10865-0.035592-0.15998-0.0606-0.0548-0.026712-0.10375-0.063036-0.1541-0.09697-0.047248-0.031835-0.10095-0.058296-0.14236-0.097909-0.067163-0.064224-0.11068-0.14628-0.15912-0.22449-0.031585-0.050972-0.063214-0.10218-0.08765-0.15704-0.039923-0.089647-0.063667-0.18374-0.086212-0.27886-0.015486-0.065297-0.033859-0.12927-0.036807-0.19667-0.00402-0.091686 0.014414-0.18374 0.033388-0.27299 0.017978-0.084553 0.036162-0.16997 0.066969-0.25097 0.028443-0.074749 0.068261-0.14451 0.1119-0.21135 0.046451-0.071166 0.089512-0.14913 0.15314-0.20669 0.040316-0.036471 0.084991-0.067632 0.12915-0.099201 0.07626-0.054524 0.1537-0.10583 0.2407-0.14173 0.13093-0.054025 0.26954-0.079944 0.40948-0.096455m1.5528 4.8488c-0.0049 0.0329-0.03198 0.06579-0.04842 0.09393-0.02454 0.042-0.04396 0.08713-0.06569 0.13062-0.08816 0.17633-0.17753 0.35038-0.25279 0.53277-0.0879 0.21305-0.17521 0.42687-0.2595 0.64137-0.02439 0.0621-0.0449 0.12565-0.06899 0.18786-0.04089 0.10557-0.08706 0.20976-0.13429 0.31262-0.06681 0.1455-0.14818 0.28426-0.22577 0.42416-0.10622 0.1915-0.21114 0.38308-0.32386 0.57092-0.12794 0.21322-0.26492 0.42323-0.41796 0.61936-0.03599 0.04612-0.07385 0.0908-0.1104 0.13649-0.01529 0.01911-0.03464 0.04676-0.06047 0.05137 0.0068-0.02921 0.03125-0.05052 0.04895-0.07338 0.0318-0.0411 0.06227-0.08363 0.08986-0.12769 0.08736-0.1395 0.15613-0.2887 0.22921-0.4359 0.0639-0.12871 0.13256-0.25509 0.19518-0.38453 0.1796-0.37119 0.35538-0.74423 0.53499-1.1154 0.03197-0.06607 0.06708-0.13058 0.09904-0.19667 0.02799-0.05784 0.0539-0.11661 0.0845-0.17318 0.03585-0.06628 0.06895-0.13369 0.10265-0.20107 0.01564-0.03126 0.03675-0.0607 0.04807-0.09393h-0.0016c-0.02111 0.05069-0.05846 0.09497-0.08598 0.14236-0.072 0.12409-0.14812 0.24576-0.22015 0.36985-0.14939 0.25743-0.30046 0.51389-0.45121 0.77053-0.125 0.2128-0.25464 0.42344-0.36507 0.64431-0.08299 0.16598-0.17236 0.32868-0.25538 0.49461-0.02119 0.04234-0.04178 0.08515-0.06788 0.12475-0.01067 0.01621-0.01911 0.03618-0.03963 0.04109v-0.14236c0-0.02084-0.0038-0.04225-8.73e-4 -0.06311 0.01984-0.13855 0.07747-0.27001 0.12823-0.39921 0.03477-0.08852 0.06296-0.17957 0.09654-0.26858 0.07269-0.19276 0.14709-0.38454 0.23512-0.57092 0.08209-0.17377 0.17823-0.34179 0.27981-0.50488 0.17294-0.27768 0.38111-0.53124 0.57709-0.79254 0.15117-0.20157 0.31103-0.39708 0.48928-0.57533 0.04409-0.04409 0.09362-0.08153 0.1409-0.12201 0.02118-0.01814 0.04689-0.04567 0.07632-0.04824m-0.53472 0.89723 1e-3 5.29e-4 -1e-3 -5.29e-4m-0.82288 0.04648v0.0029h0.0044v-0.0029h-0.0044m-3.1232 0.45058c0.060528 0.03449 0.1041 0.10117 0.15264 0.1497 0.11743 0.11743 0.23266 0.23787 0.33915 0.36545 0.071961 0.08621 0.14813 0.16881 0.21967 0.25538 0.05696 0.06895 0.11072 0.14047 0.16711 0.20988 0.16749 0.2061 0.33401 0.4119 0.49613 0.62229 0.10406 0.13504 0.20898 0.26923 0.31001 0.40655 0.024394 0.03314 0.047406 0.06732 0.07271 0.0998 0.018346 0.02354 0.042297 0.04843 0.050753 0.07779-0.023177-0.0019-0.042828-0.01585-0.061645-0.02837-0.023204-0.01545-0.046772-0.03059-0.070447-0.04529-0.12305-0.07643-0.23762-0.16665-0.34342-0.2652-0.066661-0.06213-0.12879-0.13012-0.1909-0.1968-0.13701-0.14709-0.26757-0.30102-0.38378-0.46525-0.082555-0.11671-0.1535-0.24111-0.22872-0.36252-0.058445-0.0943-0.12205-0.18519-0.18145-0.27886-0.085991-0.13555-0.17026-0.27347-0.26223-0.40508-0.023219-0.03323-0.046086-0.06656-0.067044-0.10127-0.00574-0.0095-0.022587-0.02634-0.018494-0.03816m2.8121 0.27886-0.0016 0.0016 0.0016-0.0016m-5.0781 2.2602v3e-3h0.0044v-3e-3h-0.0044m-1.3855 0.5357v0.0044h0.011742v-0.0044z" fill="url(#linearGradient467)"/>
</svg>
