<svg width="64" height="64" version="1.1" viewBox="0 0 16.933 16.933" xmlns="http://www.w3.org/2000/svg">
 <defs>
  <filter id="filter1178" x="-.047999" y="-.047999" width="1.096" height="1.096" color-interpolation-filters="sRGB">
   <feGaussianBlur stdDeviation="0.30691668"/>
  </filter>
  <linearGradient id="linearGradient862" x1="8.355" x2="8.355" y1="16.007" y2=".79375" gradientUnits="userSpaceOnUse">
   <stop stop-color="#a3be8c" offset="0"/>
   <stop stop-color="#8fbcbb" offset="1"/>
  </linearGradient>
  <linearGradient id="linearGradient1457" x1="8.7811" x2="8.7811" y1="12.052" y2="4.7829" gradientUnits="userSpaceOnUse">
   <stop stop-color="#d8dee9" offset="0"/>
   <stop stop-color="#eceff4" offset="1"/>
  </linearGradient>
  <filter id="filter1781" x="-.2387" y="-.23787" width="1.4774" height="1.4757" color-interpolation-filters="sRGB">
   <feGaussianBlur stdDeviation="0.34501661"/>
  </filter>
 </defs>
 <g stroke-linecap="round" stroke-linejoin="round">
  <rect transform="matrix(.99138 0 0 1 .072989 .0019055)" x=".79375" y=".90545" width="15.346" height="15.346" rx="3.0526" ry="3.0526" fill="#000000" filter="url(#filter1178)" opacity=".15" stroke-width="1.2489" style="mix-blend-mode:normal"/>
  <rect x=".92604" y=".92604" width="15.081" height="15.081" rx="3" ry="3" fill="url(#linearGradient862)" stroke-width="1.2274"/>
  <rect x=".01215" y=".0060174" width="16.924" height="16.927" fill="none" opacity=".15" stroke-width="1.052"/>
  <path d="m4.9849 12.317h5.1078s2.1891 0 2.1891-1.8307-2.1891-1.8307-2.1891-1.8307h-2.9188s-2.1891 0-2.1891-1.8307 2.1891-1.8307 2.1891-1.8307h5.1078" fill="none" filter="url(#filter1781)" opacity=".37874" stroke="#2e3440" stroke-width="1.8275"/>
  <path d="m4.8257 12.131h5.1078s2.1891 0 2.1891-1.8307-2.1891-1.8307-2.1891-1.8307h-2.9188s-2.1891 0-2.1891-1.8307 2.1891-1.8307 2.1891-1.8307h5.1078" fill="none" stroke="url(#linearGradient1457)" stroke-width="1.8275"/>
 </g>
</svg>
