<svg width="64" height="64" version="1.1" viewBox="0 0 16.933 16.933" xmlns="http://www.w3.org/2000/svg">
 <defs>
  <filter id="filter1178" x="-.047999" y="-.047999" width="1.096" height="1.096" color-interpolation-filters="sRGB">
   <feGaussianBlur stdDeviation="0.30691668"/>
  </filter>
  <linearGradient id="linearGradient1340" x1="8.355" x2="8.3996" y1="16.007" y2=".79375" gradientUnits="userSpaceOnUse">
   <stop stop-color="#d8dee9" offset="0"/>
   <stop stop-color="#eceff4" offset="1"/>
  </linearGradient>
  <linearGradient id="linearGradient2609" x1="7.0732" x2="11.714" y1="4.7479" y2="11.193" gradientUnits="userSpaceOnUse">
   <stop stop-color="#ebcb8b" offset="0"/>
   <stop stop-color="#eac57b" offset="1"/>
  </linearGradient>
  <filter id="filter3178" x="-.1107" y="-.10543" width="1.2214" height="1.2109" color-interpolation-filters="sRGB">
   <feGaussianBlur stdDeviation="0.43684663"/>
  </filter>
 </defs>
 <g stroke-linecap="round" stroke-linejoin="round">
  <rect transform="matrix(.99138 0 0 1 .072989 .0019055)" x=".79375" y=".90545" width="15.346" height="15.346" rx="3.0526" ry="3.0526" fill="#000000" filter="url(#filter1178)" opacity=".15" stroke-width="1.2489" style="mix-blend-mode:normal"/>
  <rect x=".92604" y=".92604" width="15.081" height="15.081" rx="3" ry="3" fill="url(#linearGradient1340)" stroke-width="1.2274"/>
  <rect x=".01215" y=".0060174" width="16.924" height="16.927" fill="none" opacity=".15" stroke-width="1.052"/>
 </g>
 <g fill="#2e3440" stroke-width=".083569">
  <path d="m10.014 12.725c-0.03092 0.16212-0.08524 0.31088-0.16379 0.44709-0.08106 0.13956-0.1872 0.26575-0.31756 0.37606-0.1312 0.11031-0.27327 0.19388-0.42787 0.24987s-0.3184 0.08357-0.49138 0.08357c-0.17382 0-0.33762-0.02841-0.49138-0.08357-0.15377-0.05599-0.29667-0.13872-0.42704-0.24987-0.1312-0.11115-0.2365-0.2365-0.31756-0.37606s-0.13622-0.29333-0.1663-0.46214c-0.01504-0.0819 0.04011-0.16045 0.12201-0.17549 0.0025 0 0.02674-0.0025 0.02674-0.0025h2.5087c0.08357 0 0.15209 0.06769 0.15209 0.1521-7.85e-4 0.01421-0.0034 0.02757-0.0067 0.04095zm-0.6017-8.2315c0.12285 0.031755 0.24235 0.071034 0.35851 0.117 0.17048 0.067692 0.33428 0.14875 0.49139 0.24319 0.0059 0.00416 0.01254 0.00753 0.01839 0.011697 0.15042 0.092761 0.29082 0.19472 0.41952 0.30503 0.13538 0.11616 0.26073 0.24402 0.37773 0.38442l8.63e-4 8.63e-4c0.11449 0.13789 0.21644 0.28581 0.3067 0.44208 0.09025 0.15711 0.16797 0.3209 0.23232 0.48971 0.06602 0.17466 0.11532 0.35266 0.14875 0.53568 0.0326 0.18385 0.0493 0.37188 0.0493 0.56493v0.61256c7.85e-4 0.19555 0.0016 0.38692 0.0034 0.57328v0.0016c7.85e-4 0.16881 0.0117 0.33845 0.0326 0.5081 0.02089 0.16797 0.05098 0.3301 0.09026 0.48637 0.03928 0.15377 0.09276 0.30252 0.15878 0.44459 0.06852 0.14624 0.1521 0.28998 0.24987 0.42954h7.85e-4c0.09694 0.13705 0.21812 0.27327 0.36352 0.40698 0.15042 0.13789 0.32425 0.27411 0.52314 0.40614 0.11365 0.07605 0.14457 0.23065 0.06769 0.3443-0.04763 0.07103-0.12619 0.11031-0.20642 0.11031v7.85e-4h-8.9728c-0.13789 0-0.24904-0.11115-0.24904-0.24904 0-0.09025 0.04847-0.16964 0.12034-0.2131 0.2014-0.13622 0.37439-0.2716 0.51896-0.40531 0.14374-0.13287 0.26408-0.26909 0.36102-0.40949 0.0025-0.0042 0.0059-0.0084 0.0092-0.0117 0.0936-0.13705 0.17382-0.27661 0.23984-0.41868 0.06769-0.14458 0.12201-0.29333 0.16212-0.44626 8.63e-4 -0.0034 0.0016-0.0067 0.0025-0.0092 0.03844-0.14875 0.06769-0.30586 0.08775-0.47049 0.02006-0.16547 0.03092-0.33678 0.03092-0.51311v-1.1783c0-0.1897 0.01672-0.37773 0.05098-0.56576 0.03427-0.18719 0.08357-0.36686 0.14959-0.53817 0.06518-0.17132 0.14374-0.33595 0.23483-0.49306 0.09025-0.15627 0.19388-0.30419 0.31004-0.44459l0.0016-0.00165c0.11533-0.13789 0.24235-0.26658 0.38024-0.38442 0.13622-0.11616 0.2833-0.22229 0.44124-0.31673 0.15962-0.095269 0.32508-0.17549 0.49556-0.24068 0.11867-0.045131 0.24151-0.082733 0.36687-0.11365 0.04262-0.14959 0.11616-0.27076 0.22062-0.36352 0.14374-0.12786 0.3326-0.19137 0.56743-0.18887 0.23232 0.00165 0.42035 0.066021 0.56242 0.19388 0.10362 0.093597 0.178 0.21394 0.22062 0.36269z" filter="url(#filter3178)" opacity=".4"/>
  <path d="m11.417 3.9102c-0.15293-0.061008-0.22814-0.23399-0.16714-0.38692 0.06101-0.15293 0.23399-0.22814 0.38692-0.16714 0.41534 0.16547 0.76549 0.39779 1.0471 0.70031 0.28163 0.30335 0.49306 0.6744 0.62844 1.1165 0.04847 0.15711-0.04011 0.32425-0.19722 0.37272s-0.32425-0.040112-0.37272-0.19722c-0.10864-0.35433-0.27494-0.64849-0.49556-0.88499-0.22146-0.23817-0.4989-0.42119-0.82984-0.55323z" opacity=".8"/>
  <path d="m5.3115 3.3561c0.15293-0.061008 0.32592 0.014207 0.38692 0.16714 0.06101 0.15293-0.01421 0.32592-0.16714 0.38692-0.33093 0.13204-0.60838 0.31505-0.82984 0.55239-0.22062 0.23734-0.38692 0.5315-0.49556 0.88499-0.04847 0.15711-0.21561 0.24569-0.37272 0.19722-0.15711-0.048473-0.24569-0.21561-0.19722-0.37272 0.13622-0.44292 0.34681-0.81396 0.62844-1.1165 0.28163-0.30168 0.63178-0.53401 1.0471-0.69947z" opacity=".8"/>
 </g>
 <path d="m9.8752 12.448c-0.03092 0.16212-0.08524 0.31088-0.1638 0.44709-0.08106 0.13956-0.1872 0.26575-0.31756 0.37606-0.1312 0.11031-0.27327 0.19388-0.42787 0.24987s-0.3184 0.08357-0.49138 0.08357c-0.17382 0-0.33762-0.02841-0.49138-0.08357-0.15377-0.05599-0.29667-0.13872-0.42704-0.24987-0.1312-0.11115-0.2365-0.2365-0.31756-0.37606s-0.13622-0.29333-0.1663-0.46214c-0.01504-0.0819 0.04011-0.16045 0.12201-0.17549 0.0025 0 0.02674-0.0025 0.02674-0.0025h2.5087c0.08357 0 0.1521 0.06769 0.1521 0.1521-7.85e-4 0.01421-0.0034 0.02757-0.0067 0.04095z" fill="#eac57b" stroke-width=".083569"/>
 <g stroke-width=".083569">
  <path d="m9.2735 4.216c0.12285 0.031755 0.24235 0.071034 0.35851 0.117 0.17048 0.067692 0.33428 0.14875 0.49138 0.24319 0.0059 0.00416 0.01254 0.00753 0.01839 0.011697 0.15042 0.092761 0.29082 0.19472 0.41952 0.30503 0.13538 0.11616 0.26073 0.24402 0.37773 0.38442l8.63e-4 8.63e-4c0.11449 0.13789 0.21644 0.28581 0.3067 0.44208 0.09025 0.15711 0.16797 0.3209 0.23232 0.48971 0.06602 0.17466 0.11532 0.35266 0.14875 0.53568 0.0326 0.18385 0.0493 0.37188 0.0493 0.56493v0.61256c7.85e-4 0.19555 0.0016 0.38692 0.0034 0.57328v0.0016c7.85e-4 0.16881 0.0117 0.33845 0.0326 0.5081 0.02089 0.16797 0.05098 0.3301 0.09026 0.48637 0.03928 0.15377 0.09276 0.30252 0.15878 0.44459 0.06852 0.14624 0.1521 0.28998 0.24987 0.42954h7.85e-4c0.09694 0.13705 0.21812 0.27327 0.36352 0.40698 0.15042 0.13789 0.32425 0.27411 0.52314 0.40614 0.11365 0.07605 0.14457 0.23065 0.06769 0.3443-0.04763 0.07103-0.12619 0.11031-0.20642 0.11031v7.85e-4h-8.9728c-0.13789 0-0.24904-0.11115-0.24904-0.24904 0-0.09025 0.04847-0.16964 0.12034-0.2131 0.2014-0.13622 0.37439-0.2716 0.51896-0.40531 0.14374-0.13287 0.26408-0.26909 0.36102-0.40949 0.0025-0.0042 0.0059-0.0084 0.0092-0.0117 0.0936-0.13705 0.17382-0.27661 0.23984-0.41868 0.06769-0.14457 0.12201-0.29333 0.16212-0.44626 8.63e-4 -0.0034 0.0016-0.0067 0.0025-0.0092 0.03844-0.14875 0.06769-0.30586 0.08775-0.47049 0.02006-0.16547 0.03092-0.33678 0.03092-0.51311v-1.1783c0-0.1897 0.01672-0.37773 0.05098-0.56576 0.03427-0.18719 0.08357-0.36686 0.14959-0.53817 0.06518-0.17132 0.14374-0.33595 0.23483-0.49306 0.09025-0.15627 0.19388-0.30419 0.31004-0.44459l0.0016-0.00165c0.11533-0.13789 0.24235-0.26658 0.38024-0.38442 0.13622-0.11616 0.2833-0.22229 0.44124-0.31673 0.15962-0.095269 0.32508-0.17549 0.49556-0.24068 0.11867-0.045131 0.24151-0.082733 0.36687-0.11365 0.04262-0.14959 0.11616-0.27076 0.22062-0.36352 0.14374-0.12786 0.3326-0.19137 0.56743-0.18887 0.23232 0.00165 0.42035 0.066021 0.56242 0.19388 0.10362 0.093597 0.178 0.21394 0.22062 0.36269z" fill="url(#linearGradient2609)"/>
  <path d="m9.8752 12.448c-0.03092 0.16212-0.08524 0.31088-0.1638 0.44709-0.08106 0.13956-0.1872 0.26575-0.31756 0.37606-0.1312 0.11031-0.27327 0.19388-0.42787 0.24987s-0.3184 0.08357-0.49138 0.08357c-0.17382 0-0.33762-0.02841-0.49138-0.08357-0.15377-0.05599-0.29667-0.13872-0.42704-0.24987-0.1312-0.11115-0.2365-0.2365-0.31756-0.37606s-0.13622-0.29333-0.1663-0.46214c-0.01504-0.0819 0.04011-0.16045 0.12201-0.17549 0.0025 0 0.02674-0.0025 0.02674-0.0025h2.5087c0.08357 0 0.1521 0.06769 0.1521 0.1521-7.85e-4 0.01421-0.0034 0.02757-0.0067 0.04095z" fill="#2e3440" opacity=".3"/>
 </g>
</svg>
