<svg width="64" height="64" version="1.1" viewBox="0 0 16.933 16.933" xmlns="http://www.w3.org/2000/svg">
 <defs>
  <marker id="Arrow2" overflow="visible" markerHeight="3.3333333" markerWidth="5" orient="auto-start-reverse" preserveAspectRatio="xMidYMid" viewBox="0 0 7.7 5.6">
   <path id="arrow2L" transform="scale(.7)" d="m-2-4 11 4-11 4c2-2.33 2-5.66 0-8z" fill="context-stroke" fill-rule="evenodd"/>
  </marker>
  <filter id="filter1178" x="-.047999" y="-.047999" width="1.096" height="1.096" color-interpolation-filters="sRGB">
   <feGaussianBlur stdDeviation="0.30691668"/>
  </filter>
  <linearGradient id="linearGradient1340" x1="8.355" x2="8.3996" y1="16.007" y2=".79375" gradientUnits="userSpaceOnUse">
   <stop stop-color="#d8dee9" offset="0"/>
   <stop stop-color="#eceff4" offset="1"/>
  </linearGradient>
  <filter id="filter2512" x="-.13595" y="-.49173" width="1.4196" height="1.6478" color-interpolation-filters="sRGB">
   <feGaussianBlur stdDeviation="0.30356325"/>
  </filter>
 </defs>
 <g transform="translate(-.0076499 -.0030174)">
  <g stroke-linecap="round" stroke-linejoin="round">
   <rect transform="matrix(.99138 0 0 1 .072989 .0019055)" x=".79375" y=".90545" width="15.346" height="15.346" rx="3.0526" ry="3.0526" fill="#000000" filter="url(#filter1178)" opacity=".15" stroke-width="1.2489" style="mix-blend-mode:normal"/>
   <rect x=".92604" y=".92604" width="15.081" height="15.081" rx="3" ry="3" fill="url(#linearGradient1340)" stroke-width="1.2274"/>
   <rect x=".01215" y=".0060174" width="16.924" height="16.927" fill="none" opacity=".15" stroke-width="1.052"/>
  </g>
 </g>
 <text x="-49.806946" y="19.370577" font-family="sans-serif" font-size="2.8222px" letter-spacing="0px" stroke-width=".26458" word-spacing="0px" style="line-height:1.25" xml:space="preserve"><tspan x="-49.806946" y="19.370577" stroke-width=".26458"/></text>
 <g transform="translate(1.6688 -.18257)" fill="none" filter="url(#filter2512)" opacity=".37637" stroke="#2e3440" stroke-linecap="round" stroke-width=".93982">
  <path d="m10.768 6.3951-4.4644 7.6775" marker-start="url(#Arrow2)"/>
  <path d="m6.3032 14.073-4.3511-2.4389"/>
  <path d="m7.0227 12.835-4.4716-2.4992"/>
  <path d="m7.7472 11.589-4.3912-2.3987"/>
 </g>
 <g transform="translate(1.4558 -.39556)" fill="none" stroke="#2e3440" stroke-linecap="round" stroke-width=".93982">
  <path d="m10.768 6.3951-4.4644 7.6775" marker-start="url(#Arrow2)"/>
  <path d="m6.3032 14.073-4.3511-2.4389"/>
  <path d="m7.0227 12.835-4.4716-2.4992"/>
  <path d="m7.7472 11.589-4.3912-2.3987"/>
 </g>
</svg>
