<?xml version="1.0" encoding="UTF-8"?>
<svg width="64" height="64" version="1.1" xmlns="http://www.w3.org/2000/svg" xmlns:xlink="http://www.w3.org/1999/xlink">
 <defs>
  <filter id="filter1178" x="-.047999" y="-.047999" width="1.096" height="1.096" color-interpolation-filters="sRGB">
   <feGaussianBlur stdDeviation="0.30691668"/>
  </filter>
  <radialGradient id="radialGradient11800" cx="8.4665" cy="8.4665" r="7.5405" gradientTransform="matrix(1.1238 0 -1.0595e-8 1.1224 -1.0482 -1.0363)" gradientUnits="userSpaceOnUse">
   <stop stop-color="#d8dee9" offset="0"/>
   <stop stop-color="#eceff4" offset="1"/>
  </radialGradient>
  <linearGradient id="linearGradient10688" x1="157.47" x2="1.2358" y1="109.61" y2=".42659" gradientTransform="matrix(.28678 0 0 .28678 9.2437 16.222)" gradientUnits="userSpaceOnUse">
   <stop stop-color="#b54a55" offset="0"/>
   <stop stop-color="#bf616a" offset="1"/>
  </linearGradient>
 </defs>
 <g transform="matrix(3.7796 0 0 3.7796 -.028914 -.011405)" stroke-linecap="round" stroke-linejoin="round" style="">
  <rect transform="matrix(.99138 0 0 1 .072989 .0019055)" x=".79375" y=".90545" width="15.346" height="15.346" rx="3.0526" ry="3.0526" filter="url(#filter1178)" opacity=".15" stroke-width="1.2489" style="mix-blend-mode:normal"/>
  <rect x=".92604" y=".92604" width="15.081" height="15.081" rx="3" ry="3" fill="url(#radialGradient11800)" stroke-width="1.2274"/>
  <rect x=".01215" y=".0060174" width="16.924" height="16.927" fill="none" opacity=".15" stroke-width="1.052"/>
 </g>
 <path d="m53.408 21.241c-0.52194-1.93-2.0275-3.4414-3.9576-3.9576-2.5925-1.0009-27.703-1.4913-34.987 0.02868-1.93 0.52194-3.4414 2.0275-3.9576 3.9576-1.1701 5.1334-1.259 16.232 0.02868 21.48 0.52194 1.93 2.0275 3.4414 3.9576 3.9576 5.1334 1.1815 29.538 1.3479 34.987 0 1.93-0.52194 3.4414-2.0275 3.9576-3.9576 1.2475-5.5922 1.3364-16.002-0.02868-21.508z" fill="url(#linearGradient10688)" stroke-width="1.4154"/>
 <path d="m39.356 31.995-11.701-6.7107v13.421z" fill="#eceff4" stroke-width="1.4154"/>
</svg>
